<svg id="Layer_1" data-name="Layer 1" xmlns="http://www.w3.org/2000/svg" viewBox="0 0 249.76761 193.07182"><defs><style>.cls-1{fill:#231f20;}</style></defs><path class="cls-1" d="M318.84279,295.43437q-13.18292-.37408-24.72495-.65819-11.54082-.28409-21.43356-.4781-9.89153-.194-18.12776-.29784-8.235-.10381-14.80756-.11738-6.57132-.01354-11.47294.06325-4.90042.0768-8.12393.24406a46.15535,46.15535,0,0,0-4.76049.42506l-.01416.00245-.01416.00244-.01416.00244-.01416.00244-.01416.00244-.01416.00244-.01416.00244-.01416.00245q-.91956.15728-1.78912.23733-.86946.08007-1.68824.083-.81866.003-1.586-.07113a13.41038,13.41038,0,0,1-1.48233-.225,11.59444,11.59444,0,0,1-1.37732-.37877,10.39245,10.39245,0,0,1-1.27094-.53228,9.7568,9.7568,0,0,1-1.16318-.68558,9.64943,9.64943,0,0,1-2.64426-2.724,10.69379,10.69379,0,0,1-1.04788-2.11789,13.24864,13.24864,0,0,1-.5986-2.243,17.01768,17.01768,0,0,1-.24237-2.26081,21.63117,21.63117,0,0,1,.02083-2.17117c.04047-.69685.1093-1.36087.191-1.97415s.1762-1.17583.26807-1.66974.18108-.91919.25213-1.25794a27.1172,27.1172,0,0,1,1.16683-3.99724,29.93545,29.93545,0,0,1,1.71625-3.73826,36.05563,36.05563,0,0,1,2.19421-3.52243c.80312-1.143,1.674-2.25714,2.60069-3.34973s1.90922-2.16359,2.93567-3.22019,2.09681-2.0988,3.19918-3.13378,2.23675-2.06277,3.39122-3.09053,2.329-2.0555,3.51177-3.09041q1.25171-1.09516,2.51119-2.20273,1.25807-1.10911,2.51537-2.23989,1.25589-1.1323,2.50249-2.29552,1.24518-1.16475,2.47253-2.36965,1.22595-1.20643,2.42553-2.46226,1.19816-1.25736,2.36145-2.57334,1.16185-1.31752,2.28031-2.70291,1.117-1.38693,2.1821-2.851a68.18322,68.18322,0,0,0,4.32528-6.76844,71.42293,71.42293,0,0,0,3.33384-6.78673c.96088-2.24656,1.77877-4.46808,2.47591-6.63647s1.27354-4.28366,1.75145-6.3177.85731-3.98686,1.16048-5.83038.53007-3.57773.703-5.17454.29183-3.05623.379-4.35016.14256-2.42238.18846-3.35726c.08313-1.69244.14454-3.48681.16122-5.366s-.0114-3.84316-.10725-5.87486-.25947-4.1311-.51391-6.2811-.59966-4.35059-1.05874-6.58468-1.032-4.50166-1.74177-6.78561a66.00788,66.00788,0,0,0-2.563-6.8839,63.52389,63.52389,0,0,0-8.14238-13.65208,51.57013,51.57013,0,0,0-4.132-4.68094,52.57156,52.57156,0,0,0-15.05477-10.54526,51.51975,51.51975,0,0,0-5.65534-2.234,50.02384,50.02384,0,0,0-5.8493-1.53575,48.12841,48.12841,0,0,0-5.9685-.803,46.12584,46.12584,0,0,0-6.01295-.03559,50.02942,50.02942,0,0,0-15.93408,3.62377,53.31977,53.31977,0,0,0-6.593,3.23565A57.57625,57.57625,0,0,0,170.572,123.925c-1.73358,1.29728-3.31146,2.62484-4.73234,3.92784s-2.68477,2.58145-3.79036,3.78051-2.05289,2.31874-2.8406,3.30421-1.41581,1.83674-1.883,2.499a54.4768,54.4768,0,0,0-3.40906,5.49978,55.823,55.823,0,0,0-2.57625,5.45452c-.733,1.79582-1.34677,3.56187-1.86089,5.27593s-.92859,3.37613-1.263,4.964-.58872,3.10151-.78254,4.51872-.32715,2.738-.41955,3.94012-.14389,2.2856-.174,3.22819-.03893,1.7443-.046,2.38291a61.6686,61.6686,0,0,0,.33854,6.925c.24242,2.36847.60678,4.78488,1.0702,7.21254s1.02589,4.8666,1.66453,7.28013,1.35346,4.80167,2.12156,7.12775,1.58948,4.59011,2.44125,6.75541,1.734,4.23189,2.62364,6.1631,1.78689,3.727,2.66871,5.35081,1.74827,3.07553,2.57646,4.31857c.96093,1.442,1.81252,2.72327,2.57107,3.86864s1.42407,2.15486,2.01287,3.05336,1.10087,1.686,1.55256,2.38741.843,1.31669,1.19016,1.87077.65031,1.04694.92566,1.50346.52294.87673.75907,1.28548.46083.80606.69039,1.21681.464.83495.7196,1.29747c.15.27161.307.55574.4745.85795s.34556.62248.53779.96638.39861.71141.62277,1.10808.46611.82251.72945,1.28305.54806.95578.8578,1.49128.64448,1.11125,1.00784,1.73279.75535,1.28889,1.17958,2.00756.88068,1.4887,1.373,2.31561q.42132.70752.83786,1.39051.41637.68314.827,1.34263.41051.65963.81437,1.29645.40371.637.79985,1.252.396.61519.78349,1.20931.38735.59427.76527,1.16833.37777.57421.74521,1.12908.36729.555.7233,1.09155c.79291,1.19556,1.55832,2.34966,2.27986,3.47049s1.39919,2.2084,2.01658,3.2709,1.17454,2.09993,1.655,3.12049a23.71039,23.71039,0,0,1,1.19519,3.01922,15.69834,15.69834,0,0,1,.63707,2.96714,12.50087,12.50087,0,0,1-.01935,2.9642,12.74036,12.74036,0,0,1-.77406,3.01044,16.55952,16.55952,0,0,1-1.627,3.10583,17.68891,17.68891,0,0,1-3.57648,3.9762,21.136,21.136,0,0,1-4.76537,2.91037,33.25694,33.25694,0,0,1-6.00435,1.98857,59.9349,59.9349,0,0,1-7.29339,1.2108c-2.65154.29-5.52626.47433-8.63251.57708s-6.444.12386-10.0217.08738-7.39521-.13058-11.461-.25828-8.37976-.289-12.95031-.45989l-.19239-.0072-.19238-.00721-.19238-.0072-.19238-.0072-.19239-.0072-.19238-.0072-.19238-.00721-.19238-.0072q-3.937-.147-7.88092-.22224-3.9434-.07522-7.89035-.07877-3.94636-.00356-7.89285.06444-3.9459.068-7.88844.2074-3.942.13938-7.8771.35007-3.93457.21067-7.85887.4925-3.92372.28182-7.83369.63466l-.72154-7.96767q3.98183-.35947,7.97873-.64671,3.99631-.2872,8.00421-.502,4.00732-.21474,8.02274-.35686,4.01484-.14208,8.0343-.21138,4.01887-.06925,8.03889-.06553,4.01943.00375,8.03652.08067,4.01652.077,8.02719.22725l.19239.0072.19238.0072.19238.00721.19238.0072.19239.0072.19238.0072.19238.00721.19239.0072q6.10391.22815,11.60054.41685,5.49543.18025,10.37639.27043c3.25318.05449,6.29994.0677,9.13788.02274s5.46708-.14807,7.885-.32623,4.62464-.43137,6.61775-.7765a33.732,33.732,0,0,0,5.33613-1.328,16.83488,16.83488,0,0,0,4.04015-1.98084,10.03614,10.03614,0,0,0,2.72979-2.735,8.08733,8.08733,0,0,0,.729-1.34344,5.24012,5.24012,0,0,0,.36564-1.34435,5.36,5.36,0,0,0-.01569-1.44054,8.42226,8.42226,0,0,0-.415-1.632,16.91815,16.91815,0,0,0-.8322-1.91883c-.34893-.698-.77039-1.45967-1.26737-2.30091s-1.06949-1.762-1.7205-2.7783-1.38055-2.12794-2.19159-3.351q-.3653-.55079-.74255-1.12039-.37713-.56982-.76552-1.15975-.38826-.59013-.78706-1.20165-.39867-.61173-.80716-1.24612-.40837-.63459-.82584-1.29312-.41736-.65874-.84309-1.34269-.42562-.68416-.85891-1.39481-.43315-.71086-.87329-1.44948-.75072-1.261-1.39619-2.35493c-.43152-.73112-.83039-1.41026-1.20026-2.043s-.71072-1.2191-1.02624-1.76466-.60567-1.05033-.87413-1.5199-.51523-.904-.74395-1.30874-.43939-.78-.63568-1.13116-.37817-.67838-.54931-.98717-.33156-.59918-.48488-.87677c-.2406-.4353-.46126-.83453-.67785-1.2219s-.42913-.76288-.65349-1.15073-.46052-.78806-.7244-1.22482-.55545-.91008-.89061-1.44417-.7139-1.129-1.15211-1.80878-.93588-1.44465-1.50889-2.31865-1.22138-1.85719-1.961-2.97377-1.57041-2.36658-2.50834-3.77417c-.86572-1.29919-1.78172-2.82469-2.72145-4.53943s-1.90321-3.61872-2.8639-5.67489-1.91859-4.26451-2.84718-6.588-1.82786-4.76206-2.67129-7.2787-1.631-5.11136-2.33623-7.74706-1.32806-5.31242-1.842-7.99306-.919-5.36523-1.1886-8.01669a69.95953,69.95953,0,0,1-.376-7.818c.00775-.71564.0175-1.614.05156-2.67081s.09243-2.272.19743-3.62114.2566-2.83242.47715-4.42529.51-3.29541.89074-5.08324.85269-3.66094,1.43821-5.595,1.2846-3.929,2.11954-5.96056a63.782,63.782,0,0,1,2.93473-6.17992,62.81829,62.81829,0,0,1,3.8838-6.25311c.53229-.7544,1.24818-1.72415,2.14664-2.84682s1.97947-2.39828,3.242-3.76439,2.70664-2.82271,4.33122-4.30738a70.22109,70.22109,0,0,1,5.41421-4.47582,65.729,65.729,0,0,1,6.491-4.26969,61.16346,61.16346,0,0,1,7.56155-3.689,57.85885,57.85885,0,0,1,18.31-4.13764,53.92676,53.92676,0,0,1,6.987.0395,56.107,56.107,0,0,1,6.92962.92578,58.14225,58.14225,0,0,1,6.786,1.7722,59.71431,59.71431,0,0,1,6.55626,2.57875,60.60641,60.60641,0,0,1,17.428,12.17689,59.3021,59.3021,0,0,1,4.775,5.4063,72.58077,72.58077,0,0,1,5.16529,7.55163,71.4112,71.4112,0,0,1,3.93995,7.6375,73.36364,73.36364,0,0,1,2.86881,7.61486c.79488,2.52246,1.43693,5.02307,1.95185,7.48373s.90272,4.88138,1.18908,7.24408.4713,4.66738.5805,6.89595.14267,4.381.1261,6.4393-.08318,4.02235-.17412,5.87416c-.04993,1.01623-.11017,2.24287-.20544,3.65011s-.22557,2.99508-.41562,4.73372-.43984,3.62808-.7741,5.63852-.753,4.14186-1.28086,6.36449-1.165,4.53645-1.93593,6.91166-1.67581,4.81181-2.73928,7.28a79.34165,79.34165,0,0,1-3.69092,7.46954,76.56808,76.56808,0,0,1-4.79086,7.48027q-1.1629,1.60217-2.38565,3.11666-1.22055,1.5156-2.48768,2.95019-1.26494,1.43569-2.56319,2.797-1.29606,1.36245-2.61218,2.65723-1.31393,1.29588-2.63466,2.53075-1.31853,1.236-2.63062,2.4176-1.30987,1.18273-2.60006,2.31778-1.288,1.13616-2.543,2.2313-1.64886,1.4427-3.23243,2.8417-1.57905,1.40178-3.06569,2.77645-1.48213,1.37745-2.84473,2.74439c-.9054.91314-1.76492,1.82646-2.56955,2.7455s-1.55435,1.84378-2.24014,2.77978a29.64428,29.64428,0,0,0-1.85651,2.84725,22.80977,22.80977,0,0,0-1.41866,2.94788,19.1919,19.1919,0,0,0-.92658,3.0817c-.15381.73291-.27208,1.40094-.36031,2.00976s-.14641,1.15844-.18,1.65452-.04271.93862-.03273,1.3333a9.25651,9.25651,0,0,0,.08162,1.04612,5.87706,5.87706,0,0,0,.163.793,3.73268,3.73268,0,0,0,.21144.57388,2.40678,2.40678,0,0,0,.22691.38879,1.58019,1.58019,0,0,0,.20943.23776,1.55278,1.55278,0,0,0,.19487.15044,2.09562,2.09562,0,0,0,.27809.15272,2.89236,2.89236,0,0,0,.375.14,4.07908,4.07908,0,0,0,.48573.11226,5.81023,5.81023,0,0,0,.61015.06951c.22565.01437.47432.01912.74831.01173s.57329-.0269.90019-.06105.68141-.08293,1.06581-.14885l.01758-.003.01758-.00305.01758-.00306.01758-.003.01757-.00305.01758-.003.01758-.00305.01758-.003a49.28464,49.28464,0,0,1,4.93327-.47q3.25954-.1881,8.12912-.28211,4.87566-.09395,11.39776-.09336,6.52816.00066,14.73919.0963,8.21709.09571,18.15342.28687,9.94241.19124,21.64045.47834,11.70411.28719,25.20027.67072Z" transform="translate(-69.07519 -105.23952)"/></svg>