<svg id="Layer_1" data-name="Layer 1" xmlns="http://www.w3.org/2000/svg" viewBox="0 0 265.0607 193.58824"><defs><style>.cls-1{fill:#231f20;}</style></defs><path class="cls-1" d="M333.27725,294.01261q-6.53358-1.0875-13.10908-2.10534-6.57384-1.008-13.17965-1.887-6.60415-.86918-13.23034-1.55018-6.62452-.67113-13.26115-1.09483-6.635-.41384-13.27207-.521-6.63546-.09728-13.26312.17135-6.626.27852-13.2343.9822c-.35754.0387-.74524.08063-1.157.1181s-.84759.07049-1.30139.09134-.92559.02957-1.40926.01843-.97924-.04214-1.48062-.10067a12.97228,12.97228,0,0,1-1.51545-.26592,10.98386,10.98386,0,0,1-1.51377-.47734,9.84651,9.84651,0,0,1-1.47557-.73492,9.58286,9.58286,0,0,1-1.40085-1.03867,10.05555,10.05555,0,0,1-1.23246-1.3151,10.22807,10.22807,0,0,1-.98076-1.51711,11.24611,11.24611,0,0,1-.72785-1.71221,13.15911,13.15911,0,0,1-.47372-1.9004,16.053,16.053,0,0,1-.21838-2.08167,20.03405,20.03405,0,0,1,.03817-2.256q.08343-1.17045.29594-2.42348.21261-1.25245.55492-2.584.44349-1.72467.9661-3.41217.52075-1.688,1.10949-3.342.58687-1.65453,1.23058-3.27823.64183-1.6242,1.32933-3.22073.68563-1.597,1.40578-3.16955.71829-1.573,1.45991-3.1247.73977-1.55218,1.49173-3.08615.75009-1.5345,1.50122-3.05393.19044-.386.38072-.77194t.38022-.772q.18994-.386.37943-.77218t.37831-.7725q.18882-.38635.37689-.77295t.37517-.77356q.18709-.38694.37313-.77428t.37078-.77516q1.73566-3.64691,3.27054-7.20293,1.53516-3.557,2.8712-7.029,1.33632-3.47294,2.47516-6.8667,1.13913-3.39474,2.08244-6.71614.94359-3.32238,1.693-6.57728.7497-3.25589,1.30691-6.45012.55748-3.19523.9241-6.33466.3669-3.14041.5446-6.2309.21387-3.7164.13818-7.37242-.0744-3.65133-.43072-7.21414-.355-3.55811-.98435-6.99954-.628-3.43674-1.52267-6.72866-.89337-3.28722-2.04572-6.40147-1.15107-3.10956-2.55346-6.018a62.20293,62.20293,0,0,0-3.04593-5.57821,55.905,55.905,0,0,0-3.5231-5.08211,51.57013,51.57013,0,0,0-4.132-4.68094,52.57156,52.57156,0,0,0-15.05477-10.54526,51.51975,51.51975,0,0,0-5.65534-2.234,50.02384,50.02384,0,0,0-5.8493-1.53575,48.12841,48.12841,0,0,0-5.9685-.803,46.12584,46.12584,0,0,0-6.01295-.03559,47.6664,47.6664,0,0,0-5.8968.72882,50.38363,50.38363,0,0,0-5.81073,1.45163,53.22644,53.22644,0,0,0-5.66564,2.14006,55.932,55.932,0,0,0-5.46154,2.79411,58.26982,58.26982,0,0,0-5.19842,3.41379,60.09215,60.09215,0,0,0-4.87627,3.99908,61.3502,61.3502,0,0,0-4.49512,4.55,62.08673,62.08673,0,0,0-4.05495,5.06654q-1.92672,2.68368-3.62585,5.63329-1.69815,2.946-3.16278,6.13616-1.46365,3.18655-2.6879,6.59555-1.22327,3.40538-2.2012,7.01146-.977,3.60247-1.7027,7.3839-.72476,3.77781-1.19238,7.71286-.46665,3.93142-.67026,7.99834-.20264,4.0633-.13632,8.24035.06381,3.96231.34318,7.89053.27505,3.92742.73976,7.816.46038,3.88782,1.08453,7.73212.61983,3.84351,1.37751,7.63877.75336,3.79446,1.61868,7.536.861,3.74071,1.80806,7.42375.94273,3.68225,1.94562,7.30209.99856,3.619,2.03139,7.171c.37115,1.28161.73454,2.57118,1.07635,3.86425s.662,2.58963.94684,3.88524.53424,2.59029.73445,3.87955.35118,2.57314.43914,3.84715a34.32829,34.32829,0,0,1,.06093,3.78806,27.20521,27.20521,0,0,1-.40017,3.70225,23.06967,23.06967,0,0,1-.94417,3.58977,21.44792,21.44792,0,0,1-1.57109,3.45056,20.04124,20.04124,0,0,1-2.77455,3.7888,20.72757,20.72757,0,0,1-3.3485,2.89182,24.18556,24.18556,0,0,1-3.73926,2.11941,30.15,30.15,0,0,1-3.94683,1.47158,38.54241,38.54241,0,0,1-3.9712.9483c-1.30745.24274-2.58842.419-3.81239.54961s-2.391.21549-3.47038.27547-2.07135.095-2.94519.12591l-7.93829.28064-7.93829.28064-7.9383.28064-7.93829.28064-7.93829.28064-7.9383.28064-7.93829.28064-.28223-7.99414,7.9383-.28064,7.93829-.28064,7.93829-.28064,7.9383-.28064,7.93829-.28064,7.93829-.28064,7.9383-.28064c1.108-.03918,2.2138-.09224,3.30789-.168s2.17648-.1742,3.23777-.30418,2.10145-.29147,3.11107-.49332a29.22,29.22,0,0,0,2.9278-.73544,20.93566,20.93566,0,0,0,2.688-1.03051,15.68738,15.68738,0,0,0,2.39154-1.37854,12.81972,12.81972,0,0,0,2.03854-1.77955,12.03779,12.03779,0,0,0,1.629-2.23352,13.208,13.208,0,0,0,1.07984-2.4754,16.09677,16.09677,0,0,0,.60793-2.68913,21.31045,21.31045,0,0,0,.19865-2.868,29.46853,29.46853,0,0,0-.148-3.012c-.10016-1.02414-.24766-2.06648-.43206-3.1212s-.40571-2.12184-.65348-3.19553-.522-2.154-.81228-3.235-.59656-2.16286-.90845-3.23964q-1.05744-3.65094-2.08858-7.37528-1.02672-3.72376-2.00053-7.51754-.96939-3.7932-1.85927-7.653-.88545-3.85924-1.66478-7.78173-.7749-3.92192-1.41709-7.90366-.63775-3.98118-1.11618-8.0188-.474-4.03706-.762-8.12717-.28362-4.08954-.35471-8.22875-.07241-4.49332.15213-8.87935.22347-4.3821.73743-8.63335.51288-4.24733,1.30977-8.34022.79581-4.089,1.86916-7.99993,1.07226-3.907,2.41558-7.6125,1.34225-3.70154,2.94907-7.17792,1.60575-3.47247,3.46959-6.69621,1.86276-3.21982,3.97716-6.16736a69.57735,69.57735,0,0,1,9.74245-10.93163,68.14933,68.14933,0,0,1,5.57195-4.54712,66.40307,66.40307,0,0,1,5.949-3.88251,64.06433,64.06433,0,0,1,6.2584-3.17882,61.28863,61.28863,0,0,1,6.50022-2.436,58.306,58.306,0,0,1,6.67446-1.65413,55.41321,55.41321,0,0,1,6.7811-.83314,53.92676,53.92676,0,0,1,6.987.0395,56.107,56.107,0,0,1,6.92962.92578,58.14225,58.14225,0,0,1,6.786,1.7722,59.71431,59.71431,0,0,1,6.55626,2.57875,60.60641,60.60641,0,0,1,17.428,12.17689,59.3021,59.3021,0,0,1,4.775,5.4063,63.43026,63.43026,0,0,1,3.93758,5.6681,70.01877,70.01877,0,0,1,3.40556,6.20067q1.56693,3.2231,2.85643,6.671,1.28808,3.44277,2.29018,7.07927,1.00066,3.63132,1.7068,7.42531.7047,3.7888,1.10631,7.70919.40017,3.9152.48869,7.93089.08709,4.01052-.146,8.09043-.18933,3.28886-.57618,6.62208-.38714,3.33426-.97354,6.71908-.58668,3.38586-1.3744,6.82846-.788,3.44362-1.77876,6.95019-.99106,3.5076-2.18664,7.0843-1.19586,3.57772-2.598,7.23076-1.40242,3.65406-3.01287,7.38959-1.61074,3.73658-3.43125,7.56079-.1875.394-.37636.78761t-.37886.78674q-.19.39317-.381.786t-.38282.78541q-.19179.39258-.38428.785t-.3854.78463q-.19293.39225-.38618.78444t-.38662.7844q-.74853,1.51832-1.484,3.018-.73412,1.5008-1.447,2.98993-.71153,1.4903-1.39366,2.97592-.68077,1.4868-1.324,2.97592-.64188,1.4903-1.23805,2.98993-.59481,1.50079-1.13576,3.01794-.53958,1.51831-1.01715,3.06-.4762,1.54282-.88223,3.116-.1798.69855-.30883,1.36376c-.08605.44257-.15525.87222-.20771,1.28623s-.08818.8124-.10728,1.19244-.02157.74174-.00753,1.08237a8.30279,8.30279,0,0,0,.09153.956,5.3781,5.3781,0,0,0,.1899.81341,3.27512,3.27512,0,0,0,.28759.65453,1.99667,1.99667,0,0,0,.38459.47935,1.68473,1.68473,0,0,0,.38117.2521,2.6116,2.6116,0,0,0,.47656.17474,4.28212,4.28212,0,0,0,.56033.10729c.19945.02562.41092.04165.63248.04974s.4532.00823.693.00208.48774-.01859.74189-.03567.51451-.03881.77914-.06352.53354-.05243.80478-.08148q6.8141-.73663,13.62453-1.0184,6.80931-.29187,13.60815-.18946,6.79772.09231,13.57815.51829,6.77929.41589,13.53451,1.10485,6.75407.67887,13.47724,1.57021,6.722.88125,13.40635,1.91438,6.68318,1.023,13.32182,2.13736Z" transform="translate(-69.35919 -105.23952)"/></svg>