<svg id="Layer_1" data-name="Layer 1" xmlns="http://www.w3.org/2000/svg" viewBox="0 0 150.5 59.154"><defs><style>.cls-1{fill:none;stroke:#231f20;stroke-miterlimit:10;}</style></defs><path class="cls-1" d="M32,129.554a84.83,84.83,0,0,1,11.013-10.068,117.568,117.568,0,0,1,13.722-9.058,159,159,0,0,1,16.183-7.967q8.667-3.7,18.4-6.8,9.713-3.095,20.367-5.552,10.633-2.451,22.087-4.226c7.621-1.179,15.489-2.123,23.56-2.821s16.349-1.148,24.788-1.338" transform="translate(-31.633 -73.849)"/><path class="cls-1" d="M44.407,132.768a64.74,64.74,0,0,1,6.486-9.848,82.2,82.2,0,0,1,8.637-9.258,105.8,105.8,0,0,1,10.663-8.6,135.686,135.686,0,0,1,12.566-7.873q6.739-3.742,14.346-7.077t16-6.213q8.394-2.88,17.535-5.28t18.944-4.279" transform="translate(-31.633 -73.849)"/></svg>