<?xml version="1.0" encoding="utf-8"?>
<!-- Generator: Adobe Illustrator 25.4.1, SVG Export Plug-In . SVG Version: 6.00 Build 0)  -->
<svg version="1.1" id="Layer_1" xmlns="http://www.w3.org/2000/svg" xmlns:xlink="http://www.w3.org/1999/xlink" x="0px" y="0px"
	 viewBox="0 0 317.8 170.9" style="enable-background:new 0 0 317.8 170.9;" xml:space="preserve">
<style type="text/css">
	.st0{fill:none;stroke:#231F20;stroke-width:0.5;stroke-miterlimit:10;}
</style>
<path class="st0" d="M256.1,24.7l-1.5-1.4l-1.5-1.4l-1.5-1.4l-1.5-1.4l-1.5-1.4l-1.5-1.4l-1.5-1.4l-1.5-1.4c-0.3-0.3-0.6-0.6-1-0.8
	s-0.7-0.5-1-0.8s-0.7-0.5-1.1-0.7c-0.4-0.2-0.7-0.4-1.1-0.6c-0.4-0.2-0.8-0.3-1.1-0.4c-0.4-0.1-0.7-0.1-1.1-0.1
	c-0.4,0-0.8,0-1.1,0.1c-0.4,0.1-0.7,0.2-1.1,0.4c-0.2,0.1-0.4,0.3-0.6,0.5c-0.2,0.2-0.4,0.4-0.5,0.6c-0.2,0.2-0.3,0.4-0.4,0.6
	c-0.1,0.2-0.3,0.5-0.4,0.7c-0.1,0.2-0.2,0.5-0.3,0.8s-0.2,0.5-0.2,0.8s-0.1,0.5-0.2,0.8l-0.1,0.8c-0.1,0.8-0.3,1.5-0.4,2.2
	c-0.1,0.8-0.2,1.5-0.3,2.3s-0.2,1.5-0.2,2.3s-0.1,1.5-0.2,2.3s-0.1,1.5-0.1,2.3s-0.1,1.5-0.1,2.3s0,1.5,0,2.3s0,1.5,0,2.3"/>
<path class="st0" d="M236.1,18.5c0.5,0.6,0.9,1.2,1.3,1.8c0.4,0.6,0.7,1.3,1,2c0.3,0.7,0.5,1.4,0.7,2.1c0.2,0.7,0.3,1.4,0.4,2.2
	c0.2,1.5,0.2,3,0,4.4c-0.1,0.7-0.2,1.5-0.4,2.2c-0.2,0.7-0.4,1.4-0.7,2.1"/>
<path class="st0" d="M249.5,18.5c0.9,0.5,1.7,0.9,2.6,1.3c0.9,0.4,1.8,0.8,2.8,1.1s1.9,0.6,2.9,0.8s1.9,0.5,2.9,0.7s2,0.4,2.9,0.6
	l3,0.6l3,0.6c1,0.2,2,0.4,2.9,0.7s1.9,0.5,2.9,0.9s1.9,0.7,2.9,1.1c0.9,0.4,1.8,0.9,2.7,1.4c0.9,0.5,1.7,1.1,2.5,1.7
	c0.8,0.6,1.5,1.2,2.2,1.9c0.7,0.7,1.3,1.4,1.8,2.2c0.5,0.8,1,1.6,1.4,2.5c0.4,0.9,0.7,1.8,0.8,2.8c0.1,0.3,0.1,0.6,0.1,0.9
	s0.1,0.6,0.1,0.9l0.1,0.9c0,0.3,0.1,0.6,0.1,0.9c0.1,0.3,0.1,0.6,0.2,0.8c0.1,0.3,0.2,0.5,0.3,0.8c0.1,0.3,0.2,0.5,0.4,0.7
	c0.2,0.2,0.3,0.5,0.5,0.7c0.1,0.1,0.2,0.2,0.4,0.3c0.1,0.1,0.2,0.2,0.4,0.3c0.1,0.1,0.3,0.2,0.4,0.2c0.1,0.1,0.3,0.2,0.4,0.2
	l0.4,0.2l0.4,0.2l0.4,0.2l0.5,0.1l1.8,0.6l1.8,0.6l1.8,0.6l1.8,0.6l1.8,0.6l1.8,0.6l1.8,0.6l1.8,0.6l0.8,0.2l0.8,0.3l0.8,0.3
	l0.8,0.3l0.7,0.4c0.2,0.1,0.5,0.3,0.7,0.4c0.2,0.1,0.5,0.3,0.7,0.4l0.6,0.5c0.2,0.2,0.4,0.4,0.6,0.6c0.2,0.2,0.4,0.4,0.5,0.6
	s0.3,0.5,0.4,0.7c0.1,0.2,0.2,0.5,0.3,0.8c0.1,0.3,0.1,0.5,0.2,0.8c0.1,0.3,0.1,0.5,0.1,0.8c0,0.3,0,0.5-0.1,0.8
	c-0.1,0.3-0.1,0.5-0.2,0.8c-0.1,0.3-0.2,0.5-0.4,0.7c-0.2,0.2-0.4,0.4-0.6,0.6c-0.2,0.2-0.4,0.3-0.7,0.4c-0.2,0.1-0.5,0.2-0.8,0.3
	c-0.3,0.1-0.5,0.1-0.8,0.1c-0.3,0-0.5,0-0.8-0.1c-0.3,0-0.5-0.1-0.7-0.3c-0.2-0.1-0.4-0.3-0.6-0.5"/>
<path class="st0" d="M311.6,62.7c-0.6,0.7-1.2,1.5-1.8,2.2s-1.2,1.5-1.9,2.2s-1.3,1.4-2,2.1s-1.4,1.4-2.1,2s-1.4,1.2-2.2,1.8
	c-0.8,0.5-1.5,1-2.4,1.5c-0.8,0.4-1.7,0.8-2.5,1.1c-0.9,0.3-1.8,0.6-2.7,0.7c-0.4,0.1-0.7,0.1-1.1,0.2s-0.7,0.1-1.1,0.1h-1.1h-2.2
	h-1.1h-1.1h-1.1c-1.8,0-3.5,0.1-5.3,0.2c-1.8,0.2-3.5,0.4-5.2,0.8s-3.4,0.8-5.1,1.2s-3.4,1-5.1,1.6s-3.4,1.2-5,1.9s-3.3,1.4-5,2.1
	s-3.3,1.5-4.9,2.2s-3.2,1.5-4.8,2.3l-6,2.9l-6,2.9l-6,2.9l-6,2.9l-6,2.9l-6,2.9l-6,2.9l-6,2.9"/>
<path class="st0" d="M301,72.9h-1.3h-1.3c-0.4,0-0.9-0.1-1.3-0.1s-0.9-0.1-1.3-0.1l-1.3-0.2l-1.3-0.2L292,72l-1.3-0.3"/>
<path class="st0" d="M222.8,46c0.1,1,0.2,2.1,0.1,3.1c0,1,0,2-0.1,3s-0.2,2-0.4,3s-0.4,2-0.6,3s-0.5,1.9-0.8,2.9s-0.6,1.9-0.9,2.9
	s-0.6,1.9-1,2.9s-0.6,1.9-1,2.9s-0.7,2-1.1,2.9s-0.9,1.9-1.4,2.9s-1,1.9-1.5,2.9s-1.1,1.9-1.7,2.8s-1.2,1.8-1.8,2.7
	s-1.3,1.8-1.9,2.6s-1.3,1.7-2,2.6s-1.3,1.6-2,2.4"/>
<path class="st0" d="M209.8,73.1c-1,1.6-2.1,3.1-3.2,4.6s-2.2,3-3.4,4.5s-2.4,2.9-3.6,4.4s-2.5,2.8-3.8,4.2s-2.6,2.7-3.9,4.1
	s-2.7,2.6-4.1,3.9s-2.8,2.5-4.3,3.7s-2.9,2.4-4.4,3.6"/>
<path class="st0" d="M187.6,100c0.1,0.4,0.3,0.9,0.5,1.3c0.2,0.4,0.4,0.9,0.6,1.3c0.2,0.4,0.5,0.8,0.7,1.2c0.2,0.4,0.5,0.8,0.8,1.2
	s0.6,0.8,0.9,1.1s0.6,0.7,0.9,1.1s0.6,0.7,0.9,1.1l0.9,1.1c0.6,0.7,1.2,1.4,1.8,2.2s1.1,1.5,1.6,2.2s1,1.5,1.6,2.3s1,1.6,1.5,2.4
	s0.9,1.6,1.4,2.4s0.9,1.6,1.3,2.5s0.8,1.7,1.1,2.5s0.7,1.7,1,2.6c0.1,0.4,0.3,0.7,0.4,1.1s0.2,0.8,0.4,1.1s0.2,0.8,0.3,1.1
	s0.2,0.8,0.2,1.2c0.1,0.4,0.1,0.8,0.1,1.2c0.1,0.8,0,1.6-0.1,2.4c-0.1,0.4-0.1,0.8-0.2,1.1c-0.1,0.4-0.2,0.7-0.4,1
	c-0.1,0.3-0.3,0.7-0.5,1s-0.4,0.6-0.6,0.9s-0.5,0.6-0.7,0.9s-0.5,0.6-0.8,0.8s-0.5,0.5-0.8,0.8s-0.6,0.5-0.9,0.8l-0.9,0.7
	c-0.7,0.6-1.4,1.1-2.1,1.7c-0.7,0.5-1.4,1.1-2.1,1.6c-0.7,0.5-1.4,1-2.1,1.6s-1.5,1-2.2,1.5s-1.5,1-2.2,1.5s-1.5,0.9-2.3,1.4
	s-1.5,0.9-2.3,1.3s-1.5,0.9-2.3,1.3"/>
<path class="st0" d="M189.1,136.5c0.3,1.9,0.3,3.8,0.1,5.7c-0.1,0.9-0.2,1.9-0.4,2.8c-0.4,1.9-0.9,3.7-1.6,5.5
	c-0.7,1.8-1.6,3.4-2.7,5c-0.5,0.8-1.1,1.5-1.7,2.3"/>
<path class="st0" d="M154,53.4c-0.8,1.7-1.6,3.4-2.4,5.1c-0.8,1.7-1.6,3.4-2.4,5.1s-1.5,3.5-2.3,5.2c-0.7,1.7-1.5,3.5-2.2,5.2
	c-0.7,1.8-1.4,3.5-2.1,5.3c-0.7,1.8-1.3,3.5-2,5.3c-0.6,1.8-1.3,3.6-1.9,5.3s-1.2,3.6-1.8,5.4c-0.3,0.8-0.5,1.6-0.8,2.4
	s-0.5,1.6-0.7,2.4s-0.5,1.6-0.7,2.4s-0.4,1.6-0.6,2.4s-0.4,1.6-0.5,2.4s-0.3,1.6-0.4,2.4s-0.2,1.6-0.3,2.5s-0.1,1.7-0.2,2.5"/>
<path class="st0" d="M132.5,112.3c0.2,0.5,0.4,0.9,0.6,1.4c0.2,0.4,0.5,0.8,0.8,1.2c0.3,0.4,0.6,0.7,1,1.1c0.4,0.4,0.8,0.7,1.2,1
	c0.4,0.3,0.9,0.6,1.3,0.9s0.9,0.5,1.4,0.7s0.9,0.4,1.4,0.7l1.4,0.6c1,0.4,2,0.7,3,1.1s2,0.7,3.1,1s2,0.6,3.1,0.9s2.1,0.6,3.1,0.8
	l3.1,0.8l3.1,0.8l3.1,0.8l3.1,0.9c1,0.3,2,0.6,3.1,1s2,0.7,3,1s2,0.8,3,1.2s2,0.9,2.9,1.3s1.9,1,2.9,1.5s1.9,1.1,2.7,1.6
	s1.8,1.2,2.6,1.8s1.7,1.3,2.5,2"/>
<path class="st0" d="M92.5,54.4l-0.1-0.3l-0.1-0.3l-0.1-0.3l-0.1-0.3L92,52.7l-0.1-0.3L91.8,52l-0.1-0.3c0.3,1.1,0.6,2.1,0.9,3.2
	s0.6,2.2,0.8,3.2s0.5,2.2,0.8,3.2s0.5,2.2,0.8,3.2s0.5,2.2,0.7,3.3s0.5,2.2,0.7,3.3s0.4,2.2,0.7,3.3s0.4,2.2,0.6,3.3
	c0.3,1.6,0.6,3.2,0.9,4.8s0.5,3.2,0.7,4.8s0.4,3.2,0.5,4.9s0.2,3.2,0.2,4.9s0,3.2-0.1,4.8s-0.3,3.2-0.6,4.7
	c-0.3,1.6-0.6,3.1-1.1,4.6c-0.4,1.5-1,3-1.6,4.5c-0.6,1.3-1.2,2.6-1.9,3.8c-0.7,1.2-1.4,2.4-2.2,3.6s-1.6,2.3-2.4,3.5
	s-1.7,2.3-2.6,3.4s-1.7,2.3-2.5,3.5s-1.6,2.3-2.4,3.5s-1.5,2.4-2.1,3.6c-0.7,1.3-1.2,2.5-1.8,3.9"/>
<path class="st0" d="M78.9,144.5c0.7,0.4,1.5,0.7,2.2,1.1s1.4,0.8,2.2,1.2s1.4,0.8,2.1,1.2s1.4,0.9,2.1,1.3s1.4,0.9,2,1.4
	s1.3,1,2,1.5s1.3,1,1.9,1.5s1.3,1,1.9,1.6"/>
<path class="st0" d="M232,18c-0.9,0.2-1.9,0.4-2.9,0.4c-0.9,0-1.9,0-2.8-0.1c-1-0.1-1.9-0.3-2.8-0.5c-0.9-0.2-1.9-0.5-2.8-0.9
	s-1.9-0.7-2.8-1.1s-1.8-0.8-2.8-1.2l-2.7-1.3c-0.9-0.4-1.8-0.9-2.7-1.2c-2.8-1.2-5.6-2.3-8.5-3.1c-2.9-0.9-5.9-1.5-8.9-2
	c-3-0.5-6-0.8-9-0.8c-3-0.1-6.1,0-9.1,0.3c-3,0.3-6,0.7-9,1.4c-3,0.6-5.9,1.5-8.7,2.5c-2.9,1-5.6,2.2-8.3,3.6
	c-2.7,1.4-5.3,2.9-7.8,4.7"/>
<path class="st0" d="M153.5,10.4c-0.8,0.6-1.6,1-2.4,1.4c-0.8,0.4-1.7,0.7-2.6,0.9c-0.9,0.2-1.8,0.4-2.8,0.5
	c-0.9,0.1-1.9,0.2-2.9,0.2c-1,0-1.9-0.1-2.9-0.1s-2-0.2-2.9-0.4s-2-0.3-2.9-0.5s-1.9-0.4-2.9-0.6l-4.2-0.9l-4.2-0.9l-4.2-0.9
	l-4.2-0.9l-4.2-0.9L106,6.4l-4.2-0.9l-4.2-0.9l-2.8-0.6l-2.8-0.6C91,3.1,90,2.9,89.1,2.8s-1.9-0.4-2.8-0.5S84.4,2,83.4,1.9
	s-1.9-0.2-2.9-0.3s-1.9-0.2-2.9-0.2s-1.9-0.1-2.9-0.1s-1.9,0-2.9,0.1S70,1.5,69,1.6s-1.9,0.2-2.9,0.4s-1.9,0.3-2.9,0.5
	s-1.9,0.4-2.9,0.6s-1.9,0.5-2.8,0.8s-1.9,0.6-2.8,0.9s-1.9,0.6-2.8,1c-1.6,0.6-3.2,1.2-4.7,1.9S44.2,9,42.6,9.8s-3,1.6-4.4,2.5
	s-2.9,1.8-4.3,2.8s-2.7,2-4,3.1s-2.5,2.2-3.7,3.4s-2.3,2.4-3.4,3.8s-2.1,2.6-3.1,4.1c-1,1.4-1.8,2.9-2.6,4.4
	c-0.8,1.5-1.5,3.1-2.2,4.6c-0.6,1.6-1.2,3.2-1.7,4.8c-0.5,1.6-0.8,3.3-1.1,5c-0.3,1.7-0.5,3.3-0.6,5c-0.1,1.7-0.1,3.4,0.1,5.1
	c0.2,3.4,0.9,6.7,2.1,9.9c0.6,1.8,1.4,3.5,2.2,5.1c0.9,1.6,1.8,3.2,2.9,4.8c1,1.6,2.1,3.1,3.3,4.6s2.3,3,3.5,4.4l3.7,4.4
	c1.2,1.5,2.4,2.9,3.6,4.4s2.3,3,3.4,4.5s2.1,3.1,3,4.8c0.6,1,1.1,2.1,1.7,3.2s1,2.2,1.4,3.3s0.9,2.2,1.2,3.4s0.7,2.3,1,3.4
	s0.5,2.3,0.8,3.5s0.4,2.4,0.5,3.5s0.2,2.4,0.3,3.6s0.1,2.4,0,3.6c0,0.8-0.1,1.5-0.1,2.3s-0.1,1.6-0.1,2.4s-0.1,1.6-0.1,2.4
	s0,1.6,0,2.3s0.1,1.5,0.2,2.3c0.1,0.8,0.2,1.5,0.4,2.2c0.2,0.7,0.4,1.4,0.7,2.1c0.3,0.7,0.7,1.4,1.1,2"/>
<path class="st0" d="M47.9,150h0.5h0.5h0.5h0.5h0.5h0.5h0.5h0.5l4,0.3l4,0.3l4,0.3l4,0.3l4,0.3l4,0.3l4,0.3l4,0.3l1.4,0.1l1.4,0.1
	l1.4,0.2l1.4,0.2c0.5,0.1,0.9,0.2,1.4,0.3s0.9,0.2,1.4,0.4c0.5,0.1,0.9,0.3,1.4,0.5c0.4,0.2,0.9,0.4,1.3,0.6"/>
<path class="st0" d="M12.1,56.1c-0.4,1.3-0.7,2.6-1,3.9s-0.5,2.6-0.7,3.9s-0.3,2.7-0.4,4s-0.2,2.7-0.2,4s0,2.7,0.1,4s0.2,2.7,0.4,4
	s0.4,2.6,0.7,3.9s0.6,2.6,1,3.9c0.3,1,0.6,2,0.9,3s0.7,2,1.1,3s0.8,2,1.2,3s0.8,2,1.2,3s0.8,2,1.2,2.9s0.8,2,1.1,3s0.7,2,1,3
	s0.6,2,0.8,3c0.6,2.4,1,4.9,1.2,7.3c0.2,2.4,0.3,4.9,0.2,7.3c-0.1,2.5-0.3,4.9-0.7,7.4c-0.4,2.5-0.9,4.9-1.5,7.3s-1.3,4.9-2,7.3
	s-1.6,4.8-2.5,7.2s-1.8,4.8-2.8,7.1s-1.9,4.7-2.9,7h46.2c-0.7-0.6-1.5-1.2-2.3-1.7c-0.8-0.5-1.7-1-2.5-1.4c-0.9-0.4-1.8-0.7-2.7-1
	c-0.9-0.3-1.8-0.5-2.8-0.7c-1.9-0.3-3.8-0.5-5.7-0.4c-1,0.1-1.9,0.2-2.8,0.4c-0.9,0.2-1.9,0.4-2.8,0.8"/>
<path class="st0" d="M45.3,161.7l-0.4,0.2l-0.4,0.2l-0.4,0.3l-0.4,0.3l-0.4,0.3c-0.1,0.1-0.2,0.2-0.3,0.3l-0.3,0.3
	c-0.1,0.1-0.2,0.2-0.3,0.4c0.5-0.5,1-1.1,1.6-1.6s1.1-1.1,1.6-1.6l1.6-1.6l1.6-1.5c0.6-0.5,1.1-1,1.7-1.5s1.1-1,1.7-1.5
	s1.1-1,1.7-1.5s1.2-1,1.8-1.4"/>
<path class="st0" d="M11.2,52L11.2,52C11.3,51.9,11.3,51.9,11.2,52c0.1-0.1,0.1-0.1,0.1-0.2c0,0,0-0.1,0-0.1c0,0,0-0.1,0-0.1
	l-0.1-0.1l-0.1-0.1H11h-0.1h-0.1h-0.1h-0.1c0,0-0.1,0-0.1,0.1l-0.1,0.1l-0.1,0.1l-0.1,0.1c-0.4,0.4-0.7,0.8-1.1,1.2s-0.7,0.8-1,1.2
	s-0.7,0.8-1,1.2s-0.6,0.8-0.9,1.3s-0.6,0.9-0.9,1.3s-0.6,0.9-0.8,1.4s-0.5,0.9-0.8,1.4s-0.5,0.9-0.7,1.4c-0.1,0.3-0.3,0.6-0.4,0.9
	s-0.2,0.6-0.4,0.9s-0.2,0.6-0.3,0.9S2,65.3,1.9,65.7c0,0.3-0.1,0.6-0.1,0.9c0,0.3,0,0.6,0.1,0.9c0,0.3,0.1,0.6,0.2,0.9
	c0.1,0.3,0.2,0.6,0.4,0.8c0.2,0.2,0.3,0.5,0.5,0.7c0.2,0.2,0.4,0.4,0.6,0.5c0.2,0.2,0.5,0.3,0.7,0.4c0.3,0.1,0.5,0.2,0.8,0.3
	c0.3,0.1,0.6,0.2,0.8,0.3l0.9,0.2c0.3,0.1,0.6,0.1,0.9,0.1l0.9,0.1"/>
<path class="st0" d="M285.7,50l-1.1,0.4l-1.1,0.5c-0.4,0.2-0.7,0.4-1.1,0.6s-0.7,0.4-1.1,0.6l-1,0.7l-1,0.7c-0.3,0.2-0.6,0.5-1,0.8
	s-0.6,0.5-0.9,0.8"/>
<path class="st0" d="M231.9,95.6c-0.8,2.7-1.6,5.5-2.4,8.2c-0.8,2.7-1.7,5.4-2.6,8.1s-1.8,5.4-2.7,8.1s-1.9,5.4-2.9,8s-2,5.3-3,8
	s-2.1,5.3-3.1,7.9s-2.1,5.3-3.3,7.9s-2.2,5.2-3.4,7.8"/>
<path class="st0" d="M182.6,134.1c0,0.7,0,1.4,0.1,2.1s0.1,1.4,0.2,2.1s0.2,1.4,0.4,2.1s0.3,1.4,0.5,2.1s0.4,1.4,0.6,2
	s0.5,1.3,0.7,2s0.5,1.3,0.9,2s0.6,1.3,1,1.9"/>
<path class="st0" d="M188.6,156.2C188.6,156.2,188.6,156.1,188.6,156.2c0-0.1,0-0.1,0-0.2l-0.1-0.1l-0.1-0.1h-0.1h-0.1h-0.1
	c0,0-0.1,0-0.1,0.1v0.1c0,0,0,0.1,0,0.1c0,0,0,0.1,0,0.1c0,0,0,0.1,0,0.1v0.1c0,0,0,0.1,0,0.1l0,0.1v0.1c0.2,0.5,0.5,0.9,0.7,1.4
	s0.4,1,0.6,1.5s0.4,1,0.5,1.5s0.3,1,0.4,1.5s0.2,1,0.4,1.5s0.2,1,0.3,1.5s0.1,1,0.2,1.6s0.1,1,0.1,1.6c1.8,0.1,3.6,0.2,5.4,0.2
	s3.6,0.1,5.4,0.1s3.6,0.1,5.4,0.1s3.6,0,5.4,0s3.6-0.1,5.4-0.1s3.6-0.1,5.4-0.2s3.6-0.2,5.4-0.3s3.6-0.2,5.4-0.4l-3.3-1.1l-3.2-1.1
	l-3.3-1.1l-3.2-1.1l-3.2-1.1l-3.3-1.1l-3.2-1.1l-3.2-1.1"/>
<path class="st0" d="M91.5,124c0.2,0.2,0.3,0.4,0.5,0.5c0.2,0.2,0.4,0.3,0.6,0.5c0.2,0.1,0.4,0.3,0.6,0.4l0.6,0.4l0.7,0.3l0.7,0.3
	l0.7,0.2l0.7,0.2c2.4,0.7,4.8,1.3,7.2,1.7c2.4,0.4,4.9,0.7,7.3,0.9s4.9,0.3,7.4,0.2s4.9-0.1,7.4-0.3s4.9-0.5,7.4-0.8
	s4.9-0.8,7.4-1.2s4.9-1,7.3-1.6s4.8-1.2,7.2-1.8"/>
<path class="st0" d="M235.9,18.3c0.1,0.4,0.3,0.8,0.5,1.1c0.2,0.4,0.4,0.7,0.5,1.1s0.4,0.7,0.6,1.1s0.4,0.7,0.6,1.1l0.6,1.1
	c0.2,0.4,0.4,0.7,0.6,1.1s0.4,0.7,0.6,1.1s0.3,0.8,0.5,1.1s0.3,0.8,0.4,1.2c0.1,0.4,0.2,0.8,0.3,1.2c0.1,0.4,0.1,0.8,0.1,1.2
	s0,0.9,0,1.3s0,0.8-0.1,1.3c0,0.4-0.1,0.8-0.2,1.2c-0.1,0.4-0.2,0.8-0.3,1.2s-0.3,0.8-0.4,1.2"/>
<path class="st0" d="M282.8,50.7c-0.3,0-0.6,0.1-0.9,0.1s-0.6,0.1-0.9,0.2c-0.3,0.1-0.6,0.2-0.9,0.3c-0.3,0.1-0.6,0.3-0.9,0.4
	c-0.3,0.1-0.5,0.3-0.8,0.5c-0.3,0.2-0.5,0.4-0.8,0.6c-0.2,0.2-0.5,0.4-0.7,0.6s-0.4,0.5-0.6,0.7"/>
<path class="st0" d="M284.6,49.3c-0.4,0.1-0.7,0.3-1,0.4l-1,0.5c-0.3,0.2-0.7,0.3-1,0.5s-0.7,0.4-1,0.6s-0.6,0.4-1,0.6
	s-0.6,0.4-0.9,0.6l-0.9,0.7c-0.3,0.2-0.6,0.5-0.9,0.7"/>
<path class="st0" d="M234.3,48.5c-0.1,0.4-0.1,0.8-0.2,1.2s-0.1,0.8-0.2,1.2s-0.1,0.8-0.1,1.2s-0.1,0.8-0.1,1.2s0,0.8-0.1,1.2
	s0,0.8,0,1.2s0,0.8,0,1.2s0,0.8,0,1.2s0,0.8,0.1,1.2s0.1,0.8,0.1,1.2s0.1,0.8,0.2,1.1s0.1,0.8,0.2,1.1s0.2,0.8,0.3,1.1
	s0.2,0.7,0.3,1.1s0.3,0.7,0.4,1.1s0.3,0.7,0.5,1c0.2,0.5,0.5,0.9,0.8,1.4c0.3,0.4,0.6,0.9,0.9,1.3c0.3,0.4,0.6,0.8,1,1.2
	c0.4,0.4,0.7,0.8,1.1,1.1s0.8,0.7,1.2,1s0.9,0.6,1.3,0.9s0.9,0.5,1.4,0.8s0.9,0.5,1.4,0.7s1,0.4,1.5,0.6s1,0.3,1.5,0.5
	s1,0.3,1.5,0.4s1,0.2,1.5,0.3s1,0.1,1.6,0.2s1,0.1,1.6,0.1s1,0,1.6,0h1.6"/>
<path class="st0" d="M97.8,58.9v-0.2v-0.2v-0.2v-0.2V58v-0.2v-0.2v-0.2c0.4,1.3,0.8,2.7,1.1,4s0.6,2.7,0.9,4.1s0.5,2.7,0.7,4.1
	s0.4,2.8,0.5,4.1s0.2,2.8,0.3,4.2s0.1,2.8,0,4.2s-0.1,2.8-0.2,4.2s-0.2,2.8-0.4,4.2"/>
<path class="st0" d="M147.6,57.1v-0.2v-0.2v-0.2v-0.2v-0.2v-0.2v-0.2v-0.2c0.1,0.7,0.2,1.4,0.2,2s0.1,1.4,0.1,2s0,1.4-0.1,2
	s-0.1,1.4-0.2,2s-0.2,1.3-0.4,2s-0.3,1.3-0.5,2s-0.4,1.3-0.7,1.9s-0.5,1.2-0.8,1.9"/>
<path class="st0" d="M133.6,22.8c-1.1,0.4-2.3,0.9-3.4,1.2s-2.3,0.7-3.5,1s-2.3,0.6-3.5,0.9s-2.4,0.5-3.6,0.7s-2.4,0.3-3.6,0.5
	s-2.4,0.2-3.6,0.3s-2.4,0.1-3.6,0.1s-2.4-0.1-3.6-0.1"/>
<path class="st0" d="M224.3,47.1c0,1-0.1,2-0.2,3s-0.2,2-0.4,3s-0.3,2-0.6,3s-0.5,2-0.7,2.9s-0.6,1.9-0.9,2.9s-0.7,1.9-1.1,2.8
	s-0.8,1.9-1.3,2.8s-0.9,1.8-1.4,2.7"/>
<path class="st0" d="M221.2,52.6L221.2,52.6L221.2,52.6L221.2,52.6L221.2,52.6L221.2,52.6L221.2,52.6L221.2,52.6L221.2,52.6
	L221.2,52.6L221.2,52.6L221.2,52.6L221.2,52.6L221.2,52.6L221.2,52.6L221.2,52.6c0,0.6-0.1,1.1-0.2,1.5s-0.1,1-0.2,1.4
	s-0.1,0.9-0.2,1.4s-0.2,1-0.2,1.4s-0.2,0.9-0.3,1.4s-0.2,1-0.3,1.4s-0.2,0.9-0.3,1.4s-0.2,0.9-0.4,1.4s-0.3,1-0.4,1.5l-0.5,1.5
	c-0.1,0.5-0.3,1-0.5,1.5s-0.3,1-0.5,1.5s-0.3,1-0.5,1.5s-0.3,1-0.5,1.4s-0.3,1-0.5,1.4s-0.4,1-0.5,1.4"/>
<path class="st0" d="M217.8,66.5c-0.2,1-0.4,2-0.7,3c-0.2,1-0.5,2-0.8,2.9s-0.6,1.9-1,2.9s-0.7,1.9-1.1,2.8s-0.9,1.9-1.3,2.8
	s-1,1.8-1.5,2.7s-1,1.7-1.6,2.6s-1.1,1.7-1.8,2.5"/>
<path class="st0" d="M235.9,19.4c0.3,0.3,0.5,0.7,0.8,1l0.8,1c0.2,0.3,0.5,0.7,0.7,1l0.7,1c0.2,0.4,0.5,0.7,0.7,1.1s0.4,0.7,0.6,1.1
	s0.4,0.8,0.5,1.1s0.3,0.8,0.5,1.1s0.3,0.8,0.4,1.2s0.2,0.8,0.3,1.2s0.2,0.8,0.2,1.2s0.1,0.8,0.1,1.3s0,0.8,0,1.2s-0.1,0.8-0.1,1.2
	c-0.1,0.4-0.2,0.8-0.3,1.2c-0.1,0.4-0.3,0.8-0.4,1.2"/>
<path class="st0" d="M236.9,20.7c0.5,0.6,0.9,1.1,1.2,1.8c0.4,0.6,0.7,1.2,1,1.9c0.3,0.7,0.6,1.3,0.8,2c0.2,0.7,0.4,1.4,0.6,2.1
	c0.2,0.7,0.3,1.4,0.4,2.1c0.1,0.7,0.1,1.4,0.1,2.1c0,0.7,0,1.4-0.1,2.1c-0.1,0.7-0.2,1.4-0.4,2.1c0.1-0.2,0.2-0.4,0.3-0.7
	s0.1-0.5,0.2-0.7s0.1-0.5,0.2-0.7s0.1-0.5,0.1-0.7s0-0.5,0-0.7s0-0.5,0-0.7s0-0.5-0.1-0.7s-0.1-0.5-0.1-0.7l-0.1,0.8l-0.1,0.8
	l-0.1,0.8l-0.1,0.8l-0.1,0.8l-0.1,0.8l-0.1,0.8l-0.1,0.8"/>
<path class="st0" d="M240.8,37.7c0.1-0.4,0.3-0.7,0.4-1.1s0.2-0.7,0.3-1.1s0.2-0.8,0.2-1.1s0.1-0.8,0.2-1.2s0.1-0.8,0.1-1.2
	s0-0.8,0-1.2s-0.1-0.8-0.1-1.2s-0.1-0.8-0.2-1.2"/>
<path class="st0" d="M284.3,50.3c-0.4,0.1-0.8,0.3-1.2,0.5s-0.8,0.3-1.1,0.5s-0.8,0.4-1.1,0.6s-0.7,0.4-1.1,0.6l-1,0.7
	c-0.3,0.2-0.7,0.5-1,0.7s-0.7,0.5-1,0.8l-0.9,0.8c0.3-0.3,0.6-0.6,1-0.8c0.3-0.3,0.7-0.5,1-0.8s0.7-0.5,1.1-0.7s0.8-0.4,1.1-0.6
	s0.8-0.4,1.2-0.5s0.8-0.3,1.2-0.4s0.8-0.2,1.2-0.3s0.8-0.2,1.3-0.2c-0.7,0-1.4,0-2.1,0.2c-0.3,0.1-0.7,0.2-1,0.3
	c-0.7,0.2-1.3,0.5-2,0.9c-0.3,0.2-0.6,0.4-0.9,0.6c-0.3,0.2-0.6,0.4-0.8,0.7c-0.3,0.2-0.5,0.5-0.7,0.8"/>
<path class="st0" d="M284.3,50.2c-0.4,0-0.7,0.1-1,0.2s-0.7,0.2-1,0.3c-0.3,0.1-0.7,0.2-1,0.4c-0.3,0.1-0.6,0.3-1,0.4
	s-0.6,0.4-0.9,0.5c-0.3,0.2-0.6,0.4-0.9,0.6c-0.5,0.4-1,0.9-1.5,1.5"/>
<path class="st0" d="M233.6,48.8c-0.1,0.5-0.2,1-0.4,1.5s-0.2,1-0.3,1.6s-0.2,1-0.2,1.6s-0.1,1-0.2,1.6s-0.1,1.1-0.1,1.6
	s0,1,0.1,1.6c0,0.5,0.1,1,0.2,1.5c0.1,0.5,0.2,1,0.4,1.5c0.1,0.3,0.2,0.5,0.3,0.8s0.2,0.5,0.3,0.8s0.2,0.5,0.4,0.8l0.4,0.7L235,65
	l0.5,0.7c0.2,0.2,0.3,0.5,0.5,0.7s0.3,0.5,0.5,0.7c0.6,0.7,1.2,1.4,1.8,2.1c0.6,0.7,1.3,1.3,2,1.9c0.7,0.6,1.4,1.2,2.2,1.7
	c0.8,0.5,1.5,1,2.3,1.4c0.8,0.4,1.6,0.8,2.5,1.1c0.8,0.3,1.7,0.6,2.6,0.8c0.9,0.2,1.8,0.3,2.6,0.4c0.9,0.1,1.8,0,2.7-0.1"/>
<path class="st0" d="M233.2,50.5c-0.1,0.5-0.2,1-0.3,1.5s-0.1,1-0.2,1.6s-0.1,1.1-0.1,1.6s0,1,0,1.6s0,1,0.1,1.6s0.1,1,0.2,1.6
	s0.2,1,0.3,1.5s0.2,1,0.4,1.5s0.3,1,0.5,1.5s0.4,1,0.6,1.4s0.5,0.9,0.8,1.4s0.6,0.9,0.9,1.3s0.6,0.8,1,1.2s0.7,0.8,1.1,1.1
	s0.8,0.7,1.2,1c0.4,0.3,0.8,0.6,1.3,0.9c0.5,0.3,1.1,0.6,1.6,0.9c0.5,0.3,1.1,0.5,1.7,0.8s1.2,0.4,1.8,0.6s1.2,0.3,1.8,0.5
	s1.2,0.3,1.8,0.4s1.2,0.2,1.9,0.3l1.9,0.2l1.9,0.2"/>
<path class="st0" d="M233.5,50.7c-0.2,0.8-0.3,1.5-0.3,2.3c-0.1,1.5-0.1,3.1,0.1,4.6c0.2,1.5,0.6,3,1.1,4.5c0.3,0.7,0.5,1.4,0.9,2.1
	c0.3,0.7,0.7,1.4,1.1,2c0.4,0.7,0.8,1.3,1.3,1.9c0.5,0.6,1,1.2,1.5,1.8c0.5,0.6,1.1,1.1,1.7,1.6c0.6,0.5,1.2,0.9,1.9,1.4
	c1.3,0.9,2.7,1.6,4.1,2.2c1.4,0.6,2.9,1,4.5,1.3c0.8,0.1,1.5,0.2,2.3,0.3"/>
<path class="st0" d="M291,71.9l0.6,0.2l0.6,0.2l0.6,0.2l0.6,0.2l0.6,0.2l0.6,0.2l0.6,0.2l0.6,0.1c0.3,0.1,0.6,0.1,0.9,0.2
	s0.6,0.1,0.9,0.1s0.6,0,0.9,0c0.3,0,0.6,0,0.9,0c0.3,0,0.6-0.1,0.9-0.1c0.3-0.1,0.6-0.1,0.9-0.2c0.3-0.1,0.6-0.2,0.8-0.4
	c0.3-0.2,0.5-0.3,0.7-0.5"/>
<path class="st0" d="M292.5,72.5c0.4,0.2,0.9,0.3,1.4,0.4c0.5,0.1,0.9,0.2,1.4,0.3c0.9,0.2,1.9,0.2,2.9,0.2c0.5,0,1-0.1,1.4-0.1
	c0.5-0.1,0.9-0.2,1.4-0.3c0.5-0.1,0.9-0.2,1.4-0.4c0.5-0.2,0.9-0.3,1.3-0.5"/>
<path class="st0" d="M292.4,72.5c0.5,0.2,1,0.3,1.5,0.4c0.5,0.1,1,0.2,1.5,0.2c0.5,0,1,0.1,1.5,0s1-0.1,1.5-0.1
	c0.5-0.1,1-0.2,1.5-0.3c0.5-0.1,1-0.3,1.5-0.4c0.5-0.2,1-0.4,1.4-0.6c0.5-0.2,0.9-0.5,1.4-0.7c0.4-0.3,0.9-0.5,1.3-0.9
	c0.4-0.3,0.8-0.6,1.2-1s0.7-0.7,1.1-1.1s0.7-0.8,1-1.2s0.6-0.8,0.9-1.2s0.5-0.9,0.8-1.3s0.5-0.9,0.7-1.4s0.4-0.9,0.6-1.4"/>
<path class="st0" d="M300.6,73.2h0.2h0.2h0.2l0.2-0.1h0.2l0.2-0.1L302,73l0.2-0.1c1.1-0.4,2.1-0.9,3-1.5c0.9-0.6,1.8-1.3,2.6-2.1
	c0.4-0.4,0.8-0.8,1.1-1.2c0.4-0.4,0.7-0.9,1-1.4c0.3-0.5,0.6-1,0.8-1.4c0.3-0.5,0.5-1,0.7-1.5"/>
<path class="st0" d="M251.7,20.6c1,0.4,1.9,0.9,2.9,1.2s2,0.7,3,0.9s2,0.5,3.1,0.7s2.1,0.4,3.1,0.6l3.2,0.5c1,0.2,2.1,0.3,3.2,0.5
	s2.1,0.4,3.1,0.6s2.1,0.4,3.1,0.7"/>
<path class="st0" d="M251.6,19.5c0.8,0.7,1.7,1.2,2.6,1.7c0.9,0.5,1.9,0.8,2.9,1.1c1,0.3,2,0.5,3.1,0.7c1,0.2,2.1,0.3,3.2,0.5
	s2.2,0.2,3.2,0.4s2.2,0.2,3.2,0.4s2.1,0.3,3.2,0.6c1,0.2,2.1,0.5,3.1,0.9c0.9,0.3,1.8,0.8,2.7,1.2c0.9,0.5,1.7,1,2.5,1.6
	c1.6,1.2,3,2.6,4.1,4.2c0.6,0.8,1.1,1.6,1.6,2.5c0.9,1.7,1.6,3.6,2.1,5.5c0.2,1,0.3,2,0.4,2.9"/>
<path class="st0" d="M275,26.1c0.5,0.1,1.1,0.2,1.6,0.3c0.5,0.1,1,0.3,1.5,0.6c0.5,0.2,1,0.5,1.5,0.8c0.5,0.3,0.9,0.6,1.4,0.9
	c0.4,0.3,0.9,0.7,1.3,1.1c0.4,0.4,0.8,0.8,1.1,1.2s0.7,0.9,1,1.3s0.6,0.9,0.9,1.4s0.5,0.9,0.8,1.4s0.5,1,0.7,1.5s0.4,1,0.6,1.5
	s0.4,1,0.5,1.6s0.3,1.1,0.5,1.6s0.3,1.1,0.5,1.6s0.3,1.1,0.4,1.6l0.4,1.6"/>
<path class="st0" d="M285.1,32c0.3,0.4,0.6,0.8,0.9,1.1s0.5,0.8,0.8,1.2s0.5,0.8,0.7,1.2s0.4,0.9,0.6,1.3s0.4,0.9,0.5,1.3
	s0.3,0.9,0.4,1.4s0.2,0.9,0.3,1.4s0.2,0.9,0.2,1.4"/>
<path class="st0" d="M288.6,38.5v0.3V39v0.3v0.3v0.3v0.3v0.3v0.3c0,0.2,0.1,0.4,0.1,0.6l0.1,0.6c0,0.2,0.1,0.4,0.1,0.6
	s0.1,0.4,0.1,0.6s0.1,0.4,0.2,0.6s0.1,0.4,0.2,0.6s0.2,0.4,0.2,0.5c0.1,0.2,0.2,0.4,0.3,0.5c0.1,0.2,0.2,0.3,0.4,0.5
	c0.1,0.2,0.3,0.3,0.5,0.4c0.2,0.1,0.3,0.3,0.5,0.4c0.2,0.1,0.4,0.2,0.5,0.3c0.2,0.1,0.4,0.1,0.6,0.2c0.2,0,0.4,0.1,0.6,0.1
	c0.2,0,0.4,0,0.6,0c0.2,0,0.4-0.1,0.6-0.2"/>
<path class="st0" d="M288.9,41.9c0,0.3,0,0.6,0,0.9c0,0.3,0.1,0.6,0.2,0.9c0.1,0.3,0.2,0.6,0.3,0.8c0.1,0.3,0.3,0.5,0.5,0.8
	c0.2,0.2,0.4,0.5,0.6,0.7c0.2,0.2,0.4,0.4,0.7,0.6c0.2,0.2,0.5,0.4,0.7,0.5c0.3,0.2,0.5,0.3,0.8,0.5c0.3,0.1,0.5,0.2,0.8,0.4
	s0.6,0.2,0.9,0.3s0.6,0.2,0.9,0.2l0.9,0.2c0.3,0,0.6,0.1,0.9,0.1l0.9,0.1l0.9,0.1l0.9,0.1l2,0.3c0.7,0.1,1.3,0.3,2,0.4
	s1.3,0.4,1.9,0.6s1.3,0.4,1.9,0.7s1.2,0.6,1.8,0.9s1.1,0.7,1.7,1c0.5,0.4,1,0.8,1.5,1.2c0.5,0.4,0.9,0.9,1.4,1.4"/>
<path class="st0" d="M291.2,46.6c0,0,0,0.1,0,0.1c0,0,0,0.1,0,0.1l0.1,0.1l0.1,0.1l0.1,0.1l0.1,0.1l0.1,0.1l0.1,0.1
	c0.4,0.3,0.8,0.6,1.2,0.8c0.4,0.2,0.9,0.5,1.3,0.7c0.5,0.2,0.9,0.4,1.4,0.6s0.9,0.3,1.4,0.4s1,0.3,1.5,0.4s1,0.2,1.5,0.3l1.5,0.3
	c0.5,0.1,1,0.2,1.5,0.3l1.5,0.3l1.5,0.3c0.5,0.1,1,0.3,1.5,0.4s1,0.3,1.4,0.5s0.9,0.4,1.4,0.6c0.4,0.2,0.9,0.5,1.3,0.7
	c0.4,0.3,0.8,0.6,1.2,0.9c0.4,0.3,0.7,0.6,1.1,1"/>
<path class="st0" d="M313,56.4c-0.2,0-0.4,0-0.6,0.1c-0.2,0-0.4,0.1-0.5,0.1c-0.2,0.1-0.4,0.1-0.5,0.2c-0.2,0.1-0.3,0.2-0.5,0.3
	c-0.3,0.2-0.6,0.5-0.8,0.8c-0.1,0.2-0.2,0.3-0.3,0.5c-0.1,0.2-0.1,0.4-0.2,0.5c-0.1,0.2-0.1,0.4-0.1,0.6c0,0.2,0,0.4,0,0.6
	c0,0.2,0,0.4,0.1,0.6c0,0.2,0.1,0.4,0.2,0.6c0.1,0.4,0.3,0.7,0.6,1c0.1,0.1,0.2,0.3,0.4,0.4c0.1,0.1,0.3,0.2,0.5,0.4
	c0.1,0.1,0.3,0.2,0.5,0.2c0.2,0.1,0.3,0.1,0.5,0.2c0.2,0,0.3,0.1,0.5,0.1c0.2,0,0.3,0,0.5,0h0.5l0.5-0.1l0.5-0.2l0.5-0.2
	c0.2-0.1,0.3-0.2,0.4-0.3c0.1-0.1,0.3-0.2,0.4-0.3c0.1-0.1,0.2-0.2,0.4-0.4c0.1-0.1,0.2-0.3,0.3-0.4c0.1-0.1,0.2-0.3,0.3-0.4
	c0.1-0.1,0.1-0.3,0.2-0.5c0.1-0.2,0.1-0.3,0.1-0.5c0-0.2,0.1-0.3,0.1-0.5v-0.3c0-0.1,0-0.2,0-0.2c0-0.1,0-0.2,0-0.3
	c0-0.1,0-0.2,0-0.3c0-0.1,0-0.2,0-0.2c0-0.2-0.1-0.3-0.1-0.5c0-0.1-0.1-0.2-0.1-0.2c-0.1-0.2-0.2-0.4-0.3-0.6
	c-0.1-0.2-0.3-0.4-0.5-0.5c-0.2-0.2-0.3-0.3-0.5-0.4c-0.2-0.1-0.4-0.2-0.6-0.3c-0.2-0.1-0.4-0.1-0.7-0.2c-0.2,0-0.5-0.1-0.7-0.1
	c-0.2,0-0.5,0-0.7,0c-0.2,0-0.4,0.1-0.7,0.2c-0.2,0.1-0.4,0.2-0.6,0.3c-0.2,0.1-0.4,0.2-0.5,0.4c-0.2,0.1-0.3,0.3-0.5,0.5
	c-0.2,0.2-0.3,0.3-0.4,0.5c-0.1,0.2-0.2,0.4-0.3,0.6c-0.1,0.2-0.2,0.4-0.3,0.6c-0.1,0.2-0.1,0.4-0.2,0.7c0,0.2-0.1,0.5-0.1,0.7"/>
<path class="st0" d="M233.5,13.7c-0.2,0.8-0.5,1.6-0.6,2.5s-0.4,1.7-0.5,2.5s-0.3,1.7-0.4,2.5s-0.2,1.7-0.3,2.6s-0.1,1.7-0.2,2.6
	s-0.1,1.7,0,2.6s0,1.7,0.1,2.6s0.1,1.7,0.2,2.6"/>
<path class="st0" d="M231.8,36.1c-0.1-0.7-0.2-1.4-0.3-2s-0.2-1.4-0.2-2s-0.1-1.4-0.1-2.1s0-1.4-0.1-2s0-1.4,0-2.1s0.1-1.4,0.1-2.1
	s0.1-1.4,0.2-2s0.2-1.4,0.3-2c0.1-0.4,0.2-0.9,0.3-1.3s0.2-0.9,0.3-1.3s0.3-0.9,0.5-1.3c0.2-0.4,0.3-0.8,0.6-1.2
	c0.2-0.4,0.4-0.7,0.7-1.1c0.2-0.3,0.5-0.6,0.8-0.9c0.3-0.3,0.6-0.5,1-0.8c0.4-0.2,0.7-0.4,1.1-0.5c0.4-0.1,0.8-0.2,1.2-0.2
	c0.4,0,0.8,0,1.2,0c0.4,0,0.8,0.1,1.2,0.2c0.4,0.1,0.8,0.2,1.1,0.4c0.4,0.2,0.8,0.3,1.1,0.5s0.7,0.4,1.1,0.6s0.7,0.5,1,0.7
	s0.7,0.5,1,0.8c0.5,0.4,0.9,0.8,1.4,1.1s0.9,0.8,1.4,1.2s0.9,0.8,1.3,1.2s0.9,0.8,1.3,1.2s0.8,0.9,1.2,1.3s0.8,0.9,1.2,1.3
	s0.8,0.9,1.1,1.4s0.8,0.9,1.1,1.4"/>
<path class="st0" d="M255.7,24.1c-0.3-0.3-0.6-0.5-0.8-0.8s-0.5-0.6-0.8-0.9l-0.8-0.9l-0.8-0.9c-0.2-0.3-0.5-0.6-0.8-0.9l-0.8-0.9
	c-0.3-0.3-0.5-0.6-0.8-0.9s-0.5-0.6-0.8-0.8c-0.5-0.4-0.9-0.8-1.4-1.2s-1-0.7-1.5-1.1s-1-0.6-1.6-0.9s-1.1-0.6-1.7-0.8
	s-1.1-0.5-1.7-0.7s-1.2-0.4-1.8-0.5s-1.2-0.3-1.8-0.4s-1.2-0.1-1.8-0.2h-0.6h-0.2h-0.2H235l-0.2,0.1l-0.2,0.1
	c-0.1,0-0.2,0.1-0.2,0.1l-0.2,0.2l-0.2,0.2l-0.2,0.2c0,0.1-0.1,0.2-0.1,0.2s-0.1,0.2-0.1,0.2l-0.1,0.3l-0.1,0.2
	c-0.1,0.3-0.2,0.6-0.3,0.8s-0.2,0.6-0.3,0.8s-0.2,0.6-0.2,0.9s-0.1,0.6-0.2,0.9s-0.1,0.6-0.2,0.9s-0.1,0.6-0.2,0.9s-0.1,0.6-0.1,0.9
	s-0.1,0.6-0.1,0.9"/>
<path class="st0" d="M209.4,74.7c-1,1.4-2.1,2.8-3.1,4.1s-2.1,2.7-3.2,4s-2.2,2.6-3.3,3.9s-2.2,2.6-3.4,3.9s-2.3,2.5-3.5,3.8
	s-2.4,2.5-3.6,3.7s-2.4,2.4-3.7,3.6s-2.5,2.4-3.8,3.5"/>
<path class="st0" d="M208,75c-0.9,1.2-1.7,2.4-2.6,3.7c-0.9,1.2-1.8,2.4-2.7,3.6s-1.9,2.4-2.8,3.5s-1.9,2.3-2.9,3.4s-2,2.3-3,3.4
	s-2,2.2-3.1,3.3s-2.1,2.1-3.1,3.2s-2.1,2.1-3.2,3.1"/>
<path class="st0" d="M196.8,111.1l-0.2,0.1l-0.2,0.1h-0.2l-0.2,0.1h-0.2l-0.2,0.1l-0.2,0.1H195l2.2-0.9l2.2-1l2.2-1
	c0.7-0.3,1.5-0.6,2.2-1l2.2-1l2.1-1l2.1-1l2.1-1"/>
<path class="st0" d="M195.6,111.7l5.4-2.6c1.8-0.9,3.6-1.7,5.4-2.6c1.8-0.9,3.6-1.7,5.4-2.6s3.6-1.7,5.4-2.5l5.5-2.5
	c1.8-0.8,3.6-1.6,5.5-2.4c1.8-0.8,3.7-1.6,5.5-2.4l5.5-2.4"/>
<path class="st0" d="M238.1,92.5c1.5-0.9,3.1-1.8,4.7-2.6s3.2-1.7,4.8-2.6s3.2-1.7,4.8-2.5s3.2-1.6,4.9-2.3s3.3-1.4,5-2
	s3.4-1.2,5.1-1.7s3.4-1,5.2-1.3s3.5-0.6,5.3-0.9c0.8-0.1,1.6-0.2,2.4-0.2s1.6-0.1,2.4-0.1l2.4-0.1l2.4-0.1h2.4l2.4-0.1l2.4-0.1
	c0.8-0.1,1.6-0.1,2.4-0.2h0.5l0.5-0.1l0.5-0.1l0.4-0.1c0.1-0.1,0.3-0.1,0.4-0.2c0.1-0.1,0.2-0.1,0.4-0.2c0.1-0.1,0.2-0.2,0.3-0.3
	c0.1-0.1,0.2-0.2,0.2-0.4"/>
<path class="st0" d="M273.5,77l-3.3,1.2l-3.3,1.2l-3.3,1.2l-3.3,1.2l-3.3,1.2l-3.3,1.3c-1.1,0.4-2.2,0.9-3.3,1.3s-2.2,0.9-3.3,1.3"
	/>
<path class="st0" d="M256.1,84.1l-3.5,1.2l-3.5,1.2l-3.5,1.2l-3.5,1.2l-3.5,1.2l-3.5,1.2l-3.5,1.2l-3.5,1.2"/>
<path class="st0" d="M241.4,89.9c-0.8,0.5-1.7,1-2.5,1.5s-1.7,0.9-2.6,1.4s-1.7,0.9-2.6,1.3s-1.8,0.8-2.6,1.2s-1.8,0.7-2.7,1.1
	s-1.8,0.7-2.7,1s-1.8,0.6-2.8,0.9s-1.9,0.5-2.8,0.8"/>
<path class="st0" d="M231.9,95c-1.1,0.6-2.2,1.1-3.3,1.6s-2.2,1-3.4,1.5s-2.3,0.9-3.4,1.4s-2.3,0.8-3.5,1.2s-2.4,0.7-3.5,1.1
	s-2.4,0.6-3.6,0.9s-2.4,0.6-3.6,0.8s-2.4,0.4-3.6,0.6"/>
<path class="st0" d="M231,96.1c-0.3,1.1-0.6,2.2-0.9,3.3s-0.6,2.2-0.9,3.3s-0.6,2.2-1,3.2s-0.7,2.2-1,3.2s-0.7,2.1-1,3.2
	s-0.7,2.1-1.1,3.2s-0.8,2.1-1.1,3.2s-0.8,2.1-1.2,3.2"/>
<path class="st0" d="M229.3,97.7c-0.3,1.4-0.6,2.7-0.9,4.1s-0.7,2.7-1,4.1s-0.7,2.7-1.1,4s-0.8,2.7-1.2,4s-0.9,2.7-1.3,4
	s-0.9,2.6-1.4,3.9s-1,2.6-1.5,3.9s-1.1,2.6-1.6,3.9"/>
<path class="st0" d="M223,119.7c-0.3,1-0.6,2-0.9,3s-0.6,2-1,2.9s-0.7,2-1,2.9s-0.7,1.9-1.1,2.9s-0.8,1.9-1.1,2.9s-0.8,1.9-1.2,2.9
	s-0.8,1.9-1.2,2.8s-0.9,1.9-1.3,2.8"/>
<path class="st0" d="M222.6,122.7c-0.4,1.6-0.8,3.2-1.2,4.7s-0.9,3.1-1.3,4.7s-1,3.1-1.5,4.6s-1,3.1-1.6,4.6s-1.1,3-1.8,4.5
	s-1.2,3-1.9,4.5s-1.3,3-2,4.4s-1.4,2.9-2.1,4.4"/>
<path class="st0" d="M216.3,142.2c-0.4,0.8-0.9,1.5-1.3,2.3s-0.8,1.5-1.2,2.3s-0.7,1.6-1.1,2.4s-0.7,1.6-1,2.4s-0.6,1.6-0.9,2.5
	s-0.5,1.7-0.8,2.5s-0.5,1.7-0.7,2.5s-0.4,1.7-0.6,2.6"/>
<path class="st0" d="M208.8,158.9c-0.1,0-0.2,0.1-0.2,0.2c-0.1,0.1-0.1,0.1-0.1,0.2c0,0.1-0.1,0.2-0.1,0.3c0,0.1,0,0.2,0,0.3
	c0,0.2,0.1,0.4,0.1,0.6c0,0.1,0.1,0.2,0.1,0.3c0.1,0.1,0.1,0.2,0.2,0.2c0.2,0.2,0.4,0.4,0.6,0.6c0.2,0.2,0.5,0.3,0.7,0.5
	c0.3,0.1,0.5,0.2,0.8,0.3c0.3,0.1,0.6,0.2,0.8,0.2c0.3,0.1,0.6,0.1,0.9,0.2c0.3,0,0.6,0.1,0.9,0.1c0.3,0,0.6,0,0.9,0.1h0.9
	c0.8,0,1.5,0.1,2.2,0.1s1.5,0.1,2.2,0.2s1.5,0.2,2.2,0.3s1.5,0.3,2.2,0.4s1.5,0.3,2.2,0.5s1.4,0.4,2.1,0.6s1.4,0.5,2.1,0.7
	s1.4,0.5,2.1,0.8"/>
<path class="st0" d="M208.4,160.9l2.5,0.4c0.8,0.1,1.7,0.3,2.5,0.4s1.7,0.3,2.5,0.5l2.5,0.5l2.5,0.5l2.5,0.6l2.5,0.6l2.5,0.7
	l0.8,0.2l0.8,0.2l0.8,0.3c0.3,0.1,0.5,0.2,0.8,0.3l0.8,0.3c0.2,0.1,0.5,0.2,0.7,0.4s0.5,0.3,0.7,0.4s0.5,0.3,0.7,0.5"/>
<path class="st0" d="M188.1,153.9c0.2,0.5,0.4,1,0.5,1.5s0.3,1,0.5,1.5s0.3,1,0.4,1.5s0.3,1,0.4,1.5s0.2,1,0.3,1.5s0.2,1,0.3,1.5
	s0.2,1,0.2,1.6s0.1,1,0.2,1.6"/>
<path class="st0" d="M187.8,154.6l0.8,2c0.3,0.7,0.5,1.3,0.8,2s0.5,1.3,0.8,2l0.8,2l0.7,2l0.7,2c0.2,0.7,0.5,1.3,0.7,2
	s0.5,1.3,0.7,2"/>
<path class="st0" d="M187.8,155.8l0.6,1.7l0.6,1.7l0.6,1.7l0.6,1.7l0.6,1.7l0.6,1.7l0.6,1.7l0.6,1.7"/>
<path class="st0" d="M191.4,168.4c1.7,0.2,3.3,0.3,5,0.4s3.3,0,5,0s3.3-0.1,5-0.2l5-0.4c1.7-0.1,3.3-0.2,5-0.3s3.3-0.1,5-0.2
	s3.3,0,5,0.1c1.7,0.1,3.3,0.3,5,0.5"/>
<path class="st0" d="M192.2,168.7c1,0,2,0.1,3,0.1s2,0,3,0s2,0,3,0s2,0,3,0s2-0.1,3-0.1s2-0.1,3-0.1s2-0.1,3-0.2s2-0.1,3-0.2
	l1.6-0.1l1.6-0.1l1.6-0.1c0.5,0,1.1,0,1.6-0.1h1.6c0.5,0,1,0,1.6,0.1s1,0.1,1.6,0.2c0.5,0.1,1,0.2,1.5,0.3"/>
<path class="st0" d="M182.6,134.1c0,0.7,0.1,1.4,0.1,2.1s0.1,1.4,0.2,2.1s0.2,1.4,0.3,2.1s0.3,1.4,0.4,2s0.3,1.4,0.5,2
	s0.4,1.3,0.6,2s0.4,1.3,0.7,2s0.5,1.3,0.8,1.9"/>
<path class="st0" d="M182.2,135.4c0,0.8,0.1,1.5,0.2,2.3s0.2,1.5,0.3,2.3s0.3,1.5,0.4,2.3s0.4,1.5,0.6,2.2s0.4,1.5,0.7,2.2
	s0.5,1.5,0.8,2.2s0.6,1.4,0.9,2.1s0.7,1.4,1,2.1"/>
<path class="st0" d="M189.5,138c-0.1,0.8-0.2,1.6-0.3,2.4s-0.2,1.6-0.4,2.4s-0.3,1.6-0.5,2.3s-0.4,1.5-0.6,2.3s-0.4,1.5-0.6,2.3
	s-0.5,1.5-0.7,2.3s-0.5,1.5-0.8,2.2s-0.6,1.5-0.9,2.2"/>
<path class="st0" d="M189.6,137.6c0,0.8-0.1,1.6-0.2,2.4s-0.2,1.6-0.3,2.4s-0.3,1.6-0.4,2.4s-0.3,1.6-0.5,2.4s-0.4,1.6-0.6,2.3
	s-0.5,1.5-0.7,2.3s-0.5,1.5-0.8,2.3s-0.6,1.5-0.9,2.2l0.2-0.4c0.1-0.1,0.1-0.3,0.2-0.4s0.1-0.3,0.2-0.5l0.1-0.5
	c0-0.2,0.1-0.3,0.1-0.5s0.1-0.3,0.1-0.5l0.1-0.5l0.1-0.5"/>
<path class="st0" d="M205.8,134.7c-0.1,0.7-0.2,1.3-0.4,2c-0.2,0.6-0.4,1.3-0.7,1.9c-0.3,0.6-0.6,1.2-0.9,1.8
	c-0.3,0.6-0.7,1.1-1.1,1.7s-0.8,1.1-1.3,1.6s-0.9,1-1.4,1.5s-1,1-1.5,1.4s-1,0.9-1.5,1.4s-0.9,0.8-1.3,1.2l-1.3,1.2l-1.4,1.1
	c-0.5,0.4-1,0.7-1.4,1s-1,0.7-1.5,1s-1,0.6-1.5,0.8s-1,0.5-1.6,0.7s-1.1,0.4-1.6,0.6"/>
<path class="st0" d="M206.2,134.3c0,1.2-0.2,2.4-0.6,3.5c-0.2,0.6-0.4,1.1-0.6,1.6c-0.3,0.5-0.5,1.1-0.9,1.6c-0.3,0.5-0.6,1-1,1.4
	c-0.4,0.5-0.8,0.9-1.2,1.3c-0.4,0.4-0.9,0.8-1.4,1.1c-0.5,0.3-1,0.7-1.5,0.9"/>
<path class="st0" d="M186.4,100.8c0.2,0.6,0.5,1.1,0.8,1.6s0.6,1.1,0.9,1.6s0.6,1,1,1.5s0.7,1,1.1,1.4s0.8,0.9,1.1,1.4
	s0.8,0.9,1.2,1.3s0.9,0.8,1.3,1.2s0.9,0.8,1.4,1.1"/>
<path class="st0" d="M187.9,102.3L187.9,102.3C187.9,102.3,187.9,102.3,187.9,102.3v-0.1h-0.1h-0.1h-0.1h-0.1l-0.1,0.1v0.1
	c0,0,0,0,0,0.1v0.1c0,0,0,0,0,0.1c0,0,0,0.1,0,0.1v0.1v0.1v0.1c0.2,0.4,0.5,0.9,0.7,1.3l0.8,1.3c0.2,0.4,0.5,0.8,0.8,1.2l0.8,1.2
	c0.3,0.4,0.5,0.8,0.8,1.2l0.9,1.2c0.3,0.4,0.6,0.8,0.9,1.2l0.9,1.2l0.8,1l0.8,1l0.8,1l0.8,1c0.3,0.3,0.5,0.7,0.8,1l0.8,1l0.8,1
	l0.7,1.1c0.4,0.7,0.8,1.3,1.2,2s0.8,1.4,1.1,2.1s0.7,1.4,1,2.1s0.6,1.5,0.9,2.2s0.6,1.5,0.8,2.2s0.5,1.5,0.8,2.2s0.5,1.5,0.7,2.3
	l0.7,2.3"/>
<path class="st0" d="M187.9,104.1l1.9,2.2c0.6,0.7,1.3,1.5,1.9,2.2s1.3,1.5,1.9,2.2l1.9,2.2c0.6,0.7,1.3,1.4,1.9,2.1l2,2.1l2,2.1
	l2,2.1"/>
<path class="st0" d="M152.6,55.8l0.3-0.4l0.3-0.4l0.3-0.4l0.3-0.4L154,54l0.3-0.4l0.3-0.4l0.3-0.4l-1.3,2.5
	c-0.4,0.8-0.9,1.7-1.3,2.5l-1.3,2.5c-0.4,0.9-0.8,1.7-1.2,2.6s-0.8,1.7-1.2,2.6s-0.8,1.7-1.2,2.6s-0.8,1.7-1.1,2.6s-0.7,1.7-1.1,2.6
	"/>
<path class="st0" d="M155.2,54.6c-0.6,1.1-1.2,2.1-1.8,3.2s-1.1,2.1-1.7,3.2s-1.1,2.1-1.6,3.2s-1.1,2.2-1.6,3.2s-1,2.2-1.5,3.3
	s-1,2.2-1.5,3.3s-1,2.2-1.5,3.3s-0.9,2.2-1.4,3.4"/>
<path class="st0" d="M150.6,64.2c-0.6,1.1-1.3,2.3-1.9,3.5s-1.2,2.4-1.8,3.5s-1.2,2.4-1.8,3.6s-1.1,2.4-1.7,3.6s-1.1,2.4-1.6,3.6
	s-1,2.4-1.5,3.7s-1,2.5-1.4,3.7s-0.9,2.5-1.4,3.7"/>
<path class="st0" d="M142.3,79.4c-0.6,1.4-1.1,2.8-1.7,4.2s-1.1,2.8-1.6,4.2s-1,2.8-1.5,4.2s-0.9,2.9-1.3,4.3s-0.8,2.9-1.1,4.3
	s-0.6,2.9-0.8,4.4s-0.4,2.9-0.4,4.4c-0.1,1.5-0.1,3,0,4.4"/>
<path class="st0" d="M147.2,55.1c0,0.9-0.1,1.9-0.2,2.8s-0.1,1.9-0.2,2.8s-0.2,1.9-0.3,2.8s-0.2,1.9-0.4,2.8s-0.3,1.9-0.4,2.8
	s-0.3,1.9-0.5,2.8s-0.4,1.9-0.6,2.8s-0.4,1.9-0.6,2.8"/>
<path class="st0" d="M146.5,62.3c-0.1,0.9-0.2,1.8-0.3,2.7s-0.2,1.8-0.4,2.7s-0.2,1.8-0.4,2.7s-0.3,1.8-0.5,2.7s-0.3,1.8-0.5,2.7
	s-0.4,1.8-0.5,2.7s-0.4,1.8-0.6,2.7l-0.6,2.7"/>
<path class="st0" d="M141.1,82.3l-0.6,2l-0.6,2l-0.6,2l-0.6,2l-0.6,2l-0.6,2l-0.6,2l-0.6,2c-0.2,0.6-0.4,1.3-0.6,1.9
	s-0.4,1.3-0.5,1.9s-0.3,1.3-0.5,1.9s-0.3,1.3-0.4,2s-0.2,1.3-0.3,2s-0.2,1.3-0.2,2s-0.1,1.3-0.1,2s0,1.3,0,2"/>
<path class="st0" d="M133,114.1c0.6,0.5,1.2,0.9,1.8,1.4s1.2,0.8,1.9,1.2s1.3,0.7,2,1s1.4,0.6,2.1,0.9s1.4,0.5,2.1,0.7
	s1.5,0.4,2.2,0.5s1.5,0.2,2.2,0.3s1.5,0.1,2.2,0.1"/>
<path class="st0" d="M134.9,116c0.8,0.4,1.6,0.7,2.4,1.1s1.6,0.7,2.4,1s1.6,0.6,2.4,0.9s1.6,0.6,2.5,0.8s1.7,0.5,2.5,0.7
	s1.7,0.4,2.5,0.6s1.7,0.4,2.5,0.6s1.7,0.3,2.6,0.5"/>
<path class="st0" d="M149.7,121.9h-0.8c0.9,0.4,1.8,0.7,2.7,1c0.9,0.3,1.9,0.5,2.9,0.6c1,0.2,1.9,0.3,2.9,0.4s2,0.2,3,0.2l3,0.2
	c1,0.1,2,0.2,3,0.3c1,0.1,1.9,0.3,2.9,0.5c1,0.2,1.9,0.5,2.8,0.9"/>
<path class="st0" d="M160.2,124.9h-1c0.7,0.3,1.5,0.6,2.2,0.8c0.7,0.2,1.5,0.4,2.3,0.5s1.5,0.3,2.3,0.4s1.5,0.2,2.3,0.3l2.3,0.3
	c0.8,0.1,1.5,0.2,2.3,0.4s1.5,0.3,2.3,0.5c0.7,0.2,1.5,0.4,2.2,0.7"/>
<path class="st0" d="M171.1,128.9l1.3,0.3l1.3,0.3l1.3,0.3l1.3,0.3l1.3,0.3l1.3,0.3l1.3,0.3l1.3,0.3"/>
<path class="st0" d="M99.1,57.3c0.2,1.3,0.4,2.6,0.6,3.9s0.4,2.6,0.5,3.9s0.3,2.6,0.5,3.9s0.3,2.6,0.4,3.9s0.2,2.6,0.4,3.9
	s0.2,2.6,0.3,3.9s0.2,2.6,0.2,3.9s0.1,2.6,0.2,3.9"/>
<path class="st0" d="M92.2,53.5c0.3,1.4,0.7,2.8,1,4.2s0.6,2.8,0.9,4.2s0.6,2.8,0.9,4.2s0.6,2.8,0.8,4.3s0.5,2.8,0.8,4.3
	s0.5,2.9,0.7,4.3s0.4,2.9,0.6,4.3s0.4,2.9,0.6,4.3"/>
<path class="st0" d="M93.5,62.1c0.5,1.5,1,3,1.4,4.6s0.9,3.1,1.3,4.6s0.8,3.1,1.1,4.7s0.6,3.1,0.9,4.7s0.5,3.1,0.7,4.7
	s0.4,3.2,0.6,4.8s0.3,3.2,0.4,4.8s0.1,3.2,0.2,4.8"/>
<path class="st0" d="M98.6,88c0,0.7,0.1,1.5,0.1,2.2s0.1,1.4,0.1,2.2l0.1,2.2c0,0.7,0,1.5,0,2.2s0,1.5,0,2.2s0,1.4,0,2.2
	s0,1.5,0,2.2s0,1.5-0.1,2.2s0,1.5-0.1,2.2s-0.1,1.5-0.2,2.2s-0.2,1.5-0.3,2.2s-0.2,1.4-0.4,2.2c-0.2,0.7-0.4,1.4-0.6,2.1
	c-0.2,0.7-0.5,1.4-0.8,2c-0.3,0.6-0.7,1.2-1.1,1.8c-0.4,0.6-0.9,1.1-1.4,1.6"/>
<path class="st0" d="M90.8,125.6c-0.3,0.5-0.7,1.1-1,1.7s-0.7,1.1-1,1.6s-0.7,1.1-1.1,1.6l-1.1,1.6c-0.4,0.5-0.7,1.1-1.1,1.6
	s-0.8,1-1.1,1.6s-0.8,1-1.2,1.6s-0.8,1-1.2,1.5"/>
<path class="st0" d="M88.3,129.4c-0.5,0.5-0.9,1.1-1.4,1.6s-0.9,1.1-1.3,1.7s-0.8,1.1-1.2,1.7s-0.8,1.2-1.2,1.8s-0.7,1.2-1.1,1.8
	s-0.7,1.2-1,1.9s-0.6,1.3-1,1.9s-0.6,1.3-0.9,1.9"/>
<path class="st0" d="M78.9,144c0.5,0.3,1.1,0.7,1.6,1s1.1,0.6,1.7,0.9l1.7,0.8l1.7,0.8c0.6,0.3,1.1,0.5,1.7,0.8s1.1,0.6,1.6,0.9
	c0.5,0.3,1,0.7,1.5,1.1c0.5,0.4,0.9,0.8,1.3,1.3"/>
<path class="st0" d="M78.6,144.5l2.2,1c0.7,0.3,1.5,0.7,2.2,1s1.5,0.7,2.2,1.1s1.4,0.8,2.1,1.2s1.4,0.8,2,1.3s1.3,0.9,2,1.4
	s1.2,1,1.8,1.5s1.2,1.1,1.7,1.7"/>
<path class="st0" d="M92,123.6c0.5,0.5,1,0.9,1.6,1.3s1.1,0.8,1.7,1.1s1.2,0.7,1.8,1s1.2,0.6,1.8,0.8s1.3,0.5,1.9,0.7
	s1.3,0.4,1.9,0.5s1.3,0.3,2,0.4s1.3,0.2,2,0.3s1.3,0.1,2,0.2s1.3,0.1,2,0.1s1.3,0,2,0h2l2-0.1l2-0.1l2-0.2l2-0.2
	c1.2-0.1,2.5-0.3,3.7-0.4s2.5-0.3,3.7-0.5s2.5-0.4,3.7-0.6s2.4-0.4,3.6-0.7s2.4-0.5,3.6-0.8s2.4-0.6,3.6-1s2.4-0.7,3.5-1.2
	s2.3-0.9,3.4-1.4"/>
<path class="st0" d="M97.1,126.6c1.1,0.4,2.2,0.7,3.3,1s2.2,0.6,3.3,0.8s2.3,0.4,3.4,0.6s2.3,0.3,3.4,0.4s2.3,0.2,3.4,0.2
	s2.3,0.1,3.5,0s2.3,0,3.5-0.1s2.3-0.1,3.5-0.3s2.3-0.2,3.4-0.4s2.3-0.3,3.4-0.5s2.3-0.4,3.4-0.6l3.4-0.7c1.1-0.2,2.3-0.5,3.4-0.7
	l3.4-0.8l3.4-0.8l3.4-0.8"/>
<path class="st0" d="M141.4,17.2c0.7-0.2,1.3-0.4,2-0.6s1.3-0.4,2-0.7s1.3-0.5,2-0.7l1.9-0.8c0.6-0.3,1.3-0.5,1.9-0.8
	s1.3-0.6,1.9-0.8l1.9-0.9c0.6-0.3,1.2-0.6,1.9-0.9"/>
<path class="st0" d="M141,17.9c0.5-0.1,1-0.2,1.5-0.3s1-0.3,1.4-0.4s0.9-0.3,1.4-0.5s0.9-0.4,1.4-0.6s0.9-0.4,1.3-0.7
	s0.9-0.4,1.3-0.7l1.3-0.7l1.3-0.7c0.8-0.4,1.6-0.8,2.4-1.1s1.6-0.7,2.4-1.1s1.6-0.6,2.5-1s1.7-0.6,2.5-0.9s1.7-0.5,2.5-0.8
	s1.7-0.4,2.5-0.6s1.7-0.4,2.6-0.5s1.7-0.3,2.6-0.4"/>
<path class="st0" d="M146.6,14.5c1.7-1,3.5-1.9,5.3-2.8c1.8-0.8,3.7-1.6,5.6-2.2c1.9-0.7,3.8-1.2,5.8-1.6c2-0.4,3.9-0.8,5.9-1.1
	s4-0.4,6-0.5s4,0,6,0.1c2,0.1,4,0.4,6,0.7c2,0.3,3.9,0.8,5.9,1.3"/>
<path class="st0" d="M231.5,18.7c-0.7,0.1-1.5,0.2-2.2,0.2s-1.5,0.1-2.2,0s-1.5-0.1-2.2-0.2s-1.5-0.2-2.2-0.4s-1.4-0.4-2.1-0.6
	s-1.4-0.5-2.1-0.8s-1.4-0.6-2-1s-1.3-0.7-1.9-1.2"/>
<path class="st0" d="M221.8,18.3l-2.2-1l-2.2-0.9l-2.2-1l-2.2-1l-2.2-1l-2.2-1l-2.2-1l-2.2-0.9c-0.3-0.1-0.6-0.3-0.9-0.4l-0.9-0.4
	l-0.9-0.4l-0.9-0.4l-0.9-0.3l-0.9-0.3c-0.3-0.1-0.6-0.2-0.9-0.3s-0.6-0.2-0.9-0.3s-0.9-0.2-1.4-0.3s-1-0.2-1.4-0.2s-1-0.1-1.4-0.1
	s-1,0-1.5,0s-1,0-1.5,0s-1,0.1-1.4,0.1s-1,0.1-1.4,0.2s-1,0.2-1.4,0.3"/>
<path class="st0" d="M105.4,27.8l3.2-0.4l3.2-0.4c1.1-0.1,2.1-0.3,3.2-0.5s2.1-0.3,3.2-0.5l3.2-0.6l3.2-0.6l3.2-0.6l3.2-0.7"/>
<path class="st0" d="M131.6,23c-0.8,0.2-1.5,0.3-2.3,0.5s-1.5,0.3-2.3,0.4s-1.5,0.2-2.3,0.3s-1.5,0.2-2.3,0.2s-1.5,0.1-2.3,0.2
	s-1.5,0.1-2.3,0.1s-1.5,0-2.3,0s-1.5,0-2.3-0.1"/>
<path class="st0" d="M131.1,24.1l-0.3,0.2l-0.3,0.2l-0.3,0.2l-0.3,0.2l-0.3,0.2l-0.3,0.2l-0.3,0.2l-0.3,0.2"/>
<path class="st0" d="M131.2,24.1l-0.7,0.1l-0.7,0.1l-0.7,0.1l-0.7,0.1l-0.7,0.1l-0.7,0.1l-0.7,0.1l-0.7,0.1"/>
<path class="st0" d="M147.8,13.8c-0.8,0.2-1.5,0.3-2.3,0.4s-1.5,0.2-2.3,0.2s-1.5,0.1-2.3,0s-1.5-0.1-2.3-0.1s-1.5-0.2-2.3-0.3
	s-1.5-0.3-2.3-0.5s-1.5-0.4-2.2-0.6s-1.5-0.5-2.2-0.8"/>
<path class="st0" d="M146.4,14.2c-1.3,0-2.6-0.1-3.9-0.1s-2.6-0.1-3.9-0.3s-2.6-0.2-3.9-0.4s-2.6-0.3-3.9-0.5s-2.6-0.4-3.8-0.7
	s-2.5-0.5-3.8-0.8s-2.5-0.6-3.8-0.9s-2.5-0.7-3.8-1"/>
<path class="st0" d="M132.5,13l-2-0.4l-2-0.4l-2-0.4l-2-0.5c-0.7-0.2-1.4-0.3-2-0.5s-1.3-0.3-2-0.5l-2-0.6l-2-0.6"/>
<path class="st0" d="M115.7,9.8c-0.4-0.2-0.9-0.4-1.3-0.5s-0.9-0.3-1.3-0.4s-0.9-0.2-1.4-0.4s-0.9-0.2-1.4-0.3S109.4,8,108.9,8
	s-0.9-0.1-1.4-0.1s-0.9-0.1-1.4-0.1s-0.9,0-1.4,0"/>
<path class="st0" d="M109.6,7.3c-0.8-0.3-1.7-0.6-2.5-0.9s-1.7-0.5-2.6-0.8s-1.7-0.4-2.6-0.6s-1.7-0.4-2.6-0.6l-2.6-0.5l-2.6-0.4
	l-2.6-0.4l-2.6-0.4"/>
<path class="st0" d="M96.5,4.5c-1.2-0.4-2.4-0.8-3.6-1.1c-1.2-0.3-2.4-0.5-3.7-0.7c-1.2-0.2-2.5-0.3-3.8-0.4s-2.5-0.1-3.8,0
	s-2.6,0.1-3.8,0.2S75.3,2.8,74,2.9s-2.6,0.3-3.8,0.5L66.4,4"/>
<path class="st0" d="M82.5,2.2c-1.4-0.2-2.8-0.4-4.2-0.5s-2.8-0.2-4.2-0.2s-2.8,0-4.2,0.1s-2.8,0.2-4.2,0.4S63,2.3,61.6,2.6
	s-2.7,0.6-4.1,1s-2.7,0.8-4,1.3s-2.6,1-3.9,1.6"/>
<path class="st0" d="M75.1,2.5c-1.4-0.1-2.8-0.1-4.2-0.1S68,2.5,66.6,2.6s-2.8,0.3-4.2,0.5s-2.8,0.5-4.2,0.8S55.5,4.6,54.1,5
	s-2.7,0.9-4,1.4s-2.6,1-3.9,1.6s-2.6,1.2-3.8,1.9"/>
<path class="st0" d="M77.9,2.7c-1,0-2,0.1-3,0.1s-2,0.1-3,0.2s-2,0.1-2.9,0.2s-2,0.2-3,0.3s-2,0.2-2.9,0.3l-2.9,0.4l-2.9,0.5
	c-1,0.2-1.9,0.3-2.9,0.5"/>
<path class="st0" d="M85.4,3.1c-0.4-0.1-0.7-0.1-1-0.1l-1-0.1h-1h-1.1c-0.3,0-0.7,0-1,0.1l-1,0.1l-1,0.2c-0.3,0.1-0.7,0.1-1,0.2"/>
<path class="st0" d="M108.5,7.3c-0.4-0.1-0.7-0.2-1.1-0.3l-1.1-0.2c-0.4-0.1-0.7-0.1-1.1-0.2s-0.7-0.1-1.1-0.1l-1.1-0.1L102,6.3
	l-1.1-0.1l-1.1-0.1C99,6,98.3,5.9,97.5,5.8S96,5.4,95.3,5.3s-1.5-0.4-2.2-0.6S91.7,4.1,91,3.9S89.6,3.3,88.9,3s-1.4-0.6-2.1-0.9
	l-2.1-0.9l-2.1-1"/>
<path class="st0" d="M107.8,7.6l-3-0.9l-3-0.9l-3-0.9c-1-0.3-2-0.6-3-0.9l-3-0.9l-3-0.8l-3-0.8l-3-0.8"/>
<path class="st0" d="M55.7,4.9c-1.2,0.4-2.3,0.8-3.5,1.3c-1.2,0.4-2.3,0.9-3.4,1.4s-2.3,1-3.4,1.5s-2.2,1-3.3,1.6s-2.2,1.1-3.3,1.7
	s-2.2,1.2-3.2,1.8s-2.1,1.3-3.2,1.9s-2.1,1.3-3.1,2"/>
<path class="st0" d="M57,4.9c-1,0.3-2.1,0.6-3.1,0.9s-2,0.7-3,1s-2,0.7-3,1.1s-2,0.8-3,1.2s-2,0.9-2.9,1.4s-1.9,1-2.9,1.5
	s-1.9,1-2.8,1.6s-1.8,1.1-2.7,1.8s-1.7,1.2-2.6,1.9s-1.7,1.4-2.5,2.1s-1.6,1.5-2.3,2.2s-1.5,1.6-2.1,2.4s-1.3,1.7-2,2.6
	s-1.2,1.8-1.8,2.7s-1,1.9-1.5,2.8S18,34,17.6,35"/>
<path class="st0" d="M33,17.3c-0.8,0.4-1.5,0.9-2.2,1.4s-1.4,1-2.1,1.5s-1.4,1.1-2,1.7s-1.3,1.2-1.9,1.9s-1.2,1.3-1.7,2
	s-1.1,1.4-1.6,2.1s-1,1.5-1.4,2.2s-0.8,1.6-1.2,2.3s-0.7,1.6-1,2.4s-0.6,1.6-0.8,2.5s-0.4,1.7-0.6,2.6s-0.3,1.7-0.4,2.6
	s-0.2,1.8-0.2,2.6s0,1.8,0,2.6s0.1,1.8,0.2,2.6s0.2,1.7,0.4,2.6"/>
<path class="st0" d="M28.2,18.7c-0.8,0.7-1.5,1.4-2.3,2.1s-1.5,1.4-2.2,2.2s-1.4,1.5-2.1,2.3s-1.3,1.6-1.9,2.4s-1.2,1.7-1.7,2.5
	s-1.1,1.7-1.6,2.6s-0.9,1.8-1.3,2.8s-0.8,1.9-1.1,2.9c-0.3,1-0.6,2-0.8,3c-0.2,1-0.4,2-0.5,3c-0.1,1-0.2,2.1-0.2,3.1
	c0,1,0,2.1,0.1,3.1c0.1,1,0.3,2,0.5,3c0.2,1,0.5,2,0.9,2.9c0.3,1,0.8,1.9,1.2,2.8c0.5,0.9,1,1.8,1.6,2.6"/>
<path class="st0" d="M15.9,33.6c-0.8,1.9-1.5,3.8-2,5.7c-0.5,2-0.9,3.9-1.1,5.9c-0.2,2-0.3,4-0.2,6c0.1,2,0.3,4,0.6,6
	c0.3,2,0.8,4,1.4,5.9c0.6,1.9,1.3,3.8,2.2,5.6c0.9,1.8,1.9,3.6,3,5.3c1.1,1.7,2.4,3.3,3.7,4.8"/>
<path class="st0" d="M11.4,58.8c0.3,1.2,0.6,2.4,1,3.6s0.8,2.4,1.2,3.5s0.9,2.3,1.4,3.5s1,2.3,1.6,3.4s1.2,2.2,1.8,3.3
	s1.3,2.1,2,3.2s1.4,2,2.1,3s1.5,2,2.3,2.9"/>
<path class="st0" d="M11.2,57.3c0.6,1.8,1.2,3.6,1.8,5.4s1.4,3.5,2.1,5.3c0.8,1.7,1.5,3.5,2.4,5.2s1.7,3.4,2.6,5s1.9,3.3,2.9,4.9
	s2.1,3.2,3.2,4.7s2.2,3.1,3.4,4.6s2.4,3,3.6,4.4"/>
<path class="st0" d="M23.7,84.5c1,1,2,2,2.9,3s1.9,2,2.8,3.1s1.8,2.1,2.6,3.2s1.7,2.2,2.4,3.4s1.6,2.3,2.3,3.5s1.4,2.4,2.1,3.6
	s1.3,2.4,2,3.7s1.2,2.5,1.8,3.8"/>
<path class="st0" d="M28.2,89.1c1.2,1,2.4,2,3.5,3.1c1.1,1.1,2.2,2.2,3.1,3.4c1,1.2,1.9,2.4,2.8,3.7c0.9,1.3,1.7,2.6,2.4,4
	c0.7,1.4,1.4,2.8,2,4.2c0.6,1.4,1.1,2.9,1.5,4.4c0.4,1.5,0.7,3,1,4.5c0.3,1.5,0.5,3.1,0.6,4.6"/>
<path class="st0" d="M34.7,98.4c0.3,0.2,0.5,0.4,0.8,0.6c0.3,0.2,0.5,0.5,0.7,0.7c0.2,0.3,0.4,0.5,0.6,0.8c0.2,0.3,0.4,0.6,0.6,0.8
	s0.4,0.6,0.5,0.9s0.3,0.6,0.5,0.9l0.4,0.9c0.1,0.3,0.3,0.6,0.4,1c0.3,0.7,0.6,1.5,0.9,2.2s0.6,1.5,0.8,2.2s0.5,1.5,0.7,2.3
	s0.4,1.5,0.6,2.3s0.4,1.5,0.6,2.3s0.3,1.6,0.5,2.3s0.3,1.6,0.4,2.3s0.2,1.6,0.3,2.4"/>
<path class="st0" d="M36.8,98.8c0.9,1.4,1.7,2.9,2.4,4.5c0.7,1.5,1.4,3.1,1.9,4.7c0.6,1.6,1.1,3.2,1.5,4.8s0.8,3.3,1.1,5
	s0.6,3.4,0.8,5.1s0.4,3.4,0.6,5.1s0.3,3.4,0.4,5.1s0.2,3.4,0.4,5.1"/>
<path class="st0" d="M44,120.9c0.1,0.3,0.3,0.6,0.4,0.8s0.2,0.6,0.3,0.9s0.2,0.6,0.2,0.9c0.1,0.3,0.1,0.6,0.2,0.9s0.1,0.6,0.1,0.9
	s0.1,0.6,0.1,0.9s0,0.6,0,1s0,0.6,0,0.9l0.1,2.3v2.3v2.3v2.3l0.1,2.3v2.3l0.1,2.3l0.1,2.3"/>
<path class="st0" d="M45.9,131.7c-0.1,0.8-0.1,1.5-0.2,2.3s-0.1,1.5-0.1,2.3s-0.1,1.5-0.1,2.3s0,1.5,0,2.3s0.1,1.5,0.1,2.3
	s0.1,1.5,0.3,2.2s0.3,1.5,0.4,2.2s0.4,1.5,0.6,2.2c0,0,0,0.1,0,0.1s0,0.1,0,0.1v0.1l0.1,0.1l0.1,0.1c0,0,0,0.1,0.1,0.1l0.1,0.1
	l0.1,0.1c0,0,0.1,0,0.1,0.1h0.1h0.1h0.1h0.1l0.1,0l0.1-0.1c0,0,0-0.1,0.1-0.1"/>
<path class="st0" d="M47.2,148.2c0.1,0.1,0.3,0.3,0.5,0.4c0.2,0.1,0.3,0.2,0.5,0.4c0.2,0.1,0.4,0.2,0.6,0.3l0.6,0.3l0.6,0.2l0.6,0.2
	l0.6,0.1l0.6,0.1l1.9,0.4c0.6,0.1,1.2,0.2,1.9,0.3s1.2,0.2,1.9,0.2s1.3,0.1,1.9,0.2l1.9,0.2l1.9,0.1l1.9,0.1l1.9,0.1"/>
<path class="st0" d="M46.3,151.3c1.4-0.1,2.8-0.1,4.2-0.1s2.8,0,4.2,0l4.2,0.1c1.4,0,2.8,0.1,4.2,0.2s2.8,0.2,4.2,0.3l4.2,0.4
	c1.4,0.1,2.8,0.3,4.2,0.5s2.8,0.4,4.2,0.6"/>
<path class="st0" d="M48.3,151.1c1.7-0.1,3.3-0.1,5-0.2s3.3,0,5,0s3.3,0.1,5,0.2s3.3,0.2,5,0.4s3.3,0.4,5,0.6s3.3,0.5,5,0.8
	s3.3,0.6,4.9,0.9s3.3,0.7,4.9,1.1"/>
<path class="st0" d="M93,154.7l-3.6-0.5c-1.2-0.2-2.4-0.3-3.6-0.5l-3.6-0.4c-1.2-0.1-2.4-0.3-3.6-0.4l-3.6-0.4l-3.6-0.3l-3.6-0.3
	c-1.2-0.1-2.4-0.2-3.6-0.2"/>
<path class="st0" d="M97,96.6c0.2,1.1,0.4,2.3,0.6,3.4s0.2,2.3,0.3,3.5s0,2.3-0.1,3.5s-0.2,2.3-0.4,3.5s-0.4,2.3-0.6,3.4
	s-0.6,2.2-0.9,3.4s-0.8,2.2-1.2,3.3s-1,2.1-1.5,3.1"/>
<path class="st0" d="M11.4,50.9c-0.7,0.4-1.4,0.9-2,1.4c-0.6,0.5-1.2,1.1-1.8,1.7c-0.6,0.6-1.1,1.3-1.5,2c-0.5,0.7-0.9,1.4-1.2,2.1
	c-0.4,0.7-0.7,1.5-0.9,2.3c-0.3,0.8-0.5,1.6-0.6,2.4c-0.1,0.8-0.2,1.6-0.3,2.5c0,0.8,0,1.7,0.1,2.5"/>
<path class="st0" d="M11.7,50.7c-0.6,0.3-1.1,0.6-1.7,0.9c-0.6,0.3-1.1,0.7-1.6,1.1s-1,0.8-1.5,1.2c-0.9,0.9-1.8,1.8-2.6,2.8
	c-0.4,0.5-0.7,1-1.1,1.6s-0.6,1.1-0.9,1.7C2.2,60.5,2,61,1.8,61.6c-0.1,0.2-0.1,0.3-0.2,0.5s-0.1,0.4-0.2,0.5l-0.1,0.5
	c0,0.2-0.1,0.4-0.1,0.5c0,0.2,0,0.4-0.1,0.5c0,0.2,0,0.4,0,0.5c0,0.2,0,0.4,0,0.5s0,0.4,0.1,0.5s0.1,0.4,0.1,0.5s0.1,0.3,0.2,0.5
	c0.1,0.2,0.2,0.3,0.2,0.5c0.2,0.3,0.4,0.6,0.7,0.8c0.1,0.1,0.3,0.2,0.4,0.3c0.1,0.1,0.3,0.2,0.4,0.3c0.2,0.1,0.3,0.1,0.5,0.2"/>
<path class="st0" d="M11.7,58c-0.3,1.3-0.6,2.5-0.9,3.8s-0.5,2.6-0.6,3.9s-0.3,2.6-0.4,3.9s-0.1,2.6-0.1,3.9s0.1,2.6,0.2,3.9
	s0.2,2.6,0.4,3.9s0.4,2.6,0.7,3.8s0.6,2.5,1,3.8"/>
<path class="st0" d="M11.2,58.6c-0.4,1.5-0.6,3-0.8,4.6c-0.2,1.5-0.3,3.1-0.3,4.6c0,1.6,0,3.1,0.1,4.6s0.2,3.1,0.4,4.6
	s0.5,3.1,0.8,4.6s0.6,3.1,1,4.6s0.8,3.1,1.2,4.6s0.9,3,1.3,4.5"/>
<path class="st0" d="M9.9,65.6c0,2,0.1,4,0.3,6c0.2,2,0.4,4,0.7,6s0.7,3.9,1.1,5.9s0.9,3.9,1.5,5.8s1.1,3.9,1.7,5.8s1.2,3.8,1.9,5.8
	s1.4,3.8,2,5.7s1.4,3.8,2.1,5.7"/>
<path class="st0" d="M20.6,111.8L20.6,111.8L20.6,111.8L20.6,111.8C20.6,111.8,20.6,111.8,20.6,111.8c0-0.1,0-0.1,0-0.1
	c0,0,0,0,0-0.1v-0.1h0.1h0.1h0.1l0,0c0,0,0,0,0,0.1v0.1v0.1v0.1c0,0,0,0,0,0.1c0.3,0.9,0.5,1.9,0.7,2.9s0.3,1.9,0.5,2.9
	s0.2,2,0.2,2.9s0.1,2,0,3c-0.1,1-0.1,2-0.2,3s-0.2,2-0.4,2.9s-0.4,1.9-0.6,2.9s-0.5,1.9-0.8,2.9"/>
<path class="st0" d="M21.4,115.3c0.3,1.4,0.6,2.8,0.7,4.2s0.4,2.8,0.4,4.2c0.1,1.4,0.1,2.8,0.1,4.2s-0.1,2.8-0.2,4.2
	s-0.3,2.8-0.5,4.2s-0.5,2.8-0.8,4.2s-0.7,2.8-1.1,4.1s-0.9,2.7-1.4,4"/>
<path class="st0" d="M20.8,137.2c-0.2,1-0.4,2-0.6,3.1s-0.5,2-0.8,3s-0.6,2-0.9,3s-0.7,2-1,3s-0.8,1.9-1.1,2.9s-0.8,1.9-1.3,2.9
	s-0.9,1.9-1.4,2.8s-1,1.8-1.5,2.7"/>
<path class="st0" d="M20.4,141.5c-0.3,1-0.6,2-1,3s-0.7,2-1,3s-0.7,2-1.1,3s-0.8,2-1.2,3s-0.8,2-1.2,2.9s-0.9,2-1.3,2.9
	s-0.9,1.9-1.4,2.9s-0.9,1.9-1.4,2.9"/>
<path class="st0" d="M17.5,150.4l-1.1,2.4l-1.1,2.4l-1.1,2.4l-1.1,2.4l-1.1,2.5L11,165l-1.1,2.4l-1.1,2.4"/>
<path class="st0" d="M43.8,164.1c0.4-0.6,0.9-1.3,1.4-1.9s1-1.2,1.5-1.9s1-1.2,1.6-1.8s1.1-1.1,1.7-1.7s1.1-1.1,1.7-1.6
	s1.2-1,1.8-1.5s1.2-1,1.9-1.4s1.3-0.9,2-1.3"/>
<path class="st0" d="M41.6,164.1c0.5-0.8,1-1.5,1.5-2.2s1.1-1.4,1.6-2.1s1.2-1.3,1.8-2s1.3-1.2,1.9-1.8s1.3-1.1,2-1.7s1.4-1,2.2-1.5
	s1.5-0.9,2.3-1.4s1.6-0.8,2.4-1.2"/>
<path class="st0" d="M42.3,163.1c0.5-0.6,1-1.1,1.5-1.6s1-1.1,1.6-1.6s1.1-1,1.6-1.5s1.1-1,1.7-1.4s1.1-0.9,1.7-1.4s1.2-0.9,1.8-1.3
	s1.2-0.8,1.9-1.2s1.2-0.8,1.9-1.1"/>
<path class="st0" d="M33.9,165.9c0.7-0.3,1.5-0.5,2.2-0.7s1.5-0.4,2.3-0.5s1.5-0.2,2.3-0.3s1.5-0.1,2.3-0.1s1.6,0,2.3,0.1
	s1.5,0.1,2.3,0.2s1.5,0.3,2.3,0.4s1.5,0.4,2.2,0.6l0.5,0.2l0.5,0.2l0.5,0.2l0.5,0.2c0.2,0.1,0.3,0.2,0.5,0.3l0.4,0.3
	c0.1,0.1,0.3,0.2,0.4,0.4c0.1,0.1,0.3,0.3,0.4,0.4"/>
<path class="st0" d="M35,164.6L35,164.6l-0.1,0.2v0.1l-0.1,0.1l-0.1,0.1v0.1l-0.1,0.1l-0.1,0.1c0.6,0,1.1-0.1,1.7-0.1
	s1.1-0.1,1.7-0.1h1.7h1.6l1.7,0l1.7,0.1l1.7,0.1l1.7,0.2l1.1,0.1c0.4,0,0.7,0.1,1.1,0.2s0.7,0.1,1.1,0.2s0.7,0.2,1,0.3
	c0.3,0.1,0.7,0.3,1,0.4c0.3,0.2,0.6,0.3,0.9,0.5c0.3,0.2,0.6,0.4,0.8,0.6c0.3,0.2,0.5,0.5,0.7,0.8"/>
<path class="st0" d="M8.6,170.4l5.6-0.2l5.6-0.2l5.6-0.2l5.6-0.2l5.6-0.2l5.6-0.1l5.6-0.1l5.6-0.1c-1.6,0.3-3.1,0.5-4.7,0.6
	s-3.1,0.3-4.7,0.4s-3.2,0.2-4.7,0.2s-3.2,0-4.8,0s-3.2-0.1-4.8-0.1s-3.2-0.1-4.8-0.2s-3.2-0.2-4.8-0.3l-4.8-0.3"/>
<path class="st0" d="M10.8,168.4L10.8,168.4L10.8,168.4L10.8,168.4L10.8,168.4L10.8,168.4L10.8,168.4L10.8,168.4L10.8,168.4
	L10.8,168.4L10.8,168.4L10.8,168.4L10.8,168.4l2.8,0.3l2.8,0.3l2.8,0.3l2.8,0.3l2.8,0.3l2.8,0.3l2.8,0.3l2.8,0.3"/>
<path class="st0" d="M279.7,42.7c-0.4,0-0.8,0-1.3,0h-1.2l-1.2,0.1l-1.2,0.1l-1.2,0.1l-1.2,0.2l-1.2,0.2l-1.2,0.2h1l1-0.1
	c0.3,0,0.6-0.1,1-0.1s0.6-0.1,1-0.1l1-0.1l1-0.2l1-0.2l1-0.2c-0.2-0.1-0.4-0.1-0.7-0.2l-0.7-0.2l-0.7-0.1L275,42h-0.7h-0.7
	c-0.2,0-0.5,0-0.7,0s-0.5,0.1-0.7,0.1h0.3h0.3h0.7h0.3h0.3l0.3-0.1l0.3-0.1"/>
<path class="st0" d="M278.5,41.5L278.5,41.5L278.5,41.5L278.5,41.5L278.5,41.5L278.5,41.5L278.5,41.5L278.5,41.5L278.5,41.5
	L278.5,41.5L278.5,41.5h-0.2l-0.4-0.1l-0.4-0.1l-0.4-0.1l-0.4-0.1l-0.4-0.1l-0.4-0.1l-0.4-0.1L275,41h0.3h0.3h1.4h0.3h0.3l-0.4-0.2
	c-0.1-0.1-0.3-0.1-0.4-0.1l-0.4-0.1l-0.4-0.1l-0.4-0.1l-0.4-0.1l-0.4-0.1h-0.4l0.6,0.1l0.6,0.1l0.6,0.1l0.6,0.1l0.6,0.1l0.6,0.1
	l0.6,0.1l0.6,0.1"/>
<path class="st0" d="M276.6,43.2c-0.4,0-0.8,0-1.2,0s-0.8,0-1.2,0.1s-0.8,0.1-1.2,0.2s-0.8,0.2-1.2,0.3s-0.8,0.2-1.2,0.4
	s-0.8,0.3-1.1,0.4s-0.8,0.3-1.1,0.5s-0.7,0.4-1.1,0.6"/>
<path class="st0" d="M278.6,41.9l-0.5-0.1h-0.5h-0.5h-0.5H275h-0.5h0.2h0.4h0.2h0.2h0.2h0.2l0.2,0.1l-0.2-0.2
	c-0.1-0.1-0.1-0.2-0.2-0.2l-0.2-0.2l-0.2-0.2l-0.2-0.2l-0.3-0.1l-0.3-0.1l-0.3-0.1l0.2,0.1l0.2,0.1l0.2,0.1L275,41l0.2,0.1l0.2,0.1
	l0.2,0.1l0.2,0.1"/>
<path class="st0" d="M312,59.7c-0.1,0-0.2,0-0.2,0c-0.1,0-0.1,0.1-0.2,0.1c-0.1,0.1-0.1,0.1-0.1,0.2c0,0.1-0.1,0.1-0.1,0.2
	c0,0.1,0,0.2,0,0.2c0,0.1,0,0.2,0,0.3c0,0.1,0,0.2,0.1,0.2c0,0.1,0.1,0.1,0.1,0.2c0.1,0.1,0.1,0.1,0.2,0.1c0.1,0,0.1,0.1,0.2,0.1
	c0.1,0,0.2,0,0.2,0.1h0.2h0.3h0.3h0.3l0.3-0.1c0.1,0,0.2-0.1,0.4-0.1l0.4-0.1c0.1,0,0.2-0.1,0.4-0.2c0.1,0,0.2-0.1,0.3-0.2l0.3-0.2
	c0.1-0.1,0.2-0.2,0.3-0.3c0.1-0.1,0.1-0.2,0.2-0.3c0.1-0.1,0.1-0.2,0.1-0.4c0-0.1,0-0.3,0-0.4c0-0.3-0.1-0.6-0.3-0.8
	c-0.1-0.1-0.2-0.2-0.3-0.3c-0.1-0.1-0.2-0.2-0.4-0.3c-0.1-0.1-0.3-0.2-0.4-0.2c-0.1-0.1-0.3-0.1-0.5-0.1c-0.1,0-0.3-0.1-0.5-0.1
	c-0.2,0-0.4,0-0.6,0c-0.2,0-0.4,0.1-0.5,0.1c-0.2,0.1-0.4,0.1-0.5,0.2c-0.2,0.1-0.3,0.2-0.5,0.3c-0.2,0.1-0.3,0.2-0.4,0.4
	c-0.1,0.1-0.3,0.3-0.4,0.4c-0.1,0.2-0.2,0.3-0.3,0.5c-0.1,0.2-0.2,0.3-0.2,0.5v0.1V60c0,0,0,0.1,0,0.1s0,0.1,0,0.1v0.2
	c0,0,0,0.1,0,0.1c0,0,0,0.1,0,0.1c0,0.1,0.1,0.2,0.1,0.2c0,0.1,0.1,0.1,0.2,0.2c0.1,0.1,0.1,0.1,0.2,0.2l0.2,0.1
	c0.1,0,0.2,0.1,0.3,0.1c0.1,0,0.2,0,0.3,0c0.1,0,0.2,0,0.3,0l0.3-0.1l0.2-0.1l0.2-0.2l0.2-0.2c0.1-0.1,0.1-0.1,0.2-0.2l0.2-0.2
	l0.1-0.2l0.1-0.2l0.1-0.2c0-0.1,0.1-0.1,0.1-0.2c0.1-0.1,0.1-0.3,0.1-0.4c0-0.1,0-0.1,0-0.2c0-0.1,0-0.3-0.1-0.4l-0.1-0.1
	c0,0-0.1-0.1-0.1-0.1c0,0-0.1,0-0.1-0.1h-0.1h-0.2l-0.1,0.1l-0.1,0.1l-0.1,0.1l-0.1,0.1c0,0-0.1,0.1-0.1,0.1
	c-0.1,0.1-0.1,0.1-0.2,0.2l-0.1,0.3c0,0.1-0.1,0.2-0.1,0.3c0,0.1,0,0.2,0,0.3c0,0.1,0,0.2,0,0.3c0,0.1,0,0.2,0,0.2
	c0,0.1,0.1,0.1,0.1,0.2c0.1,0.1,0.1,0.1,0.2,0.2c0,0,0.1,0.1,0.2,0.1l0.2,0.1h0.4l0.2-0.1c0.1,0,0.1,0,0.2-0.1l0.2-0.1l0.2-0.1
	l0.2-0.1l0.2-0.1l0.2-0.1l0.2-0.1c0.1,0,0.1-0.1,0.1-0.2c0-0.1,0.1-0.1,0.1-0.2c0-0.1,0.1-0.1,0.1-0.2c0-0.1,0-0.1,0-0.2
	c0-0.1,0-0.2,0-0.2c0-0.1-0.1-0.2-0.1-0.2c-0.1-0.1-0.1-0.1-0.2-0.2c-0.1-0.1-0.1-0.1-0.2-0.1c-0.1,0-0.2-0.1-0.2-0.1
	c-0.1,0-0.2,0-0.3-0.1h-0.3c-0.1,0-0.2,0-0.3,0.1l-0.2,0.1c-0.1,0-0.2,0.1-0.2,0.1c-0.1,0-0.1,0.1-0.2,0.2l-0.2,0.2l-0.2,0.2
	c-0.1,0.1-0.1,0.1-0.2,0.2l-0.1,0.2l-0.1,0.2h0.4h0.4h0.4l0.4-0.1l0.4-0.1l0.4-0.1l0.3-0.1l0.3-0.2c0,0.1,0,0.1,0,0.2
	c0,0.1,0,0.1,0,0.2v0.2c0,0.1,0,0.1,0,0.2l-0.1,0.1c0,0.1,0,0.1-0.1,0.1l-0.1,0.1l-0.1,0.1"/>
<path class="st0" d="M314.1,57.5c0.2,0,0.3,0.1,0.4,0.2c0.1,0.1,0.2,0.2,0.3,0.3c0.1,0.1,0.2,0.3,0.2,0.4c0.1,0.2,0.1,0.3,0.1,0.5
	c0,0.2,0,0.3,0,0.5c0,0.2,0,0.3-0.1,0.5c0,0.2-0.1,0.3-0.2,0.5c-0.1,0.1-0.2,0.3-0.3,0.4c-0.1,0.1-0.2,0.2-0.4,0.3
	c-0.1,0.1-0.3,0.2-0.4,0.3c-0.1,0.1-0.3,0.2-0.4,0.2c-0.1,0.1-0.3,0.1-0.5,0.2l-0.5,0.1l-0.5,0.1c-0.2,0-0.3,0.1-0.5,0.1l-0.5,0.1"
	/>
<path class="st0" d="M236.5,21.1c0.4,0.3,0.7,0.6,1,1c0.3,0.3,0.6,0.7,0.9,1.1c0.3,0.4,0.5,0.8,0.8,1.2c0.2,0.4,0.4,0.9,0.6,1.3
	c0.2,0.4,0.3,0.9,0.5,1.4c0.2,0.9,0.4,1.9,0.4,2.9c0,0.5,0,1-0.1,1.4"/>
<path class="st0" d="M238.5,20.4c0.2,0.2,0.4,0.5,0.5,0.8s0.3,0.5,0.5,0.8s0.3,0.6,0.4,0.8c0.1,0.3,0.2,0.6,0.3,0.9
	c0.1,0.3,0.2,0.6,0.3,0.9c0.1,0.3,0.1,0.6,0.2,0.9s0.1,0.6,0.1,0.9s0.1,0.6,0.1,0.9s0,0.6,0,0.9s0,0.6,0,0.9v0.9
	c0,0.3,0,0.6-0.1,0.9s-0.1,0.6-0.1,0.9l-0.1,0.9l-0.1,0.9c0,0.3-0.1,0.6-0.2,0.9"/>
<path class="st0" d="M241.2,36.8L241.2,36.8L241.2,36.8L241.2,36.8L241.2,36.8L241.2,36.8L241.2,36.8L241.2,36.8L241.2,36.8
	c0,0.1,0,0.2,0,0.4c0,0.1-0.1,0.2-0.1,0.3c0,0.1-0.1,0.2-0.1,0.3c-0.1,0.1-0.1,0.2-0.2,0.3c-0.1,0.1-0.1,0.2-0.2,0.3l-0.2,0.3
	c-0.1,0.1-0.2,0.2-0.2,0.3l-0.3,0.3"/>
<path class="st0" d="M232.4,50.1l-0.4,1.1l-0.3,1.1c-0.1,0.4-0.2,0.7-0.3,1.1l-0.3,1.1l-0.3,1.1c-0.1,0.4-0.2,0.7-0.2,1.1
	s-0.1,0.7-0.2,1.1s-0.1,0.7-0.2,1.1s-0.1,0.7-0.1,1.1s0,0.7-0.1,1.1s0,0.8,0,1.1s0,0.8,0.1,1.1s0.1,0.7,0.1,1.1s0.1,0.7,0.2,1.1
	c0.1,0.4,0.2,0.7,0.3,1.1c0.1,0.4,0.2,0.7,0.4,1.1"/>
<path class="st0" d="M234,49.2l-0.5,1.1l-0.5,1.1l-0.5,1.1l-0.5,1.1l-0.5,1.1l-0.5,1.1l-0.5,1.1l-0.5,1.1"/>
<path class="st0" d="M231.1,45.1L231.1,45.1L231.1,45.1l0.1-0.1h0.1h0.1h0.1c0,0,0,0,0.1,0.1c-0.2,0.6-0.5,1.1-0.8,1.6
	s-0.6,1.1-0.9,1.6s-0.6,1.1-0.9,1.6s-0.6,1-1,1.5s-0.7,1-1,1.5s-0.7,1-1.1,1.4s-0.8,0.9-1.2,1.4s-0.8,0.9-1.2,1.4"/>
<path class="st0" d="M95.6,125.4h-0.1h-0.1h-0.1h-0.1h-0.1h-0.1h-0.1h-0.1c0.7,0.3,1.5,0.6,2.2,0.8s1.5,0.5,2.3,0.7s1.5,0.4,2.3,0.6
	s1.5,0.4,2.3,0.5s1.6,0.3,2.3,0.4s1.6,0.2,2.4,0.3s1.6,0.2,2.4,0.2s1.6,0.1,2.4,0.1"/>
<path class="st0" d="M99.2,124.1c0.3,0.3,0.7,0.5,1,0.8c0.3,0.2,0.7,0.5,1,0.7s0.7,0.4,1.1,0.6l1.1,0.6c0.4,0.2,0.8,0.3,1.2,0.5
	s0.8,0.3,1.2,0.4s0.8,0.3,1.2,0.4s0.8,0.2,1.2,0.3s0.8,0.2,1.2,0.3l1.2,0.2l1.2,0.2l1.2,0.1l1.3,0.1l1.3,0.1l1.3,0.1l1.3,0.1"/>
<path class="st0" d="M115,127l-0.2-0.1c0,0-0.1-0.1-0.2-0.1h-0.2h-0.2h-0.2H114h-0.2l-0.2,0l0.7,0.3l0.7,0.2l0.7,0.2l0.7,0.2
	l0.7,0.1l0.7,0.1l0.7,0.1l0.7,0.1c0.7,0.1,1.5,0.1,2.2,0.2s1.5,0.1,2.2,0.1s1.5,0,2.2,0s1.5-0.1,2.2-0.1s1.5-0.1,2.2-0.2
	s1.5-0.2,2.2-0.3s1.5-0.3,2.2-0.4s1.4-0.3,2.1-0.5"/>
<path class="st0" d="M125.4,129.3L125.4,129.3l0.2,0.2h0.1c0,0,0.1,0,0.1,0h0.4h0.1l2.4-0.4c0.8-0.1,1.6-0.2,2.4-0.4l2.4-0.4
	l2.4-0.5l2.4-0.5c0.8-0.2,1.6-0.4,2.4-0.5s1.6-0.4,2.4-0.6l2.4-0.6"/>
<path class="st0" d="M47.2,126l0.1-0.2l0.1-0.2v-0.2v-0.1l0.1-0.2V125l0.1-0.2l0.1-0.2c-0.2,0.8-0.4,1.6-0.5,2.3
	c-0.1,0.8-0.3,1.6-0.4,2.4s-0.2,1.6-0.2,2.4s-0.1,1.6-0.1,2.4s0,1.6,0,2.4s0.1,1.6,0.2,2.4s0.2,1.6,0.3,2.4s0.3,1.6,0.4,2.4"/>
<path class="st0" d="M10.7,51.3l-0.8,0.7l-0.8,0.7c-0.3,0.2-0.5,0.5-0.8,0.8l-0.7,0.8l-0.7,0.8c-0.2,0.3-0.5,0.6-0.7,0.8
	s-0.4,0.6-0.6,0.9s-0.4,0.6-0.6,0.9s-0.4,0.6-0.5,0.9s-0.3,0.6-0.5,1s-0.3,0.7-0.4,1s-0.2,0.7-0.3,1s-0.1,0.7-0.2,1
	s-0.1,0.7-0.1,1.1c0,0.7,0,1.4,0.1,2.1c0,0.2,0.1,0.5,0.2,0.7c0.1,0.2,0.2,0.5,0.2,0.7c0.1,0.2,0.2,0.4,0.3,0.6
	c0.1,0.2,0.3,0.4,0.4,0.6c0.1,0.2,0.3,0.3,0.5,0.5C5,69,5.2,69.1,5.4,69.2c0.2,0.1,0.4,0.2,0.6,0.2c0.2,0.1,0.4,0.1,0.7,0.1"/>
<path class="st0" d="M9,51.8l-0.9,0.7c-0.3,0.2-0.6,0.5-0.9,0.8s-0.6,0.5-0.9,0.8s-0.6,0.6-0.8,0.8l-0.8,0.9
	c-0.3,0.3-0.5,0.6-0.8,0.9s-0.5,0.6-0.7,0.9s-0.4,0.6-0.7,1c-0.1,0.2-0.2,0.3-0.3,0.5l-0.3,0.5c-0.1,0.2-0.2,0.4-0.3,0.5
	s-0.2,0.4-0.3,0.6s-0.2,0.4-0.3,0.6s-0.2,0.4-0.2,0.6s-0.1,0.4-0.2,0.6c-0.1,0.2-0.1,0.4-0.2,0.6c-0.1,0.2-0.1,0.4-0.1,0.6
	s-0.1,0.4-0.1,0.6s0,0.4,0,0.6c0,0.2,0,0.4,0,0.6c0,0.2,0,0.4,0.1,0.6c0,0.2,0.1,0.4,0.1,0.6c0.1,0.4,0.3,0.8,0.4,1.1
	c0.1,0.2,0.2,0.4,0.4,0.6c0.1,0.2,0.3,0.4,0.4,0.5c0.2,0.2,0.3,0.3,0.5,0.5c0.2,0.2,0.4,0.3,0.6,0.4c0.2,0.1,0.4,0.2,0.6,0.4
	c0.2,0.1,0.4,0.2,0.6,0.3c0.2,0.1,0.4,0.2,0.7,0.2c0.2,0.1,0.5,0.1,0.7,0.1c0.2,0,0.5,0.1,0.7,0.1s0.5,0,0.7,0c0.2,0,0.5,0,0.7-0.1
	c0.2,0,0.5,0,0.7-0.1l0.7-0.2l0.7-0.2c0.2-0.1,0.4-0.2,0.6-0.3s0.4-0.2,0.6-0.4"/>
<path class="st0" d="M87.6,3.1c-0.2-0.1-0.4-0.2-0.6-0.3c-0.2-0.1-0.4-0.2-0.7-0.2c-0.2-0.1-0.5-0.1-0.7-0.2l-0.7-0.1
	c-0.2,0-0.5,0-0.7,0s-0.5,0-0.8,0s-0.5,0-0.8,0.1l-0.7,0.1l-1.6,0.2l-1.6,0.2L77,3.1l-1.6,0.2l-1.6,0.3l-1.6,0.3l-1.6,0.3L69,4.5"/>
<path class="st0" d="M230.8,97.9L230.8,97.9v-0.2v-0.1v-0.1v-0.1v-0.1v-0.1v-0.1c-0.2,0.5-0.4,0.9-0.6,1.4l-0.6,1.4
	c-0.2,0.5-0.4,0.9-0.7,1.4s-0.5,0.9-0.7,1.4l-0.7,1.4c-0.3,0.4-0.5,0.9-0.8,1.3s-0.5,0.9-0.8,1.3s-0.6,0.9-0.9,1.3"/>
<path class="st0" d="M229.7,97C229.7,97,229.7,96.9,229.7,97c0-0.1,0-0.1,0-0.1c0,0,0,0,0-0.1v-0.1l0,0h-0.1h-0.2h-0.1
	c-0.3,0.9-0.5,1.8-0.8,2.8s-0.6,1.8-0.9,2.8s-0.6,1.8-0.9,2.7s-0.6,1.8-1,2.7s-0.7,1.8-1,2.7s-0.7,1.8-1.1,2.7s-0.7,1.8-1.1,2.7
	l-1.1,2.6"/>
<path class="st0" d="M294.9,76.3c-1.1,0.1-2.2,0.1-3.3,0.1s-2.2,0-3.3,0s-2.2,0-3.3-0.1s-2.2-0.1-3.3-0.2s-2.2-0.2-3.2-0.3
	s-2.2-0.2-3.2-0.4s-2.1-0.3-3.2-0.5s-2.1-0.4-3.2-0.6"/>
<path class="st0" d="M276.4,77.5c-0.6-0.2-1.1-0.4-1.7-0.5s-1.1-0.3-1.7-0.4s-1.2-0.2-1.8-0.3s-1.2-0.1-1.8-0.2s-1.2-0.1-1.8-0.1
	s-1.2,0-1.8,0.1s-1.2,0.1-1.8,0.2s-1.2,0.2-1.8,0.3"/>
<path class="st0" d="M277.3,76.5h-1l-1-0.1l-1-0.1l-1-0.1l-1-0.1l-1-0.2l-1-0.2c-0.3-0.1-0.6-0.1-0.9-0.2"/>
<path class="st0" d="M176.2,18.3c-1.3,0.8-2.5,1.7-3.7,2.6c-1.2,0.9-2.4,1.9-3.5,3s-2.2,2.1-3.2,3.3s-2,2.3-2.8,3.6
	s-1.7,2.5-2.5,3.8s-1.5,2.7-2.1,4s-1.2,2.8-1.8,4.2s-1,2.9-1.4,4.4"/>
<path class="st0" d="M174,21.8c-1.3,0.7-2.5,1.5-3.7,2.3c-1.2,0.8-2.3,1.7-3.4,2.7s-2.2,1.9-3.2,3s-2,2.1-2.9,3.3s-1.8,2.3-2.5,3.5
	c-0.8,1.2-1.5,2.5-2.2,3.8c-0.7,1.3-1.3,2.6-1.8,3.9c-0.5,1.3-1,2.7-1.4,4.1c0.1-0.8,0.3-1.7,0.6-2.5c0.3-0.8,0.5-1.6,0.9-2.4
	c0.4-0.8,0.7-1.5,1.1-2.3s0.9-1.4,1.4-2.2s1-1.4,1.5-2.1s1.1-1.3,1.7-2s1.2-1.3,1.8-1.9s1.2-1.2,1.8-1.8l0.9-0.9l0.9-0.9l0.9-0.9
	l0.9-0.9l0.9-0.9l0.9-0.9l0.9-0.9l0.9-0.8l0.6-0.5l0.6-0.5l0.6-0.5c0.2-0.2,0.4-0.3,0.6-0.4s0.4-0.3,0.7-0.4s0.5-0.2,0.7-0.3
	s0.5-0.2,0.7-0.2c0.2-0.1,0.5-0.1,0.8-0.1c-1,0.4-2,1-3,1.6c-1,0.6-1.9,1.2-2.7,1.9c-0.9,0.7-1.7,1.5-2.5,2.2
	c-0.8,0.8-1.6,1.6-2.3,2.5s-1.4,1.8-2.1,2.7s-1.3,1.9-2,2.8s-1.3,1.9-1.9,2.9s-1.2,2-1.8,2.9"/>
<path class="st0" d="M176.2,19.7c-0.8,0.6-1.6,1.2-2.5,1.9s-1.6,1.3-2.4,2s-1.5,1.4-2.3,2.1s-1.5,1.5-2.1,2.2s-1.4,1.5-2,2.3
	s-1.3,1.6-1.9,2.4s-1.2,1.6-1.8,2.5s-1.1,1.7-1.7,2.6"/>
<path class="st0" d="M65.1,16.5c1.3,1,2.6,2,3.8,3.1c1.2,1.1,2.3,2.3,3.4,3.5s2.1,2.5,3.1,3.8s1.9,2.7,2.8,4.1s1.7,2.9,2.5,4.3
	s1.6,2.9,2.4,4.4s1.5,3,2.2,4.5s1.4,3,2.1,4.5"/>
<path class="st0" d="M87.3,48.6c-0.4-0.5-0.7-1.1-1-1.6c-0.3-0.6-0.6-1.1-0.9-1.7s-0.6-1.1-0.8-1.7s-0.5-1.2-0.8-1.8L83,40
	c-0.2-0.6-0.5-1.2-0.8-1.8s-0.5-1.2-0.8-1.8s-0.6-1.1-0.9-1.7s-0.8-1.2-1.2-1.9s-0.9-1.2-1.3-1.8s-0.9-1.1-1.4-1.6s-1-1-1.6-1.5
	S74,27,73.4,26.6s-1.2-0.9-1.8-1.3s-1.2-0.8-1.9-1.1s-1.3-0.7-2-1"/>
<path class="st0" d="M69,17.9c0.7,0.9,1.4,1.8,2.1,2.8c0.7,0.9,1.3,1.9,2,2.9s1.2,2,1.8,3s1.1,2.1,1.7,3.1s1,2.1,1.5,3.2
	S79,35,79.4,36s0.8,2.2,1.2,3.3s0.7,2.2,1,3.4"/>
<path class="st0" d="M77.3,26.1l-0.2-0.2L77,25.6l-0.2-0.2l-0.2-0.2L76.4,25l-0.2-0.2L76,24.6l-0.2-0.2c0.3,0.6,0.5,1.2,0.8,1.8
	s0.6,1.2,0.9,1.8s0.6,1.2,0.9,1.8s0.6,1.2,0.9,1.7s0.6,1.1,0.9,1.7s0.6,1.1,1,1.7l1,1.7l1,1.7c-0.2-0.4-0.4-0.8-0.6-1.2
	s-0.4-0.8-0.6-1.2l-0.7-1.2c-0.2-0.4-0.5-0.8-0.7-1.2s-0.5-0.8-0.7-1.2S79.2,31.4,79,31s-0.5-0.8-0.8-1.2s-0.5-0.8-0.8-1.1
	c0.6,0.7,1.1,1.5,1.7,2.2s1.1,1.5,1.6,2.3s1.1,1.5,1.6,2.3s1,1.6,1.5,2.4s1,1.6,1.4,2.4s0.9,1.6,1.3,2.4s0.9,1.6,1.3,2.5
	s0.8,1.7,1.2,2.5"/>
<path class="st0" d="M191.3,134.3C191.3,134.3,191.2,134.2,191.3,134.3l-0.2-0.1H191l-0.1,0.1l-0.1,0.1l-0.1,0.1l-0.1,0.1
	c0,0,0,0.1,0,0.1l-0.5,1.8l-0.5,1.8l-0.5,1.8l-0.5,1.8l-0.5,1.8l-0.5,1.8l-0.5,1.8l-0.5,1.8"/>
<path class="st0" d="M190.5,133.9C190.5,133.9,190.5,133.8,190.5,133.9c0-0.1,0-0.2,0-0.2c0,0,0-0.1,0-0.1c0,0,0-0.1,0-0.1
	c0,0,0-0.1,0-0.1l0.1-0.1h0.1c0,0,0.1,0,0.1,0c-0.2,0.9-0.4,1.8-0.6,2.6s-0.4,1.8-0.6,2.6s-0.4,1.8-0.6,2.6l-0.7,2.6
	c-0.2,0.9-0.5,1.7-0.7,2.6s-0.5,1.7-0.7,2.6s-0.5,1.7-0.7,2.6s-0.5,1.7-0.8,2.6"/>
<path class="st0" d="M188.9,136.9c-0.3-0.2-0.7-0.5-1-0.7s-0.7-0.4-1.1-0.6l-1.1-0.6l-1.1-0.6l-1.1-0.6l-1.1-0.5l-1.1-0.5l-1.1-0.5
	l1.1,0.5l1.1,0.5l1.1,0.5l1.1,0.5l1.1,0.5l1.1,0.5l1.1,0.5l1.1,0.5L188,136l-1-0.5l-1-0.5l-1-0.4c-0.3-0.1-0.7-0.3-1-0.4l-1-0.4
	l-1-0.3l-1-0.3"/>
</svg>
