<?xml version="1.0" encoding="utf-8"?>
<!-- Generator: Adobe Adobe Illustrator 24.2.0, SVG Export Plug-In . SVG Version: 6.00 Build 0)  -->
<svg version="1.1" id="Layer_2" xmlns="http://www.w3.org/2000/svg" xmlns:xlink="http://www.w3.org/1999/xlink" x="0px" y="0px"
	 width="800px" height="800px" viewBox="0 0 800 800" style="enable-background:new 0 0 800 800;" xml:space="preserve">
<style type="text/css">
	.st0{fill:none;stroke:#000000;stroke-miterlimit:10;}
</style>
<path class="st0" d="M132.66,329.81c14.01,7.54,26.29,18.27,33.87,33.82c6.69,19.33,11.4,39.35,14.2,60.34
	c5,16.15,14.41,30.92,26.95,42.27"/>
<path class="st0" d="M114.11,309.53c-1.93-14.33,1.75-29.35,10.1-41.16c8.35-11.81,21.28-20.29,35.44-23.24
	c18.74-3.91,38.46,1.77,54.9,11.59c16.44,9.81,30.14,23.51,43.67,37.06"/>
<path class="st0" d="M267.13,300.88c84.91,24.09,169.13,50.61,252.52,79.52"/>
<path class="st0" d="M277.9,327.18c-16.15,8.05-24.23,28.05-21.31,45.86s15.2,33.11,30.28,43.02c15.09,9.91,32.81,15.01,50.51,18.53
	c97.96,19.48,198.69-5.88,298.55-7.87"/>
<path class="st0" d="M534.92,434.92c17.91-1.18,35.83-2.36,53.74-3.54c18.35-1.21,36.85-2.44,54.59-7.29"/>
<path class="st0" d="M377.92,529.31c23.42-2.59,46.38-9.3,67.51-19.72"/>
<path class="st0" d="M379.49,532.33c29.72-4.23,58.46-15.21,83.43-31.88"/>
<path class="st0" d="M430.27,515.56c26.99-13.54,53.02-28.98,77.84-46.18"/>
<path class="st0" d="M397.16,441.96c55.73-0.38,111.74-0.78,166.73-9.87"/>
<path class="st0" d="M500.2,474.13c21.16-12.38,45.19-19.82,69.64-21.56"/>
<path class="st0" d="M577.41,451.02c54.23,1.05,107.16,17.13,161.3,20.52"/>
<path class="st0" d="M637.89,458.06c21.24,5.59,42.56,11.2,64.36,13.94c21.79,2.74,44.22,2.55,65.38-3.35"/>
<path class="st0" d="M516.9,378.84c43.42,18.48,93.12,22.13,132.86,47.57"/>
<path class="st0" d="M377.37,533.99c13.39-2.16,26.54-5.83,39.07-11.01"/>
<path class="st0" d="M190.01,439.44c11.13,21.76,26.89,41.07,45.77,56.57c19.42,15.94,42.12,27.79,66.4,34.27
	c15.29,4.08,31.12,6.08,46.95,6.02"/>
<path class="st0" d="M377.65,534.44c12.36-2.83,24.41-7.09,35.76-12.75"/>
<path class="st0" d="M131.59,330.02C167,349,175,391,186,427c1,6,3,11,6,17c28,60,92,100,158,94.37"/>
<path class="st0" d="M133.44,323.56c-18.98,11.93-40.64,19.57-62.91,22.2c14.28-14.87,29.17-27.37,45.61-38.78
	c-15.27,9.95-28.61,22.84-39.1,37.74"/>
<path class="st0" d="M136.63,321.17c-16.85,15.65-40.15,24.11-63.11,22.93"/>
<path class="st0" d="M129.21,328.56c16.88,7.28,28.7,23.14,36,40.01c7.3,16.87,10.8,35.09,16.01,52.71
	c5.21,17.63,12.5,35.29,25.69,48.09"/>
<path class="st0" d="M193.35,444.19c9.79,27.59,29.94,51.37,55.55,65.55"/>
<path class="st0" d="M231.23,494.48c20.43,20.29,47.53,33.74,76.04,37.75"/>
<path class="st0" d="M228.75,492.89c22.84,24.52,56.26,38.83,89.76,38.45"/>
<path class="st0" d="M274.29,515.83c21.7,11.82,46.33,18.19,71.03,18.38"/>
<path class="st0" d="M116.79,307.73c-4.87-15.04,1.51-31.8,11.74-43.85c4.62-5.45,10.06-10.26,16.29-13.75
	c18.27-10.23,41.54-7.82,60.42,1.23c18.88,9.05,34.26,23.92,49,38.8"/>
<path class="st0" d="M114.14,292.29c1.3-21.66,18.06-40.73,38.63-47.64c20.56-6.91,43.87-2.7,62.55,8.34
	c18.33,10.84,32.33,27.47,44.87,43.12c17.68,8.41,36.52,14.36,55.82,17.63"/>
<path class="st0" d="M277.7,328.73c-16.82,10.55-23.22,33.51-17.74,52.6c5.48,19.08,20.89,34.16,38.59,43.17
	c17.69,9.01,37.6,12.65,57.31,15.05c91.12,11.1,183.26-2.04,274.11-15.16"/>
<path class="st0" d="M261.24,298.03c127.51,35.09,253.28,76.49,376.69,124.02"/>
<path class="st0" d="M131.07,324.48c7.4,5.18,13.82,11.75,18.83,19.27"/>
<path class="st0" d="M129.92,329.41c12.89,4.08,23.45,13.85,30.67,25.28c7.22,11.43,11.42,24.51,14.74,37.62
	c3.32,13.11,5.83,26.45,10.04,39.3"/>
<path class="st0" d="M346.29,516.71c0.08,12.17,5.19,24.23,13.89,32.75"/>
<path class="st0" d="M363.5,513.23c6.26,4.05,10.89,10.55,12.66,17.79s0.67,15.15-3.87,21.13c-4.51-1.27-9.13-2.17-12.22-2.98
	c-12.97,22.03-24.4,44.97-34.18,68.59"/>
<path class="st0" d="M368.37,551.68c-13.17,22.41-24.54,45.88-33.98,70.1"/>
<path class="st0" d="M412.98,523.03c28.08-11.07,52.94-28.82,79.23-43.65c26.29-14.83,55.49-27.07,85.63-25.4"/>
<path class="st0" d="M345.09,517.23c-1.24,12.62,5.37,25.68,16.26,32.16"/>
<path class="st0" d="M370.97,550.8c4.35-5.11,6.31-12.17,5.23-18.79c-1.08-6.62-5.19-12.69-10.94-16.15"/>
<path class="st0" d="M357.67,554.24c-11.48,20.73-21.75,42.13-30.73,64.06"/>
<path class="st0" d="M368.15,550.89c-11.37,25.04-22.74,50.09-34.11,75.13"/>
<path class="st0" d="M335.69,624.24c0.01,1.61,1.39,2.94,2.92,3.44c1.53,0.5,3.18,0.34,4.78,0.18c4.1-0.41,8.19-0.82,12.29-1.23
	c2.43-0.24,4.91-0.49,7.3,0.01s4.73,1.87,5.78,4.08c1.05,2.21,0.4,5.26-1.76,6.39"/>
<path class="st0" d="M371.34,635.87c-7.87,3.54-16.9,3.5-25.44,2.26c-8.54-1.24-16.9-3.62-25.48-4.58
	c-10.42-1.17-21.07-0.2-31.11,2.83c-3.63,1.1-7.22,2.46-10.99,2.92c-3.77,0.45-7.85-0.13-10.78-2.55c-0.19-3.24,3.03-6.61,6.66-7.85
	s7.58-0.88,11.41-0.58c9.21,0.71,18.72,0.88,27.37-2.34s16.33-10.53,18.69-18.08c-6.61,10.64-19.71,15.55-32.2,16.59
	c-12.49,1.04-25.03-1.03-37.55-0.79c-2,0.04-4.08,0.15-5.86,1.06c-1.78,0.91-3.21,2.83-2.92,4.81c0.37,2.57,3.26,3.99,5.84,4.24
	c2.59,0.25,5.28-0.2,7.74,0.66"/>
<path class="st0" d="M332.68,608.44c-8.24,8.7-20.34,12.8-32.25,14.11c-11.91,1.32-23.93,0.17-35.91,0.05
	c-2.47-0.03-5.02,0.01-7.28,1c-2.26,0.99-4.17,3.2-4.05,5.66c0.13,2.61,2.48,4.67,5,5.34c2.52,0.67,5.19,0.24,7.76-0.18"/>
<path class="st0" d="M329.55,614.48c-5.37,7.85-15.01,11.74-24.42,13.11c-9.41,1.36-19,0.63-28.48,1.45
	c-2.07,0.18-4.19,0.45-6.02,1.43s-3.33,2.83-3.33,4.91c0,2.14,1.6,4.04,3.55,4.93c1.95,0.89,4.18,0.92,6.31,0.71
	c9.69-0.97,18.3-6.63,27.85-8.58c19.24-3.93,38.6,7.62,58.18,6.25c1.75-0.12,3.55-0.37,5.04-1.29c1.49-0.92,2.59-2.68,2.25-4.4"/>
<path class="st0" d="M343.58,604.16c-1.05,3.29-3.17,6.11-4.69,9.21s-2.42,6.85-0.91,9.95c1.88,3.86,6.79,5.25,11.08,4.98
	c4.29-0.27,8.45-1.76,12.75-1.84c2.26-0.04,4.7,0.39,6.29,2c1.59,1.61,1.82,4.65-0.01,5.97"/>
<path class="st0" d="M557.64,456.2c27.43-5.51,55.82-3.14,83.5,0.97c27.67,4.11,55.17,9.95,83.12,11.34
	c15.61,0.78,31.71,0.06,46.05-6.15"/>
<path class="st0" d="M609.23,426.46C632,432,654,436,678,439c32,4,62-1,94,5c4,0,10,4,6.99,11.28"/>
<path class="st0" d="M412.9,520.26c38.5-8.68,67.73-39.72,103.69-55.97c26.38-11.92,55.94-15.59,84.86-14.2
	c28.92,1.39,57.37,7.65,85.41,14.85c16.23,4.17,32.65,8.7,49.41,8.39c16.76-0.31,34.27-6.22,44.58-19.44"/>
<path class="st0" d="M695.03,469.81c23.28,7.2,49.12,5.78,71.47-3.93"/>
<path class="st0" d="M745.52,472.75c8.89-0.54,17.57-4.05,24.33-9.85c2.17-1.86,4.23-4.09,4.86-6.88c0.64-2.79-0.66-6.18-3.39-7.02"
	/>
<path class="st0" d="M608.55,427.15C627,434,646,436,665,437c26,2,51,4,77,3c11-1,24-4,32.73,4.03"/>
<path class="st0" d="M411.88,521.47c23.33-2.43,43.07-17.4,62.91-29.9c26.57-16.73,55.45-29.81,85.55-38.74"/>
<path class="st0" d="M353.46,542.87c-12.32,20.82-23.82,42.11-34.47,63.83"/>
<path class="st0" d="M359.15,548.56c-13.65,19.99-24.73,41.73-32.89,64.52"/>
<path class="st0" d="M352.09,542.72c-11.81,22.36-23.62,44.72-35.43,67.08"/>
<path class="st0" d="M320.52,602.82c-5.23,6.55-11.24,13.58-19.52,14.88c-4.55,0.72-9.16-0.43-13.71-1.12s-9.52-0.85-13.44,1.57
	c-0.9,0.56-1.75,1.28-2.15,2.26c-0.4,0.98-0.22,2.26,0.64,2.88"/>
<path class="st0" d="M308.71,614.91c-11.97-1.31-23.93-2.62-35.9-3.93c-3.76-0.41-7.71-0.8-11.21,0.63
	c-1.53,0.63-3.04,1.75-3.38,3.38c-0.33,1.58,0.57,3.2,1.83,4.2c1.26,1,2.84,1.49,4.37,1.97"/>
<path class="st0" d="M321.27,604.39c-4.43,6.53-11.96,10.85-19.83,11.38c-7.23,0.49-14.48-2.04-21.67-1.12
	c-2.49,0.32-5,1.09-6.88,2.75c-1.88,1.66-2.99,4.34-2.3,6.75"/>
<path class="st0" d="M308.75,613.12c-12.12,2.59-24.51-2.45-36.9-2.62c-2.68-0.04-5.43,0.17-7.89,1.26
	c-2.45,1.09-4.58,3.18-5.13,5.81s0.86,5.69,3.42,6.5"/>
<path class="st0" d="M338.59,617.71c2.47,1.47,5.5,1.59,8.37,1.47c2.87-0.12,5.81-0.42,8.58,0.37c1.44,0.41,2.9,1.22,3.48,2.61
	c0.58,1.38-0.23,3.34-1.73,3.44"/>
<path class="st0" d="M337.52,620.03c4.2-0.34,8.41-0.69,12.61-1.03c1.41-0.12,2.84-0.23,4.22,0.06c1.38,0.29,2.73,1.05,3.39,2.3
	c0.67,1.24,0.45,2.99-0.71,3.8"/>
<path class="st0" d="M275.15,328.06c-12.01,9.21-19.71,23.82-20.51,38.93c-0.81,15.11,5.3,30.46,16.26,40.89"/>
<path class="st0" d="M258.53,382.48c10.43,25.69,34.43,45.4,61.66,50.63"/>
<path class="st0" d="M292.53,422.09c12.73,9.52,28.12,15.09,43.79,17.73s31.7,2.49,47.56,1.42"/>
<path class="st0" d="M336.51,436.53c30.97,8.34,63.4,11.2,95.35,8.43"/>
<path class="st0" d="M381.91,442.7c31.96,6.07,64.99,6.51,97.1,1.3"/>
<path class="st0" d="M429.27,445.49c28.92,0.75,57.92-1.86,86.24-7.78"/>
<path class="st0" d="M269.67,297.65c24.72,7.58,49.43,15.16,74.15,22.73"/>
<path class="st0" d="M355.97,323.85c19.38,6.14,38.75,12.28,58.13,18.42"/>
<path class="st0" d="M428.95,346.26c24.3,5.46,48.24,12.52,71.61,21.13"/>
<path class="st0" d="M455.24,354.53c26.29,11.5,52.58,22.99,78.87,34.49"/>
<path class="st0" d="M479.59,362.58c21.01,7.88,42.02,15.75,63.04,23.63"/>
<path class="st0" d="M531.11,379.89c16.48,6.88,33.55,12.33,50.97,16.27"/>
<path class="st0" d="M569.93,392.72c18.57,2.88,36.59,9.22,52.86,18.61"/>
<path class="st0" d="M132.86,330.17c13.57,2.62,24.84,12.53,32.25,24.19c7.41,11.66,11.51,25.07,15.53,38.3"/>
<path class="st0" d="M161.31,359.8c10.91,12.15,15.76,28.47,19.49,44.37c3.73,15.9,6.8,32.32,15.08,46.4"/>
<path class="st0" d="M191.77,432.62c16.24,39.16,47.36,71.92,85.64,90.14"/>
<path class="st0" d="M226.54,490.76c29.45,25.81,66.89,42.37,105.8,46.81"/>
<path class="st0" d="M236.45,491.43c24.09,22.88,56.27,37.07,89.4,39.41"/>
<path class="st0" d="M342.47,520.91c0.79,8.67,4.68,17.03,10.82,23.22"/>
<path class="st0" d="M369.72,516.86c6.46,8.15,8.38,19.67,4.91,29.48"/>
<path class="st0" d="M342.51,525.15c2.56,7.37,6.2,14.37,10.78,20.69c1.13,1.56,2.34,3.1,3.97,4.13c1.62,1.02,3.75,1.45,5.49,0.64"
	/>
<path class="st0" d="M535.76,458.01c33.01-6.42,67.1-1.96,100.21,3.93c33.11,5.89,66.29,13.22,99.91,12.51"/>
<path class="st0" d="M584.46,455.23c44.12,1.32,88.18,4.62,132.01,9.88"/>
<path class="st0" d="M615.62,454.2c27.43,7.82,55.35,13.92,83.55,18.27"/>
<path class="st0" d="M635.41,461.83c27.06,3.11,53.94,7.78,80.46,13.98"/>
<path class="st0" d="M607.76,427.7C650,439,695,444,737.9,437.09"/>
<path class="st0" d="M718.65,472.91c9.4,5.32,20.93,6.75,31.33,3.87s19.57-10.02,24.9-19.41"/>
<path class="st0" d="M728.22,440.73c5.27,1.01,10.7,0.21,16.03-0.51c5.32-0.72,10.81-1.34,16,0.02c5.2,1.36,10.1,5.13,11.24,10.38"
	/>
<path class="st0" d="M261.43,300.87c-9.76-11.97-19.56-24-31.01-34.36s-24.7-19.09-39.53-23.4c-14.83-4.3-31.38-3.87-45.13,3.17
	c-20.67,10.59-32.02,35.27-30.2,57.99c-2.04-16.72,3.87-34.24,15.62-46.32s29.1-18.46,45.87-16.88c9.78,0.92,19.17,4.38,28,8.69
	c9.85,4.81,19.22,10.77,27.03,18.46c6.39,6.29,11.64,13.65,17.84,20.13C256.11,294.85,263.57,300.61,261.43,300.87z"/>
<path class="st0" d="M133.4,321.66c4.3-3.07,7.74-7.32,9.85-12.16c0.72-1.65,1.23-3.72,0.1-5.12c-1.5-1.86-4.46-1.01-6.62,0
	c-4.08,1.9-8.16,3.8-12.24,5.7c-2.14,1-4.43,2.02-6.77,1.71s-4.58-2.55-3.56-3.94c2.66,2.04,6.41,2.13,9.6,1.11
	c3.2-1.01,5.99-2.97,8.79-4.81c2.8-1.84,5.76-3.61,9.07-4.17c2.26-0.38,5.11,0.19,5.87,2.35c0.54,1.54-0.22,3.2-1.02,4.63
	C143.81,311.72,140.61,316.18,133.4,321.66z"/>
<path class="st0" d="M254.89,288.73c8.21,7.63,18.86,12.58,29.99,13.96"/>
<path class="st0" d="M68.73,344.43c22.82,2.87,46.67-3.62,64.88-17.66"/>
<path class="st0" d="M76.87,341.71c9.76-13.93,22.11-26.04,36.24-35.51"/>
<path class="st0" d="M369.56,553.31c-13.24,22.66-24.59,46.42-33.9,70.96"/>
<path class="st0" d="M130.38,306.3c-3.2-9.79-2.71-20.74,1.37-30.2c1.78-4.12,4.4-8.13,8.4-10.16c4-2.02,9.59-1.37,12.06,2.37"/>
<path class="st0" d="M129.05,286.7c0.26-1.52,0.54-3.1,1.38-4.39s2.4-2.26,3.91-1.93c1.42,0.31,2.38,1.62,3.05,2.9
	c2.65,5.06,2.89,11.32,0.62,16.56"/>
<path class="st0" d="M127.56,294.68c2.1,2.97,4.21,5.94,6.31,8.91"/>
<path class="st0" d="M130.06,297.83c0.85,2.09,1.69,4.18,2.54,6.27"/>
<path class="st0" d="M128.14,291.99c1.99,3.42,4.28,6.67,6.81,9.71"/>
<path class="st0" d="M128.29,288.14c2.35,4.75,5.46,9.12,9.19,12.89"/>
<path class="st0" d="M128.6,285.4c2.44,4.76,5.59,9.16,9.32,12.99"/>
<path class="st0" d="M129.71,283.88c2.14,4.31,5.01,8.25,8.46,11.6"/>
<path class="st0" d="M131.24,282.02c1.68,3.71,4.07,7.1,7,9.94"/>
<path class="st0" d="M133.01,280.63c1.6,2.92,3.41,5.72,5.4,8.39"/>
<path class="st0" d="M152.53,267.49c-3.4-3.88-9.8-3.94-14.19-1.23c-4.39,2.72-7.06,7.53-8.76,12.41
	c-3.14,9.05-3.5,19.05-1.02,28.31"/>
<path class="st0" d="M145.07,298.72c3.61-2.99,6.24-7.15,7.38-11.69c1.14-4.54,0.8-9.45-0.96-13.79"/>
<path class="st0" d="M148.61,298.89c4.89-7.84,6.58-17.6,4.62-26.62"/>
<path class="st0" d="M129.91,299.18c0.98,1.89,1.97,3.78,2.95,5.67"/>
<path class="st0" d="M130.02,296.46c1.29,2.19,2.58,4.38,3.87,6.57"/>
<path class="st0" d="M129.19,293.06c1.88,2.57,3.87,5.06,5.98,7.45"/>
<path class="st0" d="M129.49,289.64c2.24,3.16,4.69,6.17,7.33,9"/>
<path class="st0" d="M130.37,286.94c2.25,3.4,4.84,6.57,7.72,9.45"/>
<path class="st0" d="M131.01,284.11c2.14,3.25,4.46,6.39,6.95,9.39"/>
<path class="st0" d="M132.11,281.36c2.05,3.42,4.35,6.68,6.88,9.75"/>
<path class="st0" d="M134.72,280.8c1.08,2.07,2.32,4.07,3.69,5.96"/>
<path class="st0" d="M113.76,308.3c-14.3,8.01-26.76,19.27-36.18,32.68"/>
</svg>
