<?xml version="1.0" encoding="utf-8"?>
<!-- Generator: Adobe Illustrator 27.5.0, SVG Export Plug-In . SVG Version: 6.00 Build 0)  -->
<svg version="1.1" id="Layer_1" xmlns="http://www.w3.org/2000/svg" xmlns:xlink="http://www.w3.org/1999/xlink" x="0px" y="0px"
	 viewBox="0 0 1500 1000" style="enable-background:new 0 0 1500 1000;" xml:space="preserve">
<style type="text/css">
	.st0{fill:none;stroke:#000000;stroke-miterlimit:10;}
</style>
<g id="Layer_2_00000152983172290756558890000003102659679555356054_">
	<path class="st0" d="M348.3,206.2c-5.5-1.7-11.1-3.1-16.8-3.1c-5.7,0-11.6,1.5-16,5.2c-8.4,6.9-9.3,20-5,30s12.6,17.6,19.8,24.3
		c3.9,3,5.1,8.9,9.5,11.1c2.9,1.5,6.3,1,9.5,0.2c1.5,2.2,2.5,4.7,2.9,7.4c0.5,3.6,0.1,7.9,3,10c0.7,0.5,1.5,0.8,2.4,0.6
		c0.9-0.2,1.6-0.8,2.3-1.5c1.6-1.5,3.3-3,5.4-3.6c2.1-0.7,4.6-0.3,5.7,1c1.5,2.5,2.4,5.3,2.4,8.2c0,2.6-0.4,5.5,1.4,7.4
		c1.3,1.3,3.3,1.6,5.1,1.3s3.5-1,5.3-1.4c3.7-0.8,7.9-0.2,10.8-2.7c0.9-0.7,1.6-1.7,2.4-2.5c0.9-0.8,2-1.4,3.7-1.4
		c13.7,9.9,30.7,14.5,47.6,15.5c16.9,1,33.8-1.2,50.5-3.8c7.4-1.1,14.8-2.3,22.2-3.5c1.7-0.3,4.2,0.5,4.5,2.8
		c-3.7,6.2-10.1,10.5-16.8,13.2c-6.7,2.7-13.9,4.1-20.9,6c-14.4,3.9-28.1,9.7-42.4,13.7s-29.7,6-44,2"/>
	<path class="st0" d="M324.1,340.2c1.3-0.7,2.2-2.1,3.3-3.1c1.1-1.1,2.6-2,4.1-1.6c1.2,0.3,2,1.5,2.4,2.7c0.4,1.2,0.4,2.5,0.6,3.7
		c0.6,3.1,2.4,6,4.9,7.8c4-1.1,7.5-2.7,11-4.2c1.3-0.6,2.7-1.1,4-0.6c1.1,0.4,1.7,1.4,2.3,2.4c1.7,2.7,3.4,5.5,5.1,8.2
		c4-1.4,6.5-5.2,10.3-5.2c2.5,0,4.7,1.7,6.4,3.5s3.2,3.9,5.4,5.1c5.1-4.5,6.8-11.4,8.3-17.8c0.4-1.7,1-3.6,2.6-4.2
		c1.3-0.5,2.8-0.1,3.9,0.8s1.8,2.1,2.4,3.4c2.2,4,4.4,8,6.6,12c1.3,2.4,2.9,5,4.7,4.4c9.4,2.9,19.5,0.4,28.9-2.4
		c20.5-5.9,40.7-12.9,60.5-20.8c12.9-5.2,25.8-10.8,39.2-14.6s27.5-6,41-5c4.5,0.5,10.3,0.2,11.6-4.1c0.7-2.4-0.6-5-2.6-6.5
		s-4.4-2.2-6.9-2.7c-18.7-4-38-2.3-57.1-1.1c-20.7,1.3-41.4,2-62.1,2c-7.8,0-15.6-0.1-23.3-1.1c-10.2-1.4-20-4.5-29.6-8.3
		c-23.8-9.5-45.8-23.6-64.4-41.2"/>
	<path class="st0" d="M320.3,213c-1.8,4-1.4,8.8,0.2,12.9c1.6,4.1,4.3,7.7,7,11.2c4.2,5.3,8.8,10.5,14.8,13.7"/>
	<path class="st0" d="M374.5,341.5c1.2-1.9,2.2-4,3-6.1c0.2-0.6,0.5-1.3,1-1.7c0.8-0.6,2-0.4,2.8,0.2c0.8,0.6,1.4,1.5,2,2.3
		c1.9,2.6,4.5,4.7,8.2,6.2c-5,1.3-10.2,0.5-15.1-0.7c-19.2-4.3-37.1-13-55.3-20.4c-18.2-7.4-37.5-13.7-57.1-12.8
		c-5.1,0.2-10.9,1.4-12.5,6.2c-1.4,1-1.3,3.1-0.4,4.5c0.9,1.4,2.5,2.1,4.1,2.8c15,6.5,31.9,9.2,43.4,19.8c1.2,3.1-0.3,7-2.2,8.8
		c-5.2,3.1-9.3,7.9-11.6,13.5c-1,2.4-1.6,5-1.6,7.6c0.1,5.6,3.5,10.8,7.8,14.3s9.6,5.8,14.8,8c7.5,3.2,15,6.3,22.6,9.5
		c3.5,1.5,7.1,3,10.8,4c7.5,2,15.5,2,23.2,2"/>
	<path class="st0" d="M486.6,205.8c-11.2,3.4-23.7,7.8-29,18.2c-1.5,3-2.3,6.7-0.6,9.6c2.3,4.1,7.9,4.5,12.6,4.2
		c9.1-0.5,18.5-1.9,27.1,1.1c3,1,5.7,2.5,8.7,3.4c11.7,3.7,24.1-1.6,35.2-6.8"/>
	<path class="st0" d="M504.8,216.6c-3.9-0.7-7.9-0.7-11.7-0.1c-1.9,0.3-3.8,0.9-5.1,2.2c-1.3,1.4-1.7,3.8-0.4,5.1
		c0.6,0.7,1.6,1,2.5,1.2c12.6,3.8,26,5.2,39.2,4.1"/>
	<path class="st0" d="M528.4,221.5c6.1-1.7,12.5-2.4,18.8-2c1.6,0.1,3.3,0.3,4.8,1c3.6,1.7,5.1,6.2,4.5,10.1s-3.1,7.3-5.8,10.1
		c-5.1,5.5-11.4,9.8-18.2,12.7"/>
	<path class="st0" d="M521.9,211.1c10.1-3.4,21.2-3.1,31.8-1.2c4.2,0.8,8.5,1.8,12.2,4c3.7,2.2,6.8,5.6,7.8,9.8
		c1.7,7.1-3.1,14.1-8.3,19.2c-5,5-10.7,9.2-16.9,12.7"/>
	<path class="st0" d="M576,212c20.1-7.6,36-23.2,54.5-34c6-3.5,12.8-6.6,19.7-5.7c1.7,0.2,3.5,0.8,4.7,2c2.3,2.3,1.8,6.1,1,9.2
		c-3.2,13.9-8.4,27.4-15.3,39.8"/>
	<path class="st0" d="M584.7,228.3c24.2-8.8,38.9-33.3,60.5-47.3c1.4-0.9,3.5-1.8,4.7-0.5c0.9,0.9,0.7,2.4,0.4,3.6
		c-3.1,13.4-8.2,26.4-14.9,38.4"/>
	<path class="st0" d="M569,246.3c15.2-11.3,33.6-17.6,51.6-23.6c0.7-0.2,1.4-0.4,2-0.1c0.7,0.3,1,1.2,1.1,2c0.3,3-1.2,5.8-2.9,8.3
		c-3.6,5.4-8.2,10.1-13.2,14.2c-5.3,4.5-11,8.4-17.1,11.7"/>
	<path class="st0" d="M602.9,252.2c13.9-4.1,28.8-3.8,43.1-1.1c1.9,0.4,3.9,0.8,5.4,2.1s2.4,3.5,1.5,5.2c-0.4,0.7-1,1.2-1.7,1.8
		c-6.8,5.3-15.3,7.9-23.5,10.4c-4.5,1.3-8.9,2.7-13.4,4"/>
	<path class="st0" d="M463.6,252.3c3.9-3.1,6.1-8.4,10.6-10.5c2.3-1.1,4.9-1.2,7.4-1.1c3.8,0.1,7.8,0.5,11,2.7s5.1,6.4,3.5,9.9
		c-1.2,2.6-3.9,4.1-6.4,5.4c-1.4,0.7-3,1.5-4.5,1.2"/>
	<path class="st0" d="M489.1,262.3c4.8-0.1,9.4-2.4,12.4-6c3-3.6,4.4-8.6,3.6-13.3l-0.9-0.4"/>
	<path class="st0" d="M665.4,300.4c-13.5-0.7-25.9-7.3-37.2-14.6s-22.2-15.6-34.8-20.4c-21.2-8.1-44.8-5.4-67.1-1
		c-22.2,4.4-44.5,10.6-67.2,9.2c-27.1-1.6-53.4-14.6-71.2-35.2"/>
	<path class="st0" d="M643.1,273c4.4-0.4,8.7,1.2,12.5,3.5c3.8,2.2,7.1,5.2,10.6,7.8c5,3.8,10.5,7.2,16,10.2c4,2.2,8.4,4.3,13.7,3.9
		c4.7-0.5,9.3-1.4,13.8-2.7c1,3.2-1.7,6.3-4.3,8.3c-8.3,6.3-18.6,9.5-29,10.5s-20.8-0.1-31.1-1.6"/>
	<path class="st0" d="M661.7,263.2c20.5,0.8,41,3.2,61.1,7.3c8.1,1.6,16.3,3.6,23.6,7.5c3.2,1.7,6.7,5.2,5.1,8.5
		c-0.7,1.4-2.1,2.2-3.5,3c-12.2,6.7-25.9,10.8-39.8,11.9"/>
	<path class="st0" d="M664.9,276.6c16.2-2.5,32.7-0.8,49,1c6.3,0.7,13.1,1.6,17.4,6.2c-8.2,3.5-16.6,6.9-24.9,10.1"/>
	<path class="st0" d="M449.1,251.4c7.7,3.4,16.3,3.8,24.6,5.5c8.3,1.6,16.9,5.1,21.2,12.3"/>
	<path class="st0" d="M523.3,244.8c-8.6,3.1-15.6,9.4-22.2,15.7c-2.4,2.3-5.4,4.9-8.8,4.2"/>
	<path class="st0" d="M418.2,230.1c3.5-1.5,7.6-1.4,11.3-0.3c3.7,1,7.1,2.9,10.4,4.9c4.2,2.5,8.4,5.1,12.5,7.8
		c4.4,2.9,8.9,6.4,10.5,11.4"/>
	<path class="st0" d="M434.6,232.2c4.5-2.5,8.4-5.9,11.4-10.1"/>
	<path class="st0" d="M445.1,226.6c1.1-2.9,1.1-6.2,1.3-9.3s0.8-6.5,2.9-8.9c2.9-3.3,8-3.8,11.4-3.3c13.1-0.6,25.8-4.5,38.6-6.9
		c19-3.6,38.5-4.2,57.7-1.7c4.8,0.6,10.1,1.4,13.2-1.1c12.8-10.7,16.8-28.3,24.6-43.1c7.4-14.1,18.8-26.1,32.4-34.3
		c1.9-1.2,4-2.3,6.3-2c4.7,0.6,6.3,6.7,5.5,11.3c-2.3,12.2-13.6,20.9-16.5,33c-0.5,2.2-0.7,4.7,0.6,6.6c1.3,1.9,3.8,2.6,6.1,3
		c12.8,2.2,25.7-1,38.3-4.2c23.9-6.1,47.8-12.3,70.5-21.9c12-5.1,23.7-11.2,36.2-14.6c1.1-0.3,2.2-0.6,3.3-0.2
		c3.1,1,2.5,5.6,0.8,8.4c-5.3,9-14.7,14.6-23.6,19.9c-36,21.3-72.1,42.6-112.5,65.3c13.7,2,26.9-5.3,40.6-7.6
		c1.1-0.2,2.2-0.3,3.2-0.2c2.2,0.3,4,2,4.5,4.1c0.5,2.1-0.3,4.5-2,5.8"/>
	<path class="st0" d="M634,230c13.4,2,26.8-2.3,40.1-5c5.2-1.1,10.8-1.8,15.6,0.3c2,0.9,3.9,2.9,3.2,4.9"/>
	<path class="st0" d="M656.3,247.3c24.2-14.6,52.4-22.8,80.5-21.8c3.8,0.1,7.7,0.5,9.5,2.6c0.6,4.9-3.4,9.2-7.6,11.8
		c-10.3,6.4-23.2,7.6-33.5,13.9c-2,1.2-4,2.7-5,4.8c-1,2.1-0.9,4.9,0.8,6.5"/>
	<path class="st0" d="M351.7,394.7c4.9,2.7,6.5,9,10.3,13.1c4.6,5,11.8,6.4,18.5,7.4c2.4,0.4,5.1,0.6,6.7-1.2
		c1.2-1.4,1.1-3.5,0.3-5.1s-2.2-2.9-3.5-4.1c-2.1-1.9-4.2-3.7-6.3-5.6c-3.3-2.9-6.7-6-7.9-10.2"/>
	<path class="st0" d="M381.6,401.1c2.1,1.3,4.8,1.1,7.3,0.7c14.7-2.3,29.4-9.1,44-6"/>
	<path class="st0" d="M416.5,388.4c5.2,0.9,9.4,4.7,14.3,6.8c6.5,2.8,14.4,2.5,20.7-0.9"/>
	<path class="st0" d="M434.9,380.9c7.5,6,15.1,12.1,24.2,15.2c9.1,3.1,20,2.5,27.1-3.9"/>
	<path class="st0" d="M462.3,375.6c5.7,3.9,10.6,8.9,16.2,13s12.4,7.1,19.3,6.2c4.6-0.6,8.8-3,12.9-5.3"/>
	<path class="st0" d="M480.1,367.3c9.2,8.2,18.6,16.6,29.9,21.4c11.3,4.8,25.2,5.4,35.4-1.5"/>
	<path class="st0" d="M504.9,361.4c10.9,9.8,22.2,19.7,36,24.9c2.8,1,5.9,1.9,8.7,0.9s5-4.4,3.6-7"/>
	<path class="st0" d="M518.4,354c8.8,7.6,18.2,14.5,28,20.8c5.4,3.5,11.1,6.8,17.3,8c6.3,1.3,13.3,0.3,18.1-4.1"/>
	<path class="st0" d="M539.9,345.6c16,16.3,34.4,30.3,54.4,41.4c6.7,3.7,13.8,7.1,21.5,8.1c2.1,0.3,4.7,0.1,5.9-1.7
		c0.9-1.4,0.6-3.3,0-4.9c-1.8-5-5.4-9.2-8.9-13.1c-8.8-9.8-18-19.1-27.7-28"/>
	<path class="st0" d="M614.6,378.3c4.6,3.4,10.8,3.6,16.5,3.6c2.4,0,5.4-0.4,6.2-2.6c0.4-1.2,0-2.5-0.5-3.8
		c-6.5-16.6-18.9-30.1-32.2-42.1"/>
	<path class="st0" d="M612.7,340.9c11.4,12,24.7,22.4,39.1,30.5c2.7,1.5,5.5,3,8.5,3.2c3.1,0.2,6.4-1.1,7.7-3.9
		c0.8-1.9,0.6-4.1-0.1-6.1c-1.5-4.5-4.9-8-8.3-11.3c-8.8-8.6-18.2-16.6-28.2-25.4c4.9,3.6,10,6.7,15.5,9.2c5.2,2.3,10.7,4,16.2,5.6
		c4.6,1.3,9.3,2.7,14.1,2.2c1.7-0.2,3.5-0.6,4.8-1.8c2-1.7,2.4-4.7,1.8-7.2s-2.3-4.6-4.1-6.6c-6.7-7.3-15.5-12.5-25.1-14.9"/>
	<path class="st0" d="M666.5,360.7c5.4,2.4,11.5,3.4,17.4,2.8c1.8-0.2,3.8-0.6,5.3-1.6c3.2-2.3,3.7-7.2,2.1-10.8s-4.8-6.3-7.8-8.9"
		/>
	<path class="st0" d="M689.5,349.8c9.7,1.5,19.5,2.2,29.3,1.9c3.3-0.1,6.7-0.3,9.6-1.8c2.9-1.5,5.3-4.5,5-7.8
		c-0.2-2.2-1.5-4.1-2.8-5.8c-4.2-5.5-9.3-10.3-14.9-14.4c-3-2.1-6.1-4.1-8.5-6.8s-4.1-6.5-3.2-10"/>
	<path class="st0" d="M348.1,206.7c1.2-7.1,6.7-13.4,13.6-15.6c11.3-3.5,23.1,3.6,31.6,11.9c9.3,9.2,16.7,20.1,25.2,30
		c8.5,9.9,18.6,19.1,31,23.2"/>
	<path class="st0" d="M346.2,213.8c-0.2,3.3-0.5,6.7,0.4,9.9c0.9,3.4,2.9,6.3,5.1,9c7.2,8.6,17.4,14.6,28.3,16.7"/>
	<path class="st0" d="M374.7,238.4c7,19.6,23.4,35.1,42.3,44s40.1,11.8,61,11.6s41.6-3.2,62.3-5.7c11.6-1.4,23.4-2.6,35-1.6
		c11.7,0.9,23.4,4.1,33,10.8c5.4,3.7,10.5,10,7.6,16.5c-3.5,10.2-13.7,16.9-24.3,19.5s-21.5,1.6-32.3,1.3
		c-15.1-0.5-30.5,0.3-44.7,5.7c-8.6,3.3-16.5,8.3-24.6,12.6c-16.4,8.7-34,15-52.3,18.4c-4.9,0.9-9.8,1.7-14.4,3.5
		c-4.3,1.7-8.2,4.3-12.5,6c-9.2,3.7-19.5,3.2-29.4,2.6c-22.4-1.3-46.8-3.5-62.9-19"/>
	<path class="st0" d="M540.3,390.1c-1.2,3.1-2.3,6.9-0.2,9.4c1.2,1.4,3,2.1,4.8,2.4c6.5,1.3,13.4-0.4,18.7-4.4"/>
	<path class="st0" d="M537.5,400c-5.7,1.7-10.5,6-12.8,11.4c-0.9,2-1.4,4.1-1.7,6.2c-0.2,1.3-0.2,2.8,0.9,3.6c0.6,0.4,1.3,0.5,2,0.6
		c5.6,0.5,11.2,0,16.6-1.7"/>
	<path class="st0" d="M523.3,419.4c-6.2,2.2-11.8,6.2-15.9,11.4c-1.2,1.5-2.2,3.1-2.7,4.9s-0.2,3.9,0.9,5.4c1.2,1.5,3.3,2.1,5.2,2.3
		c2,0.1,3.9-0.2,5.9-0.1"/>
	<path class="st0" d="M506.8,436.7c-10.9,0.3-21.3,7.8-25,18.1c-0.9,2.4-1.4,5.1-0.3,7.5c1,2.3,3.4,3.8,5.9,4.3s5,0.3,7.5,0.1"/>
	<path class="st0" d="M484.5,457.5c-5.6-1.1-11.2,2-15.4,5.9c-3.5,3.3-6.4,7.3-7.4,12c-1,4.7,0.3,10,4,13"/>
	<path class="st0" d="M463,480c-7.1,0.2-14,4.2-17.8,10.3c-3.8,6.1-4.3,14-1.3,20.5"/>
	<path class="st0" d="M438.4,507.8c-6,2.7-11,7.6-14,13.5c-1.6,3.3-2.7,7-2.2,10.7c0.5,3.7,2.7,7.2,6,8.7"/>
	<path class="st0" d="M422.5,532.5c-6.5,5.4-11,12.9-12.9,21.1c-0.5,2.2-0.8,4.6,0,6.8c0.9,2.6,3,4.4,5.1,6.2"/>
	<path class="st0" d="M410.1,559c-3.5,0.2-6,3.5-7.8,6.6c-3.8,6.6-6.8,13.9-6.6,21.5c0.2,7.6,4.3,15.4,11.3,18.4"/>
	<path class="st0" d="M399.3,597.8c-2.9,1.3-4.9,4.1-6.1,7.1c-1.1,3-1.5,6.2-1.8,9.4c-0.4,4.3-0.8,8.6-0.6,12.8
		c0.1,2.8,0.5,5.6,1.7,8.1c2.4,4.8,8.3,7.6,13.6,6.5"/>
	<path class="st0" d="M393,637.3c-5,10.9-4.1,24.4,2.4,34.5c1.7,2.6,3.8,5.1,6.5,6.6c5.1,2.8,11.5,1.7,16.7-0.9"/>
	<path class="st0" d="M395.8,666.1c-2.2,1.1-3.7,3.3-4.3,5.7c-0.7,2.4-0.6,4.9-0.6,7.3c0.1,4.2,0.3,8.5,1.6,12.5
		c1.3,4,3.8,7.8,7.6,9.7c2.7,1.4,5.7,1.7,8.7,2"/>
	<path class="st0" d="M406.1,701.8c-2.4,2.7-3.5,6.3-3.7,9.9c-0.2,3.6,0.5,7.2,1.3,10.6c0.9,3.3,2,6.7,4.4,9.1
		c3.1,3.3,7.9,4.3,12.3,5.2"/>
	<path class="st0" d="M412.9,734.2c2.5,6.5,6.1,12.9,11.7,17.2s13.4,6,19.8,3"/>
	<path class="st0" d="M436,757.8c3,3.5,6,6.9,9.9,9.3c3.9,2.4,8.7,3.6,13,2.3"/>
	<path class="st0" d="M573.9,404.9c-23.5,23.2-47,46.4-70.5,69.6c-17.9,17.7-35.9,35.5-50.7,55.9c-14.8,20.4-26.4,43.6-29.9,68.6"/>
	<path class="st0" d="M418.6,629.5c-2.4,40.7,10.3,82.2,35,114.6"/>
	<path class="st0" d="M686.2,364.2c2.3,13-0.8,26.5-6.3,38.5c-5.6,12-13.5,22.7-21.4,33.3c-12.9,17.2-25.7,34.5-38.6,51.7
		c-16.1,21.6-32.9,45-34.1,71.9"/>
	<path class="st0" d="M694.5,353.7c1.5,11.2,3,22.5,4.5,33.7c0.5,3.5,0.9,7-0.1,10.4s-3.9,6.4-7.4,6.4"/>
	<path class="st0" d="M687.5,394c3.4,5.9,4.3,13.2,2.5,19.8c-1.8,6.6-6.2,12.4-12.2,15.9"/>
	<path class="st0" d="M674.8,421c3,6.9,5,14.9,2.6,22c-1.9,5.5-6.2,9.8-10.3,13.8"/>
	<path class="st0" d="M663.9,441.3c1.3,4.3,2.1,8.9,1.5,13.3c-1.1,7.8-6.5,14.2-11.6,20.1"/>
	<path class="st0" d="M648,462.9c2.5,5.2,2.8,11.4,1.5,17.1c-1.3,5.7-4,10.9-7.3,15.8c-0.9,1.3-1.8,2.6-3.1,3.5
		c-2.6,1.9-6.1,1.9-9.3,1.8"/>
	<path class="st0" d="M628.1,491.9c1.2,5.7,2.1,11.5,1.7,17.3c-0.5,5.8-2.4,11.6-6.3,15.9c-3.6,3.9-8.5,6.2-13.3,8.2"/>
	<path class="st0" d="M606.3,522.7c4.3,3.7,6.8,9.4,6.8,15s-2.8,11.3-7.2,14.9"/>
	<path class="st0" d="M600.1,541.8c5.1,3.7,7.4,10.3,7.4,16.6s-2.1,12.4-8.7,21c3.7-3,8.1-6,12.9-5.5c3.7,0.3,7,2.9,8.3,6.3"/>
	<path class="st0" d="M620.8,585.7c-1.1-2.2-0.7-5,0.6-7.2s3.3-3.7,5.6-4.8c1.8-0.9,3.8-1.5,5.8-1.3s4,1.1,5.1,2.9"/>
	<path class="st0" d="M652.6,550.4c-5.1,4.1-9.4,9.3-11.8,15.4c-2.4,6.1-2.8,13.1-0.5,19.2"/>
	<path class="st0" d="M663.8,531.4c-5.5,3.7-8.5,10.2-9.4,16.7c-0.9,6.5,0.3,13.2,1.7,19.6"/>
	<path class="st0" d="M673.8,499.1c-8.5,10.2-10.1,25.7-3.7,37.4"/>
	<path class="st0" d="M685.3,473.6c-1.3-1.2-3.5-0.7-4.8,0.6s-1.8,3-2.2,4.8c-2.2,8.9-2.9,18.5-0.1,27.2"/>
	<path class="st0" d="M698,454.8c-0.2-1-1.4-1.6-2.5-1.4c-1,0.2-1.9,0.9-2.7,1.6c-2.8,2.7-4.8,6.2-5.7,10c-1.6,7.3,1,14.9,0.7,22.4"
		/>
	<path class="st0" d="M713.7,419.5c-2-0.7-4.3,0.2-5.9,1.7c-1.5,1.5-2.4,3.6-3.1,5.6c-4.5,12.1-5.9,25.2-4.5,38"/>
	<path class="st0" d="M587,569.9c-2.5,8.4,1.1,18,7.7,23.7c6.6,5.8,15.8,8,24.6,7.4c15.7-1.1,29.8-10.8,39.7-23.1
		s16.3-26.9,22.5-41.4c10.8-25,21.6-50.1,32.4-75.1c13-30.2,26.5-61.1,49.3-84.9"/>
	<path class="st0" d="M782.3,329.5c-4.8-2.9-11.4-1-15.5,3s-6.1,9.4-7.9,14.8c-2.9,8.8-5.4,17.7-7.3,26.8"/>
	<path class="st0" d="M804.4,316.5c0.7-2.2-0.9-4.7-3.1-5.6c-2.2-0.8-4.7-0.3-6.8,0.7c-6.1,2.8-9.9,9.2-11.9,15.6
		c-2,6.5-2.5,13.3-4.2,19.8"/>
	<path class="st0" d="M839.1,299.8c-0.5-2.5-2.9-4.4-5.4-4.9c-2.5-0.5-5.2,0-7.7,0.7c-3.1,0.9-6.1,2.2-8.4,4.5c-2,2-3.3,4.5-4.5,7.1
		c-3.4,7.3-6.2,15-10.7,21.7"/>
	<path class="st0" d="M728.4,394.2c-2.7-2.9-7.8-1.6-10.2,1.5s-2.9,7.2-3.3,11.1c-1,9.9-1.9,19.8-2.9,29.6"/>
	<path class="st0" d="M751.9,363.1c-3.7-1.9-8.4-0.6-11.6,2s-5.2,6.5-6.7,10.4c-3.3,8.4-4.9,17.4-4.8,26.4"/>
	<path class="st0" d="M871.6,293c1.1-3.3-1.9-6.8-5.3-7.5c-3.4-0.7-6.8,0.7-9.9,2.4c-8,4.5-14.6,11.5-18.7,19.6"/>
	<path class="st0" d="M904.5,290.6c-1.9-6.6-9.8-10.7-16.3-8.5c-2.3,0.8-4.4,2.2-6.4,3.6c-5.5,3.9-11,7.8-16.5,11.7"/>
	<path class="st0" d="M936.6,291.2c-2-4.2-4.3-8.7-8.6-10.4c-3.5-1.4-7.6-0.4-11.1,1c-8.2,3.3-15.2,9-22,14.5"/>
	<path class="st0" d="M973.3,298.7c0-2.9-0.2-5.9-1.8-8.3c-1.8-2.5-5-3.7-8.1-4.1c-7.3-0.9-14.7,1.5-21.5,4.6
		c-6.7,3.1-13.2,6.8-20.3,8.9"/>
	<path class="st0" d="M1003.1,307.8c1.5-0.8,2-2.8,1.4-4.4s-1.9-2.8-3.3-3.7c-5.7-3.7-13.1-3.7-19.7-2.2s-12.8,4.4-19.4,6.3"/>
	<path class="st0" d="M1023,323.4c3.8-0.3,6.7-4.1,7-7.9c0.1-1.3,0-2.7-0.7-3.9c-0.9-1.5-2.7-2.4-4.3-3c-8.5-3.2-18.1-3.3-26.6-0.1"
		/>
	<path class="st0" d="M1046.6,343.2c1.8-0.8,3.8-1.6,5-3.2c1.7-2.2,1.4-5.5-0.1-7.9c-1.5-2.4-4-4-6.6-5c-7.8-3.1-16.6-1.9-25-0.7"/>
	<path class="st0" d="M1064.4,363c3.2-1,4.3-5.3,3-8.4c-1.4-3-4.4-5-7.5-6.4c-8.4-4.1-17.9-6-27.2-5.4"/>
	<path class="st0" d="M1075,385.4c3.9-1.9,5.7-7.3,3.6-11.1c-1.1-2.1-3.1-3.6-5.2-4.8c-6.2-3.7-13.4-5.7-20.7-5.6"/>
	<path class="st0" d="M1088.5,403.1c1.9-0.7,2.7-3.1,2.1-5s-2-3.4-3.5-4.7c-5.9-4.9-13.4-7.2-20.9-9.1"/>
	<path class="st0" d="M777,357.2c48.7-48.4,126.1-65.4,190.6-41.8c5.3,1.9,10.4,4.1,15.6,6.4c12.4,5.5,24.7,11.4,36,19
		c37.3,25.3,61.2,69.9,59.4,114.9c-1.8,42.9-25.1,81.8-51.6,115.6"/>
	<path class="st0" d="M1081.8,405.7c5.6,0.3,10.9,3.7,13.5,8.7s2.3,11.3-0.7,16c-0.7,1.1-1.6,2.2-2.8,2.6c-1.3,0.5-2.8,0.1-4.2-0.4"
		/>
	<path class="st0" d="M1081.8,431.2c4.4-0.4,8.1,3.5,9.8,7.5c1.6,3.6,2.1,7.8,1,11.6c-1.1,3.8-4.1,7.1-11.3,9.2
		c1.7-0.8,3.8,0.1,4.9,1.6c1.1,1.5,1.5,3.3,1.9,5.2c0.8,4.5,1.3,9.3,0.2,13.8c-1.1,4.5-3.9,8.8-11.4,9.6c3.6,3,5.8,7.6,5.9,12.3
		s-2,9.4-5.4,12.5"/>
	<path class="st0" d="M1069.6,511.8c4.5,3.9,6.8,10.1,6.1,16.1c-0.7,5-3.4,9.5-6,13.9c-0.8,1.4-1.8,2.8-3.2,3.7s-3.5,0.7-4.4-0.7"/>
	<path class="st0" d="M1056.9,535.2c3.5,5.6,6.4,11.9,6.4,18.5c-0.1,6.6-3.9,13.6-10.2,15.5"/>
	<path class="st0" d="M1046.6,554.2c2.6,5.1,5.2,10.4,4.8,16.1c-0.5,8-7.2,14.8-15,16.7"/>
	<path class="st0" d="M1030.2,575.9c3.1,3.6,5.7,8,5.9,12.8c0.2,4.8-2.7,9.9-7.3,11.1"/>
	<path class="st0" d="M489.4,697.3c-8.6-15.8-10.8-35.4-4.5-52.3c6.3-16.9,21.4-30.6,39.1-33.8c20.5-3.8,41,6,59,16.7
		c10.5,6.3,21,13.3,28,23.3"/>
	<path class="st0" d="M620,655c19.7,20.2,37.6,42.2,53.5,65.5"/>
	<path class="st0" d="M695,712.2c-5.5-18.1-2.5-38.1,5.1-55.5c7.6-17.4,19.3-32.6,35.6-49.1c2.7,0,5.4,0.8,7.6,2.2
		c-2.6,17-5.2,34.2-4.1,51.3c2,29.9,15.1,58.2,16.4,88.1c1,22.7-5,45.7-17.1,65"/>
	<path class="st0" d="M721.7,741.7c-0.2-3.5-0.1-7.7,2.8-9.6c2.5-1.7,6.1-0.8,8.2,1.3c2.1,2.2,2.9,5.3,3.1,8.2
		c0.5,6-1.2,12.2-4.9,16.9s-9.5,7.8-15.5,7.7c-1.6,0-3.3-0.3-4.6-1.1c-1.4-0.9-2.4-2.4-3.2-3.9c-3.3-6.2-5.5-13.2-4.9-20.2
		c0.6-7,4.2-13.9,10.3-17.4c6.9-4,16.1-2.9,22.4,1.9c6.3,4.8,9.8,12.8,9.8,20.8c0.1,7.9-3,15.7-7.8,22c-7.5,10-20.2,16.8-32.6,14.7"
		/>
	<path class="st0" d="M723.6,768.4c-7.5,4.5-16.9,4.8-25.4,2.7c-8.5-2.1-16.2-6.3-23.9-10.5c-22.5-12.3-45-24.7-67.5-37
		c-13.2-7.3-26.8-14.6-41.6-17.4c-22.6-4.2-46.2,2.5-68.9-0.9c-8.9-1.3-18.5-4.2-26.6-0.2c-6,3-10,9.8-9.6,16.5
		c0.4,6.7,5.1,13,11.4,15.3"/>
	<path class="st0" d="M462.9,732.1c-0.6,8.5,1.2,17.2,5.2,24.8"/>
	<path class="st0" d="M475.6,823.2c-4.2-6.5-5.7-14.5-5.5-22.2c0.2-7.8,2-15.4,4.3-23.8c5,1.8,9.6,4.7,13.6,8.6
		C482.3,798.7,476.6,812.2,475.6,823.2z"/>
	<path class="st0" d="M487.2,797.1c3-0.2,5.5-2.2,7.9-4.2c3.3-2.7,6.7-5.6,8.6-9.5c2.1-4.4,1.9-9.5,1.6-14.4"/>
	<path class="st0" d="M504.5,784.2c3.8-6.3,10.3-10.8,17.2-13.3s14.4-3.3,23.5-1.2c5.6,2.8,9.5,8.2,11.9,14c2.3,5.8,3.2,12.1,4,18.3
		"/>
	<path class="st0" d="M468.5,756.9c0.6-8,4.5-15.6,10.5-20.8"/>
	<path class="st0" d="M472.7,737.3c3.5,1.5,7.2,3,11.1,2.9c3.6-0.1,7.1-1.5,10.4-2.9"/>
	<path class="st0" d="M469.9,787.9c-3.9-8.2-1.4-18.4,4.2-25.6c5.6-7.2,13.9-11.8,21.6-14.5c11-5.6,20.5-14.1,27.4-24.4"/>
	<path class="st0" d="M583.7,756.8c-3.4,9.3,0.2,19.5,4.3,28.5c4.2,8.9,9.1,18.1,8.7,28c-0.5,10.9-8.4,21-21,24.5
		c1.1-4.2-0.8-9-6.4-10.3c-6.8,5.8-15.2,9.8-21.5,11.6c9,0.6,18.3,1.2,26.6-2.1"/>
	<path class="st0" d="M560.3,830.7c-2.7-5.3-2.3-11.7-0.2-17.2s5.9-10.3,10-14.6"/>
	<path class="st0" d="M512.6,736.4c-19-2.8-39,6.8-49.4,22.9s-10.9,37.9-1.8,54.9s27,28.5,46.1,30.5c19.1,2,38.8-5.5,52.2-19.2"/>
	<path class="st0" d="M752.2,721c6.6-3.5,10.7-10.3,14.4-16.9c30.3-54.5,49.5-114.3,71.2-172.7c4.5-12.2,9.1-24.3,14.8-36
		c4.6-9.6,9.9-18.9,17.5-26.4c7.5-7.5,17.4-13,28-13.4c7.6-0.3,15.6,2.3,20.4,8.2c6.8,8.5,5.1,20.9,1.1,31
		c-8.7,22.2-26.1,39.6-39.5,59.2c-5.5,8.1-10.3,16.5-14.9,25.2c-12.4,23.6-22.7,48.9-25.5,75.4c-2.7,26.6,2.7,54.7,19.2,75.8"/>
	<path class="st0" d="M858.5,737.8c5.2-3.2,3.7-11.1,1.8-16.9c-3-9.2-5.3-18.8-5-28.5c0.3-9.7,3.4-19.6,10.1-26.6
		c7.8-8.2,19.3-11.7,30.5-13.4c11.2-1.7,22.7-1.9,33.5-5.1c10.9-3.2,21.4-10.2,25.1-20.9c4.5-12.9-1.8-28.7,5.8-40.1
		c5.4-8,15.7-10.8,25.2-12.8"/>
	<path class="st0" d="M962.9,582.8c-7.7-9.8-8.1-23.7-5.8-36s6.9-24.2,8-36.7c1.2-13.7-2.1-27.9,0.5-38.5
		c7.5,0.8,12.9,7.3,16.5,13.9c15.7,28.2,13.8,63.7,29.7,91.7c5.4,9.5,12.7,17.9,17.8,27.6c13.7,26,9.5,58.5-3.5,84.9
		c-13,26.4-33.6,48.1-53.5,69.7c-5.3,5.8-10.7,11.8-13,19.3c-4.6,15,4.5,30.5,13.1,43.7"/>
	<path class="st0" d="M965.5,606.6c1.5-5,3.9-10.9,9.1-12c5.6-1.2,10.6,4.3,12.2,9.8c3.3,10.8-0.5,22.4-5.4,32.5
		c-6.9,14-16.7,27.4-31.5,34.3c-2,3.8-1.3,8.8,1.6,12c1.8,1.9,4.2,3,6.7,3.7c3.2,0.9,6.7,1.1,10,0.5c3.9-0.7,8-2.8,9.2-7.5
		c-3,7.7-5,15.7-6.2,23.8c-0.4,3.1-0.7,6.4,0.3,9.3c1,3,3.5,5.7,6.6,6"/>
	<path class="st0" d="M1035.2,672.3c16.7,1.1,32.9-8.5,42.4-22.2s12.8-31,12-47.7s-5.6-32.9-11.1-48.7c-1.9-5.6-4-11.5-2.9-17.3"/>
	<path class="st0" d="M1116.1,386c-6.3,0.2-12.6,3.1-16.8,7.8s-6.3,11.3-5.7,17.6"/>
	<path class="st0" d="M1122.2,430.3c1.9-14.3,1.8-28.8-0.2-43c-1-7.2-2.6-14.5-2.2-21.8c0.4-7.3,3.2-14.9,7.7-19
		c4.6,2.2,8.5,5.7,11.5,9.8c3.8,5.2,6,11.7,5.3,18.1"/>
	<path class="st0" d="M1137.1,416.8c10.2-18.8,2.1-43.6,12.4-62.3c5-9,13.5-15.3,20.7-19.8c7.1,2.3,12,9.2,13.4,16.5
		c1.5,7.3-0.1,14.9-2.7,21.9c-4.6,12.2-12.4,23.2-22.6,31.4"/>
	<path class="st0" d="M1181.9,367.3c7-4.8,14.7-8.8,22.7-11.5c11.3-3.8,23.2-5.2,36.3-5.3c1.1,4.5-0.2,9.3-2.6,13.2s-5.9,7-9.5,9.9
		c-16.3,13.5-34.8,24.3-54.5,31.8"/>
	<path class="st0" d="M1208,388.4c8.1,5.7,17.4,9.7,27.2,11.7c2.4,0.5,5.2,1.1,7.2,5.6c-1.6,3.9-5.3,6.5-9.3,7.9
		c-4,1.3-8.2,1.5-12.4,1.8c-17.4,1.1-34.8,3.5-51.9,7.2"/>
	<path class="st0" d="M1208,416.7c5.4,4.6,10.7,9.1,16.1,13.7c1,0.8,2,1.7,2.3,2.9c0.5,1.8-0.6,3.7-2.2,4.7c-1.6,1-3.5,1.2-5.4,1.4
		c-12.9,1.1-26,0.5-38.7-1.7c-8.9-1.5-18.3-3.9-26.9-1.1"/>
	<path class="st0" d="M959.7,782.3c2.7,9.5,11.2,16.1,19.8,20.8c34.2,18.9,76.6,18.2,114,6.8c4.3-1.3,8.8-3,11.3-6.7
		c2.5-3.7,1.5-10-2.9-11.1"/>
	<path class="st0" d="M1108.2,799.4c6-1.5,12.3-3.2,16.9-7.4c4.6-4.2,6.7-11.8,3-16.7"/>
	<path class="st0" d="M1131.2,782.4c4.3-1.3,9.2-3.2,10.7-7.5c0.6-1.7,0.6-3.5,0.4-5.2c-0.3-3.1-1.1-6.2-2.3-9"/>
	<path class="st0" d="M1144.7,769.5c7.1-1.7,12.3-9.4,11.2-16.6s-8.4-13-15.7-12.3"/>
	<path class="st0" d="M1158.9,754.3c4.7-4.7,9.4-10.6,8.5-17.1c-0.7-5.4-5-9.5-9.5-12.5"/>
	<path class="st0" d="M1168.8,737.8c6.1-5.3,10.4-14,7.7-21.7c-1.8-4.9-6-8.4-10.1-11.7"/>
	<path class="st0" d="M1179.1,714.3c3.2-5.6,6.6-11.4,6.9-17.8c0.3-6.4-3.4-13.6-9.7-14.8"/>
	<path class="st0" d="M1188.5,668.6c3.3-4.3,4.1-10.3,2.1-15.3c-2-5-6.7-8.8-12-9.7"/>
	<path class="st0" d="M1188.1,647.6c2.4-4.5,4.9-9.6,3.1-14.4c-2-5.3-8.2-7.5-11.5-12.1"/>
	<path class="st0" d="M1189.3,631.5c1.3-6,2.6-12.4,0.7-18.3s-8.1-10.9-14.1-9.1"/>
	<path class="st0" d="M1187.9,608.3c2.1-4.8,4.2-10.2,2.4-15.1c-2-5.7-8.3-8.5-13.9-10.7"/>
	<path class="st0" d="M1181.8,585.2c3.1-3.5,3.3-8.9,1.4-13.2s-5.4-7.6-9.2-10.5"/>
	<path class="st0" d="M1177.1,563.8c3.3-3.7,3-9.6,0.4-13.8s-7-6.9-11-11.2c2.1-2.5,4.4-5.5,3.8-8.7c-0.4-1.9-1.7-3.4-3.1-4.8
		c-3.2-3.1-7.1-5.5-11.3-6.9"/>
	<path class="st0" d="M1163,522.8c1.6-4.4,0.2-9.5-2.9-13s-7.6-5.5-12.1-6.5"/>
	<path class="st0" d="M1157.2,506.6c-0.3-4-0.7-8.1-2.8-11.4c-1.5-2.4-3.8-4.2-6.1-5.8c-3.1-2.2-6.3-4.1-9.6-5.8"/>
	<path class="st0" d="M1178.1,437.6c3.5,5.2,4.2,12.2,1.8,18.8c-4.2,2.4-9.3,2.4-14.1,1.6c-4.8-0.8-9.5-2.2-14.3-2.4
		c-3.2-0.1-6.7,0.4-8.7,2.9c-0.9,1.2-1.4,2.7-1.8,4.2c-0.8,2.6-1.5,5.3-1.3,8c0.2,2.6,1.4,5,2.5,7.3c1.6,3.3,3.2,6.7,4.8,10"/>
	<path class="st0" d="M1133.4,459c-0.7,19.9,7.2,38.9,14.1,57.6c8.6,23.3,15.8,47.1,21.4,71.3c2.2,9.3,4.2,18.7,5.2,28.2
		c3.3,30.5-3.7,62-19.4,88.3"/>
	<path class="st0" d="M1068,793.8c29.6-14.1,54.9-37.2,71.6-65.4"/>
	<path class="st0" d="M957.9,686.7c-19.4,26.7-28.7,60.2-50.5,85"/>
	<path class="st0" d="M823.7,753.4c2.7-4.5,5.5-9.1,9.4-12.7c3.8-3.6,9-6.2,14.2-5.9c3.8,0.2,7.3,1.9,10.7,3.6
		c9.5,4.8,18.7,10.2,28.8,13.5s21.3,4.5,31.2,0.7"/>
	<path class="st0" d="M820.8,768.4c-2.9-6.6,1.6-14.7,8.2-17.7c6.5-3,14.3-2,21,0.5c6.8,2.5,13,6.3,19.7,8.9
		c12.1,4.7,25.5,5.2,38.3,3.3"/>
	<path class="st0" d="M829.4,782c-3.3-1.3-6.3-3.6-8.3-6.6s-2.8-6.8-1.9-10.3"/>
	<path class="st0" d="M900.9,773.3c-13.4,1.9-27-0.3-40.6-0.7c-8.3-0.2-16.9,0.4-24.2,4.4c-7.2,4-12.6,12.4-10.9,20.5"/>
	<path class="st0" d="M827,804.5c-0.4,2.9,2.2,5.2,4.8,6.5c6.4,3.3,14,3.7,21.2,3c7.2-0.7,14.3-2.5,21.4-3.4
		c15.2-1.9,30.6,0.3,45.8,2.7c5.8,0.9,11.7,1.8,17.2,3.6c12.5,4,23.8,12.5,36.9,13.1"/>
	<path class="st0" d="M825,792.1c-7.3,9.2-14.2,18.7-20.7,28.6c4.7,0.7,9.6-0.1,14.1-1.6s8.8-3.8,13-6.1"/>
	<path class="st0" d="M818.5,767.8c-6.4,9.3-11.1,19.8-14,31.3c8.5-3,14.9-9.7,21.1-16.2"/>
	<path class="st0" d="M977.2,718.3c9.2-2.8,16.8-10.2,20.1-19.2"/>
	<path class="st0" d="M994.9,585.2c5.5,3.1,9.2,8.7,11.1,14.6s2.3,12.3,2.3,18.5c0.2,21.4-2.7,42.8-8.6,63.4"/>
	<path class="st0" d="M379.7,229.9c2.3,1,5.1-0.2,6.4-2.3c1.3-2.1,1-4.9-0.2-7c-0.9-1.5-2.4-2.7-4.1-3c-2.1-0.4-4.1,0.5-6,1.4
		c-2.1,0.9-4.1,1.9-6.2,2.8c-1.9,0.9-3.9,1.7-6,1.6"/>
	<path class="st0" d="M360.5,215.9c2.2-1.3,4.2-2.9,5.9-4.7c0.9-1,1.8-2.1,2.3-3.3s0.4-2.8-0.4-3.9c-0.8-1.1-2.3-1.6-3.7-1.5
		s-2.7,0.7-3.9,1.5"/>
	<path class="st0" d="M318.1,350.4c7.1,5.7,15.4,10,24.1,12.6c16.9,5.1,34.9,3.8,52.4,2.4"/>
	<path class="st0" d="M582.9,772.8c21.2,3,38.7,17.5,55.1,31.1c16.5,13.7,34.5,27.7,55.9,29.3c16.6,1.3,33.7-5.7,44.7-18.2"/>
	<path class="st0" d="M325.3,338c0-2.4-2.6-4.3-4.9-3.6c-1,0.3-1.8,0.9-2.6,1.5c-2,1.5-4.2,2.6-6.5,3.4"/>
	<path class="st0" d="M318,343.8c16.8,12.2,37.6,18.7,58.3,18.3"/>
	<path class="st0" d="M1182.4,664.1c5.4,2.4,9.3,7.8,9.9,13.7c0.6,5.9-2.2,11.9-7.1,15.3"/>
</g>
<g id="Layer_3">
	<path class="st0" d="M650.3,169.8c41.6-7.7,82.1-21.3,120-40.2"/>
	<path class="st0" d="M569.1,197c11.4-13.6,18.8-30.2,28.1-45.3c9.3-15.2,21.6-29.7,38.4-35.6"/>
	<path class="st0" d="M636.5,119.6c1.6,7.6-1.9,15.3-5.8,22.1s-8.2,13.7-8.6,21.5"/>
	<path class="st0" d="M578.1,214c19-11.5,37.5-23.7,55.6-36.5"/>
	<path class="st0" d="M583.9,229.7c23.7-10,38.5-34,60.6-47.3"/>
	<path class="st0" d="M634.5,176.3c3.1-1.9,6.4-3.5,10-3.9c3.6-0.4,7.5,0.8,9.7,3.7c2.5,3.4,2,8.1,1.1,12.2
		c-2.6,11.7-7.7,22.7-12.6,33.6"/>
	<path class="st0" d="M777.6,136c-7.5,10.4-17.6,18.7-28.4,25.6s-22.4,12.5-33.8,18.4c-22.5,11.5-44.5,24.1-65.8,37.6"/>
	<path class="st0" d="M642.5,223.4c12.3,1,23.9-5.7,36-8.1c2.2-0.4,4.5-0.8,6.8-0.3s4.4,1.8,5.3,3.9s0.2,4.9-1.8,5.9"/>
	<path class="st0" d="M633.3,232.5c16.7-2.7,33.3-5.4,50-8.1c2-0.3,4-0.6,5.9,0c1.9,0.7,3.4,2.7,2.8,4.6"/>
	<path class="st0" d="M587.9,230.6c15.7-10.3,29.7-23.2,41.4-38"/>
	<path class="st0" d="M657.6,248c23.7-15.5,52.1-23.7,80.4-23c3.8,0.1,8.5,1,9.5,4.7"/>
	<path class="st0" d="M703,267c-2-1.6-2.6-4.6-1.8-7.1s2.7-4.5,4.8-6c6.5-4.8,14.9-5.9,22.7-8.1s16.1-6.2,18.8-13.8"/>
	<path class="st0" d="M660.4,247.8c25.1-14.1,53.8-21.6,82.5-21.6"/>
	<path class="st0" d="M642.4,185.5c0.7-1.3,1.4-2.7,2.6-3.6c1.2-0.9,3-1.2,4.1-0.3c1.7,1.3,1.1,3.9,0.4,5.9
		c-4.3,11.6-9.1,23-14.5,34.1"/>
	<path class="st0" d="M666.2,277c19.9-1.4,39.9-0.6,59.6,2.4c3.4,0.5,7,1.2,9.6,3.6"/>
	<path class="st0" d="M705.5,293c9.7-0.6,19.2-3.9,27.1-9.4"/>
	<path class="st0" d="M662,265c27-3.2,54.6,0.6,80.3,9.4c2.5,0.9,5,1.8,7,3.5c2,1.7,3.4,4.3,3,6.9c-0.6,3.5-4.2,5.6-7.4,7.1
		c-9.3,4.2-19.2,7.2-29.2,8.9"/>
	<path class="st0" d="M701.9,306.7c2.1,6.7,8,11.3,14,15.1s12.3,7.2,16.3,13c2.3,3.2,3.6,7.5,2.2,11.1c-1.2,3-4,5-7,6
		s-6.3,1-9.5,0.9c-8.8-0.3-17.6-1.4-23.3-2.3c-2.1,6-0.7,12.7,1.4,18.7s4.7,12,5.1,18.4s-2.2,13.5-7.9,16.2"/>
	<path class="st0" d="M686.5,364.7c-0.4,27.5-14.5,53.1-31.2,75s-36.4,41.6-51.2,64.9c-14.7,23.3-24.3,51.7-17.6,78.5"/>
	<path class="st0" d="M688,395.4c3.2,12.2-0.4,26-9.2,35"/>
	<path class="st0" d="M666.1,457.7c5.2-4,8.9-9.9,10.3-16.2s0.6-13.2-2.4-19.1"/>
	<path class="st0" d="M662.7,442.1c2,13.5-4,27.9-15,36"/>
	<path class="st0" d="M647.2,463.5c0.6,8.2,1.2,16.6-1.5,24.4s-9.3,14.8-17.5,15.2"/>
	<path class="st0" d="M626.3,491.9c1.6,5.9,3.1,11.8,3.2,17.9c0.1,6.1-1.5,12.4-5.5,17c-2.1,2.3-5.2,4.2-8.1,3.4"/>
	<path class="st0" d="M604.9,522.6c4.5,3.1,7.5,8.2,7.9,13.6s-1.7,11-5.6,14.7"/>
	<path class="st0" d="M600.7,544.2c5.3,4.6,6.8,12.6,5.3,19.5s-5.6,13-10,18.5"/>
	<path class="st0" d="M581.3,567.9c0.8-18.5,7.5-36.4,16.9-52.4c9.4-16,21.2-30.4,33.1-44.6"/>
	<path class="st0" d="M687.6,368.1c-8.8,41.3-35.7,76-61.7,109.2"/>
	<path class="st0" d="M584.3,394.4c-36.6,32.4-71.3,67-103.8,103.5"/>
	<path class="st0" d="M528.9,222.5c5.8-2.6,12.3-3.4,18.5-2.4c3.1,0.5,6.4,1.6,8.1,4.4c1.4,2.2,1.2,5.1,0.3,7.6
		c-1,2.4-2.7,4.5-4.5,6.4c-5.2,5.5-11.2,10.1-17.9,13.7"/>
	<path class="st0" d="M523.1,212.5c10.9-2.5,22.3-3.2,33.4-2c4.4,0.5,9.1,1.3,12.4,4.3c4.3,3.9,5.2,10.6,3.5,16.1
		c-1.7,5.5-5.7,10.1-9.8,14.2c-4.2,4.1-8.7,7.8-12.1,12.5"/>
	<path class="st0" d="M570.2,196.4c-36.1-2.9-72.8,0.7-107.6,10.5"/>
	<path class="st0" d="M446.1,228c1.3-3.8,1-7.9,1.3-11.9c0.4-4,1.7-8.2,5.1-10.4c4-2.5,9.3-1,13.8,0.5"/>
	<path class="st0" d="M446.7,219.2c-3.1,5.3-7.9,9.6-13.5,12.2"/>
	<path class="st0" d="M486.3,204.6c-11.2,3.8-22.4,9.3-29.4,18.8c-2.2,3-4,6.9-2.6,10.4c1,2.5,3.6,4.1,6.2,4.8s5.4,0.4,8.1,0.2"/>
	<path class="st0" d="M505.1,216.5c-5-1.4-10.4-0.9-15,1.4c-2.2,1.1-4.5,3.3-3.7,5.7c0.6,1.7,2.5,2.4,4.1,3
		c12.9,4,26.7,5.1,40.1,3.1"/>
	<path class="st0" d="M468.9,239.6c8.1-3.3,17.2-2.8,25.8-1.3s17.2,3.7,25.9,3.7c8.7,0,18-2.6,23.6-9.4"/>
	<path class="st0" d="M461.2,253c5.5-8.3,15.6-13.1,25.5-12.2c3.6,0.3,7.6,1.8,9,5.2c1.1,2.7,0.1,5.9-1.7,8.2
		c-1.9,2.3-4.4,3.8-7,5.3"/>
	<path class="st0" d="M503.5,242.8c0.7,3.9-0.2,8.1-2.5,11.3c-2.3,3.2-5.9,5.5-9.8,6.2"/>
	<path class="st0" d="M524.5,244.2c-6.4,1.1-11.8,5.3-16.7,9.6c-4.9,4.3-9.7,8.9-15.8,11.4"/>
	<path class="st0" d="M504.9,243.2c-0.2,8.6-7.3,16.5-15.8,17.7"/>
	<path class="st0" d="M494,271.8c-1.7-4.3-5.4-7.6-9.4-9.7c-4.1-2.1-8.6-3.3-13.1-4.4c-8.6-2.1-17.2-4.2-25.8-6.3"/>
	<path class="st0" d="M463.3,255.8c-9.2-15.9-27.2-26.4-45.6-26.4"/>
	<path class="st0" d="M454.6,255.3c-13.8-2.2-25.5-11.3-35-21.6c-9.5-10.3-17.4-21.9-27.6-31.5c-6.5-6.1-14.5-11.6-23.5-11.9
		c-9-0.4-18.6,6.1-19,15.1"/>
	<path class="st0" d="M344.5,214.1c-1.9,8.6,3,17.6,9.8,23.2c6.9,5.6,15.5,8.4,23.8,11.1"/>
	<path class="st0" d="M388.5,238.6c19.9,23.4,50.4,37.5,81.1,37.4c20.5,0,40.5-6,60.6-10.2c20.1-4.2,41.4-6.7,60.8,0
		c23,8,41.2,28.2,65.3,31.9"/>
	<path class="st0" d="M363.3,225.4c5.6-2.4,11.2-4.9,16.9-7.3c1.5-0.6,3.2-1.3,4.7-0.5c2.1,1.1,1.9,4.2,1.3,6.6"/>
	<path class="st0" d="M441.6,252.7c-15.7-13.8-30.5-28.6-44.3-44.4c-6-6.9-12.2-14.2-20.8-17.1c-11.3-3.8-25,2.2-30,13.1"/>
	<path class="st0" d="M320.4,212.9c-2.7,6.7-1.1,14.5,2.6,20.6s9.4,10.8,15.2,15.1"/>
	<path class="st0" d="M348,252.6c27,24.6,60.4,43.2,96.6,48.3c49,7,100.3-10.6,147.7,3.7"/>
	<path class="st0" d="M592.5,309.3c-6.2,6.5-16.4,5.9-25.3,6c-26.8,0.4-52.1,11.4-76.7,21.8c-24.6,10.5-50.4,20.7-77.1,19.5"/>
	<path class="st0" d="M372.8,238.4c8,20.9,26,36.9,46.4,46s43.2,11.6,65.6,11.2s44.5-3.8,66.7-6.2c19.5-2.1,40.6-3,59.4,10.7
		c3.9,3.4,4.8,9.4,3.1,14.2c-1.7,4.9-5.6,8.7-9.9,11.5c-11.8,7.8-26.8,8.9-40.9,8.7c-14.2-0.2-28.6-1.6-42.2,2.1
		c-13.6,3.7-25.4,12-38,18.4c-17.8,8.9-37.2,13.8-56.5,18.6"/>
	<path class="st0" d="M415,378.5c-28,5.3-57.3,3.4-84.4-5.3"/>
	<path class="st0" d="M393.1,366.8c-26,2.5-52.8-2.6-76-14.6"/>
	<path class="st0" d="M316.3,341c14.7,14.2,35.4,21.8,55.8,20.5"/>
	<path class="st0" d="M325,340.8c0.7-1.3,1.4-2.6,2.5-3.6s2.6-1.6,4-1.1c2.4,0.7,3.1,3.7,3.9,6.1c1,3,2.8,5.8,5.2,7.9"/>
	<path class="st0" d="M362,354.4c1.5-2.4,4-4,6.8-4.6c2.8-0.5,5.7,0.1,8,1.8c2.7,2,4.4,5.2,7.3,6.8"/>
	<path class="st0" d="M339.5,348c2.7-0.4,5.1-1.8,7.6-2.8c2.5-1,5.3-1.7,7.8-0.7c2.1,0.8,3.6,2.6,4.8,4.6s2.1,4,3.5,5.8"/>
	<path class="st0" d="M384.2,358.8c3.3-1.7,5-5.5,5.9-9.1c0.9-3.6,1.2-7.5,3-10.7c0.4-0.7,0.9-1.4,1.7-1.7c1.1-0.4,2.2,0.4,3.1,1.2
		c3,2.9,4.6,6.9,6.5,10.7s4.2,7.6,8,9.4"/>
	<path class="st0" d="M568.3,286.4c-29.8,4.8-59.8,8.2-89.9,10.2"/>
	<path class="st0" d="M552,260.4c-26.5,5.8-53.1,11.6-79.6,17.5"/>
	<path class="st0" d="M569.5,260c24.2,6.6,47.2,17.2,67.9,31.4"/>
	<path class="st0" d="M407.6,259.6c14.1,8,29.4,13.6,45.3,16.6"/>
	<path class="st0" d="M526.8,304.9c-21,3.6-42.1,7.3-63.5,7.4c-21.3,0.1-43.1-3.6-61.8-13.8"/>
	<path class="st0" d="M402.7,342.3c13.8,4,28.6,2.5,42.6-0.9s27.3-8.9,41.1-12.9c12.5-3.7,25.9-6.6,35.9-15.1"/>
	<path class="st0" d="M390,341.8c-38-1.8-69.7-27-107-31.9c-10.1-1.3-20.5-1.1-30.3,1.5"/>
	<path class="st0" d="M298.8,343.4c-5.3-5.3-12.3-8.6-19.4-11.1c-7.1-2.5-14.4-4.4-21.3-7.3c-2.2-0.9-4.4-2-5.9-3.8
		c-1.5-1.8-2.2-4.5-1.1-6.6"/>
	<path class="st0" d="M365.3,410.9c-22.5-2.3-44.6-8.8-64.8-19c-6.9-3.5-14.1-8.1-16.4-15.5c-1.7-5.6-0.1-11.8,3-16.8
		c3.1-5,7.5-9,11.8-12.9"/>
	<path class="st0" d="M350.9,394.6c6.9,3.9,9.5,12.8,16,17.4c6.5,4.6,15.2,3.8,23.2,2.9"/>
	<path class="st0" d="M369,389.4c3.9,8.8,13.2,13.7,19.5,20.9c0.8,1,1.6,2.1,1.6,3.3s-1.4,2.5-2.5,1.9"/>
	<path class="st0" d="M379.3,400.5c1.8,2.3,5.2,2.1,8,1.6c7-1.3,13.7-3.9,20.6-5.6s14.2-2.6,21.1-0.7"/>
	<path class="st0" d="M417,388.3c6.4,2.6,12.5,6.3,19.1,8.2c6.7,2,14.4,2,20-2.2"/>
	<path class="st0" d="M435.9,381.6c7.4,5.4,14.9,11,23.6,13.9c8.7,2.9,18.9,2.8,26.4-2.5"/>
	<path class="st0" d="M461.4,376.8c6.5,6.1,13.2,12.4,21.5,15.9s18.5,3.7,25.6-1.8"/>
	<path class="st0" d="M480.9,369c14,18,39.2,26.4,61.2,20.3"/>
	<path class="st0" d="M504.7,362.9c10.3,12.7,25.2,21.6,41.3,24.5c1.9,0.3,3.9,0.6,5.5-0.4c1.6-1,2.3-3.6,0.8-4.7"/>
	<path class="st0" d="M518.1,354.8c11.3,8.3,23.1,16,35.3,22.8c4.2,2.3,8.5,4.6,13.2,5.3c4.7,0.7,10-0.4,13.1-4"/>
	<path class="st0" d="M541,347.7c20.6,21.1,46,37.5,73.6,47.8"/>
	<path class="st0" d="M584.4,350c14.4,7,26.4,18.9,33.6,33.3c1.2,2.3,2.2,4.8,1.8,7.4s-2.8,4.9-5.3,4.3"/>
	<path class="st0" d="M616.5,378.9c3.6,1.9,7.7,2.9,11.8,2.9c2.5,0,5.2-0.5,6.9-2.3c1.5-1.6,1.9-4,1.6-6.1c-0.3-2.2-1.3-4.2-2.3-6.1
		c-3.4-6.2-7.6-12-12.5-17.1"/>
	<path class="st0" d="M628.6,357c7.8,6.7,16.7,12.1,26.3,15.9c2.3,0.9,4.7,1.7,7.2,1.7c2.5-0.1,5-1.2,6.2-3.4
		c0.9-1.7,0.8-3.7,0.5-5.6c-1.1-6-4.4-11.3-8.5-15.7c-4.2-4.4-9.1-7.9-14-11.5c-4.3-3.1-8.7-6.2-13-9.3"/>
	<path class="st0" d="M651.1,314.5c10,2.1,19.4,7.2,26.7,14.5c1.9,1.9,3.7,4,4.6,6.6c0.9,2.5,0.7,5.6-1,7.7c-2.3,2.7-6.4,2.9-10,2.5
		c-13.5-1.4-26.4-7.2-36.4-16.4"/>
	<path class="st0" d="M655.6,313.6c9.2,0.4,18.3,0.8,27.4-0.5s18.1-4.2,25.2-10c1.4-1.1,2.8-2.5,3.5-4.2s0.2-4-1.5-4.9
		c-12.1,4.1-26,2.7-37.1-3.8c-9.5-5.5-17.3-14.7-28.1-16.6"/>
	<path class="st0" d="M611.8,273.3c12.9-2,25.5-6.4,36.8-12.9"/>
	<path class="st0" d="M603.5,251.4c12.3-1.3,24.6-1.8,37-1.6c4.3,0.1,9.4,0.6,11.7,4.3"/>
	<path class="st0" d="M568.3,248.2c16.3-10.8,33.9-19.5,52.4-25.8"/>
	<path class="st0" d="M624.3,225.1c-6.9,15.4-19.5,28.1-34.7,35.4"/>
	<path class="st0" d="M539.2,391c-2.3,1.8-2.7,5.6-0.8,7.8c1.6,1.8,4.2,2.3,6.5,2.4c7.4,0.5,14.9-1.2,21.4-4.8"/>
	<path class="st0" d="M538.9,398.8c-6.7,2.3-12.3,7.4-15.3,13.8c-1.2,2.6-1.9,6,0.1,8c1,1,2.4,1.4,3.8,1.7c6,1.2,12.4-0.2,17.4-3.7"
		/>
	<path class="st0" d="M523.6,418.4c-6.3,1.6-12,5.5-15.8,10.8c-1.1,1.5-2.1,3.2-2.5,5.1s-0.2,3.9,0.8,5.5c1.8,2.8,5.6,3.4,8.9,2.9
		c3.3-0.5,6.4-1.9,9.7-2.1"/>
	<path class="st0" d="M504.2,436.5c-8,1.7-15.2,6.9-19.3,13.9c-1.8,3.1-3.1,6.8-2,10.2c0.9,3,3.5,5.2,6.5,6.2c2.9,1,6.2,0.7,9.1-0.2
		"/>
	<path class="st0" d="M482.5,456.8c-5.5,1-10.8,3.2-15,6.9s-7.1,8.9-7.4,14.4c-0.2,3,0.4,6.1,2.2,8.6s4.8,4.1,7.8,3.7"/>
	<path class="st0" d="M460.1,480.5c-5.1,1.5-9.9,4.4-13.6,8.3c-2.7,2.8-5,6.3-5.7,10.1c-0.8,3.9,0.2,8.2,3,10.9
		c2.8,2.8,7.6,3.5,10.8,1.3"/>
	<path class="st0" d="M441.2,507.5c-7.2,2.6-13.3,8-16.8,14.8c-1.4,2.8-2.5,6-2.3,9.1s1.5,6.4,4.1,8.2c2.6,1.8,6.5,1.9,8.8-0.2"/>
	<path class="st0" d="M422,532.6c-7.1,3.8-12,11.6-12.5,19.7c-0.2,3.2,0.3,6.5,2,9.2c3.1,4.9,10.2,6.7,15.3,3.9"/>
	<path class="st0" d="M408.7,558.2c-6.9,6.5-11.3,15.5-12.1,25c-0.5,6.2,0.6,12.7,4.6,17.4c4,4.7,11.4,6.8,16.6,3.5"/>
	<path class="st0" d="M397.4,598.2c-6.2,9.1-9.1,20.5-7.9,31.5c0.6,5.3,2.7,11.2,7.7,13c4.4,1.6,9.2-0.8,13.3-3"/>
	<path class="st0" d="M394.7,636.2c-1.5,5.4-3,10.8-3.5,16.4c-0.5,5.6,0,11.3,2.4,16.4c2.4,5,6.8,9.3,12.2,10.7
		c5.4,1.4,11.7-0.6,14.8-5.3"/>
	<path class="st0" d="M394,666.1c-4.8,5.5-7,13.2-5.5,20.4c1.4,7.2,6.3,13.5,12.9,16.8c4.3,2.1,10,2.7,13.5-0.6"/>
	<path class="st0" d="M406.4,699.7c-2.8,5.7-5.1,11.8-5.1,18.2c0,6.3,2.6,13,8,16.4s13.5,2.6,17-2.7"/>
	<path class="st0" d="M412.9,732.8c1.3,8.7,6.2,17.2,13.9,21.4c7.8,4.2,18.3,3.4,24.5-2.9"/>
	<path class="st0" d="M435.5,758.1c1.6,4,4.8,7.5,8.7,9.3c3.9,1.9,8.6,2.2,12.7,0.9"/>
	<path class="st0" d="M420,629.1c-0.2,21.6,0.7,43.4,6.5,64.2c5.8,20.8,16.7,40.7,33.7,54"/>
	<path class="st0" d="M555.4,421.8c-30.4,27.3-58.7,56.9-84.6,88.4c-21.2,25.8-41.5,54.6-46,87.7"/>
	<path class="st0" d="M423.1,606.3c-3.2,16.7-4.1,33.9-2.6,50.9"/>
	<path class="st0" d="M542.1,353.2c13,10.3,26,20.6,39.1,30.9"/>
	<path class="st0" d="M572.6,375.7c10.3,10.7,24.1,18,38.8,20.4"/>
	<path class="st0" d="M581.6,381.2c9.8,5.6,20.1,10.4,30.7,14.4"/>
	<path class="st0" d="M521.2,357.3c13.9,12.4,30.2,22,47.7,28.3"/>
	<path class="st0" d="M629.1,358.3c9.3,7.4,19,15,30.5,17.6c3.3,0.8,7,1,10-0.4c3.1-1.5,5.3-5.1,4.2-8.4"/>
	<path class="st0" d="M683.1,377.6c1.4-4.4,2.8-8.9,4.2-13.3c-3.8,27.8-17.8,53.2-34.3,76s-35.6,43.5-51.4,66.6
		c-8.2,11.9-15.6,24.7-18.9,38.7s-2.2,29.7,5.8,41.7"/>
	<path class="st0" d="M624.8,170.5c51.1-2.6,101.5-17.4,145.8-42.8"/>
	<path class="st0" d="M663.7,170.6c31.2-6.9,61.5-17.8,90-32.3"/>
	<path class="st0" d="M462.7,253.5c4.7-6.8,12.5-11.3,20.7-12c4.1-0.4,8.9,0.6,11,4.2c1.7,3,0.8,6.9-1.2,9.7c-2,2.8-5,4.7-7.9,6.5"
		/>
	<path class="st0" d="M485.4,206.2c-9.7,3.4-18.6,8.9-26,16.1c-3.1,3-6.2,7.4-4.4,11.4c1,2.3,3.5,3.6,6,4.1c2.5,0.4,5,0.1,7.5-0.2
		c10.3-1.1,20.8-0.8,30.9,1.1c6.6,1.2,13.2,3,19.9,3.2s13.9-1.5,18.5-6.4"/>
	<path class="st0" d="M523.8,245.7c-9.5,3.6-18.1,9.3-25.1,16.6"/>
	<path class="st0" d="M552,831.2c-14.2,14-36.1,19.6-55.3,14.2s-34.9-21.7-39.7-41s1.5-41,15.9-54.8c10.5-9.1,24.4-14.3,34.9-12
		c-18.4-1.3-37,8.9-46.2,24.9s-9.1,36.8-0.3,53s25.9,27.5,44.1,30C523.8,847.9,542.9,841.8,552,831.2z"/>
	<path class="st0" d="M524,722.5c-6.1,10.9-15.2,20.1-26.1,26.3c-7.4,4.2-15.5,7.1-22.1,12.4s-11.2,14.4-8.2,22.3"/>
	<path class="st0" d="M483.4,797.5c6.1,2,12.9-1.6,16.7-6.8s5.3-11.6,6.6-17.9"/>
	<path class="st0" d="M469.8,778.6c3.4-1.6,7.5-0.8,10.7,1s5.7,4.7,8.1,7.5"/>
	<path class="st0" d="M475.6,778.2c-6.5,13.9-6.3,30.8,0.4,44.6"/>
	<path class="st0" d="M504.4,784.6c11.1-12.7,28.5-19.5,43.2-17.1c7.8,11.1,12.6,24.3,13.8,37.9"/>
	<path class="st0" d="M553.4,781.1c-2.6-5.3-4.9-10.7-6.9-16.2"/>
	<path class="st0" d="M565.4,803.1c1.1-2.5,2.8-4.8,5-6.6c-8.1,5.5-13.1,15.3-12.8,25.1c0,1.1,0.1,2.2,0.7,3.1
		c0.5,0.9,1.7,1.6,2.7,1.3"/>
	<path class="st0" d="M568.9,826.9c-6.7,6.3-15.1,10.7-24,12.6"/>
	<path class="st0" d="M582.5,756.4c-2.7,10.8-0.8,22.7,5.3,32.1c2.6,3.9,5.8,7.4,8,11.6c3.9,7.5,3.7,16.9-0.5,24.2
		c-4.1,7.3-12.1,12.3-20.5,12.9"/>
	<path class="st0" d="M575.5,709c-12.3-5.5-26.4-5.5-39.9-4.4c-13.5,1.1-27,3.3-40.5,1.8c-6.7-0.8-13.4-2.5-20.1-2
		s-13.9,3.6-16.6,9.7c-2.3,5-1.1,11.1,2,15.6c3.1,4.5,8,7.5,13.2,9.3s10.6,2.5,16.1,3.2"/>
	<path class="st0" d="M498,703.2c-17.5-15-21.1-43.1-9.6-63.1s35.8-31.1,58.7-29s44,16.2,56.8,35.4"/>
	<path class="st0" d="M636,677.9c15.8,13.9,29,30.9,38.4,49.8"/>
	<path class="st0" d="M692.6,713.6c-4.9-37.3,10.8-76.6,40-100.3"/>
	<path class="st0" d="M497.9,704.3c-8.9-11.5-15.1-25.5-15.6-40s5-29.6,16.3-38.8c9.4-7.7,21.9-10.8,34.1-11.3
		c27.8-1,55.8,11.3,73.8,32.5"/>
	<path class="st0" d="M616.3,655.8c33.2,24.4,59.4,58.3,74.4,96.7"/>
	<path class="st0" d="M727.6,618.3c-27.8,24.2-41.8,63.1-35.8,99.5"/>
	<path class="st0" d="M740.6,614.8c-4.4,23.3-4.1,47.5,0.8,70.8"/>
	<path class="st0" d="M743.2,699.3c5.9,18.3,10.1,37.1,12.5,56.2"/>
	<path class="st0" d="M734,610.1c3.4-2.6,9.2-0.9,10.5,3.2"/>
	<path class="st0" d="M721.1,744.9c-1.2-3.3-1.7-7-0.5-10.3s4.4-6,7.9-5.8c3.3,0.2,6,2.9,7.1,6c1.1,3.1,0.8,6.5,0,9.7
		c-1.7,7.1-5.5,13.7-10.8,18.6c-4.5,4.2-11.5,7.2-16.6,3.8c-3.1-2.1-4.5-5.9-5.5-9.6c-1.5-6-2.3-12.4-1.1-18.5s4.6-12,10-15.2
		c8.8-5.3,21.3-1.8,27.5,6.5c6.2,8.3,6.5,19.9,2.7,29.5s-11.5,17.2-19.9,23.1"/>
	<path class="st0" d="M717.1,775.7c-27.6-1.5-52.5-16.4-75.7-31.5c-23.2-15.1-47-31.1-74.3-35.4"/>
	<path class="st0" d="M582.7,772.5c21.2-0.4,39.1,15,54.5,29.7c15.4,14.6,32.8,30.4,54,30.7"/>
	<path class="st0" d="M699.3,834.6c18.5,1,35.4-12.3,44.3-28.6s11.2-35.2,13.5-53.6"/>
	<path class="st0" d="M622.2,789.1c3.8,4.1,7.5,8.2,11.4,12.2c10.4,10.6,21.8,20.4,35.1,27s28.8,9.5,43.2,6.1"/>
	<path class="st0" d="M718.5,833.1c10.9-2.8,19.5-11.5,24.8-21.5s7.6-21.1,10-32.1"/>
	<path class="st0" d="M901.4,454.4c-22.9,7.9-41.1,26.2-53.6,47c-12.5,20.8-20.2,44-28.1,67c-11.5,33.3-23.7,66.3-36.6,99.1
		c-7.7,19.4-15.9,39.2-30,54.6"/>
	<path class="st0" d="M843.8,507.5c-12.7,35.3-25.4,70.6-38,105.9c-13.8,38.4-27.8,77.2-49.8,111.7"/>
	<path class="st0" d="M870.7,471.8c5-7,11.4-13.3,19.5-16.2s18-1.8,24.1,4.2c8.4,8.3,7.2,22.2,3.5,33.4
		c-8.6,26.2-26.9,47.8-42.5,70.5c-16.9,24.6-31.2,51.7-36.2,81c-5,29.4,0.1,61.5,18.8,84.8"/>
	<path class="st0" d="M917,500.8c-12.7,26.1-30.5,49.2-46.5,73.5s-30.3,50.4-34.6,79.1s3,60.5,24.7,79.7"/>
	<path class="st0" d="M984.7,573.6c-15.7,3.1-28.7,17.1-30.6,33c-0.7,6.2,0.1,12.5-1,18.6s-4.5,12.5-10.5,14.2"/>
	<path class="st0" d="M857.5,737.9c3.9-6,3.8-13.8,2.3-20.8s-4-13.8-4.6-21c-1.1-13.1,5.2-26.6,15.9-34.2c11.1-7.8,25.4-9.1,38.8-11
		c13.5-1.8,27.9-5.1,36.8-15.3"/>
	<path class="st0" d="M922.2,649c-13.4,1.2-27,2.6-39.2,8.2c-12.2,5.6-23,16.1-25.3,29.3c-2.7,14.9,5.5,29.8,4.9,44.9"/>
	<path class="st0" d="M965.4,581.9c-7.3-6.4-9.7-17-9-26.8s4.1-19,6.4-28.5c4.3-17.4,5.1-35.6,2.4-53.3"/>
	<path class="st0" d="M964.6,607.3c1.2-2.9,2.5-5.9,4.6-8.3c2.1-2.4,5-4.2,8.2-4.1c4.6,0.2,8.2,4.5,9.1,9.1s-0.3,9.2-1.5,13.6
		c-2.9,10.5-6.1,20.9-11.3,30.4s-12.7,18-22.4,23"/>
	<path class="st0" d="M949.1,680.2c0.9,4.3,4.5,7.7,8.7,8.9c4.2,1.3,8.8,0.6,12.7-1.2s7.3-4.7,10.3-7.9"/>
	<path class="st0" d="M973.9,686.5c-2.2,6.8-3.2,14-3,21.2c0.1,2.4,0.3,5,1.6,7c1.3,2,3.5,3.4,5.9,3.6s4.8-0.7,6.4-2.5"/>
	<path class="st0" d="M966.7,609.8c0.8-5.4,2.5-11.9,7.7-13.7c3.9-1.3,8.3,0.8,10.7,4.1s3.1,7.6,3.1,11.7c0.2,11.1-3.8,22-9.8,31.2
		s-14.3,17-23.1,23.7"/>
	<path class="st0" d="M966.1,471.6c10.9,4.8,18,15.8,21.8,27.1c3.7,11.4,4.6,23.4,6.9,35.1c4.9,25.1,16.1,48.9,32.4,68.7
		c0,0,5.6,7.7,4.9,7.4c12.4,31.8,7.3,69.7-12.9,97.2"/>
	<path class="st0" d="M1033.8,672.1c-11.6,33.3-32.7,63.2-60.1,85.3"/>
	<path class="st0" d="M957.1,687.6c-22.5,24.7-28,61.8-51.8,85.3"/>
	<path class="st0" d="M922.6,748.6c-3,4.2-8.7,5.4-13.8,5.7c-16.2,1.1-32.8-3.2-46.5-12c-3.8-2.4-7.6-5.3-12-6
		c-5-0.8-10.1,1.2-14.1,4.4s-7,7.3-9.9,11.4"/>
	<path class="st0" d="M830,779.2c-5.1-2.2-8.8-7.5-9.3-13c-0.4-5.6,2.4-11.3,7.1-14.3c4.7-3,10.6-3.3,16-2
		c5.4,1.2,10.3,3.8,15.2,6.3c6.9,3.5,14,7,21.5,9.1c7.5,2.1,15.5,2.9,23.1,1.1"/>
	<path class="st0" d="M825.2,795.4c-0.5-10.2,8.1-19,17.8-22.2s20.2-1.8,30.3-0.3s20.4,3.3,30.4,1"/>
	<path class="st0" d="M825.9,806.9c4.1,6.1,11.5,9.1,18.8,9.7c7.3,0.5,14.5-1.1,21.7-2.6c18.3-3.9,37.4-7.2,55.6-2.7
		c19.5,4.8,37.2,18.3,57.2,17.4"/>
	<path class="st0" d="M977.6,756c-10.7,8.4-17.2,21.8-17.3,35.4c-0.1,13.6,6.2,27.1,16.8,35.7"/>
	<path class="st0" d="M829.5,750.8c-4.3,1.8-7.1,6.1-8.5,10.5c-1.2,4-1.4,8.4,0.3,12.2s5.5,6.8,9.6,6.8"/>
	<path class="st0" d="M719.4,830.2c20.5-9.4,33.3-31.1,37-53.3c3.7-22.2-0.4-45-6.3-66.7s-13.4-43.1-16.8-65.4"/>
	<path class="st0" d="M968.8,612.6c-0.3-3.1-0.5-6.3,0.2-9.4c0.8-3,2.8-6,5.7-7c5.7-2,11.2,3.8,12.7,9.6c2.1,8.4-0.8,17.1-4.6,24.9
		c-8.5,17.5-21.8,32.8-36,46.4c-1.3,4.4,1.4,9.2,5.5,11.3s9,1.7,13.2,0.1c4.3-1.6,8-4.3,11.6-7"/>
	<path class="st0" d="M971.9,687.9c-2.6,6.4-3.5,13.4-2.8,20.2c0.4,3.9,1.9,8.4,5.6,9.7c3,1,6.3-0.5,9-2.3
		c6.3-4.2,11.4-10.2,14.7-17.1"/>
	<path class="st0" d="M1006.7,595.9c5,19.3,0.3,39.7-4.4,59.2"/>
	<path class="st0" d="M818.9,767.2c-6.7,9.4-11.8,20-15,31"/>
	<path class="st0" d="M810.3,797.4c5.9-5.6,11.8-11.2,17.7-16.9"/>
	<path class="st0" d="M567.6,828.9c-7.9,5.4-16.9,9.1-26.2,11"/>
	<path class="st0" d="M598.9,581.9c2.5-3.6,6.6-6.1,11-6.6s9,0.9,12.2,3.9"/>
	<path class="st0" d="M638.6,574.9c-3.8-2.6-9.2-2-12.8,0.8s-5.5,7.4-5.9,12"/>
	<path class="st0" d="M653.8,550.5c-11.1,7.6-17.1,22-14.7,35.3"/>
	<path class="st0" d="M667.4,530.3c-5.4,3.6-9.7,9-12,15.1s-2.6,13-0.8,19.3"/>
	<path class="st0" d="M675.5,497.9c-9.2,11.1-11.3,27.5-5.3,40.6"/>
	<path class="st0" d="M686.3,475c0.2-1.7-2.1-2.7-3.7-2s-2.3,2.4-2.9,4c-4.2,11.2-4.6,23.8-1,35.2"/>
	<path class="st0" d="M699.5,456.1c-0.4-1.5-2.4-2.2-4-1.7c-1.5,0.5-2.6,1.8-3.5,3.2c-3.1,4.7-4.6,10.2-5.1,15.8
		c-0.6,5.5-0.3,11.1,0,16.7"/>
	<path class="st0" d="M713.2,419.6c-2.3,0.2-4.5,1.6-5.9,3.5c-1.4,1.9-2.2,4.1-3,6.4c-3.4,10.6-4.9,21.8-4.5,32.9"/>
	<path class="st0" d="M728.6,396.2c-1.9-1.9-5.2-1.8-7.5-0.4s-3.8,3.8-5,6.2c-4.2,8.8-4.5,19-4.7,28.8"/>
	<path class="st0" d="M401.6,299.1c-1.5-1.1-3.8-0.5-5.4,0.6c-1.6,1-3,2.5-4.9,2.9c-1.8,0.4-3.6-0.3-5.5-0.2c-1.9,0.1-3.7,1-5.5,1.6
		c-1.8,0.6-4,0.8-5.5-0.3"/>
	<path class="st0" d="M368.1,286.4c1.9,0.5,3.1,2.3,3.5,4.1c0.4,1.8,0.3,3.7,0.6,5.5c0.4,2.8,1.9,5.4,4,7.4"/>
	<path class="st0" d="M348.7,274l4.7,11.6c0.2,1,0.6,1.9,1.2,2.7c2.7,3.9,4.9,3,7.7,0.9c2.1-1.6,4.1-3.5,6.8-3.8"/>
	<path class="st0" d="M348.4,205.8c-5.7-2-11.6-3.6-17.7-3.6s-12.2,1.7-16.8,5.7c-5.7,4.9-8.2,12.9-7.5,20.4s4.2,14.5,8.8,20.5
		c4.6,6,10.3,11,17.1,16c1,3.4,3.5,6.3,6.7,7.9c3.2,1.5,7,1.7,10.3,0.3"/>
	<path class="st0" d="M753.6,364.7c-3.4-1.9-7.9-1.4-11.2,0.7c-3.3,2.1-5.6,5.6-7,9.3c-1.4,3.7-1.9,7.6-2.5,11.5"/>
	<path class="st0" d="M781.7,333.6c-0.7-2.6-4-4-6.6-3.4c-2.7,0.6-4.8,2.5-6.6,4.6c-10.1,11.3-14.1,26.6-17.8,41.4"/>
	<path class="st0" d="M804.6,319c0.5-3.6-3.4-6.6-7-6.4c-3.6,0.2-6.7,2.7-9,5.5c-5.6,6.7-8.1,15.5-10.4,23.9"/>
	<path class="st0" d="M841.5,304.7c-1.3-4.5-6.1-7.4-10.8-7.3s-9,2.6-12.2,6s-5.5,7.5-7.7,11.7c-2.2,4.1-4.4,8.3-7.5,11.8"/>
	<path class="st0" d="M872.9,291.4c0.8-1.7,0.4-3.8-0.8-5.2c-1.2-1.5-2.9-2.3-4.7-2.7c-5.6-1.1-11.2,2.3-15.2,6.4s-7.1,9-11.6,12.6"
		/>
	<path class="st0" d="M903.7,290.5c-0.3-4.5-4.2-8.1-8.5-9.2c-4.3-1-9,0.2-12.9,2.4s-7.1,5.4-10.3,8.5"/>
	<path class="st0" d="M937.7,292.3c0.6-3.8-1.4-7.7-4.6-9.9c-3.2-2.2-7.2-2.9-11-2.5c-9.9,0.8-18.2,7.5-25.5,14.3"/>
	<path class="st0" d="M972.7,299.3c2.2-2.5,2.2-6.6,0.3-9.4c-1.9-2.8-5.2-4.4-8.5-4.9s-6.8,0-10.1,0.7c-11,2.3-21.4,6.9-30.6,13.2"
		/>
	<path class="st0" d="M1005.3,306.7c2-2.6,1-6.6-1.3-8.9s-5.8-3.1-9-3.4c-12-1.2-23.7,3.5-34.8,8"/>
	<path class="st0" d="M1023.6,325.3c2,0.1,3.9-0.9,5.3-2.5s2-3.5,2.6-5.4c0.6-2.2,0.9-4.6,0-6.6c-1.1-2.5-3.8-3.9-6.4-4.7
		c-9.1-2.8-18.8-0.8-28.1,1.1"/>
	<path class="st0" d="M1048.5,344.1c4.3-1.2,6.4-6.6,5.1-10.8s-5.3-7.3-9.6-8.6s-8.8-1.1-13.2-0.8s-8.9,0.8-13.3,0"/>
	<path class="st0" d="M1064.8,364.6c3.2-0.9,4.7-4.9,3.9-8.1c-0.8-3.2-3.4-5.7-6.2-7.5c-7.8-5-17.4-5.9-26.6-6.6"/>
	<path class="st0" d="M1076.2,386.9c3.7-2.4,4.8-7.7,3.2-11.8c-1.6-4.1-5.4-7.1-9.5-8.6c-4.1-1.5-8.6-1.8-13-2"/>
	<path class="st0" d="M1088.4,407.9c3.1-0.9,4.8-4.5,4.3-7.6s-2.6-5.9-5-7.9c-5.1-4.2-11.7-6.1-18.2-8"/>
	<path class="st0" d="M1090.3,433.6c3.5-1.1,5.9-4.6,6.5-8.3c0.8-5.5-2.1-11.1-6.3-14.8c-4.2-3.7-9.4-5.9-14.6-8"/>
	<path class="st0" d="M1121.2,386.4c-7.3-0.9-15,1.7-20.2,6.9s-7.9,12.8-7.1,20.1"/>
	<path class="st0" d="M1144.8,371.6c0.8-2.6-0.4-5.4-1.8-7.8c-4.2-7.2-10.4-13.2-17.1-16.4c-6.4,7.1-8.2,17.4-7.5,26.9
		s3.4,18.8,4.7,28.3s1.2,19.6-3.4,28"/>
	<path class="st0" d="M1157.9,408.9c17.8-13.7,27-37.7,22.9-59.8c-1.1-5.9-6-10.7-10.7-14.5"/>
	<path class="st0" d="M1140.5,415.3c3-9.4,3.8-19.3,4.9-29.1c1-9.8,2.3-19.7,6.1-28.8c3.8-9.1,10.4-17.4,19.5-21.2"/>
	<path class="st0" d="M1181.1,367.6c17.7-10.7,38.5-16.2,59.2-15.7"/>
	<path class="st0" d="M1174.3,403c15.9-5.9,31-14,44.7-24.1c9-6.6,17.7-14.6,21-25.2"/>
	<path class="st0" d="M1209.2,389c11.9,4,23.4,9.2,34.4,15.5"/>
	<path class="st0" d="M1167,422.5c7.8-4.3,16.8-5.5,25.6-5.9s17.7,0.2,26.5-0.8c8.8-1,17.7-3.8,24.2-9.7"/>
	<path class="st0" d="M1208,416.2c7.7,4.5,14.5,10.5,20,17.5"/>
	<path class="st0" d="M1155.7,438.2c4-2.2,8.7-2.9,13.3-2.7c4.6,0.2,9.1,1.1,13.6,2c7.2,1.3,14.6,2.4,21.9,2.1s14.8-1.8,21.2-5.4"/>
	<path class="st0" d="M1177.7,438.2c2.6,2.5,4.3,5.9,4.7,9.4c0.5,3.5-0.3,7.2-2.2,10.3"/>
	<path class="st0" d="M1180.8,457.4c-11.3,3.7-23.9-3.6-34.8,0.2c-1.6,0.4-2.8,1.6-3.5,3.1c-0.7,1.5-0.9,3.1-1,4.7
		c-0.4,7,1.4,14.1,5,20"/>
	<path class="st0" d="M1138.7,482.4c4.9,2.6,10.1,4.8,14.1,8.6s6.7,9.7,4.9,14.9"/>
	<path class="st0" d="M1147.9,502.2c4.7,0.8,9.1,3.2,12.1,6.9c3.1,3.6,4.8,8.3,4.8,13.1"/>
	<path class="st0" d="M1157.7,517.2c4.2,2,8.3,4.7,10.6,8.7c2.3,4,2.4,9.6-0.9,12.9"/>
	<path class="st0" d="M1164.5,537.7c5.2,2,9.5,6,12,11c2.5,5,3.1,10.8,1.6,16.2"/>
	<path class="st0" d="M1172.6,559.6c4,3,8.2,6.2,10.7,10.6s2.9,10.3-0.3,14.2"/>
	<path class="st0" d="M1176.6,582.1c2.9,1.2,5.8,2.4,8.5,4.1s5,4,6.2,6.9c2,4.5,0.9,10.2-2.6,13.7"/>
	<path class="st0" d="M1178,605.2c4.5,0.9,8.6,3.7,11.1,7.6s3.1,8.8,1.9,13.3"/>
	<path class="st0" d="M1180.2,621.5c5.1,2.8,9.7,6.7,11.9,12.1c2.2,5.3,1.3,12.2-3.1,15.8"/>
	<path class="st0" d="M1179.9,644.5c4.3,2,7.9,5.6,9.7,10c1.8,4.4,1.9,9.5,0.3,13.9"/>
	<path class="st0" d="M1181,662.9c5.8,1.7,10.5,6.8,11.8,12.7s-0.9,12.5-5.6,16.5"/>
	<path class="st0" d="M1176.8,680.8c6.3,2.7,10.1,9.7,10,16.6c0,6.8-3.4,13.4-7.9,18.5"/>
	<path class="st0" d="M1166.2,703.5c6.2,2.9,10.7,9.1,11.4,15.9s-2.2,13.8-7.6,18"/>
	<path class="st0" d="M1156.3,724.3c4.4,1.1,7.9,4.8,9.4,9.2c1.4,4.3,0.9,9.2-0.9,13.4c-1.8,4.2-4.7,7.8-8.1,10.9"/>
	<path class="st0" d="M1140.6,740.7c5.2,0,10.4,2.8,13.1,7.3c2.7,4.5,3,10.3,0.6,15s-7.3,7.9-12.5,8.3"/>
	<path class="st0" d="M1138.7,760.8c3.6,3.8,4.9,9.6,3.2,14.5s-6.4,8.7-11.6,9.3"/>
	<path class="st0" d="M1128.2,773.2c3.4,6.4,1.2,14.9-4,19.9c-5.2,5-12.8,7-20.1,6.8"/>
	<path class="st0" d="M1102.4,790.2c3.2,2.1,5,6,4.5,9.8s-3.2,7.1-6.8,8.3"/>
	<path class="st0" d="M1083.2,803.1c1.1,2.4,0.2,5.3-1.6,7.2c-1.8,1.9-4.2,3-6.7,3.8s-5,1.4-7.3,2.6"/>
	<path class="st0" d="M1061.3,810.1c-1.2,3.5-4.8,5.5-8.4,6.3s-7.3,0.8-10.8,1.8"/>
	<path class="st0" d="M1066.1,792.4c26.8-10.6,50-29.9,65.3-54.2"/>
	<path class="st0" d="M1151.1,710.2c1.9-3.7,3.7-7.3,5.6-11"/>
	<path class="st0" d="M1081.5,429c3.8,0.9,7.3,3.4,9.4,6.7s2.8,7.5,2,11.4c-1.1,5-4.7,9.1-8.5,12.6c-0.4,0.4-0.9,0.8-1.4,0.8
		s-1.2-0.4-1.1-0.9l1.4-0.7"/>
	<path class="st0" d="M1077.3,489.5c4.4-0.5,8.2-3.8,10-7.8c1.9-4,2-8.7,1.2-13s-2.5-8.5-4.2-12.6"/>
	<path class="st0" d="M1074.8,515.2c2.9,0.6,5.8-1.2,7.4-3.7s1.9-5.5,1.9-8.4c0-5-1.7-10.7-6.2-12.6"/>
	<path class="st0" d="M1061,541.7c0.9,2.2,3.6,3.4,6,3c2.4-0.4,4.4-2.1,5.6-4.2s1.8-4.5,2.2-6.8c1.4-8.4,0.6-17.7-4.8-24.3"/>
	<path class="st0" d="M1050.4,567c1.2,2.1,4.1,2.9,6.4,2c2.3-0.8,3.9-3,4.7-5.3c0.8-2.3,0.9-4.8,0.9-7.2c0-7.8-0.9-16-5.4-22.3"/>
	<path class="st0" d="M1033.3,585c4.8,2.2,10.8,0.1,14.1-4c3.3-4.1,4.2-9.7,3.6-14.9c-0.6-5.2-2.5-10.2-4.5-15.1"/>
	<path class="st0" d="M1028.4,599.6c1.2,2,4.3,2.1,6.2,0.7s2.7-3.9,2.8-6.2c0.5-6.2-2.5-12.1-5.4-17.7"/>
	<path class="st0" d="M1025.8,575.9c17.2-18.9,29.2-42.1,38.7-65.8c6.2-15.4,11.6-31.4,13.4-47.9c1.8-16.5-0.1-33.8-7.7-48.6"/>
	<path class="st0" d="M1073.5,408.4c-15.3-33.6-43-61.5-76.5-77.1"/>
	<path class="st0" d="M977.2,320.4c-34.9-17.8-76.8-21.2-114.2-9.3"/>
	<path class="st0" d="M848.5,316c-32.4,8.3-61.7,28.3-81.2,55.5"/>
	<path class="st0" d="M756.2,388.6c-21.2,25.1-37.5,54.3-47.8,85.5"/>
	<path class="st0" d="M696.4,502.3c-7.7,29.3-21.1,57.1-39.1,81.5"/>
	<path class="st0" d="M586.9,583.8c3.5,7.6,8.7,14.8,16.1,18.7s17.3,3.8,23.4-1.9"/>
	<path class="st0" d="M639.4,596.7c12.7-8.2,23.4-19.5,30.7-32.7"/>
	<path class="st0" d="M689.9,515.5c13.2-30,26.5-60.1,39.7-90.1"/>
	<path class="st0" d="M747.5,397.1c14-22.2,32.9-41.4,54.9-55.7"/>
	<path class="st0" d="M849.3,314.4c33.2-9,68.6-9.6,102.1-1.7"/>
	<path class="st0" d="M820.9,332.4c-32.2,16.2-58.8,43.2-74.7,75.5"/>
	<path class="st0" d="M737.3,420.5c-13.5,23.5-24.6,48.4-32.9,74.1"/>
	<path class="st0" d="M833.2,324.7c20.4-8.7,42.6-13,64.7-12.7"/>
	<path class="st0" d="M913.9,308.4c35.1,0.3,70,13.4,96.6,36.4"/>
	<path class="st0" d="M1039.2,361.6c17.8,15.4,29.4,37.8,31.9,61.2"/>
	<path class="st0" d="M1076.3,449.4c-3.3,40.6-18.9,80.1-44.2,112"/>
	<path class="st0" d="M1021.8,577.2c-1.8,2.2-4.2,4-10.5,1.8c-6.6-17.3-8.7-35.9-13-53.9c-4.4-18-11.7-36.2-26.2-47.8"/>
	<path class="st0" d="M1034.5,674.3c17.4,2.8,35-8.1,43.9-23.3c8.9-15.2,10.4-33.7,8.4-51.2s-7.2-34.4-10.7-51.7"/>
	<path class="st0" d="M1131.2,469c9.2,35.6,20.5,70.6,33.9,104.8"/>
	<path class="st0" d="M1168.9,600.1c7.2,22.6,7.6,47.3,1.1,70.2"/>
	<path class="st0" d="M1034.6,674c12.9,3.8,27.3-2.1,36.2-12.2c8.9-10,13.1-23.5,14.8-36.8"/>
	<path class="st0" d="M1073.7,539c17.9,35,20.1,77.7,6,114.3"/>
	<path class="st0" d="M1096.3,412.2c-1-6.2,0.9-12.7,5-17.4c4.1-4.7,10.3-7.5,16.5-7.5"/>
	<path class="st0" d="M1128.8,347.4c-8.5,8.7-9.2,22.3-7.4,34.4s5.4,24.1,3.4,36.1"/>
	<path class="st0" d="M670.4,166.3c39.9-1,72.6-34.4,112.2-38.9"/>
	<path class="st0" d="M739.2,168c11.6-6.5,22.6-13.9,33-22.2c4.9-3.9,10.2-9,9.8-15.3"/>
	<path class="st0" d="M256.5,309.9c-3.6,0-6.7,3.2-6.2,6.8c0.5,3.6,3.1,6.5,6.1,8.6c12.5,8.8,31.2,6.7,41.6,17.9"/>
	<path class="st0" d="M298.2,348c-6.3,3.8-12.1,8.9-14.9,15.8c-2.8,6.8-2,15.4,3.4,20.5"/>
	<path class="st0" d="M291.5,387.8c18.5,13,40.5,20.8,63,22.4"/>
	<path class="st0" d="M351.9,394.9c2.6,8.1,8.5,15,16.1,18.9s16.6,4.6,24.7,2"/>
	<path class="st0" d="M580.4,401.1c-37,30-71.5,63.1-103,98.8c-23.1,26.2-45.5,55.5-50.8,90"/>
	<path class="st0" d="M423.1,607.3c-7.5,34.3-3,71.1,12.7,102.5"/>
	<path class="st0" d="M423.4,650.3c1.9,32.9,12.8,65.3,31,92.7"/>
	<path class="st0" d="M494,701.9c-16.2-11.7-20.3-35.7-12.5-54.1s25-31.5,43.5-39"/>
	<path class="st0" d="M569.3,622.7c11.5,5.3,21.8,13.1,30,22.7"/>
	<path class="st0" d="M689.7,715.5c-3.7-44.9,18-91,55-116.8"/>
	<path class="st0" d="M1064.1,793c28.7-10.3,54-29.8,71.4-54.8"/>
	<path class="st0" d="M1149.9,711.4c20.5-39,24.6-86.3,11.1-128.3"/>
	<path class="st0" d="M1128.8,468.6c9.5,35.5,21.6,70.3,36.1,104.1"/>
	<path class="st0" d="M1165.3,593c13.5,34.4,10.6,74.9-7.7,107"/>
	<path class="st0" d="M1081.9,558.9c1.1,16.3,4.7,32.3,5.7,48.6c1.1,16.3-0.7,33.4-9.3,47.2c-8.6,13.9-25.4,23.5-41.3,19.9"/>
	<path class="st0" d="M1036,666c-0.3,17.8-10,34.3-21.6,47.8c-11.6,13.5-25.5,25.1-36.6,39.1c-11.2,14-19.7,31.2-15.5,53.7
		c5,6.4,9.9,12.8,14.9,19.2"/>
	<path class="st0" d="M546.5,788.2c2,12-2.5,24.9-11.5,33.1s-22.2,11.4-34,8.3c10.1-1.5,20.9-6.7,27.9-15.1
		c7-8.4,10.2-19.9,8.6-31.5C540.2,783.5,542.9,784.4,546.5,788.2z"/>
	<path class="st0" d="M500.8,831.8c11,3.1,23.5,0.5,32.3-6.8"/>
	<path class="st0" d="M512.5,835.8c6.1-0.6,12-2.6,17.2-5.7"/>
</g>
<g id="Layer_4">
	<path class="st0" d="M860.3,344.1c7.1-1.6,14.7-0.9,21.4,2c1.6,0.7,3.1,1.5,4.2,2.9c2,2.4,2,5.9,1.2,8.9s-2.3,5.8-3,8.9"/>
	<path class="st0" d="M859.5,363.8c4.6,0,9.3,0,13.8,1.2s8.7,4,10.7,8.2c1.5,3,1.6,6.6,1.5,9.9c-0.2,5.5-1.2,11.1-3,16.3"/>
	<path class="st0" d="M885.8,372.3c4.8,0.2,9.6,0.8,14,2.6c4.4,1.9,8.4,5.2,10.1,9.6c1.5,3.7,1.2,7.9,0.1,11.8
		c-1.1,3.9-3,7.4-4.9,11"/>
	<path class="st0" d="M891.4,345.3c5.3,0.7,10.8,1.5,15.7,3.7s9.4,6,11.1,11.1c1.8,5.5,0,12-4.4,15.7"/>
	<path class="st0" d="M935.8,381.2c4.5,3.7,8.7,7.8,11.5,12.9s3.9,11.3,2,16.7c-2.3,6.7-8.6,11-14.5,14.9"/>
	<path class="st0" d="M950.7,360.6c3.8,3.2,7.7,6.4,10.8,10.4c3,4,5.2,8.8,5.1,13.8c-0.1,4.5-2,8.7-4.6,12.3
		c-2.7,3.6-6.1,6.5-9.5,9.3"/>
	<path class="st0" d="M956.5,404.4c3,3.9,6,7.8,8.1,12.2s3.2,9.5,2.1,14.3c-1.2,5.4-5,9.9-9.6,13.1s-9.8,5.2-14.9,7.1"/>
	<path class="st0" d="M967.9,378.6c4.5,2.4,8.8,5.2,12.2,9s5.9,8.5,6.1,13.6c0.3,5.9-2.4,11.5-6.2,16c-3.8,4.5-8.6,7.9-13.4,11.3"/>
	<path class="st0" d="M980.8,416.5c3.1,2.8,6.1,5.9,8.1,9.6s3.1,8,2.2,12.1c-0.8,3.7-2.9,6.9-5.4,9.7c-4.8,5.6-10.6,10.2-17.1,13.5"
		/>
	<path class="st0" d="M985.8,398.9c5-1.7,8.6-6.5,9.7-11.6s-0.1-10.6-2.4-15.4s-5.7-8.9-9.2-12.9"/>
	<path class="st0" d="M997,387.4c4.8,0.9,9.8,1.7,14.6,0.6s9.3-4.6,10.1-9.4c0.5-3-0.6-6.1-1.9-8.9s-3-5.4-3.8-8.4"/>
	<path class="st0" d="M752.7,463.2c4.5-3.7,9.2-7.4,14.7-9.2c5.5-1.8,12.2-1.4,16.4,2.6c4.2,3.9,5,10.2,8.2,15"/>
	<path class="st0" d="M783.5,456.7c3.9-2.9,7.8-5.9,12.4-7.5c4.6-1.6,10-1.6,14,1.1c7,4.8,7.2,15.7,13.7,21.2"/>
	<path class="st0" d="M813.7,453.7c2.3-3.5,5.1-6.8,8.8-8.8s8.4-2.5,12.1-0.5c6.8,3.7,7.6,13.7,13.8,18.4"/>
	<path class="st0" d="M766.4,427.7c4.9-2.6,9.9-5.3,15.3-6.3s11.5-0.4,15.8,3.2c6.1,5,6.9,13.8,10.4,20.9"/>
	<path class="st0" d="M794.8,420.6c4.2-1.9,8.4-3.8,13-4.5c4.5-0.8,9.4-0.4,13.3,2c3.3,2.1,5.7,5.5,7.2,9.1s2.2,7.5,2.9,11.4"/>
	<path class="st0" d="M775.4,397.4c3.7-0.5,7.2-2,10.7-3.2s7.4-2,11-0.9c4.4,1.3,7.7,5.1,9.4,9.4c1.7,4.2,2.1,8.9,2.5,13.5"/>
	<path class="st0" d="M774.8,513.3c5.9-4.5,13-7.4,20.4-8.3c4.2-0.5,8.6-0.4,12.2,1.8c3.6,2.2,5.8,6.1,7.4,10
		c1.5,3.9,2.5,8.1,4.4,11.9"/>
	<path class="st0" d="M745.4,519.6c4.5-2.6,9-5.2,14-6.6s10.6-1.4,15.1,1c3.8,2,6.5,5.5,8.4,9.4s2.9,8,3.9,12.2"/>
	<path class="st0" d="M760,545.7c5.2-3.1,10.5-6.3,16.4-7.6s12.6-0.5,17.1,3.6c4.5,4.1,5.9,10.5,7,16.5"/>
	<path class="st0" d="M715.4,529.6c4.6-2.9,9.7-5.3,15.1-6.1c5.4-0.9,11.2-0.2,15.9,2.6c7.6,4.5,11.2,13.5,14.3,21.8"/>
	<path class="st0" d="M728.5,555.9c5.5-3.2,11.2-6.5,17.5-7.8s13.4-0.1,17.9,4.5c4.4,4.5,5.3,11.3,6,17.6"/>
	<path class="st0" d="M751.4,580.4c4.8-1.5,9.1-4.1,13.8-5.9c4.7-1.8,9.9-2.8,14.7-1.2c6.8,2.5,10.5,9.7,13.5,16.3"/>
	<path class="st0" d="M700.9,562.8c3.5-1.9,7-3.7,10.8-4.8s7.9-1.4,11.6,0c4.5,1.6,7.9,5.4,10,9.7s3.2,9,4.2,13.6"/>
	<path class="st0" d="M674.8,603c7.2-1.2,13.9-7,21-5.2c5.9,1.5,9.3,8.1,9.3,14.2c0,6.1-2.8,11.8-5.4,17.3"/>
	<path class="st0" d="M728.2,640c-5,20.5-2.5,42.8,7,61.7"/>
	<path class="st0" d="M715.8,663.3c-1.2,16,2.9,32.3,11.7,45.7"/>
	<path class="st0" d="M711.8,663.4c1,13.6,4.4,27.1,10.1,39.5"/>
	<path class="st0" d="M724.5,644c-1.3,13.7,0.4,27.6,5,40.6"/>
	<path class="st0" d="M622.7,629.7c4-1,8-1.9,12.1-1.9s8.3,1,11.6,3.5c4.2,3.2,6.4,8.5,6.9,13.7s-0.2,10.5-1.1,15.7"/>
	<path class="st0" d="M638.9,623.2c4.3-0.9,8-3.5,12-5.3s8.8-2.8,12.7-0.8c4.7,2.6,6.1,8.8,5.6,14.1s-2.4,10.6-2.3,15.9"/>
	<path class="st0" d="M652.7,661.8c3.1-3.6,6.2-7.3,10.3-9.8c4-2.5,9.2-3.7,13.6-1.9c1.2,0.5,2.3,1.2,3.3,2
		c6.1,5.2,5.6,15.1,10.8,21.3"/>
	<path class="st0" d="M668.8,631.3c4.3-1.9,8.2-4.5,12.7-5.9c4.5-1.4,9.7-1.4,13.3,1.5c3.8,3.1,4.7,8.6,7.6,12.5"/>
	<path class="st0" d="M803.6,396.3c4.4-0.6,8.5-2.6,12.8-3.9s9.2-1.7,13,0.8c1.6,1,2.9,2.5,3.9,4.2c3.7,6.5,2.4,14.6,1,22"/>
	<path class="st0" d="M835.8,410.7c6.2-2.1,13.2-2.2,19.5-0.3c1.9,0.6,4,1.5,4.9,3.3c0.7,1.4,0.7,3,0.7,4.5
		c-0.1,5.1-0.1,10.3-0.2,15.5"/>
	<path class="st0" d="M808.5,361.8c6.5-2.9,13.9-3.5,20.8-1.8c2,0.5,4.1,1.2,5.7,2.6c3.3,2.8,4,7.6,3.7,11.9s-1.7,8.5-1.7,12.8"/>
	<path class="st0" d="M768.1,485c4.9-2.7,9.8-5.5,15.3-6.5s11.7,0,15.6,4c4.5,4.6,4.9,12,8.8,17.1"/>
	<path class="st0" d="M1040.8,427.1c4.1,5,8.4,10.3,14.4,12.8c1.8,0.8,3.9,1.3,5.7,0.5c2-0.9,3-3,3.7-5c2.1-5.8,3.1-12,2.9-18.1"/>
	<path class="st0" d="M1022.7,447.5c3.9,5.5,11.7,7.9,18,5.4s10.4-9.5,9.5-16.2"/>
	<path class="st0" d="M1042.8,451.3c1.5,2.3,3.1,4.6,5.3,6.2s5.4,2.2,7.8,0.9c1.6-0.9,2.7-2.5,3.5-4.1c2.4-4.7,3.3-10,2.6-15.2"/>
	<path class="st0" d="M1057.6,458.2c-1.2,3,0.6,6.9,3.6,8c3.5,1.2,7.4-1,9.4-4.1s2.4-6.9,2.8-10.6"/>
	<path class="st0" d="M1023.6,464.4c1.5,3.8,5.2,6.7,9.3,7.2s8.4-1.2,10.9-4.5c2.5-3.3,3.1-7.9,1.6-11.7"/>
	<path class="st0" d="M1038.4,472.2c1.9,4.8,7.5,7.8,12.6,6.8s9.1-6,9-11.1"/>
	<path class="st0" d="M1053.4,478.9c-0.1,1.8,0.2,3.7,1.1,5.3c0.9,1.6,2.5,2.9,4.3,3.2c2.4,0.5,4.8-0.7,6.4-2.5s2.7-4,3.7-6.1"/>
	<path class="st0" d="M1015.8,489.1c-0.2,2.4-0.4,4.9,0,7.3c0.4,2.4,1.5,4.8,3.4,6.3c3.4,2.6,8.4,1.8,11.8-0.8
		c3.4-2.5,5.6-6.4,7.6-10.1"/>
	<path class="st0" d="M1025.7,503.9c-0.7,4.8-0.6,10.3,2.8,13.8c3.4,3.4,9.1,3.7,13.4,1.7c4.3-2.1,7.5-6,9.9-10.2"/>
	<path class="st0" d="M1006,503.1c0.9,4.6,2.6,9.3,6.2,12.3s9.5,3.6,12.8,0.2"/>
	<path class="st0" d="M1020.5,518.8c1,2.2,1,4.6,1.4,6.9c0.5,2.3,1.6,4.8,3.8,5.6c1.6,0.6,3.4,0.3,5-0.3c4.6-1.6,8.6-4.8,11.2-8.9"
		/>
	<path class="st0" d="M938.1,482.9c-2.1,3.2-4.2,6.5-5.5,10.2s-1.6,7.8-0.1,11.4c1.5,3.6,5.1,6.4,9,6.2"/>
	<path class="st0" d="M932.7,507.7c-1.3,2.3-2.5,4.6-3.2,7.1c-0.7,2.5-0.6,5.3,0.6,7.6c1.4,2.5,4.1,4.1,6.9,4.7
		c2.8,0.7,5.7,0.5,8.6,0.4"/>
	<path class="st0" d="M933.8,527.5c-3.3,4.1-3.6,10.4-0.6,14.8s8.9,6.5,13.9,5"/>
	<path class="st0" d="M914.2,521c-1.6,2.9-2.3,6.4-1,9.5c1.4,3.4,5,5.4,8.6,6.1s7.3,0.1,10.9-0.5"/>
	<path class="st0" d="M914,535.3c-0.6,3.2-1.2,6.5-0.8,9.7c0.4,3.2,1.9,6.5,4.6,8.2c2.7,1.7,6.2,1.7,9.2,0.8c3-1,5.7-2.8,8.4-4.5"/>
	<path class="st0" d="M926.9,556.9c0.3,5.4,4.3,10.3,9.4,11.9s11.2-0.5,14.4-4.8"/>
	<path class="st0" d="M903.8,553.8c0.5,5.6,4.7,10.6,10.1,12.1s11.6-0.6,14.9-5.1"/>
	<path class="st0" d="M918.5,568.1c-1.5,6.1,2.3,13,8.3,15c6,2,13.2-1.2,15.7-7"/>
	<path class="st0" d="M866.3,603.8c-2.5,5.9,1,13.6,7,15.7c6.1,2.1,13.5-1.9,15.2-8.1"/>
	<path class="st0" d="M880.9,618.8c-0.8,5.5,2.8,11.4,8.1,13.2c4.7,1.6,10,0.2,14.1-2.5s7.3-6.7,10.5-10.5"/>
	<path class="st0" d="M853.3,629.1c1.4,7.6,8.7,13.6,16.4,13.7c7.7,0,15-5.9,16.5-13.5"/>
	<path class="st0" d="M879,639.6c1.4,2.9,2.8,5.9,5,8.2s5.4,4,8.6,3.6c4.9-0.6,8-5.6,10.3-10"/>
	<path class="st0" d="M978.6,509.5c0,16.5,6.5,32.3,14.1,46.9c7.6,14.6,16.5,28.7,22.2,44.2c11.5,31.3,8.3,67.6-8.4,96.5"/>
	<path class="st0" d="M979.8,517.9c12.5,28.2,27,55.8,34.7,85.6c7.7,29.8,8,63.1-7,90"/>
	<path class="st0" d="M892.8,671.7c3.7-1.9,7.5-3.9,11.6-4.2s8.7,1.5,10.4,5.3c1.9,4.3-0.5,9.2-2.8,13.3"/>
	<path class="st0" d="M914.3,683.4c3.6-1.6,7.9-3,11.4-1.2c3,1.5,4.6,5.2,4.6,8.6c0,3.4-1.2,6.7-2.4,9.9"/>
	<path class="st0" d="M914.6,671.1c2.8-1.8,6.1-3.1,9.5-3.2c3.4-0.1,6.9,1.2,8.9,3.9s2.3,6.7,0.2,9.4"/>
	<path class="st0" d="M896.6,687.8c4.6-2,10.1-1.6,14.4,1c4.3,2.6,7.2,7.3,4.7,15.6c4.1-1.7,8.4-3.4,12.8-2.9
		c4.4,0.5,8.8,4.1,8.5,8.5"/>
	<path class="st0" d="M895.3,710.4c3.3-2.4,6.7-4.9,10.7-5.7s8.8,0.5,10.7,4.1c1.3,2.5,1,5.6,0.5,8.5"/>
	<path class="st0" d="M873.8,712c3.2-1.6,6.5-3.3,10-3.9c3.5-0.7,7.5-0.2,10.2,2.1s4,6.6,2.1,9.7"/>
	<path class="st0" d="M952.5,728.6c0,2.2,0.2,4.8,2,6.2c2,1.5,4.9,0.8,6.8-0.7s3.5-3.5,5.5-4.9"/>
	<path class="st0" d="M959,735.3c-0.4,2.4,1.5,4.7,3.8,5.3s4.8-0.2,6.8-1.5c2-1.4,3.5-3.3,5-5.2"/>
	<path class="st0" d="M946.5,736.4c-1.1,1.8-0.4,4.3,1.3,5.5c1.9,1.5,4.6,1.5,6.9,0.6c2.3-0.8,4.2-2.4,6-4"/>
	<path class="st0" d="M952.2,742.5c1.6,2.3,1.8,5.7,4.2,7c1.8,0.9,3.9,0.3,5.7-0.7s3.3-2.2,5.3-2.6"/>
	<path class="st0" d="M960.2,748.4c0.3,2,0.8,4.2,2.4,5.4c1.4,1,3.3,1.1,5,0.5s3.1-1.6,4.5-2.6"/>
	<path class="st0" d="M947.9,751.6c-0.3,2.2,1.2,4.3,3.2,5.2c2,0.9,4.3,0.8,6.4,0.1s3.9-1.9,5.8-3.1"/>
	<path class="st0" d="M953.5,757.8c0.3,2.5,1.7,4.8,3.8,6.2c2.1,1.4,4.8,1.8,7.2,1.1"/>
	<path class="st0" d="M934.2,752.8c1,3.2,3.9,5.7,7.2,6.2c3.3,0.5,6.8-1.1,8.6-4"/>
	<path class="st0" d="M940.8,759.5c0.3,3.3,3,6.3,6.3,6.9c3.3,0.6,6.9-1.2,8.3-4.3"/>
	<path class="st0" d="M949.3,767.6c-0.5,2.5,0.9,5.2,3.2,6.2s5.3,0.1,6.7-2"/>
	<path class="st0" d="M937.7,770c0.2,2.7,2.2,5.1,4.8,5.8c2.6,0.8,5.6-0.2,7.2-2.4"/>
	<path class="st0" d="M945.3,776.7c0.2,2.2,1.8,4.2,3.9,4.8s4.5-0.1,5.9-1.9"/>
	<path class="st0" d="M1108.3,457.3c0.6-2.2,1.1-4.5,2.2-6.5s2.8-3.8,5-4.4c3.3-1,7,0.8,9,3.6c2,2.8,2.6,6.4,2.7,9.8"/>
	<path class="st0" d="M1095.8,473.3c0.2-5.2,4.3-10.1,9.4-11.3s10.9,1.5,13.3,6.2"/>
	<path class="st0" d="M1105,486.7c-0.2-5.5,3.8-10.9,9.2-12.2s11.5,1.5,13.9,6.5"/>
	<path class="st0" d="M1093.8,503.3c0.1-5.2,3.5-10.3,8.4-12.2s10.8-0.8,14.5,2.9"/>
	<path class="st0" d="M1095.3,528c0-5.5,2.9-11.1,7.8-13.6c4.9-2.5,11.7-1.1,14.6,3.5"/>
	<path class="st0" d="M1114.6,526c0.3-4.7,3.7-9.2,8.2-10.7s9.8-0.1,13,3.5"/>
	<path class="st0" d="M1100.1,542.8c-0.5-5.3,3.1-10.7,8.2-12.2s11.1,1,13.6,5.7"/>
	<path class="st0" d="M1119.6,544.2c1.3-4.8,5-8.8,9.7-10.5c4.7-1.7,10.1-0.9,14.1,2"/>
	<path class="st0" d="M1104.3,556.3c2.6-4.3,6-8.3,10.6-10.1s10.7-0.5,13.2,3.8"/>
	<path class="st0" d="M1103,577.5c1.3-4.2,3.6-8.3,6.9-11.2c3.3-2.9,7.9-4.6,12.3-4.1s8.6,3.6,9.9,7.8"/>
	<path class="st0" d="M1128.3,582.7c-0.2-5.6,3.1-11.3,8.2-13.7s11.6-1.6,15.9,2"/>
	<path class="st0" d="M1103.3,593.6c3.1-5.6,9-9.5,15.4-10c6.3-0.5,12.9,2.3,16.8,7.3"/>
	<path class="st0" d="M1058.1,739.8c2.7-1.4,5.5-2.8,7.7-4.8s3.9-5,3.8-8c-0.1-2.9-1.8-5.5-4-7.4c-2.2-1.9-4.8-3.2-7.4-4.4"/>
	<path class="st0" d="M1068,764.3c3.4-2.5,6.3-5.8,7.9-9.7c1.6-3.9,1.7-8.5-0.3-12.2s-6.2-6.3-10.4-5.9"/>
	<path class="st0" d="M1076.2,738.5c3.4-2.7,6.9-5.5,9.4-9.1s3.6-8.4,2-12.5c-1.2-2.9-3.6-5.2-6.4-6.7c-2.8-1.5-5.9-2.3-9-3"/>
	<path class="st0" d="M1114.6,726.7c3.7-5,4.3-12.2,1.4-17.7s-9.1-9.2-15.3-9"/>
	<path class="st0" d="M1110.8,702.9c4.3-4.9,4.6-12.8,0.8-18.1c-3.8-5.3-11.4-7.5-17.4-5"/>
	<path class="st0" d="M1106.6,679.6c3.1-3.2,3.6-8.4,1.8-12.5c-1.8-4.1-5.5-7.1-9.7-8.7s-8.7-1.8-13.2-1.5"/>
	<path class="st0" d="M1136.2,690.2c1.7-4.1,0.2-9.2-2.9-12.3s-7.7-4.7-12.2-4.8c-4.5-0.2-8.9,0.9-13.2,2.3"/>
	<path class="st0" d="M1128,671.5c1.6-6.5-1.6-13.9-7.4-17.2c-5.8-3.3-13.8-2.2-18.6,2.5"/>
	<path class="st0" d="M1109.6,655.2c1.8-4.8,0.1-10.7-4-13.7s-10.3-2.9-14.3,0.4"/>
	<path class="st0" d="M1064.7,715.8c1.8-2.5,3.5-5,4.6-7.9c1-2.9,1.2-6.2-0.2-8.9c-2.3-4.4-7.9-5.8-12.8-6.8"/>
	<path class="st0" d="M1091.9,752.2c5.7-2.3,9.5-8.6,9-14.7c-0.5-6.1-5.4-11.7-11.4-13"/>
	<path class="st0" d="M1090.4,718.7c2.2-3.1,4.4-6.4,5.7-10s1.6-7.7,0.3-11.3c-1.4-3.6-4.7-6.5-8.5-6.8"/>
	<path class="st0" d="M1076.5,704.6c3.9-3.5,6.6-8.3,7.4-13.5c0.5-2.9,0.2-6.3-1.9-8.3c-1.4-1.4-3.5-2-5.4-2c-2,0-3.9,0.5-5.8,0.9"
		/>
	<path class="st0" d="M1038.6,732.3c6.7-1.2,14.1,2.3,17.4,8.3c3.3,6,2.3,14-2.3,19.1"/>
	<path class="st0" d="M1046,761c4.2-0.8,8.6-1.1,12.7-0.1s8.1,3.3,10.4,7s2.7,8.5,0.4,12.2"/>
	<path class="st0" d="M1034,736.9c3.9-3.2,8-6.6,10.4-11c2.5-4.5,3-10.4,0-14.5c-2.3-3.2-6.2-4.7-9.9-6"/>
	<path class="st0" d="M1015.4,744.8c3.5-0.4,7.1-0.8,10.7-0.2c3.5,0.5,7.1,2,9.3,4.8c2.7,3.3,3.2,8,2.2,12.2
		c-0.9,4.2-3.1,8-5.2,11.7"/>
	<path class="st0" d="M1022.5,775.4c5.1-1.4,10.4-2.9,15.7-2.6s10.9,2.4,13.8,6.9c2.2,3.4,2.7,7.8,1.2,11.6"/>
	<path class="st0" d="M606.8,417c1.8,5.6,3.6,11.4,7.2,16c3.6,4.6,9.4,8,15.2,7.2c5.3-0.8,9.5-4.9,13.2-8.8"/>
	<path class="st0" d="M577.6,430c1.3,7,4.7,14.2,11.1,17.2c5.2,2.5,11.5,1.6,16.7-1c5.2-2.5,9.5-6.5,13.7-10.5"/>
	<path class="st0" d="M592.4,451.9c-1.8,6.5,0.7,13.9,6,18.1c5.3,4.2,13.1,4.8,19,1.6"/>
	<path class="st0" d="M563,440.7c-1.1,6.4-1.9,13.6,2.3,18.5c3,3.5,7.9,4.8,12.4,4.4c4.5-0.3,8.9-2,13.1-3.7"/>
	<path class="st0" d="M574.3,465.6c-0.8,4.4,1.6,9,5.3,11.4c3.7,2.4,8.5,2.8,12.8,1.8s8.3-3.3,11.8-5.9"/>
	<path class="st0" d="M541.6,456.1c-0.2,5.2,0.5,10.9,3.7,15c3.3,4.1,8.9,6,14.2,6s10.5-1.5,15.6-3"/>
	<path class="st0" d="M560.8,477.9c0.2,4.8,1.1,10,4.6,13.2c3.2,3,8.1,3.7,12.5,2.8s8.3-3.1,12.1-5.2"/>
	<path class="st0" d="M566.3,494.8c-0.8,3.5-1.5,7.2-1.3,10.8s1.7,7.3,4.5,9.6s7.2,2.8,10.1,0.5"/>
	<path class="st0" d="M522.5,480c0.2,4,3.1,7.5,6.7,9.1s7.8,1.7,11.7,0.8s7.5-2.6,11.1-4.3"/>
	<path class="st0" d="M538.1,489.8c1.3,5.3,4.1,10.5,8.7,13.5c4.6,3,11.3,3.1,15.3-0.6"/>
	<path class="st0" d="M505.7,499.7c0.5,4.3,3.9,7.9,8,9.3c4,1.5,8.6,1,12.6-0.5s7.7-3.9,11.2-6.4"/>
	<path class="st0" d="M527,509.1c-1.3,6.5,3,13.8,9.4,15.6c3.5,1,7.3,0.6,10.7-0.6s6.6-3,9.8-4.8"/>
	<path class="st0" d="M556.5,510.2c-0.2,6.3,0.6,12.7,2.5,18.8c0.7,2.4,1.8,5,4,6.3c2.9,1.7,6.7,0.6,9.5-1.2
		c2.8-1.8,5.3-4.3,8.5-5.4"/>
	<path class="st0" d="M539.3,527.5c0.7,6.4,1.5,12.9,4.2,18.7c1.2,2.5,2.9,5.1,5.5,6c3.5,1.2,7.2-0.8,10-3.2c2.7-2.4,5.1-5.5,8.4-7"
		/>
	<path class="st0" d="M473.6,532c1,5.3,2.3,10.5,3.7,15.7c0.5,1.9,1.1,3.8,2.4,5.2c2.8,3,7.7,2.5,11.4,0.6c3.6-1.9,6.6-4.8,10.3-6.5
		"/>
	<path class="st0" d="M448.7,551.5c1.6,1.8,2.1,4.3,2.9,6.5c0.8,2.3,2.3,4.6,4.6,5.2c1.8,0.5,3.7-0.3,5.4-1.1
		c5.1-2.5,9.8-6,13.7-10.2"/>
	<path class="st0" d="M482.5,555.3c-0.1,4.7-0.3,9.5,1.4,13.9c1.7,4.4,5.6,8.3,10.2,8.4c4.9,0.2,9-3.6,12.5-7.1"/>
	<path class="st0" d="M459.4,565.7c1.5,3.6,1.8,7.5,2.8,11.3c1,3.7,3.2,7.6,6.9,8.7c3.4,1,7-0.4,10-2.2c3-1.8,5.9-4.1,9.3-4.9"/>
	<path class="st0" d="M473.6,586.3c2.2,3.8,2.5,8.3,3.4,12.5s3.1,8.7,7.2,10.3c3.9,1.5,8.3-0.2,11.7-2.5c3.5-2.3,6.6-5.2,10.5-6.6"
		/>
	<path class="st0" d="M437.4,586.5c1.4,2.7,2.1,5.6,3.2,8.5c1.1,2.8,2.6,5.7,5.2,7.3c3.1,1.9,7.2,1.7,10.5,0.2s6-4.2,8.4-6.9
		s4.5-5.7,7.2-8.2"/>
	<path class="st0" d="M450.4,604.8c-0.1,8.1,7,15.7,15.1,16.2c8.1,0.5,16.1-6.1,17-14.2"/>
	<path class="st0" d="M431.1,623c1.1,3.1,2.3,6.3,4.3,9c2,2.7,5,4.8,8.3,4.9c4.5,0.2,8.4-3.1,10.7-6.9s3.5-8.2,5.6-12.1"/>
	<path class="st0" d="M690.9,466.9c1.7-2.3,3.4-4.5,5-6.8"/>
	<path class="st0" d="M537.6,656.9c3.3,0.5,6.8,1,10.1,0.4s6.6-2.6,7.9-5.7c1.6-4.1-0.5-8.7-3.4-12.1c-2.8-3.3-6.5-6.1-8.5-10"/>
	<path class="st0" d="M557.6,653.8c3.1,1,6.3,2.1,9.6,1.8c3.3-0.2,6.7-2.1,7.7-5.2c1.1-3.2-0.5-6.7-2.5-9.4c-2-2.7-4.6-5.1-5.7-8.3"
		/>
	<path class="st0" d="M557.6,680.5c6.1,2.6,14-0.6,16.7-6.6c2.7-6.1-0.3-14-6.3-16.8"/>
	<path class="st0" d="M576.1,678.4c5.7,0.5,12.4,0.6,16-3.9c2.7-3.4,2.5-8.5,0.5-12.5s-5.3-7-8.5-9.9"/>
	<path class="st0" d="M519.7,676.9c4-1.8,8.1-3.7,11.3-6.6s5.5-7.3,5-11.6c-0.4-3.1-2.2-5.8-4.4-8c-2.2-2.2-4.9-3.8-7.5-5.4"/>
	<path class="st0" d="M529,647.9c4.6,0.3,9.1-3.3,9.9-7.8c0.6-3.5-0.8-7.1-3-9.8c-2.2-2.8-5.1-4.8-8-6.9"/>
	<path class="st0" d="M545.7,696.2c3.8-1.4,7.7-3.5,9.6-7.1c2.2-4.2,1.1-9.6-1.6-13.6c-2.7-4-6.7-6.8-10.6-9.6"/>
	<path class="st0" d="M505.6,685.3c3.4-1.3,6.8-2.7,9.6-5.1c2.8-2.3,4.8-5.9,4.5-9.5c-0.3-3.5-2.9-6.5-5.7-8.7
		c-2.8-2.2-5.9-4-8.4-6.6"/>
	<path class="st0" d="M577.4,701.8c5.3,0.9,10.9-2.5,12.6-7.6s-0.9-11.2-5.7-13.5"/>
	<path class="st0" d="M593.5,692.1c2.8,0.1,5.6,0.2,8.4-0.4c2.7-0.6,5.4-2.1,6.8-4.5c1.8-3,1.4-7-0.2-10.2s-4.2-5.7-6.8-8.1"/>
	<path class="st0" d="M704.6,801.9c-2.4-1.5-5.2-2.6-8-2.6c-2.9,0-5.9,1.5-6.9,4c-0.8,1.9-0.3,4.1,0.8,5.9c1,1.8,2.6,3.2,4.2,4.7"/>
	<path class="st0" d="M699.1,788.1c-3-0.5-6.4-1-8.6,0.9c-1.7,1.5-2.1,3.9-1.5,6c0.5,2.1,1.9,4,3.2,5.8"/>
	<path class="st0" d="M690.4,799.1c-3-0.8-6.3-1.4-9,0.1c-2.7,1.5-3.7,4.9-3.2,7.9s2.3,5.5,4.2,8"/>
	<path class="st0" d="M689.4,789.2c-1.7-0.5-3.3-1-5.1-1c-1.7-0.1-3.5,0.3-4.9,1.4c-1.7,1.4-2.3,3.7-1.9,5.7s1.6,3.9,3.1,5.4"/>
	<path class="st0" d="M677.9,798.2c-1.5-0.3-3-0.5-4.6-0.5c-1.5,0.1-3.1,0.6-4.2,1.6c-1.6,1.5-1.8,4-1.1,6c0.7,2,2.1,3.8,3.5,5.4"/>
	<path class="st0" d="M685.8,775.4c-3.2-0.4-6.5,1.4-7.8,4.1s-0.5,6.3,1.9,8.3"/>
	<path class="st0" d="M677,782.1c-3.7,0-7.3,2.2-8.7,5.4s-0.7,7.2,1.9,9.7"/>
	<path class="st0" d="M673.3,768.7c-3.4,0.8-6.1,3.9-6.2,7.2c-0.1,2.3,1,4.6,2,6.7"/>
	<path class="st0" d="M666.5,778.3c-3,0.1-5.9,1.8-7.3,4.2s-1.5,5.7,0,8.2"/>
	<path class="st0" d="M662.2,792.4c-2.1-1-4.8-0.4-6.5,1.1s-2.5,3.8-2.2,6s1.4,4.2,3,5.9"/>
	<path class="st0" d="M657.2,781.2c-1.8,1.2-4,1.7-6.1,2.4c-2.1,0.7-4.2,1.8-5,3.8c-1.2,2.7,0.6,5.8,2.3,8.3"/>
	<path class="st0" d="M651.3,771.6c-3.6,0.1-7.3,2.1-8.6,5.2s0.3,7.4,3.8,8.4"/>
	<path class="st0" d="M642,763.1c-3.1,0.3-5.8,2.8-6.2,5.7c-0.5,2.9,1.3,6,4.1,7.2"/>
	<path class="st0" d="M635.2,770.4c-2,0.6-4.1,1.5-5.7,2.8s-2.9,3.2-2.9,5.3c-0.1,2,1.2,4.2,3.2,4.9"/>
</g>
<g id="Layer_5">
	<path class="st0" d="M610.2,417.3c-0.2,5.2,0.9,10.6,3.7,15c2.8,4.4,7.5,7.7,12.7,8.3c5.2,0.5,10.7-2,13.2-6.5"/>
	<path class="st0" d="M579.8,428.1c0.5,6,1.4,12.6,6,16.5c3.9,3.3,9.8,3.6,14.7,2s9.1-4.8,13.2-7.9"/>
	<path class="st0" d="M562.5,441.8c-0.1,3.1-0.2,6.3,0.4,9.4c0.5,3.1,1.8,6.1,4,8.3c3.2,3.2,8.2,4.1,12.7,3.5
		c4.5-0.6,8.7-2.7,12.6-4.9"/>
	<path class="st0" d="M592.7,447.5c-1.4,3.7-2.3,7.8-1.7,11.8s2.5,7.8,5.9,10s8,2.5,11.3,0.2"/>
	<path class="st0" d="M542.8,455.2c-1.6,7.2,1.4,15.2,7.3,19.6c5.9,4.4,14.5,4.9,20.9,1.3"/>
	<path class="st0" d="M566.3,490.1c-1.3,3.7-2.5,7.4-2.9,11.3s0.2,8,2.3,11.2c2.2,3.2,6.1,5.4,10,4.8"/>
	<path class="st0" d="M522,479.8c0.2,4,3,7.7,6.5,9.6s7.8,2.3,11.8,1.7s7.8-2.2,11.5-3.9"/>
	<path class="st0" d="M527.6,507.5c-1.5,3.5-1.4,7.5,0.1,11s4.6,6.2,8.2,7.3c6.2,2,13-0.5,18.6-3.8"/>
	<path class="st0" d="M557.4,511.7c-1,3.9-1.8,7.9-1.5,12s2,8.1,5.3,10.5s8.3,2.4,11.1-0.5"/>
	<path class="st0" d="M542,527.5c-0.9,4.3-1.8,8.8-1.1,13.2c0.6,4.4,3,8.8,7.1,10.6c3.7,1.6,8.2,0.8,11.7-1.2s6.3-5,9.1-8"/>
	<path class="st0" d="M471.1,532.5c1,5.5,2.8,11,5.3,16c1,2.1,2.2,4.2,4.1,5.6c3.5,2.6,8.6,2.1,12.4-0.2s6.5-5.8,9.1-9.3"/>
	<path class="st0" d="M450.5,549.8c0.1,2.4,0.3,4.8,1,7s2,4.5,3.9,5.8c2.5,1.7,5.8,1.7,8.6,0.7s5.3-2.9,7.5-4.9
		c2.8-2.6,5.3-5.5,7.5-8.7"/>
	<path class="st0" d="M461,563.8c-0.1,3.3-0.3,6.6,0.4,9.8c0.7,3.2,2.2,6.4,4.9,8.3c3.4,2.4,8,2.5,11.9,1.2
		c3.9-1.3,7.3-3.8,10.5-6.4"/>
	<path class="st0" d="M475.5,585c1.4,6.1-0.8,13.1,2.5,18.5c3,4.9,9.9,6.3,15.5,4.7c5.6-1.6,10.1-5.5,14.5-9.2"/>
	<path class="st0" d="M452.3,603.3c-0.4,5.3,1.9,10.7,6,14c4.1,3.3,10,4.4,15,2.8s9.1-6.1,10.2-11.3"/>
	<path class="st0" d="M506.9,686.5c3.7-0.7,7.1-2.9,9.2-6.1s2.8-7.2,2-10.8c-0.8-3.7-3.2-6.9-6-9.5c-2.8-2.5-6.1-4.5-9.3-6.5"/>
	<path class="st0" d="M518.4,674.9c6.4-0.3,12.5-4.5,15-10.4c0.8-1.9,1.3-4.1,1.1-6.2c-0.3-3-2-5.7-4.1-7.7
		c-2.1-2.1-4.7-3.7-7.2-5.2"/>
	<path class="st0" d="M529.2,649.5c3.1-0.3,6.4-0.8,8.5-3c2.3-2.5,2.3-6.4,1.4-9.7c-1.7-6.7-6.3-12.7-12.3-16"/>
	<path class="st0" d="M536.1,659.1c3.4,0.2,6.8,0.4,10.1-0.2s6.6-2.3,8.4-5.2c2.8-4.2,1.8-10-0.9-14.1s-7-7.1-11.1-9.9"/>
	<path class="st0" d="M545.8,695.4c5.3,0.2,10.2-4,11.5-9.2s-0.5-10.8-4-14.8s-8.3-6.7-13.3-8.3"/>
	<path class="st0" d="M555.5,680.3c4.5,0.9,9.5,0.8,13.5-1.4c4.1-2.2,7-6.8,6.5-11.4c-0.3-2.7-1.8-5.1-3.7-7
		c-1.9-1.9-4.2-3.3-6.6-4.6"/>
	<path class="st0" d="M573.6,677.4c3.4,0.3,6.9,0.6,10.3-0.1s6.7-2.6,8.3-5.7c1.7-3.3,1.1-7.5-0.7-10.8s-4.5-5.9-7.2-8.5"/>
	<path class="st0" d="M590.4,691.3c2.7,0.5,5.3,1.1,8,1.1s5.5-0.7,7.6-2.4c3.5-2.8,4.5-7.9,3.3-12.2s-4.4-7.8-8-10.5"/>
	<path class="st0" d="M706.7,804c-3.5-2.3-7.8-3.7-12.1-3.8c-1.5,0-3,0.1-4.1,1c-1.7,1.5-1.3,4.1-0.2,6s2.7,3.6,3.3,5.7"/>
	<path class="st0" d="M700,789.1c-1.4-0.7-2.9-1.4-4.4-1.7c-1.6-0.3-3.3-0.2-4.7,0.5c-2.2,1.3-3,4.1-2.5,6.5s2,4.5,3.5,6.6"/>
	<path class="st0" d="M690.8,797.2c-1.8-0.4-3.6-0.8-5.5-0.8s-3.8,0.6-5,1.8c-1.8,1.7-2,4.4-1.8,6.9c0.4,3.1,1.4,6.1,3.1,8.8"/>
	<path class="st0" d="M688.2,787.8c-2.9-0.8-6.2-1.6-8.8,0c-2.2,1.3-3.1,4-2.7,6.4s1.9,4.5,3.7,6.3"/>
	<path class="st0" d="M676.8,796.7c-2.2-0.4-4.7-0.7-6.3,0.7c-0.7,0.6-1.1,1.4-1.4,2.3c-0.7,1.8-1,3.8-0.7,5.7s1.2,3.8,2.7,5.1"/>
	<path class="st0" d="M686.4,774.8c-2.5-1-5.6-0.4-7.7,1.2c-2.1,1.7-3.1,4.3-3,6.9c0.1,2.6,1.4,5,3.3,6.9"/>
	<path class="st0" d="M676.6,782.5c-2.3-0.5-4.9,0.4-6.5,2.1s-2.4,4-2.3,6.3c0,2.3,0.8,4.5,2,6.5"/>
	<path class="st0" d="M673.2,769c-3.9,1.1-7,4.3-7.7,8.1s1.1,7.9,4.4,10.1"/>
	<path class="st0" d="M667.1,778c-3.4-0.3-6.8,1.4-8.4,4.3s-1.2,6.5,1,9"/>
	<path class="st0" d="M666.2,793.6c-2-0.2-4-0.8-6-1.1s-4.3,0-5.7,1.5c-1.3,1.4-1.4,3.5-1.3,5.4"/>
	<path class="st0" d="M636.5,771c-1.6,0-3.3,0-4.8,0.3c-1.6,0.3-3.1,1-4.2,2.1c-1,1-1.6,2.3-1.8,3.7c-0.4,2.2,0.2,4.9,2.2,6"/>
	<path class="st0" d="M642.8,764.5c-3.2-0.1-6.3,1.9-7.2,4.8s0.5,6.2,3.2,7.8"/>
	<path class="st0" d="M620.6,712.8c3.1,1.6,6.8,3.1,10,1.7c2.9-1.3,4.3-4.9,4.1-8.1s-1.6-6.2-3-9"/>
	<path class="st0" d="M636.6,711.2c1.3,1.8,4.2,2,6.1,0.8s2.9-3.5,3-5.8s-0.3-4.5-0.9-6.7"/>
	<path class="st0" d="M632.6,727.7c3.7,0.6,7.7-1.3,9.6-4.6c1.9-3.2,1.6-7.6-0.7-10.6"/>
	<path class="st0" d="M623,630.2c4.2-1.4,8.5-2.9,12.9-3.3s9.1,0.4,12.7,3c4.7,3.4,6.9,9.5,7,15.4c0.1,5.8-1.6,11.5-1.4,15.3
		c3-5.2,7.8-9.3,13.5-11.4c2.7-1,5.8-1.6,8.6-0.6c3.2,1.2,5.3,4.1,6.9,7.1c2.7,5.2,4.4,11,4.8,16.9"/>
	<path class="st0" d="M667.8,635.8c4.2-5.2,10.3-8.8,16.8-10.1c2.5-0.5,5.3-0.6,7.6,0.6c2.8,1.4,4.5,4.3,5.6,7.1
		c1.2,2.9,2,5.9,3.8,8.5"/>
	<path class="st0" d="M701.1,565.2c4.2-2.9,8.6-5.6,13.5-6.9s10.6-0.8,14.5,2.4c2.9,2.3,4.6,5.8,5.5,9.3s1,7.3,1,11"/>
	<path class="st0" d="M728.9,556.2c6.5-4.9,14.1-9.3,22.2-8.5c5.4,0.5,10.5,3.3,13.7,7.7c3.2,4.3,4.5,10,3.5,15.3"/>
	<path class="st0" d="M762.1,546.1c5.9-5.8,14-9.3,22.2-9.8c2.9-0.2,6,0.1,8.5,1.7c2.8,1.8,4.3,5.2,5.3,8.4s1.4,6.7,2.9,9.7"/>
	<path class="st0" d="M745,522.7c5.4-7.4,15.6-10.9,24.4-8.3c8.8,2.6,15.5,11,16,20.2"/>
	<path class="st0" d="M777.2,515.6c5.1-7,14.7-10.4,23-8.1c8.3,2.3,14.9,10.1,15.7,18.7"/>
	<path class="st0" d="M785.8,458.5c3.8-3,7.7-6,12.3-7.5c4.6-1.5,10-1.2,13.7,2c4.7,4.1,5.1,11.6,9.9,15.6"/>
	<path class="st0" d="M794.5,422.8c6.7-3.6,14.4-6.5,21.8-4.5c8,2.1,14,10.2,13.5,18.5"/>
	<path class="st0" d="M811.8,453.1c3.5-3.5,7.3-6.9,12-8.4s10.4-1,13.8,2.6c3.9,4.1,4,11.2,8.6,14.6"/>
	<path class="st0" d="M804.5,399.1c4.1-2.2,8.2-4.5,12.8-5.5c4.5-1,9.6-0.5,13.3,2.4c3.6,2.8,5.2,7.5,5.5,12.1s-0.9,9-2,13.5"/>
	<path class="st0" d="M834.9,414.2c3.1-1.6,6.2-3.2,9.6-3.9s7.1-0.6,10.1,1.2c3.4,2,5.3,5.9,6,9.7s0.1,7.8-0.6,11.7"/>
	<path class="st0" d="M809,363.3c4.4-1.6,9-3.2,13.7-3.3c4.7-0.1,9.7,1.4,12.7,5c2.5,3,3.3,7.1,3,11s-1.5,7.6-2.6,11.4"/>
	<path class="st0" d="M766.3,430.2c4.5-2.7,9-5.5,14-6.7c5.1-1.3,10.8-0.8,14.9,2.4c5.8,4.6,6.6,13.1,11.1,19"/>
	<path class="st0" d="M882.5,398.3c1.9-4,3.8-8,4.8-12.4c1-4.3,0.9-9-1-13c-2.3-4.6-6.9-7.8-11.8-9.2c-4.9-1.5-10.2-1.4-15.3-0.8"/>
	<path class="st0" d="M880.8,367.9c3.7-3.7,7-8.4,6.4-13.5c-0.6-5.3-5.4-9.3-10.5-10.7s-10.6-0.6-15.8,0.2"/>
	<path class="st0" d="M908.9,379c4.1-2,7.2-5.9,8.4-10.3c1.1-4.4,0.2-9.3-2.4-13.1c-2.5-3.6-6.4-6-10.6-7.3s-8.6-1.5-12.9-1.4"/>
	<path class="st0" d="M935,425.8c6.4-0.9,12-5.6,14.5-11.5s2.1-13-0.7-18.8c-2.7-5.9-7.6-10.6-13.3-13.6"/>
	<path class="st0" d="M950.1,405.6c8.9-3,15.5-11.8,15.9-21.2c0.4-9.4-5.5-18.7-14.1-22.5"/>
	<path class="st0" d="M942.1,450.2c7.4-1.5,14.5-4.9,20.2-9.8c2.4-2,4.6-4.4,5.8-7.2c2.2-5,1.2-10.9-1.4-15.6s-6.5-8.7-10.3-12.5"/>
	<path class="st0" d="M985.1,399.6c5.4-0.6,10-5.1,11.5-10.3s0.5-11-1.8-15.9s-5.9-9.2-9.5-13.3"/>
	<path class="st0" d="M996,385.8c4.8,0.9,9.8,1.7,14.6,0.7s9.5-4.1,11-8.8c0.9-3,0.5-6.3-0.7-9.2s-3-5.5-4.7-8.1"/>
	<path class="st0" d="M1041.9,426.6c2.9,4.9,6.8,9.1,11.5,12.4c1.5,1,3.2,2,5,2c3.2-0.1,5.3-3.3,6.5-6.2c2-5.2,2.7-10.9,1.8-16.4"/>
	<path class="st0" d="M1021.4,448.5c2.9,3,6.4,5.5,10.5,6.6s8.6,0.7,12-1.6c5.2-3.5,6.8-10.5,6.8-16.8"/>
	<path class="st0" d="M1042.5,452.6c1.2,3.2,4.1,5.7,7.5,6.4c1.5,0.4,3.1,0.4,4.5-0.2c1.7-0.7,2.9-2.2,3.9-3.8
		c2.8-4.5,3.9-10.1,3.1-15.4"/>
	<path class="st0" d="M1056.7,458.2c-0.2,1.9-0.4,3.9,0.1,5.8s1.8,3.7,3.6,4.2c1.6,0.5,3.3-0.1,4.6-1c1.3-0.9,2.3-2.3,3.2-3.6
		c2.9-4.6,4.8-10,5.5-15.4"/>
	<path class="st0" d="M1037.4,471.2c0.4,3.6,2.9,7,6.3,8.4c3.4,1.4,7.5,0.9,10.4-1.4c3.8-3,5.1-8.1,6.1-12.8"/>
	<path class="st0" d="M1027.4,504c-0.4,4.3-0.6,9.1,2.2,12.3c2.8,3.1,7.7,3.5,11.6,2c3.9-1.6,6.9-4.8,9.5-8"/>
	<path class="st0" d="M1022.2,517.5c-0.5,2-1,4-0.9,6c0.1,2,0.8,4.1,2.5,5.4c2.3,1.8,5.6,1.4,8.4,0.4c4.3-1.7,8.1-5.1,10.2-9.2"/>
	<path class="st0" d="M1101.7,543.3c-0.8-3.3,0.5-7.1,3-9.4s6.2-3.3,9.6-2.8s6.6,2.4,8.8,5"/>
	<path class="st0" d="M1115,528.3c0.1-4.5,3.4-8.7,7.7-10.1s9.3,0.3,12,4"/>
	<path class="st0" d="M1120.6,545.4c1.6-4.2,4.1-8.4,7.9-10.8s9.2-2.9,12.8-0.2"/>
	<path class="st0" d="M1104.6,577.6c0.1-6.4,4.7-12.5,10.9-14.3s13.4,0.8,16.9,6.1"/>
	<path class="st0" d="M1129.2,582.7c0.5-5,3.7-9.6,8.1-12c4.4-2.3,10-2.3,14.4,0.1"/>
	<path class="st0" d="M1104.6,594c2.5-4.9,7.5-8.5,13-9.3c5.5-0.8,11.3,1.2,15.1,5.3"/>
	<path class="st0" d="M1127.3,674.6c1.9-6.8-1.1-14.7-7.2-18.4s-14.5-2.8-19.6,2"/>
	<path class="st0" d="M1109.3,657.1c0.7-3.3,1-6.9-0.4-9.9c-1.7-3.6-5.7-5.7-9.6-5.9s-7.8,1.3-11.1,3.5"/>
	<path class="st0" d="M1135.3,689.8c0.8-4.1-0.9-8.4-3.9-11.3s-7.1-4.4-11.3-4.7s-8.3,0.4-12.3,1.6"/>
	<path class="st0" d="M1110,702.6c3.5-4.8,3.5-11.9,0.1-16.8s-10-7.3-15.8-5.7"/>
	<path class="st0" d="M1088.6,719.7c2.5-3.2,4.8-6.7,6.1-10.6c1.2-3.9,1.3-8.3-0.5-12s-5.8-6.4-9.8-6.1"/>
	<path class="st0" d="M1090.8,751.8c5.2-1.8,9.1-7.1,9-12.6s-3.9-10.8-9.1-12.6"/>
	<path class="st0" d="M1065.6,764.7c3.9-1.1,6.9-4.5,8.5-8.2c1.8-4,2.2-8.7,0.5-12.7c-1.7-4-5.7-7.1-10.1-7.1"/>
	<path class="st0" d="M1057.6,739.1c2.5-1,5-2.4,6.9-4.4c1.9-2,3.1-4.7,3-7.4c-0.2-2.7-1.7-5.1-3.6-6.9s-4.4-3-6.9-4"/>
	<path class="st0" d="M1073.6,738.9c3.1-2.3,6.3-4.7,8.7-7.7c2.5-3,4.2-6.8,4.1-10.7s-2.4-7.9-6.1-9.2"/>
	<path class="st0" d="M1063.3,715.8c1.8-2.2,3.6-4.4,4.8-7c1.1-2.6,1.5-5.7,0.4-8.2c-1-2.3-3-4-5.3-5c-2.2-1.1-4.7-1.6-7.2-2"/>
	<path class="st0" d="M1052.7,760c4-4.9,4.9-12.1,2.2-17.9s-8.9-9.6-15.3-9.5"/>
	<path class="st0" d="M1030.7,773.5c3.3-3.8,5.4-8.7,6-13.7c0.2-2.1,0.2-4.2-0.7-6.1c-0.8-1.8-2.2-3.2-3.8-4.3
		c-5-3.8-11.6-5.4-17.8-4.5"/>
	<path class="st0" d="M832.5,389.1c4.2-1.6,7.9-4.1,11.9-5.9s8.8-2.7,12.9-1c4.1,1.8,6.7,6,7.6,10.4s0.4,8.9-0.1,13.3"/>
	<path class="st0" d="M834.8,391.7c3.5-3.8,8.1-6.4,13.1-7.5c2.2-0.5,4.5-0.6,6.7-0.1c4.4,1.1,7.7,5,9.2,9.3s1.7,8.9,1.8,13.5"/>
	<path class="st0" d="M953.9,727.8c-0.9,1.6-1,3.7-0.1,5.4c0.8,1.7,2.5,2.9,4.4,3.2c2.1,0.3,4.3-0.6,5.9-2s2.9-3.2,4.1-5"/>
	<path class="st0" d="M959.3,735c0.2,1.2,0.3,2.4,0.8,3.5s1.3,2.1,2.4,2.5c1.5,0.6,3.3,0,4.7-0.8c2.6-1.4,4.8-3.3,6.6-5.7"/>
	<path class="st0" d="M953.4,743.5c0.3,2.5,0.7,5.2,2.8,6.5c1.8,1.1,4.2,0.8,6-0.3s3.1-2.8,4.3-4.5"/>
	<path class="st0" d="M954.9,758c-0.7,2.8,0.8,5.9,3.4,7s6,0.1,7.5-2.3"/>
	<path class="st0" d="M941.4,759.8c0,1.5,0,3,0.4,4.5c0.4,1.5,1.2,2.9,2.4,3.7c1.6,1,3.7,1,5.4,0.4s3.3-1.8,4.8-2.9"/>
	<path class="st0" d="M949.7,767.6c0.2,1.4,0.4,2.7,1,4c0.6,1.2,1.5,2.4,2.8,2.8c1.6,0.5,3.3,0,4.7-1c1.3-1,2.3-2.3,3.3-3.7"/>
	<path class="st0" d="M911.1,687.8c2.3-1.3,4.2-3.2,6.5-4.5s5.3-1.8,7.5-0.5c1.5,0.9,2.5,2.6,3,4.3c1.5,5-0.2,10.3-1.9,15.3"/>
	<path class="st0" d="M894.4,713.5c2.4-1.3,4.2-3.4,6.2-5.2c2.1-1.8,4.6-3.3,7.3-3.2c3,0.2,5.6,2.4,6.9,5.1c1.2,2.7,1.3,5.9,1,8.8"
		/>
	<path class="st0" d="M895.4,690.5c4.7-3.2,11.5-3,16,0.5s6.2,10.2,2.2,16.1c3.2-2.1,6.4-4.2,10.2-4.9c3.7-0.7,8,0.2,10.2,3.2
		c1.7,2.3,1.9,5.3,1.8,8.2"/>
	<path class="st0" d="M916.7,533.9c-1.3,2.9-2.6,5.8-3.2,8.9s-0.3,6.5,1.4,9.1c2.3,3.5,6.8,5.2,11,4.9c4.2-0.4,8.1-2.5,11.3-5.2"/>
	<path class="st0" d="M928.3,554.6c-2.5,3.6-1.7,8.8,1.3,12s7.8,4.2,12,3.3c4.2-1,7.9-3.8,10.5-7.2"/>
	<path class="st0" d="M919.7,567.7c-1.2,4.2-2.2,9.2,0.6,12.6c1.8,2.1,4.6,3,7.3,3.2c6.7,0.5,13.5-2.8,17.3-8.3"/>
	<path class="st0" d="M884,616.3c-0.9,3.9-1.8,8.3,0.5,11.6c1.6,2.3,4.3,3.4,7.1,3.8c4.5,0.6,9.1-0.6,13-2.9s7-5.7,9.5-9.5"/>
	<path class="st0" d="M881.7,639.1c0.4,4,1,8.4,4.2,10.8c2.9,2.2,7.2,1.8,10.4,0c3.2-1.8,5.4-4.9,7.5-7.9"/>
	<path class="st0" d="M935.4,528.3c-1,3.2-2.1,6.5-2.1,9.9c0,3.4,1.3,7,4.1,8.9c3.6,2.5,8.5,1.7,12.7,0.6"/>
	<path class="st0" d="M934.8,338.7c5.6,1.2,11.3,1.7,17,1.5c2-0.1,4.2-0.4,5.6-1.7c1.3-1.3,1.8-3.3,1.5-5.1s-1.2-3.5-2.2-5
		c-3.1-4.6-7.4-8.5-12.4-10.9"/>
	<path class="st0" d="M960.5,338.9c2.8,0,5.4,0.8,8.1,1.5s5.4,1.4,8.1,1.1s5.5-2,6.3-4.6c1.1-3.1-0.8-6.5-2.8-9.2"/>
	<path class="st0" d="M936.6,340.7c3.2,0.1,6.4,1.2,9.6,1.8s6.8,0.6,9.4-1.3c2.8-2.1,3.8-6,3.2-9.4s-2.4-6.5-4.3-9.5"/>
	<path class="st0" d="M1107.2,489.4c-0.6-4.9,2.2-10.1,6.7-12.2c4.5-2.1,10.3-1,13.7,2.7"/>
	<path class="st0" d="M1108.8,461.1c0.3-3.1,1.1-6.3,3.1-8.8c2-2.4,5.4-3.9,8.4-3c3.7,1.2,5.4,5.3,6.7,8.9"/>
	<path class="st0" d="M1132.4,622c2.3-6,9.5-9.6,15.7-8c6.2,1.6,10.7,8.2,9.9,14.5"/>
	<path class="st0" d="M1138.2,642c1.8-3.9,4.5-7.6,8.1-9.9s8.3-3.3,12.4-1.8c4.1,1.5,7.1,5.8,6.7,10"/>
	<path class="st0" d="M549.8,577.1c2.5,3.5,5.6,7.1,9.8,7.9c4.2,0.7,8.4-1.7,11-5c2.6-3.3,3.9-7.5,5.2-11.5"/>
	<path class="st0" d="M564.6,587.2c0,5,4.1,9.5,9,10.1s10-2.8,11.2-7.6"/>
	<path class="st0" d="M674.8,606c4.4-2.3,9-4.1,13.7-5.4c3.5-0.9,7.6-1.5,10.7,0.5c3.1,2.1,4.2,6.1,4.4,9.9c0.3,6-0.8,12-3.3,17.4"
		/>
	<path class="st0" d="M749.8,638.8c4-3.8,8.2-7.6,13.3-9.7c5.1-2.1,11.4-2.1,15.7,1.4c4.4,3.6,5.5,9.8,6.3,15.5"/>
	<path class="st0" d="M749.7,614.1c4.6-4.6,10.4-7.8,16.7-9.4c2.4-0.6,5.1-0.9,7.2,0.5c1.5,1,2.5,2.8,3.2,4.5
		c2.2,5.3,3,11.1,2.6,16.8"/>
	<path class="st0" d="M750.3,642.4c3.2-4,6.8-7.9,11.4-10.4s10.3-3.2,14.9-0.8c5,2.6,7.5,8.1,9.7,13.3"/>
	<path class="st0" d="M750.9,617.2c3.4-4.9,8.2-8.8,13.6-11.2c2.3-1,5-1.7,7.3-0.9c2.4,0.9,4,3.2,4.7,5.7c0.7,2.5,0.5,5,0.4,7.6"/>
	<path class="st0" d="M576.5,718.1c-3.6-0.4-7.1,3-7.2,6.8c0,2.2,1,4.4,2.5,6s3.4,2.6,5.4,3.3"/>
	<path class="st0" d="M572.2,730.8c-1.5,1.5-2.9,3.3-3,5.5c-0.2,2.9,2.2,5.3,4.7,6.5c2.5,1.2,5.3,1.5,7.8,2.5"/>
	<path class="st0" d="M560.8,722.2c-2,1.1-3.1,3.6-2.9,6c0.2,2.4,1.7,4.5,3.6,5.8s4.2,1.8,6.4,1.8"/>
	<path class="st0" d="M563.8,736.6c-2.4,2.6-2.2,7.4,0.3,9.9c2.7,2.7,6.7,2.5,10.3,2.2"/>
	<path class="st0" d="M546.5,728.9c-0.3,3.6,1.2,7.2,3.8,9.5c2.6,2.2,6.3,2.9,9.5,1.7"/>
	<path class="st0" d="M554,710.5c0.1,3.1,1.3,6.2,3.4,8.5s4.8,3.8,7.8,4.1"/>
	<path class="st0" d="M552.2,742.4c-1.3,1.8-1.2,4.5,0,6.5c1.2,1.9,3.3,3.1,5.4,3.6s4.3,0.5,6.5,0.4"/>
	<path class="st0" d="M584.6,728.8c-1.2,2.2-3.8,3.5-4.2,6c-0.5,2.5,1.5,4.8,3.6,6s4.6,1.8,6.5,3.4"/>
</g>
<g id="Layer_6">
	<path class="st0" d="M448.9,639.6c0.2,5.6,5.6,10.3,11.1,10.2s10.5-5,11.2-10.5"/>
	<path class="st0" d="M431.8,658.4c2.8,4.9,9.5,7.1,14.7,4.9s8.2-8.7,6.5-14.1"/>
	<path class="st0" d="M445,666c1.6,2.4,3.3,4.9,5.5,6.8c2.2,1.9,5.1,3.2,8,2.9c3.8-0.4,6.9-3.6,8.4-7.2s1.5-7.5,1.6-11.4"/>
	<path class="st0" d="M433.7,688.8c1.8,1.8,3.6,3.6,5.9,4.8s5,1.7,7.4,0.7c3-1.2,4.6-4.4,5.3-7.5s0.8-6.4,1.7-9.4"/>
	<path class="st0" d="M450.9,690.4c1.8,2,3.6,3.9,5.9,5.3c2.2,1.4,5,2.2,7.6,1.6c2.9-0.7,5.1-3.2,6.3-6c1.2-2.8,1.5-5.8,1.8-8.8"/>
	<path class="st0" d="M446.6,664.2c1.2,4.7,5.1,8.7,9.8,9.9c1.3,0.3,2.6,0.5,3.9,0c1.8-0.6,3-2.2,4-3.9c2-3.4,3.4-7.2,4.1-11.2"/>
	<path class="st0" d="M430.5,660.6c2,1.8,4,3.7,6.4,4.9c2.4,1.2,5.3,1.8,7.9,1c3-0.9,5.2-3.4,6.5-6.2c1.3-2.8,1.8-6,2.2-9"/>
	<path class="st0" d="M447.3,640.4c1.2,2.3,2.5,4.7,4.2,6.7c1.8,2,4.1,3.5,6.8,3.8c3.2,0.3,6.4-1.4,8.6-3.8c2.2-2.4,3.6-5.3,5-8.3"
		/>
	<path class="st0" d="M435.3,691.9c1.7,1.6,3.4,3.2,5.4,4.2c2.1,1,4.5,1.4,6.7,0.5c2.2-1,3.6-3.2,4.6-5.4c2.3-5.1,3-10.8,2.2-16.3"
		/>
	<path class="st0" d="M518.7,544.4c-1.4,4.1-2.8,8.2-2.8,12.5c0,4.3,1.5,8.8,4.9,11.4c4.1,3.1,10.7,2.3,13.7-2"/>
	<path class="st0" d="M526,571.7c-0.7,2.7-1.4,5.5-1.3,8.2c0.1,2.8,1.2,5.7,3.4,7.4c2.2,1.7,5.2,2,7.9,1.5s5.2-1.9,7.6-3.2"/>
	<path class="st0" d="M632.9,400.2c-0.6,2.8-1.2,5.6-0.9,8.4c0.2,2.8,1.4,5.7,3.7,7.3c3.7,2.5,8.8,1.2,12.4-1.4
		c3.6-2.6,6.3-6.2,10-8.8"/>
	<path class="st0" d="M648.4,385.9c-0.1,4.1,0.1,8.8,3.2,11.5c3.4,2.9,8.8,1.8,12.1-1.1c3.3-2.9,5.1-7.2,6.8-11.2"/>
	<path class="st0" d="M487.7,517.1c-0.3,2.7-0.7,5.5-0.1,8.2c0.5,2.7,2.1,5.3,4.6,6.4c3.5,1.6,7.5-0.2,10.4-2.6s5.2-5.6,8.4-7.6"/>
	<path class="st0" d="M524.1,736.7c-3.3,2.2-4.4,7.2-2.3,10.6c2.1,3.4,7.1,4.6,10.6,2.5"/>
	<path class="st0" d="M520.9,746.9c-1.2,1.7-2.3,3.4-2.9,5.3s-0.7,4.1,0.3,5.9c0.9,1.7,2.6,2.8,4.5,3.3s3.7,0.7,5.7,0.8"/>
	<path class="st0" d="M508.7,749c-2.2,2.4-2.4,6.5-0.2,9c2.1,2.5,6.2,3.1,8.9,1.2"/>
	<path class="st0" d="M489.7,710.2c-2.8,1.3-4.6,4.6-4.1,7.6s3.1,5.7,6.2,6"/>
	<path class="st0" d="M484.7,718.4c-2.7,0.9-4.6,3.7-4.5,6.5c0,2.8,2,5.5,4.7,6.4"/>
	<path class="st0" d="M474.6,712.9c-2.3,1.8-2.6,5.4-1.4,8.1c1.2,2.7,3.7,4.6,6.3,6"/>
	<path class="st0" d="M495.7,717c-2.5,1.7-3.6,5.3-2.5,8.1c1.2,2.8,4.5,4.6,7.5,4.1"/>
	<path class="st0" d="M501.7,711.3c-1.5,2.1-2,4.9-1.5,7.5c0.3,1.4,0.9,2.8,2,3.7c1.7,1.4,4,1.2,6.2,1.1"/>
	<path class="st0" d="M564.5,770.8c0.8,2.2,1.9,4.4,3.7,6c1.8,1.6,4.3,2.4,6.5,1.7c1.7-0.5,2.9-1.9,3.8-3.4s1.3-3.2,1.8-4.9"/>
	<path class="st0" d="M561.2,782.7c1.1,1.7,2.5,3.3,4.3,4.2s4.1,1.1,5.9,0.1c1.8-1,2.9-3.2,2.2-5.2"/>
	<path class="st0" d="M570.6,790.1c0.8,1.6,1.5,3.3,2.7,4.6s3,2.2,4.8,1.9c2.7-0.4,4.2-3.2,5.3-5.6"/>
	<path class="st0" d="M889.8,780.8c-2.3,0.5-4.6,1.1-6.6,2.4c-2,1.3-3.6,3.3-3.8,5.7c-0.1,2.2,1,4.3,2.7,5.8
		c1.6,1.5,3.6,2.5,5.6,3.5"/>
	<path class="st0" d="M879.4,789.8c-2.9,0.8-6.2,1.8-7.8,4.4c-1.1,1.8-1.2,4-0.8,6c0.4,2,1.4,3.9,2.3,5.8"/>
	<path class="st0" d="M869.6,776.7c-1.2,0.4-2.3,0.8-3.3,1.5s-1.8,1.7-2,2.9c-0.2,1,0.2,2.1,0.7,3c1.6,3.1,4.8,5.3,8.3,5.7"/>
	<path class="st0" d="M865.1,784.8c-2.3,0.3-4.4,1.9-5.1,4.1s-0.2,4.8,1.5,6.4c1.6,1.6,4.2,2.2,6.4,1.4"/>
	<path class="st0" d="M860,794.3c-1.4,0.5-2.8,0.9-4,1.8c-1.2,0.8-2.2,2.1-2.3,3.5c-0.2,1.7,0.8,3.3,2.2,4.4s3,1.7,4.6,2.2"/>
	<path class="st0" d="M850.2,786c-2.5,1.2-3.9,4.2-3.2,6.9c0.7,2.7,3.4,4.7,6.1,4.5"/>
	<path class="st0" d="M848.8,756.5c-2.2-0.3-4.2,1.9-4.2,4.2c0,2.2,1.5,4.3,3.3,5.5s4.1,1.8,6.3,2.3"/>
	<path class="st0" d="M842.7,761.7c-2.3-0.7-4.9,0.2-6.3,2.1c-1.4,1.9-1.4,4.7,0,6.6"/>
	<path class="st0" d="M837.2,752.5c-0.4,1.9,0.1,4,1.3,5.5c1.3,1.5,3.3,2.4,5.2,2.2"/>
	<path class="st0" d="M834.2,756c-2,0.2-3.8,1.8-4.1,3.7c-0.3,2,0.8,4.1,2.6,4.9"/>
	<path class="st0" d="M922.4,786c-1.2,2-0.5,4.7,1.2,6.2c1.7,1.5,4.2,2,6.4,1.7s4.4-1.4,6.3-2.7"/>
	<path class="st0" d="M928,793.6c-0.3,3.3,1.9,6.7,5,7.8s7-0.2,8.8-2.9"/>
	<path class="st0" d="M916.1,799.4c1.2,2.6,3.6,4.7,6.4,5.4c2.8,0.7,5.9,0.1,8.2-1.6"/>
	<path class="st0" d="M997.4,763.6c7.6-1.9,16.3,1.4,20.7,7.9s4.2,15.8-0.4,22.1"/>
	<path class="st0" d="M990.7,784.1c5.1,0.7,10.4,0.4,15.4,1.7s10,4.7,11,9.7c0.8,3.7-0.7,7.6-2.8,10.7"/>
	<path class="st0" d="M996.9,760.9c5.7,0.5,11.7,1.4,16.4,4.6c4.3,2.9,7.2,7.6,8.1,12.6s-0.5,10.5-3.5,14.6"/>
	<path class="st0" d="M1147.1,702.7c-0.8-2.7-1.8-5.6-4.3-6.8c-1.6-0.8-3.6-0.7-5.3-0.2c-3.7,1-6.9,3.4-9,6.6s-2.8,7.2-2.1,10.9"/>
	<path class="st0" d="M1147.6,704.9c2-3.3,0.5-8-2.7-10.1c-3.2-2.1-7.6-1.9-11,0s-5.8,5.1-7.3,8.6c-1.1,2.5-1.8,5.5-0.6,8"/>
	<path class="st0" d="M1140.2,638.9c0.2-5.5-2.6-11-7.2-14.1s-10.7-3.6-15.8-1.3"/>
	<path class="st0" d="M1143.7,612.5c-1.1-5.1-4.7-9.5-9.5-11.6s-10.6-1.5-14.9,1.3"/>
	<path class="st0" d="M1125.5,646.8c4.5-4.4,11.6-5.8,17.4-3.6c2.8,1.1,5.4,3,7,5.6s2.2,5.9,1.2,8.8"/>
	<path class="st0" d="M1136.9,662.4c4.1-2.8,9.6-4,14.3-2.4c4.8,1.7,8.4,6.5,8.1,11.5"/>
	<path class="st0" d="M1125.6,650.5c1.5-3.8,5.6-6.2,9.7-6.4s8.1,1.5,11.3,4c1.7,1.3,3.2,2.9,4.1,4.9s1.2,4.2,0.5,6.2"/>
	<path class="st0" d="M1138.3,645.2c1.8-3.7,4-7.3,7.1-10c3.1-2.7,7.3-4.3,11.4-3.6c4.1,0.7,7.7,4.2,7.8,8.3"/>
	<path class="st0" d="M1134.8,666.7c2.8-4.9,9-7.6,14.5-6.4s10,6.2,10.6,11.8"/>
	<path class="st0" d="M888.7,573.3c1.2,5,5.5,9.2,10.5,10.5s10.7-0.6,14.1-4.6"/>
	<path class="st0" d="M904,583.3c-1.1,3.2-0.1,6.9,2.1,9.4c2.2,2.5,5.5,4,8.8,4.6s6.8,0.2,10.1-0.3"/>
	<path class="st0" d="M879.8,592.8c1.8,5,6.5,8.9,11.8,9.7s10.9-1.4,14.2-5.6"/>
	<path class="st0" d="M917.8,599.3c0,5.2,3.2,10.2,7.9,12.6c4.7,2.3,10.6,1.8,14.8-1.3"/>
	<path class="st0" d="M925.8,614.8c0.5,3,1,6,2.3,8.8c1.2,2.8,3.3,5.3,6.1,6.6c2.8,1.2,6.4,0.9,8.5-1.3"/>
	<path class="st0" d="M906.2,584.6c-0.7,4.7,1.3,9.7,5.1,12.5c3.8,2.8,9.2,3.3,13.4,1.2"/>
	<path class="st0" d="M917.4,598.8c0,4.8,2.7,9.5,6.8,11.9c4.1,2.4,9.5,2.5,13.7,0.1"/>
	<path class="st0" d="M927.7,612.9c-0.1,4.4,0.7,9.1,3.5,12.5s8,5.1,11.8,2.9"/>
	<path class="st0" d="M914,631.8c1.3,3.5,3.2,7,6.3,9c3.1,2.1,7.7,2.2,10.3-0.5"/>
	<path class="st0" d="M992.6,432.3c4.8-0.4,8.9-4.3,10.3-8.9s0.7-9.7-1.4-14s-5.2-8.1-8.6-11.5"/>
	<path class="st0" d="M1006.4,417.6c5.4,1.4,11.6-1,14.6-5.7c2.4-3.7,2.9-8.5,2.2-12.8s-2.5-8.5-4.2-12.6"/>
	<path class="st0" d="M1023.7,408.3c4.1,3.4,10.7,3.4,14.8,0s5.3-9.8,2.7-14.5"/>
	<path class="st0" d="M995.4,459.3c3.7,1.5,8.2,0.5,11.3-2.1s4.8-6.6,5-10.6s-0.9-8-2.7-11.6"/>
	<path class="st0" d="M994.4,464.1c6.2,1.2,12.7-3.3,14.9-9.2c2.2-6,0.8-12.8-2.6-18.2"/>
	<path class="st0" d="M990.7,434.2c3.1,1.6,7.2,0.3,9.5-2.3s3.1-6.3,3.2-9.8c0.1-7.7-3.5-15.4-9.5-20.2"/>
	<path class="st0" d="M1023.2,410c5,2,11.2,0.9,15.2-2.8c4-3.7,5.6-9.7,4-14.9"/>
	<path class="st0" d="M1004.8,417.7c4.7,2.2,10.6,0.8,14.5-2.7s5.8-8.7,6.2-13.9s-0.6-10.4-1.9-15.4"/>
	<path class="st0" d="M873.5,425.1c6.9-4,16.2-3.6,22.8,1c2.5,1.8,4.7,4.2,5.3,7.2c1,5-2.6,9.7-5.9,13.6"/>
	<path class="st0" d="M902,430c4.2-0.9,8.6-1.3,12.8-0.3c4.2,1.1,8.1,3.9,9.5,8c1.5,4-0.1,9.2-3.9,11.1"/>
	<path class="st0" d="M823.1,489.8c1.8-2.2,3.7-4.5,6.2-6.1c2.4-1.6,5.5-2.4,8.3-1.5c2.7,0.9,4.7,3.4,5.6,6.1c1,2.7,1.1,5.6,1.2,8.5
		"/>
	<path class="st0" d="M713.8,487.3c4.1-4.9,9.7-9.2,16.1-9.2c5.3,0,10.2,3.2,13.7,7.3c3.4,4.1,5.6,9,7.7,13.9"/>
	<path class="st0" d="M902.6,313.8c2.7,2,5.9,3.1,8.8,4.8s5.5,4.4,5.8,7.7c0.2,3.1-1.7,6-3.9,8.1s-4.9,3.9-7,6.2"/>
	<path class="st0" d="M894.3,314.4c3.6,0.5,7.2,0.9,10.7,2.2s6.6,3.3,8.6,6.4c0.7,1.1,1.2,2.4,1.4,3.7c0.4,2.5-0.6,5.1-2.1,7.1
		s-3.4,3.7-5.4,5.4"/>
	<path class="st0" d="M884.1,374.6c5.2-0.8,10.7-0.3,15.7,1.4c2.6,0.9,5.1,2.1,7,4c3.2,3.3,4.2,8.4,3.6,13s-2.6,8.9-4.6,13.1"/>
	<path class="st0" d="M872.5,426.5c3.4-1.1,6.8-2.3,10.4-2.8c3.5-0.5,7.3-0.2,10.5,1.4c3.7,1.9,6.5,5.6,7.2,9.7s-0.6,8.6-3.5,11.6"
		/>
	<path class="st0" d="M900.1,432.7c4.2-2,9-2.6,13.5-1.6c3.8,0.8,7.4,2.9,9.4,6.2c2,3.3,1.8,8-1,10.7"/>
</g>
</svg>
