<?xml version="1.0" encoding="utf-8"?>
<!-- Generator: Adobe Illustrator 27.5.0, SVG Export Plug-In . SVG Version: 6.00 Build 0)  -->
<svg version="1.1" id="Layer_1" xmlns="http://www.w3.org/2000/svg" xmlns:xlink="http://www.w3.org/1999/xlink" x="0px" y="0px"
	 viewBox="0 0 800 800" style="enable-background:new 0 0 800 800;" xml:space="preserve">
<style type="text/css">
	.st0{fill:none;stroke:#000000;stroke-miterlimit:10;}
</style>
<g id="Layer_3">
	<path class="st0" d="M393.5,290.3c-1.1-46.8,21.3-91.6,52-126.1c10.6-11.9,22.8-23.1,37.8-27.5s33.3-0.3,41.7,13.3
		c5.8,9.5,5.9,21.6,4.5,32.7c-3.1,25.7-12.9,50.2-26.2,72.2s-30.1,41.5-48,59.6"/>
	<path class="st0" d="M363,324.5c-19.1,18.6-28.2,47.9-22.4,74.5c5.8,26.5,26.5,49.1,52,56c25.5,6.8,54.5-2.8,70.9-24.1
		s18.8-53.1,5.3-76.5s-42.2-36.3-67.8-30"/>
	<path class="st0" d="M336.6,329.7c-29.3-27.8-58.1-56.9-79.2-91.9c-8.6-14.2-15.9-29.7-17.1-46.4s5-34.7,18.5-43.7"/>
	<path class="st0" d="M385.5,312.2c-12-47.5-32.2-92.8-59.1-133.1c-7.2-10.8-15.1-21.4-25.2-29.2c-10.1-7.8-23-12.7-35.5-10.7
		c-12.5,2-24.1,11.9-26.2,24.8"/>
	<path class="st0" d="M335.9,348.8c-58.6-21.7-127.1-12.8-178.3,23.1c-10.4,7.3-21.2,18.3-18.9,31"/>
	<path class="st0" d="M144.1,416.3c54.8,21.7,118.4,18.6,170.8-8.3"/>
	<path class="st0" d="M317.8,422.1c-46.9,42.7-82.5,97.9-102.1,158.3c-3.4,10.4-5.7,23.4,2,31.1c5.8,5.8,15.1,6.1,23.1,4.4
		c17.3-3.7,32-14.8,45.2-26.5c31.4-27.9,66.5-75.3,86.5-112.2"/>
	<path class="st0" d="M397.6,470.6c-1,32.8-1.8,66,5.8,97.9s24.7,62.6,52,79.2c7.5,4.6,16.5,8,24.8,5.3
		c12.4-4.1,17.1-19.4,18.8-32.7c7.3-57.9-10.2-118.7-46.9-163.2"/>
	<path class="st0" d="M473.7,440.7c21.4,25,43.5,49.8,71.3,69.2c27.8,19.3,62.1,33,98.9,32.8c6.5,0,13.6-0.7,18.8-4.5
		c8.8-6.3,8.4-18.1,5-27c-6.5-17-20.3-30.5-35.3-42.1c-37.5-29.2-84.3-49.2-134.7-57.5"/>
	<path class="st0" d="M477.6,331.9c41.9-38.9,99.3-59.4,155.5-55.5c12.2,0.9,25.4,3.4,33.4,12.9c6.1,7.2,8.1,17.5,6.5,27
		c-1.6,9.4-6.6,18-13,25c-14.4,15.9-35.2,23.8-55.5,29.4c-37.3,10.2-76.1,14.4-114.6,12.2"/>
	<path class="st0" d="M237,168.8c-7.7,33,4.9,67.8,25.9,95.7s49.8,50.1,78.2,72"/>
	<path class="st0" d="M273.1,143.6c11.2,1.9,20.7,8.6,28.8,16c30.2,27.5,46.6,64.7,61.5,101"/>
	<path class="st0" d="M325,419.3c-39.9,36.5-72,81.7-93.4,131.8c-5.4,12.7-10.2,26.1-9.9,39.9c0.1,6.3,1.8,13.3,7.1,16.5
		c6.1,3.7,13.9,1,20.2-2.3c46.7-23.6,90.6-79.5,118.4-124.3"/>
	<path class="st0" d="M392.1,474.9c-4.4,34.3-2.2,69.5,6.3,103c3.7,14.7,8.8,29.3,16.5,42.2c7.8,12.9,18.5,24.3,31.7,31
		c11.1,5.6,25.1,7.5,35.2,0.1c10.1-7.4,12.9-21.5,13.9-34.3c4.1-56.2-13.9-113.9-49.2-156.9"/>
	<path class="st0" d="M473.4,452.6c24.3,27,49.6,53.6,80.1,72.6c30.5,19,67.3,29.7,102.2,22.1"/>
	<path class="st0" d="M495.1,391.4c40.2,0.4,80.5-5.8,118.9-18.4c17.1-5.6,34.2-12.7,47.5-25c13.4-12.3,22.5-30.8,20-49.2"/>
	<path class="st0" d="M670.6,280.3c-32-13.6-68.9-10.5-101.4,1.8c-32.5,12.3-61.2,33.1-88.7,54.9"/>
	<path class="st0" d="M142.7,409.3c28.1,14.9,60.7,19.2,92.2,16.6s62.1-11.9,91.8-23.2"/>
	<path class="st0" d="M132.1,412.1c-1.2-19.9,9.8-39.1,25.1-51.3c15.3-12.2,34.4-18.2,53.4-21.7c41.7-7.8,85.3-4.6,125.5,9.3"/>
	<path class="st0" d="M226.9,532.6C250.3,478.1,291.5,432,342,403.4"/>
	<path class="st0" d="M470.7,456c26.6,31.1,60.3,55.8,97.6,71.4"/>
	<path class="st0" d="M398.1,312.9c-6-37.5,3-77.3,24.6-108.1"/>
	<path class="st0" d="M266.8,245.8c19.4,35.6,48.6,65.6,83.2,85.4"/>
	<path class="st0" d="M229.4,418.7c37.7-1.9,75.1-10.6,110-25.5"/>
	<path class="st0" d="M469.8,352.2c19.4-26.4,50.8-39.5,80.7-51.4"/>
	<path class="st0" d="M434.2,323.7c26.3-16.2,48-40.3,61.9-68.5"/>
	<path class="st0" d="M475.9,413.6c30.9,0.5,61.6,8.9,88.7,24.2"/>
	<path class="st0" d="M406.1,457.6c-5.6,31-6.9,62.7-4,94"/>
	<path class="st0" d="M375.7,452.6c-14,28.8-30.9,56.1-50.2,81.4"/>
	<path class="st0" d="M329.1,340c-38.5-12.7-80.1-15.2-119.8-7.1"/>
	<path class="st0" d="M485.5,406.1c45.2,3.7,89.5,19.4,127.4,45.2"/>
</g>
<g id="Layer_4">
	<path class="st0" d="M386.2,322.7c-17.4,5.1-32.3,18.4-40,35.3s-8.4,37-2.1,54.6s19.1,32.4,35.1,41c10.9,5.9,23.4,9.1,35.7,8.4
		c12.7-0.8,25-5.6,35.9-12.5c9.4-6,18.1-13.8,22.7-24.2c3.9-9,4.4-19.1,4.5-29c0.1-11.2-0.4-22.9-5.4-32.9
		c-4.6-9.4-12.8-16.4-21.4-22.1c-13.4-9-29.3-15.7-45-13"/>
	<path class="st0" d="M376.2,333.3c-17.5,19.9-27.5,46.6-27.7,73.5"/>
	<path class="st0" d="M385.5,334.5c-18.1,28.3-27.3,62.6-25.7,96.5"/>
	<path class="st0" d="M398,335.4c-16.4,33.8-25,71.6-24.9,109.4"/>
	<path class="st0" d="M417.4,336c-16.2,37.3-25.7,77.6-28.1,118.4"/>
	<path class="st0" d="M434.4,345.5c-13.8,34.2-22.5,70.6-25.9,107.6"/>
	<path class="st0" d="M447.5,351.1c-11.6,31.6-20,64.5-25,98"/>
	<path class="st0" d="M461.9,358.5c-9.5,26.4-16.7,53.6-21.7,81.3"/>
	<path class="st0" d="M468.6,369.8c-3.5,17.9-8.2,35.5-14,52.8"/>
	<path class="st0" d="M389.3,298.8c-3.8-59.1,23.9-119.4,70.5-153.8c14-10.3,31.8-18.6,48-12.7c15,5.5,24.1,22.1,25.4,38.5
		c1.3,16.4-3.8,32.5-9.8,47.7c-16.4,41.8-40.2,81.1-73.3,110.4"/>
</g>
</svg>
