<?xml version="1.0" encoding="utf-8"?>
<!-- Generator: Adobe Illustrator 27.5.0, SVG Export Plug-In . SVG Version: 6.00 Build 0)  -->
<svg version="1.1" id="Layer_1" xmlns="http://www.w3.org/2000/svg" xmlns:xlink="http://www.w3.org/1999/xlink" x="0px" y="0px"
	 viewBox="0 0 800 800" style="enable-background:new 0 0 800 800;" xml:space="preserve">
<style type="text/css">
	.st0{fill:none;stroke:#000000;stroke-miterlimit:10;}
</style>
<g id="Layer_2_00000139978855178128924690000010904975951351457410_">
	<path class="st0" d="M496.4,403.5c26.3,11.1,51.5,24.9,78.5,34.5c26.9,9.6,56.2,15.1,84.1,8.8c20.8-4.7,40.2-15.9,54.3-31.9
		c14.2-16,23-36.6,24.5-57.9c1.8-25.6-6.5-52.6,3.3-76.3"/>
	<path class="st0" d="M488.5,384.8c46.3,16.6,101.1,7.4,139.3-23.6c19.1-15.4,33.8-35.4,51.4-52.6c17.5-17.2,39.3-32.1,63.8-33"/>
	<path class="st0" d="M493.5,384.6c7.4,0.5,14.8,2.2,21.7,5"/>
	<path class="st0" d="M506.4,387.8c11.5,2.7,23.4,3.5,35.1,2.3"/>
	<path class="st0" d="M534.6,391.7c12.3-0.2,24.5-1.7,36.4-4.6"/>
	<path class="st0" d="M566.8,388.3c10.7-1.4,21.1-5.4,29.9-11.5"/>
	<path class="st0" d="M595.2,383.3c7.5-4.9,14.4-10.6,22.9-15.6c6.3-5.1,12-11.1,16.9-17.6"/>
	<path class="st0" d="M636,356c10.7-12.2,19.8-25.8,27-40.3"/>
	<path class="st0" d="M657.6,332.1c5.1-8.9,11.4-17.1,18.6-24.4"/>
	<path class="st0" d="M680.4,306.3c8.2-9.8,19.2-17.2,31.3-21.1"/>
	<path class="st0" d="M702.7,288.7c9.8-6.7,21.6-10.3,33.5-10.2"/>
	<path class="st0" d="M740.4,279.3c-6.3,20.7-4.1,42.9-4.1,64.5s-3.1,44.9-17.6,61"/>
	<path class="st0" d="M715.9,411.5c-14.1,16-33,27.8-53.6,33.5"/>
	<path class="st0" d="M498.5,403.1c19.9,7.1,38.1,18,57.1,27.2c19,9.2,39.3,17,60.4,17.1"/>
	<path class="st0" d="M626,448c11.8,0.3,23.6-0.4,35.2-2.3"/>
	<path class="st0" d="M498.3,405.3c18.8,2.8,35.5,13.1,52.3,22.1s35.4,17,54.2,14.5"/>
	<path class="st0" d="M616.6,446.9c19.2,1.4,38.7-0.6,57.2-6"/>
	<path class="st0" d="M725.2,395.8c-7.9,12.8-18.2,24-30.2,32.9"/>
</g>
<g id="Layer_5">
	<path class="st0" d="M641.5,349.4c10.2-10.3,23-18,37.9-23.4c-4.4,13.9-11,27-17.9,40.2c10.5-9,20.5-18.5,30.6-29.1
		c6,6.6,8.2,15.8,7.9,24.7c-0.2,8.9-2.8,17.5-5.8,27.8c10.8-14.8,19.2-31.4,24.5-47.7c10.4,13.6,12.7,32.9,5.7,48.5"/>
	<path class="st0" d="M638.2,355.5c10.7-13.3,26.1-22.8,41.9-28.4c-2.2,14.8-9,28.9-19.2,39.8"/>
	<path class="st0" d="M693,389.9c13.1-12.4,22.7-28.4,27.3-45.6c7.8,15.8,9.3,34.6,4,51.4"/>
	<path class="st0" d="M663.5,367.6c10.8-9.7,20.4-20.8,28.3-33c7.9,16.6,9.2,36.2,3.6,53.7"/>
</g>
<g id="Layer_7">
	<path class="st0" d="M417,422c-7.5,9.2-8.1,22.6-4.6,34c3.5,11.4,10.5,21.3,17.1,31.2c6.7,9.9,13.2,20.2,15.7,31.8
		c3.5,16.2-2,34.1-13.9,45.7"/>
	<path class="st0" d="M431.5,564.1c-6.6-0.3-13.2,1-19.2,4c-3.8,1.9-7.6,5.1-7.7,9.3c-0.1,4.7,4.5,8,8.8,10c7.2,3.2,15.1,4.8,23,4.7
		c3.8-0.1,8.1-0.9,10.2-4.1"/>
	<path class="st0" d="M488.2,529.7c-17,17.1-31.4,36.8-42.5,58.1"/>
	<path class="st0" d="M172.7,364.9c28.4,14.8,51.6,37.3,78.8,53.9c7.4,4.5,15.1,8.7,23.1,12"/>
	<path class="st0" d="M229.2,403c-7,3.1-14.1,6.4-19.6,11.8c-5.4,5.4-8.9,13.5-6.7,20.8c1.2,4,3.8,7.3,6.4,10.5
		c7.8,9.6,15.5,19.3,23.3,28.9"/>
	<path class="st0" d="M263.9,425.8c-9.7,2.2-18.9,6.3-26.2,12.4c0.7,3.3,3.6,5.7,6.6,7.1c3,1.4,6.4,2.1,9.4,3.5
		c8.2,3.6,13.9,12.4,13.8,21.4"/>
	<path class="st0" d="M231.4,473.7c11.2,6.9,26.6,6.1,37-1.9"/>
	<path class="st0" d="M366.2,460.5c5.6,15.7,13.2,30.7,22.5,44.6"/>
	<path class="st0" d="M417.7,470.1c0.6,14.5,4.2,28.8,10.9,41c0.1,3.2-2,6.2-4.6,8.1c-2.6,1.9-5.8,2.8-8.9,3.8
		c-18.7,6.2-36.5,15.1-52.5,26.4"/>
	<path class="st0" d="M385.3,499.9c0.7,2.2,0,4.6-1.4,6.5c-1.4,1.8-3.3,3.1-5.3,4.4c-11.4,7.2-24,12.6-36.9,15.5
		c-4.8-0.8-9.8,2.7-11.2,7.4s0.5,10,4,13.4s8.5,5,13.4,5.3c4.9,0.2,9.8-0.9,14.4-2.4"/>
	<path class="st0" d="M493.5,384.2c-12.8-10.4-25.9-20.6-40.9-27.6c-15.8-7.4-32.4-8.9-49.6-9c-16.9-0.1-34.4,0.3-50.3-6.2
		c-15.3-6.2-27.6-17.6-40.4-27.8c-14.1-11.2-30.9-22-49.6-21.1"/>
	<path class="st0" d="M488.6,528.6C480,516,471,499,477,483c6-13,15-24,19-38s3-28-1-42.1c0.4,0.1,2.7,9.7,0,0
		c0.4,0.1,0.7,0.2,1.1,0.3"/>
</g>
<g id="Layer_8">
	<path class="st0" d="M151.9,353.3c35.2,14.2,63.8,40.1,95.7,60c8.9,5.5,18,10.5,27.5,14.8"/>
	<path class="st0" d="M72.6,255.4C70,268.3,76,282.5,87,289.6c8.5,5.5,19,6.7,28.3,10.7c20,8.7,32.5,29.7,36.7,51.1"/>
	<path class="st0" d="M79.4,255.7c6,4.8,14.8,3.9,21.7,0.7c6.9-3.3,12.6-8.6,19-12.7c19.1-12.2,45-12.9,64.6-1.5"/>
	<path class="st0" d="M184.9,241.5c16.2-15.9,40.1-23.7,63.1-20.1c-6.4,20.1-22,36.9-41.4,42.4c4.3,17.2,15.1,32.7,27.9,43
		c-23.7,15-54.4,18.7-80.9,9.6"/>
	<path class="st0" d="M174.2,237c6.2-14.1,19-25.2,33.7-30.6c1.7,5.7,2.4,11.6,2,17.6"/>
	<path class="st0" d="M196,258.1c10.6-19,30.5-32.6,52.1-35.6"/>
	<path class="st0" d="M103.7,257.1c16,4.9,31.5,22.2,49.5,15.9"/>
	<path class="st0" d="M151,273.6c-7.5,0.7-15.2,0.2-22.1-2.6c-5.1-2.1-9.5-5.3-14.3-8.1s-10-5-15.5-4.8"/>
	<path class="st0" d="M126.2,254.7c-2.1,0.9-3.9,2.5-5.1,4.4c-0.7,1.1-1.2,2.4-1,3.6c0.4,2.2,2.8,3.5,5,3.2s4-1.8,5.5-3.5
		c1.1-1.2,2-2.7,2.2-4.3c0.2-1.6-0.4-3.5-1.9-4.2C129.4,253.1,127.7,254.1,126.2,254.7z"/>
	<path class="st0" d="M131,248.4c2.5,0.2,4.7,2.2,5.5,4.5s0.5,5.1-0.6,7.3c-1.1,2.3-2.9,4.2-4.8,5.8"/>
	<path class="st0" d="M138.1,253.1c0.8,1.4,1.1,3.1,0.8,4.7c-0.3,1.6-1.2,3.1-2.4,4.1"/>
	<path class="st0" d="M224.6,255.7c16.5,8.4,30.7,21.2,40.8,36.8"/>
	<path class="st0" d="M121,259.4c0.1,2,0.4,4,0.8,5.9"/>
	<path class="st0" d="M121.9,257.8c0.5,2.8,1,5.6,1.5,8.4"/>
	<path class="st0" d="M123,257c0.6,2.9,1.1,5.8,1.7,8.7"/>
	<path class="st0" d="M124.1,255.9c0.6,3.3,1.2,6.6,1.8,9.8"/>
	<path class="st0" d="M125.2,255.4c0.7,3.3,1.4,6.7,2.1,10"/>
	<path class="st0" d="M126.4,254.8c0.6,3.2,1.2,6.4,1.9,9.6"/>
	<path class="st0" d="M127.6,254c0.7,3.3,1.3,6.7,2,10"/>
	<path class="st0" d="M128.9,254c0.8,2.9,1.3,5.9,1.7,8.9"/>
	<path class="st0" d="M130.3,253.9c0.5,2.4,1,4.8,1.5,7.2"/>
	<path class="st0" d="M131.9,255c0.2,1,0.4,2.1,0.6,3.1"/>
	<path class="st0" d="M78.8,255.6c4.1,3.8,10.2,4.8,15.7,3.8s10.4-4,15-7.3s8.8-6.9,13.7-9.7c8.9-5.2,19.4-7.4,29.7-7.2
		s20.5,2.8,30.1,6.7"/>
	<path class="st0" d="M71.7,244.8c-2.5,1.7-3.2,5.5-1.5,8c1.7,2.5,5.4,3.3,8,1.7c1.1-0.7,1.9-1.7,2.5-2.9c0.7-1.4,1.2-2.9,0.8-4.4
		c-0.6-2.5-3.4-4-5.9-3.9C73,243.4,70.7,244.7,71.7,244.8z"/>
	<path class="st0" d="M70.7,245.5c-0.4,2.6-0.7,5.1-0.8,7.7"/>
	<path class="st0" d="M72.2,244.4c-0.4,3.3-0.6,6.7-0.5,10"/>
	<path class="st0" d="M73.6,243.6c-0.4,3.8-0.7,7.7-0.6,11.5"/>
	<path class="st0" d="M75.5,243.3c-0.6,3.9-0.8,7.9-0.8,11.8"/>
	<path class="st0" d="M76.9,243.4c-0.3,4-0.7,8.1-1,12.1"/>
	<path class="st0" d="M78.4,244c-0.3,3.5-0.6,7.1-0.9,10.6"/>
	<path class="st0" d="M79.9,245.4c-0.2,2.7-0.5,5.3-0.7,8"/>
	<path class="st0" d="M81.5,246.1c-0.2,1.9-0.5,3.7-0.7,5.6"/>
	<path class="st0" d="M72.3,255.1c-1.3,7.3-0.2,15,3.1,21.6s8.7,12.2,15.2,15.6"/>
	<path class="st0" d="M76.1,281c7.8,8.6,18.5,14.6,29.9,16.8"/>
	<path class="st0" d="M108.8,298.3c11.8,5.3,22.4,13.3,30.8,23.3"/>
	<path class="st0" d="M128.9,308.7c11.9,7.5,20.1,20.5,22,34.4"/>
	<path class="st0" d="M137.1,315.8c7.3,10.9,12.3,23.3,14.6,36.2"/>
	<path class="st0" d="M71,266c0.7,10.2,7.8,19,16.4,24.5s18.7,8.1,28.5,10.7"/>
	<path class="st0" d="M153.8,355.8c9.6,4.1,18.8,9.2,27.2,15.3"/>
	<path class="st0" d="M183.9,373.1c11.7,5.4,22.8,12,33,19.8"/>
	<path class="st0" d="M219.9,396.4c14.1,9.2,28.3,18.4,42.4,27.6"/>
	<path class="st0" d="M257.5,421.4c5.5,3.1,11.2,6,17.1,8.4"/>
	<path class="st0" d="M141.1,326.1c4,7.4,6.9,15.4,8.8,26.2c12.2,4.2,23.8,10.5,34,18.4"/>
	<path class="st0" d="M211.8,392.5c10.8,8.5,22.1,16.5,33.8,23.7"/>
	<path class="st0" d="M259.8,424.2c4.7,2.9,9.5,5.5,14.5,7.7"/>
	<path class="st0" d="M228.6,404.5c-6.4,3-12.9,6-17.9,10.9s-8.2,12.3-6.5,19.1c1,3.9,3.6,7.3,6,10.5c4.1,5.3,8.2,10.6,12.2,15.9
		c4.9,6.4,10.4,13.2,18.2,15.5c4,1.1,8.2,1,12.4,0.8c4.4-0.2,9.2-0.6,12.3-3.6c3.9-3.7,3.7-10.3,0.8-14.8s-7.7-7.4-12.6-9.5
		s-10.1-3.9-14.5-6.9c-1.3-0.9-2.7-2.3-2.3-3.9c0.3-1.2,1.6-1.9,2.8-2.5c7.5-3.4,15-6.7,22.5-10"/>
	<path class="st0" d="M224.1,405c-6.2,1.7-10.9,6.6-15.1,11.5c-2,2.2-3.9,4.5-5.4,7s-2.4,5.5-2.2,8.4c0.2,3.7,2.2,7,4.2,10
		c5.3,8,11.4,15.6,18.1,22.5"/>
	<path class="st0" d="M235.1,474.9c4.7,3.4,10.5,5.2,16.2,5c5.8-0.2,11.5-2.3,15.9-6"/>
	<path class="st0" d="M242.6,435.9c7.7-3.4,15.6-6.4,23.7-8.9"/>
	<path class="st0" d="M368.3,461.6c3.4,10.9,7.6,21.5,12.6,31.7"/>
	<path class="st0" d="M376.6,481.7c3.2,6.7,7,13.2,11.2,19.2"/>
	<path class="st0" d="M386.1,498.3c1.3,2.6,0.2,5.9-1.8,8s-4.8,3.3-7.5,4.4"/>
	<path class="st0" d="M372.2,514c-6.5,2.6-12.9,5.5-19.1,8.7"/>
	<path class="st0" d="M347.9,524.4c-3,1-6.3,0.9-9.5,1.5c-3.2,0.5-6.5,2-7.9,4.8"/>
	<path class="st0" d="M329.7,533.9c-1,2.5-0.6,5.5,0.6,8c1.2,2.5,3.3,4.4,5.5,6c4.4,3.2,9.8,5.3,15.2,5.4s11-1.6,15.2-5.2"/>
	<path class="st0" d="M368.4,546c10.5-6.5,21.5-12.2,33-17.1"/>
	<path class="st0" d="M404.6,527.5c4.6-1.8,9.2-3.7,13.8-5.5"/>
	<path class="st0" d="M418.9,471c-0.1,9.3,1.1,18.6,3.5,27.6"/>
	<path class="st0" d="M421.6,488.6c0.6,4.8,1.9,9.5,3.6,14.1"/>
	<path class="st0" d="M413,523.7c4.1-0.1,8.2-1.3,11.7-3.5c1.1-0.7,2.2-1.5,3-2.6c1.5-2.2,1.3-5.1,1.1-7.8"/>
	<path class="st0" d="M366.8,549.1c14.5-9.2,30-17,46-23.3"/>
	<path class="st0" d="M415.7,419.2c-5.5,10-7.1,22.1-4.3,33.2"/>
	<path class="st0" d="M416.3,422.3c-5.6,9-6,20.5-3.4,30.8s7.8,19.7,13,28.9"/>
	<path class="st0" d="M421.5,474.9c9.5,12.1,17.4,25.6,23.4,39.8"/>
	<path class="st0" d="M385.4,452.2c7.7,1.4,15.6,1.2,23.2-0.7"/>
	<path class="st0" d="M385.1,450.8c7.8,1.6,16,1.3,23.6-0.8"/>
	<path class="st0" d="M390.1,452.5c7.5,0.8,15.1,0.2,22.4-1.9"/>
	<path class="st0" d="M497.1,406.4c2.1,14,1.3,28.5-2.4,42.2"/>
	<path class="st0" d="M501.9,415.8c-1.4,18-7,35.7-16.1,51.3"/>
	<path class="st0" d="M499.4,428.2c-2,18-8.5,35.5-18.7,50.5"/>
	<path class="st0" d="M484.5,470.9c-5.2,8.1-7.4,18-6.3,27.5"/>
	<path class="st0" d="M477.4,487.2c-1.8,10.8,0,22.2,5.1,31.8"/>
	<path class="st0" d="M478.8,504.4c2.3,7.8,5.5,15.3,9.4,22.4"/>
	<path class="st0" d="M488.1,529.8c-9.8,9.3-18.5,19.8-25.8,31.3"/>
	<path class="st0" d="M483.2,537c-10,10.8-18.6,22.9-25.5,35.8"/>
	<path class="st0" d="M462.8,561.8c-5,7.9-10.1,15.7-15.2,23.6"/>
	<path class="st0" d="M418.1,472.2c6.4,10,12.7,20.1,19.1,30.1c2.8,4.5,5.7,9,7.6,14c1.9,5,2.8,10.4,1.5,15.6"/>
	<path class="st0" d="M446,533.4c-1.9,11.2-7.2,21.8-14.7,30.4c-9.8-1.3-20.1,2.4-26.8,9.6"/>
	<path class="st0" d="M415.9,566.1c-2.9,1.3-5.9,2.7-8.2,4.9c-2.3,2.2-3.9,5.5-3.2,8.7c0.7,3.1,3.4,5.4,6.1,7.1
		c10.1,6.3,22.8,8.4,34.4,5.5"/>
	<path class="st0" d="M430.3,563.3c-5.4-0.2-11-0.2-16.1,1.6c-5.1,1.8-9.7,5.9-10.9,11.2"/>
	<path class="st0" d="M489.5,530.7c-8.2,7.1-15.4,15.4-21.5,24.4"/>
	<path class="st0" d="M498.9,430c0.8-7.5,0.4-15.1-1.2-22.4"/>
	<path class="st0" d="M227.1,255.2c8.4,4,15.7,10.1,21.3,17.5"/>
	<path class="st0" d="M241,265.8c9.4,8.1,17.4,17.8,23.4,28.5"/>
	<path class="st0" d="M261.1,289c12.6,2.4,24.9,6.7,36.2,12.7"/>
	<path class="st0" d="M276.8,293.7c18.9,6.2,36.1,17.2,49.5,31.9"/>
	<path class="st0" d="M318,317.9c12.9,12.5,28.6,22.1,45.6,27.8"/>
	<path class="st0" d="M325.5,322.4c13.2,11.4,28.9,19.8,45.7,24.5"/>
	<path class="st0" d="M376.6,348c17.4-0.9,34.8-0.2,52,2.1"/>
	<path class="st0" d="M370.2,346.5c10.9,2.3,22.2,1.6,33.3,1.5c11.1,0,22.7,0.7,32.6,5.7"/>
	<path class="st0" d="M392,346.1c12.8-1.1,25.8,0.3,38,4.1"/>
	<path class="st0" d="M426.5,350.1c16.4,2.5,31.9,9.8,44.3,20.8"/>
	<path class="st0" d="M452.2,357.5c14,6,26.8,14.6,37.5,25.3"/>
	<path class="st0" d="M474.4,371.2c5.6,5.2,11.6,9.9,18,14"/>
	<path class="st0" d="M360.6,345.2c14,4.8,29.1,6,43.7,3.6"/>
	<path class="st0" d="M183.7,243.5c8.2-8.4,18.6-14.8,29.8-18.2"/>
	<path class="st0" d="M182.8,240.7c12.8-11.2,29.3-18,46.3-19"/>
	<path class="st0" d="M213.9,224.8c9.3-3,19.2-4,28.9-3.1"/>
	<path class="st0" d="M198.3,254.6c11.3-16.1,28.9-27.6,47.8-31.6c-7.4,19.1-22.4,35.1-40.9,43.8"/>
	<path class="st0" d="M176.2,239.2c2.4-13.2,12.2-24.7,24.9-29.1"/>
	<path class="st0" d="M207.3,206.8c2.2,4.7,2.6,10.3,1,15.3"/>
	<path class="st0" d="M174.9,236.7c7.5-12,18.5-21.7,31.3-27.7"/>
	<path class="st0" d="M207.8,226.2c2-6.2,1.7-13.2-0.9-19.2"/>
	<path class="st0" d="M206.5,266c0.5,5.2,2.5,10.3,4.5,14.3c3.2,6.2,7.3,11.9,12.9,17.7c3.4,2.5,6.7,5,10.1,7.5"/>
	<path class="st0" d="M230.7,308.3c-10.5,4.2-21.6,7-32.8,8.5"/>
	<path class="st0" d="M158.4,316.1c12.7,2.7,25.8,3.4,38.6,2.1"/>
	<path class="st0" d="M185.7,320c11.8-0.1,23.6-2.6,34.5-7.1"/>
	<path class="st0" d="M209.3,313.6c9.2-1.2,18.2-3.7,26.8-7.4"/>
	<path class="st0" d="M210.1,277.8c4.4,11.2,11.8,21.3,21.2,28.9"/>
	<path class="st0" d="M71.1,254.9c0,3.9,0,7.7,0,11.6"/>
	<path class="st0" d="M407.8,437.3c0.7,9.2,3,18.3,6.8,26.7"/>
	<path class="st0" d="M418.7,474c5.8,9.1,12.5,17.6,20,25.3"/>
	<path class="st0" d="M447.8,519.4c1.6,7.3,0.5,15.1-3.1,21.7"/>
	<path class="st0" d="M431.9,562.2c6.2-3.9,10.9-10.1,13-17.1"/>
</g>
<g id="Layer_10">
	<path class="st0" d="M446.4,523.7c11.7,0.3,23.4-3.3,32.9-10.2"/>
	<path class="st0" d="M409,569.7c-0.2,5.3,0,10.6,0.7,15.9"/>
	<path class="st0" d="M412.2,568.3c0.6,6.8,1.1,13.7,1.7,20.5"/>
	<path class="st0" d="M416.4,567.2c0.8,7.7,1.5,15.4,2.3,23.1"/>
	<path class="st0" d="M421,564.9c1,8.4,1.9,16.8,2.9,25.2"/>
	<path class="st0" d="M425.7,563.9c0.9,9.3,2.3,18.5,4.2,27.7"/>
	<path class="st0" d="M431.2,563.3c0.9,9.7,2.4,19.4,4.5,29"/>
	<path class="st0" d="M434.9,560.3c1.5,10.7,3.1,21.3,4.6,32"/>
	<path class="st0" d="M438,554.9c2.3,11.3,4.6,22.6,6.9,34"/>
	<path class="st0" d="M441.5,550c2.1,11.2,4.7,22.3,7.8,33.3"/>
	<path class="st0" d="M445,544.1c2,10.3,4.9,20.5,8.6,30.4"/>
	<path class="st0" d="M446,534.7c2.9,12.3,6.8,24.4,11.7,36.1"/>
	<path class="st0" d="M447.9,524.5c3.5,13.9,8,27.5,13.3,40.8"/>
	<path class="st0" d="M453,524.9c3.6,11.8,7.2,23.6,10.9,35.4"/>
	<path class="st0" d="M457.4,523.4c3.4,11.2,7.5,22.2,12.3,32.8"/>
	<path class="st0" d="M462.5,520.8c2.2,9.9,5.4,19.5,9.3,28.8"/>
	<path class="st0" d="M467.4,520c2.2,8.2,4.4,16.5,6.7,24.7"/>
	<path class="st0" d="M471.6,518.7c1.6,7,3.6,14,6.1,20.7"/>
	<path class="st0" d="M475.7,517.5c1.7,6.8,3.9,13.5,6.4,20"/>
	<path class="st0" d="M479.4,515.7c1.8,6.1,3.7,12.2,5.5,18.3"/>
	<path class="st0" d="M223,341.1c-2,12.8,5.2,26.7,18.1,34.8s30.8,9.8,44.8,4.4"/>
	<path class="st0" d="M307.4,344.1c7.5,6.3,15,12.5,22.5,18.8c1.7,1.5,3.5,3,4.5,5c1.8,3.8,0.2,8.2-1.9,11.8
		c-3.7,6.1-9,11-13.7,16.5c-4.6,5.5-8.7,11.9-8.8,19.1"/>
	<path class="st0" d="M273.6,412.9c-0.7,11.2,4.3,21.2,14.3,25.2c14,5,26,13,37,23c7,5,15,2,19-5c3-5,3-11,1-17
		c-6-14-21-18-35.1-20.9"/>
	<path class="st0" d="M285.2,381.8c-6.2,8-12.7,16.6-14.3,26.8"/>
	<path class="st0" d="M286.3,381.3c-7.1,2.8-15.6,3.1-23.5,1.7c-7.9-1.5-15.4-4.6-22.1-8.6c-4.3-2.5-8.4-5.5-11.3-9.1
		c-5.2-6.8-5.4-15.2-4.6-22c-0.9,9.5,3,19.5,10.7,27"/>
	<path class="st0" d="M281.1,384.8c-7.3,8.5-11.8,19.4-12.6,30.6"/>
	<path class="st0" d="M271.1,418.8c-0.8,3.1,0.4,6.4,2.2,9.1c3.4,5.1,8.8,8.6,14.4,11.2c5.6,2.6,11.5,4.5,17,7.3
		c5.5,2.8,10.7,6.7,13.6,12.1"/>
	<path class="st0" d="M282.1,385.2c-4.3,5.9-8.6,11.9-11.1,18.7s-3,14.7,0.4,21.2"/>
	<path class="st0" d="M300.7,447.8c8.2,2.5,15.8,6.6,22.3,12.2"/>
	<path class="st0" d="M319.6,457.9c4.6,6.4,14,6.4,19.7,1.4c7.7-6.7,5.8-17.5,0.7-25"/>
	<path class="st0" d="M335,427.5c-7.1-5.8-15.8-9.7-25.4-11.4c-0.3-7.9,4.4-15,9.4-21s10.9-11.7,13.8-19"/>
	<path class="st0" d="M308.5,346.3c9.4,7.3,18.2,15.3,26.5,23.8"/>
	<path class="st0" d="M335.2,371.8c-4.8,13.3-19.6,21-24.4,34.2"/>
	<path class="st0" d="M274.2,397.8c15.7,5.4,33.6,3.9,48.1-4.1"/>
	<path class="st0" d="M271.1,403.7c0.6,10.6,2.5,21.1,5.5,31.3"/>
	<path class="st0" d="M275.1,400.4c2,12.2,3.9,24.4,5.9,36.6"/>
	<path class="st0" d="M279.6,401c1.3,12.5,3.3,24.9,6,37.2"/>
	<path class="st0" d="M284.5,402.6c1,12.8,3.3,25.6,6.7,38"/>
	<path class="st0" d="M290.1,401.4c2.1,14,4.2,27.9,6.2,41.9"/>
	<path class="st0" d="M294.8,400.7c1,15.3,3,30.5,5.8,45.5"/>
	<path class="st0" d="M300.1,402.9c1.3,15.1,3.4,30.2,6.3,45.1"/>
	<path class="st0" d="M304.5,403.3c0.8,5.8,1.5,11.7,2.2,17.2c1.4,10.6,2.9,21.3,4.3,32"/>
	<path class="st0" d="M309.1,400.1c0.3,3.5,0.6,7,0.9,10.5"/>
	<path class="st0" d="M311.2,418.4c1,13.1,3,26,5.9,38.8"/>
	<path class="st0" d="M315.7,420.8c1.2,12.7,3.1,25.4,5.5,37.9"/>
	<path class="st0" d="M320.3,421.4c1.3,14,3.6,27.9,6.9,41.6"/>
	<path class="st0" d="M284.8,381.2c-4.5,5.4-9,10.9-12.1,17.2c-3.1,6.3-4.8,13.5-3.2,20.4c1.5,6.5,5.7,12.1,10.8,16.3
		c5.1,4.3,11,7.4,16.9,10.5c6.4,3.3,12.7,6.7,19.1,10"/>
	<path class="st0" d="M311.8,417.6c15.7,1.4,30.2,12,36.4,26.4"/>
	<path class="st0" d="M303.8,446.2c9.2,5,14.6,16.4,24.9,18.8c6.4,1.5,13.5-1.3,17.1-6.8s3.4-13.2-0.5-18.4"/>
	<path class="st0" d="M310.8,418.2c1.8-12.7,8.3-24.7,18-33"/>
	<path class="st0" d="M223.3,338.9c-0.8,14.6,6.3,29.4,18.2,37.9c11.9,8.5,28.1,10.5,41.7,5"/>
	<path class="st0" d="M270.1,405.3c-3,9-0.9,19.4,5.2,26.6c9.7,11.3,26.6,13.1,38.5,22"/>
	<path class="st0" d="M294.9,442.8c6.7,3.5,13.1,7.8,18.8,12.7"/>
	<path class="st0" d="M347.3,451.5c20.3,2.6,40.9,3.4,61.4,2.4"/>
	<path class="st0" d="M348.2,449.1c11,3.4,22.7,3.1,34.1,2.8c8.7-0.2,17.4-0.5,26.1-0.8"/>
	<path class="st0" d="M324.8,422.5c2,14.6,3.9,29.3,5.9,43.9"/>
	<path class="st0" d="M329.1,423.4c1.9,13.3,3.9,26.5,5.8,39.8"/>
	<path class="st0" d="M333.3,427.4c1.8,11.6,3.6,23.1,5.5,34.7"/>
	<path class="st0" d="M338.3,430.5c1.6,7.8,2.6,15.7,3.1,23.7"/>
	<path class="st0" d="M341.9,435.6c1.3,5.6,2.2,11.3,2.7,17"/>
</g>
<g id="Layer_9">
	<path class="st0" d="M206.5,418.3c-0.9,8.4-1,17-0.5,25.4"/>
	<path class="st0" d="M209.6,414.8c-0.6,11.7-0.3,23.5,1.1,35.1"/>
	<path class="st0" d="M212.4,412.6c0.4,13.5,0.8,27.1,1.3,40.6"/>
	<path class="st0" d="M215.9,409.9c-0.4,15.1,0.5,30.3,2.5,45.3"/>
	<path class="st0" d="M218.7,407.7c1.1,17.8,2.2,35.5,3.4,53.2"/>
	<path class="st0" d="M224.1,406.1c0.9,20.9,2.2,41.8,3.9,62.7"/>
	<path class="st0" d="M228.3,406.8c1.9,22.2,3.8,44.5,5.6,66.7"/>
	<path class="st0" d="M233.9,408.3c1,22.4,2.6,44.8,4.8,67.1"/>
	<path class="st0" d="M238.6,410.9c0.5,9.6,1,19.1,1.4,28.7"/>
	<path class="st0" d="M244.4,414c0.3,7.4,0.6,14.9,0.9,22.3"/>
	<path class="st0" d="M249.6,418.8c0.3,5,0.6,10,0.8,15"/>
	<path class="st0" d="M255.1,420.8c0.8,2.6,1,5.3,0.8,8"/>
	<path class="st0" d="M240.1,442.2c1.5,12.5,2.9,24.9,4.4,37.3"/>
	<path class="st0" d="M246.6,445.7c0.9,10.9,1.9,21.9,2.8,32.8"/>
	<path class="st0" d="M251.5,449.1c0.6,8.9,1.3,17.8,1.9,26.6"/>
	<path class="st0" d="M256.8,449.6c0.7,7.5,1.4,15,2.2,22.5"/>
	<path class="st0" d="M261.8,457c1.1,5.3,1.7,10.8,1.7,16.3"/>
	<path class="st0" d="M407.7,452.6c2.5,3,5.1,5.9,7.6,8.9"/>
	<path class="st0" d="M364.6,451.5c2,7.6,4.4,15.1,7.1,22.4"/>
	<path class="st0" d="M332.7,530.1c0.6,6.4,1.8,12.7,3.5,18.9"/>
	<path class="st0" d="M335.4,527.6c1.4,8.4,2.8,16.9,4.2,25.3"/>
	<path class="st0" d="M338.9,526.4c1.6,8.8,3.1,17.6,4.7,26.4"/>
	<path class="st0" d="M342.6,526.2c1.6,8.7,3.3,17.3,5,26"/>
	<path class="st0" d="M345.6,525.5c2.1,9.6,4.2,19.2,6.3,28.9"/>
	<path class="st0" d="M348.7,525.4c2.1,8.4,4.2,16.7,6.3,25.1"/>
	<path class="st0" d="M352.6,523.2c1.9,9.4,3.8,18.8,5.7,28.2"/>
	<path class="st0" d="M356.8,521.7c2.2,9.7,4.5,19.4,6.7,29.1"/>
	<path class="st0" d="M361,519.8c1.7,8.9,3.4,17.7,5.1,26.6"/>
	<path class="st0" d="M364.7,518.3c1.3,8.9,3,17.8,5.1,26.5"/>
	<path class="st0" d="M368.4,516.8c1.8,9.2,3.5,18.5,5.3,27.8"/>
	<path class="st0" d="M372.5,514.7c1.6,8.3,3.3,16.7,4.9,25"/>
	<path class="st0" d="M376.1,511.7c1.8,8.3,3.6,16.6,5.4,24.9"/>
	<path class="st0" d="M380.6,510.2c1.8,8.6,3.5,17.2,5.3,25.9"/>
	<path class="st0" d="M384.6,507.2c1.6,8.7,3.3,17.5,4.9,26.2"/>
	<path class="st0" d="M386.6,502c2.5,10.4,5,20.9,7.5,31.4"/>
	<path class="st0" d="M378.9,453.7c6,25.8,12,51.6,17.9,77.4"/>
	<path class="st0" d="M375.9,454.7c2.8,15.3,6.3,30.5,10.3,45.5"/>
	<path class="st0" d="M372.4,454.3c2.5,11.1,5,22.2,7.5,33.3"/>
	<path class="st0" d="M369,452.9c1.5,8.3,3.4,16.6,5.6,24.8"/>
	<path class="st0" d="M382.4,454.4c5.9,24.6,11.8,49.3,17.7,73.9"/>
	<path class="st0" d="M386.9,454c4.9,24.2,10.7,48.3,17.5,72"/>
	<path class="st0" d="M390.7,454.2c5.8,23.8,11.6,47.6,17.4,71.4"/>
	<path class="st0" d="M395,454c5.7,23.1,11.5,46.1,17.2,69.2"/>
	<path class="st0" d="M399.4,453.6c5.8,22.6,11.6,45.2,17.4,67.8"/>
	<path class="st0" d="M403,453.8c4.5,22.4,10.5,44.6,18,66.2"/>
	<path class="st0" d="M406.7,453.7c5,21.6,10.9,43,17.7,64.1"/>
	<path class="st0" d="M410.9,454.4c3.2,12.7,6.4,25.3,9.6,38"/>
	<path class="st0" d="M422.6,499.5c1.7,4.3,3.4,8.5,5.1,12.8"/>
	<path class="st0" d="M244.9,226.8c-1.1-1.1-2.3-2.1-3.4-3.2"/>
	<path class="st0" d="M243.6,229.1c-1.6-1.6-3.2-3.2-4.8-4.8"/>
	<path class="st0" d="M243.2,231.1c-2.2-1.9-4.5-3.9-6.7-5.8"/>
	<path class="st0" d="M241.8,233c-2.4-2.2-4.8-4.4-7.2-6.7"/>
	<path class="st0" d="M240.6,234.7c-2.9-2.6-5.7-5.2-8.6-7.7"/>
	<path class="st0" d="M239.5,237.2c-3.1-3.2-6.4-6.3-9.8-9.2"/>
	<path class="st0" d="M238.2,239.1c-3.8-3.5-7.7-7-11.5-10.4"/>
	<path class="st0" d="M237,240.5c-3.9-3.5-7.9-6.9-11.8-10.4"/>
	<path class="st0" d="M235.9,242.8c-4-3.7-8.1-7.5-12.1-11.2"/>
	<path class="st0" d="M234.6,244.5c-4.2-4.1-8.6-8.1-13.1-12"/>
	<path class="st0" d="M233.1,245.8c-5-4.4-10.1-8.7-15.1-13.1"/>
	<path class="st0" d="M231.5,247.4c-4.3-4.1-8.9-7.9-13.6-11.4"/>
	<path class="st0" d="M229.5,249.4c-4.4-4.3-9-8.4-13.7-12.3"/>
	<path class="st0" d="M227.6,251.1c-4.5-4.4-9.1-8.6-13.8-12.7"/>
	<path class="st0" d="M225.4,252.2c-4.1-4.2-8.4-8.2-13-12"/>
	<path class="st0" d="M224.3,254.3c-4.5-4.1-8.9-8.3-13.4-12.4"/>
	<path class="st0" d="M222.7,255.4c-4.6-3.9-9.2-7.7-13.8-11.6"/>
	<path class="st0" d="M220.7,256.4c-4.3-3.8-8.8-7.3-13.4-10.7"/>
	<path class="st0" d="M220.2,258.1c-5.1-3.6-10.1-7.3-15.2-10.9"/>
	<path class="st0" d="M217.9,258.6c-4.8-3.3-9.5-6.5-14.3-9.8"/>
	<path class="st0" d="M215.6,259.7c-4.7-3.2-9.4-6.2-14.3-9.1"/>
	<path class="st0" d="M213.4,261.1c-4.3-3.1-8.8-5.9-13.4-8.3"/>
	<path class="st0" d="M210.4,262c-4-2.5-8.1-5-12.1-7.4"/>
	<path class="st0" d="M196.6,256.5c4,2.5,8,5.1,12,7.7"/>
	<path class="st0" d="M177.1,234.8c2.7,2.8,5.5,5.4,8.5,7.8"/>
	<path class="st0" d="M177.5,232.2c2.9,3.5,6,6.7,9.5,9.6"/>
	<path class="st0" d="M178,230c3.3,3.5,6.6,7,9.9,10.4"/>
	<path class="st0" d="M179.9,228.4c3.3,3.8,6.6,7.5,9.8,11.2"/>
	<path class="st0" d="M181.6,226.4c2.9,3.6,5.9,7.2,8.8,10.8"/>
	<path class="st0" d="M183.1,224.7c3,3.9,6.2,7.5,9.8,10.9"/>
	<path class="st0" d="M185.1,222.9c2.9,3.7,6.1,7.3,9.3,10.7"/>
	<path class="st0" d="M187.1,221.6c3.1,3.6,6.2,7.2,9.3,10.8"/>
	<path class="st0" d="M189.1,219.3c2.8,4.1,6,7.9,9.6,11.4"/>
	<path class="st0" d="M190.9,217.9c3.3,3.9,6.5,7.8,9.8,11.7"/>
	<path class="st0" d="M193.1,215.9c3.2,4.2,6.5,8.4,9.8,12.6"/>
	<path class="st0" d="M195.6,214.9c3.2,4.2,6.3,8.4,9.5,12.6"/>
	<path class="st0" d="M197.6,213.3c3.3,4.1,6.5,8.3,9.8,12.4"/>
	<path class="st0" d="M199.1,211.8c3,3.8,6,7.6,9.1,11.4"/>
	<path class="st0" d="M201.7,210.9c2.4,3.1,4.9,6.2,7.3,9.2"/>
	<path class="st0" d="M203.3,209.5c1.8,2.3,3.6,4.6,5.4,6.9c-0.1-0.1-0.1-0.2-0.2-0.3"/>
	<path class="st0" d="M204.7,208.4c1.2,1.4,2.3,2.8,3.5,4.2"/>
</g>
</svg>
