<?xml version="1.0" encoding="utf-8"?>
<!-- Generator: Adobe Illustrator 27.5.0, SVG Export Plug-In . SVG Version: 6.00 Build 0)  -->
<svg version="1.1" id="Layer_1" xmlns="http://www.w3.org/2000/svg" xmlns:xlink="http://www.w3.org/1999/xlink" x="0px" y="0px"
	 viewBox="0 0 800 800" style="enable-background:new 0 0 800 800;" xml:space="preserve">
<style type="text/css">
	.st0{fill:none;stroke:#000000;stroke-miterlimit:10;}
</style>
<g id="Layer_2_00000013163459633826553430000007111558950580860546_">
	<path class="st0" d="M129,340.1c18.8,4.4,35,16.2,49.7,28.8s28.6,26.4,45.4,35.8"/>
	<path class="st0" d="M178.6,368.3c2.4,8.3,0.4,17.8-5.2,24.4c-8.5,10.1-23.1,12.7-32.9,21.7C127,426.9,126,448.6,113,462.8
		c-4.3-0.3-8.2,3.7-8.6,8s2.4,8.5,6.2,10.7s8.3,2.6,12.6,2c6.6-0.9,12.9-4.2,16.9-9.5c3.3-4.4,4.8-9.7,7.1-14.7
		c5.6-12.2,16.3-22.1,29-26.7c5.8-2.1,12-3.2,17.3-6.3c9.2-5.3,14.3-15.4,18.9-25"/>
	<path class="st0" d="M319,450c45,16,95,25,143.1,13.9"/>
	<path class="st0" d="M427.8,423c28.6,39.4,68.6,70.3,113.9,88.1c11.2,4.4,22.8,8.1,32.3,15.5c9.5,7.4,16.3,19.6,13.5,31.2"/>
	<path class="st0" d="M502.5,394.2c19.6,22.4,36.7,47,50.7,73.1c4.2,7.8,8.6,16.2,16.4,20.4c5.2,2.8,11.2,3.3,16.6,5.5
		c8.8,3.6,15.4,11.4,19.5,20c4.1,8.6,6,18.1,7.8,27.5"/>
	<path class="st0" d="M587.5,559.3c-6.5,1.6-13.8,4-16.3,10.2c-1.7,4.3-0.5,9.4,2.5,13s7.3,5.8,11.8,6.9c5.2,1.4,10.9,1.5,16-0.5
		c8.9-3.5,14.2-13.2,15.4-22.7s-1.1-19.1-3.4-28.4"/>
	<path class="st0" d="M379.9,464.5c0.2,8.7,5.2,16.6,10.9,23.2c5.7,6.6,12.3,12.6,16.7,20.1s6.3,17.3,2,24.9c-3.4,5.9-9.8,9.3-16,12
		s-12.8,5.1-17.6,10s-7,13-3,18.4c2.6,3.6,7.3,5.2,11.8,5.3c10.8,0.4,20.7-6.2,28.4-13.7s14.4-16.4,23.3-22.5
		c8.3-5.7,19.2-9.9,22.4-19.5"/>
	<path class="st0" d="M440.9,469.5c-0.4,14.1,3.6,28.4,11.4,40.2c3,4.6,6.8,9.8,5.5,15.2"/>
	<path class="st0" d="M243,285.7c18.2,1.3,34.2,9.3,50.2,19.3c2,2,4,3,7,5c24,18,39,49,71,51c43,2,86,0,127,13.8"/>
	<path class="st0" d="M503.8,393.2c24.3,15.1,47.1,32.6,72.2,46.3c25.1,13.7,53.2,23.6,81.8,21.8c21.3-1.4,42.1-9.5,58.6-23.1
		c16.5-13.6,28.4-32.6,33.2-53.4c5.8-25,1.7-53,15.1-74.9"/>
	<path class="st0" d="M499,373.5c43.2,23.6,98.7,23,141.3-1.7c21.2-12.3,38.9-29.7,58.9-44c20-14.2,43.8-25.6,68.2-22.7"/>
	<path class="st0" d="M504,374.1c7.3,1.6,14.3,4.5,20.6,8.3"/>
	<path class="st0" d="M516.2,379.2c10.9,4.4,22.6,7,34.3,7.7"/>
	<path class="st0" d="M543.4,387.5c12.1,1.8,24.5,2.1,36.7,1.1"/>
	<path class="st0" d="M575.8,389.2c10.8,0.3,21.6-2,31.3-6.7"/>
	<path class="st0" d="M604.6,388.5c8.2-3.6,15.9-8.3,25.1-11.9c7.1-4.1,13.6-9.1,19.4-14.8"/>
	<path class="st0" d="M649.2,367.9c12.5-10.4,23.6-22.4,32.9-35.6"/>
	<path class="st0" d="M674.2,347.7c6.4-8,13.9-15.1,22.1-21.2"/>
	<path class="st0" d="M700.7,325.7c9.6-8.4,21.6-14.1,34.2-16"/>
	<path class="st0" d="M725.5,311.7c10.7-5.1,23-6.9,34.6-4.9"/>
	<path class="st0" d="M764.1,308.3c-9.4,19.5-10.7,41.7-14.1,63.1c-3.4,21.4-10,43.8-26.8,57.5"/>
	<path class="st0" d="M719.4,435.2c-16.4,13.6-36.9,22.4-58.1,24.8"/>
	<path class="st0" d="M506,393.1c18.5,10.1,34.9,23.6,52.2,35.7c17.3,12.1,36.2,22.9,57,26.2"/>
	<path class="st0" d="M625.1,457.2c11.6,2.1,23.4,3.2,35.2,3.2"/>
	<path class="st0" d="M505.5,395.3c18.2,5.7,33.1,18.5,48.2,29.9c15.2,11.5,32.3,22.2,51.3,22.7"/>
	<path class="st0" d="M615.9,454.7c18.8,4.4,38.3,5.4,57.5,3"/>
	<path class="st0" d="M731.1,421c-9.7,11.4-21.7,20.9-34.9,27.8"/>
	<path class="st0" d="M504.5,393.9c12.8,11.6,23,26,29.7,42"/>
	<path class="st0" d="M509.1,400.9c13.6,16,25.7,33.2,36.1,51.4"/>
	<path class="st0" d="M534,431.7c6.7,9.4,12.8,19.3,18.3,29.5"/>
	<path class="st0" d="M538.1,439.9c6.5,12.3,13.1,24.6,19.6,36.9"/>
	<path class="st0" d="M549.8,456.5c4.3,9.4,9.4,18.5,15.2,27.2"/>
	<path class="st0" d="M527,422.6c6.7,10.2,13.5,20.4,20.2,30.6"/>
	<path class="st0" d="M243.1,285.5c17.1,2.5,33.1,9.5,48.1,20.5c19,13,34,29,51.2,44"/>
	<path class="st0" d="M244.1,288.6c36.1,6.4,63.1,32.4,89.1,57.4c4,2,7,6,11.5,7"/>
	<path class="st0" d="M277.7,298.9c-10.8-5.5-22.3-9.4-34.1-11.7"/>
	<path class="st0" d="M243.6,286.3c21.1,4,40.5,13.6,56.5,28.1"/>
	<path class="st0" d="M323.8,335c19.6,17.2,45.8,26.5,71.9,25.7"/>
	<path class="st0" d="M334.3,344.7c16.7,10.9,37,15.9,56.9,14.2"/>
	<path class="st0" d="M343.2,350.3c11,8,25.1,10.3,38.7,10.7s27.3-0.9,40.8,0.6"/>
	<path class="st0" d="M386.2,359.2c19.1-0.9,38.4-0.1,57.4,2.5"/>
	<path class="st0" d="M407.3,360.9c15.7-1.7,31.6-0.8,47,2.7"/>
	<path class="st0" d="M425.9,361.6c26-0.8,52.1,3.2,76.6,11.8"/>
	<path class="st0" d="M447.5,362.2c19,3.1,37.8,7.8,56,13.9"/>
	<path class="st0" d="M124.5,338.5c18.4,5,35.7,13.8,51.2,27.9c9.5,8.9,19.1,17.7,28.6,26.6"/>
	<path class="st0" d="M203.3,392.5c5.2,4,10.8,7.4,16.6,10.3"/>
	<path class="st0" d="M113.8,335.1c4.8,1.1,9.7,2.3,14.5,3.5"/>
	<path class="st0" d="M131.1,338.7c7.8,2.6,15.4,5.8,24.3,10.8c10.1,6.1,19.6,13.4,28.1,21.5"/>
	<path class="st0" d="M179.7,370.8c2.3,9.1-2.1,18.9-8.9,25.3s-15.7,10.2-24.4,13.7"/>
	<path class="st0" d="M143.4,413.1c-8.7,8.7-14.8,19.9-20,33.2c-1.2,7.8-6.7,14.9-14,17.9"/>
	<path class="st0" d="M113.6,463.8c-1.5-1.4-4-1.5-5.8-0.5c-1.8,1-3.1,2.8-3.8,4.8c-0.7,2-0.9,4.1-1.1,6.1"/>
	<path class="st0" d="M106.7,464.9c-3.6,2.5-3.7,8.3-1,11.8s7.1,5.2,11.5,5.9c5.3,0.9,10.9,0.6,15.7-1.7s8.6-7.1,9-12.5"/>
	<path class="st0" d="M212.6,399.1c-2.7,5.9-5.4,11.8-9.1,17s-8.7,9.8-14.7,12.1"/>
	<path class="st0" d="M184.3,429c-15.7,2-30,12.5-36.6,26.9"/>
	<path class="st0" d="M147.2,459.3c-1.6,3.4-3.2,6.8-4.8,10.1"/>
	<path class="st0" d="M211.5,400.1c-3.5,8.6-9,16.4-16.8,24.7c-5,2.2-10.1,4.4-15.1,6.5"/>
	<path class="st0" d="M318.7,452.6C366,467,415,473,464,466.3"/>
	<path class="st0" d="M319.1,452.1C365,467,414,470,462.1,462.8"/>
	<path class="st0" d="M427.7,428.3c31.2,40.5,75.2,70.9,124.1,85.7"/>
	<path class="st0" d="M433.1,432.4c29,35.9,66.9,65,110.2,80.8c11.3,4.1,23.2,7.5,32.9,14.7c9.7,7.2,16.7,19.6,13.5,31.2"/>
	<path class="st0" d="M554.8,514.3c9.2,4.2,18.4,9,25.3,16.4s11.1,18,8.7,27.8"/>
	<path class="st0" d="M381.2,465.9c0.8,8.4,5.8,15.9,11.3,22.4c5.5,6.5,11.6,12.5,15.6,20c4,7.5,5.3,17.1,0.9,24.3
		c-3.1,5-8.5,8.2-13.9,10.6s-11.1,4.4-15.8,8c-4.7,3.6-8.4,9.2-7.6,15.1c0.9,7.1,8.3,12.2,15.5,12.3s13.9-3.7,19.3-8.4
		c5.4-4.8,9.7-10.6,14.8-15.7c8.6-8.7,19.2-15.3,29.6-21.9c4.1-2.6,8.5-5.9,8.9-10.7c0.4-4.8-3.6-8.7-6.8-12.4
		c-9.7-11.1-14.8-26.1-13.8-40.8"/>
	<path class="st0" d="M404.6,505.8c3.3,4,5.2,9.2,5.4,14.4s-1.4,10.5-4,15.4c-7.7,5.4-16.1,9.9-24.9,13.3"/>
	<path class="st0" d="M440.3,474.3c1,8.3,2.8,16.6,5.5,24.5"/>
	<path class="st0" d="M456.4,522c0.7,3.8-0.9,7.7-3.4,10.6c-2.5,2.9-5.8,5-9,7.1c-7.9,5-15.8,10-23.7,15"/>
	<path class="st0" d="M590.5,559.2c-5-2.7-11.6-2-16,1.6c-4.4,3.6-6.3,9.9-4.7,15.4c1.6,5.2,6,9.1,10.9,11.4c8,3.7,18.1,3.4,25.1-2"
		/>
	<path class="st0" d="M586.5,559c-4.2-0.1-8.5,1.1-11.7,3.9s-5.1,7.1-4.4,11.3c0.8,4.7,4.5,8.4,8,11.6"/>
	<path class="st0" d="M591.5,497.9c5.5,2.5,9.8,7.3,12.8,12.5c3,5.3,4.8,11.1,6.5,17c2.8,9.5,5.2,19.2,5.5,29.1s-1.6,20.1-7,28.4"/>
	<path class="st0" d="M563.8,485.2c8,3.5,16.1,7.1,24.1,10.7c4.9,2.2,10,4.5,13.8,8.3c4.8,4.8,7.1,11.4,9,17.8
		c4.6,15.1,8,31.3,4.5,46.7"/>
</g>
<g id="Layer_5">
	<path class="st0" d="M37.8,259.7c-0.9,11.6,9.3,21.3,20.1,25.7S80.7,291,91.2,296c16.1,7.7,27.3,24.8,27.9,42.7"/>
	<path class="st0" d="M42.7,252.6c7.9,3.8,17.5,1.5,25.1-3s13.8-10.8,20.9-15.9c18.5-13.1,43.3-16.9,65.8-9
		c13.6-13,31-21.9,49.5-25.5"/>
	<path class="st0" d="M133.8,307.5c19.6,1.9,39.8-2.8,56.6-13"/>
	<path class="st0" d="M189.9,238.6c10.4,3.3,19.8,9.7,26.8,18.2"/>
	<path class="st0" d="M206,250.5c9,6.1,17.3,13.3,24.5,21.5"/>
	<path class="st0" d="M218.6,256.4c7.6,7.1,14.5,15,20.5,23.6"/>
	<path class="st0" d="M230.4,271.5c4.3,5.3,8.8,10.4,13.6,15.2"/>
	<path class="st0" d="M169.9,252.7c5.2-2.6,10-6,14.1-10.6c7.1-5.6,12.2-13.6,14.3-22.1c2.1-5.3,3.4-10.9,4-16.6"/>
	<path class="st0" d="M170.7,255.8c12.4-9.3,22.2-22.1,27.9-36.5"/>
	<path class="st0" d="M203.1,204.1c-1.4,6.9-3.5,13.7-6.2,20.2"/>
	<path class="st0" d="M194,230.9c-1.8,5.4-5,10.3-9.2,14.2"/>
	<path class="st0" d="M170.3,258.3c3.1,6.8,6.9,13.3,11.4,19.4"/>
	<path class="st0" d="M175.4,271.3c3.2,7.3,8.6,13.7,15.3,18.2"/>
	<path class="st0" d="M153,223.1c6.9-6.4,14.8-11.5,24.3-16.3c7.1-3.6,15-5.6,22.9-5.9"/>
	<path class="st0" d="M159.2,219.8c3.2-2,6.4-4.1,9.7-6.1"/>
	<path class="st0" d="M154.7,224.3c10.6-9.5,23.5-16.3,37.4-19.6"/>
	<path class="st0" d="M186,204.9c6.2-2.8,12.9-4.6,19.7-5.4"/>
	<path class="st0" d="M171.5,252.6c18.1-11.5,30.4-31.6,32.4-52.9"/>
	<path class="st0" d="M163.8,245.1c6.9-18.3,21.1-33.7,38.8-41.9"/>
	<path class="st0" d="M164.7,237.8c8.3-15.2,21.5-27.7,37.1-35.3"/>
	<path class="st0" d="M143.3,220.2c5.5-6.4,12-11.9,19.4-16.2c2.8-2.4,6.2-4.2,9.7-5.3"/>
	<path class="st0" d="M176.2,208.5c-0.2-3.3-1-6.6-2.1-9.7"/>
	<path class="st0" d="M190.9,240c11.1,5.4,20.8,13.2,29.3,22c8.6,8.8,16.1,18.6,23.5,28.4"/>
	<path class="st0" d="M203.5,245.8c7.5,6.4,15,12.7,23.2,20.3c5.9,6,11.3,12.6,16.1,19.6"/>
	<path class="st0" d="M194.1,240.3c3.7,1,7.3,2.6,10.5,4.6"/>
	<path class="st0" d="M171.4,253.7c0.3,11.6,5.5,22.9,14.1,30.7"/>
	<path class="st0" d="M176.2,267.7c2.5,7.5,6.8,14.4,12.6,19.9"/>
	<path class="st0" d="M131.6,308c16.9,3.8,35.2,1.2,50.5-7.2"/>
	<path class="st0" d="M175.8,302.8c6.8-1.7,13.4-4.7,19.1-8.8"/>
	<path class="st0" d="M179.4,279.3c4,5.5,8.9,10.3,14.4,14.2"/>
	<path class="st0" d="M134.8,308.6c16.9,0.8,34-2.8,49.2-10.2"/>
	<path class="st0" d="M195.8,383.5c-21.1-23-48.2-40.5-77.8-50.4"/>
	<path class="st0" d="M38.6,259.3c-2.3,8.4,2.5,17.5,9.4,22.9s15.6,7.7,24.1,9.8s17.2,4.1,24.5,8.9c10.9,7.2,17.2,19.6,21.1,32.1"/>
	<path class="st0" d="M96.9,300.1c-5.3-4.2-12-6.1-18.7-7.6c-6.6-1.4-13.4-2.4-19.6-5.2c-9.5-4.3-17.1-12.7-20.3-22.6"/>
	<path class="st0" d="M155.2,224.6c-13.3-5.6-28.4-6.7-42.5-3.2s-26.8,11.6-36,22.8"/>
	<path class="st0" d="M42.3,252.2c5.5,3.5,12.7,3.5,18.8,1.2s11.3-6.5,16-11"/>
	<path class="st0" d="M113.4,222.3c-11.4,2.8-22.1,8.6-30.6,16.6c-4.2,3.9-7.9,8.4-12.9,11.2"/>
	<path class="st0" d="M86.9,250.5c0,1.8,0.2,3.6,0.5,5.4"/>
	<path class="st0" d="M88,249.1c0.3,2.5,0.6,4.9,0.9,7.4"/>
	<path class="st0" d="M89.2,247.4c0.3,3,0.7,5.9,1.2,8.9"/>
	<path class="st0" d="M90.4,246.4c0.2,3.1,0.6,6.1,1.2,9.1"/>
	<path class="st0" d="M91.7,245.6c0.2,3.2,0.6,6.4,1.1,9.5"/>
	<path class="st0" d="M93.1,244.7c0.2,3.3,0.5,6.6,1.1,9.8"/>
	<path class="st0" d="M94.5,244.6c0.3,3.1,0.5,6.2,0.8,9.3"/>
	<path class="st0" d="M96.1,244.6c0.2,2.5,0.4,4.9,0.6,7.4"/>
	<path class="st0" d="M97.5,245.5c0.1,1.5,0.2,2.9,0.2,4.4"/>
	<path class="st0" d="M30.5,248.8c-0.5,2.9-0.9,5.9-1,8.9"/>
	<path class="st0" d="M32,248c-0.5,3.7-0.9,7.5-0.9,11.3"/>
	<path class="st0" d="M34,246.6c-0.6,4.1-1,8.3-1.3,12.5"/>
	<path class="st0" d="M35.5,247c-0.7,4.4-1,8.9-1.1,13.4"/>
	<path class="st0" d="M37.1,247.9c-0.7,3.9-1.1,7.9-1.1,11.8"/>
	<path class="st0" d="M38.6,247.9c-0.7,3.6-1.2,7.2-1.3,10.9"/>
	<path class="st0" d="M39.6,249.5c-0.3,2.6-0.6,5.2-0.9,7.9"/>
	<path class="st0" d="M41.3,249.7c-0.3,2.2-0.6,4.5-0.9,6.8"/>
	<path class="st0" d="M61.8,252c9.6-1.2,18.9,3,27.9,6.7c9,3.6,19.1,6.7,28.1,3.2"/>
	<path class="st0" d="M93.6,237.6c2.1-0.4,4.3,0.6,5.7,2.2s2.1,3.8,2.3,5.9c0.2,2.1-0.2,4.3-0.5,6.4"/>
	<path class="st0" d="M102.9,248.8c1.5-3.4,0.9-7.6-1.5-10.4"/>
	<path class="st0" d="M142.1,219.9c5.5-7.8,13.4-13.9,22.4-17.2"/>
	<path class="st0" d="M153.9,209.4c5.2-5.3,11.8-9.2,19-11.3"/>
	<path class="st0" d="M176.9,207.4c-1.1-3.4-2.2-6.8-3.2-10.3"/>
	<path class="st0" d="M41.3,250.8c-1.2-1.6-2.9-2.9-4.8-3.4c-1.9-0.6-4.1-0.3-5.7,0.9c-0.9,0.7-1.6,1.6-1.9,2.7
		c-0.9,2.4-0.1,5.3,1.8,6.9s4.9,2,7.1,0.8S41.4,254.8,41.3,250.8z"/>
	<path class="st0" d="M93.8,244.4c-3,1-5.6,3.2-7.1,6c-0.5,0.9-0.8,1.8-0.8,2.8c0,1,0.3,2,1.1,2.6c1.1,0.9,2.6,0.8,3.9,0.4
		c3-0.9,5.6-3.2,6.7-6.1c0.5-1.2,0.7-2.6,0.3-3.9C97.4,245,96,243.7,93.8,244.4z"/>
	<path class="st0" d="M655.6,362.3c11.7-8.6,25.6-14.2,41-17.2c-6.5,13-15,25-23.9,37c11.8-7.2,23.1-15.1,34.7-24.1
		c4.9,7.4,5.6,16.9,4,25.6s-5.4,16.8-10.1,26.6c13-12.9,23.8-28,31.6-43.4c8.2,15,7.4,34.5-1.9,48.8"/>
	<path class="st0" d="M651.4,367.8c12.6-11.5,29.3-18.5,45.8-21.6c-4.4,14.3-13.3,27.1-25.1,36.3"/>
	<path class="st0" d="M700.2,410.3c14.8-10.2,26.8-24.5,34.1-40.8c5.2,16.8,3.8,35.6-4,51.4"/>
	<path class="st0" d="M674.6,383.7c12.2-7.9,23.4-17.3,33-28.2c5.2,17.6,3.5,37.2-4.8,53.6"/>
	<path class="st0" d="M206.3,394.3c5.4,4.8,10.9,9.5,16.3,14.3"/>
	<path class="st0" d="M411.6,468.8c15.5,1.7,31.4,0.6,46.6-3.3"/>
	<path class="st0" d="M318.8,451.5c7.1,2.8,14.4,5.1,21.8,7"/>
	<path class="st0" d="M347.6,461.9c16.1,3.7,32.6,6.1,49.1,7.1"/>
	<path class="st0" d="M405.8,470.8c15.2-1,30.4-1.9,45.6-2.8"/>
	<path class="st0" d="M68.3,250.5c8.6,0.8,16.5,4.9,24.6,8.2c8,3.3,17,5.8,25.3,3.3"/>
	<path class="st0" d="M180.5,372.4c1.6,9.7-3.6,19.5-10.9,26.1c-7.3,6.6-16.6,10.5-25.6,14.3"/>
	<path class="st0" d="M138.2,419.6c-6.7,13.9-13.6,27.7-24.2,44c-3.7-2.5-9.4-0.4-11.2,3.7s-0.2,9.2,3,12.3s7.9,4.3,12.4,4.3
		c6.3,0,12.7-2.2,17.5-6.2c10.2-8.4,13.2-22.9,22-32.8"/>
	<path class="st0" d="M183.2,429.8c6.7-2.9,13.4-5.9,19.1-10.5s10.3-10.9,11.1-18.2"/>
</g>
<g id="Layer_6">
	<path class="st0" d="M104.6,467.1c2.7,5.4,5.9,10.6,9.5,15.5"/>
	<path class="st0" d="M108.4,462.3c3.9,7.4,8.2,14.5,13,21.4"/>
	<path class="st0" d="M113.2,462c4.3,7.3,9,14.4,14.1,21.1"/>
	<path class="st0" d="M116.4,460.4c4.9,7.3,10.4,14.2,16.4,20.6"/>
	<path class="st0" d="M120.2,455.9c5,7.6,10.5,14.9,16.4,21.8"/>
	<path class="st0" d="M122.5,450.4c5.1,8.2,10.7,16.2,16.9,23.6"/>
	<path class="st0" d="M125,445.8c5.8,8.5,11.6,17,17.4,25.6"/>
	<path class="st0" d="M126.1,439.5c6.1,9,12.8,17.5,20.1,25.6"/>
	<path class="st0" d="M129.5,434.1c5.4,8.8,11.5,17.1,18.2,24.9"/>
	<path class="st0" d="M132.1,429.2c5.6,8.4,11.6,16.5,17.9,24.4"/>
	<path class="st0" d="M134.8,423.5c5.9,8.5,11.8,16.9,17.7,25.4"/>
	<path class="st0" d="M138.2,418.9c5.6,8.4,11.1,16.8,16.7,25.2"/>
	<path class="st0" d="M141.8,416.8c5.1,8.5,10.8,16.6,17.1,24.2"/>
	<path class="st0" d="M144.8,411c5.3,9,11.3,17.6,17.8,25.8"/>
	<path class="st0" d="M149.9,409c4.4,9.5,10.1,18.4,16.9,26.4"/>
	<path class="st0" d="M154,406.6c5,7.8,10.1,15.6,15.1,23.4"/>
	<path class="st0" d="M159.5,404c5.1,9.3,11,18.1,17.7,26.2"/>
	<path class="st0" d="M164.7,401.1c5,7.8,10,15.5,15,23.3"/>
	<path class="st0" d="M168.8,397.2c5.1,10.2,11.6,19.8,19.2,28.3"/>
	<path class="st0" d="M173.3,394.1c5.4,10,11.5,19.6,18.4,28.6"/>
	<path class="st0" d="M175,389c6.7,11.5,14.2,22.5,22.4,33"/>
	<path class="st0" d="M178.4,382.3c6.8,11.6,14,23,21.7,34"/>
	<path class="st0" d="M181.4,379.1c7.4,11.7,14.9,23.4,22.3,35.2"/>
	<path class="st0" d="M184.6,375.8c7.2,10.3,14.4,20.6,21.5,30.9"/>
	<path class="st0" d="M196.7,386.8c4.4,4.9,8.3,10.3,11.6,16"/>
	<path class="st0" d="M144.8,217.1c1,1.9,2.1,3.7,3.1,5.6"/>
	<path class="st0" d="M146.9,216c1.3,2.6,2.8,5.1,4.3,7.6"/>
	<path class="st0" d="M148.4,214.4c1.9,3.1,3.7,6.1,5.6,9.2"/>
	<path class="st0" d="M150.3,212.4c1.9,3.3,3.8,6.6,5.8,9.9"/>
	<path class="st0" d="M152.9,210.4c1.6,3.3,3.4,6.5,5.3,9.6"/>
	<path class="st0" d="M155.1,208.5c1.8,3.3,3.6,6.6,5.5,9.9"/>
	<path class="st0" d="M157.7,207.2c1.6,3.2,3.3,6.5,4.9,9.7"/>
	<path class="st0" d="M159.8,205.5c1.7,3.3,3.3,6.6,5,9.9"/>
	<path class="st0" d="M161.9,203.6c1.6,3.3,3.2,6.6,4.8,9.9"/>
	<path class="st0" d="M164.8,203.1c1.5,3.4,3.1,6.7,4.6,10.1"/>
	<path class="st0" d="M166.7,201.4c1.6,3.4,3.2,6.9,4.8,10.3"/>
	<path class="st0" d="M169.6,200.2c1.6,3.2,3.1,6.3,4.7,9.5"/>
	<path class="st0" d="M172.1,198.6c1.3,2.7,2.5,5.4,3.8,8"/>
	<path class="st0" d="M166.1,238c1.7,4.6,3.5,9.2,5.2,13.9"/>
	<path class="st0" d="M168,235.3c2,5.2,4,10.4,6,15.6"/>
	<path class="st0" d="M168.7,232.3c2.6,5.9,5.2,11.7,7.7,17.5"/>
	<path class="st0" d="M171.2,229.2c2.5,5.6,5,11.3,7.5,16.9"/>
	<path class="st0" d="M173.5,226.8c2.7,5.9,5.4,11.7,8.2,17.5"/>
	<path class="st0" d="M175.5,224.5c2.8,6.5,5.9,12.8,9.2,19"/>
	<path class="st0" d="M177.2,221.4c2.8,6.2,5.8,12.4,9.1,18.5"/>
	<path class="st0" d="M179.5,219.4c2.5,6.1,5.3,12.1,8.5,18"/>
	<path class="st0" d="M182.3,217.8c2.3,6.1,5.1,12.1,8.4,17.7"/>
	<path class="st0" d="M184.2,214.9c2.4,5.4,5,10.6,7.9,15.7"/>
	<path class="st0" d="M186.5,213.1c2.6,4.7,5.1,9.4,7.7,14.1"/>
	<path class="st0" d="M189.2,210.8c2.2,4.6,4.6,9.1,7.2,13.4"/>
	<path class="st0" d="M192,209.7c1.7,3.8,3.7,7.6,5.9,11.2"/>
	<path class="st0" d="M195.1,207.9c1.5,2.9,2.9,5.7,4.4,8.6"/>
	<path class="st0" d="M197.8,205.9c0.9,1.9,1.8,3.8,2.7,5.6"/>
	<path class="st0" d="M373.4,560.2c2.5,6,5,12.1,7.5,18.1"/>
	<path class="st0" d="M375.6,554.8c3.4,7.8,6.8,15.7,10.2,23.5"/>
	<path class="st0" d="M379.4,551.7c4,9.3,8,18.5,12,27.8"/>
	<path class="st0" d="M383.4,549.4c4.1,9.1,8.3,18.2,12.4,27.3"/>
	<path class="st0" d="M387.2,546.8c3.5,9.8,7.6,19.3,12.4,28.5"/>
	<path class="st0" d="M391.3,545.5c4,9.2,7.9,18.5,11.9,27.7"/>
	<path class="st0" d="M395.4,543.7c4.2,8.9,8.3,17.8,12.5,26.6"/>
	<path class="st0" d="M399.3,542.1c3.8,7.8,7.5,15.6,11.3,23.5"/>
	<path class="st0" d="M403.2,538.7c3.2,7.6,6.5,15.2,9.7,22.8"/>
	<path class="st0" d="M406.1,534.8c3.4,8.2,6.7,16.4,10,24.5"/>
	<path class="st0" d="M409.5,533.2c3.2,7.3,6.4,14.5,9.6,21.8"/>
	<path class="st0" d="M411.1,526.9c4,8.8,8.1,17.6,12.1,26.3"/>
	<path class="st0" d="M411.5,517.8c4.5,11.3,9.6,22.4,15.2,33.3"/>
	<path class="st0" d="M383.2,468.1c2.5,5.5,4.9,11.1,7.4,16.6"/>
	<path class="st0" d="M386.9,468.5c4.9,9.8,9.8,19.6,14.6,29.5"/>
	<path class="st0" d="M390.8,468c12.9,26.4,25.8,52.7,38.7,79.1"/>
	<path class="st0" d="M395.1,468.6c12.5,25.5,25,51,37.5,76.6"/>
	<path class="st0" d="M399.2,468c12.5,25.4,25,50.7,37.5,76.1"/>
	<path class="st0" d="M403.8,467.9c11.8,24.1,23.5,48.2,35.3,72.3"/>
	<path class="st0" d="M409.2,469.5c11.1,22.9,22.3,45.7,33.5,68.6"/>
	<path class="st0" d="M414.7,469.2c9.2,22.6,19.8,44.6,31.6,65.9"/>
	<path class="st0" d="M419.1,469.6c10.3,21.4,20.7,42.9,31,64.3"/>
	<path class="st0" d="M424.2,470.6c9.8,19.5,19.5,39,29.2,58.5"/>
	<path class="st0" d="M428.8,469.1c9.4,19.2,18.9,38.5,28.3,57.7"/>
	<path class="st0" d="M433,469.8c2.2,6.2,4.8,12.3,7.7,18.2"/>
	<path class="st0" d="M436.5,469.8c1.4,3.1,2.8,6.2,4.1,9.4"/>
</g>
<g id="Layer_8">
	<path class="st0" d="M201.8,342.3c-1.2,13.8,4.3,27.9,14.5,37.3s24.8,13.6,40,9.4c-0.3,6.8-2.9,13.3-4.5,20
		c-1.6,6.6-2.1,14.1,1.4,20c2.9,4.8,8,7.7,12.9,10.5c15.3,8.5,30.6,17,46,25.5"/>
	<path class="st0" d="M280.6,349.5c4.9,5.3,11.5,8.7,17.2,13.1s10.9,10.5,11.2,17.7c0.3,6.8-3.9,13-8.5,18c-4.6,5-10,9.6-13,15.6
		c-0.8,1.6-1.5,3.5-1.1,5.3c0.7,3.4,4.4,5,7.7,6.1c5.7,2,11.3,4.5,15.9,8.3c4.7,3.8,8.4,9.1,9.1,15.1s-1.9,12.5-7.1,15.4"/>
	<path class="st0" d="M202,345.8c0.9,13,7.3,25.5,17.3,33.8s23.5,12.3,35.2,13c-2.2,5.6-4.4,11.3-5.3,17.2c-0.9,6-0.2,12.3,2.9,17.5
		c2.5,4.1,6.4,7.1,10.3,9.9c15.4,11.1,31.9,20.7,49.1,28.6"/>
	<path class="st0" d="M281.1,350.3c6.7,5.2,13.2,10.7,19.5,16.5c3.4,3.2,6.9,6.7,8,11.2c1.3,5.2-0.8,10.7-3.9,15
		c-3.1,4.3-7.3,7.8-10.9,11.7c-3.6,3.9-6.8,8.5-7.4,13.8"/>
	<path class="st0" d="M289.3,422.2c6.6,2.4,13.3,4.9,19,9c5.7,4.1,10.5,10,11.6,17s-2.3,14.8-8.7,17.5"/>
	<path class="st0" d="M202.5,346c0.7,12.8,6.7,25.3,16.4,33.8c9.6,8.5,22.8,12.9,35.9,11c-2.4,6.8-4.8,13.6-5.5,20.8
		s0.7,14.8,5.2,20.4c3,3.8,7.1,6.4,11.2,9c9.7,6.2,19.5,12.3,29.2,18.5c5.7,3.6,12,7.3,18.6,6.3"/>
	<path class="st0" d="M282.2,350.5c6.9,4,13.9,8.2,19.2,14.1c5.3,6,8.8,14.1,7.1,22c-1.1,5.1-4.2,9.6-7.8,13.4s-7.6,7.2-11.1,11.1
		c-1.7,2-3.4,4.5-2.8,7c0.7,2.8,3.8,4.2,6.5,5.2c6.5,2.4,13,5.2,18.3,9.6c5.3,4.4,9.4,10.8,9.7,17.7s-3.8,14.2-10.5,16.2"/>
	<path class="st0" d="M201.9,355.6c2,10,7.1,19.3,14.5,26.3"/>
	<path class="st0" d="M221.6,385.3c5,2.6,10.6,4,16.2,4.3"/>
	<path class="st0" d="M254.2,395.7c-1.8,5.3-2.9,10.8-3.4,16.4"/>
	<path class="st0" d="M289.2,355.2c7.9,6,14.6,13.6,19.7,22.1"/>
	<path class="st0" d="M287.5,415.4c3.7-5.9,9.4-10.2,14.3-15.2c4.9-5,9.2-11.2,9.1-18.2"/>
	<path class="st0" d="M212.6,397.9c10.8,11.4,23.6,20.8,37.7,27.8"/>
	<path class="st0" d="M208,393.3c12.1,11.1,25.9,20.2,40.8,27"/>
	<path class="st0" d="M222.7,406.1c7.1,6,14.7,11.2,22.9,15.6"/>
	<path class="st0" d="M191.1,379.3c16.9,20.3,38.2,36.9,62,48.3"/>
	<path class="st0" d="M198.4,387.2c14.7,14.4,32.1,26,51.1,34"/>
</g>
<g id="Layer_9">
	<path class="st0" d="M252.4,406.5c15.2,1.4,30.7-1.1,44.7-7.1"/>
	<path class="st0" d="M541.8,510.7c10.2-7.4,17.3-19.1,19-31.6"/>
	<path class="st0" d="M254.8,408.2c-0.6,6.5-1.1,13.1-1.6,19.6"/>
	<path class="st0" d="M259.4,406.1c-0.8,8.8-1.5,17.5-2.3,26.3"/>
	<path class="st0" d="M263.1,407.5c-0.2,9.6-0.5,19.3-0.7,29"/>
	<path class="st0" d="M268.3,406.5c-0.3,11.1-0.6,22.2-0.9,33.2"/>
	<path class="st0" d="M274.3,406.4c-0.4,12-0.8,24-1.2,36"/>
	<path class="st0" d="M278.4,405.2c-0.4,13.4-0.8,26.8-1.1,40.1"/>
	<path class="st0" d="M283.3,405.1c-0.5,13.9-1,27.8-1.5,41.6"/>
	<path class="st0" d="M286.9,403.8c-0.1,3-0.2,5.9-0.3,8.9"/>
	<path class="st0" d="M287.9,418.6c-0.2,11.3-0.3,22.6-0.5,33.9"/>
	<path class="st0" d="M292,424.5c0.2,10.7,0.4,21.4,0.5,32.1"/>
	<path class="st0" d="M297.6,426.5c0,10-0.1,20-0.1,30"/>
	<path class="st0" d="M301.3,428.6c-0.1,10.6-0.3,21.3-0.4,31.9"/>
	<path class="st0" d="M306.4,430.2c-0.3,10.1-0.6,20.2-1,30.3"/>
	<path class="st0" d="M310.8,434.9c-0.3,9.9-0.6,19.8-0.9,29.6"/>
	<path class="st0" d="M315.5,439.5c0,7.5,0,15,0,22.5"/>
	<path class="st0" d="M293,401.9c-0.2,3.1-0.4,6.2-0.7,9.4"/>
	<path class="st0" d="M569.9,574.3c6.4,6.3,13.5,11.9,21.2,16.5"/>
	<path class="st0" d="M570.1,571.1c8,6.8,16.5,13.1,25.4,18.7"/>
	<path class="st0" d="M571.6,566.9c8.9,7.4,18.2,14.3,27.9,20.6"/>
	<path class="st0" d="M574.5,564.6c9.3,7.6,19,14.7,29,21.3"/>
	<path class="st0" d="M577.3,562c10,7.1,20.4,13.8,31,19.9"/>
	<path class="st0" d="M581.8,559.4c9.2,6.8,18.7,13.2,28.4,19.2"/>
	<path class="st0" d="M586,558.4c9,5.4,17.9,10.8,26.9,16.1"/>
	<path class="st0" d="M588.8,554.9c7.7,5.9,16,11,24.7,15.2"/>
	<path class="st0" d="M589,551c7.5,5.3,15.8,9.8,24.4,13.2"/>
	<path class="st0" d="M588.5,548.1c8.7,4.4,17.3,8.8,26,13.1"/>
	<path class="st0" d="M586.9,542c9,5.3,18.3,10.1,27.8,14.4"/>
	<path class="st0" d="M584.5,536.8c10,5.1,20.4,9.5,31.1,12.9"/>
	<path class="st0" d="M581.1,532.5c10.8,4,21.7,7.9,32.5,11.8"/>
	<path class="st0" d="M575.5,526.3c13,4.5,26.3,8.4,39.7,11.6"/>
	<path class="st0" d="M566.2,520.5c15.3,4.5,30.9,8,46.6,10.6"/>
	<path class="st0" d="M555.1,515.2c18.7,4,37.6,7.2,56.6,9.5"/>
	<path class="st0" d="M545.9,511.4c21.2,3.4,42.6,6.3,64,8.6"/>
	<path class="st0" d="M546.1,508c20.3,2.4,40.7,4.7,61,7.1"/>
	<path class="st0" d="M549.3,503.9c17.6,2.9,35.5,4.7,53.3,5.5"/>
	<path class="st0" d="M553.4,500.2c15.4,2.3,30.9,3.6,46.4,4.1"/>
	<path class="st0" d="M555.7,495.9c12.6,2.2,25.3,3.3,38.1,3.3"/>
	<path class="st0" d="M557.8,491.9c8.8,1.8,17.8,2.8,26.8,2.9"/>
	<path class="st0" d="M560,488.2c4.9,0.6,9.7,1.2,14.6,1.9"/>
	<path class="st0" d="M560,484.4c2,0.4,4,0.9,6,1.3"/>
</g>
</svg>
