<?xml version="1.0" encoding="UTF-8"?><svg id="Layer_1" xmlns="http://www.w3.org/2000/svg" viewBox="0 0 110.137 134.31"><defs><style>.cls-1{fill:none;stroke:#000;stroke-miterlimit:10;}</style></defs><path class="cls-1" d="M18.454,56c.343-2.543-1.078-4.936-2.575-6.86-4.716-6.059-11.079-10.826-13.775-18.326-.552-1.535-.935-3.209-.707-4.847,.502-3.618,4-5.972,7.198-5.686s6.004,2.614,8.125,5.362,3.726,5.962,5.726,8.826,4.545,5.463,7.642,6.444"/><path class="cls-1" d="M18.896,50.395c-1.415,5.026-2.455,10.194-2.507,15.415s.921,10.516,3.348,15.139l.423,.441,.371,.618,.371,.741,.494,.741,.371,.618,.371,.741,.494,.741,.494,.741,.618,.865,.618,.865,.494,.865,.741,.865,.741,.988,.741,.988,.618,.988,.618,.988,.618,.741,.494,.618,.618,.618,.741,.371"/><path class="cls-1" d="M21.849,51.822c-4.124,7.2-5.763,15.793-4.576,24.005s5.19,15.991,11.183,21.729"/><path class="cls-1" d="M17.842,56.258c.201-2.483-1.736-4.42-3.408-6.023-4.479-4.292-8.358-9.398-11.447-15.067-1.117-2.05-2.15-4.237-2.424-6.63s.35-5.049,2.033-6.509c.824-.714,1.84-1.098,2.865-1.257,3.61-.562,7.19,1.563,9.817,4.447s4.529,6.496,6.718,9.822,4.823,6.499,8.25,7.913"/><path class="cls-1" d="M51.643,40.216c2.681-.708,3.982-3.33,4.796-5.688,3.071-8.892,4.099-18.308,7.924-26.971,.758-1.717,1.651-3.433,3.097-4.764s3.548-2.229,5.616-1.951c2.041,.274,3.699,1.618,4.875,3.112,3.114,3.954,3.627,9.121,2.748,13.87-.879,4.749-3.012,9.233-4.829,13.771-1.818,4.538-3.348,9.294-2.73,14.09"/><path class="cls-1" d="M53.112,42.805c4.281-4.435,6.403-10.173,7.747-15.872,1.344-5.699,2.014-11.53,3.883-17.113,.697-2.084,1.619-4.206,3.423-5.687s4.712-2.122,6.786-.945c1.885,1.069,2.524,3.205,2.86,5.156,.871,5.063,.721,10.262-.442,15.28-1.45,6.256-4.464,12.295-4.562,18.679-.025,1.599,.247,3.393,1.671,4.386"/><path class="cls-1" d="M77.512,53.716c-2.943-4.01-4.38-9.099-3.969-14.056"/><path class="cls-1" d="M70.308,91.553c-5.788,11.274-7.176,24.737-3.809,36.955"/><path class="cls-1" d="M67.147,93.999c-2.963,9.416-4.755,19.2-5.323,29.054"/><path class="cls-1" d="M17.264,75.777c1.775,5.471,4.359,10.786,8.338,14.939s9.486,7.051,15.238,7.049"/><path class="cls-1" d="M20.782,85.989c2.093,2.842,4.202,5.702,6.784,8.108s5.694,4.358,9.158,5.034"/><path class="cls-1" d="M30.794,96.133c1.778,5.384,1.512,11.235,.619,16.834s-2.39,11.099-3.032,16.733"/><path class="cls-1" d="M33.362,98.307c1.94,11.924,1.141,24.285-2.317,35.86"/><path class="cls-1" d="M33.439,102.535l-.992,27.528"/><path class="cls-1" d="M28.614,42.461c3.243-1.84,4.673-5.509,4.553-9.02-.12-3.511-1.556-6.933-3.029-10.259s-3.02-6.696-3.382-10.205c-.238-2.305,.051-4.626,.842-6.781,.928-2.527,2.821-4.996,5.752-5.574,2.81-.554,5.875,.833,7.827,2.853,1.952,2.02,2.996,4.576,3.87,7.09,1.146,3.296,2.08,6.646,2.628,10.033,1.079,6.673,.714,13.653,3.968,19.845"/><path class="cls-1" d="M30.345,42.847c4.215-4.183,3.748-10.945,2.022-16.609s-4.471-11.315-3.935-17.133c.343-3.721,2.895-7.794,6.857-7.743,2.152,.028,4.15,1.324,5.44,2.985,1.289,1.66,1.977,3.653,2.556,5.626,2.703,9.216,3.478,18.832,6.429,27.986,.609,1.888,1.404,3.876,3.104,5.04"/><path class="cls-1" d="M76.619,56.414c2.685-6.098,9.066-9.128,15.105-10.845,3.594-1.022,7.414-1.759,10.999-.698,3.585,1.061,6.835,4.381,6.912,8.4,.031,1.655-.521,3.378-1.701,4.43-1.062,.946-2.478,1.253-3.835,1.501-5.026,.92-10.272,1.533-14.652,4.354-9.24,5.951-12.008,19.92-21.382,25.684"/><path class="cls-1" d="M75.936,53.635c4.587-7.391,13.407-10.418,21.635-10.534,2.981-.042,6.106,.277,8.614,2.021,2.508,1.744,4.161,5.277,3.091,8.287-.379,1.067-1.06,1.985-1.847,2.747-3.943,3.819-9.937,3.609-14.707,6.09-4.342,2.259-7.416,6.623-9.857,11.117-2.441,4.494-4.445,9.309-7.486,13.352-3.042,4.043-7.425,7.323-12.243,7.283"/><path class="cls-1" d="M87.454,68.092l-4.451,6.882c-3.207,4.959-6.468,9.981-10.817,13.894s-9.993,6.652-15.732,6.168"/><path class="cls-1" d="M79.79,56.068c-2.224-2.784-5.726-4.361-9.268-4.758s-7.13,.295-10.513,1.415c-5.597,1.854-11.107,5.239-13.473,10.64"/><path class="cls-1" d="M50.015,61.74c2.091-3.04,5.374-5.115,8.868-6.301s7.211-1.548,10.897-1.707c3.676-.159,7.575-.068,10.707,1.862"/><path class="cls-1" d="M68.034,93.86c-5.317,10.916-6.914,23.604-4.465,35.497"/></svg>