<?xml version="1.0" encoding="utf-8"?>
<!-- Generator: Adobe Illustrator 27.5.0, SVG Export Plug-In . SVG Version: 6.00 Build 0)  -->
<svg version="1.1" id="Layer_1" xmlns="http://www.w3.org/2000/svg" xmlns:xlink="http://www.w3.org/1999/xlink" x="0px" y="0px"
	 viewBox="0 0 800 800" style="enable-background:new 0 0 800 800;" xml:space="preserve">
<style type="text/css">
	.st0{fill:none;stroke:#000000;stroke-miterlimit:10;}
	.st1{fill:#FFFFFF;stroke:#000000;stroke-miterlimit:10;}
</style>
<g id="Layer_2_00000169558289961771784400000004651529473350508206_">
	<path class="st0" d="M240.7,277c9.9-13.6,24.4-23.9,40.6-28.7s33.9-4.3,49.7,1.6c25.3,9.4,43.7,30.9,61,51.6"/>
	<path class="st0" d="M241.1,295.1c3.2,12.4,11,23.2,20.8,31.5c9.8,8.2,21.4,14,33.4,18.4c9.6,3.5,20.1,6.5,27,14.1"/>
	<path class="st0" d="M241.8,298.1C249,327,276,342,303,351c5,1,10,1,14,4c11,11,10,27,12,41c7,64,63,108,123,123c1,0,2,1,3.5,1.7"
		/>
	<path class="st0" d="M363,468.5c10.9,13.8,25.5,24.1,40.8,32.7c18.3,10.3,37.8,18.2,58.1,23.7"/>
	<path class="st0" d="M240.7,276.7c11.6-11.8,25.6-21.6,41.4-26.9s33.4-5.6,48.8,0.4c9.1,3.6,17.2,9.3,24.7,15.4
		c14.3,11.7,27,25.5,37.8,37.8c-8.8-11.1-17.6-22.2-27.9-31.9c-10.2-9.7-22-18.1-35.3-22.9c-15.3-5.5-32.5-6-48.1-1.3
		C266.5,252.1,252.5,261.9,240.7,276.7z"/>
	<path class="st0" d="M240.5,296.6c2.4,13,11.1,24.2,21.6,32.4c10.5,8.1,22.7,13.6,34.8,19.1c7,3.1,13.9,6.2,20.9,9.4"/>
	<path class="st0" d="M388.9,297.6c-10.6-13-21.9-25.7-35.3-35.8c-13.4-10.1-29.2-17.5-45.9-19.1c-26.8-2.6-54.5,11.3-68.5,34.4"/>
	<path class="st0" d="M315.4,354.5c6.2,7.6,9.3,17.3,11,26.9s2.3,19.5,4.2,29.1c5.3,26.2,20.8,49.7,40.8,67.4s44.4,30,69.7,38.7
		c8,2.8,16.2,5.2,23.5,9.4"/>
	<path class="st0" d="M318.4,357.4c8.2,24.6,7.6,51.8,17.6,75.7c9,21.4,26.1,38.5,45.2,51.6"/>
	<path class="st0" d="M321.8,359.3c2.6,31.9,9.3,64.5,27.5,90.9c13.1,18.9,31.6,33.6,51.6,45s41.5,19.9,62.9,28.3"/>
	<path class="st0" d="M242.8,296.9c1.9,11.7,9.1,22.1,18.3,29.6c9.2,7.5,20.3,12.3,31.5,16c10.6,3.5,22.3,6.6,29.3,15.4"/>
</g>
<g id="Layer_3">
	<path class="st0" d="M396.1,306.6c18.8-13.4,39.6-23.4,61.1-31.6c21.6-8.3,43.9-14.8,66.1-21.4c22.8-6.9,45.5-14.1,67.7-22.8
		c22.8-8.9,45.2-18.9,67-30.1c21.7-11.1,42.9-23.3,63.3-36.6c2.6-1.7,5.1-3.3,7.7-5"/>
	<path class="st0" d="M393.5,304.9c41.2-31.5,93.2-44.3,142.5-60.3c64.8-21,127.5-48.6,186.6-82.4"/>
	<path class="st0" d="M515,415.4c1.3,0,2.6,0,3.8,0"/>
	<path class="st0" d="M399.1,301.7C456,273,517,255,578,233c53-20,105-42,150.7-75.1"/>
	<path class="st0" d="M393.3,305c37-30.4,85-43.1,130.9-56.8c73.8-22,147.4-49.2,208.6-95.9"/>
	<path class="st0" d="M383.3,287.9C384,259,393,231,406,205c22-47,49-91,77.5-133.4"/>
	<path class="st0" d="M382.2,293.4c7.8-32,18.2-63.3,31.1-93.6c12.8-30.2,28.1-59.4,45.5-87.1c9.8-15.6,20.4-30.8,31.6-45.5"/>
	<path class="st0" d="M385.6,295.6c-1.2-31.1,10.4-60.7,22.5-88.8c12.5-29.2,26-58,41.9-85.5c8.9-15.4,18.5-30.4,29-44.8"/>
	<path class="st0" d="M509.9,652.2C538,575,542,489,517.5,411"/>
	<path class="st0" d="M519.9,413.2C543,489,541,572,514.2,646.4"/>
	<path class="st0" d="M520.1,414.7C541,490,538,571,515.1,645.1"/>
	<path class="st0" d="M516.1,412.3c9.7,29.7,11.3,61.3,13.5,92.2c2.2,32.3,2.5,64.1-4.7,95.8c-3.9,17.2-9.2,34.1-14.5,50.9"/>
	<path class="st0" d="M524.3,429.7c6.8,38.8,8.9,78.4,6.4,117.7"/>
	<path class="st0" d="M488.6,67.3C434,132,400,213,385.3,297"/>
	<path class="st0" d="M239.4,278c-57.7-2.4-115.4-4.7-173.2-7"/>
	<path class="st0" d="M242.2,298.2c-61.7-9.2-123.4-18.4-185.1-27.6"/>
	<path class="st0" d="M241.3,278.4c-60.2-2.9-120.5-5.9-180.7-8.8"/>
	<path class="st0" d="M244.4,301.7c-61.8-11.4-123.7-21.5-185.9-30.5"/>
	<path class="st0" d="M241,274.2c-61.4,2.4-123,0.4-184.1-6"/>
	<path class="st0" d="M241.4,299.4c-61.6-8.8-123.2-17.6-184.9-26.4"/>
	<path class="st0" d="M238.4,276.5c-59.1-2.8-118.2-5.6-177.3-8.4"/>
</g>
<g id="Layer_4">
	<path class="st0" d="M725.2,160c2.8-2.3,6.9-4.6,9.7-2.3c2.1,1.8,1.8,5,1.2,7.7c-3.7,15.9-12.7,30.3-23.9,42.1
		c-11.2,11.8-24.8,21.3-38.7,29.8"/>
	<path class="st0" d="M714,205.5c6.9-1.9,14-2.8,21.2-2.6c1.8,0,3.9,0.3,4.9,1.8c0.9,1.4,0.5,3.1,0,4.7
		c-4.8,15.8-16.9,28.4-29.8,38.8c-25.5,20.6-55.7,35.2-87.6,42.5"/>
	<path class="st0" d="M696.8,259c9.1-1.6,18.7-0.7,27.3,2.6c1,0.4,2.1,0.9,2.8,1.8c1.5,2,0.3,4.9-1,7c-11.6,18.9-30.3,32.6-49.9,43
		c-24.3,12.9-50.8,21.7-78,25.8"/>
	<path class="st0" d="M664.7,319.2c7.1-0.5,14.3,0.6,21,3.1c1,0.4,2,0.8,2.7,1.7c1.6,2.1-0.1,5-1.9,7
		c-11.6,12.5-27.7,19.6-43.7,25.4c-27,9.8-55.2,16.6-83.8,18.2"/>
	<path class="st0" d="M607.2,366.5c5.9,0.5,11.7,1.4,17.5,2.6c1.8,0.4,3.7,0.8,5.1,1.9c2.9,2.2,3.5,6.6,2.1,10.1s-4.2,6-7.2,8.2
		c-14.9,11-33.7,15.2-51.9,18.4c-19.4,3.4-39.1,6-58.6,3.5"/>
	<path class="st0" d="M727.2,157c2.5-1,4.7-4.1,7-2.8c0.9,0.5,1.3,1.6,1.6,2.6c1.6,6.2-0.8,12.8-3.6,18.5
		c-11.9,24.4-32.7,43.5-55.9,57.6"/>
	<path class="st0" d="M712.8,205.8c6.1-2.5,12.6-3.9,19.1-4.2c1.8-0.1,4,0.1,5.1,1.6c0.9,1.3,0.6,3,0.3,4.5
		c-3.7,14.9-15.3,26.4-27.2,36.1c-25.4,20.8-54.5,37-85.5,47.7"/>
	<path class="st0" d="M727.2,158.6c2.7-0.5,4.4-3.7,7.2-3.9c2.3-0.2,4.2,2,4.6,4.3c0.4,2.3-0.4,4.6-1.2,6.7
		c-11.5,29.6-35.8,52.8-62.7,69.8"/>
	<path class="st0" d="M714.7,205.1c4.5-2,9.5-3,14.4-2.9c2.1,0.1,4.5,0.4,6,1.9c2.2,2.2,2,5.9,1,8.8c-2.9,9-10,15.9-16.8,22.5
		c-10.1,9.6-20.3,19.3-32,27c-12,7.9-25.3,13.5-38.5,19.1c-5.6,2.4-11.2,4.7-16.8,7.1"/>
	<path class="st0" d="M693.3,259.8c6.4-1.8,13.2-2.5,19.8-1.9c3,0.3,6.3,1,8.2,3.4c0.9,1.1,1.3,2.6,1.4,4c0.5,6.1-4,11.4-8.2,15.8
		c-7.9,8.3-16,16.7-25.6,23c-3.5,2.3-7.3,4.3-11,6.2c-23.2,11.8-47.7,20.8-72.9,27"/>
	<path class="st0" d="M697.2,258.3c7.7-0.7,15.5-0.4,23.1,1.1c1.2,0.2,2.4,0.5,3.3,1.3c1.6,1.3,1.8,3.6,1.4,5.6
		c-0.9,4.9-4.3,9-7.7,12.7c-9.2,10.2-19.1,20.1-30.7,27.4c-6.6,4.2-13.7,7.5-20.9,10.6c-19.9,8.5-40.5,15.5-61.5,20.7"/>
	<path class="st0" d="M662.6,319c6.6-0.2,13.2,0.7,19.4,2.8c1.2,0.4,2.5,0.9,3.3,1.9c2.2,2.6,0,6.5-2.4,8.9
		c-4.9,5-10.7,8.9-16.7,12.5c-30.9,18.2-67.1,24.5-102.4,30.5"/>
	<path class="st0" d="M658.1,320c7.6,0.5,15.1,1.8,22.4,3.8c2.2,0.6,4.7,1.7,4.9,4c0.1,1.2-0.6,2.3-1.4,3.2
		c-1.3,1.5-2.9,2.7-4.6,3.8c-21.8,15.3-47.7,23.2-73.2,30.8c-4.5,1.4-9.1,2.7-13.7,3.8c-9.8,2.2-19.9,3.1-29.4,6.2"/>
	<path class="st0" d="M605.4,367.5c6.3-0.2,12.6,0.8,18.5,2.8c3.3,1.2,6.9,3.2,7.3,6.7c0.2,1.9-0.6,3.8-1.6,5.4
		c-4.1,6.3-11.4,9.6-18.4,12.4c-29.8,11.5-61.9,17.2-93.8,16.5"/>
	<path class="st0" d="M597.9,367.8c8.5-0.6,17.2,0.2,25.5,2.2c2.2,0.5,4.5,1.3,5.8,3c1.7,2.1,1.5,5.4,0.2,7.8s-3.5,4.2-5.8,5.7
		c-15.3,10.7-33.9,15.6-52.3,18.3c-18.5,2.6-37.2,3.2-55.6,6.4"/>
</g>
<g id="Layer_5">
	<path class="st1" d="M733.6,161.1c-2.2,9.1-4.8,18-7.6,26.9"/>
	<path class="st1" d="M725.5,168.9c-1.1,8.2-2.8,16.3-5.3,24.1"/>
	<path class="st1" d="M719.6,174.4c-1.8,10.9-4.3,21.7-7.4,32.3"/>
	<path class="st1" d="M712.6,182.4c-1.5,10.8-4.2,21.4-7.9,31.6"/>
	<path class="st1" d="M705.5,189.5c-2.2,10.1-5,20-8.3,29.7"/>
	<path class="st1" d="M696.9,196.5c-2.1,10.8-4.9,21.4-8.4,31.7"/>
	<path class="st1" d="M688.5,203.8c-2,9.6-4.6,19.1-7.8,28.3"/>
</g>
<g id="Layer_6">
	<path class="st0" d="M634.8,269.2c-1.2,6.2-2.4,12.4-3.6,18.6"/>
	<path class="st0" d="M644.6,262.2c-1.6,6.9-3,13.9-4.1,20.9"/>
	<path class="st0" d="M652.9,253.4c-1.4,9.4-2.9,18.8-4.3,28.2"/>
	<path class="st0" d="M662.6,248.9c-1.2,9.5-2.8,19-4.9,28.4"/>
	<path class="st0" d="M668.5,252.9c-0.9,5.8-1.8,11.6-2.7,17.5"/>
	<path class="st0" d="M676.5,249c-1,6.4-1.9,12.8-2.6,19.3"/>
	<path class="st0" d="M685.1,237.4c-0.9,8.7-2.1,17.4-3.5,26"/>
	<path class="st0" d="M695.1,230.8c-2.2,10.7-3.8,21.5-4.9,32.4"/>
	<path class="st0" d="M704.3,228c-1.9,7.5-3.2,15.1-4,22.8"/>
	<path class="st0" d="M712,224.9c-0.3,5.5-0.9,10.9-1.8,16.3"/>
	<path class="st0" d="M725,208.1c-1.5,9.5-3,19-4.5,28.5"/>
	<path class="st0" d="M613.8,313.3c-1.1,6.9-2.4,13.7-4.1,20.4"/>
	<path class="st0" d="M622,305.8c-1.8,8.9-3.5,17.8-5.3,26.7"/>
	<path class="st0" d="M628.4,305.7c-1.4,8.2-2.6,16.4-3.8,24.5"/>
	<path class="st0" d="M637.4,298.9c-2,10.5-3,21.1-3.2,31.8"/>
	<path class="st0" d="M647.2,295c-1.7,9.7-2.8,19.5-3.4,29.3"/>
	<path class="st0" d="M655.5,295.4c-1.2,7.5-2.4,15-3.6,22.4"/>
	<path class="st0" d="M664.9,286.8c-1,10.7-2.1,21.4-3.1,32.1"/>
	<path class="st0" d="M675.8,280.2c-1.3,10.8-2.7,21.6-4,32.4"/>
	<path class="st0" d="M681.6,280.5c-1,9.3-1.8,18.7-2.3,28.1"/>
	<path class="st0" d="M689,274c-1.5,10.5-2.2,21.2-2.3,31.8"/>
	<path class="st0" d="M697.7,266.9c-1.8,10.8-3.1,21.7-4,32.6"/>
	<path class="st0" d="M705.6,263.5c-0.9,10.1-1.8,20.1-2.8,30.2"/>
	<path class="st0" d="M715.2,264.4c-0.7,5-1.4,10-2.1,15"/>
	<path class="st0" d="M576.4,353c-3.6,6.8-6.7,13.9-9.4,21.2"/>
	<path class="st0" d="M584.3,350.3c-3.5,6.7-6.2,13.7-8,21"/>
	<path class="st0" d="M591.8,349.1c-3,7.3-5.9,14.7-8.5,22.2"/>
	<path class="st0" d="M599.1,347.8c-2.4,6.7-4.9,13.4-7.3,20"/>
	<path class="st0" d="M606.9,344.8c-2.8,8.5-5.5,17-8.3,25.5"/>
	<path class="st0" d="M616.1,340.8c-2.5,7.7-5,15.5-7.5,23.2"/>
	<path class="st0" d="M623.5,341c-2.3,7.2-4.3,14.6-6,22"/>
	<path class="st0" d="M633.1,338.1c-1.6,7.8-3.7,15.4-6.3,22.9"/>
	<path class="st0" d="M644.5,333.3c-2.5,7.6-4.7,15.2-6.5,23"/>
	<path class="st0" d="M651.8,331.4c-3,7.6-5,15.5-6.1,23.5"/>
	<path class="st0" d="M659,330.6c-2.2,6.3-4,12.7-5.3,19.2"/>
	<path class="st0" d="M667.2,325.8c-2.3,6.8-4.3,13.7-6,20.6"/>
	<path class="st0" d="M675.2,326.1c-1.3,4.3-2.6,8.6-3.8,12.8"/>
	<path class="st0" d="M525.6,394.4c-2.4,5.7-4.8,11.4-7.3,17.1"/>
	<path class="st0" d="M532.3,393.2c-2.5,5.9-4.9,11.8-7.3,17.7"/>
	<path class="st0" d="M539.7,390.4c-2.4,6.9-4.7,13.8-7.1,20.7"/>
	<path class="st0" d="M550.2,387.5c-2.6,7.2-5.2,14.4-7.8,21.6"/>
	<path class="st0" d="M557.6,386.6c-2.8,7.2-5.5,14.5-8.2,21.7"/>
	<path class="st0" d="M565.2,385.4c-2.8,7.5-5.5,15-8,22.5"/>
	<path class="st0" d="M573.6,384.3c-1.7,6.8-3.9,13.5-6.5,20"/>
	<path class="st0" d="M583.8,379.7c-2,8.9-4.9,17.5-8.5,25.9"/>
	<path class="st0" d="M592.6,375.5c-3.2,9.1-6.4,18.1-9.6,27.2"/>
	<path class="st0" d="M598.8,376.5c-2.3,7.7-4.8,15.3-7.7,22.8"/>
	<path class="st0" d="M605.6,377.1c-2.3,6.6-4.6,13.3-6.9,20"/>
	<path class="st0" d="M611.9,377.1c-2.2,6-4,12.2-5.7,18.4"/>
	<path class="st0" d="M618,377.7c-1.3,4.6-2.5,9.1-3.8,13.7"/>
	<path class="st0" d="M625.8,376.4c-2,4.5-3.5,9.1-4.4,13.9"/>
</g>
<g id="Layer_7">
	<path class="st0" d="M521.9,621.7C509,667,483,708,447.5,738.8c2-21.2,7.9-6.7,0,0C452,685,470,632,496.5,584.2"/>
	<path class="st0" d="M466,655.6c-8.8,19.7-21.5,37.7-37.5,52.1c2-33.9,9.9-67.4,22.9-98.8c3.8-9.1,8-18,12.6-26.7"/>
	<path class="st0" d="M440.2,645.7c-7.9,10.7-18.1,19.8-29.9,26c-3.6-23.3,2.1-47.2,12.3-68.2"/>
	<path class="st0" d="M409.1,670.7c-0.1-10.8,0.7-21.6,2.5-32.3c2.5-14.8,6.9-29.3,12.3-43.4c9.7-25.7,23.4-51,47-66.2
		c-12.8,8.4-22.6,20.7-30.2,34c-7.5,13.3-12.9,27.7-17.9,42.1C415.6,625.2,408.7,646.4,409.1,670.7z"/>
	<path class="st0" d="M409.1,673c12.5-7.5,23.8-17.2,33-28.5"/>
	<path class="st0" d="M408.5,669.8c3.3-0.6,6.2-2.5,8.9-4.4c9-6.5,17-14.2,23.9-22.9"/>
	<path class="st0" d="M467.5,581.5c-9,16.8-15.7,34.7-22.4,52.6c-2.6,7-5.3,14.1-7.3,21.4c-2.7,9.7-4.4,19.6-6,29.5
		c-1.2,7.3-2.4,14.7-3.6,22"/>
	<path class="st0" d="M465.6,584c-21.1,37-28.9,79.8-35.7,120.4c14.4-14.5,26.7-31,36.6-48.9"/>
	<path class="st0" d="M495.8,583.9C469,629,453,681,449,734c21.2-19,0.8-11.6,0,0c27-25,52-54,64.1-88.9"/>
	<path class="st0" d="M448.8,737.5c4.7-2.8,8.8-6.6,12.7-10.4c23.3-22.9,41.9-50.4,54.4-80.5"/>
	<path class="st0" d="M496.4,584.4C488,600,479,615,473,632c-12,34-18,69-21.8,105.1"/>
	<path class="st0" d="M461.6,668.5c-4.5,17-9.1,34.1-10.1,51.6c-0.3,5.6-0.2,11.2,0.2,16.8"/>
	<path class="st0" d="M468.5,527.5c-7.3,5.4-13.6,12.1-18.5,19.8"/>
	<path class="st0" d="M466.2,526.6c-16,12-26.4,30.3-31.8,49.6"/>
	<path class="st0" d="M437.7,517.4c10.1,4.9,20.4,9.8,31.5,11.3"/>
	<path class="st0" d="M451.5,521.3c5.4,2.6,11.2,4.2,17.2,4.7"/>
	<path class="st0" d="M469.4,529.3c-15.5,12.9-25.7,30.9-35.1,48.8c-7.3,13.9-14.3,28-19.1,42.9s-7.4,30.8-5.7,46.4"/>
</g>
<g id="Layer_8">
	<path class="st0" d="M413.7,650.2c1.1,4.8,2.6,9.4,4.5,13.9"/>
	<path class="st0" d="M411,658.1c0.9,3.1,2,6.2,3.2,9.2"/>
	<path class="st0" d="M415.5,641.5c2.2,7.3,5.3,14.3,9.2,20.8"/>
	<path class="st0" d="M420,636.2c2,7.3,5,14.2,8.9,20.7"/>
	<path class="st0" d="M424.9,630.1c1.5,7.7,4.7,15,9.3,21.4"/>
	<path class="st0" d="M427.8,624.9c2.7,7.4,6.3,14.4,10.8,20.8"/>
	<path class="st0" d="M432.1,617.8c3.2,7.1,6.7,14.2,10.3,21.2"/>
	<path class="st0" d="M436.8,611.6c2.1,6.5,4.9,12.7,8.5,18.4"/>
	<path class="st0" d="M440.6,605.1c2.2,5,4.3,10,6.5,15.1"/>
	<path class="st0" d="M444.7,598.1c2.2,4.8,4.6,9.5,7.1,14.1"/>
	<path class="st0" d="M448.6,591.3c1.7,4.2,3.6,8.3,5.7,12.2"/>
	<path class="st0" d="M452.7,587.9c1.4,3.3,2.8,6.6,4.3,9.9"/>
	<path class="st0" d="M457.2,583.6c0.8,2.2,1.9,4.3,3.2,6.2"/>
	<path class="st0" d="M433.2,690.8c1.2,2.2,2.5,4.5,3.7,6.8"/>
	<path class="st0" d="M435.4,683.9c1.5,3.6,3.5,7.1,5.8,10.2"/>
	<path class="st0" d="M436.9,677.5c2.3,3.8,4.7,7.6,7.3,11.3"/>
	<path class="st0" d="M439.4,671.4c2.8,4.9,6,9.7,9.3,14.2"/>
	<path class="st0" d="M441.9,667.9c2.8,4.2,5.7,8.3,8.7,12.3"/>
	<path class="st0" d="M444.7,662.4c3.1,4.7,6.3,9.3,9.8,13.8"/>
	<path class="st0" d="M448.3,659c2.6,3.5,5.2,6.9,7.8,10.4"/>
	<path class="st0" d="M451.6,653.3c2.7,4.5,5.9,8.8,9.5,12.8"/>
	<path class="st0" d="M454.4,647.2c3,4.5,6.3,8.8,9.7,13"/>
	<path class="st0" d="M457.3,640.2c3,4.4,6.2,8.6,9.6,12.7"/>
	<path class="st0" d="M460.8,634c2.2,2.5,4.5,4.9,6.8,7.3"/>
	<path class="st0" d="M463.8,627.7c1.5,2.5,3.3,4.9,5.2,7.1"/>
	<path class="st0" d="M466.9,623.6c1.5,2.1,3,4.2,4.5,6.3"/>
	<path class="st0" d="M469.5,619c1.2,2.3,2.8,4.4,4.5,6.4"/>
	<path class="st0" d="M472,614.5c1.3,1.6,2.5,3.2,3.8,4.8C476,619.6,476.5,619.9,472,614.5z"/>
	<path class="st0" d="M475.2,611.3c1,1.6,2.3,3.1,3.8,4.3"/>
	<path class="st0" d="M477.7,607.1c0.8,1.6,1.8,3.1,2.9,4.5"/>
	<path class="st0" d="M480,602.1c0.8,1.7,1.8,3.2,3,4.6"/>
	<path class="st0" d="M483.6,597.5c0.8,1,1.5,2.1,2.3,3.1"/>
	<path class="st0" d="M487.7,590.9c0.6,1.1,1.2,2.2,1.7,3.2"/>
	<path class="st0" d="M453.5,722.6c1.2,2.8,2.5,5.5,3.9,8.2"/>
	<path class="st0" d="M456.6,713.5c1.4,3.8,3,7.5,4.9,11"/>
	<path class="st0" d="M459.5,708.8c1.9,4.8,4.2,9.4,7,13.7"/>
	<path class="st0" d="M462.9,702.8c-0.3,1.7,0.5,3.3,1.2,4.8c1.7,3.3,3.5,6.6,5.5,9.8"/>
	<path class="st0" d="M465.3,696c3.2,5.7,6.6,11.3,10.3,16.7"/>
	<path class="st0" d="M468.9,689.4c3.2,6,6.8,11.7,10.8,17.2"/>
	<path class="st0" d="M472.8,682c3.4,6.3,7.1,12.3,11.2,18.1"/>
	<path class="st0" d="M476.5,676.2c2.9,5.8,6.4,11.3,10.4,16.4"/>
	<path class="st0" d="M479.1,670.7c4,5.8,8.1,11.6,12.1,17.3"/>
	<path class="st0" d="M481.4,664.1c3.9,6.3,8,12.5,12.2,18.6"/>
	<path class="st0" d="M485.2,658.9c3.7,5.9,7.7,11.7,12,17.2"/>
	<path class="st0" d="M489.6,653.8c4.2,6.3,8.6,12.4,13.3,18.3"/>
	<path class="st0" d="M490.7,645.1c4.2,5.9,8.3,11.8,12.5,17.6"/>
	<path class="st0" d="M496.5,642.2c3.4,5.4,7.2,10.5,11.4,15.4"/>
	<path class="st0" d="M500.6,637c2.7,5.1,6,9.9,9.8,14.2"/>
	<path class="st0" d="M491.7,585.3c0.4,0.7,0.8,1.3,1.2,2"/>
	<path class="st0" d="M499,628.7c5,5.9,10.1,11.8,15.1,17.7"/>
	<path class="st0" d="M500.7,622.7c4.2,5,8.5,9.9,12.7,14.9"/>
	<path class="st0" d="M502.7,615.9c4.6,5.4,9.3,10.8,13.9,16.2"/>
	<path class="st0" d="M505.6,611.4c3.6,4.6,7.5,9,11.7,13"/>
	<path class="st0" d="M507.5,605.8c4,4.3,8,8.6,12,12.9"/>
	<path class="st0" d="M511.8,602.2c2.5,3.4,5.2,6.7,8.1,9.8"/>
	<path class="st0" d="M511,593.4c3.9,4.7,8,9.3,12.2,13.7"/>
	<path class="st0" d="M512.8,586.3c3.4,4.7,7.5,9,11.9,12.6"/>
	<path class="st0" d="M512.5,579.2c4.6,4.8,9.2,9.6,13.8,14.4"/>
	<path class="st0" d="M515.2,575.9c3.9,3.2,7.8,6.4,11.6,9.6"/>
	<path class="st0" d="M517.7,569.1c2.9,3,5.9,5.9,9.1,8.6"/>
	<path class="st0" d="M519.4,562.5c3.2,2.7,6.5,5.5,9.7,8.2"/>
	<path class="st0" d="M521.4,553.2c3.4,3.3,7,6.5,10.7,9.6"/>
	<path class="st0" d="M523,547.4c2.9,2.7,5.8,5.5,8.7,8.2"/>
	<path class="st0" d="M523.4,538.9c2.2,2.2,4.4,4.3,6.6,6.5"/>
	<path class="st0" d="M525.3,531.8c2.2,2.6,5,4.9,8,6.6"/>
	<path class="st0" d="M526.1,525.4c1.3,0.8,2.5,1.6,3.8,2.4"/>
	<path class="st0" d="M355.5,457.6c6.6,6.4,15,10.6,23.7,13.5c8.7,2.9,17.8,4.4,26.8,5.9"/>
	<path class="st0" d="M371,474.8c13.3,5.3,27.6,7.8,41.9,7.4"/>
	<path class="st0" d="M379.8,482.4c15.7,4.4,32.3,5.3,48.3,2.7"/>
	<path class="st0" d="M392.7,492.2c14.1,2.3,28.7,1.7,42.6-1.7"/>
	<path class="st0" d="M400.2,498.7c12.1,0.6,24.4-0.3,36.3-2.7"/>
	<path class="st0" d="M412.1,504.8c11.3,0.7,22.7-0.9,33.3-4.8"/>
	<path class="st0" d="M424,510.3c8.7,0.1,17.3-1.1,25.7-3.5"/>
	<path class="st0" d="M436.3,516.3c8.6-0.4,17.1-2.2,25.1-5.2"/>
	<path class="st0" d="M449.9,519c5.9-0.8,11.7-1.9,17.5-3.3"/>
	<path class="st0" d="M458,523.9c4-0.9,7.9-1.7,11.9-2.6"/>
	<path class="st0" d="M528.9,589.3c-3.5,34.5-15.3,68.1-33.9,97.4"/>
</g>
<g id="Layer_9">
	<path class="st0" d="M489.9,65.7c4.3-6.5,11.4-11,19.1-12.1c0.4,18.5-4.7,36.8-12.5,53.6s-18,32.3-28.4,47.6"/>
	<path class="st0" d="M501.5,93.2c5.2-3.4,11.2-5.6,17.4-6.3c1.3-0.2,2.9-0.2,3.8,0.8c0.9,0.9,0.9,2.4,0.8,3.7
		c-2.8,39-20.9,76.6-49.4,103.2"/>
	<path class="st0" d="M509.9,140.7c6.3-3.9,13.7-6,21.1-6c2.9,7,1.2,15-1,22.3c-9.6,31.7-29,60.4-54.8,81.2"/>
	<path class="st0" d="M509.6,201.6c4.9-3,10.5-4.9,16.2-5.5c0.8-0.1,1.7-0.1,2.3,0.4c0.5,0.4,0.8,1.2,0.9,1.8c0.5,2.4,0.5,4.9,0,7.3
		c-0.6,3.4-2.2,6.5-3.7,9.6c-8,16.1-16.5,32.9-31.2,43.3"/>
	<path class="st0" d="M487.3,71.7c3.7-6.9,10.4-12.2,17.9-14.3c2,4.2,1.1,9.1,0.1,13.7c-6.5,29-18.6,56.7-35.4,81.2"/>
	<path class="st0" d="M500.8,94.8C506,91,514,88,520,91c1,1,2,3,2,4c-2,22-11,42-21,62c-7,13-15,25-25.1,36.2"/>
	<path class="st0" d="M507.9,143.6c4.8-3.7,10.4-6.4,16.3-7.7c1.8-0.4,3.8-0.7,5.4,0.1c4,1.9,3.2,7.9,1.5,12.1
		c-12.3,32.1-30.7,61.9-53.8,87.4"/>
	<path class="st0" d="M500.5,205.4c6.9-4.3,14.5-8.7,22.6-7.8c0.8,0.1,1.6,0.2,2.2,0.7c0.7,0.5,1.1,1.4,1.4,2.3
		c1.5,5.1-0.8,10.5-3.2,15.2c-7,13.7-15.4,26.6-25.1,38.4"/>
	<path class="st0" d="M490.5,65.1c3.7-3.9,8.3-7,13.3-8.8c0.8-0.3,1.6-0.5,2.4-0.2c1.3,0.5,1.4,2.4,1.3,3.8
		c-1.6,17-6,33.8-13.1,49.4c-3.9,8.6-8.6,16.8-13.3,25c-3.9,6.9-7.9,13.8-11.8,20.6"/>
	<path class="st0" d="M501,94.2c4.2-2.1,9.3-4.5,14-5.1c4.4-0.6,5.6,3.1,5.6,6.9c0,8.7-1.9,17.9-4,26.3
		c-4.3,17.3-11.6,33.8-21.6,48.5c-5.6,8.3-12.1,16.1-19.3,23"/>
	<path class="st0" d="M510.6,142.2c4.7-3.5,10-6.2,15.6-7.8c1.5-0.4,3-0.8,4.5-0.6s3,1,3.6,2.4c0.5,1,0.4,2.1,0.3,3.2
		c-0.6,7.4-3.7,14.3-6.7,21.1"/>
	<path class="st0" d="M525.1,138.6c2.1,5.4,3.3,11.1,3.8,16.8"/>
	<path class="st0" d="M523,146.9c0.8,6.1,1.6,12.3,2.3,18.4"/>
	<path class="st0" d="M518.5,153.9c1.4,7.2,2.5,14.5,3.5,21.8"/>
	<path class="st0" d="M515.6,163.7c0.5,6.9,1.1,13.8,1.7,20.7"/>
	<path class="st0" d="M510.8,167.8c0.3,8,0.9,15.9,1.9,23.9"/>
	<path class="st0" d="M505.9,175.2c0.2,9.2,1.1,18.4,2.5,27.4"/>
	<path class="st0" d="M500.2,183.8c1.6,8.5,2.5,17.1,2.8,25.7"/>
	<path class="st0" d="M494.7,188.9c1.8,8.8,2.9,17.7,3.5,26.7"/>
	<path class="st0" d="M489.2,198.3c1.1,7.9,2.1,15.8,3.2,23.7"/>
	<path class="st0" d="M484.5,207.7c0.5,7.2,1.6,14.4,3.4,21.5"/>
	<path class="st0" d="M477.6,215.6c0.8,5.7,1.7,11.3,2.5,17"/>
	<path class="st0" d="M475.4,221.6c0.3,5.2,1,10.5,2.1,15.6"/>
	<path class="st0" d="M512.7,93.6c2.9,7,4.7,14.3,5.6,21.8"/>
	<path class="st0" d="M509.8,101.5c1.4,6.4,2.8,12.9,4.2,19.3"/>
	<path class="st0" d="M508.5,110.1c1.4,8.8,2.5,17.7,3.2,26.6"/>
	<path class="st0" d="M504.8,118.5c1.1,8.8,2.3,17.7,3.4,26.5"/>
	<path class="st0" d="M500.7,127.1c1.5,9.7,2.6,19.4,3.4,29.1"/>
	<path class="st0" d="M497.6,136.7c0.8,8.4,2.1,16.8,3.9,25.1"/>
	<path class="st0" d="M493.7,148.7c1.3,6.1,2.3,12.3,3.1,18.5"/>
	<path class="st0" d="M490,156.7c0.9,5.6,1.9,11.1,2.8,16.7"/>
	<path class="st0" d="M486.1,165.3c0.7,5.7,1.4,11.4,2.1,17.1"/>
	<path class="st0" d="M481.9,175.7c0.2,4.1,0.4,8.1,0.6,12.2"/>
	<path class="st0" d="M477.4,184.3c0,2.6,0.1,5.3,0.2,7.9"/>
	<path class="st0" d="M500.9,60c1.4,6.1,2.4,12.3,3.1,18.6"/>
	<path class="st0" d="M498.1,67.1c0.7,7.1,1.7,14.2,3,21.3"/>
	<path class="st0" d="M494.5,77.9c1.2,7.8,2.3,15.6,3.2,23.4"/>
	<path class="st0" d="M491.8,90.9c-0.2-0.7-0.5-1.4-0.7-2.1c1.1,7.9,2.3,15.8,3.4,23.7"/>
	<path class="st0" d="M486.7,98.7c1.3,8.4,2.7,16.8,4,25.2"/>
	<path class="st0" d="M480.6,107.3c0.7,7.5,1.8,14.9,3.4,22.2"/>
	<path class="st0" d="M475.9,118.2c0.9,7.3,2.1,14.6,3.7,21.8"/>
	<path class="st0" d="M471.4,125.5c1.1,7.3,2.3,14.6,3.5,22"/>
	<path class="st0" d="M468.6,135.4c0.3,7.2,1,14.3,2.1,21.4"/>
	<path class="st0" d="M349.1,451.1c10.9,7,23.9,11,36.9,11.1"/>
	<path class="st0" d="M343.7,443.7c7.2,4,15,6.8,23.2,8.2"/>
	<path class="st0" d="M338.5,436.2c5.5,3.1,11.4,5.4,17.5,6.8"/>
	<path class="st0" d="M336.9,429.1c3.9,2.5,8,4.5,12.3,6.1"/>
	<path class="st0" d="M333,420.5c3.8,2.4,7.9,4.5,12,6.3"/>
	<path class="st0" d="M331.5,412.2c3.6,2.8,7.5,5.3,11.7,7.2"/>
	<path class="st0" d="M329.9,403.3c3.4,2.5,6.9,4.9,10.5,6.9"/>
	<path class="st0" d="M330.1,395.5c1.5,1.6,3.1,3.1,4.6,4.7"/>
	<path class="st0" d="M326.8,383.1c2.3,2.1,4.7,4.3,7,6.4"/>
	<path class="st0" d="M300.1,346.6c7.3,6.1,17,9.1,26.5,9.3s19-2.3,27.8-6.1"/>
	<path class="st0" d="M320,359.6c6.8,2.6,14.6,2.6,21.4-0.1"/>
	<path class="st0" d="M325.5,366.5c4.2,0.5,8.4,0.5,12.5,0"/>
	<path class="st0" d="M325.8,374.3c3.7,1.6,7.8,2,11.7,1.2"/>
	<path class="st0" d="M326.6,379.5c3,0.9,6,1.8,9,2.8"/>
	<path class="st0" d="M396.6,293.9c-0.5,3.6-0.9,7.2-1.4,10.8"/>
	<path class="st0" d="M402.5,292.4c-0.6,3.5-1,7.1-1.2,10.6"/>
	<path class="st0" d="M410.7,286.4c-0.8,3.4-1.5,6.8-2.2,10.1"/>
	<path class="st0" d="M418.6,280.3c-1,4-2,8-3,12"/>
	<path class="st0" d="M427.1,274.5c-1,4.2-2,8.4-3,12.5"/>
	<path class="st0" d="M436.5,270.2c-0.8,4.3-1.6,8.6-2.5,13"/>
	<path class="st0" d="M445.5,265.8c-0.7,4.3-1.5,8.6-2.2,12.9"/>
	<path class="st0" d="M533.8,145.3c-10.7,34.5-30.2,66.2-56.3,91.2"/>
	<path class="st0" d="M503.7,203.7c5.5-3.8,12.1-6.1,18.8-6.6c1.3-0.1,2.8-0.1,3.9,0.6c2,1.2,2.3,4,2,6.4c-0.9,9.6-6,18.3-11.8,26
		s-12.5,14.8-17.3,23.1"/>
	<path class="st0" d="M500.7,56.1c-11.3,6.8-20.7,16.8-26.8,28.5"/>
	<path class="st0" d="M452.8,262.4c-0.6,3.8-1.1,7.6-1.5,11.5"/>
	<path class="st0" d="M459,260.4c-0.7,3.7-1.4,7.5-2,11.2"/>
	<path class="st0" d="M464.8,258c-0.4,3.5-0.9,6.9-1.3,10.4"/>
	<path class="st0" d="M472.2,254.2c-0.6,4.4-1.1,8.7-1.7,13.1"/>
	<path class="st0" d="M477.2,251.3c-0.3,4.1-0.4,8.2-0.5,12.2"/>
	<path class="st0" d="M482.1,248.5c-0.3,4.8-0.2,9.6,0.2,14.4"/>
	<path class="st0" d="M486.5,244.6c-0.1,4.6,0,9.3,0.3,13.9"/>
	<path class="st0" d="M492.6,234.9c-0.4,7.6-0.2,15.3,0.6,22.9"/>
	<path class="st0" d="M498.5,230.8c-0.4,6.8-0.1,13.7,0.9,20.5"/>
	<path class="st0" d="M503.4,223.5c-0.1,7.3,0.1,14.5,0.9,21.8"/>
	<path class="st0" d="M509,216.1c-0.3,6.6-0.1,13.2,0.5,19.8"/>
	<path class="st0" d="M512.7,209.8c0.2,6.7,0.4,13.4,0.6,20"/>
	<path class="st0" d="M517.1,206.2c-0.3,5.7-0.2,11.4,0.4,17"/>
	<path class="st0" d="M521.3,203.2c0.4,3.7,0.5,7.4,0.3,11.1"/>
</g>
<g id="Layer_10">
	<path class="st0" d="M246.1,270.9c-6.3,8-8.2,19.2-4.9,28.9"/>
	<path class="st0" d="M243.2,282.5c-1.6,5.6-1.3,11.6,0.7,17.1"/>
	<path class="st0" d="M245.4,282.5c-0.5,5.2-0.3,10.5,0.8,15.6"/>
	<path class="st0" d="M248.5,282c-0.4,4.3,0.1,8.6,1.3,12.7"/>
	<path class="st0" d="M250.9,281.2c-0.1,4.4,0.6,8.8,1.9,13"/>
	<path class="st0" d="M254.1,280.5c-0.1,4.1,0.4,8.2,1.6,12.2"/>
	<path class="st0" d="M256.7,278.9c0.2,4.2,0.9,8.4,2,12.4"/>
	<path class="st0" d="M260,282.6c0.2,2.8,0.6,5.5,1.2,8.3"/>
</g>
<g id="Layer_11">
	<path class="st0" d="M241.3,281.6c4.9,1.2,10.2,2.5,14.7,0.2c3-1.5,5.1-4.2,7.5-6.6c3.4-3.3,7.7-5.9,12.4-6.7
		c7.8-1.3,15.5,2.6,22.5,6.4"/>
	<path class="st0" d="M290.6,279.3c-3-4.3-8.4-6.8-13.6-6.4c-5.2,0.4-10.2,3.5-12.6,8.9c3.6,3.8,8.7,6.5,14,6.3
		S288.9,284.5,290.6,279.3z"/>
	<path class="st0" d="M267,278c-0.3,2.2-0.5,4.5-0.5,6.7"/>
	<path class="st0" d="M268.7,276.6c-0.2,2.7-0.4,5.4-0.6,8.1"/>
	<path class="st0" d="M271,274.8c-0.5,4-0.8,8.1-0.8,12.1"/>
	<path class="st0" d="M272.9,273.7c-0.2,4.7-0.3,9.5-0.5,14.2"/>
	<path class="st0" d="M275.1,273.1c-0.2,5.2-0.4,10.3-0.6,15.5"/>
	<path class="st0" d="M277,272.8c-0.1,5.2-0.3,10.4-0.4,15.6"/>
	<path class="st0" d="M279.1,273.1c-0.2,4.9-0.4,9.7-0.6,14.6"/>
	<path class="st0" d="M280.7,273.2c0,4.8-0.2,9.6-0.5,14.4"/>
	<path class="st0" d="M282.6,273.8c-0.2,4.4-0.3,8.7-0.5,13.1"/>
	<path class="st0" d="M284.3,274.9c-0.2,4-0.4,8-0.6,12"/>
	<path class="st0" d="M286.5,275.8c-0.2,3.1-0.3,6.3-0.5,9.4"/>
	<path class="st0" d="M288.1,277.8c0.1,1.9,0,3.9-0.3,5.8"/>
	<path class="st0" d="M242.1,300.7c1.1-2.7,3.4-4.9,5.9-6.3s5.4-2.3,8.3-3c15.3-3.8,31.2-5,47-3.6"/>
	<path class="st0" d="M243.2,303.8c0.8-3.5,3.3-6.5,6.3-8.5s6.5-3.1,10-4.1c14.9-4,30.6-5.1,45.9-3.1"/>
	<path class="st0" d="M302.6,348.8c11.8,3.1,24.6,2,35.6-3"/>
	<path class="st0" d="M240.7,284.2c5.2,1.5,11,0.4,15.3-2.8c2.9-2.1,5.1-5,7.8-7.4c4.5-3.8,10.4-5.9,16.2-5.7s11.7,2.6,15.9,6.6"/>
	<path class="st0" d="M298,274c-4-2.3-8-4.7-12.4-6.2s-9.2-2-13.6-0.7c-3.8,1.1-7.1,3.6-10.1,6.2s-6.1,5.3-9.6,7.1
		c-3.5,1.8-7.8,2.7-11.5,1.3"/>
</g>
</svg>
