<?xml version="1.0" encoding="utf-8"?>
<!-- Generator: Adobe Illustrator 27.5.0, SVG Export Plug-In . SVG Version: 6.00 Build 0)  -->
<svg version="1.1" id="Layer_1" xmlns="http://www.w3.org/2000/svg" xmlns:xlink="http://www.w3.org/1999/xlink" x="0px" y="0px"
	 viewBox="0 0 2780 2610" style="enable-background:new 0 0 2780 2610;" xml:space="preserve">
<style type="text/css">
	.st0{fill:none;stroke:#000000;stroke-width:2;stroke-miterlimit:10;}
	.st1{opacity:0.3294;fill:none;stroke:#000000;stroke-width:2;stroke-miterlimit:10;enable-background:new    ;}
</style>
<g id="Body">
	<path class="st0" d="M1029.5,880.3c-7.1-13-1.1-29,6-42c18.8-34.7,45.1-65.3,76.4-89.3"/>
	<path class="st0" d="M1061.4,934.9c-14.1-15-24.6-33.3-30.3-53.1"/>
	<path class="st0" d="M1068.5,936.9c19.9-5,40.5-10.3,56.7-22.9c23.7-18.4,34.4-50.3,32-80.2s-16.3-57.9-34.3-82"/>
	<path class="st0" d="M1280.9,850.9c4.9-32.9,8-66.8-0.3-99c-8.3-32.2-29.8-62.6-61.2-73.7c-18.4-6.5-38.6-5.9-58-4.2
		c-27.5,2.5-54.9,7.2-81.6,14.1c-14.6,3.8-29.5,8.4-41.3,17.8c-15.4,12.3-23.7,31.3-29.5,50.1c-26.8,86-13.2,180.5,19.4,264.5"/>
	<path class="st0" d="M1249.5,742c21.5-2.9,43.3-3.9,64.9-3.1"/>
	<path class="st0" d="M1253.5,752.8c28.2-6.5,57.3-8.6,86.1-6.2"/>
	<path class="st0" d="M1024.9,1020.3c9.8,5.8,19.6,11.6,29.3,17.4"/>
	<path class="st0" d="M1195.4,975c-25,4-49.1,13-71.9,24s-44.4,24.4-66.1,37.6"/>
	<path class="st0" d="M1191.3,983c13.4-24.5,23.6-50.7,30.1-77.8"/>
	<path class="st0" d="M1282.7,834.3c3.2,13,7.7,26.8,18.7,34.5c9.2,6.4,22.1,6.9,31.7,1.3"/>
	<path class="st0" d="M1303.3,870.2c-8.9-8.2-13.2-21.2-10.9-33.1"/>
	<path class="st0" d="M1289.6,848.4c30.4-28.5,70.9-43.1,110.2-56.8c14-4.9,28.4-9.8,43.2-9"/>
	<path class="st0" d="M1394.9,785.9c-17,12.7-37.9,18.5-57.7,26.3c-19.7,7.8-39.7,18.6-50.1,37.1"/>
	<path class="st0" d="M1324.8,851.9c12-3.3,22.9-9.4,34.2-14.5c11.3-5.1,23.6-9.2,35.9-8c2.3,0.2,4.7,0.7,6.6,2
		c1.9,1.3,3.3,3.6,2.9,5.9"/>
	<path class="st0" d="M1491.3,932.2c-11.7-5.5-22.7-12.4-32-21.3s-16.8-19.9-20.5-32.2c-3-9.8-3.7-20.1-3.8-30.3
		c-0.2-21.7,2.2-43.8,11.2-63.5"/>
	<path class="st0" d="M1438,793.5c3.8-2.2,6.2-6.7,5.9-11.1"/>
	<path class="st0" d="M1321.7,869.6c16.3-8.7,36.3-8,53.9-2.2c17.6,5.8,33.2,16.1,48.6,26.3"/>
	<path class="st0" d="M1405.9,886.3c13.5,9.5,26.9,19,40.7,27.9c14.1,9.1,29.2,17.9,45.9,19"/>
	<path class="st0" d="M1474.1,955.1c50.9,29.4,111.9,34,170.5,38c61.1,4.1,122.2,8.2,183.3,12.3c18.4,1.2,36.9,2.5,54.9,6.4
		c32.3,7.1,62,22.5,91.3,37.8"/>
	<path class="st0" d="M1760.3,1001.2c9.2,3.8,19.3,4.6,29.2,5.5c18.5,1.7,37,4.2,55.3,7.3c18.4,3.2,36.8,7.1,54.5,13.4
		c12.2,4.3,23.9,9.8,36.1,14.3c20.9,7.8,43.1,13.2,61.4,25.9"/>
	<path class="st0" d="M2012.6,1103.2c9.4,2.8,18.1,7.8,22.7,12.6c-7.8-13.6-19.9-24.4-33.2-32.7s-27.8-14.4-42.3-20.4"/>
	<path class="st0" d="M1770.2,955.5c-7.4-7.3-13-16.4-16.3-26.3"/>
	<path class="st0" d="M1935.5,883.8c-23.3,11-49.3,14.8-73.8,23c-18.1,6-35.4,14.3-52.6,22.7c-14.3,6.9-28.8,14-40,25.2"/>
	<path class="st0" d="M1763.1,927c52.3-27,105.3-54.3,162.6-67.7"/>
	<path class="st0" d="M1946.1,874c-2.4-4.7-5.2-9.2-8.4-13.4c-1.4-1.8-2.9-3.6-4.8-4.8s-4.4-1.7-6.5-0.8"/>
	<path class="st0" d="M1436.3,838.9c1.9-15.6,8.5-30.6,18.6-42.7c6.7-7.9,14.8-14.6,20.7-23.1c4.4-6.4,7.5-13.8,13.2-18.9
		c4.4-3.9,9.9-6.1,15.4-8c41.3-14.8,86.1-19.7,129.6-14.4"/>
	<path class="st0" d="M1903.7,788.7c21.9,9.6,40,26.6,53.5,46.3c13.5,19.7,22.7,42.1,30.2,64.8c19.9,60.5,27.9,124.8,23.6,188.3"/>
	<path class="st0" d="M1925.6,806.7c23.3,5.6,46,14.1,67.4,25"/>
	<path class="st0" d="M2032.3,1097.6c15.3-32.8,17.8-70.4,12.7-106.1c-5.1-35.8-17.6-70.1-31.3-103.5c-9.7-23.6-20.8-48-41-63.6"/>
	<path class="st0" d="M2046.6,1033.4c-2.4-36.8-11.7-73-24.3-107.7c-12.6-34.7-28.5-68.1-44.4-101.4"/>
	<path class="st0" d="M2009.1,930c15.7,0.1,31.4-1.5,46.9-4.6"/>
	<path class="st0" d="M2002.1,918.8c33.3-4.9,66.8-7.9,100.5-8.8"/>
	<path class="st0" d="M1937.6,809.3c-1.8-6.1-6.4-11.1-11.8-14.5s-11.5-5.5-17.6-7.3c-20.9-6.2-42.7-9.6-64.5-10.2"/>
	<path class="st0" d="M1240,1015.9c-11.8-10.3-26.2-18.1-41.6-21c-26.1-5-52.7,4-77.8,12.8"/>
	<path class="st0" d="M1228.7,1017.4c11.3-5.8,24.7-7.5,37.1-4.6c13.7,3.2,26.1,11.8,40.2,12.3"/>
	<path class="st0" d="M1261.7,908.9c22.5,31.1,45.1,62.1,67.6,93.2"/>
	<path class="st0" d="M1328.6,1031.9c8.5-8.1,13.8-19.4,14.5-31.1"/>
	<path class="st0" d="M1330.8,1018.7c5.7,9.8,7.9,21.5,6.1,32.7"/>
	<path class="st0" d="M1357.8,1002.4c17.3-26.8,30.1-56.4,37.8-87.3"/>
	<path class="st0" d="M1241,1039.2c16.3-1.2,31.3,10.9,47.7,10.4"/>
	<path class="st0" d="M1184.8,995.2c-5.7,22.9-8.8,46.4-9.3,70"/>
	<path class="st0" d="M1240.3,1099.4c2.2,0.3,4.1,1.7,6.2,2.4c2.1,0.7,5,0.2,5.6-1.9c0.4-1.2-0.2-2.6-0.8-3.7
		c-3.3-5.5-9.7-8.9-12.2-14.9c-0.8-1.9-1.2-4-2.6-5.5c-1.7-1.9-4.3-2.4-6.8-3c-9.1-2.2-17.4-7.1-26.2-10.2s-19.2-4.2-27.2,0.8"/>
	<path class="st0" d="M1215.9,1001.2c4.6,15.5,9.3,31.1,16.2,45.8c17.5,37.3,48.2,66.4,78.2,94.6"/>
	<path class="st0" d="M1414.9,1183.2c-19-7-38.6-12.5-57.4-19.9s-37.3-16.7-52.2-30.4c-5.8-5.4-11.3-11.5-18.5-14.9"/>
	<path class="st0" d="M1196.4,1117.5c30.5,14.6,61.2,29.2,93.2,39.9s65.8,17.6,99.6,16.1"/>
	<path class="st0" d="M1062,1130c32.2-3.1,64.7-6.3,95.1-17.1"/>
	<path class="st0" d="M1117.1,1126.2c7.6,1.3,15.3-0.1,22.8-1.4c20-3.5,40.1-7.1,60.1-10.8"/>
	<path class="st0" d="M1172.4,1127.3c16.7,1.4,33.6,0.2,49.8-3.7"/>
	<path class="st0" d="M1146.5,1142.1c26.4,1.8,52.7,6.4,78.1,13.7c7.2,2.1,14.3,4.3,21.6,5.9c12.4,2.7,25.1,3.3,37.8,3.9"/>
	<path class="st0" d="M1385.9,1174.3c22.5-1,44.8,6,67.2,4.4c9.6-0.7,19-2.8,28.5-4.3c17.1-2.7,34.5-3.2,51.8-3.6
		c6-0.2,12.1-0.3,18,1c4.8,1.1,9.4,3.1,14,5c6.1,2.5,12.3,4.7,18.5,6.9c7.2,2.6,14.5,5.1,21.7,7.7"/>
	<path class="st0" d="M1403.2,1172.9c17,4,34.8,1.3,52-1.5c11.8-1.9,23.6-3.8,35.3-5.6c7.5-1.2,15.2-2.4,22.8-1.6s15.3,3.7,20.2,9.6
		"/>
	<path class="st0" d="M1462.4,1177.4c50.5-0.2,101.4-11.9,151.1-2.7c3.9,0.7,7.9,1.6,11.4,3.5s6.6,5,7.6,8.8"/>
	<path class="st0" d="M1604.8,1187.6c-15-2.4-29.9-4.8-44.9-7.2c-10.5-1.7-21.2-3.4-30.6-8.3"/>
	<path class="st0" d="M1608.7,1178.6c3.1,18.2,11.5,35.5,24,49.2c7.8,8.5,17,15.5,26.1,22.5"/>
	<path class="st0" d="M1603.8,1182c4.4,8.7,8.9,17.6,15.8,24.5c3.6,3.7,7.8,6.7,11.5,10.3c8.9,8.7,14.4,20.2,23,29.2
		c2.7,2.8,5.9,5.7,6.3,9.6"/>
	<path class="st0" d="M1604.1,1188.4c4,15.2,16.8,26.3,25.3,39.6c6.1,9.5,10.1,20.5,18.3,28.3"/>
	<path class="st0" d="M1602.5,1194.5c5.9,13,16.4,23.3,24.9,34.8c5.6,7.5,10.4,15.6,15.2,23.6"/>
	<path class="st0" d="M1628.1,1236.4c2.9,4.3,5.8,8.6,9.5,12.2s8.2,6.7,13.2,7.7"/>
	<path class="st0" d="M1543.8,1062c-0.8,1.4,0.6,3.3,2.2,3.5s3.2-0.9,3.9-2.3c0.8-1.4,1-3.1,1.1-4.7c1.9-26.6-8.1-52.6-9.2-79.3"/>
	<path class="st0" d="M1357.1,1087.6c3.3,5,6.7,10.1,11,14.4c6.5,6.5,14.9,10.7,23.3,14.5c8,3.7,16.1,7.1,24.2,10.4
		c8.9,3.7,17.9,7.3,27.4,9.1c9,1.7,18.1,1.6,27.2,1.5"/>
	<path class="st0" d="M1592.1,1131.2c27.5-2.7,55.2-3.2,82.8-1.4c9.3,0.6,18.8,1.4,28.1,0.3"/>
	<path class="st0" d="M1691.4,1135.8c12.3-4.8,25.1-8.7,38-11.4"/>
	<path class="st0" d="M1635.6,1166.9c14.2,0,28.4-0.1,42.3-2.9c9.6-2,18.8-5.3,28-8.6"/>
	<path class="st0" d="M1641,1176c21.2-4.2,41.8-11,61.3-20.2"/>
	<path class="st0" d="M1821.6,1012.1c36.4,47.1,71.8,95,104.5,144.7c19.4,29.6,38.1,60.2,47.5,94.3c5.3,19.3,7.5,39.3,9,59.2"/>
	<path class="st0" d="M1899.5,1119.9c11.2,19.2,22.4,38.5,33.7,57.7c6.2,10.6,12.3,21.2,17.7,32.2c12.7,26.2,20.5,54.5,26.9,82.9
		c2.1,9.3,3.9,19.3,0.2,28"/>
	<path class="st0" d="M1878.8,1127.4c4.8,0.7,9.7,1.4,14.5,1.1c8.9-0.5,17.3-4.2,25.9-6.6c8.6-2.4,18.4-3.2,26,1.5"/>
	<path class="st0" d="M1908.9,1142.8c9.1,1.1,18.4,2.3,27.5,0.7c5.5-1,10.8-3,15.6-5.9"/>
	<path class="st0" d="M1915.2,1151.9c7.6-0.9,15.3-1.8,22.9-2.7c5.7-0.7,11.3-1.3,17-2c11.9-1.4,23.9-2.8,35.8-4.2"/>
	<path class="st0" d="M1053.2,1076.6c0.7-13.2,9.1-24.9,19.7-32.8s23.1-12.5,35.5-17.1c28.6-10.5,57.2-21,85.8-31.5"/>
	<path class="st0" d="M1062.6,1059.5c-5,8.2-9.6,16.8-13,25.7c-4.8,12.3-7.5,25.2-10.2,38.1"/>
	<path class="st0" d="M1087.4,1116.5c6.5,1.6,13.3,1.7,19.8,0.4"/>
</g>
<g id="Body_enhance">
	<path class="st0" d="M1542,1065.1c-0.4,3.5,3.5,6.4,7,5.8s6.1-3.8,7-7.2c0.9-3.4,0.6-7,0.1-10.5c-3-23-8.7-45.5-14.4-68"/>
	<path class="st0" d="M1592.6,1127.8c34.6-2.2,69.4-1.5,103.8,2.2"/>
	<path class="st0" d="M1706.5,1132.2c5.3-2.2,10.7-4.3,16-6.4"/>
	<path class="st0" d="M1354,1083.7c26.4,31.3,66.4,50.7,107.4,52.1"/>
	<path class="st0" d="M1551,966.9c45.5,8.6,91.5,14.7,137.7,18.1"/>
	<path class="st0" d="M1661.8,989.1c34.9,5.9,69.6,13,104,21.5"/>
	<path class="st0" d="M1778.6,1008.6c24.2,3.4,47.6,11.9,68.3,24.7"/>
	<path class="st0" d="M1489.7,951.3c27.5,14.8,56.9,26.2,89.3,25.6c34.4,6.4,68.8,12.7,103.2,19.1"/>
	<path class="st0" d="M1631.1,996.4c28.8,2.4,57.5,6.9,85.2,8.6c25.4,6.7,50.8,13.3,76.2,19.9"/>
	<path class="st0" d="M1744.2,1003.7c20.4,12.3,39.5,26.7,57,42.8"/>
	<path class="st0" d="M1792.1,1018.9c12.6,7.9,23.6,18.1,32.5,29.9"/>
	<path class="st0" d="M1809.1,1014c7.9,5.2,15.8,10.5,24,9.8c33.2,44.1,64.9,89.2,88.8,128.6c21.2,31.6,38.5,66,51.2,102.1"/>
	<path class="st0" d="M1868.6,1120.7c22.6,10.4,50.6,7.7,70.9-6.9"/>
	<path class="st0" d="M1878.2,1108.4c8.8,1.2,17.6,2.3,26.4,3.5"/>
	<path class="st0" d="M1918.9,1154c9.2,4.6,20.1,5.5,30,2.6"/>
	<path class="st0" d="M1902.1,1146.6c12.7-2.6,25.4-5.1,38.2-7.7"/>
	<path class="st0" d="M1927.5,1147.4c26.2,32.4,45.8,69.9,57.3,109.7"/>
	<path class="st0" d="M1936.4,1157.7c34.1,42.1,51.3,97.2,47.1,150.9"/>
	<path class="st0" d="M1962.7,1350c9.8-21.8,15.4-45.6,16.4-69.5"/>
	<path class="st0" d="M1654.5,1240.5c50-7.8,100.6-12.2,151.2-13.1"/>
	<path class="st0" d="M1667.7,1237.1c32.3-13,65.8-23.3,99.8-30.8"/>
	<path class="st0" d="M1648,1247.9c27.1-19.2,57.4-34,89.2-43.6"/>
	<path class="st0" d="M1349.1,1066.3c15.4,28.8,41.7,51.5,72.4,62.6"/>
	<path class="st0" d="M1341.1,1052.3c0.1-12.6-3.2-25.1-9.6-35.9"/>
	<path class="st0" d="M1326.8,1034.3c11.2-9.2,18.2-23.2,19.1-37.7"/>
	<path class="st0" d="M1357.8,1003.4c18.8-28.7,31-61.6,35.4-95.6"/>
	<path class="st0" d="M1275.8,1062.8c11.4,2.7,23.2,4.2,34.9,4.4"/>
	<path class="st0" d="M1250.6,1077.2c18.7,13.8,39.4,24.6,61.4,32"/>
	<path class="st0" d="M1289.3,1115.6c12.4,8.2,26.3,14.2,40.8,17.3"/>
	<path class="st0" d="M1308.6,1135.8c8.2,2.8,16.5,5.7,24.7,8.5"/>
	<path class="st0" d="M1224.5,1006.3c4.2,20,12.2,39.2,23.3,56.3"/>
	<path class="st0" d="M1269.2,1091.6c13.9,23.4,34.3,42.9,59.4,50.7c14.1,11.9,30.5,21.1,48,26.9"/>
	<path class="st0" d="M1258,1141.6c37.8,24.4,85.2,33.7,129.4,25.2"/>
	<path class="st0" d="M1435.7,1175.9c23.7,3.5,47.3-15,70.5-9"/>
	<path class="st0" d="M1320.7,866.6c29.5-11.9,64.5-9.1,91.7,7.3"/>
	<path class="st0" d="M1383.9,873.2c23.6,23.4,51.4,42.5,81.7,56.3"/>
	<path class="st0" d="M1361.5,868.5c16.1,20.7,34.2,39.8,54.1,56.9"/>
	<path class="st0" d="M1392.5,886.9c15.9,20.5,35.6,38,57.8,51.3"/>
	<path class="st0" d="M1435.5,917.1c11.9,10.5,24.9,19.8,38.7,27.6"/>
	<path class="st0" d="M1481.3,932.7c15.4,25.9,38.8,46.8,66.3,59.2"/>
	<path class="st0" d="M1545.3,967.7c19.5,16.7,39.1,33.4,58.6,50.2"/>
	<path class="st0" d="M1578.4,974.5c16.5,14.9,34.1,28.5,52.7,40.7"/>
	<path class="st0" d="M1624.2,981.8c27.9,12.3,53.8,29.3,76.1,50"/>
	<path class="st0" d="M1714.3,996c7.3,9.1,14.6,18.2,21.9,27.3"/>
	<path class="st0" d="M1824.4,1025.7c17.8,12.6,33.2,28.5,45.2,46.7"/>
	<path class="st0" d="M1786,1013.1c20.5,7.3,36,26.4,38.8,47.7"/>
	<path class="st0" d="M1879.8,1111.1c9.2-2.8,18.7-4.8,28.3-6"/>
	<path class="st0" d="M1857.8,1074.5c5.9,1.9,11.8,3.8,17.7,5.7"/>
	<path class="st0" d="M1287.8,857.1c1.2,21.5,14.8,41.9,34.1,51.2"/>
	<path class="st0" d="M1196,983c8.9-22.3,16.7-45.1,23.3-68.2"/>
	<path class="st0" d="M1067.8,938.4c-18-20.2-29.7-46-32.8-73"/>
	<path class="st0" d="M1027.9,879.4c12.8-53.1,46.8-100.8,92.9-130.1"/>
	<path class="st0" d="M1023.3,726.1c-39,90.9-40.6,197.2-4.2,289.2"/>
	<path class="st0" d="M1017.1,1019.1c14.4,6.3,29.3,11.6,43.9,17.5c37.4-31.5,83.2-52.8,131.5-63.8c9.4-20.2,18.9-40.5,28.3-60.8"/>
	<path class="st0" d="M1019.8,733c14.8-24.6,44.1-35.9,71.8-43.6c29.1-8.1,59.1-14.1,89.2-12c30.1,2.2,60.4,13.2,81.2,35.1
		c20.8,21.9,30.2,55.5,19.2,83.5"/>
	<path class="st0" d="M1288.2,810.9c-3,16.1-6,32.2-9,48.3"/>
	<path class="st0" d="M1253.6,757.4c21.9-10.8,47-14.9,71.2-11.6"/>
	<path class="st0" d="M1245.4,741.8c15.9-3.5,32.2-5.4,48.6-5.7"/>
	<path class="st0" d="M1254.7,724.3c7.5-0.4,15.1-0.8,22.6-1.2"/>
	<path class="st0" d="M1060.6,931.6c-17.7-18.2-29.4-42.1-32.7-67.2"/>
	<path class="st0" d="M1067.7,936.1c21.4,0,42.8-8,58.8-22.2c16.1-14.2,26.7-34.4,29.3-55.6"/>
	<path class="st0" d="M1121.1,747.7c-20.8,11.2-38.9,27.6-52.3,47.2"/>
	<path class="st0" d="M1306.5,956.3c4.9,8,9.8,16.1,14.6,24.1c1.2,2,2.5,4.2,4.4,5.7s4.5,2.3,6.7,1.5c3.5-1.3,4.5-5.8,4.8-9.6"/>
	<path class="st0" d="M1781.9,952.5c40.1-29.5,83.6-54,129.4-73"/>
	<path class="st0" d="M1774.2,927.1c20.8-11,42.5-20.2,64.8-27.7"/>
	<path class="st0" d="M1798.2,965.3c21.8-10.5,43.6-21.1,65.3-31.6"/>
	<path class="st0" d="M1810.7,972.9c17.6-13.2,37.2-23.6,56.7-33.9c1.1-0.6,2.2-1.1,3.4-1.2c1.2,0,2.5,0.7,2.8,1.8s-1.1,2.4-2.2,1.8
		"/>
	<path class="st0" d="M1984.9,881.2c19.5,51.5,39.4,105.3,34.3,160.2c-0.3,3.7-0.9,7.7-3.4,10.4s-7.4,3.5-9.6,0.5"/>
	<path class="st0" d="M1981,833.8c18.2,30.5,36.6,61.1,49.4,94.3c12.8,33.2,20,69.4,14.9,104.7"/>
	<path class="st0" d="M1851.2,1003.8c16.9-2.2,34.1,2.1,49.9,8.5c15.9,6.4,30.8,14.9,46.4,21.9c10.5,4.7,21.8,8.8,33.2,7.7
		c11.4-1.1,22.9-8.7,25.3-20.1"/>
	<path class="st0" d="M1997.4,1060.5c12.9-5.6,20.4-20.1,21.9-34.4c1.4-14.3-2.1-28.5-5.6-42.4"/>
	<path class="st0" d="M2005,1073.6c8.8,1.9,17.7,3.9,26.5,5.8L2005,1073.6z"/>
	<path class="st0" d="M2006.1,1064c12.6,1.6,25.1,3.2,37.7,4.8"/>
	<path class="st0" d="M2006.6,1048.8c11.1,1.8,22.2,3.6,33.2,5.3"/>
	<path class="st0" d="M2011,1015.1c12.4,2.7,25.2,4,37.9,4.1"/>
	<path class="st0" d="M2009.1,1001.8c12.8-0.1,25.6-0.2,38.3-0.4"/>
	<path class="st0" d="M2009.2,968.6c9.1,1.2,18.2,2.4,27.4,3.7"/>
	<path class="st0" d="M1974.1,878.3c12.2,0.6,24.5,1.2,36.7,1.8"/>
	<path class="st0" d="M1961.4,854.4c8.9,1.1,17.8,2.2,26.7,3.2"/>
	<path class="st0" d="M1966.9,841.9c-9.7-26.8-32.5-48.3-59.5-56.2"/>
	<path class="st0" d="M1990.1,828.5c-11.6-10.3-26.4-16.7-41.7-18"/>
	<path class="st0" d="M1766.9,928c52.1-33.1,108.1-60,166.3-79.8"/>
	<path class="st0" d="M1480.3,932.3c-41.7-34.4-63.5-91.3-55.5-144.7"/>
	<path class="st0" d="M1291.8,839.4c46-25.8,95.7-45,147.1-56.8"/>
	<path class="st0" d="M1435,845.1c15-37.9,34.6-77,69.7-97.8c32.3-19.2,72.1-19.5,109.7-18"/>
	<path class="st0" d="M1189.1,991.6c-4.6,23.1-9.1,46.2-13.7,69.3"/>
	<path class="st0" d="M1186,1066.5c6.6-3.3,14.3-3.5,21.6-2c7.2,1.5,14,4.5,20.7,7.5c7.8,3.5,16.5,8.1,18.5,16.4
		c0.7,2.9,0.5,6.1,1.7,8.8s5,4.7,7.3,2.8"/>
	<path class="st0" d="M1215.1,999.8c3.5,27.6,15.7,54.1,34.4,74.7"/>
	<path class="st0" d="M1057.5,1066.6c16.8-18.7,38.8-31.9,62.1-41.4c23.2-9.5,47.7-15.4,72.1-21.2"/>
	<path class="st0" d="M1069.3,1127.2c22-2.6,43.8-7.2,64.9-13.8"/>
	<path class="st0" d="M1246.8,1088c-15.3,2.1-30.6,4.2-45.8,6.3"/>
	<path class="st0" d="M1274.3,1109c-12.4-3.5-25.6-4.1-38.3-1.6"/>
	<path class="st0" d="M1279.3,1121.2c-7.3-0.3-14.5-0.7-21.8-1.1"/>
	<path class="st0" d="M1304.3,1128.5c-13.6-0.8-27.3-0.2-40.8,1.7"/>
	<path class="st0" d="M1213.5,1103.9c7.5,11.8,19.7,20.4,33.2,23.7"/>
	<path class="st0" d="M1292.4,1141c14.1,5.6,29,9.1,44.1,10.6"/>
	<path class="st0" d="M1250.4,1132.4c7.6,8.8,18.9,13.3,30.1,16.3s22.8,4.7,33.5,9.1"/>
	<path class="st0" d="M1288,1159.3c31.5,7.6,64,10.7,96.3,9.3"/>
	<path class="st0" d="M1267.1,1153c-13,3.9-25.5,9.4-37.1,16.4"/>
	<path class="st0" d="M1043.9,1110.1c5.4-28.6,26.5-52.4,51.3-67.7c24.8-15.3,53.2-23.4,81.3-31.4"/>
	<path class="st0" d="M1079.7,1117.4c15.2-2.8,30.4-5.7,45.6-8.6"/>
	<path class="st0" d="M1094.2,1127.4c34.9-11.1,69.9-22.2,104.8-33.3"/>
	<path class="st0" d="M1148.3,1125.7c22.4-2.9,44.3-9,65.1-17.9"/>
	<path class="st0" d="M1191.5,1128.2c14.3-5.9,29.8-9.1,45.2-9.3"/>
	<path class="st0" d="M1200.7,1118.8c29.7,14.7,62.9,22.2,96.1,21.7"/>
	<path class="st0" d="M1179,1005.3c-45.9,12.6-89.4,34-127.4,62.7"/>
	<path class="st0" d="M1266.6,903.4c8,27.2,21.5,52.7,39.6,74.6"/>
	<path class="st0" d="M1108.8,1005.5c42.3-15.3,90.6-13.5,131.6,4.9"/>
	<path class="st0" d="M1971.9,1064.5c-17.8-20-41.9-33.3-67-41.8c-25.1-8.5-51.4-12.6-77.6-16.6c-42.7-6.6-85.3-13.1-128-19.7"/>
	<path class="st0" d="M1928,792.2c-29.2-10.7-59.8-17.4-90.8-19.8"/>
	<path class="st0" d="M2005.4,1098.3c7.5-88-5.9-177.8-38.7-259.7"/>
	<path class="st0" d="M1802.2,1001.6c60.9,16.1,120.4,37.3,177.8,63.5"/>
</g>
<g id="Left_leg">
	<path class="st0" d="M1289.1,1598.4c20.2-29.7,40.3-59.4,60.5-89.1c16.9-24.9,33.9-49.9,53.1-73.1c72.5-87.5,173.4-145.8,272.7-201
		"/>
	<path class="st0" d="M1651.5,1251.6c44.1-18.9,93.9-16.9,141.4-23.4"/>
	<path class="st0" d="M1359.7,1488.2c-29.5,35.9-56.1,74.3-79.3,114.5"/>
	<path class="st0" d="M1255.9,1615.4c6.9-6.2,15.2-10.8,24.1-13.4c4.3-1.3,8.8-2.2,12.2-5.1"/>
	<path class="st0" d="M1375.2,1471.6c-42.3,26.6-70.4,70.3-97,112.7"/>
	<path class="st0" d="M1315.4,1758.5c32.3-42.1,83.4-64.5,125.2-97.1c15.8-12.3,30.4-26.2,46.4-38.2c29.8-22.4,64.1-38.2,98-53.7
		c77.7-35.6,155.5-71.2,236.5-98.4c20.1-6.8,40.6-13.1,59.2-23.3c47.8-26.3,78.3-75.8,99.2-126.2"/>
	<path class="st0" d="M1431.9,1668.3c44.9-29.2,89.9-58.4,134.9-87.6"/>
	<path class="st0" d="M1287.2,1608.2c-39.5,25.8-77.8,53.3-114.8,82.4"/>
	<path class="st0" d="M1180.8,1683.9c1.4,15.4-1.2,31.2-7.6,45.3"/>
	<path class="st0" d="M1192.4,1682.8c-2.5,16.7-7.1,33-13.9,48.4"/>
	<path class="st0" d="M1169.2,1718.2c1.2,3.8,2.5,7.7,3.8,11.5"/>
	<path class="st0" d="M1211.4,1749.1c15.9-19.7,30.7-40.4,44.3-61.8"/>
</g>
<g id="Left_leg_enhance">
	<path class="st0" d="M1291.4,1599.3c63.8-102.2,143.2-194.7,234.6-273.2"/>
	<path class="st0" d="M1416.8,1425.5c70.5-68.4,152.2-125.2,240.7-167.7"/>
	<path class="st0" d="M1788,1226.9c-55.9,4.7-111.3,15.9-164.6,33.5"/>
	<path class="st0" d="M1506,1357.2c-57.4,36.4-106.6,85.6-142.9,143"/>
	<path class="st0" d="M1305.4,1590.7c34.1-54.9,73.5-106.4,117.5-153.8"/>
	<path class="st0" d="M1453.6,1645.9c91.8-66.3,191.8-121.5,296.9-163.8"/>
	<path class="st0" d="M1616.8,1549.9c66.1-25.8,130.9-54.6,194.5-86.2"/>
	<path class="st0" d="M1977.6,1289.5c6.2,33-6.9,67.3-27.9,93.4s-49.2,45.4-77.5,63.3"/>
	<path class="st0" d="M1931.5,1399.4c-30.3,24.8-63.3,46.2-98.4,63.7"/>
	<path class="st0" d="M1648.1,1529.5c-47.2,17.6-92.4,40.5-134.4,68.3"/>
	<path class="st0" d="M1462.5,1625.2c-13.2,8.8-26.5,17.5-39.7,26.2"/>
	<path class="st0" d="M1392.2,1687.6c56.2-39.2,112.3-78.4,168.5-117.6"/>
	<path class="st0" d="M1718.1,1505.5c57.8-22.7,113.8-49.6,167.7-80.5"/>
	<path class="st0" d="M1848.6,1454.4c15.7-6.9,30.6-15.5,44.4-25.6"/>
	<path class="st0" d="M1652,1261.7c-53.8,25.1-105.1,55.7-157.8,108.2c-35.1,29-67.1,61.9-95,97.9"/>
	<path class="st0" d="M1552,1328.7c26.6-14.3,53.3-28.7,79.9-43"/>
	<path class="st0" d="M1660.1,1267.8c14.3-4.7,28.7-9.3,43-14"/>
</g>
<g id="Right_hand">
	<path class="st1" d="M919,1169.5c14.1-20.1,37.1-34.4,60.7-46.8c23.6-12.3,48.6-23.3,69.1-38.9"/>
	<path class="st1" d="M954.1,1136.1c-2.6,2-5.2,4.1-6.8,6.7s-2.2,5.9-0.6,8.7c0.8,1.4,2.2,3,1.6,4.4c-0.3,0.7-1.1,1.2-1.8,1.7
		c-2.1,1.3-4.3,2.7-5.9,4.5c-1.6,1.8-2.5,4.2-1.7,6.4"/>
	<path class="st1" d="M921.5,1170.1c8.7-3.5,19.9-1.7,28.2,3.1s14.2,12.3,18.1,20.1"/>
	<path class="st1" d="M935.8,1174.6c2.5-2,6.6-2.3,10.1-1.4s6.6,2.8,9.4,4.8c19.6,13.8,32.3,35.8,27.5,56"/>
	<path class="st1" d="M928.7,1152.9c-1.1,4.6,1,9.7,4.3,13.7c3.3,4.1,7.8,7.4,12.1,10.7c9.8,7.6,19,15.8,26,25.3
		s11.7,20.3,11.7,31.1c0,3.2-0.4,6.5-2.1,9.4c-1.7,2.8-4.5,5-6.8,7.4c-5.8,6.1-9,13.7-12,21.2c-4.4,10.8-8.8,21.7-13.2,32.5"/>
	<path class="st1" d="M967.5,1308c97.3-50.4,190.7-107.4,298-142.4c11-3.6,22.1-6.9,33.9-8.5"/>
	<path class="st1" d="M1043.4,1276.2c1.2-2.7,2.5-5.3,3.7-8c-53.6,35.1-104.1,74.9-137.1,125"/>
	<path class="st1" d="M930.7,1060.3c1.5,49.1-0.8,98-6.8,146.4c-3.7,29.8-8.8,59.5-6.9,89.7c1.5,22.6,6.7,46.2-2.5,67"/>
	<path class="st1" d="M938,1018.9c-1.1,33.6-2.1,67.2-3.2,100.7c-0.8,25.1-1.6,50.2-2.4,75.3c-1.7,50.2-3.7,100.3-6,150.4"/>
	<path class="st1" d="M919.7,1319.8c3.8-7.6,8.4-14.8,13.1-22c0.6-0.9,1.8-1.8,2.8-1.2c0.4,0.3,0.5,0.8,0.6,1.2
		c0.4,3.9-2.7,7.2-5.7,10.1"/>
	<path class="st1" d="M937.9,1028c-27.7,5.8-55.5,11.6-81.7,20.5s-51.2,21-70.6,38"/>
	<path class="st1" d="M891,1042c-41,6.7-79.6,21.1-112.3,41.9"/>
	<path class="st1" d="M933,1029.3c-25.3,3.5-49,11.6-73.3,17.8c-25.3,6.5-52.9,11.7-70.7,27.8"/>
	<path class="st1" d="M839.6,1051.7c-0.7-6.3,4.5-11.8,5.3-18.1"/>
	<path class="st1" d="M849.7,1034.2c-12.3-1.4-24.7-2.2-37.1-2.4c-4.8-0.1-9.8,0-14,1.8"/>
	<path class="st1" d="M806.8,1028.3c-8.3,7.6-14.2,17-16.8,27.2c-0.7,2.8-1.2,5.6-1.2,8.5c-0.1,5.7,1.6,11.4,3.3,17"/>
	<path class="st1" d="M752.3,1021.1c2.5,20.4,17.9,38.4,32.6,55.3c8.1,9.2,16.2,18.5,24.2,27.7"/>
	<path class="st1" d="M807.3,1114.5c0.1-3.9,1.5-7.7,4-10.8"/>
	<path class="st1" d="M806.8,1176c2.7,1.9,5.5,3.8,8.2,5.7c-5.3-12-9.6-24.3-10.6-36.9c-1-12.6,1.3-25.3,8.5-36"/>
	<path class="st1" d="M743.7,1124.3c-2.7,4.4-2.7,9.8-1.5,14.8c1.2,5.1,3.6,10,6.1,14.8c4.9,9.3,10.7,18.8,10.6,28.8"/>
	<path class="st1" d="M760.6,1174.3c-2.9,4.5-5.6,9.2-8.1,13.9c3.9-0.9,7.9-1.7,12.1-1.9c2.9-0.1,5.9,0.2,8.8,0.4
		c7.2,0.4,14.5-0.1,21.6-0.5c3.8-0.2,7.8-0.5,11.2-1.9c3.2-1.3,5.8-3.6,7.2-6.4"/>
	<path class="st1" d="M748.8,1121.8c15.7-3.2,31.5-6.4,47.2-9.6"/>
	<path class="st1" d="M749,1115c-5.7,0-10.9-2.8-15.6-5.6c-3.8-2.2-7.5-4.6-10.5-7.6c-4.9-4.8-7.5-11-8.5-17.1s-0.7-12.3-0.4-18.4"
		/>
	<path class="st1" d="M741.9,1125.7c-7.5-8.5-13.5-17.8-19.4-27.1c-4.9-7.7-9.9-15.5-13.2-23.8c-1.4-3.4-2.4-7-4.4-10.2
		s-5.2-6.2-9.8-4.7c2.4-15.7,17.3-28.9,35.7-31.7c6.6-1,13.4-0.8,20.1,0"/>
	<path class="st1" d="M754.5,1021.8c-12.9-2.5-26.2,0.2-37.5,5.2c-13,5.7-24.7,15.6-25.5,28.2"/>
	<path class="st1" d="M634,1147.9c25.9-6.8,52-13.7,75.8-24.4"/>
	<path class="st1" d="M710.8,1214.8c7,5.1,13.9,10.2,20.8,15.3c0.7-0.4,0.3-1.3-0.2-2c-14.8-18.6-28.6-38.4-34.3-59.9"/>
	<path class="st1" d="M668.5,1112.9c9.2,17.3,18.4,34.7,27.6,52c0.7,1.2,1.3,2.6,0.8,3.8c-0.5,1.2-2.8,1.8-3.7,0.6"/>
	<path class="st1" d="M625.4,1183.3c6,2.3,12.7,2.1,19.1,1.8c28.5-1.3,57.6-3,83.5-12.2"/>
	<path class="st1" d="M638.9,1212.3c17.2,1.1,34.4-1.8,51.3,1.3c12.7,2.3,24.9,7.8,37.8,7.9c13.4,0.1,25.7-5.9,34.6-14"/>
	<path class="st1" d="M728.6,1221.8c-9.4,1.6-19.7,0.5-28.6-3.2c-4.3-1.8-8.7-4.2-13.4-4.2"/>
	<path class="st1" d="M693.6,1221.2c-8.2-10.4-17.5-20.1-27.8-29.2c-6.3-5.6-13.2-11-17.8-17.6c-3.3-4.8-5.9-10.4-10.7-13.2
		c-0.5-5.1-8.1-8.5-8.8-13.6c-0.3-2,0.6-3.9,1.5-5.8c3-6.8,5.4-13.8,7.1-21c0.9-3.7,1.7-7.6,5-10"/>
	<path class="st1" d="M710.3,1071.7c-14.7,2.2-29.9,2.6-44.5-0.2c-6.1,11.4-11.5,23.1-16,35"/>
	<path class="st1" d="M667,1073.6c-2.3,5.2-5.2,10.2-8.7,14.9c-2.3,3.1-4.9,6.1-7.3,9.1c-4.4,5.4-8.4,10.9-12.1,16.7"/>
	<path class="st1" d="M650.2,1104.4c-10.2,2.3-17.5,9.4-23.8,16.4c-4.7,5.3-9.2,10.8-13.3,16.4c-5.9,7.9-11.2,16.3-18.4,23.4"/>
	<path class="st1" d="M638.9,1114.4c-8.9,6.2-15.6,14.3-20.8,23c-5.2,8.7-8.9,18-12.5,27c3.7,5.5,5.2,11.7,8.4,17.4
		c3.8,6.8,10,12.7,17,17.5s14.8,8.7,22.7,12.4"/>
	<path class="st1" d="M474.1,1238.2c39.5-28.3,82.7-53.2,128.5-74.2"/>
	<path class="st1" d="M488.1,1240.1c34.5-24.3,69.5-48.9,110.7-65"/>
	<path class="st1" d="M510.2,1253.4c20.8-17.8,41.7-35.6,62.5-53.3c4.7-4,9.4-8,12.9-12.8"/>
	<path class="st1" d="M514.1,1277.6c-1.5-0.8-2-2.5-1.8-3.9c0.2-1.4,1.1-2.7,2-3.8c11.2-15.1,27-27.4,39.1-42"/>
	<path class="st1" d="M635.5,1315c15.6-0.6,31.1,3.3,46.7,5.1c40.4,4.5,81.8-6.3,110.5-28.8c4.9-3.8,9.5-8,14-12.2
		c11.3-10.3,22.7-20.8,30.6-33.3c4.8-7.7,8.2-16.9,4-25.3c-3.8-7.6-13.3-12.6-22.8-14.2s-19.2-0.3-28.5,1.3
		c-41.9,7.5-81.3,22.8-114.6,44.6c-9.5,6.2-18.5,13-24.9,21.5c-6.4,8.5-9.9,19-7.5,29.3c0.5,2,1.2,4.1,2.6,5.8
		c3.6,4.3,10.5,5.5,16.7,5.9c41.8,2.9,81.8-9.4,118.5-24.5c20.8-8.6,41.6-18.4,55.7-33.7c6.7-7.2,11.8-17,7.2-25.8
		c-3.2-6.2-10.7-10.4-18.4-12.7c-16.5-4.9-34.2-2.3-51,0.2c-12.7,2-25.4,3.9-38,5.9"/>
	<path class="st1" d="M555.5,1432c10.2,10.5,20.4,21.1,30.6,31.6c-12.5-31-32.9-59.6-50.8-88.9c-23.8-39-43.5-79.5-63.1-119.9
		c-2.5-5.2-5.1-11.2-2.3-16.1"/>
	<path class="st1" d="M532,1468.4c88.5-32.1,177.3-63.7,266.3-94.7c14.5-5,29-10.1,44-14c29.2-7.6,62.2-12.1,81.6-31.5"/>
	<path class="st1" d="M763.6,1422.6c-39.2-12.3-79-23-119.3-32"/>
	<path class="st1" d="M646.9,1398.8c-1.2,0.2-2.4,0.5-3.2,1.2s-0.9,2,0.1,2.7c0.4,0.2,0.8,0.3,1.2,0.4c5.8,1.2,11.6,2,17.5,2.5"/>
	<path class="st1" d="M823.9,1452.2c-40.4-14.7-81.8-27.2-123.9-37.4c-25.6-6.2-51.4-11.5-77.5-15.7"/>
	<path class="st1" d="M904.5,1394.3c-15.5-9.1-35.2-10.7-52.4-17.2c-9.9-3.7-19.1-9.1-29.3-11.9"/>
	<path class="st1" d="M827.1,1365.6c19.5,8.9,41.1,13.6,62.6,17.5c5.7,1.1,11.6,2.1,16.8,4.4c0.6,0.3,1.2,0.6,1.5,1
		c1,1.5-1.3,3.2-0.4,4.8"/>
</g>
<g id="Left_foot_new">
	<path class="st0" d="M1207.1,1659.2c-16.2,25.1-32.4,50.2-48.6,75.4"/>
	<path class="st0" d="M1169.1,1733.5c0.3,20.2-2.1,40.4-7.1,60"/>
	<path class="st0" d="M1177.1,1762.7c-19.7,50.3-43.6,98.9-71.1,145.4"/>
	<path class="st0" d="M1159.1,1816.8c-18.9,35.7-37.9,71.3-56.9,106.9"/>
	<path class="st0" d="M1174.5,1718.6c-0.7,21.2-2.8,42.4-6.5,63.3"/>
	<path class="st0" d="M1179.8,1696.8c2.2,25.5,1.4,51.2-2.2,76.5"/>
	<path class="st0" d="M1172.1,1828.7c-21.7,26.1-40.3,54.6-55.4,85"/>
	<path class="st0" d="M1132.4,1876.1c-34.1,89.4-90,170.5-161.5,234.2"/>
	<path class="st0" d="M955.8,2146.1c73.7-77.8,133-169.3,173.9-268.4"/>
	<path class="st0" d="M981.2,2106.8c21-20.6,41.2-42.1,60.3-64.5"/>
	<path class="st0" d="M1002.2,2100.5c18.3-20.2,34.6-42.2,48.6-65.6"/>
	<path class="st0" d="M1058.6,2020.1c14-20.5,26.6-42,37.6-64.3"/>
	<path class="st0" d="M937.1,1947.1c-29.7,4.3-54.7,26.4-68.2,53.1c-13.5,26.7-17,57.5-16.2,87.5s5.3,59.7,6.8,89.6"/>
	<path class="st0" d="M946,1916.8c3.6,11.6,2,24.8-4.2,35.2"/>
	<path class="st0" d="M976.5,1935.7c-25.3-5.9-52.5-4.4-76.4,5.8s-44.1,29.5-53.9,53.5c-11.6,28.6-8,60.8-3.9,91.4
		c4.1,30.6,8.2,62.6-2.6,91.6"/>
	<path class="st0" d="M907.3,1943.2c-23.5,5.5-41.6,25.6-50.4,48s-9.7,47.2-9,71.3"/>
	<path class="st0" d="M879.3,1973.3c15.4-16,35.2-27.7,56.7-33.6"/>
	<path class="st0" d="M860,2026.8c-14.1,26.9-14.6,58.9-11.8,89.1c2.8,30.3,8.5,60.6,5.8,90.9"/>
	<path class="st0" d="M939,2154.4c29.1-12.4,53.7-35.3,68.2-63.5"/>
	<path class="st0" d="M823.1,2185.2c13.1-12.6,26.3-25.2,39.4-37.9c2.2-2.1,4.5-4.3,7.5-5.2c4.3-1.4,8.8,0.3,13,1.8
		c12.3,4.7,24.7,9.4,37,14c9.6,3.6,20.5,8.6,23.2,18.5c2.4,8.5-2.3,17.3-6.8,25c-7.2,12.2-14.4,24.5-21.6,36.7"/>
	<path class="st0" d="M871.5,2138.8c20.2,5,40.2,11.2,59.6,18.7c6.4,2.5,13.4,5.7,15.8,12.1c2.4,6.3-0.6,13.2-3.8,19.2
		c-8.6,16-19.2,30.8-31.5,44.1"/>
	<path class="st0" d="M852,2206.5c11.5,7.9,25.6,11.8,39.5,10.9c8.2-0.5,16.8-2.6,24.4,0.6c7.8,3.2,12.6,11.3,15,19.4
		s3,16.6,5.4,24.7c2,6.8,6,13.7,12.8,15.8c4.7,1.5,9.7,0.3,14.3-1.1c12.7-3.8,24.9-9.3,36.1-16.4"/>
	<path class="st0" d="M923.7,2219.8c2,11.3,5.7,22.6,12.6,31.8s17.3,16.3,28.7,17.3c11.5,1,23.7-4.9,28.6-15.3"/>
	<path class="st0" d="M959.2,2253.1c16.4-19.3,38.2-33.9,62.4-41.4"/>
	<path class="st0" d="M980.2,2235c11.5-6.6,25.2-9.4,38.3-7.6"/>
	<path class="st0" d="M934.5,2161.9c11.5-8.8,21.8-19,30.6-30.5"/>
	<path class="st0" d="M943,2159.9c13.7-7.6,27-15.8,39.9-24.8"/>
	<path class="st0" d="M1015.5,2228.1c-0.2-24.9,3-49.8,9.6-73.7"/>
	<path class="st0" d="M1032.3,2157.6c-3.9,23.8-9.7,47.2-17.3,70"/>
	<path class="st0" d="M991.5,2260.1c18-34.2,40.3-66.2,66.2-95"/>
	<path class="st0" d="M1018.5,2226.7c15.5-34.7,40.2-65.2,71-87.6"/>
	<path class="st0" d="M1037.2,2181.1c12.6-14.2,27.6-26.2,44.3-35.3"/>
	<path class="st0" d="M1065.2,2151.6c30.3-28.8,64.1-54,100.4-74.9"/>
	<path class="st0" d="M1079.6,2145.5c16.9-16.8,36.8-30.5,58.5-40.3"/>
	<path class="st0" d="M1115.2,2112.9c34.9-23.1,67.1-50.3,95.8-80.8"/>
	<path class="st0" d="M1160.1,2063.3c31.4-16.9,60.2-38.6,85-64"/>
	<path class="st0" d="M1158.4,2074.5c16.1-12,32.1-24.1,48.2-36.1"/>
	<path class="st0" d="M1193.3,2052.4c76.2-47.6,127.1-133.4,132.4-223.1"/>
	<path class="st0" d="M1326.8,1759.6c-0.8,53.5-6.8,106.9-17.9,159.2"/>
	<path class="st0" d="M1330.6,1823.5c-17.7,54.5-36,110-69.8,156.3c-19,26.1-42.5,48.6-66.6,70.1"/>
	<path class="st0" d="M1313.7,1869.3c-24,56.4-60.1,107.6-105.2,149"/>
	<path class="st0" d="M1322.4,1792.4c-3,42.4-10.5,84.5-22.3,125.3"/>
	<path class="st0" d="M1335,1728.3c-16.5,27.6-23,61.1-18,92.8"/>
	<path class="st0" d="M1264.8,1675.7c-13.3,31.1-32.9,59.5-57.3,83"/>
	<path class="st0" d="M1296.7,1936.3c-8.3,12.5-16.6,24.9-24.9,37.4"/>
	<path class="st0" d="M560.5,2108.9c7.2,58.3,33.8,114,74.4,156.4s95.1,71.3,153.1,81.1"/>
	<path class="st0" d="M796.5,2346.8c27.6,2.3,55.1,5.6,82.5,9.9"/>
	<path class="st0" d="M561.4,2116.1c8,55.4,34.2,108.1,73.6,147.9s91.7,66.6,147.1,75.1"/>
	<path class="st0" d="M794.4,2349.3c21.2,3.9,42.2,8.9,63,14.9"/>
	<path class="st0" d="M561.8,2110.6c-19.4,8.3-36.7,21.6-49.8,38.2"/>
	<path class="st0" d="M549.4,2108.6c-13.9,8.7-26.2,20-36.1,33"/>
	<path class="st0" d="M690.4,2373.1c-46.9-17.7-88.9-48.4-120-87.7c-31.1-39.3-51.3-87.2-57.7-137"/>
	<path class="st0" d="M594.3,2312.9c26.1,31.2,62.7,53.4,102.5,62.2"/>
	<path class="st0" d="M664.3,2359.9c39.4,7.2,78.9,14.4,118.3,21.6c24.7,4.5,49.9,9.2,71.8,21.6c10.9,6.1,20.7,14.1,31.3,20.7
		s22.4,12.1,34.9,12.6c12.5,0.5,25.8-4.9,32-15.8"/>
	<path class="st0" d="M678.7,2357.8c26,8.8,52.2,17.7,79.1,23c20.8,4.1,42,6.2,62.3,12.1c27.3,7.9,52.1,22.5,76.6,37"/>
	<path class="st0" d="M937,2422.3c13-0.7,25.1-8.3,33.4-18.3c8.3-10.1,13.3-22.5,16.7-35.1"/>
	<path class="st0" d="M987.3,2388.4c14.7-44.6,20.9-92.1,18-139.1"/>
	<path class="st0" d="M999.4,2230.4c3.3,11.9,7.6,23.4,12.7,34.6"/>
	<path class="st0" d="M1008,2273.9c1.7,43-7.4,86.4-26,125.2"/>
	<path class="st0" d="M613.2,2169.5c24.6-11.2,50.1-20.5,76.2-27.7"/>
	<path class="st0" d="M628.4,2151.3c41.9-15.7,83.8-31.4,125.7-47.2"/>
	<path class="st0" d="M620.7,2143.4c16.9-7.6,34.3-14,52.1-19.1"/>
	<path class="st0" d="M679.3,2171.7c56.6,11.2,116.5,5.5,170-16.4"/>
	<path class="st0" d="M712.6,2270.6c10.5-16.2,8.8-37.9,0.7-55.3c-8.1-17.5-21.8-31.6-35.2-45.4"/>
	<path class="st0" d="M557.2,2112.2c7.9-7.8,20.7-8.7,31.2-5.2c10.5,3.5,19.4,10.6,28,17.6c21.1,17.2,42.2,34.4,63.3,51.6"/>
	<path class="st0" d="M687.8,2203.2c14.8,17.2,22,40.8,19.2,63.4"/>
	<path class="st0" d="M684,2184.3c-26.2-21.4-52.4-42.8-78.6-64.2c-5.2-4.3-10.6-8.6-17-11s-14-2.4-19.4,1.6"/>
	<path class="st0" d="M721.2,2214.9c0.3,3.3,2.9,6.1,5.9,7.6c3,1.4,6.5,1.7,9.8,2c48.5,3.8,97.3,3.1,145.6-2.3"/>
	<path class="st0" d="M866.5,2235c-22.9-29.2-57.9-48.5-94.8-52.3"/>
	<path class="st0" d="M857.4,2235.3c-17.3-24.4-43.3-42.4-72.2-50.1"/>
	<path class="st0" d="M832.5,2167.6c9.6,15.9,12.2,35.9,7,53.7"/>
	<path class="st0" d="M841.7,2177.4c9.8,3.8,19.6,7.6,28.2,13.7s15.7,14.7,17.8,25"/>
	<path class="st0" d="M848.5,2180.7c14.3,9.2,29.2,17.6,44.5,25.2"/>
	<path class="st0" d="M850.5,2156.9c-3.1,7.2-8.5,13.3-15.1,17.4c-6.7,4-14.7,5.9-22.4,5.3"/>
	<path class="st0" d="M836.8,2230.9c-14.8-13.7-32.8-23.9-52.2-29.4"/>
	<path class="st0" d="M788.6,2242.5c6.5-20,9-41.2,7.4-62.2"/>
	<path class="st0" d="M801.2,2179.5c-2,20.9-5.7,41.6-11.2,61.8"/>
	<path class="st0" d="M771.8,2176.2c6.3,25,3.8,52.2-7,75.7"/>
	<path class="st0" d="M765.2,2175.5c3.9,4.6,5.2,10.8,6,16.7c2.6,19.7,0.7,40-5.4,58.9"/>
	<path class="st0" d="M752.8,2231.8c2.5,1.1,5.2,2.2,8,2.2c2.8,0.1,5.8-1.1,7.1-3.5c1.3-2.2,0.9-5.1-0.2-7.4s-3-4.2-4.9-6
		c-13.6-13.4-27.2-26.9-40.9-40.3"/>
	<path class="st0" d="M748.3,2239.4c-7.8-23.4-20.9-45-38.1-62.7"/>
	<path class="st0" d="M705.2,2178c2.2,8.9,9.1,15.8,16,21.9s14.1,12.4,17.3,21"/>
	<path class="st0" d="M736.1,2231.9c51.4,1.9,103-1.9,153.6-11.3"/>
	<path class="st0" d="M677.2,2169.2c10,20.3,31.7,34.1,37.7,56c4.1,14.6,0.3,30.1-3.5,44.8"/>
	<path class="st0" d="M691.1,2306.5c18.7-19.2,46.3-27.9,73.1-28.1c26.8-0.2,53.1,7.3,78.3,16.3c25.2,9,50,19.7,75.9,26.3
		s53.7,9.1,79.4,1.4"/>
	<path class="st0" d="M997.5,2338.5c-23.4,6.9-48.5,4.7-72.4,0.2c-24-4.5-47.6-11.2-71.8-13.3s-49.9,0.8-70.3,14.1"/>
	<path class="st0" d="M875.4,2359.4c15.4,16,35.6,28.2,57.6,30.5s45.9-6.9,57.8-25.7"/>
	<path class="st0" d="M835,2354.3c15.3,2.6,29.4,9.9,43,17.5s27,15.7,41.9,20.3c14.9,4.6,31.6,5.3,45.5-1.7"/>
	<path class="st0" d="M991.3,2352.1c-6.8,18.2-24.4,31.9-43.7,34"/>
	<path class="st0" d="M994.2,2347.5c-43.4-5.9-86.8-11.7-130.2-17.5c-14.8-2-29.7-4-44.5-2.1c-14.8,1.9-29.6,8.1-38.7,19.9"/>
	<path class="st0" d="M986.2,2322.7c-33.9,7.9-69.3-1.7-102-13.6c-32.7-11.9-65.4-26.2-100.1-27.9c-31.5-1.6-63.4,7.6-83.9,29.2
		c16.4-13.5,36.5-22.4,57.5-25.6"/>
	<path class="st0" d="M923.9,2380.8c20.4-0.9,40.3-9.8,54.7-24.3"/>
	<path class="st0" d="M903.8,2375.4c5.8-0.5,11.5-0.9,17.3-1.4"/>
	<path class="st0" d="M759.7,2348.8c-1,8.9-2,17.7-3,26.6"/>
	<path class="st0" d="M772,2350.1c-1,10.2-2,20.4-3,30.5"/>
	<path class="st0" d="M787.8,2350.8c-0.8,11.1-1.5,22.1-2.3,33.2"/>
	<path class="st0" d="M803.6,2355.8c-1.2,10.8-2.4,21.7-3.7,32.5"/>
	<path class="st0" d="M818.5,2361.4c-1.3,9.1-2.7,18.1-4,27.2"/>
	<path class="st0" d="M868.2,2376.7c-1,10.8-2,21.7-3,32.5"/>
	<path class="st0" d="M883.2,2392.3c-0.8,7.2-1.5,14.4-2.3,21.6"/>
	<path class="st0" d="M933,2412.2c-0.4,6.5-0.9,13.1-1.3,19.6"/>
	<path class="st0" d="M894.5,2398.3c-0.5,7.1-1.1,14.2-1.7,21.2"/>
	<path class="st0" d="M910.8,2405.6c-1,7.2-2,14.4-3,21.6"/>
	<path class="st0" d="M794.5,2278.2c23.9-2.4,46.2,10.6,68,20.5c33.5,15.2,70.1,23.8,106.9,25.1"/>
	<path class="st0" d="M729.6,2238.1c34.5-2.6,68.8-7.6,102.5-15"/>
	<path class="st0" d="M779.3,2196.9c0.2,14.8-2.3,29.7-7.3,43.6c-2,5.7-4.9,11.6-10.4,14.2c-5.4,2.6-13.6-0.7-13.5-6.7"/>
	<path class="st0" d="M795.3,2204c7.9,1.8,16,3.7,22.9,8c6.9,4.3,12.5,11.6,12.6,19.7c0.1,8.1-6.8,16.4-14.9,15.7"/>
	<path class="st0" d="M857.3,2233.8c16.6-3.4,33.4-6,50.3-7.6"/>
	<path class="st0" d="M513.3,2155.4c13.1-14.3,29.3-25.6,47.1-33"/>
	<path class="st0" d="M517.2,2166.1c11.1-10.1,23.8-18.6,37.4-25"/>
	<path class="st0" d="M522.2,2179.8c9.8-8.5,21.1-15.3,33.2-19.9"/>
	<path class="st0" d="M525.4,2196.9c10.2-8.8,21.9-16,34.5-21.1"/>
	<path class="st0" d="M520.2,2213.9c11.2-9.1,23.5-16.9,36.5-23.1"/>
	<path class="st0" d="M525.4,2227.4c13.6-11,28.7-20.1,44.8-26.9"/>
	<path class="st0" d="M537.4,2242.4c11.5-12.6,26-22.3,42-28.2"/>
	<path class="st0" d="M552.9,2249.6c11.1-11.3,24.9-20,39.9-25.2"/>
	<path class="st0" d="M560.2,2267.1c9.7-9.9,20.7-18.6,32.6-25.9"/>
	<path class="st0" d="M567.2,2283.1c12.3-10.5,25.7-19.8,39.8-27.6"/>
	<path class="st0" d="M581.3,2117.1c-2.9,0-5.9-0.1-8.8-0.1c7.8,51.1,30.1,99.9,63.6,139.3"/>
	<path class="st0" d="M571.3,2137.4c8.9,34.5,24.6,67.2,45.9,95.8"/>
	<path class="st0" d="M853.8,2369.5c-2,9.9-4,19.9-5.9,29.8"/>
	<path class="st0" d="M891.2,2247.2c27.9,35.3,70.4,58.6,115.2,63.1c62.9,6.3,126.4-22.9,188.5-10.8c38.6,7.5,73.7,31.5,94.6,64.7"
		/>
	<path class="st0" d="M1271.1,2349.9c2.5-14.9-1-30.6-9.5-43.1"/>
	<path class="st0" d="M1258.9,2342c-6.3-22.9-24.4-41.4-45.6-52c-32.7-16.4-71.3-15.6-107.6-10.9s-72.6,13-109,10.2
		c-36.5-2.8-74.5-19-91.8-51.2"/>
	<path class="st0" d="M915.8,2270c23.6,22.8,58.8,28.2,91.5,30c53.3,3,107-0.6,159.5-10.5"/>
	<path class="st0" d="M1200.2,2291.4c-35-9-72.2-9.6-107.5-1.6"/>
	<path class="st0" d="M1261.7,2336.4c-3.8-12.5-13.2-22.8-24.2-29.8s-23.6-11.2-36.2-14.5c-61.5-16-127.7-13.6-187.7,7"/>
	<path class="st0" d="M1105.9,2290.9c-25.2,8.4-52.4,10.5-78.6,6"/>
	<path class="st0" d="M907.3,2231.8c7.2,16,20.3,29.3,36.2,36.7c15.9,7.4,34.6,8.8,51.4,3.9"/>
	<path class="st0" d="M904.7,2275.9c17.5,16.6,39.3,28.6,62.7,34.4c4.4,1.1,9.6,2.6,11.1,6.9c1.2,3.4-0.7,7.2-3.5,9.5
		c-2.8,2.2-6.3,3.2-9.8,4.2"/>
	<path class="st0" d="M957.2,2398.3c-3.4,13.2-9.7,25.6-18.3,36.2"/>
	<path class="st0" d="M928.2,2409.3c-3.5,10.3-8.6,20-15.1,28.6"/>
	<path class="st0" d="M673.8,2363.7c2.7-11.8,6.3-23.3,10.8-34.5"/>
	<path class="st0" d="M683.1,2364c1.8-8.7,5.1-17.1,9.7-24.7"/>
	<path class="st0" d="M697.5,2361.7c1.9-4.7,3.8-9.4,5.7-14"/>
</g>
<g id="Right_leg">
	<path class="st0" d="M1031,1416.7c66-55.6,135.5-107.1,207.9-154"/>
	<path class="st0" d="M1634.6,1237.9c-76.2-24.6-158.6-17.9-238.4-10.9c-52.2,4.6-105.3,9.4-153.6,29.6
		c-56.4,23.7-102,66.6-146.4,108.7"/>
	<path class="st0" d="M1627.1,1228.8c-81.5-9-163.7-17.9-245.2-9.5c-81.5,8.4-163.4,35.6-223.9,90.9"/>
	<path class="st0" d="M1632.6,1239.9c-106.7-22.7-217.8-24.8-325.2-6c-30.3,5.3-60.9,12.5-85.6,27.2
		c-72.2,32.7-127.7,92.6-181.3,151"/>
	<path class="st0" d="M1226.8,1270.2c-64.6,38.4-124.5,84.5-178.2,137.1"/>
	<path class="st0" d="M1103.5,1359.5c-11.6,19.6-29.6,35.4-50.5,44.4"/>
	<path class="st0" d="M1066.6,1384c-12.8,10.6-26.6,19.9-40.6,26.6c0.7,5.8,0.5,11.6-0.3,17.4"/>
	<path class="st0" d="M1027.6,1420.4c7.7,38.9,22.9,76.4,44.5,109.7"/>
	<path class="st0" d="M1041.3,1408.1c-7.6,2.4-12.8,9.9-14.4,17.7s-0.4,15.9,1.4,23.7c3.5,15.3,9.1,30.2,16.5,44
		c6.5,12.2,16.2,24.8,29.9,26.5"/>
	<path class="st0" d="M1058.5,1508.8c-2.2,5.7,1.4,12.2,6.6,15.4c5.2,3.2,11.5,3.8,17.5,4.4c72.8,7.7,143.4,30.6,209.4,62.3"/>
	<path class="st0" d="M1294.5,1596.1c-54.5-28.3-113.4-48-174-58.3c-11.4-1.9-23-3.6-34-7.1s-21.7-9-29.5-17.7"/>
	<path class="st0" d="M1108.3,1542.2c-19.9-4.7-38.3-15.8-51.9-31.2"/>
	<path class="st0" d="M1360,1486.9c-24.8-45.9-74.4-77.4-126.5-80.4"/>
	<path class="st0" d="M1159.5,1411c22.6-0.8,44.7-6.1,67.1-8.4c22.4-2.3,46.2-1.3,66,9.4c27.8,15,42.8,45.9,65.8,67.6"/>
	<path class="st0" d="M1371.3,1478.4c-15.9-16-34.9-29-55.6-38.1"/>
	<path class="st0" d="M1416.2,1422.3c-30.7,2.1-61.1,9.2-89.6,20.8"/>
	<path class="st0" d="M1319.3,1436.8c31.4-6.2,62.8-12.3,94.1-18.5"/>
	<path class="st0" d="M1405,1408.7c-30.7,7-61.4,14-92.1,21"/>
	<path class="st0" d="M1136.6,1404.1c14.3-6.2,29.8-9.6,45.4-10.2"/>
	<path class="st0" d="M1141.2,1389.3c15.5,0,31,2.2,45.9,6.5"/>
</g>
<g id="Right_foot_new">
	<path class="st0" d="M1522.9,1633.7c31.7-38.2,70-70.9,112.6-96.3"/>
	<path class="st0" d="M1516.9,1615.3c6.2,9.5,16,16.4,26.5,20.8c10.5,4.4,21.8,6.6,33,8.5c3.3,0.5,6.7,1,9.9,0.2s6.3-3.2,6.7-6.5
		s-2.6-6.9-5.9-6.1"/>
	<path class="st0" d="M1614.7,1585.8c3.2,4.7-0.5,11.2-5.3,14.3s-10.6,4.5-14.8,8.4c-8.2,7.6-6.5,20.7-5.7,31.9
		c1.7,23.1-3.6,46.7-14.8,66.9"/>
	<path class="st0" d="M1576.2,1627.8c16.3,6.6,28,23.4,28.3,41.1c0.3,17.6-10.7,34.9-26.8,42.1"/>
	<path class="st0" d="M1510.4,1622.7c5.4-2.2,11.6-1,16.9,1.4c5.3,2.5,9.9,6.2,14.8,9.3c16.9,10.8,37.8,15.2,57.6,11.9"/>
	<path class="st0" d="M1596.9,1656.2c2.3,10.9-3.1,23-12.8,28.6"/>
	<path class="st0" d="M1636.2,1624.1c-9.5-5.5-20.5-8.4-31.4-8.3c-2.4,0-5.2,0.4-6.4,2.4c-0.8,1.3-0.7,2.8-0.5,4.3
		c0.7,5.2,2.7,10.3,6,14.5"/>
	<path class="st0" d="M1520.8,1729.4c8.5-7.2,19-11.8,29.7-14.7s21.8-4.4,32.9-5.8"/>
	<path class="st0" d="M1580.3,1701.4c-23.8,6.3-45.6,19.8-61.9,38.3"/>
	<path class="st0" d="M1528,1716c-2.4,54.7,13.1,109.7,5.2,163.9c-0.9,6.5-2.3,13.2-6.3,18.5s-11.1,8.7-17.2,6.5"/>
	<path class="st0" d="M1529.7,1792.7c1,29.4-0.2,59-3.5,88.2"/>
	<path class="st0" d="M1559,1758.1c-3.7-2.7-6.7-6.6-7.6-11.1s0.8-9.6,4.7-12.1c3-1.9,6.7-2,10.2-2.4c10.1-1.2,19.8-4.9,28-10.8"/>
	<path class="st0" d="M1549.7,1732.4c20,11.7,45.1,14.5,67.2,7.6"/>
	<path class="st0" d="M1557.1,1729.2c7.3,5.5,16.1,9.1,25.1,10.6c10.1,1.8,20.7,1.1,30.1-3s17.4-11.6,21-21.2"/>
	<path class="st0" d="M1626.4,1725c8.2-16.4,14.6-33.7,19.1-51.4"/>
	<path class="st0" d="M1585.1,1733.9c6.8,1.8,13.7-2.7,18.2-8.1c4.4-5.4,7.5-12,12.6-16.8"/>
	<path class="st0" d="M1576.4,1735.2c29.4-19.5,52.4-48.4,64.7-81.4"/>
	<path class="st0" d="M1611.8,1724.4c11.7-28.7,27.9-55.6,47.9-79.3"/>
	<path class="st0" d="M1647.9,1640.3c1.4-2.7,2.8-5.3,4.2-8"/>
	<path class="st0" d="M1643,1649.8c17.1-34.3,48.8-61,85.5-72.1c10-3,21-4.9,30.9-1.4"/>
	<path class="st0" d="M1651.8,1650c23.5-34.3,63.4-56.8,104.9-59.2"/>
	<path class="st0" d="M1765.3,1586.4c-3.4-6-10.1-9.7-16.9-10.7s-13.8,0.3-20.4,2.3c-22.7,6.8-42.5,21.1-59.1,38
		c-16.6,16.9-30.1,36.4-43.6,55.9"/>
	<path class="st0" d="M1777.7,1576.4c-4.9,8-10.7,15.4-17.2,22.1"/>
	<path class="st0" d="M1768.2,1582c8.9,0.1,17.9,3.1,25,8.5s12.4,13.2,14.9,21.8"/>
	<path class="st0" d="M1607,1609.8c44.6,8.6,87.2,27.2,123.8,54"/>
	<path class="st0" d="M1721.6,1670.6c-33.4,34.7-57.5,78.2-69.2,124.9"/>
	<path class="st0" d="M1631.8,1843.4c25-61.3,56.9-119.7,96.3-172.7c-25,34.6-45.7,72.4-61.4,112.2"/>
	<path class="st0" d="M1709.2,1684.5c-14.2,22.8-28.4,45.6-42.6,68.3"/>
	<path class="st0" d="M1676.9,1636.8c5,6.7,6.7,15.5,6.2,23.8c-0.5,8.4-3.1,16.4-6,24.3c-7.2,19.8-16.4,38.8-27.3,56.8
		c-9.6,15.9-20.8,31.3-26.2,49.1c-5.4,17.8-3.6,39.2,9.8,52.1"/>
	<path class="st0" d="M1661.9,1714.9c-11.4,19.9-24.9,38.9-33.1,60.4c-8.1,21.5-10.2,46.7,1.2,66.7"/>
	<path class="st0" d="M1677.2,1630.7c0,25.2-9,49.6-21,71.7c-12,22.1-27,42.5-40.5,63.7s-25.5,43.9-30.6,68.6
		c-5.1,24.7-2.5,51.7,11.4,72.7"/>
	<path class="st0" d="M1667.7,1686.7c-26.2,29-52.8,58.6-69,94.2c-18.9,41.4-22.5,89.7-9.7,133.4"/>
	<path class="st0" d="M1583.6,1920.8c-5.8-15.7-8-32.7-6.4-49.3"/>
	<path class="st0" d="M1730.4,1665.6c-36.6,36.4-59.7,84-80.8,131.2s-41.2,95.6-73.5,135.9s-79.4,72.2-131,73"/>
	<path class="st0" d="M1485.2,1930.5c-18.5,18.4-34,39.9-45.5,63.4c-1.9,3.8-3.7,8.1-2.7,12.3c1.4,6,7.8,9.2,13.5,11.5"/>
	<path class="st0" d="M1439.8,2016.1c-5-1.4-7.6-7.3-6.9-12.4s3.6-9.7,6.5-13.9c10.5-15.6,20.9-31.1,31.4-46.7"/>
	<path class="st0" d="M1464.8,1963.4c18.9-24.8,31.1-54.2,38.4-84.5c7.4-30.3,10-61.5,11.2-92.7"/>
	<path class="st0" d="M1472.9,1965.8c29.5-63,16.9-140.3,50.3-201.4"/>
	<path class="st0" d="M1503.4,1722.3c-3.8-1.6-8.4,0.1-11.2,3.1c-2.8,3.1-4,7.2-4.5,11.3c-1.5,12.1,2.2,24.1,5.2,35.9
		c2.9,11.8,4.9,24.7,0,35.8"/>
	<path class="st0" d="M1472.2,1746.3c11.2,10.5,19.8,23.8,24.8,38.4"/>
	<path class="st0" d="M1498.9,1721.2c-6.1-1.6-12.8,1.8-16.3,7s-4.2,12-3.2,18.2s3.5,12.1,6,17.9c7.5,17.3,14.9,34.7,22.4,52"/>
	<path class="st0" d="M1496.7,1784.2c4.1,4.6,8.2,9.2,12.4,13.8"/>
	<path class="st0" d="M1526.5,1760.5c-8.3-2.1-17.1-1.6-25.2,1.2"/>
	<path class="st0" d="M1529.3,1735.8c-7.9-3.3-16.8-4.1-25.1-2.2"/>
	<path class="st0" d="M1488.1,1699.5c1.4,5.4,2.8,10.8,4.1,16.2"/>
	<path class="st0" d="M1433.4,1831.7c-8.1,18.8-10.7,39.9-7.4,60.1c0.8,4.6,1.9,9.3,4.7,13.1c2.8,3.8,7.6,6.4,12.2,5.3
		c4.6-1.1,7.6-5.2,10.2-9.2c22.2-33.9,39.6-70.9,51.6-109.7"/>
	<path class="st0" d="M1444.2,1803.9c-10.2,9.6-20,19.7-27.3,31.5c-7.3,11.9-12.1,25.7-11.4,39.6c0.4,6.9,2.4,14.2,7.7,18.6
		c6.5,5.3,16.3,4.9,23.7,1.1c7.4-3.8,13-10.5,18.2-17.1c16.7-21.2,31.6-43.9,43.8-68"/>
	<path class="st0" d="M1485.8,1802.4c-12.9,33.5-34.9,63.6-62.9,86.1c-3.5,2.8-7.4,5.6-11.9,5.5c-6.4-0.1-11.3-6.6-11.9-13
		s2.2-12.6,5.2-18.3c13-24.9,32.2-46.1,51-67"/>
	<path class="st0" d="M1406,1881.5c0.1,4.8,0.3,9.7,1.9,14.3c1.7,4.5,5.2,8.7,9.8,9.8c6.1,1.5,12.2-2.4,17.1-6.3
		c22.9-18.2,40.7-42.7,51-70.1"/>
	<path class="st0" d="M1448.9,2042.2c-0.7,9.4,0.1,18.8,2.5,27.9c-7.1-4.3-10.3-12.7-12.1-20.8c-1.7-8.1-2.4-16.6-6.4-23.8"/>
	<path class="st0" d="M1449.7,2015.6c3.1,12.8,10,24.7,19.7,33.6"/>
	<path class="st0" d="M1456.2,2056.2c43.5-20.9,87-41.8,130.5-62.7"/>
	<path class="st0" d="M1469.9,2047.2c32.5-15.9,65.7-30.3,99.6-43"/>
	<path class="st0" d="M1479.4,2044.7c56.4-9.5,108.7-41.4,143-87.2"/>
	<path class="st0" d="M1611,1963.8c32.2-42.1,51.4-92.5,71.2-141.7s41.3-98.9,76.9-138.3"/>
	<path class="st0" d="M1601.2,1986.1c38.9-41.8,60-96.7,80.2-150.1c20.2-53.4,41.2-108.3,79.9-150.3"/>
	<path class="st0" d="M1648.1,1933.5c8.7-50.6,26.6-99.6,52.4-144"/>
	<path class="st0" d="M1543,1966.6c43.9-30.3,77.5-75.4,94-126.2"/>
	<path class="st0" d="M1760.2,1686.2c-10.7-11.1-23.5-20.3-37.4-27"/>
	<path class="st0" d="M1720.7,1663.9c-15.3-14.3-32.8-26.3-51.6-35.4"/>
	<path class="st0" d="M1737,1679.1c12.3-3.9,24.9-7.9,37.8-7.2c1.7,0.1,3.4,0.3,4.9,1.1s2.5,2.6,2.1,4.2"/>
	<path class="st0" d="M1752.8,1685.9c29.3-1.4,58.6-4.3,87.7-8.9"/>
	<path class="st0" d="M1734.9,1660.6c3.9,12.2,10.5,23.6,19.2,33.1c1.2,1.3,2.8,2.7,4.6,2.4c1.9-0.4,2.8-2.7,2.9-4.6
		c0.2-1.9,0.2-4.1,1.5-5.6"/>
	<path class="st0" d="M1689.5,1724.3c7.8,7.9,16.6,14.9,26.2,20.6"/>
	<path class="st0" d="M1698,1719.8c7.6,4.7,15.1,9.5,22.7,14.2"/>
	<path class="st0" d="M1708.3,1711c6.4,3.8,12.7,7.5,19.1,11.3"/>
	<path class="st0" d="M1706.1,1690.3c10.5,6.8,21,13.5,31.5,20.2"/>
	<path class="st0" d="M1721.2,1683.8c7.3,4.8,14.7,9.7,22,14.5"/>
	<path class="st0" d="M1685.8,1743.2c8.1,6.9,16.3,13.8,24.4,20.7"/>
	<path class="st0" d="M1697.6,1744.4c4.7,3.5,9.4,7,14.1,10.4"/>
	<path class="st0" d="M1679.5,1758.7c8,6.6,16,13.3,24,19.9"/>
	<path class="st0" d="M1623.4,1902.5c18.8-6.5,38.3-11.1,58-13.9"/>
	<path class="st0" d="M1620.6,1919.5c29.3,0.9,58.9-6.1,84.7-20.2"/>
	<path class="st0" d="M1483.9,2042.4c-6.7-7.7-12-16.5-15.8-25.9"/>
	<path class="st0" d="M1472.4,2043.1c-7.5-10.1-13.6-21.2-18-33"/>
	<path class="st0" d="M1494.7,2038.2c-5.2-8.7-9.2-18.1-11.9-27.9"/>
	<path class="st0" d="M1509.1,2033c-4.9-11.7-9.8-23.5-14.7-35.2"/>
	<path class="st0" d="M1525.6,2025.6c-4.8-10-9.7-20.1-14.6-30.1"/>
	<path class="st0" d="M1537,2021.3c-6.6-11-11.6-22.9-14.7-35.4"/>
	<path class="st0" d="M1549.1,2008.3c0.6,0.2,1.1,0.5,1.7,0.7c-4.7-8.3-8.2-17.2-10.7-26.4"/>
	<path class="st0" d="M1560.9,2006.1c-3.6-8.3-6.2-17-7.8-25.9"/>
	<path class="st0" d="M1575.6,1998.9c-2.1-7.8-4.2-15.6-6.3-23.3"/>
	<path class="st0" d="M1587.6,1990.5c-3-7.3-6-14.6-9-21.9"/>
	<path class="st0" d="M1597.9,1982.1c-4.7-8.7-9.4-17.4-14.1-26.1"/>
	<path class="st0" d="M1607.8,1968.3c-6.7-12.6-15.3-24.1-25.5-34.1"/>
	<path class="st0" d="M1445.9,2008.8c29.5,0.1,58-12.3,81.9-29.7c23.9-17.4,43.8-39.5,63.6-61.5"/>
	<path class="st0" d="M1503.3,1935.5c4.2,2.3,9.8,1.2,13.6-1.7c3.9-2.9,6.4-7.3,8.4-11.7c7.5-16.6,8.9-35.7,4.1-53.3"/>
	<path class="st0" d="M1476.3,1910.4c2.1-6.2,8.6-10.2,15.1-11.4c6.5-1.2,13.2-0.3,19.8,0.2c16.1,1.2,32.8-0.6,47.2-7.8
		c14.4-7.2,26.4-20.4,29.5-36.3"/>
	<path class="st0" d="M1480,1890.6c10.1-10.1,25.1-14.9,39.2-12.6"/>
	<path class="st0" d="M1524.6,1876.4c-8.2-5.3-13.5-14.9-13.8-24.7"/>
	<path class="st0" d="M1526.2,1866.6c-4.8-9.4-7.5-19.9-7.9-30.5"/>
	<path class="st0" d="M1494.4,1872c10.4-9.1,23-15.2,34.9-22.2c11.9-7,23.6-15.5,30.3-27.5"/>
	<path class="st0" d="M1495.6,1858.1c4.2-15.5,18.1-26.2,31.6-35c13.4-8.8,28-17.9,34.8-32.4"/>
	<path class="st0" d="M1500.6,1825.2c18.2-20.3,38.1-39,59.3-56"/>
	<path class="st0" d="M1510.3,1802.4c10.6-14,23.7-26.1,38.5-35.5"/>
	<path class="st0" d="M1433.7,1668.7c35.2,9.5,67.9,27.7,94.6,52.4"/>
	<path class="st0" d="M1452.1,1678.9c25.5,6.5,49.3,20,68,38.5"/>
	<path class="st0" d="M1469.1,1677.7c9,4.2,17.6,9.4,25.6,15.3"/>
	<path class="st0" d="M1487.2,1697.5c12.3,5,23.6,12.6,32.9,22.1"/>
	<path class="st0" d="M1692.5,1839.8c15-48.4,37.7-94.3,66.9-135.7"/>
	<path class="st0" d="M1735.5,1766.3c10.9-22.8,25.8-43.6,43.7-61.4"/>
	<path class="st0" d="M1769.5,1730.9c4.6-8.7,9.9-17,15.9-24.8"/>
	<path class="st0" d="M1747.9,1714.9c-15,19.6-27.2,41.4-36.1,64.4"/>
	<path class="st0" d="M1677.6,1768.4c5.8,7.2,12.5,13.6,20,19"/>
	<path class="st0" d="M1674.5,1783.8c7.4,6,14.8,12.1,22.1,18.1"/>
	<path class="st0" d="M1671.2,1793.6c6.7,6.1,13.4,12.2,20.1,18.3"/>
	<path class="st0" d="M1662,1796.5c8.6,8.3,17.2,16.7,25.8,25.1"/>
	<path class="st0" d="M1660.5,1807.6c7.8,7.9,15.6,15.9,23.3,23.9"/>
	<path class="st0" d="M1667.4,1830.4c2.9,3,5.8,6,8.7,9"/>
	<path class="st0" d="M1503.2,1898.8c13.3,1.7,26.9,3.5,40.2,1.2c14.3-2.4,27.9-9.5,38-20"/>
	<path class="st0" d="M1583.5,1803.3c-11.8,41.8-12.8,86.6-2.8,128.9"/>
	<path class="st0" d="M1586.3,1918.8c-6.2-24.4-8.3-49.8-6.1-74.9"/>
	<path class="st0" d="M1601.6,1781.6c14.7-27.4,32.4-53.2,52.9-76.6"/>
</g>
<g id="Right_hand_new">
	<path class="st0" d="M926.1,1162c40-29.8,82.4-56.2,126.7-79.1"/>
	<path class="st0" d="M936.8,1166.7c31.2-30.1,67.3-55,106.6-73.3"/>
	<path class="st0" d="M964.7,1132.1c-6.3-0.2-12,4.6-14.6,10.4s-2.8,12.3-2.6,18.7s0.6,12.8-1,18.9"/>
	<path class="st0" d="M930.1,1155.6c30-21.9,63-39.6,97.8-52.4"/>
	<path class="st0" d="M922.7,1171.2c10.9-7.2,25.7-7.5,37.3-1.7s20.2,17.2,23.7,29.7s2.1,26.2-2.7,38.4
		c-5.1,13.2-13.9,24.5-21.5,36.4c-7.5,11.9-14,25.3-13.6,39.4"/>
	<path class="st0" d="M932.8,1166.6c15.5-0.2,29.9,9.5,38.7,22.3s12.7,28.2,14.9,43.6"/>
	<path class="st0" d="M937.3,1171.6c11.9-0.7,23.5,6.3,30.3,16.1s9.2,22.2,9,34.1s-2.8,23.7-5.5,35.4"/>
	<path class="st0" d="M941.2,1177.8c6-1.8,12.2,1.9,16.8,6c10.7,9.6,18,22.8,20.2,37s-0.5,29.1-7.7,41.4"/>
	<path class="st0" d="M984.5,1213.9c0.2,15.6-8,30-16.1,43.4s-16.7,27.4-17.5,43"/>
	<path class="st0" d="M978.1,1260c-9.1,13.2-16.7,27.4-22.5,42.3c-2.1,5.3-4,11.3-1.8,16.6"/>
	<path class="st0" d="M968,1292.8c92.3-52.8,190-96.1,291.1-129.1"/>
	<path class="st0" d="M1035.7,1256.1c62.9-38.9,131.2-68.9,202.4-88.9"/>
	<path class="st0" d="M974.9,1294.8c69.4-44.1,142.8-81.7,219.1-112.4"/>
	<path class="st0" d="M967.9,1310.4c86.6-62.5,182.8-111.7,284.2-145.3"/>
	<path class="st0" d="M1287.9,1157.1c-115.4,41.9-226.4,95.9-330.5,160.9"/>
	<path class="st0" d="M1080.6,1247.9c-64.3,36.3-121.8,84.3-169,141"/>
	<path class="st0" d="M1044.9,1276.6c3.4-20.1,18.8-37.7,38.2-43.8"/>
	<path class="st0" d="M907.9,1392.6c-0.8-4-4.2-7.1-8.1-8.6s-8-1.7-12.1-2.1c-21-1.8-41.5-7.7-60.4-17"/>
	<path class="st0" d="M815.3,1365.8c30.8,6.7,60.8,16.6,89.5,29.5"/>
	<path class="st0" d="M933.1,1036.1c-3.5,21-3.7,42.6-0.5,63.7"/>
	<path class="st0" d="M933.4,1065.3c-6.3,36.6-2.2,74.1-5.5,111.1c-3.9,44.2-18.4,87.2-18.4,131.5c0,6.8,1.1,14.8,7,17.9
		c4.2,2.2,9.5,1.1,13.4-1.6s6.7-6.6,10.2-10.2c-2.7-0.5-5.3-1.1-8-1.6"/>
	<path class="st0" d="M932.2,1304.4c0.6-1.3,2-2.1,3.1-3.1c1.1-1,1.8-2.8,0.8-3.9c-0.6-0.7-1.8-0.8-2.7-0.4
		c-0.9,0.4-1.6,1.1-2.2,1.8c-5.4,5.9-10.1,12.5-14,19.5"/>
	<path class="st0" d="M918.5,1322.8c-1.2,6.3-0.8,12.7-1,19.1c-0.2,6.4-1,13-4.3,18.4s-9.5,9.6-15.9,8.6"/>
	<path class="st0" d="M912.4,1364.2c8.4-18.7,6.8-40.2,4.4-60.5s-5.7-41.2-0.2-61"/>
	<path class="st0" d="M938.8,1035.4c-5.4,87.4-5,175.2,1,262.6"/>
	<path class="st0" d="M923.3,1330.5c0.5-43.9,3.2-87.8,5.5-132.1c-7,35.2-11.7,70.9-14.1,106.7"/>
	<path class="st0" d="M929.1,1274.2c0.1,25.3,0.2,50.7,0.2,76.1"/>
	<path class="st0" d="M937.4,1022c-2.2,26.9-4.4,53.8-6.7,80.7"/>
	<path class="st0" d="M933.3,1118.1c-0.2,30.7-0.5,61.5-0.7,92.2"/>
	<path class="st0" d="M926.2,1148.7c-1.2,27.5-4.3,55-9.4,82.1"/>
	<path class="st0" d="M823.9,1364.3c36.7-8.4,72.5-20.4,106.8-35.9"/>
	<path class="st0" d="M835.4,1363.6c16.7-5.8,33.3-11.6,50-17.4"/>
	<path class="st0" d="M850.2,1364c23.8-8.5,47.6-17.1,71.4-25.6"/>
	<path class="st0" d="M921.4,1343.9c-20.3,5.6-40.5,11.3-60.8,16.9"/>
	<path class="st0" d="M881.5,1355c-22.2,7-44.4,14-66.6,21.1"/>
	<path class="st0" d="M839.3,1362.4c-46.6,13.6-92.7,28.7-138.2,45.4"/>
	<path class="st0" d="M828.1,1362.2c-87.9,26.7-174.7,57.2-260,91.3"/>
	<path class="st0" d="M812.7,1370.8c-30.5,9.2-60.6,19.4-90.3,30.9"/>
	<path class="st0" d="M695.5,1409.3c-27.5,10.7-55.1,21.4-82.7,32.1"/>
	<path class="st0" d="M640,1425.7c-24.3,6.9-48.6,13.7-73,20.6"/>
	<path class="st0" d="M621,1436.6c-29.6,10.9-59.2,21.9-88.8,32.8"/>
	<path class="st0" d="M675.3,1382.2c28.8,8.1,57.6,16.2,86.4,24.4"/>
	<path class="st0" d="M668.1,1392.9c36.1,10.8,72.2,21.5,108.4,32.2c-1.6,0.4-3.2,0.7-4.8,1.1"/>
	<path class="st0" d="M641.8,1394.1c20.6-0.4,41.2,3.2,60.5,10.4"/>
	<path class="st0" d="M621.3,1397.8c67.7,15,134.9,32.8,201.2,53.2"/>
	<path class="st0" d="M645,1397.4c-0.1,1.5,0.9,2.8,2.1,3.6c1.2,0.8,2.7,1.1,4.1,1.5c6.2,1.4,12.3,2.8,18.4,4.2"/>
	<path class="st0" d="M644.3,1390.1c12.3,2.2,24.4,5.3,36.1,9.4"/>
	<path class="st0" d="M555.1,1431c12.4,10.8,24.8,21.6,37.1,32.4"/>
	<path class="st0" d="M550.9,1434.4c6.6,0.9,11.8,5.8,16.4,10.5c7.7,7.9,15.1,16,23.4,26.7c-38.6-78.6-93.6-149.5-121.6-232.5"/>
	<path class="st0" d="M584.9,1442.1c-42.4-65.2-80.7-133.1-115.8-202.6c42.3-29.3,87-55.2,133.4-77.3"/>
	<path class="st0" d="M476.3,1236.9c38.5-29.2,81.4-52.7,126.8-69.3"/>
	<path class="st0" d="M488.9,1241c32.7-27.9,70.3-50.1,110.5-65.2"/>
	<path class="st0" d="M489,1247.8c30.2-29.9,66.2-53.9,105.4-70.2"/>
	<path class="st0" d="M513.8,1248c29.8-18.2,57.6-39.5,82.9-63.5"/>
	<path class="st0" d="M586.6,1187.4c-26.6,23.6-53.8,46.3-81.8,68.2"/>
	<path class="st0" d="M512.6,1279.2c-1-4.1,0.1-8.6,2.3-12.2s5.2-6.7,8.2-9.7c12.1-12,24.1-23.9,36.2-35.9"/>
	<path class="st0" d="M511.5,1290.3c12.2-26.8,31.7-50.1,55.9-66.9"/>
	<path class="st0" d="M596.4,1200.5c-10.9,9.5-20.7,20.4-29.1,32.2"/>
	<path class="st0" d="M715,1056.4c-1.3,11.8-2.5,24.3,2.9,34.9c6.3,12.3,19.8,18.8,32.4,24.4"/>
	<path class="st0" d="M694,1055.8c11.3,7.1,18.3,19.2,24.2,31.2c5.8,12,11.2,24.6,20.5,34.1"/>
	<path class="st0" d="M794.5,1103.4c-21.6-20.2-36.8-47.1-39.9-72.6c15.2,27.3,34.2,52.5,56.1,74.7"/>
	<path class="st0" d="M790.6,1112.6c-10.9,3.3-22.1,5.8-33.3,7.5"/>
	<path class="st0" d="M746.8,1116.7c-4,2.7-6.7,7.1-7.5,11.8c-0.7,4.7,0.6,9.8,3.5,13.5c2.5,3.1,5.9,5.3,8.5,8.4
		c5,5.9,6,14.1,6.8,21.7"/>
	<path class="st0" d="M740.7,1139.8c6,15.2,11.1,30.8,15.5,46.5"/>
	<path class="st0" d="M742.8,1188.5c18.1-8.6,39-11.1,58.6-7"/>
	<path class="st0" d="M808.1,1175.4c-5.8-22.5-6.8-46.3-2.9-69.2"/>
	<path class="st0" d="M808.8,1102.1c-0.1,5.9-1,11.7-2.7,17.3"/>
	<path class="st0" d="M749.8,1186.7c18.7-7.9,39.7-10.3,59.6-6.7"/>
	<path class="st0" d="M760,1164.5c-6.1,10.1-11,20.9-14.6,32.2"/>
	<path class="st0" d="M751.8,1193.3c14.2,1,28.8,1.9,42.3-2.6s25.8-15.6,27.3-29.7"/>
	<path class="st0" d="M813.4,1173.5c-6.4-21.7-8.4-44.7-6-67.2"/>
	<path class="st0" d="M733.6,1158.6c-35.9,10.7-71.8,21.3-108,31"/>
	<path class="st0" d="M728,1174.8c-34.9,12.6-73.7,13.8-109.3,3.4"/>
	<path class="st0" d="M740.7,1219c-22.9-35.2-45-71-67.6-104.6C688.2,1149.8,709.2,1182.8,740.7,1219z"/>
	<path class="st0" d="M713.7,1124.4c-23.4,10.6-48.4,17.6-73.9,20.5"/>
	<path class="st0" d="M636.2,1117.2c-6.9,11.3-5.5,26.1,0.2,38.1c5.7,11.9,15,21.7,24.2,31.2s18.4,19.4,23.7,31.5"/>
	<path class="st0" d="M684.2,1209.4c20.7,12.7,48.7,12.4,69.1-0.8"/>
	<path class="st0" d="M632.5,1112.1c-2.4,10.7-9.1,19.8-14.3,29.5c-5.2,9.7-8.8,21.4-4.5,31.5"/>
	<path class="st0" d="M606.4,1158.9c6,24.6,24,46,47.3,56.1"/>
	<path class="st0" d="M640.8,1212.1c15.9-4,33.1-2.7,48.2,3.6"/>
	<path class="st0" d="M628.9,1130.4c-1.6,8.9-1.6,18.4,2.5,26.5c4.8,9.6,14.6,15.6,23.5,21.7c8.9,6.1,18,13.6,20.3,24.1"/>
	<path class="st0" d="M639.7,1125.2c4.7-13.4,11.6-25.9,20.3-37.1c5.1-6.5,11-12.7,18.7-15.6c12.1-4.6,25.5-0.4,37.7,3.8"/>
	<path class="st0" d="M688.5,1075.1c-4.4-1.8-8.9-3.7-13.6-4.2c-4.7-0.6-9.8,0.3-13.5,3.5c-3.8,3.3-5.3,8.3-6.7,13.1
		c-3.6,12.6-7.2,25.2-10.8,37.9"/>
	<path class="st0" d="M586.2,1169c14.7-14.2,29.3-28.5,44-42.7"/>
	<path class="st0" d="M600.4,1172c6.8-16,15.5-31.1,25.8-45.1"/>
	<path class="st0" d="M596.1,1158.3c10.8-15.3,19.1-32.7,32.5-45.8c4.8-4.6,10.4-8.8,16.9-10c6.5-1.2,14.1,1.1,17.4,6.8"/>
	<path class="st0" d="M678.8,1130.4c15.3,28,20.1,62.1,41.6,85.7"/>
	<path class="st0" d="M653.3,1210.1c9.7-0.8,19.2,2.3,28.3,5.9s18,7.8,27.6,9.1s20.3-0.7,27-7.7"/>
	<path class="st0" d="M727.2,1222.8c7.5-1.8,14.3-6.3,19-12.4c4.7-6.1,7.3-13.8,7.2-21.5"/>
	<path class="st0" d="M728.3,1211.3c-11.9-12.2-21-27-26.5-43.2"/>
	<path class="st0" d="M665.2,1179.9c23.6-2.3,46.8-8.3,68.5-17.7"/>
	<path class="st0" d="M636.7,1143.5c32.2-3.3,63.2-16.7,87.7-37.8"/>
	<path class="st0" d="M628.7,1134.9c3.4,14.2,10.5,27.5,20.4,38.3"/>
	<path class="st0" d="M692.8,1068c2.5-13.7,11.6-26.1,23.9-32.5s27.7-6.8,40.3-0.9"/>
	<path class="st0" d="M755.7,1021.2c-14.2-0.9-28.6,2.9-40.6,10.6s-21.4,19.3-26.5,32.5"/>
	<path class="st0" d="M747.6,1023c-17.1-5.1-37.1,1.3-48.1,15.3c-3.3,4.3-6,9.6-4.9,14.9"/>
	<path class="st0" d="M762.5,1047.5c10.3,23.2,24.6,44.7,42.1,63.2"/>
	<path class="st0" d="M749.2,1126.7c13.5-6.7,28.2-11.2,43.1-13.4"/>
	<path class="st0" d="M791.9,1080.4c-3.8-14.7-1-30.9,7.4-43.5"/>
	<path class="st0" d="M783.4,1076.9c0-16.2,3.8-32.3,10.2-43.8c3-3.7,8-5.2,12.7-5.1s9.4,1.4,14,2.2c10.1,1.9,20.5,1.7,33.8,0.5
		c-7.6,6-13.3,14.3-16.1,23.6"/>
	<path class="st0" d="M781.4,1084.9c31.8-17.8,66.4-30.6,102.1-37.8"/>
	<path class="st0" d="M770.8,1089.4c17.1-15,39.3-22.6,60.8-29.9c33.7-11.4,67.7-22.8,103-26.9"/>
	<path class="st0" d="M791.4,1069.2c40.2-15.7,82.2-26.9,124.8-33.4"/>
	<path class="st0" d="M839.1,1060.2c26-9.3,53-16.1,80.3-20.3"/>
	<path class="st0" d="M814.5,1228.7c6.4-0.8,13-1.6,19.1,0.2c6.2,1.8,11.8,7,12.1,13.4c0.3,6.5-4.8,11.9-9.7,16.1
		c-22.5,18.9-50.6,29.6-78.7,38c-21.1,6.3-42.6,11.6-64.3,15.7c-12.7,2.4-26.1,4.4-38.5,0.9c-7.2-2.1-14.7-7.3-14.8-14.8
		c-0.1-5.2,3.4-9.7,6.9-13.5c17.6-19.3,39.6-34.1,62.9-45.8c23.3-11.7,48-20.4,72.8-28.7c9.8-3.3,19.7-6.5,30-7.2s21.1,1.6,29,8.1
		s12.2,18.1,8.5,27.7c-2.8,7.1-9.1,12.1-15.3,16.4c-54,38.3-118.2,62.2-184.1,68.6c-8.7,0.8-19.4,0.4-23.6-7.3
		c-2.2-4.1-1.7-9.3,0.2-13.5c2-4.2,5.2-7.8,8.5-11.1c43.8-45.1,102.1-75.6,163.9-87c8.8-1.6,17.9-2.8,26.6-0.7s16.8,8.6,18.6,17.4
		c1.4,6.8-1.2,13.8-4.3,20c-16.5,33.4-48.1,58-83.3,70.2c-35.2,12.2-73.6,12.9-110.4,6.9c-5.2-0.9-10.5-1.9-15.2-4.3
		s-8.8-6.5-10.1-11.6c-2-7.8,2.8-15.7,8.1-21.8c19.1-22.2,46.2-35.6,73.1-47.1c37.8-16.2,78.3-29.9,119.2-25.7
		c5.7,0.6,11.4,1.5,16.5,4s9.6,6.8,11.2,12.2c2.3,7.8-1.5,16-5.9,22.9c-14.5,22.9-36.1,41.1-60.7,52.3s-52.2,15.8-79.3,13.9
		c44.5,4.7,92.5-4.7,125.5-34.9"/>
	<path class="st0" d="M837.6,1247.1c1.4-8.6,2.1-19-4.7-24.4c-3.9-3.2-9.4-3.7-14.4-3.9c-48.3-2.2-97.1,7.8-140.6,28.8
		c-13.8,6.7-27.3,14.6-38.2,25.4c-5.2,5.2-9.9,11.3-11.6,18.4c-2.3,9.9,1.7,20.5,8.5,28.1c10.8,12.2,27.8,17.4,44,17.3
		s32.1-5,47.4-10.4c33.7-11.8,67.1-26.4,94.2-49.8c7.5-6.4,14.5-13.6,18.8-22.4s5.7-19.5,1.7-28.5s-14.1-15.4-23.8-13.4"/>
	<path class="st0" d="M492.4,1263.6c22.6-31.4,52.7-57.4,87-75.3"/>
	<path class="st0" d="M577.8,1219.8c8.2-10.9,17.1-21.1,32.2-30.8c-1.2,2.3-2.5,4.6-3.8,6.9"/>
	<path class="st0" d="M550,1245.1c-12.5,15.1-24,31-33.4,48.1c-2.1,3.9-4.2,8-4.5,12.4c-0.3,4.4,1.6,9.3,5.6,11.2"/>
	<path class="st0" d="M501.8,1277.4c0.8-6.6,3.8-12.9,8.3-17.8"/>
	<path class="st0" d="M654.9,1375.1c-0.1,2.3,1.2,4.4,2.8,5.9s3.7,2.5,5.8,3.4c10.3,4.5,21.2,7.6,32.3,9.1"/>
	<path class="st0" d="M623.1,1140.8c0.6,12.6,7,24.7,17.1,32.3"/>
	<path class="st0" d="M686.8,1211.7c-2.3-4.6-4.6-9.1-7-13.7"/>
	<path class="st0" d="M672,1106c9.4,14.2,18.8,28.5,28.2,42.7"/>
	<path class="st0" d="M710.7,1161.4c6.8,12.3,13.7,24.6,20.6,37"/>
	<path class="st0" d="M697.8,1064.9c8.3,17,19.7,32.4,33.3,45.4"/>
	<path class="st0" d="M737.7,1113.6c-6.2,22.1,2.8,47.6,21.4,61"/>
	<path class="st0" d="M757.3,1160.4c-8.1,9.1-10.9,22.6-3.2,33.2c20,1.3,40.4-2.9,58.2-12"/>
</g>
<g id="Left_arm_new">
	<path class="st0" d="M1579.6,784.5c0.2,4,0.3,8.1-1,11.8s-4.7,7-8.7,7.1c-6,0.1-9.8-7.4-8.3-13.3s6.3-10.1,11-14
		c44.1-36.4,93.1-66.4,141.9-96.3"/>
	<path class="st0" d="M1574.7,787.7c-2.2,4.3-5.8,8-10,10.3c-1,0.5-2.2,1-3.3,0.7c-1.4-0.5-2-2.2-1.8-3.6c0.2-1.4,1.2-2.7,2.1-3.8
		c11.8-15.2,25.6-29,40.8-40.8"/>
	<path class="st0" d="M1572.6,772.1c45.1-28.6,90.2-57.2,135.3-85.8"/>
	<path class="st0" d="M1598.2,779.8c41.3-44.1,87.9-83.2,138.5-116.2"/>
	<path class="st0" d="M1568.9,826c-6,30.8-7.2,62.5-3.3,93.6"/>
	<path class="st0" d="M1564.7,836c-2.7,13.2-5.3,26.4-5.8,39.8s1.5,27.2,7.6,39.1"/>
	<path class="st0" d="M1550.4,878.9c3.8,10.7,7.6,21.5,11.4,32.2"/>
	<path class="st0" d="M1671,769.9c10-7.7,18.6-17,26.7-26.6c2.6-3.1,5.2-6.4,5.5-10.4s-2.9-8.5-6.9-7.8"/>
	<path class="st0" d="M1716.1,644.9c4.3,24.7,2.1,50.5-6.2,74.1"/>
	<path class="st0" d="M1725.8,639.9c-1.4,23.9-5.7,47.6-12.5,70.5"/>
	<path class="st0" d="M1708.1,676.1c25-50.6,59.1-96.6,100.2-135.2"/>
	<path class="st0" d="M1730.1,649.5c7.2-23.1,17.9-45.1,31.4-65.2"/>
	<path class="st0" d="M1746.4,630.4c-7.3,15.5-10.7,33-9.5,50.1c0.7,10,2.8,20,1.1,29.8s-8.9,19.7-18.9,20.3"/>
	<path class="st0" d="M1752.5,660.2c-3-1.4-4.9-4.5-5.6-7.7s-0.4-6.5,0.1-9.8c1.7-10.8,5.6-21.2,11.3-30.6"/>
	<path class="st0" d="M1756.3,617.3c22.2-46.8,65.7-82.9,115.8-96.1"/>
	<path class="st0" d="M1775.4,608.2c1.1-18.3,13.3-34.1,27.1-46.1c25.5-22.1,58.5-35.5,92.2-37.3"/>
	<path class="st0" d="M1799.5,554.1c26-19.2,56.6-32.2,88.4-37.5"/>
	<path class="st0" d="M1793.9,552.1c7.6-8.8,16.8-16.2,27-21.7"/>
	<path class="st0" d="M1826.8,524.3c45.2-10.3,91.8-14.5,138.1-12.4"/>
	<path class="st0" d="M1874.2,521.5c25.2-5.5,51-8.1,76.8-7.9"/>
	<path class="st0" d="M1867,528.3c52.4-12.8,107.4-14.5,160.5-5"/>
	<path class="st0" d="M1974.1,512c26.2,1,52.2,4.6,77.6,10.8"/>
	<path class="st0" d="M2032.7,528.7c15.7,0.5,31.2,4.7,44.9,12.3"/>
	<path class="st0" d="M2087.6,540.6c-6.7-8.1-16.9-13.2-27.4-13.7"/>
	<path class="st0" d="M2040,669.4c-14.2-5.2-29.5-11.5-36.7-24.8c-4.7-8.6-5.1-19.2-2.5-28.7s7.8-18.1,13.8-25.8
		c20.5-26.3,51.2-44.5,84.1-49.8"/>
	<path class="st0" d="M2100.5,546c-23.1,6-45.9,14-65.8,27c-19.9,13-36.9,31.6-44.7,54.1"/>
	<path class="st0" d="M2085.9,545.4c-11.2,3.3-22,8.1-31.9,14.4"/>
	<path class="st0" d="M2007.1,587.7c13.7-20.3,34.3-35.7,56.2-46.6c-19.7,2-38.4,11.6-51.6,26.4"/>
	<path class="st0" d="M1991.5,647.6c1.4,6.9,5.4,13.2,11,17.4c4,3,9.4,6,9.3,11c0,4.1-3.8,7.1-7.5,8.9c-11,5.6-23.6,6.7-35.9,7.7"/>
	<path class="st0" d="M2107.3,595.8c-27.3,11.4-55.3,20.8-85.8,30.1C2051.1,620.4,2080.1,611.5,2107.3,595.8z"/>
	<path class="st0" d="M2037.1,601.1c21.2-5.5,42.3-11,63.5-16.6"/>
	<path class="st0" d="M2050.1,584.1c16.7-6.1,33.8-11.3,51.1-15.5"/>
	<path class="st0" d="M2049.1,577.2c14.9-4.6,30-8.5,45.2-11.5"/>
	<path class="st0" d="M2044.7,637.6c18.2-6.5,36-13.9,53.5-22.2"/>
	<path class="st0" d="M2106.3,614.3c-17.3,9.6-35.7,17.2-54.7,22.7"/>
	<path class="st0" d="M2028.1,651c27.1-6.4,53.9-14.1,80.3-23.2"/>
	<path class="st0" d="M2054.4,646.9c15.4-4.1,30.7-8.2,46.1-12.2"/>
	<path class="st0" d="M2038.1,664.7c19.8-4.9,39.6-9.7,59.3-14.6"/>
	<path class="st0" d="M2044.7,666.5c17.4-4.2,34.8-8.5,52.2-12.7"/>
	<path class="st0" d="M2096.7,554.8c-22.4,5-44,14-63.3,26.3"/>
	<path class="st0" d="M2097.9,551c-13.4,3.2-26.5,8.3-38.6,14.9"/>
	<path class="st0" d="M2115.1,645c-26.9-65.2-19.5-143.4,19.1-202.4"/>
	<path class="st0" d="M2108.2,614.6c-8.6-37.9-8.3-77.8,1.1-115.4"/>
	<path class="st0" d="M2108.4,624.7c-7.9,25.4-14.7,51.2-20.2,77.3"/>
	<path class="st0" d="M2092.5,659.1c2.8,23.2-2.8,47.2-15.3,66.9"/>
	<path class="st0" d="M2131.8,674.3c7.8,12.1,8.2,27.7,4.5,41.6c-3.7,13.9-11.2,26.4-18.6,38.7"/>
	<path class="st0" d="M2137.8,667.1c8.7,6.8,12.5,18.4,12.3,29.5s-3.7,21.7-7.2,32.2"/>
	<path class="st0" d="M2130.1,737.7c15.7-18.2,36.3-31.7,58.1-41.8c21.8-10.2,44.9-17.2,67.9-24.2"/>
	<path class="st0" d="M2143,725.1c17.6-12.6,36-23.9,55.2-33.9"/>
	<path class="st0" d="M2211.1,688.3c14.6-4.6,29.1-9.2,43.7-13.7"/>
	<path class="st0" d="M2225.6,692.3c21.6-6,41.4-18.3,56.5-34.9c5.2-5.7,9.9-12,12-19.4c3.7-12.4-0.3-25.6-4.2-38s-7.7-25.7-3.8-38"
		/>
	<path class="st0" d="M2150.3,567.5c22.3,1.3,43.7,14,55.4,33.1s13.4,43.9,4.4,64.4"/>
	<path class="st0" d="M2154.6,560c18.9,6.1,35.5,19.1,45.9,36s14.6,37.5,11.6,57.2"/>
	<path class="st0" d="M2182.9,563.7c15.3,11.7,24.7,30.7,24.9,50"/>
	<path class="st0" d="M2126.8,716.5c-9.1-5.3-20-7.4-30.4-5.8s-20.2,6.9-23.9,11.3c-21.9,23.3-42.7,47.6-62.2,72.9
		c-4.2,5.4-8.5,12.1-6.3,18.5c2.4,6.8,10.7,9.1,17.9,9.4c21.2,0.9,41.7-7.9,60.3-18.1c11.3-6.2,22.4-13,31.6-21.9
		c9.3-8.9,16.7-20.2,19.4-32.8S2135.1,721.3,2126.8,716.5z"/>
	<path class="st0" d="M2134.6,760.2c7.2-13,5.6-30.4-3.9-41.9"/>
	<path class="st0" d="M2115.7,710.7c-7.8-4.3-17.5-5.2-26-2.2"/>
	<path class="st0" d="M2130.6,720.7c4.7,13.7,3.9,29.3-2.3,42.4s-17.5,23.7-31.1,28.9"/>
	<path class="st0" d="M2086.2,710.7c-5.1,11.9-11.1,23.5-17.7,34.7"/>
	<path class="st0" d="M2097.5,787.6c14.7-10.5,26.8-24.7,34.8-40.9"/>
	<path class="st0" d="M2111.2,752.9c16.3-19,37-34.2,59.9-44.2"/>
	<path class="st0" d="M2007.1,807.7c19.7-33.8,45.7-63.9,76.2-88.3"/>
	<path class="st0" d="M2010.4,816.4c31,0,62-10.3,86.9-28.7"/>
	<path class="st0" d="M2091.3,667.3C1925.6,720.1,1767.8,797.8,1625,897"/>
	<path class="st0" d="M2074.4,672.6c-43.6,8.8-86.2,22-122.6,40.5c-57,24.2-111,55.2-160.7,92"/>
	<path class="st0" d="M1888.9,750.2c-44.7,16.7-87.7,37.6-128.4,62.3"/>
	<path class="st0" d="M1861.9,756.8c-53.1,22-103.3,51-148.9,85.8"/>
	<path class="st0" d="M1757.9,813.4c-41.9,23-82.2,49-120.4,77.7"/>
	<path class="st0" d="M1647.1,871.7c-12.1,11.1-24.1,22.2-36.1,33.3"/>
	<path class="st0" d="M1638.3,888.1c-6.8,6.5-13.7,13-20.5,19.5"/>
	<path class="st0" d="M1607.8,905.5c8-10.9,18.5-19.8,30.5-25.9"/>
	<path class="st0" d="M1602.1,905.1c7-9.3,15.7-17.3,25.5-23.6"/>
	<path class="st0" d="M1621.2,909.4c-8.4-3.9-17.1-6.9-26.1-9.1c-3.5-0.8-7-1.6-10.2-3.1c-3.2-1.5-6.2-4-7.5-7.3
		c-1.3-3.3-0.6-7.6,2.3-9.7"/>
	<path class="st0" d="M1573.8,882.8c-1,4.5,2.4,8.9,6.4,10.9s8.8,2.4,13.2,3.1c12.8,2.1,25,8.1,34.6,16.9"/>
	<path class="st0" d="M1610.5,911.3c10.6-10.7,22.3-20.4,34.8-28.7"/>
	<path class="st0" d="M1618,902.8c5.9-9.1,14.2-16.6,23.9-21.5"/>
	<path class="st0" d="M1789,802.3c16.6-14.8,35.4-27.3,55.6-36.8"/>
	<path class="st0" d="M1961.3,709.1c41.4-17.9,84.5-31.8,128.6-41.4"/>
	<path class="st0" d="M2329.9,321.8c-12.2,27.1-28.1,52.5-47,75.5"/>
	<path class="st0" d="M2275.4,407.6c-14,19.9-26.5,40.8-37.4,62.5"/>
	<path class="st0" d="M2215.3,389.5c-7.4,23.5-16.1,46.6-26,69.2"/>
	<path class="st0" d="M2131,448.1c-13.1,13.1-21.6,30.8-23.6,49.2"/>
	<path class="st0" d="M2126.1,449.8c39-64,58.4-137.6,78.5-209.5c3.5-2.2,8.1-1.8,11.8,0.2s6.3,5.2,8.6,8.7
		c12.2,18.5,12.9,42.7,6.8,64c-6.1,21.3-18.3,40.2-30.6,58.5"/>
	<path class="st0" d="M2230.1,324.5c-12.5,44.3-28.5,87.6-47.8,129.5"/>
	<path class="st0" d="M2191.1,376.2c20.2-9.2,35.4-28.9,39.1-50.9"/>
	<path class="st0" d="M2196.5,379.8c17.9-14,30.3-34.9,33.9-57.3"/>
	<path class="st0" d="M2203.3,371.2c21.9-22.2,34.3-53.5,33.3-84.7"/>
	<path class="st0" d="M2215.9,373.1c-11.2,31.4-22.5,62.8-33.8,94.3"/>
	<path class="st0" d="M2155.3,473.3c16.1-9.9,38.4-8.4,53.1,3.4"/>
	<path class="st0" d="M2160.6,476.4c8.4-7.2,19.6-11,30.7-10.6c11.1,0.5,21.9,5.3,29.6,13.2"/>
	<path class="st0" d="M2155,479.8c16.1-9.6,37.1-10.7,54.1-2.7"/>
	<path class="st0" d="M2132.7,464.1c12.2-33.5,24.4-67.1,36.6-100.7"/>
	<path class="st0" d="M2334.4,220.5c-24.3,25.9-40.8,57.9-58.3,88.8c-17.6,30.9-37.1,61.7-65.5,83.1"/>
	<path class="st0" d="M2207.2,399.5c52.7-43.6,76.8-112.8,121.5-164.5"/>
	<path class="st0" d="M2330.8,221.1c8.1-4.1,18.2-4.3,26.4-0.4s14.5,11.8,16.4,20.7"/>
	<path class="st0" d="M2370.1,234.8c-4.2,39.5-26.9,76.7-60.1,98.6"/>
	<path class="st0" d="M2356.5,285.7c-8.9,17.8-21.7,33.7-37.1,46.3"/>
	<path class="st0" d="M2338.3,319.4c-16.4,23.5-32.8,47.1-49.2,70.7"/>
	<path class="st0" d="M2238.8,456.9c11.4-17.4,23.9-34.1,37.2-50"/>
	<path class="st0" d="M2205.1,445.7c6.7,12.9,19.5,22.4,33.7,25.1"/>
	<path class="st0" d="M2245.8,476.7c10.9,6.8,21.9,13.5,32.8,20.3"/>
	<path class="st0" d="M2261.9,465.9c31.9-22,58.3-51.8,76.2-86.1"/>
	<path class="st0" d="M2268.6,472.1c32.1-21.1,59-50.3,77.4-84.1"/>
	<path class="st0" d="M2364.8,263.1c3.9,0.8,6.9,4.1,8.4,7.9s1.5,7.8,1.4,11.8c-0.6,41-12.6,81.9-34.3,116.7"/>
	<path class="st0" d="M2373.9,297.9c-2.5,23.2-12.2,45.5-27.5,63.1"/>
	<path class="st0" d="M2261.1,477.4c35.6-8.5,70.3-20.3,103.7-35.1"/>
	<path class="st0" d="M2451.4,395.6c-34.6,21.2-71.2,39.2-109.1,53.5"/>
	<path class="st0" d="M2449.4,403.8c-60.1,36.1-125.9,62.6-194.1,78.1"/>
	<path class="st0" d="M2455,401.4c2.4,3.9,2.7,8.8,1.8,13.2c-0.9,4.5-2.9,8.6-5.1,12.6c-17.5,31.4-48.2,55-83,64"/>
	<path class="st0" d="M2427.5,456.6c5.8-6.4,13.1-11.3,19.7-16.9s12.8-12.2,15.4-20.5c2.6-8.3,0.7-18.4-6.4-23.5"/>
	<path class="st0" d="M2456.1,400.4c-21.7,10.3-42.6,22.3-62.4,35.9"/>
	<path class="st0" d="M2379.1,494.8c-15.2-0.4-30.6-0.1-45.2,3.8s-28.7,12.1-37.1,24.7"/>
	<path class="st0" d="M2390.5,491.4c-8.9,5.5-19.5,7.5-29.9,8.3c-10.4,0.8-21,0.6-31.3,2.3c-10.3,1.7-20.7,5.5-28,13"/>
	<path class="st0" d="M2274.4,494.3c7.4,5.5,17.1,7.8,26.1,6"/>
	<path class="st0" d="M2299.1,492.4c-5.3,1.3-10.6,2.6-16,3s-11-0.1-16-2.4"/>
	<path class="st0" d="M2308.2,521.7c-7.7-10.8-17.8-19.9-29.3-26.5"/>
	<path class="st0" d="M2304.4,522.4c-7.3-0.2-13.1-5.9-17.6-11.6c-4.6-5.7-9.3-12-16.3-13.9c-5.7-1.6-11.9,0.1-16.9,3.3
		c-5,3.1-9,7.6-13,12"/>
	<path class="st0" d="M2288.8,500.3c-11.7,3.6-23.2,7.8-34.4,12.6"/>
	<path class="st0" d="M2308.4,512.6c-0.5,20.6-9.4,40.9-24.2,55.3"/>
	<path class="st0" d="M2284.1,576.6c9.1-6.2,14.3-16.8,17.1-27.5c2.8-10.7,3.7-21.8,9.1-33.2c2.6,12.2,1.1,25.2-4.2,36.5
		C2300.7,563.7,2291.6,573.1,2284.1,576.6z"/>
	<path class="st0" d="M2125.6,574.9c11-6.6,23.1-11.6,35.5-14.7"/>
	<path class="st0" d="M2149.3,565.2c19.2-14.6,43.3-22.5,67.4-22.2c24.1,0.3,48,8.9,68.7,19.4c-20.6-8-42.5-12.6-64.6-13.5"/>
	<path class="st0" d="M2281.3,559.3c-24.1-6-48.8-11.4-73.6-10.3c-24.8,1.1-50.3,9.5-67.3,27.6"/>
</g>
</svg>
