<?xml version="1.0" encoding="utf-8"?>
<!-- Generator: Adobe Illustrator 27.5.0, SVG Export Plug-In . SVG Version: 6.00 Build 0)  -->
<svg version="1.1" id="Layer_1" xmlns="http://www.w3.org/2000/svg" xmlns:xlink="http://www.w3.org/1999/xlink" x="0px" y="0px"
	 viewBox="0 0 2780 2610" style="enable-background:new 0 0 2780 2610;" xml:space="preserve">
<style type="text/css">
	.st0{fill:none;stroke:#000000;stroke-width:2;stroke-miterlimit:10;}
</style>
<g id="Body">
	<path class="st0" d="M1029.5,880.3c-7.1-13-1.1-29,6-42c18.8-34.7,45.1-65.3,76.4-89.3"/>
	<path class="st0" d="M1061.4,934.9c-14.1-15-24.6-33.3-30.3-53.1"/>
	<path class="st0" d="M1068.5,936.9c19.9-5,40.5-10.3,56.7-22.9c23.7-18.4,34.4-50.3,32-80.2s-16.3-57.9-34.3-82"/>
	<path class="st0" d="M1280.9,850.9c4.9-32.9,8-66.8-0.3-99c-8.3-32.2-29.8-62.6-61.2-73.7c-18.4-6.5-38.6-5.9-58-4.2
		c-27.5,2.5-54.9,7.2-81.6,14.1c-14.6,3.8-29.5,8.4-41.3,17.8c-15.4,12.3-23.7,31.3-29.5,50.1c-26.8,86-13.2,180.5,19.4,264.5"/>
	<path class="st0" d="M1249.5,742c21.5-2.9,43.3-3.9,64.9-3.1"/>
	<path class="st0" d="M1253.5,752.8c28.2-6.5,57.3-8.6,86.1-6.2"/>
	<path class="st0" d="M1024.9,1020.3c9.8,5.8,19.6,11.6,29.3,17.4"/>
	<path class="st0" d="M1195.4,975c-25,4-49.1,13-71.9,24s-44.4,24.4-66.1,37.6"/>
	<path class="st0" d="M1191.3,983c13.4-24.5,23.6-50.7,30.1-77.8"/>
	<path class="st0" d="M1282.7,834.3c3.2,13,7.7,26.8,18.7,34.5c9.2,6.4,22.1,6.9,31.7,1.3"/>
	<path class="st0" d="M1303.3,870.2c-8.9-8.2-13.2-21.2-10.9-33.1"/>
	<path class="st0" d="M1289.6,848.4c30.4-28.5,70.9-43.1,110.2-56.8c14-4.9,28.4-9.8,43.2-9"/>
	<path class="st0" d="M1394.9,785.9c-17,12.7-37.9,18.5-57.7,26.3c-19.7,7.8-39.7,18.6-50.1,37.1"/>
	<path class="st0" d="M1324.8,851.9c12-3.3,22.9-9.4,34.2-14.5c11.3-5.1,23.6-9.2,35.9-8c2.3,0.2,4.7,0.7,6.6,2
		c1.9,1.3,3.3,3.6,2.9,5.9"/>
	<path class="st0" d="M1491.3,932.2c-11.7-5.5-22.7-12.4-32-21.3s-16.8-19.9-20.5-32.2c-3-9.8-3.7-20.1-3.8-30.3
		c-0.2-21.7,2.2-43.8,11.2-63.5"/>
	<path class="st0" d="M1438,793.5c3.8-2.2,6.2-6.7,5.9-11.1"/>
	<path class="st0" d="M1321.7,869.6c16.3-8.7,36.3-8,53.9-2.2c17.6,5.8,33.2,16.1,48.6,26.3"/>
	<path class="st0" d="M1405.9,886.3c13.5,9.5,26.9,19,40.7,27.9c14.1,9.1,29.2,17.9,45.9,19"/>
	<path class="st0" d="M1474.4,931.7c48.6,33,109.1,42.2,167.3,50.4c60.6,8.6,121.2,17.2,181.9,25.8c18.3,2.6,36.6,5.2,54.3,10.5
		c31.7,9.4,60.2,27,88.3,44.4"/>
	<path class="st0" d="M1756.4,998.8c8.9,4.5,18.9,6,28.7,7.6c18.3,3.1,36.6,6.9,54.6,11.4c18.2,4.5,36.2,9.8,53.3,17.4
		c11.8,5.2,23.2,11.5,34.9,16.9c20.2,9.4,42,16.4,59.4,30.3"/>
	<path class="st0" d="M2012.6,1103.2c9.4,2.8,18.1,7.8,22.7,12.6c-7.8-13.6-19.9-24.4-33.2-32.7s-27.8-14.4-42.3-20.4"/>
	<path class="st0" d="M1770.2,955.5c-7.4-7.3-13-16.4-16.3-26.3"/>
	<path class="st0" d="M1939.9,894.6c-24.1,9.2-50.3,11.2-75.3,17.5c-18.5,4.7-36.4,11.7-54.1,18.7c-14.7,5.8-29.8,11.8-41.7,22.2"/>
	<path class="st0" d="M1764.8,925c54.1-23.1,109-46.4,167.1-55.5"/>
	<path class="st0" d="M1951.1,885.6c-2-4.9-4.5-9.6-7.4-14c-1.2-1.9-2.6-3.8-4.5-5.1s-4.3-2-6.4-1.3"/>
	<path class="st0" d="M1436.3,838.9c1.9-15.6,8.5-30.6,18.6-42.7c6.7-7.9,14.8-14.6,20.7-23.1c4.4-6.4,7.5-13.8,13.2-18.9
		c4.4-3.9,9.9-6.1,15.4-8c41.3-14.8,86.1-19.7,129.6-14.4"/>
	<path class="st0" d="M1915.2,797.4c21.2,11.1,37.9,29.5,49.9,50.2c12,20.7,19.6,43.6,25.3,66.8c15.4,61.8,18.7,126.5,9.7,189.5"/>
	<path class="st0" d="M1935.6,817c22.9,7.3,44.9,17.4,65.4,29.9"/>
	<path class="st0" d="M2020.7,1114.9c17.6-31.5,23-68.9,20.5-104.9c-2.5-36-12.4-71.2-23.6-105.5c-7.9-24.3-17.3-49.4-36.2-66.5"/>
	<path class="st0" d="M2039.6,1051.9c0.4-36.9-6.3-73.6-16.3-109.2c-10-35.5-23.4-70-36.8-104.4"/>
	<path class="st0" d="M2013.8,947.3c15.7,1.2,31.5,0.9,47.1-1.1"/>
	<path class="st0" d="M2007.7,935.6c33.6-2.5,67.2-2.9,100.9-1.4"/>
	<path class="st0" d="M1947.4,820.5c-1.4-6.2-5.6-11.5-10.7-15.4c-5.1-3.8-11-6.3-17-8.6c-20.4-7.7-41.9-12.7-63.6-14.9"/>
	<path class="st0" d="M1240,1015.9c-11.8-10.3-26.2-18.1-41.6-21c-26.1-5-52.7,4-77.8,12.8"/>
	<path class="st0" d="M1228.7,1017.4c11.3-5.8,24.7-7.5,37.1-4.6c13.7,3.2,26.1,11.8,40.2,12.3"/>
	<path class="st0" d="M1261.7,908.9c22.5,31.1,45.1,62.1,67.6,93.2"/>
	<path class="st0" d="M1328.6,1031.9c8.5-8.1,13.8-19.4,14.5-31.1"/>
	<path class="st0" d="M1330.8,1018.7c5.7,9.8,7.9,21.5,6.1,32.7"/>
	<path class="st0" d="M1357.8,1002.4c17.3-26.8,30.1-56.4,37.8-87.3"/>
	<path class="st0" d="M1241,1039.2c16.3-1.2,31.3,10.9,47.7,10.4"/>
	<path class="st0" d="M1184.8,995.2c-5.7,22.9-8.8,46.4-9.3,70"/>
	<path class="st0" d="M1240.3,1099.4c2.2,0.3,4.1,1.7,6.2,2.4c2.1,0.7,5,0.2,5.6-1.9c0.4-1.2-0.2-2.6-0.8-3.7
		c-3.3-5.5-9.7-8.9-12.2-14.9c-0.8-1.9-1.2-4-2.6-5.5c-1.7-1.9-4.3-2.4-6.8-3c-9.1-2.2-17.4-7.1-26.2-10.2s-19.2-4.2-27.2,0.8"/>
	<path class="st0" d="M1215.9,1001.2c4.6,15.5,9.3,31.1,16.2,45.8c17.5,37.3,48.2,66.4,78.2,94.6"/>
	<path class="st0" d="M1414.9,1183.2c-19-7-38.6-12.5-57.4-19.9s-37.3-16.7-52.2-30.4c-5.8-5.4-11.3-11.5-18.5-14.9"/>
	<path class="st0" d="M1196.4,1117.5c30.5,14.6,61.2,29.2,93.2,39.9s65.8,17.6,99.6,16.1"/>
	<path class="st0" d="M1062,1130c32.2-3.1,64.7-6.3,95.1-17.1"/>
	<path class="st0" d="M1117.1,1126.2c7.6,1.3,15.3-0.1,22.8-1.4c20-3.5,40.1-7.1,60.1-10.8"/>
	<path class="st0" d="M1172.4,1127.3c16.7,1.4,33.6,0.2,49.8-3.7"/>
	<path class="st0" d="M1146.5,1142.1c26.4,1.8,52.7,6.4,78.1,13.7c7.2,2.1,14.3,4.3,21.6,5.9c12.4,2.7,25.1,3.3,37.8,3.9"/>
	<path class="st0" d="M1385.9,1174.3c22.5-1,44.8,6,67.2,4.4c9.6-0.7,19-2.8,28.5-4.3c17.1-2.7,34.5-3.2,51.8-3.6
		c6-0.2,12.1-0.3,18,1c4.8,1.1,9.4,3.1,14,5c6.1,2.5,12.3,4.7,18.5,6.9c7.2,2.6,14.5,5.1,21.7,7.7"/>
	<path class="st0" d="M1403.2,1172.9c17,4,34.8,1.3,52-1.5c11.8-1.9,23.6-3.8,35.3-5.6c7.5-1.2,15.2-2.4,22.8-1.6s15.3,3.7,20.2,9.6
		"/>
	<path class="st0" d="M1462.4,1177.4c50.5-0.2,101.4-11.9,151.1-2.7c3.9,0.7,7.9,1.6,11.4,3.5s6.6,5,7.6,8.8"/>
	<path class="st0" d="M1604.8,1187.6c-15-2.4-29.9-4.8-44.9-7.2c-10.5-1.7-21.2-3.4-30.6-8.3"/>
	<path class="st0" d="M1608.7,1178.6c3.1,18.2,11.5,35.5,24,49.2c7.8,8.5,17,15.5,26.1,22.5"/>
	<path class="st0" d="M1603.8,1182c4.4,8.7,8.9,17.6,15.8,24.5c3.6,3.7,7.8,6.7,11.5,10.3c8.9,8.7,14.4,20.2,23,29.2
		c2.7,2.8,5.9,5.7,6.3,9.6"/>
	<path class="st0" d="M1604.1,1188.4c4,15.2,16.8,26.3,25.3,39.6c6.1,9.5,10.1,20.5,18.3,28.3"/>
	<path class="st0" d="M1602.5,1194.5c5.9,13,16.4,23.3,24.9,34.8c5.6,7.5,10.4,15.6,15.2,23.6"/>
	<path class="st0" d="M1628.1,1236.4c2.9,4.3,5.8,8.6,9.5,12.2s8.2,6.7,13.2,7.7"/>
	<path class="st0" d="M1543.8,1062c-0.8,1.4,0.6,3.3,2.2,3.5s3.2-0.9,3.9-2.3c0.8-1.4,1-3.1,1.1-4.7c1.9-26.6-8.1-52.6-9.2-79.3"/>
	<path class="st0" d="M1357.1,1087.6c3.3,5,6.7,10.1,11,14.4c6.5,6.5,14.9,10.7,23.3,14.5c8,3.7,16.1,7.1,24.2,10.4
		c8.9,3.7,17.9,7.3,27.4,9.1c9,1.7,18.1,1.6,27.2,1.5"/>
	<path class="st0" d="M1592.1,1131.2c27.5-2.7,55.2-3.2,82.8-1.4c9.3,0.6,18.8,1.4,28.1,0.3"/>
	<path class="st0" d="M1691.4,1135.8c12.3-4.8,25.1-8.7,38-11.4"/>
	<path class="st0" d="M1635.6,1166.9c14.2,0,28.4-0.1,42.3-2.9c9.6-2,18.8-5.3,28-8.6"/>
	<path class="st0" d="M1641,1176c21.2-4.2,41.8-11,61.3-20.2"/>
	<path class="st0" d="M1821.6,1012.1c36.4,47.1,71.8,95,104.5,144.7c19.4,29.6,38.1,60.2,47.5,94.3c5.3,19.3,7.5,39.3,9,59.2"/>
	<path class="st0" d="M1899.5,1119.9c11.2,19.2,22.4,38.5,33.7,57.7c6.2,10.6,12.3,21.2,17.7,32.2c12.7,26.2,20.5,54.5,26.9,82.9
		c2.1,9.3,3.9,19.3,0.2,28"/>
	<path class="st0" d="M1878.8,1127.4c4.8,0.7,9.7,1.4,14.5,1.1c8.9-0.5,17.3-4.2,25.9-6.6c8.6-2.4,18.4-3.2,26,1.5"/>
	<path class="st0" d="M1908.9,1142.8c9.1,1.1,18.4,2.3,27.5,0.7c5.5-1,10.8-3,15.6-5.9"/>
	<path class="st0" d="M1915.2,1151.9c7.6-0.9,15.3-1.8,22.9-2.7c5.7-0.7,11.3-1.3,17-2c11.9-1.4,23.9-2.8,35.8-4.2"/>
	<path class="st0" d="M1053.2,1076.6c0.7-13.2,9.1-24.9,19.7-32.8s23.1-12.5,35.5-17.1c28.6-10.5,57.2-21,85.8-31.5"/>
	<path class="st0" d="M1062.6,1059.5c-5,8.2-9.6,16.8-13,25.7c-4.8,12.3-7.5,25.2-10.2,38.1"/>
	<path class="st0" d="M1087.4,1116.5c6.5,1.6,13.3,1.7,19.8,0.4"/>
</g>
<g id="Body_enhance">
	<path class="st0" d="M1542,1065.1c-0.4,3.5,3.5,6.4,7,5.8s6.1-3.8,7-7.2c0.9-3.4,0.6-7,0.1-10.5c-3-23-8.7-45.5-14.4-68"/>
	<path class="st0" d="M1589.2,1125.6c33.5-2.2,67.1-1.4,100.4,2.2"/>
	<path class="st0" d="M1699.4,1129.8c5.2-2.1,10.3-4.2,15.5-6.3"/>
	<path class="st0" d="M1354,1083.7c26.4,31.3,66.4,50.7,107.4,52.1"/>
	<path class="st0" d="M1549,967.8c44,8.5,88.5,14.4,133.2,17.8"/>
	<path class="st0" d="M1656.2,989.6c33.8,5.8,67.4,12.8,100.6,21.1"/>
	<path class="st0" d="M1769.2,1008.7c23.4,3.4,46,11.7,66,24.2"/>
	<path class="st0" d="M1489.7,952.6c26.6,14.6,55.1,25.7,86.4,25.1c33.3,6.2,66.6,12.5,99.8,18.7"/>
	<path class="st0" d="M1626.4,996.7c27.9,2.4,55.7,6.8,82.4,8.5c24.6,6.5,49.2,13,73.8,19.5"/>
	<path class="st0" d="M1735.9,1003.9c19.7,12.1,38.2,26.2,55.1,41.9"/>
	<path class="st0" d="M1782.2,1018.8c12.1,7.7,22.9,17.7,31.4,29.3"/>
	<path class="st0" d="M1803.7,1017.5c8,5.2,16,10.4,24.3,9.8c33.6,43.8,65.8,88.8,90,128c21.5,31.5,39,65.7,51.8,101.6"/>
	<path class="st0" d="M1863.9,1123.7c22.9,10.3,51.2,7.6,71.8-6.9"/>
	<path class="st0" d="M1873.7,1111.5c8.9,1.2,17.8,2.3,26.7,3.5"/>
	<path class="st0" d="M1904.8,1151.2c8.9,4.5,19.5,5.4,29,2.5"/>
	<path class="st0" d="M1888.6,1143.9c12.3-2.5,24.6-5,36.9-7.5"/>
	<path class="st0" d="M1913.2,1144.8c25.3,31.8,44.3,68.6,55.5,107.6"/>
	<path class="st0" d="M1921.8,1154.9c33,41.3,49.6,95.3,45.6,147.9"/>
	<path class="st0" d="M1962.7,1350c9.8-21.8,15.4-45.6,16.4-69.5"/>
	<path class="st0" d="M1654.5,1240.5c50-7.8,100.6-12.2,151.2-13.1"/>
	<path class="st0" d="M1667.7,1237.1c32.3-13,65.8-23.3,99.8-30.8"/>
	<path class="st0" d="M1648,1247.9c27.1-19.2,57.4-34,89.2-43.6"/>
	<path class="st0" d="M1349.1,1066.3c15.4,28.8,41.7,51.5,72.4,62.6"/>
	<path class="st0" d="M1341.1,1052.3c0.1-12.6-3.2-25.1-9.6-35.9"/>
	<path class="st0" d="M1326.8,1034.3c11.2-9.2,18.2-23.2,19.1-37.7"/>
	<path class="st0" d="M1357.8,1003.4c18.8-28.7,31-61.6,35.4-95.6"/>
	<path class="st0" d="M1275.8,1062.8c11.4,2.7,23.2,4.2,34.9,4.4"/>
	<path class="st0" d="M1250.6,1077.2c18.7,13.8,39.4,24.6,61.4,32"/>
	<path class="st0" d="M1289.3,1115.6c12.4,8.2,26.3,14.2,40.8,17.3"/>
	<path class="st0" d="M1308.6,1135.8c8.2,2.8,16.5,5.7,24.7,8.5"/>
	<path class="st0" d="M1224.5,1006.3c4.2,20,12.2,39.2,23.3,56.3"/>
	<path class="st0" d="M1269.2,1091.6c13.9,23.4,34.3,42.9,59.4,50.7c14.1,11.9,30.5,21.1,48,26.9"/>
	<path class="st0" d="M1258,1141.6c37.8,24.4,85.2,33.7,129.4,25.2"/>
	<path class="st0" d="M1435.7,1175.9c23.7,3.5,47.3-15,70.5-9"/>
	<path class="st0" d="M1320.7,866.6c29.5-11.9,64.5-9.1,91.7,7.3"/>
	<path class="st0" d="M1383.9,873.2c23.6,23.4,51.4,42.5,81.7,56.3"/>
	<path class="st0" d="M1361.5,868.5c16.1,20.7,34.2,39.8,54.1,56.9"/>
	<path class="st0" d="M1392.5,886.9c15.9,20.5,35.6,38,57.8,51.3"/>
	<path class="st0" d="M1435.5,917.1c11.9,10.5,24.9,19.8,38.7,27.6"/>
	<path class="st0" d="M1481.3,932.7c15.4,25.9,38.8,46.8,66.3,59.2"/>
	<path class="st0" d="M1545.3,967.7c19.5,16.7,39.1,33.4,58.6,50.2"/>
	<path class="st0" d="M1578.4,974.5c16.5,14.9,34.1,28.5,52.7,40.7"/>
	<path class="st0" d="M1619.8,982.4c27,12.1,52,28.8,73.6,49"/>
	<path class="st0" d="M1707,996.4c7.1,8.9,14.1,17.8,21.2,26.8"/>
	<path class="st0" d="M1813.5,1025.4c17.2,12.4,32.2,28,43.7,45.8"/>
	<path class="st0" d="M1776.3,1013.1c19.8,7.1,34.9,25.9,37.5,46.8"/>
	<path class="st0" d="M1875.3,1114.1c9.3-2.8,18.9-4.8,28.6-5.9"/>
	<path class="st0" d="M1845.8,1073.3c5.7,1.9,11.4,3.7,17.2,5.6"/>
	<path class="st0" d="M1287.8,857.1c1.2,21.5,14.8,41.9,34.1,51.2"/>
	<path class="st0" d="M1196,983c8.9-22.3,16.7-45.1,23.3-68.2"/>
	<path class="st0" d="M1067.8,938.4c-18-20.2-29.7-46-32.8-73"/>
	<path class="st0" d="M1027.9,879.4c12.8-53.1,46.8-100.8,92.9-130.1"/>
	<path class="st0" d="M1023.3,726.1c-39,90.9-40.6,197.2-4.2,289.2"/>
	<path class="st0" d="M1017.1,1019.1c14.4,6.3,29.3,11.6,43.9,17.5c37.4-31.5,83.2-52.8,131.5-63.8c9.4-20.2,18.9-40.5,28.3-60.8"/>
	<path class="st0" d="M1019.8,733c14.8-24.6,44.1-35.9,71.8-43.6c29.1-8.1,59.1-14.1,89.2-12c30.1,2.2,60.4,13.2,81.2,35.1
		c20.8,21.9,30.2,55.5,19.2,83.5"/>
	<path class="st0" d="M1288.2,810.9c-3,16.1-6,32.2-9,48.3"/>
	<path class="st0" d="M1253.6,757.4c21.9-10.8,47-14.9,71.2-11.6"/>
	<path class="st0" d="M1245.4,741.8c15.9-3.5,32.2-5.4,48.6-5.7"/>
	<path class="st0" d="M1254.7,724.3c7.5-0.4,15.1-0.8,22.6-1.2"/>
	<path class="st0" d="M1060.6,931.6c-17.7-18.2-29.4-42.1-32.7-67.2"/>
	<path class="st0" d="M1067.7,936.1c21.4,0,42.8-8,58.8-22.2c16.1-14.2,26.7-34.4,29.3-55.6"/>
	<path class="st0" d="M1121.1,747.7c-20.8,11.2-38.9,27.6-52.3,47.2"/>
	<path class="st0" d="M1306.5,956.3c4.9,8,9.8,16.1,14.6,24.1c1.2,2,2.5,4.2,4.4,5.7s4.5,2.3,6.7,1.5c3.5-1.3,4.5-5.8,4.8-9.6"/>
	<path class="st0" d="M1775.6,955.2c42.7-26.2,88.4-47.4,136.1-62.8"/>
	<path class="st0" d="M1764.9,928.8c20.1-10.7,41.1-19.8,62.7-27.1"/>
	<path class="st0" d="M1788.1,966.2c21.1-10.3,42.1-20.7,63.2-31"/>
	<path class="st0" d="M1800.2,973.7c17-13,36-23.1,54.8-33.2c1-0.5,2.1-1.1,3.3-1.2c1.2,0,2.4,0.6,2.7,1.8c0.2,1.1-1.1,2.4-2.1,1.8"
		/>
	<path class="st0" d="M1985.9,899.6c16,52.5,32.1,107.4,22.9,161.6c-0.6,3.7-1.5,7.5-4.2,10.1s-7.8,2.9-9.7-0.2"/>
	<path class="st0" d="M1985.4,852.2c16.2,31.6,32.5,63.4,43,97.3c10.5,33.9,15.1,70.4,7.3,105"/>
	<path class="st0" d="M1841.8,1011.2c17.3-0.9,34.3,4.6,49.8,12.2c15.6,7.5,30,17.1,45.3,25.2c10.3,5.4,21.4,10.3,33,10.1
		s23.8-6.9,27.1-18.1"/>
	<path class="st0" d="M1985.3,1078.5c13.5-4.6,22.1-18.4,24.6-32.5s-0.1-28.4-2.6-42.5"/>
	<path class="st0" d="M2002.1,1076.9c8.9,1.9,17.9,3.8,26.8,5.8L2002.1,1076.9z"/>
	<path class="st0" d="M2003.3,1067.3c12.7,1.6,25.4,3.2,38.2,4.8"/>
	<path class="st0" d="M2003.7,1052.2c11.2,1.8,22.4,3.5,33.7,5.3"/>
	<path class="st0" d="M2002.5,1034.4c12.4,3.6,25.1,5.9,38,6.9"/>
	<path class="st0" d="M2001.5,1021.1c12.9,0.8,25.8,1.7,38.7,2.5"/>
	<path class="st0" d="M2004,988.2c9.1,1.9,18.2,3.8,27.4,5.7"/>
	<path class="st0" d="M1975.2,896c12.3,1.5,24.6,3,36.9,4.6"/>
	<path class="st0" d="M1964.1,871.2c8.9,1.7,17.8,3.5,26.7,5.2"/>
	<path class="st0" d="M1970.6,859.3c-7.9-27.3-29.3-50.4-56-60.2"/>
	<path class="st0" d="M1995,847.7c-10.9-11.1-25.5-18.5-40.8-21"/>
	<path class="st0" d="M1762.2,929.7c55.1-29,113.6-51.5,173.9-66.7"/>
	<path class="st0" d="M1480.3,932.3c-41.7-34.4-63.5-91.3-55.5-144.7"/>
	<path class="st0" d="M1291.8,839.4c46-25.8,95.7-45,147.1-56.8"/>
	<path class="st0" d="M1435,845.1c15-37.9,34.6-77,69.7-97.8c32.3-19.2,72.1-19.5,109.7-18"/>
	<path class="st0" d="M1189.1,991.6c-4.6,23.1-9.1,46.2-13.7,69.3"/>
	<path class="st0" d="M1186,1066.5c6.6-3.3,14.3-3.5,21.6-2c7.2,1.5,14,4.5,20.7,7.5c7.8,3.5,16.5,8.1,18.5,16.4
		c0.7,2.9,0.5,6.1,1.7,8.8s5,4.7,7.3,2.8"/>
	<path class="st0" d="M1215.1,999.8c3.5,27.6,15.7,54.1,34.4,74.7"/>
	<path class="st0" d="M1057.5,1066.6c16.8-18.7,38.8-31.9,62.1-41.4c23.2-9.5,47.7-15.4,72.1-21.2"/>
	<path class="st0" d="M1069.3,1127.2c22-2.6,43.8-7.2,64.9-13.8"/>
	<path class="st0" d="M1246.8,1088c-15.3,2.1-30.6,4.2-45.8,6.3"/>
	<path class="st0" d="M1274.3,1109c-12.4-3.5-25.6-4.1-38.3-1.6"/>
	<path class="st0" d="M1279.3,1121.2c-7.3-0.3-14.5-0.7-21.8-1.1"/>
	<path class="st0" d="M1304.3,1128.5c-13.6-0.8-27.3-0.2-40.8,1.7"/>
	<path class="st0" d="M1213.5,1103.9c7.5,11.8,19.7,20.4,33.2,23.7"/>
	<path class="st0" d="M1292.4,1141c14.1,5.6,29,9.1,44.1,10.6"/>
	<path class="st0" d="M1250.4,1132.4c7.6,8.8,18.9,13.3,30.1,16.3s22.8,4.7,33.5,9.1"/>
	<path class="st0" d="M1288,1159.3c31.5,7.6,64,10.7,96.3,9.3"/>
	<path class="st0" d="M1267.1,1153c-13,3.9-25.5,9.4-37.1,16.4"/>
	<path class="st0" d="M1043.9,1110.1c5.4-28.6,26.5-52.4,51.3-67.7c24.8-15.3,53.2-23.4,81.3-31.4"/>
	<path class="st0" d="M1079.7,1117.4c15.2-2.8,30.4-5.7,45.6-8.6"/>
	<path class="st0" d="M1094.2,1127.4c34.9-11.1,69.9-22.2,104.8-33.3"/>
	<path class="st0" d="M1148.3,1125.7c22.4-2.9,44.3-9,65.1-17.9"/>
	<path class="st0" d="M1191.5,1128.2c14.3-5.9,29.8-9.1,45.2-9.3"/>
	<path class="st0" d="M1200.7,1118.8c29.7,14.7,62.9,22.2,96.1,21.7"/>
	<path class="st0" d="M1179,1005.3c-45.9,12.6-89.4,34-127.4,62.7"/>
	<path class="st0" d="M1266.6,903.4c8,27.2,21.5,52.7,39.6,74.6"/>
	<path class="st0" d="M1108.8,1005.5c42.3-15.3,90.6-13.5,131.6,4.9"/>
</g>
<g id="Left_arm">
	<path class="st0" d="M1522.5,904.8c-0.5-8.9-2-17.8-4.7-26.3"/>
	<path class="st0" d="M1534.1,835.7c0.5,6.7-2.3,13-4.5,19.4c-5.6,16.1-7.5,33.4-5.6,50.3"/>
	<path class="st0" d="M1541.3,880.6c-1.4,2.7,0.6,6.1,3.3,7.5c2.7,1.4,5.9,1.5,8.8,2.2c5,1.2,9.3,4.1,13.6,7
		c4.6,3.1,9.2,6.2,13.8,9.3"/>
	<path class="st0" d="M1573.1,905.8c6.9-9.4,17.5-16,29-18.2"/>
	<path class="st0" d="M1568.5,902.8c6.7-7.1,15.4-12.4,24.8-15"/>
	<path class="st0" d="M1577.6,906.9c7-7.6,17.5-10.8,27.1-14.6c6.8-2.7,13.3-6,19.8-9.3"/>
	<path class="st0" d="M1871.3,787.6c-95.2,25.9-189.7,57.7-274.6,108.1"/>
	<path class="st0" d="M1762.8,827.7c60.4-32.1,127.3-49.8,193.8-65.9c43.6-10.6,87.4-20.6,131.3-30"/>
	<path class="st0" d="M2015.4,745.1c14.4-3.5,29.2-5.5,44-5.9"/>
	<path class="st0" d="M2102.7,731.6c-7.9,0.8-15.7,1.8-23.4,3.3c-6.1,1.1-12.4,2.6-17.3,6.4"/>
	<path class="st0" d="M2041.1,733.9c13.1,0.4,26.2,0.1,39.3-1.1"/>
	<path class="st0" d="M1550.3,790.6c-2.9,3.3-6.4,6-10.4,7.8c-0.8,0.3-1.8,0.6-2.3-0.1c-0.3-0.4-0.1-1,0-1.5c1-2.6,3-4.5,5-6.4
		c10-9.4,20.2-18.6,30.5-27.6"/>
	<path class="st0" d="M1548.7,776.3c9.4-8.4,22-12,33.3-17.6c8-3.9,15.4-8.9,23.4-12.8c8.6-4.2,17.7-7,26.6-10.2
		c17.3-6.1,34.2-13.2,51.1-20.3c5.7-2.4,11.4-4.8,16.6-8.1c7.8-4.9,14.1-11.7,20.4-18.4"/>
	<path class="st0" d="M1695.5,733.4c0.7,0.7,1.4,1.3,2.2,1.9c3.7-7,6-14.7,8.2-22.3c4-13.5,8-27,12-40.4"/>
	<path class="st0" d="M1700.3,705.5c8-25.9,26.5-47.2,45.7-66.4c25-24.9,52.2-47.7,81.1-67.9"/>
	<path class="st0" d="M2099.1,612.5c-3.5-3-7-6-10.8-8.7c-25.4-18.4-57.5-24.1-88.5-29.1c-37.3-6-74.8-11.7-112.6-11
		c-18.5,0.4-36.9,2.3-55.1,5.7"/>
	<path class="st0" d="M2092.9,617.5c-4.1-3.4-7-7.8-10.9-11.4c-2.2-2-4.6-3.7-7.1-5.5c-5.9-4.1-11.7-8.2-17.6-12.3"/>
	<path class="st0" d="M2033.4,728.1c-2.6-3.5-5.9-6.5-9.7-8.7c-5.9-3.4-13-4.8-17.9-9.6c-4.1-4-5.9-9.8-6.9-15.4
		c-0.5-3.1-0.9-6.2-0.7-9.4c0.4-7.2,3.3-14,6.8-20.3c6.2-11,14.3-21,24.6-28.3c10.7-7.6,23.3-12,35.8-15.7
		c16.1-4.7,32.4-8.3,49-10.9"/>
	<path class="st0" d="M2076.8,619.2c12.1-3.5,24.8-4.4,37.2-2.6"/>
	<path class="st0" d="M2110.2,665.3c-5.4,2-11,3.2-16.6,4.3c-26.7,5.3-53.5,10.2-80.4,14.8"/>
	<path class="st0" d="M2115.3,695.3c-21,1.2-41.8,4.1-62.3,8.5c-15.6,3.4-31.8,7.7-47.1,3.5"/>
	<path class="st0" d="M2107.4,716c-24.8,4.2-49.9,6.8-75.1,7.8"/>
	<path class="st0" d="M2085.4,746.1c5.2-20.9,18.4-39.2,23.4-60.1c3-12.7,2.9-25.8,3.5-38.8c0.7-15,2.5-29.9,4.2-44.8
		c1.4-12.1,2.8-24.3,7.1-35.6c6.2-16.6,18.2-30.5,32.1-41.5"/>
	<path class="st0" d="M2064.8,787.3c6.6-11.2,16.7-20.5,20.4-33c2.8-9.3,1.6-19.2,0.4-28.8"/>
	<path class="st0" d="M2089.9,773.7c-22.1,19.5-41.4,42.2-57.3,67c-2.8,4.3-5.5,8.8-6.9,13.8s-1.3,10.5,1.2,15"/>
	<path class="st0" d="M2096.9,770.2c9.8-3.7,21.2,2.5,26.4,11.6c5.2,9.1,5.3,20.2,3.8,30.6c-1.3,9.4-4,18.9-9.8,26.4
		c-7.4,9.5-18.9,14.6-30,19.1c-14.4,5.9-29.3,11.4-44.9,12.7c-5.7,0.5-12.2,0-16-4.3"/>
	<path class="st0" d="M2088.5,859.4c4.1-4.6,8.2-9.2,13.3-12.6c3.1-2.1,6.5-3.7,9.3-6.1c4.2-3.5,6.9-8.5,9.5-13.3
		c3.8-7,7.7-14.1,11.5-21.2"/>
	<path class="st0" d="M2118.4,812.9c7.6-9.4,13.4-20.2,17.1-31.7c3.7-11.8,4.8-25.5-2.1-35.7"/>
	<path class="st0" d="M2162.2,777.9c-14.3,6.2-27.5,15.2-38.7,26.2"/>
	<path class="st0" d="M2267.7,755.1c-30,3.8-59.8,9.2-89.2,16.1c-3.8,0.9-7.7,1.8-11.4,3c-14.1,4.3-27.2,11.8-38.1,21.7"/>
	<path class="st0" d="M2218.9,769.8c20-2.8,38.9-11.3,56-22.1c4.6-2.9,9.2-6,12.8-10.1s6.2-9.3,6.2-14.7"/>
	<path class="st0" d="M2195.6,757.2c8.1-4.7,15.9-10.3,21.8-17.7c5.9-7.3,9.8-16.6,9.5-26c-0.4-11.1-6.5-21.3-14.5-29
		c-12.2-11.8-29.2-18.5-46.2-18.3"/>
	<path class="st0" d="M2291.1,725.3c1.8,0,3.7-0.1,5.5-0.2c0.6-10.5,0.4-21.1-0.8-31.5c-1.4-13.1-4.2-26.8,0.5-39.2"/>
	<path class="st0" d="M2296,685.1c-1.4,1.5-3.1,3-5.1,2.8c-0.2,0-0.5-0.1-0.7-0.2c-0.3-0.3-0.2-0.8-0.1-1.2
		c3.2-11.1,6.2-22.3,8.9-33.5"/>
	<path class="st0" d="M2294.6,664.6c6.1-2.3,10.8-7.5,13.8-13.2c3.1-5.8,4.8-12.1,6.9-18.3c2.5-7.5,5.6-14.9,9.2-22"/>
	<path class="st0" d="M2314.9,644.8c-6.6,5.1-13.9,9.2-21.6,12.2"/>
	<path class="st0" d="M2278.2,641.2c4,1.4,7.1,4.7,9.8,8c2.7,3.3,5.2,6.8,8.7,9.3"/>
	<path class="st0" d="M2295.1,660.3c-6.3-3.5-9.9-10.3-15.4-15.1c-2-1.7-4.2-3.1-6.5-4.2"/>
	<path class="st0" d="M2164,642.1c3.6-6,10.5-9.2,17.2-11.1c14.1-4.1,29.1-4,43.7-3.3c3.9,0.2,7.7,0.4,11.5,1
		c14.9,2.2,28.4,9.6,41.6,17"/>
	<path class="st0" d="M2166.4,639.4c-9.2-0.1-18.4,3-25.6,8.6"/>
	<path class="st0" d="M2137,550.4c52.6-60.4,83.1-136.5,112.5-211"/>
	<path class="st0" d="M2200.1,558.6c-8.6-2.7-18.1-2.4-26.4,0.8"/>
	<path class="st0" d="M2196.2,562.5c4.9-14.4,9.8-28.8,17.7-41.8c6.1-9.9,13.8-18.6,20.5-28.1c24-33.8,34.5-75.4,39.9-116.4
		c0.7-5.5,1.3-11.3-0.9-16.3c-1.6-3.8-4.7-6.8-8.1-9.2c-5.3-3.7-11.7-5.8-18.1-6.2"/>
	<path class="st0" d="M2234.5,492.1c32.6-20.6,58.4-50.2,83.5-79.5c5.1-5.9,10.1-11.8,15.1-17.8c16.6-20.1,31.7-41.5,50.3-59.7"/>
	<path class="st0" d="M2243,483.2c32.6-25,62.5-53.7,88.8-85.3c5.6-6.8,11.1-13.6,16.6-20.4c11.8-14.2,24.2-27.8,37.3-40.8"/>
	<path class="st0" d="M2263.3,544.3c17.4-14.1,33.1-30.3,48.6-46.5c3.7-3.9,7.4-7.7,11.2-11.6c5.4-5.6,10.8-11.2,16.1-17
		c12.3-13.2,24.1-27,35.4-41.1"/>
	<path class="st0" d="M2361.3,435.1c16.1-6.2,27.7-20.9,35-36.5s11.1-32.7,16.7-49"/>
	<path class="st0" d="M2399.2,397.1c4.2-4.2,8.4-8.5,10.8-14c1.3-3,2-6.2,2.6-9.3c1.7-8.2,3.2-16.9,0.7-24.9"/>
	<path class="st0" d="M2422.8,360.8c-4-6.6-8.3-13.1-14.2-18.1s-13.6-8.2-21.2-7.2"/>
	<path class="st0" d="M2309.3,507.6c3.6-2.8,5.9-7.3,6-11.8"/>
	<path class="st0" d="M2279.7,572.9c23.7-10.3,45.5-24.7,64.3-42.4c4.5-4.2,8.8-8.6,13.1-13c6.2-6.4,12.5-12.8,17.2-20.4"/>
	<path class="st0" d="M2354.9,524.2c7.4-6.4,14.9-12.9,20.7-20.7c7.1-9.6,11.6-20.8,15.9-31.9c5.9-15,11.8-30,17.4-45
		c2.4-6.4,4.8-12.9,5.6-19.7c0.8-6.4,0.3-12.9-0.3-19.4c-0.4-5.2-1.3-11.2-5.8-14"/>
	<path class="st0" d="M2231.9,552.9c19.8,11.4,39.6,22.8,59.5,34.3c5.1,2.9,11,5.9,16.5,4.1"/>
	<path class="st0" d="M2290.8,590.7c5.3,0.8,10.4,3.1,14.5,6.5c6.7,5.5,10.7,13.7,17.1,19.6"/>
	<path class="st0" d="M2300.8,594.5c1.4,4,3,7.9,5.3,11.3c3.4,5,8.1,9,13.6,11.6"/>
	<path class="st0" d="M2318.6,613.6c3.3-3.8,7.9-6.3,12.8-7.8s9.9-2,14.9-2.6"/>
	<path class="st0" d="M2280.8,573.4c68.8-11,136.2-30.9,200-59"/>
	<path class="st0" d="M2319,612c3.6-3.7,8.7-5.5,13.7-6.6c20.7-4.7,42.8-0.6,63.1-6.6"/>
	<path class="st0" d="M2388.4,595.5c17.2-0.7,33.4-8.1,47.9-17.4s27.6-20.5,42-29.9c3.6-2.4,7.5-4.8,9.9-8.4
		c4.9-7.1,3.1-17.1-1.7-24.3"/>
</g>
<g id="Left_arm_enhance">
	<path class="st0" d="M1557,787.5c-1.4,4.1-2.8,8.4-6.1,11.2s-8.7,3.7-11.6,0.5c-2.3-2.4-2.2-6.4-0.7-9.3s4.1-5.2,6.8-7.2
		c14.8-11.2,32-18.9,49-26.5"/>
	<path class="st0" d="M1550.8,774.2c58.5-23.9,116.1-50.4,172.3-79.2"/>
	<path class="st0" d="M1709.9,671.9c1.2,23.5-5.2,47.2-18,66.9"/>
	<path class="st0" d="M1538.2,828.7c-6.1,24.7-10.1,49.8-12,75.1"/>
	<path class="st0" d="M1545.6,877.1c-3.2,2.9-3,8.4-0.4,11.8s6.9,5.3,11.1,6.2s8.6,1.2,12.8,2.5c6.9,2.1,13,6.9,16.6,13.1"/>
	<path class="st0" d="M1566.2,905.1c7.1-9.5,17.2-16.6,28.6-19.9"/>
	<path class="st0" d="M1573.9,905c10.3-9.2,22.3-16.5,35.3-21.3"/>
	<path class="st0" d="M1574.2,911.9c88.4-57.9,186.7-100.9,289.2-126.4"/>
	<path class="st0" d="M1763.2,832.9c91.4-52.4,194.4-84.3,299.5-92.8"/>
	<path class="st0" d="M2080.6,737.3c-26.2-0.7-52.5,1.8-78.1,7.4"/>
	<path class="st0" d="M2034.6,733.6c19,0.3,38.1-0.4,57-2"/>
	<path class="st0" d="M2036.8,726.7c22.4-1,44.7-3.4,66.7-7.2"/>
	<path class="st0" d="M2011.3,712c31.3-4,62.5-8,93.8-11.9"/>
	<path class="st0" d="M2021.7,684.6c28-4.5,56-9.1,84.1-13.6"/>
	<path class="st0" d="M2050.3,662.4c15.4-2.2,30.9-4.4,46.3-6.7"/>
	<path class="st0" d="M2057.2,644c12.2-1.6,24.4-3.2,36.6-4.7"/>
	<path class="st0" d="M2115.6,617.6c-21.1,2.3-42.4,4.7-62.3,11.8c-20,7.2-38.8,19.6-49.4,38c-5.2,9.1-8.3,20.3-4.5,30
		c6,15.3,26.9,22.3,29.8,38.5"/>
	<path class="st0" d="M2114.6,609.8c-33.6,3.3-66.3,14.5-94.8,32.5"/>
	<path class="st0" d="M2027.4,642.7c-19.8,8.1-35.2,26-40.2,46.8"/>
	<path class="st0" d="M2076.5,613c-23.9,3.4-46.6,15-63.5,32.2"/>
	<path class="st0" d="M2023.1,625.2c13.2-9.1,29.5-13.8,45.5-13.2"/>
	<path class="st0" d="M2090.1,613c-10.9-10.9-25.6-17.8-40.9-19.2"/>
	<path class="st0" d="M2039.6,587c-54.4-13.3-111.2-16.7-166.8-10"/>
	<path class="st0" d="M1905,565.8c-33.4-1-67.1,8-95.6,25.4"/>
	<path class="st0" d="M1829.2,572.6c-31.9,17.1-59.7,42-80.3,71.8"/>
	<path class="st0" d="M1761.4,616c-15.9,17.7-27.7,39-34.2,61.8"/>
	<path class="st0" d="M1787.7,614.8c24.6-23.5,59-36.5,92.9-35"/>
	<path class="st0" d="M1752.4,648.2c-3.1,9.4-6.1,18.8-9.2,28.2c-0.9,2.7-1.8,5.5-1.3,8.3c0.5,2.8,2.8,5.5,5.7,5.3
		c2.8-0.2,4.7-4.4,2.4-6.1"/>
	<path class="st0" d="M1652.2,783.5c10.6-8.1,21.3-16.3,31.1-25.4c2.2-2.1,4.6-4.5,4.9-7.5c0.3-3-2.6-6.5-5.5-5.3"/>
	<path class="st0" d="M1988.3,704.1c2.4,6.8,6.9,12.8,12.8,17c2.4,1.7,5.3,3.5,5.5,6.5c0.2,3.3-3.1,5.6-6.2,7
		c-10.5,4.6-22.3,6-33.5,4"/>
	<path class="st0" d="M2060.7,801c23.9-36.2,39.5-77.8,45.4-120.8"/>
	<path class="st0" d="M2149.1,529.8c-22.1,23.8-33.6,55.9-37.8,88c-4.2,32.2-1.7,64.8,0.8,97.2"/>
	<path class="st0" d="M2254.2,339.5c-27.5,73.4-63.1,143.8-106,209.5"/>
	<path class="st0" d="M2175.1,559.8c6.3-4.3,14.4-5.9,21.9-4.4c7.5,1.5,14.3,6.2,18.5,12.6"/>
	<path class="st0" d="M2200.1,548.6c23-31.5,42.1-65.9,56.7-102"/>
	<path class="st0" d="M2241.4,491.3c48.2-37.2,89.8-83,122.1-134.7"/>
	<path class="st0" d="M2267.3,546.1c34.1-35.6,68.3-71.2,102.4-106.8"/>
	<path class="st0" d="M2349.4,439.3c25.2-11.3,46.5-31.3,59.2-55.9"/>
	<path class="st0" d="M2414.3,349.4c2.2,11.8-1.4,24-7.5,34.3s-14.6,18.9-23.1,27.4"/>
	<path class="st0" d="M2275.7,360.4c-1.4,19.6-2.8,39.4-8.5,58.1s-16.3,36.7-32.6,47.6"/>
	<path class="st0" d="M2411.6,381.7c-2.4,48.6-19.5,96.3-48.4,135.5"/>
	<path class="st0" d="M2284.5,564.4c35.2-18.6,66.2-44.9,90.3-76.5"/>
	<path class="st0" d="M2282.9,573c6.6-3,12.8-7.2,18.1-12.2"/>
	<path class="st0" d="M2237.1,550.3c15.5,10.5,31.1,20.8,46.8,31.1"/>
	<path class="st0" d="M2169,563.8c22.2-10.5,50.3-6.9,69.1,8.8"/>
	<path class="st0" d="M2226.8,534.7c-1.5,1.6-3,3.2-4.4,4.8c5.8,7.2,13.9,12.6,22.8,15"/>
	<path class="st0" d="M2300.8,597.6c-3.3-4.1-8.7-6.5-13.9-6.2s-10.3,3.3-13.1,7.8"/>
	<path class="st0" d="M2292,663.6c9.6-3.6,16-12.9,19.5-22.5s4.8-19.9,7.8-29.7"/>
	<path class="st0" d="M2305.9,620.9c15-13.4,35-21.1,55.1-21.3c15.3-0.1,31,3.8,45.6-0.8"/>
	<path class="st0" d="M2282.7,575c69.3-7.1,137.5-25.9,200.6-55.4"/>
	<path class="st0" d="M2386.9,595.2c15.2-0.4,29.9-5.9,43-13.5c13.1-7.6,24.9-17.3,36.6-27c5.6-4.7,11.4-9.5,15.1-15.8
		s4.8-14.7,0.9-20.9"/>
	<path class="st0" d="M2320.6,567.9c50.9-11.2,100.8-27.2,148.7-47.6"/>
	<path class="st0" d="M2135.5,649.5c9.2-7.2,20.8-11.3,32.4-11.6"/>
	<path class="st0" d="M2154.5,651.3c19.6-15.1,44.6-23,69.4-21.9s48.9,11.2,67.1,28"/>
	<path class="st0" d="M2193.5,759.6c7.5-6.9,15-14,20.6-22.5s9-18.9,7.4-29c-1.8-11-9.4-20.3-18.6-26.6c-9.2-6.3-19.8-10-30.4-13.5"
		/>
	<path class="st0" d="M2131.8,732.5c10,19.3,10.4,43.2,1,62.8"/>
	<path class="st0" d="M2096.2,771.3c12.7-1.3,25.9,5.4,32.4,16.5s5.9,25.8-1.3,36.3"/>
	<path class="st0" d="M2089.1,777.9c-21.6,16.9-39.6,38.1-56.2,59.9c-3.9,5.1-7.9,10.6-8.9,17c-1,6.4,2,13.9,8.1,15.8"/>
	<path class="st0" d="M2041.8,870.9c35-1.3,68.6-21.9,85.8-52.4"/>
	<path class="st0" d="M2091.7,861.1c2.9-10.8,11.6-19,19.7-26.7c8.1-7.7,16.4-16.4,18.3-27.5"/>
	<path class="st0" d="M2113.9,816c10.3-16.9,27.6-29.3,46.9-33.6"/>
	<path class="st0" d="M2140.2,785.6c35.9-16.2,74.2-26.9,113.3-31.9"/>
	<path class="st0" d="M2225.7,769.5c13.2-8.3,28.6-12.3,42.5-19.4c13.9-7.1,27-18.9,28.8-34.4"/>
	<path class="st0" d="M2297.7,652.4c-3.3,12.5-6.5,25.1-9.8,37.6c1,0,2-0.1,2.9-0.1"/>
	<path class="st0" d="M2289.5,724.2c3.6-0.4,6.5-3.2,8-6.5c1.4-3.3,1.6-7,1.5-10.6c-0.5-13.2-4.4-26.4-1.8-42.7
		c9.8-3.6,17-12.3,21.2-21.9s5.8-20,7.3-30.3"/>
	<path class="st0" d="M2275.1,601.2c12.3-4.5,25.6-6.2,38.7-5"/>
	<path class="st0" d="M1939.2,570.8c-48.8-7.6-100.2,2.5-142.5,28.1"/>
	<path class="st0" d="M1847.7,580.5c-41.3,12.7-77.5,41.1-99.7,78.2"/>
	<path class="st0" d="M1876.1,576.5c-21.2,3.5-42.9,7.2-62,17.2s-35.6,27.4-38.7,48.7"/>
	<path class="st0" d="M1743.2,660.9c-7.1,3.6-8.8,12.8-9.7,20.7c-1.3,12-2.6,24-3.9,36c-0.7,6.6-1.5,13.5-5.1,19.2s-10.9,9.5-17.1,7
		"/>
	<path class="st0" d="M1573.4,786c33.6-25.4,69-48.5,105.8-69.1"/>
	<path class="st0" d="M1690.5,713.4c10.8-6,21.6-12,32.4-18"/>
</g>
<g id="Left_leg">
	<path class="st0" d="M1289.1,1598.4c20.2-29.7,40.3-59.4,60.5-89.1c16.9-24.9,33.9-49.9,53.1-73.1c72.5-87.5,173.4-145.8,272.7-201
		"/>
	<path class="st0" d="M1651.5,1251.6c44.1-18.9,93.9-16.9,141.4-23.4"/>
	<path class="st0" d="M1359.7,1488.2c-29.5,35.9-56.1,74.3-79.3,114.5"/>
	<path class="st0" d="M1255.9,1615.4c6.9-6.2,15.2-10.8,24.1-13.4c4.3-1.3,8.8-2.2,12.2-5.1"/>
	<path class="st0" d="M1375.2,1471.6c-42.3,26.6-70.4,70.3-97,112.7"/>
	<path class="st0" d="M1315.4,1758.5c32.3-42.1,83.4-64.5,125.2-97.1c15.8-12.3,30.4-26.2,46.4-38.2c29.8-22.4,64.1-38.2,98-53.7
		c77.7-35.6,155.5-71.2,236.5-98.4c20.1-6.8,40.6-13.1,59.2-23.3c47.8-26.3,78.3-75.8,99.2-126.2"/>
	<path class="st0" d="M1431.9,1668.3c44.9-29.2,89.9-58.4,134.9-87.6"/>
	<path class="st0" d="M1287.2,1608.2c-39.5,25.8-77.8,53.3-114.8,82.4"/>
	<path class="st0" d="M1180.8,1683.9c1.4,15.4-1.2,31.2-7.6,45.3"/>
	<path class="st0" d="M1192.4,1682.8c-2.5,16.7-7.1,33-13.9,48.4"/>
	<path class="st0" d="M1169.2,1718.2c1.2,3.8,2.5,7.7,3.8,11.5"/>
	<path class="st0" d="M1209.2,1733.8c21.1-14,41.5-29.2,60.9-45.4"/>
</g>
<g id="Left_leg_enhance">
	<path class="st0" d="M1291.4,1599.3c63.8-102.2,143.2-194.7,234.6-273.2"/>
	<path class="st0" d="M1416.8,1425.5c70.5-68.4,152.2-125.2,240.7-167.7"/>
	<path class="st0" d="M1788,1226.9c-55.9,4.7-111.3,15.9-164.6,33.5"/>
	<path class="st0" d="M1506,1357.2c-57.4,36.4-106.6,85.6-142.9,143"/>
	<path class="st0" d="M1305.4,1590.7c34.1-54.9,73.5-106.4,117.5-153.8"/>
	<path class="st0" d="M1453.6,1645.9c91.8-66.3,191.8-121.5,296.9-163.8"/>
	<path class="st0" d="M1616.8,1549.9c66.1-25.8,130.9-54.6,194.5-86.2"/>
	<path class="st0" d="M1977.6,1289.5c6.2,33-6.9,67.3-27.9,93.4s-49.2,45.4-77.5,63.3"/>
	<path class="st0" d="M1931.5,1399.4c-30.3,24.8-63.3,46.2-98.4,63.7"/>
	<path class="st0" d="M1648.1,1529.5c-47.2,17.6-92.4,40.5-134.4,68.3"/>
	<path class="st0" d="M1462.5,1625.2c-13.2,8.8-26.5,17.5-39.7,26.2"/>
	<path class="st0" d="M1392.2,1687.6c56.2-39.2,112.3-78.4,168.5-117.6"/>
	<path class="st0" d="M1718.1,1505.5c57.8-22.7,113.8-49.6,167.7-80.5"/>
	<path class="st0" d="M1848.6,1454.4c15.7-6.9,30.6-15.5,44.4-25.6"/>
	<path class="st0" d="M1652,1261.7c-53.8,25.1-105.1,55.7-157.8,108.2c-35.1,29-67.1,61.9-95,97.9"/>
	<path class="st0" d="M1552,1328.7c26.6-14.3,53.3-28.7,79.9-43"/>
	<path class="st0" d="M1660.1,1267.8c14.3-4.7,28.7-9.3,43-14"/>
</g>
<g id="Right_hand">
	<path class="st0" d="M941.5,1229c9.2-22.8,26.7-41.2,45.1-57.6s38-31.7,53.3-51"/>
	<path class="st0" d="M966.7,1189.1c-1.9,2.4-3.8,5-4.9,7.9c-1,2.9-1.1,6.4,0.6,9c0.9,1.3,2.3,2.7,1.9,4.3c-0.2,0.8-0.7,1.4-1.3,2
		c-1.6,1.7-3.3,3.4-4.4,5.5c-1.1,2.1-1.5,4.7-0.6,6.8"/>
	<path class="st0" d="M943.7,1229.1c6.9-5,16.6-5,24.3-1.4s13.7,10.2,18,17.5"/>
	<path class="st0" d="M956.4,1231.3c1.9-2.5,5.3-3.5,8.3-3.1c3.1,0.3,6,1.8,8.6,3.3c18.5,10.8,32.2,31.2,30.9,52.6"/>
	<path class="st0" d="M947.5,1210.4c-0.3,4.9,2.1,9.7,5.5,13.3s7.6,6.2,11.7,9c9.3,6.2,18.2,13,25.5,21.5
		c7.2,8.5,12.7,18.8,14.1,29.8c0.4,3.3,0.5,6.7-0.5,9.9c-1,3.1-3.1,5.8-4.7,8.7c-4.1,7.2-5.7,15.4-7.3,23.5
		c-2.2,11.8-4.5,23.5-6.7,35.3"/>
	<path class="st0" d="M1001.4,1362.2c75.6-67.4,147-140.8,233-194.1c8.8-5.4,17.8-10.7,27.6-14.2"/>
	<path class="st0" d="M1061.5,1317.4c0.7-2.9,1.4-5.8,2.1-8.8c-40.6,44.5-78,93.4-99.1,149.9"/>
	<path class="st0" d="M936.6,1115.7c8,49.8,12.7,100.1,14.2,150.4c0.9,31,0.6,62.2,6.3,92.6c4.3,22.8,12,46.1,7,68.7"/>
	<path class="st0" d="M937.2,1072.2c3.7,34.4,7.3,68.8,11,103.2c2.8,25.7,5.5,51.4,8.2,77.2c5.4,51.4,10.5,102.9,15.4,154.4"/>
	<path class="st0" d="M962.6,1382.1c2.2-8.3,5.1-16.5,8.1-24.6c0.4-1,1.3-2.2,2.2-1.7c0.4,0.2,0.5,0.7,0.6,1.1
		c0.9,3.9-1.3,7.8-3.4,11.2"/>
	<path class="st0" d="M938.3,1081.5c-22.7,10.4-45.4,20.9-66.5,34.2s-40.5,29.8-54.7,50.4"/>
	<path class="st0" d="M900.5,1103.5c-33.8,13.5-64.6,34.6-89.4,61.2"/>
	<path class="st0" d="M934.3,1083.6c-20.9,7.7-39.9,19.8-59.7,30.2c-20.6,10.8-43.2,20.6-56.1,39.9"/>
	<path class="st0" d="M858.2,1121.8c-1.5-6.3,2.2-12.8,2-19.3"/>
	<path class="st0" d="M864.4,1102.3c-10.6,0.6-21.2,1.8-31.8,3.6c-4.1,0.7-8.3,1.6-11.6,4.1"/>
	<path class="st0" d="M827.2,1103.3c-6,9.1-9.7,19.7-10.5,30.5c-0.2,2.9-0.3,5.9,0.1,8.9c0.7,5.8,2.9,11.3,5.1,16.8"/>
	<path class="st0" d="M780.1,1104.9c4.9,20.3,20.3,36.2,35.2,51c8.1,8.1,16.2,16.2,24.3,24.3"/>
	<path class="st0" d="M839.4,1191.2c-0.4-4,0.3-8.1,1.9-11.7"/>
	<path class="st0" d="M847.4,1253.9c2.6,1.5,5.1,3,7.7,4.5c-6.1-11.3-11.4-23.3-14-35.9c-2.6-12.6-2.4-26.1,2.3-38.1"/>
	<path class="st0" d="M786.8,1211.5c-1.7,4.9-1,10.4,0.7,15.4c1.7,5,4.4,9.6,7.2,14c5.4,8.7,11.6,17.5,12.9,27.6"/>
	<path class="st0" d="M808,1259.8c-1.9,5.1-3.5,10.3-4.9,15.6c3.2-1.6,6.5-3.1,10-3.9c2.5-0.6,5-0.8,7.5-1.1
		c6.2-0.8,12.2-2.4,18.2-4.1c3.2-0.9,6.5-1.8,9.2-3.8c2.5-1.9,4.4-4.6,5.2-7.7"/>
	<path class="st0" d="M790.9,1208.2c12.9-5.8,25.8-11.7,38.7-17.5"/>
	<path class="st0" d="M790.1,1201.2c-4.8,0.9-9.6-1.1-14-3.2c-3.5-1.7-7-3.4-9.9-6c-4.8-4.1-7.8-10-9.6-16.1
		c-1.7-6.1-2.3-12.4-2.8-18.7"/>
	<path class="st0" d="M785.5,1213.3c-7.5-7.4-13.8-16-20.1-24.5c-5.2-7.1-10.5-14.2-14.4-22.1c-1.6-3.3-3-6.7-5.2-9.7
		c-2.1-3-5.2-5.5-9-3.2c-0.1-16.4,10.7-32.3,26-38.2c5.4-2.1,11.2-3,17-3.3"/>
	<path class="st0" d="M782.1,1105.3c-11.2-0.4-22.1,4.5-31,11.4c-10.3,8-18.8,20-17.8,32.9"/>
	<path class="st0" d="M697.2,1253.6c21-11.2,42.2-22.5,60.9-37.3"/>
	<path class="st0" d="M771.4,1309.2c6.6,4.1,13.2,8.2,19.7,12.2c0.6-0.5,0.1-1.4-0.4-2c-15.1-16.6-29.4-34.4-37.2-55.4"/>
	<path class="st0" d="M721.7,1212.2c10.2,16.2,20.3,32.3,30.5,48.5c0.7,1.2,1.5,2.4,1.2,3.8c-0.3,1.3-2.2,2.3-3,1.2"/>
	<path class="st0" d="M694.7,1291.1c5.4,1.3,11,0,16.4-1.3c24-6,48.4-12.5,69-26.1"/>
	<path class="st0" d="M710.1,1318.5c14.7-1.7,28.9-7.4,43.7-7.1c11.1,0.2,22.2,3.9,33.1,1.9c11.4-2.1,21-10.2,27.4-19.9"/>
	<path class="st0" d="M787.3,1313.4c-7.8,3.2-16.6,3.7-24.7,1.4c-3.9-1.1-7.9-2.9-11.9-2.1"/>
	<path class="st0" d="M757.7,1318.6c-8.4-9.2-17.6-17.7-27.5-25.2c-6.1-4.7-12.6-9-17.5-15c-3.5-4.3-6.4-9.7-10.9-11.7
		c-1.1-5.1-8-7.3-9.3-12.4c-0.5-2,0-4.1,0.4-6.2c1.6-7.4,2.7-15,3.2-22.5c0.2-3.9,0.4-8.1,2.9-11"/>
	<path class="st0" d="M751.4,1163.4c-12.2,4.6-25,7.5-37.7,7.1c-3.7,12.6-6.6,25.4-8.8,38.3"/>
	<path class="st0" d="M715,1172.4c-1.2,5.7-3,11.3-5.3,16.6c-1.5,3.6-3.3,7-5,10.5c-3,6.2-5.6,12.6-8,19"/>
	<path class="st0" d="M705,1206.6c-8.3,4.1-13.6,12.5-17.9,20.7c-3.3,6.2-6.3,12.5-9.1,19c-3.9,9.1-7.3,18.4-12.4,26.8"/>
	<path class="st0" d="M696.7,1218.6c-6.7,7.8-11.3,17.2-14.5,26.9s-5.1,19.8-6.9,29.6c3.8,5,6,11.1,9.5,16.3
		c4.2,6.3,10.2,11.3,16.8,15.1s13.7,6.5,20.9,8.9"/>
	<path class="st0" d="M574,1371.8c29.6-35.4,62.8-67.8,98.8-96.7"/>
	<path class="st0" d="M586.2,1371.5c26-30.4,52.3-61.2,84.9-84.4"/>
	<path class="st0" d="M606.7,1381.5c15.2-21.5,30.5-43.1,45.7-64.6c3.4-4.8,6.9-9.7,9.2-15.2"/>
	<path class="st0" d="M613.3,1405.4c-1.3-0.6-2-2.2-2.1-3.7s0.6-2.9,1.2-4.2c7.4-17.3,19.2-32.4,27.4-49.3"/>
	<path class="st0" d="M721.2,1423.7c13.1-3.1,26.8-1.7,40.3-2.5c34.8-2,68.4-19.8,89.7-47.5c3.6-4.7,6.9-9.7,10.2-14.7
		c8.2-12.4,16.4-25,21.4-39c3-8.6,4.7-18.6,0-26.4c-4.3-7.1-13-10.7-21.3-10.7c-8.3-0.1-16.3,2.8-24,6c-34.5,14.5-65.8,36.6-91,64.2
		c-7.2,7.9-13.9,16.3-18.2,26s-5.8,21-2.4,31.1c0.7,2,1.5,3.9,3,5.4c3.6,3.8,9.7,3.9,14.9,3.3c35.8-3.9,68-23,97-44.4
		c16.5-12.1,32.7-25.6,42.6-43.5c4.7-8.5,7.7-19.3,2.6-27.5c-3.6-5.8-10.5-8.9-17.3-9.9c-14.7-2.3-29.3,3.2-43.2,8.6
		c-10.5,4.1-21,8.2-31.4,12.2"/>
	<path class="st0" d="M669.3,1556.2c10.1,9.1,20.1,18.2,30.2,27.2c-14.8-29.6-36-55.4-55.2-82.4c-25.5-35.8-47.6-73.9-69.7-111.9
		c-2.9-4.9-5.8-10.6-4.1-16.1"/>
	<path class="st0" d="M654.4,1597.2c70.6-47.3,141.5-94,212.7-140.2c11.6-7.5,23.2-15,35.3-21.5c23.7-12.6,51.1-22.5,64.8-45.5"/>
	<path class="st0" d="M844.4,1512.5c-34.9-6.2-70.1-10.5-105.4-13.1"/>
	<path class="st0" d="M742.2,1507.3c-1,0.4-1.9,0.9-2.5,1.7s-0.5,2.2,0.4,2.7c0.3,0.2,0.7,0.2,1.1,0.2c5,0.2,10.1,0.1,15.2-0.3"/>
	<path class="st0" d="M899.4,1532.8c-36.2-8.3-73-14.3-110-17.8c-22.5-2.1-45.1-3.3-67.8-3.3"/>
	<path class="st0" d="M959.8,1460.5c-14.4-6.8-31.2-5.2-46.7-8.9c-8.9-2.2-17.4-6.1-26.5-7.3"/>
	<path class="st0" d="M890.4,1443.9c17.8,5.9,36.7,7.1,55.4,7.6c5,0.1,10.1,0.2,14.8,1.7c0.5,0.2,1.1,0.4,1.4,0.8
		c1,1.3-0.6,3.5,0.3,4.9"/>
</g>
<g id="Right_hand_enhance">
	<path class="st0" d="M1212.8,1171.5c-79.5,55.1-151.2,121.3-212.4,196.1"/>
	<path class="st0" d="M1003.3,1349.6c60.4-62.5,129.1-117,203.6-161.7"/>
	<path class="st0" d="M1035.1,1132.1c-27.8,26.8-53.9,55.3-78.3,85.3"/>
	<path class="st0" d="M976,1182.8c-4.2,2.8-8.4,5.6-11.5,9.5c-3.1,3.9-4.9,9.2-3.4,14c1,3.4,3.5,6.1,5.2,9.2
		c3.8,7,3.1,16.2-1.7,22.5"/>
	<path class="st0" d="M959.4,1222.1c14-2.2,28.3,5.3,36.6,16.7c8.3,11.4,11.2,26.1,10.4,40.2s-5,27.8-9.8,41.1"/>
	<path class="st0" d="M974.5,1238.7c13.7,13,24,29.7,29.3,47.8"/>
	<path class="st0" d="M989.7,1374.3c-3.8-21,1.4-43.5,14.1-60.7"/>
	<path class="st0" d="M1009.2,1345.8c51.7-64.4,115.2-119.3,186.3-161.3"/>
	<path class="st0" d="M1031.2,1334.5c23.3-33.9,52.5-63.8,85.9-87.9"/>
	<path class="st0" d="M966.6,1213.5c13-28.1,34.7-52.1,61.3-68"/>
	<path class="st0" d="M1031.9,1130.5c-27,24.4-52,51.2-74.3,80"/>
	<path class="st0" d="M939.4,1118.4c9.7,84.4,17.4,169,23,253.7"/>
	<path class="st0" d="M945.3,1206.5c1.8,46.6,3.6,93.1,5.4,139.6c0.6,15.8,1.8,32.9,8.9,42.3c9.3,1.4,18.8-6.9,18.7-16.3"/>
	<path class="st0" d="M951.8,1184.7c3.2,58.3,11.4,116.3,24.5,173.1"/>
	<path class="st0" d="M961.7,1384.6c2.7,13.1,2.9,26.7,0.5,39.9c-0.6,3.1-1.4,6.5-3.8,8.6s-6.7,2.3-8.4-0.4"/>
	<path class="st0" d="M683.8,1579.6c78.6-72.1,179.3-114.6,267-175.2c11.4-7.9,23.4-17.2,26.9-30.6c-2,0.1-3.9,0.2-5.9,0.4"/>
	<path class="st0" d="M797.2,1310.1c-35.8,17-65.8,45.9-84,81.2c-5.6,10.8-9.4,25.5-0.5,33.7c8.4,7.8,21.9,3.8,32.3-1
		c40.9-18.6,79.1-42.6,116.1-68.2c7-4.9,14.1-9.9,19-16.9s7.1-16.4,3.6-24.2s-14-12.2-21.2-7.6"/>
	<path class="st0" d="M750.4,1417.6c46.9,1.9,94.2-19.6,123.7-56.2"/>
	<path class="st0" d="M789.2,1203c-4.9,4.3-5.2,12.2-2.8,18.2s7.2,10.9,11.4,16s8,10.9,8.3,17.5"/>
	<path class="st0" d="M804.1,1240.5c-1.5,15.2-3.1,30.4-4.7,45.7"/>
	<path class="st0" d="M797.8,1276.5c10.8,4.3,23.4,3.9,33.9-1.1c10.5-5,18.8-14.4,22.3-25.5"/>
	<path class="st0" d="M793.1,1212.9c10.9-10,23.1-18.5,36.2-25.2"/>
	<path class="st0" d="M753.3,1150.8c-0.1,11.7,3,23.4,9.1,33.4"/>
	<path class="st0" d="M735.7,1152c3.9-18.2,18.5-33.8,36.5-38.8"/>
	<path class="st0" d="M778.9,1109.2c8.5,28.8,28.3,54.2,54.2,69.4"/>
	<path class="st0" d="M808.9,1171.5c19.5-25.1,45.4-45.2,74.6-58"/>
	<path class="st0" d="M812.9,1153.4c-1.6-11-1.7-22.2-0.3-33.2c0.4-3.4,1.1-6.9,3.1-9.6s5.9-4.4,9-2.9"/>
	<path class="st0" d="M813.2,1110.3c14.2-3.7,28.8-6.2,43.4-7.6c1.8-0.2,3.7-0.3,5.4,0.4c1.7,0.7,3,2.5,2.5,4.3"/>
	<path class="st0" d="M935.2,1088.5c0.2,16.4,1.7,32.9,4.5,49.1"/>
	<path class="st0" d="M756.9,1166.1c-15.9-1.7-32.3,2.4-41.4,14.6c-5.6,13.3-9.9,27.2-12.6,41.4"/>
	<path class="st0" d="M701.7,1212.3c-7.6,10.5-10.7,24.1-8.3,36.8s10.2,24.3,21.1,31.3"/>
	<path class="st0" d="M720.1,1207.8c22.8,33.4,45.5,66.9,68.3,100.3"/>
	<path class="st0" d="M695.7,1254.4c25.7-9.8,49.4-24.7,69.4-43.5"/>
	<path class="st0" d="M702.6,1294.3c27.7-11.8,54.5-25.8,80.2-41.6"/>
	<path class="st0" d="M715.8,1272.4c10.4,19,24.9,35.7,42.2,48.7"/>
	<path class="st0" d="M814.7,1300c-29.2,12-61.4,16.8-92.8,14.1"/>
	<path class="st0" d="M692.5,1217.1c-10.5,22.2-16.9,46.3-18.7,70.7"/>
	<path class="st0" d="M680,1246.4c-8.3,9.7-14.4,21.4-17.5,33.8"/>
	<path class="st0" d="M679.4,1277.5c7.9,20.9,25.5,37.8,46.6,45.1"/>
	<path class="st0" d="M666.7,1298.1c-15.3,27.7-34.1,53.4-55.8,76.4"/>
	<path class="st0" d="M647.4,1343.8c-17.1,21.3-28.8,46.8-33.9,73.6"/>
	<path class="st0" d="M671.4,1313.9c-8,10-14,21.5-17.5,33.8"/>
	<path class="st0" d="M669,1289.8c-32.6,23.3-60.2,53.6-80.5,88.2"/>
	<path class="st0" d="M673.7,1272.2c-35.5,27.3-67.9,58.7-102.8,101.3c37.8,65.3,79.5,128.4,124.8,188.8"/>
	<path class="st0" d="M668.1,1557.4c12.3,6.3,23.6,14.6,33.4,24.3"/>
	<path class="st0" d="M681.2,1571.2c58.8-36.2,117.7-72.5,176.5-108.7"/>
	<path class="st0" d="M808.8,1498.2c34.9-24.6,71.2-47.1,108.8-67.3"/>
	<path class="st0" d="M881,1455.4c30.2-14.5,59-32,85.8-52"/>
	<path class="st0" d="M842.7,1514.3c4,1.6,8.5,2,11.3-0.2c-31.1-5.4-62.2-10.8-93.3-16.2"/>
	<path class="st0" d="M834.7,1498.1c-23.4-2.7-46.7-6.7-69.7-11.9"/>
	<path class="st0" d="M964.8,1457.4c31.7-62.5,72.1-120.6,119.8-172"/>
</g>
<g id="Left_foot">
	<path class="st0" d="M857.8,1985.2c86.6-32.9,161.1-92.2,224.9-159.4"/>
	<path class="st0" d="M1063.6,1834.2c43.3-31.4,82.8-67.9,117.7-108.4"/>
	<path class="st0" d="M804.7,2018.1c59.5-20.3,115.3-51.6,163.8-91.8"/>
	<path class="st0" d="M860.8,1998.1c35.6-12.3,66.7-34.9,96.3-58.1c47.5-37.2,93-76.9,136.4-118.9"/>
	<path class="st0" d="M1333.1,1755.2c-25,16.9-42.4,44.7-46.6,74.6"/>
	<path class="st0" d="M1314.6,1782.7c-13.8,39.6-34.8,76.2-55.7,112.6c-5.8,10.1-11.6,20.2-19.6,28.6"/>
	<path class="st0" d="M1110.1,2000.6c8.9-1.5,17.4-5.1,25.6-8.9c18.2-8.5,35.8-18.4,52.7-29.4c5.6-3.7,11.1-7.5,16.1-12
		c4.3-3.9,8.1-8.3,11.9-12.7c26.7-30.9,53.5-61.8,77.6-94.8"/>
	<path class="st0" d="M928,2053.8c38.5-16.1,78.7-28,119.7-35.5"/>
	<path class="st0" d="M1237.1,1913.3c-40.9,33-82.7,65.9-130.7,87.4c-67.1,30-144,36.8-206.5,75.5c-10.8,6.7-21.1,14.3-29.4,23.8"/>
	<path class="st0" d="M948.2,2057.6c-18.1-2.2-36.3,4.3-51.4,14.5c-15.1,10.2-27.5,23.8-39.7,37.3"/>
	<path class="st0" d="M896,2041c-8.7,25.8-25.7,47.9-42.5,69.4"/>
	<path class="st0" d="M901.8,2074.4c-18.2,6-35.1,15.9-49.2,28.7c-12.6,11.4-24.3,25.9-41,28.8c-15.8,2.8-32-6.1-41.8-18.9
		c-9.8-12.8-14.3-28.8-17.6-44.5"/>
	<path class="st0" d="M792.1,2112.4c10.7-7.1,23.1-11.5,35.8-12.8c3.9-0.4,8-0.5,11.8,0.4c7.1,1.6,13,6.1,18.8,10.6"/>
	<path class="st0" d="M835.2,2118.1c3.3,8.5,3.8,18,1.5,26.8"/>
	<path class="st0" d="M844.5,2100.9c-9.7,8.9-8.4,24.1-11.4,36.9c-1.8,7.7-5.5,14.9-9.2,21.9c-15.7,29.6-33.5,58.1-53.2,85.3"/>
	<path class="st0" d="M831.2,2130.9c-15.9,3.3-32.3,4.3-48.5,2.9c-3.2-0.3-6.7-0.8-8.8-3.1c-2-2.1-2.4-5.3-2.4-8.2
		c-0.2-10.1,2.5-20.1,3.3-30.2s-0.7-21.2-7.8-28.5c-5.8-5.9-14.4-8.3-22.7-8.4c-6.9-0.1-15.1,0.6-19.2-4.9
		c-2.5-3.5-2.3-8.2-2.6-12.5s-1.6-9.2-5.6-10.9"/>
	<path class="st0" d="M765,1980.1c-0.7-3.3-1.9-7.1-5.1-8.1c-1.5-0.5-3.2-0.2-4.8,0.2c-24,5.9-45.1,23.6-69.8,23.1"/>
	<path class="st0" d="M754.8,1972.4c4.9,9.3,13.9,15.7,22.8,21.4s18.3,11.1,24.9,19.3c6.5,8.3,9.6,20.4,4.3,29.5
		c-3.3,5.7-9.3,9.3-15,12.5c-13.1,7.4-27.1,14.6-36.2,26.6"/>
	<path class="st0" d="M741,2049.3c0.2-6.1-1-12.3-3.5-17.9c-2.9-6.6-7.5-12.3-12-17.9c-2.6-3.1-5.2-6.2-8.1-9.1"/>
	<path class="st0" d="M562.6,1934.3c33.5,18.7,69.5,33,106.6,42.6c13.4,3.5,27.1,6.3,41,6.1c7-0.1,14-1,20.5-3.6"/>
	<path class="st0" d="M748,1975.8c-6.5,1.9-13.2,3.9-19.1,7.3s-11.2,8.3-13.7,14.7c-3.5,9.1-0.8,19.2-1.5,28.9
		c-0.5,8-3.5,15.8-8.2,22.2"/>
	<path class="st0" d="M718.8,1998.1c8.2-2.6,16.9-5.7,22.3-12.4c2.9-3.6,4.8-8.1,8.1-11.4"/>
	<path class="st0" d="M706.2,1986.2c0.7,7.5,1.4,15.1,0,22.5c-1.4,6.9-4.6,13.3-7.8,19.6"/>
	<path class="st0" d="M706.3,2055.9c-3.5-15.7-11.7-30.1-21.7-42.7s-21.8-23.8-33.5-34.8"/>
	<path class="st0" d="M683.8,2040.4c-9.6-13.1-19.9-25.6-30.9-37.5"/>
	<path class="st0" d="M666,1981.7c-4,20.8-13.4,40.6-27,56.8"/>
	<path class="st0" d="M718.2,2050.5c-46.9-13-92.5-31-135.6-53.6"/>
	<path class="st0" d="M585.6,1944.9c-2.5,8.1,2.5,16.4,6.2,24.1c7.1,14.7,9.8,31.6,7.7,47.8"/>
	<path class="st0" d="M582.4,1989.3c0.4,3.5,0.8,7.1,1.2,10.6"/>
	<path class="st0" d="M597.7,1952.3c6.8,13.2,13.5,26.3,20.3,39.5c3.6,7.1,7.4,14.7,6.3,22.6c-0.5,3.5-2.3,7.2-5.7,8.1
		c-4,1.1-7.8-2.2-10.7-5.2"/>
	<path class="st0" d="M643.1,1968.9c-1.7,6.2-2.3,12.7-3.9,19c-2.2,9-6.1,17.6-10,26c-4.3,9.4-9.6,19.7-19.3,23.2"/>
	<path class="st0" d="M519.2,2063.1c33.6-15.5,74-7.6,106.5,10.1c32.5,17.6,59.3,43.8,87.9,67.3s60.6,45.1,97.2,50.4"/>
	<path class="st0" d="M592.1,2131.8c15.5-8.3,34.4-8.1,51.3-3.3c16.9,4.8,32.2,13.9,47.3,22.8c21.5,12.8,43.1,25.5,64.6,38.3
		c12.1,7.1,24.2,14.3,37.4,19.2"/>
	<path class="st0" d="M826.4,2166.5c-9,18.8-20.4,36.4-33.8,52.2c-6.8,8-14.4,15.7-23.9,20.2c-12.5,5.9-27.5,5.6-40.5,0.8
		c-13-4.8-24.2-13.7-33.3-24.2c-9.1-10.4-16.4-22.4-23.2-34.5"/>
	<path class="st0" d="M678.6,2178.6c1.7,7.5,5.7,14.4,10,20.8c7.1,10.6,15.5,20.5,26,27.7c10.5,7.2,23.5,11.4,36.1,9.6
		c14.7-2.1,27.1-11.8,37.1-22.7c10-10.9,18.3-23.4,29.1-33.4"/>
	<path class="st0" d="M709.5,2264.1c25.4,2.4,51.6-9.9,66-30.9"/>
	<path class="st0" d="M729.1,2257.5c-6.1,8.3-16.4,13.2-26.6,12.8c-8.7-0.4-16.9-4.3-23.9-9.4c-12.5-9.1-22.3-22-27.5-36.5"/>
	<path class="st0" d="M655.6,2239.6c-14.7-28.9-41.5-49.5-69-66.6c-27.5-17.1-56.8-31.8-80.8-53.6c-5.8-5.3-12.2-11.3-20-11.2"/>
	<path class="st0" d="M559.7,1930c9.3,23.2,14.1,48.1,14.1,73c0,6.5-0.4,13.1-3,19s-7.8,11-14.3,11.8"/>
	<path class="st0" d="M558.7,1965.6c2.7,18.8,2.4,37.9-0.8,56.6"/>
	<path class="st0" d="M480,1832.9c8-1.3,16.1,2.4,22,7.9s10,12.7,14,19.7c15.1,26.8,30.2,53.5,45.2,80.2"/>
	<path class="st0" d="M575.1,1885.2c-19.1,0-38.2,0-57.2,0"/>
	<path class="st0" d="M677,1899.3c-52-0.1-104.1-0.2-156.2-0.3"/>
	<path class="st0" d="M471.3,1834.9c-8.8,52.7-6.3,107.6,10.6,158.2s49,96.7,92.8,127.3c34.8,24.3,77,39.4,104.2,71.8"/>
	<path class="st0" d="M463.7,1828.9c-15.1,3.9-29.8,9.5-43.6,16.6"/>
	<path class="st0" d="M414.5,1854.8c-8.8,50.8-5.7,103.7,8.9,153.2c14.1,47.8,40.9,94.6,84.5,118.7"/>
	<path class="st0" d="M755.7,1974.3c8.6,6.7,17.3,13.4,25.9,20.2c8,6.2,16.2,12.6,25.7,16c9.5,3.4,20.8,3.6,29.2-2.1"/>
</g>
<g id="Left_foot_enhance">
	<path class="st0" d="M1285.7,1606.6c-43.7,33.1-87.3,66.1-131,99.2"/>
	<path class="st0" d="M1195.7,1680c-8.9,29-23.6,56.2-42.8,79.7"/>
	<path class="st0" d="M1179.1,1693.4c-6.9,20.7-15.9,40.6-26.8,59.5"/>
	<path class="st0" d="M1202.2,1738.9c30.4-14,58.4-33.1,82.5-56.4"/>
	<path class="st0" d="M1171.9,1736.5c-38.7,36.5-77.3,73.1-116,109.6"/>
	<path class="st0" d="M1142.2,1792c-26.6,17.4-52,36.9-75.7,58.1"/>
	<path class="st0" d="M1038.9,1876.9c-48.7,34.6-97.4,69.2-146.1,103.9"/>
	<path class="st0" d="M811,2017.2c15.6-0.8,31.1-3.7,45.9-8.5"/>
	<path class="st0" d="M856.3,2098.6c47.6-31.1,101.3-53,157.2-64.1"/>
	<path class="st0" d="M1045.6,2020c46-13.6,90.1-33.7,130.6-59.5"/>
	<path class="st0" d="M1297.7,1810.8c-18.1,44.9-44.9,86.3-78.3,121.3"/>
	<path class="st0" d="M1257.1,1882.9c-38.7,44.7-89.1,79.1-144.8,98.7"/>
	<path class="st0" d="M1044.2,2010.1c38-2.9,75-17.1,105.2-40.2"/>
	<path class="st0" d="M1324.2,1762.6c-20,22.1-35,48.7-43.7,77.2"/>
	<path class="st0" d="M827,2019.7c21.3-11.7,42.6-23.4,63.9-35.1"/>
	<path class="st0" d="M993.3,1909.4c22.1-18.8,44.3-37.7,66.4-56.6"/>
	<path class="st0" d="M1065.4,1839.2c24.1-23.5,49.7-45.5,76.4-66"/>
	<path class="st0" d="M855.1,2105.1c8.9-22.6,21.1-43.9,36-63.1"/>
	<path class="st0" d="M796.6,2109.6c21.9-10.1,46.1-15.4,70.2-15.3"/>
	<path class="st0" d="M886.9,2075.1c18.9-9.7,38.3-18.3,58.2-25.8"/>
	<path class="st0" d="M566.4,1937.6c51.9,26.5,109.7,41.2,167.9,42.8"/>
	<path class="st0" d="M685,1994.1c8.9,4,19.5,1.7,28.4-2.4c8.9-4.1,16.9-10,26.1-13.4s20.2-4.2,28.1,1.6"/>
	<path class="st0" d="M752,1972.5c2.3,9.7,10.3,17.1,18.8,22.3c8.5,5.2,17.9,9.1,25.7,15.3s14,15.8,12.6,25.7
		c-1.8,12.7-14.6,20.3-26.1,26.1s-24.3,13.4-26.1,26.1"/>
	<path class="st0" d="M714.5,2001.6c10.7,13.6,21.3,27.2,32,40.9"/>
	<path class="st0" d="M713.3,2031.1c5.4,13.3,18,23.4,32.2,25.7c8.4,1.4,18.4,0.9,23.8,7.4c3.9,4.7,3.8,11.5,2.6,17.4
		s-3.5,11.8-3.5,17.9c0.1,11.4,8.7,21.5,19.2,26c10.5,4.5,22.4,4.1,33.6,1.9"/>
	<path class="st0" d="M735.8,1975.9c-6.7,1.1-12.2,6-15.6,11.9s-4.8,12.6-5.9,19.3c-2.5,14.8-3.7,29.9-3.5,45"/>
	<path class="st0" d="M705.1,1983.5c1.4,13.2-0.3,26.7-5,39.1"/>
	<path class="st0" d="M649.6,1977.4c28.5,21,50.9,50.3,63.7,83.4"/>
	<path class="st0" d="M669.5,1983.6c-6.3,20.9-16.9,40.6-31.1,57.2"/>
	<path class="st0" d="M653.4,2004c12.9,11.4,24.2,24.7,33.3,39.3"/>
	<path class="st0" d="M725.3,2049.9c-44-5.9-85.3-24.2-125.9-42.4c-7.9-3.5-17.1-9.1-16.4-17.7"/>
	<path class="st0" d="M585.9,1945.4c10.4,24.4,15.8,51,15.8,77.6"/>
	<path class="st0" d="M598.8,1954.1c9.1,16.8,17.3,34,24.6,51.7c1.5,3.8,3,7.8,2,11.8s-6.1,6.8-9.3,4.4"/>
	<path class="st0" d="M646.6,1969.4c-4,27.5-17.2,53.6-36.9,73.1"/>
	<path class="st0" d="M562.6,1930.8c7.7,24.1,15.4,49,13.6,74.2c-0.9,12.8-5.7,27.1-17.5,32.2"/>
	<path class="st0" d="M560.6,1965.4c3.2,18.7,2.2,38.1-2.7,56.3"/>
	<path class="st0" d="M519.8,2064.3c30.4-9.2,64-7.4,93.3,5c35.3,14.9,62.5,43.6,91.1,69c28.7,25.4,62.6,49,100.8,49.7"/>
	<path class="st0" d="M592.1,2132c28.4-5.6,58.6-1.6,84.6,11.1c20.5,10,38.1,25.1,57.2,37.5s41.1,22.6,63.9,21"/>
	<path class="st0" d="M838.5,2107c-2.8,34-14.2,67.3-32.8,95.8c-7.6,11.7-16.7,22.9-29,29.5c-18.4,10-41.8,7.9-60.1-2.4
		c-18.2-10.3-31.5-27.8-35.2-51.4c-55-29.6-111.2-60.1-152.2-107.2c-53.6-61.6-75.4-149.3-57-228.8"/>
	<path class="st0" d="M527,2075.1c39.7,42.8,87.3,78.2,139.7,103.9"/>
	<path class="st0" d="M472.1,1834c8.2-3.1,17.7,0,24.4,5.6s11.2,13.4,15.6,21c16.1,28.1,32.2,56.2,48.3,84.3"/>
	<path class="st0" d="M473.9,1834c-19.5,1.6-38.5,7.9-60,18.8c-18.7,84.9,2.3,177.8,55.6,246.5c7.6,9.8,16.5,19.6,28.4,23.3"/>
	<path class="st0" d="M478.2,2104.8c24,4.8,42.6,22.9,62.6,37.1c20.8,14.7,44.2,25.5,65.4,39.6c21.2,14.1,40.9,32.6,49.3,56.7"/>
	<path class="st0" d="M650.9,2222.1c5.7,10.5,11.6,21,19.8,29.7s19,15.4,30.9,16.4c11.9,1,24.7-4.7,30-15.4"/>
	<path class="st0" d="M704.4,2258.8c13.2,5.2,28.4,5.1,41.5-0.1c13.2-5.2,24.3-15.5,30.4-28.3"/>
	<path class="st0" d="M463.8,1849.2c-17.6,5.6-35.2,11.1-52.9,16.7"/>
	<path class="st0" d="M452.8,1864.7c-15.2,3.4-29.9,9.1-43.5,16.8"/>
	<path class="st0" d="M446.8,1880.9c-14.9,5.5-29.7,11-44.6,16.4"/>
	<path class="st0" d="M448,1895.7c-15.6,4.6-30.8,10.4-45.5,17.3"/>
	<path class="st0" d="M450.6,1912c-18,6.5-36,13.1-54.1,19.6"/>
	<path class="st0" d="M452.1,1928.9c-15.9,6-31.9,12-47.8,18"/>
	<path class="st0" d="M448.6,1941.9c-10.1,5.1-20.1,10.2-30.2,15.3"/>
	<path class="st0" d="M567.8,2134.8c-4.2,5.7-8.3,11.4-12.5,17"/>
	<path class="st0" d="M584.9,2137.6c-6.1,10.8-12.1,21.6-18.2,32.4"/>
	<path class="st0" d="M600.7,2139.8c-7.4,11.7-14.8,23.4-22.2,35.2"/>
	<path class="st0" d="M611.6,2151.8c-5.9,10.6-11.7,21.2-17.6,31.8"/>
	<path class="st0" d="M622.1,2163.6c-7.1,10.6-14.2,21.1-21.3,31.6"/>
	<path class="st0" d="M641.1,2165.4c-9.7,12.5-18.1,26.1-25,40.3"/>
	<path class="st0" d="M654.3,2175.8c-7.8,13.3-15.5,26.5-23.3,39.8"/>
	<path class="st0" d="M670.3,2186.8c-7.5,13-14.9,26-22.4,39.1"/>
	<path class="st0" d="M675.2,2209.8c-4.5,7.9-9.1,15.9-13.6,23.9"/>
	<path class="st0" d="M506,1908c27.6,0,55.2,0,82.8,0"/>
</g>
<g id="Laces">
	<path class="st0" d="M724.9,1979.8c42.6-30.9,56.3-90.7,98.5-122.2c22.7-16.9,52.5-23.8,80.3-18.6s53.1,22.4,68.2,46.3"/>
	<path class="st0" d="M958,1856.6c-1.2,6.4-6.4,12-12.8,13.6"/>
	<path class="st0" d="M722.2,1996c15.8-3.3,25.8-18.5,34.4-32.2c13.4-21.3,27.5-42.4,45.1-60.4s38.8-33.1,62.9-40.3
		c24.1-7.3,51.3-6.2,73.3,5.9"/>
	<path class="st0" d="M752.1,2073c0.6,28.2,24,51.6,50.2,62.1c26.2,10.5,55.1,11.2,83.2,13.7c58,5.1,117.2,19.6,163.2,55.2
		c7.4,5.7,14.5,12.1,19.3,20c4.9,8,7.3,17.8,4.9,26.8"/>
	<path class="st0" d="M732.8,2073.2c8.8,31.7,33.6,57.2,62.5,73c28.9,15.8,61.7,22.9,94.2,27.8s65.5,7.9,97.4,16.1
		s63.1,22.3,85.9,46.1c12.5,13.1,22.6,31.7,16.7,48.9"/>
</g>
<g id="Laces_enhanced">
	<path class="st0" d="M706.7,1995.8c26.9-13.4,45-39.4,60.9-65c15.8-25.6,31.2-52.6,55.5-70.4c22.5-16.5,51.8-23.6,79.4-19.1
		c27.6,4.5,53.2,20.4,69.4,43.2"/>
	<path class="st0" d="M931.7,1866.4c-26.7-14.8-60.7-11.7-87.9,2c-27.2,13.8-48.6,36.8-66.7,61.4c-18.1,24.6-33.4,51.1-52.4,75"/>
	<path class="st0" d="M961.9,1849.9c-4.9,11.3-14.4,20.5-25.8,25"/>
	<path class="st0" d="M732.6,2070.7c9.1,36.1,39.4,63.9,73.2,79.4s71.5,20.5,108.4,25.3s74.5,9.8,108.4,25.2
		c33.9,15.4,64.2,43.1,73.5,79.2"/>
	<path class="st0" d="M748.6,2072.9c14.1,33.6,47,56.2,81.6,67.9s71.3,14.3,107.4,19.7s72.9,14.2,102,36.1
		c17.9,13.4,33.1,34.2,30.1,56.4"/>
	<path class="st0" d="M1081.9,2221.6c3.2,13.6,3,28-0.5,41.6"/>
</g>
<g id="Right_leg">
	<path class="st0" d="M1031,1416.7c66-55.6,135.5-107.1,207.9-154"/>
	<path class="st0" d="M1634.6,1237.9c-76.2-24.6-158.6-17.9-238.4-10.9c-52.2,4.6-105.3,9.4-153.6,29.6
		c-56.4,23.7-102,66.6-146.4,108.7"/>
	<path class="st0" d="M1627.1,1228.8c-81.5-9-163.7-17.9-245.2-9.5c-81.5,8.4-163.4,35.6-223.9,90.9"/>
	<path class="st0" d="M1632.6,1239.9c-106.7-22.7-217.8-24.8-325.2-6c-30.3,5.3-60.9,12.5-85.6,27.2
		c-72.2,32.7-127.7,92.6-181.3,151"/>
	<path class="st0" d="M1226.8,1270.2c-64.6,38.4-124.5,84.5-178.2,137.1"/>
	<path class="st0" d="M1103.5,1359.5c-11.6,19.6-29.6,35.4-50.5,44.4"/>
	<path class="st0" d="M1066.6,1384c-12.8,10.6-26.6,19.9-40.6,26.6c0.7,5.8,0.5,11.6-0.3,17.4"/>
	<path class="st0" d="M1027.6,1420.4c7.7,38.9,22.9,76.4,44.5,109.7"/>
	<path class="st0" d="M1041.3,1408.1c-7.6,2.4-12.8,9.9-14.4,17.7s-0.4,15.9,1.4,23.7c3.5,15.3,9.1,30.2,16.5,44
		c6.5,12.2,16.2,24.8,29.9,26.5"/>
	<path class="st0" d="M1058.5,1508.8c-2.2,5.7,1.4,12.2,6.6,15.4c5.2,3.2,11.5,3.8,17.5,4.4c72.8,7.7,143.4,30.6,209.4,62.3"/>
	<path class="st0" d="M1294.5,1596.1c-54.5-28.3-113.4-48-174-58.3c-11.4-1.9-23-3.6-34-7.1s-21.7-9-29.5-17.7"/>
	<path class="st0" d="M1108.3,1542.2c-19.9-4.7-38.3-15.8-51.9-31.2"/>
	<path class="st0" d="M1360,1486.9c-24.8-45.9-74.4-77.4-126.5-80.4"/>
	<path class="st0" d="M1159.5,1411c22.6-0.8,44.7-6.1,67.1-8.4c22.4-2.3,46.2-1.3,66,9.4c27.8,15,42.8,45.9,65.8,67.6"/>
	<path class="st0" d="M1371.3,1478.4c-15.9-16-34.9-29-55.6-38.1"/>
	<path class="st0" d="M1416.2,1422.3c-30.7,2.1-61.1,9.2-89.6,20.8"/>
	<path class="st0" d="M1319.3,1436.8c31.4-6.2,62.8-12.3,94.1-18.5"/>
	<path class="st0" d="M1405,1408.7c-30.7,7-61.4,14-92.1,21"/>
	<path class="st0" d="M1136.6,1404.1c14.3-6.2,29.8-9.6,45.4-10.2"/>
	<path class="st0" d="M1141.2,1389.3c15.5,0,31,2.2,45.9,6.5"/>
</g>
<g id="Right_foot">
	<path class="st0" d="M1420.7,1675.2c23.2,12.2,44.9,27,64.6,44.2"/>
	<path class="st0" d="M1490.9,1618.9c3.1,7.8,8.3,14.9,14.9,20.1"/>
	<path class="st0" d="M1499.1,1626.3c13.5,16.1,32.7,27.3,53.4,31.1"/>
	<path class="st0" d="M1542.8,1652.3c-8.4-0.7-15.6-6.1-22-11.6s-12.8-11.6-20.9-14"/>
	<path class="st0" d="M1502.4,1635.7c40.2-27,80.6-53.7,121.3-80"/>
	<path class="st0" d="M1542.6,1709.6c8.9-7.3,12.6-19.3,14.2-30.7s1.7-23.2,5.4-34.2c3.8-10.9,12.4-21.3,23.9-22.6
		c3.5-0.4,7.3,0,10.3-2s3.3-7.6-0.2-8.3"/>
	<path class="st0" d="M1536.5,1650.5c6.7,5.5,15,9,23.7,9.8c2.5,0.2,5.4,0.1,7.1-1.7c1.4-1.5,1.6-3.7,1.3-5.7
		c-0.7-5.3-4.8-10.1-10-11.5"/>
	<path class="st0" d="M1483,1733c1.1-3.6,4.2-6.4,7.6-8c3.4-1.6,7.3-2.1,11-2.2c11.6-0.6,23.2,1.3,34.7,0.4s23.7-5.4,29.7-15.2
		c3.8-6.3,4.7-13.9,4.8-21.3c0.2-8.8-0.4-17.8-3.6-26.1c-3.2-8.2-9.4-15.6-17.6-18.7"/>
	<path class="st0" d="M1487.2,1721.8c-2.8,54.8-16.1,108.5-30.2,161.5c-1.4,5.3-2.9,10.8-5.9,15.4c-1.8,2.9-4.5,5.5-7.8,6
		c-3.3,0.5-7.2-2-7-5.4"/>
	<path class="st0" d="M1435.9,1907.5c-1.1-3.2-1-6.8,0.4-9.9"/>
	<path class="st0" d="M1400,1903c0.5-4.3,4.1-7.7,8.1-9.1s8.4-1.3,12.7-1c15.5,1.2,30.8,4.4,46.4,5.4c15.5,1,31.8-0.5,45.3-8.1"/>
	<path class="st0" d="M1426.8,1738.7c7.3,4.1,11.3,12.4,13.3,20.6c1.9,8.2,2.2,16.7,4.5,24.8"/>
	<path class="st0" d="M1465.8,1718.2c-1.2,1.4-2.4,2.7-3.5,4.1c-5.7-4.6-14.8-2.9-19.8,2.3c-5.1,5.2-6.8,13-6.4,20.3
		c0.3,7.3,2.4,14.4,3.9,21.6c2.1,10.1,2.9,20.5,2.5,30.8c-1.9,0-3.6-1.5-3.9-3.3"/>
	<path class="st0" d="M1441.8,1779c5.4,3.7,9.4,9.4,11,15.8"/>
	<path class="st0" d="M1455.6,1788.6c-5.5,13.3-11.7,26.3-17.6,40.2c14.7-23.9,29.4-47.7,44.1-71.6"/>
	<path class="st0" d="M1454.9,1798.6c0.2,1.6,0.5,3.3,0.8,4.9c5.2-3.9,10.4-7.8,15.6-11.6c2.8-2.1,6.2-4.2,9.4-2.8"/>
	<path class="st0" d="M1451.9,1696.4c1.2,5.4,2.4,10.7,3.6,16.1"/>
	<path class="st0" d="M1456.6,1696.9c5.9,9.7,14.6,17.6,24.8,22.6"/>
	<path class="st0" d="M1392.9,1791.9c-13.9,7.4-25.4,18.6-36.7,29.7c-8.3,8.1-16.9,16.6-21.1,27.5c-2.2,5.6-2.8,12.6,1.1,17.1
		c2.7,3.2,7.2,4.4,11.4,4.1c4.2-0.3,8.1-1.9,11.9-3.8c31.7-15.4,54.4-44.5,72-75"/>
	<path class="st0" d="M1376.3,1813.6c-15.1,17.2-23.2,40.3-22,63.2c0.2,4.8,1.3,10.2,5.3,12.8c5.5,3.5,12.5-0.4,17.6-4.3
		c30.2-23.5,53.3-55.7,67.1-91.4"/>
	<path class="st0" d="M1335.4,1870.4c5.2,1.8,6.4,8.9,11.1,11.7c3.3,2,8,1.1,10.3-2"/>
	<path class="st0" d="M1382.4,1949.8c23.7-16.7,37.6-44.1,46.9-71.6c9.3-27.5,15.1-56.2,27.3-82.6"/>
	<path class="st0" d="M1437.9,1829.8c4.5-8.7,13-14.4,21.3-19.6s17-10.4,22.4-18.6"/>
	<path class="st0" d="M1453.8,1805.3c1.9,8.8,6.2,17.1,12.2,23.8"/>
	<path class="st0" d="M1446.3,1813.7c1.8,7.5,4.8,14.8,8.7,21.4"/>
	<path class="st0" d="M1424.4,1863c13.2-17.6,30.4-32.1,50-42"/>
	<path class="st0" d="M1424.6,1869.1c14.5-11.5,30.2-21.6,46.8-29.9"/>
	<path class="st0" d="M1451.1,1848.3c0.7,7.3,2.8,14.4,6,21"/>
	<path class="st0" d="M1444.4,1853.8c0.7,9.1,3.8,18,8.9,25.5"/>
	<path class="st0" d="M1447,1881.2c-12.4-6.2-28.4-4.3-39,4.6"/>
	<path class="st0" d="M1345.2,1995c-3.9-1.4-5.4-6.5-4.3-10.5c1.1-4,4.1-7.2,7-10.2c17.7-18,36.7-34.7,56.7-50.1"/>
	<path class="st0" d="M1337.7,2005.7c1.6,5.5,1.1,11.3,0.5,17c-0.6,5.7-1.3,11.5-0.4,17.1s4,11.2,9.1,13.8
		c0.8-9.3,1.5-18.5,2.3-27.8"/>
	<path class="st0" d="M1648.4,1657.3c3.7,21.8-4.2,44.4-16.9,62.6s-29.8,32.6-46.9,46.8c-17.1,14.1-34.4,28.3-47.7,46
		c-22.5,30.2-31.6,70-24.3,107"/>
	<path class="st0" d="M1565.5,1858.9c-8.9-16.2-4.8-36.8,4.8-52.6c9.6-15.8,23.9-28,36.8-41.1c9.3-9.5,18.1-19.5,26.1-30.1
		c6.9-9,13.4-18.6,17.1-29.4s4.5-22.9,0-33.3"/>
	<path class="st0" d="M1513.8,1752.8c24.6,0.2,50.1-10.5,63.6-31.1c7.7-11.8,11-25.7,14.8-39.2c6.9-24.2,16.2-48.1,31.1-68.5
		s35.8-37.1,60.2-43.2c5.1-1.3,10.5-2.1,15.6-1s10,4.5,11.8,9.4"/>
	<path class="st0" d="M1703.1,1587.9c-28.4-2.7-56.2,12.6-74.7,34.3c-18.7,22-29,50.1-33.6,78.5c-2.6,16.3-4.4,34.6-17,45.2
		c-7.4,6.2-17.5,8.5-27.1,8.2c-9.6-0.4-19-3.2-28.2-6.2"/>
	<path class="st0" d="M1560.6,1753.5c-16.9-2.7-33.6-7.3-49.5-13.6"/>
	<path class="st0" d="M1519.3,1739.2c-2.9-1.8-6.9-0.4-9,2.3s-2.8,6.1-3.4,9.5c-0.5,2.8-0.9,5.6-0.3,8.3c0.6,2.7,2.6,5.3,5.3,5.9
		s6-1.6,5.8-4.4"/>
	<path class="st0" d="M1373.5,1997.6c51.5-15.7,104.8-32.4,144.6-68.6c32.2-29.2,52.7-68.6,76.8-104.8
		c26.8-40.3,58.6-77.2,94.4-109.8"/>
	<path class="st0" d="M1356.8,2042.9c28.5-13.2,59.9-18.5,90.6-25.6c30.6-7.1,61.7-16.6,86.1-36.4c24.5-20,39.9-48.6,56.1-75.7
		c37.5-62.8,82.1-121.5,132.6-174.4"/>
	<path class="st0" d="M1372.2,2034.3c54.1,4.5,109.7-13.8,150.5-49.5"/>
	<path class="st0" d="M1380.6,2030.4c33-1.2,65.8-8.7,96-22"/>
	<path class="st0" d="M1354.2,2040.7c13.2-4.3,26.4-8.7,39.6-13"/>
	<path class="st0" d="M1522.8,1981.3c71-67.7,111.3-162.2,180.2-232.1"/>
	<path class="st0" d="M1615.9,1937.4c-24.4,3.3-49,4.5-73.6,3.6"/>
	<path class="st0" d="M1594.2,1919.9c-16.1-1.3-32.3-1.2-48.4,0.3"/>
	<path class="st0" d="M1790.3,1739.4c-24.3-2-48.7-4-73-6"/>
	<path class="st0" d="M1726.2,1730.9c-1.4,5-4.6,9.6-8.8,12.5c-7.7-11.2-12.9-24-15.4-37.4"/>
	<path class="st0" d="M1701.3,1755.2c3.7-10.5,9.8-20.1,17.6-27.9"/>
	<path class="st0" d="M1744.8,1729.2c1.8-1.1,1.3-4.1-0.4-5.3c-1.7-1.2-3.9-1.3-6-1.2c-11.3,0.1-22.6,0.2-33.8,0.4"/>
	<path class="st0" d="M1722.6,1733.6c-20.1-23.5-40.5-47.3-65.8-65.1c-22.4-15.8-48-26.4-73.4-36.9"/>
	<path class="st0" d="M1720.7,1568.3c-3,6.3-5.9,12.6-8.9,18.9"/>
	<path class="st0" d="M1716.8,1574.1c13.7,2.2,26.6,9,36.1,19.1"/>
	<path class="st0" d="M1527.7,1863.7c-11.6,11.3-22.3,23.4-32.1,36.3"/>
</g>
<g id="Right_foot_enhance">
	<path class="st0" d="M1518.4,1919.2c-7.1-23.9-4.4-50.5,7.9-78.8c19.8-33.7,45.6-63.8,75.9-88.5"/>
	<path class="st0" d="M1567.2,1861.7c-7.4-9.3-6.8-22.7-3.7-34.2c8.4-31.2,32.1-55.7,54.8-78.6"/>
	<path class="st0" d="M1498.7,1930.4c4-37.4,12.9-74.3,26.6-109.4"/>
	<path class="st0" d="M1533.7,1807.5c34.3-31.2,68.5-62.3,102.8-93.5"/>
	<path class="st0" d="M1689.3,1709.3c-35.7,27.4-65.8,62.1-87.8,101.3"/>
	<path class="st0" d="M1595.2,1820.4c-34.5,60.1-82.6,112.2-139.7,151.5"/>
	<path class="st0" d="M1367.3,1991.8c38.8-1.5,77-14,109.2-35.7"/>
	<path class="st0" d="M1351.1,1995.1c-4.2-0.4-6.9-5.1-6.6-9.3c0.3-4.2,2.8-7.9,5.3-11.2c12.7-16.5,29.6-29.2,46.2-41.6"/>
	<path class="st0" d="M1385.2,1955.2c34.1-44.7,59.1-96.2,73.3-150.5"/>
	<path class="st0" d="M1490.8,1731.6c-7.5,42.9-15.1,85.9-22.6,128.8c-2.8,16.2-6.6,33.8-19.5,43.9"/>
	<path class="st0" d="M1416.6,1889.4c16.5,3.3,33,6.6,49.8,7.2s33.9-1.5,49.1-8.7"/>
	<path class="st0" d="M1592.4,1703.4c-0.3,10.3-0.6,20.8-3.8,30.6s-9.6,19.1-19,23.2c-16.9,7.4-36.9-3.4-51.5-1.8
		c20.4,0,39.1-12.7,51.3-29c12.2-16.3,19-35.9,25.4-55.2s12.7-39.1,24.1-55.9c17.5-25.7,46.8-42.9,77.7-45.6"/>
	<path class="st0" d="M1719.4,1735.7c-65.7,60.5-118.6,134.8-154.1,216.7"/>
	<path class="st0" d="M1694.5,1714.2c-29.2,25.4-54.6,55.1-75.2,87.8"/>
	<path class="st0" d="M1576.3,1863.8c-25.4,40.9-62.6,74.4-105.8,95.6"/>
	<path class="st0" d="M1354.7,2000.3c2.6,12.3,7.1,24.3,13.3,35.3"/>
	<path class="st0" d="M1373.8,2013.3c3.1,5.4,6.2,10.7,9.3,16.1"/>
	<path class="st0" d="M1388.8,2007.3c4.1,6.4,8.3,12.8,12.4,19.2"/>
	<path class="st0" d="M1405.2,2000c6.8,9.6,13.5,19.2,20.3,28.8"/>
	<path class="st0" d="M1425.2,1994.1c8.1,10.9,16.2,21.8,24.3,32.7"/>
	<path class="st0" d="M1595.7,1837.1c3,11.2,8.1,21.8,14.9,31.2"/>
	<path class="st0" d="M1601.8,1824.9c6.3,7.4,12.7,14.9,19,22.3"/>
	<path class="st0" d="M1613.7,1808.9c6.8,8.3,13.6,16.7,20.3,25.1"/>
	<path class="st0" d="M1629.5,1791c6.7,9.2,13.3,18.3,20,27.4"/>
	<path class="st0" d="M1639.7,1781c4.5,6.3,9,12.6,13.5,18.8"/>
	<path class="st0" d="M1654.3,1767.8c3.8,5.2,7.7,10.3,11.5,15.5"/>
	<path class="st0" d="M1507.4,1928c-2.3-15.6-1.2-31.7,3.1-46.9"/>
	<path class="st0" d="M1368.1,1809.9c-15.2,9-26,24.9-28.8,42.3c-1.5,9.8,0.1,21.3,8.2,26.9c5.4,3.8,12.8,4.1,19.1,2.2
		s12-5.8,17.2-9.8c20.3-15.8,37.3-36,49.4-58.8"/>
	<path class="st0" d="M1460.5,1720.2c-4.9-2.1-10.8,0.6-14,4.8c-3.2,4.3-4.2,9.7-4.8,15c-2,17.8,0.1,35.7,2.2,53.4"/>
	<path class="st0" d="M1477,1762c-5.5-2.7-12-3.4-17.9-2"/>
	<path class="st0" d="M1484.4,1738.2c-5.6-2.2-11.7-3.2-17.7-2.7"/>
	<path class="st0" d="M1423.4,1925.1c8.1-0.2,16-3.6,21.9-9.1s9.6-13.3,10.2-21.4"/>
	<path class="st0" d="M1421.1,1681.5c19.2,8.6,37.5,19,54.6,31.2"/>
	<path class="st0" d="M1493.5,1720c8.5,1.9,17.1,3.8,25.7,3.5c8.7-0.3,17.6-3,23.8-9.1"/>
	<path class="st0" d="M1494.1,1628.6c14.7,13.7,33,23.6,52.5,28.5"/>
	<path class="st0" d="M1551.3,1701.1c7.8-1.8,13.5-10.3,12.1-18.2"/>
	<path class="st0" d="M1578.7,1640.6c-0.6-2.4,1.7-4.9,4.1-5.3s5,0.5,7.3,1.4c7.5,3.2,14.7,6.9,21.5,11.3"/>
	<path class="st0" d="M1639.4,1663.8c19.5,8.1,36.5,22.2,48.2,39.8"/>
	<path class="st0" d="M1625.2,1871.5c24.2-41.9,53.8-80.6,87.8-114.9"/>
	<path class="st0" d="M1678,1812.9c16.5-21.7,36.2-41.1,58.1-57.3"/>
	<path class="st0" d="M1720,1779.6c5.6-5.9,11.2-11.7,16.8-17.6"/>
</g>
</svg>
