<?xml version="1.0" encoding="utf-8"?>
<!-- Generator: Adobe Illustrator 27.5.0, SVG Export Plug-In . SVG Version: 6.00 Build 0)  -->
<svg version="1.1" id="Layer_1" xmlns="http://www.w3.org/2000/svg" xmlns:xlink="http://www.w3.org/1999/xlink" x="0px" y="0px"
	 viewBox="0 0 2000 2000" style="enable-background:new 0 0 2000 2000;" xml:space="preserve">
<style type="text/css">
	.st0{fill:none;stroke:#000000;stroke-miterlimit:10;}
</style>
<g id="Layer_2_00000041973740815272267880000004462738461602841006_">
	<path class="st0" d="M1438.1,689.7c2.3,16,4.5,32,3.7,48.1s-5.1,32.4-14.8,45.3c-3.3,4.5-7.3,8.5-10.3,13.2
		c-3,4.7-5.1,10.4-4.1,15.9s5.9,10.5,11.5,10.2"/>
	<path class="st0" d="M1436,740c-2.3-4.2-5.4-8.1-9.5-10.6c-4.1-2.5-9.4-3.2-13.8-1.2"/>
	<path class="st0" d="M1434.4,735.8c0.8-3.6-0.3-7.7-2.9-10.3c-2.6-2.6-6.7-3.8-10.3-2.9"/>
	<path class="st0" d="M1398.4,766.8c2.8-4.7,7.3-8.5,12.4-10.5c1.7-0.7,3.7-1.2,5.4-0.5s3.1,2.7,2.2,4.4"/>
	<path class="st0" d="M1408.8,753.3c-3.6-1.3-7.8-1.1-11.2,0.7c-3.4,1.8-6.1,5-7.2,8.7"/>
	<path class="st0" d="M1414.6,769.9c-6.4,5.2-10.8,12.9-12.2,21.1c-0.2,1.5-0.2,3.5,1.2,4.2c1.6,0.8,3.3-0.8,4.3-2.2
		c1.8-2.3,3.4-4.8,5-7.3c1.5-2.4,2.9-4.8,3.5-7.5C1417.1,775.5,1416.9,772.5,1414.6,769.9z"/>
	<path class="st0" d="M1415.6,779.7c-1.6-1.8-4.6-1.7-6.6-0.2s-3,3.8-3.8,6c-0.8,2.3-1.5,4.7-2.9,6.6"/>
	<path class="st0" d="M1388.7,782.1c0.3,3.8,2.4,7.5,5.5,9.7c3.1,2.2,7.2,3.1,10.9,2.2"/>
	<path class="st0" d="M1424.7,821.6c0.8,4-0.4,8.3-3.2,11.3c-2.8,3-7,4.5-11,4c-2.2-0.3-4.3-1.1-6.5-1c-2.2,0.1-4.6,1.6-4.6,3.8
		c0,2.2,2.3,3.7,3,5.8c1.2,3.6-3.2,7-7,6.5c-3.8-0.5-6.8-3.3-9.7-5.7c-8.3-7-18.3-11.9-28.8-14.4"/>
	<path class="st0" d="M1360.8,827.5c-6.1,5.7-9.3,13.9-10.5,22.1s-0.8,16.6-0.6,24.9c0.1,2.6,0.1,5.3-0.9,7.8s-3.2,4.5-5.8,4.6
		c-4.3,0.1-6.7-4.8-8-8.9"/>
	<path class="st0" d="M1347.4,856c3.1,4.2,6.2,8.5,9.2,12.7c0.4,0.5,0.9,1.2,1.5,1.3c0.8,0.2,1.6-0.5,1.9-1.3s0.2-1.7,0.1-2.5
		c-1.2-7.3-4.7-14.2-9.9-19.5"/>
	<path class="st0" d="M1356.9,832.5c2.2,3.9,4.5,7.8,7.4,11.2c2.9,3.4,6.6,6.3,10.8,7.7c4.3,1.4,9.2,1.1,12.9-1.5"/>
	<path class="st0" d="M1266.4,819c10.8,24.6,21.8,49.6,39.1,70.1c1.8,2.2,3.8,4.3,6.2,5.9c2.4,1.5,5.4,2.4,8.2,1.8"/>
	<path class="st0" d="M1277.1,860c3,2.4,6.9,3.2,10.7,3.8s7.7,0.9,11.1,2.7s6.2,5.4,5.6,9.2"/>
	<path class="st0" d="M1297,867.2c2.3,5.6,5.1,11.2,9.3,15.5c4.2,4.4,10.1,7.5,16.1,7.3c6.1-0.2,12.1-4.4,13.4-10.3"/>
	<path class="st0" d="M1297.4,876.7c2.8,5.1,6.5,9.7,11.4,12.8s11,4.5,16.6,3.1c5.6-1.4,10.6-5.8,11.8-11.5"/>
	<path class="st0" d="M1286.6,859.5c-4.8-5.2-12.2-7.5-19.2-7.6c-7.1,0-14,1.9-20.8,4.2"/>
	<path class="st0" d="M1253.1,848.7c-10.7,15.2-17.7,33.1-20,51.5"/>
	<path class="st0" d="M1232.8,844.3c0.7,17.3-3.4,34.7-11.6,50"/>
	<path class="st0" d="M1210.1,785.9c2,13,14.6,21.5,21,33.1c2.3,4.2,3.8,8.7,5.2,13.2c2.2,7,4.5,13.9,6.7,20.9"/>
	<path class="st0" d="M1192.7,788.4c1.9,5.1,4.4,9.9,6.4,14.9c9.6,23.3,9.3,49.6,6.3,74.6"/>
	<path class="st0" d="M1170.9,841.6c10.2-9.3,17.7-21.6,21.2-35c1.8-6.6,2.6-13.8,0.2-20.2c-1.9-5-5.5-9.2-9.2-13.1
		c-6.8-7.2-14.1-13.9-21.9-20.2"/>
	<path class="st0" d="M1179.2,764.4c-13.3-3.3-27.2-3.9-40.8-1.8"/>
	<path class="st0" d="M1298.4,803.8c-18.6-13.3-40-22-61.5-29.7c-16.9-6.1-34.2-11.7-52.2-12.6"/>
	<path class="st0" d="M1315.2,802.1c-24.1-21.2-54.3-34.6-85.7-41.3c-31.3-6.7-63.8-6.8-95.7-3.4"/>
	<path class="st0" d="M1203.2,782.6c-19.6-22.4-46.8-37.9-76-43.5"/>
	<path class="st0" d="M1335.9,791.7c-17.8,7.2-34.9,16.4-50.7,27.2"/>
	<path class="st0" d="M1325.6,782.8c-19.6,7.1-37,18.9-54.2,30.7"/>
	<path class="st0" d="M1178.3,741.1c-16.9-9.2-34.6-17.1-54-24.2c4.2,6.8,8.3,14.3,7.4,22.2"/>
	<path class="st0" d="M1165.4,706.3c-6.9-2.5-13.8-5-20.9-6.5c-7.2-1.5-14.6-2-22.6-0.2c15.4,5.7,29.4,15.2,40.4,27.4"/>
	<path class="st0" d="M1211.3,745.1c3.5,3.4,7.7,6.1,12.2,8c6.3,2.7,13.7,3.9,18.4,9"/>
	<path class="st0" d="M1247.6,751.5c-4.5,0.2-9-1.2-13-3.1c-3.5-1.7-6.9-3.8-10.7-4"/>
	<path class="st0" d="M1225.3,700.8c0.9,16.8-0.7,33.5-2.3,50.2"/>
	<path class="st0" d="M1354.6,697c-4.4,6.2-7.3,13.3-9.6,20.6c-4.9,15.7-7.2,32.2-6.8,48.6c0.2,7.5,1,15,0.6,22.5
		s-2.1,15.1-6.3,21.3"/>
	<path class="st0" d="M1323.2,711.5c-1.6,17.2-2,34.6-1.2,51.9c0.4,7.8,1,15.7,3.3,23.2c2.3,7.4,6.2,14.5,6.5,22.2"/>
	<path class="st0" d="M1312.8,746.3c-3.8-4.5-7.9-8.6-12.4-12.4c-3.6-3-7.7-5.9-12.4-6.6"/>
	<path class="st0" d="M1279.3,778c-4.7-5.4-5.4-13.2-4.7-20.4c1.2-11.8,6.2-24,16.2-30.4"/>
	<path class="st0" d="M1296,740.1c0.2,3.5,2.2,6.5,3.8,9.7s2.8,6.9,1.2,10"/>
	<path class="st0" d="M1289.1,747.3c-0.1-1.5-0.5-3.4-2-3.7c-0.8-0.2-1.7,0.3-2.2,1.1c-0.5,0.7-0.7,1.6-0.8,2.4
		c-1.1,5.7-1.2,11.5-0.4,17.3"/>
	<path class="st0" d="M1290.6,767.5c1-2,3-3.4,5.2-3.6c2.2-0.2,4.4,0.9,5.7,2.7c0.8,1.2,1.2,2.6,1.4,4.1c0.8,6.2-2.3,12.6-7.2,16.5"
		/>
	<path class="st0" d="M1395,680c-11.2,12.5-24.2,23.3-38.5,32"/>
	<path class="st0" d="M1345.7,716.1c28.7-3.5,55.8-18.3,74.4-40.4"/>
	<path class="st0" d="M1376.1,707.9c10.6-2.5,21.3-5,31.1-9.7c9.8-4.7,18.7-12,23.5-21.7"/>
	<path class="st0" d="M1435.2,789.5c6-7.5,9.3-16.9,10.6-26.5c1.3-9.5,0.9-19.2,0.2-28.8c-0.4-6.7-1-13.3-1.6-20
		c-0.8-8.7-1.8-17.5-6-25.2"/>
	<path class="st0" d="M1476.7,750.8c-4.8-22.4-17.9-42.5-34.4-58.4s-36.2-28.2-56.3-39"/>
	<path class="st0" d="M1329.1,643.3c24.2,1.8,48.1,8.1,70.1,18.4"/>
	<path class="st0" d="M1351,641.3c-12-4.6-25.5-2.7-37.9,0.7c-12.4,3.3-24.6,8.1-37.4,9c-5.4,0.4-10.8,0.1-16.2,0.5
		c-17.9,1.2-35.2,10.2-46.5,24.1"/>
	<path class="st0" d="M1300.4,644.5c-15.6,10-27.5,24.6-39.2,39"/>
	<path class="st0" d="M1301.9,659.6c-14.2,6.3-27.8,14.2-40.1,23.7"/>
	<path class="st0" d="M1345,650.8c-7.8,4.7-16.7,7.2-25.6,9.5c-5.4,1.4-10.8,2.7-16.3,2.9c-4.5,0.2-8.9-0.3-13.4-0.8
		c-18.6-2.1-37.2-4.2-55.8-6.3"/>
	<path class="st0" d="M1285,666.4c26.7,0.7,53.4-2.4,78.9-9.7c-3.7,3.3-8.2,5.5-12.7,7.6c-25.6,11.8-53.3,19-81.4,21.2"/>
	<path class="st0" d="M1333.3,672.2c0,7.8-5.2,14.5-10.7,19.9c-5.3,5.3-11.3,10-17.7,14"/>
	<path class="st0" d="M1387.2,664c-11,6.2-22,12.5-32.9,18.7c-16.2,9.2-32.6,18.5-50.7,23"/>
	<path class="st0" d="M1308.4,729.8c-6.2-9.3-13.5-18.1-22.9-24.3c-5.3-3.4-11.1-5.9-16.8-8.4c-7.3-3.2-14.6-6.3-22-9.5
		c-5-2.2-10.3-4.4-15.8-4.1"/>
	<path class="st0" d="M1254.2,678.5c-11.1,2.1-22.3,3.6-33.5,4.5c-3.7,0.3-7.3,0.5-10.9-0.1c-4.9-0.9-9.3-3.3-13.7-5.6
		c-7.3-4-14.8-8-20.3-14.2c-5.5-6.1-8.8-13.8-11.4-21.6c-7.1-21-9.8-43.6-9.7-64.8c-5.3,21.7-2,45.3,8.9,64.8"/>
	<path class="st0" d="M1271.5,756.7c-21.3-21-45.3-39.3-71.2-54.3c-8.4-4.9-17.2-9.6-24.1-16.4c-10.1-10-15.3-23.8-19.6-37.3
		c-6.5-20.4-11.5-42.3-7.7-62.2c-5.9,27.8,0,56.5,5.9,84.3"/>
	<path class="st0" d="M1149.1,591.3c-6.8,16.7-7.5,35.4-4.5,53.2s9.3,34.8,16.2,51.5s15.1,34.1,30.4,43.7"/>
	<path class="st0" d="M1128.6,672.6c15.1,7.9,27.9,20,36.5,34.7"/>
	<path class="st0" d="M1150.5,670.8c-5.8,2.8-12.5,2.9-18.9,2s-12.6-2.7-19-3.4c-6.2-0.6-12.4-0.2-19.2-0.6c8-1.4,15.9-3.3,23.7-5.7
		c3.9-1.2,7.9-2.7,10.6-5.9"/>
	<path class="st0" d="M1050,620c11.7-0.6,23,3.7,33.6,8.8c24.1,11.4,46.2,26.8,65.4,45.4"/>
	<path class="st0" d="M1241.1,679.8c-14.3-15.9-34.4-25.6-55-31.4c-20.6-5.8-42-8-63.2-11.1c-4.4-0.7-8.7-1.3-13-2.4
		c-5-1.3-9.8-3.1-14.7-4.7c-13.4-4.4-27.3-7.1-41.1-9.8"/>
	<path class="st0" d="M1177.9,644.4c-26.4-4.2-50.6-17.2-76.8-22.7c-6.9-1.5-13.9-2.4-20.9-3.3c-4.8-0.6-9.5-1.2-14.3-1.9"/>
	<path class="st0" d="M1435.4,684.1c-4.6-6-9.3-12.2-15.1-17.1c-10.4-8.7-23.6-13.1-36.5-17.2"/>
	<path class="st0" d="M1400.8,656.2c-14.1-11.4-31-19.3-48.8-22.6c-7.2-1.3-14.7-1.9-22-1.3c-3.2,0.3-6.4,0.8-9.6,1.4
		c-31.3,6.2-60.4,23.1-81.3,47.2"/>
	<path class="st0" d="M1319.5,634.6c-11.4-0.7-23-0.3-34.3,1.3c-7.4,1-14.8,2.6-21.6,5.7c-8.2,3.7-15.2,9.6-22.2,15.3"/>
	<path class="st0" d="M1370.2,639c-11.1-5.5-23.7-6.5-36.1-7.4c-11.3-0.9-22.7-1.7-34.1-1.5c-23,0.5-45.9,5.6-67,15"/>
	<path class="st0" d="M1193.3,639.5c4.8,1.3,9.7,2.5,14.6,3.8c13.5,3.5,27.3,7.1,41.2,5.7"/>
	<path class="st0" d="M1154.1,592.8c13.7,18.2,30.6,34.5,51.2,44.1c14.8,6.9,30.9,10.3,46.9,13.5"/>
</g>
<g id="Layer_3_copy_3">
	<path class="st0" d="M1138.6,622.5c-22.2-14.8-46.6-26.2-71.5-33.2c-3.6-1.5-5.7-5.3-7-9c-3.5-9.6-4-20.2-1.3-30"/>
	<path class="st0" d="M1063.2,587.7c-7.1-12.7-9.6-27.9-6.9-42.2"/>
	<path class="st0" d="M1046.5,567.5c7.8,6.3,15,13.4,21.3,21.1"/>
	<path class="st0" d="M1086.2,601.4c-1.3-11.8,0.4-23.8,4.8-34.8"/>
	<path class="st0" d="M1083.3,571.7c-10.8-7.8-20.4-17.1-28.6-27.6"/>
	<path class="st0" d="M1097.3,564.8c-14.1-6.2-28.1-12.8-41.9-19.6"/>
	<path class="st0" d="M1130.9,582c-5.8,1.8-12.2,0.3-17.7-2.3s-10.6-6.1-16.2-8.5s-12.1-3.5-17.7-1.1"/>
	<path class="st0" d="M1078.9,552.1c13.1,2.1,22.9,12.9,34.5,19.4c13.7,7.5,29.8,8.9,45.3,10.1c25.7,2,51.5,4,77.2,6"/>
	<path class="st0" d="M1228,583.2c25.4-2.3,50.8-4.7,75.6-10.7s49-15.8,68.9-31.7"/>
	<path class="st0" d="M1103.8,558.5c31.4,4.8,62.7,9.5,94.1,14.3c30.1,4.6,60.5,9.1,90.7,5.9s60.7-15.3,80-38.8"/>
	<path class="st0" d="M1272.1,583c32.4,4.8,66.3-1.8,94.5-18.4"/>
	<path class="st0" d="M1300.6,633.1c10.3-15.2,24.1-28,40-37.3"/>
	<path class="st0" d="M1301.4,628.1c10.8-10.5,24.1-18.3,38.5-22.5"/>
	<path class="st0" d="M1421.6,821.1c15.7,2.9,31.7-2.4,47-7.2c15.3-4.8,31.7-9.3,47.1-4.7"/>
	<path class="st0" d="M1502,816c7.4-8.5,19.5-12.8,30.6-10.8c6.2,1.1,12,4,18.3,4.5c9.5,0.8,18.4-4,27-8.2s18.1-8.2,27.3-5.9"/>
	<path class="st0" d="M1599.8,805.8c18.1-29.1,45.4-52.4,76.9-65.7"/>
	<path class="st0" d="M1665.7,749.3c12.7-10.8,18.7-29,14.8-45.3"/>
	<path class="st0" d="M1680.1,713.6c-9-21.2-29.2-37.1-51.9-41.1"/>
	<path class="st0" d="M1669.2,682c-13.3-7.8-29.2-11.1-44.3-9.3c-1.1,5.5,1.1,11,2.2,16.5c2.1,11-0.5,22.9-7.2,31.9"/>
	<path class="st0" d="M1636,685c4.5,10.4,6.7,21.8,6.2,33.2"/>
	<path class="st0" d="M1652.8,693.2c-0.6,5.7-3.9,10.7-7,15.6s-5.8,10.4-5.1,16.1"/>
	<path class="st0" d="M1665.8,696.9c-2.6,3.9-6.3,6.7-9.7,9.8s-6.6,6.9-7.3,11.5"/>
	<path class="st0" d="M1584.6,716.2c24.9-0.9,49.8-0.2,74.7,2.1"/>
	<path class="st0" d="M1552.6,743.3c3.8-2.9,8.9-3.3,13.6-4.1c4.7-0.8,9.9-2.5,12.1-6.7c1.5-2.8,1.4-6.3,2-9.4
		c0.6-3.2,2.7-6.6,5.9-6.8"/>
	<path class="st0" d="M1586.9,716.3c2.5,3.2,4.6,6.7,5.4,10.7s0.2,8.3-2.2,11.5c-2.1,2.8-5.4,4.6-8.7,5.9
		c-13.3,5.3-28.5,5.5-43.1,0.6c7.5-0.5,15.1-1.9,21.6-5.5s11.9-9.9,13.3-17.3c0.9-5.1-0.6-11.1-5.2-13.6c-3.3-1.8-7.4-1.3-11.1-0.4
		c-6.4,1.5-12.5,4-18.1,7.2"/>
	<path class="st0" d="M1569.3,726.5c-16.8,4.4-34.8,1-50.6-6.3c-15.7-7.3-29.4-18.2-41.9-28.8c-17.9-15.9-28.6-38.3-39.6-59.6
		c-17.3-33.5-36.7-65.9-58-97.1"/>
	<path class="st0" d="M1434.1,630.1c-5.4,0.4-10.7-2.5-14.3-6.5c-3.7-4-6-9.1-8.2-14c-8.2-18.4-15.7-37-22.6-55.9"/>
	<path class="st0" d="M1453.2,661c-19.2-11.5-40.6-19.3-62.6-22.7"/>
	<path class="st0" d="M1431.7,639.4c-23.8-10.7-49.1-18.2-75-22"/>
	<path class="st0" d="M1406,599c-10.2-0.6-20.4-1.3-30.6-1.9c-3.8-0.2-7.7-0.5-11.5,0.3s-7.4,2.8-9.4,6.1"/>
	<path class="st0" d="M1413.8,573.6c-21.5-3-44.4,5.1-59.1,21"/>
	<path class="st0" d="M1390.6,510.1c11.9,27,21.7,55,33.9,81.9c12.2,26.9,27.1,53,47.9,74s48,36.7,77.4,39.4"/>
	<path class="st0" d="M1478.3,685.7c5.8-37.3,0.4-75.6-8.8-112.2s-22-72.3-31.4-108.9"/>
	<path class="st0" d="M1398.5,334c28.7,94.1,47.5,191.2,55.8,289.2"/>
	<path class="st0" d="M1459.5,666.7c-1.1-12.5-2.3-25.1-5.9-37.2s-10-23.6-19.9-31.3"/>
	<path class="st0" d="M1478.9,631.9c9-27.5,13.4-56.5,13-85.4"/>
	<path class="st0" d="M1525.9,462.7c-1.5,36.4-13,72.3-32.9,102.8"/>
	<path class="st0" d="M1466.5,564.8c25.7-30.5,46.5-65.2,61.2-102.3"/>
	<path class="st0" d="M1447.2,614c-5.2-22.7-11-46.3-26-64.2c-4.5-5.3-10-10.2-16.8-11.7c-7.5-1.7-15.3,1-22.1,4.6
		s-13,8.3-20.2,11.2c-7.2,2.9-15.7,3.7-22.2-0.4"/>
	<path class="st0" d="M1388.2,472.1c11.1,25.8,22.2,51.6,33.2,77.4"/>
	<path class="st0" d="M1398.8,486.1c-14.2-5.9-28.4-12.3-40.6-21.7s-22.4-22-26.3-36.9"/>
	<path class="st0" d="M1261.7,364.2c29,34,60.9,65.5,95.2,94.2"/>
	<path class="st0" d="M1373.2,449.1c-31-24.4-50.3-63-51.1-102.4"/>
	<path class="st0" d="M1392.2,422.9c-13.1-16.2-32.8-25.4-52-33.5c-19.2-8.1-39.2-16.2-53.8-31c-8.6-8.7-15.3-19.7-25.6-26.4
		c-10-6.5-22.3-8.2-34.2-8.9s-24-0.6-35.4-4"/>
	<path class="st0" d="M1362,467.1c0.2-24.9-10.1-49.6-27.8-67.1c-7.6-7.5-16.5-13.6-23.7-21.5c-6.2-6.8-11.1-14.8-15.8-22.7"/>
	<path class="st0" d="M1355.1,462.2c1-20.5-6.6-40.7-18.4-57.4c-5.4-7.5-11.7-14.5-15.5-23c-2.1-4.5-3.3-9.4-6-13.6
		c-3.5-5.5-9.1-9.4-15.1-12s-12.4-3.8-18.9-5"/>
	<path class="st0" d="M1343.6,446.1c-2.5-18.4-6.7-36.6-12.5-54.2"/>
	<path class="st0" d="M1300.4,356.3c-6-1.6-12.4-2.1-18.6-1.5"/>
	<path class="st0" d="M1307,374c-17.9-7.5-27.7-27.5-45-36.4c-19-9.8-42.8-3.9-62.6-12.2"/>
	<path class="st0" d="M1273.8,342.2c-37.8-19.6-79.3-32.2-121.6-36.9"/>
	<path class="st0" d="M1158.6,313.3c-8.7-4-14.9-11.8-21-19.3c-6.1-7.4-12.7-15-21.7-18.3"/>
	<path class="st0" d="M1115.5,271.9c1.6,15.2,6.8,30.1,15.1,43"/>
	<path class="st0" d="M1111.4,271c-3.8,21.7,0.4,44.6,11.5,63.6c9.8,16.7,24.7,30.2,32.5,47.9"/>
	<path class="st0" d="M1109.7,274.3c-6.2,16-6.2,34.3,0.1,50.2"/>
	<path class="st0" d="M1104.8,260.8c-6.3,9.8-6.4,22.7-2.2,33.5c4.2,10.8,12.4,19.7,21.6,26.7"/>
	<path class="st0" d="M1198.3,334.4c-29.3-8.2-56.4-24.2-77.7-46"/>
	<path class="st0" d="M1224.7,330.9c42.9,41.7,79.9,89.6,109.5,141.6"/>
	<path class="st0" d="M1285.3,363.9c-30.1-1.9-60.8-5.4-87.8-18.9c-13.1-6.5-25.1-15.3-37.9-22.4c-12.8-7.1-27.2-12.6-41.8-11.8"/>
	<path class="st0" d="M1120.4,303.5c10,28.5,23.6,55.7,40.4,80.7"/>
	<path class="st0" d="M1130.4,316.7c25.4,22.8,51.2,45.9,81.9,60.8c30.5,14.9,65.2,21,99,17.6"/>
	<path class="st0" d="M1184.9,355c32.6,21.4,69.4,36.6,107.6,44.5"/>
	<path class="st0" d="M1245.1,373.7c-28.2,5.7-58.2,2.2-84.3-9.8"/>
	<path class="st0" d="M1278.6,438.4c-14.1-6.8-29.3-10.8-44.2-15.6s-29.8-10.7-41.7-20.8c-14.5-12.2-23.7-29.5-32.4-46.2"/>
	<path class="st0" d="M1259.5,454.5c-24.1-14.2-47.4-29.9-68.5-48.2c-21.1-18.4-39.9-39.5-54.1-63.6"/>
	<path class="st0" d="M1247.7,441.7c-3.9,12.5-4.5,26-1.7,38.8"/>
	<path class="st0" d="M1223.1,516c1.1-8.9,6.1-16.8,11.7-23.7c5.7-6.9,12.1-13.1,17.1-20.6s8.3-16.4,6.8-25.2"/>
	<path class="st0" d="M1233.6,484.1c3.1,6.9,2.2,14.8,0.4,22.2s-4.3,14.6-4.4,22.1c-0.1,7.5,3,15.7,9.7,19.1"/>
	<path class="st0" d="M1232.2,528.6c-4.7,11.5-4.6,24.9,0.2,36.3"/>
	<path class="st0" d="M1236.2,515.9c16.8,2.7,34.6-0.9,49.1-9.9"/>
	<path class="st0" d="M1209.9,562.7c16.5,0.9,33.1-0.4,49.1-4.1c10.7-2.4,21.1-5.9,31.8-8.2c7.7-1.7,15.5-2.8,23.1-5
		s15-5.6,20.5-11.2"/>
	<path class="st0" d="M1335.4,490.8c11.6-4,24.1-5.4,36.2-3.8c4.6,0.6,9.2,1.6,13,4.3c3.8,2.7,6.4,7.3,5.6,11.9"/>
	<path class="st0" d="M1132.9,349.4c-19.1-19.4-28.2-48.3-23.5-75.1"/>
	<path class="st0" d="M1144.3,316.2c15.1,7.9,28.5,18.6,43.1,27.2c14.6,8.7,31.3,15.4,48.2,13.9"/>
	<path class="st0" d="M1179.9,328c-20.2-8-38.6-20.6-53.2-36.6"/>
	<path class="st0" d="M1117.3,310.3c-2.4-9.1-4-18.3-4.9-27.7"/>
	<path class="st0" d="M1124.2,325.5c4.7,7.2,10.5,13.7,17.1,19.3"/>
	<path class="st0" d="M1140.6,334c-11.7-11.3-20.6-25.4-26.1-40.7"/>
	<path class="st0" d="M1177.7,372.9c-14.1-9.6-25.3-23.2-32.3-38.7"/>
	<path class="st0" d="M1120.4,290.2c4.2,5.6,9.4,10.6,15.2,14.5"/>
	<path class="st0" d="M1140.6,320.7c15.4,11.3,31.9,21.2,49.1,29.4"/>
	<path class="st0" d="M1151.3,338.7c8.9,9.8,19.6,18,31.4,24.1"/>
	<path class="st0" d="M1119.5,292.3c13.7,13.8,29.1,25.8,45.9,35.5"/>
	<path class="st0" d="M1159.2,311.9c13.1,7.3,27.3,12.7,42,16"/>
	<path class="st0" d="M1168.4,338.4c14,7.5,28.9,15.2,44.8,14.4"/>
	<path class="st0" d="M1141.8,325.5c17.6,5.5,35.9,8.4,51.9,11c15,1.9,29.8,4.5,44.6,7.7"/>
	<path class="st0" d="M1170.2,316.2c16.5,0.5,33,3.6,48.6,9"/>
	<path class="st0" d="M1176.9,369.3c5.7,15.2,19.2,25.9,32,35.8"/>
	<path class="st0" d="M1188,367.4c11.6,11.7,24.1,22.5,37.4,32.2"/>
	<path class="st0" d="M1189.5,352.1c16,13.9,34.1,25.3,53.5,33.8"/>
	<path class="st0" d="M1205.2,344.8c15.1,8.6,30.8,16.3,46.9,23"/>
	<path class="st0" d="M1226.7,333.2c2.2-0.7,4.6,0,6.8,0.8c13.7,4.8,26.3,12.6,36.7,22.7"/>
	<path class="st0" d="M1277.7,348.2c-0.9,5.8,3.5,10.9,7.5,15.1c4.2,4.3,8.3,8.7,12.5,13c5.6,5.8,12,12,20,12.4"/>
	<path class="st0" d="M1550.3,721.8c-18.6,4.5-39.5-1.5-52.7-15.4"/>
	<path class="st0" d="M1559.5,719.1c-18.4-2.2-36.4-8.3-52.2-18"/>
	<path class="st0" d="M1529.4,714.3c-20.2-3.7-38.9-15.2-51.3-31.7"/>
	<path class="st0" d="M1507.3,706.8c-11-3.2-20.9-9.6-29.4-17.2c-8.6-7.6-15.9-16.4-23.3-25.2"/>
	<path class="st0" d="M1501.7,698.1c-22.5-13.4-41.6-32.5-55.1-55"/>
	<path class="st0" d="M1537.9,709.9c-14.3-5.5-27.8-13.2-39.7-22.9"/>
	<path class="st0" d="M1454,550.1c5.6,38.7,7.5,77.9,5.4,116.9"/>
	<path class="st0" d="M1462.7,588.4c5.8,27.5,7.7,55.8,5.5,83.8"/>
	<path class="st0" d="M1476.5,620.1c0.6,12.6,1.1,25.1,1.7,37.7"/>
	<path class="st0" d="M1468.1,573.5c4.6-10.9,10-21.6,16.1-31.7"/>
	<path class="st0" d="M1471.1,600.6c4.5-17.5,10.7-34.5,18.6-50.8"/>
	<path class="st0" d="M1478.3,613.7c1.4-14.6,4.2-29.1,8.3-43.2"/>
	<path class="st0" d="M1499.4,538.4c4.2-10.3,9.7-20,16.5-28.8"/>
	<path class="st0" d="M1439.2,645.4c-13.9-11.2-30.9-18-48.3-22.1c-17.4-4.1-35.3-5.6-53.1-7.1"/>
	<path class="st0" d="M1417.9,624.7c0.3-5.2-6.1-7.9-11.2-9c-29.9-6.4-60.5-9.8-91.1-10.2"/>
	<path class="st0" d="M1405.1,606c-6.6-6.8-15.7-10.7-25-12.5c-9.3-1.8-18.8-1.7-28.3-1.6"/>
	<path class="st0" d="M1417.4,592.8c-14.2-8.4-30.1-14-46.4-16.2"/>
	<path class="st0" d="M1451.2,661.2c1.5-30.6-11.3-61.7-34-82.3"/>
	<path class="st0" d="M1426.7,589.5c-2.4-9.8-7.6-19-14.8-26.1"/>
	<path class="st0" d="M1436,646.8c-27.9-19.6-63.4-23.6-97.3-27.1"/>
	<path class="st0" d="M1438.9,664c-18.4-10.7-39.2-17.2-60.3-19.1"/>
	<path class="st0" d="M1454.8,676.8c-15.7-6.4-31-14-45.5-22.7"/>
	<path class="st0" d="M1171.6,593.2c24.4,7.4,50.7,8.7,75.7,3.7"/>
	<path class="st0" d="M1177.4,610.2c24.2,2.1,48.7,2.1,72.9,0"/>
	<path class="st0" d="M1248.5,595.5c22.6-0.1,45.3-2.5,67.5-7"/>
	<path class="st0" d="M1321.5,631.5c-35.1-5.7-71.9-0.5-104,14.7"/>
	<path class="st0" d="M1218.9,635.8c44.2-15.7,93.3-17.3,138.4-4.6"/>
	<path class="st0" d="M1391.9,641.3c-41-21.4-86.8-33.4-133-35.1"/>
	<path class="st0" d="M1322.9,630.7c-22.5-15.3-49.3-24.3-76.5-25.8"/>
	<path class="st0" d="M1297.6,620.3c-38.2-2-76.5-0.9-110.2,4.7c24.6,1.2,49.2,2.4,73.8,3.5"/>
	<path class="st0" d="M1269,723c-10.5-16.2-28.3-25.9-46-33.4c-8.5-3.6-17.2-6.9-25.1-11.6c-20.1-12-33.7-32.4-43.2-53.8"/>
	<path class="st0" d="M1236.9,719.5c-10.2-0.5-19-7.1-26.8-13.7c-23.3-19.7-44.9-44.5-49.3-74.7"/>
	<path class="st0" d="M1200.9,719.5c-6.1-0.7-11.5-4.3-15.7-8.8s-7.1-10-9.9-15.4c-9.3-17.9-17.6-36.9-19.2-57"/>
	<path class="st0" d="M1185.3,721.6c-13.6-10.9-23.1-26.4-28.7-42.9c-5.6-16.5-7.6-34-8.2-51.5"/>
	<path class="st0" d="M1288.6,719.4c-25.5-31.9-63.6-53.5-104-59.2"/>
	<path class="st0" d="M1211.2,666.3c-30-11.9-60.9-21.3-92.4-28.1"/>
	<path class="st0" d="M1284.1,649.8c-39.6,0.8-77.3-20.9-120.6-17.9c9.3,2.7,16.6,9.7,23.9,16.1c22.3,19.5,48.1,35,75.8,45.5"/>
	<path class="st0" d="M1266.1,653.3c-24-7-47.1-17.2-68.5-30.3"/>
	<path class="st0" d="M1234.6,664.3c-7.8,1.9-15.6-2.5-22.3-7c-13.6-9.1-26.7-19.2-37.5-31.5"/>
	<path class="st0" d="M1387.1,667c-31.3,21.3-65.2,38.7-100.8,51.7"/>
	<path class="st0" d="M1277.9,726.3c-8,0.8-14.5-5.9-20.7-11c-11.7-9.7-26.5-15.4-37.4-26"/>
	<path class="st0" d="M1249.3,732c-23.3-4.1-46.5-15.7-59-35.8"/>
	<path class="st0" d="M1204.2,740.7c-6-3-9.6-9.2-12.8-15.1c-2.6-4.8-5.2-9.6-7.9-14.4c-4.2-7.7-8.5-15.6-9.9-24.3"/>
	<path class="st0" d="M1344.3,700.8c-12.3,25.8-12.7,55.7-9.1,84.1"/>
	<path class="st0" d="M1330.7,704c-2.9,19.3-4.1,38.9-3.6,58.4"/>
	<path class="st0" d="M1318.7,762.2c-0.2-9-2.2-17.9-6-26c-4-8.8-10-16.5-15.1-24.7"/>
	<path class="st0" d="M1388.1,677.1c-11.8,5.1-23.1,11-34,17.9"/>
	<path class="st0" d="M1153.2,354.6c-4.9-8.9-8.4-18.6-10.3-28.6"/>
	<path class="st0" d="M1239.6,545.8c-6.2-3.4-9.3-10.9-9.6-17.9s1.7-14,3.2-21c1.5-6.9,2.4-14.3,0.2-21"/>
	<path class="st0" d="M1354.9,459.8c-0.2-9.6-1.1-19.1-2.7-28.6"/>
	<path class="st0" d="M1339.5,415.2c5.3,4.8,9.1,11.2,10.9,18.1"/>
	<path class="st0" d="M1344.7,435.5c3.9,7.6,7.6,15.2,11.2,23"/>
	<path class="st0" d="M1361.6,458.2c-4.5-8.9-8.9-17.8-13.4-26.7"/>
	<path class="st0" d="M1286.4,356.9c10.9,3,21.3,7.9,30.6,14.4"/>
	<path class="st0" d="M1270.9,342.5c15.9,16.4,32.2,32.3,49,47.8"/>
	<path class="st0" d="M1265.8,336.5c-13.2-7.3-28.5-10.7-43.6-9.9"/>
	<path class="st0" d="M1632.5,716c2.8-7,4.5-14.5,4.8-22.1"/>
	<path class="st0" d="M1641.4,712.3c-5.4-7.2-8.9-15.8-9.9-24.7"/>
	<path class="st0" d="M1587.8,726.4c2.6,1.8,3,5.7,1.7,8.5s-3.9,4.9-6.5,6.7"/>
	<path class="st0" d="M1552.2,744.2c6.6,2.3,14,2.2,20.4-0.5c6.4-2.7,11.8-7.9,14.7-14.2"/>
</g>
<g id="Layer_4_copy_2">
	<path class="st0" d="M908.3,634c17.3,20.3,33,41.5,53,59.4c5.5,4.9,11.3,9.7,17.2,14.1"/>
	<path class="st0" d="M906.7,679.2c17,20.3,34.3,40.4,52,60.1"/>
	<path class="st0" d="M906.5,682.1c15.8,18.8,31.7,37.6,47.5,56.4c4.5,5.3,9,10.7,13.5,16"/>
	<path class="st0" d="M910.2,681.9c-5.3-5.5-7.6-13.1-7.7-20.4s2-14.6,4.5-21.5c3.3-9.1,7.5-18,13.9-25.3
		c6.4-7.4,15.2-13.1,25.2-14.6"/>
	<path class="st0" d="M946.7,593.2c-12.3,4.2-21,15.1-25.2,26.9c-4.2,11.8-4.6,24.6-4.4,37.1"/>
	<path class="st0" d="M917.3,646c1.4-7.7,2.9-15.7,7-22.4c4.2-6.7,11.6-12.1,19.9-11.8c4.6,0.2,8.8,2.1,13,4
		c7.1,3.3,14.1,6.6,21,10.3c9.2,4.9,18.3,10.3,25,18.1c11.9,13.7,14.7,32.9,11.1,50.1"/>
	<path class="st0" d="M953.2,623.4c1.8,8.7,6.7,16.5,9.8,25c3.1,8.4,4,18.4-1.6,25.4"/>
	<path class="st0" d="M934,628.8c13.5,6.5,23.3,19.8,25.2,34.1"/>
	<path class="st0" d="M925,649.1c35.8,39.6,71.7,79.3,102.3,122.7"/>
	<path class="st0" d="M958.5,602.7c-1.8-4.3-6.6-7-11.5-7.5s-9.6,1.1-13.9,3.1c-10,4.6-18.7,11.9-24.5,21"/>
	<path class="st0" d="M922.7,608.6c25.5-6,53.5-1.7,76.1,11.6"/>
	<path class="st0" d="M925.4,615.7c10.5-4.2,22.5-5.2,33.7-2.6c11.2,2.6,21.5,8.6,29.1,17"/>
	<path class="st0" d="M943.7,606.7c6.9,0.7,13.4,3.6,19.1,7.3c5.8,3.7,10.9,8.3,15.9,12.8"/>
	<path class="st0" d="M971.5,616.4c7.6-1.3,15.5,1.2,21.9,5.4s11.5,10,16.3,15.8c12.2,15,22.7,31.3,31.2,48.4
		c3.6,7.3,6.9,14.8,11.2,21.8s9.8,13.5,16.8,18"/>
	<path class="st0" d="M983.9,624.5c12.4,5.2,21.4,15.7,29.4,26.2c9.6,12.5,18.3,25.7,26.2,39.2"/>
	<path class="st0" d="M1007.9,651.4c14.3,12.8,20.6,31.6,33.1,46"/>
	<path class="st0" d="M1040.4,671.8c3.8,10.6,10.8,19.9,18.1,28.8s14.8,17.6,20.1,27.7c5.2,10,8,21.7,5,32.4"/>
	<path class="st0" d="M1104.6,789c1-11.3,1-23.2-4.5-33.2c-3.7-6.8-9.7-12.1-15.6-17.3c-6.9-6.1-13.8-12.3-20.8-18.4"/>
	<path class="st0" d="M1124.7,794.2c-2.8-24.2-17.8-47-39.5-60.1"/>
	<path class="st0" d="M1091.6,771.6c0.1-13.6-3.7-27.2-9.4-39.8s-13.1-24.5-20.4-36.3"/>
	<path class="st0" d="M1075.2,769.2c9.9-8.4,14.7-21.9,12.1-34.3"/>
	<path class="st0" d="M1055.2,756.7c7.8-0.3,15.5-3.4,21.1-8.6c5.6-5.2,9-12.5,9.4-19.9"/>
	<path class="st0" d="M1063.1,761.6c10.1-3.5,18.3-11.4,21.9-21"/>
	<path class="st0" d="M1000.2,767.3c8.5-5.5,16.3-12.2,23-19.6c2.7-3.1,5.3-6.3,6.9-10.1c1.6-3.8,2-8.1,0.4-11.9
		c-1.7-4-5.3-7-9.4-8.8c-4.1-1.8-8.5-2.7-12.9-3.4"/>
	<path class="st0" d="M980.2,760.1c10.9-8.1,19.1-19.4,23.1-32"/>
	<path class="st0" d="M965.4,752.7c10.2,2.4,21.2-1.2,28.8-7.9c7.6-6.7,12.2-16.1,14.4-25.8c1.3-5.4,1.8-11.4-1-16.4
		c-2.1-3.7-6-6.4-10-8s-8.5-2.4-12.9-3.1"/>
	<path class="st0" d="M984.4,703.8c3.2-4,1.7-10.4-2.4-13.7c-4.1-3.3-10.1-3.8-15.2-2.2c-5,1.6-9.2,4.9-12.8,8.7"/>
	<path class="st0" d="M977.9,688.9c1.5-0.5,2.3-2.2,1.9-3.7c-0.4-1.5-1.7-2.6-3.2-3.1c-1.5-0.5-3.1-0.5-4.7-0.4
		c-7.2,0.7-14,4.5-18.1,10.2"/>
	<path class="st0" d="M978.5,683.2c0.1-2.7-2.3-5-5-5.7c-2.7-0.7-5.5-0.1-8.1,0.9c-5.4,2-10.2,5.5-13.6,9.9"/>
	<path class="st0" d="M973.5,678.2c0.7-0.9,0-2.3-1.1-2.8c-1.1-0.5-2.3-0.3-3.5-0.1c-10.5,1.8-20.2,7.3-26.9,15.1"/>
	<path class="st0" d="M971.9,675.8c-4.9-3-11.1-4-16.7-2.8"/>
	<path class="st0" d="M939.8,722.1c6.8,2.5,14.5-0.3,19.7-5.1s8.1-11.2,11-17.4"/>
	<path class="st0" d="M945.2,725.2c9.7-1.5,18.5-7.1,23.6-15.1"/>
	<path class="st0" d="M954.6,719c9.8,10.3,19.5,20.5,29.3,30.8"/>
	<path class="st0" d="M943.3,722c-2.6,1.5-3.7,4.8-2.8,7.6c0.9,2.8,3.6,4.9,6.5,5.6s6.1,0.4,9-0.7s5.3-2.8,7.7-4.6"/>
	<path class="st0" d="M947.5,708.6c-1.6-7.8,0.7-16.1,3.9-20.2c-5.3,3.9-9.2,9.4-11.1,15.6c-1.9,6.1-1.6,12.9,0.6,19"/>
	<path class="st0" d="M948.4,694.2c-6.3,8.4-8,19.8-4.3,29.6"/>
	<path class="st0" d="M923.5,702.3c-2,16.4,3.2,33.7,14.2,46.8"/>
	<path class="st0" d="M930.2,711.9c-0.5,10,6.2,19.1,14.3,25.4s17.8,10.5,26.6,16c10.9,6.8,20.3,15.5,29.6,24.2
		c25.3,23.5,50.5,47,75.8,70.5"/>
	<path class="st0" d="M971.1,752.8c-1,5.3-1.9,11.2,1.3,15.7c1,1.4,2.4,2.5,3.9,3.3c3.7,2,8.2,2.1,12.3,1.3s7.9-2.6,11.7-4.4"/>
	<path class="st0" d="M956.2,740.6c16,8.2,30.2,19.8,41.1,33.8"/>
	<path class="st0" d="M981.1,748.4c42.9,35.9,86.1,72.2,121.3,115.1"/>
	<path class="st0" d="M1012.4,764.4c32.1,26.2,59.5,57.2,88.4,86.6c28.9,29.4,60.1,57.7,97.5,76.5"/>
	<path class="st0" d="M1055.1,808.6c40.9,42.6,84.4,83,130.1,120.9"/>
	<path class="st0" d="M1028.5,757.8c44.3,36.5,89.1,72.6,134.2,108.2"/>
	<path class="st0" d="M1019.2,740.5c26.9,26.1,56.5,49.8,88.2,70.5"/>
	<path class="st0" d="M1022.5,728.8c82.1,88.7,175.8,167.9,278.1,235"/>
	<path class="st0" d="M1183.4,872.8c58.1,41,116.1,82,174.2,122.9"/>
	<path class="st0" d="M1336.5,980.6c10.6,10.3,19.7,22.1,26.7,34.8c1.2,2.3,2.5,4.8,2,7.3c-0.6,3.4-4,5.7-7.2,7.4
		c-12.7,7.1-27.6,13-41.9,9.5c-9.8-2.4-17.8-8.8-25.5-14.9c-34.2-27.3-69.6-53.4-105.9-78.2"/>
	<path class="st0" d="M1345.3,1041.9c-0.5-7.4-4.8-14.3-10.5-19.4c-5.7-5.2-12.6-8.9-19.4-12.6"/>
	<path class="st0" d="M1348.3,1024c-11.3-13.7-25.2-25.1-39.1-36.5c-50.3-41.2-100.7-82.6-156-117.5"/>
	<path class="st0" d="M1326.4,994.4c8.3,9,15.2,19.2,20.5,30.1"/>
	<path class="st0" d="M1332.3,1038.3c-53.3-34.2-104.4-71.8-152.6-112.4"/>
	<path class="st0" d="M1249,955.9c0.6,6.9,4.1,13.2,6.8,19.6c2.7,6.4,4.8,13.5,2.8,20.2"/>
	<path class="st0" d="M1245.4,964.4c2.6,26.7-5.3,54.1-21.7,75.8"/>
	<path class="st0" d="M1062.8,829c42.1,48,89.6,91.8,141.5,130.2"/>
	<path class="st0" d="M1232.2,905.6c7.3-5.3,13.7-11.8,18.8-19.2"/>
	<path class="st0" d="M1256,923.4c4-5.5,5.7-12.5,4.5-19.1c-1.1-6.6-5-12.8-10.6-16.8"/>
	<path class="st0" d="M1243.2,913.3c-0.3-7.5-0.2-15,0.3-22.5"/>
	<path class="st0" d="M1256.4,922.2c1.6-6.7,0.2-14.1-3.8-19.9"/>
	<path class="st0" d="M1070,918.8c25.8-11.1,54.5-16,82.8-13.9"/>
	<path class="st0" d="M1053.3,931.7c34.5-9.1,70.1-14.5,105.9-15.9"/>
	<path class="st0" d="M1064.6,868.7c-10.6,15.8-19.6,32.6-26.9,50"/>
	<path class="st0" d="M1040.5,885.9c-7.1,13.8-5.8,31.2,3.2,43.9"/>
	<path class="st0" d="M1034.8,892.3c-12.2,20.2-9.7,47.7,6,65.7"/>
	<path class="st0" d="M1025.8,894.7c-8.7,21.2-8.7,45.6,0.1,66.8"/>
	<path class="st0" d="M1127,1072.2c-14.3,2.7-29.3-1.7-41.5-9.2s-22.2-17.9-31.8-28.4c-9.1-10.1-18.1-20.6-23.1-33
		c-4.6-11.7-5.4-24.5-4-36.9s4.7-24.5,11.2-33.8c-5.8,14.1-5.4,30-2,44.8c3.5,14.8,10,28.8,16.4,42.7"/>
	<path class="st0" d="M1089.2,1052.7c-23.7-10.6-42.9-30-52.6-53s-10-49.6-0.6-72.8"/>
	<path class="st0" d="M1048.8,980.6c2.8,4.9,4.7,10.3,5.2,15.8c0.2,1.7,0.3,3.5,0.7,5.2c0.9,3.7,3.2,7,5.5,10.1
		c4.3,5.7,8.8,11.7,10.1,18.6"/>
	<path class="st0" d="M1057.4,988.8c4.8,15.5,12.1,30.2,21.6,43.6"/>
	<path class="st0" d="M1066.7,991.9c3.8,13.2,9.3,26,16.3,38"/>
	<path class="st0" d="M1095.7,990.7c2-3.9-0.6-8.4-2.4-12.4c-3.5-8.1-3.3-17.6,0.5-25.5s11.2-14.3,20-17c8.9-2.8,19.6-1.6,26.6,4.4"
		/>
	<path class="st0" d="M1145.2,933.6c-2.2-2.4-5.8-2.8-9.1-3c-8.2-0.6-16.8-1.1-24.2,2.2c-3.1,1.4-5.8,3.5-8.4,5.6
		c-4.1,3.4-8.2,7.5-9.2,12.6"/>
	<path class="st0" d="M1116.8,938.2c7.4-5.4,17.3-7,26.6-6.1"/>
	<path class="st0" d="M1145.1,963c2.2,0.5,4.7,1,6,2.8c1,1.3,1.2,3.1,1.3,4.7c0.2,5.7-1,12-5.4,15.8"/>
	<path class="st0" d="M1150.1,964.8c-5.1,2.6-8.7,7.8-8.9,13.3c-0.1,1,0,2.1,0.4,3c1,2.3,3.9,3.4,6.4,4.1"/>
	<path class="st0" d="M1148,960.6c2.7,2.2,5.5,4.7,6.4,7.9c0.6,2,0.4,4.1,0,6.1c-1,4.3-3.5,8.4-7,11.3"/>
	<path class="st0" d="M1215.3,995c0.3-1.8-2.1-3.2-3.9-2.7c-1.9,0.4-3.2,2-4.2,3.5c-1.8,2.6-3.2,5.5-3.9,8.5
		c-0.5,2.1-0.5,4.6,1.3,5.9c1.6,1.2,4.1,0.8,5.6-0.5s2.3-3.1,2.9-5c1-3,1.5-6.4,0.1-9.2c-0.7-1.4-1.9-2.7-3.6-2.8
		c-1.4-0.2-2.8,0.5-4,1.3c-5.8,3.8-9.9,9.6-11.5,16.1"/>
	<path class="st0" d="M1205.7,977.1c3.3-1.5,7.4,0.3,10.1,2.8c2.8,2.7,4.6,6.2,5.1,9.9c0.4,2.6,0.2,5.3,0,7.9
		c-0.3,3.4-0.6,6.8-1.7,10c-1.9,5.6-6.2,10.3-11.3,13.7s-11,5.5-17,7"/>
	<path class="st0" d="M1171.8,1027.6c7,3.6,15.5,3.4,23.3,1.8c3.9-0.8,7.8-1.9,11.3-3.7c5.8-3,10.6-7.9,12.9-13.8
		c2.9-7.5,1.6-15.9,0.2-23.8"/>
	<path class="st0" d="M1162.9,1025.9c0.3-3.4,0.7-6.8,0.1-10.1c-0.1-0.5-0.2-1.1-0.1-1.6c0.1-0.5,0.4-1.1,1-1.2
		c0.7-0.2,1.3,0.2,1.9,0.6c1.7,1.1,3.3,2.3,4.9,3.5c2.7,2,5.4,4.2,6.6,7.2c0.1,0.2,0.1,0.3,0.1,0.5c-0.1,0.3-0.4,0.5-0.8,0.6
		c-1.8,0.6-3.7,0.9-5.7,0.9C1167.7,1026.1,1164.4,1024.9,1162.9,1025.9z"/>
	<path class="st0" d="M1223.4,1039.7c7.3-4,14.3-8.4,21-13.2"/>
	<path class="st0" d="M1244.8,1027.1c-5,7.6-12.1,13.8-19.1,17.5c1.8,1.5,4.3,2.3,6.7,2.6c2.4,0.4,4.9,0.4,7.3,0.7"/>
	<path class="st0" d="M1234.6,1050.8c-8.4,2.8-16.7,5.6-25.1,8.4c-7.1,2.4-14.3,4.8-21.6,6.6c-16.8,4.2-34.6,5.3-51.9,3.3"/>
	<path class="st0" d="M1223.8,1059.7c-2.4,3.8-6.4,6.4-10.7,8c-4.3,1.6-8.9,2.2-13.5,2.8c-7.7,0.9-15.4,1.5-23.1,1.9"/>
	<path class="st0" d="M1130.2,1062.2c-1.5-3.1-3-6.4-2.3-9.7c0.4-2,1.6-3.7,2.9-5.3c4.3-4.9,10.3-7.9,14.1-9.4
		c-0.5-2.7-2.6-5-5.2-6.3c-2.6-1.3-5.5-1.7-8.4-1.8c-12.6-0.5-25.5,5.1-32.6,15c-1.7,2.3-2.9,5.6-1,7.7c0.7,0.8,1.7,1.2,2.7,1.6
		c5.3,2,11.1,2.4,16.7,3.3C1122.8,1058.2,1128.6,1059.8,1130.2,1062.2z"/>
	<path class="st0" d="M1103.5,1039.9c2.2-1.5,5-2,7.7-1.8c2.7,0.2,5.3,1,7.8,2c4.9,1.9,9.7,4.3,14.1,7.3c1,0.7,2.1,1.4,3.3,1.7
		c0.7,0.2,1.7,0,1.8-0.7c0.1-0.3-0.1-0.6-0.3-0.9c-1.6-2.6-4.2-4.4-6.9-5.8c-6.5-3.5-14.1-5.1-21.5-4.5
		C1107.2,1037.3,1104.8,1037.7,1103.5,1039.9z"/>
	<path class="st0" d="M1104.9,1039.7c-2.9,2.1-4.1,5.9-3.1,9.3c0.9,3.3,3.8,6,7.2,7.2"/>
	<path class="st0" d="M1023.3,948.4c-33.5,10.5-63.5,30.5-85.1,56.9"/>
	<path class="st0" d="M1026.3,956c-34.2,10.9-64.3,32.9-84.2,61.4"/>
	<path class="st0" d="M1033.7,1001.5c-21.4-10.3-43.2-20-65.2-29"/>
	<path class="st0" d="M984,965.3c2-15.9,2.4-32,1.3-48.1"/>
	<path class="st0" d="M990,963c1-6.2,1.9-12.5,0.9-18.7c-1.3-8.3-5.7-15.8-10.3-23"/>
	<path class="st0" d="M983.4,949.9c0.9-1.4-0.4-3.3-2-3.7s-3.4,0.2-4.9,0.9c-7.8,3.5-14.6,9.1-19.4,15.9c-2.1,2.9-3.8,6.2-3.9,9.7
		s2.1,7.2,5.6,8.2"/>
	<path class="st0" d="M952.3,986.2c-1.4-2.2-2.8-4.6-2.8-7.2c0-1.2,0.4-2.3,0.7-3.4c0.5-1.7,1-3.3,1.9-4.9c0.9-1.6,2.3-3,4-3.9"/>
	<path class="st0" d="M961.2,956c-2.6,0.6-5.2,1.2-7.3,2.7c-1.8,1.2-3.1,2.9-4.3,4.7c-0.7,1-1.4,2.1-1.9,3.2c-0.4,1-0.7,2.2-0.9,3.2
		c-0.7,3-1.3,6.2-0.1,9.1"/>
	<path class="st0" d="M954.4,966.1c0.1-1.4,0.2-2.7,0.5-4.1c0.5-2.8,1.6-5.8,6.8-6c-2.7-3.9-7.3-6.5-12.1-7.4s-9.9-0.3-14.5,1.2
		c-5.5,1.7-11.1,5.4-11.5,10.8c-0.4,4.1,2.3,7.8,5.3,10.8c7.4,7.4,17.1,12.4,26.7,17.2c4.7,2.3,9.3,4.7,14,7"/>
	<path class="st0" d="M1045.8,1024.9c-28.6-14.5-60.3-22.9-88.8-37.6"/>
	<path class="st0" d="M1022.5,1013.8c-4.4,2.5-9.2,4.4-14.2,5.5c-6.8,1.5-13.8,1.5-20.7,1.5c-8.2,0-16.4,0-24.6-0.1
		c-8.8-0.2-18-0.6-25.5-5"/>
	<path class="st0" d="M1039.9,1028c-18.7,7.8-40.5,9-60,3.1"/>
	<path class="st0" d="M957.6,1009.2c3.7,6.9,9.7,12.5,16,17.4c12.4,9.8,26.4,17.8,41.6,22.8"/>
	<path class="st0" d="M948.9,1006.8c4.8,7,11.6,12.8,19.5,16.5"/>
	<path class="st0" d="M946.7,1009.9c3.2,4.8,7.8,8.8,12.2,12.6c2.9,2.5,5.8,5,8.8,7.4c10.3,8.1,21.9,14.7,34.3,19.3"/>
	<path class="st0" d="M963,1020.2c7.3,5.8,15.9,10.3,25,12.9"/>
	<path class="st0" d="M1160.8,755.9c-19.7-9.1-41.7-13-63.3-11.3"/>
</g>
<g id="Layer_4_copy_4">
	<path class="st0" d="M432.1,245.6c23.7,43.9,49.6,86.6,77.6,127.9c21.4,31.5,45.7,63.6,80.8,78.2c7.4,3.1,15.2,5.3,22.9,7.5
		c12.3,3.5,24.9,7.1,37.7,6.7"/>
	<path class="st0" d="M465.2,270.2c12.1,11.2,14.3,29.2,21,44.2c8,17.8,22.6,31.7,33.1,48.1c4.4,6.8,8.1,14.1,13.4,20.3
		c6.4,7.3,14.9,12.6,23.5,17.1c17.4,9.2,36,16.2,55.2,20.6c7.5,1.7,15.2,3.1,22.7,1.4c4.6-1,9.3-3.2,13.9-2.1"/>
	<path class="st0" d="M514.8,334.1c5.7,8.8,13.9,15.6,22.6,21.6c5.2,3.6,10.7,7,16.7,9.3c5.6,2.2,11.7,3.4,17.1,6
		c4.4,2.1,8.4,5.1,12.8,7.4c3.7,2,7.7,3.4,11.8,4.6c22.6,6.4,47.8,3.9,68.4,15.1"/>
	<path class="st0" d="M606.7,363.9c12.1,22.5,28.1,43,47,60.2c7.1,6.5,14.9,12.6,23.9,15.9"/>
	<path class="st0" d="M591.9,365.7c8.4,17.3,19.7,33.1,33.2,46.7c5.8,5.8,12,11.2,18.1,16.5c8.8,7.6,18,15.5,29.4,17.9"/>
	<path class="st0" d="M574.8,324.7c-25.8-19.6-43.2-49.8-47.2-82"/>
	<path class="st0" d="M508.8,190.6c-1.4,10.2,1.5,20.5,5.3,30c9.2,22.8,23.8,43.2,40.7,61.1c17,17.9,36.2,33.3,56,48
		c5.5,4.1,11.1,8.2,17.4,10.9c8.7,3.7,18.4,4.6,26.6,9.4"/>
	<path class="st0" d="M514.1,182.3c0.8,22.2,4.6,45.1,17.5,63.2c4.5,6.3,10,11.8,14.1,18.3c4.5,7,7.3,14.8,11.2,22.1
		c6.8,13,16.5,24.1,26.2,35.1c7.5,8.6,15.1,17.2,23.9,24.6c11.1,9.4,23.9,16.6,37.5,21.6"/>
	<path class="st0" d="M530.8,228.5c13.3,59,54.8,111.1,109.4,137.2"/>
	<path class="st0" d="M601.9,339.8c8.1,8.8,14.9,18.9,23.9,26.8c9.4,8.2,20.7,13.7,32.2,18.7c7.2,3.1,15.1,6.1,22.6,3.8
		c6.7-2.1,11.5-8.2,13.8-14.8c2.3-6.6,2.6-13.8,2.8-20.8c0.1-3.6,0.2-7.2,0.3-10.8c0.1-3.5,0.2-7.1-0.2-10.6
		c-0.8-6.1-3.1-12-5.5-17.7c-2-4.9-4-9.8-6.1-14.7"/>
	<path class="st0" d="M687.7,363.1c2.4-17.5,0.2-35.7-6.3-52.1"/>
	<path class="st0" d="M679,307.9c-5.5-12.5-11.9-24.6-19.2-36.1c-4.5-7.1-9.3-13.9-13.4-21.2c-3.4-6.1-6.2-12.4-9.1-18.8
		c-1.3-2.9-2.6-5.9-3.9-8.8c-2.1-4.7-4.2-9.5-4.6-14.7"/>
	<path class="st0" d="M612.9,204.4c4.3,13.1,12,24.7,19.6,36.1c5,7.5,9.9,15,14.9,22.4c3.8,5.7,7.6,11.4,10.3,17.7"/>
	<path class="st0" d="M659.5,284.7c5.4,13.9,9.1,28.4,11.1,43.1"/>
	<path class="st0" d="M630.6,309.3c-0.4-10.3,3-20.8,9.5-28.9"/>
	<path class="st0" d="M640.9,208.8c-18.9,3.4-38.5,3.6-57.4,0.6c-5.3-0.9-10.7-2-16-3.1c-30.1-6.4-61.2-13.2-85.9-31.6"/>
	<path class="st0" d="M658.9,187.2c-5.1,3.5-10.9,6-16.8,7.9c-14.7,4.8-30.2,6.6-45.6,8.4c-5.3,0.6-10.6,1.2-16,1.1
		c-3.5-0.1-7-0.4-10.6-0.8c-11.8-1.3-23.5-2.5-35.3-3.8"/>
	<path class="st0" d="M616.6,195.9c-2.5,1.6-5.3,2.4-8.2,3c-18.2,4.2-37.3,3-55.9,1.1c-18.6-1.9-37.4-4.4-56-2.7"/>
	<path class="st0" d="M557.2,205.8c-17.6-1.7-35.8-3.3-52.5,2.5c-5.5,1.9-10.7,4.6-16,6.7c-4.8,1.9-9.8,3.5-14.3,5.9
		c-4.1,2.2-7.8,5.2-11.4,8.2c-5.4,4.4-10.7,8.7-16.1,13.1c-4.9,4-9.8,8-13.6,12.9"/>
	<path class="st0" d="M424.4,255.8c2.4-3.4,4.8-6.9,7.2-10.4c3.7-5.3,7.5-10.7,12.7-14.5"/>
	<path class="st0" d="M448.1,232.4c18.4-13.6,39.5-23.6,61.7-29.1c3.2-0.8,6.5-1.5,9.8-1.8c3.9-0.4,7.9-0.3,11.8-0.1
		c10.6,0.4,21.1,1.1,31.7,1.9"/>
	<path class="st0" d="M519.6,200.3c-11.1-0.9-22.4-0.1-32.8,3.6c-7,2.5-13.6,6.3-20,10.1c-5.1,3-10.2,6.2-14,10.7"/>
	<path class="st0" d="M510.8,199.2c-3-1.4-6.4-1.6-9.7-1.4c-10,0.6-19.5,4.6-28.7,8.8c-4,1.8-8.1,3.7-11.6,6.3
		c-9,6.8-13.5,17.9-17.1,28.6"/>
	<path class="st0" d="M508.9,202.6c-13.7,0-26.9,4.3-39.9,8.7c-5.7,1.9-11.6,3.9-15.9,8.2"/>
	<path class="st0" d="M435.9,260.9c2.5-8.1,4.6-16.3,6.4-24.5c1-4.4,1.8-9,3.7-13.1c2.7-6,7.4-10.9,12.8-14.6
		c10.2-7.2,22.6-10.8,35-11.9s24.9,0.3,37.2,2.3"/>
	<path class="st0" d="M519.4,199.3c-9.9-1.7-19.6-4.6-28.8-8.7"/>
	<path class="st0" d="M485.1,195.5c-9,2.3-18,5-25.9,10s-14.5,12.4-16.6,21.4c-0.5,2-0.7,4.1-1,6.1c-1.1,8.6-2.1,17.2-3.2,25.8"/>
	<path class="st0" d="M407,255.6c7.9-4.6,15.1-10.3,21.4-16.8c8.1-8.4,14.8-18.3,24.7-24.4"/>
	<path class="st0" d="M418.5,237.9c5.1,6.2,10.2,12.4,14.3,19.3c4.1,6.9,7.2,14.5,8,22.5c0.4,3.9,0.2,7.9,1.6,11.5"/>
	<path class="st0" d="M430.2,249.4c7.2,11.4,11.5,24.4,15.8,37.2c3.7,11.1,7.4,22.3,11.1,33.4c1.7,5.2,3.5,10.4,6.1,15.1
		c6,10.6,16.2,18,25.2,26.3c6.4,5.9,12.3,12.5,19.2,17.9c6.8,5.4,14.9,9.8,23.6,10.6"/>
	<path class="st0" d="M478.2,353.6c0.6,11,1.3,22.1,5.2,32.4c6.9,17.7,22.4,30.3,37.3,42c18.6,14.6,37.5,29.4,58.7,40
		c15.3,7.6,32.1,13,49.2,12.2c6.2-0.3,12.3-1.5,18.4-2.6c16.2-3,32.3-6,48.5-9.1"/>
	<path class="st0" d="M555.8,422.6c10.2,11.4,23.5,19.9,37.5,26.2s28.8,10.8,43.5,15.1c8.7,2.6,17.4,5.2,26.5,5.6
		c3.8,0.2,7.6,0,11.4-0.2c6.5-0.3,13-0.6,19.5-0.9"/>
	<path class="st0" d="M476.5,322.3c-0.6-1-1.1-2-1.7-3.1c21.1,33.8,45.2,65.6,70.4,96.5c8.4,10.3,17.2,20.8,28.8,27.4"/>
	<path class="st0" d="M521.1,380.8c8.5,19.9,26.5,33.8,43.8,46.7c5.4,4,10.8,8.1,16.9,11.1c4.7,2.3,9.7,3.9,14.7,5.5
		c7.2,2.3,14.3,4.6,21.5,6.9c6.8,2.2,13.7,4.4,20.8,5.4c4.1,0.6,8.2,0.7,12.3,0.9c9.4,0.4,18.7,0.8,28.1,1.1"/>
	<path class="st0" d="M513.5,369.3c10.7,10.8,21.4,21.5,32.1,32.2c4.8,4.8,9.6,9.7,15.2,13.5c7.5,5.2,16.2,8.3,24.5,12.3
		c11.7,5.6,22.6,12.8,34.2,18.7c11.6,5.9,24.2,10.5,37.2,10.1"/>
	<path class="st0" d="M613.4,437.4c7.3,3.9,14.5,7.9,21.8,11.8c2.8,1.5,5.6,3,8.5,4.5c17.6,8.6,37.2,13,56.8,12.7"/>
	<path class="st0" d="M613.8,451.7c4.7,5.9,11.7,9.5,18.5,12.7c3.8,1.8,7.6,3.5,11.7,4.3c6.1,1.1,12.3,0.2,18.4-0.7
		c12.6-1.7,25.4-2.7,38.1-3"/>
	<path class="st0" d="M576.7,438.5c18.2,16.9,42.4,27.2,67.2,28.9"/>
	<path class="st0" d="M645,445.7c9.4,3.3,18.8,6.7,28.5,8.8c9.7,2.1,19.9,2.8,29.7,0.9"/>
	<path class="st0" d="M677,433.8c6.2,13.9,17,25.2,24.7,38.4c3.6,6.2,6.6,12.7,10.2,19c4.1,7.2,9,14,13.5,21
		c6,9.5,11.1,19.6,16.2,29.7"/>
	<path class="st0" d="M584.2,452.5c7.4,5.8,14.8,11.6,22.2,17.4c3.5,2.7,6.9,5.4,10.7,7.7c3,1.8,6.2,3.3,9.5,4.7
		c29.5,13,60.6,22.2,92.4,27.3"/>
	<path class="st0" d="M693.9,460.5c1.7,0.7,3.6,1.1,5.5,1.1"/>
	<path class="st0" d="M699.5,517.8c9.5,1,19,1.5,28.6,1.6c7.6,0.1,15.3,0,22.8-1.7c4.1-0.9,8-2.2,12-3.6c17.7-6,36-12.3,49.8-24.9"
		/>
	<path class="st0" d="M708.6,525.7c7.2-6.4,12.6-14.7,19.6-21.4c3.9-3.8,8.2-7,12.5-10.2c10.2-7.6,20.5-15.3,32.2-20.1"/>
	<path class="st0" d="M798.3,490.3c-11.2-0.4-22.5-0.7-33.6,0.5s-22.2,4-32.1,9.3s-18.5,13.3-23.4,23.4"/>
	<path class="st0" d="M772.4,476.1c-6.3,2.9-12.7,5.7-19,8.6c-2.3,1.1-4.7,2.1-7,3.4c-5.4,3-10.1,7.1-14.6,11.5
		c-7.4,7.2-14.2,15-20.2,23.3"/>
	<path class="st0" d="M809.9,484.3c-7.3-1.4-14.6-2.8-21.9-4.2c-4-0.8-7.9-1.5-11.9-1.7c-2.9-0.1-5.8,0.1-8.6,0.4
		c-21,2.4-41.2,12.1-56.2,27c-2,2-3.9,4.1-4.6,6.8"/>
	<path class="st0" d="M724.8,499.7c-14.5-19.1-27.7-39.2-38.1-59.7c0.9,0,1.6,0.7,2.2,1.4c9.4,10.6,17,22.7,25.9,33.7
		c2.3,2.8,4.6,5.5,7,8.2c12.4,14.3,24.8,28.6,37.1,42.9"/>
	<path class="st0" d="M686.6,430.4c9.8,18.1,21,35.5,33.5,52"/>
	<path class="st0" d="M681.2,432.7c8.4,9.3,16.8,18.5,25.2,27.8"/>
	<path class="st0" d="M757.6,525.4c19.1,15.4,33.2,36,49,54.8c10,11.9,20.8,23.2,31.5,34.4c8.1,8.5,16.1,16.9,24.5,25"/>
	<path class="st0" d="M829.2,592c26.8,31.4,53.7,62.8,80.5,94.1"/>
	<path class="st0" d="M813.3,562.6c9.6,18,23.8,33,37.3,48.3c21.1,23.9,40.8,49,60.5,74"/>
	<path class="st0" d="M832.8,584.5c-11.4-3.6-20.8-11.9-28.2-21.3c-7.4-9.5-13-20.1-19.3-30.3c-25.6-41.1-62.5-73.6-98.8-105.5"/>
	<path class="st0" d="M735.4,488.1c-14.1-15.6-28.1-31.2-42.2-46.8"/>
	<path class="st0" d="M708,450c-3.6-3.2-7.2-6.4-10.9-9.5"/>
	<path class="st0" d="M704.9,428.5c26.5,24.4,53,48.8,79.5,73.2"/>
	<path class="st0" d="M718.5,429.1c57.7,59.9,102.8,131.1,161.4,190.2"/>
	<path class="st0" d="M785.6,501.1c38.6,47.8,80.6,92.9,125.5,134.9"/>
	<path class="st0" d="M818.7,533.3c9.1,7.4,17.5,15.8,24.5,25.2c4,5.5,7.6,11.3,11.9,16.6c6.1,7.6,13.6,14.1,20.5,21
		c12.3,12.2,23.1,26,36.4,37.3"/>
	<path class="st0" d="M708.3,419.7c36.7,21.4,72.2,44.9,106.2,70.3"/>
	<path class="st0" d="M718.7,417c13,10,26.4,19.5,40.1,28.5c20.3,13.4,41.5,25.8,60.2,41.4"/>
	<path class="st0" d="M806.8,499.7c5.3-2.5,9.4-7.2,11.3-12.8"/>
	<path class="st0" d="M669.9,454.6c1-6.4,4.7-12.2,9.5-16.6c4.8-4.4,10.5-7.6,16.3-10.6c11.6-5.8,24-10.7,36.9-11.6"/>
	<path class="st0" d="M662.2,449.4c1.8-6.9,6-13,11.4-17.8s11.8-8.2,18.4-10.9c17.3-7,36.6-9.2,55.1-6.1"/>
	<path class="st0" d="M686.2,461c-22.8,0.7-45.8-6.1-64.6-19"/>
	<path class="st0" d="M662,465.4c-37.1-5.6-72.5-21.8-101.1-46.2"/>
	<path class="st0" d="M639.5,473.4c-18.2-3.1-35.5-11.1-49.5-23.1"/>
	<path class="st0" d="M606.2,445.4c-11.8-9.6-26.7-14.2-39.8-21.9c-24.3-14.2-41.2-37.8-57.4-60.8"/>
	<path class="st0" d="M543,267.7c10.9,15.7,23.3,30.4,36.8,44"/>
	<path class="st0" d="M631.5,227.5c11,19.2,22,38.4,33,57.5"/>
	<path class="st0" d="M632.2,235.2c15.2,21.3,30.7,43.5,35.6,69.1"/>
	<path class="st0" d="M624.9,217.6c1.3,5.4,3.5,10.6,6.5,15.2"/>
	<path class="st0" d="M672.4,310.2c-3.1-11.5-7.8-22.6-14.2-32.7"/>
	<path class="st0" d="M734.2,443.7c18.9-9.8,27.6-33,26.1-54.2s-11.3-40.8-21.5-59.4c-27.3-49.8-59-97.2-94.6-141.4"/>
	<path class="st0" d="M663.5,222.6c16.1,12.4,21.9,33.6,32.4,51c8,13.2,18.9,24.4,30.9,34"/>
	<path class="st0" d="M676.6,223.9c11.6,6.5,17.9,19.5,22.5,31.9c4.6,12.5,8.5,25.8,17.5,35.6"/>
	<path class="st0" d="M672.7,230.1c9.6,10.6,16,23.6,22.8,36.2c6.8,12.5,14.6,25.1,26.1,33.6"/>
	<path class="st0" d="M702.7,272.8c-4.1-12.1-11.4-23.2-21-31.7"/>
	<path class="st0" d="M734,447.5c21-13.6,32.5-40.4,27.9-65c-2.4-12.8-8.5-24.5-14.7-36c-7-13.1-14-26.2-20.9-39.4"/>
	<path class="st0" d="M749.8,432.9c10.4-17.1,15.9-37.1,15.9-57.2"/>
	<path class="st0" d="M764.4,386.3c4.4,6.7,7.2,14.4,8.2,22.3"/>
	<path class="st0" d="M749.7,432.2c15.8-11.3,23.9-32.2,20-51.2"/>
	<path class="st0" d="M744.9,437.2c9.3-3.3,17.6-9.8,23-18.1s8-18.4,7.3-28.3"/>
	<path class="st0" d="M779.1,502.9c-13.6-34-42.9-61.2-77.8-72.4"/>
	<path class="st0" d="M725,431.6c18.1,11.5,33.5,27.3,44.4,45.8"/>
	<path class="st0" d="M736.7,464.5c-8.2-9.7-17.1-18.8-26.5-27.3"/>
	<path class="st0" d="M767.1,497.1c-4.5-4.9-8.7-10.1-12.3-15.7"/>
	<path class="st0" d="M784.5,480c-5.9-6.4-12.2-12.4-18.7-18.1"/>
	<path class="st0" d="M717,479c7.9,9.1,14.6,19.2,19.9,30"/>
</g>
<g id="Layer_5">
	<path class="st0" d="M1028.8,808.4c-14.8,8.1-29.6,16.2-44.4,24.2c-5.3,2.9-10.6,5.8-15.5,9.4c-6.6,5-12.2,11.2-17.6,17.4
		c-8.5,9.5-16.9,19.1-25.4,28.6"/>
	<path class="st0" d="M1027.3,817.5c-18.1,8.4-35.9,17.4-53.5,27c-8.6,4.7-17.4,9.7-23.7,17.2"/>
	<path class="st0" d="M1085.1,853.3c-13.5,2.6-26.7-4.2-39.7-8.6c-2.6-0.9-5.2-1.7-7.6-3c-8.9-5.1-11.5-16.9-10.8-27.2
		c0.2-2.3,0.4-4.6,0.7-6.9"/>
	<path class="st0" d="M1043.2,812.1c0.5,6,2,11.8,4.8,17.1s6.9,10,12,13"/>
	<path class="st0" d="M1027.6,809.8c2.3,6.5,6.4,12.4,11.7,16.8c2.2,1.9,5.1,3.6,7.9,2.8"/>
	<path class="st0" d="M958.3,777.5c7.9,7.4,16.4,14.8,26.8,17.9c6.3,1.8,13.1,2,19.2,4.5c6.5,2.7,11.9,7.9,18.6,10.2
		c5.2,1.8,10.9,1.8,16,3.8c7.8,3.2,12.8,10.6,19.6,15.6c7.5,5.5,16.9,7.7,26,9.7"/>
	<path class="st0" d="M988,828.5c2.7-0.9,4.8-3,6.5-5.3c3.6-4.5,6.3-9.9,7.1-15.6c0.8-5.7-0.6-11.9-4.3-16.3"/>
	<path class="st0" d="M982.9,788.3c3.5,4.4,5.4,10.1,5.2,15.7c-0.1,3.4-0.9,6.7-1.8,10c-1.5,5-3.6,10.1-7.4,13.7"/>
	<path class="st0" d="M897.4,794.1c5.4-0.8,10.9-0.8,16.4-1c30.9-1,61.3-7.8,91.4-14.6"/>
	<path class="st0" d="M976,835.4c-4.5-10.1-12.6-18-21.4-24.8c-8.8-6.7-18.3-12.3-26.9-19.2c-19.8-15.8-34.1-37.5-53.2-54.2"/>
	<path class="st0" d="M932.2,791.8c-3.3,17.2-6.6,34.3-9.9,51.5"/>
	<path class="st0" d="M992.6,828.8c-36.7-4.6-74.7,1.5-108.1,17.5"/>
	<path class="st0" d="M940.2,825.7c-38.8,4.3-75.5,19.4-111.7,34.3c-2.7,1.1-5.5,2.3-7.6,4.4s-3.1,5.5-1.8,8.1"/>
	<path class="st0" d="M1013.8,913.5c-33.7-8.6-69-18.1-93.9-42.3c-8.6-8.4-15.7-18.3-21.8-28.8c-9.1-15.4-16.2-32-21-49.2
		c-8.3-29.2-10.8-61.4-29.4-85.4c-18.2-23.4-49-34.4-78.6-34.7s-58.5,8.8-86.3,19.1"/>
	<path class="st0" d="M823,688.1c22.6,22.1,35.3,52.5,43.1,83.1c3.9,15.2,6.9,31,15.5,44.1"/>
	<path class="st0" d="M925.4,889c-13.6-4.2-26.6-11.2-36.7-21.3c-13.4-13.5-20.8-31.8-28-50.4c-6-27.9-12.5-57-30.5-79.1
		c-12.8-15.7-30.9-26.8-50.5-32.4c-19.5-5.5-40.4-5.7-60.3-1.7c-8.1,1.6-16.2,4-22.7,9.1c-6.1,4.8-10.2,11.5-13.8,18.4
		c-8.7,16.9-14.2,37.7-5.4,54.5c4.7,8.9,12.7,15.5,19.9,22.5c7.2,7.1,13.8,15.7,14.4,25.7"/>
	<path class="st0" d="M869.2,849.1c-4.7-7.4-8.4-15.4-10.9-23.7c-1.8-5.7-3-11.6-4.4-17.4c-9.7-38.8-31.5-76.7-67.1-94.9"/>
	<path class="st0" d="M866.6,770.2c-10.6-29.3-26.2-59.2-53.5-74.2c-9-5-18.9-8.1-28.9-10.2c-34.2-7.4-70.8-3.6-102.8,10.7"/>
	<path class="st0" d="M711,672.4c-15.9,5.5-29.4,16.8-39.8,30s-18.3,28.3-25.5,43.5c-3.4,7-6.7,14.2-8.5,21.8
		c-3.8,16.2-0.2,34.1,9.6,47.5"/>
	<path class="st0" d="M692,680.4c-25.2,18.1-44,45-52.2,75c-1.1,3.9-2,7.9-2.4,12c-2,17.5,4.3,35.3,15,49.2"/>
	<path class="st0" d="M665.7,701.2c-22.6,18.6-33.5,50.3-27.1,78.9c5.4,24.2,21.7,44.4,37.5,63.6"/>
	<path class="st0" d="M655.7,814.7c-0.4-10.2,3-20.6,9.4-28.6s15.7-13.7,25.8-15.6"/>
	<path class="st0" d="M697.4,715.9c-8.2,5.8-15.5,13.1-20.8,21.7c-5.2,8.6-8.3,18.7-8.1,28.7c0.1,4,0.8,8.1,2.5,11.8
		c3.2,6.8,9.7,11.3,15.2,16.6c5.2,5.1,9.6,11,13.9,16.9"/>
	<path class="st0" d="M640,812.3c3.7,5,9.4,8.2,15.3,10.2c5.9,2.1,12,3.2,17.9,5.2c5.5,1.9,11,4.5,16.9,4.7c6.8,0.2,13.4-3.1,18.1-8
		c4.8-4.8,7.8-11.1,9.8-17.6"/>
	<path class="st0" d="M657.6,829c2,4.2,6.2,7,10.6,8.2c4.4,1.3,9.1,1.2,13.7,0.9c7.8-0.4,15.9-1.4,22.9-4.8s13.2-9.8,14.5-17.5"/>
	<path class="st0" d="M682.1,750.3c-12.8-4.2-27.2-3.6-39.6,1.7"/>
	<path class="st0" d="M644.5,744.6c11.6-1.5,23.6-0.6,34.8,2.7"/>
	<path class="st0" d="M650.6,735.1c11.5,0.8,23.6,3.4,31.9,11.4"/>
	<path class="st0" d="M600.5,793.8c2.1-6.1,1.8-12.8,4.2-18.9c1.1-2.8,2.7-5.4,4.4-7.9c3.7-5.6,7.7-11,12.6-15.6s10.8-8.2,17.3-9.6"
		/>
	<path class="st0" d="M590.8,774.3c0.8-7,1.5-14.1,4.5-20.5c1.8-3.8,4.2-7.3,6.8-10.7c4-5.3,8.2-10.5,13.5-14.7
		c10.9-8.6,25.5-11.8,39.3-10.1"/>
	<path class="st0" d="M701.7,741.4c-3.9-12-9.3-24-18.6-32.6c-9.9-9.1-23.8-13.6-37.1-12"/>
	<path class="st0" d="M705.2,726.4c-3-10-6.2-20.4-13.1-28.2c-5.5-6.2-13.3-10.4-21.6-11.6"/>
	<path class="st0" d="M718.3,736.5c-1.3-3.7-2.6-7.4-4-11.1c-0.2-0.7-0.5-1.4-0.4-2.1c0.4-2.3,3.8-2.2,6.1-1.4
		c9.6,3.4,18.7,8.3,27.3,13.7c22.1,13.8,42,31.3,56.7,52.9c4,6,7.7,12.2,11.3,18.4c9.3,16,18.5,32,27.8,48"/>
	<path class="st0" d="M816.3,786.3c13.9,19.5,19.4,44.3,34.6,62.8"/>
	<path class="st0" d="M834.6,914.8c-6.1-11.9-11.4-24.2-15.9-36.8c-0.9-2.5-1.6-5.8,0.4-7.5s5.2-0.6,7.5,0.7
		c9.8,5,19.8,9.8,30.2,13.3c4.1,1.4,8.2,2.5,12.2,4c20.2,7.1,37.9,20.3,52.3,36.2c14.4,15.9,25.6,34.4,35.3,53.5"/>
	<path class="st0" d="M833.4,881.8c34.7,11.5,67.3,29.3,95.7,52.3c16.3,13.2,31.6,28.5,40.3,47.7"/>
	<path class="st0" d="M1110.8,901.6c-25.3,5.1-50.6,10.7-75.8,16.8c-10,2.4-20.1,5-28.8,10.5"/>
	<path class="st0" d="M1023.5,922.3c-29.8,18.9-53,47.8-65,80.9"/>
	<path class="st0" d="M973.3,973.8c7.5-25.2,29.1-45.6,54.6-51.6"/>
	<path class="st0" d="M902,907.2c-19.4,20.5-33.2,46.4-39.3,73.9"/>
	<path class="st0" d="M895.1,929.3c-10.1,11.8-19.8,23.9-29,36.5"/>
	<path class="st0" d="M822.2,863c9.2,35.3,23,69.4,40.9,101.2"/>
	<path class="st0" d="M853.7,937c-28.2-25.2-55.2-51.9-80.6-80"/>
	<path class="st0" d="M858.5,962c-7.3-14.9-14.6-29.8-24.1-43.4c-9.8-14.1-21.9-26.5-33.9-38.7c-3.2-3.2-6.3-6.5-9.9-9.3
		c-6.3-5-13.7-8.5-21-12"/>
</g>
<g id="Layer_6">
	<path class="st0" d="M864.8,970.5c40,10.6,77.6,29.8,109.7,56"/>
	<path class="st0" d="M868,962.9c31.2,12,60.6,28.6,87,49.2"/>
	<path class="st0" d="M838.5,1045.1c-8.1-49.8-16.7-101-42.8-144.1c-3.4-5.7-7.2-11.2-12.3-15.5c-7.3-6.1-16.6-9.1-25.6-11.9"/>
	<path class="st0" d="M765.6,870c-0.2,27,2.6,54.9,15.7,78.4"/>
	<path class="st0" d="M777.2,875.2c-3.5,21-6.8,42.9-1,63.4"/>
	<path class="st0" d="M780.9,927.6c-6.8-15.3-8.8-32.6-5.6-49"/>
	<path class="st0" d="M759.5,886.3c-1-2.3-0.5-5.1,0.8-7.2s3.4-3.7,5.6-4.9c1-0.5,2.1-1,3.2-1.1c1,0,2,0.2,2.9,0.6
		c4.2,1.6,7.8,4.6,10,8.5"/>
	<path class="st0" d="M789.5,896.8c8.9,10.9,15.2,23.7,20.7,36.6c15.5,36.2,26.6,74.3,31.8,113.4"/>
	<path class="st0" d="M859.1,1040.5c37.5,21.2,76.9,38.8,117.7,52.7"/>
	<path class="st0" d="M835.9,1031.8c9.2,9.1,21.5,14.3,33.5,19.3c29.4,12.2,58.8,24.4,88.1,36.6c7.2,3,14.5,6,20.9,10.6"/>
	<path class="st0" d="M970.6,1092.9c-6.5-17.3-16-33.4-27.8-47.5c-6.8-8.1-14.6-16-17.4-26.2"/>
	<path class="st0" d="M910.2,1045.1c1.2-13.5,4.9-26.6,8.6-39.6"/>
	<path class="st0" d="M907.7,1020.6c-8.7,0.8-17.6,1.7-25.7,5"/>
	<path class="st0" d="M888.7,1046.3c-27.2-21.1-56.4-39.5-87.2-54.9c-11.7-5.8-23.7-11.3-33.8-19.7c-5.2-4.3-9.8-9.4-15-13.7
		c-6.1-5-13-9-19.2-13.9c-10.2-8-18.4-18.6-23.6-30.4"/>
	<path class="st0" d="M833.8,1004.2c-19.8-8.3-38.7-18.7-56.3-31"/>
	<path class="st0" d="M805,988.2c-8.2-4.7-15.8-10.5-23.4-16.3c-52.7-40.2-105.5-80.5-155.3-124.2"/>
	<path class="st0" d="M780.3,995c-26.9-14.3-47.7-37.7-67.8-60.6c-4.3-4.9-8.6-9.7-12.8-14.6c-9.8-11.1-19.8-22.5-25.7-36.2"/>
	<path class="st0" d="M626.6,839.6c4.3,0.8,8,3.2,11.6,5.6c20.3,14.1,37.3,32.4,55.8,48.8c22.7,19.9,47.9,37,74.9,50.5"/>
	<path class="st0" d="M862.1,1016.8c-49.5-27.4-84.4-76-133.5-104c-6.7-3.8-13.6-7.2-20-11.5c-4.5-3-8.6-6.5-12.4-10.3"/>
	<path class="st0" d="M856.3,987.2c-67.3-26.6-121.1-78-177.9-122.8c-27.1-21.3-55.2-41.4-80.4-64.9"/>
	<path class="st0" d="M866,988.1c-15-8.2-30-16.3-44.9-24.5c-25.3-13.8-50.9-27.8-72-47.5"/>
	<path class="st0" d="M627.7,849c-28.2-21.8-50.6-50.2-75.8-75.5c-8.8-8.8-18.2-17.5-29.6-22.3"/>
	<path class="st0" d="M600,801.4c-27.9-25.3-56-50.7-87.9-70.7c-7.9-5-17-9.7-26.1-7.6"/>
	<path class="st0" d="M635,908.2c-5.2-16.1-12.1-31.7-20.4-46.4c-4.8-8.4-10-16.6-15.2-24.7c-5-7.8-10-15.5-14.9-23.3
		c-12.5-19.5-25.1-39.1-41.1-55.8s-35.8-30.5-58.4-35.7"/>
	<path class="st0" d="M555.9,879c-14.8-14.6-24-33.7-32.4-52.7c-15.3-34.5-29-70-35-107.2"/>
	<path class="st0" d="M514.5,812.3c14.2,37.3,35.7,71.7,63,100.7"/>
	<path class="st0" d="M528.5,853.8c17.5,25.1,34.1,50.9,49.7,77.3c4.7,8,9.3,16,14.7,23.5c7.2,10.1,15.6,19.2,24,28.2
		c22.5,24.1,45.4,48.1,72,67.6"/>
	<path class="st0" d="M653.4,1019.2c-14-24.2-31.6-46.2-49.1-68c-6.1-7.6-12.2-15.2-18.3-22.9c-9.9-12.4-19.8-24.8-29.7-37.2"/>
	<path class="st0" d="M633.1,901.7c3.8,0.5,7.3,2.2,10.5,4.3c7.5,4.9,13.2,12.1,17.5,20s7.2,16.3,10,24.8
		c9,27.4,16.7,55.3,23.1,83.4"/>
	<path class="st0" d="M614.5,831.8c9.6,20.9,22.8,40,34.2,60c23.9,42.2,39.7,89,46.2,137.1"/>
	<path class="st0" d="M668.1,948.8c9.9,27.8,19.8,55.8,24.8,84.9c4.4,25.7,5,52,11.7,77.2"/>
	<path class="st0" d="M684,996.9c-3.4,37.1,3,75.1,18.4,109.1"/>
	<path class="st0" d="M677.7,979.6c1.4,44.6,3,90.4,20.4,131.5"/>
	<path class="st0" d="M685.7,1010.7c8.1,33.2,12,67.4,11.7,101.5"/>
	<path class="st0" d="M700.7,1090c1.6,19.7,5.3,39.2,11,58.1c1.3,4.4,2.8,8.8,5.3,12.5c2.3,3.4,5.4,6.1,8.5,8.8
		c5.8,5.1,11.7,10.2,17.5,15.4"/>
	<path class="st0" d="M609.8,988.1c11.6,8.9,23.5,18.2,30.8,30.9c2.5,4.3,4.4,9,6.1,13.7c10.1,27.9,14,58,11.5,87.6"/>
	<path class="st0" d="M647.4,1018.4c6.5,14.7,7.2,31.2,7.7,47.2"/>
	<path class="st0" d="M665,1013.4c-5.2,39.2,8.1,80.4,35.2,109.1"/>
	<path class="st0" d="M662.9,1070.1c7.4,8.3,9,20.4,15.7,29.2c6.2,8.3,16.2,12.9,24.4,19.2c6,4.5,11.1,10,16.8,14.9
		c13.9,11.9,30.9,20,48.6,25c17.6,5.1,36,7.3,54.3,8.5"/>
	<path class="st0" d="M647.6,1035.1c14.5,10.9,30.4,21.6,48.5,23.1"/>
	<path class="st0" d="M651.5,1047.7c10.3,9.5,23.2,16.1,36.9,19"/>
	<path class="st0" d="M611.6,1064.1c-30-66.5-60.4-134.6-66.5-207.2c-1.3-15.2-1.5-30.5-4.7-45.4c-3.9-18.2-12.2-36.3-8.6-54.6"/>
	<path class="st0" d="M658.8,1099.6c4.4,5.5,8.8,11,13.3,16.5c2.2,2.8,4.5,5.6,6.9,8.2c9.6,10.5,21.5,18.4,33.3,26.2"/>
	<path class="st0" d="M705.3,1121.1c2.7,11.5,5.4,23.2,11.7,33.2c10.8,17.2,30.4,26.5,48.8,34.9c14.8,6.8,29.7,13.5,44.5,20.3
		c15.2,6.9,30.5,13.9,45.1,22c25.7,14.2,49.4,31.8,72.9,49.4"/>
	<path class="st0" d="M729.8,1153.2c3.9,8.4,10.6,15.3,18.1,20.7s16,9.4,24.4,13.4c32.8,15.5,65.9,30.6,99.1,45.3"/>
	<path class="st0" d="M711.2,1144.1c79.1,100.8,185.1,180.2,304.1,227.7"/>
	<path class="st0" d="M784.2,1199.2c12.2,17.5,29.5,30.7,46.7,43.2c51.3,37.2,104.9,71.3,160.4,101.8"/>
	<path class="st0" d="M973.3,1325.7c1.7,4.3,5.3,7.5,9.2,9.9c7.2,4.5,16.4,6.8,24.3,3.7c3.8-1.6,7.1-4.3,10.7-6.4
		c3.8-2.2,8.1-3.7,12.4-4.3"/>
	<path class="st0" d="M979.8,1325.8c9.1,8.3,22.1,12.1,34.2,10.1"/>
	<path class="st0" d="M945.5,1311.9c19.7,8.8,40.8,14,61.8,18.4c6.8,1.4,13.6,2.7,20.6,2.9c7,0.2,14-0.9,20.9-2
		c6-0.9,12.1-1.8,18.1-2.8"/>
	<path class="st0" d="M959.9,1290.1c9.2,6.7,18.5,13.3,27.7,20c3.5,2.5,7.1,5.1,10.9,7c5.5,2.7,11.5,4.1,17.5,5.2
		c8.1,1.4,16.2,2.2,24.4,2.4"/>
	<path class="st0" d="M1045.5,1327.5c21.8-14.9,48.3-20.7,74.1-26.2"/>
	<path class="st0" d="M1039.9,1328.8c8.6-6.8,17.3-13.7,27-19c6-3.2,12.2-5.8,18.5-8.3c20.6-8.2,41.6-15.8,63.3-20.5"/>
	<path class="st0" d="M901.2,1295.6c11,11.5,22.4,22.6,35.4,31.8c13,9.2,27.5,16.4,43.1,19.5"/>
	<path class="st0" d="M988.7,1345.8c-10.3-2-20.7-5.8-28.1-13.3c-6-6.1-9.6-14.1-13.9-21.4c-7.8-13.1-18.4-24.6-30.9-33.3"/>
	<path class="st0" d="M904.9,1263.9c7.5,10.4,14.9,20.9,22.3,31.3c2.3,3.2,4.6,6.5,6.6,9.9c4.2,7.2,7,15.3,12,22.1"/>
	<path class="st0" d="M1001.2,1340.1c-5.3,1.8-10.7,3.5-16,5.3c-8.6,2.8-17.6,5.7-26.6,4.8"/>
	<path class="st0" d="M998.5,1344.7c37.8,0.1,75.6-11.9,106.5-33.8"/>
	<path class="st0" d="M1007,1356.9c34-8.4,66-24.5,92.9-46.8"/>
	<path class="st0" d="M1151.9,1283.6c-13.9-14.6-28-29.5-45.2-40"/>
	<path class="st0" d="M870.8,1247.8c23.3,42.4,54.1,80.6,90.5,112.5"/>
	<path class="st0" d="M889.2,1256.2c23.3,40.3,53.4,76.6,88.6,106.9"/>
	<path class="st0" d="M988.8,1341.2c14.4,16,28.8,32,43.1,47.9"/>
	<path class="st0" d="M1037.3,1190.6c-19.1-19.4-27.7-46.8-43.9-68.7c-8.7-11.7-19.8-22.3-24.1-36.2"/>
	<path class="st0" d="M960.5,1094c3.1-13.1,6.5-26.2,10.4-39.1c1.7-5.9,3.6-11.8,7.2-16.8"/>
	<path class="st0" d="M982.2,1120.6c3.4-4.3,3.8-10.3,3.8-15.8c0.1-21.1-2.5-42.2-7.8-62.7"/>
	<path class="st0" d="M991.9,1101.4c-1-22.4-5.2-44.7-12.5-65.8"/>
	<path class="st0" d="M977.3,1098.6c6.5,22.6,25.6,39,43.5,54.3c24.5,20.9,48.7,42.5,68.1,68.2c14.6,19.3,26.7,41.1,45.3,56.6"/>
	<path class="st0" d="M1115.9,1275.6c-25.5-40.6-55.7-78.3-89.9-111.9c-7-6.9-14.3-13.8-18.7-22.7"/>
	<path class="st0" d="M1042.7,1168c-17.8-14-25.6-36.8-37.3-56.2c-6.5-10.9-14.4-21-23.4-29.9"/>
	<path class="st0" d="M1060.7,1178.2c-12.1-18.2-24.3-36.4-36.4-54.6c-5.5-8.3-11.1-16.7-15.3-25.8c-6.9-15.1-10.2-32.6-21.8-44.6"
		/>
</g>
<g id="Layer_7_copy">
	<path class="st0" d="M1145.8,1282.2c4.4,11.1,8.9,22.3,10.4,34.1c1.2,8.7,0.7,17.6,0.8,26.3c0.1,10.9,1.1,21.8,2.8,32.6"/>
	<path class="st0" d="M1024.8,1304.9c-0.1,12.2-0.2,24.3-0.3,36.5c0,4.9-0.1,9.9,1.2,14.6c1.2,4.6,3.7,8.7,5.6,13
		c2.1,4.7,3.6,9.6,4.9,14.5c2.6,10.2,4.1,20.7,4.3,31.2"/>
	<path class="st0" d="M1045.6,1300c9.5,17.3,19.2,35.5,19.9,55.2c0.4,10.1-1.7,20.2-2.8,30.3s-1.2,20.6,2.8,29.9"/>
	<path class="st0" d="M994.3,1292.1c29.6,38.2,65,71.8,104.6,99.5"/>
	<path class="st0" d="M1025.6,1290.6c3.8,6.3,7.6,12.5,11.4,18.8c3.2,5.3,6.5,10.6,10.1,15.7c2.2,3.1,4.8,6.3,8.6,7"/>
	<path class="st0" d="M963.6,1298.6c17.4,31.9,35.1,64.3,60.1,90.8"/>
	<path class="st0" d="M952.9,1296.9c11,17.7,22.1,35.3,33.1,53c6.2,9.9,12.4,19.9,16.7,30.7"/>
	<path class="st0" d="M1004.8,1343.8c11.3,23.5,26.4,44.9,41.4,66.3"/>
	<path class="st0" d="M1028.4,1412.7c13.5-4.9,28-7,42.4-5.9"/>
	<path class="st0" d="M1057.9,1407.5c19.3,4.5,39.8,3.7,58.6-2.5c18.8-6.1,35.9-17.5,48.9-32.5"/>
	<path class="st0" d="M1171.7,1375.1c-14.9,13-31.5,24.2-50.1,31.1c-18.5,6.8-39,9.1-55.8,4.7c32.3,8.8,68.7,1.1,94.6-20.1"/>
	<path class="st0" d="M1157.9,1400.5c-19.5,10.2-42.1,11.9-64,13.5"/>
	<path class="st0" d="M1065.3,1411.9c30,6.8,61.9,5.7,91.3-3.4"/>
	<path class="st0" d="M1167.5,1397.8c3.3-4.7,6.5-9.4,9.8-14.1c0.6-0.8,1.1-1.7,1-2.6c-0.2-1.2-1.5-1.9-2.6-2.4
		c-6-2.7-12-5.5-18-8.2"/>
	<path class="st0" d="M1175.9,1371.5c-6.2-0.2-12.3-2.4-17.1-6.2"/>
	<path class="st0" d="M1171.2,1392.2c15.1,72.9,52.8,142.7,112.4,187.4"/>
	<path class="st0" d="M1283.4,1611.8c-5.1-4.2-8.5-10.4-9.3-17c-0.2-1.6-0.2-3.3,0.4-4.8c1.1-2.5,3.7-3.8,6.1-5
		c3-1.4,6.1-2.9,9.1-4.4"/>
	<path class="st0" d="M1274.1,1596.7c5.3,4.3,10.4,8.8,16.3,12.2c5.9,3.4,12.6,5.7,19.4,5.1"/>
	<path class="st0" d="M1219.1,1625c-10.5-3.9-20.6-8.9-30-14.9c0.2-1.3,2-1.4,3.3-1.1c5.9,1.2,11.7,2.4,17.6,3.6"/>
	<path class="st0" d="M1215.4,1603.7c-8.7-5.6-17.1-11.8-25-18.5c-4.3-3.7-8.5-7.6-11.3-12.5c8.9,6.8,18.8,12.5,29.2,16.8"/>
	<path class="st0" d="M1182.7,1568.5c11.8,11,26.4,18.9,42.1,22.7"/>
	<path class="st0" d="M1045.3,1423.8c9.1,9,21.4,14.7,34.2,15.7c5.6,0.5,11.2,0.1,16.8,0.4c4.7,0.3,9.3,1.1,14,1.1
		c4.7,0,9.5-0.9,13.3-3.6"/>
	<path class="st0" d="M1041.3,1427.7c10.5,10.4,25.4,15.1,40.1,16.5c14.7,1.4,29.5-0.1,44.2-0.3"/>
	<path class="st0" d="M1087.2,1434.1c-13.8-3-27.1-8.5-39-16.2c-4-2.6-8.2-6-8.6-10.7"/>
	<path class="st0" d="M1073.8,1427.9c-3.4-4.7-5.5-10.1-7.5-15.5c-1.1-2.8-2.1-5.6-2.2-8.6"/>
	<path class="st0" d="M1078.2,1415.1c-1.5,39.4,17.8,76.5,23.4,115.5c1.1,7.3,1.6,14.7,2.7,22c2.8,18.9,8.8,37.1,14.8,55.2
		c9.5,28.6,18.9,57.1,28.4,85.7"/>
	<path class="st0" d="M1070.5,1461.6c4.5-5.9,7.9-12.6,9.9-19.8"/>
	<path class="st0" d="M1074.6,1454.8c5.9,10.4,13.5,19.9,22.4,28.1"/>
	<path class="st0" d="M1085,1467.5c17.8,6.4,38,6,55.6-0.9"/>
	<path class="st0" d="M1145.8,1481.2c-8.8,0.4-17.5,1.5-26.3,1.6s-17.7-1-25-4.9c3,16.3-5.2,34.1-19.5,42.5
		c-3.2,1.9-6.8,3.3-10.5,3.3s-7.6-2-9.1-5.4"/>
	<path class="st0" d="M1052.2,1437.3c2.5,21.2,6.2,42.3,10.9,63.2c1.1,5.1,2.3,10.1,4,15.1c3.2,9.5,7.8,18.3,12,27.4
		c8.6,18.6,15.2,38.2,19.6,58.3"/>
	<path class="st0" d="M1054.9,1519.2c2.7,7.3,10.6,12.3,18.4,11.6c3.4-0.3,6.7-1.6,10.1-2.2c5.8-1,11.9,0.2,17,3.2"/>
	<path class="st0" d="M1061.8,1438.1c6.1,32.6,12.2,65.6,9.8,98.7"/>
	<path class="st0" d="M1098.7,1533c-3.7-0.7-7.6,0.1-11.3,0.9c-1.8,0.4-3.5,0.7-5.2,1.2c-5.4,1.5-10.5,4.1-14.9,7.5"/>
	<path class="st0" d="M1088.6,1481.7c3.9,16.3,7.7,32.7,11.6,49c1.2,5.1,2.4,10.2,4,15.1c1.7,5.1,3.8,10.1,6,15.1
		c1.8,4.2,3.6,8.3,5.4,12.5"/>
	<path class="st0" d="M1086.9,1475.2c-1.6,2.1-2.5,4.6-3.4,7c-3.1,8.7-6,17.4-8.9,26.2"/>
	<path class="st0" d="M1085.4,1494c-3.2,1.4-4.7,5-6.8,7.8c-1.4,1.9-3.2,3.6-3.9,5.8"/>
	<path class="st0" d="M1075.7,1517.1c4.4-7,7.6-14.8,9.2-22.9"/>
	<path class="st0" d="M1089.9,1498.7c-3.6,4.9-7.3,9.7-11.1,14.5c-0.9,1.1-1.8,2.2-2.7,3.4"/>
	<path class="st0" d="M1110.9,1588.2c-7.7-3.1-15.4-6.4-22.9-9.9c-1.9-0.9-4-2-4.5-4"/>
	<path class="st0" d="M1115.7,1574.2c-10.3-4.3-22.4-4.3-32.7,0"/>
	<path class="st0" d="M1103.9,1588.4c1.6-3.4,6-4.1,9.7-4.2c5.6-0.2,11.5-0.1,16.6,2.5c2.9,1.4,5.6,3.9,6.1,7.1
		c0.2,1.5,0,3.1-0.4,4.6c-0.6,2.8-1.8,6-4.4,7.2c-2.3,1.2-5.1,0.5-7.7-0.1c-5.7-1.2-11.4-1.7-17.2-1.5"/>
	<path class="st0" d="M1118,1604.6c-8,4.2-17.7,3.4-25.9,7.2c-1.8,0.8-3.5,1.8-4.6,3.6c-9-7.6-19.1-13.9-29.4-18.7
		c-3.2,2.2-6.6,4.1-9.3,5.8c11.3,5.3,22.2,11.5,32.4,18.5c2.6,1.8,5.4,3.7,8.6,3.9c2.3,0.2,4.6-0.6,6.9-0.3
		c5.7,0.7,9.8,7.6,15.4,6.8c3.9-0.6,6.3-4.5,8-8c0.9-1.8,1.6-4.4-0.1-5.5c-1.3,0.8-1.4,2.7-0.9,4.1c1.1,3.2,4.3,5.1,7.4,6.3
		s6.5,1.8,9.3,3.6c1.4,0.9,2.7,2.1,3,3.7c0.6,3.2-2.8,5.6-5.7,7.1"/>
	<path class="st0" d="M1131.3,1637.2c-2.2,3.2-3.4,7-3.4,10.9c-0.1,3.4,0.8,6.9,3.3,9.3c2.4,2.4,6.6,3.1,9.2,1
		c1.7-1.3,2.5-3.5,3.2-5.5c-2.3,0.2-3.5,2.7-4.2,4.8c-1.8,5.2-3.5,10.3-5.3,15.4c-0.4,1.2-0.8,2.4-0.9,3.7c-0.3,4.2,3.9,8,8,7.5"/>
	<path class="st0" d="M1136.3,1696c3.2-4.3,4.7-9.6,5.3-14.9c0.6-5.3,0.3-10.6-0.8-15.8"/>
	<path class="st0" d="M1144.7,1669.6c5.9,12.7,6.8,27.5,3.6,41.1"/>
	<path class="st0" d="M1142.6,1681.1c-1.6,6.2-3.2,12.8-0.7,18.7c2.7,6.3,9.4,9.9,15.9,12c3.2,1,6.7,2,8.7,4.6"/>
	<path class="st0" d="M1161,1704.4c2.9,4.5,5.2,9.3,6.9,14.3c2.8,8.2,4.2,17.3,10.3,23.5"/>
	<path class="st0" d="M1143.2,1705.5c45-22.2,87.2-50.2,125.1-83.1"/>
	<path class="st0" d="M1175.7,1709.8c20-14.4,35.7-33.9,52.4-52c9.9-10.8,20.3-21.3,30.7-31.7"/>
	<path class="st0" d="M1166.5,1724.9c9.4-10.4,20-19.7,31.5-27.7"/>
	<path class="st0" d="M1204.5,1702.1c15.2-14.4,32.9-27.6,53.5-31.1c5.9-1,11.9-1.2,17.6-3"/>
	<path class="st0" d="M1260.9,1675.7c10.5-3.8,18.9-11.6,28.4-17.3c6.7-3.9,13.9-6.8,21.3-9.2"/>
	<path class="st0" d="M1294.2,1657.2c-2.8-3-3.2-7.6-2.7-11.6c0.8-7.3,4.4-14.9,11.1-17.9c5.5-2.5,12.1-1.5,17.9-3.3
		c0.9-0.3,1.9-0.7,2.6-1.4c1.4-1.6,0.9-4.3-0.6-5.9c-1.5-1.6-3.6-2.3-5.7-2.9"/>
	<path class="st0" d="M1295.1,1649.7c24.8,8.6,52.5,8.5,77.2-0.4"/>
	<path class="st0" d="M1315.1,1651.8c13.3-1.8,26.9-1.1,39.9,2c4.2,1,8.7,2.5,11.3,5.9c1.5,2,2.3,4.6,2.5,7.1
		c0.7,6.8-2.2,13.9-7.4,18.4"/>
	<path class="st0" d="M1368.2,1664.1c-0.6,4.8-3.6,9.1-7.2,12.4c-3.5,3.4-7.6,6.2-11,9.6c-3,3.1-5.5,6.6-8.1,10.1
		c-5.3,7.3-10.8,14.5-17.2,20.8c-6.5,6.2-14,11.6-22.5,14.6"/>
	<path class="st0" d="M1340.6,1698.2c-11.6,12.4-27,20.6-42.4,27.7"/>
	<path class="st0" d="M1337.2,1702c-15,11.9-34.2,17.2-53,20.5c-3,0.5-5.9,1-8.9,1.4c-7.9,1-15.9,1.2-23.8,0.7"/>
	<path class="st0" d="M1259.6,1721c-8.3,1.8-16.8,3.9-23.7,8.9c-2.8,2-5.2,4.4-7.8,6.7c-7.6,6.6-16.4,11.8-25.8,15.2
		c-1.5,0.5-3.4,0.9-4.4-0.2"/>
	<path class="st0" d="M1180.2,1737.3c8.2,3.5,17.2,5.5,26.1,5.2s17.9-2.9,25.3-7.9"/>
	<path class="st0" d="M1193.1,1720.7c18.2,4.6,37.4,6.9,55.8,3.2"/>
</g>
<g id="Layer_8">
	<path class="st0" d="M775.2,1190.1c-11,53.3-3.2,110.4,21.8,158.8"/>
	<path class="st0" d="M781.8,1189.9c-10.8,35.2-11.2,73.5-1.3,108.9"/>
	<path class="st0" d="M783.4,1333c-1.3-9.2-4.3-18.1-6.5-27.1c-4.7-19.5-5.7-39.9-3.1-59.8"/>
	<path class="st0" d="M890.3,1252.8c-7.9,26.8-15.8,53.5-23.8,80.2c-6.9,23.4-14,47.2-26.8,67.9c-3.2,5.3-7,10.4-11.9,14.1
		c-2.9,2.1-6.1,3.7-9.3,5.3c-4.6,2.3-9.2,4.6-13.8,6.8"/>
	<path class="st0" d="M776.8,1292.5c-3,8.5-6.1,17.3-5.9,26.3c0.3,15.4,10,29.2,11.6,44.4"/>
	<path class="st0" d="M777.5,1300.2c-2.3,22.9,2.8,46.6,14.4,66.5"/>
</g>
<g id="Layer_9_copy">
	<path class="st0" d="M714.2,1298.3c13.4,20.7,33.4,37,56.2,46.1"/>
	<path class="st0" d="M839.2,1383.1c-28.8-13.4-60.4-19.2-91.5-24.9c-26.2-4.8-52.4-9.6-78.7-14.4c-25.4-4.7-50.9-9.3-78-8.9
		c20.8,3.5,41,10.5,59.5,20.5"/>
	<path class="st0" d="M619.4,1335.5c13.6,2.3,27.7,5.3,38.7,13.7"/>
	<path class="st0" d="M856.8,1400.3c-15.2,5.8-33.2,2.5-46.8-6.9s-22.7-24.4-27-40.3"/>
	<path class="st0" d="M847.5,1411.5c-13.2-6.8-29.1-5.1-42.9-10.5c-6.3-2.5-12-6.4-17.3-10.5c-19.3-14.9-35.6-33.6-48.8-54.2"/>
	<path class="st0" d="M749.2,1359.4c-16.4-17.1-28.5-38.3-34.7-60.7c0.8,18.1,6.3,37,19.7,49.2"/>
	<path class="st0" d="M734.4,1341.2c-18.3-5.4-36.7-10.4-55.3-14.9c-5.6-1.4-11.3-2.7-17-3.5c-10-1.4-20.1-1.4-30.1-1.3
		c-25.1,0.2-50.1,0.4-75.2,0.6"/>
	<path class="st0" d="M719.5,1321.3c-21.9-0.9-43.7-2.2-65.5-3.7c-6-0.4-11.9-0.8-17.7-2.4c-5.8-1.6-11.3-4.5-15.2-9.1"/>
	<path class="st0" d="M710.8,1307.1c-4.9,3.3-11.2,3.8-17.2,3.4c-28.6-1.9-54.7-22-83.3-20.1"/>
	<path class="st0" d="M687.6,1309.1c-8.2,3.5-16.8,7.2-25.8,6.3c-7.6-0.7-14.5-4.5-21-8.5s-12.9-8.5-20.2-10.6c-3.4-1-7-1.6-9.8-3.8
		c-0.8-0.6-1.5-1.8-0.8-2.6"/>
	<path class="st0" d="M495.2,1261.1c35.8,18.5,72.9,35.8,112.6,42.1c5.9,0.9,11.8,1.6,17.7,1"/>
	<path class="st0" d="M601.2,1292.7c-7.7,2.3-15.3,4.7-23,7c-4.9,1.5-9.9,3-15.1,3.3c-8.9,0.4-17.5-2.9-25.8-6.2"/>
	<path class="st0" d="M574.6,1290.4c-9.8,5.5-22,5.3-32.8,2.1s-20.6-9.3-30.2-15.3c-8.4-5.2-16.8-10.5-25.2-15.7"/>
	<path class="st0" d="M468.6,1254.4c6.5,3.8,12.9,8,19.2,12.2c3,2,6,4,9,5.9c16.1,10.6,32.2,21.1,47.4,32.8"/>
	<path class="st0" d="M545,1324.9c-2.1,11.1-0.7,22.6,1.3,33.7c6.8,36.8,21.6,73.7,49.5,98.8"/>
	<path class="st0" d="M535.8,1306.6c-3.8,48.4,5.4,98,26.4,142.1"/>
	<path class="st0" d="M531.2,1305c-5.5,51.2,3.6,104.1,26,150.7"/>
	<path class="st0" d="M517.1,1329.3c3,45.3,14.9,91.2,41.8,127.8"/>
	<path class="st0" d="M515.2,1296.6c-2.1,16.7-1.2,33.8,1,50.5c5.2,39.8,17.3,78.7,35.6,114.5"/>
	<path class="st0" d="M557,1358.7c7.3,2.5,14.7,5,22,7.5c5.9,2,12.2,4,18.1,2.1c2.2-0.7,4.1-1.9,5.7-3.6"/>
	<path class="st0" d="M595.8,1432.4c20,5,41.1,5,61,0c3.8-1,7.5-2.1,11.3-3.1c32.9-8.8,68.5-7.2,100.8,4.6"/>
	<path class="st0" d="M746.3,1438.1c27.2-2.1,54-8.9,78.9-19.9c8.7-3.8,17.7-8.8,21.4-17.6"/>
	<path class="st0" d="M764.3,1436.6c-8.6-2.1-17.5-2.9-26.3-3.7c-17.5-1.5-35-3.1-52.5-4.6c-4.2-0.4-8.4-0.7-12.6-0.7
		c-10,0.1-19.8,2.4-29.6,4.7"/>
	<path class="st0" d="M677.4,1430.3c-22,5.4-45.4,4.3-67.2,10.6c-15.1,4.4-29,12.2-42.7,20"/>
	<path class="st0" d="M646.3,1433.2c-27.5,7.5-54.3,17.6-79.9,30"/>
	<path class="st0" d="M622.8,1441.8c-14.1,4.1-29.1,5-43.6,2.7"/>
	<path class="st0" d="M581.4,1453.4c-12.1,5.6-24.7,9.9-37.6,13"/>
	<path class="st0" d="M522.8,1364.8c-7,3.1-13.1,8.2-17.4,14.6"/>
	<path class="st0" d="M527.5,1371.9c-3.8,1.3-7.2,3.5-10.8,5.2s-7.6,3.1-11.6,2.6"/>
	<path class="st0" d="M522.4,1377.2c-5,4.5-10.8,8-17,10.6"/>
	<path class="st0" d="M525.6,1384.9c-5.3,4.2-11.2,7.8-17.3,10.6c5.1-0.5,10,2,14.9,3.7c4.1,1.4,8.4,2.2,12.7,2.4"/>
	<path class="st0" d="M524.6,1414.6c-19.1-4.4-38.8-6-58.3-4.6"/>
	<path class="st0" d="M521.9,1421.9c-18.4-2.7-37.3-1.6-55.1,3.3"/>
	<path class="st0" d="M512.8,1431.7c-13.5,1.2-27.3-0.6-40.2-5.1"/>
	<path class="st0" d="M500,1440.9c-9.3-2.9-18.8-5-28.5-6.2"/>
	<path class="st0" d="M505.2,1410.6c-0.6,4.5-2.7,8.6-5,12.4c-7.6,13.1-16.9,25.3-27.5,36.1"/>
	<path class="st0" d="M474.6,1461.9c-5.4,13.1-12.2,25.9-22.6,35.4c-2.5,2.3-5.2,4.4-8.3,5.6c-2.1,0.9-4.4,1.3-6.7,1.7
		c-4.5,0.7-9,1-13.5,1"/>
	<path class="st0" d="M452,1479.1c-3.5,1.8-5.7,5.3-8,8.4c-8.6,11.5-21.1,20-34.9,23.9"/>
	<path class="st0" d="M479.6,1459c-4.2,8.2-11.1,14.6-18.6,19.9c-7.4,5.3-15.5,9.8-22.9,15.2c-3.2,2.3-6.3,4.8-10.1,5.9
		c-2.5,0.7-5.2,0.7-7.8,0.7c-3.9,0-8-0.2-11.6-2"/>
	<path class="st0" d="M447.8,1291.2c-6.9,23.8-11.7,48.3-14.3,73"/>
	<path class="st0" d="M436.1,1348.6c1.6,6.3,3.3,12.7,3.2,19.1c0,5.4-1.2,10.7-2.4,16c-5,22.1-10,44.4-20.5,64.4
		c-5.7,10.9-12.9,20.8-19.5,31.2"/>
	<path class="st0" d="M414.5,1442.2c-6.9,28.6-10.5,59.2-1.6,87.5"/>
	<path class="st0" d="M521.1,1296.4c-25.9-2.8-49.6-16.5-70.2-32.7"/>
	<path class="st0" d="M477.4,1285.6c-9.9,2.7-20.7,1.8-30.5-1.7s-18.6-9.3-25.9-15.2c10.1,15.2,25.8,26.6,43.2,31.3"/>
	<path class="st0" d="M517.5,1296.2c-14.4,4.8-30,8.8-43.5,4.5c5.2,3.1,10.6,5.8,16.3,7.9c1.8,0.7,3.7,1.3,4.9,2.2
		c-3.5,3-8,4.7-12.5,4.9c-1.3,0.1-2.7,0-4.2-0.4c4.9,3.3,6.7,9.7,6.8,15.6c0,2.2,0,4.5,1.1,6.4c0.9,1.6,2.6,2.7,3.5,4.3
		c0.9,1.5,0.9,3.4,2.1,4.8c0.6,0.8,1.6,1.2,2.5,1.6c3.5,1.2,7.4,0.6,11-0.4c3.6-1,7.1-2.5,10.8-2.8"/>
	<path class="st0" d="M771.2,1261.1c-9,29.3-10,61.1-2.8,90.9"/>
</g>
</svg>
