<?xml version="1.0" encoding="utf-8"?>
<!-- Generator: Adobe Illustrator 27.5.0, SVG Export Plug-In . SVG Version: 6.00 Build 0)  -->
<svg version="1.1" id="Layer_1" xmlns="http://www.w3.org/2000/svg" xmlns:xlink="http://www.w3.org/1999/xlink" x="0px" y="0px"
	 viewBox="0 0 2000 2000" style="enable-background:new 0 0 2000 2000;" xml:space="preserve">
<style type="text/css">
	.st0{fill:none;stroke:#000000;stroke-miterlimit:10;}
</style>
<g id="Layer_2_00000109731425801776943000000013851656798284851100_">
	<path class="st0" d="M1438.1,689.7c2.3,16,4.5,32,3.7,48.1s-5.1,32.4-14.8,45.3c-3.3,4.5-7.3,8.5-10.3,13.2
		c-3,4.7-5.1,10.4-4.1,15.9s5.9,10.5,11.5,10.2"/>
	<path class="st0" d="M1436,740c-2.3-4.2-5.4-8.1-9.5-10.6c-4.1-2.5-9.4-3.2-13.8-1.2"/>
	<path class="st0" d="M1434.4,735.8c0.8-3.6-0.3-7.7-2.9-10.3c-2.6-2.6-6.7-3.8-10.3-2.9"/>
	<path class="st0" d="M1398.4,766.8c2.8-4.7,7.3-8.5,12.4-10.5c1.7-0.7,3.7-1.2,5.4-0.5s3.1,2.7,2.2,4.4"/>
	<path class="st0" d="M1408.8,753.3c-3.6-1.3-7.8-1.1-11.2,0.7c-3.4,1.8-6.1,5-7.2,8.7"/>
	<path class="st0" d="M1414.6,769.9c-6.4,5.2-10.8,12.9-12.2,21.1c-0.2,1.5-0.2,3.5,1.2,4.2c1.6,0.8,3.3-0.8,4.3-2.2
		c1.8-2.3,3.4-4.8,5-7.3c1.5-2.4,2.9-4.8,3.5-7.5C1417.1,775.5,1416.9,772.5,1414.6,769.9z"/>
	<path class="st0" d="M1415.6,779.7c-1.6-1.8-4.6-1.7-6.6-0.2s-3,3.8-3.8,6c-0.8,2.3-1.5,4.7-2.9,6.6"/>
	<path class="st0" d="M1388.7,782.1c0.3,3.8,2.4,7.5,5.5,9.7c3.1,2.2,7.2,3.1,10.9,2.2"/>
	<path class="st0" d="M1424.7,821.6c0.8,4-0.4,8.3-3.2,11.3c-2.8,3-7,4.5-11,4c-2.2-0.3-4.3-1.1-6.5-1c-2.2,0.1-4.6,1.6-4.6,3.8
		c0,2.2,2.3,3.7,3,5.8c1.2,3.6-3.2,7-7,6.5c-3.8-0.5-6.8-3.3-9.7-5.7c-8.3-7-18.3-11.9-28.8-14.4"/>
	<path class="st0" d="M1360.8,827.5c-6.1,5.7-9.3,13.9-10.5,22.1s-0.8,16.6-0.6,24.9c0.1,2.6,0.1,5.3-0.9,7.8s-3.2,4.5-5.8,4.6
		c-4.3,0.1-6.7-4.8-8-8.9"/>
	<path class="st0" d="M1347.4,856c3.1,4.2,6.2,8.5,9.2,12.7c0.4,0.5,0.9,1.2,1.5,1.3c0.8,0.2,1.6-0.5,1.9-1.3s0.2-1.7,0.1-2.5
		c-1.2-7.3-4.7-14.2-9.9-19.5"/>
	<path class="st0" d="M1356.9,832.5c2.2,3.9,4.5,7.8,7.4,11.2c2.9,3.4,6.6,6.3,10.8,7.7c4.3,1.4,9.2,1.1,12.9-1.5"/>
	<path class="st0" d="M1266.4,819c10.8,24.6,21.8,49.6,39.1,70.1c1.8,2.2,3.8,4.3,6.2,5.9c2.4,1.5,5.4,2.4,8.2,1.8"/>
	<path class="st0" d="M1277.1,860c3,2.4,6.9,3.2,10.7,3.8s7.7,0.9,11.1,2.7s6.2,5.4,5.6,9.2"/>
	<path class="st0" d="M1297,867.2c2.3,5.6,5.1,11.2,9.3,15.5c4.2,4.4,10.1,7.5,16.1,7.3c6.1-0.2,12.1-4.4,13.4-10.3"/>
	<path class="st0" d="M1297.4,876.7c2.8,5.1,6.5,9.7,11.4,12.8s11,4.5,16.6,3.1c5.6-1.4,10.6-5.8,11.8-11.5"/>
	<path class="st0" d="M1286.6,859.5c-4.8-5.2-12.2-7.5-19.2-7.6c-7.1,0-14,1.9-20.8,4.2"/>
	<path class="st0" d="M1253.1,848.7c-10.7,15.2-17.7,33.1-20,51.5"/>
	<path class="st0" d="M1232.8,844.3c0.7,17.3-3.4,34.7-11.6,50"/>
	<path class="st0" d="M1210.1,785.9c2,13,14.6,21.5,21,33.1c2.3,4.2,3.8,8.7,5.2,13.2c2.2,7,4.5,13.9,6.7,20.9"/>
	<path class="st0" d="M1192.7,788.4c1.9,5.1,4.4,9.9,6.4,14.9c9.6,23.3,9.3,49.6,6.3,74.6"/>
	<path class="st0" d="M1170.9,841.6c10.2-9.3,17.7-21.6,21.2-35c1.8-6.6,2.6-13.8,0.2-20.2c-1.9-5-5.5-9.2-9.2-13.1
		c-6.8-7.2-14.1-13.9-21.9-20.2"/>
	<path class="st0" d="M1179.2,764.4c-13.3-3.3-27.2-3.9-40.8-1.8"/>
	<path class="st0" d="M1298.4,803.8c-18.6-13.3-40-22-61.5-29.7c-16.9-6.1-34.2-11.7-52.2-12.6"/>
	<path class="st0" d="M1315.2,802.1c-24.1-21.2-54.3-34.6-85.7-41.3c-31.3-6.7-63.8-6.8-95.7-3.4"/>
	<path class="st0" d="M1203.2,782.6c-19.6-22.4-46.8-37.9-76-43.5"/>
	<path class="st0" d="M1335.9,791.7c-17.8,7.2-34.9,16.4-50.7,27.2"/>
	<path class="st0" d="M1325.6,782.8c-19.6,7.1-37,18.9-54.2,30.7"/>
	<path class="st0" d="M1178.3,741.1c-16.9-9.2-34.6-17.1-54-24.2c4.2,6.8,8.3,14.3,7.4,22.2"/>
	<path class="st0" d="M1165.4,706.3c-6.9-2.5-13.8-5-20.9-6.5c-7.2-1.5-14.6-2-22.6-0.2c15.4,5.7,29.4,15.2,40.4,27.4"/>
	<path class="st0" d="M1211.3,745.1c3.5,3.4,7.7,6.1,12.2,8c6.3,2.7,13.7,3.9,18.4,9"/>
	<path class="st0" d="M1247.6,751.5c-4.5,0.2-9-1.2-13-3.1c-3.5-1.7-6.9-3.8-10.7-4"/>
	<path class="st0" d="M1225.3,700.8c0.9,16.8-0.7,33.5-2.3,50.2"/>
	<path class="st0" d="M1354.6,697c-4.4,6.2-7.3,13.3-9.6,20.6c-4.9,15.7-7.2,32.2-6.8,48.6c0.2,7.5,1,15,0.6,22.5
		s-2.1,15.1-6.3,21.3"/>
	<path class="st0" d="M1323.2,711.5c-1.6,17.2-2,34.6-1.2,51.9c0.4,7.8,1,15.7,3.3,23.2c2.3,7.4,6.2,14.5,6.5,22.2"/>
	<path class="st0" d="M1312.8,746.3c-3.8-4.5-7.9-8.6-12.4-12.4c-3.6-3-7.7-5.9-12.4-6.6"/>
	<path class="st0" d="M1279.3,778c-4.7-5.4-5.4-13.2-4.7-20.4c1.2-11.8,6.2-24,16.2-30.4"/>
	<path class="st0" d="M1296,740.1c0.2,3.5,2.2,6.5,3.8,9.7s2.8,6.9,1.2,10"/>
	<path class="st0" d="M1289.1,747.3c-0.1-1.5-0.5-3.4-2-3.7c-0.8-0.2-1.7,0.3-2.2,1.1c-0.5,0.7-0.7,1.6-0.8,2.4
		c-1.1,5.7-1.2,11.5-0.4,17.3"/>
	<path class="st0" d="M1290.6,767.5c1-2,3-3.4,5.2-3.6c2.2-0.2,4.4,0.9,5.7,2.7c0.8,1.2,1.2,2.6,1.4,4.1c0.8,6.2-2.3,12.6-7.2,16.5"
		/>
	<path class="st0" d="M1395,680c-11.2,12.5-24.2,23.3-38.5,32"/>
	<path class="st0" d="M1345.7,716.1c28.7-3.5,55.8-18.3,74.4-40.4"/>
	<path class="st0" d="M1376.1,707.9c10.6-2.5,21.3-5,31.1-9.7c9.8-4.7,18.7-12,23.5-21.7"/>
	<path class="st0" d="M1435.2,789.5c6-7.5,9.3-16.9,10.6-26.5c1.3-9.5,0.9-19.2,0.2-28.8c-0.4-6.7-1-13.3-1.6-20
		c-0.8-8.7-1.8-17.5-6-25.2"/>
	<path class="st0" d="M1476.7,750.8c-4.8-22.4-17.9-42.5-34.4-58.4s-36.2-28.2-56.3-39"/>
	<path class="st0" d="M1329.1,643.3c24.2,1.8,48.1,8.1,70.1,18.4"/>
	<path class="st0" d="M1351,641.3c-12-4.6-25.5-2.7-37.9,0.7c-12.4,3.3-24.6,8.1-37.4,9c-5.4,0.4-10.8,0.1-16.2,0.5
		c-17.9,1.2-35.2,10.2-46.5,24.1"/>
	<path class="st0" d="M1300.4,644.5c-15.6,10-27.5,24.6-39.2,39"/>
	<path class="st0" d="M1301.9,659.6c-14.2,6.3-27.8,14.2-40.1,23.7"/>
	<path class="st0" d="M1345,650.8c-7.8,4.7-16.7,7.2-25.6,9.5c-5.4,1.4-10.8,2.7-16.3,2.9c-4.5,0.2-8.9-0.3-13.4-0.8
		c-18.6-2.1-37.2-4.2-55.8-6.3"/>
	<path class="st0" d="M1285,666.4c26.7,0.7,53.4-2.4,78.9-9.7c-3.7,3.3-8.2,5.5-12.7,7.6c-25.6,11.8-53.3,19-81.4,21.2"/>
	<path class="st0" d="M1333.3,672.2c0,7.8-5.2,14.5-10.7,19.9c-5.3,5.3-11.3,10-17.7,14"/>
	<path class="st0" d="M1387.2,664c-11,6.2-22,12.5-32.9,18.7c-16.2,9.2-32.6,18.5-50.7,23"/>
	<path class="st0" d="M1308.4,729.8c-6.2-9.3-13.5-18.1-22.9-24.3c-5.3-3.4-11.1-5.9-16.8-8.4c-7.3-3.2-14.6-6.3-22-9.5
		c-5-2.2-10.3-4.4-15.8-4.1"/>
	<path class="st0" d="M1254.2,678.5c-11.1,2.1-22.3,3.6-33.5,4.5c-3.7,0.3-7.3,0.5-10.9-0.1c-4.9-0.9-9.3-3.3-13.7-5.6
		c-7.3-4-14.8-8-20.3-14.2c-5.5-6.1-8.8-13.8-11.4-21.6c-7.1-21-9.8-43.6-9.7-64.8c-5.3,21.7-2,45.3,8.9,64.8"/>
	<path class="st0" d="M1271.5,756.7c-21.3-21-45.3-39.3-71.2-54.3c-8.4-4.9-17.2-9.6-24.1-16.4c-10.1-10-15.3-23.8-19.6-37.3
		c-6.5-20.4-11.5-42.3-7.7-62.2c-5.9,27.8,0,56.5,5.9,84.3"/>
	<path class="st0" d="M1149.1,591.3c-6.8,16.7-7.5,35.4-4.5,53.2s9.3,34.8,16.2,51.5s15.1,34.1,30.4,43.7"/>
	<path class="st0" d="M1128.6,672.6c15.1,7.9,27.9,20,36.5,34.7"/>
	<path class="st0" d="M1150.5,670.8c-5.8,2.8-12.5,2.9-18.9,2s-12.6-2.7-19-3.4c-6.2-0.6-12.4-0.2-19.2-0.6c8-1.4,15.9-3.3,23.7-5.7
		c3.9-1.2,7.9-2.7,10.6-5.9"/>
	<path class="st0" d="M1050,620c11.7-0.6,23,3.7,33.6,8.8c24.1,11.4,46.2,26.8,65.4,45.4"/>
	<path class="st0" d="M1241.1,679.8c-14.3-15.9-34.4-25.6-55-31.4c-20.6-5.8-42-8-63.2-11.1c-4.4-0.7-8.7-1.3-13-2.4
		c-5-1.3-9.8-3.1-14.7-4.7c-13.4-4.4-27.3-7.1-41.1-9.8"/>
	<path class="st0" d="M1177.9,644.4c-26.4-4.2-50.6-17.2-76.8-22.7c-6.9-1.5-13.9-2.4-20.9-3.3c-4.8-0.6-9.5-1.2-14.3-1.9"/>
	<path class="st0" d="M1435.4,684.1c-4.6-6-9.3-12.2-15.1-17.1c-10.4-8.7-23.6-13.1-36.5-17.2"/>
	<path class="st0" d="M1400.8,656.2c-14.1-11.4-31-19.3-48.8-22.6c-7.2-1.3-14.7-1.9-22-1.3c-3.2,0.3-6.4,0.8-9.6,1.4
		c-31.3,6.2-60.4,23.1-81.3,47.2"/>
	<path class="st0" d="M1319.5,634.6c-11.4-0.7-23-0.3-34.3,1.3c-7.4,1-14.8,2.6-21.6,5.7c-8.2,3.7-15.2,9.6-22.2,15.3"/>
	<path class="st0" d="M1370.2,639c-11.1-5.5-23.7-6.5-36.1-7.4c-11.3-0.9-22.7-1.7-34.1-1.5c-23,0.5-45.9,5.6-67,15"/>
	<path class="st0" d="M1193.3,639.5c4.8,1.3,9.7,2.5,14.6,3.8c13.5,3.5,27.3,7.1,41.2,5.7"/>
	<path class="st0" d="M1154.1,592.8c13.7,18.2,30.6,34.5,51.2,44.1c14.8,6.9,30.9,10.3,46.9,13.5"/>
</g>
<g id="Layer_3">
	<path class="st0" d="M1011.9,341.6c-3,8.9-1.2,18.9,3.3,27.1c4.4,8.2,11.2,15,18.3,21.1"/>
	<path class="st0" d="M1019.8,353.7c-2.2,15.1,0,30.9,6.4,44.8"/>
	<path class="st0" d="M1081.7,443c-12.8-18.6-36.1-27.6-49.6-45.7c-9.2-12.4-13.1-28.7-10.3-44"/>
	<path class="st0" d="M1045.2,387.2c-8.8-10.1-15.7-22-19.9-34.7"/>
	<path class="st0" d="M1071.6,381.8c-9.4-2.5-16.2-10.4-23.9-16.4c-6.9-5.5-14.9-9.6-23.4-12.1"/>
	<path class="st0" d="M1035,379.3c20.6,37,53.1,67.3,91.4,85.2c11.8,5.5,24.1,9.9,36.1,15c8.7,3.7,17.2,7.8,25.6,12.2"/>
	<path class="st0" d="M1082.5,426c11.8,4.3,24.4,6.3,36.9,6c8.1-0.2,16.1-1.3,24.2-2.5c7.1-1,14.2-2,21.2-3"/>
	<path class="st0" d="M1206.2,477.1c-13.7-2.1-27.5-4.1-41.2-6.2c-11.6-1.8-23.4-3.5-34.2-8.3c-7.7-3.4-14.7-8.2-21.4-13.3
		c-9.6-7.4-18.7-15.6-27-24.5"/>
	<path class="st0" d="M1044.9,388.6c33.2,19.3,67.1,38.9,104.7,46.9c28.9,6.2,58.9,5.2,88.3,1.8"/>
	<path class="st0" d="M1105.5,416.1c35.9,16.7,76,24.4,115.5,22.1"/>
	<path class="st0" d="M1034.8,382.5c25.3-0.2,48.1,14.1,72.1,21.9c31.4,10.3,65.3,9.6,98.3,7.4"/>
	<path class="st0" d="M1033.6,366.4c25.6,14.6,53.5,25,82.4,30.8"/>
	<path class="st0" d="M1118.3,388.9c12.2,2.6,24.9,1.5,37.4,1.2c12.5-0.2,25.6,0.6,36.5,6.6c12.8,7.1,22.2,21,36.6,23.6"/>
	<path class="st0" d="M1101.2,386.1c12.4-0.9,24.8-1.9,37.2-2.8c12.8-1,26.1-1.8,38.1,2.7c17.5,6.7,29.2,23.8,46.3,31.7
		c13.2,6.1,28.4,6.1,42.7,9.1c19.5,4.1,37.2,14,54.7,23.6"/>
	<path class="st0" d="M1304,476.4c-27.8-14.5-50.2-39.1-62.1-68.1c-1.8-4.3-3.3-8.7-3.8-13.4"/>
	<path class="st0" d="M1067.6,375.2c33.4,0.7,66.7,5.3,99.1,13.6c5.3,1.4,10.6,2.8,15.5,5c4.1,1.8,7.9,4,11.7,6.3
		c9.1,5.5,17.9,11.5,26.5,17.8"/>
	<path class="st0" d="M1293.4,470.4c-19.1-13.5-35.3-30.7-50.2-48.7c-5.4-6.5-11.1-13.5-19.1-16.4c-6.9-2.5-14.6-1.6-21.9-0.6"/>
	<path class="st0" d="M1271.2,448.6c-19.6-12.9-38.4-26.7-56.6-41.5"/>
	<path class="st0" d="M1141.1,391.8c47.2,26.5,84.2,67.5,124.9,103.4"/>
	<path class="st0" d="M1290.2,487.1c-37.1-22.8-73.5-46.5-109.3-71.4"/>
	<path class="st0" d="M1258.9,440.1c5.7,11.8,10.5,24.1,14.4,36.6"/>
	<path class="st0" d="M1330.4,505.2c-9.8-2.8-19.4-6.1-28.8-9.9c-14.8-6-29.9-14-37.7-27.9"/>
	<path class="st0" d="M1275.9,514.2c12.2-4.3,25.3-5.8,38.2-4.2c2.1,0.2,4.1,0.6,6,1.6s3.3,2.7,3.5,4.8"/>
	<path class="st0" d="M1286.1,487c0.7-4.6-0.3-9.2-1.7-13.6c-3.3-10.3-9.5-19.6-17.6-26.7"/>
	<path class="st0" d="M1292.6,490.8c1.7-6.9-0.8-14-4-20.3c-6.9-13.1-17.7-24.2-30.8-31.2"/>
	<path class="st0" d="M1176.5,483.9c-1.7,5.6-1.6,11.6-0.6,17.4s2.9,11.3,4.9,16.9"/>
	<path class="st0" d="M1185.6,489.3c1.5,13.8-2.6,28.1-11.3,39c-4.7,5.9-11.1,11.9-10.7,19.4"/>
	<path class="st0" d="M1170.2,523.1c3.1,13.2-2.9,27.5,1.3,40.3c1.7,5.2,5.1,9.8,9.5,13.1"/>
	<path class="st0" d="M1173.4,562.3c-1.4,3.4-0.6,7.2,0.4,10.7c1.8,6.1,4.2,12.1,7.4,17.6"/>
	<path class="st0" d="M1175.8,548.3c14.2-0.6,28.2-3.5,41.4-8.7c2.6-1,5.3-2.2,7-4.5"/>
	<path class="st0" d="M1007.6,581.7c9.1,8.4,19.8,15.1,31.3,19.5"/>
	<path class="st0" d="M1085,606.6c-5,1.8-10.6,1-15.7-0.6c-5.1-1.6-10-3.8-15.3-4.8c-5.8-1-11.7-0.4-17.5,0.2"/>
	<path class="st0" d="M1007.9,580.5c-1.7,11.1,0.7,22.8,6.6,32.3c1.5,2.5,3.8,5.1,6.7,5"/>
	<path class="st0" d="M1000.3,602.2c6.3,1.7,11.7,6.6,14.8,10.2c-3.5-7-5.3-14.7-5.4-22.5c0-1.8,0.1-3.7,1.2-5"/>
	<path class="st0" d="M1026.4,619.3c22.6,4.9,45.1,10.5,67.3,16.9"/>
	<path class="st0" d="M1044.4,625.2c-0.6-8.9-1.7-17.8-3.2-26.6"/>
	<path class="st0" d="M1007.8,581.5c14,5.6,28.1,11.3,43.1,13.1"/>
	<path class="st0" d="M1030.2,585.4c7.8-1.2,14.9,3.8,22,7.4c14.8,7.4,31.9,8.7,48.5,9.1c29.4,0.8,58.9-0.6,88.2-3.9"/>
	<path class="st0" d="M1055.6,587.1c41.7,3.6,83.7,4.9,125.6,3.7c15.1-0.4,30.3-1.1,45-4.2c15-3.1,29.4-8.7,43.7-14.2
		c18.3-7,37.3-14.5,51.1-28.5"/>
	<path class="st0" d="M1153.3,591.8c16.9,0.6,34-2,50-7.5c9.3-3.2,18.3-7.5,27.8-10.3c14.5-4.3,31-5.8,41.9-16.4"/>
	<path class="st0" d="M1177.2,608.1c15-3.3,30-6.6,45-9.9c25.9-5.7,52.8-11.9,73.1-28.9"/>
	<path class="st0" d="M1220.3,602.6c31.7,0.1,63.3-8.9,90.2-25.7"/>
	<path class="st0" d="M1328,526c16.3,27.3,34,53.7,52.9,79.2c5.4,7.3,11,14.6,17.2,21.3c29.1,31.9,71.5,51.3,114.6,52.3"/>
	<path class="st0" d="M1311.6,373.9c8,10.9,14.8,22.6,20.1,35c6.1,14,10.4,28.7,15.8,43c5.5,14.4,12.2,28.4,18.4,42.6
		c17,39,29.9,79.8,38.4,121.5"/>
	<path class="st0" d="M1385.3,598.9c9.3,5.1,16.2,13.8,21,23.3s7.5,19.8,10.1,30.1"/>
	<path class="st0" d="M1324.6,500.5c12.8,16.6,24.1,34.3,33.7,52.9"/>
	<path class="st0" d="M1285.5,567.9c8.6,4.3,18.9-0.4,26.6-6.1s15.3-12.8,24.8-13.7c7.3-0.7,14.3,2.5,20.5,6.4
		c18.9,11.8,33,31,38.6,52.5"/>
	<path class="st0" d="M1302.2,601.4c14.2-14,33.9-22.4,53.8-22.8"/>
	<path class="st0" d="M1330.9,562.3c9.4,10.7,14.8,24.3,22.1,36.5c7.3,12.3,17.6,24,31.6,27"/>
	<path class="st0" d="M1328.2,552.2c21.8,27.2,43.7,54.4,65.5,81.6c5,6.2,10,12.5,15.6,18.2c12.1,12.5,26.8,22.4,42.8,29
		c8.3,3.4,17,6,25.7,8.5c17.7,5.1,36.6,10.2,54.2,4.9"/>
	<path class="st0" d="M1310.4,620c24.5,0,49.1,4.4,72,13"/>
	<path class="st0" d="M1405.1,647.1c-17.8-6.6-36.4-11-55.2-13.1"/>
	<path class="st0" d="M1288.4,616c-6.2,0.2-11.7,3.8-16.8,7.3c-5.6,3.9-11.3,7.9-15.4,13.4"/>
	<path class="st0" d="M1288.5,607.9c-6.8,2.7-12.6,7.5-18.1,12.4c-6.4,5.8-12.7,12-15.7,20.1"/>
	<path class="st0" d="M1306.6,607c7.6-4.5,16.9-4.5,25.7-4.4c7.5,0,14.9,0,22.4-0.5"/>
	<path class="st0" d="M1367.5,478c5.3,13.6,10.7,27.2,17.7,40c5.4,9.8,11.7,19.1,17.4,28.8c21.1,35.9,33.2,77,35,118.6"/>
	<path class="st0" d="M1430.4,617.3c2.2-4.5,2.8-9.6,3.3-14.6c1.8-16.9,3.5-34.2-0.7-50.6"/>
	<path class="st0" d="M1411.3,564.8c4.3-4.5,7.3-10.2,10.2-15.8c13-25,26-50.1,36-76.5"/>
	<path class="st0" d="M1435.1,564.2c9.6-14.2,14-31.1,18.3-47.6c3.8-14.8,7.6-30.6,2.5-45"/>
	<path class="st0" d="M1504.5,685c5.7-3.7,12.3-5.9,19.1-6.4c2.9-0.2,6-0.1,8.3,1.5c3.1,2.1,4.2,6.5,3.4,10.1"/>
	<path class="st0" d="M1503.8,711.8c1.8,1,4,0.7,6,0.2c8.6-2.1,17.1-6.2,22.6-13.1c2-2.5,3.6-5.4,3.5-8.6"/>
	<path class="st0" d="M1519.3,709.5c4.3-2.5,9.1-4.3,14-5.2c2.4-0.5,5-0.8,6.9-2.2c2.5-1.9,3.3-5.3,3.2-8.5c-0.1-2-0.4-4-0.1-6
		c0.3-2,1.6-4,3.5-4.4"/>
	<path class="st0" d="M1505.1,712.9c6.7,1.1,13.5,2.2,20.2,1.2c4.4-0.7,8.7-2.2,12.9-3.8c2.4-0.9,4.8-1.8,7.2-2.7
		c2-0.7,4-1.5,5.6-2.8c2.2-1.9,3.4-4.8,3.5-7.7c0.2-2.9-0.6-5.8-1.7-8.5c-1-2.5-2.6-5-5.2-6.2c24.7-2.8,49.6-4.8,74.4-6"/>
	<path class="st0" d="M1583.7,682.1c4.3-11.5,2.5-24.5-1.6-36.1c-0.9-2.6-1.8-5.8,0.2-7.6c1.3-1.2,3.3-1.1,5.1-1
		c13.3,1.2,26.5,3.5,39.4,6.9"/>
	<path class="st0" d="M1584.1,637.7c9.1,3.2,18.3,6.5,27.4,9.7c5.8,2.1,11.9,4.2,16.4,8.5c4.6,4.3,7.4,10.7,13.2,13.2"/>
	<path class="st0" d="M1604.3,674.3c-0.2-4.3-1.6-8.4-3.7-12.2c-2-3.8-4.7-7.2-7.3-10.5"/>
	<path class="st0" d="M1604.5,678.4c-0.4-3.9,1.8-7.5,3.8-10.8c2-3.3,3.9-7.2,2.8-10.9"/>
	<path class="st0" d="M1610.2,677c0.2-2.7,1.5-5.2,3.1-7.3c1.6-2.2,3.6-4,5.6-5.8c1.8-1.7,3.6-3.3,5.4-5"/>
	<path class="st0" d="M1639.6,664.5c1.3,2.5,2.7,5.1,3.4,7.9c1.2,4.9,0.4,10.2-1.3,14.9c-1.8,4.7-4.5,9.1-7.2,13.3"/>
	<path class="st0" d="M1639.6,690.6c-4.9,5.2-9.9,10.4-14.8,15.6c-9,9.5-18,19-24.9,30.1c-5.2,8.4-9.1,17.6-11.5,27.1"/>
	<path class="st0" d="M1590.7,753.3c-16.2,5.4-29.6,17-44.4,25.5c-1.3,0.7-2.6,1.4-4,1.6c-1.9,0.2-3.8-0.5-5.7-1
		c-4.8-1.1-9.9-0.2-14.4,1.8c-4.5,2-8.6,4.8-12.6,7.7c-4.1,2.9-8.2,5.9-12.3,8.8"/>
	<path class="st0" d="M1507.9,789.2c-18.7,0.5-35.9,10-51.2,20.7c-9.2,6.3-18.9,13.5-30,13.8"/>
</g>
<g id="Layer_4">
	<path class="st0" d="M486.9,377.8c36.1,46.2,72.3,92.6,113.7,134.1c10,10,20.5,19.9,33.2,26.1c10.9,5.3,23,7.7,35,9.7
		c25.6,4.1,52.5,6,77-2.5"/>
	<path class="st0" d="M641,465.8c10.8,14.7,23.2,28.2,36.8,40.4c13.1,11.7,28.6,22.7,46.2,23"/>
	<path class="st0" d="M656,464.2c13.1,18.1,29,34.1,46.9,47.3c6.2,4.6,13,9,20.7,9.7"/>
	<path class="st0" d="M571.5,447.9c6.1,11.5,19.7,16.3,32.1,20.3c6.8,2.2,13.6,4.3,20.3,6.5c7.9,2.5,15.8,5,24,6.3
		c19.6,3,40.2-1.5,59.2,4.4"/>
	<path class="st0" d="M522.1,398.1c9.9,10.5,14.8,24.7,22.9,36.6c4.6,6.8,10.1,12.9,15.7,19c9.9,10.9,19.9,21.7,29.8,32.6
		c3.1,3.4,6.2,6.8,10,9.3c4.6,3.1,10,4.7,15.3,6.3c13.7,4,27.5,7.6,41.3,10.8c7,1.6,14.2,3.2,21.2,1.4c6.8-1.7,13.1-6.4,20.1-5.8"/>
	<path class="st0" d="M574.9,480.1c11.6,9.2,23.2,18.5,34.8,27.7c3.1,2.5,6.2,4.9,9.7,6.8c5.2,2.7,11,3.9,16.7,5.6
		c11.6,3.4,22.4,8.9,33.7,13.2s23.5,7.3,35.4,5.5"/>
	<path class="st0" d="M695.1,531.3c15.8,6.2,33.5,5.5,50.2,2.7"/>
	<path class="st0" d="M669.8,528.7c24.4,12.5,52.7,17.4,79.9,14"/>
	<path class="st0" d="M583.1,489.7c13.9,23.8,39.3,39.2,65.9,46.2s54.6,6.6,82.1,4.7"/>
	<path class="st0" d="M486.5,382.3c19.8,19.8,22.6,51.6,40.8,72.8c5.5,6.4,12.2,11.6,18.8,16.7c13.8,10.6,28,21.5,44.8,26.2"/>
	<path class="st0" d="M476.1,373.1c5.9,7,11.7,13.9,17.1,21.2c2,2.7,4,5.6,5.2,8.7c1.9,5,1.9,10.7,4.8,15.3"/>
	<path class="st0" d="M483.2,389.7c-0.2-4.8,3-9,5.5-13.1c3.2-5.3,5.6-11.2,10.4-15.1"/>
	<path class="st0" d="M469.9,390.2c6.8-6.2,11.7-14.1,16.6-21.9c6.3-10.1,12.7-20.2,21.1-28.6c8.4-8.4,19-15.1,30.7-16.8
		c4.3-0.6,8.8-0.5,13.2-0.4c21.8,0.4,43.8,0.6,65.3-3.1s42.7-11.7,59.3-25.8"/>
	<path class="st0" d="M521.6,305.7c6.6,3.8,13.7,6.6,21,8.8c32,9.7,67.3,8.1,98.3-4.5"/>
	<path class="st0" d="M551.1,306.1c-0.7,16.7,4.5,33.6,14.4,47.1c4.4,6,9.8,11.3,14.7,16.9c11.3,13,20.6,27.6,32,40.6
		c11.9,13.6,26,25.1,40.2,36.3c9.8,7.8,19.8,15.6,31.2,20.7"/>
	<path class="st0" d="M547.3,316.2c-0.3,11.8,5,23,11.1,33.1c14.1,23.4,33.3,43.7,55.8,59.2c15.4,10.6,32.3,18.9,49.4,26.2
		c10.5,4.5,21.3,8.7,32.6,9.6"/>
	<path class="st0" d="M569.9,348.5c16.5,43.9,49.5,81.4,91.1,103.2c7.5,4,15.4,7.4,23.6,9.4"/>
	<path class="st0" d="M570.2,363.2c6.9,28.7,26.3,54.2,52.2,68.4"/>
	<path class="st0" d="M663.2,316.1c-35.9,13.1-77.8,0.6-112.7,16.1c-7.7,3.4-14.7,8.1-21.5,13.1c-15.2,11.2-29.5,24.6-38,41.5"/>
	<path class="st0" d="M500.6,365.3c5.8-9.1,14.4-16,23-22.5c5.4-4.1,11-8.1,17.1-11.1c15.6-7.5,33.6-7.5,50.9-7.3"/>
	<path class="st0" d="M577.3,323.5c-14.6-0.3-29.6-0.5-43.5,3.9s-27,14.4-31.2,28.5c-2,6.8-1.9,14.1-1.7,21.2"/>
	<path class="st0" d="M524.9,325.7c-12.5,4.5-22.7,14.9-27,27.5c-1.6,4.8-2.4,9.7-3,14.7c-1.1,8.7-1.6,17.7,1.1,26.1"/>
	<path class="st0" d="M530,319.1c16.7,4.3,34.2,4.1,51.4,3.9"/>
	<path class="st0" d="M636.9,314.2c5.9,13.6,17.8,23.4,27.3,34.8c4.5,5.4,8.5,11.1,12.6,16.8c11.8,16.8,23.8,34.2,28.5,54.2"/>
	<path class="st0" d="M668.6,411.5c-1.6-4.9-1.5-10.1-0.5-15.2s2.8-9.8,4.6-14.6"/>
	<path class="st0" d="M652.1,318.5c13.4,33.6,42.4,58.4,60.5,89.7c2.5,4.4,4.9,9,7,13.6c4.6,10.2,8.1,22,4.1,32.5"/>
	<path class="st0" d="M668.9,460.4c8.7,5.8,18.7,9.2,28.5,12.6c2.2,0.8,4.5,1.5,6.8,1.9c2.8,0.5,5.8,0.5,8.7,0.2
		c2.8-0.3,5.6-0.7,8.2-2c4.4-2.2,7.4-6.5,8.8-11.1c1.5-4.6,1.6-9.6,1.3-14.5c-0.8-17.2-5.5-34.2-13.6-49.3c-2.2-4-4.8-8.2-9-10"/>
	<path class="st0" d="M685.2,326c10.9,10.8,22,21.7,30.4,34.5c2.5,3.8,4.8,7.7,7.5,11.3c7.5,10,18.1,17.1,28.5,24"/>
	<path class="st0" d="M662.9,298.5c8.8,8.3,17.6,16.5,26.4,24.8c6.5,6.1,13,12.3,18.4,19.4c4.7,6.1,8.5,12.9,13.2,19
		c6.7,8.7,15.2,15.9,22.5,24.2c4.8,5.6,9.1,11.7,13.3,17.8c6.4,9.2,12.8,18.5,19.2,27.7c8,11.5,16.3,23.8,17.2,37.9
		c0.3,4.5-0.2,9-0.8,13.4c-1.3,9.5-3.4,19.1-8.4,24.6c7.1-1.4,11.7-8.3,14.3-15c3.5-9.1,5-19,4.4-28.7"/>
	<path class="st0" d="M792,471.6c1-6.5,1.9-13.4-0.2-19.6"/>
	<path class="st0" d="M696.7,325.2c18.1,12.2,24.7,35.7,39.7,51.5"/>
	<path class="st0" d="M775.8,491c-4.2-0.9-8.6,0-12.9,0.9c-9.3,1.9-18.9,4-26.9,9.1c-11.2,7.2-18,19.6-22.6,32.2"/>
	<path class="st0" d="M768.3,493c-14,6.1-28.4,12.5-38.2,24.3c-4.3,5.2-7.5,11.2-10.3,17.4"/>
	<path class="st0" d="M786.3,504.8c5.7-5.1,9.8-11.8,11.7-19.2c1.9-7.4,1.5-15.3-1-22.5"/>
	<path class="st0" d="M801.1,478.3c0.3-1.5,0.1-3.2-0.6-4.6c-0.2-0.5-0.5-1-0.9-1.4c-0.7-1.1-1.4-2.1-2.3-3c-0.5-0.4-1-0.8-1.5-1.3
		c-1.2-1.3-1.5-3.1-1.7-4.9"/>
	<path class="st0" d="M617,522.8c12.7,9.6,26.5,17.7,41.5,23c15,5.3,31.1,7.7,46.9,5.8c14.3-1.7,28-6.8,42.2-9"/>
	<path class="st0" d="M670.5,542.1c10,5.5,21.4,8.6,32.9,8.8"/>
	<path class="st0" d="M645.5,546.5c17,13.3,37.6,21.4,58.7,26.1s42.7,6.2,64.3,7.2"/>
	<path class="st0" d="M541.7,471.5c2,17.8,12.1,33.9,25,46.2c12.9,12.3,28.7,21.3,44.5,29.5c17.7,9.1,36.3,17.6,56.1,18.9
		c26.9,1.7,52.7-10,77.2-21.5"/>
	<path class="st0" d="M791.8,604.7c-21.1-30.5-43.9-59.8-68.1-87.8"/>
	<path class="st0" d="M727.7,516.1c57.2,55.2,116.7,108,178.5,158.1"/>
	<path class="st0" d="M731.8,513.1c14.7,19.1,31.5,36.7,50,52.3"/>
	<path class="st0" d="M730.2,507.1c35.7,25.2,72,50.8,99.4,84.8c6.6,8.2,12.7,16.8,19.9,24.3s16,14,26.1,16.8"/>
	<path class="st0" d="M747.3,507.6c24.1,17.3,48.2,34.7,72.2,52"/>
	<path class="st0" d="M925.5,659.3c-29.1-23.8-58.3-47.7-84.5-74.7c-26.7-27.6-50.7-58.8-83.6-78.6"/>
	<path class="st0" d="M748.8,499.3c34.1,14.7,67.5,31.3,99.7,49.8"/>
	<path class="st0" d="M757.6,496.7c31.7,16.1,63.4,32.2,95.1,48.2"/>
	<path class="st0" d="M776.5,518.3c11.4-13.6,17.5-31.6,16.6-49.3"/>
	<path class="st0" d="M852.4,544.5c-0.4,5.2-3,10.2-7.1,13.4"/>
	<path class="st0" d="M758.7,584.3c7.5-15.2,20.3-27.7,35.7-35c15.3-7.2,33.2-9.1,49.7-5.2"/>
	<path class="st0" d="M763.2,596.2c9-22.5,25.9-41.7,47.1-53.6"/>
	<path class="st0" d="M836.7,551.2c-15.6-0.2-31.5,2.5-45.3,10c-13.7,7.4-25.1,19.9-29.3,35"/>
	<path class="st0" d="M754,590.9c35-0.8,69.5-16.2,93.3-41.8"/>
	<path class="st0" d="M828.2,565.6c36.5,36,75.7,69.4,117.1,99.7"/>
	<path class="st0" d="M858,588.1c10,4.2,16.9,13.2,24.4,21c17.5,18.6,39.6,32.3,58.9,49c13,11.3,24.7,23.9,37.6,35.3
		c13.5,11.9,28.2,22.5,43.7,31.4"/>
	<path class="st0" d="M857.4,615.6c48.3,50,98.7,97.9,151.1,143.6"/>
	<path class="st0" d="M875.1,639.9c47.9,44.3,95.9,88.6,143.8,132.9"/>
	<path class="st0" d="M955,709.8c-5.7-4.6-9-11.7-10.1-19c-1.1-7.2-0.2-14.7,1.2-21.9c1.8-9.4,4.5-18.8,9.5-27.1
		s12.4-15.2,21.6-18.2"/>
	<path class="st0" d="M976.8,616.9c-10.9,6-17.6,18-19.9,30.3s-0.8,24.9,1.1,37.3"/>
	<path class="st0" d="M956.6,673.3c0.2-7.8,0.5-15.9,3.5-23.1c3-7.3,9.2-13.7,17-14.6c4.3-0.5,8.6,0.7,12.7,2
		c7.1,2.2,14.2,4.4,21.1,7c9.3,3.4,18.6,7.4,26,14c13,11.7,18.3,30.2,17.4,47.7"/>
	<path class="st0" d="M987.1,645.7c2.9,8.3,8.6,15.3,12.7,23.1s6.3,17.5,2.1,25.3"/>
	<path class="st0" d="M969.9,653.9c13.6,4.4,24.7,16,28.4,29.8"/>
	<path class="st0" d="M964.3,675.2c39.1,33.7,78.3,67.4,113,105.5"/>
	<path class="st0" d="M989.1,624.5c-2.2-4-7.2-6-11.8-5.7c-4.6,0.3-8.8,2.5-12.6,5.1c-8.8,6-15.8,14.6-20,24.3"/>
	<path class="st0" d="M956.4,635.7c23-9.7,49.9-9.7,73,0"/>
	<path class="st0" d="M960,642.3c9.2-5.8,20.3-8.5,31.2-7.6c10.8,0.8,21.4,5.2,29.6,12.3"/>
	<path class="st0" d="M975.8,630.7c6.5-0.3,13,1.5,19,4.3c5.9,2.8,11.3,6.5,16.7,10.2"/>
	<path class="st0" d="M1003.3,636c6.9-2.4,14.7-1.1,21.3,2s12.2,8.1,17.5,13.2c13.5,13,25.6,27.5,36,43.1
		c4.4,6.7,8.6,13.5,13.6,19.8c5,6.2,11,11.8,18.3,15.2"/>
	<path class="st0" d="M1016,642.2c12.4,3.3,22.3,12.3,31.2,21.4c10.7,10.9,20.8,22.5,30.1,34.7"/>
	<path class="st0" d="M1042.3,665c15.2,10.4,23.8,28.1,37.4,40.4"/>
	<path class="st0" d="M1075.6,680.3c5.1,9.9,12.9,18,20.9,25.6c8,7.7,16.3,15.2,22.7,24.3c6.3,9.1,10.6,20.2,9.2,31.2"/>
	<path class="st0" d="M1148,808.5c0.6-11.3,0.3-23.1-5.3-32.9c-3.8-6.6-9.6-11.7-15.3-16.7c-6.7-5.9-13.5-11.8-20.2-17.7"/>
	<path class="st0" d="M1167.2,813c-3.4-24.1-18.3-46.3-39.2-58.5"/>
	<path class="st0" d="M1137.5,771.1c-1.8-13.5-7.3-26.2-14.3-37.8s-15.7-22.2-24.2-32.7"/>
	<path class="st0" d="M1119.6,789.8c9.1-8.7,13.2-22.3,10.4-34.5"/>
	<path class="st0" d="M1100.2,777.9c7.4-0.5,14.6-3.9,19.7-9.3s8.2-12.7,8.3-20.1"/>
	<path class="st0" d="M1107.8,782.6c9.4-3.8,17-12,20.1-21.7"/>
	<path class="st0" d="M1051.2,780.5c7.2-6.7,13.6-14.4,18.8-22.8c2.1-3.4,4.1-7,5.1-11c0.9-3.9,0.7-8.3-1.3-11.8
		c-2.1-3.7-6-6.1-10.1-7.3c-4.1-1.2-8.3-1.3-12.6-1.4"/>
	<path class="st0" d="M1029.3,783.8c10.1-8.4,17.5-20,20.9-32.6"/>
	<path class="st0" d="M1016.6,771.3c9.9,0.8,19.7-4.4,25.9-12.1s9.2-17.7,9.9-27.6c0.4-5.5,0.1-11.5-3.3-16
		c-2.5-3.4-6.5-5.4-10.5-6.4c-4.1-1-8.3-1.1-12.5-1.1"/>
	<path class="st0" d="M1027.6,720.3c2.4-4.5,0.1-10.5-4.2-13.1c-4.3-2.6-10-2.2-14.5,0.1s-8,6.2-10.7,10.5"/>
	<path class="st0" d="M1019.4,706.6c1.3-0.7,1.8-2.5,1.2-3.9s-2-2.3-3.5-2.6c-1.5-0.3-3,0-4.5,0.3c-6.7,1.7-12.5,6.5-15.5,12.8"/>
	<path class="st0" d="M1019.2,700.8c-0.2-2.6-2.8-4.6-5.5-4.9s-5.2,0.8-7.5,2.1c-4.8,2.8-8.8,6.9-11.3,11.8"/>
	<path class="st0" d="M1013.8,696.7c0.5-1-0.3-2.3-1.4-2.6c-1.1-0.3-2.2,0-3.3,0.4c-9.6,3.4-17.9,10.2-23.1,19"/>
	<path class="st0" d="M1012,694.5c-5-2.2-11-2.3-16.1-0.3"/>
	<path class="st0" d="M988.3,745c6.7,1.4,13.6-2.5,17.7-8s6-12.2,7.9-18.8"/>
	<path class="st0" d="M993.9,747.3c8.9-2.9,16.3-9.8,20-18.4"/>
	<path class="st0" d="M1003.8,743.7c9.6,9.9,19.1,19.8,28.7,29.7"/>
	<path class="st0" d="M993.2,747c-2.5,1.5-3.4,4.9-2.4,7.7s3.5,4.7,6.3,5.4s5.8,0.2,8.5-1c2.7-1.2,5-2.9,7.2-4.8"/>
	<path class="st0" d="M993.7,730.5c-2.6-7.4-1.6-16,0.8-20.5c-4.4,4.6-7.3,10.7-8.2,17s0.3,12.9,3.2,18.6"/>
	<path class="st0" d="M992.5,716.2c-4.8,9.2-4.7,20.7,0.1,29.9"/>
	<path class="st0" d="M970.3,727.9c0.4,16.5,7.7,32.8,19.8,44"/>
	<path class="st0" d="M980.4,737.4c-0.1,9.9,6.5,18.8,14.4,24.9c7.9,6,17.2,9.9,25.7,15c10.5,6.4,19.7,14.8,28.8,23.1
		c24.6,22.6,49.3,45.2,73.9,67.8"/>
	<path class="st0" d="M1020.4,776.8c-0.8,5.3-1.5,11.3,1.8,15.5c1,1.3,2.3,2.4,3.8,3.2c3.6,1.8,7.8,1.9,11.7,0.9
		c3.9-1,7.4-2.9,11-4.8"/>
	<path class="st0" d="M1005.9,765.2c15.4,7.7,29.2,18.8,39.9,32.3"/>
	<path class="st0" d="M1029.7,772.1c41.8,34.4,83.8,69.1,118.4,110.7"/>
	<path class="st0" d="M1059.9,787c31.3,25,58.1,55.1,86.4,83.4s58.7,55.5,94.7,73.1"/>
	<path class="st0" d="M1101.7,829.6c40.1,41.1,82.5,79.9,126.9,116.2"/>
	<path class="st0" d="M1074.9,779.9c43.1,34.9,86.6,69.4,130.4,103.4"/>
	<path class="st0" d="M1065.6,763c26.3,25.1,55.1,47.8,85.7,67.4"/>
	<path class="st0" d="M1068.4,751.2C1148.9,837,1240,912.7,1339,976.3"/>
	<path class="st0" d="M1225.2,889.4c56.2,38.9,112.5,77.9,168.8,116.8"/>
	<path class="st0" d="M1373.5,991.8c10.4,9.9,19.3,21.3,26.3,33.9c1.2,2.2,2.5,4.7,2.1,7.2c-0.5,3.4-3.6,5.8-6.6,7.7
		c-11.8,7.5-25.7,13.8-39.4,10.8c-9.3-2.1-17.1-8.2-24.6-14.1c-33.3-26.1-67.6-51-102.7-74.5"/>
	<path class="st0" d="M1383.7,1052.7c-0.7-7.4-5-14.1-10.6-19s-12.2-8.5-18.8-11.9"/>
	<path class="st0" d="M1386,1034.7c-11.1-13.3-24.7-24.2-38.1-35.1c-48.9-39.4-97.9-79-151.3-112"/>
	<path class="st0" d="M1364.3,1005.9c8.1,8.7,15,18.6,20.3,29.3"/>
	<path class="st0" d="M1371.3,1049.4c-51.6-32.4-101.1-68.1-148-107"/>
	<path class="st0" d="M1289.9,970.1c0.8,6.8,4.2,13,7,19.3s5,13.3,3.3,20"/>
	<path class="st0" d="M1286.7,978.7c3.2,26.5-3.3,54.1-18.2,76.2"/>
	<path class="st0" d="M1109.6,849.7c41.3,46.5,87.7,88.5,138,125.1"/>
	<path class="st0" d="M1272.4,920.5c6.8-5.6,12.7-12.3,17.3-19.7"/>
	<path class="st0" d="M1295.5,937.4c3.6-5.6,5-12.6,3.7-19.2c-1.3-6.5-5.1-12.5-10.6-16.4"/>
	<path class="st0" d="M1283,927.9c-0.5-7.5-0.6-15-0.4-22.5"/>
	<path class="st0" d="M1295.9,936.2c1.3-6.8-0.2-14-4.2-19.7"/>
	<path class="st0" d="M1119.2,938.9c24.1-11.9,51.2-17.7,78-16.6"/>
	<path class="st0" d="M1103.8,952.4c32.4-10.2,66-16.7,99.9-19.3"/>
	<path class="st0" d="M1112.5,889.2c-9.6,16.1-17.6,33.1-24,50.8"/>
	<path class="st0" d="M1090.2,907.1c-6.3,14-4.5,31.2,4.4,43.7"/>
	<path class="st0" d="M1085,913.7c-11,20.6-7.8,47.8,7.7,65.3"/>
	<path class="st0" d="M1076.6,916.4c-7.6,21.4-6.8,45.7,2.2,66.5"/>
	<path class="st0" d="M1177.8,1090c-13.4,3.1-27.8-0.8-39.6-7.8s-21.6-17.1-31-27.3c-8.9-9.7-17.8-19.9-22.8-32.1
		c-4.7-11.5-5.8-24.2-4.9-36.7c0.9-12.4,3.7-24.6,9.6-34.1c-5,14.3-4.2,30.1-0.5,44.7s10.3,28.4,16.8,42"/>
	<path class="st0" d="M1141.4,1071.8c-22.7-9.8-41.5-28.4-51.5-51.1c-9.9-22.7-10.9-49.1-2.7-72.5"/>
	<path class="st0" d="M1101,1001.2c2.8,4.8,4.7,10.1,5.4,15.6c0.2,1.7,0.3,3.4,0.8,5.1c0.9,3.7,3.2,6.9,5.6,9.9
		c4.2,5.6,8.7,11.3,10.2,18.2"/>
	<path class="st0" d="M1109.3,1009.1c5,15.3,12.3,29.8,21.8,42.7"/>
	<path class="st0" d="M1118.3,1011.9c4,13,9.6,25.6,16.6,37.3"/>
	<path class="st0" d="M1145.7,1009.7c1.8-4-0.9-8.3-2.6-12.3c-3.6-8-3.7-17.4-0.3-25.5s10.2-14.6,18.4-17.6
		c8.4-3.1,18.5-2.3,25.3,3.5"/>
	<path class="st0" d="M1190.9,951.3c-2.1-2.3-5.6-2.6-8.7-2.7c-7.8-0.3-15.9-0.6-22.8,3c-2.9,1.5-5.4,3.6-7.8,5.8
		c-3.8,3.5-7.5,7.7-8.3,12.9"/>
	<path class="st0" d="M1164.1,956.8c6.8-5.6,16.2-7.6,25-7"/>
	<path class="st0" d="M1191.6,980.5c2.1,0.4,4.4,0.9,5.8,2.5c1,1.3,1.3,3,1.4,4.7c0.4,5.7-0.6,11.9-4.7,15.9"/>
	<path class="st0" d="M1196.4,982.2c-4.8,2.7-8,8.1-8.1,13.6c0,1,0.1,2.1,0.5,3c1.1,2.3,3.8,3.2,6.2,3.9"/>
	<path class="st0" d="M1194.3,978c2.6,2.1,5.3,4.5,6.3,7.7c0.6,2,0.6,4.1,0.2,6.1c-0.8,4.4-3.1,8.4-6.3,11.5"/>
	<path class="st0" d="M1259.1,1010.1c0.2-1.8-2.1-3.1-3.8-2.6c-1.8,0.5-2.9,2.1-3.9,3.7c-1.6,2.7-2.8,5.6-3.4,8.7
		c-0.4,2.1-0.3,4.6,1.4,5.9c1.6,1.1,3.9,0.6,5.3-0.7c1.4-1.3,2.1-3.2,2.6-5.1c0.8-3,1.2-6.4-0.2-9.2c-0.7-1.4-1.9-2.6-3.4-2.7
		c-1.4-0.1-2.6,0.6-3.7,1.5c-5.3,3.9-9.1,9.9-10.4,16.4"/>
	<path class="st0" d="M1249.4,992.6c3.1-1.7,7.1,0,9.6,2.5c2.7,2.6,4.5,6,5.2,9.7c0.5,2.6,0.3,5.2,0.2,7.9c-0.2,3.4-0.3,6.8-1.3,10
		c-1.6,5.7-5.5,10.5-10.3,14s-10.3,5.8-15.9,7.5"/>
	<path class="st0" d="M1218.9,1044c6.7,3.4,14.8,2.8,22.1,1c3.7-0.9,7.3-2.2,10.6-4.1c5.4-3.2,9.8-8.2,11.8-14.2
		c2.5-7.6,1-15.9-0.6-23.7"/>
	<path class="st0" d="M1210.5,1042.7c0.2-3.4,0.4-6.8-0.2-10.1c-0.1-0.5-0.2-1.1-0.2-1.6c0.1-0.5,0.4-1.1,0.9-1.3
		c0.6-0.2,1.3,0.2,1.8,0.5c1.6,1.1,3.2,2.2,4.7,3.3c2.6,1.9,5.2,4,6.5,7c0.1,0.2,0.1,0.3,0.1,0.5c-0.1,0.3-0.4,0.5-0.7,0.6
		c-1.7,0.6-3.5,1.1-5.3,1.1C1215,1042.7,1211.8,1041.6,1210.5,1042.7z"/>
	<path class="st0" d="M1268.2,1054.4c6.8-4.2,13.2-8.9,19.5-13.9"/>
	<path class="st0" d="M1288,1041.2c-4.5,7.7-11,14.2-17.5,18.1c1.8,1.5,4.1,2.1,6.4,2.4c2.3,0.3,4.6,0.2,6.9,0.5"/>
	<path class="st0" d="M1279.1,1065.2c-7.8,3.1-15.7,6.1-23.5,9.2c-6.7,2.6-13.4,5.2-20.3,7.3c-15.8,4.7-32.6,6.4-49,5"/>
	<path class="st0" d="M1269.1,1074.3c-2.1,3.8-5.8,6.6-9.9,8.3c-4,1.7-8.4,2.5-12.7,3.2c-7.2,1.1-14.5,2-21.8,2.7"/>
	<path class="st0" d="M1180.6,1079.9c-1.5-3-3.1-6.3-2.5-9.6c0.3-2,1.4-3.8,2.6-5.3c3.9-5,9.5-8.2,13-9.9c-0.5-2.7-2.6-4.9-5.1-6.1
		s-5.3-1.5-8-1.5c-11.9-0.1-24,5.9-30.4,16c-1.5,2.3-2.6,5.7-0.7,7.7c0.7,0.8,1.7,1.2,2.7,1.5c5.1,1.8,10.6,2,15.9,2.8
		C1173.4,1076.1,1178.9,1077.6,1180.6,1079.9z"/>
	<path class="st0" d="M1154.6,1058.5c2-1.6,4.7-2.2,7.2-2.1s5.1,0.8,7.4,1.7c4.8,1.7,9.3,4,13.5,6.8c1,0.7,2,1.3,3.2,1.6
		c0.7,0.2,1.7,0,1.7-0.7c0-0.3-0.1-0.6-0.3-0.9c-1.6-2.5-4.1-4.2-6.7-5.6c-6.3-3.2-13.5-4.6-20.5-3.8
		C1157.9,1055.8,1155.7,1056.3,1154.6,1058.5z"/>
	<path class="st0" d="M1155.9,1058.2c-2.7,2.2-3.7,6.1-2.7,9.3c1,3.3,3.8,5.9,7.1,7"/>
	<path class="st0" d="M1075.8,970c-31.4,11.5-59.2,32.5-78.9,59.5"/>
	<path class="st0" d="M1078.9,977.4c-32,12-59.9,34.9-77.9,64"/>
	<path class="st0" d="M1087.3,1022.6c-20.6-9.6-41.5-18.5-62.7-26.8"/>
	<path class="st0" d="M1039.1,988.1c1.4-15.9,1.3-32-0.2-47.9"/>
	<path class="st0" d="M1044.7,985.7c0.8-6.2,1.4-12.5,0.3-18.6c-1.5-8.2-5.8-15.6-10.4-22.6"/>
	<path class="st0" d="M1038,972.8c0.8-1.4-0.4-3.3-2-3.7c-1.6-0.4-3.2,0.3-4.7,1.1c-7.3,3.8-13.5,9.5-17.9,16.5
		c-1.9,3-3.4,6.3-3.4,9.8s2.2,7.1,5.6,8"/>
	<path class="st0" d="M1009.7,1010c-1.4-2.2-2.8-4.5-2.8-7.1c0-1.2,0.3-2.3,0.6-3.5c0.4-1.7,0.9-3.4,1.7-4.9c0.8-1.6,2-3.1,3.7-4"/>
	<path class="st0" d="M1017.2,979.6c-2.4,0.7-4.9,1.4-6.8,2.9c-1.7,1.3-2.8,3-4,4.8c-0.7,1-1.3,2.1-1.7,3.2c-0.4,1-0.6,2.2-0.8,3.3
		c-0.5,3-1,6.2,0.1,9"/>
	<path class="st0" d="M1011,989.9c0-1.4,0.2-2.7,0.3-4.1c0.4-2.8,1.3-5.8,6.2-6.2c-2.7-3.8-7.1-6.2-11.7-6.9
		c-4.6-0.7-9.4,0.1-13.7,1.7c-5.1,1.9-10.3,5.7-10.6,11.2c-0.2,4.1,2.5,7.8,5.4,10.6c7.3,7.2,16.6,11.8,25.8,16.2
		c4.5,2.2,9,4.4,13.5,6.6"/>
	<path class="st0" d="M1099.4,1045.4c-27.6-13.5-57.8-20.8-85.3-34.5"/>
	<path class="st0" d="M1077.1,1035.1c-4.1,2.7-8.6,4.7-13.2,5.9c-6.4,1.7-13,1.9-19.6,2.2c-7.8,0.3-15.5,0.6-23.3,0.7
		c-8.3,0.1-17,0-24.3-4.1"/>
	<path class="st0" d="M1094,1048.8c-17.5,8.4-38.1,10.3-56.8,5.1"/>
	<path class="st0" d="M1015.5,1032.7c3.7,6.8,9.5,12.1,15.7,16.8c12,9.3,25.5,16.9,40.1,21.3"/>
	<path class="st0" d="M1007.1,1030.6c4.8,6.8,11.4,12.3,19,15.8"/>
	<path class="st0" d="M1005.1,1033.8c3.2,4.7,7.6,8.5,11.9,12.2c2.8,2.4,5.6,4.8,8.6,7.1c10,7.8,21.2,13.9,33.1,18.1"/>
	<path class="st0" d="M1020.9,1043.5c7.1,5.6,15.3,9.7,24,12.1"/>
</g>
<g id="Layer_5">
	<path class="st0" d="M1028.8,808.4c-14.8,8.1-29.6,16.2-44.4,24.2c-5.3,2.9-10.6,5.8-15.5,9.4c-6.6,5-12.2,11.2-17.6,17.4
		c-8.5,9.5-16.9,19.1-25.4,28.6"/>
	<path class="st0" d="M1027.3,817.5c-18.1,8.4-35.9,17.4-53.5,27c-8.6,4.7-17.4,9.7-23.7,17.2"/>
	<path class="st0" d="M1085.1,853.3c-13.5,2.6-26.7-4.2-39.7-8.6c-2.6-0.9-5.2-1.7-7.6-3c-8.9-5.1-11.5-16.9-10.8-27.2
		c0.2-2.3,0.4-4.6,0.7-6.9"/>
	<path class="st0" d="M1043.2,812.1c0.5,6,2,11.8,4.8,17.1s6.9,10,12,13"/>
	<path class="st0" d="M1027.6,809.8c2.3,6.5,6.4,12.4,11.7,16.8c2.2,1.9,5.1,3.6,7.9,2.8"/>
	<path class="st0" d="M958.3,777.5c7.9,7.4,16.4,14.8,26.8,17.9c6.3,1.8,13.1,2,19.2,4.5c6.5,2.7,11.9,7.9,18.6,10.2
		c5.2,1.8,10.9,1.8,16,3.8c7.8,3.2,12.8,10.6,19.6,15.6c7.5,5.5,16.9,7.7,26,9.7"/>
	<path class="st0" d="M988,828.5c2.7-0.9,4.8-3,6.5-5.3c3.6-4.5,6.3-9.9,7.1-15.6c0.8-5.7-0.6-11.9-4.3-16.3"/>
	<path class="st0" d="M982.9,788.3c3.5,4.4,5.4,10.1,5.2,15.7c-0.1,3.4-0.9,6.7-1.8,10c-1.5,5-3.6,10.1-7.4,13.7"/>
	<path class="st0" d="M897.4,794.1c5.4-0.8,10.9-0.8,16.4-1c30.9-1,61.3-7.8,91.4-14.6"/>
	<path class="st0" d="M976,835.4c-4.5-10.1-12.6-18-21.4-24.8c-8.8-6.7-18.3-12.3-26.9-19.2c-19.8-15.8-34.1-37.5-53.2-54.2"/>
	<path class="st0" d="M932.2,791.8c-3.3,17.2-6.6,34.3-9.9,51.5"/>
	<path class="st0" d="M992.6,828.8c-36.7-4.6-74.7,1.5-108.1,17.5"/>
	<path class="st0" d="M940.2,825.7c-38.8,4.3-75.5,19.4-111.7,34.3c-2.7,1.1-5.5,2.3-7.6,4.4s-3.1,5.5-1.8,8.1"/>
	<path class="st0" d="M1013.8,913.5c-33.7-8.6-69-18.1-93.9-42.3c-8.6-8.4-15.7-18.3-21.8-28.8c-9.1-15.4-16.2-32-21-49.2
		c-8.3-29.2-10.8-61.4-29.4-85.4c-18.2-23.4-49-34.4-78.6-34.7s-58.5,8.8-86.3,19.1"/>
	<path class="st0" d="M823,688.1c22.6,22.1,35.3,52.5,43.1,83.1c3.9,15.2,6.9,31,15.5,44.1"/>
	<path class="st0" d="M925.4,889c-13.6-4.2-26.6-11.2-36.7-21.3c-13.4-13.5-20.8-31.8-28-50.4c-6-27.9-12.5-57-30.5-79.1
		c-12.8-15.7-30.9-26.8-50.5-32.4c-19.5-5.5-40.4-5.7-60.3-1.7c-8.1,1.6-16.2,4-22.7,9.1c-6.1,4.8-10.2,11.5-13.8,18.4
		c-8.7,16.9-14.2,37.7-5.4,54.5c4.7,8.9,12.7,15.5,19.9,22.5c7.2,7.1,13.8,15.7,14.4,25.7"/>
	<path class="st0" d="M869.2,849.1c-4.7-7.4-8.4-15.4-10.9-23.7c-1.8-5.7-3-11.6-4.4-17.4c-9.7-38.8-31.5-76.7-67.1-94.9"/>
	<path class="st0" d="M866.6,770.2c-10.6-29.3-26.2-59.2-53.5-74.2c-9-5-18.9-8.1-28.9-10.2c-34.2-7.4-70.8-3.6-102.8,10.7"/>
	<path class="st0" d="M711,672.4c-15.9,5.5-29.4,16.8-39.8,30s-18.3,28.3-25.5,43.5c-3.4,7-6.7,14.2-8.5,21.8
		c-3.8,16.2-0.2,34.1,9.6,47.5"/>
	<path class="st0" d="M692,680.4c-25.2,18.1-44,45-52.2,75c-1.1,3.9-2,7.9-2.4,12c-2,17.5,4.3,35.3,15,49.2"/>
	<path class="st0" d="M665.7,701.2c-22.6,18.6-33.5,50.3-27.1,78.9c5.4,24.2,21.7,44.4,37.5,63.6"/>
	<path class="st0" d="M655.7,814.7c-0.4-10.2,3-20.6,9.4-28.6s15.7-13.7,25.8-15.6"/>
	<path class="st0" d="M697.4,715.9c-8.2,5.8-15.5,13.1-20.8,21.7c-5.2,8.6-8.3,18.7-8.1,28.7c0.1,4,0.8,8.1,2.5,11.8
		c3.2,6.8,9.7,11.3,15.2,16.6c5.2,5.1,9.6,11,13.9,16.9"/>
	<path class="st0" d="M640,812.3c3.7,5,9.4,8.2,15.3,10.2c5.9,2.1,12,3.2,17.9,5.2c5.5,1.9,11,4.5,16.9,4.7c6.8,0.2,13.4-3.1,18.1-8
		c4.8-4.8,7.8-11.1,9.8-17.6"/>
	<path class="st0" d="M657.6,829c2,4.2,6.2,7,10.6,8.2c4.4,1.3,9.1,1.2,13.7,0.9c7.8-0.4,15.9-1.4,22.9-4.8s13.2-9.8,14.5-17.5"/>
	<path class="st0" d="M682.1,750.3c-12.8-4.2-27.2-3.6-39.6,1.7"/>
	<path class="st0" d="M644.5,744.6c11.6-1.5,23.6-0.6,34.8,2.7"/>
	<path class="st0" d="M650.6,735.1c11.5,0.8,23.6,3.4,31.9,11.4"/>
	<path class="st0" d="M600.5,793.8c2.1-6.1,1.8-12.8,4.2-18.9c1.1-2.8,2.7-5.4,4.4-7.9c3.7-5.6,7.7-11,12.6-15.6s10.8-8.2,17.3-9.6"
		/>
	<path class="st0" d="M590.8,774.3c0.8-7,1.5-14.1,4.5-20.5c1.8-3.8,4.2-7.3,6.8-10.7c4-5.3,8.2-10.5,13.5-14.7
		c10.9-8.6,25.5-11.8,39.3-10.1"/>
	<path class="st0" d="M701.7,741.4c-3.9-12-9.3-24-18.6-32.6c-9.9-9.1-23.8-13.6-37.1-12"/>
	<path class="st0" d="M705.2,726.4c-3-10-6.2-20.4-13.1-28.2c-5.5-6.2-13.3-10.4-21.6-11.6"/>
	<path class="st0" d="M718.3,736.5c-1.3-3.7-2.6-7.4-4-11.1c-0.2-0.7-0.5-1.4-0.4-2.1c0.4-2.3,3.8-2.2,6.1-1.4
		c9.6,3.4,18.7,8.3,27.3,13.7c22.1,13.8,42,31.3,56.7,52.9c4,6,7.7,12.2,11.3,18.4c9.3,16,18.5,32,27.8,48"/>
	<path class="st0" d="M816.3,786.3c13.9,19.5,19.4,44.3,34.6,62.8"/>
	<path class="st0" d="M834.6,914.8c-6.1-11.9-11.4-24.2-15.9-36.8c-0.9-2.5-1.6-5.8,0.4-7.5s5.2-0.6,7.5,0.7
		c9.8,5,19.8,9.8,30.2,13.3c4.1,1.4,8.2,2.5,12.2,4c20.2,7.1,37.9,20.3,52.3,36.2c14.4,15.9,25.6,34.4,35.3,53.5"/>
	<path class="st0" d="M833.4,881.8c34.7,11.5,67.3,29.3,95.7,52.3c16.3,13.2,31.6,28.5,40.3,47.7"/>
	<path class="st0" d="M1110.8,901.6c-25.3,5.1-50.6,10.7-75.8,16.8c-10,2.4-20.1,5-28.8,10.5"/>
	<path class="st0" d="M1023.5,922.3c-29.8,18.9-53,47.8-65,80.9"/>
	<path class="st0" d="M973.3,973.8c7.5-25.2,29.1-45.6,54.6-51.6"/>
	<path class="st0" d="M902,907.2c-19.4,20.5-33.2,46.4-39.3,73.9"/>
	<path class="st0" d="M895.1,929.3c-10.1,11.8-19.8,23.9-29,36.5"/>
	<path class="st0" d="M822.2,863c9.2,35.3,23,69.4,40.9,101.2"/>
	<path class="st0" d="M853.7,937c-28.2-25.2-55.2-51.9-80.6-80"/>
	<path class="st0" d="M858.5,962c-7.3-14.9-14.6-29.8-24.1-43.4c-9.8-14.1-21.9-26.5-33.9-38.7c-3.2-3.2-6.3-6.5-9.9-9.3
		c-6.3-5-13.7-8.5-21-12"/>
</g>
<g id="Layer_6">
	<path class="st0" d="M864.8,970.5c40,10.6,77.6,29.8,109.7,56"/>
	<path class="st0" d="M868,962.9c31.2,12,60.6,28.6,87,49.2"/>
	<path class="st0" d="M838.5,1045.1c-8.1-49.8-16.7-101-42.8-144.1c-3.4-5.7-7.2-11.2-12.3-15.5c-7.3-6.1-16.6-9.1-25.6-11.9"/>
	<path class="st0" d="M765.6,870c-0.2,27,2.6,54.9,15.7,78.4"/>
	<path class="st0" d="M777.2,875.2c-3.5,21-6.8,42.9-1,63.4"/>
	<path class="st0" d="M780.9,927.6c-6.8-15.3-8.8-32.6-5.6-49"/>
	<path class="st0" d="M759.5,886.3c-1-2.3-0.5-5.1,0.8-7.2s3.4-3.7,5.6-4.9c1-0.5,2.1-1,3.2-1.1c1,0,2,0.2,2.9,0.6
		c4.2,1.6,7.8,4.6,10,8.5"/>
	<path class="st0" d="M789.5,896.8c8.9,10.9,15.2,23.7,20.7,36.6c15.5,36.2,26.6,74.3,31.8,113.4"/>
	<path class="st0" d="M859.1,1040.5c37.5,21.2,76.9,38.8,117.7,52.7"/>
	<path class="st0" d="M835.9,1031.8c9.2,9.1,21.5,14.3,33.5,19.3c29.4,12.2,58.8,24.4,88.1,36.6c7.2,3,14.5,6,20.9,10.6"/>
	<path class="st0" d="M970.6,1092.9c-6.5-17.3-16-33.4-27.8-47.5c-6.8-8.1-14.6-16-17.4-26.2"/>
	<path class="st0" d="M910.2,1045.1c1.2-13.5,4.9-26.6,8.6-39.6"/>
	<path class="st0" d="M907.7,1020.6c-8.7,0.8-17.6,1.7-25.7,5"/>
	<path class="st0" d="M888.7,1046.3c-27.2-21.1-56.4-39.5-87.2-54.9c-11.7-5.8-23.7-11.3-33.8-19.7c-5.2-4.3-9.8-9.4-15-13.7
		c-6.1-5-13-9-19.2-13.9c-10.2-8-18.4-18.6-23.6-30.4"/>
	<path class="st0" d="M833.8,1004.2c-19.8-8.3-38.7-18.7-56.3-31"/>
	<path class="st0" d="M805,988.2c-8.2-4.7-15.8-10.5-23.4-16.3c-52.7-40.2-105.5-80.5-155.3-124.2"/>
	<path class="st0" d="M780.3,995c-26.9-14.3-47.7-37.7-67.8-60.6c-4.3-4.9-8.6-9.7-12.8-14.6c-9.8-11.1-19.8-22.5-25.7-36.2"/>
	<path class="st0" d="M626.6,839.6c4.3,0.8,8,3.2,11.6,5.6c20.3,14.1,37.3,32.4,55.8,48.8c22.7,19.9,47.9,37,74.9,50.5"/>
	<path class="st0" d="M862.1,1016.8c-49.5-27.4-84.4-76-133.5-104c-6.7-3.8-13.6-7.2-20-11.5c-4.5-3-8.6-6.5-12.4-10.3"/>
	<path class="st0" d="M856.3,987.2c-67.3-26.6-121.1-78-177.9-122.8c-27.1-21.3-55.2-41.4-80.4-64.9"/>
	<path class="st0" d="M866,988.1c-15-8.2-30-16.3-44.9-24.5c-25.3-13.8-50.9-27.8-72-47.5"/>
	<path class="st0" d="M627.7,849c-28.2-21.8-50.6-50.2-75.8-75.5c-8.8-8.8-18.2-17.5-29.6-22.3"/>
	<path class="st0" d="M600,801.4c-27.9-25.3-56-50.7-87.9-70.7c-7.9-5-17-9.7-26.1-7.6"/>
	<path class="st0" d="M635,908.2c-5.2-16.1-12.1-31.7-20.4-46.4c-4.8-8.4-10-16.6-15.2-24.7c-5-7.8-10-15.5-14.9-23.3
		c-12.5-19.5-25.1-39.1-41.1-55.8s-35.8-30.5-58.4-35.7"/>
	<path class="st0" d="M555.9,879c-14.8-14.6-24-33.7-32.4-52.7c-15.3-34.5-29-70-35-107.2"/>
	<path class="st0" d="M514.5,812.3c14.2,37.3,35.7,71.7,63,100.7"/>
	<path class="st0" d="M528.5,853.8c17.5,25.1,34.1,50.9,49.7,77.3c4.7,8,9.3,16,14.7,23.5c7.2,10.1,15.6,19.2,24,28.2
		c22.5,24.1,45.4,48.1,72,67.6"/>
	<path class="st0" d="M653.4,1019.2c-14-24.2-31.6-46.2-49.1-68c-6.1-7.6-12.2-15.2-18.3-22.9c-9.9-12.4-19.8-24.8-29.7-37.2"/>
	<path class="st0" d="M633.1,901.7c3.8,0.5,7.3,2.2,10.5,4.3c7.5,4.9,13.2,12.1,17.5,20s7.2,16.3,10,24.8
		c9,27.4,16.7,55.3,23.1,83.4"/>
	<path class="st0" d="M614.5,831.8c9.6,20.9,22.8,40,34.2,60c23.9,42.2,39.7,89,46.2,137.1"/>
	<path class="st0" d="M668.1,948.8c9.9,27.8,19.8,55.8,24.8,84.9c4.4,25.7,5,52,11.7,77.2"/>
	<path class="st0" d="M684,996.9c-3.4,37.1,3,75.1,18.4,109.1"/>
	<path class="st0" d="M677.7,979.6c1.4,44.6,3,90.4,20.4,131.5"/>
	<path class="st0" d="M685.7,1010.7c8.1,33.2,12,67.4,11.7,101.5"/>
	<path class="st0" d="M700.7,1090c1.6,19.7,5.3,39.2,11,58.1c1.3,4.4,2.8,8.8,5.3,12.5c2.3,3.4,5.4,6.1,8.5,8.8
		c5.8,5.1,11.7,10.2,17.5,15.4"/>
	<path class="st0" d="M609.8,988.1c11.6,8.9,23.5,18.2,30.8,30.9c2.5,4.3,4.4,9,6.1,13.7c10.1,27.9,14,58,11.5,87.6"/>
	<path class="st0" d="M647.4,1018.4c6.5,14.7,7.2,31.2,7.7,47.2"/>
	<path class="st0" d="M665,1013.4c-5.2,39.2,8.1,80.4,35.2,109.1"/>
	<path class="st0" d="M662.9,1070.1c7.4,8.3,9,20.4,15.7,29.2c6.2,8.3,16.2,12.9,24.4,19.2c6,4.5,11.1,10,16.8,14.9
		c13.9,11.9,30.9,20,48.6,25c17.6,5.1,36,7.3,54.3,8.5"/>
	<path class="st0" d="M647.6,1035.1c14.5,10.9,30.4,21.6,48.5,23.1"/>
	<path class="st0" d="M651.5,1047.7c10.3,9.5,23.2,16.1,36.9,19"/>
	<path class="st0" d="M611.6,1064.1c-30-66.5-60.4-134.6-66.5-207.2c-1.3-15.2-1.5-30.5-4.7-45.4c-3.9-18.2-12.2-36.3-8.6-54.6"/>
	<path class="st0" d="M658.8,1099.6c4.4,5.5,8.8,11,13.3,16.5c2.2,2.8,4.5,5.6,6.9,8.2c9.6,10.5,21.5,18.4,33.3,26.2"/>
	<path class="st0" d="M705.3,1121.1c2.7,11.5,5.4,23.2,11.7,33.2c10.8,17.2,30.4,26.5,48.8,34.9c14.8,6.8,29.7,13.5,44.5,20.3
		c15.2,6.9,30.5,13.9,45.1,22c25.7,14.2,49.4,31.8,72.9,49.4"/>
	<path class="st0" d="M729.8,1153.2c3.9,8.4,10.6,15.3,18.1,20.7s16,9.4,24.4,13.4c32.8,15.5,65.9,30.6,99.1,45.3"/>
	<path class="st0" d="M711.2,1144.1c79.1,100.8,185.1,180.2,304.1,227.7"/>
	<path class="st0" d="M784.2,1199.2c12.2,17.5,29.5,30.7,46.7,43.2c51.3,37.2,104.9,71.3,160.4,101.8"/>
	<path class="st0" d="M973.3,1325.7c1.7,4.3,5.3,7.5,9.2,9.9c7.2,4.5,16.4,6.8,24.3,3.7c3.8-1.6,7.1-4.3,10.7-6.4
		c3.8-2.2,8.1-3.7,12.4-4.3"/>
	<path class="st0" d="M979.8,1325.8c9.1,8.3,22.1,12.1,34.2,10.1"/>
	<path class="st0" d="M945.5,1311.9c19.7,8.8,40.8,14,61.8,18.4c6.8,1.4,13.6,2.7,20.6,2.9c7,0.2,14-0.9,20.9-2
		c6-0.9,12.1-1.8,18.1-2.8"/>
	<path class="st0" d="M959.9,1290.1c9.2,6.7,18.5,13.3,27.7,20c3.5,2.5,7.1,5.1,10.9,7c5.5,2.7,11.5,4.1,17.5,5.2
		c8.1,1.4,16.2,2.2,24.4,2.4"/>
	<path class="st0" d="M1045.5,1327.5c21.8-14.9,48.3-20.7,74.1-26.2"/>
	<path class="st0" d="M1039.9,1328.8c8.6-6.8,17.3-13.7,27-19c6-3.2,12.2-5.8,18.5-8.3c20.6-8.2,41.6-15.8,63.3-20.5"/>
	<path class="st0" d="M901.2,1295.6c11,11.5,22.4,22.6,35.4,31.8c13,9.2,27.5,16.4,43.1,19.5"/>
	<path class="st0" d="M988.7,1345.8c-10.3-2-20.7-5.8-28.1-13.3c-6-6.1-9.6-14.1-13.9-21.4c-7.8-13.1-18.4-24.6-30.9-33.3"/>
	<path class="st0" d="M904.9,1263.9c7.5,10.4,14.9,20.9,22.3,31.3c2.3,3.2,4.6,6.5,6.6,9.9c4.2,7.2,7,15.3,12,22.1"/>
	<path class="st0" d="M1001.2,1340.1c-5.3,1.8-10.7,3.5-16,5.3c-8.6,2.8-17.6,5.7-26.6,4.8"/>
	<path class="st0" d="M998.5,1344.7c37.8,0.1,75.6-11.9,106.5-33.8"/>
	<path class="st0" d="M1007,1356.9c34-8.4,66-24.5,92.9-46.8"/>
	<path class="st0" d="M1151.9,1283.6c-13.9-14.6-28-29.5-45.2-40"/>
	<path class="st0" d="M870.8,1247.8c23.3,42.4,54.1,80.6,90.5,112.5"/>
	<path class="st0" d="M889.2,1256.2c23.3,40.3,53.4,76.6,88.6,106.9"/>
	<path class="st0" d="M988.8,1341.2c14.4,16,28.8,32,43.1,47.9"/>
	<path class="st0" d="M1037.3,1190.6c-19.1-19.4-27.7-46.8-43.9-68.7c-8.7-11.7-19.8-22.3-24.1-36.2"/>
	<path class="st0" d="M960.5,1094c3.1-13.1,6.5-26.2,10.4-39.1c1.7-5.9,3.6-11.8,7.2-16.8"/>
	<path class="st0" d="M982.2,1120.6c3.4-4.3,3.8-10.3,3.8-15.8c0.1-21.1-2.5-42.2-7.8-62.7"/>
	<path class="st0" d="M991.9,1101.4c-1-22.4-5.2-44.7-12.5-65.8"/>
	<path class="st0" d="M977.3,1098.6c6.5,22.6,25.6,39,43.5,54.3c24.5,20.9,48.7,42.5,68.1,68.2c14.6,19.3,26.7,41.1,45.3,56.6"/>
	<path class="st0" d="M1115.9,1275.6c-25.5-40.6-55.7-78.3-89.9-111.9c-7-6.9-14.3-13.8-18.7-22.7"/>
	<path class="st0" d="M1042.7,1168c-17.8-14-25.6-36.8-37.3-56.2c-6.5-10.9-14.4-21-23.4-29.9"/>
	<path class="st0" d="M1060.7,1178.2c-12.1-18.2-24.3-36.4-36.4-54.6c-5.5-8.3-11.1-16.7-15.3-25.8c-6.9-15.1-10.2-32.6-21.8-44.6"
		/>
</g>
<g id="Layer_7">
	<path class="st0" d="M1135.4,1275.7c8.2,8.7,16.5,17.5,22.3,27.9c4.3,7.7,7.1,16.1,10.4,24.2c4.1,10.1,9,19.9,14.7,29.3"/>
	<path class="st0" d="M1031.2,1341.4c4.4,11.3,8.8,22.7,13.2,34c1.8,4.6,3.6,9.2,6.5,13.1c2.8,3.8,6.6,6.8,10,10.1
		c3.7,3.6,6.9,7.6,9.9,11.7c6.2,8.5,11.4,17.8,15.5,27.4"/>
	<path class="st0" d="M1048.7,1329.1c15.2,12.6,30.9,25.9,38.8,44c4.1,9.3,5.9,19.4,8.6,29.2s6.5,19.6,13.6,26.8"/>
	<path class="st0" d="M998.2,1340.6c41.5,24.6,86.9,42.9,133.8,54.1"/>
	<path class="st0" d="M1026.7,1327.7c5.8,4.4,11.7,8.8,17.6,13.3c5,3.8,9.9,7.5,15.1,10.9c3.2,2.1,6.8,4.1,10.5,3.4"/>
	<path class="st0" d="M972,1358c28,23.3,56.3,46.9,89.2,62.3"/>
	<path class="st0" d="M961.4,1360.3c16.8,12.4,33.5,24.7,50.3,37.1c9.4,6.9,18.8,13.9,26.8,22.5"/>
	<path class="st0" d="M1026.9,1384.8c19.1,17.7,41.1,32.1,62.9,46.4"/>
	<path class="st0" d="M1074.2,1440.2c10.7-9.6,23.5-16.8,37.2-21.1"/>
	<path class="st0" d="M1099.7,1424.5c19.6-2.9,38.4-11.2,53.6-23.8c15.3-12.6,27-29.5,33.5-48.2"/>
	<path class="st0" d="M1193.6,1352.6c-9,17.6-20.4,34.1-35.2,47.3s-33,22.8-50.1,24.9c33.3-3.7,64.3-24.2,80.6-53.4"/>
	<path class="st0" d="M1190.1,1381.3c-14.4,16.6-34.8,26.6-54.6,36.1"/>
	<path class="st0" d="M1108.2,1425.9c30.4-4.7,59.6-17.5,83.6-36.8"/>
	<path class="st0" d="M1198.1,1375.2c1.3-5.6,2.6-11.2,3.9-16.7c0.2-0.9,0.4-2-0.1-2.8c-0.6-1.1-2.1-1.2-3.3-1.3
		c-6.6-0.3-13.2-0.7-19.7-1"/>
	<path class="st0" d="M1196.2,1347.7c-5.8,2.1-12.3,2.3-18.2,0.5"/>
	<path class="st0" d="M1199.5,1368.7c40.9,62.2,101.6,113.3,173.5,132.9"/>
	<path class="st0" d="M1384.5,1531.6c-6.3-2-11.7-6.6-14.9-12.4c-0.8-1.4-1.4-3-1.4-4.6c0.1-2.7,2-4.9,3.8-6.9
		c2.3-2.5,4.6-4.9,6.8-7.4"/>
	<path class="st0" d="M1370.4,1521c6.5,2,12.9,4.4,19.6,5.4s13.8,0.7,19.9-2.4"/>
	<path class="st0" d="M1329.6,1567.5c-11.2,0.2-22.4-0.7-33.4-2.8c-0.3-1.3,1.4-2,2.7-2.2c5.9-1,11.8-2.1,17.7-3.1"/>
	<path class="st0" d="M1318.3,1549.1c-10.2-2-20.2-4.7-30-8c-5.3-1.8-10.7-3.9-15.1-7.4c10.8,3.1,22,4.7,33.3,4.9"/>
	<path class="st0" d="M1275,1528.4c15,5.9,31.5,7.8,47.5,5.6"/>
	<path class="st0" d="M1094.1,1444.3c11.8,5,25.3,5.8,37.6,2c5.4-1.6,10.5-4.1,15.8-5.8c4.4-1.5,9-2.4,13.4-4.2
		c4.3-1.7,8.5-4.3,11.1-8.2"/>
	<path class="st0" d="M1091.7,1449.4c13.6,5.8,29.2,4.7,43.4,0.6c14.2-4.1,27.4-10.9,41-16.5"/>
	<path class="st0" d="M1136.7,1438.5c-14,2.3-28.3,2-42.2-0.7c-4.7-0.9-9.9-2.5-12-6.8"/>
	<path class="st0" d="M1122.1,1437.7c-4.9-3.1-8.8-7.4-12.7-11.7c-2-2.2-4-4.4-5.2-7.2"/>
	<path class="st0" d="M1121.4,1424.2c13.1,37.2,44.7,64.6,64.3,98.8c3.7,6.4,6.9,13.1,10.6,19.5c9.5,16.5,21.8,31.3,34.1,45.9
		c19.3,23.1,38.6,46.2,57.9,69.2"/>
	<path class="st0" d="M1131.3,1470.2c2-7.1,2.7-14.7,1.9-22"/>
	<path class="st0" d="M1132.6,1462.4c9.4,7.5,19.9,13.6,31.1,17.9"/>
	<path class="st0" d="M1147,1470.4c18.9-0.6,37.5-8.3,51.3-21.3"/>
	<path class="st0" d="M1208.6,1460.8c-8,3.6-15.7,7.9-23.8,11.1s-16.8,5.6-25.1,4.6c8.8,14.1,7.8,33.6-2.5,46.7
		c-2.3,2.9-5.1,5.6-8.6,6.9c-3.5,1.3-7.8,0.9-10.4-1.6"/>
	<path class="st0" d="M1105.4,1454.3c10.2,18.8,21.3,37.1,33.4,54.8c2.9,4.3,5.9,8.6,9.3,12.6c6.4,7.6,14,14.2,21.3,21
		c14.9,14.2,28.2,30,39.6,47.1"/>
	<path class="st0" d="M1138,1529.5c5.2,5.8,14.4,7.6,21.3,4c3.1-1.6,5.6-4,8.5-5.8c5-3.1,11.2-4.2,17-3.2"/>
	<path class="st0" d="M1114.6,1451.6c17.6,28.1,35.5,56.5,45.3,88.2"/>
	<path class="st0" d="M1183.8,1526.2c-3.7,0.8-7,2.9-10.2,5c-1.5,1-3,2-4.4,3c-4.5,3.4-8.3,7.6-11.1,12.5"/>
	<path class="st0" d="M1155.5,1482.3c9.6,13.8,19.2,27.6,28.8,41.3c3,4.3,6,8.6,9.3,12.6c3.5,4.2,7.3,8,11.1,11.8
		c3.2,3.2,6.4,6.4,9.6,9.6"/>
	<path class="st0" d="M1151.6,1476.9c-0.7,2.5-0.6,5.2-0.5,7.8c0.3,9.2,0.8,18.4,1.4,27.6"/>
	<path class="st0" d="M1157.1,1494.9c-2.4,2.5-2.5,6.3-3.4,9.7c-0.6,2.3-1.7,4.5-1.5,6.9"/>
	<path class="st0" d="M1156.6,1519.9c1.5-8.1,1.6-16.6,0.2-24.7"/>
	<path class="st0" d="M1163,1497.6c-1.6,5.9-3.2,11.7-5,17.5c-0.4,1.4-0.8,2.8-1.3,4.1"/>
	<path class="st0" d="M1215.5,1573.1c-8.3-0.1-16.7-0.3-25-0.8c-2.1-0.1-4.4-0.4-5.7-2.1"/>
	<path class="st0" d="M1214.7,1558.3c-11.2-0.2-22.4,4.2-30.4,12"/>
	<path class="st0" d="M1209.1,1575.8c0.2-3.7,4.1-6,7.5-7.4c5.2-2.2,10.7-4.3,16.3-3.8c3.2,0.3,6.7,1.6,8.3,4.4
		c0.8,1.3,1.1,2.9,1.3,4.4c0.5,2.9,0.6,6.2-1.4,8.3c-1.8,1.9-4.6,2.3-7.2,2.8c-5.7,1-11.3,2.6-16.6,4.9"/>
	<path class="st0" d="M1228.1,1585.8c-5.9,6.8-15.2,9.7-21.4,16.2c-1.4,1.4-2.6,3-2.9,5c-11.2-3.7-22.8-5.9-34.2-6.6
		c-2.2,3.2-4.6,6.2-6.5,8.8c12.4,0.8,24.8,2.5,37,5.2c3.1,0.7,6.4,1.4,9.4,0.5c2.2-0.7,4.1-2.2,6.3-2.8c5.6-1.4,11.8,3.4,16.8,0.6
		c3.4-1.9,4.2-6.5,4.5-10.4c0.2-2-0.1-4.7-2.1-5c-0.9,1.2-0.3,3,0.7,4.2c2.2,2.5,5.8,3.2,9.2,3.1s6.7-0.7,10-0.1
		c1.6,0.3,3.3,0.9,4.2,2.3c1.8,2.8-0.5,6.2-2.7,8.7"/>
	<path class="st0" d="M1252.4,1611.2c-0.8,3.8-0.5,7.8,0.8,11.4c1.2,3.2,3.3,6.1,6.5,7.4c3.1,1.3,7.2,0.4,8.9-2.5
		c1.1-1.9,1-4.2,1-6.3c-2,1-2.2,3.8-2.1,6c0.3,5.4,0.5,10.9,0.8,16.3c0.1,1.3,0.1,2.6,0.5,3.8c1.3,4,6.6,6.1,10.2,4.1"/>
	<path class="st0" d="M1278.7,1664c1.4-5.2,0.8-10.7-0.6-15.8c-1.4-5.1-3.6-10-6.6-14.4"/>
	<path class="st0" d="M1276.8,1636.3c10.2,9.6,16.4,23.1,18.4,36.9"/>
	<path class="st0" d="M1279.1,1647.8c0.8,6.3,1.7,13.1,6.2,17.7c4.8,4.9,12.4,5.7,19.2,5.3c3.3-0.2,6.9-0.6,9.8,1.1"/>
	<path class="st0" d="M1304.8,1662.7c4.3,3.1,8.2,6.7,11.7,10.8c5.6,6.6,10.3,14.6,18.2,18.1"/>
	<path class="st0" d="M1288.6,1670.3c33.7-37.2,62.6-78.8,85.7-123.3"/>
	<path class="st0" d="M1320.4,1662.4c13.3-20.8,20.8-44.6,29.6-67.7c5.3-13.7,11.1-27.2,16.9-40.8"/>
	<path class="st0" d="M1317.4,1679.8c4.9-13.1,11.3-25.7,19.1-37.3"/>
	<path class="st0" d="M1344.4,1644.6c8.9-19,20.4-37.8,38.3-48.6c5.1-3.1,10.6-5.5,15.2-9.2"/>
	<path class="st0" d="M1387.2,1599.3c8.3-7.4,13.3-17.8,20.1-26.5c4.7-6.1,10.4-11.5,16.4-16.4"/>
	<path class="st0" d="M1411.3,1569.9c-3.7-1.8-5.7-5.9-6.8-9.8c-1.9-7.1-1.4-15.4,3.7-20.7c4.2-4.4,10.7-5.8,15.4-9.6
		c0.8-0.6,1.5-1.3,1.9-2.3c0.8-2-0.7-4.3-2.7-5.2c-2-0.9-4.2-0.8-6.4-0.6"/>
	<path class="st0" d="M1409.4,1562.5c26.2-1.1,51.9-11.4,71.6-28.8"/>
	<path class="st0" d="M1428.8,1557.2c11.7-6.6,24.6-10.9,37.8-12.8c4.3-0.6,9-0.9,12.7,1.3c2.2,1.3,3.8,3.4,4.9,5.6
		c3.2,6.1,3.1,13.8-0.1,19.8"/>
	<path class="st0" d="M1482.6,1549.1c1.2,4.7-0.1,9.8-2.1,14.2c-2,4.4-4.8,8.5-6.7,13c-1.7,4-2.7,8.2-3.8,12.4
		c-2.2,8.7-4.7,17.4-8.4,25.6c-3.7,8.2-8.8,15.9-15.6,21.8"/>
	<path class="st0" d="M1469.5,1590.9c-6.2,15.8-17.5,29.1-29.3,41.3"/>
	<path class="st0" d="M1467.8,1595.7c-9.6,16.6-25.4,28.6-41.8,38.6c-2.6,1.6-5.2,3.1-7.8,4.6c-7,3.8-14.3,6.9-21.9,9.4"/>
	<path class="st0" d="M1402.6,1641.9c-7.1,4.8-14.2,9.8-18.8,17c-1.8,2.9-3.2,6-4.8,9.1c-4.6,8.9-10.9,17-18.4,23.6
		c-1.2,1-2.8,2.1-4.2,1.4"/>
	<path class="st0" d="M1334.8,1686.3c8.9,0.2,18-1.2,26.2-4.8c8.2-3.5,15.6-9.2,20.6-16.7"/>
	<path class="st0" d="M1340.6,1666.1c18.7-2.4,37.3-7.3,53.1-17.5"/>
</g>
<g id="Layer_8">
	<path class="st0" d="M775.2,1190.1c-11,53.3-3.2,110.4,21.8,158.8"/>
	<path class="st0" d="M781.8,1189.9c-10.8,35.2-11.2,73.5-1.3,108.9"/>
	<path class="st0" d="M783.4,1333c-1.3-9.2-4.3-18.1-6.5-27.1c-4.7-19.5-5.7-39.9-3.1-59.8"/>
	<path class="st0" d="M890.3,1252.8c-7.9,26.8-15.8,53.5-23.8,80.2c-6.9,23.4-14,47.2-26.8,67.9c-3.2,5.3-7,10.4-11.9,14.1
		c-2.9,2.1-6.1,3.7-9.3,5.3c-4.6,2.3-9.2,4.6-13.8,6.8"/>
	<path class="st0" d="M776.8,1292.5c-3,8.5-6.1,17.3-5.9,26.3c0.3,15.4,10,29.2,11.6,44.4"/>
	<path class="st0" d="M777.5,1300.2c-2.3,22.9,2.8,46.6,14.4,66.5"/>
</g>
<g id="Layer_9">
	<path class="st0" d="M753.5,1255.4c-0.3,24.8,7.3,49.6,21.5,69.9"/>
	<path class="st0" d="M813.9,1403.4c-16.9-27.3-40.3-49.7-63.5-71.9c-19.5-18.7-39-37.3-58.5-55.9c-18.9-18.1-37.9-36.2-61-50.9
		c15.6,14.5,28.8,31.6,38.8,50.4"/>
	<path class="st0" d="M654.6,1240.9c10.2,9.5,20.4,19.9,25,33.1"/>
	<path class="st0" d="M819,1427.6c-16.2-3.6-29.6-16.4-35.7-31.9c-6.1-15.4-5.5-33.1,0-48.8"/>
	<path class="st0" d="M804.9,1431.8c-7.3-13-21.8-20.5-30.3-32.7c-3.9-5.6-6.5-12-8.7-18.5c-7.9-23.2-11.1-48-10.6-72.5"/>
	<path class="st0" d="M748.5,1326c-4.2-23.4-2.4-47.9,5-70.1c-9.5,15.6-15.6,34.4-11.1,52.1"/>
	<path class="st0" d="M746.3,1302.4c-12.4-14.8-25.2-29.2-38.4-43.3c-4-4.3-8-8.6-12.4-12.4c-7.6-6.8-16.2-12.3-24.8-17.9
		c-21.3-13.8-42.7-27.6-64-41.4"/>
	<path class="st0" d="M745,1277.5c-18-13-35.8-26.2-53.5-39.7c-4.8-3.7-9.6-7.4-13.6-11.9s-7.1-10.1-7.8-16.1"/>
	<path class="st0" d="M745.6,1260.8c-6,0.1-11.7-3.1-16.5-6.7c-23.1-17.6-33.9-48.9-59.2-63.3"/>
	<path class="st0" d="M724.8,1249.5c-9-1.6-18.3-3.4-25.4-9.1c-6-4.8-9.8-11.9-13-18.9c-3.2-7-6.2-14.3-11.1-20.2
		c-2.3-2.7-5.1-5.2-6.2-8.6c-0.3-1-0.2-2.4,0.7-2.6"/>
	<path class="st0" d="M591.6,1109.4c19.8,35.5,41.5,70.7,71.6,98c4.4,4,9.1,7.9,14.4,10.7"/>
	<path class="st0" d="M663.5,1194.9c-7.8-2.3-15.6-4.7-23.4-7c-5-1.5-10.1-3-14.6-5.7c-7.8-4.6-13.2-12.2-18.4-19.6"/>
	<path class="st0" d="M642.2,1178.2c-11.4-0.9-21.6-7.8-28.9-16.6c-7.3-8.8-12.2-19.3-16.9-29.6c-4.2-9.1-8.3-18.1-12.5-27.2"/>
	<path class="st0" d="M572.8,1088.9c3.4,6.8,6.4,13.9,9.4,20.9c1.4,3.3,2.9,6.7,4.3,10c7.6,17.8,15.3,35.6,21.6,53.9"/>
	<path class="st0" d="M597.7,1190.5c-8,8.1-13.4,18.4-17.9,28.9c-15.1,34.6-23.4,73.7-14,110.2"/>
	<path class="st0" d="M600.2,1170.1c-30.7,38.3-50.9,84.9-58.1,133.5"/>
	<path class="st0" d="M597.2,1166.2c-33.6,39.7-55.8,89-63.2,140.4"/>
	<path class="st0" d="M571.5,1178.6c-23.1,39.5-39,84.5-36.9,130.2"/>
	<path class="st0" d="M588.4,1150.3c-11.3,12.8-20.1,27.6-27.7,42.8c-18.1,36.1-29.9,75.4-34.7,115.6"/>
	<path class="st0" d="M588.7,1225.4c4.8,6.2,9.6,12.4,14.4,18.6c3.8,4.9,8.1,10.2,14.1,11.9c2.2,0.6,4.6,0.7,6.8,0.2"/>
	<path class="st0" d="M579.9,1308.7c14.1,15.3,32,27.2,51.6,34c3.8,1.3,7.6,2.4,11.4,3.7c32.8,11,62.1,32.3,82.8,60.1"/>
	<path class="st0" d="M704.1,1397.5c24.2,13.4,50.8,22.7,78.1,27.4c9.5,1.6,20,2.5,28-2.8"/>
	<path class="st0" d="M720.2,1406.2c-6.1-6.6-13.2-12.2-20.2-17.7c-14-11-27.9-22.1-41.8-33.1c-3.3-2.6-6.7-5.3-10.2-7.6
		c-8.5-5.5-18.2-9.1-27.7-12.6"/>
	<path class="st0" d="M650.1,1352.6c-21.7-7.7-40.9-21.8-62.9-28.7c-15.3-4.8-31.5-6-47.5-7.1"/>
	<path class="st0" d="M622.2,1337.6c-27.5-9-55.9-15.6-84.7-19.6"/>
	<path class="st0" d="M597.4,1331.7c-14.2-4.5-27.4-12.1-38.4-22.1"/>
	<path class="st0" d="M555.8,1318.2c-13.4-2.1-26.5-5.5-39.2-10.2"/>
	<path class="st0" d="M556.3,1211.4c-7.7-1.4-15.8-0.5-23,2.5"/>
	<path class="st0" d="M556.2,1220.1c-4-1-8.1-1.1-12.2-1.7c-4.1-0.6-8.2-1.7-11.3-4.3"/>
	<path class="st0" d="M549,1221.6c-6.8,0.9-13.7,0.7-20.4-0.7"/>
	<path class="st0" d="M547.3,1229.9c-6.9,0.6-13.9,0.3-20.7-0.8c4.6,2.5,7.3,7.3,10.6,11.4c2.7,3.4,5.9,6.5,9.4,9.1"/>
	<path class="st0" d="M529.6,1254.1c-13.7-14.4-29.5-26.7-46.8-36.4"/>
	<path class="st0" d="M523.2,1258.7c-14.1-12.5-30.7-22.1-48.6-28.1"/>
	<path class="st0" d="M509.9,1261.8c-12.1-6.6-22.8-15.8-31.2-26.7"/>
	<path class="st0" d="M493.9,1262.3c-6.2-7.6-13.1-14.7-20.6-21.1"/>
	<path class="st0" d="M515.5,1239.9c-3,3.4-7.1,5.6-11.2,7.6c-13.9,6.7-28.6,11.7-43.7,14.7"/>
	<path class="st0" d="M460.5,1265.8c-12,7.9-25,14.8-39.2,17c-3.4,0.5-6.9,0.7-10.2,0.1c-2.3-0.5-4.5-1.4-6.6-2.3
		c-4.2-1.9-8.2-4.2-12-6.7"/>
	<path class="st0" d="M431.6,1267.5c-4-0.4-7.8,1.3-11.5,2.6c-13.8,4.8-29.2,5-43.1,0.5"/>
	<path class="st0" d="M466.4,1266c-8.2,4.5-17.7,6-27,6.3c-9.3,0.3-18.7-0.4-28-0.1c-4,0.2-8.1,0.5-11.9-0.7c-2.5-0.8-4.8-2.3-7-3.8
		c-3.3-2.2-6.7-4.7-8.7-8.1"/>
	<path class="st0" d="M534.4,1108.1c-19.3,16-37.2,33.8-53.4,53"/>
	<path class="st0" d="M492,1149.5c-2.2,6.2-4.4,12.4-8.1,17.8c-3.1,4.5-7.1,8.3-11.1,12c-16.7,15.7-33.6,31.5-53.8,42.4
		c-11,5.9-22.7,10.2-34.1,15.2"/>
	<path class="st0" d="M420.8,1215.7c-22,20.1-42.4,43.6-50.8,72.2"/>
	<path class="st0" d="M593.5,1153.3c-20.4-16.8-32.6-41.5-41-66.5"/>
	<path class="st0" d="M562.6,1119.9c-9.9-3.3-18.5-10.1-24.9-18.4s-10.5-18.2-13.3-27.1c-0.1,18.3,6.8,36.6,18.9,50.3"/>
	<path class="st0" d="M590.6,1151.2c-14.9-4-30.4-9.4-39.4-20.5c2.6,5.5,5.7,10.8,9.3,15.7c1.1,1.6,2.3,3.2,2.8,4.6
		c-4.6,0.5-9.4-0.5-13.4-2.9c-1.1-0.7-2.3-1.5-3.3-2.6c2.3,5.5,0.1,11.9-3.1,16.9c-1.2,1.8-2.6,3.7-2.7,5.9
		c-0.1,1.9,0.7,3.7,0.6,5.6c-0.2,1.8-1.2,3.4-1,5.2c0.1,1,0.6,1.9,1.2,2.7c2.3,3,6,4.7,9.6,5.8s7.4,1.9,10.7,3.7"/>
</g>
</svg>
