<?xml version="1.0" encoding="utf-8"?>
<!-- Generator: Adobe Illustrator 27.5.0, SVG Export Plug-In . SVG Version: 6.00 Build 0)  -->
<svg version="1.1" id="Layer_1" xmlns="http://www.w3.org/2000/svg" xmlns:xlink="http://www.w3.org/1999/xlink" x="0px" y="0px"
	 viewBox="0 0 2200.8 1978.4" style="enable-background:new 0 0 2200.8 1978.4;" xml:space="preserve">
<style type="text/css">
	.st0{fill:none;stroke:#000000;stroke-miterlimit:10;}
</style>
<g id="Layer_2_00000122716493745702577340000014299274122417303726_">
	<path class="st0" d="M262.6,29.3C320.8,105,379,180.7,437.2,256.4"/>
	<path class="st0" d="M477.6,291.3c-74.1-86.3-145.7-174.7-214.7-265"/>
	<path class="st0" d="M477.5,261.8C401.5,187,329.9,107.9,263,24.9"/>
	<path class="st0" d="M431.7,228.8c-10.2,6.7-13.5,21.1-9.5,32.7c3.9,11.6,13.7,20.4,24.5,26.1c4.2,2.2,9.5,4,13.5,1.5
		c3.5-2.2,4.5-7,3.5-11s-3.6-7.4-6.1-10.6"/>
	<path class="st0" d="M432.3,273.6c-1.8-10.5-3.5-21.4-0.5-31.6s12.3-19.4,22.9-18.6c8.9,0.7,15.9,7.9,20.3,15.6
		c6.7,11.8,9.2,26,7,39.4c-1,6-3.1,12.1-7.8,15.9c-7,5.7-17.8,4.3-25.4-0.5c-8.4-5.3-14.3-14-16.8-23.6c-2.5-9.5-1.8-19.8,1.3-29.2
		c2.3-7,6.4-14,13.1-17c9.5-4.2,20.5,1.1,28.3,7.9c12.8,11.1,21.5,26.7,24.2,43.4c1.5,9.2,0.9,19.5-5.2,26.5c-7.9,9-22.5,9.3-33,3.5
		S435.5,292.2,432.3,273.6z"/>
	<path class="st0" d="M453.3,299.9c13.8,5.3,30.6,1.5,40.8-9.1s13.4-27.5,7.6-41.1s-20.1-23.1-34.8-23.1"/>
	<path class="st0" d="M286.6,363.9c3.7-81.9,7.3-163.9,11-245.8"/>
	<path class="st0" d="M290.9,121.2c-1.5,35-2.9,70.1-8.6,104.7c-5.5,33.3-14.9,66.3-14.2,100.1"/>
	<path class="st0" d="M262.9,353.8c1.5,16.3,1.1,32.8-1.2,49"/>
	<path class="st0" d="M259,395.6c29.5,3.6,58.2,12.2,86.6,20.8c43.6,13.1,87.5,26.3,127.8,47.4"/>
	<path class="st0" d="M462.8,448.9c3.1,2.1,4.4,6,6.7,9s7.1,5,9.7,2.2c1.5-1.6,1.5-4.1,1.3-6.3c-2.4-31.2-10-63.2-1.2-93.3"/>
	<path class="st0" d="M286.2,356.5c48.9,12.1,97,27.6,143.7,46.3"/>
	<path class="st0" d="M477,309c-19.3,29.1-35.3,60.4-47.6,93"/>
	<path class="st0" d="M491.8,280.4c43.1-5.3,85.7-14.2,127.3-26.8c1.5-0.5,3.1-1,4.3-2.1s1.7-3,0.8-4.3s-3.4-1.1-3.7,0.5"/>
	<path class="st0" d="M606.4,143.3c-3.6,38.2,0.6,77.1,12.1,113.7"/>
	<path class="st0" d="M638.4,107c6,50,12,100,18,150.1c0.7,5.9,1.4,12.1-0.7,17.6c-2.1,5.6-7.9,10.2-13.7,8.9"/>
	<path class="st0" d="M611.5,148.4c-89.3-21.8-176-54.3-257.5-96.7"/>
	<path class="st0" d="M639.7,112.7c-98.2-7.2-195.5-27.5-288.3-60.4"/>
	<path class="st0" d="M681.9,286.8c-54.5,0.2-109.1,5.3-162.7,15.2"/>
	<path class="st0" d="M526.5,283.2c1.8,9.4,0.5,19.3-3.7,27.8s-11.1,15.7-18.9,20.5c10-4.3,19.2-10.2,26.7-17.6
		c1,8.5-1,17.3-5.4,24.6"/>
	<path class="st0" d="M527.7,335.8c4.3-7.1,10-13.5,15.4-19c0.7,11.7-4.1,23.6-12.7,30.6c3.7-2.5,8.2-3.6,12.4-5
		c4.3-1.4,8.6-3.3,10.8-6.4c-1.7,6.1-5.7,11.2-9.6,16.1c-1.3,1.7-2.7,3.4-4.2,4.9c-2.4,2.4-5.3,4.2-8.1,6.1"/>
	<path class="st0" d="M531.9,346c8.1-3.8,12.7-12.9,13.2-21.9s-2.3-17.7-5.5-26"/>
	<path class="st0" d="M541.8,316.9c123.9,157.6,244.6,317.6,362,480.1"/>
	<path class="st0" d="M963.2,846.8C834.8,698,712.6,544,596.7,385.3"/>
	<path class="st0" d="M950.7,841.9c-143.2-173.5-286.3-347-429.5-520.6"/>
	<path class="st0" d="M526.7,351.4c129,174.2,260.9,346.3,395.7,516.1"/>
	<path class="st0" d="M928.4,883.7c-137.8-169.4-273.1-341-405.8-514.5"/>
	<path class="st0" d="M522.4,348c117.4,159.5,237.2,317.3,359.2,473.2"/>
	<path class="st0" d="M927.6,863.3C818.4,735.1,714.7,602.2,617,465"/>
	<path class="st0" d="M910.3,859.2c3.1-6.8,10.6-11.7,18-10.8c7.5,0.9,13.8,8.1,13,15.5c-0.4,3.8-3,7.6-6.8,8.2
		c-4.6,0.7-8.4-3.2-11.3-6.8c-25.7-32.1-47.9-67.3-78.5-94.8"/>
	<path class="st0" d="M895.5,818.4c7.7,16.6,17.4,32.2,28.9,46.5"/>
	<path class="st0" d="M924.8,944.4c-9.3,0.7-18.7-3.8-24.1-11.4s-6.3-18.1-2.5-26.5c4-8.9,12.5-14.9,20.5-20.4
		c25.5-17.4,50.9-34.8,76.4-52.3c8.2-5.6,19.4-11.3,27.3-5.3"/>
	<path class="st0" d="M892.5,763.4c25.4,29.7,50.7,59.3,76.1,89"/>
	<path class="st0" d="M1023.6,832.2c1.3-4.4,2.6-8.9,3.6-12.9c15.2,16.5,26,37.1,31,59"/>
	<path class="st0" d="M1033.7,835.1c18,22.8,27.1,52.5,25,81.5"/>
	<path class="st0" d="M984.7,856.7c14.5,25,25.5,52,32.6,80"/>
	<path class="st0" d="M1003.6,896.2c-6.1-8-12-16.2-18.1-24.4c18,28.9,31.9,60.4,41,93.2"/>
	<path class="st0" d="M1013.6,951.2c3.1,5.2,7.2,9.8,12.1,13.3"/>
	<path class="st0" d="M1017.7,963.8c4.3,2.1,9.5,1.5,13.9-0.2s8.4-4.5,12.5-7s8.7-4.5,13.5-4.4c1,0,2.3-0.2,2.3-1.2
		c0-0.9-1.2-1.3-2.1-1.3c-3.9-0.2-7.9-0.1-11.8,0.1"/>
	<path class="st0" d="M1034.6,918.7c0.9-1.9,1.9-3.9,2.8-5.8c-6.1,1-12,3.5-16.8,7.4c-1.9,1.5-3.8,3.5-4.1,6
		c-0.2,2.5,1.3,4.8,2.7,6.9c6.5,9.2,13,18.4,19.5,27.6"/>
	<path class="st0" d="M1022,950.8c10.8-2.7,21.1-7.4,30.2-13.7"/>
	<path class="st0" d="M971.3,854.2c9.6,30.6,22.9,60,39.6,87.4"/>
	<path class="st0" d="M1006,908.4c-7-0.2-14-0.5-21-0.7"/>
	<path class="st0" d="M980.9,865.2c-2.9-2.2-6.5-3.7-10.1-4.2c-2.3-0.3-4.9-0.2-6.6,1.5c-1.7,1.6-1.4,5.1,0.8,5.7"/>
	<path class="st0" d="M944.2,889.7c8.5-10.6,19.9-18.9,32.7-23.7"/>
	<path class="st0" d="M927.6,925.8c-6.2-1.3-12.8-2.8-17.4-7.2c-3.5-3.4-5.4-8.3-5.4-13.2s1.9-9.7,5-13.5c-0.3,0.5-0.7,0.9,1.8,3.9
		c-5.2,12-4.7,26.3,1.5,37.8c1.1,2.1,2.5,4.2,4.5,5.7s4.6,2.2,6.8,1.3"/>
	<path class="st0" d="M905.8,898.7c-5,9.5-7.7,20.1-7.9,30.8c-0.1,4.3,0.3,8.8,2.7,12.3c2.6,3.8,7.3,5.8,12,6.2s9.2-0.7,13.7-1.8"/>
	<path class="st0" d="M924.2,940.5c-1.6,12.2,0.6,24.9,6.4,35.8s15,19.9,26,25.4"/>
	<path class="st0" d="M917.6,961.7c-2.7-1.2-5.3-2.3-8-3.5c13.5,12.6,25.1,27.3,34,43.5"/>
	<path class="st0" d="M931.5,976c-0.2,6.7-0.4,13.4-0.6,20.1c0,1.6-0.1,3.3,0.7,4.8c1.3,2.6,4.5,3.5,7.2,4.5
		c8.2,3.2,14.5,10.8,16.2,19.4"/>
	<path class="st0" d="M946.3,993.8c2.5,1.2,5.4,1.3,8.1,1.9c2.7,0.6,5.6,1.9,6.6,4.5c1,2.5,0,5.3,0.2,8c0.2,4.7,4.2,9,8.9,9.4"/>
	<path class="st0" d="M960.4,1034c6.5,5.4,13,10.7,19.5,16.1c2.2,1.8,4.5,3.7,7.3,4.4c3.2,0.7,6.6-0.3,9.7-1.3
		c13-4.5,25.5-10.7,37-18.3"/>
	<path class="st0" d="M977.5,1021.6c3.9,7,8,14.1,13.6,19.8c5.7,5.7,13.2,9.9,21.3,9.8c6.2-0.1,12-2.7,17.8-4.9
		c14.1-5.4,29.1-8.5,44.2-9.2"/>
	<path class="st0" d="M289.2,127.8c-6.5,65.7-13.1,131.4-19.6,197"/>
	<path class="st0" d="M266.3,348.3c-1.2,17.4-2.4,34.9,1.2,49.8c69,16.2,138.5,32.7,202.6,62.8"/>
	<path class="st0" d="M463.1,446.9c1.1,4,2.3,8.1,5.3,11s8.3,3.6,11,0.6c2.1-2.4,1.9-6,1.5-9.2c-3.3-32-3.1-64.3,0.4-96.2"/>
	<path class="st0" d="M298.7,128.9c-7.3,75.5-12,151.2-9.8,230.4c48.7,9.5,96.3,24.5,141.7,44.6"/>
	<path class="st0" d="M287,367.2c0.4-5.1,0.8-10.1,1.2-15.2"/>
	<path class="st0" d="M430.1,405.2c10.3-34.6,27.2-67.2,49.4-95.6"/>
	<path class="st0" d="M495,282.1c39.6-6.3,78.9-14.3,117.8-24c5.9-1.5,12.8-3.9,14.5-9.7"/>
	<path class="st0" d="M521.2,299.7c51.4-8,103.3-13.3,155.2-15.8"/>
	<path class="st0" d="M650.3,285c4.5-3.1,7-8.5,7.7-13.9s-0.1-10.9-0.8-16.3c-7.4-50.3-14.7-100.6-22.1-151"/>
	<path class="st0" d="M367.5,61.2c74.9,37.5,153.2,69,235.1,86.4"/>
	<path class="st0" d="M636.9,112.6c-93.4-4.2-186.2-22.6-274.1-54.5"/>
	<path class="st0" d="M609.2,146.7c-5.5,36.6-2.1,74.6,9.9,109.6"/>
</g>
<g id="Layer_3">
	<path class="st0" d="M1059.5,885.5c1.3-36.3,2.6-72.6,3.9-108.9c31.7-9.8,63.2-24.1,93.6-43.7c-25.5,18.5-50.9,37.1-74.3,51.2
		c-7.5,22.8-10.8,47-9.7,71"/>
	<path class="st0" d="M1070.9,792.3c1.9,28.2,3.8,56.4,5.7,84.5c3.5,51.3,7.4,104.3,31.3,149.8"/>
	<path class="st0" d="M1073.4,839.4c7.1,75.3,43,146.7,42.8,222.3"/>
	<path class="st0" d="M1114.7,1045.8c19.9,59.2,53.7,112.6,87.2,165.4"/>
	<path class="st0" d="M1157.8,1156.8c-5.4-37.4-5.3-75.7,0.1-113.1c5.4-37.6,16.6-73.6,31.7-108.4c8.2-19.1,16.8-38.5,19.3-59.3"/>
	<path class="st0" d="M1299,840.7c3.4-4,6.8-8,10.1-12c0.6-0.7,1.5-1.5,2.4-1.2c0.6,0.2,0.9,0.9,1.1,1.5c6.6,18.6,9.9,38.4,9.7,58.1
		"/>
	<path class="st0" d="M1319.2,803.6c8,8.3,15.1,17.4,21.1,27.2"/>
	<path class="st0" d="M1264.6,670.6c0.3-2.2,2.2-4.2,4.4-4.5c17.6,38.2,27.6,79.8,29.4,121.7"/>
	<path class="st0" d="M1281.7,697.4c21,53.8,29,112.5,23.3,170"/>
	<path class="st0" d="M1171.1,634.9c9.5-1.5,19-3,28.6-3.1c9.6-0.1,19.3,1.4,27.9,5.6"/>
	<path class="st0" d="M1188.2,628.3c11.3,4.8,21.9,11.1,31.7,18.5"/>
	<path class="st0" d="M1237.3,639.7c5.1,3.9,9.7,8.6,13.4,13.8"/>
	<path class="st0" d="M1235.3,634.4c5.5,3.8,10.4,8.3,14.7,13.4"/>
	<path class="st0" d="M1251.9,637.7c27.8,38.7,54.4,78.3,79.3,117.1c9.1,14.5,19.2,28.4,30.3,41.5c5.7,6.7,11.7,13.3,16.2,20.9
		s7.5,16.4,6.5,25.2"/>
	<path class="st0" d="M1333.6,751c12.3,8.1,21,20.8,27.1,34.2c6.1,13.5,9.8,27.8,14.3,41.9c4.5,14.1,9.8,28.1,18.6,39.9"/>
	<path class="st0" d="M1307,729.9c21,11.3,44.4,18.3,68.2,20.4"/>
	<path class="st0" d="M1305.1,721.4c12.6,10.4,27,18.6,42.3,24.2"/>
	<path class="st0" d="M1342.6,603.7c-5.1,9.7-13.9,17.3-24.2,20.9c-10.3,3.7-21.9,3.3-32-1c-9-3.8-17.2-10.8-29.2-10.7
		c-0.7,4.2,2,8.2,5.1,11.1c12.1,11.5,31.1,13.5,46.9,8.3C1325,627,1338.1,615.7,1342.6,603.7z"/>
	<path class="st0" d="M1339.2,600.7c-14.8-8.5-32.1-12.9-49.2-12.4c-17.1,0.5-34.1,5.8-48.4,15.2"/>
	<path class="st0" d="M1340.4,596.8c-26.8-13.7-59-16.5-87.8-7.7"/>
	<path class="st0" d="M1327.9,597.4c-19.7-2.6-39.4-4.6-59.2-6"/>
	<path class="st0" d="M1274.4,591c-2.5,7.9-4,16-4.4,24.3c-0.1,2.2,0,4.7,1.8,6"/>
	<path class="st0" d="M1278.8,591.5c-2,9.5-2.4,19.4-1.3,29.1"/>
	<path class="st0" d="M1284.6,593c-0.1,10.5-0.2,20.9-0.3,31.4"/>
	<path class="st0" d="M1292.1,593.5c0.2,10,0.5,20,0.7,30"/>
	<path class="st0" d="M1300.6,595c0.2,11.6,0.5,23.2,0.7,34.8"/>
	<path class="st0" d="M1311.4,592.8c-0.3,10.9-0.7,21.7-1.1,32.6"/>
	<path class="st0" d="M1321,595c-0.6,10.3-1.1,20.6-1.7,30.8"/>
	<path class="st0" d="M1316.2,592.3c4.3,8.9,7.8,18.2,10.7,27.7"/>
	<path class="st0" d="M1339.9,601.6c-5.5,9.2-14.2,16.5-24.2,20.2"/>
	<path class="st0" d="M1277.7,620.6c14.7,4.9,31.4,3.7,45.2-3.3"/>
	<path class="st0" d="M1258.1,589.9c2.6,4.6,5.2,9.2,6.1,14.4c0.9,5.2-0.3,11-4.3,14.4"/>
	<path class="st0" d="M1342.4,592.8c-11.3-1.9-22.9-2.4-34.4-2.9c-26.2-1.2-52.5-2.3-78.7-3.5"/>
	<path class="st0" d="M1298.6,589.9c-27.1-8.4-55.3-13.5-83.6-15.2"/>
	<path class="st0" d="M1255.5,593.2c-6.4-2.9-13.4-4.7-20.5-5.2"/>
	<path class="st0" d="M1256.3,598c-5.2-5.2-12.4-8.3-19.8-8.6"/>
	<path class="st0" d="M1256.6,601c-4.2-2.7-9-4.3-13.9-4.8"/>
	<path class="st0" d="M1304.7,568.6c1.8,9.7,6.5,18.9,13.3,26"/>
	<path class="st0" d="M1302.1,574.4c1.9,5.5,4.6,10.8,7.8,15.6"/>
	<path class="st0" d="M1285.8,576.5c3,4.6,6.6,8.8,10.6,12.5"/>
	<path class="st0" d="M1279.5,561.8c5.6,4.5,11.8,8.2,18.5,10.8"/>
	<path class="st0" d="M1316.5,554.5c-1.5,7.5-1.5,15.3,0.1,22.7c0.6,2.9,1.5,5.8,3.1,8.2s4.2,4.4,7.1,4.8"/>
	<path class="st0" d="M1298.9,561.5c22.5-16.5,48.5-28.4,75.7-34.5"/>
	<path class="st0" d="M1301.3,565.5c8.6-3.5,17.2-6.9,25.7-10.4"/>
	<path class="st0" d="M1298.9,556.7c9.5-12.2,22.2-21.8,36.5-27.7"/>
	<path class="st0" d="M1305,554c17.5-15.1,39.2-25.3,62-29.2"/>
	<path class="st0" d="M1315.2,551.3c16.8-7.8,34.2-14.3,51.9-19.4"/>
	<path class="st0" d="M1390.2,528.4c-2.8-1.7-5.7-3.5-9-4.1c-3.2-0.6-7,0.1-9.1,2.7c-1.4,1.8-1.9,4.1-2,6.4
		c-0.2,7,3.6,13.8,9.4,17.6c3.1,2,7.1,3.2,10.6,2c3.6-1.3,6-4.9,6.4-8.7s-0.9-7.5-3.1-10.7S1388.5,528,1390.2,528.4z"/>
	<path class="st0" d="M1376.9,528.8c0,4.9,1.2,9.7,3.7,13.9c0.8,1.3,1.7,2.6,3,3.4c1.3,0.8,3.1,1,4.4,0.1c1.4-1,1.7-2.9,1.7-4.5
		c-0.1-4.4-2.4-8.6-5.8-11.2c-1.8-1.4-4-2.3-6.3-2.2s-4.6,1.3-5.6,3.3c-1.1,2.3-0.5,5,0.3,7.5c1,3,2.3,6.1,4.7,8.2
		c2.4,2.1,6.2,2.9,8.8,1c2.3-1.7,2.9-4.8,2.7-7.6c-0.3-4.5-2.5-8.8-5.9-11.7c-2.3-2-5.8-3.3-8.2-1.5c-1.9,1.5-2.2,4.3-1.8,6.8
		c0.8,5.9,4.2,11.8,9.8,14c2.3,0.9,5.2,1,6.8-0.9c1.3-1.5,1.2-3.7,0.9-5.7c-0.8-4.4-2.6-8.6-5.2-12.2c-1.2-1.6-2.8-3.2-4.8-3.3
		c-2.9-0.1-4.8,3-5.4,5.8c-1.4,7,2.5,14.8,9,17.8c1.6,0.7,3.3,1.2,5,1.1c1.7-0.1,3.4-1,4.3-2.5c1.2-2,0.7-4.7,0-7
		c-1.5-5.2-3.9-11-9-12.9c-2.5-0.9-5.8-0.5-7,1.8c-0.6,1-0.6,2.2-0.6,3.4c0.2,5.7,2.7,11.2,6.8,15.1c1.8,1.7,4.2,3.1,6.6,2.4
		c2.2-0.7,3.4-3.1,3.8-5.4c0.5-3.3-0.2-6.7-1.3-9.9c-1-2.8-2.4-5.7-4.9-7.4s-6.2-2-8.3,0.2c-1.8,1.9-1.9,4.8-1.4,7.3
		c0.6,3.5,2,6.9,4.1,9.8c1.8,2.5,4.9,4.9,7.7,3.7c2.1-0.9,3-3.3,3.3-5.6c0.5-4.1-0.5-8.3-2.7-11.7c-1.1-1.6-2.8-3.2-4.7-2.8
		c-1.7,0.3-2.8,2.2-2.8,3.9c0,1.7,0.7,3.4,1.4,5c0.7,1.5,1.4,3.1,2.8,4.1c1.3,1,3.4,1.3,4.6,0.2c1.7-1.5,0.8-4.3-0.2-6.4
		c-0.7-1.5-1.6-3.1-3.2-3.5c-2.1-0.5-4,1.5-4.3,3.6s0.6,4.2,1.4,6.1c0.5,1.2,1.5,2.7,2.8,2.3c1-0.3,1.4-1.5,1.5-2.5
		c0.2-2.5-0.4-5-1.7-7.1c-0.7-1.2-2-2.3-3.3-1.9c-1.3,0.5-1.5,2.4-1.2,3.8c0.7,3,2.6,5.8,5.1,7.6c1.3-4,0.1-8.7-3.1-11.6
		c-1.4-1.3-3.7-2.2-5.2-1c-1.4,1.1-1.3,3.2-0.9,5c0.7,2.7,1.8,5.3,3.4,7.6c0.8,1.2,2,2.5,3.4,2.5c1.3,0,2.5-1,2.9-2.3s0.3-2.6,0-3.9
		c-0.7-3.2-2.6-6.2-5.1-8.3c-0.8-0.7-2-1.3-2.9-0.8c-0.9,0.5-1.1,1.7-1.1,2.8c0.2,5,2.9,9.9,7,12.8c0.9-5.7-1.5-11.8-6-15.3
		c-0.6,4.3,1.1,9,4.4,11.9c0.6,0.6,1.4,1.1,2.3,0.9c1.5-0.3,1.6-2.4,1.2-3.8c-0.7-2.5-1.8-4.9-3.2-7c-0.4-0.7-1.1-1.3-1.9-1.3
		c-1.4,0-1.7,2-1.4,3.4c0.8,3.3,2.5,6.3,4.9,8.7c1-5.3-2-11-6.9-13.2c-0.3,4.4,0.8,8.9,3.1,12.6c0.8,1.3,1.8,2.6,3.2,3.2
		c2.2,0.9,4.9-0.4,6.1-2.5c1.2-2.1,1.1-4.7,0.2-7s-2.3-4.2-3.7-6.2c-1.6-2.1-3.3-4.3-5.8-5.1c-4.1-1.3-8.6,2.3-9.5,6.5
		s1,8.6,3.5,12.1c2.4,3.4,6,6.5,10.2,6.5c4,0,7.6-3.1,8.7-6.9s0.1-8.1-2.2-11.3c-2.3-3.2-5.7-5.6-9.4-7.1c-2-0.8-4.2-1.5-6.3-1
		c-3.9,1-5.6,5.6-5.8,9.6c-0.2,5.8,1.9,11.9,6.7,15.2s12.1,2.9,15.5-1.8"/>
	<path class="st0" d="M1408.1,612.8c1.3-15.3,0.6-30.8-1.9-46c-1.3-7.8-3.4-16.1-9.5-21.2"/>
	<path class="st0" d="M1395.5,538.8c9.3,9.3,14.2,22.3,15.9,35.3s0.4,26.3-1.2,39.3"/>
	<path class="st0" d="M1417.9,598.9c-11.3,11.5-20.8,24.7-28.1,39.1"/>
	<path class="st0" d="M1418.7,602.6c-4.6,16.2-16.3,30.3-31.5,37.8"/>
	<path class="st0" d="M1342.7,601.2c8.6,13.4,22.2,23.5,37.6,27.8"/>
	<path class="st0" d="M1337.6,611.9c7.3,5.9,16.3,9.6,25.5,11.7c9.2,2.2,18.6,2.9,28,3.7"/>
	<path class="st0" d="M1334.4,615.6c6.8,5.8,15.7,8.7,24.6,9.8s17.9,0.4,26.8-0.2"/>
	<path class="st0" d="M1339.9,606.4c10.2,15.9,26.7,27.7,45.1,32.2"/>
	<path class="st0" d="M1341.9,616.7c-2.7,6.2,1,13.6,6.6,17.4s12.5,4.8,19.2,5.7c7.9,1.1,15.9,2.1,23.9,1.4s16-3.4,21.7-9"/>
	<path class="st0" d="M1410.9,596.6c0.1,12.4,0.2,24.9-1.8,37.2c-1.9,12.3-6,24.4-13.4,34.4"/>
	<path class="st0" d="M1281.6,544.9c21.5-14.1,43.1-28.3,64.6-42.4"/>
	<path class="st0" d="M1331.3,517.2c16.4-12.6,34.6-23,53.8-30.6"/>
	<path class="st0" d="M1299.3,535.6c16,0.7,32.1,0.1,48-1.8"/>
	<path class="st0" d="M1321,523c16.4-2.4,33-3.2,49.5-2.3"/>
	<path class="st0" d="M1337,517.9c15.1-2.5,30.1-6.1,44.7-10.8"/>
	<path class="st0" d="M1342.6,510.5c15.4-5,31.7-7.5,47.9-7.2"/>
	<path class="st0" d="M1360,504.4c14.3-7.7,29.8-13.1,45.8-15.9"/>
	<path class="st0" d="M1374.1,500.7c14.6-1,29.2-2.1,43.7-3.1"/>
	<path class="st0" d="M1387.6,489.5c9.2,3.4,18.3,6.7,27.5,10c1.8,0.7,3.7,1.3,5.1,2.6c3.1,2.6,3.9,7.1,4.1,11.2
		c0.2,4.1,0.1,8.4,2.2,11.9"/>
	<path class="st0" d="M1408.6,507.9c0.4-5.7,0.8-11.4,1.2-17.1c0.1-0.7,0.1-1.5,0.5-2.1c0.7-1,2.2-1.2,3.4-0.9
		c2.6,0.5,4.8,2.4,6.5,4.5c3.2,3.6,5.8,7.9,8.3,12c2.3,3.8,4.6,7.6,6.9,11.5"/>
	<path class="st0" d="M1403.6,495.2c-13.1-1.1-26.4,1.5-38.1,7.5"/>
	<path class="st0" d="M1377.2,509.6c-12.4,6.1-26.3,9.3-40.1,9.4"/>
	<path class="st0" d="M1363.5,524.9c-14.2-1.6-28.8-0.3-42.5,3.8"/>
	<path class="st0" d="M1329.4,534.4c-14.2-2.3-29.2,1.9-40.2,11.1"/>
	<path class="st0" d="M1313,544.2c-7.7-0.8-15.5-1.5-23.2-2.2"/>
	<path class="st0" d="M1283.9,544.8c1.6,5.4,7.4,8.8,13,8.9c5.6,0.1,11-2.7,15.2-6.4"/>
	<path class="st0" d="M1280.7,548.9c0.2,4.3,3,8.2,6.8,10.1c3.8,2,8.3,2.2,12.5,1.3s8-3,11.6-5.3"/>
	<path class="st0" d="M1255.8,543.1c9.7-0.3,19.3-0.6,29-0.9"/>
	<path class="st0" d="M1285.7,516.5c6.7,3.9,15,4.4,22.6,3.1c7.7-1.3,14.9-4.3,22.1-7.3"/>
	<path class="st0" d="M1262,506.3c4.6,4.4,9.4,8.6,14.3,12.5c2.4,1.9,5.3,3.9,8.4,3.4"/>
	<path class="st0" d="M1297.9,521.9c5.7,2.2,11.9,3.1,18,2.5"/>
	<path class="st0" d="M1338.2,514.6c-5.4,0-10.6,2.2-15.3,4.9c-4.7,2.6-9.2,5.8-14.2,7.8s-10.8,3-15.8,1.1"/>
	<path class="st0" d="M1277,526.7c1.4,3.1,4.5,5.2,7.9,6.1s6.8,0.5,10.2-0.1s6.7-1.6,10.1-2.1"/>
	<path class="st0" d="M1290.1,536.2c-13-0.5-25.6-8.4-30.2-18.7c1.7,5.7,3.3,11.4,6.3,16.5C1269.2,539.1,1273.7,543.6,1290.1,536.2z
		"/>
	<path class="st0" d="M1238.1,501.6c4.4,8.4,9,16.9,15.4,23.9s15.2,12.3,24.7,12.6"/>
	<path class="st0" d="M1232.4,502.1c4.6,15.9,14.5,30.2,27.7,40.1"/>
	<path class="st0" d="M1223.5,500.5c-2.2,7.9-0.4,16.8,4.8,23.2c7.4,9.1,20.3,12.4,27.9,21.4"/>
	<path class="st0" d="M1240.2,505.7c1.8,14.3,8.5,27.9,18.6,38.2"/>
	<path class="st0" d="M1231.3,502.6c1.1,7.3,2.4,14.6,5.4,21.3s7.9,12.8,14.6,15.9"/>
	<path class="st0" d="M1296.4,536.6c9.9-5.6,20.7-9.6,31.8-11.7"/>
	<path class="st0" d="M1303,532.2c12,1.6,24.4,0.4,35.9-3.3"/>
	<path class="st0" d="M1379.8,521.5c-17.6,1.8-34.8,7.9-49.5,17.7"/>
	<path class="st0" d="M1305.6,569.4c2.9,8.4,8.3,15.8,15.4,21.3"/>
	<path class="st0" d="M1342.9,508.5c12.4-6.1,24.7-12.3,37.1-18.4c9.1-4.5,18.3-9,28.2-10.9c12-2.2,24.4-0.3,35.8,3.9
		c11.4,4.2,21.9,10.6,31.9,17.5"/>
	<path class="st0" d="M1500.8,519.7c13.5,9.2,27.1,18.3,40.8,28.6c3-1.3,6.3-2.5,9.3-1.5c2.2,0.7,3.9,2.5,5,4.5
		c1.1,2,1.7,4.3,2.2,6.5"/>
	<path class="st0" d="M1337.4,592.9c3.3-0.7,6.9,1.2,8.3,4.3c1.4,3.1,0.4,7-2.2,9.1"/>
	<path class="st0" d="M1344.2,598c89.7-20.4,181.5-31.3,273.4-32.5"/>
	<path class="st0" d="M1337.6,608.1c85.5-21.3,173-34.8,261-40.3"/>
	<path class="st0" d="M1443.9,425.5c21.1,41.3,51.7,77.8,88.6,105.9"/>
	<path class="st0" d="M1500.2,518.9c9.3,3.8,18.6,7.5,27.9,11.2"/>
	<path class="st0" d="M1573.6,549.6c8.5,1.5,16.4,5,24.7,7.3c8.3,2.4,17.2,3.6,25.3,0.7"/>
	<path class="st0" d="M1593.4,580c-2.3-0.1-4.2-2.3-4.4-4.7c-0.1-2.3,1.2-4.6,3-6c1.8-1.5,4.1-2.2,6.4-2.8c9.6-2.3,19.6-1,29.2,1.2"
		/>
	<path class="st0" d="M1619.1,559.9c-0.6,1.6,0,3.5,1.1,4.8s2.7,2.2,4.2,3c7.4,4,15.2,7.2,23.1,9.8c3.4,1.1,6.9,2,10.4,1.8
		s7.1-1.8,9-4.8"/>
	<path class="st0" d="M1617.1,568.4c15.9,4.8,29.6,16.7,36.7,31.8c7.1,15.1,7.5,33.2,1,48.5c-2.7,6.4-6.7,12.5-12.6,16
		c-6.9,4.1-15.3,4.2-23.3,3.7c-13.3-0.9-26.6-3.3-38.8-8.4c-12.3-5.1-23.6-13.1-31.5-23.8"/>
	<path class="st0" d="M1552.2,619.5c-1.5,14.7,1.7,29.9,8.9,42.8"/>
	<path class="st0" d="M1558.6,628.2c0.3,18.2,7,36.1,18.6,50.1"/>
	<path class="st0" d="M1569.3,645.9c1,12.2,6.6,24,15.4,32.5"/>
	<path class="st0" d="M1578.1,654.8c4.5,5.8,9.5,11.4,14.8,16.5"/>
	<path class="st0" d="M1591.9,662.5c4,5.8,9,11,14.8,15"/>
	<path class="st0" d="M1620.3,667c7.6-2.3,14.1-8,17.4-15.2c3.3-7.2,3.5-15.8,0.4-23.1"/>
	<path class="st0" d="M1636.8,649.1c10.6-5.7,16.3-18.5,15.2-30.5c-1.1-12-8.1-22.9-17.5-30.4s-21-11.8-32.7-14.4"/>
	<path class="st0" d="M1625.9,585.6c6.3,8,9,18.7,7.4,28.7"/>
	<path class="st0" d="M1640.5,585.7c6.5,6.4,10.8,14.8,12.3,23.8c1.5,9,0.1,18.4-4,26.5"/>
	<path class="st0" d="M1592.8,599.1c12.3-0.4,24.5,6.3,30.8,16.8"/>
	<path class="st0" d="M1596.8,626.2c1.9-2.3,2.9-5.2,2.9-8.2c0-1.5-0.3-3-0.4-4.5c-0.1-1.5,0.1-3.1,0.9-4.3c0.8-1.2,2.5-2,3.9-1.6
		c1.2,0.4,1.9,1.6,2.2,2.8c0.3,1.2,0.1,2.5-0.1,3.7c-0.1-0.1-0.1-0.2-0.1-0.4"/>
	<path class="st0" d="M1188.8,604.6c18.4,10.9,40.6,15.4,61.7,12.4"/>
	<path class="st0" d="M1213.4,622c10.5,5.6,23.1,7.1,34.6,4.1"/>
	<path class="st0" d="M1208.6,588.3c-4,1.5-8.5,0.2-12.6-1.2c-7.4-2.7-14.5-6-21.3-9.9"/>
	<path class="st0" d="M1182.2,586c6.4,4.4,13.7,7.6,21.2,9.4"/>
	<path class="st0" d="M1255.4,548.2c-2.5-0.7-5.1-1.5-7.6-2.2c-5.1,10.2-11.6,19.7-19.1,28.2"/>
	<path class="st0" d="M1259.9,619.3c1.4,3.9,5.4,6.1,9,8c10.7,5.5,22.1,11,34,10.2c8.2-0.6,16-4.2,22.3-9.5
		c6.3-5.3,11.1-12.2,14.5-19.7"/>
	<path class="st0" d="M1341.4,617.2c-0.4,5.4,2.3,10.8,6.4,14.5c4,3.7,9.1,6,14.3,7.8c8,2.8,16.5,4.5,24.9,4.1
		c8.5-0.4,17-3,23.6-8.3"/>
	<path class="st0" d="M1304.5,556.5c13.6-10.2,28-19.4,43.1-27.3"/>
	<path class="st0" d="M1288.7,535.3c-10.4,4.1-22.5,4-32.8-0.3c-1.9-0.8-3.9-1.8-5.2-3.5c-2.2-3.1-1.4-7.3,2.1-12.8
		c-0.2,3.5-0.2,7.3,1.6,10.3c1.8,2.9,5.1,4.7,8.5,5.3c3.4,0.6,6.8,0.2,10.2-0.1"/>
	<path class="st0" d="M1069.6,796c-2.8,58-5.7,116.2,0.3,174c6,57.7,21.2,115.4,52,164.6"/>
	<path class="st0" d="M1061.3,1033.5c17.4,27.1,38.6,51.7,62.8,72.9"/>
	<path class="st0" d="M1141.2,1154.1c-45-95.5-70.2-200.3-73.7-305.8"/>
	<path class="st0" d="M1075.1,857.4c7.3,110.8,36.6,220.1,85.8,319.7"/>
	<path class="st0" d="M1129.7,1098.8c19.5,45.4,41.4,89.8,65.5,132.9"/>
	<path class="st0" d="M1064.6,1047.1c17,22.7,35.7,44.1,56,63.9"/>
	<path class="st0" d="M1056,1055.5c30.7,47.9,64.1,94,100.1,138"/>
	<path class="st0" d="M1064,1053.8c17.1,28.7,36.4,56,57.7,81.7"/>
	<path class="st0" d="M1078.4,1065c17.9,27.9,38.2,54.4,60.4,79.1"/>
	<path class="st0" d="M1108.1,1082.1c13.4,45.4,34.1,88.6,59.2,123.6c20.3,32.8,45.1,63,73.3,89.3"/>
	<path class="st0" d="M1140.7,1140.4c19.4,58.3,55.2,111.1,102.3,150.6"/>
	<path class="st0" d="M1147.6,1151.4c19.7,41.4,44.3,80.5,73.1,116.2"/>
	<path class="st0" d="M1188.7,1214.7c7.2,9.7,15,19,23.3,27.7"/>
	<path class="st0" d="M1194.7,1234.3c10.1,29.6,23.9,58,40.8,84.3"/>
	<path class="st0" d="M1138,1130.3c-20.6,83.8-13.5,174.2,19.7,253.9"/>
	<path class="st0" d="M1139.8,1153.2c-8.1,43.2-7.2,87.9,2.6,130.7"/>
	<path class="st0" d="M1139.7,1195.1c-2.1-11.7-0.9-23.6-0.8-35.4c0.2-11.8-0.8-24.1-6.4-34.5"/>
	<path class="st0" d="M1145.1,1193.1c-2.6-19.5-5.1-39-7.6-58.5"/>
	<path class="st0" d="M1081.1,1314.9c-2.4-5.3-6.6-9.4-10.6-13.6s-7.8-8.8-9.2-14.4c-1.3-5.6,0.7-12.4,6-14.8c8.2-3.7,18,5.1,26.5,2
		c3.2-1.1,5.9-3.8,9.2-3.8c3,0,5.6,2.4,6.8,5.2s1.3,5.8,1.4,8.9c1.1,31.8,3.5,63.6,8.2,95.1c0.9,5.7,1.9,11.6,4.9,16.5
		c3.1,4.9,8.8,8.6,14.5,7.6"/>
	<path class="st0" d="M1072.8,1322.3c-2.7-8.9-4.7-18.2-4.3-27.5s3.6-18.7,9.9-25.5c4.6-4.9,12.2-8.3,18-5c2.8,1.6,4.6,4.3,6.4,6.9
		c6.5,9.8,13,19.5,19.4,29.3"/>
	<path class="st0" d="M1070.7,1301.6c-0.4-7.4,0.6-15.2,4.5-21.6c3.9-6.3,11.2-11,18.6-10.2c9.5,0.9,16.1,9.7,20.8,18
		s9.2,17.7,17.8,21.7"/>
	<path class="st0" d="M1122.4,1288.6c-6.2,19.7-5.1,41.6,3,60.5c8.1,19,23.1,34.9,41.6,44.1"/>
	<path class="st0" d="M1115.2,1306.5c1.3-1.6,1.2-3.9,1.6-6s2.3-4.2,4.2-3.6c1.3,0.4,1.9,1.8,2.3,3.1c2.3,7.3,2.6,15.2,4,22.7
		c1.4,7.6,4.3,15.3,10.3,20.1"/>
	<path class="st0" d="M1132.4,1323c0-2.2-3.1-3.3-5-2.3c-1.9,1-2.9,3.2-3.7,5.3c-4.8,13.6-4.3,29,1.2,42.3
		c5.5,13.3,16.1,24.5,29.1,30.8"/>
	<path class="st0" d="M1114.3,1339.8c4,17.7,10.7,34.8,19.8,50.6c6.2,10.7,13.6,20.9,23.6,28.1s22.9,11.1,34.9,8.2
		c13.1-3.1,23.2-13.6,31.2-24.4"/>
	<path class="st0" d="M1125.1,1370.8c6.6,11.4,14.6,22.1,23.7,31.6c5.5,5.7,11.5,11.1,18.8,14.1c7.3,3,16.1,3.3,22.8-0.8"/>
	<path class="st0" d="M1148.2,1407c8.7,7.1,21.2,6.2,32.4,4.7c13.1-1.7,26.8-3.9,36.9-12.4c10.2-8.7,14.5-22.2,18.4-34.9"/>
	<path class="st0" d="M1161.1,1390.4c7.8,2.2,16.3-0.3,22.7-5.1c6.4-4.8,11-11.7,14.5-19"/>
	<path class="st0" d="M1181,1368.3c4.8,6.5,13.2,9.9,21.2,9.3s15.6-4.8,21.1-10.6s9.2-13.3,11.5-21"/>
	<path class="st0" d="M1183.9,1384.4c0.5,2.3,2.4,4.2,4.5,5c2.2,0.9,4.6,0.8,6.9,0.4c7.8-1.5,13.9-7.7,17.4-14.8
		c3.5-7.1,4.7-15,5.9-22.8"/>
	<path class="st0" d="M1215.9,1307.8c2.8,23.1,2,46.6-2.3,69.4c-1.3,6.8-2.9,13.6-6.3,19.6s-8.8,11.1-15.5,12.8
		c-8.7,2.2-18.1-2.1-24.4-8.4c-6.3-6.4-10.2-14.7-14.1-22.9"/>
	<path class="st0" d="M1150.6,1397c5.8,3.3,12.7,4.6,19.3,3.5c6.6-1.1,12.8-4.4,17.2-9.4"/>
	<path class="st0" d="M1183.5,1387.9c0.5,2.5,2.6,4.4,5,5.2c2.4,0.8,5,0.7,7.5,0.1c6.3-1.4,12-5.6,15.3-11.1"/>
	<path class="st0" d="M1200,1219.6c3.1,5,5.5,10.5,7.2,16.2"/>
	<path class="st0" d="M1198.4,1231.7c11.8,20.3,17.6,43.5,23.3,66.3c6.7,26.9,13.4,54.7,8.2,81.9"/>
	<path class="st0" d="M1216.9,1287.5c7.6,26.7,6.4,55.9-3.4,81.9"/>
	<path class="st0" d="M1220.2,1200.3c5.1,30.5,10.1,61,12.1,91.8s1,62.1-6.1,92.1"/>
	<path class="st0" d="M1219.8,1147.6c19,53,20.3,110.4,20.2,166.7c0,12.3-0.1,24.8-2.3,36.9c-2.1,12.2-6.4,24.2-14,33.9"/>
	<path class="st0" d="M1229.1,1142.7c-4.1,49.2,4.4,98.4,8,147.7c2.5,33.6,2.5,68.1-8.1,100"/>
	<path class="st0" d="M1217.6,1340.5c0,32.9,0,66.1-5.1,98.6s-15.7,64.8-35.1,91.4"/>
	<path class="st0" d="M1192.3,1449.9c26.6,50.6,64.5,95.2,110.1,129.6c11.7,8.8,24.3,17.2,38.7,20.1"/>
	<path class="st0" d="M1193.2,1432.1c21.7,47.7,56.1,89.6,98.7,120.2"/>
	<path class="st0" d="M1198.7,1452c16.4,34.2,40.2,64.9,69.2,89.4"/>
	<path class="st0" d="M1199.7,1470.5c23.5,38.7,54.1,73.1,89.9,100.9"/>
	<path class="st0" d="M1088.1,1542.4c74.4,18.2,150.9,27.6,227.5,28.2"/>
	<path class="st0" d="M1253.2,1558c-51.3-4.8-102.7-9.6-154-14.4"/>
	<path class="st0" d="M1187.9,1549.1c-31.4-9.7-63.7-16.9-96.2-21.4"/>
	<path class="st0" d="M1093.4,1533.6c16.8-18.1,27.5-41.1,34.3-64.8c6.8-23.7,9.9-48.3,13-72.7"/>
	<path class="st0" d="M1111.5,1533c16.1-43.1,28.3-87.6,36.6-132.9"/>
	<path class="st0" d="M1176.7,1547.8c28.9-61.6,47.6-128,55-195.6"/>
	<path class="st0" d="M1198,1545.8c17.5,4.2,37-0.8,50.4-12.8c1.9-1.7,3.7-3.5,4.5-5.9s0.6-5.3-1.2-6.9c-1.6-1.5-3.9-1.7-6.1-1.8
		c-5.7-0.2-11.4,0.3-17,1.5c-2.8,0.6-6,1.8-6.8,4.5c-0.8,2.6,1.3,5.4,3.9,6.4c2.6,1,5.4,0.7,8.2,0.3c5.5-0.8,11.2-1.8,16-4.7
		s8.4-8.3,7.8-13.9c-0.5-4.4-3.6-8.2-7.3-10.6s-8-3.7-12.3-4.9c-11.8-3.4-23.7-6.8-35.5-10.3c17.2-3.9,34.3-8.2,51.3-12.9
		c4.6-1.3,9.5-2.8,12.3-6.6c3.5-4.8,2.5-11.6,0-17c-7.1-15.3-25.7-24.4-42.2-20.6c-1.5,0.3-3.3,1.1-3.6,2.6c-0.4,2,1.9,3.3,3.9,3.9
		c7.4,2.1,15.3,2.5,22.9,1c6.8-1.3,14.4-5.3,15.3-12.3c0.5-3.7-1.2-7.5-3.5-10.4c-2.3-3-5.3-5.3-8.1-7.9
		c-13.1-12.3-20.7-30.4-20.4-48.4"/>
	<path class="st0" d="M1200,1551.1c33.4-58.1,51.7-124.8,52.6-191.8"/>
	<path class="st0" d="M1241.9,1557.9c9-71.1,13.6-142.7,13.7-214.3"/>
	<path class="st0" d="M1248.1,1554.9c5.1-73.9,10.1-147.8,15.2-221.7"/>
	<path class="st0" d="M1205.5,1534.8c27.9-64.3,47.4-132.2,57.7-201.5"/>
	<path class="st0" d="M1275.6,1547.4c-38.2-34.9-69.2-77.6-90.7-124.6"/>
	<path class="st0" d="M1202,1551.1c27.9-39.3,45-86.1,49.2-134.1"/>
	<path class="st0" d="M1261,1558.8c13.1-48.7,16.7-100,10.6-150.1"/>
	<path class="st0" d="M1271.1,1554.2c7.6-55.6,9.3-112.1,5-168"/>
	<path class="st0" d="M1291.2,1554.7c-6.6-74.5-11-149.1-13.3-223.8"/>
	<path class="st0" d="M1334.6,1031.9c-7.7,103.8,4.7,208,17,311.4c8.3,69.9,17.3,141.7,50.6,203.7"/>
	<path class="st0" d="M1330,1039.3c-19.2,143,10.4,287.6,39.9,428.9"/>
	<path class="st0" d="M1320.3,1064.2c-4.4,81.8-8.8,163.8-5.2,245.7c3.6,81.9,15.2,163.9,42,241.3"/>
	<path class="st0" d="M1316.2,1140c-0.9,122,16.2,244.1,50.7,361.2"/>
	<path class="st0" d="M1321.7,1533.7c-42.9-164.2-50.6-337.6-29.5-504.5C1277.6,1197.4,1263.3,1369.1,1321.7,1533.7z"/>
	<path class="st0" d="M1283.7,1047.6c-20.2,91.7-33,184.9-38.3,278.6"/>
	<path class="st0" d="M1296.3,1229.9c0.9-10.4-6.3-21-16.3-24s-21.8,1.8-26.8,11c-6.2,11.4-1.9,25.4,3.2,37.3
		c2.1,4.9,4.6,10,8.9,13.2s11.2,3.5,14.6-0.6c4.4-5.3,0.7-13.7,3.6-19.9c2.9-6.4,11.8-8,18.3-5.2c6.4,2.8,10.9,8.7,15.1,14.3
		c1.3,1.8,2.7,3.9,2,6c-1,2.9-5,2.9-8.1,2.5c-12.1-1.6-24.9-1.8-35.8,3.7s-18.8,18.2-15.4,29.9c3.2,11,15.4,17.4,26.8,17.3
		c11.4-0.2,22.1-5.6,31.8-11.7c3.9-2.5,7.9-5.3,10.4-9.2s3.2-9.4,0.4-13.2c-3.1-4.3-9.2-5.1-14.4-4.2c-17.1,2.8-29.9,19-32.1,36.2
		s4.7,34.5,15.2,48.2c3.2,4.1,7.3,8.2,12.5,8.2c6.3-0.1,10.5-6.3,12.8-12.2c3.8-9.7,5-20.4,3.7-30.8c-0.4-3.3-1.6-7.1-4.7-8.2
		c-4.4-1.6-8.3,3.6-9.2,8.2c-2.2,11.7,3.1,26.1-5.5,34.3c-6.6,6.3-18.2,5.2-23.9,12.3c-4.3,5.4-3.3,13.1-2.1,19.8
		c1.4,7.5,2.8,15.2,6.4,22s9.9,12.5,17.5,13.6c10.3,1.4,19.9-6.2,25-15.2c9.6-17.1,6.3-40.3-7.7-54.1"/>
	<path class="st0" d="M1331.8,1386.6c6.4,17.1,15.8,33.1,27.6,47c-20.4-1.2-40.8,3-60.8,7.1c-5.9,1.2-12.5,2.8-16,7.8
		c-2.8,4-3,9.4-1.9,14.3c2.4,11,10.6,20.4,20.8,25.2c10.2,4.8,22.2,5.2,33.1,2c5.2-1.6,10.5-4.3,12.9-9.1s0.2-12.1-5.2-13.1
		c-4.3-0.8-8.4,2.8-9.8,7c-1.4,4.2-0.7,8.7,0,13c1.7,10.5,3.4,21,5.1,31.6"/>
	<path class="st0" d="M1324,1155.7c13.6,96.7,27.1,193.4,40.7,290.2"/>
	<path class="st0" d="M1329.1,1247.5c1.4,78.6,16,156.9,42.8,230.8"/>
	<path class="st0" d="M1271.9,1159.9c-0.3,82.7-0.5,165.4-0.8,248.1"/>
	<path class="st0" d="M1263.1,1239.4c7.7,56.1,3.5,113.7-12.2,168.1"/>
	<path class="st0" d="M1263.2,1228.1c-2.8,49.3-5.6,98.5-8.5,147.8"/>
	<path class="st0" d="M1248.1,1255.4c-2.4-4.6-2-10.2-1.5-15.3c6-60.9,12.2-122.5,32.9-180"/>
	<path class="st0" d="M1269.6,1193.9c1.2-44.7,6.2-89.3,14.8-133.2"/>
	<path class="st0" d="M1313.8,1163.4c-3.8-6.8-12.8-9.4-20.5-7.9s-14.3,6.2-20.5,11c-2.2,1.7-4.7,3.9-4.6,6.8c0.1,2.4,2,4.4,4.3,5.3
		c2.2,0.9,4.7,0.8,7.2,0.8"/>
	<path class="st0" d="M1310,1143.8c1-9.4-5.2-19.1-14.1-22.3c-8.9-3.2-19.8,0.5-25,8.4"/>
	<path class="st0" d="M1285.4,1093.1c0.9,7.4,2,15.1,6.3,21.1s13,9.7,19.4,6c4.5-2.6,6.7-7.9,7.7-13c2-9.3,1.4-19.2-1.8-28.2
		c-2.2-6.4-5.8-12.6-6.3-19.3s3.5-14.7,10.3-15.2"/>
	<path class="st0" d="M1414.2,963.4c-21.7,24.8-49.6,43-75.8,62.9c-26.2,19.9-51.7,42.8-65.2,72.8"/>
	<path class="st0" d="M1269.4,874.5c-34.2,101.6-53,208.4-55.6,315.6"/>
	<path class="st0" d="M1230.4,1210.8c-14.3-106.1,46.9-211,36.2-317.5"/>
	<path class="st0" d="M1226.9,1099.2c11.6-71.2,56.2-134.3,64-206"/>
	<path class="st0" d="M1228.6,1141.4c-1-50.8,8.8-101.8,28.8-148.5"/>
	<path class="st0" d="M1274,880.7c3.4,60.8-2.8,122.2-18.6,181"/>
	<path class="st0" d="M1313.4,960.2c-35.8,29.3-59.8,72.6-65.7,118.5"/>
	<path class="st0" d="M1291.4,949.2c-12.4,37.4-24.9,74.8-37.3,112.2"/>
	<path class="st0" d="M1322.2,857.8c-6,0.5-11.2,4.7-14.4,9.8c-3.2,5.1-4.7,11.1-6.2,16.9c-13.6,53.5-27.2,107-40.8,160.5"/>
	<path class="st0" d="M1304.9,842.8c-11.4,72.9-22.8,145.9-34.2,218.8"/>
	<path class="st0" d="M1273.9,864.8c-2.4,56.2-6.4,112.2-12.2,168.1"/>
	<path class="st0" d="M1333.5,831.5c3,47.2,1.1,94.8-5.7,141.6"/>
	<path class="st0" d="M1314.7,1051.6c19.3-7.8,34.9-22.4,50.6-36.1s32.6-27.2,52.8-32.2"/>
	<path class="st0" d="M1300,1053c19.3-1.8,37.4-13.9,46.4-31"/>
	<path class="st0" d="M1320.1,971.8c-6.2,18-17.4,33.7-26.5,50.3c-9.1,16.7-16.4,35.5-13.7,54.3"/>
	<path class="st0" d="M1300.9,979.2c-9.1,29.2-15.6,59.2-19.4,89.5"/>
	<path class="st0" d="M1281.4,971.2c1.9,2.3,4.8,3.5,7.8,3.8s5.9-0.3,8.8-0.9c7.3-1.6,14.4-3.9,21.3-6.8c2.6-1.1,5.3-2.4,7.2-4.5
		s2.9-5.3,1.6-7.9c-1.2-2.6-5.1-3.7-7.1-1.6"/>
	<path class="st0" d="M1308.4,977.5c43.7-20.3,84.6-46.5,121.3-77.7"/>
	<path class="st0" d="M1369.3,980.6c-21-1.9-42.3-0.8-62.7,5.4c13.5,7.8,28.6,13,44,15.3"/>
	<path class="st0" d="M1375,986.8c-19.5-0.4-39.1-0.8-55.7-3.1c50.6-16.5,107.3-8.1,156.7-28"/>
	<path class="st0" d="M1399.2,971.7c-0.8-2.3-1.7-4.7-2.6-7c38.3-4.3,76.2-12.6,112.8-24.9"/>
	<path class="st0" d="M1347.6,961.5c4.3-1.5,8.6-3.1,13-4.7c1.4-0.5,3.3-0.8,4.1,0.4c0.7,1.2-0.3,2.7-1.2,3.7
		c-15.6,17.3-29.3,36.3-40.9,56.5"/>
	<path class="st0" d="M1314.4,984.7c-16,19.1-28.8,40.8-37.8,63.9c-4.9,12.6-8.4,27.6-1.3,39.1"/>
	<path class="st0" d="M1259.2,1345c-0.8,5.6,1.8,11.6,6.4,14.7c4.7,3.2,11.2,3.3,16.1,0.5c1.2-0.7,2.3-1.7,2.5-3
		c0.2-1.6-1.3-3.1-2.9-3.4s-3.3,0.3-4.7,1c-6.2,3.3-10.4,10.4-9.5,17.4s7,13.1,14.1,13.3c7,0.2,13.7-6.1,13.5-13.1
		c-0.1-2.5-1.1-5.1-3.2-6.4c-3.7-2.3-9.1,1-9.6,5.4s2.8,8.5,6.8,10.1c4,1.7,8.6,1.3,12.9,0.5c2.1-0.4,4.7-1.7,4.3-3.8
		c-0.4-1.8-3.2-2.2-4.5-1c-1.4,1.3-1.6,3.4-1.4,5.2c0.8,7.2,7.2,13.4,14.4,14c3.3,0.3,6.8-0.6,9.3-2.9c2.4-2.3,3.6-6,2.3-9.1
		c-1.3-3.1-5.2-5-8.2-3.6c-3.1,1.3-4.1,6-1.7,8.3c2.2,2,6,1.4,8.1-0.7s3.1-5.1,3.6-8.1c-3.4,1.6-3.3,7.2-0.1,9.2s7.7,0.5,9.8-2.6
		c1.6-2.3,1.9-5.5,0.6-7.9s-4.3-4-7-3.2s-4.5,3.9-3.5,6.6"/>
	<path class="st0" d="M1352.6,1377.3c-3.2-1.3-7.1,0.5-9,3.4s-2.1,6.6-1.7,10.1c0.3,2.5,1.2,5.3,3.5,6.5c1.4,0.8,3,0.8,4.6,0.7
		c4.1-0.3,8.2-1.6,11.1-4.4s4.2-7.5,2.4-11.2c-1.7-3.4-5.7-5.2-9.5-5.3c-3.3-0.1-7,1.1-8.3,4.1c-1.2,2.9,0.7,6.6,3.8,7.3
		c3.1,0.7,6.4-1.8,6.6-5C1357.1,1385.4,1363.1,1381.6,1352.6,1377.3z"/>
	<path class="st0" d="M1378.4,1364.3c-7.3,1.4-13.7,7-16,14.1c-0.5,1.6-0.8,3.3-0.6,5c0.3,1.7,1.3,3.3,2.9,3.9
		c1.5,0.6,3.2,0.3,4.7-0.2c5.4-1.7,10.2-5.3,13.2-10.1c1.1-1.8,2-4,1.3-6c-0.8-2-3.2-3.1-5.3-3c-2.2,0.1-4.2,1.2-6,2.4
		c-1,0.6-1.9,1.3-2.5,2.3c-0.6,1-0.6,2.4,0.2,3.2c1.2,1.2,3.2,0.4,4.5-0.6c3.2-2.4,5-6.2,6.4-9.9s2.4-7.6,4.3-11.2s4.9-6.7,8.8-7.6
		c3.9-0.9,8.6,1,9.7,4.9c0.8,2.7-0.4,5.7-2.3,7.7c-1.9,2-4.5,3.2-7.2,4.2c-2.1,0.8-4.3,1.4-6.6,1c-2.2-0.3-4.4-1.9-4.8-4.1
		c-0.4-2,0.8-4.1,2.4-5.4s3.7-1.9,5.7-2.5c1.3-0.4,2.6-0.8,3.9-0.8s2.8,0.6,3.5,1.7s0.6,2.9-0.5,3.6c-1.1,0.7-3-0.2-2.9-1.5"/>
	<path class="st0" d="M1408.6,1328.3c0.4,1.4,1.5,2.6,2.8,3s3,0,3.8-1.2c1-1.5,0.3-3.7-1.2-4.7s-3.5-1.1-5.2-0.5
		c-3.7,1.2-6.5,5.1-6.1,9s4,7.2,7.9,7.2c2.7-0.1,5.3-1.6,7.1-3.7c1.8-2.1,2.9-4.6,3.9-7.2c1.1-2.9,2-5.9,1.7-9s-2.1-6.2-5-7.2
		c-3-1-6.4,0.4-8.4,2.9c-2,2.5-2.7,5.7-2.9,8.9c-0.1,2.1,0.2,4.6,2.1,5.4c2,0.9,4.3-0.7,5.6-2.6c2.4-3.8,2.6-8.5,3.2-13
		c0.6-4.4,2.2-9.3,6.2-11.4"/>
	<path class="st0" d="M1426.1,1311.9c-1.7-0.6-3.3-1.2-4.8-2.2s-2.6-2.6-2.7-4.4c-0.1-1.4,0.5-2.9,1.4-4c2.6-3.2,7.4-4.1,11.2-2.5
		c1.1,0.4,2.2,1.1,2.9,2.1c0.7,1,1.1,2.3,0.7,3.4c-0.4,1.1-1.4,1.9-2.6,2.3s-2.4,0.3-3.6,0.2c-2.8-0.3-5.9-1.5-6.7-4.2
		c-0.8-2.7,1.2-5.4,3.5-7.1c2.5-1.8,6-2.9,8.7-1.3c2.2,1.2,3.2,4,2.8,6.4s-1.8,4.6-3.7,6.3
		C1431.6,1308.4,1429.4,1309.5,1426.1,1311.9z"/>
	<path class="st0" d="M1430.9,1295.2c-1.2-1.3-1.4-3.4-0.7-5s2-3,3.3-4.1c1.7-1.5,3.7-2.8,5.9-3.4c2.2-0.6,4.7-0.6,6.6,0.6
		c2,1.2,3.3,3.5,2.9,5.7c-0.2,1.5-1.2,2.8-2.4,3.7c-1.2,0.9-2.6,1.5-4,1.9c-1.3,0.4-2.8,0.7-3.9-0.1c-1.1-0.8-1.3-2.4-0.8-3.7
		c0.5-1.3,1.5-2.3,2.4-3.3"/>
	<path class="st0" d="M1443,1283.6c-2.6-1.7-3.2-5.5-1.8-8.3s4.3-4.5,7.3-5.3c1.8-0.4,3.7-0.6,5.3,0.1c1.7,0.7,3,2.4,2.8,4.2
		s-2.2,3.3-3.9,2.6c-0.6-3.2,1.9-6.5,5.1-7.2c3.2-0.7,6.6,1.1,8.2,3.9c1.6,2.8,1.6,6.4,0.1,9.4c-1.4,2.9-4,5.2-6.9,6.6
		c-2.1,1-4.6,1.6-6.9,1c-2.3-0.6-4.3-2.7-4.2-5.1c0.1-2.7,2.5-4.7,4.7-6.1c2.6-1.7,5.4-3.3,8.4-3.7c3.1-0.4,6.5,0.7,8.1,3.4
		s0.2,6.8-2.9,7.4c-0.3-2.6,1.5-5.3,4-6.1c2.5-0.8,5.5,0.5,6.8,2.8c1.2,2.3,0.6,5.5-1.5,7.2c-1.1-2.1,0.6-4.9,2.9-5.4
		c2.3-0.4,4.7,1.2,5.5,3.5s0.1,4.8-1.4,6.7"/>
	<path class="st0" d="M1454.3,1290.3c18.8,17.8,42.3,30.1,66.3,39.8s49,17.1,73.1,26.5c35.4,13.7,68.9,31.7,102.3,49.5"/>
	<path class="st0" d="M1457.9,1277.6c33.5,26.5,73.2,43.7,111.8,61.9c38.7,18.2,77.5,38.1,107.4,68.5"/>
	<path class="st0" d="M1438.1,1387.7c-0.5-9.5,1.8-19.2,5.8-25.6c-4.8,3.7-9.6,7.3-14.3,10.9c-1.2,0.9-2.4,1.8-3.1,3.2
		s-0.7,3.1,0.4,4.1c1.2,1.1,3.2,0.8,4.8,0.4c2.1-0.5,4.2-1,6.3-1.5c0.9-0.2,2.1-0.4,2.8,0.1c1.2,0.9,0.7,2.9,0,4.2
		c-3,6.2-6.7,12.6-6,19.5c0.4,4.5,2.7,8.6,4.4,12.8s2.9,9,1.3,13.2"/>
	<path class="st0" d="M1439.5,1378.2c-4.4,14.9,0.6,32.2,12.3,42.4"/>
	<path class="st0" d="M1435,1418.8c2.2,4,4.7,7.9,7.8,11.2s7.1,5.9,11.6,6.9c2.6,0.6,5.8,0.8,7.2,3.1"/>
	<path class="st0" d="M1449.3,1423.9c2.8,2.4,4.2,5.9,5.9,9.2c1.7,3.3,3.8,6.6,7.2,8c2.3,1,4.9,0.9,7.4,0.8c4-0.2,8-0.3,12-0.5
		c1.6-0.1,3.2-0.1,4.7-0.6c1.5-0.5,2.9-1.5,3.5-3"/>
	<path class="st0" d="M1489.4,1448.3c7-4.4,14.1-8.8,21.1-13.3"/>
	<path class="st0" d="M1436.1,1389.8c1.6,10.2,7,19.7,15,26.2"/>
	<path class="st0" d="M1298,1550.5c12.9,2.6,26.3,2.4,44.3-0.2c219,2.1,438-1.3,656.8-10.2"/>
	<path class="st0" d="M1295.4,1567.6c196.4-5,392.8-12.4,589-22.4"/>
	<path class="st0" d="M1521.7,1262.7c38.4-18.1,74-42.1,105.2-70.9"/>
	<path class="st0" d="M1634.1,1198.2c-30.5,30.9-69.6,53.3-111.6,64.1"/>
	<path class="st0" d="M1614.5,1227.4c22.5-12.5,41.8-30.6,55.8-52.2"/>
	<path class="st0" d="M1635.8,1196.8c-5.6,10.8-12.7,20.7-21.2,29.4"/>
	<path class="st0" d="M1641.6,1190.4c53.5,3.4,106.6,14.5,157,32.9"/>
	<path class="st0" d="M1716.9,1207.1c15.2,0.9,30.4,1.8,45.6,2.7"/>
	<path class="st0" d="M1773.1,1212.4c-15.6,12.4-33.1,22.3-51.8,29.2c1.9-7.1,10.1-10.2,17.2-11.8c20.7-4.8,42.2-6.7,63.4-5.4"/>
	<path class="st0" d="M1825,1241.7c-4.6-5.8-10.4-10.6-15.6-14.1c58,23.8,113.9,52.6,167,85.9"/>
	<path class="st0" d="M1948.3,1322.7c-6.5-8.9-13-17.9-19.5-26.8c7.3,19.9,19.8,37.5,30.9,55.6c11.2,18.1,21.4,37.5,23.5,58.7"/>
	<path class="st0" d="M1982,1403.9c-0.9-0.4-1.8-0.8-2.7-1.3c-1.8,5.6-0.5,11.9,2,17.2s6.2,10.1,9.3,15.1s5.8,10.6,5.9,16.5
		c0.1,5.9-2.8,12.2-8.2,14.6"/>
	<path class="st0" d="M1955.5,1332.9c18.8,41.9,32.9,85.8,47,129.5c7.7,23.9,15.5,48.1,16.3,73.2"/>
	<path class="st0" d="M1965.5,1322c0,16.8,2.9,33.5,8.6,49.2"/>
	<path class="st0" d="M2002.2,1323.5c13.7-12.8,28-24.9,41.1-38.2s25.1-28,33.3-44.8"/>
	<path class="st0" d="M1990,1300.2c29.4-15.7,57.4-33.8,83.8-54.2"/>
	<path class="st0" d="M2033,1267.7c-17.5,24.8-38.5,47.1-62.2,66.1"/>
	<path class="st0" d="M1973.5,1329.2c-8.7-6.5-16.6-14.1-23.6-22.4c22.5,5.5,45.2,9.8,68.1,13.1"/>
	<path class="st0" d="M2043.4,1235.5c-10.3,20.4-22.8,39.7-37.4,57.3"/>
	<path class="st0" d="M2018.9,1277c4.9-4,9.8-7.9,14.7-11.9"/>
	<path class="st0" d="M2038.5,1283.5c38-60.6,46.8-138.6,23.2-206.1"/>
	<path class="st0" d="M2018.9,1063.4c30.8,48.4,43.7,107.9,35.9,164.7"/>
	<path class="st0" d="M2062.8,1264.7c25.9-35.1,36-81.3,27.2-123.9"/>
	<path class="st0" d="M2097.7,1160c-15.2,110.9-30.5,221.8-44.6,329c-13.4,103.7-39.4,205.7-77.2,303.2"/>
	<path class="st0" d="M2002.5,1452.1c27.3-43.5,59.8-83.7,96.6-119.4"/>
	<path class="st0" d="M2002.5,1426.9c12.9-27.3,31.7-51.7,54.7-71.2"/>
	<path class="st0" d="M1952.8,1605.7c23.6-30.1,51.5-56.9,82.6-79.2"/>
	<path class="st0" d="M2019.6,1530.4c0.7,3.9,1.3,7.9,1,11.8c-0.3,3.9-1.7,8-4.6,10.7c-3.9,3.7-9.7,4.4-15.1,4.4
		c-5.4,0-10.9-0.6-16,1.3"/>
	<path class="st0" d="M1948.8,1622.2c19.6-26.3,41.6-50.8,65.6-73"/>
	<path class="st0" d="M2029.7,1550c-40.5,35.1-77.9,73.8-111.8,115.3"/>
	<path class="st0" d="M1944.9,1647.6c30.2-32.1,60.4-64.2,90.6-96.3"/>
	<path class="st0" d="M1921.1,1691.5c29.4-35.4,62.2-67.9,97.8-97.1"/>
	<path class="st0" d="M2011.3,1600.9c-25.9,29.4-48.5,61.7-62.5,90.5c25.3-31.9,54.9-60.5,87.6-84.8"/>
	<path class="st0" d="M1951.3,1715.9c28.9-40.5,65-75.7,106.2-103.6"/>
	<path class="st0" d="M1981.3,1689c11.9-16.6,26.7-31.1,43.7-42.5"/>
	<path class="st0" d="M2020.2,1707.5c-29.8-2.8-60-0.9-89.2,5.6"/>
	<path class="st0" d="M1973.6,1717.3c-13.6-0.3-27.3-0.6-40.9-0.8"/>
	<path class="st0" d="M1938.4,1562.8c-10.2,57.9-20.5,115.9-30.8,173.8"/>
	<path class="st0" d="M1883.2,1639.4c5.2,32.5,12.7,64.6,22.4,96"/>
	<path class="st0" d="M1892.1,1544.7c4.1,3.1,8.3,6.2,11.2,10.4c2.9,4.2,4.4,9.8,2.5,14.5c-2,5.2-7.7,8.4-13.2,9.1
		c-5.6,0.7-11.2-0.6-16.6-1.9"/>
	<path class="st0" d="M1871.8,1546.4c8.8,3.5,16.5,9.9,21.7,17.9"/>
	<path class="st0" d="M1887.1,1550.1c10.2,3.4,19.8,8.6,28.2,15.3"/>
	<path class="st0" d="M1876.8,1569.5c2.4,6.4,1.4,13.7-1.7,19.8s-7.9,11.1-13.2,15.4"/>
	<path class="st0" d="M1872.8,1585.1c0.5,16.3-2.9,32.7-9.8,47.4"/>
	<path class="st0" d="M1858,1588.2c-5,29.2-2.8,59.7,6.2,87.9"/>
	<path class="st0" d="M1893.9,1569.2c-2.4,28.6-8.3,57-17.4,84.2"/>
	<path class="st0" d="M1894,1584.9c-4.6,0.1-8.3,4-9.8,8.3c-1.4,4.3-1,9-0.5,13.6s1.2,9.2,0.1,13.6"/>
	<path class="st0" d="M1975.1,1792.6c44.6-7.3,90.7-5.6,134.6,5.1"/>
	<path class="st0" d="M2084.1,1769.4c-5.4,13.5-7.1,28.4-5,42.8"/>
	<path class="st0" d="M2070.9,1783.5c12.1,0.1,24.1,5.2,32.4,14"/>
	<path class="st0" d="M2081.7,1816.2c52.1-117.2,58.3-248.8,63.7-376.9c4-95.7,8.1-191.3,12.1-287"/>
	<path class="st0" d="M2124.9,1157.8c3.5,189-3.3,378.2-20.3,566.5"/>
	<path class="st0" d="M2086.9,1322.1c15.1,58.2,16.5,119,21,179c4.6,60,12.8,121.2,39.8,174.3c-1.9,3.2-5.1,5.2-8.2,7.3
		s-6.2,4.4-7.5,7.9c-1.3,3.5,0.3,8.2,3.9,8.9"/>
	<path class="st0" d="M2131.3,1725.9c26.9-194.3,40.7-390.4,40.2-582.2c3.8-54.7-2-110.1-17-162.9"/>
	<path class="st0" d="M2154.7,1026.8c2.2-13.2,2.4-26.8,0.5-40.1"/>
	<path class="st0" d="M2122.6,911.6c-2.8,0.5-5.6,1-8.4,1.5c22.2,31.6,36.3,68.8,40.6,107.1"/>
	<path class="st0" d="M2111.8,973.3c0.7-5.3,1.4-10.7,2.1-16c29.9,33,54.3,70.8,72.1,111.5"/>
	<path class="st0" d="M2186.1,968.6c-1,35.5-2,71-3,106.5"/>
	<path class="st0" d="M2175.1,931.4c19.7,74.7,27.7,152.5,23.7,229.7"/>
	<path class="st0" d="M2200.8,1147.2c-14.8-5.9-26.2-18.4-33.9-32.4c-7.6-14-11.9-29.6-16-45"/>
	<path class="st0" d="M2146.5,1062.5c24.6,23.1,43.1,52.7,53,85"/>
	<path class="st0" d="M2149.1,1036.1c13.8,68.2,8.8,138.6,3.6,207.9"/>
	<path class="st0" d="M2159.7,1139.7c-2.1,66.5-4.2,133-6.4,199.5"/>
	<path class="st0" d="M2108.9,1031.2c13.4,29.5,15.3,62.8,14.5,95.2s-4.3,64.8-0.8,97"/>
	<path class="st0" d="M2124.8,1064.9c5.9,27.8,1,57.2-9.9,83.4s-27.5,49.7-45.5,71.8"/>
	<path class="st0" d="M2182.9,1044.3c-82.1,7.3-165.4,0.7-245.3-19.4"/>
	<path class="st0" d="M2047.8,1034.4c-72.8,0.3-145.7-15.5-211.8-46.1"/>
	<path class="st0" d="M2063.7,1097.2c-73.6-20.3-132.6-74.9-202.4-105.6"/>
	<path class="st0" d="M1825,963.2c26.7,26.2,56.7,49,89.1,67.7"/>
	<path class="st0" d="M1853.2,963.5c26.7,25.3,55.1,48.8,84.9,70.3"/>
	<path class="st0" d="M1971,1310c13.6,8,30,11.1,45.6,8.6"/>
	<path class="st0" d="M1834.8,986.5c51.2-6.6,104.4,3,150,27.3c45.6,24.2,83.4,62.9,106.6,109"/>
	<path class="st0" d="M2139,1156.1c-25.9-48.5-64.6-90.1-111.2-119.3c-46.6-29.2-100.9-45.9-155.9-48"/>
	<path class="st0" d="M2005.6,1040.6c-28.6-23.3-59-44.3-90.8-62.8"/>
	<path class="st0" d="M1881.8,961.4c29.2,22,57.7,45,85.2,69.1"/>
	<path class="st0" d="M1974.6,1046.7c-0.5-1.7-1-3.5-1.5-5.2c14.4,0.8,27.3,8.7,39,17.1c38.6,27.9,70.5,64.9,92.3,107.3"/>
	<path class="st0" d="M2009.1,1057c3.2-6,10.5-9,17.2-8.2s12.7,4.9,17,10.1s7.1,11.5,9.4,17.9c12.5,34.2,13.3,72.7,2.1,107.4"/>
	<path class="st0" d="M2016.4,1051.5c1.3,4.7,6.6,7.5,11.4,7.4c4.9-0.1,9.5-2.5,13.7-5"/>
	<path class="st0" d="M2036.5,1023.9c21.6,31.1,38.3,65.6,49.2,101.9"/>
	<path class="st0" d="M2075.3,1038.1c10.3,21.7,14.7,46.1,12.6,70"/>
	<path class="st0" d="M2052.7,1034.8c12.3,14.5,28.2,26,45.9,33"/>
	<path class="st0" d="M2080.7,1049.8c15,11.8,34.5,17.9,53.6,16.6"/>
	<path class="st0" d="M2065.7,1077.7c31.8,25.5,56.6,59.7,71.1,97.9c3.2,8.4,5.6,18.8,1.1,25.1c-4.5-2.6-8.3-6.3-10.9-10.7"/>
	<path class="st0" d="M2056.8,1073.1c-2.7-0.5-5.4-1.1-8.1-1.6c-2.2,10.1,1.5,20.7,7.5,29.1s14.2,14.9,22.3,21.2
		c4.7,3.7,9.5,7.4,15,9.8s11.9,3.3,17.5,1.2s10.1-7.7,9.8-13.7"/>
	<path class="st0" d="M2057.8,1094.5c18.2,22.2,31.4,48.4,38.5,76.2"/>
	<path class="st0" d="M2101.2,1113.5c-0.1,43-0.2,86.3-8.4,128.4c-5.3,27.1-13.9,53.9-13.9,81.5"/>
	<path class="st0" d="M2054,1069.8c3.9-2.1,9-0.4,11.9,3s4.1,7.9,4.7,12.2c3.4,22.1-2.9,44.4-2.4,66.8"/>
	<path class="st0" d="M2072.1,1087.6c12.2,12.9,24.5,25.8,36,39.3c7.7,9.1,15.3,18.8,18.3,30.2"/>
	<path class="st0" d="M2073.3,1118.8c12.4,16.8,19.6,37.3,20.6,58.1"/>
	<path class="st0" d="M2041.9,994.8c-6.8,4.4-14.9,6.5-23,6.1c-3-0.2-6.1-0.7-8.6-2.3c-2.5-1.7-4.3-4.6-3.9-7.6
		c0.3-2.6,2.2-4.7,4.5-5.9s4.9-1.5,7.5-1.6c19.3-0.5,37,13.2,56.2,11.8"/>
	<path class="st0" d="M2009.2,959.7c-159.5-11.4-321.3,5-478.5-24.4"/>
	<path class="st0" d="M2141.7,715.2c-159.9,79.5-311.1,176.7-449.8,289.3"/>
	<path class="st0" d="M1688.3,1005.4c83.8-87.7,179.8-162.5,278.8-238.9c-32.4,17.5-63.3,37.7-92.3,60.4"/>
	<path class="st0" d="M1938.6,753.3c-71,58.1-138.3,120.6-201.4,187.1"/>
	<path class="st0" d="M2034.8,740.4c-179.8,45.5-356.5,103.4-528.5,173c-36,14.6-72.9,30.4-100.1,58.1"/>
	<path class="st0" d="M1418,955.2c102.4-39.6,204.9-79.2,307.4-118.9c27.3-10.5,54.8-21.2,83.5-26.5c28.8-5.3,59.2-5.1,86.4,5.6"/>
	<path class="st0" d="M1885.6,802.2c18,13.1,41.8,18,63.5,13.1"/>
	<path class="st0" d="M1862.6,783.7c-72.8,49.5-137,111.7-188.8,183"/>
	<path class="st0" d="M1796.1,805.6c-43.6,41.9-86,85-127.2,129.2"/>
	<path class="st0" d="M1768.6,816.2c-7.8,6.5-15.6,12.9-23.4,19.4"/>
	<path class="st0" d="M1719.3,831.3c-49.4,47.8-98.9,95.6-148.3,143.3"/>
	<path class="st0" d="M1625.2,864.4c8-3.1,16-6.3,24-9.4c-43,40.3-82.4,84.6-117.5,132"/>
	<path class="st0" d="M1596.9,873.3c-36.6,32.6-69.7,69-98.7,108.5"/>
	<path class="st0" d="M1521.7,933.6c85.5,1.3,170.9,7.3,255.7,18"/>
	<path class="st0" d="M2181.4,932.8c-37.6-27-82.9-43.2-127.7-47.7c6.1,1.2,12.4,1.8,18.6,1.8c1.7,0,3.7-0.2,4.6-1.6
		c1.4-2.1-0.6-4.8-2.6-6.5c-13.6-11-31.8-14.1-48.9-15.9c18.4,0.3,36.8,0.5,55.2,0.8"/>
	<path class="st0" d="M2076.3,893.4c0.8-30.3-4.5-60.7-15.5-88.9"/>
	<path class="st0" d="M2051.8,819c-1.6-14.3-3.2-28.5-4.8-42.8c21.2,33,42.5,65.9,63.7,98.9"/>
	<path class="st0" d="M2101.2,863.4c-0.2-2.3-0.3-4.7-0.5-7c14.2,9.3,26.1,21.9,34.7,36.5c-6.3,0.3-12.6,1.2-18.7,2.6
		c27.7,7.6,57.1,16.2,76.3,37.7"/>
	<path class="st0" d="M2073.8,864.8c6.7-0.2,13.4,0.2,20,1.5c-1.9,4-5.3,7.1-9.4,8.8c14.3,7.9,28.6,15.8,42.9,23.6"/>
	<path class="st0" d="M2040.9,799.1c12.5-3.1,22-15.1,23.5-27.9"/>
	<path class="st0" d="M2052.1,787c-5.1-16-10.1-32-15.1-48"/>
	<path class="st0" d="M2055.4,776.9c11.4,6.6,25.1,9.4,38.2,7.9"/>
	<path class="st0" d="M2055.2,741c-4-8-10.7-14.3-16.9-20.8c-6.2-6.5-12.3-13.6-14-21.9c20.2,16.8,38,36.7,52.5,58.6"/>
	<path class="st0" d="M2063,754.3c4.1,2.1,8.8,3.1,13.4,3"/>
	<path class="st0" d="M2072.8,749.9c-5.1-8.6-10.9-16.9-17.4-24.6"/>
	<path class="st0" d="M2047.6,738.5c-19,1.4-38.4-2.5-55.4-11.1"/>
	<path class="st0" d="M2031.3,726.3c-13.4,3.3-27.5,3.5-41,0.4"/>
	<path class="st0" d="M2031.2,725.6c-12.3,1.2-24.8-0.5-36.8-4.3c8.9,0.6,17.9-1.6,25.5-6.2s13.7-11.7,17.2-19.8"/>
	<path class="st0" d="M2036.9,695.2c-3.6-0.7-7.2-0.1-10.7,0.5c-29,4.9-57.7,11.2-87.5,19.3c28.6-4.1,55.7-17.6,76.1-36.9
		c0.3-5.7-3-11-7.2-14.8c-4.2-3.8-9.2-6.6-13.9-9.9c-4.6-3.3-9-7.4-10.8-12.8"/>
	<path class="st0" d="M1878.2,565.3c53.3,39.3,85.3,102.8,139.6,140.8"/>
	<path class="st0" d="M1983.8,656.3c-0.2,5.7-3.3,11.3-8,14.5c0.9-14.6,0.4-29.3-1.8-43.9c4.4,1.7,9.1,2.6,13.8,2.6
		c-13.8-9.3-25.6-21.6-34.4-35.7"/>
	<path class="st0" d="M1968.3,601.1c-23.6-3.1-45.8-15.6-60.7-34.1"/>
	<path class="st0" d="M1878,556.4c15.8,12.4,33.2,22.8,51.5,31.1"/>
	<path class="st0" d="M1901.1,565c0.8,5.3,1.8,10.7,4.1,15.5c2.3,4.8,6.3,9.2,11.4,10.8c5.1,1.6,11.4-0.1,14.2-4.7"/>
	<path class="st0" d="M1890,563.8c9.5,1.1,19.1,2.3,28.2,5.2c9.1,3,17.8,7.9,23.8,15.4c1.1,1.4,2.2,3,2.5,4.8
		c0.3,1.8-0.2,3.8-1.7,4.9c-2.7,1.8-6.2-0.5-8.6-2.7c-10.7-9.8-21.4-19.5-32.1-29.2"/>
	<path class="st0" d="M1723.2,521.3c-0.7,10.5-4.1,20.8-11.5,30.4c1.6,0.1,3-1,4.3-2c3-2.4,6-4.9,7.5-8.4c0.7-1.6,1-3.5,2.2-4.7"/>
	<path class="st0" d="M1720.1,546.4c4.2,1.1,9-0.8,11.3-4.5"/>
	<path class="st0" d="M1724.8,517.6c5.6,6.2,5.8,15.4,5,23.7c-0.8,8.3-2.2,17,1.2,24.6c2.6,5.8,7.6,10.1,12.6,13.8"/>
	<path class="st0" d="M1716.8,573.6c0.7,3.8,0.3,7.8-1.2,11.5c-0.6,1.5-1.4,2.9-2.5,3.9s-2.8,1.7-4.3,1.5c-1-0.2-2-0.8-2.2-1.8
		c-0.3-1.2,0.7-2.3,1.6-3.1c2.3-2.3,4.7-4.5,7.1-6.8c1.4-1.4,2.9-2.8,4.8-3.3c2-0.5,4.2,0,6,1.1s3.3,2.6,4.7,4.1
		c1.1,1.1,2.2,2.3,2.7,3.8c0.5,1.5,0.2,3.3-1.1,4.2c-1.6,1.1-3.7,0.2-5.3-0.8C1721.6,584.3,1717.9,578.1,1716.8,573.6z"/>
	<path class="st0" d="M1725.3,594.8c5-12.9,11.6-25.4,20.9-35.6c9.4-10.2,21.8-18,35.4-20.2c11-1.7,22.2,0.3,33,2.9
		c23.6,5.8,46.3,14.8,67.5,26.6"/>
	<path class="st0" d="M1729,586.5c9.3-7,17.4-15.4,26.3-22.9s18.6-14.4,29.8-17.6c16.2-4.6,33.5-1.2,49.7,3.3
		c16.2,4.4,32.6,9.8,49.4,9"/>
	<path class="st0" d="M1782.1,546c24.2,0.4,48.4,3.2,72.1,8.5"/>
	<path class="st0" d="M1750.8,565.1c6.9-10.5,18.6-17,30.7-20.2c12.1-3.2,24.8-3.3,37.3-3.5"/>
	<path class="st0" d="M1871.2,610.2c-31.7-13.6-61.3-31.9-87.6-54.1"/>
	<path class="st0" d="M1776.1,549.5c-1.3,1-0.7,3.2,0.7,4c1.4,0.8,3.1,0.7,4.7,0.7c5.6,0,11.2,1.6,15.9,4.5"/>
	<path class="st0" d="M1680.1,768.4c71.6-79.4,155.3-147.8,247.4-202.2"/>
	<path class="st0" d="M1903.2,633.8c1.6-3.6,3.2-7.2,4.8-10.8c-102,38.5-199,90.2-288,153.2"/>
	<path class="st0" d="M1635.8,763.6c65.9-22.1,129.7-50.5,190.4-84.4"/>
	<path class="st0" d="M1851.2,672.8c-11.1,6.6-24.9,8.6-37.5,5.5"/>
	<path class="st0" d="M1733.5,711c34.7-32.8,67-68.1,96.7-105.4"/>
	<path class="st0" d="M1830.4,608.7c-48.8,34.4-94,74.1-133.5,116.7c27.8-40.5,55.6-81.1,83.3-121.6"/>
	<path class="st0" d="M1746.6,601.7c12.9,14.5,29,26.2,47.1,33.6c-10-0.2-19.9-3.4-28.2-9"/>
	<path class="st0" d="M1763,621.1c-8.2,1.3-16.9-2.2-22-8.8c-1.2-1.5-2.1-3.3-1.9-5.2c0.4-3,3.7-4.6,6.6-5c2.9-0.3,6,0.2,8.9-0.7"/>
	<path class="st0" d="M1762.3,587c0.7,1.6,1.4,3.2,2.7,4.5c1.2,1.2,3.2,1.9,4.8,1.3c2.2-0.9,2.8-3.6,3.2-5.9c0.5-3.5,1.1-7,1.6-10.4
		c0.2-1.3,0.4-2.8-0.4-4c-0.7-1-1.9-1.5-3.1-1.9c-3.3-1.1-6.8-1.9-10.2-2.5"/>
	<path class="st0" d="M1417,907.8c118.7-88.3,229.1-187.7,329.2-296.5"/>
	<path class="st0" d="M1374.4,971.7c81-78.9,170.5-149.1,266.4-209"/>
	<path class="st0" d="M1366.9,962.3c126.5-98.9,247.2-205.5,361-318.8"/>
	<path class="st0" d="M1690.6,652.9c17.9-16.9,35.7-33.8,53.6-50.8"/>
	<path class="st0" d="M1673.4,644.8c21.2-8.7,41.2-20.2,59.5-34"/>
	<path class="st0" d="M1667.8,629.4c20.2-5.6,39.8-13.5,58.3-23.3"/>
	<path class="st0" d="M1922.5,569.9c8.8-6.2,17.7-12.5,26.5-18.7"/>
	<path class="st0" d="M1227.4,529.2c55.9-54.3,121.7-98.6,185.1-131.8C1342.8,427.7,1279.2,472.1,1227.4,529.2z"/>
	<path class="st0" d="M1230.7,518.3c48.9-49.5,109.2-87.6,174.8-110.7"/>
	<path class="st0" d="M1212.2,496.7c2.2,24.1,18.6,46.4,41,55.8"/>
	<path class="st0" d="M1211.7,499.5c-0.6,13,5.1,26,16.3,37.9c-7.6-4-14.3-9.8-20.1-17.2c4.3,11.8,13.4,21.8,28.7,23.3
		c1.3,10.3-1.3,21-7.2,29.5"/>
	<path class="st0" d="M1248.3,544.8c-5.9,14.5-18.2,26.3-33,31.6c-14.7,5.3-31.7,4.2-45.6-3.2"/>
	<path class="st0" d="M1195.7,594.5c-9.8-4.7-18.7-11.3-26-19.3"/>
	<path class="st0" d="M1185.9,579.3c-6.4,1.3-11.7,7.1-12.3,13.7"/>
	<path class="st0" d="M1188.6,581.9c-5.7,2.4-10.3,7-12.7,12.7s-2.3,12.3,0.1,18"/>
	<path class="st0" d="M1208.1,585.2c-6.1-1.2-12.6-0.8-18.1,2c-5.6,2.7-10.1,7.8-11.4,13.9s1,12.9,6.1,16.4"/>
	<path class="st0" d="M1181.3,588.6c10.2,8.2,23.7,12.3,36.8,11.2"/>
	<path class="st0" d="M1179.2,593c12.4,9,28.1,13.5,43.4,12.4"/>
	<path class="st0" d="M1178.3,596.6c12.9,9,29.3,13.1,44.9,11.1"/>
	<path class="st0" d="M1175.9,601c9,3.8,18.3,6.8,27.8,8.8"/>
	<path class="st0" d="M1176.4,605.5c12.8,10.8,31.1,14.7,47.2,10.3"/>
	<path class="st0" d="M1217,609.6c-11.4,4.3-24.4,4.4-36.9-0.2c12.6,11.6,31,16.7,47.8,13.2"/>
	<path class="st0" d="M1179.9,612.5c14.9,13.8,37.7,18.3,56.8,11.4"/>
	<path class="st0" d="M1205.2,617.5c11.5,0.9,23.1,0,34.3-2.8"/>
	<path class="st0" d="M1190.2,602.1c14,7.2,30.2,10.2,45.9,8.5"/>
	<path class="st0" d="M1179.5,603.3c13.2,9,29.3,13.8,45.3,13.6"/>
	<path class="st0" d="M1207.5,579c21.7,5.5,42,16.5,58.6,31.5"/>
	<path class="st0" d="M1172.9,574.7c7.1,3.9,15.5,4.9,23.6,4.3c8.1-0.6,15.9-2.9,23.6-5.3"/>
	<path class="st0" d="M1197,625.2c-14.1-3-28.8-1.8-42.8,1.7s-27.4,9-40.6,14.8"/>
	<path class="st0" d="M1121.5,637.8c0.8-7.6,7.1-13.8,14.3-16.3s15.1-2.2,22.6-1.2s15.1,2.6,22.7,2.4"/>
	<path class="st0" d="M1128,638.5c-3.7,34.3,4.7,69.7,23.4,98.7"/>
	<path class="st0" d="M1132.5,639.3c-0.9,32.4,7,65.1,22.7,93.5"/>
	<path class="st0" d="M1142.2,669.4c1.4,22.8,8.5,45.2,20.4,64.7"/>
	<path class="st0" d="M1152.1,737.8c36.3,3.3,70.8,22.9,92.3,52.4"/>
	<path class="st0" d="M1166.7,735.4c-2.4-6.7-4.8-13.3-7.2-20"/>
	<path class="st0" d="M1189.7,750c-9.4-12.2-19.7-23.7-30.9-34.3"/>
	<path class="st0" d="M1152.7,733c16.8,2.8,32.9,8.9,47.4,17.9"/>
	<path class="st0" d="M1168,734.1c16.1,1,31.6,9,41.7,21.6"/>
	<path class="st0" d="M1174.6,718.2c8,10.3,17.3,19.5,27.7,27.3"/>
	<path class="st0" d="M1193.6,726.9c9.6,16,24.6,28.7,41.9,35.5"/>
	<path class="st0" d="M1203.3,732.2c5.2,3.2,10.4,6.3,15.7,9.5"/>
	<path class="st0" d="M1217.2,714.9c8.4,23.6,16.9,47.2,25.4,70.8"/>
	<path class="st0" d="M1207.1,747.4c7,6.7,13.9,13.3,20.9,20"/>
	<path class="st0" d="M1226.6,800.9c-11.1-23.7-29.7-43.8-50.9-58.7c-11.9,8.4-22.4,18.8-31,30.6"/>
	<path class="st0" d="M1136.6,770.8c10.4-9.3,21.9-17.4,34.2-24"/>
	<path class="st0" d="M1174.2,742.4c-10.8-1.6-22.3,1.4-30.9,8.2c-3.1,2.4-5.8,5.2-8.9,7.6s-6.8,4.2-10.6,4.2"/>
	<path class="st0" d="M1157.5,738.3c-6.1,2.8-12.3,5.7-17.9,9.6c-5.6,3.9-10.5,8.8-13.4,15"/>
	<path class="st0" d="M1158.8,769.5c6.2-10.6,15.7-19.4,26.7-24.8"/>
	<path class="st0" d="M1160.3,741.5c29.8,5.6,57.6,21.5,77.4,44.4"/>
	<path class="st0" d="M1182.6,755.3c-5.9,4.1-10.4,10-12.8,16.7"/>
	<path class="st0" d="M1198.6,752.1c-2.9,2.8-5.8,5.7-7.3,9.4c-0.6,1.6-1,3.6-0.1,5.1c0.8,1.5,3.2,2.3,4.4,1.1"/>
	<path class="st0" d="M1215.9,761.1c0.1,1.8-0.5,3.5-0.9,5.2s-0.8,3.6-0.2,5.3s2.4,3,4.1,2.5"/>
	<path class="st0" d="M1230.8,777.3c-2.1-2-5.4-2.3-7.9-0.9c-2.4,1.5-3.7,4.6-3,7.4"/>
	<path class="st0" d="M1235.7,783.3c-1.4-2-4-3-6.4-2.5s-4.4,2.5-4.9,4.8"/>
	<path class="st0" d="M1240.1,787.8c4.6,5.9,8.7,12.2,11.2,19.2c2.4,7,3.1,14.8,0.7,21.9"/>
	<path class="st0" d="M1239.3,784.9c12.3,15,20.1,33.4,24.6,52.3s6,38.4,6.7,57.8"/>
	<path class="st0" d="M1245.5,790.4c11,15.2,18.1,33,22.4,51.3c4.3,18.3,6.1,37.1,7,55.8"/>
	<path class="st0" d="M1243.7,771c10.2,15.7,16.9,33.4,21.2,51.7c4.2,18.2,6.1,36.9,7.1,55.6"/>
	<path class="st0" d="M1229.5,873.8c12-15.6,24-31.3,37.9-45.2s29.9-26,48.1-33.4c1.6-0.6,3.4-1.2,4.8-0.4c1.6,0.9,2,3.1,1.4,4.8
		s-2,3-3.3,4.2"/>
	<path class="st0" d="M1256.7,843.2c8.5,12.3,12.9,27.4,12.5,42.3"/>
	<path class="st0" d="M1878.4,1015.2c-55.3-14.1-107.7-39.3-153.2-73.7"/>
	<path class="st0" d="M1866.8,1009.7c-35.4-17.2-69.8-36.7-102.7-58.3"/>
	<path class="st0" d="M1782.5,943.4c19.3,15.9,38.6,31.8,58,47.7"/>
	<path class="st0" d="M1833.7,1016.7c-13.2-9.8-26.5-19.5-39.7-29.3c0.6,2.6,1.1,5.2,1.7,7.9c-48-20.6-100.1-30.2-152.1-33.9
		s-104.3-1.5-156.5,0.7"/>
	<path class="st0" d="M1524.7,939.6c3.3-0.4,6.7-0.8,10-1.2c-1.6-2.5-3.6-5.3-6.5-6s-6.6,2.3-5.2,5c0.6,1.2,1.9,1.8,3.2,2.3
		c31.5,13.4,66.7,14.3,100.8,13.5c34.2-0.8,68.8-3.1,102.2,4.3c26.1,5.8,50.4,17.4,74.5,28.9"/>
	<path class="st0" d="M1613.5,958.8c-54.5-10.6-111.9-4.9-161.9,17c6.3-4.3,12.7-8.6,19-12.8c-33.4,6.1-67.3,9.8-101.3,11"/>
	<path class="st0" d="M1391.9,986.5c3-0.7,6.2-0.6,9.2,0c-5.2,4.1-10.3,8.2-15.5,12.3c-2.9,2.3-5.8,4.6-9.2,6.2s-7.2,2.3-10.8,1.3"
		/>
</g>
<g id="Layer_4">
	<path class="st0" d="M1063.9,167c37.4,55.6,78.2,109.4,127.4,154.7c49.3,45.3,107.7,82,172.4,99.3"/>
	<path class="st0" d="M1072.5,174.1c104.4,93.7,224.8,169.8,354.7,223c62.3,28.1,124.8,56.3,189.6,78.2
		c64.8,21.9,132.2,37.5,200.5,39.8"/>
	<path class="st0" d="M1479.2,422.7c24.4,11.1,48.8,22.2,73.2,33.3c27.1,12.3,54.2,24.7,82.3,34.4c46.3,16,94.8,24.8,143.5,30.3"/>
	<path class="st0" d="M1532.5,472.3c-15.3-16.6-28.2-35.5-38.2-55.8"/>
	<path class="st0" d="M1500.4,447c-9.2-11-16.4-23.7-21.3-37.1"/>
	<path class="st0" d="M1490.8,445.7c-9-11.1-16.6-23.2-22.6-36.2"/>
	<path class="st0" d="M1480.6,443.3c-9.4-11-16.7-23.9-21.4-37.6"/>
	<path class="st0" d="M1471.4,440.9c-11.5-16.3-20.5-34.4-26.6-53.5"/>
	<path class="st0" d="M1454.9,427.1c-6.5-9.1-11.9-19.1-15.9-29.6"/>
	<path class="st0" d="M1442.2,420.2c-5.3-4.8-9.8-10.5-13.3-16.8"/>
	<path class="st0" d="M1308.4,375.7c-8.7-11.4-14.3-25.1-16.1-39.3"/>
	<path class="st0" d="M1293.6,362.7c-4.6-9.2-8.3-18.9-11-28.8"/>
	<path class="st0" d="M1276.5,349.2c-4.5-8.4-7.3-17.8-8-27.3"/>
	<path class="st0" d="M1318.5,380.9c-8.3-11.6-14.5-24.7-18.2-38.5"/>
	<path class="st0" d="M1336.7,396.4c-10.3-14.5-18.1-30.8-23-47.9"/>
	<path class="st0" d="M1343.6,404.4c-9.8-18.1-17.2-37.5-22.1-57.5"/>
	<path class="st0" d="M1360.5,411.6c-11.1-16.9-19.5-35.6-24.5-55.2"/>
	<path class="st0" d="M1372.2,411.4c-10.4-13.8-18-29.8-22-46.6"/>
	<path class="st0" d="M1380.2,404.8c-7.8-11.2-13.6-23.9-16.9-37.1"/>
	<path class="st0" d="M1388.3,403.5c-6.2-9.3-10.9-19.6-13.9-30.3"/>
	<path class="st0" d="M1396,401.5c-3.7-6.9-7.4-13.8-11.2-20.7"/>
	<path class="st0" d="M1402.1,400.9c-2.8-5.4-5.7-10.8-8.5-16.2"/>
	<path class="st0" d="M1407.3,398.5c-0.7-4.3-2.3-8.5-4.7-12.2"/>
	<path class="st0" d="M1095.8,205.5c56.3,43.2,116.2,81.8,178.9,115c54.8,29.1,114.7,54.7,176.6,50.8"/>
	<path class="st0" d="M1096.6,195.8c105.5,91.3,228.4,162.2,360.2,207.9"/>
	<path class="st0" d="M1399.5,382c61.2,31.5,125.5,57.1,191.7,76.1"/>
	<path class="st0" d="M1549.1,443.9c99.8,40.7,204.5,69.6,311.1,85.8"/>
	<path class="st0" d="M1441.9,349c43.6,19.4,86.7,39.7,129.4,61c27.2,13.6,54.4,27.6,79.2,45.3"/>
	<path class="st0" d="M1511.9,382.3c44.6,29.3,92.6,53.5,142.8,71.8"/>
	<path class="st0" d="M1455,363.2c44.6-0.4,89.2,14.9,124.2,42.5"/>
	<path class="st0" d="M1465,364.3c50.2,22.6,105.7,32.5,154.5,57.9c11.5,6,22.6,12.8,34.7,17.5c12.1,4.7,25.4,7.2,38,4.1"/>
	<path class="st0" d="M1483.3,344.5c23.8,6.5,46.4,17.7,66,32.7"/>
	<path class="st0" d="M1501.5,363.7c-5.3-6.6-9.9-13.7-15.7-17.5c-4.8-8.2-8.8-17-11.9-25.9"/>
	<path class="st0" d="M1479.4,344.5c-6.7-9.3-11.6-19.9-14.2-31"/>
	<path class="st0" d="M1464.7,341.2c-2.7-22.1-5.3-44.3-8-66.4c-5.5-45.3-11-90.8-23-134.9"/>
	<path class="st0" d="M1456,360.1c-1.3-71.9-8.8-143.6-22.6-214.2"/>
	<path class="st0" d="M1407,337.3c-6.3-31.2-6.5-63.6-0.5-94.8"/>
	<path class="st0" d="M1451.3,253.2c-15.5-3-31.6-2.8-47,0.7"/>
	<path class="st0" d="M1395.9,334.8c-1.4-17.2,0.9-34.7,6.8-50.9"/>
	<path class="st0" d="M1406.3,335.2c-17.1-17.4-31.3-37.7-41.9-59.7"/>
	<path class="st0" d="M1404.9,329.9c-7.7-9.5-13.4-20.6-20.2-33.2c-5-10.6-12.7-19.9-22.2-26.8"/>
	<path class="st0" d="M1403.8,298.1c-9.3-13.5-23.1-23.8-38.7-28.7"/>
	<path class="st0" d="M1392.4,278.9c-9.4,3-19.8,2.9-29.1-0.3"/>
	<path class="st0" d="M1373.8,314.8c-4.7-10.3-8-21.4-9.6-32.6"/>
	<path class="st0" d="M1369.2,279.6c1.8-5.3,3.6-10.5,5.4-15.8"/>
	<path class="st0" d="M1350.6,266.5c7.9,2.5,16.8,1.7,24.2-2.1"/>
	<path class="st0" d="M1363.1,280.3c-7.2-58.4-5.5-117.8,5-175.6"/>
	<path class="st0" d="M1358.1,271.4c-4.7-52.6-2.4-105.9,7-158"/>
	<path class="st0" d="M1351.7,169.7c1.6-24.9,5-49.8,10.3-74.2"/>
	<path class="st0" d="M1415.7,252.5c15.6-6.4,28.3-19.3,34.6-35"/>
	<path class="st0" d="M1411.6,251.8c9.2-15.3,21.4-28.8,35.8-39.3"/>
	<path class="st0" d="M1409.1,249.3c12.2-12.5,22.8-26.6,31.4-41.8"/>
	<path class="st0" d="M1411.9,237.2c6.7-16.8,17.1-32.1,30.4-44.3"/>
	<path class="st0" d="M1413.7,220.6c5.8-14.1,14.7-26.9,26-37.1"/>
	<path class="st0" d="M1420.6,202.9c-1.1-4.6,0.1-9.8,3-13.5s7.7-6,12.4-6"/>
	<path class="st0" d="M1426.9,166c0-12.8,3.5-25.6,10.1-36.6"/>
	<path class="st0" d="M1605,133.3c2.2-6-1.4-12.9-6.7-16.6s-11.9-4.8-18.2-5.7c-70.2-10.6-141.8-11.7-212.3-3.2"/>
	<path class="st0" d="M1522.3,83.6c-54,4.3-108.1,8.7-162.1,13"/>
	<path class="st0" d="M1528.9,102.2c29.9,29.8,70.5,48.6,112.6,52"/>
	<path class="st0" d="M1555.1,99.8c2.2-2.3,4.3-4.7,6.5-7.1c31.3,24.4,57.6,55.2,77,89.8"/>
	<path class="st0" d="M1593,131.3c4.9,8,11.3,15.1,18.9,20.6"/>
	<path class="st0" d="M1628.2,153.1c55.3,88.5,90.3,189.6,101.5,293.3"/>
	<path class="st0" d="M1683.5,255.7c49.8,78.9,81.2,168.9,136.3,244.2"/>
	<path class="st0" d="M1797.3,487.1c1.7-0.9,3.8-0.5,5.7-0.4c1.9,0.1,4.2-0.4,5-2.2c0.4-0.9,0.3-1.9,0.2-2.9
		c-0.7-5.6-1.3-11.2-2-16.8"/>
	<path class="st0" d="M1810.2,499.5c-1.6-1.9-3.4-4.2-2.7-6.6c0.1-0.5,0.4-0.9,0.8-1.3c1.1-1,2.7-0.8,4.1-0.7
		C1813.8,491.1,1815.6,491,1810.2,499.5z"/>
	<path class="st0" d="M1725.7,416.1c7.1,11.4,14.2,22.8,21.3,34.2c-0.9-1.7-3.8-0.7-4.2,1.2c-0.4,1.9,0.8,3.7,2.2,5s3,2.6,3.6,4.4
		c0.7,1.8-0.3,4.3-2.2,4.4c-0.9,0-1.7-0.5-2.5-0.7s-2,0-2.2,0.8c-0.3,0.9,0.7,1.7,1.5,2.2c11.5,6.7,23,13.4,34.4,20.1"/>
	<path class="st0" d="M1705.9,459.7c18.3,9.4,38.3,15.5,58.7,18.2"/>
	<path class="st0" d="M1717.9,468c16.6,9.2,36,13.3,54.9,11.5"/>
	<path class="st0" d="M1753,466.7c0.9,5,5.6,8.2,9.9,10.8c39.5,23.9,82.6,41.8,127.5,52.9"/>
	<path class="st0" d="M1842,519.4c27.1,6.7,55.9,6.5,82.9-0.5"/>
	<path class="st0" d="M1812,521.8c54.1,12.4,109.4,19.2,164.9,20.4"/>
	<path class="st0" d="M1851.3,526.2c56.4,9.6,113.1,17.8,170,24.3"/>
	<path class="st0" d="M1899.3,534.4c19.6,6.4,39.3,12.9,58.9,19.3c17.5,5.8,35.1,11.5,53.2,15.4c3.7,0.8,7.9,1.4,11.2-0.6
		c-2.4-1.9-4.7-3.8-7.1-5.6"/>
	<path class="st0" d="M1948,542.7c37.3,7.3,75.4,10.5,113.4,9.6"/>
	<path class="st0" d="M1592.9,459.4c67.6,27.3,138.6,45.8,210.9,54.9"/>
	<path class="st0" d="M1576.2,468c85.2,31.2,174.2,51.9,264.5,61.7"/>
	<path class="st0" d="M1363.8,269.2c13.9,10.3,25.6,23.5,34.1,38.5"/>
	<path class="st0" d="M1369.1,270.5c12.8,7.5,24.4,17,34.5,27.9"/>
	<path class="st0" d="M1482.9,346c19.1,5.7,37.4,14.3,54.1,25.4"/>
	<path class="st0" d="M1454.6,373.1c-7.7-0.6-15.1-3.5-21.2-8.1"/>
	<path class="st0" d="M1457.6,312.5c-2.9-54.2-10.4-108.1-22.5-161"/>
	<path class="st0" d="M1364.1,102.1c-5.1,20.5-7.1,41.8-5.8,62.9"/>
	<path class="st0" d="M1091,195.1c31.6,31.1,67.3,57.9,105.9,79.5"/>
	<path class="st0" d="M1064.9,166.4c63.4,119.1,173.9,212.4,302,254.9"/>
</g>
<g id="Layer_5">
	<path class="st0" d="M1124.5,1694.7c7.3-7.9,11.3-18.8,11.1-29.5c-0.3-10.8-4.9-21.4-12.6-28.9c-4.1-4.1-9.2-7.3-14.9-8.6
		s-11.9-0.4-16.6,3s-7.5,9.5-6.3,15.2"/>
	<path class="st0" d="M1144.1,1681.9c-16.6-8.4-27.4-27.1-26.4-45.7"/>
	<path class="st0" d="M1116.8,1630.4c0.6-3-1.2-6.1-3.7-7.8c-2.5-1.7-5.6-2.4-8.6-2.9c-2.7-0.5-5.5-0.9-8.3-0.6s-5.5,1.4-7.4,3.5"/>
	<path class="st0" d="M1111.2,1622.5c-8.6-5.1-20.2-2.5-27.9,3.8c-7.7,6.4-12.2,15.8-15.7,25.2c-14.5,39.9-12.8,84.4-2.2,125.5
		c4.4,17.1,10.5,34,20.6,48.4c10.2,14.4,24.9,26.2,42.1,30.1"/>
	<path class="st0" d="M1069,1642.7c-11.8,44.8-12.2,92.5-1.2,137.5c5.7,23.5,15.6,47.6,35.4,61.4"/>
	<path class="st0" d="M1044.5,1661.9c12,10.1,18.3,26.6,15.9,42.2"/>
	<path class="st0" d="M1090.2,1623.1c-26,57.6-27.1,125.9-3,183.3c0.7,3.5,1.5,7.2,4.1,9.6c1.5,1.4,3.5,2.1,5.4,2.8
		c6.7,2.3,13.6,4.2,20.5,5.6"/>
	<path class="st0" d="M1085.4,1627.9c-25.7,62-22.4,135.3,8.6,194.9"/>
	<path class="st0" d="M1088.7,1647.3c8.4,34.8,16.8,70,32,102.4c15.2,32.5,37.7,62.5,68.6,80.6"/>
	<path class="st0" d="M1094.8,1633.9c-1.9,20.6,3.3,41.2,9.2,61.1c4.9,16.7,10.3,33.4,19,48.4c8.9,15.2,21.1,28.5,35.5,38.6
		c4.2,3,8.8,5.7,13.8,7c5,1.3,10.6,1.1,15-1.5"/>
	<path class="st0" d="M1100.7,1634.7c0.6,25.6,5.3,51,13.9,75.1c3.1,8.8,7.1,17.8,14.6,23.2"/>
	<path class="st0" d="M1109.1,1713.3c22.6,35.9,53.2,66.7,89.1,89.5"/>
	<path class="st0" d="M1136.6,1666.5c-9.4-7.5-21.2-12.1-33.2-13c-4.5-0.3-9.8,0.3-12,4.2"/>
	<path class="st0" d="M1094.5,1637.7c2.7-1.6,6.1-1.6,9.1-0.6s5.6,2.8,7.9,4.9c7.4,6.4,13.1,14.7,16.3,23.8"/>
	<path class="st0" d="M1102.2,1623c-3-1.3-6.7-1-9.3,0.8s-4.3,5.2-4.1,8.4c0.2,4.2,3.2,7.8,6.4,10.6c3.2,2.8,6.8,5.2,9.1,8.8"/>
	<path class="st0" d="M1095.6,1629.9c10.7-0.9,21.6,3.8,28.3,12.1s8.9,20.1,5.8,30.3"/>
	<path class="st0" d="M1179.3,1829.2c0.2-1.3,1.1-2.3,2.2-3c1.1-0.7,2.4-1,3.6-1.3c3.4-0.9,6.9-1.8,10.4-1.7
		c3.5,0.1,7.2,1.3,9.5,3.9"/>
	<path class="st0" d="M1202.8,1780.4c-4.8,16.9-4.7,35.2,0.4,52"/>
	<path class="st0" d="M1196.6,1818.6c-3-8.9-2.9-18.9,0.4-27.7"/>
	<path class="st0" d="M1201.5,1782.2c5-7.9,12.4-14.1,20.4-19s16.6-8.6,25.1-12.5c22.7-10.5,44.6-22.7,65.5-36.4
		c4.9-3.2,9.8-6.6,13.9-10.9c4.1-4.2,7.4-9.5,8.4-15.3"/>
	<path class="st0" d="M1176.1,1778.7c0.5,2.4,3.8,2.9,6.3,2.8c34.1-2.1,64.1-25.7,98.2-27.4"/>
	<path class="st0" d="M1213.5,1774.5c22.4-0.5,44.6-7,63.7-18.6"/>
	<path class="st0" d="M1271.7,1722.8c12.9,5.8,27,9.1,41.3,10.3c-8.6,2.2-17.5,3.1-27.5,1.3c49,27.5,105,42.5,161.2,43.1"/>
	<path class="st0" d="M1304.8,1718.9c11.1,9.8,21.4,20.7,30.7,31.7c-7.5-2.9-15.5-4.5-23.3-6.6c-7.8-2.1-15.6-4.8-21.9-9.8"/>
	<path class="st0" d="M1317.9,1772c-2.5-20.4-3.3-40.9-2.5-61.5"/>
	<path class="st0" d="M1308.2,1573.2c-0.1,54,1.4,108,4.5,161.9"/>
	<path class="st0" d="M1307.8,1717.7c7.8-2.9,14.7-8.5,19.1-15.6"/>
	<path class="st0" d="M1317.5,1573.3c5.2,42.2,8.4,84.7,9.5,127.2"/>
	<path class="st0" d="M1328.2,1605.8c8.3,28,10.9,57.7,7.5,86.7"/>
	<path class="st0" d="M1335.2,1577.8c0.5,38.2,1,76.4,1.5,114.7"/>
	<path class="st0" d="M1327.8,1585.4c11,14.9,22.3,30,37.2,41c2.2,1.6,4.5,3.2,7.1,4.1c2.6,0.9,5.5,1.1,8-0.1"/>
	<path class="st0" d="M1360.6,1616.8c20.7,15.6,47.3,23,73,20.3"/>
	<path class="st0" d="M1368.7,1617.6c19.9,14.5,46,20,70.1,15"/>
	<path class="st0" d="M1329.2,1582.6c7.1,9.4,17.4,16.4,28.8,19.5"/>
	<path class="st0" d="M1447.6,1647.2c15.9,4,33,3.5,48.7-1.4"/>
	<path class="st0" d="M1454.1,1643.7c14.2,6,30.4,7.2,45.2,3.2"/>
	<path class="st0" d="M1469.6,1645.4c8.7,2.3,17.9,2.6,26.7,0.9"/>
	<path class="st0" d="M1428.2,1635.6c63.4,59.7,124.2,122,182.4,186.8"/>
	<path class="st0" d="M1571.5,1773.4c19.8,23.9,43.1,45.1,68.9,62.5"/>
	<path class="st0" d="M1352.2,1704.6c-1.8-36-3.6-72-5.3-108"/>
	<path class="st0" d="M1363.1,1698.9c-4.7-27.5-6.6-55.4-5.8-83.3"/>
	<path class="st0" d="M1373.9,1694.9c-7.4-27.1-10.6-55.4-9.3-83.5"/>
	<path class="st0" d="M1385.1,1707.5c-6.9-28.3-8.8-57.8-5.5-86.7"/>
	<path class="st0" d="M1397.1,1719.7c-3.9-31.7-6.1-63.7-6.6-95.6"/>
	<path class="st0" d="M1413.7,1718.3c-6.1-31.3-9.2-63.2-9.2-95.1"/>
	<path class="st0" d="M1425.9,1724.4c-5.3-34.5-7.2-69.5-5.8-104.3"/>
	<path class="st0" d="M1442.3,1745.2c-4-33.9-7.9-67.8-11.9-101.7"/>
	<path class="st0" d="M1457.5,1749.6c-8.4-32.5-13.4-65.9-14.8-99.4"/>
	<path class="st0" d="M1472.8,1758c-7.9-29.8-11.8-60.8-11.6-91.7"/>
	<path class="st0" d="M1485.8,1757c0.9,2.3,1.9,4.5,2.8,6.8c-7-27.9-10.9-56.7-11.6-85.4"/>
	<path class="st0" d="M1507.2,1764.2c-8.6-19.9-14.4-41.1-17.3-62.6"/>
	<path class="st0" d="M1514.7,1760.6c-4.1-15.2-6.4-31-6.8-46.8"/>
	<path class="st0" d="M1426.4,1781.4c21.1,3.5,43.1,1.2,63-6.4c-7.9,5.7-15.9,11.4-23.8,17.1c36.4-9.2,73.1-17.4,109.9-24.7"/>
	<path class="st0" d="M1350.4,1764.8c-0.5,18.7,0.3,37.5,2.5,56.1"/>
	<path class="st0" d="M1362.2,1764.5c3.2,31.1,6.5,62.2,9.8,93.2"/>
	<path class="st0" d="M1376.7,1792.5c2.5,22.3,5,44.7,7.6,67.1"/>
	<path class="st0" d="M1394.9,1774.9c-0.5,28.4,0.3,56.9,2.5,85.3"/>
	<path class="st0" d="M1131.2,1868.1c58.9,9.3,119.1,10.1,178.1,1.7c-1.8,2.2-3.5,4.3-5.2,6.5c21.2-6.3,43.5-8.7,65.6-7.2"/>
	<path class="st0" d="M1100.1,1837.4c22.1,16.3,46.2,29.8,71.6,40.2c9.4,3.8,19.1,7.3,29.2,7.8s20.8-2.3,27.9-9.4"/>
	<path class="st0" d="M1262.8,1874.7c56.8,21,118.9,21.5,179.4,18.3c60.5-3.2,121.3-9.8,181.3-2.1"/>
	<path class="st0" d="M1416.5,1885.7c10.9,11,26.7,17.1,42.2,16.2"/>
	<path class="st0" d="M1398.4,1875.2c-5.6-0.4-11.1-1.7-16.3-3.7c40.5-3.5,81.2-5.5,121.9-6"/>
	<path class="st0" d="M1423.6,1875.2c-3.6-27.4-5-55-4.2-82.6"/>
	<path class="st0" d="M1445.2,1879.6c-8.9-24.9-11.8-52-8.3-78.2"/>
	<path class="st0" d="M1462.8,1870.2c-2.1-18.8-4.2-37.7-6.3-56.5c-0.8-6.8-1.2-14.5,3.5-19.4"/>
	<path class="st0" d="M1497.6,1873.8c-3.8-23.9-5.2-48.1-4.2-72.2"/>
	<path class="st0" d="M1503,1867.1c5.9-5.2,11.9-11.2,13.7-18.9c2.6-10.9-3.8-21.6-8.2-31.9c-6.3-14.7-8.9-31-7.5-47"/>
	<path class="st0" d="M1502.2,1871.9c7.8,7.2,18,11.8,28.6,12.8c2.8,0.3,6.2,0.1,7.9-2.2c2.6-3.3-0.2-7.9-2.8-11.3
		c-16.2-21.8-22.3-50.9-16.1-77.3"/>
	<path class="st0" d="M1542.7,1867c-15.1-17.4-23.1-40.6-22.1-63.6"/>
	<path class="st0" d="M1517.4,1838.6c2.8,0.3,5.6,0.6,8.4,0.2c2.8-0.4,5.5-1.6,7.2-3.8c2.2-2.8,2.4-6.5,2.4-10
		c0.1-10.8-0.6-21.7-3-30.9c4.9,19.7,18.5,37.1,36.5,46.5"/>
	<path class="st0" d="M1517.1,1831.4c3.2,1.9,6.7,3.6,10.4,3.9c3.7,0.4,7.7-0.6,10.2-3.4c2.6-2.8,3.2-6.9,3.1-10.8
		c-0.2-9.2-3.8-17.9-6.7-25.3c3.4,7.3,6.8,14.6,11.3,21.2c4.4,6.7,9.9,12.8,16.8,16.9"/>
	<path class="st0" d="M1550.8,1784.7c0.6,27.6,4.6,55.2,11.8,81.8"/>
	<path class="st0" d="M1622.7,1811.5c9.9,16.2,13.5,36.2,9.8,54.8"/>
	<path class="st0" d="M1640.1,1818.8c-0.1,44.3,1.1,88.6,3.6,132.8"/>
	<path class="st0" d="M1652.2,1850.3c-15.4,19.2-24.8,43.2-26.4,67.7"/>
	<path class="st0" d="M1633.3,1922.8c-2.1-15.5,0.9-31.7,8.5-45.3c7.6-13.7,19.7-24.8,34-31.2"/>
	<path class="st0" d="M1380.6,1919.1c81-9.1,162.3-15.5,243.7-19.2"/>
	<path class="st0" d="M1466.8,1930.9c64.8-7.6,130.2-10.1,195.3-7.4"/>
	<path class="st0" d="M1468.5,1943c66.1-8.6,132.9-11.3,199.5-8.2"/>
	<path class="st0" d="M1635,1917.2c23.3,19.1,52.2,31.1,82.1,34.2"/>
	<path class="st0" d="M1646.1,1851.1c28.2-1.5,56.4-0.2,84.3,3.8"/>
	<path class="st0" d="M1653.4,1846.6c23.3-0.7,46.7,2.5,69,9.5"/>
	<path class="st0" d="M1629.2,1881.2c26.8-27.6,66-42.7,102-39c-11.7,5.2-24.5,7-37.2,9s-25.4,4.4-36.6,10.6
		C1646.2,1868.1,1636.7,1878.7,1629.2,1881.2z"/>
	<path class="st0" d="M1649.8,1834.6c2.1,0.2,3.8,1.8,4.7,3.7s1.2,4,1.6,6.1c1.2,5.6,3.8,10.9,7.6,15.3c1.3,1.6,3.1,3.1,5.1,3
		c2.8-0.1,4.5-3.2,5.6-5.8"/>
	<path class="st0" d="M1637.1,1859c3.5,1.6,7.5,0.5,11.1-0.7s7.4-2.7,11.1-2"/>
	<path class="st0" d="M1750.8,1773.8c6.1,1.1,9.3,8.3,8.5,14.4s-4.6,11.4-7.9,16.6c-11.6,18.2-19.3,38.9-22.3,60.3"/>
	<path class="st0" d="M1780.9,1702.5c5.1,13.6,4.9,29.2-0.7,42.7c-0.9,2.3-2.6,4.8-5.1,4.7c-2.7-0.2-3.8-3.5-4.1-6.2
		c-1.8-16.7,4.4-34.1,16.5-45.9c2.7-2.7,7-5.1,10.1-3c2,1.4,2.6,4,2.9,6.4c2.6,19.7-2.6,39.7-10.8,57.8
		c-8.2,18.1-19.4,34.6-29.9,51.4s-20.3,34.4-25.3,53.6"/>
	<path class="st0" d="M1773.4,1721.6c3.9,20.9,4.8,42.3,2.7,63.5"/>
	<path class="st0" d="M1762.9,1719.9c8.3-21.6,16.5-43.2,23.7-65c3.1,3.3,6.1,6.6,9.1,9.9c0.7,0.7,1.4,1.5,2.4,1.5
		c1.9,0,2.5-2.5,3.6-4.1c1.5-2.1,4.7-2.6,7.1-1.7s4.4,2.7,6.3,4.6c7.5,7.2,15,14.4,22.5,21.6"/>
	<path class="st0" d="M1782.6,1681.1c-0.1-1.3-0.2-2.7,0.2-4s1.3-2.5,2.7-2.7c2.1-0.4,3.7,1.6,4.8,3.4c2.9,5,4.5,10.7,4.8,16.4"/>
	<path class="st0" d="M1813.1,1699.2c-3-3.5-5.9-6.9-8.9-10.4c25.1,48.1,40.3,100.8,66,148.6"/>
	<path class="st0" d="M1857.3,1818.8c29.1,23.7,41.3,63.1,69.2,88"/>
	<path class="st0" d="M1869.1,1825.4c-0.4,5.8-0.9,11.5-0.2,16c-3.3-6.6-6.7-13.2-10-19.8"/>
	<path class="st0" d="M1848.9,1827.7c3-49.9-0.9-100.2-11.5-149.1"/>
	<path class="st0" d="M1854.3,1652.2c9.1,62.2,30,122.8,61.2,177.4"/>
	<path class="st0" d="M1890.2,1807.8c29.4,21.9,50.7,54.4,58.9,90.1"/>
	<path class="st0" d="M1919.3,1868c5.2,11.5,15.4,20.6,27.4,24.3"/>
	<path class="st0" d="M1934.9,1879.3c6.8,2.3,12.7,7,16.7,12.9"/>
	<path class="st0" d="M1960.9,1881.6c4.1,2.4,6.7,7.1,6.6,11.8"/>
	<path class="st0" d="M1926.9,1930.8c3.5-19.7,0.8-40.4-7.4-58.7"/>
	<path class="st0" d="M1883.2,1646.3c-2.9,26.5,3.8,53.3,14,78c10.2,24.7,23.8,47.8,35.5,71.7c2.8,5.7,5.5,11.4,6.6,17.6
		s0.5,12.9-3,18.2c-0.5,0.8-1.2,1.6-2.1,1.5c-1.2,0-1.8-1.3-2.2-2.4c-1.2-3.6-2.5-7.2-3.7-10.8"/>
	<path class="st0" d="M1914.9,1796c-4-10.2-5.7-21.1-7.3-31.9c-2.9-19-5.8-38.8-0.4-57.3"/>
	<path class="st0" d="M1881.8,1683.9c7.7,3.5,15,8,21.6,13.3c2.2,1.8,4.4,3.9,4.6,6.7c0.2,2-0.8,4-2.1,5.6
		c-3.4,4.2-9.2,6.1-14.6,5.7c-5.4-0.3-10.5-2.6-15.2-5.4c-2-1.2-4.1-2.8-4.6-5.1c-0.4-2,0.7-4.1,2.3-5.4c2.8-2.5,7-3,10.6-1.9
		s6.6,3.6,9,6.5c7.4,9.2,8.4,21.8,9.2,33.5"/>
	<path class="st0" d="M1884.1,1634.3c4.2,20.8,9.6,41.2,16.3,61.3"/>
	<path class="st0" d="M1890.7,1612.8c-0.3,16.7,1.3,33.5,4.9,49.8"/>
	<path class="st0" d="M1841.8,1688.1c11.9,39.2,9.6,81.1,7.2,122"/>
	<path class="st0" d="M1639,1936.6c2.7,6.7,9.4,11,16.3,12.8s14.3,1.3,21.4,0.8c14.5-1,29.1-2,43.6-2.9"/>
	<path class="st0" d="M1702.1,1948c36.2,7.9,73.8,9.4,110.5,4.6c25.2-3.3,51.1-9.6,75.8-3.3"/>
	<path class="st0" d="M1712.2,1949.9c93.8-11.6,188.1-18.5,282.6-20.4"/>
	<path class="st0" d="M1720.4,1939.6c65.3-4.7,130.8-7.1,196.2-7.2"/>
	<path class="st0" d="M1828.3,1936.1c25.8-0.5,51.6-3.8,76.6-10"/>
	<path class="st0" d="M1928,1927.7c-4.1,8.3-12.7,14.1-21.9,14.8"/>
	<path class="st0" d="M2001.1,1943.8c-26.3,0.1-52.6,0.4-78.7,0.6c-1.6,2.7-0.4,6.3,1.7,8.5c2.2,2.2,5.2,3.3,8.1,4.3
		c47.6,16.5,98.4,23.5,148.6,20.5"/>
	<path class="st0" d="M1522.1,1806.2c-1.6,15.1-0.6,30.6,3,45.3"/>
	<path class="st0" d="M1527.2,1820.4c-1.4,15.1,0.1,30.6,4.6,45.1"/>
	<path class="st0" d="M1501.3,1768c-2.8,13.1-5.6,27.2-0.5,39.7c3.3,8.2,9.7,14.7,14.1,22.4c8.7,15.4,9.2,35.3,21.3,48.3"/>
</g>
</svg>
