<?xml version="1.0" encoding="utf-8"?>
<!-- Generator: Adobe Illustrator 27.5.0, SVG Export Plug-In . SVG Version: 6.00 Build 0)  -->
<svg version="1.1" id="Layer_1" xmlns="http://www.w3.org/2000/svg" xmlns:xlink="http://www.w3.org/1999/xlink" x="0px" y="0px"
	 viewBox="0 0 2200.8 1978.4" style="enable-background:new 0 0 2200.8 1978.4;" xml:space="preserve">
<style type="text/css">
	.st0{fill:none;stroke:#000000;stroke-miterlimit:10;}
</style>
<g id="Layer_2_copy_3">
	<path class="st0" d="M244.7,494.4c-77-55-156.8-106-239-152.8"/>
	<path class="st0" d="M281.5,506.4C188.1,452,95.7,395.9,4.4,337.9"/>
	<path class="st0" d="M289.9,489.5C193.3,441.5,97.6,391.5,3,339.5"/>
	<path class="st0" d="M228,467.4c-7.3,7.6-7.4,20.2-2.4,29.5s14.1,15.7,23.6,20.3c5.1,2.5,10.6,4.6,16.2,4.6
		c5.7,0,11.6-2.5,14.5-7.4c2.9-4.9,1.5-12.2-3.5-14.8"/>
	<path class="st0" d="M267.7,526.4c-15.8-8.9-27.9-24-33.3-41.4c-2.9-9.5-3.2-21.5,4.7-27.6c7.4-5.7,18.2-3.4,26.4,1
		c12,6.4,21.8,16.6,27.9,28.7c3.4,6.8,5.5,15,2.5,22c-3,7-10.8,11.2-18.3,11.1c-7.6-0.1-14.7-4-20-9.4c-5.3-5.4-8.8-12.3-11.6-19.3
		c-1.4-3.7-2.7-7.5-2.5-11.4c0.1-3.9,1.9-8,5.3-10c4.1-2.3,9.4-1.1,13.1,1.7c3.7,2.8,6.2,7,8.5,11c1.6,2.8,3.2,5.6,3.6,8.7
		c0.4,3.1-0.5,6.7-3.2,8.4c-4.3,2.8-10.4-1-11.9-5.8c-1.5-4.9,0-10.1,1.5-15"/>
	<path class="st0" d="M259.2,518.8c8,5.5,17.2,11.1,26.8,9.2c7.6-1.6,13.6-8.2,16-15.7c2.3-7.5,1.4-15.6-1-23.1
		c-3.9-12.2-12.4-23.6-24.5-27.6s-27.6,1.5-31.7,13.6c-3.6,10.5,2.4,22.5,11.8,28.3c8.4,5.1,19.6,5.8,28,0.7
		c8.4-5.1,12.9-16.3,9.3-25.5"/>
	<path class="st0" d="M232.6,480.7c3.5,19.7,16.9,37.3,34.9,46c8.2,4,17.5,6.1,26.4,4.4c8.9-1.7,17.2-7.8,20.1-16.5
		c2.1-6.6,1-13.8-1.4-20.3c-8.6-23.9-34.2-40.6-59.6-38.9"/>
	<path class="st0" d="M266.5,523.8c15.5,5,33.8-4.7,39.8-19.9c5.9-15.2,0-33.7-12.7-44c-6.6-5.4-15.5-8.7-23.8-6.8
		c-9.5,2.3-16.6,11.5-17.5,21.3s3.7,19.6,10.8,26.3c4.5,4.2,10.1,7.3,16.1,8s12.6-1.2,16.6-5.8c3.7-4.2,5-10,4.7-15.6
		s-2-11-3.6-16.3"/>
	<path class="st0" d="M275.9,489.8c2.7,1.3,6.1,0.4,8.1-1.8c2-2.2,2.6-5.5,1.9-8.4s-2.4-5.5-4.5-7.6c-2.2-2.1-4.9-3.9-8-4
		c-3-0.1-6.3,1.7-7,4.7"/>
	<path class="st0" d="M229.2,481.6C152.9,437.5,78.3,390.3,5.8,340.3"/>
	<path class="st0" d="M248.8,476.4c-41.3-19.4-81.4-41.5-119.8-66.2"/>
	<path class="st0" d="M366,331.3c-88.8,15.1-180.3,14.2-268.8-2.6"/>
	<path class="st0" d="M367.4,326.1c-76.6,18.2-157.1,20.2-234.6,5.6"/>
	<path class="st0" d="M380,290.2c-86.4,28.1-177.7,41.1-268.5,38.2"/>
	<path class="st0" d="M352,298.3c-71.2,18-144.5,27.9-217.9,29.3"/>
	<path class="st0" d="M299.3,331c-53.1,8.6-107.6,8.3-160.6-0.9"/>
	<path class="st0" d="M414.3,432.6c-26.4-33.4-44.5-73.4-52-115.3"/>
	<path class="st0" d="M413.6,424.8c-23.5-33.8-40.1-72.3-48.7-112.5"/>
	<path class="st0" d="M381.1,288.8c12,38.8,33.6,73.9,56.7,107.3c5.5,8,11.3,16.2,13.8,25.6s1.2,20.5-5.8,27.2"/>
	<path class="st0" d="M445.9,452.4c7.3-1.9,11.2-10.5,10.4-18s-4.9-14.2-8.9-20.7c-24.7-40.1-46.2-82.1-64.1-125.6"/>
	<path class="st0" d="M380.2,281.1c1.9,14,8.9,26.7,15.8,39c18.4,33,36.8,66,55.2,99c2.7,4.9,5.5,9.9,6.4,15.5
		c0.9,5.5-0.6,11.8-5.1,15.2"/>
	<path class="st0" d="M410.8,424.6c-15.3-23.6-27.8-49.1-37-75.8"/>
	<path class="st0" d="M392.4,387.3c-10.5-22-17.8-45.6-21.5-69.7"/>
	<path class="st0" d="M411.6,420.4c2.1-1.4,4.9-2.9,7-1.4c1.6,1.1,1.8,3.6,0.9,5.3c-0.9,1.8-2.5,3-4.1,4.2
		c-22.1,16.2-45.7,30-69.3,43.9c-14.8,8.7-29.6,17.3-44.4,26"/>
	<path class="st0" d="M416.5,422c-2.9,6.3-8.9,10.6-14.6,14.5c-33.7,22.7-68,44.4-103,65.1"/>
	<path class="st0" d="M331.6,508.2c38.9-20.6,77.9-41.2,116.8-61.9"/>
	<path class="st0" d="M448.7,451.4C408.1,466,369,484.5,332,506.7"/>
	<path class="st0" d="M443.5,451.2c15.5-3.9,30.5-9.9,44.5-17.6"/>
	<path class="st0" d="M479.8,436.1c-12.5,4.8-25.3,8.6-38.4,11.3"/>
	<path class="st0" d="M337.5,487.5c6.1,19.3,4.1,41.1-5.5,59c7.7-11.7,15.5-23.6,19.6-37c2.8,9.5,4.1,19.5,3.8,29.4
		c1.2-2.6,2.5-5.2,3.7-7.8"/>
	<path class="st0" d="M305.6,519.7c-13,37.2-18.5,77-16.3,116.4"/>
	<path class="st0" d="M300.5,524.4c-12,37.5-15.7,77.5-10.8,116.6"/>
	<path class="st0" d="M321.9,588.2c3.9,17.8,9.4,35.4,18,51.6c4,7.6,10,14.4,13.1,22.4c1.2,3.2,2.1,6.9-0.4,9.8
		c-2.1,2.4-5.5,2.7-8.3,1.5c-7.3-3.3-8-13.3-14.8-17.3"/>
	<path class="st0" d="M323.4,585.2c0.9,12.2,3,24.3,6.3,36"/>
	<path class="st0" d="M323.7,602.7c5.3,19.4,12.9,38.1,22.8,55.6"/>
	<path class="st0" d="M140.9,646.1c-11.5-28.2-22.3-56.8-32.3-85.5c-10.1-28.8-19.4-57.8-28-87c-4.9-16.5-9.5-33.2-13.9-49.9"/>
	<path class="st0" d="M127.9,627.9c-19.7-68.3-39.7-137.3-59.8-204.8"/>
	<path class="st0" d="M110.1,616.9c-18.9-64.3-31.9-129.3-46.5-194.6"/>
	<path class="st0" d="M105.1,612.4C89.2,550.6,75.2,487.6,65,423.1"/>
	<path class="st0" d="M128.3,688.8c-5.1-17.4-11.3-34.4-18.4-51.1"/>
	<path class="st0" d="M129.9,682.4c-3.6-12.6-8.4-24.9-14.2-36.7"/>
	<path class="st0" d="M351.3,668.1c-17.4,4.2-35.5,2.8-53.4,2c-60.1-2.6-120.4,3.2-178.9,17.2"/>
	<path class="st0" d="M122.5,682.4c74.2-16.5,151.2-13,227.1-9.4"/>
	<path class="st0" d="M324.3,668.3c-25.2-0.6-50.4-1.2-75.6-1.9"/>
	<path class="st0" d="M345.6,671.2c2.5-4,2.3-9.6-0.5-13.4"/>
	<path class="st0" d="M287.4,634c-34.3-0.1-68.7-0.2-103-0.2c-18.8,0-38.2,0-55.7,6.8"/>
	<path class="st0" d="M288.5,631.5c-52.1-0.9-104.3,0.1-156.3,2.9"/>
	<path class="st0" d="M166.8,637.2c32.8-2.9,65.8-3.6,98.7-2.3"/>
	<path class="st0" d="M288.1,641.1c-18.9,1-37.8,0.5-56.6-1.5"/>
	<path class="st0" d="M353.1,494.5c14,14.7,20.2,36.3,16.3,56.2"/>
	<path class="st0" d="M348.8,547.7c9.3-10.4,14.2-24.5,13.3-38.4"/>
	<path class="st0" d="M360.1,546.6c3.9-4.4,5.5-10.3,5.7-16.2c0.2-5.8-0.9-11.6-2-17.3"/>
	<path class="st0" d="M305.4,536c5.3,1,10.9-1.7,14.2-6c3.3-4.2,4.6-9.8,4.6-15.2s-1.2-10.7-2.5-15.9"/>
	<path class="st0" d="M326.3,492c1.5,5.9,2.3,12,2.4,18"/>
	<path class="st0" d="M327.1,552C520.4,669.1,713.7,786.2,907,903.3"/>
	<path class="st0" d="M361.1,519.1c194.4,118,388.8,236.1,583.2,354.1"/>
	<path class="st0" d="M363.2,508.5C544.1,626.8,725,745.2,905.8,863.6"/>
	<path class="st0" d="M355.5,527.8c75.9,46.1,151.8,92.1,227.8,138.2"/>
	<path class="st0" d="M350.8,546.7C423.9,595.3,497,644,570,692.6"/>
	<path class="st0" d="M332.8,547.9c193.8,119.5,387.7,238.9,581.6,358.4"/>
	<path class="st0" d="M594.3,696.6c63.4,40.5,126.8,81,190.2,121.4"/>
	<path class="st0" d="M626.7,727.5c24.7,13.5,49.4,27,74.1,40.6"/>
	<path class="st0" d="M366,561.4c34.3,21.3,68.6,42.7,102.8,64.1"/>
	<path class="st0" d="M514.3,648.3c39.7,26.5,79.4,53,119.1,79.5"/>
	<path class="st0" d="M591.1,706.2c18.5,11.6,37.1,23.2,55.6,34.7"/>
	<path class="st0" d="M698.2,771c36.2,22.8,72.3,45.5,108.5,68.3"/>
	<path class="st0" d="M728.3,782.1c34.2,19.6,68.4,39.2,102.6,58.7"/>
	<path class="st0" d="M769,810.8c23.3,12.1,46.6,24.2,69.9,36.3"/>
	<path class="st0" d="M892.1,885.5c-26-11.5-48.8-30.1-65.3-53.2"/>
	<path class="st0" d="M910.8,902.1c-12.9-12.4-25.8-24.8-38.7-37.3"/>
	<path class="st0" d="M838.1,863.4c-12.7-17-25.4-33.9-38.1-50.9"/>
	<path class="st0" d="M776.6,817.6c-7.8-7.6-15.7-15.2-23.5-22.8"/>
	<path class="st0" d="M602.1,678.2c19.4,11.4,38.8,22.7,58.1,34.1"/>
	<path class="st0" d="M698.6,735.1c17.8,10.1,35.5,20.2,53.2,30.3"/>
	<path class="st0" d="M851.4,823.9c25.5,15.1,51,30.3,76.5,45.4"/>
	<path class="st0" d="M336.4,544.2c18.1,11.5,36.2,23,54.3,34.5"/>
	<path class="st0" d="M605.3,714.6c-16-14.6-31.9-29.2-47.9-43.8"/>
	<path class="st0" d="M505.8,649.7c-16.8-14.6-33.6-29.2-50.4-43.8"/>
	<path class="st0" d="M419.1,591.2c-7.6-6.8-15.2-13.5-22.9-20.3"/>
	<path class="st0" d="M360,547.8c4.5-3,9.1-6,13.6-9.1"/>
	<path class="st0" d="M364.4,563.4c10.3-9.9,16.2-24.2,15.8-38.4"/>
	<path class="st0" d="M380.8,529.4c-5.5,10-15.1,17.8-26.1,21.1"/>
	<path class="st0" d="M354.4,513.7c-6.5,12.1-16.5,22.2-28.5,28.9"/>
	<path class="st0" d="M343.2,664.9c-5.5-13.7-11-27.5-16.4-41.2"/>
	<path class="st0" d="M176.3,668.7c19.9-1.7,39.7-3.5,59.6-5.2"/>
	<path class="st0" d="M891.4,873.5c-1.8-1.9-3.5-3.8-5.3-5.7c7.5,11.9,15,23.8,22.4,35.7"/>
	<path class="st0" d="M895.6,888.1c1-8.8,10.4-15.7,19.1-13.9c8.7,1.8,14.7,11.8,12.1,20.3"/>
	<path class="st0" d="M992.8,826.6c-15.4-0.6-30.6,9.2-36.6,23.3c-13.2,31.3-32.5,59.9-56.6,83.8"/>
	<path class="st0" d="M936,950.7c-7,3.3-15.5,3.2-22.3-0.4c-6.8-3.5-11.9-10.4-13.2-18"/>
	<path class="st0" d="M904.6,928.8c-6.6,11.1-4.5,26.7,4.9,35.6s25,10.3,32.6,3.8c-6.3,10-21.6,12.9-31,5.8
		C901.5,966.8,900,951.3,904.6,928.8z"/>
	<path class="st0" d="M908.8,929.9c-0.3,17.2,10.7,34,26.5,40.7"/>
	<path class="st0" d="M935,916.8c6.7-16.5,16.9-31.6,29.8-43.9"/>
	<path class="st0" d="M949.6,884.9c-1.7-0.7-3.4-1.4-5-2.1c4.5-6.1,11.3-10.6,18.7-12.2"/>
	<path class="st0" d="M952,869.2c17.4,32.3,45.7,58.6,79.2,73.6"/>
	<path class="st0" d="M980,918.2c7.6-3.8,15.3-7.7,22.9-11.5"/>
	<path class="st0" d="M968.7,878.3c21.8,16.5,40.1,37.5,53.5,61.3"/>
	<path class="st0" d="M964.3,864.4c20.8,18.5,38.6,40.5,52.2,64.9"/>
	<path class="st0" d="M1031.2,902.5c-5.3-0.5-10.6,2.9-12.5,7.8c-1.9,4.9-0.2,11,4,14.2c9.9,7.5,19.8,15,29.6,22.4"/>
	<path class="st0" d="M1029.1,948.8c8.4-10.1,16.8-20.1,25.2-30.2"/>
	<path class="st0" d="M1021.5,946.6c2.8,4.7,8.3,7.7,13.8,7.5s10.8-3.5,13.3-8.4c4.6-8.9,11.6-16.6,20.1-22"/>
	<path class="st0" d="M1017.2,965.3c20.6-3.8,39-18.1,48.3-38.5c-7.2,1.3-14.4,2.6-21.6,3.9"/>
	<path class="st0" d="M1032.2,915.8c0.8-5.2,1.7-10.4,2.6-15.6c-3.5,4-7.1,8-10.6,11.9c-4.2,4.7-4.8,11.9-2.7,17.8
		c2.2,5.9,6.9,10.6,12.2,14c5.3,3.4,11.3,5.5,17.2,7.7"/>
	<path class="st0" d="M1001.5,828.4c26.2,23.3,46.6,53.1,58.7,86"/>
	<path class="st0" d="M994.3,835.9c-0.3-7-0.6-14-0.9-21c22,14.2,40.5,33.6,53.6,56.2"/>
	<path class="st0" d="M965.6,876.8c9.4,11.2,18.8,22.5,28.3,33.7"/>
	<path class="st0" d="M1030.3,938.3c-8.8,2.6-17.6,5.2-26.3,7.9"/>
	<path class="st0" d="M926.9,965.5c2.2,3.5,8.5,3.3,10.4-0.5c7.6,25.1,30.2,45,56,49.3"/>
	<path class="st0" d="M938.3,988c-5.4,0.3-10.7,0.5-16.1,0.8c21.5,4,42,14,58.3,28.6"/>
	<path class="st0" d="M955.1,990.3c1.2,8.2,2.3,16.5,3.5,24.7c0.5,3.6,4.1,6.4,7.6,6.1c10.4-0.8,21.2,3.1,28.6,10.4"/>
	<path class="st0" d="M1003.3,1021.3c-2.5,2.8-7.4,0.8-9.3-2.4c-1.9-3.2-2-7.2-3.4-10.6s-5-6.7-8.5-5.3c-8.2,3.2-17.5,3.2-25.7,0"/>
	<path class="st0" d="M1001,1039.3c6.8,5.1,13.7,10.3,21.9,12.5c8.2,2.2,17.9,0.7,23.2-5.9c8.9-11,17.8-22,26.7-33.1"/>
	<path class="st0" d="M1060.4,945.4c-0.9,1.3-1.9,2.6-2.8,3.9c-21.9-10.2-43.9-20.4-65.8-30.5"/>
	<path class="st0" d="M1014.8,1022.3c5.8,10,16.3,17.1,27.7,18.8s23.5-2,32-9.9c10.9-10.1,23.4-18.5,37-24.7"/>
	<path class="st0" d="M1024.7,946c12.8,5.2,29.2-1.2,35-13.8"/>
	<path class="st0" d="M1001.4,832.5c28.4,12.5,48.5,41.8,50.1,72.8"/>
	<path class="st0" d="M1061.9,926.3c2.5-17.6-1.4-36-10.8-51"/>
	<path class="st0" d="M995.6,826c-11.3-0.8-22.8,4.7-29.3,13.9c-20.4,28.7-40.8,57.4-61.2,86.1"/>
	<path class="st0" d="M904.2,954.8c-1.3,11.9,7.7,23.9,19.4,26.2"/>
	<path class="st0" d="M987.7,1013.3c-23.6-0.7-46-17.5-50.8-41.8C946.8,991.3,964,1007.2,987.7,1013.3z"/>
	<path class="st0" d="M980.3,1024.7c8.1,2.6,15,8.4,18.9,16"/>
	<path class="st0" d="M1006.8,1044.5c10.5,2.9,21.1,5.9,31.6,8.8"/>
	<path class="st0" d="M1005.7,1020.9c-1.6,3.5-7,2.8-9.7,0s-3.7-6.7-6.2-9.6s-7.6-4.4-9.8-1.3"/>
	<path class="st0" d="M997,900.1c16.3,14.8,29.9,32.6,39.9,52.2"/>
	<path class="st0" d="M1027.5,904.2c-5.7,2.7-9.4,8.9-9.3,15.2s4.2,12.3,9.9,14.8c9.2,4,17.5,10.1,24,17.8"/>
	<path class="st0" d="M1023,946.2c7.1,5.8,16.2,9.2,25.4,9.3"/>
	<path class="st0" d="M960.2,881.4c14,20.3,33.2,37.1,55.2,48.1"/>
</g>
<g id="Layer_3">
	<path class="st0" d="M1059.5,885.5c1.3-36.3,2.6-72.6,3.9-108.9c31.7-9.8,63.2-24.1,93.6-43.7c-25.5,18.5-50.9,37.1-74.3,51.2
		c-7.5,22.8-10.8,47-9.7,71"/>
	<path class="st0" d="M1070.9,792.3c1.9,28.2,3.8,56.4,5.7,84.5c3.5,51.3,7.4,104.3,31.3,149.8"/>
	<path class="st0" d="M1073.4,839.4c7.1,75.3,43,146.7,42.8,222.3"/>
	<path class="st0" d="M1114.7,1045.8c19.9,59.2,53.7,112.6,87.2,165.4"/>
	<path class="st0" d="M1157.8,1156.8c-5.4-37.4-5.3-75.7,0.1-113.1c5.4-37.6,16.6-73.6,31.7-108.4c8.2-19.1,16.8-38.5,19.3-59.3"/>
	<path class="st0" d="M1299,840.7c3.4-4,6.8-8,10.1-12c0.6-0.7,1.5-1.5,2.4-1.2c0.6,0.2,0.9,0.9,1.1,1.5c6.6,18.6,9.9,38.4,9.7,58.1
		"/>
	<path class="st0" d="M1319.2,803.6c8,8.3,15.1,17.4,21.1,27.2"/>
	<path class="st0" d="M1264.6,670.6c0.3-2.2,2.2-4.2,4.4-4.5c17.6,38.2,27.6,79.8,29.4,121.7"/>
	<path class="st0" d="M1281.7,697.4c21,53.8,29,112.5,23.3,170"/>
	<path class="st0" d="M1171.1,634.9c9.5-1.5,19-3,28.6-3.1c9.6-0.1,19.3,1.4,27.9,5.6"/>
	<path class="st0" d="M1188.2,628.3c11.3,4.8,21.9,11.1,31.7,18.5"/>
	<path class="st0" d="M1237.3,639.7c5.1,3.9,9.7,8.6,13.4,13.8"/>
	<path class="st0" d="M1235.3,634.4c5.5,3.8,10.4,8.3,14.7,13.4"/>
	<path class="st0" d="M1251.9,637.7c27.8,38.7,54.4,78.3,79.3,117.1c9.1,14.5,19.2,28.4,30.3,41.5c5.7,6.7,11.7,13.3,16.2,20.9
		s7.5,16.4,6.5,25.2"/>
	<path class="st0" d="M1333.6,751c12.3,8.1,21,20.8,27.1,34.2c6.1,13.5,9.8,27.8,14.3,41.9c4.5,14.1,9.8,28.1,18.6,39.9"/>
	<path class="st0" d="M1307,729.9c21,11.3,44.4,18.3,68.2,20.4"/>
	<path class="st0" d="M1305.1,721.4c12.6,10.4,27,18.6,42.3,24.2"/>
	<path class="st0" d="M1342.6,603.7c-5.1,9.7-13.9,17.3-24.2,20.9c-10.3,3.7-21.9,3.3-32-1c-9-3.8-17.2-10.8-29.2-10.7
		c-0.7,4.2,2,8.2,5.1,11.1c12.1,11.5,31.1,13.5,46.9,8.3C1325,627,1338.1,615.7,1342.6,603.7z"/>
	<path class="st0" d="M1339.2,600.7c-14.8-8.5-32.1-12.9-49.2-12.4c-17.1,0.5-34.1,5.8-48.4,15.2"/>
	<path class="st0" d="M1340.4,596.8c-26.8-13.7-59-16.5-87.8-7.7"/>
	<path class="st0" d="M1327.9,597.4c-19.7-2.6-39.4-4.6-59.2-6"/>
	<path class="st0" d="M1274.4,591c-2.5,7.9-4,16-4.4,24.3c-0.1,2.2,0,4.7,1.8,6"/>
	<path class="st0" d="M1278.8,591.5c-2,9.5-2.4,19.4-1.3,29.1"/>
	<path class="st0" d="M1284.6,593c-0.1,10.5-0.2,20.9-0.3,31.4"/>
	<path class="st0" d="M1292.1,593.5c0.2,10,0.5,20,0.7,30"/>
	<path class="st0" d="M1300.6,595c0.2,11.6,0.5,23.2,0.7,34.8"/>
	<path class="st0" d="M1311.4,592.8c-0.3,10.9-0.7,21.7-1.1,32.6"/>
	<path class="st0" d="M1321,595c-0.6,10.3-1.1,20.6-1.7,30.8"/>
	<path class="st0" d="M1316.2,592.3c4.3,8.9,7.8,18.2,10.7,27.7"/>
	<path class="st0" d="M1339.9,601.6c-5.5,9.2-14.2,16.5-24.2,20.2"/>
	<path class="st0" d="M1277.7,620.6c14.7,4.9,31.4,3.7,45.2-3.3"/>
	<path class="st0" d="M1258.1,589.9c2.6,4.6,5.2,9.2,6.1,14.4c0.9,5.2-0.3,11-4.3,14.4"/>
	<path class="st0" d="M1342.4,592.8c-11.3-1.9-22.9-2.4-34.4-2.9c-26.2-1.2-52.5-2.3-78.7-3.5"/>
	<path class="st0" d="M1298.6,589.9c-27.1-8.4-55.3-13.5-83.6-15.2"/>
	<path class="st0" d="M1255.5,593.2c-6.4-2.9-13.4-4.7-20.5-5.2"/>
	<path class="st0" d="M1256.3,598c-5.2-5.2-12.4-8.3-19.8-8.6"/>
	<path class="st0" d="M1256.6,601c-4.2-2.7-9-4.3-13.9-4.8"/>
	<path class="st0" d="M1304.7,568.6c1.8,9.7,6.5,18.9,13.3,26"/>
	<path class="st0" d="M1302.1,574.4c1.9,5.5,4.6,10.8,7.8,15.6"/>
	<path class="st0" d="M1285.8,576.5c3,4.6,6.6,8.8,10.6,12.5"/>
	<path class="st0" d="M1279.5,561.8c5.6,4.5,11.8,8.2,18.5,10.8"/>
	<path class="st0" d="M1316.5,554.5c-1.5,7.5-1.5,15.3,0.1,22.7c0.6,2.9,1.5,5.8,3.1,8.2s4.2,4.4,7.1,4.8"/>
	<path class="st0" d="M1298.9,561.5c22.5-16.5,48.5-28.4,75.7-34.5"/>
	<path class="st0" d="M1301.3,565.5c8.6-3.5,17.2-6.9,25.7-10.4"/>
	<path class="st0" d="M1298.9,556.7c9.5-12.2,22.2-21.8,36.5-27.7"/>
	<path class="st0" d="M1305,554c17.5-15.1,39.2-25.3,62-29.2"/>
	<path class="st0" d="M1315.2,551.3c16.8-7.8,34.2-14.3,51.9-19.4"/>
	<path class="st0" d="M1390.2,528.4c-2.8-1.7-5.7-3.5-9-4.1c-3.2-0.6-7,0.1-9.1,2.7c-1.4,1.8-1.9,4.1-2,6.4
		c-0.2,7,3.6,13.8,9.4,17.6c3.1,2,7.1,3.2,10.6,2c3.6-1.3,6-4.9,6.4-8.7s-0.9-7.5-3.1-10.7S1388.5,528,1390.2,528.4z"/>
	<path class="st0" d="M1376.9,528.8c0,4.9,1.2,9.7,3.7,13.9c0.8,1.3,1.7,2.6,3,3.4c1.3,0.8,3.1,1,4.4,0.1c1.4-1,1.7-2.9,1.7-4.5
		c-0.1-4.4-2.4-8.6-5.8-11.2c-1.8-1.4-4-2.3-6.3-2.2s-4.6,1.3-5.6,3.3c-1.1,2.3-0.5,5,0.3,7.5c1,3,2.3,6.1,4.7,8.2
		c2.4,2.1,6.2,2.9,8.8,1c2.3-1.7,2.9-4.8,2.7-7.6c-0.3-4.5-2.5-8.8-5.9-11.7c-2.3-2-5.8-3.3-8.2-1.5c-1.9,1.5-2.2,4.3-1.8,6.8
		c0.8,5.9,4.2,11.8,9.8,14c2.3,0.9,5.2,1,6.8-0.9c1.3-1.5,1.2-3.7,0.9-5.7c-0.8-4.4-2.6-8.6-5.2-12.2c-1.2-1.6-2.8-3.2-4.8-3.3
		c-2.9-0.1-4.8,3-5.4,5.8c-1.4,7,2.5,14.8,9,17.8c1.6,0.7,3.3,1.2,5,1.1c1.7-0.1,3.4-1,4.3-2.5c1.2-2,0.7-4.7,0-7
		c-1.5-5.2-3.9-11-9-12.9c-2.5-0.9-5.8-0.5-7,1.8c-0.6,1-0.6,2.2-0.6,3.4c0.2,5.7,2.7,11.2,6.8,15.1c1.8,1.7,4.2,3.1,6.6,2.4
		c2.2-0.7,3.4-3.1,3.8-5.4c0.5-3.3-0.2-6.7-1.3-9.9c-1-2.8-2.4-5.7-4.9-7.4s-6.2-2-8.3,0.2c-1.8,1.9-1.9,4.8-1.4,7.3
		c0.6,3.5,2,6.9,4.1,9.8c1.8,2.5,4.9,4.9,7.7,3.7c2.1-0.9,3-3.3,3.3-5.6c0.5-4.1-0.5-8.3-2.7-11.7c-1.1-1.6-2.8-3.2-4.7-2.8
		c-1.7,0.3-2.8,2.2-2.8,3.9c0,1.7,0.7,3.4,1.4,5c0.7,1.5,1.4,3.1,2.8,4.1c1.3,1,3.4,1.3,4.6,0.2c1.7-1.5,0.8-4.3-0.2-6.4
		c-0.7-1.5-1.6-3.1-3.2-3.5c-2.1-0.5-4,1.5-4.3,3.6s0.6,4.2,1.4,6.1c0.5,1.2,1.5,2.7,2.8,2.3c1-0.3,1.4-1.5,1.5-2.5
		c0.2-2.5-0.4-5-1.7-7.1c-0.7-1.2-2-2.3-3.3-1.9c-1.3,0.5-1.5,2.4-1.2,3.8c0.7,3,2.6,5.8,5.1,7.6c1.3-4,0.1-8.7-3.1-11.6
		c-1.4-1.3-3.7-2.2-5.2-1c-1.4,1.1-1.3,3.2-0.9,5c0.7,2.7,1.8,5.3,3.4,7.6c0.8,1.2,2,2.5,3.4,2.5c1.3,0,2.5-1,2.9-2.3s0.3-2.6,0-3.9
		c-0.7-3.2-2.6-6.2-5.1-8.3c-0.8-0.7-2-1.3-2.9-0.8c-0.9,0.5-1.1,1.7-1.1,2.8c0.2,5,2.9,9.9,7,12.8c0.9-5.7-1.5-11.8-6-15.3
		c-0.6,4.3,1.1,9,4.4,11.9c0.6,0.6,1.4,1.1,2.3,0.9c1.5-0.3,1.6-2.4,1.2-3.8c-0.7-2.5-1.8-4.9-3.2-7c-0.4-0.7-1.1-1.3-1.9-1.3
		c-1.4,0-1.7,2-1.4,3.4c0.8,3.3,2.5,6.3,4.9,8.7c1-5.3-2-11-6.9-13.2c-0.3,4.4,0.8,8.9,3.1,12.6c0.8,1.3,1.8,2.6,3.2,3.2
		c2.2,0.9,4.9-0.4,6.1-2.5c1.2-2.1,1.1-4.7,0.2-7s-2.3-4.2-3.7-6.2c-1.6-2.1-3.3-4.3-5.8-5.1c-4.1-1.3-8.6,2.3-9.5,6.5
		s1,8.6,3.5,12.1c2.4,3.4,6,6.5,10.2,6.5c4,0,7.6-3.1,8.7-6.9s0.1-8.1-2.2-11.3c-2.3-3.2-5.7-5.6-9.4-7.1c-2-0.8-4.2-1.5-6.3-1
		c-3.9,1-5.6,5.6-5.8,9.6c-0.2,5.8,1.9,11.9,6.7,15.2s12.1,2.9,15.5-1.8"/>
	<path class="st0" d="M1408.1,612.8c1.3-15.3,0.6-30.8-1.9-46c-1.3-7.8-3.4-16.1-9.5-21.2"/>
	<path class="st0" d="M1395.5,538.8c9.3,9.3,14.2,22.3,15.9,35.3s0.4,26.3-1.2,39.3"/>
	<path class="st0" d="M1417.9,598.9c-11.3,11.5-20.8,24.7-28.1,39.1"/>
	<path class="st0" d="M1418.7,602.6c-4.6,16.2-16.3,30.3-31.5,37.8"/>
	<path class="st0" d="M1342.7,601.2c8.6,13.4,22.2,23.5,37.6,27.8"/>
	<path class="st0" d="M1337.6,611.9c7.3,5.9,16.3,9.6,25.5,11.7c9.2,2.2,18.6,2.9,28,3.7"/>
	<path class="st0" d="M1334.4,615.6c6.8,5.8,15.7,8.7,24.6,9.8s17.9,0.4,26.8-0.2"/>
	<path class="st0" d="M1339.9,606.4c10.2,15.9,26.7,27.7,45.1,32.2"/>
	<path class="st0" d="M1341.9,616.7c-2.7,6.2,1,13.6,6.6,17.4s12.5,4.8,19.2,5.7c7.9,1.1,15.9,2.1,23.9,1.4s16-3.4,21.7-9"/>
	<path class="st0" d="M1410.9,596.6c0.1,12.4,0.2,24.9-1.8,37.2c-1.9,12.3-6,24.4-13.4,34.4"/>
	<path class="st0" d="M1281.6,544.9c21.5-14.1,43.1-28.3,64.6-42.4"/>
	<path class="st0" d="M1331.3,517.2c16.4-12.6,34.6-23,53.8-30.6"/>
	<path class="st0" d="M1299.3,535.6c16,0.7,32.1,0.1,48-1.8"/>
	<path class="st0" d="M1321,523c16.4-2.4,33-3.2,49.5-2.3"/>
	<path class="st0" d="M1337,517.9c15.1-2.5,30.1-6.1,44.7-10.8"/>
	<path class="st0" d="M1342.6,510.5c15.4-5,31.7-7.5,47.9-7.2"/>
	<path class="st0" d="M1360,504.4c14.3-7.7,29.8-13.1,45.8-15.9"/>
	<path class="st0" d="M1374.1,500.7c14.6-1,29.2-2.1,43.7-3.1"/>
	<path class="st0" d="M1387.6,489.5c9.2,3.4,18.3,6.7,27.5,10c1.8,0.7,3.7,1.3,5.1,2.6c3.1,2.6,3.9,7.1,4.1,11.2
		c0.2,4.1,0.1,8.4,2.2,11.9"/>
	<path class="st0" d="M1408.6,507.9c0.4-5.7,0.8-11.4,1.2-17.1c0.1-0.7,0.1-1.5,0.5-2.1c0.7-1,2.2-1.2,3.4-0.9
		c2.6,0.5,4.8,2.4,6.5,4.5c3.2,3.6,5.8,7.9,8.3,12c2.3,3.8,4.6,7.6,6.9,11.5"/>
	<path class="st0" d="M1403.6,495.2c-13.1-1.1-26.4,1.5-38.1,7.5"/>
	<path class="st0" d="M1377.2,509.6c-12.4,6.1-26.3,9.3-40.1,9.4"/>
	<path class="st0" d="M1363.5,524.9c-14.2-1.6-28.8-0.3-42.5,3.8"/>
	<path class="st0" d="M1329.4,534.4c-14.2-2.3-29.2,1.9-40.2,11.1"/>
	<path class="st0" d="M1313,544.2c-7.7-0.8-15.5-1.5-23.2-2.2"/>
	<path class="st0" d="M1283.9,544.8c1.6,5.4,7.4,8.8,13,8.9c5.6,0.1,11-2.7,15.2-6.4"/>
	<path class="st0" d="M1280.7,548.9c0.2,4.3,3,8.2,6.8,10.1c3.8,2,8.3,2.2,12.5,1.3s8-3,11.6-5.3"/>
	<path class="st0" d="M1255.8,543.1c9.7-0.3,19.3-0.6,29-0.9"/>
	<path class="st0" d="M1285.7,516.5c6.7,3.9,15,4.4,22.6,3.1c7.7-1.3,14.9-4.3,22.1-7.3"/>
	<path class="st0" d="M1262,506.3c4.6,4.4,9.4,8.6,14.3,12.5c2.4,1.9,5.3,3.9,8.4,3.4"/>
	<path class="st0" d="M1297.9,521.9c5.7,2.2,11.9,3.1,18,2.5"/>
	<path class="st0" d="M1338.2,514.6c-5.4,0-10.6,2.2-15.3,4.9c-4.7,2.6-9.2,5.8-14.2,7.8s-10.8,3-15.8,1.1"/>
	<path class="st0" d="M1277,526.7c1.4,3.1,4.5,5.2,7.9,6.1s6.8,0.5,10.2-0.1s6.7-1.6,10.1-2.1"/>
	<path class="st0" d="M1290.1,536.2c-13-0.5-25.6-8.4-30.2-18.7c1.7,5.7,3.3,11.4,6.3,16.5C1269.2,539.1,1273.7,543.6,1290.1,536.2z
		"/>
	<path class="st0" d="M1238.1,501.6c4.4,8.4,9,16.9,15.4,23.9s15.2,12.3,24.7,12.6"/>
	<path class="st0" d="M1232.4,502.1c4.6,15.9,14.5,30.2,27.7,40.1"/>
	<path class="st0" d="M1223.5,500.5c-2.2,7.9-0.4,16.8,4.8,23.2c7.4,9.1,20.3,12.4,27.9,21.4"/>
	<path class="st0" d="M1240.2,505.7c1.8,14.3,8.5,27.9,18.6,38.2"/>
	<path class="st0" d="M1231.3,502.6c1.1,7.3,2.4,14.6,5.4,21.3s7.9,12.8,14.6,15.9"/>
	<path class="st0" d="M1296.4,536.6c9.9-5.6,20.7-9.6,31.8-11.7"/>
	<path class="st0" d="M1303,532.2c12,1.6,24.4,0.4,35.9-3.3"/>
	<path class="st0" d="M1379.8,521.5c-17.6,1.8-34.8,7.9-49.5,17.7"/>
	<path class="st0" d="M1305.6,569.4c2.9,8.4,8.3,15.8,15.4,21.3"/>
	<path class="st0" d="M1342.9,508.5c12.4-6.1,24.7-12.3,37.1-18.4c9.1-4.5,18.3-9,28.2-10.9c12-2.2,24.4-0.3,35.8,3.9
		c11.4,4.2,21.9,10.6,31.9,17.5"/>
	<path class="st0" d="M1500.8,519.7c13.5,9.2,27.1,18.3,40.8,28.6c3-1.3,6.3-2.5,9.3-1.5c2.2,0.7,3.9,2.5,5,4.5
		c1.1,2,1.7,4.3,2.2,6.5"/>
	<path class="st0" d="M1337.4,592.9c3.3-0.7,6.9,1.2,8.3,4.3c1.4,3.1,0.4,7-2.2,9.1"/>
	<path class="st0" d="M1344.2,598c89.7-20.4,181.5-31.3,273.4-32.5"/>
	<path class="st0" d="M1337.6,608.1c85.5-21.3,173-34.8,261-40.3"/>
	<path class="st0" d="M1443.9,425.5c21.1,41.3,51.7,77.8,88.6,105.9"/>
	<path class="st0" d="M1500.2,518.9c9.3,3.8,18.6,7.5,27.9,11.2"/>
	<path class="st0" d="M1573.6,549.6c8.5,1.5,16.4,5,24.7,7.3c8.3,2.4,17.2,3.6,25.3,0.7"/>
	<path class="st0" d="M1593.4,580c-2.3-0.1-4.2-2.3-4.4-4.7c-0.1-2.3,1.2-4.6,3-6c1.8-1.5,4.1-2.2,6.4-2.8c9.6-2.3,19.6-1,29.2,1.2"
		/>
	<path class="st0" d="M1619.1,559.9c-0.6,1.6,0,3.5,1.1,4.8s2.7,2.2,4.2,3c7.4,4,15.2,7.2,23.1,9.8c3.4,1.1,6.9,2,10.4,1.8
		s7.1-1.8,9-4.8"/>
	<path class="st0" d="M1617.1,568.4c15.9,4.8,29.6,16.7,36.7,31.8c7.1,15.1,7.5,33.2,1,48.5c-2.7,6.4-6.7,12.5-12.6,16
		c-6.9,4.1-15.3,4.2-23.3,3.7c-13.3-0.9-26.6-3.3-38.8-8.4c-12.3-5.1-23.6-13.1-31.5-23.8"/>
	<path class="st0" d="M1552.2,619.5c-1.5,14.7,1.7,29.9,8.9,42.8"/>
	<path class="st0" d="M1558.6,628.2c0.3,18.2,7,36.1,18.6,50.1"/>
	<path class="st0" d="M1569.3,645.9c1,12.2,6.6,24,15.4,32.5"/>
	<path class="st0" d="M1578.1,654.8c4.5,5.8,9.5,11.4,14.8,16.5"/>
	<path class="st0" d="M1591.9,662.5c4,5.8,9,11,14.8,15"/>
	<path class="st0" d="M1620.3,667c7.6-2.3,14.1-8,17.4-15.2c3.3-7.2,3.5-15.8,0.4-23.1"/>
	<path class="st0" d="M1636.8,649.1c10.6-5.7,16.3-18.5,15.2-30.5c-1.1-12-8.1-22.9-17.5-30.4s-21-11.8-32.7-14.4"/>
	<path class="st0" d="M1625.9,585.6c6.3,8,9,18.7,7.4,28.7"/>
	<path class="st0" d="M1640.5,585.7c6.5,6.4,10.8,14.8,12.3,23.8c1.5,9,0.1,18.4-4,26.5"/>
	<path class="st0" d="M1592.8,599.1c12.3-0.4,24.5,6.3,30.8,16.8"/>
	<path class="st0" d="M1596.8,626.2c1.9-2.3,2.9-5.2,2.9-8.2c0-1.5-0.3-3-0.4-4.5c-0.1-1.5,0.1-3.1,0.9-4.3c0.8-1.2,2.5-2,3.9-1.6
		c1.2,0.4,1.9,1.6,2.2,2.8c0.3,1.2,0.1,2.5-0.1,3.7c-0.1-0.1-0.1-0.2-0.1-0.4"/>
	<path class="st0" d="M1188.8,604.6c18.4,10.9,40.6,15.4,61.7,12.4"/>
	<path class="st0" d="M1213.4,622c10.5,5.6,23.1,7.1,34.6,4.1"/>
	<path class="st0" d="M1208.6,588.3c-4,1.5-8.5,0.2-12.6-1.2c-7.4-2.7-14.5-6-21.3-9.9"/>
	<path class="st0" d="M1182.2,586c6.4,4.4,13.7,7.6,21.2,9.4"/>
	<path class="st0" d="M1255.4,548.2c-2.5-0.7-5.1-1.5-7.6-2.2c-5.1,10.2-11.6,19.7-19.1,28.2"/>
	<path class="st0" d="M1259.9,619.3c1.4,3.9,5.4,6.1,9,8c10.7,5.5,22.1,11,34,10.2c8.2-0.6,16-4.2,22.3-9.5
		c6.3-5.3,11.1-12.2,14.5-19.7"/>
	<path class="st0" d="M1341.4,617.2c-0.4,5.4,2.3,10.8,6.4,14.5c4,3.7,9.1,6,14.3,7.8c8,2.8,16.5,4.5,24.9,4.1
		c8.5-0.4,17-3,23.6-8.3"/>
	<path class="st0" d="M1304.5,556.5c13.6-10.2,28-19.4,43.1-27.3"/>
	<path class="st0" d="M1288.7,535.3c-10.4,4.1-22.5,4-32.8-0.3c-1.9-0.8-3.9-1.8-5.2-3.5c-2.2-3.1-1.4-7.3,2.1-12.8
		c-0.2,3.5-0.2,7.3,1.6,10.3c1.8,2.9,5.1,4.7,8.5,5.3c3.4,0.6,6.8,0.2,10.2-0.1"/>
	<path class="st0" d="M1069.6,796c-2.8,58-5.7,116.2,0.3,174c6,57.7,21.2,115.4,52,164.6"/>
	<path class="st0" d="M1061.3,1033.5c17.4,27.1,38.6,51.7,62.8,72.9"/>
	<path class="st0" d="M1141.2,1154.1c-45-95.5-70.2-200.3-73.7-305.8"/>
	<path class="st0" d="M1075.1,857.4c7.3,110.8,36.6,220.1,85.8,319.7"/>
	<path class="st0" d="M1129.7,1098.8c19.5,45.4,41.4,89.8,65.5,132.9"/>
	<path class="st0" d="M1064.6,1047.1c17,22.7,35.7,44.1,56,63.9"/>
	<path class="st0" d="M1056,1055.5c30.7,47.9,64.1,94,100.1,138"/>
	<path class="st0" d="M1064,1053.8c17.1,28.7,36.4,56,57.7,81.7"/>
	<path class="st0" d="M1078.4,1065c17.9,27.9,38.2,54.4,60.4,79.1"/>
	<path class="st0" d="M1108.1,1082.1c13.4,45.4,34.1,88.6,59.2,123.6c20.3,32.8,45.1,63,73.3,89.3"/>
	<path class="st0" d="M1140.7,1140.4c19.4,58.3,55.2,111.1,102.3,150.6"/>
	<path class="st0" d="M1147.6,1151.4c19.7,41.4,44.3,80.5,73.1,116.2"/>
	<path class="st0" d="M1188.7,1214.7c7.2,9.7,15,19,23.3,27.7"/>
	<path class="st0" d="M1194.7,1234.3c10.1,29.6,23.9,58,40.8,84.3"/>
	<path class="st0" d="M1138,1130.3c-20.6,83.8-13.5,174.2,19.7,253.9"/>
	<path class="st0" d="M1139.8,1153.2c-8.1,43.2-7.2,87.9,2.6,130.7"/>
	<path class="st0" d="M1139.7,1195.1c-2.1-11.7-0.9-23.6-0.8-35.4c0.2-11.8-0.8-24.1-6.4-34.5"/>
	<path class="st0" d="M1145.1,1193.1c-2.6-19.5-5.1-39-7.6-58.5"/>
	<path class="st0" d="M1081.1,1314.9c-2.4-5.3-6.6-9.4-10.6-13.6s-7.8-8.8-9.2-14.4c-1.3-5.6,0.7-12.4,6-14.8c8.2-3.7,18,5.1,26.5,2
		c3.2-1.1,5.9-3.8,9.2-3.8c3,0,5.6,2.4,6.8,5.2s1.3,5.8,1.4,8.9c1.1,31.8,3.5,63.6,8.2,95.1c0.9,5.7,1.9,11.6,4.9,16.5
		c3.1,4.9,8.8,8.6,14.5,7.6"/>
	<path class="st0" d="M1072.8,1322.3c-2.7-8.9-4.7-18.2-4.3-27.5s3.6-18.7,9.9-25.5c4.6-4.9,12.2-8.3,18-5c2.8,1.6,4.6,4.3,6.4,6.9
		c6.5,9.8,13,19.5,19.4,29.3"/>
	<path class="st0" d="M1070.7,1301.6c-0.4-7.4,0.6-15.2,4.5-21.6c3.9-6.3,11.2-11,18.6-10.2c9.5,0.9,16.1,9.7,20.8,18
		s9.2,17.7,17.8,21.7"/>
	<path class="st0" d="M1122.4,1288.6c-6.2,19.7-5.1,41.6,3,60.5c8.1,19,23.1,34.9,41.6,44.1"/>
	<path class="st0" d="M1115.2,1306.5c1.3-1.6,1.2-3.9,1.6-6s2.3-4.2,4.2-3.6c1.3,0.4,1.9,1.8,2.3,3.1c2.3,7.3,2.6,15.2,4,22.7
		c1.4,7.6,4.3,15.3,10.3,20.1"/>
	<path class="st0" d="M1132.4,1323c0-2.2-3.1-3.3-5-2.3c-1.9,1-2.9,3.2-3.7,5.3c-4.8,13.6-4.3,29,1.2,42.3
		c5.5,13.3,16.1,24.5,29.1,30.8"/>
	<path class="st0" d="M1114.3,1339.8c4,17.7,10.7,34.8,19.8,50.6c6.2,10.7,13.6,20.9,23.6,28.1s22.9,11.1,34.9,8.2
		c13.1-3.1,23.2-13.6,31.2-24.4"/>
	<path class="st0" d="M1125.1,1370.8c6.6,11.4,14.6,22.1,23.7,31.6c5.5,5.7,11.5,11.1,18.8,14.1c7.3,3,16.1,3.3,22.8-0.8"/>
	<path class="st0" d="M1148.2,1407c8.7,7.1,21.2,6.2,32.4,4.7c13.1-1.7,26.8-3.9,36.9-12.4c10.2-8.7,14.5-22.2,18.4-34.9"/>
	<path class="st0" d="M1161.1,1390.4c7.8,2.2,16.3-0.3,22.7-5.1c6.4-4.8,11-11.7,14.5-19"/>
	<path class="st0" d="M1181,1368.3c4.8,6.5,13.2,9.9,21.2,9.3s15.6-4.8,21.1-10.6s9.2-13.3,11.5-21"/>
	<path class="st0" d="M1183.9,1384.4c0.5,2.3,2.4,4.2,4.5,5c2.2,0.9,4.6,0.8,6.9,0.4c7.8-1.5,13.9-7.7,17.4-14.8
		c3.5-7.1,4.7-15,5.9-22.8"/>
	<path class="st0" d="M1215.9,1307.8c2.8,23.1,2,46.6-2.3,69.4c-1.3,6.8-2.9,13.6-6.3,19.6s-8.8,11.1-15.5,12.8
		c-8.7,2.2-18.1-2.1-24.4-8.4c-6.3-6.4-10.2-14.7-14.1-22.9"/>
	<path class="st0" d="M1150.6,1397c5.8,3.3,12.7,4.6,19.3,3.5c6.6-1.1,12.8-4.4,17.2-9.4"/>
	<path class="st0" d="M1183.5,1387.9c0.5,2.5,2.6,4.4,5,5.2c2.4,0.8,5,0.7,7.5,0.1c6.3-1.4,12-5.6,15.3-11.1"/>
	<path class="st0" d="M1200,1219.6c3.1,5,5.5,10.5,7.2,16.2"/>
	<path class="st0" d="M1198.4,1231.7c11.8,20.3,17.6,43.5,23.3,66.3c6.7,26.9,13.4,54.7,8.2,81.9"/>
	<path class="st0" d="M1216.9,1287.5c7.6,26.7,6.4,55.9-3.4,81.9"/>
	<path class="st0" d="M1220.2,1200.3c5.1,30.5,10.1,61,12.1,91.8s1,62.1-6.1,92.1"/>
	<path class="st0" d="M1219.8,1147.6c19,53,20.3,110.4,20.2,166.7c0,12.3-0.1,24.8-2.3,36.9c-2.1,12.2-6.4,24.2-14,33.9"/>
	<path class="st0" d="M1229.1,1142.7c-4.1,49.2,4.4,98.4,8,147.7c2.5,33.6,2.5,68.1-8.1,100"/>
	<path class="st0" d="M1217.6,1340.5c0,32.9,0,66.1-5.1,98.6s-15.7,64.8-35.1,91.4"/>
	<path class="st0" d="M1192.3,1449.9c26.6,50.6,64.5,95.2,110.1,129.6c11.7,8.8,24.3,17.2,38.7,20.1"/>
	<path class="st0" d="M1193.2,1432.1c21.7,47.7,56.1,89.6,98.7,120.2"/>
	<path class="st0" d="M1198.7,1452c16.4,34.2,40.2,64.9,69.2,89.4"/>
	<path class="st0" d="M1199.7,1470.5c23.5,38.7,54.1,73.1,89.9,100.9"/>
	<path class="st0" d="M1088.1,1542.4c74.4,18.2,150.9,27.6,227.5,28.2"/>
	<path class="st0" d="M1253.2,1558c-51.3-4.8-102.7-9.6-154-14.4"/>
	<path class="st0" d="M1187.9,1549.1c-31.4-9.7-63.7-16.9-96.2-21.4"/>
	<path class="st0" d="M1093.4,1533.6c16.8-18.1,27.5-41.1,34.3-64.8c6.8-23.7,9.9-48.3,13-72.7"/>
	<path class="st0" d="M1111.5,1533c16.1-43.1,28.3-87.6,36.6-132.9"/>
	<path class="st0" d="M1176.7,1547.8c28.9-61.6,47.6-128,55-195.6"/>
	<path class="st0" d="M1198,1545.8c17.5,4.2,37-0.8,50.4-12.8c1.9-1.7,3.7-3.5,4.5-5.9s0.6-5.3-1.2-6.9c-1.6-1.5-3.9-1.7-6.1-1.8
		c-5.7-0.2-11.4,0.3-17,1.5c-2.8,0.6-6,1.8-6.8,4.5c-0.8,2.6,1.3,5.4,3.9,6.4c2.6,1,5.4,0.7,8.2,0.3c5.5-0.8,11.2-1.8,16-4.7
		s8.4-8.3,7.8-13.9c-0.5-4.4-3.6-8.2-7.3-10.6s-8-3.7-12.3-4.9c-11.8-3.4-23.7-6.8-35.5-10.3c17.2-3.9,34.3-8.2,51.3-12.9
		c4.6-1.3,9.5-2.8,12.3-6.6c3.5-4.8,2.5-11.6,0-17c-7.1-15.3-25.7-24.4-42.2-20.6c-1.5,0.3-3.3,1.1-3.6,2.6c-0.4,2,1.9,3.3,3.9,3.9
		c7.4,2.1,15.3,2.5,22.9,1c6.8-1.3,14.4-5.3,15.3-12.3c0.5-3.7-1.2-7.5-3.5-10.4c-2.3-3-5.3-5.3-8.1-7.9
		c-13.1-12.3-20.7-30.4-20.4-48.4"/>
	<path class="st0" d="M1200,1551.1c33.4-58.1,51.7-124.8,52.6-191.8"/>
	<path class="st0" d="M1241.9,1557.9c9-71.1,13.6-142.7,13.7-214.3"/>
	<path class="st0" d="M1248.1,1554.9c5.1-73.9,10.1-147.8,15.2-221.7"/>
	<path class="st0" d="M1205.5,1534.8c27.9-64.3,47.4-132.2,57.7-201.5"/>
	<path class="st0" d="M1275.6,1547.4c-38.2-34.9-69.2-77.6-90.7-124.6"/>
	<path class="st0" d="M1202,1551.1c27.9-39.3,45-86.1,49.2-134.1"/>
	<path class="st0" d="M1261,1558.8c13.1-48.7,16.7-100,10.6-150.1"/>
	<path class="st0" d="M1271.1,1554.2c7.6-55.6,9.3-112.1,5-168"/>
	<path class="st0" d="M1291.2,1554.7c-6.6-74.5-11-149.1-13.3-223.8"/>
	<path class="st0" d="M1334.6,1031.9c-7.7,103.8,4.7,208,17,311.4c8.3,69.9,17.3,141.7,50.6,203.7"/>
	<path class="st0" d="M1330,1039.3c-19.2,143,10.4,287.6,39.9,428.9"/>
	<path class="st0" d="M1320.3,1064.2c-4.4,81.8-8.8,163.8-5.2,245.7c3.6,81.9,15.2,163.9,42,241.3"/>
	<path class="st0" d="M1316.2,1140c-0.9,122,16.2,244.1,50.7,361.2"/>
	<path class="st0" d="M1321.7,1533.7c-42.9-164.2-50.6-337.6-29.5-504.5C1277.6,1197.4,1263.3,1369.1,1321.7,1533.7z"/>
	<path class="st0" d="M1283.7,1047.6c-20.2,91.7-33,184.9-38.3,278.6"/>
	<path class="st0" d="M1296.3,1229.9c0.9-10.4-6.3-21-16.3-24s-21.8,1.8-26.8,11c-6.2,11.4-1.9,25.4,3.2,37.3
		c2.1,4.9,4.6,10,8.9,13.2s11.2,3.5,14.6-0.6c4.4-5.3,0.7-13.7,3.6-19.9c2.9-6.4,11.8-8,18.3-5.2c6.4,2.8,10.9,8.7,15.1,14.3
		c1.3,1.8,2.7,3.9,2,6c-1,2.9-5,2.9-8.1,2.5c-12.1-1.6-24.9-1.8-35.8,3.7s-18.8,18.2-15.4,29.9c3.2,11,15.4,17.4,26.8,17.3
		c11.4-0.2,22.1-5.6,31.8-11.7c3.9-2.5,7.9-5.3,10.4-9.2s3.2-9.4,0.4-13.2c-3.1-4.3-9.2-5.1-14.4-4.2c-17.1,2.8-29.9,19-32.1,36.2
		s4.7,34.5,15.2,48.2c3.2,4.1,7.3,8.2,12.5,8.2c6.3-0.1,10.5-6.3,12.8-12.2c3.8-9.7,5-20.4,3.7-30.8c-0.4-3.3-1.6-7.1-4.7-8.2
		c-4.4-1.6-8.3,3.6-9.2,8.2c-2.2,11.7,3.1,26.1-5.5,34.3c-6.6,6.3-18.2,5.2-23.9,12.3c-4.3,5.4-3.3,13.1-2.1,19.8
		c1.4,7.5,2.8,15.2,6.4,22s9.9,12.5,17.5,13.6c10.3,1.4,19.9-6.2,25-15.2c9.6-17.1,6.3-40.3-7.7-54.1"/>
	<path class="st0" d="M1331.8,1386.6c6.4,17.1,15.8,33.1,27.6,47c-20.4-1.2-40.8,3-60.8,7.1c-5.9,1.2-12.5,2.8-16,7.8
		c-2.8,4-3,9.4-1.9,14.3c2.4,11,10.6,20.4,20.8,25.2c10.2,4.8,22.2,5.2,33.1,2c5.2-1.6,10.5-4.3,12.9-9.1s0.2-12.1-5.2-13.1
		c-4.3-0.8-8.4,2.8-9.8,7c-1.4,4.2-0.7,8.7,0,13c1.7,10.5,3.4,21,5.1,31.6"/>
	<path class="st0" d="M1324,1155.7c13.6,96.7,27.1,193.4,40.7,290.2"/>
	<path class="st0" d="M1329.1,1247.5c1.4,78.6,16,156.9,42.8,230.8"/>
	<path class="st0" d="M1271.9,1159.9c-0.3,82.7-0.5,165.4-0.8,248.1"/>
	<path class="st0" d="M1263.1,1239.4c7.7,56.1,3.5,113.7-12.2,168.1"/>
	<path class="st0" d="M1263.2,1228.1c-2.8,49.3-5.6,98.5-8.5,147.8"/>
	<path class="st0" d="M1248.1,1255.4c-2.4-4.6-2-10.2-1.5-15.3c6-60.9,12.2-122.5,32.9-180"/>
	<path class="st0" d="M1269.6,1193.9c1.2-44.7,6.2-89.3,14.8-133.2"/>
	<path class="st0" d="M1313.8,1163.4c-3.8-6.8-12.8-9.4-20.5-7.9s-14.3,6.2-20.5,11c-2.2,1.7-4.7,3.9-4.6,6.8c0.1,2.4,2,4.4,4.3,5.3
		c2.2,0.9,4.7,0.8,7.2,0.8"/>
	<path class="st0" d="M1310,1143.8c1-9.4-5.2-19.1-14.1-22.3c-8.9-3.2-19.8,0.5-25,8.4"/>
	<path class="st0" d="M1285.4,1093.1c0.9,7.4,2,15.1,6.3,21.1s13,9.7,19.4,6c4.5-2.6,6.7-7.9,7.7-13c2-9.3,1.4-19.2-1.8-28.2
		c-2.2-6.4-5.8-12.6-6.3-19.3s3.5-14.7,10.3-15.2"/>
	<path class="st0" d="M1414.2,963.4c-21.7,24.8-49.6,43-75.8,62.9c-26.2,19.9-51.7,42.8-65.2,72.8"/>
	<path class="st0" d="M1269.4,874.5c-34.2,101.6-53,208.4-55.6,315.6"/>
	<path class="st0" d="M1230.4,1210.8c-14.3-106.1,46.9-211,36.2-317.5"/>
	<path class="st0" d="M1226.9,1099.2c11.6-71.2,56.2-134.3,64-206"/>
	<path class="st0" d="M1228.6,1141.4c-1-50.8,8.8-101.8,28.8-148.5"/>
	<path class="st0" d="M1274,880.7c3.4,60.8-2.8,122.2-18.6,181"/>
	<path class="st0" d="M1313.4,960.2c-35.8,29.3-59.8,72.6-65.7,118.5"/>
	<path class="st0" d="M1291.4,949.2c-12.4,37.4-24.9,74.8-37.3,112.2"/>
	<path class="st0" d="M1322.2,857.8c-6,0.5-11.2,4.7-14.4,9.8c-3.2,5.1-4.7,11.1-6.2,16.9c-13.6,53.5-27.2,107-40.8,160.5"/>
	<path class="st0" d="M1304.9,842.8c-11.4,72.9-22.8,145.9-34.2,218.8"/>
	<path class="st0" d="M1273.9,864.8c-2.4,56.2-6.4,112.2-12.2,168.1"/>
	<path class="st0" d="M1333.5,831.5c3,47.2,1.1,94.8-5.7,141.6"/>
	<path class="st0" d="M1314.7,1051.6c19.3-7.8,34.9-22.4,50.6-36.1s32.6-27.2,52.8-32.2"/>
	<path class="st0" d="M1300,1053c19.3-1.8,37.4-13.9,46.4-31"/>
	<path class="st0" d="M1320.1,971.8c-6.2,18-17.4,33.7-26.5,50.3c-9.1,16.7-16.4,35.5-13.7,54.3"/>
	<path class="st0" d="M1300.9,979.2c-9.1,29.2-15.6,59.2-19.4,89.5"/>
	<path class="st0" d="M1281.4,971.2c1.9,2.3,4.8,3.5,7.8,3.8s5.9-0.3,8.8-0.9c7.3-1.6,14.4-3.9,21.3-6.8c2.6-1.1,5.3-2.4,7.2-4.5
		s2.9-5.3,1.6-7.9c-1.2-2.6-5.1-3.7-7.1-1.6"/>
	<path class="st0" d="M1308.4,977.5c43.7-20.3,84.6-46.5,121.3-77.7"/>
	<path class="st0" d="M1369.3,980.6c-21-1.9-42.3-0.8-62.7,5.4c13.5,7.8,28.6,13,44,15.3"/>
	<path class="st0" d="M1375,986.8c-19.5-0.4-39.1-0.8-55.7-3.1c50.6-16.5,107.3-8.1,156.7-28"/>
	<path class="st0" d="M1399.2,971.7c-0.8-2.3-1.7-4.7-2.6-7c38.3-4.3,76.2-12.6,112.8-24.9"/>
	<path class="st0" d="M1347.6,961.5c4.3-1.5,8.6-3.1,13-4.7c1.4-0.5,3.3-0.8,4.1,0.4c0.7,1.2-0.3,2.7-1.2,3.7
		c-15.6,17.3-29.3,36.3-40.9,56.5"/>
	<path class="st0" d="M1314.4,984.7c-16,19.1-28.8,40.8-37.8,63.9c-4.9,12.6-8.4,27.6-1.3,39.1"/>
	<path class="st0" d="M1259.2,1345c-0.8,5.6,1.8,11.6,6.4,14.7c4.7,3.2,11.2,3.3,16.1,0.5c1.2-0.7,2.3-1.7,2.5-3
		c0.2-1.6-1.3-3.1-2.9-3.4s-3.3,0.3-4.7,1c-6.2,3.3-10.4,10.4-9.5,17.4s7,13.1,14.1,13.3c7,0.2,13.7-6.1,13.5-13.1
		c-0.1-2.5-1.1-5.1-3.2-6.4c-3.7-2.3-9.1,1-9.6,5.4s2.8,8.5,6.8,10.1c4,1.7,8.6,1.3,12.9,0.5c2.1-0.4,4.7-1.7,4.3-3.8
		c-0.4-1.8-3.2-2.2-4.5-1c-1.4,1.3-1.6,3.4-1.4,5.2c0.8,7.2,7.2,13.4,14.4,14c3.3,0.3,6.8-0.6,9.3-2.9c2.4-2.3,3.6-6,2.3-9.1
		c-1.3-3.1-5.2-5-8.2-3.6c-3.1,1.3-4.1,6-1.7,8.3c2.2,2,6,1.4,8.1-0.7s3.1-5.1,3.6-8.1c-3.4,1.6-3.3,7.2-0.1,9.2s7.7,0.5,9.8-2.6
		c1.6-2.3,1.9-5.5,0.6-7.9s-4.3-4-7-3.2s-4.5,3.9-3.5,6.6"/>
	<path class="st0" d="M1352.6,1377.3c-3.2-1.3-7.1,0.5-9,3.4s-2.1,6.6-1.7,10.1c0.3,2.5,1.2,5.3,3.5,6.5c1.4,0.8,3,0.8,4.6,0.7
		c4.1-0.3,8.2-1.6,11.1-4.4s4.2-7.5,2.4-11.2c-1.7-3.4-5.7-5.2-9.5-5.3c-3.3-0.1-7,1.1-8.3,4.1c-1.2,2.9,0.7,6.6,3.8,7.3
		c3.1,0.7,6.4-1.8,6.6-5C1357.1,1385.4,1363.1,1381.6,1352.6,1377.3z"/>
	<path class="st0" d="M1378.4,1364.3c-7.3,1.4-13.7,7-16,14.1c-0.5,1.6-0.8,3.3-0.6,5c0.3,1.7,1.3,3.3,2.9,3.9
		c1.5,0.6,3.2,0.3,4.7-0.2c5.4-1.7,10.2-5.3,13.2-10.1c1.1-1.8,2-4,1.3-6c-0.8-2-3.2-3.1-5.3-3c-2.2,0.1-4.2,1.2-6,2.4
		c-1,0.6-1.9,1.3-2.5,2.3c-0.6,1-0.6,2.4,0.2,3.2c1.2,1.2,3.2,0.4,4.5-0.6c3.2-2.4,5-6.2,6.4-9.9s2.4-7.6,4.3-11.2s4.9-6.7,8.8-7.6
		c3.9-0.9,8.6,1,9.7,4.9c0.8,2.7-0.4,5.7-2.3,7.7c-1.9,2-4.5,3.2-7.2,4.2c-2.1,0.8-4.3,1.4-6.6,1c-2.2-0.3-4.4-1.9-4.8-4.1
		c-0.4-2,0.8-4.1,2.4-5.4s3.7-1.9,5.7-2.5c1.3-0.4,2.6-0.8,3.9-0.8s2.8,0.6,3.5,1.7s0.6,2.9-0.5,3.6c-1.1,0.7-3-0.2-2.9-1.5"/>
	<path class="st0" d="M1408.6,1328.3c0.4,1.4,1.5,2.6,2.8,3s3,0,3.8-1.2c1-1.5,0.3-3.7-1.2-4.7s-3.5-1.1-5.2-0.5
		c-3.7,1.2-6.5,5.1-6.1,9s4,7.2,7.9,7.2c2.7-0.1,5.3-1.6,7.1-3.7c1.8-2.1,2.9-4.6,3.9-7.2c1.1-2.9,2-5.9,1.7-9s-2.1-6.2-5-7.2
		c-3-1-6.4,0.4-8.4,2.9c-2,2.5-2.7,5.7-2.9,8.9c-0.1,2.1,0.2,4.6,2.1,5.4c2,0.9,4.3-0.7,5.6-2.6c2.4-3.8,2.6-8.5,3.2-13
		c0.6-4.4,2.2-9.3,6.2-11.4"/>
	<path class="st0" d="M1426.1,1311.9c-1.7-0.6-3.3-1.2-4.8-2.2s-2.6-2.6-2.7-4.4c-0.1-1.4,0.5-2.9,1.4-4c2.6-3.2,7.4-4.1,11.2-2.5
		c1.1,0.4,2.2,1.1,2.9,2.1c0.7,1,1.1,2.3,0.7,3.4c-0.4,1.1-1.4,1.9-2.6,2.3s-2.4,0.3-3.6,0.2c-2.8-0.3-5.9-1.5-6.7-4.2
		c-0.8-2.7,1.2-5.4,3.5-7.1c2.5-1.8,6-2.9,8.7-1.3c2.2,1.2,3.2,4,2.8,6.4s-1.8,4.6-3.7,6.3
		C1431.6,1308.4,1429.4,1309.5,1426.1,1311.9z"/>
	<path class="st0" d="M1430.9,1295.2c-1.2-1.3-1.4-3.4-0.7-5s2-3,3.3-4.1c1.7-1.5,3.7-2.8,5.9-3.4c2.2-0.6,4.7-0.6,6.6,0.6
		c2,1.2,3.3,3.5,2.9,5.7c-0.2,1.5-1.2,2.8-2.4,3.7c-1.2,0.9-2.6,1.5-4,1.9c-1.3,0.4-2.8,0.7-3.9-0.1c-1.1-0.8-1.3-2.4-0.8-3.7
		c0.5-1.3,1.5-2.3,2.4-3.3"/>
	<path class="st0" d="M1443,1283.6c-2.6-1.7-3.2-5.5-1.8-8.3s4.3-4.5,7.3-5.3c1.8-0.4,3.7-0.6,5.3,0.1c1.7,0.7,3,2.4,2.8,4.2
		s-2.2,3.3-3.9,2.6c-0.6-3.2,1.9-6.5,5.1-7.2c3.2-0.7,6.6,1.1,8.2,3.9c1.6,2.8,1.6,6.4,0.1,9.4c-1.4,2.9-4,5.2-6.9,6.6
		c-2.1,1-4.6,1.6-6.9,1c-2.3-0.6-4.3-2.7-4.2-5.1c0.1-2.7,2.5-4.7,4.7-6.1c2.6-1.7,5.4-3.3,8.4-3.7c3.1-0.4,6.5,0.7,8.1,3.4
		s0.2,6.8-2.9,7.4c-0.3-2.6,1.5-5.3,4-6.1c2.5-0.8,5.5,0.5,6.8,2.8c1.2,2.3,0.6,5.5-1.5,7.2c-1.1-2.1,0.6-4.9,2.9-5.4
		c2.3-0.4,4.7,1.2,5.5,3.5s0.1,4.8-1.4,6.7"/>
	<path class="st0" d="M1454.3,1290.3c18.8,17.8,42.3,30.1,66.3,39.8s49,17.1,73.1,26.5c35.4,13.7,68.9,31.7,102.3,49.5"/>
	<path class="st0" d="M1457.9,1277.6c33.5,26.5,73.2,43.7,111.8,61.9c38.7,18.2,77.5,38.1,107.4,68.5"/>
	<path class="st0" d="M1438.1,1387.7c-0.5-9.5,1.8-19.2,5.8-25.6c-4.8,3.7-9.6,7.3-14.3,10.9c-1.2,0.9-2.4,1.8-3.1,3.2
		s-0.7,3.1,0.4,4.1c1.2,1.1,3.2,0.8,4.8,0.4c2.1-0.5,4.2-1,6.3-1.5c0.9-0.2,2.1-0.4,2.8,0.1c1.2,0.9,0.7,2.9,0,4.2
		c-3,6.2-6.7,12.6-6,19.5c0.4,4.5,2.7,8.6,4.4,12.8s2.9,9,1.3,13.2"/>
	<path class="st0" d="M1439.5,1378.2c-4.4,14.9,0.6,32.2,12.3,42.4"/>
	<path class="st0" d="M1435,1418.8c2.2,4,4.7,7.9,7.8,11.2s7.1,5.9,11.6,6.9c2.6,0.6,5.8,0.8,7.2,3.1"/>
	<path class="st0" d="M1449.3,1423.9c2.8,2.4,4.2,5.9,5.9,9.2c1.7,3.3,3.8,6.6,7.2,8c2.3,1,4.9,0.9,7.4,0.8c4-0.2,8-0.3,12-0.5
		c1.6-0.1,3.2-0.1,4.7-0.6c1.5-0.5,2.9-1.5,3.5-3"/>
	<path class="st0" d="M1489.4,1448.3c7-4.4,14.1-8.8,21.1-13.3"/>
	<path class="st0" d="M1436.1,1389.8c1.6,10.2,7,19.7,15,26.2"/>
	<path class="st0" d="M1298,1550.5c12.9,2.6,26.3,2.4,44.3-0.2c219,2.1,438-1.3,656.8-10.2"/>
	<path class="st0" d="M1295.4,1567.6c196.4-5,392.8-12.4,589-22.4"/>
	<path class="st0" d="M1521.7,1262.7c38.4-18.1,74-42.1,105.2-70.9"/>
	<path class="st0" d="M1634.1,1198.2c-30.5,30.9-69.6,53.3-111.6,64.1"/>
	<path class="st0" d="M1614.5,1227.4c22.5-12.5,41.8-30.6,55.8-52.2"/>
	<path class="st0" d="M1635.8,1196.8c-5.6,10.8-12.7,20.7-21.2,29.4"/>
	<path class="st0" d="M1641.6,1190.4c53.5,3.4,106.6,14.5,157,32.9"/>
	<path class="st0" d="M1716.9,1207.1c15.2,0.9,30.4,1.8,45.6,2.7"/>
	<path class="st0" d="M1773.1,1212.4c-15.6,12.4-33.1,22.3-51.8,29.2c1.9-7.1,10.1-10.2,17.2-11.8c20.7-4.8,42.2-6.7,63.4-5.4"/>
	<path class="st0" d="M1825,1241.7c-4.6-5.8-10.4-10.6-15.6-14.1c58,23.8,113.9,52.6,167,85.9"/>
	<path class="st0" d="M1948.3,1322.7c-6.5-8.9-13-17.9-19.5-26.8c7.3,19.9,19.8,37.5,30.9,55.6c11.2,18.1,21.4,37.5,23.5,58.7"/>
	<path class="st0" d="M1982,1403.9c-0.9-0.4-1.8-0.8-2.7-1.3c-1.8,5.6-0.5,11.9,2,17.2s6.2,10.1,9.3,15.1s5.8,10.6,5.9,16.5
		c0.1,5.9-2.8,12.2-8.2,14.6"/>
	<path class="st0" d="M1955.5,1332.9c18.8,41.9,32.9,85.8,47,129.5c7.7,23.9,15.5,48.1,16.3,73.2"/>
	<path class="st0" d="M1965.5,1322c0,16.8,2.9,33.5,8.6,49.2"/>
	<path class="st0" d="M2002.2,1323.5c13.7-12.8,28-24.9,41.1-38.2s25.1-28,33.3-44.8"/>
	<path class="st0" d="M1990,1300.2c29.4-15.7,57.4-33.8,83.8-54.2"/>
	<path class="st0" d="M2033,1267.7c-17.5,24.8-38.5,47.1-62.2,66.1"/>
	<path class="st0" d="M1973.5,1329.2c-8.7-6.5-16.6-14.1-23.6-22.4c22.5,5.5,45.2,9.8,68.1,13.1"/>
	<path class="st0" d="M2043.4,1235.5c-10.3,20.4-22.8,39.7-37.4,57.3"/>
	<path class="st0" d="M2018.9,1277c4.9-4,9.8-7.9,14.7-11.9"/>
	<path class="st0" d="M2038.5,1283.5c38-60.6,46.8-138.6,23.2-206.1"/>
	<path class="st0" d="M2018.9,1063.4c30.8,48.4,43.7,107.9,35.9,164.7"/>
	<path class="st0" d="M2062.8,1264.7c25.9-35.1,36-81.3,27.2-123.9"/>
	<path class="st0" d="M2097.7,1160c-15.2,110.9-30.5,221.8-44.6,329c-13.4,103.7-39.4,205.7-77.2,303.2"/>
	<path class="st0" d="M2002.5,1452.1c27.3-43.5,59.8-83.7,96.6-119.4"/>
	<path class="st0" d="M2002.5,1426.9c12.9-27.3,31.7-51.7,54.7-71.2"/>
	<path class="st0" d="M1952.8,1605.7c23.6-30.1,51.5-56.9,82.6-79.2"/>
	<path class="st0" d="M2019.6,1530.4c0.7,3.9,1.3,7.9,1,11.8c-0.3,3.9-1.7,8-4.6,10.7c-3.9,3.7-9.7,4.4-15.1,4.4
		c-5.4,0-10.9-0.6-16,1.3"/>
	<path class="st0" d="M1948.8,1622.2c19.6-26.3,41.6-50.8,65.6-73"/>
	<path class="st0" d="M2029.7,1550c-40.5,35.1-77.9,73.8-111.8,115.3"/>
	<path class="st0" d="M1944.9,1647.6c30.2-32.1,60.4-64.2,90.6-96.3"/>
	<path class="st0" d="M1921.1,1691.5c29.4-35.4,62.2-67.9,97.8-97.1"/>
	<path class="st0" d="M2011.3,1600.9c-25.9,29.4-48.5,61.7-62.5,90.5c25.3-31.9,54.9-60.5,87.6-84.8"/>
	<path class="st0" d="M1951.3,1715.9c28.9-40.5,65-75.7,106.2-103.6"/>
	<path class="st0" d="M1981.3,1689c11.9-16.6,26.7-31.1,43.7-42.5"/>
	<path class="st0" d="M2020.2,1707.5c-29.8-2.8-60-0.9-89.2,5.6"/>
	<path class="st0" d="M1973.6,1717.3c-13.6-0.3-27.3-0.6-40.9-0.8"/>
	<path class="st0" d="M1938.4,1562.8c-10.2,57.9-20.5,115.9-30.8,173.8"/>
	<path class="st0" d="M1883.2,1639.4c5.2,32.5,12.7,64.6,22.4,96"/>
	<path class="st0" d="M1892.1,1544.7c4.1,3.1,8.3,6.2,11.2,10.4c2.9,4.2,4.4,9.8,2.5,14.5c-2,5.2-7.7,8.4-13.2,9.1
		c-5.6,0.7-11.2-0.6-16.6-1.9"/>
	<path class="st0" d="M1871.8,1546.4c8.8,3.5,16.5,9.9,21.7,17.9"/>
	<path class="st0" d="M1887.1,1550.1c10.2,3.4,19.8,8.6,28.2,15.3"/>
	<path class="st0" d="M1876.8,1569.5c2.4,6.4,1.4,13.7-1.7,19.8s-7.9,11.1-13.2,15.4"/>
	<path class="st0" d="M1872.8,1585.1c0.5,16.3-2.9,32.7-9.8,47.4"/>
	<path class="st0" d="M1858,1588.2c-5,29.2-2.8,59.7,6.2,87.9"/>
	<path class="st0" d="M1893.9,1569.2c-2.4,28.6-8.3,57-17.4,84.2"/>
	<path class="st0" d="M1894,1584.9c-4.6,0.1-8.3,4-9.8,8.3c-1.4,4.3-1,9-0.5,13.6s1.2,9.2,0.1,13.6"/>
	<path class="st0" d="M1975.1,1792.6c44.6-7.3,90.7-5.6,134.6,5.1"/>
	<path class="st0" d="M2084.1,1769.4c-5.4,13.5-7.1,28.4-5,42.8"/>
	<path class="st0" d="M2070.9,1783.5c12.1,0.1,24.1,5.2,32.4,14"/>
	<path class="st0" d="M2081.7,1816.2c52.1-117.2,58.3-248.8,63.7-376.9c4-95.7,8.1-191.3,12.1-287"/>
	<path class="st0" d="M2124.9,1157.8c3.5,189-3.3,378.2-20.3,566.5"/>
	<path class="st0" d="M2086.9,1322.1c15.1,58.2,16.5,119,21,179c4.6,60,12.8,121.2,39.8,174.3c-1.9,3.2-5.1,5.2-8.2,7.3
		s-6.2,4.4-7.5,7.9c-1.3,3.5,0.3,8.2,3.9,8.9"/>
	<path class="st0" d="M2131.3,1725.9c26.9-194.3,40.7-390.4,40.2-582.2c3.8-54.7-2-110.1-17-162.9"/>
	<path class="st0" d="M2154.7,1026.8c2.2-13.2,2.4-26.8,0.5-40.1"/>
	<path class="st0" d="M2122.6,911.6c-2.8,0.5-5.6,1-8.4,1.5c22.2,31.6,36.3,68.8,40.6,107.1"/>
	<path class="st0" d="M2111.8,973.3c0.7-5.3,1.4-10.7,2.1-16c29.9,33,54.3,70.8,72.1,111.5"/>
	<path class="st0" d="M2186.1,968.6c-1,35.5-2,71-3,106.5"/>
	<path class="st0" d="M2175.1,931.4c19.7,74.7,27.7,152.5,23.7,229.7"/>
	<path class="st0" d="M2200.8,1147.2c-14.8-5.9-26.2-18.4-33.9-32.4c-7.6-14-11.9-29.6-16-45"/>
	<path class="st0" d="M2146.5,1062.5c24.6,23.1,43.1,52.7,53,85"/>
	<path class="st0" d="M2149.1,1036.1c13.8,68.2,8.8,138.6,3.6,207.9"/>
	<path class="st0" d="M2159.7,1139.7c-2.1,66.5-4.2,133-6.4,199.5"/>
	<path class="st0" d="M2108.9,1031.2c13.4,29.5,15.3,62.8,14.5,95.2s-4.3,64.8-0.8,97"/>
	<path class="st0" d="M2124.8,1064.9c5.9,27.8,1,57.2-9.9,83.4s-27.5,49.7-45.5,71.8"/>
	<path class="st0" d="M2182.9,1044.3c-82.1,7.3-165.4,0.7-245.3-19.4"/>
	<path class="st0" d="M2047.8,1034.4c-72.8,0.3-145.7-15.5-211.8-46.1"/>
	<path class="st0" d="M2063.7,1097.2c-73.6-20.3-132.6-74.9-202.4-105.6"/>
	<path class="st0" d="M1825,963.2c26.7,26.2,56.7,49,89.1,67.7"/>
	<path class="st0" d="M1853.2,963.5c26.7,25.3,55.1,48.8,84.9,70.3"/>
	<path class="st0" d="M1971,1310c13.6,8,30,11.1,45.6,8.6"/>
	<path class="st0" d="M1834.8,986.5c51.2-6.6,104.4,3,150,27.3c45.6,24.2,83.4,62.9,106.6,109"/>
	<path class="st0" d="M2139,1156.1c-25.9-48.5-64.6-90.1-111.2-119.3c-46.6-29.2-100.9-45.9-155.9-48"/>
	<path class="st0" d="M2005.6,1040.6c-28.6-23.3-59-44.3-90.8-62.8"/>
	<path class="st0" d="M1881.8,961.4c29.2,22,57.7,45,85.2,69.1"/>
	<path class="st0" d="M1974.6,1046.7c-0.5-1.7-1-3.5-1.5-5.2c14.4,0.8,27.3,8.7,39,17.1c38.6,27.9,70.5,64.9,92.3,107.3"/>
	<path class="st0" d="M2009.1,1057c3.2-6,10.5-9,17.2-8.2s12.7,4.9,17,10.1s7.1,11.5,9.4,17.9c12.5,34.2,13.3,72.7,2.1,107.4"/>
	<path class="st0" d="M2016.4,1051.5c1.3,4.7,6.6,7.5,11.4,7.4c4.9-0.1,9.5-2.5,13.7-5"/>
	<path class="st0" d="M2036.5,1023.9c21.6,31.1,38.3,65.6,49.2,101.9"/>
	<path class="st0" d="M2075.3,1038.1c10.3,21.7,14.7,46.1,12.6,70"/>
	<path class="st0" d="M2052.7,1034.8c12.3,14.5,28.2,26,45.9,33"/>
	<path class="st0" d="M2080.7,1049.8c15,11.8,34.5,17.9,53.6,16.6"/>
	<path class="st0" d="M2065.7,1077.7c31.8,25.5,56.6,59.7,71.1,97.9c3.2,8.4,5.6,18.8,1.1,25.1c-4.5-2.6-8.3-6.3-10.9-10.7"/>
	<path class="st0" d="M2056.8,1073.1c-2.7-0.5-5.4-1.1-8.1-1.6c-2.2,10.1,1.5,20.7,7.5,29.1s14.2,14.9,22.3,21.2
		c4.7,3.7,9.5,7.4,15,9.8s11.9,3.3,17.5,1.2s10.1-7.7,9.8-13.7"/>
	<path class="st0" d="M2057.8,1094.5c18.2,22.2,31.4,48.4,38.5,76.2"/>
	<path class="st0" d="M2101.2,1113.5c-0.1,43-0.2,86.3-8.4,128.4c-5.3,27.1-13.9,53.9-13.9,81.5"/>
	<path class="st0" d="M2054,1069.8c3.9-2.1,9-0.4,11.9,3s4.1,7.9,4.7,12.2c3.4,22.1-2.9,44.4-2.4,66.8"/>
	<path class="st0" d="M2072.1,1087.6c12.2,12.9,24.5,25.8,36,39.3c7.7,9.1,15.3,18.8,18.3,30.2"/>
	<path class="st0" d="M2073.3,1118.8c12.4,16.8,19.6,37.3,20.6,58.1"/>
	<path class="st0" d="M2041.9,994.8c-6.8,4.4-14.9,6.5-23,6.1c-3-0.2-6.1-0.7-8.6-2.3c-2.5-1.7-4.3-4.6-3.9-7.6
		c0.3-2.6,2.2-4.7,4.5-5.9s4.9-1.5,7.5-1.6c19.3-0.5,37,13.2,56.2,11.8"/>
	<path class="st0" d="M2009.2,959.7c-159.5-11.4-321.3,5-478.5-24.4"/>
	<path class="st0" d="M2141.7,715.2c-159.9,79.5-311.1,176.7-449.8,289.3"/>
	<path class="st0" d="M1688.3,1005.4c83.8-87.7,179.8-162.5,278.8-238.9c-32.4,17.5-63.3,37.7-92.3,60.4"/>
	<path class="st0" d="M1938.6,753.3c-71,58.1-138.3,120.6-201.4,187.1"/>
	<path class="st0" d="M2034.8,740.4c-179.8,45.5-356.5,103.4-528.5,173c-36,14.6-72.9,30.4-100.1,58.1"/>
	<path class="st0" d="M1418,955.2c102.4-39.6,204.9-79.2,307.4-118.9c27.3-10.5,54.8-21.2,83.5-26.5c28.8-5.3,59.2-5.1,86.4,5.6"/>
	<path class="st0" d="M1885.6,802.2c18,13.1,41.8,18,63.5,13.1"/>
	<path class="st0" d="M1862.6,783.7c-72.8,49.5-137,111.7-188.8,183"/>
	<path class="st0" d="M1796.1,805.6c-43.6,41.9-86,85-127.2,129.2"/>
	<path class="st0" d="M1768.6,816.2c-7.8,6.5-15.6,12.9-23.4,19.4"/>
	<path class="st0" d="M1719.3,831.3c-49.4,47.8-98.9,95.6-148.3,143.3"/>
	<path class="st0" d="M1625.2,864.4c8-3.1,16-6.3,24-9.4c-43,40.3-82.4,84.6-117.5,132"/>
	<path class="st0" d="M1596.9,873.3c-36.6,32.6-69.7,69-98.7,108.5"/>
	<path class="st0" d="M1521.7,933.6c85.5,1.3,170.9,7.3,255.7,18"/>
	<path class="st0" d="M2181.4,932.8c-37.6-27-82.9-43.2-127.7-47.7c6.1,1.2,12.4,1.8,18.6,1.8c1.7,0,3.7-0.2,4.6-1.6
		c1.4-2.1-0.6-4.8-2.6-6.5c-13.6-11-31.8-14.1-48.9-15.9c18.4,0.3,36.8,0.5,55.2,0.8"/>
	<path class="st0" d="M2076.3,893.4c0.8-30.3-4.5-60.7-15.5-88.9"/>
	<path class="st0" d="M2051.8,819c-1.6-14.3-3.2-28.5-4.8-42.8c21.2,33,42.5,65.9,63.7,98.9"/>
	<path class="st0" d="M2101.2,863.4c-0.2-2.3-0.3-4.7-0.5-7c14.2,9.3,26.1,21.9,34.7,36.5c-6.3,0.3-12.6,1.2-18.7,2.6
		c27.7,7.6,57.1,16.2,76.3,37.7"/>
	<path class="st0" d="M2073.8,864.8c6.7-0.2,13.4,0.2,20,1.5c-1.9,4-5.3,7.1-9.4,8.8c14.3,7.9,28.6,15.8,42.9,23.6"/>
	<path class="st0" d="M2040.9,799.1c12.5-3.1,22-15.1,23.5-27.9"/>
	<path class="st0" d="M2052.1,787c-5.1-16-10.1-32-15.1-48"/>
	<path class="st0" d="M2055.4,776.9c11.4,6.6,25.1,9.4,38.2,7.9"/>
	<path class="st0" d="M2055.2,741c-4-8-10.7-14.3-16.9-20.8c-6.2-6.5-12.3-13.6-14-21.9c20.2,16.8,38,36.7,52.5,58.6"/>
	<path class="st0" d="M2063,754.3c4.1,2.1,8.8,3.1,13.4,3"/>
	<path class="st0" d="M2072.8,749.9c-5.1-8.6-10.9-16.9-17.4-24.6"/>
	<path class="st0" d="M2047.6,738.5c-19,1.4-38.4-2.5-55.4-11.1"/>
	<path class="st0" d="M2031.3,726.3c-13.4,3.3-27.5,3.5-41,0.4"/>
	<path class="st0" d="M2031.2,725.6c-12.3,1.2-24.8-0.5-36.8-4.3c8.9,0.6,17.9-1.6,25.5-6.2s13.7-11.7,17.2-19.8"/>
	<path class="st0" d="M2036.9,695.2c-3.6-0.7-7.2-0.1-10.7,0.5c-29,4.9-57.7,11.2-87.5,19.3c28.6-4.1,55.7-17.6,76.1-36.9
		c0.3-5.7-3-11-7.2-14.8c-4.2-3.8-9.2-6.6-13.9-9.9c-4.6-3.3-9-7.4-10.8-12.8"/>
	<path class="st0" d="M1878.2,565.3c53.3,39.3,85.3,102.8,139.6,140.8"/>
	<path class="st0" d="M1983.8,656.3c-0.2,5.7-3.3,11.3-8,14.5c0.9-14.6,0.4-29.3-1.8-43.9c4.4,1.7,9.1,2.6,13.8,2.6
		c-13.8-9.3-25.6-21.6-34.4-35.7"/>
	<path class="st0" d="M1968.3,601.1c-23.6-3.1-45.8-15.6-60.7-34.1"/>
	<path class="st0" d="M1878,556.4c15.8,12.4,33.2,22.8,51.5,31.1"/>
	<path class="st0" d="M1901.1,565c0.8,5.3,1.8,10.7,4.1,15.5c2.3,4.8,6.3,9.2,11.4,10.8c5.1,1.6,11.4-0.1,14.2-4.7"/>
	<path class="st0" d="M1890,563.8c9.5,1.1,19.1,2.3,28.2,5.2c9.1,3,17.8,7.9,23.8,15.4c1.1,1.4,2.2,3,2.5,4.8
		c0.3,1.8-0.2,3.8-1.7,4.9c-2.7,1.8-6.2-0.5-8.6-2.7c-10.7-9.8-21.4-19.5-32.1-29.2"/>
	<path class="st0" d="M1723.2,521.3c-0.7,10.5-4.1,20.8-11.5,30.4c1.6,0.1,3-1,4.3-2c3-2.4,6-4.9,7.5-8.4c0.7-1.6,1-3.5,2.2-4.7"/>
	<path class="st0" d="M1720.1,546.4c4.2,1.1,9-0.8,11.3-4.5"/>
	<path class="st0" d="M1724.8,517.6c5.6,6.2,5.8,15.4,5,23.7c-0.8,8.3-2.2,17,1.2,24.6c2.6,5.8,7.6,10.1,12.6,13.8"/>
	<path class="st0" d="M1716.8,573.6c0.7,3.8,0.3,7.8-1.2,11.5c-0.6,1.5-1.4,2.9-2.5,3.9s-2.8,1.7-4.3,1.5c-1-0.2-2-0.8-2.2-1.8
		c-0.3-1.2,0.7-2.3,1.6-3.1c2.3-2.3,4.7-4.5,7.1-6.8c1.4-1.4,2.9-2.8,4.8-3.3c2-0.5,4.2,0,6,1.1s3.3,2.6,4.7,4.1
		c1.1,1.1,2.2,2.3,2.7,3.8c0.5,1.5,0.2,3.3-1.1,4.2c-1.6,1.1-3.7,0.2-5.3-0.8C1721.6,584.3,1717.9,578.1,1716.8,573.6z"/>
	<path class="st0" d="M1725.3,594.8c5-12.9,11.6-25.4,20.9-35.6c9.4-10.2,21.8-18,35.4-20.2c11-1.7,22.2,0.3,33,2.9
		c23.6,5.8,46.3,14.8,67.5,26.6"/>
	<path class="st0" d="M1729,586.5c9.3-7,17.4-15.4,26.3-22.9s18.6-14.4,29.8-17.6c16.2-4.6,33.5-1.2,49.7,3.3
		c16.2,4.4,32.6,9.8,49.4,9"/>
	<path class="st0" d="M1782.1,546c24.2,0.4,48.4,3.2,72.1,8.5"/>
	<path class="st0" d="M1750.8,565.1c6.9-10.5,18.6-17,30.7-20.2c12.1-3.2,24.8-3.3,37.3-3.5"/>
	<path class="st0" d="M1871.2,610.2c-31.7-13.6-61.3-31.9-87.6-54.1"/>
	<path class="st0" d="M1776.1,549.5c-1.3,1-0.7,3.2,0.7,4c1.4,0.8,3.1,0.7,4.7,0.7c5.6,0,11.2,1.6,15.9,4.5"/>
	<path class="st0" d="M1680.1,768.4c71.6-79.4,155.3-147.8,247.4-202.2"/>
	<path class="st0" d="M1903.2,633.8c1.6-3.6,3.2-7.2,4.8-10.8c-102,38.5-199,90.2-288,153.2"/>
	<path class="st0" d="M1635.8,763.6c65.9-22.1,129.7-50.5,190.4-84.4"/>
	<path class="st0" d="M1851.2,672.8c-11.1,6.6-24.9,8.6-37.5,5.5"/>
	<path class="st0" d="M1733.5,711c34.7-32.8,67-68.1,96.7-105.4"/>
	<path class="st0" d="M1830.4,608.7c-48.8,34.4-94,74.1-133.5,116.7c27.8-40.5,55.6-81.1,83.3-121.6"/>
	<path class="st0" d="M1746.6,601.7c12.9,14.5,29,26.2,47.1,33.6c-10-0.2-19.9-3.4-28.2-9"/>
	<path class="st0" d="M1763,621.1c-8.2,1.3-16.9-2.2-22-8.8c-1.2-1.5-2.1-3.3-1.9-5.2c0.4-3,3.7-4.6,6.6-5c2.9-0.3,6,0.2,8.9-0.7"/>
	<path class="st0" d="M1762.3,587c0.7,1.6,1.4,3.2,2.7,4.5c1.2,1.2,3.2,1.9,4.8,1.3c2.2-0.9,2.8-3.6,3.2-5.9c0.5-3.5,1.1-7,1.6-10.4
		c0.2-1.3,0.4-2.8-0.4-4c-0.7-1-1.9-1.5-3.1-1.9c-3.3-1.1-6.8-1.9-10.2-2.5"/>
	<path class="st0" d="M1417,907.8c118.7-88.3,229.1-187.7,329.2-296.5"/>
	<path class="st0" d="M1374.4,971.7c81-78.9,170.5-149.1,266.4-209"/>
	<path class="st0" d="M1366.9,962.3c126.5-98.9,247.2-205.5,361-318.8"/>
	<path class="st0" d="M1690.6,652.9c17.9-16.9,35.7-33.8,53.6-50.8"/>
	<path class="st0" d="M1673.4,644.8c21.2-8.7,41.2-20.2,59.5-34"/>
	<path class="st0" d="M1667.8,629.4c20.2-5.6,39.8-13.5,58.3-23.3"/>
	<path class="st0" d="M1922.5,569.9c8.8-6.2,17.7-12.5,26.5-18.7"/>
	<path class="st0" d="M1227.4,529.2c55.9-54.3,121.7-98.6,185.1-131.8C1342.8,427.7,1279.2,472.1,1227.4,529.2z"/>
	<path class="st0" d="M1230.7,518.3c48.9-49.5,109.2-87.6,174.8-110.7"/>
	<path class="st0" d="M1212.2,496.7c2.2,24.1,18.6,46.4,41,55.8"/>
	<path class="st0" d="M1211.7,499.5c-0.6,13,5.1,26,16.3,37.9c-7.6-4-14.3-9.8-20.1-17.2c4.3,11.8,13.4,21.8,28.7,23.3
		c1.3,10.3-1.3,21-7.2,29.5"/>
	<path class="st0" d="M1248.3,544.8c-5.9,14.5-18.2,26.3-33,31.6c-14.7,5.3-31.7,4.2-45.6-3.2"/>
	<path class="st0" d="M1195.7,594.5c-9.8-4.7-18.7-11.3-26-19.3"/>
	<path class="st0" d="M1185.9,579.3c-6.4,1.3-11.7,7.1-12.3,13.7"/>
	<path class="st0" d="M1188.6,581.9c-5.7,2.4-10.3,7-12.7,12.7s-2.3,12.3,0.1,18"/>
	<path class="st0" d="M1208.1,585.2c-6.1-1.2-12.6-0.8-18.1,2c-5.6,2.7-10.1,7.8-11.4,13.9s1,12.9,6.1,16.4"/>
	<path class="st0" d="M1181.3,588.6c10.2,8.2,23.7,12.3,36.8,11.2"/>
	<path class="st0" d="M1179.2,593c12.4,9,28.1,13.5,43.4,12.4"/>
	<path class="st0" d="M1178.3,596.6c12.9,9,29.3,13.1,44.9,11.1"/>
	<path class="st0" d="M1175.9,601c9,3.8,18.3,6.8,27.8,8.8"/>
	<path class="st0" d="M1176.4,605.5c12.8,10.8,31.1,14.7,47.2,10.3"/>
	<path class="st0" d="M1217,609.6c-11.4,4.3-24.4,4.4-36.9-0.2c12.6,11.6,31,16.7,47.8,13.2"/>
	<path class="st0" d="M1179.9,612.5c14.9,13.8,37.7,18.3,56.8,11.4"/>
	<path class="st0" d="M1205.2,617.5c11.5,0.9,23.1,0,34.3-2.8"/>
	<path class="st0" d="M1190.2,602.1c14,7.2,30.2,10.2,45.9,8.5"/>
	<path class="st0" d="M1179.5,603.3c13.2,9,29.3,13.8,45.3,13.6"/>
	<path class="st0" d="M1207.5,579c21.7,5.5,42,16.5,58.6,31.5"/>
	<path class="st0" d="M1172.9,574.7c7.1,3.9,15.5,4.9,23.6,4.3c8.1-0.6,15.9-2.9,23.6-5.3"/>
	<path class="st0" d="M1197,625.2c-14.1-3-28.8-1.8-42.8,1.7s-27.4,9-40.6,14.8"/>
	<path class="st0" d="M1121.5,637.8c0.8-7.6,7.1-13.8,14.3-16.3s15.1-2.2,22.6-1.2s15.1,2.6,22.7,2.4"/>
	<path class="st0" d="M1128,638.5c-3.7,34.3,4.7,69.7,23.4,98.7"/>
	<path class="st0" d="M1132.5,639.3c-0.9,32.4,7,65.1,22.7,93.5"/>
	<path class="st0" d="M1142.2,669.4c1.4,22.8,8.5,45.2,20.4,64.7"/>
	<path class="st0" d="M1152.1,737.8c36.3,3.3,70.8,22.9,92.3,52.4"/>
	<path class="st0" d="M1166.7,735.4c-2.4-6.7-4.8-13.3-7.2-20"/>
	<path class="st0" d="M1189.7,750c-9.4-12.2-19.7-23.7-30.9-34.3"/>
	<path class="st0" d="M1152.7,733c16.8,2.8,32.9,8.9,47.4,17.9"/>
	<path class="st0" d="M1168,734.1c16.1,1,31.6,9,41.7,21.6"/>
	<path class="st0" d="M1174.6,718.2c8,10.3,17.3,19.5,27.7,27.3"/>
	<path class="st0" d="M1193.6,726.9c9.6,16,24.6,28.7,41.9,35.5"/>
	<path class="st0" d="M1203.3,732.2c5.2,3.2,10.4,6.3,15.7,9.5"/>
	<path class="st0" d="M1217.2,714.9c8.4,23.6,16.9,47.2,25.4,70.8"/>
	<path class="st0" d="M1207.1,747.4c7,6.7,13.9,13.3,20.9,20"/>
	<path class="st0" d="M1226.6,800.9c-11.1-23.7-29.7-43.8-50.9-58.7c-11.9,8.4-22.4,18.8-31,30.6"/>
	<path class="st0" d="M1136.6,770.8c10.4-9.3,21.9-17.4,34.2-24"/>
	<path class="st0" d="M1174.2,742.4c-10.8-1.6-22.3,1.4-30.9,8.2c-3.1,2.4-5.8,5.2-8.9,7.6s-6.8,4.2-10.6,4.2"/>
	<path class="st0" d="M1157.5,738.3c-6.1,2.8-12.3,5.7-17.9,9.6c-5.6,3.9-10.5,8.8-13.4,15"/>
	<path class="st0" d="M1158.8,769.5c6.2-10.6,15.7-19.4,26.7-24.8"/>
	<path class="st0" d="M1160.3,741.5c29.8,5.6,57.6,21.5,77.4,44.4"/>
	<path class="st0" d="M1182.6,755.3c-5.9,4.1-10.4,10-12.8,16.7"/>
	<path class="st0" d="M1198.6,752.1c-2.9,2.8-5.8,5.7-7.3,9.4c-0.6,1.6-1,3.6-0.1,5.1c0.8,1.5,3.2,2.3,4.4,1.1"/>
	<path class="st0" d="M1215.9,761.1c0.1,1.8-0.5,3.5-0.9,5.2s-0.8,3.6-0.2,5.3s2.4,3,4.1,2.5"/>
	<path class="st0" d="M1230.8,777.3c-2.1-2-5.4-2.3-7.9-0.9c-2.4,1.5-3.7,4.6-3,7.4"/>
	<path class="st0" d="M1235.7,783.3c-1.4-2-4-3-6.4-2.5s-4.4,2.5-4.9,4.8"/>
	<path class="st0" d="M1240.1,787.8c4.6,5.9,8.7,12.2,11.2,19.2c2.4,7,3.1,14.8,0.7,21.9"/>
	<path class="st0" d="M1239.3,784.9c12.3,15,20.1,33.4,24.6,52.3s6,38.4,6.7,57.8"/>
	<path class="st0" d="M1245.5,790.4c11,15.2,18.1,33,22.4,51.3c4.3,18.3,6.1,37.1,7,55.8"/>
	<path class="st0" d="M1243.7,771c10.2,15.7,16.9,33.4,21.2,51.7c4.2,18.2,6.1,36.9,7.1,55.6"/>
	<path class="st0" d="M1229.5,873.8c12-15.6,24-31.3,37.9-45.2s29.9-26,48.1-33.4c1.6-0.6,3.4-1.2,4.8-0.4c1.6,0.9,2,3.1,1.4,4.8
		s-2,3-3.3,4.2"/>
	<path class="st0" d="M1256.7,843.2c8.5,12.3,12.9,27.4,12.5,42.3"/>
	<path class="st0" d="M1878.4,1015.2c-55.3-14.1-107.7-39.3-153.2-73.7"/>
	<path class="st0" d="M1866.8,1009.7c-35.4-17.2-69.8-36.7-102.7-58.3"/>
	<path class="st0" d="M1782.5,943.4c19.3,15.9,38.6,31.8,58,47.7"/>
	<path class="st0" d="M1833.7,1016.7c-13.2-9.8-26.5-19.5-39.7-29.3c0.6,2.6,1.1,5.2,1.7,7.9c-48-20.6-100.1-30.2-152.1-33.9
		s-104.3-1.5-156.5,0.7"/>
	<path class="st0" d="M1524.7,939.6c3.3-0.4,6.7-0.8,10-1.2c-1.6-2.5-3.6-5.3-6.5-6s-6.6,2.3-5.2,5c0.6,1.2,1.9,1.8,3.2,2.3
		c31.5,13.4,66.7,14.3,100.8,13.5c34.2-0.8,68.8-3.1,102.2,4.3c26.1,5.8,50.4,17.4,74.5,28.9"/>
	<path class="st0" d="M1613.5,958.8c-54.5-10.6-111.9-4.9-161.9,17c6.3-4.3,12.7-8.6,19-12.8c-33.4,6.1-67.3,9.8-101.3,11"/>
	<path class="st0" d="M1391.9,986.5c3-0.7,6.2-0.6,9.2,0c-5.2,4.1-10.3,8.2-15.5,12.3c-2.9,2.3-5.8,4.6-9.2,6.2s-7.2,2.3-10.8,1.3"
		/>
</g>
<g id="Layer_4_copy_3">
	<path class="st0" d="M1444,207.6c-16.1,29.1-26.4,61.4-29.9,94.5"/>
	<path class="st0" d="M1378.7,206.8c8,6.6,18.8,9.7,29.1,8.2"/>
	<path class="st0" d="M1384.8,267.6c0.5-12.1,1-24.1,1.5-36.2"/>
	<path class="st0" d="M1384,215.6c15.2-60.4,40-118.4,73.3-171"/>
	<path class="st0" d="M1426,104c4.8-23.3,15.2-45.5,30-64.1"/>
	<path class="st0" d="M1413.9,107.9c14.8-26.5,29.6-53,44.4-79.6"/>
	<path class="st0" d="M1387.1,227.1c11.2-64.7,35.6-127,71.3-182"/>
	<path class="st0" d="M1389.8,222.5c4.2,27.9,12.6,55.2,25,80.6"/>
	<path class="st0" d="M1394.5,217.1c13.4,11.9,23.8,27.1,30,43.9"/>
	<path class="st0" d="M1393.5,230.1c4.4-4.9,8.7-9.9,13.1-14.8"/>
	<path class="st0" d="M1414.6,267c-7.3-17.6-14.5-35.3-24.2-52.1c6.5,11.1,10.6,23.7,12,36.5"/>
	<path class="st0" d="M1386.4,222.5c6,5.4,13.5,9.2,21.5,10.7"/>
	<path class="st0" d="M1397.8,222.4c10,12.5,16.7,27.6,19.2,43.5"/>
	<path class="st0" d="M1403.1,244.5c2.1,12.8,4.1,25.7,6.2,38.5"/>
	<path class="st0" d="M1400.9,298.5c4.5-14.9,11.8-29,21.4-41.2"/>
	<path class="st0" d="M1399.1,254.6c3.9,3.5,7.9,7,11.8,10.6"/>
	<path class="st0" d="M1411.6,291.5c2.9-9.2,5.8-18.4,8.7-27.7"/>
	<path class="st0" d="M1493.1,233.3c-15.9-10.8-34.9-16.9-54.1-17.4"/>
	<path class="st0" d="M1523.6,95c-11.4,8.8-20.1,20.9-24.9,34.4"/>
	<path class="st0" d="M1477.5,167.3c2.5-10.7,14.7-18.1,25.3-15.4"/>
	<path class="st0" d="M1464.3,183.5c5.8-6,11.5-11.9,17.2-17.9"/>
	<path class="st0" d="M1455,202.2c4.7-8.2,11.2-15.3,18.9-20.6"/>
	<path class="st0" d="M1447.8,212.7c6.7-4.9,13.4-9.8,20.1-14.7"/>
	<path class="st0" d="M1453.3,214.9c13.1-9.8,26.2-19.5,39.3-29.3"/>
	<path class="st0" d="M1467.5,192.2c9.2-10,20-18.5,31.9-25.1"/>
	<path class="st0" d="M1483.5,171.8c5.3-4,10.5-7.9,15.8-11.9"/>
	<path class="st0" d="M1468.3,214.4c14.2-11.6,26.2-25.8,35.5-41.6"/>
	<path class="st0" d="M1478.4,215.8c5.8-4.3,10.6-10,13.6-16.6"/>
	<path class="st0" d="M1487.2,225.4c2.7-10.2,5.4-20.5,8.1-30.7"/>
	<path class="st0" d="M1463.1,206.4c8.4-9.7,16.8-19.4,25.3-29.2"/>
	<path class="st0" d="M1511.4,115.6c-2.1,11.7-4.2,23.5-6.3,35.2"/>
	<path class="st0" d="M1518.9,105.6c-14.3,72.3-28.7,144.6-43,216.9"/>
	<path class="st0" d="M1456.2,348.7c26.3-78.3,45.5-159.1,57.3-240.8"/>
	<path class="st0" d="M1516.8,106.9c-5,28.3-9.9,56.6-14.9,84.9"/>
	<path class="st0" d="M1473.8,302.6c5.6-19.4,11.3-38.8,16.9-58.1"/>
	<path class="st0" d="M1471.7,283.4c2.9,13.3,8.8,25.9,17.1,36.7"/>
	<path class="st0" d="M1478.7,288c7.7,21.5,18.3,41.9,31.5,60.5"/>
	<path class="st0" d="M1489.6,323.8c20.8,5.3,40.3,15.6,56.4,29.8"/>
	<path class="st0" d="M1484.9,318.1c26.4,7.6,51,21.6,71.1,40.4"/>
	<path class="st0" d="M1447.8,325c75.3,37.6,147.4,81.5,215.5,130.9"/>
	<path class="st0" d="M1460.1,343.6c48.6-0.9,97.2,18.4,132,52.4"/>
	<path class="st0" d="M1468.5,346.8c72.5,23.4,142.4,54.9,208,93.7c10.7,6.3,24.8,6.4,35.7,0.3"/>
	<path class="st0" d="M1438.1,345.4c-0.7-0.6-1.5-1.2-2.2-1.8c8,7.1,18.2,11.8,28.8,13.3"/>
	<path class="st0" d="M1058.7,111.1c44,43.8,90.2,85.4,138.2,124.7c37.3,30.5,76,59.7,118.9,81.5c42.9,21.8,90.5,36.1,138.7,35"/>
	<path class="st0" d="M1051.8,98.9c58.6,143.7,177.7,261.5,321.9,318.6"/>
	<path class="st0" d="M1069.7,133.4c47,92,116.6,172.3,201,231.8c25.8,18.2,53.4,34.6,83.9,42.9"/>
	<path class="st0" d="M1082.4,137c53.8,52.9,112.2,101,174.5,143.6L1082.4,137z"/>
	<path class="st0" d="M1079.6,139.8c56.5,58.6,120.5,109.9,189.9,152.4"/>
	<path class="st0" d="M1123.8,185.6c19.1,19.1,39.7,36.6,61.4,52.5"/>
	<path class="st0" d="M1183,244.3c11.6,9.1,24.1,16.9,37.3,23.4"/>
	<path class="st0" d="M1137.4,205.2c17.8,19.3,38.3,36,60.8,49.5"/>
	<path class="st0" d="M1191.8,254.3c12.6,13.5,29.1,23.3,46.9,28.1"/>
	<path class="st0" d="M1265.5,288.8c0.7,17.4,5.6,34.7,14.2,49.8"/>
	<path class="st0" d="M1278.2,303.1c1,14.2,4.7,28.3,10.9,41.2"/>
	<path class="st0" d="M1287.9,307.7c2.8,17.3,8.7,34,17.4,49.2"/>
	<path class="st0" d="M1300.2,314.6c6.6,19.1,13.2,38.2,19.8,57.3"/>
	<path class="st0" d="M1310.6,323.8c9.5,16.9,16.4,35.3,20.3,54.4"/>
	<path class="st0" d="M1324.6,330.9c3.7,18.7,10.9,36.8,21.2,52.9"/>
	<path class="st0" d="M1337.1,337.2c7.4,20.8,16.4,41,26.8,60.5"/>
	<path class="st0" d="M1352.1,346c5.4,18.7,14.1,36.5,25.6,52.2"/>
	<path class="st0" d="M1366.6,350.5c7.1,14.2,14.2,28.4,21.3,42.6"/>
	<path class="st0" d="M1376.9,355.4c9.6,10.5,16.8,23.2,21,36.8"/>
	<path class="st0" d="M1390.9,361.8c7.1,7.1,12.4,16.1,15.2,25.8"/>
	<path class="st0" d="M1257,309c-1-6.2-2.1-12.3-3.1-18.5"/>
	<path class="st0" d="M1244.5,298.6c0-3.7,0-7.5,0-11.2"/>
	<path class="st0" d="M1264.1,287.8c66.2,48.9,140.9,86.4,219.7,110.2"/>
	<path class="st0" d="M1292.5,303.2c90.3,56.4,184.9,105.9,282.7,148"/>
	<path class="st0" d="M1561.6,438.8c85.8,49.9,182.7,80.3,281.6,88.3"/>
	<path class="st0" d="M1540.9,477.6c-19.1-21.9-32.8-48.5-39.6-76.7"/>
	<path class="st0" d="M1507.5,442.5c-10.1-14.9-17.1-31.8-20.4-49.5"/>
	<path class="st0" d="M1496,440.4c-9.8-15.8-16.6-33.5-19.8-51.8"/>
	<path class="st0" d="M1484.7,438.1c-9.8-15.6-16.3-33.2-19.3-51.5"/>
	<path class="st0" d="M1476.8,437.8c-12.9-20.3-22-42.9-26.7-66.5"/>
	<path class="st0" d="M1460.8,420.6c-7.9-13.7-13.4-28.7-16.4-44.2"/>
	<path class="st0" d="M1447.8,412.8c-8.8-7.9-15.7-17.8-20.1-28.7"/>
	<path class="st0" d="M1410.7,383.3c-1.8-6.1-3.7-12.2-5.6-18.3"/>
	<path class="st0" d="M1464.9,399c83.1,49.7,172.8,88,266.1,113.8c35.8,9.9,72.6,17.9,109.6,16.6"/>
	<path class="st0" d="M1479.7,408.8c68.5,40.1,137.8,80.4,213.4,104.4c56.5,17.9,115.5,26.4,174.6,31.3"/>
	<path class="st0" d="M1583.9,468.9c88.6,39.4,184,63.4,280.7,70.6"/>
	<path class="st0" d="M1518.3,365.9c56.9,42,120,75.5,186.8,99"/>
	<path class="st0" d="M1660.7,112.6c2.8-4.4,7.1-7.8,12.1-9.5c23,42.6,40.3,88.3,51.4,135.4"/>
	<path class="st0" d="M1720.5,181c23.7,94.9,28.4,194.4,13.9,291"/>
	<path class="st0" d="M1455.9,45.5c81.6,16.4,160.6,45.5,233.3,86c6,3.3,12.2,7,15.7,13c3.4,5.9,2.8,14.8-3.1,18.3"/>
	<path class="st0" d="M1630.6,94.4c18.7,47.4,58.2,86.2,106,104"/>
	<path class="st0" d="M1701.9,189c-3.4-11.1-6.7-22.2-10.1-33.4"/>
	<path class="st0" d="M1454.8,32c59,13.8,117.5,30.1,175.2,48.7"/>
	<path class="st0" d="M1648.9,117.6c9.9,16.1,21.4,31.3,34.2,45.2"/>
	<path class="st0" d="M1665.6,124.8c10.3,9.3,19.3,20.2,26.3,32.2"/>
	<path class="st0" d="M1670.5,136.1c6,7.8,12,15.6,18,23.3"/>
	<path class="st0" d="M1686.5,133.3c5.5,11.6,11.1,23.3,16.6,35"/>
	<path class="st0" d="M1739.8,313.9c9.7,35.9,16.7,72.6,20.7,109.6"/>
	<path class="st0" d="M1743.6,408.2c7.8,13.2,15.5,26.5,20.4,40.4c-2.2,0.1-3.1,3.3-2.1,5.3s3,3.3,4.4,5s2.1,4.6,0.4,6
		c-1.4,1.3-4.1,1-4.8,2.8c-0.6,1.5,0.7,3,1.9,4c10.6,9.1,22.1,17.3,34.2,24.4"/>
	<path class="st0" d="M1746.2,351.3c1.4,21,2.8,41.9,4.3,62.9"/>
	<path class="st0" d="M1749.8,376.8c1.8,9.9,3.5,19.7,5.3,29.6"/>
	<path class="st0" d="M1744.1,417c1.7,18,1.7,36.1-0.1,54.1"/>
	<path class="st0" d="M1755.3,449.2c-3.3-6-5.5-12.6-6.4-19.4"/>
	<path class="st0" d="M1755.9,462c-1.4-3.7-2.8-7.4-4.2-11.2"/>
	<path class="st0" d="M1722.1,458.7c19.9,14.3,43.9,22.9,68.4,24.5"/>
	<path class="st0" d="M1733.8,470.8c19,11.1,41.2,16.7,63.1,15.9"/>
	<path class="st0" d="M1772.3,468.5c0.7,6.2,5.9,10.8,10.8,14.6c40.5,31,88.2,51.4,137.2,65.8"/>
	<path class="st0" d="M1853.3,531.4c33.7,9.7,70.1,9.7,103.8,0.1"/>
	<path class="st0" d="M1806.1,530.4c68.6,19.7,139.8,30.3,211.1,31.6"/>
	<path class="st0" d="M1874.9,542.2c61.8,10.9,123.7,21.3,185.7,31.2"/>
	<path class="st0" d="M1836,538.8c17.7,3.1,35.5,6.2,53.2,9.2"/>
	<path class="st0" d="M1922.1,550.2c42.8,20.1,87.8,35.7,133.8,46.3c-3.7-3.8-7.4-7.6-11.2-11.3"/>
	<path class="st0" d="M1974.6,561.6c40.2,10.5,82,14.3,123.4,11.3"/>
	<path class="st0" d="M1699.1,468c-3.5,0-6.9-2.6-7.8-6"/>
	<path class="st0" d="M1503.2,159.8c-4.5,15.9-12.8,30.8-24.1,42.9"/>
	<path class="st0" d="M1456.7,40.6c22.1,3.8,43.9,9.5,65.1,17"/>
	<path class="st0" d="M1465.4,38.7c41.3,13,81.9,28.4,121.4,46.1"/>
	<path class="st0" d="M1536.6,60.6c16.2,4.2,31.9,10.5,46.4,18.8"/>
	<path class="st0" d="M1503.6,47.3c35.1,9.2,69.2,22.2,101.6,38.7"/>
	<path class="st0" d="M1079.9,144.4c16.5,28.6,37,54.8,60.8,77.7"/>
	<path class="st0" d="M1135.2,230.1c18,25.5,39.8,48.2,64.4,67.3"/>
	<path class="st0" d="M1214.7,312.6c15,12,30,24,45,35.9"/>
	<path class="st0" d="M1146.1,225.8c8.3,9.1,16.6,18.2,24.9,27.2"/>
	<path class="st0" d="M1181.4,251.8c-0.2,11.5,2.7,23,8.3,33"/>
	<path class="st0" d="M1190.4,268.5c3.6,7.5,7.1,15,10.7,22.5"/>
	<path class="st0" d="M1268,354.9c22.7,22.1,50.3,39,80.2,49.2"/>
	<path class="st0" d="M1377.4,410.6c7.4-5.3,15.2-9.9,23.4-13.8"/>
	<path class="st0" d="M1492,142.8c3.8-12,9.9-23.3,18-32.9"/>
</g>
<g id="Layer_5">
	<path class="st0" d="M1124.5,1694.7c7.3-7.9,11.3-18.8,11.1-29.5c-0.3-10.8-4.9-21.4-12.6-28.9c-4.1-4.1-9.2-7.3-14.9-8.6
		s-11.9-0.4-16.6,3s-7.5,9.5-6.3,15.2"/>
	<path class="st0" d="M1144.1,1681.9c-16.6-8.4-27.4-27.1-26.4-45.7"/>
	<path class="st0" d="M1116.8,1630.4c0.6-3-1.2-6.1-3.7-7.8c-2.5-1.7-5.6-2.4-8.6-2.9c-2.7-0.5-5.5-0.9-8.3-0.6s-5.5,1.4-7.4,3.5"/>
	<path class="st0" d="M1111.2,1622.5c-8.6-5.1-20.2-2.5-27.9,3.8c-7.7,6.4-12.2,15.8-15.7,25.2c-14.5,39.9-12.8,84.4-2.2,125.5
		c4.4,17.1,10.5,34,20.6,48.4c10.2,14.4,24.9,26.2,42.1,30.1"/>
	<path class="st0" d="M1069,1642.7c-11.8,44.8-12.2,92.5-1.2,137.5c5.7,23.5,15.6,47.6,35.4,61.4"/>
	<path class="st0" d="M1044.5,1661.9c12,10.1,18.3,26.6,15.9,42.2"/>
	<path class="st0" d="M1090.2,1623.1c-26,57.6-27.1,125.9-3,183.3c0.7,3.5,1.5,7.2,4.1,9.6c1.5,1.4,3.5,2.1,5.4,2.8
		c6.7,2.3,13.6,4.2,20.5,5.6"/>
	<path class="st0" d="M1085.4,1627.9c-25.7,62-22.4,135.3,8.6,194.9"/>
	<path class="st0" d="M1088.7,1647.3c8.4,34.8,16.8,70,32,102.4c15.2,32.5,37.7,62.5,68.6,80.6"/>
	<path class="st0" d="M1094.8,1633.9c-1.9,20.6,3.3,41.2,9.2,61.1c4.9,16.7,10.3,33.4,19,48.4c8.9,15.2,21.1,28.5,35.5,38.6
		c4.2,3,8.8,5.7,13.8,7c5,1.3,10.6,1.1,15-1.5"/>
	<path class="st0" d="M1100.7,1634.7c0.6,25.6,5.3,51,13.9,75.1c3.1,8.8,7.1,17.8,14.6,23.2"/>
	<path class="st0" d="M1109.1,1713.3c22.6,35.9,53.2,66.7,89.1,89.5"/>
	<path class="st0" d="M1136.6,1666.5c-9.4-7.5-21.2-12.1-33.2-13c-4.5-0.3-9.8,0.3-12,4.2"/>
	<path class="st0" d="M1094.5,1637.7c2.7-1.6,6.1-1.6,9.1-0.6s5.6,2.8,7.9,4.9c7.4,6.4,13.1,14.7,16.3,23.8"/>
	<path class="st0" d="M1102.2,1623c-3-1.3-6.7-1-9.3,0.8s-4.3,5.2-4.1,8.4c0.2,4.2,3.2,7.8,6.4,10.6c3.2,2.8,6.8,5.2,9.1,8.8"/>
	<path class="st0" d="M1095.6,1629.9c10.7-0.9,21.6,3.8,28.3,12.1s8.9,20.1,5.8,30.3"/>
	<path class="st0" d="M1179.3,1829.2c0.2-1.3,1.1-2.3,2.2-3c1.1-0.7,2.4-1,3.6-1.3c3.4-0.9,6.9-1.8,10.4-1.7
		c3.5,0.1,7.2,1.3,9.5,3.9"/>
	<path class="st0" d="M1202.8,1780.4c-4.8,16.9-4.7,35.2,0.4,52"/>
	<path class="st0" d="M1196.6,1818.6c-3-8.9-2.9-18.9,0.4-27.7"/>
	<path class="st0" d="M1201.5,1782.2c5-7.9,12.4-14.1,20.4-19s16.6-8.6,25.1-12.5c22.7-10.5,44.6-22.7,65.5-36.4
		c4.9-3.2,9.8-6.6,13.9-10.9c4.1-4.2,7.4-9.5,8.4-15.3"/>
	<path class="st0" d="M1176.1,1778.7c0.5,2.4,3.8,2.9,6.3,2.8c34.1-2.1,64.1-25.7,98.2-27.4"/>
	<path class="st0" d="M1213.5,1774.5c22.4-0.5,44.6-7,63.7-18.6"/>
	<path class="st0" d="M1271.7,1722.8c12.9,5.8,27,9.1,41.3,10.3c-8.6,2.2-17.5,3.1-27.5,1.3c49,27.5,105,42.5,161.2,43.1"/>
	<path class="st0" d="M1304.8,1718.9c11.1,9.8,21.4,20.7,30.7,31.7c-7.5-2.9-15.5-4.5-23.3-6.6c-7.8-2.1-15.6-4.8-21.9-9.8"/>
	<path class="st0" d="M1317.9,1772c-2.5-20.4-3.3-40.9-2.5-61.5"/>
	<path class="st0" d="M1308.2,1573.2c-0.1,54,1.4,108,4.5,161.9"/>
	<path class="st0" d="M1307.8,1717.7c7.8-2.9,14.7-8.5,19.1-15.6"/>
	<path class="st0" d="M1317.5,1573.3c5.2,42.2,8.4,84.7,9.5,127.2"/>
	<path class="st0" d="M1328.2,1605.8c8.3,28,10.9,57.7,7.5,86.7"/>
	<path class="st0" d="M1335.2,1577.8c0.5,38.2,1,76.4,1.5,114.7"/>
	<path class="st0" d="M1327.8,1585.4c11,14.9,22.3,30,37.2,41c2.2,1.6,4.5,3.2,7.1,4.1c2.6,0.9,5.5,1.1,8-0.1"/>
	<path class="st0" d="M1360.6,1616.8c20.7,15.6,47.3,23,73,20.3"/>
	<path class="st0" d="M1368.7,1617.6c19.9,14.5,46,20,70.1,15"/>
	<path class="st0" d="M1329.2,1582.6c7.1,9.4,17.4,16.4,28.8,19.5"/>
	<path class="st0" d="M1447.6,1647.2c15.9,4,33,3.5,48.7-1.4"/>
	<path class="st0" d="M1454.1,1643.7c14.2,6,30.4,7.2,45.2,3.2"/>
	<path class="st0" d="M1469.6,1645.4c8.7,2.3,17.9,2.6,26.7,0.9"/>
	<path class="st0" d="M1428.2,1635.6c63.4,59.7,124.2,122,182.4,186.8"/>
	<path class="st0" d="M1571.5,1773.4c19.8,23.9,43.1,45.1,68.9,62.5"/>
	<path class="st0" d="M1352.2,1704.6c-1.8-36-3.6-72-5.3-108"/>
	<path class="st0" d="M1363.1,1698.9c-4.7-27.5-6.6-55.4-5.8-83.3"/>
	<path class="st0" d="M1373.9,1694.9c-7.4-27.1-10.6-55.4-9.3-83.5"/>
	<path class="st0" d="M1385.1,1707.5c-6.9-28.3-8.8-57.8-5.5-86.7"/>
	<path class="st0" d="M1397.1,1719.7c-3.9-31.7-6.1-63.7-6.6-95.6"/>
	<path class="st0" d="M1413.7,1718.3c-6.1-31.3-9.2-63.2-9.2-95.1"/>
	<path class="st0" d="M1425.9,1724.4c-5.3-34.5-7.2-69.5-5.8-104.3"/>
	<path class="st0" d="M1442.3,1745.2c-4-33.9-7.9-67.8-11.9-101.7"/>
	<path class="st0" d="M1457.5,1749.6c-8.4-32.5-13.4-65.9-14.8-99.4"/>
	<path class="st0" d="M1472.8,1758c-7.9-29.8-11.8-60.8-11.6-91.7"/>
	<path class="st0" d="M1485.8,1757c0.9,2.3,1.9,4.5,2.8,6.8c-7-27.9-10.9-56.7-11.6-85.4"/>
	<path class="st0" d="M1507.2,1764.2c-8.6-19.9-14.4-41.1-17.3-62.6"/>
	<path class="st0" d="M1514.7,1760.6c-4.1-15.2-6.4-31-6.8-46.8"/>
	<path class="st0" d="M1426.4,1781.4c21.1,3.5,43.1,1.2,63-6.4c-7.9,5.7-15.9,11.4-23.8,17.1c36.4-9.2,73.1-17.4,109.9-24.7"/>
	<path class="st0" d="M1350.4,1764.8c-0.5,18.7,0.3,37.5,2.5,56.1"/>
	<path class="st0" d="M1362.2,1764.5c3.2,31.1,6.5,62.2,9.8,93.2"/>
	<path class="st0" d="M1376.7,1792.5c2.5,22.3,5,44.7,7.6,67.1"/>
	<path class="st0" d="M1394.9,1774.9c-0.5,28.4,0.3,56.9,2.5,85.3"/>
	<path class="st0" d="M1131.2,1868.1c58.9,9.3,119.1,10.1,178.1,1.7c-1.8,2.2-3.5,4.3-5.2,6.5c21.2-6.3,43.5-8.7,65.6-7.2"/>
	<path class="st0" d="M1100.1,1837.4c22.1,16.3,46.2,29.8,71.6,40.2c9.4,3.8,19.1,7.3,29.2,7.8s20.8-2.3,27.9-9.4"/>
	<path class="st0" d="M1262.8,1874.7c56.8,21,118.9,21.5,179.4,18.3c60.5-3.2,121.3-9.8,181.3-2.1"/>
	<path class="st0" d="M1416.5,1885.7c10.9,11,26.7,17.1,42.2,16.2"/>
	<path class="st0" d="M1398.4,1875.2c-5.6-0.4-11.1-1.7-16.3-3.7c40.5-3.5,81.2-5.5,121.9-6"/>
	<path class="st0" d="M1423.6,1875.2c-3.6-27.4-5-55-4.2-82.6"/>
	<path class="st0" d="M1445.2,1879.6c-8.9-24.9-11.8-52-8.3-78.2"/>
	<path class="st0" d="M1462.8,1870.2c-2.1-18.8-4.2-37.7-6.3-56.5c-0.8-6.8-1.2-14.5,3.5-19.4"/>
	<path class="st0" d="M1497.6,1873.8c-3.8-23.9-5.2-48.1-4.2-72.2"/>
	<path class="st0" d="M1503,1867.1c5.9-5.2,11.9-11.2,13.7-18.9c2.6-10.9-3.8-21.6-8.2-31.9c-6.3-14.7-8.9-31-7.5-47"/>
	<path class="st0" d="M1502.2,1871.9c7.8,7.2,18,11.8,28.6,12.8c2.8,0.3,6.2,0.1,7.9-2.2c2.6-3.3-0.2-7.9-2.8-11.3
		c-16.2-21.8-22.3-50.9-16.1-77.3"/>
	<path class="st0" d="M1542.7,1867c-15.1-17.4-23.1-40.6-22.1-63.6"/>
	<path class="st0" d="M1517.4,1838.6c2.8,0.3,5.6,0.6,8.4,0.2c2.8-0.4,5.5-1.6,7.2-3.8c2.2-2.8,2.4-6.5,2.4-10
		c0.1-10.8-0.6-21.7-3-30.9c4.9,19.7,18.5,37.1,36.5,46.5"/>
	<path class="st0" d="M1517.1,1831.4c3.2,1.9,6.7,3.6,10.4,3.9c3.7,0.4,7.7-0.6,10.2-3.4c2.6-2.8,3.2-6.9,3.1-10.8
		c-0.2-9.2-3.8-17.9-6.7-25.3c3.4,7.3,6.8,14.6,11.3,21.2c4.4,6.7,9.9,12.8,16.8,16.9"/>
	<path class="st0" d="M1550.8,1784.7c0.6,27.6,4.6,55.2,11.8,81.8"/>
	<path class="st0" d="M1622.7,1811.5c9.9,16.2,13.5,36.2,9.8,54.8"/>
	<path class="st0" d="M1640.1,1818.8c-0.1,44.3,1.1,88.6,3.6,132.8"/>
	<path class="st0" d="M1652.2,1850.3c-15.4,19.2-24.8,43.2-26.4,67.7"/>
	<path class="st0" d="M1633.3,1922.8c-2.1-15.5,0.9-31.7,8.5-45.3c7.6-13.7,19.7-24.8,34-31.2"/>
	<path class="st0" d="M1380.6,1919.1c81-9.1,162.3-15.5,243.7-19.2"/>
	<path class="st0" d="M1466.8,1930.9c64.8-7.6,130.2-10.1,195.3-7.4"/>
	<path class="st0" d="M1468.5,1943c66.1-8.6,132.9-11.3,199.5-8.2"/>
	<path class="st0" d="M1635,1917.2c23.3,19.1,52.2,31.1,82.1,34.2"/>
	<path class="st0" d="M1646.1,1851.1c28.2-1.5,56.4-0.2,84.3,3.8"/>
	<path class="st0" d="M1653.4,1846.6c23.3-0.7,46.7,2.5,69,9.5"/>
	<path class="st0" d="M1629.2,1881.2c26.8-27.6,66-42.7,102-39c-11.7,5.2-24.5,7-37.2,9s-25.4,4.4-36.6,10.6
		C1646.2,1868.1,1636.7,1878.7,1629.2,1881.2z"/>
	<path class="st0" d="M1649.8,1834.6c2.1,0.2,3.8,1.8,4.7,3.7s1.2,4,1.6,6.1c1.2,5.6,3.8,10.9,7.6,15.3c1.3,1.6,3.1,3.1,5.1,3
		c2.8-0.1,4.5-3.2,5.6-5.8"/>
	<path class="st0" d="M1637.1,1859c3.5,1.6,7.5,0.5,11.1-0.7s7.4-2.7,11.1-2"/>
	<path class="st0" d="M1750.8,1773.8c6.1,1.1,9.3,8.3,8.5,14.4s-4.6,11.4-7.9,16.6c-11.6,18.2-19.3,38.9-22.3,60.3"/>
	<path class="st0" d="M1780.9,1702.5c5.1,13.6,4.9,29.2-0.7,42.7c-0.9,2.3-2.6,4.8-5.1,4.7c-2.7-0.2-3.8-3.5-4.1-6.2
		c-1.8-16.7,4.4-34.1,16.5-45.9c2.7-2.7,7-5.1,10.1-3c2,1.4,2.6,4,2.9,6.4c2.6,19.7-2.6,39.7-10.8,57.8
		c-8.2,18.1-19.4,34.6-29.9,51.4s-20.3,34.4-25.3,53.6"/>
	<path class="st0" d="M1773.4,1721.6c3.9,20.9,4.8,42.3,2.7,63.5"/>
	<path class="st0" d="M1762.9,1719.9c8.3-21.6,16.5-43.2,23.7-65c3.1,3.3,6.1,6.6,9.1,9.9c0.7,0.7,1.4,1.5,2.4,1.5
		c1.9,0,2.5-2.5,3.6-4.1c1.5-2.1,4.7-2.6,7.1-1.7s4.4,2.7,6.3,4.6c7.5,7.2,15,14.4,22.5,21.6"/>
	<path class="st0" d="M1782.6,1681.1c-0.1-1.3-0.2-2.7,0.2-4s1.3-2.5,2.7-2.7c2.1-0.4,3.7,1.6,4.8,3.4c2.9,5,4.5,10.7,4.8,16.4"/>
	<path class="st0" d="M1813.1,1699.2c-3-3.5-5.9-6.9-8.9-10.4c25.1,48.1,40.3,100.8,66,148.6"/>
	<path class="st0" d="M1857.3,1818.8c29.1,23.7,41.3,63.1,69.2,88"/>
	<path class="st0" d="M1869.1,1825.4c-0.4,5.8-0.9,11.5-0.2,16c-3.3-6.6-6.7-13.2-10-19.8"/>
	<path class="st0" d="M1848.9,1827.7c3-49.9-0.9-100.2-11.5-149.1"/>
	<path class="st0" d="M1854.3,1652.2c9.1,62.2,30,122.8,61.2,177.4"/>
	<path class="st0" d="M1890.2,1807.8c29.4,21.9,50.7,54.4,58.9,90.1"/>
	<path class="st0" d="M1919.3,1868c5.2,11.5,15.4,20.6,27.4,24.3"/>
	<path class="st0" d="M1934.9,1879.3c6.8,2.3,12.7,7,16.7,12.9"/>
	<path class="st0" d="M1960.9,1881.6c4.1,2.4,6.7,7.1,6.6,11.8"/>
	<path class="st0" d="M1926.9,1930.8c3.5-19.7,0.8-40.4-7.4-58.7"/>
	<path class="st0" d="M1883.2,1646.3c-2.9,26.5,3.8,53.3,14,78c10.2,24.7,23.8,47.8,35.5,71.7c2.8,5.7,5.5,11.4,6.6,17.6
		s0.5,12.9-3,18.2c-0.5,0.8-1.2,1.6-2.1,1.5c-1.2,0-1.8-1.3-2.2-2.4c-1.2-3.6-2.5-7.2-3.7-10.8"/>
	<path class="st0" d="M1914.9,1796c-4-10.2-5.7-21.1-7.3-31.9c-2.9-19-5.8-38.8-0.4-57.3"/>
	<path class="st0" d="M1881.8,1683.9c7.7,3.5,15,8,21.6,13.3c2.2,1.8,4.4,3.9,4.6,6.7c0.2,2-0.8,4-2.1,5.6
		c-3.4,4.2-9.2,6.1-14.6,5.7c-5.4-0.3-10.5-2.6-15.2-5.4c-2-1.2-4.1-2.8-4.6-5.1c-0.4-2,0.7-4.1,2.3-5.4c2.8-2.5,7-3,10.6-1.9
		s6.6,3.6,9,6.5c7.4,9.2,8.4,21.8,9.2,33.5"/>
	<path class="st0" d="M1884.1,1634.3c4.2,20.8,9.6,41.2,16.3,61.3"/>
	<path class="st0" d="M1890.7,1612.8c-0.3,16.7,1.3,33.5,4.9,49.8"/>
	<path class="st0" d="M1841.8,1688.1c11.9,39.2,9.6,81.1,7.2,122"/>
	<path class="st0" d="M1639,1936.6c2.7,6.7,9.4,11,16.3,12.8s14.3,1.3,21.4,0.8c14.5-1,29.1-2,43.6-2.9"/>
	<path class="st0" d="M1702.1,1948c36.2,7.9,73.8,9.4,110.5,4.6c25.2-3.3,51.1-9.6,75.8-3.3"/>
	<path class="st0" d="M1712.2,1949.9c93.8-11.6,188.1-18.5,282.6-20.4"/>
	<path class="st0" d="M1720.4,1939.6c65.3-4.7,130.8-7.1,196.2-7.2"/>
	<path class="st0" d="M1828.3,1936.1c25.8-0.5,51.6-3.8,76.6-10"/>
	<path class="st0" d="M1928,1927.7c-4.1,8.3-12.7,14.1-21.9,14.8"/>
	<path class="st0" d="M2001.1,1943.8c-26.3,0.1-52.6,0.4-78.7,0.6c-1.6,2.7-0.4,6.3,1.7,8.5c2.2,2.2,5.2,3.3,8.1,4.3
		c47.6,16.5,98.4,23.5,148.6,20.5"/>
	<path class="st0" d="M1522.1,1806.2c-1.6,15.1-0.6,30.6,3,45.3"/>
	<path class="st0" d="M1527.2,1820.4c-1.4,15.1,0.1,30.6,4.6,45.1"/>
	<path class="st0" d="M1501.3,1768c-2.8,13.1-5.6,27.2-0.5,39.7c3.3,8.2,9.7,14.7,14.1,22.4c8.7,15.4,9.2,35.3,21.3,48.3"/>
</g>
</svg>
