<svg id="Layer_1" data-name="Layer 1" xmlns="http://www.w3.org/2000/svg" viewBox="0 0 61.82 74.06"><path d="M57,77.68l-1.55-.39c-1.19-.29-3.26-.6-4.36-.74a32.4,32.4,0,0,0-3.56-.23,25.73,25.73,0,0,0-2.92.12,4.17,4.17,0,0,0-1.14.24,8.39,8.39,0,0,1-1,.27,3.14,3.14,0,0,0-.52.22c-.47.23-.92.45-1.32.25a.68.68,0,0,1-.38-.5,5.09,5.09,0,0,1,.34-1.66c.35-1.05.67-2.14.94-3.23.17-.69.33-1.4.46-2.1.18-.89.32-1.8.43-2.69.05-.36.1-1.46.13-2.34,0-.62.06-1.18.08-1.44.06-.83.1-1.67.12-2.51-.45,0-.92,0-1.44,0s-1.28-.08-1.93-.14l-1-.1a20.2,20.2,0,0,1-2.21-.48c-.69-.17-1.41-.35-1.82-.4a11.11,11.11,0,0,1-2.15-.44,4.41,4.41,0,0,1-2.37-1.63,4,4,0,0,1-.67-2c0-.64.48-1,.87-1.26.23-.16.48-.34.53-.5.15-.52.33-1,.51-1.47-.7,0-1.31,0-1.89,0-.76,0-1.47-.06-2.15-.13s-1.21-.13-1.78-.23-1.29-.27-1.9-.44a1.18,1.18,0,0,1-.83-1c-.06-.27-.08-.3-.17-.35a12.66,12.66,0,0,1-2.74-1.74A5,5,0,0,0,18.36,48a4,4,0,0,1-2.05-1.29,9.07,9.07,0,0,1-.8-1.66A9.56,9.56,0,0,1,15,43.1c0-.09-.21-.3-.35-.44a2.73,2.73,0,0,1-1-2c0-.67.56-1.07,1-1.4.27-.19.56-.4.61-.58a10.11,10.11,0,0,1,1-2.33,2.8,2.8,0,0,0-.12-.8c-.15-.62-.31-1.27.1-1.7a18.58,18.58,0,0,1,2.12-1.84l1.08-.86a2.56,2.56,0,0,1,1.6-.35,2.55,2.55,0,0,0,1-.12.8.8,0,0,0,.19-.32,1.11,1.11,0,0,0-.28-.48,3.09,3.09,0,0,0-.88-.51,2.83,2.83,0,0,1-1.42-1,3.29,3.29,0,0,1-.08-2.21,4,4,0,0,0,.11-1.29,2.67,2.67,0,0,0-.59-.48c-.48-.33-1-.7-1-1.28a9.52,9.52,0,0,1,.74-3.59,11.36,11.36,0,0,1,1-1.91,6.17,6.17,0,0,0,.48-1.43A5.18,5.18,0,0,1,21.22,14a15.64,15.64,0,0,1,1.32-1.26,3.73,3.73,0,0,1,2.52-.32,4.69,4.69,0,0,0,1.64,0,13.12,13.12,0,0,1,1.41-.69,2.5,2.5,0,0,0,.55-.64c.33-.46.67-.94,1.17-1.05a9.92,9.92,0,0,1,3-.22,3.89,3.89,0,0,1,2,1.1,5.42,5.42,0,0,0,1,.72,8,8,0,0,1,1.49.82A15.86,15.86,0,0,1,39,10.25c.09-.11,0-.46-.07-.74a1.55,1.55,0,0,1,.26-1.68,16.54,16.54,0,0,1,2.18-1.58,6,6,0,0,1,2.42-.4,7.48,7.48,0,0,0,1.6-.17A2.45,2.45,0,0,0,46,5a2.59,2.59,0,0,1,1.23-1,14.73,14.73,0,0,1,2.38-.37,13.53,13.53,0,0,1,2.11,0,2.93,2.93,0,0,1,1.43.81A2.7,2.7,0,0,0,54,5a1,1,0,0,0,.68-.18,1.72,1.72,0,0,1,1.5-.17A5.27,5.27,0,0,1,57.67,6.1a6.53,6.53,0,0,0,.91,1,13.41,13.41,0,0,1,2,1.55,13,13,0,0,0,1,.83,6.81,6.81,0,0,1,2,2,7.16,7.16,0,0,1,.68,2.79,12.44,12.44,0,0,0,.18,1.34,4.16,4.16,0,0,0,.85,1.32A3.67,3.67,0,0,1,66.34,19a7.73,7.73,0,0,1-.58,2.39,9.37,9.37,0,0,0-.43,1.34,5.24,5.24,0,0,1-1.4,2,6.23,6.23,0,0,0-1,1.29c-.22.61-.53,1.39-.88,2.14h0a5.3,5.3,0,0,1,2-.84h.81a6.93,6.93,0,0,0,1-.16,5,5,0,0,1,1.68-.2,9.87,9.87,0,0,1,2,.63,9.31,9.31,0,0,1,2.86,1.89,1.73,1.73,0,0,1,.33,1.43,1.62,1.62,0,0,0,0,.65,3.88,3.88,0,0,0,.81.62c.62.4,1.19.78,1.36,1.28a8.21,8.21,0,0,1,.4,2.12,9.73,9.73,0,0,1-.28,2.8,4.92,4.92,0,0,0,.2,1.7,4.12,4.12,0,0,1,0,2.75c-.43.76-1.66,1-3,1.21a5.23,5.23,0,0,0-2.08.6,7.27,7.27,0,0,0-.69,1.8,5.91,5.91,0,0,1-1.08,2.46,2.67,2.67,0,0,1-1.35.75,2.49,2.49,0,0,0-.91.4,3.66,3.66,0,0,1-2,.24,3.92,3.92,0,0,0-1.3.06l-.63.31c.33.23.66.46.87.38a3.14,3.14,0,0,1,2.38.31,3.07,3.07,0,0,1,1.52,1.56c.06.23.57,2.27.07,3.22a6.75,6.75,0,0,1-1.88,1.78c-.24.18-.47.35-.63.49A17.24,17.24,0,0,1,59,61.66c-.15.05-.31.13-.49.21a3.79,3.79,0,0,1-4.52-.47c-.18-.15-.52-.06-1,.09a4,4,0,0,1-1.08.2A4.08,4.08,0,0,1,51,61.6c0,.2,0,.41,0,.61,0,.62.09,1.23.18,1.83,0,.33.1.85.16,1.43a28.44,28.44,0,0,0,.47,3.37A21.5,21.5,0,0,0,53,72c.27.56.57,1.1.88,1.62A18.89,18.89,0,0,0,56,76.48ZM43.75,59.91v.53c0,1,0,2.07-.13,3.1,0,.25,0,.8-.07,1.4,0,1-.09,2-.14,2.43-.11.91-.26,1.84-.43,2.75-.14.72-.3,1.44-.48,2.15-.28,1.12-.6,2.23-1,3.31-.06.18-.16.52-.23.79l.2-.1a3.78,3.78,0,0,1,.78-.3,9.34,9.34,0,0,0,.91-.24,5.51,5.51,0,0,1,1.37-.29,29.81,29.81,0,0,1,3-.12,32.48,32.48,0,0,1,3.68.24c.76.1,2,.27,3.07.47A20.86,20.86,0,0,1,53,74.11c-.33-.55-.64-1.12-.92-1.7a22.54,22.54,0,0,1-1.26-3.29,27,27,0,0,1-.5-3.54c-.06-.57-.11-1.08-.16-1.4-.09-.63-.15-1.27-.19-1.92S50,61,50,60.4a1,1,0,0,1,0-.17l1,.07a.37.37,0,0,0,0,.11.19.19,0,0,0,0,.12s.21.16.82.16h0a3.23,3.23,0,0,0,.8-.16,2,2,0,0,1,1.94.11,2.81,2.81,0,0,0,3.48.31l.56-.23a17,17,0,0,0,2.47-1.09,16.19,16.19,0,0,0,2.9-2c.18-.16.43-.34.69-.54a6.77,6.77,0,0,0,1.59-1.44,5,5,0,0,0-.15-2.5,2.16,2.16,0,0,0-1-.93A2.09,2.09,0,0,0,63.53,52a2,2,0,0,1-1.78-.5,2.78,2.78,0,0,0-.68-.38l-1.34-.39L61,50.15c.5-.22,1-.45,1.48-.7a3.92,3.92,0,0,1,1.81-.17,3.79,3.79,0,0,0,1.38-.08,3.45,3.45,0,0,1,1.21-.53,1.75,1.75,0,0,0,.92-.53,6.62,6.62,0,0,0,.8-2A6.43,6.43,0,0,1,69.5,44,4.91,4.91,0,0,1,72.16,43c.82-.14,2.06-.36,2.26-.71a3.85,3.85,0,0,0-.14-2,5.16,5.16,0,0,1-.19-2.15,8.74,8.74,0,0,0,.25-2.51A7.2,7.2,0,0,0,74,33.76,4.2,4.2,0,0,0,73,33a3.62,3.62,0,0,1-1.1-.91,2.11,2.11,0,0,1-.19-1.26,1.41,1.41,0,0,0,0-.64,8.4,8.4,0,0,0-2.55-1.69,8.63,8.63,0,0,0-1.85-.56,5,5,0,0,0-1.27.18,5.27,5.27,0,0,1-1.25.19H64A5.69,5.69,0,0,0,62.5,29a6.09,6.09,0,0,1-1.51.72L59.88,30l.57-1A22.91,22.91,0,0,0,62,25.67,6,6,0,0,1,63.2,24a5.94,5.94,0,0,0,1.16-1.5,12.32,12.32,0,0,1,.45-1.47A6.89,6.89,0,0,0,65.34,19a3.07,3.07,0,0,0-.89-1.54,4.51,4.51,0,0,1-1-1.74,13.49,13.49,0,0,1-.21-1.44,6.47,6.47,0,0,0-.55-2.41A6.13,6.13,0,0,0,61,10.22a10.64,10.64,0,0,1-1.11-.9A13.46,13.46,0,0,0,58,7.88,6.66,6.66,0,0,1,56.9,6.75,4.77,4.77,0,0,0,55.73,5.6c-.17-.07-.32,0-.66.15A2,2,0,0,1,53.72,6a3.45,3.45,0,0,1-1.21-.76c-.28-.24-.66-.57-.86-.58a11.68,11.68,0,0,0-2,0A13,13,0,0,0,47.47,5c-.18,0-.47.41-.68.67a2.93,2.93,0,0,1-1,1,7.18,7.18,0,0,1-1.93.24,6.24,6.24,0,0,0-1.94.26,14.81,14.81,0,0,0-2.05,1.48c-.09.07,0,.42.06.67a1.7,1.7,0,0,1-.15,1.64A16,16,0,0,0,38,13.44l-.29.51-.46-.37a7,7,0,0,0-1.71-1,5.65,5.65,0,0,1-1.27-.87,3.5,3.5,0,0,0-1.45-.88,9.23,9.23,0,0,0-2.72.2c-.13,0-.42.45-.58.67a2.7,2.7,0,0,1-1,1,11.1,11.1,0,0,0-1.3.63,4.44,4.44,0,0,1-2.2.17,4,4,0,0,0-1.8.08,13.92,13.92,0,0,0-1.25,1.19,5.48,5.48,0,0,0-.62,1.71,6,6,0,0,1-.6,1.72,11.06,11.06,0,0,0-.93,1.76,8,8,0,0,0-.47,1.51,8.68,8.68,0,0,0-.19,1.7,4.31,4.31,0,0,0,.59.45c.45.31.91.63,1,1.12a4.65,4.65,0,0,1-.11,1.66,2.52,2.52,0,0,0,0,1.56,3,3,0,0,0,1,.58,3.5,3.5,0,0,1,1.24.8,1.7,1.7,0,0,1,.48,1.17,1.52,1.52,0,0,1-.39.87c-.38.48-1.09.49-1.78.5a2.82,2.82,0,0,0-1,.12c-.35.29-.7.56-1.06.84A17.69,17.69,0,0,0,17,34.58a3.48,3.48,0,0,0,.14.78,2.1,2.1,0,0,1,0,1.54A8.83,8.83,0,0,0,16.28,39a2.3,2.3,0,0,1-1,1.12c-.26.19-.59.43-.59.59A1.82,1.82,0,0,0,15.39,42,1.9,1.9,0,0,1,16,43a8.76,8.76,0,0,0,.44,1.71,7.2,7.2,0,0,0,.71,1.48,3.52,3.52,0,0,0,1.56.89,5.77,5.77,0,0,1,1.53.77,12,12,0,0,0,2.53,1.61,1.32,1.32,0,0,1,.72,1c.05.24.06.24.13.27.57.16,1.18.3,1.8.41s1.09.17,1.7.23,1.33.1,2.08.12,1.59,0,2.61,0l.79,0-.32.72a16.39,16.39,0,0,0-.77,2.06,2,2,0,0,1-.93,1.05c-.14.1-.44.3-.44.38a2.93,2.93,0,0,0,.51,1.52,3.43,3.43,0,0,0,1.85,1.25,9.56,9.56,0,0,0,2,.4,19.13,19.13,0,0,1,1.94.42,17.5,17.5,0,0,0,2.08.45l1,.1c.64.06,1.27.11,1.89.14s1.31,0,1.87,0Z" transform="translate(-13.7 -3.62)"/></svg>