<svg id="Layer_1" data-name="Layer 1" xmlns="http://www.w3.org/2000/svg" viewBox="0 0 62.39 74.18"><path d="M42.09,71.16l-1.54-.38a30.25,30.25,0,0,0-7.09-.88,28.32,28.32,0,0,0-2.91.12,30.06,30.06,0,0,0-3,.42,3.49,3.49,0,0,0-.53.22c-.47.23-.92.45-1.32.25a.71.71,0,0,1-.38-.51,5.17,5.17,0,0,1,.34-1.65c.36-1.06.67-2.14.94-3.23.17-.7.33-1.4.46-2.1.18-.9.32-1.8.43-2.69.08-.63.15-1.27.2-1.91.06-.83.1-1.68.12-2.51H26.37c-.5,0-1.28-.08-1.93-.14l-1-.1-1.87-.23-1-.12a12.17,12.17,0,0,1-2.16-.44,4.37,4.37,0,0,1-2.32-1.66,4,4,0,0,1-.68-2,7.2,7.2,0,0,1,.24-2.26,12.77,12.77,0,0,1,.51-1.47H14.27a20.7,20.7,0,0,1-2.15-.13c-.68-.07-1.21-.13-1.78-.23s-1.29-.27-1.9-.44a15.23,15.23,0,0,1-2.16-.82,12.57,12.57,0,0,1-2.75-1.75A10.14,10.14,0,0,1,1.4,42.08a9.07,9.07,0,0,1-.8-1.66,9.42,9.42,0,0,1-.51-2,11.13,11.13,0,0,1-.09-2,10,10,0,0,1,1.38-4.73,9.35,9.35,0,0,1,1.17-1.56,19.5,19.5,0,0,1,2.14-1.81c.38-.29.74-.57,1.08-.86a9.47,9.47,0,0,0,1.42-1.41.8.8,0,0,0,.19-.32c0-.18-2.13-2.14-2.27-2.28A12,12,0,0,1,4,21.69a11.53,11.53,0,0,1-1.12-3.24,10,10,0,0,1-.17-1.9,9.36,9.36,0,0,1,.2-1.9A11.28,11.28,0,0,1,3.4,13a12.49,12.49,0,0,1,1-1.92A15.13,15.13,0,0,1,6.1,8.92c.42-.44.87-.87,1.33-1.27A15.67,15.67,0,0,1,9.81,6a15.31,15.31,0,0,1,1.41-.69A12.84,12.84,0,0,1,13,4.71a10.83,10.83,0,0,1,3-.22A9.52,9.52,0,0,1,19,5.2c.53.22,3,2.29,3.48,2.62.48-.78,3.3-4.53,3.9-5.22A16.37,16.37,0,0,1,28.18.79,17.42,17.42,0,0,1,30.36-.78,14.88,14.88,0,0,1,32.76-2a16,16,0,0,1,2-.64A14.9,14.9,0,0,1,37.14-3a12.39,12.39,0,0,1,2.11,0,14.94,14.94,0,0,1,2.11.33,14.11,14.11,0,0,1,2.4.81A13.34,13.34,0,0,1,46-.63a12.19,12.19,0,0,1,4.37,4.7,13.62,13.62,0,0,1,1.42,3.8,15.21,15.21,0,0,1,.36,3.56,18,18,0,0,1-.4,3.58A20.93,20.93,0,0,1,51,17.58c-.28.75-2.89,4.49-3.27,5.2.45-.06,4.18-1.11,4.64-1.12h.81a13.74,13.74,0,0,1,1.81.21,11.27,11.27,0,0,1,2,.62,9.46,9.46,0,0,1,2.86,1.86,9,9,0,0,1,1.24,1.51,7.91,7.91,0,0,1,1.23,3.95,9.43,9.43,0,0,1-.28,2.8A13.52,13.52,0,0,1,60.74,36a17.64,17.64,0,0,1-2.15,3,27.78,27.78,0,0,1-2,2.06,25.06,25.06,0,0,1-3.22,2.48c-.67.43-4.64,1.84-5.34,2.2l-.4.2a7.15,7.15,0,0,1,1.07.54,3.38,3.38,0,0,1,1.57,2,3.3,3.3,0,0,1-.35,2.4,7.27,7.27,0,0,1-1.66,2,17.53,17.53,0,0,1-8.85,4,17.28,17.28,0,0,1-2.49.18,3.31,3.31,0,0,1-.83-.1v.61a12.33,12.33,0,0,0,.18,1.83,21.35,21.35,0,0,0,.63,3,20.43,20.43,0,0,0,1.19,3.1A16.82,16.82,0,0,0,39,67.08,19.39,19.39,0,0,0,41.09,70ZM28.46,55.29l.36.32v.27c0,1-.05,2-.13,3a15.75,15.75,0,0,1-.2,2c-.11.91-.26,1.83-.43,2.75-.14.72-.3,1.44-.48,2.15a30.63,30.63,0,0,1-1,3.31c-.06.18-.16.51-.23.79l.2-.1a2.74,2.74,0,0,1,.78-.3A29.64,29.64,0,0,1,30.45,69q1.5-.14,3-.12a32.33,32.33,0,0,1,3.68.24q1.11.14,2.22.36a18.79,18.79,0,0,1-1.26-1.93c-.33-.55-.64-1.12-.91-1.69a21.74,21.74,0,0,1-1.94-6.36c-.09-.63-.15-1.27-.19-1.92s0-1.26,0-1.86v-.17l1,.07a.21.21,0,0,0,0,.11.24.24,0,0,0,0,.12,1.89,1.89,0,0,0,.84.16,15.13,15.13,0,0,0,2.33-.17,16.81,16.81,0,0,0,5.43-1.81,16.08,16.08,0,0,0,2.9-2,6.14,6.14,0,0,0,1.5-1.71,2.3,2.3,0,0,0,.26-1.68,2.35,2.35,0,0,0-1.13-1.4,8.13,8.13,0,0,0-2-.83l-1.34-.39,1.21-.55c.5-.22,1-.45,1.48-.7.67-.35,4.62-1.74,5.28-2.15a24.47,24.47,0,0,0,3.08-2.37,23.59,23.59,0,0,0,2-2,16.06,16.06,0,0,0,2-2.85,12.67,12.67,0,0,0,1.22-3.09,8.35,8.35,0,0,0,.22-2.49A7,7,0,0,0,61,28a7.47,7.47,0,0,0-.75-1.56,7.93,7.93,0,0,0-1.1-1.34,8.67,8.67,0,0,0-2.54-1.69,11,11,0,0,0-1.85-.56,11.58,11.58,0,0,0-1.65-.19h-.76c-.7,0-4.68,1.11-5.37,1.25l-.32.06-.25-.28a.58.58,0,0,1,0-.62c.51-.9,3.23-4.86,3.58-5.83a19.18,19.18,0,0,0,.7-2.43,16.85,16.85,0,0,0,.38-3.39,14.45,14.45,0,0,0-.33-3.34,12.69,12.69,0,0,0-1.32-3.52,11.66,11.66,0,0,0-2.25-2.89A12.75,12.75,0,0,0,45.36.23a12.64,12.64,0,0,0-2-1.12,13,13,0,0,0-2.28-.76A11.38,11.38,0,0,0,39.14-2a11.13,11.13,0,0,0-2,0A13.49,13.49,0,0,0,35-1.65a12.47,12.47,0,0,0-1.85.6A14.74,14.74,0,0,0,30.86.07c-2.28,1.39-6.44,6.34-7.77,8.66l-.11.2-.5.12-2.22-2a7,7,0,0,0-1.66-1A8.43,8.43,0,0,0,16,5.47a9.14,9.14,0,0,0-2.71.2,11,11,0,0,0-1.66.53,13,13,0,0,0-1.3.63A15,15,0,0,0,8.1,8.41c-.43.37-.85.77-1.25,1.19a16.85,16.85,0,0,0-1.57,2,10.82,10.82,0,0,0-.92,1.75,10.18,10.18,0,0,0-.48,1.51,8.11,8.11,0,0,0-.18,1.7,9.71,9.71,0,0,0,.15,1.71,10.49,10.49,0,0,0,1,2.95A12,12,0,0,0,5.9,22.86c.31.32,2.47,2.53,2.47,3A1.51,1.51,0,0,1,8,26.7a11.57,11.57,0,0,1-1.57,1.56c-.35.3-.72.58-1.08.87a16.6,16.6,0,0,0-2,1.75,8,8,0,0,0-1,1.38,8.87,8.87,0,0,0-1,2.1A10,10,0,0,0,1,36.53a10.2,10.2,0,0,0,.08,1.83,9.14,9.14,0,0,0,.44,1.71,7.2,7.2,0,0,0,.71,1.48,9.38,9.38,0,0,0,1.92,2.2A11.25,11.25,0,0,0,6.7,45.36a16.17,16.17,0,0,0,2,.77c.57.16,1.18.3,1.8.41s1.09.17,1.7.23,1.33.1,2.08.12,1.67,0,2.5,0h.31l.22.25a.59.59,0,0,1,0,.55,14.52,14.52,0,0,0-.73,2,5.88,5.88,0,0,0-.25,2,3,3,0,0,0,.5,1.52,3.43,3.43,0,0,0,1.88,1.15,9.69,9.69,0,0,0,2,.39l1.05.13,1.86.22,1,.1c.64.06,1.27.11,1.89.14s1.25,0,1.8,0ZM16.83,47.82Zm30-24.89Z" transform="translate(0.01 3.02)"/></svg>