<svg id="Layer_1" data-name="Layer 1" xmlns="http://www.w3.org/2000/svg" viewBox="0 0 59.13 71.17"><path d="M57,75.8l-1.54-.38a30.28,30.28,0,0,0-7.09-.88,28.2,28.2,0,0,0-2.91.12,30.46,30.46,0,0,0-3,.42,2.87,2.87,0,0,0-.53.22c-.47.23-.92.45-1.32.25a.7.7,0,0,1-.38-.51,5.11,5.11,0,0,1,.34-1.65c.36-1.06.67-2.14.94-3.23.17-.7.33-1.4.46-2.1.18-.9.32-1.8.43-2.69.08-.63.15-1.27.2-1.91.06-.83.1-1.68.12-2.51-.46,0-.94,0-1.44,0s-1.28-.08-1.93-.14l-1-.1-1.87-.23-1-.12a11.84,11.84,0,0,1-2.16-.44A4.39,4.39,0,0,1,31,58.26a3.93,3.93,0,0,1-.68-2A6.94,6.94,0,0,1,30.56,54a14.5,14.5,0,0,1,.51-1.47q-.95,0-1.89,0c-.76,0-1.47-.06-2.15-.13s-1.21-.13-1.78-.23-1.29-.27-1.9-.44a15.06,15.06,0,0,1-2.16-.82,12.4,12.4,0,0,1-2.75-1.75,10.22,10.22,0,0,1-2.13-2.44,9.07,9.07,0,0,1-.8-1.66A9.56,9.56,0,0,1,15,43.1a10.91,10.91,0,0,1-.09-2,10,10,0,0,1,1.38-4.73,9.08,9.08,0,0,1,1.17-1.56A19.48,19.48,0,0,1,19.6,33c.38-.29.74-.57,1.08-.86a9,9,0,0,0,1.42-1.41.8.8,0,0,0,.19-.32,1.11,1.11,0,0,0-.28-.48,12.19,12.19,0,0,1-1.15-1.8,11.44,11.44,0,0,1-1.12-3.24,9.52,9.52,0,0,1-.17-1.9,9.14,9.14,0,0,1,.2-1.9,9.61,9.61,0,0,1,.53-1.68,11.87,11.87,0,0,1,1-1.92A15.2,15.2,0,0,1,23,15.36a17.59,17.59,0,0,1,1.33-1.27,14.86,14.86,0,0,1,2.38-1.67,13.12,13.12,0,0,1,1.41-.69,12.39,12.39,0,0,1,1.82-.58,10.5,10.5,0,0,1,3-.22,9.31,9.31,0,0,1,2.94.71,8,8,0,0,1,1.49.82A15.86,15.86,0,0,1,39,10.25a16.37,16.37,0,0,1,1.82-1.81A16.62,16.62,0,0,1,43,6.87a15.3,15.3,0,0,1,2.4-1.19,15.88,15.88,0,0,1,2-.64,14.73,14.73,0,0,1,2.38-.37,13.53,13.53,0,0,1,2.11,0A14.92,14.92,0,0,1,54,5a14.42,14.42,0,0,1,2.4.81,14.11,14.11,0,0,1,2.23,1.21,13.41,13.41,0,0,1,2,1.55A12.94,12.94,0,0,1,63,11.72a13.54,13.54,0,0,1,1.42,3.8,16,16,0,0,1,.36,3.56,18.26,18.26,0,0,1-.4,3.58,20.93,20.93,0,0,1-.74,2.57,19.31,19.31,0,0,1-1,2.19A12.46,12.46,0,0,1,64,27.31h.81a13.18,13.18,0,0,1,1.81.21,10.81,10.81,0,0,1,2.05.62A9.6,9.6,0,0,1,71.53,30a8.89,8.89,0,0,1,1.24,1.51A7.86,7.86,0,0,1,74,35.46a9.42,9.42,0,0,1-.28,2.8,13.37,13.37,0,0,1-1.35,3.35,17.4,17.4,0,0,1-2.15,3,24.64,24.64,0,0,1-2,2.06A24.15,24.15,0,0,1,65,49.15c-.67.43-1.36.83-2.06,1.19l-.4.2a6.31,6.31,0,0,1,1.07.54,3.38,3.38,0,0,1,1.57,2,3.29,3.29,0,0,1-.35,2.4,7.08,7.08,0,0,1-1.66,2,17.74,17.74,0,0,1-5.7,3.27,17.88,17.88,0,0,1-3.15.77,17.28,17.28,0,0,1-2.49.18A3.39,3.39,0,0,1,51,61.6c0,.2,0,.41,0,.61,0,.62.09,1.23.18,1.83A21,21,0,0,0,51.81,67,20.46,20.46,0,0,0,53,70.1a18.1,18.1,0,0,0,.87,1.62A19.39,19.39,0,0,0,56,74.61ZM43.37,59.93l.36.32v.27c0,1-.05,2-.13,3,0,.65-.11,1.31-.2,2-.11.91-.26,1.83-.43,2.75-.14.72-.3,1.44-.48,2.15-.27,1.11-.6,2.22-1,3.31-.06.18-.16.51-.23.79l.2-.1a2.91,2.91,0,0,1,.78-.3,29.64,29.64,0,0,1,3.12-.44,27.34,27.34,0,0,1,3-.12,32.18,32.18,0,0,1,3.68.24q1.11.14,2.22.36A18.8,18.8,0,0,1,53,72.23c-.33-.55-.64-1.12-.91-1.69a21.5,21.5,0,0,1-1.27-3.29,21.25,21.25,0,0,1-.67-3.07c-.09-.63-.15-1.27-.19-1.92S50,61,50,60.4a1,1,0,0,1,0-.17l1,.07a.37.37,0,0,0,0,.11.19.19,0,0,0,0,.12s.23.14.84.16a15.22,15.22,0,0,0,2.33-.17,16.88,16.88,0,0,0,5.43-1.81,16.24,16.24,0,0,0,2.9-2A6,6,0,0,0,64,55a2.29,2.29,0,0,0,.26-1.68,2.38,2.38,0,0,0-1.13-1.4,8.08,8.08,0,0,0-2-.83l-1.34-.39L61,50.15c.5-.22,1-.45,1.48-.7.67-.35,1.34-.73,2-1.14a23.77,23.77,0,0,0,3.08-2.37,22.66,22.66,0,0,0,2-2,16,16,0,0,0,2-2.85A12.52,12.52,0,0,0,72.78,38,8.43,8.43,0,0,0,73,35.51a6.8,6.8,0,0,0-.35-1.86,7,7,0,0,0-.75-1.56,7.76,7.76,0,0,0-1.1-1.34,8.54,8.54,0,0,0-2.54-1.69,10.42,10.42,0,0,0-1.85-.56,11.26,11.26,0,0,0-1.65-.19H64a12.52,12.52,0,0,0-2.09.24l-.32.06-.25-.28a.58.58,0,0,1,0-.62,18.56,18.56,0,0,0,1.31-2.82,19.18,19.18,0,0,0,.7-2.43,17.26,17.26,0,0,0,.38-3.39,15.26,15.26,0,0,0-.33-3.34,12.93,12.93,0,0,0-1.32-3.52,12,12,0,0,0-2.25-2.89A13.46,13.46,0,0,0,58,7.88,13.32,13.32,0,0,0,56,6.76,13.1,13.1,0,0,0,53.72,6a11.89,11.89,0,0,0-1.94-.32,11.68,11.68,0,0,0-2,0A14,14,0,0,0,47.6,6a13.75,13.75,0,0,0-1.85.6A14.67,14.67,0,0,0,43.5,7.72,15.8,15.8,0,0,0,38,13.37l-.11.2-.5.12-.23-.15a6.91,6.91,0,0,0-1.66-1,8.24,8.24,0,0,0-2.63-.63,9.14,9.14,0,0,0-2.71.2,10,10,0,0,0-1.66.53,11.1,11.1,0,0,0-1.3.63A14,14,0,0,0,25,14.85c-.43.37-.85.77-1.25,1.19a15.54,15.54,0,0,0-1.57,2,10.5,10.5,0,0,0-.92,1.75,8.8,8.8,0,0,0-.48,1.51,8,8,0,0,0-.18,1.7,9.13,9.13,0,0,0,.15,1.71,10.34,10.34,0,0,0,1,2.95A11.31,11.31,0,0,0,22.8,29.3a1.7,1.7,0,0,1,.48,1.17,1.52,1.52,0,0,1-.39.87,11,11,0,0,1-1.57,1.56c-.35.3-.72.58-1.08.87a16.63,16.63,0,0,0-2,1.75,7.92,7.92,0,0,0-1,1.38A8.83,8.83,0,0,0,16.28,39a9.94,9.94,0,0,0-.36,2.17A10.69,10.69,0,0,0,16,43a8.76,8.76,0,0,0,.44,1.71,7.2,7.2,0,0,0,.71,1.48,9.26,9.26,0,0,0,1.92,2.2A11.25,11.25,0,0,0,21.61,50a14.79,14.79,0,0,0,2,.77c.57.16,1.18.3,1.8.41s1.09.17,1.7.23,1.33.1,2.08.12,1.67,0,2.5,0H32l.22.25a.57.57,0,0,1,0,.55,14.65,14.65,0,0,0-.73,2,6,6,0,0,0-.25,2,2.93,2.93,0,0,0,.5,1.52A3.43,3.43,0,0,0,33.62,59a9.78,9.78,0,0,0,2,.39l1.05.13,1.86.22,1,.1c.64.06,1.27.11,1.89.14s1.25,0,1.8,0ZM31.74,52.46h0Zm30-24.89h0Z" transform="translate(-14.91 -4.64)"/></svg>