<svg id="Layer_1" data-name="Layer 1" xmlns="http://www.w3.org/2000/svg" viewBox="0 0 59.11 74.8"><path d="M42.09,71.16l-1.54-.38a30.25,30.25,0,0,0-7.09-.88,28.32,28.32,0,0,0-2.91.12,30.06,30.06,0,0,0-3,.42,3.49,3.49,0,0,0-.53.22c-.47.23-.92.45-1.32.25a.71.71,0,0,1-.38-.51,5.17,5.17,0,0,1,.34-1.65c.36-1.06.67-2.14.94-3.23.17-.7.33-1.4.46-2.1.18-.9.32-1.8.43-2.69.08-.63.15-1.27.2-1.91.06-.83.1-1.68.12-2.51H26.37c-.5,0-1.28-.08-1.93-.14l-1-.1-1.87-.23-1-.12a12.17,12.17,0,0,1-2.16-.44,4.37,4.37,0,0,1-2.32-1.66,4,4,0,0,1-.68-2,7.2,7.2,0,0,1,.24-2.26,12.77,12.77,0,0,1,.51-1.47H14.27a20.7,20.7,0,0,1-2.15-.13c-.68-.07-1.21-.13-1.78-.23s-1.29-.27-1.9-.44a15.23,15.23,0,0,1-2.16-.82,12.57,12.57,0,0,1-2.75-1.75A10.14,10.14,0,0,1,1.4,42.08a9.07,9.07,0,0,1-.8-1.66,9.42,9.42,0,0,1-.51-2,11.13,11.13,0,0,1-.09-2,10,10,0,0,1,1.38-4.73,9.35,9.35,0,0,1,1.17-1.56,19.5,19.5,0,0,1,2.14-1.81c.38-.29.74-.57,1.08-.86a9.47,9.47,0,0,0,1.42-1.41.8.8,0,0,0,.19-.32,1.11,1.11,0,0,0-.28-.48A12.19,12.19,0,0,1,6,23.49a11.64,11.64,0,0,1-1.12-3.24,9.85,9.85,0,0,1,0-3.8,8.87,8.87,0,0,1,.53-1.68,11.67,11.67,0,0,1,1-1.92,15.13,15.13,0,0,1,1.7-2.13A16,16,0,0,1,9.42,9.45,15.19,15.19,0,0,1,11.8,7.78a13.12,13.12,0,0,1,1.41-.69A12.84,12.84,0,0,1,15,6.51a10.4,10.4,0,0,1,3-.22A9,9,0,0,1,21,7a8,8,0,0,1,1.49.82,15.93,15.93,0,0,1,1.63-2.21C24.65,5,27.68.73,28.33.17A17,17,0,0,1,30.51-1.4a16.24,16.24,0,0,1,2.4-1.19,17.24,17.24,0,0,1,2-.64,15.92,15.92,0,0,1,2.38-.37,14.86,14.86,0,0,1,2.11,0,15.17,15.17,0,0,1,2.11.33,14.73,14.73,0,0,1,2.4.81,15.48,15.48,0,0,1,2.23,1.21,15,15,0,0,1,2,1.55,13.22,13.22,0,0,1,2.37,3.15,13.62,13.62,0,0,1,1.42,3.8,16.42,16.42,0,0,1,.36,3.56,18.61,18.61,0,0,1-.4,3.58A20.44,20.44,0,0,1,51.15,17c-.29.75-3,5.11-3.42,5.82a12.26,12.26,0,0,1,1.36-.11h.81a13.74,13.74,0,0,1,1.81.21,11.27,11.27,0,0,1,2,.62,9.34,9.34,0,0,1,2.86,1.86,9,9,0,0,1,1.24,1.51,7.81,7.81,0,0,1,1.23,3.95,9.43,9.43,0,0,1-.28,2.8A13.52,13.52,0,0,1,57.46,37a17.64,17.64,0,0,1-2.15,3,25.9,25.9,0,0,1-2,2.06,23.38,23.38,0,0,1-3.22,2.48c-.67.43-1.36.83-2.06,1.19l-.4.2a7.15,7.15,0,0,1,1.07.54,3.38,3.38,0,0,1,1.57,2,3.3,3.3,0,0,1-.35,2.4,7.27,7.27,0,0,1-1.66,2,17.53,17.53,0,0,1-8.85,4,17.28,17.28,0,0,1-2.49.18,3.31,3.31,0,0,1-.83-.1v.61a12.33,12.33,0,0,0,.18,1.83,21.35,21.35,0,0,0,.63,3,20.43,20.43,0,0,0,1.19,3.1A16.82,16.82,0,0,0,39,67.08,19.39,19.39,0,0,0,41.09,70ZM28.46,55.29l.36.32v.27c0,1-.05,2-.13,3a15.75,15.75,0,0,1-.2,2c-.11.91-.26,1.83-.43,2.75-.14.72-.3,1.44-.48,2.15a30.63,30.63,0,0,1-1,3.31c-.06.18-.16.51-.23.79l.2-.1a2.74,2.74,0,0,1,.78-.3A29.64,29.64,0,0,1,30.45,69q1.5-.14,3-.12a32.33,32.33,0,0,1,3.68.24q1.11.14,2.22.36a18.79,18.79,0,0,1-1.26-1.93c-.33-.55-.64-1.12-.91-1.69a21.74,21.74,0,0,1-1.94-6.36c-.09-.63-.15-1.27-.19-1.92s0-1.26,0-1.86v-.17l1,.07a.21.21,0,0,0,0,.11.24.24,0,0,0,0,.12,1.89,1.89,0,0,0,.84.16,15.13,15.13,0,0,0,2.33-.17,16.81,16.81,0,0,0,5.43-1.81,16.08,16.08,0,0,0,2.9-2,6.14,6.14,0,0,0,1.5-1.71,2.3,2.3,0,0,0,.26-1.68,2.35,2.35,0,0,0-1.13-1.4,8.13,8.13,0,0,0-2-.83l-1.34-.39,1.21-.55c.5-.22,1-.45,1.48-.7.67-.35,1.34-.73,2-1.14a23.56,23.56,0,0,0,3.08-2.37,21,21,0,0,0,2-2,15.71,15.71,0,0,0,2-2.85,12.67,12.67,0,0,0,1.22-3.09,8.32,8.32,0,0,0,.22-2.49A6.93,6.93,0,0,0,57,27.45a7.48,7.48,0,0,0-1.1-1.34,8.67,8.67,0,0,0-2.54-1.69,11,11,0,0,0-1.85-.56,11.42,11.42,0,0,0-1.65-.19h-.76a12.28,12.28,0,0,0-2.09.24l-.32.06-.25-.28a.58.58,0,0,1,0-.62c.51-.9,3.37-5.47,3.73-6.45a18.28,18.28,0,0,0,.7-2.43,16.77,16.77,0,0,0,.38-3.39,15.64,15.64,0,0,0-.33-3.34,13.14,13.14,0,0,0-1.32-3.52,12.35,12.35,0,0,0-2.25-2.89A14.14,14.14,0,0,0,45.51-.39a13.48,13.48,0,0,0-2-1.12,14.18,14.18,0,0,0-2.28-.76,12.87,12.87,0,0,0-1.94-.32,13.35,13.35,0,0,0-2,0,14.69,14.69,0,0,0-2.18.32,14.79,14.79,0,0,0-1.85.6A15.72,15.72,0,0,0,31-.55c-2.28,1.39-6.59,7-7.92,9.28l-.11.2-.5.12-.23-.15a6.67,6.67,0,0,0-1.66-1A8.23,8.23,0,0,0,18,7.27a9.14,9.14,0,0,0-2.71.2A10.69,10.69,0,0,0,13.59,8a10.38,10.38,0,0,0-1.3.63,13.61,13.61,0,0,0-2.2,1.58c-.43.37-.85.77-1.25,1.19a15.19,15.19,0,0,0-1.57,2,10.42,10.42,0,0,0-.92,1.75,8.16,8.16,0,0,0-.66,3.21,9.79,9.79,0,0,0,.15,1.71,10.29,10.29,0,0,0,1,2.95,10.87,10.87,0,0,0,1,1.64,1.69,1.69,0,0,1,.48,1.17A1.51,1.51,0,0,1,8,26.7a11.57,11.57,0,0,1-1.57,1.56c-.35.3-.72.58-1.08.87a16.6,16.6,0,0,0-2,1.75,8,8,0,0,0-1,1.38,8.87,8.87,0,0,0-1,2.1A10,10,0,0,0,1,36.53a10.2,10.2,0,0,0,.08,1.83,9.14,9.14,0,0,0,.44,1.71,7.2,7.2,0,0,0,.71,1.48,9.38,9.38,0,0,0,1.92,2.2A11.25,11.25,0,0,0,6.7,45.36a16.17,16.17,0,0,0,2,.77c.57.16,1.18.3,1.8.41s1.09.17,1.7.23,1.33.1,2.08.12,1.67,0,2.5,0h.31l.22.25a.59.59,0,0,1,0,.55,14.52,14.52,0,0,0-.73,2,5.88,5.88,0,0,0-.25,2,3,3,0,0,0,.5,1.52,3.43,3.43,0,0,0,1.88,1.15,9.69,9.69,0,0,0,2,.39l1.05.13,1.86.22,1,.1c.64.06,1.27.11,1.89.14s1.25,0,1.8,0ZM16.83,47.82Zm30-24.89Z" transform="translate(0.01 3.64)"/></svg>