<svg id="Layer_1" data-name="Layer 1" xmlns="http://www.w3.org/2000/svg" viewBox="0 0 105.4709 352.7691"><defs><style>.cls-1{fill:none;stroke:#231f20;stroke-miterlimit:10;}</style></defs><path class="cls-1" d="M176.9429,183.609q-.9509-1.5528-1.9848-3.0467-1.0308-1.4959-2.1265-2.9464-1.0926-1.4526-2.2315-2.8726-1.1358-1.4225-2.2994-2.8254-1.1606-1.4054-2.3305-2.8047-1.1667-1.4015-2.3244-2.81-1.1547-1.411-2.2816-2.8425-1.124-1.4337-2.2018-2.9012-2.36-3.2271-4.4266-6.6348-2.0685-3.4038-3.8557-6.9646-1.7892-3.557-3.3088-7.2474-1.5217-3.6864-2.786-7.483-1.2663-3.7926-2.287-7.6715-1.0229-3.8751-1.8121-7.8131-.7913-3.934-1.3611-7.9074-.5717-3.9694-.934-7.9547-.1957-2.14-.3307-4.2922-.1327-2.1512-.1921-4.3082-.0572-2.1558-.0283-4.3108.0311-2.1539.1608-4.3.1317-2.1453.3749-4.2764.2451-2.13.6143-4.2394.3713-2.1083.8789-4.1891.51-2.08,1.1687-4.1255a52.4112,52.4112,0,0,1,3.1333-7.584,55.2262,55.2262,0,0,1,4.25-7.02,57.2616,57.2616,0,0,1,5.2315-6.3336,57.9323,57.9323,0,0,1,6.0775-5.5258,56.9981,56.9981,0,0,1,6.7882-4.5964,54.7223,54.7223,0,0,1,7.3634-3.5453,51.7045,51.7045,0,0,1,7.8033-2.3725,48.7483,48.7483,0,0,1,8.1079-1.0779,46.9565,46.9565,0,0,1,8.1882.3346,49.9867,49.9867,0,0,1,8.011,1.7085,52.3983,52.3983,0,0,1,7.649,2.9689,53.3821,53.3821,0,0,1,7.1019,4.116,52.5656,52.5656,0,0,1,6.37,5.15,50.2078,50.2078,0,0,1,5.4529,6.07,47.0348,47.0348,0,0,1,4.351,6.8766,44.0429,44.0429,0,0,1,3.0641,7.57q.4327,1.4459.7744,2.9124t.601,2.9493q.2593,1.4827.4412,2.979t.2953,3.0014q.1134,1.5051.163,3.0165t.0445,3.0242q-.0053,1.5129-.06,3.0248t-.1515,3.0179a124.7956,124.7956,0,0,1-1.4433,12.5076q-1.0295,6.1947-2.6322,12.2665-1.5923,6.0707-3.6943,12.0112-2.0914,5.9392-4.6293,11.7413-2.5273,5.8008-5.4375,11.4571-2.9,5.6552-6.1187,11.1586-3.2084,5.5023-6.6729,10.8457-3.4539,5.3422-7.1,10.5184c-.6443.9171-1.2956,1.8392-1.9435,2.7682s-1.2925,1.8648-1.9236,2.8093-1.2486,1.8979-1.8423,2.8618-1.1636,1.9384-1.7,2.9254-1.0378,1.9864-1.4953,3-.8709,2.0418-1.23,3.086a29.4231,29.4231,0,0,0-.9025,3.183,25.31,25.31,0,0,0-.5885,6.6815,29.3183,29.3183,0,0,0,.3424,3.35c.1766,1.11.412,2.2128.6956,3.309s.6153,2.1855.9846,3.2679.776,2.158,1.21,3.2266.8941,2.13,1.3707,3.1852.9693,2.1025,1.4675,3.1433,1.002,2.0746,1.5005,3.1013q2.1184,4.3629,4.1559,8.7635t4,8.835q1.9623,4.4343,3.8525,8.9t3.7138,8.96q1.8237,4.4941,3.584,9.0143t3.4627,9.0626q1.7026,4.5423,3.35,9.105t3.2465,9.1415c.6688,1.9155,1.332,3.8515,1.9714,5.8034s1.2551,3.92,1.829,5.8984,1.106,3.969,1.5783,5.9656.8846,4,1.2191,6.0045.591,4.0116.7515,6.0155a57.3078,57.3078,0,0,1,.1755,5.9984,48.2288,48.2288,0,0,1-.509,5.9534,42.9389,42.9389,0,0,1-1.3018,5.88,38.9718,38.9718,0,0,1-2.2308,5.7682,41.2357,41.2357,0,0,1-3.08,5.338,43.8014,43.8014,0,0,1-3.8274,4.8457,46.0749,46.0749,0,0,1-4.4739,4.2913,47.6338,47.6338,0,0,1-16.2883,8.9268,45.281,45.281,0,0,1-6.0474,1.4529,48.4827,48.4827,0,0,1-6.1646.6313,50.9165,50.9165,0,0,1-6.18-.14,53.646,53.646,0,0,1-6.1273-.87,56.2518,56.2518,0,0,1-6.0072-1.5593,58.3046,58.3046,0,0,1-5.82-2.207,59.7244,59.7244,0,0,1-10.8055-6.1923,58.915,58.915,0,0,1-4.8507-3.9027q-.9448-.8466-1.8555-1.7356t-1.7777-1.82q-.8672-.9312-1.6859-1.9046t-1.58-1.9886q-.7609-1.0152-1.46-2.0721T143.8,353.918q-.6267-1.0983-1.177-2.2379t-1.0145-2.32q-.6238-1.5865-1.0842-3.2162-.4627-1.6284-.7775-3.2917-.3173-1.6618-.5015-3.35-.1869-1.6872-.2562-3.3926-.0718-1.7041-.0416-3.4182.0279-1.7127.1425-3.427.1122-1.7128.2959-3.4191.181-1.7049.4185-3.3947.463-3.3288,1.0878-6.6251.6221-3.2966,1.3882-6.5626.7632-3.2664,1.6532-6.504.8871-3.2379,1.8832-6.4488.9932-3.2113,2.0777-6.3974,1.0818-3.1866,2.2373-6.35,1.1526-3.1635,2.3614-6.3055,1.2058-3.1423,2.45-6.265,1.1807-2.97,2.3871-5.9287t2.4388-5.9077q1.2322-2.9485,2.49-5.8861t2.5414-5.8642q1.2835-2.9266,2.5925-5.8419t2.6432-5.819q1.3344-2.9037,2.6939-5.7957t2.7443-5.7721c.8834-1.8374,1.7135-3.613,2.4718-5.3431s1.4448-3.4148,2.0409-5.07a49.0305,49.0305,0,0,0,1.4986-4.8949,34.516,34.516,0,0,0,.8447-4.8172,28.5074,28.5074,0,0,0,.0795-4.837,28.2116,28.2116,0,0,0-.7971-4.9543,33.2357,33.2357,0,0,0-1.7853-5.1691A44.9346,44.9346,0,0,0,176.9429,183.609Z" transform="translate(-137.3297 -28.2343)"/></svg>