<svg id="Layer_1" data-name="Layer 1" xmlns="http://www.w3.org/2000/svg" viewBox="0 0 109.1576 271.1058"><defs><style>.cls-1{fill:none;stroke:#231f20;stroke-miterlimit:10;}</style></defs><path class="cls-1" d="M161.3205,176.5471q-2.2289-2.4087-4.33-4.949-2.0971-2.5392-4.0439-5.2025-1.9428-2.662-3.712-5.4405-1.7655-2.7771-3.3346-5.6631-1.5652-2.8846-2.9113-5.87-1.3421-2.9846-2.4422-6.0623-1.0962-3.0765-1.9275-6.2387-.8274-3.161-1.367-6.4a64.1613,64.1613,0,0,1-.8012-13.1295,63.0785,63.0785,0,0,1,.6174-6.5631,60.675,60.675,0,0,1,1.3065-6.4412,57.4439,57.4439,0,0,1,2.0033-6.2287,53.8452,53.8452,0,0,1,2.7079-5.9255,50.4044,50.4044,0,0,1,3.42-5.5317,47.6358,47.6358,0,0,1,4.14-5.0472q1.2891-1.3669,2.6734-2.6277,1.3826-1.262,2.8493-2.4248,1.465-1.1642,3.0035-2.2363,1.5368-1.0734,3.1361-2.062,1.5976-.99,3.247-1.9019,1.6476-.9134,3.3362-1.7562,1.6868-.844,3.4037-1.6247,1.7151-.7818,3.45-1.5074c1.8492-.7757,3.7491-1.5065,5.684-2.174s3.905-1.2717,5.8946-1.7941,3.9985-.9632,6.0113-1.3037a56.8913,56.8913,0,0,1,6.0347-.7026,46.4307,46.4307,0,0,1,5.9645.0091,38.2729,38.2729,0,0,1,5.8006.8315,32.7958,32.7958,0,0,1,5.5433,1.7644,30.2175,30.2175,0,0,1,5.1923,2.808q1.046.7064,2.0248,1.4944t1.8957,1.6459q.9171.8578,1.7751,1.7793.8586.92,1.6624,1.8944t1.558,1.9915q.7544,1.017,1.4618,2.0705.7083,1.052,1.3738,2.1312t1.2939,2.1739q.897,1.5627,1.73,3.1643t1.5943,3.2384q.7609,1.6368,1.4451,3.3069t1.2828,3.37q.5987,1.7,1.1073,3.4268t.9187,3.4783q.41,1.7511.7169,3.5241t.5021,3.5643a58.0873,58.0873,0,0,1,.3375,5.9294q.0187,2.9631-.2469,5.9151-.2614,2.95-.7831,5.8764-.5175,2.9244-1.2711,5.8131-.75,2.8868-1.7109,5.7253-.9574,2.8366-2.1026,5.613-1.1412,2.7742-2.4461,5.476-1.3008,2.7-2.7412,5.3147-1.4364,2.6129-2.9869,5.1538-1.5472,2.5428-3.19,5.025-1.64,2.484-3.3577,4.9186Q222,170.6022,220.226,173q-1.7709,2.4-3.5826,4.7732-1.8089,2.3751-3.64,4.7342-1.8285,2.3611-3.6615,4.7177-1.83,2.3584-3.6463,4.7235-.339.4425-.6769.8894t-.667.9q-.3293.4538-.6459.9156t-.6132.9343q-.2965.4725-.5692.957t-.5139.9834q-.2412.499-.4471,1.0138t-.369,1.0478a13.5028,13.5028,0,0,0-.5593,3.0246,14.8735,14.8735,0,0,0,.1038,3.0066,18.7132,18.7132,0,0,0,.66,2.977,25.5321,25.5321,0,0,0,1.1084,2.9356c.4323.97.9215,1.9318,1.45,2.8824s1.0955,1.8905,1.6838,2.8175,1.1978,1.8414,1.8105,2.7409,1.2287,1.7844,1.83,2.6525q1.9608,2.8308,3.78,5.7562t3.491,5.9354q1.6724,3.01,3.1959,6.1t2.8943,6.2485q1.3707,3.1589,2.586,6.3822t2.2712,6.5008q1.0557,3.2775,1.95,6.6042t1.6218,6.6924q.396,1.8317.7341,3.6909.3346,1.8575.5916,3.7326.2535,1.8734.4094,3.7543.1526,1.8792.1874,3.7558c.021,1.25-.0016,2.4969-.0744,3.7373s-.1959,2.4744-.3759,3.6985-.4168,2.4385-.7171,3.64a33.9518,33.9518,0,0,1-1.0982,3.5607,32.5579,32.5579,0,0,1-1.5845,3.5909,34.5152,34.5152,0,0,1-1.9868,3.37,36.9071,36.9071,0,0,1-2.3476,3.1365q-1.257,1.5077-2.6669,2.89-1.4064,1.3814-2.9448,2.6309-1.535,1.2485-3.1813,2.3588-1.6429,1.1092-3.3764,2.074-1.73.9638-3.53,1.7765-1.7965.8117-3.6432,1.4841-1.8454.6741-3.7334,1.2185-1.8865.546-3.808.9719t-3.8671.7442q-1.9458.3185-3.9109.5357-1.9637.2188-3.939.3461-1.974.1289-3.9518.1757-1.9764.0485-3.9489.0242-1.2345-.0141-2.4769-.06-1.2413-.0481-2.4829-.14-1.24-.0933-2.4736-.2417-1.232-.15-2.449-.3667-1.2159-.2184-2.4094-.5147-1.1922-.2982-2.3544-.6855-1.161-.3893-2.2844-.8792-1.122-.492-2.1989-1.0959-.9114-.5134-1.7709-1.1019t-1.67-1.242q-.81-.6534-1.5717-1.3668t-1.4776-1.4763q-.7159-.763-1.387-1.5707t-1.3-1.65q-.6287-.8419-1.2163-1.7133t-1.1365-1.7618q-1.3028-2.1139-2.4089-4.3392-1.1055-2.2221-2.01-4.5367-.9042-2.3115-1.604-4.6967-.6992-2.3821-1.19-4.8192-.49-2.4339-.7689-4.904-.2778-2.4671-.34-4.9515-.0615-2.4811.0966-4.9612.1587-2.4768.5407-4.9334a60.5386,60.5386,0,0,1,1.711-7.641,68.6,68.6,0,0,1,2.59-7.28c.9931-2.3717,2.1079-4.691,3.32-6.9656s2.52-4.5046,3.9011-6.6978,2.8336-4.3494,4.3339-6.4765,3.0479-4.2253,4.6182-6.3021,3.1631-4.1322,4.7539-6.1741,3.1794-4.07,4.7411-6.0928c.6682-.8654,1.32-1.7,1.9466-2.5155s1.2265-1.6122,1.791-2.4017,1.0933-1.5722,1.5763-2.36a24.8608,24.8608,0,0,0,1.3023-2.3891,18.432,18.432,0,0,0,.9689-2.49,16.2827,16.2827,0,0,0,.5765-2.6631,17.208,17.208,0,0,0,.1247-2.9074,21.3087,21.3087,0,0,0-.3863-3.2236,26.81,26.81,0,0,0-1.0045-3.7161,29.05,29.05,0,0,0-1.46-3.4426,34.4933,34.4933,0,0,0-1.8388-3.2144c-.6676-1.0385-1.3856-2.0465-2.1414-3.0316s-1.5492-1.9474-2.3676-2.8942-1.662-1.8784-2.5177-2.8021-1.7237-1.84-2.5913-2.7553S162.1744,177.47,161.3205,176.5471Z" transform="translate(-135.895 -59.1472)"/></svg>