<?xml version="1.0" standalone="no" ?>
<!DOCTYPE svg PUBLIC "-//W3C//DTD SVG 1.1//EN" "http://www.w3.org/Graphics/SVG/1.1/DTD/svg11.dtd">
<svg width="500px" height="284px" xmlns="http://www.w3.org/2000/svg" version="1.1" >
	<image style="overflow: visible; opacity: 0.4" width="500" height="284" href="C:\Users\bmpix\Documents\mit\projects\vectorization\polyvector_thing\cpp\polyvector_thing\x64\Release\binary_to_share\bowtie_0500_input.png" transform="matrix(1 0 -0.5 0 1 0 )" />
	<polyline points="409.963,5.16866 409.958,5.18891 409.907,5.38246 409.865,5.54107 409.858,5.5638 409.804,5.74074 409.768,5.84711 409.711,5.99008 409.702,5.99874 409.577,6.04074 407.789,6.54361 405.767,7.10378 403.651,7.69786 402.699,7.98801 401.475,8.40884 400.741,8.70302 399.014,9.49247 396.956,10.505 395.015,11.5251 393.098,12.5945 391.026,13.802 389.044,14.9871 388.822,15.1257 385.698,17.1477 383.487,18.5668 383.106,18.7974 381.798,19.542 381.586,19.6654 380.433,20.3707 380.186,20.5433 378.31,22.0352 377.164,22.9935 376.199,23.8587 375.118,24.8942 373.491,26.5178 371.95,28.0871 368.952,31.1668 367.756,32.395 367.653,32.5017 367.558,32.6026 365.211,35.1345 363.402,37.0709 362.058,38.4796 360.379,40.1913 359.03,41.5256 357.659,42.8392 356.853,43.587 355.962,44.3902 354.914,45.3184 353.928,46.1862 " fill="none" stroke-width="1" stroke="rgb(232,26,75)" />
	<polyline points="355.805,48.3458 357.147,47.1229 358.32,46.0365 360.207,44.2504 363.952,40.6455 366.167,38.4779 368.29,36.3588 369.972,34.6474 371.375,33.193 372.806,31.6866 374.655,29.7185 377.173,27.0091 378.522,25.5341 381.497,22.2334 381.692,22.0149 381.749,21.9521 381.962,21.7358 383.083,20.6728 384.927,19.0072 386.07,18.0441 387.875,16.6235 389.075,15.7258 389.891,15.1509 391.055,14.3768 392.741,13.3033 394.7,12.1027 395.333,11.7484 397.088,10.8631 399.077,9.92002 401.075,9.02903 402.624,8.38092 403.104,8.20236 403.672,8.01782 405.865,7.3324 407.938,6.65066 409.349,6.14533 409.702,6.00154 409.713,5.99093 409.769,5.8475 409.805,5.74094 409.858,5.56382 409.865,5.54108 409.907,5.38246 409.958,5.18891 409.963,5.16866 " fill="none" stroke-width="1" stroke="rgb(232,26,75)" />
	<polyline points="353.928,46.1862 349.477,50.1864 347.445,52.0279 347.377,52.1041 346.987,52.6518 344.979,55.5373 344.867,55.6805 343.482,57.2248 343.29,57.4198 339.103,61.2855 335.525,64.5432 334.726,65.2329 333.917,65.8684 331.612,67.5535 330.129,68.5745 328.951,69.3128 327.846,69.9272 325.898,70.9058 324.148,71.727 322.96,72.2469 321.32,72.9292 320.004,73.469 319.173,73.8125 317.464,74.5271 " fill="none" stroke-width="1" stroke="rgb(232,26,75)" />
	<polyline points="355.805,48.3458 349.968,52.8797 348.889,53.6977 348.619,53.8822 347.672,54.4696 347.58,54.532 347.388,54.6839 346.012,55.8381 344.036,57.5257 339.435,61.4917 337.408,63.2414 337.335,63.301 335.69,64.5604 335.601,64.6281 " fill="none" stroke-width="1" stroke="rgb(232,26,75)" />
	<polyline points="140.009,66.0434 138.041,65.1462 136.341,64.3706 134.431,63.4992 133.549,63.0963 133.41,63.0328 131.524,62.1671 131.359,62.0961 128.601,60.9856 128.423,60.9193 126.079,60.1143 122.293,58.8235 119.264,57.7942 112.066,55.3564 104.106,52.674 100.026,51.3175 96.9826,50.3314 94.1208,49.4344 91.9194,48.7715 89.9977,48.2201 87.9726,47.6676 86.3272,47.2434 84.0932,46.7002 82.3391,46.3003 78.1364,45.3956 74.2197,44.5884 69.4128,43.6437 65.2856,42.8743 62.7249,42.4349 59.7622,41.978 58.3761,41.7999 53.0085,41.2293 42.1642,40.1522 37.4868,39.721 35.6953,39.5839 35.0995,39.5619 34.4029,39.572 33.7064,39.6141 32.4152,39.7413 31.8269,39.8317 30.8435,40.05 28.4728,40.6693 28.1992,40.7666 28.0458,40.8525 27.8669,40.9883 27.723,41.116 27.3395,41.4878 27.2293,41.6061 26.9093,41.9653 26.7113,42.1466 26.1833,42.5257 25.9208,42.6856 25.5576,42.8854 25.1036,43.1471 24.596,43.4779 24.4589,43.5996 23.6009,44.5927 22.6936,45.6986 22.5148,45.9405 22.2713,46.3183 21.6379,47.3682 21.5512,47.5253 21.1213,48.3827 20.5532,49.5496 19.7241,51.2893 19.6406,51.478 19.1236,52.7481 18.5843,54.1101 18.5292,54.2745 17.7332,57.1203 17.0187,59.7232 16.4475,61.8473 14.8135,68.0345 14.0176,71.1326 13.6711,72.5899 13.1455,75.0313 12.7224,77.1872 12.3414,79.3516 12.0829,81.03 11.8193,83.0108 11.5987,84.8944 11.5241,85.656 11.5141,85.8595 11.5018,87.3281 11.4918,90.7988 11.493,91.1929 11.5175,94.3175 11.5415,98.016 11.617,112.015 11.6325,113.915 11.6632,116.215 11.725,119.713 11.7775,122.012 11.8634,124.81 11.9633,127.107 12.1678,130.595 12.3213,132.597 12.3573,132.818 12.3888,132.902 12.4112,132.93 12.6258,133.113 12.6428,133.146 12.7368,134.099 12.8114,135.292 12.9217,138.088 12.9859,140.287 13.0745,143.985 13.1256,146.184 13.2004,149.283 13.2449,150.982 13.3233,153.781 13.3601,155.052 " fill="none" stroke-width="1" stroke="rgb(232,26,75)" />
	<polyline points="7.473,138.725 7.42519,137.903 7.25567,134.908 7.15024,132.912 7.06363,131.014 7.00835,129.415 6.97739,127.817 6.95295,123.918 6.96456,114.721 7.00812,112.125 7.1243,109.232 7.38195,104.629 7.48155,103.246 7.60774,101.857 7.80704,99.9209 8.15161,96.7904 8.4814,93.9833 8.51795,93.7985 8.69704,93.1748 8.72563,93.0776 8.74876,92.9919 9.23798,91.0338 9.27262,90.9001 9.28093,90.8723 9.51187,90.1689 10.9284,85.8044 10.9788,85.6156 11.3598,83.814 11.3904,83.6955 11.7828,82.4306 11.827,82.2909 " fill="none" stroke-width="1" stroke="rgb(232,26,75)" />
	<polyline points="298.999,71.4571 298.349,71.4329 298.241,71.432 296.198,71.477 294.502,71.5345 293.708,71.5844 292.317,71.7154 290.927,71.8719 288.048,72.2235 286.759,72.3851 284.676,72.6529 281.009,73.1412 279.627,73.3448 274.808,74.1215 274.562,74.1713 272.444,74.6895 272.28,74.7322 271.386,74.978 271.265,75.0092 270.475,75.1943 268.82,75.5805 267.069,75.9922 265.502,76.3645 265.355,76.3995 262.499,77.079 258.8,77.9375 256.849,78.3637 254.303,78.8796 253.125,79.1005 251.058,79.4634 249.722,79.6915 249.533,79.7225 248.569,79.8763 246.698,80.1833 245.928,80.3204 245.819,80.3493 245.376,80.5107 243.721,81.1766 242.604,81.6876 242.457,81.812 241.958,82.5315 241.956,82.5328 240.803,82.561 238.011,82.6091 237.172,82.5966 236.09,82.5212 233.836,82.2727 231.163,81.9216 230.075,81.7625 228.099,81.4624 227.308,81.3547 224.528,81.0297 221.049,80.6573 219.856,80.5532 216.266,80.3132 213.473,80.16 211.076,80.0627 209.778,80.0366 207.879,80.0393 205.481,80.08 201.884,80.1843 200.088,80.2651 198.495,80.3735 197.004,80.5122 195.715,80.6674 194.433,80.8608 193.665,81.0106 192.885,81.2084 191.84,81.5309 190.933,81.8605 189.807,82.3326 189.003,82.7188 188.223,83.1496 187.728,83.4688 187.472,83.6754 187.158,83.9954 186.847,84.3746 186.566,84.7794 186.206,85.3745 185.373,86.8541 184.7,88.0752 " fill="none" stroke-width="1" stroke="rgb(232,26,75)" />
	<polyline points="253.979,93.9454 253.681,93.5088 253.617,93.4217 253.443,93.2108 252.07,91.6458 251.194,90.7011 250.686,90.2106 250.015,89.6384 249.463,89.2138 249.053,88.9341 248.034,88.3044 246.398,87.341 245.44,86.8064 244.82,86.4904 243.916,86.0699 242.82,85.5846 241.997,85.224 241.133,84.8357 241.043,84.7819 240.882,84.6511 240.779,84.5609 240.757,84.5459 240.646,84.493 240.006,84.2196 237.753,83.2787 237.451,83.1526 " fill="none" stroke-width="1" stroke="rgb(232,26,75)" />
	<polyline points="331.004,107.769 331.095,107.511 331.15,107.367 331.215,107.227 331.246,107.189 331.56,106.956 333.5,105.652 334.268,105.185 334.817,104.911 335.348,104.708 336.393,104.392 337.163,104.204 338.041,104.043 339.533,103.831 340.711,103.698 342.104,103.571 343.499,103.459 345.491,103.31 347.802,103.149 348.23,103.135 349.167,103.153 351.747,103.275 353.938,103.419 355.811,103.574 355.956,103.595 357.958,103.998 359.937,104.428 360.057,104.475 360.139,104.54 360.239,104.663 360.244,104.675 360.279,104.867 360.281,104.881 " fill="none" stroke-width="1" stroke="rgb(232,26,75)" />
	<polyline points="373.204,112.288 369.986,111.49 369.841,111.451 369.751,111.426 369.667,111.405 365.307,110.537 364.02,110.275 363.768,110.216 360.169,109.256 360.046,109.221 360.037,109.217 359.912,109.149 359.43,108.914 356.218,107.457 356.101,107.417 353.348,106.751 353.24,106.716 353.144,106.673 353.055,106.629 352.921,106.57 352.698,106.498 350.675,105.955 349.184,105.548 349.143,105.52 348.999,105.316 348.937,105.211 348.929,105.197 348.866,105.079 348.659,104.682 348.392,104.162 347.998,103.382 " fill="none" stroke-width="1" stroke="rgb(232,26,75)" />
	<polyline points="428.963,92.3107 428.904,92.4082 428.851,92.5111 428.813,92.6098 428.708,92.901 428.663,92.9751 428.362,93.2643 427.619,93.8658 426.495,94.6988 426.367,94.7807 425.629,95.184 425.485,95.2486 423.938,95.8082 422.997,96.1151 421.369,96.585 419.149,97.1844 416.153,97.9775 413.838,98.6039 412.207,99.0729 410.97,99.4622 408.793,100.198 404.606,101.651 401.709,102.657 400.1,103.203 398.199,103.82 397.45,104.042 396.275,104.35 394.197,104.845 393.161,105.064 391.098,105.44 389.225,105.744 388.042,105.908 385.956,106.155 381.966,106.605 381.733,106.636 381.049,106.737 380.947,106.745 380.224,106.74 378.927,106.704 376.531,106.601 374.934,106.512 371.941,106.308 369.151,106.09 367.461,105.933 365.376,105.703 364.288,105.56 363.202,105.391 361.528,105.103 360.281,104.881 " fill="none" stroke-width="1" stroke="rgb(232,26,75)" />
	<polyline points="388.782,113.471 386.333,112.682 386.176,112.612 385.963,112.476 385.87,112.403 385.859,112.392 385.766,112.287 385.699,112.235 385.537,112.159 383.292,111.349 383.202,111.318 383.024,111.257 381.774,110.831 380.93,110.537 380.875,110.511 380.744,110.433 380.112,110.046 378.001,108.788 377.629,108.588 377.265,108.43 377.106,108.385 375.206,108.062 374.37,107.929 374.179,107.902 370.845,107.452 368.771,107.142 367.012,106.827 364.694,106.342 364.123,106.191 362.87,105.782 360.544,104.974 360.281,104.881 " fill="none" stroke-width="1" stroke="rgb(232,26,75)" />
	<polyline points="373.204,112.288 373.307,112.342 373.76,112.564 373.902,112.618 376.95,113.502 377.117,113.55 377.249,113.586 380.13,114.38 380.251,114.417 380.787,114.593 380.896,114.627 382.933,115.239 383.029,115.274 383.193,115.345 383.28,115.384 383.755,115.588 383.912,115.646 386.165,116.353 386.36,116.406 393.342,118.067 398.481,119.288 402.757,120.317 404.109,120.661 405.191,120.958 405.403,121.021 405.416,121.025 405.484,121.046 406.753,121.438 408.157,121.883 408.312,121.942 408.435,121.999 408.537,122.046 408.68,122.095 410.099,122.493 412.478,123.134 412.662,123.181 414.104,123.534 415.517,123.881 415.717,123.933 417.155,124.316 417.368,124.366 418.352,124.564 421.257,125.132 421.456,125.175 422.165,125.349 422.302,125.38 423.658,125.67 423.79,125.693 426.465,126.089 427.82,126.288 430.619,126.701 434.837,127.318 439.525,127.991 440.318,128.09 446.581,128.757 448.273,128.92 452.655,129.296 454.15,129.406 456.145,129.523 457.743,129.596 459.441,129.655 462.935,129.759 466.876,129.872 466.958,129.877 466.986,129.879 " fill="none" stroke-width="1" stroke="rgb(232,26,75)" />
	<polyline points="388.782,113.471 388.991,113.543 394.126,115.305 394.313,115.374 394.707,115.533 394.819,115.575 396.708,116.256 396.812,116.309 396.981,116.44 397.145,116.593 397.151,116.605 397.181,116.854 397.187,116.868 397.91,117.643 399.194,118.997 399.364,119.174 399.388,119.199 399.496,119.302 399.63,119.41 399.744,119.475 400.444,119.778 " fill="none" stroke-width="1" stroke="rgb(232,26,75)" />
	<polyline points="167.464,137.892 166.71,137.42 166.027,137.009 165.506,136.721 164.703,136.323 163.886,135.956 163.053,135.625 162.019,135.262 161.163,135 158.947,134.399 157.881,134.14 156.904,133.939 155.921,133.774 154.239,133.541 151.263,133.182 150.57,133.125 148.275,133.024 145.278,132.943 137.981,132.82 134.382,132.788 131.683,132.793 128.384,132.832 126.784,132.867 123.008,132.984 120.789,133.065 118.811,133.151 116.095,133.285 113.998,133.398 112.202,133.503 111.138,133.57 111.021,133.578 108.209,133.809 103.977,134.161 103.845,134.175 101.734,134.438 99.241,134.752 99.0019,134.78 95.0608,135.234 94.0678,135.35 92.7773,135.503 89.9994,135.842 89.17,135.948 88.974,135.977 88.0064,136.14 84.9514,136.662 78.8415,137.714 74.114,138.541 72.4449,138.854 70.98,139.163 68.8416,139.666 67.7831,139.95 65.9705,140.505 64.4596,141.016 63.7213,141.306 62.9113,141.681 61.4462,142.43 61.3023,142.519 61.2296,142.583 61.1309,142.697 61.0545,142.795 " fill="none" stroke-width="1" stroke="rgb(232,26,75)" />
	<polyline points="62.032,146.676 62.0617,146.593 62.3006,146.048 62.4616,145.824 62.9011,145.465 65.7605,143.592 67.1914,142.685 67.3106,142.605 67.3113,142.601 66.6567,141.669 66.3705,141.389 66.1279,141.299 65.7332,141.327 64.0942,141.766 63.2595,142.036 61.5582,142.634 61.3435,142.706 61.0545,142.795 " fill="none" stroke-width="1" stroke="rgb(232,26,75)" />
	<polyline points="414.191,6.00418 414.159,6.28385 414.155,6.38592 414.165,6.43103 414.21,6.51121 414.291,6.60388 414.433,6.71717 415.859,7.67881 416.686,8.23896 417.169,8.58615 417.793,9.0771 418.543,9.72078 419.05,10.2035 420.719,11.9234 421.876,13.1649 422.602,13.9877 423.052,14.5422 425.902,18.2559 427.434,20.2859 428.369,21.5528 431.235,25.4961 431.329,25.6224 432.656,27.3722 432.774,27.5339 434.557,30.0726 435.3,31.1387 436.307,32.5957 436.409,32.7484 439.119,36.9579 440.883,39.7446 442.822,42.8913 443.994,44.8689 446.525,49.294 447.593,51.2152 448.018,52.0263 448.735,53.4745 449.632,55.3225 449.727,55.5184 450.621,57.3566 450.721,57.5744 451.054,58.3611 451.779,60.1146 453.038,63.1767 453.168,63.4803 453.67,64.6245 453.727,64.7652 454.752,67.5825 454.809,67.7524 454.957,68.2528 455.696,70.8462 456.346,73.1388 456.401,73.3311 457.244,76.1901 457.295,76.3505 457.738,77.6698 457.792,77.8446 458.58,80.6886 458.612,80.8037 459.194,82.8362 459.248,83.0134 459.309,83.2019 459.345,83.3182 460.04,85.7343 460.077,85.8687 461.275,90.1819 461.334,90.3816 461.761,91.7422 462.252,93.2904 462.293,93.4153 463.251,96.2595 463.281,96.3463 463.289,96.3689 463.321,96.4527 464.07,98.4569 465.16,101.376 465.201,101.479 465.761,102.842 466.265,104.04 466.749,105.137 467.546,106.859 468.503,108.837 469.585,110.976 470.655,113.009 471.234,114.058 471.933,115.27 474.209,119.152 475.561,121.488 476.931,123.926 478.213,126.299 479.169,128.165 479.987,129.876 481.729,133.714 482.309,135.073 482.928,136.653 483.69,138.714 483.907,139.341 484.727,141.843 485.144,143.122 485.198,143.28 485.226,143.356 485.698,144.624 485.746,144.761 486.358,146.705 486.428,146.954 486.923,148.963 488.179,154.213 488.919,157.427 489.118,158.405 489.365,159.881 489.676,162.056 490.131,165.624 490.344,167.511 490.454,168.704 490.679,171.695 490.839,174.089 490.953,176.085 491.002,177.184 491.094,179.882 491.197,183.206 " fill="none" stroke-width="1" stroke="rgb(232,26,75)" />
	<polyline points="493.557,190.037 493.529,186.951 493.472,184.957 493.343,182.974 492.905,178.362 492.79,177.608 492.313,175.327 492.269,175.113 491.847,172.964 491.807,172.737 491.69,171.965 491.157,168.305 491.136,168.171 490.764,165.84 490.744,165.716 490.335,163.39 490.308,163.238 490.006,161.66 489.733,160.289 489.547,159.413 489.517,159.306 489.454,159.131 489.381,158.949 489.264,158.661 " fill="none" stroke-width="1" stroke="rgb(232,26,75)" />
	<polyline points="309.074,70.0355 309.318,70.1429 311.15,70.9399 312.251,71.4145 313.534,71.9705 314.076,72.2209 314.497,72.4438 315.453,73.015 316.026,73.3987 316.491,73.7606 317.082,74.2876 317.797,74.9816 318.62,75.8212 318.74,75.9558 320.073,77.5703 320.45,78.0359 320.712,78.3736 320.793,78.4919 321.822,80.1809 322.237,80.9037 322.566,81.5387 322.984,82.4218 323.537,83.6323 323.817,84.2372 324.229,85.0962 324.324,85.2814 324.378,85.3807 324.529,85.6584 324.587,85.7914 325.017,87.0571 325.504,88.5552 325.573,88.785 325.883,89.9238 326.213,91.1618 326.245,91.2894 326.825,93.7115 326.856,93.8692 326.944,94.5079 327.033,95.2975 327.282,97.884 327.46,99.7754 327.614,101.367 327.95,104.695 327.973,104.855 328.208,106.127 328.23,106.242 328.569,108.097 329.061,110.751 329.288,111.928 329.683,113.888 330.111,115.944 330.341,117.019 331.136,120.667 331.443,122.101 331.926,124.451 332.09,125.334 332.324,126.814 332.693,129.486 332.86,130.97 332.957,132.26 333.349,139.646 333.369,140.053 333.372,140.149 333.384,141.206 333.382,142.502 333.36,143.298 333.313,144.094 333.177,145.787 333.115,146.461 333.094,146.621 332.796,148.451 332.502,150.104 332.246,151.369 332.032,152.258 331.658,153.609 331.278,154.85 331.035,155.555 330.83,156.063 330.135,157.618 329.836,158.24 328.972,159.931 327.759,162.261 327.626,162.509 326.927,163.787 326.459,164.667 325.832,165.91 325.099,167.452 324.868,167.981 324.758,168.255 324.685,168.422 324.63,168.509 324.095,169.168 323.626,169.727 " fill="none" stroke-width="1" stroke="rgb(232,26,75)" />
	<polyline points="314.908,171.433 315.089,170.605 315.148,170.517 315.572,170.25 316.735,169.659 316.86,169.601 317.486,169.325 318.575,168.829 319.105,168.563 319.706,168.218 321.143,167.318 321.975,166.77 322.298,166.539 322.855,166.118 323.328,165.758 323.674,165.502 323.991,165.278 324.863,164.676 325.39,164.303 325.766,164.015 326.173,163.666 327.048,162.86 327.235,162.677 327.648,162.25 " fill="none" stroke-width="1" stroke="rgb(232,26,75)" />
	<polyline points="13.3601,155.052 13.4123,157.179 13.4552,159.176 13.4833,160.796 13.4859,161.071 13.4923,163.652 13.4921,163.762 13.4796,165.847 13.4796,166.168 13.4956,167.765 13.5095,167.982 14.4418,175.966 14.7166,178.049 15.0591,180.218 15.7086,183.858 16.1173,185.915 16.6573,188.353 17.1972,190.586 17.7049,192.519 18.4077,195.02 18.7618,196.192 19.1596,197.401 19.4959,198.341 19.8589,199.271 20.249,200.189 20.6332,201.017 21.5152,202.791 21.8484,203.404 23.1231,205.55 24.2844,207.414 25.9098,209.9 26.6602,210.981 27.1169,211.583 27.2235,211.699 27.274,211.734 27.3878,211.783 27.4349,211.796 28.2849,211.954 29.1784,212.103 29.6744,212.163 29.8846,212.166 30.3177,212.132 " fill="none" stroke-width="1" stroke="rgb(232,26,75)" />
	<polyline points="7.473,138.725 7.66568,141.094 7.85521,143.285 8.112,145.971 8.23036,146.962 8.51272,148.829 9.2157,152.874 9.64091,154.92 10.2003,157.126 11.1835,160.624 11.4767,161.657 11.902,163.225 12.6358,166.105 12.8571,167.077 13.1535,168.543 13.1779,168.672 13.8776,172.526 13.9036,172.668 " fill="none" stroke-width="1" stroke="rgb(232,26,75)" />
	<polyline points="140.009,66.0434 140.138,66.1108 143.32,67.7842 144.892,68.616 145.06,68.7086 145.14,68.7572 145.244,68.8242 146.065,69.3616 146.224,69.4629 146.545,69.6582 146.663,69.7183 148.895,70.6697 151.018,71.5492 158.425,74.5679 160.826,75.5635 162.287,76.2112 163.873,76.9951 166.408,78.3759 167.81,79.2118 168.301,79.5366 168.526,79.6904 168.74,79.8195 171.376,81.2185 173.507,82.3197 176.893,84.0426 180.008,85.6356 181.777,86.5655 184.144,87.8576 185.095,88.4058 185.945,88.9347 186.517,89.3242 186.963,89.6599 187.598,90.1734 187.731,90.2912 188.926,91.4271 190.218,92.6785 190.636,93.1051 190.966,93.4767 191.569,94.223 192.066,94.8919 192.678,95.7985 193.467,97.0658 194.009,98.0165 194.602,99.1683 195.284,100.611 195.634,101.435 196.277,103.113 196.851,104.711 197.298,106.036 197.658,107.18 198.108,108.714 198.51,110.173 199.004,112.093 199.428,113.84 199.718,115.106 199.997,116.376 200.403,118.239 200.431,118.346 200.52,118.645 200.553,118.764 201.023,120.744 201.066,120.942 201.092,121.098 201.256,122.345 201.683,125.725 201.698,125.882 201.864,128.499 202.25,134.985 202.48,139.178 202.741,144.571 202.87,147.767 202.911,149.365 202.918,150.862 202.903,151.359 202.856,151.955 202.617,154.241 202.06,159.21 201.446,164.473 201.188,166.556 200.888,168.835 200.763,169.751 " fill="none" stroke-width="1" stroke="rgb(232,26,75)" />
	<polyline points="200.766,169.735 199.852,174.947 199.482,176.909 199.048,178.959 198.567,180.998 198.159,182.542 197.897,183.4 197.341,185.003 196.928,186.07 196.318,187.49 195.936,188.292 195.629,188.878 195.556,189.007 " fill="none" stroke-width="1" stroke="rgb(232,26,75)" />
	<polyline points="188.344,187.426 188.415,187.321 189.238,186.071 190.441,184.232 191.463,182.661 191.537,182.547 191.557,182.516 191.618,182.419 192.421,181.112 193.284,179.687 193.408,179.466 193.846,178.624 194.84,176.665 195.604,175.146 196.09,174.18 196.16,174.049 196.502,173.432 196.596,173.256 197.397,171.71 197.444,171.631 197.628,171.358 197.71,171.236 197.846,171.033 198.65,169.848 198.711,169.801 198.862,169.773 200.763,169.751 " fill="none" stroke-width="1" stroke="rgb(232,26,75)" />
	<polyline points="314.908,171.433 313.898,171.545 313.007,171.633 310.122,171.873 307.728,172.042 305.733,172.148 303.237,172.239 302.338,172.253 298.238,172.251 295.739,172.248 292.239,172.254 289.805,172.276 288.372,172.309 287.749,172.341 286.158,172.461 285.38,172.532 285.086,172.572 284.051,172.755 282.936,172.982 282.062,173.187 280.903,173.492 277.336,174.47 274.733,175.179 272.044,175.894 269.232,176.623 269.008,176.674 267.823,176.9 266.571,177.123 263.909,177.573 261.149,178.039 260.264,178.197 255.254,179.144 253.081,179.559 " fill="none" stroke-width="1" stroke="rgb(232,26,75)" />
	<polyline points="303.976,157.134 303.619,157.526 303.297,157.838 302.413,158.582 299.902,160.537 297.971,161.954 292.898,165.514 291.448,166.504 290.663,167.023 288.996,168.109 288.244,168.613 287.59,169.072 287.422,169.193 287.332,169.254 287.171,169.348 286.172,169.869 284.414,170.774 283.963,171.019 283.084,171.534 282.821,171.698 282.607,171.832 282.46,171.91 281.933,172.145 280.828,172.602 280.439,172.758 280.343,172.794 279.772,173.007 278.376,173.529 278.228,173.586 277.335,173.943 277.097,174.033 275.062,174.765 273.807,175.222 273.63,175.295 272.432,175.854 272.277,175.928 " fill="none" stroke-width="1" stroke="rgb(232,26,75)" />
	<polyline points="323.626,169.727 323.158,170.049 322.665,170.385 322.003,170.831 321.361,171.259 321.213,171.351 321.045,171.442 320.707,171.6 320.071,171.864 318.814,172.358 318.709,172.396 318.407,172.496 318.226,172.545 316.975,172.815 315.576,173.106 315.576,173.106 " fill="none" stroke-width="1" stroke="rgb(232,26,75)" />
	<polyline points="315.576,173.106 316.988,172.883 316.989,172.883 316.988,172.883 315.537,173.111 " fill="none" stroke-width="1" stroke="rgb(232,26,75)" />
	<polyline points="253.081,179.559 250.865,180.126 247.442,181.019 241.878,182.504 239.954,183.043 235.925,184.224 234.597,184.619 234.482,184.653 234.155,184.742 231.835,185.346 229.896,185.827 227.463,186.39 225.802,186.74 222.171,187.446 219.812,187.884 218.04,188.2 217.083,188.367 " fill="none" stroke-width="1" stroke="rgb(232,26,75)" />
	<polyline points="218.85,191.323 219.824,191.023 220.943,190.658 221.154,190.572 221.171,190.553 221.484,189.602 221.571,189.457 221.745,189.33 222.827,188.833 223.453,188.569 223.632,188.493 224.311,188.198 224.46,188.132 224.474,188.127 224.552,188.103 226.114,187.624 227.322,187.243 227.41,187.206 227.485,187.164 227.501,187.156 227.666,187.086 229.419,186.365 229.574,186.302 231.397,185.58 231.518,185.532 " fill="none" stroke-width="1" stroke="rgb(232,26,75)" />
	<polyline points="217.083,188.367 217.043,188.457 216.972,188.627 216.902,188.803 216.891,188.826 216.826,188.942 216.816,188.951 216.64,189.02 215.914,189.281 215.829,189.305 215.715,189.326 213.199,189.638 208.832,190.148 206.944,190.343 205.352,190.473 204.856,190.493 204.461,190.482 203.867,190.428 203.277,190.347 202.394,190.191 202.206,190.142 201.93,190.039 201.571,189.874 201.102,189.633 199.369,188.697 198.929,188.462 197.599,187.77 196.584,187.246 " fill="none" stroke-width="1" stroke="rgb(232,26,75)" />
	<polyline points="218.85,191.323 217.676,191.38 217.431,191.391 216.072,191.457 214.402,191.535 214.284,191.538 213.517,191.535 213.38,191.538 212.016,191.615 208.823,191.801 207.026,191.9 205.329,191.976 204.832,191.983 204.236,191.963 203.64,191.917 203.148,191.852 202.464,191.726 202.084,191.631 201.713,191.504 201.352,191.348 200.91,191.122 200.565,190.925 200.055,190.61 199.208,190.08 198.867,189.875 197.571,189.124 196.11,188.287 " fill="none" stroke-width="1" stroke="rgb(232,26,75)" />
	<polyline points="195.556,189.007 195.513,189.069 194.823,190.061 194.723,190.206 193.804,191.532 193.438,192.054 193.357,192.163 192.916,192.725 192.484,193.269 190.297,196.007 188.027,198.849 187.039,200.09 183.972,203.963 183.814,204.183 182.819,205.708 182.742,205.823 182.64,205.968 180.951,208.27 178.869,211.08 178.562,211.475 178.484,211.557 177.559,212.378 177.421,212.498 " fill="none" stroke-width="1" stroke="rgb(232,26,75)" />
	<polyline points="177.557,207.443 178.353,206.718 180.697,204.602 180.848,204.481 180.941,204.424 181.075,204.358 181.118,204.337 181.593,204.093 182.922,203.377 183.11,203.251 183.956,202.56 184.13,202.405 185.408,201.194 185.51,201.097 185.632,200.98 185.739,200.872 186.983,199.571 188.989,197.482 190.04,196.398 190.207,196.229 " fill="none" stroke-width="1" stroke="rgb(232,26,75)" />
	<polyline points="491.197,183.206 491.22,184.58 491.25,186.079 491.285,187.378 491.361,189.738 491.368,189.89 491.382,190.093 491.564,192.638 491.57,192.843 491.553,193.872 491.526,194.669 491.489,195.368 491.428,196.233 491.407,196.415 491.266,197.27 490.974,198.842 490.575,200.799 490.407,201.49 490.001,202.916 489.096,205.877 488.871,206.536 488.441,207.653 488.093,208.481 487.758,209.205 487.309,210.097 486.803,211.037 486.386,211.751 485.8,212.678 485.351,213.336 484.758,214.137 484.2,214.84 483.619,215.524 483.148,216.038 482.687,216.498 482.141,217.001 481.609,217.451 481.136,217.814 480.55,218.221 480.059,218.527 479.538,218.816 478.802,219.183 478.099,219.501 477.453,219.764 476.423,220.146 475.395,220.499 474.526,220.769 473.277,221.12 472.115,221.411 470.848,221.684 469.084,222.008 468.002,222.164 466.515,222.317 464.921,222.425 463.126,222.488 461.131,222.499 458.939,222.456 456.294,222.362 456.155,222.354 456.124,222.351 455.993,222.333 454.579,222.134 452.402,221.827 451.414,221.683 449.257,221.352 449.079,221.32 446.997,220.903 444.394,220.372 444.178,220.321 442.855,219.971 441.858,219.7 441.757,219.671 441.659,219.642 438.976,218.838 438.724,218.757 437.378,218.296 437.164,218.227 435.703,217.783 434.327,217.37 434.231,217.342 432.142,216.725 430.377,216.2 430.297,216.174 430.18,216.132 428.787,215.608 428.672,215.567 425.801,214.606 425.631,214.544 423.833,213.836 423.715,213.791 423.597,213.746 421.957,213.152 420.303,212.555 420.184,212.512 417.762,211.66 417.666,211.622 417.334,211.465 417.177,211.393 415.665,210.725 415.399,210.614 413.673,209.937 410.787,208.809 406.809,207.244 405.305,206.638 402.904,205.641 399.033,204.012 397.282,203.271 394.982,202.296 392.511,201.243 392.324,201.158 391.271,200.65 391.046,200.543 389.311,199.723 389.181,199.658 388.641,199.378 388.552,199.333 387.965,199.045 387.278,198.711 387.04,198.599 386.014,198.122 385.252,197.768 385.15,197.72 383.604,196.957 383.437,196.869 383.2,196.735 382.917,196.577 381.832,195.993 380.049,195.046 379.875,194.951 379.17,194.559 379.073,194.506 378.113,194.005 378.019,193.957 375.324,192.601 374.054,191.956 373.886,191.863 373.043,191.364 372.915,191.291 370.11,189.774 368.08,188.672 367.882,188.557 366.389,187.631 365.068,186.802 364.951,186.727 364.931,186.713 364.828,186.642 363.049,185.418 360.988,184.005 354.801,179.767 353.24,178.685 350.302,176.605 346.653,173.975 343.912,171.954 342.092,170.568 341.316,169.94 339.803,168.636 337.341,166.445 336.897,166.02 336.295,165.383 335.905,164.932 335.471,164.386 334.563,163.194 333.204,161.396 333.058,161.207 333,161.136 " fill="none" stroke-width="1" stroke="rgb(232,26,75)" />
	<polyline points="493.557,190.037 493.275,190.678 492.354,192.814 492.329,192.901 492.151,194.049 492.017,194.939 491.754,196.617 491.633,197.303 491.385,198.535 491.345,198.696 490.801,200.512 490.527,201.406 490.493,201.512 " fill="none" stroke-width="1" stroke="rgb(232,26,75)" />
	<polyline points="188.344,187.426 187.612,188.44 187.476,188.636 183.553,194.458 183.481,194.564 181.788,197.044 179.919,199.774 177.211,203.724 177.105,203.879 177.058,203.949 175.222,206.717 174.916,207.166 173.066,209.802 172.313,210.856 171.431,212.069 170.542,213.286 170.452,213.412 170.44,213.429 " fill="none" stroke-width="1" stroke="rgb(232,26,75)" />
	<polyline points="177.557,207.443 177.342,207.568 177.177,207.665 176.653,207.976 176.324,208.184 175.369,208.828 175.18,208.975 174.693,209.415 173.279,210.752 173.173,210.852 170.541,213.334 170.44,213.429 " fill="none" stroke-width="1" stroke="rgb(232,26,75)" />
	<polyline points="177.421,212.498 176.564,213.411 174.981,215.076 173.587,216.507 170.339,219.762 169.76,220.309 168.556,221.358 164.903,224.437 164.621,224.655 162.981,225.816 162.81,225.936 161.016,227.187 159.051,228.541 157.925,229.304 157.373,229.679 156.093,230.572 153.996,232.081 152.443,233.238 151.045,234.308 150.015,235.1 148.977,235.881 147.764,236.759 145.145,238.594 143.812,239.495 140.731,241.517 138.658,242.867 138.535,242.95 138.002,243.329 137.869,243.422 135.062,245.342 134.936,245.432 134.864,245.487 " fill="none" stroke-width="1" stroke="rgb(232,26,75)" />
	<polyline points="170.44,213.429 168.649,215.453 167.4,216.882 166.605,217.81 166.508,217.931 166.361,218.122 166.251,218.254 165.466,219.122 162.872,221.957 162.802,222.045 161.492,223.931 160.851,224.894 160.37,225.651 159.856,226.465 159.36,227.21 159.249,227.338 157.948,228.538 156.264,230.06 " fill="none" stroke-width="1" stroke="rgb(232,26,75)" />
	<polyline points="134.864,245.487 132.039,247.263 131.94,247.329 131.828,247.412 131.371,247.757 131.191,247.882 129.001,249.295 128.906,249.358 127.797,250.092 127.686,250.162 126.672,250.776 124.051,252.356 123.904,252.445 122.176,253.513 122.01,253.613 115.225,257.634 115.124,257.706 115.035,257.784 115.005,257.809 114.88,257.89 113.731,258.567 112.313,259.378 112.118,259.479 110.914,260.04 109.723,260.584 109.624,260.627 108.514,261.094 108.363,261.154 107.546,261.462 106.104,262.001 105.861,262.093 104.887,262.476 103.627,262.989 103.447,263.081 103.305,263.186 103.162,263.337 102.693,263.943 102.349,264.423 102.307,264.49 102.256,264.582 102.25,264.589 102.029,264.709 100.798,265.358 100.651,265.437 100.304,265.621 100.058,265.748 98.8405,266.355 98.6807,266.433 98.3039,266.609 98.118,266.685 95.8507,267.511 95.7302,267.555 95.2932,267.719 " fill="none" stroke-width="1" stroke="rgb(232,26,75)" />
	<polyline points="93.8153,264.426 96.7532,263.676 96.8938,263.638 97.0138,263.606 97.1916,263.562 100.394,262.809 102.047,262.416 104.669,261.774 106.021,261.42 107.943,260.875 109.182,260.494 110.795,259.962 112.231,259.474 " fill="none" stroke-width="1" stroke="rgb(232,26,75)" />
	<polyline points="93.8153,264.426 93.6888,264.472 91.3277,265.341 91.184,265.397 91.1661,265.407 90.9932,265.531 90.8216,265.638 90.6562,265.714 88.8683,266.37 88.754,266.413 88.2805,266.598 88.1131,266.661 86.006,267.425 85.8398,267.49 85.8349,267.495 85.5285,268.303 85.3784,268.512 84.8997,268.844 83.8576,269.346 82.7423,269.798 82.4464,269.905 79.6105,270.877 79.3796,270.961 79.2483,271.014 79.1468,271.056 78.7623,271.201 78.629,271.239 76.2499,271.726 74.498,272.073 74.1364,272.138 69.8774,272.87 67.0287,273.375 66.3699,273.511 66.0777,273.591 65.566,273.753 65.386,273.802 64.7675,273.932 62.761,274.294 61.1889,274.543 59.2117,274.821 58.2209,274.947 57.5601,275.027 " fill="none" stroke-width="1" stroke="rgb(232,26,75)" />
	<polyline points="95.2932,267.719 91.8824,268.48 88.5627,269.21 87.0961,269.52 85.3316,269.873 83.8584,270.154 81.4987,270.591 79.4168,270.973 " fill="none" stroke-width="1" stroke="rgb(232,26,75)" />
	<polyline points="30.3177,212.132 30.5179,212.456 30.5751,212.551 31.8619,214.743 31.9154,214.835 31.9556,214.907 32.0497,215.09 33.5177,218.101 34.3984,219.979 35.3252,222.08 36.5579,225.03 37.6338,227.721 38.2355,229.309 38.84,231.003 39.4503,232.802 40.1646,234.987 41.0768,237.845 42.7332,243.089 43.3332,244.997 43.7242,246.245 44.1685,247.668 44.6158,249.1 45.9092,253.209 46.7645,255.864 47.1543,256.997 47.9185,259.058 48.6496,260.916 49.0072,261.738 50.0523,263.929 51.0718,265.962 51.8631,267.451 52.5031,268.579 52.9211,269.258 53.5284,270.173 54.0109,270.855 54.5302,271.541 55.1236,272.281 55.7365,273.004 56.5956,273.978 57.1249,274.559 57.5601,275.027 " fill="none" stroke-width="1" stroke="rgb(232,26,75)" />
	<polyline points="58.0953,266.033 58.1411,266.792 58.1664,267.083 58.3248,268.422 58.3905,268.81 58.4894,269.19 58.6821,269.752 58.8748,270.208 59.185,270.825 59.4824,271.338 60.0668,272.243 60.92,273.498 61.2668,273.985 61.7445,274.633 " fill="none" stroke-width="1" stroke="rgb(232,26,75)" />
	<polyline points="331.025,101.656 331.08,101.375 331.1,101.282 331.164,101.014 331.217,100.821 331.287,100.62 331.308,100.593 331.541,100.454 332.762,99.8317 333.569,99.475 334.501,99.137 335.551,98.8196 336.42,98.5991 337.982,98.2598 339.158,98.0377 340.094,97.8942 340.166,97.9015 340.662,98.086 341.081,98.2465 341.121,98.2505 342.356,98.0444 343.54,97.8288 343.668,97.7986 344.53,97.5453 344.656,97.5035 346.164,96.9563 346.374,96.8825 346.53,96.8343 348.123,96.3882 349.377,96.052 351.701,95.4523 353.832,94.9074 355.004,94.6042 356.152,94.3019 356.792,94.1332 357.017,94.0768 360.72,93.1915 360.85,93.1619 362.896,92.721 364.725,92.3262 364.859,92.2955 367.131,91.7367 367.302,91.6907 368.692,91.2841 368.843,91.244 371.155,90.694 371.267,90.6664 372.74,90.2916 372.847,90.2667 376.169,89.5623 376.327,89.5281 377.821,89.198 380.1,88.6924 380.315,88.6434 381.884,88.2765 383.326,87.9367 383.456,87.9046 384.22,87.7088 384.357,87.6763 386.283,87.2566 388.172,86.8449 388.32,86.8098 392.173,85.824 392.271,85.7986 392.38,85.7695 395.34,84.9782 396.26,84.733 397.843,84.3099 399.676,83.8118 401.662,83.2565 403.041,82.8546 406.181,81.9085 406.38,81.8439 410.44,80.4246 410.7,80.3302 412.089,79.8036 413.66,79.2012 413.841,79.1288 415.439,78.4576 415.635,78.3718 417.298,77.62 417.396,77.5721 417.645,77.4416 417.79,77.3708 421.343,75.7523 421.501,75.6796 424.145,74.4471 426.486,73.3527 426.679,73.2601 428.64,72.2944 429.337,71.9445 432.094,70.5301 433.599,69.7412 434.398,69.3013 435.159,68.8517 435.66,68.526 436.222,68.1134 436.734,67.6819 437.683,66.7783 439.028,65.392 439.053,65.3237 438.994,64.4455 438.959,64.1141 " fill="none" stroke-width="1" stroke="rgb(232,26,75)" />
	<polyline points="67.0624,187.933 67.1068,187.842 67.1429,187.789 67.2204,187.716 67.358,187.634 68.4065,187.184 70.9076,186.201 73.6198,185.182 75.0288,184.668 77.096,183.918 79.3441,183.083 80.3421,182.687 84.5773,180.904 87.9963,179.424 90.0915,178.48 91.9881,177.584 95.4908,175.871 97.8744,174.683 101.029,173.086 104.237,171.452 110.027,168.497 116.175,165.366 117.872,164.509 120.197,163.351 123.78,161.577 123.908,161.514 127.724,159.668 127.879,159.594 129.758,158.711 130.763,158.232 131.676,157.783 131.786,157.721 131.851,157.676 131.943,157.598 132.097,157.466 132.193,157.39 132.585,157.108 132.683,157.049 134.284,156.226 134.476,156.125 136,155.309 136.222,155.186 137.515,154.45 137.733,154.332 138.449,153.969 141.016,152.686 142.891,151.743 147.08,149.618 148.167,149.062 148.336,148.973 152.076,146.95 157.487,144.019 157.7,143.902 162.206,141.368 162.428,141.233 163.465,140.553 163.591,140.469 164.576,139.789 164.754,139.671 165.615,139.125 168.076,137.594 168.719,137.211 169.458,136.799 170.517,136.235 171.669,135.636 172.421,135.255 172.613,135.166 175.491,133.938 177.244,133.226 178.721,132.678 181.199,131.841 183.58,131.097 184.348,130.896 187.277,130.27 188.943,129.959 190.026,129.803 192.906,129.494 194.696,129.345 196.285,129.252 197.186,129.212 197.436,129.195 197.577,129.171 197.847,129.096 197.981,129.051 " fill="none" stroke-width="1" stroke="rgb(232,26,75)" />
</svg>
