<?xml version="1.0" encoding="utf-8" ?>
<svg baseProfile="full" height="270" version="1.1" viewBox="0,0,487,270" width="487" xmlns="http://www.w3.org/2000/svg" xmlns:ev="http://www.w3.org/2001/xml-events" xmlns:xlink="http://www.w3.org/1999/xlink">
	<path d="M 460.050628 124.603038 L 458.099454 124.544068 L 456.148458 124.479497 L 454.197586 124.411274 L 452.246771 124.341440 L 450.296369 124.260950 L 448.346671 124.164937 L 446.398167 124.047268 L 444.451031 123.908775 L 442.505351 123.751151 L 440.560985 123.578036 L 438.617896 123.391119 L 436.676104 123.191177 L 434.735722 122.977988 L 432.797080 122.749553 L 430.860549 122.503885 L 428.925979 122.243200 L 426.993022 121.970780 L 425.061149 121.690761 L 423.129989 121.405849 L 421.199631 121.115560 L 419.270709 120.815908 L 417.344631 120.498599 L 415.422668 120.157329 L 413.505859 119.788269 L 411.594474 119.392044 L 409.688441 118.970797 L 407.787913 118.525376 L 405.893352 118.055233 L 404.005381 117.559312 L 402.124068 117.038670 L 400.247890 116.499734 L 398.373105 115.955917 L 396.494437 115.425806 L 394.609021 114.920261 L 392.717666 114.437323 L 390.822634 113.968939 L 388.925918 113.507401 L 387.028674 113.048028 L 385.131630 112.587837 L 383.235561 112.123651 L 381.342377 111.647921 L 379.455491 111.147983 L 377.578653 110.611740 L 375.712476 110.039247 L 373.852529 109.446685 L 371.993590 108.850959 L 370.131883 108.263961 L 368.266977 107.687185 L 366.398778 107.121241 L 364.523395 106.579755 L 362.638730 106.071390 L 360.747550 105.587731 L 358.852996 105.117392 L 356.961664 104.634635 L 355.082711 104.105842 L 353.220808 103.520293 L 351.401534 102.814714 L 349.581321 102.110624 L 347.766342 101.392873 L 345.962353 100.647299 L 344.165699 99.887884 L 342.510410 98.895778 L 340.871307 97.863396" fill="none" stroke="black" stroke-width="1.000000" />
	<path d="M 403.080764 0.097069 L 401.306279 0.903948 L 399.527574 1.701480 L 397.737083 2.472188 L 395.930670 3.204798 L 394.118069 3.921963 L 392.318946 4.672296 L 390.548315 5.487578 L 388.801350 6.352414 L 387.080451 7.268018 L 385.386303 8.232219 L 383.717627 9.239861 L 382.073034 10.286352 L 380.454132 11.372159 L 378.858681 12.492143 L 377.285070 13.642611 L 375.736644 14.826756 L 374.220553 16.052021 L 372.742340 17.322719 L 371.303094 18.637388 L 369.896594 19.987041 L 368.512854 21.360029 L 367.143784 22.747649 L 365.784287 24.144651 L 364.429628 25.546345 L 363.076222 26.949250 L 361.722042 28.351408 L 360.366898 29.752634 L 359.008944 31.151137 L 357.646298 32.545069 L 356.275872 33.931352 L 354.895890 35.308123 L 353.504525 36.673388 L 352.094545 38.019389 L 350.678444 39.358855 L 349.251340 40.686627 L 347.818115 42.007866" fill="none" stroke="black" stroke-width="1.000000" />
	<path d="M 347.818115 42.007866 L 346.375269 43.232391 L 344.933821 44.458563 L 343.497398 45.690615 L 342.062589 46.924549 L 340.641656 48.174414 L 339.245006 49.451309 L 337.864720 50.745916 L 336.483103 52.039127 L 335.102017 53.332908 L 333.707005 54.611605 L 332.298873 55.875872 L 330.881796 57.130116 L 329.455404 58.373748 L 328.015848 59.602084 L 326.555840 60.805933 L 325.065033 61.971179 L 323.545829 63.099437 L 321.998876 64.188948 L 320.405413 65.208126 L 318.758496 66.139589 L 317.078205 67.009798 L 315.374727 67.833945 L 313.652340 68.617836 L 311.926681 69.394371 L 310.196655 70.161324" fill="none" stroke="black" stroke-width="1.000000" />
	<path d="M 389.197540 110.879662 L 387.410948 110.242658 L 385.623219 109.608855 L 383.834098 108.978990 L 382.045059 108.348895 L 380.246466 107.746774 L 378.475255 107.069826 L 376.717253 106.357742 L 374.952604 105.662433 L 373.199257 104.939606 L 371.473437 104.153630 L 369.735064 103.397406 L 367.941163 102.790724 L 366.102517 102.326686 L 364.249292 101.922983 L 362.391563 101.540196 L 360.535856 101.147970 L 358.687618 100.722182 L 356.862694 100.207285 L 355.048993 99.657600 L 353.245758 99.070496" fill="none" stroke="black" stroke-width="1.000000" />
	<path d="M 133.061981 60.896191 L 131.238329 60.079714 L 129.413167 59.266619 L 127.583126 58.464562 L 125.746452 57.677817 L 123.901512 56.910655 L 122.046910 56.167155 L 120.183045 55.447190 L 118.311355 54.747821 L 116.433089 54.066311 L 114.549442 53.399817 L 112.662832 52.741754 L 110.773311 52.092100 L 108.882481 51.446266 L 106.990458 50.803933 L 105.097494 50.164378 L 103.204115 49.526056 L 101.309475 48.891484 L 99.413989 48.259445 L 97.517253 47.631166 L 95.619006 47.007466 L 93.719105 46.388823 L 91.816339 45.779053 L 89.910684 45.178369 L 88.001217 44.589918 L 86.087297 44.016112 L 84.168878 43.457537 L 82.244891 42.918453 L 80.315521 42.398962 L 78.380886 41.899437 L 76.441145 41.420122 L 74.496642 40.960509 L 72.548343 40.517258 L 70.596430 40.090204 L 68.641540 39.676994 L 66.684080 39.276129 L 64.724139 38.887578 L 62.761823 38.511207 L 60.797162 38.147275 L 58.829788 37.798308 L 56.859551 37.465885 L 54.886431 37.151031 L 52.910037 36.857430 L 50.930619 36.584962 L 48.948613 36.331995 L 46.964330 36.097571 L 44.978058 35.880637 L 42.990268 35.678076 L 41.000995 35.490641 L 39.009990 35.322616 L 37.017236 35.176790 L 35.022578 35.059870 L 33.025812 34.987529 L 31.027844 34.967140 L 29.030650 35.025879 L 27.039027 35.185862 L 25.068117 35.513472 L 23.162505 36.113072 L 21.358396 36.971029 L 19.681745 38.057254 L 18.153434 39.343881 L 16.758982 40.774648 L 15.474750 42.305221 L 14.311536 43.929660 L 13.283932 45.643086 L 12.391462 47.430639 L 11.603389 49.266669 L 10.889994 51.133022 L 10.240806 53.022677 L 9.637290 54.927423 L 9.073261 56.844237 L 8.539220 58.769625 L 8.026861 60.700899 L 7.536093 62.637772 L 7.067059 64.580023 L 6.620479 66.527558 L 6.198598 68.480592 L 5.803373 70.439194 L 5.437275 72.403447 L 5.104191 74.373566 L 4.785213 76.346024 L 4.438686 78.313825 L 4.109458 80.284596 L 3.809013 82.259957 L 3.488386 84.232146 L 3.222805 86.212478 L 2.999753 88.198061 L 2.821376 90.188153 L 2.683909 92.181491 L 2.574228 94.176558 L 2.489117 96.172825 L 2.415369 98.169547 L 2.355042 100.166719 L 2.311664 102.164330 L 2.280396 104.162169 L 2.261410 106.160162 L 2.255155 108.158236 L 2.261473 110.156309 L 2.278810 112.154317 L 2.306366 114.152211 L 2.344453 116.149931 L 2.394347 118.147392 L 2.458735 120.144437 L 2.538902 122.140910 L 2.638735 124.136496 L 2.756080 126.131129 L 2.884242 128.125098 L 3.014649 130.118923 L 3.149780 132.112432 L 3.289116 134.105652 L 3.430290 136.098743 L 3.577519 138.091396 L 3.724250 140.084085 L 3.878072 142.076239 L 4.045433 144.067301 L 4.229886 146.056850 L 4.430816 148.044804 L 4.649815 150.030847 L 4.877954 152.015864 L 5.122661 153.998904 L 5.397199 155.978029 L 5.675052 157.956700 L 5.940212 159.937110 L 6.185788 161.920042 L 6.434007 163.902648 L 6.695900 165.883493 L 6.962629 167.863694 L 7.231892 169.843553 L 7.507948 171.822475 L 7.800840 173.798973 L 8.122762 175.770944 L 8.473750 177.737951 L 8.853505 179.699607 L 9.263069 181.655256 L 9.728379 183.598306 L 10.213640 185.536173 L 10.735138 187.464569 L 11.301508 189.380147 L 11.917717 191.279903 L 12.601090 193.155834 L 13.360031 195.001725 L 14.206861 196.808674 L 15.140170 198.572534 L 16.161350 200.287101 L 17.253833 201.957832 L 18.447850 203.556068 L 19.804544 204.998812 L 21.339537 206.210848 L 23.007994 207.287704" fill="none" stroke="black" stroke-width="1.000000" />
	<path d="M 292.046050 66.288440 L 290.104114 66.376240 L 288.162225 66.465072 L 286.222841 66.597569 L 284.283801 66.735225 L 282.350337 66.935931 L 280.417749 67.145519 L 278.489292 67.389970 L 276.561650 67.641011 L 274.636163 67.908012 L 272.711403 68.180268 L 270.790949 68.481158 L 268.872664 68.795786 L 266.973896 69.209667 L 265.081053 69.652339 L 263.189023 70.098483 L 261.297144 70.545270 L 259.405628 70.993594 L 257.514224 71.442385 L 255.621885 71.887215 L 253.729168 72.330438 L 251.832365 72.755658 L 249.933616 73.172284 L 248.028305 73.557116 L 246.119376 73.924286 L 244.205770 74.265711 L 242.290097 74.595888 L 240.391082 75.006223 L 238.506883 75.484157 L 236.686590 76.147558 L 234.906668 76.928956 L 233.036490 77.327738 L 231.093570 77.380341 L 229.153971 77.297983 L 227.219121 77.110627 L 225.288433 76.886115 L 223.361432 76.630204 L 221.434763 76.371805 L 219.508144 76.113028 L 217.579051 75.874484 L 215.646676 75.662942 L 213.711882 75.477367 L 211.773506 75.330657 L 209.834233 75.197315 L 207.893453 75.086880 L 205.951837 74.995079 L 204.008750 74.938298 L 202.065337 74.907274 L 200.121528 74.927685 L 198.177993 74.963242 L 196.235116 75.026789 L 194.293113 75.109643 L 192.353639 75.240913 L 190.417512 75.407421 L 188.493681 75.685877 L 186.641920 76.228069 L 184.803264 76.814525 L 183.145511 77.778095 L 181.517356 78.807362 L 180.153089 80.171839 L 178.807462 81.560558 L 177.600891 83.084694" fill="none" stroke="black" stroke-width="1.000000" />
	<path d="M 247.026050 88.776740 L 245.959402 87.450126 L 244.831113 86.175723 L 243.625530 84.974678 L 242.299444 83.911016 L 240.884785 82.966593 L 239.434895 82.074845 L 237.958769 81.227942 L 236.450395 80.439809 L 234.929878 79.674907 L 233.423349 78.882502 L 231.891167 78.141752 L 230.358871 77.400948" fill="none" stroke="black" stroke-width="1.000000" />
	<path d="M 322.214539 103.165047 L 323.860078 102.042622 L 325.564957 101.026031 L 327.338896 100.155526 L 329.200408 99.484788 L 331.119342 98.983168 L 333.074455 98.619590 L 335.043528 98.321132 L 337.026877 98.132531 L 339.014321 97.992174 L 341.004508 97.902425 L 342.996486 97.888142 L 344.987547 97.957459 L 346.975161 98.093957 L 348.956386 98.302149 L 350.924330 98.610094 L 352.871300 99.033232 L 354.810953 99.487891 L 356.770272 99.849451 L 358.740183 100.148319 L 360.716744 100.399598 L 362.698249 100.608480 L 364.683125 100.782552 L 366.670171 100.929850 L 368.658894 101.052369 L 370.649320 101.142813 L 372.641326 101.185093 L 374.633554 101.157182 L 376.622638 101.041236 L 378.606748 100.858717 L 380.586500 100.633751 L 382.561668 100.371594 L 384.530825 100.067594 L 386.491746 99.714368 L 388.441858 99.305685 L 390.378179 98.835988 L 392.298010 98.302844 L 394.202098 97.715912 L 396.094809 97.093244 L 397.981841 96.453568 L 399.866841 95.807926 L 401.752822 95.165159 L 403.643059 94.535025 L 405.540837 93.927980 L 407.447629 93.349872 L 409.362264 92.798283 L 411.280947 92.260947 L 413.197577 91.716341 L 415.104168 91.137603 L 416.983620 90.476081 L 418.805021 89.668350 L 420.532070 88.674711 L 422.159392 87.524971" fill="none" stroke="black" stroke-width="1.000000" />
	<path d="M 324.072050 96.487340 L 324.523226 96.276401 L 324.974403 96.065463 L 325.425579 95.854524 L 325.876755 95.643586 L 326.327932 95.432647 L 326.779108 95.221709 L 327.230284 95.010770 L 327.686023 94.810857 L 328.154314 94.641271 L 328.622604 94.471685 L 329.090894 94.302099 L 329.559185 94.132513 L 330.027475 93.962927 L 330.495765 93.793341 L 330.964055 93.623755 L 331.444758 93.501466 L 331.935975 93.419236 L 332.427191 93.337006 L 332.918407 93.254776 L 333.409623 93.172546 L 333.900840 93.090316 L 334.392056 93.008086 L 334.883272 92.925856 L 335.368475 92.814398 L 335.852255 92.696028 L 336.336036 92.577659 L 336.819817 92.459289 L 337.303598 92.340919 L 337.787379 92.222550 L 338.271159 92.104180 L 338.754444 91.983983 L 339.231645 91.841386 L 339.708846 91.698788 L 340.186048 91.556191 L 340.663249 91.413594 L 341.140451 91.270996 L 341.617652 91.128399 L 342.094853 90.985802 L 342.573754 90.849301 L 343.055927 90.724544 L 343.538100 90.599787 L 344.020273 90.475030 L 344.502446 90.350272 L 344.984619 90.225515 L 345.466792 90.100758 L 345.948965 89.976001 L 346.431236 89.851622 L 346.913569 89.727488 L 347.395903 89.603354 L 347.878237 89.479220 L 348.360571 89.355086 L 348.842905 89.230952 L 349.325239 89.106818 L 349.807572 88.982684 L 350.291562 88.865203 L 350.775792 88.748682 L 351.260021 88.632162 L 351.744251 88.515641 L 352.228480 88.399120 L 352.712709 88.282600 L 353.196939 88.166079 L 353.681459 88.050818 L 354.167769 87.943310 L 354.654078 87.835801 L 355.140388 87.728292 L 355.626697 87.620783 L 356.113007 87.513274 L 356.599317 87.405765 L 357.085626 87.298256 L 357.570750 87.185694 L 358.054140 87.065736 L 358.537529 86.945778 L 359.020918 86.825820 L 359.504308 86.705862 L 359.987697 86.585904 L 360.471086 86.465946 L 360.954476 86.345988 L 361.437609 86.225004 L 361.920617 86.103519 L 362.403624 85.982035 L 362.886632 85.860550 L 363.369640 85.739065 L 363.852648 85.617580 L 364.335656 85.496096 L 364.818664 85.374611 L 365.304392 85.264546 L 365.790300 85.155237 L 366.276208 85.045928 L 366.762116 84.936619 L 367.248024 84.827310 L 367.733933 84.718001 L 368.219841 84.608692 L 368.705861 84.499886 L 369.192318 84.393048 L 369.678775 84.286209 L 370.165232 84.179370 L 370.651690 84.072531 L 371.138147 83.965693 L 371.624604 83.858854 L 372.111061 83.752015 L 372.597010 83.642913 L 373.082384 83.531259 L 373.567759 83.419604 L 374.053134 83.307950 L 374.538508 83.196296 L 375.023883 83.084641 L 375.509257 82.972987 L 375.994632 82.861332 L 376.479997 82.749638 L 376.965359 82.637928 L 377.450721 82.526219 L 377.936083 82.414510 L 378.421445 82.302801 L 378.906807 82.191092 L 379.392169 82.079383 L 379.877529 81.967664 L 380.361686 81.850845 L 380.845844 81.734027 L 381.330001 81.617208 L 381.814159 81.500390 L 382.298317 81.383571 L 382.782474 81.266753 L 383.266632 81.149934 L 383.750148 81.030567 L 384.231911 80.904236 L 384.713674 80.777904 L 385.195437 80.651573 L 385.677200 80.525242 L 386.158963 80.398910 L 386.640726 80.272579 L 387.122489 80.146248 L 387.603925 80.018684 L 388.085077 79.890044 L 388.566229 79.761404 L 389.047380 79.632765 L 389.528532 79.504125 L 390.009684 79.375485 L 390.490836 79.246846 L 390.971987 79.118206 L 391.452229 78.986221 L 391.932243 78.853398 L 392.412257 78.720576 L 392.892271 78.587753 L 393.372285 78.454931 L 393.852299 78.322109 L 394.332313 78.189286 L 394.812153 78.055858 L 395.289529 77.913847 L 395.766905 77.771835 L 396.244281 77.629824 L 396.721657 77.487813 L 397.199033 77.345801 L 397.676409 77.203790 L 398.153785 77.061778 L 398.629292 76.913886 L 399.101034 76.754155 L 399.572777 76.594425 L 400.044520 76.434694 L 400.516263 76.274963 L 400.988006 76.115233 L 401.459749 75.955502 L 401.931492 75.795772 L 402.400648 75.628719 L 402.868066 75.456744 L 403.335485 75.284769 L 403.802903 75.112794 L 404.270321 74.940819 L 404.737739 74.768844 L 405.205157 74.596869 L 405.672575 74.424894 L 406.133314 74.235889 L 406.593001 74.044205 L 407.052689 73.852521 L 407.512376 73.660838 L 407.972063 73.469154 L 408.431751 73.277470 L 408.891438 73.085786 L 409.350215 72.892022 L 409.802912 72.684368 L 410.255609 72.476713 L 410.708307 72.269059 L 411.161004 72.061404 L 411.613701 71.853750 L 412.066398 71.646096 L 412.519096 71.438441 L 412.971575 71.230314 L 413.423723 71.021466 L 413.875871 70.812618 L 414.328019 70.603771 L 414.780167 70.394923 L 415.232315 70.186075 L 415.684463 69.977227 L 416.136611 69.768380 L 416.587792 69.557457 L 417.038480 69.345477 L 417.489168 69.133496 L 417.939855 68.921516 L 418.390543 68.709536 L 418.841231 68.497556 L 419.291919 68.285575 L 419.742607 68.073595 L 420.188742 67.852213 L 420.634526 67.630105 L 421.080310 67.407998 L 421.526094 67.185890 L 421.971878 66.963783 L 422.417662 66.741675 L 422.863446 66.519568 L 423.304715 66.289387 L 423.727279 66.025770 L 424.149844 65.762152 L 424.572408 65.498534 L 424.994973 65.234916 L 425.417538 64.971298 L 425.840102 64.707681 L 426.262667 64.444063 L 426.663673 64.151283 L 427.039622 63.824606 L 427.415570 63.497929 L 427.791519 63.171251 L 428.167467 62.844574 L 428.543416 62.517897 L 428.919364 62.191220 L 429.295312 61.864543 L 429.643124 61.508892 L 429.980685 61.142684 L 430.318246 60.776477 L 430.655807 60.410270 L 430.993367 60.044062 L 431.330928 59.677855 L 432.006050 58.945440" fill="none" stroke="black" stroke-width="1.000000" />
	<path d="M 389.197540 110.879662 L 390.265894 111.881816 L 391.334274 112.883943 L 392.447154 113.831196 L 393.648346 114.669548" fill="none" stroke="black" stroke-width="1.000000" />
	<path d="M 160.236099 133.012970 L 158.433636 132.237411 L 156.621317 131.486478 L 154.786239 130.794528 L 152.928383 130.168341 L 151.044792 129.625744 L 149.139231 129.166133 L 147.221531 128.752395 L 145.281830 128.455391 L 143.333279 128.223378 L 141.378643 128.049681 L 139.420480 127.921650 L 137.460128 127.832707 L 135.498991 127.763155 L 133.537316 127.710867 L 131.575295 127.673774 L 129.613063 127.650234 L 127.650725 127.638350 L 125.688353 127.638473 L 123.726022 127.651355 L 121.763825 127.677548 L 119.801854 127.717298 L 117.840168 127.769224 L 115.878829 127.832959 L 113.917865 127.907336 L 111.957331 127.992295 L 109.997296 128.088068 L 108.037830 128.194859 L 106.079026 128.313158 L 104.121062 128.444624 L 102.164133 128.590700 L 100.208308 128.750881 L 98.253696 128.925220 L 96.300723 129.117051 L 94.349587 129.326760 L 92.399912 129.549660 L 90.451520 129.783513 L 88.503496 130.020407 L 86.556036 130.261900 L 84.609577 130.511319 L 82.665037 130.775265 L 80.723393 131.059740 L 78.784791 131.364256 L 76.849250 131.687671 L 74.915525 132.021770 L 72.983351 132.364730 L 71.053183 132.718804 L 69.124771 133.082328 L 67.197144 133.449978 L 65.273171 133.836262 L 63.359075 134.268831 L 61.458348 134.756807 L 59.572961 135.301035 L 57.666516 135.766124 L 55.794091 136.353433 L 53.941163 136.999637" fill="none" stroke="black" stroke-width="1.000000" />
	<path d="M 55.079050 141.507340 L 55.844389 140.144556 L 56.851643 138.961826 L 57.945027 137.844991 L 58.954980 136.669671 L 59.666321 135.277939" fill="none" stroke="black" stroke-width="1.000000" />
	<path d="M 407.156664 0.873043 L 407.520393 1.215288 L 407.884122 1.557534 L 408.247851 1.899779 L 408.611551 2.242056 L 408.973077 2.586627 L 409.334604 2.931198 L 409.696131 3.275769 L 410.057595 3.620405 L 410.416914 3.967279 L 410.776232 4.314152 L 411.135550 4.661026 L 411.494613 5.008160 L 411.848391 5.360682 L 412.202169 5.713204 L 412.555947 6.065727 L 412.909187 6.418776 L 413.254377 6.779712 L 413.599567 7.140648 L 413.944756 7.501584 L 414.289248 7.863172 L 414.625683 8.232282 L 414.962117 8.601393 L 415.298552 8.970504 L 415.634145 9.340363 L 415.961848 9.717247 L 416.289551 10.094131 L 416.617254 10.471015 L 416.943954 10.848751 L 417.262757 11.233193 L 417.581561 11.617634 L 417.900365 12.002075 L 418.218274 12.387244 L 418.530165 12.777315 L 418.842055 13.167386 L 419.153946 13.557457 L 419.465030 13.948163 L 419.771362 14.342614 L 420.077693 14.737065 L 420.384025 15.131516 L 420.689518 15.526610 L 420.990625 15.925064 L 421.291732 16.323518 L 421.592838 16.721971 L 421.893475 17.120778 L 422.191903 17.521243 L 422.490330 17.921707 L 422.788758 18.322172 L 423.086673 18.723015 L 423.382410 19.125471 L 423.678148 19.527926 L 423.973885 19.930381 L 424.269077 20.333235 L 424.562153 20.737632 L 424.855230 21.142029 L 425.148307 21.546425 L 425.440802 21.951241 L 425.731228 22.357546 L 426.021654 22.763850 L 426.312080 23.170155 L 426.601820 23.576947 L 426.889309 23.985335 L 427.176797 24.393724 L 427.464285 24.802112 L 427.750754 25.211211 L 428.034117 25.622473 L 428.317481 26.033734 L 428.600844 26.444996 L 428.883125 26.856995 L 429.162334 27.271088 L 429.441544 27.685181 L 429.720753 28.099274 L 429.998902 28.514075 L 430.274235 28.930755 L 430.549569 29.347435 L 430.824902 29.764115 L 431.099153 30.181503 L 431.370705 30.600658 L 431.642258 31.019812 L 431.913810 31.438966 L 432.184256 31.858830 L 432.452108 32.280358 L 432.719960 32.701886 L 432.987812 33.123415 L 433.254600 33.545613 L 433.519030 33.969297 L 433.783460 34.392980 L 434.047890 34.816664 L 434.311209 35.241034 L 434.572201 35.666843 L 434.833193 36.092653 L 435.094185 36.518463 L 435.353918 36.945037 L 435.611154 37.373127 L 435.868390 37.801216 L 436.125625 38.229306 L 436.381521 38.658192 L 436.634897 39.088577 L 436.888274 39.518962 L 437.141650 39.949347 L 437.393492 40.380626 L 437.642601 40.813494 L 437.891710 41.246363 L 438.140819 41.679232 L 438.388012 42.113189 L 438.631967 42.548983 L 438.875923 42.984777 L 439.119879 43.420571 L 439.361844 43.857464 L 439.600614 44.296120 L 439.839384 44.734777 L 440.078154 45.173434 L 440.314336 45.613474 L 440.546573 46.055625 L 440.778811 46.497775 L 441.011048 46.939925 L 441.240498 47.383511 L 441.465905 47.829183 L 441.691311 48.274854 L 441.916718 48.720525 L 442.139208 49.167642 L 442.357677 49.616755 L 442.576145 50.065868 L 442.794613 50.514981 L 443.010023 50.965552 L 443.221406 51.418043 L 443.432788 51.870535 L 443.644171 52.323026 L 443.852394 52.776962 L 444.056640 53.232719 L 444.260887 53.688476 L 444.465133 54.144233 L 444.666040 54.601454 L 444.862929 55.060437 L 445.059818 55.519420 L 445.256707 55.978404 L 445.450147 56.438834 L 445.639610 56.900932 L 445.829072 57.363030 L 446.018535 57.825128 L 446.204232 58.288733 L 446.385779 58.753998 L 446.567326 59.219263 L 446.748873 59.684528 L 446.926266 60.151370 L 447.099264 60.619881 L 447.272261 61.088392 L 447.445258 61.556903 L 447.613992 62.026945 L 447.778384 62.498544 L 447.942776 62.970144 L 448.107169 63.441743 L 448.268364 63.914433 L 448.426425 64.388192 L 448.584486 64.861951 L 448.742548 65.335710 L 448.897380 65.810522 L 449.049166 66.286329 L 449.200951 66.762136 L 449.352736 67.237942 L 449.502248 67.714463 L 449.649696 68.191632 L 449.797144 68.668800 L 449.944592 69.145969 L 450.090780 69.623523 L 450.235866 70.101415 L 450.380953 70.579307 L 450.526039 71.057199 L 450.669859 71.535473 L 450.812615 72.014066 L 450.955370 72.492659 L 451.098126 72.971253 L 451.240247 73.450035 L 451.381855 73.928969 L 451.523464 74.407903 L 451.665072 74.886837 L 451.806033 75.365962 L 451.946494 75.845234 L 452.086955 76.324505 L 452.227416 76.803777 L 452.367710 77.283098 L 452.507880 77.762455 L 452.648050 78.241812 L 452.788220 78.721169 L 452.928617 79.200460 L 453.069174 79.679704 L 453.209732 80.158947 L 453.350290 80.638191 L 453.491236 81.117320 L 453.632446 81.596372 L 453.773655 82.075424 L 453.914864 82.554476 L 454.058123 83.032916 L 454.202697 83.510963 L 454.347272 83.989010 L 454.491846 84.467057 L 454.638508 84.944465 L 454.786440 85.421484 L 454.934373 85.898502 L 455.082305 86.375521 L 455.233311 86.851569 L 455.386083 87.327060 L 455.538855 87.802551 L 455.691626 88.278042 L 455.848119 88.752313 L 456.006627 89.225922 L 456.165134 89.699532 L 456.323641 90.173142 L 456.486067 90.645413 L 456.650481 91.117005 L 456.814894 91.588597 L 456.979307 92.060189 L 457.148453 92.530092 L 457.319844 92.999193 L 457.491234 93.468295 L 457.662624 93.937396 L 457.838829 94.404698 L 458.017159 94.871206 L 458.195489 95.337713 L 458.373818 95.804221 L 458.557522 96.268624 L 458.743416 96.732170 L 458.929309 97.195715 L 459.115202 97.659261 L 459.306784 98.120469 L 459.500503 98.580799 L 459.694222 99.041129 L 459.887940 99.501459 L 460.087453 99.959293 L 460.288954 100.416271 L 460.490454 100.873248 L 460.691954 101.330226 L 460.899378 101.784531 L 461.108654 102.238000 L 461.317930 102.691469 L 461.527206 103.144939 L 461.742495 103.595570 L 461.959485 104.045399 L 462.176475 104.495228 L 462.393465 104.945058 L 462.615710 105.392304 L 462.839286 105.838896 L 463.062861 106.285489 L 463.286436 106.732081 L 463.515050 107.176107 L 463.744797 107.619557 L 463.974543 108.063006 L 464.204290 108.506456 L 464.438481 108.947568 L 464.673548 109.388221 L 464.908614 109.828873 L 465.143681 110.269525 L 465.381446 110.708726 L 465.619670 111.147679 L 465.857894 111.586633 L 466.096117 112.025587 L 466.337090 112.463036 L 466.578458 112.900268 L 466.819825 113.337501 L 467.061193 113.774734 L 467.302267 114.212129 L 467.543306 114.649543 L 467.784345 115.086957 L 468.025383 115.524371 L 468.265350 115.962374 L 468.505217 116.400432 L 468.745084 116.838490 L 468.984951 117.276548 L 469.222560 117.715834 L 469.460014 118.155204 L 469.697469 118.594574 L 469.934924 119.033944 L 470.167706 119.475806 L 470.400282 119.917778 L 470.632857 120.359750 L 470.865433 120.801723 L 471.093199 121.246192 L 471.320866 121.690712 L 471.548533 122.135233 L 471.776180 122.579764 L 471.996988 123.027731 L 472.217796 123.475698 L 472.438604 123.923665 L 472.659221 124.371725 L 472.872818 124.823175 L 473.086415 125.274625 L 473.300012 125.726075 L 473.513209 126.177710 L 473.719046 126.632751 L 473.924883 127.087791 L 474.130720 127.542832 L 474.335902 127.998161 L 474.533161 128.456986 L 474.730419 128.915810 L 474.927678 129.374635 L 475.124057 129.833828 L 475.312668 130.296274 L 475.501278 130.758721 L 475.689889 131.221168 L 475.877403 131.684049 L 476.057458 132.149894 L 476.237513 132.615738 L 476.417568 133.081583 L 476.596291 133.547928 L 476.767738 134.017009 L 476.939186 134.486089 L 477.110634 134.955170 L 477.280583 135.424783 L 477.443854 135.896772 L 477.607125 136.368760 L 477.770397 136.840749 L 477.932050 137.313283 L 478.087670 137.787849 L 478.243290 138.262416 L 478.398911 138.736982 L 478.552680 139.212139 L 478.700608 139.689159 L 478.848536 140.166179 L 478.996464 140.643199 L 479.142226 141.120871 L 479.282151 141.600299 L 479.422077 142.079728 L 479.562002 142.559156 L 479.699501 143.039271 L 479.831380 143.520975 L 479.963258 144.002679 L 480.095137 144.484383 L 480.224458 144.966766 L 480.348682 145.450501 L 480.472905 145.934235 L 480.597129 146.417970 L 480.718675 146.902371 L 480.835606 147.387920 L 480.952537 147.873469 L 481.069468 148.359019 L 481.183484 148.845247 L 481.293156 149.332487 L 481.402828 149.819727 L 481.512500 150.306967 L 481.619485 150.794794 L 481.723007 151.283378 L 481.826529 151.771961 L 481.930051 152.260545 L 482.030651 152.749729 L 482.128006 153.239578 L 482.225361 153.729428 L 482.322715 154.219278 L 482.420354 154.709071 L 482.518263 155.198811 L 482.616172 155.688550 L 482.714081 156.178290 L 482.806788 156.669017 L 482.895292 157.160543 L 482.983795 157.652070 L 483.072298 158.143596 L 483.151600 158.636631 L 483.224694 159.130683 L 483.297787 159.624736 L 483.370881 160.118789 L 483.444072 160.612827 L 483.517317 161.106858 L 483.590563 161.600888 L 483.663808 162.094918 L 483.729474 162.589986 L 483.791736 163.085521 L 483.853998 163.581055 L 483.916260 164.076589 L 483.978493 164.572127 L 484.040716 165.067667 L 484.102939 165.563206 L 484.165162 166.058745 L 484.225479 166.554519 L 484.285306 167.050353 L 484.345132 167.546187 L 484.404959 168.042022 L 484.457692 168.538652 L 484.509241 169.035415 L 484.560790 169.532178 L 484.612339 170.028941 L 484.671642 170.524832 L 484.731694 171.020639 L 484.791747 171.516446 L 484.851800 172.012253 L 484.897494 172.509583 L 484.942808 173.006954 L 484.988121 173.504324 L 485.033246 174.001711 L 485.073393 174.499525 L 485.113540 174.997340 L 485.153688 175.495154 L 485.193048 175.993026 L 485.225827 176.491379 L 485.258606 176.989733 L 485.291384 177.488087 L 485.322991 177.986510 L 485.349013 178.485262 L 485.375035 178.984014 L 485.401057 179.482766 L 485.424350 179.981630 L 485.439179 180.480840 L 485.454007 180.980050 L 485.468835 181.479261 L 485.479907 181.978538 L 485.482937 182.477960 L 485.485967 182.977381 L 485.488997 183.476802 L 485.468433 183.975497 L 485.434660 184.473784 L 485.400886 184.972071 L 485.304697 185.456623 L 485.126176 185.923058 L 484.947654 186.389492 L 484.769133 186.855926 L 484.665827 187.340892 L 484.607229 187.836873 L 484.548631 188.332854 L 484.490032 188.828835 L 484.423862 189.323843 L 484.355201 189.818531 L 484.286541 190.313220 L 484.217881 190.807908 L 484.135312 191.300431 L 484.050340 191.792580 L 483.965368 192.284729 L 483.880396 192.776878 L 483.782338 193.266584 L 483.684039 193.756245 L 483.585739 194.245907 L 483.479816 194.733616 L 483.330666 195.210255 L 483.181516 195.686894 L 483.032366 196.163534 L 482.886570 196.641170 L 482.751139 197.121887 L 482.615708 197.602605 L 482.480277 198.083322 L 482.338298 198.562050 L 482.183369 199.036842 L 482.028440 199.511635 L 481.873510 199.986427 L 481.707697 200.457336 L 481.527083 200.922964 L 481.346470 201.388592 L 481.165856 201.854220 L 480.970922 202.313793 L 480.762705 202.767750 L 480.554488 203.221706 L 480.346272 203.675663 L 480.115588 204.118153 L 479.870136 204.553106 L 479.624684 204.988059 L 479.379232 205.423012 L 479.109513 205.842898 L 478.828533 206.255791 L 478.547553 206.668685 L 478.266573 207.081578 L 477.961851 207.476947 L 477.650052 207.867090 L 477.338253 208.257234 L 477.026454 208.647378 L 476.691026 209.017152 L 476.351074 209.383025 L 476.011122 209.748899 L 475.671170 210.114772 L 475.305201 210.454456 L 474.937086 210.791980 L 474.568972 211.129504 L 474.200857 211.467028 L 473.802126 211.767693 L 473.402796 212.067637 L 473.003467 212.367582 L 472.603360 212.666380 L 472.176655 212.925905 L 471.749949 213.185430 L 471.323244 213.444955 L 470.894908 213.701518 L 470.447401 213.923257 L 469.999894 214.144996 L 469.552386 214.366735 L 469.103060 214.584380 L 468.638602 214.767983 L 468.174144 214.951585 L 467.709687 215.135188 L 467.243438 215.313715 L 466.766611 215.462263 L 466.289783 215.610811 L 465.812956 215.759359 L 465.334900 215.903521 L 464.850289 216.024283 L 464.365679 216.145045 L 463.881068 216.265807 L 463.395436 216.381897 L 462.904666 216.474501 L 462.413896 216.567105 L 461.923126 216.659710 L 461.431706 216.748376 L 460.937188 216.818254 L 460.442670 216.888131 L 459.948153 216.958009 L 459.453184 217.024089 L 458.956052 217.071950 L 458.458920 217.119811 L 457.961788 217.167673 L 457.464385 217.211942 L 456.965697 217.239154 L 456.467008 217.266367 L 455.968320 217.293580 L 455.469520 217.317723 L 454.970167 217.326527 L 454.470814 217.335331 L 453.971462 217.344136 L 453.472111 217.350046 L 452.972773 217.340445 L 452.473435 217.330843 L 451.974096 217.321241 L 451.474842 217.309283 L 450.976073 217.283571 L 450.477305 217.257860 L 449.978537 217.232148 L 449.479910 217.204336 L 448.982211 217.162789 L 448.484512 217.121241 L 447.986812 217.079693 L 447.489290 217.036350 L 446.993070 216.979810 L 446.496851 216.923270 L 446.000631 216.866730 L 445.504594 216.808762 L 445.010151 216.738359 L 444.515708 216.667955 L 444.021264 216.597551 L 443.527005 216.525972 L 443.034724 216.441770 L 442.542443 216.357568 L 442.050162 216.273365 L 441.558025 216.188374 L 441.067915 216.092339 L 440.577805 215.996304 L 440.087694 215.900268 L 439.597699 215.803683 L 439.110018 215.695987 L 438.622337 215.588292 L 438.134656 215.480597 L 437.647041 215.372619 L 437.161670 215.254953 L 436.676298 215.137287 L 436.190926 215.019621 L 435.705572 214.901889 L 435.222224 214.776166 L 434.738877 214.650443 L 434.255530 214.524721 L 433.772182 214.398998 L 433.290967 214.265349 L 432.809776 214.131610 L 432.328586 213.997870 L 431.847395 213.864130 L 431.367510 213.725781 L 430.887666 213.587285 L 430.407823 213.448790 L 429.927979 213.310295 L 429.449447 213.167336 L 428.970983 213.024149 L 428.492519 212.880962 L 428.014054 212.737774 L 427.536901 212.590282 L 427.059839 212.442488 L 426.582778 212.294693 L 426.105716 212.146899 L 425.629963 211.994951 L 425.154327 211.842633 L 424.678690 211.690315 L 424.203054 211.537998 L 423.728742 211.381608 L 423.254573 211.224783 L 422.780403 211.067958 L 422.306234 210.911133 L 421.833418 210.750278 L 421.360772 210.588920 L 420.888126 210.427563 L 420.415480 210.266205 L 419.944205 210.100892 L 419.473124 209.935019 L 419.002043 209.769147 L 418.530963 209.603274 L 418.061078 209.434049 L 417.591382 209.264294 L 417.121686 209.094540 L 416.651990 208.924786 L 416.183339 208.752172 L 415.714869 208.579062 L 415.246400 208.405952 L 414.777930 208.232842 L 414.310497 208.056957 L 413.843259 207.880551 L 413.376021 207.704144 L 412.908783 207.527737 L 412.442370 207.349162 L 411.976124 207.170149 L 411.509878 206.991137 L 411.043632 206.812124 L 410.578215 206.630971 L 410.112975 206.449360 L 409.647735 206.267748 L 409.182495 206.086137 L 408.717934 205.902798 L 408.253526 205.719070 L 407.789118 205.535341 L 407.324710 205.351613 L 406.860874 205.166447 L 406.397173 204.980942 L 405.933472 204.795436 L 405.469771 204.609931 L 405.006623 204.423052 L 404.543609 204.235838 L 404.080596 204.048623 L 403.617582 203.861408 L 403.154949 203.673256 L 402.692412 203.484869 L 402.229874 203.296482 L 401.767336 203.108095 L 401.305179 202.918776 L 400.843120 202.729218 L 400.381061 202.539661 L 399.919002 202.350103 L 399.457397 202.159441 L 398.995912 201.968491 L 398.534426 201.777541 L 398.072941 201.586591 L 397.611956 201.394436 L 397.151104 201.201963 L 396.690251 201.009490 L 396.229399 200.817016 L 395.769076 200.623282 L 395.308893 200.429214 L 394.848710 200.235146 L 394.388527 200.041078 L 393.929024 199.845406 L 393.469702 199.649311 L 393.010379 199.453215 L 392.551056 199.257119 L 392.092421 199.059422 L 391.633968 198.861304 L 391.175514 198.663185 L 390.717060 198.465066 L 390.259487 198.264926 L 389.802144 198.064257 L 389.344800 197.863589 L 388.887457 197.662921 L 388.431100 197.460021 L 387.974999 197.256545 L 387.518898 197.053068 L 387.062797 196.849592 L 386.607762 196.643747 L 386.152998 196.437300 L 385.698234 196.230852 L 385.243470 196.024405 L 384.790067 195.814992 L 384.337004 195.604838 L 383.883941 195.394684 L 383.430877 195.184530 L 382.979205 194.971410 L 382.527873 194.757565 L 382.076540 194.543719 L 381.625208 194.329873 L 381.175317 194.113019 L 380.725769 193.895445 L 380.276222 193.677872 L 379.826675 193.460299 L 379.378609 193.239698 L 378.930888 193.018391 L 378.483166 192.797085 L 378.035445 192.575779 L 377.589160 192.351594 L 377.143201 192.126759 L 376.697242 191.901923 L 376.251283 191.677087 L 375.806523 191.449891 L 375.362027 191.222176 L 374.917531 190.994461 L 374.473034 190.766747 L 374.029761 190.536665 L 373.586746 190.306081 L 373.143731 190.075497 L 372.700717 189.844913 L 372.258713 189.612399 L 371.816916 189.379491 L 371.375119 189.146583 L 370.933322 188.913675 L 370.492473 188.678979 L 370.051809 188.443934 L 369.611146 188.208888 L 369.170482 187.973843 L 368.730877 187.736825 L 368.291469 187.499440 L 367.852062 187.262055 L 367.412654 187.024670 L 366.974588 186.784821 L 366.536759 186.544536 L 366.098931 186.304250 L 365.661102 186.063965 L 365.224643 185.821204 L 364.788413 185.578029 L 364.352183 185.334854 L 363.915953 185.091679 L 363.482187 184.844143 L 363.048807 184.595924 L 362.615427 184.347705 L 362.182047 184.099486 L 361.751502 183.846391 L 361.321372 183.592582 L 360.891243 183.338772 L 360.461113 183.084963 L 360.034019 182.826086 L 359.607339 182.566520 L 359.180659 182.306953 L 358.753978 182.047386 L 358.330688 181.782337 L 357.907827 181.516595 L 357.484965 181.250852 L 357.062104 180.985110 L 356.642769 180.713846 L 356.223847 180.441937 L 355.804924 180.170028 L 355.386001 179.898119 L 354.969362 179.622727 L 354.552968 179.346960 L 354.136575 179.071193 L 353.720182 178.795426 L 353.305840 178.516588 L 352.891703 178.237444 L 352.477567 177.958299 L 352.063430 177.679155 L 351.651071 177.397393 L 351.238876 177.115389 L 350.826681 176.833385 L 350.414486 176.551381 L 350.003512 176.267602 L 349.592642 175.983671 L 349.181772 175.699740 L 348.770903 175.415809 L 348.361269 175.130098 L 347.951733 174.844246 L 347.542197 174.558395 L 347.132661 174.272543 L 346.724660 173.984506 L 346.316770 173.696310 L 345.908881 173.408114 L 345.500991 173.119919 L 345.094699 172.829476 L 344.688513 172.538883 L 344.282328 172.248290 L 343.876142 171.957698 L 343.471826 171.664511 L 343.067623 171.371166 L 342.663420 171.077822 L 342.259218 170.784477 L 341.857309 170.487999 L 341.455527 170.191348 L 341.053744 169.894697 L 340.651962 169.598046 L 340.252505 169.298273 L 339.853164 168.998343 L 339.453824 168.698413 L 339.054483 168.398483 L 338.659802 168.092453 L 338.265331 167.786146 L 337.870861 167.479839 L 337.476390 167.173532 L 337.086921 166.860895 L 336.697657 166.547998 L 336.308393 166.235102 L 335.919129 165.922205 L 335.536153 165.601648 L 335.153403 165.280816 L 334.770652 164.959985 L 334.387902 164.639153 L 334.013198 164.308967 L 333.638752 163.978481 L 333.264305 163.647995 L 332.889859 163.317510 L 332.523701 162.977870 L 332.157780 162.637969 L 331.791859 162.298069 L 331.425938 161.958168 L 331.067791 161.610089 L 330.709836 161.261809 L 330.351881 160.913530 L 329.993925 160.565250 L 329.643908 160.208997 L 329.294054 159.852580 L 328.944200 159.496163 L 328.594346 159.139747 L 328.249692 158.778300 L 327.905109 158.416784 L 327.560526 158.055269 L 327.215943 157.693754 L 326.873373 157.330330 L 326.530818 156.966892 L 326.188264 156.603454 L 325.845709 156.240016" fill="none" stroke="black" stroke-width="1.000000" />
	<path d="M 301.719598 64.946947 L 303.472621 65.825465 L 305.195040 66.762544 L 306.881276 67.763240 L 308.510007 68.854935 L 310.061630 70.053567 L 311.497516 71.388359 L 312.809310 72.845235 L 313.993965 74.407232 L 315.059619 76.052784 L 316.013937 77.765353 L 316.872597 79.527920 L 317.641681 81.331394 L 318.323771 83.169540 L 318.920788 85.037052 L 319.445895 86.926111 L 319.902012 88.833003 L 320.293695 90.754182 L 320.630678 92.685746 L 320.930580 94.623471 L 321.211230 96.564110 L 321.489780 98.505062 L 321.778934 100.444455 L 322.085637 102.381143 L 322.410380 104.314888 L 322.752232 106.245683 L 323.106520 108.174243 L 323.470863 110.100929 L 323.841221 112.026472 L 324.213792 113.951588 L 324.581558 115.877627 L 324.937258 117.805921 L 325.272044 119.737937 L 325.577943 121.674713 L 325.848434 123.616726 L 326.078686 125.563900 L 326.266602 127.515608 L 326.412827 129.470889 L 326.518637 131.428777 L 326.585221 133.388396 L 326.609882 135.348968 L 326.580493 137.309376 L 326.484803 139.267587 L 326.308485 141.220034 L 326.048948 143.163218 L 325.707963 145.093773 L 325.276945 147.006084 L 324.744135 148.892427 L 324.100273 150.743659 L 323.343897 152.551866 L 322.479786 154.311190 L 321.459817 155.983203 L 320.264861 157.534937 L 318.974815 159.011193 L 317.567725 160.374794 L 316.157096 161.736668 L 314.684112 163.027835 L 313.113578 164.170715 L 311.458051 165.187184 L 309.751783 166.152322 L 308.015625 167.056793" fill="none" stroke="black" stroke-width="1.000000" />
	<path d="M 133.061981 60.896191 L 134.778149 61.821890 L 136.504318 62.728800 L 138.234800 63.627455 L 139.984228 64.488603 L 141.751719 65.312030 L 143.529524 66.112981 L 145.325290 66.872718 L 147.123349 67.627128 L 148.926515 68.369235 L 150.722951 69.127467 L 152.516397 69.892778 L 154.291985 70.698441 L 156.045878 71.550280 L 157.790150 72.421848 L 159.509180 73.341861 L 161.222270 74.273244 L 162.937550 75.200585 L 164.653731 76.126259 L 166.377187 77.038274 L 168.107804 77.936649 L 169.839616 78.832739 L 171.569935 79.731708 L 173.298202 80.634613 L 175.000998 81.584009 L 176.689975 82.558432 L 178.313873 83.634243 L 179.872071 84.805845 L 181.348324 86.077334 L 182.683911 87.493454 L 183.947086 88.978883 L 185.158598 90.505854 L 186.333601 92.061976 L 187.357924 93.713288 L 188.220374 95.461662 L 188.999779 97.248244 L 189.684620 99.073231 L 190.310931 100.919778 L 190.884617 102.782848 L 191.412945 104.659819 L 191.912632 106.544335 L 192.374390 108.438780 L 192.821903 110.336599 L 193.248040 112.239358 L 193.650099 114.147280 L 193.998937 116.065308 L 194.293711 117.992805 L 194.549038 119.925328 L 194.736672 121.866188 L 194.907859 123.808486 L 195.047756 125.753357 L 195.174533 127.699140 L 195.294340 129.645361 L 195.406719 131.592030 L 195.517557 133.538784 L 195.622098 135.485890 L 195.724069 137.433113 L 195.808824 139.381180 L 195.883964 141.329569 L 195.916961 143.279145 L 195.912900 145.229022 L 195.868546 147.178055 L 195.729351 149.122990 L 195.564637 151.065784 L 195.396735 153.008315 L 195.206164 154.948880 L 195.009432 156.888831 L 194.807193 158.828218 L 194.594225 160.766434 L 194.379090 162.704426 L 194.156204 164.641556" fill="none" stroke="black" stroke-width="1.000000" />
	<path d="M 194.156204 164.641556 L 193.289453 166.376582 L 192.446693 168.123386 L 191.634551 169.884633 L 190.891802 171.676239 L 190.247638 173.505589 L 189.685403 175.361766 L 189.195128 177.238237 L 188.647135 179.098675 L 187.985205 180.921640 L 187.191606 182.691223 L 186.244970 184.383820 L 185.163976 185.993946 L 184.009666 187.552459 L 182.810386 189.076669 L 181.571643 190.568988 L 180.294726 192.028775 L 179.002233 193.474812 L 177.705281 194.916854 L 176.406146 196.356931 L 175.132552 197.819626 L 173.881603 199.301739 L 172.650632 200.800489 L 171.431619 202.308989 L 170.193410 203.801763 L 168.926074 205.269873 L 167.643993 206.725148 L 166.353919 208.173345 L 165.053182 209.611970 L 163.736496 211.036007 L 162.407531 212.448594 L 161.070060 213.853135 L 159.730774 215.255949 L 158.364574 216.632522 L 156.992962 218.003744 L 155.621312 219.374929 L 154.248664 220.745116 L 152.872713 222.111984 L 151.487325 223.469281 L 150.041238 224.761455 L 148.545336 225.995729 L 147.011029 227.181986 L 145.468741 228.357960 L 143.929624 229.538081 L 142.383514 230.709023 L 140.826626 231.865592 L 139.255371 233.002559 L 137.671994 234.122588 L 136.071891 235.218558 L 134.469418 236.311021 L 132.862773 237.397416 L 131.255834 238.483369 L 129.653643 239.576272 L 128.053528 240.672241" fill="none" stroke="black" stroke-width="1.000000" />
	<path d="M 297.023050 151.965340 L 295.635129 153.205534 L 294.202114 154.393233 L 292.723666 155.523753 L 291.223432 156.625372 L 289.706393 157.703732 L 288.183400 158.773728 L 286.658079 159.840406 L 285.124088 160.894528 L 283.575269 161.926677 L 282.019218 162.948005 L 280.446130 163.942398 L 278.828506 164.860935 L 277.182756 165.730201 L 275.533734 166.592440 L 273.841889 167.365548 L 272.105400 168.035524 L 270.360248 168.682697 L 268.616704 169.334053 L 266.884320 170.013231 L 265.156067 170.703629" fill="none" stroke="black" stroke-width="1.000000" />
	<path d="M 308.015625 167.056793 L 306.122914 167.163086 L 304.229699 167.259986 L 302.335667 167.339321 L 300.440802 167.395330 L 298.545672 167.441537 L 296.650000 167.449791 L 294.754461 167.425779 L 292.859226 167.384162 L 290.964136 167.336315 L 289.068933 167.293229 L 287.173618 167.255346 L 285.278127 167.227657 L 283.382459 167.218305 L 281.487007 167.247966 L 279.594078 167.349680 L 277.710473 167.562671 L 275.845406 167.901420 L 273.999821 168.334111 L 272.165510 168.812544 L 270.334621 169.303966 L 268.503644 169.795061 L 266.671319 170.281104 L 264.836273 170.756770 L 262.994747 171.206677 L 261.141559 171.605778 L 259.277786 171.952105 L 257.408615 172.268075 L 255.538437 172.578053 L 253.669402 172.894853 L 251.803885 173.231721 L 249.938566 173.569677 L 248.074187 173.912804 L 246.210007 174.257019" fill="none" stroke="black" stroke-width="1.000000" />
	<path d="M 246.210007 174.257019 L 244.319105 174.735648 L 242.428701 175.216237 L 240.539301 175.700756 L 238.651112 176.189977 L 236.763655 176.682013 L 234.878619 177.183240 L 232.996195 177.694188 L 231.117382 178.218252 L 229.240740 178.750043 L 227.364875 179.284575 L 225.486501 179.810214 L 223.604702 180.323447 L 221.734479 180.877179 L 219.866537 181.438771 L 217.991513 181.976148 L 216.114851 182.507875 L 214.235522 183.030078 L 212.333960 183.462056 L 210.425547 183.865215 L 208.521417 184.287920 L 206.593596 184.561396 L 204.647972 184.690162 L 202.698684 184.757331 L 200.748571 184.796406 L 198.798176 184.805356 L 196.848554 184.759873 L 194.904009 184.621554 L 192.995971 184.238712 L 191.136814 183.717252 L 189.313694 183.051834 L 187.537399 182.247345" fill="none" stroke="black" stroke-width="1.000000" />
	<path d="M 128.053528 240.672241 L 126.418969 241.733556 L 124.788644 242.801361 L 123.157841 243.868436 L 121.525419 244.933035 L 119.885736 245.986414 L 118.240272 247.030739 L 116.583491 248.057014 L 114.923558 249.078186 L 113.257773 250.089782 L 111.583287 251.086909 L 109.897962 252.065601 L 108.199198 253.020773 L 106.483824 253.945775 L 104.758834 254.852731 L 102.954643 255.588899 L 101.120205 256.246774 L 99.278270 256.883510 L 97.437973 257.524973 L 95.620285 258.227828 L 93.812473 258.955811 L 91.973518 259.600825 L 90.114599 260.185993 L 88.263925 260.796835 L 86.404708 261.381161 L 84.515959 261.860916 L 82.615312 262.291726 L 80.714657 262.722634 L 78.864033 263.332067 L 77.032269 263.997407 L 75.187812 264.626737 L 73.317724 265.174970 L 71.428840 265.654599 L 69.546162 266.158240 L 67.652490 266.618750 L 65.748715 267.035550 L 63.837445 267.416556 L 61.922633 267.779394 L 60.007090 268.138373 L 58.095579 268.518176 L 56.180525 268.879525 L 54.263696 269.229666 L 52.341211 269.547846 L 50.415756 269.848846" fill="none" stroke="black" stroke-width="1.000000" />
	<path d="M 51.142350 260.864340 L 51.285311 262.699150 L 51.704575 264.491007 L 52.548632 266.126022 L 53.577525 267.651860 L 54.657631 269.141937" fill="none" stroke="black" stroke-width="1.000000" />
	<path d="M 23.007994 207.287704 L 23.998219 208.984059 L 24.966731 210.692902 L 25.895289 212.423780 L 26.783117 214.175897 L 27.647590 215.939656 L 28.460146 217.727922 L 29.247144 219.527586 L 30.008571 221.338217 L 30.746159 223.158689 L 31.448806 224.992928 L 32.119836 226.838969 L 32.761855 228.695299 L 33.386948 230.557399 L 33.999668 232.423607 L 34.607269 234.291489 L 35.211429 236.160487 L 35.808256 238.031839 L 36.399615 239.904926 L 36.986871 241.779304 L 37.571062 243.654640 L 38.153237 245.530602 L 38.738434 247.405624 L 39.333747 249.277458 L 39.952163 251.141783 L 40.604970 252.994342 L 41.302927 254.830361 L 42.053333 256.645571 L 42.872857 258.430628 L 43.736315 260.194872 L 44.643831 261.936865 L 45.633210 263.633676 L 46.743486 265.253243 L 47.898513 266.838491 L 49.134757 268.360827 L 50.415756 269.848846" fill="none" stroke="black" stroke-width="1.000000" />
	<path d="M 60.109450 182.764340 L 60.574476 182.581505 L 61.039502 182.398669 L 61.504528 182.215834 L 61.969555 182.032998 L 62.434581 181.850163 L 62.899607 181.667328 L 63.364633 181.484492 L 63.829659 181.301657 L 64.294685 181.118822 L 64.759420 180.935251 L 65.223653 180.750409 L 65.687885 180.565568 L 66.152118 180.380727 L 66.616350 180.195886 L 67.080583 180.011045 L 67.544815 179.826204 L 68.009048 179.641362 L 68.473280 179.456521 L 68.937513 179.271680 L 69.402064 179.087641 L 69.866730 178.903894 L 70.331397 178.720146 L 70.796063 178.536399 L 71.260730 178.352652 L 71.725396 178.168904 L 72.190063 177.985157 L 72.654730 177.801410 L 73.119396 177.617662 L 73.583647 177.432896 L 74.044153 177.238958 L 74.504659 177.045020 L 74.965166 176.851081 L 75.425672 176.657143 L 75.886178 176.463205 L 76.346684 176.269267 L 76.807191 176.075328 L 77.267697 175.881390 L 77.728203 175.687452 L 78.187378 175.490415 L 78.645031 175.289835 L 79.102684 175.089256 L 79.560336 174.888677 L 80.017989 174.688098 L 80.475642 174.487518 L 80.933294 174.286939 L 81.390947 174.086360 L 81.848600 173.885780 L 82.306253 173.685201 L 82.758642 173.473092 L 83.209978 173.258677 L 83.661314 173.044262 L 84.112650 172.829846 L 84.563986 172.615431 L 85.015321 172.401016 L 85.466657 172.186600 L 85.917993 171.972185 L 86.369329 171.757770 L 86.819972 171.541925 L 87.267843 171.320362 L 87.715713 171.098799 L 88.163584 170.877236 L 88.611454 170.655673 L 89.059324 170.434110 L 89.507195 170.212547 L 89.955065 169.990984 L 90.402936 169.769421 L 90.850806 169.547858 L 91.297414 169.323775 L 91.743057 169.097764 L 92.188699 168.871753 L 92.634341 168.645742 L 93.079984 168.419731 L 93.525626 168.193720 L 93.971269 167.967709 L 94.416911 167.741698 L 94.862553 167.515688 L 95.308196 167.289677 L 95.753377 167.062759 L 96.198525 166.835776 L 96.643674 166.608794 L 97.088822 166.381811 L 97.533970 166.154829 L 97.979119 165.927846 L 98.424267 165.700864 L 98.869415 165.473881 L 99.314564 165.246899 L 99.759699 165.019890 L 100.204803 164.792821 L 100.649907 164.565752 L 101.095011 164.338683 L 101.540115 164.111614 L 101.985219 163.884544 L 102.430323 163.657475 L 102.875427 163.430406 L 103.320532 163.203337 L 103.765636 162.976268 L 104.210846 162.749406 L 104.656109 162.522649 L 105.101372 162.295892 L 105.546635 162.069134 L 105.991898 161.842377 L 106.437161 161.615619 L 106.882424 161.388862 L 107.327687 161.162104 L 107.772950 160.935347 L 108.218248 160.708658 L 108.664554 160.483962 L 109.110861 160.259265 L 109.557168 160.034569 L 110.003474 159.809873 L 110.449781 159.585176 L 110.896087 159.360480 L 111.342394 159.135783 L 111.788701 158.911087 L 112.235007 158.686391 L 112.681874 158.462816 L 113.129582 158.240923 L 113.577289 158.019031 L 114.024996 157.797139 L 114.472704 157.575246 L 114.920411 157.353354 L 115.368118 157.131462 L 115.815826 156.909569 L 116.263533 156.687677 L 116.711240 156.465785 L 117.160671 156.247414 L 117.610626 156.030116 L 118.060581 155.812819 L 118.510537 155.595521 L 118.960492 155.378223 L 119.410447 155.160925 L 119.860402 154.943627 L 120.310358 154.726329 L 120.760313 154.509031 L 121.209466 154.290129 L 121.653406 154.060792 L 122.097346 153.831454 L 122.541286 153.602117 L 122.985225 153.372780 L 123.429165 153.143442 L 123.873105 152.914105 L 124.317044 152.684768 L 124.760984 152.455430 L 125.204924 152.226093 L 125.646004 151.991382 L 126.084223 151.751295 L 126.522443 151.511208 L 126.960663 151.271121 L 127.398882 151.031035 L 127.837102 150.790948 L 128.275322 150.550861 L 128.713541 150.310774 L 129.151761 150.070687 L 129.589980 149.830601 L 130.033046 149.599614 L 130.476857 149.370029 L 130.920669 149.140443 L 131.364480 148.910858 L 131.808292 148.681273 L 132.252103 148.451687 L 132.695915 148.222102 L 133.139726 147.992516 L 133.583537 147.762931 L 134.027860 147.534346 L 134.473864 147.309049 L 134.919869 147.083753 L 135.365873 146.858457 L 135.811877 146.633160 L 136.257881 146.407864 L 136.703885 146.182567 L 137.149889 145.957271 L 137.595893 145.731975 L 138.041897 145.506678 L 138.486525 145.278692 L 138.930235 145.048911 L 139.373946 144.819130 L 139.817656 144.589349 L 140.261366 144.359568 L 140.705076 144.129787 L 141.148787 143.900006 L 141.592497 143.670225 L 142.036207 143.440444 L 142.479918 143.210664 L 142.919303 142.972724 L 143.358540 142.734502 L 143.797776 142.496281 L 144.237012 142.258059 L 144.676249 142.019838 L 145.115485 141.781616 L 145.554721 141.543395 L 145.993958 141.305173 L 146.433194 141.066951 L 146.872429 140.828727 L 147.311661 140.590498 L 147.750894 140.352269 L 148.190126 140.114040 L 148.629358 139.875811 L 149.068591 139.637582 L 149.507823 139.399353 L 149.947055 139.161124 L 150.386288 138.922895 L 150.825520 138.684666 L 151.262213 138.441839 L 151.697818 138.197040 L 152.133423 137.952241 L 152.569028 137.707443 L 153.004633 137.462644 L 153.440238 137.217845 L 153.875843 136.973046 L 154.311448 136.728247 L 154.747052 136.483448 L 155.181538 136.236801 L 155.600337 135.964248 L 156.019136 135.691694 L 156.437935 135.419140 L 156.856734 135.146587 L 157.275533 134.874033 L 157.694332 134.601479 L 158.113131 134.328926 L 158.531930 134.056372 L 158.950729 133.783818 L 159.374688 133.519600 L 159.805396 133.266284 L 160.236104 133.012969 L 160.666812 132.759653 L 161.097520 132.506338 L 161.528228 132.253023 L 161.958936 131.999707 L 162.389644 131.746392 L 162.820352 131.493076 L 163.251060 131.239761 L 163.698597 131.018256 L 164.150343 130.804706 L 164.602089 130.591156 L 165.053835 130.377606 L 165.505581 130.164056 L 165.957327 129.950506 L 166.409073 129.736956 L 166.860819 129.523406 L 167.312565 129.309856 L 167.766546 129.101480 L 168.231705 128.918982 L 168.696863 128.736483 L 169.162022 128.553985 L 169.627180 128.371486 L 170.092339 128.188988 L 170.557497 128.006489 L 171.022655 127.823991 L 171.487814 127.641492 L 171.952972 127.458994 L 172.423721 127.292165 L 172.899361 127.139048 L 173.375001 126.985931 L 173.850640 126.832814 L 174.326280 126.679698 L 174.801920 126.526581 L 175.277560 126.373464 L 175.753200 126.220348 L 176.228840 126.067231 L 176.704480 125.914114 L 177.191735 125.804405 L 177.680281 125.699520 L 178.168827 125.594635 L 178.657373 125.489749 L 179.145919 125.384864 L 179.634465 125.279979 L 180.123011 125.175093 L 180.611557 125.070208 L 181.100103 124.965322 L 181.590387 124.870337 L 182.085449 124.802576 L 182.580511 124.734815 L 183.075573 124.667054 L 183.570635 124.599293 L 184.065697 124.531532 L 184.560759 124.463771 L 185.055822 124.396010 L 185.550884 124.328248 L 186.045946 124.260487 L 186.543078 124.212414 L 187.041408 124.175739 L 187.539738 124.139065 L 188.038069 124.102390 L 188.536399 124.065715 L 189.034729 124.029040 L 189.533059 123.992365 L 190.031390 123.955690 L 191.028050 123.882340" fill="none" stroke="black" stroke-width="1.000000" />
</svg>