<?xml version="1.0" encoding="utf-8" ?>
<svg baseProfile="full" height="654" version="1.1" viewBox="0,0,486,654" width="486" xmlns="http://www.w3.org/2000/svg" xmlns:ev="http://www.w3.org/2001/xml-events" xmlns:xlink="http://www.w3.org/1999/xlink"><defs><style type="text/css"><![CDATA[
	.background { fill: white; }
	.line { stroke: firebrick; stroke-width: .1mm; }
	.blacksquare { fill: indigo; }
	.whitesquare { fill: white; }
]]></style></defs><path d="M 472.678000 532.626000 L 471.981000 533.116000 L 471.288000 533.612000 L 470.602000 534.118000 L 469.930000 534.640000 L 469.261000 535.169000 L 468.600000 535.706000 L 467.944000 536.250000 L 467.291000 536.797000 L 466.640000 537.347000 L 465.990000 537.898000 L 465.341000 538.451000 L 464.693000 539.004000 L 464.049000 539.561000 L 463.410000 540.125000 L 462.787000 540.706000 L 462.171000 541.294000 L 461.564000 541.893000 L 460.959000 542.492000 L 460.353000 543.092000 L 459.746000 543.690000 L 459.133000 544.282000 L 458.514000 544.867000 L 457.873000 545.428000 L 457.227000 545.983000 L 456.577000 546.534000 L 455.918000 547.075000 L 455.256000 547.611000 L 454.587000 548.139000 L 453.244000 549.188000" fill="none" stroke="black" stroke-width="1.0" /><path d="M 160.887000 2.695960 L 159.109000 2.587050 L 157.330000 2.477630 L 155.552000 2.367570 L 153.774000 2.256810 L 151.996000 2.145400 L 150.218000 2.032180 L 148.440000 1.918710 L 146.662000 1.804890 L 144.884000 1.690430 L 143.106000 1.574800 L 141.328000 1.458500 L 139.550000 1.341650 L 137.772000 1.226850 L 135.994000 1.114530 L 134.216000 1.002860 L 132.436000 0.919310 L 130.655000 0.879434 L 128.876000 0.929240 L 127.106000 1.110460 L 125.359000 1.460560 L 123.649000 1.959630 L 121.970000 2.553080 L 120.352000 3.289160 L 118.795000 4.154580 L 117.270000 5.076250 L 115.749000 6.003650 L 114.225000 6.927610 L 112.700000 7.848490 L 111.173000 8.766680 L 109.645000 9.682560" fill="none" stroke="black" stroke-width="1.0" /><path d="M 105.965000 4.996460 L 106.741000 4.452510 L 107.518000 3.908650 L 108.295000 3.365830 L 109.073000 2.824630 L 109.858000 2.293840 L 110.656000 1.782100 L 111.483000 1.320400 L 112.336000 0.907374 L 113.219000 0.563797 L 114.126000 0.289588 L 115.053000 0.101512 L 115.996000 0.065863 L 116.943000 0.068104 L 117.891000 0.040743 L 118.838000 0.019422 L 119.786000 0.024184 L 120.722000 0.135763 L 121.614000 0.441155 L 122.500000 0.731115 L 123.445000 0.749609 L 124.389000 0.662468 L 125.332000 0.573351 L 126.276000 0.486366 L 127.221000 0.422133 L 128.169000 0.420111 L 129.116000 0.457516 L 130.060000 0.538781 L 131.004000 0.631900 L 132.887000 0.848960" fill="none" stroke="black" stroke-width="1.0" /><path d="M 181.962000 88.174300 L 179.556000 87.894500 L 177.151000 87.612900 L 174.746000 87.329400 L 172.341000 87.043700 L 169.936000 86.753600 L 167.532000 86.460400 L 165.129000 86.163200 L 162.726000 85.861300 L 160.323000 85.554800 L 157.922000 85.242800 L 155.520000 84.926600 L 153.120000 84.606500 L 150.720000 84.283100 L 148.320000 83.952700 L 145.922000 83.617200 L 143.524000 83.277400 L 141.127000 82.934100 L 138.730000 82.584500 L 136.335000 82.227000 L 133.941000 81.858600 L 131.550000 81.475800 L 129.162000 81.067600 L 126.781000 80.627400 L 124.406000 80.152200 L 122.037000 79.649800 L 119.669000 79.143000 L 117.282000 78.735700 L 114.886000 78.385300 L 112.483000 78.085600 L 110.074000 77.832300" fill="none" stroke="black" stroke-width="1.0" /><path d="M 125.776000 578.688000 L 126.867000 579.792000 L 128.073000 580.767000 L 129.461000 581.444000 L 130.961000 581.789000 L 132.495000 582.027000 L 134.025000 582.288000 L 135.556000 582.539000 L 137.093000 582.751000 L 138.635000 582.928000 L 140.178000 583.090000 L 141.722000 583.244000 L 143.267000 583.391000 L 144.812000 583.535000 L 146.358000 583.672000 L 147.904000 583.806000 L 149.451000 583.938000 L 150.997000 584.067000 L 152.544000 584.195000 L 154.090000 584.323000 L 155.637000 584.450000 L 157.184000 584.577000 L 158.730000 584.703000 L 160.277000 584.829000 L 161.824000 584.955000 L 163.370000 585.081000 L 164.917000 585.206000 L 166.464000 585.332000 L 168.011000 585.459000 L 169.557000 585.585000 L 171.104000 585.712000" fill="none" stroke="black" stroke-width="1.0" /><path d="M 126.154000 585.651000 L 127.649000 585.597000 L 129.145000 585.552000 L 130.641000 585.518000 L 132.138000 585.504000 L 133.634000 585.502000 L 135.130000 585.526000 L 136.626000 585.563000 L 138.122000 585.610000 L 139.617000 585.675000 L 141.111000 585.751000 L 142.605000 585.836000 L 144.099000 585.929000 L 145.592000 586.023000 L 147.086000 586.119000 L 148.579000 586.215000 L 150.072000 586.311000 L 151.566000 586.407000 L 153.059000 586.503000 L 154.552000 586.599000 L 156.046000 586.695000 L 157.539000 586.792000 L 159.032000 586.888000 L 160.526000 586.985000 L 162.019000 587.083000 L 163.512000 587.184000 L 165.004000 587.294000 L 166.496000 587.409000 L 167.988000 587.529000 L 169.479000 587.653000 L 170.970000 587.780000" fill="none" stroke="black" stroke-width="1.0" /><path d="M 160.887000 2.695960 L 165.836000 2.955390 L 170.785000 3.215930 L 175.734000 3.478070 L 180.682000 3.741200 L 185.631000 4.004280 L 190.580000 4.265360 L 195.529000 4.522620 L 200.478000 4.776350 L 205.428000 5.018470 L 210.379000 5.230600 L 215.331000 5.429200 L 220.283000 5.630230 L 225.234000 5.828300 L 230.188000 5.906850 L 235.131000 5.634670 L 240.058000 5.106860 L 245.003000 4.835790 L 249.957000 4.886450 L 254.911000 5.041280 L 259.864000 5.205200 L 264.817000 5.374530 L 269.769000 5.555320 L 274.721000 5.739860 L 279.674000 5.923210 L 284.626000 6.108480 L 289.578000 6.298310 L 294.530000 6.499430 L 299.481000 6.710760 L 304.432000 6.917860 L 309.384000 7.122300 L 314.335000 7.329220 L 319.287000 7.539430 L 324.238000 7.747190 L 329.190000 7.952930 L 334.140000 8.175020 L 339.090000 8.423760 L 344.038000 8.700450 L 348.986000 8.968160 L 353.936000 9.219140 L 358.884000 9.485510 L 363.832000 9.774150 L 368.782000 10.007800 L 373.732000 10.244000 L 378.679000 10.542000 L 383.623000 10.876200" fill="none" stroke="black" stroke-width="1.0" /><path d="M 327.643000 15.663900 L 323.350000 15.317100 L 319.056000 14.973600 L 314.762000 14.636200 L 310.468000 14.296700 L 306.175000 13.953300 L 301.881000 13.619000 L 297.586000 13.284100 L 293.293000 12.943800 L 288.999000 12.606300 L 284.705000 12.268300 L 280.411000 11.925500 L 276.117000 11.584400 L 271.823000 11.246200 L 267.530000 10.904600 L 263.236000 10.558300 L 258.943000 10.211900 L 254.650000 9.867520 L 250.356000 9.524970 L 246.063000 9.180160 L 241.774000 8.779940 L 237.505000 8.217070 L 233.252000 7.537120 L 228.989000 6.922160 L 224.704000 6.497930 L 220.406000 6.208140 L 216.107000 5.951090 L 211.807000 5.691960 L 207.512000 5.377630 L 203.216000 5.062560 L 198.921000 4.735860" fill="none" stroke="black" stroke-width="1.0" /><path d="M 383.623000 10.876200 L 386.728000 10.986200 L 389.832000 11.134100 L 392.933000 11.334100 L 396.031000 11.571700 L 399.128000 11.829400 L 402.224000 12.095800 L 405.319000 12.364200 L 408.415000 12.635100 L 411.510000 12.909700 L 414.605000 13.186100 L 417.700000 13.465000 L 420.794000 13.754900 L 423.886000 14.063600 L 426.976000 14.385300 L 430.066000 14.717400 L 433.154000 15.062400 L 436.240000 15.419700 L 439.325000 15.791900 L 442.408000 16.182800 L 445.489000 16.588600 L 448.568000 17.008100 L 451.644000 17.448500 L 454.717000 17.909000 L 457.782000 18.418400 L 460.828000 19.031700 L 463.873000 19.646500 L 466.936000 20.169800 L 470.009000 20.630200 L 473.087000 21.053700 L 476.170000 21.445200" fill="none" stroke="black" stroke-width="1.0" /><path d="M 327.643000 15.663900 L 332.591000 16.019200 L 337.539000 16.374000 L 342.487000 16.729900 L 347.436000 17.076900 L 352.385000 17.423800 L 357.334000 17.762200 L 362.285000 18.083500 L 367.235000 18.402100 L 372.186000 18.722700 L 377.137000 19.035200 L 382.088000 19.346000 L 387.039000 19.660400 L 391.991000 19.950000 L 396.945000 20.217200 L 401.899000 20.481300 L 406.853000 20.742200 L 411.808000 20.985100 L 416.764000 21.198500 L 421.721000 21.396100 L 426.679000 21.578700 L 431.636000 21.757100 L 436.595000 21.922900 L 441.554000 22.060400 L 446.513000 22.172200 L 451.473000 22.274500 L 456.432000 22.395300 L 461.390000 22.564000 L 466.347000 22.761400 L 471.304000 22.977600 L 476.259000 23.208700" fill="none" stroke="black" stroke-width="1.0" /><path d="M 105.965000 4.996460 L 104.587000 6.048180 L 103.215000 7.107640 L 101.852000 8.177750 L 100.502000 9.265120 L 99.161500 10.363900 L 97.840100 11.485800 L 96.518100 12.606800 L 95.194400 13.725800 L 93.859900 14.832100 L 92.504500 15.912000 L 91.130200 16.968400 L 89.731000 17.991400 L 88.323900 19.003500 L 86.905700 20.000100 L 85.476700 20.981200 L 84.043800 21.956500 L 82.606600 22.925400 L 81.168200 23.892600 L 79.729100 24.858800 L 78.289700 25.824600 L 76.850200 26.790200 L 75.410700 27.755800 L 73.970500 28.720300 L 72.529500 29.683700 L 71.087400 30.645300 L 69.643600 31.604600 L 68.198700 32.562100 L 66.750600 33.514700 L 65.301100 34.465200 L 63.850600 35.414200" fill="none" stroke="black" stroke-width="1.0" /><path d="M 109.645000 9.682560 L 108.652000 10.160200 L 107.665000 10.651300 L 106.687000 11.160500 L 105.713000 11.676300 L 104.741000 12.196600 L 103.768000 12.716400 L 102.796000 13.235900 L 101.824000 13.755500 L 100.852000 14.275000 L 99.843800 14.721700 L 98.769800 14.970300 L 97.677900 15.122000 L 96.627900 15.457600 L 95.626900 15.919300 L 94.653800 16.437400 L 93.681600 16.957100 L 92.718900 17.494300 L 91.757000 18.032900 L 90.799500 18.579100 L 89.841700 19.124900 L 88.881100 19.665700 L 87.923800 20.212400 L 86.973300 20.770900 L 86.026300 21.335100 L 85.078500 21.898100 L 84.128900 22.458000 L 83.183300 23.024800 L 82.212200 23.546400 L 81.229500 24.046000 L 80.241500 24.535200" fill="none" stroke="black" stroke-width="1.0" /><path d="M 181.962000 88.174300 L 186.652000 88.718100 L 191.346000 89.225200 L 196.044000 89.692600 L 200.748000 90.089400 L 205.456000 90.451000 L 210.166000 90.771800 L 214.878000 91.070300 L 219.590000 91.363000 L 224.303000 91.638600 L 229.019000 91.865900 L 233.737000 92.024300 L 238.457000 92.124600 L 243.178000 92.190700 L 247.899000 92.222600 L 252.620000 92.217600 L 257.341000 92.181500 L 262.062000 92.102800 L 266.782000 91.987400 L 271.500000 91.815300 L 276.215000 91.579100 L 280.927000 91.293000 L 285.636000 90.956900 L 290.339000 90.540100 L 295.033000 90.036100 L 299.719000 89.461200 L 304.392000 88.787400 L 309.036000 87.942400 L 313.624000 86.829300 L 318.197000 85.656000 L 322.808000 84.641700 L 327.437000 83.715500" fill="none" stroke="black" stroke-width="1.0" /><path d="M 177.732000 80.089900 L 182.651000 80.291700 L 187.570000 80.504500 L 192.488000 80.722800 L 197.405000 80.973000 L 202.322000 81.208800 L 207.242000 81.385300 L 212.163000 81.540600 L 217.084000 81.692600 L 222.005000 81.830600 L 226.927000 81.956100 L 231.848000 82.102700 L 236.770000 82.227700 L 241.691000 82.366900 L 246.612000 82.502000 L 251.534000 82.626400 L 256.456000 82.725000 L 261.378000 82.815200 L 266.301000 82.908800 L 271.223000 83.013300 L 276.141000 83.223300 L 281.057000 83.474600 L 285.978000 83.616700 L 290.901000 83.686500 L 295.823000 83.756200 L 300.746000 83.825800 L 305.669000 83.895500 L 310.592000 83.961900 L 315.514000 83.962600 L 320.436000 83.847400 L 325.356000 83.680800 L 330.268000 83.359000 L 335.174000 82.951000 L 340.082000 82.554300 L 344.994000 82.227300 L 349.913000 82.040500 L 354.833000 81.873200 L 359.741000 81.562900 L 364.537000 80.497600 L 369.045000 78.518800 L 373.465000 76.350700 L 377.878000 74.168900 L 382.264000 71.931900" fill="none" stroke="black" stroke-width="1.0" /><path d="M 177.732000 80.089900 L 172.789000 79.812100 L 167.845000 79.545300 L 162.900000 79.295000 L 157.955000 79.048600 L 153.011000 78.774300 L 148.069000 78.480600 L 143.127000 78.183200 L 138.184000 77.900400 L 133.237000 77.734200 L 128.286000 77.795700 L 123.337000 77.870500 L 118.387000 77.772200 L 113.437000 77.644900 L 108.492000 77.430100 L 103.560000 77.008500 L 98.635500 76.492100 L 93.711800 75.971300 L 88.788600 75.446500 L 83.866000 74.915600 L 78.943900 74.379600 L 74.022700 73.836000 L 69.102400 73.284600 L 64.183100 72.724000 L 59.264700 72.155200 L 54.346800 71.582600 L 49.428900 71.009800 L 44.510200 70.443500 L 39.587600 69.913600 L 34.661500 69.415700 L 29.727300 69.007800 L 24.783200 68.745800 L 19.834600 68.586800" fill="none" stroke="black" stroke-width="1.0" /><path d="M 476.576000 26.268900 L 475.483000 26.623900 L 474.396000 26.996300 L 473.319000 27.395700 L 472.243000 27.798900 L 471.163000 28.190700 L 470.078000 28.570900 L 468.978000 28.898300 L 467.851000 29.116400 L 466.716000 29.293000 L 465.585000 29.494300 L 464.465000 29.751200 L 463.361000 30.069900 L 462.286000 30.473300 L 461.231000 30.928400 L 460.180000 31.391500 L 459.126000 31.848900 L 458.069000 32.300400 L 457.012000 32.752300 L 455.958000 33.208400 L 454.904000 33.667300 L 453.854000 34.132800 L 452.812000 34.616300 L 451.777000 35.115900 L 450.746000 35.623700 L 449.718000 36.136600 L 448.691000 36.652400 L 447.665000 37.169300 L 446.639000 37.687100 L 445.614000 38.206100 L 444.589000 38.725700" fill="none" stroke="black" stroke-width="1.0" /><path d="M 444.589000 38.725700 L 442.550000 39.904000 L 440.512000 41.085300 L 438.477000 42.270200 L 436.444000 43.459100 L 434.413000 44.652500 L 432.383000 45.846200 L 430.353000 47.040100 L 428.322000 48.233400 L 426.290000 49.424300 L 424.256000 50.611000 L 422.215000 51.787500 L 420.164000 52.943500 L 418.092000 54.063100 L 416.000000 55.145900 L 413.904000 56.220700 L 411.807000 57.291700 L 409.709000 58.361900 L 407.611000 59.432000 L 405.512000 60.502000 L 403.414000 61.572100 L 401.316000 62.641500 L 399.215000 63.706100 L 397.107000 64.755500 L 394.993000 65.794400 L 392.876000 66.826400 L 390.758000 67.857300 L 388.638000 68.882400 L 386.515000 69.902800 L 384.390000 70.919000 L 382.264000 71.931900" fill="none" stroke="black" stroke-width="1.0" /><path d="M 450.281000 41.724500 L 449.075000 42.381400 L 447.850000 43.001400 L 446.615000 43.602000 L 445.376000 44.193900 L 444.121000 44.749600 L 442.868000 45.311800 L 441.616000 45.875200 L 440.364000 46.438700 L 439.112000 47.002200 L 437.862000 47.570400 L 436.614000 48.143500 L 435.365000 48.715100 L 434.116000 49.284600 L 432.865000 49.850100 L 431.609000 50.406200 L 430.287000 50.773900 L 428.915000 50.843600 L 427.547000 50.949200 L 426.223000 51.313200 L 424.949000 51.825800 L 423.693000 52.381100 L 422.437000 52.936500 L 421.182000 53.491800 L 419.926000 54.047200 L 418.667000 54.596000 L 417.397000 55.118600 L 416.127000 55.639600 L 414.847000 56.135700 L 413.560000 56.613800 L 412.269000 57.082700" fill="none" stroke="black" stroke-width="1.0" /><path d="M 450.281000 41.724500 L 451.163000 41.254100 L 452.045000 40.783700 L 452.927000 40.313700 L 453.810000 39.843800 L 454.692000 39.374600 L 455.575000 38.905400 L 456.458000 38.436800 L 457.341000 37.968100 L 458.224000 37.499400 L 459.107000 37.030800 L 459.989000 36.562200 L 460.872000 36.093600 L 461.755000 35.625000 L 462.638000 35.156300 L 463.521000 34.687700 L 464.404000 34.219100 L 465.287000 33.749700 L 466.169000 33.280300 L 467.052000 32.810400 L 467.934000 32.340500 L 468.816000 31.871400 L 469.699000 31.402300 L 470.585000 30.939100 L 471.471000 30.476000 L 472.363000 30.025800 L 473.256000 29.575700 L 474.155000 29.138100 L 475.053000 28.700500 L 476.860000 27.844700" fill="none" stroke="black" stroke-width="1.0" /><path d="M 20.189200 64.633200 L 21.785500 63.907300 L 23.360000 63.137600 L 24.907900 62.313600 L 26.381900 61.365300 L 27.826600 60.372800 L 29.228200 59.319100 L 30.628600 58.263700 L 32.025100 57.203400 L 33.403200 56.119200 L 34.807600 55.069900 L 36.231800 54.046900 L 37.675200 53.051200 L 39.122000 52.060600 L 40.573600 51.076800 L 42.027600 50.096700 L 43.482200 49.117400 L 44.936700 48.138100 L 46.391300 47.158800 L 47.845800 46.179500 L 49.300400 45.200200 L 50.755000 44.221000 L 52.209500 43.241700 L 53.664300 42.262700 L 55.119200 41.283900 L 56.574300 40.305400 L 58.029500 39.327000 L 59.484600 38.348600 L 60.939900 37.370400 L 62.395300 36.392300 L 63.850600 35.414200" fill="none" stroke="black" stroke-width="1.0" /><path d="M 20.386200 61.293000 L 21.370500 60.714200 L 22.358000 60.141200 L 23.349400 59.574900 L 24.345100 59.016300 L 25.345800 58.466400 L 26.347500 57.918400 L 27.349500 57.371100 L 28.351600 56.824000 L 29.353700 56.276800 L 30.355800 55.729700 L 31.362900 55.191800 L 32.375100 54.663500 L 33.390900 54.142200 L 34.397800 53.603900 L 35.398400 53.054100 L 36.395700 52.498200 L 37.392600 51.941500 L 38.389900 51.385700 L 39.391900 50.838400 L 40.398100 50.298800 L 41.405200 49.761000 L 42.396500 49.194400 L 43.370300 48.598600 L 44.340300 47.996400 L 45.309400 47.392700 L 46.275100 46.783500 L 47.261000 46.207700 L 48.254900 45.645900 L 49.254200 45.093700 L 50.256900 44.547700" fill="none" stroke="black" stroke-width="1.0" /><path d="M 0.337030 643.249000 L 0.153050 638.263000 L 0.039543 633.275000 L 0.020291 628.286000 L 0.067059 623.297000 L 0.124594 618.309000 L 0.201096 613.320000 L 0.321406 608.332000 L 0.421937 603.344000 L 0.563977 598.357000 L 0.705717 593.370000 L 0.843427 588.383000 L 0.991552 583.396000 L 1.142160 578.409000 L 1.294670 573.422000 L 1.455560 568.436000 L 1.633810 563.450000 L 1.787780 558.463000 L 1.910100 553.475000 L 2.017100 548.487000 L 2.121360 543.499000 L 2.225350 538.511000 L 2.328360 533.523000 L 2.430170 528.535000 L 2.531070 523.547000 L 2.630930 518.559000 L 2.730360 513.571000 L 2.829670 508.583000 L 2.928960 503.594000 L 3.028350 498.606000 L 3.127470 493.618000 L 3.225920 488.630000 L 3.324050 483.642000 L 3.421250 478.654000 L 3.516420 473.665000 L 3.609680 468.677000 L 3.699180 463.689000 L 3.782050 458.700000 L 3.856830 453.712000 L 3.922390 448.723000 L 3.980160 443.734000 L 4.034290 438.745000 L 4.085000 433.757000 L 4.127420 428.768000 L 4.157540 423.779000 L 4.174620 418.790000 L 4.177340 413.800000 L 4.109400 408.812000 L 3.869480 403.830000 L 3.572960 398.849000 L 3.454650 393.863000 L 3.447270 388.874000 L 3.473870 383.885000 L 3.525420 378.896000 L 3.594700 373.907000 L 3.696830 368.919000 L 3.820590 363.932000 L 3.943200 358.944000 L 4.088180 353.957000 L 4.240730 348.970000 L 4.393710 343.984000 L 4.549640 338.997000 L 4.717020 334.010000 L 4.902210 329.025000 L 5.078040 324.039000 L 5.241830 319.052000 L 5.401240 314.066000 L 5.550120 309.079000 L 5.684790 304.092000 L 5.869570 299.106000 L 6.073410 294.121000 L 6.280200 289.136000 L 6.469670 284.150000 L 6.641920 279.164000 L 6.804630 274.178000" fill="none" stroke="black" stroke-width="1.0" /><path d="M 11.501500 295.442000 L 11.323900 300.412000 L 11.130100 305.381000 L 10.927800 310.350000 L 10.725000 315.319000 L 10.525500 320.287000 L 10.342100 325.257000 L 10.159500 330.227000 L 9.975690 335.196000 L 9.782700 340.165000 L 9.570660 345.134000 L 9.372140 350.103000 L 9.182300 355.072000 L 8.992110 360.042000 L 8.789830 365.010000 L 8.571080 369.979000 L 8.365370 374.947000 L 8.152740 379.916000 L 7.936290 384.884000 L 7.715240 389.852000 L 7.466480 394.819000 L 7.137650 399.780000 L 6.694100 404.733000 L 6.193620 409.681000 L 5.718700 414.631000 L 5.349230 419.590000 L 5.125070 424.557000 L 4.984940 429.528000 L 4.868180 434.500000 L 4.755580 439.472000 L 4.645020 444.443000 L 4.537560 449.415000 L 4.432970 454.387000 L 4.329920 459.359000 L 4.227340 464.331000 L 4.124960 469.303000 L 4.022730 474.275000 L 3.920680 479.247000 L 3.818810 484.218000 L 3.717040 489.190000 L 3.615620 494.162000 L 3.514780 499.134000 L 3.414650 504.106000 L 3.315660 509.078000 L 3.217630 514.050000 L 3.120150 519.022000 L 3.022040 523.994000 L 2.920650 528.966000 L 2.813620 533.938000 L 2.700730 538.910000 L 2.585340 543.881000 L 2.469630 548.853000 L 2.350600 553.824000 L 2.216700 558.796000 L 2.061500 563.766000 L 1.889080 568.736000 L 1.727950 573.706000 L 1.576670 578.677000 L 1.427320 583.648000 L 1.279540 588.619000 L 1.138420 593.589000 L 0.994801 598.560000 L 0.857537 603.531000 L 0.764264 608.504000 L 0.660046 613.475000 L 0.589041 618.448000 L 0.532058 623.420000 L 0.485281 628.393000 L 0.507370 633.366000 L 0.626748 638.338000 L 0.818350 643.307000" fill="none" stroke="black" stroke-width="1.0" /><path d="M 20.386200 61.293000 L 19.970300 66.238100 L 19.585300 71.185700 L 19.238400 76.136100 L 18.937000 81.089500 L 18.648600 86.043700 L 18.369300 90.998400 L 18.098100 95.953600 L 17.829600 100.909000 L 17.561800 105.864000 L 17.296200 110.820000 L 17.032200 115.775000 L 16.771500 120.731000 L 16.513700 125.687000 L 16.257100 130.643000 L 16.000800 135.599000 L 15.744800 140.555000 L 15.488800 145.511000 L 15.230900 150.467000 L 14.969000 155.422000 L 14.702300 160.378000 L 14.430100 165.333000 L 14.153100 170.288000 L 13.826400 175.239000 L 13.350000 180.178000 L 12.682500 185.094000 L 11.899900 189.995000 L 11.192100 194.906000 L 10.701600 199.843000 L 10.366300 204.794000 L 10.073700 209.748000 L 9.786550 214.702000 L 9.504990 219.657000 L 9.235520 224.612000 L 8.970600 229.567000 L 8.705660 234.523000 L 8.448380 239.479000 L 8.208840 244.436000 L 7.975260 249.393000 L 7.738130 254.350000 L 7.481850 259.306000 L 7.244670 264.262000 L 7.019090 269.220000 L 6.804630 274.178000" fill="none" stroke="black" stroke-width="1.0" /><path d="M 11.501500 295.442000 L 11.674500 290.547000 L 11.856600 285.652000 L 12.047900 280.758000 L 12.256800 275.865000 L 12.466500 270.971000 L 12.668300 266.077000 L 12.882600 261.184000 L 13.087200 256.290000 L 13.258900 251.395000 L 13.413800 246.500000 L 13.588400 241.605000 L 13.789800 236.711000 L 13.977900 231.816000 L 14.122600 226.921000 L 14.258700 222.025000 L 14.422200 217.129000 L 14.611100 212.235000 L 14.781100 207.340000 L 14.842700 202.442000 L 14.774800 197.545000 L 14.625700 192.649000 L 14.417500 187.755000 L 14.322400 182.858000 L 14.449500 177.962000 L 14.628700 173.067000 L 14.830000 168.173000 L 15.028400 163.279000 L 15.198600 158.384000 L 15.331000 153.488000 L 15.452800 148.592000 L 15.559700 143.695000" fill="none" stroke="black" stroke-width="1.0" /><path d="M 34.816100 244.919000 L 35.212200 240.043000 L 35.581300 235.165000 L 35.909600 230.284000 L 36.210400 225.401000 L 36.506100 220.518000 L 36.795200 215.634000 L 37.069500 210.750000 L 37.337600 205.865000 L 37.616200 200.981000 L 37.905300 196.097000 L 38.190500 191.213000 L 38.474600 186.329000 L 38.772800 181.446000 L 39.066400 176.563000 L 39.351600 171.679000 L 39.640700 166.796000 L 39.938100 161.913000 L 40.233600 157.030000 L 40.525700 152.146000 L 40.895800 147.269000 L 42.421900 142.832000 L 45.561000 139.083000 L 49.063000 135.708000 L 53.149500 133.018000 L 57.264800 130.374000 L 61.500200 127.930000 L 66.243800 126.734000 L 71.099500 127.200000 L 75.894100 128.159000 L 80.728100 128.896000 L 85.599700 129.316000 L 90.481500 129.633000 L 95.363900 129.941000 L 100.247000 130.238000 L 105.130000 130.528000 L 110.014000 130.820000 L 114.890000 131.192000 L 119.727000 131.909000 L 124.489000 133.025000 L 129.176000 134.427000" fill="none" stroke="black" stroke-width="1.0" /><path d="M 41.526100 142.549000 L 44.539500 142.653000 L 47.552200 142.775000 L 50.563800 142.922000 L 53.574500 143.087000 L 56.585100 143.254000 L 59.595300 143.426000 L 62.605300 143.604000 L 65.617200 143.745000 L 68.629800 143.870000 L 71.642500 143.990000 L 74.655300 144.111000 L 77.668100 144.232000 L 80.681000 144.348000 L 83.695000 144.434000 L 86.709400 144.504000 L 89.723800 144.570000 L 92.738300 144.635000 L 95.753200 144.676000 L 98.768100 144.717000 L 101.783000 144.757000 L 104.798000 144.785000 L 107.813000 144.747000 L 110.816000 144.472000 L 113.741000 143.741000 L 116.546000 142.636000 L 119.117000 141.060000 L 121.690000 139.489000 L 124.284000 137.951000 L 126.759000 136.229000 L 129.176000 134.427000" fill="none" stroke="black" stroke-width="1.0" /><path d="M 172.862000 133.481000 L 175.103000 133.453000 L 177.344000 133.461000 L 179.585000 133.520000 L 181.824000 133.622000 L 184.062000 133.737000 L 186.300000 133.852000 L 188.539000 133.966000 L 190.777000 134.078000 L 193.016000 134.190000 L 195.254000 134.300000 L 197.493000 134.405000 L 199.732000 134.506000 L 201.971000 134.600000 L 204.211000 134.687000 L 206.451000 134.764000 L 208.691000 134.831000 L 210.932000 134.893000 L 213.172000 134.955000 L 215.413000 135.015000 L 217.653000 135.071000 L 219.894000 135.125000 L 222.134000 135.179000 L 224.375000 135.227000 L 226.616000 135.270000 L 228.857000 135.306000 L 231.098000 135.335000 L 233.339000 135.367000 L 235.580000 135.417000 L 237.820000 135.484000 L 240.060000 135.565000" fill="none" stroke="black" stroke-width="1.0" /><path d="M 171.405000 151.093000 L 173.202000 151.259000 L 175.000000 151.419000 L 176.798000 151.572000 L 178.597000 151.720000 L 180.396000 151.862000 L 182.197000 151.979000 L 183.998000 152.083000 L 185.801000 152.162000 L 187.605000 152.096000 L 189.407000 152.003000 L 191.210000 151.927000 L 193.014000 151.851000 L 194.817000 151.775000 L 196.616000 151.639000 L 198.414000 151.486000 L 200.218000 151.421000 L 202.022000 151.357000 L 203.825000 151.295000 L 205.629000 151.237000 L 207.433000 151.180000 L 209.237000 151.123000 L 211.041000 151.069000 L 212.845000 151.014000 L 214.647000 150.918000 L 216.449000 150.823000 L 218.247000 150.664000 L 219.994000 150.213000 L 221.681000 149.573000 L 223.212000 148.617000 L 224.535000 147.390000" fill="none" stroke="black" stroke-width="1.0" /><path d="M 219.703000 157.817000 L 218.531000 157.698000 L 217.358000 157.578000 L 216.187000 157.452000 L 215.015000 157.324000 L 213.845000 157.189000 L 212.675000 157.050000 L 211.505000 156.905000 L 210.336000 156.759000 L 209.167000 156.611000 L 207.998000 156.460000 L 206.830000 156.305000 L 205.662000 156.146000 L 204.495000 155.986000 L 203.329000 155.816000 L 202.163000 155.645000 L 200.999000 155.463000 L 199.835000 155.279000 L 198.672000 155.086000 L 197.510000 154.890000 L 196.350000 154.684000 L 195.190000 154.474000 L 194.032000 154.257000 L 192.874000 154.041000 L 191.715000 153.825000 L 190.557000 153.607000 L 189.399000 153.388000 L 188.242000 153.166000 L 187.085000 152.942000 L 185.928000 152.716000 L 184.772000 152.490000" fill="none" stroke="black" stroke-width="1.0" /><path d="M 224.535000 147.390000 L 225.000000 146.996000 L 225.465000 146.602000 L 225.931000 146.208000 L 226.396000 145.814000 L 226.862000 145.421000 L 227.328000 145.028000 L 227.795000 144.636000 L 228.263000 144.245000 L 228.731000 143.854000 L 229.199000 143.464000 L 229.668000 143.075000 L 230.138000 142.686000 L 230.609000 142.299000 L 231.081000 141.913000 L 231.556000 141.531000 L 232.032000 141.150000 L 232.511000 140.773000 L 232.990000 140.396000 L 233.472000 140.023000 L 233.965000 139.665000 L 234.467000 139.319000 L 235.016000 139.056000 L 235.578000 138.825000 L 236.183000 138.755000 L 236.790000 138.702000 L 237.400000 138.686000 L 238.009000 138.675000 L 238.619000 138.668000 L 239.838000 138.670000" fill="none" stroke="black" stroke-width="1.0" /><path d="M 129.176000 134.427000 L 129.567000 134.316000 L 129.958000 134.206000 L 130.349000 134.094000 L 130.740000 133.983000 L 131.131000 133.871000 L 131.522000 133.760000 L 131.913000 133.648000 L 132.303000 133.531000 L 132.690000 133.408000 L 133.075000 133.279000 L 133.459000 133.144000 L 133.838000 132.998000 L 134.215000 132.846000 L 134.590000 132.687000 L 134.963000 132.527000 L 135.336000 132.365000 L 135.709000 132.202000 L 136.082000 132.042000 L 136.456000 131.882000 L 136.831000 131.725000 L 137.206000 131.567000 L 137.580000 131.409000 L 137.960000 131.266000 L 138.348000 131.144000 L 138.744000 131.052000 L 139.142000 130.969000 L 139.542000 130.899000 L 139.944000 130.837000 L 140.747000 130.711000" fill="none" stroke="black" stroke-width="1.0" /><path d="M 103.304000 249.100000 L 103.582000 245.615000 L 103.836000 242.129000 L 104.055000 238.640000 L 104.257000 235.150000 L 104.452000 231.660000 L 104.642000 228.169000 L 104.826000 224.678000 L 105.009000 221.187000 L 105.191000 217.696000 L 105.371000 214.205000 L 105.549000 210.714000 L 105.727000 207.223000 L 105.902000 203.731000 L 106.073000 200.240000 L 106.244000 196.748000 L 106.424000 193.257000 L 106.621000 189.767000 L 106.840000 186.278000 L 107.111000 182.793000 L 107.488000 179.318000 L 108.002000 175.861000 L 108.566000 172.411000 L 109.044000 168.949000 L 109.393000 165.471000 L 109.705000 161.989000 L 110.012000 158.507000 L 110.301000 155.023000 L 110.562000 151.537000 L 110.803000 148.049000 L 111.027000 144.561000" fill="none" stroke="black" stroke-width="1.0" /><path d="M 105.251000 156.547000 L 105.681000 159.608000 L 106.007000 162.682000 L 106.185000 165.767000 L 106.237000 168.858000 L 106.227000 171.949000 L 106.209000 175.041000 L 106.189000 178.132000 L 106.162000 181.223000 L 106.098000 184.314000 L 106.009000 187.404000 L 105.904000 190.494000 L 105.790000 193.584000 L 105.671000 196.673000 L 105.546000 199.762000 L 105.410000 202.850000 L 105.263000 205.938000 L 105.114000 209.026000 L 104.964000 212.114000 L 104.813000 215.202000 L 104.661000 218.289000 L 104.506000 221.377000 L 104.350000 224.465000 L 104.194000 227.552000 L 104.036000 230.640000 L 103.868000 233.726000 L 103.688000 236.813000 L 103.489000 239.898000 L 103.259000 242.981000 L 102.991000 246.060000 L 102.697000 249.138000" fill="none" stroke="black" stroke-width="1.0" /><path d="M 126.309000 247.547000 L 126.502000 243.755000 L 126.623000 239.961000 L 126.597000 236.165000 L 126.602000 232.368000 L 126.680000 228.573000 L 126.793000 224.778000 L 126.919000 220.983000 L 127.048000 217.189000 L 127.176000 213.395000 L 127.304000 209.601000 L 127.429000 205.806000 L 127.557000 202.012000 L 127.707000 198.219000 L 127.877000 194.426000 L 128.040000 190.633000 L 128.210000 186.840000 L 128.386000 183.048000 L 128.583000 179.257000 L 128.803000 175.467000 L 129.031000 171.677000 L 129.267000 167.888000 L 129.513000 164.100000 L 129.792000 160.314000 L 130.104000 156.530000 L 130.437000 152.748000 L 130.775000 148.967000 L 131.107000 145.185000 L 131.418000 141.401000 L 131.677000 137.614000 L 131.828000 133.821000" fill="none" stroke="black" stroke-width="1.0" /><path d="M 172.862000 133.481000 L 172.261000 133.768000 L 171.662000 134.058000 L 171.065000 134.354000 L 170.471000 134.654000 L 169.878000 134.957000 L 169.290000 135.268000 L 168.706000 135.588000 L 168.131000 135.924000 L 167.564000 136.273000 L 167.000000 136.627000 L 166.455000 137.010000 L 165.916000 137.400000 L 165.388000 137.806000 L 164.867000 138.220000 L 164.348000 138.637000 L 163.833000 139.059000 L 163.319000 139.482000 L 162.805000 139.906000 L 162.295000 140.333000 L 161.785000 140.762000 L 161.277000 141.192000 L 160.768000 141.622000 L 160.260000 142.052000 L 159.752000 142.482000 L 159.243000 142.912000 L 158.749000 143.358000 L 158.259000 143.809000 L 157.776000 144.267000 L 157.299000 144.731000 L 156.824000 145.198000" fill="none" stroke="black" stroke-width="1.0" /><path d="M 156.588000 147.268000 L 156.333000 150.660000 L 156.105000 154.053000 L 155.911000 157.449000 L 155.756000 160.846000 L 155.631000 164.245000 L 155.507000 167.644000 L 155.382000 171.043000 L 155.255000 174.442000 L 155.121000 177.840000 L 154.972000 181.238000 L 154.809000 184.635000 L 154.631000 188.032000 L 154.440000 191.428000 L 154.239000 194.823000 L 154.034000 198.218000 L 153.826000 201.613000 L 153.617000 205.008000 L 153.407000 208.402000 L 153.195000 211.797000 L 152.984000 215.191000 L 152.774000 218.586000 L 152.567000 221.981000 L 152.370000 225.376000 L 152.190000 228.773000 L 152.028000 232.170000 L 151.888000 235.568000 L 151.755000 238.967000 L 151.622000 242.366000 L 151.490000 245.764000 L 151.359000 249.163000" fill="none" stroke="black" stroke-width="1.0" /><path d="M 171.405000 151.093000 L 170.853000 151.011000 L 170.300000 150.928000 L 169.748000 150.846000 L 169.196000 150.764000 L 168.643000 150.681000 L 168.091000 150.599000 L 167.539000 150.516000 L 166.986000 150.434000 L 166.434000 150.352000 L 165.882000 150.269000 L 165.330000 150.182000 L 164.779000 150.094000 L 164.228000 150.005000 L 163.677000 149.912000 L 163.127000 149.816000 L 162.577000 149.718000 L 162.028000 149.615000 L 161.484000 149.492000 L 160.952000 149.328000 L 160.430000 149.128000 L 159.917000 148.908000 L 159.404000 148.688000 L 158.888000 148.472000 L 158.397000 148.213000 L 157.938000 147.897000 L 157.628000 147.433000 L 157.348000 146.953000 L 157.142000 146.434000 L 156.936000 145.915000 L 156.730000 145.396000" fill="none" stroke="black" stroke-width="1.0" /><path d="M 319.179000 158.035000 L 318.849000 160.703000 L 318.524000 163.371000 L 318.205000 166.040000 L 317.892000 168.710000 L 317.622000 171.385000 L 317.416000 174.065000 L 317.249000 176.749000 L 317.104000 179.433000 L 316.960000 182.117000 L 316.841000 184.803000 L 316.743000 187.489000 L 316.667000 190.176000 L 316.619000 192.864000 L 316.580000 195.552000 L 316.540000 198.240000 L 316.482000 200.928000 L 316.402000 203.615000 L 316.308000 206.301000 L 316.209000 208.988000 L 316.110000 211.674000 L 316.001000 214.360000 L 315.876000 217.046000 L 315.699000 219.728000 L 315.468000 222.406000 L 315.180000 225.079000 L 314.886000 227.751000 L 314.515000 230.414000 L 313.714000 232.978000 L 312.450000 235.348000 L 310.863000 237.517000" fill="none" stroke="black" stroke-width="1.0" /><path d="M 316.077000 248.373000 L 315.999000 245.356000 L 315.960000 242.339000 L 315.974000 239.321000 L 316.031000 236.304000 L 316.117000 233.287000 L 316.222000 230.271000 L 316.343000 227.256000 L 316.484000 224.242000 L 316.634000 221.228000 L 316.778000 218.213000 L 316.908000 215.198000 L 317.022000 212.183000 L 317.131000 209.167000 L 317.239000 206.151000 L 317.340000 203.135000 L 317.424000 200.119000 L 317.485000 197.102000 L 317.530000 194.084000 L 317.576000 191.067000 L 317.650000 188.050000 L 317.753000 185.034000 L 317.887000 182.019000 L 318.041000 179.006000 L 318.211000 175.993000 L 318.410000 172.981000 L 318.664000 169.975000 L 318.971000 166.973000 L 319.318000 163.975000 L 319.717000 160.984000 L 320.155000 157.998000" fill="none" stroke="black" stroke-width="1.0" /><path d="M 336.892000 144.012000 L 336.886000 148.880000 L 336.851000 153.747000 L 336.771000 158.614000 L 336.664000 163.481000 L 336.524000 168.347000 L 336.363000 173.212000 L 336.203000 178.077000 L 336.057000 182.943000 L 335.923000 187.809000 L 335.795000 192.675000 L 335.673000 197.541000 L 335.557000 202.407000 L 335.446000 207.274000 L 335.336000 212.141000 L 335.224000 217.007000 L 335.109000 221.874000 L 334.984000 226.740000 L 334.003000 231.438000 L 332.121000 235.923000 L 329.517000 239.945000 L 325.938000 243.241000 L 322.099000 246.193000 L 317.662000 248.176000 L 312.948000 249.392000 L 308.163000 250.282000 L 303.316000 250.712000 L 298.454000 250.950000 L 293.590000 251.129000 L 288.725000 251.283000 L 283.859000 251.421000 L 278.993000 251.554000 L 274.127000 251.687000 L 269.260000 251.805000 L 264.393000 251.860000 L 259.525000 251.843000 L 254.658000 251.774000" fill="none" stroke="black" stroke-width="1.0" /><path d="M 324.970000 157.709000 L 325.249000 157.398000 L 325.528000 157.087000 L 325.809000 156.777000 L 326.090000 156.468000 L 326.374000 156.161000 L 326.658000 155.854000 L 326.947000 155.553000 L 327.237000 155.251000 L 327.529000 154.952000 L 327.821000 154.653000 L 328.118000 154.359000 L 328.415000 154.065000 L 328.711000 153.770000 L 329.008000 153.476000 L 329.306000 153.182000 L 329.604000 152.889000 L 329.903000 152.597000 L 330.202000 152.305000 L 330.503000 152.015000 L 330.804000 151.725000 L 331.106000 151.436000 L 331.407000 151.146000 L 331.716000 150.865000 L 332.026000 150.585000 L 332.340000 150.309000 L 332.654000 150.033000 L 332.970000 149.759000 L 333.286000 149.486000 L 333.602000 149.213000 L 333.919000 148.939000" fill="none" stroke="black" stroke-width="1.0" /><path d="M 277.974000 139.840000 L 279.935000 140.072000 L 281.901000 140.243000 L 283.873000 140.331000 L 285.847000 140.344000 L 287.821000 140.331000 L 289.796000 140.318000 L 291.770000 140.306000 L 293.744000 140.296000 L 295.718000 140.289000 L 297.692000 140.282000 L 299.667000 140.285000 L 301.641000 140.292000 L 303.615000 140.314000 L 305.589000 140.364000 L 307.561000 140.448000 L 309.532000 140.559000 L 311.502000 140.684000 L 313.473000 140.812000 L 315.443000 140.941000 L 317.413000 141.070000 L 319.382000 141.206000 L 321.350000 141.364000 L 323.316000 141.548000 L 325.278000 141.765000 L 327.236000 142.016000 L 329.190000 142.296000 L 331.137000 142.621000 L 333.070000 143.022000 L 334.988000 143.490000 L 336.892000 144.012000" fill="none" stroke="black" stroke-width="1.0" /><path d="M 333.919000 148.939000 L 334.032000 148.939000 L 334.145000 148.944000 L 334.256000 148.963000 L 334.367000 148.986000 L 334.474000 149.023000 L 334.581000 149.059000 L 334.680000 149.114000 L 334.779000 149.169000 L 334.874000 149.232000 L 334.968000 149.295000 L 335.064000 149.355000 L 335.159000 149.416000 L 335.254000 149.477000 L 335.349000 149.539000 L 335.444000 149.601000 L 335.539000 149.662000 L 335.634000 149.724000 L 335.729000 149.786000 L 335.823000 149.850000 L 335.916000 149.913000 L 336.010000 149.977000 L 336.104000 150.041000 L 336.197000 150.106000 L 336.289000 150.171000 L 336.382000 150.235000 L 336.475000 150.300000 L 336.568000 150.365000 L 336.661000 150.429000 L 336.754000 150.494000 L 336.847000 150.559000" fill="none" stroke="black" stroke-width="1.0" /><path d="M 262.181000 158.894000 L 264.205000 158.796000 L 266.228000 158.701000 L 268.253000 158.613000 L 270.277000 158.530000 L 272.301000 158.454000 L 274.326000 158.388000 L 276.352000 158.331000 L 278.377000 158.289000 L 280.403000 158.254000 L 282.429000 158.225000 L 284.454000 158.196000 L 286.480000 158.172000 L 288.506000 158.148000 L 290.532000 158.127000 L 292.558000 158.106000 L 294.584000 158.085000 L 296.610000 158.066000 L 298.636000 158.048000 L 300.662000 158.034000 L 302.688000 158.021000 L 304.714000 158.011000 L 306.739000 158.001000 L 308.765000 157.993000 L 310.791000 157.985000 L 312.817000 157.975000 L 314.843000 157.958000 L 316.869000 157.931000 L 318.895000 157.889000 L 320.920000 157.839000 L 322.945000 157.775000 L 324.970000 157.709000" fill="none" stroke="black" stroke-width="1.0" /><path d="M 37.591800 339.902000 L 41.374100 339.988000 L 45.153400 340.157000 L 48.926200 340.436000 L 52.690000 340.819000 L 56.450000 341.238000 L 60.209700 341.659000 L 63.970300 342.072000 L 67.731100 342.483000 L 71.492300 342.891000 L 75.254100 343.294000 L 79.016500 343.690000 L 82.780700 344.069000 L 86.547400 344.422000 L 90.316200 344.752000 L 94.086600 345.063000 L 97.858300 345.358000 L 101.631000 345.644000 L 105.404000 345.925000 L 109.177000 346.202000 L 112.950000 346.478000 L 116.723000 346.757000 L 120.495000 347.046000 L 124.267000 347.339000 L 128.040000 347.608000 L 131.817000 347.824000 L 135.598000 347.962000 L 139.381000 347.999000 L 143.163000 347.922000 L 146.941000 347.717000 L 150.712000 347.417000" fill="none" stroke="black" stroke-width="1.0" /><path d="M 150.712000 347.417000 L 150.712000 347.417000 L 150.712000 347.417000 L 150.713000 347.417000 L 150.713000 347.417000 L 150.713000 347.417000 L 150.713000 347.417000 L 150.714000 347.417000 L 150.714000 347.417000 L 150.714000 347.417000 L 150.714000 347.417000 L 150.715000 347.417000 L 150.715000 347.417000 L 150.715000 347.417000 L 150.715000 347.417000 L 150.716000 347.417000 L 150.716000 347.417000 L 150.716000 347.417000 L 150.716000 347.417000 L 150.716000 347.417000 L 150.717000 347.418000 L 150.717000 347.418000 L 150.717000 347.418000 L 150.717000 347.418000 L 150.718000 347.418000 L 150.718000 347.418000 L 150.718000 347.418000 L 150.718000 347.418000 L 150.719000 347.418000 L 150.719000 347.418000 L 150.719000 347.418000" fill="none" stroke="black" stroke-width="1.0" /><path d="M 308.840000 355.555000 L 309.051000 360.336000 L 309.231000 365.119000 L 309.379000 369.903000 L 309.462000 374.689000 L 309.515000 379.474000 L 309.523000 384.261000 L 309.536000 389.047000 L 309.559000 393.833000 L 309.585000 398.619000 L 309.603000 403.405000 L 309.613000 408.192000 L 309.620000 412.978000 L 309.624000 417.764000 L 309.621000 422.550000 L 309.607000 427.336000 L 309.581000 432.122000 L 309.542000 436.908000 L 309.458000 441.694000 L 309.296000 446.477000 L 309.100000 451.259000 L 308.897000 456.041000 L 308.668000 460.822000 L 308.368000 465.599000 L 307.970000 470.368000 L 307.390000 475.118000 L 306.707000 479.855000 L 305.989000 484.588000 L 305.242000 489.315000 L 304.472000 494.039000 L 303.684000 498.760000" fill="none" stroke="black" stroke-width="1.0" /><path d="M 310.852000 473.535000 L 310.994000 470.296000 L 311.119000 467.057000 L 311.225000 463.817000 L 311.309000 460.576000 L 311.376000 457.335000 L 311.436000 454.093000 L 311.490000 450.852000 L 311.537000 447.610000 L 311.575000 444.369000 L 311.600000 441.127000 L 311.609000 437.885000 L 311.610000 434.643000 L 311.608000 431.402000 L 311.602000 428.160000 L 311.592000 424.918000 L 311.576000 421.676000 L 311.556000 418.434000 L 311.533000 415.193000 L 311.509000 411.951000 L 311.482000 408.709000 L 311.453000 405.467000 L 311.423000 402.226000 L 311.391000 398.984000 L 311.356000 395.742000 L 311.321000 392.501000 L 311.287000 389.259000 L 311.256000 386.017000 L 311.225000 382.776000 L 311.187000 379.534000 L 311.142000 376.292000 L 311.093000 373.051000" fill="none" stroke="black" stroke-width="1.0" /><path d="M 68.843600 387.672000 L 69.514600 386.989000 L 70.187800 386.309000 L 70.864100 385.632000 L 71.542800 384.957000 L 72.225100 384.286000 L 72.911600 383.619000 L 73.606300 382.961000 L 74.306700 382.308000 L 75.016800 381.667000 L 75.733900 381.033000 L 76.460700 380.410000 L 77.203500 379.807000 L 77.966200 379.229000 L 78.744800 378.673000 L 79.531900 378.128000 L 80.326100 377.594000 L 81.127300 377.071000 L 81.931600 376.552000 L 82.736900 376.035000 L 83.543800 375.520000 L 84.353600 375.010000 L 85.174800 374.519000 L 86.020900 374.073000 L 86.893600 373.680000 L 87.766300 373.287000 L 88.629500 372.874000 L 89.484500 372.445000 L 90.281700 371.918000 L 90.911300 371.198000 L 91.433700 370.396000" fill="none" stroke="black" stroke-width="1.0" /><path d="M 91.433700 370.396000 L 90.371400 370.395000 L 89.310000 370.435000 L 88.255000 370.555000 L 87.212700 370.760000 L 86.165700 370.940000 L 85.113300 371.081000 L 84.053000 371.129000 L 82.991600 371.088000 L 81.931800 371.073000 L 80.893000 371.255000 L 79.908500 371.651000 L 78.954900 372.119000 L 78.009400 372.603000 L 77.069100 373.097000 L 76.134300 373.602000 L 75.203300 374.114000 L 74.275600 374.631000 L 73.351000 375.154000 L 72.430500 375.685000 L 71.534300 376.254000 L 70.698500 376.908000 L 69.901500 377.610000 L 69.116400 378.326000 L 68.336000 379.047000 L 67.565300 379.778000 L 66.799600 380.514000 L 66.037400 381.254000 L 65.272200 381.991000 L 64.503300 382.724000 L 63.732200 383.455000" fill="none" stroke="black" stroke-width="1.0" /><path d="M 94.735000 379.494000 L 95.193200 379.033000 L 95.651800 378.572000 L 96.110800 378.112000 L 96.570100 377.652000 L 97.029900 377.192000 L 97.490300 376.733000 L 97.951700 376.275000 L 98.414600 375.819000 L 98.880600 375.366000 L 99.349600 374.915000 L 99.821900 374.469000 L 100.299000 374.027000 L 100.778000 373.588000 L 101.263000 373.155000 L 101.758000 372.733000 L 102.261000 372.322000 L 102.762000 371.907000 L 103.258000 371.488000 L 103.750000 371.062000 L 104.239000 370.634000 L 104.728000 370.206000 L 105.217000 369.778000 L 105.705000 369.348000 L 106.193000 368.919000 L 106.681000 368.489000 L 107.165000 368.055000 L 107.552000 367.534000 L 107.763000 366.939000 L 107.788000 366.295000 L 107.700000 365.651000" fill="none" stroke="black" stroke-width="1.0" /><path d="M 107.700000 365.651000 L 107.238000 365.985000 L 106.766000 366.304000 L 106.283000 366.607000 L 105.779000 366.873000 L 105.263000 367.114000 L 104.736000 367.331000 L 104.200000 367.527000 L 103.662000 367.715000 L 103.122000 367.896000 L 102.558000 367.980000 L 101.991000 368.031000 L 101.421000 368.054000 L 100.857000 368.138000 L 100.298000 368.246000 L 99.743700 368.378000 L 99.189900 368.513000 L 98.636300 368.650000 L 98.082900 368.787000 L 97.529600 368.924000 L 96.976300 369.061000 L 96.422900 369.198000 L 95.868900 369.333000 L 95.314800 369.467000 L 94.760500 369.600000 L 94.206200 369.733000 L 93.651800 369.866000 L 93.097300 369.999000 L 92.542800 370.131000 L 91.433700 370.396000" fill="none" stroke="black" stroke-width="1.0" /><path d="M 35.651900 489.528000 L 35.445100 488.324000 L 35.240300 487.120000 L 35.039500 485.915000 L 34.841800 484.710000 L 34.645700 483.504000 L 34.464200 482.296000 L 34.289800 481.087000 L 34.129800 479.876000 L 33.986600 478.663000 L 33.852000 477.449000 L 33.733900 476.233000 L 33.618800 475.017000 L 33.509600 473.801000 L 33.402500 472.584000 L 33.296500 471.367000 L 33.193800 470.150000 L 33.096600 468.932000 L 33.010400 467.714000 L 32.938300 466.494000 L 32.873100 465.275000 L 32.819800 464.054000 L 32.773300 462.834000 L 32.740600 461.613000 L 32.719500 460.391000 L 32.704300 459.170000 L 32.691700 457.949000 L 32.679100 456.727000 L 32.666600 455.506000 L 32.654700 454.284000 L 32.643000 453.063000" fill="none" stroke="black" stroke-width="1.0" /><path d="M 32.643100 446.049000 L 32.647900 446.282000 L 32.652600 446.515000 L 32.656600 446.749000 L 32.660500 446.982000 L 32.663700 447.215000 L 32.666900 447.448000 L 32.670100 447.682000 L 32.673200 447.915000 L 32.675400 448.148000 L 32.677500 448.382000 L 32.679900 448.615000 L 32.682200 448.848000 L 32.683600 449.081000 L 32.684900 449.315000 L 32.685800 449.548000 L 32.686600 449.781000 L 32.687200 450.015000 L 32.687800 450.248000 L 32.686000 450.481000 L 32.684200 450.714000 L 32.682700 450.948000 L 32.681100 451.181000 L 32.677000 451.414000 L 32.672900 451.647000 L 32.669000 451.881000 L 32.665100 452.114000 L 32.660100 452.347000 L 32.655100 452.580000 L 32.649100 452.814000 L 32.643000 453.047000" fill="none" stroke="black" stroke-width="1.0" /><path d="M 37.591800 339.902000 L 37.308700 343.773000 L 37.081400 347.648000 L 36.928800 351.527000 L 36.850200 355.408000 L 36.775200 359.289000 L 36.700400 363.170000 L 36.611900 367.050000 L 36.477300 370.930000 L 36.321300 374.808000 L 36.165200 378.687000 L 36.015300 382.566000 L 35.865900 386.444000 L 35.718100 390.323000 L 35.577700 394.202000 L 35.438100 398.082000 L 35.298600 401.961000 L 35.170100 405.840000 L 35.074100 409.721000 L 35.079200 413.602000 L 35.150400 417.483000 L 35.236600 421.364000 L 35.348400 425.244000 L 35.502800 429.123000 L 35.712000 432.999000 L 35.958500 436.873000 L 36.211400 440.746000 L 36.608300 444.607000 L 37.508800 448.379000 L 38.828400 452.028000 L 40.490100 455.535000" fill="none" stroke="black" stroke-width="1.0" /><path d="M 32.643100 446.063000 L 32.677300 444.798000 L 32.713800 443.534000 L 32.754800 442.270000 L 32.803200 441.005000 L 32.855100 439.742000 L 32.912800 438.478000 L 32.970700 437.214000 L 33.028800 435.951000 L 33.089500 434.687000 L 33.151500 433.424000 L 33.217300 432.160000 L 33.284200 430.897000 L 33.353400 429.634000 L 33.423700 428.371000 L 33.494500 427.108000 L 33.592500 425.847000 L 33.694100 424.586000 L 33.802900 423.325000 L 33.892600 422.064000 L 33.972900 420.801000 L 34.053100 419.539000 L 34.133400 418.276000 L 34.213600 417.014000 L 34.293800 415.751000 L 34.374100 414.489000 L 34.460900 413.227000 L 34.553500 411.965000 L 34.657900 410.705000 L 34.769100 409.445000 L 34.883800 408.185000" fill="none" stroke="black" stroke-width="1.0" /><path d="M 93.779000 460.359000 L 94.293900 461.041000 L 94.809400 461.722000 L 95.328800 462.400000 L 95.849300 463.078000 L 96.372900 463.753000 L 96.900100 464.425000 L 97.433000 465.093000 L 97.969800 465.758000 L 98.510300 466.419000 L 99.058100 467.075000 L 99.610400 467.727000 L 100.175000 468.368000 L 100.743000 469.005000 L 101.327000 469.630000 L 101.912000 470.252000 L 102.511000 470.862000 L 103.110000 471.471000 L 103.714000 472.075000 L 104.318000 472.679000 L 104.923000 473.283000 L 105.526000 473.887000 L 106.128000 474.493000 L 106.726000 475.104000 L 107.319000 475.719000 L 107.903000 476.343000 L 108.481000 476.971000 L 109.051000 477.608000 L 109.618000 478.247000 L 110.177000 478.893000 L 110.734000 479.541000" fill="none" stroke="black" stroke-width="1.0" /><path d="M 61.851700 445.978000 L 63.002000 447.635000 L 64.183200 449.271000 L 65.392600 450.886000 L 66.632500 452.477000 L 67.927800 454.024000 L 69.276000 455.525000 L 70.671200 456.982000 L 72.109300 458.397000 L 73.588900 459.768000 L 75.106400 461.098000 L 76.661200 462.383000 L 78.255900 463.619000 L 79.895500 464.794000 L 81.573400 465.914000 L 83.273900 466.999000 L 84.990900 468.059000 L 86.726000 469.088000 L 88.496800 470.054000 L 90.310000 470.938000 L 92.130700 471.807000 L 93.945500 472.688000 L 95.760600 473.569000 L 97.580200 474.441000 L 99.412200 475.286000 L 101.282000 476.043000 L 103.199000 476.670000 L 105.079000 477.400000 L 106.986000 478.057000 L 108.892000 478.718000 L 110.734000 479.541000" fill="none" stroke="black" stroke-width="1.0" /><path d="M 61.851700 445.978000 L 60.800900 444.054000 L 59.826700 442.090000 L 58.927500 440.091000 L 58.098100 438.062000 L 57.342600 436.004000 L 56.635100 433.929000 L 56.027500 431.823000 L 55.525600 429.689000 L 55.083900 427.542000 L 54.716500 425.381000 L 54.482300 423.203000 L 54.380900 421.013000 L 54.372500 418.821000 L 54.439700 416.630000 L 54.587800 414.444000 L 54.817500 412.264000 L 55.117200 410.092000 L 55.468900 407.928000 L 55.848300 405.769000 L 56.157900 403.600000 L 56.237900 401.413000 L 56.318200 399.223000 L 56.823900 397.102000 L 57.548800 395.033000 L 58.387300 393.008000 L 59.279800 391.006000 L 60.334500 389.085000 L 61.438500 387.191000 L 62.564900 385.310000 L 63.732200 383.455000" fill="none" stroke="black" stroke-width="1.0" /><path d="M 68.843600 387.672000 L 68.158900 388.483000 L 67.495100 389.312000 L 66.850300 390.156000 L 66.225100 391.014000 L 65.618100 391.885000 L 65.018300 392.762000 L 64.420100 393.639000 L 63.827300 394.520000 L 63.237700 395.403000 L 62.650900 396.288000 L 62.071300 397.178000 L 61.498200 398.072000 L 60.945200 398.978000 L 60.416700 399.899000 L 59.893700 400.823000 L 59.326400 401.721000 L 58.736000 402.603000 L 58.159200 403.495000 L 57.596900 404.396000 L 57.052500 405.307000 L 56.553400 406.244000 L 56.123000 407.214000 L 55.747900 408.207000 L 55.423200 409.217000 L 55.161300 410.246000 L 54.954500 411.287000 L 54.787900 412.336000 L 54.629100 413.386000 L 54.467600 414.435000 L 54.305700 415.485000" fill="none" stroke="black" stroke-width="1.0" /><path d="M 84.250000 424.273000 L 83.902000 422.901000 L 83.625600 421.513000 L 83.415400 420.113000 L 83.261600 418.706000 L 83.163300 417.294000 L 83.093100 415.881000 L 83.045400 414.466000 L 83.025700 413.051000 L 83.039100 411.635000 L 83.082300 410.221000 L 83.155600 408.807000 L 83.261300 407.396000 L 83.396600 405.987000 L 83.564000 404.581000 L 83.835200 403.192000 L 84.188900 401.822000 L 84.570200 400.459000 L 85.013700 399.114000 L 85.491600 397.782000 L 85.998500 396.461000 L 86.523600 395.146000 L 87.065300 393.838000 L 87.631500 392.541000 L 88.230100 391.259000 L 88.803400 389.965000 L 89.277900 388.632000 L 89.735200 387.293000 L 90.219800 385.963000 L 90.722900 384.640000 L 91.266200 383.333000" fill="none" stroke="black" stroke-width="1.0" /><path d="M 94.735000 379.494000 L 93.631900 380.694000 L 92.532100 381.896000 L 91.433600 383.100000 L 90.308200 384.279000 L 89.096000 385.368000 L 87.823900 386.386000 L 86.537600 387.387000 L 85.308200 388.456000 L 84.178400 389.628000 L 83.132500 390.877000 L 82.134900 392.166000 L 81.209400 393.506000 L 80.361900 394.898000 L 79.590100 396.333000 L 78.921900 397.817000 L 78.360400 399.347000 L 77.864500 400.899000 L 77.415200 402.465000 L 77.014400 404.045000 L 76.665700 405.637000 L 76.406400 407.245000 L 76.220000 408.864000 L 76.063700 410.486000 L 75.939800 412.111000 L 75.902000 413.740000 L 75.972500 415.368000 L 76.138300 416.989000 L 76.337800 418.607000 L 76.543000 420.224000 L 76.752700 421.840000" fill="none" stroke="black" stroke-width="1.0" /><path d="M 93.779000 460.359000 L 92.988900 459.236000 L 92.214700 458.103000 L 91.466100 456.952000 L 90.734500 455.791000 L 90.005200 454.628000 L 89.265600 453.472000 L 88.459400 452.361000 L 87.633400 451.264000 L 86.849000 450.139000 L 86.117100 448.978000 L 85.433000 447.788000 L 84.792000 446.574000 L 84.192000 445.340000 L 83.621900 444.091000 L 83.074700 442.832000 L 82.547000 441.565000 L 82.035100 440.292000 L 81.535800 439.013000 L 81.051700 437.728000 L 80.590300 436.436000 L 80.153400 435.134000 L 79.748200 433.823000 L 79.370600 432.503000 L 79.009300 431.179000 L 78.659700 429.852000 L 78.318400 428.522000 L 77.988600 427.190000 L 77.666300 425.855000 L 77.351700 424.519000 L 77.047100 423.181000 L 76.752700 421.840000" fill="none" stroke="black" stroke-width="1.0" /><path d="M 84.250000 424.273000 L 84.271400 425.522000 L 84.364100 426.768000 L 84.539400 428.005000 L 84.791600 429.229000 L 85.061700 430.449000 L 85.328500 431.669000 L 85.599500 432.889000 L 85.876300 434.108000 L 86.157200 435.325000 L 86.449800 436.540000 L 86.768200 437.748000 L 87.125800 438.945000 L 87.508800 440.134000 L 87.902500 441.320000 L 88.301000 442.505000 L 88.701600 443.688000 L 89.101700 444.872000 L 89.493500 446.058000 L 89.840900 447.258000 L 90.071400 448.484000 L 90.210600 449.726000 L 90.413900 450.957000 L 90.739600 452.162000 L 91.124200 453.351000 L 91.556300 454.523000 L 92.025000 455.682000 L 92.519000 456.829000 L 92.969400 457.995000 L 93.383000 459.174000 L 93.779000 460.359000" fill="none" stroke="black" stroke-width="1.0" /><path d="M 271.328000 397.114000 L 271.868000 398.919000 L 272.410000 400.723000 L 272.940000 402.530000 L 273.412000 404.353000 L 273.753000 406.206000 L 273.871000 408.055000 L 273.424000 409.868000 L 273.454000 411.750000 L 273.598000 413.629000 L 273.752000 415.506000 L 273.906000 417.383000 L 274.055000 419.261000 L 274.198000 421.139000 L 274.323000 423.019000 L 274.412000 424.900000 L 274.456000 426.784000 L 274.462000 428.667000 L 274.437000 430.551000 L 274.381000 432.433000 L 274.277000 434.314000 L 274.086000 436.188000 L 273.776000 438.045000 L 273.382000 439.887000 L 272.918000 441.712000 L 272.382000 443.518000 L 271.798000 445.309000 L 271.161000 447.081000 L 270.481000 448.838000 L 269.718000 450.560000 L 268.882000 452.248000" fill="none" stroke="black" stroke-width="1.0" /><path d="M 267.291000 402.142000 L 267.753000 403.558000 L 268.206000 404.976000 L 268.655000 406.396000 L 269.129000 407.808000 L 269.703000 409.179000 L 270.467000 410.456000 L 271.187000 411.760000 L 271.837000 413.099000 L 272.368000 414.487000 L 272.727000 415.932000 L 272.993000 417.397000 L 273.226000 418.868000 L 273.441000 420.341000 L 273.617000 421.820000 L 273.733000 423.304000 L 273.812000 424.791000 L 273.870000 426.279000 L 273.905000 427.768000 L 273.913000 429.257000 L 273.893000 430.746000 L 273.856000 432.235000 L 273.805000 433.723000 L 273.736000 435.211000 L 273.642000 436.697000 L 273.492000 438.179000 L 273.241000 439.646000 L 272.931000 441.103000 L 272.584000 442.551000 L 272.224000 443.996000 L 271.852000 445.438000" fill="none" stroke="black" stroke-width="1.0" /><path d="M 227.982000 373.215000 L 227.591000 373.319000 L 227.201000 373.424000 L 226.804000 373.504000 L 226.408000 373.584000 L 226.005000 373.626000 L 225.603000 373.669000 L 225.199000 373.650000 L 224.795000 373.630000 L 224.392000 373.593000 L 223.989000 373.555000 L 223.595000 373.467000 L 223.200000 373.378000 L 222.804000 373.295000 L 222.408000 373.211000 L 222.014000 373.121000 L 221.620000 373.031000 L 221.226000 372.939000 L 220.832000 372.847000 L 220.439000 372.752000 L 220.045000 372.657000 L 219.652000 372.564000 L 219.258000 372.472000 L 218.864000 372.379000 L 218.470000 372.286000 L 218.075000 372.201000 L 217.679000 372.117000 L 217.281000 372.046000 L 216.883000 371.975000 L 216.483000 371.910000 L 216.084000 371.846000" fill="none" stroke="black" stroke-width="1.0" /><path d="M 215.800000 370.664000 L 217.449000 372.083000 L 219.210000 373.360000 L 221.125000 374.394000 L 223.193000 375.063000 L 225.263000 375.735000 L 227.334000 376.400000 L 229.403000 377.075000 L 231.459000 377.784000 L 233.491000 378.561000 L 235.448000 379.501000 L 237.332000 380.590000 L 239.182000 381.734000 L 240.966000 382.978000 L 242.667000 384.332000 L 244.279000 385.793000 L 245.754000 387.392000 L 247.074000 389.121000 L 248.302000 390.917000 L 249.414000 392.787000 L 250.417000 394.717000 L 251.319000 396.696000 L 252.094000 398.727000 L 252.772000 400.794000 L 253.373000 402.885000 L 253.877000 405.000000 L 254.283000 407.138000 L 254.630000 409.286000 L 254.946000 411.438000 L 255.232000 413.595000 L 255.495000 415.755000" fill="none" stroke="black" stroke-width="1.0" /><path d="M 255.495000 415.755000 L 255.732000 418.497000 L 255.905000 421.244000 L 255.986000 423.996000 L 256.003000 426.748000 L 255.902000 429.498000 L 255.627000 432.237000 L 255.243000 434.962000 L 254.735000 437.666000 L 254.071000 440.336000 L 253.196000 442.944000 L 252.151000 445.490000 L 250.999000 447.990000 L 249.767000 450.451000 L 248.420000 452.849000 L 246.908000 455.148000 L 245.256000 457.349000 L 243.466000 459.437000 L 241.556000 461.419000 L 239.564000 463.318000 L 237.494000 465.131000 L 235.336000 466.838000 L 233.133000 468.488000 L 230.966000 470.185000 L 228.625000 471.619000 L 226.049000 472.564000 L 223.403000 473.321000 L 220.727000 473.963000 L 218.086000 474.737000 L 215.506000 475.694000 L 212.980000 476.789000" fill="none" stroke="black" stroke-width="1.0" /><path d="M 255.266000 378.659000 L 255.915000 379.161000 L 256.557000 379.673000 L 257.192000 380.193000 L 257.824000 380.717000 L 258.444000 381.255000 L 259.053000 381.805000 L 259.652000 382.367000 L 260.242000 382.937000 L 260.818000 383.522000 L 261.365000 384.134000 L 261.897000 384.760000 L 262.426000 385.388000 L 262.954000 386.016000 L 263.484000 386.643000 L 264.015000 387.269000 L 264.548000 387.893000 L 265.084000 388.515000 L 265.602000 389.152000 L 266.083000 389.817000 L 266.547000 390.494000 L 267.015000 391.168000 L 267.503000 391.828000 L 268.053000 392.438000 L 268.635000 393.017000 L 269.193000 393.619000 L 269.694000 394.269000 L 270.142000 394.957000 L 270.565000 395.660000 L 271.328000 397.114000" fill="none" stroke="black" stroke-width="1.0" /><path d="M 265.752000 394.730000 L 265.742000 394.155000 L 265.707000 393.581000 L 265.638000 393.010000 L 265.464000 392.462000 L 265.260000 391.925000 L 265.022000 391.401000 L 264.782000 390.878000 L 264.536000 390.357000 L 264.263000 389.850000 L 263.984000 389.347000 L 263.699000 388.847000 L 263.402000 388.354000 L 263.100000 387.864000 L 262.789000 387.380000 L 262.466000 386.903000 L 262.140000 386.429000 L 261.809000 385.958000 L 261.478000 385.487000 L 261.146000 385.018000 L 260.797000 384.560000 L 260.438000 384.110000 L 260.066000 383.671000 L 259.683000 383.241000 L 259.305000 382.807000 L 258.938000 382.364000 L 258.584000 381.910000 L 258.233000 381.454000 L 257.888000 380.993000 L 257.543000 380.533000 L 257.198000 380.072000" fill="none" stroke="black" stroke-width="1.0" /><path d="M 267.291000 402.142000 L 267.219000 401.922000 L 267.146000 401.701000 L 267.073000 401.481000 L 267.000000 401.261000 L 266.925000 401.042000 L 266.850000 400.823000 L 266.775000 400.603000 L 266.700000 400.384000 L 266.624000 400.165000 L 266.549000 399.946000 L 266.474000 399.726000 L 266.398000 399.507000 L 266.323000 399.288000 L 266.248000 399.068000 L 266.174000 398.849000 L 266.100000 398.629000 L 266.026000 398.409000 L 265.953000 398.189000 L 265.882000 397.969000 L 265.811000 397.748000 L 265.750000 397.524000 L 265.690000 397.301000 L 265.634000 397.076000 L 265.580000 396.850000 L 265.531000 396.624000 L 265.482000 396.397000 L 265.440000 396.169000 L 265.399000 395.941000 L 265.358000 395.713000 L 265.317000 395.484000" fill="none" stroke="black" stroke-width="1.0" /><path d="M 255.266000 378.659000 L 254.455000 378.222000 L 253.643000 377.788000 L 252.829000 377.356000 L 252.012000 376.930000 L 251.194000 376.508000 L 250.371000 376.094000 L 249.534000 375.711000 L 248.687000 375.348000 L 247.819000 375.040000 L 246.950000 374.735000 L 246.080000 374.434000 L 245.205000 374.145000 L 244.328000 373.864000 L 243.446000 373.598000 L 242.557000 373.358000 L 241.664000 373.131000 L 240.764000 372.934000 L 239.860000 372.763000 L 238.952000 372.607000 L 238.040000 372.478000 L 237.127000 372.354000 L 236.214000 372.236000 L 235.297000 372.147000 L 234.379000 372.066000 L 233.461000 371.993000 L 232.541000 371.949000 L 231.621000 371.928000 L 230.701000 371.976000 L 229.783000 372.054000 L 228.868000 372.153000" fill="none" stroke="black" stroke-width="1.0" /><path d="M 268.882000 452.248000 L 267.680000 453.971000 L 266.427000 455.657000 L 265.115000 457.298000 L 263.732000 458.878000 L 262.259000 460.374000 L 260.697000 461.777000 L 259.062000 463.095000 L 257.364000 464.332000 L 255.603000 465.477000 L 253.768000 466.499000 L 251.921000 467.501000 L 250.061000 468.476000 L 248.141000 469.327000 L 246.189000 470.104000 L 244.226000 470.852000 L 242.255000 471.577000 L 240.257000 472.219000 L 238.203000 472.623000 L 236.134000 472.518000 L 234.354000 471.414000 L 232.254000 471.462000 L 230.220000 471.969000 L 228.203000 472.559000 L 226.184000 473.139000 L 224.149000 473.660000 L 222.099000 474.114000 L 220.040000 474.534000 L 218.002000 475.025000 L 216.060000 475.810000 L 214.320000 476.985000 L 212.766000 478.399000" fill="none" stroke="black" stroke-width="1.0" /><path d="M 105.485000 549.440000 L 103.687000 552.395000 L 101.967000 555.397000 L 100.355000 558.458000 L 98.844000 561.570000 L 97.441800 564.732000 L 96.214300 567.965000 L 95.206100 571.273000 L 94.364700 574.628000 L 93.620700 578.007000 L 92.939000 581.398000 L 92.341500 584.806000 L 91.838900 588.228000 L 91.430300 591.663000 L 91.078500 595.105000 L 90.761800 598.550000 L 90.465100 601.996000 L 90.163100 605.443000 L 89.837200 608.887000 L 89.541700 612.334000 L 89.426000 615.789000 L 89.581400 619.243000 L 89.967100 622.680000 L 90.503400 626.097000 L 91.227900 629.479000 L 92.178800 632.804000 L 93.198900 636.109000 L 94.231700 639.411000 L 95.218200 642.727000 L 96.126600 646.065000 L 96.979000 649.418000" fill="none" stroke="black" stroke-width="1.0" /><path d="M 96.818000 549.450000 L 95.075900 552.452000 L 93.440300 555.514000 L 91.951100 558.649000 L 90.583400 561.839000 L 89.297000 565.062000 L 88.212500 568.359000 L 87.258300 571.697000 L 86.378400 575.054000 L 85.647000 578.447000 L 85.072600 581.870000 L 84.599000 585.308000 L 84.208200 588.757000 L 83.912500 592.215000 L 83.746700 595.682000 L 83.698400 599.153000 L 83.793300 602.621000 L 84.176800 606.067000 L 84.885000 609.462000 L 85.897700 612.779000 L 87.143100 616.017000 L 88.344700 619.273000 L 89.224500 622.626000 L 89.982700 626.014000 L 90.805100 629.386000 L 91.742200 632.728000 L 92.743100 636.052000 L 93.778400 639.365000 L 94.783600 642.687000 L 95.688500 646.038000 L 96.527000 649.407000" fill="none" stroke="black" stroke-width="1.0" /><path d="M 105.485000 549.440000 L 106.477000 547.978000 L 107.510000 546.546000 L 108.570000 545.133000 L 109.671000 543.752000 L 110.852000 542.440000 L 112.068000 541.158000 L 113.304000 539.896000 L 114.547000 538.642000 L 115.815000 537.413000 L 117.127000 536.230000 L 118.469000 535.083000 L 119.831000 533.957000 L 121.211000 532.855000 L 122.621000 531.792000 L 124.068000 530.780000 L 125.541000 529.805000 L 127.030000 528.855000 L 128.531000 527.924000 L 130.043000 527.011000 L 131.565000 526.115000 L 133.099000 525.240000 L 134.643000 524.382000 L 136.190000 523.530000 L 137.727000 522.659000 L 139.209000 521.700000 L 140.688000 520.734000 L 142.211000 519.840000 L 143.767000 519.004000 L 145.368000 518.259000 L 147.007000 517.601000" fill="none" stroke="black" stroke-width="1.0" /><path d="M 197.751000 653.427000 L 199.524000 648.828000 L 201.363000 644.255000 L 203.319000 639.731000 L 205.307000 635.220000 L 207.190000 630.665000 L 208.852000 626.025000 L 210.433000 621.357000 L 211.883000 616.646000 L 213.154000 611.885000 L 214.345000 607.102000 L 215.329000 602.273000 L 216.121000 597.409000 L 216.817000 592.529000 L 217.321000 587.627000 L 217.469000 582.704000 L 217.275000 577.781000 L 216.826000 572.873000 L 216.137000 567.994000 L 215.117000 563.176000 L 213.750000 558.443000 L 212.065000 553.814000 L 210.034000 549.327000 L 207.682000 544.999000 L 204.988000 540.878000 L 201.871000 537.072000 L 198.529000 533.449000 L 195.025000 529.991000 L 191.202000 526.888000 L 187.111000 524.148000 L 182.794000 521.779000 L 178.277000 519.819000 L 173.616000 518.223000 L 168.861000 516.940000 L 164.004000 516.195000 L 159.081000 516.143000 L 154.169000 516.531000 L 149.285000 517.191000 L 144.426000 518.016000 L 139.574000 518.832000 L 134.698000 519.360000 L 130.040000 520.953000 L 125.584000 523.057000 L 121.280000 525.454000 L 117.202000 528.222000 L 113.264000 531.182000 L 109.610000 534.490000 L 106.117000 537.967000 L 102.834000 541.643000 L 99.746100 545.485000 L 96.818000 549.450000" fill="none" stroke="black" stroke-width="1.0" /><path d="M 476.170000 21.445200 L 476.792000 26.335900 L 477.183000 31.249900 L 477.234000 36.179700 L 477.122000 41.108700 L 476.992000 46.037200 L 476.858000 50.965700 L 476.724000 55.894100 L 476.592000 60.822600 L 476.460000 65.751100 L 476.333000 70.679700 L 476.219000 75.608600 L 476.130000 80.538000 L 476.103000 85.468000 L 476.190000 90.397100 L 476.370000 95.324000 L 476.597000 100.249000 L 476.852000 105.173000 L 477.141000 110.094000 L 477.477000 115.013000 L 477.852000 119.929000 L 478.250000 124.843000 L 478.686000 129.754000 L 479.175000 134.660000 L 479.715000 139.561000 L 480.313000 144.454000 L 480.951000 149.343000 L 481.624000 154.227000 L 482.330000 159.107000 L 483.067000 163.982000 L 483.832000 168.852000 L 484.550000 173.730000 L 485.164000 178.622000 L 485.706000 183.522000" fill="none" stroke="black" stroke-width="1.0" /><path d="M 473.683000 29.250900 L 473.721000 34.250000 L 473.759000 39.249100 L 473.741000 44.248300 L 473.715000 49.247400 L 473.622000 54.245700 L 473.505000 59.243600 L 473.343000 64.240000 L 473.152000 69.235700 L 472.961000 74.231300 L 472.769000 79.226800 L 472.561000 84.221700 L 472.325000 89.215400 L 472.069000 94.208000 L 471.750000 99.197100 L 471.430000 104.186000 L 471.097000 109.174000 L 470.764000 114.162000 L 470.421000 119.150000 L 470.078000 124.137000 L 469.734000 129.125000 L 469.390000 134.112000 L 469.059000 139.100000 L 468.733000 144.089000 L 468.424000 149.079000 L 468.125000 154.069000 L 467.827000 159.059000 L 467.529000 164.050000 L 467.229000 169.040000 L 466.927000 174.030000 L 466.624000 179.020000 L 466.322000 184.010000 L 466.021000 189.000000 L 465.727000 193.991000 L 465.433000 198.982000 L 465.162000 203.974000 L 464.892000 208.965000 L 464.602000 213.956000 L 464.307000 218.947000 L 464.061000 223.940000 L 463.836000 228.934000 L 463.652000 233.930000 L 463.498000 238.927000 L 463.363000 243.924000 L 463.252000 248.922000 L 463.142000 253.920000 L 463.039000 258.918000 L 462.937000 263.917000 L 462.842000 268.915000 L 462.748000 273.913000 L 462.675000 278.912000 L 462.602000 283.911000 L 462.546000 288.910000 L 462.490000 293.909000 L 462.438000 298.908000 L 462.386000 303.907000 L 462.338000 308.906000 L 462.290000 313.905000 L 462.252000 318.904000 L 462.221000 323.903000 L 462.199000 328.902000 L 462.189000 333.901000 L 462.182000 338.901000 L 462.184000 343.900000 L 462.191000 348.899000 L 462.216000 353.898000 L 462.242000 358.897000 L 462.283000 363.897000 L 462.325000 368.896000 L 462.384000 373.895000 L 462.444000 378.893000 L 462.538000 383.892000 L 462.640000 388.890000 L 462.762000 393.888000 L 462.894000 398.885000 L 463.034000 403.883000 L 463.180000 408.880000 L 463.327000 413.877000 L 463.474000 418.874000 L 463.612000 423.871000 L 463.725000 428.869000 L 463.730000 433.862000 L 463.129000 438.825000 L 462.541000 443.789000 L 462.455000 448.787000 L 462.369000 453.786000 L 462.298000 458.784000 L 462.229000 463.783000 L 462.156000 468.782000 L 462.082000 473.781000 L 461.996000 478.779000 L 461.903000 483.778000 L 461.817000 488.776000 L 461.736000 493.775000 L 461.646000 498.773000 L 461.542000 503.771000 L 461.431000 508.769000 L 461.302000 513.767000 L 461.170000 518.764000 L 461.021000 523.761000 L 460.867000 528.758000 L 459.590000 533.591000 L 458.313000 538.425000 L 455.830000 542.751000 L 453.272000 547.047000 L 450.064000 550.861000 L 446.707000 554.566000 L 442.948000 557.840000 L 439.025000 560.938000 L 435.061000 563.985000 L 431.069000 566.994000 L 427.165000 570.113000 L 423.365000 573.362000 L 419.586000 576.634000 L 415.846000 579.952000 L 412.106000 583.269000 L 408.365000 586.585000 L 404.625000 589.902000 L 400.884000 593.218000 L 397.143000 596.534000 L 393.401000 599.849000 L 389.658000 603.164000 L 385.918000 606.481000 L 382.178000 609.799000 L 378.440000 613.118000 L 374.703000 616.439000 L 370.981000 619.776000 L 367.270000 623.126000 L 363.558000 626.475000 L 359.845000 629.823000 L 356.045000 633.064000 L 352.048000 636.067000 L 347.954000 638.910000 L 343.458000 641.097000 L 338.949000 643.253000 L 334.263000 644.994000 L 329.577000 646.735000 L 324.670000 647.675000 L 319.753000 648.577000 L 314.807000 649.307000 L 309.857000 650.001000 L 304.892000 650.585000 L 299.922000 651.123000 L 294.944000 651.578000 L 289.960000 651.971000 L 284.973000 652.308000 L 279.980000 652.574000 L 274.988000 652.828000 L 269.994000 653.053000 L 264.999000 653.263000 L 260.002000 653.409000 L 255.004000 653.550000 L 250.006000 653.626000 L 245.007000 653.702000 L 240.008000 653.770000 L 235.009000 653.838000 L 230.010000 653.870000 L 225.011000 653.895000 L 220.012000 653.853000 L 215.014000 653.781000 L 210.015000 653.694000 L 205.017000 653.596000 L 200.019000 653.485000 L 195.021000 653.358000 L 190.024000 653.225000 L 185.027000 653.076000 L 180.030000 652.926000 L 175.033000 652.775000 L 170.036000 652.623000 L 165.039000 652.462000 L 160.042000 652.301000 L 155.046000 652.131000 L 150.050000 651.960000 L 145.055000 651.759000 L 140.060000 651.551000 L 135.065000 651.335000 L 130.071000 651.117000 L 125.077000 650.880000 L 120.084000 650.627000 L 115.091000 650.371000 L 110.099000 650.111000 L 105.106000 649.861000 L 100.112000 649.639000 L 95.117300 649.417000 L 90.123200 649.189000 L 85.129200 648.960000 L 80.137600 648.683000 L 75.146000 648.406000 L 70.155600 648.111000 L 65.165200 647.813000 L 60.175300 647.507000 L 55.185500 647.199000 L 50.196200 646.885000 L 45.207100 646.566000 L 40.218400 646.241000 L 35.230000 645.911000 L 30.242600 645.568000 L 25.256800 645.202000 L 20.271400 644.831000 L 15.287000 644.445000 L 10.302800 644.057000 L 5.319920 643.653000 L 0.337030 643.249000" fill="none" stroke="black" stroke-width="1.0" /><path d="M 351.318000 637.390000 L 351.037000 632.451000 L 350.864000 627.507000 L 350.910000 622.562000 L 351.322000 617.632000 L 351.673000 612.697000 L 352.018000 607.763000 L 352.362000 602.828000 L 352.710000 597.893000 L 353.043000 592.957000 L 353.373000 588.021000 L 353.715000 583.086000 L 354.060000 578.151000 L 354.403000 573.216000 L 354.747000 568.281000 L 355.071000 563.345000 L 355.359000 558.407000 L 355.658000 553.469000 L 355.973000 548.532000 L 356.265000 543.594000 L 356.547000 538.655000 L 356.853000 533.717000 L 357.174000 528.781000 L 357.494000 523.844000 L 357.799000 518.907000 L 358.074000 513.968000 L 358.347000 509.028000 L 358.654000 504.091000 L 358.990000 499.155000 L 359.332000 494.220000 L 359.669000 489.285000 L 359.983000 484.348000 L 360.265000 479.409000 L 360.552000 474.471000 L 360.872000 469.534000 L 361.206000 464.599000 L 361.540000 459.663000 L 361.864000 454.727000 L 362.166000 449.789000 L 362.457000 444.851000 L 362.751000 439.912000 L 363.051000 434.975000 L 363.371000 430.038000 L 363.705000 425.102000 L 364.031000 420.166000 L 364.326000 415.228000 L 364.613000 410.290000 L 364.923000 405.352000 L 365.216000 400.414000 L 365.517000 395.477000 L 365.851000 390.541000 L 366.190000 385.606000 L 366.523000 380.670000 L 366.864000 375.735000 L 367.206000 370.800000 L 367.544000 365.864000 L 367.889000 360.929000 L 368.225000 355.994000 L 368.548000 351.058000 L 368.880000 346.122000 L 369.200000 341.185000 L 369.879000 336.286000 L 370.739000 331.415000 L 371.709000 326.564000" fill="none" stroke="black" stroke-width="1.0" /><path d="M 347.164000 418.544000 L 348.169000 413.671000 L 349.083000 408.781000 L 349.806000 403.860000 L 350.147000 398.896000 L 350.566000 393.938000 L 350.977000 388.980000 L 351.372000 384.021000 L 351.757000 379.060000 L 352.131000 374.099000 L 352.505000 369.138000 L 352.880000 364.177000 L 353.236000 359.214000 L 353.588000 354.252000 L 353.930000 349.288000 L 354.223000 344.322000 L 354.503000 339.354000 L 354.799000 334.388000 L 355.097000 329.422000 L 355.387000 324.455000 L 355.654000 319.487000 L 355.890000 314.517000 L 356.106000 309.547000 L 356.326000 304.576000 L 356.567000 299.607000 L 356.820000 294.638000 L 357.058000 289.669000 L 357.279000 284.698000 L 357.480000 279.727000 L 357.662000 274.755000 L 357.851000 269.784000 L 358.045000 264.812000 L 358.234000 259.841000 L 358.419000 254.869000 L 358.596000 249.897000 L 358.765000 244.924000 L 358.923000 239.952000 L 359.066000 234.978000 L 359.204000 230.005000 L 359.344000 225.032000 L 359.483000 220.059000 L 359.620000 215.085000 L 359.759000 210.112000 L 359.898000 205.139000 L 360.026000 200.165000 L 360.157000 195.191000 L 360.283000 190.218000 L 360.397000 185.244000 L 360.510000 180.270000 L 360.643000 175.297000 L 360.802000 170.324000 L 360.968000 165.351000 L 361.126000 160.379000 L 361.281000 155.406000 L 361.437000 150.433000 L 361.595000 145.460000 L 361.764000 140.488000 L 361.960000 135.517000 L 362.163000 130.546000 L 362.367000 125.574000 L 362.571000 120.603000 L 362.779000 115.633000 L 363.005000 110.662000 L 363.245000 105.693000 L 363.476000 100.723000 L 363.718000 95.753800 L 363.898000 90.781800 L 364.034000 85.808400 L 364.150000 80.834600" fill="none" stroke="black" stroke-width="1.0" /><path d="M 254.658000 251.774000 L 254.925000 247.496000 L 255.210000 243.218000 L 255.518000 238.943000 L 255.854000 234.670000 L 256.196000 230.397000 L 256.527000 226.123000 L 256.843000 221.848000 L 257.144000 217.572000 L 257.436000 213.295000 L 257.722000 209.018000 L 258.008000 204.741000 L 258.294000 200.464000 L 258.582000 196.187000 L 258.870000 191.910000 L 259.161000 187.633000 L 259.462000 183.357000 L 259.786000 179.083000 L 260.144000 174.811000 L 260.560000 170.545000 L 261.038000 166.285000 L 261.841000 162.081000 L 263.142000 158.008000 L 265.052000 154.193000 L 267.610000 150.774000 L 270.522000 147.629000 L 273.455000 144.502000 L 276.435000 141.422000 L 279.496000 138.421000 L 282.599000 135.463000 L 285.743000 132.550000" fill="none" stroke="black" stroke-width="1.0" /><path d="M 213.697000 252.716000 L 214.053000 249.311000 L 214.454000 245.912000 L 214.905000 242.519000 L 215.437000 239.138000 L 215.922000 235.750000 L 216.239000 232.342000 L 216.419000 228.924000 L 216.538000 225.503000 L 216.646000 222.082000 L 216.755000 218.661000 L 216.862000 215.239000 L 216.968000 211.818000 L 217.076000 208.397000 L 217.187000 204.976000 L 217.307000 201.555000 L 217.440000 198.135000 L 217.583000 194.715000 L 217.730000 191.295000 L 217.880000 187.875000 L 218.034000 184.456000 L 218.189000 181.036000 L 218.347000 177.617000 L 218.518000 174.198000 L 218.706000 170.780000 L 218.911000 167.364000 L 219.140000 163.948000 L 219.437000 160.538000 L 219.766000 157.131000 L 220.048000 153.720000 L 220.306000 150.307000" fill="none" stroke="black" stroke-width="1.0" /><path d="M 234.792000 237.331000 L 234.190000 233.982000 L 233.807000 230.602000 L 233.842000 227.200000 L 233.913000 223.799000 L 234.022000 220.399000 L 234.168000 217.000000 L 234.396000 213.605000 L 234.625000 210.211000 L 234.866000 206.817000 L 235.110000 203.424000 L 235.355000 200.031000 L 235.599000 196.637000 L 235.841000 193.244000 L 236.082000 189.850000 L 236.304000 186.456000 L 236.518000 183.060000 L 236.753000 179.666000 L 237.001000 176.273000 L 237.207000 172.877000 L 237.402000 169.481000 L 237.620000 166.086000 L 237.885000 162.694000 L 238.167000 159.304000 L 238.453000 155.914000 L 238.744000 152.524000 L 239.038000 149.135000 L 239.308000 145.743000 L 239.569000 142.351000 L 239.819000 138.958000 L 240.060000 135.565000" fill="none" stroke="black" stroke-width="1.0" /><path d="M 34.816100 244.919000 L 37.881000 245.200000 L 40.944400 245.496000 L 44.005600 245.815000 L 47.064800 246.151000 L 50.123200 246.495000 L 53.181600 246.840000 L 56.240900 247.175000 L 59.302500 247.489000 L 62.365300 247.792000 L 65.427200 248.104000 L 68.494200 248.359000 L 71.560900 248.619000 L 74.626500 248.892000 L 77.692200 249.164000 L 80.758500 249.428000 L 83.825700 249.683000 L 86.894700 249.912000 L 89.966800 250.096000 L 93.041500 250.232000 L 96.116600 250.335000 L 99.188200 250.142000 L 102.143000 249.293000 L 104.981000 248.109000 L 107.698000 246.668000 L 110.404000 245.203000 L 113.095000 243.711000 L 115.753000 242.159000 L 118.405000 240.597000 L 121.083000 239.082000 L 123.796000 237.628000 L 126.531000 236.217000" fill="none" stroke="black" stroke-width="1.0" /><path d="M 143.779000 246.595000 L 146.819000 247.690000 L 149.916000 248.610000 L 153.070000 249.313000 L 156.270000 249.756000 L 159.475000 250.168000 L 162.682000 250.558000 L 165.893000 250.924000 L 169.107000 251.252000 L 172.326000 251.533000 L 175.548000 251.776000 L 178.772000 251.989000 L 181.998000 252.178000 L 185.225000 252.343000 L 188.453000 252.479000 L 191.682000 252.588000 L 194.912000 252.671000 L 198.143000 252.733000 L 201.374000 252.775000 L 204.605000 252.788000 L 207.836000 252.765000 L 211.066000 252.692000 L 214.258000 252.329000 L 217.345000 251.380000 L 220.306000 250.122000 L 222.982000 248.314000 L 225.519000 246.313000 L 227.982000 244.222000 L 230.340000 242.014000 L 232.605000 239.709000 L 234.792000 237.331000" fill="none" stroke="black" stroke-width="1.0" /><path d="M 38.319200 301.071000 L 43.284300 301.552000 L 48.249500 302.032000 L 53.215900 302.499000 L 58.180500 302.985000 L 63.145200 303.470000 L 68.106300 303.990000 L 73.065700 304.527000 L 78.025200 305.062000 L 82.986200 305.584000 L 87.951100 306.066000 L 92.920000 306.506000 L 97.888600 306.949000 L 102.854000 307.430000 L 107.817000 307.931000 L 112.779000 308.441000 L 117.740000 308.958000 L 122.702000 309.479000 L 127.663000 309.996000 L 132.625000 310.506000 L 137.588000 311.013000 L 142.549000 311.528000 L 147.511000 312.040000 L 152.476000 312.521000 L 157.444000 312.974000 L 162.411000 313.432000 L 167.373000 313.942000 L 172.332000 314.487000 L 177.291000 315.031000 L 182.253000 315.541000 L 187.224000 315.943000 L 192.206000 316.179000 L 197.193000 316.281000 L 202.181000 316.332000 L 207.169000 316.376000 L 212.158000 316.419000 L 217.146000 316.468000 L 222.133000 316.540000 L 227.121000 316.645000 L 232.107000 316.770000 L 237.094000 316.900000 L 242.081000 317.027000 L 247.067000 317.151000 L 252.054000 317.271000 L 257.041000 317.384000 L 262.029000 317.486000 L 267.016000 317.584000 L 272.004000 317.672000 L 276.991000 317.753000 L 281.979000 317.834000 L 286.966000 317.927000 L 291.952000 318.103000 L 296.934000 318.355000 L 301.897000 318.846000 L 306.836000 319.549000 L 311.747000 320.421000" fill="none" stroke="black" stroke-width="1.0" /><path d="M 33.798800 285.558000 L 38.615000 286.696000 L 43.454300 287.732000 L 48.318800 288.642000 L 53.210800 289.389000 L 58.108000 290.103000 L 63.007800 290.798000 L 67.913700 291.449000 L 72.821100 292.088000 L 77.728100 292.730000 L 82.634600 293.376000 L 87.542300 294.013000 L 92.455100 294.610000 L 97.369600 295.192000 L 102.285000 295.766000 L 107.210000 296.250000 L 112.137000 296.719000 L 117.060000 297.222000 L 121.980000 297.759000 L 126.901000 298.275000 L 131.826000 298.770000 L 136.753000 299.231000 L 141.685000 299.639000 L 146.621000 300.000000 L 151.559000 300.318000 L 156.499000 300.619000 L 161.439000 300.919000 L 166.379000 301.210000 L 171.320000 301.481000 L 176.263000 301.726000 L 181.207000 301.954000 L 186.152000 302.156000 L 191.097000 302.332000 L 196.043000 302.498000 L 200.990000 302.659000 L 205.936000 302.819000 L 210.882000 302.976000 L 215.829000 303.123000 L 220.776000 303.258000 L 225.723000 303.377000 L 230.671000 303.472000 L 235.619000 303.559000 L 240.568000 303.643000 L 245.516000 303.721000 L 250.464000 303.797000 L 255.412000 303.870000 L 260.361000 303.943000 L 265.309000 304.014000 L 270.257000 304.085000 L 275.206000 304.155000 L 280.154000 304.225000 L 285.102000 304.295000 L 290.051000 304.369000 L 294.999000 304.473000 L 299.945000 304.642000 L 304.888000 304.880000 L 309.831000 305.118000 L 314.773000 305.374000" fill="none" stroke="black" stroke-width="1.0" /><path d="M 38.368700 301.166000 L 38.440500 300.702000 L 38.512300 300.238000 L 38.586000 299.774000 L 38.659800 299.311000 L 38.735700 298.847000 L 38.811600 298.384000 L 38.889200 297.921000 L 38.966700 297.458000 L 39.047100 296.996000 L 39.127400 296.533000 L 39.215700 296.072000 L 39.303900 295.611000 L 39.399300 295.151000 L 39.494600 294.692000 L 39.595000 294.233000 L 39.695400 293.774000 L 39.799000 293.316000 L 39.902500 292.859000 L 40.007400 292.401000 L 40.112200 291.943000 L 40.218800 291.486000 L 40.325500 291.029000 L 40.436600 290.573000 L 40.547800 290.117000 L 40.663000 289.662000 L 40.778100 289.207000 L 40.899600 288.753000 L 41.021000 288.300000 L 41.148200 287.848000 L 41.275400 287.396000" fill="none" stroke="black" stroke-width="1.0" /><path d="M 314.773000 305.374000 L 314.766000 305.911000 L 314.758000 306.449000 L 314.748000 306.987000 L 314.737000 307.524000 L 314.724000 308.062000 L 314.710000 308.599000 L 314.695000 309.137000 L 314.680000 309.674000 L 314.663000 310.211000 L 314.647000 310.749000 L 314.631000 311.286000 L 314.613000 311.824000 L 314.595000 312.361000 L 314.571000 312.898000 L 314.546000 313.435000 L 314.515000 313.972000 L 314.482000 314.508000 L 314.443000 315.045000 L 314.403000 315.581000 L 314.360000 316.117000 L 314.317000 316.653000 L 314.274000 317.189000 L 314.228000 317.724000 L 314.179000 318.260000 L 314.124000 318.795000 L 314.067000 319.329000 L 314.000000 319.863000 L 313.928000 320.396000 L 313.762000 321.458000" fill="none" stroke="black" stroke-width="1.0" /><path d="M 184.387000 345.907000 L 188.805000 345.913000 L 193.222000 346.038000 L 197.630000 346.326000 L 202.031000 346.720000 L 206.432000 347.117000 L 210.832000 347.513000 L 215.233000 347.907000 L 219.634000 348.295000 L 224.037000 348.665000 L 228.442000 349.002000 L 232.849000 349.322000 L 237.256000 349.636000 L 241.664000 349.938000 L 246.073000 350.223000 L 250.483000 350.491000 L 254.895000 350.732000 L 259.309000 350.912000 L 263.726000 351.008000 L 268.144000 351.048000 L 272.562000 351.063000 L 276.981000 351.068000 L 281.399000 351.075000 L 285.817000 351.113000 L 290.235000 351.185000 L 294.652000 351.260000 L 299.070000 351.315000 L 303.489000 351.321000 L 307.907000 351.295000 L 312.325000 351.258000 L 316.743000 351.210000" fill="none" stroke="black" stroke-width="1.0" /><path d="M 183.057000 413.471000 L 183.424000 411.244000 L 183.766000 409.013000 L 184.073000 406.777000 L 184.349000 404.537000 L 184.593000 402.293000 L 184.792000 400.045000 L 184.940000 397.793000 L 185.043000 395.538000 L 185.112000 393.282000 L 185.153000 391.026000 L 185.165000 388.769000 L 185.146000 386.512000 L 185.107000 384.255000 L 185.064000 381.998000 L 185.000000 379.742000 L 184.914000 377.487000 L 184.825000 375.232000 L 184.735000 372.976000 L 184.646000 370.721000 L 184.558000 368.466000 L 184.469000 366.210000 L 184.380000 363.955000 L 184.293000 361.700000 L 184.210000 359.444000 L 184.146000 357.188000 L 184.133000 354.931000 L 184.185000 352.675000 L 184.248000 350.419000 L 184.315000 348.163000 L 184.387000 345.907000" fill="none" stroke="black" stroke-width="1.0" /><path d="M 144.152000 348.049000 L 144.190000 350.210000 L 144.228000 352.370000 L 144.264000 354.531000 L 144.298000 356.692000 L 144.331000 358.852000 L 144.362000 361.013000 L 144.391000 363.174000 L 144.420000 365.335000 L 144.444000 367.495000 L 144.467000 369.656000 L 144.487000 371.817000 L 144.500000 373.978000 L 144.511000 376.139000 L 144.516000 378.300000 L 144.518000 380.461000 L 144.518000 382.622000 L 144.516000 384.783000 L 144.515000 386.944000 L 144.512000 389.105000 L 144.506000 391.266000 L 144.495000 393.427000 L 144.477000 395.588000 L 144.438000 397.749000 L 144.381000 399.909000 L 144.290000 402.068000 L 144.181000 404.226000 L 144.072000 406.384000 L 143.989000 408.543000 L 143.912000 410.703000 L 143.840000 412.863000" fill="none" stroke="black" stroke-width="1.0" /><path d="M 309.483000 373.047000 L 309.535000 373.047000 L 309.587000 373.047000 L 309.640000 373.047000 L 309.692000 373.047000 L 309.744000 373.047000 L 309.796000 373.047000 L 309.849000 373.047000 L 309.901000 373.047000 L 309.953000 373.047000 L 310.005000 373.047000 L 310.058000 373.047000 L 310.110000 373.047000 L 310.162000 373.047000 L 310.214000 373.047000 L 310.267000 373.047000 L 310.319000 373.047000 L 310.371000 373.047000 L 310.423000 373.047000 L 310.475000 373.047000 L 310.528000 373.047000 L 310.580000 373.047000 L 310.632000 373.047000 L 310.684000 373.047000 L 310.737000 373.047000 L 310.789000 373.047000 L 310.841000 373.047000 L 310.893000 373.047000 L 310.946000 373.047000 L 310.998000 373.047000 L 311.050000 373.047000" fill="none" stroke="black" stroke-width="1.0" /><path d="M 142.331000 428.217000 L 143.669000 428.224000 L 145.007000 428.230000 L 146.346000 428.244000 L 147.684000 428.257000 L 149.022000 428.281000 L 150.360000 428.305000 L 151.698000 428.335000 L 153.036000 428.365000 L 154.374000 428.395000 L 155.712000 428.425000 L 157.049000 428.455000 L 158.387000 428.486000 L 159.725000 428.516000 L 161.063000 428.547000 L 162.401000 428.578000 L 163.739000 428.610000 L 165.077000 428.641000 L 166.415000 428.673000 L 167.752000 428.705000 L 169.090000 428.737000 L 170.428000 428.770000 L 171.766000 428.802000 L 173.104000 428.837000 L 174.442000 428.872000 L 175.779000 428.911000 L 177.117000 428.951000 L 178.454000 428.999000 L 179.792000 429.048000 L 181.129000 429.101000 L 182.466000 429.155000" fill="none" stroke="black" stroke-width="1.0" /><path d="M 143.840000 412.863000 L 145.102000 412.967000 L 146.364000 413.071000 L 147.627000 413.159000 L 148.890000 413.243000 L 150.154000 413.307000 L 151.419000 413.368000 L 152.684000 413.412000 L 153.950000 413.455000 L 155.215000 413.497000 L 156.481000 413.538000 L 157.746000 413.577000 L 159.012000 413.615000 L 160.277000 413.649000 L 161.543000 413.680000 L 162.809000 413.707000 L 164.075000 413.730000 L 165.341000 413.750000 L 166.607000 413.768000 L 167.873000 413.785000 L 169.139000 413.799000 L 170.405000 413.812000 L 171.671000 413.821000 L 172.937000 413.828000 L 174.203000 413.823000 L 175.469000 413.813000 L 176.734000 413.779000 L 178.000000 413.740000 L 179.265000 413.683000 L 180.529000 413.624000 L 181.793000 413.548000 L 183.057000 413.471000" fill="none" stroke="black" stroke-width="1.0" /><path d="M 136.221000 491.193000 L 136.629000 489.190000 L 137.009000 487.182000 L 137.372000 485.170000 L 137.710000 483.154000 L 138.007000 481.132000 L 138.294000 479.108000 L 138.557000 477.081000 L 138.793000 475.051000 L 139.016000 473.019000 L 139.236000 470.987000 L 139.456000 468.955000 L 139.676000 466.923000 L 139.898000 464.891000 L 140.122000 462.859000 L 140.348000 460.828000 L 140.576000 458.797000 L 140.802000 456.765000 L 141.021000 454.733000 L 141.226000 452.699000 L 141.412000 450.664000 L 141.575000 448.626000 L 141.718000 446.587000 L 141.845000 444.547000 L 141.942000 442.506000 L 141.987000 440.462000 L 141.998000 438.418000 L 141.966000 436.374000 L 141.928000 434.331000 L 141.962000 432.287000 L 142.100000 430.248000 L 142.331000 428.217000" fill="none" stroke="black" stroke-width="1.0" /><path d="M 182.466000 429.155000 L 182.465000 431.504000 L 182.464000 433.854000 L 182.462000 436.203000 L 182.460000 438.552000 L 182.456000 440.902000 L 182.453000 443.251000 L 182.447000 445.600000 L 182.436000 447.949000 L 182.420000 450.299000 L 182.399000 452.648000 L 182.374000 454.997000 L 182.345000 457.346000 L 182.317000 459.695000 L 182.278000 462.044000 L 182.229000 464.393000 L 182.167000 466.742000 L 182.117000 469.091000 L 182.080000 471.440000 L 182.052000 473.789000 L 182.024000 476.138000 L 181.996000 478.487000 L 181.960000 480.836000 L 181.924000 483.185000 L 181.888000 485.534000 L 181.918000 487.883000 L 182.003000 490.230000 L 182.146000 492.575000 L 182.438000 494.907000 L 182.782000 497.230000 L 183.177000 499.546000" fill="none" stroke="black" stroke-width="1.0" /><path d="M 36.757200 481.799000 L 39.968400 482.692000 L 43.223000 483.410000 L 46.517900 483.905000 L 49.837200 484.213000 L 53.158500 484.498000 L 56.481200 484.766000 L 59.804300 485.029000 L 63.127600 485.291000 L 66.450800 485.552000 L 69.774100 485.813000 L 73.097400 486.074000 L 76.420600 486.335000 L 79.743900 486.596000 L 83.067200 486.858000 L 86.390400 487.118000 L 89.713800 487.379000 L 93.037100 487.639000 L 96.360400 487.900000 L 99.683700 488.160000 L 103.007000 488.421000 L 106.330000 488.684000 L 109.653000 488.950000 L 112.975000 489.221000 L 116.298000 489.496000 L 119.619000 489.784000 L 122.936000 490.111000 L 126.248000 490.491000 L 129.565000 490.815000 L 132.891000 491.042000 L 136.221000 491.193000" fill="none" stroke="black" stroke-width="1.0" /><path d="M 181.645000 489.987000 L 185.963000 490.800000 L 190.289000 491.573000 L 194.623000 492.297000 L 198.965000 492.970000 L 203.310000 493.622000 L 207.660000 494.249000 L 212.013000 494.848000 L 216.368000 495.430000 L 220.726000 495.992000 L 225.088000 496.521000 L 229.455000 497.014000 L 233.824000 497.483000 L 238.196000 497.915000 L 242.575000 498.282000 L 246.959000 498.584000 L 251.346000 498.832000 L 255.734000 499.054000 L 260.123000 499.259000 L 264.513000 499.448000 L 268.904000 499.625000 L 273.295000 499.782000 L 277.688000 499.905000 L 282.081000 499.954000 L 286.475000 499.888000 L 290.865000 499.711000 L 295.251000 499.446000 L 299.633000 499.122000 L 304.008000 498.718000 L 308.376000 498.238000 L 312.737000 497.698000" fill="none" stroke="black" stroke-width="1.0" /><path d="M 120.700000 650.646000 L 120.802000 648.473000 L 120.906000 646.301000 L 121.016000 644.129000 L 121.128000 641.957000 L 121.245000 639.785000 L 121.369000 637.614000 L 121.508000 635.443000 L 121.656000 633.274000 L 121.814000 631.104000 L 121.980000 628.936000 L 122.150000 626.768000 L 122.325000 624.600000 L 122.500000 622.432000 L 122.678000 620.265000 L 122.857000 618.097000 L 123.037000 615.930000 L 123.218000 613.762000 L 123.400000 611.595000 L 123.582000 609.428000 L 123.766000 607.261000 L 123.950000 605.094000 L 124.136000 602.927000 L 124.324000 600.760000 L 124.514000 598.593000 L 124.724000 596.429000 L 124.945000 594.265000 L 125.216000 592.107000 L 125.503000 589.952000 L 125.826000 587.801000 L 126.154000 585.651000" fill="none" stroke="black" stroke-width="1.0" /><path d="M 168.981000 652.588000 L 169.024000 650.358000 L 169.069000 648.128000 L 169.114000 645.898000 L 169.160000 643.668000 L 169.208000 641.438000 L 169.257000 639.208000 L 169.305000 636.978000 L 169.359000 634.748000 L 169.419000 632.519000 L 169.488000 630.289000 L 169.578000 628.061000 L 169.677000 625.833000 L 169.783000 623.605000 L 169.891000 621.377000 L 169.998000 619.149000 L 170.103000 616.921000 L 170.203000 614.693000 L 170.297000 612.464000 L 170.387000 610.236000 L 170.475000 608.007000 L 170.555000 605.778000 L 170.630000 603.549000 L 170.699000 601.320000 L 170.759000 599.090000 L 170.812000 596.860000 L 170.862000 594.630000 L 170.912000 592.400000 L 170.972000 590.171000 L 171.037000 587.941000 L 171.104000 585.712000" fill="none" stroke="black" stroke-width="1.0" /></svg>