<?xml version="1.0" standalone="no" ?>
<!DOCTYPE svg PUBLIC "-//W3C//DTD SVG 1.1//EN" "http://www.w3.org/Graphics/SVG/1.1/DTD/svg11.dtd">
<svg width="500px" height="670px" xmlns="http://www.w3.org/2000/svg" version="1.1" >
	<image style="overflow: visible; opacity: 0.4" width="500" height="670" href="C:\Users\bmpix\Documents\mit\projects\vectorization\polyvector_thing\cpp\polyvector_thing\x64\Release\binary_to_share\building_0500.png" transform="matrix(1 0 -0.5 0 1 0 )" />
	<polyline points="168.137,11.1491 164.917,10.9525 159.528,10.617 152.443,10.1645 146.256,9.75975 144.361,9.63284 143.064,9.54693 141.866,9.47551 139.471,9.35758 137.775,9.30322 136.78,9.3073 135.589,9.36789 134.304,9.49069 133.833,9.5756 131.898,10.0741 129.811,10.6603 129.625,10.7296 128.121,11.436 126.847,12.062 126.695,12.1501 126.209,12.4804 126.008,12.615 125.578,12.8879 123.685,14.0467 120.433,16.0112 116.895,18.1357 " fill="none" stroke-width="1" stroke="rgb(232,26,75)" />
	<polyline points="113.215,13.4496 114.216,12.7438 117.007,10.8037 117.839,10.2592 118.526,9.8661 119.59,9.34006 120.267,9.06221 121.254,8.73591 122.219,8.46743 122.315,8.45892 122.74,8.50012 123.021,8.53478 123.119,8.5429 123.306,8.54449 125.093,8.49896 125.266,8.49295 126.258,8.45422 126.502,8.45314 128.246,8.51592 128.548,8.55054 128.598,8.5789 129.205,9.27604 129.235,9.29229 129.404,9.30099 129.971,9.26975 130.757,9.20178 130.952,9.18278 131.846,9.09394 132.026,9.07761 132.189,9.06384 132.305,9.05321 134.062,8.88581 134.551,8.85639 135.344,8.84632 135.663,8.85708 136.557,8.9215 137.352,8.99196 138.244,9.0849 139.877,9.27094 140.137,9.3021 " fill="none" stroke-width="1" stroke="rgb(232,26,75)" />
	<polyline points="168.137,11.1491 171.806,11.3406 177.099,11.619 183.789,11.9739 194.774,12.5583 200.166,12.8418 211.051,13.4013 213.249,13.5046 217.145,13.6665 224.739,13.9676 229.235,14.1486 231.033,14.227 232.631,14.3025 234.828,14.4051 235.526,14.427 237.424,14.445 240.222,14.4173 241.707,14.3453 242.365,14.2555 243.806,13.954 244.995,13.7109 246.02,13.5609 249.146,13.2793 250.735,13.2006 252.332,13.1914 254.331,13.2362 266.024,13.6212 267.823,13.6833 269.122,13.7288 269.921,13.7553 271.02,13.7893 273.219,13.857 274.617,13.9048 275.316,13.9341 276.813,14.0045 277.412,14.0295 281.808,14.1878 283.406,14.245 285.205,14.3109 294.998,14.6782 298.295,14.8057 301.891,14.9517 302.689,14.9878 304.186,15.0609 304.885,15.0925 308.78,15.2522 310.279,15.3129 312.177,15.3905 320.918,15.7528 324.266,15.8942 326.763,16.0032 327.462,16.0358 328.954,16.1093 329.046,16.1131 330.009,16.147 332.905,16.2545 335.802,16.3737 342.795,16.6867 344.592,16.775 346.589,16.8841 348.984,17.0221 351.18,17.1499 353.675,17.2914 355.372,17.3812 361.063,17.6641 361.548,17.6866 361.729,17.6945 362.11,17.7121 363.92,17.8051 365.303,17.8838 367.698,18.0315 369.294,18.1319 369.992,18.1735 371.989,18.2822 373.236,18.3428 375.183,18.4264 375.797,18.451 375.952,18.4573 380.078,18.6339 381.875,18.7193 383.272,18.7986 385.666,18.9537 387.661,19.0924 389.555,19.2307 390.873,19.3293 " fill="none" stroke-width="1" stroke="rgb(232,26,75)" />
	<polyline points="334.893,24.117 333.149,23.9753 331.854,23.8694 330.06,23.7227 328.466,23.5939 326.871,23.4681 320.192,22.948 318.896,22.8457 317.202,22.709 315.408,22.5631 314.013,22.4507 312.817,22.3568 306.336,21.8565 304.941,21.7474 303.246,21.6125 301.353,21.4603 300.057,21.3568 298.861,21.2628 293.876,20.8746 290.985,20.6475 289.49,20.5274 287.498,20.3644 286.102,20.251 284.807,20.1483 277.23,19.557 276.034,19.4619 274.141,19.3075 273.045,19.2176 271.749,19.1124 263.178,18.422 261.284,18.2704 259.989,18.1678 258.792,18.0734 249.922,17.3644 248.13,17.2025 247.041,17.0742 245.96,16.9088 243.24,16.4365 242.504,16.3083 240.072,15.9019 238.103,15.5983 234.906,15.1448 234.691,15.1219 232.574,14.9707 229.183,14.7508 224.692,14.481 219.217,14.1649 219.084,14.1555 216.91,13.9717 216.79,13.9626 213.265,13.7229 211.172,13.5717 206.298,13.1991 206.171,13.189 " fill="none" stroke-width="1" stroke="rgb(232,26,75)" />
	<polyline points="113.215,13.4496 112.122,14.2838 110.776,15.3214 108.178,17.3551 106.899,18.3914 105.388,19.6708 103.574,21.2396 102.863,21.8445 99.8618,24.3207 98.7632,25.1677 94.9537,27.9129 93.8048,28.7123 89.9944,31.2888 81.1092,37.2503 75.9512,40.6894 71.5063,43.6297 71.3283,43.7394 71.1006,43.8673 " fill="none" stroke-width="1" stroke="rgb(232,26,75)" />
	<polyline points="116.895,18.1357 116.526,18.3108 116.336,18.4024 114.589,19.2634 114.488,19.3146 114.338,19.3932 113.222,19.9921 107.376,23.1158 107.166,23.199 106.472,23.367 106.178,23.4213 106.11,23.4282 105.588,23.4616 104.685,23.5604 104.368,23.6492 103.226,24.1866 100.942,25.4025 98.7616,26.6234 97.2449,27.494 97.1362,27.5559 95.3274,28.569 95.165,28.6629 92.0076,30.5441 91.8605,30.6311 87.8965,32.9489 87.7841,32.9929 87.6699,33.0027 87.4915,32.9883 " fill="none" stroke-width="1" stroke="rgb(232,26,75)" />
	<polyline points="390.873,19.3293 392.349,19.3862 392.447,19.3896 395.572,19.4897 395.755,19.498 397.84,19.6243 399.336,19.723 401.031,19.846 402.925,19.9933 404.519,20.1237 406.313,20.2758 411.792,20.7492 414.681,21.0008 416.075,21.1235 418.167,21.3094 424.84,21.9062 426.931,22.0964 428.025,22.1998 429.12,22.3074 430.314,22.4289 434.988,22.9159 437.337,23.1687 441.149,23.5968 444.824,24.025 447.106,24.3045 450.181,24.7002 454.443,25.2661 455.928,25.4707 458.403,25.8263 463.051,26.5166 464.629,26.7695 465.313,26.9001 470.008,27.8958 471.277,28.1422 474.255,28.6394 478.191,29.2277 480.964,29.5981 483.42,29.8983 " fill="none" stroke-width="1" stroke="rgb(232,26,75)" />
	<polyline points="334.893,24.117 341.726,24.5983 343.023,24.6917 344.319,24.7882 346.213,24.9307 348.008,25.0637 349.304,25.156 356.886,25.6813 357.983,25.7586 359.379,25.8594 361.373,26.0036 363.069,26.1228 364.266,26.202 372.748,26.7396 374.045,26.8235 375.641,26.93 377.636,27.0638 379.033,27.1548 381.727,27.324 387.217,27.6633 388.913,27.7692 390.31,27.8588 392.605,28.009 394.3,28.1196 394.999,28.1632 396.995,28.2808 398.284,28.3536 400.09,28.4516 406.281,28.7816 409.077,28.9306 410.974,29.0318 413.369,29.1584 416.564,29.3235 418.261,29.4063 420.359,29.5001 424.055,29.655 429.151,29.8606 430.85,29.9257 432.448,29.9822 433.847,30.0285 436.345,30.11 437.643,30.1565 438.342,30.1862 439.74,30.2512 440.438,30.2796 441.936,30.3288 444.135,30.3932 445.634,30.4353 447.333,30.4821 448.732,30.5184 451.131,30.574 453.491,30.6225 461.129,30.7716 463.228,30.8214 465.426,30.8923 472.82,31.1751 478.715,31.4182 480.811,31.5148 482.208,31.588 483.509,31.6618 " fill="none" stroke-width="1" stroke="rgb(232,26,75)" />
	<polyline points="184.982,88.543 187.268,88.6405 195.16,88.977 196.885,89.0509 198.956,89.1412 202.95,89.3186 203.623,89.3505 203.73,89.357 205.024,89.4464 205.92,89.4978 209.714,89.6727 211.212,89.7331 213.111,89.7977 224.605,90.1553 228.203,90.2599 230.001,90.3055 233.9,90.3966 235.398,90.4368 236.296,90.468 237.794,90.5269 238.493,90.5503 240.207,90.5932 243.99,90.6774 245.489,90.7132 246.488,90.742 248.286,90.7998 250.385,90.8654 252.484,90.9231 261.081,91.1366 261.201,91.139 265.773,91.2137 279.07,91.4672 282.663,91.5769 284.618,91.6826 284.91,91.7172 285.543,91.8183 286.408,91.9099 288.944,92.0093 318.73,92.4309 322.53,92.4698 324.304,92.4788 324.525,92.4755 327.748,92.3663 329.745,92.2855 334.398,92.0685 334.667,92.0508 339.285,91.6647 348.453,90.9039 350.246,90.7725 352.041,90.6729 354.038,90.5942 362.033,90.3368 364.831,90.2355 366.127,90.1659 367.319,90.0658 368.206,89.9536 368.986,89.8108 370.049,89.5569 371.001,89.2801 371.748,89.0174 372.95,88.5331 373.956,88.0937 374.868,87.6697 375.942,87.15 377.017,86.6179 377.911,86.17 378.894,85.6753 380.055,85.0916 383.274,83.4805 389.304,80.4735 389.406,80.4276 389.514,80.385 " fill="none" stroke-width="1" stroke="rgb(232,26,75)" />
	<polyline points="189.212,96.6274 194.172,97.1819 198.926,97.7112 200.119,97.8409 201.412,97.9754 202.905,98.123 204.099,98.2329 205.294,98.333 211.774,98.8431 212.97,98.9338 214.067,99.0121 215.56,99.1147 215.694,99.1233 217.604,99.2408 219.5,99.3586 226.586,99.8026 227.983,99.89 230.178,100.026 230.876,100.069 232.074,100.138 232.872,100.179 235.868,100.316 236.667,100.351 238.365,100.417 240.063,100.474 241.662,100.512 249.861,100.648 252.46,100.673 258.259,100.68 263.859,100.656 266.258,100.623 273.655,100.464 275.754,100.405 277.252,100.348 280.847,100.182 283.042,100.069 285.138,99.9495 286.934,99.836 291.823,99.5055 293.917,99.3548 295.013,99.2665 296.108,99.1668 297.401,99.0383 298.992,98.8712 300.086,98.7504 304.953,98.1903 306.242,98.0305 309.314,97.613 312.725,97.1126 314.745,96.7722 316.207,96.4651 319.773,95.5862 322.66,94.8209 323.737,94.5205 325.612,94.0006 327.137,93.6208 328.402,93.3657 330.767,92.9758 334.445,92.4129 334.64,92.3794 334.644,92.3759 334.687,92.1686 " fill="none" stroke-width="1" stroke="rgb(232,26,75)" />
	<polyline points="483.826,34.722 482.526,35.126 482.15,35.2505 481.777,35.3869 480.939,35.7098 480.064,36.0494 479.77,36.1602 478.794,36.512 476.303,37.3856 476.136,37.4301 475.923,37.463 475.026,37.5778 473.036,37.8874 471.996,38.1154 470.322,38.5882 470.178,38.6404 468.516,39.366 466.899,40.0784 466.798,40.1221 464.11,41.2696 463.901,41.3595 463.013,41.7454 460.737,42.7393 460.605,42.8003 459.002,43.5795 458.016,44.0653 456.943,44.6013 455.96,45.0955 454.889,45.6357 453.501,46.3354 453.305,46.4345 451.839,47.1788 " fill="none" stroke-width="1" stroke="rgb(232,26,75)" />
	<polyline points="457.531,50.1776 459.136,49.3203 460.812,48.4272 463.992,46.7389 471.987,42.4956 473.971,41.4399 476.633,40.0215 477.855,39.3743 479.008,38.7744 479.899,38.3225 481.065,37.7481 482.055,37.2716 484.11,36.2978 " fill="none" stroke-width="1" stroke="rgb(232,26,75)" />
	<polyline points="451.839,47.1788 449.725,48.3981 446.784,50.103 444.195,51.6166 434.843,57.116 434.042,57.5861 430.473,59.6703 428.052,61.0662 427.14,61.5741 426.034,62.1658 425.059,62.6744 423.992,63.2233 422.034,64.2255 420.52,64.9987 405.633,72.5913 405.412,72.7018 401.944,74.3938 396.558,77.0179 396.453,77.0687 389.925,80.2097 389.833,80.2513 389.514,80.385 " fill="none" stroke-width="1" stroke="rgb(232,26,75)" />
	<polyline points="457.531,50.1776 454.89,51.5558 453.86,52.089 453.737,52.148 452.901,52.5226 451.366,53.2042 451.147,53.3018 445.39,55.8927 445.243,55.96 443.701,56.6734 439.972,58.3732 437.793,59.3254 437.652,59.3533 437.196,59.3328 435.886,59.2535 435.162,59.2935 434.069,59.5401 432.874,59.9803 425.589,63.2021 425.481,63.2458 425.202,63.3459 424.97,63.4345 422.248,64.5477 421.162,64.9938 421.027,65.0464 419.896,65.4603 419.768,65.4979 419.639,65.5215 419.519,65.5358 " fill="none" stroke-width="1" stroke="rgb(232,26,75)" />
	<polyline points="27.4392,73.0863 28.2774,72.9031 29.4444,72.634 29.8609,72.52 30.0953,72.4318 30.2634,72.3396 31.3364,71.6136 32.1452,71.0298 38.9352,65.9251 40.2384,64.9273 40.4706,64.7368 41.2114,64.0969 41.3667,63.9759 44.8791,61.5244 46.1168,60.6779 60.8819,50.7371 67.0226,46.6079 71.1006,43.8673 " fill="none" stroke-width="1" stroke="rgb(232,26,75)" />
	<polyline points="27.6362,69.7461 28.1465,69.4375 29.005,68.9267 29.8707,68.4278 31.9657,67.2623 39.1471,63.3413 39.6017,63.1123 40.3187,62.7821 40.5512,62.6669 41.6767,62.0509 45.7779,59.7606 47.7391,58.6728 47.9027,58.5932 48.0434,58.5394 48.2076,58.4824 48.4312,58.3949 48.592,58.3109 53.018,55.5631 56.9293,53.1386 57.033,53.0929 57.2652,53.0394 57.5069,53.0008 " fill="none" stroke-width="1" stroke="rgb(232,26,75)" />
	<polyline points="184.982,88.543 183.573,88.457 180.879,88.2939 179.182,88.1937 178.584,88.1613 176.087,88.0378 172.991,87.8871 166.099,87.5505 164.102,87.449 162.605,87.3667 160.11,87.2214 157.815,87.0844 155.619,86.952 153.623,86.8317 146.936,86.4292 145.139,86.321 143.941,86.2521 142.543,86.1854 140.148,86.1119 138.857,86.119 132.278,86.3553 131.504,86.3971 131.133,86.4214 130.981,86.4228 126.674,86.2352 124.776,86.1678 122.184,86.1179 118.405,86.0977 117.906,86.1099 117.432,86.1323 117.294,86.1287 111.951,85.5858 97.2343,84.0316 85.3045,82.7392 77.1552,81.8317 71.0947,81.1402 66.2274,80.5757 58.1821,79.6375 51.2291,78.8292 50.1362,78.7057 49.0428,78.5883 47.7498,78.4552 43.0738,77.9835 41.084,77.7843 39.0939,77.589 36.9042,77.3843 34.9125,77.2159 33.3175,77.1047 31.4219,77.0067 30.4258,76.9808 29.4298,76.9863 27.0846,77.0399 " fill="none" stroke-width="1" stroke="rgb(232,26,75)" />
	<polyline points="189.212,96.6274 183.527,95.9641 179.754,95.5175 174.393,94.8691 170.821,94.4246 165.782,93.7784 161.897,93.2668 157.041,92.6122 154.862,92.3111 150.902,91.7513 146.844,91.1672 142.195,90.4781 138.837,89.9481 135.195,89.3183 132.177,88.7439 131.149,88.5227 130.478,88.3641 129.131,88.0501 126.418,87.4693 125.145,87.2461 122.869,86.9411 117.324,86.2854 " fill="none" stroke-width="1" stroke="rgb(232,26,75)" />
	<polyline points="27.6362,69.7461 27.537,71.2017 27.4097,72.9967 27.3394,73.8933 27.152,76.0847 26.9865,77.9773 26.8673,79.372 26.7327,81.066 26.5311,83.8578 26.3778,86.2522 25.8313,95.636 25.5414,100.828 24.7686,115.107 24.2459,124.893 23.9682,130.186 23.162,145.764 22.6727,155.252 22.4183,160.145 22.0521,167.035 21.6686,174.024 21.0498,185.018 21.0406,185.14 21.0167,185.375 20.7267,187.986 20.4798,190.07 20.2141,192.047 19.9395,193.8 19.6499,195.455 19.4573,196.531 18.7243,200.818 18.437,202.781 18.1806,205.061 17.9979,207.152 17.8718,208.947 17.7007,211.741 17.3795,217.232 17.2174,220.027 17.0553,222.821 16.9278,225.017 16.8125,227.013 16.7451,228.211 16.662,229.743 16.3234,236.1 16.2276,237.897 16.1472,239.395 16.0073,241.99 15.8845,244.286 15.7427,246.982 15.677,248.28 15.5951,249.978 15.2618,257.07 15.1777,258.868 15.1166,260.166 14.9878,262.862 14.9575,263.461 14.8671,265.158 14.7187,267.953 14.6535,269.251 14.575,270.949 14.2165,279.041 14.1364,280.839 14.082,282.038 14.0546,282.631 " fill="none" stroke-width="1" stroke="rgb(232,26,75)" />
	<polyline points="18.7515,303.895 18.7824,302.998 18.8018,302.299 18.8711,299.196 18.8757,299.057 18.9109,298.28 18.9709,296.983 19.0061,296.184 19.1774,292.089 19.2689,289.892 19.3407,288.193 19.7002,279.801 19.7645,278.303 19.8237,276.904 19.8602,276.005 20.012,272.209 20.043,271.511 20.1117,270.114 20.1442,269.415 20.3017,265.72 20.3767,263.822 20.4565,261.627 20.4639,261.404 20.4686,261.252 20.6944,253.929 20.7507,252.23 20.8021,250.832 20.8337,250.033 20.9776,246.536 21.0042,245.938 21.0605,244.739 21.0953,243.941 21.2394,240.245 21.2853,238.846 21.3359,236.848 21.3792,234.841 21.3827,234.686 21.395,234.244 21.5819,228.051 21.6373,226.352 21.6926,224.853 21.8523,220.857 21.8863,220.058 21.9517,218.56 21.9769,217.862 22.1037,213.265 22.1258,211.767 22.1108,209.768 21.8927,200.214 21.8027,198.376 21.7189,197.537 21.645,197.02 21.5189,196.17 21.5041,195.946 21.5401,192.73 21.5955,189.932 21.6728,187.034 21.7357,185.142 21.8525,182.138 22.1864,174.045 22.2567,172.346 22.3547,169.849 22.4244,167.75 22.55,163.053 22.8028,152.469 22.8097,152.148 " fill="none" stroke-width="1" stroke="rgb(232,26,75)" />
	<polyline points="42.0661,253.372 42.367,250.17 42.5117,248.577 42.5769,247.78 42.7002,246.085 42.8329,244.123 42.962,242.096 43.1386,239.201 43.4621,233.811 43.5583,232.214 43.6378,230.913 43.7419,229.22 43.8821,226.925 44.0375,224.331 44.1237,222.834 44.2167,221.136 44.5488,214.945 44.7119,211.95 44.8197,210.054 44.8638,209.34 44.9414,208.158 44.9796,207.56 45.1185,205.265 45.2117,203.668 45.5986,196.879 45.6962,195.182 45.7673,193.984 45.8843,192.088 45.9294,191.39 46.0157,190.093 46.0536,189.495 46.2081,186.9 46.3246,184.904 46.4254,183.165 46.7362,177.816 46.9012,175.022 47.0164,173.126 47.1466,171.03 47.2892,168.735 47.4167,166.64 47.5227,164.843 47.875,158.854 48.0652,155.86 48.2037,154.068 48.2833,153.379 48.3874,152.797 48.5999,151.885 48.7748,151.254 48.9302,150.783 49.2436,149.943 49.5144,149.272 49.5876,149.124 49.6419,149.05 50.458,148.177 50.6689,147.97 50.819,147.845 51.0607,147.671 51.6403,147.28 51.9722,147.058 53.0516,146.334 54.3794,145.442 55.8742,144.439 57.1233,143.609 58.8793,142.458 67.2661,137.015 69.0347,135.89 69.6224,135.54 69.9082,135.39 70.0047,135.353 70.4686,135.235 70.8574,135.155 71.2485,135.097 71.8411,135.042 72.5366,135.008 73.6335,134.994 74.4306,135.011 75.3262,135.065 76.1183,135.149 76.904,135.273 79.8588,135.848 79.9733,135.898 80.0422,135.978 80.274,136.421 80.2976,136.448 80.4398,136.529 80.9925,136.77 81.1591,136.813 83.3709,137.076 85.0608,137.24 87.2532,137.405 100.225,138.251 104.017,138.486 109.008,138.782 117.293,139.272 122.783,139.61 124.877,139.755 126.67,139.901 128.959,140.113 130.152,140.235 130.806,140.311 130.895,140.325 131.823,140.53 131.905,140.557 132.399,140.771 132.931,140.988 133.524,141.205 134.188,141.444 134.954,141.771 135.372,142.03 136.426,142.88 " fill="none" stroke-width="1" stroke="rgb(232,26,75)" />
	<polyline points="48.7761,151.002 49.2008,151.001 49.7998,151.005 50.3978,151.019 51.796,151.071 53.294,151.138 54.9916,151.223 56.5893,151.308 62.0809,151.609 65.076,151.777 66.7728,151.875 67.3712,151.912 68.768,152.001 69.2664,152.029 71.8629,152.154 73.2613,152.216 75.3593,152.302 85.0513,152.69 86.7496,152.757 88.2483,152.813 89.2471,152.845 90.646,152.881 93.9449,152.957 95.5437,152.994 96.2427,153.011 98.0407,153.054 99.9372,153.088 110.135,153.225 111.735,153.239 113.134,153.239 114.633,153.218 115.629,153.181 116.922,153.093 117.611,153.015 118.394,152.88 119.463,152.643 120.327,152.41 121.656,151.987 122.304,151.741 123.855,151.066 124.89,150.585 125.011,150.521 125.059,150.49 125.174,150.401 126.044,149.725 126.139,149.659 127.939,148.513 128.075,148.431 130.044,147.313 131.781,146.325 132.385,145.971 133.715,145.164 133.906,145.035 133.927,145.012 134.308,144.332 134.495,144.106 135.058,143.664 135.475,143.406 135.91,143.176 136.101,143.074 136.288,142.966 136.426,142.88 " fill="none" stroke-width="1" stroke="rgb(232,26,75)" />
	<polyline points="180.112,141.934 180.698,141.873 181.291,141.824 181.986,141.79 182.782,141.777 183.28,141.786 184.502,141.839 185.777,141.903 188.972,142.07 194.265,142.342 199.458,142.604 203.054,142.781 205.151,142.879 208.648,143.032 211.745,143.156 213.844,143.226 222.233,143.459 230.237,143.654 234.934,143.746 237.433,143.779 238.632,143.79 240.231,143.806 241.728,143.836 245.123,143.936 246.667,143.991 247.31,144.018 " fill="none" stroke-width="1" stroke="rgb(232,26,75)" />
	<polyline points="231.785,155.843 233.538,154.358 235.297,152.877 237.525,151.022 238.887,149.914 240.804,148.403 241.602,147.808 242.011,147.539 242.267,147.407 242.53,147.311 242.822,147.243 243.113,147.208 244.008,147.161 245.005,147.134 246.003,147.124 247.088,147.123 " fill="none" stroke-width="1" stroke="rgb(232,26,75)" />
	<polyline points="136.426,142.88 138.902,142.178 140.541,141.695 140.8,141.601 141.619,141.241 143.631,140.357 145.72,139.506 146.514,139.246 147.069,139.122 147.172,139.115 147.584,139.136 147.997,139.164 " fill="none" stroke-width="1" stroke="rgb(232,26,75)" />
	<polyline points="133.559,256 133.566,255.94 133.579,255.779 133.797,251.918 133.866,250.421 133.927,248.523 133.932,247.925 133.92,247.227 133.837,244.329 133.812,243.133 133.811,242.337 133.83,241.138 133.844,240.539 133.88,239.04 133.943,236.441 133.975,235.242 134.003,234.343 134.055,232.805 134.115,231.045 134.544,218.353 134.615,216.255 134.659,214.956 134.688,214.057 134.721,212.957 134.786,210.759 134.832,209.34 134.858,208.762 134.935,207.264 134.964,206.666 135.021,205.368 135.151,202.271 135.289,199.075 135.6,192.182 135.697,190.185 135.799,188.288 135.93,185.993 136.06,183.797 136.221,181.103 136.306,179.706 136.673,173.817 136.778,172.221 136.877,170.825 137.007,169.13 137.174,167.037 137.257,166.041 137.37,164.746 137.859,159.268 138.101,156.58 138.236,155.086 138.333,153.991 138.434,152.795 138.913,147.016 139.003,145.92 139.036,145.522 139.087,144.825 139.107,144.428 139.124,143.731 139.125,143.133 139.116,142.534 139.076,140.938 139.07,140.682 139.067,140.263 139.071,139.967 139.08,139.677 139.084,139.612 139.084,139.612 139.201,141.259 139.195,141.664 139.137,142.04 139.078,142.274 " fill="none" stroke-width="1" stroke="rgb(232,26,75)" />
	<polyline points="180.112,141.934 179.647,142.165 179.478,142.247 178.47,142.735 178.021,142.955 176.951,143.495 176.245,143.867 175.639,144.212 174.532,144.888 173.949,145.27 173.301,145.736 172.294,146.52 169.959,148.433 166.229,151.589 164.809,152.848 164.49,153.171 164.074,153.651 " fill="none" stroke-width="1" stroke="rgb(232,26,75)" />
	<polyline points="163.838,155.721 163.691,157.213 163.509,159.204 163.368,160.996 163.273,162.591 163.151,165.387 162.866,173.078 162.577,181.076 162.345,187.071 162.15,191.466 161.901,196.259 161.495,203.246 160.854,213.696 160.323,222.209 159.773,231.092 159.535,235.185 159.387,238.08 159.224,241.776 159.095,245.073 158.789,253.267 158.718,255.065 158.609,257.616 " fill="none" stroke-width="1" stroke="rgb(232,26,75)" />
	<polyline points="178.655,159.546 172.799,158.673 170.83,158.353 168.629,157.957 168.459,157.918 168.393,157.896 168.199,157.813 167.334,157.433 166.836,157.215 166.627,157.126 166.494,157.07 165.869,156.805 165.454,156.601 164.901,156.241 164.591,155.92 164.389,155.501 164.048,154.2 163.98,153.849 " fill="none" stroke-width="1" stroke="rgb(232,26,75)" />
	<polyline points="178.655,159.546 183.015,159.942 187.297,160.292 190.678,160.512 193.243,160.623 193.759,160.617 195.613,160.502 195.761,160.494 202.708,160.201 203.215,160.163 204.883,159.982 205.289,159.952 210.381,159.77 215.877,159.595 219.674,159.48 222.056,159.406 222.168,159.4 223.609,159.284 225.7,159.1 226.093,159.051 226.481,158.978 227.059,158.833 227.532,158.686 227.876,158.548 228.429,158.28 229.154,157.897 229.232,157.85 229.301,157.8 229.823,157.392 230.372,156.96 230.999,156.465 231.785,155.843 " fill="none" stroke-width="1" stroke="rgb(232,26,75)" />
	<polyline points="226.953,166.27 224.292,166.002 222.603,165.821 219.723,165.482 214.763,164.856 210.802,164.311 207.149,163.752 204.226,163.259 203.231,163.076 202.197,162.88 197.758,162.053 193.385,161.249 193.229,161.217 192.129,160.968 192.022,160.943 " fill="none" stroke-width="1" stroke="rgb(232,26,75)" />
	<polyline points="110.554,257.553 110.744,255.286 110.85,253.99 110.987,252.196 111.07,251 111.207,248.804 111.565,242.615 111.869,237.085 112.494,225.141 113.106,213.156 113.224,210.76 113.561,203.768 113.755,200.073 114.113,194.183 114.363,190.899 114.637,188.221 114.868,186.55 115.365,183.567 115.502,182.786 115.918,180.406 116.137,179.031 116.25,178.141 116.445,176.151 117.149,168.283 117.262,166.988 117.39,165.494 117.521,163.9 117.698,161.607 117.958,158.017 118.084,156.122 118.277,153.014 " fill="none" stroke-width="1" stroke="rgb(232,26,75)" />
	<polyline points="112.501,165 112.505,165.012 112.668,165.711 112.949,167.306 113.276,170.021 113.42,172.102 113.5,174.462 113.502,174.614 113.501,175.4 113.494,177.4 113.446,186.031 113.401,190.899 113.359,192.896 113.189,198.093 112.853,206.986 112.679,210.981 111.991,225.164 111.301,238.847 111.083,242.856 110.81,247.432 110.587,250.823 110.488,252.118 110.363,253.512 110.205,255.104 109.947,257.591 " fill="none" stroke-width="1" stroke="rgb(232,26,75)" />
	<polyline points="326.429,166.488 326.233,168.05 325.856,171.126 325.205,176.586 325.03,178.176 324.85,180.067 324.701,181.959 324.522,184.752 324.201,190.742 324.048,194.237 323.935,197.733 323.888,199.931 323.841,203.23 323.789,206.83 323.736,209.328 323.623,213.025 323.308,221.518 323.151,225.114 323.048,226.91 322.904,228.804 322.491,233.383 322.326,234.87 321.91,237.939 321.49,240.702 321.432,240.912 320.889,242.194 319.612,244.973 319.239,245.714 319.208,245.742 318.983,245.821 318.964,245.825 318.576,245.872 318.559,245.874 318.336,245.893 318.322,245.896 318.146,245.958 318.113,245.97 " fill="none" stroke-width="1" stroke="rgb(232,26,75)" />
	<polyline points="323.327,256.826 323.308,256.576 323.237,255.48 323.209,254.784 323.183,253.087 323.185,251.088 323.227,247.189 323.261,245.29 323.297,243.891 323.386,241.006 323.454,239.094 323.575,235.996 323.646,234.398 323.756,232.202 323.92,229.006 324.059,226.11 324.191,222.913 324.554,212.821 324.666,209.024 324.742,205.326 324.776,202.927 324.813,199.828 324.848,198.03 324.96,194.333 325.086,191.338 325.411,185.148 325.607,181.955 325.729,180.361 325.932,178.114 326.079,176.679 326.453,173.3 326.685,171.314 326.766,170.72 327.405,166.451 " fill="none" stroke-width="1" stroke="rgb(232,26,75)" />
	<polyline points="344.142,152.465 343.396,153.897 342.886,154.932 342.888,154.968 343.701,156.219 343.758,156.379 343.886,157.923 343.973,160.215 344.028,164.513 344.021,167.312 343.972,170.21 343.882,173.608 343.749,177.706 343.62,181.403 343.466,185.9 343.362,189.298 343.089,199.294 342.918,206.092 342.734,213.99 342.618,219.188 342.436,227.286 342.26,234.484 342.137,238.681 342.04,241.077 341.978,241.963 341.914,242.46 341.814,242.942 341.705,243.314 341.614,243.536 341.55,243.64 341.302,243.939 341.033,244.232 340.192,245.086 338.996,246.268 336.687,248.508 335.672,249.471 332.52,252.395 328.408,256.167 328.327,256.223 328.117,256.311 327.981,256.352 327.808,256.391 327.733,256.401 327.61,256.405 327.376,256.387 327.303,256.362 325.832,255.503 325.716,255.463 325.623,255.476 325.129,255.715 324.263,256.201 323.838,256.461 323.165,256.891 322.827,257.098 322.566,257.237 321.865,257.554 321.29,257.779 320.726,257.956 319.956,258.146 319.078,258.316 318.092,258.463 315.116,258.83 313.228,259.032 312.134,259.12 309.84,259.247 303.947,259.506 301.35,259.595 290.155,259.901 284.857,260.043 282.858,260.099 276.262,260.283 273.165,260.35 269.667,260.388 266.469,260.389 265.07,260.369 263.891,260.33 262.874,260.281 261.908,260.227 " fill="none" stroke-width="1" stroke="rgb(232,26,75)" />
	<polyline points="332.22,166.162 332.783,165.523 333.589,164.635 334.692,163.479 337.672,160.53 341.223,157.192 341.315,157.182 342.823,158.125 344.097,159.012 " fill="none" stroke-width="1" stroke="rgb(232,26,75)" />
	<polyline points="44.8418,348.355 45.6059,348.353 46.3043,348.36 49.0015,348.428 50.7983,348.497 52.5934,348.601 55.0847,348.785 56.8765,348.942 58.3682,349.094 62.0454,349.502 63.8337,349.706 65.1252,349.853 67.4108,350.109 78.1462,351.283 87.8903,352.32 91.5713,352.682 98.0449,353.253 103.227,353.672 111.204,354.273 122.074,355.068 124.767,355.266 126.063,355.364 127.408,355.47 132.841,355.902 134.237,356.003 137.33,356.197 139.724,356.323 141.92,356.408 143.218,356.435 147.817,356.465 149.316,356.455 152.912,356.371 154.305,356.294 156.276,356.103 157.58,355.933 157.955,355.872 157.962,355.87 " fill="none" stroke-width="1" stroke="rgb(232,26,75)" />
	<polyline points="157.962,355.87 157.969,355.871 " fill="none" stroke-width="1" stroke="rgb(232,26,75)" />
	<polyline points="316.09,364.008 316.289,368.904 316.502,374.2 316.565,375.898 316.624,377.798 316.653,379.095 316.746,385.194 316.767,386.893 316.775,387.993 316.776,388.592 316.772,390.392 316.77,392.191 316.781,396.991 316.798,400.69 316.82,403.99 316.833,405.989 316.856,411.989 316.88,428.389 316.86,436.287 316.774,449.035 316.762,449.545 316.557,454.704 316.323,460.398 316.037,467.191 315.94,469.188 315.786,471.782 315.477,476.271 315.305,478.354 315.136,479.95 314.83,482.328 314.177,486.88 313.126,493.798 312.142,500.018 311.623,503.175 311.138,506.033 310.934,507.213 " fill="none" stroke-width="1" stroke="rgb(232,26,75)" />
	<polyline points="318.102,481.988 318.106,481.892 318.304,477.484 318.429,474.188 318.532,470.491 318.688,462.693 318.811,454.794 318.851,450.595 318.865,445.696 318.852,435.396 318.827,429.696 318.754,419.597 318.668,409.997 318.608,404.198 318.584,402.198 318.567,400.698 318.545,398.599 318.505,394.299 318.454,389.101 318.441,388.202 318.415,386.903 318.401,386.103 318.381,384.704 318.343,381.504 " fill="none" stroke-width="1" stroke="rgb(232,26,75)" />
	<polyline points="98.6837,378.849 98.5363,378.818 98.383,378.785 98.2841,378.765 97.9598,378.711 97.6312,378.679 97.4349,378.689 96.2736,378.884 95.0945,379.1 93.3275,379.412 92.0369,379.598 91.587,379.616 90.1539,379.538 89.5836,379.492 89.3745,379.475 89.2639,379.474 88.6653,379.51 88.4977,379.527 88.3602,379.554 88.2112,379.602 87.8199,379.773 86.1227,380.606 84.2668,381.572 82.1661,382.721 80.3397,383.754 79.3374,384.33 79.2358,384.388 78.9105,384.577 78.8123,384.644 78.1231,385.198 77.6122,385.639 75.769,387.324 74.8973,388.147 73.6768,389.329 72.7445,390.234 71.6711,391.264 71.0894,391.81 70.9822,391.908 " fill="none" stroke-width="1" stroke="rgb(232,26,75)" />
	<polyline points="76.0936,396.125 76.7078,395.498 77.7628,394.433 79.3944,392.813 80.5441,391.702 81.7143,390.614 82.9803,389.482 83.892,388.706 84.6709,388.083 85.3914,387.548 86.7857,386.572 87.7781,385.91 89.962,384.502 91.747,383.367 91.8661,383.293 92.3334,383.017 92.8451,382.725 93.0032,382.645 94.0311,382.182 95.6698,381.444 96.2061,381.181 97.3431,380.554 97.5712,380.386 97.7308,380.202 98.1001,379.644 98.2949,379.343 98.44,379.138 98.5725,378.974 98.6837,378.849 " fill="none" stroke-width="1" stroke="rgb(232,26,75)" />
	<polyline points="114.95,374.104 114.899,374.168 114.828,374.24 114.56,374.459 114.162,374.733 113.57,375.071 112.475,375.614 112.07,375.779 109.869,376.519 109.695,376.549 109.473,376.533 108.926,376.442 108.781,376.432 108.585,376.457 107.105,376.801 105.045,377.311 103.905,377.595 102.546,377.926 98.6837,378.849 " fill="none" stroke-width="1" stroke="rgb(232,26,75)" />
	<polyline points="101.985,387.947 103.928,385.995 105.273,384.655 106.201,383.746 106.808,383.167 107.763,382.28 108.532,381.578 108.635,381.489 109.791,380.547 110.588,379.877 114.061,376.834 114.764,376.145 115.118,375.721 115.138,375.667 115.137,375.491 115.119,375.353 114.985,374.554 114.948,374.284 114.945,374.186 114.95,374.104 " fill="none" stroke-width="1" stroke="rgb(232,26,75)" />
	<polyline points="44.8418,348.355 44.529,350.906 44.4825,351.4 44.4141,352.597 44.3215,354.893 44.2282,357.891 44.1681,360.39 44.0898,364.389 43.9125,373.586 43.85,375.984 43.7247,379.48 43.5059,384.875 43.421,386.973 42.9763,398.524 42.45,413.153 42.3424,416.946 42.2886,419.971 42.2895,420.399 42.3449,423.359 42.4703,429.256 42.5262,431.454 42.6303,434.751 42.7167,436.948 42.8238,439.144 42.9496,441.34 43.2384,445.931 43.4918,449.722 43.5922,451.017 43.694,452.011 43.9737,454.09 45.0111,460.482 45.4354,462.296 45.7434,463.037 46.196,463.786 46.2026,463.791 46.4097,463.832 46.4284,463.835 46.515,463.852 46.533,463.855 46.7043,463.879 46.7381,463.883 46.9358,463.904 46.951,463.906 47.1774,463.929 47.6127,463.975 47.7401,463.988 " fill="none" stroke-width="1" stroke="rgb(232,26,75)" />
	<polyline points="42.9019,497.981 42.827,497.486 42.8034,497.34 42.0596,492.983 41.7579,491.109 41.4324,488.834 41.1927,486.853 40.9169,484.07 40.3353,477.398 40.2715,476.502 40.1561,474.406 40.1152,473.608 40.0807,472.909 40.0174,471.511 39.996,470.813 39.9662,468.815 39.893,461.516 " fill="none" stroke-width="1" stroke="rgb(232,26,75)" />
	<polyline points="39.8931,454.516 39.9352,452.616 39.9673,451.417 39.9928,450.719 40.0629,449.121 40.1033,448.223 40.3233,443.43 40.4992,439.936 40.819,434.231 40.8454,433.963 40.9638,433.1 41.0044,432.691 41.7925,420.292 41.8032,420.137 41.8119,420.035 42.1178,416.806 42.1338,416.638 " fill="none" stroke-width="1" stroke="rgb(232,26,75)" />
	<polyline points="223.05,379.117 223.054,379.146 223.089,379.38 223.114,379.519 223.143,379.645 223.202,379.861 223.217,379.909 223.27,380.066 223.307,380.18 223.311,380.196 223.325,380.288 223.328,380.305 223.386,380.581 223.402,380.611 223.583,380.774 223.887,380.959 226.083,381.943 228.111,382.732 231.038,383.728 233.99,384.668 235.896,385.271 237.883,385.932 239.942,386.673 241.605,387.333 242.202,387.617 243.44,388.316 245.572,389.614 246.913,390.479 247.727,391.051 248.957,391.983 250.012,392.826 250.541,393.28 251.126,393.823 251.836,394.525 252.454,395.177 252.912,395.7 253.535,396.479 254.306,397.519 255.328,398.994 256.138,400.249 257.059,401.788 257.383,402.401 258.145,404.025 258.617,405.09 258.713,405.331 259.01,406.162 259.336,407.107 259.876,408.717 260.181,409.669 260.407,410.434 260.69,411.496 261.001,412.756 261.245,413.81 261.286,414.018 261.633,416.15 261.941,418.098 262.111,419.206 262.13,419.342 262.375,421.275 262.745,424.208 " fill="none" stroke-width="1" stroke="rgb(232,26,75)" />
	<polyline points="262.516,387.112 261.691,386.665 259.841,385.682 258.071,384.764 256.776,384.111 256.679,384.069 255.834,383.76 253.949,383.096 252.152,382.489 250.955,382.115 249.857,381.81 248.403,381.455 247.448,381.257 246.049,381.027 243.079,380.635 240.698,380.422 237.154,380.302 236.398,380.408 236.1,380.604 234.634,382.402 234.614,382.417 234.531,382.431 234.265,382.424 232.666,382.239 230.992,381.984 230.194,381.818 226.04,380.806 224.977,380.569 223.782,380.346 223.522,380.312 223.334,380.299 " fill="none" stroke-width="1" stroke="rgb(232,26,75)" />
	<polyline points="101.985,387.947 99.7902,390.338 97.4856,392.836 97.3502,392.968 95.8201,394.295 95.5376,394.516 94.5385,395.23 93.9094,395.711 92.5137,396.905 91.7419,397.672 90.3106,399.321 89.6447,400.187 88.5148,401.83 87.9321,402.757 87.1881,404.053 86.7776,404.839 86.3073,405.839 86.0801,406.39 85.748,407.33 85.1413,409.232 84.4353,411.624 84.1307,412.802 83.9347,413.762 83.6874,415.326 83.5426,416.514 83.2185,419.896 83.1579,420.791 83.131,421.786 83.1418,422.682 83.1877,423.578 83.2526,424.272 83.6926,427.944 83.8453,429.134 84.0027,430.293 " fill="none" stroke-width="1" stroke="rgb(232,26,75)" />
	<polyline points="91.5,432.726 91.4805,432.647 91.2796,431.809 90.9273,430.308 90.9038,430.191 90.5792,428.238 90.5583,428.06 90.4331,426.19 90.3396,424.396 90.2755,422.499 90.2642,421.301 90.291,419.603 90.3472,418.106 90.4331,416.711 90.5608,415.219 90.7508,413.432 90.8347,412.841 90.9655,412.156 91.1473,411.379 91.6803,409.351 91.88,408.683 92.4582,406.981 92.9431,405.672 93.8666,403.354 94.6753,401.42 94.9619,400.785 95.5678,399.524 96.2302,398.159 96.2762,398.049 96.3272,397.889 96.3627,397.742 96.4151,397.475 96.4552,397.263 96.4974,397.081 96.6943,396.426 97.0222,395.527 97.5446,394.267 98.0791,393.001 98.3364,392.328 98.5162,391.786 " fill="none" stroke-width="1" stroke="rgb(232,26,75)" />
	<polyline points="262.516,387.112 263.822,388.138 264.674,388.829 265.736,389.735 266.504,390.435 267.835,391.722 268.177,392.08 268.7,392.682 269.601,393.752 270.494,394.814 271.651,396.177 271.908,396.475 272.342,396.976 272.839,397.555 272.897,397.631 273.83,398.999 274.702,400.247 274.889,400.474 276.031,401.646 276.297,401.896 276.386,401.966 276.455,402.012 276.602,402.106 276.639,402.14 276.718,402.259 277.301,403.285 278.381,405.229 278.445,405.341 278.578,405.567 " fill="none" stroke-width="1" stroke="rgb(232,26,75)" />
	<polyline points="274.541,410.595 274.5,410.452 274.459,410.322 273.976,408.913 273.269,406.871 273.23,406.751 272.7,405.06 272.649,404.832 272.552,403.968 272.568,403.898 273.191,402.871 273.302,402.619 273.301,402.48 272.934,401.427 272.137,399.501 271.79,398.789 270.913,397.223 270.342,396.287 269.726,395.36 268.3,393.33 267.941,392.853 267.559,392.396 266.436,391.122 265.84,390.448 265.45,389.996 265.121,389.588 264.987,389.397 264.544,388.685 264.448,388.525 " fill="none" stroke-width="1" stroke="rgb(232,26,75)" />
	<polyline points="69.1017,454.431 68.3149,453.016 67.798,452.077 67.7058,451.898 67.2627,450.975 66.6702,449.707 66.2588,448.798 65.8309,447.818 65.7463,447.608 65.0526,445.738 64.3278,443.742 64.0089,442.822 63.6714,441.777 63.4324,440.963 63.2201,440.142 62.8395,438.487 62.4026,436.416 62.0693,434.67 61.8591,433.39 61.7764,432.698 61.6813,431.406 61.6155,429.812 61.5943,427.917 61.6324,425.822 61.7263,423.95 61.8812,422.143 62.1284,420.064 62.4062,418.189 62.8243,415.728 63.1446,413.957 63.5283,411.836 63.5455,411.642 63.5247,410.324 63.4559,408.83 63.3991,407.916 63.4032,407.821 63.447,407.618 63.8879,406.097 64.4047,404.401 64.4613,404.242 64.7645,403.507 65.7804,401.118 66.377,399.743 66.6529,399.137 66.7737,398.902 67.7081,397.262 68.1197,396.581 69.5682,394.305 70.2035,393.313 70.2685,393.205 70.7227,392.393 70.8388,392.18 70.9822,391.908 " fill="none" stroke-width="1" stroke="rgb(232,26,75)" />
	<polyline points="76.0936,396.125 75.3119,397.064 74.6186,397.917 74.0699,398.627 73.4872,399.436 71.5669,402.238 69.864,404.791 68.6019,406.743 68.2929,407.253 67.5017,408.641 66.9793,409.568 66.9286,409.653 66.8739,409.738 66.1684,410.78 65.9201,411.151 65.4802,411.829 64.4889,413.418 64.0442,414.186 63.6556,414.937 63.4937,415.304 63.172,416.157 62.6844,417.529 62.6514,417.632 62.4262,418.428 62.4007,418.543 62.1426,420.124 61.894,421.703 61.7884,422.395 61.5831,423.761 61.5587,423.92 61.5557,423.938 " fill="none" stroke-width="1" stroke="rgb(232,26,75)" />
	<polyline points="278.578,405.567 278.617,405.7 278.81,406.333 279.278,407.861 279.477,408.531 280.191,411.028 280.683,412.803 280.739,413.048 280.937,414.167 281.179,415.745 281.371,417.232 281.359,417.258 280.575,417.797 280.559,417.824 280.555,418.036 280.718,420.481 280.795,421.478 280.871,422.374 281.144,425.662 281.495,430.147 281.62,432.041 281.684,433.538 281.723,435.635 281.718,437.931 281.664,440.328 281.57,442.422 281.468,443.814 281.374,444.603 281.162,445.882 280.85,447.448 280.515,448.906 280.183,450.159 279.699,451.784 279.177,453.398 278.625,455.005 278.09,456.5 278.023,456.666 277.626,457.538 277.126,458.608 276.563,459.797 276.172,460.617 276.132,460.701 " fill="none" stroke-width="1" stroke="rgb(232,26,75)" />
	<polyline points="274.541,410.595 274.845,411.534 275.184,412.583 276.195,415.721 276.729,417.362 276.756,417.432 276.771,417.457 276.867,417.584 277.319,418.224 277.972,419.291 278.979,421.242 279.61,422.733 279.826,423.49 280.188,425.45 280.465,427.233 280.648,428.487 280.682,428.702 280.843,429.677 280.861,429.837 281.003,431.996 281.104,433.991 281.16,435.887 281.17,437.784 281.133,439.981 281.055,442.277 280.965,444.173 280.922,444.871 280.874,445.517 280.858,445.689 280.71,447.058 280.687,447.215 280.559,447.87 280.349,448.845 280.147,449.721 279.886,450.789 279.665,451.67 279.641,451.766 279.406,452.689 279.142,453.728 279.102,453.891 " fill="none" stroke-width="1" stroke="rgb(232,26,75)" />
	<polyline points="7.587,651.702 7.49221,650.016 7.40179,648.121 7.32736,645.924 7.2712,643.026 7.24997,639.728 7.26816,636.029 7.40229,624.23 7.43806,622.131 7.4801,620.432 7.52585,618.833 7.55829,617.634 7.57961,616.635 7.67669,611.236 7.71359,609.538 7.73944,608.74 7.80782,607.042 7.84136,606.144 7.87728,604.945 7.94854,602.146 7.99101,600.448 8.03602,598.749 8.0936,596.75 8.49766,583.356 8.56022,581.358 8.60575,579.959 8.63771,578.96 8.66791,577.961 8.7367,575.662 8.78004,574.363 8.8053,573.765 8.87733,572.267 8.90685,571.569 8.94989,570.271 9.01287,568.072 9.04284,566.972 9.06693,566.073 9.09999,564.774 9.14313,562.875 9.53583,544.079 9.76383,532.882 10.0051,520.784 10.1562,513.186 10.3794,501.988 10.6764,486.891 10.9197,473.994 11.0196,468.095 11.1446,459.827 11.1471,459.635 11.1757,457.093 11.2551,449.995 11.3416,441.795 11.3884,436.296 11.4208,430.398 11.4279,426.998 11.4254,425.399 11.4227,424.695 11.4228,424.544 11.4308,422.897 11.4366,420.398 11.4234,417.499 11.3778,415.101 11.315,413.908 11.1716,412.345 11.071,411.502 10.9569,410.569 10.8094,408.935 10.7213,406.777 10.6786,399.487 10.7258,390.889 10.7533,388.689 10.8019,385.59 10.8228,383.892 10.8581,379.847 10.8604,379.736 10.9179,378.08 10.9826,376.183 11.0155,375.084 11.0438,373.885 11.1252,369.886 11.1583,368.387 11.1851,367.388 11.2338,365.79 11.2988,363.691 11.7058,350.398 11.7675,348.399 11.8218,346.7 11.9757,342.104 12.0096,341.206 12.0719,339.708 12.103,338.91 12.2668,334.314 12.3222,332.715 12.3857,330.817 12.7035,320.922 12.8166,317.025 12.8953,313.829 12.9144,312.931 12.9184,312.771 12.9391,312.13 12.9857,310.833 13.0129,310.135 13.1603,306.539 13.2303,304.841 13.3002,303.142 13.6272,295.149 13.7591,291.852 13.8864,288.555 13.9077,287.956 13.9254,287.395 13.9284,287.294 13.9522,286.435 13.9712,285.736 14.0546,282.631 " fill="none" stroke-width="1" stroke="rgb(232,26,75)" />
	<polyline points="18.7515,303.895 18.6577,306.395 18.2972,315.988 18.2285,317.787 18.1687,319.285 18.0274,322.682 17.9997,323.28 17.9252,324.778 17.8992,325.376 17.736,329.772 17.6814,331.27 17.6194,332.969 17.2852,342.063 17.2203,343.819 17.1622,345.36 16.9953,349.656 16.9646,350.354 16.8914,351.852 16.8643,352.45 16.7261,355.847 16.6672,357.345 16.5947,359.244 16.2231,369.037 16.1534,370.835 16.0842,372.533 15.9433,375.829 15.9101,376.528 15.8329,378.025 15.7897,378.923 15.7532,379.822 15.6736,382.02 15.6399,382.919 15.6027,383.818 15.5411,385.216 15.4575,387.114 15.1168,394.935 14.9782,398.103 14.8442,401.099 14.8054,401.897 14.7368,403.195 14.6919,403.993 14.515,406.887 14.3512,409.179 14.1884,410.968 13.3979,418.513 13.3031,419.397 13.142,420.951 12.9212,423.321 12.6219,426.905 12.567,427.703 12.4715,429.5 12.4357,430.397 12.3283,434.095 12.2356,437.794 11.9534,450.19 11.82,456.289 11.7188,461.088 11.4916,472.085 11.2201,485.282 10.8782,501.979 10.6517,513.176 10.4993,520.875 10.2645,532.872 10.1982,536.171 10.0991,540.87 10.03,543.969 9.59025,562.864 9.54209,564.762 9.49942,566.261 9.46991,567.261 9.44398,568.16 9.38088,570.359 9.33707,571.757 9.31423,572.356 9.24634,573.954 9.2124,574.851 9.06771,579.248 9.04212,580.047 9.00135,581.346 8.94323,583.245 8.53796,596.739 8.47655,598.837 8.43214,600.436 8.38674,602.135 8.30526,605.134 8.25959,606.632 8.23333,607.33 8.17164,608.828 8.14925,609.526 8.11243,611.325 8.02343,616.624 8.00243,617.723 7.97635,618.822 7.94084,620.222 7.90777,621.721 7.86977,624.12 7.73361,636.118 7.71555,639.817 7.73769,643.116 7.79447,645.914 7.87538,648.21 7.96463,650.005 8.06832,651.76 " fill="none" stroke-width="1" stroke="rgb(232,26,75)" />
	<polyline points="101.029,468.812 100.38,467.877 99.1662,466.128 99.0412,465.943 98.9385,465.782 97.9388,464.17 96.7735,462.305 96.3907,461.721 95.6976,460.727 95.5685,460.562 95.5049,460.493 95.1475,460.115 94.6894,459.539 93.671,457.988 92.535,456.007 91.5436,454.051 90.6367,452.053 89.5154,449.355 88.4077,446.493 87.5331,444.051 87.0832,442.627 86.2549,439.645 85.3076,435.97 84.821,433.93 84.0027,430.293 " fill="none" stroke-width="1" stroke="rgb(232,26,75)" />
	<polyline points="91.5,432.726 91.4819,432.843 91.4355,433.193 91.4243,433.355 91.4228,433.992 91.4413,434.252 91.652,435.759 91.7829,436.477 92.7594,440.955 93.4748,444.086 93.8763,445.737 94.0354,446.313 94.4366,447.61 94.8838,448.979 95.8096,451.726 96.4666,453.656 96.5059,453.772 96.7313,454.457 97.3004,456.266 97.328,456.426 97.3716,457.373 97.4671,458.522 97.6591,459.535 98.239,461.467 98.8951,463.229 99.5885,464.887 100.408,466.811 100.972,468.222 101.073,468.562 101.073,468.65 101.029,468.812 " fill="none" stroke-width="1" stroke="rgb(232,26,75)" />
	<polyline points="69.1017,454.431 69.8331,455.48 70.9334,457.037 72.0432,458.568 72.886,459.683 74.0017,461.092 74.8943,462.168 75.8144,463.22 76.7615,464.248 77.9409,465.47 79.1463,466.665 80.1837,467.646 81.4972,468.829 82.6332,469.805 83.9804,470.91 85.0444,471.745 86.3625,472.745 86.5087,472.849 88.5435,474.193 89.8015,475.009 90.9858,475.753 93.119,477.054 94.4205,477.819 95.3548,478.341 95.9715,478.667 96.1418,478.749 97.7406,479.463 97.9479,479.56 102.877,481.961 105.942,483.43 107.21,484.005 108.129,484.388 108.36,484.471 108.528,484.524 108.923,484.645 110.235,485.06 111.387,485.424 111.594,485.481 111.733,485.511 111.861,485.539 112.344,485.672 112.716,485.815 113.185,486.053 114.904,486.997 116.15,487.61 116.85,487.87 117.159,487.93 117.547,487.953 117.808,487.963 117.898,487.974 117.984,487.994 " fill="none" stroke-width="1" stroke="rgb(232,26,75)" />
	<polyline points="101.029,468.812 102.819,471.17 104.166,472.906 105.793,474.929 107.015,476.379 108.077,477.569 109.108,478.662 110.156,479.725 113.059,482.618 114.043,483.612 114.757,484.36 116.02,485.729 116.419,486.176 117.204,487.083 117.984,487.994 " fill="none" stroke-width="1" stroke="rgb(232,26,75)" />
	<polyline points="276.132,460.701 275.211,462.028 274.341,463.247 273.537,464.321 272.622,465.473 271.418,466.911 270.885,467.503 270.186,468.213 269.102,469.244 267.917,470.313 267.155,470.956 266.176,471.726 265.254,472.41 264.293,473.095 264.152,473.186 263.288,473.694 262.123,474.354 259.806,475.626 257.957,476.61 256.419,477.402 256.264,477.471 254.257,478.259 254.128,478.309 251.625,479.253 249.94,479.882 248.319,480.475 248.18,480.517 245.777,481.1 244.105,481.446 243.875,481.44 243.739,481.362 242.451,480.051 242.27,479.92 241.58,479.651 241.116,479.582 240.409,479.653 238.866,480.009 237.712,480.334 235.99,480.855 234.075,481.426 232.441,481.888 231.668,482.083 230.205,482.403 228.933,482.658 227.756,482.886 224.628,483.535 223.308,483.909 222.122,484.426 221.185,485.035 220.517,485.644 220.164,486.06 220.15,486.088 220.118,486.228 220.115,486.241 220.016,486.852 " fill="none" stroke-width="1" stroke="rgb(232,26,75)" />
	<polyline points="262.745,424.208 263.054,426.933 263.119,427.628 263.153,428.224 263.198,429.921 263.255,433.62 263.269,435.719 263.257,436.718 263.23,437.315 263.12,438.708 263.028,439.601 262.815,441.285 262.553,443.167 262.306,444.824 262.266,445.035 261.822,446.934 261.239,449.346 261.181,449.536 260.438,451.526 259.88,452.912 258.996,454.919 258.098,456.808 256.926,459.123 256.083,460.71 255.56,461.643 255.441,461.829 253.569,464.451 252.746,465.582 252.155,466.369 252.032,466.516 250.396,468.277 249.082,469.644 248.085,470.621 246.107,472.452 244.906,473.502 243.746,474.444 242.554,475.345 240.853,476.569 240.037,477.141 239.077,477.811 238.923,477.93 238.852,477.999 238.716,478.163 238.595,478.315 238.469,478.463 238.228,478.712 237.884,479.023 236.959,479.773 236.809,479.861 236.233,480.078 233.3,481.031 231.764,481.492 230.416,481.853 229.641,482.037 228.374,482.32 223.62,483.446 221.389,484.1 221.057,484.311 220.23,485.242 " fill="none" stroke-width="1" stroke="rgb(232,26,75)" />
	<polyline points="205.001,661.88 205.401,660.428 205.602,659.761 205.988,658.63 206.342,657.701 207.026,656.05 207.824,654.207 208.322,653.09 208.81,652.019 209.269,651.019 209.729,650.02 210.184,649.028 211.011,647.198 212.025,644.914 212.856,642.987 213.699,640.957 215.108,637.476 215.181,637.273 215.781,635.43 215.832,635.277 216.244,634.078 217.419,630.676 217.448,630.589 218.225,628.147 218.942,625.879 219.002,625.675 219.262,624.727 219.932,622.215 220.283,620.86 221.239,617.03 222.055,613.678 222.228,612.898 222.394,612.015 223.066,607.973 223.411,605.702 224.375,598.771 224.559,597.285 224.61,596.69 224.686,595.093 224.732,593.396 224.749,591.397 224.727,589.499 224.665,587.803 224.543,585.911 224.272,582.829 224.041,580.746 223.598,577.378 223.413,576.195 223.189,575.018 222.741,572.969 222.275,571.027 221.986,569.97 221.397,568.062 220.248,564.548 219.945,563.703 219.106,561.565 218.753,560.74 218.079,559.307 217.006,557.149 216.029,555.27 214.947,553.276 214.588,552.668 214.097,551.918 212.949,550.285 210.893,547.457 210.225,546.587 209.399,545.587 208.345,544.388 207.594,543.588 205.139,541.097 203.503,539.484 202.775,538.802 201.517,537.69 200.435,536.775 199.733,536.217 198.293,535.138 197.317,534.446 195.989,533.558 194.247,532.452 193.104,531.771 191.879,531.102 189.832,530.066 188.027,529.219 186.652,528.639 184.785,527.941 182.138,527.045 179.184,526.125 177.743,525.731 174.927,525.066 173.659,524.812 172.874,524.702 171.287,524.566 169.993,524.502 168.698,524.486 167.001,524.518 165.305,524.588 164.309,524.656 162.917,524.788 161.626,524.934 159.842,525.162 158.058,525.404 155.98,525.696 154.315,525.939 154.053,525.985 152.176,526.37 149.635,526.898 147.968,527.222 146.595,527.43 144.744,527.595 144.156,527.572 143.234,527.43 143.159,527.434 140.84,528.124 138.934,528.722 137.85,529.08 137.704,529.138 136.115,529.869 134.228,530.778 132.184,531.822 129.903,533.057 128.349,533.956 127.598,534.441 124.849,536.38 121.676,538.694 120.412,539.665 119.809,540.182 116.811,542.972 115.377,544.363 113.202,546.568 111.902,547.947 110.569,549.439 109.21,551.031 107.878,552.653 106.949,553.828 106.472,554.462 105.89,555.28 104.068,557.903 " fill="none" stroke-width="1" stroke="rgb(232,26,75)" />
	<polyline points="112.735,557.893 112.844,557.734 114.335,555.6 115.672,553.737 116.278,552.947 116.922,552.187 118.196,550.781 119.228,549.696 122.034,546.846 122.928,545.97 123.696,545.264 124.9,544.214 126.586,542.803 128.296,541.422 129.666,540.366 130.531,539.748 132.776,538.256 135.138,536.76 138.044,535.005 140.033,533.862 142.831,532.316 144.672,531.309 145.515,530.838 145.652,530.748 146.381,530.206 147.123,529.691 148.689,528.705 149.798,528.069 150.723,527.586 151.004,527.451 151.822,527.081 152.007,527 153.978,526.172 154.257,526.054 " fill="none" stroke-width="1" stroke="rgb(232,26,75)" />
	<polyline points="480.933,37.704 481.109,38.4804 481.244,39.1673 481.489,40.7244 481.537,41.3148 481.539,43.1019 481.339,52.1957 481.234,55.6936 481.026,61.3895 480.657,70.9822 480.454,76.2781 480.085,86.0709 479.987,88.669 479.748,94.8641 479.643,97.3613 479.555,99.1359 479.473,100.556 479.365,102.252 479.225,104.347 479.119,105.943 478.931,108.837 478.555,114.625 478.45,116.221 478.342,117.817 478.184,120.111 478.068,121.806 477.959,123.402 477.465,130.685 477.335,132.581 477.201,134.475 477.059,136.47 476.926,138.365 476.788,140.36 476.292,147.642 476.163,149.538 476.047,151.234 475.928,153.031 475.784,155.324 475.677,157.119 475.606,158.402 475.593,158.643 475.251,164.803 475.146,166.599 475.035,168.396 474.9,170.49 474.754,172.785 474.657,174.382 474.255,181.27 474.163,182.867 474.087,184.165 473.973,186.061 473.929,186.759 473.818,188.455 473.667,190.749 473.576,192.188 473.471,193.943 473.076,200.731 472.965,202.628 472.818,205.122 472.677,207.517 472.537,209.912 472.463,211.21 472.378,212.808 472.041,219.299 471.959,220.897 471.886,222.294 471.718,225.389 471.674,226.086 471.573,227.482 471.462,228.978 471.382,230.172 471.262,232.27 471.175,234.166 471.027,238.263 470.739,247.358 470.655,250.357 470.57,253.956 470.29,267.152 470.061,278.55 469.947,284.849 469.898,288.248 469.785,298.047 469.692,306.847 469.565,319.346 469.532,322.646 469.486,327.745 469.462,331.545 469.441,337.944 469.421,354.144 469.427,357.644 469.455,362.744 469.525,371.943 469.586,378.943 469.648,384.943 469.692,388.242 469.791,393.84 469.865,397.139 470.104,406.135 470.354,414.932 470.513,420.229 470.597,422.928 471.008,437.021 471.083,442.114 471.007,444.094 470.683,447.103 470.427,448.404 470.147,449.279 469.924,449.808 469.879,449.902 469.87,449.927 469.861,449.989 469.841,450.335 469.782,452.33 469.712,455.828 469.577,464.927 469.492,471.326 469.386,479.225 469.331,482.724 469.279,485.423 469.245,486.922 469.202,488.821 469.176,490.22 468.973,503.516 468.948,504.713 468.896,506.611 468.875,507.509 468.844,509.308 468.741,516.707 468.714,518.206 468.683,519.404 468.62,521.403 468.566,523.101 468.519,524.7 468.087,539.293 467.968,542.187 467.782,545.172 467.634,546.944 467.581,547.351 467.472,547.944 467.367,548.43 467.223,549.009 467.092,549.456 467.065,549.501 467.013,549.537 466.396,549.826 466.331,549.88 466.274,549.996 466.262,550.1 466.278,550.525 466.253,550.734 466.016,551.392 465.52,552.262 464.696,553.266 461.185,556.769 458.341,559.433 456.103,561.429 452.171,564.831 448.059,568.327 446.76,569.4 446.677,569.445 446.583,569.463 446.443,569.461 446.394,569.455 445.775,569.36 445.675,569.384 442.898,571.357 439.753,573.665 439.634,573.762 435.862,577.09 430.097,582.193 423.962,587.634 418.823,592.196 418.67,592.331 413.049,597.314 399.167,609.62 399.066,609.709 395.355,612.992 391.612,616.307 388.321,619.227 381.484,625.3 381.357,625.412 378.699,627.742 378.556,627.87 376.677,629.584 372.324,633.565 367.529,637.952 366.666,638.741 366.566,638.832 364.613,640.568 361.612,643.229 361.472,643.349 358.001,646.217 356.252,647.634 355.461,648.239 354.082,649.226 353.5,649.61 352.051,650.494 351.358,650.888 350.649,651.253 349.659,651.725 348.609,652.198 348.43,652.269 347.604,652.553 345.641,653.204 345.5,653.244 344.033,653.594 343.863,653.635 342.824,653.894 341.661,654.184 338.459,654.981 337.491,655.217 337.128,655.301 336.994,655.328 333.239,656.028 331.538,656.343 331.355,656.375 328.518,656.838 325.86,657.258 321.107,657.975 318.831,658.29 313.673,658.939 311.091,659.236 308.705,659.481 303.23,659.999 301.935,660.115 300.142,660.264 298.248,660.414 296.553,660.539 294.658,660.668 292.862,660.777 286.373,661.141 284.376,661.248 280.982,661.424 280.184,661.466 278.886,661.532 278.187,661.563 277.089,661.6 274.49,661.676 273.391,661.709 272.492,661.741 270.594,661.81 268.896,661.867 267.197,661.912 260.898,662.043 258.799,662.077 247,662.221 243.201,662.271 240.901,662.307 239.102,662.337 237.902,662.354 236.803,662.36 228.704,662.358 227.805,662.35 225.006,662.299 222.807,662.256 219.408,662.191 212.709,662.064 209.81,662.003 204.013,661.863 197.115,661.682 195.017,661.62 193.118,661.556 191.32,661.494 190.221,661.46 188.822,661.426 185.024,661.342 183.325,661.3 182.627,661.276 181.029,661.207 180.131,661.17 178.033,661.093 176.134,661.029 174.035,660.962 172.836,660.925 170.937,660.867 161.842,660.586 159.543,660.513 158.144,660.464 156.646,660.408 153.249,660.27 152.451,660.234 150.954,660.161 150.056,660.12 146.46,659.965 144.762,659.895 142.964,659.821 135.071,659.492 132.973,659.397 130.777,659.287 129.179,659.199 125.887,659.009 122.394,658.808 120.797,658.72 119.1,658.634 112.108,658.292 110.21,658.201 108.912,658.141 106.814,658.049 104.617,657.958 102.22,657.866 100.822,657.813 99.8228,657.773 96.726,657.64 93.0302,657.47 91.133,657.374 89.1365,657.263 86.8413,657.127 84.6462,656.994 82.2512,656.849 80.854,656.766 79.1239,656.665 73.7659,656.359 72.0689,656.26 70.7715,656.18 68.9758,656.065 66.5818,655.909 64.9855,655.805 63.788,655.73 62.0913,655.626 55.2043,655.207 53.8073,655.12 51.8121,654.988 49.6178,654.841 48.0218,654.733 46.625,654.641 40.8376,654.261 39.1415,654.148 37.745,654.051 36.1495,653.937 34.0557,653.783 32.1611,653.644 30.6653,653.534 24.2823,653.072 22.587,652.948 20.593,652.799 18.699,652.655 16.9049,652.514 15.709,652.416 12.2219,652.118 10.2302,651.942 7.587,651.702 " fill="none" stroke-width="1" stroke="rgb(232,26,75)" />
	<polyline points="479.928,541.079 478.375,542.172 477.819,542.581 476.87,543.322 475.709,544.268 473.872,545.812 471.133,548.147 470.757,548.476 470.24,548.946 469.881,549.289 468.32,550.835 466.402,552.735 465.897,553.215 465.23,553.803 462.621,555.991 460.697,557.561 460.619,557.604 460.494,557.641 " fill="none" stroke-width="1" stroke="rgb(232,26,75)" />
	<polyline points="133.026,587.141 133.028,587.151 133.051,587.267 133.062,587.333 133.113,587.688 133.117,587.71 133.171,587.999 133.2,588.141 133.204,588.152 133.826,589.048 134.038,589.213 135.136,589.589 137.062,590.019 142.181,590.9 144.058,591.178 145.348,591.333 148.829,591.686 152.413,592.022 156.098,592.342 162.874,592.903 169.651,593.455 173.354,593.756 176.827,594.039 178.354,594.165 " fill="none" stroke-width="1" stroke="rgb(232,26,75)" />
	<polyline points="133.404,594.104 135.426,594.029 137.025,593.981 138.823,593.951 140.822,593.947 142.62,593.974 145.217,594.05 146.961,594.123 148.512,594.205 150.108,594.302 152.204,594.435 156.894,594.736 169.667,595.559 171.063,595.655 173.057,595.807 174.951,595.96 177.043,596.134 178.22,596.233 " fill="none" stroke-width="1" stroke="rgb(232,26,75)" />
	<polyline points="104.068,557.903 102.809,560.041 101.738,561.871 101.646,562.037 100.613,564.051 99.9924,565.277 99.9137,565.443 99.5988,566.156 98.7265,568.175 97.9048,570.106 96.7076,572.963 96.5797,573.284 96.5077,573.487 95.8005,575.654 95.5607,576.4 95.5218,576.528 95.0872,578.039 94.7901,579.098 93.8138,582.666 93.5869,583.535 93.2387,584.946 93.2127,585.065 92.8639,586.872 92.5993,588.276 92.5647,588.486 91.9383,592.922 91.6684,595.003 91.4828,596.724 91.0578,601.467 90.9917,602.56 90.9578,604.155 90.9377,610.553 90.946,611.66 90.9559,611.813 91.0633,612.686 91.1648,613.377 91.448,615.051 91.7622,616.719 91.918,617.396 92.6699,620.231 92.7152,620.381 92.7406,620.45 92.7803,620.544 93.1341,621.374 93.1848,621.496 93.7669,622.931 94.4712,624.657 94.8264,625.525 95.7627,627.845 95.8457,628.117 96.6314,631.764 97.1038,633.962 97.5895,636.104 97.9794,637.649 98.6778,640.147 99.5303,643.021 100.15,645.027 101.081,647.984 102.037,651.037 102.292,651.899 102.763,653.634 103.105,654.989 103.543,656.835 103.777,657.86 " fill="none" stroke-width="1" stroke="rgb(232,26,75)" />
	<polyline points="112.735,557.893 111.726,559.494 110.517,561.449 110.049,562.252 109.067,564.067 107.507,567.085 106.404,569.323 105.517,571.239 104.401,573.786 104.142,574.434 103.29,576.782 103.098,577.373 102.39,579.847 101.939,581.584 101.336,584.21 100.288,589.196 99.8665,591.453 99.2434,595.299 99.0046,597.079 98.4412,602.245 98.1409,605.426 97.4492,613.594 97.3511,614.689 97.0104,618.162 96.7565,620.65 96.706,621.167 96.68,621.52 96.5818,623.425 96.581,623.609 96.6524,625.234 96.7828,627.714 96.8128,628.063 97.1278,630.646 97.3793,632.446 97.7423,634.692 98.05,636.361 98.2421,637.237 98.4464,638.007 99.0719,640.114 100.049,643.289 100.639,645.175 101.567,648.133 102.513,651.189 102.992,652.8 103.511,654.644 103.656,655.224 104.02,656.882 104.229,657.871 " fill="none" stroke-width="1" stroke="rgb(232,26,75)" />
	<polyline points="483.42,29.8983 483.599,31.8934 483.763,33.5831 483.867,34.4665 484.043,35.7604 484.115,36.2543 484.216,36.9459 484.264,37.3585 484.431,39.2288 484.535,40.7216 484.553,41.4169 484.527,43.4134 484.313,51.9094 483.959,64.9044 483.602,78.1991 483.458,84.2965 483.331,91.1943 483.313,93.1932 483.324,95.0922 483.356,96.8912 483.397,98.2901 483.533,101.887 483.659,104.883 483.822,108.379 483.991,111.674 484.292,117.165 484.396,118.895 484.513,120.657 484.627,122.253 484.784,124.347 484.921,126.141 485.007,127.238 485.534,133.816 485.716,136.008 485.825,137.226 486.037,139.392 486.566,144.565 486.814,146.851 487.091,149.199 487.694,153.995 488.229,158.059 488.775,162.021 489.386,166.277 489.944,170.035 490.431,173.198 491.056,177.148 491.327,178.826 491.535,180.109 492.025,183.222 492.446,186.137 492.812,189.099 492.965,190.729 492.979,191.223 492.956,191.975 " fill="none" stroke-width="1" stroke="rgb(232,26,75)" />
	<polyline points="354.414,426.997 355.393,426.905 355.541,426.887 355.547,426.883 355.612,426.746 355.75,426.385 355.785,426.228 355.929,424.751 356.436,418.773 356.561,417.279 356.729,415.286 356.847,413.891 357.015,411.899 357.575,405.223 357.668,404.127 357.78,402.832 357.925,401.138 358.018,400.043 358.115,398.847 358.639,392.268 358.734,391.072 358.827,389.876 358.965,388.081 359.258,384.193 359.692,378.409 359.79,377.113 359.883,375.917 360.022,374.123 360.113,372.927 360.2,371.73 360.726,364.249 360.811,363.052 360.928,361.456 361.073,359.462 361.171,358.066 361.248,356.869 361.345,355.172 361.577,350.892 361.589,350.668 361.666,349.236 361.741,347.906 361.852,346.043 361.981,343.947 362.135,341.453 362.244,339.656 362.643,332.868 362.741,331.171 362.817,329.774 362.953,327.178 363.048,325.321 363.056,325.144 363.139,323.086 363.268,319.989 363.576,312.896 363.653,311.198 363.716,309.9 363.854,307.204 363.888,306.605 363.964,305.308 363.997,304.71 364.122,302.213 364.193,300.715 364.275,298.917 364.625,291.025 364.702,289.227 364.77,287.529 364.807,286.43 364.864,284.432 364.891,283.461 364.895,283.349 364.947,282.089 364.979,281.29 365.108,278.094 365.14,277.295 365.195,275.896 365.271,273.936 365.676,263.206 365.747,261.308 365.794,260.009 365.827,259.01 365.861,257.911 365.926,255.812 365.976,254.313 366.005,253.615 366.068,252.217 366.091,251.619 366.138,250.02 366.217,247.022 366.26,245.423 366.342,242.425 366.398,240.426 366.548,235.128 366.764,227.431 366.82,225.432 366.868,223.633 366.91,222.034 367.037,217.337 367.072,216.24 367.128,214.642 367.153,213.844 367.191,212.245 367.273,208.446 367.297,207.447 367.329,206.348 367.372,204.949 367.419,203.35 367.482,200.952 367.573,197.172 367.576,197.009 367.764,188.3 367.811,186.301 367.856,184.702 367.997,180.205 368.03,179.307 368.099,177.575 368.13,176.712 368.296,171.416 368.349,169.717 368.413,167.618 368.801,155.225 368.911,151.827 369.064,147.331 369.092,146.633 369.157,145.235 369.183,144.637 369.333,140.94 369.365,140.141 369.419,138.843 369.485,137.245 369.862,128.052 369.936,126.254 370.003,124.656 370.157,121.06 370.19,120.362 370.256,119.064 370.297,118.266 370.442,115.27 370.485,114.372 370.552,112.974 370.635,111.176 371.001,103.185 371.149,99.9884 371.272,97.3918 371.302,96.7623 371.368,95.3796 371.386,94.7973 371.431,91.7993 371.437,90.4019 371.426,89.9055 371.4,89.2877 " fill="none" stroke-width="1" stroke="rgb(232,26,75)" />
	<polyline points="261.908,260.227 261.924,258.15 261.939,257.552 261.98,256.755 262.04,255.958 262.45,251.176 262.633,248.984 263.595,237.024 263.9,233.036 264.258,228.049 264.552,223.76 265.139,214.979 265.599,208.095 266.015,201.909 266.476,195.125 266.615,193.13 266.833,190.138 267.02,187.683 267.287,184.356 267.407,182.962 267.844,178.282 268.065,176.095 268.208,174.905 268.489,172.926 268.898,170.362 269.135,169.09 269.437,167.727 269.734,166.568 269.96,165.821 270.231,165.056 270.497,164.415 270.674,164.067 270.935,163.651 271.284,163.174 271.64,162.746 273.34,160.861 275.574,158.432 279.457,154.26 281.308,152.291 282.411,151.137 283.25,150.279 286.343,147.152 286.764,146.725 287.602,145.867 291.376,142.009 292.124,141.262 292.177,141.225 292.247,141.201 292.447,141.163 292.617,141.132 292.716,141.106 292.877,141.049 292.993,141.003 " fill="none" stroke-width="1" stroke="rgb(232,26,75)" />
	<polyline points="242.042,245.784 242.018,244.792 241.945,244.011 241.649,242.436 241.448,241.814 241.055,240.941 241.044,240.89 241.064,237.512 241.115,234.114 241.174,231.815 241.345,226.639 241.357,226.398 241.566,223.166 241.789,219.874 242.057,216.084 242.912,204.215 243.323,198.43 243.451,196.535 243.563,194.763 243.575,194.564 243.786,191.231 243.886,189.735 244.009,188.04 244.15,186.146 244.23,185.049 244.309,183.852 244.41,182.156 244.607,178.685 244.618,178.49 244.749,176.323 244.827,175.126 244.929,173.73 245.07,171.936 245.217,170.143 245.334,168.745 245.796,163.267 245.916,161.872 246.064,160.179 246.203,158.585 246.33,157.091 246.442,155.696 246.867,150.213 246.963,148.916 247.121,146.722 247.247,144.927 247.31,144.018 " fill="none" stroke-width="1" stroke="rgb(232,26,75)" />
	<polyline points="285.224,148.293 285.702,148.432 286.566,148.664 286.947,148.744 287.234,148.772 288.829,148.808 290.028,148.815 292.028,148.805 299.927,148.752 305.626,148.733 310.024,148.748 312.223,148.783 313.92,148.843 315.816,148.946 325.894,149.602 327.987,149.757 330.078,149.942 332.066,150.15 333.714,150.354 337.016,150.82 338.197,151.017 339.958,151.367 341.226,151.659 342.86,152.08 343.435,152.245 344.142,152.465 " fill="none" stroke-width="1" stroke="rgb(232,26,75)" />
	<polyline points="220.947,261.169 221.094,259.233 221.18,258.238 221.247,257.643 221.962,252.293 222.49,248.534 222.601,247.849 222.619,247.787 222.671,247.654 222.705,247.529 222.957,246.014 223.207,244.142 223.437,241.859 223.57,239.967 223.663,237.871 224.035,226.178 224.124,223.279 224.409,214.184 224.547,210.168 224.707,206.09 225.098,196.998 225.597,186.01 225.776,182.415 226.01,178.222 226.28,173.83 226.429,171.737 226.574,170.045 226.745,168.355 226.988,166.169 227.104,165.176 227.242,163.985 227.326,163.19 227.357,162.793 227.502,160.199 227.533,159.502 227.556,158.76 " fill="none" stroke-width="1" stroke="rgb(232,26,75)" />
	<polyline points="269.431,167.347 270.918,167.267 273.314,167.146 275.811,167.039 282.106,166.814 284.804,166.747 293.601,166.622 305,166.506 310.9,166.466 315.099,166.45 320.999,166.427 324.596,166.395 327.393,166.344 329.191,166.288 331.688,166.186 332.22,166.162 " fill="none" stroke-width="1" stroke="rgb(232,26,75)" />
	<polyline points="42.0661,253.372 44.9935,253.637 47.1836,253.842 49.1734,254.038 50.764,254.207 55.6334,254.751 64.1553,255.714 64.3297,255.732 67.6184,256.039 67.7476,256.052 70.1155,256.297 73.696,256.668 73.7951,256.676 75.6548,256.787 75.8131,256.799 78.0373,256.999 80.5269,257.224 84.1122,257.546 87.9973,257.884 92.0828,258.223 93.8774,258.356 97.0703,258.559 98.967,258.657 102.763,258.799 104.96,258.841 107.054,258.822 108.884,258.748 108.994,258.716 109.055,258.657 109.135,258.487 109.19,258.324 109.192,258.314 109.223,258.143 109.232,258.117 109.377,257.839 109.406,257.816 110.872,257.38 111.573,257.153 111.695,257.089 112.473,256.512 113.125,256.062 113.776,255.679 114.132,255.508 114.592,255.322 115.428,254.997 115.556,254.94 116.183,254.618 116.801,254.284 117.318,253.99 118.868,253.076 123.849,250.107 127.028,248.214 129.072,247.008 129.962,246.5 130.666,246.124 131.291,245.816 132.65,245.184 133.781,244.67 " fill="none" stroke-width="1" stroke="rgb(232,26,75)" />
	<polyline points="151.029,255.048 151.046,255.176 151.065,255.324 151.08,255.44 151.082,255.46 151.101,255.69 151.104,255.716 151.163,256.013 151.214,256.258 151.224,256.291 151.28,256.416 151.299,256.434 151.388,256.459 154.185,256.896 158.833,257.573 163.786,258.251 168.051,258.794 172.221,259.283 175.7,259.655 178.088,259.876 181.776,260.166 185.666,260.428 191.056,260.739 194.351,260.892 199.346,261.063 203.844,261.17 209.842,261.25 214.839,261.265 217.135,261.229 219.229,261.142 221.22,261.008 222.51,260.888 223.001,260.819 223.389,260.738 223.868,260.608 224.341,260.453 224.824,260.269 225.353,260.039 225.798,259.818 226.228,259.571 227.492,258.77 228.397,258.152 229.924,257.03 231.816,255.561 233.593,254.109 235.332,252.611 236.887,251.204 238.411,249.763 239.334,248.85 240.024,248.13 240.56,247.538 241.214,246.782 241.663,246.246 242.042,245.784 " fill="none" stroke-width="1" stroke="rgb(232,26,75)" />
	<polyline points="41.0488,294.011 41.0583,294.027 41.1558,294.167 41.2624,294.28 41.3528,294.33 42.0099,294.515 42.9825,294.737 45.9211,295.336 47.1956,295.588 48.0788,295.759 49.0612,295.945 52.305,296.546 54.0756,296.86 55.5549,297.102 59.0144,297.63 62.1798,298.098 65.8418,298.626 70.3948,299.273 71.2377,299.391 71.3462,299.406 73.98,299.749 78.4595,300.331 79.3359,300.445 79.4438,300.459 82.088,300.804 86.1527,301.337 90.2173,301.873 92.2002,302.134 94.1833,302.391 95.7687,302.593 96.1505,302.641 96.35,302.665 102.174,303.357 107.537,303.989 111.157,304.408 112.087,304.509 112.271,304.523 113.039,304.562 113.261,304.579 114.91,304.739 117.994,305.043 120.281,305.261 122.81,305.491 122.982,305.506 123.011,305.509 125.095,305.75 127.975,306.082 129.068,306.205 130.062,306.311 135.036,306.82 140.208,307.337 143.657,307.675 143.915,307.697 147.812,308.006 149.307,308.123 151.3,308.278 153.385,308.437 153.681,308.459 153.832,308.469 158.825,308.771 160.023,308.844 167.708,309.315 174.795,309.736 178.489,309.937 185.181,310.262 190.875,310.515 194.172,310.643 201.967,310.909 216.06,311.365 221.357,311.528 226.655,311.677 231.853,311.81 234.352,311.863 245.75,312.063 254.849,312.208 269.847,312.429 286.745,312.669 294.444,312.777 298.044,312.831 299.943,312.866 301.642,312.906 303.241,312.954 306.938,313.082 307.636,313.112 309.034,313.184 309.732,313.221 312.428,313.36 313.127,313.396 314.225,313.45 316.023,313.538 322.023,313.827 " fill="none" stroke-width="1" stroke="rgb(232,26,75)" />
	<polyline points="45.6187,309.619 45.8644,308.038 46.055,306.854 46.3734,304.982 46.557,304 46.7843,302.926 47.4507,300.002 47.8436,298.349 47.9923,297.769 48.2566,296.805 48.5254,295.849 " fill="none" stroke-width="1" stroke="rgb(232,26,75)" />
	<polyline points="45.5692,309.524 47.9969,309.77 48.2623,309.797 49.8325,309.962 51.8208,310.168 53.0145,310.285 54.1082,310.382 55.2637,310.477 55.5112,310.498 57.0272,310.629 58.9243,310.802 60.8083,310.982 62.0023,311.1 64.0909,311.307 66.1622,311.511 66.3318,311.527 68.667,311.749 70.8555,311.963 72.049,312.085 74.2361,312.32 79.0077,312.839 83.3818,313.313 88.5517,313.869 89.944,314.015 92.4311,314.265 94.1866,314.437 94.5556,314.472 94.7021,314.485 98.6031,314.823 102.986,315.204 105.364,315.413 105.533,315.428 108.165,315.687 113.234,316.195 118.904,316.775 123.379,317.241 128.749,317.807 133.159,318.269 137.899,318.762 139.389,318.914 139.667,318.941 139.86,318.96 143.068,319.283 147.942,319.78 149.035,319.895 150.029,320.003 151.023,320.111 153.159,320.34 155.493,320.585 155.673,320.602 155.918,320.625 157.989,320.815 163.065,321.286 165.069,321.47 165.193,321.479 166.819,321.559 166.988,321.572 168.067,321.682 171.049,322.001 173.137,322.229 177.907,322.755 179,322.876 180.094,322.998 181.087,323.108 183.174,323.338 187.847,323.847 190.062,324.08 191.129,324.182 193.519,324.38 195.262,324.501 197.009,324.59 199.106,324.662 201.305,324.706 206.804,324.764 223.003,324.902 225.903,324.933 230.402,325 232.101,325.036 238.999,325.214 246.396,325.407 257.193,325.677 264.89,325.852 274.988,326.052 280.587,326.148 291.885,326.329 294.684,326.388 297.781,326.486 300.776,326.623 318.24,327.568 318.904,327.61 318.907,327.612 318.945,327.774 318.949,327.798 318.954,327.884 318.997,328.874 " fill="none" stroke-width="1" stroke="rgb(232,26,75)" />
	<polyline points="322.023,313.827 322.008,314.899 321.99,315.915 321.96,317.114 321.855,320.612 321.827,321.31 321.753,322.707 321.72,323.205 321.431,326.79 321.292,328.071 321.056,329.692 321.012,329.911 321.004,329.917 320.436,329.972 320.297,329.984 320.174,329.992 " fill="none" stroke-width="1" stroke="rgb(232,26,75)" />
	<polyline points="358.568,645.843 358.304,645.078 357.992,644.13 357.826,643.559 357.692,642.981 357.631,642.594 357.604,642.201 357.595,641.305 357.613,640.407 357.641,639.809 357.758,638.014 357.863,636.476 357.997,634.523 358.381,628.836 358.493,627.188 358.573,626.043 358.681,624.547 358.861,622.054 358.938,620.957 359.126,618.254 359.534,612.378 359.667,610.483 359.788,608.788 359.938,606.693 360.043,605.198 360.143,603.701 360.53,597.814 360.637,596.218 360.754,594.522 360.902,592.428 361.058,590.234 361.143,589.037 361.336,586.244 361.742,580.358 361.868,578.563 362.004,576.668 362.146,574.674 362.256,573.078 362.331,571.881 362.427,570.185 362.47,569.371 362.478,569.227 362.646,566.075 362.754,564.179 362.836,562.882 362.958,561.086 363.11,558.892 363.222,557.196 363.312,555.699 363.547,551.538 363.557,551.347 363.622,550.052 363.718,548.256 363.794,546.958 363.913,545.062 364.056,542.868 364.174,541.072 364.344,538.467 364.739,532.391 364.843,530.794 364.953,529.098 365.087,527.025 365.093,526.918 365.178,525.264 365.249,523.866 365.332,522.268 365.549,518.086 365.561,517.865 365.656,516.224 365.737,514.927 365.856,513.132 365.994,511.137 366.113,509.441 366.238,507.646 366.651,501.66 366.831,499.067 366.928,497.671 367.096,495.277 367.175,494.08 367.247,492.882 367.346,491.061 367.615,485.818 367.624,485.656 367.699,484.349 367.791,482.853 367.909,481.057 368.053,478.963 368.166,477.334 368.279,475.671 368.685,469.685 368.861,467.091 368.963,465.595 369.116,463.301 369.198,462.004 369.368,459.11 369.41,458.361 369.417,458.223 369.444,457.751 369.708,453.261 369.81,451.564 369.92,449.768 369.994,448.545 370.005,448.344 370.044,447.633 370.134,446.036 370.205,444.839 370.306,443.242 370.687,437.455 370.821,435.459 370.961,433.465 371.108,431.371 371.224,429.675 371.339,427.879 371.451,425.983 371.544,424.319 371.554,424.142 371.75,420.499 371.836,419.002 371.899,418.005 372.055,415.711 372.169,414.015 372.243,412.817 372.344,411.021 372.426,409.503 372.433,409.378 372.667,405.422 372.767,403.826 372.895,401.931 373.042,399.836 373.155,398.241 373.252,396.844 373.361,395.248 373.756,389.362 373.871,387.666 374.024,385.471 374.171,383.377 374.262,382.081 374.365,380.584 374.857,373.401 374.975,371.706 375.101,369.91 375.249,367.816 375.359,366.221 375.459,364.724 375.933,357.44 376.032,355.943 376.15,354.248 376.301,352.154 376.446,350.26 376.57,348.765 377.511,338.212 377.793,335.312 377.817,335.227 377.868,335.149 377.882,335.141 378.184,335.091 378.237,335.084 378.516,335.051 378.532,335.05 378.692,335.037 378.959,335.017 " fill="none" stroke-width="1" stroke="rgb(232,26,75)" />
	<polyline points="191.637,354.36 193.919,354.227 194.817,354.185 195.715,354.164 196.312,354.171 197.709,354.23 199.504,354.339 201.797,354.512 204.686,354.759 220.421,356.177 225.8,356.657 230.98,357.103 233.372,357.291 245.241,358.145 250.727,358.518 256.116,358.855 261.607,359.172 264.203,359.304 266.101,359.379 268.199,359.434 271.598,359.482 276.596,359.513 283.095,359.523 288.995,359.52 290.594,359.521 291.193,359.527 292.293,359.545 293.991,359.576 301.389,359.708 305.388,359.768 307.487,359.783 311.486,359.775 318.784,359.72 323.864,359.666 323.978,359.664 323.993,359.663 " fill="none" stroke-width="1" stroke="rgb(232,26,75)" />
	<polyline points="190.307,421.924 190.681,419.566 191.168,416.489 191.193,416.308 191.47,414.119 191.749,411.741 191.964,409.651 192.097,408.059 192.2,406.363 192.31,403.767 192.394,400.77 192.424,398.372 192.413,395.974 192.331,391.076 192.274,388.878 192.206,386.98 191.995,381.684 191.496,369 191.355,364.989 191.35,364.517 191.366,363.688 191.416,361.798 191.501,358.7 191.557,356.702 191.599,355.404 191.637,354.36 " fill="none" stroke-width="1" stroke="rgb(232,26,75)" />
	<polyline points="151.402,356.502 151.441,358.002 151.465,359.201 151.664,373.099 151.743,380.398 151.771,386.497 151.762,399.396 151.729,404.695 151.688,406.993 151.621,408.99 151.534,410.887 151.47,411.985 151.397,413.082 151.326,414.179 151.284,414.977 151.208,416.924 151.144,419.07 151.09,421.316 " fill="none" stroke-width="1" stroke="rgb(232,26,75)" />
	<polyline points="316.733,381.5 318.3,381.5 " fill="none" stroke-width="1" stroke="rgb(232,26,75)" />
	<polyline points="151.09,421.316 152.213,421.421 153.501,421.531 155.095,421.648 156.791,421.747 158.489,421.82 165.984,422.065 168.982,422.143 173.181,422.217 178.88,422.281 181.579,422.29 182.877,422.274 184.676,422.22 185.873,422.166 190.307,421.924 " fill="none" stroke-width="1" stroke="rgb(232,26,75)" />
	<polyline points="149.581,436.67 151.614,436.657 152.813,436.659 154.012,436.676 168.008,436.992 177.705,437.222 184.903,437.406 186.601,437.46 187.898,437.516 189.716,437.608 " fill="none" stroke-width="1" stroke="rgb(232,26,75)" />
	<polyline points="143.471,499.646 143.681,498.664 143.838,497.881 144.595,493.854 144.815,492.575 145.115,490.599 145.604,487.134 145.748,486.044 145.868,485.051 146.071,483.263 146.299,481.173 146.814,476.404 147.193,472.925 147.468,470.44 148.092,464.875 148.296,462.987 148.506,460.898 148.694,458.807 148.872,456.514 149.126,452.624 149.198,451.03 149.248,448.635 149.256,446.338 149.241,445.541 149.183,443.943 149.162,443.244 149.152,442.446 149.166,441.248 149.205,440.052 149.261,439.055 149.299,438.661 149.405,437.869 149.581,436.67 " fill="none" stroke-width="1" stroke="rgb(232,26,75)" />
	<polyline points="189.716,437.608 189.713,444.402 189.701,453.502 189.685,457.102 189.64,462.101 189.553,469.301 189.521,471.1 189.47,473.199 189.423,474.898 189.372,476.896 189.351,478.095 189.202,490.693 189.172,492.691 189.155,493.39 189.108,495.088 189.111,495.886 189.368,501.754 189.597,503.849 190.178,506.931 190.427,507.999 " fill="none" stroke-width="1" stroke="rgb(232,26,75)" />
	<polyline points="39.8931,454.502 39.911,455.074 39.9442,458.49 39.9164,460.929 39.893,461.5 " fill="none" stroke-width="1" stroke="rgb(232,26,75)" />
	<polyline points="44.0072,490.252 44.0173,490.363 44.0275,490.474 44.0436,490.652 44.045,490.666 44.059,490.793 44.0737,490.922 44.086,491.022 44.0887,491.032 44.201,491.304 44.2448,491.348 44.413,491.395 48.0426,491.797 54.705,492.454 57.9909,492.752 59.9835,492.92 61.9769,493.081 64.1698,493.255 70.849,493.781 91.7842,495.426 98.8624,495.981 112.022,497.012 117.106,497.418 124.48,498.023 127.767,498.308 129.657,498.489 130.452,498.577 131.665,498.726 133.229,498.92 134.717,499.091 136.904,499.317 138.795,499.486 140.688,499.627 141.185,499.649 141.983,499.655 143.471,499.646 " fill="none" stroke-width="1" stroke="rgb(232,26,75)" />
	<polyline points="188.895,498.44 190.668,498.774 192.044,499.031 194.896,499.558 197.257,499.983 199.72,500.407 202.187,500.806 208.117,501.718 212.964,502.434 217.123,503.017 225.25,504.105 230.109,504.723 233.797,505.155 241.04,505.94 245.615,506.404 247.806,506.597 251.893,506.906 254.287,507.058 259.978,507.363 265.87,507.651 268.867,507.783 277.813,508.151 277.993,508.158 279.146,508.197 283.742,508.341 286.341,508.407 288.24,508.433 290.017,508.426 294.036,508.352 296.231,508.275 299.923,508.08 302.315,507.92 308.895,507.422 310.09,507.334 314.278,507.041 316.771,506.856 318.063,506.737 319.249,506.596 319.819,506.503 319.907,506.476 319.919,506.461 319.987,506.151 " fill="none" stroke-width="1" stroke="rgb(232,26,75)" />
	<polyline points="127.95,659.099 128.12,655.615 128.5,648.025 128.63,645.729 128.875,642.039 129.18,637.951 129.821,629.978 130.818,618.019 131.566,609.251 131.98,604.57 132.217,602.082 132.329,601.09 132.466,600.102 132.939,597.039 133.404,594.104 " fill="none" stroke-width="1" stroke="rgb(232,26,75)" />
	<polyline points="176.231,661.041 176.278,658.571 176.395,652.772 176.6,643.375 176.693,639.877 176.772,637.68 176.91,634.584 177.08,631.088 177.347,625.595 177.477,622.698 177.746,616.004 177.883,612.107 177.998,608.109 178.1,603.711 178.137,601.612 178.157,600.112 178.176,598.813 178.198,597.814 178.23,596.916 178.354,594.165 " fill="none" stroke-width="1" stroke="rgb(232,26,75)" />
</svg>
