<?xml version="1.0" encoding="utf-8" ?>
<svg baseProfile="full" height="287" version="1.1" viewBox="0,0,245,287" width="245" xmlns="http://www.w3.org/2000/svg" xmlns:ev="http://www.w3.org/2001/xml-events" xmlns:xlink="http://www.w3.org/1999/xlink">
	<path d="M 218.512756 94.526840 L 219.310171 96.086012 L 220.107102 97.645431 L 220.937700 99.187024 L 221.806871 100.707168 L 222.721346 102.200310 L 223.691311 103.657821 L 224.699683 105.089575 L 225.619877 106.565475 L 226.046646 108.263931" fill="none" stroke="black" stroke-width="1.000000" />
	<path d="M 150.419342 8.337008 L 148.456831 8.025073 L 146.494260 7.713509 L 144.531822 7.401106 L 142.568450 7.094752 L 140.602818 6.803656 L 138.633852 6.537339 L 136.660151 6.312086 L 134.681519 6.140605 L 132.699827 5.998521 L 130.713095 5.961694 L 128.726357 5.998152 L 126.741755 6.088854 L 124.756195 6.013706 L 122.776571 5.841576 L 120.802344 5.615302 L 118.827813 5.393257 L 116.844693 5.268151 L 114.858388 5.211078 L 112.871431 5.186366 L 110.885672 5.113210 L 108.902136 4.993394 L 106.918371 4.877427 L 104.934884 4.756908 L 102.950319 4.655590 L 100.965217 4.565344 L 98.979854 4.481063 L 96.994603 4.394159 L 95.009245 4.309743 L 93.024203 4.218258 L 91.039723 4.115845 L 89.053446 4.057216 L 87.066574 4.024749 L 85.079424 4.022435 L 83.092281 4.025901 L 81.105276 4.049861 L 79.118498 4.088412 L 77.131640 4.122122 L 75.144512 4.130645 L 73.157402 4.118346 L 71.170471 4.088750 L 69.183664 4.051695 L 67.196901 4.012393 L 65.210144 3.972749 L 63.223353 3.934869 L 61.236500 3.900434 L 59.249582 3.869910 L 57.262606 3.843455 L 55.275574 3.821651 L 53.288485 3.805801 L 51.301363 3.794920 L 49.314219 3.789218 L 47.327068 3.789570 L 45.339935 3.798188 L 43.352848 3.814269 L 41.365849 3.838890 L 39.378947 3.870402 L 37.392290 3.914664 L 35.406059 3.975035 L 33.420792 4.061490 L 31.436783 4.173158 L 29.454116 4.306576 L 27.472584 4.455913 L 25.491965 4.616908 L 23.512253 4.788710 L 21.532628 4.961509 L 19.552678 5.130537 L 17.572013 5.290971 L 15.591228 5.449759 L 13.606292 5.543589 L 11.621616 5.642725 L 9.638687 5.772173 L 7.658407 5.937268 L 5.681489 6.138656 L 3.710545 6.391929 L 1.747083 6.697857 L -0.214459 7.015862" fill="none" stroke="black" stroke-width="1.000000" />
	<path d="M 150.419342 8.337008 L 152.291625 8.907690 L 154.187634 9.393722 L 156.092954 9.841900 L 158.025571 10.151460 L 159.957507 10.465695 L 161.889552 10.779267 L 163.820027 11.102354 L 165.746574 11.448070 L 167.667976 11.821310 L 169.583450 12.223868 L 171.500258 12.620059 L 173.419201 13.005772 L 175.340785 13.378110 L 177.260977 13.757559 L 179.171237 14.184167 L 181.048967 14.734216 L 182.926697 15.284266" fill="none" stroke="black" stroke-width="1.000000" />
	<path d="M 182.924973 15.289503 L 181.390246 15.125608 L 179.855519 14.961713 L 178.371138 14.594415 L 177.047675 13.870675 L 176.056320 12.687686" fill="none" stroke="black" stroke-width="1.000000" />
	<path d="M 201.088750 9.580040 L 201.987029 11.178977 L 202.865782 12.788719 L 203.678160 14.432771 L 204.401117 16.117801 L 205.083570 17.820024 L 205.749877 19.528679 L 206.469612 21.215015 L 207.236681 22.880787 L 208.020768 24.538705 L 208.814922 26.191815 L 209.621478 27.838908 L 210.436700 29.481745 L 211.255011 31.123046 L 212.075343 32.763338 L 212.894672 34.404130 L 213.705635 36.049036 L 214.492237 37.705752 L 215.246375 39.377443 L 216.000519 41.049145" fill="none" stroke="black" stroke-width="1.000000" />
	<path d="M 201.137756 18.856239 L 202.640261 19.591061 L 204.143063 20.325276 L 205.620307 21.109644 L 206.899277 22.187475" fill="none" stroke="black" stroke-width="1.000000" />
	<path d="M 182.920654 15.302595 L 184.591376 15.621647 L 186.251215 15.993178 L 187.910643 16.366548 L 189.465814 17.055210 L 191.055692 17.659490 L 192.716010 18.028823 L 194.394609 18.303426 L 196.069014 18.602547 L 197.747451 18.878094 L 199.442588 18.867167 L 201.137756 18.856239" fill="none" stroke="black" stroke-width="1.000000" />
	<path d="M 182.920654 15.302595 L 184.165858 15.775262 L 185.412420 16.244327 L 186.666455 16.692711 L 187.951076 17.014181 L 189.273524 17.098441 L 190.592728 16.915012" fill="none" stroke="black" stroke-width="1.000000" />
	<path d="M 216.000519 41.049145 L 216.684459 42.836732 L 217.364303 44.625869 L 218.033303 46.419051 L 218.685386 48.218352 L 219.328893 50.020815 L 219.930257 51.837810 L 220.480650 53.670780 L 220.943478 55.527465 L 221.297238 57.407749 L 221.540330 59.305518 L 221.760275 61.206792 L 222.037553 63.100166 L 222.337366 64.990495 L 222.646127 66.879363 L 222.979231 68.764059 L 223.343445 70.642965 L 223.737013 72.515976 L 224.130554 74.388991 L 224.490636 76.268648 L 224.812622 78.155253 L 225.109599 80.046023 L 225.395475 81.938510 L 225.673791 83.832125 L 225.945282 85.726731 L 226.208730 87.622467 L 226.460308 89.519811 L 226.698797 91.418854 L 226.932617 93.318479 L 227.163820 95.218407 L 227.376404 97.120525 L 227.589773 99.022503 L 227.755258 100.929262 L 227.873923 102.839534 L 227.963368 104.751404" fill="none" stroke="black" stroke-width="1.000000" />
	<path d="M 218.512756 94.526840 L 217.879403 92.695778 L 217.322645 90.848120 L 216.911938 88.949936 L 216.723315 87.015420 L 216.657434 85.072849 L 216.664778 83.129176 L 216.708848 81.185986 L 216.782256 79.243684 L 217.133561 77.332106 L 217.698005 75.472207 L 218.332427 73.634975 L 219.357675 71.983906 L 220.752750 70.630540" fill="none" stroke="black" stroke-width="1.000000" />
	<path d="M 33.113682 166.132736 L 33.394218 164.175343 L 33.666184 162.216740 L 33.908507 160.254249 L 34.111664 158.287319 L 34.252375 156.314938 L 34.342805 154.339612 L 34.401150 152.363078 L 34.417647 150.385753 L 34.427193 148.408381 L 34.432089 146.430992 L 34.435191 144.453600 L 34.435723 142.476205 L 34.431704 140.498814 L 34.422727 138.521440 L 34.404828 136.544126 L 34.379988 134.566888 L 34.346715 132.589773 L 34.307351 130.612770 L 34.260005 128.635942 L 34.208227 126.659225 L 34.150624 124.682670 L 34.089954 122.706206 L 34.023701 120.729921 L 33.949543 118.753918 L 33.868802 116.778172 L 33.781421 114.802709 L 33.687036 112.827568 L 33.586647 110.852723 L 33.482746 108.878060 L 33.378067 106.903438 L 33.274408 104.928762 L 33.170667 102.954090 L 33.064553 100.979545 L 32.953352 99.005279 L 32.831086 97.031668 L 32.693633 95.059057 L 32.540230 93.087623 L 32.379246 91.116792 L 32.216150 89.146135 L 32.057469 87.175117 L 31.907029 85.203453 L 31.766160 83.231083 L 31.634522 81.258075 L 31.511692 79.284499 L 31.399022 77.310317 L 31.298247 75.335517 L 31.201498 73.360541 L 31.115669 71.385016 L 31.048845 69.408814 L 30.983912 67.432551 L 30.933960 65.455788" fill="none" stroke="black" stroke-width="1.000000" />
	<path d="M 73.082050 49.448940 L 74.160620 47.938128 L 75.021912 46.294500 L 75.754690 44.589365 L 76.341502 42.829018 L 76.835024 41.039832 L 77.278750 39.237432 L 77.670752 37.423150 L 77.972797 35.592193 L 78.210686 33.751353 L 78.368676 31.902370 L 78.474602 30.049148 L 78.562115 28.194917 L 78.643264 26.340387 L 78.720632 24.485698 L 78.791287 22.630744 L 78.853456 20.775486 L 78.910385 18.920054 L 78.969839 17.064706 L 79.038648 15.209688 L 79.118637 13.355109 L 79.200048 11.500591 L 79.277925 9.645921 L 79.350965 7.791055 L 79.423406 5.936165 L 79.494736 4.081232" fill="none" stroke="black" stroke-width="1.000000" />
	<path d="M 65.376850 7.506340 L 65.524505 9.423200 L 65.657073 11.341163 L 65.746018 13.261643 L 65.795200 15.183552 L 65.773230 17.105963 L 65.700387 19.027121 L 65.606863 20.947383 L 65.680749 22.868482 L 66.144023 24.734334 L 66.334724 26.647248 L 66.166337 28.562394 L 65.936197 30.471108 L 65.688003 32.377559 L 65.446065 34.284814 L 65.212620 36.193127 L 64.980471 38.101598 L 64.736148 40.008547 L 64.427972 41.906223 L 64.041619 43.789540 L 63.579812 45.655788 L 62.977619 47.480815 L 62.335577 49.290458 L 61.643349 51.083542" fill="none" stroke="black" stroke-width="1.000000" />
	<path d="M 44.058773 3.807699 L 44.184951 5.698220 L 44.301230 7.589304 L 44.401368 9.481298 L 44.491607 11.373861 L 44.563794 13.267225 L 44.629977 15.160810 L 44.693124 17.054501 L 44.755617 18.948213 L 44.819029 20.841895 L 44.885646 22.735465 L 44.957259 24.628852 L 45.028761 26.522240 L 45.089979 28.415984 L 45.140554 30.310051 L 45.184893 32.204268 L 45.217094 34.098731 L 45.235924 35.993369 L 45.225205 37.887690 L 45.089195 39.776711 L 44.750782 41.640820 L 44.287450 43.478040" fill="none" stroke="black" stroke-width="1.000000" />
	<path d="M 30.590628 4.227221 L 30.639396 6.118360 L 30.668735 8.009609 L 30.701224 9.901126 L 30.714285 11.792707 L 30.813377 13.681700 L 30.952315 15.568377 L 31.107567 17.453832 L 31.262699 19.339301 L 31.410113 21.225385 L 31.550910 23.111980 L 31.688592 24.998805 L 31.823900 26.885802 L 31.955440 28.773065 L 32.082217 30.660653 L 32.202211 32.548681 L 32.308713 34.437488 L 32.390417 36.327545 L 32.456852 38.218218 L 32.533973 40.108451 L 32.646768 41.996808 L 32.821069 43.880530 L 33.049261 45.758538 L 33.314052 47.631749 L 33.609750 49.500340" fill="none" stroke="black" stroke-width="1.000000" />
	<path d="M 17.609850 67.905441 L 17.628516 65.939960 L 17.667863 63.974990 L 17.733911 62.010878 L 17.815517 60.047020 L 17.914569 58.083932 L 17.986883 56.119670 L 18.023948 54.154428 L 18.038073 52.188887 L 18.023644 50.223347 L 17.989538 48.258051 L 17.952418 46.292810 L 17.919556 44.327493 L 17.889107 42.362136 L 17.858881 40.396777 L 17.827447 38.431436 L 17.790080 36.466199 L 17.739813 34.501250 L 17.676007 32.536694 L 17.605279 30.572375 L 17.527617 28.608318 L 17.435433 26.644889 L 17.327145 24.682282 L 17.209422 22.720218 L 17.089289 20.758301 L 16.968862 18.796402 L 16.853800 16.834180 L 16.755631 14.871041 L 16.685425 12.906703 L 16.681209 10.941116 L 16.726250 8.976040" fill="none" stroke="black" stroke-width="1.000000" />
	<path d="M 49.143350 77.518640 L 49.422930 79.444853 L 49.696160 81.371976 L 49.960143 83.300387 L 50.214933 85.230033 L 50.475045 87.158970 L 50.759829 89.084398 L 51.063695 91.006917 L 51.375414 92.928189 L 51.671009 94.851989 L 51.891636 96.785454 L 52.054470 98.724907 L 52.192386 100.666396 L 52.340138 102.607152 L 52.537125 104.543320 L 52.743450 106.478730 L 52.914329 108.417477 L 53.030045 110.360184 L 53.097575 112.305309 L 53.147306 114.251070 L 53.198676 116.196788 L 53.256484 118.142320 L 53.327399 120.087403 L 53.414536 122.031835 L 53.507079 123.976027 L 53.590330 125.920631 L 53.658284 127.865820 L 53.708905 129.811544 L 53.746467 131.757574 L 53.774720 133.703758 L 53.791285 135.650077 L 53.799024 137.596459 L 53.809051 139.542825 L 53.828038 141.489128 L 53.852003 143.435376 L 53.880796 145.381559 L 53.929157 147.327308 L 53.979226 149.273017 L 54.041765 151.218406 L 54.108148 153.163668 L 54.175808 155.108887" fill="none" stroke="black" stroke-width="1.000000" />
	<path d="M 125.116921 72.555906 L 125.823625 74.408673 L 126.685466 76.194560 L 127.673495 77.913849 L 128.689067 79.617019 L 129.669130 81.340866 L 130.586885 83.098675 L 131.490208 84.863946 L 132.392902 86.629539 L 133.291327 88.397308 L 134.184079 90.167949 L 135.067999 91.943015 L 135.947382 93.720334 L 136.820694 95.500643 L 137.650336 97.301714 L 138.423363 99.127797 L 139.175682 100.962515 L 139.941905 102.791470 L 140.715472 104.617331 L 141.429974 106.467096 L 142.076583 108.341670 L 142.686387 110.228546 L 143.274480 112.122304 L 143.845906 114.021157 L 144.402162 115.924510 L 144.950192 117.830248 L 145.495127 119.736874 L 146.035986 121.644660 L 146.568579 123.554769 L 147.091080 125.467664 L 147.604778 127.382942 L 148.110596 129.300316 L 148.619926 131.216760 L 149.134396 133.131831 L 149.656105 135.044942 L 150.179947 136.957470 L 150.688551 138.874106 L 151.187188 140.793360 L 151.688695 142.711866 L 152.200324 144.627697 L 152.730102 146.538589 L 153.313447 148.433800 L 153.976551 150.302581 L 154.723753 152.139348 L 155.385931 154.008447 L 156.021504 155.886799 L 156.551400 157.797594 L 157.020212 159.724330 L 157.435899 161.663227 L 157.818689 163.608895 L 158.176879 165.559244 L 158.519171 167.512448 L 158.848644 169.467856 L 159.165364 171.425370 L 159.462703 173.385920 L 159.732554 175.350439 L 159.974107 177.318638 L 160.187453 179.290095 L 160.370687 181.264576 L 160.525544 183.241487 L 160.649955 185.220545 L 160.749343 187.201020 L 160.825643 189.182520 L 160.886429 191.164558 L 160.936036 193.146908 L 160.982053 195.129345 L 161.019384 197.111964 L 161.055427 199.094608 L 161.085508 201.077351 L 161.115287 203.060099 L 161.138449 205.042935 L 161.163737 207.025745 L 161.185701 209.008594 L 161.210295 210.991413 L 161.226090 212.974321 L 161.262778 214.956939 L 161.314371 216.939116 L 161.386397 218.920573 L 161.493394 220.900371 L 161.629140 222.878365 L 161.811277 224.852507 L 162.020947 226.823977 L 162.271162 228.790919 L 162.533493 230.756409" fill="none" stroke="black" stroke-width="1.000000" />
	<path d="M 108.242188 77.542244 L 108.587331 79.491354 L 108.979574 81.431533 L 109.436951 83.357398 L 109.940793 85.271632 L 110.501074 87.170116 L 111.074533 89.064660 L 111.650336 90.958494 L 112.223410 92.853154 L 112.783154 94.751796 L 113.317940 96.657618 L 113.818147 98.572806 L 114.279037 100.497833 L 114.677867 102.436669 L 115.018047 104.386651 L 115.313056 106.343976 L 115.562164 108.307670 L 115.751418 110.278034 L 115.865214 112.254193 L 115.925680 114.232701 L 115.968034 116.211681 L 115.998954 118.190872 L 116.016512 120.170227 L 115.996614 122.149559 L 115.868576 124.124846 L 115.730435 126.099453 L 115.615277 128.075529 L 115.500729 130.051640 L 115.389932 132.027970 L 115.279747 134.004333" fill="none" stroke="black" stroke-width="1.000000" />
	<path d="M 177.200750 141.562340 L 177.834019 143.409753 L 178.468794 145.256649 L 179.105420 147.102907 L 179.745467 148.947982 L 180.387086 150.792512 L 181.026039 152.637966 L 181.659163 154.485427 L 182.271392 156.339895 L 182.860732 158.201762 L 183.428355 160.070365 L 183.970191 161.946592 L 184.496916 163.827150 L 185.010322 165.711382 L 185.507513 167.599951 L 186.010437 169.487003 L 186.496680 171.378363 L 186.954397 173.276859 L 187.403891 175.177363 L 187.841094 177.080696 L 188.258305 178.988525 L 188.657409 180.900222 L 189.047428 182.813818 L 189.441814 184.726513 L 189.844482 186.637483 L 190.241629 188.549579 L 190.563474 190.474276 L 190.758691 192.416931 L 190.861238 194.366550 L 190.474713 196.172362 L 189.394582 197.777146 L 188.822033 199.627045 L 188.675067 201.570846 L 188.776449 203.517712 L 189.096525 205.443034 L 189.547178 207.342833 L 190.078575 209.221896 L 190.659167 211.086523 L 191.257481 212.945509 L 191.884902 214.794912 L 192.521844 216.641002 L 193.163817 218.485366 L 193.819263 220.325016 L 194.476761 222.163940" fill="none" stroke="black" stroke-width="1.000000" />
	<path d="M 156.722336 107.629051 L 157.665565 109.329956 L 158.606401 111.032186 L 159.538906 112.738993 L 160.459400 114.452307 L 161.364201 116.173957 L 162.247026 117.906973 L 163.107836 119.651027 L 163.943024 121.407488 L 164.764762 123.170296 L 165.549505 124.949834 L 166.306506 126.741376 L 167.041174 128.542198 L 167.753627 130.351921 L 168.446357 132.169289 L 169.119918 133.993849 L 169.776244 135.824681 L 170.417834 137.660733 L 171.046057 139.501402 L 171.666013 141.344878 L 172.281138 143.189974 L 172.893217 145.036082 L 173.504410 146.882485 L 174.115630 148.728878 L 174.726567 150.575365 L 175.336807 152.422083 L 175.944604 154.269606 L 176.547424 156.118757 L 177.143321 157.970149 L 177.728618 159.824913 L 178.300129 161.683967 L 178.857109 163.547426 L 179.399722 165.415119 L 179.928853 167.286678 L 180.447407 169.161202 L 180.958324 171.037825 L 181.462724 172.916209 L 181.960925 174.796248 L 182.452904 176.677924 L 182.938109 178.561357 L 183.415942 180.446674 L 183.888140 182.333413 L 184.358699 184.220562 L 184.833771 186.106576 L 185.325610 187.988246 L 185.847963 189.861624 L 186.414392 191.722039 L 187.043837 193.561867 L 187.742064 195.376841 L 188.490348 197.171961 L 189.265530 198.955715 L 190.039768 200.739854 L 190.770558 202.541858 L 191.426921 204.372234 L 191.997886 206.230801 L 192.473109 208.116199 L 192.861114 210.021660 L 193.179709 211.940125 L 193.444194 213.866840 L 193.670298 215.798573 L 193.882062 217.731928 L 194.084906 219.666250 L 194.296178 221.599667 L 194.520979 223.531540 L 194.767118 225.460810 L 195.035602 227.387096 L 195.315497 229.311731 L 195.559028 231.241270 L 195.714791 233.179389 L 195.846761 235.118783 L 195.949116 237.060940 L 196.020254 239.004567 L 196.078361 240.948404 L 196.111445 242.892670 L 196.111844 244.837365 L 196.094635 246.782181" fill="none" stroke="black" stroke-width="1.000000" />
	<path d="M 143.398743 56.834240 L 145.362872 56.738679 L 147.328132 56.670219 L 149.294529 56.656313 L 151.260707 56.688751 L 153.226023 56.755475 L 155.190588 56.841564 L 157.153885 56.952847 L 159.114026 57.110076 L 161.069139 57.320723 L 163.022068 57.550924 L 164.976185 57.770826 L 166.934402 57.950385 L 168.896343 58.083085 L 170.859852 58.190507 L 172.823787 58.289966 L 174.787252 58.398285 L 176.748345 58.543040 L 178.707756 58.709223 L 180.666769 58.880112 L 182.626760 59.039357 L 184.589031 59.167179 L 186.552398 59.277209 L 188.516264 59.377990 L 190.480322 59.475012 L 192.444266 59.574312 L 194.408094 59.675869 L 196.371830 59.779201 L 198.335547 59.882893 L 200.299105 59.989536 L 202.262134 60.105493 L 204.224401 60.233683 L 206.185835 60.374038 L 208.147691 60.508407 L 210.109886 60.637727 L 212.072144 60.766104 L 214.033912 60.901606 L 215.995355 61.041457 L 217.956047 61.191625 L 219.916132 61.349565 L 221.875900 61.511528" fill="none" stroke="black" stroke-width="1.000000" />
	<path d="M 126.987750 64.004140 L 127.484028 64.045786 L 127.980305 64.087431 L 128.476583 64.129077 L 128.972860 64.170723 L 129.469138 64.212369 L 129.965417 64.253989 L 130.461727 64.295248 L 130.958037 64.336507 L 131.454347 64.377766 L 131.950657 64.419025 L 132.446966 64.460284 L 132.943301 64.501229 L 133.439802 64.540129 L 133.936302 64.579030 L 134.432802 64.617930 L 134.929303 64.656830 L 135.425803 64.695731 L 135.922232 64.735492 L 136.418375 64.778706 L 136.914519 64.821920 L 137.410662 64.865134 L 137.906806 64.908348 L 138.402949 64.951562 L 138.899180 64.993720 L 139.395653 65.032969 L 139.892126 65.072218 L 140.388599 65.111467 L 140.885071 65.150716 L 141.381544 65.189964 L 141.878082 65.228362 L 142.374750 65.265054 L 142.871419 65.301745 L 143.368087 65.338437 L 143.864756 65.375128 L 144.361424 65.411820 L 144.858059 65.448957 L 145.354644 65.486765 L 145.851228 65.524573 L 146.347813 65.562381 L 146.844397 65.600189 L 147.340982 65.637997 L 147.837312 65.678881 L 148.333350 65.723292 L 148.829387 65.767703 L 149.325425 65.812114 L 149.821463 65.856525 L 150.317500 65.900937 L 150.813138 65.949456 L 151.308424 66.001583 L 151.803711 66.053710 L 152.298997 66.105838 L 152.794283 66.157965 L 153.289569 66.210092 L 153.784462 66.265755 L 154.279092 66.323785 L 154.773721 66.381814 L 155.268351 66.439843 L 155.762980 66.497873 L 156.257610 66.555902 L 156.752344 66.613028 L 157.247131 66.669701 L 157.741917 66.726374 L 158.236704 66.783046 L 158.731491 66.839719 L 159.226278 66.896391 L 159.721335 66.950627 L 160.216492 67.003971 L 160.711649 67.057316 L 161.206805 67.110661 L 161.701962 67.164005 L 162.197119 67.217350 L 162.692053 67.272707 L 163.186932 67.328572 L 163.681811 67.384436 L 164.176689 67.440301 L 164.671568 67.496166 L 165.166446 67.552030 L 165.660994 67.610746 L 166.155489 67.669905 L 166.649985 67.729064 L 167.144481 67.788223 L 167.638976 67.847382 L 168.133472 67.906541 L 168.628328 67.962598 L 169.123211 68.018429 L 169.618093 68.074260 L 170.112976 68.130091 L 170.607858 68.185922 L 171.102740 68.241752 L 171.597992 68.294212 L 172.093243 68.346667 L 172.588495 68.399121 L 173.083747 68.451576 L 173.578998 68.504031 L 174.074222 68.556739 L 174.569046 68.613090 L 175.063869 68.669440 L 175.558693 68.725791 L 176.053517 68.782142 L 176.548340 68.838492 L 177.043150 68.894960 L 177.537871 68.952202 L 178.032593 69.009445 L 178.527314 69.066687 L 179.022035 69.123929 L 179.516756 69.181172 L 180.011586 69.237434 L 180.506853 69.289740 L 181.002121 69.342046 L 181.497388 69.394352 L 181.992655 69.446658 L 182.487923 69.498964 L 182.983131 69.551825 L 183.478172 69.606226 L 183.973214 69.660626 L 184.468256 69.715027 L 184.963297 69.769427 L 185.458339 69.823828 L 185.953195 69.879850 L 186.447674 69.939141 L 186.942154 69.998432 L 187.436634 70.057723 L 187.931114 70.117014 L 188.425594 70.176305 L 188.920318 70.233463 L 189.415410 70.287398 L 189.910503 70.341333 L 190.405596 70.395268 L 190.900688 70.449203 L 191.395781 70.503138 L 191.891052 70.555382 L 192.386527 70.605681 L 192.882002 70.655979 L 193.377478 70.706278 L 193.872953 70.756576 L 194.368428 70.806875 L 194.863408 70.861675 L 195.357950 70.920445 L 195.852492 70.979214 L 196.347034 71.037983 L 196.841576 71.096753 L 197.336118 71.155522 L 197.831025 71.211075 L 198.326176 71.264469 L 198.821328 71.317864 L 199.316479 71.371258 L 199.811630 71.424652 L 200.306781 71.478046 L 200.802452 71.526238 L 201.298385 71.571810 L 201.794317 71.617383 L 202.290249 71.662955 L 202.786182 71.708527 L 203.282114 71.754099 L 203.775799 71.818653 L 204.268659 71.890168 L 204.761520 71.961683 L 205.254380 72.033198 L 205.747240 72.104713 L 206.240101 72.176228 L 206.730243 72.264077 L 207.219704 72.356020 L 207.709165 72.447963 L 208.198627 72.539906 L 208.688088 72.631848 L 209.177549 72.723791 L 209.663455 72.832763 L 210.148813 72.944357 L 210.634171 73.055951 L 211.119529 73.167545 L 211.604887 73.279139 L 212.090245 73.390733 L 212.572199 73.516161 L 213.053909 73.642577 L 213.535619 73.768993 L 214.017329 73.895408 L 214.980750 74.148240" fill="none" stroke="black" stroke-width="1.000000" />
	<path d="M 128.931229 78.762749 L 128.938356 78.769466 L 128.944352 78.772351 L 128.946899 78.762894" fill="none" stroke="black" stroke-width="1.000000" />
	<path d="M 128.931229 78.762749 L 128.884190 78.760876 L 128.837197 78.758108 L 128.790237 78.761414" fill="none" stroke="black" stroke-width="1.000000" />
	<path d="M 226.046646 108.263931 L 227.575531 109.046867 L 229.114952 109.807406 L 230.666662 110.543855 L 232.244560 111.222929 L 233.838367 111.863587 L 235.445792 112.469450 L 237.061651 113.052663 L 238.681449 113.624901 L 240.300145 114.200129 L 241.901715 114.818895 L 243.448191 115.565271 L 244.918750 116.453340" fill="none" stroke="black" stroke-width="1.000000" />
	<path d="M 169.245743 97.185539 L 171.167932 97.397693 L 173.090776 97.603837 L 175.018145 97.761663 L 176.946265 97.910575 L 178.879306 97.911212 L 180.807854 98.039079 L 182.727855 98.267476 L 184.643130 98.534696 L 186.546984 98.871943 L 188.442281 99.255884 L 190.333321 99.660524 L 192.216760 100.098722 L 194.096166 100.554414 L 195.979516 100.993238 L 197.868479 101.407393 L 199.759889 101.810363 L 201.651777 102.211093 L 203.543723 102.611543 L 205.434414 103.017830 L 207.320126 103.446243 L 209.197054 103.911678 L 211.066311 104.407285 L 212.931604 104.917666 L 214.795183 105.434287 L 216.659036 105.949900 L 218.525300 106.456727 L 220.397428 106.941200 L 222.273937 107.407471 L 224.157229 107.845410 L 226.044922 108.265152" fill="none" stroke="black" stroke-width="1.000000" />
	<path d="M 234.082565 111.950447 L 234.326479 113.874241 L 234.574548 115.797502 L 234.835731 117.719027 L 235.111674 119.638486 L 235.408209 121.554869 L 235.727474 123.467594 L 236.071093 125.376092 L 236.431324 127.281529 L 236.807318 129.183918 L 237.184787 131.086020 L 237.565166 132.987542 L 237.929787 134.892139 L 238.277424 136.799910 L 238.609092 138.710523 L 238.923931 140.623979 L 239.222439 142.540051 L 239.504013 144.458683 L 239.769464 146.379613 L 240.018908 148.302686 L 240.253891 150.227583 L 240.476980 152.153896 L 240.689672 154.081386 L 240.892754 156.009913 L 241.086683 157.939383 L 241.270564 159.869834 L 241.443271 161.801315 L 241.602969 163.733913 L 241.745910 165.667815 L 241.869698 167.603033 L 241.977911 169.539195 L 242.078490 171.475778 L 242.185114 173.412032 L 242.304865 175.347513 L 242.440649 177.281931 L 242.597098 179.214773 L 242.741347 181.148532 L 242.862271 183.083932 L 242.964078 185.020428 L 243.042268 186.958002 L 243.099422 188.896334 L 243.136637 190.835141 L 243.156488 192.774221 L 243.161309 194.713394 L 243.149622 196.652534 L 243.122375 198.591523 L 243.079421 200.530223 L 243.018477 202.468436 L 242.937197 204.405895 L 242.832225 206.342203 L 242.699254 208.276772 L 242.532926 210.208731 L 242.327392 212.136884 L 242.077311 214.059736 L 241.785088 215.976699 L 241.472079 217.890465 L 241.165384 219.805235 L 240.880943 221.723395 L 240.627090 223.645839 L 240.380506 225.569235 L 240.092213 227.486640 L 239.738346 229.392930 L 239.307423 231.283173 L 238.797437 233.153781 L 238.226214 235.006796 L 237.607575 236.844482 L 236.942747 238.666068 L 236.238650 240.472752 L 235.486282 242.259899 L 234.687546 244.026788 L 233.838763 245.770150 L 232.946426 247.491820 L 232.038998 249.205591 L 231.126047 250.916420 L 230.237880 252.640065 L 229.418433 254.396778 L 228.708899 256.201143 L 228.068909 258.031660 L 227.449632 259.869306 L 226.850710 261.713556 L 226.303802 263.573977 L 225.791457 265.444236 L 225.304720 267.321344 L 224.847522 269.205793 L 224.404831 271.093534 L 223.997155 272.988992 L 223.624230 274.891488 L 223.306218 276.803564 L 223.061975 278.725127 L 222.912361 280.654951 L 222.847367 282.590837 L 222.858602 284.529438 L 222.900955 286.468109" fill="none" stroke="black" stroke-width="1.000000" />
	<path d="M 65.068850 221.365740 L 65.081520 221.864003 L 65.094190 222.362267 L 65.106861 222.860530 L 65.120943 223.358738 L 65.147953 223.856430 L 65.174963 224.354122 L 65.201973 224.851814 L 65.224945 225.349633 L 65.229220 225.848039 L 65.233495 226.346446 L 65.237769 226.844852 L 65.237940 227.343253 L 65.232556 227.841649 L 65.227173 228.340044 L 65.221789 228.838440 L 65.214209 229.336806 L 65.206208 229.835166 L 65.198207 230.333527 L 65.190206 230.831887 L 65.190101 231.330308 L 65.190463 231.828732 L 65.190824 232.327157 L 65.180657 232.825465 L 65.169357 233.323762 L 65.158057 233.822058 L 65.147852 234.320377 L 65.139047 234.818724 L 65.130242 235.317070 L 65.121437 235.815417 L 65.130604 236.313480 L 65.155157 236.811299 L 65.179711 237.309119 L 65.204265 237.806938 L 65.239211 238.304071 L 65.280352 238.800795 L 65.321493 239.297518 L 65.353219 239.794793 L 65.370232 240.292927 L 65.387246 240.791061 L 65.404260 241.289195 L 65.422273 241.787293 L 65.441372 242.285351 L 65.460471 242.783410 L 65.479571 243.281468 L 65.499576 243.779490 L 65.520276 244.277485 L 65.540975 244.775480 L 65.561675 245.273474 L 65.581656 245.771498 L 65.601250 246.269537 L 65.620845 246.767576 L 65.640439 247.265615 L 65.656323 247.763782 L 65.670855 248.261994 L 65.685388 248.760207 L 65.699920 249.258420 L 65.709668 249.756744 L 65.718331 250.255093 L 65.726994 250.753442 L 65.735656 251.251792 L 65.739625 251.750198 L 65.743053 252.248611 L 65.746482 252.747023 L 65.749910 253.245436 L 65.749049 253.743860 L 65.748096 254.242283 L 65.747144 254.740707 L 65.745998 255.239129 L 65.741797 255.737536 L 65.737595 256.235943 L 65.733393 256.734350 L 65.728795 257.232752 L 65.721742 257.731127 L 65.714688 258.229502 L 65.707635 258.727876 L 65.700064 259.226242 L 65.690631 259.724578 L 65.681198 260.222913 L 65.671765 260.721248 L 65.661799 261.219572 L 65.650567 261.717870 L 65.639336 262.216168 L 65.628105 262.714466 L 65.616758 263.212762 L 65.605219 263.711053 L 65.593680 264.209344 L 65.582141 264.707635 L 65.571104 265.205937 L 65.560679 265.704252 L 65.550254 266.202568 L 65.539829 266.700883 L 65.530898 267.199226 L 65.523312 267.697593 L 65.515726 268.195960 L 65.508140 268.694326 L 65.503775 269.192725 L 65.501569 269.691144 L 65.499363 270.189564 L 65.497156 270.687984 L 65.500953 271.186376 L 65.507712 271.684755 L 65.514471 272.183134 L 65.521230 272.681512 L 65.535526 273.179712 L 65.552497 273.677847 L 65.569469 274.175983 L 65.586441 274.674118 L 65.612381 275.171848 L 65.640454 275.669481 L 65.668527 276.167115 L 65.696600 276.664748 L 65.738149 277.161411 L 65.781640 277.657935 L 65.825132 278.154458 L 65.868623 278.650982 L 65.923800 279.146333 L 65.979750 279.641608 L 66.035699 280.136882 L 66.091648 280.632157" fill="none" stroke="black" stroke-width="1.000000" />
	<path d="M 34.792023 158.668732 L 35.403897 160.552634 L 36.039894 162.428284 L 36.714951 164.288928 L 37.469619 166.117718 L 38.290722 167.917378 L 39.212088 169.667830 L 40.199198 171.382756 L 41.258268 173.054271 L 42.350094 174.706634 L 43.531755 176.295869 L 44.739529 177.865843 L 45.999480 179.394165 L 47.266707 180.916519 L 48.568173 182.409750 L 49.870453 183.902234 L 51.191759 185.377936 L 52.511954 186.854615 L 53.843042 188.321502 L 55.173872 189.788612 L 56.511932 191.249142 L 57.848187 192.711324 L 59.182822 194.174971 L 60.505342 195.649564 L 61.811676 197.138490 L 63.095810 198.646587 L 64.348438 200.180762 L 65.547883 201.756810 L 66.691731 203.373794 L 67.791572 205.021062 L 68.849953 206.695255 L 69.873516 208.391095 L 70.900889 210.084596 L 71.951466 211.763788 L 73.029226 213.425641 L 74.139386 215.066011 L 75.285767 216.681241 L 76.473251 218.266496 L 77.701350 219.820508 L 78.978755 221.333563 L 80.341582 222.770946 L 81.728042 224.185603 L 83.125347 225.589537 L 84.538882 226.977104 L 85.974799 228.341479 L 87.444538 229.668639 L 88.983657 230.915459 L 90.499088 232.190679 L 91.964510 233.523356 L 93.410861 234.876603 L 94.813624 236.274627 L 96.135447 237.749431 L 97.377964 239.291979 L 98.582178 240.864650 L 99.759701 242.457442 L 100.929190 244.056141 L 102.087616 245.662844 L 103.221250 247.287150 L 104.378621 248.894576 L 105.580399 250.469047 L 106.833326 252.003194 L 108.117542 253.511277 L 109.416508 255.006684 L 110.716038 256.501587 L 111.994581 258.014469 L 113.245144 259.550570 L 114.473189 261.104736 L 115.680648 262.674936 L 116.854948 264.270108 L 118.024415 265.868823 L 119.209580 267.455934 L 120.417334 269.025920 L 121.654506 270.572828 L 122.930776 272.087628 L 124.269512 273.547526 L 125.672203 274.946101" fill="none" stroke="black" stroke-width="1.000000" />
	<path d="M 196.004166 232.521851 L 195.954640 232.025210 L 195.905080 231.528578 L 195.809341 231.038742" fill="none" stroke="black" stroke-width="1.000000" />
	<path d="M 104.214401 248.674210 L 105.847720 247.658332 L 107.493717 246.663132 L 109.168655 245.717471 L 110.868813 244.817948 L 112.580633 243.940799 L 114.316473 243.112248 L 116.059372 242.298596 L 117.807644 241.496553 L 119.563596 240.711474 L 121.334368 239.960465 L 123.115844 239.235184 L 124.897716 238.510844 L 126.684320 237.798267 L 128.489897 237.135425 L 130.314675 236.527457 L 132.147589 235.944265 L 133.983095 235.369245 L 135.820987 234.801901 L 137.658117 234.232085 L 139.490567 233.647422 L 141.318543 233.048906 L 143.144011 232.442774 L 144.968562 231.833884 L 146.793144 231.225085 L 148.617721 230.616270 L 150.442494 230.008045 L 152.267288 229.399881 L 154.092232 228.792170 L 155.917991 228.186914 L 157.744976 227.585400 L 159.573466 226.988477 L 161.403183 226.395294" fill="none" stroke="black" stroke-width="1.000000" />
	<path d="M 162.533493 230.756409 L 163.427137 229.582260 L 164.319945 228.409209 L 165.327736 227.330514 L 166.426141 226.350923 L 167.612007 225.471781 L 168.740750 224.519340" fill="none" stroke="black" stroke-width="1.000000" />
	<path d="M 54.175808 155.108887 L 55.673191 156.409589 L 57.169065 157.712019 L 58.657983 159.022361 L 60.137790 160.342879 L 61.603641 161.678806 L 63.052014 163.033607 L 64.481805 164.407960 L 65.901722 165.792737 L 67.286674 167.212558 L 68.646684 168.656288 L 69.983513 170.121509 L 71.298210 171.606621 L 72.592840 173.109257 L 73.870623 174.626246 L 75.131970 176.156929 L 76.379795 177.698655 L 77.614253 179.251104 L 78.839277 180.811009 L 80.055941 182.377443 L 81.267543 183.947795 L 82.476995 185.519804 L 83.685403 187.092615 L 84.895310 188.664275 L 86.106890 190.234644 L 87.319312 191.804363 L 88.532461 193.373520 L 89.746145 194.942265 L 90.960258 196.510677 L 92.174764 198.078784 L 93.389633 199.646610 L 94.604868 201.214153 L 95.821303 202.780765 L 97.038997 204.346398 L 98.258668 205.910491 L 99.480713 207.472731 L 100.705679 209.032681 L 101.934614 210.589506 L 103.167604 212.143122 L 104.405999 213.692433 L 105.649752 215.237446 L 106.897316 216.779383 L 108.147998 218.318792 L 109.400915 219.856383 L 110.654891 221.393110 L 111.909994 222.928917 L 113.166997 224.463169 L 114.425819 225.995929 L 115.684588 227.528732 L 116.942489 229.062248 L 118.196666 230.598812 L 119.444037 232.140904 L 120.684892 233.688246 L 121.921229 235.239200 L 123.153478 236.793403 L 124.386079 238.347327 L 125.619780 239.900379 L 126.849089 241.456908 L 128.069049 243.020776 L 129.277915 244.593236 L 130.471466 246.177352 L 131.649605 247.772963 L 132.818552 249.375320 L 133.979261 250.983655 L 135.136758 252.594303 L 136.294394 254.204851 L 137.449037 255.817546 L 138.592956 257.437865" fill="none" stroke="black" stroke-width="1.000000" />
	<path d="M 222.900955 286.468109 L 220.958829 286.393838 L 219.016929 286.313876 L 217.075544 286.222264 L 215.135047 286.113492 L 213.195817 285.984131 L 211.258010 285.834972 L 209.321465 285.670215 L 207.385678 285.496741 L 205.449938 285.322721 L 203.514099 285.149816 L 201.578357 284.975822 L 199.642455 284.803621 L 197.705249 284.646902 L 195.766185 284.515407 L 193.825736 284.406058 L 191.884563 284.310159 L 189.943153 284.219073 L 188.001856 284.125629 L 186.060907 284.025239 L 184.120382 283.916980 L 182.180254 283.801801 L 180.240508 283.680360 L 178.301230 283.551679 L 176.362678 283.412553 L 174.425224 283.258970 L 172.488874 283.091983 L 170.552513 282.925059 L 168.614592 282.777897 L 166.674516 282.663161 L 164.732807 282.579903 L 162.790117 282.523692 L 160.846870 282.491540 L 158.903393 282.476648 L 156.959867 282.467709 L 155.016331 282.464718 L 153.073046 282.488652 L 151.130027 282.533897 L 149.187397 282.592271 L 147.244731 282.648775 L 145.301887 282.641464 L 143.361651 282.537560 L 141.423782 282.389263 L 139.484227 282.266642 L 137.542698 282.178899 L 135.600327 282.111799 L 133.657497 282.059419 L 131.714426 282.016515 L 129.771305 281.975875 L 127.828241 281.932677 L 125.885274 281.885258 L 123.942274 281.839283 L 121.999147 281.798966 L 120.056047 281.757688 L 118.113244 281.704257 L 116.170612 281.644944 L 114.227812 281.591767 L 112.285479 281.523094 L 110.343029 281.458355 L 108.399999 281.414333 L 106.456602 281.391209 L 104.513136 281.375672 L 102.569960 281.345654 L 100.627625 281.288161 L 98.684904 281.232309 L 96.742701 281.164498 L 94.800046 281.105739 L 92.857162 281.055481" fill="none" stroke="black" stroke-width="1.000000" />
	<path d="M 127.243750 273.379340 L 129.173549 273.043388 L 131.108265 272.737035 L 133.050364 272.481735 L 135.001559 272.309751 L 136.955906 272.177652 L 138.913272 272.103410 L 140.871008 272.038143 L 142.828924 271.978578 L 144.787135 271.929680 L 146.745476 271.886228 L 148.704009 271.852687 L 150.662798 271.848635 L 152.621483 271.870202 L 154.574845 272.008271 L 156.526974 272.170067 L 158.479882 272.322109 L 160.435193 272.438237 L 162.391933 272.528082 L 164.349670 272.592382 L 166.307793 272.644651 L 168.266149 272.687218 L 170.224700 272.719579 L 172.183339 272.746439 L 174.142039 272.768325 L 176.100756 272.788748 L 178.059473 272.809156 L 180.018124 272.834858 L 181.976690 272.866555 L 183.935034 272.909375 L 185.893121 272.962902 L 187.851004 273.023545 L 189.808745 273.088632 L 191.766430 273.155392 L 193.724075 273.223333 L 195.681606 273.294449 L 197.639029 273.368492 L 199.596328 273.445744 L 201.553562 273.524639 L 203.510787 273.603756 L 205.467869 273.686296 L 207.424813 273.772079 L 209.381389 273.865787 L 211.337813 273.962710 L 213.293189 274.077692 L 215.245657 274.226320 L 217.184612 274.476317 L 219.107870 274.814721 L 221.011143 275.268736 L 222.902405 275.777649" fill="none" stroke="black" stroke-width="1.000000" />
	<path d="M 68.944689 278.681321 L 70.666440 279.380549 L 72.472058 279.819302 L 74.311666 280.081439 L 76.161333 280.260142 L 78.018177 280.331990 L 79.873106 280.443903 L 81.728401 280.549863 L 83.584552 280.639523 L 85.441036 280.722074 L 87.297709 280.800241 L 89.154436 280.877131 L 91.011178 280.953656 L 92.867920 281.030182" fill="none" stroke="black" stroke-width="1.000000" />
	<path d="M 92.857162 281.055481 L 92.896369 280.962667 L 92.935925 280.870001 L 92.975502 280.777344" fill="none" stroke="black" stroke-width="1.000000" />
	<path d="M 137.306305 6.262124 L 136.795570 8.095573 L 136.393573 9.955807 L 136.197199 11.848868 L 136.112897 13.750065 L 136.254093 15.648076 L 136.431579 17.543043 L 136.617313 19.437215 L 136.838416 21.327585 L 137.093968 23.213610 L 137.368192 25.097011 L 137.652220 26.978959 L 137.936915 28.860807 L 138.212485 30.744006 L 138.440620 32.633545 L 138.669357 34.522996 L 138.981075 36.400555 L 139.319377 38.273507 L 139.673682 40.143498 L 140.034113 42.012318 L 140.365982 43.886416 L 140.632056 45.770982 L 140.957114 47.646276 L 141.335650 49.511512 L 141.756694 51.367614 L 142.277329 53.197950 L 142.821351 55.020840 L 143.398743 56.834240" fill="none" stroke="black" stroke-width="1.000000" />
	<path d="M 46.987850 74.998040 L 48.921733 75.262085 L 50.860476 75.487679 L 52.803803 75.669587 L 54.751736 75.792670 L 56.702147 75.866755 L 58.653116 75.924555 L 60.604373 75.971619 L 62.555801 76.011039 L 64.507277 76.047976 L 66.458768 76.084104 L 68.410263 76.119994 L 70.361756 76.156022 L 72.313241 76.192496 L 74.264715 76.229556 L 76.216173 76.267400 L 78.167373 76.316760 L 80.117550 76.396653 L 82.066684 76.499009 L 84.015542 76.606596 L 85.965568 76.690171 L 87.916004 76.763762 L 89.866625 76.832329 L 91.817273 76.900109 L 93.767932 76.967576 L 95.718320 77.042450 L 97.668698 77.117585 L 99.618707 77.201693 L 101.567878 77.303197 L 103.515770 77.426685 L 105.462377 77.569096 L 107.408939 77.712327 L 109.356721 77.837354 L 111.305558 77.945098 L 113.255261 78.035517 L 115.205294 78.119123 L 117.155268 78.204113 L 119.105148 78.291170 L 121.054813 78.382992 L 123.004399 78.476418 L 124.953971 78.570176 L 126.903435 78.666155 L 128.852905 78.762009" fill="none" stroke="black" stroke-width="1.000000" />
	<path d="M 30.933960 65.455788 L 32.691156 64.770350 L 34.433654 64.048364 L 36.169322 63.310111 L 37.886563 62.529954 L 39.608772 61.760825 L 41.333131 60.996528 L 43.057889 60.233134 L 44.783302 59.471220 L 46.509318 58.710673 L 48.234737 57.948772 L 49.957288 57.180410 L 51.675860 56.403190 L 53.388745 55.613512 L 55.094958 54.809524 L 56.788572 53.979322 L 58.460167 53.105634 L 60.051758 52.094588 L 61.643349 51.083542" fill="none" stroke="black" stroke-width="1.000000" />
	<path d="M 17.609850 67.905441 L 19.090981 68.713566 L 20.575811 69.514868 L 22.067696 70.302932 L 23.568790 71.073267 L 25.079275 71.825004 L 26.598423 72.559090 L 28.136283 73.251249 L 29.710655 73.857255 L 31.310129 74.394371" fill="none" stroke="black" stroke-width="1.000000" />
	<path d="M 148.071750 116.449340 L 149.375582 115.051887 L 150.685104 113.659765 L 152.006952 112.279341 L 153.345418 110.915023 L 154.696220 109.562919 L 156.071511 108.235731 L 157.475742 106.939202 L 158.905990 105.671431 L 160.355499 104.425728 L 161.812884 103.189248 L 163.279113 101.963270 L 164.751751 100.744996 L 166.229067 99.532399 L 167.737405 98.358969 L 169.245743 97.185539" fill="none" stroke="black" stroke-width="1.000000" />
	<path d="M 115.279747 134.004333 L 117.157069 133.885625 L 119.034526 133.769066 L 120.912103 133.654455 L 122.790122 133.547363 L 124.668671 133.450073 L 126.547853 133.366028 L 128.427598 133.295713 L 130.307644 133.233664 L 132.187838 133.176237 L 134.068176 133.123794 L 135.948677 133.077578 L 137.829358 133.039659 L 139.710230 133.012926 L 141.591239 132.998873 L 143.472302 132.998009 L 145.353335 133.009499 L 147.234223 133.035351 L 149.115112 133.061203" fill="none" stroke="black" stroke-width="1.000000" />
	<path d="M 196.094635 246.782181 L 197.623957 247.771665 L 199.225820 248.638651 L 200.897209 249.362508 L 202.636475 249.902601 L 204.386040 250.409439 L 206.155353 250.841925 L 207.935062 251.229728 L 209.716651 251.608990 L 211.500608 251.976937 L 213.288658 252.324401 L 215.082103 252.642777 L 216.882212 252.920898 L 218.687064 253.166511 L 220.493749 253.398422 L 222.303837 253.601955 L 224.120642 253.731616 L 225.941554 253.772934 L 227.762589 253.806710 L 229.584000 253.824188" fill="none" stroke="black" stroke-width="1.000000" />
</svg>