<?xml version="1.0" standalone="no" ?>
<!DOCTYPE svg PUBLIC "-//W3C//DTD SVG 1.1//EN" "http://www.w3.org/Graphics/SVG/1.1/DTD/svg11.dtd">
<svg width="250px" height="301px" xmlns="http://www.w3.org/2000/svg" version="1.1" >
	<image style="overflow: visible; opacity: 0.4" width="250" height="301" href="C:\Users\bmpix\Documents\mit\projects\vectorization\polyvector_thing\cpp\polyvector_thing\x64\Release\binary_to_share\drill_0250_input_modif.png" transform="matrix(1 0 -0.5 0 1 0 )" />
	<polyline points="39,2.49466 63.7433,3.13298 64.2718,3.15097 74.0002,3.56311 75.8984,3.6424 77.1973,3.69376 80.5945,3.82052 82.4931,3.88661 83.4923,3.91595 85.1915,3.95645 87.4018,4.00383 " fill="none" stroke-width="1" stroke="rgb(232,26,75)" />
	<polyline points="18.7385,11.4707 19.6295,11.36 21.0271,11.1874 21.1369,11.1751 23.6137,10.925 25.9003,10.6928 26.0075,10.6795 27.8542,10.4101 28.0154,10.3881 28.1109,10.3779 32.7149,9.98201 34.3848,9.83868 36.9031,9.62113 37.0004,9.61104 37.9489,9.49787 38.0451,9.49038 41.0982,9.37838 46.1944,9.19858 " fill="none" stroke-width="1" stroke="rgb(232,26,75)" />
	<polyline points="120.906,6.84278 119.832,7.22999 118.185,7.70253 114.758,8.45246 112.106,8.9329 111.941,8.94803 108.109,9.00519 107.963,8.99869 107.187,8.91963 106.818,8.89002 102.696,8.65324 100.202,8.49835 96.2176,8.2002 92.9503,7.88744 90.8618,7.62169 90.4176,7.53365 90.0628,7.43879 89.9946,7.42712 89.7058,7.42157 88.4184,7.47061 88.0323,7.50694 87.3184,7.61192 84.637,8.02804 81.4924,8.503 " fill="none" stroke-width="1" stroke="rgb(232,26,75)" />
	<polyline points="2.01225,9.83146 2.04439,9.8152 2.16033,9.77352 2.48749,9.69657 7.50337,8.78473 8.29171,8.66437 9.97837,8.46578 10.7732,8.39413 11.4698,8.35628 12.7678,8.32036 17.3666,8.23591 20.4656,8.17615 21.5638,8.14246 22.5606,8.0906 23.9554,7.99103 28.9388,7.59455 30.5339,7.47245 35.3208,7.13371 37.3141,7.00993 39.9915,6.86854 40.1879,6.86173 44.107,6.7852 45.7055,6.75006 49.7039,6.6554 51.7024,6.61951 55.7002,6.58292 60.0989,6.57572 71.9984,6.61551 74.2981,6.63568 79.0972,6.70733 83.7961,6.79437 87.9841,6.88585 94.6925,7.04617 98.0914,7.12834 100.191,7.17643 102.09,7.2153 103.589,7.24129 106.84,7.28869 107.079,7.28812 112.915,7.17493 114.813,7.12846 117.711,7.04033 119.46,6.98223 " fill="none" stroke-width="1" stroke="rgb(232,26,75)" />
	<polyline points="87.4018,4.00383 100.489,4.07408 100.949,4.07774 101.039,4.0799 105.087,4.2346 106.683,4.30519 108.012,4.37691 108.184,4.39298 109.593,4.59546 111.252,4.91683 114.731,5.82812 116.204,6.42133 124.019,10.5502 124.034,10.5528 124.143,10.533 125.74,10.1629 126.03,10.0925 126.042,10.0882 126.726,9.78058 127.867,9.31372 128.951,8.92464 129.108,8.89455 131.962,8.74537 133.159,8.70683 134.357,8.70016 135.355,8.72279 136.651,8.78635 137.646,8.85961 138.44,8.94072 139.63,9.09015 141.115,9.29597 142.599,9.51289 145.961,10.017 149.124,10.4952 152.215,10.9641 " fill="none" stroke-width="1" stroke="rgb(232,26,75)" />
	<polyline points="120.906,6.84278 124.509,7.42339 125.073,7.55414 125.626,7.7409 125.989,7.87472 126.453,8.02345 127.753,8.35865 129.035,8.64278 129.227,8.67113 130.14,8.74817 " fill="none" stroke-width="1" stroke="rgb(232,26,75)" />
	<polyline points="152.215,10.9641 152.249,11.4636 152.251,11.4656 152.363,11.489 154.54,11.874 156.411,12.1823 160.958,12.8824 163.361,13.2372 167.786,13.8692 169.866,14.1578 172.343,14.4887 174.922,14.8191 176.211,14.9739 178.198,15.198 179.192,15.307 180.086,15.4051 181.012,15.5108 181.111,15.5265 182.041,15.7198 183.603,16.0573 185.378,16.4488 " fill="none" stroke-width="1" stroke="rgb(232,26,75)" />
	<polyline points="184.493,19.13 182.269,18.4846 180.39,17.8511 179.751,17.5132 178.919,16.8022 178.602,16.3421 178.109,15.1853 " fill="none" stroke-width="1" stroke="rgb(232,26,75)" />
	<polyline points="203.101,12.0747 203.129,12.0835 203.275,12.1419 203.329,12.1795 203.384,12.2549 204.151,13.7816 205.093,15.6988 205.159,15.8309 205.833,17.1863 205.922,17.3836 207.022,20.0999 207.472,21.2424 207.54,21.4349 207.708,21.9543 207.853,22.3706 207.997,22.7168 210.861,28.8716 212.395,32.1269 214.967,37.5472 215.727,39.177 216.173,40.1802 216.916,41.9276 217.623,43.6261 " fill="none" stroke-width="1" stroke="rgb(232,26,75)" />
	<polyline points="203.15,21.3509 205.076,22.4142 206.479,23.185 207.022,23.4843 207.221,23.5994 207.374,23.6953 207.527,23.797 207.563,23.8222 207.68,23.91 207.779,23.9935 208.058,24.2551 208.188,24.3849 208.635,24.8488 208.746,24.9638 " fill="none" stroke-width="1" stroke="rgb(232,26,75)" />
	<polyline points="185.378,16.4488 186.032,16.641 188.043,17.2433 190.53,18.0106 190.659,18.0691 191.177,18.4026 191.305,18.5025 191.728,18.8817 192.33,19.3915 192.541,19.5143 193.169,19.72 199.063,21.1958 200.55,21.4938 201.108,21.5294 202.191,21.4586 203.15,21.3509 " fill="none" stroke-width="1" stroke="rgb(232,26,75)" />
	<polyline points="184.493,19.13 185.719,19.4146 185.861,19.4476 187.232,19.7647 188.989,20.1478 190.052,20.344 190.215,20.3423 190.864,20.2004 191.725,19.9666 192.438,19.7573 " fill="none" stroke-width="1" stroke="rgb(232,26,75)" />
	<polyline points="222.765,73.1252 222.785,73.166 223.017,73.7 223.533,74.9747 223.829,75.8001 223.876,76.0109 224.184,78.765 224.385,80.6528 224.627,82.8385 224.99,85.805 225.242,87.6403 225.289,87.9112 225.294,87.9155 225.534,87.9571 225.677,87.9781 225.778,87.9911 " fill="none" stroke-width="1" stroke="rgb(232,26,75)" />
	<polyline points="220.525,97.0215 220.431,96.8123 219.74,95.2752 219.683,95.1422 219.566,94.8461 219.525,94.7004 219.08,92.3942 218.904,91.3349 218.819,90.6238 218.717,89.3305 218.68,88.5332 218.665,87.5347 218.678,85.3359 218.707,84.0376 218.804,81.4414 218.832,80.9513 218.846,80.8537 218.892,80.6763 219.603,78.2895 219.673,78.0746 219.743,77.8781 219.778,77.7763 220.394,75.8859 220.443,75.7704 220.697,75.3054 220.875,75.0355 221.246,74.586 221.844,73.9703 222.628,73.2433 222.765,73.1252 " fill="none" stroke-width="1" stroke="rgb(232,26,75)" />
	<polyline points="217.623,43.6261 218.19,45.1858 219.584,49.0415 220.655,52.0552 221.039,53.1908 221.483,54.6211 221.692,55.3897 222.095,57.1384 222.367,58.5051 222.48,59.2901 222.641,61.0772 222.767,63.2718 222.949,68.5504 222.976,70.7406 222.946,71.3479 222.765,73.1252 " fill="none" stroke-width="1" stroke="rgb(232,26,75)" />
	<polyline points="231.209,106.979 231.193,106.116 231.191,106.005 231.152,104.728 231.05,101.609 231.036,101.419 230.949,100.641 230.859,99.8956 230.845,99.7921 230.629,98.1434 230.459,96.7548 230.251,94.8681 230.147,93.7762 229.928,91.187 229.847,90.2923 229.793,89.8163 229.706,89.2054 229.418,87.3283 229.3,86.5388 229.192,85.748 228.973,84.0828 228.944,83.8968 228.836,83.3186 228.744,82.8372 228.725,82.7345 228.538,81.6309 228.277,80.0552 227.933,77.985 227.826,77.3964 227.704,76.8244 227.343,75.2815 227.319,75.1959 227.268,75.0334 227.243,74.9452 227.049,74.1578 226.762,72.995 226.484,71.9202 226.438,71.7832 226.38,71.6672 226.123,71.244 226.073,71.1686 225.965,71.0044 225.877,70.8262 225.714,70.3317 224.976,67.4601 224.456,65.2319 224.226,64.1585 " fill="none" stroke-width="1" stroke="rgb(232,26,75)" />
	<polyline points="35.2701,167.556 35.5959,166.752 35.8072,166.195 35.9274,165.819 36.0195,165.435 36.1201,164.851 36.1461,164.558 36.174,163.264 36.1717,161.864 36.1149,158.366 36.0817,157.168 35.9892,154.67 35.9234,152.872 35.8818,151.474 35.845,149.698 35.7698,145.076 35.7112,141.676 35.6492,138.878 35.5738,136.38 35.4888,134.282 35.1736,127.691 34.8674,121.699 34.6259,117.306 34.4849,115.011 34.1572,110.123 34.025,108.228 33.9689,107.43 33.8691,105.934 33.8197,105.037 33.7619,103.64 33.6264,99.9435 33.5887,99.1456 33.5333,98.3491 33.0884,92.9684 32.9458,91.2745 32.848,90.0788 32.6924,87.9862 32.6307,86.8916 32.5741,85.1951 32.4691,80.1971 32.4571,78.8978 32.4676,76.7988 32.4976,74.9001 32.5265,74.0017 32.6203,72.0046 32.7265,70.0078 32.8399,67.994 " fill="none" stroke-width="1" stroke="rgb(232,26,75)" />
	<polyline points="38.7047,155.999 38.6792,155.915 38.6609,155.785 38.5465,152.68 38.235,141.689 37.7933,124.497 37.6588,119.113 37.655,119.008 37.6442,118.793 37.364,113.398 37.0783,107.706 36.9526,105.066 36.9495,104.953 36.94,103.911 36.9286,102.912 36.9101,102.013 36.8728,100.92 36.8438,100.423 36.8158,100.161 36.6355,98.913 36.5257,98.2026 36.5008,98.04 36.4519,97.6658 36.2512,95.7593 35.9236,92.0865 35.4496,86.199 35.4143,85.79 35.1593,83.1052 34.7897,79.2632 34.7429,78.7714 34.4791,76.0031 34.3113,74.3262 34.217,73.4355 34.1308,72.5968 33.8835,69.9242 33.7914,68.704 33.7457,67.8873 " fill="none" stroke-width="1" stroke="rgb(232,26,75)" />
	<polyline points="127.154,75.0405 127.166,75.0492 127.312,75.1699 127.376,75.2471 127.477,75.4514 128.536,78.1377 128.629,78.3612 129.453,80.197 129.538,80.3206 129.656,80.4048 130.041,80.5813 130.097,80.6067 130.218,80.6709 130.279,80.7217 130.379,80.8566 130.904,81.7547 131.329,82.5413 131.777,83.434 132.549,85.0259 132.642,85.2175 132.697,85.329 133.397,86.73 133.631,87.1956 133.722,87.373 134.236,88.3616 134.662,89.1834 134.732,89.3216 135.643,91.1613 135.738,91.3445 136.429,92.6402 136.507,92.7933 136.776,93.3607 137.561,95.0228 137.694,95.2809 138.456,96.6503 138.593,96.8863 138.76,97.1716 138.825,97.2974 139.448,98.6574 139.503,98.7911 140.226,100.74 140.27,100.856 140.742,102.076 140.809,102.246 141.516,104.018 141.62,104.249 142.318,105.644 142.401,105.79 142.487,105.924 142.645,106.176 142.722,106.343 143.556,108.819 144.189,110.806 145.438,114.891 146.039,116.903 146.522,118.558 146.562,118.706 146.685,119.225 " fill="none" stroke-width="1" stroke="rgb(232,26,75)" />
	<polyline points="133.689,80.963 133.478,80.9259 132.784,80.8243 132.354,80.7857 131.678,80.7649 131.67,80.7706 131.418,81.4194 131.189,82.0305 " fill="none" stroke-width="1" stroke="rgb(232,26,75)" />
	<polyline points="220.525,97.0215 221.03,98.1499 221.102,98.294 221.539,99.0842 221.662,99.3072 222.615,101.069 223.046,101.858 223.584,102.816 223.938,103.417 224.679,104.604 226.05,106.73 226.314,107.109 226.47,107.299 226.639,107.473 227.281,108.1 227.745,108.606 227.975,108.951 228.029,109.155 228.082,110.712 228.095,110.733 229.925,111.717 231.083,112.296 232.717,113.044 234.899,113.98 236.033,114.431 238.093,115.193 240.113,115.913 243.773,117.197 243.912,117.253 245.68,118.099 245.923,118.239 246.688,118.764 246.875,118.903 246.931,118.948 " fill="none" stroke-width="1" stroke="rgb(232,26,75)" />
	<polyline points="171.258,99.6802 173.745,99.9474 174.947,100.08 175.234,100.113 175.996,100.202 177.219,100.327 179.613,100.515 179.928,100.502 180.601,100.385 181.159,100.282 181.301,100.28 186.014,100.957 186.259,100.98 186.464,100.98 186.685,100.969 186.86,100.965 186.95,100.976 188.569,101.343 189.835,101.635 190.403,101.761 190.631,101.804 191.256,101.908 191.436,101.939 191.871,102.017 192.253,102.089 192.418,102.123 192.714,102.193 193.197,102.315 194.163,102.568 195.308,102.87 195.471,102.912 198.083,103.535 198.206,103.56 198.482,103.608 198.612,103.632 200.137,103.958 202.287,104.422 204.045,104.801 208.409,105.744 209.467,105.983 210.047,106.129 212.072,106.683 214.482,107.355 214.675,107.41 215.764,107.722 217.588,108.245 218.312,108.452 218.5,108.505 220.824,109.151 223.116,109.786 223.328,109.842 224.973,110.252 225.968,110.489 226.597,110.627 227.875,110.889 " fill="none" stroke-width="1" stroke="rgb(232,26,75)" />
	<polyline points="146.685,119.225 147.179,120.774 147.214,120.89 147.789,122.953 148.507,125.555 148.902,127.002 149.185,128.047 149.24,128.249 149.689,129.946 149.762,130.235 150.427,133.039 150.451,133.137 150.481,133.253 151.124,135.706 151.169,135.867 151.186,135.917 151.242,136.063 151.63,137.08 151.667,137.196 151.941,138.265 152.233,139.429 153.092,142.864 153.738,145.44 154.903,150.096 155.45,152.329 156.306,155.926 156.55,156.985 156.585,157.16 156.927,159.173 157.328,161.64 157.548,163.109 157.769,164.751 157.775,164.883 157.747,165.528 157.741,165.624 157.73,165.79 157.727,165.945 157.742,166.953 157.76,167.202 157.861,167.963 158.166,169.936 158.647,172.897 159.005,175.067 159.675,179.111 159.819,179.999 160.092,181.777 160.406,183.952 160.554,185.14 160.668,186.332 160.796,188.126 160.9,190.121 160.998,192.718 161.089,196.111 161.217,202.514 161.285,207.213 161.292,208.986 161.275,211.21 161.222,215.31 161.193,217.709 161.181,219.609 161.184,221.908 161.203,223.585 161.252,225.806 161.318,228.103 161.361,229.417 " fill="none" stroke-width="1" stroke="rgb(232,26,75)" />
	<polyline points="165.228,233.144 164.925,232.298 164.673,231.556 164.491,230.917 164.303,229.993 164.075,228.253 163.878,225.774 163.64,220.984 163.609,219.687 163.612,217.988 163.646,215.889 163.693,213.89 163.751,211.591 163.779,210.291 163.813,208.192 163.848,205.093 163.857,203.693 163.855,202.694 163.847,200.794 163.839,194.796 163.863,191.811 163.903,190.084 163.928,189.406 164.015,187.164 164.026,185.976 163.958,183.583 163.759,179.389 163.655,177.694 163.516,175.801 163.51,175.744 163.482,175.575 162.982,172.737 162.818,171.855 162.64,170.974 162.409,169.9 161.847,167.362 161.722,166.776 161.533,165.838 161.487,165.586 161.416,165.171 161.393,165.073 160.793,163.018 159.959,160.242 159.509,158.808 158.893,156.939 158.869,156.885 158.753,156.694 158.393,156.083 157.719,154.86 156.522,152.629 156.427,152.504 156.304,152.415 155.833,152.18 155.797,152.157 155.713,152.085 155.491,151.871 155.419,151.799 " fill="none" stroke-width="1" stroke="rgb(232,26,75)" />
	<polyline points="235.823,114.467 235.731,115.174 235.637,115.966 235.477,117.554 235.465,117.847 235.484,118.14 235.612,119.126 235.68,119.501 235.799,119.999 236.109,121.157 236.429,122.313 237.176,125.008 237.365,125.726 237.423,125.992 237.649,127.2 237.682,127.36 237.806,127.894 238.088,129.058 238.466,130.591 238.501,130.736 238.757,131.819 238.855,132.256 239.263,134.163 239.492,135.254 239.509,135.336 239.823,136.963 239.949,137.651 240.494,140.803 240.69,141.987 240.863,143.086 241.023,144.16 241.369,146.533 241.534,147.687 241.558,147.873 241.812,150.088 242.052,152.271 242.231,153.961 242.347,155.054 242.619,157.55 242.646,157.738 242.693,158.014 242.706,158.114 242.973,161.287 243.589,168.787 243.606,169.009 243.612,169.115 243.832,174.395 243.961,177.892 244.08,181.889 244.159,185.687 244.181,188.485 244.158,189.879 243.872,197.971 243.726,201.735 243.713,201.997 243.46,206.449 243.452,206.558 243.318,207.978 243.308,208.091 243.095,210.29 242.808,213.073 242.548,215.354 242.025,219.608 241.892,220.632 241.638,222.547 241.63,222.66 241.599,225.35 241.548,226.343 241.371,227.861 241.043,229.797 240.777,230.956 240.487,231.907 239.771,233.877 237.576,239.563 236.044,243.436 235.945,243.662 235.921,243.701 235.863,243.766 235.657,243.986 235.514,244.15 235.025,244.744 234.929,244.867 234.571,245.346 234.458,245.506 233.911,246.319 233.461,246.98 233,247.63 232.579,248.183 231.441,249.597 231.294,249.764 231.138,249.926 " fill="none" stroke-width="1" stroke="rgb(232,26,75)" />
	<polyline points="237.687,244.763 238.371,242.631 240.145,237.081 240.249,236.745 240.445,236.084 241.013,234.126 241.471,232.532 241.521,232.34 241.845,230.972 242.07,229.96 242.313,228.782 242.331,228.654 242.336,228.534 242.33,227.689 242.337,226.466 242.384,225.527 242.561,223.817 242.96,220.998 243.06,220.629 243.655,219.202 244.337,217.726 244.613,217.163 244.623,217.136 244.652,217 244.871,215.756 245.309,213.144 245.325,213.017 245.523,210.269 245.629,208.276 245.69,205.883 245.707,201.796 245.681,198.44 245.664,197.601 245.55,193.694 245.467,191.099 245.419,189.902 245.343,188.507 245.183,186.117 245.05,184.373 245.019,184.045 244.807,182.195 244.551,180.136 244.536,180.111 244.366,180.004 244.256,179.941 244.253,179.936 244.237,179.743 244.128,177.784 243.953,174.29 243.887,172.792 243.804,170.694 243.755,169.382 " fill="none" stroke-width="1" stroke="rgb(232,26,75)" />
	<polyline points="65.7654,224.194 65.7962,224.337 65.919,224.95 65.9288,225.046 65.9417,226.298 65.9652,229.797 65.994,231.595 66.0702,233.989 66.1973,236.755 66.2343,237.161 66.5436,239.467 66.577,239.703 " fill="none" stroke-width="1" stroke="rgb(232,26,75)" />
	<polyline points="69.273,233.005 69.2042,232.919 68.8885,232.519 67.5595,230.813 67.5591,230.814 67.3392,232.407 66.7596,237.002 66.6644,237.994 66.6007,239.09 66.577,239.703 " fill="none" stroke-width="1" stroke="rgb(232,26,75)" />
	<polyline points="33.0831,174.068 33.0955,174.092 33.1826,174.233 33.2818,174.361 34.6333,175.855 36.8087,178.2 39.6204,181.183 41.4138,183.065 43.1445,184.869 46.8846,188.763 49.4402,191.438 51.6403,193.761 52.733,194.928 53.8099,196.086 53.9996,196.286 57.5288,199.942 59.4699,201.959 60.3634,202.903 62.1298,204.809 63.5275,206.353 64.591,207.567 65.7556,208.936 66.2654,209.55 67.4705,211.015 68.5543,212.31 68.6749,212.432 68.8168,212.544 68.9458,212.634 68.9774,212.661 69.1194,212.809 75.3295,219.589 76.6103,220.992 78.3589,222.915 79.565,224.251 83.2408,228.341 84.7089,229.978 " fill="none" stroke-width="1" stroke="rgb(232,26,75)" />
	<polyline points="65.7654,224.194 65.7142,220.45 65.6845,219.252 65.6316,218.121 65.5429,216.86 65.4221,215.568 65.3237,214.777 65.1954,213.99 65.0738,213.407 64.9481,212.927 64.7464,212.26 64.5691,211.689 64.4631,211.306 64.3193,210.653 64.2601,210.256 64.1648,209.393 64.0597,208.755 63.9582,208.494 62.4433,205.942 62.3339,205.765 62.3124,205.735 62.1476,205.528 61.5033,204.771 59.5247,202.531 57.0044,199.722 56.8575,199.559 53.9709,196.364 53.7252,196.091 52.1032,194.284 50.5525,192.557 " fill="none" stroke-width="1" stroke="rgb(232,26,75)" />
	<polyline points="158.706,110.168 159.209,110.94 159.695,111.696 159.958,112.121 160.312,112.723 160.852,113.68 161.622,115.082 163.239,118.073 163.707,118.956 164.258,120.022 164.752,121.004 165.327,122.169 165.716,122.98 166.223,124.067 166.665,125.04 167.122,126.074 167.561,127.101 168.05,128.286 169.052,130.792 169.993,133.214 170.801,135.366 171.305,136.778 171.915,138.576 172.633,140.76 173.806,144.384 173.848,144.514 175.018,148.085 175.648,149.982 176.669,153.013 177.793,156.334 178.62,158.79 178.998,159.928 179.553,161.623 179.596,161.751 179.622,161.825 179.683,162.004 180.272,163.762 180.315,163.899 180.651,165.058 180.684,165.175 181.398,167.729 181.445,167.902 181.464,167.978 181.942,170.061 182.08,170.644 182.2,171.125 182.239,171.266 182.277,171.397 182.74,172.984 183.617,176.059 184.188,178.168 185.203,182.152 185.639,183.998 186.607,188.39 187.127,190.835 187.689,193.541 187.727,193.712 188.244,195.825 188.611,197.22 188.662,197.339 188.747,197.461 188.762,197.474 188.937,197.571 188.959,197.59 189.085,197.74 189.587,198.39 189.883,198.788 190.216,199.249 191.421,200.914 192.124,201.857 192.654,202.541 192.723,202.628 192.891,202.839 193.252,203.311 193.332,203.43 193.409,203.58 193.448,203.696 194.134,206.56 194.158,206.67 194.295,207.334 194.631,208.962 194.667,209.133 194.674,209.162 194.707,209.294 194.91,210.174 194.95,210.409 195.115,211.877 195.319,213.814 195.33,213.918 195.334,213.957 195.34,214.056 195.574,218.198 195.691,219.993 195.839,221.784 196.067,223.968 196.3,225.746 196.513,227.023 196.904,228.981 197.91,233.703 197.953,233.909 198.394,236.049 198.427,236.264 198.473,236.772 198.484,236.96 198.522,238.116 198.524,238.303 198.512,239.059 198.507,239.278 198.494,239.699 198.492,239.873 198.503,240.96 198.506,241.185 198.511,241.962 198.511,242.185 198.506,242.962 198.503,243.183 198.494,243.791 198.493,243.97 198.501,244.96 198.504,245.184 198.519,245.79 198.531,245.972 198.799,248.714 198.82,248.941 198.822,248.965 " fill="none" stroke-width="1" stroke="rgb(232,26,75)" />
	<polyline points="196.795,241.971 196.793,241.953 196.78,241.793 196.544,239.1 196.532,238.901 196.505,238.088 196.501,237.868 196.496,237.088 196.496,236.867 196.503,236.088 196.514,235.866 196.61,234.991 196.655,234.877 196.927,234.549 197.65,233.8 197.655,233.79 197.688,233.587 197.724,233.328 " fill="none" stroke-width="1" stroke="rgb(232,26,75)" />
	<polyline points="106.387,250.928 107.823,250.004 108.501,249.587 111.175,248.026 111.875,247.648 113.397,246.897 116.198,245.573 118.196,244.653 120.657,243.546 123.561,242.261 123.743,242.188 123.931,242.121 124.115,242.059 125.687,241.518 125.856,241.452 129.005,240.094 129.158,240.032 131.168,239.294 131.329,239.246 131.44,239.225 131.559,239.212 131.635,239.203 131.783,239.173 132.42,239.02 132.584,238.971 134.25,238.399 135.441,237.988 135.539,237.958 136.18,237.782 136.395,237.723 137.531,237.408 137.662,237.369 141.5,236.145 141.694,236.082 145.165,234.916 149.051,233.608 160.139,229.875 161.359,229.471 163.796,228.679 " fill="none" stroke-width="1" stroke="rgb(232,26,75)" />
	<polyline points="165.228,233.144 165.281,233.031 165.443,232.717 165.707,232.274 166.282,231.442 166.952,230.588 167.9,229.5 168.666,228.691 169.021,228.364 169.152,228.283 170.558,227.675 170.626,227.641 170.634,227.632 170.688,227.465 170.726,227.33 170.752,227.224 170.754,227.207 170.753,227.014 " fill="none" stroke-width="1" stroke="rgb(232,26,75)" />
	<polyline points="30.0435,160.111 30.0741,160.196 30.1019,160.28 30.1497,160.432 30.2089,160.612 30.2277,160.648 30.4425,160.947 31.4335,162.267 32.0309,163.061 32.2856,163.404 32.4936,163.693 33.0475,164.471 33.8613,165.605 34.2164,166.088 35.0585,167.205 36.2057,168.719 36.6935,169.365 37.2662,170.132 37.4102,170.328 37.9213,171.026 38.0281,171.156 39.4704,172.731 41.7183,175.144 43.2304,176.741 44.2031,177.747 45.3239,178.889 46.2366,179.814 48.1991,181.811 49.243,182.888 50.3436,184.048 52.9939,186.889 54.152,188.151 55.9593,190.156 57.1344,191.475 58.283,192.772 58.4534,192.962 62.4436,197.333 63.3144,198.298 65.7064,200.985 66.5629,201.955 66.6648,202.075 68.2165,203.95 69.0864,204.986 70.0295,206.081 71.8516,208.149 74.9409,211.614 78.282,215.333 81.4344,218.819 82.3132,219.776 83.6786,221.237 86.421,224.148 88.3381,226.181 92.2747,230.359 94.3091,232.533 98.6409,237.224 100.163,238.943 102.787,242.068 103.899,243.47 104.086,243.756 104.162,243.941 104.489,245.183 104.598,245.735 104.616,246.002 104.596,246.254 104.47,247.066 104.384,247.668 104.356,247.991 104.362,248.132 104.396,248.302 104.426,248.373 104.508,248.491 106.049,250.381 107.095,251.633 109.021,253.889 110.067,255.099 111.542,256.794 " fill="none" stroke-width="1" stroke="rgb(232,26,75)" />
	<polyline points="102.096,244.945 104.028,247.11 " fill="none" stroke-width="1" stroke="rgb(232,26,75)" />
	<polyline points="102.096,244.945 101.826,244.998 101.762,244.998 101.637,244.964 101.508,244.902 101.438,244.847 100.372,243.74 99.64,242.967 99.5739,242.895 97.0265,240.075 95.5386,238.466 94.8492,237.766 94.6832,237.63 94.4668,237.495 94.3825,237.454 94.2612,237.407 94.0129,237.313 93.9164,237.266 93.6205,237.085 92.1151,236.092 92.0443,236.036 91.2856,235.322 91.2022,235.243 90.6753,234.749 90.2799,234.385 90.1525,234.274 89.3326,233.6 89.1875,233.492 88.0538,232.727 87.8412,232.594 87.758,232.552 87.61,232.493 87.4078,232.417 87.2932,232.371 87.1541,232.305 87.0717,232.253 86.9515,232.152 85.7827,231.026 84.7089,229.978 " fill="none" stroke-width="1" stroke="rgb(232,26,75)" />
	<polyline points="111.217,250.047 110.004,248.702 " fill="none" stroke-width="1" stroke="rgb(232,26,75)" />
	<polyline points="105.62,245.778 101.931,248.467 101.858,248.488 101.477,248.435 101.389,248.399 101.306,248.326 100.7,247.586 99.8167,246.431 99.6314,246.147 98.9561,244.932 98.5202,244.121 98.251,243.611 97.2148,241.6 96.4036,239.936 96.3922,239.832 96.5333,239.284 " fill="none" stroke-width="1" stroke="rgb(232,26,75)" />
	<polyline points="56.2169,157.583 56.957,157.924 57.3121,158.101 57.5664,158.25 57.8896,158.476 58.5132,158.969 59.0364,159.425 60.2,160.516 62.2838,162.532 66.1651,166.326 66.2972,166.455 67.378,167.501 68.8612,168.944 68.9869,169.075 70.2234,170.463 71.6753,172.113 72.7247,173.319 73.5489,174.274 73.682,174.428 74.5605,175.444 74.6492,175.549 76.1801,177.412 76.3308,177.6 78.5561,180.433 78.6616,180.566 80.1663,182.442 80.2752,182.577 80.3262,182.64 80.3824,182.713 81.4456,184.154 82.4094,185.464 82.5038,185.592 83.4678,186.882 84.532,188.298 84.6693,188.474 85.4577,189.447 85.543,189.554 86.2371,190.434 86.3962,190.641 88.4531,193.374 88.562,193.514 89.3474,194.495 89.458,194.636 91.5229,197.31 91.6024,197.412 91.677,197.507 93.2709,199.527 93.3759,199.662 94.2566,200.809 95.4137,202.314 97.0001,204.374 98.1118,205.809 100.191,208.479 104.568,214.069 106.007,215.885 106.976,217.082 107.094,217.219 107.192,217.327 107.338,217.49 107.797,218.03 108.953,219.433 109.822,220.503 110.933,221.88 112.715,224.078 114.866,226.71 116.373,228.543 116.509,228.706 118.454,231.007 119.233,231.918 120.16,232.992 120.263,233.115 120.415,233.305 121.876,235.199 123.579,237.42 125.503,239.935 125.625,240.088 127.033,241.786 127.122,241.891 127.184,241.963 127.329,242.13 128.934,243.989 129.085,244.163 129.184,244.277 129.263,244.377 130.169,245.598 133.061,249.551 135.813,253.361 138.83,257.594 141.245,261.026 141.463,261.357 141.719,261.785 142.848,263.758 142.92,263.881 142.95,263.927 " fill="none" stroke-width="1" stroke="rgb(232,26,75)" />
	<polyline points="155.292,274.2 154.845,273.276 154.441,272.475 154.108,271.865 153.696,271.185 153.425,270.792 152.623,269.752 150.937,267.646 150.301,266.876 149.069,265.43 148.48,264.751 147.154,263.254 145.08,260.958 144.032,259.841 143.847,259.675 143.681,259.564 143.57,259.511 143.451,259.472 143.308,259.441 143.166,259.43 142.396,259.47 142.076,259.56 141.94,259.694 141.808,260.081 141.798,260.394 141.896,260.915 142.018,261.312 142.739,263.276 142.82,263.513 142.95,263.927 " fill="none" stroke-width="1" stroke="rgb(232,26,75)" />
	<polyline points="111.542,256.794 111.606,256.865 113.089,258.522 115.153,260.835 116.155,261.961 119.004,265.169 119.65,265.893 119.784,266.041 120.491,266.812 121.71,268.134 124.425,271.062 125.696,272.415 126.01,272.734 127.676,274.349 128.754,275.39 129.256,275.874 " fill="none" stroke-width="1" stroke="rgb(232,26,75)" />
	<polyline points="111.217,250.047 113.548,252.663 114.9,254.223 115.6,255.109 117.023,257.147 118.525,259.57 120.708,263.48 121.408,264.861 121.693,265.467 121.838,265.751 122.516,266.935 124.031,269.457 124.384,270.006 125.212,271.209 126.225,272.647 " fill="none" stroke-width="1" stroke="rgb(232,26,75)" />
	<polyline points="66.577,239.703 66.5959,239.933 66.8511,243.059 66.9262,243.949 66.933,244.007 66.9832,244.377 67.1889,246.142 67.468,249.11 67.5675,250.8 67.6241,253.296 67.6328,256.295 67.609,259.594 67.5838,261.68 67.5799,261.865 67.5227,263.9 67.3913,268.798 67.3276,271.796 67.3274,272.794 67.3756,274.789 67.4524,276.835 67.4721,277.079 67.71,278.988 67.9593,280.746 68.0277,281.046 68.5555,282.699 68.6306,282.876 68.687,282.966 68.6961,282.972 68.8238,282.993 " fill="none" stroke-width="1" stroke="rgb(232,26,75)" />
	<polyline points="69.273,233.005 69.2721,233.083 69.2307,237.303 69.1698,243.682 69.1672,244.034 69.1567,246.019 69.1411,249.116 69.127,251.116 69.0997,253.415 69.0231,257.913 68.9761,259.911 68.9154,261.909 68.8819,262.908 68.6855,268.804 68.6024,271.802 68.5933,272.9 68.6242,275.198 68.7132,278.995 68.8238,282.993 " fill="none" stroke-width="1" stroke="rgb(232,26,75)" />
	<polyline points="95.0647,283.098 97.0098,283.181 99.5076,283.271 101.006,283.298 105.084,283.284 106.65,283.232 107.317,283.169 108.554,282.997 108.734,282.986 110.885,283.043 112.969,283.174 115.016,283.4 116.761,283.674 117.919,283.897 119.251,284.173 120.548,284.428 120.824,284.466 124.96,284.803 126.637,284.94 127.46,285.007 129.71,285.166 131.79,285.26 138.982,285.43 144.081,285.506 147.027,285.533 " fill="none" stroke-width="1" stroke="rgb(232,26,75)" />
	<polyline points="135.956,283.354 130.894,283.339 127.038,283.331 126.933,283.334 125.299,283.436 122.706,283.606 117.707,283.937 117.274,283.958 114.271,284.044 110.976,284.103 108.479,284.104 107.084,284.061 105.492,283.953 101.981,283.635 101.952,283.619 101.829,283.451 " fill="none" stroke-width="1" stroke="rgb(232,26,75)" />
	<polyline points="79.9834,281.993 80.0999,282 87.093,282.432 91.2623,282.742 94.551,283.042 95.0647,283.098 " fill="none" stroke-width="1" stroke="rgb(232,26,75)" />
	<polyline points="94.7286,284.392 95.0139,282.406 " fill="none" stroke-width="1" stroke="rgb(232,26,75)" />
	<polyline points="71.0104,281.115 71.0512,281.448 71.0563,281.454 71.3138,281.504 73.7383,281.884 74.4223,281.955 75.5153,281.995 78.0138,282.005 79.9834,281.993 " fill="none" stroke-width="1" stroke="rgb(232,26,75)" />
	<polyline points="94.7286,284.392 90.6042,284.263 86.5126,284.081 82.8403,283.836 78.3371,283.441 77.1689,283.309 75.6896,283.108 74.3196,282.909 73.7279,282.819 71.5445,282.452 71.3663,282.393 71.2965,282.329 71.0654,281.931 71.0569,281.903 71.0215,281.492 71.0198,281.459 71.0104,281.115 " fill="none" stroke-width="1" stroke="rgb(232,26,75)" />
	<polyline points="147.027,285.533 147.243,285.516 149.504,285.354 154.489,285.022 155.786,284.948 156.977,284.891 " fill="none" stroke-width="1" stroke="rgb(232,26,75)" />
	<polyline points="156.992,284.891 160.784,284.905 166.284,284.926 169.684,284.938 169.686,284.938 169.684,284.938 166.284,284.943 160.484,284.96 156.285,284.981 154.386,284.998 149.588,285.043 147.458,285.048 147.436,285.036 146.774,284.129 146.62,283.99 146.415,283.923 143.892,283.681 141.103,283.476 140.792,283.462 138.193,283.402 135.956,283.354 " fill="none" stroke-width="1" stroke="rgb(232,26,75)" />
	<polyline points="227.537,289.335 224.54,289.217 221.343,289.083 220.045,289.018 217.853,288.888 216.815,288.82 216.703,288.811 214.656,288.611 212.268,288.387 209.779,288.169 203.912,287.674 203.782,287.657 203.205,287.558 203.024,287.534 202.27,287.471 199.878,287.312 198.182,287.22 196.085,287.13 192.188,286.981 190.69,286.917 189.093,286.836 185.854,286.654 185.673,286.644 183.195,286.496 180.458,286.333 180.276,286.322 177.174,286.117 177.071,286.108 176.881,286.087 175.714,285.951 172.405,285.579 171.482,285.491 168.065,285.229 163.984,284.935 " fill="none" stroke-width="1" stroke="rgb(232,26,75)" />
	<polyline points="237.687,244.763 237.634,244.847 237.548,245.001 237.481,245.154 236.872,246.787 236.808,246.934 236.504,247.537 236.411,247.703 236.275,247.922 236.163,248.109 236.113,248.214 235.42,249.979 235.358,250.137 235.299,250.28 234.675,251.771 234.633,251.851 234.516,252.024 234.41,252.186 234.343,252.317 233.634,253.985 233.311,254.714 233.213,254.886 233.131,254.977 233.075,255.007 232.911,255.042 232.556,255.091 232.553,255.093 232.507,255.271 232.376,255.901 232.019,257.844 231.7,259.625 231.661,259.795 231.538,260.2 231.325,260.827 231.268,260.971 231.123,261.29 231.083,261.374 230.963,261.625 230.907,261.755 230.295,263.35 230.236,263.521 229.787,264.963 229.302,266.567 228.278,270.042 227.753,271.862 227.457,272.927 227.096,274.279 226.692,275.842 226.333,277.283 225.704,279.907 225.534,280.687 225.45,281.175 225.38,281.767 225.338,282.362 225.319,283.06 225.31,285.759 225.317,287.957 225.326,289.079 " fill="none" stroke-width="1" stroke="rgb(232,26,75)" />
	<polyline points="19.6221,70.4001 19.614,69.9513 19.6035,69.4529 19.578,68.2546 19.576,67.8562 19.5862,67.4583 19.6291,66.5606 19.7604,64.0646 19.9668,59.7724 20.026,57.8788 20.0591,54.7837 20.0488,53.1236 20.0113,51.1589 19.9821,49.791 19.948,47.8925 19.8466,41.2937 19.8157,39.4945 19.7799,37.8954 19.7298,36.1963 19.5882,32.1991 19.4947,30.0018 19.3897,28.0058 19.1982,24.8123 18.9791,21.2766 18.8108,18.4249 18.7063,16.3297 18.6908,15.6327 18.7012,13.9351 18.7385,11.4707 " fill="none" stroke-width="1" stroke="rgb(232,26,75)" />
	<polyline points="67.3891,10.001 67.477,10.1498 67.5031,10.247 67.8022,16.6295 67.8278,18.1195 67.7819,20.1125 67.6833,22.1979 67.5148,25.2146 67.5183,25.4077 67.6044,26.0932 67.6563,26.225 67.8856,26.5155 68.4266,27.0878 68.4293,27.094 68.4315,27.2215 68.4107,28.8139 68.3975,29.0392 68.1539,31.3717 68.0592,32.1638 67.8482,33.749 67.6756,35.0364 67.5364,36.1266 67.174,39.1043 66.9096,41.2882 66.6869,43.0737 66.6151,43.5668 66.5258,44.0566 66.1201,46.0131 65.775,47.5735 65.6502,48.0545 65.1343,49.7746 64.8873,50.5121 64.5535,51.3911 63.9616,52.8463 63.6556,53.5782 " fill="none" stroke-width="1" stroke="rgb(232,26,75)" />
	<polyline points="46.0313,6.79675 46.1931,8.91755 46.3194,10.8112 46.4332,13.0043 46.5862,16.7991 46.7667,21.8956 46.8446,24.0938 46.9288,26.2914 46.9954,27.8892 47.0381,28.888 47.0606,29.4869 47.1093,31.0856 47.2007,34.6836 47.2544,37.5818 47.2602,39.3798 47.2215,41.1758 47.1295,42.8641 47.0539,43.4443 46.6125,45.6704 46.5572,45.8968 46.5502,45.9039 46.3265,45.966 46.2997,45.9727 " fill="none" stroke-width="1" stroke="rgb(232,26,75)" />
	<polyline points="32.7861,7.24751 32.8885,10.5242 32.9037,11.7708 32.8861,11.8894 32.8201,12.0923 32.8024,12.1663 32.792,12.3377 32.8505,15.4856 32.8895,16.2796 33.1069,19.0694 33.2991,21.4599 33.4537,23.5526 34.0586,32.5314 34.3186,36.6223 34.3592,37.4202 34.3907,38.3188 34.5127,42.2164 34.5922,43.812 34.7669,45.8979 35.0383,48.1655 35.523,51.4738 35.5984,51.8931 35.622,51.995 " fill="none" stroke-width="1" stroke="rgb(232,26,75)" />
	<polyline points="75.0943,51.9436 75.112,51.91 75.1884,51.7597 76.1193,49.9207 76.1752,49.8408 76.2755,49.7462 76.3086,49.7238 76.4283,49.6571 76.501,49.6071 76.6261,49.4906 76.907,49.172 76.9824,49.0533 77.4126,48.1094 77.7124,47.3733 77.9425,46.7165 78.3243,45.4765 78.6791,44.2284 78.8286,43.6494 79.4108,41.2347 79.4705,40.9901 79.7122,39.9993 79.7545,39.7766 80.2525,36.2124 80.2718,36.0356 80.3579,34.8928 80.4272,33.7966 80.5041,32.2993 80.6512,29.0037 80.7721,26.1072 80.8138,25.0082 80.8537,23.8094 80.9149,21.8111 80.9895,19.4125 81.0258,18.414 81.0778,17.2161 81.1698,15.2189 81.2578,13.222 81.4006,9.72601 81.5174,6.72158 " fill="none" stroke-width="1" stroke="rgb(232,26,75)" />
	<polyline points="139.159,8.97466 138.799,10.1524 138.34,11.6844 138.21,12.1648 138.101,12.6495 138.035,13.0405 137.994,13.4347 137.971,13.9307 137.944,15.6257 137.946,16.0109 137.955,16.1575 138.449,20.9974 138.66,23.0064 138.68,23.167 138.869,24.484 139.189,26.6596 139.296,27.351 139.594,29.2264 139.752,30.2135 139.924,31.2998 140.273,33.5721 140.47,34.9257 140.483,35.0523 140.488,35.2244 140.492,35.3829 140.513,35.9887 140.53,36.1522 140.743,37.4724 141.032,39.1468 141.191,40.0352 141.355,40.9166 141.549,41.9428 141.584,42.1246 141.919,43.8393 142.318,45.8997 142.447,46.6021 142.466,46.7373 142.516,47.2834 142.527,47.4159 142.582,48.0298 142.616,48.2818 142.832,49.45 143.257,51.6047 143.481,52.6904 143.555,53.0162 143.983,54.7171 144.341,56.0671 144.564,56.8331 144.78,57.4974 145.411,59.3289 " fill="none" stroke-width="1" stroke="rgb(232,26,75)" />
	<polyline points="32.8399,67.994 33.2122,67.9255 33.599,67.8414 33.8784,67.76 34.1483,67.6529 36.0529,66.7778 37.4125,66.1467 38.2296,65.7723 40.0908,64.9342 41.4224,64.3408 45.9026,62.3581 47.1832,61.7943 50.6607,60.2632 53.5678,58.9592 56.8406,57.4408 58.9899,56.3908 60.9351,55.3793 61.6244,54.9845 62.2945,54.5551 62.867,54.1566 63.5123,53.6853 63.6556,53.5782 " fill="none" stroke-width="1" stroke="rgb(232,26,75)" />
	<polyline points="145.411,59.3289 145.907,59.0416 146.078,58.96 146.257,58.9066 146.935,58.7831 147.604,58.6964 147.802,58.691 148.268,58.7248 151.125,58.9968 153.011,59.1572 154.006,59.2142 155.804,59.2737 156.904,59.3052 158.002,59.3481 158.996,59.4116 162.711,59.7209 162.977,59.7535 163.408,59.823 164.651,60.0152 166.416,60.2401 168.105,60.4002 170.882,60.603 171.102,60.6152 174.993,60.7831 177.083,60.8828 177.837,60.9289 178.223,60.961 180.315,61.1631 182.204,61.3409 184.786,61.5702 185.222,61.6008 188.915,61.7956 191.011,61.9003 191.945,61.945 192.081,61.9517 194.207,62.0624 196.304,62.1755 204.794,62.6467 204.988,62.6594 205.174,62.6741 207.699,62.8819 209.293,63.0021 211.923,63.1825 212.028,63.1897 215.698,63.4461 217.836,63.5992 218.112,63.6221 219.896,63.7885 220.99,63.888 222.184,63.9904 224.226,64.1585 " fill="none" stroke-width="1" stroke="rgb(232,26,75)" />
	<polyline points="129,66.4988 129.271,66.5238 133.123,66.8591 135.015,67.0108 138.205,67.2445 138.895,67.2944 139.004,67.3038 141.337,67.5371 141.446,67.5466 147.185,67.9658 149.745,68.1541 149.992,68.1744 154.734,68.6059 154.825,68.6179 155.025,68.6528 155.163,68.6734 157.189,68.9234 159.371,69.187 160.049,69.268 160.189,69.2843 161.77,69.4597 162.563,69.5424 164.652,69.7503 165.645,69.8563 167.43,70.0669 169.117,70.2779 171.695,70.606 172.19,70.662 173.184,70.757 175.274,70.9503 176.178,71.0444 178.051,71.2661 181.623,71.7035 182.416,71.7932 183.41,71.8907 185.699,72.1032 186.591,72.1948 187.582,72.3137 191.251,72.7841 192.142,72.8886 193.134,72.9858 195.423,73.1907 196.515,73.2971 197.405,73.4008 198.99,73.6078 200.477,73.8017 201.267,73.8919 202.302,73.9863 204.85,74.1923 205.545,74.2544 206.339,74.3397 207.09,74.4334 207.173,74.4487 207.788,74.5943 207.884,74.6139 208.167,74.6592 209.253,74.8207 211.842,75.2173 214.872,75.7163 216.618,76.0383 216.84,76.0971 216.855,76.1129 216.976,76.5704 216.993,76.6429 " fill="none" stroke-width="1" stroke="rgb(232,26,75)" />
	<polyline points="19.6221,70.4001 21.081,71.2256 25.0889,73.4823 27.9718,75.0867 29.5527,75.9414 29.9973,76.1587 30.4545,76.3477 31.5779,76.7623 32.398,77.0538 " fill="none" stroke-width="1" stroke="rgb(232,26,75)" />
	<polyline points="49.0001,77.4927 49.0105,77.4946 49.333,77.5448 51.6349,77.8737 53.0189,78.0482 53.9129,78.1338 55.6075,78.252 56.4047,78.2909 59.7018,78.4003 61.2011,78.4402 63.5004,78.4874 73.7984,78.6767 77.3974,78.7447 82.1466,78.8408 82.2395,78.8465 83.0498,78.9308 83.1402,78.9385 84.0944,78.9974 86.3556,79.1225 87.3869,79.1687 90.1846,79.268 91.6832,79.3184 92.4821,79.3453 94.2803,79.4041 95.8775,79.4504 101.774,79.605 103.673,79.6594 104.171,79.6807 104.969,79.7288 106.066,79.8028 107.064,79.8698 108.86,79.9821 110.656,80.08 111.354,80.1037 114.201,80.1462 123.851,80.2511 127.951,80.2926 129.2,80.305 " fill="none" stroke-width="1" stroke="rgb(232,26,75)" />
	<polyline points="51.1556,80.0133 51.2477,80.0983 51.2689,80.136 51.3158,80.3818 51.7549,83.8389 52.1862,87.4113 52.3557,88.8411 52.3788,89.0143 52.8237,92.0174 52.8531,92.204 53.2444,94.5547 53.3416,95.1246 53.3704,95.2856 53.5006,96.0098 53.664,96.9928 53.8676,98.3752 53.9485,99.0671 54.0125,99.8618 54.0698,100.859 54.223,103.854 54.2959,104.949 54.3921,105.939 54.606,107.746 54.619,107.838 54.6237,107.866 54.6355,107.934 54.8135,109.023 54.9558,109.942 54.9676,110.062 55.0154,111.21 55.0546,112.508 55.2425,120.104 55.2968,121.999 55.3364,123.067 55.3452,123.233 55.4586,125.066 55.6045,127.855 55.6839,130.149 55.8074,136.145 55.8154,137.044 55.816,139.844 55.827,142.043 55.8796,146.24 55.9423,149.809 55.9471,149.966 55.9537,150.122 56.003,151.374 56.1509,155.567 56.2169,157.583 " fill="none" stroke-width="1" stroke="rgb(232,26,75)" />
	<polyline points="110.021,80.0882 110.191,81.2239 110.322,81.9916 110.655,83.6712 110.829,84.4031 111.373,86.3722 111.854,87.9977 112.474,90.003 112.994,91.6525 113.975,94.7718 114.944,97.924 115.273,99.0753 116.138,102.361 116.35,103.233 116.647,104.577 116.68,104.746 117.168,107.687 117.349,108.873 117.505,110.06 117.694,111.747 117.842,113.221 117.851,113.354 117.925,116.005 118.002,119.604 118.037,122.701 118.03,125.095 118.004,126.005 117.983,126.171 117.88,126.656 117.847,126.825 117.834,126.929 117.587,131.212 117.292,136.499 " fill="none" stroke-width="1" stroke="rgb(232,26,75)" />
	<polyline points="150.084,118.944 153.246,115.564 153.488,115.31 155.862,112.896 157.133,111.628 157.902,110.89 159.098,109.783 160.164,108.813 160.357,108.643 162.997,106.38 164.397,105.199 166.091,103.794 167.528,102.612 167.674,102.49 168.54,101.749 168.67,101.646 169.342,101.146 171.027,99.9017 171.152,99.8006 171.202,99.7504 171.258,99.6802 " fill="none" stroke-width="1" stroke="rgb(232,26,75)" />
	<polyline points="179.213,144.057 179.406,144.625 180.18,146.897 180.602,148.126 181.176,149.783 181.948,151.998 182.213,152.755 183.36,156.026 183.438,156.252 183.794,157.303 184.541,159.522 184.588,159.668 185.432,162.448 185.492,162.657 185.559,162.908 185.607,163.084 186.408,165.942 186.456,166.122 186.509,166.335 186.555,166.507 187.165,168.663 187.349,169.326 187.394,169.511 187.464,169.852 187.48,169.941 187.529,170.207 187.559,170.333 187.821,171.238 188.352,173.049 188.401,173.246 188.564,174.038 188.601,174.235 188.66,174.571 188.698,174.753 188.838,175.338 189.228,176.887 189.46,177.802 189.531,178.092 189.895,179.633 190.242,181.174 190.396,181.929 190.441,182.207 190.518,182.795 190.564,183.07 190.772,184.049 191.162,185.793 191.387,186.815 191.438,187.086 191.613,188.192 191.66,188.449 191.811,189.143 192.146,190.601 192.404,191.733 192.44,191.917 192.455,192.03 192.467,192.141 192.51,192.583 192.524,192.668 192.795,193.894 193.282,196.138 193.44,196.974 193.448,197.14 193.395,197.604 193.347,197.842 193.333,197.864 191.949,198.959 191.165,199.623 189.987,200.73 189.659,201.103 189.618,201.211 189.507,202.928 189.512,203.316 189.606,204.219 189.948,206.685 190.202,208.262 190.526,210.031 190.97,212.287 191.173,213.266 191.362,214.145 191.576,215.112 191.612,215.265 191.957,216.689 192.338,218.302 192.437,218.785 192.475,219.056 192.501,219.37 192.536,219.907 192.566,220.174 192.708,220.992 192.801,221.368 193.49,223.635 193.658,224.212 193.746,224.567 193.83,224.963 " fill="none" stroke-width="1" stroke="rgb(232,26,75)" />
	<polyline points="117.292,136.499 119.624,136.347 121.321,136.241 124.914,136.032 127.409,135.901 129.107,135.831 134.304,135.668 138.302,135.568 141.1,135.525 143.999,135.509 145.898,135.519 148.897,135.559 150.097,135.58 150.871,135.596 " fill="none" stroke-width="1" stroke="rgb(232,26,75)" />
	<polyline points="197.043,249.297 197.063,249.386 197.118,249.628 197.126,249.657 197.165,249.767 197.2,249.833 197.262,249.901 197.404,249.999 198.725,250.706 199.222,250.928 200.346,251.324 201.967,251.825 205.618,252.87 206.294,253.044 207.269,253.257 211.974,254.206 214.133,254.625 216.099,254.988 217.577,255.242 218.465,255.377 222.032,255.863 224.51,256.173 225.402,256.257 226.796,256.335 228.79,256.396 230.987,256.431 232.151,256.44 " fill="none" stroke-width="1" stroke="rgb(232,26,75)" />
	<polyline points="129.256,275.874 130.591,275.492 130.975,275.397 132.635,275.058 133.123,274.98 133.915,274.899 134.71,274.847 138.405,274.687 140.503,274.608 143.201,274.517 146.099,274.433 148.198,274.385 152.797,274.311 155.493,274.284 155.613,274.293 156.624,274.469 156.895,274.514 157.366,274.58 158.918,274.744 160.899,274.892 163.593,275.015 168.69,275.161 171.488,275.213 175.887,275.263 179.287,275.294 182.887,275.33 184.986,275.365 186.932,275.418 196.677,275.754 198.799,275.831 198.924,275.837 199.385,275.857 201.681,275.954 209.036,276.259 209.164,276.265 216.969,276.67 220.802,276.886 220.894,276.905 221.673,277.185 223.011,277.631 224.32,278.001 225.561,278.297 225.693,278.323 226.04,278.383 " fill="none" stroke-width="1" stroke="rgb(232,26,75)" />
</svg>
