<?xml version="1.0" encoding="utf-8" ?>
<svg baseProfile="full" height="304" version="1.1" viewBox="0,0,487,304" width="487" xmlns="http://www.w3.org/2000/svg" xmlns:ev="http://www.w3.org/2001/xml-events" xmlns:xlink="http://www.w3.org/1999/xlink">
	<path d="M 195.890200 13.257020 L 195.027730 15.028403 L 194.085064 16.758441 L 193.109369 18.470069 L 192.174505 20.204336 L 191.388610 22.010995 L 190.723206 23.865419" fill="none" stroke="black" stroke-width="1.000000" />
	<path d="M 404.687683 29.686640 L 406.446243 30.618650 L 408.201127 31.557565 L 409.946067 32.514832 L 411.687194 33.479016 L 413.386727 34.514722 L 415.039882 35.622941 L 416.671794 36.762247 L 418.306887 37.896993 L 419.938297 39.037028 L 421.558372 40.193109 L 423.157072 41.378561 L 424.727672 42.600987 L 426.271544 43.857003 L 427.784302 45.150316 L 429.254283 46.492024 L 430.666881 47.893985 L 432.027734 49.346255 L 433.375208 50.811001 L 434.711149 52.286275 L 435.900723 53.881624 L 437.081691 55.483652 L 438.259156 57.088256 L 439.442656 58.688413 L 440.646430 60.273344 L 441.858687 61.851694 L 443.078735 63.424126" fill="none" stroke="black" stroke-width="1.000000" />
	<path d="M 157.020203 79.268517 L 155.298700 78.360214 L 153.591904 77.424570 L 151.922034 76.424512 L 150.268328 75.397947 L 148.647507 74.320207 L 147.036091 73.228455 L 145.444061 72.108622 L 143.859622 70.978074 L 142.273790 69.849482 L 140.682836 68.728122 L 139.101018 67.593914 L 137.587608 66.369921 L 136.175677 65.030136 L 134.843617 63.610911 L 133.553031 62.153869 L 132.251544 60.706555 L 130.929329 59.278154 L 129.591362 57.864496 L 128.239455 56.464162 L 126.878493 55.072629 L 125.499431 53.699069 L 124.108960 52.337283 L 122.711197 50.982819" fill="none" stroke="black" stroke-width="1.000000" />
	<path d="M 204.928558 24.388029 L 206.874507 23.942009 L 208.815316 23.474681 L 210.750839 22.987287 L 212.680627 22.476363 L 214.586985 21.887385 L 216.492618 21.295425 L 218.374900 20.630338 L 220.251344 19.949507 L 222.123207 19.255546 L 223.993269 18.556746 L 225.865144 17.862818 L 227.750250 17.206482 L 229.644769 16.579590 L 231.549736 15.983103 L 233.473077 15.449992 L 235.397439 14.919882 L 237.332937 14.430701 L 239.280667 13.992747 L 241.238279 13.601076 L 243.196360 13.211797 L 245.158007 12.840861 L 247.119771 12.470550 L 249.081770 12.101484 L 251.044042 11.733870 L 253.006502 11.367282 L 254.971166 11.012674 L 256.936202 10.660218 L 258.906007 10.335465 L 260.879863 10.036227 L 262.854239 9.740723 L 264.834826 9.489872 L 266.815549 9.240130 L 268.798046 9.004889 L 270.782098 8.783098 L 272.766275 8.562476 L 274.752059 8.356777 L 276.737833 8.150989 L 278.723476 7.943933 L 280.708996 7.735697 L 282.694508 7.527385 L 284.679909 7.318030 L 286.665342 7.108965 L 288.651221 6.904189 L 290.637509 6.703419 L 292.623892 6.503617 L 294.611614 6.317582 L 296.599413 6.132386 L 298.588376 5.960149 L 300.578358 5.800079 L 302.568548 5.643070 L 304.561872 5.532127 L 306.555252 5.422257 L 308.549512 5.329744 L 310.544468 5.253580 L 312.539473 5.178964 L 314.535258 5.129061 L 316.531060 5.079904 L 318.527136 5.043536 L 320.523398 5.019258 L 322.519668 4.996216 L 324.516076 4.994186 L 326.512483 4.992889 L 328.508854 5.004891 L 330.505111 5.029520 L 332.501323 5.056205 L 334.496704 5.120256 L 336.492045 5.185392 L 338.486596 5.271397 L 340.480196 5.377274 L 342.473679 5.485011 L 344.464889 5.629005 L 346.456036 5.773822 L 348.445884 5.935498 L 350.434362 6.113283 L 352.422756 6.291955 L 354.409393 6.489245 L 356.396016 6.686675 L 358.382349 6.887001 L 360.368400 7.090106 L 362.354455 7.293172 L 364.340602 7.495333 L 366.326744 7.697551 L 368.312741 7.901179 L 370.298599 8.106167 L 372.284391 8.311764 L 374.268556 8.532534 L 376.252654 8.753889 L 378.234988 8.990517 L 380.215504 9.241925 L 382.195814 9.494831 L 384.170462 9.788795 L 386.144982 10.083588 L 388.115932 10.401377 L 390.083159 10.741476 L 392.050236 11.082409 L 394.012747 11.448743 L 395.975231 11.815222 L 397.937004 12.185485 L 399.898078 12.559439 L 401.859119 12.933562 L 403.819050 13.313458 L 405.778940 13.693562 L 407.737376 14.081088 L 409.694361 14.475880 L 411.651254 14.871116 L 413.604569 15.283682 L 415.557852 15.696396 L 417.510050 16.114215 L 419.461167 16.537055 L 421.412185 16.960338 L 423.358737 17.403719 L 425.305157 17.847665 L 427.245437 18.317716 L 429.179311 18.813479 L 431.112907 19.310264 L 433.031570 19.861973 L 434.950144 20.413988 L 436.865114 20.978379 L 438.776434 21.555013 L 440.687753 22.131651 L 442.598996 22.708539 L 444.510270 23.285326 L 446.423782 23.854642 L 448.339493 24.416514 L 450.255368 24.977798 L 452.185371 25.488427 L 454.115462 25.998711 L 456.051698 26.485165 L 457.993778 26.947738 L 459.935716 27.410865 L 461.860312 27.941508 L 463.784655 28.472992 L 465.677175 29.108543 L 467.532312 29.846186 L 469.387123 30.584578 L 471.189639 31.442823 L 472.992021 32.301343 L 474.771343 33.206690 L 476.526476 34.158086 L 478.281402 35.109838 L 479.970210 36.174534 L 481.658967 37.239310 L 483.321881 38.344011 L 484.958040 39.487966 L 486.594200 40.631920" fill="none" stroke="black" stroke-width="1.000000" />
	<path d="M 404.687683 29.686640 L 402.945103 28.832129 L 401.196130 27.990779 L 399.440150 27.164154 L 397.673354 26.360909 L 395.902638 25.566341 L 394.113223 24.814841 L 392.318876 24.075185 L 390.531598 23.318610 L 388.767165 22.510211 L 387.022756 21.659459 L 385.291825 20.781600 L 383.575696 19.875148 L 381.880329 18.930443 L 380.195849 17.966445 L 378.471304 17.076199 L 376.688482 16.309497 L 374.881964 15.600151 L 373.062205 14.925455 L 371.231267 14.281710 L 369.393420 13.657948 L 367.564787 13.007682 L 365.800855 12.198806 L 364.138385 11.198105 L 362.469264 10.207752 L 360.743442 9.320136 L 358.960143 8.554582 L 357.132226 7.902603 L 355.267330 7.365429 L 353.372625 6.945298 L 351.453570 6.656139 L 349.527648 6.416235 L 347.599646 6.193575 L 345.670782 5.978506 L 343.741785 5.764643 L 341.812380 5.554494 L 339.882843 5.345551" fill="none" stroke="black" stroke-width="1.000000" />
	<path d="M 213.661194 4.879420 L 212.742091 6.512130 L 211.754178 8.096102 L 210.670522 9.626183 L 209.480233 11.077313 L 208.344515 12.571535 L 207.409341 14.198790 L 206.717771 15.943581 L 206.085793 17.710829 L 205.542646 19.507355 L 205.243547 21.360217 L 205.042746 23.226295 L 204.861707 25.094394 L 204.739588 26.967266 L 204.706200 28.843820" fill="none" stroke="black" stroke-width="1.000000" />
	<path d="M 201.936203 13.476820 L 203.461494 12.480213 L 204.986785 11.483606 L 206.513617 10.489362 L 208.052487 9.513854 L 209.552801 8.480029 L 210.972591 7.338129 L 212.341027 6.135166 L 213.661194 4.879420" fill="none" stroke="black" stroke-width="1.000000" />
	<path d="M 171.527374 32.661552 L 172.711098 31.080752 L 173.908921 29.510844 L 175.135494 27.963618 L 176.376160 26.427292 L 177.685194 24.948565 L 179.030700 23.502934 L 180.399727 22.079553 L 181.786078 20.673044 L 183.193233 19.287367 L 184.632721 17.935362 L 186.120180 16.636305 L 187.641432 15.377375 L 189.061447 14.004862 L 190.462854 12.613354 L 191.844760 11.202475 L 193.208024 9.773579 L 194.547305 8.322173 L 195.870625 6.856197 L 197.186782 5.383792 L 198.527713 3.933936 L 199.920468 2.533759 L 201.323496 1.143878 L 202.752341 -0.219452 L 204.193623 -1.569627" fill="none" stroke="black" stroke-width="1.000000" />
	<path d="M 201.936203 13.476820 L 200.406022 14.636177 L 198.875844 15.795538 L 197.420996 17.048127 L 196.082956 18.424794 L 194.847540 19.894253 L 193.626228 21.375455 L 192.285005 22.749021 L 190.723206 23.865419" fill="none" stroke="black" stroke-width="1.000000" />
	<path d="M 122.711197 50.982819 L 124.631460 51.380500 L 126.558153 51.745741 L 128.494715 52.054427 L 130.435969 52.331605 L 132.318021 52.882375 L 134.145559 53.593391 L 135.890768 54.487669 L 137.558527 55.519233 L 139.184652 56.615256 L 140.769987 57.769487 L 142.294400 59.003065 L 143.773038 60.291160 L 145.238905 61.593772 L 146.695003 62.907292 L 148.123641 64.250625 L 149.496126 65.651278 L 150.790878 67.124084 L 151.982391 68.681596 L 153.067862 70.314779 L 154.010238 72.034513 L 154.869152 73.797415 L 155.631480 75.603827 L 156.342374 77.429195 L 157.020203 79.268517" fill="none" stroke="black" stroke-width="1.000000" />
	<path d="M 443.078735 63.424126 L 444.250890 64.988094 L 445.420324 66.554109 L 446.598360 68.113668 L 447.779591 69.670769 L 448.963669 71.225728 L 450.160606 72.770827 L 451.342437 74.327511 L 452.511155 75.894065 L 453.673586 77.465289 L 454.829910 79.041008 L 455.966066 80.631333 L 457.087471 82.232094 L 458.193395 83.843590 L 459.285497 85.464482 L 460.359579 87.097359 L 461.396705 88.753879 L 462.351574 90.459227 L 463.289533 92.173934 L 464.215718 93.895031 L 465.130352 95.622293 L 466.034824 97.354899 L 466.932710 99.090928 L 467.826264 100.829190 L 468.714393 102.570230 L 469.596443 104.314358 L 470.479092 106.058183 L 471.370350 107.797621 L 472.295754 109.519131 L 473.283917 111.205404 L 474.332423 112.854838" fill="none" stroke="black" stroke-width="1.000000" />
	<path d="M 101.649200 73.030220 L 99.766179 73.457919 L 97.876269 73.854041 L 95.977077 74.202867 L 94.063505 74.460687 L 92.145332 74.682569 L 90.223237 74.867292 L 88.302972 75.070313 L 86.384905 75.293180 L 84.472409 75.559208 L 82.563585 75.850781 L 80.659052 76.169102 L 78.759370 76.515177 L 76.862070 76.874250 L 74.966550 77.242598 L 73.071769 77.614753 L 71.177297 77.988476 L 69.283390 78.365049 L 67.389918 78.743804 L 65.496896 79.124806 L 63.605451 79.513529 L 61.715965 79.911670 L 59.830707 80.329196 L 57.950736 80.769966 L 56.075268 81.229572 L 54.206112 81.714024 L 52.343289 82.222441 L 50.486557 82.752606 L 48.638133 83.310942 L 46.797147 83.893509 L 44.964826 84.502528 L 43.144408 85.146319 L 41.333961 85.817767 L 39.533752 86.516049 L 37.743577 87.239875 L 35.959529 87.978632 L 34.186390 88.743011 L 32.427008 89.538731 L 30.679078 90.359131 L 28.946895 91.212426 L 27.224735 92.085809 L 25.511699 92.976907 L 23.811407 93.892115 L 22.123186 94.829365 L 20.461070 95.810677 L 18.879944 96.919046 L 17.290145 98.015008 L 15.709825 99.124585 L 14.122399 100.224004 L 12.537376 101.326904" fill="none" stroke="black" stroke-width="1.000000" />
	<path d="M 171.527374 32.661552 L 169.546558 32.504751 L 167.564931 32.358997 L 165.582573 32.225066 L 163.599280 32.104516 L 161.614505 32.012215 L 159.629541 31.925455 L 157.643233 31.880825 L 155.657045 31.861204 L 153.670452 31.878236 L 151.685070 31.946880 L 149.700976 32.039734 L 147.718704 32.174570 L 145.738357 32.334617 L 143.758963 32.507639 L 141.779674 32.682350 L 139.800506 32.857873 L 137.819518 33.012496 L 135.838131 33.161871 L 133.856316 33.305480 L 131.875459 33.461379 L 129.898644 33.660484 L 127.924146 33.883137 L 125.956162 34.154493 L 123.994679 34.471812 L 122.035553 34.803512 L 120.079051 35.150247 L 118.124007 35.505244 L 116.167610 35.852644 L 114.209955 36.192946 L 112.252682 36.535432 L 110.296669 36.885027 L 108.341336 37.238431 L 106.388082 37.602997 L 104.436757 37.977903 L 102.485353 38.352390 L 100.533497 38.724517 L 98.581481 39.095801 L 96.630962 39.474808 L 94.681868 39.861138 L 92.737611 40.270485 L 90.802642 40.721818 L 88.873487 41.197796 L 86.957507 41.722329 L 85.054333 42.293424 L 83.157179 42.883898 L 81.269798 43.505062 L 79.387975 44.142984 L 77.515754 44.808075 L 75.652863 45.499349 L 73.799996 46.216447 L 71.963995 46.976114 L 70.136742 47.756705 L 68.322824 48.567339 L 66.521766 49.406631 L 64.725095 50.255193 L 62.935729 51.119123 L 61.152488 51.995572 L 59.386060 52.905022 L 57.635351 53.844830 L 55.907081 54.823813 L 54.216736 55.868209 L 52.544872 56.941809 L 50.908010 58.067394 L 49.302132 59.237596 L 47.705037 60.419616 L 46.123079 61.621956 L 44.549082 62.834644 L 42.993222 64.070439 L 41.452414 65.325083 L 39.927856 66.599030 L 38.431826 67.906739 L 36.949907 69.230235 L 35.501131 70.589866 L 34.078221 71.976783 L 32.684320 73.391986 L 31.341616 74.856689 L 30.008322 76.329928 L 28.691214 77.817663 L 27.385442 79.315388 L 26.093218 80.824666 L 24.825083 82.354390 L 23.574876 83.898456 L 22.374493 85.481745 L 21.204157 87.087515 L 20.063636 88.714074 L 18.976026 90.377000 L 17.906442 92.051243 L 16.890855 93.759022 L 15.899329 95.480967 L 14.911039 97.204769 L 13.928018 98.931584 L 12.934828 100.652458 L 11.909574 102.354522 L 10.874419 104.050597 L 9.843547 105.749275 L 8.818966 107.451760 L 7.822358 109.169828 L 6.921401 110.940782 L 6.060760 112.731428 L 5.289215 114.561282 L 4.633634 116.437031 L 4.010369 118.322783 L 3.502181 120.243683 L 3.020147 122.171292 L 2.574068 124.107479 L 2.167468 126.052446 L 1.773165 127.999819 L 1.423895 129.955893 L 1.090553 131.914609 L 0.817078 133.882540 L 0.599503 135.857604 L 0.405731 137.834704 L 0.304058 139.819113 L 0.211289 141.803935 L 0.144455 143.789805 L 0.097534 145.776264 L 0.060178 147.762861 L 0.061213 149.749874 L 0.068994 151.736801 L 0.122529 153.723063 L 0.204838 155.708368 L 0.303248 157.692838 L 0.455265 159.674027 L 0.609834 161.655007 L 0.784947 163.634286 L 0.969917 165.612671 L 1.157673 167.590792 L 1.353059 169.568175 L 1.551830 171.545193 L 1.784766 173.518501 L 2.032177 175.490034 L 2.313215 177.456948 L 2.668602 179.411921 L 3.024782 181.366748 L 3.391264 183.319672 L 3.760421 185.272092 L 4.131309 187.224184 L 4.505333 189.175678 L 4.883650 191.126268 L 5.338781 193.060453 L 5.808731 194.991052 L 6.343279 196.904732 L 6.969083 198.790624 L 7.597749 200.675501 L 8.321008 202.526208 L 9.052163 204.373802 L 9.825574 206.204111 L 10.646387 208.013666 L 11.467200 209.823220" fill="none" stroke="black" stroke-width="1.000000" />
	<path d="M 41.110598 279.140917 L 41.528344 277.207834 L 41.953640 275.276398 L 42.386525 273.346649 L 42.846047 271.423075 L 43.349551 269.510558 L 43.897288 267.610241 L 44.490439 265.723614 L 45.128962 263.851861 L 45.816650 261.997624 L 46.556713 260.163677 L 47.355007 258.354348 L 48.247283 256.589702 L 49.235850 254.877174 L 50.323907 253.226163 L 51.512177 251.645829 L 52.793844 250.140240 L 54.155565 248.706538 L 55.591376 247.347060 L 57.092280 246.059728 L 58.651330 244.843431 L 60.259741 243.693093 L 61.901422 242.590489 L 63.571176 241.530874 L 65.262055 240.505201 L 66.969723 239.507702 L 68.692144 238.535886 L 70.426559 237.585612 L 72.171698 236.655176 L 73.924304 235.738849 L 75.682281 234.832862 L 77.444375 233.934903 L 79.208610 233.041149 L 80.974477 232.150625 L 82.744376 231.268159 L 84.519967 230.397207 L 86.303085 229.541797 L 88.096924 228.709169 L 89.902417 227.902117 L 91.717433 227.116667 L 93.540481 226.350038 L 95.371461 225.602561 L 97.210619 224.875447 L 99.057849 224.169090 L 100.911742 223.480369 L 102.771137 222.806640 L 104.634718 222.144550 L 106.500350 221.488246 L 108.367126 220.835205 L 110.237102 220.191424 L 112.112031 219.562218 L 113.991432 218.946482 L 115.874459 218.341912 L 117.760586 217.747083 L 119.648585 217.158203 L 121.537259 216.571491 L 123.427708 215.990547 L 125.321972 215.422202 L 127.221044 214.870143 L 129.125510 214.337039 L 131.036013 213.825987 L 132.951826 213.335172 L 134.871798 212.860855 L 136.795430 212.401620 L 138.723105 211.959705 L 140.655295 211.537961 L 142.591122 211.133160 L 144.528929 210.737919 L 146.467832 210.348081 L 148.406613 209.957658 L 150.343545 209.558161 L 152.278960 209.151360 L 154.213817 208.741910 L 156.148631 208.332257 L 158.084257 207.926480 L 160.021940 207.530644 L 161.961654 207.144887 L 163.903407 206.769523 L 165.847158 206.404649 L 167.792780 206.049879 L 169.740134 205.704743 L 171.688825 205.367218 L 173.637461 205.029373 L 175.585492 204.688072 L 177.531742 204.336827 L 179.474296 203.965673 L 181.413660 203.578134 L 183.353380 203.192378 L 185.294325 202.812857 L 187.237696 202.446010 L 189.187023 202.112425 L 191.137837 201.788072 L 193.091812 201.483196 L 195.048318 201.194873 L 197.006830 200.920301 L 198.967034 200.657978 L 200.927526 200.397618 L 202.888208 200.138773 L 204.848188 199.874634 L 206.807634 199.606522 L 208.766785 199.336243" fill="none" stroke="black" stroke-width="1.000000" />
	<path d="M 42.071480 274.750092 L 44.066526 274.739478 L 46.061544 274.725668 L 48.056432 274.700644 L 50.051019 274.661052 L 52.045060 274.601385 L 54.038241 274.518095 L 56.030197 274.409594 L 58.020762 274.277781 L 60.009617 274.121979 L 61.996701 273.944901 L 63.981433 273.743498 L 65.963672 273.519148 L 67.942426 273.266152 L 69.917202 272.984182 L 71.887189 272.670625 L 73.854738 272.340823 L 75.815397 271.971892 L 77.771692 271.580452 L 79.725205 271.175338 L 81.677272 270.763316 L 83.628259 270.346207 L 85.579973 269.932511 L 87.532467 269.522512 L 89.484939 269.112411 L 91.436743 268.699138 L 93.387449 268.280746 L 95.333973 267.843314 L 97.275896 267.385901 L 99.212176 266.905170 L 101.141704 266.398017 L 103.064338 265.865302 L 104.981682 265.313848 L 106.893774 264.744445 L 108.801595 264.160884 L 110.706097 263.566585 L 112.606765 262.960158 L 114.499399 262.329110 L 116.383163 261.672081 L 118.254950 260.981698 L 120.111508 260.251349 L 121.952134 259.481710 L 123.778271 258.678296 L 125.589682 257.842193 L 127.388081 256.978451 L 129.175193 256.091590 L 130.950813 255.181938 L 132.714379 254.249131 L 134.465573 253.293301 L 136.204111 252.314641 L 137.929758 251.313421 L 139.643560 250.292042 L 141.355901 249.268217 L 143.068343 248.244565 L 144.788833 247.234518 L 146.524384 246.250576 L 148.275683 245.294968 L 150.046942 244.376885 L 151.837506 243.497038 L 153.644810 242.652099 L 155.466635 241.838942 L 157.301565 241.055776 L 159.143638 240.289563 L 160.992134 239.538973 L 162.845500 238.800486 L 164.702403 238.070938 L 166.562825 237.350414 L 168.427589 236.641204 L 170.296696 235.943519 L 172.170093 235.257438 L 174.047751 234.583107 L 175.930200 233.922288 L 177.821834 233.288240 L 179.722568 232.682018 L 181.631505 232.102138 L 183.547832 231.547160 L 185.470585 231.014854 L 187.395049 230.488766 L 189.320736 229.967171 L 191.246680 229.446524 L 193.172023 228.923661 L 195.096852 228.398909 L 197.022377 227.876717 L 198.948818 227.357917 L 200.877470 226.847399 L 202.809463 226.349679 L 204.745063 225.866175 L 206.684602 225.398725 L 208.628028 224.947709 L 210.575368 224.513902 L 212.526396 224.096991 L 214.480095 223.692776 L 216.436122 223.299979 L 218.392657 222.909721 L 220.349145 222.519227 L 222.306214 222.131655 L 224.264390 221.749717 L 226.224527 221.377982 L 228.187629 221.022238 L 230.153571 220.682536 L 232.122044 220.357826 L 234.092903 220.047920 L 236.065894 219.751887 L 238.040880 219.469470 L 240.017433 219.198241 L 241.995331 218.936989 L 243.973440 218.677348 L 245.951130 218.414529 L 247.927634 218.142942 L 249.902117 217.857037 L 251.874148 217.554684 L 253.842956 217.232019 L 255.807517 216.884479 L 257.763382 216.490942 L 259.708698 216.048294 L 261.633790 215.524654 L 263.534102 214.917217 L 265.404214 214.222343 L 267.239795 213.440768 L 269.042915 212.586949 L 270.815452 211.671322 L 272.557623 210.699150 L 274.270879 209.676881 L 275.954012 208.605739 L 277.606167 207.487405 L 279.226805 206.323859 L 280.823586 205.127781 L 282.396306 203.900234 L 283.951895 202.651047 L 285.491355 201.382038 L 287.011924 200.090453 L 288.511980 198.775100 L 289.991130 197.436281 L 291.449087 196.074412 L 292.888568 194.693028 L 294.316232 193.299433 L 295.732859 191.894620 L 297.144251 190.484547 L 298.550360 189.069206 L 299.949895 187.647365 L 301.342561 186.218796 L 302.719650 184.775205 L 304.077851 183.313829 L 305.413559 181.831867 L 306.723750 180.327297 L 308.009961 178.802178 L 309.275121 177.259550 L 310.522095 175.702184 L 311.764009 174.140780" fill="none" stroke="black" stroke-width="1.000000" />
	<path d="M 294.093201 171.719223 L 292.528492 172.859672 L 290.941192 173.968453 L 289.293638 174.985384 L 287.602546 175.928169 L 285.863218 176.778514 L 284.102621 177.584179 L 282.329118 178.361065 L 280.553425 179.132980 L 278.768144 179.882403 L 276.949682 180.546466 L 275.111416 181.154207 L 273.262722 181.729654 L 271.405161 182.275794 L 269.542154 182.803141 L 267.677461 183.324538 L 265.812901 183.846412 L 263.948667 184.369452 L 262.084559 184.892937 L 260.220528 185.416700 L 258.360945 185.955948 L 256.504698 186.506650 L 254.650038 187.062680 L 252.788710 187.595680 L 250.921467 188.107828 L 249.051488 188.609924 L 247.184195 189.121837 L 245.321258 189.649435 L 243.461197 190.187107 L 241.600749 190.723448 L 239.730906 191.225427 L 237.848536 191.678255 L 235.950314 192.057495 L 234.038991 192.365584 L 232.121399 192.633131 L 230.200862 192.878914 L 228.278804 193.112607 L 226.355699 193.337527 L 224.431185 193.550004 L 222.505962 193.756042 L 220.583828 193.988626 L 218.665959 194.250672 L 216.752888 194.544566 L 214.846633 194.882199 L 212.943390 195.237671" fill="none" stroke="black" stroke-width="1.000000" />
	<path d="M 126.691200 237.741220 L 127.074100 237.420638 L 127.457000 237.100057 L 127.839899 236.779475 L 128.222799 236.458893 L 128.605699 236.138312 L 128.988599 235.817730 L 129.371499 235.497149 L 129.754398 235.176567 L 130.137298 234.855985 L 130.520199 234.535405 L 130.930806 234.251175 L 131.341414 233.966946 L 131.752021 233.682716 L 132.162628 233.398486 L 132.573236 233.114257 L 132.983843 232.830027 L 133.394450 232.545798 L 133.805057 232.261568 L 134.215665 231.977338 L 134.626377 231.693281 L 135.067417 231.459041 L 135.508457 231.224800 L 135.949497 230.990560 L 136.390537 230.756319 L 136.831577 230.522078 L 137.272617 230.287838 L 137.713656 230.053597 L 138.154696 229.819356 L 138.595736 229.585116 L 139.036984 229.351324 L 139.500759 229.166127 L 139.964534 228.980931 L 140.428308 228.795734 L 140.892083 228.610537 L 141.355858 228.425340 L 141.819632 228.240143 L 142.283407 228.054947 L 142.747182 227.869750 L 143.210957 227.684553 L 143.674784 227.499496 L 144.144651 227.330352 L 144.614519 227.161208 L 145.084386 226.992064 L 145.554253 226.822919 L 146.024120 226.653775 L 146.493987 226.484631 L 146.963854 226.315487 L 147.433721 226.146343 L 147.903589 225.977199 L 148.373463 225.808076 L 148.844371 225.641850 L 149.315278 225.475624 L 149.786185 225.309398 L 150.257093 225.143171 L 150.728000 224.976945 L 151.198907 224.810719 L 151.669814 224.644493 L 152.140722 224.478267 L 152.611629 224.312040 L 153.082550 224.145854 L 153.555754 223.986284 L 154.028959 223.826715 L 154.502164 223.667146 L 154.975368 223.507577 L 155.448573 223.348008 L 155.921777 223.188439 L 156.394982 223.028870 L 156.868186 222.869300 L 157.341391 222.709731 L 157.814629 222.550268 L 158.293589 222.408910 L 158.772549 222.267551 L 159.251509 222.126192 L 159.730468 221.984834 L 160.209428 221.843475 L 160.688388 221.702117 L 161.167348 221.560758 L 161.646308 221.419399 L 162.125268 221.278041 L 162.604246 221.136747 L 163.086538 221.007211 L 163.568830 220.877675 L 164.051121 220.748139 L 164.533413 220.618603 L 165.015704 220.489067 L 165.497996 220.359531 L 165.980288 220.229995 L 166.462579 220.100458 L 166.944871 219.970922 L 167.427173 219.841426 L 167.911982 219.721657 L 168.396792 219.601887 L 168.881601 219.482118 L 169.366411 219.362349 L 169.851220 219.242579 L 170.336029 219.122810 L 170.820839 219.003040 L 171.305648 218.883271 L 171.790457 218.763502 L 172.275310 218.643927 L 172.765715 218.549654 L 173.256120 218.455380 L 173.746525 218.361106 L 174.236931 218.266833 L 174.727336 218.172559 L 175.217741 218.078285 L 175.708146 217.984012 L 176.198552 217.889738 L 176.688957 217.795464 L 177.179368 217.701219 L 177.670589 217.611293 L 178.161810 217.521366 L 178.653031 217.431439 L 179.144252 217.341513 L 179.635472 217.251586 L 180.126693 217.161659 L 180.617914 217.071733 L 181.109135 216.981806 L 181.600356 216.891879 L 182.091574 216.801937 L 182.582229 216.708972 L 183.072885 216.616008 L 183.563540 216.523043 L 184.054195 216.430078 L 184.544850 216.337114 L 185.035505 216.244149 L 185.526160 216.151185 L 186.016815 216.058220 L 186.507470 215.965256 L 186.998129 215.872308 L 187.489625 215.783900 L 187.981122 215.695491 L 188.472618 215.607083 L 188.964114 215.518674 L 189.455611 215.430266 L 189.947107 215.341857 L 190.438604 215.253448 L 190.930100 215.165040 L 191.421597 215.076631 L 191.913102 214.988275 L 192.407145 214.915434 L 192.901189 214.842594 L 193.395233 214.769753 L 193.889276 214.696912 L 194.383320 214.624071 L 194.877363 214.551230 L 195.371407 214.478389 L 195.865450 214.405548 L 196.359494 214.332708 L 196.853543 214.259906 L 197.349139 214.198512 L 197.844735 214.137118 L 198.340332 214.075724 L 198.835928 214.014330 L 199.331524 213.952936 L 199.827120 213.891543 L 200.322717 213.830149 L 200.818313 213.768755 L 201.313909 213.707361 L 201.809506 213.645970 L 202.305284 213.586062 L 202.801062 213.526154 L 203.296840 213.466246 L 203.792618 213.406337 L 204.288396 213.346429 L 204.784174 213.286521 L 205.279952 213.226613 L 205.775730 213.166705 L 206.271508 213.106796 L 206.767286 213.046888 L 207.262957 212.986101 L 207.758628 212.925315 L 208.254299 212.864529 L 208.749970 212.803743 L 209.245642 212.742957 L 209.741313 212.682170 L 210.236984 212.621384 L 210.732655 212.560598 L 211.228326 212.499812 L 211.723997 212.439026 L 212.218930 212.372492 L 212.713862 212.305955 L 213.208794 212.239417 L 213.703725 212.172879 L 214.198657 212.106342 L 214.693589 212.039804 L 215.188521 211.973267 L 215.683453 211.906729 L 216.178385 211.840192 L 216.673317 211.773654 L 217.164824 211.685309 L 217.656326 211.596929 L 218.147827 211.508549 L 218.639329 211.420170 L 219.130830 211.331790 L 219.622332 211.243410 L 220.113834 211.155030 L 220.605335 211.066650 L 221.096837 210.978270 L 221.588334 210.889867 L 222.075839 210.781591 L 222.563344 210.673315 L 223.050849 210.565039 L 223.538354 210.456763 L 224.025859 210.348488 L 224.513364 210.240212 L 225.000869 210.131936 L 225.488374 210.023660 L 225.975879 209.915384 L 226.463385 209.807111 L 226.951698 209.702539 L 227.440011 209.597968 L 227.928324 209.493396 L 228.416637 209.388825 L 228.904950 209.284253 L 229.393263 209.179682 L 229.881576 209.075110 L 230.369889 208.970539 L 230.858203 208.865967 L 231.346516 208.761396 L 231.835240 208.658765 L 232.323965 208.556135 L 232.812690 208.453505 L 233.301415 208.350875 L 233.790139 208.248244 L 234.278864 208.145614 L 234.767589 208.042984 L 235.256314 207.940354 L 235.745038 207.837723 L 236.233763 207.735093 L 236.719224 207.617996 L 237.204681 207.500879 L 237.690138 207.383762 L 238.175595 207.266645 L 238.661052 207.149528 L 239.146509 207.032411 L 239.631966 206.915294 L 240.117423 206.798177 L 240.602880 206.681060 L 241.088337 206.563942 L 241.573451 206.445414 L 242.058565 206.326885 L 242.543679 206.208355 L 243.028793 206.089825 L 243.513907 205.971295 L 243.999021 205.852765 L 244.484135 205.734236 L 244.969249 205.615706 L 245.454363 205.497176 L 245.939477 205.378646 L 246.426033 205.266185 L 246.912594 205.153740 L 247.399154 205.041295 L 247.885714 204.928850 L 248.372274 204.816405 L 248.858835 204.703959 L 249.345395 204.591514 L 249.831955 204.479069 L 250.318516 204.366624 L 250.805076 204.254179 L 251.280282 204.100696 L 251.755444 203.947055 L 252.230606 203.793413 L 252.705769 203.639771 L 253.180931 203.486129 L 253.656093 203.332488 L 254.131255 203.178846 L 254.606417 203.025204 L 255.081579 202.871563 L 255.556715 202.717844 L 256.025903 202.546826 L 256.495092 202.375808 L 256.964280 202.204790 L 257.433469 202.033773 L 257.902657 201.862755 L 258.371845 201.691737 L 258.841034 201.520719 L 259.310222 201.349701 L 259.779411 201.178684 L 260.248592 201.007648 L 260.715736 200.831120 L 261.182879 200.654592 L 261.650022 200.478064 L 262.117165 200.301536 L 262.584308 200.125008 L 263.051451 199.948480 L 263.518594 199.771952 L 263.985738 199.595424 L 264.452881 199.418896 L 264.920007 199.242327 L 265.378313 199.043982 L 265.836618 198.845636 L 266.294924 198.647291 L 266.753229 198.448945 L 267.211535 198.250600 L 267.669840 198.052254 L 268.128145 197.853909 L 268.586451 197.655563 L 269.044756 197.457217 L 269.503033 197.258812 L 269.945543 197.027360 L 270.388052 196.795907 L 270.830562 196.564455 L 271.273071 196.333003 L 271.715581 196.101551 L 272.158091 195.870099 L 272.600600 195.638646 L 273.043110 195.407194 L 273.485619 195.175742 L 273.928111 194.944257 L 274.363555 194.699770 L 274.798998 194.455283 L 275.234442 194.210796 L 275.669885 193.966310 L 276.105329 193.721823 L 276.540772 193.477336 L 276.976216 193.232849 L 277.411659 192.988362 L 277.847103 192.743876 L 278.282536 192.499371 L 278.710102 192.241356 L 279.137669 191.983341 L 279.565235 191.725326 L 279.992802 191.467311 L 280.420368 191.209296 L 280.847934 190.951281 L 281.275501 190.693265 L 281.703067 190.435250 L 282.558200 189.919220" fill="none" stroke="black" stroke-width="1.000000" />
	<path d="M 212.943390 195.237671 L 212.523380 195.260198 L 212.104403 195.286613 L 211.728699 195.475723" fill="none" stroke="black" stroke-width="1.000000" />
	<path d="M 94.275017 226.044617 L 94.761397 224.146754 L 95.269749 222.254658 L 95.787993 220.365248 L 96.345094 218.486928 L 96.937797 216.619537 L 97.553277 214.759528 L 98.223882 212.918678 L 98.900400 211.079990 L 99.614930 209.255739 L 100.347326 207.438587 L 101.087611 205.624634 L 101.850742 203.820173 L 102.641751 202.027759 L 103.488905 200.261191 L 104.556896 198.618764 L 105.683672 197.016014 L 107.118942 195.682667 L 108.670709 194.486720 L 110.346809 193.472360 L 112.115505 192.629698 L 113.933160 191.898663 L 115.807671 191.328910 L 117.703167 190.833482 L 119.625946 190.457530 L 121.560453 190.147487 L 123.499377 189.866385 L 125.441685 189.609705 L 127.387384 189.380154 L 129.337464 189.191387 L 131.289645 189.025750 L 133.243980 188.887831 L 135.199617 188.769811 L 137.156797 188.680972 L 139.115164 188.624102 L 141.074321 188.634667 L 143.029498 188.760042 L 144.979326 188.951386 L 146.924153 189.188222 L 148.863714 189.464905 L 150.803602 189.739277 L 152.743941 190.010448 L 154.683238 190.288971 L 156.620164 190.583532 L 158.555651 190.887404 L 160.489778 191.199816 L 162.422630 191.520023 L 164.356650 191.833091 L 166.292765 192.132939 L 168.228063 192.438014 L 170.160819 192.758797 L 172.091155 193.093835 L 174.015035 193.464147 L 175.932013 193.868672 L 177.847865 194.278498 L 179.760912 194.701226 L 181.676707 195.111324 L 183.602852 195.469658 L 185.532106 195.810867 L 187.466073 196.124267 L 189.403469 196.415716 L 191.338721 196.721081 L 193.268339 197.060222 L 195.194805 197.416573 L 197.121432 197.772079 L 199.051639 198.105841 L 200.985243 198.415892 L 202.925898 198.683026 L 204.871616 198.911197 L 206.818288 199.131768 L 208.766785 199.336243" fill="none" stroke="black" stroke-width="1.000000" />
	<path d="M 234.743200 284.738220 L 236.361446 283.650986 L 237.976162 282.558515 L 239.587228 281.460671 L 241.192153 280.353870 L 242.789788 279.236575 L 244.379707 278.108328 L 245.956994 276.962501 L 247.524173 275.802880 L 249.080254 274.628415 L 250.598223 273.405324 L 252.082567 272.141534 L 253.532939 270.838920 L 254.930744 269.480310 L 256.293045 268.085813 L 257.625095 266.662394 L 258.918589 265.203943 L 260.177073 263.715104 L 261.400147 262.197070 L 262.557733 260.629022 L 263.552404 258.955996 L 264.338535 257.175402 L 265.012220 255.346232 L 265.560048 253.476975 L 265.941860 251.567061 L 266.150525 249.630676 L 266.260739 247.684379 L 266.328157 245.736081 L 266.367170 243.786935 L 266.393115 241.837548 L 266.413623 239.888093 L 266.430693 237.938605 L 266.461097 235.989343 L 266.523962 234.040870 L 266.661856 232.097321 L 266.907262 230.163609 L 267.225282 228.240509 L 267.614342 226.330446 L 268.059592 224.432473 L 268.535259 222.541864 L 269.044762 220.660270 L 269.616232 218.796504 L 270.283760 216.965404 L 271.033448 215.171634 L 271.851977 213.406695 L 272.780716 211.693883 L 273.739716 209.996796" fill="none" stroke="black" stroke-width="1.000000" />
	<path d="M 231.653200 303.722220 L 230.242626 302.375309 L 228.821672 301.039354 L 227.351872 299.757411 L 225.854692 298.507510 L 224.308006 297.319572 L 222.731435 296.171477 L 221.127439 295.062034 L 219.494960 293.994981 L 217.846709 292.952353 L 216.214108 291.885443 L 214.590994 290.804073 L 213.029832 289.636161 L 211.492180 288.436387 L 209.985376 287.198319 L 208.489371 285.946978 L 206.997990 284.690134 L 205.502963 283.437634 L 204.000982 282.193482 L 202.479380 280.973543 L 200.941124 279.774559 L 199.394355 278.586549 L 197.844185 277.402970 L 196.289976 276.224707 L 194.728366 275.056286 L 193.139509 273.925718 L 191.522656 272.835120 L 189.878380 271.786717 L 188.214224 270.769644 L 186.543920 269.762700 L 184.866839 268.767094 L 183.184106 267.781048 L 181.476494 266.840242 L 179.735432 265.961363 L 177.974193 265.124424 L 176.192281 264.331539 L 174.406667 263.547044 L 172.617789 262.769995 L 170.828483 261.993935 L 169.038638 261.219119 L 167.249362 260.442986 L 165.461573 259.663460 L 163.678198 258.873866 L 161.898979 258.075024 L 160.127780 257.258480 L 158.351291 256.453994 L 156.550426 255.705263 L 154.730610 255.005990 L 152.866032 254.434523 L 150.980070 253.939757 L 149.065914 253.565815 L 147.145644 253.224752 L 145.225549 252.882623 L 143.304061 252.548311 L 141.382601 252.213831 L 139.461444 251.877609 L 137.540131 251.542282" fill="none" stroke="black" stroke-width="1.000000" />
	<path d="M 217.618200 82.709620 L 217.292656 82.332069 L 216.967112 81.954518 L 216.641568 81.576967 L 216.316024 81.199416 L 215.990480 80.821865 L 215.664936 80.444313 L 215.339108 80.067007 L 215.012748 79.690161 L 214.686388 79.313316 L 214.360028 78.936470 L 214.033667 78.559624 L 213.707307 78.182778 L 213.380947 77.805932 L 213.052149 77.431218 L 212.722279 77.057440 L 212.392409 76.683662 L 212.062540 76.309885 L 211.732670 75.936107 L 211.402800 75.562330 L 211.073055 75.188443 L 210.746154 74.812066 L 210.419253 74.435689 L 210.092352 74.059313 L 209.765451 73.682936 L 209.438549 73.306559 L 209.111648 72.930183 L 208.792266 72.547599 L 208.484675 72.155284 L 208.177083 71.762969 L 207.869492 71.370654 L 207.561900 70.978339 L 207.254309 70.586023 L 206.946717 70.193708 L 206.658861 69.786950 L 206.377943 69.375114 L 206.097026 68.963278 L 205.816108 68.551441 L 205.535191 68.139605 L 205.254274 67.727768 L 204.979525 67.312396 L 204.766127 66.861857 L 204.552729 66.411319 L 204.339330 65.960780 L 204.125932 65.510242 L 203.912534 65.059704 L 203.699135 64.609165 L 203.570380 64.136184 L 203.532524 63.639102 L 203.494668 63.142020 L 203.456812 62.644938 L 203.418956 62.147855 L 203.381100 61.650773 L 203.356199 61.155259 L 203.511590 60.681575 L 203.666982 60.207890 L 203.822374 59.734206 L 203.977766 59.260521 L 204.133158 58.786836 L 204.288550 58.313152 L 204.512831 57.875465 L 204.812961 57.477412 L 205.113090 57.079359 L 205.413220 56.681306 L 205.713349 56.283254 L 206.013479 55.885201 L 206.313608 55.487148 L 206.721610 55.201417 L 207.131463 54.917613 L 207.541315 54.633808 L 207.951167 54.350004 L 208.361019 54.066199 L 208.770871 53.782395 L 209.192751 53.518782 L 209.637480 53.293526 L 210.082209 53.068271 L 210.526937 52.843015 L 210.971666 52.617759 L 211.416395 52.392503 L 211.861123 52.167248 L 212.328521 51.998241 L 212.805163 51.852173 L 213.281806 51.706105 L 213.758448 51.560036 L 214.235090 51.413968 L 214.711732 51.267900 L 215.190129 51.130843 L 215.686755 51.087408 L 216.183381 51.043973 L 216.680007 51.000537 L 217.176632 50.957102 L 217.673258 50.913667 L 218.169884 50.870231 L 218.667334 50.847715 L 219.165838 50.851911 L 219.664342 50.856108 L 220.162846 50.860304 L 220.661350 50.864500 L 221.159854 50.868697 L 221.658358 50.872893 L 222.156718 50.884910 L 222.655039 50.899048 L 223.153360 50.913187 L 223.651681 50.927325 L 224.150002 50.941464 L 224.648323 50.955602 L 225.146257 50.975271 L 225.641685 51.030720 L 226.137114 51.086168 L 226.632542 51.141617 L 227.127970 51.197066 L 227.623399 51.252514 L 228.118827 51.307963 L 228.613963 51.365908 L 229.108784 51.426536 L 229.603605 51.487165 L 230.098426 51.547793 L 230.593247 51.608422 L 231.088068 51.669050 L 231.582889 51.729679 L 232.075542 51.805628 L 232.567747 51.884732 L 233.059953 51.963836 L 233.552158 52.042940 L 234.044364 52.122044 L 234.536569 52.201148 L 235.028853 52.279756 L 235.521500 52.356063 L 236.014147 52.432370 L 236.506794 52.508676 L 236.999441 52.584983 L 237.492088 52.661290 L 237.984735 52.737597 L 238.477688 52.811878 L 238.970917 52.884327 L 239.464146 52.956777 L 239.957375 53.029226 L 240.450604 53.101675 L 240.943833 53.174124 L 241.437062 53.246574 L 241.930273 53.319146 L 242.423481 53.391737 L 242.916689 53.464327 L 243.409898 53.536918 L 243.903106 53.609508 L 244.396314 53.682099 L 244.889309 53.756075 L 245.381548 53.834975 L 245.873786 53.913875 L 246.366024 53.992774 L 246.858263 54.071674 L 247.350501 54.150574 L 247.842739 54.229473 L 248.333754 54.315433 L 248.823836 54.406776 L 249.313918 54.498119 L 249.804000 54.589462 L 250.294082 54.680805 L 250.784163 54.772148 L 251.274245 54.863491 L 251.762193 54.965568 L 252.249944 55.068634 L 252.737695 55.171700 L 253.225446 55.274766 L 253.713198 55.377832 L 254.200949 55.480898 L 254.688373 55.585469 L 255.174880 55.694254 L 255.661388 55.803040 L 256.147895 55.911825 L 256.634403 56.020610 L 257.120910 56.129395 L 257.607417 56.238181 L 258.093383 56.349346 L 258.579002 56.462029 L 259.064622 56.574713 L 259.550241 56.687396 L 260.035860 56.800079 L 260.521480 56.912763 L 261.007099 57.025446 L 261.491208 57.144443 L 261.975251 57.263718 L 262.459294 57.382992 L 262.943337 57.502266 L 263.427379 57.621541 L 263.911422 57.740815 L 264.394905 57.862292 L 264.877113 57.988778 L 265.359322 58.115265 L 265.841530 58.241751 L 266.323738 58.368238 L 266.805947 58.494724 L 267.288155 58.621211 L 267.769440 58.751141 L 268.250233 58.882904 L 268.731027 59.014667 L 269.211820 59.146431 L 269.692613 59.278194 L 270.654200 59.541720" fill="none" stroke="black" stroke-width="1.000000" />
	<path d="M 278.739288 63.603951 L 280.627732 63.098627 L 282.522688 62.618307 L 284.426663 62.175109 L 286.340099 61.774762 L 288.260424 61.408867 L 290.185054 61.066308 L 292.111690 60.735190 L 294.039807 60.412804 L 295.968300 60.092672 L 297.896668 59.771782 L 299.824952 59.450388 L 301.753048 59.127870 L 303.681217 58.805787 L 305.609524 58.484534 L 307.538363 58.166494 L 309.467954 57.853044 L 311.398580 57.546049 L 313.330255 57.245720 L 315.263077 56.952866 L 317.197322 56.669577 L 319.133502 56.399860 L 321.071449 56.143143 L 323.010459 55.894536 L 324.949946 55.649664 L 326.889777 55.407532 L 328.830740 55.174707 L 330.774125 54.963261 L 332.720195 54.778236 L 334.669676 54.634528 L 336.622599 54.641740 L 338.469064 55.195329 L 340.170683 56.146874 L 341.771054 57.267401 L 343.303472 58.480272 L 344.776757 59.764473 L 346.194978 61.109390 L 347.563640 62.504840 L 348.889036 63.941555 L 350.171458 65.416724 L 351.398614 66.937925 L 352.556633 68.512234 L 353.645246 70.135460 L 354.681751 71.792757 L 355.691862 73.466429 L 356.693922 75.144954 L 357.690267 76.826869 L 358.674770 78.515730 L 359.645474 80.212566 L 360.601816 81.917525 L 361.536311 83.634499 L 362.443987 85.365851 L 363.337398 87.104641 L 364.240043 88.838627 L 365.152714 90.567263 L 366.090699 92.282042 L 367.066124 93.975233 L 368.083314 95.643537 L 369.127960 97.295670" fill="none" stroke="black" stroke-width="1.000000" />
	<path d="M 311.278198 61.468922 L 313.242164 61.368472 L 315.206656 61.278904 L 317.172387 61.222744 L 319.138711 61.194131 L 321.105190 61.208709 L 323.071470 61.240014 L 325.028179 61.436305 L 326.966616 61.767517 L 328.875369 62.240685 L 330.713723 62.939044 L 332.545715 63.653924 L 334.366014 64.398021 L 335.980229 65.521204 L 337.475811 66.798104 L 338.851663 68.203188 L 340.073961 69.743716 L 341.173380 71.374212 L 342.143060 73.085040 L 342.840265 74.923829 L 343.383655 76.813794 L 343.778775 78.740217 L 343.920211 80.701655 L 343.922078 82.668186 L 343.784565 84.629898 L 343.374820 86.553269 L 342.893856 88.460079 L 342.341893 90.347560 L 341.684641 92.201007 L 340.927984 94.016144 L 340.074662 95.787892 L 339.162005 97.529815 L 338.048604 99.150795 L 336.746518 100.624504 L 335.341984 102.000925 L 333.881881 103.318251 L 332.364738 104.569459 L 330.709906 105.631899 L 328.981559 106.570016 L 327.191937 107.385187 L 325.337847 108.040624 L 323.441445 108.559130 L 321.535755 109.036561 L 319.613672 109.447102 L 317.678643 109.794704 L 315.739197 110.119217" fill="none" stroke="black" stroke-width="1.000000" />
	<path d="M 319.065186 74.259117 L 320.252053 75.818774 L 321.301841 77.473772 L 322.247141 79.189343 L 322.635580 81.110013 L 322.685946 83.069102 L 322.489714 85.018743 L 321.893959 86.885401 L 320.876380 88.560053 L 319.535159 89.988822 L 317.946202 91.135659 L 316.136272 91.886722 L 314.193663 92.145268 L 312.238770 92.005995 L 310.319052 91.611327 L 308.492125 90.905724 L 306.665192 90.200119" fill="none" stroke="black" stroke-width="1.000000" />
	<path d="M 306.665192 90.200119 L 306.261886 88.342148 L 306.021097 86.456224 L 305.816161 84.566475 L 306.081294 82.683876 L 306.536614 80.838045 L 307.216275 79.062770 L 308.331091 77.523130 L 309.851815 76.382421 L 311.611176 75.661809 L 313.424102 75.089197 L 315.293808 74.744390 L 317.179497 74.501753 L 319.065186 74.259117" fill="none" stroke="black" stroke-width="1.000000" />
	<path d="M 315.739197 110.119217 L 313.783209 109.796415 L 311.833902 109.435461 L 309.904084 108.981736 L 308.009120 108.399337 L 306.132706 107.760383 L 304.428222 106.748114 L 302.811634 105.600630 L 301.226644 104.409876 L 299.657289 103.198591 L 298.104821 101.965740 L 296.583510 100.694656 L 295.133698 99.342610 L 293.798462 97.877319 L 292.618383 96.284438 L 291.646273 94.556825 L 290.992435 92.685444 L 290.711371 90.723055 L 290.621505 88.742661 L 290.662123 86.760643 L 290.824399 84.784864 L 291.127207 82.825691 L 291.547975 80.888420 L 292.066551 78.975005 L 292.657120 77.082571 L 293.320491 75.214414 L 294.070967 73.379523 L 294.974986 71.615227 L 296.089689 69.975875 L 297.352844 68.447969 L 298.735596 67.027388 L 300.241040 65.737570 L 301.928145 64.696547 L 303.720431 63.849326 L 305.589692 63.190675 L 307.467476 62.559479 L 309.368575 62.000473 L 311.278198 61.468922" fill="none" stroke="black" stroke-width="1.000000" />
	<path d="M 266.004211 91.113922 L 266.800095 89.390326 L 267.604099 87.670503 L 268.415430 85.954124 L 269.238821 84.243498 L 270.064659 82.534052 L 270.896647 80.827591 L 271.742793 79.128107 L 272.600866 77.434612 L 273.462576 75.742966 L 274.330119 74.054303 L 275.198532 72.366086 L 276.062472 70.675577 L 276.918164 68.980878 L 277.705070 67.253181 L 278.222173 65.428588 L 278.739288 63.603951" fill="none" stroke="black" stroke-width="1.000000" />
	<path d="M 266.004211 91.113922 L 267.505263 92.341530 L 269.016569 93.556489 L 270.528786 94.770316 L 272.059969 95.960109 L 273.594236 97.145942 L 275.152127 98.300507 L 276.717121 99.445479 L 278.296548 100.570430 L 279.931409 101.612561 L 281.591768 102.614157 L 283.215064 103.674354 L 284.809148 104.778327 L 286.309079 106.005228 L 287.720876 107.333536 L 289.159160 108.633654 L 290.646898 109.876954 L 292.162807 111.086068 L 293.702672 112.264482 L 295.247567 113.436434 L 296.789072 114.612840 L 298.335437 115.782834 L 299.896560 116.932993 L 301.481413 118.050092 L 303.122059 119.081694 L 304.805045 120.044573 L 306.552284 120.879505 L 308.343242 121.622730 L 310.174868 122.252525 L 312.035581 122.798305 L 313.910939 123.289222 L 315.798864 123.731801 L 317.699613 124.111195 L 319.612942 124.426290 L 321.537414 124.644697 L 323.473505 124.752212 L 325.408688 124.736947 L 327.340005 124.564614 L 329.246588 124.244148 L 331.112969 123.719217 L 332.946155 123.092350 L 334.736531 122.348035 L 336.499923 121.542555 L 338.232357 120.671651 L 339.932900 119.741640 L 341.578981 118.717251 L 343.184122 117.629820 L 344.748720 116.484595 L 346.286768 115.303674 L 347.821882 114.118937 L 349.356323 112.933332 L 350.888022 111.744183 L 352.419521 110.554790 L 353.943147 109.355319 L 355.461679 108.149407 L 356.975610 106.937719 L 358.490518 105.727254 L 360.007114 104.518926 L 361.521978 103.308411 L 363.042930 102.105550 L 364.560886 100.898908 L 366.083596 99.698275 L 367.604486 98.495337 L 369.127960 97.295670" fill="none" stroke="black" stroke-width="1.000000" />
	<path d="M 14.165300 207.874220 L 14.366179 205.892614 L 14.567059 203.911008 L 14.751630 201.927816 L 14.921174 199.943284 L 15.087308 197.958463 L 15.192991 195.969507 L 15.297906 193.980510 L 15.403195 191.991533 L 15.508778 190.002572 L 15.622994 188.014087 L 15.814243 186.031530 L 16.006978 184.049115 L 16.204358 182.067158 L 16.404787 180.085506 L 16.611107 178.104459 L 16.853251 176.127471 L 17.096056 174.150564 L 17.425435 172.186229 L 17.802261 170.230439 L 18.205905 168.280007 L 18.735043 166.359822 L 19.265154 164.439901 L 19.955087 162.571460 L 20.715283 160.730477 L 21.532283 158.914008 L 22.544596 157.198684 L 23.557066 155.483460 L 24.700499 153.852611 L 25.887013 152.252831 L 27.120496 150.688999 L 28.475327 149.229017 L 29.830560 147.769459 L 31.362476 146.496536 L 32.935466 145.274738 L 34.560111 144.122567 L 36.279537 143.117236 L 37.999270 142.112476 L 39.786163 141.232631 L 41.584036 140.375473 L 43.422321 139.608888 L 45.316855 138.994190 L 47.212775 138.384048 L 49.166058 137.994442 L 51.124769 137.633156 L 53.096071 137.348547 L 55.079486 137.166399 L 57.063255 136.988270 L 59.052491 136.887982 L 61.042124 136.795941 L 63.032738 136.728378 L 65.024097 136.688306 L 67.015469 136.648943 L 69.007014 136.619558 L 70.998569 136.590861 L 72.989966 136.552755 L 74.981172 136.505677 L 76.972359 136.457837 L 78.963299 136.400613 L 80.954228 136.343029 L 82.945221 136.287686 L 84.936263 136.234155 L 86.927308 136.180737 L 88.918389 136.128655 L 90.909465 136.076421 L 92.899708 135.998665 L 94.889192 135.903444 L 96.878490 135.804414 L 98.866169 135.676960 L 100.853851 135.549531 L 102.841825 135.426759 L 104.829964 135.306676 L 106.818259 135.189228 L 108.807332 135.085756 L 110.796408 134.982373 L 112.786330 134.896778 L 114.776601 134.819728 L 116.767053 134.747512 L 118.758115 134.694713 L 120.749178 134.641953 L 122.740455 134.598008 L 124.731805 134.557541 L 126.723170 134.517748 L 128.714575 134.480092 L 130.705981 134.442448 L 132.697437 134.407532 L 134.688908 134.373492 L 136.680410 134.341342 L 138.671985 134.314032 L 140.663560 134.286744 L 142.655209 134.265595 L 144.646875 134.246003 L 146.638589 134.232268 L 148.630351 134.230883 L 150.622111 134.229596 L 152.613632 134.260572 L 154.605048 134.297682 L 156.596191 134.347312 L 158.586665 134.418919 L 160.577141 134.490500 L 162.567961 134.551745 L 164.558824 134.611572 L 166.550119 134.654634 L 168.541797 134.672954 L 170.533475 134.691237 L 172.525236 134.692585 L 174.516998 134.692573 L 176.508670 134.711410 L 178.499982 134.753743 L 180.491280 134.796740 L 182.481935 134.863127 L 184.472538 134.931059 L 186.462313 135.019984 L 188.450974 135.131081 L 190.439478 135.244958 L 192.425262 135.399150 L 194.410854 135.555801 L 196.393925 135.741657 L 198.374373 135.953651 L 200.354387 136.169659 L 202.329765 136.424601 L 204.304909 136.681356 L 206.283276 136.911962 L 208.263856 137.122712 L 210.244088 137.336719 L 212.221424 137.576004 L 214.198682 137.815927 L 216.175573 138.058868 L 218.152225 138.303737 L 220.129863 138.540511 L 222.113216 138.723345 L 224.096568 138.906180 L 226.079935 139.088852 L 228.063311 139.271437 L 230.045668 139.464766 L 232.022330 139.709553 L 233.998990 139.954363 L 235.969950 140.241469 L 237.938101 140.547242 L 239.904474 140.864246 L 241.863797 141.222250 L 243.823114 141.580287 L 245.774336 141.980096 L 247.722419 142.394932 L 249.664616 142.836502 L 251.587674 143.355113 L 253.510711 143.873805 L 255.406515 144.484568 L 257.293764 145.121283 L 259.172097 145.783839 L 261.028307 146.506055 L 262.884266 147.228918 L 264.679542 148.091512 L 266.459809 148.984689 L 268.138399 150.052402 L 269.816352 151.121040 L 271.404444 152.321450 L 272.985364 153.530776 L 274.528443 154.790108 L 276.065030 156.057394 L 277.601955 157.324271 L 279.155251 158.570737 L 280.710661 159.814510 L 282.271245 161.052034 L 283.818929 162.305069 L 285.355124 163.572612 L 286.849883 164.888335 L 288.342768 166.206131 L 289.798403 167.565516 L 291.240881 168.938594 L 292.672846 170.322904 L 294.093201 171.719223" fill="none" stroke="black" stroke-width="1.000000" />
	<path d="M 35.676800 125.863220 L 36.160948 125.740197 L 36.645096 125.617174 L 37.129244 125.494151 L 37.613392 125.371128 L 38.097541 125.248105 L 38.581689 125.125082 L 39.065837 125.002059 L 39.549985 124.879036 L 40.034133 124.756013 L 40.518490 124.633879 L 41.006783 124.528504 L 41.495076 124.423129 L 41.983369 124.317754 L 42.471662 124.212380 L 42.959956 124.107005 L 43.448249 124.001630 L 43.936542 123.896255 L 44.424835 123.790881 L 44.913128 123.685506 L 45.401908 123.582711 L 45.895018 123.502853 L 46.388127 123.422995 L 46.881236 123.343137 L 47.374345 123.263279 L 47.867455 123.183422 L 48.360564 123.103564 L 48.853673 123.023706 L 49.346783 122.943848 L 49.839892 122.863990 L 50.333354 122.786555 L 50.828786 122.722673 L 51.324218 122.658791 L 51.819650 122.594909 L 52.315083 122.531026 L 52.810515 122.467144 L 53.305947 122.403262 L 53.801379 122.339380 L 54.296812 122.275498 L 54.792244 122.211616 L 55.287665 122.147649 L 55.783043 122.083348 L 56.278421 122.019048 L 56.773799 121.954747 L 57.269178 121.890446 L 57.764556 121.826146 L 58.259934 121.761845 L 58.755312 121.697545 L 59.250690 121.633244 L 59.746068 121.568943 L 60.241487 121.504962 L 60.737028 121.441927 L 61.232569 121.378892 L 61.728110 121.315856 L 62.223650 121.252821 L 62.719191 121.189786 L 63.214732 121.126751 L 63.710272 121.063716 L 64.205813 121.000681 L 64.701354 120.937646 L 65.197120 120.876476 L 65.693407 120.819610 L 66.189693 120.762744 L 66.685980 120.705878 L 67.182266 120.649012 L 67.678553 120.592146 L 68.174839 120.535280 L 68.671126 120.478413 L 69.167412 120.421547 L 69.663699 120.364681 L 70.160240 120.310183 L 70.657250 120.260033 L 71.154260 120.209882 L 71.651270 120.159732 L 72.148281 120.109581 L 72.645291 120.059430 L 73.142301 120.009280 L 73.639311 119.959129 L 74.136321 119.908979 L 74.633331 119.858828 L 75.130745 119.813197 L 75.628759 119.774255 L 76.126773 119.735313 L 76.624786 119.696372 L 77.122800 119.657430 L 77.620814 119.618488 L 78.118827 119.579546 L 78.616841 119.540604 L 79.114854 119.501663 L 79.612868 119.462721 L 80.110997 119.425325 L 80.609266 119.389794 L 81.107534 119.354262 L 81.605803 119.318730 L 82.104072 119.283199 L 82.602340 119.247667 L 83.100609 119.212135 L 83.598877 119.176604 L 84.097146 119.141072 L 84.595414 119.105541 L 85.094017 119.075558 L 85.592949 119.051041 L 86.091881 119.026523 L 86.590812 119.002005 L 87.089744 118.977488 L 87.588676 118.952970 L 88.087608 118.928453 L 88.586540 118.903935 L 89.085471 118.879418 L 89.584403 118.854900 L 90.083622 118.838847 L 90.583069 118.829567 L 91.082517 118.820287 L 91.581964 118.811007 L 92.081412 118.801727 L 92.580860 118.792446 L 93.080307 118.783166 L 93.579755 118.773886 L 94.079203 118.764606 L 94.578650 118.755326 L 95.077913 118.739685 L 95.577055 118.719908 L 96.076197 118.700131 L 96.575339 118.680354 L 97.074481 118.660577 L 97.573624 118.640800 L 98.072766 118.621023 L 98.571908 118.601246 L 99.071050 118.581469 L 99.570192 118.561692 L 100.069048 118.536027 L 100.567754 118.507285 L 101.066461 118.478542 L 101.565167 118.449799 L 102.063873 118.421056 L 102.562579 118.392313 L 103.061286 118.363571 L 103.559992 118.334828 L 104.058698 118.306085 L 104.557404 118.277342 L 105.056027 118.247196 L 105.554615 118.216469 L 106.053203 118.185741 L 106.551790 118.155013 L 107.050378 118.124286 L 107.548966 118.093558 L 108.047554 118.062830 L 108.546142 118.032103 L 109.044730 118.001375 L 109.543318 117.970647 L 110.042004 117.941568 L 110.540721 117.913018 L 111.039438 117.884468 L 111.538155 117.855918 L 112.036873 117.827367 L 112.535590 117.798817 L 113.034307 117.770267 L 113.533025 117.741717 L 114.031742 117.713166 L 114.530459 117.684616 L 115.029489 117.662397 L 115.528593 117.641687 L 116.027698 117.620978 L 116.526802 117.600269 L 117.025906 117.579559 L 117.525011 117.558850 L 118.024115 117.538140 L 118.523220 117.517431 L 119.022324 117.496721 L 119.521428 117.476012 L 120.020820 117.464710 L 120.520258 117.454964 L 121.019697 117.445217 L 121.519136 117.435470 L 122.018574 117.425723 L 122.518013 117.415977 L 123.017452 117.406230 L 123.516891 117.396483 L 124.016329 117.386736 L 124.515768 117.376990 L 125.015286 117.373532 L 125.514812 117.370706 L 126.014338 117.367880 L 126.513864 117.365054 L 127.013389 117.362228 L 127.512915 117.359403 L 128.012441 117.356577 L 128.511967 117.353751 L 129.011493 117.350925 L 129.511019 117.348099 L 130.010550 117.346459 L 130.510081 117.344869 L 131.009612 117.343280 L 131.509144 117.341690 L 132.008675 117.340101 L 132.508206 117.338511 L 133.007737 117.336921 L 133.507269 117.335332 L 134.006800 117.333742 L 134.506331 117.332177 L 135.005864 117.333171 L 135.505397 117.334166 L 136.004930 117.335161 L 136.504463 117.336156 L 137.003996 117.337151 L 137.503528 117.338146 L 138.003061 117.339141 L 138.502594 117.340136 L 139.002127 117.341130 L 139.501657 117.342503 L 140.001137 117.349843 L 140.500616 117.357184 L 141.000096 117.364524 L 141.499576 117.371864 L 141.999056 117.379205 L 142.498536 117.386545 L 142.998016 117.393886 L 143.497496 117.401226 L 143.996976 117.408566 L 144.496444 117.416505 L 144.995814 117.429286 L 145.495184 117.442068 L 145.994554 117.454850 L 146.493925 117.467631 L 146.993295 117.480413 L 147.492665 117.493195 L 147.992036 117.505976 L 148.491406 117.518758 L 148.990776 117.531539 L 149.490138 117.544624 L 149.989456 117.559298 L 150.488775 117.573972 L 150.988093 117.588645 L 151.487411 117.603319 L 151.986729 117.617993 L 152.486048 117.632667 L 152.985366 117.647341 L 153.484684 117.662014 L 153.984002 117.676688 L 154.483318 117.691444 L 154.982625 117.706506 L 155.481932 117.721569 L 155.981238 117.736631 L 156.480545 117.751693 L 156.979852 117.766756 L 157.479158 117.781818 L 157.978465 117.796880 L 158.477772 117.811943 L 158.977079 117.827005 L 159.476376 117.842364 L 159.975647 117.858565 L 160.474918 117.874766 L 160.974189 117.890967 L 161.473460 117.907168 L 161.972731 117.923369 L 162.472002 117.939570 L 162.971273 117.955771 L 163.470544 117.971972 L 163.969815 117.988173 L 164.469078 118.004637 L 164.968320 118.021687 L 165.467563 118.038736 L 165.966806 118.055785 L 166.466049 118.072834 L 166.965292 118.089883 L 167.464534 118.106933 L 167.963777 118.123982 L 168.463020 118.141031 L 168.962263 118.158080 L 169.461522 118.174631 L 169.960810 118.190300 L 170.460098 118.205969 L 170.959386 118.221638 L 171.458674 118.237306 L 171.957962 118.252975 L 172.457250 118.268644 L 172.956538 118.284313 L 173.455826 118.299982 L 173.955114 118.315650 L 174.454421 118.330687 L 174.953755 118.344819 L 175.453089 118.358951 L 175.952423 118.373083 L 176.451757 118.387215 L 176.951091 118.401347 L 177.450425 118.415479 L 177.949758 118.429611 L 178.449092 118.443743 L 178.948426 118.457874 L 179.447720 118.473309 L 179.946966 118.490264 L 180.446212 118.507218 L 180.945458 118.524173 L 181.444704 118.541128 L 181.943950 118.558083 L 182.443196 118.575037 L 182.942442 118.591992 L 183.441688 118.608947 L 183.940934 118.625902 L 184.439931 118.648404 L 184.938691 118.676197 L 185.437451 118.703991 L 185.936211 118.731784 L 186.434971 118.759578 L 186.933731 118.787371 L 187.432491 118.815165 L 187.931251 118.842958 L 188.430011 118.870752 L 188.928771 118.898545 L 189.426905 118.935109 L 189.924553 118.978477 L 190.422200 119.021845 L 190.919848 119.065212 L 191.417496 119.108580 L 191.915144 119.151948 L 192.412791 119.195316 L 192.910439 119.238684 L 193.408087 119.282052 L 193.905735 119.325419 L 194.402707 119.375643 L 194.899257 119.430166 L 195.395806 119.484690 L 195.892355 119.539213 L 196.388905 119.593736 L 196.885454 119.648260 L 197.382003 119.702783 L 197.878553 119.757306 L 198.375102 119.811830 L 198.871652 119.866353 L 199.367887 119.923626 L 199.863965 119.982283 L 200.360043 120.040941 L 200.856121 120.099599 L 201.352199 120.158256 L 201.848277 120.216914 L 202.344355 120.275571 L 202.840433 120.334229 L 203.336511 120.392887 L 203.832589 120.451544 L 204.328509 120.511520 L 204.824365 120.572020 L 205.320222 120.632520 L 205.816078 120.693020 L 206.311935 120.753521 L 206.807792 120.814021 L 207.303648 120.874521 L 207.799505 120.935021 L 208.295361 120.995522 L 208.791218 121.056022 L 209.286949 121.117542 L 209.782641 121.179375 L 210.278333 121.241209 L 210.774025 121.303042 L 211.269717 121.364875 L 211.765410 121.426708 L 212.261102 121.488541 L 212.756794 121.550374 L 213.252486 121.612207 L 213.748178 121.674040 L 214.243631 121.737754 L 214.739030 121.801894 L 215.234429 121.866033 L 215.729828 121.930173 L 216.225227 121.994312 L 216.720626 122.058452 L 217.216025 122.122591 L 217.711424 122.186731 L 218.206823 122.250870 L 218.702222 122.315010 L 219.196903 122.384439 L 219.691473 122.454687 L 220.186043 122.524935 L 220.680613 122.595183 L 221.175182 122.665431 L 221.669752 122.735678 L 222.164322 122.805926 L 222.658892 122.876174 L 223.153462 122.946422 L 223.648031 123.016670 L 224.141068 123.096920 L 224.633964 123.178082 L 225.126860 123.259245 L 225.619756 123.340407 L 226.112653 123.421570 L 226.605549 123.502732 L 227.098445 123.583895 L 227.591341 123.665057 L 228.084238 123.746219 L 228.577134 123.827382 L 229.066465 123.927761 L 229.555676 124.028790 L 230.044886 124.129820 L 230.534097 124.230849 L 231.023308 124.331879 L 231.512519 124.432908 L 232.001729 124.533938 L 232.490940 124.634967 L 232.980151 124.735996 L 233.469218 124.837627 L 233.951222 124.968799 L 234.433226 125.099970 L 234.915230 125.231142 L 235.397234 125.362314 L 235.879239 125.493485 L 236.361243 125.624657 L 236.843247 125.755828 L 237.325251 125.887000 L 237.807255 126.018172 L 238.288542 126.151678 L 238.760981 126.313959 L 239.233420 126.476241 L 239.705859 126.638523 L 240.178298 126.800804 L 240.650737 126.963086 L 241.123177 127.125368 L 241.595616 127.287649 L 242.068055 127.449931 L 242.540494 127.612213 L 243.012174 127.776587 L 243.478741 127.955050 L 243.945308 128.133514 L 244.411875 128.311978 L 244.878442 128.490442 L 245.345009 128.668906 L 245.811576 128.847369 L 246.278142 129.025833 L 246.744709 129.204297 L 247.211276 129.382761 L 247.677276 129.562670 L 248.140693 129.749162 L 248.604109 129.935654 L 249.067526 130.122146 L 249.530942 130.308638 L 249.994358 130.495130 L 250.457775 130.681622 L 250.921191 130.868114 L 251.384608 131.054606 L 251.848024 131.241097 L 252.310849 131.429031 L 252.771698 131.621780 L 253.232547 131.814529 L 253.693396 132.007278 L 254.154245 132.200027 L 254.615094 132.392776 L 255.075943 132.585526 L 255.536792 132.778275 L 255.997641 132.971024 L 256.458490 133.163773 L 256.918661 133.358116 L 257.377093 133.556546 L 257.835525 133.754975 L 258.293957 133.953404 L 258.752389 134.151833 L 259.210821 134.350262 L 259.669253 134.548691 L 260.127685 134.747120 L 260.586117 134.945549 L 261.044549 135.143978 L 261.500941 135.346933 L 261.953212 135.559031 L 262.405482 135.771128 L 262.857753 135.983226 L 263.310023 136.195324 L 263.762294 136.407421 L 264.214564 136.619519 L 264.666835 136.831617 L 265.119105 137.043715 L 265.571376 137.255812 L 266.020060 137.475155 L 266.462949 137.706202 L 266.905839 137.937250 L 267.348728 138.168298 L 267.791618 138.399345 L 268.234507 138.630393 L 268.677396 138.861441 L 269.120286 139.092489 L 269.563175 139.323536 L 270.006065 139.554584 L 270.442173 139.797677 L 270.869437 140.056481 L 271.296701 140.315285 L 271.723965 140.574089 L 272.151230 140.832892 L 272.578494 141.091696 L 273.005758 141.350500 L 273.433022 141.609303 L 273.860286 141.868107 L 274.287550 142.126911 L 274.703072 142.403325 L 275.106252 142.698249 L 275.509432 142.993173 L 275.912612 143.288097 L 276.315792 143.583020 L 276.718971 143.877944 L 277.122151 144.172868 L 277.525331 144.467792 L 277.928511 144.762716 L 278.331691 145.057640 L 278.727425 145.362274 L 279.116899 145.675075 L 279.506373 145.987875 L 279.895847 146.300676 L 280.285321 146.613476 L 280.674795 146.926277 L 281.064269 147.239077 L 281.453743 147.551878 L 281.843217 147.864678 L 282.232690 148.177478 L 282.624765 148.486994 L 283.018615 148.794266 L 283.412465 149.101538 L 283.806315 149.408810 L 284.200165 149.716082 L 284.594015 150.023354 L 284.987865 150.330626 L 285.381715 150.637899 L 285.775566 150.945171 L 286.169416 151.252443 L 286.571336 151.548911 L 286.977705 151.839425 L 287.384074 152.129940 L 287.790443 152.420454 L 288.196811 152.710968 L 288.603180 153.001482 L 289.009549 153.291997 L 289.415917 153.582511 L 289.822286 153.873025 L 290.228655 154.163539 L 290.640286 154.446482 L 291.054218 154.726115 L 291.468149 155.005749 L 291.882080 155.285382 L 292.296012 155.565015 L 292.709943 155.844649 L 293.123875 156.124282 L 293.537806 156.403916 L 293.951738 156.683549 L 294.365669 156.963182 L 294.778608 157.244277 L 295.191211 157.525867 L 295.603813 157.807458 L 296.016416 158.089048 L 296.429018 158.370639 L 296.841621 158.652229 L 297.254223 158.933820 L 297.666826 159.215411 L 298.079428 159.497001 L 298.492031 159.778592 L 298.889366 160.081062 L 299.282801 160.388865 L 299.676236 160.696668 L 300.069671 161.004471 L 300.463107 161.312274 L 300.856542 161.620077 L 301.249977 161.927880 L 301.643413 162.235683 L 302.036848 162.543486 L 302.430283 162.851289 L 302.804394 163.182067 L 303.175047 163.516955 L 303.545700 163.851844 L 303.916353 164.186733 L 304.287006 164.521621 L 304.657659 164.856510 L 305.028312 165.191399 L 305.398965 165.526288 L 305.769618 165.861176 L 306.140271 166.196065 L 306.514739 166.526676 L 306.889634 166.856810 L 307.264528 167.186943 L 307.639423 167.517077 L 308.014318 167.847210 L 308.389212 168.177343 L 308.764107 168.507477 L 309.139002 168.837610 L 309.513896 169.167744 L 309.888791 169.497877 L 310.261057 169.830970 L 310.633184 170.164220 L 311.005311 170.497470 L 311.377438 170.830720 L 311.749565 171.163970 L 312.121692 171.497220 L 312.493819 171.830470 L 312.865946 172.163720 L 313.610200 172.830220" fill="none" stroke="black" stroke-width="1.000000" />
</svg>