<?xml version="1.0" standalone="no" ?>
<!DOCTYPE svg PUBLIC "-//W3C//DTD SVG 1.1//EN" "http://www.w3.org/Graphics/SVG/1.1/DTD/svg11.dtd">
<svg width="500px" height="315px" xmlns="http://www.w3.org/2000/svg" version="1.1" >
	<image style="overflow: visible; opacity: 0.4" width="500" height="315" href="C:\Users\bmpix\Documents\mit\projects\vectorization\polyvector_thing\cpp\polyvector_thing\x64\Release\binary_to_share\eagle2_0500.png" transform="matrix(1 0 -0.5 0 1 0 )" />
	<polyline points="212.02,30.3633 213.904,30.2627 214.497,30.2137 215.384,30.1002 215.971,29.9951 216.844,29.792 218.291,29.4081 219.133,29.1639 219.482,29.0515 219.687,28.9779 223.984,27.3526 227.911,25.8766 231.19,24.6544 234.262,23.5107 234.46,23.4328 234.611,23.3693 234.796,23.2972 235.383,23.094 237.545,22.3899 237.775,22.322 240.14,21.684 240.327,21.6312 241.717,21.2228 241.896,21.1742 244.184,20.6057 245.673,20.2383 245.801,20.208 245.86,20.196 246.446,20.093 249.114,19.6306 249.23,19.6074 250.768,19.2614 250.874,19.2399 253.362,18.7921 254.05,18.6666 256.015,18.3008 258.766,17.7846 260.928,17.3795 265.057,16.6144 266.347,16.3868 267.025,16.2813 268.708,16.0459 269.5,15.9376 270.292,15.8294 271.877,15.6158 272.768,15.5038 275.747,15.1586 279.523,14.7367 280.218,14.6645 282.607,14.432 283.601,14.3321 287.081,13.9671 290.164,13.6394 294.936,13.1314 296.726,12.9453 300.686,12.5442 300.89,12.5246 305.258,12.1303 308.744,11.8215 311.161,11.6137 311.276,11.6071 313.573,11.5371 313.726,11.5318 314.4,11.5039 316.996,11.3936 318.894,11.3163 319.792,11.2861 322.99,11.2027 325.389,11.1552 328.888,11.1128 331.884,11.0988 334.447,11.1028 334.906,11.1057 336.497,11.1197 339.793,11.1493 341.292,11.1688 342.49,11.1983 343.987,11.2601 347.88,11.4703 351.871,11.7181 353.964,11.8722 356.055,12.0551 360.933,12.5229 363.42,12.7709 364.812,12.9142 366.404,13.0804 369.983,13.4546 370.698,13.5287 370.819,13.5408 376.933,14.1492 382.303,14.7086 386.075,15.1405 389.047,15.5268 393.136,16.1152 395.078,16.4171 396.481,16.6494 396.579,16.6669 398.026,16.9396 401.661,17.6253 404.314,18.1266 407.752,18.7806 413.84,19.9506 416.586,20.4892 418.154,20.8092 422.207,21.6673 429.104,23.1561 433.007,24.024 434.951,24.4851 437.036,25.021 439.199,25.6149 441.215,26.1986 443.705,26.9455 446.958,27.9352 451.168,29.2144 455.19,30.4204 458.357,31.3453 460.185,31.8547 461.248,32.1282 462.22,32.3561 463.684,32.6819 464.128,32.7816 465.729,33.1511 467.286,33.5195 469.137,33.9727 470.873,34.4187 471.35,34.5597 472.672,35.0094 473.889,35.4491 474.494,35.6801 474.654,35.747 475.519,36.1335 476.6,36.6204 476.705,36.669 477.897,37.2302 478.07,37.3157 478.552,37.5657 478.708,37.6444 480.581,38.553 480.743,38.6303 482.268,39.3469 482.405,39.4113 483.42,39.8899 484.306,40.3101 484.49,40.4001 489.856,43.1051 490.241,43.3296 490.88,43.7909 493.311,45.7268 493.552,45.962 493.688,46.1549 493.769,46.3186 493.811,46.4288 493.845,46.5247 493.9,46.6796 493.928,46.7577 " fill="none" stroke-width="1" stroke="rgb(232,26,75)" />
	<polyline points="412.115,35.7033 410.072,34.7835 409.985,34.7394 409.683,34.5707 409.546,34.4973 407.681,33.5653 407.583,33.519 406.942,33.2367 405.666,32.6782 405.554,32.6283 404.146,31.9876 403.96,31.9009 403.642,31.7504 403.547,31.7088 401.134,30.7413 399.281,29.9916 397.435,29.231 396.678,28.9098 396.517,28.8345 393.147,27.1463 389.744,25.4329 389.582,25.3492 389.563,25.3378 389.453,25.2599 388.662,24.6894 388.584,24.6289 388.453,24.5198 388.37,24.4556 388.293,24.4085 386.779,23.6069 386.632,23.5301 386.326,23.3731 386.169,23.3004 384.632,22.6459 384.454,22.5739 381.371,21.3977 381.242,21.3491 379.706,20.7734 379.601,20.7364 378.11,20.2442 375.407,19.3532 375.279,19.308 373.342,18.579 373.215,18.5236 372.44,18.1296 372.268,18.0277 371.781,17.6865 371.714,17.622 371.63,17.507 371.615,17.4799 371.54,17.3225 371.513,17.287 371.39,17.1838 370.646,16.6316 370.545,16.5574 370.53,16.5466 370.403,16.4722 369.74,16.1392 366.708,14.7565 365.435,14.2341 364.457,13.8868 364.265,13.8319 361.596,13.2004 361.456,13.1652 361.45,13.162 361.302,13.037 361.244,13.0129 357.84,12.5715 354.144,12.1235 350.593,11.7096 347.281,11.3284 347.127,11.3104 " fill="none" stroke-width="1" stroke="rgb(232,26,75)" />
	<polyline points="212.969,6.12578 212.516,6.39505 212.206,6.60079 209.137,8.84623 208.198,9.57668 207.128,10.471 205.765,11.6347 204.841,12.3834 202.549,14.1061 201.05,15.161 200.389,15.5987 200.297,15.6633 197.867,17.5257 196.039,18.9195 195.239,19.5135 194.186,20.2702 193.608,20.679 193.509,20.7522 193.058,21.1078 192.659,21.443 191.279,22.6733 190.697,23.219 190.063,23.855 188.963,25.0157 186.46,27.7393 184.061,30.4199 182.701,32.0118 181.776,33.1811 180.84,34.4692 179.37,36.6091 178.244,38.2871 " fill="none" stroke-width="1" stroke="rgb(232,26,75)" />
	<polyline points="203.224,19.3828 203.738,18.4836 204.156,17.744 204.568,17.0049 204.876,16.4488 205.06,16.1208 205.763,14.9272 205.96,14.6497 209.36,10.5547 210.133,9.64139 210.588,9.11114 211.037,8.57784 212.358,6.97008 212.623,6.63106 212.716,6.50184 212.781,6.40712 212.969,6.12578 " fill="none" stroke-width="1" stroke="rgb(232,26,75)" />
	<polyline points="220.995,11.0052 220.972,11.0863 220.95,11.1738 220.908,11.3742 220.868,11.5347 220.787,11.7587 220.516,12.2833 219.719,13.52 218.586,15.0392 217.033,16.9422 216.261,17.8593 215.951,18.2445 215.724,18.5656 215.047,19.6399 214.846,20.0072 214.651,20.4482 214.048,22.0434 213.318,24.1121 212.918,25.3463 212.794,25.8223 212.71,26.3099 212.458,28.4908 212.107,32.1583 211.998,33.7158 211.996,34.1625 212.04,34.9696 " fill="none" stroke-width="1" stroke="rgb(232,26,75)" />
	<polyline points="209.27,19.6026 213.668,16.729 214.234,16.3618 214.443,16.2296 215.111,15.815 216.071,15.2136 216.294,15.0637 216.781,14.7004 217.87,13.8338 218.936,12.9357 219.824,12.1369 220.821,11.1939 220.913,11.0983 220.995,11.0052 " fill="none" stroke-width="1" stroke="rgb(232,26,75)" />
	<polyline points="203.224,19.3828 202.622,20.6581 202.558,20.7881 202.007,21.8345 201.768,22.2704 201.225,23.2261 200.68,24.18 199.633,26.0273 199.56,26.1707 199.217,26.9414 198.677,28.225 198.363,29.0298 198.234,29.4065 198.057,29.9912 " fill="none" stroke-width="1" stroke="rgb(232,26,75)" />
	<polyline points="209.27,19.6026 207.951,20.5843 206.577,21.625 205.895,22.1663 205.289,22.6841 204.479,23.4239 204.054,23.8427 203.648,24.2814 202.932,25.114 201.848,26.4211 201.344,27.0409 200.966,27.5045 200.378,28.181 199.702,28.8728 199.205,29.2953 198.82,29.5574 198.644,29.6559 198.566,29.6961 198.344,29.8157 198.21,29.8945 198.057,29.9912 " fill="none" stroke-width="1" stroke="rgb(232,26,75)" />
	<polyline points="412.115,35.7033 412.822,36.0836 412.973,36.1665 413.596,36.5151 413.681,36.5601 415.432,37.4342 417.325,38.3815 417.497,38.4724 418.892,39.2586 420.419,40.137 420.563,40.233 421.271,40.7888 421.361,40.8703 421.451,40.9633 421.511,41.0202 421.646,41.1251 422.884,41.9839 425.198,43.557 427.018,44.7916 428.416,45.7563 429.633,46.6297 430.763,47.4885 433.069,49.3264 434.544,50.5563 435.435,51.3526 436.66,52.5241 438.007,53.8614 438.848,54.716 440.087,55.9862 445.129,61.1539 445.669,61.7032 446.669,62.718 449.452,65.5652 450.977,67.1479 452.02,68.2486 " fill="none" stroke-width="1" stroke="rgb(232,26,75)" />
	<polyline points="448.34,70.8911 447.564,69.6755 446.357,67.7247 445.746,66.6593 444.688,64.6771 444.432,64.1811 444.01,63.3617 443.47,62.3233 442.69,60.8181 442.572,60.5589 442.302,59.8417 442.22,59.578 442.135,59.2222 442.109,59.0666 442.1,58.9408 442.102,58.8287 442.114,58.7137 442.138,58.5604 " fill="none" stroke-width="1" stroke="rgb(232,26,75)" />
	<polyline points="130.045,57.1086 130.542,57.2072 130.987,57.2959 131.534,57.4102 131.811,57.4778 132.199,57.5872 133.072,57.8327 133.412,57.9025 134.06,57.9735 134.527,57.9984 135.179,58.0262 136.297,58.1312 137.534,58.3648 139.58,58.9478 141.162,59.5211 142.065,59.9307 143.025,60.4543 144.213,61.1833 145.878,62.2839 147.679,63.5403 148.554,64.1966 149.242,64.768 152.238,67.4155 154.766,69.6882 155.203,70.0968 155.701,70.5873 156.329,71.2308 157.528,72.4871 157.648,72.6224 158.476,73.6441 158.958,74.276 160,75.7378 160.379,76.3198 160.723,76.9235 161.356,78.1673 162.679,80.9051 162.985,81.5929 163.276,82.3336 163.852,83.9306 164.179,84.8745 164.354,85.3943 " fill="none" stroke-width="1" stroke="rgb(232,26,75)" />
	<polyline points="164.354,85.3943 163.563,84.991 162.144,84.2577 160.633,83.4624 160.396,83.3265 159.339,82.6688 158.805,82.3263 158.688,82.2482 158.635,82.2117 158.488,82.1125 156.176,80.5775 154.573,79.5133 154.454,79.4309 152.315,77.9039 149.63,75.9881 148.65,75.2959 147.995,74.8386 147.013,74.1551 146.443,73.7467 145.968,73.3843 145.117,72.6909 144.596,72.2298 143.806,71.4692 142.903,70.5434 142.206,69.7971 142.108,69.6849 142.004,69.562 141.569,69.0497 140.582,67.9251 139.24,66.4455 137.465,64.5475 135.941,62.9612 133.562,60.5333 132.363,59.3306 131.939,58.9205 130.556,57.6156 130.473,57.5352 130.045,57.1086 " fill="none" stroke-width="1" stroke="rgb(232,26,75)" />
	<polyline points="452.02,68.2486 452.14,68.4217 452.959,69.5791 454.873,72.2599 455.451,73.0745 455.947,73.7977 455.982,73.8696 456.051,74.12 456.092,74.312 456.219,74.8989 456.46,75.7443 456.827,76.6622 458.035,79.1255 458.286,79.5419 459.103,80.674 459.952,81.7959 461.103,83.2973 461.645,84.0154 462.53,85.2226 463.037,85.93 463.154,86.099 463.165,86.1147 463.27,86.2702 464.009,87.3556 465.014,88.8234 466.487,90.9865 466.922,91.6526 467.229,92.1646 468.156,93.8219 469.372,96.0452 471.019,99.0941 471.582,100.154 472.556,102.023 475.09,106.94 475.842,108.419 476.242,109.224 476.726,110.211 478.953,114.682 479.704,116.075 481.057,118.365 481.31,118.757 481.339,118.784 481.47,118.855 481.605,118.919 481.698,118.959 " fill="none" stroke-width="1" stroke="rgb(232,26,75)" />
	<polyline points="448.34,70.8911 450.97,74.1067 453.037,76.6111 453.114,76.6814 453.196,76.7248 453.556,76.855 453.637,76.8885 454.11,77.1307 455.155,77.7178 455.467,77.9316 456.453,78.744 457.136,79.3384 457.423,79.6043 457.763,79.9452 458.162,80.381 459.009,81.3643 459.814,82.3291 461.236,84.0638 461.931,84.9161 463.156,86.4198 " fill="none" stroke-width="1" stroke="rgb(232,26,75)" />
	<polyline points="178.244,38.2871 177.342,38.1955 176.648,38.135 175.352,38.0468 174.055,37.9803 171.458,37.8816 169.46,37.8258 165.461,37.7476 163.062,37.718 162.064,37.7209 160.965,37.7473 159.468,37.8104 158.571,37.8679 154.785,38.1777 151.501,38.4734 150.71,38.5614 148.035,38.9067 147.54,38.9637 146.845,39.0245 145.25,39.1359 142.955,39.2816 140.959,39.4077 138.964,39.5424 137.67,39.6411 136.205,39.7656 136.091,39.7783 134.091,40.054 133.427,40.1553 132.812,40.265 130.064,40.7978 128.909,41.0251 128.777,41.0505 125.24,41.7162 125.125,41.7364 124.131,41.8978 121.863,42.2682 119.311,42.6894 119.155,42.7154 119.058,42.7317 116.201,43.2064 115.12,43.3979 114.536,43.5181 112.882,43.8976 111.873,44.1326 111.702,44.1682 109.717,44.5298 105.98,45.2067 100.868,46.1469 99.2033,46.4766 97.939,46.7636 96.4898,47.1389 94.4717,47.711 93.1345,48.1192 90.0886,49.0974 88.9494,49.4737 87.7185,49.8916 83.75,51.256 83.6056,51.3076 82.035,51.8911 81.2166,52.2034 80.0807,52.6559 78.8836,53.1575 77.0553,53.9626 75.0579,54.8794 72.9822,55.8667 70.5556,57.0495 68.8529,57.8921 67.5118,58.5635 63.5768,60.5476 63.4425,60.6208 63.0379,60.863 62.4522,61.2269 61.3563,61.9229 60.5467,62.4459 60.4216,62.5325 59.0782,63.5197 57.2306,64.8864 56.6208,65.3391 56.4633,65.4565 54.9648,66.5761 53.7668,67.4788 51.6216,69.1169 49.7294,70.5902 48.7997,71.345 47.6617,72.3193 43.1626,76.2867 42.3509,77.0264 41.632,77.7186 40.9313,78.4298 40.1777,79.2292 39.6417,79.8221 36.2034,83.7207 34.6877,85.4507 33.3126,87.0375 31.237,89.4712 30.4802,90.3985 29.3877,91.8237 28.6353,92.8771 27.2224,94.9892 25.2983,97.975 24.1134,99.8793 22.7974,102.068 22.1229,103.226 22.0314,103.403 21.7099,104.115 21.6632,104.232 21.5429,104.568 21.4667,104.77 21.1624,105.509 21.0486,105.734 20.2922,106.979 19.5968,108.075 18.398,109.919 16.9857,112.1 16.1907,113.369 15.2718,114.913 13.9382,117.256 13.5194,118.048 13.0474,119.038 12.6819,119.889 12.3378,120.793 11.8201,122.303 11.313,123.921 11.0802,124.786 10.4743,127.413 9.63616,131.321 8.83998,135.237 8.66048,136.204 8.40773,137.695 8.32507,138.187 8.20738,138.876 7.95882,140.355 7.84167,141.143 7.76649,141.834 7.70939,142.721 7.56815,146.322 7.45579,149.919 7.40253,152.119 7.3664,154.218 7.33419,157.217 7.3338,159.116 7.3587,160.113 7.44747,161.708 7.77047,166.092 7.9454,168.079 8.10566,169.642 8.11995,169.771 8.12537,169.823 8.42736,173.094 8.59595,174.886 8.96679,178.668 9.26205,181.45 9.37904,182.338 9.74738,184.7 9.77018,184.827 9.78853,184.913 10.0645,186.124 10.4554,187.88 10.5543,188.369 10.8766,190.139 11.2238,192.087 11.2527,192.242 11.7451,194.77 11.7662,194.885 12.1461,197.055 12.531,199.215 12.6027,199.573 12.6598,199.802 13.0511,201.18 13.3383,202.156 13.3828,202.289 13.5434,202.722 13.5856,202.847 13.9364,204 14.4776,205.782 14.5287,205.934 14.6021,206.131 14.6483,206.258 15.3245,208.215 15.363,208.318 15.538,208.753 15.5746,208.849 15.8506,209.609 16.1403,210.399 16.4111,211.106 16.6784,211.75 16.9698,212.383 17.6374,213.723 18.6912,215.764 18.7573,215.88 18.801,215.949 " fill="none" stroke-width="1" stroke="rgb(232,26,75)" />
	<polyline points="108.983,79.156 108.953,79.3293 108.94,79.3708 108.748,79.7306 108.707,79.7579 105.176,80.2613 103.295,80.496 102.501,80.5715 100.408,80.7273 99.8108,80.7759 96.1283,81.1194 94.738,81.269 92.9568,81.4982 90.7842,81.8142 89.008,82.0973 87.9246,82.285 86.8431,82.4847 85.6645,82.7098 84.094,83.0151 81.1505,83.5923 78.2076,84.1728 76.0498,84.6011 74.2775,84.956 69.7766,85.8661 68.0147,86.2315 67.2351,86.405 65.1927,86.8902 63.7515,87.2472 61.0257,87.948 59.8677,88.2606 57.9462,88.8113 55.9378,89.4191 53.1776,90.3008 50.9072,91.0688 49.5969,91.5524 45.6299,93.1224 42.8285,94.2755 41.0029,95.07 39.0943,95.9548 36.5808,97.183 34.2683,98.3653 31.7109,99.7278 28.3812,101.555 27.9312,101.821 27.5415,102.084 26.9824,102.501 26.1983,103.119 25.7334,103.496 25.1892,103.935 24.713,104.292 24.2295,104.611 23.1665,105.254 22.3476,105.753 21.9244,106.039 20.9117,106.797 20.3245,107.25 20.135,107.397 " fill="none" stroke-width="1" stroke="rgb(232,26,75)" />
	<polyline points="301.427,177.845 300.934,178.292 300.41,178.754 299.645,179.393 299.174,179.756 298.683,180.091 297.833,180.612 296.103,181.608 295.489,181.935 294.859,182.233 293.007,183.041 291.281,183.777 289.417,184.566 289.267,184.633 288.012,185.242 287.888,185.304 287.374,185.566 287.281,185.608 285.725,186.241 285.597,186.287 284.128,186.767 282.796,187.192 281.262,187.672 280.601,187.876 279.806,188.117 279.669,188.157 277.323,188.816 277.198,188.85 275.967,189.184 274.648,189.541 274.489,189.585 273.35,189.91 271.86,190.337 271.743,190.37 271.606,190.409 269.093,191.111 268.682,191.225 268.502,191.275 267.933,191.432 267.067,191.673 264.953,192.273 261.891,193.169 261.679,193.252 261.388,193.406 261.266,193.479 261.254,193.485 261.189,193.503 259.736,193.865 257.866,194.329 257.752,194.359 256.97,194.577 256.864,194.605 255.142,195.045 253.845,195.382 253.718,195.421 253.292,195.572 253.163,195.613 250.118,196.498 247.879,197.155 247.705,197.213 247.314,197.359 247.137,197.415 246.22,197.639 244.956,197.914 242.932,198.321 242.809,198.342 241.202,198.559 238.128,198.959 234.161,199.457 232.375,199.665 230.686,199.848 226.114,200.347 223.148,200.731 221.408,201.039 219.571,201.458 219.07,201.594 219.039,201.604 " fill="none" stroke-width="1" stroke="rgb(232,26,75)" />
	<polyline points="216.113,205.512 216.856,205.412 216.97,205.397 219.234,205.099 221.804,204.749 221.873,204.73 221.893,204.713 222.013,204.499 222.099,204.325 222.158,204.188 222.197,204.06 222.327,203.365 222.356,202.763 222.296,202.663 221.127,202.004 220.966,201.947 219.329,201.642 219.095,201.601 219.086,201.599 " fill="none" stroke-width="1" stroke="rgb(232,26,75)" />
	<polyline points="101.687,232.13 101.725,231.707 101.888,230.119 101.973,229.534 102.169,228.562 102.342,227.891 102.795,226.408 103.247,225.035 103.58,224.093 104.209,222.408 105.423,219.233 106.082,217.537 106.81,215.697 107.566,213.81 108.493,211.524 109.217,209.768 109.958,208.02 110.844,206.009 111.841,203.829 112.152,203.207 112.401,202.781 112.734,202.289 113.038,201.9 113.434,201.456 113.785,201.109 114.16,200.787 114.556,200.492 115.036,200.18 115.745,199.77 116.625,199.304 117.343,198.957 118.255,198.553 118.81,198.333 119.28,198.171 119.853,198.003 120.627,197.806 122.185,197.444 125.602,196.695 126.581,196.503 128.944,196.102 130.621,195.847 131.313,195.762 133.103,195.588 134.796,195.437 136.389,195.303 139.081,195.093 141.273,194.945 145.264,194.725 146.559,194.684 148.655,194.68 149.85,194.712 150.443,194.758 151.333,194.871 153.209,195.157 154.94,195.432 155.159,195.464 158.791,195.957 160.955,196.248 161.203,196.282 163.244,196.558 164.629,196.753 165.218,196.844 165.735,196.933 165.85,196.954 166.511,197.089 168.715,197.532 168.988,197.581 172.021,198.04 174.988,198.48 176.867,198.754 178.153,198.942 180.682,199.314 180.775,199.331 181.781,199.556 181.88,199.581 182.101,199.643 182.285,199.691 183.995,200.11 185.203,200.403 185.325,200.432 186.054,200.613 189.602,201.49 189.931,201.568 190.798,201.753 191.379,201.858 192.069,201.95 194.85,202.261 196.114,202.41 197.127,202.553 201.71,203.276 201.842,203.304 201.956,203.337 202.29,203.445 204.869,204.256 205.423,204.394 208.002,204.855 209.973,205.157 211.261,205.313 213.051,205.48 213.647,205.515 214.244,205.524 216.113,205.512 " fill="none" stroke-width="1" stroke="rgb(232,26,75)" />
	<polyline points="48.2344,284.989 48.267,284.982 48.7743,284.85 48.7836,284.839 49.008,283.248 49.1602,282.059 49.3891,280.169 49.5295,279.084 49.6519,278.297 49.8207,277.416 50.3321,275.074 50.5209,274.33 50.7906,273.445 51.5901,271.08 52.5872,268.254 53.5363,265.635 53.589,265.502 54.2595,263.956 55.0705,262.129 55.2461,261.774 55.4956,261.347 56.0412,260.515 56.5648,259.792 57.4304,258.7 58.6534,257.251 59.9142,255.834 60.9396,254.744 61.6476,254.044 62.239,253.513 62.9343,252.948 63.8943,252.234 66.1011,250.685 67.3477,249.861 68.8779,248.921 73.4476,246.241 75.273,245.208 76.9431,244.307 78.737,243.375 83.882,240.749 88.3304,238.47 90.7438,237.217 92.3087,236.393 92.4289,236.329 92.6243,236.227 93.4546,235.801 94.3826,235.336 94.5672,235.251 96.7795,234.324 98.162,233.743 100.307,232.832 100.398,232.791 100.451,232.763 100.556,232.71 101.159,232.419 101.793,232.131 103.103,231.571 103.427,231.445 104.525,231.057 106.887,230.247 108.023,229.863 109.329,229.423 109.535,229.352 111.249,228.742 111.393,228.69 113.144,228.043 113.37,227.958 114.552,227.509 114.758,227.434 117.176,226.591 117.301,226.544 117.695,226.385 117.824,226.338 119.076,225.933 120.681,225.422 120.797,225.386 122.998,224.702 124.812,224.137 126.052,223.747 127.625,223.247 129.253,222.726 129.384,222.682 132.335,221.686 132.505,221.632 132.858,221.528 135.647,220.746 137.288,220.309 140.971,219.387 145.358,218.328 146.903,217.977 147.979,217.757 150.041,217.372 151.319,217.147 153.388,216.794 155.144,216.489 155.273,216.459 155.735,216.325 155.926,216.275 160.704,215.176 160.861,215.142 165.71,214.113 165.881,214.074 167.108,213.781 167.238,213.753 169.769,213.261 169.868,213.243 172.615,212.751 173.693,212.547 174.645,212.354 174.772,212.328 174.877,212.307 175.505,212.197 177.672,211.838 179.152,211.601 180.712,211.36 180.875,211.337 183.712,210.942 184.599,210.803 185.182,210.687 186.151,210.455 186.232,210.425 186.275,210.395 186.355,210.321 186.372,210.31 186.439,210.29 188.738,209.758 190.883,209.277 191.861,209.069 193.098,208.818 193.195,208.801 194.857,208.526 196.765,208.214 196.9,208.193 200.075,207.716 200.175,207.7 201.823,207.408 201.923,207.394 202.197,207.367 203.787,207.23 205.008,207.119 206.465,206.973 208.202,206.78 209.008,206.679 211.004,206.405 212.446,206.202 212.892,206.14 213.489,206.058 214.178,205.964 215.961,205.71 215.988,205.694 216.113,205.512 " fill="none" stroke-width="1" stroke="rgb(232,26,75)" />
	<polyline points="205.25,233.765 205.261,233.761 205.335,233.735 206.675,233.28 206.823,233.236 207.329,233.112 209.077,232.703 209.211,232.672 209.287,232.653 209.766,232.541 213.182,231.737 213.322,231.704 213.841,231.583 215.883,231.108 217.091,230.831 217.301,230.788 220.029,230.275 222.584,229.799 225.724,229.216 225.851,229.19 227.613,228.808 228.18,228.684 228.297,228.658 229.586,228.378 230.953,228.082 233.056,227.63 233.156,227.608 233.171,227.605 233.259,227.591 235.47,227.248 237.938,226.862 239.069,226.682 239.17,226.664 239.194,226.66 239.305,226.639 241.853,226.181 241.989,226.161 244.644,225.845 246.431,225.632 247.026,225.558 247.918,225.443 248.91,225.318 249.903,225.201 251.293,225.051 252.386,224.941 253.996,224.78 254.868,224.679 255.954,224.523 259.01,224.023 260.731,223.723 260.894,223.691 260.984,223.673 261.119,223.652 262.792,223.457 264.183,223.305 265.474,223.164 265.868,223.11 266.356,223.018 267.426,222.777 268.204,222.575 269.442,222.211 270.199,221.962 270.947,221.686 271.685,221.383 272.82,220.88 274.092,220.287 274.945,219.865 275.738,219.444 276.607,218.954 277.322,218.527 278.142,218.023 279.247,217.345 279.721,217.07 279.932,216.962 280.907,216.504 281.431,216.217 282.664,215.41 285.244,213.566 286.287,212.757 288.778,210.705 289.504,210.108 290.514,209.294 293.558,206.858 294.558,206.032 295.3,205.371 297.181,203.583 299.177,201.624 301.718,199.076 303.618,197.159 304.324,196.453 306.456,194.343 308.159,192.653 310.2,190.596 311.165,189.587 312.101,188.551 314.278,186.041 316.919,182.938 317.553,182.166 318.04,181.534 318.675,180.658 318.728,180.562 318.783,180.405 318.837,180.193 318.872,180.029 " fill="none" stroke-width="1" stroke="rgb(232,26,75)" />
	<polyline points="242.077,290.864 242.587,290.494 242.688,290.423 247.727,287.031 249.214,286.017 250.781,284.918 252.795,283.468 255.613,281.394 257.729,279.802 258.316,279.333 258.914,278.813 260.75,277.12 261.763,276.156 263.692,274.268 265.426,272.55 265.532,272.438 265.629,272.324 266.309,271.464 267.293,270.203 269.354,267.553 269.476,267.406 270.222,266.568 270.327,266.444 270.397,266.348 270.78,265.745 271.405,264.72 271.479,264.576 271.809,263.774 272.121,262.936 272.345,262.243 272.6,261.315 272.778,260.538 273.283,257.991 273.398,257.303 273.479,256.612 273.548,255.706 273.608,254.421 273.701,251.223 273.75,248.725 273.806,244.526 273.85,241.127 273.886,239.228 273.922,238.432 273.979,237.841 274.073,237.255 274.554,234.908 274.886,233.448 275.611,230.542 275.899,229.48 276.55,227.275 277.028,225.749 277.536,224.234 277.942,223.109 278.337,222.087 278.49,221.72 278.649,221.355 278.805,220.992 278.941,220.67 279.085,220.347 279.145,220.247 279.79,219.397 280.42,218.57 280.575,218.347 281.318,217.166 281.538,216.808 " fill="none" stroke-width="1" stroke="rgb(232,26,75)" />
	<polyline points="205.25,233.765 203.348,234.205 202.825,234.329 202.664,234.371 201.284,234.765 199.786,235.195 199.665,235.229 197.934,235.712 195.702,236.343 195.469,236.417 193.915,236.955 193.604,237.049 192.872,237.228 191.124,237.622 190.152,237.843 188.006,238.352 186.386,238.756 186.217,238.81 185.286,239.179 185.163,239.231 184.73,239.421 184.639,239.457 183.095,240.001 181.114,240.695 179.699,241.194 178.006,241.801 176.034,242.522 174.725,243.016 172.86,243.738 171.093,244.435 167.563,245.841 165.295,246.738 164.121,247.192 163.132,247.565 161.317,248.248 160.672,248.509 159.05,249.223 157.402,249.996 155.707,250.845 154.388,251.548 152.551,252.572 152.376,252.675 151.195,253.41 150.379,253.92 150.293,253.973 149.482,254.46 149.386,254.517 147.654,255.51 147.471,255.624 146.641,256.196 146.53,256.277 146.486,256.314 146.412,256.382 145.839,256.907 145.484,257.215 144.814,257.751 144.614,257.882 143.286,258.605 142.743,258.891 140.188,260.226 138.682,261.014 136.824,261.991 135.516,262.676 135.301,262.786 133.978,263.438 133.169,263.83 131.499,264.631 131.286,264.733 129.433,265.632 129.209,265.738 127.361,266.586 127.206,266.651 126.071,267.088 124.816,267.569 124.701,267.615 124.353,267.76 124.15,267.84 122.789,268.341 122.679,268.376 121.034,268.82 118.829,269.409 118.713,269.442 117.117,269.935 116.4,270.169 116.303,270.209 116.187,270.271 116.067,270.333 115.963,270.372 112.312,271.426 112.132,271.487 111.988,271.547 111.887,271.591 111.775,271.632 109.044,272.5 108.814,272.575 108.499,272.678 108.264,272.746 105.306,273.51 105.121,273.554 103.717,273.853 101.227,274.384 101.087,274.418 100.941,274.457 100.737,274.507 99.5805,274.751 97.9173,275.07 95.9381,275.427 95.8269,275.446 94.2813,275.711 91.5809,276.188 91.4182,276.23 91.1836,276.322 91.107,276.36 90.9891,276.426 90.8868,276.472 90.7318,276.516 87.9264,277.069 85.9478,277.458 85.8358,277.489 85.2622,277.695 85.1105,277.745 84.9712,277.781 81.9187,278.418 81.8269,278.441 81.2208,278.622 81.1234,278.648 80.9613,278.681 76.969,279.401 76.8444,279.425 76.203,279.559 76.0802,279.579 74.7715,279.716 70.296,280.169 69.0048,280.301 68.0095,280.406 67.8208,280.425 65.8471,280.608 63.9555,280.769 62.2608,280.895 60.0661,281.031 59.2685,281.064 57.7698,281.094 54.0704,281.136 52.8705,281.144 50.0712,281.156 49.2594,281.158 " fill="none" stroke-width="1" stroke="rgb(232,26,75)" />
	<polyline points="238.987,309.848 238.733,309.508 238.638,309.38 238.567,309.29 238.207,308.875 236.803,307.362 236.169,306.764 235.164,305.958 233.399,304.648 232.913,304.298 231.774,303.484 229.736,302.037 228.098,300.893 227.581,300.553 226.241,299.726 223.509,298.061 223.007,297.739 221.356,296.618 220.34,295.907 220.227,295.818 219.26,294.979 219.161,294.893 217.712,293.67 216.358,292.527 214.295,290.786 212.641,289.39 212.554,289.317 210.517,287.575 210.428,287.503 209.416,286.741 205.397,283.727 205.245,283.611 203.616,282.333 201.47,280.651 201.278,280.507 200.735,280.125 199.992,279.621 198.659,278.739 197.739,278.141 197.581,278.045 196.223,277.258 194.751,276.412 193.797,275.865 192.654,275.21 192.551,275.15 192.458,275.093 191.449,274.473 191.315,274.391 189.729,273.411 189.629,273.336 189.566,273.268 189.478,273.158 189.446,273.129 189.318,273.059 186.006,271.542 184.088,270.692 178.029,268.079 175.915,267.173 174.168,266.426 172.979,265.917 171.32,265.203 170.036,264.645 168.939,264.161 167.779,263.642 167.68,263.596 167.57,263.543 165.677,262.61 165.587,262.563 165.405,262.465 165.27,262.402 163.87,261.83 162.719,261.391 161.811,261.08 160.57,260.7 159.8,260.49 158.926,260.282 158.145,260.121 157.358,259.986 155.283,259.68 154.074,259.525 152.109,259.309 150.814,259.188 149.619,259.096 148.523,259.018 147.13,258.909 146.65,258.846 146.373,258.774 145.933,258.598 145.215,258.256 144.808,258.049 " fill="none" stroke-width="1" stroke="rgb(232,26,75)" />
	<polyline points="224.952,88.8354 224.924,88.6058 224.874,88.2879 224.851,88.2267 224.764,88.1144 221.542,84.6645 220.245,83.2776 218.884,81.8138 216.919,79.6821 216.197,78.8871 215.118,77.6721 214.809,77.3051 214.559,76.9751 214.101,76.3227 213.144,74.9188 212.639,74.1774 212.355,73.7673 212.184,73.5266 211.573,72.682 211.508,72.5882 211.413,72.4338 211.353,72.3136 211.065,71.6022 210.795,70.8557 210.557,70.0969 210.355,69.3279 210.255,68.8433 210.203,68.4516 210.171,67.9567 210.167,67.4604 210.191,66.9647 210.245,66.4721 210.318,66.0849 210.452,65.6045 210.62,65.1579 210.815,64.771 211.355,63.8788 211.91,63.053 212.379,62.431 212.712,62.0515 213.069,61.7175 213.611,61.2903 214.749,60.4875 215.829,59.7785 216.374,59.4513 217.671,58.7226 217.818,58.6424 218.213,58.436 218.389,58.3595 220.25,57.6977 220.972,57.4664 221.62,57.2944 222.264,57.1583 222.854,57.0657 223.646,56.98 224.24,56.9457 225.335,56.9324 227.633,56.9604 231.23,57.05 233.827,57.143 234.723,57.1953 235.417,57.261 236.209,57.3638 236.997,57.4887 239.263,57.882 241.528,58.2781 242.711,58.4769 243.895,58.6617 245.873,58.9526 247.556,59.1942 248.545,59.3369 252.501,59.9184 255.96,60.4402 256.451,60.5266 258.409,60.9263 260.755,61.4255 262.513,61.8098 263.391,62.0063 265.828,62.5618 268.945,63.2807 272.06,64.0115 273.711,64.413 275.163,64.785 277.732,65.4677 277.845,65.5015 277.854,65.5075 277.919,65.5836 277.988,65.6675 " fill="none" stroke-width="1" stroke="rgb(232,26,75)" />
	<polyline points="344.665,59.716 345.478,60.3767 346.634,61.3304 348.238,62.6837 350.887,64.9684 351.702,65.703 352.932,66.8726 353.636,67.5772 354.184,68.1573 356.005,70.1495 357.122,71.3803 357.259,71.5359 357.347,71.6427 358.014,72.4967 358.681,73.3655 358.774,73.4923 359.85,75.0551 359.956,75.2235 361.117,77.2144 362.447,79.511 362.515,79.6251 363.543,81.3196 363.646,81.4867 364.219,82.4016 364.311,82.5557 365.109,83.957 365.802,85.1719 367.095,87.4256 367.585,88.2774 367.674,88.4387 367.839,88.7528 368.152,89.3759 368.98,91.0612 370.098,93.3206 371.642,96.347 372.964,98.8035 374.941,102.285 375.171,102.637 375.249,102.718 375.356,102.787 375.481,102.85 375.546,102.882 375.675,102.944 375.701,102.958 " fill="none" stroke-width="1" stroke="rgb(232,26,75)" />
	<polyline points="286.105,69.6252 287.078,69.3365 288.934,68.8012 289.566,68.6376 290.938,68.3303 292.798,67.9472 293.68,67.7817 296.141,67.3557 299.888,66.7199 303.142,66.1686 306,65.6809 310.759,64.8649 314.02,64.309 316.246,63.9384 319.409,63.4312 323.754,62.7587 325.04,62.5741 327.319,62.2733 329.777,61.9587 330.591,61.8545 334.259,61.3844 335.151,61.2766 337.535,61.0062 338.429,60.9029 339.718,60.7441 341.203,60.5453 343.079,60.2689 343.363,60.2089 343.737,60.0936 344.106,59.9526 344.665,59.716 " fill="none" stroke-width="1" stroke="rgb(232,26,75)" />
	<polyline points="318.612,67.5947 319.732,67.4814 320.726,67.3943 321.421,67.3535 322.718,67.3144 324.217,67.2938 326.116,67.2874 327.815,67.2943 329.614,67.3178 330.211,67.342 331.304,67.4254 332.293,67.5297 333.74,67.7148 333.882,67.7408 334.78,67.9568 335.531,68.1531 336.298,68.3741 337.631,68.7934 338.288,69.0259 340.238,69.7929 340.965,70.1113 341.682,70.4753 342.445,70.9167 342.997,71.2818 343.412,71.604 344.457,72.5245 345.441,73.4598 345.888,73.943 346.935,75.2271 348.022,76.6535 348.412,77.2257 348.865,77.9941 349.376,78.9614 349.67,79.5918 350.126,80.6976 350.275,81.1271 350.671,82.5078 350.855,83.2794 351.052,84.3534 351.165,85.238 351.283,86.7269 351.324,87.8204 351.312,88.8139 351.249,89.8049 351.153,90.5916 350.975,91.5694 350.585,93.3214 350.292,94.4455 349.74,96.2942 349.178,98.0001 348.823,98.9454 348.47,99.748 347.376,101.99 346.374,103.945 346.081,104.462 345.81,104.875 345.51,105.269 345.184,105.642 344.562,106.289 342.97,107.861 341.768,109.004 340.951,109.734 340.181,110.362 339.381,110.949 338.222,111.718 337.539,112.117 336.471,112.657 334.932,113.357 333.827,113.805 332.761,114.177 331.177,114.664 330.407,114.867 328.654,115.268 326.796,115.661 325.032,116.01 324.541,116.094 324.048,116.157 323.552,116.206 323.073,116.245 " fill="none" stroke-width="1" stroke="rgb(232,26,75)" />
	<polyline points="323.073,116.245 322.457,116.188 321.564,116.092 320.787,115.987 320.187,115.877 317.949,115.377 316.208,114.947 315.537,114.747 314.254,114.29 313.213,113.876 312.864,113.708 312.547,113.512 311.476,112.742 308.298,110.351 306.07,108.626 304.557,107.401 303.153,106.202 302.198,105.329 301.714,104.833 300.933,103.932 300.319,103.154 299.923,102.587 299.286,101.575 299.04,101.143 298.77,100.609 298.565,100.155 298.302,99.5092 298.204,99.2289 298.127,98.9433 298.071,98.6527 298.037,98.3582 298.003,97.7615 297.906,94.6659 297.897,93.6692 297.93,92.273 297.972,91.6792 298.072,90.8918 298.224,90.0101 298.613,88.0508 298.911,86.6449 298.954,86.4795 299.774,83.7734 300.264,82.2554 300.638,81.2289 301.202,79.8438 301.688,78.7504 302.039,78.0326 302.371,77.4262 302.686,76.9152 303.029,76.4297 303.524,75.8113 304.442,74.7634 305.665,73.4501 306.577,72.5311 306.988,72.1612 307.332,71.9019 307.999,71.4712 308.689,71.0731 309.837,70.4703 310.655,70.0801 311.378,69.78 312.29,69.4552 314.027,68.9037 315.846,68.3669 317.963,67.7722 318.612,67.5947 " fill="none" stroke-width="1" stroke="rgb(232,26,75)" />
	<polyline points="273.338,97.2397 274.156,95.4285 274.451,94.7944 275.441,92.7197 276.308,90.9178 276.781,89.936 277.568,88.3071 278.328,86.7494 278.936,85.5278 280.517,82.4062 281.245,80.9825 282.022,79.4714 283.708,76.1793 284.692,74.2157 284.985,73.584 285.288,72.8469 285.679,71.7926 285.856,71.2516 285.928,70.9662 285.976,70.6759 286.105,69.6252 " fill="none" stroke-width="1" stroke="rgb(232,26,75)" />
	<polyline points="313.999,96.3259 313.635,94.7871 313.326,93.4229 313.17,92.6425 313.116,92.2525 313.085,91.76 313.091,91.2663 313.139,90.6741 313.296,89.4893 313.497,88.3128 313.653,87.6389 313.962,86.5924 314.197,85.9434 314.477,85.3116 314.884,84.5165 315.085,84.1833 315.245,83.9755 315.541,83.6692 315.983,83.2772 316.452,82.92 316.864,82.6601 317.388,82.3923 318.026,82.1238 319.71,81.501 320.182,81.3484 320.76,81.1963 321.344,81.0698 321.932,80.9666 322.723,80.8534 325.301,80.5221 326.399,80.3849 " fill="none" stroke-width="1" stroke="rgb(232,26,75)" />
	<polyline points="326.399,80.3849 327.025,81.1036 327.672,81.8648 327.979,82.2548 328.38,82.821 328.695,83.3223 329.133,84.1017 329.352,84.5456 329.501,84.912 329.655,85.3832 329.781,85.8628 329.943,86.6405 329.999,87.0304 330.023,87.4242 330.038,88.9205 330.021,90.0167 329.995,90.411 329.94,90.8027 329.841,91.289 329.717,91.7702 329.542,92.3386 329.404,92.7137 329.168,93.2617 328.904,93.7954 328.706,94.1328 328.514,94.3923 327.821,95.1937 327.211,95.8473 326.855,96.191 326.478,96.5133 326.16,96.7522 325.747,97.0287 325.321,97.2853 324.884,97.5218 324.436,97.7377 324.082,97.8859 323.79,97.9857 323.407,98.0887 323.019,98.169 322.626,98.226 322.032,98.2817 321.436,98.3123 321.04,98.3104 320.645,98.2807 319.26,98.1094 318.573,97.9974 317.994,97.8666 317.232,97.6468 316.648,97.442 315.657,97.0435 314.647,96.6114 313.999,96.3259 " fill="none" stroke-width="1" stroke="rgb(232,26,75)" />
	<polyline points="273.338,97.2397 274.419,98.1188 277.141,100.319 278.709,101.569 280.279,102.795 281.231,103.523 283.528,105.258 283.655,105.359 284.171,105.794 284.298,105.891 285.392,106.638 286.302,107.229 287.009,107.657 288.024,108.234 289.334,108.964 290.363,109.548 291.404,110.164 292.263,110.7 292.478,110.851 293.466,111.617 293.566,111.699 294.624,112.628 294.717,112.739 294.814,112.931 294.851,113.075 294.93,113.634 294.96,113.731 295.01,113.794 296.441,114.919 297.945,116.073 298.066,116.164 300.61,118.058 301.705,118.883 305.363,121.67 305.841,122.04 306.357,122.446 306.529,122.582 307.405,123.275 308.393,124.056 308.557,124.183 308.736,124.315 309.308,124.71 310.282,125.36 310.468,125.472 311.328,125.941 312.527,126.58 312.673,126.653 313.679,127.131 314.611,127.566 314.739,127.621 315.3,127.839 316.22,128.185 316.347,128.226 318.142,128.704 319.399,129.022 320.468,129.273 322.809,129.799 323.783,130.019 326.708,130.682 328.834,131.154 329.342,131.25 329.834,131.315 330.837,131.399 331.621,131.433 332.717,131.439 333.513,131.413 334.306,131.353 334.797,131.289 335.183,131.209 335.757,131.048 336.46,130.812 337.724,130.336 339.702,129.549 341.631,128.76 341.859,128.661 343.934,127.728 344.873,127.29 346.333,126.572 347.51,125.958 348.025,125.659 348.942,125.067 350.264,124.172 350.381,124.085 350.966,123.604 352.231,122.561 352.483,122.363 355.018,120.469 358.685,117.739 360.045,116.72 361.542,115.585 364.498,113.328 366.01,112.179 367.369,111.159 369.939,109.254 372.514,107.355 373.722,106.467 374.932,105.58 376.275,104.598 376.432,104.488 376.966,104.122 " fill="none" stroke-width="1" stroke="rgb(232,26,75)" />
	<polyline points="43.0106,131.989 43.102,131.501 43.1851,131.083 43.1897,131.078 43.3286,131.047 47.8883,130.22 49.7572,129.913 51.8336,129.624 54.0158,129.356 55.6046,129.172 56.2986,129.088 58.6788,128.786 62.0499,128.348 66.1148,127.818 72.1639,127.04 74.2474,126.789 78.9178,126.27 81.0062,126.055 82.82,125.886 83.6903,125.812 83.8528,125.8 84.7849,125.737 86.9782,125.584 89.9699,125.367 91.4652,125.253 93.7579,125.078 94.7547,125.01 95.652,124.964 96.3503,124.943 98.0494,124.923 101.251,124.903 101.373,124.903 103.086,124.919 103.189,124.916 105.044,124.815 107.24,124.686 112.12,124.392 112.929,124.342 114.226,124.262 116.122,124.142 117.918,124.028 120.912,123.844 122.508,123.758 125.304,123.635 128.889,123.496 129.11,123.492 131.1,123.487 135.497,123.482 135.703,123.482 143.399,123.447 146.798,123.449 149.496,123.477 151.994,123.531 156.792,123.667 158.891,123.731 161.29,123.802 167.887,123.997 170.285,124.072 172.284,124.141 173.982,124.204 177.08,124.319 179.078,124.385 181.477,124.453 190.173,124.686 192.47,124.764 194.566,124.867 196.859,125.013 198.95,125.167 199.331,125.2 199.46,125.213 202.897,125.606 207.069,126.088 211.537,126.615 214.614,126.988 215.958,127.156 217.39,127.34 218.382,127.465 220.168,127.685 224.782,128.258 227.308,128.591 230.968,129.12 235.016,129.753 237.279,130.144 239.043,130.491 240.7,130.861 242.931,131.41 244.571,131.849 245.333,132.083 247.222,132.738 250.976,134.103 252.844,134.814 256.746,136.359 258.972,137.259 260.202,137.769 266.162,140.282 268.367,141.229 270.101,142.002 271.819,142.807 273.881,143.819 275.568,144.684 277.415,145.659 277.595,145.758 278.841,146.463 280.474,147.395 280.598,147.472 281.254,147.912 281.34,147.97 283.047,149.106 283.787,149.612 284.498,150.119 284.669,150.255 285.144,150.668 285.649,151.117 285.797,151.247 286.925,152.207 287.464,152.652 288.557,153.525 291.385,155.752 293.489,157.402 293.585,157.476 294.784,158.377 295.348,158.788 296.003,159.245 297.547,160.295 297.653,160.367 299.409,161.572 299.521,161.65 300.568,162.384 300.683,162.46 302.557,163.626 303.995,164.531 304.407,164.809 305.292,165.457 306.718,166.551 309.876,169.041 310.423,169.494 310.914,169.935 311.346,170.349 312.697,171.683 313.098,172.064 313.428,172.351 314.51,173.235 315.442,173.991 316.135,174.564 316.663,175.02 317.7,175.958 318.356,176.572 319.148,177.334 320.36,178.506 320.467,178.602 320.632,178.732 320.779,178.84 320.944,178.956 " fill="none" stroke-width="1" stroke="rgb(232,26,75)" />
	<polyline points="21.4991,214 22.2508,213.61 22.2926,213.547 22.5177,211.234 22.6598,208.952 22.697,207.555 22.6981,205.655 22.6806,203.156 22.673,200.956 22.6882,198.258 22.7214,196.761 22.7748,195.666 22.8464,194.771 23.0001,193.281 23.2101,191.393 23.3198,190.399 23.456,189.107 23.7594,186.128 23.7724,185.99 23.9637,183.844 24.2172,181.158 24.3194,180.267 24.4868,179.085 24.6202,178.257 24.6621,178.04 25.1574,175.774 25.9525,172.265 26.2552,171.062 26.6869,169.577 26.9783,168.735 27.5213,167.396 28.1159,166.081 28.925,164.441 29.4303,163.507 30.0947,162.396 30.5344,161.735 31.1257,160.936 32.4778,159.205 33.963,157.321 34.6956,156.374 35.8709,154.814 35.9821,154.659 36.0777,154.523 36.1556,154.425 36.9202,153.578 37.6099,152.872 38.2715,152.269 39.2311,151.482 39.6648,151.168 40.1699,150.852 42.3546,149.586 42.49,149.51 44.3173,148.517 44.4349,148.455 46.2821,147.521 46.4002,147.462 48.4595,146.439 48.6285,146.362 49.8094,145.882 50.9246,145.455 52.24,144.989 53.283,144.646 54.6737,144.217 54.7705,144.192 55.4436,144.054 56.0318,143.946 57.8937,143.632 58.1081,143.604 60.6017,143.376 63.1917,143.157 65.0858,143.017 66.8812,142.911 68.2766,142.857 69.8727,142.828 72.8713,142.807 75.1701,142.793 76.769,142.775 78.9679,142.731 81.9662,142.654 84.065,142.593 89.3618,142.436 92.1596,142.358 94.7581,142.292 96.757,142.243 100.855,142.134 102.353,142.082 103.25,142.036 104.142,141.973 107.635,141.702 108.93,141.612 113.919,141.318 116.915,141.158 120.81,140.974 122.908,140.89 124.606,140.84 129.903,140.722 132.603,140.669 136.601,140.596 138.901,140.553 140.834,140.515 142.3,140.488 144.399,140.455 150.599,140.379 157.298,140.321 158.996,140.325 160.9,140.363 163.491,140.448 168.786,140.653 171.882,140.78 172.896,140.823 172.996,140.826 173.887,140.839 174.885,140.843 176.083,140.832 179.981,140.776 180.978,140.774 183.675,140.814 187.173,140.895 190.771,141 193.869,141.104 195.012,141.147 195.111,141.153 198.578,141.447 198.771,141.462 203.889,141.816 204.979,141.905 205.911,142.001 206.18,142.037 207.089,142.179 210.563,142.74 210.813,142.781 210.845,142.785 211.009,142.804 213.287,143.03 215.873,143.279 219.155,143.591 219.723,143.648 219.849,143.663 219.936,143.674 221.158,143.837 223.139,144.102 225.922,144.489 226.139,144.535 226.786,144.728 226.909,144.766 226.929,144.77 227.032,144.781 228.588,144.891 230.483,145.016 234.275,145.257 237.634,145.479 237.801,145.499 237.875,145.518 238.042,145.572 238.132,145.593 240.29,145.895 242.861,146.245 243.115,146.28 243.235,146.299 243.872,146.4 245.942,146.734 248.111,147.093 249.189,147.284 250.609,147.552 250.826,147.594 251.419,147.714 253.67,148.172 255.134,148.479 255.597,148.582 255.755,148.62 255.844,148.641 259.285,149.435 259.454,149.476 260.739,149.813 261.409,150.005 262.354,150.31 263.502,150.704 263.612,150.744 263.639,150.755 263.771,150.811 265.008,151.329 265.149,151.384 266.226,151.771 268.576,152.609 268.737,152.669 270.849,153.518 272.787,154.314 273.502,154.624 273.733,154.741 274.774,155.334 275.239,155.609 275.372,155.696 276.212,156.283 277.122,156.933 277.231,157.018 277.735,157.446 277.805,157.505 278.487,158.066 279.7,159.068 280.62,159.838 281.762,160.808 282.81,161.706 282.981,161.853 284.277,162.955 285.427,163.916 286.667,164.924 287.374,165.478 288.093,166.018 289.3,166.908 290.586,167.859 291.059,168.225 291.674,168.733 293.492,170.298 294.615,171.29 295.35,171.965 297.093,173.613 299.041,175.481 300.259,176.665 300.753,177.158 301.427,177.845 " fill="none" stroke-width="1" stroke="rgb(232,26,75)" />
	<polyline points="134.025,243.867 134.052,243.797 134.095,243.687 134.188,243.46 134.297,243.216 134.385,243.056 134.728,242.552 135.583,241.432 135.902,241.093 136.282,240.798 137.039,240.326 138.551,239.458 139.303,239.031 139.42,238.961 140.385,238.344 140.538,238.255 142.098,237.431 142.809,237.073 143.53,236.732 144.948,236.086 146.301,235.47 146.423,235.411 146.575,235.334 146.663,235.294 148.755,234.465 150.226,233.89 150.439,233.81 153.067,232.87 154.857,232.234 158.721,230.864 160.889,230.098 162.021,229.701 164.324,228.898 164.459,228.853 165.189,228.62 166.798,228.117 168.201,227.685 168.318,227.652 169.997,227.221 172.199,226.656 173.965,226.194 175.992,225.647 177.144,225.318 178.192,225.002 178.323,224.958 178.604,224.859 178.702,224.833 179.467,224.695 181.733,224.314 183.015,224.101 184.892,223.788 185.203,223.733 185.358,223.702 186.596,223.45 187.281,223.317 188.264,223.139 190.034,222.824 191.073,222.633 191.246,222.594 191.823,222.439 191.92,222.418 193.161,222.206 195.131,221.875 196.134,221.701 196.292,221.668 197.778,221.3 197.876,221.28 198.738,221.134 201.067,220.754 201.248,220.728 203.081,220.494 204.668,220.3 207.762,219.934 210.079,219.664 210.282,219.64 211.425,219.502 213.904,219.205 215.988,218.955 216.781,218.854 219.73,218.466 219.865,218.448 219.958,218.437 221.228,218.292 223.512,218.033 224.681,217.897 224.848,217.873 225.793,217.712 226.974,217.501 228.545,217.205 229.321,217.045 229.483,217 229.675,216.927 230.165,216.729 230.346,216.67 231.275,216.447 233.518,215.953 235.865,215.456 237.431,215.13 239.142,214.777 239.28,214.749 242.173,214.19 245.072,213.625 245.199,213.594 245.779,213.423 245.935,213.378 247.209,213.029 248.056,212.794 248.214,212.749 248.255,212.737 248.37,212.702 248.913,212.551 250.085,212.242 252.105,211.732 253.548,211.379 253.761,211.332 254.423,211.203 256.582,210.793 258.838,210.358 259.662,210.194 259.754,210.173 259.766,210.169 259.875,210.122 260.466,209.866 261.464,209.436 261.649,209.356 262.178,209.128 262.406,209.037 265.358,207.954 266.86,207.404 271.828,205.564 273.128,205.058 274.97,204.288 276.064,203.8 276.793,203.448 277.939,202.86 279.884,201.833 282.618,200.372 284.454,199.38 285.866,198.603 286.382,198.304 287.319,197.728 289.139,196.577 289.308,196.463 289.892,196.045 " fill="none" stroke-width="1" stroke="rgb(232,26,75)" />
</svg>
