<?xml version="1.0" encoding="utf-8" ?>
<svg baseProfile="full" height="135" version="1.1" viewBox="0,0,190,135" width="190" xmlns="http://www.w3.org/2000/svg" xmlns:ev="http://www.w3.org/2001/xml-events" xmlns:xlink="http://www.w3.org/1999/xlink">
	<path d="M 50.436852 130.795650 L 49.942170 130.726249 L 49.447489 130.656847 L 48.952808 130.587446 L 48.458168 130.517785 L 47.966714 130.428346 L 47.475260 130.338907 L 46.983806 130.249467 L 46.492421 130.159674 L 46.003104 130.059199 L 45.513787 129.958724 L 45.024470 129.858249 L 44.535302 129.757103 L 44.049231 129.641944 L 43.563160 129.526785 L 43.077089 129.411626 L 42.591197 129.295756 L 42.108242 129.168160 L 41.625287 129.040564 L 41.142332 128.912969 L 40.659701 128.784226 L 40.181460 128.639964 L 39.703218 128.495701 L 39.224977 128.351439 L 38.747088 128.206069 L 38.273311 128.047762 L 37.799533 127.889454 L 37.325756 127.731147 L 36.852381 127.571686 L 36.383000 127.400784 L 35.913618 127.229881 L 35.444237 127.058979 L 34.975470 126.886472 L 34.511882 126.700429 L 34.048293 126.514385 L 33.584705 126.328342 L 33.121888 126.140466 L 32.664801 125.938978 L 32.207714 125.737489 L 31.750627 125.536000 L 31.294525 125.332381 L 30.845083 125.114372 L 30.395641 124.896364 L 29.946198 124.678355 L 29.497676 124.458518 L 29.054846 124.227374 L 28.612016 123.996230 L 28.169185 123.765085 L 27.727109 123.532531 L 27.289040 123.292486 L 26.850970 123.052441 L 26.412901 122.812396 L 25.975460 122.571225 L 25.541225 122.324313 L 25.106990 122.077400 L 24.672754 121.830487 L 24.238698 121.583260 L 23.805524 121.334491 L 23.372349 121.085723 L 22.939174 120.836954 L 22.506765 120.586879 L 22.077989 120.330602 L 21.649213 120.074326 L 21.220437 119.818050 L 20.793267 119.559186 L 20.373279 119.288749 L 19.953290 119.018312 L 19.533302 118.747875 L 19.114637 118.475437 L 18.701221 118.195055 L 18.287805 117.914674 L 17.874390 117.634292 L 17.464000 117.349662 L 17.063884 117.050608 L 16.663767 116.751555 L 16.263650 116.452502 L 15.865461 116.150931 L 15.472523 115.842506 L 15.079585 115.534081 L 14.686647 115.225656 L 14.297377 114.912769 L 13.918699 114.586994 L 13.540021 114.261219 L 13.161344 113.935443 L 12.785988 113.605961 L 12.420798 113.265135 L 12.055608 112.924309 L 11.690418 112.583483 L 11.328724 112.239057 L 10.977479 111.883877 L 10.626234 111.528696 L 10.274989 111.173515 L 9.927400 110.814873 L 9.591819 110.444857 L 9.256237 110.074841 L 8.920656 109.704826 L 8.588355 109.331956 L 8.268148 108.948558 L 7.947940 108.565160 L 7.627733 108.181763 L 7.313413 107.793849 L 7.026012 107.385282 L 6.738610 106.976716 L 6.451208 106.568149 L 6.167583 106.157110 L 5.908077 105.730281 L 5.648572 105.303452 L 5.389066 104.876623 L 5.133403 104.447694 L 4.914353 103.998758 L 4.695303 103.549823 L 4.476252 103.100887 L 4.257653 102.651735 L 4.044351 102.200039 L 3.831050 101.748344 L 3.617749 101.296648 L 3.404853 100.844769 L 3.206300 100.386399 L 3.007746 99.928030 L 2.809192 99.469660 L 2.610639 99.011290 L 2.442077 98.541091 L 2.274270 98.070595 L 2.106463 97.600098 L 1.938656 97.129601 L 1.805278 96.648305 L 1.674285 96.166260 L 1.543292 95.684215 L 1.412300 95.202170 L 1.318871 94.711687 L 1.231110 94.219931 L 1.143350 93.728174 L 1.055589 93.236418 L 0.996266 92.740639 L 0.944183 92.243835 L 0.892100 91.747032 L 0.840018 91.250228 L 0.793707 90.752866 L 0.749451 90.255304 L 0.705195 89.757742 L 0.660939 89.260180 L 0.623129 88.762103 L 0.587673 88.263837 L 0.552217 87.765570 L 0.519529 87.267187 L 0.512560 86.767709 L 0.505591 86.268232 L 0.498622 85.768754 L 0.492063 85.269278 L 0.502519 84.769862 L 0.512976 84.270445 L 0.523432 83.771028 L 0.533888 83.271612 L 0.560974 82.772836 L 0.588960 82.274094 L 0.616947 81.775353 L 0.644933 81.276611 L 0.683166 80.778565 L 0.722844 80.280618 L 0.762522 79.782670 L 0.802199 79.284722 L 0.851217 78.787627 L 0.902422 78.290733 L 0.953627 77.793838 L 1.004832 77.296943 L 1.070567 76.801836 L 1.141335 76.307349 L 1.212103 75.812861 L 1.282870 75.318373 L 1.362506 74.825273 L 1.446248 74.332817 L 1.529990 73.840360 L 1.613732 73.347903 L 1.709731 72.857785 L 1.813144 72.369080 L 1.916556 71.880375 L 2.019968 71.391671 L 2.135352 70.905769 L 2.259659 70.421957 L 2.383967 69.938146 L 2.508274 69.454334 L 2.643151 68.973437 L 2.784467 68.494317 L 2.925783 68.015197 L 3.067100 67.536077 L 3.224951 67.062372 L 3.394436 66.592478 L 3.563921 66.122583 L 3.733406 65.652688 L 3.915283 65.187599 L 4.106906 64.726288 L 4.298528 64.264978 L 4.490150 63.803668 L 4.692331 63.347008 L 4.903319 62.894227 L 5.114307 62.441447 L 5.325295 61.988666 L 5.545175 61.540241 L 5.773606 61.096005 L 6.002037 60.651769 L 6.230468 60.207533 L 6.467808 59.768119 L 6.714821 59.333941 L 6.961833 58.899762 L 7.208846 58.465584 L 7.461821 58.034918 L 7.721891 57.608432 L 7.981960 57.181946 L 8.242029 56.755460 L 8.509138 56.333439 L 8.784110 55.916407 L 9.059083 55.499374 L 9.334056 55.082341 L 9.614091 54.668742 L 9.899873 54.259041 L 10.185656 53.849341 L 10.471438 53.439640 L 10.760057 53.031949 L 11.051885 52.626532 L 11.343713 52.221116 L 11.635541 51.815699 L 11.931045 51.412983 L 12.230646 51.013276 L 12.530247 50.613569 L 12.829848 50.213862 L 13.130205 49.814724 L 13.431363 49.416189 L 13.732520 49.017653 L 14.033677 48.619117 L 14.336092 48.221538 L 14.639763 47.824916 L 14.943435 47.428293 L 15.247107 47.031670 L 15.551233 46.635395 L 15.855780 46.239444 L 16.160328 45.843493 L 16.464876 45.447543 L 16.768783 45.051101 L 17.072192 44.654277 L 17.375602 44.257454 L 17.679012 43.860630 L 17.981910 43.463417 L 18.284450 43.065930 L 18.586991 42.668444 L 18.889531 42.270957 L 19.193353 41.874451 L 19.497951 41.478539 L 19.802548 41.082626 L 20.107146 40.686714 L 20.413421 40.292101 L 20.720573 39.898167 L 21.027724 39.504232 L 21.334876 39.110298 L 21.645629 38.719209 L 21.957726 38.329181 L 22.269823 37.939152 L 22.581919 37.549124 L 22.899584 37.163635 L 23.218676 36.779308 L 23.537767 36.394982 L 23.856858 36.010655 L 24.179805 35.629568 L 24.503413 35.249036 L 24.827021 34.868505 L 25.150628 34.487973 L 25.482901 34.114996 L 25.815789 33.742556 L 26.148677 33.370115 L 26.481564 32.997674 L 26.821175 32.631354 L 27.160857 32.265100 L 27.500539 31.898846 L 27.840811 31.533154 L 28.191014 31.176946 L 28.541217 30.820738 L 28.891420 30.464530 L 29.242341 30.109040 L 29.598530 29.758818 L 29.954718 29.408595 L 30.310907 29.058372 L 30.668497 28.709605 L 31.032104 28.367091 L 31.395712 28.024577 L 31.759319 27.682063 L 32.125885 27.342797 L 32.500821 27.012722 L 32.875757 26.682648 L 33.250693 26.352573 L 33.627972 26.025217 L 34.009682 25.702999 L 34.391391 25.380782 L 34.773101 25.058564 L 35.157526 24.739630 L 35.545635 24.425150 L 35.933743 24.110669 L 36.321852 23.796189 L 36.713735 23.486484 L 37.109388 23.181549 L 37.505041 22.876615 L 37.900693 22.571680 L 38.300393 22.272125 L 38.703034 21.976479 L 39.105675 21.680833 L 39.508316 21.385187 L 39.916125 21.096778 L 40.326446 20.811886 L 40.736767 20.526995 L 41.147087 20.242103 L 41.562660 19.964982 L 41.979967 19.690424 L 42.397273 19.415867 L 42.814580 19.141310 L 43.237550 18.875603 L 43.661668 18.611690 L 44.085786 18.347777 L 44.509904 18.083864 L 44.939750 17.829411 L 45.370194 17.575947 L 45.800638 17.322482 L 46.231082 17.069018 L 46.666640 16.824448 L 47.102265 16.579996 L 47.537891 16.335545 L 47.973776 16.091566 L 48.413734 15.855000 L 48.853692 15.618434 L 49.293650 15.381868 L 49.734346 15.146717 L 50.179970 14.921007 L 50.625595 14.695297 L 51.071219 14.469586 L 51.517444 14.245069 L 51.964495 14.022200 L 52.411547 13.799330 L 52.858599 13.576460 L 53.309629 13.361957 L 53.764695 13.155946 L 54.219762 12.949935 L 54.674829 12.743924 L 55.133536 12.546309 L 55.594955 12.354949 L 56.056375 12.163590 L 56.517794 11.972230 L 56.982808 11.789931 L 57.449928 11.612942 L 57.917048 11.435952 L 58.384168 11.258963 L 58.854801 11.091686 L 59.327052 10.928883 L 59.799304 10.766080 L 60.271555 10.603277 L 60.747205 10.450820 L 61.224003 10.301855 L 61.700800 10.152889 L 62.177597 10.003924 L 62.657344 9.864845 L 63.137824 9.728224 L 63.618304 9.591604 L 64.098784 9.454983 L 64.581794 9.327654 L 65.065211 9.201818 L 65.548627 9.075981 L 66.032044 8.950145 L 66.517889 8.834088 L 67.004003 8.719113 L 67.490118 8.604138 L 67.976232 8.489162 L 68.464270 8.382679 L 68.952453 8.276829 L 69.440636 8.170980 L 69.928818 8.065130 L 70.420171 7.975195 L 70.911644 7.885862 L 71.403118 7.796529 L 71.894767 7.708240 L 72.388278 7.630948 L 72.881788 7.553655 L 73.375298 7.476363 L 73.868902 7.399697 L 74.363321 7.328448 L 74.857739 7.257200 L 75.352158 7.185951 L 75.846602 7.114880 L 76.341244 7.045199 L 76.835887 6.975517 L 77.330529 6.905836 L 77.825378 6.837690 L 78.320818 6.773929 L 78.816258 6.710167 L 79.311698 6.646406 L 79.807271 6.583706 L 80.303034 6.522500 L 80.798796 6.461293 L 81.294558 6.400087 L 81.790524 6.340582 L 82.286704 6.282864 L 82.782885 6.225147 L 83.279065 6.167429 L 83.775397 6.111048 L 84.271877 6.055963 L 84.768356 6.000879 L 85.264836 5.945794 L 85.761494 5.892361 L 86.258291 5.840221 L 86.755089 5.788080 L 87.251886 5.735940 L 87.748828 5.685207 L 88.245864 5.635389 L 88.742899 5.585571 L 89.239935 5.535753 L 89.737132 5.487586 L 90.234429 5.440449 L 90.731726 5.393311 L 91.229023 5.346174 L 91.726633 5.302506 L 92.224340 5.259923 L 92.722048 5.217339 L 93.219756 5.174755 L 93.717636 5.134256 L 94.215566 5.094358 L 94.713496 5.054459 L 95.211427 5.014561 L 95.709601 4.977875 L 96.207841 4.942048 L 96.706080 4.906222 L 97.204320 4.870395 L 97.702787 4.837926 L 98.201300 4.806126 L 98.699813 4.774326 L 99.198326 4.742526 L 99.697015 4.713655 L 100.195738 4.685334 L 100.694460 4.657013 L 101.193183 4.628693 L 101.692056 4.603164 L 102.190943 4.577918 L 102.689831 4.552673 L 103.188719 4.527427 L 103.687697 4.504047 L 104.186684 4.480847 L 104.685671 4.457646 L 105.184658 4.434445 L 105.683729 4.413124 L 106.182806 4.391954 L 106.681883 4.370785 L 107.180960 4.349615 L 107.680115 4.330350 L 108.179273 4.311197 L 108.678432 4.292044 L 109.177591 4.272890 L 109.676815 4.255534 L 110.176042 4.238241 L 110.675268 4.220948 L 111.174495 4.203655 L 111.673747 4.187106 L 112.172999 4.170576 L 112.672252 4.154046 L 113.171504 4.137516 L 113.670853 4.124194 L 114.170201 4.110877 L 114.669550 4.097559 L 115.168903 4.084439 L 115.668332 4.074595 L 116.167761 4.064750 L 116.667190 4.054905 L 117.166630 4.045745 L 117.666127 4.040395 L 118.165624 4.035046 L 118.665122 4.029696 L 119.164636 4.027899 L 119.664162 4.028474 L 120.163688 4.029048 L 120.663214 4.029623 L 121.162709 4.034741 L 121.662196 4.040913 L 122.161684 4.047086 L 122.661171 4.053344 L 123.160571 4.064554 L 123.659971 4.075765 L 124.159372 4.086976 L 124.658759 4.098663 L 125.158052 4.113944 L 125.657344 4.129225 L 126.156636 4.144506 L 126.655920 4.160056 L 127.155171 4.176615 L 127.654423 4.193175 L 128.153674 4.209734 L 128.652883 4.227469 L 129.152001 4.247646 L 129.651119 4.267824 L 130.150238 4.288002 L 130.649280 4.309890 L 131.148219 4.334097 L 131.647158 4.358304 L 132.146098 4.382512 L 132.645056 4.406307 L 133.144040 4.429592 L 133.643023 4.452876 L 134.142006 4.476160 L 134.640987 4.499478 L 135.139967 4.522834 L 135.638947 4.546189 L 136.137927 4.569545 L 136.636938 4.592211 L 137.135979 4.614205 L 137.635021 4.636199 L 138.134063 4.658194 L 138.633196 4.677873 L 139.132406 4.695664 L 139.631615 4.713455 L 140.130824 4.731246 L 140.630058 4.748304 L 141.129308 4.764917 L 141.628558 4.781529 L 142.127808 4.798142 L 142.626759 4.821560 L 143.125549 4.848664 L 143.624340 4.875769 L 144.123130 4.902874 L 144.621364 4.938358 L 145.119359 4.977427 L 145.617355 5.016496 L 146.115351 5.055565 L 146.612785 5.101063 L 147.110010 5.148954 L 147.607236 5.196845 L 148.104461 5.244737 L 148.599979 5.307471 L 149.095095 5.373700 L 149.590211 5.439929 L 150.085327 5.506159 L 150.578400 5.585985 L 151.071115 5.668193 L 151.563830 5.750401 L 152.056545 5.832609 L 152.546501 5.929818 L 153.036215 6.028340 L 153.525928 6.126862 L 154.015642 6.225384 L 154.502273 6.338099 L 154.988719 6.451660 L 155.475166 6.565220 L 155.961613 6.678780 L 156.443943 6.808702 L 156.926221 6.938835 L 157.408498 7.068968 L 157.890764 7.199143 L 158.368820 7.344019 L 158.846876 7.488894 L 159.324932 7.633769 L 159.802881 7.778973 L 160.275213 7.941545 L 160.747544 8.104116 L 161.219875 8.266687 L 161.692054 8.429682 L 162.159903 8.604736 L 162.627752 8.779790 L 163.095600 8.954844 L 163.559466 9.139137 L 164.007923 9.359166 L 164.456380 9.579194 L 164.894524 9.817039 L 165.308687 10.096316 L 165.722849 10.375594 L 166.137011 10.654872 L 166.549486 10.936601 L 166.958344 11.223587 L 167.367203 11.510573 L 167.776062 11.797559 L 168.178627 12.092925 L 168.568214 12.405572 L 168.957802 12.718218 L 169.347390 13.030865 L 169.736385 13.344244 L 170.123949 13.659396 L 170.511513 13.974547 L 170.899077 14.289698 L 171.282625 14.609561 L 171.655201 14.942298 L 172.027776 15.275036 L 172.400351 15.607773 L 172.765393 15.948191 L 173.105296 16.314241 L 173.445198 16.680291 L 173.785101 17.046341 L 174.121944 17.415136 L 174.449213 17.792523 L 174.776482 18.169911 L 175.103751 18.547298 L 175.428403 18.926870 L 175.741168 19.316362 L 176.053932 19.705855 L 176.366697 20.095348 L 176.671242 20.490563 L 176.927960 20.919075 L 177.184677 21.347587 L 177.441395 21.776098 L 177.698153 22.204586 L 177.955361 22.632804 L 178.212569 23.061021 L 178.469777 23.489239 L 178.722384 23.919957 L 178.941812 24.368708 L 179.161240 24.817459 L 179.380668 25.266211 L 179.599032 25.715447 L 179.793725 26.175470 L 179.988418 26.635492 L 180.183112 27.095515 L 180.377805 27.555537 L 180.554333 28.022823 L 180.730482 28.490261 L 180.906631 28.957698 L 181.082780 29.425136 L 181.253384 29.894623 L 181.423523 30.364281 L 181.593662 30.833939 L 181.763800 31.303598 L 181.902828 31.783213 L 182.036982 32.264387 L 182.171137 32.745562 L 182.305291 33.226736 L 182.414173 33.714065 L 182.516253 34.203049 L 182.618334 34.692034 L 182.720414 35.181018 L 182.781224 35.676224 L 182.827829 36.173571 L 182.874434 36.670919 L 182.921039 37.168266 L 182.966016 37.665762 L 183.010341 38.163318 L 183.054666 38.660873 L 183.098992 39.158429 L 183.122586 39.657193 L 183.136374 40.156529 L 183.150162 40.655864 L 183.163951 41.155200 L 183.167859 41.654657 L 183.166306 42.154180 L 183.164754 42.653704 L 183.163201 43.153228 L 183.135344 43.651922 L 183.105408 44.150550 L 183.075471 44.649178 L 183.038351 45.147253 L 182.991598 45.644586 L 182.944845 46.141920 L 182.898092 46.639253 L 182.842120 47.135497 L 182.771655 47.630028 L 182.701189 48.124559 L 182.630723 48.619090 L 182.552028 49.112260 L 182.459576 49.603156 L 182.367124 50.094052 L 182.274672 50.584948 L 182.174860 51.074300 L 182.062228 51.560963 L 181.949596 52.047625 L 181.836964 52.534288 L 181.717791 53.019305 L 181.586804 53.501352 L 181.455818 53.983398 L 181.324832 54.465445 L 181.187867 54.945762 L 181.041245 55.423285 L 180.894623 55.900808 L 180.748002 56.378331 L 180.596906 56.854422 L 180.438982 57.328327 L 180.281058 57.802233 L 180.123134 58.276138 L 179.961912 58.748914 L 179.796195 59.220151 L 179.630479 59.691388 L 179.464762 60.162625 L 179.296507 60.632952 L 179.125052 61.102132 L 178.953596 61.571311 L 178.782141 62.040490 L 178.607025 62.508298 L 178.427898 62.974603 L 178.248771 63.440907 L 178.069644 63.907212 L 177.885131 64.371379 L 177.695883 64.833669 L 177.506636 65.295958 L 177.317388 65.758248 L 177.121668 66.217796 L 176.921339 66.675393 L 176.721011 67.132990 L 176.520682 67.590586 L 176.313644 68.045150 L 176.102510 68.497863 L 175.891377 68.950576 L 175.680243 69.403289 L 175.462170 69.852668 L 175.240753 70.300441 L 175.019336 70.748215 L 174.797919 71.195988 L 174.569025 71.639956 L 174.337389 72.082529 L 174.105752 72.525102 L 173.874115 72.967675 L 173.632989 73.405123 L 173.389949 73.841538 L 173.146910 74.277953 L 172.903870 74.714368 L 172.651790 75.145612 L 172.398848 75.576364 L 172.145907 76.007115 L 171.892277 76.437454 L 171.631530 76.863526 L 171.370783 77.289598 L 171.110036 77.715670 L 170.842717 78.137580 L 170.568965 78.555415 L 170.295213 78.973250 L 170.021461 79.391085 L 169.740525 79.804078 L 169.456007 80.214658 L 169.171488 80.625238 L 168.886970 81.035817 L 168.591163 81.438279 L 168.292486 81.838676 L 167.993808 82.239074 L 167.695131 82.639471 L 167.386308 83.032067 L 167.076024 83.423538 L 166.765740 83.815010 L 166.454862 84.205997 L 166.133438 84.588375 L 165.812013 84.970752 L 165.490589 85.353130 L 165.167598 85.734155 L 164.836382 86.108084 L 164.505167 86.482013 L 164.173951 86.855941 L 163.840360 87.227711 L 163.499643 87.593002 L 163.158925 87.958294 L 162.818208 88.323585 L 162.474326 88.685858 L 162.125534 89.043448 L 161.776741 89.401038 L 161.427949 89.758627 L 161.075369 90.112438 L 160.718638 90.462108 L 160.361907 90.811779 L 160.005176 91.161449 L 159.644007 91.506487 L 159.279399 91.847936 L 158.914791 92.189385 L 158.550183 92.530834 L 158.181894 92.868285 L 157.811623 93.203584 L 157.441351 93.538882 L 157.071079 93.874181 L 156.696070 94.204146 L 156.319430 94.532276 L 155.942791 94.860405 L 155.566152 95.188535 L 155.184825 95.511191 L 154.802651 95.832858 L 154.420478 96.154524 L 154.038304 96.476191 L 153.650050 96.790485 L 153.261463 97.104374 L 152.872877 97.418264 L 152.484084 97.731893 L 152.089103 98.037697 L 151.694121 98.343501 L 151.299140 98.649305 L 150.903293 98.953976 L 150.504680 99.255031 L 150.106067 99.556086 L 149.707454 99.857141 L 149.307168 100.155943 L 148.903715 100.450479 L 148.500261 100.745015 L 148.096807 101.039551 L 147.691145 101.331004 L 147.282553 101.618370 L 146.873961 101.905736 L 146.465369 102.193101 L 146.053485 102.475673 L 145.638542 102.753788 L 145.223598 103.031903 L 144.808654 103.310018 L 144.390231 103.582824 L 143.969610 103.852276 L 143.548989 104.121728 L 143.128369 104.391180 L 142.704364 104.655242 L 142.278900 104.916980 L 141.853436 105.178717 L 141.427972 105.440455 L 140.999879 105.697864 L 140.571445 105.954711 L 140.143011 106.211559 L 139.714577 106.468406 L 139.281342 106.717066 L 138.847978 106.965504 L 138.414613 107.213943 L 137.981061 107.462047 L 137.544184 107.704256 L 137.107307 107.946465 L 136.670431 108.188673 L 136.233109 108.430066 L 135.792798 108.665973 L 135.352487 108.901881 L 134.912175 109.137788 L 134.471264 109.372557 L 134.027868 109.602615 L 133.584472 109.832672 L 133.141077 110.062730 L 132.696911 110.291282 L 132.250698 110.515824 L 131.804484 110.740367 L 131.358270 110.964910 L 130.910700 111.186715 L 130.461685 111.405603 L 130.012670 111.624491 L 129.563655 111.843378 L 129.112897 112.058627 L 128.660935 112.271363 L 128.208972 112.484099 L 127.757010 112.696834 L 127.303786 112.906858 L 126.849917 113.115494 L 126.396048 113.324129 L 125.942178 113.532765 L 125.486827 113.738135 L 125.030939 113.942322 L 124.575050 114.146509 L 124.119162 114.350696 L 123.661692 114.551304 L 123.203837 114.751040 L 122.745981 114.950776 L 122.288125 115.150512 L 121.828601 115.346373 L 121.368862 115.541736 L 120.909124 115.737099 L 120.449336 115.932346 L 119.988205 116.124399 L 119.527074 116.316453 L 119.065943 116.508506 L 118.604646 116.700156 L 118.142366 116.889426 L 117.680085 117.078697 L 117.217805 117.267967 L 116.755280 117.456635 L 116.291834 117.643032 L 115.828388 117.829429 L 115.364942 118.015826 L 114.901202 118.201487 L 114.436677 118.385180 L 113.972152 118.568873 L 113.507628 118.752566 L 113.042820 118.935539 L 112.577470 119.117132 L 112.112121 119.298725 L 111.646771 119.480318 L 111.180967 119.660737 L 110.714654 119.839842 L 110.248341 120.018947 L 109.782029 120.198052 L 109.315223 120.375864 L 108.848011 120.552612 L 108.380800 120.729361 L 107.913589 120.906109 L 107.445639 121.080883 L 106.977258 121.254510 L 106.508878 121.428137 L 106.040498 121.601764 L 105.571221 121.772944 L 105.101567 121.943096 L 104.631913 122.113247 L 104.162260 122.283399 L 103.691680 122.450968 L 103.220833 122.617788 L 102.749985 122.784608 L 102.279138 122.951428 L 101.806709 123.113706 L 101.334046 123.275308 L 100.861382 123.436910 L 100.388701 123.598460 L 99.914010 123.754007 L 99.439319 123.909554 L 98.964628 124.065101 L 98.489825 124.220302 L 98.013859 124.371901 L 97.537892 124.523500 L 97.061926 124.675099 L 96.585715 124.825916 L 96.108252 124.972736 L 95.630790 125.119555 L 95.153328 125.266375 L 94.675437 125.411766 L 94.196038 125.552133 L 93.716639 125.692500 L 93.237240 125.832868 L 92.757215 125.971031 L 92.275588 126.103550 L 91.793960 126.236069 L 91.312333 126.368587 L 90.830113 126.498894 L 90.346673 126.624640 L 89.863233 126.750387 L 89.379793 126.876133 L 88.895915 127.000159 L 88.411332 127.121427 L 87.926749 127.242695 L 87.442166 127.363963 L 86.957780 127.486008 L 86.473662 127.609119 L 85.989544 127.732230 L 85.505426 127.855341 L 85.021456 127.979029 L 84.537658 128.103391 L 84.053860 128.227752 L 83.570062 128.352114 L 83.085402 128.473021 L 82.599895 128.590532 L 82.114387 128.708043 L 81.628880 128.825553 L 81.143530 128.943713 L 80.658309 129.062400 L 80.173088 129.181086 L 79.687866 129.299773 L 79.202000 129.415769 L 78.715711 129.530003 L 78.229422 129.644237 L 77.743133 129.758471 L 77.255146 129.865055 L 76.766200 129.967322 L 76.277255 130.069589 L 75.788309 130.171857 L 75.298289 130.268770 L 74.807750 130.363098 L 74.317211 130.457426 L 73.826672 130.551754 L 73.333346 130.629423 L 72.838815 130.699882 L 72.344283 130.770342 L 71.849751 130.840801 L 71.354298 130.904297 L 70.858454 130.964837 L 70.362610 131.025378 L 69.866766 131.085919 L 69.369679 131.134622 L 68.872080 131.178460 L 68.374481 131.222298 L 67.876882 131.266136 L 67.378446 131.298241 L 66.879665 131.325505 L 66.380883 131.352768 L 65.882102 131.380031 L 65.383375 131.408265 L 64.884672 131.436934 L 64.385969 131.465603 L 63.887267 131.494272 L 63.388059 131.509634 L 62.888618 131.518832 L 62.389176 131.528031 L 61.889735 131.537230 L 61.390241 131.541958 L 60.890721 131.544443 L 60.391202 131.546928 L 59.891682 131.549413 L 59.392311 131.540292 L 58.893019 131.524984 L 58.393728 131.509676 L 57.894436 131.494369 L 57.395547 131.470074 L 56.896880 131.440782 L 56.398214 131.411489 L 55.899547 131.382196 L 55.401664 131.342517 L 54.904243 131.296702 L 54.406823 131.250888 L 53.909402 131.205073 L 53.412727 131.152078 L 52.916515 131.094636 L 52.420303 131.037194 L 51.924439 130.976812 L 51.428577 130.916425 L 50.436852 130.795650" fill="none" stroke="black" stroke-width="1.000000" />
	<path d="M 155.817434 100.826344 L 156.158746 101.183150 L 156.500058 101.539956 L 156.841370 101.896762 L 157.182682 102.253567 L 157.532892 102.601644 L 157.883116 102.949706 L 158.233341 103.297768 L 158.583565 103.645830 L 158.937713 103.989899 L 159.291879 104.333950 L 159.646045 104.678001 L 160.000210 105.022052 L 160.357495 105.362862 L 160.714798 105.703654 L 161.072102 106.044445 L 161.429405 106.385236 L 161.789410 106.723172 L 162.149428 107.061094 L 162.509447 107.399016 L 162.869465 107.736938 L 163.231981 108.072178 L 163.594513 108.407402 L 163.957045 108.742626 L 164.319576 109.077850 L 164.684480 109.410491 L 165.049401 109.743112 L 165.414323 110.075733 L 165.779245 110.408353 L 166.146536 110.738356 L 166.513827 111.068358 L 166.881117 111.398361 L 167.248413 111.728359 L 167.617818 112.055993 L 167.987223 112.383627 L 168.356629 112.711261 L 168.726036 113.038894 L 169.097520 113.364168 L 169.469005 113.689442 L 169.840490 114.014716 L 170.211975 114.339991 L 170.585398 114.663038 L 170.958824 114.986083 L 171.332249 115.309127 L 171.705675 115.632172 L 172.080941 115.953076 L 172.456212 116.273975 L 172.831483 116.594874 L 173.206753 116.915773 L 173.583700 117.234703 L 173.960648 117.553630 L 174.337596 117.872557 L 174.714550 118.191477 L 175.093051 118.508559 L 175.471552 118.825642 L 175.850053 119.142725 L 176.228558 119.459802 L 176.608378 119.775304 L 176.988197 120.090807 L 177.368016 120.406309 L 177.747836 120.721810 L 178.128372 121.036448 L 178.508908 121.351085 L 178.889444 121.665723 L 179.269980 121.980361 L 179.650374 122.295170 L 180.030768 122.609979 L 180.411162 122.924788 L 180.791556 123.239597 L 181.171109 123.555420 L 181.550659 123.871246 L 181.930209 124.187072 L 182.309758 124.502899" fill="none" stroke="black" stroke-width="1.000000" />
	<path d="M 149.780443 103.769071 L 150.128890 104.120933 L 150.477336 104.472795 L 150.825783 104.824657 L 151.174241 105.176507 L 151.522950 105.528109 L 151.871660 105.879710 L 152.220369 106.231312 L 152.569121 106.582871 L 152.918233 106.934073 L 153.267344 107.285275 L 153.616456 107.636477 L 153.965726 107.987521 L 154.315940 108.337624 L 154.666153 108.687728 L 155.016367 109.037831 L 155.366853 109.387661 L 155.718597 109.736226 L 156.070341 110.084791 L 156.422085 110.433357 L 156.774058 110.781692 L 157.126812 111.129235 L 157.479566 111.476778 L 157.832321 111.824321 L 158.185345 112.171589 L 158.539104 112.518109 L 158.892863 112.864630 L 159.246623 113.211150 L 159.600634 113.557412 L 159.955213 113.903093 L 160.309792 114.248774 L 160.664371 114.594456 L 161.019275 114.939803 L 161.374801 115.284510 L 161.730327 115.629218 L 162.085853 115.973925 L 162.441835 116.318161 L 162.798547 116.661640 L 163.155260 117.005119 L 163.511972 117.348599 L 163.869241 117.691498 L 164.227261 118.033614 L 164.585282 118.375729 L 164.943303 118.717845 L 165.302053 119.059193 L 165.661633 119.399670 L 166.021212 119.740147 L 166.380791 120.080624 L 166.741251 120.420167 L 167.102548 120.758820 L 167.463845 121.097474 L 167.825142 121.436127 L 168.187492 121.773651 L 168.550668 122.110289 L 168.913844 122.446927 L 169.277020 122.783565 L 169.641360 123.118940 L 170.006448 123.453504 L 170.371535 123.788068 L 170.736622 124.122632 L 171.102782 124.456019 L 171.469509 124.788785 L 171.836236 125.121552 L 172.202963 125.454318 L 172.571368 125.785221 L 172.940391 126.115439 L 173.309414 126.445657 L 173.678438 126.775874 L 174.049368 127.103945 L 174.420810 127.431439 L 174.792252 127.758934 L 175.163694 128.086428 L 175.535063 128.414006 L 175.906419 128.741598 L 176.277775 129.069190 L 176.649131 129.396782 L 177.021429 129.723302 L 177.393837 130.049698 L 177.766245 130.376094 L 178.138652 130.702491 L 178.514729 131.024650 L 178.891006 131.346577 L 179.643561 131.990432" fill="none" stroke="black" stroke-width="1.000000" />
</svg>