<?xml version="1.0" standalone="no" ?>
<!DOCTYPE svg PUBLIC "-//W3C//DTD SVG 1.1//EN" "http://www.w3.org/Graphics/SVG/1.1/DTD/svg11.dtd">
<svg width="500px" height="280px" xmlns="http://www.w3.org/2000/svg" version="1.1" >
	<image style="overflow: visible; opacity: 0.4" width="500" height="280" href="C:\Users\bmpix\Documents\mit\projects\vectorization\polyvector_thing\cpp\polyvector_thing\x64\Release\binary_to_share\fish_0500_input.png" transform="matrix(1 0 -0.5 0 1 0 )" />
	<polyline points="327.296,70.5234 326.827,70.7721 326.24,71.0717 326.106,71.1277 324.479,71.7002 323.838,71.9571 323.129,72.3127 320.212,73.9885 317.826,75.4401 316.492,76.3134 315.683,76.8948 314.661,77.6933 313.66,78.5191 312.673,79.3636 311.769,80.1524 " fill="none" stroke-width="1" stroke="rgb(232,26,75)" />
	<polyline points="325.94,68.9894 324.466,70.0753 323.791,70.5552 322.798,71.2249 320.043,73.0405 318.294,74.2 317.538,74.7211 316.014,75.8278 314.82,76.7369 313.66,77.6665 312.357,78.7543 311.141,79.7921 " fill="none" stroke-width="1" stroke="rgb(232,26,75)" />
	<polyline points="8.01226,160.326 8.04581,160.296 8.13139,160.239 8.35111,160.142 8.62986,160.079 10.6808,159.888 11.4696,159.854 12.0619,159.871 13.0573,159.942 13.9532,160.011 14.4497,160.037 15.644,160.056 16.1349,160.037 16.9239,159.953 17.7091,159.826 19.9599,159.376 24.0944,158.485 25.3245,158.191 28.6104,157.326 29.7632,156.999 31.1947,156.555 32.3316,156.176 33.1757,155.869 34.3606,155.402 35.1613,155.061 35.9307,154.701 36.8197,154.25 37.1616,154.053 37.4859,153.828 38.19,153.276 38.5611,152.952 38.8357,152.672 39.1568,152.295 39.5571,151.784 39.9035,151.323 " fill="none" stroke-width="1" stroke="rgb(232,26,75)" />
	<polyline points="49.3437,186.938 49.2875,186.86 49.2101,186.774 49.0816,186.666 47.5694,185.577 47.4714,185.51 45.6734,184.343 45.5132,184.24 44.6736,183.702 41.4887,181.661 41.3702,181.583 39.3306,180.206 38.5307,179.661 38.4168,179.58 35.5415,177.436 35.3597,177.299 34.6667,176.773 33.0721,175.562 30.5301,173.629 30.4744,173.586 30.4024,173.526 27.8651,171.386 25.8677,169.691 22.4989,166.82 22.321,166.668 19.0763,163.886 17.9316,162.919 16.9262,162.097 16.3735,161.67 15.9809,161.397 15.9072,161.366 15.5394,161.305 14.3508,161.158 13.8554,161.1 12.9632,160.994 11.7957,160.851 11.1812,160.774 10.5883,160.695 8.40198,160.388 8.07793,160.338 8.01226,160.326 " fill="none" stroke-width="1" stroke="rgb(232,26,75)" />
	<polyline points="107.065,112.064 107.078,112.095 107.145,112.272 108.131,115.03 108.785,116.918 109.379,118.722 109.791,120.059 110.37,122.074 111.105,124.773 111.298,125.567 111.994,128.773 112.44,130.925 112.69,132.2 112.868,133.183 113.27,135.549 113.522,137.128 113.659,138.117 113.855,139.803 114.076,142.09 114.241,144.28 114.356,146.573 114.395,148.467 114.369,150.561 114.281,152.453 114.092,154.839 113.825,157.32 113.538,159.405 113.252,161.064 112.925,162.625 112.611,163.881 112.005,166.026 111.77,166.753 111.486,167.496 110.288,170.352 109.393,172.398 108.369,174.637 108.101,175.17 107.755,175.774 107.014,176.958 106.242,178.123 105.215,179.595 104.912,179.987 104.518,180.433 103.618,181.366 102.344,182.634 101.623,183.326 100.6,184.281 99.3464,185.439 99.2345,185.542 97.9527,186.744 97.8425,186.857 96.8827,187.937 96.0523,188.918 95.7525,189.305 95.7035,189.383 95.6457,189.488 95.6106,189.533 95.51,189.613 94.5289,190.23 93.034,191.114 92.5482,191.367 91.639,191.771 91.0838,191.985 90.6128,192.135 90.1326,192.258 89.2556,192.454 88.5739,192.6 88.4602,192.626 87.3236,192.904 87.166,192.939 86.922,192.984 83.9105,193.511 82.472,193.791 82.3904,193.834 82.3517,193.91 82.0641,195.588 82.0572,195.597 81.9448,195.63 80.0474,196.048 79.8259,196.083 78.0392,196.238 77.3454,196.275 76.7504,196.27 75.9561,196.216 73.1756,195.925 71.1011,195.665 69.3371,195.413 69.1638,195.384 69.1525,195.382 69.0212,195.348 67.2678,194.893 65.2752,194.376 65.2027,194.355 65.0712,194.309 63.2632,193.645 63.1744,193.609 62.9463,193.506 62.0232,193.084 60.7945,192.523 60.6207,192.444 58.791,191.601 58.7134,191.562 58.6274,191.512 58.3197,191.329 58.1268,191.224 56.7432,190.535 56.6145,190.472 54.8838,189.652 52.6936,188.613 52.5227,188.529 50.6715,187.603 49.3437,186.938 " fill="none" stroke-width="1" stroke="rgb(232,26,75)" />
	<polyline points="114.173,203.569 113.109,203.342 110.96,202.873 109.109,202.451 106.972,201.935 105.715,201.609 104.755,201.333 103.134,200.827 101.523,200.291 100.869,200.05 99.2946,199.414 97.1755,198.524 96.075,198.048 95.0701,197.601 94.0663,197.152 93.0602,196.709 91.9312,196.227 90.2952,195.558 89.9233,195.425 89.6387,195.351 88.4656,195.129 88.1757,195.095 87.8833,195.093 86.0889,195.189 83.1951,195.373 82.1096,195.446 " fill="none" stroke-width="1" stroke="rgb(232,26,75)" />
	<polyline points="474.881,214.964 474.668,214.552 474.399,214.094 473.123,212.173 472.477,211.312 471.755,210.5 470.069,208.801 468.341,207.14 467.899,206.738 466.916,205.888 465.701,204.849 465.399,204.588 464.341,203.674 463.881,203.294 462.891,202.521 461.58,201.537 460.77,200.955 460.074,200.48 457.398,198.702 457.226,198.585 456.619,198.161 456.455,198.055 454.247,196.725 453.567,196.316 453.407,196.218 452.368,195.577 452.207,195.483 448.32,193.335 447.385,192.814 447.297,192.759 447.23,192.712 447.155,192.657 446.662,192.297 446.551,192.227 444.993,191.367 443.63,190.623 443.489,190.547 441.699,189.6 441.544,189.522 439.31,188.457 437.707,187.692 437.516,187.598 435.738,186.683 435.621,186.62 435.391,186.489 435.227,186.403 433.37,185.496 433.274,185.453 432.111,184.969 430.819,184.433 430.594,184.337 428.81,183.554 428.686,183.497 428.364,183.346 428.133,183.241 426.351,182.465 426.254,182.422 424.741,181.758 424.604,181.695 424.307,181.556 424.209,181.515 421.806,180.657 421.685,180.612 419.606,179.819 419.428,179.746 419.192,179.639 418.95,179.529 416.891,178.609 416.678,178.512 416.326,178.351 416.14,178.277 413.359,177.305 413.19,177.249 410.869,176.521 410.677,176.463 409.169,176.017 407.923,175.653 407.639,175.574 403.904,174.582 403.795,174.552 403.784,174.548 403.7,174.511 403.22,174.312 403.109,174.275 401.678,173.904 400.228,173.523 400.11,173.481 399.936,173.4 399.91,173.39 399.808,173.368 395.907,172.682 395.808,172.662 395.182,172.516 394.999,172.477 392.533,172.021 391.137,171.764 390.952,171.731 390.848,171.714 389.482,171.514 387.213,171.181 385.278,170.899 384.743,170.832 383.87,170.757 382.494,170.695 380.002,170.67 377.105,170.711 375.511,170.78 374.62,170.86 372.841,171.1 370.871,171.42 368.416,171.875 366.657,172.239 365.686,172.47 363.948,172.932 363.085,173.182 362.517,173.367 361.859,173.601 360.923,173.952 358.867,174.73 356.994,175.429 355.96,175.799 350.104,177.835 348.31,178.468 343.42,180.225 341.265,181.017 340.56,181.289 340.394,181.362 339.512,181.797 338.619,182.246 331.867,185.675 325.459,188.948 325.319,189.038 324.86,189.417 324.757,189.525 324.684,189.636 324.596,189.82 324.543,189.958 324.52,190.037 324.492,190.156 324.45,190.334 324.445,190.341 324.333,190.407 321.963,191.712 320.673,192.416 320.545,192.482 316.476,194.52 316.329,194.596 315.149,195.232 313.453,196.157 313.345,196.22 313.299,196.25 313.208,196.315 312.728,196.644 312.592,196.721 310.243,197.785 309.054,198.31 308.502,198.544 306.931,199.19 306.654,199.3 306.281,199.441 306.001,199.547 304.977,199.945 303.959,200.354 303.232,200.659 303.082,200.733 301.922,201.364 301.68,201.493 300.861,201.916 299.97,202.363 298.892,202.889 297.348,203.628 297.2,203.695 294.662,204.793 292.366,205.778 290.324,206.644 288.384,207.465 288.282,207.511 287.808,207.74 287.637,207.82 286.383,208.393 286.253,208.449 284.777,209.069 284.562,209.154 283.829,209.431 282.386,209.968 282.236,210.024 280.111,210.819 279.959,210.879 279.442,211.097 279.334,211.139 277.664,211.754 277.514,211.813 276.544,212.214 276.348,212.298 274.654,213.037 274.474,213.115 274.454,213.123 274.367,213.149 273.223,213.452 270.61,214.116 267.89,214.772 266.915,214.982 264.951,215.353 261.113,216.039 259.241,216.367 256.779,216.798 253.993,217.295 253.88,217.321 253.77,217.355 253.233,217.542 253.124,217.57 249,218.303 248.873,218.327 248.851,218.333 248.76,218.363 248.168,218.55 248.046,218.579 245.591,218.957 243.222,219.319 243.089,219.341 242.97,219.361 242.793,219.385 240.344,219.624 238.553,219.766 232.965,220.115 230.47,220.242 227.973,220.333 225.374,220.397 223.676,220.413 213.776,220.408 210.878,220.387 208.579,220.344 205.981,220.263 202.286,220.11 192.997,219.672 191.102,219.571 190.096,219.505 189.903,219.486 186.39,219.042 182.28,218.5 182.074,218.464 181.921,218.429 181.816,218.409 179.965,218.146 176.005,217.598 175.844,217.57 175.154,217.426 175.002,217.398 170.237,216.631 170.143,216.605 170.031,216.556 169.863,216.483 169.652,216.421 166.924,215.856 166.532,215.788 165.646,215.665 165.45,215.645 164.679,215.598 164.32,215.583 163.292,215.555 162.991,215.539 162.502,215.494 161.817,215.402 159.962,215.101 159.709,215.044 157.642,214.457 155.448,213.807 155.124,213.705 155.121,213.702 155.106,213.601 155.105,213.59 155.093,213.445 155.09,213.426 155.057,213.255 155.03,213.116 " fill="none" stroke-width="1" stroke="rgb(232,26,75)" />
	<polyline points="249.001,222.528 249.005,222.491 249.076,221.934 249.09,221.909 249.17,221.858 249.542,221.714 251.667,221.044 252.336,220.87 253.509,220.631 254.805,220.393 254.912,220.373 256.335,220.075 257.973,219.724 258.144,219.683 258.232,219.656 258.783,219.468 258.95,219.42 262.112,218.647 262.272,218.604 263.653,218.188 265.007,217.756 265.165,217.69 265.218,217.651 265.229,217.629 265.255,217.463 265.386,216.486 265.43,216.324 265.497,216.215 265.557,216.174 267.054,215.625 268.326,215.155 268.359,215.125 268.454,214.915 268.46,214.894 268.486,214.725 " fill="none" stroke-width="1" stroke="rgb(232,26,75)" />
	<polyline points="173.003,11.3479 173.025,11.4843 173.068,11.7282 173.072,11.7318 173.435,11.8081 175.629,12.2188 177.594,12.5582 178.187,12.6398 180.87,12.9189 181.862,12.9927 183.954,13.0775 185.889,13.1106 186.377,13.0897 188.226,12.8971 189.528,12.7157 190.054,12.6023 191.024,12.3125 191.931,11.9993 192.176,11.8982 192.881,11.5667 193.959,11.0467 195.037,10.5219 197.19,9.46571 198.472,8.82657 198.579,8.76748 198.657,8.71741 198.78,8.63273 199.983,7.77134 200.846,7.11191 202.189,6.00194 202.742,5.50801 202.958,5.29888 " fill="none" stroke-width="1" stroke="rgb(232,26,75)" />
	<polyline points="143.01,63.9874 143.054,63.7236 143.073,63.5892 143.102,63.365 143.122,63.2607 143.164,63.1191 143.219,63.0069 144.526,60.9646 145.636,59.3144 146.513,58.1056 147.924,56.2945 149.619,54.2156 150.088,53.6832 151.189,52.5278 152.31,51.3881 154.174,49.5126 154.272,49.4026 154.857,48.6665 155.563,47.7596 155.655,47.6412 155.707,47.5756 156.829,46.2281 158.374,44.3923 161.225,41.0416 162.728,39.3014 163.92,37.9539 164.732,37.0714 166.664,35.0479 168.279,33.4143 170.568,31.183 173.83,28.0883 175.548,26.5066 176.867,25.3399 177.859,24.5015 180.851,22.0515 182.005,21.1293 183.156,20.2427 184.207,19.4696 185.104,18.8517 186.364,18.0457 187.564,17.336 188.616,16.776 189.335,16.4503 190.681,15.9281 191.359,15.6971 191.611,15.6322 192.788,15.4039 194.164,15.1579 195.641,14.9123 196.033,14.8598 196.518,14.8158 196.618,14.8151 197.143,14.8526 197.639,14.9011 198.829,15.0424 200.117,15.2138 204.967,15.9051 207.836,16.3276 211.296,16.8532 214.853,17.4054 218.606,17.9984 220.383,18.2861 221.763,18.518 223.24,18.7746 224.993,19.0846 225.195,19.1207 231.12,20.1788 231.275,20.2094 233.746,20.7433 233.863,20.7686 236.15,21.2574 236.264,21.2835 237.752,21.6516 237.88,21.6819 240.421,22.2638 240.603,22.3089 241.738,22.6138 241.859,22.6457 244.131,23.2307 244.333,23.2822 248.171,24.2574 248.312,24.297 249.672,24.718 249.846,24.7685 251.729,25.2759 252.687,25.5333 252.799,25.5652 255.183,26.2745 255.371,26.3331 257.487,27.0252 257.637,27.0744 259.64,27.7306 259.74,27.7649 261.286,28.3255 264.052,29.3451 264.291,29.4439 264.622,29.5981 264.745,29.6545 266.296,30.3371 266.404,30.3835 267.312,30.7675 268.377,31.2201 268.47,31.2626 269.492,31.7628 269.589,31.8117 270.378,32.2157 270.498,32.274 272.98,33.4259 275.516,34.6103 277.775,35.6793 280.417,36.9469 280.563,37.0224 281.848,37.734 282.718,38.2257 284.45,39.2256 287.379,40.949 289.518,42.2399 293.085,44.4523 294.344,45.2642 297.25,47.2129 299.835,48.9824 301.309,50.0178 303.905,51.8831 306.706,53.9251 310.167,56.4762 312.011,57.8507 313.205,58.757 314.866,60.0414 318.721,63.0646 320.439,64.4375 322.752,66.3291 324.683,67.9326 325.908,68.9607 " fill="none" stroke-width="1" stroke="rgb(232,26,75)" />
	<polyline points="327.215,70.4578 328.251,71.3983 329.648,72.6824 330.517,73.5008 331.599,74.5436 331.957,74.8929 " fill="none" stroke-width="1" stroke="rgb(232,26,75)" />
	<polyline points="7.42985,135.15 8.31676,133.847 9.11331,132.696 9.9848,131.477 11.4705,129.464 14.8404,124.999 15.5846,124.062 17.1345,122.234 19.1167,119.987 20.2689,118.742 22.2177,116.734 27.6433,111.272 28.5737,110.367 29.3111,109.695 32.4792,106.941 35.1443,104.676 37.0717,103.087 39.1806,101.404 42.7246,98.6324 43.4388,98.0856 45.3396,96.657 45.51,96.5305 47.0581,95.3917 49.4553,93.6296 49.6931,93.4549 52.3744,91.4891 52.5434,91.3708 56.4304,88.7776 56.6146,88.6583 57.389,88.1728 59.4955,86.857 59.6704,86.7443 60.2889,86.3351 60.4531,86.2324 63.3286,84.5285 64.5114,83.8235 64.6605,83.7295 64.7914,83.6406 65.2877,83.2988 65.4551,83.1971 68.3833,81.6197 68.4878,81.5641 70.4384,80.532 70.6061,80.4433 73.4326,78.9423 73.5967,78.8461 73.6389,78.8117 73.7221,78.7231 73.7527,78.6928 73.8942,78.5722 74.3644,78.1961 74.4784,78.1156 75.5224,77.4614 75.6975,77.3604 76.3597,77.0127 77.5503,76.4064 77.6876,76.3428 79.3911,75.6252 82.1102,74.4839 82.3038,74.3973 83.5255,73.8086 84.163,73.4865 84.2754,73.4175 84.3093,73.3834 84.3875,73.2608 84.4121,73.2081 84.44,73.1223 84.4484,73.0844 84.4666,72.968 84.4974,72.771 84.5092,72.7204 84.557,72.5784 84.6038,72.4685 84.6516,72.3856 84.678,72.3598 84.7631,72.3145 86.7913,71.4638 88.9224,70.6065 93.7685,68.7287 102.835,65.2788 106.695,63.8339 109.773,62.7079 112.035,61.9061 115.061,60.8696 118.099,59.8659 120.958,58.9616 124.88,57.7739 129.007,56.5712 132.952,55.4621 135.943,54.6514 136.89,54.412 139.15,53.88 142.754,53.0495 147.508,51.953 147.724,51.8911 148.765,51.5248 149.036,51.42 149.371,51.2818 149.818,51.107 150.928,50.7137 151.107,50.6721 151.293,50.6652 151.481,50.6911 151.765,50.7679 153.186,51.235 154.037,51.5235 154.32,51.621 154.32,51.621 154.236,51.5679 153.957,51.3907 153.957,51.3907 154.107,51.4071 154.502,51.449 154.796,51.4732 155.089,51.4807 155.376,51.4637 155.961,51.3864 156.501,51.2911 156.698,51.2455 156.993,51.1636 158.223,50.8147 158.619,50.7206 160.004,50.4642 163.645,49.8453 166.633,49.3517 166.874,49.3138 166.967,49.3016 171.015,48.853 171.156,48.8386 172.91,48.6794 174.105,48.5816 176.099,48.4424 176.997,48.3957 181.793,48.2158 185.191,48.1015 187.09,48.0472 192.088,47.9294 195.086,47.8769 197.784,47.8557 199.382,47.8659 202.581,47.9266 205.979,48.0124 207.978,48.076 210.076,48.1604 211.872,48.2517 213.368,48.348 216.795,48.6017 217.054,48.6256 220.482,49.0034 223.969,49.4013 224.168,49.4323 224.825,49.5618 224.961,49.5842 230.791,50.3374 230.89,50.3532 231.125,50.4007 233.291,50.8644 235.928,51.4378 236.213,51.507 236.797,51.6616 236.969,51.7001 240.762,52.4009 240.852,52.4204 240.858,52.4243 240.979,52.5802 241.069,52.6799 241.133,52.7228 241.296,52.779 245.014,53.6971 245.114,53.7213 245.323,53.7719 248.777,54.6 248.94,54.6376 250.753,55.0446 252.718,55.4875 252.859,55.5226 254.818,56.0528 255.061,56.1161 256.991,56.6012 258.876,57.0808 259.99,57.3788 261.14,57.712 262.282,58.0732 263.888,58.6211 264.731,58.9323 266.031,59.4496 267.878,60.2147 268.981,60.6861 274.114,62.9238 276.859,64.1303 280.056,65.5515 281.156,66.0561 287.566,69.0761 292.508,71.4143 292.744,71.5256 296.238,73.1653 299.231,74.5669 299.407,74.6479 303.037,76.2746 303.263,76.3742 305.307,77.262 305.41,77.3073 307.343,78.1612 307.493,78.2234 308.367,78.5613 308.512,78.6161 309.162,78.8622 309.332,78.9379 310.682,79.6275 312.012,80.3179 312.109,80.3673 313.828,81.2267 314.024,81.3229 314.793,81.6943 315.784,82.1698 316.957,82.7291 318.591,83.5011 318.773,83.5826 320.275,84.2192 320.387,84.2677 327.55,87.4467 327.734,87.5252 329.762,88.3477 329.914,88.4096 332.425,89.4457 334.633,90.3514 334.803,90.4157 335.183,90.5482 335.285,90.5855 337.768,91.5444 340.315,92.5261 340.414,92.5608 340.589,92.615 340.681,92.646 342.873,93.4463 346.067,94.6106 348.796,95.5908 351.619,96.5783 353.616,97.247 356.473,98.1567 357.91,98.5822 360.224,99.2087 362.051,99.6574 364.796,100.263 368.027,100.912 370.189,101.298 372.262,101.614 374.937,101.964 377.518,102.261 379.109,102.415 380.837,102.548 381.7,102.591 384.496,102.662 387.094,102.695 388.791,102.69 389.288,102.669 390.881,102.538 391.972,102.42 392.861,102.293 394.827,101.949 396.949,101.532 399.225,101.035 401.069,100.589 402.515,100.2 404.142,99.7147 405.947,99.1287 408.874,98.1142 411.688,97.0844 414.232,96.097 416.882,95.0076 419.172,94.013 422.815,92.3644 425.994,90.8856 429.961,89.0003 431.848,88.0813 433.994,87.0064 436.038,85.9544 438.426,84.6956 441.703,82.9354 443.174,82.1271 446.379,80.333 446.518,80.2499 448.265,79.1458 448.364,79.0837 450.713,77.6281 453.49,75.9041 453.701,75.7694 456.167,74.1451 456.323,74.0432 458.684,72.5212 460.111,71.597 462.118,70.282 463.948,69.0642 465.571,67.9628 465.72,67.8523 466.382,67.3197 466.504,67.2252 469.438,65.0378 470.879,63.9599 473.227,62.1925 473.366,62.0876 474.138,61.5069 476.696,59.5877 478.058,58.5708 479.663,57.3779 482.23,55.4678 483.588,54.4452 484.859,53.4612 486.799,51.9055 487.939,50.9381 489.113,49.8603 493.328,45.7969 493.637,45.4736 493.953,45.1068 " fill="none" stroke-width="1" stroke="rgb(232,26,75)" />
	<polyline points="476.438,48.0039 476.502,48.0112 476.935,48.0625 476.951,48.0675 477.044,48.122 477.127,48.1917 477.149,48.2373 477.512,50.3066 477.968,52.9666 478.186,54.1435 478.378,55.0164 478.837,56.8521 479.17,58.1054 479.407,58.9732 479.717,60.1297 479.908,60.9002 480.135,61.902 480.163,62.0539 480.461,64.2026 480.822,66.8782 481.169,69.5553 481.26,70.3491 481.422,72.0404 481.597,74.1324 482.023,79.8149 482.05,80.4119 482.065,82.1097 482.039,86.9075 482.001,88.303 481.915,89.6955 481.765,91.2849 481.503,93.4667 481.146,96.0394 480.896,97.6169 480.779,98.2021 480.515,99.267 480.166,100.516 479.866,101.467 479.558,102.323 478.9,103.98 478.238,105.543 477.901,106.268 477.133,107.779 475.996,109.92 475.615,110.59 475.157,111.322 474.141,112.846 473.394,113.906 471.96,115.852 470.207,118.179 470.128,118.276 469.624,118.84 468.346,120.245 466.181,122.6 465.155,123.692 464.109,124.766 462.55,126.316 461.039,127.772 458.995,129.684 456.71,131.776 453.888,134.32 453.141,134.984 452.089,135.907 451.419,136.492 " fill="none" stroke-width="1" stroke="rgb(232,26,75)" />
	<polyline points="387,117.499 387.021,117.237 387.022,117.223 387.067,116.824 387.073,116.818 387.451,116.713 388.591,116.469 389.348,116.373 390.734,116.312 392.233,116.294 393.229,116.279 393.922,116.241 398.398,115.851 403.73,115.35 404.073,115.314 404.098,115.311 404.199,115.297 405.797,115.077 409.88,114.52 410.193,114.475 411.551,114.273 412.638,114.107 415.075,113.723 415.234,113.692 415.822,113.55 415.942,113.521 418.951,112.833 419.108,112.791 419.219,112.75 419.762,112.532 420.051,112.431 421.258,112.076 423.082,111.56 423.243,111.512 423.774,111.343 423.911,111.303 425.536,110.884 427.653,110.34 427.902,110.27 430.254,109.545 430.419,109.485 430.718,109.354 430.839,109.298 431.146,109.157 431.232,109.124 433.179,108.525 433.281,108.491 433.698,108.335 433.823,108.29 435.146,107.857 436.644,107.368 436.787,107.318 438.693,106.601 438.911,106.516 439.876,106.118 441.225,105.551 441.358,105.489 441.619,105.357 441.766,105.284 443.231,104.586 443.377,104.518 445.304,103.62 445.442,103.553 447.258,102.623 447.407,102.543 447.574,102.451 447.677,102.398 449.236,101.642 451.561,100.518 451.648,100.474 453.532,99.4626 453.682,99.3731 454.555,98.7972 454.74,98.6715 455.207,98.3476 455.284,98.3005 456.828,97.4627 458.531,96.5432 458.641,96.4819 461.902,94.5964 465.4,92.5524 465.599,92.4191 465.813,92.2444 465.908,92.1554 465.986,92.0742 " fill="none" stroke-width="1" stroke="rgb(232,26,75)" />
	<polyline points="136.016,101.781 136.033,101.67 136.056,101.543 136.103,101.329 136.111,101.322 136.348,101.279 138.179,101.048 145.691,100.192 146.73,100.079 147.016,100.046 147.235,100.013 148.589,99.7712 149.697,99.5765 154.892,98.6945 157.556,98.2581 159.927,97.8912 163.154,97.42 164.677,97.2172 165.67,97.1086 169.751,96.7366 173.936,96.3854 180.714,95.8524 182.309,95.7394 185.003,95.5735 186.001,95.5236 187.8,95.457 189.798,95.4012 193.497,95.3261 196.396,95.2905 201.994,95.267 205.492,95.2808 210.391,95.3399 214.79,95.4164 217.389,95.4757 219.887,95.5494 220.585,95.5827 222.479,95.7111 226.867,96.0418 229.257,96.236 231.248,96.4149 232.042,96.5007 234.621,96.8269 236.997,97.1566 238.278,97.3634 242.407,98.1157 248.297,99.2431 250.646,99.724 254.063,100.474 256.716,101.084 259.515,101.75 263.013,102.599 266.024,103.337 267.092,103.6 269.811,104.268 270.977,104.549 272.047,104.801 274.074,105.267 274.233,105.303 279.075,106.379 279.175,106.403 280.783,106.797 289.618,108.975 292.238,109.627 303.298,112.388 307.667,113.463 310.196,114.059 312.064,114.468 316.947,115.472 320.674,116.21 324.228,116.891 328.335,117.667 330.768,118.133 330.921,118.169 330.968,118.186 331.08,118.241 331.311,118.345 331.457,118.391 335.068,119.155 335.191,119.182 336.207,119.414 336.319,119.44 337.644,119.741 337.816,119.776 341.2,120.388 341.297,120.407 342.651,120.691 342.818,120.72 344.053,120.892 351.088,121.834 352.079,121.962 355.156,122.342 358.134,122.705 361.013,123.052 362.999,123.286 364.092,123.406 365.981,123.594 367.075,123.689 368.768,123.822 373.053,124.163 376.032,124.439 378.66,124.734 378.863,124.774 378.985,124.814 " fill="none" stroke-width="1" stroke="rgb(232,26,75)" />
	<polyline points="390.788,177.983 390.675,177.972 390.542,177.958 390.255,177.925 390.236,177.919 390.128,177.866 390.123,177.859 390.088,177.684 389.515,174.307 389.289,172.826 388.878,169.755 388.682,168.069 388.542,166.578 388.495,165.782 388.405,162.686 388.398,161.291 388.435,160.398 388.545,159.21 388.699,158.128 388.873,157.255 389.076,156.493 389.44,155.344 389.495,155.219 389.746,154.781 389.815,154.676 390.196,154.137 390.55,153.639 390.693,153.433 391.578,152.116 392.352,150.952 393.38,149.398 393.449,149.301 394.132,148.407 394.258,148.244 395.52,146.635 395.642,146.48 396.397,145.512 396.471,145.407 396.896,144.723 397.672,143.442 398.305,142.374 398.355,142.277 398.655,141.61 399.252,140.256 399.293,140.16 399.363,139.98 399.432,139.779 399.788,138.642 399.99,137.948 400.032,137.756 400.1,137.238 400.18,136.351 400.2,135.856 400.187,135.259 400.133,134.464 400.063,133.871 399.898,132.89 399.636,131.622 399.373,130.561 399.034,129.418 398.8,128.767 398.295,127.575 397.899,126.74 397.252,125.503 396.966,125.015 396.578,124.438 395.523,122.982 393.503,120.253 393.137,119.76 393.011,119.587 392.69,119.126 392.396,118.677 392.278,118.462 391.963,117.773 391.625,116.95 391.351,116.201 391.074,115.348 391.008,115.076 390.777,113.658 390.634,112.481 390.572,111.493 390.519,108.698 390.532,107.101 390.618,104.804 390.818,101.414 390.996,99.435 391.179,98.1841 391.289,97.8242 392.27,95.6608 392.557,95.089 392.579,95.067 392.709,95.0089 " fill="none" stroke-width="1" stroke="rgb(232,26,75)" />
	<polyline points="59.1485,118.349 59.6813,118.331 60.2783,118.323 60.7729,118.337 61.1649,118.373 61.7787,118.471 62.9273,118.699 63.7036,118.88 64.472,119.091 64.9433,119.245 65.325,119.397 65.9426,119.685 66.562,120.005 67.0796,120.302 67.5812,120.624 67.8989,120.858 68.2746,121.178 68.6281,121.524 68.9565,121.892 69.2576,122.283 69.5292,122.694 69.7698,123.124 69.979,123.571 70.1559,124.032 70.3001,124.506 70.5861,125.649 70.6536,126.021 70.6882,126.443 70.6878,127.033 70.6508,127.517 70.5831,127.96 70.5378,128.137 70.3596,128.668 " fill="none" stroke-width="1" stroke="rgb(232,26,75)" />
	<polyline points="64.7437,134.372 65.8177,133.956 66.2719,133.762 66.7109,133.539 67.1314,133.284 67.6131,132.941 67.9907,132.626 68.3416,132.282 68.6637,131.911 68.894,131.593 69.2592,131.002 69.5942,130.393 69.8067,129.946 70.0279,129.393 70.2167,128.829 70.3708,128.256 70.4659,127.773 70.5093,127.384 70.5245,126.891 70.5073,126.397 70.4737,126.104 70.3964,125.716 70.1097,124.554 69.9981,124.173 69.8621,123.801 69.664,123.346 69.4835,122.996 69.2775,122.659 68.9908,122.256 68.68,121.872 68.4115,121.583 68.051,121.244 67.7464,120.991 67.5041,120.821 66.9931,120.514 66.4669,120.235 65.389,119.723 64.7517,119.457 64.0975,119.229 63.333,119.009 62.6545,118.848 61.48,118.615 61.0889,118.56 60.7963,118.547 60.105,118.577 59.3181,118.652 58.7358,118.745 58.257,118.86 57.5937,119.066 57.226,119.209 56.9638,119.339 56.6286,119.545 56.3077,119.776 55.8443,120.152 55.4738,120.483 55.1935,120.763 54.9313,121.061 54.6257,121.452 54.4025,121.778 54.2048,122.118 54.0337,122.473 53.7299,123.209 53.4534,123.956 53.3363,124.334 53.2471,124.719 53.1873,125.109 53.1594,125.501 53.1655,125.89 53.2014,126.176 53.2745,126.457 53.6053,127.393 53.9033,128.127 54.1988,128.755 54.5292,129.366 54.8411,129.874 55.236,130.447 55.4806,130.756 55.7501,131.044 56.6857,131.935 56.9097,132.116 57.1559,132.269 57.9508,132.678 58.6687,133.026 58.9402,133.153 58.9402,133.153 58.313,132.845 57.519,132.433 57.0124,132.135 56.7027,131.907 56.1139,131.383 55.702,130.959 55.3923,130.578 54.8196,129.768 54.3098,128.98 54.0317,128.502 53.8225,128.09 53.6512,127.695 53.5159,127.322 53.2487,126.466 53.177,126.18 53.1301,125.89 53.1187,125.697 53.1282,125.402 53.1755,124.727 " fill="none" stroke-width="1" stroke="rgb(232,26,75)" />
	<polyline points="446.112,130.042 446.139,130.126 446.196,130.28 446.261,130.416 446.335,130.523 448.771,133.427 450.137,135.038 450.906,135.941 451.934,137.163 452.172,137.476 453.324,139.164 455.117,141.871 455.705,142.798 456.165,143.571 457.31,145.586 457.764,146.402 458.366,147.509 459.4,149.419 459.475,149.552 459.924,150.312 459.976,150.408 460.471,151.443 461.362,153.343 462.114,154.978 462.795,156.481 462.838,156.582 463.292,157.764 463.566,158.514 464.147,160.216 464.765,162.117 465.05,163.073 465.596,165.098 466.104,167.133 466.547,169.08 466.713,169.96 466.883,171.143 467.058,172.729 467.213,174.551 467.316,176.215 467.381,177.912 467.414,179.81 467.411,181.808 467.372,183.806 467.282,186.302 467.206,187.698 467.025,190.19 466.849,192.282 466.535,195.667 466.325,197.755 466.084,199.941 465.981,200.732 465.875,201.37 465.688,202.299 465.443,203.368 465.265,204.041 464.729,205.862 464.281,207.293 462.962,211.277 462.645,212.11 462.354,212.704 461.944,213.388 461.712,213.716 461.683,213.738 461.506,213.799 461.434,213.82 461.272,213.861 461.257,213.867 461.112,213.944 461.061,213.973 " fill="none" stroke-width="1" stroke="rgb(232,26,75)" />
	<polyline points="395.02,133.045 395.021,133.056 395.046,133.304 395.052,133.343 395.092,133.531 395.094,133.533 395.256,133.562 397.942,133.956 399.093,134.085 404.303,134.492 405.998,134.596 409.194,134.74 410.993,134.809 412.491,134.86 415.29,134.945 417.989,135.021 420.787,135.087 423.885,135.142 425.184,135.148 427.183,135.12 430.178,135.018 431.263,134.924 432.225,134.748 436.257,133.74 436.696,133.586 436.922,133.466 436.932,133.452 436.963,133.314 436.988,133.175 " fill="none" stroke-width="1" stroke="rgb(232,26,75)" />
	<polyline points="7.42985,135.15 8.97337,135.661 10.2058,136.074 13.0861,137.06 14.9256,137.715 15.6813,138.012 19.9852,139.852 22.1794,140.821 25.2335,142.218 26.8044,142.965 28.3246,143.723 30.5423,144.874 32.3899,145.869 34.2197,146.895 34.9881,147.357 35.6496,147.799 36.6937,148.564 37.3919,149.12 38.5295,150.092 39.4256,150.888 39.9035,151.323 " fill="none" stroke-width="1" stroke="rgb(232,26,75)" />
	<polyline points="385.057,149.089 386.123,149.36 387.109,149.608 389.906,150.304 391.943,150.809 395.731,151.743 396.699,151.979 399.153,152.566 403.797,153.681 407.195,154.514 408.84,154.939 412.701,155.983 414.144,156.387 415.872,156.889 417.58,157.391 417.723,157.432 418.724,157.711 418.839,157.748 421.248,158.619 423.568,159.469 423.767,159.549 424.845,160.036 426.471,160.801 428.624,161.855 431.032,163.073 434.942,165.091 440.443,167.949 442.869,169.207 444.256,169.923 446.848,171.26 448.076,171.905 450.604,173.271 450.675,173.325 450.737,173.405 450.826,173.564 450.843,173.6 450.892,173.713 450.943,173.821 450.996,173.931 " fill="none" stroke-width="1" stroke="rgb(232,26,75)" />
	<polyline points="354.131,166.027 355.956,168.407 356.441,169.043 356.982,169.764 357.07,169.891 358.336,171.852 358.594,172.277 359.685,174.186 360.81,176.191 361.684,177.776 362.867,179.966 363.418,181.03 364.033,182.298 364.727,183.832 365.262,185.121 365.969,186.988 366.591,188.778 367.035,190.205 367.371,191.456 367.752,193.101 368.088,194.769 368.177,195.357 368.248,196.159 368.409,199.042 368.472,200.639 368.509,202.437 368.514,203.836 368.496,205.136 368.419,208.033 368.384,208.831 368.282,210.427 368.117,212.62 368.044,213.416 367.706,216.597 367.458,218.883 367.033,222.86 366.824,224.946 366.636,226.966 366.508,228.328 366.245,230.81 366.09,231.885 365.766,233.598 365.7,233.849 365.687,233.862 365.197,233.987 " fill="none" stroke-width="1" stroke="rgb(232,26,75)" />
	<polyline points="296.043,193.296 296.121,193.434 296.225,193.592 296.287,193.656 296.417,193.736 298.043,194.504 300.492,195.631 301.216,195.966 302.84,196.737 303.282,196.962 304.863,197.818 305.831,198.338 306.272,198.562 307.173,198.987 308.174,199.44 308.907,199.76 310.103,200.267 311.117,200.69 312.043,201.069 313.063,201.479 314.922,202.216 319.948,204.189 321.068,204.617 323.039,205.341 326.147,206.448 328.982,207.423 330.882,208.041 334.13,209.038 338.349,210.283 340.11,210.777 341.629,211.169 343.96,211.732 346.104,212.225 348.154,212.677 350.11,213.095 352.572,213.613 352.687,213.637 354.959,214.094 356.249,214.357 356.362,214.383 357.599,214.696 357.715,214.727 358.389,214.917 358.524,214.951 360.225,215.327 360.326,215.348 363.256,215.903 363.487,215.956 365.14,216.413 365.228,216.449 365.321,216.504 365.389,216.547 365.462,216.58 366.245,216.839 366.397,216.876 371.164,217.66 373.886,218.114 374.097,218.159 374.23,218.201 374.333,218.245 375.566,218.829 376.255,219.142 377.469,219.668 379.55,220.572 379.743,220.677 379.909,220.795 " fill="none" stroke-width="1" stroke="rgb(232,26,75)" />
	<polyline points="139.021,194.062 139.104,194.153 139.228,194.277 139.388,194.416 139.55,194.528 143.052,196.609 146.155,198.433 147.881,199.443 149.288,200.269 150.634,201.074 151.226,201.444 151.888,201.889 152.617,202.414 154.527,203.862 155.302,204.488 156.653,205.671 159.892,208.64 161.176,209.889 162.262,211.049 163.421,212.41 164.019,213.196 164.566,214.023 165.539,215.646 165.634,215.847 165.703,216.09 165.763,216.474 165.801,216.963 165.828,217.759 165.829,218.152 165.805,219.158 165.691,222.754 165.543,226.85 165.479,228.247 165.38,229.944 165.312,230.941 165.226,232.038 165.14,233.034 165.037,234.129 164.924,235.223 164.558,238.502 164.126,242.175 163.528,246.973 163.26,248.918 162.243,255.64 161.852,258.004 161.672,258.877 161.535,259.345 161.189,260.275 160.589,261.756 159.907,263.42 159.695,263.974 159.548,264.426 159.519,264.561 159.504,264.76 159.502,264.986 159.519,265.861 159.522,266.048 159.525,266.564 159.518,266.716 159.421,267.592 159.316,268.281 158.798,271.003 158.462,272.594 158.378,272.935 158.36,272.993 " fill="none" stroke-width="1" stroke="rgb(232,26,75)" />
	<polyline points="114.173,203.569 114.474,204.179 114.895,205.034 115.235,205.733 115.439,206.155 116.185,207.699 116.499,208.322 116.878,209.024 117.67,210.412 118.384,211.614 119.952,214.188 121.152,216.133 123.738,220.289 125.807,223.6 127.073,225.62 127.159,225.752 128.797,228.223 128.863,228.321 130.828,231.164 130.898,231.263 131.712,232.392 134.038,235.596 134.989,236.882 136.738,239.193 137.841,240.614 138.96,242.008 139.924,243.17 141.031,244.458 141.708,245.213 142.655,246.221 143.979,247.583 145.533,249.138 147.394,250.952 149.708,253.161 151.679,255.004 152.422,255.672 154.237,257.24 155.992,258.726 158.985,261.225 159.989,262.051 161.002,262.865 162.105,263.725 162.799,264.241 165.025,265.824 167.892,267.827 168.668,268.357 169.544,268.945 171.486,270.256 171.709,270.424 171.791,270.507 171.854,270.597 171.916,270.712 171.97,270.822 " fill="none" stroke-width="1" stroke="rgb(232,26,75)" />
</svg>
