<?xml version="1.0" encoding="utf-8" ?>
<svg baseProfile="full" height="268" version="1.1" viewBox="0,0,487,268" width="487" xmlns="http://www.w3.org/2000/svg" xmlns:ev="http://www.w3.org/2001/xml-events" xmlns:xlink="http://www.w3.org/1999/xlink">
	<path d="M 135.580150 58.688520 L 136.665614 57.028722 L 137.751079 55.368925 L 138.873310 53.733766 L 140.028833 52.121962 L 141.191491 50.515293 L 142.453144 48.985221 L 143.718264 47.457925 L 145.012843 45.955530 L 146.330122 44.472995 L 147.644713 42.988066 L 148.933315 41.480544 L 150.220369 39.971686 L 151.507869 38.463208 L 152.795685 36.955000 L 154.088708 35.451255 L 155.411011 33.973217 L 156.735328 32.496956 L 158.091785 31.050212 L 159.466610 29.620883 L 160.850424 28.200245 L 162.269990 26.815395 L 163.692147 25.433139 L 165.135580 24.073145 L 166.589593 22.724445 L 168.052936 21.385873 L 169.545900 20.080483 L 171.041570 18.778126 L 172.580896 17.527861 L 174.138868 16.300737 L 175.725640 15.111161 L 177.383862 14.024045 L 179.049880 12.948152 L 180.869962 12.169214 L 182.737733 11.503049 L 184.632362 10.917536 L 186.568139 10.489897 L 188.509406 10.084133 L 190.487537 10.030791 L 192.469669 10.091758 L 194.448075 10.227599 L 196.414408 10.482400 L 198.379003 10.753562 L 200.341368 11.040349 L 202.303055 11.331796 L 204.264105 11.627504 L 206.224236 11.929234 L 208.184183 12.232169 L 210.142265 12.546894 L 212.099844 12.864769 L 214.056153 13.190352 L 216.010760 13.525998 L 217.965043 13.863549 L 219.915778 14.220916 L 221.865698 14.582818 L 223.812175 14.962711 L 225.754433 15.363615 L 227.695607 15.769824 L 229.628445 16.213631 L 231.559316 16.666288 L 233.486826 17.132996 L 235.410757 17.614266 L 237.333483 18.100354 L 239.251035 18.606372 L 241.167190 19.117756 L 243.077334 19.651021 L 244.981704 20.204624 L 246.883307 20.767702 L 248.773970 21.366197 L 250.661453 21.974944 L 252.536069 22.621861 L 254.399397 23.300847 L 256.255795 23.998625 L 258.085955 24.761715 L 259.908328 25.544094 L 261.718342 26.354470 L 263.518588 27.186463 L 265.316223 28.024120 L 267.110985 28.867907 L 268.904824 29.713661 L 270.683000 30.591612 L 272.449665 31.492718 L 274.207126 32.411635 L 275.940505 33.374861 L 277.665811 34.352858 L 279.376636 35.355811 L 281.077599 36.375546 L 282.771511 37.406942 L 284.450982 38.461604 L 286.124977 39.525042 L 287.783989 40.611551 L 289.432636 41.713870 L 291.074283 42.826573 L 292.702772 43.958390 L 294.325638 45.098332 L 295.938775 46.251929 L 297.544655 47.415676 L 299.146152 48.585437 L 300.741094 49.764115 L 302.328486 50.952944 L 303.912024 52.146805 L 305.489571 53.348635 L 307.058595 54.561541 L 308.621399 55.782414 L 310.177341 57.012094 L 311.724142 58.253185 L 313.267825 59.498216 L 314.802993 60.753749 L 316.334219 62.014068 L 317.862273 63.278263 L 319.387329 64.546082" fill="none" stroke="black" stroke-width="1.000000" />
	<path d="M 319.397552 64.557777 L 317.781752 65.476197 L 316.167373 66.397113 L 314.552080 67.316425 L 312.953339 68.264228 L 311.368957 69.235846 L 309.804124 70.238644 L 308.266785 71.283102 L 306.762921 72.375210 L 305.304114 73.526632 L 303.845306 74.678055" fill="none" stroke="black" stroke-width="1.000000" />
	<path d="M 0.582410 155.027115 L 2.568478 154.812073 L 4.562760 154.696087 L 6.560423 154.704065 L 8.557728 154.733607 L 10.537889 154.469826 L 12.497109 154.079730 L 14.450872 153.663157 L 16.403079 153.239365 L 18.345165 152.771369 L 20.277521 152.264694 L 22.202704 151.731419 L 24.110573 151.139183 L 25.992635 150.469453 L 27.835496 149.698388 L 29.605101 148.771514 L 31.039367 147.397828 L 32.473652 146.024124" fill="none" stroke="black" stroke-width="1.000000" />
	<path d="M 41.913849 181.639114 L 40.345324 180.524461 L 38.761639 179.431455 L 37.161626 178.362492 L 35.547094 177.315589 L 33.932418 176.268906 L 32.334124 175.197375 L 30.756791 174.095222 L 29.207494 172.953994 L 27.668403 171.799040 L 26.134695 170.636946 L 24.603343 169.471750 L 23.084544 168.290238 L 21.598695 167.067545 L 20.128643 165.825906 L 18.661632 164.580675 L 17.196331 163.333432 L 15.731697 162.085406 L 14.268971 160.835144 L 12.807657 159.583232 L 11.343354 158.334817 L 9.854231 157.116116 L 8.195149 156.141370 L 6.306099 155.775024 L 4.396094 155.541363 L 2.489114 155.285364 L 0.582410 155.027115" fill="none" stroke="black" stroke-width="1.000000" />
	<path d="M 99.635150 106.765120 L 100.299377 108.636985 L 100.963604 110.508850 L 101.579486 112.397174 L 102.185692 114.288626 L 102.747184 116.193829 L 103.286374 118.105465 L 103.775991 120.030393 L 104.216330 121.967187 L 104.638585 123.908006 L 105.025514 125.856174 L 105.401507 127.806483 L 105.727906 129.765700 L 106.049365 131.725736 L 106.282945 133.698167 L 106.512430 135.671087 L 106.666284 137.651334 L 106.805582 139.632665 L 106.867890 141.617901 L 106.893058 143.603961 L 106.851432 145.589740 L 106.746101 147.573161 L 106.600119 149.554008 L 106.378630 151.527833 L 106.130006 153.498431 L 105.763059 155.450438 L 105.381441 157.399654 L 104.832885 159.308566 L 104.273290 161.214329 L 103.575275 163.073813 L 102.853584 164.924282 L 102.038063 166.735335 L 101.181091 168.527167 L 100.227698 170.269584 L 99.190632 171.963543 L 98.067735 173.601863 L 96.805351 175.135248 L 95.509439 176.640464 L 94.096471 178.036325 L 92.675709 179.424314 L 91.178570 180.729519 L 89.676791 182.029417 L 88.102350 183.240247 L 86.516571 184.436232 L 84.827572 185.481254 L 83.101047 186.463166 L 81.249997 187.182895 L 79.333511 187.704544 L 77.429995 188.271730 L 75.546282 188.901567 L 73.668189 189.547977 L 71.806512 190.240242 L 69.906434 190.817665 L 67.922634 190.719612 L 65.939237 190.614037 L 63.972820 190.334249 L 62.007993 190.043596 L 60.077462 189.576559 L 58.156797 189.070517 L 56.285450 188.404846 L 54.444430 187.659382 L 52.638661 186.832711 L 50.833443 186.004880 L 49.041720 185.147682 L 47.251814 184.286704 L 45.469494 183.410288 L 43.688438 182.531252 L 41.913849 181.639114" fill="none" stroke="black" stroke-width="1.000000" />
	<path d="M 106.743149 198.270126 L 104.893416 197.864628 L 103.045692 197.450078 L 101.199320 197.029549 L 99.360501 196.577283 L 97.534963 196.074382 L 95.726658 195.512879 L 93.940119 194.885823 L 92.181119 194.185560 L 90.444106 193.431801 L 88.723495 192.641183 L 87.012355 191.830076 L 85.299913 191.021760 L 83.569385 190.254030 L 81.786496 189.635737 L 79.924217 189.321720 L 78.031399 189.275378 L 76.137991 189.306123 L 74.244583 189.336868" fill="none" stroke="black" stroke-width="1.000000" />
	<path d="M 241.571150 217.229120 L 242.910436 216.226769 L 244.488157 215.693967 L 246.113670 215.301596 L 247.748479 214.947092 L 249.380080 214.578325 L 250.997898 214.155043 L 252.607865 213.701012 L 254.221757 213.260980 L 255.820214 212.768899 L 257.418793 212.276779" fill="none" stroke="black" stroke-width="1.000000" />
	<path d="M 467.451150 209.665120 L 467.137033 209.276364 L 466.822915 208.887607 L 466.508798 208.498851 L 466.194680 208.110095 L 465.880563 207.721338 L 465.566445 207.332582 L 465.252328 206.943826 L 464.938210 206.555069 L 464.624093 206.166313 L 464.308345 205.778958 L 463.971199 205.409995 L 463.634053 205.041032 L 463.296907 204.672069 L 462.959761 204.303106 L 462.622614 203.934143 L 462.285468 203.565180 L 461.948322 203.196217 L 461.611176 202.827254 L 461.274030 202.458291 L 460.932750 202.093428 L 460.566459 201.753381 L 460.200168 201.413334 L 459.833877 201.073287 L 459.467586 200.733240 L 459.101295 200.393193 L 458.735004 200.053146 L 458.368712 199.713099 L 458.002421 199.373051 L 457.636130 199.033004 L 457.263538 198.700400 L 456.867716 198.395234 L 456.471893 198.090069 L 456.076071 197.784903 L 455.680249 197.479738 L 455.284427 197.174572 L 454.888604 196.869407 L 454.492782 196.564241 L 454.096960 196.259076 L 453.701138 195.953910 L 453.299689 195.656576 L 452.884165 195.378833 L 452.468641 195.101090 L 452.053117 194.823347 L 451.637594 194.545604 L 451.222070 194.267861 L 450.806546 193.990118 L 450.391022 193.712375 L 449.975498 193.434632 L 449.559974 193.156889 L 449.140813 192.884817 L 448.715113 192.622937 L 448.289414 192.361057 L 447.863714 192.099176 L 447.438015 191.837296 L 447.012315 191.575416 L 446.586616 191.313536 L 446.160917 191.051656 L 445.735217 190.789775 L 445.309518 190.527895 L 444.879731 190.272947 L 444.444498 190.027238 L 444.009265 189.781528 L 443.574031 189.535818 L 443.138798 189.290109 L 442.703565 189.044399 L 442.268331 188.798689 L 441.833098 188.552980 L 441.397865 188.307270 L 440.962632 188.061560 L 440.527771 187.815193 L 440.093284 187.568167 L 439.658796 187.321141 L 439.224308 187.074115 L 438.789821 186.827089 L 438.355333 186.580064 L 437.920845 186.333038 L 437.486358 186.086012 L 437.051870 185.838986 L 436.617382 185.591961 L 436.176924 185.355996 L 435.731978 185.128347 L 435.287032 184.900697 L 434.842086 184.673048 L 434.397140 184.445398 L 433.952194 184.217749 L 433.507248 183.990099 L 433.062302 183.762450 L 432.617356 183.534800 L 432.172410 183.307151 L 431.725199 183.084016 L 431.276729 182.863389 L 430.828260 182.642762 L 430.379790 182.422134 L 429.931321 182.201507 L 429.482851 181.980880 L 429.034382 181.760253 L 428.585912 181.539626 L 428.137443 181.318998 L 427.688973 181.098371 L 427.235808 180.887672 L 426.780760 180.680954 L 426.325712 180.474235 L 425.870664 180.267517 L 425.415616 180.060798 L 424.960568 179.854079 L 424.505520 179.647361 L 424.050472 179.440642 L 423.595424 179.233924 L 423.140376 179.027205 L 422.682624 178.826575 L 422.224133 178.627610 L 421.765642 178.428645 L 421.307151 178.229680 L 420.848660 178.030715 L 420.390169 177.831749 L 419.931677 177.632784 L 419.473186 177.433819 L 419.014695 177.234854 L 418.556204 177.035889 L 418.093396 176.847238 L 417.629863 176.660319 L 417.166331 176.473400 L 416.702798 176.286481 L 416.239265 176.099562 L 415.775733 175.912643 L 415.312200 175.725724 L 414.848668 175.538805 L 414.385135 175.351886 L 413.921602 175.164967 L 413.458468 174.977063 L 412.995365 174.789082 L 412.532262 174.601102 L 412.069159 174.413121 L 411.606055 174.225140 L 411.142952 174.037160 L 410.679849 173.849179 L 410.216746 173.661198 L 409.753643 173.473218 L 409.290540 173.285237 L 408.819183 173.119035 L 408.347814 172.952865 L 407.876445 172.786694 L 407.405076 172.620523 L 406.933707 172.454353 L 406.462338 172.288182 L 405.990970 172.122012 L 405.519601 171.955841 L 405.048232 171.789670 L 404.576349 171.625072 L 404.097874 171.480632 L 403.619399 171.336191 L 403.140924 171.191751 L 402.662449 171.047311 L 402.183974 170.902871 L 401.705499 170.758431 L 401.227024 170.613991 L 400.748549 170.469551 L 400.270074 170.325111 L 399.791109 170.182368 L 399.309248 170.049663 L 398.827386 169.916958 L 398.345525 169.784253 L 397.863663 169.651548 L 397.381801 169.518843 L 396.899940 169.386137 L 396.418078 169.253432 L 395.936217 169.120727 L 395.454355 168.988022 L 394.971520 168.859119 L 394.485151 168.744029 L 393.998781 168.628940 L 393.512411 168.513850 L 393.026041 168.398761 L 392.539671 168.283671 L 392.053301 168.168582 L 391.566931 168.053492 L 391.080561 167.938403 L 390.594192 167.823313 L 390.106564 167.714081 L 389.615831 167.619306 L 389.125097 167.524532 L 388.634364 167.429757 L 388.143631 167.334982 L 387.652898 167.240208 L 387.162165 167.145433 L 386.671432 167.050659 L 386.180699 166.955884 L 385.689965 166.861109 L 385.198108 166.772783 L 384.704259 166.695878 L 384.210410 166.618973 L 383.716561 166.542068 L 383.222712 166.465163 L 382.728863 166.388258 L 382.235014 166.311353 L 381.741165 166.234449 L 381.247315 166.157544 L 380.753466 166.080639 L 380.258077 166.015879 L 379.760668 165.967030 L 379.263260 165.918182 L 378.765852 165.869333 L 378.268443 165.820484 L 377.771035 165.771636 L 377.273627 165.722787 L 376.776218 165.673938 L 376.278810 165.625090 L 375.781402 165.576241 L 375.282796 165.549129 L 374.783032 165.543048 L 374.283267 165.536967 L 373.783503 165.530886 L 373.283739 165.524805 L 372.783975 165.518725 L 372.284211 165.512644 L 371.784446 165.506563 L 371.284682 165.500482 L 370.784918 165.494401 L 370.286053 165.515162 L 369.787815 165.554670 L 369.289578 165.594178 L 368.791341 165.633686 L 368.293104 165.673194 L 367.794866 165.712702 L 367.296629 165.752210 L 366.798392 165.791718 L 366.300155 165.831226 L 365.801917 165.870735 L 365.307288 165.939400 L 364.814446 166.022515 L 364.321604 166.105630 L 363.828762 166.188745 L 363.335920 166.271860 L 362.843078 166.354975 L 362.350236 166.438090 L 361.857394 166.521205 L 361.364552 166.604320 L 360.871711 166.687435 L 360.385198 166.800532 L 359.900817 166.923723 L 359.416436 167.046915 L 358.932055 167.170106 L 358.447673 167.293297 L 357.963292 167.416489 L 357.478911 167.539680 L 356.994530 167.662871 L 356.510149 167.786063 L 356.025767 167.909254 L 355.549759 168.061014 L 355.075511 168.218779 L 354.601263 168.376544 L 354.127014 168.534310 L 353.652766 168.692075 L 353.178518 168.849840 L 352.704270 169.007606 L 352.230022 169.165371 L 351.755774 169.323136 L 351.281525 169.480902 L 350.810631 169.648379 L 350.340099 169.816905 L 349.869567 169.985430 L 349.399035 170.153955 L 348.928503 170.322481 L 348.457971 170.491006 L 347.987439 170.659532 L 347.516907 170.828057 L 347.046375 170.996583 L 346.575843 171.165108 L 346.104698 171.331913 L 345.633537 171.498671 L 345.162375 171.665429 L 344.691214 171.832187 L 344.220052 171.998944 L 343.748891 172.165702 L 343.277730 172.332460 L 342.806568 172.499218 L 342.335407 172.665975 L 341.864299 172.832884 L 341.394354 173.003038 L 340.924409 173.173193 L 340.454463 173.343348 L 339.984518 173.513503 L 339.514573 173.683658 L 339.044627 173.853813 L 338.574682 174.023968 L 338.104737 174.194123 L 337.634792 174.364278 L 337.165631 174.536477 L 336.702486 174.724356 L 336.239342 174.912235 L 335.776198 175.100114 L 335.313053 175.287993 L 334.849909 175.475872 L 334.386765 175.663751 L 333.923620 175.851630 L 333.460476 176.039509 L 332.997332 176.227388 L 332.536351 176.420196 L 332.084601 176.634025 L 331.632851 176.847855 L 331.181100 177.061684 L 330.729350 177.275513 L 330.277600 177.489342 L 329.825849 177.703171 L 329.374099 177.917001 L 328.922349 178.130830 L 328.470599 178.344659 L 328.020464 178.561783 L 327.574812 178.788048 L 327.129160 179.014312 L 326.683508 179.240577 L 326.237857 179.466841 L 325.792205 179.693106 L 325.346553 179.919370 L 324.900901 180.145635 L 324.455249 180.371899 L 324.009597 180.598164 L 323.567449 180.830967 L 323.132230 181.076703 L 322.697012 181.322439 L 322.261793 181.568175 L 321.826575 181.813911 L 321.391357 182.059647 L 320.956138 182.305383 L 320.520920 182.551119 L 320.085701 182.796855 L 319.650483 183.042591 L 319.220028 183.296337 L 318.796292 183.561383 L 318.372557 183.826430 L 317.948822 184.091476 L 317.525086 184.356522 L 317.101351 184.621568 L 316.677615 184.886615 L 316.253880 185.151661 L 315.830144 185.416707 L 315.406409 185.681754 L 314.978369 185.939647 L 314.545773 186.189970 L 314.113176 186.440294 L 313.680580 186.690617 L 313.247984 186.940940 L 312.815388 187.191264 L 312.382791 187.441587 L 311.950195 187.691910 L 311.517599 187.942233 L 311.085003 188.192557 L 310.644982 188.429191 L 310.199237 188.655272 L 309.753491 188.881352 L 309.307746 189.107433 L 308.862001 189.333513 L 308.416255 189.559594 L 307.970510 189.785674 L 307.524765 190.011754 L 307.079019 190.237835 L 306.633274 190.463915 L 306.183273 190.681278 L 305.730844 190.893667 L 305.278414 191.106055 L 304.825984 191.318443 L 304.373555 191.530831 L 303.921125 191.743219 L 303.468696 191.955607 L 303.016266 192.167995 L 302.563836 192.380383 L 302.111407 192.592772 L 301.657514 192.802002 L 301.203019 193.009935 L 300.748525 193.217867 L 300.294030 193.425800 L 299.839536 193.633733 L 299.385041 193.841665 L 298.930547 194.049598 L 298.476052 194.257530 L 298.021558 194.465463 L 297.567063 194.673395 L 297.114273 194.885004 L 296.661966 195.097651 L 296.209658 195.310299 L 295.757350 195.522946 L 295.305042 195.735593 L 294.852734 195.948241 L 294.400427 196.160888 L 293.948119 196.373535 L 293.495811 196.586183 L 293.043503 196.798830 L 292.590024 197.008966 L 292.136340 197.218660 L 291.682656 197.428354 L 291.228971 197.638049 L 290.775287 197.847743 L 290.321602 198.057437 L 289.867918 198.267131 L 289.414233 198.476826 L 288.960549 198.686520 L 288.506865 198.896214 L 288.049849 199.098533 L 287.592553 199.300228 L 287.135256 199.501923 L 286.677959 199.703618 L 286.220662 199.905313 L 285.763366 200.107008 L 285.306069 200.308703 L 284.848772 200.510399 L 284.391475 200.712094 L 283.934178 200.913789 L 283.474426 201.109820 L 283.014655 201.305811 L 282.554885 201.501802 L 282.095114 201.697793 L 281.635344 201.893784 L 281.175574 202.089775 L 280.715803 202.285766 L 280.256033 202.481757 L 279.796263 202.677748 L 279.336261 202.873181 L 278.872875 203.060464 L 278.409490 203.247748 L 277.946104 203.435032 L 277.482719 203.622316 L 277.019334 203.809600 L 276.555948 203.996884 L 276.092563 204.184168 L 275.629178 204.371452 L 275.165792 204.558736 L 274.701947 204.744850 L 274.235166 204.923503 L 273.768386 205.102157 L 273.301605 205.280810 L 272.834824 205.459464 L 272.368044 205.638117 L 271.901263 205.816771 L 271.434482 205.995424 L 270.967702 206.174078 L 270.500921 206.352731 L 270.032934 206.528064 L 269.560312 206.690636 L 269.087690 206.853208 L 268.615068 207.015780 L 268.142446 207.178352 L 267.669824 207.340923 L 267.197202 207.503495 L 266.724579 207.666067 L 266.251957 207.828639 L 265.779335 207.991211 L 265.303659 208.143700 L 264.820274 208.270746 L 264.336890 208.397792 L 263.853505 208.524838 L 263.370121 208.651883 L 262.886736 208.778929 L 262.403352 208.905975 L 261.919967 209.033021 L 261.436583 209.160067 L 260.953198 209.287113 L 260.467443 209.403939 L 259.977487 209.502651 L 259.487530 209.601362 L 258.997574 209.700073 L 258.507617 209.798785 L 258.017661 209.897496 L 257.527704 209.996207 L 257.037748 210.094919 L 256.547792 210.193630 L 256.057835 210.292341 L 255.567110 210.387043 L 255.075376 210.476479 L 254.583642 210.565915 L 254.091908 210.655351 L 253.600174 210.744787 L 253.108440 210.834223 L 252.616705 210.923659 L 252.124971 211.013096 L 251.633237 211.102532 L 251.141503 211.191968 L 250.650006 211.282688 L 250.158743 211.374677 L 249.667480 211.466665 L 249.176217 211.558654 L 248.684954 211.650642 L 248.193691 211.742630 L 247.702428 211.834619 L 247.211165 211.926607 L 246.719902 212.018596 L 246.228639 212.110584 L 245.737701 212.204280 L 245.247004 212.299243 L 244.756307 212.394205 L 244.265610 212.489168 L 243.774914 212.584130 L 243.284217 212.679093 L 242.793520 212.774056 L 242.302823 212.869018 L 241.812126 212.963981 L 241.321429 213.058943 L 240.829012 213.144228 L 240.335650 213.224197 L 239.842288 213.304166 L 239.348926 213.384135 L 238.855564 213.464104 L 238.362202 213.544074 L 237.868840 213.624043 L 237.375477 213.704012 L 236.882115 213.783981 L 236.388753 213.863950 L 235.892785 213.924509 L 235.395801 213.977504 L 234.898818 214.030499 L 234.401834 214.083494 L 233.904850 214.136489 L 233.407867 214.189484 L 232.910883 214.242479 L 232.413899 214.295475 L 231.916916 214.348470 L 231.419932 214.401465 L 230.921633 214.439407 L 230.422989 214.473400 L 229.924345 214.507393 L 229.425701 214.541387 L 228.927058 214.575380 L 228.428414 214.609373 L 227.929770 214.643366 L 227.431126 214.677359 L 226.932482 214.711353 L 226.433838 214.745346 L 225.934659 214.769998 L 225.435396 214.793172 L 224.936132 214.816346 L 224.436868 214.839521 L 223.937605 214.862695 L 223.438341 214.885869 L 222.939077 214.909043 L 222.439814 214.932217 L 221.940550 214.955391 L 221.441286 214.978565 L 220.941640 214.990681 L 220.441968 215.002024 L 219.942296 215.013367 L 219.442623 215.024710 L 218.942951 215.036053 L 218.443278 215.047396 L 217.943606 215.058739 L 217.443933 215.070082 L 216.944261 215.081424 L 216.444587 215.092711 L 215.944790 215.094567 L 215.444992 215.096423 L 214.945194 215.098279 L 214.445396 215.100135 L 213.945599 215.101992 L 213.445801 215.103848 L 212.946003 215.105704 L 212.446205 215.107560 L 211.946408 215.109416 L 211.446610 215.111056 L 210.946809 215.110100 L 210.447009 215.109144 L 209.947209 215.108188 L 209.447408 215.107232 L 208.947608 215.106276 L 208.447808 215.105321 L 207.948008 215.104365 L 207.448207 215.103409 L 206.948407 215.102453 L 206.448613 215.100690 L 205.948853 215.094264 L 205.449093 215.087839 L 204.949333 215.081413 L 204.449573 215.074988 L 203.949813 215.068562 L 203.450053 215.062137 L 202.950293 215.055711 L 202.450533 215.049286 L 201.950773 215.042860 L 201.451062 215.034288 L 200.951525 215.018047 L 200.451988 215.001806 L 199.952450 214.985565 L 199.452913 214.969324 L 198.953376 214.953083 L 198.453839 214.936843 L 197.954301 214.920602 L 197.454764 214.904361 L 196.955227 214.888120 L 196.455753 214.870219 L 195.956435 214.848245 L 195.457117 214.826272 L 194.957799 214.804299 L 194.458481 214.782325 L 193.959163 214.760352 L 193.459845 214.738378 L 192.960527 214.716405 L 192.461209 214.694432 L 191.961891 214.672458 L 191.462614 214.649603 L 190.963410 214.625184 L 190.464206 214.600764 L 189.965002 214.576344 L 189.465797 214.551925 L 188.966593 214.527505 L 188.467389 214.503085 L 187.968184 214.478666 L 187.468980 214.454246 L 186.969776 214.429827 L 186.470859 214.400616 L 185.972322 214.365093 L 185.473785 214.329569 L 184.975248 214.294045 L 184.476711 214.258521 L 183.978174 214.222997 L 183.479636 214.187473 L 182.981099 214.151949 L 182.482562 214.116425 L 181.984025 214.080901 L 181.486750 214.032412 L 180.990719 213.971135 L 180.494688 213.909859 L 179.998658 213.848582 L 179.502627 213.787305 L 179.006596 213.726029 L 178.510566 213.664752 L 178.014535 213.603475 L 177.518504 213.542199 L 177.022474 213.480922 L 176.527127 213.414490 L 176.032288 213.344238 L 175.537449 213.273985 L 175.042610 213.203733 L 174.547770 213.133480 L 174.052931 213.063228 L 173.558092 212.992976 L 173.063253 212.922723 L 172.568414 212.852471 L 172.073574 212.782219 L 171.579224 212.708648 L 171.085142 212.633252 L 170.591060 212.557856 L 170.096979 212.482460 L 169.602897 212.407065 L 169.108815 212.331669 L 168.614734 212.256273 L 168.120652 212.180877 L 167.626570 212.105481 L 167.132489 212.030086 L 166.638726 211.952639 L 166.145090 211.874379 L 165.651454 211.796120 L 165.157817 211.717860 L 164.664181 211.639600 L 164.170545 211.561340 L 163.676909 211.483081 L 163.183273 211.404821 L 162.689637 211.326561 L 162.196000 211.248302 L 161.707993 211.141432 L 161.221505 211.026846 L 160.735016 210.912260 L 160.248527 210.797673 L 159.762039 210.683087 L 159.275550 210.568501 L 158.789061 210.453915 L 158.302573 210.339328 L 157.816084 210.224742 L 157.329595 210.110156 L 156.843314 209.994693 L 156.357067 209.879086 L 155.870820 209.763479 L 155.384573 209.647871 L 154.898326 209.532264 L 154.412079 209.416656 L 153.925832 209.301049 L 153.439585 209.185442 L 152.953338 209.069834 L 152.467090 208.954227 L 151.980425 208.840395 L 151.493728 208.726697 L 151.007031 208.613000 L 150.520333 208.499303 L 150.033636 208.385606 L 149.546939 208.271909 L 149.060242 208.158212 L 148.573544 208.044514 L 147.600150 207.817120" fill="none" stroke="black" stroke-width="1.000000" />
	<path d="M 165.573150 6.049020 L 166.038574 6.219722 L 166.503998 6.390424 L 166.974189 6.547383 L 167.445336 6.701587 L 167.923038 6.833038 L 168.404020 6.953100 L 168.889615 7.050093 L 169.379782 7.124220 L 169.870181 7.196761 L 170.361040 7.266157 L 170.852121 7.333857 L 171.344301 7.393168 L 171.836482 7.452466 L 172.329694 7.502473 L 172.822905 7.552480 L 173.316754 7.595645 L 173.810728 7.637451 L 174.305295 7.671044 L 174.800157 7.700546 L 175.295256 7.725306 L 175.790591 7.745336 L 176.285999 7.763246 L 176.781551 7.776922 L 177.277132 7.788792 L 177.772865 7.791631 L 178.268597 7.794470 L 178.763801 7.771408 L 179.259004 7.748337 L 179.752537 7.702716 L 180.245735 7.652578 L 180.738024 7.594454 L 181.229856 7.532332 L 181.719963 7.458719 L 182.208338 7.373585 L 182.692543 7.270505 L 183.168407 7.131537 L 183.642757 6.987905 L 184.109539 6.820953 L 184.576307 6.653964 L 185.028477 6.450738 L 185.480647 6.247512 L 185.928494 6.034979 L 186.375483 5.820596 L 186.821650 5.604514 L 187.267407 5.387584 L 187.712922 5.170155 L 188.158193 4.952228 L 188.603333 4.734034 L 189.048210 4.515303 L 189.492733 4.295861 L 189.935481 4.072854 L 190.378230 3.849846 L 190.806695 3.600496 L 191.235147 3.351122 L 191.651095 3.081615 L 192.064552 2.808098 L 192.466914 2.518826 L 192.863741 2.221695 L 193.255768 1.918360 L 193.643013 1.608844 L 194.027698 1.296205 L 194.407279 0.977337 L 194.785482 0.656870 L 195.528150 0.000000" fill="none" stroke="black" stroke-width="1.000000" />
	<path d="M 0.000000 129.851120 L 1.139963 128.210642 L 2.296134 126.581668 L 3.468299 124.964532 L 4.656802 123.358997 L 5.890556 121.788284 L 7.124572 120.217778 L 8.400096 118.680422 L 9.687851 117.153545 L 10.988128 115.637069 L 12.330231 114.157947 L 13.672872 112.679314 L 15.055705 111.237705 L 16.449110 109.806529 L 17.853254 108.385669 L 19.287482 106.995403 L 20.722251 105.605693 L 22.190653 104.251424 L 23.672827 102.912702 L 25.169133 101.589328 L 26.693820 100.298800 L 28.219047 99.008910 L 29.766449 97.745546 L 31.321298 96.491515 L 32.883669 95.246710 L 34.462997 94.023542 L 36.042760 92.800936 L 37.637741 91.598176 L 39.238318 90.402973 L 40.844339 89.214993 L 42.456329 88.035090 L 44.090674 86.886353 L 45.725602 85.738444 L 47.379349 84.617817 L 49.051508 83.524854 L 50.724481 82.433138 L 52.424292 81.383698 L 54.124902 80.335552 L 55.837930 79.307828 L 57.563164 78.300728 L 59.288906 77.294498 L 61.029618 76.314393 L 62.770835 75.335187 L 64.515661 74.362424 L 66.264083 73.396142 L 68.012921 72.430610 L 69.772955 71.485644 L 71.533413 70.541466 L 73.302482 69.613522 L 75.080056 68.701979 L 76.856993 67.789192 L 78.617553 66.845206 L 80.377416 65.899919 L 82.190594 65.061440 L 84.050620 64.332752 L 85.910882 63.604667 L 87.776365 62.890064 L 89.642078 62.176062 L 91.508932 61.465050 L 93.376925 60.757036 L 95.245118 60.049549 L 97.117488 59.353191 L 98.990058 58.657371 L 100.866975 57.973365 L 102.748183 57.301248 L 104.629903 56.630567 L 106.521666 55.988761 L 108.413930 55.348433 L 110.311766 54.724814 L 112.215056 54.118044 L 114.118798 53.512690 L 116.030956 52.934476 L 117.943558 52.357727 L 119.860080 51.794144 L 121.780459 51.243846 L 123.701269 50.695056 L 125.629782 50.173978 L 127.558719 49.654475 L 129.493274 49.156298 L 131.433257 48.679694 L 133.373394 48.203722 L 135.316243 47.738940 L 137.259251 47.274828 L 139.217367 46.879273 L 141.188287 46.553454 L 143.160288 46.234256 L 145.147236 46.027568 L 147.134891 45.827789 L 149.118916 45.594702 L 151.098721 45.328140 L 153.078274 45.059716 L 155.053541 44.761386 L 157.028525 44.461183 L 159.006934 44.184450 L 160.988507 43.931364 L 162.970662 43.682886 L 164.960529 43.506493 L 166.950806 43.334803 L 168.943648 43.196007 L 170.938515 43.090227 L 172.933487 42.986460 L 174.929815 42.913259 L 176.926217 42.842093 L 178.922935 42.780458 L 180.919926 42.728398 L 182.916941 42.677272 L 184.914265 42.640127 L 186.911607 42.603940 L 188.909224 42.589469 L 190.906880 42.596856 L 192.904527 42.606242 L 194.901817 42.645189 L 196.899065 42.686199 L 198.895879 42.744674 L 200.892098 42.820764 L 202.888194 42.900053 L 204.881879 43.026162 L 206.875351 43.155592 L 208.866644 43.315070 L 210.855279 43.504848 L 212.843605 43.697829 L 214.826893 43.937104 L 216.809778 44.179693 L 218.789115 44.449708 L 220.764486 44.747357 L 222.739253 45.048978 L 224.704500 45.407432 L 226.668995 45.769979 L 228.626431 46.168887 L 230.576067 46.604322 L 232.524549 47.044890 L 234.455195 47.558011 L 236.384445 48.076349 L 238.320618 48.568201 L 240.263395 49.033284 L 242.206089 49.498713 L 244.147597 49.969060 L 246.089019 50.439766 L 248.026154 50.927814 L 249.958805 51.433329 L 251.889686 51.945560 L 253.792752 52.553033 L 255.693604 53.167398 L 257.574291 53.840970 L 259.432813 54.573485 L 261.289905 55.309617 L 263.126082 56.096471 L 264.960710 56.886929 L 266.790002 57.689657 L 268.613860 58.504658 L 270.437331 59.320523 L 272.255246 60.148694 L 274.072763 60.977740 L 275.888300 61.811110 L 277.701838 62.648824 L 279.514968 63.487420 L 281.322133 64.338794 L 283.128872 65.191072 L 284.936166 66.042172 L 286.744020 66.892082 L 288.552190 67.741320 L 290.365003 68.580600 L 292.178142 69.419178 L 293.998399 70.242189 L 295.825711 71.049413 L 297.652818 71.857104 L 299.476776 72.671881 L 301.300513 73.487152 L 303.113162 74.326787 L 304.914252 75.190938 L 306.715715 76.054311 L 308.522962 76.905512 L 310.330602 77.755876 L 312.145948 78.589664 L 313.968947 79.406585 L 315.792562 80.222128 L 317.625757 81.015902 L 319.459589 81.808205 L 321.298648 82.588298 L 323.142929 83.355964 L 324.987962 84.121822 L 326.844977 84.858149 L 328.702766 85.592520 L 330.566270 86.312268 L 332.435463 87.017109 L 334.305078 87.720829 L 336.181671 88.405726 L 338.058707 89.089407 L 339.939416 89.762916 L 341.823812 90.426042 L 343.709092 91.086650 L 345.609378 91.702760 L 347.510574 92.316060 L 349.424037 92.889945 L 351.349180 93.423334 L 353.275503 93.952451 L 355.221680 94.403086 L 357.168958 94.848945 L 359.125415 95.252627 L 361.090284 95.613138 L 363.055885 95.969645 L 365.033857 96.249474 L 367.012449 96.524897 L 368.996963 96.753775 L 370.986371 96.935266 L 372.976230 97.111743 L 374.972461 97.187494 L 376.968890 97.257868 L 378.966559 97.257681 L 380.962956 97.186405 L 382.959042 97.106887 L 384.940700 96.854479 L 386.921317 96.594016 L 388.886423 96.234807 L 390.831376 95.778911 L 392.775579 95.319833 L 394.702080 94.791367 L 396.627773 94.259964 L 398.540412 93.683340 L 400.439089 93.062285 L 402.336616 92.437733 L 404.205191 91.731255 L 406.072554 91.021581 L 407.927094 90.279041 L 409.768382 89.504224 L 411.608916 88.727618 L 413.429477 87.905280 L 415.249308 87.081327 L 417.063425 86.244870 L 418.871805 85.396079 L 420.679828 84.546528 L 422.477513 83.675316 L 424.274858 82.803402 L 426.063493 81.913758 L 427.843324 81.006628 L 429.622664 80.098536 L 431.385902 79.159559 L 433.148670 78.219702 L 434.902395 77.263077 L 436.646987 76.289896 L 438.390626 75.315009 L 440.097668 74.277372 L 441.803777 73.238202 L 443.500707 72.184109 L 445.188386 71.115267 L 446.875866 70.046112 L 448.554549 68.963196 L 450.233045 67.879990 L 451.906979 66.789747 L 453.576339 65.692515 L 455.245032 64.594269 L 456.876240 63.441080 L 458.506780 62.286947 L 460.124819 61.115352 L 461.730219 59.926498 L 463.335527 58.737520 L 464.934185 57.539616 L 466.532757 56.341596 L 468.132113 55.144623 L 469.732251 53.948696 L 471.332315 52.752670 L 472.924284 51.545890 L 474.516179 50.339013 L 476.088025 49.106136 L 477.639403 47.847602 L 479.190497 46.588717 L 480.678650 45.256020 L 482.166532 43.923019 L 483.633144 42.566652 L 485.078147 41.187286 L 486.523150 39.807920" fill="none" stroke="black" stroke-width="1.000000" />
	<path d="M 379.570150 112.200120 L 380.058925 112.095494 L 380.547701 111.990868 L 381.036476 111.886241 L 381.525252 111.781615 L 382.014027 111.676989 L 382.504372 111.580517 L 382.997071 111.496281 L 383.489770 111.412046 L 383.982470 111.327811 L 384.475169 111.243575 L 384.967868 111.159340 L 385.463562 111.095888 L 385.960002 111.037618 L 386.456441 110.979347 L 386.952881 110.921077 L 387.449321 110.862806 L 387.946081 110.807686 L 388.444110 110.765086 L 388.942140 110.722486 L 389.440169 110.679887 L 389.938199 110.637287 L 390.436228 110.594687 L 390.934084 110.550126 L 391.431823 110.504262 L 391.929563 110.458398 L 392.427302 110.412534 L 392.925042 110.366670 L 393.422781 110.320804 L 393.919998 110.269588 L 394.417216 110.218372 L 394.914433 110.167156 L 395.411650 110.115940 L 395.908867 110.064724 L 396.405613 110.009356 L 396.901652 109.947767 L 397.397692 109.886178 L 397.893731 109.824589 L 398.389770 109.763001 L 398.885809 109.701412 L 399.381199 109.634850 L 399.876427 109.567045 L 400.371655 109.499240 L 400.866883 109.431435 L 401.362111 109.363631 L 401.857215 109.294951 L 402.351823 109.222763 L 402.846431 109.150575 L 403.341039 109.078387 L 403.835647 109.006199 L 404.330255 108.934012 L 404.823817 108.855180 L 405.316680 108.771909 L 405.809543 108.688638 L 406.302406 108.605367 L 406.795269 108.522095 L 407.288132 108.438824 L 407.776443 108.332054 L 408.264753 108.225272 L 408.753062 108.118491 L 409.241371 108.011710 L 409.729680 107.904928 L 410.215678 107.788684 L 410.698218 107.658289 L 411.180758 107.527893 L 411.663298 107.397498 L 412.145839 107.267102 L 412.628379 107.136707 L 413.109021 106.999524 L 413.589192 106.860659 L 414.069364 106.721793 L 414.549535 106.582928 L 415.029706 106.444062 L 415.510167 106.306218 L 415.991779 106.172436 L 416.473392 106.038653 L 416.955004 105.904871 L 417.436616 105.771089 L 417.918229 105.637306 L 418.400480 105.505860 L 418.883156 105.375968 L 419.365832 105.246076 L 419.848508 105.116183 L 420.331184 104.986291 L 420.813857 104.856389 L 421.288755 104.700441 L 421.763653 104.544493 L 422.238551 104.388545 L 422.713450 104.232597 L 423.188348 104.076648 L 423.662891 103.919630 L 424.136902 103.761006 L 424.610914 103.602383 L 425.084925 103.443759 L 425.558936 103.285135 L 426.032947 103.126512 L 426.506469 102.966435 L 426.979868 102.805994 L 427.453268 102.645553 L 427.926667 102.485112 L 428.400066 102.324671 L 428.872511 102.161543 L 429.341129 101.987629 L 429.809746 101.813715 L 430.278363 101.639801 L 430.746980 101.465888 L 431.215598 101.291974 L 431.679338 101.105759 L 432.139827 100.911342 L 432.600316 100.716924 L 433.060805 100.522507 L 433.521294 100.328090 L 433.981776 100.133657 L 434.434565 99.921925 L 434.887353 99.710193 L 435.340142 99.498461 L 435.792931 99.286729 L 436.245719 99.074997 L 436.697115 98.860347 L 437.146428 98.641336 L 437.595741 98.422324 L 438.045054 98.203312 L 438.494366 97.984301 L 438.943679 97.765289 L 439.392042 97.544341 L 439.840167 97.322910 L 440.288293 97.101480 L 440.736419 96.880049 L 441.184544 96.658618 L 441.632347 96.436540 L 442.078857 96.211870 L 442.525367 95.987199 L 442.971878 95.762529 L 443.418388 95.537859 L 443.864898 95.313189 L 444.306433 95.079055 L 444.744647 94.838604 L 445.182861 94.598154 L 445.621075 94.357703 L 446.059290 94.117252 L 446.497498 93.876791 L 446.928421 93.623506 L 447.359344 93.370221 L 447.790267 93.116936 L 448.221191 92.863651 L 448.652114 92.610366 L 449.085019 92.360531 L 449.520888 92.115856 L 449.956758 91.871181 L 450.392627 91.626506 L 450.828497 91.381831 L 451.264366 91.137156 L 451.697608 90.887872 L 452.130196 90.637441 L 452.562785 90.387010 L 452.995373 90.136579 L 453.427961 89.886148 L 453.859768 89.634392 L 454.288465 89.377357 L 454.717162 89.120321 L 455.145859 88.863286 L 455.574555 88.606251 L 456.003252 88.349215 L 456.429882 88.088784 L 456.855135 87.826091 L 457.280389 87.563398 L 457.705643 87.300705 L 458.556150 86.775320" fill="none" stroke="black" stroke-width="1.000000" />
	<path d="M 377.627150 143.790120 L 378.111653 143.911742 L 378.596155 144.033364 L 379.080658 144.154986 L 379.565161 144.276607 L 380.049702 144.398075 L 380.534349 144.519119 L 381.018997 144.640163 L 381.503644 144.761207 L 381.988292 144.882251 L 382.473024 145.002952 L 382.957832 145.123353 L 383.442639 145.243754 L 383.927446 145.364156 L 384.412254 145.484557 L 384.897212 145.604350 L 385.382208 145.723990 L 385.867204 145.843630 L 386.352199 145.963271 L 386.837208 146.082857 L 387.322405 146.201679 L 387.807602 146.320501 L 388.292799 146.439324 L 388.777996 146.558146 L 389.263358 146.676286 L 389.749053 146.793057 L 390.234747 146.909829 L 390.720442 147.026600 L 391.206136 147.143372 L 391.691864 147.260005 L 392.177613 147.376547 L 392.663363 147.493089 L 393.149113 147.609630 L 393.634862 147.726172 L 394.120522 147.843090 L 394.606167 147.960066 L 395.091812 148.077043 L 395.577457 148.194020 L 396.063046 148.311227 L 396.548268 148.429948 L 397.033489 148.548669 L 397.518711 148.667391 L 398.003932 148.786112 L 398.488811 148.906212 L 398.973174 149.028393 L 399.457536 149.150573 L 399.941898 149.272754 L 400.426260 149.394935 L 400.909744 149.520518 L 401.392787 149.647814 L 401.875830 149.775110 L 402.358873 149.902406 L 402.841916 150.029702 L 403.323974 150.160674 L 403.805960 150.291915 L 404.287946 150.423155 L 404.769932 150.554396 L 405.251675 150.686515 L 405.732433 150.822186 L 406.213190 150.957857 L 406.693948 151.093528 L 407.174706 151.229199 L 407.654805 151.367160 L 408.134145 151.507758 L 408.613485 151.648357 L 409.092825 151.788955 L 409.572165 151.929553 L 410.049340 152.077265 L 410.525719 152.227590 L 411.002098 152.377914 L 411.478477 152.528239 L 411.954857 152.678563 L 412.426176 152.844071 L 412.897486 153.009603 L 413.368797 153.175136 L 413.840108 153.340668 L 414.309798 153.510566 L 414.775007 153.692544 L 415.240215 153.874521 L 415.705424 154.056498 L 416.170633 154.238475 L 416.631221 154.431520 L 417.087759 154.634272 L 417.544296 154.837025 L 418.000833 155.039777 L 418.457371 155.242529 L 418.908558 155.456829 L 419.358413 155.674004 L 419.808269 155.891178 L 420.258124 156.108353 L 420.707769 156.325955 L 421.154503 156.549479 L 421.601238 156.773004 L 422.047972 156.996528 L 422.494707 157.220052 L 422.940814 157.444818 L 423.385669 157.672057 L 423.830525 157.899297 L 424.275381 158.126537 L 424.720237 158.353777 L 425.164554 158.582066 L 425.608514 158.811053 L 426.052473 159.040040 L 426.496432 159.269027 L 426.940391 159.498014 L 427.383943 159.727788 L 427.827432 159.957684 L 428.270921 160.187580 L 428.714410 160.417475 L 429.157875 160.647418 L 429.601182 160.877665 L 430.044489 161.107911 L 430.487797 161.338158 L 430.931104 161.568405 L 431.374416 161.798641 L 431.817737 162.028860 L 432.261059 162.259080 L 432.704380 162.489300 L 433.147701 162.719519 L 433.591128 162.949534 L 434.034609 163.179447 L 434.478089 163.409359 L 434.921570 163.639272 L 435.365050 163.869185 L 435.810915 164.094434 L 436.256951 164.319348 L 436.702987 164.544263 L 437.149023 164.769177 L 437.592723 164.998452 L 438.027053 165.245215 L 438.461383 165.491978 L 438.895713 165.738742 L 439.330044 165.985505 L 439.760185 166.239347 L 440.185543 166.501273 L 440.610900 166.763200 L 441.036258 167.025127 L 441.461615 167.287054 L 441.883524 167.554471 L 442.304181 167.823883 L 442.724837 168.093296 L 443.145494 168.362708 L 443.566150 168.632120" fill="none" stroke="black" stroke-width="1.000000" />
	<path d="M 387.590150 127.746120 L 388.066804 127.893180 L 388.543458 128.040240 L 389.021726 128.181606 L 389.504646 128.306564 L 389.987565 128.431522 L 390.473966 128.541095 L 390.963638 128.636210 L 391.453310 128.731325 L 391.948158 128.791161 L 392.444516 128.840706 L 392.940911 128.889820 L 393.438340 128.927112 L 393.935768 128.964405 L 394.433171 129.002034 L 394.930511 129.040479 L 395.427852 129.078923 L 395.925296 129.115983 L 396.422825 129.151911 L 396.920354 129.187839 L 397.418144 129.219886 L 397.915996 129.251012 L 398.413870 129.281771 L 398.912039 129.307332 L 399.410208 129.332893 L 399.908428 129.357377 L 400.406757 129.379612 L 400.905085 129.401847 L 401.403448 129.423283 L 401.901836 129.444144 L 402.400224 129.465005 L 402.898694 129.483799 L 403.397178 129.502197 L 403.895669 129.520428 L 404.394215 129.537088 L 404.892761 129.553748 L 405.391320 129.570019 L 405.889902 129.585578 L 406.388483 129.601136 L 406.887078 129.616253 L 407.385682 129.631090 L 407.884286 129.645927 L 408.382905 129.660229 L 408.881526 129.674452 L 409.380151 129.688564 L 409.878796 129.701921 L 410.377442 129.715279 L 410.876099 129.728195 L 411.374773 129.740406 L 411.873448 129.752618 L 412.372141 129.764067 L 412.870843 129.775093 L 413.369546 129.786118 L 413.868276 129.795807 L 414.367009 129.805347 L 414.865746 129.814683 L 415.364502 129.822926 L 415.863258 129.831169 L 416.362043 129.836075 L 416.860867 129.836283 L 417.359691 129.836492 L 417.858509 129.834514 L 418.357324 129.831474 L 418.856139 129.828434 L 419.354859 129.818395 L 419.853572 129.807834 L 420.352261 129.796365 L 420.850848 129.780982 L 421.349435 129.765600 L 421.847743 129.744008 L 422.345706 129.714701 L 422.843669 129.685395 L 423.339588 129.633655 L 423.834649 129.572502 L 424.329711 129.511348 L 424.817326 129.406528 L 425.304673 129.300141 L 425.789569 129.184446 L 426.266098 129.036982 L 426.742627 128.889517 L 427.216545 128.734103 L 427.687684 128.570234 L 428.158824 128.406364 L 428.626149 128.232036 L 429.558150 127.876120" fill="none" stroke="black" stroke-width="1.000000" />
	<path d="M 257.418793 212.276779 L 258.224594 211.436552 L 259.034838 210.601900 L 260.025100 209.989929 L 260.953186 209.287109" fill="none" stroke="black" stroke-width="1.000000" />
	<path d="M 319.397552 64.557777 L 320.433533 65.554777 L 321.469512 66.551775 L 322.496625 67.557878 L 323.515569 68.572268 L 324.527150 69.594020" fill="none" stroke="black" stroke-width="1.000000" />
	<path d="M 469.008150 42.705020 L 469.506913 44.599558 L 470.008367 46.493385 L 470.515157 48.385791 L 471.037250 50.274028 L 471.567680 52.159943 L 472.052813 54.057953 L 472.491578 55.967215 L 472.842887 57.894265 L 473.140006 59.830611 L 473.409194 61.771097 L 473.646200 63.715750 L 473.862693 65.662829 L 474.048327 67.613047 L 474.210774 69.565372 L 474.360815 71.518704 L 474.476539 73.474269 L 474.561083 75.431496 L 474.601713 77.390006 L 474.599179 79.349005 L 474.570344 81.307860 L 474.480954 83.264452 L 474.339217 85.218347 L 474.148527 87.167884 L 473.894946 89.110221 L 473.594860 91.046122 L 473.199495 92.963268 L 472.699103 94.857121 L 472.112027 96.725155 L 471.419775 98.557167 L 470.655834 100.360999 L 469.815496 102.129478 L 468.889345 103.855685 L 467.909845 105.551771 L 466.859315 107.204985 L 465.757607 108.824848 L 464.613785 110.414878 L 463.415264 111.964487 L 462.180242 113.484909 L 460.896228 114.964432 L 459.584728 116.419745 L 458.254521 117.857870 L 456.895017 119.268454 L 455.522128 120.665966 L 454.126237 122.040534 L 452.713587 123.397897 L 451.282454 124.735688 L 449.849453 126.071474 L 448.405053 127.394986 L 446.955767 128.713136 L 445.501859 130.026202 L 444.044922 131.335922" fill="none" stroke="black" stroke-width="1.000000" />
	<path d="M 128.586150 96.482120 L 129.080075 96.406662 L 129.573999 96.331203 L 130.067924 96.255745 L 130.561849 96.180287 L 131.055773 96.104829 L 131.549698 96.029370 L 132.043623 95.953912 L 132.537547 95.878454 L 133.031472 95.802996 L 133.525332 95.727125 L 134.018798 95.648723 L 134.512264 95.570321 L 135.005730 95.491920 L 135.499196 95.413518 L 135.992662 95.335116 L 136.486128 95.256714 L 136.979594 95.178312 L 137.473060 95.099910 L 137.966526 95.021508 L 138.459654 94.941076 L 138.951913 94.855422 L 139.444172 94.769769 L 139.936431 94.684116 L 140.428690 94.598463 L 140.920949 94.512810 L 141.413208 94.427156 L 141.905467 94.341503 L 142.397727 94.255850 L 142.889986 94.170197 L 143.382447 94.085728 L 143.875189 94.002896 L 144.367931 93.920064 L 144.860672 93.837232 L 145.353414 93.754400 L 145.846156 93.671568 L 146.338898 93.588736 L 146.831639 93.505904 L 147.324381 93.423072 L 147.817123 93.340240 L 148.310338 93.260319 L 148.803925 93.182687 L 149.297513 93.105054 L 149.791100 93.027421 L 150.284688 92.949788 L 150.778276 92.872156 L 151.271863 92.794523 L 151.765451 92.716890 L 152.259038 92.639257 L 152.752626 92.561624 L 153.247336 92.491689 L 153.742528 92.425052 L 154.237720 92.358415 L 154.732912 92.291778 L 155.228104 92.225142 L 155.723296 92.158505 L 156.218488 92.091868 L 156.713680 92.025231 L 157.208872 91.958594 L 157.704064 91.891958 L 158.201094 91.841292 L 158.698475 91.793669 L 159.195855 91.746045 L 159.693236 91.698422 L 160.190617 91.650798 L 160.687997 91.603175 L 161.185378 91.555551 L 161.682759 91.507928 L 162.180139 91.460304 L 162.677520 91.412681 L 163.175444 91.371134 L 163.673380 91.329711 L 164.171315 91.288288 L 164.669250 91.246865 L 165.167186 91.205442 L 165.665121 91.164019 L 166.163056 91.122596 L 166.660992 91.081173 L 167.158927 91.039750 L 167.656883 90.998580 L 168.154989 90.959265 L 168.653095 90.919950 L 169.151202 90.880634 L 169.649308 90.841319 L 170.147414 90.802003 L 170.645520 90.762688 L 171.143627 90.723372 L 171.641733 90.684057 L 172.139839 90.644742 L 172.638079 90.607291 L 173.136699 90.575146 L 173.635319 90.543001 L 174.133940 90.510856 L 174.632560 90.478711 L 175.131180 90.446566 L 175.629801 90.414421 L 176.128421 90.382276 L 176.627041 90.350131 L 177.125662 90.317987 L 177.624557 90.291251 L 178.123865 90.272630 L 178.623174 90.254010 L 179.122482 90.235389 L 179.621790 90.216768 L 180.121099 90.198147 L 180.620407 90.179526 L 181.119715 90.160905 L 181.619023 90.142284 L 182.118332 90.123663 L 182.617774 90.109754 L 183.117332 90.099859 L 183.616889 90.089965 L 184.116447 90.080070 L 184.616004 90.070175 L 185.115561 90.060280 L 185.615119 90.050385 L 186.114676 90.040490 L 186.614234 90.030596 L 187.113791 90.020701 L 187.613405 90.014887 L 188.113045 90.010994 L 188.612685 90.007101 L 189.112325 90.003209 L 189.611966 89.999316 L 190.111606 89.995423 L 190.611246 89.991530 L 191.110886 89.987637 L 191.610527 89.983744 L 192.110167 89.979851 L 192.609819 89.979496 L 193.109474 89.979918 L 193.609130 89.980340 L 194.108785 89.980762 L 194.608440 89.981183 L 195.108095 89.981605 L 195.607750 89.982027 L 196.107406 89.982449 L 196.607061 89.982871 L 197.106716 89.983292 L 197.606348 89.988073 L 198.105979 89.993036 L 198.605609 89.997998 L 199.105240 90.002960 L 199.604871 90.007923 L 200.104502 90.012885 L 200.604132 90.017847 L 201.103763 90.022810 L 201.603394 90.027772 L 202.103020 90.033082 L 202.602604 90.041518 L 203.102188 90.049954 L 203.601772 90.058390 L 204.101356 90.066827 L 204.600941 90.075263 L 205.100525 90.083699 L 205.600109 90.092135 L 206.099693 90.100571 L 206.599277 90.109007 L 207.098826 90.118960 L 207.598264 90.133716 L 208.097701 90.148472 L 208.597139 90.163228 L 209.096576 90.177984 L 209.596013 90.192740 L 210.095451 90.207496 L 210.594888 90.222252 L 211.094326 90.237008 L 211.593763 90.251764 L 212.092952 90.272129 L 212.591735 90.301643 L 213.090518 90.331158 L 213.589301 90.360673 L 214.088084 90.390187 L 214.586866 90.419702 L 215.085649 90.449216 L 215.584432 90.478731 L 216.083215 90.508245 L 216.581998 90.537760 L 217.080423 90.572448 L 217.578518 90.611911 L 218.076612 90.651373 L 218.574707 90.690836 L 219.072801 90.730299 L 219.570896 90.769762 L 220.068990 90.809224 L 220.567085 90.848687 L 221.065180 90.888150 L 221.563274 90.927613 L 222.060437 90.976944 L 222.557121 91.031359 L 223.053804 91.085774 L 223.550488 91.140189 L 224.047171 91.194605 L 224.543855 91.249020 L 225.040538 91.303435 L 225.537222 91.357850 L 226.033905 91.412265 L 226.530589 91.466680 L 227.025173 91.537222 L 227.519232 91.611795 L 228.013291 91.686368 L 228.507350 91.760941 L 229.001409 91.835513 L 229.495468 91.910086 L 229.989527 91.984659 L 230.483586 92.059232 L 230.977646 92.133805 L 231.471705 92.208378 L 231.963600 92.296030 L 232.455358 92.384517 L 232.947116 92.473004 L 233.438873 92.561491 L 233.930631 92.649978 L 234.422388 92.738465 L 234.914146 92.826952 L 235.405904 92.915439 L 235.897661 93.003926 L 236.389316 93.092964 L 236.879785 93.188334 L 237.370254 93.283704 L 237.860723 93.379074 L 238.351192 93.474445 L 238.841662 93.569815 L 239.332131 93.665185 L 239.822600 93.760556 L 240.313069 93.855926 L 240.803538 93.951296 L 241.293641 94.048469 L 241.782447 94.152029 L 242.271252 94.255590 L 242.760058 94.359151 L 243.248863 94.462711 L 243.737668 94.566272 L 244.226474 94.669833 L 244.715279 94.773393 L 245.204084 94.876954 L 245.692890 94.980514 L 246.181005 95.087197 L 246.667892 95.199429 L 247.154780 95.311660 L 247.641668 95.423892 L 248.128555 95.536124 L 248.615443 95.648355 L 249.102330 95.760587 L 249.589218 95.872819 L 250.076106 95.985050 L 250.562993 96.097282 L 251.049329 96.211858 L 251.535111 96.328779 L 252.020894 96.445700 L 252.506677 96.562620 L 252.992460 96.679541 L 253.478243 96.796462 L 253.964026 96.913383 L 254.449809 97.030303 L 254.935592 97.147224 L 255.421375 97.264145 L 255.906894 97.382152 L 256.392265 97.500771 L 256.877637 97.619389 L 257.363008 97.738007 L 257.848379 97.856626 L 258.333750 97.975244 L 258.819121 98.093863 L 259.304492 98.212481 L 259.789864 98.331100 L 260.275235 98.449718 L 260.761119 98.566210 L 261.247149 98.682102 L 261.733178 98.797994 L 262.219207 98.913886 L 262.705237 99.029778 L 263.191266 99.145671 L 263.677295 99.261563 L 264.163325 99.377455 L 264.649354 99.493347 L 265.135383 99.609239 L 265.622311 99.721292 L 266.109316 99.833011 L 266.596322 99.944731 L 267.083327 100.056450 L 267.570332 100.168170 L 268.057338 100.279889 L 268.544343 100.391608 L 269.031349 100.503328 L 269.518354 100.615047 L 270.005321 100.726931 L 270.491692 100.841383 L 270.978062 100.955836 L 271.464432 101.070289 L 271.950802 101.184742 L 272.437173 101.299195 L 272.923543 101.413648 L 273.409913 101.528101 L 273.896283 101.642554 L 274.382654 101.757007 L 274.868778 101.872481 L 275.353919 101.992038 L 275.839060 102.111595 L 276.324201 102.231151 L 276.809342 102.350708 L 277.294482 102.470265 L 277.779623 102.589822 L 278.264764 102.709379 L 278.749905 102.828935 L 279.235046 102.948492 L 279.720140 103.068238 L 280.205143 103.188351 L 280.690147 103.308464 L 281.175150 103.428578 L 281.660154 103.548691 L 282.145157 103.668804 L 282.630161 103.788917 L 283.115164 103.909030 L 283.600168 104.029143 L 284.085171 104.149256 L 284.570079 104.269753 L 285.054884 104.390665 L 285.539689 104.511577 L 286.024494 104.632490 L 286.509299 104.753402 L 286.994103 104.874314 L 287.478908 104.995226 L 287.963713 105.116139 L 288.448518 105.237051 L 288.933323 105.357963 L 289.418134 105.478850 L 289.902949 105.599721 L 290.387764 105.720593 L 290.872579 105.841464 L 291.357394 105.962335 L 291.842209 106.083206 L 292.327024 106.204077 L 292.811839 106.324949 L 293.296654 106.445820 L 293.781470 106.566691 L 294.266515 106.686631 L 294.751634 106.806277 L 295.236753 106.925924 L 295.721872 107.045570 L 296.206991 107.165216 L 296.692110 107.284863 L 297.177228 107.404509 L 297.662347 107.524155 L 298.147466 107.643801 L 298.632585 107.763448 L 299.118937 107.877966 L 299.605425 107.991914 L 300.091914 108.105863 L 300.578403 108.219811 L 301.064891 108.333760 L 301.551380 108.447708 L 302.037869 108.561657 L 302.524357 108.675605 L 303.010846 108.789554 L 303.497430 108.903077 L 303.986287 109.006393 L 304.475144 109.109708 L 304.964001 109.213024 L 305.452858 109.316340 L 305.941715 109.419656 L 306.430573 109.522971 L 306.919430 109.626287 L 307.408287 109.729603 L 307.897144 109.832919 L 308.386203 109.935255 L 308.876178 110.033131 L 309.366153 110.131007 L 309.856129 110.228883 L 310.346104 110.326760 L 310.836079 110.424636 L 311.326054 110.522512 L 311.816030 110.620388 L 312.306005 110.718264 L 312.795980 110.816140 L 313.286173 110.912905 L 313.776830 111.007307 L 314.267486 111.101710 L 314.758142 111.196113 L 315.248799 111.290516 L 315.739455 111.384919 L 316.230111 111.479322 L 316.720767 111.573725 L 317.211424 111.668128 L 317.702080 111.762530 L 318.192528 111.858003 L 318.682731 111.954732 L 319.172934 112.051461 L 319.663137 112.148190 L 320.153340 112.244919 L 320.643543 112.341648 L 321.133746 112.438377 L 321.623949 112.535106 L 322.114152 112.631834 L 322.604355 112.728563 L 323.092904 112.833122 L 323.580351 112.942900 L 324.067798 113.052679 L 324.555244 113.162457 L 325.042691 113.272235 L 325.530138 113.382014 L 326.017584 113.491792 L 326.505031 113.601570 L 326.992478 113.711349 L 327.479924 113.821127 L 327.968781 113.924367 L 328.458134 114.025311 L 328.947486 114.126254 L 329.436839 114.227198 L 329.926191 114.328142 L 330.415544 114.429085 L 330.904896 114.530029 L 331.394249 114.630972 L 331.883601 114.731916 L 332.372954 114.832860 L 332.865016 114.919469 L 333.357448 115.004125 L 333.849879 115.088781 L 334.342311 115.173436 L 334.834743 115.258092 L 335.327174 115.342747 L 335.819606 115.427403 L 336.312038 115.512058 L 336.804469 115.596714 L 337.296957 115.681001 L 337.792201 115.747253 L 338.287445 115.813504 L 338.782688 115.879755 L 339.277932 115.946007 L 339.773176 116.012258 L 340.268419 116.078509 L 340.763663 116.144761 L 341.258906 116.211012 L 341.754150 116.277263 L 342.249450 116.343086 L 342.745045 116.406656 L 343.240640 116.470226 L 343.736235 116.533796 L 344.231830 116.597366 L 344.727425 116.660937 L 345.223019 116.724507 L 345.718614 116.788077 L 346.214209 116.851647 L 346.709804 116.915218 L 347.205522 116.977808 L 347.701524 117.038114 L 348.197527 117.098419 L 348.693530 117.158725 L 349.189533 117.219030 L 349.685535 117.279335 L 350.181538 117.339641 L 350.677541 117.399946 L 351.173544 117.460251 L 351.669547 117.520557 L 352.165721 117.579410 L 352.662114 117.636415 L 353.158507 117.693419 L 353.654900 117.750424 L 354.151293 117.807429 L 354.647686 117.864434 L 355.144079 117.921438 L 355.640472 117.978443 L 356.136865 118.035448 L 356.633258 118.092453 L 357.130160 118.144668 L 357.627432 118.193415 L 358.124704 118.242162 L 358.621976 118.290909 L 359.119247 118.339656 L 359.616519 118.388403 L 360.113791 118.437150 L 360.611063 118.485898 L 361.108335 118.534645 L 361.605606 118.583392 L 362.102943 118.631472 L 362.600305 118.679293 L 363.097666 118.727114 L 363.595028 118.774935 L 364.092390 118.822755 L 364.589751 118.870576 L 365.087113 118.918397 L 365.584475 118.966218 L 366.081836 119.014039 L 366.579198 119.061860 L 367.076764 119.107505 L 367.574362 119.152795 L 368.071961 119.198086 L 368.569559 119.243376 L 369.067158 119.288667 L 369.564756 119.333958 L 370.062355 119.379248 L 370.559953 119.424539 L 371.555150 119.515120" fill="none" stroke="black" stroke-width="1.000000" />
	<path d="M 383.358150 172.684120 L 383.226057 172.203847 L 383.093964 171.723575 L 382.961871 171.243302 L 382.829778 170.763030 L 382.697685 170.282757 L 382.566845 169.802171 L 382.456594 169.316419 L 382.346342 168.830667 L 382.236091 168.344915 L 382.125839 167.859163 L 382.015587 167.373411 L 381.908337 166.887062 L 381.824203 166.396112 L 381.740068 165.905163 L 381.655933 165.414213 L 381.571798 164.923263 L 381.487663 164.432314 L 381.409580 163.940547 L 381.360468 163.444867 L 381.311355 162.949188 L 381.262242 162.453508 L 381.213130 161.957829 L 381.164017 161.462149 L 381.121949 160.965989 L 381.103250 160.468233 L 381.084551 159.970478 L 381.065852 159.472722 L 381.047153 158.974966 L 381.028454 158.477211 L 381.018007 157.979381 L 381.027731 157.481369 L 381.037455 156.983357 L 381.047179 156.485346 L 381.056902 155.987334 L 381.066626 155.489322 L 381.098570 154.993174 L 381.171933 154.500500 L 381.245297 154.007825 L 381.318660 153.515151 L 381.392023 153.022476 L 381.465386 152.529802 L 381.579905 152.047643 L 381.751867 151.580161 L 381.923828 151.112679 L 382.095789 150.645197 L 382.267751 150.177714 L 382.439712 149.710232 L 382.656131 149.264290 L 382.916425 148.839605 L 383.176719 148.414920 L 383.437013 147.990235 L 383.697307 147.565550 L 383.957601 147.140865 L 384.232637 146.725843 L 384.518216 146.317732 L 384.803796 145.909621 L 385.089376 145.501510 L 385.374955 145.093399 L 385.660535 144.685288 L 385.949516 144.279591 L 386.240407 143.875249 L 386.531298 143.470906 L 386.822189 143.066564 L 387.113080 142.662222 L 387.403971 142.257880 L 387.687157 141.848150 L 387.967008 141.436090 L 388.246859 141.024030 L 388.526710 140.611969 L 388.806561 140.199909 L 389.086412 139.787849 L 389.342275 139.360780 L 389.590450 138.928901 L 389.838625 138.497023 L 390.086801 138.065144 L 390.334976 137.633265 L 390.583152 137.201387 L 390.793472 136.750296 L 390.995549 136.295021 L 391.197625 135.839746 L 391.399702 135.384470 L 391.601778 134.929195 L 391.803854 134.473920 L 391.928187 133.992454 L 392.042799 133.507712 L 392.157411 133.022971 L 392.272024 132.538229 L 392.386636 132.053488 L 392.501248 131.568746 L 392.501396 131.070701 L 392.501013 130.572595 L 392.500629 130.074488 L 392.500246 129.576382 L 392.499863 129.078275 L 392.491363 128.580922 L 392.400149 128.091238 L 392.308936 127.601554 L 392.217722 127.111870 L 392.126508 126.622186 L 392.035295 126.132502 L 391.933230 125.645623 L 391.775736 125.173070 L 391.618243 124.700517 L 391.460749 124.227965 L 391.303256 123.755412 L 391.145763 123.282859 L 390.974128 122.816078 L 390.756005 122.368269 L 390.537882 121.920460 L 390.319759 121.472652 L 390.101636 121.024843 L 389.883512 120.577035 L 389.649639 120.138091 L 389.379977 119.719292 L 389.110315 119.300494 L 388.840652 118.881695 L 388.570990 118.462896 L 388.301328 118.044097 L 388.024692 117.630019 L 387.736032 117.224081 L 387.447373 116.818142 L 387.158713 116.412204 L 386.870054 116.006265 L 386.581394 115.600327 L 386.303734 115.187073 L 386.040969 114.763913 L 385.778204 114.340752 L 385.515439 113.917592 L 385.252674 113.494431 L 384.989910 113.071270 L 384.768180 112.627590 L 384.587269 112.163498 L 384.406359 111.699405 L 384.225449 111.235313 L 384.044538 110.771221 L 383.863628 110.307128 L 383.736926 109.827769 L 383.649038 109.337477 L 383.561150 108.847185 L 383.473263 108.356893 L 383.385375 107.866602 L 383.297487 107.376310 L 383.250833 106.881328 L 383.226361 106.383823 L 383.201889 105.886318 L 383.177417 105.388812 L 383.152945 104.891307 L 383.128473 104.393802 L 383.122972 103.895874 L 383.125262 103.397773 L 383.127551 102.899671 L 383.129840 102.401570 L 383.132130 101.903469 L 383.134419 101.405367 L 383.153193 100.907697 L 383.176979 100.410159 L 383.200765 99.912621 L 383.224552 99.415082 L 383.248338 98.917544 L 383.272124 98.420005 L 383.329021 97.925395 L 383.392910 97.431402 L 383.456799 96.937410 L 383.520688 96.443418 L 383.584577 95.949425 L 383.648466 95.455433 L 383.760525 94.970417 L 383.878853 94.486569 L 383.997182 94.002721 L 384.115510 93.518874 L 384.233839 93.035026 L 384.352167 92.551178 L 384.504918 92.077154 L 384.659765 91.603727 L 384.814611 91.130300 L 384.969457 90.656873 L 385.124304 90.183447 L 385.279150 89.710020" fill="none" stroke="black" stroke-width="1.000000" />
	<path d="M 45.244610 121.092409 L 45.314177 120.603856 L 45.383743 120.115303 L 45.453310 119.626750 L 45.522978 119.138211 L 45.592895 118.649708 L 45.662813 118.161205 L 45.732730 117.672702 L 45.947718 117.249655 L 46.267715 116.873988 L 46.587712 116.498321 L 46.907708 116.122654 L 47.314949 115.850754 L 47.739988 115.600024 L 48.165027 115.349294 L 48.588088 115.095362 L 49.002523 114.827468 L 49.416958 114.559574 L 49.831394 114.291681 L 50.270573 114.075857 L 50.740021 113.923730 L 51.209468 113.771604 L 51.678916 113.619478 L 52.165206 113.556561 L 52.657805 113.527056 L 53.150403 113.497550 L 53.640880 113.523570 L 54.129792 113.590570 L 54.618704 113.657570 L 55.107616 113.724570 L 55.576419 113.878231 L 56.044880 114.033371 L 56.513340 114.188511 L 56.977049 114.355550 L 57.423516 114.565767 L 57.869983 114.775983 L 58.316450 114.986200 L 58.754015 115.213366 L 59.180488 115.461648 L 59.606962 115.709930 L 60.033435 115.958212 L 60.412566 116.269187 L 60.768085 116.611430 L 61.123603 116.953673 L 61.479122 117.295916 L 61.756175 117.702081 L 62.019475 118.119450 L 62.282775 118.536819 L 62.546075 118.954188 L 62.702886 119.421897 L 62.858298 119.890267 L 63.013711 120.358637 L 63.153468 120.830267 L 63.197886 121.321745 L 63.242304 121.813223 L 63.286721 122.304701 L 63.297906 122.795114 L 63.222111 123.282740 L 63.146317 123.770366 L 63.070523 124.257992 L 62.853430 124.690140 L 62.577213 125.099075 L 62.300996 125.508010 L 62.024779 125.916945 L 61.748616 126.325917 L 61.472468 126.734898 L 61.196320 127.143880 L 60.920172 127.552861 L 60.650993 127.966443 L 60.383502 128.381138 L 59.848521 129.210530" fill="none" stroke="black" stroke-width="1.000000" />
	<path d="M 438.682150 124.743120 L 439.001244 125.127961 L 439.320338 125.512802 L 439.639433 125.897644 L 439.958527 126.282485 L 440.277621 126.667326 L 440.596715 127.052167 L 440.910756 127.441141 L 441.224618 127.830262 L 441.538479 128.219382 L 441.852341 128.608503 L 442.166202 128.997624 L 442.480063 129.386744 L 442.793085 129.776541 L 443.106045 130.166387 L 443.419005 130.556233 L 443.731964 130.946079 L 444.044924 131.335925 L 444.357884 131.725771 L 444.648318 132.132566 L 444.936196 132.541283 L 445.224074 132.950001 L 445.511952 133.358719 L 445.799830 133.767437 L 446.087708 134.176155 L 446.363647 134.592986 L 446.637708 135.011094 L 446.911769 135.429203 L 447.185830 135.847311 L 447.459890 136.265419 L 447.733951 136.683527 L 447.993436 137.110764 L 448.249944 137.539865 L 448.506452 137.968965 L 448.762961 138.398066 L 449.019469 138.827167 L 449.275977 139.256268 L 449.523100 139.690807 L 449.767824 140.126735 L 450.012549 140.562663 L 450.257274 140.998592 L 450.501999 141.434520 L 450.746724 141.870449 L 450.986111 142.309318 L 451.223834 142.749104 L 451.461556 143.188890 L 451.699278 143.628677 L 451.937000 144.068463 L 452.174722 144.508249 L 452.401187 144.953870 L 452.623457 145.401664 L 452.845727 145.849459 L 453.067998 146.297253 L 453.290268 146.745047 L 453.512538 147.192842 L 453.724545 147.645523 L 453.932043 148.100351 L 454.139541 148.555179 L 454.347039 149.010007 L 454.554536 149.464835 L 454.762034 149.919663 L 454.956384 150.380149 L 455.144000 150.843532 L 455.331616 151.306915 L 455.519232 151.770299 L 455.706847 152.233682 L 455.894463 152.697066 L 456.066976 153.166118 L 456.230574 153.638515 L 456.394172 154.110913 L 456.557769 154.583311 L 456.721367 155.055708 L 456.884965 155.528106 L 457.036480 156.004402 L 457.179799 156.483342 L 457.323119 156.962282 L 457.466439 157.441222 L 457.609758 157.920161 L 457.753078 158.399101 L 457.886252 158.880871 L 458.011534 159.364842 L 458.136816 159.848814 L 458.262099 160.332785 L 458.387381 160.816756 L 458.512663 161.300728 L 458.625285 161.787646 L 458.726639 162.277188 L 458.827993 162.766730 L 458.929347 163.256272 L 459.030701 163.745814 L 459.132055 164.235356 L 459.216868 164.727744 L 459.284982 165.223006 L 459.353096 165.718268 L 459.421210 166.213530 L 459.489325 166.708791 L 459.557439 167.204053 L 459.612065 167.700772 L 459.651292 168.199155 L 459.690518 168.697537 L 459.729745 169.195920 L 459.768971 169.694302 L 459.808197 170.192685 L 459.838626 170.691580 L 459.857581 171.191145 L 459.876537 171.690709 L 459.895492 172.190273 L 459.914448 172.689838 L 459.933403 173.189402 L 459.945800 173.689108 L 459.948383 174.189025 L 459.950967 174.688942 L 459.953550 175.188859 L 459.956134 175.688777 L 459.958717 176.188694 L 459.956158 176.688566 L 459.944725 177.188359 L 459.933291 177.688152 L 459.921858 178.187945 L 459.910424 178.687738 L 459.898991 179.187531 L 459.883442 179.687179 L 459.859652 180.186537 L 459.835862 180.685894 L 459.812072 181.185252 L 459.788282 181.684609 L 459.764492 182.183966 L 459.737144 182.683112 L 459.701454 183.181760 L 459.665763 183.680408 L 459.630073 184.179057 L 459.594383 184.677705 L 459.558693 185.176353 L 459.520945 185.674838 L 459.477489 186.172870 L 459.434033 186.670901 L 459.390577 187.168933 L 459.347121 187.666964 L 459.303666 188.164996 L 459.259171 188.662932 L 459.211212 189.160550 L 459.163253 189.658168 L 459.115295 190.155787 L 459.067336 190.653405 L 459.019377 191.151023 L 458.969718 191.648462 L 458.913103 192.145170 L 458.856488 192.641878 L 458.799872 193.138585 L 458.743257 193.635293 L 458.686642 194.132001 L 458.624948 194.627966 L 458.537040 195.120101 L 458.449132 195.612235 L 458.361224 196.104369 L 458.273316 196.596503 L 458.185409 197.088637 L 458.092087 197.579565 L 457.962653 198.062442 L 457.833219 198.545320 L 457.703785 199.028197 L 457.574351 199.511075 L 457.444917 199.993952 L 457.311028 200.475407 L 457.136539 200.943891 L 456.962051 201.412376 L 456.787563 201.880860 L 456.613074 202.349345 L 456.438586 202.817829 L 456.261960 203.285433 L 456.055755 203.740848 L 455.849549 204.196263 L 455.643343 204.651679 L 455.437138 205.107094 L 455.230932 205.562509 L 455.023846 206.017495 L 454.791730 206.460266 L 454.559614 206.903037 L 454.327498 207.345807 L 454.095382 207.788578 L 453.631150 208.674120" fill="none" stroke="black" stroke-width="1.000000" />
	<path d="M 0.000000 129.851120 L 1.822228 130.462364 L 3.642540 131.079288 L 5.461675 131.699674 L 7.269556 132.352129 L 9.055532 133.062357 L 10.824529 133.813878 L 12.589881 134.573920 L 14.348430 135.349572 L 16.100152 136.140523 L 17.845455 136.945538 L 19.578720 137.776156 L 21.297696 138.635955 L 23.000920 139.526549 L 24.694647 140.435076 L 26.370294 141.376533 L 28.002976 142.390674 L 29.521755 143.567027 L 31.016164 144.771742 L 32.473652 146.024124" fill="none" stroke="black" stroke-width="1.000000" />
	<path d="M 346.701150 160.728120 L 347.012079 161.116981 L 347.323007 161.505842 L 347.633936 161.894703 L 347.944865 162.283563 L 348.251627 162.675580 L 348.541677 163.080253 L 348.831727 163.484926 L 349.121777 163.889600 L 349.411827 164.294273 L 349.692490 164.705278 L 349.959038 165.125803 L 350.225586 165.546328 L 350.492135 165.966854 L 350.758683 166.387379 L 351.018553 166.812015 L 351.273952 167.239404 L 351.529350 167.666792 L 351.784748 168.094181 L 352.040147 168.521570 L 352.286588 168.954154 L 352.530768 169.388050 L 352.774949 169.821945 L 353.019129 170.255841 L 353.263309 170.689736 L 353.503310 171.125958 L 353.743302 171.562184 L 353.983294 171.998410 L 354.223285 172.434637 L 354.462104 172.871498 L 354.696146 173.310945 L 354.930188 173.750392 L 355.164230 174.189839 L 355.398273 174.629286 L 355.626838 175.071542 L 355.847080 175.518065 L 356.067323 175.964587 L 356.287565 176.411110 L 356.507808 176.857633 L 356.716448 177.309572 L 356.917256 177.765165 L 357.118065 178.220758 L 357.318873 178.676352 L 357.519682 179.131945 L 357.704653 179.594114 L 357.885598 180.057955 L 358.066544 180.521796 L 358.247489 180.985637 L 358.428434 181.449478 L 358.590004 181.920417 L 358.751524 182.391374 L 358.913044 182.862331 L 359.074564 183.333288 L 359.231439 183.805711 L 359.369485 184.284076 L 359.507531 184.762441 L 359.645577 185.240805 L 359.783623 185.719170 L 359.910224 186.200472 L 360.019577 186.686199 L 360.128931 187.171927 L 360.238284 187.657654 L 360.347638 188.143382 L 360.435782 188.633086 L 360.509819 189.125436 L 360.583856 189.617785 L 360.657893 190.110135 L 360.731930 190.602484 L 360.777857 191.098049 L 360.816918 191.594399 L 360.855978 192.090750 L 360.895038 192.587100 L 360.934005 193.083456 L 360.953732 193.580950 L 360.973460 194.078444 L 360.993187 194.575938 L 361.012914 195.073432 L 361.030226 195.570993 L 361.038141 196.068815 L 361.046056 196.566637 L 361.053970 197.064459 L 361.061885 197.562282 L 361.064911 198.060122 L 361.060730 198.557989 L 361.056550 199.055857 L 361.052370 199.553724 L 361.048189 200.051592 L 361.037762 200.549342 L 361.023238 201.047015 L 361.008714 201.544688 L 360.994189 202.042361 L 360.979665 202.540034 L 360.955452 203.037307 L 360.928868 203.534482 L 360.902285 204.031656 L 360.875701 204.528831 L 360.849082 205.026004 L 360.811057 205.522434 L 360.773033 206.018865 L 360.735009 206.515296 L 360.696984 207.011727 L 360.656871 207.507976 L 360.608543 208.003510 L 360.560216 208.499044 L 360.511888 208.994578 L 360.463561 209.490112 L 360.413497 209.985469 L 360.360854 210.480563 L 360.308211 210.975657 L 360.255568 211.470751 L 360.202924 211.965845 L 360.149929 212.460902 L 360.096700 212.955933 L 360.043470 213.450964 L 359.990241 213.945996 L 359.937012 214.441027 L 359.884169 214.936100 L 359.831422 215.431183 L 359.778675 215.926266 L 359.725927 216.421349 L 359.673181 216.916432 L 359.622719 217.411753 L 359.572256 217.907074 L 359.521794 218.402395 L 359.471331 218.897716 L 359.422814 219.393216 L 359.382087 219.889433 L 359.341360 220.385649 L 359.300633 220.881866 L 359.259906 221.378082 L 359.204519 221.872545 L 359.127082 222.364372 L 359.049644 222.856198 L 358.972207 223.348024 L 358.894769 223.839850 L 358.799968 224.328414 L 358.693623 224.814809 L 358.587277 225.301204 L 358.480932 225.787599 L 358.374587 226.273994 L 358.255616 226.757412 L 358.133500 227.240089 L 358.011383 227.722766 L 357.889267 228.205443 L 357.767150 228.688120" fill="none" stroke="black" stroke-width="1.000000" />
	<path d="M 288.613150 187.997120 L 289.058070 188.221194 L 289.502989 188.445268 L 289.947909 188.669342 L 290.392828 188.893416 L 290.837748 189.117490 L 291.282416 189.342060 L 291.726362 189.568057 L 292.170308 189.794053 L 292.614254 190.020049 L 293.058200 190.246046 L 293.502146 190.472042 L 293.945413 190.699364 L 294.388043 190.927928 L 294.830672 191.156492 L 295.273302 191.385056 L 295.715932 191.613619 L 296.158562 191.842183 L 296.600192 192.072670 L 297.041530 192.303718 L 297.482868 192.534766 L 297.924206 192.765813 L 298.365544 192.996861 L 298.807249 193.227163 L 299.259955 193.435057 L 299.712661 193.642951 L 300.165366 193.850846 L 300.618072 194.058740 L 301.070778 194.266634 L 301.525297 194.470411 L 301.984252 194.664121 L 302.443206 194.857831 L 302.902160 195.051541 L 303.361114 195.245251 L 303.820069 195.438960 L 304.280780 195.628408 L 304.742937 195.814346 L 305.205095 196.000283 L 305.667253 196.186221 L 306.129410 196.372159 L 306.591568 196.558096 L 307.054766 196.741422 L 307.518213 196.924121 L 307.981661 197.106820 L 308.445109 197.289519 L 308.908556 197.472218 L 309.372028 197.654856 L 309.835848 197.836606 L 310.299668 198.018357 L 310.763488 198.200108 L 311.227308 198.381859 L 311.691128 198.563610 L 312.155663 198.743504 L 312.621698 198.919498 L 313.087733 199.095491 L 313.553769 199.271484 L 314.019804 199.447477 L 314.485839 199.623471 L 314.953303 199.795599 L 315.421798 199.964936 L 315.890293 200.134272 L 316.358788 200.303608 L 316.827283 200.472945 L 317.295779 200.642281 L 317.765764 200.807425 L 318.236036 200.971762 L 318.706308 201.136099 L 319.176580 201.300436 L 319.646853 201.464772 L 320.117355 201.628434 L 320.590009 201.785788 L 321.062664 201.943142 L 321.535318 202.100496 L 322.007973 202.257851 L 322.480627 202.415205 L 322.954195 202.569735 L 323.429426 202.719129 L 323.904656 202.868523 L 324.379887 203.017917 L 324.855117 203.167311 L 325.330348 203.316705 L 325.806719 203.462388 L 326.283811 203.605726 L 326.760903 203.749064 L 327.237995 203.892401 L 327.715087 204.035739 L 328.192179 204.179077 L 328.670325 204.318849 L 329.148629 204.458092 L 329.626932 204.597335 L 330.105235 204.736578 L 330.583538 204.875821 L 331.062162 205.013925 L 331.542948 205.144334 L 332.023735 205.274743 L 332.504522 205.405152 L 332.985309 205.535560 L 333.466096 205.665969 L 333.948060 205.791820 L 334.431888 205.910449 L 334.915716 206.029079 L 335.399544 206.147708 L 335.883372 206.266337 L 336.367200 206.384967 L 336.852143 206.498895 L 337.337701 206.610236 L 337.823258 206.721577 L 338.308815 206.832918 L 338.794372 206.944260 L 339.279929 207.055601 L 339.766556 207.162154 L 340.253299 207.268194 L 340.740041 207.374233 L 341.226784 207.480273 L 341.713526 207.586312 L 342.200397 207.691751 L 342.687936 207.794064 L 343.175475 207.896377 L 343.663015 207.998690 L 344.150554 208.101002 L 344.638093 208.203315 L 345.125657 208.305513 L 345.613254 208.407550 L 346.100851 208.509588 L 346.588448 208.611626 L 347.076045 208.713664 L 347.563642 208.815702 L 348.050144 208.922780 L 348.536124 209.032260 L 349.022104 209.141741 L 349.508084 209.251222 L 349.994064 209.360702 L 350.480044 209.470183 L 350.965485 209.582026 L 351.450889 209.694032 L 351.936293 209.806038 L 352.421697 209.918045 L 352.907101 210.030051 L 353.392887 210.140331 L 353.880266 210.243407 L 354.367644 210.346482 L 354.855023 210.449558 L 355.342402 210.552633 L 355.829780 210.655709 L 356.313754 210.772682 L 356.793590 210.906548 L 357.273426 211.040414 L 357.753262 211.174280 L 358.233098 211.308146 L 358.712933 211.442012 L 359.199427 211.547559 L 359.688647 211.641506 L 360.177867 211.735454 L 360.667087 211.829402 L 361.156307 211.923349 L 361.645528 212.017297 L 362.136619 212.100889 L 362.627774 212.184133 L 363.118929 212.267377 L 363.610084 212.350621 L 364.101238 212.433865 L 364.590967 212.524147 L 365.075801 212.638597 L 365.560635 212.753048 L 366.045468 212.867498 L 366.530302 212.981948 L 367.015136 213.096398 L 367.489471 213.244248 L 367.952596 213.427763 L 368.415721 213.611277 L 368.878846 213.794792 L 369.341971 213.978307 L 369.805097 214.161822 L 370.254693 214.375471 L 370.699585 214.599600 L 371.144476 214.823730 L 371.589367 215.047860 L 372.034259 215.271990 L 372.479150 215.496120" fill="none" stroke="black" stroke-width="1.000000" />
	<path d="M 131.591150 188.763120 L 132.016133 189.024733 L 132.441116 189.286345 L 132.866100 189.547958 L 133.291083 189.809571 L 133.716066 190.071183 L 134.141074 190.332755 L 134.566934 190.592937 L 134.992795 190.853120 L 135.418655 191.113302 L 135.844515 191.373485 L 136.270376 191.633667 L 136.696333 191.893690 L 137.123889 192.151076 L 137.551445 192.408463 L 137.979001 192.665849 L 138.406557 192.923235 L 138.834113 193.180622 L 139.261697 193.437961 L 139.689585 193.694795 L 140.117473 193.951630 L 140.545360 194.208464 L 140.973248 194.465299 L 141.401136 194.722133 L 141.828123 194.980418 L 142.248139 195.249934 L 142.668154 195.519450 L 143.088170 195.788965 L 143.508186 196.058481 L 143.928201 196.327997 L 144.345703 196.601178 L 144.748380 196.895971 L 145.151058 197.190764 L 145.553735 197.485556 L 145.956413 197.780349 L 146.359090 198.075141 L 146.758303 198.374367 L 147.141610 198.693941 L 147.524917 199.013515 L 147.908225 199.333088 L 148.291532 199.652662 L 148.674840 199.972235 L 149.055578 200.294775 L 149.426602 200.628532 L 149.797625 200.962288 L 150.168649 201.296044 L 150.539673 201.629800 L 150.910697 201.963557 L 151.279599 202.299609 L 151.641711 202.643014 L 152.003824 202.986419 L 152.365936 203.329823 L 152.728048 203.673228 L 153.090160 204.016632 L 153.446041 204.366191 L 153.784925 204.732537 L 154.123808 205.098884 L 154.462691 205.465231 L 154.801575 205.831578 L 155.140458 206.197924 L 155.450115 206.585413 L 155.692001 207.021925 L 155.933888 207.458437 L 156.175775 207.894949 L 156.417662 208.331461 L 156.659548 208.767973 L 156.885582 209.212191 L 157.079416 209.672061 L 157.273251 210.131930 L 157.467085 210.591800 L 157.660920 211.051670 L 157.854754 211.511539 L 157.997298 211.984583 L 158.049081 212.480940 L 158.100864 212.977298 L 158.152647 213.473655 L 158.204429 213.970012 L 158.256212 214.466369 L 158.282047 214.963897 L 158.275184 215.462901 L 158.268322 215.961905 L 158.261459 216.460909 L 158.254597 216.959912 L 158.247734 217.458916 L 158.235653 217.957791 L 158.217796 218.456522 L 158.199938 218.955253 L 158.182080 219.453985 L 158.164222 219.952716 L 158.146365 220.451448 L 158.125516 220.950054 L 158.101716 221.448537 L 158.077915 221.947020 L 158.054114 222.445503 L 158.030313 222.943986 L 158.006512 223.442469 L 157.976970 223.940616 L 157.942382 224.438467 L 157.907793 224.936318 L 157.873204 225.434169 L 157.838616 225.932020 L 157.804027 226.429871 L 157.763226 226.927220 L 157.717569 227.424178 L 157.671912 227.921136 L 157.626255 228.418095 L 157.580598 228.915053 L 157.534941 229.412011 L 157.484404 229.908479 L 157.430477 230.404608 L 157.376550 230.900737 L 157.322624 231.396866 L 157.268697 231.892994 L 157.214770 232.389123 L 157.158699 232.885011 L 157.101307 233.380751 L 157.043915 233.876491 L 156.986523 234.372231 L 156.929132 234.867971 L 156.871740 235.363711 L 156.812718 235.859258 L 156.752808 236.354700 L 156.692898 236.850142 L 156.632988 237.345584 L 156.573078 237.841026 L 156.513168 238.336467 L 156.450998 238.831628 L 156.387746 239.326655 L 156.324494 239.821681 L 156.261241 240.316707 L 156.197989 240.811733 L 156.134736 241.306760 L 156.067427 241.801244 L 155.998415 242.295500 L 155.929404 242.789756 L 155.860393 243.284013 L 155.791382 243.778269 L 155.722370 244.272525 L 155.650102 244.766312 L 155.576648 245.259928 L 155.503195 245.753543 L 155.429741 246.247159 L 155.356288 246.740775 L 155.282834 247.234390 L 155.206790 247.727611 L 155.129936 248.220709 L 155.053082 248.713807 L 154.976228 249.206904 L 154.899374 249.700002 L 154.822520 250.193100 L 154.723213 250.682029 L 154.617956 251.169854 L 154.512699 251.657678 L 154.407441 252.145503 L 154.302184 252.633327 L 154.196926 253.121152 L 154.054908 253.599253 L 153.905209 254.075322 L 153.755509 254.551391 L 153.605810 255.027461 L 153.456111 255.503530 L 153.306411 255.979599 L 153.156519 256.455608 L 153.006596 256.931607 L 152.856672 257.407605 L 152.706749 257.883604 L 152.556826 258.359603 L 152.406903 258.835602 L 152.312255 259.325283 L 152.222831 259.816256 L 152.133407 260.307230 L 152.043984 260.798204 L 151.954560 261.289178 L 151.865137 261.780152 L 151.777358 262.271422 L 151.689681 262.762711 L 151.602004 263.254000 L 151.514327 263.745288 L 151.426649 264.236577 L 151.338972 264.727866 L 151.270367 265.222167 L 151.202324 265.716558 L 151.134280 266.210948 L 151.066237 266.705339 L 150.998193 267.199729 L 150.930150 267.694120" fill="none" stroke="black" stroke-width="1.000000" />
	<path d="M 106.743149 198.270126 L 107.619768 200.061752 L 108.511244 201.845810 L 109.450039 203.604861 L 110.418530 205.347724 L 111.430036 207.066642 L 112.456381 208.776938 L 113.503064 210.474898 L 114.554322 212.170029 L 115.607862 213.863744 L 116.663093 215.556406 L 117.719911 217.248077 L 118.783076 218.935766 L 119.855779 220.617409 L 120.957458 222.280213 L 122.074901 223.932466 L 123.207839 225.574131 L 124.367197 227.197247 L 125.535339 228.814052 L 126.711919 230.424727 L 127.902742 232.024901 L 129.110382 233.612421 L 130.333701 235.187892 L 131.583250 236.742639 L 132.870559 238.266270 L 134.187435 239.764420 L 135.542907 241.227742 L 136.938066 242.653276 L 138.349140 244.063058 L 139.774113 245.458790 L 141.214722 246.838377 L 142.665147 248.207640 L 144.126227 249.565529 L 145.615920 250.891963 L 147.123345 252.198212 L 148.643653 253.489444 L 150.173403 254.769475 L 151.710401 256.040794 L 153.259031 257.297918 L 154.832210 258.524182 L 156.444425 259.698652 L 158.065558 260.860780 L 159.686337 262.023402 L 161.305049 263.188900 L 162.922955 264.355518 L 164.540150 265.523120" fill="none" stroke="black" stroke-width="1.000000" />
</svg>