<?xml version="1.0" standalone="no" ?>
<!DOCTYPE svg PUBLIC "-//W3C//DTD SVG 1.1//EN" "http://www.w3.org/Graphics/SVG/1.1/DTD/svg11.dtd">
<svg width="490px" height="291px" xmlns="http://www.w3.org/2000/svg" version="1.1" >
	<image style="overflow: visible; opacity: 0.4" width="490" height="291" href="C:\Users\bmpix\Documents\mit\projects\vectorization\polyvector_thing\cpp\polyvector_thing\x64\Release\binary_to_share\smallcar2_0500_input.png" transform="matrix(1 0 -0.5 0 1 0 )" />
	<polyline points="112.031,42.8028 112.05,42.749 112.11,42.5914 112.118,42.5809 112.219,42.5163 112.685,42.2935 114.166,41.729 116.026,41.1583 117.081,40.9424 120.05,40.5781 126.118,39.9779 127.811,39.8348 132.767,39.4682 132.938,39.4579 135.897,39.3252 137.192,39.2846 138.589,39.2692 139.588,39.2762 141.003,39.301 142.085,39.3185 143.284,39.3284 144.183,39.3257 146.983,39.2979 148.882,39.2831 150.581,39.2813 152.78,39.2942 156.379,39.3261 158.679,39.3436 167.778,39.3933 169.877,39.398 170.576,39.394 171.676,39.381 172.175,39.3774 173.175,39.3805 182.974,39.4731 197.369,39.6602 201.459,39.7595 204.751,39.9024 206.844,40.0393 208.735,40.2033 209.727,40.3107 211.414,40.5211 213,40.7286 213.793,40.8341 215.815,41.1062 219.935,41.6709 221.814,41.9438 222.7,42.0923 225.647,42.6493 228.096,43.1421 233.183,44.2173 234.938,44.6119 236.782,45.0632 240.846,46.1161 243.838,46.9198 246.471,47.6481 246.698,47.7132 246.815,47.7486 249.146,48.4682 249.299,48.5146 252.155,49.3646 252.278,49.4044 252.708,49.5538 252.81,49.5858 254.693,50.1077 255.252,50.2658 255.364,50.302 256.663,50.7781 256.789,50.8252 258.618,51.5219 258.741,51.5706 260.345,52.2399 260.459,52.2905 262.357,53.1744 262.541,53.2617 264.408,54.1639 264.623,54.2633 266.291,55.0027 268.209,55.8552 269.484,56.4312 273.393,58.2239 273.482,58.2649 273.502,58.2746 273.58,58.3102 275.921,59.3676 277.285,59.9899 279.005,60.7877 280.327,61.4091 280.502,61.4939 282.32,62.3901 283.488,62.9541 289.812,65.9528 291.344,66.6883 292.358,67.1953 293.741,67.9225 295.058,68.6509 296.259,69.3524 298.049,70.447 299.655,71.4591 301.964,72.9386 303.863,74.1572 306.051,75.5552 306.201,75.647 306.249,75.6738 306.428,75.7667 308.411,76.7921 309.01,77.1046 309.718,77.477 310.955,78.1302 312.705,79.0543 312.901,79.1584 315.288,80.4325 315.554,80.5723 317.145,81.3989 320.621,83.2259 321.956,83.9539 322.155,84.081 322.231,84.1462 322.293,84.213 322.347,84.2709 322.425,84.3416 322.92,84.7292 323.137,84.885 324.181,85.5839 325.403,86.3948 325.609,86.5356 327.048,87.5514 328.454,88.5516 328.563,88.6332 329.454,89.3318 329.567,89.4169 331.129,90.5508 332.181,91.3141 335.09,93.4351 337.341,95.098 338.322,95.8496 339.927,97.1362 340.14,97.334 340.323,97.5559 340.594,97.965 340.834,98.3949 341.046,98.842 341.391,99.6694 341.533,100.041 341.69,100.487 " fill="none" stroke-width="1" stroke="rgb(232,26,75)" />
	<polyline points="337.823,82.6747 336.752,82.5221 335.366,82.3317 332.689,81.9848 330.009,81.6656 326.036,81.24 323.492,81.0043 323.304,81.0083 323.172,81.0418 323.007,81.1172 322.71,81.2754 322.612,81.3179 322.477,81.3523 322.087,81.407 321.855,81.4223 321.116,81.4369 320.61,81.4538 320.244,81.4822 319.707,81.5429 319.39,81.573 319.215,81.57 319.08,81.5367 315.912,80.259 313.329,79.1851 311.413,78.3716 " fill="none" stroke-width="1" stroke="rgb(232,26,75)" />
	<polyline points="70.0122,24.6901 70.0293,24.5434 70.0799,24.1411 70.0911,24.0901 70.1365,23.9653 70.1494,23.9539 70.4778,23.8749 73.2653,23.3436 75.3214,23.0218 78.9871,22.5713 80.8762,22.3844 83.0686,22.2096 85.4621,22.0358 86.7579,21.9398 87.3549,21.8895 88.7486,21.7606 89.9435,21.6532 90.8051,21.5875 91.4363,21.5564 95.9326,21.4209 100.431,21.2996 103.629,21.2172 106.928,21.129 108.066,21.0918 114.821,20.8357 116.52,20.7712 118.019,20.7193 119.917,20.6684 121.215,20.6534 147.513,20.6288 150.112,20.6365 153.912,20.6656 154.711,20.6727 156.511,20.685 158.209,20.6843 162.707,20.6502 163.605,20.6334 165.503,20.5798 166.301,20.5624 167.2,20.5576 168.298,20.5714 171.097,20.6379 174.695,20.738 175.394,20.7606 178.291,20.8652 184.486,21.0941 189.881,21.2998 192.178,21.3964 194.874,21.5252 196.271,21.6019 198.167,21.7193 200.861,21.8955 203.523,22.0735 203.629,22.0813 206.971,22.3504 208.864,22.5068 210.801,22.6719 210.918,22.6827 215.051,23.0977 215.169,23.1134 217.352,23.4807 217.583,23.5238 218.788,23.7705 218.915,23.7953 220.206,24.0305 221.143,24.1994 221.25,24.2182 223.597,24.6203 226.257,25.0785 230.71,25.8522 230.889,25.8882 231.788,26.0987 234.021,26.6427 236.346,27.2305 239.365,28.0306 240.874,28.4659 242.201,28.8983 243.791,29.4749 244.473,29.7553 244.647,29.8517 245.098,30.165 245.305,30.3149 245.335,30.3323 245.422,30.3668 246.857,30.8623 248.218,31.3261 248.326,31.3626 249.64,31.8018 249.796,31.8525 251.204,32.2954 251.303,32.3233 253.306,32.8257 254.955,33.2381 256.119,33.532 257.861,33.98 259.185,34.3282 259.324,34.3696 260.64,34.8064 260.742,34.8391 262.19,35.2817 262.289,35.3119 263.673,35.7392 263.817,35.7837 265.202,36.2084 265.313,36.2427 266.69,36.6668 266.831,36.7077 269.009,37.3012 270.643,37.7483 270.75,37.7812 272.168,38.2722 274.241,39.0074 275.094,39.3275 277.218,40.1715 279.25,41.0093 282.102,42.2237 284.171,43.1371 289.845,45.7246 294.027,47.6945 297.856,49.5764 301.183,51.2764 301.336,51.3708 301.412,51.4354 301.453,51.4795 301.606,51.6573 301.862,51.9342 301.981,52.041 302.508,52.4321 302.623,52.502 304.617,53.5051 306.56,54.4716 306.697,54.5396 308.347,55.3624 308.444,55.4104 309.893,56.1227 310.034,56.1936 310.608,56.4896 310.74,56.5522 312.275,57.218 313.835,57.8924 316.55,59.0801 318.035,59.7597 319.814,60.6313 321.41,61.475 326.588,64.3553 329.167,65.8278 331.668,67.2944 332.951,68.0693 336.269,70.1188 337.776,71.0637 339.057,71.8824 341.156,73.2398 343.924,75.0351 346.204,76.5068 348.969,78.2809 351.24,79.7409 352.403,80.5171 353.769,81.5065 354.323,81.9941 354.769,82.5113 355.531,83.5538 355.891,84.0247 355.993,84.1032 357.055,84.5468 358.186,84.9564 359.8,85.4811 360.176,85.5827 360.76,85.7025 361.448,85.8143 365.012,86.3198 366.101,86.4723 367.189,86.6295 368.571,86.8463 369.255,86.9753 369.932,87.137 370.595,87.3298 371.254,87.5507 371.92,87.7908 " fill="none" stroke-width="1" stroke="rgb(232,26,75)" />
	<polyline points="337.823,82.6747 339.911,83.0306 343.757,83.6752 345.533,83.9575 347.116,84.1841 349.296,84.463 351.034,84.6624 351.299,84.6821 351.759,84.6952 351.933,84.6955 353.073,84.682 353.487,84.6836 354.431,84.7144 354.849,84.7526 356.981,85.0507 357.748,85.1522 357.977,85.1678 358.211,85.1617 358.447,85.1419 " fill="none" stroke-width="1" stroke="rgb(232,26,75)" />
	<polyline points="145.7,30.0417 145.615,30.1039 145.43,30.263 144.983,30.7235 144.301,31.5356 143.416,32.7099 143.094,33.175 142.807,33.6181 142.648,33.8712 142.515,34.0849 141.507,35.737 141.215,36.2535 140.719,37.2307 140.292,38.1334 139.854,39.1174 139.091,40.8808 138.302,42.6987 137.964,43.441 137.397,44.6082 136.048,47.2846 135.546,48.247 135.478,48.3551 135.076,48.8978 134.968,49.0454 134.617,49.5525 134.521,49.7201 133.359,52.2145 132.75,53.5815 131.569,56.3382 130.835,58.0899 129.96,60.2164 129.411,61.5799 129.297,61.8857 129.17,62.2634 128.896,63.12 128.657,63.8681 128.608,64.0121 128.534,64.2218 128.465,64.4284 127.606,67.11 127.567,67.225 127.39,67.7216 127.332,67.8955 126.618,70.2448 126.561,70.4277 126.042,72.0307 125.641,73.2437 125.61,73.3265 125.586,73.3748 125.513,73.5075 125.34,73.8422 125.258,74.0439 124.517,76.3554 124.303,77.1189 124.133,77.8939 124.002,78.678 123.887,79.5675 123.79,80.4613 123.572,82.5478 123.442,83.6774 123.421,83.776 123.398,83.8476 123.394,83.8643 123.374,83.9893 123.228,85.1742 123.079,86.6596 123.048,87.2546 123.001,92.6046 123.01,95.8488 123.042,96.7423 123.138,97.9325 123.238,98.7211 123.402,99.6717 123.634,100.777 124.025,102.43 124.451,104.074 124.912,105.706 126.424,110.783 126.868,112.215 127.365,113.735 127.599,114.393 127.984,115.382 128.346,116.243 128.718,117.06 129.242,118.138 130.012,119.659 131.206,121.962 132.743,124.881 133.737,126.729 134.034,127.247 134.868,128.611 137.929,133.537 137.998,133.656 138.607,134.79 138.681,134.933 138.936,135.438 139.011,135.576 139.738,136.823 140.558,138.204 140.708,138.439 142.181,140.615 143.994,143.25 146.57,146.938 147.787,148.649 148.671,149.86 149.333,150.737 150.863,152.714 153.273,155.779 154.401,157.18 156.438,159.646 159.539,163.354 159.745,163.593 162.123,166.265 163.314,167.602 163.424,167.725 164.06,168.439 164.529,168.958 165.615,170.131 166.378,170.929 168.809,173.407 168.92,173.513 169.722,174.233 169.862,174.366 171.057,175.554 172.261,176.753 173.614,178.086 177.84,182.2 182.307,186.496 184.564,188.616 185.898,189.821 188.815,192.382 188.947,192.497 192.089,195.164 194.304,197.035 195.995,198.443 198.858,200.783 199.8,201.518 201.165,202.522 202.873,203.738 203.773,204.369 204.304,204.738 204.401,204.804 204.492,204.862 206.618,206.179 206.703,206.233 207.242,206.582 207.373,206.661 207.832,206.914 208.426,207.231 208.576,207.306 209.58,207.784 209.698,207.832 211.931,208.591 214.397,209.406 215.73,209.826 216.306,209.989 218.643,210.592 218.874,210.641 220.423,210.909 221.954,211.149 222.347,211.193 223.642,211.281 225.339,211.38 227.135,211.486 229.129,211.613 229.866,211.667 229.96,211.677 232.211,212.019 234.975,212.455 235.204,212.502 235.803,212.649 235.929,212.677 238.06,213.082 239.127,213.283 239.215,213.301 239.31,213.319 241.805,213.793 242.424,213.898 244.98,214.276 246.958,214.564 248.045,214.725 249.114,214.888 249.304,214.917 251.678,215.269 252.238,215.343 253.066,215.432 254.093,215.529 255.356,215.637 258.146,215.866 260.138,216.029 261.333,216.132 263.42,216.327 264.93,216.482 265.079,216.503 265.125,216.515 265.204,216.545 265.794,216.795 265.862,216.832 265.884,216.854 265.979,217.005 266.056,217.137 266.175,217.337 266.186,217.345 266.402,217.395 269.249,217.951 271.017,218.279 273.183,218.662 277.648,219.434 277.84,219.471 283.537,220.666 283.632,220.687 283.644,220.69 283.775,220.727 286.604,221.527 286.71,221.556 286.865,221.594 287.552,221.738 288.231,221.853 291.859,222.364 292.032,222.389 292.11,222.402 292.837,222.534 292.951,222.548 295.546,222.704 297.242,222.804 298.739,222.898 301.031,223.055 303.064,223.203 303.164,223.214 305.013,223.472 306.79,223.722 306.92,223.738 307.311,223.776 308.702,223.899 311.59,224.146 313.055,224.276 313.17,224.291 314.68,224.558 314.87,224.587 316.346,224.773 321.307,225.38 323.809,225.686 323.922,225.702 325.304,225.926 325.448,225.948 328.009,226.297 328.176,226.319 328.914,226.412 330.401,226.596 333.279,226.945 335.81,227.247 335.969,227.265 337.71,227.432 343.98,228.038 346.764,228.316 349.05,228.556 350.126,228.674 " fill="none" stroke-width="1" stroke="rgb(232,26,75)" />
	<polyline points="310.995,189.657 310.975,189.523 310.907,189.144 310.89,189.115 310.799,189.064 310.418,188.951 308.443,188.561 304.321,187.899 299.869,187.277 298.977,187.177 296.986,186.997 295.99,186.909 295.216,186.836 294.001,186.713 291.515,186.46 289.027,186.218 287.136,186.051 284.644,185.855 282.849,185.728 280.4,185.565 278.759,185.454 276.964,185.326 270.183,184.819 268.19,184.667 266.993,184.573 262.111,184.171 259.422,183.941 253.147,183.391 250.657,183.178 248.366,182.991 246.869,182.875 244.902,182.725 243.083,182.584 239.993,182.34 238.199,182.198 234.112,181.873 229.827,181.525 228.932,181.439 228.141,181.34 227.255,181.198 226.474,181.042 223.452,180.362 222.972,180.236 220.347,179.462 220.194,179.414 218.901,178.991 217.785,178.626 217.671,178.59 215.953,178.057 214.428,177.574 213.768,177.346 212.087,176.711 210.146,175.927 208.131,175.057 205.861,174.019 203.968,173.113 202.176,172.225 200.82,171.541 199.145,170.688 198.039,170.127 195.754,168.974 194.949,168.571 192.355,167.276 190.837,166.511 188.309,165.216 187.551,164.815 184.036,162.908 181.225,161.381 179.467,160.43 176.918,159.05 175.607,158.325 174.135,157.479 172.075,156.252 169.391,154.614 165.688,152.323 163.142,150.737 161.703,149.833 160.955,149.353 159.609,148.47 158.615,147.8 157.467,147.001 155.615,145.69 153.308,144.051 151.353,142.672 148.553,140.721 147.077,139.707 146.112,139.054 145.915,138.92 145.27,138.483 144.11,137.706 143.525,137.33 143.059,137.054 142.793,136.911 142.656,136.843 142.504,136.764 142.377,136.686 141.423,136.007 140.77,135.525 140.24,135.114 139.386,134.426 138.313,133.551 138.075,133.365 137.82,133.179 137.75,133.132 " fill="none" stroke-width="1" stroke="rgb(232,26,75)" />
	<polyline points="39.7774,95.07 42.2997,95.8354 43.1628,96.0852 44.0309,96.3148 45.1954,96.5983 46.9634,97.0083 48.3134,97.3151 50.654,97.8434 51.9218,98.128 53.5813,98.4935 55.6329,98.9284 56.5119,99.0979 58.6765,99.4799 59.5617,99.6359 60.2482,99.7623 61.1314,99.9314 " fill="none" stroke-width="1" stroke="rgb(232,26,75)" />
	<polyline points="180.06,224.093 178.248,221.236 177.754,220.485 176.789,219.088 175.594,217.411 174.322,215.66 174.263,215.581 174.192,215.489 171.558,212.125 170.138,210.318 169.538,209.561 169.452,209.458 168.334,208.169 167.017,206.656 165.967,205.449 164.721,204.015 161.774,200.614 160.338,198.948 159.429,197.884 158.587,196.893 157.266,195.337 154.57,192.174 152.509,189.775 152.312,189.555 151.426,188.622 150.325,187.467 150.204,187.335 149.17,186.133 148.601,185.44 147.56,184.1 146.487,182.659 144.669,180.149 143.536,178.563 142.201,176.68 142.099,176.54 140.372,174.235 139.213,172.692 139.086,172.524 138.375,171.596 136.183,168.74 136.073,168.599 135.123,167.413 133.149,164.971 132.437,164.11 131.659,163.2 128.255,159.27 127.222,158.053 123.84,153.975 121.808,151.504 120.478,149.879 119.591,148.799 119.393,148.56 119.27,148.417 117.828,146.758 116.66,145.402 114.867,143.303 114.8,143.224 113.911,142.179 113.199,141.351 113.026,141.156 112.903,141.028 110.513,138.65 110.332,138.464 109.671,137.752 107.317,135.166 106.524,134.271 105.68,133.281 104.914,132.358 102.442,129.343 99.9603,126.337 98.2867,124.351 97.6895,123.682 96.7226,122.673 95.0967,121.049 94.0878,120.08 92.3855,118.507 91.3586,117.589 90.7503,117.072 88.6663,115.356 87.5065,114.406 86.0366,113.203 83.7898,111.37 82.3883,110.242 81.6001,109.63 81.1167,109.28 80.6183,108.951 77.8232,107.2 76.0361,106.1 75.1784,105.588 74.6051,105.265 73.7745,104.829 72.9683,104.433 72.0431,104.011 71.2336,103.67 70.6751,103.46 69.9187,103.208 69.1544,102.978 66.4635,102.209 64.7517,101.725 64.5174,101.66 62.7428,101.171 60.3308,100.523 59.751,100.385 58.7824,100.192 56.4166,99.7482 55.8307,99.6302 53.3906,99.0973 51.439,98.6626 " fill="none" stroke-width="1" stroke="rgb(232,26,75)" />
	<polyline points="371.92,87.7908 372.283,88.113 372.603,88.4048 372.785,88.5813 373.297,89.0979 373.716,89.5252 374.971,90.8138 376.217,92.1096 376.889,92.8308 378.459,94.566 379.703,95.9622 381.951,98.512 382.34,98.968 383.534,100.427 384.984,102.228 386.231,103.791 386.916,104.65 387.166,104.961 387.348,105.195 387.509,105.436 387.559,105.575 387.541,105.659 387.3,105.962 386.882,106.324 386.637,106.456 386.27,106.56 385.978,106.599 385.186,106.636 384.82,106.629 383.863,106.549 380.691,106.203 376.721,105.73 372.652,105.231 371.461,105.093 368.579,104.784 365.104,104.424 363.012,104.204 361.822,104.07 356.862,103.473 356.227,103.395 356.113,103.38 355.753,103.335 354.566,103.189 352.085,102.888 350.775,102.723 350.627,102.697 349.963,102.55 349.481,102.443 349.132,102.374 346.811,101.95 345.825,101.768 344.652,101.542 342.299,101.062 342.202,101.026 341.935,100.866 341.821,100.786 341.802,100.77 341.711,100.692 341.66,100.668 340.578,100.421 337.55,99.7735 336.84,99.6202 336.727,99.593 336.526,99.5419 336.251,99.4813 335.568,99.3593 331.422,98.6927 328.855,98.2835 326.881,97.9613 325.208,97.6734 323.241,97.3181 321.571,97.0075 320.392,96.7849 317.841,96.2947 312.938,95.3341 309.493,94.6431 309.18,94.5766 309.121,94.5634 309.016,94.5411 306.343,94.007 304.902,93.7151 304.739,93.6759 303.26,93.2669 303.187,93.2468 303.176,93.2448 302.382,93.1353 300.279,92.8384 299.094,92.6575 298.112,92.4868 296.38,92.1544 296.145,92.1004 294.957,91.7865 294.846,91.7604 294.692,91.7332 292.551,91.4184 290.221,91.082 290.125,91.0682 287.558,90.6894 287.291,90.6487 283.879,90.1039 281.254,89.6651 281.16,89.6339 281.062,89.5727 280.966,89.498 280.873,89.4334 280.811,89.41 279.953,89.2678 279.141,89.1664 274.291,88.6787 272.962,88.5452 272.868,88.5313 272.163,88.3969 271.975,88.3684 270.22,88.1741 267.372,87.8667 266.581,87.7765 265.894,87.6909 265.748,87.6707 264.188,87.4396 262.803,87.2401 259.921,86.8358 259.823,86.8224 259.084,86.7213 257.896,86.5577 254.216,86.0431 254.086,86.0198 253.919,85.9823 253.723,85.9407 252.087,85.6325 249.251,85.1146 249.093,85.0882 248.422,84.9885 247.731,84.8932 244.943,84.5265 244.828,84.5084 244.164,84.3859 244.063,84.3697 239.987,83.818 239.786,83.7908 239.101,83.6997 237.814,83.5369 236.524,83.3851 233.273,83.0204 233.125,83.0019 231.954,82.8373 231.834,82.8232 229.163,82.5742 228.068,82.477 227.071,82.3945 225.975,82.3073 224.878,82.2205 221.069,81.9154 220.864,81.8965 218.992,81.6997 217.726,81.5628 217.542,81.5405 216.362,81.3832 214.975,81.1963 213.489,80.9977 212.002,80.8059 209.324,80.4778 208.53,80.3939 206.638,80.2292 204.445,80.0571 202.251,79.8996 197.163,79.5593 195.268,79.4465 188.579,79.0925 185.483,78.9324 184.385,78.8744 181.29,78.7059 179.294,78.597 176.598,78.4526 175.4,78.3932 174.102,78.339 173.383,78.3199 171.704,78.3013 168.405,78.2875 167.305,78.2898 166.006,78.3004 164.106,78.3181 162.907,78.3246 158.207,78.3276 156.908,78.3162 156.21,78.2923 155.415,78.236 154.924,78.1734 154.443,78.072 153.886,77.9037 153.636,77.7892 152.887,77.3319 152.658,77.159 151.455,76.093 149.821,74.6008 146.966,71.9642 145.643,70.7446 143.575,68.8571 142.161,67.5902 141.329,66.8736 139.636,65.4715 137.149,63.4597 136.596,63.0344 135.302,62.0967 134.808,61.7595 134.301,61.4423 133.525,60.9897 132.131,60.2081 130.344,59.2223 " fill="none" stroke-width="1" stroke="rgb(232,26,75)" />
	<polyline points="488.669,244.994 488.15,241.03 487.417,235.48 487.211,233.995 487.029,232.81 486.746,231.13 486.199,228.084 485.84,226.219 483.446,214.359 483.047,212.504 482.717,211.147 482.147,209.025 481.835,207.972 481.281,206.262 480.918,205.225 479.701,201.963 478.539,198.965 477.779,197.119 476.853,195.02 475.469,192.028 474.129,189.197 474.045,189.027 472.532,186.047 471.393,183.821 470.839,182.758 469.988,181.172 468.981,179.348 468.131,177.86 467.062,176.054 465.114,172.82 465.018,172.661 464.796,172.301 463.271,169.836 460.84,165.933 459.449,163.739 458.845,162.825 458.119,161.772 457.982,161.581 456.581,159.684 456.112,159.028 454.813,157.132 453.781,155.597 452.756,154.057 452.035,152.975 451.361,151.982 449.307,149.029 448.432,147.821 447.582,146.71 447.448,146.547 447.391,146.482 447.334,146.416 446.416,145.321 445.12,143.774 443.766,142.17 441.559,139.585 436.982,134.291 435.457,132.571 432.424,129.251 431.323,128.095 429.699,126.471 428.903,125.716 428.008,124.92 427.47,124.477 426.677,123.87 424.497,122.264 422.564,120.858 419.898,118.931 419.08,118.339 415.676,115.882 414.532,115.08 413.864,114.649 413.09,114.202 412.295,113.793 411.586,113.476 410.384,113.004 409.52,112.7 407.998,112.215 406.946,111.898 405.89,111.59 405.787,111.56 405.235,111.397 405.12,111.369 402.118,110.766 400.256,110.395 400.096,110.362 398.999,110.134 397.873,109.9 397.781,109.882 396.492,109.634 395.255,109.398 395.13,109.375 394.37,109.234 392.703,108.912 391.931,108.749 391.567,108.659 391.378,108.607 391.213,108.562 387.064,107.463 385.904,107.164 384.924,106.92 " fill="none" stroke-width="1" stroke="rgb(232,26,75)" />
	<polyline points="361,151.509 361.142,150.981 361.181,150.937 361.714,150.752 363.721,150.275 366.108,149.864 368.411,149.611 371.201,149.441 374.696,149.322 375.392,149.324 376.187,149.369 378.576,149.572 384.151,150.089 389.04,150.544 390.822,150.701 394.908,151.035 397.2,151.219 399.69,151.429 400.438,151.508 401.469,151.646 403.545,151.959 405.721,152.291 406.608,152.419 408.392,152.653 410.178,152.873 412.561,153.153 416.833,153.646 418.421,153.834 420.802,154.128 421.791,154.262 423.867,154.569 425.25,154.782 427.62,155.158 428.203,155.252 428.217,155.255 428.305,155.274 429.414,155.519 432.194,156.129 432.312,156.157 434.721,156.752 434.822,156.777 437.144,157.386 437.259,157.421 437.708,157.581 437.843,157.628 441.61,158.945 444.372,159.931 444.828,160.106 444.834,160.114 444.904,160.524 444.925,160.661 444.956,160.862 " fill="none" stroke-width="1" stroke="rgb(232,26,75)" />
	<polyline points="468.672,217.99 468.535,217.955 468.139,217.838 468.11,217.811 467.924,217.322 467.163,214.938 466.553,212.884 466.368,212.212 466.343,212.114 465.604,208.936 465.558,208.775 465.375,208.224 465.334,208.106 465.082,207.349 465.013,207.112 464.761,206.084 464.446,204.722 463.786,201.797 463.54,200.726 463.167,199.171 462.872,198.008 462.305,195.884 461.818,194.152 461.16,191.95 460.817,190.908 460.201,189.221 459.467,187.365 458.498,185.066 457.922,183.795 457.266,182.451 457.087,182.126 456.963,181.948 456.833,181.805 456.61,181.616 456.05,181.209 455.468,180.834 454.778,180.444 453.288,179.681 451.022,178.579 446.227,176.304 445.054,175.764 442.953,174.832 441.117,174.046 440.244,173.696 440.023,173.625 439.219,173.421 439.035,173.378 438.414,173.231 438.242,173.18 436.865,172.694 435.174,172.08 434.288,171.753 434.148,171.698 433.128,171.285 432.019,170.832 430.862,170.355 430.758,170.312 430.036,170.004 427.277,168.828 424.298,167.561 424.158,167.504 421.988,166.665 419.096,165.552 417.909,165.097 417.781,165.048 416.085,164.38 413.856,163.494 410.053,161.964 408.386,161.284 405.984,160.29 402.292,158.752 399.984,157.792 398.839,157.322 396.277,156.292 393.301,155.12 389.479,153.645 388.917,153.439 388.256,153.214 387.499,152.962 387.034,152.807 386.598,152.669 386.02,152.507 382.965,151.759 381.511,151.464 376.978,150.717 376.188,150.613 375.394,150.545 374.697,150.514 373.699,150.504 371.6,150.524 369.901,150.556 366.203,150.637 365.504,150.639 363.313,150.592 361.314,150.527 361.044,150.516 " fill="none" stroke-width="1" stroke="rgb(232,26,75)" />
	<polyline points="352.989,264.943 352.954,264.881 352.788,264.554 351.793,262.442 351.277,261.264 350.676,259.785 350.638,259.68 350.199,258.338 350.165,258.214 349.976,257.333 349.672,255.849 349.648,255.699 349.587,255.136 349.396,253.049 349.315,251.954 349.202,249.858 349.137,248.161 349.122,247.263 349.127,245.565 349.151,243.465 349.164,242.566 349.248,237.867 349.317,234.768 349.35,233.971 349.41,233.176 349.489,232.484 349.597,231.816 349.962,229.933 350.476,227.488 350.938,225.442 351.114,224.768 351.296,224.201 351.476,223.74 352.048,222.466 353.242,219.936 353.992,218.414 354.367,217.71 355.357,215.974 356.575,213.907 357.099,213.057 357.593,212.307 358.618,210.829 361.112,207.329 361.641,206.627 362.596,205.452 363.251,204.702 365.284,202.499 368.505,199.078 369.341,198.219 371.256,196.317 372.755,194.867 374.443,193.289 375.191,192.632 376.198,191.82 377.711,190.678 378.963,189.791 379.931,189.159 381.044,188.495 382.093,187.924 383.785,187.07 384.329,186.827 385.815,186.244 388.624,185.2 389.096,185.042 389.671,184.881 391.996,184.29 393.744,183.862 395.204,183.522 395.985,183.355 397.947,182.98 399.226,182.764 400.114,182.65 401.107,182.571 405.796,182.351 408.182,182.285 410.745,182.27 411.31,182.286 415.063,182.495 416.658,182.594 417.732,182.67 417.952,182.692 420.147,182.975 421.052,183.098 421.226,183.127 421.966,183.27 423.24,183.523 424.759,183.828 424.899,183.858 425.913,184.097 426.591,184.268 427.359,184.48 428.121,184.709 428.526,184.842 428.653,184.891 430.555,185.696 430.707,185.76 432.386,186.466 433.572,186.979 434.301,187.317 435.01,187.678 436.123,188.294 438.017,189.389 438.172,189.493 439.063,190.178 440.193,191.075 440.343,191.203 440.368,191.233 440.498,191.42 440.555,191.489 440.622,191.551 441.49,192.207 441.615,192.295 442.585,192.952 443.578,193.624 446.8,195.82 447.698,196.452 448.335,196.932 449.971,198.244 450.647,198.83 451.798,199.929 452.473,200.647 452.964,201.259 454.466,203.37 455.067,204.285 455.712,205.37 456.348,206.537 456.742,207.341 457.472,208.983 458.284,210.917 459.063,212.864 459.242,213.358 460.078,215.895 460.503,217.228 461.002,218.853 461.714,221.248 462.616,224.372 463.65,228.076 463.842,228.847 463.976,229.53 464.291,231.503 464.572,233.481 464.662,234.273 464.713,234.997 464.778,236.564 464.823,238.163 464.861,239.862 464.926,242.361 464.987,243.756 465.122,245.745 465.285,247.674 465.307,247.86 465.31,247.863 465.489,247.894 465.591,247.911 465.607,247.914 465.833,247.974 465.877,247.986 " fill="none" stroke-width="1" stroke="rgb(232,26,75)" />
	<polyline points="413.991,179.153 413.983,179.29 413.973,179.405 413.922,179.856 413.915,179.866 413.394,180.077 411.136,180.904 410.736,181.003 408.681,181.272 405.9,181.568 403.226,181.828 402.131,181.938 402.022,181.956 401.32,182.13 401.11,182.185 400.294,182.401 399.485,182.616 399.405,182.637 " fill="none" stroke-width="1" stroke="rgb(232,26,75)" />
	<polyline points="62.5429,254.777 64.0579,254.984 65.6254,255.181 67.61,255.397 68.4028,255.454 69.5965,255.485 70.2908,255.471 71.8854,255.383 73.1259,255.3 " fill="none" stroke-width="1" stroke="rgb(232,26,75)" />
	<polyline points="59.3102,0.534729 59.5903,0.617624 59.7877,0.679254 60.0285,0.763219 60.2175,0.841971 62.4003,1.86514 65.6669,3.43631 68.1717,4.68177 69.0484,5.15382 70.508,6.01426 71.3448,6.55065 72.6573,7.4587 74.3613,8.68417 76.9448,10.5717 78.1025,11.4186 81.1423,13.6395 82.9164,14.9401 85.0057,16.4866 85.5597,16.9121 85.9425,17.23 86.385,17.6313 87.1007,18.3262 87.5128,18.7573 87.7977,19.0913 88.0686,19.453 88.9783,20.7663 89.2545,21.1814 89.5669,21.6679 " fill="none" stroke-width="1" stroke="rgb(232,26,75)" />
	<polyline points="69.0232,26.1277 69.4756,26.2447 69.5832,26.2784 72.9978,27.5306 74.9536,28.2797 76.2399,28.8154 77.0489,29.196 78.1958,29.7982 78.7091,30.1004 79.1173,30.3807 80.385,31.3482 80.8384,31.7305 81.3373,32.2118 82.7869,33.7252 83.3911,34.3875 84.1752,35.2932 84.8711,36.1386 85.2679,36.6739 85.4301,36.9647 85.4572,37.1062 85.4164,37.4085 85.2922,37.8403 84.8415,39.1381 84.5524,39.9673 84.2626,40.8183 84.0098,41.557 83.7346,42.3253 83.4485,43.0698 83.1579,43.777 83.0179,44.0944 82.9611,44.2094 81.8579,46.2785 80.9547,47.9498 80.2749,49.1731 78.6989,51.9158 77.489,53.9342 76.2165,55.9378 74.3351,58.7582 71.4502,62.9623 69.3904,65.9144 66.7507,69.661 66.1652,70.4916 65.2489,71.8026 64.9149,72.2991 63.9971,73.728 63.3128,74.8319 62.1308,76.8037 61.4271,78.0128 60.9886,78.7976 60.1795,80.2922 58.739,82.9767 57.6952,84.9213 56.0674,87.9561 55.5093,89.0178 55.0092,90.0161 54.2482,91.6239 53.4336,93.4453 52.7393,95.1008 52.042,96.8646 51.3625,98.6435 " fill="none" stroke-width="1" stroke="rgb(232,26,75)" />
	<polyline points="61.1897,99.9965 61.845,98.4283 62.0525,97.9555 63.9693,93.7948 64.5712,92.5331 65.0666,91.5538 65.9974,89.7877 66.0497,89.6983 66.6943,88.6996 68.1011,86.5445 68.9062,85.3226 69.0433,85.1217 70.2608,83.3895 70.3618,83.2404 72.3566,80.1837 73.1226,79.0125 74.0993,77.5236 74.1899,77.383 74.9412,76.1852 75.2294,75.7089 75.7196,74.8647 76.6287,73.2855 77.0365,72.5993 77.5146,71.8395 79.3149,69.0766 80.2808,67.6089 80.415,67.4082 82.0931,64.9377 82.553,64.2855 83.1494,63.4878 83.6307,62.8752 83.765,62.7158 83.8888,62.5772 83.9779,62.476 85.5636,60.6302 85.6812,60.4949 87.3158,58.6405 87.44,58.5007 87.5051,58.4285 88.226,57.6316 89.3731,56.3578 89.4505,56.2667 90.7243,54.6804 93.7544,50.9106 94.2746,50.2819 94.7871,49.6951 95.1908,49.2584 95.2753,49.1795 95.7525,48.7823 95.995,48.5682 96.2187,48.3411 97.4674,46.944 99.043,45.1346 101.322,42.4789 102.621,40.9587 103.989,39.365 105.364,37.7796 106.287,36.7366 107.631,35.2495 108.378,34.4434 109.482,33.2877 111.209,31.5286 111.419,31.3401 111.654,31.167 111.793,31.0781 111.874,31.0311 " fill="none" stroke-width="1" stroke="rgb(232,26,75)" />
	<polyline points="164.42,78.3525 164.428,77.2675 164.444,76.7702 164.532,75.2754 164.618,74.1815 164.71,73.2883 165.045,70.4086 165.145,69.5153 165.43,66.8314 165.815,63.1524 166.081,60.6675 166.198,59.6762 166.33,58.6871 166.544,57.1928 166.623,56.6579 167.027,54.0413 167.184,53.1111 167.517,51.3589 167.838,49.8264 168.246,48.0421 169.008,44.8652 169.669,42.1452 169.975,40.8824 170.184,40.0075 170.318,39.4387 " fill="none" stroke-width="1" stroke="rgb(232,26,75)" />
	<polyline points="298.132,70.3993 297.755,71.4945 297.572,72.063 297.411,72.6356 297.35,72.9223 297.331,73.1147 297.33,73.4101 297.357,73.9072 297.439,75.0037 297.629,77.4956 297.731,79.0894 297.77,80.1843 297.8,82.9815 297.791,86.1802 297.762,87.7779 297.689,89.8746 297.632,91.0724 297.579,91.9703 297.544,92.5083 " fill="none" stroke-width="1" stroke="rgb(232,26,75)" />
	<polyline points="153.478,77.8681 153.469,78.101 153.43,78.795 153.402,79.0826 153.362,79.3104 153.261,79.759 153.215,79.9517 153.143,80.2412 153.014,80.7223 152.895,81.0969 152.683,81.647 152.436,82.1807 152.242,82.5178 151.847,83.0868 151.479,83.5542 151.148,83.9226 150.794,84.2687 150.418,84.5925 149.09,85.6497 147.353,86.9967 145.483,88.4234 145.387,88.4906 144.535,89.0327 143.602,89.61 141.037,91.1653 137.698,93.1773 135.126,94.7201 133.494,95.6908 132.863,96.054 131.571,96.7686 128.851,98.2398 127.438,98.9872 123.611,100.977 " fill="none" stroke-width="1" stroke="rgb(232,26,75)" />
	<polyline points="1.3945,241.996 1.13567,241.783 1.08725,241.714 1.06945,241.6 1.5039,232.381 1.75744,227.288 1.82174,225.99 2.0088,222.094 2.18537,218.399 2.43173,213.405 2.6991,208.414 2.98858,203.625 3.18832,200.835 3.32309,199.343 3.43813,198.352 3.7235,196.21 3.7396,196.103 4.05816,194.19 4.28438,192.864 4.30867,192.749 4.47234,192.101 4.68201,191.283 4.71613,191.139 5.21088,188.885 5.23814,188.744 5.55511,186.865 5.9715,184.402 6.1449,183.418 6.34875,182.339 6.73765,180.378 6.99967,179.104 7.27374,177.834 7.67777,176.059 7.89235,175.211 8.12662,174.417 8.52936,173.219 8.84731,172.383 9.12119,171.766 9.36615,171.308 9.68458,170.808 10.1925,170.104 10.5737,169.628 10.9705,169.184 11.3193,168.829 11.8273,168.349 13.0071,167.269 15.079,165.387 17.5938,163.101 18.6254,162.156 19.3314,161.504 19.4179,161.423 21.7873,159.202 24.9929,156.189 26.0831,155.155 26.1889,155.046 26.6229,154.564 26.722,154.453 27.4226,153.66 28.5205,152.371 28.9255,151.837 29.156,151.458 29.2833,151.181 29.3332,151.027 29.3751,150.836 29.4418,150.448 29.5467,149.759 29.7177,148.537 29.7523,148.231 29.873,146.868 30.0992,144.281 30.1816,143.454 30.2465,142.92 30.2587,142.844 30.2657,142.808 30.2834,142.711 30.4422,141.708 30.6904,140.029 31.067,137.375 31.0968,137.177 31.2759,136.073 31.6007,134.102 31.7411,133.25 31.7567,133.147 31.8478,132.478 31.9833,131.462 32.2536,129.466 32.3579,128.792 32.6197,127.32 32.8077,126.318 32.8336,126.18 32.887,125.878 33.0317,124.994 33.2941,123.315 33.5978,121.338 33.7992,120.055 34.0748,118.378 34.1657,117.888 34.5086,116.224 34.8006,114.855 35.3977,112.12 35.833,110.168 36.0818,109.098 36.343,108.03 36.8573,105.994 37.5755,103.185 38.3488,100.184 38.779,98.5398 38.9634,97.8658 39.267,96.8091 39.7774,95.07 " fill="none" stroke-width="1" stroke="rgb(232,26,75)" />
	<polyline points="324.044,97.546 324.38,98.7928 324.573,99.4632 324.726,99.9358 324.997,100.686 325.459,101.901 325.854,102.928 326.316,104.142 327.535,107.422 328.098,109.022 328.838,111.3 329.402,113.2 330.189,116.106 330.514,117.463 331.086,120.2 331.453,122.162 331.779,124.133 332.071,126.111 332.389,128.489 332.823,131.962 333.063,134.047 333.452,137.725 333.58,139.117 333.674,140.412 333.836,143.106 333.918,144.603 334.071,147.698 334.09,148.297 334.104,149.795 334.096,151.294 334.067,152.992 334.029,154.391 333.968,156.189 333.83,159.886 333.793,160.785 333.703,162.783 333.624,164.481 333.396,169.311 333.387,169.515 333.181,174.991 333.103,176.953 333.094,177.069 332.945,178.308 332.739,179.909 332.712,180.094 332.705,180.142 332.688,180.25 332.134,184.08 331.835,186.055 331.65,187.136 330.907,191.103 330.866,191.298 330.035,194.953 329.421,197.645 329.383,197.806 328.591,201.105 328.547,201.254 328.373,201.739 328.327,201.865 328.024,202.719 327.955,202.941 327.707,203.879 327.521,204.654 327.376,205.337 327.072,206.907 326.845,208.116 326.823,208.228 326.394,210.309 326.002,212.166 325.949,212.369 325.584,213.511 324.321,217.273 322.915,221.349 322.756,221.766 322.738,221.786 322.614,221.846 322.471,221.901 322.451,221.907 322.188,221.953 322.153,221.959 " fill="none" stroke-width="1" stroke="rgb(232,26,75)" />
	<polyline points="39.0497,110.927 39.6043,110.848 39.8741,110.799 41.1958,110.502 42.9278,110.08 45.1506,109.503 46.0177,109.266 47.7083,108.788 48.4175,108.596 48.5781,108.564 48.7234,108.551 49.2011,108.549 49.5976,108.566 49.9821,108.606 50.2263,108.651 50.4196,108.706 51.1801,108.972 52.1049,109.305 52.293,109.371 53.5562,109.802 54.6004,110.158 54.7019,110.193 55.1329,110.341 56.2667,110.73 60.6139,112.231 62.0235,112.738 63.6062,113.349 65.8188,114.272 68.0902,115.299 69.2898,115.915 69.4911,116.071 69.7241,116.354 69.787,116.458 69.8134,116.519 69.8593,116.652 69.8694,116.683 69.9228,116.859 69.9306,116.885 " fill="none" stroke-width="1" stroke="rgb(232,26,75)" />
	<polyline points="40.1407,116.02 40.5103,116.406 40.6183,116.522 41.7925,117.797 42.058,118.069 42.4057,118.39 43.257,119.118 44.343,119.997 45.8453,121.153 46.4145,121.551 48.2678,122.728 50.0618,123.809 50.845,124.239 51.6481,124.624 52.0103,124.761 52.3859,124.858 52.6734,124.897 53.065,124.903 53.8682,124.86 54.9488,124.758 55.5388,124.676 56.0249,124.579 57.7715,124.155 58.4464,123.974 62.0986,122.928 64.3051,122.283 65.4514,121.932 67.5797,121.237 67.6745,121.181 67.8354,121.01 67.8577,120.969 67.8921,120.847 67.9723,120.491 67.9909,120.405 " fill="none" stroke-width="1" stroke="rgb(232,26,75)" />
	<polyline points="75.0641,126.038 75.2178,126.047 75.2204,126.049 75.2494,126.153 75.7081,127.989 76.1477,129.733 76.4303,130.794 77.1435,133.29 78.2372,136.925 78.9129,139.013 79.4214,140.419 80.0936,142.083 80.856,143.818 81.8521,145.949 82.4045,147.062 82.9223,148.031 85.0218,151.781 86.8109,154.903 88.0833,157.051 88.5624,157.807 89.49,159.184 89.5535,159.265 89.9178,159.665 90.0765,159.838 90.8151,160.654 91.3608,161.261 91.4673,161.383 91.6837,161.64 91.9378,161.945 " fill="none" stroke-width="1" stroke="rgb(232,26,75)" />
	<polyline points="36.1546,138.961 36.2312,138.797 36.3456,138.571 36.5381,138.238 36.6852,138.037 37.9714,136.558 38.705,135.78 39.3525,135.172 40.0371,134.601 40.4442,134.306 41.0265,133.941 41.3755,133.755 41.829,133.558 42.6677,133.251 43.4588,133.007 43.9923,132.884 44.5744,132.8 44.9647,132.781 45.3571,132.803 46.8424,132.985 48.9158,133.291 49.6945,133.44 50.6575,133.683 52.6681,134.27 53.614,134.577 55.0422,135.083 55.1476,135.127 56.7406,135.895 57.1846,136.121 57.6195,136.363 58.1325,136.669 58.6284,136.978 58.7543,137.06 62.0985,139.322 62.7526,139.781 64.844,141.313 67.234,143.111 67.5845,143.395 67.6203,143.438 67.68,143.548 67.7202,143.621 67.7673,143.691 67.9273,143.896 " fill="none" stroke-width="1" stroke="rgb(232,26,75)" />
	<polyline points="36.0111,141.152 36.1917,141.197 36.3331,141.226 36.4966,141.254 36.7046,141.29 36.7741,141.313 36.9449,141.41 39.6385,143.166 42.0504,144.763 44.7107,146.538 46.0439,147.422 46.6334,147.797 47.8292,148.521 48.8687,149.125 50.5193,150.054 51.6254,150.667 " fill="none" stroke-width="1" stroke="rgb(232,26,75)" />
	<polyline points="51.6254,150.667 52.0049,150.56 52.6765,150.366 53.1175,150.231 53.9133,149.972 55.0471,149.582 56.8344,148.942 58.896,148.177 61.2307,147.285 63.7922,146.288 63.9065,146.241 63.9684,146.213 " fill="none" stroke-width="1" stroke="rgb(232,26,75)" />
	<polyline points="249.032,145.027 249.056,145.164 249.082,145.317 249.101,145.435 249.104,145.452 249.136,145.731 249.145,145.792 249.184,146.006 249.19,146.014 249.822,146.427 250.87,147.016 251.368,147.196 253.013,147.51 256.376,147.987 262.327,148.746 265.698,149.178 266.488,149.294 267.569,149.485 268.932,149.753 272.566,150.5 275.993,151.211 277.398,151.5 279.812,151.994 282.75,152.6 283.531,152.769 286.651,153.477 288.893,153.99 291.817,154.655 295.037,155.375 296.503,155.691 298.755,156.154 301.108,156.623 304.837,157.35 309.058,158.166 313.666,159.049 316.031,159.495 318.39,159.933 319.274,160.096 321.63,160.547 324.268,161.089 329.396,162.212 329.865,162.33 329.878,162.343 329.934,162.55 329.961,162.688 329.981,162.811 " fill="none" stroke-width="1" stroke="rgb(232,26,75)" />
	<polyline points="69.1242,150.062 70.0231,151.621 70.6792,152.743 70.9919,153.253 72.0709,154.935 72.6274,155.763 73.1245,156.449 74.8558,158.711 78.6123,163.514 80.3014,165.618 81.7762,167.378 82.745,168.468 84.485,170.312 86.0312,171.87 87.4758,173.245 89.1782,174.783 90.5357,175.959 91.6844,176.921 93.6973,178.585 93.8671,178.732 93.99,178.846 " fill="none" stroke-width="1" stroke="rgb(232,26,75)" />
	<polyline points="17.7094,247.986 17.7037,247.922 17.4928,245.294 17.4349,244.299 17.3942,242.703 17.3911,240.205 17.4361,238.41 17.5526,236.32 17.6747,235.033 18.0587,232.064 18.249,230.882 18.4574,229.876 18.9205,227.968 19.2831,226.619 19.4901,225.954 20.0519,224.352 20.6466,222.761 21.1663,221.464 21.4894,220.737 21.9931,219.721 22.5748,218.641 24.121,215.92 25.0381,214.369 25.5697,213.53 26.2475,212.545 26.8322,211.761 27.4719,210.975 28.3934,209.926 30.0466,208.14 31.1361,207.023 32.7857,205.426 35.9251,202.496 36.8879,201.645 37.8221,200.888 38.3851,200.48 39.9685,199.436 41.4899,198.478 42.8594,197.654 43.4691,197.315 45.1562,196.446 46.8585,195.605 49.0258,194.578 50.5729,193.878 51.4933,193.493 52.9858,192.925 54.3049,192.466 56.0185,191.927 58.0334,191.354 59.7734,190.913 65.0294,189.691 65.712,189.555 66.4999,189.438 67.5908,189.317 68.4858,189.248 69.8819,189.183 71.0152,189.16 74.2778,189.166 76.4753,189.205 78.3706,189.283 80.1622,189.405 81.7488,189.563 83.0306,189.739 84.0076,189.921 85.0722,190.176 86.7032,190.635 87.8974,191.017 87.9941,191.073 88.3137,191.37 88.5378,191.591 88.5985,191.638 88.7253,191.703 90.9064,192.599 92.569,193.276 93.8642,193.812 95.145,194.367 97.1426,195.28 98.2174,195.806 99.1839,196.324 102.311,198.102 103.687,198.915 104.272,199.293 105.496,200.155 106.939,201.224 108.173,202.175 108.341,202.317 108.492,202.457 108.573,202.534 109.455,203.345 110.341,204.154 112.175,205.831 112.286,205.944 112.872,206.611 113.377,207.225 114.1,208.174 114.732,209.068 116.789,212.14 117.823,213.733 118.665,215.092 119.213,216.041 120.204,217.884 120.454,218.421 121.076,219.995 121.944,222.36 122.319,223.472 123.459,227.096 124.251,229.677 124.707,231.21 125.203,232.939 125.351,233.518 125.608,234.688 125.833,235.863 126.043,237.143 126.253,238.626 126.794,242.805 126.806,242.909 126.872,243.661 127.123,246.749 127.364,250.038 127.483,252.032 127.521,253.129 127.695,262.426 127.73,263.423 127.788,264.216 127.867,264.827 127.959,265.285 128.3,266.638 128.445,267.183 " fill="none" stroke-width="1" stroke="rgb(232,26,75)" />
	<polyline points="369.142,213.959 369.277,213.378 369.415,212.893 369.616,212.359 370.189,211.106 370.603,210.314 371.102,209.481 371.451,208.973 371.94,208.347 372.459,207.746 373.743,206.348 375.37,204.618 375.483,204.508 377.809,202.42 378.669,201.686 379.42,201.102 380.472,200.348 381.488,199.658 382.308,199.122 382.416,199.059 383.369,198.575 384.177,198.186 386.994,196.895 388.549,196.211 390.117,195.561 391.791,194.91 394.696,193.836 395.264,193.65 396.802,193.22 399.028,192.653 400.973,192.209 402.208,191.977 403.225,191.845 405.012,191.704 407.102,191.61 408.395,191.603 410.289,191.664 411.783,191.755 412.976,191.86 413.869,191.962 415.355,192.159 416.741,192.356 419.707,192.799 420.097,192.871 420.481,192.967 422.014,193.416 423.933,194.011 425.156,194.416 426.85,195.018 428.344,195.584 429.45,196.041 430.842,196.666 431.798,197.136 432.491,197.52 434.026,198.456 434.684,198.899 435.311,199.382 436.295,200.223 437.622,201.433 439.057,202.805 439.911,203.661 440.246,204.027 440.494,204.336 442.333,206.83 442.733,207.402 443.22,208.156 443.949,209.358 444.793,210.821 445.069,211.349 445.834,212.973 446.063,213.522 446.289,214.178 446.449,214.758 446.542,215.232 446.821,217.136 447.219,219.977 447.317,220.565 447.486,221.342 447.728,222.201 448.058,223.131 449.03,225.496 449.134,225.662 449.267,225.78 449.406,225.861 449.465,225.886 449.628,225.94 449.65,225.943 449.917,225.941 " fill="none" stroke-width="1" stroke="rgb(232,26,75)" />
	<polyline points="30.0349,221.981 30.1242,221.927 30.2434,221.849 30.2605,221.831 30.3287,221.716 31.7862,219.01 32.3126,218.046 32.611,217.528 32.8331,217.182 33.2297,216.628 33.778,215.919 34.0999,215.541 35.1166,214.443 35.7436,213.8 36.5334,213.038 36.9792,212.641 37.5227,212.207 38.8244,211.244 41.2479,209.521 43.0591,208.277 44.2272,207.513 44.6535,207.26 45.0071,207.082 46.1005,206.593 48.6722,205.473 50.2226,204.792 51.6781,204.133 53.1258,203.457 56.3789,201.917 57.648,201.33 59.0191,200.729 61.7047,199.608 62.3407,199.371 63.8625,198.882 65.2984,198.463 66.1671,198.243 67.1423,198.038 67.928,197.907 68.8179,197.797 69.9108,197.705 71.6054,197.613 73.8001,197.541 74.6943,197.543 75.4878,197.586 76.8781,197.721 78.6622,197.943 80.4385,198.212 81.6101,198.432 82.3769,198.622 83.8338,199.059 85.404,199.571 85.6139,199.65 87.1208,200.292 87.347,200.391 88.9366,201.105 89.15,201.2 90.9807,202.007 91.9834,202.458 93.0686,202.966 94.1489,203.5 94.6651,203.782 95.1686,204.096 96.3238,204.882 97.3902,205.646 98.2546,206.301 98.8723,206.804 99.5133,207.371 99.9691,207.814 100.51,208.398 100.955,208.931 101.408,209.534 102.349,210.89 102.887,211.714 103.458,212.651 103.85,213.346 104.217,214.054 104.825,215.313 105.494,216.765 105.852,217.588 106.809,219.897 107.509,221.623 107.569,221.787 107.85,222.65 108.176,223.697 108.91,226.086 109.309,227.332 109.744,228.571 110.103,229.462 110.488,230.266 112.23,233.563 112.312,233.68 112.367,233.719 112.582,233.806 112.677,233.839 112.81,233.887 112.885,233.914 " fill="none" stroke-width="1" stroke="rgb(232,26,75)" />
	<polyline points="399.249,199.005 399.343,199.177 399.389,199.332 399.808,202.639 400.151,205.717 400.255,206.811 400.363,208.219 400.468,209.803 400.607,212.297 400.649,213.394 400.668,214.492 400.664,215.29 400.651,216.072 " fill="none" stroke-width="1" stroke="rgb(232,26,75)" />
	<polyline points="69.5077,217.493 69.6214,216.682 69.7461,215.792 69.8293,215.195 70.1142,213.118 70.2707,211.929 70.4782,210.242 70.9278,206.369 71.1522,204.281 71.3516,202.193 71.3929,201.596 71.457,200.099 71.4984,198.8 71.5322,197.498 " fill="none" stroke-width="1" stroke="rgb(232,26,75)" />
	<polyline points="400.651,216.072 401.404,216.187 405.16,216.752 406.05,216.872 408.036,217.095 411.517,217.446 412.61,217.535 413.203,217.558 413.496,217.547 413.786,217.506 413.982,217.453 414.208,217.361 414.5,217.206 415.003,216.896 415.668,216.448 416.234,216.039 417.666,214.951 419.085,213.845 419.627,213.403 420.537,212.624 421.583,211.69 426.661,207.028 427.295,206.4 429.457,204.067 429.616,203.872 429.695,203.747 429.741,203.652 429.828,203.437 429.891,203.276 429.933,203.169 429.965,203.089 429.998,203.008 " fill="none" stroke-width="1" stroke="rgb(232,26,75)" />
	<polyline points="83.3148,219.125 83.948,218.182 84.5732,217.281 85.0468,216.642 85.7502,215.761 86.9488,214.331 89.0301,211.901 90.7271,209.931 92.0955,208.339 93.458,206.742 95.5622,204.262 " fill="none" stroke-width="1" stroke="rgb(232,26,75)" />
	<polyline points="374.628,205.419 377.072,207.904 379.303,210.196 380.679,211.644 382.348,213.45 382.83,213.994 384.76,216.251 386.087,217.795 386.941,218.769 387.838,219.773 " fill="none" stroke-width="1" stroke="rgb(232,26,75)" />
	<polyline points="35.0268,214.412 35.6562,214.765 36.0064,214.952 37.1654,215.536 38.424,216.147 39.9647,216.861 41.9729,217.75 43.078,218.206 45.0349,218.959 48.1234,220.118 48.9632,220.439 53.895,222.375 56.1201,223.268 56.7591,223.543 56.93,223.634 57.1761,223.796 57.6423,224.131 " fill="none" stroke-width="1" stroke="rgb(232,26,75)" />
	<polyline points="57.6423,224.131 58.5819,223.637 59.2636,223.277 59.412,223.196 62.722,221.347 65.0766,220.027 68.0376,218.357 68.9905,217.811 69.2459,217.658 69.5077,217.493 " fill="none" stroke-width="1" stroke="rgb(232,26,75)" />
	<polyline points="378.816,229.953 379.198,229.581 379.549,229.227 380.267,228.473 380.777,227.917 381.839,226.721 383.289,225.067 384.339,223.86 386.689,221.135 387.069,220.674 387.681,219.885 389.853,217.015 " fill="none" stroke-width="1" stroke="rgb(232,26,75)" />
	<polyline points="418.075,235.764 418.095,235.684 418.155,235.459 418.181,235.381 418.278,235.161 418.339,235.075 418.729,234.706 420.544,233.156 422.996,231.118 423.231,230.922 423.529,230.668 424.815,229.557 425.954,228.583 426.494,228.142 427.207,227.597 428.337,226.775 432.976,223.464 433.949,222.762 436.04,221.219 437.876,219.835 440.529,217.796 440.67,217.677 440.712,217.629 440.786,217.514 440.874,217.365 440.949,217.232 440.992,217.157 " fill="none" stroke-width="1" stroke="rgb(232,26,75)" />
	<polyline points="83.3148,219.125 83.9307,220.175 84.9506,221.892 86.0348,223.688 86.7148,224.796 87.7672,226.496 88.3917,227.518 88.9424,228.444 89.5144,229.424 " fill="none" stroke-width="1" stroke="rgb(232,26,75)" />
	<polyline points="412.289,226.909 412.363,227.118 412.398,227.238 412.82,229.037 413.05,230.108 413.267,231.286 413.385,232.074 413.473,232.867 413.523,233.562 413.545,234.259 413.541,234.957 413.51,235.625 413.468,236.047 413.39,236.537 413.286,237.022 413.155,237.501 413.028,237.876 412.831,238.355 412.262,239.607 411.996,240.141 411.704,240.661 411.437,241.078 411.087,241.559 410.772,241.94 410.365,242.373 409.791,242.924 409.327,243.328 408.754,243.775 408.388,244.025 407.874,244.323 407.343,244.586 406.887,244.767 405.376,245.265 404.807,245.418 404.227,245.526 403.638,245.592 403.144,245.611 402.649,245.596 402.156,245.549 401.666,245.471 400.198,245.175 399.383,244.985 399.046,244.883 398.68,244.735 397.236,244.059 396.709,243.785 396.113,243.43 395.618,243.098 395.142,242.739 394.683,242.357 393.863,241.626 393.134,240.943 392.566,240.382 391.804,239.591 391.404,239.147 390.958,238.61 390.401,237.888 390.067,237.414 389.751,236.909 389.463,236.388 389.253,235.942 389.154,235.667 389.063,235.286 388.977,234.702 388.865,233.419 388.862,232.936 388.978,231.252 389.055,230.562 389.111,230.274 389.208,229.947 389.301,229.717 389.482,229.366 389.687,229.029 389.919,228.711 390.428,228.103 391.032,227.447 391.595,226.89 391.894,226.633 392.379,226.276 392.873,225.955 393.304,225.711 394.195,225.271 395.192,224.822 395.774,224.596 396.312,224.428 397.567,224.108 398.248,223.965 400.118,223.645 401.697,223.404 402.091,223.362 402.487,223.345 402.783,223.356 403.175,223.402 403.661,223.493 404.178,223.626 405.569,224.055 407.079,224.571 408.287,225.032 409.29,225.463 411.246,226.366 411.457,226.471 412.289,226.909 " fill="none" stroke-width="1" stroke="rgb(232,26,75)" />
	<polyline points="180.06,224.093 180.721,224.078 181.92,224.057 185.018,224.021 186.914,224.018 188.912,224.046 191.311,224.11 194.807,224.234 196.905,224.321 198.003,224.375 202.097,224.597 204.693,224.739 205.891,224.804 208.087,224.925 209.185,224.99 210.681,225.089 212.077,225.19 213.173,225.279 217.656,225.667 220.941,225.967 224.424,226.303 231.688,227.028 233.08,227.171 234.155,227.283 239.047,227.796 239.943,227.881 241.138,227.97 242.731,228.049 243.322,228.039 244.88,227.91 245.65,227.819 246.012,227.769 246.088,227.765 248.002,227.866 249.99,228.006 253.674,228.324 255.265,228.486 262.022,229.244 264.208,229.489 267.091,229.802 272.062,230.329 273.752,230.502 275.244,230.651 276.238,230.751 279.222,231.059 282.802,231.435 284.89,231.656 287.176,231.904 291.052,232.339 294.028,232.705 298.916,233.381 304.528,234.247 304.655,234.314 304.855,234.573 304.931,234.739 304.981,234.916 " fill="none" stroke-width="1" stroke="rgb(232,26,75)" />
	<polyline points="81.9973,230.091 82.0644,230.704 82.1624,231.697 82.2078,232.324 82.3075,234.486 82.318,235.282 82.2778,236.677 82.2116,237.568 81.9987,239.349 81.8082,240.523 81.6322,241.29 81.372,242.14 81.059,242.974 80.8512,243.419 80.6493,243.752 80.297,244.223 79.7835,244.825 79.2955,245.337 79.0877,245.519 78.8463,245.682 78.3276,245.972 77.5264,246.374 76.9825,246.619 76.4273,246.838 75.9565,246.997 75.4778,247.13 74.7845,247.288 74.1128,247.411 73.0283,247.569 72.5359,247.615 72.0421,247.623 70.8482,247.575 68.8572,247.438 67.0691,247.273 65.086,247.044 64.4971,246.952 63.9144,246.827 63.3399,246.67 62.9677,246.54 62.6079,246.381 61.9038,246.012 61.3929,245.709 60.9877,245.43 60.6859,245.181 60.4092,244.905 60.1485,244.59 59.8767,244.2 59.6256,243.776 59.3567,243.246 59.1172,242.7 58.8472,241.998 58.6423,241.389 58.4475,240.72 58.3054,240.14 58.1904,239.555 58.1371,239.163 58.1026,238.669 58.0983,238.173 58.1283,237.578 58.2169,236.667 58.3936,235.303 58.5093,234.616 58.67,233.88 59.0478,232.384 59.1872,231.911 59.323,231.54 59.4837,231.178 59.6244,230.919 59.8908,230.5 60.2351,230.014 60.4815,229.705 60.7492,229.413 61.1779,228.998 61.626,228.606 62.0161,228.302 62.5063,227.965 62.9308,227.71 63.3712,227.487 63.7345,227.34 64.205,227.196 66.0429,226.738 68.0848,226.276 68.6713,226.175 69.5584,226.08 70.5498,226.024 71.1969,226.025 72.8378,226.107 73.6287,226.18 74.7104,226.333 75.2064,226.432 75.6512,226.55 75.7795,226.599 76.1888,226.8 76.6595,227.046 76.8002,227.123 77.1204,227.305 77.4489,227.491 80.0305,228.951 80.8096,229.398 81.9973,230.091 " fill="none" stroke-width="1" stroke="rgb(232,26,75)" />
	<polyline points="89.5144,229.424 90.6765,229.366 91.973,229.29 92.6682,229.233 93.9568,229.091 95.1421,228.93 95.9279,228.796 99.0669,228.181 100.731,227.837 105.131,226.892 106.888,226.507 108.848,226.068 " fill="none" stroke-width="1" stroke="rgb(232,26,75)" />
	<polyline points="359,229.505 362.2,229.532 366.599,229.568 368.299,229.579 370.398,229.588 373.898,229.602 376.697,229.623 377.89,229.65 378.07,229.672 378.247,229.725 378.816,229.953 " fill="none" stroke-width="1" stroke="rgb(232,26,75)" />
	<polyline points="423.978,230.31 424.463,232.025 424.696,232.892 424.832,233.474 425.232,235.432 425.486,236.806 425.553,237.297 425.654,238.486 425.677,239.078 425.663,239.471 425.564,240.562 425.486,241.29 " fill="none" stroke-width="1" stroke="rgb(232,26,75)" />
	<polyline points="27.0113,234.197 27.0595,234.358 27.1073,234.44 27.2943,234.603 27.5607,234.724 30.0499,235.369 31.2139,235.593 34.1819,235.994 36.6653,236.275 41.1421,236.726 43.4309,236.944 44.4259,237.034 46.1181,237.187 47.1141,237.29 48.1991,237.426 49.8009,237.657 52.0831,238.008 " fill="none" stroke-width="1" stroke="rgb(232,26,75)" />
	<polyline points="52.0831,238.008 52.2463,238.819 52.6774,240.871 52.9243,241.939 53.5141,244.261 53.7745,245.224 53.9963,246.003 " fill="none" stroke-width="1" stroke="rgb(232,26,75)" />
	<polyline points="425.486,241.29 427.712,242.733 428.893,243.482 429.663,243.943 432.703,245.673 434.277,246.538 435.074,246.946 436.695,247.725 437.691,248.191 439.597,249.071 440.324,249.404 445.074,251.567 445.368,251.69 445.948,251.909 " fill="none" stroke-width="1" stroke="rgb(232,26,75)" />
	<polyline points="128.445,267.183 129.273,266.522 130.601,265.462 132.322,264.094 133.423,263.231 134.531,262.377 135.647,261.533 136.448,260.936 137.277,260.327 137.424,260.223 139.186,259.021 140.293,258.276 140.482,258.159 143.265,256.564 148.471,253.584 150.025,252.679 150.931,252.129 152.556,251.108 152.666,251.031 153.334,250.517 153.448,250.428 153.467,250.414 153.616,250.315 154.358,249.837 155.759,248.953 155.945,248.842 157.282,248.094 158.252,247.557 158.427,247.463 160.208,246.533 160.37,246.452 161.144,246.088 162.562,245.428 162.721,245.354 164.391,244.573 164.477,244.534 164.546,244.505 165.284,244.204 166.724,243.623 166.911,243.552 167.413,243.381 169.196,242.792 169.336,242.751 170.878,242.339 173.145,241.739 173.227,241.717 173.333,241.69 174.021,241.536 174.701,241.41 175.686,241.274 176.478,241.202 179.072,241.052 181.169,240.954 183.067,240.88 189.88,240.642 190.072,240.636 192.103,240.59 193.6,240.57 195.098,240.574 197.297,240.609 199.096,240.653 201.195,240.72 207.891,240.951 210.589,241.043 212.888,241.116 218.384,241.282 219.861,241.325 220.022,241.329 222.678,241.401 224.973,241.483 227.067,241.588 229.061,241.721 230.831,241.862 235.138,242.234 238.126,242.487 240.02,242.635 243.112,242.855 246.404,243.08 249.497,243.29 252.19,243.479 253.885,243.605 256.975,243.848 261.36,244.194 264.948,244.47 266.145,244.552 269.837,244.777 273.23,244.983 274.626,245.078 275.522,245.154 276.814,245.288 278.899,245.53 282.076,245.915 286.94,246.506 289.124,246.76 290.615,246.914 293.302,247.162 296.887,247.48 299.476,247.713 301.964,247.951 303.952,248.159 305.143,248.298 306.531,248.475 313.867,249.436 315.848,249.681 317.934,249.909 319.128,250.023 321.718,250.245 323.227,250.372 324.508,250.482 326.699,250.677 329.895,250.973 331.476,251.13 332.867,251.285 335.731,251.627 336.025,251.664 336.141,251.68 337.77,251.896 339.059,252.062 343.027,252.558 345.674,252.885 345.917,252.912 346.931,253.011 349.317,253.237 " fill="none" stroke-width="1" stroke="rgb(232,26,75)" />
	<polyline points="87.4196,243.022 88.7275,243.289 90.001,243.544 93.1243,244.154 94.4169,244.399 95.1055,244.522 96.7811,244.807 98.1619,245.038 100.925,245.489 103.591,245.909 104.282,246 108.258,246.411 109.648,246.51 110.536,246.51 112.305,246.393 113.622,246.255 113.991,246.204 " fill="none" stroke-width="1" stroke="rgb(232,26,75)" />
	<polyline points="384.012,241.004 384.072,241.101 384.173,241.28 384.935,242.735 385.527,243.89 385.978,244.782 386.162,245.135 386.394,245.547 387.198,246.904 387.593,247.533 388.138,248.344 390.421,251.636 " fill="none" stroke-width="1" stroke="rgb(232,26,75)" />
	<polyline points="85.5358,247.972 85.8727,247.403 86.2125,246.797 86.621,246.003 86.9513,245.284 87.0469,245.012 87.1342,244.631 87.4196,243.022 " fill="none" stroke-width="1" stroke="rgb(232,26,75)" />
	<polyline points="361.021,249.767 361.023,249.76 361.068,249.596 361.093,249.53 361.245,249.242 361.272,249.224 367.057,248.459 369.108,248.205 370.928,247.998 372.618,247.818 376.099,247.457 380.774,246.974 382.265,246.819 385.148,246.512 386.042,246.413 386.77,246.328 " fill="none" stroke-width="1" stroke="rgb(232,26,75)" />
	<polyline points="35.0284,263.863 35.3416,263.491 35.4906,263.326 37.3433,261.419 38.4003,260.356 39.6892,259.101 43.6685,255.308 44.4039,254.635 46.5836,252.725 47.3416,252.073 48.8643,250.778 49.9231,249.865 50.3662,249.463 52.0347,247.882 53.9963,246.003 " fill="none" stroke-width="1" stroke="rgb(232,26,75)" />
	<polyline points="85.5358,247.972 85.7027,248.233 86.1319,248.906 86.9406,250.184 87.4061,250.936 87.9604,251.861 89.8442,255.069 91.7593,258.35 93.776,261.804 94.3404,262.747 94.7691,263.42 95.5006,264.49 95.9175,265.044 97.0118,266.379 97.1433,266.518 97.2388,266.595 97.462,266.738 97.5495,266.785 97.7179,266.861 97.9183,266.944 97.9942,266.975 " fill="none" stroke-width="1" stroke="rgb(232,26,75)" />
	<polyline points="401.658,253.653 402.681,253.465 403.764,253.272 404.355,253.174 407.221,252.735 409.2,252.448 410.983,252.217 411.775,252.138 412.668,252.087 413.26,252.082 413.551,252.104 413.84,252.156 414.123,252.239 414.488,252.384 414.93,252.601 415.264,252.8 417.452,254.267 417.554,254.339 417.604,254.374 417.67,254.42 418.817,255.184 420.649,256.401 421.547,257.002 421.709,257.116 422.434,257.658 423.467,258.438 423.539,258.491 424.737,259.338 425.147,259.618 426.897,260.776 428.384,261.786 430.901,263.572 434.216,266 434.6,266.3 434.624,266.33 434.664,266.424 434.72,266.585 434.765,266.718 434.813,266.85 434.868,266.994 " fill="none" stroke-width="1" stroke="rgb(232,26,75)" />
	<polyline points="20.1498,252.023 20.1996,252.047 20.3516,252.123 20.4182,252.164 20.6634,252.362 20.7547,252.483 21.5384,254.132 22.2342,255.68 22.4763,256.228 22.8057,256.955 23.1522,257.673 24.1065,259.54 24.4904,260.238 25.2073,261.437 26.5208,263.539 27.5619,265.151 28.1438,266.008 28.5341,266.539 28.9843,267.097 29.4995,267.682 30.1163,268.329 31.4614,269.667 33.0437,271.2 33.1902,271.328 34.65,272.468 34.7564,272.533 34.9246,272.599 35.1029,272.653 35.1907,272.677 35.3025,272.712 35.4543,272.771 35.607,272.85 35.71,272.928 36.9955,274.138 39.2375,276.278 40.5661,277.534 41.7214,278.593 42.6255,279.375 43.1704,279.799 43.9855,280.368 44.9814,281.016 45.1515,281.112 46.9616,282.01 49.3036,283.135 50.848,283.836 51.9528,284.286 54.0826,285.057 58.176,286.436 59.8905,286.966 60.9494,287.24 62.8022,287.632 63.9785,287.83 65.162,287.969 66.3504,288.047 67.1423,288.051 70.0336,287.928 70.9242,287.855 71.8086,287.731 73.4763,287.427 74.7451,287.156 76.9812,286.624 78.7237,286.179 79.4907,285.959 80.822,285.534 81.6685,285.236 84.2863,284.247 87.7384,282.919 89.603,282.197 90.4573,281.868 90.5935,281.817 90.8064,281.736 90.9182,281.685 92.2286,281.003 93.0999,280.521 94.2122,279.856 95.5161,279.023 96.713,278.21 99.4026,276.301 100.607,275.412 101.151,274.977 102.053,274.191 103.377,272.975 104.673,271.729 105.294,271.086 105.862,270.432 108.336,267.387 109.604,265.774 110.224,264.936 110.976,263.845 111.387,263.196 112.145,261.904 113.124,260.162 113.646,259.195 114.013,258.486 114.461,257.592 115.619,255.275 115.686,255.164 115.715,255.137 115.875,255.055 115.986,255.004 " fill="none" stroke-width="1" stroke="rgb(232,26,75)" />
	<polyline points="394.041,274.928 394.402,274.85 394.436,274.846 394.731,274.834 394.761,274.831 394.89,274.804 394.923,274.791 395.115,274.683 395.135,274.662 395.209,274.497 395.876,272.731 396.789,270.194 397.63,267.735 398.24,265.832 399.782,260.763 400.251,259.131 400.87,256.812 401.311,255.072 401.658,253.653 " fill="none" stroke-width="1" stroke="rgb(232,26,75)" />
	<polyline points="51.1003,276.999 52.752,274.316 53.6166,272.912 54.9118,270.814 56.1368,268.829 57.0291,267.382 57.5526,266.534 57.6157,266.432 58.1586,265.545 58.2463,265.38 58.7518,264.256 59.254,263.062 60.78,259.258 62.0279,256.096 62.5429,254.777 " fill="none" stroke-width="1" stroke="rgb(232,26,75)" />
	<polyline points="71.1073,253.052 71.351,253.067 71.3901,253.076 71.4639,253.118 71.543,253.195 71.9122,253.707 72.6337,254.854 73.5894,256.518 73.7037,256.764 74.3735,258.584 74.7607,259.716 74.9929,260.479 75.4687,262.214 76.1276,264.728 76.5505,266.374 77.427,269.755 77.9403,271.588 78.4301,273.099 79.2863,275.42 79.4351,275.723 79.5321,275.843 79.5848,275.874 79.7699,275.924 79.8068,275.93 79.9926,275.951 " fill="none" stroke-width="1" stroke="rgb(232,26,75)" />
	<polyline points="377.055,271.881 377.14,271.849 377.264,271.801 377.376,271.75 377.525,271.666 377.61,271.599 377.791,271.395 379.215,269.552 380.454,267.835 381.755,265.874 382.741,264.256 385.085,260.184 386.268,258.096 388.093,254.879 388.703,253.849 389.187,253.1 389.479,252.708 389.903,252.209 390.421,251.636 " fill="none" stroke-width="1" stroke="rgb(232,26,75)" />
	<polyline points="362.082,268.069 362.17,268.097 362.362,268.16 362.5,268.214 362.624,268.283 363.134,268.648 366.608,271.342 368.857,273.156 370.925,274.889 372.296,276.054 373.52,277.08 374.763,278.085 377.281,280.055 378.789,281.207 379.324,281.599 379.429,281.665 380.372,282.176 381.877,282.962 383.214,283.633 384.202,284.106 384.826,284.388 385.007,284.461 386.191,284.9 387.885,285.504 389.586,286.08 390.729,286.432 392.845,287.019 394.297,287.383 395.367,287.614 397.334,287.978 399.6,288.355 401.775,288.68 402.964,288.829 404.753,289.005 406.245,289.109 407.838,289.168 409.431,289.172 411.025,289.121 412.716,289.013 413.368,288.94 414.29,288.782 416.245,288.379 417.897,287.993 419.827,287.486 421.84,286.903 422.882,286.562 425.133,285.739 427.553,284.798 428.838,284.255 430.193,283.623 431.704,282.854 432.923,282.176 434.2,281.4 435.616,280.469 436.919,279.548 438.19,278.584 439.27,277.7 440.696,276.451 442.53,274.758 444.033,273.298 444.997,272.291 445.965,271.19 446.921,270.007 447.872,268.73 448.716,267.498 449.237,266.653 449.911,265.433 450.354,264.543 450.815,263.508 451.094,262.802 452.182,259.795 452.819,258.005 " fill="none" stroke-width="1" stroke="rgb(232,26,75)" />
</svg>
