<?xml version="1.0" encoding="utf-8"?>
<!-- Generator: Adobe Illustrator 23.0.3, SVG Export Plug-In . SVG Version: 6.00 Build 0)  -->
<svg version="1.1" id="Layer_1" xmlns:ev="http://www.w3.org/2001/xml-events"
	 xmlns="http://www.w3.org/2000/svg" xmlns:xlink="http://www.w3.org/1999/xlink" x="0px" y="0px" viewBox="0 0 176.2 290"
	 style="enable-background:new 0 0 176.2 290;" xml:space="preserve">
<style type="text/css">
	.st0{fill:none;stroke:#C583D9;stroke-width:0.5;}
	.st1{fill:none;stroke:#9DE993;stroke-width:0.5;}
</style>
<path class="st0" d="M25.9,60.1L24.6,58c0,0-1.3-2.1-1.3-2.1c-2.8-4.7-4.4-9.2-4.9-14.7C17.7,34.7,20,24,28.7,24.8
	c6.3,0.5,7.5,6.3,8.4,11.4c0.6,3.7,0.8,7.4,0.7,11.1c-0.4,7.4-2.3,14.8-5.6,21.5c-1.2,2.4-2.6,4.7-4.6,6.4C24.8,77.3,21,78,17.7,77
	c-6-1.8-9.4-8.1-11.8-13.4C3.2,57.4,1.6,50.7,0.7,44c-0.5-3.8-0.8-7.6-0.5-11.4C1.7,15.4,17.5,2.1,34.1,0.2c0.5-0.1,1-0.1,1.5-0.1
	c5.2-0.4,10.5,0.4,15.1,2.7c0.9,0.5,1.8,1,2.6,1.6C54.2,5,55,5.8,55.7,6.5c5.1,5,9.8,10.7,12.1,17.6c1.1,3.4,1.7,7,2.1,10.6
	c1.6,17.7-3.2,35.4-4.9,53l-0.2,2.5l-0.2,2.5l-0.1,2.5l-0.1,2.5l-0.1,2.5l-0.1,2.5l-0.1,2.5l-0.1,2.5l-0.1,2.5l-0.1,2.5l0,2.5l0,2.5
	l0,2.5l0,2.5l0.1,2.5l0.1,2.5l0.1,2.5l0.1,2.5l0.2,2.5l0.2,2.5l0.2,2.5l0.2,2.5l0.3,2.5l0.3,2.5l0.4,2.5l0.4,2.5l0.5,2.4l0.5,2.4
	l0.5,2.4c0,0,0.5,2.4,0.5,2.4c1.7,7.8,3.9,15.6,8.7,22.1c4.5,6.2,11.5,10.9,19.2,11.3c8.2,0.4,15.9-4.1,22.3-9.3
	c6.5-5.3,12.2-11.4,17-18.2c2.4-3.4,4.6-7,6.6-10.8c1.9-3.6,3.1-7.5,5-11l1-2.3l0.9-2.3l0.9-2.3l0.8-2.3l0.8-2.3l0.7-2.4l0.7-2.4
	l0.7-2.4l0.7-2.4l0.6-2.4l0.6-2.4l0.6-2.4l0.6-2.4l0.5-2.4l0.5-2.4l0.5-2.4l0.5-2.4l0.4-2.5l0.4-2.5l0.4-2.5l0.4-2.5l0.4-2.5
	l0.4-2.5l0.3-2.5l0.3-2.5l0.3-2.5l0.3-2.5l0.2-2.5l0.2-2.5l0.2-2.5l0.2-2.5l0.1-2.5l0.1-2.5l0-2.5l0-2.5l-0.1-2.5l-0.1-2.5l-0.1-2.5
	l-0.1-2.5l-0.3-2.5l-0.3-2.5l-0.4-2.5l-0.4-2.5l-0.6-2.4l-0.6-2.4l-0.6-2.4l-0.6-2.4l-0.7-2.4l-0.7-2.4l-0.7-2.4l-0.7-2.4"/>
<path class="st0" d="M32.2,25.6c3.5,8.2,5.1,17.2,4,26.1c-1,8.6-4.2,17.2-12.1,21.7c-1.2,0.7-2.6,1.3-4,1.5c-2,0.3-4.1-0.4-5.9-1.4
	c-2.4-1.4-4.4-3.4-5.9-5.7l-1.4-2l-1-2.3l-1-2.3L4,59c0,0-0.9-2.3-0.9-2.3C1.2,52,0.8,45.8,0.7,40.8c-0.1-6.3,0.9-12.4,2.7-18.4
	l1.1-2.2L5.7,18L7.2,16l1.5-1.9l1.8-1.7l1.8-1.7c0,0,2-1.5,2-1.5c5.3-3.9,11.9-6,18.5-6c5.8,0,11.6,1.9,16,5.6
	c5.6,4.8,8.6,12.2,10.5,19.2l0.7,2.4l0.5,2.4l0.5,2.4l0.4,2.5l0.4,2.5l0.3,2.5l0.3,2.5l0.3,2.5l0.3,2.5l0.2,2.5l0.2,2.5l0.2,2.5
	l0.2,2.5l0.2,2.5l0.2,2.5l0.2,2.5l0.2,2.5l0.2,2.5l0.2,2.5l0.2,2.5l0.2,2.5l0.2,2.5l0.2,2.5l0.2,2.5l0.2,2.5l0.2,2.5l0.2,2.5
	l0.2,2.5l0.2,2.5l0.2,2.5l0.2,2.5l0.2,2.5l0.2,2.5L68,112l0.2,2.5l0.2,2.5l0.2,2.5l0.2,2.5l0.2,2.5l0.2,2.5l0.2,2.5l0.2,2.5l0.2,2.5
	l0.2,2.5l0.2,2.5l0.2,2.5l0.2,2.5l0.2,2.5l0.2,2.5l0.2,2.5l0.2,2.5l0.3,2.5l0.3,2.5l0.4,2.5l0.4,2.5l0.4,2.5l0.4,2.5l0.5,2.4
	l0.5,2.4c0,0,0.7,2.4,0.7,2.4c1.1,3.8,2.6,7.5,4.5,11c1.6,3,3.7,6,6.8,7.5c1.9,0.9,4.1,1.2,6.3,1.2c8.2,0,15.7-4.7,21.9-9.6
	c6.5-5.2,11.7-11.8,15.9-19c6-10.3,10.3-21.6,14.2-32.8l0.8-2.4l0.8-2.4l0.8-2.4l0.8-2.4l0.8-2.4l0.7-2.4l0.7-2.4l0.7-2.4l0.7-2.4
	l0.7-2.4l0.7-2.4l0.6-2.4l0.6-2.4l0.6-2.4l0.6-2.4l0.6-2.4l0.6-2.4l0.5-2.4l0.5-2.4l0.4-2.4l0.4-2.4l0.4-2.5l0.4-2.5l0.3-2.5
	l0.3-2.5l0.3-2.5l0.3-2.5l0.2-2.5l0.2-2.5l0.1-2.5l0.1-2.5l0.1-2.5l0.1-2.5l-0.1-2.5l-0.1-2.5l-0.1-2.5l-0.1-2.5l-0.2-2.5l-0.2-2.5
	l-0.3-2.5l-0.3-2.5l-0.5-2.4l-0.5-2.4l-0.6-2.4l-0.6-2.4l-0.7-2.4l-0.7-2.4l-0.8-2.4l-0.8-2.4"/>
<path class="st0" d="M154.6,6.1l0.9,2.3l0.9,2.3l0.8,2.4l0.8,2.4l0.7,2.4l0.7,2.4l0.7,2.4l0.7,2.4l0.6,2.4l0.6,2.4l0.5,2.4l0.5,2.4
	c0,0,0.4,2.4,0.4,2.4c3.6,19.9,2.3,40.4-0.9,60.3c-1.9,12-5.1,23.8-9.9,34.9c0,0-1,2.3-1,2.3c-7.1,16.1-15,33.5-29.3,44.6
	c-6.4,5-13.8,8.6-21.9,9.8c-1.7,0.3-3.4,0.4-5.1,0.3c-5.3-0.4-10.6-3-14.3-6.7c-4.5-4.5-7.1-10.9-8.8-16.9
	c-4.1-14.6-4.5-29.9-4.2-45l0-2.5l0-2.5l0-2.5l0.1-2.5l0.1-2.5l0.1-2.5l0.1-2.5l0.1-2.5l0.1-2.5l0.1-2.5l0.1-2.5l0.1-2.5l0.1-2.5
	c0,0,0.1-2.5,0.1-2.5C70.5,67.4,71,48,65.6,30c-0.6-1.9-1.3-3.6-1.9-5.5l-1.1-2.2L61.6,20l-1.2-2.2l-1.2-2.2l-1.4-2l-1.4-2l-1.5-2
	l-1.5-2l-1.6-1.9l-1.6-1.9l-1.7-1.8l-1.7-1.8"/>
<path class="st0" d="M166.9,61.6l0.2-0.9l0.2-0.9l0.2-0.9l0.2-0.9l0.1-0.9l0.1-0.9l0.1-0.9l0.1-0.9l0.1-0.9l0.1-0.9l0.1-0.9l0.1-0.9
	l0-0.9l0-0.9l0-0.9l0-0.9l0-0.9l0-0.9l0-0.9l0-0.9l0-0.9l0-0.9l0-0.9l0-0.9l0-0.9l0-0.9l0-0.9l0-0.9l0-0.9l0-0.9l0-0.9l0-0.9
	l-0.1-0.9l-0.1-0.9l-0.1-0.9l-0.1-0.9l-0.1-0.9l-0.1-0.9l-0.1-0.9l-0.1-0.9l-0.1-0.9l-0.1-0.9l-0.1-0.9l-0.1-0.9l-0.2-0.9l-0.2-0.9
	l-0.2-0.9l-0.2-0.9l-0.3-0.8l-0.3-0.8l-0.3-0.8l-0.3-0.8l-0.5-0.8l-0.5-0.8l-0.5-0.8l-0.5-0.8l-0.5-0.7l-0.5-0.7l-0.6-0.7l-0.6-0.7"
	/>
<path class="st1" d="M156.5,22c-4.9,6.5-8.8,13.6-11.7,21.2c-3.3,8.7-5.2,18.2-6.6,27.4c-1.6,10.5-1.9,21.1-1.8,31.7l0,2.5l0,2.5
	l0.1,2.5l0.1,2.5l0.1,2.5l0.1,2.5l0.2,2.5l0.2,2.5l0.2,2.5c0,0,0.2,2.5,0.2,2.5c1.8,20.4,4.8,40.8,7.5,61.1
	c0.5,3.5,0.8,6.9,1.1,10.4l0.3,2.5l0.1,2.5c0,0,0.1,2.5,0.1,2.5c0.7,12.2,0.2,24.7-2.9,36.5c-3.1,12.4-9.1,23.2-17.1,33.1
	c0,0-1.9,1.4-2,1.5c-6.8,5.1-15.2,8.3-23.8,8.5c-4.3,0.1-8.7-0.6-12.7-2c-4.1-1.5-8.5-3.2-12.1-5.6c-0.6-0.4-1.2-0.8-1.8-1.3
	c0,0-1.9-1.5-2-1.5c-4.4-3.4-7.4-9.9-8.6-15.2c-1.3-5.9-0.6-12.4,1.8-18c1.7-3.9,4.2-7.4,6.7-10.9c6.3-8.7,19.9-11.3,26.7-1.5
	c2.2,3.2,3.2,7.1,3.3,11c0.1,2.7-0.1,5.8-1.4,8.3c-0.9,1.7-2.4,2.8-4.2,3.1c-1.4,0.2-2.9,0-4.3-0.3c-0.5-0.1-0.9-0.2-1.3-0.5
	c-0.5-0.4-0.7-1-0.9-1.5C89,245.3,89.7,241,91,237"/>
<path class="st1" d="M163.4,11.3c-4.9,4-8.5,9.4-11.1,15.1c-2.1,4.6-3.7,9.5-5.2,14.4c-1.4,4.7-3,9.3-4.1,14.1
	c-2.3,10-3.6,20.2-4.2,30.4c-0.2,2.8-0.3,5.5-0.3,8.3c-0.3,15.6,1.2,31.1,3.3,46.6l0.4,2.5l0.4,2.5c0,0,0.4,2.5,0.4,2.5
	c2.6,15.4,6.1,30.6,7.8,46.1c0.8,7.6,1.3,15.2,1.2,22.9c-0.1,7.3-0.2,15.4-2.1,22.5l-0.5,2.4c0,0-0.5,2.4-0.5,2.4
	c-3.9,14.3-10.5,26.9-22.9,35.7c-13.1,9.3-34.5,15.1-48.9,5.6c-4.8-3.1-8.7-7.6-11.2-12.7c-3.8-7.5-4.8-16.2-4.1-24.5
	c0.7-7.8,5-15.2,10.9-20.3c1.1-0.9,2.2-1.8,3.5-2.6c6.7-3.9,16.3-2.6,21.4,3.3c2.4,2.8,3.9,6.3,4.8,9.9c0.9,3.4,1.4,7,0.7,10.5
	c-0.4,2.1-1.4,4.3-3.3,5.3c-1.5,0.8-3.4,0.6-5-0.1c-2.2-0.9-4-2.8-4.9-5c-1.1-2.8-0.2-5.2,0.1-8"/>
<path class="st1" d="M92.7,255.8c0,0,2.5,0,2.5,0c3.6,0.1,7.5-1.3,9.6-4.5c1.4-2,1.7-4.6,1.3-7.1c-0.4-2.4-1.3-4.7-2.5-6.9
	c-2.3-4.5-5.3-8.8-9.6-11.6c-5.1-3.4-11.4-3.7-16.7-0.6l-2.1,1.2c0,0-1.6,1.8-1.6,1.9c-5.7,6.7-7.9,17-7.2,25.7
	c1.2,16.5,12.8,31.7,30,33.2c4.7,0.4,9.4-0.2,13.8-1.7c3.8-1.3,7.3-3.5,10.7-5.6c3.4-2.1,6.4-4.6,9.2-7.4
	c5.6-5.8,9.8-12.9,12.8-20.3c5.1-13,6.8-27,7.5-40.9c0,0,0-2.4,0-2.5c-0.1-12.6-0.7-24.5-5.7-36.3"/>
<path class="st1" d="M161.5,9.7c-4.3,2.6-8.1,4.6-10.7,9.2c-1.2,2-2,4.3-2.7,6.5C141.3,45,136.8,65,136.1,85.8
	c-0.1,3.3-0.1,6.7-0.1,10l0,2.1l0,2.1l0,2.1l0.1,2.1l0.1,2.1l0.1,2.1l0.1,2.1l0.1,2.1l0.1,2.1l0.1,2.1l0.1,2.1l0.1,2.1l0.1,2.1
	l0.2,2.1l0.2,2.1"/>
</svg>
