<?xml version="1.0" encoding="utf-8" ?>
<svg baseProfile="full" height="291" version="1.1" viewBox="0,0,169,291" width="169" xmlns="http://www.w3.org/2000/svg" xmlns:ev="http://www.w3.org/2001/xml-events" xmlns:xlink="http://www.w3.org/1999/xlink">
	<path d="M 30.260911 25.693988 L 31.424902 27.313638 L 32.695068 28.851423 L 33.845650 30.480595 L 34.663280 32.299632 L 35.346602 34.173416 L 35.937142 36.078493 L 36.399422 38.018658 L 36.744602 39.983042 L 36.993228 41.961977 L 37.151342 43.950191 L 37.220701 45.943475 L 37.206014 47.937911 L 37.088566 49.928915 L 36.878083 51.912250 L 36.574427 53.883466 L 36.167030 55.835859 L 35.653662 57.763091 L 35.039306 59.660548 L 34.323559 61.522117 L 33.520411 63.347704 L 32.599564 65.116745 L 31.581037 66.831460 L 30.425642 68.456895 L 29.045981 69.895930 L 27.456293 71.098697 L 25.812023 72.227514 L 24.062735 73.184675 L 22.199908 73.894931 L 20.256037 74.337342 L 18.270047 74.208000 L 16.346362 73.688156 L 14.492820 72.953241 L 12.820317 71.870511 L 11.224460 70.674443 L 9.810285 69.269591 L 8.590949 67.692426 L 7.443127 66.061392 L 6.427863 64.345082 L 5.520394 62.569213 L 4.709987 60.746955 L 3.991587 58.886479 L 3.333213 57.003815 L 2.743146 55.098670 L 2.216223 53.175085 L 1.748600 51.236222 L 1.347357 49.282565 L 1.025452 47.314321 L 0.747814 45.339246 L 0.573863 43.352576 L 0.447100 41.362116 L 0.360283 39.369514 L 0.349867 37.375157 L 0.404947 35.381483 L 0.566138 33.393767 L 0.814050 31.414876 L 1.141344 29.447541 L 1.570442 27.500003 L 2.112356 25.580863 L 2.738028 23.687198 L 3.477432 21.835227 L 4.332068 20.033535 L 5.279751 18.278841 L 6.333835 16.586108 L 7.489696 14.961142 L 8.738106 13.406100 L 10.078818 11.929970 L 11.509098 10.540483 L 13.014121 9.232161 L 14.597609 8.020203 L 16.245563 6.897243 L 17.948750 5.859902 L 19.708999 4.922887 L 21.511678 4.069954 L 23.363176 3.329635 L 25.257564 2.707141 L 27.182167 2.184883 L 29.137867 1.796615 L 31.113718 1.527530 L 33.102934 1.390509 L 35.096356 1.417068 L 37.083227 1.584536 L 39.049216 1.914999 L 40.979085 2.414706 L 42.859582 3.076541 L 44.677597 3.894537 L 46.428072 4.848961 L 48.112860 5.915462 L 49.727030 7.086097 L 51.265581 8.354507 L 52.736444 9.701094 L 54.133756 11.123771 L 55.445740 12.625375 L 56.676411 14.194464 L 57.828401 15.822244 L 58.897126 17.505828 L 59.883377 19.239058 L 60.790037 21.015261 L 61.624794 22.826448 L 62.392151 24.667233 L 63.092513 26.534539 L 63.723817 28.426296 L 64.291131 30.338263 L 64.797467 32.267287 L 65.245259 34.210751 L 65.639196 36.165868 L 65.982331 38.130549 L 66.279900 40.102670 L 66.536900 42.080504 L 66.757931 44.062694 L 66.946963 46.048202 L 67.107141 48.036254 L 67.239304 50.026364 L 67.337199 52.018431 L 67.412020 54.011539 L 67.466583 56.005302 L 67.502259 57.999495 L 67.534336 59.993765 L 67.543665 61.988231 L 67.555355 63.982718 L 67.552730 65.977221 L 67.534245 67.971655 L 67.512052 69.966059 L 67.477783 71.960281 L 67.441348 73.954476 L 67.418125 75.948855 L 67.360550 77.942427 L 67.310162 79.936284 L 67.251094 81.929917 L 67.184522 83.923333 L 67.124780 85.916960 L 67.047288 87.909945 L 66.983692 89.903418 L 66.919384 91.896903 L 66.856578 93.890440 L 66.812273 95.884449 L 66.756205 97.878158 L 66.704938 99.872014 L 66.667348 101.866179 L 66.639354 103.860507 L 66.622449 105.854956 L 66.605578 107.849411 L 66.600989 109.843915 L 66.605955 111.838435 L 66.619666 113.832910 L 66.645313 115.827264 L 66.680783 117.821473 L 66.725470 119.815495 L 66.780301 121.809264 L 66.843165 123.802798 L 66.915013 125.796026 L 66.998486 127.788798 L 67.090821 129.781184 L 67.194364 131.773014 L 67.308745 133.764254 L 67.434652 135.754795 L 67.574461 137.744405 L 67.726479 139.733125 L 67.893014 141.720673 L 68.074732 143.706893 L 68.272480 145.691579 L 68.488166 147.674390 L 68.722416 149.655095 L 68.976773 151.633312 L 69.252366 153.608682 L 69.547802 155.581187 L 69.865410 157.550231 L 70.206180 159.515401 L 70.571432 161.476162 L 70.964803 163.431460 L 71.389501 165.380184 L 71.855226 167.319445 L 72.365944 169.247351 L 72.932387 171.159502 L 73.563831 173.051136 L 74.272050 174.915209 L 75.075636 176.739895 L 75.982991 178.515189 L 76.989578 180.236248 L 78.073123 181.910359 L 79.248970 183.520132 L 80.529554 185.047900 L 81.914451 186.481509 L 83.413755 187.793979 L 85.024393 188.967229 L 86.734569 189.989724 L 88.534467 190.843741 L 90.407395 191.523557 L 92.334950 192.028192 L 94.299176 192.365021 L 96.285181 192.524544 L 98.278355 192.519651 L 100.264453 192.355591 L 102.231500 192.034366 L 104.168981 191.566337 L 106.069790 190.965591 L 107.935547 190.262040 L 109.759515 189.457224 L 111.550559 188.579914 L 113.308500 187.638670 L 115.020747 186.616873 L 116.694051 185.531809 L 118.318304 184.375463 L 119.896294 183.155921 L 121.436699 181.889297 L 122.922972 180.560096 L 124.360674 179.177895 L 125.753040 177.750262 L 127.101635 176.280977 L 128.413906 174.779134 L 129.675241 173.234616 L 130.891925 171.654281 L 132.066087 170.042312 L 133.196295 168.399065 L 134.297504 166.736144 L 135.360000 165.048455 L 136.385340 163.337721 L 137.381639 161.609954 L 138.344446 159.863311 L 139.279699 158.101696 L 140.184516 156.324338 L 141.061705 154.533090 L 141.915558 152.730634 L 142.745695 150.917106 L 143.558663 149.095797 L 144.354168 147.266811 L 145.132976 145.430634 L 145.897554 143.588490 L 146.644739 141.739235 L 147.376431 139.883776 L 148.092530 138.022262 L 148.792091 136.154455 L 149.477639 134.281461 L 150.147275 132.402727 L 150.802878 130.519035 L 151.445240 128.630798 L 152.072997 126.737649 L 152.686379 124.839798 L 153.283438 122.936753 L 153.864817 121.028853 L 154.429887 119.116068 L 154.978786 117.198570 L 155.511059 115.276404 L 156.026696 113.349694 L 156.527233 111.419013 L 157.009928 109.483800 L 157.478443 107.545085 L 157.931562 105.602744 L 158.367987 103.656556 L 158.791101 101.707443 L 159.196000 99.754472 L 159.585249 97.798303 L 159.959469 95.839223 L 160.318698 93.877317 L 160.664104 91.912949 L 160.990615 89.945351 L 161.301070 87.975144 L 161.595522 86.002495 L 161.872026 84.027243 L 162.131880 82.049734 L 162.373715 80.069945 L 162.598359 78.088122 L 162.805733 76.104430 L 162.995605 74.118973 L 163.167987 72.131938 L 163.309447 70.142483 L 163.440353 68.152379 L 163.550373 66.161046 L 163.640002 64.168666 L 163.705664 62.175374 L 163.749141 60.181542 L 163.769688 58.187260 L 163.766077 56.192903 L 163.741221 54.198683 L 163.690385 52.205007 L 163.616179 50.212092 L 163.517965 48.220125 L 163.395802 46.229489 L 163.257788 44.239856 L 163.092000 42.252355 L 162.915639 40.265951 L 162.712026 38.281948 L 162.505033 36.298349 L 162.275273 34.317158 L 162.053755 32.335022 L 161.818487 30.354436 L 161.598579 28.372123 L 161.385875 26.389098 L 161.181720 24.405364 L 161.015872 22.418036 L 160.855341 20.430319 L 160.731198 18.439845 L 160.623389 16.448342 L 160.521176 14.456461 L 160.430206 12.464010" fill="none" stroke="black" stroke-width="1.000000" />
	<path d="M 155.739349 12.478206 L 154.708376 14.181887 L 153.707248 15.902248 L 152.800035 17.674577 L 151.950335 19.475281 L 151.171437 21.308322 L 150.433486 23.158989 L 149.733240 25.024413 L 149.079655 26.906522 L 148.431348 28.790482 L 147.834899 30.691922 L 147.233400 32.591761 L 146.659040 34.500039 L 146.087418 36.409138 L 145.530897 38.322657 L 144.980103 40.237868 L 144.443768 42.157090 L 143.911379 44.077482 L 143.398771 46.003152 L 142.891695 47.930365 L 142.404844 49.862810 L 141.931983 51.798654 L 141.477354 53.738849 L 141.044606 55.684008 L 140.633472 57.633829 L 140.234185 59.586233 L 139.869014 61.545326 L 139.524981 63.508265 L 139.201682 65.474701 L 138.901545 67.444820 L 138.621258 69.417864 L 138.363234 71.393925 L 138.126151 73.372634 L 137.908795 75.353582 L 137.714996 77.336985 L 137.542190 79.322328 L 137.390561 81.309399 L 137.260036 83.297971 L 137.149982 85.287781 L 137.060186 87.278609 L 136.990239 89.270234 L 136.939767 91.262450 L 136.905829 93.255027 L 136.886676 95.247794 L 136.883065 97.240657 L 136.892604 99.233501 L 136.916243 101.226222 L 136.954090 103.218731 L 137.005838 105.210919 L 137.073332 107.202641 L 137.153478 109.193898 L 137.244808 111.184673 L 137.347627 113.174889 L 137.462665 115.164431 L 137.590791 117.153177 L 137.730139 119.141169 L 137.880562 121.128353 L 138.041723 123.114698 L 138.211697 125.100308 L 138.390883 127.085107 L 138.580018 129.068984 L 138.780010 131.051789 L 138.991882 133.033367 L 139.214037 135.013813 L 139.448412 136.992853 L 139.692679 138.970700 L 139.945668 140.947448 L 140.207285 142.923076 L 140.475942 144.897756 L 140.753183 146.871251 L 141.037221 148.843781 L 141.327107 150.815459 L 141.623190 152.786217 L 141.924335 154.756208 L 142.231065 156.725337 L 142.542151 158.693784 L 142.855952 160.661799 L 143.172701 162.629342 L 143.493877 164.596167 L 143.820650 166.562069 L 144.152547 168.527113 L 144.490148 170.491182 L 144.838888 172.453292 L 145.198447 174.413463 L 145.549773 176.375112 L 145.894247 178.337976 L 146.242960 180.300068 L 146.570145 182.265899 L 146.887831 184.233284 L 147.191056 186.202935 L 147.474755 188.175500 L 147.739711 190.150659 L 147.982887 192.128624 L 148.206063 194.108944 L 148.408461 196.091492 L 148.589198 198.076134 L 148.748762 200.062592 L 148.887102 202.050637 L 149.003552 204.040089 L 149.099576 206.030628 L 149.173501 208.022109 L 149.225146 210.014297 L 149.254780 212.006923 L 149.260196 213.999774 L 149.244136 215.992555 L 149.201171 217.984928 L 149.130200 219.976519 L 149.035525 221.967108 L 148.911454 223.956079 L 148.756658 225.942884 L 148.567253 227.926681 L 148.342169 229.906761 L 148.083356 231.882691 L 147.784459 233.852953 L 147.445134 235.816662 L 147.067201 237.773316 L 146.652660 239.722542 L 146.200485 241.663370 L 145.707088 243.594124 L 145.170953 245.513441 L 144.590211 247.419735 L 143.964417 249.311706 L 143.291278 251.187353 L 142.570642 253.045267 L 141.801872 254.883776 L 140.983882 256.700933 L 140.118255 258.495862 L 139.201478 260.265221 L 138.235197 262.008030 L 137.217778 263.721465 L 136.147529 265.402445 L 135.029133 267.051732 L 133.857000 268.663303 L 132.634474 270.236926 L 131.354360 271.764014 L 130.013591 273.238200 L 128.618388 274.660857 L 127.161211 276.020026 L 125.647722 277.316108 L 124.074477 278.538946 L 122.444623 279.685384 L 120.768242 280.762631 L 119.047609 281.767754 L 117.288219 282.703346 L 115.491271 283.564605 L 113.659580 284.349264 L 111.795794 285.054219 L 109.901347 285.672125 L 107.980855 286.203446 L 106.036548 286.639654 L 104.073115 286.979717 L 102.095781 287.226197 L 100.108477 287.371696 L 98.116249 287.412496 L 96.124591 287.350796 L 94.139334 287.179462 L 92.166080 286.902195 L 90.211067 286.517227 L 88.283834 286.010691 L 86.384465 285.408211 L 84.522325 284.698820 L 82.699140 283.894592 L 80.921295 282.994646 L 79.198982 281.992434 L 77.534667 280.896726 L 75.944229 279.696218 L 74.428029 278.403201 L 72.991876 277.021878 L 71.649697 275.548936 L 70.386870 274.007554 L 69.233925 272.382249 L 68.178740 270.691796 L 67.216411 268.946856 L 66.364389 267.145378 L 65.592390 265.308244 L 64.929684 263.428874 L 64.361933 261.518662 L 63.888868 259.582827 L 63.516685 257.625079 L 63.241309 255.651357 L 63.044243 253.668323 L 62.964798 251.677103 L 63.007473 249.684732 L 63.158005 247.697577 L 63.396974 245.719100 L 63.719601 243.752547 L 64.167053 241.810568 L 64.709394 239.892917 L 65.353652 238.007056 L 66.117783 236.166496 L 66.973313 234.366603 L 67.941950 232.624985 L 69.027148 230.953522 L 70.214080 229.352704 L 71.534571 227.860213 L 72.968755 226.476609 L 74.517251 225.222312 L 76.204054 224.161511 L 77.998372 223.294859 L 79.893027 222.678119 L 81.821870 222.177286 L 83.781929 221.817810 L 85.765785 221.630471 L 87.755101 221.738488 L 89.711122 222.117031 L 91.594035 222.767865 L 93.353691 223.701608 L 95.003633 224.818610 L 96.563273 226.058860 L 97.896136 227.538913 L 99.018282 229.184978 L 100.090714 230.864661 L 100.971301 232.651780 L 101.697589 234.507262 L 102.293897 236.408599 L 102.645011 238.369471 L 102.778273 240.357281 L 102.565364 242.337066 L 102.142488 244.283965 L 101.520649 246.176699 L 100.729392 248.005234 L 99.589281 249.636536 L 97.843988 250.570138 L 95.864171 250.752305 L 93.933916 250.268718 L 92.311133 249.114739 L 91.236561 247.437023 L 90.619710 245.542415 L 90.415558 243.560105 L 90.448302 241.567543 L 90.731390 239.594875" fill="none" stroke="black" stroke-width="1.000000" />
</svg>