<svg id="Layer_1" data-name="Layer 1" xmlns="http://www.w3.org/2000/svg" viewBox="0 0 140.0876 267.6538"><defs><style>.cls-1{fill:none;stroke:#231f20;stroke-miterlimit:10;stroke-width:0.5px;}</style></defs><polyline class="cls-1" points="139.864 4.249 135.619 12.738 131.374 21.228 127.129 29.718 122.885 38.207 118.64 46.697 114.395 55.187 110.15 63.677 105.905 72.166 101.66 80.656 97.415 89.146 93.171 97.636 88.926 106.125 84.681 114.615 80.436 123.105 76.191 131.594 71.946 140.084 67.701 148.574 63.457 157.064 59.212 165.553 54.967 174.043 50.722 182.533 46.477 191.023 42.232 199.512 37.987 208.002 33.743 216.492 29.498 224.982 25.253 233.471 21.008 241.961 16.763 250.451 12.518 258.94 8.273 267.43"/><polyline class="cls-1" points="0.224 263.405 4.468 254.915 8.713 246.425 12.958 237.936 17.203 229.446 21.448 220.956 25.693 212.467 29.937 203.977 34.182 195.487 38.427 186.997 42.672 178.508 46.917 170.018 51.162 161.528 55.406 153.038 59.651 144.549 63.896 136.059 68.141 127.569 72.386 119.08 76.63 110.59 80.875 102.1 85.12 93.61 89.365 85.121 93.61 76.631 97.855 68.141 102.099 59.652 106.344 51.162 110.589 42.672 114.834 34.182 119.079 25.693 123.324 17.203 127.568 8.713 131.813 0.224"/><path class="cls-1" d="M206.4,51.4209" transform="translate(-66.5357 -47.1724)"/><path class="cls-1" d="M198.3489,47.396" transform="translate(-66.5357 -47.1724)"/><line class="cls-1" x1="0.2236" y1="263.4048" x2="8.2734" y2="267.4302"/><line class="cls-1" x1="131.8133" y1="0.2236" x2="139.864" y2="4.2485"/></svg>