<svg id="Layer_1" data-name="Layer 1" xmlns="http://www.w3.org/2000/svg" viewBox="0 0 264.45578 194.29177"><defs><style>.cls-1{fill:none;}.cls-2{fill:#231f20;stroke:#231f20;stroke-miterlimit:10;stroke-width:0.5px;}</style></defs><line class="cls-1" x1="5.56942" y1="185.73619" x2="5.97586" y2="193.72588"/><path class="cls-2" d="M333.27725,294.01261q-6.53358-1.0875-13.10908-2.10534-6.57384-1.008-13.17965-1.887-6.60415-.86918-13.23034-1.55018-6.62452-.67113-13.26115-1.09483-6.635-.41384-13.27207-.521-6.63546-.09728-13.26312.17135-6.626.27852-13.2343.9822c-.35754.0387-.74524.08063-1.157.1181s-.84759.07049-1.30139.09134-.92559.02957-1.40926.01843-.97924-.04214-1.48062-.10067a12.97228,12.97228,0,0,1-1.51545-.26592,10.98386,10.98386,0,0,1-1.51377-.47734,9.84651,9.84651,0,0,1-1.47557-.73492,9.58286,9.58286,0,0,1-1.40085-1.03867,10.05555,10.05555,0,0,1-1.23246-1.3151,10.22807,10.22807,0,0,1-.98076-1.51711,11.24611,11.24611,0,0,1-.72785-1.71221,13.15911,13.15911,0,0,1-.47372-1.9004,16.053,16.053,0,0,1-.21838-2.08167,20.03405,20.03405,0,0,1,.03817-2.256q.08343-1.17045.29594-2.42348.21261-1.25245.55492-2.584.44349-1.72467.9661-3.41217.52075-1.688,1.10949-3.342.58687-1.65453,1.23058-3.27823.64183-1.6242,1.32933-3.22073.68563-1.597,1.40578-3.16955.71829-1.573,1.45991-3.1247.73977-1.55218,1.49173-3.08615.75009-1.5345,1.50122-3.05393.19044-.386.38072-.77194t.38022-.772q.18994-.386.37943-.77218t.37831-.7725q.18882-.38635.37689-.77295t.37517-.77356q.18709-.38694.37313-.77428t.37078-.77516q1.73566-3.64691,3.27054-7.20293,1.53516-3.557,2.8712-7.029,1.33632-3.47294,2.47516-6.8667,1.13913-3.39474,2.08244-6.71614.94359-3.32238,1.693-6.57728.7497-3.25589,1.30691-6.45012.55748-3.19523.9241-6.33466.3669-3.14041.5446-6.2309c.14355-2.49408.27338-4.99783.37077-7.49536s.16236-4.98883.17621-7.458-.02342-4.91623-.13051-7.32526-.284-4.78-.5494-7.0971-.61934-4.58023-1.08046-6.77356a54.43335,54.43335,0,0,0-1.72367-6.35462,41.70491,41.70491,0,0,0-2.47905-5.84027,34.12176,34.12176,0,0,0-3.34659-5.23053c-1.41235-1.81067-2.77876-3.46324-4.11734-4.96722s-2.64932-2.85935-3.95034-4.07564a41.59643,41.59643,0,0,0-3.892-3.24107,31.32171,31.32171,0,0,0-3.94238-2.4635,27.61258,27.61258,0,0,0-4.10141-1.74294,29.23679,29.23679,0,0,0-4.36911-1.07938,36.83254,36.83254,0,0,0-4.74549-.47281c-1.65663-.06284-3.3941-.0341-5.23053.07674-2.12506.12787-4.13161.31921-6.03477.58217a54.9561,54.9561,0,0,0-5.41437,1.01195,41.91383,41.91383,0,0,0-4.88463,1.49067,35.85546,35.85546,0,0,0-4.44553,2.01836,35.14542,35.14542,0,0,0-4.09707,2.595,39.60487,39.60487,0,0,0-3.83928,3.2206,50.45755,50.45755,0,0,0-3.67213,3.89517c-1.20625,1.41626-2.39975,2.9531-3.59562,4.61869a57.71237,57.71237,0,0,0-3.3979,5.341q-1.58639,2.81652-2.94556,5.91667-1.35867,3.09807-2.487,6.4672-1.12784,3.367-2.02225,6.99257-.8939,3.62343-1.55127,7.49276-.65687,3.86724-1.0741,7.96779-.41673,4.09846-.59071,8.41766-.17347,4.31711-.10112,8.84237c.02735,1.70013.13432,3.41091.31064,5.13008s.422,3.44674.72668,5.18046.66844,3.47357,1.08092,5.21734.87372,3.49142,1.3734,5.24073,1.03781,3.50028,1.60409,5.25065,1.16071,3.50014,1.773,5.24707,1.24243,3.491,1.88013,5.23,1.28295,3.4729,1.92547,5.19946q.45795,1.23047.91838,2.47049.45975,1.23955.91778,2.48587.45735,1.24586.90879,2.49567.45075,1.24935.8914,2.49987.43995,1.25007.86563,2.49851.425,1.248.83147,2.49154.4058,1.24311.78892,2.479.38243,1.23543.738,2.46087c.37115,1.28174.73454,2.57143,1.07635,3.86462s.662,2.58987.94684,3.8856.53423,2.59051.73442,3.87988.35117,2.57333.43911,3.84744a34.33027,34.33027,0,0,1,.06087,3.78831,27.20644,27.20644,0,0,1-.40025,3.70245,23.06943,23.06943,0,0,1-.9443,3.58988,21.44635,21.44635,0,0,1-1.57124,3.45061,20.037,20.037,0,0,1-2.77423,3.78792,20.72764,20.72764,0,0,1-3.34826,2.89131,24.19049,24.19049,0,0,1-3.73909,2.11921,30.156,30.156,0,0,1-3.94671,1.47158,38.5492,38.5492,0,0,1-3.97114.94846c-1.30742.24279-2.58838.41914-3.81235.5498s-2.39093.21563-3.47037.27566-2.07134.0951-2.94518.126c-1.31488.0465-2.73947.10594-4.25893.1766s-3.13379.15256-4.82814.244-3.46874.1924-5.3083.30121-3.74432.22546-5.69942.34826-3.96052.25176-6.00146.38517-4.11737.27127-6.21447.41189-4.21485.284-6.33842.42847-4.253.29-6.37332.43487c-2.12842.14551-4.2659.29163-6.39772.43667s-4.258.289-6.36378.43017-4.1912.27959-6.24152.41354-4.06552.26342-6.03091.38674-3.881.24048-5.732.3498-3.63753.21078-5.34476.30271l-.3699-7.9912c1.69432-.09143,3.46867-.19239,5.30822-.3012s3.74427-.22547,5.69935-.34827,3.9605-.25176,6.00143-.38516,4.11736-.27127,6.21445-.4119,4.21484-.284,6.33841-.42847,4.253-.29,6.37332-.43487c2.12842-.14551,4.2659-.29163,6.39773-.43666s4.258-.289,6.36378-.43018,4.1912-.27959,6.24151-.41353,4.06552-.26342,6.03092-.38675,3.881-.24048,5.732-.3498,3.63752-.21078,5.34475-.30271,3.3352-.17431,4.86918-.24546,2.974-.13108,4.30529-.17808c1.108-.0393,2.21381-.09246,3.30791-.16831s2.17651-.17437,3.23781-.3044,2.10148-.29158,3.11111-.49346a29.22719,29.22719,0,0,0,2.92782-.73549,20.938,20.938,0,0,0,2.68793-1.03046,15.68679,15.68679,0,0,0,2.39144-1.37841,12.81721,12.81721,0,0,0,2.03836-1.77932,12.03312,12.03312,0,0,0,1.62867-2.23319,13.20764,13.20764,0,0,0,1.08-2.47541,16.09551,16.09551,0,0,0,.60806-2.68913,21.30858,21.30858,0,0,0,.19873-2.868,29.46263,29.46263,0,0,0-.148-3.012c-.10014-1.02414-.24763-2.06647-.432-3.1212s-.4057-2.12183-.65346-3.19552-.522-2.154-.81228-3.235-.59656-2.16287-.90845-3.23965q-.3393-1.17151-.70371-2.34826-.364-1.177-.75071-2.36088-.3863-1.18411-.79285-2.37666-.40615-1.19281-.83012-2.39564-.42357-1.2031-.86254-2.4178-.43856-1.215-.89007-2.44314-.45112-1.22842-.91276-2.47165-.46125-1.24349-.93058-2.50335-1.008-2.70851-2.01383-5.43914-1.00045-2.7302-1.96652-5.47988-.9607-2.74923-1.85476-5.51532-.88867-2.76564-1.6785-5.54546-.78446-2.77938-1.43779-5.57029-.648-2.79048-1.13261-5.58983c-.31951-1.86594-.5774-3.73425-.763-5.60405s-.29873-3.74108-.32882-5.613q-.0792-4.91692.10827-9.585.18732-4.66747.64045-9.08267.453-4.41462,1.1709-8.57354.71778-4.15835,1.69964-8.05757.98172-3.89866,2.22667-7.53479,1.24479-3.63555,2.752-7.00517,1.507-3.369,3.27556-6.46873a67.55973,67.55973,0,0,1,3.79744-5.92546q2.04776-2.85224,4.1486-5.29748a58.0325,58.0325,0,0,1,4.30692-4.51175,47.65261,47.65261,0,0,1,4.54344-3.76839,43.27086,43.27086,0,0,1,4.85815-3.0674,43.99111,43.99111,0,0,1,5.25108-2.40876,49.94906,49.94906,0,0,1,5.7222-1.7925,62.354,62.354,0,0,1,6.27152-1.2186c2.19076-.31526,4.4861-.54193,6.89906-.68707a57.98851,57.98851,0,0,1,6.98592-.02091,44.03356,44.03356,0,0,1,6.21822.80579,37.10982,37.10982,0,0,1,5.571,1.59768,35.77192,35.77192,0,0,1,5.04422,2.35475,39.83116,39.83116,0,0,1,4.6379,3.077,50.63406,50.63406,0,0,1,4.35206,3.76446c1.41643,1.36552,2.80529,2.83982,4.18666,4.41708s2.75526,3.25751,4.14174,5.03491a42.08067,42.08067,0,0,1,3.91267,6.02823,48.62032,48.62032,0,0,1,2.908,6.59345,60.35724,60.35724,0,0,1,2.0332,7.06767c.54636,2.42481.96854,4.91348,1.28818,7.45085s.53674,5.12343.67294,7.743.19148,5.2727.1875,7.94417-.06724,5.36129-.16813,8.05429-.23943,5.3892-.394,8.0734q-.18933,3.28886-.57618,6.62208-.38714,3.33426-.97354,6.71908-.58668,3.38586-1.3744,6.82846-.788,3.44362-1.77876,6.95019-.99106,3.5076-2.18664,7.0843-1.19586,3.57772-2.598,7.23076-1.40242,3.65406-3.01287,7.38959-1.61074,3.73658-3.43125,7.56079-.1875.394-.37636.78761t-.37886.78674q-.19.39317-.381.786t-.38282.78541q-.19179.39258-.38428.785t-.3854.78463q-.19293.39225-.38618.78444t-.38662.7844q-.74853,1.51832-1.484,3.018-.73412,1.5008-1.447,2.98993-.71153,1.4903-1.39366,2.97592-.68077,1.4868-1.324,2.97592-.64188,1.4903-1.23805,2.98993-.59481,1.50079-1.13576,3.01794-.53958,1.51831-1.01715,3.06-.4762,1.54282-.88223,3.116-.1798.69855-.30883,1.36376c-.08605.44257-.15525.87222-.20771,1.28623s-.08818.8124-.10728,1.19244-.02157.74174-.00753,1.08237a8.30279,8.30279,0,0,0,.09153.956,5.3781,5.3781,0,0,0,.1899.81341,3.27512,3.27512,0,0,0,.28759.65453,1.99667,1.99667,0,0,0,.38459.47935,1.68473,1.68473,0,0,0,.38117.2521,2.6116,2.6116,0,0,0,.47656.17474,4.28212,4.28212,0,0,0,.56033.10729c.19945.02562.41092.04165.63248.04974s.4532.00823.693.00208.48774-.01859.74189-.03567.51451-.03881.77914-.06352.53354-.05243.80478-.08148q6.8141-.73663,13.62453-1.0184,6.80931-.29187,13.60815-.18946,6.79772.09231,13.57815.51829,6.77929.41589,13.53451,1.10485,6.75407.67887,13.47724,1.57021,6.722.88125,13.40635,1.91438,6.68318,1.023,13.32182,2.13736Z" transform="translate(-70.24649 -104.65627)"/></svg>