<svg id="Layer_1" data-name="Layer 1" xmlns="http://www.w3.org/2000/svg" viewBox="0 0 265.0607 193.58824"><defs><style>.cls-1{fill:#231f20;}</style></defs><path class="cls-1" d="M333.27725,294.01261q-3.26679-.54375-6.54448-1.07255-3.27747-.52758-6.5646-1.03279-3.28692-.504-6.58225-.9782-3.29512-.473-6.5974-.9088-3.30209-.43459-6.61008-.8246-3.30779-.38878-6.62026-.72558-3.31227-.33557-6.628-.61174-3.31548-.27494-6.63318-.48309-3.31748-.20693-6.63591-.33964-3.31822-.13148-6.63616-.18136-3.31773-.04865-6.63392-.00827-3.316.0416-6.6292.17962-3.313.13926-6.622.38234-3.30877.24432-6.6123.59986-.26816.029-.55817.05951-.28963.03-.59883.05859-.30882.02811-.63493.0519-.32573.02332-.66646.03944-.34035.01565-.69343.02122-.35269.00508-.71583-.00279-.36276-.00837-.73367-.03257-.37054-.02467-.74695-.0681-.376-.0439-.75565-.10942-.37924-.066-.7598-.1565-.38018-.091-.75938-.20935-.37881-.11886-.75439-.268-.37518-.1496-.74484-.33237-.36927-.18325-.73073-.40255-.36106-.21977-.712-.47848-.35059-.25919-.68881-.56019-.33948-.30294-.64762-.63186-.30813-.32885-.58484-.68324-.2767-.35432-.52192-.73373-.2452-.37935-.45884-.78338-.21363-.40395-.39562-.83215-.182-.42813-.33223-.88006-.15025-.45186-.2687-.92711-.11846-.47517-.205-.97329-.08657-.498-.14119-1.01861-.0546-.52048-.07719-1.06306-.02258-.54251-.01306-1.10666.00952-.56407.05123-1.14938.04172-.58522.11568-1.19124.074-.60594.18026-1.23224.10631-.62623.245-1.27238.13872-.64608.30991-1.31165.22174-.86234.46373-1.71524.24176-.853.50237-1.69693.26038-.844.53822-1.67939.2776-.83544.57127-1.66265.29344-.82727.60155-1.64669.30788-.81949.629-1.63154.32091-.8121.65371-1.61715.33256-.80513.67562-1.60358.34282-.79853.69473-1.59078.35168-.79232.71105-1.57877.35914-.78652.72459-1.56756.36521-.78111.73532-1.55714.36989-.77608.74328-1.5475.37317-.77147.74845-1.53865.375-.76725.75082-1.5306.37554-.76341.7504-1.52333l.1904-.386.19032-.386.19019-.386.19-.386.18983-.38606.1896-.38612q.09473-.19308.18931-.3862t.189-.3863q.09441-.19317.18864-.38641t.18825-.38654q.094-.19332.18782-.3867t.18735-.38686q.09355-.19347.18684-.387t.18629-.38724q.093-.19368.1857-.38746t.18508-.3877q.86783-1.82344,1.6854-3.62394.81759-1.80061,1.58514-3.579.76758-1.7785,1.48531-3.5355.71777-1.75713,1.38589-3.49348.66816-1.73646,1.28688-3.4529.61875-1.71655,1.18828-3.4138.56957-1.69737,1.09011-3.37616.52058-1.67892.99233-3.34.47179-1.66119.895-3.30527.42322-1.64419.798-3.272.37485-1.62793.70151-3.24023.32668-1.61239.6054-3.20989.27873-1.5976.50969-3.181.231-1.58355.41441-3.15363.18345-1.5702.31953-3.12769.13611-1.5576.22507-3.10321.10694-1.8582.14116-3.70248.03439-1.84369-.003-3.66994-.0372-1.82566-.1452-3.63037-.10783-1.80412-.28552-3.58377-.17752-1.779-.42393-3.53011-.24624-1.75047-.56042-3.46943-.314-1.71837-.695-3.40171-.38082-1.68274-.82767-3.327-.44668-1.64361-.95843-3.24515-.51159-1.60095-1.08729-3.15632-.57554-1.55478-1.21422-3.06045-.63852-1.50509-1.33924-2.95753-.70056-1.45188-1.46236-2.8476-.76165-1.39514-1.58357-2.73061-.82178-1.33488-1.70286-2.60658-.88094-1.27112-1.82024-2.47553-.96516-1.23733-1.99971-2.40829-1.03377-1.1706-2.13229-2.27265-1.09773-1.10169-2.25553-2.13267-1.157-1.03064-2.36943-1.98839-1.21164-.95741-2.474-1.83978-1.26157-.882-2.5692-1.68684-1.30683-.80447-2.655-1.52958-1.34744-.72476-2.73158-1.368-1.38336-.64288-2.79876-1.20209-1.4146-.55885-2.85658-1.03187-1.4412-.47265-2.90508-.85731-1.4631-.3843-2.94422-.67844-1.48034-.29379-2.974-.49525-1.49291-.20109-2.99448-.30772-1.50079-.10626-3.00559-.11588-1.504-.00926-3.00736.08029-1.48.089-2.95547.27191-1.47481.18256-2.94133.45691-1.4659.274-2.91981.63761-1.4533.36327-2.89092.814-1.437.45039-2.85465.98612-1.417.53538-2.811,1.15394-1.39337.6182-2.76,1.31745-1.366.69888-2.70157,1.47666-1.335.77742-2.63579,1.63158-1.30021.85381-2.56263,1.78221-1.26179.928-2.48209,1.92853-1.21968,1.00012-2.39418,2.07055-1.17388,1.07007-2.2989,2.20829-1.12439,1.13786-2.19622,2.34172-1.07122,1.2035-2.08619,2.47085-1.01435,1.267-1.96876,2.59569-.96336,1.34184-1.87007,2.75107-.90659,1.40878-1.75578,2.88222-.84907,1.473-1.64,3.00794-.79083,1.5345-1.52277,3.12822-.73183,1.59328-1.404,3.24307-.67209,1.64934-1.28385,3.35248-.61162,1.7027-1.16218,3.45646-.55041,1.75332-1.039,3.555-.48849,1.80123-.9144,3.64812-.42581,1.84643-.7883,3.73578-.36237,1.88891-.66072,3.818-.29821,1.92867-.53166,3.89483-.23333,1.96571-.40114,3.9662-.16769,2-.26912,4.03214-.10131,2.03164-.13564,4.09264-.0342,2.06055-.00068,4.14771.0319,1.98116.11878,3.954.08633,1.97273.2244,3.93654.13752,1.96371.32354,3.91792.18549,1.95411.41622,3.89812.23019,1.94391.5024,3.87714.27168,1.93313.58213,3.855.30991,1.92175.65537,3.83164.34492,1.9098.72214,3.80713.37668,1.89723.78243,3.78142.40521,1.88409.83625,3.75455.4305,1.87036.8836,3.72649.45255,1.856.92446,3.69726.47136,1.84113.95885,3.66684.48695,1.82562.98677,3.63525.49928,1.80953,1.00821,3.60247.50838,1.79284,1.02318,3.56852.27837.9612.54918,1.92783.27.96633.52717,1.93642.25635.96979.49479,1.94166.23757.97159.45205,1.94358.21361.97171.399,1.94216.18447.97017.33549,1.93739.15015.967.26166,1.9293.11066.96206.17748,1.91785.066.95551.08292,1.90309.0161.94728-.022,1.885-.039.9374-.13726,1.86352-.09918.92584-.26291,1.83873-.16458.91262-.3989,1.81062-.23519.89771-.54527,1.77915-.311.88115-.702,1.74435-.39191.86292-.86909,1.70621a20.30017,20.30017,0,0,1-1.30408,2.01431,19.88246,19.88246,0,0,1-1.47047,1.77449,20.24268,20.24268,0,0,1-1.614,1.55025,21.3211,21.3211,0,0,1-1.73454,1.34157q-.89361.62121-1.83224,1.14847-.93672.52855-1.907.97094-.9684.44369-1.95892.809-.98862.36659-1.98791.66259-.99738.2973-1.994.53177-.99471.23578-1.9772.41653c-.65372.12137-1.30083.22612-1.9375.31686s-1.26291.16745-1.87489.23275-1.20972.11917-1.78939.16422-1.14127.08126-1.681.11125-1.05756.05375-1.54969.07387-.95858.0366-1.3955.052l-3.96914.14032-3.96915.14032-3.96915.14032-3.96914.14032-3.96915.14032-3.96915.14032-3.96914.14032-3.96915.14032-3.96915.14032-3.96914.14032-3.96915.14032-3.96915.14032-3.96914.14032-3.96915.14032-.14111-3.99707-.14112-3.99707,3.96915-.14032,3.96915-.14032,3.96914-.14032,3.96915-.14032,3.96915-.14032,3.96914-.14032,3.96915-.14032,3.96915-.14032,3.96914-.14032,3.96915-.14032,3.96915-.14032,3.96914-.14032,3.96915-.14032,3.96915-.14032q.831-.02938,1.65917-.07028.82756-.04144,1.64872-.09771.82056-.05682,1.63118-.13176.81-.07548,1.60659-.17242.796-.09747,1.57491-.21971.77835-.12277,1.53616-.27361.75721-.1514,1.49034-.33415.73254-.1833,1.43746-.40129.70433-.21854,1.37749-.47506.67258-.25707,1.31046-.55545.6373-.29892,1.23636-.64246.59847-.34409,1.15518-.73608a13.315,13.315,0,0,0,1.06693-.83634,12.406,12.406,0,0,0,.97161-.94321,12.03761,12.03761,0,0,0,1.629-2.23352,12.78194,12.78194,0,0,0,.60282-1.20881q.26931-.61922.477-1.26659.20837-.647.359-1.32.15134-.67265.24889-1.3691.09822-.69609.14657-1.41382.049-.71736.05208-1.45418.00372-.73645-.03459-1.49019-.03765-.75336-.11343-1.52183-.07512-.76811-.18444-1.54913-.10866-.78066-.24762-1.57207-.1383-.791-.303-1.59065-.164-.79924-.35051-1.60488-.18582-.80526-.3902-1.61475-.20373-.80911-.42208-1.62026-.21769-.81078-.44612-1.62142-.22776-.81027-.46233-1.61822-.52872-1.82547-1.052-3.66943-.52271-1.84389-1.03661-3.70585-.51336-1.86187-1.0146-3.74141-.50068-1.87946-.98593-3.77613-.48469-1.8966-.95062-3.81-.46538-1.91332-.90865-3.843-.44272-1.92961-.86-3.8752-.41674-1.9455-.80475-3.90653-.38745-1.96095-.74283-3.937-.35483-1.976-.67426-3.96665-.31887-1.99059-.599-3.99543-.2796-2.00478-.51715-4.02337-.237-2.01854-.42861-4.05046-.19107-2.03187-.33344-4.07671-.14181-2.04477-.23159-4.1021-.08924-2.05727-.12312-4.12665-.03621-2.24666.0021-4.46748.03816-2.22033.15-4.41187.11174-2.19105.29637-4.35037.18449-2.15883.44106-4.283.25644-2.12367.58415-4.2097.32758-2.08554.72562-4.13052.3979-2.04447.86546-4.04544.46743-2.00047,1.0037-3.95449.53613-1.95351,1.1403-3.85762.604-1.90362,1.27528-3.75488.67113-1.85076,1.40866-3.64623.7374-1.795,1.54041-3.53169.80288-1.73623,1.67054-3.41127.86753-1.67454,1.799-3.28494.93138-1.60992,1.92594-3.15273.99443-1.54233,2.05122-3.01463,1.08411-1.50979,2.23931-2.95036,1.15447-1.44017,2.37581-2.80865,1.22063-1.36809,2.50386-2.66206,1.28254-1.29355,2.62347-2.51056,1.34023-1.21659,2.73462-2.35419,1.39369-1.13718,2.83733-2.19293,1.44293-1.05533,2.93158-2.02677,1.48794-.971,3.01738-1.85574,1.52874-.88429,3.09475-1.67982,1.56529-.79511,3.16365-1.499,1.59764-.70348,3.2241-1.31331,1.62576-.60942,3.27612-1.12272,1.64966-.5129,3.31967-.92724,1.66932-.41394,3.35479-.72689,1.68475-.31254,3.38144-.52164,1.696-.20868,3.39966-.3115,1.74674-.10422,3.49527-.09352,1.74765.01029,3.49172.133,1.74316.12232,3.47737.3546,1.73329.23185,3.45225.57118,1.718.33891,3.41635.78279,1.69742.44346,3.36969.98941,1.67137.54553,3.31224,1.19105,1.64.64509,3.244,1.3877,1.60315.74218,3.165,1.57937,1.561.83678,3.07524,1.76606,1.51338.92888,2.97469,1.94777,1.46042,1.01847,2.86337,2.12448,1.402,1.1056,2.74126,2.29623,1.33832,1.19022,2.60839,2.463,1.26918,1.27235,2.46473,2.62476,1.19466,1.352,2.3103,2.78154,1.04947,1.34527,2.03422,2.7636.98457,1.41766,1.90336,2.9045.9186,1.48619,1.77035,3.03765.85156,1.55082,1.63521,3.163.78346,1.61154,1.49793,3.28061.71428,1.6684,1.3585,3.39043.644,1.72138,1.21694,3.49249.57271,1.77046,1.07324,3.58678.50033,1.81566.92739,3.67328.42688,1.857.77941,3.752.35235,1.89439.62928,3.823.27676,1.928.477,3.8862.20008,1.95759.32262,3.94162.12234,1.98336.16607,3.98927.04355,2.00526.00739,4.02916-.03633,2.02326-.15343,4.06127-.09467,1.64442-.23864,3.29969-.144,1.65538-.33754,3.32239-.19356,1.66713-.43688,3.34664-.24335,1.67965-.53666,3.37244-.29334,1.69293-.63687,3.39979-.34356,1.707-.73753,3.42867-.394,1.72182-.83861,3.45911-.44466,1.73742-.94015,3.49108-.49554,1.7538-1.04212,3.52461-.54662,1.77095-1.14452,3.55969-.59793,1.78885-1.24736,3.5963-.64945,1.80756-1.35064,3.63446-.70122,1.827-1.45436,3.67417-.75318,1.84726-1.55851,3.71542-.80538,1.86828-1.66311,3.75823-.85778,1.89006-1.76814,3.80256-.09375.197-.18785.39392t-.18851.39369q-.09443.19679-.18914.39347t-.18972.39327q-.095.19658-.19026.39308t-.19075.39292q-.09549.19643-.1912.39277t-.19162.39264q-.09589.19629-.192.39252t-.19231.39243l-.19258.39234-.19282.39229-.193.39223-.19317.39221-.19328.3922-.19334.3922q-.37426.75916-.7456,1.51335-.37117.75435-.7384,1.5046-.36705.75041-.72914,1.49759-.36192.74733-.71786,1.49234-.35575.74514-.70451,1.48883-.3486.74383-.68915,1.48709-.34039.7434-.67174,1.48708-.33117.74383-.65228,1.48884-.32094.74516-.63079,1.49234-.30968.74733-.60726,1.49759-.2974.75041-.58168,1.5046-.28412.75433-.55408,1.51334-.26979.75916-.52442,1.52386-.25446.76485-.49273,1.53611-.23811.77142-.459,1.55012-.22072.77886-.42323,1.56588-.08991.34928-.1671.69055-.0772.34112-.14173.67321-.06455.33192-.11645.65382-.05193.32174-.09126.63241-.03935.31052-.06615.609-.02682.29829-.04113.58348-.01433.285-.01619.556-.00188.27077.00866.52641.01053.25548.03343.49483.02289.23917.0581.4612.0352.22187.0827.42555.04747.20352.1072.38786.05971.18417.13163.34814a2.88279,2.88279,0,0,0,.156.30639,2.24092,2.24092,0,0,0,.18022.26259,1.78936,1.78936,0,0,0,.20437.21676,1.54076,1.54076,0,0,0,.17794.13634,1.85687,1.85687,0,0,0,.20323.11576,2.32031,2.32031,0,0,0,.22708.09642q.11926.04357.24948.07832.13009.03485.27042.06146.1402.02672.28991.04583.1496.01922.308.03144.15825.01233.32453.0183.16617.00606.33966.00638.17337.00042.35333-.0043.17985-.00461.36556-.01373.1856-.009.37633-.02194.19061-.01281.38564-.0289.19491-.016.3935-.03462.19848-.01854.39991-.03912.20131-.02048.40487-.04236,3.407-.36832,6.81346-.62039,3.40627-.25335,6.81107-.398,3.40465-.14594,6.807-.19077,3.40218-.04611,6.80118.00131,3.39887.04615,6.79368.17825,3.39468.13084,6.78447.34,3.38964.20795,6.77356.48668,3.38378.27748,6.76095.61817,3.377.33943,6.74663.73451,3.36945.39381,6.73061.8357,3.361.44063,6.71289.92174,3.35172.47986,6.69346.99264,3.34158.51151,6.67233,1.04838,3.33059.5356,6.64949,1.089l-.57132,3.96034Z" transform="translate(-69.35919 -105.23952)"/></svg>