<svg id="Layer_1" data-name="Layer 1" xmlns="http://www.w3.org/2000/svg" viewBox="0 0 249.76761 193.07182"><defs><style>.cls-1{fill:#231f20;}</style></defs><path class="cls-1" d="M318.84279,295.43437q-6.59145-.187-12.773-.35159-6.18139-.16455-11.952-.3066-5.77041-.142-11.1291-.26157-5.35854-.11952-10.30446-.21653-4.94577-.097-9.478-.17146-4.5321-.07446-8.64976-.12638-4.11751-.0519-7.81971-.08126-3.702-.02934-6.98785-.03612-3.28566-.00678-6.1542.009-2.86839.01581-5.31874.05422-2.45022.0384-4.48149.09941-2.03114.061-3.64244.14465-1.61115.08364-2.80157.1899-1.19028.10626-1.95892.23516l-.00708.00123-.00708.00122-.00708.00122-.00708.00122-.00708.00122-.00708.00122-.00708.00122-.00708.00122-.00708.00122-.00708.00122-.00708.00122-.00708.00122-.00708.00122-.00708.00122-.00708.00122-.00708.00123q-.45978.07863-.90709.138t-.882.09936q-.43473.04-.85682.06079t-.83142.02222q-.40932.00147-.80585-.01631t-.78011-.05482q-.38359-.037-.75421-.09329t-.72812-.13175q-.35753-.07549-.70188-.17019t-.67544-.20858q-.33109-.11389-.64885-.247t-.62209-.28532q-.30432-.15223-.59514-.32364t-.568-.36194q-.2772-.19053-.54075-.40021t-.51329-.43847a9.58789,9.58789,0,0,1-.86872-.90689,9.7149,9.7149,0,0,1-.7215-.97845,10.26539,10.26539,0,0,1-.58592-1.03659,11.19732,11.19732,0,0,1-.462-1.0813q-.20193-.5496-.34965-1.11259-.14868-.56188-.24895-1.13045c-.0675-.37831-.12015-.75735-.1599-1.1349s-.06659-.75359-.08247-1.12591-.02078-.74089-.01667-1.1035.01727-.71924.0375-1.06767.04756-.68864.08-1.01842.0701-.64909.11094-.95573.08489-.6006.13022-.87963.09192-.54315.13785-.79011.09121-.47675.13387-.68716.08273-.4014.11826-.57078q.21706-1.03527.51026-2.03369.29245-.99885.65657-1.96355.36336-.96513.79391-1.8988.42981-.93412.92234-1.83946.49179-.90579,1.04183-1.7855.5493-.88016,1.15238-1.73693.60234-.85722,1.254-1.69375.65092-.837,1.34669-1.656.695-.81945,1.43043-1.62359.73466-.8046,1.50524-1.5966.76983-.79245,1.57112-1.575.80054-.783,1.62806-1.55878.82678-.77625,1.67607-1.548.84855-.77219,1.71515-1.54255.86584-.77082,1.74528-1.54253.87868-.77214,1.76649-1.54788.62585-.54757,1.254-1.09788.628-.55048,1.25718-1.10485.629-.55455,1.25823-1.11414.629-.55979,1.25714-1.12575.62794-.56615,1.25392-1.13965.6258-.57369,1.24857-1.15587.62259-.58237,1.24108-1.17441.6183-.59221,1.23145-1.19524.613-.60323,1.21971-1.2184.60656-.61538,1.20582-1.24386.59909-.62868,1.1898-1.27163.59053-.64314,1.17165-1.30171.58092-.65875,1.15136-1.33411.57026-.67553,1.129-1.3688.55851-.69347,1.10439-1.40582.5457-.71256,1.07771-1.44515,1.21638-1.67578,2.29491-3.3714,1.07992-1.69388,2.03037-3.397.95182-1.70142,1.7825-3.40161.83208-1.69843,1.55134-3.38512.72066-1.68492,1.33686-3.34755.61758-1.66088,1.139-3.28892.52286-1.6263.95794-3.20923.43647-1.58118.79351-3.10847.35843-1.52553.64577-2.98664.28872-1.45935.51471-2.84374.22737-1.38264.40033-2.67978.17436-1.2954.30265-2.49476.12969-1.19761.22165-2.28866.09336-1.0893.15734-2.0615c.04357-.647.07922-1.25256.1097-1.81328s.05581-1.07654.07876-1.544q.06234-1.26933.10553-2.613.04174-1.34256.05569-2.753.0125-1.40937-.01143-2.88023-.02538-1.46979-.09582-2.99463-.0719-1.52378-.19749-3.09619-.127-1.57134-.31642-3.18491-.19081-1.6125-.45263-3.2608-.26323-1.64724-.60611-3.32388-.34431-1.67556-.77687-3.3741-.434-1.69748-.9649-3.41151-.53235-1.713-1.17021-3.43608-.63932-1.722-1.39278-3.44782-.75492-1.72472-1.63264-3.44674-.87915-1.721-1.88976-3.43281-1.012-1.71078-2.16416-3.40606-1.15354-1.69419-2.45582-3.36647-.96516-1.23733-1.99971-2.40829-1.03377-1.1706-2.13229-2.27265-1.09773-1.10169-2.25553-2.13267-1.157-1.03064-2.36943-1.98839-1.21164-.95741-2.474-1.83978-1.26157-.882-2.5692-1.68684-1.30683-.80447-2.655-1.52958-1.34744-.72476-2.73158-1.368-1.38336-.64288-2.79876-1.20209-1.4146-.55885-2.85658-1.03187-1.4412-.47265-2.90508-.85731-1.4631-.3843-2.94422-.67844-1.48034-.29379-2.974-.49525-1.49291-.20109-2.99448-.30772-1.50079-.10626-3.00559-.11588-1.504-.00926-3.00736.08029-2.21882.13343-4.3246.4472-2.1057.31033-4.09787.78044-1.99208.46668-3.87014,1.07256-1.878.60246-3.64147,1.32357-1.7634.71767-3.4118,1.53344-1.64832.81234-3.18117,1.70221-1.53276.88644-2.94956,1.82985-1.41672.94-2.717,1.91638-1.30018.973-2.48343,1.96178-1.18317.98538-2.24891,1.96606c-.71045.6515-1.38164,1.29686-2.01342,1.92923s-1.22415,1.25175-1.77694,1.85128-1.066,1.17922-1.53951,1.7322-.90723,1.07928-1.30109,1.572-.7478.95193-1.0617,1.3707-.58772.79716-.82134,1.12827q-.96615,1.3695-1.816,2.74722-.851,1.37633-1.59309,2.75256-.74326,1.37485-1.38489,2.74125-.64284,1.365-1.19136,2.71327-.54975,1.34687-1.01252,2.66862-.464,1.32038-.84837,2.60731-.38559,1.28554-.69889,2.52932-.31452,1.24238-.5641,2.43467-.2508,1.19089-.444,2.32335-.19442,1.13107-.33856,2.19537-.14536,1.06292-.24781,2.05072-.10367.98642-.17174,1.8894-.06931.9016-.11036,1.71142c-.02819.539-.0486,1.04547-.06366,1.51677s-.0248.90737-.03164,1.30545-.0108.75816-.01431,1.07746q-.01825,1.677.06923,3.4128.08607,1.73355.26931,3.51219.18181,1.77636.45223,3.58407.269,1.80543.618,3.62847.34756,1.82074.76656,3.64537.41755,1.82232.898,3.63476.479,1.81016,1.01224,3.59667.53181,1.78424,1.10932,3.53108.57608,1.74456,1.18925,3.438.61173,1.69115,1.252,3.31741.63884,1.624,1.29761,3.16934.65733,1.54306,1.326,2.99376.66728,1.4484,1.33731,2.79069.66859,1.34,1.3314,2.56012.66137,1.21785,1.30834,2.30207.64555,1.08194,1.26812,2.0165.7207,1.08152,1.36143,2.04557.64175.9656,1.20964,1.82307.56892.859,1.07009,1.61926.5022.76178.94278,1.4341.44158.67388.82769,1.26762c.25808.39686.499.76909.72487,1.11979s.43658.67987.63426.99063.3823.6031.5559.88014.33617.53877.48977.78831.29822.48689.43589.71515.26841.44745.39424.66066.24677.42044.36483.62482.23328.40589.34766.60766.228.40378.34273.60915.23078.41411.35.62932.24177.43689.36957.66815q.11253.20371.23069.4175.11839.21414.24381.44045.12563.22665.25962.46756.13422.24125.27817.49882.14417.25793.29941.53425.15546.27667.32336.57383.16812.29749.35.61757.18215.32042.37942.66548.19749.34541.4115.71753.21421.37248.4463.77375.23229.40162.48381.83413.25173.43285.524.89866.27252.46615.567.96736.29466.50154.61261,1.0402.31817.539.661,1.11722.343.57857.712,1.19839.21066.35376.42016.70135t.4177.68916q.20818.34158.415.67719t.412.66544q.20526.3298.40889.65389t.40548.64256q.20186.3185.40186.63146t.398.62056q.198.3076.39391.60989t.38958.59942q.19366.29713.385.58918t.38024.57915q.1889.28712.37523.56934t.37.55974q.18364.2775.36451.55036t.35879.54119q.59469.89667,1.1667,1.76327.571.86711,1.11316,1.70722.54114.84063,1.04734,1.65733.50517.81721.96924,1.61357.46305.79688.87886,1.576.41478.77961.77618,1.54451.36038.76542.66122,1.5192.29982.75429.534,1.5.23313.74625.39444,1.487a14.49912,14.49912,0,0,1,.24263,1.48013,12.913,12.913,0,0,1,.07852,1.47939,12.21157,12.21157,0,0,1-.38442,2.98118,13.274,13.274,0,0,1-.48751,1.51407,15.16212,15.16212,0,0,1-.70075,1.53792,18.16629,18.16629,0,0,1-.92629,1.56791,17.689,17.689,0,0,1-3.57648,3.9762,19.49517,19.49517,0,0,1-2.231,1.57941,23.13214,23.13214,0,0,1-2.53442,1.331,29.12607,29.12607,0,0,1-2.84418,1.1005q-1.50056.49564-3.16017.88807-1.66012.39391-3.48244.69362-1.82282.3012-3.81095.51718-1.98865.21749-4.14574.35875-2.1576.14277-4.48677.21833-2.32969.07706-4.83407.0959-2.50491.02034-5.18763-.00852-2.68326-.02736-5.54745-.09493-2.86472-.06608-5.91352-.16335-3.04934-.09576-6.28586-.21374-3.23706-.11648-6.66445-.24615l-.09619-.0036-.0962-.0036-.09619-.0036-.09619-.00361-.09619-.0036-.09619-.0036-.09619-.0036-.09619-.0036-.09619-.0036-.0962-.0036-.09619-.0036-.09619-.0036-.09619-.00361-.09619-.0036-.09619-.0036-.09619-.0036q-1.96848-.07351-3.93885-.12907-1.97031-.05556-3.94207-.09317-1.9717-.03762-3.94443-.0573-1.97266-.0197-3.94592-.02147-1.97319-.00179-3.94654.01434-1.97328.01611-3.94631.0501-1.97295.034-3.9452.08585-1.97218.05186-3.94324.12155-1.971.06969-3.9404.15722-1.96935.08751-3.9367.19285-1.96729.10534-3.93215.22847-1.96479.12312-3.92672.264-1.96185.14091-3.92042.29958-1.9585.15865-3.91327.33508l-.36077-3.98383-.36077-3.98384q1.9909-.17973,3.98574-.34142,1.99476-.16169,3.993-.30529,1.99815-.1436,3.99935-.2691,2.00114-.12549,4.00486-.23287,2.00367-.10737,4.00949-.19659,2.00575-.08922,4.01325-.16027,2.00742-.071,4.01614-.12389,2.00865-.05286,4.01816-.08749,2.00943-.03462,4.01931-.051,2.00979-.01638,4.01958-.01451,2.00972.00188,4.019.022,2.0092.02016,4.01753.05863,2.00826.03847,4.0152.09528,2.00686.0568,4.012.132l.09619.0036.0962.0036.09619.0036.09619.0036.09619.00361.09619.0036.09619.0036.09619.0036.0962.0036.09619.0036.09619.0036.09619.0036.09619.0036.09619.00361.09619.0036.0962.0036q3.05195.11408,5.95239.2204,2.90028.10526,5.64815.19645,2.74771.09014,5.34211.15985,2.59425.06866,5.03428.11058,2.43989.04088,4.72466.04867,2.28462.00673,4.41322-.02593,2.12847-.0337,4.1-.11316,1.9714-.08051,3.785-.21307,1.81344-.13362,3.46818-.32564,1.65459-.19307,3.14957-.45086,1.49484-.25884,2.82917-.58874,1.33417-.33095,2.507-.73929a19.8745,19.8745,0,0,0,2.183-.90249,14.35242,14.35242,0,0,0,1.85718-1.07835,10.9896,10.9896,0,0,0,1.52959-1.26688,9.31372,9.31372,0,0,0,1.2002-1.46807c.15079-.22912.28718-.45431.40881-.67756a6.9683,6.9683,0,0,0,.32021-.66588,5.58271,5.58271,0,0,0,.22936-.6661,4.99411,4.99411,0,0,0,.13628-.67825,5.05386,5.05386,0,0,0,.04094-.70229,5.76264,5.76264,0,0,0-.05663-.73825,7.26405,7.26405,0,0,0-.15645-.78613c-.069-.27134-.15509-.55265-.25852-.84591s-.22425-.59847-.36282-.91761-.29491-.65222-.46938-1.00122-.36706-.71392-.57816-1.09674-.44072-.78355-.68921-1.20417-.51586-.86113-.80249-1.32352-.59251-.94665-.918-1.45478-.67065-1.04011-1.03579-1.59794-.75028-1.14151-1.1558-1.753q-.18264-.27538-.36831-.55544t-.37424-.565q-.18856-.28491-.38-.57479t-.38554-.585q-.19413-.29507-.39093-.59543t-.39613-.60622q-.19933-.30586-.40116-.61734t-.406-.62878q-.20419-.3173-.41068-.64052t-.41516-.6526q-.20868-.32937-.41948-.665t-.42361-.6777q-.21281-.34209-.42757-.69073t-.43134-.70408q-.21658-.35542-.43493-.71775t-.43836-.73173q-.37536-.63052-.724-1.21856-.34883-.58837-.67224-1.13637-.32364-.54834-.62325-1.05839-.29984-.51041-.577-.98461-.2774-.47456-.5335-.915-.25633-.44081-.49274-.84963-.23662-.40917-.45471-.78845-.21829-.37962-.41942-.73145-.20134-.35219-.38688-.67867-.18576-.32684-.35707-.63007-.17154-.30358-.33-.58568-.1587-.28244-.30568-.54548-.14721-.26338-.28408-.50948-.1371-.24645-.26523-.47769-.12837-.23158-.24913-.45008-.121-.21885-.23575-.42669c-.1203-.21765-.23561-.42628-.34793-.62892s-.22163-.39929-.32992-.593-.21558-.3844-.32384-.57518-.21747-.38162-.32965-.57555-.22731-.39094-.34738-.59407-.24508-.41237-.377-.63075-.2708-.4459-.41857-.68559-.30446-.49154-.472-.75858-.34606-.54928-.53741-.84974-.39559-.61912-.6147-.959-.45307-.70108-.70389-1.08651-.51849-.79514-.805-1.23214-.59186-.9013-.918-1.39592-.67316-1.01956-1.04295-1.57785-.7624-1.14994-1.1798-1.778-.85958-1.29241-1.32854-1.99621q-.64929-.9744-1.333-2.11388-.682-1.13718-1.38848-2.42555-.7048-1.28606-1.42409-2.70941-.71763-1.421-1.43981-2.96548-.72051-1.54212-1.43563-3.19375-.71344-1.64931-1.41155-3.39422-.69644-1.74259-1.36758-3.56691-.66948-1.822-1.30371-3.71179-.63258-1.8875-1.22-3.82889-.5857-1.93908-1.11628-3.91817-.52891-1.97679-.99273-3.97968-.46215-2.00058-.84927-4.01338-.38546-2.01048-.68592-4.01929-.29881-2.00649-.50268-3.9974-.20221-1.9886-.29953-3.94772-.09567-1.95681-.0765-3.87024c.00388-.35782.00825-.76133.01592-1.20748s.01861-.93494.03564-1.46333.04014-1.09638.07211-1.70092.07282-1.24563.12532-1.92022.11664-1.3827.19524-2.12127.17163-1.50758.28191-2.304.23778-1.62029.3853-2.46851.31508-1.72081.50544-2.61473.40354-1.80915.64231-2.74266.50314-1.88531.7959-2.85233.61391-1.94928.96624-2.94372.73583-2.00107,1.1533-3.01684.86891-2.04067,1.3571-3.07168,1.01314-2.0681,1.57763-3.10824,1.16853-2.08335,1.8149-3.12655,1.33508-2.0864,2.0689-3.12656c.26615-.3772.57819-.80824.936-1.28531s.7614-1.00018,1.21063-1.56151.94409-1.16091,1.48448-1.79091,1.12627-1.29043,1.75755-1.97348,1.30794-1.38873,2.02985-2.10923,1.48908-1.45582,2.30137-2.19815,1.66971-1.4917,2.57212-2.24027,1.84982-1.49636,2.84209-2.23555,2.02941-1.46981,3.11128-2.184,2.20848-1.412,3.3797-2.08567,2.387-1.32306,3.64734-1.94049,2.56508-1.20287,3.91421-1.7485,2.7426-1.05146,4.18029-1.50968,2.91961-.86884,4.44561-1.22405,3.0961-.655,4.71015-.89159,3.27206-.41,4.97391-.51232q1.74674-.10422,3.49527-.09352,1.74765.01029,3.49172.133,1.74316.12232,3.47737.3546,1.73329.23185,3.45225.57118,1.718.33891,3.41635.78279,1.69742.44346,3.36969.98941,1.67137.54553,3.31224,1.19105,1.64.64509,3.244,1.3877,1.60315.74218,3.165,1.57937,1.561.83678,3.07524,1.76606,1.51338.92888,2.97469,1.94777,1.46042,1.01847,2.86337,2.12448,1.402,1.1056,2.74126,2.29623,1.33832,1.19022,2.60839,2.463,1.26918,1.27235,2.46473,2.62476,1.19466,1.352,2.3103,2.78154,1.45734,1.86813,2.74545,3.7583,1.28971,1.889,2.41984,3.79333,1.13172,1.90317,2.1135,3.8148.98339,1.91051,1.82645,3.8227.84466,1.91108,1.55866,3.817.7156,1.90485,1.31015,3.79782.59616,1.89185,1.08091,3.765.48636,1.87206.87094,3.71869.3862,1.8455.68025,3.65878.29566,1.81215.50883,3.5853.21479,1.772.35669,3.49827.14352,1.72512.22381,3.39768.0819,1.67142.11021,3.28351.02992,1.611.01589,3.15579-.01243,1.54371-.05917,3.0145-.04513,1.46967-.115,2.85966c-.025.50812-.0525,1.06884-.08571,1.67843s-.07209,1.26806-.11973,1.97168-.104,1.45239-.17227,2.24259-.14833,1.62181-.24335,2.49113-.205,1.77634-.333,2.71734-.274,1.916-.44113,2.92118-.35537,2.04068-.56782,3.10267-.4491,2.15051-.713,3.26182-.55519,2.24542-.87682,3.39861-.67363,2.32544-1.05911,3.513-.80443,2.39056-1.26,3.60513-.94759,2.44078-1.47933,3.67488-1.10311,2.47609-1.71723,3.72225-1.271,2.49651-1.97369,3.74729-1.45122,2.502-2.24867,3.75-1.64381,2.49263-2.54219,3.7303q-.58145.80109-1.17841,1.58-.5967.779-1.20724,1.53669-.61027.7578-1.23275,1.49507-.62218.73742-1.25493,1.45512-.63247.71784-1.27382,1.41683-.64107.69912-1.28937,1.38021-.648.68123-1.30163,1.34526-.65331.66417-1.31055,1.312-.657.64794-1.31618,1.28035-.65893.63255-1.31848,1.2504-.65927.618-1.31747,1.22211-.65793.60426-1.31315,1.19549-.65493.59136-1.3055,1.17053-.65029.57932-1.29456,1.14725-.644.56808-1.28028,1.12563-.636.55769-1.26271,1.10567-.82443.72135-1.63367,1.43108-.80866.71008-1.59876,1.41062-.78952.70089-1.55708,1.39431-.767.69377-1.50861,1.38214-.74107.68872-1.45338,1.37413-.71175.68576-1.39135,1.37026-.679.68486-1.32256,1.37054-.643.686-1.247,1.375-.60346.68928-1.16463,1.38353-.56061.6946-1.07551,1.39625-.51434.702-.9796,1.41312-.46468.71147-.87691,1.43413-.41166.723-.76745,1.45929-.35523.73662-.65121,1.48859-.29541.75233-.52819,1.522-.23221.77009-.39839,1.55965-.11536.54969-.20475,1.05142-.08973.50208-.15556.95834-.06616.45663-.11049.86954-.04467.41328-.06955.785-.02522.37206-.03272.70467-.00783.333,0,.62863.00749.296.02858.55683.02075.26118.053.48929.03195.22848.07339.426.0411.1979.08962.367c.03212.113.06626.21679.10173.3122s.07227.1824.10971.26168.07554.15084.11358.2154.07606.12213.11333.17339.07383.09625.109.13564a1.41649,1.41649,0,0,0,.10047.10212c.02631.024.05551.04882.08789.074s.06795.05076.107.07644.08153.05146.12779.077.09626.0509.1503.07571.11214.0491.17455.07253.12915.046.2005.06747.14731.04172.22817.06054.16662.03616.25756.05172.18707.02935.28867.041.20866.02128.32148.02847.23141.012.356.014.25529.0014.39228-.00229.28032-.01042.43025-.02049.30649-.02349.46994-.04056.33381-.03781.51135-.06251.36226-.05338.55446-.08634l.00879-.00153.00879-.00152.00879-.00153.00879-.00152.00879-.00153.00879-.00153.00879-.00152.00879-.00153.00879-.00152.00878-.00153.00879-.00152.00879-.00153.00879-.00153.00879-.00152.00879-.00153.00879-.00152q.83991-.14091,2.07171-.25842,1.23255-.11749,2.86156-.21156,1.62978-.094,3.66053-.16459,2.03153-.07054,4.46859-.11752,2.43783-.047,5.28575-.07034,2.84868-.02334,6.112-.023,3.26409.00033,6.94737.02438,3.684.02407,7.79182.07192,4.10855.04787,8.64538.11956,4.53761.0717,9.508.16731,4.97121.09561,10.3798.21518,5.40934.11958,11.26065.26316,5.85206.1436,12.15061.31126,6.29931.16767,13.04966.35946l.29048,4.011Z" transform="translate(-69.07519 -105.23952)"/></svg>