<svg id="Layer_1" data-name="Layer 1" xmlns="http://www.w3.org/2000/svg" viewBox="0 0 264.45578 194.29177"><defs><style>.cls-1{fill:none;}.cls-2{fill:#231f20;stroke:#231f20;stroke-miterlimit:10;stroke-width:0.5px;}</style></defs><line class="cls-1" x1="5.56942" y1="185.73619" x2="5.97586" y2="193.72588"/><path class="cls-2" d="M333.27725,294.01261q-3.26679-.54375-6.54448-1.07255-3.27747-.52758-6.5646-1.03279-3.28692-.504-6.58225-.9782-3.29512-.473-6.5974-.9088-3.30209-.43459-6.61008-.8246-3.30779-.38878-6.62026-.72558-3.31227-.33557-6.628-.61174-3.31548-.27494-6.63318-.48309-3.31748-.20693-6.63591-.33964-3.31822-.13148-6.63616-.18136-3.31773-.04865-6.63392-.00827-3.316.0416-6.6292.17962-3.313.13926-6.622.38234-3.30877.24432-6.6123.59986-.26816.029-.55817.05951-.28963.03-.59883.05859-.30882.02811-.63493.0519-.32573.02332-.66646.03944-.34035.01565-.69343.02122-.35269.00508-.71583-.00279-.36276-.00837-.73367-.03257-.37054-.02467-.74695-.0681-.376-.0439-.75565-.10942-.37924-.066-.7598-.1565-.38018-.091-.75938-.20935-.37881-.11886-.75439-.268-.37518-.1496-.74484-.33237-.36927-.18325-.73073-.40255-.36106-.21977-.712-.47848-.35059-.25919-.68881-.56019-.33948-.30294-.64762-.63186-.30813-.32885-.58484-.68324-.2767-.35432-.52192-.73373-.2452-.37935-.45884-.78338-.21363-.40395-.39562-.83215-.182-.42813-.33223-.88006-.15025-.45186-.2687-.92711-.11846-.47517-.205-.97329-.08657-.498-.14119-1.01861-.0546-.52048-.07719-1.06306-.02258-.54251-.01306-1.10666.00952-.56407.05123-1.14938.04172-.58522.11568-1.19124.074-.60594.18026-1.23224.10631-.62623.245-1.27238.13872-.64608.30991-1.31165.22174-.86234.46373-1.71524.24176-.853.50237-1.69693.26038-.844.53822-1.67939.2776-.83544.57127-1.66265.29344-.82727.60155-1.64669.30788-.81949.629-1.63154.32091-.8121.65371-1.61715.33256-.80513.67562-1.60358.34282-.79853.69473-1.59078.35168-.79232.71105-1.57877.35914-.78652.72459-1.56756.36521-.78111.73532-1.55714.36989-.77608.74328-1.5475.37317-.77147.74845-1.53865.375-.76725.75082-1.5306.37554-.76341.7504-1.52333l.1904-.386.19032-.386.19019-.386.19-.386.18983-.38606.1896-.38612q.09473-.19308.18931-.3862t.189-.3863q.09441-.19317.18864-.38641t.18825-.38654q.094-.19332.18782-.3867t.18735-.38686q.09355-.19347.18684-.387t.18629-.38724q.093-.19368.1857-.38746t.18508-.3877q.86783-1.82344,1.6854-3.62394.81759-1.80061,1.58514-3.579.76758-1.7785,1.48531-3.5355.71777-1.75713,1.38589-3.49348.66816-1.73646,1.28688-3.4529.61875-1.71655,1.18828-3.4138.56957-1.69737,1.09011-3.37616.52058-1.67892.99233-3.34.47179-1.66119.895-3.30527.42322-1.64419.798-3.272.37485-1.62793.70151-3.24023.32668-1.61239.6054-3.20989.27873-1.5976.50969-3.181.231-1.58355.41441-3.15363.18345-1.5702.31953-3.12769.13611-1.5576.22507-3.10321.10767-1.87056.2027-3.74639.09385-1.87483.16807-3.749.073-1.87315.11944-3.73964.04521-1.86549.05677-3.71837.0104-1.85188-.0199-3.68518-.03147-1.83231-.11061-3.64008-.08033-1.80677-.21533-3.583-.13619-1.77526-.33407-3.51407-.19907-1.73781-.46684-3.43319-.26895-1.69439-.61362-3.34037-.34584-1.645-.77442-3.23564-.42975-1.58964-.94925-3.119-.52066-1.52833-1.13809-2.99039-.61858-1.46106-1.341-2.84988-.72352-1.38781-1.55784-2.69744-.83547-1.30863-1.78875-2.53309-1.05926-1.358-2.08633-2.59862-1.02821-1.24121-2.031-2.3686-1.00392-1.128-1.98925-2.1457-.98646-1.01832-1.96109-1.92994-.97578-.91221-1.94652-1.72129-.97186-.80968-1.94551-1.51978-.97478-.7107-1.95811-1.32539-.98447-.61527-1.98427-1.13811-1.00095-.52344-2.024-.958-1.02422-.43514-2.07737-.785-1.05429-.35041-2.14431-.61907-1.09114-.26925-2.2248-.46031-1.13481-.19164-2.31891-.30866-1.18524-.11761-2.42658-.16415-1.24247-.04713-2.54784-.02676-1.3065.01979-2.68269.1035-1.59379.09591-3.1006.24043-1.50774.145-2.93417.34174-1.42736.19724-2.77907.4492-1.35264.25247-2.6353.56275-1.28359.31078-2.50287.68243-1.2202.37216-2.38176.80824-1.16249.43659-2.272.94016-1.11043.50408-2.17355,1.0782-1.064.57464-2.08642,1.22236-1.02333.64824-2.01065,1.37265-.98828.72491-1.9462,1.529-.95888.80464-1.89308,1.69156-.93515.88744-1.85129,1.86021-.91708.97328-1.82084,2.035-.90468,1.06219-1.8017,2.21585-.898,1.15416-1.79392,2.40284-.90549,1.26119-1.7551,2.597-.84956,1.33551-1.6428,2.744-.7932,1.40826-1.52971,2.888-.73645,1.47943-1.41585,3.02872-.67934,1.549-1.30122,3.16636-.62181,1.61706-1.18579,3.30084-.56393,1.68353-1.06961,3.43219-.50562,1.7484-.95264,3.56038-.44694,1.81171-.8349,3.68543-.38788,1.87344-.71637,3.80733-.32844,1.93362-.59709,3.92609-.26859,1.99221-.477,4.0417-.20836,2.04924-.35617,4.15417-.14774,2.10468-.23454,4.26349-.08674,2.15856-.11215,4.36967-.02534,2.21085.011,4.4727.0205,1.2751.09946,2.5579.0783,1.28266.21118,2.57218.13224,1.28939.3152,2.58478.18231,1.29525.41148,2.59568.22852,1.30027.5,2.6049.27087,1.30448.58088,2.61244.30938,1.30782.654,2.61828.344,1.31033.7194,2.62245.37476,1.312.77707,2.62493.40167,1.3128.827,2.62572.42471,1.31278.86924,2.62483.44389,1.3119.90375,2.62224.45923,1.31021.93053,2.618.47068,1.30764.9496,2.612.47828,1.30425.96093,2.60439.482,1.3.96454,2.59507.229.61524.45874,1.233.22969.61768.45964,1.23752.22988.61977.45949,1.24136.22955.62153.45829,1.24451.22867.62292.456,1.247.22728.624.45274,1.24871.22538.62467.4484,1.24976.22293.625.443,1.25011.22.625.43656,1.24978.21649.62467.42907,1.24873.21249.624.42053,1.247.20794.62295.41094,1.24455.20289.62156.4003,1.24142.19733.61982.38862,1.23759.19121.61772.37588,1.233.18459.61529.3621,1.22782.27837.96131.54918,1.928.27.96643.52717,1.9366.25635.96989.49479,1.94184.23757.97168.452,1.94376.2136.97179.39894,1.94232.18447.97024.33548,1.93756.15015.967.26165,1.92944.11064.96215.17746,1.918.06594.95559.08289,1.90322.01609.94736-.022,1.88509-.039.93746-.1373,1.86362-.09919.92589-.26295,1.83883-.16463.91264-.399,1.81068-.23522.89775-.54534,1.7792-.311.88117-.70207,1.74439-.39195.86292-.86917,1.70622a20.29591,20.29591,0,0,1-1.30391,2.01382,19.881,19.881,0,0,1-1.47032,1.7741,20.24228,20.24228,0,0,1-1.61383,1.54995,21.32123,21.32123,0,0,1-1.73443,1.34136q-.89355.62113-1.83214,1.14834-.93669.52851-1.907.97087-.96836.44366-1.95885.809-.98859.3666-1.98786.66262-.99736.29731-1.994.53184-.99468.23581-1.97717.41662c-.65371.12139-1.30081.22618-1.93747.317s-1.2629.16752-1.87488.23285-1.20971.11924-1.78938.16432-1.14127.08133-1.681.11134-1.05755.05379-1.54969.07392-.95857.03662-1.39549.05207q-.98616.03488-2.05275.07924-1.06566.04427-2.20618.09736-1.1396.053-2.34848.11421-1.208.06109-2.47966.12978-1.27077.06856-2.5997.14409-1.328.0754-2.7086.15712-1.37969.0816-2.80639.16888-1.42578.08718-2.893.17938-1.46631.09211-2.96854.18861-1.50129.09639-3.03292.19656-1.53071.10005-3.08618.20324-1.55454.10308-3.12829.20865-1.57282.10546-3.15928.2128-1.58553.10722-3.17914.21567-1.59269.10834-3.18786.21727-1.59426.10883-3.18546.2176-1.59632.10914-3.19758.21851-1.60035.10928-3.20014.21816-1.59888.10878-3.19166.21653-1.59186.10765-3.17212.21364-1.57935.10588-3.14156.20948-1.56131.1035-3.1.20406-1.53772.10046-3.0473.19735-1.50866.09679-2.98361.18939-1.47405.09249-2.90889.18015-1.43393.08756-2.82311.16965-1.38828.082-2.72631.15788-1.3371.07578-2.61845.14483l-.185-3.9956-.185-3.9956q1.27074-.06857,2.59965-.14408,1.328-.07541,2.70857-.15712,1.37965-.08162,2.80635-.16889,1.42577-.08718,2.893-.17938,1.46631-.0921,2.96852-.1886,1.50129-.09641,3.03291-.19656,1.53069-.10007,3.08616-.20324,1.55454-.10308,3.12829-.20866,1.57283-.10547,3.15928-.2128,1.58553-.10722,3.17913-.21567,1.59268-.10833,3.18787-.21727,1.59425-.10882,3.18545-.2176,1.59632-.10912,3.19759-.21851,1.60035-.10928,3.20014-.21815,1.59887-.10878,3.19165-.21654,1.59186-.10764,3.17213-.21364,1.57934-.10589,3.14156-.20948,1.56129-.10349,3.1-.204,1.53772-.10046,3.0473-.19736,1.50866-.09678,2.98362-.18939,1.474-.09249,2.90888-.18015,1.43392-.08755,2.82312-.16965,1.38827-.082,2.7263-.15787,1.3371-.07579,2.61845-.14484,1.28042-.06894,2.49956-.13052,1.21821-.06147,2.36962-.11494,1.15048-.05337,2.22865-.0981,1.07724-.04462,2.07664-.08.831-.02948,1.65918-.07045.82756-.04152,1.64873-.09786.82057-.05688,1.6312-.13188.81-.07554,1.60661-.17252.796-.09753,1.57493-.21979.77837-.12282,1.53618-.27367.75723-.15141,1.49036-.33418.73255-.18331,1.43746-.40131.70432-.21854,1.37749-.475.67257-.25707,1.31044-.55542.63727-.2989,1.23632-.6424.59845-.34406,1.15512-.736a13.31032,13.31032,0,0,0,1.06685-.83624,12.40118,12.40118,0,0,0,.97151-.94308,12.03327,12.03327,0,0,0,1.62867-2.23319,12.78033,12.78033,0,0,0,.60291-1.20881q.26935-.61921.47709-1.2666.20841-.647.35911-1.32.15136-.67265.249-1.3691.09824-.69609.14662-1.41382.049-.71736.05211-1.45418.00374-.73645-.03456-1.49018-.03763-.75338-.1134-1.52184-.07511-.7681-.18442-1.54913-.10866-.78066-.2476-1.57207-.1383-.791-.303-1.59065-.164-.79924-.35049-1.60487-.18584-.80528-.3902-1.61475-.20373-.80911-.42208-1.62026-.21769-.81079-.44612-1.62143-.22776-.81027-.46233-1.61822-.16965-.58575-.34568-1.17275t-.358-1.17551q-.182-.58851-.36979-1.17866-.18773-.59019-.38092-1.18222t-.39146-1.18616q-.19827-.59413-.40139-1.1905-.20307-.59642-.41071-1.19525-.20757-.59887-.41941-1.20039-.21178-.60156-.42752-1.20593-.21569-.60443-.435-1.21187-.21927-.60748-.44189-1.2182t-.44818-1.22494q-.22556-.6142-.45385-1.23206-.22824-.61788-.45891-1.23959t-.46337-1.24751q-.2327-.62582-.46721-1.25584-.504-1.35424-1.0088-2.71414-.50412-1.35984-1.005-2.725-.50024-1.36509-.9932-2.73517-.49231-1.37-.97332-2.74471-.48036-1.37462-.94538-2.75356-.46436-1.37889-.90938-2.76176-.44433-1.38282-.86531-2.76929-.4203-1.38642-.81319-2.77617-.39222-1.38969-.753-2.78237-.36012-1.39263-.68477-2.78792-.324-1.39524-.60848-2.79281-.28383-1.3975-.52413-2.797-.23962-1.39946-.43171-2.80058-.19142-1.40106-.33124-2.80347-.13915-1.40235-.2227-2.8057-.08289-1.4033-.10612-2.80727-.0396-2.45846-.01249-4.85485.02708-2.39631.12076-4.73013.09366-2.33374.25381-4.60455.16012-2.27075.38664-4.47812.22649-2.20731.51925-4.35084.29274-2.14346.65165-4.2227.35889-2.07917.78383-4.09371.42493-2.01445.91581-3.96386.49086-1.94934,1.04756-3.83317.55669-1.88378,1.17911-3.70162.6224-1.81777,1.31043-3.56921.688-1.75137,1.44154-3.436.75351-1.68452,1.57244-3.30184.81891-1.61725,1.70312-3.16689.88419-1.54954,1.83359-3.03106.94938-1.48145,1.96385-2.8944,1.02387-1.42611,2.0594-2.7496,1.03634-1.32393,2.0892-2.54788,1.05369-1.22439,2.12879-2.35144,1.07592-1.1275,2.17813-2.16031,1.103-1.03326,2.23727-1.97447,1.13505-.94166,2.30617-1.79392,1.17193-.8527,2.38485-1.61868,1.21372-.7664,2.4733-1.44872,1.2604-.68275,2.57154-1.28406,1.31195-.60174,2.67954-1.1247,1.3684-.52339,2.79732-.97063,1.42974-.44769,2.92488-.82187,1.49595-.37462,3.06221-.67839,1.56707-.3042,3.20931-.54021,1.64307-.23645,3.3662-.40733,1.724-.17133,3.53286-.27974,1.85249-.11146,3.59645-.116,1.74522-.00486,3.38947.09506,1.64549.09957,3.19754.30174,1.5533.20181,3.02068.504,1.46862.30189,2.85886.702,1.3915.39978,2.71212.89565,1.32189.4955,2.58043,1.08491,1.25979.58905,2.46379,1.26984,1.20525.68041,2.36221,1.45039,1.15822.76962,2.27569,1.62661,1.11873.85663,2.20423,1.79847,1.08677.94149,2.14783,1.966,1.06232,1.02414,2.10648,2.12914,1.04541,1.10463,2.08018,2.28794,1.036,1.183,2.069,2.44241,1.03418,1.25909,2.07278,2.5925,1.11456,1.42883,2.09,2.93777.97683,1.508,1.82265,3.09046.84719,1.5815,1.57148,3.23176.72567,1.64931,1.33656,3.36169.61224,1.71144,1.11784,3.48025.507,1.76785.91536,3.58742.40977,1.8186.72911,3.68321.32069,1.86367.55907,3.76764.23973,1.903.40526,3.84068.16688,1.9367.26768,3.90234.10215,1.96468.14632,3.95263.04552,1.987.04118,3.99154-.003,2.0036-.04772,4.01907-.0434,2.01452-.12041,4.03522-.07567,2.01975-.17687,4.04-.09984,2.0193-.2171,4.0334-.09467,1.64442-.23864,3.29969-.144,1.65538-.33754,3.32239-.19356,1.66713-.43688,3.34664-.24335,1.67965-.53666,3.37244-.29334,1.69293-.63687,3.39979-.34356,1.707-.73753,3.42867-.394,1.72182-.83861,3.45911-.44466,1.73742-.94015,3.49108-.49554,1.7538-1.04212,3.52461-.54662,1.77095-1.14452,3.55969-.59793,1.78885-1.24736,3.5963-.64945,1.80756-1.35064,3.63446-.70122,1.827-1.45436,3.67417-.75318,1.84726-1.55851,3.71542-.80538,1.86828-1.66311,3.75823-.85778,1.89006-1.76814,3.80256-.09375.197-.18785.39392t-.18851.39369q-.09443.19679-.18914.39347t-.18972.39327q-.095.19658-.19026.39308t-.19075.39292q-.09549.19643-.1912.39277t-.19162.39264q-.09589.19629-.192.39252t-.19231.39243l-.19258.39234-.19282.39229-.193.39223-.19317.39221-.19328.3922-.19334.3922q-.37426.75916-.7456,1.51335-.37117.75435-.7384,1.5046-.36705.75041-.72914,1.49759-.36192.74733-.71786,1.49234-.35575.74514-.70451,1.48883-.3486.74383-.68915,1.48709-.34039.7434-.67174,1.48708-.33117.74383-.65228,1.48884-.32094.74516-.63079,1.49234-.30968.74733-.60726,1.49759-.2974.75041-.58168,1.5046-.28412.75433-.55408,1.51334-.26979.75916-.52442,1.52386-.25446.76485-.49273,1.53611-.23811.77142-.459,1.55012-.22072.77886-.42323,1.56588-.08991.34928-.1671.69055-.0772.34112-.14173.67321-.06455.33192-.11645.65382-.05193.32174-.09126.63241-.03935.31052-.06615.609-.02682.29829-.04113.58348-.01433.285-.01619.556-.00188.27077.00866.52641.01053.25548.03343.49483.02289.23917.0581.4612.0352.22187.0827.42555.04747.20352.1072.38786.05971.18417.13163.34814a2.88279,2.88279,0,0,0,.156.30639,2.24092,2.24092,0,0,0,.18022.26259,1.78936,1.78936,0,0,0,.20437.21676,1.54076,1.54076,0,0,0,.17794.13634,1.85687,1.85687,0,0,0,.20323.11576,2.32031,2.32031,0,0,0,.22708.09642q.11926.04357.24948.07832.13009.03485.27042.06146.1402.02672.28991.04583.1496.01922.308.03144.15825.01233.32453.0183.16617.00606.33966.00638.17337.00042.35333-.0043.17985-.00461.36556-.01373.1856-.009.37633-.02194.19061-.01281.38564-.0289.19491-.016.3935-.03462.19848-.01854.39991-.03912.20131-.02048.40487-.04236,3.407-.36832,6.81346-.62039,3.40627-.25335,6.81107-.398,3.40465-.14594,6.807-.19077,3.40218-.04611,6.80118.00131,3.39887.04615,6.79368.17825,3.39468.13084,6.78447.34,3.38964.20795,6.77356.48668,3.38378.27748,6.76095.61817,3.377.33943,6.74663.73451,3.36945.39381,6.73061.8357,3.361.44063,6.71289.92174,3.35172.47986,6.69346.99264,3.34158.51151,6.67233,1.04838,3.33059.5356,6.64949,1.089l-.57132,3.96034Z" transform="translate(-70.24649 -104.65627)"/></svg>