<svg id="Layer_1" data-name="Layer 1" xmlns="http://www.w3.org/2000/svg" viewBox="0 0 144.441 217.528"><defs><style>.cls-1{fill:#231f20;}</style></defs><path class="cls-1" d="M164.62,305.934l-1.749-.065-1.749-.065-1.749-.065-1.748-.065a50.12,50.12,0,0,1,2.125-12.624,60.422,60.422,0,0,1,5.421-12.482,81.693,81.693,0,0,1,8.691-12.3A116.5,116.5,0,0,1,185.8,256.2q1.96-1.727,3.977-3.4t4.057-3.308q2.04-1.632,4.088-3.226t4.067-3.159c2.251-1.742,4.52-3.5,6.777-5.289s4.5-3.61,6.7-5.479,4.353-3.787,6.43-5.769,4.076-4.031,5.967-6.161c.359-.4.711-.813,1.039-1.225a14.315,14.315,0,0,0,.891-1.237,7.117,7.117,0,0,0,.633-1.225,3.694,3.694,0,0,0,.265-1.192,3.372,3.372,0,0,0-.588-1.956,7.253,7.253,0,0,0-1.663-1.748,14.782,14.782,0,0,0-2.353-1.477,21.987,21.987,0,0,0-2.658-1.144,76.233,76.233,0,0,0-12.436-3.239,105.562,105.562,0,0,0-12.8-1.393c-4.329-.225-8.72-.244-13.175-.159s-8.97.275-13.551.468c-2.878.121-5.781.243-8.7.338s-5.849.163-8.785.176-5.875-.03-8.808-.156-5.86-.336-8.77-.657c-.486-.053-.979-.113-1.476-.191s-1-.176-1.494-.3a11.282,11.282,0,0,1-1.489-.493,9.527,9.527,0,0,1-1.459-.758,8.793,8.793,0,0,1-2.291-2.132,10.022,10.022,0,0,1-1.479-2.824,11.232,11.232,0,0,1-.582-3.261,11.9,11.9,0,0,1,.4-3.443,14.5,14.5,0,0,1,.934-2.511,18.018,18.018,0,0,1,1.306-2.27,25.725,25.725,0,0,1,1.56-2.072c.549-.663,1.121-1.3,1.695-1.916a104.188,104.188,0,0,1,10.487-9.771c3.693-3.014,7.56-5.807,11.532-8.446s8.048-5.124,12.159-7.522,8.256-4.71,12.366-7l.474-.265.473-.264.473-.264.474-.264q8.344-4.658,16.688-9.429t16.65-9.63q8.305-4.86,16.552-9.8t16.4-9.933c1.264-.774,2.466-1.523,3.592-2.273s2.176-1.5,3.139-2.276a22.754,22.754,0,0,0,2.614-2.439,15.575,15.575,0,0,0,2.015-2.758c.025-.043.048-.084.069-.124l.06-.113.051-.1.045-.095-.083-.035-.091-.038-.1-.04-.11-.043a29.707,29.707,0,0,0-3.988-1.191c-1.364-.31-2.758-.543-4.168-.724s-2.836-.309-4.263-.412-2.857-.178-4.274-.254c-9.4-.5-19.112-1.015-28.98-1.29s-19.893-.3-29.917.164a237.48,237.48,0,0,0-29.907,3.172,162.747,162.747,0,0,0-28.954,7.735l-.613-1.639-.613-1.64-.613-1.639-.613-1.639A169.719,169.719,0,0,1,150.926,92.1,242.446,242.446,0,0,1,181.58,88.8c10.248-.494,20.476-.47,30.534-.194s19.947.8,29.517,1.309c1.48.079,3.009.16,4.567.275s3.145.262,4.74.474,3.2.487,4.791.857a36.373,36.373,0,0,1,4.716,1.424c.228.087.55.209.923.382A9.146,9.146,0,0,1,262.6,94a7.255,7.255,0,0,1,1.269,1.061,6,6,0,0,1,1.048,1.523,5.863,5.863,0,0,1,.428,1.235,6.2,6.2,0,0,1,.147,1.576,7.51,7.51,0,0,1-.319,1.909,10.607,10.607,0,0,1-.972,2.23,22.61,22.61,0,0,1-2.9,3.977,30.4,30.4,0,0,1-3.491,3.268c-1.224.988-2.49,1.883-3.741,2.709s-2.488,1.584-3.653,2.3q-8.181,5.013-16.459,9.97t-16.614,9.835q-8.335,4.878-16.711,9.666t-16.75,9.463l-.474.265-.474.264-.474.264-.475.265c-3.991,2.226-8.017,4.471-12,6.794s-7.933,4.723-11.766,7.261-7.555,5.212-11.088,8.082a97.313,97.313,0,0,0-9.968,9.257c-.486.522-.937,1.025-1.35,1.517s-.786.972-1.114,1.447a11.434,11.434,0,0,0-.848,1.418,7.777,7.777,0,0,0-.549,1.432,4.892,4.892,0,0,0-.162,1.2,4.7,4.7,0,0,0,.125,1.141,3.427,3.427,0,0,0,.381.96,1.954,1.954,0,0,0,.607.65,2.7,2.7,0,0,0,.564.263,5.63,5.63,0,0,0,.7.188c.252.053.52.1.8.135s.567.072.86.1c2.777.307,5.588.506,8.417.625s5.678.158,8.53.144,5.71-.082,8.557-.175,5.685-.213,8.5-.331c4.546-.191,9.13-.384,13.725-.467s9.2-.058,13.789.188a114.02,114.02,0,0,1,13.684,1.509,82.48,82.48,0,0,1,13.409,3.493,27.076,27.076,0,0,1,5.173,2.441,17.4,17.4,0,0,1,3.778,3.087,11.779,11.779,0,0,1,2.28,3.62,10.008,10.008,0,0,1,.678,4.037,10.476,10.476,0,0,1-.454,2.669,12.552,12.552,0,0,1-1.032,2.4,18.313,18.313,0,0,1-1.436,2.181c-.527.7-1.092,1.363-1.666,2.011-2,2.251-4.1,4.4-6.263,6.477s-4.4,4.068-6.676,6-4.588,3.817-6.912,5.66-4.657,3.651-6.971,5.443q-1.987,1.539-4,3.107t-4.013,3.167q-2,1.6-3.967,3.232t-3.866,3.306a110.159,110.159,0,0,0-10.946,11.012,75.6,75.6,0,0,0-7.965,11.11,54.114,54.114,0,0,0-4.961,11.169A43.232,43.232,0,0,0,164.62,305.934Z" transform="translate(-121.05 -88.406)"/></svg>