<svg id="Layer_1" data-name="Layer 1" xmlns="http://www.w3.org/2000/svg" viewBox="0 0 144.441 217.528"><defs><style>.cls-1{fill:#231f20;}</style></defs><path class="cls-1" d="M164.62,305.934l-.438-.017-.437-.016-.437-.016-.437-.016-.437-.017-.438-.016-.437-.016-.437-.016-.437-.017-.437-.016-.438-.016-.437-.016-.437-.016-.437-.017-.437-.016-.437-.016q.058-1.585.221-3.167t.428-3.16q.265-1.578.635-3.153t.841-3.144q.472-1.571,1.048-3.136t1.253-3.126q.677-1.56,1.458-3.115t1.662-3.105q.883-1.549,1.867-3.094t2.072-3.081q1.086-1.537,2.274-3.068t2.478-3.054q1.29-1.524,2.681-3.041t2.883-3.025q1.493-1.509,3.086-3.009T185.8,256.2q.49-.432.984-.86t.991-.854q.5-.424,1-.847t1-.841q.5-.42,1.009-.836t1.013-.829q.507-.414,1.016-.824t1.019-.819q.51-.408,1.021-.813t1.022-.809q.512-.4,1.023-.8t1.022-.8q.51-.4,1.02-.795l1.019-.792,1.016-.787,1.012-.785q.844-.653,1.691-1.31t1.695-1.317q.849-.66,1.7-1.326t1.694-1.336q.846-.671,1.69-1.348t1.681-1.361q.838-.686,1.671-1.377t1.657-1.393q.825-.7,1.64-1.411t1.621-1.431q.8-.72,1.6-1.452t1.572-1.475q.779-.744,1.542-1.5t1.511-1.525q.747-.769,1.476-1.554t1.438-1.582c.09-.1.179-.2.268-.3s.176-.2.263-.3.173-.205.258-.308.168-.2.25-.308.162-.206.241-.309.155-.206.229-.309.148-.206.218-.31.138-.206.2-.309.127-.205.186-.308.116-.205.169-.307.1-.2.15-.306.089-.2.128-.3.074-.2.1-.3.058-.2.081-.3.04-.2.054-.3a2.939,2.939,0,0,0,.025-.294,2.836,2.836,0,0,0-.025-.5,3.153,3.153,0,0,0-.11-.5,3.648,3.648,0,0,0-.19-.484,4.324,4.324,0,0,0-.263-.472,5.277,5.277,0,0,0-.33-.459c-.12-.151-.251-.3-.391-.445s-.289-.29-.446-.43-.323-.279-.5-.414-.352-.268-.538-.4-.378-.256-.576-.38-.4-.243-.607-.36-.417-.23-.632-.34-.431-.217-.651-.32-.441-.2-.664-.3-.447-.187-.671-.275-.449-.171-.672-.251q-1.531-.546-3.075-1.016t-3.1-.872q-1.554-.4-3.12-.738t-3.143-.613q-1.578-.276-3.167-.5t-3.189-.392q-1.6-.171-3.212-.3t-3.236-.208q-1.623-.086-3.258-.132t-3.282-.064q-1.647-.017-3.306-.006t-3.329.043q-1.669.033-3.352.082t-3.376.112q-1.693.061-3.4.132t-3.424.142l-2.163.091-2.172.088q-1.088.043-2.179.084t-2.185.075q-1.094.036-2.19.066t-2.195.053q-1.1.023-2.2.038t-2.2.019q-1.1,0-2.2,0t-2.2-.025q-1.1-.019-2.2-.051t-2.2-.079q-1.1-.048-2.2-.111t-2.2-.145q-1.1-.081-2.19-.181t-2.186-.22l-.366-.041-.368-.045-.37-.05c-.124-.017-.248-.036-.372-.055s-.248-.041-.372-.063-.249-.046-.374-.071-.249-.051-.374-.08-.249-.058-.374-.09-.249-.067-.374-.1-.248-.075-.372-.116-.249-.084-.372-.129-.247-.094-.371-.145-.246-.1-.368-.162-.245-.116-.367-.179-.243-.129-.363-.2-.241-.142-.361-.218q-.333-.213-.644-.454t-.6-.509q-.288-.268-.55-.561c-.175-.195-.341-.4-.5-.608s-.308-.427-.449-.651-.274-.454-.4-.69-.239-.478-.344-.726-.2-.5-.289-.757-.165-.519-.233-.784-.127-.535-.176-.808-.087-.548-.116-.827-.048-.559-.057-.842-.007-.568,0-.854.035-.573.068-.861.077-.576.132-.864.121-.576.2-.864c.059-.22.123-.438.192-.652s.143-.427.221-.636.161-.416.248-.619.178-.405.273-.6.194-.4.3-.588.209-.386.318-.575.222-.375.337-.56.234-.367.355-.547.245-.359.371-.535.255-.351.385-.523.263-.344.4-.513.27-.336.407-.5.276-.33.416-.492.281-.324.422-.483.284-.318.427-.475.286-.312.43-.466q1.229-1.321,2.5-2.589t2.586-2.488q1.313-1.219,2.664-2.392t2.736-2.3q1.385-1.131,2.8-2.22t2.861-2.144q1.443-1.053,2.912-2.073t2.958-2.009q1.489-.988,3-1.951t3.03-1.9q1.522-.939,3.056-1.855t3.076-1.816q1.54-.9,3.088-1.784t3.095-1.757q1.548-.873,3.095-1.738l3.088-1.723.119-.067.118-.066.118-.066.119-.066.118-.066.118-.066.119-.066.118-.066.118-.066.119-.066.118-.066.118-.066.119-.066.118-.066.118-.066.119-.066q2.086-1.164,4.172-2.336t4.173-2.351q2.087-1.179,4.172-2.364t4.171-2.378q2.085-1.191,4.168-2.39t4.165-2.4q2.082-1.2,4.161-2.413t4.156-2.425q2.076-1.215,4.149-2.435t4.143-2.445q2.069-1.226,4.134-2.455t4.126-2.464q2.061-1.233,4.116-2.472t4.106-2.48q2.05-1.24,4.094-2.487t4.082-2.494q.474-.289.936-.576t.912-.57q.449-.284.885-.564t.859-.563q.422-.281.83-.562t.8-.566q.393-.284.771-.57t.738-.578q.361-.292.706-.589t.671-.6q.329-.3.637-.616t.6-.634q.291-.321.563-.653t.524-.676q.252-.343.485-.7t.443-.728l.018-.032.018-.031.017-.031.016-.03.016-.029.015-.028.015-.029.014-.027.013-.027.014-.026.012-.026.012-.025.012-.025.012-.024.01-.023.011-.023-.02-.008-.02-.009-.021-.009-.022-.009-.022-.009-.022-.01-.023-.009-.024-.01-.024-.01-.025-.01-.026-.01-.026-.01-.026-.011-.028-.01-.027-.011-.029-.011q-.483-.184-.976-.35c-.327-.11-.658-.215-.99-.313s-.668-.192-1-.28-.676-.17-1.017-.248-.684-.15-1.029-.218-.69-.132-1.038-.192-.7-.116-1.047-.168-.7-.1-1.054-.146-.706-.087-1.06-.126-.709-.075-1.065-.109-.712-.065-1.068-.095-.713-.056-1.07-.082l-1.071-.072c-.357-.023-.714-.044-1.07-.065l-1.068-.06L241.26,96.9q-3.525-.186-7.106-.373t-7.208-.356q-3.627-.169-7.3-.314t-7.369-.247q-3.7-.1-7.428-.156t-7.472-.04q-3.745.012-7.5.1t-7.516.262q-3.757.177-7.514.45t-7.5.663q-3.742.388-7.469.9t-7.424,1.16q-3.7.65-7.365,1.445t-7.29,1.755q-3.624.959-7.2,2.088t-7.1,2.447l-.153-.41-.154-.41-.153-.41-.153-.409-.153-.41-.154-.41-.153-.41-.153-.41-.153-.409-.154-.41-.153-.41-.153-.41-.153-.41-.154-.409-.153-.41-.153-.41q3.648-1.365,7.347-2.536t7.437-2.166q3.739-.994,7.515-1.82t7.577-1.5q3.8-.675,7.625-1.206t7.66-.936q3.837-.405,7.681-.692t7.688-.472q3.843-.184,7.68-.277t7.658-.109q3.822-.015,7.623.036t7.573.156q3.772.1,7.51.249t7.432.318q3.694.171,7.34.362t7.235.38l1.119.06,1.135.064q.572.033,1.15.071t1.163.08c.39.029.781.059,1.174.093s.787.069,1.182.108.792.08,1.19.126.8.094,1.194.147.8.11,1.2.171.8.128,1.2.2.8.147,1.2.228.8.168,1.2.26.794.191,1.19.3.791.216,1.185.334.785.243,1.176.375.779.272,1.165.419l.188.072q.1.039.219.087c.078.031.16.066.247.1s.176.077.269.12.19.089.288.139.2.1.3.159.208.116.314.18.213.131.321.2.216.147.323.226.216.164.322.252.213.18.317.277.206.2.307.306.2.218.293.334.186.238.275.365.173.258.253.4.156.28.227.428q.063.133.123.276c.04.1.078.2.114.3s.071.21.1.32.061.223.088.341.05.238.07.362.037.252.05.384.022.266.027.405,0,.28,0,.425-.014.294-.028.447-.035.307-.061.467-.058.321-.1.487-.083.335-.134.508-.109.348-.174.527-.138.362-.219.548-.168.375-.264.568-.2.388-.315.587c-.207.365-.425.721-.651,1.069s-.461.687-.7,1.018-.494.653-.751.968-.523.622-.794.922-.548.592-.831.878-.57.564-.862.836-.588.537-.888.8-.6.511-.91.758-.614.489-.925.724-.622.466-.935.691-.627.446-.941.661-.627.427-.94.633-.625.409-.935.607-.618.393-.924.584-.608.379-.907.563l-.887.544q-2.044,1.254-4.1,2.5t-4.109,2.5q-2.058,1.247-4.121,2.489t-4.132,2.481q-2.067,1.237-4.141,2.473t-4.15,2.463q-2.077,1.23-4.158,2.455t-4.165,2.444q-2.083,1.22-4.171,2.433t-4.176,2.423q-2.09,1.209-4.18,2.411t-4.184,2.4q-2.093,1.2-4.186,2.386t-4.188,2.373q-2.094,1.183-4.188,2.359t-4.188,2.345l-.119.066-.118.066-.119.066-.118.067-.119.066-.118.066-.119.066-.118.066-.119.066-.118.066-.119.066-.118.066-.119.066-.118.067-.119.066-.119.066q-1.5.834-3,1.674t-3,1.686q-1.5.848-3,1.705t-3,1.729q-1.494.871-2.981,1.757t-2.959,1.793q-1.473.906-2.931,1.833t-2.895,1.878q-1.439.951-2.853,1.93t-2.8,1.986q-1.388,1.01-2.747,2.049t-2.684,2.117q-1.326,1.077-2.615,2.19t-2.537,2.27q-1.248,1.155-2.453,2.353t-2.363,2.444c-.122.13-.241.26-.358.388s-.232.256-.344.382-.223.252-.331.376-.214.248-.317.371-.2.245-.3.367-.194.242-.286.363-.184.24-.271.359-.173.239-.255.358-.162.237-.238.355-.151.237-.221.355-.139.236-.2.354-.126.236-.185.354-.114.236-.166.355-.1.237-.147.357-.089.238-.128.358-.075.241-.108.362q-.039.147-.069.3c-.019.1-.036.2-.049.3s-.024.2-.031.3-.012.2-.013.3,0,.2.006.3.012.195.023.29.024.19.04.283.035.184.056.273.046.177.072.262.057.168.088.249.067.158.1.233.076.147.117.216.086.134.132.2a1.924,1.924,0,0,0,.145.175,1.741,1.741,0,0,0,.159.152,1.575,1.575,0,0,0,.171.127c.04.025.082.05.126.074s.09.046.137.068.1.043.146.063.1.04.155.058.108.036.164.053.113.034.172.049.118.031.179.045l.185.041.192.038.2.035.2.032.207.03.211.028.213.027.217.025.219.024q1.041.115,2.089.211t2.1.172q1.053.078,2.11.137t2.118.1q1.062.045,2.126.075t2.131.047q1.066.017,2.135.022t2.138,0q1.071-.006,2.14-.021t2.141-.037q1.07-.023,2.139-.052t2.137-.065q1.068-.034,2.133-.075t2.129-.081l2.122-.086,2.114-.089q1.7-.072,3.416-.142t3.428-.132q1.716-.061,3.437-.112t3.444-.081q1.724-.031,3.448-.041t3.449.011q1.725.021,3.448.073t3.444.145q1.721.093,3.438.228t3.428.32q1.712.184,3.416.424t3.4.537q1.7.3,3.385.661t3.365.8q1.677.434,3.342.941t3.317,1.095q.73.26,1.418.543t1.336.589q.648.306,1.252.633t1.167.676q.561.346,1.079.715t.991.755q.472.386.9.791t.808.826q.381.423.715.86t.619.891c.19.3.365.609.522.921a10.363,10.363,0,0,1,.424.948,10.121,10.121,0,0,1,.324.975,9.9,9.9,0,0,1,.34,2.02,10.322,10.322,0,0,1,.014,1.042c-.009.235-.026.466-.05.7s-.056.454-.094.676-.084.441-.136.657-.11.43-.174.641-.135.418-.211.623-.157.407-.244.607-.178.4-.274.592-.2.388-.3.578-.215.378-.328.564-.23.369-.35.551-.244.361-.371.539-.255.353-.387.527-.266.346-.4.517-.274.339-.413.507-.281.333-.423.5-.285.328-.428.49q-.75.845-1.518,1.67t-1.551,1.635q-.783.809-1.583,1.6t-1.611,1.57q-.813.777-1.637,1.54t-1.66,1.513q-.835.75-1.681,1.488t-1.7,1.464q-.854.726-1.713,1.443T216.72,240.4q-.865.708-1.734,1.406t-1.741,1.389q-.872.691-1.744,1.377t-1.745,1.364q-.871.68-1.743,1.355l-1.739,1.347-1,.771-1,.775-1,.779-1,.782q-.5.391-1,.786c-.335.262-.67.526-1,.789l-1,.794q-.5.4-1,.8t-1,.8l-1,.806q-.5.4-.99.811t-.984.814q-.492.409-.979.82t-.971.824q-.483.413-.962.829t-.954.833q-1.554,1.37-3.015,2.742t-2.829,2.75q-1.368,1.375-2.644,2.757t-2.458,2.763q-1.182,1.385-2.271,2.77t-2.085,2.776q-1,1.389-1.9,2.78t-1.711,2.784q-.807,1.393-1.522,2.788t-1.335,2.792q-.621,1.4-1.146,2.793t-.958,2.8q-.432,1.4-.768,2.8t-.579,2.8q-.243,1.4-.389,2.8T164.62,305.934Z" transform="translate(-121.05 -88.406)"/></svg>