<svg id="Layer_1" data-name="Layer 1" xmlns="http://www.w3.org/2000/svg" viewBox="0 0 144.065 146.871"><defs><style>.cls-1{fill:#231f20;}</style></defs><path class="cls-1" d="M164.617,306l-.437-.024-.437-.024-.437-.024-.437-.025-.436-.024-.437-.024-.437-.024-.437-.024-.437-.024-.437-.025-.436-.024-.437-.024-.437-.024-.437-.024-.437-.024-.437-.025q.063-1.115.229-2.225t.44-2.216q.272-1.107.649-2.207t.86-2.2q.481-1.1,1.068-2.187t1.278-2.176q.691-1.084,1.486-2.164t1.695-2.153q.9-1.072,1.9-2.14t2.11-2.128q1.107-1.06,2.316-2.114t2.524-2.1q1.313-1.047,2.729-2.087t2.935-2.072q1.519-1.032,3.141-2.057t3.346-2.041q.49-.29.984-.576t.991-.571q.5-.285,1-.568l1-.563q.5-.281,1.009-.559l1.013-.555,1.016-.551q.508-.276,1.019-.548t1.021-.545q.51-.272,1.022-.541l1.022-.539,1.022-.535,1.02-.533,1.019-.53,1.016-.527,1.012-.525,1.691-.876,1.694-.882q.849-.441,1.7-.887t1.694-.894q.846-.449,1.689-.9t1.68-.91q.838-.459,1.67-.921t1.656-.932q.824-.468,1.639-.943t1.618-.957q.8-.482,1.6-.971t1.569-.986q.779-.5,1.541-1t1.508-1.019q.746-.513,1.472-1.037t1.435-1.057c.1-.073.189-.143.278-.212l.256-.2c.081-.064.159-.127.233-.187s.146-.119.213-.176.132-.111.193-.163l.174-.153c.055-.049.106-.1.155-.142s.1-.089.139-.131.085-.083.123-.121.074-.076.108-.112.065-.069.094-.1.056-.063.08-.093.048-.057.069-.083l.057-.075c.018-.024.034-.046.048-.067l.038-.059a1.649,1.649,0,0,0-.112-.126c-.043-.045-.093-.092-.149-.141s-.119-.1-.188-.155-.145-.109-.227-.167-.172-.117-.268-.177-.2-.123-.31-.187-.227-.128-.352-.194-.256-.132-.4-.2-.286-.136-.44-.2-.315-.138-.484-.208-.347-.139-.532-.209-.377-.14-.578-.209-.41-.14-.627-.209-.442-.137-.675-.205-.476-.134-.726-.2-.509-.131-.777-.195q-1.549-.371-3.11-.688t-3.13-.591q-1.571-.272-3.152-.5t-3.173-.415q-1.591-.187-3.195-.337t-3.216-.266q-1.614-.115-3.238-.2t-3.26-.142q-1.637-.057-3.283-.09t-3.305-.043q-1.657-.012-3.327,0t-3.351.029q-1.68.021-3.373.055t-3.4.075q-1.7.042-3.42.089l-3.444.095-2.156.061-2.164.059-2.17.055q-1.088.027-2.177.051t-2.182.044q-1.092.02-2.186.035t-2.189.025q-1.095.009-2.191.013t-2.191,0q-1.1,0-2.192-.016t-2.191-.034q-1.095-.021-2.188-.052t-2.186-.074q-1.092-.042-2.181-.1t-2.176-.12q-1.087-.066-2.17-.146l-.344-.026-.346-.028-.348-.032c-.116-.01-.233-.022-.349-.034l-.35-.039q-.176-.021-.351-.045c-.116-.015-.233-.032-.35-.05s-.234-.036-.351-.056-.233-.041-.349-.064-.233-.046-.349-.072-.232-.052-.347-.08-.231-.059-.346-.09-.229-.065-.343-.1-.228-.072-.341-.111-.225-.08-.337-.123-.224-.088-.335-.135q-.375-.161-.725-.349c-.234-.125-.458-.26-.674-.4s-.422-.293-.619-.452-.386-.325-.564-.5-.347-.353-.506-.539-.308-.38-.447-.578-.267-.4-.385-.61-.226-.423-.322-.64a7.33,7.33,0,0,1-.448-1.351q-.078-.348-.121-.7c-.029-.236-.046-.475-.052-.715a7.339,7.339,0,0,1,.117-1.451,7.388,7.388,0,0,1,.171-.729c.07-.242.153-.484.249-.724q.1-.254.217-.5t.247-.481q.129-.237.272-.466t.3-.452q.156-.222.322-.437c.11-.144.225-.285.342-.424s.238-.277.362-.412.25-.268.379-.4.261-.26.4-.388.271-.254.409-.378.279-.247.421-.368.286-.241.431-.359.292-.235.439-.35.3-.23.446-.343.3-.225.449-.336.3-.22.453-.329q1.229-.885,2.5-1.734t2.586-1.666q1.314-.816,2.664-1.6t2.736-1.541q1.385-.758,2.8-1.486t2.859-1.434q1.443-.705,2.91-1.388t2.956-1.344q1.488-.661,3-1.305t3.027-1.271q1.521-.627,3.053-1.24t3.072-1.215q1.54-.6,3.086-1.192t3.091-1.175q1.547-.585,3.092-1.162t3.085-1.153l.118-.044.117-.044.118-.044.118-.044.118-.044.118-.044.118-.044L180,199.7l.118-.044.118-.044.118-.045.118-.044.118-.044.118-.044.118-.044.118-.044q2.086-.78,4.174-1.564t4.174-1.574q2.086-.789,4.173-1.583t4.172-1.592q2.087-.8,4.17-1.6t4.166-1.608l4.162-1.616q2.081-.81,4.157-1.624t4.151-1.631q2.073-.816,4.144-1.637t4.136-1.643q2.066-.823,4.127-1.65t4.117-1.655q2.057-.83,4.107-1.66t4.095-1.666q2.044-.834,4.083-1.67l.6-.247.614-.253.623-.26.63-.267c.21-.09.422-.181.633-.273s.423-.186.635-.281.423-.19.633-.288.42-.195.629-.3.416-.2.622-.3.41-.206.612-.311.4-.212.6-.32.393-.218.585-.329.381-.223.567-.337.369-.229.547-.346.354-.236.524-.356.337-.242.5-.365q-.461-.1-.926-.185c-.311-.059-.623-.114-.936-.167s-.628-.1-.945-.149-.634-.091-.952-.133-.639-.081-.96-.118-.643-.072-.966-.1-.647-.064-.972-.092-.649-.056-.975-.081-.653-.048-.98-.07-.654-.043-.981-.062-.656-.037-.984-.054-.656-.033-.984-.048l-.984-.043-.983-.039-.981-.036-.979-.036q-3.534-.125-7.126-.25t-7.23-.239q-3.638-.114-7.318-.21t-7.392-.166q-3.711-.067-7.451-.1t-7.5-.027q-3.757.009-7.526.067t-7.541.177q-3.771.119-7.541.3t-7.527.446q-3.759.261-7.5.6t-7.455.781q-3.714.438-7.4.973t-7.325,1.181q-3.642.645-7.237,1.405t-7.135,1.647l-.106-.425-.107-.424-.106-.424-.106-.425-.106-.424-.107-.424-.106-.425-.106-.424-.106-.425-.107-.424-.106-.424-.106-.425-.106-.424-.107-.424-.106-.425-.106-.424q3.628-.909,7.31-1.689t7.4-1.442q3.721-.663,7.481-1.213t7.545-1q3.786-.449,7.595-.8t7.631-.623q3.822-.268,7.653-.46t7.66-.314q3.829-.123,7.654-.184t7.634-.072q3.808-.01,7.6.025t7.55.1q3.761.069,7.487.167t7.41.212q3.684.115,7.319.242t7.213.254l1.151.042,1.155.043,1.158.047,1.161.053q.581.029,1.162.062t1.164.07q.582.039,1.165.083t1.164.1q.582.053,1.163.112c.387.04.775.083,1.161.129s.773.095,1.159.148.771.11,1.156.17.769.124,1.152.193.766.141,1.147.218.762.158,1.142.245.758.177,1.135.274c.1.025.2.052.305.08s.2.056.308.086.206.061.309.093.207.067.31.1.207.072.31.111.2.079.307.122.2.087.305.133.2.095.3.146.2.1.3.159.192.114.287.175.187.124.279.19.181.134.269.206.174.147.258.225.167.159.247.243.158.173.233.264.148.186.219.284c.033.047.07.1.11.163s.082.131.126.207.088.159.133.249.089.186.133.289.085.211.124.326.076.237.109.363.061.259.084.4.042.281.053.429.017.3.014.46-.014.32-.034.488a4.994,4.994,0,0,1-.089.514,5.486,5.486,0,0,1-.152.538,5.9,5.9,0,0,1-.223.562q-.131.285-.3.581c-.115.2-.244.4-.388.6s-.305.409-.483.617q-.321.378-.67.737t-.72.7q-.372.342-.766.666t-.807.631q-.413.308-.842.6t-.871.57c-.3.185-.6.365-.9.541s-.608.348-.916.515-.619.331-.931.491-.626.315-.94.467-.63.3-.945.446-.63.287-.943.426-.627.275-.938.408-.62.264-.926.392-.61.254-.91.378l-.888.365q-2.044.839-4.095,1.675t-4.109,1.67q-2.056.835-4.119,1.666t-4.13,1.66q-2.068.829-4.14,1.655t-4.149,1.649q-2.078.822-4.157,1.642t-4.164,1.636q-2.084.816-4.169,1.628t-4.175,1.621q-2.089.809-4.179,1.614t-4.183,1.605q-2.092.8-4.185,1.6t-4.186,1.588q-2.094.791-4.187,1.578t-4.187,1.569l-.118.044-.118.045-.118.044-.118.044-.119.044-.118.044-.118.044-.118.044-.118.044-.118.045-.118.044-.118.044-.118.044-.118.044-.119.044-.118.044-3,1.122q-1.5.564-3.009,1.131t-3.009,1.143q-1.5.574-3,1.158t-2.985,1.178q-1.488.6-2.963,1.2t-2.935,1.228q-1.458.622-2.9,1.259t-2.856,1.293q-1.416.656-2.807,1.33t-2.749,1.373q-1.361.7-2.686,1.417t-2.616,1.467q-1.288.745-2.538,1.519T139,226.006q-1.2.8-2.363,1.636l-.182.131-.205.149-.226.167-.242.181-.253.195q-.129.1-.261.207c-.087.07-.176.142-.264.216s-.176.148-.263.224-.173.153-.258.23-.168.157-.249.235-.16.159-.236.238-.149.159-.218.239-.135.159-.2.237-.118.158-.171.236-.1.155-.141.231a2.141,2.141,0,0,0-.106.224c-.007.017-.012.033-.017.049a.4.4,0,0,0-.009.048.377.377,0,0,0,0,.047.356.356,0,0,0,0,.047.405.405,0,0,0,.012.047.422.422,0,0,0,.018.045c.008.015.016.03.026.045a.416.416,0,0,0,.032.045.523.523,0,0,0,.04.043c.014.015.029.029.046.044s.034.028.053.042l.06.042c.021.014.043.027.067.041s.048.027.074.041l.08.039c.028.014.058.027.088.04.053.022.109.044.166.065s.118.04.18.059.126.037.191.054.132.034.2.049.138.031.209.045l.215.04.22.036.223.032.224.029.225.026.222.023.219.021.214.018.207.017.2.015.189.014q1.05.078,2.105.142t2.115.116q1.061.053,2.124.093t2.132.07q1.067.03,2.138.051t2.142.032q1.072.011,2.147.015t2.149,0q1.074,0,2.15-.014t2.15-.025q1.074-.015,2.148-.035t2.146-.043q1.073-.024,2.142-.05t2.137-.055q1.066-.027,2.13-.057l2.123-.06,3.4-.094q1.7-.047,3.407-.088t3.416-.074q1.71-.033,3.423-.054t3.426-.027q1.714-.006,3.427.006t3.425.048q1.711.036,3.42.1t3.412.15q1.7.09,3.4.212t3.389.28q1.691.159,3.373.355t3.354.438q1.673.24,3.333.527t3.309.622q1.649.336,3.282.725.982.234,1.866.49t1.675.529q.792.273,1.5.565t1.324.6q.62.3,1.162.622t1.009.645q.468.327.866.662c.266.224.509.449.732.676a8.715,8.715,0,0,1,.607.684,7.788,7.788,0,0,1,.492.689,7.336,7.336,0,0,1,.385.689,6.836,6.836,0,0,1,.288.684,6.43,6.43,0,0,1,.2.675,6.693,6.693,0,0,1,.122.661q.042.327.052.644c.007.211,0,.418-.007.621a6.53,6.53,0,0,1-.073.668c-.035.218-.081.432-.136.64s-.119.412-.192.611-.154.392-.243.582-.184.373-.286.553-.21.355-.323.526-.232.336-.354.5-.249.318-.378.47-.261.3-.4.442-.27.281-.407.415-.274.263-.411.387-.274.245-.41.361-.269.227-.4.334-.261.209-.386.307l-.365.281-.336.254q-.752.567-1.521,1.121t-1.554,1.1q-.785.543-1.585,1.074t-1.614,1.053q-.813.52-1.638,1.033t-1.662,1.014q-.837.5-1.682,1t-1.7.981q-.853.486-1.714.966t-1.725.953q-.865.474-1.734.941t-1.741.931q-.872.462-1.745.921t-1.745.913q-.872.456-1.743.907l-1.739.9-1,.517-1,.519-1,.521-1,.524-1,.526-1,.529-1,.531-1,.534-1,.537-1,.54q-.5.27-.99.543t-.985.545l-.979.549q-.487.274-.971.552c-.322.184-.644.369-.963.555s-.638.371-.954.558q-1.048.618-2.118,1.279t-2.149,1.362q-1.078.7-2.158,1.443t-2.146,1.52q-1.066.779-2.111,1.594t-2.053,1.664q-1.01.849-1.975,1.731t-1.873,1.794q-.907.912-1.75,1.855t-1.6,1.911q-.762.969-1.437,1.965t-1.247,2.015q-.573,1.018-1.036,2.061a20.723,20.723,0,0,0-.8,2.1,18.357,18.357,0,0,0-.546,2.144A16.506,16.506,0,0,0,164.617,306Zm94.027-139.216Z" transform="translate(-121.426 -159.126)"/></svg>