<svg id="Layer_1" data-name="Layer 1" xmlns="http://www.w3.org/2000/svg" viewBox="0 0 144.065 146.871"><defs><style>.cls-1{fill:#231f20;}</style></defs><path class="cls-1" d="M164.617,306l-1.748-.1-1.747-.1-1.747-.1-1.748-.1a25.328,25.328,0,0,1,2.178-8.845,36.454,36.454,0,0,1,5.527-8.68,61.55,61.55,0,0,1,8.852-8.483,105.257,105.257,0,0,1,12.151-8.257q1.96-1.157,3.977-2.278t4.057-2.213q2.04-1.094,4.087-2.16t4.067-2.115c2.25-1.166,4.519-2.342,6.775-3.539s4.5-2.415,6.695-3.665,4.348-2.532,6.422-3.857,4.07-2.693,5.956-4.115c.387-.291.71-.548.98-.775s.487-.421.661-.589a5.5,5.5,0,0,0,.405-.427,2.239,2.239,0,0,0,.212-.284,3.257,3.257,0,0,0-.676-.589,9.989,9.989,0,0,0-1.325-.758,18.609,18.609,0,0,0-2.034-.831,29.169,29.169,0,0,0-2.805-.809,108.986,108.986,0,0,0-12.565-2.194c-4.245-.5-8.547-.792-12.909-.945s-8.783-.166-13.266-.109-9.027.185-13.634.314c-2.869.081-5.761.162-8.667.226s-5.826.108-8.748.117-5.846-.02-8.762-.1-5.824-.223-8.713-.436c-.457-.034-.921-.071-1.387-.12s-.935-.11-1.4-.19-.932-.18-1.391-.306a10.825,10.825,0,0,1-1.356-.47,8.427,8.427,0,0,1-2.582-1.7,7.6,7.6,0,0,1-1.66-2.367,7.2,7.2,0,0,1-.621-2.769,7.375,7.375,0,0,1,.537-2.9,9.5,9.5,0,0,1,1.034-1.9,13.22,13.22,0,0,1,1.405-1.673,20.522,20.522,0,0,1,1.656-1.493c.58-.473,1.183-.923,1.787-1.358a99.988,99.988,0,0,1,10.488-6.542c3.692-2.018,7.557-3.886,11.525-5.652s8.041-3.427,12.147-5.031,8.248-3.149,12.354-4.682l.471-.176L180,199.7l.472-.177.472-.176q8.346-3.118,16.693-6.313t16.655-6.448q8.308-3.253,16.558-6.561t16.4-6.651c.794-.325,1.626-.667,2.469-1.027s1.695-.738,2.53-1.137,1.65-.82,2.419-1.264a19.945,19.945,0,0,0,2.137-1.4c-1.228-.26-2.484-.467-3.759-.634s-2.57-.294-3.873-.4-2.617-.174-3.929-.234-2.625-.107-3.927-.154c-9.426-.335-19.167-.681-29.066-.865s-19.955-.2-30.013.113-20.117.971-30.022,2.136a231.261,231.261,0,0,0-29.094,5.206l-.425-1.7-.425-1.7-.425-1.7-.425-1.7a237.824,237.824,0,0,1,29.738-5.343c10.1-1.2,20.326-1.871,30.539-2.2s20.409-.311,30.437-.127,19.888.535,29.429.875c1.531.055,3.075.11,4.625.185s3.1.173,4.655.311,3.1.318,4.639.559,3.067.544,4.576.93c.4.1.819.219,1.232.361a9.255,9.255,0,0,1,1.221.512,6.369,6.369,0,0,1,1.13.73,5.273,5.273,0,0,1,.957,1.016,4.907,4.907,0,0,1,.872,2.423,4.972,4.972,0,0,1-.261,2,7.227,7.227,0,0,1-1.395,2.361,17.939,17.939,0,0,1-2.963,2.734,29.162,29.162,0,0,1-3.526,2.226c-1.233.67-2.5,1.274-3.759,1.83s-2.494,1.064-3.662,1.543q-8.178,3.354-16.453,6.671t-16.61,6.582q-8.333,3.264-16.706,6.468T183.4,205.906l-.472.177-.473.176-.472.177-.473.176c-4,1.492-8.029,3-12.021,4.554s-7.944,3.166-11.781,4.866-7.562,3.491-11.1,5.413a93.225,93.225,0,0,0-9.971,6.2c-.224.161-.524.377-.855.628s-.692.539-1.041.842a10.117,10.117,0,0,0-.961.942,3.444,3.444,0,0,0-.615.928.338.338,0,0,0-.023.191.4.4,0,0,0,.088.182.9.9,0,0,0,.2.171,2.092,2.092,0,0,0,.309.161,4.444,4.444,0,0,0,.738.227c.273.063.568.112.867.153s.6.073.89.1.565.046.809.064c2.8.207,5.629.341,8.476.421s5.709.107,8.576.1,5.735-.054,8.594-.117,5.707-.142,8.532-.222c4.518-.127,9.076-.255,13.642-.31s9.142-.039,13.7.123,9.09.47,13.576,1a115.348,115.348,0,0,1,13.278,2.312,30.476,30.476,0,0,1,6.361,2.18,13.614,13.614,0,0,1,3.769,2.605,7.534,7.534,0,0,1,1.772,2.746,6.589,6.589,0,0,1,.367,2.6,6.779,6.779,0,0,1-.644,2.5,9.155,9.155,0,0,1-1.341,2.046,14.4,14.4,0,0,1-1.623,1.6c-.541.463-1.06.854-1.487,1.176-2,1.511-4.105,2.954-6.274,4.344s-4.405,2.726-6.681,4.024-4.59,2.556-6.914,3.791-4.658,2.443-6.972,3.643c-1.326.687-2.664,1.381-4,2.081s-2.681,1.406-4.015,2.12-2.66,1.436-3.969,2.165-2.6,1.467-3.867,2.214c-2.793,1.647-5.729,3.527-8.571,5.6a67.483,67.483,0,0,0-8.012,6.783,36.7,36.7,0,0,0-6.039,7.746A19.554,19.554,0,0,0,164.617,306Zm94.027-139.216Z" transform="translate(-121.426 -159.126)"/></svg>