<?xml version="1.0" encoding="utf-8" ?>
<svg baseProfile="full" height="166" version="1.1" viewBox="0,0,310,166" width="310" xmlns="http://www.w3.org/2000/svg" xmlns:ev="http://www.w3.org/2001/xml-events" xmlns:xlink="http://www.w3.org/1999/xlink">
	<path d="M 303.994003 61.914001 L 303.704630 62.307532 L 303.415258 62.701064 L 303.125886 63.094595 L 303.041571 63.540693 L 303.105931 64.024905 L 303.170290 64.509117 L 303.234650 64.993328 L 303.541939 65.303528 L 303.979686 65.520279 L 304.417432 65.737029 L 304.856442 65.951085 L 305.303191 66.148615 L 305.749941 66.346144 L 306.196690 66.543674 L 306.642017 66.465054 L 307.086707 66.262931 L 307.531398 66.060809 L 307.879972 65.743073 L 308.159903 65.342771 L 308.439833 64.942469 L 308.482298 64.478447 L 308.440368 63.991779 L 308.398439 63.505112 L 308.157161 63.126706 L 307.771787 62.826556 L 307.386414 62.526405 L 307.001040 62.226255 L 306.524987 62.130883 L 306.043726 62.047273 L 305.562464 61.963664 L 305.084455 61.969908 L 304.610498 62.088094 L 304.136541 62.206280 L 303.662584 62.324466 L 303.333934 62.655075 L 303.051988 63.053961 L 302.770042 63.452846 L 302.488096 63.851731" fill="none" stroke="black" stroke-width="1.000000" />
	<path d="M 237.132477 1.602224 L 238.920076 2.048669 L 240.672802 2.568982 L 242.350363 3.389760 L 243.895403 4.441285 L 245.293060 5.682790 L 246.602425 7.017374 L 247.866552 8.394883 L 249.088391 9.810104 L 250.286007 11.245844 L 251.445243 12.712753 L 252.564395 14.210469 L 253.638537 15.740807 L 254.671108 17.299520 L 255.734189 18.837595" fill="none" stroke="black" stroke-width="1.000000" />
	<path d="M 237.132477 1.602224 L 236.026440 3.092037 L 234.949995 4.602833 L 233.875887 6.114605 L 233.026403 7.763838 L 232.309769 9.475075 L 231.701945 11.227954 L 231.189337 13.011050 L 230.758429 14.815644 L 230.406194 16.637255 L 230.130027 18.471930 L 229.937681 20.317292 L 229.834271 22.169801 L 229.823152 24.025235 L 229.880807 25.879835" fill="none" stroke="black" stroke-width="1.000000" />
	<path d="M 238.036630 9.890301 L 238.164851 10.366742 L 238.293073 10.843184 L 238.421295 11.319626 L 238.547245 11.796654 L 238.665845 12.275581 L 238.784445 12.754509 L 238.903045 13.233436 L 239.015704 13.713752 L 239.121708 14.195624 L 239.227711 14.677496 L 239.333714 15.159368 L 239.423775 15.644361 L 239.507281 16.130637 L 239.590786 16.616913 L 239.674292 17.103189 L 239.727761 17.593626 L 239.779596 18.084289 L 239.831430 18.574952 L 239.875867 19.066088 L 239.886844 19.559360 L 239.897821 20.052631 L 239.908798 20.545903 L 239.899410 21.038966 L 239.878321 21.531909 L 239.857231 22.024851 L 239.836142 22.517794 L 239.778961 23.007653 L 239.716105 23.497026 L 239.653249 23.986400 L 239.587592 24.475325 L 239.494607 24.959878 L 239.401623 25.444430 L 239.308638 25.928983 L 239.203437 26.410685 L 239.072374 26.886353 L 238.941311 27.362021 L 238.810248 27.837689 L 238.662527 28.308183 L 238.501061 28.774408 L 238.339595 29.240634 L 238.178129 29.706859 L 237.998406 30.166234 L 237.813329 30.623601 L 237.443177 31.538334" fill="none" stroke="black" stroke-width="1.000000" />
	<path d="M 253.234253 15.163106 L 255.132029 15.633777 L 257.026957 16.116025 L 258.918155 16.610927 L 260.792119 17.163350 L 262.658672 17.743654 L 264.489824 18.429201 L 266.299401 19.169804 L 268.085807 19.964654 L 269.846422 20.814983 L 271.574228 21.730253 L 273.269653 22.703315 L 274.890412 23.796253 L 276.432606 24.997880 L 277.901098 26.287132 L 279.232585 27.718770 L 280.495109 29.211606 L 281.683769 30.763520 L 282.748676 32.401588 L 283.603077 34.159037 L 284.267306 35.997838 L 284.846938 37.865283 L 285.445738 39.726603 L 286.102858 41.567935 L 286.874951 43.363300 L 287.852423 45.055712 L 289.016405 46.626494 L 290.285472 48.113592 L 291.674866 49.486316 L 293.310185 50.557448 L 295.039931 51.469028 L 296.808064 52.303915 L 298.568609 53.154695 L 300.328451 54.006884 L 302.062721 54.909785 L 303.720838 55.945480 L 305.187375 57.238730 L 306.560723 58.630586" fill="none" stroke="black" stroke-width="1.000000" />
	<path d="M 275.634049 64.530211 L 277.143686 65.785308 L 278.661755 67.030193 L 280.226850 68.215356 L 281.860813 69.303443 L 283.567217 70.273790 L 285.346561 71.102509 L 287.181805 71.798825 L 289.084086 72.280387 L 291.032856 72.507865 L 292.995208 72.508217 L 294.934491 72.211767 L 296.812499 71.643184 L 298.588057 70.807734 L 300.215781 69.711607 L 301.681244 68.405943 L 302.834792 66.828770 L 303.988281 65.251678" fill="none" stroke="black" stroke-width="1.000000" />
	<path d="M 275.537695 40.304468 L 275.058809 40.215516 L 274.579924 40.126564 L 274.101039 40.037612 L 273.622046 39.949246 L 273.142906 39.861675 L 272.663766 39.774104 L 272.184627 39.686533 L 271.702634 39.616753 L 271.220138 39.550111 L 270.737642 39.483469 L 270.254249 39.425292 L 269.768497 39.389396 L 269.282745 39.353499 L 268.796993 39.317603 L 268.310339 39.302748 L 267.823297 39.296948 L 267.336255 39.291147 L 266.849255 39.288377 L 266.362558 39.307598 L 265.875861 39.326818 L 265.389164 39.346038 L 264.911377 39.425602 L 264.439894 39.547861 L 263.968410 39.670120 L 263.496927 39.792379" fill="none" stroke="black" stroke-width="1.000000" />
	<path d="M 209.466201 73.784040 L 208.537723 75.524584 L 207.592484 77.256082 L 206.630964 78.978593 L 205.648581 80.689288 L 204.635509 82.381983 L 203.606341 84.064947 L 202.565600 85.740781 L 201.520386 87.413830 L 200.469380 89.083246 L 199.405137 90.744250 L 198.317827 92.390238 L 197.217920 94.027845 L 196.104742 95.656458 L 194.977490 97.275361 L 193.839227 98.886543 L 192.688499 100.488845 L 191.529031 102.084837 L 190.363624 103.676499 L 189.193147 105.264437 L 188.008430 106.841766 L 186.799864 108.400893 L 185.573328 109.945932 L 184.334076 111.480776 L 183.077057 113.001082 L 181.797963 114.502840 L 180.509077 115.996267 L 179.209917 117.480724 L 177.901068 118.956472 L 176.583963 120.424980 L 175.257141 121.884811" fill="none" stroke="black" stroke-width="1.000000" />
	<path d="M 279.407476 48.506767 L 278.919120 48.465188 L 278.430763 48.423609 L 277.942407 48.382030 L 277.454587 48.364673 L 276.968553 48.427854 L 276.482519 48.491035 L 275.996485 48.554216 L 275.511846 48.625271 L 275.033682 48.732880 L 274.555517 48.840489 L 274.077353 48.948098 L 273.601344 49.063050 L 273.140882 49.230965 L 272.680420 49.398881 L 272.219958 49.566796 L 271.760890 49.737947 L 271.322655 49.957425 L 270.884419 50.176902 L 270.446183 50.396380 L 270.007948 50.615858" fill="none" stroke="black" stroke-width="1.000000" />
	<path d="M 181.080994 114.987206 L 182.916378 114.218548 L 184.749041 113.443530 L 186.575783 112.654620 L 188.401242 111.862637 L 190.221360 111.058459 L 192.039972 110.250998 L 193.851364 109.427553 L 195.659817 108.597535 L 197.459788 107.749214 L 199.257813 106.896778 L 201.050664 106.033509 L 202.841443 105.165963 L 204.623514 104.280706 L 206.387806 103.360562 L 208.128740 102.396951 L 209.845500 101.390937 L 211.531820 100.334717 L 213.187913 99.231729 L 214.879151 98.183276 L 216.564774 97.125814 L 218.251236 96.069697 L 219.943779 95.023347 L 221.638961 93.981292 L 223.344928 92.956978 L 225.055281 91.940005 L 226.771451 90.932883 L 228.495181 89.938751 L 230.223174 88.952044 L 231.952126 87.967020 L 233.680973 86.981812 L 235.408440 85.994185 L 237.137832 85.009934 L 238.869237 84.029230 L 240.605552 83.057249 L 242.350185 82.100276 L 244.101559 81.155722 L 245.870007 80.243506 L 247.641857 79.337922 L 249.406499 78.418526 L 251.212281 77.582681 L 253.036486 76.787845 L 254.878350 76.034849 L 256.740430 75.333355 L 258.624906 74.694522 L 260.536371 74.142110 L 262.488968 73.759979 L 264.469917 73.572389 L 266.457442 73.486225 L 268.434068 73.711304 L 270.357631 74.220566 L 272.262288 74.796598 L 274.176308 75.340621 L 276.111396 75.804101 L 278.068229 76.165145 L 280.027739 76.511119 L 282.004825 76.735696 L 283.993607 76.799372 L 285.980091 76.684638 L 287.942563 76.355938 L 289.852754 75.798635 L 291.673505 74.995880" fill="none" stroke="black" stroke-width="1.000000" />
	<path d="M 198.674500 129.956299 L 199.760776 128.526244 L 200.819519 127.075358 L 201.906519 125.646071 L 202.946942 124.181901 L 203.964939 122.702096 L 204.952827 121.202077 L 205.909636 119.682045 L 206.838597 118.144808 L 207.742359 116.592614 L 208.622344 115.026809 L 209.478181 113.447685 L 210.308414 111.854950 L 211.111319 110.248280 L 211.886112 108.627828 L 212.636121 106.995769 L 213.357712 105.350931 L 214.051265 103.694083 L 214.707482 102.022152 L 215.290564 100.323231" fill="none" stroke="black" stroke-width="1.000000" />
	<path d="M 231.210483 36.540485 L 231.052161 37.013259 L 230.893840 37.486032 L 230.735518 37.958806 L 230.572795 38.429896 L 230.375193 38.887645 L 230.177592 39.345393 L 229.979990 39.803142 L 229.786765 40.262649 L 229.612919 40.729937 L 229.439073 41.197225 L 229.265227 41.664513 L 229.121773 42.140626 L 229.018306 42.628350 L 228.914838 43.116075 L 228.811371 43.603799 L 228.721918 44.094073 L 228.647004 44.586991 L 228.572090 45.079909 L 228.497176 45.572827 L 228.443768 46.068154 L 228.407780 46.565432 L 228.371792 47.062710 L 228.335804 47.559988 L 228.323253 48.058064 L 228.325368 48.556638 L 228.327482 49.055212 L 228.329596 49.553786 L 228.358924 50.051146 L 228.401186 50.547931 L 228.443449 51.044715 L 228.485711 51.541499 L 228.566994 52.032852 L 228.661990 52.522297 L 228.756986 53.011742 L 228.851981 53.501187 L 228.984439 53.981637 L 229.122026 54.460855 L 229.259612 54.940074 L 229.397199 55.419293 L 229.564988 55.888769 L 229.733363 56.358056 L 229.901738 56.827343 L 230.072332 57.295649 L 230.306043 57.736058 L 230.539754 58.176467 L 230.773465 58.616875 L 231.010885 59.055042 L 231.292149 59.466711 L 231.573412 59.878380 L 231.854676 60.290048 L 232.138968 60.699499 L 232.446666 61.091803 L 232.754364 61.484107 L 233.062063 61.876411 L 233.371884 62.266985 L 233.693996 62.647543 L 234.016108 63.028100 L 234.338220 63.408658 L 234.694982 63.753809 L 235.082417 64.067616 L 235.469851 64.381423 L 235.857286 64.695231 L 236.257234 64.992353 L 236.666971 65.276423 L 237.076708 65.560494 L 237.486445 65.844565 L 237.915223 66.097116 L 238.357315 66.327627 L 238.799407 66.558137 L 239.241498 66.788648 L 239.690347 67.005342 L 240.143748 67.212725 L 240.597149 67.420109 L 241.050551 67.627492 L 241.535921 67.717782 L 242.031802 67.769578 L 243.023564 67.873170" fill="none" stroke="black" stroke-width="1.000000" />
	<path d="M 151.730906 58.324639 L 150.993447 60.092148 L 150.253019 61.858415 L 149.506743 63.622218 L 148.766185 65.388430 L 148.049750 67.164544 L 147.368379 68.954373 L 146.713407 70.754053 L 146.069861 72.557874 L 145.444542 74.368075 L 144.841995 76.185974 L 144.264624 78.012016 L 143.714047 79.846308 L 143.190747 81.688565 L 142.694811 83.538373 L 142.226123 85.395273 L 141.784473 87.258788 L 141.369644 89.128456 L 140.981394 91.003824 L 140.618850 92.884336 L 140.280092 94.769287 L 139.962020 96.657850 L 139.658846 98.548878 L 139.373927 100.442714 L 139.115682 102.340359 L 138.886260 104.241705 L 138.689623 106.146706 L 138.523290 108.054617 L 138.389028 109.965051 L 138.283604 111.877313 L 138.207387 113.790962 L 138.162295 115.705606 L 138.139869 117.620604 L 138.158401 119.535646 L 138.188435 121.450474 L 138.260130 123.363779 L 138.343323 125.276733" fill="none" stroke="black" stroke-width="1.000000" />
	<path d="M 142.441327 59.008102 L 141.980458 60.840181 L 141.521741 62.672800 L 141.094790 64.513045 L 140.744176 66.369092 L 140.482324 68.239581 L 140.327256 70.121586 L 140.289803 72.009359 L 140.372918 73.895552 L 140.556217 75.775245 L 140.820237 77.645377 L 141.136047 79.507948 L 141.463475 81.368207 L 141.886851 83.209097 L 142.310242 85.050049" fill="none" stroke="black" stroke-width="1.000000" />
	<path d="M 141.894628 130.994760 L 142.201479 131.387240 L 142.508331 131.779720 L 142.815182 132.172200 L 143.122238 132.564518 L 143.432899 132.953989 L 143.743559 133.343461 L 144.054220 133.732932 L 144.365199 134.122148 L 144.678538 134.509468 L 144.991876 134.896789 L 145.305214 135.284110 L 145.619081 135.671000 L 145.935255 136.056009 L 146.251429 136.441018 L 146.567603 136.826027 L 146.884724 137.210252 L 147.204561 137.592223 L 147.524399 137.974194 L 147.844236 138.356165 L 148.165106 138.737265 L 148.488110 139.116563 L 148.811115 139.495860 L 149.134119 139.875157 L 149.458650 140.253141 L 149.785478 140.629148 L 150.112306 141.005155 L 150.439135 141.381162 L 150.767607 141.755727 L 151.097865 142.128726 L 151.428123 142.501724 L 151.758381 142.874723 L 152.090753 143.245830 L 152.424763 143.615473 L 152.758772 143.985116 L 153.092782 144.354758 L 153.429017 144.722373 L 153.766173 145.089147 L 154.103330 145.455922 L 154.440486 145.822697 L 154.780278 146.187027 L 155.120708 146.550765 L 155.461139 146.914503 L 155.801541 147.278267 L 156.141899 147.642073 L 156.482256 148.005879 L 156.824068 148.368305 L 157.169565 148.727234 L 157.515062 149.086163 L 157.860648 149.445007 L 158.206372 149.803717 L 158.552097 150.162426 L 158.897821 150.521136 L 159.247653 150.875841 L 159.597515 151.230516 L 159.947449 151.585121 L 160.297551 151.939560 L 160.647653 152.293999 L 160.997943 152.648250 L 161.350440 153.000307 L 161.702938 153.352363 L 162.055435 153.704419 L 162.407916 154.056492 L 162.760329 154.408633 L 163.112742 154.760774 L 163.465155 155.112915 L 163.817623 155.465001 L 164.170215 155.816963 L 164.522806 156.168925 L 164.875398 156.520887 L 165.221711 156.878892 L 165.559954 157.244665 L 165.898197 157.610438 L 166.236441 157.976211 L 166.576831 158.339979 L 166.918581 158.702477 L 167.260332 159.064974 L 167.602083 159.427472 L 167.948853 159.785159 L 168.296550 160.141957 L 168.644247 160.498755 L 168.994798 160.852437 L 169.380651 161.167582 L 169.766503 161.482727 L 170.152355 161.797871 L 170.532121 162.119965 L 170.895354 162.460934 L 171.258586 162.801904 L 171.621818 163.142874 L 172.019013 163.436305 L 172.459321 163.669385 L 172.899630 163.902465 L 173.339939 164.135545 L 173.806119 164.302651 L 174.287495 164.431007 L 174.768871 164.559362 L 175.250248 164.687718 L 175.738958 164.781369 L 176.231106 164.858753 L 176.723254 164.936138 L 177.215403 165.013523 L 177.711510 165.051911 L 178.209168 165.075028 L 178.706827 165.098145 L 179.204485 165.121263 L 179.701341 165.157102 L 180.197964 165.196651 L 180.694587 165.236199 L 181.191209 165.275748 L 181.689070 165.289932 L 182.187183 165.298927 L 182.685297 165.307923 L 183.183411 165.316918 L 183.680940 165.293736 L 184.178398 165.266655 L 184.675857 165.239574 L 185.173315 165.212493 L 185.670657 165.183360 L 186.167984 165.153973 L 186.665312 165.124587 L 187.162639 165.095200 L 187.660291 165.072047 L 188.157983 165.049676 L 188.655675 165.027304 L 189.153368 165.004933 L 189.651132 164.984240 L 190.148906 164.963752 L 190.646679 164.943264 L 191.144453 164.922776 L 191.642372 164.906264 L 192.140309 164.890223 L 192.638245 164.874182 L 193.136182 164.858141 L 193.634189 164.844492 L 194.132204 164.831112 L 194.630219 164.817733 L 195.128235 164.804353 L 195.626278 164.792060 L 196.124324 164.779883 L 196.622370 164.767705 L 197.120416 164.755527 L 197.618491 164.744623 L 198.116569 164.733842 L 198.614648 164.723062 L 199.112726 164.712281 L 199.610789 164.700829 L 200.108851 164.689319 L 200.606913 164.677808 L 201.104975 164.666298 L 201.603086 164.657206 L 202.101202 164.648302 L 202.599317 164.639398 L 203.097432 164.630495 L 203.595514 164.619890 L 204.093594 164.609170 L 204.591673 164.598451 L 205.089753 164.587731 L 205.587884 164.579826 L 206.086019 164.572081 L 206.584154 164.564336 L 207.082288 164.556592 L 207.580399 164.547417 L 208.078508 164.538176 L 208.576617 164.528936 L 209.074726 164.519695 L 209.572880 164.513313 L 210.071035 164.507030 L 210.569191 164.500747 L 211.067346 164.494465 L 211.565531 164.491449 L 212.063718 164.488512 L 212.561904 164.485574 L 213.060090 164.482637 L 213.558284 164.481440 L 214.056477 164.480264 L 214.554671 164.479089 L 215.052864 164.477914" fill="none" stroke="black" stroke-width="1.000000" />
	<path d="M 224.529419 160.014145 L 222.651523 160.180699 L 220.773625 160.347241 L 218.896486 160.522124 L 217.011729 160.560964 L 215.146755 160.290155 L 213.328227 159.794601 L 211.559598 159.142518 L 209.810725 158.438552 L 208.043401 157.782313 L 206.252142 157.194654 L 204.446462 156.652770 L 202.630772 156.145388 L 200.803775 155.680391 L 198.967240 155.254590 L 197.123119 154.862922 L 195.271693 154.507377 L 193.412837 154.192985 L 191.542992 153.953786 L 189.671807 153.726992 L 187.797394 153.525375" fill="none" stroke="black" stroke-width="1.000000" />
	<path d="M 204.008133 153.223389 L 205.833110 153.337887 L 207.654674 153.497644 L 209.472706 153.693534 L 211.269674 154.030639 L 213.043772 154.472966 L 214.786072 155.027310 L 216.489965 155.690415 L 218.160308 156.434246 L 219.801957 157.239527 L 221.417782 158.095490 L 222.973602 159.054819 L 224.529419 160.014145" fill="none" stroke="black" stroke-width="1.000000" />
	<path d="M 175.257141 121.884811 L 176.075261 123.629969 L 176.899207 125.372399 L 177.715202 127.118562 L 178.537022 128.861992 L 179.343539 130.612548 L 180.132733 132.370981 L 180.904209 134.137255 L 181.656988 135.911577 L 182.391448 137.693563 L 183.104669 139.484096 L 183.783109 141.288110 L 184.432180 143.102930 L 185.061827 144.924600 L 185.678298 146.750757 L 186.274645 148.583591 L 186.853591 150.422003 L 187.419639 152.264428 L 187.972594 154.110830 L 188.523637 155.957803 L 189.075472 157.804540" fill="none" stroke="black" stroke-width="1.000000" />
	<path d="M 198.674500 129.956299 L 199.174390 131.725481 L 199.681522 133.492601 L 200.190067 135.259315 L 200.696632 137.026598 L 201.182870 138.799576 L 201.641624 140.579860 L 202.072177 142.367172 L 202.469096 144.162250 L 202.822192 145.966454 L 203.145514 147.776242 L 203.457868 149.587963 L 203.733000 151.405675 L 204.008133 153.223389" fill="none" stroke="black" stroke-width="1.000000" />
	<path d="M 175.198684 18.340948 L 174.802345 18.636469 L 174.406006 18.931989 L 174.009666 19.227509 L 173.612344 19.521675 L 173.208714 19.807156 L 172.805083 20.092638 L 172.401453 20.378119 L 171.998881 20.665074 L 171.599194 20.956051 L 171.199507 21.247027 L 170.799821 21.538004 L 170.402719 21.832451 L 170.009482 22.132087 L 169.616245 22.431723 L 169.223008 22.731359 L 168.834613 23.037156 L 168.450456 23.348349 L 168.066300 23.659541 L 167.682143 23.970733 L 167.305109 24.290422 L 166.931605 24.614323 L 166.558101 24.938223 L 166.184597 25.262124 L 165.818976 25.594846 L 165.455294 25.929738 L 165.091613 26.264629 L 164.727931 26.599521 L 164.374959 26.945660 L 164.022672 27.292519 L 163.670385 27.639377 L 163.318984 27.987105 L 162.978826 28.345866 L 162.638667 28.704626 L 162.298509 29.063387 L 161.960952 29.424529 L 161.633409 29.794844 L 161.305867 30.165159 L 160.978325 30.535473 L 160.655169 30.909535 L 160.340528 31.290872 L 160.025887 31.672210 L 159.711246 32.053547 L 159.403080 32.440037 L 159.102127 32.832266 L 158.801174 33.224496 L 158.500221 33.616725 L 158.207424 34.014996 L 157.919931 34.417197 L 157.632439 34.819397 L 157.344947 35.221597 L 157.068390 35.631318 L 156.795677 36.043682 L 156.522964 36.456047 L 156.250251 36.868412 L 155.983692 37.284772 L 155.717950 37.701663 L 155.452208 38.118554 L 155.186683 38.535578 L 154.934341 38.960714 L 154.681999 39.385850 L 154.429656 39.810985 L 154.180108 40.237705 L 153.944821 40.672512 L 153.709533 41.107318 L 153.474245 41.542124 L 153.243900 41.979489 L 153.024741 42.422644 L 152.805581 42.865798 L 152.586421 43.308953 L 152.374695 43.755611 L 152.172347 44.206690 L 151.969999 44.657769 L 151.767651 45.108848 L 151.572146 45.562890 L 151.381618 46.019087 L 151.191090 46.475284 L 151.000562 46.931482 L 150.815300 47.389829 L 150.632113 47.849023 L 150.448926 48.308217 L 150.265739 48.767411 L 150.084337 49.227314 L 149.903234 49.687334 L 149.722131 50.147354 L 149.541027 50.607374" fill="none" stroke="black" stroke-width="1.000000" />
	<path d="M 29.718021 161.577484 L 29.481982 159.605564 L 29.329136 157.625458 L 29.126329 155.649844 L 29.006610 153.667460 L 28.888733 151.684964 L 28.746596 149.704060 L 28.546454 147.728177 L 28.289392 145.758890 L 27.976201 143.797746 L 27.615989 141.844692 L 27.237285 139.895137 L 26.837990 137.949695 L 26.422389 136.007671 L 25.985634 134.070295 L 25.518954 132.139910 L 25.021855 130.217134 L 24.497545 128.301599 L 23.950189 126.392521 L 23.385592 124.488470 L 22.813369 122.586696 L 22.231382 120.687888 L 21.647705 118.789598 L 21.056553 116.893623 L 20.458220 114.999901 L 19.861042 113.105815 L 19.266935 111.210764 L 18.671423 109.316153 L 18.074608 107.421952 L 17.476297 105.528224 L 16.874235 103.635685 L 16.269482 101.744004 L 15.663567 99.852694 L 15.064475 97.959213 L 14.471466 96.063818 L 13.883739 94.166778 L 13.314360 92.264154 L 12.739415 90.363201 L 12.172555 88.459822 L 11.669494 86.538633 L 11.199101 84.609156 L 10.763620 82.671504 L 10.352967 80.728432 L 9.972084 78.779309 L 9.617179 76.825287 L 9.290370 74.866372 L 8.993956 72.902629 L 8.739012 70.933081 L 8.502801 68.961185 L 8.320230 66.983629 L 8.193289 65.001725 L 8.113448 63.017357 L 8.102155 61.031444 L 8.161684 59.046394 L 8.267241 57.063227 L 8.433227 55.084222 L 8.646471 53.109732 L 8.901476 51.140195 L 9.193036 49.175733 L 9.526491 47.217953 L 9.906440 45.268668 L 10.332621 43.328967 L 10.800981 41.399011 L 11.306871 39.478547 L 11.848024 37.567718 L 12.437433 35.671237 L 13.084621 33.793705 L 13.778604 31.932942 L 14.520886 30.090919 L 15.341099 28.282327 L 16.252469 26.517961 L 17.287385 24.823285 L 18.419003 23.191454 L 19.616545 21.607249 L 20.895204 20.087858 L 22.238069 18.624823 L 23.634544 17.212834 L 25.081362 15.852473 L 26.569046 14.536891 L 28.110842 13.285258 L 29.708480 12.105767 L 31.333367 10.963924 L 32.992913 9.873133 L 34.685714 8.834693 L 36.413964 7.856429 L 38.178136 6.944568 L 39.971307 6.091084 L 41.795741 5.306728 L 43.649644 4.594831 L 45.531179 3.959585 L 47.433666 3.390025 L 49.353274 2.881101 L 51.288949 2.437238 L 53.237337 2.052924 L 55.196070 1.725350 L 57.159965 1.430004 L 59.127623 1.160833 L 61.100201 0.930627 L 63.076860 0.738565 L 65.057434 0.592496 L 67.041201 0.499631 L 69.026003 0.431037 L 71.011887 0.418095 L 72.997588 0.450048 L 74.980762 0.553699 L 76.960073 0.715692 L 78.937795 0.896743 L 80.911404 1.117870 L 82.880301 1.377681 L 84.843664 1.676434 L 86.801037 2.012220 L 88.754991 2.367496 L 90.704267 2.747554 L 92.649175 3.149395 L 94.590101 3.570056 L 96.526742 4.010022 L 98.459893 4.465094 L 100.386832 4.945739 L 102.303915 5.464222 L 104.218093 5.993467 L 106.132696 6.521176 L 108.052956 7.027861 L 109.974381 7.530165 L 111.895826 8.032396 L 113.817264 8.534649 L 115.740099 9.031524 L 117.665287 9.519196 L 119.595703 9.985698 L 121.531914 10.427516 L 123.473649 10.844392 L 125.420071 11.238814 L 127.371775 11.606175 L 129.330810 11.931999 L 131.298065 12.203583 L 133.280097 12.315415 L 135.263046 12.227574 L 137.223696 11.919792 L 139.174334 11.546981 L 141.118124 11.139870 L 143.053360 10.693925 L 144.971824 10.180996 L 146.882186 9.638195 L 148.743355 8.947631 L 150.574913 8.180138 L 152.408852 7.418022 L 154.255349 6.686936 L 156.123899 6.014477 L 157.998876 5.359778 L 159.888162 4.747817 L 161.801767 4.217387 L 163.732649 3.753294 L 165.678841 3.358426 L 167.639359 3.042563 L 169.611359 2.808939 L 171.592794 2.679678 L 173.577870 2.623944 L 175.562985 2.670012 L 177.541202 2.840009 L 179.511897 3.084960 L 181.467250 3.430468 L 183.411176 3.836639 L 185.347593 4.277486 L 187.272695 4.765182 L 189.181509 5.313000 L 191.057694 5.962994 L 192.914164 6.668262 L 194.741694 7.445109 L 196.526400 8.315460 L 198.308215 9.191620 L 200.072399 10.103510 L 201.835200 11.018167 L 203.599566 11.929690 L 205.369366 12.830445 L 207.156900 13.695127 L 208.956251 14.534219 L 210.777835 15.323907 L 212.621026 16.060180 L 214.487270 16.734692 L 216.381217 17.325363 L 218.299861 17.826372 L 220.242814 18.220041 L 222.205364 18.496324 L 224.181053 18.652248 L 226.163187 18.690747 L 228.145954 18.628741 L 230.128159 18.512896" fill="none" stroke="black" stroke-width="1.000000" />
	<path d="M 85.219438 28.872287 L 85.712680 28.874102 L 86.205922 28.875916 L 86.699163 28.877730 L 87.192405 28.879544 L 87.685365 28.896310 L 88.178325 28.913092 L 88.671284 28.929873 L 89.164244 28.946654 L 89.657487 28.946604 L 90.150732 28.946451 L 90.643977 28.946299 L 91.137222 28.946147 L 91.630155 28.928691 L 92.123084 28.911031 L 92.616013 28.893371 L 93.108941 28.875711 L 93.601150 28.843797 L 94.093346 28.811653 L 94.585543 28.779509 L 95.077740 28.747364 L 95.569204 28.705512 L 96.060654 28.663474 L 96.552105 28.621435 L 97.043555 28.579396 L 97.533786 28.524983 L 98.023989 28.470281 L 98.514191 28.415578 L 99.004393 28.360876 L 99.491286 28.282075 L 99.978088 28.202607 L 100.464889 28.123138 L 100.951690 28.043670 L 101.439055 27.967733 L 101.926432 27.891879 L 102.413810 27.816024 L 102.901187 27.740169 L 103.387687 27.658878 L 103.874164 27.577450 L 104.360641 27.496021 L 104.847118 27.414593 L 105.331602 27.322057 L 105.816032 27.229220 L 106.300461 27.136384 L 106.784891 27.043547 L 107.267885 26.943511 L 107.750859 26.843380 L 108.233834 26.743248 L 108.716808 26.643116 L 109.198514 26.537051 L 109.680213 26.430949 L 110.161911 26.324848 L 110.643552 26.218497 L 111.123548 26.104942 L 111.603543 25.991386 L 112.083539 25.877830 L 112.563513 25.764184 L 113.042736 25.647408 L 113.521958 25.530632 L 114.001180 25.413855 L 114.480377 25.296978 L 114.958431 25.175507 L 115.436485 25.054035 L 115.914539 24.932563 L 116.392578 24.811037 L 116.869659 24.685797 L 117.346739 24.560556 L 117.823819 24.435316 L 118.300898 24.310070 L 118.777772 24.184048 L 119.254647 24.058025 L 119.731521 23.932003 L 120.208395 23.805980" fill="none" stroke="black" stroke-width="1.000000" />
	<path d="M 29.718021 161.577484 L 31.635940 161.794305 L 33.555429 161.987339 L 35.483965 162.093600 L 37.413892 162.176057 L 39.345553 162.195081 L 41.277242 162.179939 L 43.208410 162.131843 L 45.138902 162.061471 L 47.068804 161.976230 L 48.998462 161.885614 L 50.928175 161.796428 L 52.858413 161.719174 L 54.788791 161.648353 L 56.720368 161.620715 L 58.652076 161.612578 L 60.583615 161.641911 L 62.514605 161.696739 L 64.444710 161.776472 L 66.373057 161.891417 L 68.299919 162.028884 L 70.229022 162.130486 L 72.156533 162.258853 L 74.085509 162.362985" fill="none" stroke="black" stroke-width="1.000000" />
	<path d="M 66.989777 151.469025 L 68.672080 151.485669 L 70.352316 151.568820 L 72.030268 151.690190 L 73.683765 151.988533 L 75.307782 152.423918 L 76.898571 152.968602 L 78.448141 153.620789 L 79.947680 154.380769 L 81.398756 155.230916 L 82.804098 156.154585 L 84.159596 157.150397 L 85.471190 158.203836 L 86.730470 159.318877 L 87.989830 160.433990" fill="none" stroke="black" stroke-width="1.000000" />
	<path d="M 45.606890 152.911019 L 47.492513 152.929797 L 49.377866 152.966691 L 51.260653 153.069786 L 53.137710 153.248274 L 55.005238 153.507499 L 56.856790 153.862190 L 58.691753 154.295396 L 60.510197 154.793618 L 62.311595 155.350407 L 64.096118 155.959257 L 65.865010 156.612286 L 67.621489 157.298211 L 69.396698 157.929648 L 71.214533 158.426077 L 73.049740 158.859093 L 74.880109 159.312529 L 76.720642 159.718887 L 78.582848 160.012448 L 80.457297 160.217071 L 82.336811 160.368992 L 84.220888 160.431178 L 86.104640 160.453058 L 87.989830 160.433990" fill="none" stroke="black" stroke-width="1.000000" />
	<path d="M 80.004127 59.694579 L 80.572102 61.578383 L 81.071434 63.481517 L 81.503420 65.401044 L 81.874448 67.333273 L 82.197852 69.274050 L 82.483697 71.220720 L 82.708478 73.175331 L 82.899171 75.133613 L 82.971118 77.099485 L 83.010555 79.066643 L 82.980562 81.033818 L 82.885487 82.998961 L 82.728803 84.960154 L 82.492188 86.913192 L 82.215458 88.861161 L 81.864489 90.796886 L 81.449939 92.720131 L 80.996665 94.634721 L 80.510974 96.541348 L 79.978262 98.435288 L 79.389678 100.312573 L 78.762303 102.177374 L 78.094733 104.028116 L 77.387162 105.863952 L 76.639725 107.683911 L 75.853186 109.487320 L 75.024743 111.271832 L 74.153519 113.035855 L 73.236579 114.776508 L 72.274852 116.492846 L 71.262892 118.179948 L 70.203225 119.837590 L 69.111982 121.474753 L 67.979292 123.083277 L 66.806988 124.663356 L 65.599675 126.216796 L 64.367983 127.751120 L 63.119230 129.271581 L 61.862694 130.785658 L 60.615260 132.307213 L 59.384894 133.842593 L 58.173370 135.392878 L 57.013679 136.981829 L 55.905962 138.607777 L 54.874719 140.282720 L 53.942140 142.014493 L 53.115488 143.798692 L 52.299418 145.586118 L 51.606098 147.425834 L 50.906621 149.263426 L 50.256126 151.119997 L 49.589073 152.970978" fill="none" stroke="black" stroke-width="1.000000" />
	<path d="M 66.989777 151.469025 L 68.177080 150.043788 L 69.354374 148.610275 L 70.522226 147.169060 L 71.656735 145.701532 L 72.765474 144.214405 L 73.852011 142.710976 L 74.917338 141.192446 L 75.962340 139.659858 L 76.987005 138.113603 L 77.999587 136.559369 L 79.003301 134.999397 L 79.997958 133.433633 L 80.983349 131.862025 L 81.957823 130.283628 L 82.920540 128.698029 L 83.872026 127.105665 L 84.812339 125.506673 L 85.740547 123.900620 L 86.662847 122.291197 L 87.582535 120.680260" fill="none" stroke="black" stroke-width="1.000000" />
	<path d="M 73.618187 114.086754 L 75.303715 114.973800 L 76.993125 115.853431 L 78.685253 116.727821 L 80.392460 117.572368 L 82.102154 118.411894 L 83.848049 119.172992 L 85.618929 119.874125 L 87.412059 120.516192 L 89.224238 121.102348 L 91.052018 121.637909 L 92.892559 122.127851 L 94.743216 122.578126 L 96.602138 122.992991 L 98.468402 123.373467 L 100.341474 123.718846 L 102.221158 124.026130 L 104.107359 124.290343 L 105.998951 124.512752 L 107.894660 124.696914 L 109.792992 124.852068 L 111.692632 124.990598 L 113.594140 125.099887 L 115.496995 125.182980 L 117.400811 125.239791 L 119.305040 125.281558 L 121.209488 125.311852 L 123.113481 125.362489 L 125.017610 125.408660 L 126.921759 125.454186 L 128.826121 125.489504 L 130.730528 125.522519 L 132.634593 125.493428 L 134.538044 125.451962 L 136.440941 125.370536 L 138.343323 125.276733" fill="none" stroke="black" stroke-width="1.000000" />
	<path d="M 14.450929 30.229536 L 12.559554 30.246763 L 10.668482 30.284518 L 8.780965 30.404200 L 6.961473 30.902278 L 5.243398 31.685768 L 3.690127 32.755937 L 2.396134 34.123581 L 1.419024 35.732542 L 0.873666 37.526938 L 0.718026 39.403357 L 0.989040 41.257075 L 1.536497 43.066910 L 2.262038 44.805228 L 3.253742 46.410638 L 4.454420 47.866823 L 5.840908 49.150846 L 7.349186 50.292187 L 8.857467 51.433529" fill="none" stroke="black" stroke-width="1.000000" />
	<path d="M 79.568212 55.188790 L 79.399021 54.719566 L 79.229829 54.250342 L 79.060638 53.781117 L 78.891253 53.311963 L 78.718914 52.843886 L 78.546574 52.375809 L 78.374235 51.907732 L 78.202853 51.439311 L 78.038116 50.968504 L 77.873380 50.497697 L 77.708643 50.026891 L 77.541177 49.557086 L 77.362036 49.091570 L 77.182895 48.626053 L 77.003754 48.160537 L 76.821677 47.696192 L 76.630981 47.235289 L 76.440284 46.774385 L 76.249588 46.313482 L 76.054467 45.854488 L 75.849906 45.399568 L 75.645346 44.944648 L 75.440785 44.489728 L 75.230173 44.037657 L 75.009908 43.590130 L 74.789643 43.142603 L 74.569378 42.695076 L 74.342381 42.251003 L 74.107258 41.811100 L 73.872136 41.371198 L 73.637013 40.931295 L 73.393015 40.496362 L 73.140788 40.066038 L 72.888561 39.635715 L 72.636333 39.205391 L 72.374494 38.780954 L 72.105822 38.360701 L 71.837150 37.940448 L 71.568478 37.520195 L 71.287249 37.108390 L 70.999216 36.701162 L 70.711184 36.293935 L 70.423151 35.886707 L 70.121867 35.489323 L 69.815186 35.095948 L 69.508506 34.702572 L 69.201826 34.309196 L 68.877434 33.930501 L 68.547799 33.556151 L 68.218164 33.181800 L 67.888530 32.807450 L 67.550414 32.440778 L 67.210579 32.075662 L 66.870744 31.710547 L 66.530909 31.345431 L 66.187651 30.983536 L 65.843961 30.622047 L 65.500271 30.260558 L 65.156582 29.899069 L 64.805244 29.545017 L 64.453458 29.191402 L 63.749888 28.484170" fill="none" stroke="black" stroke-width="1.000000" />
</svg>