<?xml version="1.0" encoding="utf-8" ?>
<svg baseProfile="full" height="462" version="1.1" viewBox="0,0,655,462" width="655" xmlns="http://www.w3.org/2000/svg" xmlns:ev="http://www.w3.org/2001/xml-events" xmlns:xlink="http://www.w3.org/1999/xlink">
	<path d="M 269.864979 333.556322 L 271.283616 334.761706 L 272.684990 335.987105 L 274.097353 337.199822 L 275.394197 338.533917 L 276.611117 339.942173 L 277.759656 341.406770 L 278.811878 342.941406 L 279.751154 344.547407 L 280.576714 346.214789 L 281.285916 347.934794 L 281.903727 349.690390 L 282.384000 351.486324 L 282.700005 353.319166 L 282.872730 355.171330 L 282.908560 357.031191 L 282.815043 358.889457 L 282.598147 360.737126 L 282.290023 362.573026 L 281.952492 364.402646 L 281.450155 366.191328 L 280.694264 367.890891 L 279.703504 369.464649 L 278.631106 370.975472 L 277.497253 372.448303" fill="none" stroke="black" stroke-width="1.000000" />
	<path d="M 62.032784 69.502457 L 63.283303 71.044092 L 64.531956 72.587239 L 65.755444 74.150411 L 66.964567 75.724722 L 68.155099 77.313138 L 69.309052 78.928313 L 70.441623 80.558560 L 71.524595 82.222146 L 72.557169 83.917472 L 73.543604 85.640056 L 74.477203 87.391828 L 75.362148 89.168679 L 76.197659 90.969301 L 76.985599 92.791242 L 77.731146 94.630943 L 78.432026 96.488116 L 79.089883 98.360962 L 79.696791 100.250919 L 80.254098 102.156093 L 80.761773 104.075088 L 81.242638 106.001007 L 81.658192 107.941991 L 82.032965 109.891318 L 82.374308 111.846782 L 82.681756 113.807858 L 82.952449 115.774340 L 83.172991 117.747048 L 83.338666 119.725109 L 83.466454 121.706015 L 83.553454 123.689122 L 83.612152 125.673290 L 83.637937 127.658148 L 83.633359 129.643173 L 83.606555 131.628034 L 83.548959 133.612224 L 83.467839 135.595606 L 83.368466 137.578162 L 83.251115 139.559734 L 83.115739 141.540156 L 82.962785 143.519299 L 82.794630 145.497211 L 82.612204 147.473857 L 82.416988 149.449284 L 82.209124 151.423418 L 81.986134 153.395899 L 81.748694 155.366694 L 81.501834 157.336336 L 81.249383 159.305270 L 80.987311 161.272944 L 80.717664 163.239596 L 80.445069 165.205843 L 80.171432 167.171946 L 79.903461 169.138827 L 79.637817 171.106026 L 79.375516 173.073673 L 79.126083 175.042983 L 78.893295 177.014328 L 78.683368 178.988225 L 78.501827 180.964922 L 78.351781 182.944253 L 78.236704 184.925912 L 78.157133 186.909315 L 78.112895 188.893820 L 78.106263 190.878797 L 78.137203 192.863546 L 78.202775 194.847464 L 78.302283 196.829968 L 78.435115 198.810520 L 78.597971 200.788842 L 78.787076 202.764836 L 79.001780 204.738212 L 79.243001 206.708519 L 79.511231 208.675330 L 79.806875 210.638205 L 80.130390 212.596678 L 80.483414 214.550040 L 80.863439 216.498342 L 81.269579 218.441366 L 81.705374 220.377938 L 82.167862 222.308328 L 82.653977 224.232909 L 83.163460 226.151435 L 83.695567 228.063812 L 84.245394 229.971185 L 84.801646 231.876709 L 85.359239 233.781841 L 85.924995 235.684556 L 86.505780 237.582729 L 87.106412 239.474704 L 87.729656 241.359345 L 88.376220 243.236113 L 89.047099 245.104321 L 89.742055 246.963711 L 90.461284 248.813843 L 91.205268 250.654159 L 91.973989 252.484280 L 92.768090 254.303527 L 93.588487 256.111064 L 94.435693 257.906189 L 95.306264 259.690121 L 96.197284 261.463931 L 97.108189 263.227613 L 98.040192 264.980229 L 98.992328 266.721999 L 99.964490 268.452666 L 100.957689 270.171342 L 101.972157 271.877550 L 103.006754 273.571635 L 104.062964 275.252313 L 105.140094 276.919676 L 106.236645 278.574330 L 107.352095 280.216307 L 108.485246 281.846123 L 109.633626 283.465255 L 110.795881 285.074457 L 111.972913 286.672876 L 113.166892 288.258665 L 114.379345 289.830370 L 115.611219 291.386893 L 116.862372 292.927967 L 118.132550 294.453395 L 119.421792 295.962745 L 120.728947 297.456618 L 122.054225 298.934425 L 123.397447 300.395951 L 124.758049 301.841306 L 126.135829 303.270301 L 127.531106 304.682206 L 128.943113 306.077395 L 130.372120 307.455147 L 131.820417 308.812592 L 133.286857 310.150443 L 134.768969 311.470917 L 136.265032 312.775576 L 137.772586 314.066954 L 139.290241 315.346446 L 140.819374 316.612183 L 142.360236 317.863626 L 143.912060 319.101445 L 145.476244 320.323594 L 147.054312 321.527752 L 148.644966 322.715262 L 150.248100 323.885836 L 151.866885 325.034645 L 153.500059 326.162951 L 155.144774 327.274367 L 156.801728 328.367435 L 158.471678 329.440545 L 160.154840 330.492798 L 161.850882 331.524179 L 163.558699 332.535945 L 165.278603 333.527010 L 167.010821 334.496397 L 168.754881 335.444311 L 170.510735 336.370192 L 172.277840 337.274430 L 174.055527 338.157674 L 175.843543 339.019832 L 177.641556 339.860926 L 179.449863 340.679654 L 181.267564 341.477336 L 183.093829 342.255199 L 184.928864 343.012139 L 186.772649 343.747500 L 188.625572 344.459499 L 190.487506 345.147617 L 192.357496 345.813530 L 194.235414 346.456739 L 196.121125 347.076732 L 198.014593 347.672591 L 199.915671 348.243734 L 201.823245 348.792817 L 203.736898 349.320295 L 205.656733 349.824827 L 207.582393 350.306624 L 209.513668 350.765434 L 211.449632 351.204070 L 213.389750 351.623929 L 215.334057 352.023962 L 217.284247 352.394077 L 219.236569 352.751937 L 221.192479 353.090154 L 223.152324 353.404589 L 225.114783 353.702473 L 227.079850 353.982952 L 229.046707 354.250919 L 231.015209 354.506300 L 232.984803 354.753315 L 234.956085 354.986335 L 236.928441 355.210042 L 238.902326 355.419972 L 240.877358 355.618549 L 242.853461 355.806537 L 244.831355 355.973887 L 246.809931 356.131804 L 248.790653 356.261446 L 250.771990 356.380193 L 252.754695 356.475520 L 254.738027 356.555566 L 256.721802 356.626007" fill="none" stroke="black" stroke-width="1.000000" />
	<path d="M 251.096427 337.030400 L 251.404059 338.930864 L 251.744879 340.825646 L 252.130815 342.711725 L 252.555875 344.589372 L 253.026185 346.456162 L 253.524192 348.315809 L 254.083791 350.157615 L 254.717077 351.975324 L 255.424383 353.765496 L 256.206076 355.524407 L 257.063056 357.247834 L 257.997231 358.930583 L 259.009818 360.567283 L 260.103133 362.151050 L 261.271207 363.680781 L 262.504730 365.158267 L 263.806968 366.575227 L 265.191809 367.910883 L 266.676111 369.134013 L 268.276608 370.198054 L 269.992640 371.069311 L 271.777349 371.731184 L 273.686124 371.898669 L 275.590293 372.104176 L 277.480865 372.465637" fill="none" stroke="black" stroke-width="1.000000" />
	<path d="M 56.124413 47.352558 L 56.688501 45.442598 L 57.289720 43.544000 L 57.905100 41.649944 L 58.583158 39.777413 L 59.309929 37.923245 L 60.082669 36.087759 L 60.930571 34.285765 L 61.827656 32.507741 L 62.794617 30.766734 L 63.816795 29.057559 L 64.895518 27.383498 L 66.034045 25.749522 L 67.222325 24.151362 L 68.472868 22.601441 L 69.770988 21.091140 L 71.129931 19.635330 L 72.538121 18.227098 L 73.999558 16.874206 L 75.508158 15.574112 L 77.058355 14.323909 L 78.654164 13.132478 L 80.288299 11.994181 L 81.961454 10.914057 L 83.668975 9.889122 L 85.406951 8.916724 L 87.177980 8.005918 L 88.976399 7.150463 L 90.803960 6.359179 L 92.656880 5.629247 L 94.532622 4.960141 L 96.431148 4.358725 L 98.348944 3.821912 L 100.284790 3.354362 L 102.235975 2.955641 L 104.200004 2.625955 L 106.174847 2.368863 L 108.157498 2.181256 L 110.145758 2.067593 L 112.136806 2.024859 L 114.128313 2.019282 L 116.117344 2.118268 L 118.101143 2.293275 L 120.077996 2.534409 L 122.044941 2.846201 L 124.000222 3.224305 L 125.943419 3.660292 L 127.870681 4.162028 L 129.782039 4.721316 L 131.673733 5.343866 L 133.544194 6.027571 L 135.394848 6.763215 L 137.220208 7.559536 L 139.021846 8.408172 L 140.796302 9.312259 L 142.543293 10.268343 L 144.266739 11.266256 L 145.959947 12.314642 L 147.627607 13.403220 L 149.264233 14.537912 L 150.870988 15.714525 L 152.452639 16.924683 L 154.000702 18.177507 L 155.523538 19.460890 L 157.012793 20.783081 L 158.471462 22.138946 L 159.903445 23.522972 L 161.300450 24.942283 L 162.673251 26.385033 L 164.014825 27.856856 L 165.327409 29.354594 L 166.612919 30.875634 L 167.863885 32.425202 L 169.089858 33.994628 L 170.283410 35.588842 L 171.448214 37.204184 L 172.585275 38.839174 L 173.689101 40.496777 L 174.771858 42.168231 L 175.824282 43.858939 L 176.853039 45.564158 L 177.855416 47.285013 L 178.824854 49.024632 L 179.777883 50.773307 L 180.698471 52.539263 L 181.600794 54.314633 L 182.474694 56.104157 L 183.312868 57.910682 L 184.145857 59.719624 L 184.944999 61.543752 L 185.742705 63.368528 L 186.549410 65.189342 L 187.293827 67.036431 L 188.050092 68.878763 L 188.824146 70.713692 L 189.613828 72.541951 L 190.379094 74.380556 L 191.122929 76.227939 L 191.966692 78.031680 L 192.833629 79.824594 L 193.740221 81.597760 L 194.675780 83.355832 L 195.613676 85.112674 L 196.580987 86.853472 L 197.592852 88.568731 L 198.680626 90.236785 L 199.828350 91.864228 L 201.042844 93.442433 L 202.357857 94.937697 L 203.767852 96.343768 L 205.240895 97.683846 L 206.755953 98.976327 L 208.293865 100.241592 L 209.850845 101.483325 L 211.418381 102.711720 L 212.994824 103.928667 L 214.579143 105.135341 L 216.164548 106.340593 L 217.747321 107.549300 L 219.325599 108.763869 L 220.902876 109.979738 L 222.481514 111.193840 L 224.061180 112.406605 L 225.643286 113.616184 L 227.227917 114.822453 L 228.814935 116.025580 L 230.405084 117.224565 L 231.997046 118.421143 L 233.590549 119.615668 L 235.187011 120.806235 L 236.782904 121.997565 L 238.380480 123.186637 L 239.977117 124.376970 L 241.565908 125.577749 L 243.153859 126.779645 L 244.739036 127.985197 L 246.316591 129.200699 L 247.891715 130.419357 L 249.465065 131.640305 L 251.036459 132.863768 L 252.606905 134.088448 L 254.176400 135.314346 L 255.746049 136.540048 L 257.315634 137.765831 L 258.884259 138.992842 L 260.452519 140.220321 L 262.020318 141.448387 L 263.588294 142.676229 L 265.156445 143.903846 L 266.724386 145.131732 L 268.292610 146.359256 L 269.860261 147.587511 L 271.426959 148.816983 L 272.992043 150.048508 L 274.554520 151.283338 L 276.115217 152.520418 L 277.675031 153.758611 L 279.234630 154.997075 L 280.793931 156.235914 L 282.352293 157.475935 L 283.910169 158.716566 L 285.467852 159.957439 L 287.025441 161.198429 L 288.582830 162.439672 L 290.139526 163.681782 L 291.695879 164.924323 L 293.251931 166.167240 L 294.807754 167.410446 L 296.363371 168.653908 L 297.918510 169.897968 L 299.473414 171.142320 L 301.027882 172.387219 L 302.582056 173.632484 L 304.136010 174.878023 L 305.689587 176.124034 L 307.242964 177.370293 L 308.795891 178.617113 L 310.348523 179.864300 L 311.900918 181.111783 L 313.452970 182.359692 L 315.004816 183.607857 L 316.556313 184.856455 L 318.107542 186.105387 L 319.658513 187.354640 L 321.209120 188.604343 L 322.759353 189.854512 L 324.309121 191.105256 L 325.858795 192.356116 L 327.409154 193.606128 L 328.961453 194.853729 L 330.518112 196.095884 L 332.081720 197.329276 L 333.654453 198.551007 L 335.236215 199.761026 L 336.821187 200.966847 L 338.406565 202.172134 L 339.992962 203.376080 L 341.576754 204.583449 L 343.158564 205.793415 L 344.738301 207.006087 L 346.315929 208.221501 L 347.892687 209.438044 L 349.465241 210.660013 L 351.033386 211.887636 L 352.596738 213.121356 L 354.152334 214.364834 L 355.698886 215.619543 L 357.238937 216.882228 L 358.776989 218.147352 L 360.313605 219.414218 L 361.849569 220.681877 L 363.387217 221.947491 L 364.924558 223.213478 L 366.458053 224.484120 L 367.990431 225.756110 L 369.514798 227.037679 L 371.035478 228.323630 L 372.557703 229.607754 L 374.078542 230.893518 L 375.596284 232.182936 L 377.109931 233.477157 L 378.619799 234.775786 L 380.127969 236.076387 L 381.633700 237.379811 L 383.137543 238.685414 L 384.640782 239.991712 L 386.141467 241.300942 L 387.641067 242.611416 L 389.138396 243.924483 L 390.633840 245.239697 L 392.129310 246.554883 L 393.621981 247.873242 L 395.114544 249.191725 L 396.605256 250.512300 L 398.097136 251.831556 L 399.589429 253.150344 L 401.080772 254.470207 L 402.573149 255.788901 L 404.063387 257.110010 L 405.553929 258.430778 L 407.042808 259.753418 L 408.530655 261.077221 L 410.019555 262.399839 L 411.505696 263.725555 L 412.990937 265.052280 L 414.477128 266.377942 L 415.963160 267.703782 L 417.451422 269.027117 L 418.939538 270.350618 L 420.432700 271.668417 L 421.933515 272.977491 L 423.444552 274.274744 L 424.971227 275.553533 L 426.504183 276.824825 L 428.046594 278.084612 L 429.594704 279.337405 L 431.149527 280.581852 L 432.710577 281.818480 L 434.278132 283.046851 L 435.851060 284.268338 L 437.424227 285.489521 L 439.003001 286.703437 L 440.584441 287.913886 L 442.173308 289.114557 L 443.767163 290.308609 L 445.365085 291.497213 L 446.974519 292.670150 L 448.591587 293.832568 L 450.215855 294.984900 L 451.842625 296.133709 L 453.468264 297.284116 L 455.092749 298.436154 L 456.714196 299.592460 L 458.331299 300.754833 L 459.942155 301.925843 L 461.545057 303.107712 L 463.139926 304.300400 L 464.727705 305.502514 L 466.309752 306.712165 L 467.885394 307.930145 L 469.457724 309.152405 L 471.029738 310.375071 L 472.601379 311.598218 L 474.172318 312.822265 L 475.743210 314.046373 L 477.308640 315.277450 L 478.876129 316.505908 L 480.445766 317.731624 L 482.019489 318.952086 L 483.595775 320.169240 L 485.173621 321.384370 L 486.755473 322.594279 L 488.340270 323.800329 L 489.930526 324.999165 L 491.525103 326.192253 L 493.123367 327.380398 L 494.727729 328.560288 L 496.339418 329.730149 L 497.957161 330.891627 L 499.576685 332.050629 L 501.198503 333.206416 L 502.821551 334.360478 L 504.447014 335.511132 L 506.075892 336.656948 L 507.709284 337.796315 L 509.347086 338.929336 L 510.990030 340.054886 L 512.637315 341.174074 L 514.266306 342.319574 L 515.911230 343.442022 L 517.589930 344.513160 L 519.286362 345.556311 L 521.031000 346.515309 L 522.798525 347.432859 L 524.571483 348.339914 L 526.348138 349.239706 L 528.128428 350.132287 L 529.912232 351.017822 L 531.699092 351.897176 L 533.489691 352.768889 L 535.283527 353.633924 L 537.081098 354.491166 L 538.881871 355.341667 L 540.685114 356.186919 L 542.492335 357.023621 L 544.302687 357.853537 L 546.116870 358.675037 L 547.934179 359.489605 L 549.753027 360.300737 L 551.576479 361.101438 L 553.403469 361.894055 L 555.234301 362.677748 L 557.068566 363.453378 L 558.903425 364.227609 L 560.743230 364.989972 L 562.586630 365.743637 L 564.433812 366.487972 L 566.285489 367.221052 L 568.136547 367.955706 L 569.992789 368.677102 L 571.852633 369.389224 L 573.715016 370.094675 L 575.583228 370.784490 L 577.448694 371.481709 L 579.317205 372.170722 L 581.186059 372.858850 L 583.057836 373.538963 L 584.934685 374.204945 L 586.812540 374.868121 L 588.694799 375.518649 L 590.578258 376.165652 L 592.465447 376.801701 L 594.355357 377.429574 L 596.248438 378.047871 L 598.144924 378.655621 L 600.043562 379.256614 L 601.945605 379.846792 L 603.849454 380.431083 L 605.755076 381.009638 L 607.662116 381.583515 L 609.567923 382.161465 L 611.473652 382.739597 L 613.377977 383.322424 L 615.283146 383.902466 L 617.190868 384.473882 L 619.101463 385.035572 L 621.015622 385.585154 L 622.933166 386.122775 L 624.852517 386.653888 L 626.774155 387.176795 L 628.694675 387.703777 L 630.613245 388.237551 L 632.524752 388.795694 L 634.428428 389.379267 L 636.315688 390.012871 L 638.185877 390.693604 L 640.022078 391.459227 L 641.819664 392.307891 L 643.556722 393.272308 L 645.220237 394.355660 L 646.763482 395.594843 L 648.160530 396.987683 L 649.395714 398.526755 L 650.476834 400.191354 L 651.383682 401.951425 L 652.167074 403.772910 L 652.876229 405.632368 L 653.518066 407.517334" fill="none" stroke="black" stroke-width="1.000000" />
	<path d="M 69.514618 50.874660 L 70.228753 49.074632 L 70.965128 47.283952 L 71.740232 45.510167 L 72.566562 43.760022 L 73.418921 42.021746 L 74.357641 40.328246 L 75.354754 38.668528 L 76.412374 37.046745 L 77.530755 35.466229 L 78.706855 33.928107 L 79.939473 32.434951 L 81.230482 30.991908 L 82.577549 29.601022 L 83.980747 28.266754 L 85.440393 26.994396 L 86.954402 25.787131 L 88.517669 24.644430 L 90.136792 23.582388 L 91.814386 22.615609 L 93.561140 21.780342 L 95.372997 21.097978 L 97.244347 20.601776 L 99.160086 20.322894 L 101.095752 20.296606 L 103.013903 20.557571 L 104.864910 21.124467 L 106.594123 21.994989 L 108.148850 23.148886 L 109.493661 24.541969 L 110.597481 26.132992 L 111.444621 27.874437" fill="none" stroke="black" stroke-width="1.000000" />
	<path d="M 201.368845 123.910457 L 200.888172 124.047583 L 200.407498 124.184710 L 199.926825 124.321836 L 199.446300 124.459438 L 198.972957 124.620053 L 198.499613 124.780667 L 198.026270 124.941282 L 197.552991 125.102080 L 197.080860 125.266225 L 196.608729 125.430370 L 196.136599 125.594514 L 195.664972 125.760037 L 195.198177 125.938791 L 194.731381 126.117545 L 194.264586 126.296299 L 193.798770 126.477478 L 193.338724 126.672947 L 192.878677 126.868415 L 192.418631 127.063884 L 191.958690 127.259600 L 191.499157 127.456272 L 191.039624 127.652945 L 190.580091 127.849618 L 190.123397 128.052490 L 189.674289 128.271928 L 189.225182 128.491366 L 188.776074 128.710804 L 188.330359 128.936820 L 187.891166 129.175484 L 187.451973 129.414148 L 187.012780 129.652811 L 186.579258 129.901362 L 186.151460 130.159896 L 185.723662 130.418430 L 185.295864 130.676964 L 184.874849 130.946181 L 184.458880 131.223346 L 184.042911 131.500511 L 183.626942 131.777675 L 183.219721 132.067325 L 182.817192 132.363671 L 182.414663 132.660018 L 182.012134 132.956364 L 181.619311 133.265308 L 181.230136 133.578984 L 180.840960 133.892661 L 180.451784 134.206337 L 180.074118 134.533659 L 179.699327 134.864389 L 179.324537 135.195120 L 178.949746 135.525851 L 178.587489 135.870193 L 178.227026 136.216483 L 177.866563 136.562773 L 177.506099 136.909063 L 177.159266 137.268973 L 176.813261 137.629710 L 176.467256 137.990447 L 176.121378 138.351301 L 175.790453 138.725920 L 175.459528 139.100539 L 175.128603 139.475158 L 174.798721 139.850662 L 174.482833 140.238045 L 174.166945 140.625428 L 173.851057 141.012810 L 173.537121 141.401723 L 173.236677 141.801202 L 172.936233 142.200682 L 172.635789 142.600162 L 172.338135 143.001658 L 172.053081 143.412261 L 171.768027 143.822864 L 171.482973 144.233467 L 171.201676 144.646571 L 170.932863 145.067986 L 170.664050 145.489401 L 170.395238 145.910816 L 170.131214 146.335151 L 169.879681 146.767102 L 169.628149 147.199054 L 169.376617 147.631006 L 169.130198 148.065810 L 168.894751 148.506735 L 168.659303 148.947661 L 168.423856 149.388586 L 168.195462 149.833078 L 167.979921 150.284069 L 167.764381 150.735060 L 167.548841 151.186052 L 167.339530 151.639887 L 167.139959 152.098168 L 166.940387 152.556450 L 166.740816 153.014731 L 166.548963 153.476192 L 166.367889 153.942092 L 166.186814 154.407992 L 166.005739 154.873892 L 165.832719 155.342745 L 165.669685 155.815260 L 165.506652 156.287776 L 165.343618 156.760291 L 165.189424 157.235666 L 165.044828 157.714145 L 164.900231 158.192625 L 164.755635 158.671104 L 164.622963 159.152871 L 164.501926 159.637846 L 164.380889 160.122821 L 164.259852 160.607796 L 164.147770 161.094842 L 164.043620 161.583722 L 163.939470 162.072602 L 163.835320 162.561481 L 163.742452 163.052522 L 163.658581 163.545286 L 163.574710 164.038050 L 163.490839 164.530814 L 163.420208 165.025519 L 163.359093 165.521620 L 163.297977 166.017720 L 163.236862 166.513821 L 163.186606 167.011059 L 163.143526 167.509050 L 163.100446 168.007041 L 163.057365 168.505031 L 163.029547 169.003966 L 163.010978 169.503471 L 162.992408 170.002977 L 162.973838 170.502482 L 162.967480 171.002209 L 162.967951 171.502060 L 162.968423 172.001910 L 162.968895 172.501760 L 162.977505 173.001502 L 162.990375 173.501187 L 163.003244 174.000872 L 163.016114 174.500557 L 163.040184 174.999767 L 163.069713 175.498744 L 163.099242 175.997722 L 163.128772 176.496700 L 163.171160 176.994674 L 163.219367 177.492195 L 163.267575 177.989715 L 163.315783 178.487236 L 163.375363 178.983467 L 163.439791 179.479148 L 163.504218 179.974829 L 163.568646 180.470510 L 163.643936 180.964609 L 163.723607 181.458069 L 163.803277 181.951530 L 163.882948 182.444990 L 163.974596 182.936310 L 164.070808 183.426814 L 164.167020 183.917318 L 164.263233 184.407821 L 164.371263 184.895805 L 164.483493 185.382894 L 164.595723 185.869982 L 164.707954 186.357070 L 164.831753 186.841299 L 164.959398 187.324577 L 165.087042 187.807855 L 165.214686 188.291133 L 165.353331 188.771329 L 165.495355 189.250578 L 165.637378 189.729827 L 165.779402 190.209077 L 165.931799 190.685093 L 166.087249 191.160157 L 166.242699 191.635221 L 166.398149 192.110285 L 166.564185 192.581716 L 166.733233 193.052113 L 166.902280 193.522511 L 167.071328 193.992908 L 167.248320 194.460353 L 167.427512 194.926980 L 167.606703 195.393608 L 167.785895 195.860235 L 167.973630 196.323466 L 168.163702 196.785768 L 168.353773 197.248071 L 168.543845 197.710373 L 168.743596 198.168545 L 168.945818 198.625664 L 169.148039 199.082782 L 169.350261 199.539900 L 169.558447 199.994323 L 169.767966 200.448142 L 169.977486 200.901962 L 170.187005 201.355782 L 170.408575 201.803797 L 170.632821 202.250524 L 170.857066 202.697250 L 171.081312 203.143977 L 171.314390 203.586138 L 171.549101 204.027456 L 171.783813 204.468774 L 172.018524 204.910091 L 172.260559 205.347427 L 172.503376 205.784337 L 172.746193 206.221248 L 172.989010 206.658158 L 173.245042 207.087434 L 173.502234 207.516040 L 173.759427 207.944645 L 174.016619 208.373251 L 174.278081 208.799263 L 174.539902 209.225056 L 174.801724 209.650850 L 175.063546 210.076643 L 175.337295 210.494858 L 175.611539 210.912759 L 175.885784 211.330659 L 176.160028 211.748559 L 176.444361 212.159661 L 176.728743 212.570730 L 177.013125 212.981799 L 177.297647 213.392771 L 177.584746 213.801946 L 177.871845 214.211122 L 178.158944 214.620298 L 178.447040 215.028746 L 178.749517 215.426688 L 179.051995 215.824630 L 179.354473 216.222572 L 179.657157 216.620356 L 179.962600 217.016026 L 180.268044 217.411697 L 180.573487 217.807367 L 180.880020 218.202173 L 181.196124 218.589380 L 181.512227 218.976586 L 181.828331 219.363793 L 182.144829 219.750676 L 182.463691 220.135615 L 182.782552 220.520554 L 183.101414 220.905493 L 183.420596 221.290165 L 183.741549 221.673362 L 184.062501 222.056559 L 184.383454 222.439756 L 184.709394 222.818647 L 185.041671 223.192067 L 185.373948 223.565488 L 185.706226 223.938908 L 186.043075 224.308157 L 186.384557 224.673178 L 186.726039 225.038199 L 187.067521 225.403221 L 187.411723 225.765664 L 187.757985 226.126155 L 188.104247 226.486645 L 188.450508 226.847136 L 188.802500 227.202014 L 189.155723 227.555687 L 189.508946 227.909359 L 189.862169 228.263032 L 190.219728 228.612309 L 190.578168 228.960693 L 190.936608 229.309077 L 191.295048 229.657461 L 191.659234 229.999814 L 192.024522 230.341012 L 192.389809 230.682210 L 192.755096 231.023407 L 193.125934 231.358545 L 193.497782 231.692581 L 193.869630 232.026617 L 194.241478 232.360653 L 194.617847 232.689573 L 194.995024 233.017579 L 195.372201 233.345585 L 195.749379 233.673592 L 196.130923 233.996501 L 196.512903 234.318901 L 196.894884 234.641301 L 197.276864 234.963700 L 197.663516 235.280474 L 198.050627 235.596695 L 198.437738 235.912916 L 198.824849 236.229137 L 199.216658 236.539510 L 199.608929 236.849306 L 200.001201 237.159103 L 200.393472 237.468899 L 200.787694 237.776208 L 201.182097 238.083286 L 201.576501 238.390364 L 201.970904 238.697442 L 202.369527 238.999013 L 202.768556 239.300056 L 203.167585 239.601098 L 203.566614 239.902141 L 203.968725 240.199049 L 204.371143 240.495546 L 204.773561 240.792043 L 205.175979 241.088541 L 205.581344 241.380991 L 205.987012 241.673025 L 206.392680 241.965060 L 206.798348 242.257094 L 207.207641 242.544020 L 207.617334 242.830379 L 208.027028 243.116738 L 208.436722 243.403098 L 208.849187 243.685447 L 209.261978 243.967323 L 209.674769 244.249199 L 210.087560 244.531076 L 210.503188 244.808746 L 210.919178 245.085879 L 211.335169 245.363011 L 211.751159 245.640144 L 212.170029 245.912900 L 212.589292 246.185056 L 213.008555 246.457213 L 213.427818 246.729369 L 213.848634 246.999116 L 214.269668 247.268524 L 214.690703 247.537932 L 215.111737 247.807340 L 215.534239 248.074439 L 215.956963 248.341189 L 216.379686 248.607939 L 216.802410 248.874688 L 217.228425 249.136140 L 217.654851 249.396931 L 218.081276 249.657722 L 218.507702 249.918513 L 218.935968 250.176267 L 219.364482 250.433611 L 219.792997 250.690954 L 220.221512 250.948298 L 220.650688 251.204537 L 221.079960 251.460615 L 221.509232 251.716694 L 221.938504 251.972772 L 222.369902 252.225248 L 222.801598 252.477220 L 223.233293 252.729191 L 223.664989 252.981163 L 224.097983 253.230895 L 224.531172 253.480290 L 224.964361 253.729685 L 225.397550 253.979080 L 225.832370 254.225618 L 226.267453 254.471694 L 226.702536 254.717769 L 227.137619 254.963845 L 227.573538 255.208437 L 228.009601 255.452773 L 228.445664 255.697108 L 228.881726 255.941444 L 229.319259 256.183133 L 229.757063 256.424336 L 230.194866 256.665539 L 230.632670 256.906742 L 231.072106 257.144952 L 231.511859 257.382583 L 231.951612 257.620213 L 232.391365 257.857844 L 232.832147 258.093556 L 233.273138 258.328880 L 233.714130 258.564204 L 234.155121 258.799528 L 234.596950 259.033274 L 235.038958 259.266682 L 235.480966 259.500091 L 235.922974 259.733499 L 236.365774 259.965402 L 236.808743 260.196981 L 237.251713 260.428560 L 237.694682 260.660138 L 238.138567 260.889956 L 238.582657 261.119378 L 239.026748 261.348800 L 239.470838 261.578222 L 239.915872 261.805805 L 240.361125 262.032962 L 240.806378 262.260120 L 241.251631 262.487277 L 241.697210 262.713794 L 242.142868 262.940157 L 242.588526 263.166519 L 243.034183 263.392881 L 243.481399 263.616144 L 243.929002 263.838635 L 244.376604 264.061127 L 244.824207 264.283618 L 245.272770 264.504165 L 245.721580 264.724211 L 246.170390 264.944257 L 246.619201 265.164302 L 247.066816 265.386764 L 247.514117 265.609861 L 247.961418 265.832959 L 248.408719 266.056056 L 248.858737 266.273598 L 249.309489 266.489637 L 249.760242 266.705676 L 250.210994 266.921715 L 250.661046 267.139209 L 251.110902 267.357108 L 251.560759 267.575006 L 252.010616 267.792905 L 252.460735 268.010259 L 252.910930 268.227458 L 253.361125 268.444657 L 253.811320 268.661855 L 254.263745 268.874350 L 254.716820 269.085476 L 255.169894 269.296602 L 255.622968 269.507729 L 256.073994 269.723185 L 256.524520 269.939696 L 256.975046 270.156207 L 257.425572 270.372718 L 257.877320 270.586662 L 258.329337 270.800043 L 258.781354 271.013425 L 259.233370 271.226806 L 259.684134 271.442817 L 260.134619 271.659415 L 260.585103 271.876013 L 261.035587 272.092611 L 261.484880 272.311665 L 261.933904 272.531274 L 262.382928 272.750884 L 262.831951 272.970494 L 263.281859 273.188285 L 263.731969 273.405659 L 264.182079 273.623033 L 264.632189 273.840407 L 265.082994 274.056337 L 265.533930 274.271992 L 265.984867 274.487646 L 266.435804 274.703301 L 266.887165 274.918064 L 267.338608 275.132656 L 267.790052 275.347248 L 268.241495 275.561839 L 268.694004 275.774173 L 269.146720 275.986065 L 269.599437 276.197958 L 270.052153 276.409850 L 270.505400 276.620606 L 270.958750 276.831140 L 271.412100 277.041673 L 271.865450 277.252207 L 272.319676 277.460843 L 272.774074 277.669105 L 273.228472 277.877368 L 273.682869 278.085630 L 274.138250 278.291733 L 274.593824 278.497410 L 275.049397 278.703088 L 275.504971 278.908765 L 275.961225 279.112928 L 276.417612 279.316795 L 276.873999 279.520662 L 277.330386 279.724529 L 277.787730 279.926235 L 278.245262 280.127519 L 278.702794 280.328803 L 279.160326 280.530087 L 279.618583 280.729713 L 280.076968 280.929048 L 280.535352 281.128383 L 280.993736 281.327719 L 281.452958 281.525115 L 281.912325 281.722175 L 282.371692 281.919234 L 282.831060 282.116294 L 283.291277 282.311356 L 283.751635 282.506091 L 284.211993 282.700825 L 284.672351 282.895559 L 285.133457 283.088512 L 285.594681 283.281187 L 286.055904 283.473862 L 286.517128 283.666537 L 286.979203 283.857157 L 287.441405 284.047474 L 287.903606 284.237792 L 288.365807 284.428109 L 288.828745 284.616626 L 289.291777 284.804913 L 289.754809 284.993200 L 290.217841 285.181487 L 290.681606 285.367960 L 291.145464 285.554205 L 291.609321 285.740450 L 292.073178 285.926696 L 292.537861 286.110867 L 293.002642 286.294797 L 293.467422 286.478726 L 293.932202 286.662655 L 294.397470 286.845347 L 294.862790 287.027907 L 295.328110 287.210467 L 295.793430 287.393027 L 296.259346 287.574058 L 296.725319 287.754945 L 297.191292 287.935831 L 297.657265 288.116717 L 298.123703 288.296402 L 298.590165 288.476023 L 299.056627 288.655643 L 299.523090 288.835264 L 299.989581 289.014810 L 300.456073 289.194353 L 300.922566 289.373895 L 301.389058 289.553438 L 301.856387 289.730791 L 302.323753 289.908046 L 302.791120 290.085300 L 303.258487 290.262554 L 303.725635 290.440383 L 304.192777 290.618229 L 304.659919 290.796075 L 305.127063 290.973914 L 305.594755 291.150309 L 306.062447 291.326704 L 306.530138 291.503100 L 306.997849 291.679445 L 307.466111 291.854319 L 307.934374 292.029193 L 308.402636 292.204067 L 308.870927 292.378863 L 309.339947 292.551695 L 309.808968 292.724527 L 310.277988 292.897359 L 310.747052 293.070069 L 311.216769 293.240999 L 311.686485 293.411929 L 312.156202 293.582859 L 312.625972 293.753641 L 313.096456 293.922448 L 313.566939 294.091255 L 314.037423 294.260062 L 314.507956 294.428731 L 314.979090 294.595715 L 315.450223 294.762700 L 315.921357 294.929684 L 316.392564 295.096459 L 316.864565 295.260975 L 317.336566 295.425492 L 317.808567 295.590009 L 318.280653 295.754281 L 318.753383 295.916692 L 319.226112 296.079103 L 319.698842 296.241514 L 320.171642 296.403719 L 320.644934 296.564484 L 321.118226 296.725249 L 321.591518 296.886014 L 322.064927 297.046432 L 322.539066 297.204681 L 323.013206 297.362929 L 323.487345 297.521178 L 323.961572 297.679162 L 324.436242 297.835812 L 324.910912 297.992461 L 325.385582 298.149110 L 325.860449 298.305158 L 326.336019 298.459053 L 326.811589 298.612947 L 327.287160 298.766842 L 327.762877 298.920278 L 328.239093 299.072163 L 328.715309 299.224049 L 329.191525 299.375934 L 329.667859 299.527447 L 330.144512 299.677956 L 330.621164 299.828464 L 331.097817 299.978973 L 331.574768 300.128525 L 332.052433 300.275791 L 332.530098 300.423057 L 333.007762 300.570322 L 333.485550 300.717187 L 333.963617 300.863143 L 334.441683 301.009099 L 334.919749 301.155055 L 335.398082 301.300130 L 335.876984 301.443322 L 336.355885 301.586514 L 336.834787 301.729707 L 337.313885 301.872236 L 337.793313 302.013656 L 338.272741 302.155076 L 338.752169 302.296495 L 339.231660 302.437702 L 339.711248 302.578576 L 340.190837 302.719450 L 340.670425 302.860324 L 341.150347 303.000051 L 341.630752 303.138117 L 342.111156 303.276183 L 342.591561 303.414248 L 343.072078 303.551920 L 343.552747 303.689062 L 344.033417 303.826204 L 344.514086 303.963346 L 344.994902 304.099968 L 345.475902 304.235947 L 345.956901 304.371926 L 346.437901 304.507905 L 346.918707 304.644562 L 347.399297 304.781981 L 347.879887 304.919401 L 348.360477 305.056821 L 348.840329 305.196774 L 349.319576 305.338805 L 349.798823 305.480836 L 350.278070 305.622867 L 350.756067 305.769003 L 351.233119 305.918243 L 351.710170 306.067484 L 352.187221 306.216724 L 352.664247 306.366047 L 353.141255 306.515427 L 353.618262 306.664807 L 354.095270 306.814187 L 354.571776 306.965154 L 355.047963 307.117128 L 355.524151 307.269102 L 356.000339 307.421076 L 356.479131 307.564485 L 356.959296 307.703383 L 357.439460 307.842281 L 357.919625 307.981179 L 358.396451 308.131131 L 358.873227 308.281250 L 359.350002 308.431369 L 359.826688 308.581772 L 360.302739 308.734172 L 360.778791 308.886571 L 361.254842 309.038971 L 361.730830 309.191568 L 362.206443 309.345331 L 362.682056 309.499095 L 363.157669 309.652858 L 363.633280 309.806626 L 364.108884 309.960417 L 364.584488 310.114208 L 365.060092 310.267999 L 365.535610 310.422053 L 366.010807 310.577096 L 366.486005 310.732138 L 366.961202 310.887181 L 367.436806 311.040950 L 367.913787 311.190418 L 368.390767 311.339886 L 368.867747 311.489353 L 369.344483 311.639590 L 369.820475 311.792177 L 370.296467 311.944763 L 370.772458 312.097350 L 371.248502 312.249773 L 371.724681 312.401776 L 372.200859 312.553778 L 372.677037 312.705781 L 373.153823 312.855839 L 373.631907 313.001737 L 374.109991 313.147635 L 374.588076 313.293532 L 375.066217 313.439243 L 375.544472 313.584579 L 376.022728 313.729915 L 376.500983 313.875251 L 376.979479 314.019789 L 377.458428 314.162820 L 377.937378 314.305851 L 378.416328 314.448881 L 378.895457 314.591310 L 379.374884 314.732730 L 379.854312 314.874151 L 380.333740 315.015571 L 380.813267 315.156653 L 381.292951 315.297203 L 381.772634 315.437754 L 382.252318 315.578304 L 382.731850 315.719368 L 383.211185 315.861103 L 383.690519 316.002839 L 384.169854 316.144574 L 384.649024 316.286866 L 385.127991 316.429837 L 385.606959 316.572808 L 386.085926 316.715780 L 386.565009 316.858362 L 387.044228 317.000490 L 387.523447 317.142618 L 388.002665 317.284745 L 388.481755 317.427306 L 388.960713 317.570310 L 389.439670 317.713314 L 389.918628 317.856318 L 390.397722 317.998866 L 390.876949 318.140964 L 391.356177 318.283061 L 391.835404 318.425159 L 392.314868 318.566456 L 392.794544 318.707032 L 393.274220 318.847608 L 393.753896 318.988184 L 394.233713 319.128275 L 394.713643 319.267983 L 395.193572 319.407692 L 395.673502 319.547400 L 396.153620 319.686456 L 396.633878 319.825030 L 397.114136 319.963604 L 397.594395 320.102179 L 398.074678 320.240666 L 398.554979 320.379092 L 399.035280 320.517517 L 399.515581 320.655943 L 399.996346 320.792741 L 400.477429 320.928425 L 400.958511 321.064109 L 401.439594 321.199793 L 401.920760 321.335180 L 402.401966 321.470425 L 402.883173 321.605671 L 403.364379 321.740916 L 403.846037 321.874538 L 404.327900 322.007422 L 404.809764 322.140306 L 405.291628 322.273190 L 405.774009 322.404178 L 406.256616 322.534335 L 406.739223 322.664492 L 407.221830 322.794650 L 407.704736 322.923693 L 408.187758 323.052302 L 408.670781 323.180911 L 409.153803 323.309520 L 409.637331 323.436205 L 410.121047 323.562180 L 410.604763 323.688155 L 411.088479 323.814129 L 411.572564 323.938674 L 412.056777 324.062725 L 412.540990 324.186777 L 413.025203 324.310828 L 413.509920 324.432889 L 413.994750 324.554504 L 414.479581 324.676120 L 414.964411 324.797735 L 415.449629 324.917790 L 415.934930 325.037515 L 416.420230 325.157240 L 416.905531 325.276965 L 417.391448 325.394157 L 417.877473 325.510906 L 418.363498 325.627655 L 418.849523 325.744404 L 419.335978 325.859349 L 419.822502 325.974001 L 420.309025 326.088654 L 420.795549 326.203307 L 421.282420 326.316475 L 421.769337 326.429446 L 422.256255 326.542416 L 422.743172 326.655387 L 423.230640 326.765953 L 423.718167 326.876263 L 424.205694 326.986573 L 424.693220 327.096883 L 425.180920 327.206426 L 425.668635 327.315900 L 426.156350 327.425375 L 426.644066 327.534849 L 427.132239 327.642262 L 427.620423 327.749627 L 428.108607 327.856991 L 428.596790 327.964356 L 429.084894 328.072083 L 429.572998 328.179811 L 430.061102 328.287539 L 430.549200 328.395293 L 431.036937 328.504669 L 431.524675 328.614045 L 432.012412 328.723422 L 432.500143 328.832824 L 432.987677 328.943103 L 433.475211 329.053381 L 433.962745 329.163660 L 434.450251 329.274061 L 434.937079 329.387415 L 435.423907 329.500769 L 435.910735 329.614123 L 436.397550 329.727533 L 436.884212 329.841599 L 437.370873 329.955665 L 437.857535 330.069731 L 438.344171 330.183905 L 438.830547 330.299185 L 439.316922 330.414466 L 439.803298 330.529746 L 440.289681 330.644994 L 440.776129 330.759968 L 441.262577 330.874941 L 441.749026 330.989914 L 442.235470 331.104902 L 442.721897 331.219967 L 443.208323 331.335033 L 443.694749 331.450099 L 444.181168 331.565198 L 444.667545 331.680470 L 445.153923 331.795742 L 445.640300 331.911014 L 446.126683 332.026266 L 446.613085 332.141434 L 447.099487 332.256602 L 447.585889 332.371771 L 448.072222 332.487229 L 448.558301 332.603753 L 449.044380 332.720277 L 449.530459 332.836801 L 450.016301 332.954297 L 450.501356 333.075011 L 450.986412 333.195724 L 451.471467 333.316438 L 451.956273 333.438141 L 452.440416 333.562461 L 452.924560 333.686782 L 453.408704 333.811103 L 453.893078 333.934512 L 454.378005 334.055743 L 454.862931 334.176975 L 455.347858 334.298206 L 455.832299 334.421332 L 456.315844 334.547963 L 456.799388 334.674594 L 457.282933 334.801225 L 457.766731 334.926876 L 458.250969 335.050830 L 458.735206 335.174784 L 459.219444 335.298738 L 459.703461 335.423546 L 460.187120 335.549737 L 460.670780 335.675928 L 461.154439 335.802119 L 461.638066 335.928436 L 462.121644 336.054940 L 462.605222 336.181444 L 463.088799 336.307949 L 463.572505 336.433960 L 464.056388 336.559291 L 464.540271 336.684622 L 465.024155 336.809952 L 465.508497 336.933479 L 465.993424 337.054706 L 466.478352 337.175933 L 466.963280 337.297160 L 467.448806 337.415935 L 467.935041 337.531806 L 468.421276 337.647678 L 468.907511 337.763549 L 469.393472 337.880558 L 469.879132 337.998817 L 470.364792 338.117075 L 470.850452 338.235333 L 471.337585 338.347178 L 471.826159 338.452753 L 472.314733 338.558328 L 472.803307 338.663904 L 473.292279 338.767608 L 473.781612 338.869604 L 474.270946 338.971599 L 474.760280 339.073595 L 475.250030 339.173555 L 475.740124 339.271836 L 476.230217 339.370116 L 476.720311 339.468396 L 477.211034 339.563439 L 477.702242 339.655985 L 478.193451 339.748531 L 478.684660 339.841076 L 479.174843 339.938812 L 479.664325 340.040092 L 480.153808 340.141372 L 480.643290 340.242651 L 481.134302 340.336026 L 481.626244 340.424594 L 482.118185 340.513161 L 482.610127 340.601729 L 483.101105 340.695407 L 483.591552 340.791909 L 484.081999 340.888410 L 484.572446 340.984912 L 485.062310 341.084310 L 485.551888 341.185125 L 486.041467 341.285939 L 486.531045 341.386754 L 487.021538 341.482973 L 487.512428 341.577196 L 488.003318 341.671418 L 488.494207 341.765640 L 488.981987 341.874461 L 489.468657 341.988494 L 489.955326 342.102527 L 490.441996 342.216561 L 490.930912 342.320371 L 491.420541 342.420939 L 491.910170 342.521507 L 492.399800 342.622075 L 492.888734 342.725952 L 493.377474 342.830758 L 493.866213 342.935564 L 494.354953 343.040371 L 494.844671 343.140480 L 495.334621 343.239472 L 495.824571 343.338464 L 496.314521 343.437456 L 496.806439 343.526043 L 497.298715 343.612732 L 497.790991 343.699421 L 498.283267 343.786109 L 498.774561 343.878182 L 499.265726 343.970959 L 499.756891 344.063737 L 500.248056 344.156514 L 500.740884 344.239956 L 501.233870 344.322510 L 501.726857 344.405063 L 502.219843 344.487616 L 502.714255 344.561114 L 503.208758 344.634037 L 503.703261 344.706960 L 504.197763 344.779884 L 504.693383 344.844764 L 505.189043 344.909353 L 505.684703 344.973942 L 506.180363 345.038531 L 506.676805 345.096804 L 507.173259 345.154982 L 508.166166 345.271337" fill="none" stroke="black" stroke-width="1.000000" />
	<path d="M 283.059357 357.282166 L 285.036166 357.349264 L 287.012723 357.423419 L 288.990460 357.451959 L 290.968116 357.485957 L 292.946031 357.496838 L 294.923978 357.497499 L 296.901880 357.484193 L 298.879348 357.440992 L 300.855966 357.368683 L 302.830329 357.250017 L 304.803008 357.105836 L 306.771900 356.917046 L 308.739128 356.711434 L 310.702653 356.473137 L 312.663039 356.210220 L 314.620483 355.926205 L 316.573938 355.615977 L 318.524838 355.290016 L 320.472231 354.943744 L 322.416537 354.580526 L 324.359071 354.207926 L 326.297771 353.815903 L 328.233424 353.409080 L 330.166624 352.990747 L 332.097658 352.562521 L 334.026553 352.124765 L 335.953494 351.678484 L 337.879198 351.226886 L 339.802889 350.766799 L 341.725881 350.303789 L 343.648335 349.838548 L 345.569620 349.368508 L 347.491749 348.901932 L 349.412599 348.430120 L 351.334514 347.962666 L 353.257645 347.500233 L 355.180585 347.037007 L 357.105848 346.583559 L 359.030501 346.127505 L 360.956772 345.678348 L 362.884729 345.236474 L 364.813778 344.799389 L 366.745997 344.376588 L 368.678895 343.956844 L 370.613954 343.547216 L 372.551194 343.148014 L 374.490266 342.757803 L 376.432046 342.381336 L 378.375458 342.013347 L 380.321322 341.658592 L 382.269508 341.316801 L 384.219895 340.987812 L 386.172794 340.674099 L 388.127808 340.373817 L 390.085244 340.089808 L 392.044947 339.821867 L 394.006827 339.570371 L 395.970919 339.336801 L 397.936963 339.120259 L 399.904925 338.921934 L 401.874543 338.740753 L 403.845686 338.577026 L 405.818265 338.431628 L 407.792090 338.304256 L 409.767164 338.198184 L 411.743260 338.113137 L 413.720193 338.050719 L 415.697760 338.013905 L 417.675642 338.004793 L 419.653328 338.031282 L 421.630115 338.096565 L 423.605977 338.186949 L 425.580885 338.296193 L 427.554790 338.422362 L 429.527651 338.563944 L 431.499547 338.718445 L 433.469293 338.897735 L 435.434916 339.117136 L 437.396511 339.370580 L 439.353947 339.654282 L 441.308036 339.960454 L 443.259203 340.284709 L 445.207031 340.628428 L 447.151530 340.990542 L 449.090296 341.381859 L 451.020558 341.813046 L 452.942888 342.278562 L 454.857740 342.773922 L 456.765034 343.297674 L 458.665387 343.846123 L 460.558750 344.418221 L 462.445687 345.011226 L 464.326512 345.623330 L 466.202062 346.251453 L 468.073142 346.892772 L 469.938639 347.550118 L 471.799261 348.221189 L 473.655790 348.903491 L 475.507782 349.598011 L 477.357163 350.299485 L 479.203631 351.008564 L 481.044532 351.731947 L 482.880095 352.468800 L 484.711152 353.216776 L 486.538033 353.974905 L 488.360777 354.742921 L 490.179319 355.520840 L 491.993615 356.308604 L 493.803055 357.107455 L 495.607447 357.917648 L 497.406238 358.740187 L 499.198060 359.577783 L 500.981816 360.432414 L 502.757537 361.303631 L 504.527056 362.187402 L 506.292545 363.079206 L 508.054967 363.977057 L 509.815806 364.878015 L 511.577306 365.777677 L 513.339376 366.676223 L 515.098532 367.580440 L 516.851636 368.496331 L 518.601241 369.418913 L 520.352293 370.338742 L 522.105527 371.254409 L 523.859684 372.168308 L 525.614367 373.081196 L 527.369225 373.993747 L 529.122963 374.908447 L 530.875220 375.825983 L 532.626620 376.745153 L 534.377041 377.666188 L 536.126484 378.589077 L 537.875271 379.513211 L 539.623657 380.438102 L 541.372058 381.362964 L 543.120760 382.287257 L 544.869505 383.211470 L 546.618411 384.135377 L 548.367978 385.058033 L 550.118241 385.979366 L 551.869222 386.899334 L 553.621099 387.817595 L 555.374099 388.733710 L 557.128703 389.646750 L 558.884894 390.556731 L 560.643083 391.462845 L 562.403301 392.365014 L 564.165239 393.263811 L 565.930598 394.155875 L 567.698395 395.043100 L 569.467941 395.926831 L 571.238260 396.809010 L 573.006671 397.695012 L 574.775751 398.579676 L 576.546242 399.461513 L 578.319124 400.338524 L 580.095467 401.208513 L 581.874397 402.073188 L 583.657891 402.928412 L 585.445279 403.775471 L 587.236395 404.614611 L 589.032180 405.443719 L 590.831866 406.264316 L 592.636004 407.075090 L 594.443307 407.878780 L 596.254858 408.672831 L 598.074108 409.448988 L 599.906586 410.193306 L 601.754162 410.899316 L 603.614907 411.569985 L 605.484883 412.214381 L 607.366701 412.823290 L 609.260996 413.392102 L 611.168763 413.913905 L 613.089650 414.385044 L 615.023011 414.802081 L 616.969825 415.150815 L 618.918705 415.487255 L 620.874559 415.778269 L 622.835499 416.030382 L 624.802969 416.223117 L 626.775059 416.361568 L 628.750457 416.436278 L 630.727168 416.452498 L 632.703184 416.402900 L 634.676826 416.292652 L 636.645139 416.111584 L 638.603282 415.850478 L 640.551314 415.521172 L 642.476933 415.079660 L 644.379413 414.554762 L 646.212292 413.839776 L 647.950683 412.943764 L 649.459711 411.749190 L 650.824559 410.365294 L 652.211731 408.964169 L 653.518066 407.517334" fill="none" stroke="black" stroke-width="1.000000" />
	<path d="M 87.541855 52.117496 L 87.146541 54.042643 L 86.439683 55.875814 L 85.482642 57.589778 L 84.201184 59.079712 L 82.823036 60.480859 L 81.371783 61.804833 L 79.766317 62.938193 L 78.090079 63.964053 L 76.354888 64.886927 L 74.579284 65.729233 L 72.757931 66.467642 L 70.905434 67.124249 L 69.034906 67.727535 L 67.146674 68.273078 L 65.251623 68.794199 L 63.339837 69.250273 L 61.417486 69.659597 L 59.487645 70.032078 L 57.552796 70.377542 L 55.611728 70.686082 L 53.663986 70.949343 L 51.712137 71.180150 L 49.756191 71.373177 L 47.796907 71.528744 L 45.835078 71.648006 L 43.871452 71.732751 L 41.906691 71.785021 L 39.941374 71.808813 L 37.975927 71.807954 L 36.010803 71.772079 L 34.046494 71.705355 L 32.083648 71.604147 L 30.122406 71.475830 L 28.163643 71.313782 L 26.207150 71.126703 L 24.254378 70.903806 L 22.304668 70.655888 L 20.359397 70.374940 L 18.417874 70.069593 L 16.481890 69.730557 L 14.551213 69.362892 L 12.630760 68.945673 L 10.729628 68.448140 L 8.833423 67.932798 L 6.945097 67.388447 L 5.064310 66.817983 L 3.190731 66.224602 L 1.319717 65.622910" fill="none" stroke="black" stroke-width="1.000000" />
	<path d="M 1.319717 65.622910 L 3.108333 64.890263 L 4.897599 64.159204 L 6.684006 63.421188 L 8.471800 62.686538 L 10.257063 61.945759 L 12.039594 61.198432 L 13.822719 60.452522 L 15.603724 59.701563 L 17.387054 58.956144 L 19.171689 58.213854 L 20.960231 57.481034 L 22.752343 56.756986 L 24.548797 56.043783 L 26.351494 55.346528 L 28.161122 54.667470 L 29.978424 54.009239 L 31.799868 53.362520 L 33.622908 52.720303 L 35.451645 52.094539 L 37.291362 51.501972 L 39.147399 50.963036 L 41.024445 50.503411 L 42.911585 50.085758 L 44.808050 49.713235 L 46.712307 49.382520 L 48.624541 49.102377 L 50.542590 48.864249 L 52.466213 48.678667 L 54.394027 48.540254 L 56.324623 48.456026 L 58.257181 48.438996 L 60.188966 48.487728 L 62.088560 48.747127 L 63.924888 49.349503 L 65.776125 49.897013 L 67.637675 50.413191 L 69.514618 50.874660" fill="none" stroke="black" stroke-width="1.000000" />
	<path d="M 277.497253 372.448303 L 276.584862 374.176394 L 275.671973 375.904220 L 274.756815 377.630857 L 273.842312 379.357837 L 272.932395 381.087245 L 272.027533 382.819295 L 271.123480 384.551767 L 270.232414 386.290962 L 269.335984 388.027399 L 268.447165 389.767740 L 267.569020 391.513493 L 266.701278 393.264433 L 265.848613 395.022772 L 265.004441 396.785204 L 264.170513 398.552502 L 263.348543 400.325401 L 262.530994 402.100339 L 261.723190 403.879733 L 260.924895 405.663416 L 260.134152 407.450460 L 259.349841 409.240335 L 258.574731 411.034215 L 257.806503 412.831053 L 257.045087 414.630788 L 256.291061 416.433632 L 255.544248 418.239477 L 254.804014 420.048028 L 254.069425 421.858879 L 253.342023 423.672630 L 252.621047 425.488945 L 251.903522 427.306626 L 251.183295 429.123238 L 250.461589 430.939263 L 249.778805 432.770275 L 249.132517 434.614480 L 248.569414 436.485716 L 248.114465 438.386081 L 247.703525 440.296540 L 247.554076 442.243961 L 247.498355 444.197232 L 247.924962 446.099349 L 248.886426 447.795266 L 249.524549 449.639215 L 249.631942 451.586402 L 250.553721 453.191819 L 252.491600 453.436297 L 254.444613 453.486596 L 256.395931 453.385605 L 258.338611 453.174778 L 260.272528 452.894248 L 262.201375 452.580632 L 264.131215 452.273341 L 266.068361 452.016460 L 268.016010 451.858041 L 269.969514 451.840550 L 271.865396 452.314300 L 271.730956 454.262493" fill="none" stroke="black" stroke-width="1.000000" />
	<path d="M 260.303101 362.619843 L 259.322191 364.305559 L 258.341957 365.991668 L 257.364689 367.679498 L 256.390278 369.368978 L 255.418992 371.060258 L 254.448938 372.752244 L 253.480275 374.445027 L 252.510704 376.137290 L 251.549736 377.834452 L 250.596589 379.536018 L 249.644780 381.238335 L 248.694965 382.941765 L 247.748099 384.646835 L 246.805235 386.354122 L 245.864023 388.062321 L 244.924974 389.771709 L 243.989344 391.482971 L 243.058260 393.196710 L 242.131502 394.912793 L 241.206621 396.629888 L 240.282165 398.347213 L 239.359365 400.065427 L 238.439322 401.785120 L 237.521546 403.506024 L 236.605518 405.227858 L 235.691483 406.950752 L 234.780045 408.675020 L 233.871282 410.400700 L 232.964300 412.127317 L 232.057757 413.854164 L 231.149678 415.580204 L 230.234849 417.302672 L 229.304609 419.016852 L 228.350292 420.717719 L 227.362220 422.399155 L 226.323380 424.049572 L 225.225430 425.661204 L 224.076339 427.236879 L 222.870136 428.769133 L 221.580181 430.230998 L 220.182809 431.589791 L 218.678718 432.829363 L 217.075830 433.938081 L 215.386794 434.910728 L 213.637923 435.772558 L 211.857843 436.569117 L 209.981906 437.074791 L 208.055252 437.370218 L 206.110493 437.498067 L 204.161087 437.480140 L 202.218345 437.318992 L 200.285073 437.063601 L 198.365492 436.720503 L 196.451159 436.347518 L 194.541354 435.952070 L 192.623410 435.598709 L 190.696947 435.294981 L 188.755346 435.117169 L 186.810074 435.190425 L 184.883402 435.378335 L 183.005956 435.825952 L 181.231464 436.554374 L 179.632643 437.595598 L 178.193487 438.871993 L 176.883453 440.312958" fill="none" stroke="black" stroke-width="1.000000" />
	<path d="M 242.590000 444.638421 L 243.578111 446.286373 L 245.018944 447.555600 L 246.822187 448.210001 L 248.737384 448.324726 L 250.654492 448.205487 L 252.567487 448.025554 L 254.479459 447.834589 L 256.390624 447.635721 L 258.300556 447.425355 L 260.207959 447.193293 L 262.110950 446.927655 L 264.006538 446.613833 L 265.899751 446.285431 L 267.808536 446.071051 L 269.727040 446.108688 L 271.606887 446.485819 L 273.367751 447.242060 L 274.866700 448.431626 L 275.873651 450.054936 L 275.750753 451.922839 L 275.364451 453.681948 L 274.605682 455.421387" fill="none" stroke="black" stroke-width="1.000000" />
	<path d="M 274.605682 455.421387 L 272.865560 456.318084 L 271.094750 457.152537 L 269.280491 457.887746 L 267.404575 458.447097 L 265.488767 458.848913 L 263.542438 459.058269 L 261.589123 459.186061 L 259.632517 459.124996 L 257.680688 458.975245 L 255.736039 458.750701 L 253.798762 458.469546 L 251.868956 458.141006 L 249.944582 457.782017 L 248.024583 457.400318 L 246.108112 457.001286 L 244.194331 456.589545 L 242.281738 456.172319 L 240.369442 455.753730 L 238.455397 455.343217 L 236.538629 454.945613 L 234.617254 454.570919 L 232.691056 454.221862 L 230.759073 453.906413 L 228.822414 453.621074 L 226.880557 453.373598 L 224.933581 453.170322 L 222.982008 453.017429 L 221.026821 452.921342 L 219.069597 452.886098 L 217.112332 452.918414 L 215.157867 453.027664 L 213.207906 453.199692 L 211.265532 453.442740 L 209.330330 453.737660 L 207.403577 454.083500 L 205.492090 454.505456 L 203.588248 454.960904 L 201.709274 455.509657 L 199.831009 456.061210 L 197.966692 456.658123 L 196.098675 457.243438 L 194.231339 457.830930 L 192.356093 458.392635 L 190.466673 458.904566 L 188.557707 459.337788 L 186.625751 459.652601 L 184.675655 459.821392 L 182.728203 459.663224 L 180.810740 459.365992 L 178.932668 458.867518 L 177.226132 457.984710 L 175.486092 457.106573 L 173.887207 455.982788" fill="none" stroke="black" stroke-width="1.000000" />
	<path d="M 173.887207 455.982788 L 175.323933 454.643862 L 176.823152 453.375309 L 178.387176 452.187572 L 180.055519 451.151489 L 181.799221 450.247989 L 183.632868 449.544855 L 185.526894 449.025966 L 187.460769 448.683949 L 189.406764 448.419563 L 191.365459 448.276742 L 193.327808 448.198694 L 195.290788 448.138588 L 197.254443 448.107534 L 199.218330 448.100520 L 201.182131 448.080821 L 203.145503 448.035321 L 205.108402 447.972666 L 207.069114 447.860968 L 209.026514 447.701435 L 210.977607 447.477703 L 212.919204 447.182771 L 214.847853 446.812538 L 216.759724 446.363683 L 218.648912 445.827376 L 220.507686 445.193721 L 222.331968 444.466706 L 224.122606 443.660329 L 225.856428 442.738330 L 227.508116 441.676396 L 229.062791 440.476965 L 230.524641 439.165883 L 231.893965 437.758406 L 233.080422 436.194383 L 234.132254 434.536306 L 235.095700 432.825128 L 235.980120 431.071774 L 236.821370 429.297209 L 237.639754 427.511959 L 238.438606 425.717883 L 239.220501 423.916349 L 239.996404 422.112222 L 240.772581 420.308212 L 241.553309 418.506167 L 242.342325 416.707736 L 243.140048 414.913151 L 243.945296 413.121930 L 244.758714 411.334404 L 245.581009 409.550945 L 246.412372 407.771695 L 247.252399 405.996518 L 248.100827 404.225342 L 248.957856 402.458311 L 249.823645 400.695556 L 250.698259 398.937164 L 251.581713 397.183195 L 252.474380 395.433899 L 253.374948 393.688655 L 254.283785 391.947704 L 255.201530 390.211432 L 256.128547 388.480093 L 257.064621 386.753634 L 258.009264 385.031848 L 258.963079 383.315127 L 259.933488 381.607746 L 260.910273 379.904053 L 261.900858 378.208361 L 262.904995 376.520670 L 263.924109 374.841977 L 264.963790 373.176037 L 266.022135 371.521972 L 267.093872 369.876343" fill="none" stroke="black" stroke-width="1.000000" />
	<path d="M 238.131119 426.421478 L 236.751676 427.806377 L 235.373524 429.192561 L 233.981637 430.564855 L 232.547488 431.889981 L 231.081458 433.179176 L 229.571647 434.420143 L 227.998673 435.579215 L 226.334712 436.604147 L 224.607117 437.515397 L 222.786625 438.218749 L 220.884580 438.667082 L 218.961974 439.019784 L 217.036916 439.357363 L 215.099771 439.617442 L 213.155269 439.815719 L 211.206320 439.964541 L 209.254770 440.074710 L 207.301827 440.156641 L 205.347936 440.211363 L 203.393452 440.238514 L 201.438786 440.245171 L 199.484135 440.234157 L 197.529616 440.208759 L 195.575268 440.172257 L 193.621038 440.129913 L 191.666842 440.085969 L 189.712606 440.043946 L 187.758224 440.009573 L 185.803635 439.991008 L 183.848972 439.994904 L 181.894620 440.029981 L 179.941188 440.098601 L 177.990256 440.218719 L 176.043811 440.397219 L 174.104787 440.643365 L 172.178163 440.972617 L 170.270918 441.400097 L 168.389785 441.930369 L 166.555194 442.604875 L 164.701372 443.224020 L 162.915218 444.017505 L 161.234348 445.015206 L 159.606821 446.097781" fill="none" stroke="black" stroke-width="1.000000" />
	<path d="M 160.538951 448.296918 L 160.413393 450.078486 L 161.006165 451.753985 L 162.094526 453.157008 L 163.492987 454.252640 L 165.072294 455.070947 L 166.764731 455.615645 L 168.522135 455.904582 L 170.304422 456.009183 L 172.089840 455.994109 L 173.875458 455.979034" fill="none" stroke="black" stroke-width="1.000000" />
	<path d="M 244.101919 439.321220 L 245.845805 439.582049 L 247.596545 439.791587 L 249.352755 439.948303 L 251.113980 440.026498 L 252.876448 440.079880 L 254.638584 440.142933 L 256.397266 440.263442 L 258.145757 440.482665 L 259.870924 440.836576 L 261.536098 441.395126 L 263.062689 442.253794 L 264.302978 443.476005 L 264.750310 445.150989 L 265.199799 446.834045" fill="none" stroke="black" stroke-width="1.000000" />
	<path d="M 56.124413 47.352558 L 57.236316 48.849935 L 58.569361 50.153909 L 59.925371 51.434415 L 61.733456 51.889724 L 63.596027 51.976587 L 65.459085 51.894119 L 67.311013 51.674654 L 69.145982 51.341831 L 70.981902 51.013414 L 72.831505 50.774831 L 74.685995 50.576706 L 76.545864 50.438269 L 78.410066 50.384537 L 80.274110 50.442161 L 82.124511 50.673485 L 83.953162 51.039636 L 85.737223 51.579130 L 87.521301 52.118629" fill="none" stroke="black" stroke-width="1.000000" />
	<path d="M 86.670013 29.178492 L 87.972803 30.523151 L 88.905552 32.143126 L 89.431762 33.922500 L 89.262767 35.786875 L 88.905741 37.624346 L 88.343486 39.409900 L 87.587101 41.122553 L 86.657240 42.747788 L 85.570749 44.272859 L 84.330299 45.675865 L 82.921449 46.908204 L 81.512543 48.140591" fill="none" stroke="black" stroke-width="1.000000" />
	<path d="M 86.635788 29.182467 L 86.604802 30.585914 L 86.564631 31.989124 L 86.515962 33.392062 L 86.462571 34.794835 L 86.406723 36.197513 L 86.348805 37.600107 L 86.308164 39.003302 L 86.280601 40.406791 L 86.265358 41.810476 L 86.261551 43.214260" fill="none" stroke="black" stroke-width="1.000000" />
	<path d="M 76.619789 37.065910 L 76.639271 38.874483 L 76.635893 40.683140 L 76.632393 42.491814 L 76.620783 44.300439 L 76.605785 46.109052 L 76.596893 47.917702 L 76.597404 49.726379" fill="none" stroke="black" stroke-width="1.000000" />
	<path d="M 86.635788 29.182467 L 86.434999 30.733847 L 86.242863 32.286320 L 86.096671 33.843636 L 86.001791 35.404845 L 85.959548 36.968300 L 85.964975 38.532417 L 86.016057 40.095665 L 86.117286 41.656606 L 86.261551 43.214260" fill="none" stroke="black" stroke-width="1.000000" />
	<path d="M 76.619789 37.065910 L 76.568710 38.874126 L 76.527869 40.682602 L 76.508099 42.491429 L 76.511629 44.300360 L 76.525268 46.109246 L 76.555300 47.917933 L 76.597404 49.726379" fill="none" stroke="black" stroke-width="1.000000" />
	<path d="M 81.835358 30.385540 L 82.054556 32.112436 L 82.306358 33.834867 L 82.687836 35.532921 L 83.203806 37.194981 L 83.859964 38.806823 L 84.548885 40.405438 L 85.263384 41.992788 L 86.009140 43.565697" fill="none" stroke="black" stroke-width="1.000000" />
	<path d="M 81.835358 30.385540 L 81.634878 31.993738 L 81.450675 33.603878 L 81.262344 35.213543 L 81.123626 36.828164 L 81.023222 38.445654 L 80.962108 40.065096 L 80.953202 41.685630 L 81.014622 43.304984 L 81.143750 44.920391 L 81.328145 46.530475 L 81.512543 48.140591" fill="none" stroke="black" stroke-width="1.000000" />
	<path d="M 87.541855 52.117496 L 89.276644 51.417805 L 91.002546 50.696824 L 92.728512 49.976303 L 94.414054 49.166009 L 96.056955 48.273006 L 97.646055 47.287985 L 99.168193 46.202917 L 100.612944 45.016718 L 101.972715 43.733955 L 103.239348 42.358898 L 104.416333 40.905519 L 105.512137 39.391060 L 106.471835 37.786069 L 107.321830 36.120089 L 108.073078 34.407085 L 108.748964 32.662883" fill="none" stroke="black" stroke-width="1.000000" />
</svg>