<?xml version="1.0" encoding="utf-8"?>
<!-- Generator: Adobe Adobe Illustrator 24.2.0, SVG Export Plug-In . SVG Version: 6.00 Build 0)  -->
<svg version="1.1" id="Layer_2" xmlns="http://www.w3.org/2000/svg" xmlns:xlink="http://www.w3.org/1999/xlink" x="0px" y="0px"
	 width="800px" height="800px" viewBox="0 0 800 800" style="enable-background:new 0 0 800 800;" xml:space="preserve">
<style type="text/css">
	.st0{fill:none;stroke:#000000;stroke-miterlimit:10;}
</style>
<path class="st0" d="M288,113.3c-4.4,0.6-7.3,4.9-8.7,9.1s-1.7,8.8-3.6,12.7c-1.9,4-6.2,7.4-12.2,7c0.2,2.4,0.4,4.8,0.6,7.2"/>
<path class="st0" d="M296.9,176.6c-6.2-9.3-7.9-20.9-8.3-32.1c-0.3-11.2,0.7-22.4-0.7-33.6"/>
<path class="st0" d="M273.8,137.6c2.6,2,6.9,1.2,8.7-1.6"/>
<path class="st0" d="M263.4,182c8.8,3.7,19.5,2.8,27.3-2.9c-5.7,11.4-13.3,21.9-22.4,30.8"/>
<path class="st0" d="M294.1,192.6c5.7-11.7,8.3-25.1,7.2-38.1"/>
<path class="st0" d="M294.5,192.8c26.7-1.2,53.1-8.2,76.8-20.4"/>
<path class="st0" d="M296.3,177c-5.4-17.8-2-38.1,8.9-53.2"/>
<path class="st0" d="M286.8,111.5c-2.8-6.3-3-13.8-0.5-20.2c1.5-4,4.2-7.7,8-9.5c6.7-3.1,14.9,0.6,19.7,6.3
	c4.8,5.7,7.2,12.9,10.5,19.6c3.3,6.6,8.3,13.2,15.5,15"/>
<path class="st0" d="M291.9,92.7c6.6,0,12.6,4.1,17.4,8.7c4.7,4.7,8.6,10.2,13.7,14.5c5.1,4.3,11.8,7.4,18.3,5.9"/>
<path class="st0" d="M317.3,92.3c11.6-3.3,24.6,1.1,33.4,9.4c8.8,8.3,13.9,19.9,16.3,31.8c2.4,11.9,2.3,24.1,2.2,36.1"/>
<path class="st0" d="M263.7,148.2c0.1,1.4,0.4,2.7,0.1,4c-0.1,0.3-0.2,0.7-0.2,1c-0.1,0.6-0.3,1.1-0.6,1.6c-0.4,0.8-1,1.5-1.3,2.3
	c-0.3,0.9,0,1.6,0.6,2.3c0.5,0.6,1.1,0.9,1.2,1.9c0,1-0.7,2-1.3,2.7c-0.4,0.5-0.7,0.9-0.8,1.5c0,0.6,0.2,1.2,0.6,1.6
	c1,1.1,1.5,2.5,1.8,4c0.3,1.4,0.7,3,0.3,4.5c-0.2,0.7-0.3,1.5-0.5,2.2c-0.1,0.5-0.3,1-0.4,1.5c-0.1,0.8-0.5,2.4,0.6,2.8"/>
<path class="st0" d="M307.4,220.3c2.1-13.4,12.5-25.1,25.6-28.7c7.9-2.2,16.3-1.6,24.6-1.7c15.2-0.2,30.3-2.8,44.7-7.7"/>
<path class="st0" d="M398.6,186.1c25.4-16.6,54.4-27.5,84.4-31.9c5.6-0.8,11.2-1.4,16.8-2c8.5-0.9,17-1.8,25.5-2.7"/>
<path class="st0" d="M405.4,210.7c33.4-26.8,75.2-42.8,117.9-45.1"/>
<path class="st0" d="M336.5,230.2c9.9-6.9,21.7-10.6,33.5-13.3c11.8-2.7,23.8-4.4,35.4-7.7"/>
<path class="st0" d="M394.4,209.7c10.8,1.5,22.2-3.5,28.3-12.5"/>
<path class="st0" d="M418.5,204.5c10.8-9.1,22.9-16.5,35.8-22.1"/>
<path class="st0" d="M436.2,193.5c18-12.6,39.4-20.3,61.4-21.9"/>
<path class="st0" d="M424.5,173c25.7-14,55.7-17.3,84.8-20.3"/>
<path class="st0" d="M523.2,158.8c0.1,2.5,0.2,5.1,1,7.5c0.8,2.4,2.3,4.7,4.5,5.9c2.3,1.2,5.1,1.1,7.5,2.1c3.4,1.4,5.5,4.8,8.5,6.8"
	/>
<path class="st0" d="M540.3,178.2c3.1,2.4,5.3,5.9,8,8.8s6.2,5.6,10.1,5.6"/>
<path class="st0" d="M559.5,192.2c-5-6.6-9.5-13.6-12.9-19.6c5.4,4.2,11.6,7.1,17.5,10.4c5.9,3.3,11.7,7.3,15.4,13"/>
<path class="st0" d="M555,170.3c12.4,4.4,23,13.8,28.8,25.6"/>
<path class="st0" d="M575.1,191.9c2.5,1.5,5,3,7.5,4.6"/>
<path class="st0" d="M579.1,186.9c3,1.6,6.1,2.9,9.3,3.9c0.6,0.2,1.6,0.2,1.8-0.4C590.2,190.1,590.1,189.8,579.1,186.9z"/>
<path class="st0" d="M559,167c6.3,5.5,13.1,10.4,20.4,14.6c3.4,1.9,7,3.7,10,6.2"/>
<path class="st0" d="M522.4,149.4c6.6-1.2,13.3,1,19.4,3.7c13,5.7,25,13.6,35.3,23.2"/>
<path class="st0" d="M519.8,165.5c-3.3-1.1-6.9-0.9-10.4-0.5c-12.3,1.4-24.6,3.9-36.5,7.4"/>
<path class="st0" d="M279,196.7c-16.8,5.1-32.4,14.4-44.8,26.9"/>
<path class="st0" d="M282.8,191.9c-16.6,5.4-31.9,14.6-44.4,26.6"/>
<path class="st0" d="M455.1,183.1c-15.3,6.5-29.6,15.4-44.5,26.5c-6.6,1.3-13.4,1.7-20.2,1.4"/>
<path class="st0" d="M420.2,200.9c-4,3-8.1,5.9-12.1,8.9"/>
<path class="st0" d="M398.5,213.1c-19,2-37.6,7.1-54.8,15.2"/>
<path class="st0" d="M385.3,215.9c-16.6,1.7-32.9,6.8-53.4,19.8c-8.6,14.4-21.5,26.2-35.2,33c-9.9,5.8-18.4,14.1-24.6,23.8"/>
<path class="st0" d="M276.7,296.7c3.1-5.6,6.2-11.2,6.8-16.9C281.2,283.9,278.8,288,276.7,296.7z"/>
<path class="st0" d="M285.8,282.3c-3.3,5.7-6.6,11.5-9.8,17.2"/>
<path class="st0" d="M223.3,286.5c3.2,9.2,6.4,18.3,9.5,27.5"/>
<path class="st0" d="M222.2,270.2c5.3,14.2,4.7,31.1,14.5,42.6"/>
<path class="st0" d="M229.3,347.2c0,6.8,0.4,13.6,1.5,20.3c0.4,2.8,1,5.7,2.5,8.2c1.5,2.4,4.2,4.3,7.1,4"/>
<path class="st0" d="M304.2,302.6c-5,3.1-10.1,6.2-14.3,10.3c-4.2,4.2-7.4,9.6-7.8,15.5"/>
<path class="st0" d="M312,321.8c2.9-0.4,5.9-0.7,8.8-1.1"/>
<path class="st0" d="M359.4,315c-13.7,2.1-27.4,3.8-35.7,7c21.6-6.1,44.1-8.9,66.5-8.3"/>
<path class="st0" d="M452.4,323.6c25.4-15.8,57.2-16.4,87-14.6"/>
<path class="st0" d="M250.6,212.5c-0.6-10.3-4.3-20.3-10.4-28.6"/>
<path class="st0" d="M246.9,205.8c-9.4-21.8-21.9-42.3-37.1-60.6"/>
<path class="st0" d="M220.2,155.8c-11.2-10.9-20.9-23.3-28.9-36.8"/>
<path class="st0" d="M203.4,137.3c-5.8-7.9-9.8-17.2-11.6-26.9"/>
<path class="st0" d="M184.3,75.1c2.2,15.6,4.9,31.1,9.4,48.2c-4.9-28.7-11.6-57.2-19.8-85.2"/>
<path class="st0" d="M217.3,119c-3.1-9.3-6.2-18.5-9.2-27.8"/>
<path class="st0" d="M213.8,110.2c-6.6-27.2-16.8-53.5-30.2-78"/>
<path class="st0" d="M220.2,118.3c2,3,4,6.1,6,9.1"/>
<path class="st0" d="M256.7,164.5c-13.6-13.3-25.9-28.1-32.6-39.9C233.9,139.4,245.7,152.9,256.7,164.5z"/>
<path class="st0" d="M258.4,164.3c-14.1-12.3-26.8-26.3-34.7-37.5c2.6,3.1,5.2,6.1,7.8,9.2"/>
<path class="st0" d="M246.1,156.7c5.5,5.2,10.9,10.6,15.9,16.3"/>
<path class="st0" d="M281,193.2c-3.7-3.1-7.3-6.2-10.9-9.8"/>
<path class="st0" d="M247.1,154.1c5.6,7.3,11.5,14.5,17.5,21.4"/>
<path class="st0" d="M281.5,192.1c-2.7-2.4-5.4-4.8-9.5-7.6C275.5,186.7,278.9,188.9,281.5,192.1z"/>
<path class="st0" d="M288,113.5c-3.6,1-6.7,3.4-8.5,6.7c-1.5,2.8-2.1,5.9-2.7,9c-0.6,3.1-1.4,6.3-3.2,8.8c-1.9,2.6-5.1,4.3-11.5,4.4
	c1.3,4.1,2.6,8.6,0.7,12.4c-0.5,1-1.2,2-1.5,3.1c-0.3,1.1,0.1,2.5,1.2,2.9"/>
<path class="st0" d="M282.4,135.6c-1.2,1.7-3.4,2.2-5.4,2.2c-2,0-4.1-0.6-5.4-2.1"/>
<path class="st0" d="M278,126.1c2.4,1.2,4.6,2.7,6.6,4.4C284.5,130.8,284.4,131,278,126.1z"/>
<path class="st0" d="M278.9,122.8c2.5,2.6,4.3,5.9,5.3,9.4"/>
<path class="st0" d="M263.8,169.5c0.6,2.6-0.5,5.3-0.9,8c-0.4,2.7,0.2,6,2.8,7c1.3,0.5,2.7,0.3,4,0.1c2.8-0.5,5.5-0.9,8.3-1.4
	c2.4-0.4,4.9-0.8,7.2-1.7c4.7-1.9,8.5-5.6,12-9.2"/>
<path class="st0" d="M129.1,27.6c1.4,1.9,4.1,2.4,6.5,2.2s4.7-0.9,7.1-0.8c4.1,0.2,8,2.7,12,1.9c2.5-0.5,4.5-2.3,6.7-3.5
	c2.2-1.2,5.2-1.9,7.1-0.3"/>
<path class="st0" d="M179.1,45.4c0.9-6.6-2.9-13.6-8.9-16.5"/>
<path class="st0" d="M128.2,28.1c4.9-5.4,14.1-4,19.7-8.6"/>
<path class="st0" d="M110.6,25.7c10.5-1.5,20.6-7.7,31-5.8"/>
<path class="st0" d="M144.3,10.7c-8.5,6.2-21.3,4.2-29.2,11.2"/>
<path class="st0" d="M173.8,12.8C162,12,150.2,10.7,142.8,8c-6.1,1.4-12.2,2.8-18.2,4.2"/>
<path class="st0" d="M192.8,48.8c-3.2-9.4-7-18.6-11.5-27.5"/>
<path class="st0" d="M358.4,200.8c-6.8,3-13.6,5.9-20.1,9.4c-1.4,0.8-2.9,1.6-4.1,2.7c-1.3,1.3-2.2,2.9-3.1,4.4
	c-3.1,4.9-7.1,9.2-11.9,12.5"/>
<path class="st0" d="M306.2,223.6c-0.4,2.9-1.4,5.6-1.8,8.5c-0.4,2.9-0.1,6,1.7,8.3c2,2.4,5.4,3.2,8.6,2.9c5-0.4,9.6-3,13.6-6.1
	c4-3,7.7-6.6,12-9.2"/>
<path class="st0" d="M523.4,157.4c1.8,3.5-0.2,8.1,1.8,11.5c1.8,2.9,5.8,3.3,8.9,4.7c4.9,2.2,7.9,7.1,11.8,10.8
	c3.6,3.5,8.2,6,13.1,7.3"/>
<path class="st0" d="M559,192.4c-1.8-8.3-10.8-13.2-13.2-21c3.8,5.1,10.5,6.9,16.3,9.5c7.8,3.5,14.7,8.9,20.9,14.9"/>
<path class="st0" d="M555.1,170.5c4.2,3.2,9.6,4.2,14,7c3.2,2.1,5.7,5,8.1,8c2.7,3.4,5.1,7,7.4,10.7"/>
<path class="st0" d="M576.6,186.1c4.8,1.9,9.6,3.4,14.6,4.6"/>
<path class="st0" d="M559.6,166.6c4.6,3.7,9.2,7.5,14.4,10.4c2.3,1.3,4.7,2.4,7,3.7c4.7,2.8,8.5,6.7,12.4,10.6"/>
<path class="st0" d="M524.4,149.9c10,0.4,19.7,3.8,28.5,8.8c8.7,4.9,16.5,11.4,23.9,18.2"/>
<path class="st0" d="M336.8,230.2c-10,18.3-28.5,30-45.8,41.5c-5.4,3.6-11.3,8-12.4,14.4"/>
<path class="st0" d="M286,274.6c-2.4,7.3,0.1,15.9,6.1,20.7c1.9,1.5,4,2.7,6.1,4c7.1,4.7,12.3,12.1,14.4,20.3"/>
<path class="st0" d="M302.6,303.4c-6.6,0.3-11.5,6.4-14,12.6c-5.1,12.4-4.6,26.6-0.4,39.3c4.3,12.7,12,24,20.9,33.9"/>
<path class="st0" d="M283.3,193.3c-11.7,5.9-23.1,12.2-34.4,18.8c-7.9,4.6-16.1,10-19.4,18.5c-3.1,8-1.2,17-2.4,25.5
	c-0.8,5.9-3.1,11.6-3.6,17.6c-0.6,7.1,1.2,14.1,2.5,21.1c3.8,20.4,2.8,41.4,4.8,62.1c0.7,6.6,1.9,13.8,6.9,18.2"/>
<path class="st0" d="M252.3,209.2c-0.4,1.9-0.8,3.7-1.1,5.6c-0.1,0.7-0.3,1.4,0.1,2c0.3,0.5,0.9,0.9,1.4,1.1c11,5.2,24.2,0.8,34.3-6
	c10.1-6.8,18.5-15.9,28.7-22.2c7.6,0.1,15.2,0.2,22.8,0.5"/>
<path class="st0" d="M247.5,210c-11.9-35.8-44.2-61.8-56.6-97.5c-9.6-27.7-6.7-59.6-22.2-84.5"/>
<path class="st0" d="M279,194.1c-3.9-2.6-7.4-5.9-10.4-9.5"/>
<path class="st0" d="M262.5,175.5c-15.1-16.7-29.2-34.3-42.2-53c-7.9-24.4-16.6-48.5-26.1-72.3c-5-12.5-10.3-25.1-18.3-36.1"/>
<path class="st0" d="M172.7,30.7c-1.3-3.1-4.3-5.9-7.7-5.5c-1.3,0.2-2.5,0.8-3.7,1.4c-1.8,0.9-3.6,1.8-5.4,2.8
	c-1.1,0.6-2.3,1.2-3.6,1.4c-1.8,0.3-3.7-0.2-5.5-0.7c-5.7-1.3-11.6-1.6-17.4-0.6c-0.3-0.6-1-0.9-1.5-1.4c-0.5-0.4-0.9-1.2-0.6-1.8
	c0.1-0.2,0.4-0.4,0.6-0.5c1.2-0.7,2.7-0.5,4.1-0.5c1.6-0.1,3.1-0.5,4.7-0.9c5.5-1.5,11.1-2.9,16.6-4.4"/>
<path class="st0" d="M107.2,24.5c3.4,1.2,7.2,0.2,10.7-0.9c1.7-0.5,3.4-1,5.2-1.5c4-1.2,8.1-2.4,12.2-2.3"/>
<path class="st0" d="M130.3,18.9c5.3,0.4,10.7,0.9,16,1.3c2.3,0.2,4.6,0.4,6.9-0.1"/>
<path class="st0" d="M107.8,24.5c4.5-3,9.5-5.5,14.4-7.9c2.4-1.2,5-2.4,7.7-2"/>
<path class="st0" d="M128.3,14.7c3.2,0.3,6.5-0.5,9.6-1.2c3.2-0.8,6.5-1.5,9.7-2.3"/>
<path class="st0" d="M112.2,22.1c-2.7,1.3-6,1.1-8.3-0.5c2.1-1.6,4.8-2,7.3-2.8c1.3-0.4,2.6-1,3.9-1.6c3.4-1.6,6.8-3.1,9.6-4.5
	c3-1.8,6.7-1.6,10.2-1.8c2.8-0.2,5.6-0.7,8.4-1.7c10,2,20.2,3.2,30.4,3.5"/>
<path class="st0" d="M236,373.3c3.6,4.3,8.3,7.4,13.2,10.1c15.4,8.5,32.6,13.6,49.8,14.5c2.3-0.1,4.5-1.3,6.1-2.9
	c1.6-1.7,2.7-3.7,3.7-5.8"/>
<path class="st0" d="M238.6,376.5c-11.2,26.6-11.5,56.4-8.9,85.1c2.5,28.7,7.7,57.3,6.7,86.1"/>
<path class="st0" d="M235.8,542.6c0.1,9.1,3.1,17.8,4.1,26.8c1.7,16.2-3.5,32.3-8.1,47.9c-6.9,23-12.7,46.3-17.7,69.8"/>
<path class="st0" d="M299.6,397.6c1.5,48-16.2,94.3-24.2,141.7"/>
<path class="st0" d="M277.4,526.4c2.1,23.3,4.2,47-1.5,69.7c-7.9,31.3-29.8,57.4-39.2,88.3"/>
<path class="st0" d="M214.9,681.6c-2.1,17.6-4.2,35.4-3.4,53.1s4.6,35.7,13.2,49.5c2.9,3.5,9.1,1.9,11.6-2c2.4-3.9,2.2-8.8,1.8-13.3
	c-0.9-9.3-2.1-18.6-1.7-27.9c0.4-9.3,2.6-18.8,8.1-26.4c2.5-3.4,5.8-6.9,5.4-11.2c-0.4-4.2-4.2-7.1-7.6-9.7
	c-1.9-1.5-3.7-3.1-4.8-5.3s-1.1-5,0.4-6.8"/>
<path class="st0" d="M237.3,686.8c-9.9,13.4-12.8,30.7-12.8,47.3c0,9.8,0.3,20.9-6.6,27.8"/>
<path class="st0" d="M307.1,316.3c15.1,6.2,32.2,1.2,48.4-0.9c30.1-3.9,60.4,2.7,90,9.2"/>
<path class="st0" d="M306.2,387.6c51.3-0.5,101.5-13.6,152.5-26.5c21.3-7.2,43.3-12.4,65.6-15.5c8.9-1.2,17.9-2.2,26.7-4.3
	c34.4-8.3,62.3-34.1,96.3-44.3"/>
<path class="st0" d="M442.5,324.5c24.8-8.9,50.5-16.5,76.8-17.7c10.2-0.5,20.4,0.1,30.5,0.9c10.7,0.9,22.1,2,29.2-3.4
	c13.5-2.5,25.4-10.4,36.2-18.9c10.8-8.5,20.9-18,33-24.7c11.9-6.6,25.4-10.3,39-10.6"/>
<path class="st0" d="M644.3,298.4c12.5-6.8,23.9-15.6,33.6-26.1c5.7-6.1,11.1-14.1,9.2-22.2"/>
<path class="st0" d="M614.3,285.9c10.6-8.1,23.3-14.4,36.6-14.1c2.8,0.1,5.9,0.7,7.4,3c1.3,2.1,0.7,4.8-0.2,7.1
	c-2.8,7.2-8.4,13.3-15.4,16.7"/>
<path class="st0" d="M245.1,521.9c4.8,5.4,9.7,10.8,12.8,17.3c5.5,11.4,4.9,24.6,4.2,37.2"/>
<path class="st0" d="M433.2,341.1c12.7-8.9,28.4-13.5,43.9-13"/>
<path class="st0" d="M442.3,357.6c15.6-1.1,30.7-7.9,41.9-18.7"/>
<path class="st0" d="M335.6,190.7c-12.3,5-22.7,14.6-28.6,26.5"/>
<path class="st0" d="M305.8,221.6c-1.4,3.6-2.6,7.2-2.9,11c-0.4,3.8,0.2,7.8,2.2,11"/>
<path class="st0" d="M307.6,216.2c-1.6,4.6-2.9,9.4-3.8,14.2c-0.4,2.4-0.8,4.9-0.4,7.3c0.4,2.4,1.7,4.8,3.8,6
	c3.2,1.9,7.3,0.7,10.7-0.9c6.8-3,13-7.2,18.5-12.2"/>
<path class="st0" d="M304.5,229.9c0.6-7.8,5.4-14.6,10-20.9c3-4.2,6.2-8.4,10.4-11.3"/>
<path class="st0" d="M309.9,215.5c3.7-6.8,9.2-12.6,15.9-16.5"/>
<path class="st0" d="M305.9,242.1c2,1.7,4.8,2.1,7.4,1.8s5-1.5,7.3-2.7c9.4-5.2,17.5-13,27.9-15.7"/>
<path class="st0" d="M338.1,229.6c-12.9,17.4-31.4,29.6-49.5,41.5"/>
<path class="st0" d="M321.3,250.1c-14.8,9.3-29.2,19.3-43.2,29.8"/>
<path class="st0" d="M288.3,272.8c-5.7,3.2-10.1,8.7-11.9,15"/>
<path class="st0" d="M286.6,277.7c0,4.5,0.1,9.1,1.8,13.2c1.7,4.1,5.4,7.8,9.8,8"/>
<path class="st0" d="M295.2,296.9c8.5,3.5,15.2,11.2,17.4,20.1"/>
<path class="st0" d="M288.4,314.1c2.3-6.2,8.3-10.9,13.2-11.4c-7.8,4.8-13.9,12.4-17,21c-3.1,8.6-3.2,18.3-0.2,27"/>
<path class="st0" d="M287.5,320.2c-3.7,7.9-4.3,17-2.8,25.6c1.5,8.6,5,16.8,9.1,24.4"/>
<path class="st0" d="M284.7,330.4c-2.5,10.6-0.2,21.9,4.5,31.7c4.7,9.8,11.7,18.3,19,26.3"/>
<path class="st0" d="M226.5,257.1c-2.6,10.2-3.3,20.8-2.2,31.2c0.8,7.6,2.6,15.1,3.5,22.6c1.4,11.6,0.9,23.3,2.7,34.4
	c-2.5,10.7-0.7,23.1,7.3,30.8c2.3,2.2,5.1,4,7.9,5.5c7.2,4,15,7.1,23,9.2"/>
<path class="st0" d="M241.4,376.6c16.9,12.5,37.4,20,57.9,22.5c4.6-1.2,8.5-5,11.6-15.1c30.1,2.6,60.7,0.2,90-7"/>
<path class="st0" d="M306.4,386.2c40.5-0.9,80.8-6.7,119.9-17.4"/>
<path class="st0" d="M348,385.4c37.9-4.3,75.4-12,111.9-23"/>
<path class="st0" d="M418.9,372.5c17.7-5.5,35.8-10,54-13.4"/>
<path class="st0" d="M462.6,361.9c21-8.8,43.4-14.2,66.1-16.2"/>
<path class="st0" d="M504.4,348.6c32.2-3.8,63.9-11.9,94.1-23.9"/>
<path class="st0" d="M539.8,345.3c25.6-7.7,49.9-20.1,71.2-36.4"/>
<path class="st0" d="M569.7,336.6c21.1-10.1,41.4-21.7,60.8-34.8"/>
<path class="st0" d="M591,323.5c16-11.6,33.6-20.9,52.1-27.8"/>
<path class="st0" d="M556,308.4c18.3-1.5,36.2-6.9,52.3-15.7"/>
<path class="st0" d="M578.2,303.7c16.7-5,32.5-13.4,46-24.5"/>
<path class="st0" d="M587.1,302.5c12.7-5,24.7-11.9,35.6-20.2"/>
<path class="st0" d="M614.4,286.9c9.6-6.5,19.7-13.1,31.2-14.8c3.8-0.6,8.3-0.3,10.6,2.8"/>
<path class="st0" d="M628.3,276.2c8.1-3.8,17.5-4.5,26-1.9c1.1,0.3,2.3,0.8,3.1,1.6c1.9,1.9,1.7,5.1,0.8,7.6
	c-1.5,4.3-4.3,8.1-8.1,10.8"/>
<path class="st0" d="M617.1,285.3c13.5-15.2,31.5-26.2,51.1-31.4c3.5-0.9,7.1-1.7,10.7-1.3c3.6,0.4,7.2,2,9.3,4.9"/>
<path class="st0" d="M626.4,276.9c12-11.9,27.1-20.7,43.5-25.3c2.4-0.7,5-1.2,7.4-0.4c2.7,1,4.5,3.8,5.1,6.6
	c0.6,2.9,0.1,5.8-0.5,8.7"/>
<path class="st0" d="M650.4,295.5c8.7-5.7,17.5-11.4,24.6-18.8c7.2-7.5,12.7-16.9,13.6-27.3"/>
<path class="st0" d="M683.4,259.7c-9.7,15.5-21.9,30.7-42.3,39.1c-15.4,5.4-29.9,13.3-42.8,23.4"/>
<path class="st0" d="M436.4,340.1c11.8-7.3,26-10.8,39.9-9.7"/>
<path class="st0" d="M576.2,307.4c-22.8,2.1-45.9,1.1-68.4-3.1"/>
<path class="st0" d="M519.3,305.1c-25.2-1.6-50.8,5.2-72,18.9"/>
<path class="st0" d="M446.6,326.3c17.1-13,39.4-16.6,65.6-20.1C489.5,307.2,467,314,446.6,326.3z"/>
<path class="st0" d="M471.7,359.2c16-5.7,32.8-9,49.8-9.5"/>
<path class="st0" d="M489.6,354.1c17.9-2.6,35.7-5.9,53.3-9.7"/>
<path class="st0" d="M499.7,350.4c16.2-2.8,32.5-5.5,48.7-8.3"/>
<path class="st0" d="M452.1,321.6c14.9-8.8,33-9.9,53.7-11.9c17.1-3.3,34.6-3.8,51.9-1.6"/>
<path class="st0" d="M310.2,314.9c-2.7-0.5-5.3-1.1-8-1.6c13.2,4.3,27.1,6.7,41,6.9"/>
<path class="st0" d="M307.6,316.5c30.8,8.4,64.4-7.4,95.1,1.5"/>
<path class="st0" d="M329.6,319.7c9.9-3.1,20.6-1.8,31.1-2.3c8.6-0.4,17.2-2.1,25.8-2.2c18.9-0.1,37.1,7.5,56,8.8"/>
<path class="st0" d="M318.2,318.2c13.8,2.5,27.7-1.5,41.6-3.1c27.4-3.2,54.9,2.9,81.8,8.9c0,0-1.7,2.3-2.5,2.9
	c-20.6-6.7-42.1-10.9-63.8-12.5"/>
<path class="st0" d="M300.1,398.8c2,44.4-11,87.9-20.1,131.4"/>
<path class="st0" d="M276.6,531.5c6.3-20.4,11.4-41.1,15.4-62c4-21.1,6.9-42.6,9.1-68.6C299.4,442.7,293,484.4,276.6,531.5z"/>
<path class="st0" d="M237.9,378.5c-13.4,46.6-6,96.4,1.5,144.3"/>
<path class="st0" d="M234.4,386.2c-5.5,23.9-6.1,48.8-4.2,73.3c1,12.5,2.7,25,3.8,37.5c1.7,20.3,1.8,40.6,2,61"/>
<path class="st0" d="M236.5,518.6c-0.3,14.1,0.2,28.3,1.8,42.4"/>
<path class="st0" d="M234.7,503.3c0,14.5-0.1,29.1,2.7,43.3c1.1,5.3,2.5,10.5,3.2,15.8c1.4,10.8-0.2,21.8,0.2,32.7"/>
<path class="st0" d="M267,625.5c12.8-28.2,17-60.3,11.5-87.3C284.4,570.4,277.9,604.7,267,625.5z"/>
<path class="st0" d="M269.4,620.9c-12.4,17.1-22.1,36.2-28.7,56.3"/>
<path class="st0" d="M263.1,635.8c-13.4,16.8-22.4,37.1-25.7,58.3"/>
<path class="st0" d="M239.7,590.2c-7,29.4-14.9,58.6-23.7,87.6"/>
<path class="st0" d="M230.2,623.4c-11.7,35.8-23.5,73-18.5,110.3"/>
<path class="st0" d="M210.7,721.8c0,15.6,2.7,31.2,8,45.8"/>
<path class="st0" d="M239.8,765.9c-4.3-7.7-4.9-17.1-3.3-25.7c1.6-8.7,5.3-16.8,9.1-24.8c1.9-3.9,3.9-8.3,2.9-12.5
	c-1.2-5.4-6.6-8.6-11.5-11.2c-8.6,15.3-12.6,32.1-12.5,48.8c0,3.9,0.2,7.9-0.9,11.7c-1.2,3.7-4.2,7.2-7.5,6.3
	c-0.3,10.6,3.9,21.3,11.3,28.8c1,1,2.1,2,3.5,2.4c2.7,0.6,5.3-1.4,6.6-3.8C239,783.2,239.4,780.4,239.8,765.9z"/>
<path class="st0" d="M246.9,521.2c10.1,14.5,15.2,32.4,14.3,50.1"/>
<path class="st0" d="M251.5,210.2c-0.9,3.2-1.6,7.1,0.9,9.3c1.4,1.2,3.3,1.5,5.2,1.6c10.2,0.4,20.3-3.2,29.1-8.5
	c8.8-5.3,16.4-12.3,24-19.2"/>
<path class="st0" d="M285.5,191.9c-12.9,6.6-25.5,13.9-37.7,21.8c-5.2,3.4-10.4,6.9-14.3,11.7c-3.9,4.8-6.5,11-5.6,17.1"/>
<path class="st0" d="M227.7,238c-0.1,12.8-1.3,25.6-3.6,38.2"/>
<path class="st0" d="M225.3,264.6c-1.8,17.3-1,34.9,2.4,52"/>
<path class="st0" d="M224.7,304.8c6.4,14.1,6.1,30.2,5.8,45.6"/>
<path class="st0" d="M226.9,260.8c-6.3,16.8-3.3,36.7,7.5,50.9"/>
<path class="st0" d="M226.4,298.3c4.4,16,6.5,32.7,6.3,49.3"/>
<path class="st0" d="M228.1,313.4c2.6,18,2.6,36.5-0.1,54.5"/>
<path class="st0" d="M253.1,208.7c-0.3,2.7-0.6,5.4-0.9,8.2c-0.1,0.9-0.2,1.8,0.1,2.6c0.6,1.7,2.4,2.5,4.1,3
	c6,1.6,12.5,0.4,18.1-2.2c5.7-2.6,10.6-6.4,15.3-10.5c5.5-4.7,10.7-9.8,15.7-15"/>
<path class="st0" d="M284.7,192.9C273,197.5,262,204,252.3,212"/>
<path class="st0" d="M291.1,178.7c-5,11.2-11.8,21.6-20.1,30.7"/>
<path class="st0" d="M299.3,191.1c1.9-11.9,2.6-24,3.2-36.1C302.3,169,299.8,183,299.3,191.1z"/>
<path class="st0" d="M294.8,193.1c4.7-10.9,7.1-22.7,6.1-37.2c5.6-1.7,10.4-6.1,12.7-11.6"/>
<path class="st0" d="M297.2,175c-10.5-18.2-5.1-41.6-12.1-60.9c1.6,15.2,4.1,30.3,7.4,45.3C293.8,165,295.5,171.1,297.2,175z"/>
<path class="st0" d="M299.1,128.8c1.5-2.4,3-4.7,4.5-7.1c-9.3,16.6-11.6,36.9-6.4,55.1"/>
<path class="st0" d="M285.8,112.2c-1.2-6.4-2.5-13-1-19.3c1.5-6.3,6.3-12.3,12.8-13c6.5-0.7,12.4,4.1,16.4,9.3
	c6.6,8.4,10.8,18.5,16,27.9c2.9,5.3,7.5,11,13.4,10.3"/>
<path class="st0" d="M292.9,94.1c6.1,0.1,11.7,3.6,16.2,7.8c4.5,4.2,8.3,9.1,13.1,12.9c1.8,1.4,3.6,2.7,5.3,4.2
	c3,2.7,5.4,6.1,8.5,8.6c3.2,2.5,7.6,4.1,11.3,2.4"/>
<path class="st0" d="M315.1,93.8c9.6-6.3,23.3-2.6,31.5,5.5s12,19.6,15,30.7c4.2,15.7,7.3,31.7,9.2,47.9"/>
<path class="st0" d="M303.8,156.7c-0.3,10.5-1.4,21-3.4,31.4"/>
<path class="st0" d="M341.9,182.1c-14.3,7.1-29.7,14.5-42.9,12.7c24-1.7,47.5-9.8,67.5-23.2"/>
<path class="st0" d="M297.2,193.7c21.7-0.2,43.4-6.8,61.5-18.7"/>
<path class="st0" d="M352.9,106c9.7,16.6,14.8,35.8,14.9,55"/>
<path class="st0" d="M357,114c6.2,18.6,12.5,37.7,12.1,57.4"/>
<path class="st0" d="M332.4,190.2c17.2-3,34.7-3.9,52.1-2.6"/>
<path class="st0" d="M348.7,190.5c15.8-4.3,32.5-5.4,47.5-3.5c-22.7-2.2-45.4,2.5-67.7,7.2"/>
<path class="st0" d="M394.1,188c11.9-8,25.4-13.7,39.5-16.5"/>
<path class="st0" d="M302.7,154.5c3.8-1.4,7.8-2.9,10.2-6.2c0.8-1.1,1.4-2.4,1.8-3.7c0.4-1.3,0.8-2.7,0.7-4.1
	c-0.1-3.1-2.5-6-5.5-6.7"/>
<path class="st0" d="M314.4,139.2c-0.3-1.8-1.1-3.5-2.6-4.5c-2.4-1.6-5.6-0.9-8.4-0.1"/>
<path class="st0" d="M306.9,147.5c0.6-1.3,1.6-2.4,2.4-3.5c0.9-1.1,1.6-2.5,1.4-3.9c-0.2-1.4-1.7-2.7-3-2.2"/>
<path class="st0" d="M294.8,152.2c1.6-10.5,7.8-20.3,16.6-26.3"/>
<path class="st0" d="M301.2,155.8c2.9-1,5.7-2.3,8.4-3.7c0.8-0.4,1.6-0.8,2.2-1.5c1-1,1.6-2.3,1.9-3.7c1-3.7,0.7-7.7-0.7-11.3"/>
<path class="st0" d="M324.2,191.2c0.6-5.8,1.2-11.7,1.9-17.5"/>
<path class="st0" d="M325.8,186.9c0.1-4.2,0.3-8.3,0.4-12.5"/>
<path class="st0" d="M350.1,151c2.6,9.8,0.4,20.1,0,29.3C350.7,172.9,350.8,165.4,350.1,151z"/>
</svg>
