<?xml version="1.0" encoding="utf-8"?>
<!-- Generator: Adobe Illustrator 27.1.1, SVG Export Plug-In . SVG Version: 6.00 Build 0)  -->
<svg version="1.1" id="Layer_1" xmlns="http://www.w3.org/2000/svg" xmlns:xlink="http://www.w3.org/1999/xlink" x="0px" y="0px"
	 viewBox="0 0 2000 2000" style="enable-background:new 0 0 2000 2000;" xml:space="preserve">
<style type="text/css">
	.st0{fill:none;stroke:#000000;stroke-width:5;stroke-miterlimit:10;}
</style>
<g id="Layer_3">
	<path class="st0" d="M385.7,994c243.8-138.9,319.9-367.6,657.7-332.8c168,10.3,319,103.7,431.4,224.1
		c18.6,18.6,33.3,39.2,45.3,63.1"/>
	<path class="st0" d="M354.5,1012c-10.2,6.3-21.3,13.9-23.4,25.6c-2.5,13.7,8.4,26,19.6,34.3c17.7,13.1,38.4,22.2,60,26.5"/>
	<path class="st0" d="M440.7,1122.4c127.6-2.9,249.9,49.8,373,83.4c46.6,12.7,94.3,21.3,142.5,25.4c76.3,6.7,154.4,2.2,227.2-21.6
		c122.2-39.9,214.8-127.7,308.6-215.6"/>
	<path class="st0" d="M1501.7,971.5c2.5-8.2-1.3-17-5.5-24.5c-8-14.3-17.8-27.6-29.2-39.4"/>
	<path class="st0" d="M955.5,730.1C878,743,804,790,772,865c-37,88,1,186,70,248c67,58,159,74,242,47c64-21,119-66,145-129
		c9-24,14-48,16-73c1-16-1-32-3-48c-5-27-15-51-31-74c-35-47-84-73-134.6-92.8"/>
	<path class="st0" d="M440.7,900.8c46.8-38.3,93.6-76.6,140.4-114.8c19.9-16.3,39.8-32.6,60.5-47.9c47.6-35.2,99.1-65,153.3-88.8
		c32.3-14.2,65.7-26.2,100-34.8c104.4-26.2,216.5-19.4,317.9,16.7c101.4,36,191.9,101,260.7,183.6"/>
	<path class="st0" d="M510.7,1158.4c60.5,1,120.9,26.9,176.2,51.2c54.6,24,112.9,39.8,172.3,46.5"/>
	<path class="st0" d="M965.2,1277.3c61.4,3.2,123.3,5.1,184.2-3.7c127.3-18.3,255.7-80.9,338-179.7"/>
	<path class="st0" d="M489.8,815.4C612.7,663.7,805.7,571.1,1001,570"/>
	<path class="st0" d="M455,977.6c-0.4,27.5,12.2,53.9,29.7,75.1s39.7,38,61.7,54.5"/>
	<path class="st0" d="M489.7,964.4c2.8,39.6,15.8,75.2,48.3,98.9"/>
	<path class="st0" d="M924.3,767.4C861.5,776.2,807.1,814,780,871.2s-25.3,126.7,2.5,183.6c27.8,56.9,80.2,100.7,140.5,120.4
		s127.4,15.8,186.1-8.3c32.5-13.3,62.8-32.9,85.8-59.3c38.1-43.7,54.1-105,44.7-162.1s-43.1-109.4-89.9-143.6
		c-46.8-34.2-105.8-50.6-163.7-48.1"/>
	<path class="st0" d="M973.7,866.6c-39.7,12.5-65.4,58.7-54.9,98.9c10.5,40.2,55.4,68.1,96.2,59.7c40.8-8.4,70.9-51.8,64.6-92.9
		S1029.1,849.2,973.7,866.6z"/>
	<path class="st0" d="M1425.9,711.3c69.3,48.2,118.1,124.8,132.4,207.9"/>
	<path class="st0" d="M1357.4,1158.4c74.8-41.8,138.9-102.7,184.3-175.3"/>
	<path class="st0" d="M1570.8,1013.3c-37.4,83.7-102.8,154.8-183.2,199.1"/>
	<path class="st0" d="M924.3,927.3c15.8-21.8,38.2-38.8,63.5-48.2c2.1-0.8,4.8-1.4,6.4,0.2c2.2,2.2,0.1,5.8-1.9,8
		c-23.3,25.8-48.1,52.4-57.5,85.9c-0.9,3.1-1.5,6.7,0.5,9.1c2,2.5,6.1,2.6,8.9,1s4.8-4.4,6.6-7.1c20.5-30.9,40.8-63.9,72.5-83.1
		c3-1.8,7.7-3.1,9.4,0c1.1,2.1-0.2,4.7-1.6,6.7c-11.4,16.5-25.1,31.5-37.1,47.5s-22.7,33.8-26.9,53.4c-0.4,1.7-0.5,3.8,1,4.7
		c1.8,1.1,3.9-0.7,5.1-2.3c12.5-15.9,22.5-33.6,35.5-49.2s58.6-51.3,49.4-33.3c-2.9,5.7-9.9,12.8-14.9,19.1
		c-16.4,21.1-33.5,43.8-36.1,70.4c-0.1,1-0.1,2,0.5,2.8c0.8,1,2.5,0.9,3.6,0.1c1.1-0.8,1.7-2.1,2.2-3.3
		c11.7-24.7,64.9-79.7,52.3-55.4c-5.7,11-13.4,27.2-15.2,42.8"/>
</g>
</svg>
