<?xml version="1.0" encoding="utf-8" ?>
<svg baseProfile="full" height="134" version="1.1" viewBox="0,0,110,134" width="110" xmlns="http://www.w3.org/2000/svg" xmlns:ev="http://www.w3.org/2001/xml-events" xmlns:xlink="http://www.w3.org/1999/xlink">
	<path d="M 18.205070 56.924637 L 17.525700 55.177772 L 16.774490 53.460608 L 15.898063 51.804022 L 14.896177 50.220268 L 13.824942 48.682368 L 12.643664 47.227700 L 11.431350 45.798264 L 10.214745 44.372447 L 9.012198 42.934773 L 7.840230 41.472131 L 6.709476 39.977464 L 5.632845 38.443467 L 4.635515 36.857088 L 3.725073 35.219321 L 2.881828 33.545673 L 2.134033 31.827823 L 1.556774 30.047166 L 1.206571 28.209485 L 1.213651 26.345407 L 1.703806 24.553670 L 2.672725 22.969319 L 4.013584 21.677224 L 5.586682 20.671340 L 7.363917 20.176748 L 9.211149 20.299390 L 10.997847 20.841859 L 12.674874 21.665954 L 14.218375 22.721472 L 15.629417 23.951218 L 16.925321 25.303302 L 18.125222 26.742038 L 19.244905 28.244475 L 20.306736 29.788855 L 21.355038 31.342508 L 22.439350 32.871056 L 23.579458 34.358221 L 24.841361 35.741638 L 26.153912 37.071318 L 27.552956 38.310695 L 29.026743 39.464142 L 30.539240 40.570404" fill="none" stroke="black" stroke-width="1.000000" />
	<path d="M 20.589506 49.840887 L 19.916036 51.655268 L 19.275458 53.481510 L 18.678325 55.322391 L 18.138977 57.180969 L 17.670919 59.058687 L 17.284161 60.954732 L 16.979573 62.865667 L 16.754993 64.787636 L 16.620493 66.717858 L 16.603770 68.652265 L 16.723935 70.582717 L 16.966736 72.501956 L 17.308335 74.406365 L 17.749266 76.290045 L 18.283425 78.149665 L 18.895912 79.985127 L 19.550476 81.806388 L 20.185138 83.634543 L 20.858682 85.448360 L 21.604695 87.233917 L 22.430383 88.983947 L 23.318500 90.703377 L 24.305760 92.367723 L 25.387720 93.971456 L 26.595330 95.482284 L 27.961150 96.850760 L 29.356990 98.188102 L 30.792862 99.483808 L 32.258316 100.747879" fill="none" stroke="black" stroke-width="1.000000" />
	<path d="M 76.334145 53.148617 L 77.623646 51.678419 L 78.963761 50.258533 L 80.394313 48.937669 L 81.949194 47.779138 L 83.627832 46.820184 L 85.414546 46.067925 L 87.262660 45.438209 L 89.150936 44.928186 L 91.043586 44.436157 L 92.967955 44.089183 L 94.911748 43.877490 L 96.865447 43.802491 L 98.817541 43.884152 L 100.746393 44.190163 L 102.616963 44.746954 L 104.370596 45.596479 L 105.859733 46.825229 L 106.952863 48.445122 L 107.625041 50.206148 L 107.211711 52.066911 L 106.049556 53.632137 L 104.649422 54.995364 L 103.157371 56.260000 L 101.644093 57.494227 L 99.985930 58.528264 L 98.254221 59.437482 L 96.528343 60.357364 L 94.775564 61.225387 L 93.030164 62.107023 L 91.342206 63.093335 L 89.737633 64.210051 L 88.233942 65.458846 L 86.851719 66.841487 L 85.578302 68.325503 L 84.387644 69.877102 L 83.248360 71.466885 L 82.148596 73.084326 L 81.073296 74.718154 L 80.013536 76.362117 L 78.957567 78.008505 L 77.883379 79.643060 L 76.785023 81.261378 L 75.634430 82.842988 L 74.430310 84.384109 L 73.150725 85.863191 L 71.797706 87.275303 L 70.359355 88.600507 L 68.848949 89.842854 L 67.256078 90.977598 L 65.587083 91.996769 L 63.825455 92.846438 L 62.014881 93.585956 L 60.147787 94.168395 L 58.237827 94.589856 L 56.303972 94.882966" fill="none" stroke="black" stroke-width="1.000000" />
	<path d="M 52.754829 41.311314 L 53.941935 39.820091 L 55.090041 38.298653 L 56.155219 36.718156 L 57.117606 35.073165 L 57.956704 33.362152 L 58.679331 31.598778 L 59.334492 29.809001 L 59.869215 27.980043 L 60.340667 26.133342 L 60.775806 24.277686 L 61.189518 22.417109 L 61.598824 20.555541 L 62.019208 18.696453 L 62.467136 16.843851 L 62.956133 15.001722 L 63.505201 13.176749 L 64.179401 11.395421 L 65.024220 9.689394 L 66.009239 8.059017 L 67.134959 6.523503 L 68.467956 5.170509 L 70.030909 4.095671 L 71.755611 3.296701 L 73.607860 3.041833 L 75.230818 3.841470 L 76.362685 5.342534 L 77.271517 7.017371 L 78.052266 8.754072 L 78.640181 10.563644 L 79.022177 12.428199 L 79.216986 14.322093 L 79.246969 16.226276 L 79.130683 18.127431 L 78.868510 20.013724 L 78.470545 21.876704 L 77.982859 23.719044 L 77.441112 25.546273 L 76.859795 27.361445 L 76.265289 29.172390 L 75.680695 30.986537 L 75.128416 32.810565 L 74.643208 34.653318 L 74.237667 36.515450 L 73.916533 38.393188 L 73.740390 40.289614 L 73.707840 42.195285 L 73.843256 44.092354 L 74.013512 45.986070 L 74.299911 47.869625 L 74.840031 49.675996 L 75.466904 51.450279 L 76.313538 53.156425" fill="none" stroke="black" stroke-width="1.000000" />
	<path d="M 76.334145 53.148617 L 74.590406 52.393901 L 72.806696 51.773909 L 71.002368 51.215009 L 69.108235 51.072011 L 67.210653 51.151312 L 65.329973 51.425969 L 63.483049 51.875752 L 61.668013 52.442292 L 59.860504 53.032274 L 58.067766 53.665063 L 56.304239 54.374070 L 54.587281 55.188684 L 52.934238 56.125758 L 51.363547 57.195270 L 49.888961 58.394284 L 48.516388 59.709497 L 47.234390 61.113696 L 45.985758 62.547680" fill="none" stroke="black" stroke-width="1.000000" />
	<path d="M 68.687988 89.961555 L 68.050636 91.766143 L 67.427633 93.575578 L 66.831107 95.393769 L 66.248937 97.216791 L 65.724320 99.057237 L 65.243674 100.909624 L 64.811024 102.773761 L 64.428664 104.648842 L 64.098811 106.533841 L 63.825189 108.427780 L 63.603013 110.328566 L 63.421144 112.233674 L 63.280467 114.142194 L 63.190563 116.053785 L 63.140484 117.966987 L 63.094250 119.880288 L 63.055482 121.793638 L 63.079246 123.706944 L 63.217586 125.615573 L 63.456187 127.514470 L 63.746469 129.406186" fill="none" stroke="black" stroke-width="1.000000" />
	<path d="M 31.288942 95.882393 L 31.610668 97.763368 L 31.906361 99.648229 L 32.152850 101.539488 L 32.373306 103.434621 L 32.480356 105.339909 L 32.532161 107.247486 L 32.526181 109.155755 L 32.465881 111.063091 L 32.359213 112.968423 L 32.219642 114.871600 L 32.037284 116.771183 L 31.826398 118.667822 L 31.595044 120.562081 L 31.351099 122.454762 L 31.099605 124.346456 L 30.842919 126.237453 L 30.585571 128.128355 L 30.309555 130.016626 L 30.017325 131.902417 L 29.623451 133.769666" fill="none" stroke="black" stroke-width="1.000000" />
	<path d="M 28.672568 43.520867 L 29.791707 41.891932 L 30.747500 40.162136 L 31.461558 38.319480 L 31.869829 36.386111 L 32.098123 34.423144 L 32.281166 32.455314 L 32.191623 30.481494 L 31.983817 28.516207 L 31.569410 26.584184 L 31.017809 24.686567 L 30.353388 22.825413 L 29.699976 20.960221 L 29.054137 19.092391 L 28.513877 17.191518 L 28.186240 15.243246 L 28.071501 13.270920 L 28.021378 11.295268 L 28.229518 9.331174 L 28.665440 7.404440 L 29.384540 5.565374 L 30.387749 3.864640 L 31.691144 2.382434 L 33.087023 0.983647 L 35.007900 0.988042 L 36.761471 1.898577 L 38.342279 3.084574 L 39.816686 4.400370 L 41.109616 5.895048 L 42.286256 7.482854 L 43.281171 9.190459 L 44.122694 10.978679 L 44.887118 12.801192 L 45.579170 14.652397 L 46.190182 16.531903 L 46.709414 18.438800 L 47.093896 20.377345 L 47.475449 22.316499 L 47.850451 24.256930 L 48.256710 26.191056 L 48.702170 28.116531 L 49.170997 30.036452 L 49.626884 31.959488 L 50.130275 33.870549 L 50.687933 35.765088 L 51.281402 37.648667 L 52.009070 39.483135 L 52.754829 41.311314" fill="none" stroke="black" stroke-width="1.000000" />
</svg>