<?xml version="1.0" encoding="utf-8" ?>
<svg baseProfile="full" height="345" version="1.1" viewBox="0,0,619,345" width="619" xmlns="http://www.w3.org/2000/svg" xmlns:ev="http://www.w3.org/2001/xml-events" xmlns:xlink="http://www.w3.org/1999/xlink">
	<path d="M 0.048716 285.846863 L 2.042605 285.857778 L 4.036385 285.881288 L 6.028782 285.959125 L 8.017937 286.096822 L 10.000917 286.305337 L 11.974505 286.589289 L 13.931212 286.972616 L 15.873861 287.421835 L 17.785643 287.988135 L 19.665729 288.652146 L 21.520842 289.383057 L 23.330936 290.219216 L 25.120915 291.097664 L 26.873825 292.047903 L 28.599516 293.046737 L 30.311502 294.068895 L 31.986374 295.150768 L 33.665080 296.226713 L 35.311651 297.351194 L 36.947364 298.491436 L 38.576194 299.641488 L 40.178869 300.827702 L 41.785352 302.008771 L 43.374080 303.213609 L 44.957292 304.425694 L 46.535889 305.643784 L 48.108842 306.869152 L 49.679707 308.097198 L 51.260919 309.311888 L 52.846541 310.520818 L 54.453276 311.701526 L 56.097008 312.830113 L 57.755801 313.936501 L 59.476843 314.943072 L 61.224209 315.903451 L 63.017031 316.775871 L 64.829301 317.607328 L 66.700428 318.295503 L 68.588480 318.936507 L 70.509004 319.472003 L 72.456369 319.899719 L 74.420268 320.243948 L 76.394842 320.520637 L 78.380218 320.703820 L 80.369382 320.841097 L 82.361480 320.925416 L 84.354988 320.964610 L 86.348881 320.971380 L 88.342609 320.944876 L 90.335799 320.891374 L 92.328448 320.820332 L 94.320337 320.730489 L 96.311347 320.622924 L 98.302544 320.518785 L 100.292975 320.400961 L 102.283955 320.292783 L 104.274985 320.185476 L 106.266049 320.078824 L 108.258485 320.002420 L 110.251125 319.931021 L 112.244714 319.896332 L 114.238592 319.884944 L 116.232446 319.899257 L 118.225133 319.967595 L 120.216245 320.072916 L 122.202625 320.245024 L 124.183858 320.469139 L 126.158211 320.747343 L 128.120417 321.100831 L 130.068733 321.524340 L 132.007594 321.989524 L 133.925922 322.532764 L 135.823650 323.144251 L 137.703006 323.810173 L 139.553969 324.551140 L 141.388418 325.332402 L 143.188096 326.190386 L 144.965375 327.094149 L 146.731762 328.019107 L 148.474552 328.987675 L 150.226037 329.940536 L 151.970510 330.906191 L 153.715617 331.870719 L 155.472497 332.813591 L 157.238795 333.738722 L 159.015679 334.643342 L 160.810902 335.510918 L 162.620344 336.348489 L 164.447282 337.147112 L 166.295251 337.895703 L 168.155569 338.613219 L 170.035525 339.277349 L 171.926350 339.910120 L 173.833056 340.493072 L 175.758434 341.010835 L 177.686490 341.519081 L 179.630763 341.960422 L 181.583382 342.363993 L 183.545430 342.718605 L 185.517250 343.013880 L 187.492414 343.286659 L 189.473841 343.508611 L 191.458644 343.698804 L 193.447056 343.846018 L 195.438391 343.946086 L 197.431036 344.016728 L 199.424675 344.046177 L 201.418538 344.038555 L 203.411965 343.996080 L 205.404270 343.917003 L 207.394726 343.800347 L 209.383203 343.653500 L 211.367206 343.455931 L 213.349188 343.238136 L 215.327834 342.992090 L 217.299725 342.697175 L 219.269178 342.385797 L 221.224003 341.994523 L 223.176249 341.589001 L 225.123726 341.161290 L 227.062512 340.695907 L 228.992071 340.193600 L 230.901369 339.619740 L 232.794514 338.994141 L 234.665275 338.304785 L 236.523123 337.580916 L 238.389144 336.878420 L 240.229805 336.112627 L 242.064150 335.331032 L 243.887878 334.525074 L 245.713206 333.722661 L 247.544842 332.934766 L 249.384535 332.165890 L 251.237377 331.429369 L 253.106279 330.734690 L 254.988433 330.076670 L 256.883446 329.456694 L 258.795043 328.890177 L 260.714148 328.349167 L 262.650186 327.873302 L 264.590123 327.412481 L 266.539506 326.993996 L 268.502582 326.646022 L 270.470892 326.327565 L 272.446178 326.056569 L 274.425969 325.819930 L 276.409682 325.619044 L 278.397423 325.463430 L 280.387149 325.334477 L 282.378965 325.244802 L 284.372124 325.191631 L 286.365901 325.172452 L 288.359695 325.188901 L 290.353020 325.236038 L 292.345241 325.316966 L 294.335957 325.429227 L 296.324681 325.572455 L 298.310944 325.746535 L 300.294400 325.950149 L 302.274759 326.181993 L 304.252766 326.433288 L 306.228398 326.702595 L 308.201691 326.988564 L 310.170376 327.304431 L 312.138749 327.622568 L 314.104958 327.953716 L 316.070970 328.286140 L 318.038028 328.612312 L 320.007049 328.926368 L 321.978902 329.222056 L 323.954498 329.491458 L 325.934283 329.727966 L 327.919213 329.915610 L 329.908336 330.052050 L 331.900835 330.119665 L 333.894418 330.108781 L 335.886408 330.026449 L 337.869547 329.827920 L 339.842782 329.543152 L 341.813953 329.242823 L 343.765835 328.840498 L 345.707198 328.385816 L 347.638266 327.889651 L 349.555071 327.341059 L 351.459057 326.749269 L 353.338299 326.084064 L 355.200268 325.370952 L 357.049073 324.624379 L 358.884668 323.845875 L 360.707289 323.037445 L 362.517300 322.201150 L 364.314169 321.336988 L 366.098000 320.446210 L 367.868042 319.528350 L 369.623792 318.583434 L 371.367194 317.615890 L 373.097750 316.625568 L 374.817288 315.616203 L 376.526900 314.590112 L 378.227047 313.548409 L 379.920835 312.496375 L 381.610050 311.437012 L 383.297400 310.374673 L 384.989743 309.320328 L 386.691441 308.281167 L 388.410716 307.271490 L 390.155316 306.306391 L 391.926772 305.391542 L 393.730908 304.543387 L 395.566779 303.766182 L 397.427257 303.049567 L 399.310138 302.394214 L 401.211023 301.792747 L 403.126772 301.240434 L 405.056243 300.738182 L 406.999675 300.293282 L 408.956665 299.912616 L 410.925967 299.602160 L 412.904513 299.356772 L 414.889160 299.166272 L 416.876690 299.007091 L 418.865738 298.868121 L 420.855660 298.742012 L 422.846060 298.623656 L 424.837043 298.515640 L 426.828177 298.410300 L 428.819290 298.304566 L 430.810745 298.205588 L 432.802212 298.106761 L 434.793775 298.009905 L 436.785063 297.907642 L 438.775818 297.795446 L 440.766275 297.678010 L 442.756160 297.551388 L 444.745388 297.414759 L 446.733590 297.264092 L 448.720458 297.096748 L 450.705889 296.913135 L 452.689489 296.710774 L 454.670939 296.488346 L 456.649631 296.242700 L 458.625057 295.972039 L 460.596726 295.675286 L 462.563947 295.350395 L 464.526232 294.996901 L 466.482427 294.611250 L 468.431161 294.189571 L 470.369427 293.722448 L 472.293346 293.199594 L 474.202363 292.624469 L 476.099076 292.009746 L 477.968481 291.318213 L 479.775703 290.480827 L 481.501104 289.484992 L 483.138674 288.350091 L 484.691399 287.100834 L 486.171016 285.765175 L 487.582276 284.357421 L 488.925496 282.884513 L 490.200837 281.352414 L 491.402426 279.761936 L 492.531016 278.118691 L 493.583419 276.425763 L 494.555135 274.685246 L 495.460622 272.909060 L 496.304664 271.102941 L 497.086332 269.268914 L 497.817540 267.414051 L 498.499556 265.540607 L 499.126420 263.648018 L 499.679421 261.732826 L 500.152801 259.796293 L 500.586960 257.850228 L 501.051151 255.911341 L 501.557418 253.982820 L 502.128305 252.072941 L 502.796445 250.195061 L 503.549607 248.349265 L 504.379318 246.536690 L 505.302104 244.770089 L 506.333644 243.064982 L 507.470378 241.427920 L 508.721509 239.877422 L 510.075466 238.414827 L 511.508609 237.029538 L 513.031520 235.744854 L 514.643289 234.572887 L 516.326014 233.504899 L 518.073096 232.546204 L 519.893673 231.738963 L 521.773456 231.076977 L 523.685232 230.512099 L 525.634283 230.107164 L 527.608437 229.828140 L 529.589565 229.604822 L 531.573279 229.403418 L 533.556932 229.201389 L 535.541722 229.010948 L 537.526627 228.821636 L 539.510920 228.625956 L 541.494776 228.425902 L 543.478040 228.220077 L 545.459540 227.998216 L 547.439866 227.765795 L 549.415856 227.500823 L 551.384862 227.187185 L 553.346426 226.830288 L 555.295441 226.411225 L 557.229614 225.927637 L 559.139349 225.357463 L 561.009728 224.669547 L 562.848606 223.899110 L 564.662493 223.071917 L 566.439377 222.168561 L 568.151529 221.150007 L 569.786428 220.010296 L 571.347843 218.771763 L 572.726286 217.338406 L 574.027074 215.844614 L 575.137271 214.207496 L 575.999185 212.446638 L 576.613084 210.585013 L 576.960981 208.637869 L 577.065981 206.661109 L 577.011028 204.678417 L 576.817391 202.695904 L 576.517478 200.726575 L 576.158279 198.767509 L 575.727116 196.821723 L 575.215894 194.896335 L 574.638056 192.991321 L 573.983881 191.109319 L 573.254252 189.255282 L 572.471875 187.422778 L 571.645482 185.608645 L 570.764943 183.820213 L 569.841207 182.055923 L 568.867480 180.317057 L 567.826070 178.618577 L 566.744331 176.945063 L 565.607657 175.307722 L 564.427202 173.702233 L 563.211707 172.122423 L 561.953438 170.576384 L 560.660904 169.059260 L 559.330833 167.574897 L 557.957175 166.131019 L 556.536207 164.734668 L 555.065658 163.390872 L 553.519941 162.137799 L 551.899011 160.989682 L 550.193142 159.971820 L 548.438232 159.028610" fill="none" stroke="black" stroke-width="1.000000" />
	<path d="M 228.940659 124.267281 L 229.065547 126.256070 L 229.183499 128.245282 L 229.270811 130.236075 L 229.318985 132.228198 L 229.307110 134.220865 L 229.225782 136.211906 L 229.066288 138.198212 L 228.835625 140.177517 L 228.527631 142.146269 L 228.155562 144.103925 L 227.718778 146.048165 L 227.227751 147.979422 L 226.684158 149.896545 L 226.097768 151.801016 L 225.467564 153.691439 L 224.803714 155.570314 L 224.103669 157.436004 L 223.376211 159.291179 L 222.619796 161.134736 L 221.839955 162.968508 L 221.034210 164.791045 L 220.200997 166.601189 L 219.337156 168.396917 L 218.456663 170.184542 L 217.523542 171.945251 L 216.556441 173.687538 L 215.552814 175.409041 L 214.511641 177.108099 L 213.437518 178.786521 L 212.324620 180.439484 L 211.174066 182.066459 L 209.985269 183.665703 L 208.760304 185.237416 L 207.502731 186.783165 L 206.208663 188.298486 L 204.877719 189.781521 L 203.512187 191.232773 L 202.111242 192.649866 L 200.682497 194.038936 L 199.224584 195.397355 L 197.737840 196.724158 L 196.228086 198.024727 L 194.691888 199.293942 L 193.131121 200.532823 L 191.546857 201.741511 L 189.943972 202.925403 L 188.324093 204.085936 L 186.687333 205.222536 L 185.032913 206.333269 L 183.355774 207.409375 L 181.663780 208.461991 L 179.954161 209.485724 L 178.242774 210.506524 L 176.509125 211.488985 L 174.745746 212.416979 L 172.965315 213.311898 L 171.157374 214.149754 L 169.325776 214.934580 L 167.470436 215.661474 L 165.593264 216.329969 L 163.694630 216.934792 L 161.778220 217.480716 L 159.843477 217.957520 L 157.894938 218.374479 L 155.932802 218.721736 L 153.960337 219.004585 L 151.979030 219.216662 L 149.991263 219.355660 L 147.999643 219.418505 L 146.007147 219.398808 L 144.017052 219.298940 L 142.032486 219.120177 L 140.056313 218.864803 L 138.089922 218.542506 L 136.136635 218.148586 L 134.197308 217.690778 L 132.273359 217.172109 L 130.367110 216.591771 L 128.481710 215.946941 L 126.622979 215.228934 L 124.797881 214.429376 L 123.013413 213.542901 L 121.272917 212.572919 L 119.576344 211.527962 L 117.926495 210.410693 L 116.324650 209.225610 L 114.774344 207.973870 L 113.276422 206.659881 L 111.839603 205.279395 L 110.469863 203.832350 L 109.170320 202.321949 L 107.927609 200.764352 L 106.763103 199.147588 L 105.657434 197.489890 L 104.624168 195.786198 L 103.661303 194.041724 L 102.762905 192.263159 L 101.929051 190.453435 L 101.153735 188.617843 L 100.445231 186.755476 L 99.792221 184.872885 L 99.203533 182.969237 L 98.667654 181.050007 L 98.190451 179.115378 L 97.764414 177.168812 L 97.375046 175.214549 L 97.067915 173.245853 L 96.792058 171.272348 L 96.577444 169.291344 L 96.393565 167.307157 L 96.277682 165.317962 L 96.192540 163.327092 L 96.154222 161.334818 L 96.156442 159.342153 L 96.171600 157.349507 L 96.212352 155.357238 L 96.286503 153.365943 L 96.382176 151.375545 L 96.539403 149.389176 L 96.715370 147.404258 L 96.946081 145.425057 L 97.254480 143.456546 L 97.611415 141.496124 L 98.029517 139.547896 L 98.484068 137.607758 L 98.989401 135.680281 L 99.532052 133.762924 L 100.118629 131.858575 L 100.746221 129.967333 L 101.401781 128.085570 L 102.094523 126.217206 L 102.832063 124.366092 L 103.601247 122.527855 L 104.416044 120.709436 L 105.255860 118.902361 L 106.130909 117.112122 L 107.038246 115.338012 L 107.973286 113.578335 L 108.949770 111.841372 L 109.941064 110.112731 L 110.971139 108.407007 L 112.016008 106.710212 L 113.095718 105.035451 L 114.207754 103.381947 L 115.343790 101.744814 L 116.508027 100.127637 L 117.704065 98.533849 L 118.910759 96.948049 L 120.138864 95.378810 L 121.377189 93.817586 L 122.637722 92.274279 L 123.927806 90.755613 L 125.251507 89.266179 L 126.604450 87.803229 L 127.974875 86.356594 L 129.369403 84.933221 L 130.777732 83.523450 L 132.206841 82.134790 L 133.655628 80.766656 L 135.117742 79.412752 L 136.597323 78.077982 L 138.091854 76.759956 L 139.601618 75.459414 L 141.127159 74.177417 L 142.667532 72.913275 L 144.221188 71.665489 L 145.794437 70.442543 L 147.376279 69.230668 L 148.969984 68.034460 L 150.580068 66.860414 L 152.198780 65.698247 L 153.846023 64.577110 L 155.493976 63.456794 L 157.152185 62.351749 L 158.833509 61.282310 L 160.519213 60.219632 L 162.234500 59.205781 L 163.947237 58.187289 L 165.669603 57.185189 L 167.432244 56.256478 L 169.228991 55.395202 L 171.052652 54.592386 L 172.896050 53.835809 L 174.756375 53.121848 L 176.630749 52.445565 L 178.517351 51.804163 L 180.415947 51.199208 L 182.326985 50.634845 L 184.249758 50.111850 L 186.182885 49.628494 L 188.125324 49.184031 L 190.076247 48.778420 L 192.034955 48.412262 L 194.000624 48.085520 L 195.972565 47.799079 L 197.949908 47.552659 L 199.931966 47.347653 L 201.917824 47.183417 L 203.906761 47.062239 L 205.897811 46.982776 L 207.890271 46.970460 L 209.882329 46.982774 L 211.873583 47.038925 L 213.862704 47.146467 L 215.848773 47.299388 L 217.829719 47.508314 L 219.805021 47.764359 L 221.771404 48.081670 L 223.729152 48.447776 L 225.673212 48.880751 L 227.605327 49.363627 L 229.518127 49.918262 L 231.415527 50.522984 L 233.287509 51.202559 L 235.140542 51.931829 L 236.962781 52.735351 L 238.763378 53.586179 L 240.530073 54.505774 L 242.275217 55.465829 L 243.988331 56.482519 L 245.684634 57.527353 L 247.362548 58.602113 L 249.033936 59.687145" fill="none" stroke="black" stroke-width="1.000000" />
	<path d="M 518.456055 156.213516 L 520.222182 155.783562 L 521.992576 155.371532 L 523.754555 154.924896 L 525.534999 154.558878 L 527.328781 154.265106 L 529.133549 154.048934 L 530.946186 153.913854 L 532.763148 153.863399 L 534.580340 153.904748 L 536.393280 154.035831 L 538.198012 154.252434 L 539.986880 154.573634 L 541.775757 154.894836" fill="none" stroke="black" stroke-width="1.000000" />
	<path d="M 449.478577 207.996674 L 449.133117 206.030643 L 448.787361 204.064665 L 448.438029 202.099319 L 448.085252 200.134588 L 447.729190 198.170450 L 447.362263 196.208313 L 446.992202 194.246764 L 446.604970 192.288533 L 446.210584 190.331730 L 445.797463 188.378797 L 445.369560 186.429049 L 444.925111 184.483006 L 444.459899 182.541822 L 443.982833 180.603517 L 443.483661 178.670788 L 442.978374 176.739648 L 442.452099 174.814121 L 441.919436 172.890352 L 441.365498 170.972601 L 440.800989 169.057935 L 440.214699 167.149826 L 439.616329 165.245470 L 439.001436 163.346385 L 438.377075 161.450392 L 437.741980 159.557967 L 437.100500 157.667697 L 436.450000 155.780512 L 435.788293 153.897227 L 435.112967 152.018784 L 434.421389 150.146262 L 433.712522 148.280218 L 432.988022 146.420186 L 432.252162 144.564620 L 431.506661 142.712906 L 430.753508 140.864291 L 429.991709 139.019221 L 429.218592 137.178866 L 428.429501 135.345304 L 427.623225 133.519234 L 426.799035 131.701178 L 425.958369 129.890682 L 425.103838 128.086689 L 424.239712 126.287271 L 423.367019 124.491993 L 422.484263 122.701641 L 421.587927 120.918051 L 420.673410 119.143713 L 419.736511 117.381093 L 418.776698 115.630844 L 417.797307 113.891475 L 416.802234 112.161029 L 415.795622 110.437269 L 414.779094 108.719338 L 413.752291 107.007528 L 412.719710 105.299198 L 411.661709 103.606496 L 410.578751 101.929651 L 409.470523 100.269399 L 408.341062 98.623518 L 407.192058 96.991219 L 406.028598 95.369191 L 404.855460 93.754148 L 403.670903 92.147463 L 402.459117 90.561217 L 401.215153 89.000081 L 399.935590 87.467990 L 398.617588 85.968842 L 397.264241 84.501521 L 395.891028 83.052765 L 394.503442 81.617768 L 393.106353 80.192020 L 391.704174 78.771277 L 390.298031 77.354457 L 388.888396 75.941111 L 387.475410 74.531115 L 386.058929 73.124630 L 384.638805 71.721824 L 383.214812 70.322946 L 381.786114 68.928872 L 380.351466 67.540924 L 378.902864 66.167547 L 377.432941 64.817020 L 375.937514 63.494793 L 374.406654 62.213769 L 372.838738 60.978380 L 371.241300 59.781400 L 369.620828 58.615786 L 367.981550 57.476768 L 366.331682 56.353137 L 364.672986 55.242579 L 362.997632 54.157320 L 361.299225 53.108517 L 359.576772 52.099694 L 357.830550 51.132599 L 356.062563 50.205890 L 354.280955 49.305628 L 352.492220 48.419605 L 350.698549 47.543614 L 348.901834 46.673882 L 347.102827 45.808902 L 345.301782 44.948172 L 343.498901 44.091296 L 341.694269 43.238113 L 339.887990 42.388423 L 338.080080 41.542208 L 336.270439 40.699700 L 334.458813 39.861471 L 332.643639 39.030954 L 330.821333 38.216207 L 328.990248 37.421393 L 327.149032 36.650340 L 325.296970 35.905717 L 323.435489 35.184962 L 321.567597 34.480981 L 319.694803 33.790144 L 317.818281 33.109497 L 315.938697 32.437351 L 314.054883 31.777158 L 312.164433 31.136215 L 310.266632 30.517386 L 308.361805 29.920529 L 306.450471 29.344849 L 304.534153 28.785983 L 302.614969 28.237031 L 300.693203 27.697187 L 298.767695 27.170850 L 296.837530 26.661862 L 294.901592 26.175297 L 292.958766 25.717020 L 291.009449 25.287189 L 289.054890 24.881852 L 287.096049 24.497739 L 285.134062 24.130022 L 283.169927 23.773951 L 281.202927 23.434068 L 279.231579 23.120413 L 277.255373 22.839001 L 275.274431 22.593156 L 273.289178 22.384974 L 271.300916 22.207775 L 269.310875 22.051765 L 267.319567 21.912841 L 265.327148 21.790885 L 263.334128 21.679138 L 261.340446 21.579928 L 259.345646 21.506682 L 257.349855 21.469428 L 255.353718 21.470557 L 253.357911 21.506962 L 251.362923 21.574836 L 249.368792 21.664516 L 247.375358 21.768592 L 245.382925 21.890303 L 243.392288 22.038472 L 241.404288 22.218565 L 239.419840 22.434284 L 237.439753 22.686914 L 235.464021 22.971619 L 233.492263 23.282686 L 231.524182 23.616235 L 229.559612 23.969881 L 227.602206 24.361186 L 225.665277 24.843421 L 223.738204 25.363951 L 221.817898 25.908944 L 219.908105 26.489678 L 218.001714 27.081528 L 216.099162 27.685603 L 214.199097 28.297460 L 212.300729 28.914562 L 210.407064 29.545942 L 208.517060 30.188203 L 206.633643 30.849520 L 204.759242 31.535966 L 202.892881 32.243986 L 201.034069 32.971597 L 199.180602 33.712724 L 197.327040 34.453618 L 195.469721 35.185042 L 193.609462 35.908956 L 191.741610 36.613033 L 189.867704 37.300842 L 187.988234 37.973299 L 186.101976 38.626467 L 184.211463 39.267227 L 182.316698 39.895301 L 180.428000 40.541379 L 178.545155 41.204325 L 176.671180 41.891933 L 174.820694 42.640337 L 172.985124 43.424704 L 171.153624 44.218570 L 169.336838 45.045517 L 167.531516 45.897218 L 165.735575 46.768535 L 163.952264 47.665408 L 162.181884 48.587543 L 160.417772 49.521630 L 158.660501 50.468523 L 156.919975 51.445827 L 155.195881 52.451841 L 153.489509 53.487628 L 151.803619 54.556420 L 150.136522 55.654303 L 148.488411 56.780487 L 146.860068 57.935067 L 145.245894 59.109389 L 143.642440 60.298312 L 142.060044 61.515102 L 140.496186 62.755634 L 138.938775 64.004267 L 137.391968 65.266008 L 135.861008 66.546925 L 134.347560 67.848484 L 132.852912 69.171586 L 131.375948 70.514404 L 129.917614 71.877430 L 128.479126 73.261382 L 127.059697 74.664878 L 125.658435 76.086514 L 124.273538 77.524099 L 122.904088 78.976408 L 121.551462 80.444397 L 120.214022 81.926237 L 118.885693 83.416255 L 117.566354 84.914238 L 116.262144 86.425407 L 114.978286 87.953898 L 113.716819 89.500918 L 112.475187 91.063907 L 111.250575 92.640269 L 110.052054 94.236546 L 108.894542 95.862779 L 107.766303 97.509480 L 106.664873 99.174236 L 105.606203 100.866477 L 104.573847 102.574929 L 103.558367 104.293475 L 102.568359 106.026810 L 101.603750 107.774408 L 100.664758 109.535902 L 99.755189 111.312763 L 98.876538 113.105114 L 98.027417 114.911643 L 97.207339 116.731542 L 96.415801 118.564034 L 95.657492 120.410519 L 94.926638 122.268049 L 94.215414 124.133191 L 93.528065 126.007259 L 92.861764 127.888915 L 92.221813 129.779691 L 91.610681 131.679974 L 91.015009 133.585172 L 90.435496 135.495346 L 89.882475 137.413350 L 89.355098 139.338563 L 88.849404 141.269589 L 88.368636 143.206969 L 87.909072 145.149490 L 87.472302 147.097262 L 87.066663 149.051746 L 86.690772 151.012171 L 86.327754 152.975033 L 85.987082 154.941890 L 85.682933 156.914710 L 85.415998 158.892909 L 85.163910 160.873076 L 84.887452 162.849977 L 84.607566 164.826409 L 84.339006 166.804409 L 84.089672 168.784920 L 83.865963 170.768485 L 83.673463 172.755315 L 83.503229 174.744186 L 83.367913 176.735724 L 83.262949 178.729098 L 83.189576 180.723883 L 83.145636 182.719536 L 83.133929 184.715634 L 83.171913 186.711380 L 83.254125 188.705805 L 83.374723 190.698285 L 83.527020 192.688600 L 83.713974 194.675956 L 83.971439 196.655339 L 84.269882 198.629028 L 84.593746 200.598721 L 84.968197 202.559386 L 85.382027 204.512142 L 85.825363 206.458423 L 86.305839 208.395859 L 86.837366 210.319890 L 87.399720 212.235173 L 87.979643 214.145222 L 88.602121 216.041794 L 89.264085 217.924957 L 89.953366 219.798311 L 90.676247 221.658947 L 91.440157 223.503104 L 92.240762 225.331639 L 93.085941 227.139985 L 93.978892 228.925216 L 94.919825 230.685629 L 95.910335 232.418625 L 96.948730 234.123363 L 98.031775 235.800096 L 99.147622 237.455209 L 100.298173 239.086380 L 101.496445 240.682782 L 102.722272 242.258183 L 103.995912 243.795115 L 105.322292 245.286750 L 106.674256 246.755335 L 108.050799 248.200901 L 109.460356 249.614267 L 110.888902 251.008479 L 112.344019 252.374910 L 113.838379 253.698255 L 115.361917 254.987949 L 116.919533 256.236239 L 118.497218 257.459129 L 120.088024 258.664916 L 121.714704 259.821729 L 123.376620 260.927335 L 125.060077 261.999942 L 126.778649 263.015205 L 128.523164 263.985304 L 130.286601 264.920609 L 132.067984 265.821261 L 133.869705 266.680478 L 135.694233 267.490095 L 137.530572 268.272668 L 139.379074 269.026046 L 141.228315 269.777662 L 143.086509 270.506826 L 144.964464 271.183313 L 146.855703 271.821840 L 148.751225 272.447624 L 150.657462 273.039879 L 152.578511 273.582066 L 154.510851 274.082603 L 156.457418 274.524408 L 158.413388 274.922725 L 160.377603 275.278148 L 162.348989 275.591375 L 164.324678 275.876349 L 166.306485 276.114826 L 168.294624 276.292624 L 170.284098 276.455722 L 172.275217 276.597229 L 174.269769 276.674722 L 176.265399 276.719571 L 178.261414 276.741962 L 180.257536 276.735190 L 182.253046 276.686161 L 184.246936 276.592071 L 186.239397 276.470972 L 188.229423 276.315057 L 190.215668 276.116825 L 192.195691 275.864099 L 194.167899 275.556271 L 196.133894 275.210769 L 198.093256 274.829446 L 200.045184 274.411734 L 201.988262 273.954648 L 203.922009 273.459560 L 205.844599 272.922802 L 207.757296 272.351747 L 209.659186 271.745677 L 211.553407 271.115998 L 213.437009 270.455266 L 215.311658 269.769516 L 217.174117 269.051354 L 219.025546 268.305194 L 220.862194 267.523394 L 222.686820 266.713899 L 224.500083 265.879254 L 226.305128 265.026962 L 228.095865 264.145046 L 229.870787 263.231720 L 231.629028 262.286684 L 233.375567 261.320157 L 235.114644 260.340254 L 236.835849 259.329341 L 238.542861 258.294611 L 240.232073 257.231090 L 241.904947 256.142039 L 243.566558 255.035859 L 245.202943 253.892766 L 246.821982 252.725178 L 248.428837 251.540864 L 250.006552 250.318080 L 251.558970 249.063299 L 253.105714 247.801476 L 254.632572 246.515699 L 256.135689 245.202255 L 257.619490 243.867010 L 259.076238 242.502330 L 260.515237 241.118912 L 261.939195 239.720012 L 263.347846 238.305700 L 264.729327 236.864872 L 266.080077 235.395203 L 267.412378 233.908750 L 268.718021 232.398852 L 269.981649 230.853677 L 271.213621 229.283097 L 272.419634 227.692482 L 273.599580 226.082435 L 274.757451 224.456432 L 275.890829 222.813268 L 277.008356 221.159266 L 278.100159 219.488193 L 279.177945 217.808022 L 280.229211 216.111156 L 281.267346 214.406199 L 282.277761 212.684698 L 283.273039 210.954375 L 284.232052 209.203739 L 285.186896 207.450773 L 286.112670 205.682319 L 287.025406 203.907067 L 287.890662 202.108281 L 288.739032 200.301387 L 289.536118 198.471383 L 290.335104 196.642113 L 291.108157 194.801759 L 291.860519 192.952833 L 292.571347 191.087592 L 293.268499 189.217141 L 293.944092 187.338808 L 294.580374 185.446831 L 295.179581 183.542776 L 295.744582 181.628287 L 296.282571 179.706019 L 296.805955 177.779709 L 297.292008 175.843682 L 297.754825 173.901938 L 298.194137 171.954744 L 298.599838 170.000287 L 298.907305 168.028250 L 299.180380 166.050882 L 299.398596 164.066782 L 299.555950 162.076937 L 299.675034 160.084373 L 299.769084 158.090453 L 299.838344 156.095520 L 299.860979 154.099558 L 299.874701 152.103455 L 299.877994 150.107310 L 299.840915 148.111553 L 299.762738 146.116976 L 299.637256 144.124832 L 299.456110 142.137000 L 299.213671 140.155726 L 298.959152 138.175868 L 298.680219 136.199321 L 298.379939 134.225896 L 298.032545 132.260275 L 297.646786 130.301790 L 297.245556 128.346383 L 296.770227 126.407840 L 296.287383 124.470967 L 295.755064 122.547194 L 295.214970 120.625497 L 294.577668 118.734179 L 293.974317 116.831480 L 293.337480 114.939702 L 292.630019 113.073297 L 291.897635 111.216366 L 291.123839 109.376362 L 290.296751 107.559724 L 289.444744 105.754552 L 288.574873 103.957916 L 287.675459 102.175910 L 286.716504 100.425344 L 285.727206 98.691616 L 284.729449 96.962716 L 283.670391 95.270876 L 282.590551 93.592027 L 281.466793 91.942351 L 280.330093 90.301575 L 279.161298 88.683600 L 277.991973 87.067131 L 276.781282 85.480356 L 275.539276 83.918015 L 274.289781 82.361483 L 273.013365 80.826804 L 271.733945 79.294743 L 270.431749 77.782002 L 269.095716 76.299995 L 267.740728 74.835261 L 266.336968 73.416555 L 264.917057 72.014287 L 263.463095 70.647060 L 261.979057 69.313169 L 260.473208 68.003670 L 258.930104 66.737971 L 257.371519 65.491591 L 255.779651 64.287921 L 254.168892 63.109981 L 252.530271 61.970710 L 250.865545 60.870355 L 249.177856 59.805772 L 247.461881 58.787183 L 245.728122 57.798779 L 243.967129 56.859848 L 242.190994 55.950576 L 240.397907 55.073886 L 238.587850 54.232629 L 236.767158 53.415315 L 234.928963 52.638558 L 233.073694 51.903914 L 231.199490 51.219134 L 229.309010 50.580628 L 227.401346 49.995428 L 225.478468 49.463221 L 223.541768 48.983500 L 221.592763 48.555168 L 219.632785 48.180518 L 217.664205 47.855494 L 215.686607 47.591665 L 213.702703 47.379055 L 211.712817 47.231625 L 209.720210 47.126442 L 207.725149 47.080237 L 205.729629 47.074521 L 203.734698 47.123175 L 201.741645 47.219245 L 199.751906 47.369607 L 197.766275 47.568129 L 195.786746 47.820278 L 193.812745 48.113023 L 191.846088 48.452625 L 189.882477 48.811001" fill="none" stroke="black" stroke-width="1.000000" />
	<path d="M 246.892708 271.515839 L 248.566090 270.446569 L 250.262707 269.414568 L 251.981970 268.420757 L 253.718273 267.457025 L 255.466734 266.515528 L 257.228112 265.598427 L 259.021346 264.745372 L 260.844709 263.958788 L 262.689248 263.223188 L 264.548243 262.524891 L 266.418930 261.858543 L 268.298416 261.217418 L 270.185600 260.599318 L 272.075342 259.989058 L 273.975446 259.411943 L 275.880455 258.851167 L 277.791708 258.312077 L 279.713158 257.810628 L 281.637298 257.319481 L 283.569377 256.860672 L 285.506368 256.422980 L 287.447944 256.006108 L 289.394314 255.612239 L 291.343053 255.230202 L 293.295039 254.865153 L 295.249085 254.511263 L 297.203841 254.161306 L 299.158689 253.811854 L 301.114073 253.465422 L 303.071297 253.129563 L 305.030321 252.804365 L 306.991616 252.493171 L 308.955059 252.195837 L 310.920603 251.912721 L 312.888435 251.645997 L 314.858173 251.393715 L 316.829739 251.156143 L 318.802790 250.931213 L 320.777205 250.718594 L 322.752776 250.516989 L 324.729227 250.324179 L 326.706507 250.140077 L 328.684328 249.961846 L 330.662881 249.791973 L 332.641832 249.626757 L 334.621019 249.464397 L 336.600296 249.303126 L 338.579450 249.140355 L 340.559088 248.983626 L 342.538911 248.829204 L 344.518898 248.676904 L 346.497957 248.513140 L 348.475830 248.335569 L 350.453520 248.155886 L 352.430481 247.968411 L 354.407027 247.776560 L 356.382692 247.575888 L 358.356790 247.360423 L 360.330632 247.142497 L 362.303211 246.913545 L 364.274740 246.675611 L 366.245110 246.428308 L 368.213119 246.162996 L 370.180045 245.889599 L 372.144974 245.602340 L 374.107914 245.301700 L 376.068671 244.987179 L 378.025594 244.649782 L 379.980032 244.298071 L 381.931153 243.928540 L 383.878879 243.541428 L 385.823113 243.137180 L 387.761906 242.707730 L 389.695457 242.255153 L 391.623982 241.781633 L 393.548242 241.291006 L 395.466854 240.778846 L 397.377573 240.238050 L 399.281638 239.674143 L 401.178313 239.085953 L 403.067436 238.473877 L 404.948171 237.836558 L 406.819094 237.170999 L 408.680386 236.478930 L 410.531581 235.760313 L 412.371980 235.014479 L 414.200640 234.240336 L 416.017226 233.438247 L 417.820486 232.606680 L 419.609973 231.745839 L 421.385494 230.856565 L 423.145345 229.936703 L 424.890481 228.989151 L 426.618726 228.011244 L 428.328568 227.001441 L 430.019010 225.959553 L 431.685902 224.880450 L 433.330130 223.767018 L 434.946334 222.613543 L 436.532305 221.418645 L 438.086345 220.182696 L 439.592665 218.889407 L 441.064354 217.556144 L 442.532295 216.218729 L 443.984341 214.864344 L 445.439179 213.513080 L 446.910499 212.179415 L 448.393698 210.859265 L 449.913616 209.581499 L 451.456671 208.331519 L 453.009220 207.093336 L 454.567130 205.861891 L 456.127237 204.633231 L 457.686273 203.403216 L 459.236277 202.161883 L 460.773712 200.904996 L 462.305592 199.641315 L 463.826017 198.364061 L 465.321653 197.057774 L 466.798884 195.730675 L 468.260469 194.386357 L 469.704014 193.022734 L 471.127445 191.638088 L 472.537683 190.239965 L 473.941575 188.835465 L 475.340893 187.426407 L 476.736762 186.013930 L 478.131277 184.600115 L 479.526648 183.187146 L 480.926960 181.779089 L 482.337430 180.381209 L 483.756328 178.991870 L 485.182776 177.610307 L 486.621246 176.241259 L 488.083907 174.898224 L 489.556889 173.566778 L 491.049665 172.257584 L 492.560771 170.969449 L 494.094804 169.708977 L 495.649272 168.474007 L 497.228462 167.270753 L 498.828723 166.095398 L 500.453809 164.954873 L 502.099352 163.844285 L 503.769181 162.770388 L 505.463110 161.735041 L 507.177728 160.734269 L 508.899759 159.745315 L 510.633343 158.776715 L 512.362061 157.799438" fill="none" stroke="black" stroke-width="1.000000" />
	<path d="M 147.307236 126.128359 L 148.388132 124.453734 L 149.624999 122.890770 L 151.037580 121.484604 L 152.632891 120.289796 L 154.431477 119.433246 L 156.423100 119.471550 L 158.367558 119.890367 L 160.058961 120.944043 L 161.622145 122.177126 L 162.847136 123.745956 L 163.659134 125.566108 L 164.381445 127.423418 L 164.937517 129.336608 L 165.240967 131.306050 L 165.356738 133.295825 L 165.420306 135.287472 L 165.283283 137.275426 L 164.950570 139.240213 L 164.443231 141.167312 L 163.762920 143.039863 L 162.852747 144.812896 L 161.845099 146.532421 L 160.746430 148.195196 L 159.546563 149.786571 L 158.266314 151.314038 L 156.914625 152.778829 L 155.541675 154.223410 L 154.077007 155.575009 L 152.539356 156.842924 L 150.929328 158.017576 L 149.253537 159.096390 L 147.521470 160.082108 L 145.724245 160.943032 L 143.860248 161.647680 L 141.947232 162.204520 L 140.103159 162.958392 L 138.175179 163.451542 L 136.184184 163.489250 L 134.216674 163.179510 L 132.320345 162.570144 L 130.536114 161.684914 L 128.901746 160.544929 L 127.374280 159.264895 L 125.934204 157.887259 L 124.584891 156.420581 L 123.327413 154.874453 L 122.167567 153.253775 L 121.105613 151.567351 L 120.149680 149.818698 L 119.311690 148.010511 L 118.585132 146.154709 L 117.966575 144.260247 L 117.470932 142.329780 L 117.052379 140.381474 L 116.787908 138.406123 L 116.629930 136.419341 L 116.560131 134.427752 L 116.633214 132.435975 L 116.764522 130.447340 L 117.006798 128.469123 L 117.348801 126.505622 L 117.770045 124.557616 L 118.279181 122.630670 L 118.859673 120.723962 L 119.494484 118.834676 L 120.195839 116.969062 L 120.959216 115.127920 L 121.768320 113.306420 L 122.629862 111.509220 L 123.570223 109.751871 L 124.554861 108.019013 L 125.607046 106.326284 L 126.712290 104.667630 L 127.831207 103.018373 L 129.032954 101.428333 L 130.285778 99.878144 L 131.561450 98.346712 L 132.865696 96.839580 L 134.211321 95.369241 L 135.587181 93.927171 L 136.998378 92.519668 L 138.444627 91.148177 L 139.916414 89.804173 L 141.425530 88.502183 L 142.959862 87.229996 L 144.516386 85.985109 L 146.106861 84.783852 L 147.718748 83.611527 L 149.361863 82.483368 L 151.030481 81.393243 L 152.715090 80.328096 L 154.433120 79.317666 L 156.172876 78.345174 L 157.940727 77.424738 L 159.734073 76.554929 L 161.540629 75.713042 L 163.374593 74.932556 L 165.226150 74.194834 L 167.098799 73.512444 L 168.991717 72.888412 L 170.899934 72.313006 L 172.827816 71.807248 L 174.769264 71.356454 L 176.724875 70.971780 L 178.693234 70.658786 L 180.671556 70.416840 L 182.658236 70.257499 L 184.649862 70.182389 L 186.642808 70.198634 L 188.632258 70.316944 L 190.611417 70.550862 L 192.572302 70.906976 L 194.508832 71.377822 L 196.413591 71.964159 L 198.280707 72.661032 L 200.099748 73.475116 L 201.862265 74.405654 L 203.587876 75.402895 L 205.266619 76.477122 L 206.890780 77.632191 L 208.453565 78.869023 L 209.950047 80.185395 L 211.389353 81.563952 L 212.753923 83.016650 L 214.063077 84.519409 L 215.300811 86.081627 L 216.492524 87.679199 L 217.626845 89.317987 L 218.695788 91.000251 L 219.737111 92.699698 L 220.723686 94.431466 L 221.642793 96.200002 L 222.505068 97.996885 L 223.293646 99.827371 L 224.033689 101.678040 L 224.738983 103.542133 L 225.365735 105.434154 L 225.944678 107.341333 L 226.467599 109.264641 L 226.942065 111.200476 L 227.370099 113.147101 L 227.748899 115.103910 L 228.083905 117.068697 L 228.378959 119.039877 L 228.632278 121.016857 L 228.847084 122.998398 L 229.005725 124.985087 L 229.143252 126.973004 L 229.230055 128.963621 L 229.264286 130.955545 L 229.235049 132.947331 L 229.140839 134.937038 L 228.977878 136.922338 L 228.757609 138.902428 L 228.477240 140.875100 L 228.148469 142.840264 L 227.765575 144.795557 L 227.333404 146.740550 L 226.851821 148.674061 L 226.326149 150.596179 L 225.768004 152.509339 L 225.190298 154.416911 L 224.601791 156.321213" fill="none" stroke="black" stroke-width="1.000000" />
	<path d="M 250.655304 21.602066 L 252.628407 21.778839 L 254.600922 21.962062 L 256.572829 22.151710 L 258.543069 22.357951 L 260.512274 22.573858 L 262.479184 22.809756 L 264.445237 23.052693 L 266.408852 23.314603 L 268.371792 23.581531 L 270.332210 23.866382 L 272.291920 24.156076 L 274.248984 24.463124 L 276.205079 24.776297 L 278.158358 25.106566 L 280.110182 25.445342 L 282.060489 25.792737 L 284.007079 26.160380 L 285.953363 26.529653 L 287.900034 26.896880 L 289.849208 27.250576 L 291.801577 27.586182 L 293.757598 27.899788 L 295.713313 28.215327 L 297.664301 28.558843 L 299.615217 28.902803 L 301.559801 29.280868 L 303.496495 29.697452 L 305.430818 30.124975 L 307.353499 30.602018 L 309.271147 31.099006 L 311.177492 31.637663 L 313.074477 32.208438 L 314.959913 32.816258 L 316.835017 33.455256 L 318.703383 34.113721 L 320.560143 34.804205 L 322.406423 35.522250 L 324.243565 36.263373 L 326.071451 37.027039 L 327.890651 37.811175 L 329.706354 38.603389 L 331.517180 39.406686 L 333.322402 40.222495 L 335.122932 41.048612 L 336.914848 41.893239 L 338.698849 42.754463 L 340.472529 43.636737 L 342.235491 44.540238 L 343.986974 45.465792 L 345.724543 46.417200 L 347.452370 47.386206 L 349.167674 48.377201 L 350.873650 49.384180 L 352.570378 50.406664 L 354.254344 51.450024 L 355.934597 52.499371 L 357.604409 53.565242 L 359.265978 54.643925 L 360.925124 55.726337 L 362.566061 56.836115 L 364.204845 57.949117 L 365.847024 59.057101 L 367.481963 60.175735 L 369.112085 61.301382 L 370.736381 62.435417 L 372.347200 63.588498 L 373.942245 64.763296 L 375.512127 65.971470 L 377.034250 67.239126 L 378.528042 68.540212 L 379.989924 69.877024 L 381.411432 71.256649 L 382.822738 72.646825 L 384.221800 74.049315 L 385.599817 75.472467 L 386.960210 76.912488 L 388.307119 78.365136 L 389.640992 79.829765 L 390.959208 81.308495 L 392.253070 82.808558 L 393.518430 84.332730 L 394.753909 85.881220 L 395.966251 87.447912 L 397.162662 89.026819 L 398.340789 90.619410 L 399.512263 92.216916 L 400.673615 93.821792 L 401.819465 95.437765 L 402.957210 97.059465 L 404.075403 98.694688 L 405.175386 100.342222 L 406.255771 102.002670 L 407.319020 103.674148 L 408.368089 105.354567 L 409.398634 107.046400 L 410.411760 108.748725 L 411.404611 110.462949 L 412.377642 112.188501 L 413.337143 113.921625 L 414.287181 115.659957 L 415.233375 117.400388 L 416.172046 119.144885 L 417.106409 120.891696 L 418.032198 122.643062 L 418.950225 124.398512 L 419.850467 126.163132 L 420.736500 127.934939 L 421.617059 129.709481 L 422.484166 131.490624 L 423.339744 133.277339 L 424.188259 135.067423 L 425.027454 136.861892 L 425.847145 138.665337 L 426.651863 140.475526 L 427.444699 142.290953 L 428.225363 144.111645 L 428.983315 145.941889 L 429.719874 147.780854 L 430.451124 149.621956 L 431.165133 151.469794 L 431.866477 153.322490 L 432.559062 155.178480 L 433.240170 157.038709 L 433.882429 158.912623 L 434.500033 160.794878 L 435.125899 162.674410 L 435.744906 164.556215 L 436.364224 166.437924 L 436.990447 168.317344 L 437.613265 170.197896 L 438.235563 172.078622 L 438.858414 173.959164 L 439.473380 175.842296 L 440.086801 177.725936 L 440.675172 179.617510 L 441.257905 181.510857 L 441.845465 183.402714 L 442.422321 185.297862 L 443.006079 187.190892 L 443.581038 189.086623 L 444.157494 190.981894 L 444.723755 192.880230 L 445.290966 194.778282 L 445.856109 196.676955 L 446.432201 198.572286 L 447.016373 200.465140 L 447.617950 202.352557 L 448.228540 204.237063 L 448.850902 206.117740 L 449.478577 207.996674" fill="none" stroke="black" stroke-width="1.000000" />
	<path d="M 519.709920 200.677084 L 520.154661 200.898507 L 520.599403 201.119930 L 521.044144 201.341353 L 521.480031 201.578344 L 521.897677 201.847407 L 522.315322 202.116471 L 522.732968 202.385534 L 523.156985 202.644124 L 523.587949 202.891295 L 524.018912 203.138465 L 524.449876 203.385636 L 524.893143 203.609007 L 525.344004 203.817687 L 525.794865 204.026366 L 526.245726 204.235046 L 526.706156 204.421145 L 527.169677 204.599951 L 527.633198 204.778757 L 528.096719 204.957563 L 528.571724 205.102624 L 529.048090 205.243685 L 529.524456 205.384747 L 530.001078 205.524823 L 530.485780 205.633854 L 530.970481 205.742885 L 531.455182 205.851916 L 531.940909 205.955559 L 532.431777 206.032187 L 532.922644 206.108815 L 533.413512 206.185442 L 533.905421 206.253954 L 534.399742 206.303648 L 534.894063 206.353341 L 535.388385 206.403034 L 535.883572 206.440817 L 536.379883 206.463135 L 536.876195 206.485452 L 537.372506 206.507770 L 537.869100 206.516342 L 538.365909 206.514426 L 538.862718 206.512511 L 539.359527 206.510596 L 539.855807 206.490811 L 540.351857 206.463293 L 540.847907 206.435775 L 541.343957 206.408257 L 541.838501 206.361648 L 542.332729 206.311031 L 542.826956 206.260413 L 543.321184 206.209796 L 543.812150 206.134009 L 544.302956 206.056985 L 544.793761 205.979960 L 545.284253 205.901198 L 545.771002 205.801708 L 546.257751 205.702217 L 546.744500 205.602726 L 547.230107 205.498292 L 547.711159 205.374148 L 548.192211 205.250003 L 548.673264 205.125858 L 549.152161 204.994143 L 549.626494 204.846388 L 550.100827 204.698633 L 550.575159 204.550878 L 551.046418 204.393973 L 551.513737 204.225345 L 551.981057 204.056716 L 552.448376 203.888088 L 552.910062 203.705117 L 553.367217 203.510612 L 553.824372 203.316106 L 554.281527 203.121601 L 554.734171 202.916967 L 555.184572 202.707295 L 555.634972 202.497623 L 556.085373 202.287951 L 556.525020 202.056927 L 556.961635 201.819883 L 557.398251 201.582838 L 557.834866 201.345793 L 558.269061 201.104350 L 558.702957 200.862364 L 559.136853 200.620379 L 559.570750 200.378393" fill="none" stroke="black" stroke-width="1.000000" />
	<path d="M 519.144714 49.038185 L 519.190926 51.000224 L 519.219973 52.962497 L 519.221872 54.924165 L 519.204727 56.886471 L 519.155968 58.848393 L 519.108957 60.810412 L 519.042691 62.771851 L 518.980050 64.733355 L 518.902532 66.694408 L 518.823450 68.655398 L 518.732162 70.615858 L 518.636973 72.576125 L 518.528781 74.535720 L 518.428063 76.495700 L 518.312176 78.454853 L 518.202615 80.414361 L 518.079430 82.373075 L 517.957851 84.331888 L 517.829909 86.290298 L 517.700467 88.248609 L 517.569580 90.206823 L 517.435563 92.164827 L 517.302446 94.122891 L 517.165593 96.080698 L 517.027787 98.038439 L 516.888995 99.996110 L 516.748639 101.953669 L 516.606883 103.911128 L 516.463588 105.868474 L 516.319452 107.825759 L 516.174205 109.782962 L 516.027852 111.740082 L 515.881148 113.697176 L 515.732928 115.654156 L 515.584362 117.611110 L 515.434989 119.568002 L 515.283834 121.524757 L 515.133399 123.481567 L 514.979597 125.438115 L 514.828195 127.394851 L 514.674301 129.351393 L 514.519078 131.307830 L 514.362900 133.264191 L 514.206478 135.220532 L 514.049737 137.176846 L 513.888323 139.132779 L 513.734432 141.089320 L 513.574711 143.045394 L 513.418466 145.001750 L 513.262717 146.958143 L 513.100458 148.914006 L 512.946290 150.870512 L 512.771457 152.825278 L 512.619391 154.781943 L 512.440941 156.736376 L 512.292711 158.693341 L 512.119558 160.648250 L 511.981559 162.605974 L 511.829727 164.562675 L 511.667001 166.518501 L 511.512949 168.475024 L 511.334801 170.429505 L 511.169173 172.385088 L 511.008771 174.341106 L 510.836415 176.296107 L 510.680925 178.252513 L 510.471113 180.203851 L 510.254517 182.154447" fill="none" stroke="black" stroke-width="1.000000" />
	<path d="M 525.546692 49.675751 L 525.377203 51.642657 L 525.213720 53.610086 L 525.039773 55.576618 L 524.874687 57.543916 L 524.707280 59.511018 L 524.544440 61.478504 L 524.383715 63.446161 L 524.224702 65.413961 L 524.069570 67.382070 L 523.916727 69.350359 L 523.765115 71.318743 L 523.616055 73.287322 L 523.466687 75.255878 L 523.319943 77.224629 L 523.174399 79.193469 L 523.030623 81.162432 L 522.890037 83.131628 L 522.750539 85.100890 L 522.615189 87.070447 L 522.478387 89.039898 L 522.345826 91.009645 L 522.209828 92.979160 L 522.077555 94.948932 L 521.942730 96.918531 L 521.811634 98.888386 L 521.678882 100.858130 L 521.549594 102.828107 L 521.420133 104.798072 L 521.293107 106.768195 L 521.167789 108.738429 L 521.041025 110.708569 L 520.914928 112.678751 L 520.791581 114.649107 L 520.667294 116.619403 L 520.546604 118.589924 L 520.424552 120.560360 L 520.306492 122.531040 L 520.186858 124.501625 L 520.071268 126.472452 L 519.953559 128.443153 L 519.838763 130.414027 L 519.723126 132.384852 L 519.609475 134.355793 L 519.496188 136.326754 L 519.384142 138.297787 L 519.273362 140.268891 L 519.163210 142.240030 L 519.055164 144.211286 L 518.949367 146.182664 L 518.845204 148.154129 L 518.742981 150.125694 L 518.645668 152.097509 L 518.549704 154.069386 L 518.463833 156.041731 L 518.376561 158.014002 L 518.309176 159.987060 L 518.230515 161.959664 L 518.190121 163.933438 L 518.120019 165.906325 L 518.112346 167.880502 L 518.070682 169.854237 L 518.080192 171.828422 L 518.067053 173.802587 L 518.078092 175.776759 L 518.047012 177.750721 L 517.974651 179.723609 L 517.899916 181.696409" fill="none" stroke="black" stroke-width="1.000000" />
	<path d="M 584.284668 59.536808 L 583.355962 61.268238 L 582.430598 63.001456 L 581.504752 64.734406 L 580.585730 66.470987 L 579.673324 68.211034 L 578.767831 69.954686 L 577.867139 71.700846 L 576.982903 73.455385 L 576.106042 75.213640 L 575.242987 76.978681 L 574.387688 78.747526 L 573.545421 80.522572 L 572.710710 82.301224 L 571.887197 84.085041 L 571.071338 85.872416 L 570.263771 87.663506 L 569.465586 89.458844 L 568.672913 91.256593 L 567.888435 93.057963 L 567.106771 94.860541 L 566.331389 96.665846 L 565.555965 98.471130 L 564.783792 100.277810 L 564.008643 102.083216 L 563.235407 103.889436 L 562.468709 105.698447 L 561.704558 107.508534 L 560.946364 109.321123 L 560.190789 111.134805 L 559.433848 112.947911 L 558.681027 114.762730 L 557.922037 116.574981 L 557.167153 118.388943 L 556.405574 120.200107 L 555.648841 122.013298 L 554.884562 123.823324 L 554.126761 125.636073 L 553.362229 127.445995 L 552.603743 129.258463 L 551.840633 131.068990 L 551.080894 132.880934 L 550.318457 134.691746 L 549.556831 136.502899 L 548.794367 138.313699 L 548.029954 140.123676 L 547.266770 141.934172 L 546.499575 143.742972 L 545.735831 145.553232 L 544.967901 147.361721 L 544.203621 149.171755 L 543.435900 150.980332 L 542.669980 152.789673 L 541.901772 154.598044 L 541.133736 156.406488 L 540.364781 158.214541 L 539.595412 160.022418 L 538.825618 161.830115 L 538.055260 163.637571 L 537.286601 165.445750" fill="none" stroke="black" stroke-width="1.000000" />
	<path d="M 545.684166 167.070000 L 546.320679 165.205724 L 546.957475 163.341545 L 547.596455 161.478113 L 548.236101 159.614910 L 548.878247 157.752567 L 549.521497 155.890605 L 550.167283 154.029521 L 550.814397 152.168898 L 551.463473 150.308959 L 552.114196 148.449595 L 552.766561 146.590807 L 553.420890 144.732709 L 554.076546 142.875079 L 554.734493 141.018260 L 555.393464 139.161803 L 556.055075 137.306286 L 556.717458 135.451044 L 557.382661 133.596812 L 558.048319 131.742743 L 558.717161 129.889820 L 559.386480 128.037069 L 560.058571 126.185322 L 560.731448 124.333860 L 561.406870 122.483326 L 562.083348 120.633177 L 562.762064 118.783848 L 563.442139 116.935018 L 564.124149 115.086902 L 564.807821 113.239399 L 565.493115 111.392497 L 566.180277 109.546290 L 566.868440 107.700456 L 567.557794 105.855065 L 568.245638 104.009112 L 568.934847 102.163668 L 569.624674 100.318455 L 570.314745 98.473333 L 571.005099 96.628316 L 571.694419 94.782914 L 572.383915 92.937577 L 573.070302 91.091082 L 573.756817 89.244633 L 574.438488 87.396393 L 575.119994 85.548090 L 575.795345 83.697533 L 576.469976 81.846710 L 577.138024 79.993506 L 577.804453 78.139714 L 578.464900 76.283790 L 579.122616 74.426889 L 579.776025 72.568475 L 580.425805 70.708782 L 581.071710 68.847745 L 581.717789 66.986764 L 582.359931 65.124422 L 583.003035 63.262410 L 583.643457 61.399473 L 584.284668 59.536808" fill="none" stroke="black" stroke-width="1.000000" />
	<path d="M 532.109742 1.685900 L 531.621838 1.762477 L 531.133934 1.839053 L 530.646030 1.915629 L 530.157167 1.984078 L 529.664834 2.023097 L 529.172501 2.062115 L 528.680168 2.101134 L 528.188807 2.149563 L 527.698901 2.212065 L 527.208995 2.274567 L 526.719089 2.337069 L 526.231956 2.417036 L 525.746776 2.509313 L 525.261597 2.601591 L 524.776417 2.693868 L 524.295846 2.807132 L 523.816651 2.926657 L 523.337456 3.046183 L 522.858261 3.165708 L 522.386814 3.312745 L 521.915667 3.460851 L 521.444521 3.608957 L 520.974700 3.760896 L 520.512732 3.935538 L 520.050764 4.110181 L 519.588796 4.284824 L 519.130694 4.468792 L 518.680628 4.672152 L 518.230562 4.875513 L 517.780497 5.078873 L 517.337725 5.297055 L 516.901994 5.529548 L 516.466262 5.762040 L 516.030531 5.994533 L 515.602619 6.240881 L 515.178343 6.493675 L 514.754068 6.746468 L 514.329792 6.999262 L 513.915607 7.268154 L 513.503149 7.539803 L 513.090692 7.811452 L 512.678573 8.083586 L 512.281159 8.376805 L 511.883746 8.670023 L 511.486333 8.963242 L 511.090998 9.259171 L 510.704659 9.566834 L 510.318319 9.874496 L 509.931980 10.182158 L 509.548865 10.493751 L 509.171716 10.812613 L 508.794567 11.131474 L 508.417417 11.450336 L 508.037911 11.766368 L 507.656170 12.079719 L 507.274430 12.393070 L 506.892690 12.706421 L 506.515137 13.024773 L 506.139585 13.345513 L 505.764032 13.666254 L 505.388479 13.986995 L 505.015783 14.311044 L 504.643635 14.635729 L 504.271487 14.960414 L 503.899339 15.285098" fill="none" stroke="black" stroke-width="1.000000" />
	<path d="M 88.030416 244.458942 L 86.457395 245.614732 L 84.876386 246.759570 L 83.299068 247.909487 L 81.709742 249.042741 L 80.109403 250.160386 L 78.492008 251.253175 L 76.856595 252.318798 L 75.204150 253.357811 L 73.534732 254.369315 L 71.850600 255.356140 L 70.152369 256.318493 L 68.439727 257.254946 L 66.717216 258.173170 L 64.985583 259.074067 L 63.242572 259.952707 L 61.493636 260.819572 L 59.738691 261.674178 L 57.973748 262.507880 L 56.203118 263.329528 L 54.429228 264.144108 L 52.648401 264.943346 L 50.862393 265.731008 L 49.073930 266.513080 L 47.280725 267.284175 L 45.483192 268.045170 L 43.683145 268.800194 L 41.879284 269.546043 L 40.071658 270.282741 L 38.261669 271.013613 L 36.448773 271.737236 L 34.632923 272.453426 L 32.815442 273.165468 L 30.996374 273.873447 L 29.175945 274.577921 L 27.354784 275.280499 L 25.532730 275.980759 L 23.710109 276.679543 L 21.887427 277.378166 L 20.065222 278.078035 L 18.243116 278.778160 L 16.421520 279.479610 L 14.600466 280.182467 L 12.780616 280.888432 L 10.962820 281.599674 L 9.145628 282.312454 L 7.332765 283.036021 L 5.512715 283.741333 L 3.699139 284.463113 L 1.872837 285.152155 L 0.048716 285.846863" fill="none" stroke="black" stroke-width="1.000000" />
	<path d="M 535.116756 19.213036 L 534.683852 18.967171 L 534.250949 18.721305 L 533.818045 18.475440 L 533.384658 18.230580 L 532.921972 18.046795 L 532.459286 17.863009 L 531.996601 17.679223 L 531.532131 17.501174 L 531.046796 17.390242 L 530.561462 17.279310 L 530.076127 17.168379 L 529.589326 17.068625 L 529.091802 17.050572 L 528.594279 17.032519 L 528.096755 17.014466 L 527.599935 17.012010 L 527.106053 17.074752 L 526.612172 17.137495 L 526.118290 17.200238 L 525.627914 17.280140 L 525.148990 17.416109 L 524.670067 17.552079 L 524.191143 17.688048 L 523.719431 17.843640 L 523.266455 18.050202 L 522.813479 18.256764 L 522.360502 18.463326 L 521.912870 18.680559 L 521.476148 18.919577 L 521.039426 19.158595 L 520.602704 19.397613 L 520.174599 19.650862 L 519.760396 19.927071 L 519.346193 20.203279 L 518.931990 20.479488 L 518.519352 20.758013 L 518.108671 21.039432 L 517.697990 21.320851 L 517.287309 21.602270 L 516.893450 21.905632 L 516.515041 22.229147 L 516.136632 22.552662 L 515.758222 22.876177 L 515.413183 23.233144 L 515.088741 23.610758 L 514.764298 23.988373 L 514.439855 24.365987 L 514.136565 24.760453 L 513.840999 25.161073 L 513.545433 25.561693 L 513.249867 25.962312 L 513.000387 26.392395 L 512.760837 26.828825 L 512.521287 27.265255 L 512.281738 27.701686 L 512.088114 28.160122 L 511.898054 28.620267 L 511.707993 29.080411 L 511.519763 29.541159 L 511.398348 30.023978 L 511.276932 30.506797 L 511.155517 30.989615 L 511.039657 31.473584 L 510.959513 31.964941 L 510.879370 32.456299 L 510.799226 32.947657 L 510.719170 33.439029 L 510.639388 33.930446 L 510.559605 34.421863 L 510.479823 34.913279 L 510.425155 35.406989 L 510.414617 35.904728 L 510.404079 36.402468 L 510.393541 36.900207 L 510.402944 37.397623 L 510.429628 37.894758 L 510.456313 38.391894 L 510.482997 38.889029 L 510.546103 39.382167 L 510.627873 39.873257 L 510.709643 40.364347 L 510.793178 40.855023 L 510.938070 41.331323 L 511.082962 41.807624 L 511.227853 42.283924 L 511.393856 42.752377 L 511.595236 43.207681 L 511.796616 43.662985 L 511.997996 44.118289 L 512.234410 44.555124 L 512.496267 44.978546 L 512.758125 45.401968 L 513.019982 45.825390 L 513.395884 46.134891 L 513.819023 46.397206 L 514.242162 46.659520 L 514.665418 46.921646 L 515.089092 47.183096 L 515.512766 47.444545 L 515.936439 47.705995 L 516.370511 47.948011 L 516.823120 48.155376 L 517.275730 48.362741 L 517.728339 48.570106 L 518.192711 48.746543 L 518.668728 48.892364 L 519.144745 49.038185 L 519.620761 49.184005 L 520.104299 49.299425 L 520.593397 49.392369 L 521.082495 49.485314 L 521.571593 49.578258 L 522.065702 49.631218 L 522.562611 49.661828 L 523.059520 49.692438 L 523.556429 49.723048 L 524.053829 49.721709 L 524.551444 49.706390 L 525.049059 49.691071 L 525.546675 49.675752 L 526.044278 49.660055 L 526.541877 49.644228 L 527.039476 49.628400 L 527.537076 49.612572 L 528.029273 49.542615 L 528.520186 49.459792 L 529.011100 49.376969 L 529.502013 49.294146 L 529.982192 49.164312 L 530.460400 49.025846 L 530.938608 48.887381 L 531.416816 48.748915 L 531.877596 48.561439 L 532.335863 48.366898 L 532.794131 48.172357 L 533.252399 47.977816 L 533.686369 47.734610 L 534.117249 47.485214 L 534.548128 47.235818 L 534.979008 46.986422 L 535.374348 46.684459 L 535.766331 46.377531 L 536.158315 46.070604 L 536.550299 45.763677 L 536.879292 45.390915 L 537.203218 45.012858 L 537.527143 44.634800 L 537.851069 44.256742 L 538.141236 43.852410 L 538.428190 43.445577 L 538.715143 43.038744 L 539.002097 42.631910 L 539.253115 42.202249 L 539.499443 41.769608 L 539.745772 41.336968 L 539.992100 40.904327 L 540.198702 40.451786 L 540.397702 39.995437 L 540.596703 39.539088 L 540.795704 39.082740 L 540.960017 38.613160 L 541.115482 38.140205 L 541.270946 37.667250 L 541.426411 37.194295 L 541.549562 36.712319 L 541.661567 36.227231 L 541.773573 35.742143 L 541.885579 35.257055 L 541.958389 34.765301 L 542.013053 34.270460 L 542.067717 33.775619 L 542.122381 33.280778 L 542.128547 32.784316 L 542.107052 32.286929 L 542.085557 31.789543 L 542.064062 31.292156 L 542.007846 30.798456 L 541.924411 30.307647 L 541.840976 29.816837 L 541.757540 29.326027 L 541.647986 28.841119 L 541.512288 28.362119 L 541.376591 27.883118 L 541.240894 27.404117 L 541.085947 26.931626 L 540.903041 26.468592 L 540.720135 26.005558 L 540.537228 25.542523 L 540.336892 25.087681 L 540.097105 24.651381 L 539.857317 24.215081 L 539.617530 23.778781 L 539.365253 23.350523 L 539.067343 22.951643 L 538.769433 22.552763 L 538.471523 22.153883 L 538.167008 21.760858 L 537.806731 21.417264 L 537.446455 21.073671 L 537.086178 20.730078 L 536.724332 20.388361 L 536.322438 20.094530 L 535.920544 19.800699 L 535.518650 19.506868 L 535.116756 19.213036" fill="none" stroke="black" stroke-width="1.000000" />
	<path d="M 604.026851 55.334523 L 604.367703 54.970758 L 604.708556 54.606993 L 605.049409 54.243228 L 605.387062 53.876718 L 605.694901 53.484620 L 606.002740 53.092523 L 606.310579 52.700425 L 606.608992 52.301669 L 606.875655 51.880485 L 607.142318 51.459301 L 607.408981 51.038116 L 607.655544 50.606054 L 607.862308 50.152453 L 608.069073 49.698852 L 608.275837 49.245251 L 608.440672 48.777209 L 608.557080 48.292488 L 608.673489 47.807767 L 608.789898 47.323046 L 608.867804 46.831974 L 608.913245 46.335546 L 608.958685 45.839119 L 609.004125 45.342691 L 609.018067 44.845006 L 609.012323 44.346536 L 609.006579 43.848066 L 609.000835 43.349596 L 608.960955 42.853239 L 608.905188 42.357865 L 608.849422 41.862491 L 608.793655 41.367117 L 608.697939 40.878484 L 608.588078 40.392237 L 608.478218 39.905990 L 608.368357 39.419743 L 608.219516 38.944410 L 608.060920 38.471808 L 607.902324 37.999206 L 607.743729 37.526604 L 607.548470 37.068233 L 607.346673 36.612401 L 607.144876 36.156568 L 606.943079 35.700736 L 606.687434 35.273194 L 606.426560 34.848400 L 606.165686 34.423606 L 605.904812 33.998812 L 605.586899 33.615103 L 605.266635 33.233086 L 604.946372 32.851070 L 604.626108 32.469053 L 604.249781 32.142216 L 603.872904 31.815921 L 603.496026 31.489625 L 603.117653 31.165326 L 602.698634 30.895274 L 602.279614 30.625222 L 601.860595 30.355170 L 601.441562 30.085138 L 601.022245 29.815549 L 600.602928 29.545959 L 600.183611 29.276370 L 599.762248 29.010401 L 599.314966 28.790302 L 598.867683 28.570202 L 598.420401 28.350103 L 597.971338 28.134206 L 597.502030 27.966113 L 597.032722 27.798020 L 596.563415 27.629926 L 596.092789 27.466287 L 595.607541 27.352099 L 595.122292 27.237912 L 594.637043 27.123724 L 594.151005 27.013662 L 593.657860 26.940766 L 593.164716 26.867871 L 592.671571 26.794975 L 592.177965 26.726907 L 591.679947 26.704919 L 591.181929 26.682932 L 590.683911 26.660944 L 590.186164 26.647608 L 589.690502 26.700753 L 589.194840 26.753898 L 588.699178 26.807043 L 588.237872 26.992688 L 587.778839 27.187093 L 587.319805 27.381498 L 586.889005 27.632296 L 586.458329 27.883340 L 586.027652 28.134384 L 585.596975 28.385427 L 585.223003 28.714414 L 584.851576 29.046902 L 584.480150 29.379389 L 584.108723 29.711876 L 583.784938 30.090252 L 583.466590 30.473867 L 583.148243 30.857482 L 582.829896 31.241097 L 582.556934 31.657568 L 582.291906 32.079783 L 582.026877 32.501997 L 581.761848 32.924212 L 581.524484 33.362420 L 581.290835 33.802776 L 581.057187 34.243133 L 580.823539 34.683489 L 580.626128 35.140885 L 580.436035 35.601721 L 580.245943 36.062557 L 580.055850 36.523394 L 579.899354 36.996325 L 579.752074 37.472575 L 579.604794 37.948825 L 579.457514 38.425075 L 579.339983 38.909192 L 579.232593 39.395990 L 579.125203 39.882789 L 579.017813 40.369587 L 578.940737 40.861709 L 578.875833 41.355969 L 578.810930 41.850229 L 578.746026 42.344489 L 578.701718 42.840818 L 578.667014 43.338111 L 578.632311 43.835405 L 578.597607 44.332699 L 578.588809 44.830778 L 578.593324 45.329260 L 578.597839 45.827743 L 578.602355 46.326226 L 578.622162 46.824210 L 578.650092 47.321930 L 578.678022 47.819650 L 578.705952 48.317370 L 578.760120 48.812534 L 578.828795 49.306284 L 578.897470 49.800034 L 578.966144 50.293784 L 579.063845 50.782132 L 579.177400 51.267529 L 579.290955 51.752927 L 579.404510 52.238324 L 579.550600 52.714281 L 579.714483 53.185076 L 579.878365 53.655871 L 580.042247 54.126666 L 580.255640 54.575851 L 580.489431 55.016131 L 580.723223 55.456412 L 580.958101 55.896035 L 581.239253 56.307689 L 581.520405 56.719343 L 581.801557 57.130996 L 582.086776 57.539422 L 582.423951 57.906598 L 582.761126 58.273774 L 583.098301 58.640951 L 583.441325 59.001836 L 583.831964 59.311525 L 584.222602 59.621214 L 584.613240 59.930903 L 585.029590 60.201067 L 585.471027 60.432667 L 585.912464 60.664268 L 586.353901 60.895868 L 586.812771 61.087117 L 587.283980 61.249803 L 587.755190 61.412489 L 588.226400 61.575175 L 588.709283 61.693699 L 589.199335 61.785099 L 589.689387 61.876500 L 590.179440 61.967900 L 590.674910 62.003002 L 591.173399 62.006729 L 591.671888 62.010456 L 592.170377 62.014184 L 592.666070 61.971962 L 593.160429 61.907819 L 593.654789 61.843676 L 594.149148 61.779533 L 594.630026 61.654792 L 595.104955 61.503307 L 595.579884 61.351822 L 596.054814 61.200337 L 596.511695 61.003331 L 596.961405 60.788234 L 597.411114 60.573136 L 597.860823 60.358039 L 598.288469 60.103428 L 598.707520 59.833426 L 599.126572 59.563424 L 599.545623 59.293421 L 599.932973 58.980817 L 600.311956 58.656970 L 600.690940 58.333123 L 601.069923 58.009277 L 601.446545 57.682689 L 601.822771 57.355643 L 602.198998 57.028598 L 602.575225 56.701552 L 602.938745 56.360472 L 603.301447 56.018489 L 604.026851 55.334523" fill="none" stroke="black" stroke-width="1.000000" />
	<path d="M 521.577895 29.723221 L 521.469336 30.211240 L 521.360777 30.699258 L 521.252218 31.187277 L 521.160419 31.677847 L 521.118866 32.176064 L 521.077314 32.674281 L 521.035762 33.172499 L 521.058692 33.669498 L 521.119031 34.165791 L 521.179370 34.662084 L 521.273998 35.152271 L 521.388666 35.638891 L 521.503333 36.125510 L 521.650593 36.594697 L 521.991698 36.960204 L 522.332802 37.325711 L 522.673906 37.691217 L 523.103550 37.795775 L 523.596650 37.713313 L 524.089749 37.630851 L 524.582849 37.548389 L 524.897789 37.200707 L 525.160584 36.775401 L 525.423379 36.350094 L 525.686175 35.924787 L 525.911381 35.478617 L 526.133305 35.030624 L 526.355228 34.582632 L 526.557371 34.126622 L 526.710011 33.650546 L 526.862650 33.174470 L 527.015290 32.698394 L 527.097423 32.209337 L 527.124347 31.710115 L 527.151271 31.210893 L 527.178195 30.711672 L 527.100180 30.217880 L 527.021872 29.724104 L 526.943521 29.230334 L 526.864777 28.736627 L 526.786034 28.242920 L 526.707290 27.749213 L 526.411522 27.349898 L 526.104067 26.955666 L 525.796613 26.561434 L 525.440991 26.597158 L 525.053923 26.913584 L 524.666855 27.230010 L 524.279787 27.546437 L 523.940831 27.911177 L 523.622779 28.296910 L 523.304727 28.682644 L 523.027898 29.093997 L 522.822849 29.549960 L 522.617800 30.005922 L 522.412751 30.461885 L 522.243859 30.930371 L 522.122961 31.415481 L 522.002064 31.900590 L 521.881167 32.385699 L 521.915990 32.880697 L 521.974553 33.377202 L 522.033445 33.873669 L 522.092556 34.370109 L 522.210777 35.362990" fill="none" stroke="black" stroke-width="1.000000" />
	<path d="M 591.734406 34.153405 L 591.245705 34.078922 L 590.757003 34.004439 L 590.268302 33.929956 L 589.779649 33.855156 L 589.291016 33.780223 L 588.802384 33.705289 L 588.327332 33.710368 L 587.890792 33.942336 L 587.454251 34.174304 L 587.061497 34.459943 L 586.746602 34.841018 L 586.431707 35.222093 L 586.116812 35.603167 L 585.843804 36.013646 L 585.592395 36.439287 L 585.340986 36.864929 L 585.093312 37.292489 L 584.893574 37.744685 L 584.693836 38.196882 L 584.494097 38.649078 L 584.362078 39.118986 L 584.314843 39.611069 L 584.267609 40.103152 L 584.220374 40.595235 L 584.394714 41.036679 L 584.651018 41.459391 L 584.907322 41.882103 L 585.165875 42.301912 L 585.639144 42.444716 L 586.112413 42.587521 L 586.585683 42.730326 L 587.058952 42.873130 L 587.523684 42.716832 L 587.988038 42.547266 L 588.452392 42.377700 L 588.916745 42.208135 L 589.270913 41.877286 L 589.597699 41.506358 L 589.924484 41.135430 L 590.251270 40.764501 L 590.553850 40.373974 L 590.848671 39.977165 L 591.143491 39.580355 L 591.438312 39.183546 L 591.660591 38.744493 L 591.860212 38.292245 L 592.059832 37.839996 L 592.259453 37.387748 L 592.380410 36.910907 L 592.473935 36.425490 L 592.567459 35.940073 L 592.373786 35.491532 L 592.160660 35.045490 L 591.734406 34.153405" fill="none" stroke="black" stroke-width="1.000000" />
	<path d="M 591.903143 34.711884 L 591.496990 34.987004 L 591.102339 35.277031 L 590.740373 35.607946 L 590.404246 35.964745 L 590.107098 36.354601 L 589.846392 36.768637 L 589.680824 37.230415 L 589.650525 37.692148 L 589.995835 37.982888 L 590.382312 37.746946 L 590.696841 37.371636 L 590.944614 36.949398 L 591.156804 36.507101 L 591.029979 36.094898 L 590.636995 35.824154 L 590.171046 35.970634 L 589.729136 36.183628 L 589.283982 36.389678 L 588.836847 36.591475 L 588.389602 36.793027 L 587.942127 36.994066 L 587.493698 37.192968 L 587.044595 37.390346 L 586.144166 37.780000" fill="none" stroke="black" stroke-width="1.000000" />
	<path d="M 597.302662 11.562946 L 597.792470 11.604455 L 598.282278 11.645964 L 598.772087 11.687472 L 599.261811 11.729753 L 599.749113 11.794339 L 600.236416 11.858925 L 600.723718 11.923511 L 601.210666 11.990188 L 601.691988 12.090005 L 602.173311 12.189822 L 602.654634 12.289640 L 603.135205 12.392498 L 603.607592 12.528458 L 604.079980 12.664418 L 604.552367 12.800378 L 605.023452 12.940274 L 605.483703 13.112912 L 605.943954 13.285550 L 606.404205 13.458188 L 606.862513 13.635446 L 607.307785 13.843697 L 607.753056 14.051948 L 608.198327 14.260199 L 608.637745 14.478644 L 609.042054 14.758232 L 609.446363 15.037819 L 609.850672 15.317406 L 610.252544 15.600302 L 610.639429 15.903543 L 611.026314 16.206784 L 611.413199 16.510026 L 611.798475 16.815238 L 612.173227 17.133352 L 612.547979 17.451465 L 612.922730 17.769578 L 613.289819 18.095243 L 613.602408 18.474615 L 613.914998 18.853987 L 614.227587 19.233358 L 614.540796 19.612210 L 614.859845 19.986167 L 615.178893 20.360123 L 615.497941 20.734079 L 615.815130 21.109518 L 616.108776 21.503735 L 616.402421 21.897953 L 616.696067 22.292170 L 616.990717 22.685593 L 617.306463 23.062342 L 617.622209 23.439091 L 617.937954 23.815840 L 618.253012 24.193126 L 618.542417 24.590467 L 618.831822 24.987808 L 619.410631 25.782491" fill="none" stroke="black" stroke-width="1.000000" />
</svg>