<?xml version="1.0" encoding="utf-8" ?>
<svg baseProfile="full" height="430" version="1.1" viewBox="0,0,623,430" width="623" xmlns="http://www.w3.org/2000/svg" xmlns:ev="http://www.w3.org/2001/xml-events" xmlns:xlink="http://www.w3.org/1999/xlink">
	<path d="M 482.444336 295.719421 L 483.282822 297.499065 L 484.192327 299.244241 L 485.048254 301.013483 L 486.024751 302.721367 L 487.013709 304.420464 L 488.093652 306.064905 L 489.211669 307.680220 L 490.372243 309.269512 L 491.593275 310.813025 L 492.868825 312.311463 L 494.200651 313.760408 L 495.582646 315.161404 L 497.014935 316.511179 L 498.491726 317.811944 L 500.014672 319.058562 L 501.577748 320.254339 L 503.182845 321.393234 L 504.824638 322.478508 L 506.502913 323.506544 L 508.213625 324.479674 L 509.954249 325.398286 L 511.721404 326.264816 L 513.512535 327.080631 L 515.326194 327.845109 L 517.160494 328.558534 L 519.015453 329.216575 L 520.886428 329.827483 L 522.773345 330.387456 L 524.671571 330.907681 L 526.581648 331.382759 L 528.500565 331.820425 L 530.430827 332.205303 L 532.368804 332.548982 L 534.315256 332.841038 L 536.268268 333.085051 L 538.227536 333.273052 L 540.190253 333.419986 L 542.156379 333.511609 L 544.124035 333.559494 L 546.092285 333.557473 L 548.059898 333.507806 L 550.025614 333.407663 L 551.988613 333.263973 L 553.947480 333.071860 L 555.901478 332.835320 L 557.849406 332.553127 L 559.789937 332.223910 L 561.721688 331.846478 L 563.644831 331.427461 L 565.556521 330.958928 L 567.456318 330.444208 L 569.346065 329.893767 L 571.222680 329.300132 L 573.083168 328.657675 L 574.930090 327.977238 L 576.758495 327.248512 L 578.566453 326.470388 L 580.358090 325.655403 L 582.129296 324.796945 L 583.873732 323.885288 L 585.594889 322.930377 L 587.300106 321.947292 L 588.984561 320.929055 L 590.639975 319.864226 L 592.281114 318.777530 L 593.899664 317.657457 L 595.522972 316.544292 L 597.142117 315.425079" fill="none" stroke="black" stroke-width="1.000000" />
	<path d="M 230.512146 167.303452 L 232.490643 167.447280 L 234.469176 167.590628 L 236.449192 167.708709 L 238.426840 167.863081 L 240.406052 167.990473 L 242.381535 168.170380 L 244.354680 168.371292 L 246.326230 168.589151 L 248.292443 168.851005 L 250.256207 169.128707 L 252.214614 169.443125 L 254.167225 169.791289 L 256.114914 170.166031 L 258.055324 170.577083 L 259.989549 171.015978 L 261.916536 171.485907 L 263.835908 171.986074 L 265.747894 172.513748 L 267.652086 173.069019 L 269.547439 173.653649 L 271.435260 174.262174 L 273.318153 174.886393 L 275.187637 175.549731 L 277.047746 176.238950 L 278.900046 176.948919 L 280.740581 177.688765 L 282.574426 178.445154 L 284.397807 179.226349 L 286.209222 180.034908 L 288.013499 180.859341 L 289.804404 181.712316 L 291.589263 182.578000 L 293.366648 183.458893 L 295.131014 184.365520 L 296.889863 185.282899 L 298.631117 186.233035 L 300.361680 187.202702 L 302.073499 188.204911 L 303.763298 189.243844 L 305.435799 190.310479 L 307.092576 191.401381 L 308.732526 192.517407 L 310.354519 193.659368 L 311.955626 194.830399 L 313.536979 196.028004 L 315.113016 197.232682 L 316.677805 198.451876 L 318.229778 199.687371 L 319.764226 200.944508 L 321.271131 202.234427 L 322.779930 203.522267 L 324.282890 204.816917 L 325.782512 206.115483 L 327.290952 207.403766 L 328.806320 208.683919 L 330.327060 209.957681 L 331.851271 211.227294 L 333.371760 212.501354 L 334.893480 213.773946 L 336.415617 215.046045 L 337.937792 216.318101 L 339.466471 217.582312 L 340.995831 218.845715 L 342.530360 220.102812 L 344.068601 221.355392 L 345.610625 222.603302 L 347.159778 223.842345 L 348.714055 225.074967 L 350.273318 226.301269 L 351.837713 227.521021 L 353.406588 228.735006 L 354.982216 229.940199 L 356.564775 231.136286 L 358.153631 232.323993 L 359.748827 233.503172 L 361.350480 234.673564 L 362.959298 235.834083 L 364.577159 236.981946 L 366.198136 238.125435 L 367.828418 239.255510 L 369.464890 240.376712 L 371.106882 241.489761 L 372.757351 242.590247 L 374.413264 243.682524 L 376.078974 244.759741 L 377.747871 245.832075 L 379.422673 246.895069 L 381.107280 247.942552 L 382.795807 248.983709 L 384.494422 250.008208 L 386.204467 251.013614 L 387.923555 252.003439 L 389.655103 252.971259 L 391.396059 253.922146 L 393.148662 254.851199 L 394.914286 255.755434 L 396.691377 256.636787 L 398.483005 257.488230 L 400.287177 258.312798 L 402.106166 259.103920 L 403.940293 259.859495 L 405.785911 260.586530 L 407.640200 261.291299 L 409.500153 261.980963 L 411.368870 262.646338 L 413.245790 263.288424 L 415.129926 263.908775 L 417.024418 264.496834 L 418.926433 265.060195 L 420.836508 265.595295 L 422.755128 266.099217 L 424.679605 266.580187 L 426.611349 267.030968 L 428.548747 267.457110 L 430.491054 267.859797 L 432.439771 268.230681 L 434.392178 268.581571 L 436.348929 268.907215 L 438.309171 269.211472 L 440.273078 269.489898 L 442.241616 269.734841 L 444.211672 269.966765 L 446.184784 270.171359 L 448.158763 270.367586 L 450.134572 270.538993 L 452.113958 270.668362 L 454.091760 270.821372 L 456.071355 270.945892 L 458.053122 271.033823 L 460.035348 271.104764 L 462.018558 271.146517 L 464.001039 271.216248 L 465.983278 271.292716 L 467.965960 271.356025 L 469.948967 271.408836 L 471.931921 271.462856 L 473.915181 271.505126 L 475.897903 271.566167 L 477.880239 271.638197 L 479.862817 271.700630 L 481.844612 271.783672 L 483.827765 271.830341 L 485.810805 271.865373 L 487.793429 271.814119 L 489.774211 271.707503 L 491.755458 271.611882 L 493.733995 271.468917 L 495.710361 271.299250 L 497.682487 271.086254 L 499.649603 270.830346 L 501.612807 270.546414 L 503.569685 270.221579 L 505.519736 269.858222 L 507.460968 269.450242 L 509.394657 269.007598 L 511.323743 268.545409 L 513.245867 268.055086 L 515.160693 267.536931 L 517.069015 266.995341 L 518.970131 266.428927 L 520.865148 265.842433 L 522.753759 265.235628 L 524.635826 264.608804 L 526.511943 263.964389 L 528.382459 263.303867 L 530.249083 262.632438 L 532.109963 261.945267 L 533.964443 261.240973 L 535.814907 260.526229 L 537.658661 259.794307 L 539.500560 259.057734 L 541.339114 258.312877 L 543.170818 257.551321 L 544.996518 256.775478 L 546.815899 255.984955 L 548.626145 255.173728 L 550.427418 254.342765 L 552.219269 253.491685 L 554.000835 252.619264 L 555.773403 251.728706 L 557.536515 250.819569 L 559.289905 249.891822 L 561.033385 248.945580 L 562.766565 247.980602 L 564.489216 246.996950 L 566.201754 245.995789 L 567.904574 244.978197 L 569.594995 243.940133 L 571.274193 242.884009 L 572.941762 241.809621 L 574.596236 240.715167 L 576.239997 239.604694 L 577.870375 238.474659 L 579.489023 237.327881 L 581.097676 236.167130 L 582.692368 234.987263 L 584.279269 233.796935 L 585.858373 232.596284 L 587.431867 231.388289 L 588.997797 230.170519 L 590.544033 228.927823 L 592.088349 227.682741 L 593.634304 226.439766 L 595.128359 225.134810 L 596.596950 223.801257 L 598.045256 222.445698 L 599.474567 221.070124 L 600.887872 219.678107 L 602.294751 218.279597" fill="none" stroke="black" stroke-width="1.000000" />
	<path d="M 364.623413 306.144409 L 366.541665 306.382050 L 368.460460 306.615253 L 370.379846 306.843552 L 372.301090 307.055601 L 374.222719 307.264178 L 376.145558 307.461253 L 378.070466 307.636845 L 379.997473 307.787589 L 381.926094 307.916103 L 383.856147 308.020812 L 385.787338 308.101873 L 387.719400 308.158296 L 389.652019 308.190440 L 391.584887 308.197630 L 393.517696 308.180565 L 395.450133 308.139168 L 397.382011 308.076533 L 399.313146 307.994167 L 401.243273 307.890910 L 403.172255 307.768007 L 405.099975 307.626686 L 407.026213 307.466463 L 408.950950 307.289021 L 410.874238 307.096487 L 412.796249 306.891527 L 414.717369 306.678343 L 416.637252 306.454409 L 418.554890 306.212116 L 420.469862 305.949526 L 422.382173 305.668210 L 424.291510 305.367406 L 426.197717 305.047295 L 428.100771 304.709023 L 430.000214 304.350943 L 431.895958 303.973910 L 433.786611 303.572033 L 435.672189 303.147117 L 437.551111 302.693550 L 439.424161 302.216411 L 441.289669 301.710466 L 443.149488 301.184045 L 445.002118 300.632776 L 446.850357 300.066994 L 448.689607 299.472640 L 450.525924 298.869471 L 452.357792 298.252916 L 454.184362 297.620784 L 456.008606 296.981842" fill="none" stroke="black" stroke-width="1.000000" />
	<path d="M 544.250122 280.030792 L 545.844098 281.066048 L 547.447677 282.085785 L 549.058054 283.095510 L 550.677863 284.090069 L 552.293320 285.091718 L 553.912107 286.087959 L 555.536352 287.075293 L 557.164263 288.056553 L 558.797938 289.028201 L 560.436928 289.990830 L 562.082304 290.942528 L 563.732973 291.884996 L 565.389829 292.816558 L 567.052389 293.737889 L 568.717572 294.654495 L 570.381493 295.573391 L 572.047897 296.487759 L 573.720184 297.391317 L 575.398319 298.283972 L 577.081947 299.166222 L 578.771560 300.036947 L 580.468218 300.893855 L 582.171609 301.737324 L 583.879367 302.571923 L 585.589976 303.400669 L 587.302148 304.226177 L 589.017233 305.045612 L 590.735534 305.858290 L 592.448677 306.681498 L 594.125785 307.573896 L 595.705087 308.631494 L 597.247714 309.741872 L 598.731922 310.927064 L 599.884032 312.438900" fill="none" stroke="black" stroke-width="1.000000" />
	<path d="M 620.078308 234.437012 L 618.476061 235.616355 L 616.869366 236.789631 L 615.254058 237.951020 L 613.632746 239.104012 L 612.005176 240.248154 L 610.377783 241.392548 L 608.745755 242.530322 L 607.116078 243.671462 L 605.480919 244.804731 L 603.846074 245.938453 L 602.206682 247.065590 L 600.567847 248.193538 L 598.928070 249.320115 L 597.290214 250.449484 L 595.652000 251.578333 L 594.014734 252.708557 L 592.376146 253.836862 L 590.735183 254.961711 L 589.091150 256.082068 L 587.440993 257.193384 L 585.784791 258.295671 L 584.120872 259.386274 L 582.448526 260.463907 L 580.769189 261.530616 L 579.081654 262.584305 L 577.388218 263.628486 L 575.688037 264.661648 L 573.979707 265.681277 L 572.262296 266.685533 L 570.533608 267.670245 L 568.794053 268.635631 L 567.043702 269.581301 L 565.283170 270.507880 L 563.512735 271.415393 L 561.731493 272.301501 L 559.940382 273.167493 L 558.140247 274.014566 L 556.332542 274.845367 L 554.521067 275.667921 L 552.702985 276.475762 L 550.879606 277.271579 L 549.050563 278.054289 L 547.215432 278.822613 L 545.374086 279.575920 L 543.526775 280.314481 L 541.673866 281.038882 L 539.815337 281.748738 L 537.951292 282.443981 L 536.081635 283.123989 L 534.206746 283.789434 L 532.327372 284.442108 L 530.444198 285.083738 L 528.557218 285.714090 L 526.665709 286.330709 L 524.769619 286.933097 L 522.868740 287.520194 L 520.962278 288.088889 L 519.050187 288.638358 L 517.132992 289.169751 L 515.210507 289.681666 L 513.282730 290.173275 L 511.349639 290.643552 L 509.412043 291.094918 L 507.470351 291.528328 L 505.524605 291.943155 L 503.575725 292.343019 L 501.624947 292.733533 L 499.672274 293.114461 L 497.716917 293.481341 L 495.758680 293.832516 L 493.797323 294.165818 L 491.832781 294.479790 L 489.865148 294.773764 L 487.894766 295.048713 L 485.921881 295.305095 L 483.946860 295.544479 L 481.969900 295.767292 L 479.990985 295.971989 L 478.010529 296.161226 L 476.028653 296.334968 L 474.045128 296.488663 L 472.060155 296.622366 L 470.073966 296.736620 L 468.086826 296.832955 L 466.098923 296.912009 L 464.110347 296.971719 L 462.121253 297.010321 L 460.131845 297.025497 L 458.142408 297.015538 L 456.153291 296.978620 L 454.164877 296.914146 L 452.177505 296.823031 L 450.191594 296.704289 L 448.207518 296.558059 L 446.225786 296.382941 L 444.246932 296.177859 L 442.271207 295.944521 L 440.298915 295.683753 L 438.330821 295.393033 L 436.368473 295.065879 L 434.412437 294.702860 L 432.462897 294.306406 L 430.520090 293.878164 L 428.583815 293.421255 L 426.654230 292.936873 L 424.731034 292.427687 L 422.813458 291.897704 L 420.903642 291.340467 L 419.001257 290.758331 L 417.104244 290.158878 L 415.214093 289.538162 L 413.329930 288.899473 L 411.453684 288.237926 L 409.587727 287.547932 L 407.731310 286.832632 L 405.886390 286.088222 L 404.052633 285.316697 L 402.228600 284.522431 L 400.416940 283.700382 L 398.613928 282.859465 L 396.819685 282.000010 L 395.035974 281.118922 L 393.263806 280.214844 L 391.510203 279.275376 L 389.773431 278.305075 L 388.047214 277.316054 L 386.330475 276.310674 L 384.619710 275.295138 L 382.915215 274.269119 L 381.214516 273.236810 L 379.523874 272.188153 L 377.847877 271.116269 L 376.184207 270.025320 L 374.530479 268.919347 L 372.887480 267.797505 L 371.253689 266.662281 L 369.627964 265.515534 L 368.010111 264.357707 L 366.399563 263.189737 L 364.796098 262.012062 L 363.198625 260.826267 L 361.607063 259.632551 L 360.020949 258.431605 L 358.440122 257.223706 L 356.863301 256.010581 L 355.288476 254.794863 L 353.717803 253.573790 L 352.150365 252.348563 L 350.587212 251.117879 L 349.032246 249.876877 L 347.479639 248.632909 L 345.930318 247.384854 L 344.382343 246.135127 L 342.834435 244.885317 L 341.288597 243.632948 L 339.743665 242.379460 L 338.200762 241.123478 L 336.659843 239.865061 L 335.120945 238.604174 L 333.584761 237.339984 L 332.050539 236.073410 L 330.518971 234.803630 L 328.989721 233.531059 L 327.461814 232.256875 L 325.934354 230.982154 L 324.406652 229.707725 L 322.875314 228.437671 L 321.336743 227.176398 L 319.788276 225.927303 L 318.229494 224.691104 L 316.661807 223.466210 L 315.086694 222.250877 L 313.504775 221.044413 L 311.917026 219.845630 L 310.323346 218.654746 L 308.723617 217.471998 L 307.118026 216.297220 L 305.507068 215.129812 L 303.890704 213.969900 L 302.268762 212.817803 L 300.640648 211.674446 L 299.006757 210.539357 L 297.367185 209.412492 L 295.721528 208.294533 L 294.069648 207.185790 L 292.412160 206.085445 L 290.748469 204.994508 L 289.078318 203.913485 L 287.402100 202.841891 L 285.719096 201.780994 L 284.028394 200.732413 L 282.326685 199.701829 L 280.614827 198.688164 L 278.893098 197.691368 L 277.170644 196.695787 L 275.451786 195.694007 L 273.722995 194.709593 L 271.988914 193.734397 L 270.233391 192.798931 L 268.462081 191.893141 L 266.687089 190.994562 L 264.905866 190.108442 L 263.120616 189.230418 L 261.332200 188.358871 L 259.538480 187.498308 L 257.740900 186.645815 L 255.939733 185.800937 L 254.137673 184.957950 L 252.340519 184.104593 L 250.553826 183.229614 L 248.785429 182.318412 L 247.052969 181.341321 L 245.369290 180.282527 L 243.726054 179.161385 L 242.116458 177.992419 L 240.543880 176.774193 L 239.004446 175.514164 L 237.495913 174.217317 L 236.022077 172.881222 L 234.581802 171.508943 L 233.173358 170.104006 L 231.793489 168.670939 L 230.440523 167.212446 L 229.113907 165.729932 L 227.810786 164.226696 L 226.530000 162.704386 L 225.274276 161.161364 L 224.043832 159.598091 L 222.838379 158.015472 L 221.657480 156.414438 L 220.499950 154.796421 L 219.366790 153.161257 L 218.256941 151.510163 L 217.168517 149.844862 L 216.100406 148.166455 L 215.053778 146.474579 L 214.031274 144.768026 L 213.031269 143.048173 L 212.054499 141.315035 L 211.102708 139.568054 L 210.177123 137.807058 L 209.276311 136.033243 L 208.397910 134.248219 L 207.541671 132.452460 L 206.706467 130.646813 L 205.891962 128.831739 L 205.097836 127.007652 L 204.322913 125.175320 L 203.567785 123.334748 L 202.832565 121.486130 L 202.116198 119.630121 L 201.419287 117.766725 L 200.742248 115.896015 L 200.083471 114.018789 L 199.443602 112.135043 L 198.821465 110.245355 L 198.216647 108.350059 L 197.628864 106.449404 L 197.055063 104.544474 L 196.496571 102.635011 L 195.954432 100.720836 L 195.425407 98.802987 L 194.911125 96.881145 L 194.414918 94.954559 L 193.935301 93.023768 L 193.467706 91.090022 L 193.005242 89.155035 L 192.546773 87.219101 L 192.087848 85.283275 L 191.622745 83.348924 L 191.153387 81.415598 L 190.674248 79.484691 L 190.183185 77.556769 L 189.679660 75.632077 L 189.161068 73.711386 L 188.627828 71.794712 L 188.078007 69.882735 L 187.510462 67.975944 L 186.924211 66.074826 L 186.317440 64.180163 L 185.686587 62.293400 L 185.030477 60.415262 L 184.347510 58.546746 L 183.634472 56.689502 L 182.890895 54.844274 L 182.112391 53.013558 L 181.297076 51.198910 L 180.438905 49.404255 L 179.529263 47.635147 L 178.569373 45.892768 L 177.561836 44.177490 L 176.507351 42.490680 L 175.403270 40.835969 L 174.246553 39.217644 L 173.039645 37.636334 L 171.788538 36.089702 L 170.492730 34.580427 L 169.154662 33.108344 L 167.781252 31.669173 L 166.375590 30.261436 L 164.940610 28.883599 L 163.474667 27.538810 L 161.979916 26.226016 L 160.458440 24.944364 L 158.910467 23.694770 L 157.338293 22.475802 L 155.736288 21.296496 L 154.105509 20.157094 L 152.447839 19.057409 L 150.763096 17.999437 L 149.056609 16.976964 L 147.327841 15.992620 L 145.588563 15.026726 L 143.836104 14.085553 L 142.058127 13.193120 L 140.259305 12.343716 L 138.435742 11.548956 L 136.587902 10.812353 L 134.714380 10.144478 L 132.817738 9.544372 L 130.907960 8.987177 L 128.987289 8.468959 L 127.055867 7.992226 L 125.113117 7.564769 L 123.156300 7.207987 L 121.188088 6.919039 L 119.212112 6.690251 L 117.229966 6.521108 L 115.244151 6.404051 L 113.255778 6.342215 L 111.266499 6.331235 L 109.277706 6.375238 L 107.290795 6.473366 L 105.307163 6.623364 L 103.328171 6.825943 L 101.354959 7.078582 L 99.392993 7.406451 L 97.435928 7.759563 L 95.488609 8.162924 L 93.552535 8.617057 L 91.628776 9.120934 L 89.718684 9.674505 L 87.823016 10.275648 L 85.943264 10.924960 L 84.081569 11.623786 L 82.238232 12.369885 L 80.415463 13.165144 L 78.612476 14.004412 L 76.830771 14.888125 L 75.072175 15.816470 L 73.336674 16.787535 L 71.628457 17.805692 L 69.944628 18.863820 L 68.286552 19.962310 L 66.653335 21.097306 L 65.044138 22.266276 L 63.463295 23.472934 L 61.908322 24.712893 L 60.383033 25.989318 L 58.885591 27.298295 L 57.417779 28.640356 L 55.982176 30.016652 L 54.578536 31.425497 L 53.210805 32.869370 L 51.878954 34.346122 L 50.584144 35.855582 L 49.330603 37.399389 L 48.114829 38.973113 L 46.941789 40.579117 L 45.805369 42.211231 L 44.706450 43.869093 L 43.637220 45.546431 L 42.592405 47.239299 L 41.559502 48.939610" fill="none" stroke="black" stroke-width="1.000000" />
	<path d="M 100.900000 0.181394 L 102.694507 0.071495 L 104.492027 0.070331 L 106.280913 0.233620 L 108.048899 0.551102 L 109.779551 1.029248 L 111.465770 1.648674 L 113.096928 2.399824 L 114.659843 3.285524 L 116.146043 4.294475 L 117.503743 5.471269 L 118.861717 6.648301" fill="none" stroke="black" stroke-width="1.000000" />
	<path d="M 620.078308 234.437012 L 618.185686 233.819400 L 616.292162 233.204559 L 614.401891 232.579791 L 612.512769 231.951556 L 610.632788 231.296480 L 608.758180 230.626181 L 606.898934 229.914399 L 605.046534 229.184969 L 603.214200 228.406540 L 601.387398 227.615179 L 599.579160 226.782304 L 597.775092 225.940404 L 595.992213 225.054557 L 594.241048 224.107608 L 592.518313 223.109848 L 590.836552 222.044531 L 589.178400 220.942749 L 587.537279 219.815742 L 585.915710 218.660786 L 584.309748 217.484216 L 582.724598 216.279767 L 581.153540 215.056979 L 579.599906 213.812134 L 578.058962 212.551605 L 576.525450 211.282040 L 575.006915 209.994611 L 573.498024 208.695882 L 571.994927 207.390448 L 570.490826 206.086170 L 568.990074 204.778040 L 567.493636 203.464979 L 566.007589 202.140175 L 564.518317 200.818991 L 563.026317 199.500887 L 561.533008 198.184267 L 560.035969 196.871889 L 558.536171 195.562667 L 557.031648 194.258877 L 555.517229 192.966603 L 553.999033 191.678760 L 552.482072 190.389460 L 550.951204 189.116729 L 549.420584 187.843677 L 547.885404 186.576129 L 546.338170 185.323339 L 544.786994 184.075416 L 543.229396 182.835522 L 541.664722 181.604571 L 540.093985 180.381363 L 538.518391 179.164417 L 536.939052 177.952334 L 535.360612 176.739078 L 533.785461 175.521557 L 532.215574 174.297260 L 530.649595 173.067964 L 529.087026 171.834337 L 527.530169 170.593512 L 525.978091 169.346714 L 524.433528 168.090622 L 522.889175 166.834264 L 521.343478 165.579561 L 519.803406 164.317965 L 518.263247 163.056470 L 516.725526 161.792005 L 515.188563 160.526616 L 513.652963 159.259575 L 512.121660 157.987347 L 510.595818 156.708576 L 509.074406 155.424535 L 507.554856 154.138289 L 506.038786 152.847945 L 504.521895 151.558564 L 503.006662 150.267237 L 501.499011 148.967075 L 500.003752 147.652695 L 498.526104 146.318571 L 497.063670 144.967766 L 495.606113 143.611674 L 494.145550 142.258822 L 492.680989 140.910297 L 491.212219 139.566359 L 489.735821 138.230813 L 488.251397 136.904193 L 486.759808 135.585632 L 485.262027 134.274106 L 483.760461 132.966912 L 482.256954 131.661950 L 480.752927 130.357586 L 479.249303 129.052757 L 477.744637 127.749131 L 476.234923 126.451360 L 474.719221 125.160588 L 473.197355 123.877091 L 471.668254 122.602224 L 470.131675 121.336380 L 468.586590 120.080938 L 467.033541 118.835357 L 465.472629 117.599646 L 463.902449 116.375740 L 462.321616 115.165631 L 460.727989 113.972437 L 459.115994 112.804237 L 457.482140 111.666841 L 455.831755 110.553487 L 454.167076 109.461623 L 452.492833 108.384438 L 450.818411 107.307512 L 449.143947 106.230651 L 447.468798 105.154854 L 445.792298 104.081167 L 444.116004 103.007156 L 442.442128 101.929383 L 440.768758 100.850821 L 439.091914 99.777677 L 437.409223 98.713731 L 435.718653 97.662362 L 434.018305 96.626895 L 432.308259 95.607518 L 430.589119 94.603551 L 428.860533 93.615944 L 427.122485 92.645084 L 425.377124 91.687411 L 423.622636 90.746604 L 421.854098 89.832565 L 420.069497 88.950318 L 418.269128 88.100712 L 416.454301 87.282419 L 414.625852 86.495036 L 412.784585 85.738101 L 410.929467 85.015865 L 409.061023 84.328790 L 407.180903 83.674310 L 405.289246 83.054018 L 403.387860 82.464101 L 401.477250 81.904856 L 399.557390 81.378235 L 397.629398 80.882162 L 395.693062 80.419857 L 393.750358 79.984828 L 391.801910 79.576432 L 389.848164 79.194071 L 387.891042 78.829258 L 385.930515 78.483326 L 383.966620 78.156979 L 381.999206 77.852696 L 380.028442 77.570839 L 378.054914 77.309010 L 376.078366 77.071236 L 374.098983 76.858229 L 372.117086 76.670141 L 370.132858 76.508506 L 368.146720 76.372234 L 366.158988 76.261755 L 364.169916 76.178980 L 362.179873 76.124193 L 360.189259 76.097346 L 358.198461 76.098288 L 356.207834 76.125048 L 354.217410 76.165846 L 352.227292 76.218890 L 350.238191 76.300135 L 348.250537 76.412075 L 346.264452 76.549091 L 344.280172 76.710203 L 342.297927 76.894678 L 340.318042 77.102927 L 338.340817 77.335092 L 336.366475 77.590628 L 334.395218 77.868977 L 332.427368 78.170444 L 330.463282 78.495538 L 328.502978 78.842753 L 326.546824 79.212575 L 324.595171 79.605497 L 322.648188 80.020921 L 320.706109 80.458719 L 318.769076 80.918326 L 316.837446 81.400128 L 314.911206 81.903074 L 312.989835 82.424342 L 311.072854 82.961541 L 309.159641 83.512036 L 307.250169 84.075349 L 305.344821 84.652465 L 303.443793 85.243645 L 301.548481 85.852846 L 299.659108 86.480278 L 297.775479 87.124711 L 295.898698 87.788824 L 294.028631 88.471632 L 292.165855 89.174049 L 290.310286 89.895338 L 288.460499 90.631335 L 286.615667 91.379685 L 284.777974 92.145288 L 282.947682 92.928535 L 281.121896 93.722204 L 279.301023 94.527105 L 277.484217 95.341134 L 275.672280 96.165944 L 273.864096 96.998965 L 272.058090 97.836700 L 270.254924 98.680519 L 268.457154 99.535750 L 266.665032 100.402779 L 264.878251 101.280740 L 263.096911 102.169715 L 261.320397 103.068268 L 259.549592 103.978046 L 257.783482 104.896888 L 256.023475 105.827372 L 254.268094 106.766570 L 252.518313 107.716112 L 250.775003 108.677532 L 249.035447 109.645703 L 247.304640 110.629429 L 245.576504 111.617825 L 243.854754 112.617126 L 242.135298 113.620544 L 240.424589 114.638790 L 238.717320 115.662683 L 237.016182 116.696836 L 235.324452 117.746179 L 233.632418 118.795180 L 231.951096 119.861257 L 230.268840 120.925838 L 228.591461 121.998151 L 226.921734 123.082284 L 225.249495 124.162572 L 223.589469 125.261539 L 221.931480 126.363410 L 220.290193 127.489854 L 218.667731 128.642490 L 217.070129 129.829130 L 215.495846 131.046971 L 213.935126 132.282850 L 212.376193 133.520953 L 210.814097 134.755068 L 209.244812 135.980133" fill="none" stroke="black" stroke-width="1.000000" />
	<path d="M 222.868561 158.067474 L 223.902432 156.412054 L 224.944919 154.762046 L 225.987937 153.112374 L 227.049471 151.474559 L 228.120908 149.843203 L 229.214366 148.226534 L 230.335678 146.629069 L 231.481732 145.049258 L 232.658464 143.492181 L 233.848962 141.945572 L 235.079444 140.430670 L 236.337149 138.938232 L 237.622784 137.469801 L 238.931121 136.021541 L 240.267450 134.599104 L 241.628723 133.200501 L 243.013477 131.825145 L 244.424979 130.477282 L 245.853817 129.147752 L 247.308549 127.846689 L 248.780943 126.565566 L 250.280217 125.316128 L 251.805625 124.098693 L 253.346818 122.901217 L 254.913409 121.737331 L 256.492208 120.589864 L 258.096149 119.478091 L 259.721643 118.397873 L 261.366198 117.346940 L 263.033796 116.333063 L 264.715625 115.342770 L 266.415770 114.384466 L 268.133501 113.457927 L 269.871060 112.569305 L 271.629149 111.721983 L 273.403870 110.909969 L 275.197224 110.140215 L 277.011178 109.420396 L 278.849339 108.765453 L 280.715611 108.196300 L 282.612959 107.743878 L 284.538142 107.431584 L 286.482259 107.286190 L 288.428799 107.358001 L 290.348488 107.683868 L 292.196736 108.290839 L 293.932102 109.172470 L 295.514934 110.304102 L 296.905583 111.665285 L 298.091081 113.210418 L 299.069051 114.894881 L 299.829553 116.688271 L 300.394648 118.554409 L 300.804644 120.461185 L 301.082658 122.392109 L 301.252859 124.335835 L 301.338397 126.285387 L 301.355057 128.236782 L 301.311704 130.187886 L 301.220377 132.137371 L 301.082335 134.084067 L 300.905167 136.027733 L 300.701180 137.968682 L 300.458250 139.905182 L 300.182402 141.837273 L 299.871723 143.764034 L 299.526419 145.684964 L 299.156477 147.601263 L 298.754471 149.511111 L 298.323700 151.414678 L 297.863461 153.311326 L 297.372365 155.200235 L 296.853651 157.081748 L 296.307122 158.955370 L 295.731459 160.820240 L 295.125864 162.675626 L 294.493524 164.522033 L 293.815276 166.352086 L 293.121734 168.176200 L 292.404726 169.991196 L 291.665953 171.797595 L 290.896566 173.591059 L 290.122957 175.382857 L 289.321995 177.162657 L 288.517994 178.941034 L 287.704590 180.715195" fill="none" stroke="black" stroke-width="1.000000" />
	<path d="M 254.363800 185.067078 L 253.956793 187.014820 L 253.558615 188.964387 L 253.180192 190.917885 L 252.823465 192.875460 L 252.490930 194.837289 L 252.178673 196.802448 L 251.884959 198.770463 L 251.606274 200.740663 L 251.345110 202.713262 L 251.098353 204.687715 L 250.867212 206.664057 L 250.650948 208.642082 L 250.449230 210.621644 L 250.262809 212.602704 L 250.091943 214.585166 L 249.936064 216.568863 L 249.796193 218.553752 L 249.672597 220.539722 L 249.570345 222.526903 L 249.491953 224.515167 L 249.441098 226.504325 L 249.419863 228.494018 L 249.423972 230.483822 L 249.459125 232.473317 L 249.517003 234.462284 L 249.605828 236.450105 L 249.706873 238.437349 L 249.846989 240.422207 L 249.998962 242.406207 L 250.177262 244.388009 L 250.373364 246.368132 L 250.581942 248.346981 L 250.810905 250.323572 L 251.052148 252.298706 L 251.306741 254.272162 L 251.569232 256.244585 L 251.842346 258.215564 L 252.128009 260.184764 L 252.424774 262.152320 L 252.731519 264.118347 L 253.044699 266.083359 L 253.361031 268.047866 L 253.680214 270.011913 L 254.003075 271.975358 L 254.332910 273.937643 L 254.674187 275.897969 L 255.024972 277.856617 L 255.390755 279.812516 L 255.772216 281.765418 L 256.170425 283.714974 L 256.585822 285.660939 L 257.016805 287.603513 L 257.466759 289.541777 L 257.932103 291.476407 L 258.412074 293.407461 L 258.912286 295.333366 L 259.424346 297.256161 L 259.954010 299.174177 L 260.500835 301.087371 L 261.057699 302.997673 L 261.636201 304.901523 L 262.224389 306.802413 L 262.827899 308.698490 L 263.444853 310.590238 L 264.072326 312.478524 L 264.720396 314.359831 L 265.375467 316.238723 L 266.043214 318.113143 L 266.724077 319.982840 L 267.417688 321.847844 L 268.132191 323.704937 L 268.848230 325.561451 L 269.578350 327.412465 L 270.322972 329.257694 L 271.089835 331.093781 L 271.889672 332.915724 L 272.713303 334.727057 L 273.576424 336.519864 L 274.470245 338.297596 L 275.385736 340.064281 L 276.329702 341.815899 L 277.293914 343.556474 L 278.283995 345.282450 L 279.294649 346.996474 L 280.326579 348.697770 L 281.381277 350.385042 L 282.453556 352.061207 L 283.548334 353.722751 L 284.660916 355.372439 L 285.790431 357.010579 L 286.928753 358.642623 L 288.062883 360.277585 L 289.202631 361.908634 L 290.349232 363.534874 L 291.507936 365.152505 L 292.681914 366.759080 L 293.869636 368.355526 L 295.074913 369.938750 L 296.295365 371.510313 L 297.535708 373.066210 L 298.798955 374.603561 L 300.080827 376.125432 L 301.382935 377.630016 L 302.705472 379.116675 L 304.050259 380.583229 L 305.417583 382.028792 L 306.806988 383.453146 L 308.217461 384.856643 L 309.646562 386.241177 L 311.095809 387.604599 L 312.563217 388.948464 L 314.048278 390.272795 L 315.552897 391.574851 L 317.076952 392.854103 L 318.621425 394.108617 L 320.183947 395.340595 L 321.764374 396.549512 L 323.365909 397.730294 L 324.986283 398.885111 L 326.622631 400.017194 L 328.272131 401.130043 L 329.937896 402.218363 L 331.618620 403.283451 L 333.314063 404.324945 L 335.025943 405.339174 L 336.755484 406.322967 L 338.499941 407.280094 L 340.248728 408.229356 L 342.005475 409.163771 L 343.774643 410.074415 L 345.556034 410.960920 L 347.349830 411.822036 L 349.156191 412.656467 L 350.974084 413.465479 L 352.802338 414.250806 L 354.639669 415.014669 L 356.482045 415.766326 L 358.336878 416.486526 L 360.208434 417.161968 L 362.086756 417.818655 L 363.980846 418.427892 L 365.883088 419.011655 L 367.799587 419.546227 L 369.715110 420.084787 L 371.632154 420.617958 L 373.557619 421.119647 L 375.492514 421.583621 L 377.435200 422.013893 L 379.384871 422.411309 L 381.341135 422.774871 L 383.304180 423.099709 L 385.273766 423.382106 L 387.250028 423.612787 L 389.230772 423.801863 L 391.215715 423.938918 L 393.203393 424.029151 L 395.192720 424.066086 L 397.181884 424.028539 L 399.166778 423.895489 L 401.132573 423.597805 L 403.078959 423.186291 L 405.021706 422.756072 L 406.967563 422.340213 L 408.900764 421.870209 L 410.799071 421.277003 L 412.641069 420.528152 L 414.430160 419.658740 L 416.068927 418.540394 L 417.395514 417.073970 L 418.291746 415.312402 L 418.875983 413.414175 L 419.163503 411.449981 L 419.205534 409.463026 L 419.169996 407.473566 L 419.117030 405.484468 L 419.032337 403.496527 L 418.919445 401.509949 L 418.773699 399.525544 L 418.531527 397.551220 L 418.133416 395.603130 L 417.584972 393.691524 L 416.937176 391.810513 L 416.212576 389.957662 L 415.410216 388.137193 L 414.541600 386.347238 L 413.611720 384.588337 L 412.618329 382.864553 L 411.569951 381.173537 L 410.469932 379.515664 L 409.320676 377.891514 L 408.126157 376.300328 L 406.890644 374.740732 L 405.619476 373.210015 L 404.317246 371.705610 L 402.995306 370.218417 L 401.668800 368.735265 L 400.354356 367.241449 L 399.056474 365.733218 L 397.774788 364.211198 L 396.508007 362.676744 L 395.257339 361.129137 L 394.021930 359.569313 L 392.802581 357.996911 L 391.600426 356.411327 L 390.412422 354.815097 L 389.240724 353.206875 L 388.086161 351.586304 L 386.948640 349.953727 L 385.829986 348.308172 L 384.729445 346.650442 L 383.648367 344.979963 L 382.586624 343.297123 L 381.543776 341.602509 L 380.520684 339.895898 L 379.514634 338.179172 L 378.525177 336.452833 L 377.552099 334.717206 L 376.594975 332.972729 L 375.655805 331.218530 L 374.734635 329.454808 L 373.832241 327.681411 L 372.948674 325.898556 L 372.083741 324.106588 L 371.238451 322.305274 L 370.412073 320.495201 L 369.605159 318.676371 L 368.817947 316.848927 L 368.048929 315.013747 L 367.298783 313.170778 L 366.567439 311.320263 L 365.857858 309.461310 L 365.167853 307.594985 L 364.497571 305.721495 L 363.857008 303.837668 L 363.229762 301.949560 L 362.623852 300.054428 L 362.040753 298.152080 L 361.482333 296.242446 L 360.946280 294.326525 L 360.439477 292.402551 L 359.954576 290.472949 L 359.494758 288.537111 L 359.058796 286.595949 L 358.648200 284.649203 L 358.267889 282.696414 L 357.914791 280.738420 L 357.595853 278.774742 L 357.297523 276.807597 L 357.042779 274.834530 L 356.798574 272.859964 L 356.594026 270.880775 L 356.402593 268.900358 L 356.237901 266.917510 L 356.093492 264.933114 L 355.967388 262.947402 L 355.853942 260.960847 L 355.747843 258.973867 L 355.648254 256.986558 L 355.549713 254.999191" fill="none" stroke="black" stroke-width="1.000000" />
	<path d="M 79.009102 13.785645 L 77.892815 12.337882 L 76.723938 10.932282 L 75.549104 9.531612 L 74.134616 8.377928 L 72.427804 7.752469 L 70.614126 7.581843 L 68.808902 7.827826 L 67.118915 8.502815 L 65.647056 9.571455 L 64.319842 10.826137 L 63.160093 12.234673 L 62.138159 13.748648 L 61.248103 15.343221 L 60.494285 17.006806 L 59.894987 18.730974 L 59.449557 20.502994 L 59.073274 22.291874 L 58.786629 24.093468 L 58.538131 25.899963 L 58.377949 27.720669" fill="none" stroke="black" stroke-width="1.000000" />
	<path d="M 68.189400 20.003725 L 66.545633 19.328338 L 64.903253 18.653521 L 63.383084 17.732772 L 61.976123 16.649277 L 60.689489 15.423693 L 59.536585 14.072658 L 58.542481 12.599254 L 57.709671 11.028170 L 57.060000 9.371394" fill="none" stroke="black" stroke-width="1.000000" />
	<path d="M 94.247543 42.809558 L 94.652757 42.519878 L 95.057971 42.230197 L 95.463186 41.940517 L 95.868400 41.650836 L 96.273614 41.361156 L 96.626451 41.021856 L 96.893817 40.601583 L 97.161183 40.181311 L 97.428549 39.761038 L 97.695914 39.340766 L 97.963280 38.920493 L 98.125840 38.453902 L 98.256628 37.973270 L 98.387416 37.492637 L 98.518204 37.012004 L 98.648992 36.531371 L 98.762549 36.048473 L 98.760425 35.550368 L 98.758301 35.052263 L 98.756177 34.554158 L 98.754053 34.056052 L 98.751929 33.557947 L 98.670567 33.073583 L 98.504849 32.603848 L 98.339132 32.134113 L 98.173414 31.664378 L 98.007696 31.194643 L 97.838843 30.728732 L 97.345729 30.658363 L 96.852615 30.587994 L 96.359501 30.517624 L 95.866387 30.447255 L 95.373273 30.376885 L 95.021941 30.680718 L 94.699267 31.060184 L 94.376592 31.439650 L 94.053918 31.819116 L 93.731243 32.198582 L 93.441275 32.598721 L 93.236957 33.052998 L 93.032639 33.507275 L 92.828321 33.961552 L 92.624003 34.415829 L 92.419686 34.870106 L 92.283328 35.346480 L 92.181407 35.834051 L 92.079486 36.321622 L 91.977565 36.809193 L 91.875644 37.296763 L 91.777200 37.784651 L 91.789272 38.282615 L 91.801344 38.780578 L 91.813415 39.278542 L 91.825487 39.776505 L 91.837559 40.274469 L 91.906378 40.763386 L 92.049728 41.240423 L 92.193079 41.717460 L 92.336429 42.194496 L 92.479780 42.671533 L 92.623130 43.148570 L 93.039918 43.391797 L 93.488905 43.607492 L 93.937891 43.823188 L 94.386878 44.038883 L 94.835864 44.254578 L 95.282696 44.256663 L 95.727241 44.031956 L 96.171786 43.807249 L 96.616331 43.582542 L 97.060876 43.357835 L 97.488939 43.114521 L 97.765668 42.700354 L 98.042397 42.286187 L 98.319126 41.872020 L 98.595855 41.457853 L 98.872584 41.043686 L 99.108204 40.607748 L 99.295279 40.146103 L 99.482354 39.684458 L 99.669429 39.222813 L 99.856504 38.761168 L 100.043579 38.299522 L 100.106187 37.808383 L 100.146159 37.311880 L 100.186131 36.815376 L 100.226103 36.318873 L 100.266075 35.822370 L 100.231617 35.345097 L 99.956134 34.930100 L 99.680651 34.515103 L 99.405169 34.100106 L 99.129686 33.685109 L 98.854203 33.270112 L 98.405188 33.112648 L 97.917118 33.013144 L 97.429048 32.913640 L 96.940978 32.814137 L 96.452908 32.714633 L 96.054811 32.907749 L 95.706959 33.264277 L 95.359106 33.620805 L 95.011254 33.977333 L 94.663402 34.333861 L 94.354111 34.712250 L 94.226838 35.193825 L 94.099564 35.675400 L 93.972290 36.156975 L 93.845016 36.638550 L 93.717742 37.120126 L 93.699983 37.609281 L 93.759694 38.103799 L 93.819406 38.598317 L 93.879118 39.092835 L 93.938830 39.587352 L 93.998541 40.081870 L 94.186283 40.542231 L 94.380838 41.000774 L 94.575393 41.459317 L 94.769948 41.917860 L 94.964503 42.376403 L 95.309048 42.593236 L 95.806298 42.563981 L 96.303547 42.534727 L 96.800797 42.505473 L 97.298047 42.476218 L 97.615798 42.169010 L 97.847026 41.727822 L 98.078254 41.286634 L 98.309482 40.845446 L 98.540710 40.404258 L 98.759268 39.958717 L 98.848011 39.468576 L 98.936754 38.978435 L 99.025497 38.488294 L 99.114240 37.998153 L 99.202983 37.508013 L 99.233168 37.014917 L 99.194207 36.518334 L 99.155246 36.021750 L 99.116285 35.525166 L 99.077324 35.028583 L 99.038363 34.531999 L 98.612536 34.332030 L 98.143086 34.165507 L 97.673636 33.998984 L 97.204186 33.832461 L 96.734736 33.665938 L 96.461691 34.012018 L 96.223705 34.449598 L 95.985720 34.887177 L 95.747734 35.324757 L 95.509748 35.762337 L 95.326683 36.215951 L 95.291855 36.712841 L 95.257028 37.209732 L 95.222200 37.706623 L 95.187372 38.203513 L 95.152544 38.700404 L 95.200375 39.192310 L 95.294669 39.681413 L 95.388963 40.170516 L 95.483256 40.659619 L 95.577550 41.148723 L 95.671844 41.637826" fill="none" stroke="black" stroke-width="1.000000" />
	<path d="M 95.671844 41.637826 L 96.106890 41.395226 L 96.529326 41.133099 L 96.929413 40.836365 L 97.275643 40.481546 L 97.590977 40.097648 L 97.823373 39.657067 L 98.010382 39.198204 L 98.148231 38.719542 L 98.266682 38.235793 L 98.371062 37.749188 L 98.434377 37.255112 L 98.461635 36.758728 L 98.461821 36.260612 L 98.417177 35.764646 L 98.261023 35.334244 L 97.844447 35.061142 L 97.363892 34.971206 L 96.885663 34.995938 L 96.470895 35.271778 L 96.209278 35.680380 L 96.007824 36.134602 L 95.891408 36.618923 L 95.819324 37.109682 L 95.793195 37.607112 L 95.911883 38.087226 L 96.107317 38.536045 L 96.427432 38.917682 L 96.812815 39.225957 L 97.227640 39.473781 L 97.610043 39.154582 L 97.962246 38.806070 L 98.269914 38.414330 L 98.464847 37.960979 L 98.590526 37.484773 L 98.572842 36.986970 L 98.485043 36.500497 L 98.345046 36.022458 L 97.916036 35.790319 L 97.444544 35.673734 L 96.946432 35.675690 L 96.452180 35.732575 L 95.959112 35.803087 L 95.467770 35.884959 L 94.974510 35.953261 L 94.479723 36.010761 L 93.984535 36.064686 L 93.489002 36.115090 L 92.992668 36.157191 L 92.496334 36.199293 L 92.000000 36.241394" fill="none" stroke="black" stroke-width="1.000000" />
	<path d="M 119.919264 18.137676 L 120.206427 18.546604 L 120.493589 18.955532 L 120.780751 19.364460 L 121.067941 19.773369 L 121.355515 20.182008 L 121.643088 20.590647 L 121.930662 20.999286 L 122.142976 21.448656 L 122.327809 21.912899 L 122.512642 22.377141 L 122.697475 22.841384 L 122.882063 23.305724 L 123.066616 23.770078 L 123.251168 24.234432 L 123.406659 24.707788 L 123.516892 25.195162 L 123.627125 25.682536 L 123.737358 26.169909 L 123.829161 26.660809 L 123.906597 27.154456 L 123.984033 27.648104 L 124.061468 28.141752 L 124.105068 28.639153 L 124.137708 29.137771 L 124.170347 29.636388 L 124.202987 30.135005 L 124.204595 30.634659 L 124.205302 31.134343 L 124.206009 31.634027 L 124.201687 32.133584 L 124.175930 32.632604 L 124.150174 33.131625 L 124.124418 33.630645 L 124.086318 34.128653 L 124.030492 34.625209 L 123.974667 35.121766 L 123.918842 35.618322 L 123.852421 36.113505 L 123.779847 36.607891 L 123.707273 37.102277 L 123.634700 37.596663 L 123.562049 38.091038 L 123.489384 38.585410 L 123.416720 39.079783 L 123.343266 39.574029 L 123.258141 40.066410 L 123.173016 40.558790 L 123.087891 41.051170 L 122.988233 41.540329 L 122.857335 42.022563 L 122.726438 42.504798 L 122.595540 42.987033 L 122.451324 43.465271 L 122.295100 43.939906 L 122.138876 44.414541 L 121.982652 44.889177 L 121.808250 45.357292 L 121.627204 45.823024 L 121.446158 46.288757 L 121.265111 46.754489 L 121.062414 47.211173 L 120.858223 47.667233 L 120.654031 48.123293 L 120.446766 48.577882 L 120.219929 49.023112 L 119.993093 49.468342 L 119.766256 49.913572 L 119.530855 50.354120 L 119.278569 50.785440 L 119.026284 51.216759 L 118.773998 51.648078 L 118.508228 52.070959 L 118.230582 52.486407 L 117.952936 52.901855 L 117.675290 53.317303 L 117.371205 53.713327 L 117.057742 54.102461 L 116.744279 54.491595 L 116.430816 54.880730 L 116.085974 55.242163 L 115.738722 55.601469 L 115.391470 55.960774 L 115.040091 56.315696 L 114.660518 56.640671 L 114.280944 56.965646 L 113.901371 57.290620 L 113.511993 57.602869 L 113.100974 57.887032 L 112.689956 58.171195 L 112.278938 58.455357 L 111.853411 58.715887 L 111.414009 58.953818 L 110.974608 59.191749 L 110.535207 59.429680 L 110.073557 59.617210 L 109.601674 59.781560 L 109.129791 59.945911 L 108.657908 60.110261 L 108.168841 60.208546 L 107.676685 60.294961 L 107.184530 60.381377 L 106.692629 60.462505 L 106.211043 60.329241 L 105.729457 60.195978 L 105.247871 60.062714 L 104.766594 59.928370 L 104.287610 59.786039 L 103.808625 59.643708 L 103.329640 59.501377 L 102.856391 59.343360 L 102.398566 59.143159 L 101.940740 58.942958 L 101.482915 58.742756 L 101.038093 58.518239 L 100.617391 58.248622 L 100.196688 57.979004 L 99.775985 57.709387 L 99.370001 57.419438 L 98.982507 57.103950 L 98.595014 56.788461 L 98.207520 56.472973 L 97.851017 56.125832 L 97.527427 55.745078 L 97.203836 55.364324 L 96.880246 54.983570 L 96.573617 54.589589 L 96.283209 54.182960 L 95.992801 53.776330 L 95.702394 53.369700 L 95.434518 52.948676 L 95.187631 52.514244 L 94.940745 52.079811 L 94.693858 51.645379 L 94.463650 51.202273 L 94.249780 50.750672 L 94.035911 50.299070 L 93.822042 49.847468 L 93.624269 49.388936 L 93.443206 48.923210 L 93.262142 48.457484 L 93.081079 47.991758 L 92.911738 47.521831 L 92.755745 47.047120 L 92.599752 46.572409 L 92.443759 46.097698 L 92.294749 45.620820 L 92.154603 45.141191 L 92.014457 44.661562 L 91.874311 44.181934 L 91.731881 43.702987 L 91.586200 43.225011 L 91.440519 42.747034 L 91.294838 42.269058 L 91.147885 41.791472 L 90.999864 41.314215 L 90.851842 40.836959 L 90.703820 40.359702 L 90.607074 39.871185 L 90.541505 39.375821 L 90.475937 38.880457 L 90.410369 38.385094 L 90.384950 37.887154 L 90.386688 37.387473 L 90.388425 36.887791 L 90.390163 36.388110 L 90.442371 35.893130 L 90.532959 35.401726 L 90.623547 34.910322 L 90.714135 34.418917 L 90.804740 33.927516 L 90.895357 33.436117 L 90.985973 32.944718 L 91.076590 32.453319 L 91.204977 31.971099 L 91.349997 31.492921 L 91.495017 31.014744 L 91.640037 30.536566 L 91.797231 30.062333 L 91.960198 29.589971 L 92.123165 29.117609 L 92.286132 28.645246 L 92.448932 28.172827 L 92.611651 27.700378 L 92.774369 27.227930 L 92.937087 26.755482 L 93.111184 26.287185 L 93.290896 25.820936 L 93.470608 25.354687 L 93.650320 24.888438 L 93.822407 24.419350 L 93.991395 23.949108 L 94.160384 23.478866 L 94.329373 23.008625 L 94.516623 22.545507 L 94.710720 22.085061 L 94.904816 21.624614 L 95.098913 21.164168 L 95.297727 20.705748 L 95.498097 20.247997 L 95.698466 19.790245 L 95.898835 19.332493 L 96.152107 18.902162 L 96.410635 18.474555 L 96.669164 18.046948 L 96.927692 17.619341 L 97.224562 17.217552 L 97.523556 16.817194 L 97.822551 16.416836 L 98.128094 16.021788 L 98.458034 15.646523 L 98.787974 15.271257 L 99.117914 14.895992 L 99.454094 14.526590 L 99.808171 14.174009 L 100.162248 13.821427 L 100.516325 13.468846 L 100.910029 13.164917 L 101.326975 12.889526 L 101.743921 12.614135 L 102.160867 12.338743 L 102.594144 12.090800 L 103.035105 11.855772 L 103.476065 11.620744 L 103.917026 11.385716 L 104.384479 11.213742 L 104.860978 11.063299 L 105.337477 10.912856 L 105.813976 10.762412 L 106.297786 10.638219 L 106.783452 10.520690 L 107.269118 10.403162 L 107.754784 10.285634 L 108.252110 10.255756 L 108.751611 10.242235 L 109.251112 10.228714 L 109.750614 10.215193 L 110.249694 10.236408 L 110.748721 10.262031 L 111.247748 10.287654 L 111.746775 10.313277 L 112.235419 10.415147 L 112.723125 10.523900 L 113.210831 10.632653 L 113.698537 10.741406 L 114.166840 10.914990 L 114.634107 11.092040 L 115.101373 11.269091 L 115.568639 11.446141 L 116.009654 11.680796 L 116.449840 11.917273 L 116.890025 12.153750 L 117.330211 12.390226 L 117.738563 12.678100 L 118.146382 12.966836 L 118.554201 13.255572 L 118.962019 13.544308 L 119.332291 13.879812 L 119.702348 14.215583 L 120.442462 14.887125" fill="none" stroke="black" stroke-width="1.000000" />
	<path d="M 81.460000 4.371394 L 80.006008 3.197392 L 78.465737 2.139181 L 76.824228 1.246225 L 75.076014 0.586707 L 73.242997 0.225799 L 71.379851 0.347455 L 69.577952 0.839042 L 67.909987 1.679467 L 66.549344 2.957854 L 65.447439 4.466447 L 64.580647 6.121687 L 63.942540 7.877945 L 63.546158 9.702909 L 63.149765 11.527925" fill="none" stroke="black" stroke-width="1.000000" />
	<path d="M 1.868720 89.876534 L 3.471491 91.000349 L 5.084144 92.109936 L 6.699452 93.215655 L 8.333652 94.293240 L 9.986142 95.342559 L 11.652645 96.369483 L 13.327700 97.382404 L 15.028003 98.352266 L 16.751941 99.279467 L 18.496617 100.167036 L 20.263833 101.008786 L 22.046260 101.817905 L 23.849285 102.579900 L 25.664646 103.312158 L 27.490133 104.018800 L 29.326780 104.695875 L 31.175850 105.338203 L 33.037477 105.943146 L 34.911210 106.509465 L 36.794772 107.042246 L 38.688549 107.537406 L 40.592328 107.992571 L 42.505378 108.407026 L 44.427371 108.777715 L 46.356803 109.107612 L 48.292694 109.397173 L 50.234626 109.642801 L 52.181446 109.846245 L 54.132068 110.009277 L 56.085121 110.140615 L 58.040427 110.230989 L 59.997224 110.280638 L 61.954618 110.291801 L 63.911718 110.258476 L 65.867877 110.187512 L 67.822062 110.075467 L 69.773018 109.917007 L 71.718898 109.705583 L 73.660654 109.458074 L 75.596373 109.167799 L 77.525027 108.833497 L 79.445721 108.456204 L 81.356292 108.030754 L 83.254552 107.553402 L 85.143136 107.038734 L 87.017486 106.474783 L 88.875763 105.859818 L 90.717819 105.197922 L 92.554248 104.521481 L 94.377905 103.810751 L 96.188385 103.067269 L 97.987330 102.296368 L 99.778671 101.507278" fill="none" stroke="black" stroke-width="1.000000" />
	<path d="M 88.837334 12.865108 L 89.231894 13.171766 L 89.626454 13.478423 L 90.021014 13.785081 L 90.416475 14.090557 L 90.816795 14.389656 L 91.217116 14.688755 L 91.617436 14.987854 L 92.020871 15.282633 L 92.431149 15.567920 L 92.841428 15.853206 L 93.251706 16.138493 L 93.667607 16.415305 L 94.089886 16.682508 L 94.512165 16.949711 L 94.934443 17.216914 L 95.364045 17.471939 L 95.798055 17.719632 L 96.232065 17.967326 L 96.666075 18.215019 L 97.108410 18.447333 L 97.553103 18.675291 L 97.997796 18.903249 L 98.442488 19.131208 L 98.897323 19.338100 L 99.352854 19.543546 L 99.808385 19.748992 L 100.264714 19.952559 L 100.728974 20.137435 L 101.193235 20.322310 L 101.657495 20.507186 L 102.123910 20.686224 L 102.596944 20.847333 L 103.069977 21.008442 L 103.543010 21.169551 L 104.018690 21.322290 L 104.498364 21.462395 L 104.978038 21.602500 L 105.457712 21.742605 L 105.940898 21.869472 L 106.426954 21.985516 L 106.913010 22.101560 L 107.399066 22.217604 L 107.888580 22.317482 L 108.379577 22.410426 L 108.870574 22.503369 L 109.361571 22.596313 L 109.855788 22.669772 L 110.350581 22.739745 L 110.845375 22.809717 L 111.340168 22.879690 L 111.837751 22.925796 L 112.335345 22.971796 L 112.832940 23.017795 L 113.330761 23.060539 L 113.829946 23.083571 L 114.329132 23.106602 L 114.828317 23.129633 L 115.327655 23.145697 L 115.827370 23.144448 L 116.327085 23.143199 L 116.826800 23.141950 L 117.326242 23.130375 L 117.825323 23.105177 L 118.324403 23.079979 L 118.823484 23.054781 L 119.321690 23.017400 L 119.819247 22.970996 L 120.316805 22.924592 L 120.814362 22.878188 L 121.310101 22.816052 L 121.805123 22.747718 L 122.300146 22.679385 L 122.795168 22.611051 L 123.287959 22.528351 L 123.780383 22.443292 L 124.765232 22.273174" fill="none" stroke="black" stroke-width="1.000000" />
	<path d="M 379.901093 247.194534 L 380.502535 245.334426 L 381.100267 243.473122 L 381.682921 241.607044 L 382.256511 239.738160 L 382.820354 237.866313 L 383.372615 235.991016 L 383.908657 234.111020 L 384.425244 232.225588 L 384.922729 230.335026 L 385.392373 228.437364 L 385.836655 226.533603 L 386.252809 224.623501 L 386.652458 222.709866 L 387.004503 220.786955 L 387.327812 218.858965 L 387.612783 216.924959 L 387.868834 214.986894 L 388.085179 213.044021 L 388.273202 211.098178 L 388.422761 209.149029 L 388.542143 207.197776 L 388.627168 205.244739 L 388.680853 203.290582 L 388.704424 201.335828 L 388.698588 199.380941 L 388.666950 197.426294 L 388.613018 195.472130 L 388.533512 193.518848 L 388.433294 191.566508 L 388.315045 189.615175 L 388.182987 187.664721 L 388.038960 185.715114 L 387.880382 183.766640 L 387.704294 181.819676 L 387.508502 179.874598 L 387.289915 177.931958 L 387.047533 175.992144 L 386.780878 174.055519 L 386.490320 172.122335 L 386.175423 170.192969 L 385.834591 168.268021 L 385.468812 166.347652 L 385.077744 164.432277 L 384.662279 162.522042 L 384.221065 160.617597 L 383.751954 158.719839 L 383.256334 156.828822 L 382.733985 154.945020 L 382.185550 153.068641 L 381.605025 151.201980 L 380.985609 149.347892 L 380.328951 147.506640 L 379.631762 145.680395 L 378.893423 143.870379 L 378.109084 142.079885 L 377.266612 140.316133 L 376.366431 138.581049 L 375.413629 136.874276 L 374.411401 135.196027 L 373.363499 133.545883 L 372.279146 131.919363 L 371.155531 130.319833 L 369.972511 128.764096 L 368.701090 127.280585 L 367.288556 125.934598 L 365.719418 124.774888 L 364.029118 123.797924 L 362.248492 122.996890 L 360.410535 122.333192 L 358.536264 121.780788 L 356.628268 121.361868 L 354.694779 121.080639 L 352.746968 120.926526 L 350.793284 120.898954 L 348.841593 120.994179 L 346.899748 121.210987 L 344.975696 121.551327 L 343.076736 122.011749 L 341.207547 122.581845 L 339.370359 123.248269 L 337.569844 124.007961 L 335.813012 124.863756 L 334.108440 125.819071 L 332.468861 126.881634 L 330.902202 128.049376 L 329.395396 129.294408 L 327.936846 130.595457 L 326.544298 131.966303 L 325.217485 133.401713 L 323.947672 134.887298 L 322.742650 136.426336 L 321.578585 137.996822 L 320.452269 139.594338 L 319.380997 141.229290 L 318.367575 142.900652 L 317.417057 144.608571 L 316.527578 146.349154 L 315.694792 148.117559 L 314.917808 149.911236 L 314.195334 151.727513 L 313.529248 153.565272 L 312.914563 155.420885 L 312.350534 157.292490 L 311.835961 159.178382 L 311.364736 161.075500 L 310.943135 162.984320 L 310.563754 164.901983 L 310.228808 166.827864 L 309.954115 168.763294 L 309.697752 170.700967 L 309.471582 172.642443 L 309.283881 174.587948 L 309.128095 176.536237 L 308.994318 178.486489 L 308.883148 180.438230 L 308.768822 182.389807 L 308.657968 184.341574 L 308.546667 186.293325 L 308.425528 188.244488 L 308.315295 190.196303 L 308.197388 192.147659" fill="none" stroke="black" stroke-width="1.000000" />
	<path d="M 407.002045 261.052765 L 406.808738 259.080951 L 406.618640 257.108826 L 406.433615 255.136218 L 406.254175 253.163094 L 406.079957 251.189503 L 405.913862 249.215211 L 405.756427 247.240210 L 405.610219 245.264347 L 405.477473 243.287534 L 405.357975 241.309876 L 405.257058 239.331185 L 405.171877 237.351753 L 405.109683 235.371469 L 405.064467 233.390722 L 405.031574 231.409730 L 405.030915 229.428479 L 405.047224 227.447283 L 405.091952 225.466535 L 405.155492 223.486293 L 405.243769 221.507004 L 405.357607 219.529023 L 405.484799 217.551846 L 405.643278 215.576949 L 405.811395 213.602829 L 405.983309 211.629036 L 406.147701 209.654603 L 406.290868 207.678527 L 406.369009 205.698913 L 406.482775 203.720969 L 406.584778 201.742339 L 406.709630 199.765030 L 406.897951 197.792854 L 407.089365 195.820857 L 407.324331 193.853642 L 407.602354 191.892031 L 407.924065 189.937115 L 408.289113 187.989827 L 408.691665 186.049930 L 409.136642 184.119341 L 409.612616 182.196127 L 410.125674 180.282495 L 410.656314 178.373618 L 411.238808 176.480044 L 411.846941 174.594432 L 412.500545 172.724183 L 413.193402 170.868073 L 413.911514 169.021550 L 414.694992 167.202032 L 415.517211 165.399478 L 416.410497 163.631349 L 417.373283 161.899999 L 418.399806 160.205643 L 419.506103 158.562487 L 420.689904 156.974207 L 421.961185 155.455295 L 423.341215 154.035075 L 424.894610 152.810936 L 426.575182 151.764826 L 428.243691 150.696997 L 430.019150 149.827157 L 431.900810 149.217437 L 433.841637 148.829803 L 435.815976 148.726944 L 437.786536 148.898934 L 439.718389 149.325012 L 441.584855 149.981902 L 443.358816 150.858168 L 445.021060 151.931948 L 446.590578 153.139489 L 448.087984 154.436054 L 449.523288 155.801269 L 450.913537 157.212654 L 452.261483 158.664468 L 453.550377 160.168694 L 454.799542 161.706450 L 456.023194 163.264625 L 457.193768 164.862704 L 458.325024 166.489176 L 459.428288 168.134776 L 460.496219 169.803458 L 461.531160 171.492848 L 462.534775 173.201031 L 463.507535 174.926978 L 464.452070 176.668547 L 465.370271 178.424149 L 466.262940 180.192872 L 467.132229 181.973214 L 467.978049 183.764819 L 468.801525 185.566812 L 469.605186 187.377737 L 470.389252 189.197229 L 471.155390 191.024351 L 471.902904 192.859164 L 472.633661 194.700725 L 473.347858 196.548768 L 474.045029 198.403301 L 474.726750 200.263574 L 475.394294 202.128983 L 476.049319 203.998829 L 476.691313 205.873184 L 477.320913 207.751744 L 477.939487 209.633964 L 478.546673 211.519887 L 479.141917 213.409612 L 479.725277 215.303041 L 480.297057 217.199998 L 480.858705 219.099984 L 481.412771 221.002197 L 481.960723 222.906182 L 482.504742 224.811295 L 483.040437 226.718756 L 483.562613 228.629958 L 484.068121 230.545628 L 484.550890 232.467130 L 485.011728 234.394032 L 485.444021 236.327472 L 485.840810 238.268516 L 486.216685 240.213796 L 486.574907 242.162365 L 486.920676 244.113226 L 487.235432 246.069199 L 487.527271 248.028316 L 487.784824 249.992184 L 488.012527 251.960165 L 488.213074 253.931160 L 488.394943 255.903903 L 488.556047 257.878453 L 488.695263 259.854688 L 488.814961 261.832224 L 488.920638 263.810626 L 489.015262 265.789622 L 489.103546 267.768914 L 489.182429 269.748583 L 489.258820 271.728363" fill="none" stroke="black" stroke-width="1.000000" />
	<path d="M 291.237213 89.530296 L 292.004155 91.299581 L 292.771872 93.068528 L 293.607390 94.806465 L 294.501644 96.514919 L 295.477101 98.178318 L 296.508456 99.807671 L 297.697494 101.325516 L 298.989640 102.756750 L 300.376465 104.096424 L 301.851056 105.338812 L 303.407727 106.476628 L 305.039858 107.503231 L 306.742214 108.408547 L 308.505649 109.188190 L 310.321793 109.835526 L 312.182503 110.340484 L 314.076383 110.701599 L 315.991770 110.921819 L 317.918248 110.997684 L 319.845266 110.936256 L 321.763357 110.741098 L 323.661368 110.402885 L 325.527335 109.918319 L 327.351625 109.294875 L 329.121884 108.531551 L 330.822400 107.623614 L 332.437416 106.571200 L 333.958538 105.387036 L 335.368887 104.073033 L 336.663823 102.645042 L 337.848968 101.124504 L 338.870299 99.490097 L 339.731962 97.765857 L 340.437031 95.971778 L 340.978481 94.121722 L 341.353539 92.230856 L 341.558163 90.314005 L 341.591243 88.386499 L 341.444739 86.464270 L 341.028189 84.584068 L 340.536569 82.727372 L 339.944760 80.894662 L 339.241959 79.099713 L 338.525940 77.309654" fill="none" stroke="black" stroke-width="1.000000" />
	<path d="M 351.967468 76.221481 L 352.392057 78.122252 L 352.879495 80.007878 L 353.400451 81.884524 L 354.025132 83.729186 L 354.679689 85.563509 L 355.430238 87.360611 L 356.210801 89.144959 L 357.045011 90.904835 L 357.935317 92.636998 L 358.872950 94.344016 L 359.856182 96.025179 L 360.880991 97.681329 L 361.950965 99.308649 L 363.065018 100.906112 L 364.222444 102.472430 L 365.424164 104.005015 L 366.673655 105.498883 L 367.975208 106.947578 L 369.331190 108.345423 L 370.744250 109.685491 L 372.210002 110.967726 L 373.729656 112.185533 L 375.298247 113.339652 L 376.917864 114.420882 L 378.581324 115.433454 L 380.289638 116.368218 L 382.034124 117.233787 L 383.809631 118.033827 L 385.620326 118.750292 L 387.463924 119.377199 L 389.336692 119.910568 L 391.234321 120.347216 L 393.152209 120.683733 L 395.085612 120.914547 L 397.028228 121.048602 L 398.974423 121.119405 L 400.921790 121.119498 L 402.868113 121.053700 L 404.810571 120.915630 L 406.746988 120.709030 L 408.675328 120.437133 L 410.593702 120.102020 L 412.499773 119.702906 L 414.390500 119.236599 L 416.261659 118.697305 L 418.110257 118.085089 L 419.934699 117.404169 L 421.734317 116.660019 L 423.509628 115.859505 L 425.253350 114.992584 L 426.972005 114.076598 L 428.652599 113.092951 L 430.298590 112.052128 L 431.897182 110.940170 L 433.445765 109.760084 L 434.944259 108.522971 L 436.339294 107.176554 L 437.688795 105.776977 L 438.825797 104.204585 L 439.907270 102.604927 L 440.849823 100.902023" fill="none" stroke="black" stroke-width="1.000000" />
	<path d="M 452.197266 108.195992 L 451.349065 109.954982 L 450.538498 111.731625 L 449.808225 113.542721 L 449.173217 115.389346 L 448.668082 117.275560 L 448.223567 119.177079 L 447.997843 121.116260 L 447.915546 123.067098 L 447.983814 125.018397 L 448.200051 126.958850 L 448.564712 128.876908 L 449.063269 130.764636 L 449.693151 132.612655 L 450.458383 134.408765 L 451.346184 136.147609 L 452.286406 137.859104 L 453.341909 139.501392 L 454.521622 141.056738 L 455.788573 142.542331 L 457.136191 143.955096 L 458.570898 145.279097 L 460.059659 146.542565 L 461.597405 147.745870 L 463.191863 148.872700 L 464.860825 149.885033 L 466.580038 150.810507 L 468.349437 151.635382 L 470.153706 152.381748 L 471.983459 153.063415 L 473.834867 153.683890 L 475.706718 154.239503 L 477.596065 154.732465 L 479.501691 155.157851 L 481.420908 155.517168 L 483.350885 155.813357 L 485.288769 156.052868 L 487.233313 156.228891 L 489.182339 156.347928 L 491.133883 156.409771 L 493.086510 156.413462 L 495.038566 156.365830 L 496.989035 156.272204 L 498.937676 156.145063 L 500.883022 155.975903 L 502.826202 155.786614 L 504.766298 155.566905 L 506.703210 155.319157 L 508.638458 155.057922" fill="none" stroke="black" stroke-width="1.000000" />
	<path d="M 525.837524 264.201324 L 524.914375 262.495168 L 523.984054 260.792912 L 523.046270 259.094756 L 522.103772 257.399211 L 521.169362 255.699197 L 520.243864 253.994316 L 519.335892 252.280044 L 518.435407 250.561820 L 517.563033 248.829187 L 516.712591 247.085668 L 515.882944 245.332159 L 515.074615 243.568724 L 514.286891 241.795988 L 513.520241 240.014040 L 512.774682 238.223166 L 512.045798 236.425430 L 511.334783 234.620559 L 510.634645 232.811425 L 509.939963 231.000186 L 509.251398 229.186614 L 508.574162 227.368790 L 507.908311 225.546762 L 507.255371 223.720072 L 506.615589 221.888730 L 505.990305 220.052394 L 505.380902 218.210727 L 504.791666 216.362528 L 504.224944 214.507301 L 503.684255 212.644343 L 503.173752 210.772901 L 502.696691 208.892672 L 502.238921 207.007571 L 501.785500 205.121415 L 501.344553 203.232338 L 500.940830 201.335112 L 500.597517 199.426173 L 500.314548 197.507213 L 500.086139 195.581044 L 499.920952 193.648518 L 499.810430 191.711867 L 499.786484 189.773638 L 499.913890 187.839383 L 500.151169 185.914224 L 500.482375 184.004578 L 500.991656 182.135569 L 501.669013 180.318587 L 502.481312 178.560006 L 503.470383 176.892945 L 504.605601 175.322858 L 505.897813 173.878478 L 507.342710 172.591796 L 508.951648 171.508758 L 510.622259 170.527094 L 512.392131 169.737134 L 514.235656 169.140050 L 516.136999 168.763746 L 518.067880 168.618334 L 519.995885 168.825629 L 521.889258 169.183070 L 523.760986 169.645481 L 525.558628 170.354336 L 527.317380 171.158884 L 529.008034 172.104996 L 530.677856 173.090942" fill="none" stroke="black" stroke-width="1.000000" />
	<path d="M 41.559502 48.939610 L 39.623918 49.376916 L 37.694330 49.839958 L 35.782414 50.371269 L 33.885950 50.955338 L 32.021689 51.635211 L 30.177057 52.366677 L 28.371644 53.190193 L 26.589455 54.062840 L 24.846449 55.011324 L 23.139584 56.023406 L 21.480218 57.111612 L 19.870901 58.272554 L 18.310677 59.498683 L 16.805518 60.791814 L 15.351958 62.142686 L 13.957410 63.554396 L 12.618351 65.018846 L 11.346617 66.542124 L 10.140841 68.118127 L 9.003035 69.743884 L 7.937558 71.417934 L 6.946504 73.137088 L 6.039548 74.902054 L 5.178885 76.690061 L 4.431763 78.528389 L 3.728608 80.383997 L 3.111217 82.269862 L 2.609686 84.189775 L 2.239034 86.139179 L 1.998530 88.108878 L 1.881532 90.089754 L 1.874894 92.074078 L 1.951134 94.056962 L 2.101190 96.035631 L 2.325310 98.007283 L 2.619559 99.969696 L 2.987052 101.919717 L 3.421590 103.855903 L 3.929852 105.774050 L 4.510700 107.671476 L 5.159001 109.546930 L 5.878705 111.396152 L 6.658724 113.220762 L 7.506889 115.014698 L 8.424954 116.773882 L 9.407684 118.497781 L 10.452422 120.184822 L 11.547827 121.839425 L 12.702559 123.453169 L 13.915998 125.023243 L 15.181311 126.551828 L 16.495821 128.038318 L 17.851083 129.487763 L 19.253388 130.891729 L 20.706936 132.242555 L 22.207756 133.540664 L 23.756655 134.780998 L 25.347121 135.967577 L 26.972434 137.105974 L 28.634757 138.189593 L 30.324661 139.229710 L 32.041531 140.224679 L 33.786329 141.169805 L 35.557633 142.064267 L 37.358338 142.897921 L 39.184777 143.673590 L 41.030416 144.402441 L 42.898206 145.072437 L 44.786044 145.683670 L 46.690862 146.239751 L 48.611756 146.737452 L 50.543114 147.192958 L 52.483774 147.607042 L 54.432533 147.981173 L 56.382487 148.349137 L 58.327036 148.744610 L 60.272865 149.133800 L 62.226954 149.478955 L 64.187973 149.782305 L 66.157220 150.026370 L 68.133412 150.205622 L 70.114021 150.326899 L 72.097359 150.389163 L 74.081667 150.396621 L 76.065473 150.351250 L 78.047434 150.254394 L 80.026379 150.108301 L 82.001296 149.915232 L 83.971086 149.675441 L 85.935008 149.391546 L 87.892108 149.063909 L 89.841226 148.691734 L 91.782322 148.279723 L 93.713973 147.825508 L 95.637773 147.339055 L 97.554698 146.826155 L 99.461529 146.276970 L 101.358094 145.693306 L 103.241615 145.068867 L 105.115788 144.416841 L 106.984967 143.750600 L 108.843361 143.054897 L 110.693509 142.337516 L 112.539501 141.609488 L 114.382172 140.873092 L 116.227433 140.143212 L 118.080552 139.433547 L 119.948140 138.762968 L 121.841837 138.170527 L 123.779967 137.748159 L 125.756313 137.589044 L 127.735397 137.708737 L 129.680203 138.095308 L 131.577357 138.674504 L 133.413124 139.426095 L 135.144041 140.393879 L 136.777137 141.519947 L 138.347892 142.732229 L 139.861731 144.014933 L 141.311846 145.369220 L 142.703444 146.783641 L 144.039085 148.251046 L 145.321745 149.765006 L 146.550906 151.322716 L 147.725487 152.921985 L 148.860595 154.549577 L 149.955843 156.204248 L 151.005652 157.888097 L 151.997189 159.606855 L 152.929610 161.358393 L 153.869174 163.106224 L 154.786964 164.865570 L 155.662558 166.646250 L 156.525743 168.433041 L 157.366973 170.230257 L 158.190632 172.035603 L 158.992902 173.850548 L 159.782828 175.670911 L 160.568975 177.492914 L 161.351548 179.316454 L 162.129648 181.141907 L 162.896604 182.972066 L 163.654571 184.805968 L 164.400029 186.644987 L 165.132451 188.489237 L 165.852597 190.338316 L 166.553942 192.194599 L 167.247442 194.053839 L 167.938108 195.914135 L 168.629825 197.774040 L 169.328163 199.631468 L 170.029713 201.487686 L 170.741505 203.339998 L 171.461435 205.189163 L 172.191091 207.034511 L 172.933079 208.874933 L 173.685472 210.711128 L 174.453346 212.540896 L 175.231705 214.366236 L 176.022641 216.186159 L 176.829716 217.998977 L 177.651443 219.805204 L 178.492968 221.602283 L 179.347293 223.393324 L 180.214425 225.178198 L 181.097223 226.955372 L 181.991582 228.726763 L 182.898599 230.491703 L 183.822481 232.247867 L 184.756550 233.998645 L 185.712901 235.737326 L 186.681371 237.469310 L 187.652911 239.199579 L 188.655663 240.911880 L 189.678864 242.612093 L 190.724366 244.298671 L 191.795108 245.969333 L 192.887118 247.626183 L 194.008240 249.263443 L 195.159066 250.879964 L 196.334000 252.479070 L 197.535071 254.058624 L 198.760225 255.619585 L 200.014657 257.157084 L 201.301298 258.667721 L 202.613494 260.156249 L 203.956664 261.616846 L 205.325898 263.053074 L 206.723383 264.461804 L 208.151682 265.839264 L 209.603778 267.191664 L 211.086019 268.510889 L 212.593423 269.801340 L 214.125240 271.062705 L 215.684440 272.290029 L 217.265963 273.488499 L 218.886379 274.633627 L 220.518383 275.761879 L 222.169564 276.861627 L 223.846139 277.922058 L 225.547769 278.941240 L 227.271751 279.922581 L 229.021150 280.858272 L 230.784850 281.766832 L 232.565512 282.642157 L 234.363958 283.479678 L 236.166302 284.309458 L 237.989154 285.093443 L 239.810309 285.881231 L 241.647450 286.630905 L 243.487383 287.373641 L 245.336725 288.092993 L 247.188194 288.806963 L 249.041117 289.517164 L 250.893571 290.228565 L 252.746185 290.939566 L 254.600388 291.646394 L 256.457254 292.346122 L 258.315918 293.041138" fill="none" stroke="black" stroke-width="1.000000" />
	<path d="M 167.031876 193.473434 L 165.592523 194.836869 L 164.136943 196.182965 L 162.677306 197.524662 L 161.196029 198.842426 L 159.735084 200.182695 L 158.256915 201.503946 L 156.751265 202.793785 L 155.221240 204.054616 L 153.675885 205.296615 L 152.102056 206.502315 L 150.519734 207.696862 L 148.912857 208.858154 L 147.297511 210.007651 L 145.666849 211.135308 L 144.022324 212.242651 L 142.371471 213.340546 L 140.703755 214.412638 L 139.033292 215.480460 L 137.348503 216.525518 L 135.660940 217.566104 L 133.960882 218.586137 L 132.253489 219.593854 L 130.540783 220.592514 L 128.828632 221.592128 L 127.110785 222.581918 L 125.396789 223.578363 L 123.686104 224.580484 L 121.980041 225.590450 L 120.285056 226.618890 L 118.601421 227.665806 L 116.937621 228.743941 L 115.298528 229.859260 L 113.695979 231.026417 L 112.134586 232.248066 L 110.610390 233.515854 L 109.123952 234.827705 L 107.666292 236.171502 L 106.234934 237.543288 L 104.843605 238.955603 L 103.511102 240.423456 L 102.236430 241.941824 L 101.015559 243.503803 L 99.862905 245.116706 L 98.772413 246.772318 L 97.747433 248.469251 L 96.790504 250.205463 L 95.900891 251.977118 L 95.072832 253.778393 L 94.297488 255.603012 L 93.569433 257.447025 L 92.886438 259.308203 L 92.266354 261.191211 L 91.722048 263.097457 L 91.240084 265.020476 L 90.817196 266.957349 L 90.462686 268.907858 L 90.182345 270.870378 L 89.984055 272.842842 L 89.851814 274.820911 L 89.782895 276.802196 L 89.779045 278.784667 L 89.837914 280.766278 L 89.972353 282.744134 L 90.176845 284.716013 L 90.455412 286.678769 L 90.801944 288.630704 L 91.214359 290.569790 L 91.715079 292.487825 L 92.296171 294.383132 L 92.950183 296.254556 L 93.689544 298.093823 L 94.493096 299.906126 L 95.367408 301.685289 L 96.296189 303.436750 L 97.194860 305.203876 L 98.043484 306.995549 L 98.909679 308.778871 L 99.850298 310.523783 L 100.868107 312.224865 L 101.970804 313.872059 L 103.162207 315.456209 L 104.436555 316.974479 L 105.797242 318.415732 L 107.230320 319.785244 L 108.719558 321.093650 L 110.259367 322.342158 L 111.841749 323.536346 L 113.459378 324.682408 L 115.109200 325.781629 L 116.786393 326.838675 L 118.489171 327.853991 L 120.216685 328.826617 L 121.964116 329.763062 L 123.729221 330.665761 L 125.513913 331.529029 L 127.318293 332.350339 L 129.140528 333.131262 L 130.979654 333.871521 L 132.834043 334.572698 L 134.702776 335.234690 L 136.585292 335.856394 L 138.480401 336.438600 L 140.387597 336.979873 L 142.305967 337.480108 L 144.234938 337.937730 L 146.173991 338.350511 L 148.121582 338.721002 L 150.076839 339.048597 L 152.038599 339.334745 L 154.006143 339.577880 L 155.979146 339.771439 L 157.956163 339.918848 L 159.936329 340.014187 L 161.918450 340.047794 L 163.900885 340.031570 L 165.882783 339.980699 L 167.863829 339.903086 L 169.843318 339.793143 L 171.820441 339.646807 L 173.793563 339.454414 L 175.760519 339.207140 L 177.720754 338.910920 L 179.672364 338.562608 L 181.613691 338.160903 L 183.543171 337.705709 L 185.458309 337.193629 L 187.357392 336.624863 L 189.238743 335.999951 L 191.101083 335.320453 L 192.941451 334.583609 L 194.755526 333.784333 L 196.546663 332.934619 L 198.317001 332.042345 L 200.061825 331.101293 L 201.775871 330.105366 L 203.449975 329.043910 L 205.068080 327.899354 L 206.604134 326.647648 L 207.961181 325.209059 L 208.717324 323.417410 L 208.594081 321.475833 L 208.564464 319.501189 L 208.136400 317.584245 L 207.529565 315.696903 L 206.775346 313.865124 L 205.778979 312.155575 L 204.745871 310.463488 L 203.659974 308.805177 L 202.532285 307.174608 L 201.369145 305.569173 L 200.183395 303.980276 L 198.992157 302.395460 L 197.801754 300.810017 L 196.623133 299.215817 L 195.462015 297.608832 L 194.321278 295.987326 L 193.208185 294.346757 L 192.133305 292.680965 L 191.097594 290.990522 L 190.110287 289.271447 L 189.169233 287.526565 L 188.280847 285.754363 L 187.458747 283.950569 L 186.690226 282.123128 L 185.999599 280.265189 L 185.387139 278.379883 L 184.887585 276.462024 L 184.423933 274.536539 L 184.052191 272.591261 L 183.761059 270.633096 L 183.559938 268.662920 L 183.440995 266.685760 L 183.394371 264.705172 L 183.425081 262.724270 L 183.529068 260.746414 L 183.703659 258.773149 L 183.956052 256.807972 L 184.288482 254.855602 L 184.729655 252.927172 L 185.276303 251.026992 L 185.928155 249.157352 L 186.676102 247.323009 L 187.497750 245.521043 L 188.377846 243.745877 L 189.299225 241.990524" fill="none" stroke="black" stroke-width="1.000000" />
	<path d="M 94.327010 92.694642 L 94.521404 93.153986 L 94.715798 93.613329 L 94.910191 94.072673 L 95.104389 94.532099 L 95.296112 94.992563 L 95.487834 95.453028 L 95.679557 95.913493 L 95.879051 96.370160 L 96.124584 96.804324 L 96.370118 97.238488 L 96.615651 97.672653 L 96.872104 98.099758 L 97.167242 98.501850 L 97.462381 98.903943 L 97.757520 99.306036 L 98.064275 99.698657 L 98.398693 100.068725 L 98.733110 100.438793 L 99.067528 100.808861 L 99.413360 101.167674 L 99.778674 101.507279 L 100.143988 101.846884 L 100.509301 102.186488 L 100.885349 102.513638 L 101.275171 102.824803 L 101.664993 103.135969 L 102.054815 103.447135 L 102.455913 103.743035 L 102.867933 104.024149 L 103.279954 104.305262 L 103.691974 104.586376 L 104.115536 104.849108 L 104.547715 105.098121 L 104.979894 105.347133 L 105.412072 105.596145 L 105.854990 105.824944 L 106.303230 106.043729 L 106.751470 106.262513 L 107.199710 106.481297 L 107.657964 106.677681 L 108.119905 106.865820 L 108.581845 107.053960 L 109.043786 107.242099 L 109.514822 107.405584 L 109.988265 107.562546 L 110.461708 107.719508 L 110.935151 107.876470 L 111.416497 108.006673 L 111.899255 108.132091 L 112.382014 108.257508 L 112.864773 108.382926 L 113.353776 108.480779 L 113.843451 108.575669 L 114.333125 108.670559 L 114.822800 108.765448 L 115.316545 108.835959 L 115.810488 108.905280 L 116.304431 108.974601 L 116.798375 109.043922" fill="none" stroke="black" stroke-width="1.000000" />
</svg>