<svg id="Layer_1" data-name="Layer 1" xmlns="http://www.w3.org/2000/svg" viewBox="0 0 123.03662 148.25977"><defs><style>.cls-1{fill:#231f20;}</style></defs><path class="cls-1" d="M163.96289,38.25146q-.28582.1479-.5712.29651t-.5703.29792q-.28493.14931-.56941.29933t-.5685.30074q-.284.15072-.56759.30214t-.56669.30354q-.28311.15213-.56578.30494t-.56486.30633q-.28221.15353-.564.30773t-.563.30911q-.2813.15491-.56212.3105t-.56119.31188q-.28037.15629-.56027.31326t-.55935.31463q-.27944.15766-.55842.316t-.55748.31737q-.27852.159-.55656.31874t-.55562.32011q-.27757.16039-.55468.32146t-.55374.32282q-.27663.16175-.5528.32417t-.55186.32552q-.27569.16309-.5509.32687t-.55.32821q-.27475.16445-.549.32955t-.54806.33089q-.27378.16578-.5471.33222t-.54614.33356q-.27282.1671-.54518.33488t-.54421.3362q-.27188.16843-.54326.33753t-.54228.33884q-.2709.16975-.54131.34016t-.54035.34147q-.26992.17106-.53936.34278t-.5384.34408q-.26895.17238-.53741.34539t-.53643.34668q-.268.17367-.53544.348t-.53447.34928q-.267.175-.53347.35056t-.53248.35185q-.266.17624-.53149.35313t-.53049.35441q-.265.17752-.5295.35568t-.52849.357q-.264.1788-.5275.35823t-.52649.3595q-.263.18006-.52548.36076t-.52447.362q-.262.18133-.52346.36328t-.52245.36454q-.261.18256-.52143.36578t-.52042.367q-.25995.18383-.51939.36828t-.51837.36951q-.25893.18507-.51734.37076t-.51632.372q-.25789.1863-.51528.37322t-.51426.37445q-.25686.18754-.51322.37568t-.51218.3769q-.25582.18876-.51114.37812t-.5101.37933q.27048-.25386.54183-.50688t.54359-.50518q.27222-.25216.54532-.50347t.54706-.50176q.274-.25046.54879-.50005t.55052-.49831q.2757-.24873.55224-.49658t.554-.49484q.27741-.247.55567-.49309t.55739-.49133q.27912-.24522.55909-.48957t.5608-.4878q.28081-.24345.56249-.486t.56418-.48423q.28253-.24166.56587-.48244t.56756-.48064q.28419-.23988.56923-.47884t.57091-.477q.28587-.238.57258-.4752t.57425-.47337q.28754-.23622.5759-.47153t.57757-.46969q.28919-.23439.57921-.46784t.58087-.466q.29083-.23251.58251-.46411t.58414-.46225q.29249-.23065.58579-.46036t.58741-.45848q.29411-.22876.589-.45659t.59066-.45468q.29574-.22686.59228-.45277t.59389-.45086q.29734-.225.5955-.44894t.5971-.447q.29895-.223.5987-.44507t.6003-.44312q.30055-.22107.60189-.44117t.60347-.43921q.30215-.21912.60506-.43725t.60664-.43527q.30371-.21714.6082-.43329t.60978-.4313q.30528-.21514.61134-.4293t.6129-.42731q.30684-.21315.61445-.42529t.616-.42327q.30838-.21114.61755-.42125t.61909-.41922q.30994-.2091.62064-.41718t.62216-.41514q.31146-.207.62369-.41308t.62522-.411q.313-.205.62674-.409t.62825-.40687q.3145-.20292.62977-.4048t.63127-.4027q.316-.20082.63277-.4006t.63427-.39851q.31752-.19872.63577-.39639t.63725-.39427q.319-.19661.63874-.39214t.64022-.39q.32048-.19446.64169-.38787t.64317-.38572l-.024-.04024L167.2771,31.15l-.024-.04023-.024-.04024-.024-.04024-.024-.04024-.02405-.04023-.024-.04024-.02405-.04024-.024-.04024-.02405-.04023-.024-.04024-.024-.04024-.024-.04024-.024-.04023-.02405-.04024-.024-.04024-.02405-.04023-.024-.04024-.024-.04024-.02405-.04024-.024-.04023-.02405-.04024-.024-.04024-.02405-.04024-.024-.04023-.024-.04024-.024-.04024-.024-.04024-.02405-.04023-.024-.04024-.02405-.04024-.024-.04024-.02405-.04023-.024-.04024-.024-.04024-.02405-.04024-.024-.04023-.02405-.04024-.024-.04024-.02405-.04024-.024-.04023-.024-.04024-.02405-.04024-.024-.04024-.02405-.04023-.024-.04024-.02405-.04024-.024-.04024-.024-.04023-.02405-.04024-.024-.04024-.02405-.04023-.024-.04024-.02405-.04024-.024-.04024-.02405-.04023-.024-.04024-.024-.04024-.02405-.04024-.024-.04023-.02405-.04024-.024-.04024-.024-.04024q-.49868.2979-.99563.59833t-.99215.6034q-.49519.303-.98866.60843t-.98515.61345q-.49169.308-.98162.61844t-.97808.62341q-.48814.31293-.97451.62834t-.97094.63326q-.48457.31785-.96735.63814t-.96373.643q-.481.32272-.96011.64785t-.95646.65266q-.47732.32754-.9528.65745t-.94911.66222q-.47364.3323-.94543.66695t-.9417.67166q-.46993.337-.938.67635t-.93424.681q-.46617.34167-.93046.68565t-.92669.69025q-.46239.34629-.92289.69485t-.91908.6994q-.45858.35085-.91524.70394t-.9114.70845q-.45472.35535-.90753.71294t-.90364.7174q-.45086.35981-.89975.72183t-.89584.72624q-.44693.36421-.8919.73062t-.88795.735q-.443.36858-.884.73932t-.88.74363q-.439.37289-.876.7479t-.872.75217q-.435.37714-.868.7564t-.86389.7606q-.43094.38136-.85983.76479t-.85574.76895q-.42686.3855-.85164.77308t-.84752.77718q-.42273.38961-.84339.78126t-.83923.78532q-.41858.39368-.83506.78936t-.83088.79335q-.41439.39768-.82667.79734t-.82245.80129q-.41017.40164-.81822.80523t-.814.80912q-.40592.40554-.80969.813t-.8054.81686q-.40162.40939-.80109.82069t-.79678.8245q-.3973.41319-.79243.82827t-.78808.832q-.393.417-.78371.83576t-.77932.83945q-.38854.42064-.77491.84313t-.77048.84679q-.38414.42431-.766.85041t-.76159.854q-.37968.4279-.75711.85759t-.75263.86114q-.37518.43146-.74811.86467t-.74359.86817q-.70485.64586-1.40439,1.29677t-1.39376,1.3068q-.6942.65591-1.383,1.31677t-1.37227,1.32664q-.68345.66577-1.36143,1.33643t-1.35052,1.34615q-.67251.67549-1.33952,1.35578t-1.32846,1.36534q-.66145.685-1.31734,1.37481t-1.30613,1.38419q-.65025.69444-1.29486,1.39351T93.6435,92.31488q-.63891.70367-1.2721,1.41188t-1.26062,1.421q-.62743.71272-1.24907,1.42994T88.62427,98.0165q-.61579.72164-1.22574,1.44767t-1.214,1.45642q-.604.73038-1.20213,1.46507t-1.19023,1.47366q-.59213.739-1.17824,1.48217t-1.1662,1.49058q-.58006.74737-1.15407,1.49892t-1.14188,1.50718q-.56788.75564-1.12961,1.51536T76.90491,112.877q-.55555.76374-1.10488,1.53147t-1.0924,1.53941q-.54306.77168-1.07985,1.54727t-1.06723,1.555q-.53045.77945-1.05454,1.56273t-1.04178,1.57034q-.51769.78706-1.029,1.57788t-1.01605,1.58532q-.50478.79452-1.00307,1.5927t-.99,1.6q-.49174.80179-.97692,1.60719t-.96373,1.61432q-.47856.80893-.95048,1.62137t-.93715,1.62833q-.46523.81589-.92375,1.63521t-.91029,1.642q-.45175.82271-.89674,1.64875t-.88314,1.65538q-.43815.82933-.86945,1.66195t-.8557,1.66842q-.42439.83583-.84188,1.67483t-.828,1.68114q-.41051.84214-.814,1.68739t-.8,1.69353q-.39648.84829-.78588,1.69962t-.7717,1.70561q-.38229.8543-.75745,1.71153t-.74313,1.71735q-.368.86013-.72874,1.72312t-.71428,1.72878q-.35352.8658-.69975,1.73437t-.68515,1.73989q-.33891.87131-.67047,1.74531t-.65573,1.75067q-.32417.87664-.64091,1.75593t-.626,1.76111q-.30927.88185-.61106,1.76623t-.596,1.77125l.0445.01477.04449.01477.0445.01477.04449.01477.0445.01477.04449.01477.0445.01477.04449.01477.0445.01477.04449.01477.0445.01477.04449.01477.04449.01477.0445.01477.04449.01477.0445.01477.04449.01478.0445.01477.04449.01477.0445.01477.04449.01477.0445.01477.04449.01477.0445.01477.04449.01477.04449.01477.0445.01477.04449.01477.0445.01477.04449.01477.0445.01477.04449.01477.0445.01477.04449.01477.0445.01477.04449.01477.0445.01478.04449.01477.04449.01477.0445.01477.04449.01477.0445.01477.04449.01477.0445.01477.04449.01477.0445.01477.04449.01477.0445.01477.04449.01477.0445.01477.04449.01477.04449.01477.0445.01477.04449.01477.0445.01477.04449.01478.0445.01477.04449.01477.0445.01477.04449.01477.0445.01477.04449.01477.0445.01477.04449.01477q.23471-.7074.47427-1.41319t.484-1.41q.24441-.70417.49364-1.4067t.50327-1.40339q.254-.70086.51286-1.4t.52242-1.39664q.2636-.69747.53193-1.39321T51.2,165.70219q.27308-.694.55086-1.3862t.56027-1.38265q.28248-.69042.56963-1.379t.579-1.37539q.29181-.68679.58827-1.37171t.59752-1.368q.30108-.683.60675-1.3642t.61593-1.36038q.31025-.67923.62507-1.35653t.63419-1.35263q.31937-.67533.64326-1.34869t.6523-1.34471q.3284-.67134.66129-1.34068t.67026-1.33661q.33736-.66729.67918-1.33251t.68807-1.32836q.34626-.66314.69692-1.32417t.70574-1.31993q.35507-.65889.71451-1.31565t.72325-1.31134q.36381-.65459.73195-1.307t.74062-1.30257q.37247-.65017.74925-1.29813t.75783-1.29364q.38106-.64571.76639-1.28912t.77491-1.28455q.38958-.64112.78339-1.27993t.79183-1.27528q.398-.63646.80023-1.27058t.80861-1.26585q.40638-.63172.81693-1.26107t.82523-1.25624q.41469-.62691.83349-1.25138t.84171-1.24647q.42289-.622.84989-1.24153t.858-1.23654q.431-.617.86614-1.2315t.87422-1.22643q.43913-.61194.88225-1.22132t.89025-1.21615q.44712-.60678.89821-1.211t.90614-1.20571q.455-.60154.914-1.20044t.92187-1.1951q.46289-.59622.92968-1.18974t.93746-1.18433q.47067-.5908.94519-1.17888t.9529-1.17338q.47837-.58531.96056-1.16785t.96819-1.16227q.486-.57973.97577-1.15665t.98333-1.151q.49355-.57406.99085-1.14528t.99832-1.13954q.501-.56833,1.00577-1.13375t1.01317-1.12793q-.39361.57276-.78354,1.14773t-.77616,1.15213q-.38624.57716-.76875,1.15648t-.76131,1.1608q-.37878.58147-.75382,1.16507t-.74632,1.1693q-.37128.58569-.73878,1.17347t-.7312,1.17761q-.36369.58983-.72359,1.1817t-.716,1.18575q-.35605.59387-.70828,1.18974t-.70057,1.1937q-.34834.59784-.69283,1.19761t-.68506,1.20148q-.34058.6017-.67725,1.2053t-.66942,1.20907q-.33274.60547-.66154,1.2128t-.65364,1.2165q-.32484.60915-.64571,1.22013t-.63773,1.22373q-.31688.61275-.62973,1.22728T80.024,120.923q-.30884.61626-.61363,1.23425t-.60552,1.23767q-.30074.61968-.5974,1.241t-.58923,1.24437q-.29256.623-.581,1.24766t-.5728,1.25089q-.28434.62624-.56453,1.25408t-.55623,1.25723q-.276.6294-.5479,1.26034t-.53954,1.2634q-.26767.63244-.53114,1.26641t-.52272,1.26938q-.25924.63541-.51425,1.2723t-.50575,1.27518q-.25075.63831-.49723,1.278T71.1964,141.056q-.24218.6411-.48007,1.28355t-.47144,1.28626q-.23356.64379-.46279,1.28891t-.4541,1.29152q-.22487.64639-.44537,1.29408t-.43661,1.29661q-.2161.64893-.42782,1.29908t-.419,1.30152q-.20728.65136-.41014,1.3039t-.40125,1.30624q-.1984.6537-.39233,1.30854t-.38337,1.31079q-.18945.656-.37439,1.313t-.36537,1.31517q-.18042.65811-.35631,1.31728t-.34723,1.31935q-.17133.66018-.33811,1.32138t-.32895,1.32336q-.1622.66218-.31977,1.3253t-.31056,1.3272q-.153.66406-.3013,1.329t-.292,1.33085q-.14369.66587-.2827,1.33261t-.27336,1.33432q-.13432.66757-.264,1.336t-.25455,1.33761l.04608.00861.04608.00861.04608.0086.04608.00861.04608.0086.04608.00861.04609.0086.04608.00861.04608.00861.04608.0086.04608.00861.04608.0086.04609.00861.04608.00861.04608.0086.04608.00861.04608.0086.04608.00861.04608.00861.04609.0086.04608.00861.04608.0086.04608.00861.04608.00861.04608.0086.04609.00861.04608.0086.04608.00861.04608.00861.04608.0086.04608.00861.04608.0086.04609.00861.04608.00861.04608.0086.04608.00861.04608.0086.04608.00861.04609.00861.04608.0086.04608.00861.04608.0086.04608.00861.04608.00861.04609.0086.04608.00861.04608.0086.04608.00861.04608.00861.04608.0086.04608.00861.04609.0086.04608.00861.04608.0086.04608.00861.04608.00861.04608.0086.04609.00861.04608.0086.04608.00861.04608.00861.04608.0086.04608.00861.04608.0086q.15528-.83179.31793-1.66235t.33266-1.65981q.17-.82925.34733-1.65716t.36194-1.65443q.18462-.82653.37649-1.65162t.391-1.6487q.19908-.82361.40537-1.64571t.41973-1.64261q.21345-.82053.434-1.63945t.44823-1.63618q.22767-.81726.4624-1.63283t.47649-1.62938q.24175-.81382.49052-1.62586t.50448-1.62223q.25572-.81019.51838-1.61853t.53223-1.61472q.26955-.8064.546-1.61085t.55971-1.60686q.28326-.80242.57335-1.6028t.58693-1.59865q.29683-.79827.60044-1.59441t.6139-1.59007q.3103-.79395.62728-1.58566t.64061-1.58115q.32363-.78942.65387-1.57655t.66706-1.57186q.33683-.78474.6802-1.56709t.69326-1.56222q.34989-.77988.70626-1.55727T80.24,127.341q.36282-.77483.73207-1.54709t.74489-1.54188q.37563-.76962.75763-1.53657t.77032-1.53117q.3883-.76422.78293-1.52568t.79548-1.52011q.40087-.75864.808-1.51444t.8204-1.50869q.41329-.7529.83275-1.50285t.84506-1.49691q.4256-.747.85729-1.4909t.86946-1.48479q.43776-.74085.88156-1.47859t.8936-1.4723q.44979-.73457.90557-1.46593t.91749-1.45946q.46171-.7281.92933-1.45291t.94112-1.44627q.47349-.72145.95284-1.43953t.96449-1.43272q.48515-.71463.97608-1.42581t.9876-1.4188q.49668-.70764.99907-1.41173t1.01047-1.40454q.50807-.70047,1.0218-1.39728t1.03307-1.38993q.51935-.69312,1.04427-1.38249T105.37,86.28667q.53049-.68559,1.06649-1.36734t1.07751-1.35962q.54149-.67788,1.08845-1.35183t1.09934-1.34394q.55237-.67,1.11016-1.336t1.12091-1.3279q.37305-.34132.74758-.68122t.75056-.67836q.376-.33845.75352-.67546t.75648-.67258q.379-.33555.75942-.66966t.76235-.66674q.38191-.33264.76528-.6638t.76819-.66086q.38481-.3297.77109-.6579t.774-.65493q.3877-.32671.77686-.65194t.77974-.64894q.39059-.32372.78259-.64593t.78545-.64291q.39342-.3207.78828-.63988t.79111-.63682q.39627-.31766.79393-.63377t.79674-.63069q.39907-.31458.79954-.62761t.80233-.6245q.40185-.31149.8051-.6214t.80787-.61827q.40463-.30835.81062-.61514t.81338-.612q.40737-.30521.8161-.60883t.81883-.60565q.4101-.302.82155-.60247t.82425-.59927q.4128-.29883.827-.59606t.82962-.59283q.41548-.2956.83231-.58959t.835-.58635q.41814-.29237.83761-.58309t.84026-.57981q.42079-.28908.84289-.57652t.84551-.57322q.42341-.2858.84812-.56992t.85072-.56658q.426-.28247.85331-.56325t.85589-.5599q.4286-.27912.85846-.55654t.861-.55316q.43115-.27573.86356-.54978t.8661-.54637q.4337-.27234.86863-.543t.87115-.53954q.4362-.2689.87365-.53609t.87615-.53265q.4387-.26545.87864-.52919t.88111-.5257q.44117-.262.88357-.52222t.886-.51872q.44362-.25848.88847-.51521t.89091-.51168q.44606-.255.89333-.50814t.89574-.50459q.44847-.2514.89814-.501t.90054-.49745q.45087-.24783.90292-.49386t.90529-.49026q.45323-.24423.90765-.48665t.91-.483q.45558-.2406.91234-.47938t.91467-.47572l-.02155-.04163-.02154-.04162-.02155-.04163-.02154-.04163-.02155-.04162-.02155-.04163-.02154-.04162-.02155-.04163-.02154-.04163-.02155-.04162-.02154-.04163-.02155-.04162-.02154-.04163-.02155-.04163-.02154-.04162-.02155-.04163-.02155-.04162-.02154-.04163-.02155-.04163-.02154-.04162-.02155-.04163-.02154-.04162-.02155-.04163-.02154-.04163-.02155-.04162-.02154-.04163-.02155-.04162-.02154-.04163-.02155-.04163-.02155-.04162-.02154-.04163-.02155-.04162-.02154-.04163-.02155-.04163-.02154-.04162-.02155-.04163-.02154-.04162-.02155-.04163-.02154-.04163-.02155-.04162-.02154-.04163-.02155-.04162-.02155-.04163-.02154-.04163-.02155-.04162-.02154-.04163-.02155-.04162-.02154-.04163-.02155-.04163-.02154-.04162-.02155-.04163-.02154-.04162-.02155-.04163-.02155-.04163-.02154-.04162-.02155-.04163-.02154-.04162-.02155-.04163-.02154-.04163-.02155-.04162-.02154-.04163-.02155-.04162-.02154-.04163Z" transform="translate(-44.28857 -28.65527)"/></svg>