<svg id="Layer_1" data-name="Layer 1" xmlns="http://www.w3.org/2000/svg" viewBox="0 0 151.34033 57.41699"><defs><style>.cls-1{fill:#231f20;}</style></defs><path class="cls-1" d="M139.82428,79.2207q.26726-.04315.53488-.08572t.53563-.08451q.268-.042.53639-.0833t.53714-.08209q.26875-.04073.53789-.08086t.53863-.07965q.26951-.03952.53937-.07843t.54011-.07721q.27024-.03829.54084-.076t.54157-.07475q.271-.03708.5423-.07353t.543-.0723q.27168-.03585.54374-.07107t.54446-.06983q.27241-.0346.54518-.0686t.54588-.06736q.27312-.03338.54659-.06613t.5473-.06488q.27382-.03213.548-.06364t.54869-.06239q.27452-.03089.54939-.06115t.55008-.0599q.2752-.02964.55076-.05865t.55145-.0574q.27589-.0284.55213-.05615t.55281-.05489q.27657-.02714.55348-.05363t.55416-.05238q.27725-.02586.55482-.05111t.55548-.04985q.27791-.02461.55615-.04858t.5568-.04732q.27856-.02335.55745-.04606t.55811-.04478q.27922-.02206.55876-.04351t.55939-.04223q.27987-.02081.56-.041t.56068-.03968q.2805-.01953.56131-.0384t.56194-.03713q.28113-.01824.56257-.03583t.5632-.03456q.28174-.017.56381-.03327t.56444-.032q.28236-.01567.565-.03069t.56566-.0294q.283-.01437.56627-.0281t.56686-.02681q.28359-.01307.56748-.0255t.56806-.02421q.28419-.01179.56867-.02291t.56925-.0216q.28478-.01049.56984-.0203t.57043-.019q.28536-.00918.571-.01769t.57159-.01637q.28593-.00786.57216-.01506t.57273-.01375q.2865-.00654.5733-.01243t.57386-.01111q.28707-.00522.57442-.00979t.575-.00847q.28764-.0039.57554-.00715t.57609-.00582l-.00043-.04688-.00043-.04687-.00043-.04688-.00042-.04687-.00043-.04688-.00043-.04687-.00042-.04688-.00043-.04687-.00043-.04688-.00043-.04687-.00042-.04688-.00043-.04687-.00043-.04688-.00043-.04687-.00042-.04688-.00043-.04687-.00043-.04688-.00042-.04687-.00043-.04688-.00043-.04687-.00043-.04688-.00042-.04687-.00043-.04688-.00043-.04687-.00043-.04688-.00042-.04687-.00043-.04688-.00043-.04687-.00042-.04688-.00043-.04687-.00043-.04688-.00043-.04687-.00042-.04688-.00043-.04687-.00043-.04688-.00042-.04687-.00043-.04688-.00043-.04687-.00043-.04688-.00042-.04687-.00043-.04688-.00043-.04687-.00043-.04688-.00042-.04687-.00043-.04688-.00043-.04687-.00042-.04688-.00043-.04687-.00043-.04688-.00043-.04687-.00042-.04688-.00043-.04687-.00043-.04688-.00043-.04687-.00042-.04688-.00043-.04687-.00043-.04688-.00042-.04687-.00043-.04688-.00043-.04687-.00043-.04688-.00042-.04687-.00043-.04688-.00043-.04687q-.53957.00483-1.07819.01195t-1.07631.01651q-.53769.00941-1.07441.02109t-1.07248.02563q-.53575.014-1.07054.03018t-1.06856.03471q-.53379.0185-1.06658.03924t-1.06455.04374q-.53178.023-1.06253.04826t-1.06046.05274q-.52971.02749-1.05838.05723t-1.05628.06171q-.52761.032-1.05415.06616t-1.052.07063q-.52547.03642-1.04984.07506t-1.04764.0795q-.52327.04086-1.04543.08393t-1.0432.08834q-.521.04527-1.04093.09274t-1.03866.09714q-.51876.04967-1.03635.10152t-1.034.1059q-.51644.054-1.03168.11026t-1.02932.11462q-.51405.05839-1.02692.119t-1.0245.1233q-.51165.06273-1.02208.12762t-1.01961.13194q-.50919.067-1.01713.13624t-1.01463.14054q-.50669.07134-1.01211.14483t-1.00956.1491q-.50414.07562-1.007.15336t-1.0044.15763q-.50155.07988-1.00179.16186t-.99915.16611q-.49891.0841-.9965.17033t-.99381.17455q-.49623.08832-.99111.17875t-.98839.18295q-.49351.09252-.98565.18713t-.98287.19132q-.49074.09669-.98008.19548t-.97728.19963q-.48792.10086-.97443.20378t-.97158.20792q-.48507.105-.9687.212t-.9658.21616q-.48217.10911-.96287.22028t-.95993.22436q-.47922.11322-.957.22846t-.954.23253q-.47623.11728-.951.2366t-.94793.24066q-.47319.12135-.94486.24471t-.94179.24874q-.47012.12539-.93869.25278t-.93556.25679q-.467.12939-.93242.26079t-.92925.2648q-.46383.13339-.92606.26879t-.92285.27276q-.46062.13737-.91962.27673t-.91636.28069q-.82379.15215-1.644.30955t-1.63676.32007q-.81655.16266-1.62944.33056t-1.622.341q-.80916.17312-1.61456.35146t-1.607.36188q-.80159.18354-1.59932.37226t-1.59156.38263q-.79383.19391-1.58373.393t-1.57581.40328q-.78589.20421-1.56779.41355t-1.5597.42382q-.77781.21447-1.55152.434t-1.54324.44426q-.76954.22468-1.53489.45444t-1.52644.4646q-.7611.23484-1.51791.47473t-1.5093.48483q-.75248.245-1.50059.49492t-1.49179.505q-.7437.255-1.48293.515t-1.474.525q-.73473.265-1.4649.535t-1.45577.54493q-.72558.27493-1.44654.55485t-1.43723.56475q-.71627.28485-1.42783.57462t-1.41834.58448q-.70679.29469-1.40877.59429t-1.39911.6041q-.69713.30448-1.38937.61386t-1.37953.62361q-.68728.31423-1.36961.63333t-1.35961.643q-.67728.32392-1.34951.65269t-1.33933.66234q-.66711.33357-1.32906.672t-1.31871.68154q-.65676.34317-1.30827.69112t-1.29775.70065q-.64621.35269-1.28712.71016t-1.27643.71966q-.63552.36219-1.26564.72912t-1.25476.73855q-.62466.37164-1.24381.748t-1.23275.75735q-.6136.381-1.22162.76672t-1.2104.77605q-.60237.39034-1.19909.78535t-1.18769.79464q-.591.39964-1.17621.8039t-1.16464.81314q-.57942.40887-1.153.82233t-1.14124.83152q-.56768.41805-1.12941.84068t-1.1175.8498q-.55575.42718-1.10549.85891t-1.0934.868q-.54368.43626-1.08123.877t-1.069.88606q-.5314.44529-1.05661.89507t-1.04418.904q-.519.45426-1.03165.913t-1.019.92191l.03164.03458.03163.03458.03163.03457.03163.03458.03163.03458.03163.03457.03163.03458.03164.03458.03163.03457.03163.03458.03163.03458.03163.03457.03163.03458.03163.03457.03164.03458.03163.03458.03163.03457.03163.03458.03163.03458.03163.03457.03163.03458.03164.03458.03163.03457.03163.03458.03163.03458.03163.03457.03163.03458.03164.03457.03163.03458.03163.03458.03163.03457.03163.03458.03163.03458.03163.03457.03164.03458.03163.03458.03163.03457.03163.03458.03163.03458.03163.03457.03163.03458.03164.03457.03163.03458.03163.03458.03163.03457.03163.03458.03163.03458.03163.03457.03164.03458.03163.03458.03163.03457.03163.03458.03163.03458.03163.03457.03163.03458.03164.03457.03163.03458.03163.03458.03163.03457.03163.03458.03163.03458.03164.03457.03163.03458.03163.03458q.38733-.3543.77849-.706t.78608-.70062q.39492-.349.79363-.69529t.80115-.68995q.40245-.34364.80862-.68459t.81605-.67923q.40988-.33827.82344-.67385t.83079-.66846q.41722-.33288.8381-.66306t.84537-.65764q.42448-.32748.85259-.65222t.85978-.64679q.43169-.322.86693-.64134t.874-.63587q.43879-.31658.8811-.63041t.88811-.62492q.44581-.3111.89511-.61943t.902-.61393q.45275-.30558.90894-.6084t.9158-.60288q.45961-.3.92262-.59733t.9294-.59179q.46639-.2945.93614-.58621t.94283-.58065q.47308-.28892.94949-.57505t.95611-.56945q.4797-.28334.96268-.56385t.96921-.55822q.48623-.2777.9757-.55259t.98216-.54694q.49269-.27205.98857-.54128t.99494-.53561q.49905-.2664,1.00126-.52994t1.00756-.52424q.50534-.26068,1.0138-.51853t1.02-.51282q.51156-.255,1.02618-.5071t1.0323-.50135q.51768-.24924,1.03839-.4956t1.04443-.48984q.52373-.24348,1.05043-.48407t1.0564-.47828q.52968-.23769,1.06231-.47248t1.0682-.46668q.53556-.23187,1.074-.46085t1.07983-.455q.54136-.22605,1.0856-.44918t1.09131-.44332q.54708-.22019,1.097-.43745t1.10262-.43157q.55272-.21432,1.10822-.42569t1.11377-.41978q.55827-.20841,1.11929-.41387t1.12476-.40794q.56373-.20248,1.13019-.402t1.13558-.39606q.56913-.19653,1.14093-.39009t1.14624-.38413q.57444-.19056,1.15151-.37813t1.15673-.37215q.57967-.18456,1.16193-.36613t1.16706-.36012q.58482-.17856,1.17218-.35409t1.17724-.348q-.48069.21989-.95878.44231t-.95354.44733q-.47544.22493-.94826.45235t-.943.45734q-.47014.22992-.93761.46233t-.93223.4673q-.46476.2349-.92681.47226t-.92135.4772q-.4593.23983-.91586.48213t-.91034.487q-.45378.24474-.90477.49194t-.89917.49683q-.44818.24963-.89354.5017t-.88786.50656q-.44252.25449-.88216.5114t-.87641.51623q-.43675.25932-.87063.52105t-.86481.52585q-.431.26412-.859.53063t-.85307.53541q-.42506.26889-.84714.54016t-.84119.54491q-.41908.27365-.83518.54964t-.82915.55436q-.41306.27836-.82308.55906t-.817.56374q-.40695.283-.81082.56842t-.80465.57308q-.40077.2877-.79843.57772t-.79218.58236q-.39453.29233-.7859.587t-.77956.59157q-.3882.29694-.77321.59617t-.76681.60073q-.3818.30151-.76037.6053t-.75391.60985q-.37533.306-.7474.61437t-.74085.6189q-.36879.31056-.73428.62339t-.72767.62789q-.36218.31506-.721.63236t-.71433.63683q-.35548.31951-.7076.64127t-.70084.6457q-.34874.324-.69405.65012t-.68722.65453q-.3419.32836-.68034.65892t-.67344.66329q-.335.33275-.66651.66766t-.65952.672q-.328.3371-.65251.67634t-.64546.68066q-.321.3414-.63838.685t-.63125.68926q-.31384.34569-.62409.69353t-.6169.69779q-.30664.35-.60967.702t-.60241.70628q-.29937.35419-.59509.7105t-.58776.7147q-.292.35841-.58038.7189t-.573.72308q-.28463.36258-.56552.72724t-.558.73139l.0374.02826.0374.02826.0374.02826.0374.02826.0374.02825.0374.02826.0374.02826.0374.02826.0374.02826.0374.02826.0374.02826.0374.02826.0374.02826.03739.02826.0374.02826.0374.02826.0374.02826.0374.02826.0374.02825.0374.02826.0374.02826.0374.02826.0374.02826.0374.02826.0374.02826.0374.02826.0374.02826.03739.02826.0374.02826.0374.02826.0374.02826.0374.02825.0374.02826.0374.02826.0374.02826.0374.02826.0374.02826.0374.02826.0374.02826.0374.02826.0374.02826.03739.02826.0374.02826.0374.02826.0374.02826.0374.02825.0374.02826.0374.02826.0374.02826.0374.02826.0374.02826.0374.02826.0374.02826.0374.02826.0374.02826.0374.02826.03739.02826.0374.02826.0374.02826.0374.02825.0374.02826.0374.02826.0374.02826.0374.02826q.35955-.47577.72561-.948t.73855-.94086q.3725-.46865.75142-.93369t.7642-.92649q.38528-.46145.7769-.91926t.78951-.912q.39791-.45417.80206-.9047t.8145-.89736q.41035-.44685.82688-.89t.83916-.88261q.42264-.43944.85137-.87517t.8635-.86771q.43476-.432.87554-.86022t.8875-.85269q.44673-.42445.89937-.84512t.91118-.83753q.45852-.41687.92288-.8299t.93452-.82224q.47016-.4092.94607-.81455t.95753-.80682q.48162-.40148.96892-.79906t.98022-.79126q.49291-.39369.99144-.78345t1.00258-.77558q.50406-.38581,1.01364-.76769t1.0246-.75977q.515-.37789,1.03551-.75181t1.04631-.74381q.52584-.36992,1.057-.7358t1.06769-.72774q.53649-.36185,1.07824-.71965t1.08873-.71152q.547-.35373,1.09913-.70338t1.10944-.69518q.55728-.34554,1.11968-.687t1.12982-.67871q.56745-.33728,1.1399-.67042t1.14989-.6621q.57743-.329,1.15979-.65374T80.97253,98.64q.58725-.32058,1.17936-.637t1.189-.62848q.59691-.31213,1.1986-.62t1.20808-.61148q.6064-.30362,1.2175-.60294t1.22683-.59435q.61574-.295,1.23608-.58574t1.24524-.57708q.6249-.28638,1.25433-.5684t1.26332-.55969q.63391-.27765,1.27225-.55093t1.28109-.54216q.64274-.26887,1.28984-.53334t1.29851-.52449q.6514-.26,1.3071-.51561t1.31561-.5067q.65993-.25111,1.324-.49775t1.33238-.48878q.66827-.24213,1.34064-.47975t1.34883-.47072q.67644-.23308,1.35692-.46163t1.36493-.45253q.68447-.224,1.37287-.44338t1.38072-.4342q.4353-.08016.87161-.15884t.87362-.15587q.43731-.07719.87563-.15289t.87761-.14991q.4393-.0742.8796-.14692t.88156-.14394q.44127-.07122.88352-.14094t.88545-.13794q.44322-.06822.88738-.13494t.8893-.13193q.44513-.06522.89119-.12892t.89308-.12591q.447-.06219.895-.12288t.89682-.11986q.44888-.05918.89867-.11684t.9005-.1138q.4507-.05615.90232-.11076t.90414-.10773q.4525-.0531.90593-.10468t.90771-.10163q.4543-.05005.90948-.09857t.91125-.09552q.456-.047.913-.09246t.91472-.08939q.45779-.04392.91644-.08632t.91814-.08324q.4595-.04086.91983-.08017t.92152-.07708q.46118-.03777.92318-.074t.92483-.0709q.46282-.03468.92647-.06781t.92811-.06471q.46444-.03157.92971-.0616t.93132-.05849q.46607-.02847.93291-.05538t.93448-.05227q.46762-.02535.936-.04914t.9376-.046q.46919-.02222.93913-.04288t.94065-.03976q.47071-.01908.94217-.03661t.94366-.03347q.4722-.01595.94514-.03033t.94662-.02717q.47369-.01279.94808-.024t.94952-.02086q.47513-.00963.951-.01769t.95237-.01453q.47653-.00646.95378-.01135t.95518-.00818q.47793-.00328.95655-.005t.95792-.00181q.47931-.00012.95928.00137t.96062.00458q.48065.00307.962.00776t.96326.011q.482.00628.96456.01417t.96586.01739q.48324.0095.96713.02061t.9684.02382q.4845.01272.96964.027t.97088.03028q.48576.01595.97211.0335t.97332.03674l.00186-.04684.00186-.04684.00187-.04685.00186-.04684.00186-.04685.00186-.04684.00186-.04685.00186-.04684.00187-.04685.00186-.04684.00186-.04685.00186-.04684.00186-.04684.00186-.04685.00186-.04684.00187-.04685.00186-.04684.00186-.04685.00186-.04684.00186-.04685.00186-.04684.00187-.04684.00186-.04685.00186-.04684.00186-.04685.00186-.04684.00186-.04685.00186-.04684.00187-.04685.00186-.04684.00186-.04684.00186-.04685.00186-.04684.00186-.04685.00187-.04684.00186-.04685.00186-.04684.00186-.04685.00186-.04684.00186-.04685.00187-.04684.00186-.04684.00186-.04685.00186-.04684.00186-.04685.00186-.04684.00186-.04685.00187-.04684.00186-.04685.00186-.04684.00186-.04684.00186-.04685.00186-.04684.00187-.04685.00186-.04684.00186-.04685.00186-.04684.00186-.04685.00186-.04684.00187-.04684.00186-.04685.00186-.04684.00186-.04685.00186-.04684q-.25075-.00989-.50135-.01933t-.501-.01847q-.25044-.009-.50071-.0176t-.50039-.01674q-.25012-.00815-.50007-.01588t-.49974-.015q-.24978-.00731-.49941-.01416t-.49909-.0133q-.24945-.00645-.49875-.01245t-.49842-.01159q-.24913-.00558-.49809-.01073t-.49775-.00988q-.24881-.00474-.49742-.009t-.49708-.00818q-.24846-.00387-.49674-.00732t-.4964-.00648q-.24812-.003-.49606-.00563t-.49571-.00478q-.24777-.00218-.49537-.00393t-.495-.00309q-.24742-.00134-.49468-.00225t-.49432-.0014q-.24708-.00049-.494-.00056t-.49362.00028q-.24674.00036-.49327.00112t-.49291.002q-.24638.0012-.49256.0028t-.49219.00364q-.246.002-.49184.00447t-.49147.00531q-.24564.00285-.49111.00614t-.49074.007q-.2453.00369-.49038.0078t-.49.00864q-.2449.00452-.48964.00946t-.48927.01029q-.24455.00535-.4889.01113t-.48853.01194q-.24417.00618-.48816.01277t-.48777.0136q-.2438.007-.4874.01442t-.487.01524q-.24342.00783-.48664.01607t-.48625.01688q-.243.00864-.48588.0177t-.48548.01852q-.24266.00947-.4851.01934t-.48472.02015q-.24225.01029-.48432.021t-.48393.02178q-.24186.0111-.48354.0226t-.48314.02341q-.24147.0119-.48275.02421t-.48235.025q-.24108.01272-.482.02584t-.48155.02664q-.24069.01353-.48116.02745t-.48074.02825q-.24027.01434-.48035.02906t-.47993.02987q-.23987.01514-.47953.03066t-.47912.03147q-.23946.01593-.47871.03227T139.82428,79.2207Z" transform="translate(-24.104 -73.25293)"/></svg>