<svg id="Layer_1" data-name="Layer 1" xmlns="http://www.w3.org/2000/svg" viewBox="0 0 325.7212 78.0056"><defs><style>.cls-1{fill:#231f20;}</style></defs><path class="cls-1" d="M276.9355,251.8867q-.4285,0-.8583-.0173t-.8586-.0516q-.4291-.0343-.8567-.0852t-.8521-.1182q-.4245-.0672-.8452-.15t-.8359-.1821q-.4152-.0988-.824-.2131t-.81-.2434q-.4009-.1292-.7931-.2731t-.7741-.3021q-.3819-.1583-.7526-.3305t-.7285-.3582q-.3579-.186-.7022-.3854t-.6734-.4117q-.3289-.2124-.642-.4375t-.6084-.4626q-.3154-.2538-.6119-.5195t-.5741-.5428q-.2775-.2772-.5358-.5656t-.4974-.5878q-.239-.2994-.4586-.6094t-.42-.63q-.2-.32-.38-.6509t-.3408-.6706q-.16-.34-.3008-.69t-.2608-.7086q-.12-.3588-.22-.7266t-.18-.744q-.08-.3764-.1386-.761t-.0974-.7772q-.0384-.3926-.0559-.7929t-.014-.808l.0012-.1093.0017-.11.0021-.11.0027-.1106.0031-.1109.0034-.1113.0038-.1117.0042-.1121.0044-.1123.0047-.1127.005-.113.0051-.1133.0054-.1135.0054-.1139.0056-.114.0056-.1144q.0149-.2991.0264-.5622c.0078-.1757.0143-.34.02-.4934s.0091-.2965.0115-.43.0032-.2567.0023-.3712-.0033-.22-.0078-.318-.0107-.1872-.0191-.27-.0189-.1578-.0316-.2268a1.7256,1.7256,0,0,0-.0451-.189,1.125,1.125,0,0,0-.06-.1563.8413.8413,0,0,0-.0755-.1289.763.763,0,0,0-.0923-.1066.8735.8735,0,0,0-.11-.09,1.2456,1.2456,0,0,0-.1293-.0776c-.0464-.0244-.0962-.0478-.1495-.0708s-.11-.0459-.1708-.0693-.1249-.0474-.1932-.0728q-.1672-.0624-.3474-.1163t-.3716-.1q-.1916-.0462-.3937-.0849t-.4137-.0706q-.2113-.0319-.4315-.0573t-.4474-.0448q-.2274-.0195-.4612-.0335t-.4728-.0229q-.2391-.009-.4825-.0134t-.49-.0047q-.2465,0-.4954.0029t-.4989.01q-.25.0063-.5.0154t-.4994.02q-.2492.0112-.4965.0241t-.4917.0271q-1.962.1142-3.9272.2784t-3.93.3772q-1.9646.213-3.9266.4745t-3.9177.57q-1.9557.3089-3.903.6647t-3.8827.7575q-1.9351.4018-3.8565.849t-3.8246.9388q-1.9034.4915-3.787,1.0272t-3.7436,1.1142q-1.86.5785-3.6945,1.2t-3.64,1.2836q-1.8053.6625-3.5791,1.3661t-3.5126,1.4471q-1.7388.7435-3.4406,1.5266t-3.3627,1.6047q-.6627.3278-1.3314.648t-1.3432.6288q-.6743.3085-1.3541.6029t-1.3644.5705q-.6848.2762-1.3741.5316t-1.383.486q-.6936.2305-1.3913.4339t-1.3989.3752q-.7011.1719-1.4057.31t-1.4119.2382q-.7074.1-1.4174.16t-1.4222.075q-.7122.0153-1.4264-.0164t-1.43-.1145q-.7157-.0829-1.4325-.2191t-1.4345-.33q-.4966-.1341-.9743-.2938t-.9354-.3447q-.4578-.1848-.8957-.3944t-.8549-.4433q-.4172-.2337-.8132-.4912t-.77-.538q-.3744-.2805-.7267-.5839t-.6821-.6289q-.33-.3255-.6362-.6728t-.59-.7157q-.2831-.3684-.5419-.7577t-.4932-.7987q-.2342-.41-.4434-.8387t-.3928-.8777q-.1836-.4485-.3411-.9158t-.2884-.9528q-.298-1.1053-.4773-2.1927t-.25-2.1582q-.0707-1.0708-.0379-2.1254t.1585-2.0944q.1257-1.04.3393-2.0652t.5046-2.0377q.291-1.0122.6544-2.012t.7886-1.9881q.4253-.9883.9073-1.966t1.0106-1.9456q.5284-.9681,1.0981-1.9271t1.17-1.91q.6006-.9513,1.2269-1.8953t1.2679-1.8821q.6416-.9379,1.2934-1.8706t1.3035-1.8609q.4769-.6793.9493-1.354t.9365-1.3447q.464-.67.9172-1.3357t.8918-1.3267q.4385-.6612.86-1.318t.8219-1.3094q.4-.6525.7775-1.3009t.7268-1.2926q.35-.6442.67-1.2845t.6065-1.2765q.2865-.6363.5371-1.2687t.4611-1.2611q.2106-.6286.379-1.2535t.2906-1.2463q.1221-.6213.1957-1.239t.0948-1.232q.0048-.1395.0057-.265t-.0018-.238c-.0018-.075-.0047-.1458-.0087-.2128s-.0091-.13-.0151-.1893-.0131-.1151-.021-.1675-.0166-.1016-.0261-.1476-.02-.0891-.031-.1294-.0227-.0778-.035-.1129-.0253-.0677-.0387-.0982-.0274-.0587-.0417-.0852-.0292-.051-.0443-.0739-.0305-.0444-.0462-.0645-.0315-.0389-.0476-.0568-.0322-.0346-.0484-.0507-.0325-.0316-.0487-.0466l-.0485-.044a3.3059,3.3059,0,0,0-.3135-.2476q-.1763-.1238-.3923-.2465t-.4722-.2429q-.2562-.12-.5528-.2364t-.6343-.2272q-.3378-.1109-.7168-.2152t-.8-.2q-.421-.096-.8841-.1829t-.9691-.1627q-.506-.0757-1.0549-.14t-1.1417-.1139q-.5927-.05-1.2293-.0853t-1.3177-.054q-.6811-.0187-1.407-.02t-1.4973.0169q-.7713.018-1.5883.0564-2.6811.1263-5.304.3674t-5.1886.5866q-2.5654.3456-5.074.7906t-4.96.9793q-2.452.5343-4.848,1.1528t-4.7364,1.3109q-2.3406.6924-4.626,1.4538t-4.5164,1.5813q-2.2311.82-4.408,1.6937t-4.3,1.7907q-2.1236.9169-4.194,1.8723t-4.0885,1.9389q-2.0181.9834-3.984,1.99t-3.8806,2.0258q-1.9145,1.0194-3.778,2.0465T92.5938,207.59q-2.4263,1.3711-4.7625,2.7253t-4.5856,2.6933q-2.2491,1.3392-4.4124,2.6642T74.59,218.3105q-2.08,1.3128-4.078,2.6144t-3.9167,2.5938q-1.9186,1.2921-3.7592,2.5759t-3.6058,2.561q-1.765,1.2773-3.4561,2.5489t-3.31,2.54q-1.6194,1.268-3.1686,2.5331t-3.0308,2.5294q-1.4816,1.2644-2.8968,2.5286t-2.7667,2.5306q-1.3515,1.2663-2.6406,2.5355t-2.5184,2.5431l-.45-.4339-.45-.434-.45-.4339-.45-.434-.45-.434-.45-.4339-.45-.434-.45-.4339-.45-.434-.45-.434-.45-.4339-.45-.434-.45-.4339-.45-.434-.45-.434-.45-.4339q1.2939-1.3409,2.6481-2.6752t2.7712-2.6641q1.417-1.33,2.8985-2.6558t3.03-2.6506q1.5484-1.3245,3.1652-2.6483t3.3046-2.649q1.6878-1.3251,3.4481-2.6525t3.5957-2.6591q1.8354-1.3317,3.7473-2.6686t3.9031-2.681q1.9913-1.3442,4.0629-2.6964t4.2268-2.7148q2.1549-1.3624,4.3947-2.736t4.5666-2.76q2.3271-1.3866,4.7428-2.7874t4.9229-2.8176q1.9092-1.0791,3.8723-2.1606t3.9816-2.1551q2.0184-1.0736,4.0926-2.1336t4.2053-2.0959q2.1311-1.0359,4.32-2.0423t4.4356-1.9725q2.2472-.9663,4.5533-1.8868t4.6727-1.7849q2.3666-.8641,4.7938-1.6669t4.9164-1.533q2.4893-.73,5.0409-1.3829,2.5518-.6511,5.1669-1.2167t5.2948-1.0347q2.6795-.4691,5.4241-.8363t5.5553-.6221q2.8107-.2549,5.688-.3917.99-.0466,1.9437-.0683t1.87-.0184q.9168.0033,1.7967.0315t1.7228.0813q.8428.0531,1.6486.131t1.5741.1807q.7684.1027,1.4994.23t1.4242.28q.6933.1522,1.3489.3293t1.2733.3787q.6177.2018,1.1974.4281t1.1211.4773q.5415.2511,1.0446.5266t.9678.5757q.4647.3.8908.6248t.8134.6738q.3758.3385.7036.688t.6122.7058q.2843.3563.5271.7173t.4482.723q.2054.362.3755.7226t.3093.7162q.139.3555.2491.7037t.1953.6852q.0852.3369.1477.6606t.1064.63q.0439.3065.0714.5935c.0187.1911.0325.3751.0426.551s.0164.3437.02.5023.0045.3083.0038.4477-.0032.2688-.0063.387-.0067.2253-.01.32q-.0306.8925-.125,1.7722t-.2471,1.7473q-.1527.8676-.3608,1.7234t-.4661,1.7009q-.2578.8451-.5628,1.68t-.6511,1.6595q-.3462.825-.731,1.6407t-.8025,1.6231q-.4178.8073-.8655,1.6066t-.92,1.5915q-.4722.7921-.9661,1.5776t-1.0038,1.5649q-.51.78-1.033,1.5535t-1.0538,1.5433q-.5307.7692-1.0662,1.5343t-1.07,1.5265q-.552.7865-1.0984,1.5674t-1.08,1.5561q-.5338.7754-1.0515,1.5448t-1.0122,1.5329q-.4944.7637-.9623,1.521t-.902,1.5087q-.4343.7514-.8312,1.4962t-.75,1.4833q-.3527.7385-.6577,1.47t-.5552,1.4569q-.25.7249-.4421,1.4432t-.3186,1.4293q-.1266.7112-.1843,1.4152a13.1406,13.1406,0,0,0-.04,1.4007,12.01,12.01,0,0,0,.1156,1.386,11.4968,11.4968,0,0,0,.2812,1.371q.0433.1607.0933.3129t.1069.2962q.057.1438.1209.28t.1353.2638q.0713.1279.15.2482t.165.2328q.0864.1127.18.2179t.1963.2033q.1022.0981.2124.1891t.2289.1751q.1187.0841.2458.1615t.263.1484q.1359.071.2807.1355t.2986.123q.1539.0583.317.1108t.3357.099q.417.1127.8462.1855t.87.1088q.44.036.8911.0366t.9106-.031q.46-.0317.9284-.094t.9441-.1526q.4757-.09.958-.2065t.97-.2559q.4877-.14.98-.3008t.9882-.341q.4959-.18.9946-.3768t.9989-.408q.5-.2111,1.0014-.4347t1.002-.4567q.5008-.2331,1.0006-.4742t.9975-.4872q1.7711-.8761,3.5853-1.711t3.6674-1.6278q1.8533-.7928,3.7433-1.5429t3.8129-1.4565q1.923-.7064,3.8767-1.3685t3.9341-1.2788q1.98-.6168,3.9856-1.1878t4.0309-1.0949q2.0258-.5241,4.07-1.0006t4.1032-.9047q2.0588-.4281,4.13-.8072t4.1509-.7082q2.08-.329,4.1656-.6075t4.1743-.5052q2.0883-.2268,4.1768-.4014t4.1731-.296q.3588-.021.72-.0392t.7234-.0329q.3624-.0146.7259-.025t.7275-.0153q.364-.0051.728-.0041t.7275.0089q.3635.0079.7258.0235t.7233.04q.3607.0243.7195.0578t.7149.0773q.3561.0439.7091.0987t.7023.1216q.3492.0669.6944.1463t.6856.1725q.34.0932.6756.2005t.6646.23a14.92,14.92,0,0,1,1.4108.6079,12.69,12.69,0,0,1,1.2267.6924,11.1975,11.1975,0,0,1,1.0553.7656,10.2842,10.2842,0,0,1,.8964.8274,9.8109,9.8109,0,0,1,1.3663,1.7946,10.14,10.14,0,0,1,.4949.9445q.2193.4771.3863.9606c.112.3217.208.6441.29.9655s.15.6416.2065.9589.1007.6316.1355.941.06.6139.0769.9116.0269.5886.031.8709.0026.5558-.0024.8187-.0134.5153-.0232.7552-.0211.4673-.0315.68l-.0043.0884-.0042.0882-.0042.088-.0042.0878-.0041.0876-.004.0874-.0038.0871-.0036.0869-.0034.0867-.0032.0864-.0028.0861-.0026.0859-.0022.0855-.0018.0852-.0015.085-.0009.0845q-.0011.1187.0029.2328t.0128.2238q.0088.11.0229.2155t.0333.2075q.0193.1019.0439.2t.0546.1928q.03.0948.0656.1862t.0767.18q.0413.0885.0881.1742t.1.1689q.0528.0831.1115.1639t.1235.16q.0648.0788.1357.1555t.1481.1519q.0771.0751.1607.1487t.1735.1461q.1265.1017.2719.2019t.308.1979q.1626.0975.3415.192t.3725.1843q.1935.09.4007.1751t.4266.1639q.2193.0789.45.151t.47.1365q.24.0642.4884.12t.504.102q.2554.0461.5169.0821t.5273.06q.2658.0246.5351.0371t.54.012q.2711-.0006.5429-.0149t.543-.0435q.1873-.02.3722-.047t.3679-.0591q.183-.0325.3644-.0707t.3617-.0817q.18-.0435.36-.092t.3583-.1017q.1789-.0531.3578-.1107t.3578-.1193q.1791-.0615.3587-.127t.36-.1342q.1806-.0688.3625-.1409t.3656-.1467q.1836-.0748.3693-.1522t.3737-.1568q.1881-.0795.3789-.1609t.3849-.1644l.0654-.0277.0654-.0278.0654-.0278.0655-.0277.0654-.0278.0654-.0278.0655-.0278.0654-.0277.0654-.0278.0655-.0278.0654-.0277.0654-.0278.0654-.0278.0655-.0278.0654-.0277.0654-.0278q.5952-.2492,1.2021-.49t1.2252-.4734q.6182-.2323,1.247-.4563t1.2677-.4389q.6388-.215,1.2873-.4212t1.3057-.4031q.6572-.1971,1.3228-.3849t1.3389-.3662q.6732-.1783,1.3537-.3472t1.3675-.328q.687-.1592,1.38-.3084t1.3913-.2886q.6983-.1392,1.4015-.2683t1.4106-.2478q.7073-.1188,1.4184-.227t1.4251-.2059q.3329-.0456.6783-.09t.7017-.0864q.3564-.042.7231-.0807t.7425-.0728q.3757-.0342.76-.063t.7752-.0509q.3911-.0222.7886-.037t.8-.0208q.4024-.006.8093-.0025t.8166.0177q.41.0142.8219.04t.8252.0645q.4131.0387.8265.091t.8259.12q.4124.0672.8231.15t.8184.183q.2787.0686.5486.143t.5316.1545q.2616.08.5153.1648t.5.1742q.246.0894.4848.1827t.4707.19q.2321.0968.4574.1966t.4447.202q.2192.1021.4327.2065t.4215.21q.2081.1056.4111.2124t.4013.214q.1983.1071.3922.2144t.384.2139q.19.1067.3764.2125t.37.21l.1987.1131.1975.1121q.0984.0558.1963.111t.1953.11q.0975.0544.1945.1082t.1937.1066q.0966.0528.193.1047t.1926.1029q.0963.0509.1923.1007t.192.0985q.096.0486.1919.096t.192.0934q.096.0461.1921.0907t.1924.0878q.0963.0432.1929.0848t.1934.0815q.6194.2554,1.2873.461t1.3753.3663q.7074.1608,1.45.2792t1.51.2q.7679.081,1.5567.1272t1.59.0626q.8007.0163,1.6086.0053t1.614-.0443q.8059-.0335,1.6054-.0867t1.5833-.1213q.7838-.0681,1.5471-.1486t1.4973-.1683q.734-.0879,1.4337-.1806t1.3563-.1854q.6565-.0926,1.2651-.1826c.405-.06.7925-.1175,1.16-.1724l.0923.6182.0923.6181.0923.6182.0923.6182.0923.6181.0922.6182.0923.6182.0923.6181.0923.6182.0923.6181.0923.6182.0923.6182.0922.6181.0923.6182.0923.6182.0923.6181q-.8875.1326-1.79.2617t-1.816.25q-.9136.1212-1.8366.2325t-1.8517.208q-.9288.0969-1.8615.177t-1.8658.1394q-.933.0591-1.8647.0951t-1.8582.0444q-.9266.0084-1.8463-.0131t-1.829-.077q-.9093-.0555-1.8062-.1475t-1.7781-.2247q-.8811-.1326-1.7445-.3084t-1.7055-.3986q-.8421-.223-1.6612-.4956t-1.6113-.599q-.1515-.0625-.3-.1265t-.2954-.129q-.1464-.0651-.29-.1313t-.2851-.1332q-.1413-.0671-.28-.1348t-.2753-.1362q-.1365-.0684-.2706-.1371t-.2658-.1379q-.1318-.069-.2614-.1381t-.2568-.1383q-.1274-.069-.2524-.138t-.2482-.1374q-.123-.0684-.2439-.1365t-.24-.1353l-.2359-.1338-.2319-.1319-.2956-.1679q-.1467-.0831-.2913-.1646t-.2875-.161q-.1429-.08-.2844-.157t-.2821-.1527q-.1406-.0752-.28-.1478t-.28-.1427q-.1395-.07-.2791-.1371t-.2795-.1313q-.14-.0641-.2805-.1249t-.2823-.1183q-.1418-.0575-.2848-.1112t-.2878-.1037q-.1449-.05-.2917-.096t-.2961-.0877q-.1494-.0417-.3013-.0791-.2567-.0628-.5227-.1139t-.54-.091q-.2738-.04-.5542-.07t-.5655-.05q-.2852-.0205-.574-.0321t-.5795-.0156q-.2907-.0039-.5822-.0006t-.5819.0128q-.29.0094-.5787.0246t-.5727.0349q-.2843.02-.5636.0435t-.5517.0506q-.2724.0267-.5369.0561t-.5192.06q-.2545.0308-.4984.0625t-.4749.0632q-.6345.0867-1.2656.1827t-1.2587.201q-.6273.105-1.2506.2191t-1.2415.2368q-.6184.1228-1.2316.2544t-1.22.2717q-.6072.14-1.2083.2886t-1.1952.3053q-.5942.1569-1.181.3218t-1.1658.338q-.579.173-1.15.3539t-1.1323.3695q-.5618.1885-1.1141.3848t-1.0948.4q-.5423.2037-1.0744.4148t-1.0531.4293l-.0611.026-.0612.0259-.0611.0259-.0612.026-.0611.0259-.0612.026-.0612.0259-.0611.0259-.0612.026-.0611.0259-.0612.026-.0611.0259-.0612.0259-.0612.026-.0611.0259-.0612.026q-.23.0981-.4635.1978t-.4717.2q-.2381.1-.48.2t-.49.1994q-.2473.0992-.5.197t-.51.1933q-.2577.0955-.521.1883t-.5325.1818q-.2692.0889-.5445.1739t-.5572.1646q-.2819.08-.57.154t-.5841.1419q-.2955.0676-.5983.1285t-.6131.1136q-.31.053-.6285.0974t-.6445.08c-.0446.0048-.0894.01-.1341.014s-.0895.0089-.1344.0131-.09.0083-.1345.0122-.09.0076-.1348.0112-.09.0071-.135.01-.09.0064-.1351.0094-.09.0059-.1353.0086-.09.0052-.1355.0076-.09.0047-.1356.0068-.09.004-.1358.0058-.0905.0034-.1359.0049-.0906.0029-.136.0041-.0907.0022-.1361.0031-.0908.0016-.1362.0022-.0908.0011-.1363.0014S276.981,251.8867,276.9355,251.8867Z" transform="translate(-28.2456 -173.8812)"/></svg>