<svg id="Layer_1" data-name="Layer 1" xmlns="http://www.w3.org/2000/svg" viewBox="0 0 326.4741 128.6864"><defs><style>.cls-1{fill:#231f20;}</style></defs><path class="cls-1" d="M276.9609,251.3818a13.972,13.972,0,0,1-1.8325-.1219,14.812,14.812,0,0,1-1.8193-.3591,15.6088,15.6088,0,0,1-1.7827-.5858,16.2829,16.2829,0,0,1-1.7228-.8023,16.7763,16.7763,0,0,1-1.6395-1.0085,17.11,17.11,0,0,1-4.1856-4.16q-.5085-.72-.9535-1.4913t-.8264-1.5922q-.3813-.8211-.6988-1.6917t-.5708-1.7893q-.2533-.9189-.4424-1.8856t-.3135-1.98q-.1243-1.0134-.1841-2.0731t-.0544-2.1645q.0009-.1767.0028-.3548t.0045-.3575q.0027-.1792.0061-.36t.0074-.3622q.0041-.1817.0085-.3643t.0093-.3662q.0048-.1836.01-.368l.01-.3695c.0195-.698.0355-1.3723.044-2.0211s.01-1.2717-.0009-1.8671-.0324-1.1632-.07-1.7013-.09-1.0464-.1624-1.5232a11.1818,11.1818,0,0,0-.279-1.333,6.7619,6.7619,0,0,0-.4192-1.1309,4.4379,4.4379,0,0,0-.5835-.9167,3.5179,3.5179,0,0,0-.7714-.69,3.573,3.573,0,0,0-.602-.3138,5.0235,5.0235,0,0,0-.6908-.2237,7.1885,7.1885,0,0,0-.7635-.1448c-.2648-.0363-.5391-.0614-.82-.0771s-.5689-.0219-.8608-.02-.588.01-.8855.0247-.5964.0349-.894.059-.5941.0521-.8865.082q-3.8748.3969-7.7613,1.1417-3.8829.7429-7.7548,1.8234-3.8682,1.0788-7.7027,2.4845-3.8308,1.404-7.6052,3.1246-3.7705,1.7188-7.462,3.744-3.6876,2.0235-7.2733,4.3428-3.582,2.3177-7.0392,4.9207-3.4535,2.6013-6.76,5.4778c-.5735.4994-1.2245,1.0663-1.9434,1.6671s-1.5055,1.2355-2.35,1.8707-1.7477,1.2707-2.699,1.8731a30.2051,30.2051,0,0,1-2.99,1.6743,22.248,22.248,0,0,1-3.2223,1.2744,16.78,16.78,0,0,1-3.397.6731,13.802,13.802,0,0,1-3.5134-.1293,13.6575,13.6575,0,0,1-5.353-2.1526,13.7628,13.7628,0,0,1-1.6151-1.2851,14.9039,14.9039,0,0,1-1.4451-1.5438,16.8308,16.8308,0,0,1-1.2708-1.7958,19.6122,19.6122,0,0,1-1.0926-2.0411,23.34,23.34,0,0,1-.91-2.28q-.4088-1.1985-.7236-2.5117t-.533-2.7369a55.1067,55.1067,0,0,1-.6074-6.6944,60.4366,60.4366,0,0,1,.1684-6.5977c.1728-2.1838.456-4.3526.8305-6.5073s.84-4.2956,1.3788-6.4234,1.149-4.2427,1.8132-6.3458,1.3817-4.1942,2.1338-6.2746,1.5386-4.15,2.3407-6.21,1.62-4.11,2.4337-6.1512q.9624-2.4135,1.9229-4.8468.9555-2.4329,1.8782-4.8829.9177-2.45,1.7721-4.9141.8494-2.464,1.6049-4.9405.75-2.4759,1.3765-4.9617c.4139-1.6569.78-3.3166,1.0867-4.9781s.5559-3.3251.736-4.99.2914-3.33.3238-4.9961c.0061-.3124.01-.635.0082-.9646s-.0074-.6662-.02-1.0067-.033-.6849-.062-1.03-.067-.6909-.1163-1.0343-.11-.6845-.1834-1.02-.1608-.6655-.2633-.9868a8.7391,8.7391,0,0,0-.3559-.9348,7.04,7.04,0,0,0-.4614-.864,6.8373,6.8373,0,0,0-1.32-1.5252,8.6818,8.6818,0,0,0-1.6892-1.131,12.1557,12.1557,0,0,0-1.9417-.7915,17.0306,17.0306,0,0,0-2.0779-.5063c-.7024-.1274-1.408-.2163-2.0976-.2759s-1.3631-.09-2.0011-.1-1.2406,0-1.7882.0217-1.04.054-1.459.0887a69.2768,69.2768,0,0,0-10.3571,1.6652,77.59,77.59,0,0,0-9.9224,3.0985,91.6287,91.6287,0,0,0-9.4929,4.3171c-3.0934,1.6183-6.1161,3.4039-9.0691,5.321s-5.8361,3.9657-8.65,6.11-5.56,4.3845-8.2374,6.6846-5.2872,4.66-7.83,7.0443-5.0182,4.7926-7.4276,7.1894q-4.8745,4.8489-9.3926,9.5841-4.5205,4.7387-8.7,9.3838-4.1823,4.6485-8.0393,9.2236-3.86,4.5783-7.41,9.1035-3.5529,4.5283-6.8121,9.0235-3.2618,4.4985-6.2457,8.9838-2.9865,4.4887-5.7108,8.9842Q38.27,242.0338,35.79,246.56l-.9865-.5408-.9864-.5408-.9865-.5407-.9864-.5408-.9865-.5408-.9865-.5408-.9864-.5407-.9865-.5408q2.5631-4.6749,5.37-9.31,2.81-4.639,5.8806-9.2594,3.0732-4.6239,6.4232-9.25,3.3528-4.6292,6.9983-9.2811,3.6483-4.6552,7.6057-9.3539,3.96-4.702,8.2453-9.468,4.288-4.7694,8.9174-9.6233,4.632-4.8573,9.6217-9.82c2.5535-2.54,5.1795-5.0925,7.8808-7.62s5.4778-5.0292,8.3324-7.4681,5.7869-4.8148,8.8-7.09,6.1068-4.4492,9.2838-6.4848,6.4373-3.9325,9.7836-5.6531a99.1714,99.1714,0,0,1,10.2993-4.5948,85.8868,85.8868,0,0,1,10.8311-3.31A78.5538,78.5538,0,0,1,163.55,122.85q2.0055-.1668,3.8849-.1532a35.7506,35.7506,0,0,1,3.6213.2033,29.4559,29.4559,0,0,1,3.34.5531,24.3738,24.3738,0,0,1,3.0424.8966,20.5067,20.5067,0,0,1,2.7271,1.2333,17.8021,17.8021,0,0,1,2.3945,1.5637,16.2068,16.2068,0,0,1,2.0446,1.8873,15.72,15.72,0,0,1,1.6776,2.2046,16.0262,16.0262,0,0,1,.8876,1.6066,17.16,17.16,0,0,1,.6869,1.6458c.1983.5529.3671,1.1089.5105,1.6647s.2615,1.1115.3582,1.6635.1721,1.1.23,1.6419.099,1.0759.1265,1.6.042,1.0379.0471,1.5379.0011.9863-.0081,1.4555c-.0365,1.87-.1561,3.7273-.3482,5.5712s-.4566,3.6747-.7828,5.4935-.714,3.6254-1.1528,5.4208-.9285,3.5793-1.4584,5.3528-1.1,3.5365-1.6993,5.29-1.2282,3.4969-1.8756,5.2317-1.3136,3.4606-1.9875,5.1785-1.3558,3.4275-2.0348,5.13c-.7932,1.989-1.5809,3.9642-2.3475,5.9284s-1.5119,3.9175-2.22,5.8624-1.38,3.8817-1.9994,5.8129-1.1857,3.857-1.6842,5.78-.9286,3.8434-1.2749,5.7638-.6087,3.8408-.7716,5.764a51.91,51.91,0,0,0-.1743,5.7809,46.6156,46.6156,0,0,0,.5172,5.8144c.0493.3216.1094.6737.1824,1.0462s.159.7653.26,1.1687.2171.8171.35,1.2313.2835.829.453,1.2342a11.6039,11.6039,0,0,0,.5684,1.1772,8.3535,8.3535,0,0,0,.6964,1.06,5.9658,5.9658,0,0,0,.8369.8835,4.4354,4.4354,0,0,0,2.4475,1.0559,5.7977,5.7977,0,0,0,1.5753-.0547,8.92,8.92,0,0,0,1.6746-.46,14.4225,14.4225,0,0,0,1.755-.8062c.5964-.32,1.2031-.6879,1.817-1.0941s1.235-.8506,1.86-1.3234,1.2545-.9742,1.8848-1.4942,1.2615-1.0586,1.8907-1.6063q3.5626-3.1014,7.2977-5.91,3.731-2.807,7.61-5.31,3.8745-2.5014,7.8721-4.6877,3.9935-2.1844,8.0852-4.0428,4.0876-1.8564,8.2491-3.3754,4.1573-1.5171,8.3636-2.6857,4.2021-1.1667,8.4287-1.9736,4.2225-.8049,8.4446-1.239c.4893-.05.9881-.0949,1.4937-.13s1.0181-.061,1.5349-.0728,1.0379-.01,1.5609.0109,1.0478.0594,1.572.1211,1.0476.146,1.5678.2576a14.5664,14.5664,0,0,1,1.5488.42,13.14,13.14,0,0,1,1.5145.61,12.4708,12.4708,0,0,1,1.4652.8253,12.633,12.633,0,0,1,2.204,1.8267,12.4475,12.4475,0,0,1,1.6351,2.1293,14.2187,14.2187,0,0,1,1.1484,2.3581,17.9957,17.9957,0,0,1,.7437,2.5134,24.247,24.247,0,0,1,.4211,2.5951c.0958.87.1514,1.7422.1807,2.603s.0323,1.7107.0225,2.5373-.0323,1.63-.0538,2.3981l-.01.3428-.0093.3415q-.0047.17-.0089.34t-.0082.3381q-.0037.1686-.0071.3362t-.0059.334q-.0026.1664-.0043.3316t-.0024.3291q-.0038.7466.0313,1.455t.1084,1.3782q.0735.67.1853,1.3t.2619,1.2215q.15.5908.3382,1.1417t.4144,1.0608q.2262.51.49.979a10.3471,10.3471,0,0,0,.5658.8961,8.0564,8.0564,0,0,0,.6406.7942,8.23,8.23,0,0,0,.7245.6994,8.119,8.119,0,0,0,.7892.595,7.6723,7.6723,0,0,0,.8344.481,6.9482,6.9482,0,0,0,.8605.3573,6.0226,6.0226,0,0,0,.8672.224,5.0853,5.0853,0,0,0,.8545.081,4.2571,4.2571,0,0,0,.8226-.0717,5.1819,5.1819,0,0,0,.6462-.1684,6.9222,6.9222,0,0,0,.6547-.2538c.22-.0976.4408-.2076.6634-.3281s.4467-.2516.6723-.3913.4528-.2881.6815-.4433.4589-.3172.6907-.4841.4652-.3388.7-.5138.4717-.3531.71-.5324l.1307-.0985.1308-.0983.1307-.0981.1307-.098.1308-.0976.1307-.0973.1307-.0969.1308-.0966q1.2063-.8892,2.4613-1.7191t2.5524-1.5978q1.2973-.7677,2.634-1.4719t2.706-1.3417q1.37-.6375,2.7686-1.2069t2.8216-1.0678q1.4224-.4983,2.8651-.9242t2.899-.7761c.4372-.1052.9012-.211,1.3878-.3115s.9957-.1957,1.5232-.28,1.0736-.1571,1.634-.2132,1.1349-.0951,1.72-.1113,1.18-.01,1.7808.0254a18.0035,18.0035,0,0,1,1.8169.1973,16.0191,16.0191,0,0,1,1.8284.4043,14.6725,14.6725,0,0,1,1.8149.6463q.5788.25,1.118.54t1.0436.6095q.5043.32.9763.6654t.9161.708q.4442.3624.8631.7372t.8173.7529q.3982.3783.7785.7553t.7469.7443q.2015.2018.4.4t.3957.3923q.1969.1936.3921.3818t.3893.369q.1941.1809.3875.3538t.3867.3363q.1932.1634.3867.3163t.3878.2939a11.5254,11.5254,0,0,0,2.2684,1.2778,13.8223,13.8223,0,0,0,2.5134.7859,18.2546,18.2546,0,0,0,2.71.3615,25.2607,25.2607,0,0,0,2.8581.0046c.972-.05,1.9607-.1491,2.9579-.2848s2.0031-.3084,3.0094-.5068,2.0132-.4226,3.0125-.6613,1.9912-.4919,2.9674-.7484l.2858,1.0882.2859,1.0881.2859,1.0881.2859,1.0882.2859,1.0881.2859,1.0881.2859,1.0882.2859,1.0881c-.8853.2327-1.8658.49-2.9227.75s-2.19.52-3.3811.7584-2.4391.4553-3.726.6265-2.6125.2968-3.9578.3534a34.3981,34.3981,0,0,1-4.0761-.0606,27.2428,27.2428,0,0,1-4.0812-.6155,22.5123,22.5123,0,0,1-3.9729-1.3116,20.2439,20.2439,0,0,1-3.7514-2.1485q-.3024-.22-.5917-.4457t-.567-.4575q-.2779-.2313-.5454-.467t-.5266-.4742q-.2591-.2385-.5107-.4792t-.4979-.4819q-.2462-.2414-.4879-.4824t-.4808-.4807q-.2977-.2979-.5859-.5847t-.57-.5584q-.2815-.2718-.5577-.5264t-.55-.4883q-.2736-.2337-.5461-.4445t-.5465-.3946q-.274-.1839-.5512-.339t-.56-.2774a5.9036,5.9036,0,0,0-.9132-.3055,7.6733,7.6733,0,0,0-.9772-.1744,10.048,10.048,0,0,0-1.0183-.0629c-.3438-.0045-.6907.0063-1.037.0292s-.6917.0578-1.0328.1016-.6777.0965-1.0061.1547-.6486.122-.9568.1881-.6044.1345-.8847.202q-1.2394.2982-2.4672.6605t-2.4382.7865q-1.2107.4242-2.4013.9087t-2.3561,1.0272q-1.1653.5426-2.3028,1.1417t-2.2416,1.2526q-1.104.6534-2.172,1.36t-2.0945,1.4629l-.1216.09-.1216.09-.1216.0907-.1216.091-.1217.0913-.1218.0916-.1218.0917-.1219.0919c-.3153.2373-.6359.4785-.9628.72s-.66.4845-1.0012.7244-.6891.4772-1.0461.7086-.7225.4567-1.0978.6729-.76.423-1.1563.6174-.8026.3762-1.2213.5422-.8494.3162-1.2932.4473-.9006.2429-1.3717.3324q-.1509.0288-.3024.0538t-.3035.0464q-.152.0214-.3045.0392t-.3054.0319q-.153.0141-.3062.0247t-.3067.0175q-.1535.0071-.3072.0105T276.9609,251.3818Z" transform="translate(-27.8979 -122.6954)"/></svg>