<svg id="Layer_1" data-name="Layer 1" xmlns="http://www.w3.org/2000/svg" viewBox="0 0 326.4741 77.992"><defs><style>.cls-1{fill:#231f20;}</style></defs><path class="cls-1" d="M276.9609,251.3818c-.61,0-1.2226-.025-1.8325-.0739s-1.2177-.1218-1.8193-.2176-1.1972-.2145-1.7827-.355-1.1611-.303-1.7228-.4863-1.11-.3873-1.6395-.6112-1.0423-.4675-1.5329-.73a16.0673,16.0673,0,0,1-1.403-.8424,13.5378,13.5378,0,0,1-1.25-.9486,13.09,13.09,0,0,1-.9535-.9038,11.8541,11.8541,0,0,1-.8264-.965,11.0664,11.0664,0,0,1-.6988-1.0253,10.6462,10.6462,0,0,1-1.0132-2.2272,11.06,11.06,0,0,1-.3135-1.2,11.86,11.86,0,0,1-.1841-1.2565,13.03,13.03,0,0,1-.0544-1.3118q.0009-.1071.0028-.215t.0045-.2167q.0027-.1086.0061-.2181t.0074-.22q.0041-.11.0085-.2208t.0093-.2219l.01-.2231.01-.2239c.0195-.423.0355-.8317.044-1.2249s.01-.7708-.0009-1.1316-.0324-.705-.07-1.0311a7.1948,7.1948,0,0,0-.1624-.9231,4.5681,4.5681,0,0,0-.279-.808,3.31,3.31,0,0,0-.4192-.6854,2.989,2.989,0,0,0-.5835-.5555,3.5278,3.5278,0,0,0-.7714-.4184,4.7287,4.7287,0,0,0-.602-.19c-.2164-.054-.4475-.0988-.6908-.1356s-.4986-.0657-.7635-.0878-.5391-.0372-.82-.0467-.5689-.0133-.8608-.0125-.588.0062-.8855.0151-.5964.0211-.894.0357-.5941.0315-.8865.05q-3.8748.24-7.7613.6919-3.8829.45-7.7548,1.1051-3.8682.6539-7.7027,1.5058-3.8308.8508-7.6052,1.8937-3.7705,1.0418-7.462,2.2691-3.6876,1.2264-7.2733,2.632-3.582,1.4046-7.0392,2.9822-3.4535,1.5767-6.76,3.32c-.5735.3026-1.2245.6462-1.9434,1.01s-1.5055.7488-2.35,1.1338-1.7477.77-2.699,1.1352-1.9512.71-2.99,1.0147a32.0558,32.0558,0,0,1-3.2223.7724,26.6482,26.6482,0,0,1-3.397.4079,22.689,22.689,0,0,1-3.5134-.0783,20.3385,20.3385,0,0,1-3.5719-.6866,17.1544,17.1544,0,0,1-1.7811-.618,14.8933,14.8933,0,0,1-1.6151-.7789,13.2864,13.2864,0,0,1-1.4451-.9356,12.2321,12.2321,0,0,1-1.2708-1.0884,11.7305,11.7305,0,0,1-2.0028-2.6187,12.37,12.37,0,0,1-.7236-1.5223,13.5117,13.5117,0,0,1-.533-1.6587,20.7,20.7,0,0,1-.6074-4.0572,22.2649,22.2649,0,0,1,.1684-3.9986,26.9762,26.9762,0,0,1,.8305-3.9439,35.6168,35.6168,0,0,1,1.3788-3.8929c.5383-1.29,1.149-2.5714,1.8132-3.846s1.3817-2.5419,2.1338-3.8028,1.5386-2.5151,2.3407-3.7634,1.62-2.4909,2.4337-3.7281c.6416-.9752,1.286-1.9545,1.9229-2.9374s1.2664-1.97,1.8782-2.9594,1.2059-1.9827,1.7721-2.9783,1.1046-1.9938,1.6049-2.9942.9625-2.0029,1.3765-3.0071.78-2.01,1.0867-3.0171a26.0721,26.0721,0,0,0,.736-3.024,21.0762,21.0762,0,0,0,.3238-3.0279c.0061-.1893.01-.3849.0082-.5846s-.0074-.4038-.02-.61-.033-.4151-.062-.6242-.067-.4188-.1163-.6269a5.5751,5.5751,0,0,0-.1834-.6182,4.7721,4.7721,0,0,0-.2633-.5981,4.3162,4.3162,0,0,0-.3559-.5666,4.2021,4.2021,0,0,0-.4614-.5236,5.7448,5.7448,0,0,0-1.32-.9244,10.3181,10.3181,0,0,0-1.6892-.6855,17.3823,17.3823,0,0,0-1.9417-.48c-.6764-.1293-1.3755-.23-2.0779-.3069s-1.408-.1311-2.0976-.1672-1.3631-.0544-2.0011-.06-1.2406,0-1.7882.0132-1.04.0328-1.459.0538c-3.5254.1771-6.9775.5208-10.3571,1.0092s-6.6868,1.1216-9.9224,1.8779-6.4,1.6357-9.4929,2.6164-6.1161,2.063-9.0691,3.2249-5.8361,2.4034-8.65,3.7031-5.56,2.6572-8.2374,4.0512-5.2872,2.8243-7.83,4.2693-5.0182,2.9046-7.4276,4.3572q-4.8745,2.9388-9.3926,5.8086-4.5205,2.8719-8.7,5.6872-4.1823,2.8171-8.0393,5.59-3.86,2.7748-7.41,5.5173-3.5529,2.7446-6.8121,5.4689-3.2618,2.7264-6.2457,5.4447-2.9865,2.72-5.7108,5.445-2.7268,2.7266-5.2073,5.4694l-.9865-.3277-.9864-.3277-.9865-.3278-.9864-.3277-.9865-.3278-.9865-.3277-.9864-.3278-.9865-.3277q2.5631-2.8332,5.37-5.6427,2.81-2.8116,5.8806-5.6118,3.0732-2.8023,6.4232-5.6058,3.3528-2.8056,6.9983-5.625,3.6483-2.8213,7.6057-5.669,3.96-2.85,8.2453-5.7382,4.288-2.89,8.9174-5.8324,4.632-2.9437,9.6217-5.9515c2.5535-1.5393,5.1795-3.0863,7.8808-4.618s5.4778-3.048,8.3324-4.5261,5.7869-2.918,8.8-4.2968,6.1068-2.6965,9.2838-3.93,6.4373-2.3834,9.7836-3.4262,6.7785-1.9786,10.2993-2.7847,7.13-1.4824,10.8311-2.0059,7.4928-.8945,11.3789-1.09q2.0055-.1011,3.8849-.0928t3.6213.1232q1.742.1149,3.34.3352t3.0424.5434q1.4437.3229,2.7271.7475a21.4139,21.4139,0,0,1,2.3945.9476,15.9491,15.9491,0,0,1,2.0446,1.1439,12.0219,12.0219,0,0,1,1.6776,1.3361,9.779,9.779,0,0,1,.8876.9737,8.8808,8.8808,0,0,1,.6869.9974,8.5662,8.5662,0,0,1,.5105,1.009,8.8327,8.8327,0,0,1,.3582,1.0082,9.6152,9.6152,0,0,1,.23.9951c.0581.3281.099.652.1265.97s.042.629.0471.932.0011.5978-.0081.8821a24.58,24.58,0,0,1-.3482,3.3765,29.1209,29.1209,0,0,1-.7828,3.3295c-.3261,1.1022-.714,2.1972-1.1528,3.2853s-.9285,2.1693-1.4584,3.2441-1.1,2.1434-1.6993,3.206-1.2282,2.1194-1.8756,3.1708-1.3136,2.0973-1.9875,3.1384-1.3558,2.0774-2.0348,3.1092c-.7932,1.2055-1.5809,2.4026-2.3475,3.593s-1.5119,2.3742-2.22,3.553-1.38,2.3526-1.9994,3.523-1.1857,2.3376-1.6842,3.5031a32.4051,32.4051,0,0,0-1.2749,3.4931,23.807,23.807,0,0,0-.7716,3.4934,19.1375,19.1375,0,0,0-.1743,3.5036,17.4983,17.4983,0,0,0,.5172,3.5239c.0493.1949.1094.4083.1824.634s.159.4639.26.7083.2171.4953.35.7463a7.5248,7.5248,0,0,0,.453.748,6.4993,6.4993,0,0,0,.5684.7134,5.7421,5.7421,0,0,0,.6964.6426,5.3506,5.3506,0,0,0,.8369.5355,5.4357,5.4357,0,0,0,.99.392,6.9389,6.9389,0,0,0,1.4575.2479,9.5232,9.5232,0,0,0,1.5753-.0332,13.742,13.742,0,0,0,1.6746-.2786c.5726-.13,1.1587-.2947,1.755-.4886s1.2031-.417,1.817-.6631,1.235-.5155,1.86-.8021,1.2545-.59,1.8848-.9055,1.2615-.6417,1.8907-.9736q3.5626-1.88,7.2977-3.582,3.731-1.7012,7.61-3.2183,3.8745-1.5159,7.8721-2.841,3.9935-1.3239,8.0852-2.45,4.0876-1.125,8.2491-2.0457,4.1573-.9195,8.3636-1.6277,4.2021-.7071,8.4287-1.1961,4.2225-.4878,8.4446-.7509c.4893-.03.9881-.0575,1.4937-.0789s1.0181-.037,1.5349-.0442,1.0379-.0058,1.5609.0067,1.0478.036,1.572.0733,1.0476.0886,1.5678.1562,1.0374.1516,1.5488.2548,1.017.2254,1.5145.3695.9867.31,1.4652.5a13.2927,13.2927,0,0,1,2.204,1.1071,9.5806,9.5806,0,0,1,1.6351,1.29,7.9383,7.9383,0,0,1,1.8921,2.9525,9.5129,9.5129,0,0,1,.4211,1.5728,12.86,12.86,0,0,1,.1807,1.5775c.0293.5218.0323,1.0368.0225,1.5378s-.0323.988-.0538,1.4534l-.01.2078-.0093.207q-.0047.1032-.0089.206t-.0082.2049q-.0037.1022-.0071.2038t-.0059.2024q-.0026.1008-.0043.201t-.0024.1994q-.0038.4526.0313.8818t.1084.8353a7.687,7.687,0,0,0,.1853.7881,6.98,6.98,0,0,0,.2619.74,6.61,6.61,0,0,0,.3382.6919,6.4752,6.4752,0,0,0,.4144.643,6.6006,6.6006,0,0,0,.49.5933,6.9388,6.9388,0,0,0,.5658.5431,6.4488,6.4488,0,0,0,.6406.4813,7.8537,7.8537,0,0,0,.7245.4239c.2533.131.5175.2516.7892.3606s.5509.2065.8344.2915.5715.1575.8605.2166.5792.1046.8672.1357a8.3051,8.3051,0,0,0,.8545.0491,6.9458,6.9458,0,0,0,.8226-.0435q.321-.0369.6462-.102t.6547-.1538q.33-.0888.6634-.1989t.6723-.2371q.3384-.127.6815-.2687t.6907-.2934q.3477-.1518.7-.3114t.71-.3227l.1307-.06.1308-.06.1307-.0595.1307-.0594.1308-.0591.1307-.059.1307-.0588.1308-.0585q1.2063-.5388,2.4613-1.0419t2.5524-.9683q1.2973-.4653,2.634-.8921t2.706-.8131q1.37-.3864,2.7686-.7315t2.8216-.6472q1.4224-.302,2.8651-.56t2.899-.47c.4372-.0638.9012-.1279,1.3878-.1888s.9957-.1187,1.5232-.17,1.0736-.0952,1.634-.1292,1.1349-.0576,1.72-.0675,1.18-.0059,1.7808.0154,1.208.06,1.8169.12,1.22.14,1.8284.245,1.215.2343,1.8149.3917q.5788.1518,1.118.3274t1.0436.3693q.5043.194.9763.4033t.9161.4291q.4442.22.8631.4468t.8173.4563q.3982.2292.7785.4578t.7469.451q.2015.1224.4.2427t.3957.2377q.1969.1175.3921.2314t.3893.2237q.1941.11.3875.2144t.3867.2038q.1932.099.3867.1917t.3878.1781a14.8108,14.8108,0,0,0,2.2684.7744,20.8516,20.8516,0,0,0,2.5134.4763c.8732.1137,1.7792.1844,2.71.2191s1.8861.0334,2.8581.0029,1.9607-.09,2.9579-.1727,2.0031-.1868,3.0094-.3071,2.0132-.2561,3.0125-.4008,1.9912-.2981,2.9674-.4536l.2858.6595.2859.66.2859.66.2859.6594.2859.6595.2859.66.2859.66.2859.6595c-.8853.141-1.8658.2971-2.9227.4542s-2.19.315-3.3811.46-2.4391.2759-3.726.38-2.6125.18-3.9578.2142-2.71.0269-4.0761-.0367-2.7325-.1832-4.0812-.3731a33.67,33.67,0,0,1-3.9729-.7949,25.8464,25.8464,0,0,1-3.7514-1.3021q-.3024-.133-.5917-.27t-.567-.2773q-.2779-.14-.5454-.283t-.5266-.2874q-.2591-.1446-.5107-.29t-.4979-.2921q-.2462-.1462-.4879-.2924t-.4808-.2913q-.2977-.1806-.5859-.3543t-.57-.3385q-.2815-.1647-.5577-.319t-.55-.296q-.2736-.1416-.5461-.2693t-.5465-.2392q-.274-.1114-.5512-.2054t-.56-.1682a8.8218,8.8218,0,0,0-.9132-.1851c-.3164-.0478-.6433-.0824-.9772-.1057s-.6745-.0354-1.0183-.0381-.6907.0038-1.037.0176-.6917.0351-1.0328.0616-.6777.0585-1.0061.0938-.6486.0739-.9568.114-.6044.0815-.8847.1224q-1.2394.1807-2.4672.4t-2.4382.4767q-1.2107.2569-2.4013.5507t-2.3561.6225q-1.1653.3288-2.3028.692t-2.2416.7592q-1.104.3958-2.172.824t-2.0945.8865l-.1216.0545-.1216.0548-.1216.055-.1216.0552-.1217.0553-.1218.0555-.1218.0556-.1219.0557q-.473.2157-.9628.4366t-1.0012.439q-.5112.2182-1.0461.4295t-1.0978.4078q-.5629.1965-1.1563.3742t-1.2213.3286q-.6281.1509-1.2932.2711t-1.3717.2014q-.1509.0174-.3024.0326t-.3035.0282q-.152.0129-.3045.0237t-.3054.0193q-.153.0085-.3062.015t-.3067.0107q-.1535.0042-.3072.0063T276.9609,251.3818Z" transform="translate(-27.8979 -173.3898)"/></svg>