<svg id="Layer_1" data-name="Layer 1" xmlns="http://www.w3.org/2000/svg" viewBox="0 0 326.4741 77.992"><defs><style>.cls-1{fill:#231f20;}</style></defs><path class="cls-1" d="M276.9609,251.3818q-.4578,0-.9164-.0186t-.9161-.0553q-.4575-.0367-.9128-.0912t-.9065-.1264q-.4512-.0719-.8974-.1607t-.8853-.1943q-.4392-.1055-.87-.2271t-.8524-.2592q-.4212-.1374-.8316-.29t-.8079-.3208q-.3975-.1678-.7813-.3505t-.7516-.3794q-.368-.1968-.7192-.4075t-.6838-.4349q-.3325-.2241-.6455-.4614t-.6042-.4872q-.2542-.2183-.4926-.4442t-.4609-.46q-.2226-.2337-.4291-.4749t-.3973-.49q-.1906-.2488-.3654-.5052t-.3334-.52q-.1589-.2637-.3015-.5349t-.2693-.55q-.1268-.2785-.2373-.5642t-.2051-.5786q-.0945-.2929-.1729-.5929t-.1406-.6072q-.0622-.3071-.1082-.6212t-.0759-.6353q-.03-.321-.0435-.649t-.0109-.6628l.0011-.1073.0017-.1077.002-.1081.0025-.1086.0029-.1088.0032-.1093.0036-.11.0038-.11.0042-.11.0043-.1106.0045-.1108.0048-.1111.0048-.1114.005-.1117.0051-.1118.0051-.1121q.0145-.3173.0261-.6237t.0179-.6012q.0064-.2949.0067-.5779t-.0076-.5537q-.0079-.2708-.0248-.5286t-.045-.5025q-.0281-.2445-.0681-.4755t-.0943-.4476q-.0542-.2167-.1234-.4189a4.15,4.15,0,0,0-.1556-.3891,3.5022,3.5022,0,0,0-.1906-.3584,3.1444,3.1444,0,0,0-.2286-.327,2.9839,2.9839,0,0,0-.27-.2944,3.0208,3.0208,0,0,0-.3138-.2611,3.284,3.284,0,0,0-.3607-.2268,3.8028,3.8028,0,0,0-.4107-.1916q-.1381-.0549-.2889-.1023t-.3131-.0878q-.1623-.0405-.3353-.0742t-.3555-.0614q-.1824-.0276-.3736-.0495t-.39-.0383q-.1986-.0165-.404-.0281t-.4162-.0186q-.2108-.0072-.4263-.01t-.4345-.0024q-.219.0006-.4407.0045t-.4448.0106q-.2231.0066-.4469.0157t-.4471.02q-.2232.0109-.4452.0235t-.4413.0262q-1.9374.12-3.8787.2935t-3.8826.3984q-1.9415.2252-3.8811.5017t-3.8737.6034q-1.9341.327-3.8607.7036t-3.842.8022q-1.9155.4254-3.8176.8991t-3.7876.9946q-1.8852.5208-3.7517,1.0884t-3.71,1.1807q-1.8438.6132-3.6631,1.2714t-3.61,1.3606q-1.791.7023-3.5517,1.4481t-3.4875,1.5341q-1.7267.7884-3.4175,1.6186t-3.342,1.7014c-.2867.1513-.5929.3128-.9172.4821s-.6668.3461-1.0262.5282-.7358.3693-1.1279.5591-.8.3822-1.2223.5747-.8593.385-1.31.575-.9138.3776-1.3894.56-.9635.36-1.4622.53-1.0083.3324-1.5276.4847-1.0482.2946-1.5857.4241-1.0834.2465-1.6366.3483-1.1138.1883-1.68.2571-1.1392.12-1.7167.1508-1.16.0415-1.7458.0293-1.1755-.0473-1.7676-.1076-1.1865-.1461-1.7823-.26-1.1926-.255-1.79-.4269q-.4656-.1341-.911-.2887t-.87-.3293q-.4247-.1747-.8286-.37t-.7865-.4093q-.3828-.2145-.7441-.4485t-.701-.4871q-.34-.2532-.6574-.5254t-.6134-.563q-.2956-.2909-.5689-.6t-.5237-.6368q-.25-.3276-.4782-.6731t-.432-.7086q-.2043-.3631-.3854-.7438t-.3382-.7785q-.1574-.3976-.2906-.8125t-.2424-.8462a20.6955,20.6955,0,0,1-.4078-2.0362q-.1508-1.0142-.2-2.021t-.0057-2.0064q.0434-1,.1741-1.9922t.34-1.9785q.2088-.986.4909-1.9654t.628-1.9526q.3459-.9732.7508-1.94t.8594-1.9286q.4545-.9615.9538-1.9174t1.0339-1.9065q.5348-.9507,1.1-1.8963t1.1516-1.8864q.5864-.9408,1.1891-1.877t1.2123-1.8683q.61-.9319,1.2214-1.86.4812-.7314.9632-1.4658t.96-1.4716q.4778-.7372.9485-1.4772t.93-1.4822q.4589-.7423.9031-1.4869t.869-1.4914q.4246-.7467.8272-1.4953t.7777-1.4989q.3753-.75.7206-1.5021t.6559-1.505q.31-.7532.5834-1.5075t.5033-1.51q.23-.7553.4157-1.5113t.32-1.5127q.135-.7566.2172-1.5136t.1066-1.5143q.0047-.142.0069-.2884t.0013-.2962q-.0009-.15-.0058-.3026c-.0034-.1018-.0081-.2044-.0147-.3075s-.0147-.207-.025-.3111-.0225-.2086-.037-.3131-.0313-.2093-.05-.3139-.0412-.209-.0658-.313-.052-.2078-.0825-.3109-.064-.2057-.1009-.3073-.077-.2025-.1208-.3023-.0912-.1984-.1425-.2958-.1063-.1934-.1655-.2879-.1226-.1875-.19-.2787-.14-.18-.2167-.2679-.1583-.1727-.2447-.2557a4.9708,4.9708,0,0,0-.6068-.4941,6.6737,6.6737,0,0,0-.7135-.43c-.2541-.1332-.5235-.2565-.8058-.3705s-.5776-.2188-.8834-.315-.6222-.1837-.9466-.2635-.6569-.1515-.9951-.2161-.6821-.1221-1.0292-.173-.6975-.0953-1.0487-.1339-.7032-.0714-1.0536-.099-.6992-.05-1.044-.0682-.6856-.0316-1.02-.0415-.6622-.0159-.9812-.019-.6292-.0029-.928,0-.5864.0072-.86.0137-.5339.0147-.7779.0239-.4718.0194-.6811.03q-2.644.1329-5.2332.3879t-5.1239.6213q-2.5347.3663-5.0152.8385t-4.9072,1.0394q-2.4266.5673-4.8,1.224t-4.6931,1.3924q-2.32.7356-4.5872,1.5445t-4.4819,1.68q-2.2146.8713-4.3772,1.8-2.1625.927-4.2733,1.9032t-4.17,1.99q-2.0594,1.0141-4.0674,2.061T104.6,197.5171q-1.9575,1.0687-3.8643,2.1538t-3.7637,2.1758q-1.8569,1.0907-3.6639,2.1814-2.4373,1.4694-4.7848,2.921t-4.6078,2.8876q-2.26,1.4359-4.4347,2.8572t-4.2655,2.83q-2.0911,1.4085-4.1,2.8056t-3.939,2.7844q-1.93,1.3875-3.7817,2.7662t-3.6283,2.7511q-1.7764,1.3723-3.4788,2.739t-3.3333,2.73q-1.6309,1.3632-3.1917,2.7238t-3.054,2.7209q-1.4933,1.36-2.92,2.7209T40.9969,242.99q-1.3633,1.3632-2.6646,2.73T35.79,248.4592l-.4933-.1638-.4932-.1639-.4932-.1639-.4932-.1638-.4933-.1639-.4932-.1639-.4932-.1639-.4932-.1638-.4933-.1639-.4932-.1639-.4932-.1638-.4933-.1639-.4932-.1639-.4932-.1639-.4932-.1638-.4933-.1639q1.2816-1.4166,2.6234-2.8268t2.7469-2.8159q1.4051-1.4058,2.8745-2.8082t3.0061-2.8036q1.5366-1.4012,3.1417-2.8021t3.2815-2.8037q1.6764-1.4028,3.4253-2.8086t3.573-2.8164q1.8241-1.4106,3.7249-2.8274t3.8808-2.8416q1.98-1.4248,4.0406-2.8589t4.2047-2.8793q2.1439-1.4452,4.3727-2.9029t4.5447-2.9295q2.316-1.4718,4.7208-2.9592t4.9009-2.9923q1.9152-1.1544,3.8849-2.3119,1.97-1.1559,3.9959-2.3061T98.95,193.26q2.0829-1.133,4.2237-2.243t4.3405-2.1857q2.2-1.0756,4.46-2.1111t4.5805-2.02q2.3208-.9839,4.7033-1.9106t4.8284-1.7847q2.4456-.858,4.9552-1.6415t5.0842-1.4811q2.5746-.6977,5.2151-1.3036t5.3481-1.1089q2.7075-.5029,5.483-.897t5.62-.668q2.8444-.2739,5.7589-.4218,1.0027-.0506,1.9743-.0736t1.9106-.0192q.939.0039,1.8447.0348t1.7766.0884q.8709.0574,1.7064.1413t1.6341.1939q.7986.11,1.56.2459t1.4829.2975q.722.1615,1.404.3485t1.3231.399q.6408.212,1.24.449t1.1546.4986q.5556.2616,1.0671.5477t.9775.5962q.466.31.8858.6443t.7918.6918q.249.2394.47.4831t.4172.4906q.1959.2469.3671.4965t.32.5009q.1488.2514.2758.5039t.2347.5051q.1076.2526.1966.505t.1616.5032q.0724.251.13.5t.1006.4952q.0436.246.0747.4888t.0518.4809q.0207.2382.032.4715t.0151.4605q.0039.2274.0013.4481t-.0094.434q-.0273.85-.1157,1.6944t-.2325,1.6821q-.144.8382-.3411,1.67t-.4417,1.6591q-.2446.8266-.5342,1.6479t-.6186,1.6374q-.3291.816-.695,1.627T185.38,199.57q-.3973.8063-.8235,1.6076t-.8758,1.5984q-.45.7969-.92,1.59t-.9558,1.5812q-.4857.7886-.9838,1.5731t-1.0037,1.5653q-.5055.7809-1.0155,1.5581t-1.0193,1.5511q-.5949.904-1.1837,1.8022t-1.1638,1.7908q-.5748.893-1.1319,1.7809t-1.0885,1.7721q-.5314.8841-1.0332,1.7646t-.9662,1.7584q-.4642.8778-.8873,1.7534t-.7969,1.75q-.3738.874-.6945,1.7472t-.58,1.7459q-.26.873-.4546,1.7461t-.317,1.7473q-.1223.8742-.1677,1.75t-.0066,1.7537a17.4949,17.4949,0,0,0,.5172,3.5239c.0247.0974.052.2.0823.3055s.0636.2157.1.3285.0763.2289.12.3472.09.2389.1405.3611.1048.2461.1631.3707.1206.25.1872.3756.1374.2511.2129.3761.1553.2491.24.3719.1744.2441.269.3633.1944.2361.2994.35.2154.2251.3314.3324.2376.211.365.31.2607.1939.4.2834.2849.1738.4368.2521.31.1506.4751.2162.3365.1245.5149.1758a6.5051,6.5051,0,0,0,.7129.1613,7.4324,7.4324,0,0,0,.7446.0866q.38.0254.7741.0163t.8012-.0495q.4071-.04.8261-.1108t.8485-.1678q.4295-.0974.8686-.22t.8864-.2683q.4473-.1455.902-.312t.915-.3511q.46-.1846.9259-.3859t.9343-.4162q.4689-.215.9405-.4421t.9443-.4634q.4727-.2364.9458-.4805t.9449-.4931q1.7813-.94,3.6068-1.8356t3.6909-1.7464q1.8655-.8505,3.7689-1.6554t3.8407-1.5629q1.9372-.7579,3.9063-1.4685t3.9658-1.3725q1.9966-.662,4.019-1.2748t4.0662-1.1754q2.0439-.5625,4.1071-1.0742t4.142-.9715q2.0785-.46,4.17-.8669t4.1931-.7608q2.1011-.3535,4.2093-.6528t4.2194-.5433q2.1113-.2439,4.2234-.4319t4.2212-.319q.3671-.0228.7407-.0428t.753-.0361q.3792-.0161.7632-.0274t.7717-.0168q.3876-.0053.7781-.004t.7828.0107q.3923.0093.7856.0273t.7864.046q.393.0281.7853.0668t.7825.0894q.39.0507.7777.114t.7711.1408q.3834.0774.7624.1694t.7521.2q.373.108.74.2327t.7255.2675q.629.25,1.1782.5278t1.0258.5793a10.2392,10.2392,0,0,1,.8836.6251,8.9831,8.9831,0,0,1,.7515.6653,8.2154,8.2154,0,0,1,.63.7,7.8436,7.8436,0,0,1,.9358,1.4818,8.2586,8.2586,0,0,1,.3264.7706c.0948.2592.1761.52.2457.783s.1275.526.1754.79.0858.5277.1153.7909.0508.5258.0654.7866.0227.52.0259.7767.0015.5106-.0034.7611-.013.4975-.0225.74-.0205.4806-.0313.7133l-.0047.104-.0048.1038-.0047.1036-.0046.1034-.0045.1031-.0044.1029-.0042.1026-.004.1023-.0037.102-.0034.1018-.0031.1013-.0028.1011-.0023.1007-.002.1-.0014.1-.001.1q-.002.2264.006.4467t.0253.4351q.0174.2147.0446.4235t.0638.4118q.0367.2029.0831.4t.1022.3881q.056.1911.1214.3761t.1405.3642q.075.1791.16.352t.1786.34q.0942.167.1977.3276t.2167.3154q.1131.1545.2356.3029t.2546.29q.132.1421.2734.2779t.2924.2652q.1481.127.3086.2474t.332.2339q.1714.1134.3529.22t.3716.2044q.19.0982.3877.1886t.4015.172q.2037.0817.4127.1548t.4217.1367q.2127.0637.4282.118t.4323.0986q.2167.0443.434.0783t.4332.0574q.216.0234.43.0358t.4244.0133q.21.0009.4165-.01t.4061-.0337q.1605-.0185.3221-.0441t.3241-.0579q.1626-.0323.3263-.0709t.3284-.0829q.1647-.0444.3306-.0943t.3328-.1046q.1669-.0547.335-.1142t.3373-.1229q.1692-.0636.34-.1308t.3419-.1379q.1715-.0705.3442-.144t.3465-.1494q.1739-.0759.3489-.1539t.3513-.1575q.1764-.0795.3538-.16t.3562-.1623l.0653-.03.0654-.03.0654-.03.0654-.03.0653-.03.0654-.03.0654-.03.0653-.03.0654-.03.0654-.03.0653-.0295.0654-.03.0654-.0294.0653-.0294.0654-.0292.0654-.0293q.6032-.2694,1.2187-.53t1.2426-.512q.6271-.2514,1.2654-.4935t1.287-.4748q.6488-.2327,1.3074-.4557t1.3266-.4364q.6679-.2133,1.3446-.4166t1.3614-.3965q.6848-.1932,1.3771-.3761t1.3915-.3554q.6992-.1725,1.4048-.3343t1.4168-.3129q.7111-.1509,1.4277-.2911t1.4374-.269q.7209-.1288,1.4458-.2465t1.4532-.2238q.3279-.0479.6754-.0955t.7124-.0933q.3648-.0457.7462-.0886t.777-.081q.3957-.0383.8047-.071t.8293-.0582q.42-.0255.8507-.0428t.8691-.0247q.4386-.0074.8843-.004t.8965.0194q.4507.0161.9055.0455t.9114.0741q.4567.0447.9144.1055t.914.1395q.4565.0788.9107.1762t.9042.2155q.2895.0759.5688.1579t.5492.1695q.27.0873.5307.18t.5129.1894q.2522.097.4961.198t.48.2053q.2362.1044.4651.2119t.451.2172q.2221.11.4377.2217t.4254.2251q.21.1132.4139.2275t.4034.2288q.199.1146.3936.2292t.3849.2286q.19.1139.3769.2269t.37.2241l.2008.1219.1994.1208.1984.1195q.0989.06.1973.1182t.1964.1166q.0981.0579.1957.1148t.1949.1129q.0973.056.1944.1108t.1939.1084q.0969.0537.1936.106t.1934.1033q.0966.051.1933.1t.1933.0974q.0968.048.1934.0943t.1937.0908q.0969.0446.1941.0873.5325.2343,1.1006.427t1.1678.3474q.6.1546,1.2291.2729t1.2843.2034q.6549.0853,1.3334.1392t1.3764.08q.6981.0261,1.4136.0259t1.4445-.023q.729-.023,1.4695-.067t1.4884-.1057q.7479-.0616,1.5013-.1393t1.5081-.1678q.7548-.09,1.5089-.1913t1.5036-.2095q.75-.1085,1.4924-.2227t1.475-.2309l.1429.33.1429.33.143.33.1429.33.143.33.1429.33.143.33.1429.33.143.33.1429.33.1429.33.143.33.1429.33.143.33.1429.33.143.33q-.6641.1058-1.397.2211t-1.5257.2331q-.7928.1178-1.64.2345t-1.7408.2252q-.8931.1085-1.827.2051t-1.899.1745q-.9653.0778-1.957.1331t-2.0008.0811q-1.0089.0258-2.03.0184t-2.0458-.0551q-1.0244-.0477-2.0471-.1392t-2.0341-.2339q-1.0114-.1423-2.0071-.3393t-1.9658-.4556q-.97-.2584-1.9105-.5823t-1.8409-.72q-.1512-.0666-.2991-.1341t-.2926-.136q-.1446-.0686-.2864-.1379t-.2806-.1394q-.1389-.07-.2752-.1409t-.27-.1421q-.1338-.0714-.2654-.1432t-.2612-.1442q-.1295-.0723-.2572-.1449t-.2535-.1455q-.126-.0729-.25-.1459t-.2475-.1462q-.1231-.0732-.245-.1462t-.2429-.1462q-.1209-.073-.2411-.1459l-.24-.1454L320,244.6327q-.1466-.0887-.2907-.1754t-.2866-.1715q-.1425-.0846-.2831-.167t-.28-.1622q-.1393-.08-.2776-.1568t-.2756-.1511q-.1374-.0739-.2741-.1449t-.2733-.1382q-.1363-.0674-.2728-.1311t-.2729-.1236q-.1366-.06-.2736-.1156t-.2748-.1072q-.1377-.0513-.2764-.0982t-.2786-.089q-.14-.042-.2814-.0792-.2184-.0572-.4472-.1032t-.466-.0819q-.2373-.0358-.482-.0621t-.4952-.0436q-.25-.0176-.5054-.0268t-.5129-.0113q-.2578-.0021-.5176.0026t-.5194.015q-.26.0105-.5183.0261t-.5145.0355q-.2559.02-.5078.0436t-.4983.05q-.2463.0264-.486.0552t-.4708.0588q-.2312.03-.4528.0609t-.4319.0615q-.62.09-1.2367.19t-1.2305.21q-.6135.11-1.2232.2289t-1.215.2478q-.6053.1285-1.2058.2662t-1.1955.2845q-.5949.1469-1.1842.3024t-1.1719.32q-.5826.1644-1.1586.3375t-1.1442.3545q-.5685.1815-1.129.3713t-1.1126.3879q-.552.198-1.0952.404t-1.0768.42q-.5337.2139-1.0574.4356t-1.0371.4509l-.0608.0273-.0608.0272-.0608.0274-.0608.0274-.0608.0275-.0608.0275-.0608.0276-.0608.0276-.0609.0276-.0608.0277-.0609.0277-.0609.0278-.0609.0278-.0609.0278-.0609.0278-.061.0279q-.2366.1078-.4771.2172t-.4857.2194q-.2452.11-.4954.22t-.5058.219q-.2556.1092-.517.2167t-.5291.2128q-.2677.1051-.542.2073t-.5558.2005q-.2815.0982-.57.192t-.5859.1822q-.2969.0883-.6021.1708t-.6192.1578q-.3141.0754-.6372.1435t-.656.1276q-.3329.06-.6756.11t-.6961.0913q-.0754.0087-.151.0169t-.1514.0157q-.0757.0077-.1516.0147t-.1519.0135q-.0761.0065-.1521.0124t-.1524.0113q-.0763.0054-.1526.01t-.1528.0091q-.0765.0043-.153.0081t-.1532.0069q-.0765.0032-.1532.0059t-.1535.0048q-.0767.0021-.1535.0037t-.1537.0026q-.0768.001-.1537.0016T276.9609,251.3818Z" transform="translate(-27.8979 -173.3898)"/></svg>