<svg id="Layer_1" data-name="Layer 1" xmlns="http://www.w3.org/2000/svg" viewBox="0 0 325.7212 78.0056"><defs><style>.cls-1{fill:#231f20;}</style></defs><path class="cls-1" d="M276.9355,251.8867c-.5715,0-1.1449-.0233-1.7169-.0689s-1.1427-.1138-1.7088-.2034-1.1275-.2007-1.6811-.3325-1.0993-.2842-1.6339-.4565-1.0581-.3642-1.5672-.5752-1.004-.4408-1.4811-.6887-.9368-.5139-1.3756-.7971a14.7139,14.7139,0,0,1-2.4364-1.9624,13.834,13.834,0,0,1-1.0332-1.1534,13.132,13.132,0,0,1-.8782-1.24,12.81,12.81,0,0,1-1.2827-2.72,13.2423,13.2423,0,0,1-.4-1.4706,14.0081,14.0081,0,0,1-.236-1.5382,15.1244,15.1244,0,0,1-.07-1.6009q.0009-.1092.0029-.2191t.0048-.2208q.0029-.1107.0065-.2222t.008-.2238q.0043-.1122.0091-.225t.01-.2263q.0052-.1134.0108-.2274l.0112-.2284c.02-.3989.0355-.7485.046-1.0556s.0155-.5718.0138-.8009-.01-.4228-.0269-.5877a2.2116,2.2116,0,0,0-.0767-.4158.9616.9616,0,0,0-.1352-.2852.8074.8074,0,0,0-.2026-.1961,1.6158,1.6158,0,0,0-.2788-.1484c-.1067-.0461-.2275-.0912-.364-.1421a6.2938,6.2938,0,0,0-.719-.2164c-.2554-.0616-.5254-.113-.8074-.1555s-.5758-.0762-.8789-.1021-.6154-.0444-.934-.0564-.6438-.0176-.9725-.0181-.6611.0041-.9943.0125-.6673.0207-1,.0356-.6625.0324-.9882.0512q-3.924.2285-7.8569.6556-3.9291.426-7.8443,1.0448-3.9112.6179-7.7857,1.4222-3.87.8036-7.6811,1.7878-3.8067.9832-7.5306,2.1414-3.72,1.1571-7.3341,2.4832-3.61,1.3251-7.0917,2.8132-3.4776,1.4871-6.8033,3.1313c-.8836.437-1.7754.8655-2.6746,1.2768s-1.8056.8054-2.7185,1.1734-1.8323.71-2.7571,1.0176-1.8552.58-2.79.8091-1.8744.4149-2.8176.5483a23.8764,23.8764,0,0,1-2.84.2349,20.9292,20.9292,0,0,1-2.8562-.1309,19.6252,19.6252,0,0,1-2.867-.5493,16.7819,16.7819,0,0,1-1.91-.6385,15.27,15.27,0,0,1-1.7506-.8377,14.262,14.262,0,0,1-1.5837-1.0292,13.6829,13.6829,0,0,1-1.4088-1.2128,13.5388,13.5388,0,0,1-1.2258-1.3885,13.8345,13.8345,0,0,1-1.0351-1.5564,14.5589,14.5589,0,0,1-.8362-1.7164,15.75,15.75,0,0,1-.63-1.8686,22.296,22.296,0,0,1-.727-4.3509,22.6377,22.6377,0,0,1,.1206-4.22,26.2276,26.2276,0,0,1,.8439-4.1029,33.6685,33.6685,0,0,1,1.443-4c.567-1.3178,1.2132-2.6209,1.9179-3.9116s1.4676-2.5691,2.2684-3.8374,1.6393-2.5267,2.4948-3.7774,1.728-2.4937,2.5969-3.7315c.6358-.9058,1.2672-1.8053,1.8858-2.6987s1.2244-1.7809,1.809-2.6624,1.148-1.7573,1.6819-2.6274,1.038-1.7345,1.5043-2.5935.8945-1.7126,1.2764-2.561.7175-1.6916.9982-2.53a20.0673,20.0673,0,0,0,.67-2.5,15.5743,15.5743,0,0,0,.2905-2.471c.0064-.186.0074-.3529.0039-.503s-.0118-.2833-.0238-.4021a3.1364,3.1364,0,0,0-.0471-.3151,1.8868,1.8868,0,0,0-.066-.2423,1.2583,1.2583,0,0,0-.08-.1834,1.0047,1.0047,0,0,0-.09-.1384,1.1129,1.1129,0,0,0-.096-.1075c-.0324-.0323-.0651-.0617-.0972-.0906a4.0194,4.0194,0,0,0-.7058-.4941,7.969,7.969,0,0,0-1.025-.4793,13.5828,13.5828,0,0,0-1.3511-.4424c-.5054-.1389-1.0664-.2679-1.684-.3834s-1.2919-.2175-2.024-.3023-1.5221-.1524-2.371-.1992-1.7567-.0726-2.7247-.0739-1.9962.0219-3.0856.0733c-3.5748.1684-7.0718.4932-10.4926.954s-6.7651,1.0575-10.0344,1.77-6.4638,1.54-9.5844,2.4637-6.1677,1.9418-9.1424,3.0351-5.8771,2.2616-8.7084,3.4844-5.5918,2.5-8.2825,3.8112-5.3118,2.6567-7.8646,4.0158-5.0372,2.732-7.4546,4.0982q-4.8523,2.7423-9.3481,5.4186-4.4982,2.6783-8.6557,5.3021-4.16,2.6256-7.9947,5.2082-3.8373,2.5844-7.365,5.1369-3.53,2.5545-6.7665,5.0884-3.2388,2.5359-6.1994,5.0625-2.9631,2.5285-5.6635,5.0592-2.703,2.5326-5.159,5.0786l-.8995-.8679-.9-.8679-.9-.8679-.8995-.8679-.9-.868-.8995-.8679-.9-.8679-.8995-.8679q2.5878-2.6819,5.4193-5.3393,2.8341-2.6595,5.9282-5.3064,3.0968-2.649,6.47-5.2973,3.3756-2.65,7.0438-5.3116,3.6708-2.6634,7.65-5.35,3.9824-2.6882,8.29-5.4112,4.31-2.7249,8.9613-5.4963,4.654-2.7733,9.6657-5.605c2.5455-1.4387,5.1627-2.8844,7.8539-4.3157s5.4565-2.8484,8.2979-4.23,5.7591-2.7266,8.7552-4.0148,6.0707-2.5193,9.226-3.6717,6.3913-2.2261,9.71-3.2,6.7208-1.8474,10.2078-2.6,7.0593-1.3831,10.7189-1.871,7.4066-.8331,11.2433-1.0138q1.98-.0933,3.8141-.0867t3.5195.1128q1.6858.1062,3.2227.3117t2.9236.51q1.3868.3045,2.6222.708a21.0672,21.0672,0,0,1,2.3185.9054,16.4707,16.4707,0,0,1,2.0124,1.1023,13.3843,13.3843,0,0,1,1.7042,1.2986,11.6934,11.6934,0,0,1,1.3158,1.3938,11.0466,11.0466,0,0,1,1.66,2.8791,11.6469,11.6469,0,0,1,.4444,1.3889,12.4587,12.4587,0,0,1,.2541,1.2908c.0586.4085.0938.7927.114,1.1445s.0253.6711.0238.95-.01.5173-.0163.7073a25.2886,25.2886,0,0,1-.3721,3.5195,28.8686,28.8686,0,0,1-.8269,3.4243,35.1526,35.1526,0,0,1-1.2139,3.3391c-.4617,1.1-.9766,2.1873-1.5335,3.2638s-1.1558,2.1419-1.7855,3.1981-1.29,2.1032-1.97,3.1425-1.3792,2.0711-2.0868,3.0968-1.4234,2.0454-2.1362,3.0608c-.7359,1.0486-1.4668,2.09-2.1785,3.1235s-1.4043,2.06-2.0637,3.0777-1.2855,2.0281-1.8643,3.03-1.1106,1.995-1.5809,2.98a28.0256,28.0256,0,0,0-1.2129,2.9272,19.0781,19.0781,0,0,0-.7607,2.8725,13.9779,13.9779,0,0,0-.2241,2.8159,11.7121,11.7121,0,0,0,.3968,2.757,5.6821,5.6821,0,0,0,.2.6091,4.5556,4.5556,0,0,0,.2562.5436,3.9411,3.9411,0,0,0,.3149.481,3.7105,3.7105,0,0,0,.3767.4212,3.846,3.846,0,0,0,.4413.3642,4.3867,4.3867,0,0,0,.5088.31,5.3707,5.3707,0,0,0,.5793.2585q.3078.1167.6527.21a9.5494,9.5494,0,0,0,1.7158.2943,12.001,12.001,0,0,0,1.8017.0056,15.9551,15.9551,0,0,0,1.8725-.2466c.6342-.12,1.2778-.2763,1.928-.4624s1.3072-.402,1.9683-.6418,1.3265-.5034,1.9935-.7848,1.3356-.5805,2.0034-.8914,1.3346-.6333,1.9981-.9614q3.5423-1.7522,7.2527-3.3388,3.7063-1.5857,7.5562-2.9994,3.8459-1.4127,7.8108-2.6473,3.9609-1.2336,8.0165-2.2827,4.0515-1.0481,8.1732-1.9053,4.1176-.8562,8.281-1.5154,4.1593-.6581,8.34-1.1127,4.1766-.4536,8.35-.6974.7176-.0419,1.4432-.0721t1.4534-.04q.7279-.01,1.4555.0048t1.4491.0632q.7215.0486,1.4344.1351t1.4114.22q.6985.1336,1.38.3188t1.34.4307a13.7569,13.7569,0,0,1,2.6375,1.3,10.72,10.72,0,0,1,1.9517,1.593,9.8083,9.8083,0,0,1,1.3663,1.7946,10.4711,10.4711,0,0,1,.8812,1.9051,12.4663,12.4663,0,0,1,.4966,1.9244,15.88,15.88,0,0,1,.2124,1.8526c.0346.5954.0386,1.1637.0286,1.69s-.0338,1.01-.0547,1.4355l-.0085.1766-.0084.1758-.0081.175q-.0039.0872-.0074.174c-.0023.0579-.0046.1156-.0066.1731s-.0038.1148-.0054.172-.003.114-.004.1707-.0019.1133-.0024.1695q-.0021.2373.0157.4566a4.0279,4.0279,0,0,0,.0562.423,3.3809,3.3809,0,0,0,.0985.3928,3.0485,3.0485,0,0,0,.1423.3662,3.0175,3.0175,0,0,0,.1878.3431,3.2487,3.2487,0,0,0,.235.3234,3.7959,3.7959,0,0,0,.2838.3074q.1544.15.3342.2948a5.2071,5.2071,0,0,0,.58.4,7.6768,7.6768,0,0,0,.714.3763c.258.12.5349.2338.8273.339s.6.2018.92.2875.6518.16.9924.222.69.11,1.0442.1425.714.05,1.0753.0491a10.3684,10.3684,0,0,0,1.0859-.0584q.3745-.0406.74-.1061t.7261-.1524q.36-.087.7179-.1937t.7156-.23q.3582-.1232.719-.2612t.7281-.2876q.3674-.15.743-.309t.7638-.3253l.1308-.0555.1309-.0555.1308-.0556.1309-.0555.1309-.0556.1308-.0555.1309-.0556.1308-.0555q1.19-.4985,2.4273-.9635t2.5147-.8952q1.2777-.43,2.593-.8243t2.6617-.7511q1.3466-.3567,2.7212-.6752t2.7713-.597q1.3967-.2784,2.8121-.5161t2.8435-.4329c.4439-.0608.9048-.12,1.38-.1764s.9646-.108,1.4656-.1535,1.0136-.0844,1.5351-.1139,1.0519-.05,1.5885-.0578,1.0795-.0039,1.6259.0152,1.0963.0529,1.6471.1045,1.1025.1209,1.6524.2107,1.0979.2,1.6415.3333q.5574.1371,1.08.2975t1.015.339q.4921.1787.9555.3729t.9021.3986q.4384.2044.8542.4165t.8124.4264q.3966.2143.7762.4283t.746.4224q.1993.1136.3962.2252t.3916.2206q.1949.1089.3882.2148t.3856.2076q.1925.1017.3843.1992t.3839.1894q.192.0921.3845.1785t.3863.1663a16.7058,16.7058,0,0,0,2.6626.8273,25.4521,25.4521,0,0,0,2.96.4787c1.0238.108,2.0787.168,3.1463.19s2.1479.0055,3.2226-.039,2.1437-.1172,3.1887-.208,2.0659-.2,3.0444-.3169,1.9147-.2425,2.79-.366,1.69-.2451,2.4252-.355l.1846,1.2363.1846,1.2364.1845,1.2363.1846,1.2363.1846,1.2363.1846,1.2364.1845,1.2363.1846,1.2363c-1.1835.1768-2.3879.35-3.606.5121s-2.45.3115-3.6883.4405-2.4832.2375-3.7273.3164-2.4875.1283-3.7229.1395-2.463-.0159-3.6753-.09-2.41-.1952-3.5843-.3722a32.2232,32.2232,0,0,1-3.45-.707,26.1626,26.1626,0,0,1-3.2725-1.0946q-.3032-.1251-.5959-.2555t-.5753-.2645q-.2826-.1341-.5555-.271t-.5364-.275q-.2637-.138-.5182-.2764t-.5006-.2754q-.246-.1369-.4837-.2718t-.4678-.2657q-.298-.1694-.5869-.3325t-.5719-.318q-.2832-.155-.5625-.3005t-.5586-.28q-.2792-.1344-.56-.2562t-.5671-.23q-.2862-.1076-.5795-.2t-.5974-.1668c-.3421-.0839-.6975-.1515-1.0625-.2049s-.74-.0928-1.12-.12-.7659-.0425-1.1535-.0477-.7769,0-1.1641.0122-.7723.0332-1.1514.0595-.7521.0583-1.1153.0941-.7165.0752-1.0561.1162-.6652.0836-.9733.1257q-1.2689.1734-2.5243.3837t-2.4921.4559q-1.2368.2457-2.452.5261t-2.4035.5939q-1.1882.3136-2.3468.66t-2.2819.7234q-1.1233.3773-2.2089.7848t-2.1275.8441l-.1223.0519-.1223.0519-.1223.0519-.1223.0518-.1223.0519-.1223.0519-.1224.0519-.1223.0519q-.46.1963-.9352.3976t-.97.4q-.4946.1983-1.01.39t-1.0535.37q-.5383.178-1.1017.3385t-1.1544.2959q-.591.1354-1.2114.2421t-1.273.1772q-.134.0144-.2685.0271t-.2693.0234q-.1349.0108-.27.02t-.2708.0162q-.1356.0072-.2714.0126t-.2719.009q-.1361.0036-.2723.0053T276.9355,251.8867Z" transform="translate(-28.2456 -173.8812)"/></svg>