<svg id="Layer_1" data-name="Layer 1" xmlns="http://www.w3.org/2000/svg" viewBox="0 0 239.23308 11.07812"><defs><style>.cls-1{fill:#231f20;stroke:#231f20;stroke-miterlimit:10;stroke-width:0.25px;}</style></defs><polygon class="cls-1" points="239.073 0.125 239.081 2.625 239.09 5.125 239.099 7.625 239.108 10.125 234.841 10.14 230.574 10.155 226.307 10.169 222.04 10.184 217.773 10.199 213.506 10.214 209.239 10.228 204.972 10.243 200.705 10.258 196.438 10.273 192.171 10.288 187.904 10.302 183.638 10.317 179.371 10.332 175.104 10.347 170.837 10.361 166.57 10.376 162.303 10.391 158.036 10.406 153.769 10.421 149.502 10.435 145.235 10.45 140.968 10.465 136.701 10.48 132.434 10.494 128.167 10.509 123.9 10.524 119.634 10.539 115.367 10.554 111.1 10.568 106.833 10.583 102.566 10.598 98.299 10.613 94.032 10.628 89.765 10.642 85.498 10.657 81.231 10.672 76.964 10.687 72.697 10.701 68.43 10.716 64.163 10.731 59.896 10.746 55.63 10.761 51.363 10.775 47.096 10.79 42.829 10.805 38.562 10.82 34.295 10.834 30.028 10.849 25.761 10.864 21.494 10.879 17.227 10.894 12.96 10.908 8.693 10.923 4.426 10.938 0.159 10.953 0.151 8.453 0.142 5.953 0.134 3.453 0.125 0.953 4.392 0.938 8.659 0.923 12.926 0.908 17.193 0.894 21.46 0.879 25.727 0.864 29.994 0.849 34.261 0.835 38.528 0.82 42.795 0.805 47.061 0.79 51.328 0.775 55.595 0.761 59.862 0.746 64.129 0.731 68.396 0.716 72.663 0.702 76.93 0.687 81.197 0.672 85.464 0.657 89.731 0.643 93.998 0.628 98.264 0.613 102.531 0.598 106.798 0.583 111.065 0.569 115.332 0.554 119.599 0.539 123.866 0.524 128.133 0.51 132.4 0.495 136.667 0.48 140.934 0.465 145.2 0.45 149.467 0.436 153.734 0.421 158.001 0.406 162.268 0.391 166.535 0.377 170.802 0.362 175.069 0.347 179.336 0.332 183.603 0.317 187.87 0.303 192.137 0.288 196.403 0.273 200.67 0.258 204.937 0.244 209.204 0.229 213.471 0.214 217.738 0.199 222.005 0.185 226.272 0.17 230.539 0.155 234.806 0.14 239.073 0.125"/></svg>