<svg id="Layer_1" data-name="Layer 1" xmlns="http://www.w3.org/2000/svg" viewBox="0 0 58.335 129.881"><defs><style>.cls-1{fill:none;stroke:#231f20;stroke-miterlimit:10;}</style></defs><path class="cls-1" d="M163.858,92.415" transform="translate(-57.037 -32.31)"/><path class="cls-1" d="M72.926,32.425q-.639,2.727-1.157,5.481t-.914,5.526q-.4,2.772-.671,5.561t-.431,5.584q-.154,2.8-.19,5.6t.049,5.6q.084,2.8.287,5.595t.523,5.579q.32,2.782.758,5.551t.993,5.514q.553,2.745,1.225,5.466t1.458,5.409q.786,2.688,1.688,5.34t1.917,5.263q1.017,2.609,2.146,5.173t2.373,5.075" transform="translate(-57.037 -32.31)"/><path class="cls-1" d="M67.641,32.582q-.177,2.611-.28,5.228t-.13,5.234q-.027,2.618.022,5.235t.171,5.232q.124,2.614.321,5.226t.47,5.214q.272,2.6.618,5.2t.765,5.179q.42,2.585.912,5.155t1.058,5.128q.566,2.556,1.2,5.095t1.348,5.059q.709,2.52,1.492,5.018t1.635,4.973q.854,2.475,1.777,4.924t1.92,4.871" transform="translate(-57.037 -32.31)"/><path class="cls-1" d="M60.952,35.839q.221,2.635.512,5.264t.651,5.249q.36,2.619.788,5.229t.925,5.207q.5,2.6,1.061,5.182t1.2,5.151q.63,2.57,1.328,5.12t1.461,5.083q.764,2.532,1.592,5.043t1.723,5q.894,2.489,1.852,4.954t1.98,4.9q1.021,2.439,2.108,4.85t2.233,4.794q1.149,2.382,2.359,4.733t2.483,4.67" transform="translate(-57.037 -32.31)"/><path class="cls-1" d="M57.534,42.379q.222,2.291.516,4.574t.663,4.555q.367,2.271.809,4.531t.953,4.5q.513,2.244,1.1,4.47t1.237,4.434q.654,2.207,1.377,4.393T65.7,78.186q.791,2.161,1.651,4.3t1.786,4.242q.925,2.108,1.919,4.184t2.05,4.121q1.059,2.044,2.181,4.054t2.309,3.982q1.187,1.971,2.436,3.905t2.56,3.825" transform="translate(-57.037 -32.31)"/><path class="cls-1" d="M72.788,42.2q-.351,2.535-.612,5.082t-.429,5.1q-.169,2.553-.248,5.111t-.068,5.117q.012,2.559.112,5.117t.291,5.11q.19,2.551.469,5.1t.645,5.077q.368,2.534.821,5.052t1,5.021q.541,2.5,1.171,4.982T77.281,103q.715,2.457,1.516,4.887t1.688,4.832q.886,2.4,1.859,4.768t2.028,4.7" transform="translate(-57.037 -32.31)"/><path class="cls-1" d="M76.167,47.653q-.222,2.465-.363,4.937t-.2,4.946q-.06,2.475-.04,4.95t.119,4.948q.1,2.474.278,4.943t.436,4.931q.258,2.461.594,4.915t.75,4.893q.414,2.441.906,4.867t1.06,4.836q.569,2.409,1.214,4.8t1.368,4.758q.721,2.367,1.519,4.711t1.671,4.659q.873,2.316,1.821,4.6t1.971,4.542" transform="translate(-57.037 -32.31)"/><path class="cls-1" d="M73.615,55.477q-.1,2.252-.123,4.507t.035,4.509q.057,2.253.191,4.5t.344,4.5q.212,2.246.5,4.481t.65,4.462q.363,2.226.8,4.437t.951,4.408q.513,2.2,1.1,4.373t1.247,4.333q.66,2.156,1.393,4.289t1.538,4.238q.806,2.106,1.682,4.183t1.825,4.123q.948,2.044,1.966,4.057t2.106,3.987" transform="translate(-57.037 -32.31)"/><path class="cls-1" d="M67.592,151.9q1.317-.549,2.6-1.163t2.533-1.291q1.25-.676,2.464-1.413t2.392-1.53q1.177-.793,2.319-1.642t2.243-1.747q1.1-.9,2.165-1.848t2.085-1.943q1.023-.995,2-2.032t1.919-2.117q.938-1.078,1.832-2.195t1.744-2.268q.849-1.152,1.653-2.336t1.56-2.4q.756-1.213,1.465-2.455t1.368-2.5q.659-1.265,1.271-2.55t1.18-2.591q.567-1.305,1.088-2.628t1-2.663q.478-1.34.913-2.694t.83-2.724q.393-1.368.746-2.749t.666-2.772q.313-1.392.587-2.793t.51-2.809q.237-1.409.435-2.824t.363-2.836q.163-1.421.292-2.844t.222-2.85q.095-1.425.156-2.852t.09-2.853" transform="translate(-57.037 -32.31)"/><path class="cls-1" d="M69.852,155.852q1.148-.749,2.26-1.547t2.187-1.641q1.076-.843,2.113-1.731t2.04-1.817q1-.929,1.966-1.9t1.892-1.975q.927-1.006,1.817-2.047t1.742-2.115q.853-1.074,1.667-2.178t1.592-2.238q.777-1.132,1.516-2.292t1.439-2.343q.7-1.182,1.363-2.388t1.286-2.43q.624-1.224,1.21-2.467t1.131-2.5q.548-1.257,1.057-2.528t.984-2.554q.475-1.283.916-2.579t.848-2.6q.408-1.306.783-2.622t.721-2.641q.345-1.326.66-2.659t.6-2.674q.288-1.34.547-2.688t.492-2.7q.234-1.353.442-2.71t.392-2.719q.185-1.361.346-2.725t.3-2.73q.14-1.365.259-2.733t.219-2.734" transform="translate(-57.037 -32.31)"/><path class="cls-1" d="M72.539,145.616q1.866-1.341,3.674-2.757t3.558-2.9q1.749-1.488,3.437-3.046t3.311-3.183q1.623-1.625,3.181-3.313t3.048-3.437q1.489-1.749,2.908-3.556t2.766-3.667q1.347-1.861,2.619-3.775t2.468-3.874q1.2-1.962,2.312-3.97t2.152-4.057q1.035-2.05,1.988-4.141t1.819-4.217q.867-2.125,1.646-4.287t1.469-4.353" transform="translate(-57.037 -32.31)"/><path class="cls-1" d="M82.115,152.922q1.691-1.823,3.3-3.716t3.14-3.852q1.53-1.959,2.975-3.981t2.808-4.1q1.361-2.079,2.636-4.213t2.461-4.319q1.186-2.184,2.283-4.415t2.1-4.5q1-2.274,1.916-4.587t1.728-4.66q.816-2.347,1.536-4.727t1.341-4.786q.621-2.406,1.142-4.837t.939-4.879q.42-2.45.735-4.915t.525-4.943" transform="translate(-57.037 -32.31)"/><path class="cls-1" d="M71.3,161.862q1.44-1.641,2.844-3.311t2.773-3.371q1.369-1.7,2.7-3.428t2.628-3.486q1.3-1.756,2.554-3.539t2.479-3.593q1.22-1.81,2.4-3.645t2.325-3.694q1.143-1.858,2.247-3.742t2.168-3.788q1.063-1.907,2.088-3.834t2.006-3.876q.983-1.949,1.924-3.918t1.841-3.958q.9-1.989,1.756-4t1.671-4.032" transform="translate(-57.037 -32.31)"/></svg>