<svg id="Layer_1" data-name="Layer 1" xmlns="http://www.w3.org/2000/svg" viewBox="0 0 60.388 172.443"><defs><style>.cls-1{fill:none;stroke:#231f20;stroke-miterlimit:10;}</style></defs><path class="cls-1" d="M211.161,140.609" transform="translate(-62.402 -16.609)"/><path class="cls-1" d="M118.56,17.682a12.15,12.15,0,0,1,1.035,5.23,13.977,13.977,0,0,1-.319,2.632,17.473,17.473,0,0,1-.794,2.619,22.666,22.666,0,0,1-1.207,2.59,29.337,29.337,0,0,1-1.558,2.544c-.571.839-1.19,1.667-1.847,2.482s-1.352,1.616-2.075,2.4-1.472,1.562-2.242,2.333S108,42.048,107.2,42.81s-1.609,1.519-2.42,2.276-1.625,1.514-2.432,2.272-1.606,1.519-2.39,2.284-1.553,1.534-2.3,2.311-1.465,1.56-2.152,2.354-1.342,1.6-1.955,2.413a29.466,29.466,0,0,0-1.691,2.5A24.3,24.3,0,0,0,90.5,61.814a19.624,19.624,0,0,0-.97,2.645,15.976,15.976,0,0,0-.525,2.667,13.4,13.4,0,0,0-.027,2.656,12.233,12.233,0,0,0,.529,2.612,12.5,12.5,0,0,0,1.139,2.535,14.5,14.5,0,0,0,1.805,2.425,21.4,21.4,0,0,0,2.791,2.518,38.574,38.574,0,0,0,3.368,2.278c1.2.728,2.455,1.43,3.742,2.12s2.605,1.368,3.917,2.046,2.62,1.359,3.889,2.054,2.5,1.406,3.662,2.145a32.9,32.9,0,0,1,3.231,2.317,18.53,18.53,0,0,1,2.6,2.573,12.293,12.293,0,0,1,1.7,2.729,10.554,10.554,0,0,1,.825,2.828,11.038,11.038,0,0,1,.029,2.883,13.484,13.484,0,0,1-.684,2.9,17.759,17.759,0,0,1-1.315,2.867,23.866,23.866,0,0,1-1.865,2.794,30.639,30.639,0,0,1-2.333,2.677c-.847.869-1.758,1.711-2.719,2.519s-1.969,1.595-3.013,2.366-2.122,1.524-3.227,2.266-2.235,1.472-3.381,2.2-2.307,1.438-3.475,2.152-2.34,1.424-3.509,2.137-2.332,1.429-3.482,2.152-2.284,1.452-3.395,2.194-2.2,1.494-3.248,2.264-2.07,1.568-3.041,2.39-1.894,1.668-2.756,2.534a33.268,33.268,0,0,0-2.382,2.654,24.522,24.522,0,0,0-1.924,2.748,17.792,17.792,0,0,0-1.376,2.817,13.191,13.191,0,0,0-.742,2.86,10.883,10.883,0,0,0-.021,2.879,10.768,10.768,0,0,0,.787,2.872,13.532,13.532,0,0,0,1.133,2.093,19.3,19.3,0,0,0,1.514,2c.56.651,1.171,1.29,1.821,1.919s1.337,1.249,2.05,1.862,1.453,1.218,2.2,1.821,1.517,1.2,2.282,1.8,1.531,1.2,2.285,1.8,1.494,1.2,2.211,1.813,1.41,1.241,2.068,1.891,1.28,1.318,1.852,2a21.425,21.425,0,0,1,1.55,2.08,15.012,15.012,0,0,1,1.165,2.132,10.445,10.445,0,0,1,.693,2.153,7.778,7.778,0,0,1,.138,2.146,7.017,7.017,0,0,1-.5,2.11,8.209,8.209,0,0,1-1.228,2.045" transform="translate(-62.402 -16.609)"/><path class="cls-1" d="M105.288,16.738q.36,1.347.7,2.7t.653,2.7q.315,1.351.609,2.7t.564,2.7q.272,1.355.52,2.709t.476,2.711q.227,1.356.431,2.714t.388,2.716q.183,1.358.343,2.717t.3,2.72q.139,1.361.256,2.721t.212,2.722q.095,1.362.168,2.723t.124,2.725q.052,1.362.081,2.724t.037,2.725q.009,1.364-.006,2.726t-.05,2.725q-.036,1.362-.093,2.724t-.137,2.725q-.079,1.362-.18,2.723t-.223,2.722q-.123,1.362-.266,2.721t-.31,2.72q-.165,1.359-.353,2.718t-.395,2.716q-.209,1.358-.439,2.713t-.481,2.712q-.252,1.355-.525,2.708t-.567,2.706q-.294,1.351-.61,2.7t-.652,2.7q-.337,1.349-.7,2.695t-.737,2.692q-.379,1.346-.781,2.688t-.822,2.683q-.423,1.341-.866,2.679t-.907,2.674q-.463,1.336-.95,2.67t-.992,2.664q-.505,1.331-1.034,2.658T97,130.384q-.549,1.326-1.118,2.648t-1.16,2.64q-.591,1.32-1.2,2.635t-1.244,2.628q-.633,1.313-1.286,2.621t-1.328,2.614q-.673,1.306-1.369,2.607t-1.411,2.6q-.716,1.3-1.452,2.592t-1.494,2.584q-.757,1.289-1.536,2.575t-1.577,2.567q-.8,1.281-1.618,2.558t-1.659,2.55q-.84,1.272-1.7,2.54T74.1,171.873q-.881,1.263-1.783,2.521T70.5,176.905q-.923,1.254-1.865,2.5T66.724,181.9q-.963,1.242-1.947,2.48t-1.988,2.47" transform="translate(-62.402 -16.609)"/><path class="cls-1" d="M82.623,22.218q1.222,1.26,2.356,2.545t2.183,2.591q1.048,1.3,2.016,2.632t1.855,2.672q.89,1.346,1.7,2.708t1.552,2.74q.739,1.378,1.41,2.77t1.273,2.8q.6,1.4,1.144,2.818t1.019,2.838q.48,1.422.9,2.853t.789,2.867q.369,1.437.685,2.877t.584,2.883q.269,1.443.491,2.886t.4,2.886q.182,1.443.325,2.886t.255,2.888q.112,1.443.194,2.888t.14,2.89q.057,1.446.092,2.891t.054,2.892q.018,1.446.021,2.893t0,2.893q-.006,1.446-.019,2.893t-.029,2.894q-.016,1.448-.031,2.894t-.025,2.894q-.011,1.447-.012,2.894t.009,2.894q.011,1.446.037,2.893t.073,2.893q.038,1.17.088,2.342t.109,2.344q.06,1.172.123,2.344t.13,2.344q.065,1.172.128,2.344t.12,2.344q.055,1.173.1,2.344t.081,2.343q.033,1.171.051,2.343t.012,2.342q0,1.17-.032,2.34t-.084,2.339q-.057,1.17-.144,2.338t-.212,2.336q-.123,1.167-.285,2.333t-.368,2.332q-.206,1.166-.46,2.331t-.56,2.33q-.308,1.164-.666,2.324t-.774,2.315q-.416,1.155-.888,2.3t-1,2.284q-.531,1.135-1.124,2.262t-1.25,2.236q-.656,1.111-1.378,2.207t-1.51,2.173q-.791,1.077-1.648,2.135t-1.787,2.093q-.93,1.036-1.933,2.048t-2.08,2q-1.078.986-2.233,1.943t-2.39,1.884v.593" transform="translate(-62.402 -16.609)"/></svg>