<svg id="Layer_1" data-name="Layer 1" xmlns="http://www.w3.org/2000/svg" viewBox="0 0 85.896 126.062"><defs><style>.cls-1{fill:none;stroke:#231f20;stroke-miterlimit:10;}</style></defs><path class="cls-1" d="M51.292,154.685q.886-4.626,1.99-9.206t2.415-9.1q1.313-4.521,2.832-8.98t3.236-8.841q1.719-4.385,3.633-8.688t4.019-8.518q2.1-4.213,4.394-8.331t4.759-8.129q2.471-4.011,5.116-7.909t5.461-7.674q2.816-3.776,5.8-7.423t6.122-7.155q3.141-3.507,6.438-6.871t6.744-6.57q3.447-3.207,7.039-6.254t7.325-5.921" transform="translate(-47.921 -28.718)"/><path class="cls-1" d="M55.984,153.9q.594-4.058,1.346-8.089t1.659-8.029q.908-4,1.969-7.959t2.274-7.878q1.21-3.917,2.571-7.786t2.866-7.683q1.5-3.815,3.154-7.57t3.437-7.446q1.789-3.69,3.715-7.31t3.989-7.166q2.061-3.544,4.255-7.009t4.519-6.842q2.324-3.378,4.775-6.665t5.028-6.477q2.577-3.189,5.275-6.277t5.516-6.068" transform="translate(-47.921 -28.718)"/><path class="cls-1" d="M60.055,152.717q.137-2.111.338-4.214t.464-4.2q.264-2.1.589-4.183t.71-4.163q.386-2.077.829-4.142t.945-4.119q.5-2.052,1.058-4.092t1.168-4.064q.611-2.025,1.275-4.034t1.379-4q.714-1.992,1.48-3.967t1.579-3.929q.815-1.954,1.675-3.889t1.768-3.848q.906-1.914,1.857-3.8t1.945-3.758q.993-1.868,2.028-3.71t2.108-3.664q1.074-1.82,2.186-3.616T87.7,73.75q1.149-1.773,2.334-3.523t2.4-3.477q1.218-1.726,2.471-3.431t2.536-3.384q1.284-1.68,2.6-3.338T102.7,53.3q1.344-1.635,2.715-3.247t2.77-3.2q1.4-1.59,2.822-3.156t2.871-3.111q1.447-1.543,2.918-3.065t2.962-3.021" transform="translate(-47.921 -28.718)"/><path class="cls-1" d="M48.4,149.822q1.392-4.221,2.967-8.378t3.325-8.24q1.75-4.083,3.674-8.089t4.014-7.927q2.091-3.921,4.344-7.752t4.664-7.564q2.41-3.734,4.975-7.365t5.276-7.152q2.712-3.522,5.568-6.928t5.851-6.691q2.994-3.284,6.122-6.441t6.386-6.179q3.257-3.023,6.639-5.905t6.884-5.618q3.5-2.734,7.117-5.319t7.342-5.007" transform="translate(-47.921 -28.718)"/><path class="cls-1" d="M63.043,142.522q.479-3.439,1.1-6.857t1.378-6.8q.759-3.388,1.655-6.743t1.926-6.67q1.029-3.315,2.192-6.588t2.453-6.5q1.291-3.224,2.71-6.394t2.961-6.281q1.543-3.111,3.208-6.159T86.073,77.5q1.785-2.978,3.686-5.884t3.917-5.733q2.016-2.826,4.144-5.57t4.366-5.4q2.237-2.653,4.582-5.215t4.794-5.024" transform="translate(-47.921 -28.718)"/><path class="cls-1" d="M58.906,145.828q.2-1.927.472-3.841t.63-3.812q.354-1.9.784-3.78t.93-3.745q.5-1.864,1.072-3.71T64,123.27q.638-1.825,1.338-3.63t1.462-3.587q.76-1.782,1.58-3.541t1.692-3.494q.874-1.734,1.8-3.444t1.9-3.392q.975-1.683,2-3.338t2.086-3.282q1.064-1.626,2.168-3.222t2.247-3.162q1.143-1.566,2.319-3.1t2.386-3.048q1.208-1.511,2.448-3t2.508-2.946q1.267-1.461,2.563-2.9t2.614-2.855q1.32-1.416,2.662-2.813t2.706-2.774q1.362-1.377,2.745-2.737t2.781-2.7q1.4-1.344,2.814-2.673t2.841-2.643q1.426-1.315,2.866-2.618t2.886-2.595q1.448-1.292,2.9-2.573t2.915-2.556" transform="translate(-47.921 -28.718)"/><path class="cls-1" d="M59.031,148.889q.176-2.042.429-4.072t.578-4.048q.326-2.019.723-4.024t.862-4q.465-1.99,1-3.965t1.13-3.931q.6-1.956,1.257-3.895t1.381-3.856q.72-1.918,1.5-3.815t1.613-3.772q.835-1.874,1.724-3.724t1.83-3.676q.94-1.824,1.931-3.623t2.029-3.569q1.039-1.772,2.123-3.513t2.211-3.452q1.128-1.71,2.3-3.392t2.375-3.334q1.206-1.651,2.451-3.276T91,74.737q1.279-1.6,2.594-3.165t2.66-3.111Q97.6,66.919,98.973,65.4t2.783-3.007q1.405-1.49,2.84-2.955t2.893-2.906q1.459-1.44,2.943-2.857t2.99-2.809q1.506-1.394,3.033-2.764t3.073-2.717q1.546-1.349,3.111-2.674t3.144-2.63" transform="translate(-47.921 -28.718)"/></svg>