<svg id="Layer_1" data-name="Layer 1" xmlns="http://www.w3.org/2000/svg" viewBox="0 0 120.19 134.933"><defs><style>.cls-1{fill:none;stroke:#231f20;stroke-miterlimit:10;}</style></defs><path class="cls-1" d="M38.2,152.061q.843-2.657,1.767-5.284t1.925-5.223q1-2.595,2.079-5.158T46.2,131.3q1.152-2.528,2.379-5.02t2.525-4.948q1.3-2.454,2.668-4.87t2.806-4.791q1.439-2.374,2.943-4.708t3.076-4.621q1.571-2.289,3.206-4.532t3.334-4.44q1.7-2.2,3.457-4.343t3.578-4.245q1.818-2.1,3.7-4.143t3.81-4.037q1.933-1.992,3.923-3.929t4.03-3.818q2.043-1.879,4.137-3.7t4.239-3.585q2.144-1.762,4.338-3.463t4.435-3.34q2.24-1.638,4.527-3.212t4.618-3.082q2.331-1.507,4.7-2.948t4.789-2.811q2.415-1.371,4.87-2.671t4.948-2.528q2.493-1.227,5.023-2.381t5.094-2.232q2.565-1.079,5.163-2.08t5.229-1.923" transform="translate(-37.724 -19.838)"/><path class="cls-1" d="M48.917,154.688q.412-2.428.884-4.846t1-4.821q.532-2.4,1.124-4.794t1.242-4.764q.649-2.374,1.358-4.732t1.473-4.7q.765-2.34,1.586-4.661t1.7-4.621q.877-2.3,1.809-4.58t1.917-4.535q.985-2.256,2.025-4.489t2.131-4.44Q68.26,96.5,69.4,94.32t2.338-4.335q1.194-2.154,2.44-4.279t2.54-4.221q1.294-2.094,2.639-4.159t2.735-4.1Q83.488,71.2,84.927,69.2t2.926-3.962q1.485-1.963,3.018-3.892t3.109-3.819q1.576-1.89,3.2-3.743t3.287-3.666q1.665-1.813,3.373-3.586t3.459-3.5q1.751-1.731,3.543-3.419t3.625-3.331q1.833-1.642,3.705-3.241t3.785-3.149q1.912-1.551,3.863-3.055t3.939-2.958" transform="translate(-37.724 -19.838)"/><path class="cls-1" d="M55.3,151.345q.6-2.364,1.265-4.711t1.382-4.677q.72-2.329,1.5-4.641t1.61-4.6q.832-2.29,1.721-4.561t1.831-4.519q.944-2.247,1.94-4.473t2.046-4.425q1.048-2.2,2.151-4.376T73,106.036q1.152-2.15,2.356-4.27t2.456-4.214q1.253-2.093,2.554-4.155T83.018,89.3q1.349-2.031,2.746-4.031t2.84-3.966q1.443-1.966,2.932-3.9t3.022-3.828q1.534-1.9,3.111-3.757t3.2-3.683q1.621-1.822,3.284-3.606t3.367-3.528q1.7-1.745,3.449-3.447t3.53-3.364q1.784-1.66,3.608-3.279t3.686-3.191q1.862-1.574,3.761-3.1t3.836-3.009q1.935-1.482,3.908-2.916t3.978-2.819q2.007-1.385,4.047-2.72t4.115-2.62" transform="translate(-37.724 -19.838)"/><path class="cls-1" d="M61.253,151.629q.312-2.278.669-4.55t.757-4.536q.4-2.264.846-4.52t.933-4.5q.488-2.245,1.02-4.483t1.107-4.462q.575-2.226,1.192-4.44t1.278-4.416q.658-2.2,1.361-4.391t1.446-4.364q.744-2.175,1.528-4.335T75,98.325q.827-2.145,1.693-4.274t1.774-4.24q.907-2.112,1.855-4.206t1.934-4.17q.987-2.075,2.013-4.131t2.092-4.092q1.065-2.037,2.17-4.052t2.246-4.008q1.143-1.993,2.324-3.965t2.4-3.919q1.218-1.948,2.474-3.872t2.549-3.823q1.293-1.9,2.623-3.773t2.7-3.721q1.367-1.846,2.769-3.667t2.841-3.613q1.439-1.791,2.912-3.555t2.982-3.5q1.509-1.734,3.053-3.439t3.121-3.377v-.611" transform="translate(-37.724 -19.838)"/><path class="cls-1" d="M44.249,147.02q.838-2.2,1.733-4.372t1.844-4.325q.95-2.151,1.954-4.276t2.062-4.224q1.057-2.1,2.168-4.17t2.272-4.115q1.163-2.043,2.375-4.057t2.474-4q1.261-1.983,2.572-3.935t2.669-3.871q1.358-1.918,2.763-3.8t2.855-3.737q1.45-1.851,2.945-3.666t3.033-3.594q1.539-1.779,3.12-3.519t3.2-3.444q1.623-1.7,3.287-3.364t3.366-3.284q1.7-1.621,3.446-3.2t3.521-3.117q1.78-1.536,3.6-3.03t3.669-2.941q1.853-1.447,3.739-2.85t3.808-2.757q1.92-1.354,3.874-2.662t3.939-2.564q1.986-1.259,4-2.466t4.062-2.364q2.046-1.157,4.121-2.262T136.9,44.9q2.1-1.051,4.232-2.048t4.285-1.939" transform="translate(-37.724 -19.838)"/></svg>