<svg id="Layer_1" data-name="Layer 1" xmlns="http://www.w3.org/2000/svg" viewBox="0 0 85.896 126.062"><defs><style>.cls-1{fill:none;stroke:#231f20;stroke-miterlimit:10;}</style></defs><path class="cls-1" d="M51.292,154.685q1.773-9.254,4.405-18.307t6.068-17.821q3.436-8.767,7.652-17.206t9.153-16.46q4.94-8.021,10.577-15.583T101.066,54.73q6.282-7.015,13.182-13.441t14.364-12.175" transform="translate(-47.921 -28.718)"/><path class="cls-1" d="M55.984,153.9q1.186-8.115,3-16.118t4.243-15.837q2.422-7.834,5.437-15.469T75.26,91.455q3.577-7.38,7.7-14.476t8.774-13.851q4.647-6.756,9.8-13.142t10.791-12.345" transform="translate(-47.921 -28.718)"/><path class="cls-1" d="M60.055,152.717q.273-4.221.8-8.414t1.3-8.346q.771-4.154,1.774-8.261t2.226-8.156q1.221-4.05,2.654-8.035t3.059-7.9Q73.5,99.7,75.312,95.872t3.8-7.562q1.986-3.734,4.136-7.374T87.7,73.75q2.3-3.546,4.738-7t5.007-6.815q2.568-3.361,5.256-6.631t5.485-6.448q2.8-3.178,5.693-6.267t5.88-6.086" transform="translate(-47.921 -28.718)"/><path class="cls-1" d="M48.4,149.822q2.784-8.442,6.292-16.618t7.688-16.016q4.181-7.842,9.008-15.316T81.635,87.355q5.424-7.043,11.419-13.619t12.508-12.62q6.515-6.043,13.523-11.523t14.459-10.326" transform="translate(-47.921 -28.718)"/><path class="cls-1" d="M63.043,142.522q.956-6.88,2.476-13.661T69.1,115.448q2.06-6.63,4.645-13.083T79.416,89.69Q82.5,83.468,86.073,77.5t7.6-11.617q4.032-5.652,8.51-10.968t9.376-10.239" transform="translate(-47.921 -28.718)"/><path class="cls-1" d="M58.906,145.828q.392-3.855,1.1-7.653t1.714-7.525q1-3.729,2.28-7.38t2.8-7.217q1.521-3.564,3.272-7.035t3.7-6.836q1.95-3.366,4.082-6.62t4.415-6.384q2.284-3.132,4.7-6.151t4.956-5.941q2.535-2.922,5.177-5.754t5.368-5.587q2.725-2.754,5.526-5.44t5.655-5.316q2.855-2.631,5.752-5.213t5.818-5.129" transform="translate(-47.921 -28.718)"/><path class="cls-1" d="M59.031,148.889q.352-4.082,1.007-8.12t1.585-8.019q.932-3.981,2.128-7.9t2.638-7.751q1.44-3.837,3.112-7.587t3.554-7.4q1.881-3.649,3.96-7.192t4.334-6.965q2.254-3.422,4.671-6.726T91,74.737q2.559-3.192,5.254-6.276t5.507-6.065q2.813-2.981,5.733-5.861t5.933-5.666q3.012-2.787,6.106-5.481t6.255-5.3" transform="translate(-47.921 -28.718)"/></svg>