<svg id="Layer_1" data-name="Layer 1" xmlns="http://www.w3.org/2000/svg" viewBox="0 0 65.975 108.736"><defs><style>.cls-1{fill:none;stroke:#231f20;stroke-miterlimit:10;}</style></defs><path class="cls-1" d="M61.291,51.744q.3,1,.6,1.993t.628,1.986q.319.992.651,1.979t.676,1.97q.345.983.7,1.961t.724,1.953q.368.975.747,1.944t.771,1.935q.392.965.8,1.925t.818,1.916q.414.956.841,1.905t.863,1.9q.438.945.887,1.884t.91,1.874q.46.934.932,1.863t.954,1.851q.483.923.977,1.84t1,1.827q.5.912,1.021,1.816t1.042,1.8q.526.9,1.065,1.79t1.086,1.778q.548.885,1.107,1.764t1.129,1.75q.57.871,1.15,1.737t1.171,1.722q.591.858,1.191,1.708t1.213,1.694q.612.843,1.233,1.678t1.254,1.663q.631.828,1.273,1.648T92,110.429" transform="translate(-60.811 -48.409)"/><path class="cls-1" d="M97.487,110.7q-.7-.816-1.382-1.641T94.743,107.4q-.676-.832-1.342-1.674t-1.321-1.691q-.656-.851-1.3-1.708T89.5,100.605q-.635-.867-1.256-1.743T87.012,97.1q-.611-.885-1.21-1.779t-1.187-1.8q-.586-.9-1.162-1.815t-1.138-1.834q-.562-.921-1.112-1.852t-1.087-1.871q-.537-.94-1.061-1.891t-1.034-1.909q-.51-.96-1.007-1.929t-.979-1.949q-.483-.98-.951-1.969t-.922-1.989q-.455-1-.893-2.01t-.864-2.03q-.424-1.02-.833-2.051t-.8-2.071q-.393-1.041-.771-2.093t-.74-2.115q-.361-1.062-.708-2.135t-.675-2.158q-.328-1.084-.641-2.18t-.609-2.2q-.3-1.105-.574-2.224T65.512,49q.418,1.019.846,2.032t.864,2.025q.437,1.009.88,2.017t.9,2.009q.452,1,.912,2t.926,2q.466,1,.94,1.988t.954,1.981q.478.989.965,1.974t.977,1.967q.49.983.987,1.961t1,1.954q.5.975,1.006,1.947T78.679,76.8q.508.968,1.022,1.934t1.029,1.928q.516.961,1.036,1.921t1.04,1.915q.521.957,1.045,1.909t1.048,1.9q.525.949,1.052,1.9T87,92.1q.528.943,1.055,1.885t1.056,1.88q.526.939,1.055,1.874L91.224,99.6q.526.933,1.053,1.863t1.05,1.857q.524.927,1.047,1.852l1.042,1.847,1.038,1.842Z" transform="translate(-60.811 -48.409)"/><path class="cls-1" d="M69.279,48.552q.314,1.047.642,2.088t.671,2.079q.343,1.036.7,2.068t.731,2.059q.372,1.026.759,2.048t.789,2.037q.4,1.016.817,2.025t.845,2.014q.431,1,.874,2t.9,1.99q.457.992.929,1.976T78.9,72.9q.486.978.985,1.95t1.012,1.935q.513.965,1.039,1.922T83,80.616q.54.949,1.092,1.892t1.119,1.876q.565.934,1.144,1.86t1.171,1.845q.591.918,1.2,1.827t1.221,1.811q.618.9,1.247,1.793T92.459,95.3q.642.883,1.3,1.758t1.321,1.739q.668.865,1.346,1.72t1.37,1.7q.691.846,1.394,1.682t1.418,1.662q.715.825,1.441,1.641t1.465,1.62" transform="translate(-60.811 -48.409)"/><path class="cls-1" d="M115.581,50.739q-.189,1.425-.4,2.847t-.45,2.84q-.235,1.419-.5,2.833t-.541,2.823q-.282,1.41-.587,2.815t-.633,2.8q-.327,1.4-.677,2.794t-.722,2.783q-.372,1.389-.766,2.771t-.811,2.759q-.416,1.377-.854,2.746t-.9,2.731q-.459,1.362-.941,2.717t-.984,2.7q-.5,1.347-1.027,2.686t-1.07,2.669q-.544,1.331-1.111,2.652t-1.154,2.634q-.587,1.313-1.2,2.616t-1.236,2.6q-.629,1.293-1.278,2.576t-1.318,2.555q-.669,1.272-1.359,2.534t-1.4,2.512q-.71,1.251-1.439,2.489t-1.479,2.466q-.748,1.227-1.518,2.442t-1.557,2.417q-.787,1.2-1.6,2.391t-1.634,2.366q-.828,1.176-1.673,2.339t-1.711,2.311" transform="translate(-60.811 -48.409)"/><path class="cls-1" d="M126.3,49.75q-.43,1.787-.886,3.566t-.936,3.553q-.481,1.773-.987,3.539t-1.035,3.526q-.53,1.758-1.084,3.51t-1.133,3.495q-.579,1.743-1.182,3.479t-1.23,3.462q-.627,1.727-1.277,3.445t-1.325,3.427q-.675,1.709-1.372,3.408t-1.419,3.389q-.721,1.69-1.466,3.37t-1.512,3.349q-.767,1.668-1.557,3.327t-1.6,3.306q-.813,1.648-1.648,3.284t-1.694,3.261q-.858,1.624-1.738,3.237T99.432,117.9q-.9,1.6-1.827,3.188t-1.87,3.162q-.947,1.575-1.914,3.136t-1.957,3.11q-.99,1.548-2,3.082t-2.043,3.054q-1.032,1.519-2.084,3.026t-2.127,3q-1.074,1.489-2.168,2.966t-2.209,2.936q-1.116,1.46-2.251,2.9t-2.291,2.873" transform="translate(-60.811 -48.409)"/><path class="cls-1" d="M113.765,53.385q-.417,1.584-.853,3.163t-.887,3.152q-.452,1.575-.92,3.143t-.955,3.133q-.486,1.565-.988,3.123t-1.022,3.112q-.519,1.552-1.055,3.1T106,78.4q-.552,1.542-1.121,3.078t-1.153,3.065q-.585,1.53-1.187,3.053t-1.219,3.04q-.616,1.517-1.251,3.026t-1.283,3.014q-.65,1.5-1.316,3T96.12,102.66q-.681,1.49-1.379,2.971t-1.41,2.956q-.714,1.474-1.442,2.941t-1.474,2.925q-.744,1.458-1.5,2.909t-1.535,2.893q-.776,1.443-1.566,2.877t-1.6,2.859q-.805,1.426-1.627,2.843t-1.657,2.825q-.835,1.407-1.687,2.807t-1.718,2.788q-.865,1.391-1.747,2.77T74,142.776q-.9,1.369-1.807,2.731t-1.836,2.713" transform="translate(-60.811 -48.409)"/><path class="cls-1" d="M113.805,64.989q-.5,1.336-1,2.671t-1.016,2.666q-.512,1.332-1.029,2.661t-1.043,2.656q-.525,1.326-1.057,2.65t-1.07,2.645q-.538,1.322-1.084,2.639t-1.1,2.634q-.552,1.316-1.111,2.628t-1.124,2.622q-.565,1.31-1.138,2.617t-1.151,2.611q-.577,1.3-1.164,2.6t-1.177,2.6q-.593,1.3-1.191,2.593t-1.2,2.586q-.606,1.293-1.218,2.581t-1.23,2.574q-.62,1.285-1.244,2.568T91.2,117.355q-.631,1.279-1.27,2.555t-1.283,2.549Q88,123.731,87.35,125t-1.309,2.536q-.658,1.264-1.322,2.528t-1.335,2.522q-.671,1.258-1.348,2.514t-1.361,2.508q-.682,1.252-1.373,2.5T77.916,142.6q-.7,1.245-1.4,2.486t-1.412,2.48" transform="translate(-60.811 -48.409)"/><path class="cls-1" d="M119.583,53.3q-.472,1.731-.962,3.455t-1,3.445q-.507,1.719-1.034,3.433t-1.072,3.423q-.544,1.708-1.107,3.41t-1.144,3.4q-.582,1.7-1.18,3.387t-1.216,3.374q-.617,1.683-1.251,3.361t-1.287,3.347Q107.68,89,107.01,90.665t-1.357,3.319q-.687,1.656-1.392,3.305t-1.427,3.291q-.722,1.641-1.462,3.275t-1.5,3.259q-.757,1.626-1.53,3.244t-1.565,3.228q-.79,1.61-1.6,3.21t-1.632,3.194q-.825,1.593-1.665,3.177t-1.7,3.158q-.856,1.575-1.731,3.141t-1.765,3.122q-.89,1.557-1.8,3.1t-1.83,3.084q-.923,1.537-1.862,3.065t-1.895,3.045q-.956,1.518-1.927,3.025t-1.958,3q-.987,1.5-1.991,2.983t-2.021,2.962" transform="translate(-60.811 -48.409)"/><path class="cls-1" d="M122.346,51.391Q121.974,53.2,121.57,55t-.841,3.589q-.436,1.791-.9,3.574t-.967,3.557q-.5,1.775-1.031,3.539t-1.092,3.521q-.561,1.755-1.154,3.5t-1.215,3.48q-.624,1.736-1.276,3.459t-1.336,3.436q-.684,1.712-1.4,3.412T108.9,93.451q-.741,1.688-1.513,3.362t-1.571,3.335q-.8,1.662-1.629,3.308t-1.686,3.279q-.856,1.632-1.742,3.249t-1.8,3.219q-.913,1.6-1.854,3.187T95.2,119.544q-.969,1.569-1.963,3.121t-2.017,3.086q-1.021,1.533-2.07,3.05t-2.123,3.014q-1.074,1.5-2.175,2.976t-2.227,2.938q-1.126,1.458-2.278,2.9t-2.329,2.857q-1.177,1.419-2.379,2.816t-2.429,2.773q-1.227,1.376-2.478,2.73t-2.527,2.685" transform="translate(-60.811 -48.409)"/><path class="cls-1" d="M67.6,63.856q.336.852.679,1.7t.695,1.694q.351.845.71,1.687t.727,1.68q.366.838.741,1.673t.758,1.667q.382.831.773,1.659t.788,1.652q.4.823.8,1.644t.819,1.638q.412.816.834,1.629t.849,1.621q.429.81.864,1.614t.879,1.606q.444.8.894,1.6t.909,1.589q.459.792.924,1.58t.938,1.572q.472.784.952,1.563t.967,1.555q.488.774.982,1.545t1,1.536q.5.765,1.009,1.526t1.025,1.517q.514.758,1.038,1.508t1.052,1.5q.53.747,1.066,1.488t1.08,1.478q.543.737,1.093,1.468t1.107,1.457q.558.728,1.121,1.448t1.135,1.436" transform="translate(-60.811 -48.409)"/></svg>