<svg id="Layer_1" data-name="Layer 1" xmlns="http://www.w3.org/2000/svg" viewBox="0 0 108.306 106.052"><defs><style>.cls-1{fill:none;stroke:#231f20;stroke-miterlimit:10;}</style></defs><path class="cls-1" d="M85.4,99.422q.315-.9.695-1.777t.823-1.724q.443-.848.948-1.659t1.071-1.578q.566-.768,1.19-1.486t1.308-1.379q.682-.66,1.421-1.259t1.534-1.125a19.014,19.014,0,0,1,1.64-.973q.846-.445,1.733-.806c.59-.24,1.193-.45,1.8-.63a18.734,18.734,0,0,1,1.855-.443,18.156,18.156,0,0,1,1.886-.248,17.392,17.392,0,0,1,1.9-.042,16.349,16.349,0,0,1,1.888.171,15.55,15.55,0,0,1,4.551,1.419,16.718,16.718,0,0,1,2.448,1.471,18.524,18.524,0,0,1,2.186,1.856,20.575,20.575,0,0,1,1.909,2.179,22.587,22.587,0,0,1,1.617,2.442,24.3,24.3,0,0,1,1.308,2.643,25.113,25.113,0,0,1,.985,2.782,24.59,24.59,0,0,1,.644,2.861,27.35,27.35,0,0,1,.355,4.42,29.045,29.045,0,0,1-.34,4.408,30.674,30.674,0,0,1-.99,4.318,32.167,32.167,0,0,1-1.595,4.148,32.563,32.563,0,0,1-4.819,7.469,31.509,31.509,0,0,1-3.135,3.162,29.88,29.88,0,0,1-3.556,2.675,31.334,31.334,0,0,1-3.9,2.124,32.955,32.955,0,0,1-4.146,1.561,34.416,34.416,0,0,1-4.321,1.006,35.793,35.793,0,0,1-4.423.455,36.634,36.634,0,0,1-8.87-.721,36.057,36.057,0,0,1-4.3-1.166,34.763,34.763,0,0,1-4.12-1.7,36.363,36.363,0,0,1-3.864-2.195,38.114,38.114,0,0,1-3.569-2.638,39.544,39.544,0,0,1-3.246-3.031,41.082,41.082,0,0,1-2.9-3.377,41.757,41.757,0,0,1-2.523-3.674,42.29,42.29,0,0,1-2.123-3.925,41.826,41.826,0,0,1-1.7-4.127,41.2,41.2,0,0,1-1.243-4.28,43.005,43.005,0,0,1-.779-4.38q-.274-2.2-.329-4.43t.1-4.444q.157-2.219.523-4.421T53.864,85q.561-2.158,1.315-4.264t1.69-4.131q.936-2.026,2.049-3.961T61.3,68.882q1.269-1.827,2.687-3.543t2.965-3.316q1.546-1.6,3.217-3.079t3.445-2.831q1.775-1.351,3.647-2.572t3.822-2.3q1.952-1.083,3.974-2.025a60.194,60.194,0,0,1,7.119-2.775,62.089,62.089,0,0,1,22.661-2.807,59.122,59.122,0,0,1,7.549.962,55.95,55.95,0,0,1,7.327,1.938,52.611,52.611,0,0,1,6.973,2.934,49.728,49.728,0,0,1,6.487,3.945" transform="translate(-42.368 -43.009)"/><path class="cls-1" d="M139.431,54.512Q136.021,53.1,132.479,52t-7.168-1.863q-3.626-.765-7.308-1.187c-2.45-.279-4.912-.442-7.372-.482a72.569,72.569,0,0,0-7.362.248,68.91,68.91,0,0,0-7.276,1.008,65.289,65.289,0,0,0-7.114,1.794A62.368,62.368,0,0,0,82,54.127a57.413,57.413,0,0,0-6.526,3.458,59.123,59.123,0,0,0-6.049,4.262,59.937,59.937,0,0,0-5.475,4.98,59.024,59.024,0,0,0-4.8,5.61,56.7,56.7,0,0,0-4.035,6.151,53.811,53.811,0,0,0-3.171,6.605,50.479,50.479,0,0,0-2.209,6.971,47.628,47.628,0,0,0-1.151,7.248q-.123,1.523-.145,3.054t.058,3.061q.081,1.529.267,3.048t.483,3.017q.3,1.5.705,2.967t.933,2.9q.525,1.428,1.169,2.808t1.411,2.7q.635,1.093,1.347,2.134t1.5,2.029q.783.989,1.635,1.921t1.762,1.809q.91.876,1.877,1.694t1.98,1.575q1.014.758,2.072,1.453t2.152,1.328a41.543,41.543,0,0,0,4.285,2.154,42.63,42.63,0,0,0,9.178,2.8,41.723,41.723,0,0,0,4.757.6,40.1,40.1,0,0,0,4.778.04,38.039,38.039,0,0,0,4.73-.539,35.865,35.865,0,0,0,4.615-1.141,34.032,34.032,0,0,0,4.432-1.761,31.641,31.641,0,0,0,4.142-2.4,33.064,33.064,0,0,0,3.748-2.993,33.966,33.966,0,0,0,6.043-7.416,32.8,32.8,0,0,0,2.157-4.255,30.939,30.939,0,0,0,1.492-4.507,28.734,28.734,0,0,0,.757-4.673,27.08,27.08,0,0,0-.044-4.755q-.094-.954-.259-1.905c-.11-.632-.244-1.262-.4-1.885s-.342-1.239-.551-1.845-.443-1.2-.7-1.787-.546-1.154-.858-1.708a18.475,18.475,0,0,0-1.017-1.609,17.276,17.276,0,0,0-1.18-1.491,16.5,16.5,0,0,0-1.345-1.352,15.863,15.863,0,0,0-1.964-1.491,16.634,16.634,0,0,0-2.157-1.17,17.944,17.944,0,0,0-2.306-.854,19.164,19.164,0,0,0-2.412-.542,19.874,19.874,0,0,0-2.475-.235,20.791,20.791,0,0,0-4.959.434,20.147,20.147,0,0,0-2.4.66,22.686,22.686,0,0,0-2.291.93,24.105,24.105,0,0,0-2.173,1.165q-1.056.638-2.049,1.378t-1.918,1.567q-.926.828-1.781,1.735t-1.637,1.88q-.78.972-1.486,2t-1.33,2.1" transform="translate(-42.368 -43.009)"/><path class="cls-1" d="M85.912,105.636c.355-.969.753-1.927,1.192-2.867s.92-1.862,1.441-2.761,1.081-1.775,1.68-2.621,1.238-1.662,1.913-2.442a29.815,29.815,0,0,1,2.137-2.229,27.509,27.509,0,0,1,2.352-1.979,25.821,25.821,0,0,1,2.56-1.694,24.242,24.242,0,0,1,2.758-1.371,21.51,21.51,0,0,1,2.94-.988,22.479,22.479,0,0,1,6.169-.7,22.108,22.108,0,0,1,3.087.292,20.949,20.949,0,0,1,2.992.727,19.337,19.337,0,0,1,2.828,1.163,17.987,17.987,0,0,1,2.59,1.605,16.8,16.8,0,0,1,2.281,2.049A17.791,17.791,0,0,1,126.2,93.5a19.251,19.251,0,0,1,1.161,1.82,21.147,21.147,0,0,1,.958,1.939q.431,1,.767,2.035c.225.691.42,1.4.586,2.107s.3,1.432.415,2.156.2,1.454.255,2.183.093,1.46.1,2.187a35.728,35.728,0,0,1-.371,5.667,37.772,37.772,0,0,1-1.234,5.527,39.951,39.951,0,0,1-2.027,5.3,41.824,41.824,0,0,1-2.752,4.982,42.523,42.523,0,0,1-7.395,8.658,41.362,41.362,0,0,1-4.505,3.5,39.384,39.384,0,0,1-4.95,2.829,41.183,41.183,0,0,1-5.287,2.094,43.308,43.308,0,0,1-5.508,1.365,45.657,45.657,0,0,1-5.644.652,47.467,47.467,0,0,1-5.7-.043,48.553,48.553,0,0,1-11.2-2.1,47.87,47.87,0,0,1-5.339-2.027,46.361,46.361,0,0,1-5.052-2.655q-1.39-.844-2.724-1.784t-2.6-1.97q-1.264-1.029-2.453-2.146t-2.289-2.315q-1.1-1.2-2.108-2.474t-1.909-2.627q-.9-1.35-1.691-2.769t-1.455-2.905a37.451,37.451,0,0,1-1.649-4.4,39.408,39.408,0,0,1-1.095-4.558,41.15,41.15,0,0,1-.561-4.66,43.468,43.468,0,0,1-.044-4.707,45.519,45.519,0,0,1,.456-4.7A46.74,46.74,0,0,1,45.709,90.5a46.191,46.191,0,0,1,1.85-4.346q1.034-2.119,2.261-4.128t2.627-3.895q1.4-1.888,2.959-3.654t3.26-3.4q1.7-1.636,3.525-3.141t3.759-2.87q1.933-1.365,3.96-2.589t4.126-2.3q2.1-1.075,4.261-2.01t4.374-1.738q2.212-.8,4.47-1.479t4.55-1.233q2.293-.557,4.614-1t4.662-.78q2.34-.337,4.692-.573t4.708-.38q2.179-.133,4.386-.176t4.41.034q2.2.075,4.4.283t4.348.573c1.437.245,2.859.544,4.26.906s2.782.785,4.135,1.277a39.868,39.868,0,0,1,3.973,1.691,36.221,36.221,0,0,1,3.772,2.145" transform="translate(-42.368 -43.009)"/><path class="cls-1" d="M86.67,98.478q.444-.912.957-1.791t1.095-1.712q.581-.834,1.227-1.62T91.3,91.843q.706-.728,1.472-1.39T94.36,89.2q.82-.59,1.694-1.1t1.794-.934a19.25,19.25,0,0,1,1.886-.747,19.724,19.724,0,0,1,1.958-.548,19.386,19.386,0,0,1,2-.34,19.044,19.044,0,0,1,2.024-.129,18.429,18.429,0,0,1,2.022.089,17.894,17.894,0,0,1,1.994.313,16.779,16.779,0,0,1,1.941.543,16.132,16.132,0,0,1,1.865.778,16.657,16.657,0,0,1,1.822,1.05,17.833,17.833,0,0,1,1.672,1.26,19.193,19.193,0,0,1,1.522,1.443c.482.509.939,1.045,1.371,1.6s.838,1.138,1.219,1.736.736,1.213,1.066,1.843.634,1.273.912,1.925.532,1.316.758,1.983a29.79,29.79,0,0,1,1.187,4.755,31.535,31.535,0,0,1,.413,4.87,33.467,33.467,0,0,1-.323,4.886,34.862,34.862,0,0,1-1.024,4.8,35.369,35.369,0,0,1-4,8.973,34.074,34.074,0,0,1-2.9,3.974,32.548,32.548,0,0,1-3.455,3.5,33.837,33.837,0,0,1-3.93,2.94,35.614,35.614,0,0,1-4.294,2.353,37.589,37.589,0,0,1-4.578,1.759,38.931,38.931,0,0,1-4.777,1.159,39.671,39.671,0,0,1-9.823.5,38.732,38.732,0,0,1-4.881-.674,37.357,37.357,0,0,1-4.751-1.3,39.039,39.039,0,0,1-4.532-1.895,40.9,40.9,0,0,1-4.258-2.434,42.352,42.352,0,0,1-3.946-2.92,44.2,44.2,0,0,1-3.6-3.354,45.175,45.175,0,0,1-8.329-12.152,43.746,43.746,0,0,1-1.832-4.574q-.633-1.881-1.1-3.81t-.766-3.89q-.3-1.959-.433-3.941t-.1-3.964q.032-1.983.229-3.959t.561-3.925q.363-1.949.892-3.863t1.221-3.772A45.668,45.668,0,0,1,53.792,77.5a48.492,48.492,0,0,1,3.97-5.944,52.393,52.393,0,0,1,4.785-5.334,56.537,56.537,0,0,1,5.48-4.682,59.788,59.788,0,0,1,6.056-3.987A62.13,62.13,0,0,1,80.594,54.3a62.915,62.915,0,0,1,6.848-2.473,61.53,61.53,0,0,1,7.065-1.653,69.92,69.92,0,0,1,7.16-.853q3.591-.242,7.189-.134t7.178.535q3.582.425,7.131,1.15t7.045,1.717q3.495.991,6.92,2.231t6.758,2.7q3.333,1.455,6.558,3.107" transform="translate(-42.368 -43.009)"/><path class="cls-1" d="M89.76,104.779q.249-.809.53-1.608t.6-1.587q.316-.786.671-1.557c.236-.512.485-1.019.748-1.517s.54-.989.832-1.469.6-.952.919-1.412.658-.91,1.012-1.346.722-.861,1.108-1.271.792-.805,1.213-1.182.86-.737,1.313-1.077.92-.66,1.4-.958.974-.573,1.478-.824,1.02-.477,1.545-.676a16.273,16.273,0,0,1,1.6-.513,15.009,15.009,0,0,1,1.644-.335,14.191,14.191,0,0,1,1.676-.145,14.338,14.338,0,0,1,1.723.062,14.942,14.942,0,0,1,1.7.263,16.044,16.044,0,0,1,1.661.45,16.835,16.835,0,0,1,1.611.622q.792.351,1.55.778t1.477.92q.719.493,1.391,1.047t1.293,1.158a21.745,21.745,0,0,1,2.047,2.3,22.947,22.947,0,0,1,1.707,2.551,24.422,24.422,0,0,1,1.365,2.756,25.542,25.542,0,0,1,1.02,2.912,27.076,27.076,0,0,1,.577,12.285,28.855,28.855,0,0,1-.727,3,29.825,29.825,0,0,1-1.034,2.9q-.59,1.423-1.317,2.786t-1.578,2.656q-.85,1.291-1.815,2.509t-2.029,2.349q-1.064,1.131-2.218,2.171t-2.385,1.979q-1.231.938-2.526,1.779t-2.645,1.587q-1.35.749-2.749,1.4t-2.839,1.225q-1.439.569-2.912,1.052t-2.972.887q-1.5.4-3.016.727t-3.045.575q-1.532.25-3.083.426t-3.108.263q-1.558.087-3.117.083t-3.109-.113q-1.55-.108-3.083-.326t-3.042-.555q-1.507-.338-2.983-.8T66.927,142.9a31.929,31.929,0,0,1-4.52-2.338,33.753,33.753,0,0,1-4.087-3A35.923,35.923,0,0,1,54.7,134a37.976,37.976,0,0,1-3.106-4.047,39.343,39.343,0,0,1-2.556-4.439,39.871,39.871,0,0,1-1.966-4.741,39.334,39.334,0,0,1-1.338-4.954,37.808,37.808,0,0,1-.669-5.078,40.937,40.937,0,0,1,0-5.1,43.073,43.073,0,0,1,.613-5.05,45.719,45.719,0,0,1,1.188-4.952,48.155,48.155,0,0,1,1.725-4.809,50.06,50.06,0,0,1,2.223-4.617q1.229-2.255,2.68-4.381t3.1-4.1q1.647-1.97,3.479-3.766t3.806-3.406q1.977-1.614,4.085-3.052t4.328-2.7q2.22-1.265,4.537-2.358t4.71-2.02q2.394-.926,4.85-1.684t4.954-1.354q2.5-.594,5.023-1.028t5.063-.718q2.54-.285,5.09-.432t5.108-.168q2.557-.021,5.117.077t5.115.3q2.555.2,5.1.506t5.083.69q2.535.387,5.054.853" transform="translate(-42.368 -43.009)"/></svg>