<svg id="Layer_1" data-name="Layer 1" xmlns="http://www.w3.org/2000/svg" viewBox="0 0 98.311 132.685"><defs><style>.cls-1{fill:none;stroke:#231f20;stroke-miterlimit:10;}</style></defs><path class="cls-1" d="M47.446,148.152q.136-1.206.294-2.408t.336-2.4q.18-1.2.379-2.4t.42-2.389q.221-1.192.462-2.38t.5-2.373q.262-1.184.544-2.363t.585-2.353q.3-1.174.626-2.343t.666-2.332q.342-1.164.7-2.321t.746-2.308q.382-1.15.785-2.3t.824-2.281q.421-1.137.862-2.267t.9-2.251q.461-1.122.939-2.236t.978-2.22q.5-1.105,1.016-2.2t1.053-2.185q.535-1.089,1.09-2.167t1.127-2.147q.573-1.07,1.164-2.128t1.2-2.107q.609-1.049,1.237-2.086t1.272-2.065q.645-1.026,1.308-2.042t1.343-2.019q.68-1,1.378-2T73.6,81.12q.716-.98,1.447-1.946t1.482-1.92q.749-.954,1.515-1.894T79.6,73.494q.781-.927,1.581-1.839t1.613-1.811q.813-.9,1.644-1.783t1.675-1.754q.844-.87,1.7-1.724t1.734-1.7q.874-.84,1.764-1.665T93.1,59.589q.9-.809,1.82-1.6t1.847-1.571q.93-.779,1.874-1.54t1.9-1.508q.956-.745,1.925-1.475t1.95-1.442q.983-.713,1.975-1.408t2-1.375q1-.678,2.022-1.34t2.044-1.3q1.028-.643,2.066-1.27t2.088-1.235q1.048-.608,2.108-1.2t2.129-1.162q1.07-.571,2.148-1.125t2.168-1.088q1.088-.534,2.186-1.05t2.2-1.012q1.105-.5,2.221-.973t2.238-.934q1.124-.458,2.254-.9t2.27-.855" transform="translate(-46.949 -22.456)"/><path class="cls-1" d="M65,155.078q.2-1.565.412-3.127t.444-3.122q.231-1.56.477-3.118t.509-3.112q.264-1.555.542-3.107t.573-3.1q.3-1.548.606-3.095t.637-3.089q.327-1.542.67-3.082t.7-3.075q.359-1.536.732-3.067t.764-3.06q.39-1.528.8-3.052t.827-3.044q.422-1.519.858-3.035t.889-3.026q.453-1.511.921-3.017t.951-3.007q.483-1.5.982-3T79.3,93.757q.515-1.491,1.043-2.976t1.074-2.966q.546-1.479,1.1-2.954t1.135-2.942q.574-1.468,1.165-2.931t1.2-2.919q.6-1.457,1.225-2.906T88.5,70.27q.636-1.443,1.286-2.88T91.1,64.523q.665-1.429,1.345-2.853t1.374-2.839q.33-.671.664-1.342t.676-1.343q.342-.671.689-1.341t.7-1.338q.354-.668.715-1.333t.729-1.328q.369-.661.745-1.321t.76-1.312q.384-.653.777-1.3t.793-1.29q.4-.642.811-1.278t.829-1.264q.418-.627.847-1.248t.867-1.231q.439-.611.887-1.212t.908-1.193q.459-.591.929-1.172t.951-1.149q.481-.569.973-1.125t1-1.1q.5-.543,1.021-1.073t1.044-1.044q.53-.516,1.07-1.015t1.1-.984q.555-.484,1.122-.952t1.149-.918q.581-.45,1.176-.883t1.2-.846q.611-.412,1.234-.808t1.263-.768q.639-.375,1.293-.728t1.324-.686" transform="translate(-46.949 -22.456)"/><path class="cls-1" d="M61.905,140.535q.465-1.868.982-3.722t1.085-3.692q.568-1.839,1.186-3.66t1.287-3.626q.668-1.8,1.384-3.588T69.31,118.7q.765-1.764,1.576-3.509t1.669-3.466q.856-1.722,1.76-3.421t1.85-3.374q.947-1.676,1.938-3.325t2.024-3.273q1.035-1.624,2.11-3.22t2.192-3.164q1.116-1.569,2.274-3.107t2.353-3.047q1.2-1.508,2.431-2.985T94,79.885q1.273-1.445,2.583-2.855t2.655-2.787q1.345-1.376,2.727-2.716t2.8-2.643q1.415-1.3,2.864-2.57t2.931-2.492q1.482-1.227,3-2.414t3.059-2.332q1.543-1.146,3.12-2.25t3.179-2.165q1.6-1.061,3.238-2.077t3.294-1.989q1.661-.971,3.348-1.9t3.4-1.8" transform="translate(-46.949 -22.456)"/><path class="cls-1" d="M53.037,145.756q.2-1.161.42-2.318t.458-2.31q.24-1.153.5-2.3t.535-2.294q.276-1.144.572-2.285t.609-2.275q.315-1.136.647-2.265t.684-2.255q.351-1.123.72-2.242t.757-2.231q.387-1.113.792-2.218t.829-2.206q.423-1.1.864-2.191t.9-2.177q.457-1.086.934-2.163t.969-2.147q.493-1.07,1-2.131t1.039-2.115q.526-1.053,1.072-2.1t1.106-2.08q.561-1.035,1.139-2.061t1.173-2.043q.594-1.017,1.206-2.024t1.238-2q.627-1,1.271-1.983t1.3-1.963q.658-.975,1.335-1.94t1.366-1.919q.691-.954,1.4-1.9t1.43-1.872q.721-.93,1.46-1.849t1.49-1.824q.753-.906,1.521-1.8T87.326,74.5q.781-.879,1.579-1.747t1.608-1.721q.811-.854,1.637-1.7t1.664-1.667q.839-.826,1.691-1.64t1.717-1.612q.866-.8,1.744-1.584t1.769-1.555q.891-.771,1.794-1.527t1.819-1.5q.915-.741,1.842-1.468t1.866-1.437q.939-.713,1.89-1.408t1.911-1.376q.962-.681,1.934-1.346t1.955-1.314q.983-.65,1.976-1.283t2-1.25q1-.617,2.016-1.218t2.036-1.185q1.023-.583,2.055-1.152T127.9,42.7q1.041-.55,2.091-1.084t2.109-1.05q1.059-.517,2.125-1.016t2.142-.98q1.075-.481,2.158-.945t2.173-.909q1.091-.445,2.188-.873t2.2-.837" transform="translate(-46.949 -22.456)"/></svg>