<svg id="Layer_1" data-name="Layer 1" xmlns="http://www.w3.org/2000/svg" viewBox="0 0 87.662 71.606"><defs><style>.cls-1{fill:none;stroke:#231f20;stroke-miterlimit:10;}</style></defs><path class="cls-1" d="M38.008,139.621q.232-.723.482-1.442T39,136.747q.264-.714.544-1.424t.577-1.413q.3-.705.607-1.4t.637-1.393q.327-.693.669-1.381t.7-1.37q.357-.683.729-1.358t.758-1.347q.386-.669.787-1.333T45.825,123q.415-.657.846-1.308t.873-1.294q.444-.644.9-1.279t.93-1.266q.473-.629.958-1.251t.985-1.235q.5-.615,1.012-1.221t1.038-1.2q.526-.6,1.066-1.188t1.091-1.171q.553-.582,1.118-1.155t1.143-1.137q.579-.564,1.169-1.119t1.194-1.1q.6-.546,1.219-1.083t1.243-1.063q.627-.528,1.268-1.045t1.291-1.025q.652-.508,1.316-1.005t1.338-.985q.676-.487,1.362-.964t1.385-.943q.7-.466,1.406-.922t1.427-.9q.72-.444,1.449-.878t1.469-.857q.74-.423,1.489-.835t1.509-.812q.759-.4,1.527-.791t1.546-.767q.778-.378,1.564-.745t1.582-.722q.795-.355,1.6-.7t1.616-.675q.811-.333,1.631-.652t1.646-.629q.828-.308,1.662-.6t1.677-.581q.841-.283,1.69-.556t1.7-.532q.855-.26,1.717-.508t1.73-.482q.869-.236,1.742-.458t1.753-.433q.88-.21,1.765-.407t1.775-.382q.891-.184,1.786-.356t1.8-.33q.9-.159,1.8-.3t1.813-.278q.909-.133,1.821-.252t1.829-.225" transform="translate(-37.532 -74.81)"/><path class="cls-1" d="M50.351,146.252q.314-.906.64-1.81t.665-1.8q.337-.9.689-1.8t.713-1.788q.363-.892.738-1.781t.762-1.773q.387-.885.786-1.765t.81-1.757q.411-.878.833-1.749t.858-1.741q.435-.867.881-1.732t.9-1.723q.459-.858.928-1.714t.951-1.7q.481-.849.974-1.695t1-1.686q.5-.841,1.02-1.677t1.043-1.666q.528-.831,1.066-1.657t1.089-1.646q.549-.82,1.111-1.636t1.133-1.626q.573-.81,1.156-1.614t1.178-1.6q.594-.8,1.2-1.592t1.222-1.582q.617-.787,1.244-1.569t1.265-1.558q.639-.777,1.288-1.547t1.309-1.534q.658-.763,1.33-1.522t1.352-1.51q.323-.357.65-.712t.659-.711c.222-.236.444-.472.669-.708s.451-.47.678-.7.458-.467.689-.7.464-.464.7-.694.472-.461.71-.689.479-.455.721-.681.486-.45.732-.673.495-.444.745-.664.5-.438.756-.654.511-.43.769-.643.519-.423.782-.631.527-.415.8-.619.536-.405.808-.605.546-.4.822-.59.556-.386.837-.575.565-.375.851-.559.575-.363.866-.541.585-.352.881-.523.595-.339.9-.5.606-.326.912-.484.617-.312.929-.463.628-.3.946-.441.639-.282.962-.418.651-.267.98-.394.662-.251,1-.369.674-.234,1.016-.344.686-.217,1.033-.318.7-.2,1.053-.29.711-.179,1.071-.262.724-.159,1.091-.232" transform="translate(-37.532 -74.81)"/><path class="cls-1" d="M49.554,136.678q.563-1.114,1.162-2.214t1.239-2.181q.638-1.083,1.313-2.147t1.386-2.113q.711-1.047,1.458-2.076t1.528-2.039q.78-1.01,1.6-2t1.663-1.961q.849-.971,1.729-1.921t1.793-1.878q.912-.93,1.855-1.836t1.917-1.792q.972-.885,1.975-1.748t2.034-1.7q1.03-.838,2.09-1.653t2.145-1.606q1.086-.79,2.2-1.556t2.25-1.506q1.139-.739,2.3-1.454t2.349-1.4q1.186-.687,2.4-1.347t2.442-1.293q1.233-.631,2.487-1.236t2.529-1.18q1.275-.575,2.571-1.121t2.61-1.061q1.314-.516,2.648-1t2.686-.939q1.351-.454,2.72-.877t2.754-.814q1.385-.39,2.786-.748t2.817-.682" transform="translate(-37.532 -74.81)"/><path class="cls-1" d="M42.155,138.785q.28-.705.576-1.4t.6-1.4q.309-.695.633-1.384t.662-1.374q.338-.684.69-1.363t.718-1.352q.364-.674.745-1.341t.772-1.329q.393-.662.8-1.316t.826-1.305q.42-.649.853-1.292t.879-1.278q.446-.636.9-1.266t.93-1.251q.472-.623.956-1.238t.981-1.223q.5-.608,1.006-1.209t1.03-1.193q.52-.594,1.054-1.179t1.079-1.163q.546-.578,1.1-1.147t1.126-1.13q.568-.561,1.149-1.114t1.172-1.1q.593-.544,1.2-1.08t1.218-1.063q.615-.527,1.24-1.044t1.262-1.027q.636-.508,1.283-1.008t1.305-.989q.658-.489,1.327-.969t1.347-.951q.678-.47,1.367-.93t1.388-.911q.7-.45,1.407-.89t1.427-.87q.717-.429,1.445-.849t1.463-.829q.737-.408,1.481-.807t1.5-.787q.754-.387,1.516-.765t1.532-.744q.771-.366,1.548-.722t1.565-.7q.786-.345,1.579-.679t1.594-.657q.8-.323,1.609-.634t1.622-.613q.816-.3,1.637-.59t1.649-.567q.828-.278,1.662-.544t1.674-.522q.84-.255,1.686-.5t1.7-.475q.852-.233,1.709-.452t1.719-.428q.861-.207,1.728-.4t1.739-.38q.871-.184,1.748-.357t1.757-.332q.88-.159,1.765-.307t1.773-.283q.888-.135,1.78-.258t1.787-.234" transform="translate(-37.532 -74.81)"/></svg>