<svg id="Layer_1" data-name="Layer 1" xmlns="http://www.w3.org/2000/svg" viewBox="0 0 229.07547 80.79932"><defs><style>.cls-1{fill:#231f20;}</style></defs><path class="cls-1" d="M308.04932,223.9458l-4.33081-2.29907-4.33081-2.29907-4.33082-2.29908-4.33081-2.29907-4.33081-2.29907-4.33081-2.29907-4.33081-2.29908-4.33081-2.29907-4.33081-2.29907-4.33081-2.29907L260.4104,198.656l-4.33081-2.29908-4.33081-2.29907-4.33081-2.29907-4.33081-2.29907-4.33081-2.29908-4.33081-2.29907-4.33081-2.29907-4.33081-2.29907-4.33081-2.29907-4.33082-2.29908-4.33081-2.29907-4.33081-2.29907-4.33081-2.29907-4.33081-2.29908-4.33081-2.29907-4.33081-2.29907-4.33081-2.29907-4.33081-2.29907-4.33081-2.29908-2.96974,2.25083-2.96974,2.25082-2.96975,2.25082-2.96974,2.25083-2.96974,2.25082-2.96974,2.25083-2.96974,2.25082-2.96974,2.25082-2.96975,2.25083-2.96974,2.25082-2.96974,2.25083-2.96974,2.25082-2.96974,2.25082-2.96975,2.25083-2.96974,2.25082-2.96974,2.25083-2.96974,2.25082-2.96974,2.25082-2.96974,2.25083-2.96975,2.25082-2.96974,2.25083-2.96974,2.25082-2.96974,2.25082-2.96974,2.25083-2.96975,2.25082-2.96974,2.25083L97.942,215.74588l-2.96974,2.25082-2.96974,2.25083-2.96974,2.25082L87.5452,220.364l-1.48754-2.13433-1.37345-1.97062-1.37345-1.97062,3.12877-2.3714,3.12877-2.3714,3.12877-2.37139,3.12877-2.3714,3.12877-2.3714,3.12876-2.3714,3.12877-2.3714,3.12877-2.3714,3.12877-2.3714,3.12877-2.3714,3.12877-2.3714,3.12877-2.37139,3.12877-2.3714,3.12877-2.3714,3.12876-2.3714,3.12877-2.3714,3.12877-2.3714,3.12877-2.3714,3.12877-2.3714,3.12877-2.3714,3.12877-2.3714,3.12877-2.37139,3.12877-2.3714,3.12876-2.3714,3.12877-2.3714,3.12877-2.3714,3.12877-2.3714,3.12877-2.3714,3.12877-2.3714,3.12877-2.3714,4.50708,2.39267,4.50708,2.39267,4.50708,2.39267,4.50708,2.39267,4.50708,2.39267,4.50708,2.39267,4.50708,2.39267,4.50708,2.39267,4.50708,2.39267,4.50708,2.39267,4.50708,2.39267,4.50708,2.39267,4.50708,2.39267,4.50708,2.39267,4.50708,2.39267,4.50708,2.39267,4.50708,2.39267,4.50708,2.39267,4.50708,2.39267,4.50708,2.39267,4.50708,2.39267,4.50708,2.39267,4.50708,2.39267,4.50708,2.39267,4.50708,2.39267,4.50708,2.39267,4.50708,2.39267,4.50708,2.39267,4.50708,2.39267,4.50708,2.39266-1.1068,2.30173L310.17264,219.53l-1.06166,2.20789Z" transform="translate(-83.31076 -143.14648)"/></svg>