<svg id="Layer_1" data-name="Layer 1" xmlns="http://www.w3.org/2000/svg" viewBox="0 0 239.23308 11.07812"><defs><style>.cls-1{fill:#231f20;stroke:#231f20;stroke-miterlimit:10;stroke-width:0.25px;}</style></defs><polygon class="cls-1" points="239.073 0.125 239.09 5.125 239.108 10.125 230.574 10.155 222.04 10.184 213.506 10.214 204.972 10.243 196.438 10.273 187.904 10.302 179.371 10.332 170.837 10.361 162.303 10.391 153.769 10.421 145.235 10.45 136.701 10.48 128.167 10.509 119.634 10.539 111.1 10.568 102.566 10.598 94.032 10.628 85.498 10.657 76.964 10.687 68.43 10.716 59.896 10.746 51.363 10.775 42.829 10.805 34.295 10.834 25.761 10.864 17.227 10.894 8.693 10.923 0.159 10.953 0.142 5.953 0.125 0.953 8.659 0.923 17.193 0.894 25.727 0.864 34.261 0.835 42.795 0.805 51.328 0.775 59.862 0.746 68.396 0.716 76.93 0.687 85.464 0.657 93.998 0.628 102.531 0.598 111.065 0.569 119.599 0.539 128.133 0.51 136.667 0.48 145.2 0.45 153.734 0.421 162.268 0.391 170.802 0.362 179.336 0.332 187.87 0.303 196.403 0.273 204.937 0.244 213.471 0.214 222.005 0.185 230.539 0.155 239.073 0.125"/></svg>