<svg id="Layer_1" data-name="Layer 1" xmlns="http://www.w3.org/2000/svg" viewBox="0 0 229.07547 80.79932"><defs><style>.cls-1{fill:#231f20;}</style></defs><path class="cls-1" d="M308.04932,223.9458l-8.66162-4.59814-8.66163-4.59815-8.66162-4.59814-8.66162-4.59815-8.66162-4.59814-8.66162-4.59815-8.66162-4.59814-8.66162-4.59815-8.66162-4.59814-8.66162-4.59814-8.66163-4.59815-8.66162-4.59814-8.66162-4.59815-8.66162-4.59814-8.66162-4.59815-5.93948,4.50165-5.93949,4.50165-5.93948,4.50165-5.93948,4.50164-5.93949,4.50165-5.93948,4.50165-5.93949,4.50165-5.93948,4.50165-5.93948,4.50164-5.93949,4.50165-5.93948,4.50165-5.93948,4.50165-5.93949,4.50165-5.93948,4.50164-5.93948,4.50165q-1.48755-2.13432-2.97509-4.26866l-2.7469-3.94124,6.25754-4.7428,6.25754-4.74279,6.25753-4.7428,6.25754-4.7428,6.25754-4.7428,6.25754-4.74279,6.25754-4.7428,6.25753-4.7428,6.25754-4.7428,6.25754-4.7428,6.25754-4.74279,6.25753-4.7428,6.25754-4.7428,6.25754-4.7428,6.25754-4.7428,9.01416,4.78534,9.01416,4.78534,9.01416,4.78534,9.01416,4.78534,9.01416,4.78534,9.01416,4.78534,9.01416,4.78534,9.01416,4.78534,9.01416,4.78534,9.01416,4.78534,9.01416,4.78534,9.01416,4.78534,9.01416,4.78534,9.01416,4.78534,9.01416,4.78533q-1.10678,2.30174-2.21359,4.60346Q309.111,221.73791,308.04932,223.9458Z" transform="translate(-83.31076 -143.14648)"/></svg>