<svg id="Layer_1" data-name="Layer 1" xmlns="http://www.w3.org/2000/svg" viewBox="0 0 49.29 65.48"><path d="M18.84,65.46l.34-.94c.6-1.66,1.13-3.39,1.47-4.55a37.37,37.37,0,0,0,1-4.22c.2-1,.38-1.87.54-2.8,0-.21.08-.45.13-.69a7,7,0,0,0,.23-1.82,2.44,2.44,0,0,0-.72.4A14.75,14.75,0,0,1,20,52a10.72,10.72,0,0,1-2.93,1,13.2,13.2,0,0,1-4.16.07,16.39,16.39,0,0,1-4-1,14,14,0,0,1-2.77-1.49,9.73,9.73,0,0,1-2.24-2.1,6.84,6.84,0,0,1-.79-1.26,8.45,8.45,0,0,1-.9-3.56,9.9,9.9,0,0,1,1-4.68,13,13,0,0,1,2.69-3.52,18.87,18.87,0,0,1,2.87-2.18,10.72,10.72,0,0,1-3.06-.6A9.48,9.48,0,0,1,2.92,31,8,8,0,0,1,.37,27.3a7,7,0,0,1-.25-3.54,10.19,10.19,0,0,1,2.24-4.4,16.42,16.42,0,0,1,2.49-2.44,18.08,18.08,0,0,1,4-2.5,19.68,19.68,0,0,1,6.59-1.7,6.12,6.12,0,0,1-1.88-3.05A6.37,6.37,0,0,1,14.05,5a8.23,8.23,0,0,1,2-2.39A11,11,0,0,1,19.16.81,13.29,13.29,0,0,1,22.68,0a16,16,0,0,1,3.1.07,19.47,19.47,0,0,1,3.37.73,24.33,24.33,0,0,1,3.59,1.46,24,24,0,0,1,2.51,1.45A17.5,17.5,0,0,1,38,6a12,12,0,0,1,2.47,3.47,10.06,10.06,0,0,1,.15,8.25,16.09,16.09,0,0,1,2.64,1.59A6.6,6.6,0,0,1,45.92,23a6.23,6.23,0,0,1-1.64,5.36,11.58,11.58,0,0,1-1.52,1.44c-.58.44-1.18.85-1.79,1.23a12,12,0,0,1,3.77,1.44A9.48,9.48,0,0,1,48.26,36a8,8,0,0,1-1.06,9.35,10.77,10.77,0,0,1-2.46,1.91,20.13,20.13,0,0,1-2.87,1.32A31.18,31.18,0,0,1,38,49.7a43,43,0,0,1-5.27.81c-1.49.13-3.06.21-4.79.22a21.49,21.49,0,0,0,.43,3.48,22.78,22.78,0,0,0,1.38,4.41,24,24,0,0,0,2.67,4.71l.68.92-1.14-.13A30.08,30.08,0,0,0,26.82,64a29.32,29.32,0,0,0-4.08.49,26.86,26.86,0,0,0-2.94.73Zm3.8-16a.84.84,0,0,1,.48.14c.7.46.46,1.64.2,2.9-.05.23-.09.45-.13.65q-.24,1.41-.54,2.82a36.87,36.87,0,0,1-1,4.31c-.28,1-.69,2.31-1.16,3.69.69-.19,1.4-.35,2.11-.48a29.73,29.73,0,0,1,4.2-.51A32.71,32.71,0,0,1,31,63a24.41,24.41,0,0,1-2.16-4,23.93,23.93,0,0,1-1.44-4.61,23.36,23.36,0,0,1-.47-4.17v-.51h.51c1.91,0,3.62-.07,5.22-.22a40.65,40.65,0,0,0,5.14-.79,29.27,29.27,0,0,0,3.78-1.12,18,18,0,0,0,2.71-1.25,9.66,9.66,0,0,0,2.23-1.73,7,7,0,0,0,.92-8.17,8.5,8.5,0,0,0-3.16-3.14,11.11,11.11,0,0,0-4.81-1.5l-1.74-.12,1.53-.82A22.56,22.56,0,0,0,42.15,29a9.69,9.69,0,0,0,1.39-1.33A5.23,5.23,0,0,0,45,23.2a5.63,5.63,0,0,0-2.31-3.11,15.92,15.92,0,0,0-2.92-1.71l-.47-.21.22-.47a9.08,9.08,0,0,0,.06-7.85,11.2,11.2,0,0,0-2.27-3.18,15.66,15.66,0,0,0-2.57-2.09A21.22,21.22,0,0,0,32.3,3.19a22.87,22.87,0,0,0-3.45-1.4,17.45,17.45,0,0,0-3.19-.69A14.07,14.07,0,0,0,22.76,1a12.2,12.2,0,0,0-3.26.72,9.54,9.54,0,0,0-2.85,1.64,6.89,6.89,0,0,0-1.72,2.08,5.38,5.38,0,0,0-.4,3.94,5.2,5.2,0,0,0,2.67,3.3l1.84.95H17a18.39,18.39,0,0,0-7.69,1.67,17.17,17.17,0,0,0-3.8,2.37A14.68,14.68,0,0,0,3.13,20,9,9,0,0,0,1.1,24a6.09,6.09,0,0,0,.21,3,7.1,7.1,0,0,0,2.24,3.25,8.5,8.5,0,0,0,2.53,1.41,9.92,9.92,0,0,0,4.86.43l3.64-.61L11.23,33A17.9,17.9,0,0,0,6.62,36.1a11.89,11.89,0,0,0-2.48,3.24,8.82,8.82,0,0,0-.94,4.2A7.26,7.26,0,0,0,4,46.67a6,6,0,0,0,.67,1.09,9.11,9.11,0,0,0,2,1.9,14,14,0,0,0,2.59,1.39A15.58,15.58,0,0,0,13,52,12.49,12.49,0,0,0,16.88,52a9.67,9.67,0,0,0,2.66-.88,12.27,12.27,0,0,0,1.73-1A2.63,2.63,0,0,1,22.64,49.43Z" transform="translate(0 0.01)"/></svg>