<?xml version="1.0" encoding="utf-8" ?>
<svg baseProfile="full" height="180" version="1.1" viewBox="0,0,854,180" width="854" xmlns="http://www.w3.org/2000/svg" xmlns:ev="http://www.w3.org/2001/xml-events" xmlns:xlink="http://www.w3.org/1999/xlink">
	<path d="M 610.919415 173.797531 L 610.593319 171.828709 L 610.268633 169.859654 L 609.944281 167.890544 L 609.619225 165.921550 L 609.332015 163.946682 L 609.092221 161.965499 L 608.833882 159.986646 L 608.602829 158.004423 L 608.353748 156.024384 L 608.091798 154.046006 L 607.824456 152.068349 L 607.620287 150.083186 L 607.516970 148.090246 L 607.455714 146.095546 L 607.463468 144.099932 L 607.533301 142.105522 L 607.604938 140.111164 L 607.714850 138.118554 L 607.827838 136.126110 L 607.965823 134.135244 L 608.121866 132.145710 L 608.277207 130.156120 L 608.440861 128.167197 L 608.606048 126.178401 L 608.774901 124.189912 L 608.945592 122.201581 L 609.117671 120.213368 L 609.291294 118.225291 L 609.465266 116.237243 L 609.640848 114.249337 L 609.817523 112.261528 L 609.995486 110.273834 L 610.174805 108.286262 L 610.355218 106.298789 L 610.536630 104.311407 L 610.719713 102.324177 L 610.903359 100.337000 L 611.089189 98.350026 L 611.277821 96.363316 L 611.467983 94.376752 L 611.662922 92.390651 L 611.859982 90.404760 L 612.063634 88.419534 L 612.273442 86.434949 L 612.488215 84.450895 L 612.711465 82.467777 L 612.939565 80.485211 L 613.171875 78.503134 L 613.410677 76.521829 L 613.665399 74.542510 L 613.928061 72.564226 L 614.194687 70.586473 L 614.469333 68.609818 L 614.746291 66.633485 L 615.029448 64.658031 L 615.309048 62.682070 L 615.583536 60.705392 L 615.852652 58.727976 L 616.107135 56.748627 L 616.354675 54.768395 L 616.584948 52.786084 L 616.798852 50.801940 L 617.000780 48.816540 L 617.184104 46.829339 L 617.353833 44.840928 L 617.509603 42.851375 L 617.648162 40.860553 L 617.772651 38.868799 L 617.879608 36.876031 L 617.966225 34.882280 L 618.034401 32.887810 L 618.080865 30.892726 L 618.104643 28.897244 L 618.113297 26.901626 L 618.094674 24.906122 L 618.075061 22.910580 L 618.038032 20.915341 L 618.005640 18.920067 L 617.943604 16.925838 L 617.870914 14.935278 L 617.801419 12.941889 L 617.687026 10.949721 L 617.616177 8.955340 L 617.570271 6.961122 L 617.536279 4.966166 L 617.540894 2.970527" fill="none" stroke="black" stroke-width="2.000000" />
	<path d="M -0.392967 50.809653 L 1.522308 50.511461 L 3.393048 50.005107 L 5.211766 49.335738 L 7.000999 48.590470 L 8.741142 47.737403 L 10.383321 46.709997 L 11.964172 45.588906 L 13.496626 44.402368 L 14.996636 43.174847 L 16.472624 41.918488 L 17.926785 40.636923 L 19.360115 39.332098 L 20.775312 38.007606 L 22.173781 36.665460 L 23.554233 35.304806 L 24.916376 33.925817 L 26.260965 32.529702 L 27.586316 31.115333 L 28.893296 29.683945 L 30.187310 28.240795 L 31.468074 26.785899 L 32.732428 25.316720 L 33.987808 23.839824 L 35.245264 22.364700 L 36.505281 20.891758 L 37.767581 19.420776 L 39.030470 17.950296 L 40.304128 16.489197 L 41.594451 15.042756 L 42.905699 13.615324 L 44.247473 12.216611 L 45.634193 10.862652 L 47.053584 9.542696 L 48.546156 8.307004 L 50.125876 7.200601 L 51.812333 6.328628 L 53.586143 5.585905" fill="none" stroke="black" stroke-width="2.000000" />
	<path d="M 617.540894 2.970527 L 616.305203 4.468416 L 615.074312 5.970252 L 613.844236 7.472756 L 612.615922 8.976701 L 611.399458 10.490244 L 610.187671 12.007537 L 609.002749 13.545885 L 607.834486 15.096934 L 606.680780 16.658839 L 605.558638 18.243552 L 604.459500 19.844319 L 603.384523 21.461407 L 602.340599 23.098699 L 601.323609 24.752864 L 600.312068 26.410388 L 599.303284 28.069592 L 598.287469 29.724499 L 597.262036 31.373462 L 596.230082 33.018355 L 595.175059 34.648518 L 594.122996 36.280621 L 593.050134 37.899098 L 591.958372 39.504901 L 590.855385 41.103027 L 589.736245 42.689870 L 588.602652 44.266427 L 587.451552 45.830237 L 586.286929 47.384014 L 585.107652 48.926693 L 583.914513 50.458678 L 582.708357 51.980437 L 581.488391 53.491144 L 580.258812 54.994048 L 579.019269 56.488741 L 577.770865 57.976044 L 576.514693 59.456794 L 575.250346 60.930568 L 573.979205 62.398489 L 572.700458 63.859786 L 571.414727 65.314945 L 570.120952 66.762952 L 568.818560 68.203213 L 567.507026 69.635153 L 566.185074 71.057477 L 564.853266 72.470579 L 563.511642 73.874364 L 562.160296 75.268794 L 560.799994 76.654489 L 559.431533 78.032130 L 558.055162 79.401868 L 556.675380 80.768179 L 555.290899 82.129724 L 553.913888 83.498812 L 552.533650 84.864656 L 551.156285 86.233401 L 549.782442 87.605683 L 548.402847 88.972181 L 547.082401 90.395898 L 545.766875 91.824021 L 544.494372 93.290706 L 543.252292 94.783226 L 542.018815 96.282579 L 540.780301 97.778104 L 539.539529 99.271261 L 538.252999 100.724274 L 536.943202 102.156635 L 535.597309 103.555997 L 534.239136 104.943764" fill="none" stroke="black" stroke-width="2.000000" />
	<path d="M 53.586143 5.585905 L 53.770072 7.553647 L 53.938990 9.522734 L 54.096588 11.492759 L 54.216650 13.465423 L 54.298797 15.440028 L 54.339654 17.415915 L 54.335652 19.392217 L 54.295115 21.368110 L 54.222114 23.343072 L 54.130865 25.317280 L 54.012247 27.290028 L 53.881044 29.261986 L 53.734503 31.232862 L 53.565783 33.201959 L 53.387495 35.170219 L 53.208368 37.138404 L 53.026490 39.106336 L 52.843559 41.074171 L 52.665449 43.042448 L 52.490045 45.010968 L 52.320381 46.979990 L 52.155220 48.949396 L 51.994270 50.919150 L 51.838234 52.889300 L 51.685920 54.859741 L 51.538227 56.830533 L 51.392785 58.801493 L 51.249278 60.772595 L 51.107264 62.743806 L 50.966085 64.715076 L 50.826215 66.686440 L 50.686273 68.657798 L 50.545800 70.629119 L 50.403126 72.600282 L 50.258207 74.571280 L 50.110002 76.542034 L 49.959952 78.512649 L 49.806323 80.482988 L 49.649545 82.453079 L 49.493707 84.423244 L 49.330775 86.392833 L 49.172413 88.362795 L 49.012024 90.332594 L 48.854923 92.302659 L 48.709321 94.273600 L 48.564704 96.244621 L 48.431794 98.216456 L 48.306829 100.188819 L 48.193153 102.161859 L 48.095905 104.135771 L 48.005247 106.110009 L 47.929758 108.084870 L 47.866390 110.060169 L 47.821229 112.035952 L 47.794593 114.012076 L 47.775757 115.988305 L 47.771061 117.964604 L 47.780829 119.940890 L 47.794167 121.917164 L 47.813716 123.893383 L 47.838153 125.869551 L 47.866550 127.845665 L 47.896649 129.821756 L 47.926943 131.797843 L 47.956549 133.773940 L 47.984528 135.750061 L 48.011566 137.726196 L 48.027554 139.702433 L 48.039357 141.678716 L 48.055219 143.654971 L 48.073158 145.631209 L 48.087261 147.607474 L 48.095998 149.583774 L 48.097710 151.560085 L 48.079289 153.536288 L 48.053695 155.512372 L 48.011831 157.488173 L 47.951844 159.463441 L 47.880574 161.438427 L 47.795254 163.412895 L 47.697648 165.386748 L 47.600486 167.360667 L 47.493610 169.334091" fill="none" stroke="black" stroke-width="2.000000" />
	<path d="M 26.636062 169.992381 L 27.132757 169.977881 L 27.629452 169.963380 L 28.126148 169.948879 L 28.622836 169.934166 L 29.119472 169.917737 L 29.616107 169.901309 L 30.112742 169.884880 L 30.609409 169.869591 L 31.106199 169.858824 L 31.602989 169.848057 L 32.099780 169.837289 L 32.596581 169.827102 L 33.093410 169.818291 L 33.590239 169.809481 L 34.087068 169.800670 L 34.583897 169.791885 L 35.080727 169.783140 L 35.577557 169.774395 L 36.074387 169.765650 L 36.571210 169.756517 L 37.068026 169.746975 L 37.564841 169.737433 L 38.061656 169.727891 L 38.558434 169.716651 L 39.055184 169.704180 L 39.551935 169.691710 L 40.048685 169.679240 L 40.545348 169.663803 L 41.041968 169.646909 L 41.538587 169.630015 L 42.035207 169.613121 L 42.531778 169.594872 L 43.028335 169.576213 L 43.524891 169.557554 L 44.021448 169.538895 L 44.517737 169.514227 L 45.013984 169.488633 L 45.510231 169.463040 L 46.006479 169.437447 L 46.502201 169.403186 L 46.997905 169.368635 L 47.493609 169.334084 L 47.989277 169.299055 L 48.484358 169.256504 L 48.979440 169.213952 L 49.474522 169.171401 L 49.969457 169.127326 L 50.463579 169.074787 L 50.957700 169.022249 L 51.451822 168.969710 L 51.945784 168.915749 L 52.439271 168.857547 L 52.932757 168.799345 L 53.426244 168.741143 L 53.919471 168.680853 L 54.412209 168.616617 L 54.904947 168.552381 L 55.397684 168.488146 L 55.890181 168.422121 L 56.382375 168.353842 L 56.874568 168.285563 L 57.366762 168.217285 L 57.858832 168.148130 L 58.350798 168.078225 L 58.842763 168.008319 L 59.334728 167.938414 L 59.827725 167.876469 L 60.321254 167.818624 L 60.814783 167.760780 L 61.308311 167.702935 L 61.801305 167.640743 L 62.294142 167.577276 L 62.786979 167.513809 L 63.279817 167.450342 L 63.773476 167.393683 L 64.267257 167.338037 L 64.761039 167.282391 L 65.254820 167.226745 L 65.749128 167.175996 L 66.243454 167.125414 L 66.737779 167.074832 L 67.232142 167.024630 L 67.727051 166.980117 L 68.221960 166.935604 L 68.716869 166.891090 L 69.211868 166.847651 L 69.707344 166.809977 L 70.202821 166.772303 L 70.698298 166.734628 L 71.193890 166.698619 L 71.689825 166.667550 L 72.185759 166.636482 L 72.681694 166.605414 L 73.177737 166.576232 L 73.673979 166.550537 L 74.170221 166.524843 L 74.666464 166.499149 L 75.162752 166.474387 L 75.659098 166.450786 L 76.155444 166.427185 L 76.651791 166.403584 L 77.148139 166.380035 L 77.644490 166.356532 L 78.140841 166.333029 L 78.637192 166.309526 L 79.133395 166.283180 L 79.629513 166.255195 L 80.125632 166.227210 L 80.621750 166.199225 L 81.117881 166.171471 L 81.614017 166.143803 L 82.110153 166.116136 L 82.606290 166.088469 L 83.102504 166.062246 L 83.598735 166.036344 L 84.094966 166.010442 L 84.591198 165.984540 L 85.087559 165.961267 L 85.583933 165.938256 L 86.576680 165.892233" fill="none" stroke="black" stroke-width="2.000000" />
	<path d="M 165.554764 166.911087 L 166.740503 165.341353 L 167.974979 163.815110 L 169.350325 162.414517 L 170.833442 161.132991 L 172.430658 159.996834 L 174.141986 159.049979 L 175.929752 158.248218 L 177.772654 157.560008 L 179.694513 157.131176 L 181.642834 156.844779 L 183.605406 156.712852 L 185.571938 156.825849 L 187.535849 156.976060 L 189.493982 157.189622 L 191.446143 157.451147 L 193.387414 157.784589 L 195.319938 158.165990 L 197.248468 158.566859 L 199.169980 159.000380 L 201.090688 159.437369 L 203.007367 159.891769 L 204.925672 160.339269 L 206.843950 160.786866 L 208.764498 161.224623 L 210.687426 161.651796 L 212.613199 162.065938 L 214.542286 162.464364 L 216.474536 162.847141 L 218.410326 163.211567 L 220.349929 163.555185 L 222.291957 163.884712 L 224.238212 164.188390 L 226.186792 164.476646 L 228.139346 164.736733 L 230.094491 164.976472 L 232.052784 165.189072 L 234.013189 165.381165 L 235.975955 165.547418 L 237.940695 165.688402 L 239.907223 165.801732 L 241.875243 165.885205 L 243.844319 165.938046 L 245.814024 165.956431 L 247.783769 165.943403 L 249.753001 165.896487 L 251.721186 165.817139 L 253.687411 165.698739 L 255.650999 165.542786 L 257.609986 165.336997 L 259.562508 165.076970 L 261.506165 164.757475 L 263.436642 164.366155 L 265.350669 163.901005 L 267.243876 163.357422 L 269.107005 162.718087 L 270.948364 162.018635 L 272.754124 161.231747 L 274.527151 160.373801 L 276.241511 159.403856 L 277.896182 158.335325 L 279.468651 157.148981 L 280.999951 155.909953 L 282.484566 154.615324 L 283.954359 153.303954 L 285.319887 151.884278 L 286.699348 150.478136" fill="none" stroke="black" stroke-width="2.000000" />
	<path d="M 189.587197 42.065553 L 191.272907 41.005289 L 193.012397 40.035786 L 194.808959 39.176660 L 196.725751 38.637071 L 198.709250 38.806033 L 200.618129 39.372463 L 202.526796 39.940589 L 204.308051 40.808917 L 205.286451 42.542944 L 206.050391 44.381561 L 206.583916 46.299910 L 206.936985 48.259614 L 207.129774 50.240045 L 206.842085 52.209229 L 206.131649 54.069019 L 205.158398 55.805657 L 203.925586 57.369166 L 202.525743 58.785474 L 201.050333 60.122349 L 199.415833 61.259398 L 197.661921 62.201603 L 195.799093 62.905294 L 193.892457 63.479700 L 191.946837 63.902947 L 189.965811 64.104799 L 187.975158 64.148377 L 185.992740 63.961383 L 184.037758 63.583310 L 182.131881 63.007090 L 180.316189 62.189746 L 178.603021 61.175373 L 177.066980 59.908305 L 175.678538 58.481039 L 174.462543 56.904274 L 173.440761 55.194970 L 172.452146 53.466623 L 171.732383 51.610626 L 171.465098 49.639707 L 171.971440 47.713730 L 172.499975 45.793723 L 173.025404 43.872898 L 173.454162 41.928185 L 173.937041 39.996237 L 174.545594 38.100114 L 175.277289 36.248020 L 176.132569 34.449636 L 177.088176 32.702494 L 178.151684 31.018847 L 179.312206 29.400536 L 180.557604 27.846593 L 181.886369 26.363300 L 183.283953 24.944661 L 184.750152 23.597059 L 186.279409 22.321469 L 187.863345 21.114449 L 189.498801 19.978218 L 191.180510 18.911639 L 192.907149 17.919451 L 194.673603 17.000017 L 196.478699 16.158990 L 198.316770 15.392705 L 200.181704 14.694327 L 202.078983 14.089374 L 203.995204 13.547333 L 205.931417 13.081767 L 207.878856 12.665577 L 209.831819 12.276091 L 211.798872 11.965704 L 213.770593 11.686284 L 215.749162 11.460515 L 217.731881 11.274592 L 219.716796 11.113745 L 221.705266 11.005634 L 223.695481 10.936498 L 225.686700 10.908705 L 227.677704 10.947863 L 229.666418 11.051104 L 231.648443 11.243651 L 233.616828 11.544995 L 235.573508 11.915146 L 237.468405 12.525613 L 239.319004 13.260769 L 241.102249 14.146620 L 242.783641 15.212903 L 244.397202 16.379795 L 245.857750 17.732580 L 247.201547 19.201892 L 248.394221 20.796130 L 249.429786 22.496652 L 250.332918 24.271223 L 251.070945 26.120418 L 251.692056 28.012319 L 252.182344 29.942207 L 252.539023 31.901190 L 252.809604 33.874054 L 253.005326 35.855764 L 253.134305 37.842948 L 253.223318 39.832363 L 253.260300 41.823406 L 253.217769 43.814281 L 253.116458 45.803079 L 252.951207 47.787573 L 252.703142 49.763375 L 252.401829 51.731831 L 252.029721 53.688095 L 251.598542 55.632221 L 251.126355 57.566829 L 250.608802 59.489786 L 250.044028 61.399403 L 249.450020 63.300159 L 248.829077 65.192287 L 248.169353 67.071226 L 247.493683 68.944521 L 246.780117 70.803677 L 246.058054 72.659586 L 245.318567 74.508615 L 244.544409 76.343372 L 243.763475 78.175289 L 242.954797 79.995104 L 242.134140 81.809571 L 241.298125 83.617009 L 240.440980 85.414516 L 239.570671 87.205695 L 238.680633 88.987145 L 237.774776 90.760609 L 236.852795 92.525743 L 235.912027 94.280932 L 234.957065 96.028446 L 233.984365 97.766143 L 232.996489 99.495262 L 231.993883 101.215881 L 230.975159 102.927005 L 229.943286 104.630235 L 228.896751 106.324494 L 227.836710 108.010337 L 226.763744 109.687983 L 225.677310 111.356938 L 224.578667 113.017884 L 223.467561 114.670517 L 222.344436 116.315007 L 221.209769 117.951554 L 220.063653 119.580104 L 218.906374 121.200740 L 217.738382 122.813674 L 216.559844 124.418917 L 215.371228 126.016713 L 214.173019 127.607328 L 212.965873 129.191173 L 211.751389 130.769399 L 210.529176 132.341646 L 209.300390 133.908763 L 208.067341 135.472529 L 206.823895 137.028033 L 205.577730 138.581369 L 204.323324 140.128051 L 203.060989 141.668270 L 201.796293 143.206555 L 200.517678 144.733273 L 199.235191 146.256757 L 197.943239 147.772215 L 196.641737 149.279481 L 195.328993 150.776917 L 194.013304 152.271686 L 192.673080 153.744438 L 191.323884 155.208806 L 189.949051 156.649311 L 188.547897 158.063698 L 187.121113 159.451884 L 185.638465 160.779148 L 184.109933 162.050696 L 182.518469 163.243344 L 180.845739 164.313989 L 179.114855 165.282375 L 177.288542 166.050370 L 175.409056 166.667333 L 173.466503 167.052035 L 171.497412 167.256692 L 169.513222 167.276286 L 167.532719 167.129181 L 165.554764 166.911087" fill="none" stroke="black" stroke-width="2.000000" />
	<path d="M 406.627572 140.133027 L 405.609288 138.437388 L 404.643321 136.711416 L 403.602417 135.029600 L 402.469295 133.408528 L 401.205680 131.887137 L 399.805134 130.490928 L 398.263753 129.252200 L 396.605752 128.174554 L 394.845066 127.274618 L 393.003611 126.554259 L 391.095791 126.035171 L 389.141158 125.738610 L 387.168987 125.593521 L 385.194871 125.693213 L 383.236859 125.968676 L 381.311078 126.416672 L 379.447322 127.075315 L 377.629849 127.854737 L 375.895166 128.802875 L 374.249499 129.898666 L 372.701825 131.128979 L 371.267437 132.489518 L 369.952330 133.965743 L 368.728872 135.519330 L 367.548708 137.106479 L 366.475584 138.767082 L 365.550014 140.513811 L 364.760524 142.326460 L 364.106271 144.192177 L 363.596233 146.102259 L 363.305225 148.056318 L 363.240494 150.031144 L 363.302594 152.007629 L 363.502347 153.974500 L 363.856871 155.919259 L 364.364212 157.829874 L 365.032121 159.690178 L 365.860421 161.484762 L 366.833494 163.205385 L 367.940242 164.843246 L 369.175051 166.386766 L 370.531664 167.824332 L 371.996520 169.151636 L 373.575431 170.339869 L 375.278497 171.339925 L 377.052688 172.212771 L 378.859958 173.015896 L 380.710163 173.712277 L 382.598696 174.297925 L 384.516975 174.777123 L 386.458424 175.151895 L 388.416125 175.430343 L 390.384717 175.617075 L 392.359602 175.719138 L 394.337022 175.745380 L 396.314142 175.700900 L 398.288656 175.589585 L 400.258610 175.415032 L 402.222536 175.181960 L 404.179096 174.893450 L 406.126916 174.550839 L 408.064901 174.156303 L 409.991933 173.711331 L 411.906460 173.215359 L 413.807366 172.669450 L 415.693611 172.074860 L 417.562438 171.427768 L 419.410936 170.724740 L 421.238135 169.967999 L 423.043086 169.159639 L 424.823825 168.299282 L 426.577161 167.384461 L 428.301137 166.415396 L 429.994217 165.393343 L 431.651465 164.314308 L 433.277078 163.187809 L 434.863230 162.007057 L 436.408520 160.772696 L 437.921450 159.498989 L 439.358211 158.142358 L 440.722038 156.709968 L 442.034707 155.231383 L 443.273113 153.689812 L 444.444713 152.096741 L 445.533884 150.446931 L 446.527650 148.737503 L 447.430467 146.978550 L 448.236613 145.173108 L 448.950132 143.329037 L 449.568261 141.450941 L 450.084324 139.542298 L 450.498556 137.608901 L 450.802464 135.655526 L 450.987044 133.686963 L 451.076559 131.711449 L 451.067102 129.734661 L 450.947830 127.760652 L 450.744389 125.793961 L 450.434284 123.841171 L 450.021908 121.907382 L 449.486439 120.005092 L 448.823687 118.141775 L 448.074377 116.312739 L 447.206088 114.536065 L 446.270539 112.793616 L 445.241215 111.107883 L 444.092432 109.497896 L 442.927598 107.901038 L 441.651797 106.390314 L 440.311968 104.935498 L 438.918724 103.533127 L 437.452269 102.205874 L 435.970651 100.896119 L 434.438246 99.645857 L 432.873294 98.436394 L 431.285185 97.257637 L 429.668854 96.117733 L 428.034259 95.004186 L 426.381099 93.918380 L 424.710747 92.859202 L 423.024389 91.825697 L 421.321858 90.819077 L 419.601851 89.842614 L 417.864980 88.896485 L 416.110159 87.984115 L 414.325314 87.132323 L 412.528550 86.307431 L 410.708544 85.536083 L 408.863276 84.828266 L 406.989510 84.202592 L 405.089186 83.665529 L 403.161413 83.240486 L 401.212267 82.932372 L 399.247289 82.753572 L 397.276514 82.731550 L 395.307520 82.837235 L 393.349560 83.090709 L 391.422718 83.505700 L 389.476556 83.856895 L 387.555054 84.309418" fill="none" stroke="black" stroke-width="2.000000" />
	<path d="M 387.555054 84.309418 L 389.231613 85.386127 L 390.929923 86.426903 L 392.666960 87.395428 L 394.464344 88.235703 L 396.329613 88.898710 L 398.256340 89.311148 L 400.218021 89.486114 L 402.199610 89.432357 L 404.157032 89.131648 L 406.089606 88.691346 L 407.982974 88.083490 L 409.855923 87.407304 L 411.669646 86.582606 L 413.453360 85.695990 L 415.191211 84.721321 L 416.923172 83.736257 L 418.648415 82.741643 L 420.302411 81.630790 L 421.918609 80.466235 L 423.473659 79.220968 L 424.981242 77.918174 L 426.458231 76.581500 L 427.868287 75.173886 L 429.232681 73.722164 L 430.535492 72.214951 L 431.773803 70.654261 L 432.950175 69.046309 L 434.064838 67.395103 L 435.106814 65.697022 L 436.080311 63.958760 L 436.982218 62.182418 L 437.802148 60.366649 L 438.546127 58.518688 L 439.189884 56.633452 L 439.731906 54.716529 L 440.165158 52.772175 L 440.484553 50.805856 L 440.705620 48.825675 L 440.844860 46.841019 L 440.722984 44.852558 L 440.518147 42.870577 L 440.277628 40.894907 L 439.803000 38.960123 L 439.216183 37.056830 L 438.481355 35.205356 L 437.624000 33.407290 L 436.650746 31.669228 L 435.565986 29.998360 L 434.383434 28.395182 L 433.109284 26.863767 L 431.749089 25.408224 L 430.307795 24.032917 L 428.790879 22.741489 L 427.203193 21.538087 L 425.551705 20.423789 L 423.844187 19.397338 L 422.087897 18.456737 L 420.288071 17.602342 L 418.450388 16.832610 L 416.581808 16.141421 L 414.682175 15.540457 L 412.762434 15.007100 L 410.826286 14.537265 L 408.870147 14.158344 L 406.905165 13.830463 L 404.922545 13.631945 L 402.938179 13.451906 L 400.950739 13.317923 L 398.958570 13.355593 L 396.968108 13.433371 L 394.991779 13.686735 L 393.021897 13.986323 L 391.056426 14.312316 L 389.116029 14.763069 L 387.226392 15.393642 L 385.407720 16.205254 L 383.719837 17.262537 L 382.191443 18.538398 L 380.921446 20.071987 L 379.931558 21.799016 L 379.310549 23.690882 L 379.016134 25.660644 L 379.003893 27.651637 L 379.353239 29.612892 L 379.897941 31.528903 L 380.676514 33.362523 L 381.660039 35.094813 L 382.852063 36.690932 L 384.225332 38.134094 L 385.764673 39.398540 L 387.460831 40.443263 L 389.287886 41.236942 L 391.217660 41.731851 L 393.194807 41.976319 L 395.186409 41.941919 L 397.134363 41.524162 L 399.005898 40.840765 L 400.795913 39.965799 L 402.474413 38.892301 L 403.995001 37.604668 L 405.456804 36.250657" fill="none" stroke="black" stroke-width="2.000000" />
	<path d="M 537.660950 101.679543 L 539.597774 102.113877 L 541.535981 102.541981 L 543.477125 102.955863 L 545.421745 103.352859 L 547.373799 103.710801 L 549.332848 104.024355 L 551.299092 104.288613 L 553.273123 104.485928 L 555.250350 104.656606 L 557.233100 104.747826 L 559.217492 104.791195 L 561.202392 104.795699 L 563.187178 104.774325 L 565.171594 104.729360 L 567.155749 104.674334 L 569.139501 104.606009 L 571.123237 104.537291 L 573.106746 104.462235 L 575.090263 104.387387 L 577.073735 104.311473 L 579.056988 104.230156 L 581.040664 104.159695 L 583.024177 104.084851 L 585.007999 104.018589 L 586.991837 103.952976 L 588.975409 103.879842 L 590.959220 103.814239 L 592.942211 103.726966 L 594.925774 103.654076 L 596.908369 103.557856 L 598.890785 103.458131 L 600.872516 103.345585 L 602.853592 103.222008 L 604.834216 103.091397 L 606.814145 102.950662 L 608.793230 102.798525 L 610.771314 102.633912 L 612.748149 102.454878 L 614.724035 102.265638 L 616.699822 102.075369 L 618.676454 101.894121 L 620.654119 101.724514 L 622.632834 101.567621 L 624.612439 101.422392 L 626.592749 101.287077 L 628.573551 101.159165 L 630.554673 101.036299 L 632.535879 100.914786 L 634.516991 100.791774 L 636.497802 100.664003 L 638.478085 100.528307 L 640.457587 100.381690 L 642.435966 100.220638 L 644.412858 100.042279 L 646.387736 99.842883 L 648.359892 99.618173 L 650.328556 99.364740 L 652.292187 99.074899 L 654.249717 98.746248 L 656.205384 98.406783 L 658.153868 98.028270 L 660.093318 97.606050 L 662.016261 97.114005 L 663.922924 96.562606 L 665.790405 95.890010 L 667.640006 95.169714 L 669.468226 94.396767 L 671.322276 93.687950 L 673.164538 92.949030 L 674.996028 92.183856 L 676.790622 91.335761 L 678.634861 90.601841 L 680.529605 90.010328" fill="none" stroke="black" stroke-width="2.000000" />
	<path d="M 848.027438 15.020635 L 846.222478 15.828472 L 844.391888 16.576410 L 842.552396 17.302182 L 840.711837 18.025249 L 838.856941 18.710686 L 836.999666 19.389664 L 835.140563 20.063618 L 833.269896 20.704760 L 831.382180 21.293774 L 829.480215 21.835020 L 827.554849 22.285783 L 825.614208 22.665557 L 823.666861 23.009472 L 821.713213 23.315556 L 819.750180 23.553857 L 817.781219 23.737013 L 815.808833 23.878784 L 813.833667 23.974159 L 811.856486 24.006194 L 809.879182 23.982041 L 807.903064 23.909192 L 805.929502 23.785176 L 803.962094 23.586591 L 802.004896 23.304776 L 800.062765 22.933169 L 798.130935 22.510825 L 796.222390 21.993746 L 794.348227 21.363472 L 792.501228 20.657233 L 790.698625 19.844530 L 788.942309 18.936026 L 787.226715 17.952684 L 785.561344 16.886512 L 783.933235 15.764181 L 782.347978 14.582099 L 780.789920 13.364355 L 779.271829 12.097225 L 777.764697 10.817380 L 776.272908 9.519536 L 774.803933 8.195938 L 773.340576 6.865993" fill="none" stroke="black" stroke-width="2.000000" />
	<path d="M 784.549843 128.286672 L 783.652344 130.067331 L 783.069899 131.974374 L 782.902809 133.961266 L 783.225738 135.928708 L 784.036752 137.749972 L 785.199935 139.369296 L 786.460848 140.914040 L 788.013916 142.164276 L 789.825270 142.997365 L 791.759603 143.481726 L 793.726897 143.807290 L 795.720805 143.790177 L 797.645491 143.270040 L 799.348933 142.234690 L 800.719553 140.787484 L 801.684080 139.042226 L 802.619091 137.281381 L 803.200035 135.373923 L 803.595363 133.419569 L 803.750683 131.432105 L 803.520314 129.451500 L 803.120805 127.497952 L 802.569107 125.581882 L 801.804906 123.740311 L 800.808115 122.013275 L 799.788624 120.299638 L 798.614222 118.688155 L 797.332397 117.160763 L 795.909116 115.764242 L 794.341290 114.532126 L 792.694457 113.407811 L 790.929394 112.480017 L 789.117097 111.648254 L 787.224645 111.019912 L 785.292733 110.526042 L 783.327848 110.186393 L 781.334774 110.128003 L 779.343163 110.225730 L 777.363203 110.462026 L 775.403651 110.831098 L 773.476178 111.341826 L 771.594475 112.001461 L 769.770776 112.807691 L 768.016756 113.755987 L 766.383523 114.899615 L 764.820014 116.137135 L 763.379386 117.515599 L 762.046255 118.998357 L 760.810021 120.562852 L 759.698619 122.218297 L 758.721775 123.956527 L 757.853375 125.751456 L 757.164701 127.622546 L 756.575724 129.527560 L 756.129492 131.470885 L 755.886009 133.449705 L 755.708328 135.435798 L 755.728054 137.429439 L 755.919754 139.414026 L 756.221564 141.385010 L 756.620797 143.338605 L 757.116028 145.270096 L 757.729178 147.167394 L 758.456656 149.023860 L 759.290041 150.835269 L 760.233139 152.592028 L 761.270534 154.294841 L 762.406957 155.933188 L 763.631541 157.506755 L 764.942028 159.009519 L 766.336015 160.435153 L 767.810984 161.776811 L 769.363815 163.027507 L 770.991593 164.178933 L 772.691637 165.220650 L 774.449841 166.160985 L 776.265122 166.985639 L 778.126251 167.700933 L 780.023594 168.313836 L 781.955115 168.808348 L 783.903977 169.230096 L 785.873555 169.540174 L 787.854209 169.770085 L 789.842628 169.918385 L 791.836010 169.962063 L 793.830026 169.957632 L 795.822058 169.870791 L 797.809762 169.712900 L 799.791338 169.490855 L 801.764449 169.203183 L 803.725436 168.842144 L 805.676232 168.429296 L 807.608576 167.937625 L 809.527674 167.396214 L 811.434653 166.813519 L 813.330021 166.194077 L 815.186213 165.466391 L 817.022387 164.688875 L 818.846693 163.883836 L 820.634553 163.001191 L 822.388342 162.052506 L 824.134139 161.088953 L 825.812016 160.012373 L 827.416308 158.828744 L 828.958216 157.564683 L 830.442497 156.233355 L 831.864549 154.835781 L 833.230258 153.383023 L 834.537315 151.877291 L 835.787718 150.324163 L 836.980645 148.726465 L 838.112205 147.084750 L 839.185436 145.404295 L 840.198376 143.686835 L 841.151396 141.935406 L 842.047699 140.154267 L 842.887472 138.345786 L 843.671439 136.512419 L 844.401240 134.656816 L 845.075450 132.780306 L 845.695898 130.885331 L 846.260621 128.973018 L 846.768397 127.044805 L 847.217742 125.102150 L 847.601328 123.145480 L 847.921149 121.177367 L 848.178031 119.200053 L 848.361237 117.214611 L 848.491499 115.224893 L 848.555219 113.232009 L 848.538974 111.238233 L 848.429480 109.247479 L 848.221829 107.264584 L 847.926779 105.292723 L 847.545640 103.335689 L 847.079797 101.397067 L 846.526357 99.481643 L 845.933977 97.577646 L 845.297627 95.687941 L 844.573365 93.830449 L 843.753041 92.013357 L 842.839024 90.241540 L 841.841057 88.515538 L 840.754511 86.843982 L 839.574824 85.236894 L 838.279305 83.722141 L 836.882196 82.300248 L 835.444224 80.918858 L 833.934901 79.616508 L 832.353051 78.403197 L 830.711005 77.272499 L 829.009992 76.232778 L 827.256697 75.283766 L 825.460700 74.418089 L 823.625428 73.639215 L 821.745712 72.975602 L 819.829080 72.427311 L 817.890311 71.962022 L 815.936759 71.562994 L 813.965739 71.263875 L 811.987194 71.016122 L 810.000339 70.850925 L 808.007346 70.817799 L 806.013463 70.839986 L 804.021027 70.916736 L 802.031010 71.042202 L 800.045648 71.226508 L 798.071703 71.505867 L 796.104546 71.832012 L 794.147946 72.215773 L 792.211385 72.689453 L 790.287537 73.213665 L 788.366765 73.749278 L 786.458048 74.325979 L 784.508794 74.735360 L 782.529200 74.965067 L 780.544685 75.159875 L 778.560089 75.353853 L 776.575421 75.547102 L 774.831831 74.743688 L 773.319013 73.450504 L 772.092706 71.885888 L 771.177635 70.119645 L 770.374780 68.294590 L 769.874409 66.369550 L 769.605261 64.395345 L 769.454833 62.407347 L 769.384247 60.414754 L 769.377161 58.420851 L 769.425557 56.427494 L 769.516967 54.435598 L 769.653453 52.446300 L 769.827739 50.459925 L 770.051590 48.478589 L 770.287253 46.498775 L 770.549987 44.522240 L 770.828139 42.547738 L 771.118153 40.574896 L 771.410739 38.602425 L 771.702667 36.629860 L 771.989255 34.656522 L 772.267699 32.682029 L 772.532431 30.705687 L 772.785643 28.727838 L 772.999844 26.745811 L 773.202963 24.762474 L 773.380900 22.776433 L 773.540681 20.788842 L 773.695048 18.800945 L 773.777072 16.809778 L 773.837055 14.818251 L 773.791746 12.825974 L 773.707812 10.835176 L 773.537390 8.849630 L 773.340576 6.865993" fill="none" stroke="black" stroke-width="2.000000" />
</svg>