<?xml version="1.0" encoding="utf-8" ?>
<svg baseProfile="full" height="180" version="1.1" viewBox="0,0,854,180" width="854" xmlns="http://www.w3.org/2000/svg" xmlns:ev="http://www.w3.org/2001/xml-events" xmlns:xlink="http://www.w3.org/1999/xlink"><defs><style type="text/css"><![CDATA[
	.background { fill: white; }
	.line { stroke: firebrick; stroke-width: .1mm; }
	.blacksquare { fill: indigo; }
	.whitesquare { fill: white; }
]]></style></defs><path d="M 0.000000 51.100000 L 2.926313 51.187486 L 5.728997 50.886170 L 8.415014 50.224717 L 10.991327 49.231791 L 13.464899 47.936058 L 15.842693 46.366182 L 18.131671 44.550828 L 20.338796 42.518662 L 22.471030 40.298347 L 24.535338 37.918549 L 26.538680 35.407933 L 28.488021 32.795164 L 30.390323 30.108906 L 32.252548 27.377824 L 34.081660 24.630583 L 35.884621 21.895848 L 37.668394 19.202284 L 39.439941 16.578556 L 41.206226 14.053329 L 42.974211 11.655267 L 44.750859 9.413035 L 46.543133 7.355299 L 48.357995 5.510722 L 50.165986 5.376558 L 51.341027 8.265054 L 51.805457 11.045489 L 51.749881 13.811784 L 51.364902 16.657860 L 50.841122 19.677638 L 50.392336 22.823553 L 50.069775 25.781828 L 49.778008 28.756706 L 49.515745 31.745607 L 49.281696 34.745950 L 49.074570 37.755154 L 48.893076 40.770640 L 48.735925 43.789825 L 48.601826 46.810131 L 48.489489 49.828974 L 48.397624 52.843776 L 48.324939 55.851956 L 48.270146 58.850932 L 48.231953 61.838124 L 48.209069 64.810951 L 48.200206 67.766833 L 48.181694 70.760196 L 48.112530 73.760888 L 47.996734 76.758195 L 47.839453 79.752506 L 47.645834 82.744213 L 47.421026 85.733707 L 47.170176 88.721378 L 46.898431 91.707618 L 46.610940 94.692818 L 46.312850 97.677369 L 46.009309 100.661661 L 45.705464 103.646086 L 45.406463 106.631034 L 45.117454 109.616896 L 44.843585 112.604064 L 44.590002 115.592929 L 44.361855 118.583881 L 44.164289 121.577311 L 44.002454 124.573610 L 43.881497 127.573170 L 43.806565 130.576381 L 43.778187 133.482094 L 43.709432 136.428094 L 43.613191 139.423327 L 43.509578 142.455503 L 43.418703 145.512331 L 43.360681 148.581520 L 43.355621 151.650780 L 43.423637 154.707820 L 43.584840 157.740349 L 43.859343 160.736077 L 44.267257 163.682712 L 44.828695 166.567965 L 45.563769 169.379544 L 45.300000 167.499998" fill="none" stroke="black" stroke-width="2.0" /><path d="M 7.900000 46.100000 L 9.290494 43.705869 L 11.331214 41.581118 L 13.764374 39.639818 L 16.332194 37.796043 L 18.776888 35.963865 L 20.997792 34.001945 L 23.208597 31.919188 L 25.367555 29.800077 L 27.484601 27.653016 L 29.569668 25.486413 L 31.632690 23.308672 L 33.683603 21.128200 L 35.732339 18.953402 L 37.788833 16.792684 L 39.863019 14.654451 L 41.964831 12.547111 L 44.104203 10.479067 L 47.026102 7.865638 L 49.724498 5.782589 L 52.057957 4.553745 L 54.030229 4.375985 L 55.645064 5.446188 L 56.906213 7.961233 L 57.810127 12.066215 L 58.138489 14.916083 L 58.282264 17.821815 L 58.265027 20.773795 L 58.110357 23.762406 L 57.841830 26.778031 L 57.483024 29.811054 L 57.057515 32.851856 L 56.588880 35.890821 L 56.100698 38.918332 L 55.616545 41.924772 L 55.159998 44.900524 L 54.754634 47.835972 L 54.386743 50.821538 L 54.020714 53.856564 L 53.670524 56.873333 L 53.336885 59.874291 L 53.020510 62.861885 L 52.722114 65.838559 L 52.442409 68.806760 L 52.182110 71.768935 L 51.941928 74.727528 L 51.722579 77.684986 L 51.524774 80.643755 L 51.349228 83.606281 L 51.196654 86.575010 L 51.067765 89.552387 L 50.963275 92.540859 L 50.883898 95.542872 L 50.830346 98.560871 L 50.803332 101.597303 L 50.812192 104.635325 L 50.902088 107.647492 L 51.067310 110.645429 L 51.293423 113.632083 L 51.565994 116.610399 L 51.870586 119.583322 L 52.192766 122.553800 L 52.518099 125.524777 L 52.832150 128.499200 L 53.120484 131.480014 L 53.368667 134.470165 L 53.562265 137.472600 L 53.686841 140.490263 L 53.726511 143.264738 L 53.807089 146.198481 L 53.904530 149.297068 L 53.980367 152.491575 L 53.996129 155.713077 L 53.913346 158.892651 L 53.693550 161.961370 L 53.298270 164.850311 L 52.689038 167.490550 L 51.072861 166.746130 L 51.000000 165.799998" fill="none" stroke="black" stroke-width="2.0" /><path d="M 17.200000 39.700000 L 19.256628 37.534097 L 21.491603 35.546541 L 23.836323 33.668731 L 26.222187 31.832064 L 28.580592 29.967939 L 30.804344 28.013758 L 32.965889 25.970190 L 35.118306 23.860677 L 37.266822 21.706886 L 39.416669 19.530481 L 41.573076 17.353131 L 43.741273 15.196501 L 45.926489 13.082257 L 48.133955 11.032066 L 50.368900 9.067593 L 52.636554 7.210506 L 54.942146 5.482469 L 55.194130 7.976770 L 55.173529 10.982273 L 55.138149 13.983289 L 55.088032 16.980178 L 55.023221 19.973300 L 54.943758 22.963015 L 54.849686 25.949685 L 54.741046 28.933669 L 54.617882 31.915327 L 54.480235 34.895021 L 54.328149 37.873111 L 54.161665 40.849956 L 53.980826 43.825918 L 53.785674 46.801357 L 53.576251 49.776633 L 53.352601 52.752106 L 53.114765 55.728137 L 52.862786 58.705087 L 52.596707 61.683315 L 52.316569 64.663183 L 52.022415 67.645050 L 51.714288 70.629277 L 51.392229 73.616224 L 51.056282 76.606252 L 50.706488 79.599721 L 50.342890 82.596991 L 49.965531 85.598423 L 49.574453 88.604378 L 49.169698 91.615215 L 48.751309 94.631295 L 48.335220 97.641183 L 47.979275 100.636101 L 47.678535 103.631019 L 47.428395 106.625937 L 47.224253 109.620854 L 47.061504 112.615772 L 46.935545 115.610690 L 46.841772 118.605607 L 46.775583 121.600525 L 46.732372 124.595443 L 46.707537 127.590361 L 46.696474 130.585278 L 46.694580 133.580196 L 46.697251 136.575114 L 46.699883 139.570031 L 46.774262 142.373740 L 47.025962 145.366425 L 47.357196 148.530564 L 47.664028 151.762222 L 47.842520 154.957460 L 47.788733 158.012340 L 47.398730 160.822924 L 46.700000 162.999998" fill="none" stroke="black" stroke-width="2.0" /><path d="M 26.600000 167.799998 L 29.591204 167.775813 L 32.583700 167.706807 L 35.577348 167.598298 L 38.572010 167.455608 L 41.567544 167.284057 L 44.563810 167.088966 L 47.560670 166.875655 L 50.557981 166.649444 L 53.555606 166.415653 L 56.553402 166.179604 L 59.551232 165.946617 L 62.548954 165.722012 L 65.546428 165.511109 L 68.543515 165.319229 L 71.540075 165.151693 L 74.535966 165.013820 L 77.531051 164.910932 L 80.525188 164.848348 L 83.518237 164.831389 L 86.510059 164.865376 L 86.288890 164.899998 L 84.999999 164.899998" fill="none" stroke="black" stroke-width="2.0" /><path d="M 30.300000 169.799998 L 33.184684 170.476711 L 36.095068 171.041674 L 39.029708 171.498497 L 41.987162 171.850786 L 44.965985 172.102151 L 47.964735 172.256199 L 50.981968 172.316539 L 54.016241 172.286779 L 57.066111 172.170527 L 60.084062 171.965381 L 63.068138 171.704198 L 66.047049 171.404289 L 69.022733 171.072438 L 71.997128 170.715428 L 74.972174 170.340044 L 77.949807 169.953068 L 80.931967 169.561284 L 83.944277 169.146393 L 85.392237 169.138629 L 84.899999 169.199998" fill="none" stroke="black" stroke-width="2.0" /><path d="M 27.400000 171.899998 L 28.278041 171.855860 L 31.311330 171.602912 L 34.263452 171.209035 L 37.163814 170.687953 L 40.041821 170.053387 L 42.926882 169.319063 L 45.848402 168.498702 L 48.585735 167.719823 L 51.297433 166.858400 L 54.180303 165.865389 L 57.183427 164.834370 L 60.255886 163.858924 L 63.346761 163.032629 L 66.405135 162.449067 L 69.380088 162.201817 L 72.220703 162.384458 L 74.876060 163.090572 L 74.900000 163.099998" fill="none" stroke="black" stroke-width="2.0" /><path d="M 190.600001 42.600000 L 192.208926 40.351884 L 194.500575 39.096007 L 197.221005 38.750866 L 200.116273 39.234959 L 202.932436 40.466784 L 205.415551 42.364840 L 207.311676 44.847624 L 208.366866 47.833634 L 208.345427 51.162132 L 207.489783 53.918920 L 205.981484 56.369836 L 203.940053 58.516443 L 201.485013 60.360303 L 198.735887 61.902979 L 195.812196 63.146032 L 192.833465 64.091026 L 189.919214 64.739522 L 187.188968 65.093084 L 183.910737 64.967922 L 180.963822 64.249178 L 178.378270 63.002345 L 176.153579 61.292203 L 174.289248 59.183531 L 172.784774 56.741111 L 171.639655 54.029723 L 170.853389 51.114148 L 170.425473 48.059166 L 170.355406 44.929557 L 170.641234 41.726710 L 171.248963 38.555862 L 172.150519 35.587048 L 173.326522 32.815879 L 174.757593 30.237968 L 176.424349 27.848927 L 178.307412 25.644366 L 180.387400 23.619899 L 182.644932 21.771137 L 185.060630 20.093693 L 187.615111 18.583178 L 190.288996 17.235204 L 193.062904 16.045383 L 195.917454 15.009327 L 198.833267 14.122648 L 201.790961 13.380959 L 204.771156 12.779871 L 207.754472 12.314995 L 210.721528 11.981945 L 213.652944 11.776331 L 216.549930 11.698001 L 219.543677 11.630992 L 222.578011 11.507791 L 225.630640 11.381478 L 228.679277 11.305137 L 231.701634 11.331850 L 234.675421 11.514699 L 237.578349 11.906766 L 240.388130 12.561133 L 243.082476 13.530884 L 245.639097 14.869100 L 248.035704 16.628864 L 250.250010 18.863258 L 252.159945 21.404266 L 253.654894 23.963112 L 254.825092 26.649400 L 255.693979 29.445421 L 256.284993 32.333465 L 256.621574 35.295823 L 256.727161 38.314785 L 256.625192 41.372641 L 256.339107 44.451683 L 255.892344 47.534200 L 255.308344 50.602483 L 254.610545 53.638822 L 253.822387 56.625508 L 252.967307 59.544832 L 252.068746 62.379083 L 251.150143 65.110553 L 250.234936 67.721531 L 249.297804 70.369347 L 248.307143 73.052058 L 247.266049 75.748592 L 246.175630 78.456446 L 245.036995 81.173116 L 243.851252 83.896099 L 242.619511 86.622891 L 241.342880 89.350988 L 240.022468 92.077888 L 238.659383 94.801087 L 237.254734 97.518081 L 235.809630 100.226367 L 234.325180 102.923441 L 232.802492 105.606800 L 231.242674 108.273941 L 229.646836 110.922359 L 228.016087 113.549552 L 226.351534 116.153015 L 224.654287 118.730246 L 222.925454 121.278741 L 221.166144 123.795996 L 219.377466 126.279508 L 217.560528 128.726773 L 215.716439 131.135289 L 213.846308 133.502551 L 211.951244 135.826055 L 210.032354 138.103300 L 208.090749 140.331780 L 206.127536 142.508992 L 204.143824 144.632434 L 202.140722 146.699601 L 200.119338 148.707990 L 198.520970 150.281820 L 196.867394 151.933653 L 194.835301 153.917437 L 192.492126 156.121232 L 189.905302 158.433099 L 187.142261 160.741099 L 184.270438 162.933293 L 181.357265 164.897741 L 178.470176 166.522505 L 175.676604 167.695645 L 173.043982 168.305221 L 170.639743 168.239296 L 168.030077 167.032754 L 167.506163 164.971168 L 169.340422 162.826499 L 172.221617 160.908836 L 175.023793 159.492448 L 177.853683 158.428929 L 180.734135 157.626826 L 183.656321 157.063086 L 186.611411 156.714656 L 189.590578 156.558484 L 192.584992 156.571518 L 195.585825 156.730704 L 198.584248 157.012990 L 201.571434 157.395324 L 204.538552 157.854654 L 207.527939 158.366001 L 210.521934 158.869154 L 213.503766 159.354916 L 216.475168 159.821960 L 219.437872 160.268956 L 222.393611 160.694578 L 225.344118 161.097497 L 228.291125 161.476383 L 231.236363 161.829910 L 234.181567 162.156749 L 237.128468 162.455571 L 240.078800 162.725048 L 243.034293 162.963853 L 245.996682 163.170656 L 248.967698 163.344130 L 251.949074 163.482946 L 254.942543 163.585776 L 257.949836 163.651292 L 260.972687 163.678166 L 264.012828 163.665068 L 267.071992 163.610672 L 270.151911 163.513648 L 272.108484 163.542834 L 275.375936 163.593449 L 279.366321 163.483929 L 283.228945 163.045315 L 286.113116 162.108647 L 287.168138 160.504965 L 286.000001 158.499998" fill="none" stroke="black" stroke-width="2.0" /><path d="M 190.000001 42.600000 L 191.842369 40.024232 L 194.236377 38.546725 L 196.970623 38.055663 L 199.833704 38.439230 L 202.614217 39.585609 L 205.100761 41.382985 L 207.081933 43.719542 L 208.346330 46.483462 L 208.698764 49.566258 L 208.277371 52.582291 L 207.214828 55.276656 L 205.598019 57.637268 L 203.513831 59.652041 L 201.049147 61.308890 L 198.290853 62.595729 L 195.325835 63.500473 L 192.240976 64.011036 L 189.123162 64.115333 L 186.059278 63.801278 L 183.136208 63.056785 L 180.440839 61.869770 L 178.060054 60.228146 L 176.080739 58.119829 L 174.589779 55.532732 L 173.646077 52.606195 L 173.166623 49.670968 L 173.112102 46.751415 L 173.451028 43.861211 L 174.151917 41.014035 L 175.183286 38.223565 L 176.513651 35.503478 L 178.111527 32.867451 L 179.945430 30.329162 L 181.983876 27.902288 L 184.195380 25.600508 L 186.548460 23.437498 L 189.011629 21.426936 L 191.553406 19.582500 L 194.142304 17.917868 L 196.746840 16.446716 L 199.335530 15.182722 L 201.876890 14.139564 L 204.339436 13.330920 L 206.870579 12.719683 L 209.635865 12.130245 L 212.557318 11.573187 L 215.596211 11.078965 L 218.713816 10.678036 L 221.871404 10.400855 L 225.030247 10.277879 L 228.151617 10.339565 L 231.196786 10.616367 L 234.127025 11.138742 L 236.903607 11.937147 L 239.487803 13.042037 L 242.250767 14.698735 L 244.586318 16.649749 L 246.501905 18.852834 L 248.029670 21.276981 L 249.201755 23.891177 L 250.050303 26.664410 L 250.607456 29.565668 L 250.905356 32.563941 L 250.976146 35.628216 L 250.851968 38.727482 L 250.564964 41.830726 L 250.147276 44.906938 L 249.631048 47.925105 L 249.048421 50.854216 L 248.431537 53.663259 L 247.763187 56.528363 L 246.997499 59.553710 L 246.171924 62.537335 L 245.288032 65.480630 L 244.347393 68.384985 L 243.351576 71.251793 L 242.302151 74.082445 L 241.200689 76.878332 L 240.048758 79.640845 L 238.847930 82.371377 L 237.599773 85.071319 L 236.305858 87.742061 L 234.967754 90.384996 L 233.587031 93.001515 L 232.165260 95.593010 L 230.704009 98.160872 L 229.204849 100.706491 L 227.669350 103.231261 L 226.099081 105.736572 L 224.495613 108.223816 L 222.860515 110.694384 L 221.195357 113.149667 L 219.501709 115.591058 L 217.781140 118.019947 L 216.035221 120.437726 L 214.265521 122.845786 L 212.473611 125.245520 L 210.661060 127.638318 L 208.829437 130.025571 L 206.980314 132.408672 L 205.115259 134.789012 L 203.235842 137.167981 L 201.408733 139.471443 L 199.802245 141.573649 L 198.103042 143.850264 L 196.313288 146.252028 L 194.435150 148.729680 L 192.470792 151.233959 L 190.422381 153.715603 L 188.292080 156.125352 L 186.082056 158.413943 L 183.794474 160.532117 L 181.431499 162.430613 L 178.995296 164.060168 L 176.488032 165.371522 L 173.587208 166.413066 L 169.964914 166.690405 L 168.192278 165.406755 L 168.028896 163.183841 L 169.234370 160.643390 L 171.568298 158.407128 L 174.631252 157.127395 L 177.172777 156.866873 L 179.938866 157.019385 L 182.875892 157.514395 L 185.930229 158.281367 L 189.048251 159.249767 L 192.176330 160.349058 L 195.260842 161.508705 L 198.248159 162.658173 L 201.084656 163.726925 L 203.716706 164.644427 L 206.214807 165.399576 L 208.885931 166.138754 L 211.644872 166.831900 L 214.482493 167.475168 L 217.389656 168.064710 L 220.357222 168.596678 L 223.376054 169.067225 L 226.437014 169.472502 L 229.530964 169.808664 L 232.648765 170.071861 L 235.781281 170.258246 L 238.919372 170.363972 L 242.053901 170.385192 L 245.175730 170.318057 L 248.275721 170.158720 L 251.344736 169.903334 L 254.373637 169.548051 L 257.353287 169.089023 L 260.274546 168.522403 L 263.128278 167.844344 L 265.905344 167.050997 L 268.596606 166.138515 L 271.192926 165.103051 L 273.754529 163.872818 L 276.264780 162.273080 L 278.608531 160.335955 L 280.670644 158.093739 L 282.335983 155.578726 L 283.489409 152.823210 L 284.015784 149.859487 L 284.000001 148.199998" fill="none" stroke="black" stroke-width="2.0" /><path d="M 283.400001 150.299998 L 281.137861 152.446921 L 278.954882 154.428090 L 276.802375 156.253543 L 274.631652 157.933319 L 272.394023 159.477457 L 270.040799 160.895997 L 267.523292 162.198976 L 264.792812 163.396435 L 261.800671 164.498411 L 258.498181 165.514945 L 255.136606 166.346834 L 252.139653 166.853334 L 249.153330 167.181778 L 246.176719 167.345822 L 243.208900 167.359118 L 240.248953 167.235321 L 237.295960 166.988084 L 234.349000 166.631062 L 231.407154 166.177909 L 228.469503 165.642278 L 225.535127 165.037823 L 222.603106 164.378199 L 219.672523 163.677060 L 216.742455 162.948058 L 213.811986 162.204849 L 210.880194 161.461087 L 207.946160 160.730424 L 205.008966 160.026516 L 202.067691 159.363016 L 199.121416 158.753578 L 196.169222 158.211856 L 193.210189 157.751504 L 190.243398 157.386176 L 187.267929 157.129526 L 185.336144 157.066354 L 182.662783 157.156169 L 179.295386 157.423349 L 175.574456 157.906509 L 171.840496 158.644262 L 168.434011 159.675222 L 165.695505 161.038003 L 163.965480 162.771218 L 163.584441 164.913482 L 164.892892 167.503409 L 166.877397 169.361409 L 168.850196 170.267824 L 170.980390 170.518638 L 173.244844 170.173334 L 175.620422 169.291394 L 178.083989 167.932302 L 180.612410 166.155539 L 183.182548 164.020588 L 185.771269 161.586931 L 188.355436 158.914051 L 190.911914 156.061430 L 193.417567 153.088552 L 195.849260 150.054897 L 198.183858 147.019950 L 200.398224 144.043192 L 202.469223 141.184105 L 204.373719 138.502173 L 206.088577 136.056877 L 207.590662 133.907700 L 208.856837 132.114126 L 209.863968 130.735635 L 211.241519 128.925004 L 213.018598 126.554480 L 214.791036 124.157168 L 216.555906 121.734531 L 218.310281 119.288032 L 220.051233 116.819136 L 221.775836 114.329305 L 223.481161 111.820004 L 225.164284 109.292696 L 226.822275 106.748844 L 228.452208 104.189913 L 230.051155 101.617365 L 231.616191 99.032664 L 233.144387 96.437273 L 234.632816 93.832658 L 236.078552 91.220280 L 237.478666 88.601603 L 238.830233 85.978091 L 240.130325 83.351208 L 241.312393 80.912379 L 242.597990 78.373810 L 243.966469 75.715001 L 245.373295 72.954732 L 246.773935 70.111782 L 248.123854 67.204931 L 249.378519 64.252958 L 250.493395 61.274643 L 251.423949 58.288764 L 252.125647 55.314102 L 252.553954 52.369436 L 252.664336 49.473544 L 252.412260 46.645207 L 251.753192 43.903204 L 250.642598 41.266314 L 250.500001 41.000000" fill="none" stroke="black" stroke-width="2.0" /><path d="M 192.000001 43.200000 L 193.472260 40.398681 L 195.812466 39.342647 L 198.596995 39.690796 L 201.402222 41.102030 L 203.804525 43.235248 L 205.380278 45.749350 L 206.116627 48.948473 L 205.988135 51.914468 L 205.103633 54.608256 L 203.575731 57.005134 L 201.517038 59.080402 L 199.040166 60.809357 L 196.257723 62.167298 L 193.282321 63.129524 L 190.226570 63.671332 L 187.203078 63.768022 L 184.324458 63.394891 L 182.100001 62.700000" fill="none" stroke="black" stroke-width="2.0" /><path d="M 406.500001 139.499998 L 405.564669 136.592251 L 404.157248 133.985382 L 402.337957 131.684539 L 400.167016 129.694873 L 397.704642 128.021536 L 395.011056 126.669676 L 392.146476 125.644444 L 389.171122 124.950991 L 386.145211 124.594467 L 383.128963 124.580021 L 380.182596 124.912806 L 377.246943 125.611207 L 374.445057 126.709763 L 371.917535 128.175276 L 369.665928 129.970475 L 367.691791 132.058087 L 365.996676 134.400841 L 364.582136 136.961464 L 363.449725 139.702684 L 362.600995 142.587229 L 362.037499 145.577827 L 361.760790 148.637207 L 361.772421 151.728095 L 362.073946 154.813220 L 362.666916 157.855310 L 363.614301 160.835870 L 364.962029 163.499031 L 366.653783 165.789838 L 368.655848 167.731093 L 370.934506 169.345596 L 373.456041 170.656149 L 376.186737 171.685553 L 379.092876 172.456609 L 382.140742 172.992118 L 385.296618 173.314881 L 388.526788 173.447700 L 391.797536 173.413375 L 395.075144 173.234708 L 398.325896 172.934500 L 401.516075 172.535552 L 404.611965 172.060666 L 407.579849 171.532642 L 410.386011 170.974281 L 412.996734 170.408385 L 415.436431 169.844079 L 418.426198 169.063259 L 421.378376 168.152540 L 424.279039 167.112111 L 427.114261 165.942158 L 429.870118 164.642869 L 432.532684 163.214431 L 435.088034 161.657032 L 437.522241 159.970859 L 439.821382 158.156098 L 441.971530 156.212939 L 443.958759 154.141567 L 445.769146 151.942170 L 447.388763 149.614936 L 448.803687 147.160051 L 449.999991 144.577704 L 450.963749 141.868082 L 451.681038 139.031371 L 452.137931 136.067759 L 452.320502 132.977434 L 452.214827 129.760583 L 451.806980 126.417393 L 451.145176 123.226592 L 450.230738 120.267986 L 449.070418 117.499042 L 447.680140 114.908479 L 446.075827 112.485018 L 444.273404 110.217380 L 442.288795 108.094284 L 440.137924 106.104451 L 437.836716 104.236601 L 435.401093 102.479456 L 432.846981 100.821734 L 430.190304 99.252158 L 427.648471 97.824707 L 425.144325 96.372774 L 422.569541 94.860927 L 419.931858 93.325286 L 417.239019 91.801975 L 414.498762 90.327116 L 411.718829 88.936832 L 408.906960 87.667243 L 406.070895 86.554474 L 403.218375 85.634645 L 400.357141 84.943880 L 397.494933 84.518301 L 394.067334 84.401231 L 390.544362 84.999779 L 388.689366 86.248791 L 388.670089 87.840742 L 390.654271 89.468103 L 394.752577 90.810803 L 397.323486 91.150939 L 399.966656 91.152798 L 402.664577 90.836063 L 405.399738 90.220415 L 408.154630 89.325535 L 410.911743 88.171104 L 413.653567 86.776804 L 416.362592 85.162316 L 419.021308 83.347321 L 421.612206 81.351502 L 424.117775 79.194538 L 426.520505 76.896111 L 428.802888 74.475903 L 430.947411 71.953595 L 432.936567 69.348868 L 434.752844 66.681404 L 436.378734 63.970884 L 437.796725 61.236989 L 438.989309 58.499400 L 439.938974 55.777799 L 440.628213 53.091868 L 441.039513 50.461287 L 441.155366 47.905738 L 440.927842 45.200682 L 440.329451 42.349027 L 439.405045 39.581741 L 438.181864 36.908502 L 436.687147 34.338988 L 434.948134 31.882875 L 432.992066 29.549841 L 430.846182 27.349563 L 428.537722 25.291719 L 426.093926 23.385986 L 423.542034 21.642041 L 420.909286 20.069562 L 418.222921 18.678225 L 415.510181 17.477710 L 412.798304 16.477691 L 410.249149 15.700313 L 407.535016 15.019614 L 404.532697 14.424582 L 401.329416 13.957002 L 398.012398 13.658658 L 394.668869 13.571335 L 391.386053 13.736816 L 388.251175 14.196887 L 385.351460 14.993331 L 382.774133 16.167934 L 380.606419 17.762478 L 378.935543 19.818750 L 377.848729 22.378533 L 377.407241 25.367161 L 377.445776 28.350533 L 377.917020 31.301153 L 378.817496 34.140195 L 380.143727 36.788835 L 381.892234 39.168249 L 384.059540 41.199610 L 386.642168 42.804095 L 389.505356 43.843571 L 392.673657 44.208722 L 396.100050 44.002481 L 399.278744 43.206252 L 401.703949 41.801441 L 402.869872 39.769451 L 402.900001 39.500000" fill="none" stroke="black" stroke-width="2.0" /><path d="M 404.500001 33.800000 L 404.123287 37.182217 L 402.759819 39.607343 L 400.628599 41.157504 L 397.948632 41.914827 L 394.938922 41.961439 L 391.818472 41.379464 L 388.806287 40.251031 L 386.121370 38.658266 L 383.982725 36.683295 L 382.153826 33.730760 L 380.697350 30.344914 L 379.980707 27.320493 L 379.943645 24.642564 L 380.525912 22.296196 L 381.667252 20.266454 L 383.307415 18.538406 L 385.386145 17.097119 L 387.843192 15.927660 L 390.618300 15.015097 L 393.651218 14.344496 L 396.881692 13.900925 L 400.249470 13.669451 L 403.694297 13.635140 L 407.155921 13.783061 L 410.574089 14.098280 L 413.888548 14.565864 L 417.039045 15.170881 L 419.965326 15.898398 L 422.607139 16.733481 L 424.904230 17.661198 L 427.443827 19.029595 L 430.132516 20.874381 L 432.478486 22.920713 L 434.492652 25.149179 L 436.185932 27.540362 L 437.569243 30.074848 L 438.653501 32.733224 L 439.449625 35.496074 L 439.968531 38.343985 L 440.221137 41.257542 L 440.218358 44.217330 L 439.971113 47.203935 L 439.490319 50.197942 L 438.786893 53.179938 L 437.871751 56.130508 L 436.755811 59.030237 L 435.449989 61.859711 L 433.965204 64.599515 L 432.312372 67.230236 L 430.502411 69.732458 L 428.546236 72.086768 L 426.454766 74.273750 L 424.238918 76.273991 L 421.909608 78.068076 L 419.477753 79.636590 L 416.954272 80.960120 L 414.350080 82.019250 L 411.676096 82.794567 L 411.200001 82.899998" fill="none" stroke="black" stroke-width="2.0" /><path d="M 428.100001 74.699998 L 426.246577 76.867038 L 424.194332 78.969098 L 421.962987 80.977077 L 419.572263 82.861876 L 417.041882 84.594392 L 414.391563 86.145527 L 411.641029 87.486180 L 408.809999 88.587249 L 405.918195 89.419636 L 402.985338 89.954240 L 400.031148 90.161959 L 397.075347 90.013695 L 394.137655 89.480346 L 390.688651 88.306145 L 387.923311 86.518807 L 386.936360 84.581912 L 387.558775 82.655092 L 389.621532 80.897980 L 392.955609 79.470209 L 396.145246 78.744113 L 398.987258 78.630954 L 401.905794 78.950756 L 404.860857 79.629525 L 407.812452 80.593267 L 410.720581 81.767988 L 413.545248 83.079694 L 416.246455 84.454390 L 418.843492 85.861404 L 421.526882 87.433745 L 424.149466 89.081645 L 426.701944 90.805491 L 429.175020 92.605672 L 431.559394 94.482574 L 433.845768 96.436584 L 436.024845 98.468091 L 438.087325 100.577481 L 440.023912 102.765143 L 441.825306 105.031463 L 443.482210 107.376828 L 444.985325 109.801628 L 446.325353 112.306247 L 447.492996 114.891075 L 448.478956 117.556499 L 449.273934 120.302905 L 449.868632 123.130682 L 450.253753 126.040217 L 450.419997 129.031897 L 450.358067 132.106110 L 450.058665 135.263243 L 449.512492 138.503683 L 448.729856 141.754312 L 447.886897 144.349502 L 446.826870 146.915176 L 445.561389 149.442900 L 444.102071 151.924243 L 442.460532 154.350769 L 440.648386 156.714048 L 438.677250 159.005644 L 436.558739 161.217127 L 434.304469 163.340061 L 431.926056 165.366015 L 429.435115 167.286555 L 426.843262 169.093248 L 424.162113 170.777661 L 421.403283 172.331361 L 418.578388 173.745915 L 415.699044 175.012891 L 412.776866 176.123854 L 409.823470 177.070372 L 406.850472 177.844011 L 403.869488 178.436340 L 400.892132 178.838924 L 397.930022 179.043330 L 394.994771 179.041127 L 392.097997 178.823880 L 389.251315 178.383156 L 386.466340 177.710522 L 383.754689 176.797546 L 381.127976 175.635795 L 378.597818 174.216834 L 376.175830 172.532232 L 373.873628 170.573555 L 371.702827 168.332370 L 369.305284 165.259760 L 367.406334 162.086930 L 366.033848 158.907106 L 365.155096 155.743494 L 364.737344 152.619299 L 364.747860 149.557727 L 365.153912 146.581985 L 365.922768 143.715279 L 367.021696 140.980813 L 368.417962 138.401795 L 370.078836 136.001430 L 371.971584 133.802924 L 374.063475 131.829483 L 376.321777 130.104313 L 378.713756 128.650620 L 381.206681 127.491610 L 383.767820 126.650489 L 386.364440 126.150462 L 388.963809 126.014736 L 391.533196 126.266516 L 394.039866 126.929009 L 396.451090 128.025421 L 398.734133 129.578957 L 400.856264 131.612823 L 402.784751 134.150226 L 404.486862 137.214371 L 405.100001 138.599998" fill="none" stroke="black" stroke-width="2.0" /><path d="M 614.600001 166.899998 L 613.500029 164.088444 L 612.506175 161.258150 L 611.614837 158.410043 L 610.822412 155.545052 L 610.125298 152.664102 L 609.519892 149.768121 L 609.002591 146.858037 L 608.569794 143.934777 L 608.217898 140.999267 L 607.943299 138.052436 L 607.742397 135.095210 L 607.611588 132.128516 L 607.547270 129.153282 L 607.545840 126.170435 L 607.603696 123.180902 L 607.717236 120.185611 L 607.882856 117.185488 L 608.096955 114.181461 L 608.355930 111.174457 L 608.656179 108.165404 L 608.994099 105.155228 L 609.366087 102.144856 L 609.768541 99.135217 L 610.197859 96.127237 L 610.650438 93.121843 L 611.122676 90.119962 L 611.610970 87.122523 L 612.111718 84.130451 L 612.621317 81.144675 L 613.136165 78.166122 L 613.652659 75.195718 L 614.167197 72.234390 L 614.676176 69.283067 L 615.175995 66.342676 L 615.682266 63.464684 L 616.191535 60.564038 L 616.692732 57.639730 L 617.175200 54.694308 L 617.628281 51.730321 L 618.041316 48.750318 L 618.403647 45.756847 L 618.704616 42.752458 L 618.933565 39.739698 L 619.079836 36.721116 L 619.132769 33.699262 L 619.081708 30.676684 L 618.915994 27.655930 L 618.637977 24.730794 L 618.311993 21.897062 L 617.873121 18.806728 L 617.263955 15.636426 L 616.427089 12.562787 L 615.305118 9.762447 L 613.840637 7.412036 L 611.635534 7.970891 L 609.466682 9.843647 L 607.509677 12.109724 L 605.733111 14.660179 L 604.105579 17.386068 L 602.595672 20.178447 L 601.171983 22.928372 L 599.803105 25.526900 L 598.397810 27.951703 L 596.777076 30.475664 L 595.093541 32.950303 L 593.353593 35.381072 L 591.563618 37.773424 L 589.730004 40.132811 L 587.859137 42.464685 L 585.957405 44.774499 L 584.031194 47.067706 L 582.086893 49.349756 L 580.130887 51.626104 L 578.169565 53.902201 L 576.209313 56.183500 L 574.256518 58.475454 L 572.317567 60.783513 L 570.398847 63.113132 L 568.473715 65.427273 L 566.512460 67.709788 L 564.531059 69.983076 L 562.533183 72.246769 L 560.522504 74.500500 L 558.502691 76.743903 L 556.477416 78.976609 L 554.450350 81.198252 L 552.425163 83.408464 L 550.405525 85.606879 L 548.395108 87.793130 L 546.397581 89.966850 L 543.742988 92.968212 L 541.734953 95.784251 L 540.645007 98.183407 L 540.488817 100.188203 L 541.282050 101.821158 L 543.040372 103.104793 L 545.779449 104.061628 L 549.514948 104.714185 L 553.626072 105.039821 L 556.644713 105.178296 L 559.656284 105.327072 L 562.661550 105.482710 L 565.661274 105.641775 L 568.656220 105.800829 L 571.647152 105.956437 L 574.634833 106.105159 L 577.620027 106.243561 L 580.603497 106.368205 L 583.586009 106.475654 L 586.568325 106.562472 L 589.551208 106.625221 L 592.535424 106.660465 L 595.521736 106.664767 L 598.510906 106.634690 L 601.503700 106.566797 L 604.500880 106.457651 L 607.503211 106.303816 L 610.511457 106.101854 L 613.526380 105.848329 L 616.527508 105.545511 L 619.458137 105.266578 L 622.422250 105.018346 L 625.414386 104.793001 L 628.429087 104.582727 L 631.460892 104.379709 L 634.504342 104.176133 L 637.553976 103.964184 L 640.604335 103.736046 L 643.649960 103.483905 L 646.685391 103.199945 L 649.705167 102.876353 L 652.703830 102.505313 L 655.675919 102.079009 L 658.615974 101.589628 L 661.518536 101.029354 L 664.378146 100.390372 L 667.189343 99.664867 L 667.623198 98.816907 L 666.800001 98.299998" fill="none" stroke="black" stroke-width="2.0" /><path d="M 621.000001 5.000000 L 619.827953 7.607719 L 618.830689 10.304859 L 617.992720 13.082536 L 617.298561 15.931865 L 616.732725 18.843963 L 616.279724 21.809944 L 615.924072 24.820924 L 615.650283 27.868018 L 615.442870 30.942343 L 615.286345 34.035012 L 615.165223 37.137143 L 615.064015 40.239850 L 614.967237 43.334249 L 614.859400 46.411456 L 614.725019 49.462585 L 614.548605 52.478753 L 614.314674 55.451074 L 614.007737 58.370665 L 613.612308 61.228641 L 613.112528 64.134533 L 612.595906 67.117574 L 612.090962 70.096092 L 611.598196 73.070686 L 611.118108 76.041956 L 610.651197 79.010504 L 610.197964 81.976929 L 609.758909 84.941830 L 609.334532 87.905809 L 608.925334 90.869465 L 608.531813 93.833399 L 608.154471 96.798209 L 607.793807 99.764498 L 607.450321 102.732863 L 607.124514 105.703907 L 606.816885 108.678228 L 606.527936 111.656427 L 606.258164 114.639104 L 606.023793 117.483230 L 605.830159 120.183970 L 605.655313 123.005107 L 605.507309 125.929331 L 605.394207 128.939330 L 605.324061 132.017793 L 605.304930 135.147407 L 605.344871 138.310861 L 605.451939 141.490844 L 605.634193 144.670044 L 605.899689 147.831150 L 606.256484 150.956849 L 606.712635 154.029831 L 607.276200 157.032784 L 607.955234 159.948397 L 608.757795 162.759356 L 609.691940 165.448352 L 610.765726 167.998073 L 611.295375 166.620746 L 611.261833 163.508287 L 611.100001 161.999998" fill="none" stroke="black" stroke-width="2.0" /><path d="M 618.700001 5.000000 L 618.260899 7.641534 L 618.136098 10.461502 L 618.256304 13.420967 L 618.552223 16.480992 L 618.954560 19.602642 L 619.394022 22.746978 L 619.801314 25.875065 L 620.107142 28.947965 L 620.242212 31.926742 L 620.149527 34.823273 L 619.960376 37.782108 L 619.733677 40.746399 L 619.475285 43.715809 L 619.191053 46.690000 L 618.886837 49.668634 L 618.568493 52.651374 L 618.241873 55.637881 L 617.912834 58.627818 L 617.587230 61.620847 L 617.270916 64.616631 L 616.969746 67.614831 L 616.689576 70.615110 L 616.436260 73.617130 L 616.215653 76.620553 L 616.033610 79.625042 L 615.895985 82.630258 L 615.808634 85.635864 L 615.759509 88.657070 L 615.724485 91.671433 L 615.696231 94.676391 L 615.667192 97.673086 L 615.629812 100.662659 L 615.576533 103.646248 L 615.499801 106.624997 L 615.392059 109.600043 L 615.245751 112.572530 L 615.053320 115.543596 L 614.807212 118.514382 L 614.499869 121.486029 L 614.123735 124.459678 L 613.671255 127.436469 L 613.134872 130.417543 L 612.507030 133.404039 L 611.805469 136.403583 L 611.118582 139.355881 L 610.460583 142.266195 L 609.838506 145.154625 L 609.259387 148.041272 L 608.730261 150.946236 L 608.258163 153.889617 L 607.850127 156.891516 L 607.541622 159.577237 L 607.218044 162.649036 L 606.841323 166.889449 L 606.578300 171.023638 L 606.595818 173.776763 L 607.000001 173.999998" fill="none" stroke="black" stroke-width="2.0" /><path d="M 621.000001 0.900000 L 619.194006 3.235434 L 617.405276 5.601095 L 615.631173 7.993262 L 613.869061 10.408209 L 612.116302 12.842215 L 610.370258 15.291554 L 608.628292 17.752504 L 606.887766 20.221342 L 605.146044 22.694343 L 603.400486 25.167784 L 601.648456 27.637941 L 599.887317 30.101092 L 598.114431 32.553513 L 596.327160 34.991479 L 594.522867 37.411268 L 592.698914 39.809157 L 590.852665 42.181421 L 588.981481 44.524336 L 587.082725 46.834181 L 585.153759 49.107231 L 583.191947 51.339762 L 581.194650 53.528051 L 579.170119 55.667953 L 577.148875 57.806091 L 575.123584 59.964967 L 573.095263 62.143054 L 571.064929 64.338828 L 569.033599 66.550763 L 567.002290 68.777332 L 564.972019 71.017011 L 562.943803 73.268275 L 560.918660 75.529596 L 558.897605 77.799451 L 556.881657 80.076312 L 554.871833 82.358655 L 552.869149 84.644955 L 550.874622 86.933684 L 548.889270 89.223319 L 546.914109 91.512333 L 544.950157 93.799200 L 542.998431 96.082396 L 541.059948 98.360394 L 539.135724 100.631670 L 537.226778 102.894696 L 535.334125 105.147949 L 533.458783 107.389901 L 534.100001 105.699998" fill="none" stroke="black" stroke-width="2.0" /><path d="M 616.700001 0.000000 L 614.982555 1.879966 L 613.245148 3.957604 L 611.500481 6.209203 L 609.761255 8.611056 L 608.040173 11.139453 L 606.349935 13.770683 L 604.703242 16.481039 L 603.112797 19.246810 L 601.591300 22.044288 L 600.151454 24.849762 L 598.805958 27.639525 L 597.567516 30.389865 L 596.441273 33.096211 L 595.263120 35.853293 L 593.982855 38.557123 L 592.607164 41.210188 L 591.142733 43.814978 L 589.596248 46.373978 L 587.974396 48.889678 L 586.283862 51.364565 L 584.531332 53.801127 L 582.723492 56.201851 L 580.867029 58.569227 L 578.968628 60.905740 L 577.034976 63.213880 L 575.072758 65.496133 L 573.088661 67.754989 L 571.089370 69.992934 L 569.056886 72.200702 L 566.919774 74.296353 L 564.693480 76.281087 L 562.393020 78.176180 L 560.033413 80.002906 L 557.629674 81.782538 L 555.196822 83.536352 L 552.749873 85.285621 L 550.303845 87.051619 L 547.873754 88.855622 L 545.464266 90.833842 L 543.364402 93.080556 L 541.570020 95.499017 L 539.986723 98.031951 L 538.520112 100.622081 L 537.075789 103.212133 L 535.559355 105.744832 L 533.876413 108.162900 L 531.712151 109.626519 L 531.100001 108.499998" fill="none" stroke="black" stroke-width="2.0" /><path d="M 538.100001 97.799998 L 539.454131 99.013746 L 541.364084 100.010644 L 543.753979 100.809750 L 546.547930 101.430121 L 549.670055 101.890815 L 553.044470 102.210888 L 556.595293 102.409399 L 560.246639 102.505406 L 563.922625 102.517964 L 567.547367 102.466133 L 571.044983 102.368969 L 574.339589 102.245530 L 577.355301 102.114874 L 580.016236 101.996057 L 582.246510 101.908138 L 585.034163 101.820234 L 587.963508 101.737739 L 590.910642 101.663244 L 593.874036 101.594890 L 596.852161 101.530822 L 599.843487 101.469183 L 602.846487 101.408116 L 605.859630 101.345765 L 608.881388 101.280273 L 611.910232 101.209783 L 614.944632 101.132438 L 617.983061 101.046383 L 621.023988 100.949760 L 624.065886 100.840713 L 627.107224 100.717385 L 630.146474 100.577920 L 633.182107 100.420460 L 636.212594 100.243150 L 639.236406 100.044132 L 642.252013 99.821551 L 645.257888 99.573548 L 648.252500 99.298269 L 651.234322 98.993855 L 654.201823 98.658451 L 657.153476 98.290200 L 660.087750 97.887245 L 663.003117 97.447729 L 665.898049 96.969797 L 663.840702 97.005755 L 660.800001 96.599998" fill="none" stroke="black" stroke-width="2.0" /><path d="M 539.600001 106.499998 L 541.422406 107.287019 L 544.361875 107.744964 L 547.894369 107.959978 L 551.495847 108.018202 L 554.642270 108.005782 L 557.354338 107.936725 L 560.317522 107.760339 L 563.284512 107.525075 L 566.254724 107.236916 L 569.227574 106.901846 L 572.202477 106.525850 L 575.178851 106.114911 L 578.156111 105.675012 L 581.133674 105.212138 L 584.110956 104.732272 L 587.087373 104.241398 L 590.062341 103.745499 L 593.035277 103.250560 L 596.005597 102.762564 L 598.972717 102.287496 L 601.936052 101.831337 L 604.886527 101.409903 L 607.837892 101.040429 L 610.803794 100.712809 L 613.782685 100.422471 L 616.773018 100.164844 L 619.773244 99.935357 L 622.781814 99.729439 L 625.797181 99.542517 L 628.817795 99.370021 L 631.842108 99.207380 L 634.868573 99.050022 L 637.895640 98.893375 L 640.921762 98.732870 L 643.945390 98.563933 L 646.964975 98.381994 L 649.978970 98.182481 L 652.985826 97.960824 L 655.983994 97.712450 L 658.971927 97.432789 L 661.948075 97.117269 L 664.910891 96.761319 L 667.858827 96.360367 L 670.790333 95.909842 L 673.703861 95.405174 L 676.597864 94.841790 L 679.535307 94.339900 L 678.500001 95.199998" fill="none" stroke="black" stroke-width="2.0" /><path d="M 612.300001 105.599998 L 615.060867 104.908766 L 617.901651 104.388700 L 620.810677 104.010737 L 623.776269 103.745812 L 626.786749 103.564859 L 629.830442 103.438813 L 632.895669 103.338610 L 635.970755 103.235186 L 639.044023 103.099474 L 642.103796 102.902411 L 645.138397 102.614932 L 648.136150 102.207971 L 651.085378 101.652464 L 653.974404 100.919346 L 656.791552 99.979552 L 659.525145 98.804018 L 662.139374 97.374241 L 664.587752 95.627159 L 666.980179 93.596896 L 669.327020 91.445151 L 671.638641 89.333625 L 673.925408 87.424017 L 676.197685 85.878028 L 677.100001 85.399998" fill="none" stroke="black" stroke-width="2.0" /><path d="M 845.500001 13.700000 L 843.493858 14.461483 L 840.893148 15.859599 L 837.958389 17.571617 L 834.950098 19.274806 L 832.128793 20.646435 L 829.485674 21.492973 L 826.676762 22.184804 L 823.751282 22.770633 L 820.736227 23.245131 L 817.658587 23.602972 L 814.545353 23.838828 L 811.423516 23.947373 L 808.320068 23.923279 L 805.261999 23.761219 L 802.276301 23.455866 L 799.389965 23.001892 L 796.629982 22.393971 L 794.153036 21.654292 L 791.563631 20.643076 L 788.829199 19.368091 L 786.024619 17.870310 L 783.224770 16.190703 L 780.504530 14.370242 L 777.938779 12.449898 L 775.602396 10.470644 L 773.570259 8.473450 L 772.369623 7.713250 L 772.529431 10.534893 L 772.525449 13.407118 L 772.377623 16.324477 L 772.105898 19.281521 L 771.730222 22.272803 L 771.270539 25.292873 L 770.746795 28.336284 L 770.178936 31.397587 L 769.586908 34.471333 L 768.990657 37.552075 L 768.410129 40.634363 L 767.865269 43.712750 L 767.376023 46.781788 L 766.962337 49.836026 L 766.644157 52.870019 L 766.441428 55.878316 L 766.374097 58.855470 L 766.462109 61.796032 L 766.725410 64.694554 L 767.183946 67.545587 L 767.857663 70.343683 L 768.766506 73.083394 L 769.930422 75.759271 L 771.901737 78.776653 L 773.908392 80.042060 L 775.989218 79.888175 L 778.221977 78.724741 L 780.684430 76.961501 L 783.454338 75.008197 L 786.609463 73.274571 L 789.581414 72.270465 L 792.311823 71.661896 L 795.187991 71.236767 L 798.177275 70.995922 L 801.247033 70.940202 L 804.364622 71.070450 L 807.497400 71.387508 L 810.612722 71.892218 L 813.677947 72.585424 L 816.660432 73.467967 L 819.527533 74.540690 L 822.246608 75.804436 L 824.785015 77.260046 L 827.110110 78.908363 L 829.354744 80.887184 L 831.613580 83.201188 L 833.647158 85.604779 L 835.460418 88.090770 L 837.058301 90.651972 L 838.445745 93.281197 L 839.627690 95.971258 L 840.609077 98.714967 L 841.394843 101.505137 L 841.989930 104.334579 L 842.399277 107.196106 L 842.627823 110.082529 L 842.680508 112.986662 L 842.562272 115.901316 L 842.278054 118.819303 L 841.832794 121.733437 L 841.231431 124.636528 L 840.478905 127.521390 L 839.580157 130.380834 L 838.540124 133.207673 L 837.363747 135.994718 L 836.055967 138.734783 L 834.621721 141.420679 L 833.065950 144.045218 L 831.393593 146.601213 L 829.609591 149.081476 L 827.718883 151.478820 L 825.756959 153.747817 L 823.645498 155.871821 L 821.378300 157.852358 L 818.970879 159.682335 L 816.438749 161.354658 L 813.797425 162.862237 L 811.062420 164.197979 L 808.249250 165.354792 L 805.373428 166.325582 L 802.450470 167.103259 L 799.495888 167.680729 L 796.525199 168.050901 L 793.553915 168.206682 L 790.597552 168.140980 L 787.671623 167.846703 L 784.791644 167.316758 L 781.973128 166.544053 L 779.231589 165.521496 L 776.582544 164.241994 L 774.041504 162.698456 L 771.623986 160.883788 L 769.345502 158.790900 L 767.276194 156.512532 L 765.347733 154.091419 L 763.532860 151.510455 L 761.855663 148.800195 L 760.340234 145.991195 L 759.010664 143.114009 L 757.891041 140.199193 L 757.005456 137.277302 L 756.378000 134.378893 L 756.032763 131.534519 L 755.993835 128.774736 L 756.285306 126.130100 L 756.931267 123.631167 L 757.955807 121.308490 L 759.383017 119.192626 L 761.236987 117.314131 L 763.541808 115.703558 L 766.321569 114.391464 L 769.600361 113.408405 L 773.402273 112.784934 L 776.835015 112.481787 L 780.028891 112.262735 L 783.139643 112.183415 L 786.132034 112.322208 L 788.970829 112.757496 L 791.620791 113.567661 L 794.046686 114.831086 L 796.213276 116.626152 L 798.085326 119.031241 L 799.554501 121.892534 L 800.636800 124.709106 L 801.438911 127.649024 L 801.886147 130.641753 L 801.903824 133.616756 L 801.417256 136.503497 L 800.351758 139.231441 L 798.632645 141.730050 L 796.217940 143.784346 L 793.412240 144.993560 L 790.413794 145.419181 L 787.400836 145.145783 L 784.551596 144.257936 L 782.044310 142.840212 L 780.057210 140.977183 L 778.768528 138.753421 L 778.356499 136.253498 L 778.999354 133.561985 L 780.875327 130.763454 L 783.000001 128.799998" fill="none" stroke="black" stroke-width="2.0" /><path d="M 788.000001 129.599998 L 786.978162 128.566116 L 784.154190 130.453272 L 782.564507 132.579732 L 782.063773 134.833377 L 782.506652 137.102091 L 783.747805 139.273755 L 785.641894 141.236250 L 788.043580 142.877459 L 790.807525 144.085264 L 793.788393 144.747547 L 796.840843 144.752190 L 799.819538 143.987075 L 802.579140 142.340083 L 804.974311 139.699098 L 806.773618 136.188197 L 807.694176 132.975376 L 807.972548 129.928103 L 807.665679 127.057351 L 806.830514 124.374092 L 805.523999 121.889299 L 803.803079 119.613943 L 801.724700 117.558999 L 799.345805 115.735437 L 796.723342 114.154230 L 793.914254 112.826351 L 790.975488 111.762772 L 787.963988 110.974465 L 784.936700 110.472403 L 781.950568 110.267557 L 779.062539 110.370902 L 776.329557 110.793408 L 773.524851 111.642841 L 770.883365 112.859087 L 768.416908 114.408080 L 766.134470 116.256545 L 764.045040 118.371210 L 762.157608 120.718799 L 760.481165 123.266040 L 759.024699 125.979658 L 757.797201 128.826381 L 756.807659 131.772935 L 756.065065 134.786045 L 755.578408 137.832438 L 755.356676 140.878841 L 755.408861 143.891979 L 755.743952 146.838580 L 756.370938 149.685369 L 757.298810 152.399073 L 758.584237 155.119876 L 760.151850 157.658526 L 761.958796 159.948599 L 763.985531 161.998072 L 766.212514 163.814924 L 768.620202 165.407132 L 771.189052 166.782673 L 773.899523 167.949525 L 776.732072 168.915666 L 779.667156 169.689073 L 782.685233 170.277723 L 785.766761 170.689596 L 788.892198 170.932667 L 792.042000 171.014914 L 795.196625 170.944316 L 798.336532 170.728849 L 801.442177 170.376492 L 804.494018 169.895222 L 807.472513 169.293016 L 810.358120 168.577852 L 813.131296 167.757707 L 815.772498 166.840560 L 818.247934 165.850026 L 820.629967 164.721148 L 822.984441 163.394524 L 825.304363 161.880903 L 827.582742 160.191035 L 829.812588 158.335670 L 831.986909 156.325558 L 834.098715 154.171449 L 836.141014 151.884093 L 838.106815 149.474240 L 839.989127 146.952640 L 841.780959 144.330043 L 843.475321 141.617199 L 845.065220 138.824857 L 846.543666 135.963768 L 847.903668 133.044682 L 849.138235 130.078348 L 850.240375 127.075517 L 851.203098 124.046938 L 852.019413 121.003362 L 852.682328 117.955538 L 853.184853 114.914216 L 853.519996 111.890147 L 853.680766 108.894081 L 853.660173 105.936766 L 853.451225 103.028953 L 853.046931 100.181393 L 852.440300 97.404835 L 851.624341 94.710029 L 850.592063 92.107725 L 849.336475 89.608673 L 847.850586 87.223622 L 846.127405 84.963324 L 844.159940 82.838527 L 841.941201 80.859982 L 839.464197 79.038439 L 836.721936 77.384648 L 833.894032 75.973378 L 831.139397 74.814420 L 828.318965 73.835922 L 825.442345 73.033612 L 822.519148 72.403220 L 819.558985 71.940473 L 816.571464 71.641102 L 813.566196 71.500835 L 810.552791 71.515401 L 807.540858 71.680528 L 804.540009 71.991946 L 801.559853 72.445384 L 798.610000 73.036570 L 795.700061 73.761233 L 792.839644 74.615102 L 790.087684 75.627876 L 787.230490 76.978182 L 784.245376 78.411655 L 781.258480 79.590342 L 778.395938 80.176290 L 775.783889 79.831547 L 773.647119 78.333133 L 772.400436 76.475771 L 771.509662 74.155144 L 770.932844 71.445612 L 770.628029 68.421539 L 770.553263 65.157284 L 770.666593 61.727212 L 770.926065 58.205682 L 771.289727 54.667057 L 771.715624 51.185699 L 772.161804 47.835969 L 772.586313 44.692229 L 772.947197 41.828841 L 773.202505 39.320167 L 773.323577 36.978699 L 773.437671 33.974645 L 773.560599 30.946091 L 773.668454 27.904324 L 773.737329 24.860636 L 773.743318 21.826314 L 773.662515 18.812647 L 773.471014 15.830926 L 773.144907 12.892438 L 772.660290 10.008473 L 773.675230 10.133389 L 775.924121 12.295323 L 778.220666 14.254889 L 780.578532 16.013062 L 783.011385 17.570820 L 785.532888 18.929138 L 788.156709 20.088992 L 790.896512 21.051358 L 793.765964 21.817212 L 796.778730 22.387531 L 799.948475 22.763290 L 802.900807 22.989673 L 805.857233 23.163182 L 808.858734 23.278636 L 811.891498 23.327665 L 814.941714 23.301899 L 817.995572 23.192967 L 821.039260 22.992498 L 824.058968 22.692124 L 827.040884 22.283473 L 829.971197 21.758175 L 832.836097 21.107859 L 835.194644 20.456932 L 838.518776 19.372476 L 842.397220 17.898972 L 845.592750 16.315032 L 846.868139 14.899269 L 846.500001 14.400000" fill="none" stroke="black" stroke-width="2.0" /><path d="M 849.000001 18.100000 L 846.135603 18.541767 L 843.251706 19.096671 L 840.349705 19.735764 L 837.430994 20.430101 L 834.496968 21.150734 L 831.549023 21.868718 L 828.588553 22.555105 L 825.616955 23.180950 L 822.635621 23.717305 L 819.645948 24.135224 L 816.649331 24.405761 L 813.642119 24.499972 L 810.424559 24.407577 L 807.341902 24.135580 L 804.379157 23.682375 L 801.521331 23.046356 L 798.753432 22.225916 L 796.060468 21.219449 L 793.427446 20.025349 L 790.839375 18.642009 L 788.281262 17.067824 L 785.738115 15.301186 L 783.314650 13.409619 L 780.977703 11.487107 L 778.557590 9.730926 L 776.900001 8.800000" fill="none" stroke="black" stroke-width="2.0" /><path d="M 773.700001 2.900000 L 774.284393 5.267510 L 774.604094 7.821264 L 774.687120 10.538429 L 774.561486 13.396174 L 774.255209 16.371666 L 773.796306 19.442071 L 773.212793 22.584558 L 772.532685 25.776293 L 771.783999 28.994445 L 770.994751 32.216180 L 770.192958 35.418666 L 769.406636 38.579071 L 768.663800 41.674561 L 767.992467 44.682305 L 767.420654 47.579469 L 766.976376 50.343221 L 766.686864 52.966134 L 766.458874 55.836818 L 766.238701 58.836354 L 766.058977 61.917971 L 765.952335 65.034893 L 765.951408 68.140348 L 766.088828 71.187561 L 766.397228 74.129760 L 766.909241 76.920171 L 767.388687 80.169152 L 768.134358 82.782765 L 770.092007 82.281044 L 771.100001 81.099998" fill="none" stroke="black" stroke-width="2.0" /><path d="M 767.800001 81.399998 L 769.927897 79.667251 L 772.363702 78.194418 L 775.051242 76.955352 L 777.934342 75.923900 L 780.956830 75.073914 L 784.062530 74.379242 L 787.195268 73.813737 L 790.298871 73.351246 L 793.317165 72.965620 L 796.193974 72.630710 L 798.977709 72.316760 L 801.989213 72.047150 L 805.014863 71.869235 L 808.042688 71.796912 L 811.060714 71.844081 L 814.056971 72.024640 L 817.019485 72.352489 L 819.936284 72.841526 L 822.795396 73.505650 L 825.584849 74.358760 L 828.292671 75.414755 L 830.906888 76.687534 L 833.415530 78.190994 L 835.806623 79.939037 L 838.068195 81.945559 L 840.188275 84.224461 L 842.154889 86.789640 L 843.804778 89.408049 L 845.229997 92.079506 L 846.450086 94.809933 L 847.473855 97.593740 L 848.310111 100.425337 L 848.967665 103.299134 L 849.455323 106.209540 L 849.781895 109.150967 L 849.956189 112.117823 L 849.987013 115.104519 L 849.883177 118.105465 L 849.653488 121.115070 L 849.306756 124.127745 L 848.851788 127.137900 L 848.297394 130.139945 L 847.510513 133.576430 L 846.568039 137.029821 L 845.532771 140.260721 L 844.400440 143.276111 L 843.166777 146.082970 L 841.827513 148.688279 L 840.378379 151.099018 L 838.815108 153.322166 L 837.133429 155.364704 L 835.329075 157.233611 L 833.397776 158.935867 L 831.335264 160.478453 L 829.137270 161.868349 L 826.799525 163.112533 L 824.317761 164.217987 L 821.687709 165.191691 L 818.905100 166.040624 L 815.965665 166.771766 L 812.865135 167.392097 L 809.599242 167.908598 L 806.163718 168.328248 L 802.554293 168.658027 L 799.540851 168.911746 L 796.571594 169.165789 L 793.540944 169.392041 L 790.473366 169.555437 L 787.393323 169.620912 L 784.325279 169.553400 L 781.293698 169.317837 L 778.323044 168.879159 L 775.437781 168.202299 L 772.662374 167.252193 L 770.021284 165.993776 L 767.566901 164.429227 L 765.260762 162.617229 L 763.077050 160.566571 L 761.044737 158.306226 L 759.192798 155.865168 L 757.550207 153.272371 L 756.145938 150.556810 L 755.008964 147.747456 L 754.168260 144.873286 L 753.652799 141.963272 L 753.491555 139.046388 L 753.611722 136.352107 L 754.021632 133.563396 L 754.715993 130.676416 L 755.677325 127.739792 L 756.888147 124.802150 L 758.330982 121.912112 L 759.988348 119.118306 L 761.842768 116.469355 L 763.876760 114.013884 L 766.072846 111.800518 L 768.413546 109.877882 L 770.881380 108.294600 L 773.458870 107.099298 L 776.128535 106.340601 L 778.872896 106.067133 L 781.725311 106.327656 L 784.679744 106.979119 L 787.535566 107.914952 L 790.264672 109.123565 L 792.838956 110.593367 L 795.230313 112.312770 L 797.410638 114.270183 L 799.351824 116.454017 L 801.025768 118.852682 L 802.404363 121.454587 L 803.459504 124.248143 L 804.163086 127.221761 L 804.487004 130.363850 L 804.313745 134.000600 L 803.495335 137.465976 L 802.151297 140.247013 L 800.381493 142.320622 L 798.285784 143.663713 L 795.964032 144.253197 L 793.516096 144.065986 L 791.041840 143.078988 L 788.641123 141.269116 L 786.413807 138.613280 L 785.200001 136.599998" fill="none" stroke="black" stroke-width="2.0" /></svg>