<?xml version="1.0" encoding="utf-8" ?>
<svg baseProfile="full" height="317" version="1.1" viewBox="0,0,570,317" width="570" xmlns="http://www.w3.org/2000/svg" xmlns:ev="http://www.w3.org/2001/xml-events" xmlns:xlink="http://www.w3.org/1999/xlink"><defs><style type="text/css"><![CDATA[
	.background { fill: white; }
	.line { stroke: firebrick; stroke-width: .1mm; }
	.blacksquare { fill: indigo; }
	.whitesquare { fill: white; }
]]></style></defs><path d="M 347.749096 177.400001 L 345.006925 179.074002 L 342.367712 180.751685 L 339.813463 182.424637 L 337.326182 184.084446 L 334.887876 185.722698 L 332.480550 187.330979 L 330.086209 188.900878 L 327.686858 190.423981 L 325.264504 191.891874 L 322.801152 193.296146 L 320.278806 194.628383 L 317.679473 195.880171 L 314.985159 197.043098 L 312.177867 198.108751 L 309.239605 199.068717 L 306.152377 199.914582 L 302.898188 200.637935 L 299.842191 201.216580 L 296.900117 201.790658 L 293.967346 202.387190 L 291.042796 203.009420 L 288.125388 203.660589 L 285.214040 204.343941 L 282.307671 205.062718 L 279.405201 205.820163 L 276.505548 206.619517 L 273.607633 207.464023 L 270.744382 208.356713 L 267.932980 209.354414 L 265.119248 210.448141 L 262.301512 211.596068 L 259.478099 212.756365 L 256.647336 213.887206 L 253.807550 214.946763 L 250.957068 215.893210 L 248.094216 216.684717 L 245.217322 217.279458 L 242.456194 217.623399 L 239.847028 217.687327 L 236.512135 217.525448 L 232.919306 217.056110 L 229.536332 216.197661 L 226.831005 214.868452 L 225.271117 212.986832 L 225.249096 210.700001" fill="none" stroke="black" stroke-width="2.0" /><path d="M 346.249096 176.600001 L 344.022741 178.891818 L 341.773598 181.050039 L 339.497523 183.078357 L 337.190372 184.980466 L 334.848000 186.760060 L 332.466265 188.420831 L 330.041022 189.966474 L 327.568128 191.400681 L 325.043438 192.727147 L 322.462808 193.949564 L 319.822095 195.071627 L 317.117154 196.097029 L 314.343842 197.029463 L 311.498015 197.872622 L 308.575529 198.630201 L 305.572239 199.305893 L 302.484003 199.903391 L 299.306675 200.426389 L 296.090442 200.874589 L 293.087298 201.315955 L 290.104959 201.818761 L 287.141661 202.377800 L 284.195636 202.987864 L 281.265118 203.643746 L 278.348339 204.340241 L 275.443535 205.072140 L 272.548937 205.834238 L 269.662779 206.621327 L 266.783295 207.428200 L 263.908718 208.249651 L 261.037281 209.080472 L 258.167218 209.915457 L 255.296762 210.749399 L 252.424146 211.577090 L 249.547605 212.393325 L 246.665370 213.192896 L 243.775677 213.970596 L 240.876757 214.721219 L 237.966845 215.439557 L 235.044173 216.120404 L 232.106976 216.758553 L 229.153486 217.348796 L 227.516924 215.572206 L 227.649096 214.600001" fill="none" stroke="black" stroke-width="2.0" /><path d="M 322.249096 195.200001 L 324.601099 195.249640 L 327.206212 195.382816 L 330.026323 195.575918 L 333.023323 195.805337 L 336.159098 196.047461 L 339.395538 196.278681 L 342.694531 196.475385 L 346.017966 196.613963 L 349.327732 196.670805 L 352.585716 196.622301 L 355.753808 196.444839 L 358.793896 196.114809 L 361.667869 195.608601 L 364.337615 194.902604 L 366.968761 193.885514 L 369.873345 192.262293 L 372.268862 190.329775 L 374.214123 188.126462 L 375.767938 185.690857 L 376.989117 183.061460 L 377.936470 180.276773 L 378.668807 177.375298 L 379.244940 174.395537 L 379.723678 171.375992 L 380.163832 168.355163 L 380.624212 165.371554 L 381.163628 162.463665 L 381.840890 159.669998 L 382.649096 157.200001" fill="none" stroke="black" stroke-width="2.0" /><path d="M 383.449096 159.600001 L 382.974226 162.561529 L 382.326345 165.510869 L 381.503661 168.426496 L 380.504379 171.286883 L 379.326705 174.070504 L 377.968846 176.755833 L 376.429009 179.321344 L 374.705398 181.745510 L 372.796220 184.006805 L 370.699681 186.083703 L 368.413988 187.954677 L 365.937346 189.598202 L 363.267962 190.992751 L 360.413874 192.113711 L 357.528198 192.946115 L 354.610801 193.551707 L 351.666033 193.963938 L 348.698240 194.216255 L 345.711771 194.342109 L 342.710975 194.374948 L 339.700201 194.348222 L 336.683796 194.295380 L 333.666109 194.249872 L 330.651489 194.245146 L 327.644283 194.314651 L 324.648841 194.491837 L 324.549096 194.500001" fill="none" stroke="black" stroke-width="2.0" /><path d="M 384.249096 166.600001 L 383.273630 169.107811 L 382.180000 171.832899 L 380.972530 174.693980 L 379.655544 177.609769 L 378.233366 180.498983 L 376.710319 183.280338 L 375.090727 185.872548 L 373.378913 188.194329 L 371.849096 189.900001" fill="none" stroke="black" stroke-width="2.0" /><path d="M 353.949096 75.900001 L 356.981481 76.631223 L 359.736722 77.767590 L 362.226696 79.269377 L 364.463282 81.096861 L 366.458358 83.210317 L 368.223802 85.570022 L 369.771493 88.136252 L 371.113309 90.869282 L 372.261128 93.729390 L 373.226829 96.676850 L 374.022289 99.671939 L 374.659387 102.674933 L 375.150001 105.646108 L 375.506009 108.545741 L 375.784742 111.465921 L 376.177751 114.468018 L 376.677916 117.420971 L 377.263378 120.338767 L 377.912279 123.235396 L 378.602761 126.124847 L 379.312966 129.021110 L 380.021036 131.938174 L 380.705113 134.890027 L 381.350343 137.997041 L 381.818588 141.098017 L 382.096311 144.117300 L 382.205480 147.072898 L 382.168067 149.982820 L 382.006043 152.865074 L 381.741376 155.737669 L 381.396038 158.618613 L 380.991999 161.525914 L 380.551230 164.477582 L 380.095700 167.491624 L 379.647380 170.586049 L 379.549096 171.300001" fill="none" stroke="black" stroke-width="2.0" /><path d="M 355.549096 75.100001 L 358.230224 76.430699 L 360.726516 78.030860 L 363.034039 79.876882 L 365.148859 81.945166 L 367.067042 84.212111 L 368.784657 86.654118 L 370.297768 89.247585 L 371.602444 91.968913 L 372.694749 94.794502 L 373.570752 97.700751 L 374.226519 100.664060 L 374.658115 103.660829 L 374.864727 106.659913 L 375.049162 109.601986 L 375.326130 112.543220 L 375.683761 115.484238 L 376.110188 118.425660 L 376.593542 121.368105 L 377.121955 124.312195 L 377.683558 127.258550 L 378.266483 130.207791 L 378.858862 133.160539 L 379.448825 136.117413 L 380.024506 139.079035 L 380.574034 142.046025 L 381.085543 145.019004 L 381.547163 147.998591 L 381.947026 150.985409 L 382.273264 153.980077 L 382.514008 156.983216 L 382.657391 159.995446 L 382.691543 163.017389 L 382.649096 165.000001" fill="none" stroke="black" stroke-width="2.0" /><path d="M 337.749096 75.100001 L 334.652168 75.146634 L 331.603535 75.286236 L 328.597413 75.518361 L 325.628015 75.842566 L 322.689557 76.258404 L 319.776252 76.765432 L 316.882314 77.363203 L 314.001959 78.051272 L 311.129399 78.829195 L 308.258851 79.696527 L 305.384527 80.652822 L 302.517135 81.602315 L 299.608089 82.456828 L 296.666685 83.234401 L 293.703949 83.952956 L 290.730910 84.630411 L 287.758595 85.284687 L 284.798032 85.933703 L 281.860248 86.595379 L 278.956271 87.287635 L 276.097129 88.028390 L 273.293848 88.835565 L 270.557458 89.727079 L 270.349096 89.800001" fill="none" stroke="black" stroke-width="2.0" /><path d="M 288.849096 103.000001 L 287.823860 100.966775 L 285.868852 98.910390 L 283.265506 96.915614 L 280.295257 95.067218 L 277.239542 93.449971 L 274.379795 92.148642 L 271.997451 91.248003 L 269.284407 90.437152 L 266.418428 89.751031 L 263.471395 89.187964 L 260.464707 88.728156 L 257.419764 88.351814 L 254.357963 88.039144 L 251.300703 87.770351 L 248.269383 87.525643 L 245.285403 87.285224 L 242.370159 87.029302 L 239.937985 86.794400 L 237.426809 86.590495 L 234.457109 86.419470 L 231.165869 86.331266 L 227.690073 86.375826 L 224.166703 86.603090 L 220.732744 87.063002 L 217.525178 87.805502 L 214.680989 88.880533 L 212.337160 90.338037 L 210.630674 92.227955 L 209.698515 94.600229 L 209.677666 97.504801 L 209.849096 98.400001" fill="none" stroke="black" stroke-width="2.0" /><path d="M 282.649096 97.600001 L 280.512886 95.737099 L 278.184531 94.073000 L 275.684356 92.597867 L 273.032689 91.301860 L 270.249853 90.175142 L 267.356176 89.207873 L 264.371982 88.390216 L 261.317598 87.712331 L 258.213349 87.164381 L 255.079561 86.736526 L 251.936559 86.418928 L 248.804670 86.201749 L 245.704219 86.075150 L 242.655532 86.029293 L 239.678934 86.054339 L 236.794752 86.140449 L 234.023310 86.277786 L 231.815708 86.425755 L 229.759416 86.606551 L 226.627097 86.960959 L 222.883992 87.527011 L 218.995340 88.342740 L 215.426381 89.446179 L 212.642356 90.875361 L 211.108504 92.668318 L 211.290064 94.863085 L 212.149096 96.100001" fill="none" stroke="black" stroke-width="2.0" /><path d="M 271.049096 86.700001 L 273.952929 86.829852 L 276.873762 86.850405 L 279.809909 86.769645 L 282.759688 86.595560 L 285.721416 86.336135 L 288.693407 85.999357 L 291.673980 85.593211 L 294.661451 85.125684 L 297.654135 84.604762 L 300.650350 84.038432 L 303.648411 83.434678 L 306.646636 82.801488 L 309.643340 82.146848 L 312.636841 81.478744 L 315.625453 80.805162 L 318.607495 80.134088 L 321.581282 79.473508 L 324.545131 78.831409 L 327.497358 78.215776 L 330.436279 77.634597 L 333.360212 77.095856 L 336.267472 76.607541 L 339.156376 76.177637 L 342.025240 75.814131 L 339.288168 75.800001 L 336.276458 75.800001 L 333.269916 75.800001 L 331.549096 75.800001" fill="none" stroke="black" stroke-width="2.0" /><path d="M 364.049096 79.000001 L 366.452090 78.697009 L 369.028234 77.949509 L 371.730175 76.829296 L 374.510558 75.408164 L 377.322028 73.757909 L 380.117233 71.950325 L 382.848817 70.057208 L 385.469427 68.150352 L 387.931709 66.301552 L 390.188308 64.582605 L 392.428295 62.882876 L 394.867478 61.024390 L 397.271315 59.173052 L 399.641610 57.323279 L 401.980172 55.469486 L 404.288807 53.606087 L 406.569321 51.727498 L 408.823522 49.828136 L 411.053217 47.902413 L 413.260212 45.944748 L 415.446314 43.949553 L 417.613330 41.911245 L 419.763067 39.824240 L 421.897331 37.682951 L 424.017930 35.481796 L 426.123294 33.218877 L 428.164699 31.011553 L 430.260839 28.796850 L 432.408957 26.585110 L 434.606294 24.386674 L 436.850093 22.211884 L 439.137596 20.071079 L 441.466046 17.974603 L 443.832685 15.932796 L 446.234755 13.955998 L 448.669498 12.054553 L 451.134158 10.238800 L 453.625976 8.519081 L 456.142195 6.905737 L 458.680056 5.409109 L 461.236803 4.039540 L 463.809678 2.807369 L 466.395922 1.722939 L 468.992779 0.796589 L 471.597490 0.038663 L 471.749096 0.000000" fill="none" stroke="black" stroke-width="2.0" /><path d="M 471.849096 1.400000 L 468.945172 1.395776 L 466.089620 1.726750 L 463.283923 2.365635 L 460.529564 3.285142 L 457.828026 4.457983 L 455.180793 5.856869 L 452.589347 7.454512 L 450.055171 9.223623 L 447.579749 11.136914 L 445.164563 13.167096 L 442.811097 15.286881 L 440.520833 17.468981 L 438.295256 19.686107 L 436.135847 21.910971 L 434.044089 24.116283 L 432.021467 26.274757 L 430.069463 28.359103 L 428.189560 30.342033 L 426.997715 31.579647 L 425.738277 32.879875 L 424.194042 34.463016 L 422.389768 36.297825 L 420.350214 38.353058 L 418.100140 40.597470 L 415.664303 42.999815 L 413.067463 45.528850 L 410.334378 48.153329 L 407.489807 50.842007 L 404.558509 53.563641 L 401.565243 56.286984 L 398.534768 58.980793 L 395.491842 61.613822 L 392.461223 64.154827 L 389.467672 66.572563 L 386.535946 68.835785 L 383.690804 70.913248 L 380.957006 72.773708 L 378.359309 74.385919 L 375.922473 75.718638 L 373.671257 76.740618 L 371.630418 77.420617 L 369.824717 77.727387 L 368.278911 77.629686 L 367.017760 77.096268 L 366.449096 76.600001" fill="none" stroke="black" stroke-width="2.0" /><path d="M 458.649096 4.500000 L 455.933747 5.156111 L 453.238931 6.063508 L 450.569995 7.200146 L 447.932288 8.543983 L 445.331157 10.072975 L 442.771951 11.765077 L 440.260017 13.598246 L 437.800704 15.550439 L 435.399358 17.599612 L 433.061328 19.723720 L 430.791962 21.900721 L 428.596608 24.108570 L 426.480613 26.325224 L 424.449326 28.528639 L 422.508094 30.696772 L 420.662265 32.807578 L 418.826202 34.940856 L 416.809431 37.161608 L 414.718897 39.308596 L 412.568191 41.395413 L 410.370904 43.435648 L 408.140626 45.442892 L 405.890948 47.430737 L 403.635462 49.412773 L 401.387758 51.402592 L 399.161427 53.413783 L 396.981244 55.450269 L 394.887765 57.510735 L 392.810774 59.639319 L 390.735647 61.808034 L 388.647760 63.988894 L 386.532490 66.153910 L 384.375211 68.275096 L 382.161300 70.324465 L 379.876134 72.274028 L 377.505088 74.095799 L 375.033538 75.761791 L 372.446860 77.244017 L 369.730431 78.514488 L 366.869626 79.545219 L 366.349096 79.700001" fill="none" stroke="black" stroke-width="2.0" /><path d="M 476.449096 1.400000 L 479.128402 2.295274 L 481.622660 3.763331 L 483.940873 5.685113 L 486.092046 7.941561 L 488.085184 10.413617 L 489.929291 12.982221 L 491.633371 15.528315 L 493.206429 17.932841 L 494.823670 20.311428 L 496.530466 22.802833 L 498.220929 25.298459 L 499.893655 27.799710 L 501.547237 30.307993 L 503.180270 32.824711 L 504.791351 35.351271 L 506.379072 37.889077 L 507.942030 40.439534 L 509.478820 43.004048 L 510.988035 45.584023 L 512.468271 48.180866 L 513.918123 50.795980 L 515.336185 53.430772 L 516.721053 56.086645 L 518.071322 58.765006 L 519.385585 61.467260 L 520.660678 64.200626 L 521.859725 66.973359 L 522.977116 69.771484 L 524.023320 72.591546 L 525.008806 75.430090 L 525.944043 78.283661 L 526.839499 81.148805 L 527.705645 84.022066 L 528.552948 86.899990 L 529.391879 89.779122 L 530.232906 92.656007 L 531.086497 95.527191 L 531.963123 98.389218 L 532.873253 101.238635 L 533.827354 104.071985 L 534.835897 106.885815 L 535.909351 109.676669 L 537.058184 112.441094 L 538.285407 115.164871 L 539.614347 117.836624 L 541.041640 120.474632 L 542.541089 123.086954 L 544.086498 125.681651 L 545.651670 128.266784 L 547.210408 130.850414 L 548.736515 133.440600 L 550.203794 136.045404 L 551.586049 138.672886 L 552.933370 141.422347 L 554.194349 144.201950 L 555.357581 146.988027 L 556.429248 149.782698 L 557.415536 152.588082 L 558.322627 155.406300 L 559.156705 158.239473 L 559.923955 161.089719 L 560.630559 163.959160 L 561.282703 166.849916 L 561.886569 169.764106 L 562.448342 172.703851 L 562.974205 175.671272 L 563.470342 178.668487 L 563.942937 181.697618 L 564.357662 184.431037 L 564.758467 187.175145 L 565.148916 190.024996 L 565.517899 192.966177 L 565.854310 195.984280 L 566.147039 199.064894 L 566.384978 202.193607 L 566.557021 205.356011 L 566.652058 208.537694 L 566.658981 211.724245 L 566.566683 214.901255 L 566.364056 218.054313 L 566.039991 221.169009 L 565.583380 224.230932 L 564.983116 227.225671 L 564.228090 230.138816 L 563.307194 232.955958 L 562.209320 235.662684 L 560.923360 238.244586 L 559.438206 240.687251 L 557.742750 242.976271 L 555.825884 245.097234 L 553.676500 247.035730 L 551.283490 248.777349 L 549.149096 247.900001" fill="none" stroke="black" stroke-width="2.0" /><path d="M 480.349096 3.000000 L 482.105866 5.333025 L 483.914399 7.653824 L 485.765858 9.966116 L 487.651407 12.273624 L 489.562209 14.580066 L 491.489428 16.889165 L 493.424228 19.204640 L 495.357772 21.530212 L 497.281223 23.869602 L 499.185745 26.226530 L 501.062502 28.604717 L 502.902658 31.007884 L 504.697375 33.439751 L 506.452074 35.930080 L 508.169523 38.503363 L 509.808359 41.085869 L 511.371520 43.679435 L 512.861943 46.285896 L 514.282567 48.907088 L 515.636328 51.544847 L 516.926165 54.201010 L 518.155015 56.877412 L 519.325814 59.575888 L 520.441502 62.298276 L 521.505015 65.046411 L 522.519291 67.822129 L 523.487268 70.627266 L 524.411883 73.463658 L 525.296073 76.333141 L 526.142777 79.237550 L 526.954932 82.178723 L 527.735475 85.158494 L 528.488528 88.147241 L 529.256991 91.099346 L 530.053966 94.023254 L 530.882989 96.919956 L 531.747598 99.790442 L 532.651328 102.635702 L 533.597716 105.456727 L 534.590299 108.254506 L 535.632614 111.030030 L 536.728196 113.784290 L 537.880583 116.518275 L 539.093311 119.232975 L 540.369916 121.929382 L 541.713935 124.608485 L 543.128904 127.271273 L 544.618361 129.918739 L 546.147425 132.506577 L 547.624169 135.054017 L 549.072466 137.644125 L 550.490124 140.273712 L 551.874949 142.939588 L 553.224751 145.638567 L 554.537338 148.367459 L 555.810516 151.123076 L 557.042094 153.902230 L 558.229881 156.701731 L 559.371683 159.518392 L 560.465310 162.349025 L 561.508568 165.190440 L 562.499266 168.039449 L 563.435212 170.892865 L 564.314214 173.747497 L 565.134079 176.600159 L 565.892616 179.447661 L 566.594484 182.314051 L 567.260094 185.279027 L 567.861340 188.241900 L 568.393640 191.203633 L 568.852410 194.165193 L 569.233066 197.127544 L 569.531026 200.091651 L 569.741705 203.058478 L 569.860522 206.028991 L 569.882891 209.004155 L 569.804231 211.984934 L 569.619957 214.972294 L 569.325487 217.967199 L 568.916237 220.970615 L 568.507435 223.168355 L 567.863814 225.548682 L 566.921798 228.497234 L 565.720834 231.832136 L 564.300368 235.371515 L 562.699848 238.933495 L 560.958721 242.336204 L 559.116432 245.397767 L 557.212429 247.936310 L 555.286159 249.769959 L 553.377068 250.716839 L 551.524604 250.595077 L 550.949096 250.300001" fill="none" stroke="black" stroke-width="2.0" /><path d="M 562.549096 240.200001 L 562.923036 241.487819 L 561.488327 243.067431 L 558.755612 244.801509 L 555.235534 246.552725 L 551.438737 248.183754 L 547.875865 249.557268 L 545.057559 250.535940 L 542.861941 251.130504 L 539.916803 251.697232 L 536.953618 252.095483 L 533.976221 252.335007 L 530.988446 252.425552 L 527.994126 252.376868 L 524.997097 252.198704 L 522.001190 251.900810 L 519.010242 251.492935 L 516.028085 250.984827 L 513.058554 250.386237 L 510.105483 249.706913 L 507.172705 248.956605 L 504.264054 248.145062 L 501.383366 247.282034 L 498.534473 246.377269 L 495.721209 245.440517 L 492.947409 244.481527 L 490.125308 243.477283 L 487.271831 242.470544 L 484.418933 241.475077 L 481.567741 240.487640 L 478.719381 239.504990 L 475.874979 238.523882 L 473.035660 237.541074 L 470.202552 236.553323 L 467.376780 235.557386 L 464.559471 234.550018 L 461.751750 233.527978 L 458.954743 232.488022 L 456.169577 231.426906 L 453.397378 230.341388 L 450.639272 229.228224 L 447.896385 228.084171 L 445.169842 226.905986 L 442.460772 225.690426 L 439.770298 224.434248 L 437.099548 223.134207 L 434.449647 221.787062 L 431.821722 220.389569 L 429.216899 218.938485 L 426.636304 217.430566 L 424.081062 215.862570 L 421.552301 214.231253 L 419.051146 212.533371 L 416.578723 210.765683 L 414.136159 208.924944 L 411.724579 207.007912 L 410.069178 205.725098 L 407.988851 204.262004 L 405.429141 202.523973 L 402.527964 200.572145 L 399.423235 198.467661 L 396.252869 196.271664 L 393.154781 194.045294 L 390.266888 191.849692 L 387.727104 189.746001 L 385.673344 187.795361 L 384.243524 186.058913 L 383.575559 184.597799 L 383.549096 184.400001" fill="none" stroke="black" stroke-width="2.0" /><path d="M 564.849096 234.800001 L 563.950495 237.897083 L 562.759806 240.668441 L 561.295322 243.127790 L 559.575339 245.288846 L 557.618150 247.165322 L 555.442049 248.770935 L 553.065330 250.119399 L 550.506287 251.224429 L 547.783214 252.099740 L 544.914406 252.759047 L 541.918155 253.216066 L 538.812756 253.484511 L 535.616504 253.578097 L 532.347692 253.510540 L 529.024613 253.295554 L 525.665563 252.946854 L 522.288835 252.478156 L 518.912723 251.903174 L 515.555521 251.235624 L 512.235523 250.489220 L 508.971023 249.677678 L 505.780316 248.814712 L 502.681694 247.914038 L 499.693453 246.989371 L 496.833886 246.054425 L 494.121287 245.122915 L 491.573950 244.208558 L 489.210169 243.325067 L 487.048238 242.486158 L 485.106451 241.705545 L 482.446501 240.613746 L 479.656616 239.451391 L 476.878640 238.275364 L 474.112293 237.085413 L 471.357297 235.881286 L 468.613371 234.662733 L 465.880236 233.429501 L 463.157613 232.181339 L 460.445221 230.917996 L 457.742783 229.639220 L 455.050018 228.344759 L 452.366646 227.034363 L 449.692388 225.707778 L 447.026965 224.364755 L 444.370098 223.005040 L 441.721506 221.628384 L 439.080910 220.234533 L 436.448031 218.823238 L 433.822590 217.394245 L 431.204306 215.947305 L 428.592900 214.482164 L 425.988093 212.998572 L 423.389606 211.496277 L 420.797158 209.975027 L 418.210471 208.434571 L 415.629265 206.874658 L 413.053260 205.295035 L 410.568496 203.748991 L 408.952442 202.719246 L 406.729597 201.282754 L 404.043232 199.516243 L 401.036621 197.496442 L 397.853035 195.300080 L 394.635746 193.003886 L 391.528028 190.684588 L 388.673153 188.418916 L 386.214393 186.283598 L 384.295020 184.355364 L 383.058308 182.710941 L 382.647527 181.427059 L 382.649096 181.400001" fill="none" stroke="black" stroke-width="2.0" /><path d="M 380.349096 118.500001 L 381.280937 116.840784 L 382.911640 115.698571 L 385.145189 115.018820 L 387.885564 114.746989 L 391.036749 114.828537 L 394.502724 115.208921 L 398.187473 115.833600 L 401.994977 116.648031 L 405.829217 117.597674 L 409.594177 118.627985 L 413.193838 119.684424 L 416.532181 120.712448 L 419.513190 121.657516 L 422.040846 122.465085 L 424.019130 123.080613 L 425.710506 123.547083 L 428.604556 124.333101 L 431.485276 125.157810 L 434.354698 126.015684 L 437.214851 126.901195 L 440.067766 127.808816 L 442.915473 128.733020 L 445.760003 129.668280 L 448.603386 130.609069 L 451.447653 131.549860 L 454.294833 132.485126 L 457.146957 133.409340 L 460.006055 134.316975 L 462.874158 135.202504 L 465.753296 136.060400 L 468.645499 136.885136 L 471.552798 137.671184 L 474.477223 138.413018 L 477.398310 139.110789 L 480.324537 139.754065 L 483.261876 140.344196 L 486.209218 140.885624 L 489.165453 141.382787 L 492.129470 141.840126 L 495.100159 142.262081 L 498.076412 142.653091 L 501.057117 143.017597 L 504.041164 143.360039 L 507.027444 143.684855 L 510.014847 143.996488 L 512.658482 144.328388 L 515.598138 144.737742 L 518.744272 145.162074 L 522.001258 145.538518 L 525.273466 145.804207 L 528.465271 145.896275 L 531.481045 145.751857 L 534.225159 145.308086 L 536.149096 144.700001" fill="none" stroke="black" stroke-width="2.0" /><path d="M 416.049096 118.500001 L 418.363173 117.901258 L 421.092719 117.560982 L 424.130814 117.422672 L 427.370540 117.429824 L 430.704977 117.525938 L 434.027205 117.654511 L 437.230305 117.759040 L 440.207359 117.783024 L 442.951428 117.662515 L 446.012329 117.348251 L 449.022718 116.901616 L 451.988645 116.338201 L 454.916158 115.673600 L 457.811305 114.923403 L 460.680135 114.103203 L 463.528698 113.228594 L 466.363041 112.315165 L 469.189213 111.378511 L 472.013263 110.434222 L 474.841240 109.497892 L 477.679193 108.585112 L 480.533169 107.711475 L 483.409219 106.892573 L 486.313390 106.143998 L 489.251731 105.481342 L 488.316280 104.500479 L 488.249096 104.500001" fill="none" stroke="black" stroke-width="2.0" /><path d="M 416.049096 120.800001 L 418.881972 120.075837 L 421.775786 119.507328 L 424.719032 119.062988 L 427.700205 118.711327 L 430.707800 118.420857 L 433.730310 118.160089 L 436.756232 117.897535 L 439.774058 117.601706 L 442.772285 117.241115 L 445.740570 116.783982 L 448.703441 116.197915 L 451.625733 115.501396 L 454.514894 114.712117 L 457.378374 113.847772 L 460.223624 112.926053 L 463.058093 111.964654 L 465.889230 110.981268 L 468.724485 109.993587 L 471.435806 109.077473 L 474.243388 108.311530 L 477.358012 107.582896 L 480.624224 106.841912 L 483.886575 106.038921 L 486.989613 105.124263 L 489.777888 104.048282 L 492.095947 102.761319 L 493.549096 101.500001" fill="none" stroke="black" stroke-width="2.0" /><path d="M 537.749096 144.800001 L 535.264546 143.511815 L 532.358762 143.003357 L 529.236212 142.978148 L 526.101365 143.139711 L 523.137227 143.199518 L 520.135303 143.146580 L 517.139798 143.010263 L 514.150711 142.796433 L 511.168042 142.510959 L 508.191792 142.159708 L 505.221960 141.748547 L 502.258546 141.283344 L 499.301550 140.769965 L 496.350973 140.214279 L 493.406814 139.622152 L 490.469073 138.999453 L 487.537750 138.352048 L 484.612846 137.685806 L 481.691775 136.996734 L 478.781725 136.253008 L 475.887997 135.459075 L 473.008957 134.619898 L 470.142973 133.740436 L 467.288411 132.825653 L 464.443639 131.880509 L 461.607023 130.909965 L 458.776932 129.918984 L 455.951732 128.912526 L 453.129790 127.895553 L 450.309473 126.873026 L 447.489149 125.849907 L 444.667185 124.831158 L 441.841947 123.821739 L 439.011803 122.826612 L 436.175120 121.850739 L 433.330265 120.899081 L 430.475605 119.976599 L 427.609508 119.088255 L 424.730340 118.239010 L 421.896574 117.446765 L 419.196539 116.683698 L 416.374298 115.886624 L 413.453366 115.093819 L 410.457261 114.343557 L 407.409496 113.674115 L 404.333588 113.123768 L 401.253051 112.730790 L 398.191403 112.533457 L 395.172157 112.570044 L 392.218829 112.878826 L 389.354936 113.498079 L 386.603992 114.466078 L 383.989513 115.821099 L 383.549096 116.100001" fill="none" stroke="black" stroke-width="2.0" /><path d="M 379.549096 110.700001 L 382.019948 109.433613 L 384.649112 108.311535 L 387.413287 107.318384 L 390.289177 106.438781 L 393.253482 105.657342 L 396.282905 104.958687 L 399.354146 104.327434 L 402.443908 103.748201 L 405.528891 103.205607 L 408.585797 102.684271 L 411.591328 102.168811 L 414.522186 101.643845 L 417.355071 101.093992 L 420.108039 100.496772 L 423.029890 99.847888 L 425.958396 99.209278 L 428.892016 98.577669 L 431.829210 97.949786 L 434.768438 97.322357 L 437.708158 96.692107 L 440.646830 96.055763 L 443.582913 95.410051 L 446.514867 94.751697 L 449.441152 94.077428 L 452.360226 93.383969 L 455.270549 92.668047 L 458.170581 91.926387 L 461.058780 91.155718 L 463.942660 90.328641 L 466.799143 89.397607 L 469.618002 88.375499 L 472.402867 87.271572 L 475.157366 86.095081 L 477.885131 84.855280 L 480.589789 83.561426 L 483.274971 82.222773 L 485.944306 80.848576 L 488.601423 79.448091 L 491.249952 78.030573 L 493.893523 76.605276 L 496.535765 75.181456 L 499.180307 73.768369 L 501.830778 72.375269 L 501.377011 71.138665 L 501.149096 71.200001" fill="none" stroke="black" stroke-width="2.0" /><path d="M 383.449096 113.800001 L 385.949586 112.482657 L 388.527559 111.230929 L 391.176490 110.041032 L 393.889850 108.909181 L 396.661115 107.831593 L 399.483755 106.804483 L 402.351246 105.824067 L 405.257060 104.886559 L 408.194671 103.988176 L 411.157551 103.125133 L 414.139173 102.293646 L 417.133012 101.489930 L 420.132540 100.710201 L 423.131231 99.950675 L 426.122557 99.207566 L 429.099993 98.477091 L 432.057010 97.755465 L 434.987083 97.038904 L 437.883684 96.323623 L 440.740287 95.605838 L 443.550365 94.881764 L 446.307392 94.147617 L 449.225126 93.351056 L 452.170675 92.555818 L 455.094205 91.769209 L 457.996778 90.982732 L 460.879458 90.187889 L 463.743305 89.376185 L 466.589381 88.539122 L 469.418750 87.668204 L 472.232473 86.754933 L 475.031612 85.790813 L 477.817229 84.767348 L 480.590386 83.676040 L 483.352146 82.508393 L 486.103570 81.255909 L 488.845721 79.910093 L 491.202473 78.738342 L 494.106988 77.381221 L 497.372688 75.806389 L 500.594526 74.084288 L 503.367454 72.285362 L 505.286427 70.480052 L 505.949096 68.800001" fill="none" stroke="black" stroke-width="2.0" /><path d="M 220.649096 141.700001 L 217.623934 142.177723 L 214.665818 142.813122 L 211.769602 143.594222 L 208.930136 144.509044 L 206.142275 145.545612 L 203.400871 146.691946 L 200.700776 147.936071 L 198.036843 149.266007 L 195.403925 150.669778 L 192.796874 152.135407 L 190.210543 153.650915 L 187.639784 155.204324 L 185.079450 156.783659 L 182.524394 158.376939 L 179.969469 159.972189 L 177.409526 161.557431 L 174.839419 163.120687 L 172.254000 164.649979 L 169.686548 166.126844 L 167.114829 167.589065 L 164.528664 169.043511 L 161.928718 170.490039 L 159.315656 171.928503 L 156.690141 173.358762 L 154.052839 174.780671 L 151.404415 176.194086 L 148.745532 177.598863 L 146.076857 178.994860 L 143.399053 180.381932 L 140.712786 181.759936 L 138.018720 183.128727 L 135.317519 184.488162 L 132.609849 185.838098 L 129.896373 187.178390 L 127.177758 188.508895 L 124.454667 189.829470 L 121.727766 191.139970 L 118.997718 192.440251 L 116.265189 193.730171 L 113.530843 195.009585 L 110.795346 196.278349 L 108.059361 197.536321 L 105.323553 198.783355 L 102.588588 200.019309 L 99.855130 201.244039 L 97.123843 202.457401 L 94.395392 203.659251 L 91.670442 204.849446 L 88.949659 206.027841 L 86.233705 207.194294 L 86.465795 206.828408 L 88.149096 205.200001" fill="none" stroke="black" stroke-width="2.0" /><path d="M 186.549096 153.400001 L 183.973818 152.242899 L 181.242029 151.296981 L 178.380806 150.540583 L 175.417227 149.952044 L 172.378371 149.509700 L 169.291316 149.191889 L 166.183141 148.976949 L 163.080923 148.843216 L 160.011742 148.769029 L 157.002674 148.732724 L 154.080799 148.712640 L 151.306962 148.688354 L 148.567722 148.670510 L 145.765234 148.668004 L 142.904936 148.683142 L 139.992265 148.718227 L 137.032658 148.775565 L 134.031553 148.857461 L 130.994388 148.966219 L 127.926599 149.104144 L 124.833625 149.273541 L 121.720902 149.476714 L 118.593869 149.715969 L 115.457962 149.993610 L 112.318620 150.311941 L 109.181280 150.673269 L 106.051378 151.079897 L 102.934354 151.534130 L 99.835643 152.038273 L 96.760684 152.594632 L 93.714914 153.205509 L 90.703771 153.873211 L 87.732692 154.600042 L 84.807114 155.388307 L 81.932475 156.240310 L 79.114213 157.158357 L 76.357765 158.144753 L 73.668568 159.201801 L 71.052060 160.331807 L 68.513678 161.537075 L 66.058861 162.819911 L 66.283801 163.299279 L 69.057657 162.163459 L 69.449100 161.900001" fill="none" stroke="black" stroke-width="2.0" /><path d="M 188.849096 152.600001 L 186.776960 151.262644 L 184.360195 150.158456 L 181.652815 149.265734 L 178.708834 148.562776 L 175.582268 148.027880 L 172.327130 147.639343 L 168.997435 147.375463 L 165.647197 147.214538 L 162.330432 147.134866 L 159.101153 147.114744 L 156.013376 147.132470 L 153.121114 147.166343 L 150.478382 147.194659 L 147.802588 147.194969 L 144.803596 147.216321 L 141.802796 147.280596 L 138.801079 147.385345 L 135.799335 147.528120 L 132.798456 147.706472 L 129.799331 147.917951 L 126.802851 148.160110 L 123.809906 148.430498 L 120.821387 148.726667 L 117.838185 149.046168 L 114.861190 149.386552 L 111.891293 149.745370 L 108.929384 150.120174 L 106.056584 150.487882 L 103.186769 150.805906 L 100.240936 151.095173 L 97.236430 151.374914 L 94.190596 151.664360 L 91.120780 151.982741 L 88.044328 152.349289 L 84.978584 152.783233 L 81.940894 153.303805 L 78.948604 153.930235 L 76.019059 154.681754 L 73.169604 155.577593 L 70.417584 156.636983 L 67.780345 157.879154 L 65.275233 159.323337 L 64.849100 159.600001" fill="none" stroke="black" stroke-width="2.0" /><path d="M 223.749096 144.800001 L 220.754802 144.260884 L 217.800209 144.047739 L 214.882942 144.132705 L 212.000626 144.487924 L 209.150884 145.085534 L 206.331341 145.897675 L 203.539621 146.896489 L 200.773349 148.054113 L 198.030150 149.342690 L 195.307646 150.734357 L 192.603463 152.201256 L 189.915225 153.715526 L 187.240557 155.249308 L 184.577082 156.774741 L 181.922425 158.263964 L 179.274210 159.689119 L 176.630063 161.022345 L 173.960421 162.251385 L 171.229901 163.484757 L 168.508482 164.738983 L 165.795586 166.012734 L 163.090632 167.304679 L 160.393042 168.613486 L 157.702236 169.937826 L 155.017634 171.276367 L 152.338657 172.627779 L 149.664725 173.990731 L 146.995259 175.363892 L 144.329680 176.745932 L 141.667408 178.135521 L 139.007863 179.531327 L 136.350466 180.932019 L 133.694638 182.336268 L 131.039798 183.742743 L 128.385368 185.150112 L 125.730769 186.557045 L 123.075419 187.962211 L 120.418741 189.364281 L 117.760154 190.761922 L 115.099080 192.153805 L 112.434938 193.538599 L 109.767149 194.914973 L 107.095134 196.281596 L 104.418313 197.637138 L 101.736107 198.980268 L 99.047935 200.309655 L 96.353220 201.623970 L 93.651381 202.921880 L 90.941838 204.202056 L 88.224013 205.463166 L 85.497325 206.703880 L 82.761196 207.922868 L 80.015045 209.118799 L 77.258294 210.290341 L 74.490363 211.436165 L 72.023936 212.478412 L 74.359089 211.138100 L 75.749096 210.000001" fill="none" stroke="black" stroke-width="2.0" /><path d="M 212.149096 101.400001 L 213.614620 100.063645 L 215.000474 100.591023 L 216.314524 101.613124 L 217.558456 103.092257 L 218.733953 104.990730 L 219.842699 107.270850 L 220.886377 109.894925 L 221.866672 112.825264 L 222.785266 116.024173 L 223.643844 119.453962 L 224.444090 123.076938 L 225.187686 126.855408 L 225.876318 130.751681 L 226.511668 134.728064 L 227.095421 138.746865 L 227.629259 142.770393 L 228.114868 146.760954 L 228.553930 150.680858 L 228.948130 154.492411 L 229.299150 158.157922 L 229.608676 161.639698 L 229.878390 164.900048 L 230.109976 167.901279 L 230.305118 170.605698 L 230.465500 172.975615 L 230.592806 174.973337 L 230.688719 176.561171 L 230.767182 177.947981 L 230.888267 181.121372 L 230.920543 184.258166 L 230.852616 187.353263 L 230.673092 190.401568 L 230.370577 193.397982 L 229.933675 196.337408 L 229.350992 199.214748 L 228.611133 202.024904 L 227.702704 204.762780 L 226.614310 207.423277 L 225.334557 210.001298 L 223.852050 212.491746 L 222.155394 214.889522 L 220.233195 217.189529 L 218.074058 219.386670 L 215.721135 221.440827 L 213.468716 223.364704 L 211.244132 225.331008 L 209.044829 227.335907 L 206.868256 229.375574 L 204.711858 231.446177 L 202.573084 233.543889 L 200.449379 235.664880 L 198.338192 237.805319 L 196.236969 239.961379 L 194.143156 242.129228 L 192.054203 244.305039 L 189.967554 246.484980 L 187.880658 248.665224 L 185.790961 250.841941 L 183.695910 253.011300 L 181.592953 255.169473 L 179.479537 257.312631 L 177.353108 259.436943 L 175.211113 261.538580 L 173.051000 263.613714 L 170.882697 265.645720 L 168.752056 267.569038 L 166.556781 269.478736 L 164.301228 271.372409 L 161.989753 273.247650 L 159.626710 275.102056 L 157.216455 276.933221 L 154.763343 278.738739 L 152.271731 280.516206 L 149.745972 282.263216 L 147.190424 283.977363 L 144.609440 285.656244 L 142.007377 287.297452 L 139.388590 288.898583 L 136.757434 290.457230 L 134.118264 291.970990 L 131.475437 293.437455 L 128.833307 294.854223 L 126.196231 296.218886 L 123.568562 297.529041 L 120.954658 298.782281 L 118.568055 299.880454 L 117.067115 300.532920 L 115.084401 301.367043 L 112.676931 302.347475 L 109.901719 303.438870 L 106.815782 304.605879 L 103.476137 305.813154 L 99.939798 307.025350 L 96.263782 308.207116 L 92.505106 309.323108 L 88.720785 310.337975 L 84.967835 311.216373 L 81.303272 311.922951 L 77.784113 312.422364 L 74.467373 312.679264 L 71.410068 312.658302 L 68.669215 312.324133 L 66.301830 311.641407 L 64.364928 310.574777 L 62.915525 309.088897 L 62.010639 307.148418 L 61.707284 304.717993 L 61.749100 303.800001" fill="none" stroke="black" stroke-width="2.0" /><path d="M 212.949096 101.400001 L 214.994138 103.446201 L 216.891996 105.631752 L 218.647703 107.946795 L 220.266291 110.381470 L 221.752791 112.925918 L 223.112237 115.570278 L 224.349660 118.304692 L 225.470093 121.119298 L 226.478567 124.004239 L 227.380114 126.949653 L 228.179768 129.945681 L 228.882559 132.982464 L 229.493521 136.050141 L 230.017684 139.138853 L 230.460083 142.238740 L 230.825747 145.339943 L 231.119711 148.432602 L 231.347005 151.506856 L 231.512662 154.552847 L 231.621714 157.560714 L 231.679193 160.520599 L 231.690132 163.422640 L 231.659562 166.256979 L 231.592516 169.013756 L 231.474888 171.901987 L 231.262003 174.948158 L 230.957469 177.967637 L 230.562977 180.960063 L 230.080216 183.925076 L 229.510877 186.862312 L 228.856650 189.771413 L 228.119225 192.652017 L 227.300292 195.503763 L 226.401541 198.326289 L 225.424662 201.119236 L 224.371346 203.882242 L 223.243282 206.614945 L 222.042161 209.316985 L 220.769673 211.988002 L 219.427508 214.627633 L 218.017356 217.235518 L 216.540907 219.811296 L 214.999852 222.354606 L 213.395880 224.865087 L 211.730681 227.342378 L 210.005947 229.786118 L 208.223366 232.195946 L 206.384629 234.571500 L 204.491427 236.912421 L 202.545448 239.218347 L 200.548384 241.488916 L 198.501925 243.723769 L 196.407760 245.922543 L 194.267580 248.084878 L 192.083075 250.210414 L 189.855935 252.298788 L 187.587850 254.349640 L 185.302195 256.345784 L 183.024408 258.274320 L 180.713622 260.172163 L 178.372024 262.040234 L 176.001798 263.879451 L 173.605131 265.690737 L 171.184207 267.475010 L 168.741212 269.233191 L 166.278332 270.966200 L 163.797752 272.674958 L 161.301658 274.360384 L 158.792235 276.023399 L 156.271669 277.664924 L 153.742145 279.285877 L 151.205849 280.887180 L 148.664967 282.469753 L 146.121683 284.034516 L 143.578184 285.582389 L 141.010765 287.087552 L 138.388558 288.505599 L 135.717307 289.843458 L 133.002809 291.108186 L 130.250859 292.306838 L 127.467253 293.446469 L 124.657787 294.534137 L 121.828257 295.576897 L 118.984458 296.581804 L 116.132187 297.555915 L 113.277240 298.506285 L 110.425412 299.439970 L 107.582499 300.364027 L 104.808681 301.273100 L 102.036747 302.219067 L 99.228687 303.203317 L 96.388616 304.208310 L 93.520652 305.216507 L 90.628911 306.210367 L 87.717509 307.172352 L 84.790563 308.084922 L 81.852189 308.930536 L 78.906504 309.691655 L 75.957625 310.350739 L 73.009667 310.890249 L 70.066747 311.292645 L 67.132981 311.540388 L 64.212487 311.615936 L 63.249100 311.600001" fill="none" stroke="black" stroke-width="2.0" /><path d="M 229.149096 171.200001 L 229.166987 173.999573 L 228.946115 176.824412 L 228.504298 179.667715 L 227.859352 182.522677 L 227.029097 185.382492 L 226.031348 188.240356 L 224.883925 191.089465 L 223.604643 193.923013 L 222.211321 196.734197 L 220.721777 199.516211 L 219.153827 202.262251 L 217.525290 204.965512 L 215.853982 207.619189 L 214.157722 210.216478 L 212.454327 212.750573 L 210.761615 215.214671 L 209.097402 217.601967 L 207.479507 219.905656 L 205.894705 222.161202 L 204.146366 224.610081 L 202.371553 227.037575 L 200.570174 229.443106 L 198.742135 231.826092 L 196.887345 234.185953 L 195.005710 236.522108 L 193.097140 238.833978 L 191.161541 241.120982 L 189.198822 243.382539 L 187.208889 245.618069 L 185.191650 247.826992 L 183.147014 250.008726 L 181.074888 252.162693 L 178.975179 254.288312 L 176.847795 256.385001 L 174.692644 258.452181 L 172.509633 260.489271 L 170.298671 262.495691 L 168.059664 264.470861 L 165.792521 266.414199 L 163.497149 268.325126 L 161.173455 270.203062 L 158.821348 272.047425 L 156.440736 273.857636 L 154.031525 275.633114 L 151.593623 277.373279 L 149.126939 279.077550 L 146.631379 280.745346 L 144.106852 282.376089 L 141.553264 283.969196 L 138.970525 285.524088 L 136.358541 287.040184 L 133.717220 288.516904 L 131.046470 289.953668 L 128.346198 291.349895 L 126.849096 292.100001" fill="none" stroke="black" stroke-width="2.0" /><path d="M 29.149100 41.700000 L 27.480593 41.210641 L 25.846412 41.276613 L 24.248349 41.860950 L 22.688196 42.926689 L 21.167742 44.436862 L 19.688781 46.354506 L 18.253101 48.642654 L 16.862496 51.264341 L 15.518755 54.182603 L 14.223670 57.360473 L 12.979033 60.760987 L 11.786633 64.347179 L 10.648264 68.082083 L 9.565715 71.928735 L 8.540778 75.850169 L 7.575243 79.809420 L 6.670903 83.769523 L 5.829549 87.693512 L 5.052970 91.544422 L 4.342959 95.285287 L 3.701307 98.879143 L 3.129805 102.289024 L 2.630244 105.477965 L 2.204416 108.409000 L 1.854110 111.045164 L 1.581119 113.349492 L 1.387234 115.285019 L 1.274246 116.814778 L 1.202423 118.959357 L 1.131497 121.983966 L 1.087091 125.001561 L 1.069683 128.012621 L 1.079751 131.017623 L 1.117775 134.017046 L 1.184232 137.011369 L 1.279601 140.001070 L 1.404360 142.986628 L 1.558987 145.968519 L 1.743961 148.947224 L 1.959761 151.923221 L 2.206864 154.896987 L 2.485750 157.869002 L 2.796896 160.839743 L 3.140780 163.809689 L 3.517882 166.779319 L 3.928680 169.749110 L 4.373652 172.719542 L 4.853276 175.691092 L 5.368030 178.664239 L 5.918394 181.639461 L 6.367743 184.121696 L 6.790745 186.753383 L 7.203489 189.544843 L 7.615943 192.472880 L 8.038075 195.514296 L 8.479856 198.645895 L 8.951254 201.844480 L 9.462237 205.086855 L 10.022774 208.349821 L 10.642836 211.610183 L 11.332389 214.844743 L 12.101404 218.030305 L 12.959849 221.143671 L 13.917693 224.161646 L 14.984906 227.061032 L 16.171455 229.818632 L 17.487309 232.411249 L 18.942439 234.815687 L 20.546812 237.008748 L 22.310397 238.967237 L 24.243164 240.667955 L 24.549100 240.900001" fill="none" stroke="black" stroke-width="2.0" /><path d="M 13.649100 61.900000 L 13.176592 64.828268 L 12.446746 67.719558 L 11.603461 70.609844 L 10.790633 73.535102 L 10.122009 76.505722 L 9.523648 79.473349 L 8.990188 82.437943 L 8.518823 85.400415 L 8.106746 88.361671 L 7.751151 91.322619 L 7.449230 94.284168 L 7.198177 97.247225 L 6.995185 100.212699 L 6.837447 103.181497 L 6.722157 106.154529 L 6.646508 109.132701 L 6.607694 112.116922 L 6.602907 115.108100 L 6.629341 118.107142 L 6.684189 121.114958 L 6.764645 124.132455 L 6.867902 127.160541 L 6.991153 130.200124 L 7.135495 133.215814 L 7.277248 136.209519 L 7.409403 139.205752 L 7.533911 142.204105 L 7.652728 145.204173 L 7.767806 148.205547 L 7.881099 151.207822 L 7.994562 154.210589 L 8.110147 157.213442 L 8.229808 160.215974 L 8.355499 163.217778 L 8.489174 166.218446 L 8.632786 169.217573 L 8.788289 172.214750 L 8.957637 175.209571 L 9.142783 178.201629 L 9.345680 181.190516 L 9.568284 184.175826 L 9.812546 187.157152 L 10.077662 190.094116 L 10.339571 192.790791 L 10.623499 195.611280 L 10.941366 198.532939 L 11.305087 201.533125 L 11.726581 204.589196 L 12.217764 207.678509 L 12.790555 210.778420 L 13.456870 213.866287 L 14.228626 216.919467 L 15.117741 219.915317 L 16.136133 222.831194 L 17.295718 225.644454 L 18.608414 228.332456 L 20.086138 230.872556 L 21.740808 233.242112 L 23.584341 235.418480 L 24.449100 236.300001" fill="none" stroke="black" stroke-width="2.0" /><path d="M 3.549100 108.400001 L 2.539818 110.788117 L 1.726816 113.402828 L 1.092778 116.212043 L 0.620392 119.183671 L 0.292343 122.285621 L 0.091317 125.485803 L 0.000000 128.752124 L 0.001077 132.052496 L 0.077235 135.354826 L 0.211159 138.627023 L 0.385536 141.836998 L 0.583050 144.952658 L 0.786388 147.941914 L 0.978236 150.772674 L 1.141280 153.412847 L 1.261356 155.908113 L 1.423008 158.981223 L 1.652873 162.029389 L 1.947472 165.054140 L 2.303325 168.057003 L 2.716952 171.039505 L 3.184874 174.003174 L 3.703612 176.949538 L 4.269686 179.880123 L 4.879618 182.796458 L 5.529927 185.700070 L 6.217135 188.592486 L 6.937761 191.475235 L 7.688327 194.349843 L 8.465353 197.217838 L 9.265359 200.080748 L 10.084867 202.940100 L 10.920397 205.797422 L 11.768470 208.654241 L 12.625606 211.512085 L 13.488325 214.372482 L 14.353149 217.236958 L 15.216598 220.107042 L 16.075193 222.984260 L 16.925454 225.870141 L 17.763902 228.766212 L 18.587058 231.674001 L 19.391442 234.595035 L 19.849100 236.300001" fill="none" stroke="black" stroke-width="2.0" /><path d="M 15.249100 227.800001 L 16.760335 230.423039 L 18.454702 232.878440 L 20.285969 235.215863 L 22.207903 237.484964 L 24.174272 239.735401 L 26.138842 242.016832 L 28.055382 244.378913 L 29.835330 246.827933 L 31.425182 249.368922 L 32.845667 251.992281 L 34.117618 254.687318 L 35.261871 257.443342 L 36.299257 260.249663 L 37.250611 263.095589 L 38.136768 265.970430 L 38.978559 268.863494 L 39.796820 271.764090 L 40.612383 274.661528 L 41.446083 277.545116 L 42.318753 280.404164 L 42.349100 280.500001" fill="none" stroke="black" stroke-width="2.0" /><path d="M 26.049100 231.700001 L 26.822752 234.546605 L 27.726242 237.356691 L 28.739787 240.136856 L 29.843601 242.893693 L 31.017901 245.633798 L 32.242901 248.363765 L 33.498817 251.090190 L 34.765864 253.819666 L 36.024258 256.558790 L 37.254213 259.314156 L 38.435947 262.092359 L 39.549673 264.899993 L 40.575608 267.743654 L 41.493966 270.629936 L 42.284964 273.565435 L 42.770770 275.736248 L 43.222116 277.842606 L 43.789393 280.406410 L 44.473913 283.342022 L 45.276989 286.563806 L 46.199933 289.986125 L 47.244058 293.523342 L 48.410676 297.089819 L 49.701099 300.599921 L 51.116641 303.968010 L 52.658613 307.108449 L 54.328328 309.935601 L 56.127099 312.363830 L 58.056237 314.307499 L 60.117055 315.680970 L 62.310867 316.398606 L 64.638983 316.374772 L 67.102717 315.523830 L 67.149100 315.500001" fill="none" stroke="black" stroke-width="2.0" /><path d="M 19.849100 227.800001 L 21.968722 229.626189 L 23.968667 231.623518 L 25.854019 233.778196 L 27.629858 236.076431 L 29.301266 238.504428 L 30.873324 241.048397 L 32.351115 243.694544 L 33.739718 246.429076 L 35.044217 249.238201 L 36.269692 252.108127 L 37.421225 255.025060 L 38.503897 257.975208 L 39.522790 260.944778 L 40.482986 263.919979 L 41.389565 266.887016 L 42.247610 269.832097 L 43.062202 272.741431 L 43.838422 275.601223 L 44.581352 278.397682 L 45.296074 281.117015 L 45.855751 283.261696 L 46.507518 285.676730 L 47.308231 288.464718 L 48.259523 291.523805 L 49.363028 294.752137 L 50.620381 298.047858 L 52.033216 301.309115 L 53.603166 304.434053 L 55.331865 307.320817 L 57.220949 309.867553 L 59.272049 311.972407 L 61.486802 313.533523 L 63.866840 314.449047 L 66.413798 314.617125 L 69.129310 313.935902 L 69.449100 313.800001" fill="none" stroke="black" stroke-width="2.0" /><path d="M 30.749100 38.600000 L 27.731424 38.544373 L 25.499228 38.259287 L 28.391394 38.536794 L 31.367083 38.535269 L 34.394896 38.368886 L 37.443436 38.151820 L 40.481304 37.998244 L 43.480237 38.021842 L 46.468339 38.178195 L 49.455607 38.389828 L 52.441331 38.654617 L 55.424802 38.970434 L 58.405311 39.335152 L 61.382151 39.746646 L 64.354610 40.202788 L 67.321982 40.701451 L 70.283557 41.240510 L 73.238626 41.817837 L 76.186480 42.431307 L 79.126411 43.078791 L 82.057709 43.758164 L 84.979665 44.467299 L 87.891572 45.204070 L 90.792719 45.966349 L 93.682399 46.752010 L 96.559901 47.558927 L 99.424518 48.384973 L 102.275540 49.228021 L 105.221879 50.118938 L 108.171975 51.011691 L 111.098142 51.898983 L 114.001531 52.784406 L 116.883293 53.671549 L 119.744577 54.564003 L 122.586535 55.465359 L 125.410317 56.379205 L 128.217075 57.309132 L 131.007959 58.258732 L 133.784119 59.231593 L 136.546706 60.231306 L 139.296871 61.261461 L 142.035766 62.325649 L 144.764539 63.427459 L 147.484343 64.570483 L 150.196327 65.758309 L 152.901643 66.994529 L 155.601441 68.282732 L 158.296873 69.626509 L 160.989088 71.029450 L 163.679237 72.495145 L 166.368471 74.027184 L 168.898910 75.525070 L 171.146414 76.743537 L 173.621269 77.945445 L 176.286697 79.140422 L 179.105918 80.338097 L 182.042152 81.548097 L 185.058619 82.780049 L 188.118541 84.043581 L 191.185137 85.348320 L 194.221628 86.703894 L 197.191235 88.119931 L 200.057177 89.606059 L 202.782676 91.171904 L 205.330952 92.827094 L 207.665225 94.581258 L 209.748715 96.444022 L 211.544644 98.425015 L 213.016231 100.533863 L 212.453452 102.778372 L 210.549096 102.900001" fill="none" stroke="black" stroke-width="2.0" /><path d="M 26.049100 40.200000 L 28.808792 39.421259 L 31.722514 39.132315 L 34.739394 39.228745 L 37.808559 39.606124 L 40.879135 40.160029 L 43.900249 40.786038 L 46.821030 41.379725 L 49.679447 41.869658 L 52.646823 42.351466 L 55.614539 42.825310 L 58.582137 43.293777 L 61.549161 43.759456 L 64.515155 44.224932 L 67.479661 44.692793 L 70.442224 45.165625 L 73.402387 45.646015 L 76.359693 46.136551 L 79.313686 46.639819 L 82.263909 47.158406 L 85.209907 47.694900 L 88.151221 48.251886 L 91.087396 48.831953 L 94.017976 49.437686 L 96.942504 50.071673 L 99.860522 50.736501 L 102.771576 51.434757 L 105.675207 52.169027 L 108.570960 52.941899 L 111.458379 53.755960 L 114.337006 54.613795 L 117.206385 55.517994 L 120.066060 56.471141 L 122.907894 57.468932 L 125.717914 58.492083 L 128.516734 59.552765 L 131.304492 60.649178 L 134.081326 61.779523 L 136.847376 62.942000 L 139.602779 64.134808 L 142.347674 65.356148 L 145.082200 66.604220 L 147.806495 67.877224 L 150.520697 69.173361 L 153.224944 70.490829 L 155.919376 71.827830 L 158.604131 73.182563 L 161.279347 74.553229 L 163.945163 75.938028 L 166.601716 77.335159 L 169.249147 78.742823 L 171.887592 80.159220 L 174.517191 81.582551 L 177.138081 83.011014 L 179.811696 84.455240 L 182.521823 85.823807 L 185.247469 87.110705 L 187.986885 88.328763 L 190.738322 89.490810 L 193.500030 90.609674 L 196.270260 91.698182 L 199.047263 92.769165 L 201.829290 93.835450 L 204.614590 94.909865 L 207.401416 96.005240 L 210.188016 97.134402 L 212.949096 98.300001" fill="none" stroke="black" stroke-width="2.0" /><path d="M 27.649100 41.000000 L 27.913382 39.524022 L 30.751624 39.352729 L 33.623056 39.254645 L 36.524826 39.227251 L 39.454082 39.268028 L 42.407972 39.374457 L 45.383644 39.544020 L 48.378246 39.774198 L 51.388927 40.062471 L 54.412834 40.406322 L 57.447115 40.803230 L 60.488919 41.250678 L 63.535393 41.746146 L 66.583687 42.287116 L 69.630946 42.871068 L 72.674321 43.495485 L 75.710959 44.157846 L 78.738008 44.855633 L 81.752615 45.586328 L 84.751930 46.347411 L 87.733101 47.136364 L 90.693274 47.950667 L 93.629599 48.787803 L 96.539223 49.645251 L 99.419295 50.520494 L 102.266963 51.411012 L 105.079374 52.314286 L 107.853678 53.227798 L 110.587021 54.149029 L 113.276552 55.075460 L 115.919419 56.004572 L 118.671803 56.979743 L 121.491966 57.977174 L 124.313998 58.975918 L 127.137650 59.976076 L 129.962670 60.977747 L 132.788810 61.981031 L 135.615818 62.986029 L 138.443446 63.992840 L 141.271442 65.001565 L 144.099557 66.012303 L 146.927540 67.025155 L 149.755142 68.040221 L 152.582112 69.057600 L 155.408200 70.077392 L 158.233157 71.099699 L 161.056731 72.124619 L 163.878674 73.152253 L 166.698735 74.182701 L 169.516663 75.216063 L 172.332209 76.252438 L 175.145123 77.291928 L 177.955154 78.334631 L 180.762053 79.380649 L 183.307625 80.465657 L 185.821277 81.897207 L 188.369625 83.610599 L 190.945882 85.504486 L 193.543257 87.477515 L 196.154961 89.428339 L 198.774207 91.255608 L 201.394204 92.857971 L 204.008164 94.134079 L 206.609297 94.982582 L 209.049096 95.300001" fill="none" stroke="black" stroke-width="2.0" /></svg>