<?xml version="1.0" encoding="utf-8" ?>
<svg baseProfile="full" height="697" version="1.1" viewBox="0,0,801,697" width="801" xmlns="http://www.w3.org/2000/svg" xmlns:ev="http://www.w3.org/2001/xml-events" xmlns:xlink="http://www.w3.org/1999/xlink"><defs><style type="text/css"><![CDATA[
	.background { fill: white; }
	.line { stroke: firebrick; stroke-width: .1mm; }
	.blacksquare { fill: indigo; }
	.whitesquare { fill: white; }
]]></style></defs><path d="M 263.068517 309.027810 L 259.308608 307.790162 L 255.337125 307.769067 L 251.444368 308.775831 L 247.898740 310.606397 L 244.729248 313.011743 L 241.871079 315.822598 L 239.261700 318.875582 L 236.759634 321.995736 L 234.371953 325.204119 L 232.100548 328.496069 L 229.947308 331.866925 L 227.914124 335.312025 L 226.002885 338.826707 L 224.215482 342.406309 L 222.553803 346.046171 L 221.019740 349.741630 L 219.615180 353.488025 L 218.342016 357.280694 L 217.202136 361.114976 L 216.197430 364.986209 L 215.329787 368.889731 L 214.601099 372.820882 L 214.013255 376.774998 L 213.668517 379.727810" fill="none" stroke="black" stroke-width="2.0" /><path d="M 267.568517 326.827810 L 263.695086 326.144269 L 259.755440 326.540509 L 255.896020 327.749492 L 252.263267 329.504177 L 248.871149 331.604992 L 245.669567 333.985321 L 242.674116 336.621097 L 239.897085 339.490603 L 237.350761 342.572120 L 235.047432 345.843931 L 232.999387 349.284316 L 231.218913 352.871558 L 229.718298 356.583939 L 228.509830 360.399739 L 227.605797 364.297242 L 227.018487 368.254728 L 226.768517 371.927810" fill="none" stroke="black" stroke-width="2.0" /><path d="M 251.868517 334.227810 L 253.894539 337.687635 L 255.375234 341.387938 L 256.321125 345.258725 L 256.742735 349.230002 L 256.650584 353.231774 L 256.055196 357.194045 L 254.967091 361.046821 L 253.396793 364.720108 L 251.354824 368.143910 L 248.851705 371.248233 L 245.896659 373.965714 L 242.363064 375.846083 L 238.658485 374.843758 L 238.268517 371.527810" fill="none" stroke="black" stroke-width="2.0" /><path d="M 264.168517 341.627810 L 264.991396 345.545219 L 265.444122 349.517941 L 265.536232 353.516503 L 265.277260 357.511434 L 264.676742 361.473263 L 263.744211 365.372516 L 262.489204 369.179724 L 260.921255 372.865412 L 259.049899 376.400111 L 256.884671 379.754348 L 254.435106 382.898651 L 251.710740 385.803548 L 248.725432 388.441194 L 245.349727 390.577560 L 241.455393 391.355940 L 237.760136 389.888736 L 236.368517 387.527810" fill="none" stroke="black" stroke-width="2.0" /><path d="M 264.268517 344.727810 L 264.777155 348.700609 L 264.943553 352.696886 L 264.775889 356.691604 L 264.282339 360.659723 L 263.471078 364.576203 L 262.350282 368.416004 L 260.928128 372.154088 L 259.212792 375.765415 L 257.212450 379.224945 L 254.935279 382.507640 L 252.345187 385.581810 L 249.232595 388.252022 L 245.673683 389.931984 L 242.568517 390.127810" fill="none" stroke="black" stroke-width="2.0" /><path d="M 252.468517 335.327810 L 253.836653 339.100579 L 254.750587 342.991994 L 255.215266 346.955880 L 255.235638 350.946060 L 254.816651 354.916360 L 253.963250 358.820602 L 252.680385 362.612611 L 250.840539 366.233011 L 248.338896 369.500417 L 245.257067 372.021415 L 241.675263 373.394949 L 239.570148 371.509984 L 240.368517 368.027810" fill="none" stroke="black" stroke-width="2.0" /><path d="M 253.968517 336.427810 L 255.232666 340.234074 L 256.030191 344.153086 L 256.368501 348.134649 L 256.255001 352.128563 L 255.697097 356.084630 L 254.702195 359.952652 L 253.277703 363.682430 L 251.431026 367.223764 L 249.169571 370.526458 L 249.168517 370.527810" fill="none" stroke="black" stroke-width="2.0" /><path d="M 258.168517 326.827810 L 254.600296 328.641606 L 251.192275 330.735418 L 247.959842 333.090855 L 244.918385 335.689528 L 242.083289 338.513049 L 239.469941 341.543028 L 237.093729 344.761075 L 234.970040 348.148802 L 233.114261 351.687819 L 231.541778 355.359737 L 230.267978 359.146166 L 229.568517 361.827810" fill="none" stroke="black" stroke-width="2.0" /><path d="M 246.968517 335.027810 L 244.148585 337.874846 L 241.498718 340.875964 L 239.023936 344.020205 L 236.729263 347.296612 L 234.619721 350.694226 L 232.700334 354.202087 L 230.976124 357.809239 L 229.452113 361.504722 L 228.133324 365.277577 L 227.024779 369.116847 L 226.168517 372.827810" fill="none" stroke="black" stroke-width="2.0" /><path d="M 218.468517 401.627810 L 214.829169 403.290149 L 211.320509 405.214281 L 207.958286 407.386147 L 204.758249 409.791684 L 201.736146 412.416831 L 198.907726 415.247528 L 196.288738 418.269712 L 193.894929 421.469322 L 191.742050 424.832298 L 189.845848 428.344578 L 188.199828 431.985343 L 186.824308 435.735296 L 185.726780 439.575371 L 184.908923 443.485413 L 184.372417 447.445269 L 184.118941 451.434785 L 184.150174 455.433806 L 184.467796 459.422180 L 185.073486 463.379751 L 185.968925 467.286367 L 186.468517 469.027810" fill="none" stroke="black" stroke-width="2.0" /><path d="M 216.168517 406.227810 L 212.640790 408.091688 L 209.318204 410.309601 L 206.164920 412.792766 L 203.212531 415.497614 L 200.446173 418.390793 L 197.873486 421.457485 L 195.502112 424.682872 L 193.339690 428.052136 L 191.393862 431.550458 L 189.672268 435.163021 L 188.182548 438.875007 L 186.932343 442.671598 L 185.929294 446.537975 L 185.181041 450.459321 L 184.695225 454.420817 L 184.479485 458.407646 L 184.468517 459.527810" fill="none" stroke="black" stroke-width="2.0" /><path d="M 184.868517 465.427810 L 186.146174 469.234686 L 187.415564 473.039987 L 188.679836 476.842139 L 189.942141 480.639566 L 191.205628 484.430694 L 192.473446 488.213948 L 193.748745 491.987753 L 195.024589 495.774332 L 196.287536 499.570430 L 197.524010 503.373883 L 198.718888 507.188889 L 199.857046 511.019652 L 200.923360 514.870370 L 201.902709 518.745246 L 202.779967 522.648481 L 203.540012 526.584274 L 204.193205 530.538649 L 204.692208 534.534447 L 205.009094 538.557792 L 205.122769 542.588592 L 205.012139 546.606757 L 204.656107 550.592196 L 204.033579 554.524820 L 203.123461 558.384539 L 201.904657 562.151261 L 200.356074 565.804897 L 198.465621 569.320166 L 196.277171 572.625507 L 193.799651 575.717876 L 191.066861 578.605075 L 188.112602 581.294903 L 184.970676 583.795160 L 181.674881 586.113647 L 178.259021 588.258164 L 174.756894 590.236511 L 171.199246 592.062492 L 167.570637 593.761282 L 163.868134 595.313999 L 160.100011 596.700778 L 156.274548 597.901756 L 152.400019 598.897068 L 148.484702 599.666851 L 144.536874 600.191240 L 140.564811 600.450371 L 136.576790 600.424381 L 132.582563 600.093967 L 128.640087 599.464008 L 124.751241 598.581414 L 120.902337 597.510887 L 117.079690 596.317130 L 113.269610 595.064847 L 109.458412 593.818739 L 105.632408 592.643510 L 101.776916 591.595667 L 97.835478 590.723622 L 93.820335 590.114636 L 89.782256 589.824429 L 85.772007 589.908719 L 81.840355 590.423227 L 78.038067 591.423673 L 74.415909 592.965777 L 72.268517 594.227810" fill="none" stroke="black" stroke-width="2.0" /><path d="M 185.968517 464.327810 L 186.631046 468.279594 L 187.293336 472.228604 L 187.955147 476.175320 L 188.616240 480.120220 L 189.276375 484.063784 L 189.935314 488.006490 L 190.592816 491.948817 L 191.248642 495.891243 L 191.902553 499.834248 L 192.554309 503.778311 L 193.203672 507.723909 L 193.850401 511.671523 L 194.494257 515.621630 L 195.137653 519.576984 L 195.770498 523.564725 L 196.363830 527.583547 L 196.891948 531.622498 L 197.329152 535.670627 L 197.649739 539.716982 L 197.828009 543.750614 L 197.838261 547.760571 L 197.654792 551.735902 L 197.251902 555.665656 L 196.603889 559.538882 L 195.685053 563.344630 L 194.469692 567.071947 L 192.932104 570.709884 L 191.058546 574.236307 L 188.873530 577.567238 L 186.400430 580.682842 L 183.665957 583.577110 L 180.696824 586.244031 L 177.519743 588.677595 L 174.161423 590.871793 L 170.648578 592.820614 L 167.007919 594.518048 L 163.266157 595.958084 L 159.445539 597.145237 L 155.568210 598.096203 L 151.645051 598.821617 L 147.686123 599.332211 L 143.701489 599.638719 L 139.701213 599.751874 L 135.695355 599.682410 L 131.693980 599.441060 L 127.707149 599.038558 L 123.741614 598.487056 L 119.785528 597.812967 L 115.840864 597.050245 L 111.904232 596.236667 L 107.972241 595.410009 L 104.041502 594.608050 L 100.108623 593.868568 L 96.170216 593.229339 L 92.222888 592.728141 L 88.263251 592.402752 L 84.287913 592.290950 L 82.268517 592.327810" fill="none" stroke="black" stroke-width="2.0" /><path d="M 193.268517 485.127810 L 193.022846 489.110870 L 192.999372 493.093723 L 193.168471 497.076165 L 193.500518 501.057990 L 193.965891 505.038992 L 194.534963 509.018966 L 195.178111 512.997705 L 195.865711 516.975004 L 196.568138 520.950657 L 197.255768 524.924458 L 197.898976 528.896203 L 198.468140 532.865684 L 198.933633 536.832697 L 199.265832 540.797035 L 199.435113 544.758494 L 199.411852 548.716866 L 199.166423 552.671947 L 198.669203 556.623530 L 197.904878 560.548899 L 196.854685 564.405246 L 195.530012 568.176463 L 193.942267 571.846445 L 192.102857 575.399088 L 190.023188 578.818289 L 187.714669 582.087944 L 185.188705 585.191948 L 182.456703 588.114198 L 179.530071 590.838591 L 176.420215 593.349021 L 173.138543 595.629386 L 172.668517 595.927810" fill="none" stroke="black" stroke-width="2.0" /><path d="M 244.568517 557.327810 L 246.072326 553.663780 L 247.832070 550.175355 L 249.826615 546.847303 L 252.034828 543.664391 L 254.435576 540.611386 L 257.007725 537.673057 L 259.730141 534.834170 L 262.581691 532.079492 L 265.541241 529.393792 L 268.587659 526.761837 L 271.699809 524.168393 L 274.856560 521.598229 L 278.036777 519.036112 L 281.219326 516.466809 L 284.383075 513.875088 L 287.506890 511.245716 L 290.569637 508.563460 L 293.550183 505.813088 L 296.427394 502.979367 L 299.180137 500.047065 L 301.783449 497.000944 L 304.215084 493.842792 L 306.481938 490.582306 L 308.590239 487.226262 L 310.546214 483.781434 L 312.356092 480.254595 L 314.026101 476.652519 L 315.562467 472.981982 L 316.971420 469.249756 L 318.259186 465.462616 L 319.431994 461.627336 L 320.496071 457.750691 L 321.457646 453.839454 L 322.322946 449.900400 L 323.098199 445.940302 L 323.789633 441.965936 L 324.403476 437.984074 L 324.945955 434.001491 L 325.420059 430.017700 L 325.828115 426.023552 L 326.161841 422.022161 L 326.411453 418.016912 L 326.567167 414.011194 L 326.619199 410.008393 L 326.557762 406.011896 L 326.373074 402.025090 L 326.055349 398.051362 L 325.594802 394.094100 L 324.981648 390.156689 L 324.207424 386.241957 L 323.288508 382.357617 L 322.225027 378.517924 L 321.032306 374.718108 L 319.725673 370.953395 L 318.320456 367.219014 L 316.831983 363.510195 L 315.275579 359.822163 L 313.666574 356.150149 L 312.020294 352.489381 L 310.352067 348.835086 L 308.677219 345.182493 L 307.011079 341.526830 L 305.368974 337.863325 L 303.766232 334.187207 L 302.218178 330.493704 L 300.740142 326.778045 L 299.347450 323.035457 L 298.055430 319.261168 L 296.879409 315.450408 L 295.834715 311.598404 L 295.668517 310.927810" fill="none" stroke="black" stroke-width="2.0" /><path d="M 303.068517 323.827810 L 304.227111 327.653628 L 305.386141 331.479445 L 306.546039 335.305262 L 307.707241 339.131080 L 308.870182 342.956897 L 310.035295 346.782714 L 311.203017 350.608531 L 312.373780 354.434349 L 313.548021 358.260166 L 314.726172 362.085983 L 315.908670 365.911801 L 317.063704 369.731835 L 318.210114 373.560456 L 319.338291 377.400329 L 320.433555 381.252583 L 321.481227 385.118348 L 322.466626 388.998752 L 323.375073 392.894925 L 324.191889 396.807997 L 324.911248 400.743736 L 325.520094 404.707188 L 326.014969 408.693649 L 326.395190 412.698431 L 326.660072 416.716848 L 326.808933 420.744214 L 326.841087 424.775842 L 326.755851 428.807046 L 326.552540 432.833140 L 326.230472 436.849436 L 325.788961 440.851248 L 325.227324 444.833890 L 324.544877 448.792675 L 323.740936 452.722918 L 322.814817 456.619930 L 321.765836 460.479026 L 320.593309 464.295520 L 319.296552 468.064725 L 317.874881 471.781954 L 316.327612 475.442521 L 314.654062 479.041740 L 312.853545 482.574923 L 310.925379 486.037385 L 308.868878 489.424439 L 306.683360 492.731398 L 304.368141 495.953577 L 301.922535 499.086288 L 299.345860 502.124845 L 296.638238 505.064642 L 293.825358 507.904192 L 290.913384 510.653128 L 287.920926 513.327862 L 284.866598 515.944812 L 281.769013 518.520391 L 278.646782 521.071016 L 275.518518 523.613100 L 272.402834 526.163059 L 269.318342 528.737309 L 266.283654 531.352265 L 263.317383 534.024341 L 260.438141 536.769952 L 257.664541 539.605515 L 255.015195 542.547443 L 252.508716 545.612153 L 250.163716 548.816059 L 248.768517 550.927810" fill="none" stroke="black" stroke-width="2.0" /><path d="M 306.368517 322.027810 L 307.581149 325.856551 L 308.784820 329.683461 L 309.983193 333.506710 L 311.179927 337.324467 L 312.378685 341.134901 L 313.583128 344.936182 L 314.794625 348.729407 L 315.991572 352.544757 L 317.183107 356.365551 L 318.362289 360.192622 L 319.522177 364.026802 L 320.655830 367.868924 L 321.756305 371.719821 L 322.816662 375.580327 L 323.829959 379.451274 L 324.789255 383.333496 L 325.687608 387.227825 L 326.518076 391.135094 L 327.273719 395.056136 L 327.947594 398.991784 L 328.532760 402.942871 L 329.022277 406.910231 L 329.409201 410.894696 L 329.683950 414.887179 L 329.835088 418.897031 L 329.857814 422.918644 L 329.747532 426.943526 L 329.499649 430.963185 L 329.109571 434.969131 L 328.572704 438.952871 L 327.884456 442.905914 L 327.040231 446.819768 L 326.035436 450.685942 L 324.865477 454.495945 L 323.525761 458.241284 L 322.011693 461.913469 L 320.318681 465.504007 L 318.442129 469.004408 L 316.377445 472.406179 L 314.122210 475.692866 L 311.699532 478.854093 L 309.143785 481.916138 L 306.488704 484.904702 L 303.768021 487.845488 L 301.015471 490.764198 L 298.264788 493.686534 L 295.550479 496.635286 L 292.886211 499.620922 L 290.268128 502.647814 L 287.696818 505.714986 L 285.172865 508.821462 L 282.696855 511.966267 L 280.269372 515.148425 L 277.891004 518.366961 L 275.562334 521.620898 L 273.283949 524.909262 L 271.056434 528.231075 L 268.880374 531.585363 L 266.756355 534.971150 L 264.684962 538.387460 L 262.666780 541.833317 L 262.268517 542.527810" fill="none" stroke="black" stroke-width="2.0" /><path d="M 325.168517 379.627810 L 329.102249 379.075706 L 333.023252 378.837016 L 336.932359 378.883855 L 340.830401 379.188339 L 344.718210 379.722585 L 348.596621 380.458709 L 352.466463 381.368826 L 356.328571 382.425053 L 360.183776 383.599506 L 364.032911 384.864300 L 367.876808 386.191552 L 371.716300 387.553378 L 375.552218 388.921894 L 379.385396 390.269216 L 383.216664 391.567459 L 387.046857 392.788741 L 390.880026 393.908434 L 394.723423 394.919014 L 398.576942 395.823472 L 402.440275 396.625402 L 406.313113 397.328397 L 410.195147 397.936052 L 414.086067 398.451958 L 417.985566 398.879711 L 421.893334 399.222903 L 425.809061 399.485127 L 429.732441 399.669979 L 433.663162 399.781050 L 437.600917 399.821934 L 441.545397 399.796225 L 445.496292 399.707517 L 449.453294 399.559403 L 453.416093 399.355476 L 457.384382 399.099330 L 461.357850 398.794558 L 465.336189 398.444754 L 469.319091 398.053512 L 473.306246 397.624424 L 477.297345 397.161085 L 481.292079 396.667088 L 485.290140 396.146026 L 489.291218 395.601493 L 493.295005 395.037083 L 497.301192 394.456389 L 501.309470 393.863004 L 505.319529 393.260521 L 509.331062 392.652536 L 513.343758 392.042640 L 517.357310 391.434428 L 521.371407 390.831492 L 525.385743 390.237427 L 529.400006 389.655826 L 533.413889 389.090282 L 537.427083 388.544390 L 541.439278 388.021742 L 545.450166 387.525931 L 549.459437 387.060553 L 553.466784 386.629199 L 557.471897 386.235463 L 561.474466 385.882940 L 565.474184 385.575222 L 569.470710 385.315903 L 573.466196 385.109567 L 577.463404 384.958083 L 581.461702 384.861218 L 585.460456 384.818739 L 589.459033 384.830413 L 593.456799 384.896006 L 597.453120 385.015286 L 601.447362 385.188018 L 605.438892 385.413971 L 609.427077 385.692910 L 613.411282 386.024602 L 617.390875 386.408815 L 621.365221 386.845316 L 625.333687 387.333870 L 629.295639 387.874244 L 633.250444 388.466207 L 637.197467 389.109523 L 641.136076 389.803961 L 645.065637 390.549287 L 648.985516 391.345268 L 652.895079 392.191670 L 656.793693 393.088261 L 660.680725 394.034806 L 664.555540 395.031074 L 668.417505 396.076831 L 672.265986 397.171843 L 676.100350 398.315878 L 679.919963 399.508701 L 683.724192 400.750081 L 687.512402 402.039784 L 691.283961 403.377577 L 695.038235 404.763226 L 698.774589 406.196498 L 702.492391 407.677160 L 706.191006 409.204979 L 709.869802 410.779722 L 713.528144 412.401155 L 717.165399 414.069046 L 720.780933 415.783161 L 724.374113 417.543267 L 727.944304 419.349130 L 731.490874 421.200518 L 735.013189 423.097197 L 738.510615 425.038935 L 741.982519 427.025497 L 745.428266 429.056652 L 748.847224 431.132164 L 752.238758 433.251803 L 755.602235 435.415333 L 758.937022 437.622522 L 762.242484 439.873137 L 765.517988 442.166945 L 768.762901 444.503712 L 771.976589 446.883206 L 775.158418 449.305192 L 778.307755 451.769439 L 781.423966 454.275712 L 784.506417 456.823778 L 787.554474 459.413405 L 790.567505 462.044359 L 793.544876 464.716406 L 796.485952 467.429315 L 799.390101 470.182850 L 800.368517 471.127810" fill="none" stroke="black" stroke-width="2.0" /><path d="M 325.868517 376.227810 L 329.836876 376.113481 L 333.774148 376.315827 L 337.683002 376.798969 L 341.566108 377.527026 L 345.426133 378.464116 L 349.265747 379.574360 L 353.087618 380.821876 L 356.894416 382.170783 L 360.688809 383.585201 L 364.473465 385.029248 L 368.251055 386.467045 L 372.024246 387.862711 L 375.801423 389.177011 L 379.604826 390.386760 L 383.430618 391.499937 L 387.277567 392.519236 L 391.144442 393.447355 L 395.030014 394.286990 L 398.933049 395.040836 L 402.852319 395.711591 L 406.786591 396.301950 L 410.734635 396.814610 L 414.695221 397.252267 L 418.667116 397.617618 L 422.649090 397.913358 L 426.639913 398.142185 L 430.638352 398.306794 L 434.643179 398.409881 L 438.653160 398.454144 L 442.667066 398.442277 L 446.683666 398.376979 L 450.701728 398.260944 L 454.720023 398.096869 L 458.737318 397.887451 L 462.752383 397.635386 L 466.763986 397.343370 L 470.770898 397.014099 L 474.771888 396.650269 L 478.765723 396.254578 L 482.751174 395.829721 L 486.730047 395.379706 L 490.706746 394.908507 L 494.681508 394.418993 L 498.654568 393.914034 L 502.626160 393.396503 L 506.596518 392.869267 L 510.565877 392.335200 L 514.534470 391.797169 L 518.502533 391.258047 L 522.470300 390.720704 L 526.438004 390.188010 L 530.405881 389.662835 L 534.374164 389.148050 L 538.343088 388.646526 L 542.312888 388.161132 L 546.283797 387.694740 L 550.256049 387.250220 L 554.229880 386.830441 L 558.205524 386.438276 L 562.183214 386.076594 L 566.163185 385.748265 L 570.145672 385.456160 L 574.130908 385.203150 L 578.119129 384.992105 L 582.110568 384.825895 L 586.105460 384.707391 L 590.104039 384.639463 L 594.104797 384.621409 L 598.104689 384.657582 L 602.103242 384.750165 L 606.099769 384.898901 L 610.093578 385.103533 L 614.083979 385.363807 L 618.070284 385.679465 L 622.051801 386.050251 L 626.027841 386.475909 L 629.997715 386.956183 L 633.960732 387.490817 L 637.916203 388.079554 L 641.863438 388.722138 L 645.801746 389.418313 L 649.730438 390.167823 L 653.648824 390.970411 L 657.556215 391.825821 L 661.451920 392.733797 L 665.335249 393.694082 L 669.205514 394.706422 L 673.062022 395.770558 L 676.904086 396.886236 L 680.731015 398.053198 L 684.542119 399.271188 L 688.336709 400.539951 L 692.114094 401.859230 L 695.873584 403.228769 L 699.614491 404.648312 L 703.336123 406.117602 L 707.037791 407.636382 L 710.718806 409.204398 L 714.378477 410.821393 L 718.016114 412.487110 L 721.631028 414.201293 L 725.222528 415.963686 L 728.789926 417.774032 L 732.332530 419.632076 L 735.849652 421.537562 L 739.340601 423.490232 L 742.804687 425.489832 L 746.241221 427.536103 L 749.649513 429.628791 L 753.028872 431.767639 L 756.378610 433.952391 L 759.698035 436.182791 L 762.986459 438.458582 L 766.243191 440.779508 L 769.467542 443.145313 L 772.658822 445.555741 L 775.816340 448.010535 L 778.939407 450.509439 L 782.027334 453.052197 L 785.079429 455.638553 L 787.368517 457.627810" fill="none" stroke="black" stroke-width="2.0" /><path d="M 330.168517 380.427810 L 334.147169 380.413415 L 338.108436 380.615938 L 342.053928 381.011694 L 345.985253 381.576995 L 349.904023 382.288156 L 353.811846 383.121491 L 357.710332 384.053312 L 361.601092 385.059934 L 365.485734 386.117670 L 369.365869 387.202833 L 373.243107 388.291739 L 377.119056 389.360699 L 380.995328 390.386028 L 384.876414 391.344479 L 388.771991 392.222006 L 392.673778 393.018255 L 396.581586 393.735611 L 400.495228 394.376461 L 404.414519 394.943188 L 408.339272 395.438179 L 412.269299 395.863819 L 416.204414 396.222492 L 420.144430 396.516584 L 424.089160 396.748481 L 428.038418 396.920566 L 431.992017 397.035226 L 435.949770 397.094847 L 439.911490 397.101812 L 443.876991 397.058507 L 447.846085 396.967317 L 451.818587 396.830629 L 455.794309 396.650826 L 459.773064 396.430294 L 463.754666 396.171419 L 467.738928 395.876585 L 471.725663 395.548177 L 475.714685 395.188582 L 479.705806 394.800184 L 483.698841 394.385368 L 487.693601 393.946519 L 491.689901 393.486024 L 495.687553 393.006266 L 499.686372 392.509631 L 503.686169 391.998505 L 507.686759 391.475273 L 511.687955 390.942319 L 515.689569 390.402030 L 519.691415 389.856789 L 523.693307 389.308983 L 527.695057 388.760997 L 531.696480 388.215216 L 535.697387 387.674024 L 539.697592 387.139808 L 543.696909 386.614953 L 547.695150 386.101843 L 551.692130 385.602864 L 555.687661 385.120402 L 559.681556 384.656840 L 563.673629 384.214565 L 567.663693 383.795963 L 571.651561 383.403417 L 575.637046 383.039313 L 579.634092 382.710759 L 583.642798 382.421493 L 587.660310 382.176458 L 591.683993 381.980687 L 595.711214 381.839214 L 599.739338 381.757073 L 603.765732 381.739298 L 607.787762 381.790921 L 611.802794 381.916976 L 615.808195 382.122498 L 619.801329 382.412520 L 623.779565 382.792075 L 627.740266 383.266197 L 631.680801 383.839920 L 635.598534 384.518277 L 639.490832 385.306302 L 643.355061 386.209028 L 647.188588 387.231490 L 650.988778 388.378720 L 654.752997 389.655753 L 658.478612 391.067622 L 661.268517 392.227810" fill="none" stroke="black" stroke-width="2.0" /><path d="M 520.768517 385.727810 L 524.671500 384.800806 L 528.574483 383.903989 L 532.477466 383.037362 L 536.380449 382.200924 L 540.297089 381.427834 L 544.232842 380.749241 L 548.177673 380.147077 L 552.130712 379.620386 L 556.091088 379.168211 L 560.057931 378.789598 L 564.030370 378.483589 L 568.007536 378.249229 L 571.988556 378.085562 L 575.972562 377.991631 L 579.958682 377.966481 L 583.946046 378.009155 L 587.933784 378.118698 L 591.921025 378.294153 L 595.906899 378.534565 L 599.890535 378.838977 L 603.871064 379.206433 L 607.847614 379.635977 L 611.819315 380.126654 L 615.785296 380.677506 L 619.744688 381.287579 L 623.696620 381.955915 L 627.640221 382.681559 L 631.574621 383.463556 L 635.498949 384.300948 L 639.412335 385.192780 L 643.313909 386.138095 L 647.202801 387.135939 L 651.078139 388.185354 L 654.939053 389.285384 L 658.784673 390.435074 L 662.614128 391.633467 L 666.426549 392.879608 L 670.221064 394.172540 L 673.996803 395.511308 L 677.753499 396.895099 L 681.491105 398.322898 L 685.209734 399.793751 L 688.909598 401.306744 L 692.590913 402.860964 L 696.253892 404.455497 L 699.898749 406.089430 L 703.525699 407.761848 L 707.134955 409.471838 L 710.726732 411.218488 L 714.301244 413.000882 L 717.858705 414.818107 L 721.399330 416.669251 L 724.923331 418.553399 L 728.430924 420.469637 L 731.922322 422.417052 L 735.397740 424.394731 L 738.857392 426.401760 L 742.301492 428.437225 L 745.730254 430.500212 L 749.143892 432.589809 L 752.542620 434.705101 L 755.926652 436.845175 L 759.296204 439.009117 L 762.651487 441.196013 L 765.992718 443.404951 L 769.320109 445.635016 L 772.633876 447.885295 L 775.934231 450.154874 L 779.221390 452.442840 L 782.495567 454.748279 L 785.756974 457.070277 L 789.005828 459.407921 L 792.242341 461.760297 L 795.466728 464.126492 L 795.468517 464.127810" fill="none" stroke="black" stroke-width="2.0" /><path d="M 603.868517 376.927810 L 607.866996 376.652972 L 611.863412 376.560881 L 615.855700 376.637918 L 619.841798 376.870463 L 623.819641 377.244896 L 627.787166 377.747597 L 631.742310 378.364947 L 635.683009 379.083327 L 639.607199 379.889116 L 643.512817 380.768695 L 647.397799 381.708444 L 651.270647 382.702752 L 655.134381 383.745363 L 658.985256 384.832924 L 662.822809 385.965215 L 666.646577 387.142017 L 670.456097 388.363109 L 674.250907 389.628272 L 678.030542 390.937285 L 681.794541 392.289930 L 685.542439 393.685985 L 689.273774 395.125231 L 692.988083 396.607448 L 696.684903 398.132416 L 700.363771 399.699915 L 704.024224 401.309725 L 707.665799 402.961627 L 711.288032 404.655399 L 714.890461 406.390823 L 718.472623 408.167678 L 722.034054 409.985745 L 725.574292 411.844803 L 729.092874 413.744633 L 732.589336 415.685014 L 736.063216 417.665728 L 739.514051 419.686552 L 742.941377 421.747269 L 746.344731 423.847657 L 749.723651 425.987498 L 753.077673 428.166570 L 756.406335 430.384655 L 759.709173 432.641531 L 762.985725 434.936980 L 766.235527 437.270781 L 769.458116 439.642714 L 772.653029 442.052560 L 775.819804 444.500098 L 778.957977 446.985108 L 780.868517 448.527810" fill="none" stroke="black" stroke-width="2.0" /><path d="M 50.568517 586.827810 L 49.523064 590.691992 L 48.597745 594.585129 L 47.792132 598.503778 L 47.105799 602.444494 L 46.538318 606.403832 L 46.089262 610.378348 L 45.758203 614.364596 L 45.544714 618.359133 L 45.448369 622.358513 L 45.468740 626.359292 L 45.605399 630.358026 L 45.857919 634.351269 L 46.225874 638.335577 L 46.708835 642.307506 L 47.306376 646.263611 L 48.018070 650.200446 L 48.843489 654.114568 L 49.782205 658.002532 L 50.833793 661.860893 L 51.997823 665.686206 L 53.273870 669.475027 L 54.661506 673.223912 L 56.160304 676.929415 L 57.769836 680.588092 L 59.489675 684.196498 L 61.319394 687.751189 L 63.258566 691.248720 L 65.306763 694.685646 L 65.768517 695.427810" fill="none" stroke="black" stroke-width="2.0" /><path d="M 47.868517 602.127810 L 47.436301 606.109520 L 47.108578 610.100037 L 46.884834 614.096846 L 46.764559 618.097432 L 46.747241 622.099279 L 46.832367 626.099870 L 47.019427 630.096690 L 47.307908 634.087223 L 47.697299 638.068953 L 48.187089 642.039365 L 48.776765 645.995943 L 49.465816 649.936170 L 50.253730 653.857531 L 51.139995 657.757510 L 52.124100 661.633592 L 53.205533 665.483260 L 54.383783 669.303998 L 55.658337 673.093291 L 57.028684 676.848624 L 58.494312 680.567479 L 60.054710 684.247341 L 61.709366 687.885695 L 63.457768 691.480025 L 65.299405 695.027815 L 68.059122 696.347433 L 67.668517 695.527810" fill="none" stroke="black" stroke-width="2.0" /><path d="M 14.468517 459.127810 L 11.628669 461.853895 L 9.344730 465.061044 L 7.524266 468.621270 L 6.074843 472.406587 L 4.904024 476.289008 L 3.925066 480.175756 L 3.055024 484.101645 L 2.280030 488.057088 L 1.606762 492.036304 L 1.041897 496.033513 L 0.592111 500.042936 L 0.264082 504.058793 L 0.064486 508.075302 L 0.000000 512.086685 L 0.077301 516.087161 L 0.303067 520.070951 L 0.683974 524.032274 L 1.226699 527.965350 L 1.937918 531.864399 L 2.824310 535.723642 L 3.892550 539.537297 L 5.149316 543.299586 L 6.601285 547.004727 L 8.257669 550.648361 L 10.145399 554.206144 L 12.258985 557.650139 L 14.585575 560.965484 L 17.112317 564.137321 L 19.826359 567.150789 L 22.714850 569.991029 L 25.764939 572.643181 L 28.963773 575.092386 L 32.298500 577.323783 L 35.756271 579.322513 L 39.324231 581.073716 L 42.989531 582.562532 L 46.739318 583.774102 L 50.560740 584.693567 L 54.440947 585.306065 L 58.367085 585.596738 L 62.326305 585.550726 L 65.768517 585.227810" fill="none" stroke="black" stroke-width="2.0" /><path d="M 0.368517 523.627810 L 0.824811 527.614017 L 1.516716 531.558225 L 2.436794 535.451104 L 3.577604 539.283324 L 4.931705 543.045554 L 6.491660 546.728466 L 8.250027 550.322727 L 10.199367 553.819008 L 12.332240 557.207979 L 14.641206 560.480309 L 17.118826 563.626669 L 19.757659 566.637727 L 22.550266 569.504153 L 25.489206 572.216619 L 28.567041 574.765792 L 31.776330 577.142343 L 35.109634 579.336941 L 38.559512 581.340256 L 42.118525 583.142959 L 45.779233 584.735718 L 49.534196 586.109204 L 53.390755 587.256971 L 57.321148 588.021378 L 61.285156 588.122992 L 62.168517 588.027810" fill="none" stroke="black" stroke-width="2.0" /><path d="M 67.868517 544.027810 L 67.251901 547.981050 L 66.913762 551.964529 L 66.850215 555.960764 L 67.057375 559.952269 L 67.531356 563.921562 L 68.268272 567.851157 L 69.264239 571.723572 L 70.515370 575.521323 L 72.017782 579.226924 L 73.767588 582.822893 L 75.760903 586.291744 L 77.993842 589.615995 L 80.478257 590.541267 L 80.468517 590.527810" fill="none" stroke="black" stroke-width="2.0" /><path d="M 67.268517 542.727810 L 66.581025 546.675986 L 66.193261 550.660621 L 66.100552 554.661352 L 66.298226 558.657817 L 66.781607 562.629654 L 67.546024 566.556499 L 68.586803 570.417990 L 69.899270 574.193764 L 71.478751 577.863459 L 73.320574 581.406713 L 75.420066 584.803162 L 77.772552 588.032443 L 78.968517 588.627810" fill="none" stroke="black" stroke-width="2.0" /><path d="M 24.068517 495.827810 L 25.351379 499.626669 L 26.686035 503.414444 L 28.099544 507.171806 L 29.618965 510.879427 L 31.271359 514.517979 L 33.083785 518.068133 L 35.083304 521.510561 L 37.296974 524.825935 L 39.756157 527.991479 L 42.498155 530.955075 L 45.502535 533.664969 L 48.740316 536.071896 L 52.182519 538.126588 L 55.800162 539.779781 L 59.564267 540.982208 L 63.445854 541.684603 L 67.415941 541.837700 L 71.372254 541.404931 L 75.230782 540.482270 L 78.991832 539.156691 L 82.655405 537.513739 L 86.221499 535.638963 L 89.690116 533.617910 L 93.072608 531.484809 L 96.406292 529.273671 L 99.691309 526.990761 L 102.926047 524.637156 L 106.108892 522.213930 L 109.238232 519.722159 L 112.312453 517.162918 L 115.329944 514.537281 L 118.289091 511.846325 L 121.188282 509.091124 L 124.025904 506.272754 L 126.800344 503.392289 L 129.509989 500.450805 L 130.068517 499.827810" fill="none" stroke="black" stroke-width="2.0" /><path d="M 25.968517 498.127810 L 26.791774 502.007553 L 27.997564 505.755901 L 29.550067 509.373848 L 31.413462 512.862389 L 33.551929 516.222520 L 35.929647 519.455236 L 38.510796 522.561532 L 41.259555 525.542402 L 44.140104 528.398841 L 47.116622 531.131846 L 50.152415 533.743685 L 53.305137 536.209301 L 56.712060 538.291833 L 60.446216 539.762531 L 64.382705 540.470414 L 68.381258 540.417813 L 72.301580 539.634990 L 76.003376 538.152203 L 79.346354 535.999712 L 80.368517 535.127810" fill="none" stroke="black" stroke-width="2.0" /><path d="M 73.668517 540.727810 L 77.209932 538.859783 L 80.713209 536.924365 L 84.177456 534.922451 L 87.601778 532.854934 L 90.985284 530.722705 L 94.327081 528.526659 L 97.626275 526.267688 L 100.881973 523.946685 L 104.093283 521.564543 L 107.259312 519.122155 L 110.379167 516.620413 L 113.451955 514.060212 L 116.476782 511.442443 L 119.453415 508.772337 L 122.333731 505.972120 L 124.810699 502.832991 L 126.168517 500.227810" fill="none" stroke="black" stroke-width="2.0" /><path d="M 130.468517 500.527810 L 127.960413 503.627402 L 125.329987 506.609082 L 122.583985 509.476633 L 119.729152 512.233836 L 116.772234 514.884473 L 113.719979 517.432326 L 110.579131 519.881178 L 107.356437 522.234809 L 104.058644 524.497002 L 100.692496 526.671540 L 97.264741 528.762202 L 93.782125 530.772773 L 90.251392 532.707033 L 86.679291 534.568764 L 83.072566 536.361748 L 79.437963 538.089768 L 75.782230 539.756605 L 72.112112 541.366041 L 71.368517 539.527810" fill="none" stroke="black" stroke-width="2.0" /><path d="M 131.268517 500.827810 L 128.640799 503.848994 L 125.928923 506.792218 L 123.135306 509.655791 L 120.262363 512.438022 L 117.312512 515.137220 L 114.288169 517.751692 L 111.191749 520.279748 L 108.025670 522.719696 L 104.792348 525.069845 L 101.494199 527.328502 L 98.133639 529.493978 L 94.713085 531.564579 L 91.234953 533.538616 L 87.701660 535.414395 L 84.115622 537.190227 L 80.479255 538.864418 L 76.794976 540.435279 L 76.568517 540.527810" fill="none" stroke="black" stroke-width="2.0" /><path d="M 115.468517 243.627810 L 111.472234 243.457040 L 107.474537 243.487990 L 103.484127 243.717540 L 99.509706 244.142572 L 95.559976 244.759966 L 91.643637 245.566603 L 87.769392 246.559363 L 83.945942 247.735127 L 80.181989 249.090775 L 76.486233 250.623189 L 72.867376 252.329248 L 69.334121 254.205833 L 65.895168 256.249825 L 62.559219 258.458105 L 59.334975 260.827552 L 56.231520 263.355565 L 53.260997 266.035991 L 50.428920 268.860222 L 47.739562 271.820040 L 45.197198 274.907223 L 42.806104 278.113552 L 40.570551 281.430807 L 38.494817 284.850768 L 36.583174 288.365214 L 34.839897 291.965927 L 33.269261 295.644685 L 31.875539 299.393269 L 30.663007 303.203458 L 29.635939 307.067034 L 28.798609 310.975775 L 28.155781 314.922752 L 27.704041 318.893874 L 27.421636 322.874396 L 27.288332 326.863045 L 27.283897 330.858544 L 27.388096 334.859620 L 27.580697 338.864999 L 27.841466 342.873405 L 28.150171 346.883564 L 28.486577 350.894201 L 28.830451 354.904043 L 29.161560 358.911814 L 29.459671 362.916241 L 29.704550 366.916047 L 29.875964 370.909960 L 29.953679 374.896704 L 29.917463 378.875004 L 29.747082 382.843587 L 29.422303 386.801178 L 28.922891 390.746502 L 28.215217 394.677786 L 27.321748 398.569589 L 26.286412 402.423860 L 25.141546 406.249719 L 23.919491 410.056288 L 22.652588 413.852690 L 21.373175 417.648044 L 20.113592 421.451473 L 18.906179 425.272098 L 17.782110 429.128234 L 16.775072 433.036132 L 15.919209 436.982183 L 15.247871 440.953046 L 14.794406 444.935381 L 14.592165 448.915849 L 14.674495 452.881111 L 15.074747 456.817826 L 15.826269 460.712656 L 16.168517 462.027810" fill="none" stroke="black" stroke-width="2.0" /><path d="M 120.368517 243.327810 L 124.205591 242.249000 L 127.921408 240.856248 L 131.508500 239.169655 L 134.959404 237.209316 L 138.266655 234.995332 L 141.422787 232.547799 L 144.420335 229.886816 L 147.251835 227.032482 L 149.909822 224.004893 L 152.386829 220.824149 L 154.675393 217.510348 L 156.768049 214.083587 L 158.657365 210.564776 L 160.354712 206.968249 L 161.877501 203.296898 L 163.235743 199.558444 L 164.439447 195.760610 L 165.498624 191.911117 L 166.423282 188.017687 L 167.223433 184.088041 L 167.909085 180.129902 L 168.490247 176.150992 L 168.976931 172.159031 L 169.379145 168.161742 L 169.706900 164.166847 L 169.969525 160.181324 L 170.172244 156.194236 L 170.325293 152.201450 L 170.440086 148.204107 L 170.528037 144.203349 L 170.600561 140.200317 L 170.669073 136.196152 L 170.744986 132.191997 L 170.839715 128.188992 L 170.964675 124.188279 L 171.131281 120.190999 L 171.350946 116.198294 L 171.635085 112.211306 L 172.003690 108.230793 L 172.458510 104.258596 L 172.993379 100.296559 L 173.607903 96.346182 L 174.301687 92.408962 L 175.074337 88.486400 L 175.925458 84.579993 L 176.854656 80.691243 L 177.861536 76.821647 L 178.945703 72.972705 L 180.106764 69.145915 L 181.344323 65.342777 L 182.657986 61.564791 L 184.047360 57.813454 L 185.512048 54.090267 L 187.051657 50.396728 L 188.665792 46.734337 L 190.354059 43.104592 L 192.116063 39.508992 L 193.951409 35.949038 L 195.880772 32.413876 L 197.932699 28.910405 L 200.113480 25.468487 L 202.429376 22.117946 L 204.886651 18.888607 L 207.491569 15.810297 L 210.250393 12.912840 L 213.169386 10.226061 L 216.254812 7.779787 L 219.512933 5.603842 L 222.950014 3.728051 L 226.572317 2.182241 L 230.380552 1.005779 L 234.298056 0.279954 L 238.267204 0.000000 L 242.247364 0.150781 L 246.197905 0.717158 L 250.078194 1.683996 L 253.847600 3.036156 L 257.465491 4.758501 L 260.891235 6.835894 L 264.084201 9.253197 L 267.003757 11.995274 L 269.609271 15.046987 L 271.863668 18.347908 L 273.761359 21.835512 L 275.317252 25.483495 L 276.546594 29.263802 L 277.464633 33.148377 L 278.086616 37.109163 L 278.427792 41.118106 L 278.503409 45.147148 L 278.328713 49.168234 L 277.918953 53.153308 L 277.297860 57.089027 L 276.496001 60.990298 L 275.534756 64.859846 L 274.435445 68.700109 L 273.219389 72.513523 L 271.907907 76.302523 L 270.522320 80.069548 L 269.083948 83.817033 L 267.614110 87.547415 L 266.134128 91.263131 L 264.654203 94.981258 L 263.182813 98.705088 L 261.724690 102.435252 L 260.284333 106.172706 L 258.866242 109.918403 L 257.474916 113.673299 L 256.114853 117.438346 L 254.790554 121.214501 L 253.506518 125.002717 L 252.267243 128.803948 L 251.077229 132.619149 L 249.940975 136.449275 L 248.862980 140.295279 L 247.847744 144.158116 L 246.899766 148.038741 L 246.023544 151.938108 L 245.224096 155.860621 L 244.511003 159.807364 L 243.889470 163.772952 L 243.363601 167.753689 L 242.937504 171.745881 L 242.615283 175.745831 L 242.401046 179.749844 L 242.298897 183.754226 L 242.312944 187.755279 L 242.447291 191.749310 L 242.706046 195.732623 L 243.093313 199.701522 L 243.613200 203.652311 L 244.269811 207.581297 L 245.067254 211.484782 L 246.009633 215.359072 L 246.868517 218.427810" fill="none" stroke="black" stroke-width="2.0" /><path d="M 208.568517 18.027810 L 211.063353 14.878978 L 213.832453 11.962237 L 216.849782 9.306978 L 220.089309 6.942595 L 223.525000 4.898478 L 227.130824 3.204019 L 230.880746 1.888610 L 234.748736 0.981644 L 238.708700 0.510587 L 242.714837 0.494536 L 246.701036 0.974173 L 250.606007 1.928508 L 254.368459 3.336551 L 257.927103 5.177313 L 261.220647 7.429804 L 264.187801 10.073032 L 266.767275 13.086010 L 268.897883 16.452267 L 270.540741 20.104464 L 271.747243 23.908785 L 272.592477 27.815170 L 273.151531 31.773559 L 273.509959 35.745261 L 273.694115 39.702099 L 273.713403 43.644563 L 273.577575 47.573613 L 273.296380 51.490206 L 272.879568 55.395304 L 272.336888 59.289865 L 271.678091 63.174849 L 270.912925 67.051214 L 270.051141 70.919922 L 269.102489 74.781930 L 268.076718 78.638199 L 266.983579 82.489688 L 265.832820 86.337356 L 264.634191 90.182162 L 263.397443 94.025067 L 262.132325 97.867029 L 260.848588 101.709008 L 259.555979 105.551964 L 258.264250 109.396855 L 256.983151 113.244641 L 255.722430 117.096282 L 254.491838 120.952738 L 253.301124 124.814966 L 252.160039 128.683927 L 251.078331 132.560581 L 250.065752 136.445886 L 249.132050 140.340803 L 248.286079 144.250191 L 247.533097 148.179834 L 246.874280 152.125253 L 246.309630 156.084360 L 245.839145 160.055068 L 245.462827 164.035291 L 245.180674 168.022941 L 244.992687 172.015932 L 244.898866 176.012176 L 244.899211 180.009587 L 244.993721 184.006078 L 245.182398 187.999561 L 245.465240 191.987950 L 245.842249 195.969158 L 246.313423 199.941098 L 246.878763 203.901682 L 247.538269 207.848825 L 248.291941 211.780439 L 249.139779 215.694437 L 250.081782 219.588732 L 250.168517 219.927810" fill="none" stroke="black" stroke-width="2.0" /><path d="M 261.968517 11.627810 L 264.907999 14.232857 L 267.229342 17.313669 L 269.002139 20.779643 L 270.295984 24.540179 L 271.180469 28.504672 L 271.725188 32.582523 L 271.999732 36.683127 L 272.079067 40.718229 L 272.067165 44.717539 L 271.982489 48.716634 L 271.825285 52.714124 L 271.595798 56.708618 L 271.294273 60.698728 L 270.920955 64.683062 L 270.476090 68.660230 L 269.959923 72.628844 L 269.372700 76.587511 L 268.714665 80.534843 L 267.986065 84.469449 L 267.187143 88.389940 L 266.318147 92.294924 L 265.379320 96.183013 L 264.370909 100.052815 L 263.293158 103.902941 L 262.146313 107.732001 L 260.930619 111.538605 L 259.646321 115.321362 L 258.300324 119.086618 L 256.905677 122.841196 L 255.483973 126.590098 L 254.057498 130.338772 L 252.648537 134.092667 L 251.279375 137.857228 L 249.972298 141.637905 L 248.749591 145.440144 L 247.633539 149.269393 L 246.646429 153.131099 L 245.810690 157.031699 L 245.144508 160.963909 L 244.641221 164.913317 L 244.288548 168.877546 L 244.074208 172.854219 L 243.985919 176.840959 L 244.011401 180.835389 L 244.138373 184.835132 L 244.354552 188.837811 L 244.647659 192.841048 L 245.005411 196.842468 L 245.415529 200.839693 L 245.865730 204.830345 L 246.343734 208.812049 L 246.837259 212.782426 L 247.393998 216.768938 L 248.304829 220.681818 L 250.023453 224.225207 L 250.168517 224.427810" fill="none" stroke="black" stroke-width="2.0" /><path d="M 272.168517 30.727810 L 272.931814 34.647344 L 273.516971 38.573030 L 273.932194 42.503852 L 274.185688 46.438796 L 274.285658 50.376848 L 274.240310 54.316990 L 274.057849 58.258210 L 273.746480 62.199490 L 273.314408 66.139818 L 272.769840 70.078176 L 272.120980 74.013551 L 271.376033 77.944927 L 270.543205 81.871288 L 269.630701 85.791621 L 268.646727 89.704910 L 267.599488 93.610139 L 266.497188 97.506294 L 265.348035 101.392360 L 264.160232 105.267321 L 262.941985 109.130162 L 261.701500 112.979869 L 260.446981 116.815425 L 259.186634 120.635817 L 257.928665 124.440029 L 256.681137 128.249932 L 255.450375 132.088597 L 254.244222 135.952306 L 253.070702 139.838483 L 251.937837 143.744553 L 250.853653 147.667938 L 249.826171 151.606065 L 248.863416 155.556355 L 247.973411 159.516234 L 247.164179 163.483125 L 246.443745 167.454452 L 245.820132 171.427640 L 245.301362 175.400112 L 244.895461 179.369293 L 244.610450 183.332606 L 244.454354 187.287476 L 244.435197 191.231327 L 244.561001 195.161582 L 244.839791 199.075665 L 245.279589 202.971002 L 245.888420 206.845015 L 246.674306 210.695128 L 247.645272 214.518767 L 248.809341 218.313354 L 249.368517 219.927810" fill="none" stroke="black" stroke-width="2.0" /><path d="M 208.468517 222.327810 L 212.397132 222.884767 L 216.363391 222.950884 L 220.341524 222.606047 L 224.305762 221.930143 L 228.230334 221.003060 L 232.089470 219.904684 L 235.887890 218.663581 L 239.643090 217.317034 L 243.354932 215.874744 L 247.024482 214.340323 L 250.652810 212.717381 L 254.240981 211.009531 L 257.790065 209.220382 L 261.301127 207.353545 L 264.775237 205.412633 L 268.213462 203.401256 L 271.616869 201.323024 L 274.986526 199.181550 L 278.323501 196.980443 L 281.628861 194.723316 L 284.903673 192.413779 L 288.149006 190.055443 L 291.365927 187.651919 L 294.555503 185.206818 L 297.718803 182.723752 L 300.856894 180.206331 L 303.970843 177.658167 L 307.061718 175.082870 L 310.130587 172.484052 L 313.178517 169.865323 L 316.206576 167.230294 L 319.215831 164.582578 L 322.207901 161.925585 L 325.193163 159.257636 L 328.172570 156.578998 L 331.146824 153.890796 L 334.116625 151.194155 L 337.082673 148.490201 L 340.045669 145.780058 L 343.006313 143.064851 L 345.965306 140.345706 L 348.923349 137.623747 L 351.881141 134.900100 L 354.839384 132.175890 L 357.798778 129.452242 L 360.760023 126.730281 L 363.723820 124.011132 L 366.690870 121.295919 L 369.661873 118.585769 L 372.637529 115.881807 L 375.618540 113.185156 L 378.605605 110.496943 L 381.599425 107.818293 L 384.600701 105.150330 L 387.610133 102.494180 L 390.628422 99.850967 L 393.656268 97.221818 L 396.694372 94.607856 L 399.743434 92.010207 L 402.804155 89.429997 L 405.877235 86.868349 L 408.963375 84.326390 L 412.063276 81.805244 L 415.177637 79.306036 L 418.307159 76.829892 L 421.452544 74.377936 L 424.614491 71.951294 L 427.793701 69.551091 L 430.990875 67.178452 L 434.206712 64.834501 L 437.441914 62.520365 L 440.697181 60.237167 L 443.973214 57.986034 L 447.270712 55.768089 L 450.590378 53.584460 L 453.932910 51.436269 L 457.299011 49.324643 L 460.689379 47.250706 L 464.104716 45.215584 L 467.545722 43.220402 L 471.013098 41.266284 L 474.507545 39.354357 L 478.029762 37.485744 L 481.580450 35.661571 L 485.160760 33.883309 L 488.825473 32.171272 L 492.580051 30.558457 L 496.405063 29.103830 L 500.281077 27.866357 L 504.188660 26.905003 L 508.108382 26.278736 L 512.020809 26.046519 L 515.906511 26.267320 L 519.746055 27.000103 L 523.498381 28.298970 L 526.994178 30.118162 L 530.213040 32.380765 L 533.167491 35.021873 L 535.870059 37.976582 L 538.333268 41.179987 L 540.569643 44.567183 L 542.591711 48.073264 L 544.414470 51.645582 L 546.079291 55.291608 L 547.597669 58.995436 L 548.970282 62.751988 L 550.197806 66.556181 L 551.280919 70.402938 L 552.220299 74.287178 L 553.016622 78.203822 L 553.670565 82.147789 L 554.182807 86.113999 L 554.554024 90.097374 L 554.784894 94.092833 L 554.876094 98.095296 L 554.828302 102.099684 L 554.642194 106.100916 L 554.318448 110.093913 L 553.857741 114.073595 L 553.260751 118.034883 L 552.528155 121.972696 L 551.660630 125.881954 L 550.658853 129.757579 L 549.523503 133.594489 L 548.255255 137.387606 L 546.854788 141.131849 L 545.322779 144.822139 L 543.659905 148.453396 L 541.866843 152.020539 L 539.944271 155.518490 L 537.892865 158.942168 L 535.713304 162.286493 L 533.406265 165.546387 L 530.972425 168.716768 L 528.412597 171.792451 L 525.747984 174.761676 L 522.989202 177.627827 L 520.140504 180.393943 L 517.206146 183.063064 L 514.190382 185.638228 L 511.097466 188.122475 L 507.931654 190.518843 L 504.697199 192.830371 L 501.398357 195.060099 L 498.039382 197.211065 L 494.624529 199.286308 L 491.158051 201.288868 L 487.644205 203.221783 L 484.087243 205.088092 L 480.491422 206.890834 L 476.860995 208.633049 L 473.200217 210.317775 L 469.513343 211.948051 L 465.804627 213.526917 L 462.078324 215.057411 L 458.338689 216.542572 L 454.589975 217.985439 L 450.836438 219.389051 L 447.079764 220.758478 L 443.312485 222.105673 L 439.535682 223.435935 L 435.751599 224.753705 L 431.962481 226.063423 L 428.170570 227.369531 L 424.378111 228.676468 L 420.587347 229.988676 L 416.800522 231.310595 L 413.019880 232.646666 L 409.247664 234.001330 L 405.486119 235.379028 L 401.737487 236.784199 L 398.004014 238.221286 L 394.287942 239.694729 L 390.591515 241.208969 L 386.916977 242.768445 L 383.266572 244.377600 L 379.642544 246.040874 L 376.047135 247.762707 L 372.482591 249.547540 L 368.951154 251.399815 L 365.455069 253.323971 L 361.995927 255.325105 L 358.572035 257.418660 L 355.190585 259.608161 L 351.858652 261.892247 L 348.583313 264.269560 L 345.371643 266.738741 L 342.230719 269.298431 L 339.167616 271.947271 L 336.189411 274.683902 L 333.303179 277.506965 L 330.515996 280.415101 L 327.834938 283.406952 L 325.267081 286.481158 L 322.819501 289.636361 L 320.499274 292.871200 L 318.313477 296.184318 L 316.269184 299.574356 L 314.373472 303.039954 L 312.633416 306.579754 L 311.056094 310.192396 L 309.648579 313.876522 L 308.417950 317.630772 L 307.371281 321.453789 L 306.515649 325.344212 L 306.368517 326.127810" fill="none" stroke="black" stroke-width="2.0" /><path d="M 301.068517 317.927810 L 303.238003 314.569741 L 305.507762 311.288543 L 307.873958 308.083008 L 310.332756 304.951929 L 312.880321 301.894097 L 315.512820 298.908304 L 318.226416 295.993342 L 321.017276 293.148002 L 323.881564 290.371076 L 326.815445 287.661357 L 329.815086 285.017635 L 332.876650 282.438703 L 335.996304 279.923353 L 339.170212 277.470375 L 342.394540 275.078563 L 345.665453 272.746707 L 348.979116 270.473599 L 352.331694 268.258032 L 355.719353 266.098798 L 359.138258 263.994686 L 362.584573 261.944491 L 366.054465 259.947003 L 369.548683 258.001398 L 373.067513 256.100255 L 376.605413 254.238200 L 380.160918 252.412146 L 383.732563 250.619006 L 387.318884 248.855693 L 390.918415 247.119120 L 394.529691 245.406201 L 398.151247 243.713848 L 401.781618 242.038974 L 405.419340 240.378493 L 409.062947 238.729318 L 412.710975 237.088361 L 416.361958 235.452536 L 420.014431 233.818756 L 423.666929 232.183933 L 427.317988 230.544982 L 430.966142 228.898814 L 434.609927 227.242344 L 438.247877 225.572484 L 441.878528 223.886147 L 445.500414 222.180247 L 449.112071 220.451695 L 452.704218 218.693657 L 456.285700 216.901725 L 459.854223 215.073939 L 463.406746 213.208253 L 466.940226 211.302622 L 470.451621 209.355001 L 473.937890 207.363343 L 477.395990 205.325604 L 480.822880 203.239738 L 484.215516 201.103700 L 487.570858 198.915444 L 490.885863 196.672924 L 494.157489 194.374094 L 497.382694 192.016911 L 500.558437 189.599327 L 503.681674 187.119298 L 506.749364 184.574777 L 509.758465 181.963720 L 512.705935 179.284081 L 515.588732 176.533814 L 518.403813 173.710874 L 521.148138 170.813216 L 523.813608 167.831823 L 526.389506 164.755266 L 528.876702 161.594569 L 531.270151 158.353882 L 533.564806 155.037359 L 535.755623 151.649151 L 537.837556 148.193411 L 539.805559 144.674289 L 541.654588 141.095939 L 543.379596 137.462512 L 544.975538 133.778161 L 546.437370 130.047036 L 547.760044 126.273291 L 548.938516 122.461076 L 549.967741 118.614545 L 550.842672 114.737850 L 551.558265 110.835141 L 552.109473 106.910571 L 552.491253 102.968293 L 552.698557 99.012458 L 552.726341 95.047218 L 552.569559 91.076725 L 552.223166 87.105131 L 551.676372 83.147211 L 550.958291 79.224013 L 550.084159 75.334756 L 549.067296 71.478231 L 547.921023 67.653225 L 546.658659 63.858528 L 545.293524 60.092929 L 543.838939 56.355218 L 542.308223 52.644182 L 540.714696 48.958612 L 538.977271 45.270798 L 537.014950 41.612105 L 534.801306 38.114852 L 532.307769 34.912367 L 529.505769 32.137974 L 526.366737 29.925000 L 522.862103 28.406770 L 520.168517 27.827810" fill="none" stroke="black" stroke-width="2.0" /><path d="M 307.568517 309.927810 L 309.417069 306.383822 L 311.433852 302.948646 L 313.610108 299.621074 L 315.937078 296.399899 L 318.406005 293.283913 L 321.008128 290.271907 L 323.734691 287.362673 L 326.576935 284.555003 L 329.526101 281.847689 L 332.573430 279.239524 L 335.710165 276.729298 L 338.927547 274.315805 L 342.216817 271.997835 L 345.569217 269.774182 L 348.975989 267.643636 L 352.428281 265.604886 L 355.918371 263.647934 L 359.443035 261.762172 L 362.999103 259.940956 L 366.583406 258.177646 L 370.192774 256.465602 L 373.824038 254.798183 L 377.474028 253.168747 L 381.139575 251.570654 L 384.817509 249.997262 L 388.504661 248.441931 L 392.197861 246.898021 L 395.893940 245.358889 L 399.589728 243.817895 L 403.282055 242.268399 L 406.967752 240.703759 L 410.640479 239.114292 L 414.294931 237.491502 L 417.937661 235.841225 L 421.568401 234.163551 L 425.186882 232.458569 L 428.792834 230.726369 L 432.385989 228.967040 L 435.966079 227.180673 L 439.532834 225.367355 L 443.085986 223.527178 L 446.625266 221.660231 L 450.150404 219.766603 L 453.661133 217.846384 L 457.157183 215.899663 L 460.638286 213.926531 L 464.104173 211.927077 L 467.554575 209.901390 L 470.989223 207.849560 L 474.407848 205.771676 L 477.810182 203.667829 L 481.195955 201.538107 L 484.564900 199.382601 L 487.916747 197.201400 L 491.251227 194.994593 L 494.568072 192.762271 L 497.867012 190.504523 L 501.147780 188.221437 L 504.410320 185.914295 L 507.658140 183.579636 L 510.882727 181.197018 L 514.071343 178.758947 L 517.211248 176.257930 L 520.289706 173.686474 L 523.293978 171.037087 L 526.211326 168.302275 L 529.029011 165.474544 L 531.734295 162.546403 L 534.314441 159.510357 L 536.756710 156.358915 L 539.043320 153.081840 L 541.143149 149.699937 L 543.056173 146.231859 L 544.785456 142.683869 L 546.334064 139.062226 L 547.705059 135.373193 L 548.901506 131.623031 L 549.926469 127.818001 L 550.783012 123.964364 L 551.474198 120.068382 L 552.003092 116.136315 L 552.372758 112.174426 L 552.586261 108.188975 L 552.646663 104.186223 L 552.557029 100.172432 L 552.320423 96.153864 L 551.939909 92.136779 L 551.418551 88.127438 L 550.759413 84.132104 L 549.965559 80.157037 L 549.040054 76.208498 L 547.985960 72.292750 L 546.806343 68.416052 L 545.504266 64.584667 L 544.082793 60.804855 L 542.544989 57.082878 L 541.268517 54.227810" fill="none" stroke="black" stroke-width="2.0" /><path d="M 309.368517 313.527810 L 311.824240 310.372957 L 314.359679 307.292712 L 316.971879 304.285301 L 319.657883 301.348953 L 322.414736 298.481892 L 325.239482 295.682345 L 328.129163 292.948538 L 331.080826 290.278699 L 334.091513 287.671053 L 337.158268 285.123827 L 340.278136 282.635247 L 343.448161 280.203540 L 346.665386 277.826932 L 349.926856 275.503649 L 353.229614 273.231919 L 356.570705 271.009966 L 359.947173 268.836018 L 363.356061 266.708301 L 366.794414 264.625042 L 370.259276 262.584466 L 373.747690 260.584801 L 377.256701 258.624272 L 380.783353 256.701107 L 384.324689 254.813531 L 387.877754 252.959771 L 391.439558 251.136171 L 395.011002 249.329024 L 398.593207 247.542743 L 402.184609 245.774408 L 405.783644 244.021100 L 409.388747 242.279899 L 412.998356 240.547886 L 416.610906 238.822141 L 420.224833 237.099745 L 423.838573 235.377779 L 427.450562 233.653323 L 431.059236 231.923458 L 434.663032 230.185263 L 438.260384 228.435821 L 441.849730 226.672211 L 445.429505 224.891514 L 448.998144 223.090810 L 452.554086 221.267181 L 456.095764 219.417706 L 459.621615 217.539466 L 463.130076 215.629542 L 466.619582 213.685014 L 470.088569 211.702963 L 473.535474 209.680469 L 476.958732 207.614613 L 480.356779 205.502476 L 483.728204 203.340657 L 487.071931 201.120766 L 490.384348 198.840546 L 493.661456 196.499894 L 496.899258 194.098704 L 500.093756 191.636873 L 503.240953 189.114297 L 506.336850 186.530870 L 509.377451 183.886489 L 512.358757 181.181050 L 515.276771 178.414447 L 518.127494 175.586578 L 520.906930 172.697337 L 523.611080 169.746620 L 526.235947 166.734324 L 528.777534 163.660343 L 531.231841 160.524573 L 533.594872 157.326911 L 535.862630 154.067251 L 538.031115 150.745490 L 540.096331 147.361524 L 542.054280 143.915247 L 543.900964 140.406556 L 545.632385 136.835346 L 547.244546 133.201514 L 548.733449 129.504954 L 550.093669 125.740126 L 551.301361 121.905025 L 552.349549 118.012628 L 553.237252 114.071871 L 553.963489 110.091690 L 554.527279 106.081021 L 554.927641 102.048800 L 555.163593 98.003962 L 555.234154 93.955445 L 555.138343 89.912182 L 554.875179 85.883111 L 554.443680 81.877168 L 553.842866 77.903287 L 553.071755 73.970406 L 552.129366 70.087459 L 551.014717 66.263384 L 549.726829 62.507115 L 548.264719 58.827588 L 546.627406 55.233740 L 544.813909 51.734507 L 542.823246 48.338823 L 540.654438 45.055626 L 538.306502 41.893851 L 535.778457 38.862434 L 533.069322 35.970311 L 530.178116 33.226417 L 529.268517 32.427810" fill="none" stroke="black" stroke-width="2.0" /><path d="M 530.368517 143.427810 L 531.823193 139.696582 L 533.149472 135.919830 L 534.346966 132.101813 L 535.415288 128.246789 L 536.354051 124.359017 L 537.162868 120.442755 L 537.841351 116.502261 L 538.389114 112.541795 L 538.805770 108.565614 L 539.090930 104.577976 L 539.244209 100.583141 L 539.265219 96.585367 L 539.153573 92.588911 L 538.908884 88.598033 L 538.530764 84.616990 L 538.018826 80.650042 L 537.372685 76.701446 L 536.591951 72.775462 L 535.664854 68.873183 L 534.539290 65.003727 L 533.134455 61.244926 L 531.365199 57.681928 L 529.146500 54.399545 L 526.473120 51.481625 L 523.410796 49.024217 L 520.023511 47.020850 L 516.375250 45.465054 L 512.529996 44.350358 L 508.551733 43.670293 L 504.504446 43.418388 L 500.452118 43.588173 L 496.458734 44.173177 L 492.585989 45.152710 L 488.837752 46.456033 L 485.206279 48.048531 L 481.688713 49.900202 L 478.282197 51.981044 L 474.983874 54.261053 L 471.790885 56.710229 L 468.700373 59.298568 L 465.709482 61.996067 L 462.816300 64.773346 L 460.010623 67.614087 L 457.275700 70.512458 L 454.607854 73.465513 L 452.003409 76.470303 L 449.458689 79.523884 L 446.970017 82.623306 L 444.533719 85.765624 L 442.146117 88.947890 L 439.803535 92.167158 L 437.502297 95.420480 L 435.238727 98.704909 L 433.009149 102.017498 L 430.809886 105.355301 L 428.637263 108.715370 L 426.487604 112.094758 L 424.357231 115.490519 L 422.242469 118.899704 L 420.139643 122.319368 L 418.045075 125.746564 L 415.955089 129.178343 L 413.866010 132.611760 L 411.774160 136.043867 L 409.675865 139.471717 L 407.567448 142.892363 L 405.445232 146.302859 L 403.305542 149.700257 L 401.144701 153.081610 L 398.959033 156.443971 L 396.744863 159.784393 L 394.498513 163.099930 L 392.216308 166.387633 L 389.894571 169.644557 L 387.529627 172.867754 L 385.117931 176.054109 L 382.658870 179.199642 L 380.153398 182.306339 L 377.603716 185.375889 L 375.012025 188.409982 L 372.380526 191.410306 L 369.711421 194.378552 L 367.006910 197.316408 L 364.269196 200.225565 L 361.500480 203.107710 L 358.702962 205.964534 L 355.878845 208.797726 L 353.030328 211.608976 L 350.159615 214.399972 L 347.268905 217.172404 L 344.360400 219.927962 L 341.436302 222.668334 L 338.498812 225.395211 L 335.550131 228.110281 L 332.592460 230.815234 L 329.628001 233.511759 L 326.658955 236.201546 L 323.687522 238.886284 L 322.659868 241.780759 L 326.006823 243.566816 L 330.177068 243.938476 L 334.186481 243.764600 L 338.179074 243.512605 L 342.166407 243.190128 L 346.147327 242.797528 L 350.120681 242.335162 L 354.085318 241.803387 L 358.040085 241.202562 L 361.983829 240.533043 L 365.915398 239.795189 L 369.833641 238.989357 L 373.737403 238.115905 L 377.625534 237.175191 L 381.496880 236.167571 L 385.350289 235.093404 L 389.184609 233.953048 L 392.998688 232.746860 L 396.791372 231.475197 L 400.561510 230.138418 L 404.307950 228.736879 L 408.029538 227.270940 L 411.725122 225.740956 L 415.393550 224.147286 L 419.033670 222.490288 L 422.644329 220.770319 L 426.224375 218.987737 L 429.772656 217.142899 L 433.288018 215.236163 L 436.769310 213.267887 L 440.215379 211.238429 L 443.625073 209.148145 L 446.997240 206.997394 L 447.868517 206.427810" fill="none" stroke="black" stroke-width="2.0" /></svg>