<?xml version="1.0" encoding="utf-8" ?>
<svg baseProfile="full" height="525" version="1.1" viewBox="0,0,562,525" width="562" xmlns="http://www.w3.org/2000/svg" xmlns:ev="http://www.w3.org/2001/xml-events" xmlns:xlink="http://www.w3.org/1999/xlink">
	<path d="M 415.829093 37.212690 L 414.366398 35.862888 L 412.885521 34.533059 L 411.542731 33.063987 L 409.968349 31.846646 L 408.330846 30.715310 L 406.735069 29.525825 L 405.010649 28.532333 L 403.193067 27.721678 L 401.286409 27.151679 L 399.324174 26.820191 L 397.336983 26.713323 L 395.346948 26.680355 L 393.361048 26.810544 L 391.380259 27.004995 L 389.410906 27.292783 L 387.457814 27.675638 L 385.522918 28.141875 L 383.608509 28.686161 L 381.714693 29.298298 L 379.841801 29.971760 L 377.986867 30.693253 L 376.152476 31.465469 L 374.339524 32.286757 L 372.548712 33.155263 L 370.780584 34.069067 L 369.034798 35.024868 L 367.310346 36.018650 L 365.599705 37.036054 L 363.901134 38.073487 L 362.214873 39.130810 L 360.540382 40.206677 L 358.882181 41.307474 L 357.240141 42.432237 L 355.613686 43.579422 L 354.012718 44.761877 L 352.423629 45.960299 L 350.845256 47.172799 L 349.287954 48.412217 L 347.743837 49.668049 L 346.215017 50.942451 L 344.695211 52.227604 L 343.187262 53.526643 L 341.688967 54.836810 L 340.199465 56.156965 L 338.720669 57.489099 L 337.252000 58.832390 L 335.795607 60.188978 L 334.359093 61.566577 L 332.941824 62.963974 L 331.540410 64.377280 L 330.154014 65.805322 L 328.783811 67.248906 L 327.426908 68.705004 L 326.086355 70.176161 L 324.760424 71.660516 L 323.450785 73.159260 L 322.157345 74.672007 L 320.879173 76.197678 L 319.619761 77.738863 L 318.373979 79.291099 L 317.149790 80.860399 L 315.936494 82.438163 L 314.747640 84.034386 L 313.567511 85.637112 L 312.415521 87.260123 L 311.281032 88.895462 L 310.184462 90.556378 L 309.122478 92.239657 L 308.108190 93.952023 L 307.112647 95.675482 L 306.113375 97.396786 L 305.136406 99.130807 L 304.176862 100.874560 L 303.192771 102.604535 L 302.190900 104.324318 L 301.212158 106.057327 L 300.220935 107.783255 L 299.230485 109.509652 L 298.242814 111.237641 L 297.260116 112.968462 L 296.276700 114.698877 L 295.297228 116.431525 L 294.320084 118.165489 L 293.344881 119.900545 L 292.368646 121.635021 L 291.394678 123.370771 L 290.418132 125.105071 L 289.441237 126.839176 L 288.452683 128.566646 L 287.465076 130.294671 L 286.456096 132.010253 L 285.422841 133.711342 L 284.373485 135.402569 L 283.309882 137.084871 L 282.233099 138.758771 L 281.144910 140.425282 L 280.046256 142.084913 L 278.937640 143.737906 L 277.819056 145.384170 L 276.690547 147.023648 L 275.552026 148.656187 L 274.403749 150.281880 L 273.245736 151.900651 L 272.077796 153.512275 L 270.899946 155.116671 L 269.712292 156.713822 L 268.513770 158.302831 L 267.304870 159.883962 L 266.086324 161.457672 L 264.859289 163.024774 L 263.623463 164.584951 L 262.373053 166.133448 L 261.089487 167.654470 L 259.793685 169.164821 L 258.475460 170.655671 L 257.134443 172.126112 L 255.773151 173.577810 L 254.391606 175.010272 L 252.988946 176.422014 L 251.556360 177.802940 L 250.081278 179.136849 L 248.542520 180.393401 L 246.936674 181.560921 L 245.266562 182.638223 L 243.560364 183.662231" fill="none" stroke="black" stroke-width="2.000000" />
	<path d="M 196.704834 417.216674 L 198.258120 415.990734 L 199.820390 414.776264 L 201.364251 413.538483 L 202.884701 412.272063 L 204.396340 410.995127 L 205.883174 409.689417 L 207.343696 408.354346 L 208.787603 407.001303 L 210.227663 405.644155 L 211.663642 404.282689 L 213.093132 402.914413 L 214.507415 401.530442 L 215.907597 400.132202 L 217.290417 398.716800 L 218.656425 397.285162 L 220.006296 395.838299 L 221.338649 394.375295 L 222.649854 392.893321 L 223.939243 391.392328 L 225.205709 389.871950 L 226.450262 388.333579 L 227.673576 386.778262 L 228.875031 385.206003 L 230.053588 383.616512 L 231.204525 382.006936 L 232.326347 380.376935 L 233.420164 378.728003 L 234.487017 377.061495 L 235.527658 375.378491 L 236.544958 373.681262 L 237.542935 371.972586 L 238.522309 370.253181 L 239.481345 368.522358 L 240.418250 366.779462 L 241.330969 365.023788 L 242.218287 363.255143 L 243.077641 361.472760 L 243.903330 359.674569 L 244.683956 357.856457 L 245.413323 356.017191 L 246.091304 354.158362 L 246.721660 352.282805 L 247.323136 350.397660 L 247.903763 348.506007 L 248.466119 346.608818 L 249.010007 344.706271 L 249.538779 342.799441 L 250.050441 340.887980 L 250.532995 338.969009 L 250.961920 337.037614 L 251.331291 335.093757 L 251.650591 333.141075 L 251.919534 331.180799 L 252.142269 329.214705 L 252.322036 327.244209 L 252.462393 325.270482 L 252.563781 323.294403 L 252.604764 321.316470 L 252.590858 319.337744 L 252.564050 317.359134 L 252.529013 315.380658 L 252.482715 313.402413 L 252.423500 311.424519 L 252.349097 309.447137 L 252.260223 307.470352 L 252.158044 305.494206 L 252.042796 303.518784 L 251.912374 301.544306 L 251.768072 299.570787 L 251.614753 297.597943 L 251.456600 295.625479 L 251.296351 293.653184 L 251.140600 291.680537 L 250.984363 289.707976 L 250.793246 287.738519 L 250.560143 285.773604 L 250.283584 283.814311 L 249.968062 281.860900 L 249.617401 279.913471 L 249.235804 277.971867 L 248.827401 276.035684 L 248.405296 274.102450 L 247.965790 272.173094 L 247.504581 270.248876 L 247.010124 268.332870 L 246.493489 266.422774 L 245.954982 264.518665 L 245.413496 262.615420 L 244.870805 260.712540 L 244.332679 258.808354 L 243.794487 256.904217 L 243.255372 255.000362 L 242.686454 253.105321 L 242.097765 251.216795 L 241.446663 249.349432 L 240.744372 247.501003 L 239.967253 245.683348 L 239.114483 243.900144 L 238.218873 242.136500 L 237.259952 240.406114 L 236.295776 238.678284" fill="none" stroke="black" stroke-width="2.000000" />
	<path d="M 25.178870 376.261767 L 26.156197 377.957235 L 27.233881 379.590720 L 28.137794 381.326259 L 29.027479 383.069313 L 29.968739 384.785035 L 30.909098 386.501282 L 31.848752 388.217916 L 32.874947 389.884092 L 33.998862 391.485901 L 35.191787 393.037110 L 36.453406 394.532935 L 37.812265 395.940629 L 39.274766 397.239939 L 40.820898 398.438586 L 42.425360 399.558296 L 44.073897 400.612221 L 45.748174 401.625252 L 47.474124 402.543991 L 49.248856 403.367944 L 51.042911 404.149594 L 52.845232 404.912065 L 54.653466 405.660402 L 56.479852 406.362470 L 58.306161 407.065140 L 60.141697 407.743805" fill="none" stroke="black" stroke-width="2.000000" />
	<path d="M 207.447641 244.915613 L 205.519846 244.975850 L 203.607395 245.224632 L 201.742897 245.715985 L 199.936647 246.390932 L 198.211442 247.251634 L 196.575201 248.271419 L 195.000155 249.384145 L 193.504145 250.600668 L 192.067019 251.886658 L 190.687900 253.234633 L 189.285645 254.558721 L 187.905913 255.906275 L 186.675770 257.388396 L 185.584162 258.977037 L 184.582449 260.624726 L 183.687739 262.332221 L 182.886831 264.086209 L 182.177102 265.878848 L 181.545234 267.700780 L 180.972577 269.542303 L 180.450879 271.398956 L 179.981271 273.269392 L 179.575483 275.154565 L 179.239822 277.053641 L 178.962759 278.962233 L 178.688628 280.870959 L 178.422830 282.781151 L 178.126190 284.686920" fill="none" stroke="black" stroke-width="2.000000" />
	<path d="M 63.601868 450.556976 L 62.627505 448.864504 L 61.669251 447.162588 L 60.697705 445.468653 L 59.772508 443.749619 L 58.902450 442.001993 L 58.091492 440.226039 L 57.307529 438.437307 L 56.627637 436.606473 L 56.028420 434.747638 L 55.493826 432.868947 L 55.024117 430.973160 L 54.615855 429.063000 L 54.329986 427.133199 L 54.236995 425.184345 L 54.294435 423.232347 L 54.452415 421.285940 L 54.711662 419.350363 L 55.083382 417.433761 L 55.596084 415.550287 L 56.225666 413.701215 L 56.984740 411.907609 L 58.017369 410.254462 L 59.246250 408.737643 L 60.622713 407.358999 L 62.217396 406.247431 L 64.002901 405.463181 L 65.851497 404.832622 L 67.673253 404.128244 L 69.471764 403.365714 L 71.261904 402.583970 L 73.024141 401.742746 L 74.725467 400.784393 L 76.359163 399.714180 L 77.933666 398.558515 L 79.449456 397.326692 L 80.912601 396.032526 L 82.343289 394.702391 L 83.774091 393.372383 L 85.210201 392.048103 L 86.648952 390.726754 L 88.110994 389.431170 L 89.583283 388.147251 L 91.069576 386.879565 L 92.568655 385.627025 L 94.081172 384.390750 L 95.609522 383.174115 L 97.161014 381.987221 L 98.755267 380.858298 L 100.361434 379.746384 L 101.974197 378.644066 L 103.601727 377.563688 L 105.270205 376.547663" fill="none" stroke="black" stroke-width="2.000000" />
	<path d="M 164.372783 172.222310 L 166.237021 171.526186 L 168.109925 170.853725 L 169.992124 170.207741 L 171.864704 169.534384 L 173.720559 168.816227 L 175.551551 168.036883 L 177.373949 167.237613 L 179.183454 166.409577 L 180.974387 165.542118 L 182.747508 164.638806 L 184.505445 163.706281 L 186.256651 162.761165 L 188.001631 161.804601 L 189.741633 160.839013 L 191.479210 159.869065 L 193.209201 158.885656 L 194.937657 157.899545 L 196.657850 156.899098 L 198.360111 155.868459 L 200.051772 154.820492 L 201.731568 153.753613 L 203.392553 152.657699 L 205.038233 151.538919 L 206.670267 150.400323 L 208.286133 149.238904 L 209.897790 148.071627 L 211.489015 146.876689 L 213.071448 145.670096 L 214.648246 144.456144 L 216.213357 143.227174 L 217.772542 141.990683 L 219.325244 140.746062 L 220.868952 139.490307 L 222.405166 138.225393 L 223.920869 136.936010 L 225.441033 135.651851 L 226.962378 134.369086 L 228.474265 133.075199 L 229.977562 131.771338 L 231.476423 130.462375 L 232.982928 129.162222 L 234.491757 127.864759 L 235.994845 126.560655 L 237.491892 125.249619 L 238.979221 123.927576 L 240.454248 122.591827 L 241.918069 121.243802 L 243.378751 119.892366 L 244.835035 118.536192 L 246.293064 117.181894 L 247.748503 115.824814 L 249.202397 114.466077 L 250.648103 113.098640 L 252.099941 111.737716 L 253.550602 110.375528 L 255.009078 109.021721 L 256.430976 107.629760 L 257.831302 106.215906 L 259.225307 104.795795 L 260.616859 103.373277 L 262.031734 101.974044 L 263.461441 100.589894 L 264.940728 99.259270 L 266.411090 97.918449 L 267.908061 96.607524 L 269.404135 95.295390 L 270.922031 94.008677 L 272.437755 92.719291 L 273.972303 91.452459 L 275.513245 90.193304 L 277.068108 88.951431 L 278.628605 87.716596 L 280.196076 86.490635 L 281.770658 85.273818 L 283.353005 84.067119 L 284.936323 82.861683 L 286.519817 81.656476 L 288.100792 80.447971 L 289.678031 79.234594 L 291.249451 78.013695 L 292.819751 76.791348 L 294.388444 75.566941 L 295.959600 74.345698 L 297.529464 73.122794 L 299.098572 71.898917 L 300.669105 70.676870 L 302.246956 69.464304 L 303.829459 68.257799 L 305.418382 67.059774 L 307.010251 65.865652 L 308.606589 64.677518 L 310.208666 63.497135 L 311.815785 62.323624 L 313.428502 61.157820 L 315.044449 59.996490 L 316.663577 58.839603 L 318.283207 57.683414 L 319.904017 56.528881 L 321.526802 55.377126 L 323.152237 54.229114 L 324.782016 53.087283 L 326.414981 51.950007 L 328.052530 50.819349 L 329.693086 49.693052 L 331.338964 48.574558 L 332.989609 47.463102 L 334.645687 46.359766 L 336.306299 45.263256 L 337.972189 44.174791 L 339.642188 43.092631 L 341.316974 42.017902 L 342.995839 40.949549 L 344.679887 39.889395 L 346.368617 38.836706 L 348.061836 37.791257 L 349.759214 36.752571 L 351.460814 35.720818 L 353.166968 34.696613 L 354.878575 33.681554 L 356.596655 32.677496 L 358.321912 31.685826 L 360.055095 30.708081 L 361.797345 29.746598 L 363.548908 28.802187 L 365.310003 27.875680 L 367.080527 26.967317 L 368.860667 26.077956 L 370.650209 25.207664 L 372.449603 24.357947 L 374.259759 23.531425 L 376.083923 22.736426 L 377.921429 21.972669 L 379.754607 21.198668 L 381.606490 20.472347 L 383.492859 19.840310 L 385.408816 19.305224 L 387.349289 18.866634 L 389.308923 18.524057 L 391.282645 18.274146 L 393.264992 18.104038 L 395.252613 18.019357 L 397.242167 18.021543 L 399.229543 18.111982 L 401.210289 18.297245 L 403.180888 18.571086 L 405.137166 18.932757 L 407.070940 19.398689 L 408.971490 19.984899 L 410.796318 20.766909 L 412.417576 21.893355 L 413.823029 23.297536 L 415.242476 24.688370 L 416.638898 26.102046 L 417.873681 27.658882 L 418.935395 29.338723 L 419.854875 31.102333 L 420.695050 32.906022 L 421.457459 34.743369 L 422.123376 36.617943 L 422.700196 38.521964 L 423.195703 40.448830 L 423.614879 42.393775 L 423.964358 44.352532 L 424.253665 46.321158 L 424.490095 48.296867 L 424.679126 50.277709 L 424.830901 52.261821 L 424.962828 54.247405 L 425.086090 56.233549 L 425.186792 58.220883 L 425.246490 60.209827 L 425.260113 62.199610 L 425.231824 64.189290 L 425.169323 66.178214 L 425.076996 68.165988 L 424.957804 70.152343 L 424.813319 72.137019 L 424.644127 74.119744 L 424.452126 76.100399 L 424.242039 78.079232 L 424.017982 80.056536 L 423.777796 82.031932 L 423.512105 84.004016 L 423.210695 85.970924 L 422.872604 87.931887 L 422.493440 89.885236 L 422.053395 91.825571 L 421.546602 93.749684 L 420.977149 95.656112 L 420.336756 97.539802 L 419.621501 99.396358 L 418.837824 101.225212 L 417.993185 103.026725 L 417.086539 104.797792 L 416.120875 106.537493 L 415.104174 108.247899 L 414.039678 109.928991 L 412.930666 111.581091 L 411.780988 113.205174 L 410.594108 114.802305 L 409.373313 116.373676 L 408.120021 117.919254 L 406.835571 119.439053 L 405.523705 120.935291 L 404.188310 122.410575 L 402.829540 123.864345 L 401.447636 125.296162 L 400.042814 126.705468 L 398.615103 128.091621 L 397.168635 129.458205 L 395.702113 130.803187 L 394.212042 132.122043 L 392.699503 133.415071 L 391.164610 134.681471 L 389.607298 135.920203 L 388.028446 137.131367 L 386.429401 138.315760 L 384.811546 139.474327 L 383.175516 140.607091 L 381.521634 141.713613 L 379.850646 142.794165 L 378.165804 143.853017 L 376.469442 144.893317 L 374.762694 145.916505 L 373.047226 146.925010 L 371.324561 147.921190 L 369.596922 148.908722 L 367.865567 149.889728 L 366.131383 150.865730 L 364.395532 151.838763 L 362.658394 152.809497 L 360.919951 153.777889 L 359.179703 154.743037 L 357.438136 155.705798 L 355.693877 156.663677 L 353.947893 157.618408 L 352.198817 158.567443 L 350.443942 159.505722 L 348.685370 160.437063 L 346.924154 161.363388 L 345.160911 162.285853 L 343.396744 163.206522 L 341.627181 164.116808 L 339.855017 165.021984 L 338.076548 165.914741 L 336.295606 166.802553 L 334.511691 167.684376 L 332.724960 168.560481 L 330.935629 169.431259 L 329.143253 170.295760 L 327.349369 171.157126 L 325.553880 172.015140 L 323.756743 172.869701 L 321.959044 173.723078 L 320.160962 174.575646 L 318.362125 175.426622 L 316.563009 176.277006 L 314.763056 177.125619 L 312.964300 177.976760 L 311.167372 178.831758 L 309.370904 179.687694 L 307.580589 180.556448 L 305.794014 181.432868 L 304.011751 182.318013 L 302.234919 183.214016 L 300.463134 184.119954 L 298.696743 185.036368 L 296.935652 185.962927 L 295.179763 186.899304 L 293.429195 187.845601 L 291.682721 188.799415 L 289.944632 189.768398 L 288.217653 190.757057 L 286.500621 191.762905 L 284.791475 192.782106 L 283.087773 193.810390 L 281.387217 194.843863 L 279.693042 195.887738 L 278.010708 196.950570 L 276.343535 198.037004 L 274.703977 199.164566 L 273.073993 200.305562 L 271.461650 201.471438 L 269.867285 202.661843 L 268.289128 203.873698 L 266.727692 205.107030 L 265.181653 206.359636 L 263.652749 207.633080 L 262.139716 208.925336 L 260.645037 210.238750 L 259.167889 211.571835 L 257.709795 212.925744 L 256.272263 214.301390 L 254.855571 215.698449 L 253.463322 217.119786 L 252.094933 218.564119 L 250.756630 220.036133 L 249.446265 221.533094 L 248.172311 223.060898 L 246.933251 224.617170 L 245.735429 226.205114 L 244.584772 227.827439 L 243.478484 229.480141 L 242.455259 231.184321 L 241.508742 232.930131 L 240.686167 234.735138 L 239.997923 236.595280 L 239.438345 238.498388 L 239.015081 240.437890 L 238.708752 242.400717 L 238.486286 244.376313 L 238.320236 246.358963" fill="none" stroke="black" stroke-width="2.000000" />
	<path d="M 171.139075 301.806706 L 169.379416 302.745657 L 167.632106 303.707392 L 165.902565 304.700727 L 164.246685 305.812496 L 162.595385 306.931082 L 160.968013 308.084198 L 159.470484 309.401458 L 158.122389 310.871291 L 156.837581 312.396824 L 155.606835 313.966300 L 154.423738 315.572003 L 153.282293 317.207578 L 152.183147 318.871873 L 151.128281 320.564580 L 150.119543 322.285173 L 149.120228 324.011265 L 148.048214 325.693143 L 147.107923 327.451986 L 146.288293 329.270229 L 145.489812 331.097918 L 144.781508 332.962373 L 144.169320 334.860555 L 143.658309 336.788434 L 143.249189 338.740475 L 142.936786 340.710314 L 142.745928 342.695591 L 142.688090 344.689167 L 142.737488 346.682999 L 142.889065 348.671677 L 143.073996 350.657579 L 143.332263 352.635256 L 143.678535 354.599420 L 144.106152 356.547499 L 144.610416 358.477161 L 145.220444 360.375999 L 145.959198 362.228506 L 146.926257 363.972375 L 147.949562 365.684326 L 148.976297 367.394251 L 149.988259 369.112957 L 150.774163 370.945540 L 151.417809 372.833149 L 152.004019 374.739528 L 152.525281 376.664668 L 152.999452 378.601964 L 153.396810 380.556425 L 153.717018 382.524998 L 153.992476 384.500366 L 154.205855 386.483381 L 154.355181 388.472244 L 154.446728 390.464609 L 154.488598 392.458644 L 154.486597 394.453123 L 154.438621 396.447024 L 154.342006 398.439156 L 154.194991 400.428202 L 153.996774 402.412798 L 153.746089 404.391449 L 153.442481 406.362672 L 153.085632 408.324954 L 152.667812 410.275151 L 152.162698 412.204526 L 151.566172 414.107613 L 150.906990 415.989978 L 150.186991 417.849929 L 149.406052 419.685124 L 148.562647 421.492456 L 147.658024 423.269937 L 146.723792 425.032091 L 145.765102 426.781062 L 144.791757 428.521928 L 143.785699 430.244075 L 142.717784 431.928494 L 141.568732 433.558567 L 140.331667 435.122850 L 139.018382 436.623761 L 137.637502 438.062754 L 136.193600 439.438504 L 134.690989 440.749886 L 133.137770 442.000948 L 131.539118 443.193422 L 129.883998 444.306064 L 128.178297 445.339526 L 126.426989 446.293675 L 124.634871 447.168783 L 122.808011 447.968880 L 120.947757 448.687874 L 119.059142 449.328725 L 117.148038 449.899108 L 115.217381 450.399323 L 113.270198 450.830776 L 111.309507 451.196003 L 109.336392 451.486552 L 107.353649 451.701808 L 105.366308 451.870186 L 103.375538 451.991396 L 101.382040 452.052287 L 99.387612 452.052708 L 97.394069 451.993235 L 95.403801 451.864874 L 93.418316 451.676209 L 91.437705 451.441592 L 89.459295 451.188805 L 87.480622 450.938049 L 85.490880 450.805571 L 83.496983 450.763413 L 81.503050 450.716062 L 79.508620 450.704688 L 77.518969 450.836187 L 75.534821 451.038307 L 73.553268 451.265100 L 71.565332 451.425164 L 69.571506 451.421352 L 67.586471 451.235212 L 65.617692 450.918195 L 63.654730 450.565002 L 61.691674 450.212249 L 59.713408 449.960648 L 57.726741 449.785465 L 55.737602 449.639527 L 53.750233 449.471244 L 51.766422 449.265391 L 49.788635 449.008259 L 47.816044 448.713667 L 45.851553 448.369372 L 43.898620 447.964781 L 41.959747 447.497462 L 40.036718 446.968702 L 38.135152 446.367472 L 36.257800 445.694423 L 34.402181 444.963438 L 32.578057 444.157292 L 30.780650 443.293020 L 29.005434 442.383958 L 27.260187 441.418718 L 25.548393 440.395337 L 23.876829 439.307553 L 22.250990 438.152581 L 20.661640 436.947750 L 19.106634 435.698889 L 17.585664 434.408784 L 16.102090 433.075865 L 14.661879 431.696242 L 13.297701 430.241720 L 11.997277 428.729709 L 10.743116 427.178987 L 9.537558 425.590208 L 8.386077 423.961835 L 7.293597 422.293325 L 6.266829 420.583627 L 5.302120 418.838122 L 4.358640 417.080897 L 3.526207 415.269052 L 2.833541 413.399427 L 2.266751 411.487675 L 1.771460 409.555783 L 1.319343 407.613255 L 0.912563 405.660746 L 0.575366 403.695128 L 0.363231 401.712495 L 0.256583 399.721161 L 0.204648 397.727406 L 0.198176 395.732980 L 0.236718 393.738916 L 0.319851 391.746212 L 0.448660 389.755942 L 0.621315 387.768990 L 0.837584 385.786312 L 1.099525 383.809157 L 1.412864 381.839515 L 1.783537 379.879877 L 2.211211 377.931881 L 2.693294 375.996623 L 3.223244 374.073897 L 3.797261 372.163854 L 4.422622 370.270036 L 5.097876 368.393417 L 5.814284 366.532087 L 6.569357 364.686102 L 7.355757 362.853219 L 8.160165 361.028139 L 8.961878 359.201865 L 9.731274 357.361802 L 10.445658 355.499775 L 11.102960 353.616830 L 11.675849 351.706699 L 12.135691 349.766460 L 12.486590 347.803493 L 12.762376 345.828323 L 12.973377 343.845163 L 13.127169 341.856713 L 13.234530 339.865176 L 13.303451 337.871917 L 13.342601 335.877830 L 13.378051 333.883646 L 13.421047 331.889613 L 13.481985 329.896059 L 13.575246 327.903786 L 13.687132 325.912436 L 13.791079 323.920653 L 13.912726 321.929889 L 14.065691 319.941305 L 14.261897 317.956558 L 14.512344 315.977966 L 14.822765 314.007915 L 15.193571 312.048331 L 15.621553 310.100421 L 16.099961 308.164247 L 16.627983 306.241016 L 17.215289 304.335112 L 17.870829 302.451641 L 18.578652 300.587074 L 19.316836 298.734241 L 20.093150 296.897108 L 20.904418 295.075113 L 21.791569 293.289176 L 22.771951 291.552784 L 23.735314 289.806484 L 24.620783 288.019728 L 25.470405 286.215272 L 26.196055 284.358567 L 26.695408 282.430255 L 27.036494 280.465921 L 27.259751 278.484476 L 27.403182 276.495346 L 27.497015 274.503134 L 27.545093 272.509299 L 27.546279 270.514889 L 27.505266 268.520880 L 27.440904 266.527433 L 27.380661 264.533848 L 27.338899 262.539804 L 27.294582 260.545800 L 27.289791 258.551417 L 27.404821 256.561019 L 27.610682 254.577431 L 27.840574 252.596229 L 28.098395 250.618509 L 28.377132 248.643597 L 28.675133 246.671502 L 29.001441 244.703918 L 29.344400 242.739133 L 29.721488 240.780676 L 30.134913 238.829552 L 30.558669 236.880589 L 31.013317 234.938668 L 31.516632 233.008845 L 32.064557 231.091172 L 32.655874 229.186437 L 33.288572 227.295035 L 33.961673 225.417631 L 34.673584 223.554591 L 35.423751 221.706624 L 36.215145 219.875953 L 37.059613 218.069235 L 37.970118 216.294985 L 38.917828 214.540078 L 39.915900 212.813487 L 40.980256 211.127068 L 42.103776 209.479368 L 43.289193 207.875711 L 44.502162 206.292469 L 45.769761 204.753013 L 47.125172 203.290824 L 48.536744 201.881998 L 50.040666 200.573697 L 51.632905 199.373885 L 53.299534 198.279621 L 55.022559 197.275935 L 56.788090 196.348761 L 58.588753 195.491695 L 60.419500 194.700835 L 62.269739 193.956326 L 64.131931 193.242104 L 66.009373 192.569204 L 67.898489 191.929600 L 69.787245 191.288816 L 71.670041 190.630767 L 73.554933 189.978719 L 75.442000 189.332962 L 77.329450 188.688324 L 79.217418 188.045201 L 81.106310 187.404801 L 82.997123 186.770101 L 84.885635 186.128600 L 86.769938 185.474846 L 88.647605 184.802313 L 90.518556 184.111297 L 92.382711 183.402158 L 94.230469 182.651641 L 96.050062 181.835588 L 97.805566 180.891710 L 99.502971 179.845347 L 101.110046 178.666801 L 102.656029 177.407071 L 104.169838 176.108586 L 105.673616 174.798367 L 107.171764 173.481720 L 108.658862 172.152624 L 110.106026 170.780512 L 111.530813 169.384822 L 112.915508 167.949668 L 114.238753 166.457857 L 115.493417 164.907946 L 116.680755 163.305798 L 117.803806 161.657892 L 118.865664 159.969858 L 119.874839 158.249706 L 120.834686 156.501539 L 121.748193 154.728686 L 122.592358 152.922063 L 123.362401 151.082549 L 124.078205 149.221063 L 124.724288 147.334478 L 125.228076 145.406240 L 125.627905 143.452568 L 125.998748 141.492853 L 126.308605 139.522923 L 126.548139 137.543088 L 126.728075 135.556891 L 126.871549 133.567600 L 127.012666 131.578103 L 127.132141 129.587244 L 127.219412 127.594707 L 127.280726 125.601179 L 127.325710 123.607197 L 127.354729 121.612924 L 127.367830 119.618480 L 127.368889 117.623987 L 127.361892 115.629502 L 127.348746 113.635048 L 127.330125 111.640637 L 127.297039 109.646430 L 127.254296 107.652390 L 127.215110 105.658279 L 127.196848 103.663901 L 127.207600 101.669479 L 127.239092 99.675243 L 127.297214 97.681642 L 127.365152 95.688300 L 127.421980 93.694625 L 127.481846 91.701031 L 127.568308 89.708467 L 127.705181 87.718852 L 127.921022 85.736494 L 128.205487 83.762583 L 128.541386 81.796700 L 128.917647 79.838091 L 129.326672 77.886038 L 129.769941 75.941495 L 130.238531 74.002847 L 130.729255 72.069690 L 131.245012 70.143070 L 131.793005 68.225405 L 132.373027 66.317165 L 132.978899 64.416951 L 133.603778 62.522885 L 134.244712 60.634190 L 134.903266 58.751572 L 135.580836 56.875716 L 136.278585 55.007276 L 136.994972 53.145896 L 137.724510 51.289617 L 138.464332 49.437411 L 139.213812 47.589092 L 139.972289 45.744446 L 140.744725 43.905615 L 141.530871 42.072595 L 142.330719 40.245517 L 143.151089 38.427586 L 143.989845 36.618043 L 144.846998 34.817152 L 145.720107 33.023927 L 146.605057 31.236510 L 147.501137 29.454649 L 148.428083 27.688773 L 149.420790 25.959405 L 150.490565 24.276614 L 151.627914 22.638585 L 152.821932 21.041290 L 154.075235 19.490223 L 155.396679 17.996976 L 156.784253 16.564875 L 158.232512 15.194142 L 159.735223 13.883233 L 161.290296 12.634959 L 162.893998 11.449721 L 164.541076 10.325476 L 166.229277 9.264024 L 167.954989 8.264622 L 169.711338 7.319909 L 171.500698 6.439720 L 173.315123 5.611824 L 175.156621 4.846715 L 177.031541 4.168170 L 178.937543 3.582507 L 180.874470 3.110885 L 182.837440 2.762725 L 184.817987 2.534355 L 186.808760 2.428310 L 188.802588 2.435292 L 190.795650 2.508142 L 192.786913 2.620286 L 194.775091 2.777170 L 196.758449 2.986062 L 198.729538 3.285765 L 200.642176 3.828349 L 202.449056 4.660634 L 204.089590 5.781942 L 205.592810 7.090480 L 206.913967 8.577177 L 208.020074 10.232370 L 208.938809 12.000059 L 209.814665 13.791862 L 210.614203 15.617553 L 211.277837 17.497171 L 211.812973 19.417491 L 212.231596 21.366789 L 212.535680 23.337139 L 212.736582 25.320953 L 212.829801 27.312488 L 212.860629 29.306694 L 212.848418 31.301004 L 212.786078 33.294382 L 212.688498 35.286452 L 212.557006 37.276523 L 212.400543 39.264860 L 212.208905 41.250000 L 211.993631 43.232843 L 211.750009 45.212309 L 211.483609 47.188928 L 211.198387 49.162895 L 210.889639 51.133318 L 210.556785 53.099810 L 210.201500 55.062382 L 209.826366 57.021262 L 209.433572 58.976683 L 209.024637 60.928794 L 208.600060 62.877563 L 208.150099 64.820601 L 207.694196 66.762182 L 207.224880 68.700657 L 206.743641 70.636202 L 206.252780 72.569298 L 205.751049 74.499611 L 205.237834 76.426921 L 204.715090 78.351665 L 204.183139 80.273890 L 203.642443 82.193676 L 203.094097 84.111296 L 202.538182 86.026741 L 201.976475 87.940496 L 201.410264 89.852933 L 200.841963 91.764755 L 200.274185 93.676730 L 199.711622 95.590236 L 199.156826 97.505973 L 198.609966 99.424004 L 198.070769 101.344230 L 197.535331 103.265512 L 197.001588 105.187268 L 196.470008 107.109623 L 195.941639 109.032856 L 195.419922 110.957890 L 194.908053 112.885537 L 194.412609 114.817416 L 193.936208 116.753979 L 193.481280 118.695738 L 193.057090 120.644361 L 192.660297 122.598502 L 192.296558 124.559248 L 191.960470 126.525007 L 191.651091 128.495220 L 191.361868 130.468467 L 191.103706 132.445966 L 190.866117 134.425942 L 190.668313 136.410344 L 190.491736 138.396696 L 190.360589 140.386565 L 190.245839 142.377523 L 190.160688 144.370172 L 190.096397 146.363513 L 190.049209 148.357199 L 190.039030 150.351374 L 190.068005 152.344943 L 190.152219 154.336603 L 190.291384 156.325232 L 190.495684 158.308122 L 190.727783 160.288696" fill="none" stroke="black" stroke-width="2.000000" />
	<path d="M 203.494163 232.096955 L 203.000925 232.158224 L 202.507687 232.219492 L 202.014449 232.280761 L 201.520960 232.337336 L 201.023998 232.329168 L 200.527036 232.321000 L 200.030075 232.312832 L 199.533105 232.306413 L 199.036091 232.310139 L 198.539076 232.313865 L 198.042061 232.317591 L 197.545776 232.333122 L 197.052089 232.390655 L 196.558401 232.448187 L 196.064713 232.505719 L 195.573856 232.579297 L 195.090281 232.694159 L 194.606707 232.809022 L 194.123133 232.923884 L 193.643537 233.052745 L 193.171833 233.209375 L 192.700129 233.366005 L 192.228425 233.522635 L 191.762643 233.694799 L 191.306376 233.891923 L 190.850108 234.089047 L 190.393841 234.286171 L 189.946937 234.502286 L 189.512735 234.744167 L 189.078534 234.986048 L 188.644332 235.227929 L 188.222976 235.490220 L 187.817085 235.777083 L 187.411194 236.063945 L 187.005303 236.350808 L 186.609168 236.650509 L 186.224066 236.964728 L 185.838964 237.278947 L 185.453861 237.593166 L 185.079501 237.919666 L 184.716834 238.259534 L 184.354167 238.599402 L 183.991500 238.939270 L 183.640550 239.290811 L 183.302073 239.654776 L 182.963596 240.018741 L 182.625118 240.382706 L 182.296621 240.755454 L 181.978632 241.137449 L 181.660643 241.519445 L 181.342654 241.901440 L 181.035481 242.291931 L 180.739670 242.691348 L 180.443860 243.090765 L 180.148050 243.490182 L 179.860976 243.895769 L 179.583443 244.308096 L 179.305910 244.720422 L 179.028378 245.132749 L 178.755944 245.548410 L 178.489455 245.967958 L 178.222965 246.387507 L 177.956476 246.807055 L 177.695104 247.229757 L 177.440158 247.656419 L 177.185211 248.083080 L 176.930264 248.509741 L 176.679389 248.938774 L 176.434010 249.371008 L 176.188630 249.803243 L 175.943251 250.235477 L 175.702985 250.670518 L 175.470045 251.109582 L 175.237105 251.548645 L 175.004165 251.987708 L 174.775448 252.428947 L 174.553210 252.873523 L 174.330972 253.318099 L 174.108735 253.762675 L 173.891092 254.209470 L 173.681060 254.659941 L 173.471029 255.110412 L 173.260997 255.560884 L 173.054908 256.013136 L 172.855713 256.468503 L 172.656519 256.923870 L 172.457325 257.379237 L 172.262555 257.836466 L 172.076231 258.297249 L 171.889908 258.758032 L 171.703584 259.218815 L 171.521919 259.681399 L 171.349911 260.147715 L 171.177903 260.614031 L 171.005896 261.080348 L 170.838404 261.548250 L 170.681028 262.019706 L 170.523652 262.491161 L 170.366277 262.962617 L 170.212748 263.435296 L 170.069026 263.911091 L 169.925304 264.386887 L 169.781583 264.862683 L 169.641153 265.339424 L 169.510392 265.818944 L 169.379632 266.298464 L 169.248872 266.777984 L 169.120837 267.258210 L 169.002254 267.740886 L 168.883672 268.223561 L 168.765089 268.706237 L 168.645949 269.188774 L 168.524472 269.670729 L 168.402995 270.152684 L 168.281518 270.634639 L 168.162604 271.117197 L 168.056606 271.602792 L 167.950609 272.088386 L 167.844612 272.573981 L 167.740661 273.059989 L 167.649689 273.548622 L 167.558717 274.037254 L 167.467745 274.525887 L 167.377247 275.014605 L 167.290798 275.504058 L 167.204348 275.993511 L 167.117899 276.482964 L 167.030835 276.972302 L 166.936203 277.460239 L 166.841571 277.948176 L 166.746939 278.436113 L 166.652192 278.924027 L 166.555178 279.411496 L 166.458164 279.898965 L 166.361150 280.386434 L 166.264289 280.873932 L 166.173995 281.362690 L 166.083700 281.851448 L 165.993405 282.340206 L 165.903110 282.828964" fill="none" stroke="black" stroke-width="2.000000" />
	<path d="M 257.742889 181.893311 L 256.150668 181.989478 L 254.558937 182.093429 L 253.004522 182.439984 L 251.457762 182.829765 L 249.908724 183.210389 L 248.337519 183.482335 L 246.749492 183.627971 L 245.154983 183.645101 L 243.560364 183.662231" fill="none" stroke="black" stroke-width="2.000000" />
	<path d="M 410.294923 99.919212 L 409.589979 101.759993 L 408.842547 103.583931 L 408.049338 105.388425 L 407.197296 107.165877 L 406.269447 108.904920 L 405.240619 110.586096 L 404.126449 112.211992 L 402.940501 113.786318 L 401.703067 115.320564 L 400.422303 116.818843 L 399.112024 118.291418 L 397.775644 119.740350 L 396.416998 121.168431 L 395.034689 122.573612 L 393.624472 123.950758 L 392.188329 125.300854 L 390.729243 126.626129 L 389.247034 127.925484 L 387.741463 129.197689 L 386.216244 130.446291 L 384.673009 131.672557 L 383.111678 132.875693 L 381.529853 134.051728 L 379.929095 135.201874 L 378.316632 136.335601 L 376.694604 137.455600 L 375.064201 138.563378 L 373.423297 139.655524 L 371.773777 140.734629 L 370.111036 141.793197 L 368.440060 142.838777 L 366.761300 143.871801 L 365.066457 144.878106 L 363.352746 145.851924 L 361.624017 146.798895 L 359.883422 147.723897 L 358.130824 148.625931 L 356.369172 149.510206 L 354.598593 150.376442 L 352.818211 151.222341 L 351.027712 152.046595 L 349.227843 152.850204 L 347.419857 153.635391 L 345.605137 154.404907 L 343.785860 155.163611 L 341.963397 155.914636 L 340.137930 156.658326 L 338.309790 157.395428 L 336.479344 158.126782 L 334.646209 158.851366 L 332.809918 159.567912 L 330.970645 160.276771 L 329.128351 160.977738 L 327.282448 161.669137 L 325.432524 162.349703 L 323.578548 163.019147 L 321.719808 163.675228 L 319.856180 164.317308 L 317.988543 164.947642 L 316.116748 165.565502 L 314.240881 166.170906 L 312.362067 166.767113 L 310.481051 167.356340 L 308.597865 167.938593 L 306.711955 168.511948 L 304.824162 169.079097 L 302.935207 169.642350 L 301.044642 170.200191 L 299.153231 170.755151 L 297.261119 171.307722 L 295.368981 171.860207 L 293.477532 172.415034 L 291.587231 172.973769 L 289.697366 173.533974 L 287.807824 174.095269 L 285.918381 174.656888 L 284.029535 175.220518 L 282.140890 175.784800 L 280.254318 176.355998 L 278.369488 176.932818 L 276.488692 177.522746 L 274.608426 178.114261 L 272.732831 178.720519 L 270.857521 179.327505 L 268.989230 179.955913 L 267.121179 180.584840 L 265.263090 181.242803 L 263.404332 181.898714 L 261.559011 182.591685 L 259.711589 183.279023 L 257.874323 183.993054 L 256.039966 184.714541 L 254.201285 185.424915 L 252.361509 186.132219 L 250.470808 186.652057 L 248.592375 187.056383 L 246.644332 187.116762 L 245.165675 186.474426 L 244.216506 185.403028 L 243.568665 183.658295" fill="none" stroke="black" stroke-width="2.000000" />
	<path d="M 198.854645 246.915924 L 198.900637 248.762193 L 198.931460 250.608776 L 198.927688 252.455597 L 198.907767 254.302327 L 198.794845 256.145476 L 198.635423 257.985374 L 198.435321 259.821285 L 198.186342 261.651166 L 197.880110 263.472286 L 197.539562 265.287418 L 197.142097 267.090752 L 196.662351 268.873730 L 196.063867 270.619766 L 195.308816 272.302977 L 194.384716 273.899113 L 193.332891 275.415772 L 192.176316 276.853914 L 190.930978 278.216663 L 189.607379 279.503153 L 188.201962 280.699496 L 186.709844 281.784631 L 185.130731 282.740203 L 183.485361 283.576783 L 181.729373 284.116640 L 179.951620 284.474731 L 178.126190 284.686920" fill="none" stroke="black" stroke-width="2.000000" />
	<path d="M 206.085201 255.485538 L 206.250667 255.955641 L 206.416134 256.425745 L 206.581600 256.895849 L 206.746746 257.366064 L 206.909209 257.837214 L 207.071672 258.308364 L 207.234135 258.779514 L 207.383536 259.254243 L 207.483898 259.742407 L 207.584260 260.230571 L 207.684621 260.718735 L 207.729593 261.211629 L 207.713447 261.709741 L 207.697301 262.207853 L 207.681156 262.705966 L 207.658206 263.203776 L 207.630160 263.701360 L 207.602114 264.198945 L 207.574068 264.696529 L 207.536403 265.193432 L 207.494057 265.690004 L 207.451710 266.186575 L 207.409363 266.683147 L 207.347820 267.177595 L 207.280591 267.671413 L 207.213362 268.165232 L 207.146133 268.659050 L 207.063857 269.150553 L 206.979449 269.641727 L 206.895041 270.132901 L 206.810416 270.624034 L 206.709647 271.112114 L 206.608877 271.600194 L 206.508108 272.088274 L 206.406152 272.576098 L 206.296938 273.062358 L 206.187723 273.548618 L 206.078508 274.034878 L 205.963786 274.519798 L 205.837354 275.001868 L 205.710922 275.483938 L 205.584490 275.966008 L 205.453449 276.446814 L 205.316130 276.925896 L 205.178811 277.404979 L 205.041492 277.884061 L 204.894644 278.360216 L 204.739297 278.833760 L 204.583950 279.307304 L 204.428603 279.780848 L 204.260495 280.249901 L 204.085018 280.716361 L 203.909541 281.182820 L 203.734064 281.649280 L 203.540885 282.108550 L 203.341457 282.565283 L 203.142029 283.022016 L 202.942601 283.478749 L 202.722226 283.925661 L 202.498669 284.371081 L 202.275112 284.816501 L 202.048742 285.260350 L 201.786732 285.684293 L 201.524722 286.108235 L 201.262712 286.532178 L 200.998595 286.954776 L 200.724619 287.371086 L 200.450642 287.787395 L 200.176666 288.203705 L 199.896797 288.615915 L 199.601735 289.017555 L 199.306674 289.419196 L 199.011612 289.820837 L 198.706259 290.214354 L 198.384112 290.594614 L 198.061965 290.974874 L 197.739818 291.355135 L 197.405463 291.724306 L 197.057811 292.081397 L 196.710159 292.438489 L 196.362507 292.795581 L 196.002255 293.139600 L 195.632596 293.473859 L 195.262937 293.808118 L 194.893278 294.142376 L 194.509168 294.459523 L 194.117749 294.768016 L 193.726330 295.076509 L 193.334911 295.385002 L 192.931456 295.677350 L 192.524038 295.964381 L 192.116619 296.251412 L 191.708398 296.537127 L 191.266722 296.767992 L 190.825045 296.998856 L 190.383369 297.229721 L 189.942567 297.462251 L 189.501974 297.695176 L 189.061381 297.928102 L 188.620788 298.161027" fill="none" stroke="black" stroke-width="2.000000" />
	<path d="M 254.749151 282.235121 L 255.236613 282.344570 L 255.724076 282.454019 L 256.211538 282.563468 L 256.698999 282.672924 L 257.186387 282.782703 L 257.673775 282.892481 L 258.161163 283.002259 L 258.648489 283.112311 L 259.134853 283.226543 L 259.621216 283.340774 L 260.107580 283.455005 L 260.593514 283.570930 L 261.075461 283.702558 L 261.557407 283.834187 L 262.039354 283.965816 L 262.520818 284.099119 L 262.998934 284.244045 L 263.477050 284.388971 L 263.955166 284.533898 L 264.432930 284.679952 L 264.908629 284.832625 L 265.384328 284.985298 L 265.860027 285.137971 L 266.335228 285.292146 L 266.807826 285.454163 L 267.280424 285.616181 L 267.753022 285.778199 L 268.225227 285.941339 L 268.695562 286.109812 L 269.165898 286.278285 L 269.636233 286.446758 L 270.106494 286.615437 L 270.576477 286.784891 L 271.046460 286.954345 L 271.516443 287.123798 L 271.986617 287.292718 L 272.457466 287.459752 L 272.928314 287.626785 L 273.399163 287.793819 L 273.869996 287.960896 L 274.340781 288.128110 L 274.811565 288.295323 L 275.282350 288.462537 L 275.753119 288.629793 L 276.223846 288.797172 L 276.694572 288.964550 L 277.165298 289.131928 L 277.635927 289.299578 L 278.106296 289.467957 L 278.576665 289.636335 L 279.047035 289.804714 L 279.517391 289.973129 L 279.987715 290.141635 L 280.458038 290.310141 L 280.928362 290.478647 L 281.398470 290.647750 L 281.868044 290.818334 L 282.337618 290.988917 L 282.807192 291.159501 L 283.276116 291.331839 L 283.743465 291.508427 L 284.210815 291.685015 L 284.678164 291.861604 L 285.145430 292.038410 L 285.612506 292.215720 L 286.079581 292.393030 L 286.546657 292.570340 L 287.013375 292.748585 L 287.479260 292.928999 L 287.945145 293.109414 L 288.411031 293.289829 L 288.876679 293.470850 L 289.341772 293.653299 L 289.806864 293.835748 L 290.271957 294.018197 L 290.736953 294.200890 L 291.201717 294.384175 L 291.666480 294.567460 L 292.131244 294.750745 L 292.596450 294.932895 L 293.062748 295.112241 L 293.529045 295.291587 L 293.995343 295.470933 L 294.462041 295.649226 L 294.929748 295.824864 L 295.397455 296.000501 L 295.865163 296.176139 L 296.333354 296.350469 L 296.802492 296.522250 L 297.271629 296.694031 L 297.740767 296.865812 L 298.210327 297.036423 L 298.680701 297.204791 L 299.151074 297.373158 L 299.621447 297.541526 L 300.091800 297.709951 L 300.562117 297.878474 L 301.032435 298.046997 L 301.502752 298.215520 L 301.973245 298.383551 L 302.444009 298.550824 L 302.914773 298.718097 L 303.385536 298.885370 L 303.857320 299.049701 L 304.330573 299.209794 L 304.803827 299.369887 L 305.277080 299.529979 L 305.750107 299.690741 L 306.222836 299.852376 L 306.695565 300.014011 L 307.168294 300.175646 L 307.642126 300.333967 L 308.117355 300.488099 L 308.592583 300.642230 L 309.067812 300.796362 L 309.543752 300.948260 L 310.020456 301.097765 L 310.497161 301.247270 L 310.973865 301.396775 L 311.451646 301.542755 L 311.930491 301.685255 L 312.409336 301.827754 L 312.888181 301.970254 L 313.368429 302.107862 L 313.850014 302.240808 L 314.331598 302.373753 L 314.813183 302.506699 L 315.296514 302.632980 L 315.781442 302.753158 L 316.266371 302.873337 L 316.751299 302.993516 L 317.237583 303.107971 L 317.724926 303.217948 L 318.212270 303.327925 L 318.699613 303.437902 L 319.188267 303.541779 L 319.677770 303.641709 L 320.167272 303.741640 L 320.656774 303.841570 L 321.147672 303.934234 L 321.639376 304.022698 L 322.131079 304.111163 L 322.622783 304.199627 L 323.116000 304.278961 L 323.609965 304.353775 L 324.103930 304.428589 L 324.597895 304.503402 L 325.093095 304.569282 L 325.588826 304.631331 L 326.084556 304.693380 L 326.580286 304.755429 L 327.077095 304.807835 L 327.574284 304.856847 L 328.071472 304.905858 L 328.568661 304.954869 L 329.066581 304.995610 L 329.564653 305.034634 L 330.062725 305.073658 L 330.560797 305.112682 L 331.059540 305.141630 L 331.558387 305.169019 L 332.057234 305.196408 L 332.556081 305.223796 L 333.055282 305.243615 L 333.554511 305.262805 L 334.053741 305.281996 L 334.552971 305.301187 L 335.052484 305.310263 L 335.552005 305.319104 L 336.051525 305.327944 L 336.551046 305.336631 L 337.050644 305.335837 L 337.550242 305.335043 L 338.049840 305.334249 L 338.549432 305.332960 L 339.048943 305.323588 L 339.548453 305.314215 L 340.047964 305.304843 L 340.547442 305.294374 L 341.046646 305.274507 L 341.545849 305.254641 L 342.045052 305.234775 L 342.544199 305.213720 L 343.043039 305.186205 L 343.541879 305.158691 L 344.040720 305.131176 L 344.539442 305.101835 L 345.037680 305.064985 L 345.535917 305.028136 L 346.034155 304.991287 L 346.532207 304.952221 L 347.029662 304.905990 L 347.527117 304.859760 L 348.024572 304.813530 L 348.521769 304.764772 L 349.018290 304.709407 L 349.514811 304.654041 L 350.011332 304.598676 L 350.507704 304.542016 L 351.003760 304.482635 L 351.499817 304.423253 L 351.995874 304.363872 L 352.491739 304.302939 L 352.987264 304.239272 L 353.482789 304.175604 L 353.978313 304.111936 L 354.473559 304.046182 L 354.968384 303.977284 L 355.463209 303.908385 L 355.958034 303.839486 L 356.452647 303.769104 L 356.946988 303.696817 L 357.441329 303.624531 L 357.935670 303.552244 L 358.429756 303.478256 L 358.923556 303.402359 L 359.417356 303.326462 L 359.911156 303.250564 L 360.404818 303.173786 L 360.898346 303.096138 L 361.391873 303.018490 L 361.885401 302.940842 L 362.378610 302.861219 L 362.871541 302.779872 L 363.364472 302.698524 L 363.857403 302.617176 L 364.350161 302.534788 L 364.842787 302.451610 L 365.335412 302.368433 L 365.828038 302.285256 L 366.320162 302.199192 L 366.811954 302.111219 L 367.303746 302.023247 L 367.795538 301.935275 L 368.286739 301.844095 L 368.777596 301.751045 L 369.268453 301.657994 L 369.759309 301.564944 L 370.249115 301.466584 L 370.738399 301.365593 L 371.227684 301.264601 L 371.716968 301.163610 L 372.205226 301.057815 L 372.693036 300.949926 L 373.180846 300.842037 L 373.668656 300.734148 L 374.155300 300.621162 L 374.641498 300.506229 L 375.127697 300.391297 L 375.613896 300.276365 L 376.098806 300.156154 L 376.583289 300.034193 L 377.067773 299.912231 L 377.552256 299.790270 L 378.035929 299.665146 L 378.519392 299.539199 L 379.002854 299.413252 L 379.486316 299.287305 L 379.969219 299.159234 L 380.452002 299.030707 L 380.934785 298.902179 L 381.417568 298.773652 L 381.900075 298.644094 L 382.382534 298.514357 L 382.864994 298.384619 L 383.347453 298.254882 L 383.829771 298.124621 L 384.312070 297.994290 L 384.794368 297.863958 L 385.276667 297.733626 L 385.759065 297.603660 L 386.241472 297.473731 L 386.723880 297.343802 L 387.206287 297.213872 L 387.688926 297.084806 L 388.171581 296.955797 L 388.654235 296.826787 L 389.136889 296.697778 L 389.620249 296.571436 L 390.103629 296.445175 L 390.587009 296.318914 L 391.070390 296.192652 L 391.554440 296.068985 L 392.038492 295.945319 L 392.522543 295.821654 L 393.006608 295.698047 L 393.491369 295.577193 L 393.976130 295.456338 L 394.460890 295.335484 L 394.945684 295.214765 L 395.431232 295.097114 L 395.916780 294.979463 L 396.402328 294.861813 L 396.887904 294.744279 L 397.373906 294.628518 L 397.859908 294.512757 L 398.345910 294.396996 L 398.831959 294.281431 L 399.318524 294.168060 L 399.805089 294.054689 L 400.291654 293.941318 L 400.778277 293.828198 L 401.265422 293.717348 L 401.752568 293.606497 L 402.239713 293.495647 L 402.726977 293.385326 L 403.215115 293.278932 L 403.703253 293.172538 L 404.191391 293.066143 L 404.679642 292.960276 L 405.168589 292.857661 L 405.657535 292.755047 L 406.146482 292.652432 L 406.635581 292.550561 L 407.125524 292.452814 L 407.615467 292.355067 L 408.105410 292.257320 L 408.595464 292.160138 L 409.086079 292.065826 L 409.576695 291.971514 L 410.067311 291.877202 L 410.558082 291.783721 L 411.049575 291.694092 L 411.541068 291.604462 L 412.032560 291.514832 L 412.524165 291.425827 L 413.016220 291.339339 L 413.508276 291.252852 L 414.000331 291.166365 L 414.492548 291.080819 L 414.985355 290.998722 L 415.478162 290.916625 L 415.970969 290.834527 L 416.463913 290.753275 L 416.957336 290.674967 L 417.450759 290.596659 L 417.944182 290.518351 L 418.437736 290.440886 L 418.931702 290.366077 L 419.425668 290.291267 L 419.919633 290.216457 L 420.413751 290.142682 L 420.908325 290.072002 L 421.402898 290.001322 L 421.897472 289.930641 L 422.392169 289.860854 L 422.887218 289.793583 L 423.382267 289.726313 L 423.877316 289.659043 L 424.372518 289.592936 L 424.868133 289.529980 L 425.363749 289.467023 L 425.859365 289.404067 L 426.355098 289.342061 L 426.851139 289.282546 L 427.347180 289.223030 L 427.843221 289.163515 L 428.339406 289.105252 L 428.835958 289.050159 L 429.332509 288.995066 L 429.829061 288.939974 L 430.325726 288.885946 L 430.822674 288.834546 L 431.319621 288.783145 L 431.816568 288.731744 L 432.313639 288.681591 L 432.811006 288.634425 L 433.308373 288.587259 L 433.805740 288.540094 L 434.303226 288.494238 L 434.800986 288.451426 L 435.298747 288.408614 L 435.796508 288.365802 L 436.294396 288.324573 L 436.792573 288.286907 L 437.290750 288.249241 L 437.788926 288.211575 L 438.287181 288.174996 L 438.785608 288.140803 L 439.284035 288.106610 L 439.782462 288.072417 L 440.280969 288.039463 L 440.779648 288.009168 L 441.278327 287.978872 L 441.777006 287.948577 L 442.275790 287.920195 L 442.774788 287.895701 L 443.273785 287.871207 L 443.772783 287.846712 L 444.271830 287.823292 L 444.770972 287.801944 L 445.270114 287.780596 L 445.769256 287.759248 L 446.268452 287.739290 L 446.767746 287.721852 L 447.267040 287.704414 L 447.766334 287.686976 L 448.265654 287.670333 L 448.765020 287.655095 L 449.264386 287.639856 L 449.763752 287.624618 L 450.263152 287.610608 L 450.762608 287.598672 L 451.262063 287.586737 L 451.761519 287.574801 L 452.260999 287.563998 L 452.760516 287.555010 L 453.260034 287.546022 L 453.759551 287.537034 L 454.259082 287.528883 L 454.758634 287.522042 L 455.258185 287.515200 L 455.757737 287.508359 L 456.257301 287.502603 L 456.756882 287.498488 L 457.256463 287.494374 L 457.756045 287.490260 L 458.255632 287.487061 L 458.755227 287.485188 L 459.254822 287.483315 L 459.754417 287.481442 L 460.254013 287.480799 L 460.753610 287.481901 L 461.253207 287.483003 L 461.752804 287.484105 L 462.252396 287.486334 L 462.751980 287.490113 L 463.251564 287.493891 L 463.751148 287.497669 L 464.250716 287.502914 L 464.750263 287.510123 L 465.249809 287.517331 L 465.749356 287.524540 L 466.248873 287.533349 L 466.748357 287.544074 L 467.247840 287.554800 L 467.747323 287.565525 L 468.246750 287.578404 L 468.746111 287.593809 L 469.245472 287.609214 L 469.744833 287.624620 L 470.244135 287.641719 L 470.743372 287.660723 L 471.242609 287.679726 L 471.741846 287.698730 L 472.241021 287.719227 L 472.740129 287.741353 L 473.239237 287.763479 L 473.738346 287.785606 L 474.237386 287.809169 L 474.736355 287.834237 L 475.235324 287.859305 L 475.734293 287.884373 L 476.233169 287.911178 L 476.731953 287.939689 L 477.230738 287.968200 L 477.729522 287.996711 L 478.228222 288.026624 L 478.726841 288.057888 L 479.225461 288.089151 L 479.724080 288.120415 L 480.222578 288.153512 L 480.720963 288.188311 L 481.219348 288.223109 L 481.717733 288.257908 L 482.215978 288.294610 L 482.714102 288.332961 L 483.212227 288.371313 L 483.710351 288.409664 L 484.208318 288.449969 L 484.706152 288.491909 L 485.203987 288.533849 L 485.701822 288.575789 L 486.199526 288.619242 L 486.697128 288.663862 L 487.194730 288.708481 L 487.692332 288.753100 L 488.189743 288.799765 L 488.687009 288.847982 L 489.184275 288.896199 L 489.681541 288.944416 L 490.178645 288.994261 L 490.675629 289.045303 L 491.172613 289.096345 L 491.669598 289.147388 L 492.166464 289.199554 L 492.663248 289.252513 L 493.160031 289.305471 L 493.656815 289.358429 L 494.153545 289.411883 L 494.650239 289.465677 L 495.146933 289.519470 L 495.643627 289.573264 L 496.140182 289.628321 L 496.636645 289.684198 L 497.133109 289.740074 L 497.629573 289.795951 L 498.126036 289.851833 L 498.622499 289.907720 L 499.118962 289.963606 L 499.615425 290.019492 L 500.111702 290.076991 L 500.607875 290.135393 L 501.104048 290.193795 L 501.600221 290.252198 L 502.096150 290.312620 L 502.591951 290.374104 L 503.087752 290.435588 L 503.583552 290.497072 L 504.079238 290.559474 L 504.574866 290.622331 L 505.070495 290.685187 L 505.566123 290.748044 L 506.061375 290.813772 L 506.556459 290.880789 L 507.051542 290.947805 L 507.546625 291.014822 L 508.041586 291.082735 L 508.536496 291.151018 L 509.031406 291.219301 L 509.526316 291.287583 L 510.020477 291.361017 L 510.514340 291.436502 L 511.008203 291.511986 L 511.502066 291.587471 L 511.995947 291.662843 L 512.489833 291.738172 L 512.983720 291.813502 L 513.477607 291.888831 L 513.969843 291.974069 L 514.461485 292.062877 L 514.953127 292.151685 L 515.444769 292.240493 L 515.935071 292.336338 L 516.424957 292.434368 L 516.914844 292.532399 L 517.404730 292.630430 L 517.893032 292.735987 L 518.380861 292.843790 L 518.868689 292.951594 L 519.356518 293.059397 L 519.842117 293.176723 L 520.327075 293.296780 L 520.812034 293.416836 L 521.296993 293.536893 L 521.779868 293.665010 L 522.262246 293.795046 L 522.744625 293.925082 L 523.227004 294.055118 L 523.707211 294.192905 L 524.186919 294.332471 L 524.666627 294.472037 L 525.146335 294.611602 L 525.624617 294.755963 L 526.102593 294.901350 L 526.580569 295.046737 L 527.058545 295.192124 L 527.533989 295.345542 L 528.008917 295.500599 L 528.483844 295.655656 L 528.958771 295.810713 L 529.431749 295.971596 L 529.904344 296.133620 L 530.376940 296.295645 L 530.849536 296.457669 L 531.320204 296.625190 L 531.790513 296.793739 L 532.260821 296.962289 L 532.731129 297.130838 L 533.199534 297.304591 L 533.667606 297.479253 L 534.135678 297.653916 L 534.603750 297.828579 L 535.070080 298.007833 L 535.536157 298.187751 L 536.002234 298.367668 L 536.468312 298.547586 L 536.931722 298.734249 L 537.394808 298.921733 L 537.857894 299.109217 L 538.320980 299.296700 L 538.781961 299.489291 L 539.242703 299.682462 L 539.703446 299.875633 L 540.164188 300.068804 L 540.622335 300.268041 L 541.080202 300.467933 L 541.538068 300.667825 L 541.995935 300.867716 L 542.450835 301.074258 L 542.905448 301.281443 L 543.360061 301.488628 L 543.814674 301.695814 L 544.267585 301.906688 L 544.720344 302.117896 L 545.173102 302.329103 L 545.625860 302.540311 L 546.074612 302.759886 L 546.523039 302.980140 L 546.971466 303.200394 L 547.419893 303.420648 L 547.866025 303.645510 L 548.312003 303.870681 L 548.757981 304.095853 L 549.203959 304.321025 L 549.645748 304.554303 L 550.087401 304.787843 L 550.529053 305.021384 L 550.970706 305.254925 L 551.410313 305.492294 L 551.849871 305.729755 L 552.289428 305.967216 L 552.728986 306.204678 L 553.168220 306.442736 L 553.607447 306.680807 L 554.046675 306.918878 L 554.485902 307.156949 L 554.920656 307.403093 L 555.355334 307.649371 L 555.790013 307.895649 L 556.224692 308.141927 L 556.658197 308.390266 L 557.091686 308.638632 L 557.525175 308.886998 L 557.958664 309.135364 L 558.390550 309.386508 L 558.822422 309.637676 L 559.254294 309.888844 L 559.686166 310.140011 L 560.117933 310.391359 L 560.549700 310.642707 L 561.413234 311.145403" fill="none" stroke="black" stroke-width="2.000000" />
	<path d="M 452.504311 370.223695 L 452.962696 370.420799 L 453.421082 370.617903 L 453.879467 370.815006 L 454.337882 371.012042 L 454.796578 371.208422 L 455.255273 371.404803 L 455.713969 371.601183 L 456.173324 371.795985 L 456.635514 371.983993 L 457.097705 372.172001 L 457.559895 372.360009 L 458.019709 372.553573 L 458.474862 372.758029 L 458.930016 372.962485 L 459.385170 373.166941 L 459.832742 373.386801 L 460.272389 373.622762 L 460.712036 373.858723 L 461.151683 374.094684 L 461.590057 374.332990 L 462.027558 374.572906 L 462.465060 374.812822 L 462.902561 375.052738 L 463.335685 375.300398 L 463.766853 375.551518 L 464.198021 375.802637 L 464.629189 376.053757 L 465.059544 376.306267 L 465.489675 376.559159 L 465.919805 376.812052 L 466.349936 377.064945 L 466.779012 377.319621 L 467.207943 377.574544 L 467.636874 377.829466 L 468.065805 378.084388 L 468.493322 378.341674 L 468.920801 378.599023 L 469.348280 378.856373 L 469.775707 379.113809 L 470.202467 379.372347 L 470.629228 379.630886 L 471.055989 379.889425 L 471.482659 380.148113 L 471.908893 380.407520 L 472.335127 380.666927 L 472.761360 380.926333 L 473.187273 381.186266 L 473.612303 381.447639 L 474.037334 381.709012 L 474.462365 381.970386 L 474.885375 382.234968 L 475.304834 382.505192 L 475.724293 382.775416 L 476.143752 383.045640 L 476.565067 383.312939 L 476.988352 383.577130 L 477.411637 383.841320 L 477.834923 384.105511 L 478.258441 384.369327 L 478.682129 384.632872 L 479.105816 384.896416 L 479.529504 385.159961 L 479.953077 385.423689 L 480.376605 385.687491 L 480.800133 385.951293 L 481.223660 386.215095 L 481.647871 386.477797 L 482.072225 386.740267 L 482.496579 387.002738 L 482.920933 387.265208 L 483.345680 387.527041 L 483.770461 387.788821 L 484.195241 388.050601 L 484.620046 388.312341 L 485.045673 388.572742 L 485.471301 388.833142 L 485.896928 389.093542 L 486.322617 389.353841 L 486.748748 389.613418 L 487.174878 389.872994 L 487.601008 390.132571 L 488.027185 390.392071 L 488.453527 390.651300 L 488.879869 390.910529 L 489.306210 391.169759 L 489.732545 391.428999 L 490.158867 391.688261 L 490.585189 391.947522 L 491.011511 392.206784 L 491.437762 392.466162 L 491.863924 392.725687 L 492.290086 392.985213 L 492.716247 393.244738 L 493.142197 393.504610 L 493.567974 393.764767 L 493.993750 394.024923 L 494.419527 394.285080 L 494.844704 394.546213 L 495.269573 394.807850 L 495.694442 395.069486 L 496.119311 395.331122 L 496.542678 395.595175 L 496.965607 395.859936 L 497.388536 396.124697 L 497.811465 396.389458 L 498.230849 396.659788 L 498.649742 396.930888 L 499.068635 397.201988 L 499.487529 397.473089 L 499.899820 397.754122 L 500.311973 398.035365 L 500.724125 398.316608 L 501.135563 398.598863 L 501.538471 398.893196 L 501.941378 399.187530 L 502.344286 399.481863 L 502.744245 399.780053 L 503.133796 400.091850 L 503.523346 400.403647 L 503.912896 400.715445 L 504.299094 401.031293 L 504.678214 401.355692 L 505.057334 401.680092 L 505.436454 402.004491 L 505.811698 402.333313 L 506.182968 402.666668 L 506.554238 403.000024 L 506.925508 403.333379 L 507.294921 403.668785 L 507.663373 404.005252 L 508.031825 404.341719 L 508.400277 404.678186 L 508.768759 405.014621 L 509.137251 405.351044 L 509.505743 405.687467 L 509.874236 406.023890 L 510.243755 406.359184 L 510.613481 406.694250 L 510.983208 407.029317 L 511.352934 407.364383 L 511.722137 407.700026 L 512.091292 408.035722 L 512.460447 408.371418 L 512.829601 408.707114" fill="none" stroke="black" stroke-width="2.000000" />
	<path d="M 471.597602 427.979782 L 471.245534 427.624769 L 470.893467 427.269756 L 470.541399 426.914743 L 470.188369 426.560716 L 469.825250 426.217015 L 469.462131 425.873315 L 469.099012 425.529614 L 468.732968 425.189156 L 468.353693 424.863371 L 467.974418 424.537587 L 467.595142 424.211802 L 467.210497 423.892673 L 466.811888 423.590850 L 466.413280 423.289028 L 466.014671 422.987205 L 465.610897 422.692494 L 465.200597 422.406768 L 464.790297 422.121041 L 464.379997 421.835315 L 463.969371 421.550059 L 463.558475 421.265189 L 463.147580 420.980320 L 462.736684 420.695451 L 462.325404 420.411138 L 461.913921 420.127118 L 461.502438 419.843098 L 461.090955 419.559078 L 460.678550 419.276400 L 460.265862 418.994133 L 459.853175 418.711866 L 459.440487 418.429599 L 459.026238 418.149630 L 458.611795 417.869949 L 458.197351 417.590267 L 457.782881 417.310624 L 457.366174 417.034326 L 456.949467 416.758027 L 456.532760 416.481729 L 456.115680 416.205998 L 455.696422 415.933585 L 455.277164 415.661173 L 454.857906 415.388761 L 454.438143 415.117132 L 454.017127 414.847446 L 453.596110 414.577760 L 453.175093 414.308074 L 452.753314 414.039587 L 452.330492 413.772741 L 451.907670 413.505895 L 451.484847 413.239048 L 451.061515 412.973013 L 450.637802 412.707584 L 450.214089 412.442154 L 449.790376 412.176724 L 449.366290 411.911891 L 448.942062 411.647286 L 448.517834 411.382680 L 448.093605 411.118075 L 447.665890 410.859156 L 447.237703 410.601005 L 446.809517 410.342854 L 446.381149 410.085009 L 445.949595 409.832527 L 445.518042 409.580045 L 445.086488 409.327563 L 444.653826 409.077009 L 444.218521 408.831051 L 443.783216 408.585093 L 443.347912 408.339135 L 442.912591 408.093206 L 442.477253 407.847307 L 442.041915 407.601407 L 441.606577 407.355508 L 441.170968 407.110089 L 440.735226 406.864905 L 440.299485 406.619722 L 439.863744 406.374538 L 439.423784 406.137033 L 438.983152 405.900751 L 438.542520 405.664468 L 438.101471 405.428971 L 437.659495 405.195213 L 437.217519 404.961455 L 436.774557 404.729582 L 436.330459 404.499880 L 435.886362 404.270178 L 435.442275 404.040456 L 434.998364 403.810393 L 434.554453 403.580331 L 434.108847 403.353599 L 433.661582 403.130128 L 433.214317 402.906656 L 432.767052 402.683185 L 432.322527 402.454341 L 431.879059 402.223425 L 431.435592 401.992510 L 430.992124 401.761594 L 430.548983 401.530051 L 430.105843 401.298509 L 429.662702 401.066967 L 429.217512 400.839562 L 428.764780 400.627384 L 428.312048 400.415206 L 427.857842 400.206285 L 427.399714 400.006023 L 426.941587 399.805761 L 426.483459 399.605499 L 426.021641 399.413977 L 425.558647 399.225238 L 425.095653 399.036499 L 424.632660 398.847760 L 424.169662 398.659030 L 423.706664 398.470301 L 423.243667 398.281572 L 422.780238 398.093935 L 422.313106 397.915685 L 421.845973 397.737435 L 421.378841 397.559186 L 420.910824 397.383323 L 420.440355 397.214076 L 419.969886 397.044830 L 419.499417 396.875583 L 419.027669 396.709995 L 418.554182 396.549384 L 418.080695 396.388774 L 417.607208 396.228163 L 417.132215 396.072118 L 416.656093 395.919497 L 416.179971 395.766876 L 415.703849 395.614254 L 415.226002 395.467168 L 414.747462 395.322306 L 414.268922 395.177444 L 413.790382 395.032583 L 413.309953 394.894140 L 412.829206 394.756779 L 412.348459 394.619419 L 411.867712 394.482058 L 411.384980 394.351851 L 410.902205 394.221797 L 410.419430 394.091743 L 409.936488 393.962325 L 409.451899 393.839203 L 408.967310 393.716081 L 408.482721 393.592958 L 407.997792 393.471217 L 407.511484 393.355072 L 407.025175 393.238928 L 406.538866 393.122783 L 406.052038 393.008894 L 405.563987 392.900303 L 405.075936 392.791712 L 404.587885 392.683121 L 404.099083 392.578057 L 403.609127 392.478416 L 403.119171 392.378774 L 402.629214 392.279133 L 402.138401 392.183919 L 401.646674 392.093416 L 401.154948 392.002913 L 400.663222 391.912410 L 400.170313 391.828805 L 399.676511 391.750413 L 399.182709 391.672021 L 398.688907 391.593629 L 398.194074 391.522224 L 397.698684 391.454587 L 397.203295 391.386951 L 396.707905 391.319314 L 396.211513 391.259680 L 395.714742 391.203075 L 395.217971 391.146470 L 394.721200 391.089865 L 394.223555 391.041731 L 393.725690 390.995731 L 393.227825 390.949731 L 392.729960 390.903732 L 392.231454 390.865414 L 391.732852 390.828248 L 391.234249 390.791081 L 390.735647 390.753915 L 390.236610 390.723175 L 389.737544 390.692860 L 388.739413 390.632231" fill="none" stroke="black" stroke-width="2.000000" />
	<path d="M 401.210141 459.975123 L 401.573280 460.314614 L 401.936419 460.654105 L 402.299557 460.993597 L 402.668186 461.326866 L 403.050271 461.644884 L 403.432357 461.962901 L 403.814442 462.280918 L 404.202159 462.591864 L 404.597635 462.893067 L 404.993111 463.194270 L 405.388587 463.495472 L 405.786768 463.793061 L 406.187185 464.087663 L 406.587603 464.382265 L 406.988020 464.676867 L 407.392827 464.965360 L 407.799769 465.250881 L 408.206712 465.536401 L 408.613655 465.821922 L 409.023015 466.103958 L 409.432937 466.385184 L 409.842860 466.666409 L 410.252782 466.947635 L 410.657291 467.236586 L 411.061536 467.525913 L 411.465781 467.815240 L 411.869371 468.105459 L 412.266602 468.404345 L 412.663832 468.703230 L 413.061062 469.002115 L 413.458634 469.300544 L 413.857290 469.597525 L 414.255946 469.894507 L 414.654601 470.191488 L 415.057046 470.483202 L 415.465396 470.766707 L 415.873745 471.050212 L 416.282095 471.333716 L 416.695563 471.609570 L 417.113444 471.878827 L 417.531325 472.148085 L 417.949206 472.417343 L 418.373974 472.675438 L 418.802063 472.928152 L 419.230152 473.180866 L 419.658241 473.433580 L 420.093791 473.673090 L 420.531135 473.909426 L 420.968479 474.145761 L 421.405823 474.382097 L 421.847848 474.609544 L 422.290141 474.836484 L 422.732433 475.063424 L 423.174701 475.290411 L 423.616732 475.517859 L 424.058763 475.745308 L 424.500795 475.972756 L 424.941633 476.202468 L 425.379152 476.438480 L 425.816670 476.674492 L 426.254189 476.910504 L 426.694606 477.140942 L 427.139100 477.363539 L 427.583594 477.586135 L 428.028089 477.808732 L 428.475455 478.025421 L 428.925028 478.237574 L 429.374600 478.449727 L 429.824173 478.661880 L 430.275894 478.869393 L 430.728499 479.074996 L 431.181104 479.280600 L 431.633710 479.486203 L 432.088184 479.687633 L 432.542973 479.888359 L 432.997762 480.089086 L 433.452551 480.289812 L 433.909976 480.484456 L 434.367433 480.679027 L 434.824889 480.873598 L 435.282716 481.067279 L 435.743271 481.254398 L 436.203825 481.441517 L 436.664380 481.628636 L 437.125458 481.814447 L 437.588144 481.996233 L 438.050830 482.178019 L 438.513515 482.359805 L 438.976793 482.540067 L 439.440851 482.718322 L 439.904908 482.896577 L 440.368966 483.074832 L 440.833679 483.251363 L 441.298919 483.426508 L 441.764159 483.601654 L 442.229400 483.776799 L 442.695289 483.950206 L 443.161485 484.122791 L 443.627681 484.295376 L 444.093877 484.467961 L 444.560933 484.638200 L 445.028199 484.807867 L 445.495464 484.977535 L 445.962731 485.147199 L 446.430034 485.316764 L 446.897337 485.486328 L 447.364640 485.655893 L 447.832237 485.824635 L 448.301397 485.988991 L 448.770557 486.153347 L 449.239718 486.317703 L 449.709172 486.481212 L 450.179368 486.642582 L 450.649563 486.803951 L 451.119759 486.965321 L 451.590603 487.124773 L 452.062382 487.281453 L 452.534161 487.438133 L 453.005940 487.594813 L 453.478746 487.748336 L 453.952453 487.899086 L 454.426161 488.049837 L 454.899868 488.200587 L 455.373576 488.351336 L 455.847283 488.502086 L 456.320991 488.652835 L 456.794699 488.803584 L 457.269339 488.951362 L 457.744257 489.098253 L 458.219175 489.245143 L 458.694094 489.392034 L 459.168473 489.540654 L 459.642784 489.689494 L 460.591406 489.987176" fill="none" stroke="black" stroke-width="2.000000" />
	<path d="M 400.366997 489.890821 L 399.906210 489.699603 L 399.445423 489.508385 L 398.984637 489.317166 L 398.523580 489.126609 L 398.060851 488.940140 L 397.598122 488.753670 L 397.135394 488.567201 L 396.673696 488.378243 L 396.214654 488.182872 L 395.755613 487.987501 L 395.296572 487.792131 L 394.839651 487.591945 L 394.385662 487.385106 L 393.931673 487.178267 L 393.477683 486.971427 L 393.025988 486.759680 L 392.576084 486.544099 L 392.126180 486.328519 L 391.676275 486.112938 L 391.229828 485.890345 L 390.784836 485.664799 L 390.339844 485.439253 L 389.894853 485.213707 L 389.454176 484.979875 L 389.014293 484.744521 L 388.574410 484.509167 L 388.134558 484.273755 L 387.695672 484.036546 L 387.256787 483.799338 L 386.817901 483.562129 L 386.380911 483.321579 L 385.952235 483.066382 L 385.523559 482.811185 L 385.094883 482.555988 L 384.669112 482.296092 L 384.249243 482.026651 L 383.829374 481.757210 L 383.409504 481.487769 L 382.991721 481.215134 L 382.576272 480.938926 L 382.160824 480.662717 L 381.745375 480.386508 L 381.335680 480.101943 L 380.929403 479.812413 L 380.523125 479.522884 L 380.116848 479.233355 L 379.716068 478.936305 L 379.316965 478.636965 L 378.917861 478.337624 L 378.518757 478.038283 L 378.126497 477.730050 L 377.734983 477.420849 L 377.343469 477.111648 L 376.952359 476.801949 L 376.569605 476.481968 L 376.186851 476.161987 L 375.804096 475.842006 L 375.423003 475.520096 L 375.049623 475.189223 L 374.676244 474.858351 L 374.302865 474.527478 L 373.932349 474.193458 L 373.567775 473.852909 L 373.203200 473.512359 L 372.838625 473.171809 L 372.476355 472.828829 L 372.116892 472.482889 L 371.757428 472.136949 L 371.397964 471.791008 L 371.039027 471.444523 L 370.680446 471.097667 L 370.321866 470.750811 L 369.963286 470.403956 L 369.604421 470.057394 L 369.245447 469.710946 L 368.886473 469.364498 L 368.527500 469.018049 L 368.176275 468.663756 L 367.825433 468.309075 L 367.474591 467.954393 L 367.122064 467.601496 L 366.747923 467.271486 L 366.373781 466.941476 L 365.999639 466.611466 L 365.624396 466.282726 L 365.244782 465.959025 L 364.865168 465.635325 L 364.485554 465.311625 L 364.101885 464.992869 L 363.710064 464.684058 L 363.318242 464.375247 L 362.926420 464.066436 L 362.532113 463.760836 L 362.134924 463.458959 L 361.737735 463.157082 L 361.340546 462.855205 L 360.937257 462.561651 L 360.529799 462.273785 L 360.122341 461.985918 L 359.714884 461.698052 L 359.304432 461.414490 L 358.892891 461.132491 L 358.481351 460.850492 L 358.069811 460.568493 L 357.652319 460.295415 L 357.233913 460.023707 L 356.815507 459.751999 L 356.397102 459.480290" fill="none" stroke="black" stroke-width="2.000000" />
	<path d="M 288.540432 459.310032 L 288.297549 458.877341 L 288.054667 458.444649 L 287.811785 458.011958 L 287.563577 457.582578 L 287.282959 457.173351 L 287.002341 456.764123 L 286.721724 456.354895 L 286.426374 455.957299 L 286.093405 455.589406 L 285.760437 455.221513 L 285.427468 454.853620 L 285.076717 454.503935 L 284.701036 454.179779 L 284.325354 453.855624 L 283.949673 453.531468 L 283.559041 453.226283 L 283.156048 452.936783 L 282.753055 452.647283 L 282.350062 452.357782 L 281.938205 452.081250 L 281.522158 451.810845 L 281.106112 451.540440 L 280.690066 451.270034 L 280.266881 451.011027 L 279.841988 450.754746 L 279.417095 450.498465 L 278.992203 450.242185 L 278.560974 449.996738 L 278.129300 449.752051 L 277.697627 449.507364 L 277.265485 449.263535 L 276.826248 449.032702 L 276.387010 448.801869 L 275.947772 448.571036 L 275.507141 448.342965 L 275.060550 448.126701 L 274.613960 447.910436 L 274.167369 447.694172 L 273.718208 447.483491 L 273.263519 447.284816 L 272.808830 447.086142 L 272.354141 446.887468 L 271.891187 446.710834 L 271.417973 446.561563 L 270.944759 446.412291 L 270.471544 446.263020 L 269.999418 446.110373 L 269.528096 445.955231 L 269.056774 445.800088 L 268.585452 445.644946 L 268.115164 445.486711 L 267.645311 445.327175 L 267.175458 445.167639 L 266.705605 445.008103 L 266.236257 444.847091 L 265.767009 444.685784 L 265.297761 444.524477 L 264.828513 444.363171 L 264.358254 444.204836 L 263.887956 444.046618 L 263.417657 443.888400 L 262.947324 443.730285 L 262.476646 443.573201 L 262.005967 443.416117 L 261.535289 443.259033 L 261.064536 443.102174 L 260.593518 442.946111 L 260.122499 442.790049 L 259.651481 442.633986 L 259.180352 442.478260 L 258.709016 442.323160 L 258.237680 442.168060 L 257.766344 442.012960 L 257.294449 441.859583 L 256.821944 441.708083 L 256.349438 441.556582 L 255.876933 441.405082 L 255.404074 441.254694 L 254.930989 441.105014 L 254.457904 440.955333 L 253.984819 440.805653 L 253.509637 440.662833 L 253.033721 440.522412 L 252.557806 440.381992 L 252.081890 440.241571 L 251.604170 440.107441 L 251.126182 439.974248 L 250.170204 439.707862" fill="none" stroke="black" stroke-width="2.000000" />
	<path d="M 228.204162 525.001200 L 228.223360 524.502169 L 228.242558 524.003137 L 228.261755 523.504105 L 228.280928 523.005073 L 228.286764 522.505706 L 228.292599 522.006340 L 228.298434 521.506973 L 228.304299 521.007607 L 228.314702 520.508314 L 228.325106 520.009022 L 228.335509 519.509729 L 228.345835 519.010436 L 228.347758 518.511039 L 228.349681 518.011642 L 228.351604 517.512245 L 228.353396 517.012848 L 228.345909 516.513503 L 228.338422 516.014159 L 228.330936 515.514814 L 228.323269 515.015474 L 228.306540 514.516353 L 228.289812 514.017233 L 228.273083 513.518112 L 228.256054 513.019005 L 228.228301 512.520376 L 228.200548 512.021747 L 228.172796 511.523118 L 228.144521 511.024525 L 228.103087 510.526846 L 228.061653 510.029167 L 228.020219 509.531488 L 227.977884 509.033899 L 227.919833 508.537884 L 227.861783 508.041868 L 227.803732 507.545853 L 227.744556 507.049988 L 227.670134 506.556164 L 227.595713 506.062339 L 227.521291 505.568515 L 227.446017 505.074827 L 227.362732 504.582419 L 227.279447 504.090012 L 227.196162 503.597605 L 227.094401 503.108844 L 226.984376 502.621714 L 226.874351 502.134584 L 226.744647 501.653173 L 226.576448 501.182949 L 226.408249 500.712726 L 226.240051 500.242502 L 226.069056 499.773302 L 225.893844 499.305646 L 225.718633 498.837990 L 225.543421 498.370334 L 225.362942 497.904728 L 225.175918 497.441670 L 224.988895 496.978611 L 224.801871 496.515553 L 224.610457 496.054317 L 224.414511 495.594962 L 224.218565 495.135608 L 224.022619 494.676254 L 223.821254 494.219281 L 223.615308 493.764323 L 223.409362 493.309364 L 223.203416 492.854406 L 222.994734 492.400702 L 222.784207 491.947845 L 222.573679 491.494988 L 222.363152 491.042131 L 222.152419 490.589370 L 221.941572 490.136662 L 221.730725 489.683954 L 221.519878 489.231245 L 221.310676 488.777776 L 221.102179 488.323981 L 220.893683 487.870185 L 220.685187 487.416389 L 220.478500 486.961768 L 220.272377 486.506890 L 220.066255 486.052011 L 219.860132 485.597132 L 219.656597 485.141092 L 219.453614 484.684803 L 219.250631 484.228515 L 219.047649 483.772226 L 218.845488 483.315573 L 218.643407 482.858885 L 218.441325 482.402196 L 218.239244 481.945508 L 218.041447 481.486948 L 217.843700 481.028366 L 217.645953 480.569784 L 217.448295 480.111164 L 217.253720 479.651228 L 217.059144 479.191291 L 216.864569 478.731355 L 216.670122 478.271364 L 216.477588 477.810569 L 216.285054 477.349775 L 216.092520 476.888980 L 215.899977 476.428189 L 215.707343 475.967436 L 215.514709 475.506683 L 215.322075 475.045930 L 215.129491 474.585156 L 214.937246 474.124240 L 214.745001 473.663325 L 214.552757 473.202409 L 214.361315 472.741164 L 214.174188 472.278147 L 213.987060 471.815131 L 213.799933 471.352114 L 213.614960 470.888257 L 213.439096 470.420846 L 213.263232 469.953435 L 213.087368 469.486024 L 212.914369 469.017579 L 212.751261 468.545565 L 212.588153 468.073551 L 212.425046 467.601537 L 212.264830 467.128562 L 212.112924 466.652825 L 211.961017 466.177089 L 211.809110 465.701352 L 211.660548 465.224573 L 211.515368 464.746741 L 211.370188 464.268908 L 211.225008 463.791075 L 211.077311 463.314016 L 210.929159 462.837097 L 210.781007 462.360177 L 210.632856 461.883258 L 210.467832 461.411954 L 210.300590 460.941389 L 210.133348 460.470824 L 209.966107 460.000259 L 209.789917 459.532979 L 209.612993 459.065968 L 209.436069 458.598957 L 209.259145 458.131947 L 209.082746 457.664737 L 208.906376 457.197517 L 208.730006 456.730297 L 208.553635 456.263077 L 208.381654 455.794224 L 208.209759 455.325339 L 208.037865 454.856453 L 207.865970 454.387568" fill="none" stroke="black" stroke-width="2.000000" />
	<path d="M 51.724649 520.729925 L 51.565445 520.256988 L 51.406241 519.784051 L 51.247037 519.311113 L 51.087737 518.838208 L 50.928413 518.365311 L 50.769089 517.892414 L 50.612965 517.418457 L 50.458454 516.943966 L 50.303942 516.469475 L 50.149430 515.994984 L 49.996350 515.520029 L 49.843629 515.044959 L 49.690909 514.569888 L 49.538188 514.094817 L 49.378795 513.621947 L 49.219025 513.149200 L 49.059255 512.676454 L 48.898747 512.203964 L 48.730332 511.734228 L 48.561917 511.264492 L 48.393502 510.794755 L 48.223707 510.325525 L 48.049074 509.858064 L 47.874442 509.390604 L 47.699809 508.923144 L 47.524931 508.455775 L 47.349616 507.988570 L 47.174300 507.521366 L 46.998985 507.054161 L 46.822336 506.587461 L 46.644327 506.121276 L 46.466318 505.655091 L 46.288310 505.188906 L 46.107809 504.723684 L 45.925822 504.259038 L 45.743834 503.794392 L 45.561846 503.329746 L 45.374892 502.867085 L 45.186334 502.405066 L 44.997777 501.943047 L 44.809219 501.481028 L 44.614334 501.021648 L 44.418608 500.562620 L 44.222881 500.103592 L 44.027164 499.644560 L 43.832474 499.185091 L 43.637784 498.725623 L 43.443093 498.266154 L 43.249259 497.806330 L 43.060784 497.344277 L 42.872309 496.882224 L 42.683834 496.420171 L 42.497950 495.957092 L 42.319106 495.491227 L 42.140263 495.025362 L 41.961419 494.559496 L 41.786757 494.092078 L 41.618280 493.622364 L 41.449803 493.152650 L 41.281327 492.682936 L 41.124056 492.209468 L 40.975600 491.733048 L 40.827144 491.256627 L 40.678689 490.780206 L 40.541607 490.300446 L 40.408933 489.819392 L 40.276258 489.338338 L 40.143583 488.857284 L 40.029755 488.371481 L 39.918650 487.884992 L 39.807545 487.398503 L 39.696435 486.912016 L 39.585300 486.425534 L 39.474165 485.939052 L 39.363030 485.452570 L 39.252635 484.965921 L 39.143714 484.478938 L 39.034794 483.991955 L 38.925874 483.504973 L 38.823393 483.016639 L 38.727367 482.526950 L 38.631341 482.037262 L 38.535315 481.547574 L 38.447767 481.056338 L 38.364564 480.564308 L 38.281362 480.072279 L 38.198159 479.580249 L 38.126622 479.086419 L 38.057596 478.592201 L 37.988570 478.097984 L 37.919544 477.603766 L 37.864617 477.107786 L 37.809837 476.611787 L 37.755057 476.115788 L 37.702442 475.619581 L 37.661722 475.122230 L 37.621002 474.624880 L 37.580281 474.127529 L 37.545372 473.629809 L 37.522680 473.131310 L 37.499988 472.632812 L 37.477296 472.134313 L 37.461609 471.635596 L 37.453157 471.136653 L 37.444704 470.637710 L 37.436252 470.138767 L 37.436469 469.639790 L 37.441039 469.140796 L 37.445609 468.641802 L 37.450179 468.142808 L 37.466785 467.644097 L 37.485670 467.145440 L 37.504554 466.646783 L 37.523656 466.148137 L 37.556030 465.650173 L 37.588403 465.152210 L 37.620776 464.654246 L 37.654746 464.156400 L 37.695330 463.659038 L 37.735914 463.161676 L 37.776498 462.664315 L 37.818792 462.167100 L 37.863770 461.670117 L 37.908749 461.173133 L 37.953727 460.676150 L 37.999260 460.179217 L 38.045215 459.682323 L 38.091169 459.185428 L 38.137124 458.688534 L 38.182326 458.191571 L 38.227270 457.694584 L 38.272213 457.197598 L 38.317157 456.700611 L 38.369761 456.204382 L 38.423040 455.708220 L 38.476319 455.212057 L 38.530602 454.716014 L 38.594833 454.221150 L 38.659064 453.726287 L 38.723295 453.231423 L 38.821589 452.742419 L 38.926408 452.254537 L 39.031227 451.766655 L 39.136046 451.278773" fill="none" stroke="black" stroke-width="2.000000" />
</svg>