<?xml version="1.0" encoding="utf-8" ?>
<svg baseProfile="full" height="697" version="1.1" viewBox="0,0,801,697" width="801" xmlns="http://www.w3.org/2000/svg" xmlns:ev="http://www.w3.org/2001/xml-events" xmlns:xlink="http://www.w3.org/1999/xlink">
	<path d="M 15.170634 459.088684 L 13.985597 460.660879 L 12.807445 462.238166 L 11.658144 463.836300 L 10.549673 465.461952 L 9.500591 467.125663 L 8.527117 468.834313 L 7.636020 470.586945 L 6.824885 472.378227 L 6.094722 474.204627 L 5.402833 476.047210 L 4.811803 477.925022 L 4.271597 479.818153 L 3.775136 481.723244 L 3.319947 483.638620 L 2.900183 485.562096 L 2.515154 487.492818 L 2.157474 489.428825 L 1.826334 491.369540 L 1.519598 493.314272 L 1.237445 495.262716 L 0.980818 497.214685 L 0.754490 499.170374 L 0.559899 501.129479 L 0.397382 503.091501 L 0.266804 505.055909 L 0.168947 507.022211 L 0.105125 508.989907 L 0.075960 510.958419 L 0.080500 512.927149 L 0.118099 514.895524 L 0.190357 516.862920 L 0.300299 518.828553 L 0.449644 520.791582 L 0.641892 522.750841 L 0.877047 524.705441 L 1.145972 526.655741 L 1.448629 528.601037 L 1.792519 530.539449 L 2.182265 532.469126 L 2.619929 534.388512 L 3.107578 536.295765 L 3.646533 538.189190 L 4.232880 540.068501 L 4.869289 541.931373 L 5.553993 543.777166 L 6.286430 545.604364 L 7.075207 547.408052 L 7.906070 549.192870 L 8.779199 550.957157 L 9.706240 552.693889 L 10.681708 554.403723 L 11.711261 556.081692 L 12.783282 557.732890 L 13.897817 559.355600 L 15.058778 560.945503 L 16.261454 562.504051 L 17.507498 564.028172 L 18.794966 565.517460 L 20.122544 566.971149 L 21.489996 568.387248 L 22.900288 569.760924 L 24.339485 571.104178 L 25.817890 572.404023 L 27.337577 573.655605 L 28.888181 574.868271 L 30.483706 576.021671 L 32.099847 577.145845 L 33.749836 578.219518 L 35.438928 579.230874 L 37.155226 580.194841 L 38.911665 581.084260 L 40.678900 581.951763 L 42.474489 582.758764 L 44.301486 583.492237 L 46.148572 584.173115 L 48.025113 584.768546 L 49.917578 585.310898 L 51.832322 585.768560 L 53.764665 586.145181 L 55.710914 586.441478 L 57.669579 586.640538 L 59.633971 586.771724 L 61.601666 586.837620 L 63.570191 586.870673 L 65.538845 586.894908" fill="none" stroke="black" stroke-width="2.000000" />
	<path d="M 267.928953 327.065185 L 267.432823 327.035195 L 266.936693 327.005204 L 266.440564 326.975213 L 265.944424 326.945471 L 265.447540 326.933169 L 264.950657 326.920866 L 264.453774 326.908564 L 263.956899 326.897341 L 263.460238 326.916621 L 262.963576 326.935901 L 262.466915 326.955180 L 261.970456 326.976917 L 261.477327 327.039107 L 260.984198 327.101298 L 260.491068 327.163488 L 259.998626 327.229554 L 259.514155 327.340603 L 259.029684 327.451652 L 258.545213 327.562701 L 258.063416 327.682045 L 257.605332 327.874926 L 257.147248 328.067807 L 256.689164 328.260689 L 256.231892 328.455406 L 255.780861 328.664248 L 255.329830 328.873091 L 254.878799 329.081933 L 254.429797 329.294791 L 253.994104 329.533989 L 253.558411 329.773187 L 253.122718 330.012385 L 252.688577 330.254273 L 252.263495 330.511856 L 251.838412 330.769439 L 251.413330 331.027022 L 250.990392 331.287951 L 250.578919 331.566759 L 250.167446 331.845566 L 249.755972 332.124374 L 249.347007 332.406685 L 248.950440 332.706316 L 248.553872 333.005947 L 248.157305 333.305577 L 247.763153 333.608261 L 247.380333 333.925267 L 246.997513 334.242273 L 246.614693 334.559279 L 246.234374 334.879182 L 245.864928 335.211679 L 245.495483 335.544175 L 245.126037 335.876672 L 244.758914 336.211658 L 244.401610 336.557170 L 244.044307 336.902681 L 243.687003 337.248193 L 243.332098 337.596099 L 242.987182 337.953978 L 242.642267 338.311857 L 242.297351 338.669735 L 241.954758 339.029781 L 241.621741 339.398757 L 241.288723 339.767734 L 240.955706 340.136710 L 240.625076 340.507771 L 240.304337 340.887469 L 239.983598 341.267167 L 239.662859 341.646865 L 239.344563 342.028559 L 239.036494 342.418607 L 238.728426 342.808656 L 238.420358 343.198705 L 238.114810 343.590677 L 237.819927 343.990787 L 237.525044 344.390897 L 237.230162 344.791008 L 236.937812 345.192920 L 236.656565 345.602730 L 236.375317 346.012539 L 236.094069 346.422349 L 235.815227 346.833754 L 235.547101 347.252266 L 235.278975 347.670778 L 235.010849 348.089291 L 234.745322 348.509405 L 234.492062 348.937077 L 234.238802 349.364749 L 233.985543 349.792421 L 233.734784 350.221516 L 233.496702 350.657820 L 233.258621 351.094124 L 233.020539 351.530428 L 232.784715 351.967916 L 232.561223 352.411870 L 232.337731 352.855825 L 232.114239 353.299779 L 231.892997 353.744816 L 231.685418 354.196430 L 231.477838 354.648044 L 231.270259 355.099657 L 231.064621 355.552125 L 230.872223 356.010412 L 230.679826 356.468699 L 230.487428 356.926986 L 230.297290 357.386176 L 230.120942 357.850876 L 229.944593 358.315575 L 229.768245 358.780274 L 229.593661 359.245612 L 229.431612 359.715489 L 229.269563 360.185366 L 229.107514 360.655243 L 228.945886 361.125263 L 228.787773 361.596479 L 228.629660 362.067695 L 228.471548 362.538910 L 228.314338 363.010419 L 228.166312 363.484900 L 228.018286 363.959381 L 227.870260 364.433862 L 227.723067 364.908593 L 227.586551 365.386512 L 227.450034 365.864432 L 227.313517 366.342352 L 227.177156 366.820315 L 227.043517 367.299048 L 226.909878 367.777780 L 226.776238 368.256513 L 226.642870 368.735318 L 226.516719 369.216078 L 226.390567 369.696838 L 226.264416 370.177597 L 226.138136 370.658322 L 226.004270 371.136992 L 225.870405 371.615661 L 225.736540 372.094330 L 225.602675 372.572999" fill="none" stroke="black" stroke-width="2.000000" />
	<path d="M 263.068517 309.027810 L 262.584136 308.911061 L 262.099754 308.794311 L 261.615373 308.677562 L 261.130992 308.560813 L 260.646610 308.444064 L 260.162229 308.327314 L 259.669954 308.258730 L 259.173646 308.214759 L 258.677337 308.170788 L 258.181028 308.126817 L 257.684720 308.082846 L 257.188411 308.038875 L 256.692224 308.026103 L 256.196274 308.073948 L 255.700324 308.121794 L 255.204374 308.169640 L 254.708424 308.217486 L 254.212474 308.265332 L 253.717377 308.317460 L 253.240959 308.463340 L 252.764540 308.609221 L 252.288122 308.755102 L 251.811703 308.900982 L 251.335285 309.046863 L 250.858866 309.192743 L 250.409312 309.403854 L 249.968337 309.635794 L 249.527361 309.867734 L 249.086386 310.099675 L 248.645411 310.331615 L 248.204435 310.563555 L 247.778904 310.820573 L 247.373329 311.109995 L 246.967755 311.399416 L 246.562180 311.688838 L 246.156606 311.978260 L 245.751031 312.267682 L 245.349423 312.561977 L 244.983662 312.900318 L 244.617901 313.238659 L 244.252140 313.577000 L 243.886379 313.915341 L 243.520618 314.253682 L 243.154858 314.592023 L 242.814649 314.955494 L 242.482447 315.326840 L 242.150244 315.698185 L 241.818042 316.069530 L 241.485839 316.440875 L 241.153637 316.812220 L 240.824622 317.186361 L 240.499850 317.564222 L 240.175078 317.942082 L 239.850305 318.319943 L 239.525533 318.697803 L 239.200761 319.075664 L 238.876811 319.454215 L 238.561094 319.839673 L 238.245377 320.225132 L 237.929659 320.610590 L 237.613942 320.996049 L 237.298225 321.381507 L 236.982507 321.766966 L 236.678446 322.161593 L 236.378165 322.559195 L 236.077884 322.956797 L 235.777604 323.354399 L 235.477323 323.752000 L 235.177042 324.149602 L 234.881314 324.550546 L 234.591937 324.956153 L 234.302560 325.361759 L 234.013184 325.767366 L 233.723807 326.172973 L 233.434430 326.578579 L 233.146128 326.984926 L 232.870285 327.399855 L 232.594442 327.814785 L 232.318600 328.229715 L 232.042757 328.644644 L 231.766914 329.059574 L 231.491072 329.474503 L 231.223765 329.894939 L 230.959439 330.317299 L 230.695113 330.739658 L 230.430786 331.162017 L 230.166460 331.584377 L 229.902134 332.006736 L 229.642384 332.431875 L 229.389399 332.861123 L 229.136414 333.290372 L 228.883428 333.719620 L 228.630443 334.148868 L 228.377458 334.578117 L 228.125231 335.007799 L 227.883721 335.443607 L 227.642211 335.879415 L 227.400701 336.315222 L 227.159191 336.751030 L 226.917681 337.186838 L 226.676171 337.622646 L 226.443119 338.062996 L 226.213215 338.505037 L 225.983311 338.947078 L 225.753408 339.389118 L 225.523504 339.831159 L 225.293600 340.273200 L 225.068286 340.717551 L 224.850117 341.165500 L 224.631948 341.613448 L 224.413779 342.061397 L 224.195610 342.509345 L 223.977441 342.957294 L 223.760048 343.405605 L 223.556528 343.860397 L 223.353008 344.315188 L 223.149488 344.769979 L 222.945968 345.224771 L 222.742448 345.679562 L 222.538928 346.134354 L 222.344158 346.592921 L 222.152878 347.052995 L 221.961599 347.513069 L 221.770320 347.973143 L 221.579041 348.433217 L 221.387762 348.893291 L 221.201065 349.355199 L 221.021935 349.820138 L 220.842805 350.285077 L 220.663676 350.750016 L 220.484546 351.214955 L 220.305417 351.679894 L 220.126775 352.145014 L 219.959926 352.614500 L 219.793077 353.083986 L 219.626228 353.553472 L 219.459379 354.022958 L 219.292529 354.492444 L 219.125680 354.961929 L 218.967559 355.434388 L 218.813137 355.908107 L 218.658714 356.381826 L 218.504291 356.855544 L 218.349869 357.329263 L 218.195446 357.802981 L 218.045621 358.278132 L 217.903804 358.755776 L 217.761988 359.233419 L 217.620171 359.711063 L 217.478354 360.188707 L 217.336538 360.666351 L 217.195162 361.144118 L 217.069957 361.626383 L 216.944752 362.108648 L 216.819547 362.590912 L 216.694342 363.073177 L 216.569137 363.555442 L 216.443932 364.037707 L 216.327668 364.522165 L 216.215452 365.007617 L 216.103236 365.493069 L 215.991020 365.978520 L 215.878804 366.463972 L 215.766588 366.949423 L 215.659311 367.435941 L 215.561176 367.924434 L 215.463041 368.412927 L 215.364905 368.901420 L 215.266770 369.389913 L 215.168635 369.878405 L 215.070681 370.366932 L 214.985880 370.857915 L 214.901080 371.348898 L 214.816279 371.839882 L 214.731478 372.330865 L 214.646678 372.821848 L 214.561877 373.312831 L 214.484918 373.805074 L 214.411715 374.297920 L 214.338513 374.790766 L 214.265311 375.283611 L 214.192108 375.776457 L 214.118906 376.269303 L 214.049013 376.762607 L 213.985597 377.256808 L 213.922181 377.751008 L 213.858765 378.245209 L 213.795349 378.739409 L 213.668517 379.727810" fill="none" stroke="black" stroke-width="2.000000" />
	<path d="M 250.578918 331.566772 L 251.337737 333.351198 L 252.056551 335.150738 L 252.718222 336.971488 L 253.340080 338.807880 L 253.873017 340.672008 L 254.333552 342.555416 L 254.718619 344.455768 L 255.019297 346.371541 L 255.212808 348.301151 L 255.292382 350.238438 L 255.245663 352.176244 L 255.103106 354.109764 L 254.877990 356.035411 L 254.548759 357.945240 L 254.098371 359.830569 L 253.536938 361.685929 L 252.858710 363.501526 L 252.050797 365.263353 L 251.116496 366.961544 L 250.056652 368.584448 L 248.871448 370.117738 L 247.537705 371.522175 L 246.012693 372.712260 L 244.268635 373.554236 L 242.404080 374.083621 L 240.485975 374.369405 L 238.562859 374.619334" fill="none" stroke="black" stroke-width="2.000000" />
	<path d="M 263.751948 341.376113 L 263.837052 341.865974 L 263.922155 342.355834 L 264.007259 342.845695 L 264.091508 343.335694 L 264.166396 343.827220 L 264.241284 344.318746 L 264.316171 344.810272 L 264.388292 345.302173 L 264.447043 345.795888 L 264.505794 346.289602 L 264.564546 346.783317 L 264.620173 347.277365 L 264.666848 347.772367 L 264.713523 348.267369 L 264.760199 348.762372 L 264.801448 349.257799 L 264.832415 349.754032 L 264.863382 350.250265 L 264.894349 350.746497 L 264.917275 351.243081 L 264.929703 351.740124 L 264.942131 352.237167 L 264.954559 352.734209 L 264.956966 353.231310 L 264.950259 353.728462 L 264.943552 354.225615 L 264.936845 354.722768 L 264.910957 355.219059 L 264.873064 355.714811 L 264.835172 356.210563 L 264.797279 356.706315 L 264.740224 357.200072 L 264.675206 357.693001 L 264.610188 358.185930 L 264.545171 358.678858 L 264.467185 359.169858 L 264.385918 359.660369 L 264.304651 360.150881 L 264.223384 360.641392 L 264.135243 361.130709 L 264.046264 361.619881 L 263.957285 362.109052 L 263.868306 362.598223 L 263.759826 363.083437 L 263.651071 363.568595 L 263.542316 364.053753 L 263.431979 364.538523 L 263.303874 365.018934 L 263.175770 365.499346 L 263.047665 365.979757 L 262.916250 366.459216 L 262.769590 366.934292 L 262.622930 367.409367 L 262.476270 367.884443 L 262.324480 368.357823 L 262.159232 368.826757 L 261.993983 369.295691 L 261.828735 369.764624 L 261.656523 370.230947 L 261.472675 370.692905 L 261.288826 371.154864 L 261.104978 371.616822 L 260.912142 372.074986 L 260.709307 372.528929 L 260.506473 372.982872 L 260.303638 373.436814 L 260.089969 373.885640 L 259.868226 374.330652 L 259.646484 374.775665 L 259.424742 375.220678 L 259.190332 375.659037 L 258.949773 376.094166 L 258.709214 376.529294 L 258.468655 376.964423 L 258.212146 377.390228 L 257.950973 377.813305 L 257.689799 378.236382 L 257.428626 378.659459 L 257.153199 379.073349 L 256.875720 379.485915 L 256.598241 379.898482 L 256.320762 380.311049 L 256.025392 380.710987 L 255.729580 381.110613 L 255.433768 381.510239 L 255.136666 381.908868 L 254.824299 382.295692 L 254.511933 382.682517 L 254.199567 383.069341 L 253.884263 383.453688 L 253.555656 383.826814 L 253.227049 384.199941 L 252.898442 384.573067 L 252.561451 384.938176 L 252.203389 385.283136 L 251.845327 385.628097 L 251.487265 385.973057 L 251.117075 386.304161 L 250.727746 386.613400 L 250.338417 386.922639 L 249.949088 387.231879 L 249.543200 387.517501 L 249.119783 387.778123 L 248.696366 388.038744 L 248.272948 388.299366 L 247.836197 388.535806 L 247.389825 388.754800 L 246.943454 388.973794 L 246.497082 389.192788 L 246.040254 389.388221 L 245.578394 389.572318 L 245.116535 389.756415 L 244.654676 389.940512 L 244.173365 390.059255 L 243.686004 390.157666 L 243.198643 390.256077 L 242.711281 390.354488 L 242.215696 390.368309 L 241.718506 390.365609 L 241.221315 390.362910 L 240.724124 390.360211 L 240.229131 390.315390 L 239.734359 390.266335 L 239.239587 390.217279 L 238.744815 390.168223 L 238.252057 390.102045 L 237.759409 390.034935 L 236.774113 389.900713" fill="none" stroke="black" stroke-width="2.000000" />
	<path d="M 245.725055 558.329048 L 246.629763 556.567983 L 247.558513 554.819478 L 248.512113 553.084403 L 249.544035 551.394758 L 250.672026 549.767704 L 251.771328 548.121083 L 252.923202 546.510821 L 254.096771 544.916277 L 255.290023 543.336410 L 256.507188 541.774896 L 257.725295 540.214107 L 258.966730 538.671819 L 260.214557 537.134688 L 261.482053 535.613744 L 262.773547 534.113129 L 264.072181 532.618675 L 265.394808 531.145431 L 266.722135 529.676401 L 268.067800 528.224165 L 269.426336 526.783953 L 270.801979 525.360079 L 272.191050 523.949297 L 273.625498 522.584789 L 275.050282 521.210087 L 276.452096 519.811989 L 277.894751 518.456170 L 279.319020 517.080960 L 280.748751 515.711397 L 282.165163 514.328074 L 283.566117 512.929098 L 284.975616 511.538727 L 286.375851 510.139025 L 287.780942 508.744194 L 289.175782 507.339118 L 290.562050 505.925578 L 291.942896 504.506739 L 293.311688 503.076277 L 294.673513 501.639172 L 296.021362 500.188965 L 297.355200 498.725857 L 298.674241 497.249399 L 299.976471 495.758097 L 301.260722 494.251287 L 302.526855 492.729222 L 303.769735 491.188128 L 304.994959 489.632938 L 306.203852 488.065019 L 307.380366 486.472726 L 308.538726 484.867110 L 309.664198 483.238342 L 310.763470 481.591731 L 311.839794 479.930025 L 312.896419 478.255714 L 313.894816 476.546282 L 314.841197 474.807391 L 315.748489 473.047732 L 316.587587 471.254778 L 317.420889 469.458829 L 318.197763 467.638026 L 318.941634 465.803251 L 319.656522 463.957010 L 320.322531 462.092675 L 320.972890 460.222682 L 321.581598 458.338848 L 322.165454 456.447050 L 322.715609 454.545234 L 323.227618 452.632796 L 323.714809 450.713835 L 324.165905 448.786129 L 324.588621 446.851952 L 324.979022 444.911023 L 325.335890 442.963644 L 325.666113 441.011547 L 325.962326 439.054038 L 326.235103 437.093076 L 326.476772 435.128082 L 326.685922 433.159349 L 326.871307 431.188209 L 327.025067 429.214391 L 327.157497 427.238978 L 327.259077 425.261791 L 327.328197 423.283187 L 327.373297 421.303863 L 327.384339 419.324112 L 327.374538 417.344285 L 327.332992 415.364940 L 327.256571 413.386613 L 327.154775 411.409397 L 327.018181 409.434340 L 326.860820 407.460752 L 326.667399 405.490479 L 326.435999 403.524253 L 326.183280 401.560602 L 325.894061 399.602099 L 325.588397 397.645977 L 325.253449 395.694755 L 324.882363 393.750048 L 324.493289 391.808801 L 324.078961 389.872843 L 323.644309 387.941295 L 323.187667 386.014856 L 322.706277 384.094448 L 322.205878 382.178884 L 321.686943 380.268267 L 321.149303 378.362826 L 320.596397 376.461749 L 320.029375 374.564835 L 319.448776 372.672031 L 318.859466 370.781912 L 318.254083 368.896909 L 317.639683 367.014794 L 317.021243 365.134004 L 316.387657 363.258290 L 315.741335 361.386901 L 315.088497 359.517773 L 314.429757 357.650717 L 313.770242 355.783932 L 313.108925 353.917786 L 312.451896 352.050130 L 311.796175 350.182009 L 311.151646 348.310020 L 310.511650 346.436453 L 309.894262 344.555378 L 309.305105 342.665318 L 308.721406 340.773739 L 308.189664 338.867030 L 307.676317 336.955536 L 307.237850 335.025996 L 306.832157 333.089192 L 306.505886 331.138125 L 306.252178 329.176683 L 306.070450 327.208053 L 306.003506 325.232427 L 306.015579 323.255459 L 306.130888 321.281782 L 306.340781 319.315677 L 306.616877 317.356668 L 306.943298 315.404205" fill="none" stroke="black" stroke-width="2.000000" />
	<path d="M 219.511459 402.650737 L 219.066841 402.877951 L 218.622223 403.105165 L 218.177604 403.332379 L 217.733165 403.559937 L 217.292676 403.795055 L 216.852186 404.030173 L 216.411696 404.265292 L 215.971678 404.501271 L 215.535852 404.744926 L 215.100026 404.988581 L 214.664200 405.232236 L 214.229144 405.477238 L 213.797859 405.728843 L 213.366574 405.980447 L 212.935289 406.232052 L 212.505543 406.486220 L 212.080713 406.748578 L 211.655884 407.010936 L 211.231054 407.273294 L 210.808814 407.539701 L 210.392377 407.815187 L 209.975941 408.090672 L 209.559505 408.366158 L 209.146879 408.647188 L 208.740488 408.937289 L 208.334098 409.227389 L 207.927707 409.517490 L 207.526245 409.814232 L 207.130829 410.119122 L 206.735413 410.424012 L 206.339997 410.728902 L 205.950489 411.041171 L 205.566507 411.360341 L 205.182525 411.679511 L 204.798543 411.998682 L 204.421460 412.325849 L 204.049378 412.658816 L 203.677296 412.991783 L 203.305214 413.324749 L 202.940523 413.665696 L 202.580024 414.011170 L 202.219525 414.356644 L 201.859026 414.702118 L 201.507097 415.056225 L 201.158994 415.414185 L 200.810891 415.772146 L 200.462787 416.130107 L 200.124128 416.496935 L 199.788800 416.866890 L 199.453473 417.236845 L 199.118145 417.606801 L 198.792674 417.985394 L 198.469956 418.366399 L 198.147238 418.747403 L 197.824520 419.128408 L 197.512388 419.518080 L 197.202595 419.909667 L 196.892803 420.301254 L 196.583010 420.692840 L 196.284334 421.092928 L 195.987609 421.494507 L 195.690883 421.896086 L 195.394157 422.297665 L 195.109189 422.707635 L 194.825874 423.118785 L 194.542559 423.529935 L 194.259245 423.941085 L 193.988498 424.360587 L 193.719194 424.781048 L 193.449890 425.201509 L 193.180586 425.621969 L 192.924608 426.050647 L 192.669839 426.480070 L 192.415070 426.909494 L 192.160300 427.338917 L 191.918090 427.775530 L 191.676744 428.212639 L 191.435398 428.649747 L 191.194052 429.086856 L 190.966631 429.531355 L 190.739883 429.976211 L 190.513135 430.421067 L 190.286387 430.865924 L 190.074535 431.318054 L 189.863113 431.770396 L 189.651692 432.222737 L 189.440271 432.675079 L 189.244035 433.134209 L 189.047923 433.593395 L 188.851811 434.052581 L 188.655896 434.511847 L 188.475981 434.977618 L 188.296067 435.443389 L 188.116152 435.909160 L 187.936843 436.375150 L 187.777164 436.848240 L 187.617486 437.321331 L 187.457808 437.794421 L 187.298798 438.267725 L 187.154046 438.745594 L 187.009294 439.223463 L 186.864542 439.701332 L 186.720571 440.179426 L 186.588792 440.661034 L 186.457014 441.142641 L 186.325235 441.624249 L 186.195244 442.106298 L 186.087779 442.593908 L 185.980313 443.081517 L 185.872847 443.569126 L 185.766222 444.056912 L 185.668902 444.546647 L 185.571582 445.036382 L 185.474262 445.526117 L 185.378237 446.016091 L 185.294701 446.508365 L 185.211165 447.000638 L 185.127629 447.492912 L 185.045767 447.985443 L 184.977704 448.480094 L 184.909642 448.974744 L 184.841580 449.469395 L 184.776133 449.964347 L 184.729925 450.461515 L 184.683716 450.958684 L 184.637508 451.455852 L 184.593506 451.953187 L 184.564635 452.451663 L 184.535764 452.950139 L 184.506892 453.448615 L 184.479936 453.947175 L 184.465089 454.446265 L 184.450242 454.945355 L 184.435394 455.444446 L 184.423526 455.943563 L 184.429452 456.442839 L 184.435378 456.942115 L 184.441304 457.441391 L 184.452344 457.940430 L 184.492667 458.438110 L 184.532990 458.935791 L 184.573312 459.433471 L 184.615863 459.930937 L 184.671319 460.427159 L 184.726775 460.923381 L 184.782231 461.419603 L 184.842460 461.915130 L 184.930874 462.406551 L 185.019287 462.897972 L 185.107701 463.389393 L 185.199000 463.880230 L 185.308697 464.367343 L 185.418394 464.854455 L 185.528091 465.341567 L 185.639281 465.828327 L 185.758755 466.313134 L 185.878228 466.797941 L 185.997702 467.282748 L 186.116329 467.767759 L 186.230444 468.253855 L 186.344560 468.739951 L 186.458676 469.226047 L 186.576015 469.711314 L 186.710360 470.192213 L 186.844704 470.673111 L 186.979049 471.154009 L 187.111583 471.635390 L 187.233986 472.119465 L 187.356388 472.603541 L 187.478790 473.087617 L 187.599361 473.572132 L 187.709728 474.059093 L 187.820096 474.546053 L 187.930463 475.033014 L 188.044494 475.519055 L 188.177342 476.000368 L 188.310191 476.481682 L 188.443039 476.962996 L 188.573296 477.444981 L 188.690700 477.930293 L 188.808105 478.415605 L 188.925510 478.900917 L 189.042550 479.386317 L 189.157956 479.872108 L 189.273362 480.357899 L 189.388768 480.843691 L 189.501379 481.330104 L 189.602911 481.818983 L 189.704443 482.307863 L 189.805975 482.796742 L 189.904305 483.286239 L 189.991863 483.777813 L 190.079421 484.269387 L 190.166979 484.760962 L 190.249847 485.253286 L 190.319957 485.747651 L 190.390066 486.242015 L 190.460175 486.736380 L 190.532408 487.230429 L 190.609278 487.723787 L 190.686148 488.217146 L 190.763018 488.710504 L 190.842244 489.203481 L 190.925389 489.695821 L 191.008534 490.188161 L 191.091679 490.680501 L 191.175727 491.172686 L 191.261002 491.664661 L 191.346277 492.156637 L 191.431552 492.648612 L 191.518178 493.140350 L 191.606289 493.631825 L 191.694400 494.123301 L 191.782511 494.614776 L 191.876415 495.105150 L 191.974940 495.594644 L 192.073466 496.084138 L 192.171991 496.573632 L 192.268237 497.063576 L 192.363049 497.553803 L 192.457861 498.044030 L 192.552673 498.534257 L 192.654690 499.023008 L 192.760146 499.511056 L 192.865603 499.999104 L 192.971060 500.487152 L 193.074123 500.975708 L 193.176356 501.464442 L 193.278588 501.953175 L 193.380821 502.441908 L 193.486868 502.929825 L 193.593784 503.417555 L 193.700700 503.905285 L 193.807617 504.393015 L 193.912739 504.881134 L 194.017641 505.369301 L 194.122543 505.857469 L 194.227444 506.345636 L 194.332394 506.833793 L 194.437344 507.321950 L 194.542295 507.810107 L 194.647164 508.298281 L 194.750794 508.786720 L 194.854425 509.275159 L 194.958056 509.763597 L 195.061501 510.252075 L 195.163945 510.740764 L 195.266389 511.229453 L 195.368833 511.718142 L 195.470981 512.206893 L 195.572276 512.695821 L 195.673571 513.184750 L 195.774866 513.673678 L 195.875451 514.162752 L 195.974802 514.652080 L 196.074153 515.141407 L 196.173504 515.630734 L 196.271827 516.120267 L 196.369041 516.610024 L 196.466254 517.099780 L 196.563467 517.589537 L 196.661606 518.079108 L 196.760343 518.568559 L 196.859079 519.058011 L 196.957816 519.547462 L 197.056392 520.036946 L 197.154911 520.526442 L 197.253430 521.015937 L 197.351949 521.505432 L 197.444055 521.996169 L 197.535276 522.487077 L 197.626496 522.977985 L 197.717600 523.468914 L 197.804521 523.960601 L 197.891442 524.452288 L 197.978364 524.943975 L 198.064400 525.435815 L 198.146573 525.928318 L 198.228746 526.420821 L 198.310919 526.913324 L 198.391145 527.406141 L 198.467937 527.899512 L 198.544728 528.392883 L 198.621519 528.886254 L 198.695108 529.380104 L 198.766073 529.874346 L 198.837039 530.368589 L 198.908005 530.862831 L 198.973962 531.357759 L 199.038319 531.852905 L 199.102676 532.348051 L 199.167033 532.843198 L 199.224680 533.339169 L 199.282180 533.835158 L 199.339679 534.331148 L 199.395614 534.827305 L 199.444826 535.324186 L 199.494039 535.821066 L 199.543251 536.317946 L 199.586479 536.815368 L 199.627376 537.313002 L 199.668205 537.810641 L 199.705182 538.308581 L 199.742159 538.806521 L 199.779136 539.304461 L 199.811467 539.802662 L 199.830439 540.301613 L 199.849410 540.800563 L 199.868382 541.299514 L 199.887354 541.798465 L 199.906327 542.297415 L 199.924468 542.796391 L 199.935116 543.295588 L 199.945764 543.794786 L 199.956412 544.293984 L 199.959770 544.793189 L 199.950175 545.292408 L 199.940581 545.791627 L 199.930986 546.290846 L 199.911982 546.789791 L 199.892510 547.288723 L 199.873038 547.787654 L 199.849928 548.286382 L 199.813466 548.784360 L 199.777004 549.282338 L 199.739195 549.780195 L 199.686630 550.276732 L 199.634065 550.773269 L 199.581500 551.269805 L 199.528526 551.766298 L 199.475404 552.262776 L 199.422283 552.759253 L 199.369161 553.255731 L 199.298448 553.750003 L 199.227360 554.244228 L 199.156273 554.738452 L 199.080101 555.231830 L 198.987034 555.722391 L 198.893967 556.212952 L 198.800900 556.703513 L 198.703411 557.193190 L 198.600695 557.681822 L 198.497978 558.170454 L 198.395262 558.659086 L 198.282153 559.145362 L 198.164141 559.630527 L 198.046129 560.115692 L 197.928117 560.600856 L 197.790933 561.080906 L 197.651590 561.560380 L 197.512247 562.039854 L 197.371600 562.518930 L 197.219637 562.994555 L 197.067674 563.470180 L 196.915710 563.945805 L 196.755264 564.418443 L 196.575745 564.884366 L 196.396225 565.350289 L 196.216706 565.816213 L 196.032438 566.280250 L 195.843399 566.742393 L 195.654359 567.204536 L 195.465320 567.666678 L 195.261529 568.122375 L 195.050827 568.575052 L 194.840125 569.027729 L 194.629422 569.480405 L 194.409145 569.928480 L 194.187287 570.375795 L 193.965428 570.823110 L 193.743101 571.270180 L 193.502989 571.707968 L 193.262877 572.145755 L 193.022766 572.583543 L 192.777865 573.018519 L 192.512599 573.441539 L 192.247333 573.864559 L 191.982067 574.287578 L 191.711742 574.707298 L 191.431475 575.120531 L 191.151208 575.533765 L 190.870941 575.946999 L 190.578996 576.351788 L 190.274337 576.747381 L 189.969677 577.142975 L 189.665017 577.538568 L 189.358904 577.933035 L 189.051849 578.326772 L 188.744793 578.720509 L 188.437737 579.114245 L 188.115285 579.495284 L 187.787212 579.871688 L 187.459139 580.248092 L 187.131067 580.624496 L 186.797449 580.995982 L 186.462896 581.366638 L 186.128342 581.737294 L 185.793788 582.107949 L 185.448953 582.469051 L 185.103803 582.829859 L 184.758652 583.190668 L 184.411707 583.549640 L 184.043013 583.886354 L 183.674319 584.223068 L 183.305625 584.559782 L 182.936176 584.895659 L 182.562935 585.227325 L 182.189694 585.558992 L 181.816453 585.890659 L 181.438736 586.217001 L 181.047847 586.527674 L 180.656958 586.838347 L 180.266069 587.149019 L 179.872580 587.456332 L 179.473777 587.756779 L 179.074974 588.057225 L 178.676171 588.357671 L 178.273545 588.652866 L 177.865133 588.940114 L 177.456721 589.227362 L 177.048309 589.514610 L 176.634816 589.794321 L 176.215406 590.065259 L 175.795997 590.336198 L 175.376587 590.607136 L 174.954712 590.874180 L 174.530515 591.137559 L 174.106318 591.400939 L 173.682121 591.664318 L 173.253774 591.920797 L 172.822244 592.171980 L 172.390713 592.423163 L 171.959182 592.674346 L 171.523905 592.918904 L 171.086251 593.159259 L 170.648596 593.399614 L 170.210942 593.639968 L 169.768918 593.872089 L 169.324551 594.099795 L 168.880185 594.327500 L 168.435818 594.555206 L 167.986566 594.772986 L 167.535063 594.986191 L 167.083559 595.199396 L 166.632055 595.412600 L 166.174557 595.612401 L 165.714652 595.806821 L 165.254747 596.001242 L 164.794842 596.195662 L 164.331442 596.381510 L 163.866730 596.564143 L 163.402019 596.746777 L 162.937307 596.929410 L 162.466451 597.095277 L 161.993773 597.256172 L 161.521095 597.417067 L 161.048417 597.577963 L 160.571684 597.726253 L 160.093864 597.871165 L 159.616043 598.016076 L 159.138223 598.160988 L 158.658284 598.298662 L 158.177751 598.434307 L 157.697217 598.569952 L 157.216684 598.705597 L 156.731226 598.821885 L 156.244299 598.932404 L 155.757373 599.042923 L 155.270447 599.153442 L 154.782930 599.261316 L 154.295215 599.368303 L 153.807501 599.475289 L 153.319786 599.582276 L 152.829323 599.675468 L 152.337846 599.763569 L 151.846368 599.851670 L 151.354891 599.939770 L 150.861786 600.017980 L 150.368000 600.092060 L 149.874215 600.166139 L 149.380430 600.240218 L 148.885915 600.309166 L 148.391051 600.375666 L 147.896188 600.442165 L 147.401325 600.508664 L 146.904700 600.558979 L 146.407121 600.600541 L 145.909543 600.642104 L 145.411964 600.683666 L 144.914096 600.721474 L 144.416044 600.756913 L 143.917992 600.792352 L 143.419940 600.827791 L 142.921373 600.853835 L 142.422431 600.873047 L 141.923490 600.892260 L 141.424548 600.911472 L 140.925409 600.921670 L 140.426105 600.924312 L 139.926801 600.926954 L 139.427497 600.929596 L 138.928243 600.925657 L 138.429041 600.915252 L 137.929838 600.904847 L 137.430635 600.894442 L 136.931621 600.878346 L 136.432825 600.855672 L 135.934028 600.832998 L 135.435232 600.810323 L 134.937113 600.777816 L 134.439919 600.731890 L 133.942724 600.685963 L 133.445530 600.640037 L 132.948534 600.592079 L 132.451865 600.540775 L 131.955197 600.489471 L 131.458528 600.438167 L 130.962398 600.382271 L 130.467333 600.317295 L 129.972267 600.252319 L 129.477202 600.187343 L 128.982827 600.117687 L 128.490123 600.036732 L 127.997418 599.955777 L 127.504713 599.874822 L 127.011806 599.795143 L 126.518286 599.719316 L 126.024766 599.643489 L 125.531246 599.567662 L 125.038867 599.485643 L 124.550763 599.380451 L 124.062658 599.275259 L 123.574553 599.170067 L 123.086289 599.065631 L 122.597239 598.964923 L 122.108189 598.864215 L 121.619140 598.763506 L 121.130385 598.661438 L 120.643581 598.550381 L 120.156777 598.439323 L 119.669974 598.328266 L 119.183512 598.215808 L 118.700276 598.090130 L 118.217040 597.964453 L 117.733804 597.838776 L 117.250375 597.713884 L 116.763925 597.601288 L 116.277475 597.488692 L 115.791024 597.376096 L 115.304758 597.262781 L 114.824237 597.127097 L 114.343715 596.991412 L 113.863193 596.855727 L 113.382669 596.720050 L 112.899475 596.594211 L 112.416281 596.468371 L 111.933087 596.342532 L 111.449894 596.216692 L 110.966609 596.091205 L 110.483321 595.965726 L 110.000034 595.840247 L 109.516746 595.714768 L 109.034031 595.587104 L 108.551344 595.459338 L 108.068656 595.331571 L 107.585969 595.203804 L 107.100567 595.086807 L 106.614980 594.970545 L 106.129392 594.854283 L 105.643805 594.738022 L 105.159142 594.617972 L 104.674556 594.497603 L 104.189971 594.377234 L 103.705386 594.256865 L 103.218319 594.147018 L 102.731009 594.038203 L 102.243699 593.929388 L 101.756389 593.820572 L 101.267584 593.718709 L 100.778616 593.617607 L 100.289648 593.516505 L 99.800679 593.415402 L 99.310259 593.321633 L 98.819663 593.228747 L 98.329068 593.135862 L 97.838472 593.042977 L 97.345829 592.961758 L 96.852919 592.882062 L 96.360009 592.802365 L 95.867099 592.722669 L 95.372959 592.651057 L 94.878651 592.580556 L 94.384342 592.510054 L 93.890033 592.439553 L 93.394021 592.382472 L 92.897766 592.327315 L 92.401511 592.272157 L 91.905255 592.217000 L 91.407816 592.174054 L 90.910206 592.132878 L 90.412595 592.091702 L 89.914985 592.050525 L 89.416471 592.022785 L 88.917827 591.996988 L 88.419182 591.971190 L 87.920538 591.945392 L 87.421371 591.934856 L 86.922130 591.926485 L 86.422889 591.918113 L 85.923648 591.909741 L 85.424389 591.914988 L 84.925128 591.922046 L 84.425866 591.929105 L 83.926605 591.936163 L 83.427770 591.957390 L 82.928988 591.980372 L 82.430206 592.003354 L 81.931424 592.026335 L 81.434092 592.070202 L 80.936918 592.116359 L 80.439745 592.162516 L 79.942572 592.208673 L 79.450654 592.293447 L 78.959227 592.381831 L 78.467801 592.470215 L 77.976375 592.558599 L 77.493268 592.684340 L 77.010781 592.812862 L 76.528294 592.941384 L 76.045807 593.069906 L 75.570215 593.221902 L 75.094870 593.374737 L 74.619524 593.527572 L 74.144179 593.680407 L 73.670679 593.838864 L 73.197209 593.997415 L 72.723740 594.155965 L 72.250270 594.314516" fill="none" stroke="black" stroke-width="2.000000" />
	<path d="M 321.474182 379.497498 L 323.464420 379.414572 L 325.454853 379.337329 L 327.445839 379.277198 L 329.437175 379.237369 L 331.428806 379.224430 L 333.420224 379.246783 L 335.410800 379.306866 L 337.399559 379.410681 L 339.385424 379.559161 L 341.367127 379.754668 L 343.343890 379.994756 L 345.314425 380.281868 L 347.278135 380.612045 L 349.234327 380.985081 L 351.182260 381.398966 L 353.122608 381.847901 L 355.054325 382.332686 L 356.979245 382.844264 L 358.896194 383.385016 L 360.808671 383.941847 L 362.714100 384.522304 L 364.617070 385.110883 L 366.516291 385.711625 L 368.412905 386.320505 L 370.312133 386.921139 L 372.207294 387.534541 L 374.105532 388.138343 L 376.003138 388.744132 L 377.906076 389.332984 L 379.806954 389.928129 L 381.722088 390.476050 L 383.636438 391.026650 L 385.556880 391.555618 L 387.482372 392.065948 L 389.409957 392.568137 L 391.346216 393.035948 L 393.285591 393.490582 L 395.230890 393.919212 L 397.180134 394.329573 L 399.132097 394.726649 L 401.090084 395.092994 L 403.051411 395.440966 L 405.016934 395.764423 L 406.985739 396.067297 L 408.957316 396.351492 L 410.932268 396.611274 L 412.909576 396.852439 L 414.889355 397.072425 L 416.871150 397.273456 L 418.854674 397.456606 L 420.839983 397.619310 L 422.826679 397.764088 L 424.814639 397.890336 L 426.803661 397.998576 L 428.793549 398.089529 L 430.784154 398.163168 L 432.775304 398.220211 L 434.766837 398.261785 L 436.758646 398.286896 L 438.750591 398.296436 L 440.742552 398.291430 L 442.734414 398.270743 L 444.726104 398.237450 L 446.717483 398.189016 L 448.708477 398.126650 L 450.699069 398.052614 L 452.689082 397.964291 L 454.678642 397.866363 L 456.667501 397.755078 L 458.655653 397.631769 L 460.643231 397.499589 L 462.629854 397.353697 L 464.615972 397.201111 L 466.601157 397.036838 L 468.585454 396.862129 L 470.569218 396.681516 L 472.551751 396.487815 L 474.533883 396.290070 L 476.515008 396.082478 L 478.495207 395.866204 L 480.475072 395.646953 L 482.453466 395.414754 L 484.431721 395.181387 L 486.408994 394.939835 L 488.385402 394.691300 L 490.361766 394.442447 L 492.336525 394.181130 L 494.311511 393.921542 L 496.285608 393.655278 L 498.259065 393.384307 L 500.232722 393.114822 L 502.204765 392.833743 L 504.177363 392.556592 L 506.149302 392.274781 L 508.121033 391.991521 L 510.093123 391.710810 L 512.063330 391.417154 L 514.034830 391.132294 L 516.005627 390.842612 L 517.975453 390.546537 L 519.940684 390.221252 L 521.903622 389.882385 L 523.865680 389.538454 L 525.828177 389.197041 L 527.790855 388.856664 L 529.754344 388.521002 L 531.718334 388.188286 L 533.682780 387.858267 L 535.647489 387.529829 L 537.613825 387.211320 L 539.583272 386.912629 L 541.554834 386.628196 L 543.525852 386.340074 L 545.499544 386.070823 L 547.473710 385.805060 L 549.448475 385.543830 L 551.425284 385.298513 L 553.402888 385.059676 L 555.381004 384.825150 L 557.360428 384.601899 L 559.340131 384.381155 L 561.321069 384.171825 L 563.303735 383.979504 L 565.287391 383.797657 L 567.271609 383.622093 L 569.257051 383.460924 L 571.243068 383.307000 L 573.229671 383.160890 L 575.217309 383.029530 L 577.205072 382.900128 L 579.193774 382.786248 L 581.183807 382.698354 L 583.174102 382.616659 L 585.164873 382.547777 L 587.156370 382.504316 L 589.148073 382.471717 L 591.139980 382.456177 L 593.131950 382.458901 L 595.123880 382.471608 L 597.115681 382.497736 L 599.107339 382.533149 L 601.098835 382.576697 L 603.090072 382.630860 L 605.081131 382.691177 L 607.071912 382.760070 L 609.062351 382.838180 L 611.052202 382.930034 L 613.041285 383.037224 L 615.029353 383.161832 L 617.016210 383.304451 L 619.001730 383.464588 L 620.985546 383.644629 L 622.967567 383.843442 L 624.947406 384.062937 L 626.925147 384.300591 L 628.900529 384.557115 L 630.873527 384.831390 L 632.844143 385.122264 L 634.811722 385.433035 L 636.776816 385.759137 L 638.738572 386.104765 L 640.697421 386.466474 L 642.651361 386.853859 L 644.602521 387.255018 L 646.551111 387.668457 L 648.495465 388.101406 L 650.437953 388.542648 L 652.378303 388.993176 L 654.313248 389.466380 L 656.242984 389.960406 L 658.167701 390.473641 L 660.088670 391.000746 L 662.007779 391.534565 L 663.922003 392.085657 L 665.834534 392.642601 L 667.746467 393.201581 L 669.653569 393.776839 L 671.559628 394.355533 L 673.460992 394.949472 L 675.357636 395.558320 L 677.251267 396.176473 L 679.140330 396.808451 L 681.026660 397.448537 L 682.908153 398.102705 L 684.785128 398.769726 L 686.657607 399.449269 L 688.526065 400.139789 L 690.390419 400.841312 L 692.249700 401.556175 L 694.105018 402.281258 L 695.954263 403.021697 L 697.799651 403.771694 L 699.640336 404.533161 L 701.474945 405.309155 L 703.306145 406.093154 L 705.130096 406.893879 L 706.950460 407.702722 L 708.765870 408.522626 L 710.575386 409.355456 L 712.380980 410.196754 L 714.179167 411.053772 L 715.973471 411.918889 L 717.761754 412.796383 L 719.544502 413.685073 L 721.323359 414.581521 L 723.094472 415.493177 L 724.861302 416.413104 L 726.622354 417.344045 L 728.377236 418.286567 L 730.127606 419.237438 L 731.870383 420.202159 L 733.608325 421.175562 L 735.340867 422.158544 L 737.066360 423.153849 L 738.786385 424.158573 L 740.499685 425.174722 L 742.207820 426.199531 L 743.910930 427.232669 L 745.606857 428.277555 L 747.297596 429.330815 L 748.980628 430.396348 L 750.658686 431.469698 L 752.331283 432.551537 L 753.996533 433.644652 L 755.656767 434.745370 L 757.308734 435.858457 L 758.955978 436.978522 L 760.597302 438.107244 L 762.231390 439.246417 L 763.861254 440.391626 L 765.484888 441.545649 L 767.102195 442.708522 L 768.712277 443.881381 L 770.316776 445.061864 L 771.914605 446.251361 L 773.507593 447.447331 L 775.093900 448.652151 L 776.673141 449.866218 L 778.248836 451.084882 L 779.817009 452.313212 L 781.385235 453.541472 L 782.940775 454.785760 L 784.488112 456.040236 L 786.033197 457.297482 L 787.559835 458.577063 L 789.104992 459.834221 L 790.632755 461.112462 L 792.171663 462.377263 L 793.710390 463.642283 L 795.227085 464.933636 L 796.771123 466.192167 L 798.275947 467.497334 L 799.758902 468.827299 L 801.239192 470.160229" fill="none" stroke="black" stroke-width="2.000000" />
	<path d="M 51.162643 585.614136 L 50.692516 587.537545 L 50.229681 589.462671 L 49.779515 591.390818 L 49.343363 593.322189 L 48.926006 595.257625 L 48.532615 597.197874 L 48.153067 599.141039 L 47.830004 601.094431 L 47.558196 603.055496 L 47.319455 605.021088 L 47.095777 606.988435 L 46.895169 608.958239 L 46.720957 610.930570 L 46.570814 612.904877 L 46.447422 614.881019 L 46.350686 616.858679 L 46.279451 618.837360 L 46.240138 620.817000 L 46.222277 622.796910 L 46.234865 624.776886 L 46.272734 626.756532 L 46.337777 628.735479 L 46.428649 630.713404 L 46.547110 632.689868 L 46.693660 634.664448 L 46.867907 636.636784 L 47.068505 638.606610 L 47.296248 640.573490 L 47.549048 642.537305 L 47.827818 644.497603 L 48.132493 646.454040 L 48.464038 648.406110 L 48.820439 650.353785 L 49.205077 652.296094 L 49.613394 654.233557 L 50.048379 656.165209 L 50.509701 658.090742 L 50.997529 660.009732 L 51.511233 661.921962 L 52.049457 663.827437 L 52.611825 665.725921 L 53.201810 667.616007 L 53.817853 669.497771 L 54.455610 671.372269 L 55.125149 673.235676 L 55.808888 675.093887 L 56.531258 676.937458 L 57.267553 678.775489 L 58.038792 680.599152 L 58.831642 682.413517 L 59.653460 684.214952 L 60.500444 686.004656 L 61.405429 687.765763 L 62.356909 689.502175 L 63.372884 691.201666 L 64.452601 692.861405 L 65.588967 694.482903 L 66.736244 696.096699" fill="none" stroke="black" stroke-width="2.000000" />
	<path d="M 24.615425 495.704184 L 24.768925 496.179512 L 24.922424 496.654840 L 25.075923 497.130167 L 25.229056 497.605608 L 25.369660 498.084908 L 25.510263 498.564209 L 25.650866 499.043509 L 25.791828 499.522702 L 25.938623 500.000143 L 26.085417 500.477584 L 26.232211 500.955025 L 26.379130 501.432427 L 26.527412 501.909408 L 26.675694 502.386389 L 26.823977 502.863370 L 26.973116 503.340077 L 27.129240 503.814549 L 27.285364 504.289020 L 27.441489 504.763492 L 27.600005 505.237127 L 27.773970 505.705352 L 27.947934 506.173577 L 28.121899 506.641802 L 28.297844 507.109260 L 28.484370 507.572625 L 28.670897 508.035989 L 28.857423 508.499353 L 29.045796 508.961950 L 29.242550 509.421064 L 29.439305 509.880179 L 29.636059 510.339293 L 29.837382 510.796313 L 30.056739 511.245068 L 30.276097 511.693823 L 30.495454 512.142577 L 30.716894 512.590286 L 30.945685 513.034306 L 31.174475 513.478326 L 31.403265 513.922345 L 31.635578 514.364475 L 31.879081 514.800599 L 32.122584 515.236724 L 32.366087 515.672848 L 32.613347 516.106790 L 32.871586 516.534354 L 33.129825 516.961919 L 33.388063 517.389483 L 33.648547 517.815661 L 33.915067 518.238113 L 34.181587 518.660564 L 34.448107 519.083016 L 34.719824 519.502027 L 35.004683 519.912336 L 35.289542 520.322645 L 35.574401 520.732955 L 35.861074 521.141984 L 36.152105 521.547939 L 36.443135 521.953894 L 36.734166 522.359850 L 37.029662 522.762478 L 37.335365 523.157502 L 37.641068 523.552526 L 37.946771 523.947550 L 38.256091 524.339689 L 38.573361 524.725484 L 38.890631 525.111279 L 39.207902 525.497074 L 39.528814 525.879783 L 39.857360 526.256022 L 40.185905 526.632262 L 40.514451 527.008501 L 40.846737 527.381372 L 41.186703 527.747325 L 41.526669 528.113278 L 41.866635 528.479230 L 42.210088 528.841847 L 42.560568 529.197743 L 42.911049 529.553640 L 43.261529 529.909536 L 43.616189 530.261165 L 43.979199 530.604271 L 44.342209 530.947378 L 44.705220 531.290484 L 45.071484 531.630047 L 45.444230 531.962550 L 45.816977 532.295053 L 46.189724 532.627556 L 46.568110 532.953396 L 46.957658 533.266047 L 47.347206 533.578697 L 47.736754 533.891348 L 48.133430 534.194472 L 48.543350 534.479890 L 48.953271 534.765308 L 49.363191 535.050727 L 49.774004 535.334851 L 50.186492 535.616545 L 50.598981 535.898239 L 51.011470 536.179933 L 51.427242 536.456633 L 51.849340 536.723713 L 52.271439 536.990792 L 52.693537 537.257871 L 53.121215 537.515457 L 53.559926 537.754267 L 53.998638 537.993078 L 54.437349 538.231889 L 54.877511 538.467976 L 55.320624 538.698516 L 55.763737 538.929057 L 56.206850 539.159598 L 56.655419 539.378545 L 57.115510 539.573004 L 57.575602 539.767464 L 58.035693 539.961923 L 58.499334 540.147173 L 58.970904 540.311855 L 59.442474 540.476537 L 59.914044 540.641218 L 60.389614 540.792419 L 60.874687 540.911596 L 61.359759 541.030773 L 61.844831 541.149951 L 62.332012 541.259011 L 62.824315 541.343482 L 63.316619 541.427953 L 63.808923 541.512424 L 64.302819 541.584108 L 64.800805 541.622936 L 65.298792 541.661765 L 65.796779 541.700593 L 66.295164 541.725908 L 66.794574 541.716502 L 67.293983 541.707096 L 67.793393 541.697690 L 68.292015 541.675960 L 68.788558 541.621709 L 69.285101 541.567458 L 69.781644 541.513207 L 70.276316 541.446776 L 70.766243 541.349460 L 71.256169 541.252144 L 71.746095 541.154828 L 72.230410 541.037067 L 72.701357 540.870612 L 73.172304 540.704157 L 73.643251 540.537702 L 74.114152 540.371116 L 74.584987 540.204346 L 75.055823 540.037577 L 75.526658 539.870807 L 75.989389 539.683238 L 76.448922 539.487463 L 76.908455 539.291688 L 77.367988 539.095913 L 77.822957 538.889856 L 78.276426 538.680416 L 78.729894 538.470977 L 79.183362 538.261538 L 79.632834 538.043709 L 80.081206 537.823569 L 80.529577 537.603430 L 80.977949 537.383290 L 81.422988 537.156517 L 81.867270 536.928238 L 82.311553 536.699959 L 82.755836 536.471680 L 83.199287 536.241792 L 83.642592 536.011619 L 84.085896 535.781445 L 84.529200 535.551272 L 84.969858 535.316082 L 85.410158 535.080212 L 85.850458 534.844343 L 86.290757 534.608473 L 86.728369 534.367658 L 87.165724 534.126373 L 87.603079 533.885087 L 88.040435 533.643802 L 88.475602 533.398594 L 88.910650 533.153174 L 89.345699 532.907753 L 89.780747 532.662333 L 90.212861 532.411782 L 90.644919 532.161136 L 91.076978 531.910489 L 91.508991 531.659764 L 91.938815 531.405305 L 92.368640 531.150847 L 92.798464 530.896388 L 93.228137 530.641675 L 93.655278 530.382738 L 94.082419 530.123800 L 94.509560 529.864862 L 94.936286 529.605252 L 95.358978 529.339114 L 95.781671 529.072975 L 96.204363 528.806837 L 96.626745 528.540211 L 97.047047 528.270313 L 97.467349 528.000415 L 97.887650 527.730518 L 98.307364 527.459717 L 98.724118 527.184373 L 99.140872 526.909028 L 99.557626 526.633684 L 99.973988 526.357751 L 100.388825 526.079527 L 100.803661 525.801302 L 101.218498 525.523077 L 101.632620 525.243800 L 102.044501 524.961217 L 102.456381 524.678635 L 102.868262 524.396052 L 103.279064 524.111921 L 103.687116 523.823837 L 104.095168 523.535754 L 104.503220 523.247670 L 104.910054 522.957886 L 105.314288 522.664470 L 105.718523 522.371054 L 106.122757 522.077638 L 106.525461 521.782145 L 106.925428 521.482938 L 107.325395 521.183732 L 107.725362 520.884525 L 108.124330 520.583994 L 108.521787 520.281460 L 108.919243 519.978927 L 109.316700 519.676393 L 109.712334 519.371499 L 110.105621 519.063564 L 110.498907 518.755629 L 110.892194 518.447694 L 111.283404 518.137127 L 111.674427 517.826322 L 112.064351 517.514148 L 112.452382 517.199617 L 112.840414 516.885086 L 113.228446 516.570555 L 113.614237 516.253300 L 113.997670 515.933179 L 114.381103 515.613059 L 114.764537 515.292938 L 115.145936 514.970410 L 115.525572 514.645795 L 115.905209 514.321181 L 116.284846 513.996567 L 116.661665 513.668707 L 117.036441 513.338493 L 117.411217 513.008279 L 117.785994 512.678066 L 118.157832 512.344564 L 118.527926 512.009111 L 118.898021 511.673659 L 119.268115 511.338206 L 119.634322 510.998538 L 119.998616 510.656795 L 120.362910 510.315052 L 120.727204 509.973309 L 121.086632 509.626480 L 121.444071 509.277574 L 121.801510 508.928668 L 122.158949 508.579762 L 122.509749 508.224222 L 122.858362 507.866496 L 123.206974 507.508770 L 123.555586 507.151044 L 123.897983 506.787391 L 124.238765 506.422197 L 124.579546 506.057004 L 124.920328 505.691811 L 125.253802 505.319958 L 125.585852 504.946808 L 125.917903 504.573658 L 126.249953 504.200508 L 126.579216 503.824899 L 126.908097 503.448952 L 127.236978 503.073006 L 127.565859 502.697059 L 127.894039 502.320501 L 128.222159 501.943890 L 128.550279 501.567280 L 128.878399 501.190669 L 129.204403 500.812226 L 129.530321 500.433708 L 130.182158 499.676672" fill="none" stroke="black" stroke-width="2.000000" />
	<path d="M 67.793396 541.697693 L 67.544377 543.598622 L 67.310323 545.501450 L 67.103768 547.407455 L 66.912556 549.315063 L 66.813183 551.229536 L 66.755286 553.145807 L 66.743052 555.062897 L 66.788503 556.979451 L 66.892597 558.893707 L 67.054745 560.803914 L 67.274325 562.708366 L 67.551332 564.605305 L 67.886417 566.492837 L 68.280407 568.368939 L 68.731516 570.232125 L 69.233393 572.082300 L 69.783279 573.918762 L 70.386974 575.738157 L 71.050417 577.536553 L 71.778358 579.309737 L 72.570283 581.055335 L 73.421905 582.772634 L 74.333485 584.458814 L 75.313401 586.106002 L 76.372055 587.703891 L 77.532862 589.228927 L 78.722372 590.730413 L 79.942574 592.208679" fill="none" stroke="black" stroke-width="2.000000" />
	<path d="M 115.468517 243.627810 L 113.481968 243.588266 L 111.495418 243.548723 L 109.508485 243.553605 L 107.522126 243.601586 L 105.535841 243.652740 L 103.555026 243.808075 L 101.574373 243.966049 L 99.600235 244.191024 L 97.634090 244.477586 L 95.669062 244.771875 L 93.724960 245.181681 L 91.781945 245.597173 L 89.852549 246.071750 L 87.936530 246.597773 L 86.023138 247.133375 L 84.138567 247.762533 L 82.256123 248.398416 L 80.394019 249.091448 L 78.550177 249.831751 L 76.711414 250.584670 L 74.914449 251.432086 L 73.121440 252.288278 L 71.356954 253.201631 L 69.616423 254.159920 L 67.883366 255.131747 L 66.197727 256.183321 L 64.517470 257.243829 L 62.872671 258.358358 L 61.255992 259.513391 L 59.650390 260.683846 L 58.105514 261.932947 L 56.568563 263.192201 L 55.076766 264.504420 L 53.619034 265.854507 L 52.175099 267.219413 L 50.795098 268.648579 L 49.424375 270.087003 L 48.102451 271.570193 L 46.815655 273.084095 L 45.545577 274.612101 L 44.346960 276.196423 L 43.159627 277.789590 L 42.027849 279.422465 L 40.934539 281.081503 L 39.859780 282.752667 L 38.856855 284.467584 L 37.866037 286.189856 L 36.932265 287.943492 L 36.036678 289.717100 L 35.162778 291.501526 L 34.365807 293.321276 L 33.583272 295.147634 L 32.865174 297.000007 L 32.188932 298.868280 L 31.537187 300.745269 L 30.962078 302.646825 L 30.402916 304.553466 L 29.918013 306.479980 L 29.480109 308.418010 L 29.070581 310.362261 L 28.740414 312.321226 L 28.428375 314.283514 L 28.166599 316.252970 L 27.935882 318.226450 L 27.728871 320.202556 L 27.586082 322.184121 L 27.459293 324.167014 L 27.390297 326.152522 L 27.356535 328.139152 L 27.342362 330.126030 L 27.372176 332.112630 L 27.413853 334.099136 L 27.488220 336.084603 L 27.582402 338.069305 L 27.687680 340.053452 L 27.816220 342.036197 L 27.951514 344.018529 L 28.099765 345.999919 L 28.255881 347.980718 L 28.414873 349.961289 L 28.578422 351.941488 L 28.743388 353.921571 L 28.903850 355.902022 L 29.061560 357.882696 L 29.213744 359.863800 L 29.352796 361.845859 L 29.487506 363.828230 L 29.600683 365.811900 L 29.700560 367.796329 L 29.786105 369.781414 L 29.841395 371.767520 L 29.885984 373.753963 L 29.888330 375.740709 L 29.864101 377.727497 L 29.815402 379.713794 L 29.718548 381.698202 L 29.603234 383.681796 L 29.423811 385.660135 L 29.202869 387.634739 L 28.944845 389.604733 L 28.617683 391.564184 L 28.263413 393.519289 L 27.873661 395.467464 L 27.460364 397.410943 L 27.018194 399.347966 L 26.521814 401.271665 L 26.002883 403.189647 L 25.445484 405.096583 L 24.861665 406.995814 L 24.265909 408.891327 L 23.651773 410.780948 L 23.029906 412.668068 L 22.401162 414.552901 L 21.767864 416.436215 L 21.136103 418.320046 L 20.511230 420.206168 L 19.886560 422.092361 L 19.282812 423.985276 L 18.688272 425.881182 L 18.110821 427.782314 L 17.559542 429.691211 L 17.017335 431.602743 L 16.539179 433.530980 L 16.077074 435.463218 L 15.659523 437.405094 L 15.256044 439.350236 L 14.949410 441.312349 L 14.644012 443.274288 L 14.456883 445.251330 L 14.312782 447.230450 L 14.260584 449.215175 L 14.307699 451.196941 L 14.417395 453.179073 L 14.631000 455.152967 L 14.878601 457.123344 L 15.170634 459.088684" fill="none" stroke="black" stroke-width="2.000000" />
	<path d="M 120.191005 243.280548 L 122.058286 242.582686 L 123.919945 241.869962 L 125.775716 241.142044 L 127.616430 240.376852 L 129.431863 239.553478 L 131.220051 238.672497 L 132.977614 237.731906 L 134.702539 236.732721 L 136.392930 235.676162 L 138.046863 234.563399 L 139.662441 233.395648 L 141.236843 232.172950 L 142.768277 230.896847 L 144.256065 229.570115 L 145.699487 228.195247 L 147.097444 226.774175 L 148.451099 225.310841 L 149.759420 223.806838 L 151.022654 222.264771 L 152.240916 220.686935 L 153.413222 219.074661 L 154.538248 217.429048 L 155.615118 215.751527 L 156.643596 214.043909 L 157.623385 212.307897 L 158.554579 210.545341 L 159.441450 208.760071 L 160.283846 206.953390 L 161.083107 205.127216 L 161.840363 203.283227 L 162.555728 201.422587 L 163.231668 199.547264 L 163.868219 197.658207 L 164.467095 195.756871 L 165.029773 193.844509 L 165.556555 191.921950 L 166.050195 189.990615 L 166.510853 188.051149 L 166.939988 186.104464 L 167.338873 184.151357 L 167.707904 182.192389 L 168.050156 180.228566 L 168.365862 178.260300 L 168.656141 176.288124 L 168.921989 174.312507 L 169.163736 172.333795 L 169.383900 170.352566 L 169.582801 168.369089 L 169.762588 166.383788 L 169.925191 164.397006 L 170.070976 162.408918 L 170.202116 160.419811 L 170.318863 158.429807 L 170.422426 156.439073 L 170.513912 154.447748 L 170.593675 152.455919 L 170.664438 150.463749 L 170.726540 148.471291 L 170.781627 146.478626 L 170.831216 144.485816 L 170.875691 142.492886 L 170.917816 140.499905 L 170.957937 138.506882 L 170.997721 136.513853 L 171.038712 134.520848 L 171.081336 132.527878 L 171.128993 130.535021 L 171.182099 128.542302 L 171.242730 126.549798 L 171.312809 124.557605 L 171.392739 122.565782 L 171.485550 120.574518 L 171.591594 118.583915 L 171.713082 116.594196 L 171.852043 114.605621 L 172.008658 112.618358 L 172.183346 110.632602 L 172.376102 108.648519 L 172.585911 106.666167 L 172.811853 104.685588 L 173.054081 102.706935 L 173.316082 100.730804 L 173.598069 98.757426 L 173.901022 96.787158 L 174.225806 94.820370 L 174.572349 92.857300 L 174.939223 90.897928 L 175.326436 88.942473 L 175.734146 86.991189 L 176.162524 85.044338 L 176.611570 83.102150 L 177.081194 81.164835 L 177.571321 79.232606 L 178.081500 77.305573 L 178.611343 75.383855 L 179.160756 73.467639 L 179.729397 71.557041 L 180.317203 69.652252 L 180.924166 67.753481 L 181.550270 65.860935 L 182.195468 63.974813 L 182.859798 62.095345 L 183.543191 60.222724 L 184.245521 58.357123 L 184.966671 56.498715 L 185.706628 54.647716 L 186.465666 52.804459 L 187.243867 50.969210 L 188.042243 49.142648 L 188.861525 47.325368 L 189.701221 45.517430 L 190.559325 43.718154 L 191.435641 41.927678 L 192.330081 40.146187 L 193.242616 38.373896 L 194.174680 36.611799 L 195.131862 34.863222 L 196.114783 33.128983 L 197.126357 31.411303 L 198.168438 29.711959 L 199.239811 28.030928 L 200.337447 26.366925 L 201.463115 24.721758 L 202.624250 23.101436 L 203.825322 21.510500 L 205.065160 19.949584 L 206.341772 18.418597 L 207.651255 16.915624 L 208.990662 15.439251 L 210.366745 13.997016 L 211.778818 12.590000 L 213.235364 11.229098 L 214.738721 9.920103 L 216.289324 8.667443 L 217.902235 7.496193 L 219.567423 6.400495 L 221.288686 5.395243 L 223.057763 4.476704 L 224.864883 3.635417 L 226.717931 2.900985 L 228.602713 2.252131 L 230.515351 1.690691 L 232.454007 1.227082 L 234.415236 0.870958 L 236.394642 0.636300 L 238.383703 0.506157 L 240.376956 0.501276 L 242.367228 0.610937 L 244.348862 0.826373 L 246.313248 1.164441 L 248.256751 1.607250 L 250.173321 2.154989 L 252.055495 2.811213 L 253.898281 3.571067 L 255.690960 4.442517 L 257.418621 5.436565 L 259.079489 6.538659 L 260.655050 7.759507 L 262.138386 9.090907 L 263.547733 10.500529 L 264.885985 11.977839 L 266.155034 13.515020 L 267.350064 15.110417 L 268.462559 16.764408 L 269.487236 18.474187 L 270.408448 20.241824 L 271.228100 22.058800 L 271.943270 23.919381 L 272.554260 25.816733 L 273.077182 27.740262 L 273.507775 29.686533 L 273.867489 31.647182 L 274.173569 33.616940 L 274.426797 35.594187 L 274.630657 37.577136 L 274.779441 39.564970 L 274.880316 41.555819 L 274.932688 43.548532 L 274.939387 45.541925 L 274.912928 47.535164 L 274.834770 49.527028 L 274.717399 51.516979 L 274.575901 53.505372 L 274.396869 55.490726 L 274.190771 57.473462 L 273.947808 59.452010 L 273.670941 61.426103 L 273.366284 63.396102 L 273.031270 65.361165 L 272.676498 67.322763 L 272.294128 69.279164 L 271.889230 71.231031 L 271.463858 73.178539 L 271.015589 75.120903 L 270.553628 77.060060 L 270.070248 78.993986 L 269.571877 80.924106 L 269.053536 82.848957 L 268.512570 84.767570 L 267.969237 86.685522 L 267.401787 88.596468 L 266.845875 90.510809 L 266.267298 92.418416 L 265.670772 94.320491 L 265.083448 96.225430 L 264.482521 98.126120 L 263.877767 100.025599 L 263.265711 101.922737 L 262.643215 103.816474 L 262.019450 105.709796 L 261.388998 107.600901 L 260.753715 109.490388 L 260.116080 111.379083 L 259.474800 113.266544 L 258.832800 115.153760 L 258.189921 117.040677 L 257.546797 118.927510 L 256.905942 120.815116 L 256.267592 122.703569 L 255.633065 124.593311 L 255.004493 126.485041 L 254.380979 128.378445 L 253.767720 130.275194 L 253.165736 132.175551 L 252.573056 134.078831 L 251.996364 135.987013 L 251.427234 137.897467 L 250.880850 139.814543 L 250.355394 141.737462 L 249.846162 143.664744 L 249.350632 145.595595 L 248.864090 147.528733 L 248.399258 149.467199 L 247.949590 151.409242 L 247.521444 153.356140 L 247.110553 155.306755 L 246.727356 157.262991 L 246.358575 159.222006 L 246.019420 161.186334 L 245.695792 163.153130 L 245.404164 165.124740 L 245.135340 167.099716 L 244.901883 169.079307 L 244.688927 171.061126 L 244.504407 173.045790 L 244.349686 175.032949 L 244.219164 177.021912 L 244.117511 179.012620 L 244.036449 181.004259 L 243.980646 182.996758 L 243.952695 184.989746 L 243.942320 186.983028 L 243.964195 188.976186 L 243.993501 190.969311 L 244.052803 192.961682 L 244.121813 194.953797 L 244.209790 196.945209 L 244.315082 198.935797 L 244.426100 200.926071 L 244.555334 202.915267 L 244.703295 204.903034 L 244.874474 206.888771 L 245.071248 208.872223 L 245.302188 210.851934 L 245.572405 212.826281 L 245.861343 214.798279" fill="none" stroke="black" stroke-width="2.000000" />
	<path d="M 208.414220 222.282891 L 210.405812 222.209306 L 212.397257 222.131866 L 214.388548 222.050538 L 216.378963 221.950049 L 218.367320 221.814840 L 220.352993 221.644718 L 222.333715 221.424364 L 224.308186 221.153663 L 226.275248 220.833553 L 228.233799 220.464931 L 230.182626 220.047949 L 232.119011 219.576582 L 234.041419 219.051116 L 235.949667 218.476341 L 237.843871 217.856844 L 239.723243 217.193712 L 241.592169 216.501661 L 243.450457 215.781532 L 245.297971 215.034196 L 247.134597 214.260489 L 248.960075 213.460834 L 250.776383 212.640557 L 252.583420 211.800052 L 254.380542 210.938555 L 256.167080 210.055320 L 257.942815 209.150563 L 259.709100 208.227488 L 261.465865 207.286422 L 263.212830 206.327286 L 264.949705 205.349999 L 266.676304 204.354669 L 268.392612 203.341698 L 270.098495 202.311266 L 271.794847 201.265217 L 273.482629 200.205394 L 275.161807 199.131989 L 276.831484 198.043869 L 278.491465 196.941013 L 280.142555 195.824887 L 281.785627 194.696991 L 283.420691 193.557516 L 285.047114 192.405743 L 286.664771 191.241690 L 288.273971 190.065974 L 289.875061 188.879236 L 291.468046 187.681640 L 293.054141 186.474933 L 294.633482 185.259399 L 296.205890 184.034909 L 297.771175 182.801328 L 299.329296 181.558710 L 300.881655 180.308900 L 302.428462 179.052225 L 303.969575 177.788573 L 305.504829 176.517810 L 307.034188 175.239959 L 308.558528 173.956123 L 310.078001 172.666531 L 311.592688 171.371321 L 313.102675 170.070633 L 314.607971 168.764520 L 316.109124 167.453647 L 317.606243 166.138169 L 319.100178 164.819075 L 320.591913 163.497493 L 322.081638 162.173646 L 323.569279 160.847457 L 325.054813 159.518909 L 326.538414 158.188203 L 328.020289 156.855575 L 329.500480 155.521075 L 330.978850 154.184560 L 332.455362 152.845991 L 333.930112 151.505483 L 335.403222 150.163172 L 336.874731 148.819106 L 338.345154 147.473852 L 339.814645 146.127579 L 341.283259 144.780350 L 342.751051 143.432226 L 344.218044 142.083231 L 345.684518 140.733674 L 347.150565 139.383652 L 348.616279 138.033268 L 350.081766 136.682639 L 351.547061 135.331800 L 353.012344 133.980950 L 354.477679 132.630155 L 355.943188 131.279548 L 357.409018 129.929291 L 358.875215 128.579432 L 360.341970 127.230179 L 361.809351 125.881608 L 363.277430 124.533795 L 364.746290 123.186835 L 366.215962 121.840761 L 367.686731 120.495884 L 369.158705 119.152327 L 370.631908 117.810119 L 372.106360 116.469281 L 373.582074 115.129834 L 375.059447 113.792216 L 376.538641 112.456612 L 378.019759 111.123143 L 379.502920 109.791946 L 380.988156 108.463065 L 382.475451 107.136489 L 383.964792 105.812209 L 385.456379 104.490462 L 386.950489 103.171566 L 388.447207 101.855631 L 389.946431 100.542551 L 391.448105 99.232274 L 392.952475 97.925093 L 394.459885 96.621421 L 395.970453 95.321407 L 397.484199 94.025098 L 399.001126 92.732510 L 400.521301 91.443745 L 402.044822 90.158938 L 403.571730 88.878156 L 405.102360 87.601827 L 406.636881 86.330177 L 408.175186 85.063109 L 409.717105 83.800440 L 411.262581 82.542128 L 412.812149 81.288859 L 414.366094 80.041021 L 415.924313 78.798526 L 417.486623 77.561177 L 419.052956 76.328925 L 420.623794 75.102422 L 422.199404 73.882056 L 423.779898 72.668023 L 425.365406 71.460545 L 426.955951 70.259710 L 428.551223 69.065161 L 430.151022 67.876681 L 431.755628 66.694701 L 433.365494 65.519896 L 434.980774 64.352547 L 436.601109 63.192221 L 438.226252 62.038641 L 439.856506 60.892297 L 441.492377 59.753984 L 443.134049 58.624054 L 444.781471 57.502524 L 446.434581 56.389394 L 448.093311 55.284656 L 449.757584 54.188287 L 451.427361 53.100319 L 453.103071 52.021514 L 454.784978 50.952397 L 456.472858 49.892734 L 458.166343 48.842050 L 459.865273 47.800193 L 461.570285 46.768325 L 463.281793 45.747269 L 464.999674 44.736971 L 466.723694 43.737183 L 468.453756 42.747889 L 470.190895 41.771085 L 471.935795 40.808217 L 473.688417 39.859476 L 475.448637 38.924910 L 477.216283 38.004464 L 478.990018 37.095791 L 480.768923 36.197282 L 482.554201 35.311520 L 484.347824 34.442804 L 486.150613 33.593279 L 487.963767 32.766142 L 489.788058 31.963876 L 491.625734 31.192873 L 493.479986 30.462773 L 495.351683 29.778669 L 497.241954 29.147933 L 499.150895 28.576228 L 501.078057 28.069603 L 503.022985 27.636483 L 504.983929 27.283121 L 506.959768 27.028449 L 508.946880 26.887121 L 510.938682 26.871199 L 512.926388 26.996046 L 514.900119 27.263246 L 516.853902 27.652523 L 518.782178 28.152816 L 520.673482 28.777302 L 522.535855 29.486379 L 524.375003 30.253273 L 526.161042 31.133607 L 527.878588 32.142461 L 529.498098 33.298959 L 531.011934 34.593285 L 532.456821 35.965423 L 533.838012 37.401234 L 535.146243 38.903927 L 536.370330 40.475526 L 537.528543 42.097165 L 538.629741 43.757735 L 539.677039 45.453153 L 540.674797 47.178043 L 541.623334 48.930626 L 542.527743 50.706363 L 543.389827 52.503078 L 544.218680 54.315431 L 545.014878 56.142317 L 545.777923 57.983338 L 546.510435 59.836712 L 547.210535 61.702561 L 547.880045 63.579630 L 548.517176 65.467895 L 549.122488 67.366643 L 549.698439 69.274486 L 550.241365 71.191974 L 550.749471 73.118980 L 551.220329 75.055402 L 551.653427 77.000637 L 552.048724 78.953886 L 552.405218 80.914598 L 552.725493 82.881568 L 553.008467 84.854222 L 553.253124 86.832013 L 553.459484 88.814147 L 553.624979 90.800106 L 553.751902 92.788931 L 553.838465 94.779870 L 553.882326 96.772240 L 553.888996 98.765105 L 553.854772 100.757617 L 553.781900 102.749185 L 553.672507 104.738998 L 553.520081 106.726012 L 553.331605 108.709966 L 553.100944 110.689336 L 552.827940 112.663448 L 552.516178 114.631693 L 552.158542 116.592189 L 551.769002 118.546666 L 551.341569 120.493027 L 550.874990 122.430570 L 550.377574 124.360296 L 549.838925 126.278995 L 549.269900 128.188937 L 548.662682 130.086923 L 548.016209 131.972078 L 547.339939 133.846652 L 546.625892 135.707213 L 545.878161 137.554481 L 545.092954 139.386098 L 544.274175 141.203042 L 543.425688 143.006233 L 542.541447 144.792188 L 541.624849 146.561764 L 540.675585 148.314011 L 539.693878 150.048321 L 538.682183 151.765297 L 537.639037 153.463342 L 536.565862 155.142597 L 535.464649 156.803586 L 534.333378 158.444235 L 533.174442 160.065512 L 531.990097 161.668272 L 530.779328 163.251222 L 529.544985 164.815810 L 528.279454 166.355219 L 526.986797 167.872061 L 525.673592 169.371042 L 524.334489 170.847022 L 522.974606 172.303831 L 521.587523 173.734710 L 520.176781 175.142401 L 518.750569 176.534358 L 517.303614 177.904757 L 515.839189 179.256496 L 514.356618 180.588239 L 512.854026 181.897426 L 511.336705 183.189490 L 509.802578 184.461557 L 508.253647 185.715584 L 506.690552 186.951865 L 505.112170 188.168623 L 503.522493 189.370566 L 501.919974 190.555341 L 500.306557 191.725251 L 498.682533 192.880353 L 497.046638 194.018625 L 495.402502 195.144946 L 493.748492 196.256719 L 492.085720 197.355356 L 490.414628 198.441276 L 488.734376 199.512992 L 487.047209 200.573780 L 485.352244 201.622064 L 483.650082 202.658628 L 481.941028 203.683778 L 480.224886 204.697034 L 478.503193 205.700823 L 476.775524 206.694295 L 475.042810 207.678948 L 473.304732 208.654081 L 471.560627 209.618418 L 469.812810 210.575996 L 468.059857 211.524151 L 466.304185 212.467266 L 464.544557 213.402938 L 462.779016 214.327444 L 461.012550 215.250149 L 459.240488 216.162096 L 457.469155 217.075459 L 455.696788 217.986808 L 453.919594 218.888679 L 452.133690 219.773143 L 450.338583 220.638833 L 448.539209 221.495625 L 446.736056 222.344430 L 444.927713 223.182107 L 443.113541 224.007098 L 441.295793 224.824193 L 439.476208 225.637170 L 437.653743 226.443684 L 435.831662 227.251038 L 434.005079 228.048185 L 432.179024 228.846538 L 430.349821 229.637647 L 428.518883 230.424735 L 426.688914 231.214060 L 424.855650 231.995713 L 423.024046 232.781253 L 421.189803 233.560611 L 419.354989 234.338611 L 417.523521 235.124470 L 415.691340 235.908667 L 413.860173 236.695229 L 412.028682 237.481036 L 410.197613 238.267825 L 408.367760 239.057440 L 406.538815 239.849154 L 404.711398 240.644389 L 402.884878 241.441682 L 401.059872 242.242432 L 399.236680 243.047302 L 397.416383 243.858699 L 395.598600 244.675715 L 393.783381 245.498406 L 391.971205 246.327783 L 390.162167 247.163973 L 388.357634 248.009846 L 386.556978 248.863935 L 384.761212 249.728265 L 382.969756 250.601490 L 381.183167 251.484611 L 379.403984 252.382576 L 377.630199 253.291154 L 375.862284 254.211107 L 374.099058 255.140014 L 372.341768 256.080092 L 370.591843 257.033816 L 368.848862 258.000151 L 367.115499 258.983660 L 365.387884 259.977220 L 363.668362 260.984724 L 361.956712 262.005542 L 360.254249 263.041591 L 358.563052 264.095952 L 356.879988 265.163238 L 355.208209 266.248130 L 353.540498 267.339210 L 351.880339 268.441640 L 350.230295 269.559095 L 348.592029 270.693747 L 346.966438 271.846468 L 345.353521 273.016844 L 343.754534 274.206160 L 342.169850 275.414445 L 340.601153 276.643368 L 339.049676 277.893894 L 337.515368 279.165457 L 336.000218 280.459793 L 334.503901 281.775798 L 333.026330 283.112850 L 331.567121 284.470004 L 330.126775 285.847146 L 328.704662 287.243048 L 327.297680 288.654342 L 325.914988 290.089302 L 324.545189 291.536571 L 323.198299 293.005311 L 321.868175 294.489215 L 320.556523 295.989459 L 319.265992 297.507851 L 318.000330 299.046869 L 316.750449 300.598976 L 315.535502 302.178425 L 314.336735 303.770013 L 313.173755 305.388041 L 312.045633 307.030226 L 310.941312 308.688833 L 309.877733 310.373949 L 308.834003 312.071354 L 307.821351 313.787600 L 306.841893 315.522794 L 305.885469 317.270887 L 304.963519 319.037562 L 304.050360 320.808947 L 303.141886 322.582757 L 302.232147 324.355927" fill="none" stroke="black" stroke-width="2.000000" />
	<path d="M 322.659882 241.780762 L 324.599606 242.179060 L 326.548169 242.528004 L 328.498929 242.861817 L 330.463741 243.100358 L 332.433544 243.283565 L 334.409472 243.395906 L 336.387908 243.411030 L 338.367258 243.401206 L 340.345894 243.322717 L 342.318273 243.146940 L 344.290347 242.967782 L 346.259567 242.759590 L 348.228189 242.545808 L 350.193914 242.306861 L 352.157579 242.051530 L 354.118219 241.773927 L 356.073191 241.458877 L 358.027896 241.142167 L 359.980913 240.815219 L 361.933823 240.487625 L 363.882561 240.136064 L 365.830700 239.781205 L 367.772799 239.394648 L 369.711751 238.992607 L 371.647068 238.573414 L 373.577501 238.132275 L 375.506001 237.682765 L 377.426662 237.200857 L 379.347096 236.718045 L 381.259351 236.203797 L 383.171096 235.687652 L 385.075221 235.144069 L 386.976529 234.590714 L 388.872530 234.019439 L 390.763136 233.430557 L 392.650949 232.832782 L 394.531021 232.211089 L 396.410434 231.587407 L 398.279783 230.934178 L 400.148850 230.280143 L 402.004609 229.589251 L 403.856985 228.889339 L 405.702052 228.170380 L 407.541458 227.437058 L 409.376565 226.693045 L 411.202991 225.927969 L 413.027664 225.158720 L 414.839727 224.360222 L 416.651493 223.561048 L 418.449447 222.731268 L 420.245263 221.896872 L 422.031498 221.042157 L 423.812122 220.175812 L 425.585179 219.294085 L 427.346712 218.389554 L 429.105115 217.478954 L 430.847713 216.538462 L 432.589691 215.596821 L 434.314538 214.624158 L 436.037429 213.648032 L 437.747366 212.649389 L 439.451683 211.641184 L 441.148410 210.620257 L 442.836368 209.584896 L 444.521032 208.544183 L 446.194774 207.485997 L 447.868517 206.427810" fill="none" stroke="black" stroke-width="2.000000" />
	<path d="M 530.368517 143.427810 L 531.060158 141.561038 L 531.751800 139.694266 L 532.414914 137.817172 L 533.048473 135.929897 L 533.681737 134.042523 L 534.246686 132.133587 L 534.810280 130.224251 L 535.331485 128.302910 L 535.806111 126.369537 L 536.280022 124.435988 L 536.675008 122.484786 L 537.066875 120.532955 L 537.422751 118.574243 L 537.736982 116.608419 L 538.050217 114.642436 L 538.287845 112.665891 L 538.521009 110.688813 L 538.716838 108.707688 L 538.867108 106.722588 L 539.016166 104.737397 L 539.092505 102.748083 L 539.163152 100.758557 L 539.198841 98.768097 L 539.189480 96.777340 L 539.178687 94.786590 L 539.091792 92.797710 L 538.997490 90.809164 L 538.857934 88.823283 L 538.656643 86.842707 L 538.454154 84.862252 L 538.193099 82.888664 L 537.925241 80.915987 L 537.631132 78.947052 L 537.299012 76.984172 L 536.965122 75.021592 L 536.541827 73.076339 L 536.106516 71.133736 L 535.622117 69.202789 L 535.062918 67.292163 L 534.500527 65.382472 L 533.781446 63.526114 L 533.039102 61.678919 L 532.200196 59.873532 L 531.212841 58.144854 L 530.219175 56.419794 L 528.961034 54.876989 L 527.665245 53.365661 L 526.251868 51.963761 L 524.683007 50.738249 L 523.111207 49.516555 L 521.444329 48.428108 L 519.764384 47.359983 L 518.008137 46.422742 L 516.157300 45.689527 L 514.303771 44.963527 L 512.367679 44.500126 L 510.422659 44.075877 L 508.455477 43.770840 L 506.468222 43.652438 L 504.480797 43.538796 L 502.492352 43.635132 L 500.505744 43.763640 L 498.527175 43.983240 L 496.570244 44.348787 L 494.614012 44.717408 L 492.706855 45.288325 L 490.809021 45.889464 L 488.935881 46.563524 L 487.109395 47.355455 L 485.283645 48.148925 L 483.520383 49.073103 L 481.767653 50.017088 L 480.041960 51.009599 L 478.365532 52.083282 L 476.689873 53.158091 L 475.078735 54.327465 L 473.478971 55.512345 L 471.902536 56.728075 L 470.369495 57.998110 L 468.837067 59.268855 L 467.356894 60.600129 L 465.886715 61.942430 L 464.435999 63.305731 L 463.023272 64.708374 L 461.610739 66.111211 L 460.215254 67.531009 L 458.823438 68.954401 L 457.448815 70.394397 L 456.109882 71.867646 L 454.771305 73.341212 L 453.465286 74.843715 L 452.166769 76.352707 L 450.879577 77.871367 L 449.617324 79.410823 L 448.355348 80.950501 L 447.119635 82.511340 L 445.890537 84.077392 L 444.670776 85.650726 L 443.472982 87.240850 L 442.275419 88.831145 L 441.100904 90.438540 L 439.932703 92.050530 L 438.771884 93.667842 L 437.629667 95.298346 L 436.487618 96.928967 L 435.363220 98.571810 L 434.244072 100.218234 L 433.130735 101.868592 L 432.033140 103.529462 L 430.935666 105.190412 L 429.851640 106.860170 L 428.771942 108.532730 L 427.696126 110.207788 L 426.631653 111.890079 L 425.567257 113.572418 L 424.511995 115.260502 L 423.459904 116.950564 L 422.409825 118.641876 L 421.366113 120.337125 L 420.322431 122.032393 L 419.282587 123.730018 L 418.244177 125.428519 L 417.206334 127.127368 L 416.170444 128.827408 L 415.134552 130.527447 L 414.098376 132.227313 L 413.062083 133.927107 L 412.025113 135.626489 L 410.985607 137.324321 L 409.946072 139.022134 L 408.902139 140.717247 L 407.856305 142.411188 L 406.808545 144.103938 L 405.752887 145.791774 L 404.697174 147.479575 L 403.632933 149.162013 L 402.564755 150.841953 L 401.493890 152.520182 L 400.411265 154.190849 L 399.328502 155.861426 L 398.232417 157.523292 L 397.129763 159.180808 L 396.023115 160.835660 L 394.897656 162.477776 L 393.771939 164.119715 L 392.631014 165.751124 L 391.482087 167.376907 L 390.328337 168.999269 L 389.149898 170.603790 L 387.971049 172.208008 L 386.771658 173.796928 L 385.560789 175.377118 L 384.346786 176.954901 L 383.115099 178.518919 L 381.883082 180.082676 L 380.635478 181.634026 L 379.378579 183.177855 L 378.117288 184.718097 L 376.828423 186.235342 L 375.539053 187.752157 L 374.234479 189.255916 L 372.920279 190.751269 L 371.603480 192.244335 L 370.268092 193.720797 L 368.932350 195.196940 L 367.583969 196.661547 L 366.227071 198.118267 L 364.868017 199.572975 L 363.491018 201.010708 L 362.113695 202.448132 L 360.726555 203.876084 L 359.332376 205.297163 L 357.936813 206.716884 L 356.527428 208.122885 L 355.117811 209.528654 L 353.700396 210.926558 L 352.277034 212.318408 L 350.852824 213.709390 L 349.417924 215.089341 L 347.980176 216.466319 L 346.540042 217.840787 L 345.096807 219.212014 L 343.647023 220.576305 L 342.196935 221.940273 L 340.740608 223.297588 L 339.282506 224.652991 L 337.822638 226.006498 L 336.366943 227.364466 L 334.911538 228.722746 L 333.476755 230.102654 L 332.055793 231.496360 L 330.650044 232.905852 L 329.283123 234.352743 L 327.916798 235.800211 L 326.586392 237.281091 L 325.266764 238.771380 L 323.957989 240.271417 L 322.659882 241.780762" fill="none" stroke="black" stroke-width="2.000000" />
</svg>