<?xml version="1.0" encoding="utf-8" ?>
<svg baseProfile="full" height="171" version="1.1" viewBox="0,0,318,171" width="318" xmlns="http://www.w3.org/2000/svg" xmlns:ev="http://www.w3.org/2001/xml-events" xmlns:xlink="http://www.w3.org/1999/xlink">
	<path d="M 235.051788 11.669685 L 236.989825 11.547186 L 238.927971 11.667049 L 240.853899 11.908833 L 242.688509 12.542202 L 244.388591 13.479840 L 245.985415 14.584746 L 247.527550 15.764919 L 249.067867 16.947457 L 250.591519 18.151397 L 252.127564 19.339456 L 253.706464 20.469971 L 255.299585 21.580352 L 256.945583 22.610731 L 258.729676 23.377359 L 260.614238 23.845182 L 262.514923 24.243088 L 264.422528 24.606424 L 266.332083 24.959395 L 268.242799 25.306028 L 270.152648 25.657410 L 272.049717 26.072065 L 273.928263 26.563761 L 275.784243 27.134709 L 277.588092 27.852815 L 279.293852 28.779131 L 280.889586 29.884487 L 282.381524 31.126714 L 283.802473 32.450010 L 285.142814 33.854798 L 286.403938 35.331160 L 287.592381 36.866704 L 288.409009 38.624205 L 289.230510 40.383752 L 290.327960 41.983888 L 291.475857 43.550170 L 292.746690 45.018247 L 294.239009 46.260073 L 295.863972 47.323026 L 297.558292 48.268561 L 299.375469 48.944222 L 301.276638 49.339772 L 303.181861 49.715426 L 305.082223 50.113199 L 306.960223 50.604546 L 308.763701 51.314292 L 310.517915 52.118654 L 312.172712 53.104626 L 313.701598 54.274480 L 315.013527 55.668602 L 316.247253 57.150452" fill="none" stroke="black" stroke-width="1.000000" />
	<path d="M 235.051788 11.669685 L 234.024483 13.299096 L 233.151080 15.001418 L 232.318685 16.729743 L 231.884907 18.606801 L 231.581521 20.509460 L 231.365215 22.424028 L 231.216394 24.345067 L 231.119621 26.269418 L 231.078791 28.195747 L 231.098478 30.122490 L 231.154891 32.048471 L 231.272079 33.971773 L 231.404942 35.894059" fill="none" stroke="black" stroke-width="1.000000" />
	<path d="M 189.842850 135.497665 L 189.402936 137.136289 L 189.054329 138.796557 L 188.712873 140.458490 L 188.437117 142.132290 L 188.128280 143.800388 L 187.771835 145.459042 L 187.377831 147.109226 L 186.953737 148.751967 L 186.490789 150.384136 L 185.982920 152.002890 L 185.429415 153.606631 L 184.750927 155.160942 L 184.072372 156.715408" fill="none" stroke="black" stroke-width="1.000000" />
	<path d="M 235.690138 18.043768 L 235.923097 18.475101 L 236.156055 18.906435 L 236.389014 19.337768 L 236.622258 19.768946 L 236.856879 20.199377 L 237.091501 20.629808 L 237.326122 21.060239 L 237.557433 21.492427 L 237.782412 21.927976 L 238.007391 22.363524 L 238.232370 22.799073 L 238.440486 23.242561 L 238.632855 23.693462 L 238.825224 24.144364 L 239.017593 24.595265 L 239.189042 25.054286 L 239.351213 25.516907 L 239.513385 25.979529 L 239.675556 26.442150 L 239.806025 26.914540 L 239.932367 27.388203 L 240.058709 27.861865 L 240.179563 28.336710 L 240.259649 28.820347 L 240.339735 29.303983 L 240.419821 29.787620 L 240.488888 30.272648 L 240.531522 30.761013 L 240.574155 31.249378 L 240.616789 31.737743 L 240.640810 32.226978 L 240.643912 32.717190 L 240.647014 33.207403 L 240.650116 33.697616 L 240.627658 34.186962 L 240.591372 34.675840 L 240.555085 35.164717 L 240.518799 35.653595 L 240.465038 36.140793 L 240.407544 36.627632 L 240.350050 37.114472 L 240.292556 37.601311" fill="none" stroke="black" stroke-width="1.000000" />
	<path d="M 194.091228 109.325937 L 194.546968 109.120927 L 195.002708 108.915917 L 195.458448 108.710907 L 195.914056 108.505612 L 196.365102 108.290471 L 196.816147 108.075330 L 197.267193 107.860189 L 197.718247 107.645066 L 198.169539 107.430441 L 198.620830 107.215816 L 199.072121 107.001190 L 199.523657 106.787088 L 199.977656 106.578249 L 200.431654 106.369411 L 200.885652 106.160573 L 201.340135 105.952829 L 201.800002 105.757253 L 202.259869 105.561676 L 202.719736 105.366099 L 203.179975 105.171400 L 203.640294 104.976890 L 204.100614 104.782381 L 204.560933 104.587872 L 205.024320 104.400825 L 205.488374 104.215402 L 205.952428 104.029979 L 206.416482 103.844555 L 206.880243 103.658401 L 207.343943 103.472095 L 207.807644 103.285789 L 208.271344 103.099484 L 208.735450 102.914190 L 209.199627 102.729077 L 209.663805 102.543964 L 210.127983 102.358850 L 210.590168 102.168828 L 211.052036 101.978026 L 211.513905 101.787224 L 211.975773 101.596421 L 212.436762 101.403505 L 212.897611 101.210256 L 213.358461 101.017006 L 213.819311 100.823756 L 214.278553 100.626725 L 214.737539 100.429088 L 215.196524 100.231451 L 215.655509 100.033814 L 216.114201 99.835497 L 216.572843 99.637064 L 217.031485 99.438632 L 217.490127 99.240200 L 217.946560 99.036750 L 218.402598 98.832405 L 218.858636 98.628060 L 219.314675 98.423714 L 219.770972 98.219948 L 220.227320 98.016295 L 220.683668 97.812643 L 221.140016 97.608990 L 221.595795 97.404068 L 222.051450 97.198871 L 222.507106 96.993674 L 222.962761 96.788477 L 223.417895 96.582125 L 223.872902 96.375495 L 224.327910 96.168865 L 224.782918 95.962235 L 225.236629 95.752781 L 225.689991 95.542564 L 226.143353 95.332347 L 226.596714 95.122130 L 227.050333 94.912469 L 227.504031 94.702979 L 227.957729 94.493490 L 228.411427 94.284000 L 228.865047 94.074341 L 229.318639 93.864621 L 229.772231 93.654901 L 230.225823 93.445182 L 230.679585 93.235832 L 231.133416 93.026630 L 231.587246 92.817427 L 232.041077 92.608224 L 232.494894 92.398993 L 232.948705 92.189749 L 233.402517 91.980504 L 233.856328 91.771260 L 234.309905 91.561507 L 234.763361 91.351495 L 235.216817 91.141483 L 235.670274 90.931471 L 236.123285 90.720502 L 236.576038 90.508976 L 237.028790 90.297449 L 237.481542 90.085923 L 237.933313 89.872318 L 238.384426 89.657318 L 238.835539 89.442318 L 239.286652 89.227318 L 239.737555 89.011878 L 240.188291 88.796089 L 240.639027 88.580300 L 241.089763 88.364511 L 241.540752 88.149253 L 241.991981 87.934496 L 242.443210 87.719740 L 242.894439 87.504983 L 243.346205 87.291363 L 243.798580 87.079032 L 244.250956 86.866701 L 244.703331 86.654371 L 245.155976 86.442616 L 245.608987 86.231645 L 246.061998 86.020674 L 246.515010 85.809703 L 246.968995 85.600858 L 247.424590 85.395527 L 247.880186 85.190196 L 248.335781 84.984865 L 248.791764 84.780402 L 249.248511 84.577645 L 249.705257 84.374888 L 250.162004 84.172130 L 250.619212 83.970423 L 251.077479 83.771126 L 251.535746 83.571829 L 251.994013 83.372532 L 252.453516 83.176143 L 252.915022 82.984468 L 253.376529 82.792792 L 253.838036 82.601117 L 254.300787 82.412520 L 254.765850 82.229642 L 255.230913 82.046765 L 255.695977 81.863888 L 256.161623 81.682514 L 256.628470 81.504241 L 257.095317 81.325967 L 257.562164 81.147693 L 258.030179 80.972580 L 258.500863 80.804698 L 258.971547 80.636815 L 259.442231 80.468933 L 259.911503 80.297223 L 260.378517 80.119386 L 260.845531 79.941550 L 261.312545 79.763713 L 261.783569 79.596907 L 262.255762 79.433318 L 262.727955 79.269728 L 263.200149 79.106139 L 263.678071 78.960357 L 264.157062 78.817894 L 264.636053 78.675431 L 265.115044 78.532968 L 265.598169 78.405379 L 266.081974 78.280236 L 266.565778 78.155092 L 267.049583 78.029948 L 267.537099 77.920288 L 268.025060 77.812484 L 268.513022 77.704680 L 269.002080 77.602122 L 269.492367 77.505446 L 269.982654 77.408770 L 270.472941 77.312093 L 270.966442 77.234385 L 271.461213 77.164177 L 271.955985 77.093969 L 272.450756 77.023761 L 272.947128 76.966259 L 273.443855 76.911579 L 273.940583 76.856899 L 274.437377 76.803082 L 274.936593 76.780468 L 275.435809 76.757853 L 275.935024 76.735239 L 276.434249 76.712826 L 276.933509 76.691207 L 277.432769 76.669589 L 277.932029 76.647970 L 278.431470 76.632754 L 278.931154 76.626130 L 279.430838 76.619505 L 279.930522 76.612881 L 280.429692 76.592218 L 280.928523 76.562299 L 281.427355 76.532379 L 281.926186 76.502459 L 282.425501 76.482970 L 282.924960 76.466592 L 283.424420 76.450215 L 283.923879 76.433837 L 284.422937 76.408113 L 284.921962 76.381622 L 285.420988 76.355130 L 285.920028 76.328955 L 286.419283 76.307225 L 286.918538 76.285496 L 287.417793 76.263766 L 287.916948 76.240026 L 288.415868 76.211626 L 288.914788 76.183226 L 289.413708 76.154826 L 289.913102 76.145391 L 290.412818 76.148856 L 290.912534 76.152321 L 291.412249 76.155785 L 291.911970 76.154815 L 292.411693 76.152555 L 292.911416 76.150295 L 293.411139 76.148034 L 293.910862 76.145894 L 294.410585 76.143759 L 294.910308 76.141624 L 295.409837 76.134780 L 295.908036 76.095712 L 296.406234 76.056643 L 296.904432 76.017574 L 297.401557 75.968879 L 297.896118 75.897207 L 298.390679 75.825535 L 298.885241 75.753863 L 299.379813 75.682265 L 299.874401 75.610774 L 300.368988 75.539283 L 300.863576 75.467792 L 301.351261 75.364772 L 301.830482 75.223083 L 302.309702 75.081393 L 302.788922 74.939703 L 303.263980 74.784998 L 303.736504 74.622367 L 304.209028 74.459736 L 304.681553 74.297105 L 305.144753 74.110663 L 305.602074 73.909205 L 306.059396 73.707747 L 306.516421 73.505841 L 306.881510 73.164611 L 307.246599 72.823381 L 307.611689 72.482152 L 307.976778 72.140922 L 308.341908 71.799736 L 308.707047 71.458560 L 309.072187 71.117384 L 309.437327 70.776208 L 309.784871 70.417717 L 310.120158 70.047162 L 310.455444 69.676607 L 310.790730 69.306052 L 311.114715 68.926085 L 311.418496 68.529291 L 311.722276 68.132497 L 312.026056 67.735703 L 312.325605 67.335937 L 312.595884 66.915607 L 312.866162 66.495277 L 313.406720 65.654617" fill="none" stroke="black" stroke-width="1.000000" />
	<path d="M 222.347032 45.622282 L 222.328857 46.121950 L 222.310681 46.621619 L 222.292506 47.121287 L 222.272516 47.620869 L 222.242840 48.119987 L 222.213164 48.619104 L 222.183488 49.118222 L 222.147992 49.616884 L 222.099776 50.114553 L 222.051561 50.612222 L 222.003345 51.109891 L 221.946770 51.606597 L 221.880661 52.102206 L 221.814552 52.597816 L 221.748443 53.093425 L 221.674271 53.587851 L 221.595164 54.081552 L 221.516058 54.575253 L 221.436951 55.068955 L 221.350396 55.561388 L 221.261668 56.053451 L 221.172941 56.545515 L 221.084213 57.037578 L 220.981959 57.526994 L 220.878647 58.016203 L 220.775335 58.505413 L 220.670843 58.994353 L 220.552464 59.480137 L 220.434084 59.965920 L 220.315705 60.451703 L 220.193909 60.936597 L 220.060502 61.418470 L 219.927095 61.900343 L 219.793688 62.382216 L 219.655054 62.862559 L 219.507677 63.340345 L 219.360300 63.818130 L 219.212923 64.295916 L 219.060448 64.772071 L 218.903270 65.246722 L 218.746091 65.721374 L 218.588912 66.196025 L 218.428721 66.669663 L 218.267016 67.142791 L 218.105311 67.615919 L 217.943606 68.089048 L 217.777284 68.560568 L 217.610156 69.031808 L 217.443028 69.503048 L 217.275544 69.974160 L 217.103181 70.443511 L 216.930819 70.912861 L 216.758456 71.382212 L 216.586641 71.851762 L 216.416259 72.321836 L 216.245878 72.791909 L 216.075497 73.261983 L 215.900423 73.730297 L 215.719807 74.196534 L 215.539191 74.662771 L 215.358574 75.129008 L 215.174791 75.593997 L 214.989014 76.058202 L 214.803238 76.522407 L 214.617461 76.986611 L 214.420456 77.446114 L 214.220022 77.904181 L 214.019589 78.362248 L 213.819156 78.820315 L 213.596106 79.267753 L 213.371369 79.714399 L 213.146632 80.161045 L 212.920368 80.606873 L 212.673657 81.041767 L 212.426946 81.476661 L 212.180236 81.911555 L 211.930835 82.344869 L 211.671018 82.772062 L 211.411201 83.199255 L 211.151384 83.626449 L 210.887655 84.051189 L 210.616310 84.471154 L 210.344964 84.891119 L 210.073619 85.311084 L 209.797170 85.727657 L 209.515027 86.140445 L 209.232883 86.553233 L 208.950740 86.966022 L 208.663015 87.374902 L 208.371650 87.781233 L 208.080285 88.187565 L 207.788920 88.593897 L 207.492303 88.996391 L 207.193817 89.397521 L 206.895332 89.798652 L 206.596847 90.199782 L 206.291427 90.595643 L 205.984960 90.990709 L 205.678493 91.385775 L 205.372026 91.780840" fill="none" stroke="black" stroke-width="1.000000" />
	<path d="M 209.515870 72.793385 L 209.228230 73.199665 L 208.940590 73.605945 L 208.652951 74.012225 L 208.365120 74.418369 L 208.073168 74.821562 L 207.781217 75.224754 L 207.489265 75.627947 L 207.197082 76.030971 L 206.902497 76.432244 L 206.607912 76.833516 L 206.313327 77.234789 L 206.018364 77.635782 L 205.720902 78.034927 L 205.423439 78.434071 L 205.125976 78.833215 L 204.827820 79.231837 L 204.526389 79.627992 L 204.224957 80.024148 L 203.923525 80.420303 L 203.621065 80.815666 L 203.314927 81.208196 L 203.008788 81.600725 L 202.702650 81.993255 L 202.395332 82.384853 L 202.084699 82.773836 L 201.774066 83.162818 L 201.463433 83.551800 L 201.151278 83.939551 L 200.835679 84.324515 L 200.520080 84.709479 L 200.204481 85.094443 L 199.887693 85.478424 L 199.568705 85.860584 L 199.249717 86.242745 L 198.930729 86.624906 L 198.609929 87.005535 L 198.286368 87.383832 L 197.962808 87.762129 L 197.639247 88.140426 L 197.313287 88.516641 L 196.984291 88.890220 L 196.655295 89.263800 L 196.326299 89.637380 L 195.995676 90.009514 L 195.663326 90.380112 L 195.330975 90.750711 L 194.998625 91.121309 L 194.664173 91.490003 L 194.327849 91.856999 L 193.991526 92.223996 L 193.655202 92.590993 L 193.316518 92.955802 L 192.976069 93.318975 L 192.635620 93.682148 L 192.295172 94.045321 L 191.952614 94.406498 L 191.608739 94.766429 L 191.264865 95.126360 L 190.920990 95.486292 L 190.573737 95.842948 L 190.224736 96.197911 L 189.875735 96.552873 L 189.526734 96.907836 L 189.174270 97.259346 L 188.820339 97.609392 L 188.466408 97.959439 L 188.112476 98.309486 L 187.755695 98.656619 L 187.397943 99.002760 L 187.040191 99.348901 L 186.682439 99.695042 L 186.320817 100.037126 L 185.958158 100.378122 L 185.595499 100.719119 L 185.232840 101.060115 L 184.866177 101.396793 L 184.498700 101.732591 L 184.131223 102.068390 L 183.763746 102.404188 L 183.392128 102.735389 L 183.019906 103.065922 L 182.647685 103.396454 L 182.275464 103.726986 L 181.901969 104.056078 L 181.528356 104.385036 L 181.154743 104.713993 L 180.781130 105.042951 L 180.405472 105.369572 L 180.029722 105.696087 L 179.278223 106.349118" fill="none" stroke="black" stroke-width="1.000000" />
	<path d="M 233.847565 48.638790 L 233.597328 50.574935 L 233.390158 52.515169 L 233.258336 54.460458 L 233.169582 56.409713 L 233.280929 58.358440 L 233.552792 60.291022 L 234.025430 62.182588 L 234.791054 63.978355 L 235.642051 65.734918 L 236.624303 67.420466 L 237.790022 68.985577 L 239.084514 70.445882 L 240.503661 71.785191 L 242.042745 72.985311 L 243.675649 74.053975 L 245.401996 74.964748 L 247.194389 75.737675 L 249.041816 76.367906 L 250.935271 76.843359 L 252.851928 77.214419 L 254.788391 77.462876 L 256.733657 77.629189" fill="none" stroke="black" stroke-width="1.000000" />
	<path d="M 233.847565 48.638790 L 233.238290 50.310273 L 232.630941 51.982457 L 232.022762 53.654337 L 231.428445 55.331179 L 230.870076 57.020125 L 230.387576 58.731527 L 230.047468 60.474325 L 229.900162 62.245126 L 229.922279 64.022966 L 230.087370 65.793916 L 230.375459 67.549501" fill="none" stroke="black" stroke-width="1.000000" />
	<path d="M 182.217338 133.926068 L 182.408731 135.814471 L 182.644642 137.697804 L 182.944464 139.571941 L 183.327077 141.430749 L 183.793355 143.270229 L 184.342876 145.086428 L 184.961817 146.880367 L 185.640733 148.652521 L 186.378385 150.401079 L 187.185019 152.119116 L 187.991669 153.837189" fill="none" stroke="black" stroke-width="1.000000" />
	<path d="M 152.588855 51.681610 L 152.048896 53.539228 L 151.170339 55.262493 L 150.618275 57.116158 L 150.074579 58.972686 L 149.487515 60.815946 L 148.912811 62.663108 L 148.323275 64.505590 L 147.714999 66.341968 L 147.094447 68.174236 L 146.456423 70.000491 L 145.808374 71.823216 L 145.147968 73.641499 L 144.481144 75.457441 L 143.828444 77.278502 L 143.189542 79.104450 L 142.539965 80.926629 L 141.880501 82.745254 L 141.228310 84.566500 L 140.552337 86.379035 L 139.851560 88.182128 L 139.171072 89.992975 L 138.506206 91.809629 L 137.859346 93.632769 L 137.229164 95.461742 L 136.620911 97.298120 L 136.026345 99.138983 L 135.462465 100.989457 L 134.944241 102.853212 L 134.467463 104.728011 L 134.049574 106.616785 L 133.747305 108.527295 L 133.474060 110.441712 L 133.248710 112.362208 L 133.052399 114.286530" fill="none" stroke="black" stroke-width="1.000000" />
	<path d="M 133.052399 114.286530 L 134.325793 115.726978 L 135.750079 117.018368 L 137.198727 118.282122 L 138.833157 119.294509 L 140.524131 120.209189 L 142.308578 120.924822 L 144.128477 121.544816 L 145.975766 122.077685 L 147.838231 122.554797 L 149.708089 123.002064 L 151.575889 123.457857 L 153.447136 123.899280 L 155.325719 124.308336 L 157.215118 124.664033 L 159.111615 124.979749 L 161.001444 125.333185 L 162.881918 125.733388 L 164.761586 126.137455 L 166.639642 126.548951 L 168.510460 126.992145 L 170.370134 127.479948 L 172.220025 128.003662 L 174.063220 128.550504 L 175.896080 129.131024 L 177.714562 129.755106 L 179.519300 130.417899 L 181.321645 131.087209 L 183.105626 131.803989 L 184.823888 132.665014 L 186.527109 133.553227 L 188.192509 134.511856 L 189.842850 135.497665" fill="none" stroke="black" stroke-width="1.000000" />
	<path d="M 92.989225 52.843580 L 93.371737 54.793796 L 93.758568 56.743160 L 94.145828 58.692438 L 94.531721 60.641988 L 94.919028 62.591258 L 95.300551 64.541667 L 95.670334 66.494337 L 96.026744 68.449491 L 96.367697 70.407401 L 96.691743 72.368179 L 96.996860 74.331992 L 97.281952 76.298812 L 97.547030 78.268429 L 97.787444 80.241208 L 98.000073 82.217175 L 98.186064 84.195827 L 98.346355 86.176727 L 98.488450 88.159015 L 98.600023 90.143255 L 98.684915 92.128816 L 98.746082 94.115249 L 98.784595 96.102250 L 98.795477 98.089595 L 98.773160 100.076844 L 98.703803 102.063007 L 98.628748 104.048964 L 98.509752 106.032772 L 98.307808 108.009859 L 98.015993 109.975692 L 97.636635 111.926524 L 97.187237 113.862421 L 96.637639 115.772289 L 95.970141 117.644212 L 95.184976 119.469907 L 94.280188 121.239373 L 93.304903 122.970984 L 92.298370 124.684618 L 91.238723 126.365930 L 90.187731 128.052660 L 89.049771 129.681984 L 87.842852 131.260909 L 86.648821 132.849602 L 85.490264 134.464347 L 84.364962 136.102414 L 83.237563 137.739052 L 82.189562 139.425655 L 81.177553 141.131295 L 80.234500 142.880207 L 79.329536 144.649582" fill="none" stroke="black" stroke-width="1.000000" />
	<path d="M 79.329536 144.649582 L 80.842647 145.441994 L 82.353902 146.237938 L 83.866343 147.031626 L 85.365982 147.849232 L 86.846347 148.701219 L 88.300520 149.597153 L 89.718577 150.549186 L 91.091084 151.565777 L 92.432458 152.623169 L 93.714685 153.751081 L 94.996918 154.878998" fill="none" stroke="black" stroke-width="1.000000" />
	<path d="M 48.017452 150.384232 L 49.822257 150.596249 L 51.629820 150.783231 L 53.442753 150.906746 L 55.257438 151.002278 L 57.074006 151.046730 L 58.890598 151.094047 L 60.706856 151.152855 L 62.522714 151.222893 L 64.338366 151.298214 L 66.153742 151.379885 L 67.968552 151.473107 L 69.782187 151.586476 L 71.594186 151.723538 L 73.404519 151.881242 L 75.213138 152.057520 L 77.020119 152.249975 L 78.825651 152.455602 L 80.629902 152.672235 L 82.433016 152.898117 L 84.234550 153.136227 L 86.033911 153.390179 L 87.830273 153.664530 L 89.623276 153.960131 L 91.414675 154.265332 L 93.205539 154.573674 L 94.996918 154.878998" fill="none" stroke="black" stroke-width="1.000000" />
	<path d="M 55.375622 168.960938 L 53.517690 169.070152 L 51.660246 169.187359 L 49.802186 169.294337 L 47.944577 169.408895 L 46.086953 169.523227 L 44.228584 169.624670 L 42.369374 169.709252 L 40.509490 169.777444 L 38.649120 169.830769 L 36.788419 169.870900 L 34.927475 169.897450 L 33.066364 169.905647 L 31.205290 169.892072 L 29.344377 169.863498 L 27.483505 169.832032 L 25.622593 169.803016 L 23.761775 169.768511 L 21.901506 169.712101 L 20.040619 169.683084 L 18.179821 169.647595 L 16.319021 169.612127 L 14.458231 169.576081 L 12.597428 169.540776 L 10.736524 169.511932 L 8.875622 169.483002" fill="none" stroke="black" stroke-width="1.000000" />
	<path d="M 55.375622 168.960938 L 53.745662 168.011221 L 52.082046 167.129271 L 50.393398 166.290306 L 48.611166 165.670007 L 46.789038 165.179155 L 44.934372 164.830829 L 43.061674 164.598234 L 41.177989 164.484825 L 39.290915 164.473830 L 37.405206 164.546442 L 35.525539 164.713611 L 33.675727 165.086993" fill="none" stroke="black" stroke-width="1.000000" />
	<path d="M 133.467391 22.938735 L 132.984721 23.062102 L 132.502050 23.185470 L 132.019380 23.308837 L 131.536866 23.432803 L 131.055801 23.562290 L 130.574736 23.691776 L 130.093671 23.821263 L 129.611395 23.945765 L 129.124565 24.051532 L 128.637734 24.157298 L 128.150904 24.263064 L 127.663549 24.366320 L 127.175081 24.464243 L 126.686613 24.562166 L 126.198144 24.660090 L 125.708932 24.754131 L 125.218847 24.843609 L 124.728761 24.933086 L 124.238675 25.022564 L 123.747882 25.107998 L 123.256536 25.190276 L 122.765190 25.272554 L 122.273844 25.354832 L 121.781541 25.431042 L 121.288746 25.504143 L 120.795951 25.577245 L 120.303157 25.650346 L 119.809322 25.715914 L 119.315161 25.779119 L 118.820999 25.842324 L 118.326838 25.905529 L 117.831514 25.958707 L 117.336004 26.010289 L 116.840494 26.061870 L 116.344985 26.113451 L 115.848547 26.155117 L 115.352075 26.196421 L 114.855603 26.237725 L 114.359095 26.278551 L 113.862085 26.312774 L 113.365075 26.346997 L 112.868065 26.381220 L 112.371657 26.422692 L 111.875813 26.470955 L 111.379969 26.519218 L 110.884126 26.567481 L 110.387542 26.606975 L 109.890619 26.642443 L 109.393697 26.677910 L 108.896774 26.713378 L 108.399120 26.735336 L 107.901271 26.753685 L 107.403422 26.772033 L 106.905573 26.790381 L 106.407894 26.812837 L 105.910236 26.835789 L 104.914920 26.881694" fill="none" stroke="black" stroke-width="1.000000" />
	<path d="M 153.882751 48.036771 L 154.047623 47.568033 L 154.212495 47.099295 L 154.377367 46.630558 L 154.545704 46.163057 L 154.715098 45.695935 L 154.884492 45.228812 L 155.062184 44.764812 L 155.242816 44.301919 L 155.423449 43.839026 L 155.611121 43.379032 L 155.808869 42.923189 L 156.006618 42.467345 L 156.204366 42.011501 L 156.413587 41.560974 L 156.633531 41.115415 L 156.853476 40.669856 L 157.073420 40.224298 L 157.306732 39.785750 L 157.548226 39.351494 L 157.789721 38.917238 L 158.031215 38.482982 L 158.285475 38.056173 L 158.544670 37.632244 L 158.803864 37.208314 L 159.063058 36.784385 L 159.335571 36.368957 L 159.611009 35.955397 L 159.886446 35.541837 L 160.161884 35.128277 L 160.447828 34.721928 L 160.734709 34.316222 L 161.021590 33.910516 L 161.308628 33.504924 L 161.605867 33.106744 L 161.903105 32.708565 L 162.200344 32.310385 L 162.498884 31.913207 L 162.807887 31.524086 L 163.116891 31.134966 L 163.425894 30.745845 L 163.737624 30.358968 L 164.059941 29.980801 L 164.382258 29.602635 L 164.704575 29.224469 L 165.029795 28.848843 L 165.361914 28.479256 L 165.694033 28.109668 L 166.026152 27.740081 L 166.361010 27.373003 L 166.700220 27.009912 L 167.039429 26.646821 L 167.378638 26.283731 L 167.722631 25.925236 L 168.071891 25.571802 L 168.421151 25.218368 L 168.770411 24.864935 L 169.122465 24.514301 L 169.476675 24.165828 L 169.830884 23.817354 L 170.185093 23.468881 L 170.546748 23.128232 L 170.912359 22.791740 L 171.277970 22.455248 L 171.643580 22.118757 L 172.018206 21.792430 L 172.395995 21.469671 L 172.773783 21.146911 L 173.151572 20.824152 L 173.536275 20.509704 L 173.922430 20.197002 L 174.308584 19.884301 L 174.694739 19.571599 L 175.080710 19.258670 L 175.466663 18.945719 L 175.852616 18.632769 L 176.238569 18.319818" fill="none" stroke="black" stroke-width="1.000000" />
	<path d="M 232.237015 18.041241 L 230.255511 18.093634 L 228.273315 18.093855 L 226.294836 17.972567 L 224.327794 17.728000 L 222.385451 17.332581 L 220.472679 16.812643 L 218.595353 16.176469 L 216.746777 15.461028 L 214.919041 14.693903 L 213.103385 13.898606 L 211.292063 13.093488 L 209.479298 12.291626 L 207.659339 11.506225 L 205.832338 10.737351 L 203.993780 9.996536 L 202.142536 9.288023 L 200.273916 8.626700 L 198.384135 8.028534 L 196.472274 7.505230 L 194.549287 7.024383 L 192.600223 6.663638 L 190.644449 6.341092 L 188.680231 6.074785 L 186.705153 5.907281 L 184.724869 5.820677 L 182.745151 5.721608 L 180.764401 5.645934 L 178.782686 5.602472 L 176.800497 5.602332 L 174.819574 5.672733 L 172.840452 5.782955 L 170.864620 5.941511 L 168.896193 6.174488 L 166.937409 6.478053 L 164.988720 6.840861 L 163.051882 7.262373 L 161.130366 7.748959 L 159.226339 8.300015 L 157.345235 8.924818 L 155.487458 9.615922 L 153.645549 10.348328 L 151.806563 11.088079 L 149.955127 11.796066 L 148.084723 12.452258 L 146.193199 13.044778 L 144.277391 13.553207 L 142.339397 13.969078 L 140.384195 14.294605 L 138.410424 14.474816 L 136.429272 14.428979 L 134.462739 14.183335 L 132.511336 13.835840 L 130.567370 13.448490 L 128.627026 13.043329 L 126.688863 12.627848 L 124.752812 12.202640 L 122.819332 11.765889 L 120.889436 11.313568 L 118.962256 10.849809 L 117.041411 10.360503 L 115.128206 9.842136 L 113.212715 9.332243 L 111.293726 8.835679 L 109.367897 8.366380 L 107.435447 7.925137 L 105.499713 7.498493 L 103.560508 7.087919 L 101.619748 6.684744 L 99.677266 6.289951 L 97.734991 5.894139 L 95.796949 5.478122 L 93.865508 5.032502 L 91.942682 4.551090 L 90.025462 4.047763 L 88.113362 3.525315 L 86.199363 3.009851 L 84.265395 2.575874 L 82.308949 2.258974 L 80.335110 2.080929 L 78.353513 2.052087 L 76.372565 2.118274 L 74.392251 2.204552 L 72.413090 2.314015 L 70.436959 2.468454 L 68.463948 2.658825 L 66.494241 2.880815 L 64.527535 3.128048 L 62.563708 3.397215 L 60.606432 3.710272 L 58.660664 4.088071 L 56.728418 4.529871 L 54.811485 5.033992 L 52.908974 5.590163 L 51.024528 6.204696 L 49.161947 6.882569 L 47.315533 7.603469 L 45.485260 8.364420 L 43.672633 9.166486 L 41.879219 10.010631 L 40.105072 10.894561 L 38.349824 11.815461 L 36.618593 12.780708 L 34.914669 13.793362 L 33.236647 14.848408 L 31.581873 15.939581 L 29.952066 17.067695 L 28.369461 18.260919 L 26.846674 19.529503 L 25.368011 20.849451 L 23.937653 22.221556 L 22.566643 23.652890 L 21.254933 25.138784 L 20.003295 26.675627 L 18.824710 28.269095 L 17.729326 29.920810 L 16.720366 31.626692 L 15.804857 33.384460 L 14.985970 35.189265 L 14.258474 37.032859 L 13.624964 38.910811 L 13.089055 40.818895 L 12.646527 42.750808 L 12.296402 44.701592 L 12.049605 46.668053 L 11.885856 48.643294 L 11.836066 50.624470 L 11.876202 52.606054 L 12.008264 54.583601 L 12.272154 56.547603 L 12.642739 58.494536 L 13.123311 60.417208 L 13.666339 62.323473 L 14.258792 64.214981 L 14.900979 66.090182 L 15.565394 67.957697 L 16.302364 69.797555 L 17.102563 71.610913 L 17.967885 73.394080 L 18.907752 75.139034 L 19.904097 76.852492 L 20.952577 78.534556 L 22.050207 80.184978 L 23.168545 81.821552 L 24.288583 83.456978 L 25.471548 85.047150 L 26.713769 86.591601 L 27.981625 88.115266 L 29.253205 89.635853 L 30.543509 91.140550 L 31.823314 92.654201 L 33.084903 94.183063 L 34.317710 95.735185 L 35.516891 97.313418 L 36.671951 98.924164 L 37.772563 100.572537 L 38.800702 102.266924 L 39.760853 104.000825 L 40.648049 105.773120 L 41.469323 107.576982 L 42.228827 109.407731 L 42.903747 111.271149 L 43.501113 113.160961 L 44.001548 115.078541 L 44.469807 117.003488 L 44.875347 118.942424 L 45.228932 120.891904 L 45.530181 122.850651 L 45.769725 124.817327 L 45.937759 126.789813 L 46.041971 128.767484 L 46.087823 130.748929 L 46.108857 132.730994 L 46.125659 134.713118 L 46.162681 136.694818 L 46.230405 138.675095 L 46.346713 140.653039 L 46.499740 142.629003 L 46.726718 144.597359 L 47.059220 146.545661 L 47.489148 148.474450 L 48.017452 150.384232" fill="none" stroke="black" stroke-width="1.000000" />
	<path d="M 12.116404 55.568050 L 11.728443 57.495771 L 11.353859 59.426136 L 11.020926 61.364117 L 10.724478 63.308013 L 10.512257 65.262888 L 10.327227 67.220534 L 10.196197 69.182529 L 10.164652 71.148621 L 10.203310 73.114598 L 10.315322 75.077758 L 10.482505 77.036998 L 10.709323 78.990229 L 10.991734 80.936200 L 11.330079 82.873227 L 11.720471 84.800441 L 12.158802 86.717320 L 12.640105 88.623866 L 13.154730 90.521693 L 13.698227 92.411457 L 14.266623 94.293882 L 14.862392 96.167823 L 15.481454 98.034199 L 16.118709 99.894445 L 16.769681 101.749937 L 17.425615 103.603682 L 18.074192 105.460013 L 18.704999 107.322454 L 19.312767 109.192538 L 19.893913 111.071062 L 20.433114 112.962037 L 20.903722 114.871194 L 21.295797 116.797994 L 21.607952 118.739340 L 21.827071 120.693339 L 21.965388 122.654748 L 22.051701 124.619188 L 22.059688 126.585448 L 21.982857 128.550208 L 21.837274 130.511112 L 21.619048 132.465252 L 21.334599 134.410870 L 20.997692 136.348121 L 20.623199 138.278480 L 20.209259 140.200762 L 19.747787 142.112178 L 19.234166 144.010236 L 18.678990 145.896578 L 18.083890 147.770709 L 17.451717 149.632667 L 16.775601 151.479112 L 16.051851 153.307406 L 15.267017 155.110298 L 14.448889 156.898378 L 13.641888 158.691519 L 12.836842 160.485542 L 12.038681 162.282602 L 11.219921 164.070341 L 10.445612 165.877771 L 9.642751 167.672452 L 8.875622 169.483002" fill="none" stroke="black" stroke-width="1.000000" />
	<path d="M 42.023876 164.494095 L 43.201991 163.038435 L 44.393756 161.593930 L 45.599242 160.160858 L 46.856806 158.773343 L 48.166065 157.434514 L 49.534222 156.155988 L 50.959231 154.941140 L 52.434079 153.787253 L 53.954800 152.694499 L 55.538782 151.696217 L 57.122784 150.697922" fill="none" stroke="black" stroke-width="1.000000" />
	<path d="M 11.819540 50.583008 L 10.290968 51.729826 L 8.885026 53.004719 L 7.499841 54.309689 L 6.231161 55.738553 L 5.089989 57.270908 L 4.097311 58.903127 L 3.269750 60.624979 L 2.642646 62.423015 L 2.471856 64.323280 L 2.637471 66.225859 L 3.048625 68.092175 L 3.575716 69.929350 L 4.149925 71.752370" fill="none" stroke="black" stroke-width="1.000000" />
	<path d="M 285.592951 49.875489 L 285.138851 50.066873 L 284.684750 50.258256 L 284.230650 50.449639 L 283.775838 50.639277 L 283.317462 50.820180 L 282.859085 51.001083 L 282.400709 51.181985 L 281.945012 51.369280 L 281.494666 51.569337 L 281.044320 51.769394 L 280.593974 51.969452 L 280.151453 52.185538 L 279.716726 52.417586 L 279.281998 52.649634 L 278.847270 52.881681 L 278.425985 53.136640 L 278.011379 53.402978 L 277.596773 53.669317 L 277.182167 53.935656 L 276.781490 54.222313 L 276.383577 54.513001 L 275.587750 55.094376" fill="none" stroke="black" stroke-width="1.000000" />
	<path d="M 231.869121 95.415664 L 231.285058 97.218765 L 230.685568 99.016794 L 230.085401 100.814600 L 229.502977 102.618222 L 228.904731 104.416656 L 228.274178 106.203983 L 227.617115 107.981753 L 226.956439 109.758214 L 226.310956 111.540230 L 225.674546 113.325525 L 225.036096 115.110092 L 224.393466 116.893159 L 223.751298 118.676393 L 223.115919 120.462051 L 222.496294 122.253212 L 221.885019 124.047271 L 221.271212 125.840463 L 220.650830 127.631388 L 220.024444 129.420225 L 219.399147 131.209442 L 218.775874 132.999367 L 218.148175 134.787743 L 217.507010 136.571297 L 216.841372 138.345850 L 216.149076 140.110171 L 215.413812 141.856789 L 214.648031 143.590537 L 213.894428 145.329566 L 213.147382 147.071465 L 212.398651 148.812644 L 211.657563 150.557082 L 210.942416 152.312253 L 210.237029 154.071424 L 209.518494 155.825250 L 208.837872 157.594008 L 208.144119 159.357376" fill="none" stroke="black" stroke-width="1.000000" />
	<path d="M 185.595505 100.719116 L 186.579310 102.414913 L 187.594550 104.092080 L 188.657963 105.739123 L 189.775051 107.350244 L 190.916351 108.944307 L 192.112661 110.497508 L 193.335903 112.029591 L 194.572985 113.550521 L 195.795409 115.083256 L 197.006420 116.625025 L 198.199871 118.180427 L 199.368074 119.754877 L 200.509834 121.348609 L 201.595743 122.980897 L 202.553345 124.691575 L 203.391652 126.463774 L 204.151159 128.271170 L 204.849516 130.103070 L 205.475737 131.960860 L 205.976484 133.856292 L 206.084393 135.813399 L 205.719568 137.739130 L 205.064586 139.586785 L 204.077904 141.280609 L 202.891739 142.841443 L 201.579617 144.298067 L 200.209387 145.700218 L 198.720366 146.975455 L 197.224904 148.243206 L 195.702299 149.478223 L 194.143058 150.666647 L 192.546442 151.804364 L 190.915149 152.891778 L 189.229880 153.892835 L 187.529085 154.865526 L 185.808493 155.804650 L 184.072372 156.715408" fill="none" stroke="black" stroke-width="1.000000" />
	<path d="M 187.991669 153.837189 L 188.556122 155.572109 L 189.124844 157.305634 L 189.690519 159.040156 L 190.273717 160.768852 L 190.854427 162.498398 L 191.418186 164.233535 L 191.929230 165.984870 L 192.451875 167.732764 L 192.974518 169.480652" fill="none" stroke="black" stroke-width="1.000000" />
	<path d="M 208.144119 159.357376 L 209.790934 160.139987 L 211.465114 160.862195 L 213.162535 161.527945 L 214.912352 162.040187 L 216.679213 162.490336 L 218.457113 162.894707 L 220.230935 163.316638 L 221.994278 163.780392 L 223.750796 164.269380 L 225.501709 164.778081 L 227.243873 165.315976 L 228.976322 165.884385 L 230.698292 166.483794 L 232.397111 167.145538 L 234.095932 167.807281" fill="none" stroke="black" stroke-width="1.000000" />
	<path d="M 192.974518 169.480652 L 194.846097 169.490128 L 196.717700 169.489345 L 198.588835 169.449210 L 200.459682 169.396103 L 202.329051 169.306110 L 204.197282 169.194066 L 206.064222 169.062343 L 207.930154 168.916859 L 209.794993 168.758032 L 211.658930 168.588857 L 213.523992 168.433196 L 215.390953 168.301930 L 217.259126 168.188952 L 219.128088 168.089738 L 220.997649 168.002552 L 222.867802 167.929378 L 224.738606 167.876040 L 226.609978 167.849168 L 228.481578 167.845560 L 230.353177 167.846258 L 232.224541 167.825218 L 234.095932 167.807281" fill="none" stroke="black" stroke-width="1.000000" />
	<path d="M 92.875885 123.720779 L 94.592191 124.572160 L 96.345949 125.343448 L 98.092337 126.131283 L 99.887886 126.799533 L 101.728159 127.332397 L 103.588833 127.788927 L 105.466377 128.170146 L 107.355029 128.491858 L 109.252686 128.755277 L 111.157239 128.963025 L 113.066516 129.121618 L 114.978415 129.244731 L 116.892018 129.337719 L 118.806790 129.402313 L 120.722334 129.437055 L 122.638183 129.443107 L 124.553823 129.414549 L 126.468494 129.347445 L 128.380968 129.234002 L 130.289262 129.064390 L 132.191467 128.836426 L 134.088971 128.571929 L 135.982240 128.278597 L 137.870817 127.956440 L 139.756553 127.618000 L 141.638264 127.257868 L 143.515133 126.873304 L 145.385111 126.456537 L 147.249314 126.014632 L 149.104953 125.538141 L 150.962044 125.067243 L 152.817211 124.588865 L 154.673828 124.116081" fill="none" stroke="black" stroke-width="1.000000" />
	<path d="M 264.374555 44.441954 L 264.820987 44.216946 L 265.267419 43.991938 L 265.713851 43.766930 L 266.160295 43.541945 L 266.606812 43.317106 L 267.053329 43.092266 L 267.499846 42.867427 L 267.973190 42.729924 L 268.468930 42.665331 L 268.964670 42.600737 L 269.460409 42.536143 L 269.956840 42.477175 L 270.453477 42.419886 L 270.950114 42.362597 L 271.446668 42.304656 L 271.941942 42.236582 L 272.437216 42.168508 L 272.932489 42.100433 L 273.429322 42.055017 L 273.929252 42.054610 L 274.429182 42.054203 L 274.929112 42.053796 L 275.429041 42.052601 L 275.928968 42.050944 L 276.428895 42.050800 L 276.928820 42.052983 L 277.428746 42.055165 L 277.928671 42.057348 L 278.428430 42.068808 L 278.928113 42.084528 L 279.427796 42.100248 L 279.927479 42.115968" fill="none" stroke="black" stroke-width="1.000000" />
	<path d="M 315.514991 55.081785 L 315.981524 55.251242 L 316.448057 55.420699 L 316.914589 55.590156 L 317.322368 55.801009 L 317.324938 56.297358 L 317.327509 56.793706 L 317.330079 57.290055 L 317.333092 57.786401 L 317.336142 58.282747 L 317.339191 58.779093 L 317.191677 59.233711 L 316.933572 59.657681 L 316.675466 60.081650 L 316.393183 60.478148 L 315.939863 60.680309 L 315.486543 60.882470 L 315.033129 61.084421 L 314.579637 61.286198 L 314.126145 61.487975 L 313.656357 61.631601 L 313.164053 61.694888 L 312.671749 61.758175 L 312.179445 61.821461 L 311.746610 61.659062 L 311.349418 61.361392 L 310.952227 61.063722 L 310.555036 60.766051 L 310.651647 60.311582 L 310.804352 59.839301 L 311.109763 58.894738" fill="none" stroke="black" stroke-width="1.000000" />
	<path d="M 230.900000 44.900000 L 230.792658 45.382803 L 230.682269 45.864790 L 230.531366 46.335798 L 230.370556 46.802970 L 230.155942 47.248572 L 229.932767 47.689651 L 229.681006 48.115371 L 229.428484 48.540638 L 229.174042 48.964761 L 228.918763 49.388379 L 228.661840 49.811004 L 228.401907 50.231764 L 228.137585 50.649801 L 227.870142 51.065831 L 227.599171 51.479589 L 227.324747 51.891048 L 227.047185 52.300414 L 226.759321 52.702473 L 226.464530 53.099613 L 226.159041 53.488467 L 225.848206 53.873178 L 225.533704 54.254887 L 225.217611 54.635289 L 224.900654 55.014973 L 224.583481 55.394476 L 224.262992 55.771179 L 223.941995 56.147453 L 223.300000 56.900000" fill="none" stroke="black" stroke-width="1.000000" />
	<path d="M 65.067491 16.101351 L 65.416550 16.453744 L 65.765609 16.806138 L 66.114668 17.158531 L 66.469341 17.504936 L 66.843498 17.830558 L 67.217656 18.156180 L 67.591813 18.481801 L 67.955282 18.818740 L 68.301712 19.173717 L 68.648143 19.528695 L 68.996313 19.881928 L 69.352289 20.227333 L 69.708264 20.572738 L 70.064240 20.918143 L 70.419689 21.264088 L 70.774174 21.611023 L 71.128658 21.957959 L 71.483143 22.304894 L 71.835206 22.654269 L 72.184917 23.006015 L 72.534628 23.357762 L 72.884339 23.709509 L 73.227039 24.068021 L 73.566169 24.429981 L 73.905298 24.791940 L 74.244427 25.153899 L 74.564897 25.532295 L 74.881158 25.914397 L 75.197419 26.296499 L 75.513680 26.678601 L 75.809232 27.076913 L 76.104170 27.475704 L 76.399109 27.874496 L 76.691464 28.275103 L 76.966836 28.687648 L 77.242208 29.100193 L 77.517581 29.512738 L 77.791000 29.926564 L 78.059658 30.343512 L 78.328316 30.760461 L 78.596975 31.177409 L 78.859747 31.598021 L 79.115207 32.023184 L 79.370667 32.448347 L 79.626128 32.873509 L 79.875213 33.302396 L 80.120086 33.733743 L 80.364960 34.165090 L 80.609833 34.596437 L 80.848335 35.031321 L 81.084836 35.467314 L 81.321338 35.903308 L 81.557839 36.339301 L 81.786378 36.779512 L 82.014191 37.220108 L 82.242005 37.660703 L 82.469226 38.101598 L 82.688917 38.546299 L 82.908608 38.991000 L 83.128299 39.435701 L 83.346306 39.881217 L 83.558597 40.329498 L 83.770889 40.777779 L 83.983180 41.226060 L 84.195066 41.674532 L 84.406297 42.123313 L 84.617528 42.572095 L 84.828759 43.020876 L 85.040912 43.469221 L 85.253859 43.917191 L 85.466807 44.365160 L 85.679755 44.813129 L 85.894963 45.260014 L 86.111181 45.706414 L 86.327398 46.152814 L 86.543616 46.599215 L 86.763795 47.043671 L 86.984692 47.487774 L 87.205589 47.931877 L 87.426486 48.375981" fill="none" stroke="black" stroke-width="1.000000" />
</svg>