<?xml version="1.0" encoding="utf-8" ?>
<svg baseProfile="full" height="317" version="1.1" viewBox="0,0,570,317" width="570" xmlns="http://www.w3.org/2000/svg" xmlns:ev="http://www.w3.org/2001/xml-events" xmlns:xlink="http://www.w3.org/1999/xlink">
	<path d="M 376.288422 113.198364 L 378.119325 112.465435 L 379.952162 111.737426 L 381.788690 111.018788 L 383.629630 110.311552 L 385.475964 109.618706 L 387.328411 108.942450 L 389.189996 108.291970 L 391.055218 107.651597 L 392.934979 107.055101 L 394.821714 106.481051 L 396.716962 105.935947 L 398.618246 105.412047 L 400.525507 104.910575 L 402.437816 104.428401 L 404.353011 103.958062 L 406.272946 103.507223 L 408.192074 103.052963 L 410.113138 102.606950 L 412.034308 102.161456 L 413.952042 101.701468 L 415.876221 101.269185 L 417.794607 100.811882 L 419.719879 100.384442 L 421.639827 99.933674 L 423.564585 99.503892 L 425.485781 99.058460 L 427.411191 98.631605 L 429.333594 98.191395 L 431.257018 97.755668 L 433.180340 97.319495 L 435.100862 96.871153 L 437.024160 96.434873 L 438.944897 95.987448 L 440.866859 95.545322 L 442.786569 95.093513 L 444.705484 94.638340 L 446.622591 94.175610 L 448.537995 93.705881 L 450.451918 93.230152 L 452.364343 92.748440 L 454.275123 92.260240 L 456.184178 91.765343 L 458.090769 91.261035 L 459.994540 90.746184 L 461.894383 90.217024 L 463.789184 89.670083 L 465.678193 89.103470 L 467.559124 88.510585 L 469.433697 87.897901 L 471.296537 87.250415 L 473.152850 86.584453 L 474.995650 85.881968 L 476.820493 85.134060 L 478.646017 84.387835 L 480.449494 83.589784 L 482.259274 82.806142 L 484.047485 81.974446 L 485.836832 81.145202 L 487.608900 80.279643 L 489.378849 79.409764 L 491.129282 78.501248 L 492.872471 77.578913 L 494.595288 76.619066 L 496.286358 75.604327 L 497.960577 74.562026 L 499.589790 73.450684 L 501.196317 72.306795 L 502.767993 71.115472 L 504.305562 69.880442 L 505.824350 68.622388" fill="none" stroke="black" stroke-width="2.000000" />
	<path d="M 347.206866 176.502004 L 346.814594 176.809192 L 346.422322 177.116380 L 346.030050 177.423568 L 345.637775 177.730751 L 345.245245 178.037611 L 344.852716 178.344470 L 344.460187 178.651329 L 344.067414 178.957867 L 343.665823 179.252767 L 343.264231 179.547667 L 342.862640 179.842567 L 342.461458 180.138006 L 342.069789 180.445963 L 341.678120 180.753919 L 341.286451 181.061875 L 340.894011 181.368805 L 340.488945 181.658914 L 340.083880 181.949024 L 339.678814 182.239134 L 339.274748 182.530572 L 338.883501 182.839066 L 338.492255 183.147559 L 338.101009 183.456052 L 337.708802 183.763282 L 337.306752 184.057557 L 336.904703 184.351831 L 336.502653 184.646106 L 336.100274 184.939926 L 335.695068 185.229840 L 335.289862 185.519754 L 334.884656 185.809667 L 334.478815 186.098676 L 334.068321 186.381051 L 333.657826 186.663427 L 333.247332 186.945803 L 332.836208 187.227248 L 332.421114 187.502818 L 332.006020 187.778387 L 331.590926 188.053957 L 331.175066 188.328350 L 330.754974 188.596239 L 330.334882 188.864127 L 329.914790 189.132016 L 329.493878 189.398594 L 329.068983 189.658797 L 328.644088 189.919001 L 328.219193 190.179204 L 327.793270 190.437688 L 327.362901 190.688735 L 326.932532 190.939781 L 326.502163 191.190827 L 326.070722 191.439990 L 325.635124 191.681851 L 325.199527 191.923712 L 324.763930 192.165573 L 324.326941 192.404848 L 323.885082 192.635071 L 323.443224 192.865294 L 323.001365 193.095517 L 322.558084 193.322919 L 322.110276 193.541345 L 321.662467 193.759770 L 321.214659 193.978195 L 320.765173 194.193040 L 320.310808 194.397477 L 319.856443 194.601914 L 319.402079 194.806351 L 318.945542 195.005683 L 318.483181 195.191329 L 318.020820 195.376974 L 317.558460 195.562620 L 317.096233 195.748599 L 316.634342 195.935409 L 316.172450 196.122219 L 315.710559 196.309029 L 315.246282 196.489541 L 314.776505 196.655525 L 314.306727 196.821509 L 313.836950 196.987494 L 313.366751 197.152272 L 312.895648 197.314454 L 312.424544 197.476637 L 311.953441 197.638819 L 311.480470 197.795236 L 311.003735 197.940030 L 310.527000 198.084825 L 310.050264 198.229619 L 309.572692 198.371569 L 309.093534 198.508133 L 308.614377 198.644697 L 308.135219 198.781262 L 307.654575 198.912272 L 307.171271 199.033346 L 306.687967 199.154421 L 306.204663 199.275495 L 305.720622 199.393516 L 305.235330 199.506361 L 304.750039 199.619206 L 304.264747 199.732051 L 303.778459 199.840360 L 303.290563 199.941347 L 302.802666 200.042335 L 302.314769 200.143322 L 301.826470 200.242315 L 301.337551 200.338233 L 300.848632 200.434150 L 300.359714 200.530068 L 299.870294 200.623340 L 299.380138 200.712718 L 298.889981 200.802095 L 298.399825 200.891473 L 297.909586 200.980396 L 297.419232 201.068683 L 296.928877 201.156969 L 296.438523 201.245255 L 295.948130 201.333323 L 295.457684 201.421100 L 294.967238 201.508877 L 294.476793 201.596654 L 293.986431 201.684896 L 293.496175 201.773727 L 293.005919 201.862558 L 292.515663 201.951390 L 292.025738 202.042001 L 291.536204 202.134730 L 291.046670 202.227459 L 290.557137 202.320188 L 290.067809 202.413987 L 289.578708 202.508973 L 289.089607 202.603960 L 288.600507 202.698946 L 288.111908 202.796447 L 287.623826 202.896532 L 287.135743 202.996618 L 286.647660 203.096703 L 286.159803 203.197876 L 285.672159 203.300074 L 285.184514 203.402273 L 284.696869 203.504471 L 284.209945 203.610001 L 283.723638 203.718386 L 283.237332 203.826772 L 282.751025 203.935158 L 282.265088 204.045181 L 281.779436 204.156466 L 281.293785 204.267751 L 280.808133 204.379036 L 280.323340 204.493961 L 279.839135 204.611380 L 279.354930 204.728798 L 278.870725 204.846216 L 278.387003 204.965603 L 277.903572 205.086168 L 277.420141 205.206733 L 276.936710 205.327298 L 276.454406 205.452254 L 275.972681 205.579466 L 275.490956 205.706678 L 275.009231 205.833890 L 274.527963 205.962813 L 274.046891 206.092473 L 273.565819 206.222134 L 273.084748 206.351794 L 272.605356 206.487487 L 272.126538 206.625237 L 271.647720 206.762986 L 271.168902 206.900736 L 270.690504 207.039934 L 270.212214 207.179508 L 269.733925 207.319082 L 269.255635 207.458656 L 268.779536 207.605495 L 268.303794 207.753521 L 267.828052 207.901546 L 267.352311 208.049572 L 266.877022 208.199045 L 266.401763 208.348615 L 265.926505 208.498184 L 265.451280 208.647861 L 264.977483 208.801997 L 264.503686 208.956132 L 264.029888 209.110268 L 263.556185 209.264690 L 263.083160 209.421179 L 262.610134 209.577667 L 262.137109 209.734156 L 261.664001 209.890396 L 261.190602 210.045750 L 260.717203 210.201104 L 260.243803 210.356457 L 259.770626 210.512482 L 259.297907 210.669895 L 258.825188 210.827307 L 258.352470 210.984720 L 257.878937 211.139637 L 257.404305 211.291185 L 256.929674 211.442733 L 256.455043 211.594281 L 255.980258 211.745346 L 255.505335 211.895979 L 255.030412 212.046611 L 254.555489 212.197243 L 254.078981 212.342720 L 253.601486 212.484990 L 253.123992 212.627261 L 252.646498 212.769531 L 252.167933 212.908136 L 251.688925 213.045225 L 251.209917 213.182314 L 250.730910 213.319403 L 250.250228 213.450463 L 249.769107 213.579938 L 249.287985 213.709413 L 248.806863 213.838887 L 248.323680 213.960410 L 247.840257 214.081010 L 247.356835 214.201611 L 246.873413 214.322212 L 246.387879 214.434008 L 245.902332 214.545749 L 245.416785 214.657490 L 244.930893 214.767625 L 244.442401 214.865693 L 243.953909 214.963761 L 243.465417 215.061829 L 242.976423 215.157228 L 242.485667 215.243255 L 241.994912 215.329283 L 241.504156 215.415310 L 241.012239 215.493701 L 240.518098 215.557466 L 240.023956 215.621231 L 239.529815 215.684995 L 239.035173 215.744566 L 238.539899 215.798841 L 238.044626 215.853116 L 237.549352 215.907391 L 237.052515 215.938741 L 236.554458 215.952203 L 236.056402 215.965665 L 235.558345 215.979128 L 235.060181 215.986516 L 234.561959 215.990644 L 234.063738 215.994772 L 233.565516 215.998899 L 233.068098 215.975239 L 232.570947 215.942337 L 232.073796 215.909435 L 231.576645 215.876533 L 231.089956 215.775189 L 230.605678 215.658069 L 230.121401 215.540948 L 229.637123 215.423828 L 229.152562 215.307888 L 228.667981 215.192030 L 228.183400 215.076172 L 227.698940 214.959972 L 227.248667 214.746674 L 226.798394 214.533377 L 226.348121 214.320079 L 225.897847 214.106782 L 225.442408 213.904753 L 224.986944 213.702775 L 224.076018 213.298818" fill="none" stroke="black" stroke-width="2.000000" />
	<path d="M 321.214661 193.978195 L 323.186491 194.100323 L 325.157874 194.230436 L 327.130174 194.345951 L 329.101967 194.470573 L 331.073081 194.606352 L 333.043650 194.749706 L 335.014481 194.889329 L 336.985166 195.030874 L 338.956698 195.159606 L 340.928520 195.283803 L 342.902116 195.376227 L 344.876964 195.433543 L 346.852580 195.451630 L 348.827959 195.421799 L 350.801667 195.335842 L 352.771245 195.183613 L 354.733227 194.954056 L 356.675933 194.602582 L 358.584722 194.098550 L 360.463873 193.489237 L 362.308686 192.784769 L 364.096151 191.946840 L 365.822691 190.987889 L 367.502335 189.948144 L 369.139183 188.842360 L 370.678263 187.609339 L 372.066857 186.207841 L 373.342995 184.700213 L 374.535994 183.126407 L 375.628049 181.481121 L 376.623885 179.775336 L 377.535237 178.022963 L 378.360504 176.228414 L 379.105989 174.399070 L 379.759597 172.535583 L 380.305444 170.637293 L 380.788224 168.721430 L 381.232132 166.796433 L 381.613795 164.858090 L 381.939695 162.909528 L 382.217782 160.953532 L 382.466635 158.993482 L 382.681621 157.029868 L 382.807523 155.058643 L 382.861565 153.083640 L 382.854541 151.108784 L 382.762704 149.135134 L 382.638631 147.163737 L 382.436442 145.198448 L 382.190573 143.238097 L 381.904724 141.283225 L 381.579882 139.334346 L 381.231692 137.389554 L 380.850762 135.450871 L 380.446392 133.516930 L 380.024083 131.586814 L 379.590723 129.659142 L 379.152346 127.732603 L 378.715261 125.805772 L 378.284789 123.877459 L 377.867630 121.946227 L 377.469079 120.011092 L 377.096960 118.070686 L 376.749697 116.125724 L 376.437978 114.174698 L 376.145673 112.220674 L 375.876028 110.263399 L 375.625325 108.303588 L 375.366218 106.344867 L 375.102116 104.386912 L 374.784078 102.436983 L 374.411700 100.496734 L 373.970162 98.571274 L 373.426985 96.671727 L 372.820981 94.791412 L 372.127022 92.941655 L 371.361366 91.120421 L 370.518290 89.333770 L 369.583381 87.593484 L 368.544192 85.913325 L 367.408707 84.296732 L 366.168668 82.758850 L 364.827322 81.308424 L 363.391883 79.951247 L 361.837723 78.731406 L 360.223648 77.592206 L 358.516258 76.598028 L 356.761229 75.690518 L 354.981104 74.833266" fill="none" stroke="black" stroke-width="2.000000" />
	<path d="M 342.022790 75.539862 L 340.079208 75.765995 L 338.134552 75.982691 L 336.185374 76.153879 L 334.237840 76.342947 L 332.293023 76.558124 L 330.351224 76.799016 L 328.412554 77.063906 L 326.477393 77.353312 L 324.546241 77.668339 L 322.619389 78.008668 L 320.696944 78.373076 L 318.778980 78.760378 L 316.865552 79.169497 L 314.956533 79.598733 L 313.051800 80.046605 L 311.151135 80.511444 L 309.254217 80.991357 L 307.360507 81.483784 L 305.468912 81.984291 L 303.578333 82.488628 L 301.687816 82.993200 L 299.797610 83.498936 L 297.904439 83.993399 L 296.006680 84.469920 L 294.105533 84.932796 L 292.200828 85.380759 L 290.293914 85.819301 L 288.384335 86.245998 L 286.471752 86.659087 L 284.557478 87.064299 L 282.646884 87.485840 L 280.741570 87.931250 L 278.832281 88.359079 L 276.916378 88.756240 L 274.994658 89.124517 L 273.075611 89.506164 L 271.156842 89.889179 L 269.240723 90.285568" fill="none" stroke="black" stroke-width="2.000000" />
	<path d="M 288.649742 103.586889 L 287.344814 102.154335 L 286.045312 100.716857 L 284.697641 99.324505 L 283.256545 98.029462 L 281.748886 96.812408 L 280.187073 95.665653 L 278.549972 94.629920 L 276.891093 93.628381 L 275.188249 92.704295 L 273.428324 91.895046 L 271.636735 91.157118 L 269.818042 90.489059 L 267.970533 89.905905 L 266.102179 89.392671 L 264.217311 88.943932 L 262.319643 88.552496 L 260.413677 88.203178 L 258.499634 87.901883 L 256.579221 87.643573 L 254.654805 87.416693 L 252.727403 87.216707 L 250.797556 87.041819 L 248.865746 86.890058 L 246.932427 86.758779 L 244.997919 86.646384 L 243.062349 86.554215 L 241.126322 86.471483 L 239.189978 86.397601 L 237.252746 86.356067 L 235.314996 86.343982 L 233.377378 86.356328 L 231.440500 86.412705 L 229.504657 86.499459 L 227.571305 86.623347 L 225.643614 86.820476 L 223.719551 87.050074 L 221.803765 87.336944 L 219.909131 87.740095 L 218.045239 88.267717 L 216.224759 88.927438 L 214.484306 89.775554 L 212.973122 90.971265 L 211.685127 92.337100 L 210.562416 93.877452 L 209.925935 95.672334 L 209.349609 97.501381" fill="none" stroke="black" stroke-width="2.000000" />
	<path d="M 472.107762 0.956011 L 470.175467 1.376150 L 468.253792 1.842445 L 466.344689 2.357777 L 464.442169 2.896929 L 462.567610 3.526246 L 460.716736 4.222210 L 458.891351 4.982502 L 457.080737 5.777419 L 455.297574 6.632026 L 453.544801 7.547326 L 451.816054 8.507297 L 450.117319 9.519372 L 448.445020 10.574593 L 446.805593 11.680137 L 445.195740 12.828358 L 443.613415 14.014238 L 442.060002 15.237737 L 440.530159 16.490618 L 439.027980 17.776507 L 437.545828 19.085479 L 436.087164 20.420549 L 434.645369 21.773855 L 433.221409 23.145906 L 431.812384 24.533302 L 430.416751 25.934172 L 429.032463 27.346260 L 427.657016 28.766966 L 426.289178 30.195000 L 424.925641 31.627147 L 423.564457 33.061531 L 422.203094 34.495746 L 420.837842 35.926256 L 419.466943 37.351354 L 418.087173 38.767857 L 416.696216 40.173371 L 415.293826 41.567477 L 413.879002 42.948957 L 412.452190 44.318055 L 411.014885 45.676139 L 409.567002 47.022936 L 408.111645 48.361667 L 406.648419 49.691785 L 405.180220 51.016424 L 403.706636 52.335064 L 402.230940 53.651347 L 400.753152 54.965279 L 399.274823 56.278606 L 397.797351 57.592896 L 396.318859 58.906037 L 394.841675 60.220647 L 393.360490 61.530736 L 391.878925 62.840404 L 390.389391 64.140940 L 388.893545 65.434279 L 387.385895 66.713709 L 385.876647 67.991308 L 384.354249 69.252807 L 382.811556 70.489886 L 381.249519 71.701770 L 379.651737 72.866733 L 378.013507 73.971962 L 376.323651 74.998931 L 374.563638 75.889988 L 372.801273 76.782953 L 370.971024 77.520878 L 369.139129 78.260058 L 367.259714 78.872477 L 365.374806 79.466717 L 363.475647 80.017281" fill="none" stroke="black" stroke-width="2.000000" />
	<path d="M 476.871476 0.866327 L 477.267320 1.171268 L 477.663164 1.476208 L 478.059007 1.781149 L 478.454398 2.086625 L 478.820762 2.426417 L 479.187125 2.766209 L 479.553489 3.106001 L 479.918741 3.446887 L 480.252561 3.818701 L 480.586381 4.190514 L 480.920201 4.562327 L 481.256554 4.931583 L 481.631698 5.261654 L 482.006843 5.591726 L 482.381988 5.921798 L 482.754746 6.254359 L 483.100257 6.615334 L 483.445769 6.976309 L 483.791280 7.337283 L 484.137206 7.697858 L 484.486697 8.054981 L 484.836188 8.412104 L 485.185680 8.769227 L 485.533236 9.128164 L 485.867225 9.499826 L 486.201213 9.871488 L 486.535202 10.243150 L 486.866965 10.616732 L 487.185637 11.001607 L 487.504309 11.386483 L 487.822981 11.771358 L 488.141080 12.156704 L 488.456295 12.544416 L 488.771510 12.932128 L 489.086725 13.319840 L 489.400984 13.708319 L 489.711044 14.100165 L 490.021104 14.492011 L 490.331164 14.883858 L 490.639444 15.277081 L 490.940818 15.675648 L 491.242192 16.074214 L 491.543565 16.472780 L 491.845702 16.870763 L 492.150485 17.266729 L 492.455267 17.662694 L 492.760049 18.058660 L 493.064723 18.454709 L 493.369056 18.851020 L 493.673389 19.247331 L 493.977722 19.643642 L 494.280379 20.041219 L 494.578310 20.442365 L 494.876242 20.843511 L 495.174173 21.244656 L 495.474318 21.644124 L 495.780136 22.039290 L 496.085954 22.434456 L 496.391772 22.829623 L 496.692497 23.228560 L 496.981321 23.636313 L 497.270145 24.044065 L 497.558968 24.451817 L 497.850158 24.857860 L 498.146424 25.260238 L 498.442690 25.662615 L 498.738956 26.064992 L 499.035033 26.467509 L 499.330734 26.870301 L 499.626436 27.273093 L 499.922138 27.675885 L 500.214758 28.080889 L 500.501784 28.489909 L 500.788809 28.898929 L 501.075834 29.307950 L 501.364396 29.715880 L 501.655539 30.121979 L 501.946682 30.528078 L 502.237825 30.934178 L 502.524802 31.343183 L 502.805307 31.756702 L 503.085813 32.170220 L 503.366319 32.583738 L 503.646987 32.997147 L 503.927888 33.410397 L 504.208789 33.823647 L 504.489691 34.236897 L 504.769178 34.651100 L 505.046771 35.066579 L 505.324364 35.482058 L 505.601957 35.897537 L 505.877084 36.314641 L 506.149137 36.733769 L 506.421190 37.152897 L 506.693243 37.572025 L 506.964203 37.991857 L 507.233896 38.412508 L 507.503589 38.833158 L 507.773282 39.253808 L 508.040054 39.676302 L 508.303665 40.100790 L 508.567276 40.525278 L 508.830888 40.949766 L 509.092469 41.375502 L 509.352000 41.802497 L 509.611531 42.229492 L 509.871062 42.656486 L 510.128400 43.084799 L 510.383672 43.514354 L 510.638944 43.943909 L 510.894216 44.373463 L 511.146750 44.804623 L 511.396874 45.237195 L 511.646998 45.669768 L 511.897122 46.102340 L 512.144335 46.536573 L 512.389152 46.972171 L 512.633969 47.407769 L 512.878785 47.843367 L 513.121615 48.280071 L 513.362918 48.717626 L 513.604220 49.155181 L 513.845523 49.592735 L 514.082944 50.032392 L 514.317576 50.473560 L 514.552208 50.914727 L 514.786840 51.355895 L 515.019586 51.798057 L 515.251065 52.240887 L 515.482544 52.683717 L 515.714023 53.126547 L 515.941635 53.571364 L 516.166819 54.017428 L 516.392002 54.463492 L 516.617186 54.909556 L 516.837074 55.358232 L 517.053856 55.808439 L 517.270637 56.258647 L 517.487419 56.708854 L 517.704516 57.158910 L 517.921787 57.608881 L 518.139057 58.058853 L 518.356327 58.508825 L 518.566591 58.962079 L 518.773280 59.417009 L 518.979968 59.871938 L 519.186656 60.326868 L 519.393165 60.781879 L 519.599588 61.236929 L 519.806011 61.691979 L 520.012433 62.147030 L 520.212819 62.604750 L 520.410560 63.063639 L 520.608301 63.522528 L 520.806043 63.981417 L 520.994787 64.444038 L 521.179865 64.908180 L 521.364942 65.372321 L 521.550019 65.836463 L 521.737624 66.299586 L 521.926176 66.762326 L 522.114728 67.225067 L 522.303281 67.687808 L 522.482005 68.154391 L 522.657312 68.622311 L 522.832618 69.090230 L 523.007924 69.558150 L 523.181675 70.026648 L 523.354923 70.495334 L 523.528172 70.964019 L 523.701420 71.432704 L 523.868206 71.903713 L 524.033068 72.375414 L 524.197930 72.847114 L 524.362793 73.318815 L 524.519730 73.793191 L 524.674489 74.268302 L 524.829249 74.743413 L 524.984009 75.218524 L 525.140162 75.693178 L 525.296668 76.167717 L 525.453174 76.642255 L 525.609680 77.116794 L 525.758239 77.593863 L 525.904955 78.071519 L 526.051671 78.549175 L 526.198388 79.026831 L 526.347307 79.503804 L 526.496693 79.980632 L 526.646079 80.457460 L 526.795465 80.934288 L 526.938548 81.413036 L 527.080419 81.892153 L 527.222291 82.371271 L 527.364162 82.850388 L 527.499733 83.331319 L 527.634213 83.812563 L 527.768693 84.293807 L 527.903173 84.775052 L 528.040998 85.255347 L 528.179342 85.735495 L 528.317685 86.215643 L 528.456029 86.695791 L 528.589346 87.177354 L 528.721975 87.659112 L 528.854603 88.140870 L 528.987231 88.622628 L 529.124579 89.103059 L 529.262489 89.583332 L 529.400398 90.063605 L 529.538308 90.543877 L 529.674822 91.024549 L 529.811193 91.505260 L 529.947564 91.985972 L 530.083935 92.466684 L 530.220062 92.947465 L 530.356169 93.428252 L 530.492275 93.909039 L 530.628381 94.389826 L 530.769977 94.869023 L 530.911937 95.348114 L 531.053897 95.827205 L 531.195857 96.306296 L 531.338846 96.785081 L 531.481886 97.263851 L 531.624926 97.742621 L 531.767966 98.221391 L 531.916932 98.698348 L 532.066098 99.175245 L 532.215264 99.652142 L 532.364429 100.129039 L 532.516842 100.604908 L 532.669312 101.080759 L 532.821783 101.556609 L 532.974253 102.032460 L 533.131378 102.506794 L 533.288512 102.981125 L 533.445645 103.455456 L 533.602883 103.929752 L 533.766933 104.401735 L 533.930984 104.873719 L 534.095035 105.345702 L 534.259213 105.817641 L 534.427374 106.288175 L 534.595535 106.758710 L 534.763697 107.229244 L 534.932352 107.699596 L 535.110972 108.166261 L 535.289593 108.632925 L 535.468213 109.099590 L 535.647064 109.566165 L 535.829308 110.031426 L 536.011552 110.496688 L 536.193796 110.961949 L 536.376581 111.426994 L 536.565550 111.889565 L 536.754518 112.352136 L 536.943487 112.814707 L 537.133293 113.276926 L 537.330803 113.735915 L 537.528314 114.194904 L 537.725824 114.653893 L 537.923708 115.112719 L 538.124466 115.570296 L 538.325224 116.027874 L 538.525982 116.485451 L 538.728479 116.942236 L 538.942220 117.393895 L 539.155961 117.845554 L 539.369702 118.297213 L 539.583903 118.748652 L 539.800682 119.198861 L 540.017460 119.649070 L 540.234239 120.099279 L 540.452353 120.548831 L 540.676950 120.995190 L 540.901547 121.441550 L 541.126144 121.887910 L 541.352327 122.333454 L 541.585101 122.775604 L 541.817876 123.217755 L 542.050651 123.659905 L 542.283771 124.101873 L 542.518172 124.543163 L 542.752572 124.984454 L 542.986973 125.425744 L 543.223761 125.865731 L 543.468339 126.301463 L 543.712917 126.737195 L 543.957496 127.172928 L 544.202104 127.608643 L 544.446801 128.044308 L 544.691497 128.479974 L 544.936194 128.915639 L 545.181440 129.350995 L 545.428097 129.785554 L 545.674754 130.220113 L 545.921410 130.654672 L 546.168301 131.089098 L 546.415716 131.523225 L 546.663131 131.957353 L 546.910546 132.391480 L 547.157326 132.825968 L 547.402803 133.261195 L 547.648280 133.696421 L 547.893758 134.131647 L 548.138298 134.567398 L 548.381114 135.004115 L 548.623930 135.440831 L 548.866746 135.877548 L 549.108071 136.315084 L 549.346882 136.754004 L 549.585693 137.192923 L 549.824504 137.631843 L 550.060835 138.072090 L 550.293508 138.514293 L 550.526182 138.956497 L 550.758855 139.398701 L 550.989282 139.842069 L 551.216742 140.286977 L 551.444201 140.731885 L 551.671661 141.176793 L 551.897682 141.622430 L 552.121953 142.068954 L 552.346225 142.515478 L 552.570496 142.962001 L 552.789678 143.411006 L 553.003240 143.862749 L 553.216802 144.314493 L 553.430365 144.766236 L 553.643089 145.218374 L 553.854959 145.670913 L 554.066830 146.123452 L 554.278701 146.575992 L 554.485771 147.030720 L 554.688473 147.487439 L 554.891176 147.944159 L 555.093878 148.400878 L 555.293617 148.858892 L 555.490900 149.317979 L 555.688183 149.777065 L 555.885466 150.236152 L 556.082619 150.695294 L 556.279673 151.154479 L 556.476727 151.613664 L 556.673780 152.072849 L 556.859355 152.536676 L 557.036906 153.003749 L 557.214458 153.470821 L 557.392010 153.937893 L 557.572075 154.403997 L 557.753756 154.869478 L 557.935437 155.334960 L 558.117119 155.800441 L 558.288432 156.269760 L 558.453645 156.741338 L 558.618858 157.212916 L 558.784070 157.684494 L 558.948029 158.156509 L 559.111312 158.628758 L 559.274596 159.101008 L 559.437879 159.573257 L 559.605762 160.043879 L 559.775905 160.513700 L 559.946047 160.983522 L 560.116189 161.453344 L 560.265391 161.930003 L 560.405273 162.409705 L 560.545154 162.889408 L 560.685035 163.369110 L 560.833506 163.846189 L 560.985448 164.322209 L 561.137389 164.798229 L 561.289330 165.274249 L 561.426327 165.754691 L 561.557900 166.236738 L 561.689473 166.718785 L 561.821046 167.200833 L 561.951085 167.683295 L 562.080626 168.165892 L 562.210167 168.648490 L 562.339707 169.131087 L 562.472422 169.612818 L 562.606052 170.094299 L 562.739682 170.575780 L 562.873312 171.057261 L 562.990963 171.542823 L 563.104575 172.029417 L 563.218187 172.516010 L 563.331799 173.002604 L 563.450033 173.488090 L 563.569281 173.973333 L 563.688528 174.458576 L 563.807776 174.943820 L 563.916788 175.431443 L 564.023892 175.919511 L 564.130995 176.407578 L 564.238098 176.895646 L 564.343369 177.384111 L 564.448355 177.872638 L 564.553341 178.361166 L 564.658328 178.849693 L 564.762207 179.338457 L 564.865948 179.827250 L 564.969689 180.316043 L 565.073429 180.804836 L 565.168525 181.295377 L 565.262802 181.786084 L 565.357078 182.276790 L 565.451355 182.767497 L 565.545028 183.258319 L 565.638662 183.749149 L 565.732295 184.239978 L 565.825929 184.730808 L 565.912352 185.222956 L 565.998502 185.715155 L 566.084652 186.207353 L 566.170803 186.699551 L 566.252812 187.192456 L 566.334778 187.685368 L 566.416744 188.178281 L 566.498634 188.671205 L 566.575988 189.164863 L 566.653342 189.658520 L 566.730695 190.152177 L 566.807738 190.645881 L 566.878042 191.140591 L 566.948346 191.635301 L 567.018650 192.130012 L 567.088590 192.624772 L 567.153865 193.120171 L 567.219140 193.615570 L 567.284415 194.110969 L 567.348936 194.606462 L 567.406815 195.102779 L 567.464694 195.599096 L 567.522573 196.095414 L 567.579576 196.591828 L 567.630831 197.088873 L 567.682086 197.585918 L 567.733341 198.082963 L 567.783452 198.580118 L 567.827724 199.077834 L 567.871996 199.575550 L 567.916267 200.073266 L 567.958971 200.571108 L 567.995248 201.069470 L 568.031526 201.567833 L 568.067803 202.066195 L 568.102196 202.564679 L 568.130267 203.063571 L 568.158337 203.562463 L 568.186408 204.061354 L 568.211900 204.560366 L 568.230222 205.059711 L 568.248544 205.559056 L 568.266866 206.058401 L 568.282160 206.557826 L 568.290421 207.057439 L 568.298683 207.557051 L 568.306944 208.056664 L 568.311860 208.556299 L 568.310409 209.055978 L 568.308958 209.555657 L 568.307507 210.055336 L 568.302459 210.554970 L 568.291637 211.054534 L 568.280815 211.554098 L 568.269993 212.053661 L 568.255076 212.553097 L 568.234613 213.052358 L 568.214149 213.551620 L 568.193686 214.050882 L 568.168018 214.549872 L 568.136410 215.048552 L 568.104802 215.547232 L 568.073194 216.045913 L 568.034725 216.544065 L 567.989704 217.041714 L 567.944684 217.539362 L 567.899664 218.037011 L 567.846766 218.533834 L 567.787685 219.030010 L 567.728604 219.526186 L 567.669523 220.022362 L 567.601517 220.517341 L 567.527774 221.011550 L 567.454032 221.505760 L 567.380289 221.999969 L 567.295450 222.492330 L 567.204966 222.983750 L 567.114482 223.475170 L 567.023998 223.966590 L 566.922255 224.455749 L 566.816032 224.944009 L 566.709808 225.432269 L 566.603585 225.920528 L 566.482441 226.405231 L 566.356953 226.888898 L 566.231465 227.372565 L 566.105976 227.856232 L 565.966246 228.335935 L 565.823813 228.814886 L 565.681380 229.293837 L 565.538948 229.772787 L 565.381051 230.246838 L 565.221660 230.720416 L 565.062270 231.193993 L 564.902831 231.667553 L 564.723418 232.133914 L 564.544005 232.600274 L 564.364591 233.066634 L 564.183942 233.532492 L 563.986702 233.991596 L 563.789462 234.450701 L 563.592222 234.909806 L 563.391346 235.367234 L 563.170039 235.815234 L 562.948732 236.263234 L 562.727425 236.711234 L 562.498064 237.154854 L 562.242255 237.584089 L 561.986447 238.013325 L 561.730639 238.442560 L 561.464513 238.865089 L 561.176075 239.273114 L 560.887636 239.681139 L 560.599198 240.089164 L 560.303448 240.491781 L 559.997784 240.887067 L 559.692120 241.282352 L 559.386456 241.677638 L 559.068143 242.062459 L 558.737155 242.436796 L 558.406167 242.811133 L 558.075179 243.185469 L 557.729305 243.545682 L 557.372866 243.895871 L 557.016426 244.246059 L 556.659987 244.596247 L 556.285457 244.926443 L 555.901480 245.246197 L 555.517503 245.565950 L 555.133526 245.885704 L 554.731290 246.181661 L 554.323028 246.469764 L 553.914767 246.757867 L 553.506505 247.045971 L 553.086034 247.315739 L 552.662784 247.581332 L 552.239533 247.846926 L 551.816283 248.112520 L 551.379404 248.354841 L 550.940680 248.594010 L 550.501956 248.833180 L 550.063231 249.072350 L 549.616809 249.296781 L 549.169878 249.520241 L 548.722948 249.743701 L 548.276018 249.967160 L 547.814400 250.158416 L 547.352647 250.349376 L 546.890895 250.540335 L 546.428600 250.729864 L 545.956251 250.892858 L 545.483902 251.055853 L 545.011553 251.218848 L 544.538292 251.378879 L 544.055941 251.509333 L 543.573590 251.639787 L 543.091239 251.770242 L 542.608061 251.897281 L 542.119418 252.001726 L 541.630775 252.106170 L 541.142132 252.210615 L 540.652820 252.311554 L 540.160002 252.394086 L 539.667184 252.476617 L 539.174367 252.559149 L 538.680764 252.635851 L 538.183664 252.686570 L 537.686564 252.737290 L 537.189463 252.788010 L 536.692203 252.837011 L 536.194302 252.879151 L 535.696401 252.921292 L 535.198501 252.963433 L 534.700265 252.999748 L 534.200815 253.014949 L 533.701366 253.030151 L 533.201916 253.045352 L 532.702413 253.056861 L 532.202733 253.056107 L 531.703053 253.055352 L 531.203372 253.054597 L 530.703731 253.050943 L 530.204214 253.038160 L 529.704696 253.025376 L 529.205179 253.012592 L 528.705938 252.994130 L 528.207537 252.958385 L 527.709137 252.922639 L 527.210736 252.886894 L 526.712343 252.851042 L 526.213973 252.814869 L 525.715603 252.778695 L 525.217233 252.742522 L 524.719331 252.701303 L 524.222806 252.645233 L 523.726281 252.589163 L 523.229756 252.533093 L 522.733538 252.474524 L 522.238223 252.408617 L 521.742908 252.342710 L 521.247592 252.276803 L 520.752582 252.208741 L 520.258453 252.134465 L 519.764323 252.060188 L 519.270194 251.985912 L 518.776750 251.907528 L 518.285293 251.817246 L 517.793835 251.726964 L 517.302378 251.636683 L 516.811033 251.545800 L 516.320015 251.453157 L 515.828998 251.360515 L 515.337980 251.267873 L 514.847656 251.171812 L 514.359386 251.065636 L 513.871116 250.959460 L 513.382846 250.853284 L 512.894966 250.745373 L 512.408263 250.632233 L 511.921559 250.519093 L 511.434855 250.405953 L 510.948476 250.291453 L 510.463086 250.172806 L 509.977695 250.054159 L 509.492305 249.935511 L 509.007452 249.814748 L 508.524267 249.687416 L 508.041083 249.560084 L 507.557898 249.432752 L 507.075001 249.304346 L 506.593014 249.172553 L 506.111027 249.040761 L 505.629039 248.908968 L 505.147402 248.775924 L 504.666885 248.638866 L 504.186369 248.501808 L 503.705852 248.364751 L 503.225829 248.226012 L 502.747411 248.081798 L 502.268993 247.937584 L 501.790576 247.793370 L 501.312581 247.647784 L 500.835983 247.497667 L 500.359385 247.347551 L 499.882786 247.197434 L 499.406536 247.046232 L 498.931452 246.891389 L 498.456368 246.736546 L 497.981284 246.581703 L 497.506549 246.425808 L 497.032996 246.266344 L 496.559443 246.106881 L 496.085890 245.947417 L 495.612682 245.786946 L 495.140654 245.623022 L 494.668627 245.459098 L 494.196600 245.295173 L 493.724696 245.130895 L 493.253219 244.965393 L 492.781743 244.799892 L 492.310266 244.634390 L 491.839166 244.467833 L 491.369372 244.297615 L 490.899577 244.127396 L 490.429783 243.957177 L 489.960473 243.785649 L 489.492846 243.609563 L 489.025219 243.433478 L 488.557592 243.257392 L 488.089715 243.081980 L 487.620962 242.908912 L 487.152210 242.735845 L 486.683458 242.562778 L 486.215336 242.388043 L 485.749397 242.207539 L 485.283458 242.027035 L 484.817519 241.846531 L 484.350939 241.667720 L 483.882159 241.494729 L 483.413378 241.321738 L 482.944598 241.148747 L 482.476387 240.974245 L 482.010098 240.794646 L 481.543810 240.615047 L 481.077521 240.435448 L 480.611988 240.253938 L 480.148957 240.066100 L 479.685926 239.878261 L 479.222895 239.690422 L 478.758911 239.505008 L 478.291822 239.327502 L 477.824733 239.149996 L 477.357643 238.972490 L 476.891243 238.793213 L 476.427025 238.608325 L 475.962808 238.423438 L 475.498591 238.238551 L 475.033754 238.055253 L 474.567005 237.876853 L 474.100256 237.698453 L 473.633507 237.520053 L 473.167283 237.340304 L 472.702618 237.156545 L 472.237953 236.972786 L 471.773288 236.789027 L 471.309177 236.603889 L 470.846657 236.414795 L 470.384137 236.225702 L 469.921618 236.036608 L 469.458784 235.848288 L 468.995084 235.662109 L 468.531383 235.475930 L 468.067682 235.289751 L 467.604339 235.102690 L 467.141946 234.913287 L 466.679553 234.723884 L 466.217159 234.534481 L 465.754893 234.344770 L 465.292949 234.154273 L 464.831005 233.963776 L 464.369062 233.773280 L 463.907382 233.582147 L 463.446346 233.389464 L 462.985310 233.196780 L 462.524274 233.004097 L 462.063514 232.810759 L 461.603396 232.615893 L 461.143278 232.421027 L 460.683161 232.226161 L 460.223299 232.030695 L 459.764006 231.833891 L 459.304714 231.637088 L 458.845422 231.440284 L 458.386440 231.242762 L 457.928118 231.043709 L 457.469796 230.844656 L 457.011474 230.645604 L 456.553467 230.445831 L 456.096099 230.244595 L 455.638731 230.043360 L 455.181363 229.842124 L 454.724366 229.640053 L 454.268085 229.436366 L 453.811804 229.232678 L 453.355523 229.028990 L 452.899629 228.824441 L 452.444449 228.618307 L 451.989268 228.412173 L 451.534087 228.206038 L 451.079349 227.998933 L 450.625387 227.790128 L 450.171425 227.581323 L 449.717463 227.372519 L 449.263970 227.162702 L 448.811258 226.951201 L 448.358545 226.739700 L 447.905833 226.528200 L 447.453614 226.315651 L 447.002175 226.101447 L 446.550735 225.887242 L 446.099296 225.673038 L 445.648447 225.457599 L 445.198485 225.240309 L 444.748523 225.023018 L 444.298561 224.805728 L 443.849218 224.587168 L 443.400754 224.366801 L 442.952291 224.146434 L 442.503828 223.926067 L 442.056012 223.704393 L 441.609071 223.480954 L 441.162131 223.257515 L 440.715190 223.034076 L 440.268994 222.809162 L 439.823750 222.582359 L 439.378507 222.355557 L 438.933263 222.128755 L 438.488732 221.900566 L 438.045063 221.670699 L 437.601394 221.440832 L 437.157726 221.210964 L 436.714933 220.979422 L 436.273146 220.745959 L 435.831359 220.512495 L 435.389572 220.279032 L 434.948661 220.043925 L 434.508703 219.807034 L 434.068744 219.570144 L 433.628785 219.333253 L 433.189778 219.094611 L 432.751749 218.854170 L 432.313720 218.613730 L 431.875691 218.373290 L 431.438760 218.130870 L 431.002894 217.886530 L 430.567029 217.642190 L 430.131163 217.397849 L 429.696308 217.151722 L 429.262379 216.903959 L 428.828450 216.656196 L 428.394521 216.408433 L 427.961881 216.158437 L 427.530356 215.906511 L 427.098830 215.654585 L 426.667305 215.402659 L 426.236998 215.148666 L 425.807685 214.892989 L 425.378371 214.637311 L 424.949058 214.381634 L 424.521091 214.123719 L 424.094158 213.864086 L 423.667224 213.604454 L 423.240291 213.344822 L 422.814940 213.082618 L 422.390732 212.818556 L 421.966524 212.554494 L 421.542316 212.290432 L 421.119172 212.024675 L 420.696749 211.757767 L 420.274326 211.490858 L 419.851903 211.223950 L 419.431480 210.953920 L 419.012329 210.681902 L 418.593179 210.409884 L 418.174028 210.137865 L 417.755933 209.864232 L 417.338468 209.589635 L 416.921002 209.315038 L 416.503537 209.040441 L 416.087577 208.763576 L 415.672459 208.485443 L 415.257341 208.207310 L 414.842223 207.929176 L 414.429661 207.647286 L 414.018439 207.363423 L 413.607218 207.079560 L 413.195996 206.795698 L 412.782770 206.514773 L 412.368554 206.235299 L 411.954338 205.955824 L 411.540121 205.676350 L 411.127887 205.393971 L 410.716568 205.110249 L 410.305250 204.826527 L 409.893931 204.542805 L 409.481591 204.260573 L 409.068809 203.978985 L 408.656026 203.697397 L 408.243244 203.415810 L 407.829780 203.135225 L 407.416040 202.855045 L 407.002300 202.574866 L 406.588561 202.294687 L 406.175645 202.013296 L 405.763040 201.731448 L 405.350435 201.449600 L 404.937831 201.167752 L 404.524248 200.887343 L 404.110323 200.607438 L 403.696397 200.327533 L 403.282472 200.047628 L 402.869582 199.766200 L 402.457028 199.484277 L 402.044474 199.202355 L 401.631921 198.920432 L 401.220151 198.637366 L 400.808607 198.353972 L 400.397062 198.070577 L 399.985518 197.787183 L 399.575535 197.501539 L 399.165933 197.215344 L 398.756331 196.929149 L 398.346730 196.642954 L 397.939309 196.353669 L 397.532359 196.063715 L 397.125410 195.773761 L 396.718460 195.483808 L 396.314493 195.189721 L 395.911086 194.894860 L 395.507678 194.599999 L 395.104270 194.305137 L 394.706629 194.002571 L 394.309958 193.698707 L 393.913287 193.394843 L 393.516616 193.090979 L 393.125087 192.780534 L 392.734306 192.469132 L 392.343525 192.157731 L 391.952743 191.846329 L 391.570646 191.524364 L 391.189512 191.201226 L 390.808378 190.878089 L 390.427244 190.554952 L 390.056169 190.220343 L 389.686029 189.884668 L 389.315890 189.548993 L 388.945750 189.213318 L 388.582249 188.870476 L 388.219258 188.527083 L 387.856267 188.183691 L 387.493276 187.840298 L 387.142999 187.483975 L 386.793529 187.126832 L 386.444059 186.769688 L 386.094588 186.412544 L 385.751156 186.049596 L 385.408031 185.686351 L 385.064907 185.323106 L 384.721783 184.959862 L 384.384379 184.591299 L 384.047117 184.222605 L 383.709855 183.853912 L 383.372593 183.485218 L 383.038389 183.113749 L 382.704224 182.742246 L 382.370059 182.370742 L 382.035894 181.999239" fill="none" stroke="black" stroke-width="2.000000" />
	<path d="M 377.291779 119.104759 L 379.135725 118.428070 L 380.981311 117.755901 L 382.836028 117.110064 L 384.702045 116.501071 L 386.589031 115.963251 L 388.498235 115.523871 L 390.427289 115.172638 L 392.374771 114.936280 L 394.331254 114.807505 L 396.292712 114.727708 L 398.255163 114.806160 L 400.212077 114.971733 L 402.161985 115.206289 L 404.104595 115.495612 L 406.039377 115.833374 L 407.967958 116.205440 L 409.887798 116.619554 L 411.800229 117.067398 L 413.706758 117.539565 L 415.607086 118.036261 L 417.503166 118.548980 L 419.395279 119.076133 L 421.284014 119.615314 L 423.171149 120.160077 L 425.056695 120.710303 L 426.940376 121.266893 L 428.822942 121.827242 L 430.703778 122.393354 L 432.581782 122.968794 L 434.457076 123.553006 L 436.329522 124.146274 L 438.199180 124.748289 L 440.066613 125.357158 L 441.931192 125.974717 L 443.793408 126.599372 L 445.654115 127.228512 L 447.513557 127.861381 L 449.372088 128.496919 L 451.230578 129.132580 L 453.089064 129.768254 L 454.948079 130.402377 L 456.808183 131.033293 L 458.670226 131.658462 L 460.534423 132.277176 L 462.401230 132.887964 L 464.271291 133.488712 L 466.144829 134.078518 L 468.022440 134.655222 L 469.904455 135.217382 L 471.790989 135.764177 L 473.682472 136.293595 L 475.578798 136.805396 L 477.479854 137.299337 L 479.385467 137.775399 L 481.295427 138.233715 L 483.209459 138.674715 L 485.127485 139.098006 L 487.049376 139.503394 L 488.974770 139.891818 L 490.903215 140.264804 L 492.834608 140.622208 L 494.768747 140.964458 L 496.705218 141.293244 L 498.644087 141.607597 L 500.585077 141.908560 L 502.528422 142.193931 L 504.473885 142.464503 L 506.420864 142.723933 L 508.369699 142.969050 L 510.319706 143.204660 L 512.270942 143.429868 L 514.223463 143.643615 L 516.177750 143.840599 L 518.133334 144.024146 L 520.091390 144.179202 L 522.051011 144.313023 L 524.011997 144.425079 L 525.974279 144.511544 L 527.937433 144.575358 L 529.900281 144.647373 L 531.864422 144.661580 L 533.828485 144.683755 L 535.791895 144.737450 L 537.752749 144.622997" fill="none" stroke="black" stroke-width="2.000000" />
	<path d="M 416.107147 118.111511 L 418.047342 117.884253 L 419.989509 117.675099 L 421.933402 117.486801 L 423.881094 117.347742 L 425.831583 117.254380 L 427.783910 117.192151 L 429.737371 117.191770 L 431.690821 117.198209 L 433.644254 117.208128 L 435.597569 117.232045 L 437.550824 117.254462 L 439.503712 117.210695 L 441.454213 117.103442 L 443.403038 116.969167 L 445.349179 116.801633 L 447.287260 116.557705 L 449.216170 116.249303 L 451.136483 115.891262 L 453.046778 115.483073 L 454.946884 115.029852 L 456.834952 114.528734 L 458.713917 113.994455 L 460.585880 113.436127 L 462.451260 112.856172 L 464.311034 112.258475 L 466.166878 111.648677 L 468.021024 111.033734 L 469.875655 110.420261 L 471.733265 109.815876 L 473.596357 109.228612 L 475.466023 108.662619 L 477.341257 108.115351 L 479.220336 107.581428 L 481.100023 107.049692 L 482.968312 106.479218 L 484.820523 105.858496 L 486.659609 105.199919 L 488.478605 104.487834 L 490.247103 103.658144 L 491.983503 102.763219 L 493.675436 101.786810" fill="none" stroke="black" stroke-width="2.000000" />
	<path d="M 223.774725 143.511925 L 223.276528 143.540441 L 222.778331 143.568958 L 222.280133 143.597474 L 221.781966 143.626443 L 221.284423 143.664722 L 220.786881 143.703001 L 220.289338 143.741280 L 219.791757 143.779019 L 219.293843 143.812116 L 218.795929 143.845212 L 218.298014 143.878309 L 217.800183 143.912535 L 217.302768 143.952432 L 216.805352 143.992330 L 216.307937 144.032228 L 215.811481 144.080242 L 215.318476 144.157443 L 214.825471 144.234644 L 214.332466 144.311845 L 213.838857 144.384726 L 213.343597 144.445818 L 212.848338 144.506910 L 212.353079 144.568002 L 211.860363 144.643907 L 211.373087 144.751496 L 210.885810 144.859086 L 210.398534 144.966676 L 209.912649 145.080116 L 209.429141 145.203542 L 208.945633 145.326968 L 208.462125 145.450393 L 207.980252 145.579857 L 207.500531 145.717266 L 207.020809 145.854674 L 206.541087 145.992082 L 206.066619 146.145654 L 205.597774 146.316529 L 205.128929 146.487403 L 204.660083 146.658277 L 204.191813 146.830714 L 203.724045 147.004516 L 203.256277 147.178318 L 202.788509 147.352120 L 202.325911 147.538877 L 201.866981 147.734831 L 201.408052 147.930784 L 200.949123 148.126737 L 200.493111 148.329313 L 200.038780 148.535704 L 199.584449 148.742095 L 199.130118 148.948487 L 198.678540 149.160787 L 198.228231 149.375811 L 197.777921 149.590835 L 197.327612 149.805860 L 196.882090 150.030541 L 196.438312 150.258742 L 195.994535 150.486942 L 195.550758 150.715143 L 195.108681 150.946612 L 194.667082 151.179000 L 194.225483 151.411389 L 193.783884 151.643777 L 193.346098 151.883242 L 192.909106 152.124182 L 192.472113 152.365121 L 192.035121 152.606060 L 191.599672 152.849774 L 191.164444 153.093886 L 190.729217 153.337998 L 190.293989 153.582111 L 189.860641 153.829542 L 189.427456 154.077260 L 188.994270 154.324978 L 188.561085 154.572696 L 188.130628 154.825124 L 187.700266 155.077715 L 187.269904 155.330307 L 186.839506 155.582837 L 186.406024 155.830035 L 185.972541 156.077232 L 185.539058 156.324430 L 185.105822 156.572051 L 184.676698 156.826741 L 184.247575 157.081431 L 183.818452 157.336121 L 183.389017 157.590279 L 182.956832 157.839739 L 182.524647 158.089198 L 182.092462 158.338658 L 181.660141 158.587880 L 181.227030 158.835729 L 180.793920 159.083578 L 180.360809 159.331427 L 179.928029 159.579849 L 179.496629 159.830664 L 179.065229 160.081479 L 178.633830 160.332294 L 178.200046 160.578806 L 177.758599 160.811482 L 177.317152 161.044158 L 176.875705 161.276835 L 176.436133 161.512952 L 176.001340 161.757838 L 175.566547 162.002724 L 175.131754 162.247610 L 174.694993 162.488896 L 174.254196 162.722802 L 173.813399 162.956708 L 173.372602 163.190614 L 172.931119 163.423213 L 172.488500 163.653653 L 172.045882 163.884093 L 171.603263 164.114533 L 171.162253 164.348003 L 170.723423 164.585579 L 170.284594 164.823156 L 169.845765 165.060733 L 169.403457 165.291631 L 168.957200 165.514942 L 168.510942 165.738253 L 168.064684 165.961564 L 167.621154 166.190172 L 167.180219 166.423817 L 166.739284 166.657462 L 166.298349 166.891108 L 165.856273 167.122578 L 165.413309 167.352353 L 164.970344 167.582127 L 164.527380 167.811902 L 164.084152 168.041167 L 163.640758 168.270113 L 163.197365 168.499059 L 162.753972 168.728005 L 162.311888 168.959460 L 161.870456 169.192166 L 161.429024 169.424872 L 160.987593 169.657578 L 160.544242 169.886590 L 160.100109 170.114099 L 159.655977 170.341608 L 159.211845 170.569117 L 158.769503 170.800077 L 158.327742 171.032157 L 157.885981 171.264237 L 157.444220 171.496317 L 157.001823 171.727182 L 156.559276 171.957760 L 156.116729 172.188337 L 155.674182 172.418914 L 155.231507 172.649246 L 154.788812 172.879540 L 154.346117 173.109834 L 153.903423 173.340129 L 153.461426 173.571759 L 153.019487 173.803499 L 152.577548 174.035240 L 152.135608 174.266980 L 151.692701 174.496865 L 151.249762 174.726688 L 150.806822 174.956510 L 150.363891 175.186349 L 149.921671 175.417554 L 149.479452 175.648759 L 149.037232 175.879964 L 148.594997 176.111139 L 148.152552 176.341912 L 147.710107 176.572685 L 147.267661 176.803458 L 146.825191 177.034183 L 146.382553 177.264586 L 145.939915 177.494988 L 145.497277 177.725391 L 145.054650 177.955816 L 144.612075 178.186339 L 144.169499 178.416862 L 143.726924 178.647385 L 143.284334 178.877880 L 142.841697 179.108285 L 142.399060 179.338690 L 141.956423 179.569095 L 141.513668 179.799273 L 141.070605 180.028856 L 140.627541 180.258440 L 140.184477 180.488023 L 139.741466 180.717707 L 139.298561 180.947596 L 138.855655 181.177484 L 138.412750 181.407373 L 137.969739 181.637058 L 137.526564 181.866426 L 137.083389 182.095794 L 136.640214 182.325163 L 136.196842 182.554148 L 135.753227 182.782665 L 135.309612 183.011181 L 134.865997 183.239697 L 134.422693 183.468816 L 133.979711 183.698557 L 133.536729 183.928298 L 133.093747 184.158038 L 132.650056 184.386403 L 132.205753 184.613578 L 131.761450 184.840753 L 131.317147 185.067929 L 130.873130 185.295663 L 130.429313 185.523786 L 129.985496 185.751909 L 129.541679 185.980033 L 129.097625 186.207694 L 128.653442 186.435105 L 128.209259 186.662515 L 127.765076 186.889925 L 127.320274 187.116120 L 126.875209 187.341799 L 126.430144 187.567479 L 125.985080 187.793159 L 125.540921 188.020614 L 125.097073 188.248678 L 124.653226 188.476742 L 124.209378 188.704806 L 123.763814 188.929489 L 123.317790 189.153266 L 122.871765 189.377043 L 122.425741 189.600820 L 121.980384 189.825922 L 121.535156 190.051280 L 121.089929 190.276638 L 120.644701 190.501996 L 120.199047 190.726510 L 119.753342 190.950922 L 119.307637 191.175334 L 118.861932 191.399746 L 118.415026 191.621757 L 117.968048 191.843622 L 117.521069 192.065488 L 117.074091 192.287353 L 116.628808 192.512601 L 116.183552 192.737903 L 115.738296 192.963206 L 115.292962 193.188350 L 114.844729 193.407670 L 114.396496 193.626989 L 113.948263 193.846309 L 113.500108 194.065787 L 113.052961 194.287312 L 112.605814 194.508837 L 112.158666 194.730362 L 111.711445 194.951737 L 111.263691 195.172033 L 110.815937 195.392328 L 110.368182 195.612623 L 109.920159 195.832365 L 109.470804 196.049377 L 109.021449 196.266389 L 108.572094 196.483401 L 108.123153 196.701260 L 107.675785 196.922338 L 107.228417 197.143416 L 106.781048 197.364494 L 106.332764 197.583678 L 105.881721 197.797159 L 105.430678 198.010641 L 104.979636 198.224123 L 104.528869 198.438185 L 104.078776 198.653660 L 103.628682 198.869136 L 103.178589 199.084611 L 102.727942 199.298919 L 102.276198 199.510914 L 101.824455 199.722909 L 101.372711 199.934903 L 100.920009 200.144821 L 100.465718 200.351301 L 100.011427 200.557781 L 99.557137 200.764261 L 99.103760 200.972723 L 98.651667 201.183972 L 98.199575 201.395222 L 97.747482 201.606471 L 97.291400 201.808672 L 96.830539 202.000040 L 96.369679 202.191408 L 95.908818 202.382775 L 95.449620 202.578049 L 94.992119 202.777316 L 94.534619 202.976583 L 94.077118 203.175850 L 93.617346 203.369742 L 93.155603 203.558968 L 92.693859 203.748194 L 92.232115 203.937420 L 91.767876 204.120347 L 91.301797 204.298629 L 90.835719 204.476912 L 90.369640 204.655194 L 89.909006 204.846770 L 89.451781 205.046667 L 88.994555 205.246564 L 88.537330 205.446461 L 88.070314 205.621170 L 87.598107 205.782520 L 87.125900 205.943871 L 86.653692 206.105222 L 86.187478 206.282779 L 85.723908 206.467485 L 85.260337 206.652191 L 84.796766 206.836897 L 84.337408 207.031730 L 83.879585 207.230255 L 83.421762 207.428779 L 82.963940 207.627304 L 82.506074 207.825730 L 82.048195 208.024126 L 81.590316 208.222522 L 81.132437 208.420918 L 80.674513 208.619208 L 80.216577 208.817473 L 79.758642 209.015738 L 79.300706 209.214003 L 78.842115 209.410745 L 78.383406 209.607214 L 77.924697 209.803683 L 77.465988 210.000152 L 77.006586 210.194994 L 76.547095 210.389626 L 76.087604 210.584259 L 75.628113 210.778891 L 75.168163 210.972436 L 74.708174 211.165890 L 74.248186 211.359345 L 73.788198 211.552800 L 73.328009 211.745776 L 72.867812 211.938733 L 72.407615 212.131691 L 71.947418 212.324648" fill="none" stroke="black" stroke-width="2.000000" />
	<path d="M 188.994263 154.324982 L 187.179323 153.552058 L 185.363056 152.782339 L 183.529824 152.054663 L 181.684184 151.361624 L 179.814695 150.736508 L 177.923097 150.183483 L 176.011189 149.705552 L 174.088223 149.268281 L 172.143189 148.940631 L 170.188480 148.676279 L 168.227293 148.464710 L 166.261566 148.300429 L 164.292978 148.174073 L 162.322496 148.081999 L 160.350955 148.014830 L 158.378807 147.969424 L 156.406343 147.938776 L 154.433736 147.920446 L 152.461056 147.910280 L 150.488361 147.907694 L 148.515657 147.911189 L 146.542990 147.921746 L 144.570373 147.940514 L 142.597890 147.968942 L 140.625582 148.008560 L 138.653576 148.060110 L 136.681920 148.124478 L 134.710724 148.200786 L 132.740091 148.291200 L 130.770007 148.392198 L 128.800677 148.507576 L 126.831949 148.632224 L 124.864236 148.772502 L 122.897193 148.921467 L 120.931427 149.086786 L 118.966464 149.261187 L 117.002917 149.451025 L 115.040396 149.651132 L 113.079255 149.864347 L 111.119353 150.088733 L 109.160395 150.321161 L 107.202627 150.563476 L 105.245279 150.809153 L 103.288627 151.060264 L 101.333232 151.321035 L 99.378270 151.584936 L 97.425376 151.863810 L 95.473722 152.151175 L 93.524471 152.454401 L 91.578063 152.775352 L 89.635116 153.116622 L 87.696235 153.480248 L 85.762539 153.870482 L 83.835257 154.291224 L 81.915992 154.747092 L 80.007112 155.244657 L 78.110304 155.786377 L 76.229105 156.380070 L 74.364688 157.024521 L 72.520498 157.724806 L 70.696428 158.475975 L 68.891781 159.272702 L 67.105362 160.109528 L 65.323016 160.954995" fill="none" stroke="black" stroke-width="2.000000" />
	<path d="M 20.584708 45.069257 L 20.208353 45.398378 L 19.831998 45.727500 L 19.455643 46.056622 L 19.079288 46.385743 L 18.746102 46.758438 L 18.413486 47.131708 L 18.080870 47.504978 L 17.748253 47.878248 L 17.460933 48.287066 L 17.177427 48.698878 L 16.893922 49.110689 L 16.610416 49.522500 L 16.357973 49.953707 L 16.112427 50.389220 L 15.866881 50.824732 L 15.621335 51.260245 L 15.394377 51.705511 L 15.175522 52.155029 L 14.956666 52.604547 L 14.737811 53.054065 L 14.534255 53.510494 L 14.341652 53.971870 L 14.149049 54.433247 L 13.956447 54.894624 L 13.770253 55.358566 L 13.591199 55.825368 L 13.412146 56.292170 L 13.233093 56.758972 L 13.059282 57.227697 L 12.893942 57.699531 L 12.728602 58.171364 L 12.563262 58.643198 L 12.404550 59.117189 L 12.260446 59.595935 L 12.116343 60.074682 L 11.972240 60.553429 L 11.831651 61.033177 L 11.701536 61.515914 L 11.571422 61.998650 L 11.441308 62.481386 L 11.310133 62.963831 L 11.174875 63.445151 L 11.039617 63.926472 L 10.904359 64.407792 L 10.771529 64.889760 L 10.649405 65.374579 L 10.527281 65.859398 L 10.405156 66.344217 L 10.282793 66.828976 L 10.159313 67.313452 L 10.035833 67.797928 L 9.912352 68.282403 L 9.789879 68.767130 L 9.671781 69.252946 L 9.553683 69.738761 L 9.435585 70.224577 L 9.318660 70.710671 L 9.206138 71.197808 L 9.093615 71.684946 L 8.981092 72.172083 L 8.868839 72.659282 L 8.757411 73.146671 L 8.645984 73.634060 L 8.534556 74.121449 L 8.423091 74.608829 L 8.311533 75.096189 L 8.199976 75.583548 L 8.088418 76.070907 L 7.979806 76.558913 L 7.876879 77.048168 L 7.773951 77.537422 L 7.671024 78.026677 L 7.568478 78.516011 L 7.466492 79.005463 L 7.364506 79.494915 L 7.262520 79.984366 L 7.163773 80.474470 L 7.068599 80.965291 L 6.973424 81.456113 L 6.878250 81.946935 L 6.785949 82.438298 L 6.695967 82.930098 L 6.605986 83.421898 L 6.516004 83.913698 L 6.427345 84.405738 L 6.339479 84.897920 L 6.251612 85.390103 L 6.163746 85.882285 L 6.082329 86.375557 L 6.003611 86.869286 L 5.924893 87.363014 L 5.846174 87.856742 L 5.767469 88.350472 L 5.688766 88.844203 L 5.610064 89.337934 L 5.531362 89.831664 L 5.458798 90.326330 L 5.387028 90.821116 L 5.315258 91.315902 L 5.243488 91.810688 L 5.176734 92.306175 L 5.110045 92.801671 L 5.043355 93.297168 L 4.976815 93.792684 L 4.912329 94.288472 L 4.847843 94.784259 L 4.783356 95.280047 L 4.719952 95.775968 L 4.662290 96.272596 L 4.604629 96.769224 L 4.546967 97.265852 L 4.489588 97.762512 L 4.433052 98.259270 L 4.376516 98.756027 L 4.319979 99.252784 L 4.264920 99.749703 L 4.212474 100.246909 L 4.160028 100.744115 L 4.107582 101.241320 L 4.056533 101.738669 L 4.007169 102.236190 L 3.957805 102.733711 L 3.908442 103.231233 L 3.860371 103.728879 L 3.813426 104.226634 L 3.766481 104.724389 L 3.719537 105.222145 L 3.675514 105.720161 L 3.633315 106.218341 L 3.591116 106.716522 L 3.548916 107.214702 L 3.504746 107.712709 L 3.459723 108.210642 L 3.414700 108.708574 L 3.369677 109.206507 L 3.324192 109.704398 L 3.278579 110.202277 L 3.232965 110.700156 L 3.187351 111.198035 L 3.148839 111.696506 L 3.111435 112.195069 L 3.074031 112.693632 L 3.036627 113.192195 L 2.998244 113.690683 L 2.959805 114.189167 L 2.921365 114.687652 L 2.883089 115.186147 L 2.849685 115.684994 L 2.816281 116.183841 L 2.782877 116.682688 L 2.750097 117.181574 L 2.722299 117.680764 L 2.694500 118.179955 L 2.666702 118.679146 L 2.640396 119.178408 L 2.619927 119.677953 L 2.599458 120.177498 L 2.578988 120.677043 L 2.561574 121.176686 L 2.550140 121.676519 L 2.538707 122.176352 L 2.527274 122.676186 L 2.518197 123.176067 L 2.509363 123.675953 L 2.500528 124.175839 L 2.491694 124.675725 L 2.491941 125.175688 L 2.492308 125.675652 L 2.492675 126.175616 L 2.493746 126.675575 L 2.499635 127.175505 L 2.505523 127.675434 L 2.511412 128.175364 L 2.518284 128.675277 L 2.528800 129.175130 L 2.539317 129.674984 L 2.549833 130.174837 L 2.561251 130.674669 L 2.574726 131.174452 L 2.588202 131.674234 L 2.601678 132.174017 L 2.616303 132.673765 L 2.632659 133.173461 L 2.649015 133.673158 L 2.665370 134.172854 L 2.683181 134.672499 L 2.702455 135.172091 L 2.721730 135.671684 L 2.741004 136.171276 L 2.762728 136.670764 L 2.786011 137.170186 L 2.809293 137.669608 L 2.832576 138.169029 L 2.857064 138.668393 L 2.882024 139.167734 L 2.906983 139.667074 L 2.931943 140.166415 L 2.959593 140.665613 L 2.987750 141.164783 L 3.015907 141.663954 L 3.044064 142.163124 L 3.073884 142.662198 L 3.103749 143.161270 L 3.133615 143.660341 L 3.163656 144.159401 L 3.195266 144.658365 L 3.226875 145.157329 L 3.258485 145.656293 L 3.290400 146.155237 L 3.323307 146.654117 L 3.356215 147.152997 L 3.389122 147.651877 L 3.421719 148.150777 L 3.453808 148.649710 L 3.485897 149.148644 L 3.517987 149.647577 L 3.551613 150.146409 L 3.585238 150.645241 L 3.618864 151.144073 L 3.654374 151.642772 L 3.691253 152.141374 L 3.728132 152.639976 L 3.765011 153.138578 L 3.804714 153.636960 L 3.845411 154.135265 L 3.886107 154.633571 L 3.926803 155.131876 L 3.964896 155.630386 L 4.002702 156.128918 L 4.040764 156.627430 L 4.083684 157.125549 L 4.126605 157.623667 L 4.170783 158.121674 L 4.216147 158.619576 L 4.261510 159.117478 L 4.306874 159.615379 L 4.352179 160.113287 L 4.397455 160.611196 L 4.442731 161.109106 L 4.488007 161.607016 L 4.534165 162.104845 L 4.580416 162.602665 L 4.626667 163.100485 L 4.673019 163.598296 L 4.721594 164.095895 L 4.770170 164.593493 L 4.818745 165.091092 L 4.868014 165.588621 L 4.920315 166.085842 L 4.972616 166.583063 L 5.024917 167.080284 L 5.078384 167.577378 L 5.134062 168.074232 L 5.189741 168.571086 L 5.245419 169.067940 L 5.302045 169.564686 L 5.359746 170.061309 L 5.417448 170.557933 L 5.475149 171.054556 L 5.536403 171.550745 L 5.600013 172.046646 L 5.663623 172.542547 L 5.727232 173.038448 L 5.791574 173.534255 L 5.856206 174.030024 L 5.920839 174.525793 L 5.985471 175.021561 L 6.055094 175.516649 L 6.125791 176.011589 L 6.196487 176.506530 L 6.267183 177.001470 L 6.340061 177.496094 L 6.413000 177.990709 L 6.485938 178.485324 L 6.559133 178.979901 L 6.635596 179.473983 L 6.712059 179.968066 L 6.788522 180.462148 L 6.865716 180.956114 L 6.946500 181.449509 L 7.027284 181.942903 L 7.108069 182.436297 L 7.189214 182.929632 L 7.271351 183.422803 L 7.353487 183.915974 L 7.435624 184.409145 L 7.518598 184.902175 L 7.603073 185.394951 L 7.687548 185.887726 L 7.772023 186.380502 L 7.857321 186.873136 L 7.943635 187.365593 L 8.029949 187.858050 L 8.116263 188.350507 L 8.203438 188.842812 L 8.291359 189.334984 L 8.379280 189.827157 L 8.467201 190.319330 L 8.555920 190.811359 L 8.645123 191.303301 L 8.734325 191.795243 L 8.823527 192.287185 L 8.914377 192.778825 L 9.005901 193.270340 L 9.097426 193.761855 L 9.188951 194.253371 L 9.281247 194.744742 L 9.373739 195.236076 L 9.466230 195.727410 L 9.558722 196.218744 L 9.652054 196.709920 L 9.745489 197.201076 L 9.838923 197.692231 L 9.932358 198.183387 L 10.032512 198.673216 L 10.132823 199.163014 L 10.233133 199.652812 L 10.332912 200.142714 L 10.424604 200.634198 L 10.516296 201.125682 L 10.607988 201.617166 L 10.702018 202.108176 L 10.809106 202.596537 L 10.916193 203.084898 L 11.023281 203.573259 L 11.129113 204.061888 L 11.230887 204.551383 L 11.332661 205.040879 L 11.434435 205.530375 L 11.539477 206.019156 L 11.651299 206.506455 L 11.763120 206.993754 L 11.874941 207.481053 L 11.989003 207.967824 L 12.106267 208.453842 L 12.223531 208.939859 L 12.340796 209.425877 L 12.459049 209.911654 L 12.578301 210.397188 L 12.697552 210.882722 L 12.816804 211.368256 L 12.944457 211.851593 L 13.078058 212.333376 L 13.211659 212.815159 L 13.345260 213.296942 L 13.479140 213.778648 L 13.613159 214.260315 L 13.747178 214.741982 L 13.881196 215.223649 L 14.021442 215.703525 L 14.163717 216.182819 L 14.305991 216.662112 L 14.448265 217.141405 L 14.600403 217.617638 L 14.754437 218.093283 L 14.908471 218.568927 L 15.062505 219.044572 L 15.218186 219.519679 L 15.374009 219.994741 L 15.529832 220.469802 L 15.685707 220.944846 L 15.853263 221.415897 L 16.020818 221.886948 L 16.188374 222.357999 L 16.356929 222.828681 L 16.536345 223.295343 L 16.715760 223.762006 L 16.895176 224.228669 L 17.081222 224.692452 L 17.299754 225.142128 L 17.518285 225.591803 L 17.736816 226.041479 L 17.963190 226.486968 L 18.215274 226.918728 L 18.467359 227.350489 L 18.719444 227.782250 L 18.976927 228.210701 L 19.247332 228.631231 L 19.517736 229.051761 L 19.788141 229.472291 L 20.059056 229.892492 L 20.331101 230.311962 L 20.603146 230.731432 L 20.875192 231.150903 L 21.147058 231.570490 L 21.418564 231.990309 L 21.690070 232.410129 L 21.961576 232.829949 L 22.231765 233.250613 L 22.499901 233.672592 L 22.768038 234.094572 L 23.036174 234.516552 L 23.306737 234.936967 L 23.580606 235.355249 L 23.854475 235.773530 L 24.128345 236.191812 L 24.401573 236.610513 L 24.674425 237.029459 L 24.947276 237.448405 L 25.220128 237.867352 L 25.498193 238.282837 L 25.778398 238.696901 L 26.058603 239.110966 L 26.338808 239.525030 L 26.629505 239.931730 L 26.923678 240.335990 L 27.217852 240.740250 L 27.512026 241.144510 L 27.798052 241.554539 L 28.081700 241.966252 L 28.365349 242.377965 L 28.648997 242.789678 L 28.928382 243.204288 L 29.206671 243.619643 L 29.484959 244.034998 L 29.763247 244.450353 L 30.039031 244.867372 L 30.314279 245.284748 L 30.589528 245.702124 L 30.864776 246.119500 L 31.130997 246.542668 L 31.395728 246.966792 L 31.660460 247.390916 L 31.925191 247.815041 L 32.178974 248.245788 L 32.431775 248.677130 L 32.684577 249.108472 L 32.937378 249.539814 L 33.176092 249.979104 L 33.414628 250.418496 L 33.653163 250.857887 L 33.891147 251.297570 L 34.119922 251.742122 L 34.348696 252.186674 L 34.577471 252.631226 L 34.804651 253.076572 L 35.021731 253.526950 L 35.238811 253.977328 L 35.455891 254.427706 L 35.671153 254.878941 L 35.880506 255.332962 L 36.089859 255.786984 L 36.299212 256.241005 L 36.504973 256.696632 L 36.703587 257.155453 L 36.902201 257.614274 L 37.100815 258.073094 L 37.295972 258.533379 L 37.487062 258.995383 L 37.678153 259.457388 L 37.869244 259.919393 L 38.055470 260.383359 L 38.238186 260.848739 L 38.420901 261.314120 L 38.603617 261.779501 L 38.781622 262.246692 L 38.957712 262.714620 L 39.133801 263.182548 L 39.309891 263.650476 L 39.482047 264.119862 L 39.653510 264.589505 L 39.824973 265.059148 L 39.996436 265.528791 L 40.160738 266.000987 L 40.325010 266.473193 L 40.489283 266.945399 L 40.652905 267.417828 L 40.812990 267.891470 L 40.973075 268.365112 L 41.133160 268.838755 L 41.292053 269.312794 L 41.448422 269.787676 L 41.604791 270.262558 L 41.761160 270.737440 L 41.915826 271.212876 L 42.068760 271.688875 L 42.221694 272.164875 L 42.374628 272.640874 L 42.525986 273.117375 L 42.676620 273.594107 L 42.827255 274.070839 L 42.977889 274.547571 L 43.125660 275.025197 L 43.273034 275.502947 L 43.420408 275.980697 L 43.567984 276.458384 L 43.717832 276.935364 L 43.867679 277.412344 L 44.017527 277.889324 L 44.166592 278.366547 L 44.313774 278.844356 L 44.460956 279.322165 L 44.608137 279.799975 L 44.753080 280.278463 L 44.896070 280.757543 L 45.039061 281.236623 L 45.182051 281.715703 L 45.325343 282.194694 L 45.468700 282.673664 L 45.612057 283.152635 L 45.755331 283.631630 L 45.897491 284.110958 L 46.039651 284.590285 L 46.181811 285.069612 L 46.325943 285.548341 L 46.474126 286.025841 L 46.622310 286.503340 L 46.770493 286.980840 L 46.921281 287.457518 L 47.073766 287.933661 L 47.226250 288.409805 L 47.378735 288.885948 L 47.534711 289.360957 L 47.691151 289.835816 L 47.847590 290.310675 L 48.005397 290.785070 L 48.169797 291.257232 L 48.334198 291.729394 L 48.498598 292.201555 L 48.666815 292.672352 L 48.839133 293.141682 L 49.011451 293.611012 L 49.183770 294.080341 L 49.363570 294.546838 L 49.545390 295.012569 L 49.727211 295.478300 L 49.910264 295.943531 L 50.104193 296.404352 L 50.298122 296.865172 L 50.492051 297.325993 L 50.690830 297.784701 L 50.896253 298.240513 L 51.101676 298.696326 L 51.307099 299.152139 L 51.521254 299.603882 L 51.738302 300.054275 L 51.955350 300.504669 L 52.173502 300.954512 L 52.401955 301.399230 L 52.630407 301.843947 L 52.858860 302.288665 L 53.093490 302.730084 L 53.335893 303.167354 L 53.578295 303.604624 L 53.820698 304.041894 L 54.080013 304.469292 L 54.341558 304.895389 L 54.603102 305.321486 L 54.877379 305.738377 L 55.200062 306.120266 L 55.522746 306.502155 L 55.845430 306.884044 L 56.190310 307.245390 L 56.546139 307.596602 L 56.901969 307.947813 L 57.257816 308.299006 L 57.614761 308.649084 L 57.971707 308.999161 L 58.328652 309.349238 L 58.697590 309.684336 L 59.117281 309.956041 L 59.536972 310.227746 L 59.956663 310.499451 L 60.377096 310.769999 L 60.799000 311.038255 L 61.220903 311.306512 L 61.642806 311.574769 L 62.074144 311.826789 L 62.516127 312.060488 L 62.958110 312.294187 L 63.400093 312.527886 L 63.861442 312.713137 L 64.342733 312.848497 L 64.824025 312.983857 L 65.305317 313.119217 L 65.792193 313.228686 L 66.286491 313.303744 L 66.780789 313.378802 L 67.275087 313.453860 L 67.771175 313.512568 L 68.270003 313.546258 L 68.768830 313.579948 L 69.267658 313.613638 L 69.766763 313.638585 L 70.266723 313.636608 L 70.766684 313.634631 L 71.266644 313.632654 L 71.766528 313.627665 L 72.265953 313.604451 L 72.765378 313.581237 L 73.264803 313.558023 L 73.764228 313.534809 L 74.261656 313.484830 L 74.758998 313.433695 L 75.256341 313.382560 L 75.753683 313.331425 L 76.248787 313.262601 L 76.743196 313.188277 L 77.237605 313.113953 L 77.732014 313.039630 L 78.224288 312.952994 L 78.714865 312.856566 L 79.205442 312.760138 L 79.696019 312.663709 L 80.185640 312.562740 L 80.673476 312.453284 L 81.161312 312.343828 L 81.649147 312.234373 L 82.136548 312.123091 L 82.621378 312.001010 L 83.106209 311.878929 L 83.591039 311.756848 L 84.075869 311.634767 L 84.558018 311.502520 L 85.040004 311.369651 L 85.521989 311.236782 L 86.003975 311.103913 L 86.484155 310.964712 L 86.963736 310.823412 L 87.443318 310.682112 L 87.922899 310.540812 L 88.401038 310.394769 L 88.878076 310.245108 L 89.355115 310.095446 L 89.832153 309.945785 L 90.308381 309.793601 L 90.783313 309.637384 L 91.258244 309.481166 L 91.733176 309.324948 L 92.207640 309.167337 L 92.680602 309.005255 L 93.153565 308.843174 L 93.626528 308.681092 L 94.099291 308.518443 L 94.569486 308.348499 L 95.039680 308.178556 L 95.509875 308.008612 L 95.980070 307.838668 L 96.449178 307.665749 L 96.918223 307.492656 L 97.387268 307.319564 L 97.856313 307.146471 L 98.324715 306.971647 L 98.792986 306.796475 L 99.261258 306.621302 L 99.729530 306.446129 L 100.197330 306.269701 L 100.664920 306.092717 L 101.132511 305.915734 L 101.600102 305.738750 L 102.067366 305.560909 L 102.534401 305.382466 L 103.001437 305.204022 L 103.468472 305.025579 L 103.935330 304.846673 L 104.401986 304.667240 L 104.868642 304.487807 L 105.335298 304.308374 L 105.801793 304.128523 L 106.268024 303.947987 L 106.734254 303.767451 L 107.200485 303.586915 L 107.666537 303.405921 L 108.132181 303.223878 L 108.597825 303.041836 L 109.063470 302.859793 L 109.528987 302.677428 L 109.994022 302.493834 L 110.459057 302.310240 L 110.924092 302.126646 L 111.389044 301.942843 L 111.853479 301.757737 L 112.317913 301.572630 L 112.782348 301.387523 L 113.246702 301.202216 L 113.709843 301.013895 L 114.172983 300.825574 L 114.636124 300.637253 L 115.099255 300.448908 L 115.561294 300.257900 L 116.023333 300.066891 L 116.485371 299.875883 L 116.947410 299.684874 L 117.408251 299.490995 L 117.869025 299.296955 L 118.329799 299.102916 L 118.790573 298.908876 L 119.248750 298.708797 L 119.706569 298.507882 L 120.164387 298.306968 L 120.622205 298.106053 L 121.079444 297.903826 L 121.536557 297.701312 L 121.993670 297.498798 L 122.450783 297.296284 L 122.904411 297.086132 L 123.356943 296.873579 L 123.809475 296.661026 L 124.262007 296.448473 L 124.712097 296.230826 L 125.161160 296.011039 L 125.610223 295.791253 L 126.059287 295.571466 L 126.506916 295.348786 L 126.953758 295.124517 L 127.400599 294.900248 L 127.847441 294.675979 L 128.290748 294.444892 L 128.731572 294.209013 L 129.172395 293.973134 L 129.613218 293.737255 L 130.055080 293.503336 L 130.497870 293.271170 L 130.940660 293.039003 L 131.383450 292.806837 L 131.823722 292.569997 L 132.261227 292.328018 L 132.698732 292.086039 L 133.136236 291.844060 L 133.573157 291.601033 L 134.009285 291.356582 L 134.445413 291.112130 L 134.881541 290.867679 L 135.317190 290.622378 L 135.752041 290.375662 L 136.186892 290.128946 L 136.621743 289.882230 L 137.055089 289.632918 L 137.485376 289.378325 L 137.915662 289.123732 L 138.345949 288.869138 L 138.776106 288.614327 L 139.205938 288.358967 L 139.635769 288.103606 L 140.065601 287.848246 L 140.494394 287.591171 L 140.919956 287.328757 L 141.345518 287.066343 L 141.771080 286.803928 L 142.196186 286.540781 L 142.619496 286.274750 L 143.042806 286.008719 L 143.466117 285.742689 L 143.889045 285.476055 L 144.310054 285.206398 L 144.731064 284.936741 L 145.152074 284.667084 L 145.572618 284.396710 L 145.990059 284.121561 L 146.407499 283.846411 L 146.824940 283.571262 L 147.242283 283.295964 L 147.658701 283.019268 L 148.075118 282.742573 L 148.491536 282.465877 L 148.907708 282.188818 L 149.320413 281.906614 L 149.733118 281.624411 L 150.145823 281.342207 L 150.558470 281.059920 L 150.969641 280.775486 L 151.380812 280.491052 L 151.791982 280.206618 L 152.203126 279.922145 L 152.612414 279.635008 L 153.021702 279.347872 L 153.430990 279.060735 L 153.840278 278.773599 L 154.245950 278.481375 L 154.651585 278.189102 L 155.057221 277.896829 L 155.462857 277.604556 L 155.868426 277.312190 L 156.273994 277.019821 L 156.679561 276.727453 L 157.085128 276.435084 L 157.486636 276.137170 L 157.887922 275.838953 L 158.289208 275.540736 L 158.690494 275.242518 L 159.090439 274.942505 L 159.490285 274.642359 L 159.890131 274.342214 L 160.289977 274.042068 L 160.688084 273.739621 L 161.086045 273.436981 L 161.484006 273.134341 L 161.881967 272.831701 L 162.276133 272.524141 L 162.669924 272.216094 L 163.063715 271.908047 L 163.457506 271.600001 L 163.851484 271.292193 L 164.245484 270.984413 L 164.639483 270.676633 L 165.033483 270.368853 L 165.423316 270.055822 L 165.812622 269.742127 L 166.201928 269.428431 L 166.591234 269.114735 L 166.979207 268.799393 L 167.367004 268.483835 L 167.754802 268.168277 L 168.142600 267.852719 L 168.528563 267.534920 L 168.914300 267.216847 L 169.300038 266.898774 L 169.685776 266.580701 L 170.067542 266.257878 L 170.448818 265.934471 L 170.830094 265.611063 L 171.211370 265.287655 L 171.592914 264.964563 L 171.974494 264.641513 L 172.356073 264.318463 L 172.737652 263.995414 L 173.114838 263.667254 L 173.491449 263.338424 L 173.868059 263.009594 L 174.244669 262.680765 L 174.619753 262.350196 L 174.994660 262.019426 L 175.369567 261.688657 L 175.744474 261.357887 L 176.117441 261.024931 L 176.490238 260.691785 L 176.863036 260.358640 L 177.235834 260.025494 L 177.604512 259.687800 L 177.972888 259.349771 L 178.341264 259.011743 L 178.709640 258.673714 L 179.077222 258.334823 L 179.444744 257.995866 L 179.812267 257.656910 L 180.179789 257.317954 L 180.544434 256.975905 L 180.908886 256.633650 L 181.273339 256.291395 L 181.637792 255.949141 L 181.998804 255.603259 L 182.359702 255.257258 L 182.720600 254.911257 L 183.081474 254.565231 L 183.439847 254.216616 L 183.798220 253.868001 L 184.156593 253.519385 L 184.514872 253.170674 L 184.869997 252.818750 L 185.225122 252.466826 L 185.580247 252.114902 L 185.935282 251.762889 L 186.287662 251.408216 L 186.640042 251.053543 L 186.992421 250.698871 L 187.344688 250.344087 L 187.694547 249.986927 L 188.044406 249.629768 L 188.394265 249.272609 L 188.743644 248.914983 L 189.090333 248.554746 L 189.437023 248.194510 L 189.783713 247.834273 L 190.129848 247.473507 L 190.473559 247.110428 L 190.817271 246.747349 L 191.160982 246.384270 L 191.504222 246.020747 L 191.845622 245.655493 L 192.187023 245.290240 L 192.528423 244.924987 L 192.868967 244.558942 L 193.206320 244.189948 L 193.543674 243.820954 L 193.881027 243.451959 L 194.218031 243.082646 L 194.553834 242.712241 L 194.889638 242.341836 L 195.225441 241.971431 L 195.559860 241.599782 L 195.892042 241.226126 L 196.224225 240.852470 L 196.556407 240.478814 L 196.887112 240.103856 L 197.215797 239.727120 L 197.544482 239.350383 L 197.873167 238.973647 L 198.201717 238.596793 L 198.530096 238.219789 L 198.858474 237.842786 L 199.186853 237.465783 L 199.511739 237.085796 L 199.832736 236.702488 L 200.153733 236.319180 L 200.474730 235.935872 L 200.796145 235.552915 L 201.118006 235.170332 L 201.439867 234.787750 L 201.761729 234.405167 L 202.080589 234.020100 L 202.396454 233.632552 L 202.712319 233.245004 L 203.028183 232.857455 L 203.343287 232.469290 L 203.657677 232.080544 L 203.972067 231.691798 L 204.286457 231.303052 L 204.601217 230.914608 L 204.916310 230.526431 L 205.231402 230.138254 L 205.546494 229.750078 L 205.858298 229.359275 L 206.167336 228.966260 L 206.476373 228.573246 L 206.785410 228.180232 L 207.095813 227.788299 L 207.407299 227.397223 L 207.718785 227.006146 L 208.030271 226.615070 L 208.340871 226.223291 L 208.650815 225.830992 L 208.960760 225.438693 L 209.270704 225.046394 L 209.579018 224.652816 L 209.886204 224.258353 L 210.193391 223.863891 L 210.500577 223.469428 L 210.808251 223.075346 L 211.116238 222.681509 L 211.424226 222.287672 L 211.732214 221.893835 L 212.037539 221.497938 L 212.341280 221.100817 L 212.645022 220.703696 L 212.948763 220.306575 L 213.250281 219.907769 L 213.550583 219.508040 L 213.850885 219.108312 L 214.151187 218.708583 L 214.445693 218.304596 L 214.737334 217.898506 L 215.028975 217.492415 L 215.320616 217.086325 L 215.607742 216.677046 L 215.892836 216.266333 L 216.177930 215.855619 L 216.463024 215.444906 L 216.743232 215.030861 L 217.021446 214.615456 L 217.299659 214.200051 L 217.577873 213.784646 L 217.850723 213.365716 L 218.121596 212.945488 L 218.392469 212.525260 L 218.663342 212.105032 L 218.928446 211.681158 L 219.191637 211.256076 L 219.454828 210.830995 L 219.718020 210.405913 L 219.972825 209.975785 L 220.225146 209.544162 L 220.477466 209.112539 L 220.729787 208.680916 L 220.975856 208.245715 L 221.220277 207.809570 L 221.464698 207.373424 L 221.709119 206.937279 L 221.944229 206.496074 L 222.177209 206.053712 L 222.410189 205.611350 L 222.643169 205.168988 L 222.866635 204.721770 L 223.088189 204.273575 L 223.309742 203.825381 L 223.531295 203.377186 L 223.743930 202.924711 L 223.955024 202.471497 L 224.166119 202.018283 L 224.377213 201.565068 L 224.573214 201.105169 L 224.766954 200.644269 L 224.960694 200.183369 L 225.154434 199.722469 L 225.340132 199.258281 L 225.524799 198.793671 L 225.709467 198.329062 L 225.894134 197.864452 L 226.065360 197.394747 L 226.235106 196.924480 L 226.404852 196.454214 L 226.574598 195.983948 L 226.732242 195.509503 L 226.888787 195.034679 L 227.045333 194.559856 L 227.201878 194.085032 L 227.347515 193.606759 L 227.492350 193.128234 L 227.637185 192.649708 L 227.782021 192.171182 L 227.913591 191.688853 L 228.044355 191.206292 L 228.175118 190.723731 L 228.305668 190.241115 L 228.423332 189.755194 L 228.540996 189.269273 L 228.658660 188.783352 L 228.775996 188.297356 L 228.880644 187.808467 L 228.985292 187.319578 L 229.089941 186.830688 L 229.192192 186.341356 L 229.269038 185.847333 L 229.345884 185.353310 L 229.422731 184.859287 L 229.499822 184.365302 L 229.577456 183.871403 L 229.655091 183.377503 L 229.732726 182.883603 L 229.806311 182.389120 L 229.871129 181.893376 L 229.935948 181.397631 L 230.000766 180.901887 L 230.058763 180.405338 L 230.111049 179.908115 L 230.163335 179.410892 L 230.215621 178.913670 L 230.263324 178.416004 L 230.307251 177.917974 L 230.351178 177.419943 L 230.395104 176.921912 L 230.432979 176.423415 L 230.465940 175.924538 L 230.498902 175.425662 L 230.531864 174.926786 L 230.561071 174.427687 L 230.587269 173.928410 L 230.613467 173.429132 L 230.639665 172.929855 L 230.665389 172.430553 L 230.690738 171.931232 L 230.716087 171.431911 L 230.741437 170.932590 L 230.757880 170.432958 L 230.767424 169.933085 L 230.776967 169.433212 L 230.786511 168.933339 L 230.790926 168.433415 L 230.791421 167.933451 L 230.791916 167.433487 L 230.792410 166.933523 L 230.786976 166.433615 L 230.777072 165.933749 L 230.767167 165.433883 L 230.757263 164.934017 L 230.743173 164.434265 L 230.725970 163.934596 L 230.708767 163.434928 L 230.691564 162.935260 L 230.671412 162.435709 L 230.649096 161.936243 L 230.626780 161.436777 L 230.604465 160.937312 L 230.579201 160.437992 L 230.551825 159.938778 L 230.524449 159.439564 L 230.497072 158.940350 L 230.467412 158.441270 L 230.436145 157.942285 L 230.404877 157.443300 L 230.373609 156.944314 L 230.340119 156.445476 L 230.305094 155.946741 L 230.270069 155.448005 L 230.235045 154.949269 L 230.197598 154.450713 L 230.158518 153.952279 L 230.119438 153.453845 L 230.080358 152.955410 L 230.038722 152.457187 L 229.995407 151.959103 L 229.952092 151.461019 L 229.908776 150.962934 L 229.863142 150.465061 L 229.816027 149.967322 L 229.768911 149.469582 L 229.721795 148.971843 L 229.671779 148.474393 L 229.619964 147.977121 L 229.568149 147.479849 L 229.516334 146.982577 L 229.461837 146.485596 L 229.405732 145.988790 L 229.349626 145.491984 L 229.293521 144.995178 L 229.234329 144.498736 L 229.173347 144.002505 L 229.112366 143.506274 L 229.051385 143.010042 L 228.986997 142.514248 L 228.920707 142.018698 L 228.854417 141.523148 L 228.788127 141.027599 L 228.718782 140.532472 L 228.647795 140.037573 L 228.576808 139.542674 L 228.505822 139.047775 L 228.430773 138.553485 L 228.353632 138.059508 L 228.276490 137.565531 L 228.199348 137.071554 L 228.118577 136.578164 L 228.036014 136.085064 L 227.953451 135.591964 L 227.870888 135.098864 L 227.783871 134.606541 L 227.694753 134.114583 L 227.605635 133.622626 L 227.516516 133.130669 L 227.422368 132.639661 L 227.325953 132.149082 L 227.229539 131.658502 L 227.133125 131.167922 L 227.032814 130.678131 L 226.930833 130.188679 L 226.828853 129.699226 L 226.726872 129.209773 L 226.618460 128.721723 L 226.507429 128.234243 L 226.396398 127.746764 L 226.285367 127.259284 L 226.170058 126.772807 L 226.053096 126.286716 L 225.936133 125.800626 L 225.819171 125.314535 L 225.695020 124.830252 L 225.568238 124.346629 L 225.441456 123.863007 L 225.314674 123.379385 L 225.178565 122.898338 L 225.039223 122.418184 L 224.899882 121.938030 L 224.760540 121.457876 L 224.619879 120.978107 L 224.478785 120.498465 L 224.337692 120.018823 L 224.196598 119.539180 L 224.038420 119.065003 L 223.874958 118.592516 L 223.711496 118.120028 L 223.548035 117.647541 L 223.385729 117.174655 L 223.223760 116.701654 L 223.061792 116.228653 L 222.899823 115.755651 L 222.720035 115.289238 L 222.535364 114.824630 L 222.350693 114.360022 L 222.166022 113.895414 L 221.950840 113.444448 L 221.727722 112.997030 L 221.504604 112.549613 L 221.281486 112.102195 L 221.062681 111.652659 L 220.844908 111.202615 L 220.627135 110.752572 L 220.409362 110.302529 L 220.160068 109.869490 L 219.903545 109.440351 L 219.647021 109.011213 L 219.390498 108.582075 L 219.110667 108.167964 L 218.825656 107.757192 L 218.540645 107.346421 L 218.255635 106.935650 L 217.954547 106.536622 L 217.649934 106.140169 L 217.345321 105.743716 L 217.040708 105.347263 L 216.719935 104.963893 L 216.395572 104.583428 L 216.071210 104.202964 L 215.746847 103.822500 L 215.410100 103.453036 L 215.070557 103.086055 L 214.731014 102.719075 L 214.391471 102.352095 L 214.047743 101.989041 L 213.703049 101.626895 L 213.358355 101.264749 L 213.013660 100.902602 L 212.649912 100.559850 L 212.281718 100.221624 L 211.913524 99.883397 L 211.545330 99.545170 L 211.177722 99.206308 L 210.810252 98.867295 L 210.442782 98.528282 L 210.075311 98.189269 L 209.711969 97.845848 L 209.349610 97.501377 L 208.987251 97.156907 L 208.624892 96.812436 L 208.210787 96.535034 L 207.785654 96.271925 L 207.360522 96.008816 L 206.935389 95.745707 L 206.522317 95.464228 L 206.111871 95.178749 L 205.701425 94.893270 L 205.290979 94.607792 L 204.873962 94.332045 L 204.455749 94.058072 L 204.037535 93.784098 L 203.619321 93.510124 L 203.180318 93.271515 L 202.737536 93.039334 L 202.294754 92.807152 L 201.851972 92.574971 L 201.412401 92.336785 L 200.973421 92.097492 L 200.534442 91.858199 L 200.095463 91.618905 L 199.649688 91.392610 L 199.202659 91.168716 L 198.755629 90.944822 L 198.308599 90.720928 L 197.860234 90.499724 L 197.411622 90.279017 L 196.963011 90.058310 L 196.514399 89.837603 L 196.067672 89.613112 L 195.621293 89.387924 L 195.174914 89.162736 L 194.728535 88.937547 L 194.282345 88.711984 L 193.836190 88.486352 L 193.390034 88.260721 L 192.943879 88.035090 L 192.495579 87.813759 L 192.046906 87.593178 L 191.598232 87.372596 L 191.149559 87.152014 L 190.705724 86.921893 L 190.262704 86.690166 L 189.819684 86.458440 L 189.376664 86.226713 L 188.929775 86.002564 L 188.482264 85.779634 L 188.034752 85.556704 L 187.587241 85.333775 L 187.140472 85.109361 L 186.693812 84.884730 L 186.247152 84.660099 L 185.800493 84.435468 L 185.353021 84.212460 L 184.905440 83.989670 L 184.457859 83.766880 L 184.010278 83.544090 L 183.559800 83.327229 L 183.108980 83.111070 L 182.658159 82.894910 L 182.207339 82.678750 L 181.756822 82.461957 L 181.306338 82.245097 L 180.855854 82.028237 L 180.405370 81.811377 L 179.952261 81.600067 L 179.498900 81.389287 L 179.045539 81.178507 L 178.592178 80.967728 L 178.137961 80.758801 L 177.683677 80.550018 L 177.229393 80.341236 L 176.775109 80.132453 L 176.320441 79.924509 L 175.865749 79.716616 L 175.411056 79.508724 L 174.956364 79.300832 L 174.501364 79.093616 L 174.046349 78.886430 L 173.591335 78.679244 L 173.136321 78.472058 L 172.681082 78.265366 L 172.225836 78.058688 L 171.770591 77.852010 L 171.315345 77.645333 L 170.862353 77.433763 L 170.409401 77.222108 L 169.956448 77.010452 L 169.503495 76.798797 L 169.048855 76.590792 L 168.594212 76.382792 L 168.139569 76.174791 L 167.684965 75.966710 L 167.232764 75.753451 L 166.780564 75.540193 L 166.328364 75.326935 L 165.876193 75.113615 L 165.424820 74.898611 L 164.973447 74.683607 L 164.522075 74.468603 L 164.070600 74.253815 L 163.617355 74.042787 L 163.164110 73.831758 L 162.710865 73.620730 L 162.257904 73.409105 L 161.808671 73.189665 L 161.359438 72.970226 L 160.910204 72.750787 L 160.460466 72.532418 L 160.005635 72.324829 L 159.550804 72.117240 L 159.095974 71.909650 L 158.641531 71.701228 L 158.189678 71.487235 L 157.737825 71.273242 L 157.285972 71.059249 L 156.833776 70.845989 L 156.379779 70.636584 L 155.925782 70.427178 L 155.471785 70.217772 L 155.017823 70.008291 L 154.564012 69.798481 L 154.110202 69.588672 L 153.656391 69.378862 L 153.202278 69.169714 L 152.747017 68.963069 L 152.291756 68.756425 L 151.836496 68.549780 L 151.380169 68.345558 L 150.920296 68.149393 L 150.460423 67.953228 L 150.000550 67.757063 L 149.540791 67.560630 L 149.081369 67.363410 L 148.621948 67.166190 L 148.162526 66.968969 L 147.702527 66.773114 L 147.241013 66.580842 L 146.779498 66.388569 L 146.317984 66.196296 L 145.856110 66.004895 L 145.393396 65.815530 L 144.930681 65.626165 L 144.467966 65.436800 L 144.004840 65.248450 L 143.540851 65.062228 L 143.076863 64.876005 L 142.612874 64.689783 L 142.148302 64.505035 L 141.682633 64.323054 L 141.216965 64.141072 L 140.751297 63.959091 L 140.285272 63.778030 L 139.818648 63.598514 L 139.352023 63.418998 L 138.885399 63.239483 L 138.418280 63.061268 L 137.950422 62.884992 L 137.482564 62.708716 L 137.014706 62.532440 L 136.546601 62.356824 L 136.078167 62.182085 L 135.609733 62.007347 L 135.141299 61.832608 L 134.672064 61.660050 L 134.201884 61.490066 L 133.731703 61.320082 L 133.261523 61.150099 L 132.791190 60.980536 L 132.320699 60.811415 L 131.850207 60.642294 L 131.379716 60.473174 L 130.908533 60.306000 L 130.436708 60.140636 L 129.964883 59.975272 L 129.493058 59.809907 L 129.020853 59.645637 L 128.548336 59.482259 L 128.075820 59.318882 L 127.603303 59.155504 L 127.130602 58.992663 L 126.657769 58.830203 L 126.184936 58.667743 L 125.712103 58.505283 L 125.238405 58.345378 L 124.764176 58.187041 L 124.289946 58.028704 L 123.815717 57.870367 L 123.341469 57.712084 L 122.867212 57.553830 L 122.392956 57.395575 L 121.918699 57.237320 L 121.443559 57.081747 L 120.968031 56.927355 L 120.492502 56.772964 L 120.016974 56.618572 L 119.541318 56.464573 L 119.065616 56.310716 L 118.589915 56.156860 L 118.114213 56.003003 L 117.637868 55.851153 L 117.161344 55.699862 L 116.684820 55.548570 L 116.208296 55.397279 L 115.731127 55.248038 L 115.253826 55.099217 L 114.776525 54.950396 L 114.299224 54.801575 L 113.821550 54.653954 L 113.343829 54.506487 L 112.866108 54.359019 L 112.388387 54.211552 L 111.909682 54.067311 L 111.430909 53.923295 L 110.952137 53.779278 L 110.473364 53.635262 L 109.994315 53.492165 L 109.515263 53.349081 L 109.036211 53.205996 L 108.557094 53.063132 L 108.076739 52.924485 L 107.596384 52.785839 L 107.116029 52.647192 L 106.635636 52.508676 L 106.154916 52.371297 L 105.674197 52.233918 L 105.193478 52.096539 L 104.712562 51.959857 L 104.230620 51.826832 L 103.748678 51.693807 L 103.266735 51.560782 L 102.784731 51.427983 L 102.302505 51.295988 L 101.820280 51.163994 L 101.338054 51.031999 L 100.855596 50.900864 L 100.372543 50.771931 L 99.889490 50.642999 L 99.406436 50.514066 L 98.922936 50.386841 L 98.438591 50.262850 L 97.954246 50.138859 L 97.469901 50.014869 L 96.985462 49.891245 L 96.500888 49.768149 L 96.016315 49.645052 L 95.531741 49.521956 L 95.046487 49.401609 L 94.560491 49.284254 L 94.074495 49.166900 L 93.588499 49.049546 L 93.102348 48.932836 L 92.616067 48.816671 L 92.129785 48.700507 L 91.643503 48.584342 L 91.156838 48.469804 L 90.669918 48.356342 L 90.182999 48.242880 L 89.696080 48.129417 L 89.208326 48.019629 L 88.720153 47.911687 L 88.231981 47.803745 L 87.743808 47.695804 L 87.255490 47.588520 L 86.767117 47.481487 L 86.278745 47.374453 L 85.790372 47.267420 L 85.301113 47.164535 L 84.811617 47.062764 L 84.322120 46.960993 L 83.832624 46.859222 L 83.342817 46.758959 L 82.852953 46.658971 L 82.363089 46.558982 L 81.873226 46.458994 L 81.383226 46.359673 L 80.893212 46.260425 L 80.403198 46.161177 L 79.913184 46.061929 L 79.421960 45.968861 L 78.930688 45.876038 L 78.439416 45.783214 L 77.948142 45.690405 L 77.456701 45.598482 L 76.965260 45.506559 L 76.473819 45.414636 L 75.982312 45.323073 L 75.490013 45.235861 L 74.997715 45.148648 L 74.505416 45.061436 L 74.013069 44.974500 L 73.520402 44.889391 L 73.027735 44.804283 L 72.535068 44.719174 L 72.042369 44.634254 L 71.549527 44.550167 L 71.056685 44.466080 L 70.563842 44.381993 L 70.070797 44.299131 L 69.577112 44.220146 L 69.083426 44.141162 L 68.589741 44.062177 L 68.095980 43.983665 L 67.602039 43.906295 L 67.108098 43.828925 L 66.614156 43.751554 L 66.120017 43.675480 L 65.625512 43.601801 L 65.131006 43.528121 L 64.636501 43.454442 L 64.141843 43.381805 L 63.646963 43.310692 L 63.152082 43.239580 L 62.657201 43.168468 L 62.162173 43.098393 L 61.666974 43.029533 L 61.171774 42.960674 L 60.676575 42.891814 L 60.181142 42.824679 L 59.685492 42.759141 L 59.189842 42.693602 L 58.694192 42.628064 L 58.198324 42.564214 L 57.702295 42.501603 L 57.206267 42.438991 L 56.710239 42.376380 L 56.213987 42.315588 L 55.717609 42.255810 L 55.221232 42.196032 L 54.724854 42.136254 L 54.228231 42.078565 L 53.731507 42.021735 L 53.234784 41.964905 L 52.738060 41.908076 L 52.241007 41.854228 L 51.743860 41.801225 L 51.246713 41.748223 L 50.749566 41.695221 L 50.252283 41.643518 L 49.754977 41.592038 L 49.257670 41.540557 L 48.760363 41.489077 L 48.262461 41.443747 L 47.764518 41.398841 L 47.266574 41.353935 L 46.768626 41.309082 L 46.270496 41.266302 L 45.772365 41.223522 L 45.274235 41.180742 L 44.775976 41.139671 L 44.277064 41.107242 L 43.778153 41.074812 L 43.279242 41.042383 L 42.780128 41.013938 L 42.280496 40.995718 L 41.780864 40.977498 L 41.281232 40.959278 L 40.781548 40.942679 L 40.281787 40.928411 L 39.782027 40.914143 L 39.282266 40.899875 L 38.782496 40.885976 L 38.282716 40.872390 L 37.782937 40.858803 L 37.283157 40.845216 L 36.783364 40.849891 L 36.283566 40.862755 L 35.783767 40.875619 L 35.283969 40.888482 L 34.785576 40.926835 L 34.287392 40.968998 L 33.789209 41.011161 L 33.291029 41.053350 L 32.792887 41.096004 L 32.294746 41.138658 L 31.796605 41.181311 L 31.299607 41.233095 L 30.806333 41.314614 L 30.313060 41.396133 L 29.819786 41.477652 L 29.330344 41.577357 L 28.846102 41.701754 L 28.361861 41.826151 L 27.877620 41.950548 L 27.392743 42.072420 L 26.907372 42.192334 L 26.422002 42.312249 L 25.936631 42.432164 L 25.461522 42.586340 L 24.990143 42.752971 L 24.518764 42.919602 L 24.047385 43.086233 L 23.596311 43.301188 L 23.147388 43.521260 L 22.698464 43.741333 L 22.249541 43.961405 L 21.832732 44.237323 L 21.416724 44.514634 L 20.584708 45.069257" fill="none" stroke="black" stroke-width="2.000000" />
</svg>