<?xml version="1.0" encoding="utf-8" ?>
<svg baseProfile="full" height="574" version="1.1" viewBox="0,0,1048,574" width="1048" xmlns="http://www.w3.org/2000/svg" xmlns:ev="http://www.w3.org/2001/xml-events" xmlns:xlink="http://www.w3.org/1999/xlink"><defs><style type="text/css"><![CDATA[
	.background { fill: white; }
	.line { stroke: firebrick; stroke-width: .1mm; }
	.blacksquare { fill: indigo; }
	.whitesquare { fill: white; }
]]></style></defs><path d="M 164.144060 402.828315 L 167.563730 401.289436 L 170.960341 399.700366 L 174.331003 398.057017 L 177.672535 396.355240 L 180.981467 394.590891 L 184.252709 392.757592 L 187.481733 390.850985 L 190.664828 388.868743 L 193.796793 386.806711 L 196.871940 384.660857 L 199.883761 382.426917 L 202.821993 380.097075 L 205.682383 377.672455 L 208.457145 375.150398 L 211.138081 372.528861 L 213.716705 369.806578 L 216.183168 366.982171 L 218.524466 364.053239 L 220.736775 361.025888 L 222.812378 357.903324 L 224.744504 354.689971 L 226.527213 351.391176 L 228.144435 348.008196 L 229.603705 344.554375 L 230.904339 341.037718 L 232.040764 337.464421 L 233.008513 333.841911 L 233.823779 330.182083 L 234.476873 326.489723 L 234.978959 322.773940 L 235.336128 319.041293 L 235.549104 315.297719 L 235.629016 311.548847 L 235.583056 307.799424 L 235.408529 304.053719 L 235.126690 300.314546 L 234.732732 296.585504 L 234.232139 292.869251 L 233.639002 289.166655 L 232.957511 285.479253 L 232.189402 281.808865 L 231.334660 278.157667 L 230.405498 274.524729 L 229.405645 270.910620 L 228.338751 267.315731 L 227.208331 263.740302 L 226.017726 260.184453 L 224.770158 256.648180 L 223.468708 253.131374 L 222.116310 249.633837 L 220.715749 246.155302 L 219.269677 242.695429 L 217.780612 239.253826 L 216.253439 235.828909 L 215.836160 234.911625" fill="none" stroke="black" stroke-width="3.7" /><path d="M 166.230135 393.261865 L 169.455103 395.175497 L 172.693585 397.066174 L 175.943003 398.937998 L 179.204794 400.788171 L 182.479620 402.615163 L 185.768415 404.416865 L 189.073422 406.188630 L 192.397695 407.923953 L 195.745550 409.613314 L 199.126552 411.235162 L 202.555104 412.753285 L 206.026528 414.170575 L 209.539263 415.482393 L 213.089106 416.690318 L 216.671762 417.797182 L 220.283404 418.805598 L 223.924990 419.699713 L 226.676710 420.280490" fill="none" stroke="black" stroke-width="3.7" /><path d="M 232.929960 431.083765 L 234.892105 434.279454 L 236.870802 437.464927 L 238.861896 440.642666 L 240.864532 443.813146 L 242.877896 446.976821 L 244.900898 450.134344 L 246.935107 453.284657 L 248.978724 456.428876 L 251.033117 459.566064 L 253.098354 462.696123 L 255.173962 465.819314 L 257.260310 468.935342 L 259.358217 472.043600 L 261.468868 475.143217 L 263.591692 478.234508 L 265.727273 481.316998 L 267.876262 484.390154 L 270.039371 487.453388 L 272.217427 490.506012 L 274.411279 493.547305 L 276.622018 496.576348 L 278.852342 499.590997 L 281.102156 502.591122 L 283.372992 505.575359 L 285.666556 508.542157 L 287.984815 511.489693 L 290.330012 514.415840 L 292.705255 517.317657 L 295.134339 520.174558 L 297.623767 522.978945 L 300.171650 525.730296 L 302.775519 528.428709 L 305.432994 531.074345 L 308.141778 533.667436 L 310.899669 536.208255 L 313.704557 538.697127 L 316.554408 541.134425 L 319.448995 543.518441 L 322.387039 545.848668 L 325.364903 548.127744 L 328.380883 550.356120 L 331.433353 552.534268 L 334.523741 554.658278 L 337.651525 556.726844 L 340.812608 558.744144 L 344.011514 560.700951 L 347.246001 562.598303 L 350.517869 564.430436 L 353.833624 566.181822 L 355.492960 567.003815" fill="none" stroke="black" stroke-width="3.7" /><path d="M 308.799560 415.297615 L 311.951954 417.328369 L 315.056887 419.431036 L 318.123129 421.589769 L 321.139580 423.817499 L 324.107862 426.108891 L 327.019447 428.471808 L 329.862701 430.916444 L 332.621427 433.456074 L 335.263665 436.116442 L 337.742302 438.928989 L 339.998565 441.921191 L 341.823662 445.180174 L 342.588561 448.844029 L 342.909084 452.579016 L 343.017977 456.326964 L 343.001552 460.076788 L 342.889968 463.825041 L 342.717083 467.570993 L 342.494372 471.314340 L 342.226067 475.054709 L 341.924659 478.792555 L 341.594704 482.527992 L 341.239735 486.261140 L 340.862657 489.992124 L 340.465906 493.721071 L 340.051486 497.448098 L 339.620581 501.173257 L 339.174979 504.896686 L 338.716153 508.618509 L 338.245104 512.338804 L 337.762702 516.057643 L 337.269665 519.775088 L 336.766680 523.491200 L 336.254302 527.206028 L 335.733038 530.919621 L 335.203356 534.632022 L 334.665646 538.343270 L 334.120041 542.053365 L 333.566198 545.762240 L 333.005248 549.470046 L 332.437427 553.176806 L 331.861725 556.882351 L 331.279291 560.586844 L 330.688817 564.290063 L 330.090565 567.992034 L 329.482703 571.692439 L 329.225460 573.238815" fill="none" stroke="black" stroke-width="3.7" /><path d="M 320.890885 445.637940 L 324.536908 446.514707 L 328.192518 447.350717 L 331.855055 448.155862 L 335.523260 448.934775 L 339.196543 449.689380 L 342.874431 450.421212 L 346.556597 451.131207 L 350.242769 451.820115 L 353.933050 452.486659 L 357.626836 453.133488 L 361.324253 453.759232 L 365.025027 454.364796 L 368.729199 454.949224 L 372.436306 455.514750 L 376.146878 456.057060 L 379.860247 456.579868 L 383.576359 457.082827 L 387.295556 457.562426 L 391.017399 458.021025 L 394.741760 458.458701 L 398.468570 458.875017 L 402.197935 459.267801 L 405.929696 459.637112 L 409.663627 459.983756 L 413.399633 460.307259 L 417.137613 460.607095 L 420.877459 460.882709 L 424.619056 461.133518 L 428.362394 461.356834 L 432.107188 461.554127 L 435.853284 461.724825 L 439.600516 461.868363 L 443.348712 461.983926 L 447.097681 462.070810 L 450.847216 462.128281 L 454.597092 462.155968 L 458.347069 462.152621 L 462.096878 462.116769 L 465.846235 462.048013 L 469.594807 461.944846 L 473.342185 461.804902 L 477.088036 461.628955 L 480.831943 461.415750 L 484.573448 461.164005 L 488.312056 460.872474 L 492.047226 460.539855 L 495.778363 460.164752 L 499.504819 459.745718 L 503.225901 459.281404 L 506.941438 458.774474 L 510.649615 458.216175 L 514.351519 457.617689 L 518.045686 456.973186 L 521.732642 456.288606 L 525.411377 455.561175 L 529.082052 454.794070 L 532.744161 453.987088 L 536.397483 453.141182 L 540.041988 452.258080 L 543.677113 451.337098 L 547.303276 450.381458 L 550.919589 449.389168 L 554.526874 448.364556 L 558.123981 447.304748 L 561.712060 446.214772 L 565.289756 445.091172 L 568.858496 443.939445 L 572.416789 442.755829 L 575.966234 441.545938 L 579.505294 440.305991 L 583.035654 439.041489 L 586.555822 437.748879 L 590.067486 436.433345 L 593.569250 435.091674 L 597.062735 433.728593 L 600.546740 432.341455 L 604.022707 430.934300 L 607.489725 429.505232 L 610.948987 428.057494 L 614.399903 426.589966 L 617.843376 425.105062 L 621.279214 423.602570 L 624.707951 422.083946 L 628.129832 420.549932 L 631.544994 419.001018 L 634.954138 417.438900 L 638.357023 415.863193 L 641.754774 414.276444 L 641.873485 414.220590" fill="none" stroke="black" stroke-width="3.7" /><path d="M 521.830760 463.304440 L 525.506590 462.562455 L 529.173334 461.776855 L 532.830681 460.948583 L 536.477484 460.075049 L 540.113371 459.157131 L 543.739051 458.199700 L 547.354322 457.203643 L 550.957131 456.163405 L 554.549244 455.086839 L 558.130574 453.974913 L 561.699874 452.824951 L 565.257452 451.639219 L 568.804126 450.421262 L 572.339517 449.170918 L 575.862438 447.885849 L 579.374579 446.571615 L 582.876023 445.229129 L 586.365224 443.855131 L 589.843671 442.454139 L 593.311825 441.027848 L 596.768839 439.574766 L 600.215055 438.096251 L 603.651557 436.595298 L 607.078047 435.071623 L 610.494031 433.524533 L 613.901037 431.957772 L 617.299172 430.371859 L 620.687403 428.764890 L 624.067535 427.140960 L 627.439862 425.500876 L 630.803285 423.842609 L 634.159582 422.169965 L 637.509108 420.483803 L 640.851040 418.782635 L 644.186925 417.069642 L 647.517181 415.345729 L 650.841209 413.609837 L 654.160488 411.864881 L 657.475266 410.111389 L 660.785507 408.349345 L 664.092351 406.580935 L 667.395960 404.806488 L 670.696860 403.027004 L 673.995826 401.243940 L 677.293099 399.457745 L 680.589482 397.669910 L 683.885509 395.881417 L 687.181807 394.093423 L 690.478929 392.306951 L 693.777788 390.523688 L 697.078711 388.744247 L 700.382788 386.970673 L 703.690396 385.203693 L 707.002596 383.445336 L 710.319951 381.696727 L 713.643464 379.959852 L 716.973804 378.236104 L 720.312086 376.527792 L 723.658813 374.836084 L 727.015626 373.164488 L 730.382313 371.512864 L 733.761692 369.887375 L 737.152957 368.286845 L 740.558224 366.716323 L 743.978559 365.178916 L 747.414130 363.675868 L 750.867323 362.213754 L 754.338802 360.795651 L 757.829023 359.424351 L 761.339127 358.104737 L 764.871645 356.846369 L 768.426064 355.651378 L 772.003173 354.526217 L 775.603591 353.478096 L 779.227671 352.515000 L 782.875360 351.645629 L 786.546095 350.879435 L 790.238644 350.226561 L 793.950959 349.697798 L 797.679997 349.304475 L 801.421574 349.058505 L 805.170147 348.971649 L 808.918737 349.055110 L 812.658859 349.320194 L 813.648110 349.419940" fill="none" stroke="black" stroke-width="3.7" /><path d="M 683.580210 390.772965 L 686.967728 389.164510 L 690.366685 387.580369 L 693.778948 386.025100 L 697.201961 384.493633 L 700.636485 382.988163 L 704.081838 381.507639 L 707.536922 380.049964 L 711.003485 378.619803 L 714.479394 377.212513 L 717.965097 375.829663 L 721.461356 374.473719 L 724.966765 373.141612 L 728.482102 371.835934 L 732.007674 370.558150 L 735.542441 369.306027 L 739.087525 368.083428 L 742.642827 366.890870 L 746.207576 365.726853 L 749.783470 364.597551 L 753.369574 363.501109 L 756.965880 362.438613 L 760.574138 361.417443 L 764.192629 360.433162 L 767.823355 359.495059 L 771.465303 358.601510 L 775.119533 357.759684 L 778.785793 356.971864 L 782.464814 356.246120 L 786.155848 355.584098 L 789.860306 355.002056 L 793.576484 354.500679 L 797.304254 354.094040 L 801.042810 353.803497 L 804.788974 353.641149 L 808.538490 353.631912 L 812.283640 353.809075 L 816.013455 354.193018 L 819.732935 354.669923 L 823.442816 355.216478 L 827.143426 355.822710 L 830.834335 356.485464 L 834.514011 357.208048 L 838.183746 357.979531 L 841.842278 358.802502 L 845.489306 359.675076 L 849.125778 360.590657 L 852.750502 361.551695 L 856.363375 362.556388 L 859.965364 363.599429 L 863.555773 364.681670 L 867.133719 365.804440 L 870.700599 366.961875 L 874.256377 368.153007 L 877.799108 369.382402 L 881.330481 370.644035 L 884.850612 371.936712 L 888.358567 373.262081 L 891.854008 374.620112 L 895.338043 376.007139 L 898.810601 377.422669 L 902.269654 378.870888 L 905.716889 380.347008 L 909.152363 381.850299 L 912.574851 383.382927 L 915.984194 384.944577 L 919.381356 386.532549 L 922.765583 388.147909 L 926.135396 389.793129 L 929.492402 391.464319 L 932.835824 393.162525 L 936.163723 394.890956 L 939.477928 396.645496 L 942.776811 398.428673 L 946.059405 400.241665 L 949.327052 402.081464 L 952.576062 403.953973 L 955.808525 405.854902 L 959.021773 407.788121 L 962.215689 409.753122 L 965.388598 411.751849 L 968.539567 413.785000 L 971.666065 415.855561 L 974.768327 417.962279 L 977.840215 420.113036 L 980.882482 422.305449 L 983.891425 424.543397 L 986.860369 426.834144 L 989.785497 429.180528 L 992.660303 431.588250 L 995.475621 434.065214 L 998.219454 436.621084 L 1000.873969 439.269510 L 1003.410819 442.030633 L 1005.794999 444.924152 L 1007.079060 446.670090" fill="none" stroke="black" stroke-width="3.7" /><path d="M 0.000000 281.088990 L 2.067659 277.960799 L 4.216753 274.887811 L 6.420150 271.853496 L 8.671929 268.854888 L 10.962208 265.885572 L 13.293508 262.948346 L 15.660264 260.039621 L 18.059923 257.157991 L 20.491091 254.302896 L 22.952353 251.473695 L 25.442265 248.669651 L 27.961400 245.891800 L 30.511371 243.142248 L 33.087364 240.417116 L 35.687854 237.715373 L 38.311311 235.035877 L 40.963576 232.384842 L 43.642394 229.760716 L 46.341349 227.157338 L 49.061639 224.576151 L 51.813493 222.028680 L 54.582583 219.500043 L 57.371613 216.993289 L 60.190960 214.520742 L 63.024625 212.064676 L 65.882877 209.637148 L 68.764076 207.237035 L 71.657004 204.850936 L 74.584354 202.507201 L 77.521686 200.176118 L 80.484049 197.876790 L 83.464622 195.601296 L 86.461630 193.347312 L 89.483932 191.127508 L 92.515455 188.920164 L 95.577945 186.756060 L 98.644857 184.598181 L 101.744908 182.488161 L 104.849024 180.384218 L 107.983006 178.324934 L 111.122765 176.274599 L 114.290338 174.267369 L 117.464100 172.270087 L 120.664903 170.316279 L 123.871053 168.371402 L 127.104674 166.472404 L 130.341602 164.579151 L 133.607557 162.736315 L 136.873652 160.893735 L 140.171389 159.108398 L 143.469127 157.323061 L 146.793981 155.588893 L 150.122909 153.862410 L 153.473115 152.177875 L 156.832559 150.511550 L 160.206541 148.875221 L 163.595777 147.270359 L 166.992015 145.680645 L 170.410247 144.138506 L 173.828479 142.596367 L 177.273653 141.115465 L 180.720022 139.637275 L 184.180792 138.193399 L 187.649805 136.769162 L 191.128435 135.368599 L 194.612925 133.982695 L 198.103070 132.611096 L 201.598872 131.253960 L 205.101726 129.915112 L 208.611161 128.593636 L 212.126321 127.287492 L 215.647207 125.996848 L 219.174142 124.722789 L 222.708864 123.470503 L 226.249333 122.234605 L 229.795525 121.015232 L 233.347416 119.812513 L 236.906993 118.632718 L 240.472757 117.471815 L 244.044172 116.328435 L 247.621207 115.202720 L 251.205338 114.099767 L 254.796107 113.018676 L 258.392387 111.956101 L 261.994138 110.912182 L 265.602540 109.891429 L 269.217695 108.894915 L 272.838159 107.917922 L 276.463880 106.960582 L 280.095929 106.027457 L 283.734539 105.120321 L 287.378181 104.233691 L 291.026793 103.367679 L 294.681508 102.527705 L 298.342291 101.714673 L 302.007754 100.923096 L 305.677827 100.153080 L 309.353842 99.411858 L 313.035170 98.697628 L 316.720749 98.005747 L 320.410499 97.336306 L 324.106014 96.699387 L 327.805879 96.088459 L 331.509495 95.500741 L 335.216801 94.936484 L 338.929551 94.409251 L 342.645579 93.905966 L 346.364784 93.426669 L 350.087596 92.975921 L 353.814402 92.559673 L 357.543845 92.168073 L 361.275826 91.801146 L 365.011114 91.469288 L 368.748932 91.167794 L 372.488696 90.891636 L 376.230385 90.642113 L 379.974553 90.433171 L 383.720015 90.249925 L 387.466668 90.092403 L 391.214675 89.970176 L 394.963593 89.881897 L 398.713015 89.819523 L 402.462848 89.784075 L 403.005585 89.781830" fill="none" stroke="black" stroke-width="3.7" /><path d="M 167.747420 140.209600 L 171.202004 138.750713 L 174.664484 137.310691 L 178.134720 135.889480 L 181.612569 134.487009 L 185.097894 133.103220 L 188.590566 131.738067 L 192.090452 130.391485 L 195.598827 129.067172 L 199.114443 127.762235 L 202.636946 126.476028 L 206.166219 125.208520 L 209.702145 123.959672 L 213.244611 122.729461 L 216.795190 121.522859 L 220.352251 120.335546 L 223.915543 119.167090 L 227.484963 118.017488 L 231.060414 116.886739 L 234.642978 115.778706 L 238.232098 114.692141 L 241.826938 113.624686 L 245.427405 112.576370 L 249.033415 111.547224 L 252.646234 110.542218 L 256.264957 109.558740 L 259.888900 108.594713 L 263.517972 107.650157 L 267.152231 106.725680 L 270.793240 105.828163 L 274.439061 104.950486 L 278.089610 104.092703 L 281.744801 103.254850 L 285.405739 102.442428 L 289.071765 101.653364 L 292.742095 100.884633 L 296.416642 100.136259 L 300.095966 99.411637 L 303.780425 98.713664 L 307.468744 98.036489 L 311.160832 97.380136 L 314.856954 96.746743 L 318.557936 96.142453 L 322.262309 95.559464 L 325.969981 94.997807 L 329.681107 94.459248 L 333.396553 93.951404 L 337.114888 93.465376 L 340.836022 93.001221 L 344.560124 92.561263 L 348.287794 92.152726 L 352.017822 91.766582 L 355.750114 91.402886 L 359.484899 91.065427 L 363.222361 90.759222 L 366.961608 90.475999 L 370.702542 90.215771 L 374.445412 89.984628 L 378.189999 89.783681 L 381.935756 89.606311 L 385.682585 89.452551 L 389.430645 89.331937 L 393.179468 89.239449 L 396.928797 89.170971 L 400.678531 89.126465 L 404.428524 89.119174 L 408.178431 89.137306 L 411.928143 89.180413 L 415.677442 89.252889 L 419.425867 89.360829 L 423.173448 89.493938 L 426.920082 89.652215 L 430.665063 89.846160 L 434.408280 90.070879 L 438.149869 90.321115 L 441.889625 90.598101 L 445.626121 90.915981 L 449.360264 91.259818 L 453.091950 91.629602 L 456.820033 92.034445 L 460.544188 92.473593 L 464.265128 92.939043 L 467.982698 93.431148 L 471.694200 93.967093 L 475.401702 94.529621 L 479.105105 95.118687 L 482.802509 95.744550 L 486.493769 96.405401 L 490.180122 97.093009 L 493.860983 97.809783 L 497.533091 98.570053 L 501.199469 99.357210 L 504.860040 100.171152 L 508.511147 101.026673 L 512.154556 101.914125 L 515.791330 102.828414 L 519.419157 103.777820 L 523.036546 104.766074 L 526.646485 105.781095 L 530.248189 106.825232 L 533.836469 107.914555 L 537.416496 109.030476 L 540.988252 110.172811 L 544.545234 111.360404 L 548.092290 112.577071 L 551.630312 113.819877 L 555.153708 115.103691 L 558.664782 116.420616 L 562.166109 117.763281 L 565.652846 119.143560 L 569.124988 120.559970 L 572.586722 122.001620 L 576.033699 123.478391 L 579.464068 124.993187 L 582.884384 126.530558 L 585.506060 127.735663" fill="none" stroke="black" stroke-width="3.7" /><path d="M 591.368035 131.896470 L 594.767696 133.479129 L 598.167356 135.061787 L 601.567393 136.643638 L 604.967726 138.224849 L 608.368249 139.805655 L 611.769536 141.384814 L 615.170824 142.963972 L 618.573262 144.540651 L 621.975806 146.117102 L 625.379474 147.691122 L 628.783599 149.264155 L 632.188857 150.834733 L 635.594931 152.403540 L 639.002222 153.969701 L 642.410624 155.533446 L 645.820502 157.093966 L 649.231662 158.651683 L 652.644790 160.205082 L 656.059147 161.755780 L 659.476330 163.300236 L 662.894399 164.842736 L 666.316536 166.376188 L 669.739952 167.906775 L 673.166988 169.429248 L 676.597086 170.944797 L 680.029467 172.455181 L 683.467567 173.952498 L 686.908564 175.443126 L 690.353509 176.924630 L 693.804954 178.390916 L 697.260669 179.847087 L 700.721133 181.291963 L 704.189915 182.716762 L 707.665006 184.126055 L 711.146727 185.518878 L 714.635773 186.893282 L 718.134631 188.242540 L 721.643089 189.566581 L 725.161031 190.865163 L 728.689222 192.135608 L 732.228417 193.375062 L 735.779345 194.580500 L 739.342681 195.748772 L 742.918984 196.876745 L 746.508702 197.961281 L 750.112157 198.999260 L 753.729474 199.987832 L 757.360584 200.924429 L 761.005226 201.806850 L 764.662951 202.633301 L 768.333121 203.402542 L 772.014920 204.113993 L 775.707420 204.767610 L 779.409583 205.364078 L 783.120309 205.904771 L 786.838506 206.391519 L 790.563137 206.826395 L 794.293137 207.212676 L 798.027572 207.553536 L 801.765635 207.852112 L 805.506553 208.112573 L 809.249722 208.338465 L 812.994644 208.533183 L 816.740894 208.700412 L 820.489247 208.805592 L 824.238012 208.761455 L 827.981114 208.549057 L 831.712906 208.187929 L 835.429784 207.695627 L 839.129602 207.087232 L 842.811222 206.375729 L 846.473245 205.568208 L 850.111418 204.659483 L 853.730204 203.677174 L 857.330257 202.628349 L 860.912293 201.519044 L 864.472753 200.341916 L 868.012066 199.103008 L 871.535187 197.818954 L 875.042889 196.493010 L 878.528409 195.109660 L 881.997431 193.685753 L 885.452944 192.229301 L 888.891187 190.732309 L 892.311049 189.193946 L 895.719094 187.629623 L 899.112550 186.033703 L 902.487740 184.399604 L 905.852495 182.744182 L 909.203629 181.061210 L 912.537970 179.345287 L 915.862948 177.611320 L 919.174067 175.850925 L 922.470655 174.063551 L 925.758693 172.260482 L 929.031915 170.430586 L 932.293207 168.579596 L 935.546497 166.714523 L 938.783596 164.821458 L 942.011432 162.912721 L 945.231047 160.990072 L 948.434102 159.039969 L 951.629758 157.077819 L 954.815388 155.099370 L 957.986964 153.098500 L 961.151173 151.086017 L 964.303832 149.055440 L 967.444325 147.006139 L 970.577305 144.945364 L 973.697675 142.865511 L 976.806935 140.769126 L 979.908329 138.661108 L 982.996673 136.533991 L 986.073949 134.390932 L 989.142784 132.235794 L 992.198964 130.062716 L 995.242728 127.872315 L 998.277158 125.669008 L 1001.300497 123.450468 L 1004.308320 121.210950 L 1007.305486 118.957222 L 1010.291366 116.688546 L 1013.262798 114.400951 L 1016.218272 112.092798 L 1019.160162 109.767384 L 1022.087378 107.423525 L 1024.998654 105.059870 L 1027.890868 102.672906 L 1030.761853 100.260467 L 1033.611769 97.823206 L 1036.437928 95.358458 L 1039.236928 92.862930 L 1042.004497 90.332607 L 1044.734986 87.762328 L 1047.212035 85.354728" fill="none" stroke="black" stroke-width="3.7" /><path d="M 551.183010 109.041592 L 554.581850 110.626012 L 557.980690 112.210432 L 561.378632 113.796777 L 564.776442 115.383405 L 568.173597 116.971435 L 571.570573 118.559847 L 574.967065 120.149294 L 578.363388 121.739103 L 581.759395 123.329584 L 585.155290 124.920307 L 588.551017 126.511388 L 591.946694 128.102576 L 595.342402 129.693696 L 598.738116 131.284805 L 602.134110 132.875316 L 605.530177 134.465671 L 608.926738 136.054970 L 612.323549 137.643736 L 615.720949 139.231241 L 619.118945 140.817469 L 622.517489 142.402525 L 625.917173 143.985132 L 629.317312 145.566761 L 632.719111 147.144819 L 636.121771 148.721015 L 639.525708 150.294456 L 642.931575 151.863713 L 646.338494 153.430682 L 649.747834 154.992381 L 653.159105 156.549850 L 656.571905 158.103973 L 659.988241 159.650306 L 663.406777 161.191762 L 666.827476 162.728418 L 670.252518 164.255372 L 673.680570 165.775545 L 677.111595 167.288997 L 680.547135 168.792183 L 683.987317 170.284699 L 687.431459 171.768049 L 690.879868 173.241464 L 694.334724 174.699706 L 697.795137 176.144689 L 701.261015 177.576499 L 704.732763 178.994028 L 708.211283 180.394884 L 711.698172 181.774769 L 715.192274 183.136244 L 718.694046 184.477853 L 722.203956 185.798020 L 725.722485 187.095059 L 729.250111 188.367189 L 732.788207 189.609917 L 736.336656 190.822735 L 739.895425 192.004880 L 743.464900 193.154254 L 747.045424 194.268702 L 750.637292 195.345997 L 754.240745 196.383860 L 757.855945 197.380011 L 761.482989 198.332113 L 765.121881 199.237854 L 768.772523 200.094991 L 772.434714 200.901332 L 776.108151 201.654767 L 779.792420 202.353302 L 783.486993 202.995111 L 787.191245 203.578490 L 790.904464 204.101820 L 794.625777 204.564208 L 798.354279 204.964677 L 802.089057 205.301867 L 805.829235 205.572690 L 809.573511 205.778648 L 813.321010 205.907117 L 817.070918 205.911817 L 820.817939 205.762378 L 824.557373 205.484737 L 828.286624 205.095346 L 832.003905 204.604888 L 835.708067 204.022697 L 839.398418 203.356907 L 843.069730 202.592727 L 846.724638 201.754606 L 850.364409 200.853225 L 853.989351 199.893310 L 857.594854 198.862365 L 861.182544 197.771540 L 864.756011 196.635106 L 868.315720 195.455732 L 871.852892 194.210375 L 875.376677 192.928043 L 878.887729 191.611040 L 882.379947 190.244691 L 885.856571 188.839396 L 889.321476 187.405396 L 892.769840 185.931868 L 896.201858 184.420832 L 899.623017 182.885369 L 903.028774 181.315872 L 906.418437 179.712044 L 909.797904 178.086847 L 913.162276 176.430494 L 916.511381 174.743601 L 919.850742 173.037487 L 923.174799 171.301647 L 926.484635 169.538943 L 929.784961 167.758472 L 933.069541 165.949043 L 936.340810 164.115752 L 939.602582 162.265582 L 942.848205 160.387171 L 946.080985 158.486828 L 949.304048 156.570016 L 952.510872 154.626106 L 955.704569 152.660784 L 958.888059 150.678947 L 962.055780 148.671948 L 965.208976 146.642272 L 968.351144 144.595565 L 971.478945 142.526904 L 974.589216 140.432017 L 977.687186 138.319025 L 980.772295 136.187235 L 983.837132 134.026385 L 986.886516 131.843853 L 989.920862 129.640471 L 992.939205 127.415156 L 995.934576 125.158997 L 998.910434 122.877230 L 1001.866421 120.569814 L 1004.800736 118.234895 L 1007.711219 115.870298 L 1010.595050 113.473213 L 1013.445827 111.036914 L 1016.263834 108.562838 L 1019.044374 106.046768 L 1021.781512 103.483574 L 1024.191035 101.144803" fill="none" stroke="black" stroke-width="3.7" /><path d="M 294.266985 123.161725 L 296.415229 120.088070 L 298.593181 117.035375 L 300.792151 113.997783 L 303.009936 110.973901 L 305.244096 107.962093 L 307.496333 104.963780 L 309.763160 101.976482 L 312.045664 99.001145 L 314.344457 96.038377 L 316.658030 93.087137 L 318.986544 90.147673 L 321.330178 87.220249 L 323.689090 84.305122 L 326.063484 81.402591 L 328.453563 78.512961 L 330.859559 75.636571 L 333.281719 72.773780 L 335.720281 69.924951 L 338.175533 67.090497 L 340.647772 64.270850 L 343.138250 61.467308 L 345.668036 58.699358 L 348.259142 55.988687 L 350.909953 53.336309 L 353.612821 50.736986 L 356.359215 48.183714 L 359.144764 45.673214 L 361.965733 43.202566 L 364.818899 40.769152 L 367.701482 38.370632 L 370.611089 36.004941 L 373.546520 33.671357 L 376.506164 31.368560 L 379.487097 29.093398 L 382.487944 26.844571 L 385.507459 24.620868 L 388.544548 22.421219 L 391.598649 20.245244 L 394.670494 18.094388 L 397.757219 15.964945 L 400.858119 13.856192 L 403.975100 11.771283 L 407.105394 9.706413 L 410.250786 7.664618 L 413.410151 5.644516 L 416.584624 3.648238 L 419.775538 1.678354 L 422.558985 0.000000" fill="none" stroke="black" stroke-width="3.7" /><path d="M 302.651360 116.139000 L 304.820470 113.080046 L 307.020989 110.043581 L 309.244878 107.024182 L 311.490365 104.020811 L 313.753839 101.030977 L 316.036622 98.055858 L 318.336155 95.093666 L 320.652661 92.144725 L 322.988354 89.210957 L 325.341053 86.290815 L 327.710971 83.384634 L 330.098351 80.492783 L 332.503456 77.615659 L 334.926565 74.753684 L 337.367975 71.907306 L 339.828023 69.077022 L 342.307075 66.263368 L 344.806395 63.467712 L 347.341510 60.704676 L 349.946601 58.007571 L 352.615271 55.373307 L 355.339301 52.796254 L 358.111943 50.271498 L 360.929090 47.796451 L 363.786190 45.367627 L 366.677085 42.979145 L 369.598656 40.628289 L 372.548189 38.312608 L 375.523373 36.029966 L 378.522196 33.778453 L 381.542898 31.556361 L 384.585572 29.364442 L 387.648196 27.200488 L 390.728613 25.061944 L 393.825812 22.947769 L 396.941111 20.860357 L 400.072415 18.797026 L 403.219914 16.758491 L 406.383276 14.744654 L 409.563963 12.758291 L 412.763069 10.801740 L 414.899785 9.527300" fill="none" stroke="black" stroke-width="3.7" /><path d="M 644.394735 170.894225 L 647.135534 168.334882 L 649.905571 165.807200 L 652.703539 163.310472 L 655.528256 160.844064 L 658.383440 158.412988 L 661.275420 156.025809 L 664.214556 153.697025 L 667.210478 151.442030 L 670.282071 149.291751 L 673.460025 147.302688 L 676.761729 145.525307 L 680.121587 143.860302 L 683.521913 142.279460 L 686.952680 140.765701 L 690.407484 139.307532 L 693.882190 137.897357 L 697.377037 136.537822 L 700.889469 135.224457 L 701.089285 135.152100" fill="none" stroke="black" stroke-width="3.7" /><path d="M 645.330260 164.659575 L 648.005176 162.031470 L 650.720410 159.445030 L 653.470872 156.896104 L 656.262925 154.392796 L 659.111800 151.954446 L 662.033649 149.604457 L 665.061006 147.393279 L 668.245360 145.416494 L 671.547656 143.640447 L 674.918003 141.996517 L 678.329477 140.439749 L 681.771875 138.952583 L 685.239937 137.526247 L 687.327085 136.708375" fill="none" stroke="black" stroke-width="3.7" /><path d="M 359.245885 12.120050 L 362.982943 12.431137 L 366.717940 12.766193 L 370.451350 13.118505 L 374.183315 13.485817 L 377.913847 13.867413 L 381.643037 14.261909 L 385.370849 14.669225 L 389.097231 15.089421 L 392.822261 15.521430 L 396.545899 15.965284 L 400.268007 16.421784 L 403.988705 16.889638 L 407.707791 17.370133 L 411.425318 17.862548 L 415.141311 18.366413 L 418.855411 18.884048 L 422.567845 19.413489 L 426.278544 19.954961 L 429.987220 20.510123 L 433.693880 21.078579 L 437.398542 21.659912 L 441.101112 22.254429 L 444.801458 22.862639 L 448.499215 23.486396 L 452.194540 24.124386 L 455.887311 24.776994 L 459.577394 25.444636 L 463.264650 26.127722 L 466.948919 26.826748 L 470.629745 27.543681 L 474.307164 28.277879 L 477.981033 29.029624 L 481.651145 29.799503 L 485.317268 30.588150 L 488.979155 31.396240 L 492.636543 32.224465 L 496.289093 33.073781 L 499.936011 33.946959 L 503.577396 34.842912 L 507.212848 35.762625 L 510.841942 36.707106 L 514.464204 37.677453 L 518.079122 38.674821 L 521.686109 39.700521 L 525.283423 40.759642 L 528.871253 41.850418 L 532.448805 42.974424 L 536.015180 44.133397 L 539.569363 45.329254 L 543.108755 46.568194 L 546.632397 47.851208 L 550.139503 49.178721 L 553.628383 50.553438 L 557.094226 51.985205 L 560.535579 53.474829 L 563.954196 55.015964 L 567.354101 56.597979 L 570.735742 58.218685 L 574.099436 59.876341 L 577.445465 61.569393 L 580.774159 63.296297 L 584.085214 65.056792 L 587.379219 66.848981 L 590.656827 68.670973 L 593.918337 70.521620 L 597.164027 72.399871 L 600.394179 74.304716 L 603.609068 76.235210 L 606.808959 78.190465 L 609.994121 80.169626 L 613.164798 82.171915 L 616.321224 84.196602 L 619.463664 86.242936 L 622.592318 88.310295 L 625.706245 90.399772 L 628.806703 92.509176 L 631.893996 94.637799 L 634.968307 96.785126 L 638.029825 98.950655 L 641.078740 101.133897 L 644.114713 103.335105 L 647.137128 105.554892 L 650.147397 107.791119 L 653.145659 110.043420 L 656.131752 112.311832 L 659.104258 114.598022 L 662.065159 116.899219 L 665.014012 119.215836 L 667.949526 121.549334 L 670.873765 123.896946 L 673.784043 126.261845 L 676.682510 128.641201 L 679.567591 131.036774 L 682.439153 133.448533 L 685.297069 135.876444 L 688.140533 138.321266 L 690.968534 140.783957 L 693.779240 143.266370 L 696.569369 145.771880 L 698.587185 147.621675" fill="none" stroke="black" stroke-width="3.7" /><path d="M 371.232135 16.693800 L 374.971101 16.981082 L 378.708258 17.291131 L 382.444039 17.617347 L 386.178503 17.958316 L 389.911709 18.312793 L 393.643686 18.679977 L 397.374433 19.059464 L 401.103928 19.451068 L 404.832110 19.854972 L 408.559092 20.269807 L 412.284592 20.697756 L 416.008838 21.136471 L 419.731568 21.587874 L 423.452846 22.051088 L 427.172691 22.525682 L 430.890786 23.013792 L 434.607255 23.514126 L 438.322060 24.026665 L 442.035121 24.551695 L 445.746077 25.091404 L 449.455086 25.644328 L 453.162054 26.210766 L 456.866875 26.791086 L 460.569433 27.385677 L 464.269439 27.995945 L 467.966769 28.622221 L 471.661403 29.264196 L 475.353179 29.922399 L 479.041927 30.597368 L 482.727453 31.289712 L 486.409550 32.000078 L 490.087929 32.729457 L 493.762059 33.479944 L 497.431969 34.250784 L 501.097357 35.042828 L 504.757888 35.857021 L 508.413200 36.694327 L 512.062889 37.555815 L 515.706501 38.442673 L 519.342986 39.358312 L 522.971946 40.303311 L 526.592990 41.278177 L 530.205398 42.284554 L 533.808369 43.324214 L 537.400986 44.399133 L 540.980398 45.517224 L 544.546835 46.675977 L 548.098948 47.877898 L 551.635158 49.125859 L 555.150430 50.431601 L 558.644646 51.792619 L 562.116099 53.210709 L 565.568732 54.674102 L 569.003923 56.178008 L 572.421880 57.720709 L 575.822820 59.300591 L 579.206319 60.917493 L 582.573437 62.568219 L 585.924441 64.251407 L 589.259612 65.965747 L 592.579211 67.710042 L 595.883509 69.483151 L 599.172760 71.284019 L 602.447213 73.111657 L 605.707116 74.965127 L 608.952707 76.843549 L 612.184219 78.746096 L 615.401883 80.671980 L 618.605905 82.620485 L 621.795831 84.591985 L 624.971883 86.585757 L 628.134859 88.600202 L 631.284944 90.634744 L 634.422314 92.688839 L 637.547139 94.761976 L 640.658972 96.854566 L 643.757299 98.967101 L 646.843501 101.097309 L 649.917729 103.244762 L 652.978807 105.410919 L 656.027120 107.595005 L 659.063809 109.795224 L 662.086511 112.014620 L 665.097555 114.249809 L 668.094513 116.503848 L 671.078854 118.774562 L 674.049599 121.063039 L 677.005858 123.370200 L 679.946740 125.696928 L 682.871471 128.043921 L 685.777709 130.413769 L 688.659732 132.812989 L 689.213985 133.281875" fill="none" stroke="black" stroke-width="3.7" /><path d="M 14.170760 325.309115 L 16.834466 327.948594 L 19.530346 330.555243 L 22.250038 333.137040 L 24.990224 335.697074 L 27.749797 338.236199 L 30.527528 340.755448 L 33.323672 343.254250 L 36.137695 345.732892 L 38.969004 348.191776 L 41.817966 350.630178 L 44.685268 353.046990 L 47.569288 355.443827 L 50.471998 357.817993 L 53.393757 360.168674 L 56.333447 362.496887 L 59.291530 364.801688 L 62.269307 367.080992 L 65.268420 369.332145 L 68.287533 371.556386 L 71.327233 373.752401 L 74.388144 375.918752 L 77.470950 378.053841 L 80.577032 380.154934 L 83.708476 382.218027 L 86.864204 384.243746 L 90.045033 386.229793 L 93.251855 388.173574 L 96.485579 390.072265 L 99.747149 391.922737 L 103.039278 393.718283 L 106.363382 395.453871 L 109.718605 397.128414 L 113.105941 398.736949 L 116.526305 400.274011 L 119.981367 401.731454 L 123.475747 403.091839 L 127.005468 404.357420 L 130.570642 405.519311 L 134.172883 406.560496 L 137.813608 407.457660 L 141.486200 408.213324 L 145.189342 408.800378 L 148.918504 409.188852 L 152.662718 409.384309 L 156.411204 409.316862 L 160.147877 409.013580 L 163.846033 408.401010 L 167.487298 407.510192 L 171.038905 406.308177 L 174.536864 404.957633 L 177.980910 403.474939 L 181.363787 401.857279 L 184.674146 400.095974 L 187.907341 398.197010 L 191.055744 396.160703 L 194.111580 393.987998 L 197.067329 391.680945 L 199.915930 389.242725 L 202.650933 386.677565 L 205.262648 383.986959 L 207.749243 381.180454 L 210.107486 378.265371 L 212.334770 375.249075 L 214.429564 372.139257 L 216.391491 368.943808 L 218.215848 365.667777 L 219.905008 362.320126 L 221.464970 358.910415 L 222.899023 355.445755 L 224.202186 351.929688 L 225.382192 348.370491 L 226.448321 344.775482 L 227.393428 341.146711 L 228.229679 337.491393 L 228.961054 333.813564 L 229.585039 330.116035 L 230.116070 326.403961 L 230.546064 322.678848 L 230.890568 318.944829 L 231.144728 315.203592 L 231.316510 311.457640 L 231.412264 307.708966 L 231.424636 303.959071 L 231.369041 300.209577 L 231.244285 296.461735 L 231.047141 292.716991 L 230.789010 288.975967 L 230.471795 285.239471 L 230.091998 281.508810 L 229.654131 277.784520 L 229.163486 274.066824 L 228.621738 270.356223 L 228.030580 266.653154 L 227.389337 262.958418 L 226.699269 259.272489 L 225.965035 255.595116 L 225.188025 251.926548 L 224.369624 248.266992 L 223.511151 244.616627 L 222.613874 240.975601 L 221.679047 237.344031 L 220.707867 233.722009 L 219.701457 230.109614 L 219.172785 228.252175" fill="none" stroke="black" stroke-width="3.7" /><path d="M 164.974485 397.835590 L 168.256100 399.650384 L 171.544495 401.452866 L 174.838266 403.245505 L 178.138077 405.027001 L 181.443700 406.797685 L 184.755828 408.556173 L 188.075377 410.300608 L 191.403759 412.028132 L 194.743603 413.733379 L 198.096886 415.412011 L 201.467608 417.055291 L 204.861926 418.649215 L 208.306685 420.129950 L 211.808808 421.469494 L 215.351712 422.697896 L 218.923374 423.840347 L 222.514895 424.918829 L 226.120835 425.948077 L 229.738370 426.935828 L 233.365513 427.887726 L 237.000883 428.807758 L 240.644765 429.693498 L 244.295594 430.550120 L 246.682135 431.089515" fill="none" stroke="black" stroke-width="3.7" /><path d="M 226.676685 411.970790 L 228.380325 415.311443 L 230.111255 418.638052 L 231.862542 421.953991 L 233.632862 425.259810 L 235.420710 428.556179 L 237.224345 431.843939 L 239.046707 435.121355 L 240.884561 438.390108 L 242.739659 441.649104 L 244.613034 444.897629 L 246.503445 448.136266 L 248.411540 451.364517 L 250.337990 454.581853 L 252.285884 457.786249 L 254.253833 460.978363 L 256.242716 464.157470 L 258.253579 467.322716 L 260.287558 470.473156 L 262.345964 473.607690 L 264.430228 476.725092 L 266.541906 479.823996 L 268.684384 482.901686 L 270.859638 485.956287 L 273.068932 488.986338 L 275.314890 491.989293 L 277.600537 494.962135 L 279.929300 497.901315 L 282.305752 500.802082 L 284.731241 503.662010 L 287.201180 506.483660 L 289.712983 509.268123 L 292.263879 512.016815 L 294.850372 514.732026 L 297.470177 517.415102 L 300.121227 520.067303 L 302.801686 522.689774 L 305.509909 525.283563 L 308.244383 527.849661 L 311.003777 530.388949 L 313.786855 532.902265 L 316.592497 535.390379 L 319.420909 537.852585 L 322.271756 540.288780 L 325.142412 542.701596 L 328.032121 545.091568 L 330.943498 547.455096 L 333.873222 549.795845 L 336.823515 552.110611 L 339.793286 554.400330 L 342.784302 556.662226 L 345.798570 558.893034 L 348.405385 560.769365" fill="none" stroke="black" stroke-width="3.7" /><path d="M 1.559185 274.808440 L 5.077696 276.105548 L 8.587997 277.424728 L 12.091652 278.761467 L 15.588794 280.115146 L 19.079124 281.486296 L 22.562799 282.874258 L 26.039279 284.280143 L 29.507917 285.705262 L 32.967910 287.151245 L 36.418280 288.620040 L 39.857814 290.114033 L 43.284964 291.636217 L 46.697735 293.190369 L 50.093523 294.781293 L 53.467165 296.418621 L 56.813909 298.110139 L 60.125908 299.868533 L 63.391265 301.711860 L 66.590085 303.668139 L 69.655465 305.826287 L 72.457685 308.308476 L 74.153658 311.541287 L 72.172270 314.555213 L 68.995604 316.529934 L 65.582831 318.079704 L 62.065812 319.379375 L 58.500563 320.540754 L 54.902957 321.598291 L 51.282503 322.575183 L 47.644331 323.484034 L 43.993660 324.341283 L 40.333006 325.154853 L 36.664130 325.930512 L 32.988338 326.672720 L 29.306626 327.384993 L 25.619761 328.070113 L 21.928355 328.730349 L 18.232861 329.367340 L 14.533008 329.978518 L 10.829677 330.568236 L 7.122155 331.130997 L 5.726360 331.333915" fill="none" stroke="black" stroke-width="3.7" /><path d="M 21.049360 286.968490 L 24.571479 288.255711 L 28.079123 289.581895 L 31.575073 290.938622 L 35.057851 292.328802 L 38.526465 293.753935 L 41.979996 295.215194 L 45.416116 296.716892 L 48.831647 298.264782 L 52.222212 299.866535 L 55.581536 301.532692 L 58.900305 303.278070 L 62.164131 305.123983 L 65.343207 307.111723 L 68.366480 309.327219 L 71.091037 311.891265 L 72.706180 315.189094 L 71.093113 318.396079 L 68.009561 320.509941 L 64.615210 322.099032 L 61.111328 323.432761 L 57.539756 324.574833 L 53.933169 325.601078 L 50.302051 326.537071 L 46.652934 327.400466 L 42.990093 328.203830 L 39.316430 328.956303 L 35.633990 329.664679 L 31.944259 330.334146 L 28.248034 330.966826 L 24.546004 331.564614 L 20.839298 332.132689 L 17.127591 332.667096 L 13.860610 333.103740" fill="none" stroke="black" stroke-width="3.7" /><path d="M 118.910435 242.388225 L 122.639740 242.728493 L 126.271478 243.635614 L 129.686249 245.164171 L 132.767739 247.288355 L 135.372197 249.970374 L 137.369005 253.133752 L 138.546151 256.679660 L 138.908299 260.401065 L 138.280032 264.087441 L 136.850666 267.539030 L 134.658275 270.570485 L 131.894975 273.089345 L 128.702197 275.042586 L 125.211906 276.390546 L 121.539180 277.114175 L 117.797864 277.271886 L 114.089479 276.755992 L 110.508653 275.665207 L 107.180831 273.956226 L 104.222483 271.663943 L 101.791016 268.824748 L 100.002257 265.539502 L 99.086586 261.916524 L 98.993535 258.178895 L 99.874289 254.543093 L 100.115610 253.845890" fill="none" stroke="black" stroke-width="3.7" /><path d="M 121.101585 272.938040 L 117.373311 272.589500 L 113.748639 271.656741 L 110.352624 270.088757 L 107.323271 267.892415 L 104.821683 265.117124 L 103.016477 261.842829 L 102.156327 258.210112 L 102.219403 254.475653 L 103.338445 250.909274 L 105.281009 247.720412 L 107.906383 245.055609 L 111.028999 242.998330 L 114.481159 241.552901 L 118.132529 240.734336 L 121.872493 240.574344 L 125.592250 240.992369 L 129.175126 242.070487 L 132.508180 243.772237 L 135.445060 246.085306 L 137.824604 248.970998 L 139.421979 252.345580 L 140.154731 256.009918 L 139.792871 259.728833 L 139.020935 262.299140" fill="none" stroke="black" stroke-width="3.7" /><path d="M 286.708035 404.489215 L 289.893682 406.467596 L 293.062135 408.473416 L 296.216283 410.501661 L 299.355954 412.552237 L 302.480593 414.625645 L 305.590100 416.721670 L 308.682897 418.842274 L 311.757026 420.989858 L 314.808875 423.168985 L 317.834998 425.383674 L 320.831801 427.637828 L 323.793241 429.938177 L 326.710996 432.293608 L 329.573278 434.716072 L 332.357481 437.227691 L 335.016387 439.871074 L 337.490165 442.686622 L 339.515573 445.829414 L 340.467859 449.445083 L 340.865181 453.172576 L 341.019991 456.919004 L 341.019654 460.668799 L 340.928234 464.417569 L 340.758041 468.163631 L 340.530993 471.906701 L 340.259599 475.646828 L 339.950427 479.384036 L 339.608802 483.118431 L 339.237083 486.849955 L 338.841034 490.578975 L 338.423545 494.305654 L 337.986732 498.030118 L 337.532426 501.752489 L 337.062124 505.472874 L 336.577115 509.191372 L 336.078533 512.908074 L 335.567295 516.623058 L 335.044246 520.336398 L 334.510077 524.048155 L 333.965438 527.758392 L 333.409977 531.467024 L 332.844736 535.174178 L 332.270421 538.879937 L 331.687407 542.584338 L 331.094568 546.287179 L 330.493243 549.988651 L 329.882201 553.688532 L 329.261532 557.386810 L 328.629332 561.083133 L 328.394635 562.430440" fill="none" stroke="black" stroke-width="3.7" /><path d="M 945.386860 268.159790 L 947.760316 271.062960 L 950.077055 274.011661 L 952.349131 276.994925 L 954.580853 280.008513 L 956.769372 283.053609 L 958.921411 286.124601 L 961.027346 289.227381 L 963.093277 292.356924 L 965.117153 295.513838 L 967.090717 298.702437 L 969.015162 301.920897 L 970.888896 305.169116 L 972.708365 308.448031 L 974.469571 311.758616 L 976.167969 315.101891 L 977.791748 318.482022 L 979.340031 321.897323 L 980.806706 325.348381 L 982.183870 328.836058 L 983.462588 332.360972 L 984.632626 335.923426 L 985.682299 339.523238 L 986.586939 343.162153 L 987.331068 346.837055 L 987.908329 350.541664 L 988.354840 354.264758 L 988.718746 357.996914 L 989.010160 361.735471 L 989.234776 365.478677 L 989.396526 369.225154 L 989.498339 372.973740 L 989.547412 376.723374 L 989.546694 380.473326 L 989.500374 384.222988 L 989.410373 387.971859 L 989.279278 391.719523 L 989.109250 395.465631 L 988.902136 399.209883 L 988.657972 402.951908 L 988.377432 406.691382 L 988.064614 410.428289 L 987.720822 414.162476 L 987.345513 417.893630 L 986.937289 421.621330 L 986.501266 425.345881 L 986.031777 429.066363 L 985.532722 432.782988 L 985.000968 436.495077 L 984.433965 440.201944 L 983.822547 443.901727 L 983.735960 444.391515" fill="none" stroke="black" stroke-width="3.7" /><path d="M 951.950310 274.085215 L 954.217286 277.072278 L 956.427042 280.101983 L 958.591888 283.163950 L 960.716248 286.254159 L 962.797277 289.373705 L 964.841845 292.517271 L 966.840416 295.690272 L 968.799083 298.888045 L 970.715920 302.111076 L 972.583053 305.363146 L 974.401327 308.642762 L 976.169461 311.949656 L 977.884024 315.284631 L 979.541189 318.648503 L 981.136679 322.042089 L 982.660693 325.468363 L 984.109537 328.927046 L 985.478764 332.417940 L 986.760946 335.941668 L 987.947572 339.498658 L 989.028973 343.089011 L 989.994075 346.712379 L 990.827631 350.368302 L 991.499785 354.057194 L 992.013375 357.771324 L 992.390022 361.501929 L 992.645764 365.242809 L 992.788850 368.989747 L 992.826253 372.739288 L 992.766135 376.488610 L 992.614716 380.235417 L 992.377548 383.977838 L 992.054815 387.713869 L 991.655951 391.442515 L 991.186100 395.162861 L 990.649154 398.874111 L 990.048661 402.575615 L 989.387856 406.266848 L 988.669688 409.947381 L 987.890472 413.615482 L 987.057104 417.271652 L 986.173693 420.916056 L 985.238203 424.547441 L 984.250324 428.164938 L 983.213795 431.768785 L 982.126732 435.357734 L 980.985506 438.929832 L 979.785688 442.482658 L 978.514956 446.010671 L 978.417960 446.266615" fill="none" stroke="black" stroke-width="3.7" /><path d="M 1012.081660 90.262700 L 1012.738579 93.954690 L 1013.359804 97.652865 L 1013.954582 101.355386 L 1014.524632 105.061795 L 1015.072038 108.771617 L 1015.594732 112.485003 L 1016.096374 116.201291 L 1016.571683 119.921038 L 1017.024353 123.643604 L 1017.453387 127.368970 L 1017.855308 131.097358 L 1018.229667 134.828611 L 1018.576627 138.562505 L 1018.894628 142.298975 L 1019.181995 146.037927 L 1019.436678 149.779252 L 1019.654569 153.522900 L 1019.833133 157.268621 L 1019.971031 161.016044 L 1020.064845 164.764815 L 1020.111124 168.514466 L 1020.104766 172.264389 L 1020.041160 176.013792 L 1019.908761 179.761383 L 1019.700358 183.505474 L 1019.410655 187.244091 L 1019.029313 190.974455 L 1018.534360 194.691376 L 1017.897975 198.386527 L 1017.081404 202.045514 L 1016.058665 205.652674 L 1014.817930 209.190956 L 1013.410371 212.666075 L 1011.852469 216.076491 L 1010.159151 219.421914 L 1008.343487 222.702784 L 1006.405810 225.913174 L 1004.371188 229.062930 L 1002.248589 232.154066 L 1000.045935 235.188713 L 997.770256 238.169054 L 995.427782 241.097270 L 993.020836 243.972773 L 990.554565 246.797557 L 988.036787 249.576503 L 985.471229 252.311401 L 982.861200 255.003915 L 980.209664 257.655611 L 977.513705 260.262138 L 974.781266 262.830378 L 972.014767 265.361901 L 969.212979 267.854314 L 966.377555 270.308408 L 963.511884 272.727108 L 960.613538 275.106575 L 957.684517 277.448158 L 954.724346 279.750233 L 951.731430 282.009577 L 948.698391 284.214726 L 947.888010 284.783590" fill="none" stroke="black" stroke-width="3.7" /><path d="M 1015.628560 105.540100 L 1016.503404 109.186541 L 1017.316055 112.847389 L 1018.081126 116.518481 L 1018.803755 120.198171 L 1019.481668 123.886363 L 1020.120673 127.581486 L 1020.714568 131.284129 L 1021.268543 134.992950 L 1021.779185 138.707987 L 1022.240557 142.429461 L 1022.656022 146.156321 L 1023.023158 149.888244 L 1023.339271 153.624835 L 1023.601424 157.365613 L 1023.803836 161.110105 L 1023.941117 164.857534 L 1024.012131 168.606761 L 1024.011789 172.356629 L 1023.935771 176.105684 L 1023.776994 179.852119 L 1023.528499 183.593659 L 1023.182413 187.327447 L 1022.729726 191.049869 L 1022.146711 194.754046 L 1021.409767 198.430078 L 1020.467089 202.058628 L 1019.331170 205.631715 L 1018.006656 209.139449 L 1016.520430 212.581846 L 1014.898835 215.962563 L 1013.155526 219.282260 L 1011.302663 222.542246 L 1009.345288 225.740668 L 1007.294974 228.880331 L 1005.165391 231.966740 L 1002.963553 235.002031 L 1000.695619 237.988295 L 998.367064 240.927589 L 995.982703 243.821864 L 993.541812 246.668645 L 991.053015 249.473615 L 988.520302 252.238985 L 985.946614 254.966270 L 983.334555 257.656857 L 980.683447 260.308988 L 977.996097 262.924392 L 975.276978 265.506748 L 972.526371 268.055546 L 969.742561 270.568050 L 966.931495 273.050023 L 964.088295 275.495128 L 961.217051 277.907215 L 958.316087 280.283479 L 955.383929 282.621142 L 952.414792 284.911621 L 951.323735 285.726765" fill="none" stroke="black" stroke-width="3.7" /><path d="M 828.655910 192.511000 L 827.786618 196.158737 L 826.993110 199.823724 L 826.267620 203.502788 L 825.610338 207.194653 L 825.039312 210.900807 L 824.564382 214.620392 L 824.203017 218.352531 L 823.984831 222.095492 L 823.954352 225.844338 L 824.191341 229.585108 L 824.925157 233.256259 L 826.352996 236.714632 L 828.266877 239.935777 L 830.467949 242.970919 L 832.807658 245.901158 L 835.196078 248.792163 L 837.561432 251.701942 L 839.842965 254.677588 L 841.980590 257.757593 L 843.884258 260.986731 L 845.515233 264.361302 L 846.729118 267.905833 L 847.513089 271.568623 L 847.830402 275.301430 L 847.563376 279.037593 L 846.822990 282.710345 L 845.609980 286.256631 L 844.101208 289.687989 L 842.334132 292.994332 L 840.385383 296.197542 L 838.311015 299.321182 L 836.133672 302.374162 L 833.899161 305.385649 L 831.636244 308.375906 L 829.376613 311.368637 L 827.154966 314.389592 L 825.030526 317.479245 L 823.065477 320.672108 L 821.427035 324.042762 L 820.381050 327.635618 L 820.079617 331.370929 L 820.046744 335.119835 L 820.189035 338.866771 L 820.465463 342.606431 L 820.835232 346.338049 L 821.277604 350.061767 L 821.780512 353.777812 L 822.335223 357.486501 L 822.937727 361.187742 L 823.587262 364.881035 L 824.281806 368.566117 L 824.483560 369.575190" fill="none" stroke="black" stroke-width="3.7" /><path d="M 622.718435 402.823315 L 626.123275 404.394773 L 629.537666 405.945385 L 632.959522 407.479454 L 636.388004 408.998654 L 639.823113 410.502815 L 643.264394 411.992799 L 646.712687 413.466480 L 650.167274 414.925345 L 653.628429 416.368556 L 657.096514 417.795039 L 660.572636 419.201820 L 664.056382 420.589604 L 667.548207 421.956921 L 671.048640 423.302039 L 674.558283 424.622933 L 678.077809 425.917257 L 681.608009 427.182182 L 685.149783 428.414347 L 688.705621 429.605286 L 692.275817 430.752387 L 695.861459 431.850176 L 699.463172 432.894080 L 703.080510 433.882599 L 706.707197 434.836263 L 710.341744 435.759549 L 713.983120 436.655550 L 717.629473 437.531074 L 721.280094 438.388635 L 724.934419 439.230284 L 728.591993 440.057709 L 732.252701 440.871164 L 735.915912 441.673265 L 739.581381 442.464986 L 743.248906 443.247125 L 746.918313 444.020387 L 750.589452 444.785390 L 754.262187 445.542693 L 757.936540 446.292109 L 761.612335 447.034420 L 765.289428 447.770275 L 768.967743 448.499992 L 772.647357 449.223135 L 776.328165 449.940177 L 780.010101 450.651405 L 783.693223 451.356463 L 787.377547 452.055215 L 791.063130 452.747294 L 794.750304 453.430840 L 795.309535 453.533065" fill="none" stroke="black" stroke-width="3.7" /><path d="M 632.723660 410.928365 L 636.189761 412.359661 L 639.661503 413.777226 L 643.137695 415.183844 L 646.617873 416.580571 L 650.101873 417.967739 L 653.589760 419.345102 L 657.081646 420.712293 L 660.577306 422.069808 L 664.076907 423.417130 L 667.581121 424.752408 L 671.089813 426.075871 L 674.603128 427.387009 L 678.121372 428.684859 L 681.644880 429.968348 L 685.174051 431.236182 L 688.709331 432.486884 L 692.251472 433.718018 L 695.801507 434.926194 L 699.359734 436.110001 L 702.927074 437.266031 L 706.504608 438.390099 L 710.093579 439.477109 L 713.697259 440.514312 L 717.310895 441.516289 L 720.932686 442.488417 L 724.561887 443.432525 L 728.196356 444.356143 L 731.835336 445.261831 L 735.478230 446.151653 L 739.124550 447.027337 L 742.774021 447.889802 L 746.426320 448.740217 L 750.081011 449.580286 L 753.737877 450.410833 L 757.396739 451.232549 L 761.057436 452.046051 L 764.719839 452.851838 L 768.383929 453.649923 L 772.049606 454.440685 L 775.716672 455.224982 L 779.385052 456.003109 L 783.054895 456.774307 L 786.725961 457.539666 L 790.398394 458.298437 L 794.072120 459.050918 L 797.747262 459.796456 L 801.424175 460.533208 L 801.766885 460.600815" fill="none" stroke="black" stroke-width="3.7" /><path d="M 747.783735 345.464515 L 750.453392 348.097297 L 753.006084 350.843989 L 755.465222 353.674748 L 757.834407 356.581316 L 760.107503 359.563530 L 762.288239 362.613933 L 764.375860 365.728842 L 766.351904 368.915670 L 768.216893 372.168624 L 769.967223 375.484545 L 771.594578 378.862431 L 773.090102 382.300675 L 774.444419 385.796936 L 775.647783 389.347988 L 776.690192 392.949588 L 777.561664 396.596329 L 778.252482 400.281548 L 778.767313 403.995497 L 779.104745 407.730001 L 779.327128 411.473166 L 779.454774 415.220850 L 779.496396 418.970533 L 779.467780 422.720351 L 779.380786 426.469271 L 779.242901 430.216674 L 779.059678 433.962150 L 778.835750 437.705428 L 778.575102 441.446345 L 778.277576 445.184512 L 777.949478 448.920116 L 777.593113 452.653127 L 777.210452 456.383535 L 776.803163 460.111339 L 776.371305 463.836380 L 775.915152 467.558525 L 775.438285 471.278072 L 774.938812 474.994651 L 774.418502 478.708373 L 773.874784 482.418741 L 773.306659 486.125447 L 772.797460 489.279715" fill="none" stroke="black" stroke-width="3.7" /><path d="M 751.115460 353.365065 L 753.574400 356.195363 L 755.886407 359.147395 L 758.082741 362.186483 L 760.170716 365.301154 L 762.144547 368.489285 L 764.010825 371.741542 L 765.770743 375.052588 L 767.415395 378.422442 L 768.934190 381.850841 L 770.333095 385.329738 L 771.607356 388.856092 L 772.752355 392.426432 L 773.763808 396.036818 L 774.637839 399.682876 L 775.371091 403.359839 L 775.963024 407.062333 L 776.412397 410.785023 L 776.743258 414.520144 L 776.973340 418.262841 L 777.112046 422.010062 L 777.166979 425.759470 L 777.145414 429.509257 L 777.053568 433.258008 L 776.896227 437.004615 L 776.677983 440.748202 L 776.398847 444.487755 L 776.063138 448.222650 L 775.676615 451.952621 L 775.241874 455.677291 L 774.753786 459.395347 L 774.218909 463.106971 L 773.631034 466.810568 L 772.989543 470.505244 L 772.375710 473.693790" fill="none" stroke="black" stroke-width="3.7" /><path d="M 280.034560 204.147375 L 283.711601 203.411400 L 287.395709 202.711563 L 291.084617 202.037465 L 294.777561 201.385839 L 298.474035 200.754539 L 302.173738 200.142449 L 305.876474 199.548973 L 309.582051 198.973513 L 313.290285 198.415426 L 317.000985 197.873971 L 320.714343 197.351047 L 324.429900 196.844003 L 328.147813 196.354520 L 331.867821 195.881235 L 335.590063 195.425843 L 339.314178 194.986036 L 343.040461 194.564989 L 346.768573 194.160467 L 350.498422 193.772278 L 354.230231 193.403409 L 357.963711 193.051864 L 361.698769 192.717511 L 365.435365 192.400791 L 369.173646 192.104611 L 372.913309 191.826475 L 376.654308 191.566939 L 380.396576 191.326369 L 384.140043 191.105203 L 387.884742 190.905976 L 391.630459 190.726970 L 395.377102 190.568589 L 399.124577 190.431326 L 402.872776 190.315488 L 406.621596 190.221829 L 410.370914 190.150665 L 414.120620 190.104253 L 417.870551 190.083136 L 421.620537 190.086460 L 425.370419 190.114139 L 429.120027 190.166996 L 432.869174 190.246104 L 436.617652 190.352243 L 440.365240 190.486257 L 444.111693 190.649015 L 447.856751 190.841319 L 451.599982 191.066356 L 455.341185 191.322815 L 459.080019 191.611653 L 462.816117 191.933904 L 466.549074 192.290658 L 470.278451 192.683052 L 474.003771 193.112274 L 477.724512 193.579564 L 481.440106 194.086216 L 485.149533 194.636218 L 488.852164 195.230177 L 492.547445 195.868185 L 496.234541 196.551841 L 499.912574 197.282668 L 503.583389 198.049147 L 507.250752 198.832049 L 510.916293 199.623440 L 514.579883 200.423812 L 518.241740 201.232079 L 521.902028 202.047421 L 525.560628 202.870308 L 529.217885 203.699144 L 532.873759 204.534054 L 536.528312 205.374733 L 540.181757 206.220211 L 543.834048 207.070665 L 547.485283 207.925640 L 551.135612 208.784474 L 554.785036 209.647146 L 558.433606 210.513421 L 562.081463 211.382694 L 565.728649 212.254781 L 569.375153 213.129713 L 573.021126 214.006857 L 576.666620 214.885991 L 580.311642 215.767078 L 583.956278 216.649758 L 587.600609 217.533698 L 591.244675 218.418730 L 594.888504 219.304739 L 598.532189 220.191339 L 602.175775 221.078345 L 605.819319 221.965527 L 609.462874 222.852660 L 613.106491 223.739541 L 616.750225 224.625937 L 620.394158 225.511518 L 624.038326 226.396130 L 627.682775 227.279583 L 631.327576 228.161586 L 634.972823 229.041741 L 638.618520 229.920031 L 642.264731 230.796185 L 645.911609 231.669556 L 649.559129 232.540245 L 653.207342 233.408022 L 656.856431 234.272113 L 660.506390 235.132518 L 664.157241 235.989129 L 667.809213 236.840948 L 671.462276 237.688078 L 675.116457 238.530370 L 678.772092 239.366333 L 682.429014 240.196642 L 686.087437 241.020311 L 689.747512 241.836613 L 693.409157 242.645841 L 697.072828 243.445842 L 700.738259 244.237744 L 704.405964 245.019041 L 708.075722 245.790638 L 711.748054 246.549886 L 715.422713 247.297797 L 719.100379 248.030768 L 722.780784 248.749855 L 726.464386 249.452389 L 730.151413 250.136699 L 733.841924 250.801960 L 737.536330 251.445247 L 741.235038 252.063304 L 744.938163 252.654281 L 748.646062 253.214493 L 752.359107 253.739481 L 756.077674 254.223753 L 759.802078 254.660792 L 763.532541 255.042563 L 767.269180 255.358029 L 771.011913 255.589681 L 774.759471 255.719743 L 778.509180 255.715242 L 779.460260 255.687715" fill="none" stroke="black" stroke-width="3.7" /><path d="M 302.756410 203.109925 L 306.434793 202.380729 L 310.120982 201.691949 L 313.812418 201.031852 L 317.508213 200.396607 L 321.207874 199.784269 L 324.911000 199.193250 L 328.617367 198.622905 L 332.326747 198.072501 L 336.038921 197.541259 L 339.753824 197.029438 L 343.471361 196.537126 L 347.191172 196.062283 L 350.913571 195.608180 L 354.637989 195.170947 L 358.364754 194.754202 L 362.093471 194.355305 L 365.824128 193.974971 L 369.556817 193.615133 L 373.291209 193.273424 L 377.027244 192.950154 L 380.765123 192.648956 L 384.504482 192.366775 L 388.245249 192.103905 L 391.987344 191.860646 L 395.730812 191.639518 L 399.475482 191.439802 L 403.221200 191.260891 L 406.967870 191.103148 L 410.715392 190.967153 L 414.463657 190.853346 L 418.212572 190.763407 L 421.961982 190.697390 L 425.711727 190.654718 L 429.461663 190.635675 L 433.211643 190.641095 L 436.961495 190.672130 L 440.711042 190.729362 L 444.460096 190.812950 L 448.208452 190.923637 L 451.955873 191.062515 L 455.702061 191.231346 L 459.446812 191.429411 L 463.189859 191.657338 L 466.930902 191.916004 L 470.669623 192.206263 L 474.405678 192.528990 L 478.138701 192.885072 L 481.868291 193.275467 L 485.594017 193.701174 L 489.315414 194.163235 L 493.031981 194.662694 L 496.743172 195.200715 L 500.447936 195.781329 L 504.145984 196.403210 L 507.836628 197.067549 L 511.519107 197.775690 L 515.193435 198.525054 L 518.862967 199.297729 L 522.531092 200.077060 L 526.198289 200.860748 L 529.864469 201.649175 L 533.529811 202.441491 L 537.194346 203.237532 L 540.858103 204.037149 L 544.521225 204.839669 L 548.183669 205.645275 L 551.845552 206.453427 L 555.506946 207.263795 L 559.167807 208.076562 L 562.828265 208.891147 L 566.488360 209.707361 L 570.148073 210.525286 L 573.807505 211.344465 L 577.466687 212.164763 L 581.125630 212.986125 L 584.784396 213.808277 L 588.443024 214.631043 L 592.101533 215.454333 L 595.759970 216.277949 L 599.418368 217.101735 L 603.076764 217.925528 L 606.735189 218.749197 L 610.393676 219.572589 L 614.052255 220.395568 L 617.710969 221.217950 L 621.369852 222.039578 L 625.028924 222.860367 L 628.688220 223.680154 L 632.347806 224.498646 L 636.007689 225.315813 L 639.667890 226.131548 L 643.328465 226.945606 L 646.989472 227.757720 L 650.650902 228.567926 L 654.312789 229.376060 L 657.975261 230.181539 L 661.638263 230.984605 L 665.301832 231.785079 L 668.966100 232.582352 L 672.631048 233.376488 L 676.296685 234.167439 L 679.963156 234.954516 L 683.630456 235.737719 L 687.298575 236.517080 L 690.967720 237.291595 L 694.637824 238.061549 L 698.308932 238.826707 L 701.981266 239.585956 L 705.654691 240.339904 L 709.329436 241.087398 L 713.005490 241.828426 L 716.682940 242.562490 L 720.361941 243.288745 L 724.042461 244.007256 L 727.724766 244.716567 L 731.408782 245.416933 L 735.094790 246.106739 L 738.782806 246.785722 L 742.472963 247.452976 L 746.165555 248.106615 L 749.860523 248.746675 L 753.558187 249.370980 L 757.258801 249.977546 L 760.962429 250.565410 L 764.669335 251.132229 L 768.379806 251.675220 L 772.094144 252.191092 L 775.812668 252.675844 L 779.535716 253.124483 L 783.263556 253.531287 L 786.996443 253.888682 L 790.734600 254.185718 L 794.478051 254.405726 L 798.225904 254.527459 L 799.265610 254.541790" fill="none" stroke="black" stroke-width="3.7" /><path d="M 818.650685 239.061425 L 822.395915 238.874727 L 826.137307 238.621351 L 829.875223 238.320891 L 833.609605 237.979296 L 837.340405 237.600541 L 841.067275 237.184837 L 844.790115 236.734519 L 848.508593 236.249476 L 852.222851 235.733092 L 855.932056 235.181595 L 859.636091 234.596388 L 863.334906 233.979090 L 867.028149 233.329286 L 870.715451 232.646560 L 874.396425 231.930483 L 878.070667 231.180603 L 881.737752 230.396449 L 885.397236 229.577538 L 889.048646 228.723338 L 892.691494 227.833333 L 896.325266 226.906980 L 899.949413 225.943681 L 903.563365 224.942846 L 907.166521 223.903854 L 910.758238 222.826024 L 914.334746 221.698945 L 917.888552 220.502327 L 921.418199 219.236118 L 924.924165 217.905654 L 928.406946 216.515557 L 931.867070 215.069925 L 935.303948 213.569852 L 938.719071 212.020922 L 942.113062 210.426242 L 945.486416 208.788374 L 948.839604 207.109609 L 952.173070 205.392010 L 955.487236 203.637440 L 958.782495 201.847581 L 962.056256 200.018694 L 965.311565 198.157176 L 968.548851 196.264476 L 971.764573 194.335367 L 974.961810 192.375774 L 978.137049 190.380722 L 981.289728 188.350219 L 984.415482 186.278521 L 986.238960 185.032025" fill="none" stroke="black" stroke-width="3.7" /><path d="M 813.648110 308.889540 L 817.365480 309.382908 L 821.078053 309.911322 L 824.786693 310.466694 L 828.491423 311.047575 L 832.192382 311.651988 L 835.889421 312.279949 L 839.582443 312.931112 L 843.270685 313.608820 L 846.954401 314.310695 L 850.633180 315.037999 L 854.306490 315.792462 L 857.973130 316.578691 L 861.633119 317.395277 L 865.285704 318.244332 L 868.930004 319.128241 L 872.564972 320.049769 L 876.189356 321.012088 L 879.801657 322.018853 L 883.398427 323.079729 L 886.978195 324.196513 L 890.538117 325.374900 L 894.074371 326.622430 L 897.582098 327.948068 L 901.049568 329.375486 L 904.467824 330.916711 L 907.840944 332.554811 L 911.193045 334.235693 L 914.526906 335.952505 L 917.841652 337.705981 L 921.136408 339.496765 L 924.410278 341.325466 L 927.662416 343.192534 L 930.891953 345.098408 L 934.098022 347.043479 L 937.279806 349.028011 L 940.436461 351.052289 L 943.562241 353.123908 L 946.657897 355.240277 L 949.715019 357.411925 L 952.723866 359.649878 L 953.721135 360.426240" fill="none" stroke="black" stroke-width="3.7" /><path d="M 816.774735 311.383415 L 820.472752 312.005493 L 824.165147 312.660209 L 827.852909 313.340551 L 831.536087 314.045289 L 835.215014 314.771871 L 838.889384 315.521162 L 842.559356 316.291712 L 846.223827 317.088006 L 849.883243 317.907198 L 853.537184 318.750471 L 857.185169 319.619158 L 860.826079 320.517038 L 864.459490 321.444774 L 868.084895 322.403284 L 871.701388 323.394858 L 875.307895 324.422143 L 878.903136 325.488181 L 882.485574 326.596498 L 886.052779 327.752913 L 889.601158 328.965804 L 893.128812 330.237582 L 896.631861 331.575533 L 900.105341 332.988441 L 903.539545 334.494162 L 906.928817 336.098770 L 910.303888 337.733211 L 913.680329 339.364818 L 917.058271 340.993317 L 920.437561 342.619017 L 923.818232 344.241842 L 927.200342 345.861666 L 930.583932 347.478394 L 933.969044 349.091937 L 937.355807 350.702009 L 940.744390 352.308248 L 944.134673 353.910897 L 947.527071 355.509062 L 950.921739 357.102399 L 954.319368 358.689411 L 955.602210 359.285415" fill="none" stroke="black" stroke-width="3.7" /><path d="M 835.329410 274.808440 L 839.079367 274.825360 L 842.829215 274.858664 L 846.578901 274.906999 L 850.328394 274.968477 L 854.077588 275.046018 L 857.826443 275.138447 L 861.574851 275.247432 L 865.322670 275.375053 L 869.069711 275.523769 L 872.815710 275.696796 L 876.560075 275.902038 L 880.302199 276.144424 L 884.041171 276.431137 L 887.779725 276.723443 L 891.521075 276.976560 L 895.265507 277.179355 L 899.012295 277.332834 L 902.760761 277.437852 L 906.510268 277.495175 L 910.260211 277.503155 L 914.009856 277.454082 L 917.758139 277.343225 L 918.703135 277.300565" fill="none" stroke="black" stroke-width="3.7" /><path d="M 840.952335 278.035465 L 844.695949 277.816920 L 848.440580 277.616380 L 852.185974 277.430630 L 855.931995 277.257985 L 859.678718 277.101348 L 863.426035 276.959687 L 867.173940 276.834568 L 870.922419 276.728118 L 874.671441 276.642837 L 878.420941 276.582100 L 882.170818 276.553388 L 885.920773 276.561986 L 889.670347 276.615020 L 893.419857 276.673330 L 897.169712 276.692168 L 900.919498 276.660574 L 904.668553 276.579573 L 908.416250 276.450018 L 912.162005 276.272767 L 915.905108 276.046228 L 919.644403 275.763575 L 923.378400 275.418365 L 924.320835 275.315365" fill="none" stroke="black" stroke-width="3.7" /></svg>