<?xml version="1.0" encoding="utf-8" ?>
<svg baseProfile="full" height="529" version="1.1" viewBox="0,0,382,529" width="382" xmlns="http://www.w3.org/2000/svg" xmlns:ev="http://www.w3.org/2001/xml-events" xmlns:xlink="http://www.w3.org/1999/xlink"><defs><style type="text/css"><![CDATA[
	.background { fill: white; }
	.line { stroke: firebrick; stroke-width: .1mm; }
	.blacksquare { fill: indigo; }
	.whitesquare { fill: white; }
]]></style></defs><path d="M 197.373074 132.796720 L 195.642878 132.859273 L 193.680813 135.175797 L 191.854447 137.624868 L 190.181543 140.190427 L 188.679864 142.856414 L 187.367171 145.606772 L 186.261226 148.425440 L 185.379792 151.296361 L 184.740631 154.203475 L 184.361505 157.130723 L 184.260175 160.062047 L 184.454406 162.981386 L 184.961957 165.872684 L 185.800592 168.719880 L 186.959128 171.467518 L 188.504393 174.030814 L 190.482782 176.306063 L 192.798114 178.155641 L 195.416898 179.564103 L 198.255435 180.536099 L 201.230022 181.076278 L 204.251821 181.189493 L 207.217516 180.915458 L 210.152590 180.310542 L 213.029047 179.416736 L 215.818892 178.276035 L 218.495569 176.930209 L 221.084846 175.406745 L 223.567190 173.720615 L 225.936259 171.881108 L 228.185709 169.897510 L 230.309197 167.779110 L 232.300382 165.535195 L 234.152919 163.175053 L 235.860467 160.707971 L 237.416682 158.143238 L 238.815221 155.490141 L 240.049742 152.757968 L 241.113902 149.956006 L 242.001358 147.093544 L 242.573074 144.796720" fill="none" stroke="black" stroke-width="1.0" /><path d="M 243.873074 146.896720 L 243.025737 149.778132 L 241.951866 152.575016 L 240.663594 155.276658 L 239.173053 157.872342 L 237.492375 160.351355 L 235.633693 162.702983 L 233.609139 164.916512 L 231.430846 166.981226 L 229.110944 168.886413 L 226.661568 170.621357 L 224.094848 172.175345 L 221.422918 173.537661 L 218.657910 174.697593 L 215.811955 175.644426 L 212.897187 176.367446 L 209.925422 176.849193 L 206.877141 177.037554 L 203.798283 176.911791 L 200.760500 176.455879 L 197.835441 175.653789 L 195.094760 174.489495 L 192.610106 172.946969 L 190.453130 171.010184 L 188.695484 168.663113 L 187.428431 165.961951 L 186.652191 163.075234 L 186.191162 160.094789 L 185.865969 157.109833 L 185.653482 154.069024 L 185.569381 151.004734 L 185.706938 147.972924 L 186.159420 145.029557 L 187.020099 142.230594 L 188.382244 139.631997 L 188.473074 139.496720" fill="none" stroke="black" stroke-width="1.0" /><path d="M 189.473074 141.696720 L 188.216208 144.448947 L 187.101365 147.255374 L 186.167663 150.111400 L 185.454221 153.012422 L 185.000156 155.953838 L 184.844586 158.931046 L 185.006482 161.928164 L 185.550114 164.891994 L 186.491705 167.752920 L 187.824415 170.438015 L 189.541410 172.874353 L 191.635852 174.989010 L 194.095807 176.698603 L 196.789284 177.881497 L 199.629510 178.587372 L 202.572928 178.870297 L 205.575981 178.784342 L 208.595115 178.383577 L 211.586773 177.722071 L 214.507399 176.853894 L 217.335752 175.842918 L 220.127353 174.673724 L 222.857039 173.338555 L 225.494328 171.833895 L 228.008735 170.156226 L 230.369776 168.302032 L 232.546968 166.267794 L 234.509826 164.049995 L 236.227866 161.645119 L 237.670606 159.049647 L 237.973074 158.396720" fill="none" stroke="black" stroke-width="1.0" /><path d="M 240.573074 136.196720 L 241.370571 139.095720 L 242.392412 141.915213 L 243.626865 144.644886 L 245.062194 147.274427 L 246.686665 149.793524 L 248.488543 152.191865 L 250.456094 154.459139 L 252.577585 156.585033 L 254.841280 158.559235 L 257.235445 160.371433 L 259.748345 162.011315 L 262.368247 163.468569 L 265.083416 164.732884 L 267.882118 165.793946 L 270.752617 166.641444 L 273.683181 167.265066 L 276.662074 167.654501 L 279.689941 167.791251 L 282.744208 167.654692 L 285.767842 167.227157 L 288.703877 166.490417 L 291.495344 165.426243 L 294.085277 164.016404 L 296.416709 162.242672 L 298.432671 160.086817 L 300.040135 157.579561 L 301.173059 154.885163 L 301.868618 152.052645 L 302.164683 149.121525 L 302.099126 146.131321 L 301.709819 143.121552 L 301.034634 140.131735 L 300.111441 137.201389 L 298.978112 134.370033 L 297.694694 131.651298 L 296.275724 129.009064 L 294.721437 126.445850 L 293.037816 123.965893 L 291.230842 121.573428 L 289.306495 119.272693 L 287.270759 117.067925 L 285.129613 114.963361 L 282.889041 112.963238 L 280.555023 111.071793 L 278.133540 109.293262 L 275.630576 107.631882 L 273.052110 106.091892 L 270.404124 104.677526 L 267.692601 103.393023 L 264.923521 102.242619 L 262.102867 101.230552 L 259.236619 100.361057 L 256.330759 99.638373 L 253.391269 99.066735 L 250.424130 98.650382 L 248.873074 98.496720" fill="none" stroke="black" stroke-width="1.0" /><path d="M 241.873074 135.596720 L 242.507631 138.497806 L 243.454268 141.317333 L 244.676894 144.046277 L 246.139415 146.675615 L 247.805738 149.196324 L 249.639771 151.599380 L 251.589695 153.881192 L 253.664771 156.061739 L 255.875344 158.125063 L 258.212310 160.049121 L 260.666563 161.811869 L 263.229000 163.391266 L 265.890514 164.765267 L 268.642002 165.911829 L 271.474358 166.808909 L 274.378477 167.434463 L 277.345256 167.766449 L 280.366705 167.761344 L 283.379532 167.373300 L 286.331292 166.621761 L 289.173314 165.528142 L 291.856926 164.113857 L 294.333456 162.400324 L 296.554232 160.408957 L 298.470582 158.161173 L 300.033834 155.678387 L 301.195317 152.982014 L 301.907551 150.095968 L 302.152970 147.138073 L 301.960869 144.162980 L 301.398946 141.207613 L 300.534896 138.308899 L 299.451383 135.501833 L 298.209439 132.801447 L 296.808008 130.206246 L 295.255936 127.713307 L 293.562070 125.319707 L 291.735256 123.022520 L 289.784340 120.818824 L 287.718171 118.705695 L 285.545593 116.680208 L 283.275454 114.739439 L 280.916601 112.880466 L 278.477879 111.100363 L 275.968136 109.396207 L 273.396218 107.765075 L 270.770972 106.204042 L 268.101244 104.710184 L 265.395881 103.280578 L 262.663729 101.912300 L 259.913636 100.602425 L 257.154448 99.348030 L 255.673074 98.696720" fill="none" stroke="black" stroke-width="1.0" /><path d="M 243.173074 139.796720 L 244.856751 142.286704 L 246.660586 144.694622 L 248.582069 147.009177 L 250.618689 149.219075 L 252.767937 151.313018 L 255.027301 153.279711 L 257.394273 155.107857 L 259.866341 156.786162 L 262.440995 158.303328 L 265.115725 159.648059 L 267.888021 160.809061 L 270.743488 161.752587 L 273.672724 162.464528 L 276.656235 162.946307 L 279.670298 163.194110 L 282.691191 163.204126 L 285.695192 162.972541 L 288.658579 162.495543 L 291.557629 161.769319 L 294.368620 160.790058 L 297.067830 159.553946 L 299.631537 158.057171 L 302.061708 156.256190 L 304.071185 154.064925 L 305.167319 151.342846 L 305.311628 148.358986 L 304.908352 145.356163 L 304.257852 142.428125 L 303.450076 139.543947 L 302.490253 136.708862 L 301.383615 133.928099 L 300.135392 131.206890 L 298.750816 128.550465 L 297.235118 125.964057 L 295.593528 123.452895 L 293.831278 121.022210 L 291.953598 118.677235 L 289.965720 116.423198 L 287.872873 114.265333 L 285.680291 112.208869 L 283.393202 110.259037 L 281.016839 108.421069 L 278.556433 106.700195 L 276.017213 105.101646 L 273.404412 103.630654 L 270.723260 102.292449 L 267.978987 101.092262 L 265.176826 100.035324 L 262.322007 99.126867 L 259.419761 98.372121 L 256.475320 97.776317 L 255.373074 97.596720" fill="none" stroke="black" stroke-width="1.0" /><path d="M 255.273074 96.196720 L 257.624166 94.319290 L 259.922543 92.369913 L 262.162513 90.349796 L 264.338389 88.260147 L 266.444481 86.102171 L 268.475100 83.877077 L 270.424556 81.586069 L 272.287160 79.230356 L 274.057224 76.811144 L 275.729057 74.329640 L 277.296971 71.787050 L 278.755277 69.184582 L 280.098284 66.523442 L 281.320305 63.804837 L 282.415649 61.029975 L 283.375397 58.181657 L 284.189207 55.278568 L 284.854146 52.333826 L 285.367455 49.357438 L 285.726373 46.359412 L 285.928139 43.349756 L 285.969992 40.338477 L 285.849171 37.335582 L 285.562917 34.351080 L 285.108467 31.394978 L 284.483062 28.477283 L 283.683941 25.608004 L 282.708342 22.797148 L 281.553506 20.054722 L 280.216671 17.390735 L 278.699803 14.807909 L 276.980599 12.333606 L 275.058116 10.011387 L 272.937291 7.882403 L 270.623064 5.987805 L 268.120373 4.368747 L 265.434155 3.066379 L 262.593327 2.113429 L 259.672357 1.540823 L 256.702739 1.339776 L 253.718370 1.488717 L 250.753142 1.966078 L 247.840953 2.750288 L 245.015697 3.819777 L 242.311384 5.151621 L 239.743423 6.700711 L 237.306404 8.438243 L 234.997254 10.344240 L 232.812899 12.398723 L 230.750266 14.581716 L 228.806282 16.873240 L 226.977872 19.253317 L 225.243964 21.705526 L 223.612343 24.237500 L 222.087458 26.843126 L 220.672936 29.515833 L 219.372407 32.249052 L 218.189499 35.036215 L 217.127841 37.870752 L 216.191062 40.746094 L 215.382790 43.655671 L 214.706655 46.592914 L 214.166284 49.551255 L 213.765307 52.524123 L 213.507352 55.504950 L 213.396049 58.487166 L 213.435025 61.464202 L 213.627910 64.429489 L 213.978332 67.376457 L 214.489921 70.298537 L 215.166304 73.189161 L 216.011110 76.041758 L 217.027969 78.849759 L 217.373074 79.696720" fill="none" stroke="black" stroke-width="1.0" /><path d="M 253.573074 95.096720 L 256.377347 94.051536 L 259.070028 92.771836 L 261.646599 91.275043 L 264.102544 89.578580 L 266.433344 87.699873 L 268.634483 85.656344 L 270.701444 83.465418 L 272.629708 81.144519 L 274.414759 78.711070 L 276.052504 76.182484 L 277.547295 73.580371 L 278.908278 70.916110 L 280.144502 68.195517 L 281.265017 65.424411 L 282.278873 62.608611 L 283.195120 59.753932 L 284.022807 56.866194 L 284.770985 53.951214 L 285.448704 51.014811 L 286.054494 48.063551 L 286.581533 45.088099 L 287.021743 42.091147 L 287.356393 39.082059 L 287.566755 36.070199 L 287.634101 33.064931 L 287.539701 30.075621 L 287.264826 27.111632 L 286.790749 24.182329 L 286.098739 21.297077 L 285.167448 18.453698 L 283.966486 15.671709 L 282.504255 13.006420 L 280.796573 10.494740 L 278.859256 8.173573 L 276.708122 6.079828 L 274.358988 4.250412 L 271.827671 2.722230 L 269.129989 1.532189 L 266.281758 0.717198 L 263.318084 0.315492 L 260.336514 0.324567 L 257.357393 0.684987 L 254.414834 1.339892 L 251.551592 2.245870 L 248.782417 3.371014 L 246.105252 4.693644 L 243.525049 6.200703 L 241.046763 7.879135 L 238.675344 9.715883 L 236.415746 11.697890 L 234.272921 13.812099 L 232.251821 16.045453 L 230.357400 18.384897 L 228.594610 20.817372 L 226.966675 23.328443 L 225.461339 25.909024 L 224.071159 28.553918 L 222.790750 31.256842 L 221.614727 34.011513 L 220.537705 36.811649 L 219.554300 39.650968 L 218.659125 42.523187 L 217.846796 45.422023 L 217.111929 48.341193 L 216.449137 51.274416 L 215.862794 54.215276 L 215.347322 57.167053 L 214.894395 60.130410 L 214.504012 63.103851 L 214.176175 66.085881 L 213.910882 69.075003 L 213.708135 72.069722 L 213.567932 75.068542 L 213.490274 78.069967 L 213.473074 80.296720" fill="none" stroke="black" stroke-width="1.0" /><path d="M 218.273074 76.896720 L 217.835308 73.922743 L 217.518416 70.935604 L 217.321238 67.939575 L 217.242612 64.938927 L 217.281379 61.937934 L 217.436376 58.940866 L 217.706444 55.951995 L 218.090421 52.975594 L 218.587147 50.015933 L 219.195461 47.077285 L 219.914201 44.163922 L 220.742208 41.280115 L 221.678320 38.430136 L 222.721376 35.618258 L 223.870217 32.848751 L 225.123680 30.125888 L 226.480605 27.453940 L 227.939831 24.837180 L 229.500198 22.279879 L 231.160545 19.786308 L 232.919710 17.360741 L 234.776533 15.007448 L 236.729853 12.730701 L 238.764863 10.544372 L 240.904653 8.453868 L 243.173849 6.488467 L 245.579612 4.691127 L 248.129101 3.104807 L 250.829699 1.773483 L 253.687498 0.800294 L 256.641613 0.193437 L 259.630466 0.000000 L 262.592479 0.267072 L 265.466075 1.041741 L 266.773074 1.596720" fill="none" stroke="black" stroke-width="1.0" /><path d="M 234.073074 79.596720 L 235.197734 76.814159 L 236.206666 73.986709 L 237.098761 71.119629 L 237.872913 68.218177 L 238.528016 65.287612 L 239.062961 62.333192 L 239.476641 59.360175 L 239.767951 56.373819 L 239.935782 53.379384 L 239.979028 50.382128 L 239.896582 47.387309 L 239.687337 44.400185 L 239.373074 41.596720" fill="none" stroke="black" stroke-width="1.0" /><path d="M 233.573074 79.596720 L 234.634677 76.796991 L 235.628204 73.972288 L 236.553652 71.124114 L 237.411024 68.253969 L 238.200317 65.363355 L 238.921534 62.453774 L 239.574673 59.526726 L 240.159734 56.583713 L 240.676718 53.626237 L 241.125625 50.655799 L 241.506454 47.673900 L 241.819206 44.682041 L 241.973074 42.896720" fill="none" stroke="black" stroke-width="1.0" /><path d="M 245.673074 86.596720 L 247.551220 84.273646 L 249.486964 81.993223 L 251.479127 79.757416 L 253.526533 77.568185 L 255.628003 75.427493 L 257.782362 73.337303 L 259.988430 71.299576 L 262.245031 69.316276 L 264.550987 67.389363 L 266.905122 65.520801 L 269.306258 63.712552 L 269.329135 63.583191 L 268.273074 64.296720" fill="none" stroke="black" stroke-width="1.0" /><path d="M 247.673074 85.996720 L 249.218860 83.415123 L 250.855904 80.894133 L 252.581904 78.436438 L 254.394555 76.044724 L 256.291554 73.721680 L 258.270598 71.469993 L 260.329383 69.292350 L 262.465605 67.191439 L 264.676960 65.169947 L 266.961147 63.230561 L 269.315859 61.375970 L 270.773074 60.296720" fill="none" stroke="black" stroke-width="1.0" /><path d="M 245.873074 82.696720 L 247.836016 80.433295 L 249.854004 78.216257 L 251.924798 76.046166 L 254.046160 73.923582 L 256.215851 71.849064 L 258.431631 69.823173 L 260.691262 67.846467 L 262.992505 65.919507 L 265.333122 64.042852 L 267.710872 62.217063 L 268.273074 61.796720" fill="none" stroke="black" stroke-width="1.0" /><path d="M 239.473074 84.196720 L 236.855954 83.019563 L 233.780342 82.897135 L 230.751036 82.942123 L 227.731335 83.138045 L 224.772721 83.593011 L 221.926673 84.415130 L 219.255048 85.717056 L 216.903277 87.528106 L 214.917042 89.748271 L 213.317980 92.291006 L 212.127727 95.069764 L 211.390278 97.996348 L 211.069307 100.974281 L 211.099792 103.964293 L 211.454506 106.939154 L 212.106220 109.871639 L 213.092495 112.725315 L 214.608408 115.301720 L 216.973092 117.055390 L 219.859354 117.863264 L 222.846844 118.316875 L 225.845852 118.634891 L 228.823390 118.652341 L 231.765148 118.172358 L 234.540132 117.102027 L 237.046935 115.520159 L 239.285555 113.528810 L 241.255992 111.230038 L 242.936506 108.712229 L 244.307546 106.006828 L 245.361041 103.174758 L 246.014516 100.260006 L 246.185496 97.306557 L 245.798123 94.359304 L 244.847408 91.501822 L 243.361694 88.886341 L 241.368378 86.671769 L 238.894860 85.017010 L 236.038740 84.118400 L 233.053817 84.047007 L 230.138075 84.738615 L 227.488237 86.132693 L 225.301027 88.168711 L 224.973074 88.596720" fill="none" stroke="black" stroke-width="1.0" /><path d="M 215.373074 112.096720 L 217.420868 114.314369 L 219.683949 116.281085 L 222.223614 117.823704 L 225.000665 118.811238 L 227.902172 119.256606 L 230.859593 119.194605 L 233.804385 118.660036 L 236.668007 117.687695 L 239.381914 116.312383 L 241.877564 114.568896 L 244.086415 112.492035 L 245.944150 110.067298 L 247.376786 107.407397 L 248.391132 104.575132 L 248.995305 101.630800 L 249.197422 98.634699 L 249.005601 95.647126 L 248.427958 92.728378 L 247.472610 89.938754 L 246.147674 87.338551 L 244.461268 84.988066 L 242.421507 82.947597 L 240.036510 81.277442 L 237.314393 80.037897 L 234.263273 79.289261 L 230.970731 79.090358 L 227.833902 79.429115 L 224.891330 80.248831 L 222.167478 81.500082 L 219.686807 83.133443 L 217.473782 85.099489 L 215.552864 87.348796 L 213.948518 89.831938 L 212.685204 92.499491 L 211.787387 95.302030 L 211.279528 98.190130 L 211.186092 101.114366 L 211.531540 104.025313 L 212.340335 106.873547 L 213.636941 109.609642 L 215.373074 112.096720" fill="none" stroke="black" stroke-width="1.0" /><path d="M 221.973074 118.496720 L 225.274225 119.599058 L 228.449165 120.058635 L 231.473149 119.932180 L 234.321430 119.276424 L 236.969262 118.148094 L 239.391899 116.603921 L 241.564595 114.700633 L 243.462604 112.494961 L 245.061180 110.043632 L 246.335577 107.403376 L 247.261049 104.630923 L 247.812849 101.783002 L 247.966231 98.916342 L 247.696450 96.087672 L 246.978760 93.353721 L 245.788413 90.771220 L 244.100665 88.396896 L 241.890769 86.287479 L 239.133979 84.499698 L 235.855303 83.112883 L 232.595044 82.379919 L 229.490840 82.289372 L 226.566491 82.779422 L 223.845794 83.788247 L 221.352548 85.254025 L 219.110551 87.114936 L 217.143602 89.309157 L 215.475500 91.774868 L 214.130043 94.450247 L 213.131029 97.273473 L 212.502257 100.182723 L 212.267526 103.116178 L 212.450633 106.012015 L 213.075378 108.808414 L 214.165559 111.443552 L 215.744975 113.855608 L 217.837423 115.982762 L 220.466703 117.763191 L 221.973074 118.496720" fill="none" stroke="black" stroke-width="1.0" /><path d="M 241.573074 84.096720 L 239.312867 82.188649 L 236.685684 80.829437 L 233.810678 80.019083 L 230.807003 79.757587 L 227.793815 80.044949 L 224.890269 80.881169 L 222.214504 82.224464 L 219.801859 83.970643 L 217.665381 86.058875 L 215.820100 88.429043 L 214.281044 91.021031 L 213.063243 93.774725 L 212.167608 96.640939 L 211.600180 99.604064 L 211.380668 102.614837 L 211.522771 105.620177 L 212.040190 108.566999 L 212.946621 111.402221 L 214.255765 114.072760 L 215.990973 116.520509 L 218.148286 118.635281 L 220.640548 120.352199 L 223.377435 121.619155 L 226.268624 122.384037 L 229.223792 122.594738 L 232.152616 122.199146 L 234.964238 121.146066 L 237.541487 119.601381 L 239.894048 117.778245 L 242.036923 115.691357 L 243.970078 113.390308 L 245.657670 110.900983 L 247.063857 108.249268 L 248.152799 105.461050 L 248.888653 102.562214 L 249.233467 99.576124 L 249.129097 96.553046 L 248.572429 93.581291 L 247.577558 90.741395 L 246.158578 88.113894 L 244.329582 85.779322 L 242.104664 83.818216 L 239.543162 82.290305 L 236.786981 81.078032 L 233.989329 79.931765 L 231.315757 78.594899 L 229.973074 77.696720" fill="none" stroke="black" stroke-width="1.0" /><path d="M 184.873074 82.096720 L 187.474010 83.604553 L 190.116069 85.031935 L 192.797385 86.378243 L 195.516097 87.642856 L 198.270339 88.825154 L 201.058248 89.924514 L 203.877961 90.940316 L 206.727614 91.871938 L 209.605342 92.718760 L 212.173074 93.396720" fill="none" stroke="black" stroke-width="1.0" /><path d="M 187.073074 81.396720 L 189.523659 83.111853 L 192.036052 84.744083 L 194.606213 86.290984 L 197.230102 87.750135 L 199.903681 89.119110 L 202.622909 90.395486 L 205.383746 91.576840 L 208.182154 92.660747 L 211.014093 93.644784 L 208.673074 92.996720" fill="none" stroke="black" stroke-width="1.0" /><path d="M 186.673074 83.196720 L 189.395783 84.494321 L 192.130505 85.754185 L 194.877239 86.974612 L 197.635986 88.153902 L 200.406745 89.290356 L 203.189517 90.382274 L 205.984302 91.427957 L 206.173074 91.496720" fill="none" stroke="black" stroke-width="1.0" /><path d="M 183.473074 106.996720 L 186.426829 106.458477 L 189.388248 105.996014 L 192.357333 105.608465 L 195.334082 105.294964 L 198.318495 105.054643 L 201.310573 104.886638 L 204.310316 104.790081 L 207.317723 104.764107 L 209.423528 104.637129 L 207.573074 103.996720" fill="none" stroke="black" stroke-width="1.0" /><path d="M 182.073074 107.696720 L 185.057852 107.394889 L 188.042629 107.093057 L 191.027407 106.791226 L 194.012185 106.489394 L 196.996962 106.187563 L 199.981740 105.885731 L 202.966518 105.583900 L 205.951295 105.282068 L 208.773074 104.996720" fill="none" stroke="black" stroke-width="1.0" /><path d="M 213.773074 63.696720 L 211.932149 61.353735 L 209.875475 59.216202 L 207.624782 57.286570 L 205.201797 55.567286 L 202.628249 54.060800 L 199.925866 52.769559 L 197.116376 51.696012 L 194.221508 50.842607 L 191.262990 50.211792 L 188.262551 49.806015 L 185.241918 49.627725 L 182.222821 49.679370 L 179.228866 49.959792 L 176.276329 50.444840 L 173.368788 51.121285 L 170.510819 51.979066 L 167.706995 53.008119 L 164.961889 54.198383 L 162.280076 55.539795 L 159.666128 57.022294 L 157.124621 58.635816 L 154.660127 60.370300 L 152.277221 62.215683 L 149.980475 64.161904 L 147.774465 66.198899 L 145.648634 68.338150 L 143.626224 70.594390 L 141.743444 72.964970 L 140.036143 75.447327 L 138.540171 78.038902 L 137.291380 80.737133 L 136.325617 83.539461 L 135.683597 86.448450 L 135.396670 89.430169 L 135.408663 92.418909 L 135.678161 95.402245 L 136.163748 98.367753 L 136.824011 101.303009 L 137.608148 104.213767 L 138.516202 107.097163 L 139.551553 109.940017 L 140.716762 112.729525 L 142.014389 115.452884 L 143.446995 118.097290 L 145.017141 120.649940 L 146.727388 123.098031 L 148.580295 125.428759 L 150.578424 127.629320 L 152.724336 129.686912 L 155.020591 131.588731 L 157.471806 133.315757 L 160.075911 134.830682 L 162.808689 136.120971 L 165.644523 137.177018 L 168.557796 137.989216 L 171.522889 138.547960 L 174.514185 138.843641 L 177.506067 138.866655 L 180.472917 138.607394 L 183.389118 138.056251 L 186.229051 137.203620 L 188.967099 136.039895 L 190.873074 134.996720" fill="none" stroke="black" stroke-width="1.0" /><path d="M 211.173074 57.696720 L 208.593390 56.194951 L 205.905443 54.897957 L 203.125471 53.797077 L 200.269717 52.883650 L 197.354420 52.149013 L 194.395821 51.584505 L 191.410162 51.181464 L 188.413682 50.931228 L 185.411309 50.842904 L 182.389670 50.917116 L 179.362652 51.152287 L 176.345526 51.549728 L 173.353565 52.110746 L 170.402041 52.836652 L 167.506226 53.728754 L 164.681391 54.788362 L 161.942809 56.016783 L 159.305752 57.415328 L 156.785491 58.985305 L 154.397298 60.728023 L 152.156447 62.644792 L 150.078207 64.736920 L 148.177852 67.005717 L 146.470654 69.452491 L 144.995182 72.058535 L 143.759744 74.779833 L 142.751598 77.596799 L 141.962656 80.489795 L 141.384834 83.439183 L 141.010044 86.425326 L 140.830201 89.428586 L 140.837218 92.429325 L 141.049854 95.424180 L 141.464033 98.394753 L 142.065280 101.327734 L 142.846848 104.215817 L 143.801988 107.051696 L 144.923952 109.828064 L 146.205992 112.537615 L 147.641361 115.173042 L 149.223309 117.727039 L 150.945090 120.192299 L 152.799955 122.561516 L 154.781157 124.827384 L 156.881946 126.982596 L 159.095576 129.019845 L 161.415298 130.931826 L 163.834365 132.711231 L 166.346027 134.350755 L 168.943539 135.843090 L 171.620150 137.180931 L 174.369114 138.356971 L 177.183682 139.363903 L 180.057106 140.194421 L 182.982639 140.841219 L 185.173074 141.196720" fill="none" stroke="black" stroke-width="1.0" /><path d="M 137.273074 86.896720 L 136.845940 89.873033 L 136.758560 92.862661 L 136.966954 95.849400 L 137.427140 98.817046 L 138.095138 101.749397 L 138.926965 104.630247 L 139.886587 107.460892 L 140.968762 110.258743 L 142.174719 113.010561 L 143.506548 115.704850 L 144.966339 118.330113 L 146.556184 120.874854 L 148.278171 123.327574 L 150.134392 125.676778 L 152.126937 127.910968 L 154.257896 130.018647 L 156.529626 131.988299 L 158.943951 133.798491 L 161.486886 135.429839 L 164.141680 136.869779 L 166.891579 138.105746 L 169.719831 139.125175 L 172.609683 139.915503 L 175.544382 140.464165 L 178.507176 140.758596 L 181.481312 140.786231 L 184.450037 140.534507 L 185.373074 140.396720" fill="none" stroke="black" stroke-width="1.0" /><path d="M 230.873074 161.596720 L 231.278508 164.561905 L 231.584290 167.534777 L 231.795440 170.514115 L 231.916978 173.498698 L 231.953924 176.487305 L 231.911299 179.478714 L 231.794123 182.471705 L 231.607416 185.465056 L 231.356199 188.457546 L 231.045492 191.447954 L 230.680315 194.435059 L 230.265688 197.417639 L 229.806633 200.394474 L 229.308168 203.364342 L 228.775315 206.326022 L 228.213094 209.278293 L 227.624044 212.220749 L 227.010374 215.156879 L 226.374100 218.087349 L 225.715803 221.012300 L 225.036060 223.931871 L 224.335451 226.846200 L 223.614555 229.755429 L 222.873949 232.659695 L 222.114214 235.559139 L 221.335928 238.453900 L 220.539670 241.344117 L 219.726019 244.229930 L 218.895553 247.111478 L 218.048851 249.988900 L 217.186493 252.862337 L 216.309058 255.731927 L 215.417123 258.597811 L 214.511268 261.460126 L 213.592072 264.319014 L 212.660113 267.174612 L 211.715971 270.027062 L 210.760225 272.876501 L 209.793452 275.723070 L 208.816233 278.566908 L 207.829145 281.408154 L 206.832768 284.246949 L 205.827681 287.083430 L 204.814462 289.917738 L 203.793691 292.750013 L 202.765946 295.580392 L 201.731806 298.409017 L 200.691850 301.236027 L 199.646656 304.061560 L 198.596804 306.885756 L 197.542873 309.708755 L 196.485441 312.530697 L 195.425087 315.351720 L 194.362391 318.171964 L 193.297930 320.991568 L 192.232284 323.810673 L 191.166031 326.629416 L 190.099751 329.447939 L 189.034023 332.266380 L 187.969425 335.084878 L 186.906535 337.903573 L 185.845934 340.722605 L 184.788199 343.542113 L 183.733910 346.362236 L 182.683646 349.183114 L 181.637985 352.004886 L 180.597506 354.827692 L 179.562788 357.651671 L 178.534410 360.476962 L 177.512951 363.303706 L 176.498989 366.132040 L 175.493104 368.962106 L 174.495875 371.794042 L 173.507879 374.627987 L 172.529697 377.464082 L 171.561906 380.302465 L 170.605087 383.143276 L 169.659817 385.986655 L 168.726675 388.832741 L 167.806241 391.681672 L 166.899093 394.533590 L 166.005810 397.388633 L 165.126971 400.246940 L 164.263155 403.108651 L 163.414941 405.973906 L 162.582907 408.842843 L 161.767632 411.715603 L 160.969696 414.592325 L 160.189677 417.473148 L 159.428153 420.358211 L 158.685705 423.247655 L 157.962910 426.141618 L 157.260347 429.040240 L 156.578596 431.943660 L 155.918235 434.852018 L 155.279844 437.765453 L 154.664000 440.684105 L 154.071283 443.608113 L 153.502272 446.537617 L 152.957545 449.472755 L 152.437681 452.413668 L 151.943260 455.360495 L 151.474860 458.313375 L 151.033060 461.272447 L 150.618439 464.237852 L 150.373074 466.096720" fill="none" stroke="black" stroke-width="1.0" /><path d="M 233.873074 162.196720 L 234.314240 165.160003 L 234.660477 168.122000 L 234.914694 171.082443 L 235.079803 174.041065 L 235.158714 176.997599 L 235.154339 179.951777 L 235.069587 182.903332 L 234.907370 185.851996 L 234.670599 188.797503 L 234.362184 191.739584 L 233.985036 194.677974 L 233.542066 197.612403 L 233.036184 200.542606 L 232.470302 203.468314 L 231.847329 206.389261 L 231.170178 209.305179 L 230.441758 212.215801 L 229.664981 215.120859 L 228.842757 218.020086 L 227.977996 220.913216 L 227.073611 223.799979 L 226.132511 226.680110 L 225.157607 229.553341 L 224.151810 232.419404 L 223.118031 235.278033 L 222.059181 238.128959 L 220.978170 240.971917 L 219.877909 243.806637 L 218.761309 246.632854 L 217.631280 249.450299 L 216.490734 252.258705 L 215.342581 255.057806 L 214.189732 257.847333 L 213.035097 260.627020 L 211.879117 263.397330 L 210.722416 266.167673 L 209.566065 268.939598 L 208.410406 271.713148 L 207.255786 274.488363 L 206.102549 277.265287 L 204.951038 280.043962 L 203.801600 282.824429 L 202.654578 285.606730 L 201.510318 288.390909 L 200.369163 291.177005 L 199.231458 293.965063 L 198.097549 296.755123 L 196.967780 299.547229 L 195.842495 302.341421 L 194.722039 305.137742 L 193.606757 307.936235 L 192.496993 310.736940 L 191.393092 313.539901 L 190.295399 316.345159 L 189.204258 319.152757 L 188.120014 321.962736 L 187.043011 324.775138 L 185.973595 327.590006 L 184.912110 330.407382 L 183.858900 333.227308 L 182.814310 336.049825 L 181.778685 338.874976 L 180.752369 341.702803 L 179.735708 344.533348 L 178.729045 347.366653 L 177.732725 350.202761 L 176.747094 353.041712 L 175.772495 355.883550 L 174.809273 358.728316 L 173.857773 361.576052 L 172.918340 364.426801 L 171.991318 367.280605 L 171.077052 370.137505 L 170.175886 372.997544 L 169.288166 375.860764 L 168.414235 378.727206 L 167.554439 381.596913 L 166.709121 384.469928 L 165.878628 387.346291 L 165.063303 390.226046 L 164.263490 393.109233 L 163.479536 395.995896 L 162.711783 398.886076 L 161.960578 401.779816 L 161.226264 404.677157 L 160.509186 407.578142 L 159.809689 410.482812 L 159.128118 413.391210 L 158.464817 416.303377 L 157.820130 419.219357 L 157.194403 422.139190 L 156.587980 425.062919 L 156.001205 427.990586 L 155.434424 430.922233 L 154.887981 433.857903 L 154.362221 436.797636 L 153.857488 439.741476 L 153.374126 442.689464 L 152.912482 445.641643 L 152.472898 448.598054 L 152.055721 451.558740 L 151.661293 454.523742 L 151.289961 457.493103 L 150.942069 460.466865 L 150.617961 463.445070 L 150.317982 466.427759 L 150.273074 466.896720" fill="none" stroke="black" stroke-width="1.0" /><path d="M 236.473074 170.996720 L 235.991886 173.962205 L 235.510730 176.927659 L 235.029636 179.893050 L 234.548635 182.858348 L 234.067759 185.823522 L 233.587039 188.788540 L 233.106505 191.753370 L 232.626189 194.717983 L 232.146123 197.682347 L 231.666337 200.646431 L 231.186862 203.610203 L 230.707730 206.573632 L 230.228971 209.536688 L 229.750618 212.499339 L 229.272700 215.461554 L 228.795249 218.423302 L 228.318297 221.384552 L 227.841874 224.345272 L 227.366012 227.305432 L 226.890741 230.265000 L 226.416093 233.223945 L 225.942099 236.182237 L 225.468791 239.139843 L 224.996198 242.096732 L 224.524353 245.052875 L 224.053287 248.008239 L 223.579900 250.963307 L 223.091893 253.923907 L 222.596290 256.888565 L 222.086713 259.854339 L 221.556788 262.818286 L 221.000139 265.777465 L 220.410390 268.728931 L 219.781166 271.669744 L 219.106092 274.596959 L 218.378791 277.507635 L 217.592888 280.398829 L 216.742008 283.267599 L 215.819774 286.111001 L 214.819812 288.926093 L 213.735746 291.709933 L 212.561199 294.459578 L 211.290134 297.174421 L 209.933412 299.842382 L 208.500807 302.466395 L 207.001063 305.051736 L 205.442920 307.603685 L 203.835122 310.127520 L 202.186411 312.628519 L 200.505529 315.111962 L 198.801220 317.583126 L 197.082224 320.047289 L 195.357285 322.509731 L 193.635145 324.975730 L 191.924547 327.450564 L 190.234232 329.939511 L 188.572944 332.447851 L 186.952199 334.977240 L 185.380001 337.524482 L 183.851953 340.093124 L 182.367107 342.682607 L 180.924516 345.292370 L 179.523233 347.921853 L 178.162309 350.570497 L 176.840798 353.237740 L 175.557753 355.923023 L 174.312224 358.625786 L 173.103266 361.345468 L 171.929930 364.081510 L 170.791270 366.833351 L 169.686338 369.600431 L 168.614185 372.382191 L 167.573866 375.178069 L 166.564432 377.987505 L 165.584936 380.809941 L 164.634430 383.644815 L 163.711968 386.491567 L 162.816601 389.349638 L 161.947382 392.218466 L 161.103364 395.097493 L 160.283599 397.986157 L 159.487140 400.883899 L 158.713039 403.790159 L 157.960349 406.704376 L 157.228122 409.625991 L 156.515412 412.554442 L 155.821269 415.489171 L 155.144748 418.429616 L 154.484900 421.375219 L 153.840779 424.325418 L 153.211436 427.279653 L 152.595924 430.237365 L 151.993296 433.197993 L 151.402604 436.160978 L 150.822901 439.125758 L 150.253240 442.091774 L 149.692672 445.058466 L 149.140251 448.025274 L 148.595029 450.991637 L 148.056058 453.956995 L 147.522392 456.920788 L 146.993082 459.882457 L 146.467181 462.841441 L 145.943742 465.797179 L 145.873074 466.196720" fill="none" stroke="black" stroke-width="1.0" /><path d="M 226.773074 227.996720 L 226.161768 230.932990 L 225.516947 233.860244 L 224.839573 236.778731 L 224.130607 239.688699 L 223.391010 242.590396 L 222.621744 245.484070 L 221.823771 248.369969 L 220.998052 251.248343 L 220.145549 254.119438 L 219.267222 256.983503 L 218.364034 259.840787 L 217.436947 262.691537 L 216.486920 265.536002 L 215.514917 268.374430 L 214.521899 271.207069 L 213.508826 274.034167 L 212.476661 276.855973 L 211.426365 279.672735 L 210.358900 282.484700 L 209.275227 285.292118 L 208.176307 288.095236 L 207.063103 290.894303 L 205.936575 293.689567 L 204.797685 296.481275 L 203.647395 299.269677 L 202.486666 302.055021 L 201.316460 304.837554 L 200.137737 307.617524 L 198.951461 310.395181 L 197.758591 313.170772 L 196.560090 315.944546 L 195.356919 318.716750 L 194.150040 321.487633 L 192.940414 324.257443 L 191.729002 327.026429 L 190.516767 329.794838 L 189.304669 332.562918 L 188.093671 335.330919 L 186.884733 338.099088 L 185.678817 340.867673 L 184.476885 343.636922 L 183.279898 346.407085 L 182.088817 349.178408 L 180.904605 351.951140 L 179.728223 354.725530 L 178.560631 357.501826 L 177.402792 360.280275 L 176.255668 363.061126 L 175.120219 365.844627 L 173.997407 368.631027 L 172.888194 371.420574 L 171.793541 374.213515 L 170.714410 377.010099 L 169.651762 379.810575 L 168.606559 382.615190 L 167.579762 385.424192 L 166.572332 388.237831 L 165.585232 391.056353 L 164.619422 393.880008 L 163.675865 396.709043 L 162.755521 399.543707 L 161.859353 402.384248 L 160.988321 405.230914 L 160.143388 408.083953 L 159.325514 410.943614 L 158.535661 413.810145 L 157.774791 416.683793 L 157.043866 419.564808 L 156.343846 422.453437 L 155.675693 425.349928 L 155.040369 428.254530 L 154.438835 431.167492 L 153.872053 434.089060 L 153.340984 437.019484 L 152.846590 439.959011 L 152.389832 442.907891 L 151.971672 445.866370 L 151.593071 448.834697 L 151.254991 451.813121 L 151.173074 452.596720" fill="none" stroke="black" stroke-width="1.0" /><path d="M 150.673074 469.596720 L 151.390870 466.683813 L 152.152837 463.786542 L 152.958107 460.904752 L 153.805818 458.038289 L 154.695103 455.186998 L 155.625097 452.350724 L 156.594936 449.529312 L 157.603753 446.722606 L 158.650685 443.930452 L 159.734865 441.152695 L 160.855430 438.389180 L 162.011513 435.639752 L 163.202249 432.904257 L 164.426774 430.182538 L 165.684223 427.474442 L 166.973729 424.779813 L 168.294429 422.098496 L 169.645457 419.430337 L 171.025947 416.775180 L 172.435036 414.132871 L 173.871857 411.503254 L 175.335545 408.886175 L 176.825237 406.281478 L 178.340065 403.689009 L 179.879166 401.108613 L 181.441673 398.540135 L 183.026723 395.983420 L 184.633450 393.438312 L 186.260989 390.904658 L 187.908474 388.382302 L 189.575040 385.871088 L 191.259824 383.370863 L 192.961958 380.881471 L 194.680579 378.402758 L 196.414821 375.934567 L 198.163819 373.476746 L 199.926708 371.029137 L 201.702622 368.591587 L 203.490697 366.163940 L 205.290068 363.746043 L 207.099870 361.337738 L 208.919236 358.938873 L 210.747303 356.549291 L 212.583205 354.168838 L 214.426077 351.797359 L 216.277475 349.434424 L 218.140025 347.075885 L 220.013862 344.722025 L 221.899420 342.373849 L 223.797131 340.032361 L 225.707428 337.698567 L 227.630744 335.373471 L 229.567512 333.058077 L 231.518164 330.753390 L 233.483133 328.460416 L 235.462853 326.180158 L 237.457755 323.913622 L 239.468273 321.661812 L 241.494839 319.425733 L 243.537887 317.206390 L 245.597849 315.004786 L 247.675157 312.821928 L 249.770245 310.658819 L 251.883546 308.516465 L 254.015492 306.395870 L 256.166515 304.298039 L 258.337050 302.223976 L 260.527528 300.174687 L 262.738383 298.151175 L 264.970047 296.154446 L 267.222953 294.185505 L 269.497534 292.245355 L 271.794222 290.335003 L 274.113451 288.455451 L 276.455652 286.607706 L 278.821260 284.792772 L 281.210707 283.011653 L 283.624425 281.265355 L 286.062848 279.554881 L 288.526407 277.881237 L 291.015537 276.245428 L 293.530670 274.648458 L 296.072238 273.091331 L 298.640674 271.575053 L 301.236411 270.100628 L 303.859883 268.669062 L 306.511521 267.281357 L 309.191784 265.938637 L 311.904531 264.646153 L 314.651094 263.411534 L 317.430087 262.246779 L 320.240127 261.163889 L 323.079827 260.174864 L 325.947805 259.291705 L 328.842674 258.526412 L 331.763051 257.890984 L 334.707551 257.397423 L 337.674789 257.057729 L 340.663490 256.884025 L 343.671248 256.895618 L 346.681237 257.102876 L 349.673137 257.509492 L 352.626628 258.119162 L 355.521390 258.935580 L 358.337103 259.962441 L 361.053449 261.203439 L 363.650106 262.662268 L 366.106756 264.342623 L 368.403079 266.248198 L 370.517088 268.380635 L 372.395502 270.718130 L 374.017279 273.235142 L 375.377916 275.903415 L 376.472906 278.694697 L 377.297747 281.580733 L 377.847934 284.533268 L 378.118963 287.524050 L 378.106330 290.524825 L 377.805529 293.507337 L 377.212058 296.443334 L 376.321411 299.304561 L 375.133826 302.055069 L 373.668016 304.661129 L 371.946506 307.105779 L 369.991809 309.372237 L 367.826438 311.443721 L 365.472905 313.303449 L 362.953721 314.934640 L 360.291400 316.320510 L 357.508454 317.444280 L 354.627395 318.289165 L 351.670735 318.838385 L 350.173074 318.996720" fill="none" stroke="black" stroke-width="1.0" /><path d="M 151.973074 468.296720 L 152.618291 465.371202 L 153.356792 462.474499 L 154.183848 459.605723 L 155.094732 456.763987 L 156.084714 453.948407 L 157.149067 451.158094 L 158.283062 448.392162 L 159.481971 445.649725 L 160.741065 442.929897 L 162.055616 440.231789 L 163.420896 437.554517 L 164.832177 434.897194 L 166.284730 432.258932 L 167.773826 429.638845 L 169.294738 427.036048 L 170.842737 424.449652 L 172.413095 421.878773 L 174.001083 419.322522 L 175.601974 416.780014 L 177.211038 414.250361 L 178.828359 411.723506 L 180.453534 409.199056 L 182.086480 406.677881 L 183.727357 404.160268 L 185.376328 401.646507 L 187.033555 399.136887 L 188.699200 396.631695 L 190.373425 394.131220 L 192.056392 391.635751 L 193.748263 389.145576 L 195.449200 386.660983 L 197.159365 384.182262 L 198.878920 381.709700 L 200.608027 379.243587 L 202.346848 376.784210 L 204.095545 374.331859 L 205.854280 371.886821 L 207.623215 369.449386 L 209.402512 367.019841 L 211.192334 364.598475 L 212.992841 362.185578 L 214.804197 359.781436 L 216.626562 357.386339 L 218.460100 355.000576 L 220.304972 352.624435 L 222.161340 350.258203 L 224.029366 347.902171 L 225.909212 345.556626 L 227.801040 343.221857 L 229.705013 340.898152 L 231.621292 338.585800 L 233.550038 336.285089 L 235.491416 333.996308 L 237.445585 331.719746 L 239.412708 329.455690 L 241.392948 327.204430 L 243.386466 324.966254 L 245.393425 322.741451 L 247.413985 320.530308 L 249.448310 318.333115 L 251.496561 316.150160 L 253.558900 313.981731 L 255.635490 311.828117 L 257.726492 309.689607 L 259.832068 307.566488 L 261.952381 305.459051 L 264.087592 303.367582 L 266.237863 301.292371 L 268.403357 299.233706 L 270.584235 297.191875 L 272.780659 295.167168 L 274.992792 293.159872 L 277.220795 291.170276 L 279.464831 289.198669 L 281.725061 287.245339 L 284.001647 285.310574 L 286.294752 283.394664 L 288.604537 281.497896 L 290.931165 279.620560 L 293.274797 277.762943 L 295.635595 275.925334 L 298.013723 274.108022 L 300.409340 272.311295 L 302.822610 270.535442 L 305.255175 268.777869 L 307.712523 267.038373 L 310.194666 265.338165 L 312.706198 263.688401 L 315.251710 262.100236 L 317.835797 260.584826 L 320.463053 259.153326 L 323.138070 257.816892 L 325.865442 256.586679 L 328.649763 255.473842 L 331.497220 254.507490 L 334.406434 253.707941 L 337.361630 253.076275 L 340.347023 252.626305 L 343.346825 252.371842 L 346.345253 252.326701 L 349.326518 252.504693 L 352.274835 252.919631 L 355.174419 253.585329 L 358.009484 254.515599 L 360.754858 255.712868 L 363.354996 257.176040 L 365.796268 258.885641 L 368.067723 260.820148 L 370.158412 262.958039 L 372.057384 265.277791 L 373.753690 267.757882 L 375.236379 270.376790 L 376.494501 273.112992 L 377.517107 275.944966 L 378.293247 278.851189 L 378.811970 281.810140 L 379.062327 284.800295 L 379.033367 287.800132 L 378.714438 290.787281 L 378.115319 293.721676 L 377.255655 296.582230 L 376.149728 299.355038 L 374.811819 302.026195 L 373.256209 304.581795 L 371.497178 307.007933 L 369.549009 309.290705 L 367.425981 311.416205 L 365.142375 313.370527 L 362.712474 315.139767 L 360.150557 316.710020 L 357.470905 318.067379 L 354.687801 319.197941 L 351.815524 320.087800 L 350.073074 320.496720" fill="none" stroke="black" stroke-width="1.0" /><path d="M 151.973074 469.996720 L 153.027965 467.189145 L 154.106895 464.392045 L 155.209635 461.605433 L 156.335957 458.829325 L 157.485635 456.063736 L 158.658442 453.308681 L 159.854148 450.564174 L 161.072528 447.830230 L 162.313353 445.106865 L 163.576396 442.394093 L 164.861429 439.691929 L 166.168226 437.000388 L 167.496558 434.319485 L 168.846198 431.649234 L 170.216918 428.989652 L 171.608492 426.340751 L 173.020691 423.702548 L 174.453288 421.075057 L 175.906056 418.458293 L 177.378767 415.852272 L 178.871193 413.257007 L 180.383108 410.672514 L 181.914283 408.098807 L 183.464491 405.535902 L 185.033504 402.983814 L 186.621096 400.442556 L 188.227039 397.912145 L 189.851104 395.392595 L 191.493066 392.883921 L 193.152695 390.386138 L 194.829765 387.899261 L 196.524048 385.423304 L 198.235317 382.958282 L 199.963344 380.504211 L 201.707902 378.061105 L 203.468763 375.628979 L 205.245699 373.207849 L 207.038484 370.797728 L 208.846890 368.398632 L 210.670689 366.010575 L 212.509653 363.633573 L 214.363556 361.267641 L 216.232169 358.912793 L 218.115266 356.569044 L 220.012619 354.236409 L 221.924000 351.914903 L 223.849181 349.604540 L 225.787936 347.305337 L 227.740037 345.017307 L 229.705256 342.740466 L 231.683366 340.474828 L 233.674139 338.220408 L 235.677348 335.977221 L 237.692765 333.745283 L 239.720164 331.524607 L 241.759315 329.315209 L 243.809993 327.117103 L 245.871969 324.930306 L 247.945015 322.754830 L 250.028905 320.590692 L 252.123411 318.437906 L 254.228306 316.296487 L 256.343361 314.166450 L 258.468350 312.047810 L 260.603045 309.940582 L 262.749768 307.842622 L 264.910966 305.752404 L 267.084076 303.673925 L 269.269799 301.608537 L 271.468834 299.557594 L 273.681880 297.522447 L 275.909638 295.504449 L 278.152807 293.504952 L 280.412086 291.525310 L 282.688176 289.566875 L 284.981775 287.630999 L 287.293583 285.719035 L 289.624301 283.832336 L 291.974627 281.972254 L 294.345261 280.140141 L 296.736902 278.337351 L 299.150251 276.565235 L 301.586007 274.825147 L 304.044870 273.118439 L 306.527538 271.446463 L 309.034713 269.810572 L 311.567092 268.212119 L 314.125377 266.652456 L 316.710266 265.132936 L 319.321596 263.660682 L 321.970635 262.245490 L 324.658156 260.901174 L 327.384791 259.641618 L 330.151170 258.480708 L 332.957925 257.432329 L 335.805686 256.510365 L 338.695085 255.728702 L 341.626753 255.101225 L 344.601389 254.642061 L 347.613936 254.378983 L 350.642511 254.329436 L 353.663116 254.500998 L 356.651755 254.901248 L 359.584431 255.537763 L 362.437146 256.418120 L 365.185905 257.549898 L 367.806711 258.940675 L 370.275566 260.598029 L 371.873074 261.896720" fill="none" stroke="black" stroke-width="1.0" /><path d="M 368.573074 310.796720 L 366.081508 312.481866 L 363.481858 313.991192 L 360.787279 315.321409 L 358.010925 316.469228 L 355.165951 317.431362 L 352.265510 318.204520 L 349.322759 318.785415 L 346.350850 319.170759 L 343.362939 319.357261 L 340.372181 319.341635 L 337.391729 319.120590 L 334.400615 318.655477 L 331.606965 317.670757 L 329.119320 316.006314 L 327.145148 313.791183 L 325.707322 311.174652 L 324.832010 308.297083 L 324.550541 305.299456 L 324.894244 302.322750 L 325.853154 299.496781 L 327.332343 296.904289 L 329.258010 294.608383 L 331.556869 292.671878 L 334.156306 291.158588 L 337.010857 290.165868 L 339.993628 289.721863 L 342.973770 289.880453 L 345.820433 290.695516 L 348.393258 292.231720 L 350.474691 294.418317 L 351.885499 297.059497 L 352.452835 299.958845 L 352.002045 302.892088 L 350.517851 305.491613 L 348.253286 307.454614 L 345.481349 308.492494 L 342.500517 308.332142 L 339.846980 307.053342 L 337.615599 305.030152 L 335.767360 302.641709 L 334.439383 299.927147 L 334.267297 297.024289 L 335.544600 294.348700 L 337.874976 292.444665 L 340.751134 291.646617 L 343.739420 291.857949 L 344.654779 293.445379 L 344.073074 294.296720" fill="none" stroke="black" stroke-width="1.0" /><path d="M 346.873074 291.196720 L 343.869407 291.373283 L 341.057743 292.446961 L 338.685039 294.270758 L 336.998249 296.697676 L 336.249786 299.579166 L 336.648434 302.556420 L 338.041445 305.238195 L 340.203679 307.295908 L 342.909996 308.400977 L 345.864594 308.244348 L 348.526543 306.965042 L 350.634128 304.841125 L 351.957155 302.134183 L 352.303789 299.173794 L 351.727494 296.260795 L 350.362342 293.589329 L 348.341804 291.354467 L 345.873087 289.696742 L 343.096389 288.692882 L 340.142178 288.317865 L 337.141979 288.545385 L 334.227321 289.349135 L 331.529728 290.702812 L 329.181319 292.577933 L 327.261673 294.851431 L 325.762921 297.414592 L 324.685065 300.196750 L 324.028103 303.127244 L 323.792035 306.135407 L 323.976863 309.150578 L 324.596352 312.095035 L 325.704915 314.879725 L 327.515475 317.245963 L 329.988551 318.863232 L 332.824774 319.944559 L 335.711394 320.696744 L 338.632165 321.170874 L 341.574842 321.379873 L 344.527181 321.336664 L 347.476940 321.054171 L 350.411873 320.545319 L 353.319737 319.823031 L 356.188288 318.900233 L 359.005282 317.789847 L 361.758475 316.504798 L 364.435625 315.058010 L 367.024485 313.462408 L 369.512813 311.730914 L 371.876842 309.808827 L 372.173074 307.396720" fill="none" stroke="black" stroke-width="1.0" /><path d="M 345.973074 289.296720 L 343.060794 288.689173 L 340.082872 288.840100 L 337.180029 289.641254 L 334.493408 290.984736 L 332.120516 292.787330 L 330.051363 294.955918 L 328.264383 297.382666 L 326.725566 299.972863 L 325.474078 302.735990 L 324.723673 305.625944 L 324.681405 308.579735 L 325.416201 311.450596 L 326.890932 314.004113 L 328.954254 316.171099 L 331.454823 317.882368 L 334.241292 319.068732 L 337.149706 319.721897 L 340.105483 319.961177 L 343.088354 319.852619 L 346.076948 319.460334 L 349.049895 318.848432 L 351.976852 318.086443 L 354.867487 317.193354 L 357.712835 316.158924 L 360.493808 314.976545 L 363.191319 313.639612 L 365.786278 312.141515 L 368.259597 310.475648 L 370.592189 308.635403 L 372.764964 306.614172 L 374.767023 304.404298 L 376.571072 301.990187 L 378.127008 299.395662 L 379.412838 296.655911 L 380.406568 293.806125 L 381.086206 290.881491 L 381.429757 287.917200 L 381.415230 284.948440 L 381.020631 282.010400 L 380.223966 279.138269 L 380.173074 278.996720" fill="none" stroke="black" stroke-width="1.0" /><path d="M 152.373074 432.396720 L 152.706008 429.415436 L 152.989910 426.432662 L 153.226485 423.448508 L 153.417439 420.463087 L 153.564475 417.476510 L 153.669299 414.488888 L 153.733616 411.500334 L 153.759131 408.510957 L 153.747549 405.520871 L 153.700574 402.530187 L 153.619912 399.539016 L 153.507267 396.547469 L 153.364345 393.555659 L 153.192850 390.563696 L 152.994487 387.571693 L 152.770962 384.579760 L 152.523978 381.588010 L 152.255242 378.596554 L 151.966458 375.605504 L 151.659330 372.614970 L 151.335565 369.625065 L 150.996866 366.635900 L 150.644939 363.647586 L 150.281489 360.660236 L 149.908220 357.673960 L 149.526838 354.688871 L 149.139048 351.705079 L 148.746553 348.722697 L 148.351060 345.741836 L 147.954273 342.762607 L 147.557898 339.785121 L 147.163638 336.809492 L 146.773199 333.835829 L 146.392644 330.863091 L 146.024412 327.885180 L 145.665699 324.901662 L 145.318243 321.913078 L 144.983782 318.919972 L 144.664053 315.922884 L 144.360793 312.922356 L 144.075740 309.918932 L 143.810631 306.913152 L 143.567203 303.905558 L 143.347195 300.896693 L 143.152342 297.887098 L 142.984384 294.877315 L 142.845056 291.867887 L 142.736097 288.859355 L 142.659244 285.852261 L 142.616234 282.847147 L 142.608806 279.844556 L 142.638695 276.845028 L 142.707640 273.849106 L 142.817378 270.857332 L 142.969646 267.870248 L 143.166182 264.888396 L 143.408724 261.912317 L 143.699008 258.942554 L 144.038772 255.979649 L 144.429753 253.024143 L 144.873689 250.076579 L 145.372318 247.137498 L 145.927376 244.207442 L 146.540602 241.286954 L 147.213732 238.376575 L 147.948503 235.476847 L 148.746655 232.588313 L 148.773074 232.496720" fill="none" stroke="black" stroke-width="1.0" /><path d="M 149.773074 236.496720 L 148.669817 239.275765 L 147.646751 242.076498 L 146.701783 244.897905 L 145.832817 247.738976 L 145.037760 250.598696 L 144.314516 253.476055 L 143.660993 256.370040 L 143.075095 259.279639 L 142.554728 262.203840 L 142.097798 265.141629 L 141.702210 268.091996 L 141.365871 271.053927 L 141.086686 274.026411 L 140.862560 277.008435 L 140.691400 279.998987 L 140.571111 282.997055 L 140.499598 286.001626 L 140.474768 289.011689 L 140.494527 292.026231 L 140.556779 295.044240 L 140.659430 298.064703 L 140.800387 301.086608 L 140.977555 304.108944 L 141.188840 307.130697 L 141.432146 310.150856 L 141.705381 313.168408 L 142.006450 316.182341 L 142.333258 319.191644 L 142.683711 322.195302 L 143.055715 325.192305 L 143.447176 328.181640 L 143.855998 331.162295 L 144.280013 334.135020 L 144.716197 337.107807 L 145.162072 340.081652 L 145.615365 343.056502 L 146.073807 346.032305 L 146.535127 349.009009 L 146.997053 351.986561 L 147.457316 354.964909 L 147.913644 357.944001 L 148.363766 360.923784 L 148.805412 363.904205 L 149.236310 366.885212 L 149.654191 369.866754 L 150.056783 372.848776 L 150.441816 375.831228 L 150.807018 378.814056 L 151.150119 381.797209 L 151.468848 384.780634 L 151.760935 387.764277 L 152.024108 390.748088 L 152.256097 393.732014 L 152.454631 396.716001 L 152.617439 399.699999 L 152.742251 402.683954 L 152.826795 405.667814 L 152.868801 408.651526 L 152.865998 411.635039 L 152.816115 414.618300 L 152.716882 417.601255 L 152.566027 420.583854 L 152.361280 423.566044 L 152.100370 426.547771 L 151.781027 429.528985 L 151.773074 429.596720" fill="none" stroke="black" stroke-width="1.0" /><path d="M 150.573074 241.996720 L 149.204631 244.661124 L 147.942077 247.359387 L 146.782460 250.089872 L 145.722826 252.850946 L 144.760222 255.640974 L 143.891694 258.458322 L 143.114290 261.301356 L 142.425055 264.168440 L 141.821038 267.057940 L 141.299285 269.968223 L 140.856842 272.897653 L 140.490757 275.844595 L 140.198076 278.807417 L 139.975846 281.784482 L 139.821114 284.774156 L 139.730926 287.774806 L 139.702330 290.784796 L 139.732372 293.802492 L 139.818098 296.826260 L 139.956557 299.854465 L 140.144794 302.885472 L 140.379857 305.917648 L 140.658792 308.949357 L 140.978645 311.978966 L 141.336465 315.004839 L 141.729297 318.025342 L 142.154188 321.038842 L 142.608186 324.043702 L 143.088336 327.038289 L 143.591686 330.020969 L 144.115283 332.990106 L 144.654693 335.945663 L 145.198394 338.906229 L 145.750179 341.871626 L 146.306800 344.841425 L 146.865008 347.815201 L 147.421556 350.792526 L 147.973195 353.772973 L 148.516675 356.756116 L 149.048749 359.741527 L 149.566168 362.728779 L 150.065684 365.717445 L 150.544048 368.707100 L 150.998012 371.697314 L 151.424326 374.687663 L 151.819744 377.677718 L 152.181015 380.667052 L 152.504893 383.655240 L 152.788127 386.641853 L 153.027470 389.626466 L 153.219674 392.608650 L 153.361489 395.587979 L 153.449667 398.564027 L 153.480960 401.536365 L 153.452120 404.504568 L 153.359897 407.468207 L 153.201043 410.426858 L 152.972311 413.380091 L 152.670450 416.327481 L 152.292214 419.268600 L 151.834352 422.203022 L 151.293618 425.130319 L 150.666762 428.050066 L 150.173074 430.096720" fill="none" stroke="black" stroke-width="1.0" /><path d="M 105.873074 166.996720 L 105.891861 169.999842 L 105.913643 173.005203 L 105.939835 176.012416 L 105.971855 179.021090 L 106.011119 182.030837 L 106.059043 185.041267 L 106.117045 188.051991 L 106.186541 191.062621 L 106.268947 194.072766 L 106.365681 197.082037 L 106.478158 200.090046 L 106.607796 203.096403 L 106.756011 206.100720 L 106.924219 209.102606 L 107.113838 212.101672 L 107.326284 215.097531 L 107.562973 218.089791 L 107.825322 221.078065 L 108.114749 224.061963 L 108.432668 227.041095 L 108.780498 230.015073 L 109.159654 232.983507 L 109.571554 235.946009 L 110.017614 238.902189 L 110.499250 241.851657 L 111.017880 244.794025 L 111.574919 247.728904 L 112.171785 250.655904 L 112.809894 253.574636 L 113.490662 256.484710 L 114.215507 259.385739 L 114.985845 262.277332 L 115.803092 265.159101 L 116.669888 268.026813 L 117.588895 270.872548 L 118.550375 273.711123 L 119.548072 276.542541 L 120.575730 279.366799 L 121.627094 282.183899 L 122.695908 284.993840 L 123.775917 287.796622 L 124.860864 290.592246 L 125.946103 293.380763 L 127.050830 296.166682 L 128.154260 298.952676 L 129.256535 301.738818 L 130.357798 304.525178 L 131.458192 307.311828 L 132.557858 310.098838 L 133.656939 312.886280 L 134.755577 315.674224 L 135.853915 318.462743 L 136.952095 321.251907 L 138.050260 324.041787 L 139.148551 326.832455 L 140.247111 329.623982 L 141.346082 332.416438 L 142.445607 335.209896 L 143.545828 338.004426 L 144.646888 340.800099 L 145.748928 343.596987 L 146.852091 346.395161 L 147.956519 349.194692 L 148.273074 349.996720" fill="none" stroke="black" stroke-width="1.0" /><path d="M 104.673074 166.096720 L 104.379259 169.078844 L 104.211592 172.065794 L 104.157353 175.056359 L 104.203824 178.049328 L 104.338286 181.043490 L 104.548020 184.037632 L 104.820307 187.030544 L 105.142429 190.021015 L 105.501667 193.007833 L 105.885575 195.989563 L 106.292383 198.960704 L 106.712061 201.930025 L 107.144601 204.897474 L 107.590000 207.862999 L 108.048252 210.826548 L 108.519351 213.788070 L 109.003294 216.747512 L 109.500073 219.704823 L 110.009685 222.659952 L 110.532124 225.612845 L 111.067385 228.563453 L 111.615462 231.511722 L 112.176352 234.457601 L 112.750047 237.401039 L 113.336544 240.341983 L 113.935837 243.280382 L 114.547920 246.216184 L 115.172790 249.149337 L 115.810439 252.079790 L 116.460864 255.007490 L 117.124060 257.932386 L 117.800020 260.854426 L 118.488740 263.773558 L 119.190214 266.689731 L 119.904438 269.602892 L 120.631407 272.512991 L 121.371114 275.419975 L 122.123555 278.323792 L 122.888725 281.224391 L 123.666618 284.121719 L 124.457230 287.015726 L 125.260555 289.906359 L 126.076588 292.793567 L 126.905324 295.677297 L 127.746757 298.557499 L 128.600883 301.434119 L 129.467696 304.307108 L 130.347192 307.176411 L 131.239364 310.041979 L 132.144208 312.903759 L 133.061719 315.761699 L 133.991891 318.615747 L 134.934719 321.465852 L 135.890198 324.311963 L 136.858323 327.154026 L 137.839089 329.991991 L 138.832491 332.825806 L 139.838522 335.655419 L 140.573074 337.696720" fill="none" stroke="black" stroke-width="1.0" /><path d="M 65.173077 151.596720 L 65.441859 154.577033 L 65.808771 157.540076 L 66.268529 160.486351 L 66.815852 163.416361 L 67.445456 166.330609 L 68.152059 169.229600 L 68.930379 172.113834 L 69.775132 174.983817 L 70.681035 177.840051 L 71.642808 180.683038 L 72.655166 183.513283 L 73.712826 186.331288 L 74.810507 189.137556 L 75.942926 191.932591 L 77.104800 194.716895 L 78.290846 197.490972 L 79.495782 200.255325 L 80.714324 203.010457 L 81.941191 205.756871 L 83.167136 208.496472 L 84.393255 211.234894 L 85.621142 213.972593 L 86.850799 216.709561 L 88.082225 219.445790 L 89.315421 222.181270 L 90.550385 224.915993 L 91.787119 227.649950 L 93.025622 230.383134 L 94.265895 233.115535 L 95.507936 235.847144 L 96.751747 238.577954 L 97.997327 241.307955 L 99.244676 244.037139 L 100.493794 246.765497 L 101.744682 249.493021 L 102.997339 252.219703 L 104.251765 254.945532 L 105.507960 257.670502 L 106.765924 260.394603 L 108.025658 263.117827 L 109.287161 265.840165 L 110.550433 268.561609 L 111.815475 271.282150 L 113.082285 274.001779 L 114.350865 276.720487 L 115.621214 279.438268 L 116.893332 282.155110 L 118.167220 284.871007 L 119.442876 287.585949 L 120.720302 290.299928 L 121.999497 293.012935 L 123.280462 295.724962 L 124.563195 298.436000 L 125.847698 301.146041 L 127.133970 303.855075 L 128.422011 306.563095 L 129.711822 309.270091 L 131.003401 311.976055 L 132.296750 314.680979 L 133.591868 317.384854 L 134.173074 318.596720" fill="none" stroke="black" stroke-width="1.0" /><path d="M 67.873077 151.596720 L 68.230036 154.570423 L 68.628836 157.534270 L 69.068688 160.488378 L 69.548805 163.432863 L 70.068401 166.367842 L 70.626687 169.293430 L 71.222878 172.209745 L 71.856186 175.116903 L 72.525823 178.015021 L 73.231002 180.904215 L 73.970937 183.784601 L 74.744840 186.656296 L 75.551923 189.519417 L 76.391401 192.374080 L 77.262484 195.220401 L 78.164388 198.058497 L 79.096323 200.888485 L 80.057504 203.710480 L 81.047142 206.524600 L 82.064451 209.330961 L 83.108643 212.129679 L 84.178932 214.920871 L 85.274530 217.704653 L 86.394650 220.481143 L 87.538504 223.250455 L 88.705307 226.012708 L 89.894269 228.768016 L 91.104605 231.516498 L 92.335527 234.258269 L 93.586248 236.993445 L 94.855981 239.722144 L 96.143938 242.444482 L 97.449332 245.160575 L 98.771377 247.870539 L 100.109285 250.574492 L 101.462269 253.272550 L 102.829541 255.964829 L 104.210315 258.651445 L 105.603803 261.332516 L 107.009218 264.008157 L 108.425774 266.678485 L 109.852682 269.343617 L 111.289155 272.003669 L 112.734408 274.658758 L 114.187651 277.309000 L 115.648099 279.954511 L 117.114963 282.595409 L 118.587457 285.231809 L 120.064794 287.863828 L 121.546186 290.491583 L 123.030847 293.115189 L 124.517988 295.734764 L 126.006823 298.350425 L 127.496565 300.962286 L 128.986427 303.570466 L 129.573074 304.596720" fill="none" stroke="black" stroke-width="1.0" /><path d="M 41.373077 220.896720 L 44.230798 221.741105 L 47.011572 222.747907 L 49.718661 223.907425 L 52.355329 225.209960 L 54.924839 226.645809 L 57.430453 228.205273 L 59.875434 229.878651 L 62.263046 231.656242 L 64.596551 233.528346 L 66.879213 235.485263 L 69.114293 237.517290 L 71.305056 239.614729 L 73.454764 241.767877 L 75.566679 243.967036 L 77.644066 246.202503 L 79.690187 248.464579 L 81.708304 250.743562 L 83.701681 253.029753 L 85.673357 255.313284 L 87.631138 257.589557 L 89.587937 259.865830 L 91.543845 262.142102 L 93.498954 264.418375 L 95.453356 266.694648 L 97.407141 268.970921 L 99.360401 271.247194 L 101.313227 273.523466 L 103.265711 275.799739 L 105.217945 278.076012 L 107.170018 280.352285 L 109.122024 282.628558 L 111.074053 284.904830 L 113.026197 287.181103 L 114.978548 289.457376 L 116.931195 291.733649 L 118.884232 294.009922 L 120.837749 296.286194 L 122.791837 298.562467 L 124.746589 300.838740 L 126.702096 303.115013 L 128.658448 305.391286 L 130.615738 307.667558 L 131.673074 308.896720" fill="none" stroke="black" stroke-width="1.0" /><path d="M 47.073077 222.496720 L 49.502107 224.261982 L 51.929348 226.029432 L 54.353007 227.801258 L 56.771296 229.579649 L 59.182424 231.366793 L 61.584599 233.164877 L 63.976033 234.976091 L 66.354934 236.802621 L 68.719513 238.646658 L 71.067979 240.510387 L 73.398542 242.395999 L 75.709411 244.305680 L 77.998796 246.241619 L 80.264906 248.206005 L 82.502866 250.202006 L 84.711132 252.229856 L 86.891552 254.288172 L 89.043772 256.376482 L 91.167438 258.494314 L 93.262196 260.641198 L 95.327693 262.816660 L 97.363576 265.020231 L 99.369489 267.251438 L 101.345081 269.509809 L 103.289996 271.794873 L 105.203882 274.106159 L 107.086385 276.443195 L 108.937150 278.805508 L 110.755825 281.192629 L 112.542055 283.604085 L 114.295488 286.039404 L 116.015768 288.498115 L 117.702544 290.979746 L 119.355460 293.483827 L 120.974163 296.009884 L 122.558299 298.557447 L 124.107516 301.126044 L 125.621459 303.715204 L 127.099774 306.324454 L 127.473074 306.996720" fill="none" stroke="black" stroke-width="1.0" /><path d="M 55.273077 285.696720 L 57.854458 287.225573 L 60.420480 288.782916 L 62.970398 290.368778 L 65.503469 291.983185 L 68.018949 293.626164 L 70.516094 295.297745 L 72.994162 296.997953 L 75.452407 298.726817 L 77.890086 300.484364 L 80.306457 302.270622 L 82.700774 304.085618 L 85.072294 305.929380 L 87.420274 307.801936 L 89.743969 309.703312 L 92.042637 311.633537 L 94.315533 313.592638 L 96.561913 315.580642 L 98.781035 317.597577 L 100.972153 319.643471 L 103.134526 321.718351 L 105.267408 323.822245 L 107.370056 325.955180 L 109.441726 328.117184 L 111.481675 330.308284 L 113.489159 332.528508 L 115.463435 334.777884 L 117.403758 337.056439 L 119.309320 339.364133 L 121.178184 341.702087 L 123.009952 344.072294 L 124.803717 346.474009 L 126.558571 348.906491 L 128.273607 351.368996 L 129.947916 353.860783 L 131.580591 356.381108 L 133.170724 358.929229 L 134.717408 361.504402 L 136.219734 364.105886 L 137.676795 366.732937 L 139.087684 369.384814 L 140.451492 372.060773 L 141.767312 374.760071 L 143.034236 377.481966 L 144.251357 380.225715 L 145.417766 382.990576 L 146.532556 385.775806 L 147.594819 388.580661 L 148.603648 391.404401 L 149.558134 394.246281 L 150.457370 397.105559 L 151.300449 399.981492 L 152.086463 402.873338 L 152.814503 405.780355 L 153.483662 408.701798 L 154.093033 411.636927 L 154.573074 414.196720" fill="none" stroke="black" stroke-width="1.0" /><path d="M 58.073077 286.796720 L 60.783031 288.059892 L 63.443756 289.408264 L 66.057587 290.837164 L 68.626860 292.341919 L 71.153912 293.917856 L 73.641079 295.560304 L 76.090697 297.264590 L 78.505102 299.026041 L 80.886632 300.839984 L 83.237621 302.701747 L 85.560407 304.606658 L 87.857325 306.550044 L 90.130712 308.527232 L 92.382905 310.533550 L 94.616238 312.564326 L 96.833049 314.614886 L 99.035675 316.680559 L 101.226450 318.756671 L 103.407711 320.838551 L 105.581796 322.921526 L 107.736077 325.009160 L 109.883164 327.105327 L 112.015464 329.217883 L 114.121398 331.355836 L 116.189386 333.528190 L 118.207849 335.743952 L 120.165207 338.012130 L 122.049881 340.341728 L 123.850290 342.741754 L 125.553600 345.222099 L 127.122785 347.792211 L 128.584946 350.417902 L 129.953130 353.090785 L 131.240388 355.802471 L 132.459767 358.544571 L 133.624317 361.308697 L 134.747088 364.086460 L 135.841127 366.869471 L 136.928592 369.659473 L 138.024172 372.461437 L 139.117110 375.263046 L 140.207908 378.064051 L 141.297065 380.864200 L 142.385082 383.663245 L 143.472460 386.460934 L 144.559700 389.257018 L 145.647302 392.051245 L 146.735767 394.843366 L 147.825596 397.633130 L 148.917288 400.420287 L 150.011346 403.204586 L 151.073074 405.896720" fill="none" stroke="black" stroke-width="1.0" /><path d="M 49.173077 78.896720 L 50.139457 81.737109 L 50.950294 84.608095 L 51.610776 87.506048 L 52.126093 90.427335 L 52.501431 93.368324 L 52.741981 96.325383 L 52.852929 99.294880 L 52.839465 102.273184 L 52.706778 105.256663 L 52.460055 108.241684 L 52.104485 111.224616 L 51.645257 114.201826 L 51.087558 117.169683 L 50.436578 120.124555 L 49.697505 123.062810 L 48.875527 125.980816 L 47.975833 128.874942 L 47.003612 131.741554 L 45.964051 134.577022 L 44.862339 137.377713 L 43.705700 140.143008 L 42.498544 142.884706 L 41.245406 145.605286 L 39.950937 148.306887 L 38.619787 150.991651 L 37.256609 153.661718 L 35.866051 156.319229 L 34.452765 158.966325 L 33.021402 161.605147 L 31.576612 164.237835 L 30.123046 166.866532 L 28.665355 169.493376 L 27.208190 172.120509 L 25.756201 174.750072 L 24.314040 177.384206 L 22.886356 180.025052 L 21.477801 182.674750 L 20.093025 185.335441 L 18.736680 188.009266 L 17.413415 190.698366 L 16.125824 193.407796 L 14.877965 196.139029 L 13.671485 198.890912 L 12.507574 201.662611 L 11.387419 204.453289 L 10.312211 207.262111 L 9.283139 210.088241 L 8.301392 212.930844 L 7.368159 215.789084 L 6.484629 218.662125 L 5.651991 221.549132 L 4.871435 224.449269 L 4.144150 227.361700 L 3.471325 230.285590 L 2.854150 233.220104 L 2.293812 236.164404 L 1.791503 239.117657 L 1.348410 242.079025 L 0.965723 245.047674 L 0.644631 248.022768 L 0.386324 251.003471 L 0.191990 253.988948 L 0.062819 256.978362 L 0.000000 259.970879 L 0.004722 262.965662 L 0.078175 265.961876 L 0.221737 268.959551 L 0.438776 271.958034 L 0.730147 274.952506 L 1.095852 277.940519 L 1.535891 280.919622 L 2.050262 283.887363 L 2.638967 286.841294 L 3.302006 289.778963 L 4.039377 292.697920 L 4.851083 295.595714 L 5.737121 298.469897 L 6.697493 301.318016 L 7.732198 304.137621 L 8.841237 306.926263 L 10.024609 309.681490 L 11.282314 312.400853 L 12.614353 315.081901 L 14.020725 317.722183 L 15.501430 320.319250 L 17.056469 322.870651 L 18.685841 325.373934 L 20.389546 327.826651 L 22.167585 330.226351 L 24.019958 332.570583 L 25.946663 334.856897 L 27.947702 337.082842 L 30.023074 339.245969 L 32.170005 341.336244 L 34.375632 343.357077 L 36.633076 345.317442 L 38.936031 347.224944 L 41.278190 349.087186 L 43.653248 350.911774 L 46.054898 352.706311 L 48.476835 354.478402 L 50.912752 356.235652 L 53.356344 357.985664 L 55.801303 359.736043 L 58.241325 361.494394 L 60.670103 363.268320 L 63.081331 365.065427 L 65.468703 366.893318 L 67.828572 368.747465 L 70.157190 370.639839 L 72.454164 372.569826 L 74.719104 374.536793 L 76.951621 376.540106 L 79.151324 378.579131 L 81.317826 380.653236 L 83.450736 382.761785 L 85.549664 384.904145 L 87.614222 387.079683 L 89.644020 389.287765 L 91.638669 391.527758 L 93.597778 393.799027 L 95.520959 396.100939 L 97.407822 398.432860 L 99.257978 400.794157 L 101.071037 403.184196 L 102.846610 405.602342 L 104.584307 408.047964 L 106.283740 410.520426 L 107.944517 413.019095 L 109.566251 415.543338 L 111.148551 418.092521 L 112.691028 420.666009 L 114.193293 423.263170 L 115.654955 425.883370 L 117.075627 428.525975 L 118.454918 431.190351 L 119.792439 433.875865 L 121.087800 436.581883 L 122.340612 439.307771 L 123.550485 442.052896 L 124.717031 444.816624 L 125.839859 447.598321 L 126.918580 450.397354 L 127.952805 453.213089 L 128.942144 456.044891 L 129.886208 458.892129 L 130.784607 461.754167 L 131.636952 464.630372 L 132.442853 467.520111 L 133.201922 470.422750 L 133.913767 473.337655 L 134.578001 476.264192 L 135.173074 479.096720" fill="none" stroke="black" stroke-width="1.0" /><path d="M 53.073077 86.196720 L 53.337710 89.179901 L 53.530387 92.168908 L 53.651393 95.162098 L 53.701010 98.157824 L 53.679523 101.154440 L 53.587215 104.150301 L 53.424370 107.143761 L 53.191272 110.133174 L 52.888204 113.116895 L 52.515451 116.093278 L 52.073295 119.060677 L 51.562022 122.017447 L 50.981913 124.961942 L 50.333254 127.892517 L 49.616328 130.807525 L 48.831418 133.705321 L 47.978808 136.584260 L 47.058783 139.442695 L 46.071626 142.278982 L 45.017620 145.091474 L 43.897049 147.878525 L 42.710576 150.638469 L 41.467002 153.368873 L 40.165460 156.071260 L 38.812158 158.748555 L 37.413300 161.403685 L 35.975094 164.039578 L 34.503745 166.659159 L 33.005459 169.265354 L 31.486444 171.861091 L 29.952904 174.449295 L 28.411047 177.032894 L 26.867078 179.614813 L 25.327203 182.197980 L 23.797630 184.785321 L 22.284563 187.379761 L 20.794209 189.984229 L 19.332775 192.601649 L 17.906466 195.234950 L 16.521489 197.887056 L 15.184049 200.560896 L 13.900354 203.259394 L 12.676609 205.985478 L 11.519020 208.742075 L 10.432654 211.533734 L 9.421978 214.360742 L 8.492691 217.212748 L 7.644217 220.087822 L 6.875981 222.984034 L 6.187408 225.899453 L 5.577921 228.832151 L 5.046946 231.780196 L 4.593906 234.741659 L 4.218226 237.714609 L 3.919330 240.697118 L 3.696643 243.687255 L 3.549588 246.683089 L 3.477592 249.682692 L 3.480077 252.684133 L 3.556469 255.685481 L 3.706191 258.684808 L 3.928668 261.680183 L 4.223325 264.669676 L 4.589586 267.651357 L 5.026874 270.623296 L 5.534616 273.583564 L 6.112234 276.530229 L 6.759154 279.461363 L 7.474800 282.375035 L 8.258596 285.269316 L 9.109855 288.143809 L 10.025797 291.003723 L 11.004817 293.840010 L 12.045799 296.652060 L 13.147627 299.439265 L 14.309186 302.201017 L 15.529360 304.936707 L 16.807035 307.645727 L 18.141094 310.327469 L 19.530422 312.981324 L 20.973904 315.606683 L 22.470424 318.202939 L 24.018867 320.769483 L 25.618118 323.305706 L 27.267061 325.811000 L 28.964580 328.284756 L 30.709561 330.726367 L 32.500887 333.135224 L 34.337444 335.510718 L 36.218116 337.852241 L 38.141787 340.159184 L 40.107342 342.430940 L 42.113666 344.666899 L 44.159644 346.866454 L 46.244159 349.028996 L 48.366096 351.153916 L 50.523580 353.240152 L 52.704814 355.283732 L 54.915525 357.295953 L 57.151373 359.281849 L 59.408019 361.246453 L 61.681124 363.194800 L 63.966349 365.131922 L 66.259354 367.062854 L 68.555799 368.992629 L 70.851346 370.926281 L 73.141654 372.868844 L 75.422385 374.825351 L 77.689199 376.800836 L 79.937757 378.800333 L 82.163720 380.828875 L 84.362747 382.891496 L 86.513349 384.986356 L 88.626003 387.117839 L 90.701112 389.285469 L 92.738271 391.488491 L 94.737073 393.726150 L 96.697111 395.997693 L 98.617979 398.302364 L 100.499272 400.639409 L 102.340583 403.008074 L 104.141505 405.407605 L 105.901633 407.837246 L 107.620560 410.296244 L 109.297879 412.783843 L 110.933186 415.299290 L 112.526072 417.841830 L 114.076133 420.410708 L 115.582962 423.005170 L 117.046152 425.624462 L 118.465298 428.267829 L 119.839993 430.934516 L 121.169831 433.623770 L 122.454405 436.334835 L 123.693310 439.066957 L 124.886139 441.819382 L 126.032485 444.591355 L 127.131944 447.382122 L 128.184107 450.190929 L 129.188570 453.017020 L 130.144925 455.859641 L 131.052768 458.718039 L 131.911690 461.591457 L 132.721287 464.479143 L 133.481151 467.380342 L 134.190877 470.294298 L 134.850058 473.220258 L 135.458289 476.157466 L 136.015162 479.105170 L 135.083257 478.173742 L 133.549393 475.609087 L 132.973074 474.696720" fill="none" stroke="black" stroke-width="1.0" /><path d="M 54.973077 86.296720 L 54.772613 89.294677 L 54.539597 92.291549 L 54.272435 95.286254 L 53.969534 98.277708 L 53.629299 101.264827 L 53.250138 104.246527 L 52.830455 107.221724 L 52.368657 110.189334 L 51.863152 113.148274 L 51.312343 116.097461 L 50.714639 119.035809 L 50.068444 121.962235 L 49.372166 124.875657 L 48.624210 127.774989 L 47.822983 130.659148 L 46.966891 133.527050 L 46.054340 136.377612 L 45.083736 139.209749 L 44.053485 142.022378 L 42.961994 144.814415 L 41.807669 147.584777 L 40.590663 150.332637 L 39.321322 153.052681 L 38.008056 155.749028 L 36.659059 158.426289 L 35.282523 161.089073 L 33.886643 163.741987 L 32.479613 166.389642 L 31.069627 169.036645 L 29.664877 171.687607 L 28.273558 174.347136 L 26.905585 177.019163 L 25.569711 179.706826 L 24.264688 182.411645 L 22.991429 185.133161 L 21.750851 187.870917 L 20.543869 190.624456 L 19.371399 193.393318 L 18.234357 196.177047 L 17.133657 198.975184 L 16.070216 201.787273 L 15.044950 204.612854 L 14.058773 207.451471 L 13.112601 210.302666 L 12.207350 213.165980 L 11.343936 216.040956 L 10.523274 218.927136 L 9.746280 221.824062 L 9.013869 224.731277 L 8.326956 227.648323 L 7.686458 230.574742 L 7.093290 233.510076 L 6.548367 236.453867 L 6.052606 239.405658 L 5.606921 242.364991 L 5.212229 245.331408 L 4.869445 248.304451 L 4.579483 251.283662 L 4.343261 254.268584 L 4.161694 257.258760 L 4.035697 260.253730 L 3.966219 263.253334 L 3.956096 266.258158 L 4.006858 269.264949 L 4.118721 272.271981 L 4.291905 275.277528 L 4.526628 278.279865 L 4.823108 281.277266 L 5.181564 284.268005 L 5.602214 287.250358 L 6.085276 290.222599 L 6.630970 293.183001 L 7.239514 296.129841 L 7.911125 299.061391 L 8.646022 301.975926 L 9.444424 304.871722 L 10.306550 307.747052 L 11.232617 310.600191 L 12.222844 313.429414 L 13.277449 316.232994 L 14.396651 319.009207 L 15.580669 321.756326 L 16.829720 324.472626 L 18.144023 327.156383 L 19.523797 329.805869 L 20.969260 332.419361 L 22.480630 334.995131 L 24.058126 337.531455 L 25.701966 340.026607 L 27.412369 342.478861 L 29.189553 344.886493 L 31.033736 347.247776 L 31.073077 347.296720" fill="none" stroke="black" stroke-width="1.0" /><path d="M 7.273077 232.796720 L 6.886725 235.778753 L 6.555752 238.773195 L 6.280657 241.778225 L 6.061935 244.792024 L 5.900085 247.812771 L 5.795605 250.838646 L 5.748990 253.867829 L 5.760739 256.898500 L 5.831350 259.928839 L 5.961318 262.957026 L 6.151143 265.981239 L 6.401320 268.999661 L 6.712348 272.010470 L 7.084724 275.011846 L 7.518945 278.001969 L 8.015509 280.979019 L 8.574912 283.941175 L 9.197653 286.886619 L 9.884228 289.813529 L 10.635136 292.720086 L 11.450872 295.604469 L 12.331936 298.464858 L 13.278823 301.299433 L 14.292032 304.106375 L 15.372060 306.883862 L 16.519403 309.630076 L 17.734561 312.343194 L 19.018029 315.021399 L 20.370305 317.662869 L 21.791887 320.265784 L 23.283271 322.828324 L 24.844956 325.348670 L 26.477439 327.825000 L 28.181216 330.255496 L 29.956786 332.638336 L 31.804646 334.971700 L 33.725292 337.253770 L 35.719223 339.482723 L 37.786108 341.663720 L 39.912985 343.787716 L 42.088167 345.857491 L 44.301501 347.883977 L 46.542837 349.878109 L 48.802021 351.850817 L 51.068901 353.813037 L 53.333326 355.775700 L 55.585143 357.749740 L 57.819152 359.745014 L 60.035391 361.765081 L 62.228408 363.810417 L 64.397994 365.880700 L 66.543939 367.975613 L 68.666032 370.094833 L 70.764064 372.238042 L 72.837826 374.404919 L 74.887106 376.595143 L 76.911696 378.808396 L 78.911385 381.044356 L 80.885963 383.302704 L 82.835221 385.583120 L 84.758948 387.885282 L 86.656935 390.208873 L 88.528972 392.553570 L 90.374848 394.919055 L 92.194355 397.305007 L 93.987281 399.711105 L 95.753418 402.137031 L 97.492555 404.582463 L 99.204483 407.047082 L 100.888991 409.530567 L 102.545869 412.032599 L 104.174908 414.552857 L 105.775898 417.091022 L 107.348629 419.646772 L 108.892890 422.219789 L 110.408473 424.809751 L 111.895167 427.416340 L 113.352762 430.039234 L 114.781048 432.678113 L 116.179816 435.332658 L 117.548855 438.002549 L 118.887956 440.687465 L 120.196908 443.387086 L 121.475503 446.101092 L 122.723529 448.829164 L 123.940778 451.570980 L 125.127038 454.326221 L 126.282101 457.094566 L 127.405756 459.875697 L 128.497793 462.669291 L 129.558003 465.475031 L 130.586175 468.292594 L 131.582100 471.121662 L 132.545568 473.961914 L 133.476369 476.813029 L 134.374293 479.674689 L 134.473074 479.996720" fill="none" stroke="black" stroke-width="1.0" /><path d="M 57.673077 69.496720 L 57.908565 72.483658 L 58.311266 75.433498 L 58.874053 78.344901 L 59.589795 81.216531 L 60.451365 84.047053 L 61.451632 86.835128 L 62.583469 89.579421 L 63.839747 92.278594 L 65.213335 94.931312 L 66.697107 97.536237 L 68.283932 100.092032 L 69.966682 102.597362 L 71.738228 105.050889 L 73.591440 107.451277 L 75.519191 109.797189 L 77.514351 112.087288 L 79.569791 114.320238 L 81.678383 116.494702 L 83.832997 118.609343 L 86.026505 120.662825 L 88.252728 122.660617 L 90.513795 124.619166 L 92.806065 126.543054 L 95.125692 128.436645 L 97.468831 130.304302 L 99.831635 132.150392 L 102.210256 133.979276 L 104.600850 135.795320 L 106.999569 137.602888 L 109.402568 139.406344 L 111.805999 141.210051 L 114.206017 143.018375 L 116.598775 144.835679 L 118.980427 146.666328 L 121.347125 148.514685 L 123.695025 150.385115 L 126.020280 152.281982 L 128.319042 154.209650 L 130.587467 156.172484 L 132.821707 158.174846 L 135.015062 160.224900 L 137.165714 162.319410 L 139.273406 164.456559 L 141.337540 166.635348 L 143.357517 168.854781 L 145.332739 171.113859 L 147.262607 173.411586 L 149.146523 175.746964 L 150.983888 178.118995 L 152.774105 180.526683 L 154.516574 182.969030 L 156.210697 185.445039 L 157.855877 187.953712 L 159.451514 190.494052 L 160.997009 193.065061 L 162.491766 195.665743 L 163.935184 198.295099 L 165.326666 200.952133 L 166.665614 203.635847 L 167.951428 206.345244 L 169.183511 209.079326 L 170.361264 211.837096 L 171.484089 214.617557 L 172.551387 217.419711 L 173.562560 220.242561 L 174.517009 223.085109 L 175.414715 225.946173 L 176.254555 228.819529 L 177.036738 231.703457 L 177.762102 234.597463 L 178.431488 237.501053 L 179.045734 240.413732 L 179.605679 243.335006 L 180.112165 246.264379 L 180.566029 249.201359 L 180.968111 252.145450 L 181.319250 255.096157 L 181.620287 258.052987 L 181.872060 261.015445 L 182.075409 263.983036 L 182.231173 266.955266 L 182.340192 269.931641 L 182.403305 272.911666 L 182.421352 275.894847 L 182.395171 278.880688 L 182.325603 281.868697 L 182.213486 284.858378 L 182.059661 287.849236 L 181.864967 290.840778 L 181.630242 293.832509 L 181.356327 296.823935 L 181.044061 299.814560 L 180.694283 302.803891 L 180.307833 305.791433 L 179.885550 308.776692 L 179.428274 311.759173 L 178.936843 314.738382 L 178.412098 317.713824 L 177.854878 320.685005 L 177.266022 323.651430 L 176.646370 326.612605 L 175.996761 329.568036 L 175.318034 332.517228 L 174.611030 335.459686 L 173.876586 338.394916 L 173.115544 341.322425 L 172.328741 344.241716 L 171.517019 347.152296 L 170.681215 350.053671 L 169.822169 352.945345 L 168.940722 355.826825 L 168.037712 358.697615 L 167.113978 361.557223 L 166.673074 362.896720" fill="none" stroke="black" stroke-width="1.0" /><path d="M 58.673077 71.896720 L 59.282512 74.836327 L 59.986038 77.753960 L 60.782082 80.647212 L 61.669070 83.513679 L 62.645430 86.350953 L 63.709587 89.156628 L 64.859969 91.928299 L 66.095003 94.663558 L 67.413115 97.360001 L 68.812731 100.015220 L 70.292280 102.626809 L 71.850186 105.192363 L 73.484878 107.709475 L 75.194781 110.175739 L 76.978323 112.588748 L 78.833930 114.946097 L 80.760029 117.245379 L 82.755047 119.484189 L 84.817411 121.660119 L 86.945546 123.770765 L 89.137880 125.813718 L 91.392840 127.786575 L 93.708852 129.686927 L 96.078974 131.516719 L 98.496719 133.277792 L 100.956413 134.980831 L 103.447303 136.642455 L 105.958638 138.279279 L 108.479665 139.907922 L 110.999631 141.545000 L 113.507785 143.207131 L 115.993177 144.910957 L 118.418708 146.670486 L 120.801689 148.481989 L 123.141925 150.344315 L 125.439221 152.256313 L 127.693381 154.216832 L 129.904211 156.224722 L 132.071515 158.278831 L 134.195099 160.378008 L 136.274767 162.521103 L 138.310324 164.706964 L 140.301575 166.934441 L 142.248325 169.202382 L 144.150380 171.509637 L 146.007543 173.855055 L 147.819620 176.237485 L 149.586416 178.655775 L 151.307736 181.108776 L 152.983384 183.595336 L 154.613166 186.114303 L 156.196886 188.664528 L 157.734350 191.244859 L 159.225362 193.854146 L 160.669727 196.491236 L 162.067251 199.154980 L 163.417737 201.844227 L 164.720992 204.557825 L 165.976819 207.294624 L 167.185025 210.053472 L 168.345413 212.833219 L 169.457789 215.632714 L 170.521958 218.450805 L 171.537724 221.286343 L 172.504893 224.138176 L 173.423269 227.005152 L 174.292658 229.886122 L 175.112864 232.779934 L 175.883692 235.685437 L 176.604948 238.601480 L 177.276435 241.526913 L 177.898041 244.463243 L 178.471745 247.408771 L 178.998515 250.360546 L 179.478828 253.318132 L 179.913160 256.281091 L 180.301988 259.248983 L 180.645788 262.221373 L 180.945039 265.197821 L 181.200215 268.177891 L 181.411794 271.161143 L 181.580253 274.147142 L 181.706069 277.135447 L 181.789718 280.125623 L 181.831676 283.117230 L 181.832422 286.109831 L 181.792430 289.102989 L 181.712179 292.096265 L 181.592145 295.089222 L 181.432805 298.081422 L 181.234635 301.072426 L 180.998113 304.061798 L 180.723714 307.049099 L 180.411916 310.033891 L 180.063195 313.015737 L 179.678028 315.994199 L 179.256893 318.968839 L 178.800265 321.939219 L 178.308621 324.904901 L 177.782439 327.865448 L 177.222194 330.820421 L 176.628364 333.769384 L 176.001426 336.711897 L 175.341856 339.647524 L 174.650130 342.575826 L 173.926726 345.496365 L 173.172121 348.408704 L 172.386790 351.312405 L 171.571212 354.207031 L 170.725862 357.092142 L 169.873074 359.896720" fill="none" stroke="black" stroke-width="1.0" /><path d="M 60.073077 85.996720 L 61.241925 88.759021 L 62.486723 91.486820 L 63.806180 94.178482 L 65.199006 96.832375 L 66.663911 99.446863 L 68.199604 102.020312 L 69.804797 104.551089 L 71.478198 107.037559 L 73.218518 109.478087 L 75.024467 111.871041 L 76.894753 114.214785 L 78.828088 116.507686 L 80.823182 118.748109 L 82.878743 120.934421 L 84.993482 123.064986 L 87.166109 125.138172 L 89.395333 127.152343 L 91.679865 129.105866 L 94.018415 130.997107 L 96.404078 132.837184 L 98.823871 134.621033 L 101.266330 136.365022 L 103.719892 138.087320 L 106.172992 139.806101 L 108.614069 141.539533 L 111.031558 143.305789 L 113.413896 145.123039 L 115.749520 147.009454 L 118.034551 148.954867 L 120.251932 150.964112 L 122.403945 153.035287 L 124.494113 155.164710 L 126.525957 157.348697 L 128.503000 159.583566 L 130.428767 161.865633 L 132.306779 164.191216 L 134.140560 166.556630 L 135.933632 168.958195 L 137.689518 171.392225 L 139.411742 173.855039 L 141.103826 176.342953 L 142.769292 178.852284 L 144.411665 181.379350 L 146.034466 183.920466 L 147.641219 186.471951 L 149.235447 189.030121 L 150.820672 191.591292 L 152.404536 194.149183 L 153.991139 196.701912 L 155.568227 199.257988 L 157.131858 201.819919 L 158.678090 204.390215 L 160.202982 206.971382 L 161.702590 209.565931 L 163.172973 212.176370 L 164.610189 214.805207 L 166.010296 217.454952 L 167.369351 220.128112 L 168.683412 222.827196 L 169.936154 225.551961 L 171.118088 228.301484 L 172.241460 231.077177 L 173.305857 233.877600 L 174.310868 236.701310 L 175.256082 239.546868 L 176.141086 242.412831 L 176.965470 245.297759 L 177.728820 248.200211 L 178.430726 251.118746 L 179.070775 254.051923 L 179.648557 256.998301 L 180.163658 259.956438 L 180.615668 262.924894 L 181.004175 265.902228 L 181.328768 268.886998 L 181.589033 271.877763 L 181.784560 274.873084 L 181.914937 277.871517 L 181.979752 280.871624 L 181.978594 283.871961 L 181.973074 284.296720" fill="none" stroke="black" stroke-width="1.0" /><path d="M 52.773077 65.596720 L 53.376747 67.531658 L 54.054415 70.453496 L 54.808120 73.357306 L 55.637072 76.241114 L 56.540480 79.102944 L 57.517556 81.940821 L 58.567508 84.752771 L 59.689548 87.536819 L 60.882884 90.290989 L 62.146728 93.013308 L 63.480288 95.701799 L 64.882776 98.354488 L 66.353401 100.969400 L 67.891372 103.544560 L 69.495901 106.077993 L 71.166198 108.567725 L 72.901471 111.011780 L 74.700932 113.408183 L 75.473074 114.396720" fill="none" stroke="black" stroke-width="1.0" /><path d="M 4.473077 488.396720 L 6.393340 486.119960 L 8.513840 484.059439 L 10.814649 482.211232 L 13.275841 480.571413 L 15.877488 479.136058 L 18.599663 477.901241 L 21.422439 476.863038 L 24.325888 476.017524 L 27.290084 475.360773 L 30.295100 474.888860 L 33.321008 474.597860 L 36.347881 474.483849 L 39.357987 474.540057 L 42.349583 474.736445 L 45.323902 475.056199 L 48.282152 475.487215 L 51.225545 476.017392 L 54.155291 476.634628 L 57.072599 477.326821 L 59.978680 478.081869 L 62.874745 478.887670 L 65.762002 479.732122 L 68.641663 480.603124 L 71.514938 481.488574 L 74.383037 482.376369 L 77.256690 483.234031 L 80.148050 484.065571 L 83.055613 484.860844 L 85.977861 485.606517 L 88.913281 486.289258 L 91.860357 486.895734 L 94.817574 487.412611 L 97.783418 487.826557 L 100.756372 488.124238 L 103.734921 488.292322 L 106.717552 488.317476 L 109.702748 488.186366 L 112.686412 487.884441 L 115.646552 487.415634 L 118.582669 486.809190 L 121.498860 486.090591 L 124.399225 485.285320 L 127.287861 484.418858 L 130.168868 483.516687 L 133.046344 482.604290 L 135.924386 481.707149 L 138.807095 480.850745 L 141.698568 480.060561 L 144.602903 479.362078 L 147.524200 478.780780 L 150.466557 478.342147 L 153.434072 478.071663 L 156.426016 477.995969 L 159.428273 478.122219 L 162.442579 478.417248 L 165.465110 478.847014 L 168.492040 479.377473 L 171.519545 479.974580 L 174.543800 480.604293 L 177.560979 481.232568 L 180.567257 481.825362 L 183.558809 482.348630 L 186.531810 482.768329 L 189.482435 483.050416 L 192.406859 483.160847 L 195.301256 483.065579 L 198.161802 482.730567 L 200.984671 482.121769 L 203.766039 481.205141 L 204.973074 480.696720" fill="none" stroke="black" stroke-width="1.0" /><path d="M 12.473077 480.196720 L 15.315610 479.267899 L 18.189138 478.432189 L 21.090335 477.690290 L 24.015873 477.042904 L 26.962423 476.490731 L 29.926658 476.034471 L 32.905251 475.674826 L 35.894872 475.412495 L 38.892195 475.248179 L 41.893892 475.182579 L 44.896634 475.216396 L 47.897095 475.350329 L 50.891945 475.585081 L 53.877858 475.921350 L 56.851506 476.359838 L 59.804884 476.899155 L 62.749419 477.524379 L 65.686679 478.222502 L 68.617556 478.980688 L 71.542942 479.786102 L 74.463727 480.625910 L 77.380804 481.487276 L 80.295063 482.357366 L 83.207395 483.223344 L 86.118692 484.072376 L 89.029846 484.891626 L 91.941747 485.668259 L 94.855287 486.389442 L 97.771357 487.042338 L 100.690849 487.614112 L 103.614654 488.091930 L 106.543663 488.462958 L 109.478767 488.714358 L 112.420858 488.833298 L 115.370827 488.806941 L 118.329566 488.622454 L 121.301028 488.266473 L 124.265607 487.741707 L 127.207004 487.077757 L 130.129098 486.304317 L 133.035772 485.451080 L 135.930908 484.547742 L 138.818387 483.623998 L 141.702090 482.709542 L 144.585900 481.834068 L 147.473698 481.027272 L 150.369365 480.318847 L 153.276784 479.738489 L 156.199836 479.315892 L 159.142402 479.080750 L 162.108365 479.062759 L 165.103939 479.278832 L 168.069687 479.709679 L 171.006242 480.299468 L 173.924745 480.988781 L 176.836335 481.718196 L 179.752155 482.428296 L 182.683346 483.059659 L 185.641049 483.552866 L 188.626546 483.890490 L 191.620173 484.040466 L 194.612345 483.999988 L 197.593808 483.769980 L 200.555312 483.351368 L 203.487604 482.745078 L 206.381431 481.952034 L 209.227542 480.973161 L 211.373074 480.096720" fill="none" stroke="black" stroke-width="1.0" /><path d="M 171.873074 483.596720 L 174.810222 484.106891 L 177.754851 484.464516 L 180.705969 484.679678 L 183.662587 484.762458 L 186.623715 484.722936 L 189.588362 484.571196 L 192.555538 484.317317 L 195.524253 483.971382 L 198.493518 483.543472 L 201.462341 483.043668 L 204.429733 482.482053 L 207.394703 481.868706 L 210.356262 481.213710 L 213.313420 480.527147 L 216.265185 479.819097 L 219.210568 479.099643 L 222.148580 478.378865 L 225.078229 477.666845 L 227.999629 476.973694 L 230.942400 476.313367 L 233.915464 475.697714 L 236.912866 475.135844 L 239.928655 474.636866 L 242.956880 474.209889 L 245.991586 473.864022 L 249.026823 473.608373 L 252.056638 473.452052 L 255.075078 473.404167 L 258.076191 473.473827 L 261.054025 473.670141 L 264.002627 474.002218 L 266.916046 474.479167 L 269.788328 475.110097 L 272.613522 475.904116 L 275.385675 476.870333 L 278.098835 478.017858 L 280.747049 479.355799 L 282.373074 480.296720" fill="none" stroke="black" stroke-width="1.0" /><path d="M 285.273074 480.496720 L 282.755699 478.900938 L 280.152384 477.471190 L 277.471032 476.201462 L 274.719548 475.085740 L 271.905835 474.118010 L 269.037798 473.292259 L 266.123339 472.602473 L 263.170363 472.042638 L 260.186774 471.606740 L 257.180476 471.288765 L 254.159372 471.082700 L 251.131366 470.982531 L 248.104362 470.982244 L 245.086265 471.075825 L 242.084977 471.257260 L 239.102890 471.518376 L 236.128491 471.848220 L 233.160334 472.238511 L 230.197562 472.681017 L 227.239317 473.167506 L 224.284742 473.689747 L 221.332979 474.239508 L 218.383172 474.808558 L 215.434462 475.388664 L 212.485992 475.971595 L 209.536905 476.549120 L 206.586343 477.113006 L 203.633448 477.655023 L 200.677364 478.166938 L 197.717232 478.640520 L 194.733102 479.078921 L 191.710380 479.428036 L 188.680996 479.615341 L 185.674912 479.576631 L 182.722089 479.247704 L 179.852489 478.564356 L 177.373074 477.596720" fill="none" stroke="black" stroke-width="1.0" /><path d="M 171.073074 479.996720 L 174.067178 480.153727 L 177.063864 480.267262 L 180.062390 480.337078 L 183.062013 480.362926 L 186.061992 480.344560 L 189.061582 480.281732 L 192.060042 480.174195 L 195.056629 480.021700 L 198.050601 479.824001 L 201.041215 479.580850 L 204.027728 479.291999 L 207.009398 478.957200 L 209.985483 478.576208 L 212.956504 478.149348 L 215.922251 477.682761 L 218.882713 477.183514 L 221.838872 476.658322 L 224.791704 476.113896 L 227.742190 475.556950 L 230.691308 474.994194 L 233.640038 474.432343 L 236.589357 473.878108 L 239.540245 473.338202 L 242.493681 472.819337 L 245.450643 472.328226 L 248.412111 471.871581 L 251.379063 471.456115 L 254.352479 471.088540 L 257.333337 470.775568 L 259.373074 470.596720" fill="none" stroke="black" stroke-width="1.0" /><path d="M 290.073074 526.296720 L 287.166846 527.053624 L 284.221579 527.637889 L 281.247559 528.049515 L 278.255073 528.288502 L 275.254406 528.354851 L 272.255846 528.248560 L 269.269677 527.969631 L 266.306187 527.518063 L 263.375662 526.893856 L 260.488388 526.097010 L 257.654651 525.127525 L 254.864876 523.990275 L 252.129555 522.753788 L 249.423325 521.468572 L 246.720157 520.184680 L 243.994023 518.952170 L 241.218894 517.821095 L 238.375006 516.855066 L 235.501554 516.126675 L 232.608379 515.599544 L 229.696943 515.255266 L 226.768705 515.075436 L 223.825127 515.041645 L 220.867670 515.135488 L 217.897794 515.338557 L 214.916961 515.632445 L 211.926630 515.998746 L 208.928264 516.419052 L 205.923323 516.874958 L 202.913268 517.348055 L 199.899559 517.819937 L 196.883658 518.272198 L 193.867025 518.686430 L 190.851121 519.044227 L 187.837408 519.327181 L 184.827346 519.516886 L 181.822395 519.594935 L 178.824017 519.542922 L 175.833673 519.342438 L 172.855402 518.970535 L 169.905156 518.435817 L 166.981295 517.769037 L 164.078985 516.996116 L 161.193388 516.142973 L 158.319670 515.235528 L 155.452994 514.299702 L 152.588524 513.361416 L 149.721425 512.446588 L 146.846861 511.581141 L 143.959996 510.790993 L 141.055994 510.102065 L 138.130018 509.540278 L 135.177235 509.131551 L 132.192806 508.901805 L 132.073074 508.896720" fill="none" stroke="black" stroke-width="1.0" /><path d="M 281.373074 526.096720 L 278.381917 526.218921 L 275.384065 526.244558 L 272.383608 526.174141 L 269.384635 526.008182 L 266.391239 525.747193 L 263.407508 525.391684 L 260.437534 524.942167 L 257.485407 524.399153 L 254.555218 523.763153 L 251.651057 523.034680 L 248.769286 522.213927 L 245.889059 521.317341 L 243.009971 520.375479 L 240.129921 519.417757 L 237.246807 518.473592 L 234.358528 517.572400 L 231.462983 516.743597 L 228.558072 516.016599 L 225.641692 515.420822 L 222.711743 514.985683 L 219.766123 514.740598 L 216.802732 514.714984 L 213.823366 514.939793 L 210.878611 515.411022 L 207.973340 516.079654 L 205.096950 516.896398 L 202.238842 517.811962 L 199.388416 518.777056 L 196.535072 519.742388 L 193.668208 520.658667 L 190.777225 521.476602 L 187.851523 522.146901 L 184.882268 522.621166 L 181.922033 522.878747 L 178.975040 522.921206 L 176.039477 522.770933 L 173.113531 522.450319 L 170.195390 521.981752 L 167.283242 521.387623 L 164.375274 520.690322 L 161.469673 519.912238 L 158.564627 519.075762 L 155.658323 518.203282 L 152.748949 517.317189 L 149.834693 516.439873 L 146.913741 515.593723 L 143.984282 514.801129 L 141.044502 514.084481 L 138.092590 513.466169 L 135.126733 512.968582 L 132.145928 512.616891 L 129.163032 512.427717 L 126.183674 512.385421 L 123.208664 512.479484 L 120.238811 512.699384 L 117.274923 513.034602 L 114.317812 513.474618 L 111.368285 514.008910 L 108.427152 514.626960 L 105.495222 515.318246 L 102.573304 516.072249 L 99.662208 516.878449 L 96.762743 517.726324 L 93.875718 518.605356 L 91.001942 519.505023 L 88.142225 520.414806 L 87.573074 520.596720" fill="none" stroke="black" stroke-width="1.0" /><path d="M 183.473074 521.596720 L 180.479689 521.633240 L 177.484492 521.568556 L 174.491293 521.402667 L 171.503900 521.135574 L 168.526125 520.767276 L 165.561777 520.297773 L 162.614666 519.727066 L 159.688601 519.055155 L 156.787393 518.282039 L 153.914852 517.407718 L 151.077721 516.441300 L 148.255174 515.416235 L 145.425279 514.404935 L 142.569694 513.485354 L 139.670079 512.735448 L 136.716675 512.235251 L 133.760157 511.996991 L 130.810465 511.991165 L 127.867598 512.192293 L 124.931557 512.574891 L 122.002342 513.113478 L 119.079953 513.782571 L 116.164389 514.556690 L 113.255651 515.410351 L 110.353738 516.318073 L 107.458652 517.254374 L 104.570391 518.193771 L 101.688955 519.110783 L 98.806729 519.979459 L 95.858003 520.761787 L 92.846089 521.431090 L 89.793016 521.966892 L 86.720815 522.348717 L 83.651516 522.556091 L 80.607150 522.568537 L 77.609747 522.365580 L 74.681339 521.926746 L 71.843954 521.231557 L 69.119625 520.259540 L 66.530382 518.990218 L 64.098254 517.403117 L 62.073077 515.696720" fill="none" stroke="black" stroke-width="1.0" /><path d="M 132.773074 513.296720 L 129.783626 513.447666 L 126.801319 513.735175 L 123.825520 514.140333 L 120.855596 514.644223 L 117.890912 515.227928 L 114.930837 515.872532 L 111.974737 516.559119 L 109.021978 517.268772 L 106.071928 517.982575 L 103.123954 518.681612 L 100.177421 519.346966 L 97.231698 519.959721 L 94.286150 520.500960 L 91.340145 520.951769 L 88.393050 521.293229 L 85.444231 521.506424 L 82.493055 521.572439 L 79.538889 521.472357 L 76.581100 521.187262 L 73.626496 520.698809 L 70.712764 520.014665 L 67.832698 519.182014 L 64.974930 518.251635 L 62.128091 517.274308 L 59.280813 516.300811 L 56.421728 515.381923 L 53.539466 514.568425 L 50.622660 513.911096 L 47.661266 513.459130 L 44.692249 513.236219 L 41.732919 513.244051 L 38.784629 513.461649 L 35.848732 513.868032 L 32.926583 514.442223 L 30.019533 515.163242 L 27.128937 516.010112 L 24.256148 516.961853 L 21.402520 517.997486 L 18.569406 519.096033 L 15.758160 520.236516 L 12.973077 521.396720" fill="none" stroke="black" stroke-width="1.0" /><path d="M 14.273077 518.496720 L 16.894100 517.027842 L 19.597010 515.721971 L 22.371835 514.580015 L 25.208605 513.602880 L 28.097348 512.791472 L 31.028093 512.146698 L 33.990869 511.669463 L 36.975706 511.360676 L 39.972631 511.221241 L 42.971675 511.252066 L 45.962866 511.454057 L 48.936233 511.828121 L 51.881805 512.375163 L 54.789611 513.096091 L 57.649015 513.993529 L 60.451435 515.059831 L 63.219632 516.220945 L 65.973571 517.420049 L 68.733216 518.600321 L 71.518533 519.704936 L 74.349485 520.677074 L 77.246039 521.459910 L 80.183206 522.005855 L 83.118320 522.304579 L 86.053757 522.379709 L 88.989698 522.256879 L 91.926322 521.961724 L 94.863810 521.519877 L 97.802343 520.956973 L 100.742101 520.298647 L 103.683265 519.570533 L 106.626015 518.798265 L 109.570532 518.007478 L 112.516996 517.223806 L 115.465588 516.472883 L 118.416488 515.780344 L 121.369878 515.171824 L 124.323872 514.676376 L 127.295086 514.297907 L 130.280484 514.035255 L 133.275409 513.887998 L 136.275203 513.855713 L 139.275208 513.937976 L 142.270766 514.134363 L 145.257220 514.444451 L 148.229913 514.867817 L 151.184185 515.404038 L 154.115381 516.052689 L 157.018841 516.813347 L 159.889909 517.685590 L 162.723926 518.668993 L 165.516235 519.763134 L 168.262179 520.967588 L 169.173074 521.396720" fill="none" stroke="black" stroke-width="1.0" /><path d="M 10.273077 484.496720 L 12.750763 482.799465 L 15.317314 481.244146 L 17.964406 479.832564 L 20.683717 478.566525 L 23.466923 477.447830 L 26.305701 476.478285 L 29.191727 475.659691 L 32.116679 474.993852 L 35.072233 474.482572 L 38.050066 474.127654 L 41.041854 473.930902 L 44.039275 473.894118 L 47.034006 474.019106 L 50.017722 474.307670 L 52.982101 474.761613 L 55.918819 475.382738 L 58.818635 476.159127 L 61.673601 477.069809 L 64.489808 478.094513 L 67.274518 479.210138 L 70.034990 480.393581 L 72.778485 481.621740 L 75.512264 482.871514 L 78.243588 484.119800 L 80.979717 485.343497 L 83.728293 486.519623 L 86.524141 487.631667 L 89.357049 488.659615 L 92.223028 489.592701 L 95.118090 490.420159 L 98.038248 491.131219 L 100.979513 491.715116 L 103.937898 492.161083 L 106.909415 492.458351 L 109.890076 492.596153 L 112.875894 492.563723 L 115.862879 492.350294 L 118.833869 491.947565 L 121.763472 491.367202 L 124.659076 490.633096 L 127.525937 489.769778 L 130.369310 488.801778 L 133.194452 487.753625 L 136.006621 486.649850 L 138.811071 485.514982 L 141.613060 484.373551 L 144.417844 483.250086 L 147.230679 482.169119 L 150.056822 481.155178 L 152.901529 480.232794 L 155.770056 479.426496 L 158.667660 478.760814 L 161.599598 478.260278 L 164.571125 477.949418 L 165.473074 477.896720" fill="none" stroke="black" stroke-width="1.0" /><path d="M 201.473074 126.996720 L 198.981104 128.669809 L 196.670528 130.582636 L 194.560180 132.713044 L 192.668897 135.038872 L 191.015512 137.537961 L 189.618863 140.188152 L 188.497784 142.967286 L 187.671111 145.853202 L 187.573074 146.296720" fill="none" stroke="black" stroke-width="1.0" /><path d="M 219.773074 113.996720 L 217.813067 116.261049 L 215.948304 118.605915 L 214.179808 121.026202 L 212.508603 123.516792 L 210.935711 126.072569 L 209.462158 128.688416 L 208.088964 131.359215 L 206.817155 134.079849 L 206.373074 135.096720" fill="none" stroke="black" stroke-width="1.0" /><path d="M 219.873074 113.296720 L 217.769490 115.445133 L 215.746244 117.667799 L 213.806375 119.961677 L 211.952928 122.323724 L 210.188942 124.750900 L 208.517460 127.240162 L 206.941523 129.788468 L 205.464174 132.392777 L 204.088454 135.050048 L 203.773074 135.696720" fill="none" stroke="black" stroke-width="1.0" /><path d="M 230.873074 116.296720 L 229.160085 118.767921 L 227.534213 121.292708 L 225.996194 123.868514 L 224.546758 126.492775 L 223.186639 129.162925 L 221.916571 131.876399 L 220.737285 134.630632 L 219.649516 137.423059 L 218.653995 140.251113 L 217.751456 143.112230 L 216.942632 146.003845 L 216.373074 148.296720" fill="none" stroke="black" stroke-width="1.0" /><path d="M 230.773074 115.596720 L 229.288568 118.215069 L 227.876316 120.871823 L 226.537257 123.564635 L 225.272328 126.291158 L 224.082470 129.049045 L 222.968620 131.835950 L 221.931718 134.649525 L 220.972702 137.487424 L 220.092510 140.347301 L 219.292082 143.226808 L 218.673074 145.696720" fill="none" stroke="black" stroke-width="1.0" /><path d="M 237.073074 112.896720 L 239.653514 114.421544 L 242.205888 115.989794 L 244.729563 117.601785 L 247.223905 119.257835 L 249.688280 120.958260 L 252.122056 122.703377 L 254.524599 124.493502 L 256.895274 126.328953 L 259.233450 128.210047 L 261.538492 130.137099 L 263.809767 132.110426 L 266.046641 134.130346 L 265.275090 133.897998 L 264.773074 133.596720" fill="none" stroke="black" stroke-width="1.0" /><path d="M 238.773074 111.696720 L 241.388185 113.165511 L 243.959507 114.708550 L 246.485282 116.324428 L 248.963749 118.011738 L 251.393152 119.769075 L 253.771730 121.595029 L 256.097725 123.488195 L 258.369378 125.447166 L 260.584930 127.470533 L 262.742622 129.556891 L 264.840696 131.704832 L 266.655947 133.700107 L 264.873074 132.296720" fill="none" stroke="black" stroke-width="1.0" /><path d="M 244.773074 103.996720 L 247.627593 104.860217 L 250.350432 105.996316 L 252.951186 107.376229 L 255.439451 108.971171 L 257.824822 110.752354 L 260.116896 112.690991 L 262.325267 114.758296 L 264.459532 116.925482 L 266.529286 119.163761 L 268.544125 121.444348 L 270.513643 123.738456 L 269.497986 122.990251 L 268.673074 122.196720" fill="none" stroke="black" stroke-width="1.0" /><path d="M 245.273074 104.696720 L 247.988284 105.960731 L 250.629457 107.375218 L 253.189586 108.934253 L 255.661665 110.631908 L 258.038686 112.462253 L 260.313643 114.419360 L 262.479530 116.497300 L 264.529340 118.690145 L 266.456066 120.991966 L 268.252702 123.396834 L 268.873074 124.296720" fill="none" stroke="black" stroke-width="1.0" /></svg>