<?xml version="1.0" encoding="utf-8" ?>
<svg baseProfile="full" height="507" version="1.1" viewBox="0,0,490,507" width="490" xmlns="http://www.w3.org/2000/svg" xmlns:ev="http://www.w3.org/2001/xml-events" xmlns:xlink="http://www.w3.org/1999/xlink"><defs><style type="text/css"><![CDATA[
	.background { fill: white; }
	.line { stroke: firebrick; stroke-width: .1mm; }
	.blacksquare { fill: indigo; }
	.whitesquare { fill: white; }
]]></style></defs><rect class="background" height="100%" width="100%" x="0" y="0" /><path d="M 25.964990 146.774675 L 25.209290 146.978675 L 24.453690 147.183675 L 23.742990 147.511675 L 23.033190 147.841675 L 22.407090 148.310675 L 21.784390 148.784675 L 21.306190 149.403675 L 20.834790 150.027675 L 20.533190 150.750675 L 20.235090 151.473675 L 20.051590 152.234675 L 19.869890 152.995675 L 19.777790 153.773675 L 19.686990 154.550675 L 19.684290 155.333675 L 19.682590 156.116675 L 19.752490 156.896675 L 19.822490 157.675675 L 19.931790 158.450675 L 20.041090 159.226675 L 20.160790 159.999675 L 20.280590 160.773675 L 20.510390 161.521675 L 20.742090 162.269675 L 21.078590 162.975675 L 21.417190 163.681675 L 21.847390 164.335675 L 22.278690 164.988675 L 22.775990 165.593675 L 23.273190 166.197675" fill="none" stroke="black" stroke-width="1.0" /><path d="M 23.364990 148.774675 L 22.825190 149.073675 L 22.285390 149.371675 L 21.819490 149.775675 L 21.354490 150.181675 L 20.986990 150.676675 L 20.621390 151.173675 L 20.362190 151.733675 L 20.109790 152.295675 L 19.969090 152.895675 L 19.833490 153.497675 L 19.784890 154.112675 L 19.738790 154.727675 L 19.737990 155.344675 L 19.738390 155.961675 L 19.763790 156.577675 L 19.790290 157.193675 L 19.848090 157.807675 L 19.906990 158.421675 L 19.999390 159.031675 L 20.093290 159.641675 L 20.231090 160.242675 L 20.370190 160.843675 L 20.548990 161.434675 L 20.728290 162.024675 L 20.929890 162.607675 L 21.131890 163.190675 L 21.355490 163.765675 L 21.579290 164.340675 L 22.064990 165.474675" fill="none" stroke="black" stroke-width="1.0" /><path d="M 30.664990 51.474575 L 30.656490 50.554075 L 30.647990 49.633575 L 30.787290 48.725575 L 30.950890 47.819675 L 31.265290 46.959975 L 31.636590 46.117575 L 32.140790 45.358775 L 32.739090 44.659275 L 33.394090 44.018775 L 34.119790 43.452475 L 34.863390 42.911975 L 35.647390 42.429475 L 36.436690 41.956375 L 37.252890 41.530675 L 38.069490 41.105675 L 38.905790 40.720975 L 39.742190 40.336275 L 40.591190 39.980675 L 41.441990 39.629275 L 42.297890 39.290575 L 43.155790 38.956675 L 44.011890 38.618175 L 44.866590 38.276375 L 45.715590 37.920975 L 46.557090 37.547675 L 47.393690 37.164075 L 48.218490 36.755175 L 49.041390 36.342575 L 49.853190 35.908575 L 50.664990 35.474575" fill="none" stroke="black" stroke-width="1.0" /><path d="M 41.364990 37.474575 L 45.022190 35.062075 L 48.934590 33.093375 L 53.106090 31.758575 L 57.419990 30.990975 L 61.753290 30.341875 L 66.085390 29.685175 L 70.379990 28.821775 L 74.547490 27.469875 L 78.619490 25.851775 L 82.664790 24.167975 L 86.704090 22.470075 L 90.743690 20.772675 L 94.790090 19.091675 L 98.849090 17.441375 L 102.926390 15.837575 L 107.031390 14.303475 L 111.180390 12.894575 L 115.383390 11.658075 L 119.634390 10.597375 L 123.924390 9.704105 L 128.243390 8.964275 L 132.583390 8.365875 L 136.940390 7.894235 L 141.307390 7.533565 L 145.680390 7.270845 L 150.058390 7.087775 L 154.438390 6.972905 L 158.820390 6.907435 L 163.201390 6.878005 L 167.583390 6.867155 L 171.965390 6.874605" fill="none" stroke="black" stroke-width="1.0" /><path d="M 421.365390 44.774575 L 416.569390 43.521675 L 411.704390 42.574575 L 406.783390 41.986375 L 401.827390 41.914675 L 396.885390 42.287275 L 391.986390 43.038075 L 387.134390 44.052175 L 382.329390 45.270175 L 377.555390 46.602975 L 372.797390 47.991475 L 368.036390 49.370475 L 363.252390 50.669175 L 358.415390 51.752575 L 353.575390 52.819675 L 348.690390 53.657375 L 343.784390 54.366675 L 338.856390 54.899875 L 333.911390 55.235175 L 328.955390 55.326475 L 324.003390 55.118275 L 319.074390 54.593075 L 314.199390 53.700375 L 309.415390 52.402075 L 304.729390 50.785975 L 300.135390 48.925575 L 295.614390 46.892575 L 291.139390 44.762675 L 286.677390 42.602375 L 282.159390 40.564475 L 277.600390 38.617975 L 273.049390 36.654975 L 268.557390 34.558575 L 264.177390 32.238675 L 260.070390 29.463675 L 256.283390 26.266175 L 252.765390 22.774575" fill="none" stroke="black" stroke-width="1.0" /><path d="M 311.965390 54.174575 L 307.269390 52.573075 L 302.638390 50.791775 L 298.101390 48.783375 L 293.681390 46.528075 L 289.334390 44.136875 L 285.042390 41.647475 L 280.786390 39.096275 L 276.540390 36.528575 L 272.265390 34.011175 L 267.989390 31.493975 L 263.639390 29.107175 L 259.216390 26.859075 L 254.761390 24.673875 L 250.293390 22.517075 L 245.805390 20.400975 L 241.296390 18.331075 L 236.762390 16.315375 L 232.197390 14.371375 L 227.601390 12.501475 L 222.972390 10.716075 L 218.303390 9.036365 L 213.597390 7.463355 L 208.854390 6.007575 L 204.070390 4.692115 L 199.249390 3.519315 L 194.394390 2.496515 L 189.506390 1.642075 L 184.591390 0.965091 L 179.654390 0.463186 L 174.703390 0.149376 L 169.742390 0.034039 L 164.781390 0.103123 L 159.828390 0.393316 L 154.888390 0.861998 L 149.965390 1.474615" fill="none" stroke="black" stroke-width="1.0" /><path d="M 272.665390 37.474575 L 268.399390 35.107475 L 264.069390 32.859275 L 259.651390 30.791175 L 255.177390 28.845075 L 250.693390 26.922975 L 246.200390 25.023075 L 241.699390 23.140475 L 237.194390 21.268375 L 232.688390 19.400575 L 228.182390 17.530975 L 223.679390 15.653575 L 219.168390 13.795475 L 214.630390 12.004975 L 210.057390 10.306575 L 205.448390 8.704845 L 200.805390 7.208265 L 196.126390 5.828425 L 191.412390 4.571145 L 186.666390 3.443755 L 181.887390 2.460415 L 177.080390 1.630175 L 172.248390 0.955976 L 167.396390 0.451998 L 162.528390 0.134851 L 157.651390 0.000000 L 152.773390 0.057071 L 147.902390 0.324139 L 143.046390 0.797201 L 138.219390 1.501945 L 133.425390 2.409415 L 128.665390 3.474615" fill="none" stroke="black" stroke-width="1.0" /><path d="M 189.365390 5.474605 L 185.063390 3.199855 L 180.482390 1.579425 L 175.662390 0.922375 L 170.796390 0.798725 L 165.929390 0.705400 L 161.062390 0.745038 L 156.198390 0.907997 L 151.338390 1.175695 L 146.484390 1.542575 L 141.640390 2.009655 L 136.804390 2.566065 L 131.979390 3.208595 L 127.169390 3.948615 L 122.388390 4.858785 L 117.654390 5.992915 L 112.981390 7.352395 L 108.369390 8.907265 L 103.812390 10.618575 L 99.303990 12.452375 L 94.834690 14.379975 L 90.392390 16.369375 L 85.963090 18.387475 L 81.533890 20.405675 L 77.090790 22.392975 L 72.621390 24.320675 L 68.114690 26.159175 L 63.558590 27.871875 L 58.946990 29.428775 L 54.267890 30.768975 L 49.534190 31.901775 L 44.764990 32.874575" fill="none" stroke="black" stroke-width="1.0" /><path d="M 485.057390 68.922475 L 482.198390 68.385175 L 479.345390 67.817375 L 476.504390 67.188175 L 473.677390 66.501175 L 470.857390 65.785075 L 468.092390 64.880175 L 465.336390 63.949875 L 462.597390 62.968675 L 459.878390 61.933775 L 457.169390 60.871875 L 454.506390 59.700975 L 451.855390 58.502075 L 449.231390 57.246975 L 446.620390 55.963375 L 444.016390 54.665575 L 441.416390 53.358575 L 438.812390 52.061475 L 436.198390 50.784475 L 433.563390 49.551275 L 430.918390 48.340475 L 428.223390 47.242775 L 425.509390 46.198075 L 422.755390 45.260675 L 419.960390 44.455875 L 417.146390 43.718475 L 414.271390 43.273575 L 411.386390 42.920975 L 408.481390 42.753675 L 405.574390 42.728475 L 402.665390 42.774575" fill="none" stroke="black" stroke-width="1.0" /><path d="M 489.185390 69.986075 L 486.510390 69.273775 L 483.835390 68.558875 L 481.163390 67.835875 L 478.494390 67.102275 L 475.828390 66.356875 L 473.161390 65.613075 L 470.494390 64.869875 L 467.824390 64.141775 L 465.157390 63.398075 L 462.514390 62.576375 L 459.895390 61.683375 L 457.312390 60.687875 L 454.759390 59.617775 L 452.224390 58.506475 L 449.726390 57.314375 L 447.232390 56.111275 L 444.739390 54.908075 L 442.246390 53.705775 L 439.751390 52.505175 L 437.238390 51.345975 L 434.710390 50.216475 L 432.143390 49.180675 L 429.565390 48.174375 L 426.931390 47.321075 L 424.276390 46.548275 L 421.568390 45.973075 L 418.839390 45.525875 L 416.091390 45.194475 L 413.330390 45.011475 L 410.565390 44.874575" fill="none" stroke="black" stroke-width="1.0" /><path d="M 31.364990 51.474575 L 32.047890 47.822275 L 33.476490 44.398175 L 35.780990 41.490375 L 38.732090 39.232775 L 41.944990 37.364375 L 45.299590 35.762675 L 48.670190 34.195375 L 52.109990 32.785875 L 55.562890 31.408675 L 59.033690 30.077275 L 62.513890 28.770775 L 65.994890 27.465975 L 69.466890 26.137975 L 72.918190 24.756875 L 76.335290 23.293275 L 79.699990 21.712975 L 83.026890 20.054275 L 86.360290 18.408975 L 89.741990 16.865475 L 93.193090 15.484075 L 96.703790 14.261775 L 100.259390 13.177075 L 103.840390 12.179575 L 107.436390 11.237575 L 111.038390 10.317975 L 114.636390 9.381765 L 118.219390 8.393645 L 121.770390 7.293885 L 125.283390 6.076945 L 128.765390 4.774615" fill="none" stroke="black" stroke-width="1.0" /><path d="M 59.364990 30.174575 L 63.853390 28.304475 L 68.421690 26.640175 L 73.081790 25.253775 L 77.806690 24.105475 L 82.544990 23.013175 L 87.273090 21.878575 L 91.963790 20.600675 L 96.583290 19.088575 L 101.114390 17.324275 L 105.617390 15.489975 L 110.142390 13.709475 L 114.698390 12.012775 L 119.289390 10.410075 L 123.915390 8.914775 L 128.577390 7.533255 L 133.274390 6.274985 L 138.004390 5.151665 L 142.765390 4.166035 L 147.554390 3.323525 L 152.366390 2.630555 L 157.198390 2.084645 L 162.044390 1.690115 L 166.900390 1.453315 L 171.762390 1.393525 L 176.622390 1.519815 L 181.475390 1.816545 L 186.314390 2.293605 L 191.127390 2.981205 L 195.910390 3.854725 L 200.665390 4.874605" fill="none" stroke="black" stroke-width="1.0" /><path d="M 191.965390 36.774575 L 194.842390 36.975475 L 197.717390 37.202275 L 200.590390 37.463775 L 203.459390 37.753975 L 206.328390 38.050875 L 209.198390 38.339875 L 212.070390 38.606175 L 214.945390 38.834875 L 217.824390 39.011675 L 220.706390 39.122675 L 223.590390 39.154975 L 226.473390 39.097275 L 229.353390 38.949175 L 232.230390 38.745775 L 235.108390 38.548375 L 237.988390 38.395575 L 240.870390 38.299175 L 243.754390 38.267775 L 246.638390 38.306475 L 249.519390 38.430275 L 252.395390 38.652475 L 255.264390 38.944475 L 258.111390 39.399675 L 260.919390 40.053875 L 263.656390 40.955675 L 266.246390 42.213575 L 268.496390 44.001275 L 269.914390 46.483275 L 270.349390 49.319675 L 269.965390 52.174575" fill="none" stroke="black" stroke-width="1.0" /><path d="M 269.965390 48.774575 L 269.776390 45.660775 L 268.430390 42.900375 L 266.002390 40.976675 L 263.137390 39.721775 L 260.170390 38.715875 L 257.142390 37.927175 L 254.056390 37.385375 L 250.949390 36.988475 L 247.829390 36.705175 L 244.701390 36.522275 L 241.569390 36.428375 L 238.436390 36.409175 L 235.302390 36.448575 L 232.170390 36.533875 L 229.039390 36.647975 L 225.908390 36.775275 L 222.777390 36.901375 L 219.646390 37.011775 L 216.513390 37.092175 L 213.380390 37.127975 L 210.247390 37.104475 L 207.115390 37.007275 L 203.988390 36.821875 L 200.868390 36.534675 L 197.761390 36.132475 L 194.673390 35.603675 L 191.611390 34.937975 L 188.589390 34.114675 L 185.608390 33.149975 L 182.665390 32.074575" fill="none" stroke="black" stroke-width="1.0" /><path d="M 461.365390 84.774575 L 457.519390 81.665675 L 453.541390 78.729875 L 449.363390 76.086275 L 445.148390 73.499875 L 440.933390 70.915775 L 436.614390 68.508975 L 432.172390 66.339175 L 427.618390 64.414875 L 422.962390 62.754475 L 418.212390 61.385575 L 413.387390 60.308775 L 408.507390 59.523975 L 403.588390 59.039575 L 398.648390 58.852575 L 393.708390 58.982175 L 388.788390 59.454975 L 383.910390 60.253375 L 379.089390 61.342375 L 374.337390 62.703075 L 369.663390 64.312975 L 365.072390 66.147775 L 360.575390 68.199275 L 356.174390 70.451775 L 351.873390 72.890375 L 347.684390 75.514675 L 343.609390 78.314675 L 339.658390 81.285675 L 335.847390 84.435275 L 332.219390 87.791775 L 328.910390 91.458875 L 326.013390 95.459475 L 323.433390 99.675575 L 321.036390 103.999675 L 318.693390 108.354675 L 316.508390 112.789675 L 314.390390 117.257675 L 313.045390 122.003675 L 313.584390 126.872675 L 316.178390 131.029675 L 320.065390 134.074675" fill="none" stroke="black" stroke-width="1.0" /><path d="M 432.665390 65.474575 L 428.323390 63.281775 L 423.744390 61.643975 L 418.962390 60.794475 L 414.107390 60.691475 L 409.248390 60.888675 L 404.401390 61.286275 L 399.564390 61.797675 L 394.752390 62.499075 L 389.977390 63.420475 L 385.238390 64.511575 L 380.538390 65.764275 L 375.881390 67.167175 L 371.270390 68.713575 L 366.708390 70.402675 L 362.200390 72.228475 L 357.749390 74.191375 L 353.369390 76.307975 L 349.083390 78.605775 L 344.924390 81.126275 L 340.943390 83.917575 L 337.185390 87.000375 L 333.683390 90.369975 L 330.461390 94.007775 L 327.455390 97.830975 L 324.574390 101.750675 L 321.895390 105.802675 L 319.528390 110.052675 L 317.415390 114.411675 L 316.347390 119.141675 L 316.429390 124.000675 L 317.365390 128.774675" fill="none" stroke="black" stroke-width="1.0" /><path d="M 333.365390 124.174675 L 335.989390 122.538675 L 338.691390 121.035675 L 341.486390 119.712675 L 344.365390 118.583675 L 347.291390 117.582675 L 350.251390 116.686675 L 353.241390 115.900675 L 356.232390 115.113675 L 359.239390 114.393675 L 362.250390 113.686675 L 365.258390 112.972675 L 368.268390 112.260675 L 371.285390 111.585675 L 374.311390 110.947675 L 377.345390 110.346675 L 380.385390 109.780675 L 383.431390 109.248675 L 386.483390 108.748675 L 389.539390 108.279675 L 392.600390 107.839675 L 395.665390 107.427675 L 398.733390 107.043675 L 401.805390 106.684675 L 404.879390 106.349675 L 407.955390 106.037675 L 411.034390 105.746675 L 414.114390 105.476675 L 417.197390 105.227675 L 420.280390 104.994675 L 423.365390 104.774675" fill="none" stroke="black" stroke-width="1.0" /><path d="M 337.965390 122.174675 L 340.115390 120.030675 L 342.427390 118.063675 L 344.930390 116.345675 L 347.604390 114.909675 L 350.376390 113.669675 L 353.216390 112.597675 L 356.105390 111.664675 L 359.029390 110.846675 L 361.977390 110.124675 L 364.945390 109.482675 L 367.928390 108.918675 L 370.911390 108.355675 L 373.902390 107.834675 L 376.893390 107.313675 L 379.884390 106.793675 L 382.882390 106.319675 L 385.889390 105.897675 L 388.902390 105.526675 L 391.921390 105.204675 L 394.944390 104.929675 L 397.972390 104.701675 L 401.002390 104.517675 L 404.035390 104.375675 L 407.069390 104.273675 L 410.104390 104.209675 L 413.140390 104.177675 L 416.176390 104.137675 L 419.209390 104.012675 L 422.239390 103.820675 L 425.265390 103.574675" fill="none" stroke="black" stroke-width="1.0" /><path d="M 339.965390 122.174675 L 342.054390 120.194675 L 344.314390 118.412675 L 346.774390 116.918675 L 349.391390 115.720675 L 352.078390 114.688675 L 354.810390 113.781675 L 357.572390 112.970675 L 360.363390 112.269675 L 363.155390 111.568675 L 365.963390 110.937675 L 368.778390 110.333675 L 371.595390 109.744675 L 374.413390 109.156675 L 377.227390 108.554675 L 380.033390 107.912675 L 382.820390 107.193675 L 385.588390 106.401675 L 388.363390 105.639675 L 391.161390 104.964675 L 393.983390 104.396675 L 396.827390 103.956675 L 399.690390 103.653675 L 402.559390 103.426675 L 405.418390 103.088675 L 408.270390 102.705675 L 411.127390 102.349675 L 413.992390 102.076675 L 416.870390 102.062675 L 419.733390 102.357675 L 422.565390 102.874675" fill="none" stroke="black" stroke-width="1.0" /><path d="M 47.364990 101.474675 L 46.598890 101.488675 L 45.832890 101.501675 L 45.067890 101.544675 L 44.302790 101.587675 L 43.539790 101.657675 L 42.776790 101.727675 L 42.021790 101.857675 L 41.266790 101.988675 L 40.518690 102.153675 L 39.770590 102.319675 L 39.030990 102.519675 L 38.291490 102.719675 L 37.576290 102.994675 L 36.861090 103.269675 L 36.161890 103.582675 L 35.462690 103.896675 L 34.781590 104.247675 L 34.100490 104.598675 L 33.461890 105.021675 L 32.823190 105.444675 L 32.208490 105.902675 L 31.593790 106.359675 L 31.004890 106.849675 L 30.415990 107.339675 L 29.881690 107.889675 L 29.347390 108.438675 L 28.837690 109.010675 L 28.328090 109.582675 L 27.364990 110.774675" fill="none" stroke="black" stroke-width="1.0" /><path d="M 45.364990 102.774675 L 44.671890 102.772675 L 43.978790 102.770675 L 43.286790 102.809675 L 42.594790 102.849675 L 41.907990 102.942675 L 41.221090 103.035675 L 40.545290 103.189675 L 39.869390 103.343675 L 39.200790 103.526675 L 38.532290 103.709675 L 37.888390 103.965675 L 37.244490 104.222675 L 36.608790 104.498675 L 35.973190 104.775675 L 35.355290 105.089675 L 34.737490 105.403675 L 34.134890 105.745675 L 33.532290 106.088675 L 32.937590 106.444675 L 32.343090 106.800675 L 31.766190 107.185675 L 31.189390 107.569675 L 30.616290 107.959675 L 30.043190 108.349675 L 29.477290 108.749675 L 28.911290 109.149675 L 28.348090 109.553675 L 27.784890 109.957675 L 26.664990 110.774675" fill="none" stroke="black" stroke-width="1.0" /><path d="M 45.364990 102.174675 L 44.889690 102.279675 L 44.414490 102.385675 L 43.942090 102.503675 L 43.469790 102.621675 L 43.004090 102.763675 L 42.538390 102.905675 L 42.077590 103.062675 L 41.616790 103.220675 L 41.157690 103.382675 L 40.698590 103.544675 L 40.242690 103.715675 L 39.786790 103.886675 L 39.332190 104.060675 L 38.877490 104.234675 L 38.421590 104.405675 L 37.965790 104.576675 L 37.508390 104.743675 L 37.051090 104.910675 L 36.590990 105.069675 L 36.130890 105.229675 L 35.665590 105.372675 L 35.200090 105.514675 L 34.727490 105.631675 L 34.253290 105.741675 L 33.774190 105.828675 L 33.295190 105.915675 L 32.812690 105.980675 L 32.330090 106.044675 L 31.847590 106.109675 L 31.364990 106.174675" fill="none" stroke="black" stroke-width="1.0" /><path d="M 52.664990 110.174675 L 49.652990 110.409675 L 46.658190 110.807675 L 43.697090 111.406675 L 40.794090 112.243675 L 37.957690 113.284675 L 35.200690 114.519675 L 32.534090 115.939675 L 29.967490 117.533675 L 27.508590 119.288675 L 25.164090 121.194675 L 22.939090 123.237675 L 20.837990 125.408675 L 18.864390 127.696675 L 17.021390 130.090675 L 15.311590 132.581675 L 13.737690 135.159675 L 12.302290 137.818675 L 11.007890 140.548675 L 9.857520 143.341675 L 8.854170 146.191675 L 8.001270 149.089675 L 7.302500 152.028675 L 6.761850 155.001675 L 6.384710 157.998675 L 6.178470 161.012675 L 6.144540 164.033675 L 6.286530 167.051675 L 6.608400 170.055675 L 7.135020 173.030675 L 7.832790 175.970675 L 8.665020 178.874675" fill="none" stroke="black" stroke-width="1.0" /><path d="M 50.664990 108.174675 L 53.125590 107.894675 L 55.591390 107.665675 L 58.062090 107.498675 L 60.536690 107.407675 L 63.012890 107.382675 L 65.488790 107.421675 L 67.963090 107.521675 L 70.434390 107.679675 L 72.901590 107.890675 L 75.364190 108.150675 L 77.821590 108.456675 L 80.273690 108.801675 L 82.720490 109.183675 L 85.161890 109.598675 L 87.597290 110.047675 L 90.027690 110.522675 L 92.456790 111.004675 L 94.888090 111.474675 L 97.324090 111.920675 L 99.766090 112.332675 L 102.214390 112.701675 L 104.670390 113.021675 L 107.133390 113.276675 L 109.604390 113.436675 L 112.080390 113.489675 L 114.551390 113.347675 L 117.016390 113.107675 L 119.383390 112.431675 L 121.529390 111.224675 L 123.365390 109.574675" fill="none" stroke="black" stroke-width="1.0" /><path d="M 54.664990 110.774675 L 50.421890 111.112675 L 46.221590 111.799675 L 42.120290 112.931675 L 38.176190 114.524675 L 34.417490 116.516675 L 30.865990 118.856675 L 27.543390 121.512675 L 24.484290 124.466675 L 21.700390 127.681675 L 19.227290 131.140675 L 17.060690 134.800675 L 15.135290 138.594675 L 13.380590 142.471675 L 11.780290 146.415675 L 10.387490 150.435675 L 9.203510 154.522675 L 8.206990 158.659675 L 7.492350 162.851675 L 7.160440 167.090675 L 7.249550 171.340675 L 7.863900 175.539675 L 9.095970 179.611675 L 10.677890 183.550675 L 12.959690 187.133675 L 15.790690 190.307675 L 18.952690 193.154675 L 22.407290 195.634675 L 26.270990 197.415675 L 30.419690 198.364675 L 34.664990 198.674675" fill="none" stroke="black" stroke-width="1.0" /><path d="M 5.365020 178.174675 L 5.642480 183.136675 L 6.752800 187.978675 L 8.899540 192.457675 L 11.992590 196.347675 L 15.581690 199.784675 L 19.495490 202.847675 L 23.686490 205.519675 L 28.070090 207.861675 L 32.610490 209.883675 L 37.076390 212.065675 L 41.538890 214.253675 L 45.876290 216.680675 L 50.135390 219.243675 L 54.335590 221.900675 L 58.486490 224.634675 L 62.600190 227.424675 L 66.693190 230.243675 L 70.777690 233.076675 L 74.868990 235.898675 L 78.979190 238.693675 L 83.125890 241.433675 L 87.319690 244.101675 L 91.571290 246.675675 L 95.901390 249.116675 L 100.311390 251.407675 L 104.809390 253.523675 L 109.409390 255.407675 L 114.101390 257.046675 L 118.892390 258.367675 L 123.757390 259.388675 L 128.665390 260.174675" fill="none" stroke="black" stroke-width="1.0" /><path d="M 3.965020 176.774675 L 4.140000 181.677675 L 4.924590 186.518675 L 6.520590 191.150675 L 8.798010 195.485675 L 11.630690 199.480675 L 14.990390 203.039675 L 18.708390 206.233675 L 22.754790 208.986675 L 27.020590 211.408675 L 31.322590 213.767675 L 35.598890 216.172675 L 39.845390 218.629675 L 44.085690 221.097675 L 48.327790 223.562675 L 52.570790 226.026675 L 56.813690 228.489675 L 61.055390 230.955675 L 65.294290 233.426675 L 69.506890 235.941675 L 73.627490 238.602675 L 77.650290 241.409675 L 81.632090 244.276675 L 85.635190 247.112675 L 89.724090 249.821675 L 93.921790 252.360675 L 98.215890 254.726675 L 102.710390 256.659675 L 107.483390 257.752675 L 112.382390 257.952675 L 117.265390 257.474675" fill="none" stroke="black" stroke-width="1.0" /><path d="M 13.364990 196.174675 L 16.020490 199.453675 L 18.826390 202.605675 L 21.822590 205.575675 L 24.993590 208.357675 L 28.301390 210.975675 L 31.706390 213.466675 L 35.188090 215.850675 L 38.733090 218.138675 L 42.326490 220.350675 L 45.947890 222.516675 L 49.584390 224.657675 L 53.239190 226.766675 L 56.894390 228.875675 L 60.537490 231.004675 L 64.156690 233.174675 L 67.764090 235.364675 L 71.392390 237.518675 L 75.048490 239.625675 L 78.729890 241.688675 L 82.432490 243.712675 L 86.151390 245.706675 L 89.881090 247.680675 L 93.615490 249.645675 L 97.365590 251.579675 L 101.154390 253.437675 L 104.995390 255.182675 L 108.898390 256.783675 L 112.881390 258.166675 L 116.982390 259.153675 L 121.156390 259.762675 L 125.365390 260.074675" fill="none" stroke="black" stroke-width="1.0" /><path d="M 6.665020 156.174675 L 6.030420 158.883675 L 5.575960 161.628675 L 5.349720 164.401675 L 5.386390 167.181675 L 5.645540 169.949675 L 6.104310 172.692675 L 6.752740 175.396675 L 7.583910 178.050675 L 8.593610 180.641675 L 9.780020 183.156675 L 11.143290 185.580675 L 12.685090 187.895675 L 14.407790 190.079675 L 16.313490 192.105675 L 18.403090 193.943675 L 20.666390 195.562675 L 23.065390 196.970675 L 25.591690 198.132675 L 28.227290 199.015675 L 30.952690 199.546675 L 33.715990 199.866675 L 36.493290 199.989675 L 39.272690 199.899675 L 42.043890 199.653675 L 44.807690 199.329675 L 47.569890 198.992675 L 50.333890 198.670675 L 53.105490 198.424675 L 55.883790 198.267675 L 58.664990 198.174675" fill="none" stroke="black" stroke-width="1.0" /><path d="M 47.364990 195.474675 L 48.997590 195.521675 L 50.629590 195.582675 L 52.260890 195.663675 L 53.889890 195.780675 L 55.517290 195.916675 L 57.141490 196.088675 L 58.763190 196.281675 L 60.383390 196.487675 L 62.000590 196.715675 L 63.616690 196.952675 L 65.231690 197.195675 L 66.845890 197.444675 L 68.460290 197.691675 L 70.075090 197.936675 L 71.691590 198.169675 L 73.309190 198.395675 L 74.929490 198.600675 L 76.552290 198.784675 L 78.176790 198.952675 L 79.805290 199.077675 L 81.435390 199.175675 L 83.067190 199.242675 L 84.700290 199.253675 L 86.333190 199.236675 L 87.965190 199.172675 L 89.593390 199.049675 L 91.219090 198.894675 L 92.838590 198.682675 L 94.453490 198.439675 L 96.064990 198.174675" fill="none" stroke="black" stroke-width="1.0" /><path d="M 41.364990 202.174675 L 46.219690 201.255675 L 51.115790 200.591675 L 56.045390 200.256675 L 60.986190 200.294675 L 65.918790 200.580675 L 70.835290 201.071675 L 75.734190 201.714675 L 80.621190 202.442675 L 85.502490 203.207675 L 90.391690 203.921675 L 95.280790 204.634675 L 100.191390 205.182675 L 105.117390 205.566675 L 110.052390 205.802675 L 114.992390 205.895675 L 119.933390 205.838675 L 124.870390 205.649675 L 129.800390 205.323675 L 134.719390 204.858675 L 139.625390 204.266675 L 144.510390 203.528675 L 149.374390 202.658675 L 154.211390 201.648675 L 159.014390 200.489675 L 163.782390 199.193675 L 168.502390 197.733675 L 173.173390 196.122675 L 177.785390 194.349675 L 182.324390 192.397675 L 186.786390 190.275675 L 191.153390 187.965675 L 195.392390 185.426675 L 199.513390 182.700675 L 203.535390 179.830675" fill="none" stroke="black" stroke-width="1.0" /><path d="M 43.964990 201.474675 L 48.825790 200.304675 L 53.739290 199.383675 L 58.701190 198.777675 L 63.694090 198.529675 L 68.693290 198.527675 L 73.688390 198.730675 L 78.673890 199.104675 L 83.649490 199.593675 L 88.617390 200.156675 L 93.581290 200.753675 L 98.546290 201.341675 L 103.516390 201.879675 L 108.496390 202.320675 L 113.486390 202.628675 L 118.483390 202.789675 L 123.482390 202.823675 L 128.481390 202.750675 L 133.477390 202.574675 L 138.468390 202.285675 L 143.451390 201.881675 L 148.423390 201.353675 L 153.378390 200.690675 L 158.312390 199.885675 L 163.218390 198.924675 L 168.086390 197.789675 L 172.908390 196.469675 L 177.661390 194.922675 L 182.276390 193.004675 L 186.682390 190.647675 L 190.881390 187.937675 L 194.995390 185.095675 L 199.130390 182.285675 L 203.265390 179.474675" fill="none" stroke="black" stroke-width="1.0" /><path d="M 74.664990 204.174675 L 79.219990 204.140675 L 83.774690 204.086675 L 88.329090 204.008675 L 92.882890 203.903675 L 97.436090 203.771675 L 101.988390 203.615675 L 106.540390 203.434675 L 111.090390 203.228675 L 115.639390 202.998675 L 120.187390 202.743675 L 124.734390 202.463675 L 129.278390 202.158675 L 133.822390 201.829675 L 138.363390 201.476675 L 142.902390 201.098675 L 147.439390 200.694675 L 151.974390 200.267675 L 156.507390 199.813675 L 161.039390 199.355675 L 165.572390 198.914675 L 170.100390 198.413675 L 174.617390 197.826675 L 179.107390 197.063675 L 183.596390 196.288675 L 188.042390 195.300675 L 192.433390 194.090675 L 196.718390 192.545675 L 200.655390 190.265675 L 203.954390 187.133675 L 206.665390 183.474675" fill="none" stroke="black" stroke-width="1.0" /><path d="M 30.664990 48.774575 L 30.632190 50.636375 L 30.576890 52.497375 L 30.490790 54.357475 L 30.351090 56.214075 L 30.178990 58.067775 L 29.944390 59.914975 L 29.646090 61.752375 L 29.309290 63.583575 L 28.895290 65.398975 L 28.463890 67.210275 L 28.016690 69.017775 L 27.523290 70.813275 L 27.034290 72.609875 L 26.557190 74.409775 L 26.139190 76.223975 L 25.766090 78.047375 L 25.501690 79.890575 L 25.308690 81.741775 L 25.162190 83.597875 L 25.105590 85.459075 L 25.082390 87.320675 L 25.095890 89.182575 L 25.147090 91.043875 L 25.206690 92.904975 L 25.275190 94.765775 L 25.326690 96.627075 L 25.366790 98.488575 L 25.378190 100.350675 L 25.376390 102.212675 L 25.364990 104.074675" fill="none" stroke="black" stroke-width="1.0" /><path d="M 29.964990 46.774575 L 30.244590 48.876775 L 30.454690 50.986275 L 30.587390 53.101875 L 30.627890 55.222175 L 30.512790 57.339375 L 30.306390 59.448875 L 30.015190 61.548775 L 29.637090 63.635475 L 29.177790 65.705575 L 28.678090 67.766275 L 28.146690 69.819275 L 27.592090 71.866075 L 27.045390 73.914975 L 26.551290 75.976675 L 26.131190 78.054475 L 25.838590 80.154775 L 25.680190 82.268575 L 25.550590 84.385275 L 25.432590 86.502375 L 25.393890 88.622675 L 25.368790 90.743175 L 25.341890 92.863575 L 25.303790 94.983875 L 25.224490 97.102975 L 25.086790 99.218875 L 24.880690 101.328675 L 24.591890 103.428675 L 24.110790 105.494675 L 23.497890 107.522675 L 22.777290 109.515675 L 21.964990 111.474675" fill="none" stroke="black" stroke-width="1.0" /><path d="M 22.664990 102.174675 L 22.106490 106.225675 L 21.108790 110.188675 L 19.548690 113.965675 L 17.546190 117.530675 L 15.375990 120.996675 L 13.147790 124.426675 L 10.987190 127.897675 L 9.019800 131.480675 L 7.302510 135.191675 L 5.728290 138.964675 L 4.409750 142.833675 L 3.358010 146.783675 L 2.529190 150.787675 L 1.912650 154.828675 L 1.491620 158.895675 L 1.233800 162.976675 L 1.122510 167.064675 L 1.147510 171.153675 L 1.291930 175.240675 L 1.541020 179.322675 L 1.853840 183.400675 L 2.124770 187.480675 L 2.227040 191.568675 L 2.173610 195.657675 L 2.020880 199.744675 L 1.833690 203.829675 L 1.679690 207.916675 L 1.663060 212.005675 L 1.804320 216.093675 L 2.065020 220.174675" fill="none" stroke="black" stroke-width="1.0" /><path d="M 24.664990 90.174575 L 24.197990 95.113475 L 23.402990 100.010675 L 22.187890 104.819675 L 20.530690 109.495675 L 18.641090 114.082675 L 16.584990 118.597675 L 14.424490 123.063675 L 12.234090 127.514675 L 10.130590 132.007675 L 8.274390 136.607675 L 6.673530 141.303675 L 5.357280 146.086675 L 4.306060 150.934675 L 3.489810 155.828675 L 2.881440 160.751675 L 2.448250 165.693675 L 2.134210 170.644675 L 1.909540 175.600675 L 1.753190 180.558675 L 1.680620 185.519675 L 1.724000 190.480675 L 1.898780 195.437675 L 2.247230 200.386675 L 2.797650 205.316675 L 3.573750 210.216675 L 4.604510 215.069675 L 5.935010 219.848675 L 7.565080 224.533675 L 9.498300 229.102675 L 11.728390 233.533675 L 14.269590 237.794675 L 17.070290 241.889675 L 20.221390 245.720675 L 23.376990 249.548675 L 26.804190 253.134675 L 30.369290 256.584675 L 34.055290 259.904675 L 37.873490 263.072675 L 41.836690 266.056675 L 45.944590 268.837675 L 50.279790 271.248675 L 54.768690 273.360675 L 59.265890 275.454675 L 63.562190 277.934675 L 67.540890 280.897675 L 71.264990 284.174675" fill="none" stroke="black" stroke-width="1.0" /><path d="M 11.364990 126.774675 L 9.617230 131.408675 L 7.969090 136.078675 L 6.443390 140.789675 L 5.076050 145.549675 L 3.849570 150.346675 L 2.773970 155.180675 L 1.865100 160.048675 L 1.121540 164.944675 L 0.555811 169.863675 L 0.181263 174.801675 L 0.000000 179.749675 L 0.025283 184.700675 L 0.268199 189.646675 L 0.731652 194.575675 L 1.427170 199.477675 L 2.361700 204.339675 L 3.536000 209.149675 L 4.956930 213.891675 L 6.622730 218.553675 L 8.519830 223.127675 L 10.624390 227.608675 L 12.912090 232.000675 L 15.388090 236.287675 L 18.070890 240.448675 L 20.963890 244.466675 L 24.072490 248.319675 L 27.402590 251.982675 L 30.938890 255.447675 L 34.662390 258.710675 L 38.525990 261.807675 L 42.443090 264.837675 L 46.397290 267.819675 L 50.406390 270.726675 L 54.482990 273.538675 L 58.655090 276.206675 L 62.969190 278.637675 L 67.420290 280.807675 L 71.964990 282.774675" fill="none" stroke="black" stroke-width="1.0" /><path d="M 40.664990 76.774575 L 39.524590 76.447575 L 38.365590 76.300875 L 37.182490 76.389775 L 36.159190 76.969875 L 35.265890 77.708575 L 34.651790 78.723675 L 34.041090 79.740875 L 33.432590 80.759375 L 32.926790 81.831975 L 32.449790 82.917675 L 32.039790 84.030975 L 31.666690 85.156575 L 31.328290 86.293775 L 31.046590 87.445875 L 30.784290 88.602875 L 30.571190 89.769975 L 30.404990 90.943475 L 30.300990 92.125375 L 30.245490 93.310075 L 30.207590 94.495975 L 30.176090 95.681975 L 30.214790 96.863875 L 30.386090 98.037875 L 30.665390 99.188075 L 31.002790 100.325675 L 31.614790 101.339675 L 32.324790 102.272675 L 33.255990 103.007675 L 34.286290 103.580675 L 35.364990 104.074675" fill="none" stroke="black" stroke-width="1.0" /><path d="M 41.364990 76.174575 L 40.310490 76.091375 L 39.258390 76.039975 L 38.228990 76.283675 L 37.265990 76.656375 L 36.468590 77.351575 L 35.718590 78.088675 L 35.124590 78.963975 L 34.542490 79.846475 L 34.046990 80.781075 L 33.553490 81.716575 L 33.173990 82.703975 L 32.794390 83.691375 L 32.487490 84.703375 L 32.187690 85.717875 L 31.930390 86.743675 L 31.683790 87.772375 L 31.477690 88.809575 L 31.289990 89.850575 L 31.184890 90.900775 L 31.140690 91.957675 L 31.106390 93.014875 L 31.083690 94.072475 L 31.095090 95.129175 L 31.168390 96.184475 L 31.294590 97.230675 L 31.577490 98.249975 L 31.891890 99.257175 L 32.365590 100.202675 L 32.851590 101.141675 L 33.458290 102.007675 L 34.064990 102.874675" fill="none" stroke="black" stroke-width="1.0" /><path d="M 47.964990 108.174675 L 51.094490 108.854675 L 54.232390 109.495675 L 57.385590 110.055675 L 60.523790 110.687675 L 63.587290 111.612675 L 66.546890 112.833675 L 69.425790 114.235675 L 72.233590 115.774675 L 74.970390 117.436675 L 77.637090 119.209675 L 80.235590 121.080675 L 82.766190 123.042675 L 85.230490 125.087675 L 87.632790 127.205675 L 89.974190 129.389675 L 92.252690 131.639675 L 94.466890 133.953675 L 96.617190 136.326675 L 98.704290 138.755675 L 100.728390 141.236675 L 102.691390 143.766675 L 104.594390 146.342675 L 106.439390 148.960675 L 108.228390 151.616675 L 109.965390 154.307675 L 111.651390 157.029675 L 113.291390 159.780675 L 114.884390 162.558675 L 116.440390 165.358675 L 117.965390 168.174675" fill="none" stroke="black" stroke-width="1.0" /><path d="M 74.664990 112.774675 L 77.050390 113.979675 L 79.391190 115.267675 L 81.671090 116.661675 L 83.877090 118.169675 L 86.020190 119.765675 L 88.103690 121.438675 L 90.130090 123.179675 L 92.099990 124.985675 L 94.015090 126.848675 L 95.878390 128.763675 L 97.692390 130.725675 L 99.458790 132.730675 L 101.179390 134.775675 L 102.853390 136.857675 L 104.484390 138.974675 L 106.071390 141.124675 L 107.614390 143.306675 L 109.113390 145.518675 L 110.565390 147.761675 L 111.971390 150.033675 L 113.332390 152.333675 L 114.647390 154.659675 L 115.914390 157.011675 L 117.132390 159.390675 L 118.298390 161.794675 L 119.409390 164.225675 L 120.460390 166.681675 L 121.446390 169.165675 L 122.352390 171.679675 L 123.187390 174.217675 L 123.965390 176.774675" fill="none" stroke="black" stroke-width="1.0" /><path d="M 95.964990 130.174675 L 98.382790 132.087675 L 100.675390 134.147675 L 102.790390 136.390675 L 104.705390 138.806675 L 106.479390 141.327675 L 108.128390 143.932675 L 109.662390 146.606675 L 111.033390 149.367675 L 112.400390 152.130675 L 113.609390 154.966675 L 114.705390 157.847675 L 115.679390 160.772675 L 116.520390 163.738675 L 117.205390 166.744675 L 117.704390 169.785675 L 117.971390 172.856675 L 117.937390 175.938675 L 117.545390 178.995675 L 116.814390 181.989675 L 115.760390 184.885675 L 114.371390 187.636675 L 112.595390 190.154675 L 110.368390 192.280675 L 107.721390 193.852675 L 104.867390 195.011675 L 101.917390 195.905675 L 98.902090 196.542675 L 95.823890 196.598675 L 92.815890 195.944675 L 89.964990 194.774675" fill="none" stroke="black" stroke-width="1.0" /><path d="M 100.665390 136.174675 L 102.766390 138.177675 L 104.786390 140.261675 L 106.700390 142.443675 L 108.488390 144.728675 L 110.164390 147.097675 L 111.732390 149.540675 L 113.188390 152.050675 L 114.533390 154.621675 L 115.761390 157.251675 L 116.849390 159.940675 L 117.791390 162.686675 L 118.641390 165.460675 L 119.309390 168.284675 L 119.771390 171.149675 L 120.006390 174.043675 L 119.548390 176.906675 L 118.975390 179.752675 L 117.852390 182.416675 L 116.402390 184.927675 L 114.712390 187.283675 L 112.832390 189.492675 L 110.818390 191.580675 L 108.643390 193.496675 L 106.269390 195.156675 L 103.707390 196.504675 L 100.965390 197.418675 L 98.101190 197.683675 L 95.291090 197.013675 L 92.786690 195.555675 L 90.664990 193.574675" fill="none" stroke="black" stroke-width="1.0" /><path d="M 67.364990 110.174675 L 71.615490 112.635675 L 75.797890 115.210675 L 79.935990 117.855675 L 83.905690 120.740675 L 87.530490 124.033675 L 90.774590 127.714675 L 93.787590 131.593675 L 96.754290 135.507675 L 99.722690 139.420675 L 102.690390 143.333675 L 105.656390 147.248675 L 108.590390 151.188675 L 111.473390 155.163675 L 113.947390 159.381675 L 115.631390 163.965675 L 116.515390 168.790675 L 116.792390 173.671675 L 115.806390 178.483675 L 113.846390 182.986675 L 111.173390 187.096675 L 107.865390 190.705675 L 103.791390 193.333675 L 99.297890 195.309675 L 94.606690 196.574675 L 89.706290 196.862675 L 84.794790 196.869675 L 79.883590 196.811675 L 74.972290 196.754675 L 70.060790 196.746675 L 65.156490 196.977675 L 60.282590 197.549675 L 55.443190 198.381675 L 50.611590 199.261675 L 45.754090 199.977675 L 40.866190 200.455675 L 35.964990 200.774675" fill="none" stroke="black" stroke-width="1.0" /><path d="M 87.364990 148.174675 L 84.589290 147.304675 L 81.809490 147.954675 L 79.720890 149.962675 L 79.177490 152.817675 L 79.009490 155.749675 L 79.346690 158.670675 L 80.041990 161.529675 L 81.355290 164.160675 L 82.853590 166.685675 L 85.013190 168.624675 L 87.844290 169.070675 L 90.436990 167.813675 L 92.290890 165.527675 L 93.481390 162.877675 L 93.663090 159.955675 L 93.119190 157.069675 L 92.047090 154.331675 L 90.549090 151.805675 L 88.519690 149.680675 L 86.199690 147.956675 L 83.346390 147.663675 L 80.622390 148.700675 L 79.170190 151.187675 L 79.013590 154.102675 L 79.699190 156.952675 L 80.828690 159.669675 L 82.085990 162.327675 L 83.742890 164.759675 L 85.632790 167.015675 L 87.682290 169.129675" fill="none" stroke="black" stroke-width="1.0" /><path d="M 82.664990 146.774675 L 81.123890 146.860675 L 79.672390 147.336675 L 78.530990 148.311675 L 77.779290 149.624675 L 77.411190 151.115675 L 77.409290 152.659675 L 77.451790 154.201675 L 77.537190 155.742675 L 77.711890 157.273675 L 78.016590 158.786675 L 78.437290 160.271675 L 78.961390 161.722675 L 79.624890 163.111675 L 80.474990 164.387675 L 81.549590 165.491675 L 82.868390 166.293675 L 84.215690 167.046675 L 85.669290 167.432675 L 87.199790 167.378675 L 88.697190 167.012675 L 89.996990 166.180675 L 90.952090 164.997675 L 91.573390 163.607675 L 91.967790 162.115675 L 92.362290 160.622675 L 92.470290 159.083675 L 92.130590 157.603675 L 91.426590 156.248675 L 90.447490 155.066675 L 89.264990 154.074675" fill="none" stroke="black" stroke-width="1.0" /><path d="M 81.964990 146.774675 L 81.002690 147.483675 L 80.099690 148.260675 L 79.272890 149.123675 L 78.616490 150.119675 L 78.078590 151.176675 L 77.750190 152.325675 L 77.421790 153.475675 L 77.107090 154.627675 L 76.886490 155.802675 L 76.742690 156.987675 L 76.663690 158.180675 L 76.719990 159.374675 L 76.845290 160.560675 L 77.081390 161.732675 L 77.558590 162.819675 L 78.151890 163.851675 L 78.927390 164.761675 L 79.803590 165.566675 L 80.747790 166.297675 L 81.835990 166.792675 L 82.965190 167.155675 L 84.142790 167.361675 L 85.334890 167.338675 L 86.497690 167.153675 L 87.583890 166.654675 L 88.458790 165.868675 L 89.200290 164.943675 L 89.624390 163.826675 L 89.859690 162.665675 L 89.964990 161.474675" fill="none" stroke="black" stroke-width="1.0" /><path d="M 28.664990 146.774675 L 31.195590 148.592675 L 32.971390 151.135675 L 33.907290 154.111675 L 34.251190 157.220675 L 34.046190 160.334675 L 32.936290 163.245675 L 31.016590 165.684675 L 28.390790 167.342675 L 25.357590 167.992675 L 22.358490 167.130675" fill="none" stroke="black" stroke-width="1.0" /><path d="M 22.358490 167.130675 L 19.881690 165.319675 L 18.279590 162.655675 L 17.510890 159.629675 L 17.053290 156.553675 L 17.649890 153.495675 L 19.112390 150.756675 L 21.397790 148.644675 L 24.244290 147.471675 L 27.341190 147.872675 L 29.995590 149.357675" fill="none" stroke="black" stroke-width="1.0" /><path d="M 29.995590 149.357675 L 31.758490 151.913675 L 33.189890 154.679675 L 33.439890 157.790675 L 32.809890 160.827675 L 31.187790 163.474675 L 28.734990 165.385675 L 25.720990 165.909675 L 22.856690 164.742675 L 20.795690 162.463675 L 19.964990 159.474675" fill="none" stroke="black" stroke-width="1.0" /><path d="M 40.664990 80.774575 L 40.219790 80.956975 L 39.772590 81.134075 L 39.322390 81.303575 L 38.870290 81.467875 L 38.420190 81.637375 L 37.980490 81.832475 L 37.610390 82.123475 L 37.297490 82.488075 L 37.029590 82.887575 L 36.890890 83.337575 L 36.817690 83.812975 L 36.757590 84.290275 L 36.750090 84.767575 L 36.810390 85.244875 L 36.916490 85.713775 L 37.051690 86.174075 L 37.238190 86.617475 L 37.430790 87.058375 L 37.632390 87.494675 L 37.886990 87.902775 L 38.153890 88.302875 L 38.431590 88.695675 L 38.734790 89.069075 L 39.045290 89.436375 L 39.367090 89.793975 L 39.763190 90.065175 L 40.170090 90.320975 L 40.601090 90.534575 L 41.032190 90.748075 L 41.463190 90.961675" fill="none" stroke="black" stroke-width="1.0" /><path d="M 41.463190 90.961675 L 41.554490 90.816475 L 41.645690 90.671175 L 41.742290 90.529375 L 41.838890 90.387675 L 41.938090 90.247675 L 42.037390 90.107775 L 42.111590 89.953275 L 42.184790 89.798075 L 42.247890 89.638575 L 42.309690 89.478775 L 42.325890 89.307975 L 42.341090 89.137175 L 42.338190 88.965575 L 42.334690 88.794075 L 42.317090 88.623475 L 42.299090 88.452875 L 42.273290 88.283275 L 42.247490 88.113675 L 42.223890 87.943775 L 42.200390 87.773875 L 42.176890 87.603975 L 42.153290 87.433975 L 42.129790 87.264075 L 42.106290 87.094175 L 42.082690 86.924275 L 42.059190 86.754275 L 42.035590 86.584375 L 42.012090 86.414475 L 41.964990 86.074575" fill="none" stroke="black" stroke-width="1.0" /><path d="M 36.664990 69.474575 L 37.478790 70.542375 L 38.292290 71.610375 L 39.009090 72.745475 L 39.724590 73.881375 L 40.299890 75.094475 L 40.874290 76.307875 L 41.311490 77.577175 L 41.748790 78.846475 L 42.102490 80.141575 L 42.455890 81.436775 L 42.741490 82.748575 L 43.026190 84.060575 L 43.258790 85.382775 L 43.490190 86.705175 L 43.671090 88.035475 L 43.850290 89.365975 L 43.947890 90.704875 L 44.042090 92.044075 L 44.065090 93.386275 L 44.084290 94.728675 L 43.965590 96.065575 L 43.838090 97.401975 L 43.708690 98.738275 L 43.579190 100.074675 L 43.159690 101.346675 L 42.715490 102.613675 L 41.988790 103.739675 L 41.241690 104.854675 L 40.305390 105.816675 L 39.364990 106.774675" fill="none" stroke="black" stroke-width="1.0" /><path d="M 37.964990 70.174575 L 38.965790 71.403175 L 39.952690 72.642075 L 40.841990 73.953575 L 41.691190 75.288975 L 42.421990 76.694975 L 43.088590 78.129675 L 43.647490 79.612375 L 44.149290 81.114175 L 44.592190 82.635675 L 44.968090 84.173975 L 45.301590 85.723075 L 45.534490 87.289275 L 45.730490 88.861675 L 45.834090 90.442375 L 45.921690 92.024575 L 45.876190 93.608275 L 45.781390 95.183675 L 45.256890 96.678975 L 44.670890 98.146575 L 43.898790 99.530275 L 42.987690 100.805675 L 41.836490 101.894675 L 40.577190 102.840675 L 39.217390 103.654675 L 37.840690 104.438675 L 36.454390 105.206675 L 35.083590 106.000675 L 33.717790 106.804675 L 32.355290 107.613675 L 30.993190 108.422675" fill="none" stroke="black" stroke-width="1.0" /><path d="M 213.365390 90.174575 L 212.695390 90.783175 L 212.026390 91.391775 L 211.423390 92.066075 L 210.821390 92.740975 L 210.313390 93.489475 L 209.806390 94.238775 L 209.414390 95.054075 L 209.023390 95.869775 L 208.726390 96.724175 L 208.430390 97.578775 L 208.250390 98.465375 L 208.071390 99.352075 L 207.979390 100.251675 L 207.887390 101.151675 L 207.893390 102.056675 L 207.899390 102.960675 L 208.012390 103.858675 L 208.125390 104.755675 L 208.354390 105.630675 L 208.584390 106.505675 L 208.960390 107.328675 L 209.338390 108.150675 L 209.839390 108.903675 L 210.342390 109.654675 L 210.978390 110.298675 L 211.616390 110.939675 L 212.346390 111.472675 L 213.078390 112.004675 L 214.665390 112.874675" fill="none" stroke="black" stroke-width="1.0" /><path d="M 209.965390 89.474575 L 209.691390 90.103175 L 209.417390 90.731875 L 209.162390 91.368075 L 208.906390 92.004275 L 208.675390 92.649775 L 208.444390 93.295275 L 208.238390 93.949275 L 208.032390 94.603175 L 207.838390 95.260875 L 207.645390 95.918475 L 207.481390 96.584175 L 207.317390 97.249875 L 207.162390 97.917875 L 207.007390 98.585775 L 206.871390 99.257775 L 206.735390 99.929675 L 206.618390 100.605675 L 206.501390 101.280675 L 206.393390 101.957675 L 206.285390 102.634675 L 206.209390 103.316675 L 206.133390 103.997675 L 206.070390 104.680675 L 206.007390 105.362675 L 205.973390 106.047675 L 205.938390 106.732675 L 205.934390 107.418675 L 205.929390 108.103675 L 205.947390 108.789675 L 205.965390 109.474675" fill="none" stroke="black" stroke-width="1.0" /><path d="M 237.965390 88.174575 L 238.595390 89.010275 L 239.225390 89.845975 L 239.763390 90.742975 L 240.293390 91.645175 L 240.700390 92.607975 L 241.086390 93.580775 L 241.354390 94.590275 L 241.589390 95.610175 L 241.757390 96.642175 L 241.895390 97.679575 L 241.976390 98.721975 L 242.020390 99.767575 L 242.014390 100.812675 L 241.960390 101.858675 L 241.877390 102.900675 L 241.753390 103.939675 L 241.583390 104.970675 L 241.323390 105.984675 L 241.058390 106.996675 L 240.784390 108.006675 L 240.487390 109.008675 L 240.079390 109.972675 L 239.655390 110.927675 L 239.063390 111.790675 L 238.468390 112.651675 L 237.608390 113.247675 L 236.748390 113.843675 L 235.722390 113.972675 L 234.679390 114.041675 L 233.672390 113.758675 L 232.665390 113.474675" fill="none" stroke="black" stroke-width="1.0" /><path d="M 239.965390 88.774575 L 240.364390 89.633875 L 240.763390 90.493175 L 241.109390 91.374975 L 241.455390 92.256875 L 241.730390 93.163675 L 242.004390 94.070575 L 242.203390 94.996875 L 242.401390 95.923275 L 242.549390 96.858975 L 242.696390 97.794975 L 242.785390 98.738075 L 242.873390 99.681475 L 242.915390 100.627675 L 242.955390 101.574675 L 242.932390 102.521675 L 242.906390 103.468675 L 242.810390 104.410675 L 242.711390 105.352675 L 242.550390 106.286675 L 242.385390 107.219675 L 242.173390 108.142675 L 241.957390 109.065675 L 241.612390 109.946675 L 241.258390 110.825675 L 240.732390 111.611675 L 240.194390 112.391675 L 239.514390 113.049675 L 238.827390 113.701675 L 238.046390 114.238675 L 237.265390 114.774675" fill="none" stroke="black" stroke-width="1.0" /><path d="M 215.965390 92.774575 L 215.681390 93.461075 L 215.362390 94.131875 L 215.107390 94.824075 L 215.032390 95.559775 L 215.184390 96.283175 L 215.452390 96.976175 L 215.775390 97.640975 L 216.248390 98.208775 L 216.855390 98.628075 L 217.497390 99.002475 L 218.154390 99.340575 L 218.871390 99.370175 L 219.583390 99.159075 L 220.295390 98.947475 L 221.003390 98.724075 L 221.564390 98.258175 L 221.947390 97.621175 L 222.329390 96.984275 L 222.674390 96.327175 L 222.889390 95.618475 L 222.918390 94.876275 L 222.946390 94.133975 L 222.933390 93.392175 L 222.787390 92.666875 L 222.529390 91.971075 L 222.189390 91.310575 L 221.788390 90.689875 L 221.260390 90.170375 L 220.654390 89.743075 L 219.965390 89.474575" fill="none" stroke="black" stroke-width="1.0" /><path d="M 259.365390 124.774675 L 260.515390 121.873675 L 261.270390 118.846675 L 261.504390 115.734675 L 261.134390 112.636675 L 260.308390 109.627675 L 259.104390 106.748675 L 257.591390 104.019675 L 255.826390 101.446675 L 253.764390 99.104175 L 251.699390 96.764275 L 249.393390 94.662075 L 246.946390 92.724775 L 244.369390 90.965875 L 241.664390 89.408975 L 238.826390 88.111675 L 235.869390 87.116575 L 232.830390 86.406775 L 229.741390 85.958875 L 226.627390 85.756475 L 223.507390 85.790175 L 220.398390 86.056575 L 217.318390 86.557375 L 214.286390 87.298775 L 211.328390 88.291275 L 208.473390 89.551875 L 205.763390 91.097875 L 203.243390 92.938475 L 201.008390 95.116475 L 199.062390 97.556275 L 197.365390 100.174675" fill="none" stroke="black" stroke-width="1.0" /><path d="M 259.965390 122.174675 L 259.826390 119.445675 L 259.518390 116.729675 L 259.001390 114.046675 L 258.231390 111.423675 L 257.234390 108.879675 L 256.014390 106.433675 L 254.585390 104.104675 L 252.961390 101.906675 L 251.159390 99.851775 L 249.198390 97.948975 L 247.095390 96.203775 L 244.867390 94.619875 L 242.533390 93.199275 L 240.106390 91.943175 L 237.600390 90.852375 L 235.028390 89.927275 L 232.403390 89.168775 L 229.734390 88.581075 L 227.032390 88.168675 L 224.310390 87.930475 L 221.578390 87.867375 L 218.847390 87.982575 L 216.131390 88.279875 L 213.441390 88.763175 L 210.792390 89.436175 L 208.200390 90.301675 L 205.681390 91.361375 L 203.252390 92.614975 L 200.945390 94.079775 L 198.754390 95.713275 L 196.665390 97.474575" fill="none" stroke="black" stroke-width="1.0" /><path d="M 260.665390 120.774675 L 260.616390 118.806675 L 260.484390 116.844675 L 260.260390 114.889675 L 259.887390 112.957675 L 259.366390 111.060675 L 258.755390 109.191675 L 258.063390 107.348675 L 257.248390 105.556675 L 256.373390 103.795675 L 255.438390 102.063675 L 254.422390 100.377675 L 253.340390 98.733875 L 252.206390 97.125975 L 251.012390 95.561275 L 249.738390 94.061375 L 248.383390 92.637075 L 246.955390 91.281875 L 245.527390 89.927875 L 243.998390 88.693075 L 242.395390 87.553475 L 240.720390 86.519575 L 238.961390 85.639075 L 237.148390 84.882575 L 235.282390 84.257775 L 233.349390 83.887975 L 231.394390 83.713375 L 229.431390 83.732875 L 227.486390 84.033575 L 225.597390 84.572775 L 223.755390 85.257475 L 221.965390 86.074575" fill="none" stroke="black" stroke-width="1.0" /><path d="M 195.965390 109.474675 L 197.980390 108.606675 L 200.073390 107.959675 L 202.227390 107.605675 L 204.416390 107.550675 L 206.599390 107.773675 L 208.766390 108.118675 L 210.919390 108.541675 L 213.063390 109.011675 L 215.203390 109.493675 L 217.323390 110.063675 L 219.435390 110.660675 L 221.539390 111.281675 L 223.637390 111.926675 L 225.726390 112.598675 L 227.806390 113.297675 L 229.881390 114.012675 L 231.951390 114.742675 L 234.015390 115.486675 L 236.072390 116.252675 L 238.123390 117.033675 L 240.169390 117.826675 L 242.211390 118.629675 L 244.247390 119.449675 L 246.277390 120.283675 L 248.301390 121.131675 L 250.319390 121.992675 L 252.331390 122.868675 L 254.321390 123.793675 L 256.294390 124.754675 L 258.252390 125.746675 L 260.195390 126.765675" fill="none" stroke="black" stroke-width="1.0" /><path d="M 197.365390 111.474675 L 199.385390 110.971675 L 201.439390 110.647675 L 203.512390 110.536675 L 205.588390 110.640675 L 207.644390 110.963675 L 209.698390 111.308675 L 211.743390 111.695675 L 213.781390 112.118675 L 215.814390 112.567675 L 217.841390 113.041675 L 219.865390 113.527675 L 221.887390 114.024675 L 223.906390 114.533675 L 225.920390 115.059675 L 227.933390 115.591675 L 229.944390 116.130675 L 231.952390 116.678675 L 233.958390 117.235675 L 235.963390 117.797675 L 237.966390 118.364675 L 239.967390 118.937675 L 241.967390 119.517675 L 243.965390 120.100675 L 245.962390 120.688675 L 247.959390 121.279675 L 249.954390 121.874675 L 251.947390 122.473675 L 253.941390 123.073675 L 255.934390 123.675675 L 257.927390 124.278675" fill="none" stroke="black" stroke-width="1.0" /><path d="M 201.365390 110.174675 L 203.285390 109.940675 L 205.213390 109.817675 L 207.145390 109.818675 L 209.067390 110.041675 L 210.957390 110.439675 L 212.836390 110.900675 L 214.715390 111.361675 L 216.594390 111.824675 L 218.474390 112.277675 L 220.358390 112.717675 L 222.239390 113.169675 L 224.118390 113.630675 L 225.995390 114.101675 L 227.867390 114.589675 L 229.735390 115.092675 L 231.599390 115.610675 L 233.458390 116.145675 L 235.309390 116.706675 L 237.155390 117.285675 L 238.995390 117.884675 L 240.823390 118.517675 L 242.643390 119.172675 L 244.455390 119.849675 L 246.254390 120.561675 L 248.040390 121.303675 L 249.815390 122.073675 L 251.574390 122.879675 L 253.314390 123.724675 L 255.044390 124.589675 L 256.765390 125.474675" fill="none" stroke="black" stroke-width="1.0" /><path d="M 59.964990 108.174675 L 62.080090 108.620675 L 64.204590 109.018675 L 66.338990 109.357675 L 68.483190 109.629675 L 70.636790 109.816675 L 72.793390 109.961675 L 74.951690 110.081675 L 77.110990 110.182675 L 79.270690 110.274675 L 81.429990 110.374675 L 83.588290 110.492675 L 85.745090 110.636675 L 87.899090 110.817675 L 90.047690 111.054675 L 92.192990 111.319675 L 94.336090 111.602675 L 96.478390 111.890675 L 98.622290 112.167675 L 100.771390 112.401675 L 102.921390 112.619675 L 105.073390 112.825675 L 107.231390 112.937675 L 109.393390 112.965675 L 111.552390 112.907675 L 113.708390 112.752675 L 115.851390 112.469675 L 117.951390 111.966675 L 120.005390 111.301675 L 122.009390 110.496675 L 123.965390 109.574675" fill="none" stroke="black" stroke-width="1.0" /><path d="M 121.365390 108.174675 L 119.965390 108.917675 L 118.552390 109.633675 L 117.111390 110.293675 L 115.640390 110.877675 L 114.152390 111.424675 L 112.626390 111.848675 L 111.092390 112.243675 L 109.542390 112.576675 L 107.983390 112.857675 L 106.419390 113.111675 L 104.846390 113.298675 L 103.270390 113.464675 L 101.691390 113.589675 L 100.108390 113.674675 L 98.525590 113.739675 L 96.940990 113.746675 L 95.356690 113.734675 L 93.772890 113.683675 L 92.191390 113.590675 L 90.610890 113.475675 L 89.037290 113.289675 L 87.466890 113.080675 L 85.903090 112.824675 L 84.349190 112.516675 L 82.800190 112.182675 L 81.279590 111.736675 L 79.770590 111.255675 L 78.284690 110.705675 L 76.819690 110.102675 L 75.364990 109.474675" fill="none" stroke="black" stroke-width="1.0" /><path d="M 191.965390 178.174675 L 192.840390 177.927675 L 193.724390 177.723675 L 194.630390 177.640675 L 195.531390 177.674675 L 196.428390 177.826675 L 197.294390 178.091675 L 198.144390 178.416675 L 198.970390 178.796675 L 199.786390 179.197675 L 200.588390 179.625675 L 201.387390 180.061675 L 202.167390 180.529675 L 202.944390 181.002675 L 203.707390 181.498675 L 204.468390 181.996675 L 205.222390 182.506675 L 205.974390 183.017675 L 206.711390 183.550675 L 207.446390 184.086675 L 208.170390 184.637675 L 208.890390 185.192675 L 209.595390 185.768675 L 210.289390 186.355675 L 210.955390 186.975675 L 211.592390 187.622675 L 212.172390 188.323675 L 212.703390 189.059675 L 213.172390 189.838675 L 213.585390 190.647675 L 213.965390 191.474675" fill="none" stroke="black" stroke-width="1.0" /><path d="M 195.965390 176.774675 L 196.726390 176.727675 L 197.487390 176.690675 L 198.246390 176.764675 L 198.998390 176.869675 L 199.723390 177.107675 L 200.434390 177.377675 L 201.105390 177.739675 L 201.772390 178.109675 L 202.422390 178.507675 L 203.068390 178.913675 L 203.698390 179.342675 L 204.325390 179.776675 L 204.940390 180.226675 L 205.554390 180.680675 L 206.156390 181.147675 L 206.757390 181.616675 L 207.353390 182.092675 L 207.949390 182.569675 L 208.538390 183.052675 L 209.127390 183.537675 L 209.706390 184.034675 L 210.284390 184.532675 L 210.852390 185.040675 L 211.420390 185.549675 L 211.975390 186.072675 L 212.529390 186.595675 L 213.069390 187.134675 L 213.608390 187.674675 L 214.137390 188.224675 L 214.665390 188.774675" fill="none" stroke="black" stroke-width="1.0" /><path d="M 60.664990 276.774675 L 61.364890 277.913675 L 62.061290 279.055675 L 62.732890 280.211675 L 63.395790 281.372675 L 64.032290 282.548675 L 64.651690 283.733675 L 65.242390 284.933675 L 65.809990 286.143675 L 66.354390 287.365675 L 66.867690 288.599675 L 67.362090 289.842675 L 67.816990 291.099675 L 68.258690 292.361675 L 68.652490 293.639675 L 69.039490 294.919675 L 69.371190 296.214675 L 69.695990 297.511675 L 69.972890 298.820675 L 70.236290 300.130675 L 70.459690 301.449675 L 70.663090 302.770675 L 70.833490 304.096675 L 70.978190 305.426675 L 71.097190 306.757675 L 71.187390 308.091675 L 71.260290 309.427675 L 71.306790 310.763675 L 71.344390 312.100675 L 71.356490 313.437675 L 71.364990 314.774675" fill="none" stroke="black" stroke-width="1.0" /><path d="M 63.964990 499.474675 L 64.469190 494.526675 L 65.472590 489.657675 L 67.112590 484.969675 L 69.372290 480.549675 L 71.999890 476.330675 L 74.847990 472.254675 L 77.821390 468.268675 L 80.793990 464.281675 L 83.525690 460.135675 L 85.874290 455.753675 L 87.914890 451.227675 L 89.346690 446.471675 L 90.150290 441.565675 L 90.420690 436.599675 L 90.228390 431.630675 L 89.743790 426.681675 L 89.125490 421.746675 L 88.441090 416.820675 L 87.619990 411.916675 L 86.641190 407.040675 L 85.494490 402.202675 L 84.160390 397.412675 L 82.598690 392.693675 L 80.811490 388.052675 L 78.921290 383.452675 L 76.918490 378.900675 L 74.958490 374.329675 L 73.286090 369.645675 L 72.276190 364.778675 L 71.459290 359.873675 L 71.318590 354.912675 L 71.481490 349.942675 L 71.682290 344.973675 L 71.835490 340.002675 L 71.906990 335.029675 L 71.863790 330.057675 L 71.673690 325.088675 L 71.286290 320.131675 L 70.618290 315.204675 L 69.691890 310.318675 L 68.564990 305.474675" fill="none" stroke="black" stroke-width="1.0" /><path d="M 65.964990 289.474675 L 66.752390 294.395675 L 67.566290 299.312675 L 68.543290 304.199675 L 69.309990 309.123675 L 69.992090 314.059675 L 70.585590 319.008675 L 71.050890 323.969675 L 71.371790 328.942675 L 71.569590 333.922675 L 71.700890 338.904675 L 71.810790 343.886675 L 71.937190 348.868675 L 72.120990 353.848675 L 72.398290 358.824675 L 72.807390 363.790675 L 73.387690 368.739675 L 74.163090 373.661675 L 75.171690 378.540675 L 76.473190 383.348675 L 78.016890 388.085675 L 79.694790 392.778675 L 81.481090 397.430675 L 83.336690 402.055675 L 85.178190 406.686675 L 86.945290 411.346675 L 88.577690 416.054675 L 90.004090 420.827675 L 91.140690 425.676675 L 91.910690 430.596675 L 92.229790 435.563675 L 91.949590 440.525675 L 91.029990 445.422675 L 89.756590 450.231675 L 87.832190 454.818675 L 85.248790 459.069675 L 82.113490 462.939675 L 78.715290 466.585675 L 75.390790 470.294675 L 72.472890 474.323675 L 70.392290 478.847675 L 68.889590 483.599675 L 67.335590 488.334675 L 65.439590 492.943675 L 63.364990 497.474675" fill="none" stroke="black" stroke-width="1.0" /><path d="M 71.964990 313.474675 L 71.234190 317.395675 L 70.752790 321.353675 L 70.606090 325.338675 L 70.736690 329.325675 L 70.952190 333.308675 L 71.161590 337.291675 L 71.262190 341.277675 L 71.238690 345.266675 L 71.253790 349.254675 L 71.424790 353.238675 L 71.750390 357.213675 L 72.212390 361.174675 L 72.799990 365.119675 L 73.493990 369.047675 L 74.291690 372.954675 L 75.204190 376.837675 L 76.219690 380.694675 L 77.316890 384.528675 L 78.478590 388.344675 L 79.682590 392.147675 L 80.906190 395.943675 L 82.127990 399.740675 L 83.326790 403.544675 L 84.480990 407.362675 L 85.562790 411.201675 L 86.558190 415.063675 L 87.448590 418.951675 L 88.181690 422.871675 L 88.778490 426.815675 L 89.264990 430.774675" fill="none" stroke="black" stroke-width="1.0" /><path d="M 85.964990 502.774675 L 86.328690 501.877675 L 86.692290 500.979675 L 87.055790 500.082675 L 87.419390 499.185675 L 87.781290 498.287675 L 88.143090 497.389675 L 88.507690 496.492675 L 88.872490 495.595675 L 89.247990 494.703675 L 89.624190 493.810675 L 90.020590 492.927675 L 90.418790 492.045675 L 90.839890 491.173675 L 91.263490 490.302675 L 91.714390 489.446675 L 92.168590 488.591675 L 92.643190 487.747675 L 93.120790 486.905675 L 93.598290 486.062675 L 94.075890 485.220675 L 94.634490 484.431675 L 95.208190 483.651675 L 95.880790 482.957675 L 96.574090 482.281675 L 97.361890 481.723675 L 98.170090 481.190675 L 99.061090 480.817675 L 99.964390 480.468675 L 100.908390 480.257675 L 101.855390 480.053675" fill="none" stroke="black" stroke-width="1.0" /><path d="M 87.364990 504.774675 L 87.498390 503.801675 L 87.631790 502.828675 L 87.809290 501.863675 L 87.986890 500.897675 L 88.220790 499.943675 L 88.454790 498.990675 L 88.749990 498.053675 L 89.045090 497.117675 L 89.385890 496.196675 L 89.726590 495.275675 L 90.120690 494.376675 L 90.514890 493.476675 L 90.945890 492.594675 L 91.377090 491.712675 L 91.844090 490.848675 L 92.311190 489.985675 L 92.813390 489.141675 L 93.315790 488.297675 L 93.853090 487.475675 L 94.390690 486.654675 L 94.978190 485.867675 L 95.566190 485.081675 L 96.196790 484.328675 L 96.827890 483.576675 L 97.518690 482.878675 L 98.210190 482.181675 L 98.957590 481.544675 L 99.705390 480.908675 L 101.278390 479.732675" fill="none" stroke="black" stroke-width="1.0" /><path d="M 101.855390 480.053675 L 101.783390 480.933675 L 101.712390 481.814675 L 101.627390 482.693675 L 101.542390 483.572675 L 101.438390 484.449675 L 101.335390 485.326675 L 101.216390 486.202675 L 101.097390 487.077675 L 100.987390 487.953675 L 100.876390 488.830675 L 100.775390 489.707675 L 100.673390 490.584675 L 100.619390 491.466675 L 100.565390 492.348675 L 100.550390 493.231675 L 100.535390 494.114675 L 100.561390 494.997675 L 100.587390 495.880675 L 100.722390 496.752675 L 100.858390 497.625675 L 101.062390 498.485675 L 101.266390 499.344675 L 101.537390 500.185675 L 101.808390 501.025675 L 102.220390 501.807675 L 102.633390 502.588675 L 103.110390 503.331675 L 103.587390 504.074675 L 104.665390 505.474675" fill="none" stroke="black" stroke-width="1.0" /><path d="M 101.278390 479.732675 L 101.281390 480.657675 L 101.284390 481.582675 L 101.279390 482.507675 L 101.273390 483.432675 L 101.257390 484.357675 L 101.240390 485.282675 L 101.214390 486.207675 L 101.189390 487.131675 L 101.170390 488.056675 L 101.150390 488.981675 L 101.141390 489.906675 L 101.132390 490.831675 L 101.135390 491.756675 L 101.138390 492.681675 L 101.163390 493.606675 L 101.188390 494.530675 L 101.244390 495.454675 L 101.300390 496.377675 L 101.388390 497.298675 L 101.477390 498.219675 L 101.603390 499.135675 L 101.731390 500.051675 L 101.937390 500.953675 L 102.145390 501.854675 L 102.469390 502.720675 L 102.795390 503.586675 L 103.224390 504.405675 L 103.654390 505.224675 L 104.159390 505.999675 L 104.665390 506.774675" fill="none" stroke="black" stroke-width="1.0" /><path d="M 137.965390 504.174675 L 139.137390 499.458675 L 140.640390 494.838675 L 142.566390 490.380675 L 144.900390 486.122675 L 147.455390 481.990675 L 150.133390 477.936675 L 152.871390 473.921675 L 155.613390 469.910675 L 158.314390 465.871675 L 160.929390 461.776675 L 163.413390 457.600675 L 165.718390 453.324675 L 167.782390 448.927675 L 169.538390 444.399675 L 170.866390 439.725675 L 171.937390 434.985675 L 172.645390 430.178675 L 172.932390 425.329675 L 172.817390 420.474675 L 172.232390 415.655675 L 171.116390 410.934675 L 169.439390 406.384675 L 167.254390 402.053675 L 164.681390 397.935675 L 161.808390 394.021675 L 158.650390 390.333675 L 155.148390 386.983675 L 151.258390 384.070675 L 147.353390 381.178675 L 143.525390 378.195675 L 140.235390 374.620675 L 137.265390 370.774675" fill="none" stroke="black" stroke-width="1.0" /><path d="M 146.665390 376.174675 L 150.610390 379.052675 L 154.384390 382.151675 L 157.928390 385.511675 L 161.167390 389.165675 L 164.173390 393.014675 L 166.910390 397.058675 L 169.367390 401.279675 L 171.505390 405.669675 L 173.248390 410.231675 L 174.545390 414.939675 L 175.254390 419.770675 L 175.169390 424.653675 L 175.081390 429.536675 L 174.331390 434.361675 L 173.183390 439.108675 L 171.695390 443.759675 L 169.889390 448.296675 L 167.837390 452.727675 L 165.592390 457.064675 L 163.180390 461.310675 L 160.661390 465.494675 L 158.064390 469.630675 L 155.425390 473.738675 L 152.777390 477.841675 L 150.153390 481.960675 L 147.587390 486.115675 L 145.111390 490.324675 L 142.809390 494.631675 L 140.673390 499.022675 L 138.665390 503.474675" fill="none" stroke="black" stroke-width="1.0" /><path d="M 172.665390 406.174675 L 173.347390 409.651675 L 173.862390 413.157675 L 174.163390 416.687675 L 174.232390 420.229675 L 174.121390 423.771675 L 173.838390 427.302675 L 173.401390 430.818675 L 172.829390 434.315675 L 172.131390 437.789675 L 171.321390 441.238675 L 170.418390 444.665675 L 169.443390 448.071675 L 168.409390 451.461675 L 167.316390 454.831675 L 166.164390 458.182675 L 164.948390 461.511675 L 163.670390 464.815675 L 162.327390 468.094675 L 160.915390 471.345675 L 159.431390 474.562675 L 157.868390 477.742675 L 156.221390 480.879675 L 154.482390 483.966675 L 152.638390 486.992675 L 150.675390 489.942675 L 148.587390 492.804675 L 146.359390 495.559675 L 143.950390 498.157675 L 141.370390 500.585675 L 138.665390 502.874675" fill="none" stroke="black" stroke-width="1.0" /><path d="M 114.665390 344.174675 L 118.025390 345.216675 L 121.363390 346.329675 L 124.669390 347.532675 L 127.937390 348.835675 L 131.170390 350.224675 L 134.363390 351.700675 L 137.520390 353.254675 L 140.638390 354.883675 L 143.716390 356.587675 L 146.752390 358.364675 L 149.744390 360.216675 L 152.686390 362.145675 L 155.575390 364.152675 L 158.410390 366.236675 L 161.185390 368.398675 L 163.893390 370.643675 L 166.521390 372.982675 L 169.050390 375.428675 L 171.474390 377.976675 L 173.800390 380.615675 L 176.034390 383.333675 L 178.179390 386.122675 L 180.236390 388.975675 L 182.216390 391.884675 L 184.149390 394.824675 L 186.077390 397.767675 L 187.966390 400.735675 L 189.712390 403.789675 L 191.262390 406.947675 L 192.665390 410.174675" fill="none" stroke="black" stroke-width="1.0" /><path d="M 116.665390 342.174675 L 119.905390 343.472675 L 123.097390 344.886675 L 126.219390 346.448675 L 129.262390 348.159675 L 132.241390 349.978675 L 135.162390 351.890675 L 138.032390 353.878675 L 140.856390 355.930675 L 143.640390 358.036675 L 146.387390 360.191675 L 149.101390 362.387675 L 151.785390 364.619675 L 154.443390 366.882675 L 157.079390 369.172675 L 159.697390 371.481675 L 162.303390 373.804675 L 164.897390 376.140675 L 167.471390 378.499675 L 170.014390 380.891675 L 172.513390 383.328675 L 174.959390 385.819675 L 177.339390 388.373675 L 179.644390 390.994675 L 181.859390 393.692675 L 183.966390 396.475675 L 185.957390 399.343675 L 187.827390 402.291675 L 189.556390 405.323675 L 191.161390 408.423675 L 192.665390 411.574675" fill="none" stroke="black" stroke-width="1.0" /><path d="M 155.365390 296.174675 L 159.011390 298.550675 L 162.553390 301.080675 L 165.949390 303.800675 L 169.192390 306.703675 L 172.310390 309.739675 L 175.320390 312.882675 L 178.222390 316.126675 L 181.024390 319.456675 L 183.727390 322.867675 L 186.329390 326.355675 L 188.828390 329.919675 L 191.213390 333.559675 L 193.482390 337.273675 L 195.650390 341.046675 L 197.734390 344.867675 L 199.740390 348.730675 L 201.668390 352.631675 L 203.519390 356.570675 L 205.295390 360.544675 L 206.993390 364.551675 L 208.617390 368.589675 L 210.163390 372.658675 L 211.637390 376.753675 L 213.036390 380.874675 L 214.361390 385.020675 L 215.612390 389.189675 L 216.789390 393.379675 L 217.795390 397.613675 L 218.644390 401.882675 L 219.365390 406.174675" fill="none" stroke="black" stroke-width="1.0" /><path d="M 157.965390 294.174675 L 160.559390 297.542675 L 163.271390 300.817675 L 166.139390 303.956675 L 169.110390 306.998675 L 172.085390 310.036675 L 174.997390 313.133675 L 177.782390 316.345675 L 180.389390 319.702675 L 182.819390 323.190675 L 185.083390 326.788675 L 187.217390 330.465675 L 189.261390 334.194675 L 191.250390 337.952675 L 193.214390 341.723675 L 195.167390 345.500675 L 197.114390 349.280675 L 199.052390 353.065675 L 200.978390 356.856675 L 202.886390 360.655675 L 204.775390 364.465675 L 206.637390 368.287675 L 208.470390 372.124675 L 210.270390 375.976675 L 212.032390 379.845675 L 213.753390 383.733675 L 215.426390 387.642675 L 217.049390 391.573675 L 218.573390 395.542675 L 220.005390 399.545675 L 221.365390 403.574675" fill="none" stroke="black" stroke-width="1.0" /><path d="M 165.365390 296.774675 L 167.973390 299.846675 L 170.527390 302.963675 L 173.014390 306.134675 L 175.414390 309.371675 L 177.742390 312.660675 L 179.999390 315.998675 L 182.179390 319.387675 L 184.290390 322.820675 L 186.332390 326.294675 L 188.303390 329.809675 L 190.210390 333.359675 L 192.053390 336.942675 L 193.835390 340.556675 L 195.560390 344.198675 L 197.230390 347.866675 L 198.848390 351.557675 L 200.418390 355.268675 L 201.941390 358.999675 L 203.410390 362.751675 L 204.822390 366.526675 L 206.183390 370.318675 L 207.513390 374.122675 L 208.832390 377.930675 L 210.159390 381.735675 L 211.513390 385.531675 L 212.910390 389.311675 L 214.374390 393.065675 L 215.944390 396.777675 L 217.615390 400.444675 L 219.365390 404.074675" fill="none" stroke="black" stroke-width="1.0" /><path d="M 259.581390 481.123675 L 259.698390 481.735675 L 259.816390 482.347675 L 259.903390 482.963675 L 259.989390 483.580675 L 260.016390 484.203675 L 260.043390 484.825675 L 260.026390 485.448675 L 260.008390 486.070675 L 259.981390 486.693675 L 259.954390 487.315675 L 259.889390 487.935675 L 259.824390 488.554675 L 259.748390 489.172675 L 259.672390 489.791675 L 259.576390 490.406675 L 259.479390 491.022675 L 259.368390 491.634675 L 259.256390 492.247675 L 259.133390 492.858675 L 259.011390 493.469675 L 258.869390 494.075675 L 258.727390 494.682675 L 258.579390 495.287675 L 258.431390 495.892675 L 258.267390 496.493675 L 258.103390 497.094675 L 257.923390 497.690675 L 257.743390 498.287675 L 257.554390 498.880675 L 257.365390 499.474675" fill="none" stroke="black" stroke-width="1.0" /><path d="M 260.609390 481.017675 L 260.728390 481.700675 L 260.847390 482.384675 L 260.940390 483.071675 L 261.033390 483.759675 L 261.080390 484.452675 L 261.126390 485.144675 L 261.157390 485.837675 L 261.188390 486.530675 L 261.182390 487.224675 L 261.176390 487.918675 L 261.156390 488.612675 L 261.135390 489.306675 L 261.091390 489.998675 L 261.047390 490.691675 L 260.986390 491.382675 L 260.925390 492.073675 L 260.847390 492.763675 L 260.769390 493.452675 L 260.667390 494.139675 L 260.566390 494.825675 L 260.450390 495.509675 L 260.335390 496.194675 L 260.179390 496.870675 L 260.023390 497.546675 L 259.849390 498.218675 L 259.674390 498.889675 L 259.439390 499.542675 L 259.203390 500.195675 L 258.934390 500.834675 L 258.665390 501.474675" fill="none" stroke="black" stroke-width="1.0" /><path d="M 250.665390 417.474675 L 251.742390 414.313675 L 252.754390 411.130675 L 253.669390 407.919675 L 254.508390 404.686675 L 255.339390 401.452675 L 256.191390 398.223675 L 257.091390 395.007675 L 258.074390 391.816675 L 259.185390 388.666675 L 260.481390 385.588675 L 261.891390 382.561675 L 263.408390 379.586675 L 265.024390 376.664675 L 266.731390 373.794675 L 268.523390 370.976675 L 270.391390 368.207675 L 272.327390 365.486675 L 274.327390 362.812675 L 276.382390 360.179675 L 278.530390 357.623675 L 280.931390 355.302675 L 283.337390 352.986675 L 285.828390 350.762675 L 288.334390 348.555675 L 290.839390 346.346675 L 293.328390 344.120675 L 295.783390 341.856675 L 298.071390 339.424675 L 300.149390 336.809675 L 302.065390 334.074675" fill="none" stroke="black" stroke-width="1.0" /><path d="M 256.665390 406.774675 L 257.116390 403.966675 L 257.655390 401.174675 L 258.302390 398.405675 L 259.066390 395.665675 L 259.920390 392.953675 L 260.852390 390.266675 L 261.855390 387.605675 L 262.917390 384.967675 L 264.031390 382.350675 L 265.189390 379.753675 L 266.383390 377.172675 L 267.605390 374.604675 L 268.853390 372.048675 L 270.142390 369.513675 L 271.517390 367.025675 L 273.022390 364.613675 L 274.659390 362.289675 L 276.412390 360.050675 L 278.260390 357.889675 L 280.180390 355.791675 L 282.152390 353.742675 L 284.158390 351.727675 L 286.181390 349.727675 L 288.202390 347.727675 L 290.204390 345.707675 L 292.168390 343.650675 L 294.075390 341.541675 L 295.892390 339.353675 L 297.616390 337.091675 L 299.265390 334.774675" fill="none" stroke="black" stroke-width="1.0" /><path d="M 361.365390 346.174675 L 356.439390 345.422675 L 351.462390 345.237675 L 346.514390 345.802675 L 341.670390 346.973675 L 336.895390 348.399675 L 332.181390 350.017675 L 327.524390 351.790675 L 322.915390 353.689675 L 318.328390 355.637675 L 313.746390 357.598675 L 309.178390 359.592675 L 304.637390 361.646675 L 300.139390 363.793675 L 295.700390 366.058675 L 291.339390 368.470675 L 287.084390 371.063675 L 282.964390 373.865675 L 279.022390 376.910675 L 275.308390 380.229675 L 271.851390 383.814675 L 268.636390 387.620675 L 265.631390 391.595675 L 262.805390 395.699675 L 260.143390 399.912675 L 257.641390 404.222675 L 255.287390 408.614675 L 253.075390 413.080675 L 251.009390 417.616675 L 249.085390 422.213675 L 247.311390 426.870675 L 245.721390 431.593675 L 244.432390 436.406675 L 243.478390 441.297675 L 243.115390 446.265675 L 243.356390 451.241675 L 244.065390 456.174675" fill="none" stroke="black" stroke-width="1.0" /><path d="M 362.665390 342.174675 L 357.676390 342.396675 L 352.702390 342.835675 L 347.761390 343.549675 L 342.870390 344.558675 L 338.027390 345.771675 L 333.230390 347.159675 L 328.485390 348.714675 L 323.789390 350.410675 L 319.144390 352.242675 L 314.553390 354.208675 L 310.020390 356.301675 L 305.552390 358.530675 L 301.165390 360.914675 L 296.865390 363.452675 L 292.661390 366.145675 L 288.566390 369.001675 L 284.586390 372.015675 L 280.730390 375.187675 L 277.013390 378.520675 L 273.441390 382.008675 L 270.023390 385.647675 L 266.772390 389.435675 L 263.695390 393.367675 L 260.803390 397.436675 L 258.134390 401.655675 L 255.714390 406.020675 L 253.549390 410.519675 L 251.650390 415.135675 L 249.998390 419.847675 L 248.576390 424.633675 L 247.374390 429.479675 L 246.356390 434.367675 L 245.380390 439.264675 L 244.783390 444.220675 L 244.834390 449.209675 L 245.365390 454.174675" fill="none" stroke="black" stroke-width="1.0" /><path d="M 281.965390 374.174675 L 284.108390 371.552675 L 286.308390 368.979675 L 288.581390 366.469675 L 290.931390 364.032675 L 293.342390 361.654675 L 295.806390 359.332675 L 298.314390 357.057675 L 300.857390 354.822675 L 303.429390 352.619675 L 306.024390 350.445675 L 308.649390 348.306675 L 311.328390 346.237675 L 314.085390 344.272675 L 316.922390 342.425675 L 319.835390 340.699675 L 322.815390 339.095675 L 325.858390 337.612675 L 328.954390 336.242675 L 332.093390 334.972675 L 335.265390 333.789675 L 338.465390 332.682675 L 341.686390 331.639675 L 344.922390 330.642675 L 348.167390 329.673675 L 351.416390 328.720675 L 354.664390 327.765675 L 357.908390 326.793675 L 361.142390 325.791675 L 364.360390 324.737675 L 367.561390 323.634675 L 370.749390 322.494675" fill="none" stroke="black" stroke-width="1.0" /><path d="M 285.365390 368.174675 L 287.594390 365.286675 L 289.955390 362.505675 L 292.478390 359.870675 L 295.164390 357.401675 L 297.973390 355.074675 L 300.877390 352.866675 L 303.857390 350.762675 L 306.900390 348.749675 L 309.996390 346.818675 L 313.135390 344.959675 L 316.309390 343.161675 L 319.510390 341.410675 L 322.730390 339.695675 L 325.966390 338.009675 L 329.224390 336.367675 L 332.518390 334.799675 L 335.852390 333.318675 L 339.224390 331.925675 L 342.629390 330.616675 L 346.065390 329.387675 L 349.524390 328.227675 L 353.002390 327.127675 L 356.497390 326.079675 L 360.005390 325.078675 L 363.524390 324.112675 L 367.048390 323.170675 L 370.572390 322.225675 L 374.050390 321.124675 L 377.443390 319.783675 L 380.765390 318.274675" fill="none" stroke="black" stroke-width="1.0" /><path d="M 244.665390 452.774675 L 243.639390 454.025675 L 242.619390 455.282675 L 241.611390 456.547675 L 240.619390 457.826675 L 239.636390 459.112675 L 238.676390 460.414675 L 237.722390 461.721675 L 236.777390 463.035675 L 235.844390 464.356675 L 234.916390 465.682675 L 234.006390 467.020675 L 233.104390 468.363675 L 232.211390 469.713675 L 231.332390 471.072675 L 230.459390 472.434675 L 229.606390 473.809675 L 228.769390 475.194675 L 227.946390 476.587675 L 227.148390 477.995675 L 226.362390 479.409675 L 225.601390 480.837675 L 224.878390 482.285675 L 224.180390 483.745675 L 223.577390 485.246675 L 222.987390 486.753675 L 222.416390 488.267675 L 222.113390 489.845675 L 221.971390 491.452675 L 222.268390 493.043675 L 222.740390 494.581675 L 223.365390 496.074675" fill="none" stroke="black" stroke-width="1.0" /><path d="M 244.665390 450.174675 L 243.416390 451.533675 L 242.182390 452.905675 L 240.964390 454.290675 L 239.784390 455.709675 L 238.627390 457.146675 L 237.494390 458.603675 L 236.403390 460.091675 L 235.334390 461.595675 L 234.287390 463.114675 L 233.286390 464.664675 L 232.309390 466.230675 L 231.358390 467.811675 L 230.459390 469.422675 L 229.589390 471.049675 L 228.749390 472.692675 L 227.972390 474.366675 L 227.230390 476.055675 L 226.522390 477.759675 L 225.837390 479.473675 L 225.138390 481.181675 L 224.425390 482.882675 L 223.723390 484.589675 L 223.057390 486.309675 L 222.433390 488.046675 L 221.809390 489.782675 L 221.288390 491.549675 L 220.886390 493.350675 L 220.719390 495.187675 L 220.646390 497.029675 L 220.665390 498.874675" fill="none" stroke="black" stroke-width="1.0" /><path d="M 248.665390 498.174675 L 248.695390 497.480675 L 248.726390 496.786675 L 248.830390 496.099675 L 248.936390 495.413675 L 249.165390 494.757675 L 249.394390 494.101675 L 249.658390 493.459675 L 249.923390 492.817675 L 250.255390 492.206675 L 250.586390 491.596675 L 250.944390 491.001675 L 251.302390 490.405675 L 251.700390 489.836675 L 252.098390 489.267675 L 252.499390 488.699675 L 252.899390 488.132675 L 253.303390 487.566675 L 253.706390 487.001675 L 254.142390 486.460675 L 254.578390 485.919675 L 255.033390 485.394675 L 255.487390 484.869675 L 255.969390 484.369675 L 256.451390 483.868675 L 256.944390 483.379675 L 257.437390 482.890675 L 257.964390 482.437675 L 258.491390 481.984675 L 259.581390 481.123675" fill="none" stroke="black" stroke-width="1.0" /><path d="M 247.965390 500.174675 L 248.185390 499.415675 L 248.406390 498.656675 L 248.644390 497.903675 L 248.882390 497.149675 L 249.141390 496.402675 L 249.400390 495.655675 L 249.685390 494.918675 L 249.970390 494.181675 L 250.268390 493.449675 L 250.566390 492.717675 L 250.931390 492.016675 L 251.296390 491.315675 L 251.661390 490.615675 L 252.026390 489.914675 L 252.392390 489.213675 L 252.757390 488.512675 L 253.177390 487.843675 L 253.597390 487.174675 L 254.044390 486.522675 L 254.492390 485.870675 L 255.008390 485.272675 L 255.525390 484.674675 L 256.071390 484.103675 L 256.617390 483.532675 L 257.225390 483.027675 L 257.834390 482.523675 L 258.508390 482.111675 L 259.183390 481.700675 L 259.896390 481.358675 L 260.609390 481.017675" fill="none" stroke="black" stroke-width="1.0" /><path d="M 299.965390 502.174675 L 300.878390 498.849675 L 301.866390 495.545675 L 302.947390 492.270675 L 304.137390 489.033675 L 305.425390 485.834675 L 306.812390 482.677675 L 308.302390 479.568675 L 309.890390 476.507675 L 311.575390 473.498675 L 313.355390 470.545675 L 315.232390 467.653675 L 317.206390 464.826675 L 319.281390 462.072675 L 321.468390 459.407675 L 323.756390 456.827675 L 326.137390 454.334675 L 328.652390 451.977675 L 331.293390 449.761675 L 333.975390 447.593675 L 336.656390 445.423675 L 339.322390 443.236675 L 341.968390 441.024675 L 344.584390 438.777675 L 347.162390 436.487675 L 349.685390 434.136675 L 352.086390 431.660675 L 354.455390 429.155675 L 356.286390 426.234675 L 357.412390 422.977675 L 357.965390 419.574675" fill="none" stroke="black" stroke-width="1.0" /><path d="M 359.365390 419.474675 L 357.797390 422.601675 L 355.988390 425.594675 L 353.876390 428.381675 L 351.487390 430.934675 L 348.945390 433.336675 L 346.314390 435.640675 L 343.629390 437.882675 L 340.921390 440.096675 L 338.210390 442.305675 L 335.535390 444.559675 L 332.909390 446.870675 L 330.322390 449.223675 L 327.770390 451.615675 L 325.259390 454.051675 L 322.797390 456.535675 L 320.389390 459.072675 L 318.038390 461.661675 L 315.751390 464.308675 L 313.536390 467.014675 L 311.404390 469.787675 L 309.370390 472.632675 L 307.445390 475.552675 L 305.640390 478.547675 L 303.969390 481.619675 L 302.451390 484.770675 L 301.114390 488.001675 L 300.001390 491.316675 L 299.146390 494.707675 L 298.522390 498.149675 L 298.084390 501.619675" fill="none" stroke="black" stroke-width="1.0" /><path d="M 358.665390 420.774675 L 361.439390 418.832675 L 364.301390 417.023675 L 367.279390 415.412675 L 370.311390 413.903675 L 373.285390 412.286675 L 376.126390 410.447675 L 378.822390 408.399675 L 381.404390 406.209675 L 383.887390 403.907675 L 386.275390 401.507675 L 388.568390 399.015675 L 390.754390 396.430675 L 392.793390 393.729675 L 394.623390 390.883675 L 396.214390 387.896675 L 397.578390 384.799675 L 398.747390 381.622675 L 399.743390 378.386675 L 400.580390 375.106675 L 401.267390 371.790675 L 401.812390 368.449675 L 402.230390 365.089675 L 402.549390 361.718675 L 402.814390 358.342675 L 403.043390 354.963675 L 403.232390 351.582675 L 403.365390 348.198675 L 403.321390 344.813675 L 403.071390 341.436675 L 402.665390 338.074675" fill="none" stroke="black" stroke-width="1.0" /><path d="M 404.665390 340.174675 L 405.187390 343.487675 L 405.525390 346.824675 L 405.623390 350.176675 L 405.484390 353.528675 L 405.194390 356.869675 L 404.782390 360.198675 L 404.270390 363.513675 L 403.677390 366.814675 L 403.014390 370.102675 L 402.279390 373.375675 L 401.426390 376.618675 L 400.397390 379.809675 L 399.187390 382.937675 L 397.812390 385.995675 L 396.283390 388.979675 L 394.602390 391.881675 L 392.766390 394.687675 L 390.759390 397.372675 L 388.555390 399.898675 L 386.161390 402.244675 L 383.662390 404.481675 L 381.114390 406.663675 L 378.526390 408.796675 L 375.890390 410.870675 L 373.203390 412.878675 L 370.457390 414.804675 L 367.634390 416.614675 L 364.580390 417.984675 L 361.312390 418.701675 L 357.965390 418.874675" fill="none" stroke="black" stroke-width="1.0" /><path d="M 403.365390 199.474675 L 399.862390 203.014675 L 396.827390 206.960675 L 394.485390 211.353675 L 392.814390 216.045675 L 391.343390 220.803675 L 390.145390 225.637675 L 389.328390 230.549675 L 388.824390 235.504675 L 388.611390 240.480675 L 388.686390 245.459675 L 388.990390 250.431675 L 389.508390 255.384675 L 390.240390 260.310675 L 391.153390 265.206675 L 392.253390 270.064675 L 393.536390 274.876675 L 394.981390 279.642675 L 396.576390 284.361675 L 398.313390 289.028675 L 400.161390 293.653675 L 402.104390 298.239675 L 404.128390 302.790675 L 406.207390 307.316675 L 408.328390 311.822675 L 410.507390 316.301675 L 412.736390 320.754675 L 415.003390 325.189675 L 417.291390 329.613675 L 419.581390 334.036675 L 421.856390 338.466675 L 424.099390 342.914675 L 426.292390 347.385675 L 428.377390 351.908675 L 430.461390 356.432675 L 432.402390 361.019675 L 434.226390 365.653675 L 435.908390 370.341675 L 437.477390 375.068675 L 438.977390 379.817675 L 440.398390 384.591675 L 441.736390 389.388675 L 442.974390 394.213675 L 444.093390 399.066675 L 445.089390 403.946675 L 445.938390 408.853675 L 446.623390 413.786675 L 447.136390 418.740675 L 447.448390 423.711675 L 447.611390 428.689675 L 447.666390 433.669675 L 447.605390 438.649675 L 447.425390 443.627675 L 447.129390 448.598675 L 446.761390 453.565675 L 446.357390 458.529675 L 445.494390 463.434675 L 443.994390 468.182675 L 442.065390 472.774675" fill="none" stroke="black" stroke-width="1.0" /><path d="M 403.965390 199.474675 L 401.070390 202.668675 L 398.503390 206.131675 L 396.425390 209.908675 L 394.818390 213.907675 L 393.561390 218.031675 L 392.571390 222.226675 L 391.798390 226.467675 L 391.251390 230.743675 L 390.881390 235.037675 L 390.695390 239.344675 L 390.681390 243.655675 L 390.786390 247.964675 L 391.027390 252.268675 L 391.432390 256.560675 L 392.037390 260.828675 L 392.828390 265.065675 L 393.780390 269.269675 L 394.728390 273.475675 L 395.692390 277.676675 L 396.656390 281.878675 L 397.682390 286.064675 L 398.775390 290.234675 L 399.948390 294.382675 L 401.241390 298.495675 L 402.653390 302.567675 L 404.227390 306.580675 L 405.985390 310.517675 L 407.993390 314.331675 L 410.241390 318.009675 L 412.665390 321.574675" fill="none" stroke="black" stroke-width="1.0" /><path d="M 402.665390 294.174675 L 403.648390 298.129675 L 404.773390 302.045675 L 406.093390 305.900675 L 407.580390 309.694675 L 409.147390 313.456675 L 410.756390 317.200675 L 412.384390 320.935675 L 414.007390 324.673675 L 415.593390 328.427675 L 417.115390 332.207675 L 418.623390 335.992675 L 420.161390 339.766675 L 421.733390 343.525675 L 423.332390 347.274675 L 424.945390 351.016675 L 426.565390 354.755675 L 428.181390 358.496675 L 429.782390 362.243675 L 431.360390 366.000675 L 432.903390 369.772675 L 434.402390 373.561675 L 435.844390 377.372675 L 437.223390 381.207675 L 438.520390 385.070675 L 439.735390 388.960675 L 440.850390 392.879675 L 441.858390 396.827675 L 442.757390 400.802675 L 443.503390 404.808675 L 444.133390 408.834675 L 444.665390 412.874675" fill="none" stroke="black" stroke-width="1.0" /><path d="M 430.665390 350.774675 L 433.041390 354.081675 L 435.121390 357.582675 L 436.762390 361.310675 L 438.011390 365.186675 L 439.041390 369.126675 L 439.905390 373.106675 L 440.678390 377.105675 L 441.418390 381.109675 L 442.198390 385.107675 L 443.051390 389.089675 L 443.868390 393.079675 L 444.593390 397.086675 L 445.217390 401.111675 L 445.746390 405.149675 L 446.190390 409.197675 L 446.552390 413.254675 L 446.841390 417.316675 L 447.064390 421.382675 L 447.202390 425.452675 L 447.229390 429.525675 L 447.143390 433.597675 L 446.972390 437.666675 L 446.754390 441.732675 L 446.517390 445.798675 L 446.298390 449.865675 L 446.149390 453.934675 L 446.133390 458.007675 L 446.052390 462.079675 L 445.346390 466.088675 L 443.910390 469.896675 L 441.965390 473.474675" fill="none" stroke="black" stroke-width="1.0" /><path d="M 438.665390 380.174675 L 440.034390 383.282675 L 441.276390 386.443675 L 442.353390 389.664675 L 443.259390 392.938675 L 444.043390 396.242675 L 444.725390 399.570675 L 445.321390 402.914675 L 445.843390 406.270675 L 446.301390 409.635675 L 446.701390 413.008675 L 447.029390 416.389675 L 447.263390 419.777675 L 447.397390 423.171675 L 447.435390 426.567675 L 447.377390 429.963675 L 447.226390 433.356675 L 446.987390 436.744675 L 446.667390 440.125675 L 446.270390 443.498675 L 445.797390 446.861675 L 445.236390 450.211675 L 444.570390 453.542675 L 443.816390 456.853675 L 443.013390 460.154675 L 442.203390 463.452675 L 441.421390 466.758675 L 440.706390 470.078675 L 440.124390 473.424675 L 439.688390 476.793675 L 439.365390 480.174675" fill="none" stroke="black" stroke-width="1.0" /><path d="M 302.665390 189.474675 L 300.862390 194.062675 L 299.768390 198.866675 L 299.686390 203.785675 L 300.495390 208.635675 L 301.673390 213.420675 L 302.975390 218.174675 L 304.251390 222.936675 L 305.380390 227.733675 L 306.354390 232.565675 L 307.171390 237.425675 L 307.754390 242.318675 L 308.021390 247.236675 L 307.875390 252.159675 L 307.212390 257.040675 L 305.962390 261.805675 L 303.905390 266.285675 L 301.585390 270.634675 L 298.716390 274.636675 L 295.367390 278.245675 L 291.615390 281.431675 L 287.541390 284.194675 L 283.209390 286.533675 L 278.671390 288.441675 L 273.982390 289.946675 L 269.192390 291.099675 L 264.336390 291.929675 L 259.437390 292.461675 L 254.515390 292.729675 L 249.586390 292.763675 L 244.661390 292.577675 L 239.745390 292.202675 L 234.841390 291.704675 L 229.949390 291.102675 L 225.064390 290.438675 L 220.185390 289.737675 L 215.311390 289.001675 L 210.438390 288.253675 L 205.559390 287.556675 L 200.660390 287.021675 L 195.742390 286.696675 L 190.817390 286.489675 L 185.894390 286.254675 L 180.986390 285.800675 L 176.110390 285.081675 L 171.265390 284.174675" fill="none" stroke="black" stroke-width="1.0" /><path d="M 303.365390 188.774675 L 301.873390 192.952675 L 300.789390 197.254675 L 300.269390 201.660675 L 300.294390 206.097675 L 300.652390 210.519675 L 301.225390 214.918675 L 301.926390 219.299675 L 302.664390 223.674675 L 303.347390 228.058675 L 303.763390 232.475675 L 304.074390 236.901675 L 304.088390 241.338675 L 303.739390 245.760675 L 303.081390 250.148675 L 302.110390 254.477675 L 300.824390 258.723675 L 299.224390 262.862675 L 297.306390 266.862675 L 295.074390 270.696675 L 292.528390 274.330675 L 289.662390 277.716675 L 286.505390 280.834675 L 283.059390 283.628675 L 279.352390 286.067675 L 275.422390 288.126675 L 271.289390 289.739675 L 267.019390 290.940675 L 262.645390 291.687675 L 258.218390 291.980675 L 253.783390 291.881675 L 249.365390 291.474675" fill="none" stroke="black" stroke-width="1.0" /><path d="M 305.965390 252.174675 L 305.899390 257.042675 L 304.913390 261.803675 L 302.828390 266.194675 L 299.798390 270.001675 L 296.150390 273.224675 L 292.076390 275.892675 L 287.714390 278.059675 L 283.169390 279.818675 L 278.580390 281.453675 L 273.881390 282.741675 L 269.134390 283.846675 L 264.357390 284.803675 L 259.540390 285.534675 L 254.684390 285.935675 L 249.813390 286.064675 L 244.941390 285.960675 L 240.076390 285.677675 L 235.219390 285.284675 L 230.367390 284.834675 L 225.514390 284.389675 L 220.654390 284.038675 L 215.784390 283.868675 L 210.911390 283.858675 L 206.039390 283.973675 L 201.171390 284.187675 L 196.305390 284.458675 L 191.441390 284.752675 L 186.576390 285.035675 L 181.708390 285.250675 L 176.837390 285.389675 L 171.965390 285.474675" fill="none" stroke="black" stroke-width="1.0" /><path d="M 307.365390 236.774675 L 309.343390 241.205675 L 310.470390 245.920675 L 310.414390 250.769675 L 309.291390 255.489675 L 307.615390 260.043675 L 305.567390 264.443675 L 303.194390 268.677675 L 300.559390 272.752675 L 297.639390 276.629675 L 294.386390 280.229675 L 290.745390 283.437675 L 286.762390 286.210675 L 282.491390 288.512675 L 277.996390 290.342675 L 273.347390 291.735675 L 268.598390 292.736675 L 263.787390 293.378675 L 258.946390 293.713675 L 254.093390 293.803675 L 249.241390 293.679675 L 244.397390 293.378675 L 239.563390 292.944675 L 234.740390 292.401675 L 229.926390 291.779675 L 225.120390 291.107675 L 220.317390 290.408675 L 215.513390 289.711675 L 210.706390 289.045675 L 205.889390 288.446675 L 201.058390 287.986675 L 196.214390 287.675675 L 191.365390 287.474675" fill="none" stroke="black" stroke-width="1.0" /><path d="M 308.382390 180.611675 L 307.502390 181.255675 L 306.621390 181.900675 L 305.777390 182.592675 L 304.933390 183.283675 L 304.136390 184.028675 L 303.339390 184.774675 L 302.610390 185.586675 L 301.881390 186.398675 L 301.241390 187.282675 L 300.602390 188.166675 L 299.963390 189.051675 L 299.324390 189.936675 L 298.796390 190.891675 L 298.270390 191.846675 L 297.848390 192.853675 L 297.427390 193.860675 L 297.116390 194.905675 L 296.806390 195.952675 L 296.624390 197.028675 L 296.444390 198.104675 L 296.469390 199.195675 L 296.497390 200.285675 L 296.695390 201.358675 L 296.896390 202.431675 L 297.277390 203.453675 L 297.661390 204.475675 L 298.184390 205.433675 L 298.707390 206.390675 L 299.336390 207.282675 L 299.965390 208.174675" fill="none" stroke="black" stroke-width="1.0" /><path d="M 308.665390 180.774675 L 307.409390 182.037675 L 306.235390 183.372675 L 305.152390 184.783675 L 304.317390 186.356675 L 303.570390 187.971675 L 302.891390 189.617675 L 302.293390 191.294675 L 301.760390 192.993675 L 301.280390 194.707675 L 300.884390 196.444675 L 300.537390 198.190675 L 300.233390 199.945675 L 300.008390 201.711675 L 299.828390 203.482675 L 299.688390 205.258675 L 299.622390 207.037675 L 299.599390 208.818675 L 299.615390 210.598675 L 299.704390 212.377675 L 299.834390 214.153675 L 300.003390 215.926675 L 300.247390 217.690675 L 300.532390 219.447675 L 300.856390 221.198675 L 301.260390 222.933675 L 301.713390 224.654675 L 302.214390 226.363675 L 302.798390 228.045675 L 303.415390 229.716675 L 304.065390 231.374675" fill="none" stroke="black" stroke-width="1.0" /><path d="M 306.665390 168.774675 L 307.308390 173.698675 L 308.331390 178.556675 L 309.847390 183.283675 L 311.772390 187.861675 L 313.924390 192.334675 L 316.549390 196.536675 L 319.874390 200.214675 L 323.676390 203.400675 L 327.829390 206.111675 L 332.267390 208.330675 L 336.911390 210.073675 L 341.717390 211.295675 L 346.633390 211.933675 L 351.593390 211.986675 L 356.540390 211.582675 L 361.453390 210.871675 L 366.329390 209.932675 L 371.160390 208.787675 L 375.941390 207.446675 L 380.666390 205.918675 L 385.324390 204.201675 L 389.906390 202.287675 L 394.392390 200.161675 L 398.755390 197.791675 L 402.959390 195.151675 L 406.962390 192.216675 L 410.734390 188.990675 L 414.262390 185.498675 L 417.525390 181.757675 L 420.501390 177.785675 L 423.216390 173.627675 L 425.697390 169.326675 L 427.977390 164.915675 L 430.104390 160.428675 L 432.139390 155.897675 L 434.124390 151.345675 L 436.065390 146.774675" fill="none" stroke="black" stroke-width="1.0" /><path d="M 438.665390 139.474675 L 436.538390 143.941675 L 434.361390 148.384675 L 432.126390 152.799675 L 429.808390 157.170675 L 427.401390 161.492675 L 424.886390 165.753675 L 422.247390 169.938675 L 419.475390 174.036675 L 416.553390 178.028675 L 413.468390 181.895675 L 410.213390 185.620675 L 406.779390 189.179675 L 403.156390 192.547675 L 399.351390 195.707675 L 395.365390 198.634675 L 391.203390 201.306675 L 386.883390 203.714675 L 382.420390 205.843675 L 377.821390 207.659675 L 373.094390 209.105675 L 368.261390 210.148675 L 363.361390 210.809675 L 358.426390 211.115675 L 353.481390 211.063675 L 348.553390 210.652675 L 343.673390 209.862675 L 338.877390 208.660675 L 334.216390 207.015675 L 329.768390 204.863675 L 325.626390 202.171675 L 321.896390 198.933675 L 318.628390 195.226675 L 315.694390 191.246675 L 313.034390 187.075675 L 310.693390 182.718675 L 308.741390 178.173675 L 307.387390 173.418675 L 306.714390 168.519675 L 306.565390 163.574675" fill="none" stroke="black" stroke-width="1.0" /><path d="M 436.665390 152.774675 L 437.704390 149.587675 L 438.872390 146.448675 L 440.177390 143.362675 L 441.732390 140.393675 L 443.494390 137.546675 L 445.399390 134.790675 L 447.451390 132.140675 L 449.621390 129.587675 L 451.858390 127.091675 L 454.161390 124.656675 L 456.516390 122.272675 L 458.887390 119.902675 L 461.268390 117.544675 L 463.634390 115.169675 L 465.970390 112.766675 L 468.271390 110.329675 L 470.494390 107.820675 L 472.617390 105.228675 L 474.651390 102.566675 L 476.551390 99.804975 L 478.297390 96.944775 L 479.979390 94.046475 L 481.614390 91.120275 L 483.178390 88.155875 L 484.599390 85.123775 L 485.844390 82.015475 L 486.556390 78.739975 L 486.573390 75.422375 L 486.025390 72.131375 L 485.057390 68.922475" fill="none" stroke="black" stroke-width="1.0" /><path d="M 438.665390 148.174675 L 438.902390 145.004675 L 439.387390 141.873675 L 440.147390 138.786675 L 441.563390 135.945675 L 443.211390 133.243675 L 445.186390 130.752675 L 447.311390 128.390675 L 449.482390 126.067675 L 451.670390 123.761675 L 453.915390 121.511675 L 456.198390 119.299675 L 458.495390 117.101675 L 460.769390 114.880675 L 463.014390 112.629675 L 465.136390 110.263675 L 467.226390 107.868675 L 469.287390 105.447675 L 471.334390 103.015675 L 473.370390 100.574675 L 475.362390 98.096775 L 477.313390 95.586975 L 479.221390 93.044875 L 481.036390 90.434975 L 482.785390 87.781975 L 484.414390 85.052275 L 485.790390 82.191375 L 487.013390 79.260875 L 487.896390 76.206875 L 488.604390 73.111575 L 489.185390 69.986075" fill="none" stroke="black" stroke-width="1.0" /></svg>