<svg id="Layer_1" data-name="Layer 1" xmlns="http://www.w3.org/2000/svg" viewBox="0 0 105.239 128.152"><defs><style>.cls-1{fill:none;stroke:#231f20;stroke-miterlimit:10;}</style></defs><path class="cls-1" d="M39.446,45.148a73.282,73.282,0,0,1,14.25,1,80.783,80.783,0,0,1,13.833,3.628,88.378,88.378,0,0,1,13.079,5.934A93.083,93.083,0,0,1,92.594,63.64,103.567,103.567,0,0,1,103.243,73.2a116.182,116.182,0,0,1,9.315,10.879A131.235,131.235,0,0,1,120.573,96c2.459,4.116,4.706,8.361,6.748,12.687s3.886,8.736,5.561,13.21,3.183,9.014,4.549,13.6,2.593,9.215,3.709,13.874,2.119,9.344,3.04,14.038" transform="translate(-39.431 -35.356)"/><path class="cls-1" d="M57.361,35.818a115.885,115.885,0,0,1,13.564,6.658A117.9,117.9,0,0,1,94.939,60.724a115.919,115.919,0,0,1,10.049,11.284A108.145,108.145,0,0,1,116.8,90.929a105.405,105.405,0,0,1,7.648,20.944,95.863,95.863,0,0,1,2.854,21.949,85.159,85.159,0,0,1-2.563,21.936" transform="translate(-39.431 -35.356)"/></svg>