<svg id="Layer_1" data-name="Layer 1" xmlns="http://www.w3.org/2000/svg" viewBox="0 0 102.943 133.862"><defs><style>.cls-1{fill:none;stroke:#231f20;stroke-miterlimit:10;}</style></defs><path class="cls-1" d="M145.054,33.345q-.429,4.062-.861,8.124t-.88,8.123q-.447,4.061-.918,8.118t-.976,8.111q-.506,4.052-1.052,8.1t-1.149,8.085q-.6,4.04-1.263,8.068t-1.4,8.046q-.544,2.971-1.14,5.942t-1.269,5.927q-.674,2.955-1.436,5.886t-1.639,5.823q-.876,2.89-1.878,5.734t-2.156,5.623q-1.153,2.78-2.47,5.487t-2.821,5.326c-.6,1.039-1.223,2.071-1.88,3.087s-1.344,2.016-2.063,2.992-1.469,1.928-2.252,2.848-1.6,1.807-2.448,2.654-1.731,1.653-2.648,2.411a33.46,33.46,0,0,1-2.856,2.118,29.589,29.589,0,0,1-3.068,1.775,27.142,27.142,0,0,1-3.288,1.383,25.86,25.86,0,0,1-4.7,1.138,27.735,27.735,0,0,1-4.783.272,30.676,30.676,0,0,1-4.783-.521,34.223,34.223,0,0,1-4.7-1.242,37.62,37.62,0,0,1-4.539-1.891,40.131,40.131,0,0,1-4.294-2.467,41.559,41.559,0,0,1-3.967-2.971,40.915,40.915,0,0,1-3.558-3.4q-1.662-1.8-3.13-3.737t-2.765-3.993q-1.3-2.055-2.437-4.212t-2.146-4.391q-1.007-2.234-1.892-4.532t-1.677-4.634q-.791-2.337-1.5-4.7T49.02,117.13" transform="translate(-48.538 -33.293)"/><path class="cls-1" d="M150.98,34.488q-.206,6.65-.48,13.327t-.7,13.35q-.422,6.674-1.034,13.324t-1.493,13.249q-.883,6.6-2.076,13.125t-2.78,12.95q-1.587,6.425-3.606,12.727t-4.555,12.454q-.711,1.724-1.485,3.442t-1.629,3.4q-.857,1.681-1.8,3.31t-2,3.17q-1.052,1.542-2.218,2.98a36.464,36.464,0,0,1-2.465,2.739,31.655,31.655,0,0,1-2.737,2.451,28.837,28.837,0,0,1-3.035,2.111,26.9,26.9,0,0,1-3.356,1.713,28.4,28.4,0,0,1-3.546,1.236,30.244,30.244,0,0,1-3.682.773,31.9,31.9,0,0,1-3.762.322,33.313,33.313,0,0,1-3.789-.116A34.125,34.125,0,0,1,95,165.986a34.49,34.49,0,0,1-3.679-.954,33.858,33.858,0,0,1-3.542-1.353,37.038,37.038,0,0,1-3.362-1.719q-1.634-.942-3.167-2.041t-2.964-2.331q-1.43-1.234-2.752-2.592T73,152.175q-1.209-1.464-2.3-3.021t-2.068-3.189q-.974-1.632-1.822-3.327T65.224,139.2q-.734-1.74-1.356-3.524t-1.145-3.6q-.522-1.817-.947-3.663t-.763-3.713q-.337-1.866-.591-3.749t-.435-3.771q-.18-1.89-.29-3.781" transform="translate(-48.538 -33.293)"/></svg>