<svg id="Layer_1" data-name="Layer 1" xmlns="http://www.w3.org/2000/svg" viewBox="0 0 143.859 120.01"><defs><style>.cls-1{fill:none;stroke:#231f20;stroke-miterlimit:10;}</style></defs><path class="cls-1" d="M93.172,49.091q3.873-.446,7.783-.649t7.836-.167q3.925.036,7.856.31t7.845.783q3.913.51,7.8,1.253t7.722,1.717q3.837.974,7.612,2.178t7.467,2.633c.435.169.877.349,1.319.543s.882.4,1.315.623.857.458,1.265.71a13.57,13.57,0,0,1,1.167.8,9.788,9.788,0,0,1,1.022.9,7.273,7.273,0,0,1,.832,1.008,5.649,5.649,0,0,1,.594,1.12,5,5,0,0,1,.308,1.239,4.82,4.82,0,0,1,.03.688,5.474,5.474,0,0,1-.061.678,6.622,6.622,0,0,1-.14.666c-.058.221-.127.439-.2.656s-.163.432-.255.645-.191.424-.293.634-.209.417-.318.623-.219.41-.329.612q-1.9,3.5-3.814,7t-3.842,6.993q-1.932,3.492-3.893,6.966t-3.968,6.924q-2.007,3.45-4.068,6.867t-4.192,6.793q-2.132,3.377-4.341,6.705t-4.514,6.6q-1,1.416-2.016,2.82t-2.069,2.79q-1.049,1.385-2.132,2.745t-2.206,2.689q-1.122,1.328-2.291,2.619t-2.387,2.536q-1.221,1.245-2.5,2.441t-2.614,2.333q-1.338,1.137-2.746,2.21t-2.88,2.066q-1.473.994-3.008,1.9t-3.13,1.717q-1.595.808-3.246,1.512t-3.356,1.284q-1.7.584-3.46,1.038t-3.558.77a43.884,43.884,0,0,1-4.5.546c-1.513.1-3.036.133-4.561.088s-3.05-.166-4.57-.359-3.033-.458-4.532-.794-2.984-.743-4.446-1.218-2.9-1.021-4.31-1.633-2.786-1.291-4.126-2.035a45.732,45.732,0,0,1-3.894-2.428,45.115,45.115,0,0,1-6.9-5.928q-1.56-1.639-2.942-3.418t-2.568-3.667A43.651,43.651,0,0,1,35.6,132.9a42.51,42.51,0,0,1-1.747-4.042,40.394,40.394,0,0,1-1.3-4.169,38.365,38.365,0,0,1-.822-4.254" transform="translate(-24.2 -47.769)"/><path class="cls-1" d="M99.669,61.3q3.671-.407,7.363-.651t7.4-.327q3.7-.083,7.416,0t7.419.318q3.708.24,7.408.64t7.38.96q3.679.559,7.337,1.279t7.28,1.6c.413.1.832.207,1.252.323s.842.243,1.259.381.829.288,1.232.453.795.344,1.173.541a10.542,10.542,0,0,1,1.082.645,8.087,8.087,0,0,1,.96.764,6.575,6.575,0,0,1,.8.9,5.763,5.763,0,0,1,.616,1.049,5.566,5.566,0,0,1,.362,1.079,6.118,6.118,0,0,1,.145,1.1,7.286,7.286,0,0,1-.043,1.113,9.427,9.427,0,0,1-.2,1.116c-.089.372-.2.743-.323,1.111s-.265.735-.415,1.1-.311.721-.476,1.073-.336.7-.507,1.042q-1.911,3.822-3.831,7.646t-3.877,7.631q-1.956,3.807-3.961,7.589t-4.084,7.519q-2.079,3.739-4.246,7.425t-4.447,7.3q-2.28,3.618-4.687,7.156t-4.966,6.982q-1.236,1.663-2.521,3.305t-2.628,3.238q-1.343,1.6-2.75,3.14t-2.887,3.011q-1.481,1.468-3.04,2.85t-3.208,2.658q-1.649,1.275-3.393,2.433t-3.591,2.178a48.56,48.56,0,0,1-5.042,2.41,51.093,51.093,0,0,1-5.308,1.838,53.2,53.2,0,0,1-5.508,1.26,54.264,54.264,0,0,1-5.639.679,55.095,55.095,0,0,1-11.4-.406,53.833,53.833,0,0,1-5.621-1.094,52.188,52.188,0,0,1-10.737-3.98,54.013,54.013,0,0,1-4.971-2.833,54.83,54.83,0,0,1-8.889-7.115,54.319,54.319,0,0,1-3.82-4.186A52.486,52.486,0,0,1,37.2,143a50.416,50.416,0,0,1-2.81-4.847,48.29,48.29,0,0,1-2.231-5.106" transform="translate(-24.2 -47.769)"/><path class="cls-1" d="M94.312,56.525q3.386-.036,6.777.005t6.785.156q3.395.115,6.791.306t6.791.456q3.394.265,6.788.606t6.781.754q3.388.416,6.771.9t6.755,1.053c.451.075.9.153,1.359.237s.911.173,1.365.27.907.2,1.355.322.891.246,1.327.389.864.3,1.283.474.827.365,1.223.576a11.889,11.889,0,0,1,1.147.694,10.33,10.33,0,0,1,1.053.831,9.347,9.347,0,0,1,1.025,1.086,9.556,9.556,0,0,1,.822,1.2,10.11,10.11,0,0,1,.626,1.3,10.71,10.71,0,0,1,.439,1.363,11.4,11.4,0,0,1,.259,1.406,12.118,12.118,0,0,1,.087,1.423,12.581,12.581,0,0,1-.077,1.415,12.171,12.171,0,0,1-.234,1.381q-.155.678-.369,1.335c-.142.439-.3.87-.478,1.3s-.367.846-.571,1.261-.421.825-.649,1.231-.464.807-.709,1.2-.5.793-.754,1.184-.52.781-.784,1.168-.53.771-.8,1.155l-3.835,5.54-3.836,5.54-3.835,5.54-3.836,5.54-3.835,5.539-3.836,5.54-3.835,5.54-3.836,5.54c-1.11,1.6-2.237,3.219-3.392,4.829s-2.335,3.212-3.552,4.79-2.471,3.128-3.771,4.635-2.644,2.969-4.045,4.366-2.856,2.732-4.376,3.983a50.244,50.244,0,0,1-4.766,3.483,43.48,43.48,0,0,1-5.21,2.87,40.012,40.012,0,0,1-9.859,3.107q-2.1.375-4.252.542t-4.324.143q-2.175-.025-4.362-.233t-4.365-.585q-2.177-.376-4.333-.912t-4.267-1.217q-2.112-.679-4.167-1.5c-1.891-.75-3.756-1.594-5.577-2.525s-3.6-1.95-5.318-3.048a60.881,60.881,0,0,1-4.965-3.532,56.369,56.369,0,0,1-4.517-3.974,50.318,50.318,0,0,1-3.976-4.378,44.424,44.424,0,0,1-3.34-4.741,39.187,39.187,0,0,1-2.611-5.064,35.049,35.049,0,0,1-1.786-5.349" transform="translate(-24.2 -47.769)"/></svg>