<svg id="Layer_1" data-name="Layer 1" xmlns="http://www.w3.org/2000/svg" viewBox="0 0 116.181 131.782"><defs><style>.cls-1{fill:none;stroke:#231f20;stroke-miterlimit:10;}</style></defs><path class="cls-1" d="M41.078,63.424a40.545,40.545,0,0,1,11.286-1.749A49.262,49.262,0,0,1,64.1,62.959a62.96,62.96,0,0,1,11.834,4.027,79.123,79.123,0,0,1,11.575,6.483,104.043,104.043,0,0,1,11.027,8.595,134.09,134.09,0,0,1,10.385,10.342c3.349,3.7,6.582,7.646,9.689,11.774s6.09,8.444,8.937,12.892,5.568,9.03,8.176,13.719,5.106,9.484,7.509,14.359,4.712,9.83,6.942,14.839,4.384,10.07,6.475,15.158" transform="translate(-40.931 -43.556)"/><path class="cls-1" d="M50.76,44.022A75.3,75.3,0,0,1,61.789,49.4a96.128,96.128,0,0,1,10.9,7.513,119.233,119.233,0,0,1,10.591,9.507,143.2,143.2,0,0,1,10.1,11.36,165.754,165.754,0,0,1,13.6,19.922,195.541,195.541,0,0,1,11.445,23,197.863,197.863,0,0,1,8.569,25,176.062,176.062,0,0,1,4.969,25.923" transform="translate(-40.931 -43.556)"/><path class="cls-1" d="M67.446,42.275" transform="translate(-40.931 -43.556)"/></svg>