<svg id="Layer_1" data-name="Layer 1" xmlns="http://www.w3.org/2000/svg" viewBox="0 0 113.886 132.968"><defs><style>.cls-1{fill:none;stroke:#231f20;stroke-miterlimit:10;}</style></defs><path class="cls-1" d="M40.063,135.083a30.215,30.215,0,0,0,2.283,4.948,31.74,31.74,0,0,0,3.073,4.419,33.692,33.692,0,0,0,3.746,3.847,35.734,35.734,0,0,0,4.3,3.227,37.228,37.228,0,0,0,9.789,4.415,36.409,36.409,0,0,0,5.252,1.1,34.636,34.636,0,0,0,5.333.3,39.173,39.173,0,0,0,5.287-.482,41.782,41.782,0,0,0,5.165-1.17,45.262,45.262,0,0,0,5-1.8,48.861,48.861,0,0,0,4.8-2.377,52.416,52.416,0,0,0,4.558-2.9c1.475-1.045,2.9-2.169,4.276-3.359s2.693-2.45,3.952-3.767,2.458-2.693,3.589-4.118,2.2-2.9,3.213-4.4,1.967-3.058,2.866-4.642,1.746-3.2,2.54-4.848,1.538-3.322,2.234-5.022,1.343-3.423,1.947-5.166,1.163-3.5,1.681-5.277,1-3.561,1.436-5.357.843-3.6,1.211-5.406q.474-2.331.885-4.675t.779-4.7q.369-2.352.708-4.71t.672-4.716q.332-2.358.67-4.716t.7-4.71q.368-2.352.774-4.7t.877-4.677q.471-2.333,1.024-4.657t1.209-4.619q.655-2.292,1.426-4.541T139,41.4q.9-2.18,1.952-4.275t2.261-4.084q1.212-1.987,2.6-3.856a45.726,45.726,0,0,1,2.973-3.591v-.252" transform="translate(-39.592 -24.872)"/><path class="cls-1" d="M49.5,132.977q1.387,1.455,2.822,2.872t2.919,2.775q1.483,1.361,3.021,2.654t3.127,2.5q1.592,1.21,3.24,2.328t3.356,2.126q1.707,1.008,3.477,1.9t3.6,1.641q1.835.752,3.737,1.345t3.844,1.015q1.944.42,3.914.659t3.942.28a37.064,37.064,0,0,0,3.932-.122,34.449,34.449,0,0,0,3.881-.548,32.22,32.22,0,0,0,3.79-1,30.728,30.728,0,0,0,3.66-1.471,31.781,31.781,0,0,0,3.753-2.125,35.2,35.2,0,0,0,3.442-2.588,39.674,39.674,0,0,0,3.139-2.991q1.5-1.587,2.846-3.335t2.56-3.618c.807-1.246,1.567-2.53,2.283-3.841s1.387-2.65,2.014-4,1.212-2.729,1.754-4.109a107.593,107.593,0,0,0,3.749-11.522c1.05-3.917,1.924-7.9,2.7-11.922s1.446-8.075,2.092-12.135,1.265-8.124,1.932-12.161,1.381-8.048,2.217-12,1.794-7.847,2.947-11.652a91.983,91.983,0,0,1,4.124-11.116,70.389,70.389,0,0,1,5.746-10.392" transform="translate(-39.592 -24.872)"/></svg>