<svg id="Layer_1" data-name="Layer 1" xmlns="http://www.w3.org/2000/svg" viewBox="0 0 144.512 150.469"><defs><style>.cls-1{fill:none;stroke:#231f20;stroke-miterlimit:10;}</style></defs><path class="cls-1" d="M42.108,162.936q-.1-3.143-.027-6.279T42.4,150.4q.247-3.123.662-6.228t.993-6.184q.578-3.078,1.313-6.126T47,125.8q.888-3.009,1.927-5.973t2.221-5.878q1.182-2.913,2.505-5.77t2.778-5.649q1.456-2.791,3.044-5.515t3.3-5.369Q64.486,89,66.32,86.437T70.1,81.4q1.95-2.475,4.011-4.854t4.23-4.657q2.169-2.279,4.433-4.453T87.4,63.188q2.354-2.072,4.8-4.041t4.961-3.834q2.52-1.866,5.117-3.627t5.262-3.419q2.667-1.658,5.4-3.21t5.523-3q2.792-1.448,5.638-2.789t5.743-2.579q2.9-1.236,5.837-2.366t5.922-2.153q2.98-1.023,6-1.94t6.059-1.725q3.045-.808,6.114-1.51t6.157-1.294" transform="translate(-28.376 -12.484)"/><path class="cls-1" d="M51.761,161.664q-.039-3.112.054-6.222t.313-6.214q.221-3.1.568-6.2t.822-6.166q.474-3.075,1.071-6.129t1.318-6.081q.72-3.027,1.561-6.023t1.8-5.957q.961-2.96,2.039-5.879t2.272-5.793q1.194-2.874,2.5-5.7t2.73-5.59q1.422-2.767,2.955-5.475t3.176-5.349q1.642-2.642,3.394-5.214t3.608-5.069q1.859-2.5,3.819-4.913t4.019-4.749Q91.842,56.617,94,54.371t4.395-4.4q2.243-2.157,4.571-4.222t4.737-4.034q2.409-1.968,4.9-3.84t5.046-3.642q2.559-1.77,5.188-3.436t5.321-3.226q2.692-1.559,5.446-3.009t5.562-2.787q2.809-1.336,5.671-2.559t5.77-2.324q2.909-1.1,5.862-2.085t5.944-1.839" transform="translate(-28.376 -12.484)"/><path class="cls-1" d="M28.874,152.393q.143-1.594.357-3.179t.5-3.155q.284-1.571.633-3.127t.765-3.1q.414-1.541.891-3.065t1.013-3.029q.535-1.506,1.13-2.991T35.4,127.8q.648-1.466,1.35-2.907t1.453-2.861q.752-1.419,1.552-2.812t1.645-2.761q.845-1.367,1.734-2.706t1.818-2.649q.93-1.311,1.9-2.59t1.972-2.527q1.005-1.248,2.042-2.466t2.107-2.406q1.068-1.189,2.168-2.349t2.226-2.294q1.128-1.132,2.282-2.24t2.333-2.187q1.179-1.082,2.383-2.137t2.428-2.088q1.224-1.032,2.47-2.041t2.51-2q1.264-.987,2.546-1.952t2.58-1.909q1.3-.945,2.609-1.87t2.635-1.83q1.325-.906,2.66-1.794t2.679-1.758q2.45-1.586,4.93-3.119t4.993-3.014q2.512-1.481,5.056-2.909t5.115-2.8q2.573-1.376,5.173-2.7t5.228-2.588q2.626-1.266,5.28-2.478t5.331-2.368q2.677-1.157,5.379-2.257t5.424-2.144q2.724-1.044,5.468-2.031t5.509-1.917q2.765-.93,5.548-1.8t5.584-1.685q2.8-.815,5.619-1.568t5.65-1.45" transform="translate(-28.376 -12.484)"/><path class="cls-1" d="M60.919,152.783q.341-2.617.778-5.222t.967-5.189q.529-2.586,1.152-5.152t1.336-5.107q.712-2.541,1.516-5.056t1.694-5q.891-2.485,1.869-4.938t2.042-4.869q1.064-2.417,2.211-4.794t2.379-4.713q1.23-2.335,2.543-4.627t2.7-4.533q1.394-2.243,2.864-4.434t3.02-4.33q1.549-2.138,3.174-4.218t3.326-4.1q1.7-2.019,3.472-3.976t3.613-3.849q1.842-1.89,3.75-3.715t3.88-3.58q1.971-1.755,4-3.439t4.124-3.3q2.091-1.611,4.238-3.149t4.345-3q2.2-1.461,4.449-2.843t4.545-2.686q2.3-1.3,4.637-2.523t4.723-2.358q2.382-1.137,4.8-2.189t4.879-2.016q2.457-.965,4.948-1.839t5.012-1.659" transform="translate(-28.376 -12.484)"/></svg>