<svg id="Layer_1" data-name="Layer 1" xmlns="http://www.w3.org/2000/svg" viewBox="0 0 239.345 56.73191"><defs><style>.cls-1{fill:#231f20;}</style></defs><path class="cls-1" d="M80.32892,194.82176a75.10728,75.10728,0,0,0,7.97075-1.51214c2.65758-.64914,5.31579-1.4357,7.97452-2.33681s5.318-1.91675,7.97765-3.024,5.31976-2.30617,7.98016-3.57379,5.32112-2.604,7.98205-3.98611,5.32206-2.81012,7.98331-4.261,5.32257-2.92467,7.98391-4.39844,5.3227-2.94757,7.98394-4.39844,5.32237-2.87884,7.9833-4.261,5.32164-2.71849,7.982-3.98611,5.3205-2.46652,7.98017-3.57379,5.31892-2.12291,7.97764-3.024,5.31694-1.68767,7.97452-2.33681a75.11243,75.11243,0,0,1,7.97075-1.51216,60.63949,60.63949,0,0,1,15.95209-.04648,74.93324,74.93324,0,0,1,7.98132,1.46569c2.65978.63363,5.31892,1.40472,7.97756,2.29032s5.31674,1.88578,7.97442,2.97754,5.315,2.2752,7.97191,3.52732,5.3136,2.573,7.97,3.93963,5.31267,2.77913,7.96878,4.21453,5.31214,2.89366,7.96814,4.352,5.312,2.91656,7.96817,4.35195,5.31235,2.84786,7.96878,4.21451,5.31305,2.68752,7.97,3.93964,5.31421,2.43553,7.9719,3.52731,5.31579,2.09192,7.97442,2.97754,5.31778,1.65669,7.97757,2.29033a74.93286,74.93286,0,0,0,7.98133,1.46567q.01506,2.35638.03009,4.71277.01689,2.64186.03375,5.28373a79.20564,79.20564,0,0,1-7.96906-1.47406c-2.65716-.63723-5.31515-1.41269-7.97378-2.30331s-5.3179-1.89642-7.97772-2.99435-5.32016-2.288-7.9809-3.5472-5.32187-2.58748-7.98328-3.96182-5.323-2.79479-7.98483-4.23825-5.3237-2.91-7.98562-4.37645-5.32386-2.933-7.98565-4.37644-5.32345-2.86389-7.98484-4.23825-5.32253-2.70263-7.98327-3.96182-5.32109-2.44925-7.98089-3.54718-5.31911-2.10375-7.97774-2.99437-5.3166-1.66606-7.97378-2.3033a74.4771,74.4771,0,0,0-7.969-1.47406,60.304,60.304,0,0,0-15.95215.04651,74.80276,74.80276,0,0,0-7.98311,1.52057c-2.6602.65274-5.31961,1.44369-7.97838,2.34981s-5.31683,1.92743-7.97441,3.04087-5.31461,2.319-7.97125,3.59369-5.3129,2.61849-7.96889,4.00833-5.31171,2.8258-7.9673,4.28476-5.311,2.941-7.96652,4.423-5.31092,2.964-7.96651,4.423-5.31132,2.89489-7.96731,4.28476-5.31224,2.73364-7.96888,4.00833-5.31369,2.48025-7.97126,3.5937-5.31566,2.13474-7.97441,3.04086-5.31817,1.69709-7.97837,2.34983a74.80851,74.80851,0,0,1-7.9831,1.52057l-.03058-4.87017q-.0161-2.56341-.03217-5.1268" transform="translate(-80.32892 -148.08682)"/></svg>