<svg id="Layer_1" data-name="Layer 1" xmlns="http://www.w3.org/2000/svg" viewBox="0 0 239.345 56.73191"><defs><style>.cls-1{fill:#231f20;}</style></defs><path class="cls-1" d="M80.32892,194.82176q1.99217-.26351,3.98486-.64439,1.99271-.37948,3.98589-.86775,1.99318-.48685,3.98683-1.07392,1.99363-.58563,3.98769-1.26289,1.994-.67584,3.98847-1.43469,1.99442-.75744,3.98918-1.58933,1.99476-.83044,3.98981-1.72676,1.995-.89488,3.99035-1.847,1.99531-.95073,3.99083-1.9501,1.99553-.998,3.99122-2.036,1.99569-1.03662,3.99153-2.10473,1.99584-1.06668,3.99178-2.15626,1.99593-1.08815,3.99191-2.19064,1.996-1.101,3.992-2.2078,1.996-1.10533,3.992-2.20781,1.996-1.101,3.99193-2.19063,1.99592-1.08814,3.99177-2.15628,1.99582-1.06668,3.99153-2.10472,1.99569-1.03662,3.99121-2.036,1.99554-.998,3.99083-1.9501,1.9953-.95072,3.99036-1.847,1.995-.89489,3.98981-1.72676,1.99475-.83046,3.98918-1.58933,1.9944-.75744,3.98846-1.43469,1.994-.67583,3.98769-1.26289,1.99365-.58563,3.98683-1.07392,1.99317-.48683,3.98589-.86775,1.99269-.37947,3.98486-.64441,1.99217-.26351,3.98377-.40388,1.99158-.13894,3.9826-.14618,1.997-.00582,3.99344.12294,1.99643.12732,3.99228.38064,1.99584.25189,3.99116.62117,1.99533.36786,3.99016.84452,1.99485.47522,3.98921,1.05067,1.99437.574,3.98835,1.23965,1.994.66421,3.98756,1.41147,1.99361.74581,3.98686,1.56607,1.99326.81884,3.98622,1.70354,1.993.88326,3.98569,1.82378,1.99274.93908,3.98521,1.92686,1.99251.98634,3.98482,2.01277,1.99233,1.025,3.98451,2.08148,1.99219,1.05509,3.98427,2.13305,1.99211,1.07652,3.9841,2.16739,1.99206,1.0894,3.984,2.18457,1.99206,1.09371,3.984,2.18457,1.992,1.0894,3.98413,2.16738,1.9921,1.07654,3.98426,2.133,1.99218,1.05505,3.98452,2.08148,1.99233,1.025,3.98481,2.01277,1.99249.98636,3.98522,1.92687,1.9927.9391,3.98569,1.82379,1.99293.88326,3.98621,1.70352,1.99329.81883,3.98684,1.56607,1.99362.74585,3.98758,1.41147,1.994.66421,3.98835,1.23966,1.99439.574,3.98922,1.05067,1.99485.47523,3.99015.8445,1.99535.36786,3.99118.62117.00755,1.17819.015,2.35638t.01505,2.35639q.00846,1.32094.01687,2.64186t.01688,2.64187c-1.06088-.14267-2.272-.32383-3.60843-.563s-2.79825-.53634-4.36063-.911q-1.99287-.47793-3.98635-1.05664-1.99342-.57726-3.98743-1.24667-1.994-.668-3.9884-1.41943-1.99449-.75-3.98932-1.57492-1.99485-.82349-3.99012-1.71314-1.99519-.88824-3.99078-1.83406-1.99557-.94438-3.99139-1.93773-1.99581-.99187-3.99189-2.02409-1.996-1.03077-3.99224-2.09322-1.99621-1.061-3.99259-2.145-1.99635-1.0826-3.99277-2.17958-1.99639-1.09555-3.99285-2.19687-1.99646-1.09987-3.99286-2.19686-1.99646-1.09554-3.99279-2.17958-1.99632-1.08261-3.99256-2.145-1.99623-1.061-3.99228-2.09322-1.996-1.03074-3.99189-2.02409-1.99579-.99191-3.99138-1.93773-1.99554-.94437-3.99079-1.83406-1.99524-.88823-3.9901-1.71312-1.99487-.82347-3.98932-1.57494-1.99443-.75-3.98842-1.41943-1.994-.66795-3.98744-1.24666-1.99344-.57729-3.98634-1.05664-1.99288-.47795-3.98517-.84933-1.99225-.36995-3.98387-.62473-1.99162-.25332-3.9825-.38287-1.9909-.12808-3.981-.12372-1.99791.0058-3.99506.147-1.99715.13974-3.99357.40613-1.99646.265-3.9922.648-1.99577.38159-3.99091.87259-1.99516.48955-3.98973,1.07989-1.9946.5889-3.98865,1.26992-1.99407.67959-3.98764,1.44268-1.99361.76169-3.98677,1.59819-1.99317.83508-3.986,1.73638-1.99282.89987-3.98529,1.85731-1.99249.956-3.9847,1.961-1.99221,1.00353-3.98419,2.04734-1.992,1.04241-3.98379,2.11647-1.99184,1.07262-3.98351,2.16829-1.99168,1.09422-3.98331,2.20284-1.99161,1.10717-3.98321,2.22011-1.99159,1.11148-3.9832,2.22012-1.99163,1.1072-3.98331,2.20284-1.9917,1.0942-3.9835,2.16828-1.99183,1.07263-3.98381,2.11648-1.992,1.04239-3.9842,2.04734-1.99221,1.00353-3.98468,1.961-1.99248.956-3.98528,1.85731-1.99281.89988-3.986,1.73639-1.99318.83508-3.98676,1.59818-1.99359.76164-3.98765,1.44268-1.99406.6796-3.98864,1.26993-1.9946.58892-3.98973,1.0799-1.99515.48955-3.9909.87257-1.99578.3816-3.9922.648l-.01529-2.43509-.01529-2.43508-.01609-2.5634-.01608-2.5634" transform="translate(-80.32892 -148.08682)"/></svg>