<svg id="Layer_1" data-name="Layer 1" xmlns="http://www.w3.org/2000/svg" viewBox="0 0 239.20517 24.17187"><defs><style>.cls-1{fill:#231f20;}</style></defs><path class="cls-1" d="M318.53113,194.85968q.00888,2.43805.01779,4.8761.00929,2.55261.01862,5.10519c-2.54984.11516-5.66019.27927-9.20682.53755q-4.63239.33735-9.3122.787-4.6772.44335-9.38595.96158-4.70617.51195-9.4281,1.06134-4.71931.54314-9.43863,1.08628-4.71671.53691-9.41757,1.03641-4.69827.49326-9.36489.91168-4.664.4122-9.28059.71215-4.614.29371-9.16469.43777-4.5481.13783-9.0172.08858-4.46645-.0555-8.83807-.33547-4.369-.28621-8.62735-.83432-4.25574-.55434-8.385-1.408-4.12666-.8599-8.11108-2.05652-3.9818-1.20286-7.80554-2.77988-3.21556-1.33234-6.49535-2.33955-3.27873-1.01244-6.61545-1.73123-3.33567-.724-6.72314-1.18584-3.38641-.46707-6.81841-.7034-3.43094-.24156-6.90124-.28386-3.46926-.04753-6.97165.07274-3.50136.115-7.02965.36641-3.52725.24612-7.07519.59714-3.54693.34577-7.10834.765-3.56039.41392-7.129.86982-3.56764.45068-7.13733.91181-3.56866.45588-7.1332.89081-3.56348.42968-7.11661.80691-3.5521.372-7.08763.66007-3.53449.28284-7.04621.45031l-.017-5.14007-.01606-4.87195c2.00258-.10532,4.38256-.25354,7.06265-.48315q3.5446-.30369,7.111-.709,3.56517-.39963,7.14484-.867,3.57846-.46173,7.16417-.95732,3.58452-.48995,7.169-.97991,3.58329-.4843,7.15934-.93474,3.57483-.44481,7.13517-.82185,3.55912-.3714,7.09649-.6412,3.53616-.26418,7.04331-.39286,3.50593-.123,6.97563-.07673,3.46848.05195,6.89345.30711,3.42375.26079,6.79674.75868,3.37179.50355,6.68554,1.278,3.31257.78012,6.55986,1.86506a68.48227,68.48227,0,0,1,6.41965,2.51986,79.671,79.671,0,0,0,7.84644,3.05358q3.99936,1.32149,8.14083,2.25969,4.139.94508,8.40481,1.54793,4.2633.60971,8.63829.91828,4.37244.31542,8.84133.37075,4.46634.06219,9.01392-.09462,4.545-.15,9.156-.47789,4.60847-.32108,9.26771-.779,4.65669-.45109,9.34894-.998,4.68971-.54009,9.39969-1.13492,4.70745-.588,9.42-1.18965,4.71-.59484,9.40985-1.16229,4.69729-.56061,9.36924-1.05278,4.66941-.48533,9.29818-.86115Q313.96072,195.07811,318.53113,194.85968Z" transform="translate(-79.36237 -188.30417)"/></svg>