<svg id="Layer_1" data-name="Layer 1" xmlns="http://www.w3.org/2000/svg" viewBox="0 0 239.17952 28.7878"><defs><style>.cls-1{fill:#231f20;}</style></defs><path class="cls-1" d="M79.396,205.20753l.01472-2.66819.01472-2.66819.01329-2.40779.01328-2.4078c.93134-.08215,2.022-.18536,3.24794-.32009s2.58721-.301,4.05976-.50918q1.85-.26159,3.72-.57,1.86942-.30722,3.75563-.65388,1.88569-.34545,3.785-.723,1.89881-.37626,3.80809-.77721,1.90878-.39969,3.82489-.81666,1.91559-.41574,3.83538-.84134,1.91927-.42438,3.83957-.8512,1.91979-.42559,3.83748-.84627,1.91716-.41943,3.82908-.82653,1.91139-.40587,3.81439-.792,1.90248-.3849,3.7934-.74267,1.8904-.35653,3.76613-.67855,1.8752-.32077,3.73255-.59963,1.85683-.27762,3.69268-.5059,1.83531-.22706,3.6465-.39737,1.81067-.16909,3.594-.27406,1.78287-.10374,3.53529-.13593,1.75191-.031,3.47023.017,1.7178.0492,3.39888.18471,1.68056.13674,3.32123.36722,1.64014.23171,3.23728.56454,1.59662.334,3.14706.77665,1.5499.44382,3.05051,1.00356,1.50008.561,2.94769,1.24528,1.44709.68552,2.83857,1.50177,1.39095.8175,2.72314,1.7731,1.33167.95684,2.60143,2.0592,1.26923,1.10358,2.47341,2.3601a19.78716,19.78716,0,0,0,1.96453,1.78794,23.78553,23.78553,0,0,0,2.27778,1.60071,29.34726,29.34726,0,0,0,2.576,1.42057q1.36007.66645,2.85926,1.24755,1.49793.58172,3.12749,1.08163,1.62831.50052,3.38072.92281,1.75117.4229,3.61895.7711,1.86652.34879,3.84217.62647,1.97439.27828,4.05039.489,2.07476.21129,4.24361.35857,2.16761.14787,4.42182.23527,2.253.088,4.585.11907,2.33082.03166,4.73324.01,2.40116-.02111,4.86643-.092,2.464-.07032,4.98463-.18689,2.51935-.116,5.08782-.27467,2.56722-.1581,5.176-.35535,2.60755-.19667,5.24921-.42893,2.6404-.23166,5.30739-.49538,2.66573-.26313,5.35057-.55476,2.68357-.291,5.37873-.607,2.69391-.31539,5.3919-.65217,2.69676-.3362,5.39009-.69023,2.69208-.35344,5.37325-.72118,2.67993-.36714,5.34142-.745,2.66024-.3773,5.29456-.76176,2.63309-.3839,5.23274-.77141,2.5984-.38692,5.15587-.77393,2.55622-.38641,5.064-.76937,2.50654-.38235,4.95715-.75768l.13021,2.21825.1302,2.21824.12654,2.15592.12654,2.15593c-1.28245.05435-2.69863.12-4.23424.2022s-3.19064.18082-4.95082.30112q-2.30928.15783-4.62982.3433-2.32024.18474-4.65.39274-2.32942.20728-4.66654.43349-2.33682.22547-4.67956.46548-2.34244.23928-4.689.48875-2.3463.24874-4.695.5033-2.34834.25383-4.69731.50912-2.34867.25457-4.69615.50622-2.34719.25092-4.6914.49457-2.34391.24291-4.68311.47421-2.33891.23055-4.67128.44511-2.33208.21384-4.65587.4073-2.32349.19273-4.63693.36075-2.31313.16729-4.61443.30548-2.301.13746-4.58838.24147-2.2871.10329-4.55877.16875-2.27141.06474-4.52563.08729-2.25393.02182-4.48891-.00289-2.2347-.02545-4.44865-.10181-2.21367-.07709-4.40484-.20944-2.19087-.13308-4.35746-.32581-2.16631-.19346-4.30656-.45091-2.13994-.25818-4.25207-.58472-2.11184-.32729-4.19406-.72728-2.08194-.40073-4.13248-.87855-2.05026-.47856-4.06735-1.03856-2.01681-.56073-3.99867-1.20728-1.98158-.64728-3.92644-1.38475-1.60516-.60933-3.22695-1.14308-1.62165-.53435-3.25915-.99669-1.63737-.46293-3.28978-.85747-1.65228-.39514-3.31882-.72547-1.66639-.33094-3.34626-.60068-1.67973-.27033-3.37215-.48306-1.69227-.21334-3.39643-.37267-1.704-.15993-3.41914-.26947-1.715-.11013-3.44025-.17345-1.72515-.06393-3.4598-.08465-1.73452-.02133-3.47775-.00306-1.74309.01769-3.49412.07136-1.75088.05307-3.50889.13854-1.75788.08489-3.5221.19855-1.76408.11308-3.53371.25136-1.7695.13769-3.54374.29695-1.77412.15869-3.5522.33536-1.778.17609-3.55906.36656-1.781.18989-3.56434.39057-1.78323.20009-3.568.40736-1.78467.20668-3.57014.417-1.78535.20967-3.57067.41936-1.78521.20907-3.56963.41455-1.78428.20489-3.567.40256-1.78257.19707-3.56276.38336-1.78005.18569-3.557.357-1.77675.17068-3.54955.32336-1.77267.15207-3.54058.28255-1.76778.12989-3.53.23456Q81.15178,205.13225,79.396,205.20753Z" transform="translate(-79.39601 -183.1817)"/></svg>