<svg id="Layer_1" data-name="Layer 1" xmlns="http://www.w3.org/2000/svg" viewBox="0 0 239.17952 28.7878"><defs><style>.cls-1{fill:#231f20;}</style></defs><path class="cls-1" d="M79.396,205.20753l.02944-5.33638.02657-4.81559c1.86268-.16429,4.36261-.41284,7.3077-.82927,2.46668-.34879,4.96134-.76334,7.47559-1.22392s5.04808-.96721,7.5931-1.50016,5.10125-1.09218,7.66027-1.658,5.12083-1.13822,7.677-1.69747,5.10684-1.10533,7.64347-1.61854,5.05927-.99352,7.55953-1.42122,4.97813-.8028,7.42523-1.10553,4.8634-.53311,7.24054-.67143,4.71512-.18453,7.00552-.11895a60.418,60.418,0,0,1,6.72011.55193,47.10471,47.10471,0,0,1,6.38434,1.34119,39.15742,39.15742,0,0,1,5.9982,2.24884,35.69276,35.69276,0,0,1,5.56171,3.27487,36.47333,36.47333,0,0,1,5.07484,4.4193,21.63632,21.63632,0,0,0,4.24231,3.38865,32.7598,32.7598,0,0,0,5.43529,2.66812,51.23957,51.23957,0,0,0,6.50821,2.00444c2.3349.56385,4.82859,1.02655,7.46112,1.39757s5.40385.65039,8.294.84755,5.8991.3121,9.00684.35434,6.31432.01173,9.59967-.082,6.64951-.25076,10.07245-.46156,6.90469-.47538,10.42523-.78428,7.07983-.66209,10.658-1.05014,7.175-.81092,10.77063-1.25918,7.19012-.92189,10.76334-1.41141,7.12521-.99493,10.636-1.50677,6.98032-1.03012,10.38861-1.54534,6.75537-1.0274,10.02118-1.52705q.13018,2.21825.26041,4.43649.12652,2.15593.25308,4.31185c-2.56491.10871-5.6647.26272-9.18506.50332q-4.61856.31566-9.27978.736-4.65885.41457-9.3461.899-4.68489.47858-9.384.99205-4.69669.50766-9.39346,1.01534-4.69437.50184-9.37451.96878-4.6778.4611-9.32715.85241-4.647.38547-9.25136.66623-4.602.27492-9.14715.41022-4.54281.12948-9.01454.0844-4.46938-.05091-8.85349-.31125-4.38174-.26618-8.664-.77672-4.2799-.51636-8.44613-1.312-4.16387-.80147-8.19983-1.91711-4.03361-1.12146-7.92511-2.592-3.21032-1.21868-6.4861-2.13977-3.27473-.92588-6.6086-1.58294-3.33279-.66189-6.71841-1.08374-3.38454-.42669-6.81557-.64214-3.42995-.22025-6.9-.2581-3.469-.04266-6.97187.0683-3.50175.10615-7.031.33709-3.52817.22617-7.07745.54831-3.54824.31737-7.11126.70192-3.562.37977-7.13238.79793-3.56936.41335-7.14081.83632-3.57042.41814-7.1366.81711-3.56512.39415-7.11971.74032-3.55352.34135-7.09013.60591Q82.90834,205.05339,79.396,205.20753Z" transform="translate(-79.39601 -183.1817)"/></svg>