<svg id="Layer_1" data-name="Layer 1" xmlns="http://www.w3.org/2000/svg" viewBox="0 0 239.20517 24.17187"><defs><style>.cls-1{fill:#231f20;}</style></defs><path class="cls-1" d="M318.53113,194.85968l.00889,2.43805.0089,2.43805.00931,2.5526.00931,2.55259c-1.27492.05758-2.69.1274-4.22962.21511s-3.20389.1933-4.9772.32244q-2.31619.16867-4.64491.367-2.32837.19752-4.66729.42-2.33859.22168-4.68574.46363-2.34683.24117-4.70021.498-2.35309.256-4.71077.52287-2.35736.26612-4.71733.53847-2.35966.27156-4.72.5447-2.36.27234-4.71865.54158-2.35836.26845-4.7134.52912-2.35472.25987-4.70417.50729-2.34913.24663-4.691.47611-2.34156.22871-4.67388.43557-2.332.2061-4.6528.3857-2.32048.17882-4.62779.32645-2.307.14685-4.59881.25786-2.29149.11022-4.56588.17991-2.27406.06892-4.529.09262-2.25463.02292-4.48819-.004-2.23322-.02775-4.4434-.11006-2.20985-.08307-4.39467-.22541-2.1845-.1431-4.342-.35012-2.15718-.2078-4.28536-.4842-2.12787-.27717-4.22478-.62761-2.09658-.35122-4.16025-.78039-2.06332-.43-4.09176-.94253-2.02809-.51335-4.01932-1.114-1.99089-.60143-3.94294-1.29484-1.95171-.6942-3.8626-1.485-1.60777-.66616-3.23188-1.24974-1.624-.58424-3.26347-1.08981-1.63936-.50622-3.29348-.93772-1.654-.43215-3.322-.79351-1.66784-.362-3.34888-.65716-1.68091-.2958-3.37426-.52868-1.69322-.23353-3.39807-.40807-1.70473-.1752-3.42034-.29533-1.71546-.12078-3.441-.19043-1.72543-.07032-3.4602-.09343-1.73463-.02376-3.4778-.00427-1.743.01884-3.49385.077-1.75068.05753-3.50835.15043-1.75755.09225-3.5213.216-1.76362.12306-3.53268.27366-1.76892.14994-3.54251.32348-1.77347.17289-3.55081.36544-1.77721.19189-3.55753.39953-1.78019.207-3.56271.42573-1.78239.21812-3.56633.44409-1.78383.22534-3.56841.4546-1.78446.2286-3.56892.45721-1.78434.22794-3.56789.452-1.78343.22337-3.56531.43886-1.78173.21483-3.56115.41787-1.77928.20239-3.55546.389-1.776.186-3.54822.35232-1.772.16568-3.53941.30775-1.76724.14142-3.529.25531-1.76169.11324-3.51716.195l-.00848-2.57-.00848-2.57-.008-2.436-.008-2.436c1.00129-.05266,2.09693-.116,3.27726-.195s2.44535-.17338,3.78539-.28818q1.77231-.15184,3.55036-.33049,1.77789-.17794,3.56063-.37847,1.78258-.19982,3.5691-.418,1.78635-.21746,3.57574-.449,1.78923-.23086,3.58058-.47161,1.79118-.24,3.58359-.48571,1.79226-.245,3.58481-.49136,1.79241-.24568,3.58421-.48855,1.79165-.24216,3.58178-.47725,1.79-.23439,3.57756-.45749,1.78742-.22241,3.57151-.42927,1.784-.20618,3.56366-.39258,1.77957-.1857,3.554-.34742,1.77428-.161,3.5425-.29378,1.76808-.13209,3.52921-.23171,1.761-.09893,3.5141-.16115,1.753-.06151,3.49718-.08212,1.74407-.01989,3.47845.00539,1.73424.026,3.4579.10134,1.72351.07606,3.43555.20577,1.71187.13039,3.41136.31866,1.69934.189,3.38538.44,1.6859.25177,3.35758.56986,1.67154.31881,3.328.70816,1.65628.39006,3.29655.85491,1.64012.46556,3.26331,1.01015,1.623.54529,3.22826,1.17385,1.60506.62925,3.19139,1.346,1.92228.86947,3.88451,1.63116,1.96193.76254,3.96193,1.42242,1.99968.66075,4.03552,1.224,2.03553.56408,4.10531,1.03574,2.06949.47254,4.17132.85781,2.10151.38613,4.23349.69012,2.13165.30484,4.29186.53271,2.15988.2287,4.34643.38557,2.18622.15771,4.39719.24868,2.21066.09185,4.44414.12207,2.23317.0311,4.48728.00573,2.25381-.02451,4.52664-.10035,2.27251-.075,4.56215-.19617,2.28933-.12033,4.59389-.28172,2.30423-.16053,4.6218-.357,2.31724-.19562,4.64591-.422,2.32834-.22556,4.66622-.47677,2.33755-.25037,4.68272-.52126,2.34485-.27,4.6954-.55548,2.35025-.2846,4.70429-.57944,2.35372-.294,4.70936-.59311,2.35531-.29828,4.71062-.59654,2.355-.29742,4.70811-.5897,2.35278-.29142,4.70174-.57259,2.34866-.2803,4.6916-.54521,2.34262-.26406,4.67764-.50757,2.3347-.24267,4.65988-.45966,2.32486-.21614,4.6383-.40149,2.31313-.18448,4.61292-.333Q316.24688,194.96633,318.53113,194.85968Z" transform="translate(-79.36237 -188.30417)"/></svg>