<svg id="Layer_1" data-name="Layer 1" xmlns="http://www.w3.org/2000/svg" viewBox="0 0 199.04 221.312"><defs><style>.cls-1{fill:#231f20;}</style></defs><path class="cls-1" d="M270.6,310.656c-2.328-.223-4.733-.455-7.178-.757s-4.927-.675-7.411-1.184a59.2,59.2,0,0,1-7.413-1.993,44.05,44.05,0,0,1-7.183-3.184,33.677,33.677,0,0,1-7.466-5.659,31.393,31.393,0,0,1-5.336-7.146,27.143,27.143,0,0,1-2.862-8,22.738,22.738,0,0,1-.045-8.212,24.315,24.315,0,0,1,3.011-8.016,32.766,32.766,0,0,1,5.155-6.531,57.153,57.153,0,0,1,6.327-5.37c2.2-1.632,4.426-3.124,6.527-4.53l.184-.123.184-.123.183-.122.184-.123q2.934-1.966,5.805-4.047t5.668-4.265q2.8-2.184,5.51-4.468t5.332-4.656l.13-.118c.042-.038.083-.075.122-.112s.078-.072.115-.107l.107-.1c-.132-.051-.274-.1-.426-.151s-.312-.1-.483-.143-.35-.089-.538-.129-.386-.077-.592-.109a64.333,64.333,0,0,0-11.393-.717A91.348,91.348,0,0,0,245.34,231.5c-3.85.574-7.728,1.348-11.648,2.228s-7.882,1.866-11.9,2.867c-2.548.634-5.118,1.274-7.707,1.893s-5.2,1.215-7.822,1.764-5.267,1.05-7.922,1.476-5.325.777-8.007,1.027c-1.312.121-2.715.212-4.159.21a26.859,26.859,0,0,1-4.411-.346,18.74,18.74,0,0,1-4.38-1.274,15.515,15.515,0,0,1-4.066-2.572,14.874,14.874,0,0,1-4.187-6.033,17.8,17.8,0,0,1-1.031-7.063,25.469,25.469,0,0,1,1.476-7.274,30.542,30.542,0,0,1,3.334-6.667,55.622,55.622,0,0,1,6.28-7.774,74.923,74.923,0,0,1,7.3-6.6c2.562-2.042,5.23-3.948,7.94-5.779s5.46-3.586,8.188-5.327l.051-.032.051-.032.05-.033.051-.032c4.727-3.017,9.408-6.039,14-9.122s9.079-6.225,13.43-9.486,8.56-6.637,12.58-10.187a146.281,146.281,0,0,0,11.444-11.225c.983-1.08,2.007-2.249,3-3.492a43.45,43.45,0,0,0,2.83-3.932,27.214,27.214,0,0,0,2.232-4.277,17.707,17.707,0,0,0,1.21-4.528,15.835,15.835,0,0,0-.426-5.872,20.509,20.509,0,0,0-2.328-5.43,26.085,26.085,0,0,0-3.642-4.684,26.908,26.908,0,0,0-4.37-3.633,36.765,36.765,0,0,0-6.129-3.242,50.1,50.1,0,0,0-6.569-2.2c-2.23-.589-4.484-1.047-6.71-1.417s-4.426-.654-6.548-.892a189.784,189.784,0,0,0-24.924-1.125,206.2,206.2,0,0,0-25.448,2.1,221.49,221.49,0,0,0-25.614,5.279,234.545,234.545,0,0,0-25.427,8.405c-3.747,1.479-7.2,2.957-10.394,4.456s-6.135,3.022-8.856,4.587a87.61,87.61,0,0,0-7.552,4.851,72.217,72.217,0,0,0-6.48,5.25L90.11,134.1l-2.022-2.217-2.021-2.216-2.022-2.216a84.113,84.113,0,0,1,7.331-5.964,98.13,98.13,0,0,1,8.432-5.461c3.023-1.753,6.272-3.448,9.791-5.109s7.308-3.288,11.41-4.907a246.677,246.677,0,0,1,26.816-8.858,233.582,233.582,0,0,1,27.049-5.559,218.217,218.217,0,0,1,26.905-2.208,201.675,201.675,0,0,1,26.388,1.2c2.333.262,4.832.586,7.423,1.028s5.274,1,7.976,1.734a62.53,62.53,0,0,1,8.088,2.771,48.172,48.172,0,0,1,7.758,4.139,39.165,39.165,0,0,1,7.4,6.349,36.2,36.2,0,0,1,5.319,7.637,31.839,31.839,0,0,1,2.973,8.408,27.548,27.548,0,0,1,.36,8.662,29.252,29.252,0,0,1-1.687,6.8,37.5,37.5,0,0,1-2.975,6.093,52.522,52.522,0,0,1-3.723,5.362c-1.3,1.663-2.643,3.2-3.926,4.612a158.429,158.429,0,0,1-12.142,11.941c-4.238,3.757-8.652,7.312-13.2,10.731s-9.227,6.7-14,9.911-9.628,6.348-14.533,9.478l-.051.033-.051.032-.051.033-.051.032c-2.465,1.573-4.951,3.16-7.389,4.8s-4.828,3.33-7.1,5.111a66.592,66.592,0,0,0-6.4,5.657,43.708,43.708,0,0,0-5.283,6.436,18.481,18.481,0,0,0-1.673,3.156,15.942,15.942,0,0,0-.975,3.269,8.509,8.509,0,0,0-.069,2.9,3.441,3.441,0,0,0,1.042,2.049,4.226,4.226,0,0,0,1.579.814,9.888,9.888,0,0,0,2.052.352,20.041,20.041,0,0,0,2.235.032c.743-.026,1.468-.082,2.127-.144,2.455-.229,4.927-.557,7.406-.959s4.966-.877,7.451-1.4,4.968-1.094,7.44-1.685,4.933-1.2,7.373-1.812c4.13-1.028,8.3-2.066,12.5-3s8.433-1.766,12.7-2.383a102.45,102.45,0,0,1,12.9-1.1,75.67,75.67,0,0,1,13.081.86,21.435,21.435,0,0,1,5.523,1.6,14.831,14.831,0,0,1,4.153,2.737,10.885,10.885,0,0,1,2.568,3.67,10.126,10.126,0,0,1,.764,4.395,10.361,10.361,0,0,1-.678,3.257,12.24,12.24,0,0,1-1.408,2.633,16.522,16.522,0,0,1-1.676,2.018c-.551.571-1.07,1.041-1.478,1.411q-2.781,2.518-5.662,4.943t-5.85,4.744q-2.968,2.319-6.017,4.528t-6.163,4.3l-.186.124-.185.124-.185.124-.185.124c-1.8,1.2-3.615,2.419-5.345,3.67a51.826,51.826,0,0,0-4.833,3.889,23.475,23.475,0,0,0-3.716,4.266,12.961,12.961,0,0,0-2,4.8,11.262,11.262,0,0,0,.215,4.857,15.639,15.639,0,0,0,2.063,4.575,20.961,20.961,0,0,0,3.363,3.955,21.842,21.842,0,0,0,4.117,3,32.554,32.554,0,0,0,5.63,2.447,49.086,49.086,0,0,0,6.08,1.563c2.082.405,4.207.713,6.345.97s4.289.463,6.422.668l-.287,2.986-.286,2.986-.287,2.987Z" transform="translate(-84.045 -89.344)"/></svg>