<svg id="Layer_1" data-name="Layer 1" xmlns="http://www.w3.org/2000/svg" viewBox="0 0 199.04 221.312"><defs><style>.cls-1{fill:#231f20;}</style></defs><path class="cls-1" d="M270.6,310.656c-1.164-.112-2.348-.225-3.545-.349s-2.411-.257-3.633-.408-2.454-.32-3.69-.514-2.479-.416-3.721-.67-2.483-.542-3.721-.871-2.469-.7-3.692-1.122-2.436-.891-3.635-1.419-2.383-1.114-3.548-1.765a33.882,33.882,0,0,1-3.978-2.6,33.245,33.245,0,0,1-3.488-3.055,32.269,32.269,0,0,1-2.956-3.427,30.607,30.607,0,0,1-2.38-3.719,28.4,28.4,0,0,1-1.762-3.931,25.96,25.96,0,0,1-1.1-4.066,23.584,23.584,0,0,1-.4-4.118,21.952,21.952,0,0,1,.351-4.094,23.714,23.714,0,0,1,1.177-4.214,25.291,25.291,0,0,1,1.834-3.8,29.658,29.658,0,0,1,2.37-3.431,36.834,36.834,0,0,1,2.785-3.1c.984-.983,2.017-1.917,3.078-2.81s2.151-1.744,3.249-2.56,2.205-1.6,3.3-2.349,2.178-1.478,3.228-2.181l.092-.061.092-.062.092-.061.092-.062.091-.061.092-.061.092-.062.092-.061q1.467-.984,2.919-2t2.886-2.052q1.435-1.039,2.853-2.106t2.815-2.159q1.4-1.092,2.776-2.209t2.734-2.259q1.356-1.142,2.689-2.305t2.643-2.351l.066-.059.064-.059.062-.056.06-.056.059-.054.056-.053.054-.051.053-.05c-.066-.026-.135-.051-.206-.076l-.22-.075c-.075-.025-.154-.049-.234-.073s-.163-.047-.249-.07-.172-.045-.262-.067-.182-.042-.276-.062-.191-.04-.29-.058-.2-.035-.3-.051c-1.9-.3-3.793-.5-5.691-.612s-3.8-.147-5.7-.105-3.811.156-5.723.332-3.831.413-5.756.7-3.857.624-5.8,1-3.891.789-5.851,1.229-3.93.906-5.913,1.388-3.978.978-5.987,1.479q-1.911.476-3.838.952t-3.869.941q-1.943.464-3.9.908t-3.924.856q-1.97.412-3.95.784t-3.972.692q-1.992.32-3.994.58t-4.013.447c-.656.061-1.335.114-2.03.151s-1.407.06-2.129.059-1.455-.025-2.192-.08-1.479-.142-2.219-.266a20.2,20.2,0,0,1-2.212-.5,17.479,17.479,0,0,1-2.168-.776,15.776,15.776,0,0,1-2.09-1.1,15.337,15.337,0,0,1-1.976-1.472,15.179,15.179,0,0,1-2.528-2.836,14.821,14.821,0,0,1-1.659-3.2,16.357,16.357,0,0,1-.869-3.454,19.437,19.437,0,0,1-.162-3.609,23.4,23.4,0,0,1,.466-3.662,27.46,27.46,0,0,1,1.01-3.612,30.207,30.207,0,0,1,1.476-3.461,30.687,30.687,0,0,1,1.858-3.206q1.41-2.121,2.988-4.057t3.292-3.717q1.714-1.782,3.548-3.423t3.756-3.173q1.922-1.531,3.914-2.968t4.026-2.811q2.031-1.373,4.087-2.7t4.1-2.63l.025-.016.026-.016.025-.016.026-.016.025-.017.025-.016.026-.016.025-.016q3.546-2.264,7.05-4.536T216.82,177q3.44-2.311,6.8-4.676t6.627-4.81q3.264-2.445,6.414-4.984t6.166-5.2q3.015-2.662,5.882-5.462t5.562-5.763c.491-.54.993-1.1,1.5-1.685s1.009-1.185,1.507-1.807.988-1.261,1.463-1.917.933-1.328,1.367-2.015.842-1.388,1.217-2.1.717-1.44,1.015-2.176a19.676,19.676,0,0,0,.76-2.239,16.245,16.245,0,0,0,.45-2.289,15.173,15.173,0,0,0,.061-2.972,16.714,16.714,0,0,0-.487-2.9,19.115,19.115,0,0,0-.963-2.789,22.071,22.071,0,0,0-1.365-2.641,25.034,25.034,0,0,0-1.693-2.454,27.025,27.025,0,0,0-1.949-2.23,27.618,27.618,0,0,0-2.131-1.967,26.142,26.142,0,0,0-2.239-1.666,34.237,34.237,0,0,0-2.99-1.767q-1.536-.808-3.139-1.475t-3.248-1.214q-1.646-.548-3.321-.986c-1.115-.3-2.236-.556-3.357-.791s-2.24-.441-3.353-.626-2.219-.349-3.313-.5-2.174-.277-3.235-.4q-6.137-.69-12.375-.969t-12.549-.156q-6.312.124-12.681.651t-12.767,1.452q-6.4.924-12.808,2.245t-12.806,3.034q-6.4,1.713-12.759,3.815t-12.668,4.59q-2.809,1.109-5.4,2.22t-4.99,2.236q-2.4,1.125-4.606,2.269t-4.25,2.318q-2.041,1.175-3.925,2.384t-3.627,2.467q-1.744,1.257-3.359,2.567t-3.121,2.683l-1.011-1.108L90.11,134.1,89.1,132.988l-1.011-1.108-1.011-1.108-1.01-1.108-1.011-1.108-1.011-1.108q1.716-1.566,3.544-3.054t3.787-2.91q1.96-1.422,4.062-2.784t4.37-2.677q2.268-1.315,4.71-2.589t5.081-2.52q2.64-1.247,5.487-2.47t5.923-2.437q6.644-2.622,13.356-4.838t13.46-4.02q6.75-1.8,13.519-3.2t13.53-2.364q6.759-.974,13.494-1.526t13.411-.682q6.678-.128,13.282.171t13.106,1.029c1.166.131,2.374.278,3.615.447s2.512.36,3.808.581,2.614.472,3.946.758,2.679.61,4.03.976,2.706.776,4.057,1.236,2.7.969,4.031,1.535,2.651,1.191,3.948,1.878,2.569,1.439,3.81,2.261a39.528,39.528,0,0,1,3.942,2.981,38.656,38.656,0,0,1,3.457,3.368,37.271,37.271,0,0,1,2.936,3.69,35.216,35.216,0,0,1,2.383,3.947,33.08,33.08,0,0,1,1.8,4.14,30.727,30.727,0,0,1,1.176,4.268,28.412,28.412,0,0,1,.523,4.332,26.648,26.648,0,0,1-.163,4.33,28.157,28.157,0,0,1-.648,3.489,30.669,30.669,0,0,1-1.039,3.314c-.4,1.075-.86,2.121-1.36,3.136s-1.042,2-1.615,2.957-1.178,1.879-1.8,2.773-1.268,1.757-1.921,2.589-1.313,1.632-1.971,2.4-1.314,1.506-1.955,2.211q-2.882,3.168-5.922,6.146t-6.22,5.8q-3.178,2.817-6.483,5.492t-6.716,5.239q-3.411,2.565-6.915,5.034t-7.082,4.877q-3.577,2.407-7.216,4.769t-7.317,4.709l-.026.016-.025.017-.026.016-.025.016-.026.016-.025.017-.025.016-.026.016q-1.848,1.18-3.7,2.375t-3.684,2.423q-1.828,1.23-3.613,2.5t-3.488,2.609q-1.706,1.336-3.313,2.746t-3.086,2.911c-.985,1-1.924,2.035-2.807,3.106a40.044,40.044,0,0,0-2.476,3.33,17.7,17.7,0,0,0-.911,1.534c-.28.529-.536,1.073-.762,1.622a17.332,17.332,0,0,0-.587,1.65,14.41,14.41,0,0,0-.388,1.619,10.556,10.556,0,0,0-.16,1.526,6.747,6.747,0,0,0,.091,1.374,4.247,4.247,0,0,0,.369,1.161,2.871,2.871,0,0,0,.673.888,3.4,3.4,0,0,0,.713.473,5.2,5.2,0,0,0,.866.341,8.211,8.211,0,0,0,.985.225c.344.057.7.1,1.067.127s.738.043,1.113.047.75,0,1.122-.015.738-.034,1.095-.059.7-.054,1.032-.085q1.84-.171,3.694-.414t3.712-.545q1.86-.3,3.723-.655t3.728-.745q1.864-.393,3.725-.817t3.715-.868q1.854-.444,3.7-.9t3.675-.912c2.065-.514,4.139-1.031,6.222-1.535s4.175-1,6.275-1.466,4.208-.908,6.325-1.31,4.242-.765,6.375-1.073,4.274-.564,6.424-.752,4.306-.307,6.471-.345,4.338,0,6.518.143,4.368.373,6.563.717a23.427,23.427,0,0,1,2.919.644,19.619,19.619,0,0,1,2.6.955,16.207,16.207,0,0,1,2.262,1.239,13.577,13.577,0,0,1,1.891,1.5,11.61,11.61,0,0,1,1.5,1.731,10.363,10.363,0,0,1,1.072,1.939,9.978,9.978,0,0,1,.621,2.12,10.424,10.424,0,0,1,.143,2.275,10.3,10.3,0,0,1-.218,1.707,10.53,10.53,0,0,1-.46,1.55,11.462,11.462,0,0,1-.642,1.394,12.971,12.971,0,0,1-.766,1.239c-.27.388-.551.749-.834,1.086s-.566.647-.842.932-.543.546-.793.781-.481.445-.685.63q-1.391,1.258-2.806,2.495t-2.856,2.448q-1.44,1.212-2.9,2.4t-2.948,2.346q-1.483,1.159-2.989,2.292t-3.028,2.236q-1.522,1.1-3.065,2.178t-3.1,2.118l-.093.062-.093.062-.092.062-.093.062-.092.062-.093.062-.092.062-.093.062c-.9.6-1.8,1.207-2.7,1.817s-1.781,1.227-2.646,1.853-1.709,1.26-2.518,1.907-1.586,1.307-2.315,1.982a28.129,28.129,0,0,0-2.035,2.076,19.613,19.613,0,0,0-1.681,2.19,14.522,14.522,0,0,0-1.251,2.323,11.84,11.84,0,0,0-.744,2.477,10.686,10.686,0,0,0-.158,2.442,12.057,12.057,0,0,0,.373,2.415,14.282,14.282,0,0,0,.835,2.344,17.08,17.08,0,0,0,1.228,2.231,19.952,19.952,0,0,0,1.553,2.076,22,22,0,0,0,1.81,1.879,22.4,22.4,0,0,0,2,1.641,21.1,21.1,0,0,0,2.118,1.359,29.881,29.881,0,0,0,2.747,1.352q1.41.609,2.883,1.095t3,.873q1.523.389,3.085.69t3.151.54c1.059.16,2.125.3,3.194.43s2.141.244,3.213.353,2.143.212,3.209.315L271.6,300.2l-.144,1.493-.143,1.493-.143,1.493-.144,1.494-.143,1.493-.143,1.493Z" transform="translate(-84.045 -89.344)"/></svg>