<svg id="Layer_1" data-name="Layer 1" xmlns="http://www.w3.org/2000/svg" viewBox="0 0 296.147 262.018"><defs><style>.cls-1{fill:#231f20;}</style></defs><path class="cls-1" d="M323.949,334.277c-1.732-.133-3.493-.267-5.275-.413s-3.586-.3-5.4-.483-3.651-.379-5.492-.61-3.687-.491-5.535-.792-3.695-.642-5.536-1.032-3.674-.829-5.494-1.327-3.624-1.056-5.408-1.681-3.546-1.319-5.279-2.09a53.288,53.288,0,0,1-5.919-3.082,48.1,48.1,0,0,1-5.19-3.617,42.463,42.463,0,0,1-4.4-4.057,36.482,36.482,0,0,1-3.541-4.4,30.787,30.787,0,0,1-2.622-4.655,26.04,26.04,0,0,1-1.637-4.813,22.466,22.466,0,0,1-.589-4.877,20.776,20.776,0,0,1,.523-4.846,23.775,23.775,0,0,1,1.751-4.989,27.809,27.809,0,0,1,2.729-4.5,35.952,35.952,0,0,1,3.527-4.062,48.947,48.947,0,0,1,4.143-3.67c1.463-1.164,3-2.27,4.579-3.327s3.2-2.064,4.834-3.03,3.281-1.891,4.909-2.782,3.24-1.749,4.8-2.582l.137-.072.137-.073.136-.073.137-.072.136-.073.137-.073.137-.072.136-.073q2.182-1.164,4.343-2.362t4.3-2.429q2.135-1.231,4.244-2.494t4.189-2.556q2.079-1.293,4.13-2.616t4.067-2.673q2.019-1.351,4-2.73t3.933-2.783l.1-.07.095-.069.093-.068.089-.065.087-.064.083-.063.081-.06.078-.06c-.1-.03-.2-.06-.305-.09s-.215-.059-.328-.088l-.349-.087c-.119-.028-.243-.056-.369-.083s-.257-.053-.391-.079-.27-.05-.411-.074-.283-.046-.43-.068-.3-.042-.45-.061q-4.233-.525-8.468-.724t-8.483-.125q-4.25.075-8.516.394t-8.564.829q-4.3.51-8.626,1.183t-8.7,1.454q-4.375.781-8.8,1.643t-8.908,1.751q-2.843.564-5.71,1.128t-5.757,1.113q-2.889.55-5.8,1.076t-5.839,1.014q-2.929.487-5.877.928t-5.91.819q-2.964.378-5.942.686t-5.971.53c-.976.072-1.986.134-3.02.179s-2.094.071-3.168.069-2.164-.03-3.261-.095-2.2-.167-3.3-.315-2.2-.341-3.29-.589a30.378,30.378,0,0,1-3.227-.919,26.161,26.161,0,0,1-3.109-1.3,23.33,23.33,0,0,1-2.939-1.742,20.125,20.125,0,0,1-3.763-3.359,16.627,16.627,0,0,1-2.468-3.784,16.276,16.276,0,0,1-1.293-4.09,18.406,18.406,0,0,1-.24-4.273,22.419,22.419,0,0,1,.692-4.335,27.549,27.549,0,0,1,1.5-4.277,32.418,32.418,0,0,1,2.195-4.1,35.4,35.4,0,0,1,2.765-3.795q2.1-2.513,4.446-4.8t4.9-4.4q2.55-2.109,5.279-4.052t5.588-3.756q2.859-1.814,5.825-3.515t5.989-3.327q3.022-1.626,6.081-3.194t6.1-3.113l.038-.019.037-.019.038-.02.038-.019.038-.019.038-.019.037-.019.038-.019q5.275-2.679,10.49-5.371t10.333-5.429q5.118-2.736,10.122-5.536t9.86-5.694q4.856-2.9,9.543-5.9t9.175-6.159q4.485-3.153,8.751-6.467t8.276-6.823c.731-.639,1.477-1.305,2.226-2s1.5-1.4,2.241-2.139,1.471-1.493,2.177-2.269,1.389-1.573,2.034-2.386,1.254-1.644,1.812-2.488a26.568,26.568,0,0,0,1.51-2.577,20.235,20.235,0,0,0,1.13-2.65,15.635,15.635,0,0,0,.669-2.71,14.329,14.329,0,0,0,.092-3.519,16.083,16.083,0,0,0-.726-3.433,19.641,19.641,0,0,0-1.432-3.3,24.637,24.637,0,0,0-2.031-3.126,30.345,30.345,0,0,0-2.519-2.906,35.7,35.7,0,0,0-2.9-2.64,39.137,39.137,0,0,0-3.17-2.329c-1.09-.719-2.206-1.379-3.331-1.973q-2.162-1.138-4.45-2.092t-4.67-1.746c-1.586-.528-3.2-1-4.833-1.437s-3.283-.819-4.941-1.168-3.327-.658-4.994-.935-3.333-.523-4.989-.743-3.3-.412-4.93-.586-3.234-.328-4.813-.469q-9.129-.816-18.412-1.148t-18.673-.184q-9.39.147-18.867.771T183.872,89q-9.519,1.095-19.058,2.659t-19.053,3.592q-9.516,2.026-18.984,4.516T107.93,105.2q-4.182,1.314-8.041,2.629t-7.425,2.648q-3.565,1.332-6.853,2.686t-6.324,2.744q-3.038,1.39-5.839,2.823t-5.4,2.921q-2.6,1.488-5,3.038t-4.643,3.177l-1.5-1.312-1.5-1.312-1.5-1.312-1.5-1.312-1.5-1.312L49.385,120l-1.5-1.312-1.5-1.312q2.554-1.854,5.273-3.616t5.635-3.445q2.916-1.683,6.044-3.3t6.5-3.169q3.372-1.557,7.007-3.066T84.4,97.8q3.927-1.475,8.163-2.924t8.813-2.886q9.885-3.1,19.872-5.727t20.027-4.76q10.042-2.136,20.114-3.783t20.131-2.8q10.057-1.152,20.077-1.806t19.955-.807q9.935-.151,19.762.2t19.5,1.218c1.735.155,3.533.329,5.378.529s3.738.427,5.666.689,3.889.558,5.872.9,3.985.721,6,1.155,4.027.918,6.037,1.462,4.014,1.148,6,1.819,3.946,1.409,5.874,2.223,3.823,1.7,5.67,2.677a59.76,59.76,0,0,1,5.865,3.529,53.553,53.553,0,0,1,5.143,3.988,47.132,47.132,0,0,1,4.368,4.368,41.123,41.123,0,0,1,3.546,4.673,35.44,35.44,0,0,1,2.673,4.9,30.645,30.645,0,0,1,1.751,5.053,27.243,27.243,0,0,1,.779,5.129,25.288,25.288,0,0,1-.244,5.127,27.15,27.15,0,0,1-.964,4.13A31.182,31.182,0,0,1,328.674,130a37.309,37.309,0,0,1-2.025,3.713c-.743,1.2-1.55,2.369-2.4,3.5s-1.752,2.226-2.681,3.284-1.886,2.08-2.857,3.065-1.954,1.932-2.933,2.842-1.955,1.783-2.908,2.618q-4.289,3.751-8.812,7.276t-9.254,6.861q-4.729,3.336-9.647,6.5t-9.992,6.2q-5.074,3.036-10.289,5.96T254.336,187.6q-5.322,2.85-10.736,5.646t-10.888,5.575l-.038.02-.037.019-.038.019-.038.019-.038.02-.038.019-.038.019-.038.019q-2.751,1.4-5.512,2.812t-5.482,2.869q-2.721,1.455-5.375,2.962c-1.765,1.007-3.5,2.035-5.191,3.089s-3.338,2.137-4.929,3.251-3.126,2.261-4.592,3.447-2.862,2.409-4.176,3.677a50.182,50.182,0,0,0-3.684,3.942,20.934,20.934,0,0,0-1.355,1.816,20.583,20.583,0,0,0-1.134,1.92,18.288,18.288,0,0,0-.874,1.954,14.128,14.128,0,0,0-.576,1.917,9.919,9.919,0,0,0-.239,1.807,6.473,6.473,0,0,0,.136,1.626,4.355,4.355,0,0,0,.549,1.375,3.627,3.627,0,0,0,1,1.051,5.355,5.355,0,0,0,1.06.561,9.2,9.2,0,0,0,1.289.4c.462.11.954.2,1.466.266s1.044.117,1.587.15,1.1.051,1.656.056,1.116,0,1.669-.017,1.1-.04,1.629-.07,1.046-.065,1.536-.1q2.739-.2,5.5-.491t5.523-.644q2.766-.357,5.54-.776t5.546-.882q2.774-.465,5.543-.967t5.527-1.028q2.758-.525,5.5-1.065t5.466-1.08q4.611-.913,9.259-1.818t9.335-1.735q4.688-.829,9.412-1.552t9.485-1.27q4.761-.547,9.558-.889t9.628-.41c3.221-.045,6.454.006,9.7.171s6.5.441,9.766.848a42.691,42.691,0,0,1,4.343.763,34.169,34.169,0,0,1,3.874,1.13,26.479,26.479,0,0,1,3.365,1.467,20.207,20.207,0,0,1,2.815,1.774,15.05,15.05,0,0,1,2.224,2.049,11.79,11.79,0,0,1,1.6,2.295,10.037,10.037,0,0,1,.924,2.51,9.973,9.973,0,0,1-.111,4.715,10.7,10.7,0,0,1-.684,1.835,12.418,12.418,0,0,1-.955,1.65A15.172,15.172,0,0,1,339.4,247.8c-.4.459-.819.887-1.24,1.285s-.843.767-1.253,1.1-.808.646-1.179.924-.716.527-1.02.746q-2.069,1.491-4.175,2.954t-4.249,2.9q-2.142,1.434-4.319,2.839t-4.385,2.777q-2.208,1.373-4.447,2.714t-4.506,2.647q-2.266,1.306-4.56,2.579t-4.61,2.507l-.138.074-.138.073-.137.073-.138.074-.138.073-.137.074-.138.073-.138.074c-1.339.712-2.684,1.428-4.015,2.151s-2.651,1.453-3.938,2.194-2.542,1.492-3.747,2.258-2.359,1.547-3.444,2.347a38.587,38.587,0,0,0-3.028,2.457,24.931,24.931,0,0,0-2.5,2.593,16.445,16.445,0,0,0-1.861,2.751,11.969,11.969,0,0,0-1.108,2.931,10.151,10.151,0,0,0-.234,2.892,11.571,11.571,0,0,0,.555,2.859,14.863,14.863,0,0,0,1.242,2.775,19.565,19.565,0,0,0,1.827,2.641,24.966,24.966,0,0,0,2.311,2.458,29.863,29.863,0,0,0,2.693,2.226,33.31,33.31,0,0,0,6.126,3.551q1.987.884,4.087,1.6t4.289,1.3q2.19.579,4.457,1.034t4.59.816q2.322.36,4.688.64t4.752.508q2.387.228,4.781.419t4.774.372l-.213,1.768-.213,1.768-.213,1.768-.213,1.768-.214,1.767-.213,1.768-.213,1.768Z" transform="translate(-46.377 -72.259)"/></svg>