<svg id="Layer_1" data-name="Layer 1" xmlns="http://www.w3.org/2000/svg" viewBox="0 0 268.875 246.11"><defs><style>.cls-1{fill:#231f20;}</style></defs><path class="cls-1" d="M306.825,329.545c-3.144-.249-6.393-.506-9.695-.842s-6.657-.751-10.011-1.316a94.027,94.027,0,0,1-10.015-2.216,66.57,66.57,0,0,1-9.7-3.542,45.662,45.662,0,0,1-10.085-6.293,36.384,36.384,0,0,1-7.209-7.946,26.968,26.968,0,0,1-3.866-8.893,20.909,20.909,0,0,1-.061-9.132,24.325,24.325,0,0,1,4.068-8.915,38.616,38.616,0,0,1,6.964-7.263,75.523,75.523,0,0,1,8.546-5.971c2.967-1.814,5.98-3.474,8.818-5.038l.248-.136.248-.137.248-.136.248-.137q3.963-2.187,7.843-4.5t7.656-4.743q3.775-2.428,7.442-4.969t7.2-5.177l.176-.131.165-.125c.053-.041.105-.08.154-.119l.145-.113c-.179-.056-.37-.112-.575-.167s-.422-.109-.652-.16-.473-.1-.728-.143-.521-.086-.8-.122a105.539,105.539,0,0,0-15.39-.8,149.542,149.542,0,0,0-15.506,1.148c-5.2.639-10.439,1.5-15.735,2.477s-10.647,2.076-16.075,3.189c-3.443.7-6.914,1.417-10.412,2.1s-7.02,1.352-10.566,1.962-7.114,1.168-10.7,1.642-7.194.864-10.816,1.141c-1.773.135-3.667.236-5.618.234a43.889,43.889,0,0,1-5.96-.385,29.556,29.556,0,0,1-5.917-1.417,22.039,22.039,0,0,1-5.491-2.859,16.893,16.893,0,0,1-5.657-6.71,16.614,16.614,0,0,1-1.392-7.854,23.987,23.987,0,0,1,1.994-8.09,32.108,32.108,0,0,1,4.5-7.413,65.867,65.867,0,0,1,8.484-8.646,97.108,97.108,0,0,1,9.866-7.334c3.461-2.271,7.065-4.391,10.726-6.427s7.376-3.988,11.061-5.923l.069-.036.068-.036.069-.036.068-.036c6.386-3.356,12.709-6.716,18.905-10.144S246.44,174,252.317,170.369s11.564-7.38,16.994-11.328a185.59,185.59,0,0,0,15.46-12.483c1.327-1.2,2.71-2.5,4.056-3.883a49.73,49.73,0,0,0,3.823-4.373,28.824,28.824,0,0,0,3.016-4.757,17.019,17.019,0,0,0,1.633-5.035,14.6,14.6,0,0,0-.576-6.529,20.909,20.909,0,0,0-3.144-6.039,30.491,30.491,0,0,0-4.92-5.208,35.676,35.676,0,0,0-5.9-4.041,53.966,53.966,0,0,0-8.279-3.605,78.341,78.341,0,0,0-8.875-2.447c-3.012-.654-6.056-1.164-9.063-1.576s-5.979-.727-8.845-.992a311.445,311.445,0,0,0-33.67-1.251,337.362,337.362,0,0,0-34.376,2.339c-11.523,1.371-23.083,3.331-34.6,5.871s-22.994,5.658-34.347,9.346c-5.062,1.645-9.725,3.288-14.042,4.956s-8.287,3.36-11.963,5.1-7.06,3.531-10.2,5.4a96.655,96.655,0,0,0-8.754,5.837L63.008,133.2l-2.731-2.465-2.731-2.465-2.731-2.464a112.55,112.55,0,0,1,9.9-6.632c3.529-2.108,7.307-4.123,11.39-6.073s8.473-3.834,13.227-5.682,9.872-3.656,15.413-5.457c11.966-3.887,24.069-7.174,36.225-9.85s24.363-4.739,36.538-6.182a357.2,357.2,0,0,1,36.345-2.455A330.813,330.813,0,0,1,249.5,84.812c3.152.292,6.528.652,10.028,1.144s7.124,1.114,10.774,1.928a97.363,97.363,0,0,1,10.926,3.082,70.622,70.622,0,0,1,10.48,4.6,51.4,51.4,0,0,1,9.994,7.061,41.122,41.122,0,0,1,7.186,8.492,31.576,31.576,0,0,1,4.017,9.35,25.333,25.333,0,0,1,.485,9.633,27.916,27.916,0,0,1-2.278,7.565,39.059,39.059,0,0,1-4.02,6.775,59.433,59.433,0,0,1-5.028,5.964c-1.763,1.849-3.571,3.56-5.3,5.128a200.534,200.534,0,0,1-16.4,13.279c-5.725,4.178-11.688,8.132-17.831,11.934s-12.465,7.452-18.908,11.021-13.006,7.059-19.632,10.54l-.069.036-.069.037-.068.036-.069.036c-3.33,1.749-6.689,3.513-9.982,5.336s-6.522,3.7-9.593,5.684a86.732,86.732,0,0,0-8.644,6.29,51.979,51.979,0,0,0-7.136,7.157,19.656,19.656,0,0,0-2.26,3.509,15.47,15.47,0,0,0-1.316,3.636,7.8,7.8,0,0,0-.094,3.225,3.647,3.647,0,0,0,1.408,2.278,6.187,6.187,0,0,0,2.133.905,15.914,15.914,0,0,0,2.772.392c.987.062,2.015.066,3.018.036s1.984-.092,2.874-.161c3.316-.254,6.655-.619,10-1.066s6.709-.976,10.066-1.557,6.711-1.216,10.05-1.874,6.663-1.339,9.959-2.014c5.58-1.144,11.208-2.3,16.882-3.337s11.393-1.965,17.156-2.651a167.682,167.682,0,0,1,17.419-1.22,123.818,123.818,0,0,1,17.672.957,33.91,33.91,0,0,1,7.46,1.777,20.832,20.832,0,0,1,5.61,3.044,12.382,12.382,0,0,1,3.468,4.081,9.517,9.517,0,0,1,1.033,4.889,9.839,9.839,0,0,1-.915,3.621,13.036,13.036,0,0,1-1.9,2.928,19.725,19.725,0,0,1-2.264,2.244c-.745.635-1.445,1.158-2,1.569q-3.755,2.8-7.648,5.5t-7.9,5.275q-4.01,2.58-8.128,5.035t-8.327,4.778l-.25.138-.25.138-.25.138-.25.137c-2.431,1.34-4.883,2.691-7.22,4.082a69.27,69.27,0,0,0-6.529,4.325,28.374,28.374,0,0,0-5.02,4.744,13.178,13.178,0,0,0-2.695,5.337,10.385,10.385,0,0,0,.291,5.4,16.113,16.113,0,0,0,2.786,5.087,25.2,25.2,0,0,0,4.544,4.4,29.97,29.97,0,0,0,5.562,3.336,49.244,49.244,0,0,0,7.6,2.721,77.957,77.957,0,0,0,8.214,1.737c2.811.452,5.682.793,8.571,1.079s5.794.516,8.675.743l-.387,3.321L307.6,322.9l-.388,3.321Z" transform="translate(-54.815 -83.436)"/></svg>