<svg id="Layer_1" data-name="Layer 1" xmlns="http://www.w3.org/2000/svg" viewBox="0 0 242.616 165.108"><defs><style>.cls-1{fill:#231f20;}</style></defs><path class="cls-1" d="M76.382,328.106l-.2-.057-.2-.058-.2-.057-.2-.058-.2-.057-.2-.058-.2-.057-.2-.058-.2-.057-.2-.058-.2-.057-.2-.058-.2-.057-.2-.058-.2-.057-.2-.058-.2-.057-.2-.058-.2-.057-.2-.058-.2-.057-.2-.058-.2-.057-.2-.058-.2-.058-.2-.057-.2-.058-.2-.057-.2-.058-.2-.057-.2-.058-.2-.057q1.029-1.59,2.092-3.174t2.16-3.162q1.1-1.578,2.229-3.15t2.3-3.137q1.165-1.566,2.364-3.124t2.432-3.112q1.233-1.552,2.5-3.1t2.567-3.085q1.3-1.541,2.633-3.072t2.7-3.058q1.368-1.526,2.768-3.045t2.834-3.03q1.432-1.512,2.9-3.017t2.967-3q1.5-1.5,3.033-2.988t3.1-2.974q1.566-1.484,3.164-2.959t3.231-2.944q1.63-1.467,3.295-2.929t3.361-2.913q1.7-1.453,3.426-2.9t3.491-2.883q1.761-1.437,3.555-2.867t3.621-2.852q1.826-1.422,3.684-2.835t3.749-2.82q1.89-1.406,3.813-2.8t3.876-2.786q1.954-1.389,3.941-2.77t4-2.753q2.018-1.372,4.067-2.737t4.131-2.719q1.785-1.162,3.594-2.319t3.638-2.306q1.83-1.149,3.682-2.292t3.727-2.279q1.875-1.137,3.772-2.266t3.819-2.253q1.92-1.124,3.864-2.241t3.911-2.228q1.968-1.111,3.959-2.216t4.006-2.2q2.014-1.1,4.054-2.193t4.1-2.181q2.063-1.087,4.152-2.17t4.2-2.159q2.113-1.077,4.252-2.149t4.3-2.138q2.163-1.066,4.353-2.127t4.405-2.118q2.215-1.057,4.456-2.108t4.509-2.1q2.268-1.047,4.562-2.089t4.616-2.08q2.32-1.038,4.669-2.071t4.723-2.063q2.376-1.029,4.779-2.054t4.833-2.047q2.432-1.02,4.89-2.038t4.946-2.031q2.487-1.014,5-2.023t5.06-2.016q2.544-1.006,5.117-2.01t5.175-2l.11.126.109.126.11.126.109.126.11.126.109.126.109.126.11.126.109.126.11.126.109.126.11.126.109.126.11.126.109.126.109.125.11.126.109.126.11.126.109.126.11.126.109.126.109.126.11.126.109.126.11.126.109.126.11.126.109.126.109.126.11.126.109.126q-2.577.99-5.127,1.984t-5.07,1.99q-2.52,1-5.012,2t-4.955,2q-2.464,1-4.9,2.011t-4.843,2.019q-2.409,1.011-4.788,2.026t-4.733,2.034q-2.352,1.02-4.678,2.043t-4.624,2.051q-2.3,1.028-4.57,2.059t-4.517,2.068q-2.246,1.036-4.465,2.078t-4.413,2.086q-2.193,1.047-4.36,2.1t-4.31,2.106q-2.142,1.054-4.259,2.115t-4.208,2.127q-2.092,1.065-4.159,2.136t-4.11,2.147q-2.041,1.077-4.06,2.159t-4.012,2.169q-1.995,1.088-3.965,2.181t-3.916,2.192q-1.947,1.1-3.87,2.2t-3.823,2.217q-1.9,1.11-3.778,2.228t-3.731,2.241q-1.856,1.125-3.687,2.254t-3.642,2.267q-1.811,1.137-3.6,2.28t-3.554,2.294q-2.05,1.335-4.069,2.679t-4.008,2.7q-1.987,1.351-3.944,2.712t-3.882,2.728q-1.926,1.369-3.819,2.745t-3.756,2.761q-1.863,1.385-3.693,2.777t-3.629,2.792q-1.8,1.4-3.566,2.808t-3.5,2.823q-1.736,1.416-3.438,2.839t-3.374,2.854q-1.671,1.43-3.31,2.868t-3.246,2.884q-1.606,1.445-3.181,2.9t-3.116,2.912q-1.542,1.459-3.051,2.927t-2.986,2.941q-1.477,1.475-2.921,2.955t-2.856,2.969q-1.412,1.486-2.79,2.982t-2.724,3q-1.346,1.5-2.658,3.009t-2.593,3.022q-1.279,1.515-2.526,3.036t-2.459,3.048q-1.213,1.527-2.393,3.061t-2.326,3.073q-1.147,1.541-2.26,3.086t-2.192,3.1q-1.078,1.552-2.125,3.11T76.382,328.106Z" transform="translate(-69.952 -162.999)"/></svg>