<svg id="Layer_1" data-name="Layer 1" xmlns="http://www.w3.org/2000/svg" viewBox="0 0 144.441 134.463"><defs><style>.cls-1{fill:#231f20;}</style></defs><path class="cls-1" d="M164.62,305.934l-.875-.02-.874-.021-.875-.02-.874-.02-.874-.02-.875-.02-.874-.02-.874-.02a19.234,19.234,0,0,1,.649-3.911,22.369,22.369,0,0,1,1.476-3.892,28.242,28.242,0,0,1,2.3-3.871,37.566,37.566,0,0,1,3.12-3.845,51.047,51.047,0,0,1,3.939-3.817q2.172-1.9,4.752-3.784t5.564-3.75q2.985-1.865,6.373-3.71.98-.534,1.975-1.06t2-1.044q1.006-.517,2.022-1.029t2.035-1.015q1.02-.5,2.043-1t2.045-.991q1.02-.493,2.039-.981t2.028-.972q1.689-.807,3.386-1.624t3.391-1.645q1.692-.829,3.371-1.675t3.328-1.712q1.65-.867,3.261-1.757t3.169-1.809q1.557-.919,3.053-1.87t2.914-1.938q.27-.187.531-.377c.174-.127.344-.253.508-.381s.321-.254.47-.382.291-.255.421-.382a5.148,5.148,0,0,0,.355-.381,3.217,3.217,0,0,0,.278-.377,2.018,2.018,0,0,0,.186-.372,1.266,1.266,0,0,0,.079-.364,1.214,1.214,0,0,0-.135-.619,2.235,2.235,0,0,0-.453-.591,4.644,4.644,0,0,0-.721-.558,8.737,8.737,0,0,0-.942-.522c-.345-.167-.719-.328-1.114-.48s-.81-.3-1.239-.433-.869-.264-1.315-.382-.9-.227-1.343-.325q-3.065-.675-6.173-1.167t-6.263-.835q-3.156-.342-6.356-.55t-6.448-.312q-3.246-.1-6.54-.12t-6.635.023q-3.341.039-6.728.119t-6.823.169q-2.159.057-4.335.111t-4.364.1q-2.189.043-4.385.073t-4.4.035q-2.2.006-4.405-.016t-4.4-.08q-2.2-.059-4.394-.158t-4.376-.248c-.243-.017-.488-.034-.734-.054s-.494-.04-.742-.065-.5-.051-.746-.082-.5-.066-.748-.106-.5-.084-.746-.134-.5-.107-.743-.17-.491-.133-.735-.211-.485-.163-.724-.258a9.2,9.2,0,0,1-1.241-.595,7.888,7.888,0,0,1-1.05-.722,6.584,6.584,0,0,1-.846-.829,5.542,5.542,0,0,1-.633-.917,4.9,4.9,0,0,1-.409-.984,4.5,4.5,0,0,1-.1-2.092,4.968,4.968,0,0,1,.33-1.068,6.535,6.535,0,0,1,.413-.8,7.825,7.825,0,0,1,.521-.756q.285-.369.614-.719t.692-.685q.364-.333.756-.654c.261-.213.53-.422.8-.626s.555-.406.838-.6.57-.391.857-.582q2.456-1.632,5.087-3.138t5.4-2.9q2.77-1.4,5.662-2.7t5.87-2.523q2.979-1.224,6.027-2.381t6.132-2.269q3.082-1.112,6.183-2.189t6.183-2.139l.237-.082.237-.082.236-.081.237-.082.237-.082.236-.081.237-.082.237-.081q4.172-1.44,8.345-2.9t8.343-2.931q4.17-1.473,8.333-2.962T213.8,196.9q4.152-1.5,8.292-3.016t8.26-3.041q4.122-1.524,8.222-3.06t8.176-3.079q.948-.36,1.848-.709t1.744-.7q.844-.346,1.63-.7t1.509-.71q.723-.36,1.377-.735t1.237-.772a13.313,13.313,0,0,0,1.087-.822,10.03,10.03,0,0,0,.928-.883l.036-.039.033-.037.031-.036.029-.035.027-.032.024-.032.024-.03.021-.028-.04-.011-.043-.011-.044-.012-.047-.012-.049-.012-.052-.013-.054-.013-.056-.013q-.967-.228-1.966-.41t-2.022-.326q-1.023-.144-2.067-.254t-2.1-.194q-1.057-.083-2.125-.145t-2.138-.109c-.714-.032-1.428-.059-2.141-.085l-2.133-.072q-7.05-.232-14.314-.451t-14.666-.347q-7.4-.126-14.9-.121t-15.017.223q-7.517.217-15.014.688t-14.893,1.272q-7.4.8-14.655,1.978t-14.3,2.8l-.307-.506-.306-.507-.307-.506-.306-.507-.307-.507-.306-.506-.307-.507-.306-.507q7.3-1.686,14.784-2.906t15.092-2.053q7.6-.834,15.285-1.324t15.369-.719q7.686-.229,15.338-.239t15.2.118q7.543.127,14.942.351t14.575.459q1.11.036,2.254.076t2.313.094c.779.035,1.566.076,2.356.124s1.587.1,2.384.169,1.6.141,2.4.228,1.6.187,2.394.3,1.588.243,2.375.389,1.568.309,2.341.491c.114.027.252.059.407.1s.33.085.516.138.386.114.592.184.42.148.635.236.432.187.645.295a6.562,6.562,0,0,1,.624.361,5.025,5.025,0,0,1,.568.432,3.728,3.728,0,0,1,.48.51,3.03,3.03,0,0,1,.237.354,2.687,2.687,0,0,1,.191.409,2.454,2.454,0,0,1,.147.974,2.743,2.743,0,0,1-.089.565,3.44,3.44,0,0,1-.23.615,4.718,4.718,0,0,1-.393.665,6.707,6.707,0,0,1-.579.714,14.7,14.7,0,0,1-1.355,1.289c-.486.409-1,.8-1.545,1.169s-1.109.723-1.693,1.059-1.186.656-1.8.961-1.234.6-1.86.875-1.255.544-1.881.8-1.247.5-1.859.736-1.211.463-1.794.684q-4.091,1.55-8.206,3.091t-8.253,3.072q-4.136,1.531-8.291,3.051t-8.323,3.028q-4.168,1.507-8.347,3t-8.364,2.973q-4.185,1.479-8.374,2.942t-8.376,2.908l-.237.081-.237.082-.237.082-.237.082-.237.081-.237.082-.237.082-.238.082q-2.994,1.032-6,2.077t-6,2.122q-2.989,1.077-5.94,2.195t-5.826,2.294q-2.876,1.176-5.657,2.421t-5.431,2.575q-2.651,1.331-5.152,2.756t-4.816,2.965c-.243.162-.477.32-.7.476s-.442.31-.648.462-.4.3-.588.451-.362.3-.526.444-.318.293-.459.438-.272.292-.389.438a4.468,4.468,0,0,0-.313.44,3.415,3.415,0,0,0-.236.445,1.976,1.976,0,0,0-.118.369,1.858,1.858,0,0,0-.015.732,1.805,1.805,0,0,0,.1.344,1.837,1.837,0,0,0,.16.316,1.779,1.779,0,0,0,.221.277,1.709,1.709,0,0,0,.277.23,1.776,1.776,0,0,0,.33.172c.081.032.169.061.263.088s.195.052.3.075.219.044.336.063.238.037.364.053.256.031.389.045.27.027.409.039.281.023.424.033l.436.031q2.082.143,4.189.237t4.228.149q2.122.055,4.257.075t4.273.014q2.14-.007,4.281-.036t4.276-.072q2.136-.043,4.262-.1t4.236-.108q3.409-.088,6.844-.169t6.881-.12q3.447-.037,6.9-.018t6.892.135q3.441.114,6.866.339t6.818.594q3.393.369,6.75.9t6.659,1.259q1.459.321,2.754.7t2.419.808a22.46,22.46,0,0,1,2.07.909,15.216,15.216,0,0,1,1.708,1,9.9,9.9,0,0,1,1.334,1.082,6.387,6.387,0,0,1,.946,1.156,4.51,4.51,0,0,1,.546,1.22,3.938,3.938,0,0,1,.132,1.275,4.055,4.055,0,0,1-.144.847,4.7,4.7,0,0,1-.31.8,5.894,5.894,0,0,1-.455.76,7.841,7.841,0,0,1-.577.723c-.211.235-.438.465-.678.689s-.5.444-.758.659-.536.426-.815.633-.564.41-.851.61q-1.5,1.044-3.069,2.044t-3.194,1.96q-1.624.961-3.3,1.888t-3.379,1.824q-1.706.9-3.437,1.771t-3.475,1.728q-1.743.855-3.489,1.694t-3.482,1.67l-2,.956q-1,.48-2.006.965t-2.009.974q-1,.489-2,.983t-1.993.994q-.992.5-1.974,1t-1.95,1.015q-.966.512-1.916,1.028-3.108,1.692-5.844,3.395t-5.1,3.412q-2.364,1.71-4.356,3.428a47.245,47.245,0,0,0-3.609,3.44,34.4,34.4,0,0,0-2.857,3.449,25.238,25.238,0,0,0-2.1,3.454,19.52,19.52,0,0,0-1.347,3.459A16.413,16.413,0,0,0,164.62,305.934Z" transform="translate(-121.05 -171.471)"/></svg>