<svg id="Layer_1" data-name="Layer 1" xmlns="http://www.w3.org/2000/svg" viewBox="0 0 144.441 217.528"><defs><style>.cls-1{fill:#231f20;}</style></defs><path class="cls-1" d="M164.62,305.934l-.875-.033-.874-.032-.875-.033-.874-.032-.874-.033-.875-.032-.874-.033-.874-.032a48.981,48.981,0,0,1,.649-6.327,51.83,51.83,0,0,1,1.476-6.3,56.815,56.815,0,0,1,2.3-6.262,64.525,64.525,0,0,1,3.12-6.22q1.766-3.1,3.939-6.175t4.752-6.122q2.58-3.048,5.564-6.066t6.373-6q.98-.864,1.975-1.714t2-1.688q1.006-.839,2.022-1.665t2.035-1.643q1.02-.816,2.043-1.622t2.045-1.6q1.02-.8,2.039-1.587l2.028-1.572q1.689-1.306,3.386-2.627t3.391-2.662q1.692-1.341,3.371-2.709t3.328-2.77q1.65-1.4,3.261-2.842t3.169-2.927q1.557-1.488,3.053-3.025t2.914-3.136q.27-.3.531-.609c.174-.205.344-.41.508-.616s.321-.412.47-.618.291-.413.421-.619.249-.411.355-.615a5.96,5.96,0,0,0,.278-.61,4.323,4.323,0,0,0,.186-.6,3.176,3.176,0,0,0,.079-.59,3,3,0,0,0-.135-1,3.946,3.946,0,0,0-.453-.956,5.879,5.879,0,0,0-.721-.9,8.832,8.832,0,0,0-.942-.844,12.74,12.74,0,0,0-1.114-.777c-.4-.246-.81-.48-1.239-.7s-.869-.427-1.315-.618-.9-.367-1.343-.526q-3.065-1.09-6.173-1.888c-2.072-.536-4.16-.982-6.263-1.351s-4.222-.661-6.356-.889-4.283-.392-6.448-.5-4.345-.174-6.54-.2-4.408,0-6.635.037-4.469.112-6.728.194-4.532.178-6.823.274q-2.159.091-4.335.179t-4.364.159q-2.189.072-4.385.119t-4.4.057q-2.2.009-4.405-.026t-4.4-.13q-2.2-.095-4.394-.256t-4.376-.4c-.243-.027-.488-.055-.734-.086s-.494-.066-.742-.105-.5-.083-.746-.134-.5-.106-.748-.17-.5-.137-.746-.219-.5-.172-.743-.274-.491-.216-.735-.341-.485-.264-.724-.417a8.49,8.49,0,0,1-1.241-.963,9.041,9.041,0,0,1-1.05-1.169,9.749,9.749,0,0,1-.846-1.341,10.428,10.428,0,0,1-.633-1.483,11.055,11.055,0,0,1-.409-1.592,11.5,11.5,0,0,1-.173-1.669,11.778,11.778,0,0,1,.073-1.715,11.951,11.951,0,0,1,.33-1.728q.177-.662.413-1.288c.156-.418.331-.826.521-1.223s.4-.785.614-1.163.45-.747.692-1.107.5-.713.756-1.058.53-.683.8-1.014.555-.656.838-.975.57-.633.857-.941q2.456-2.643,5.087-5.077t5.4-4.694q2.77-2.261,5.662-4.364t5.87-4.082q2.979-1.978,6.027-3.851t6.132-3.671q3.082-1.8,6.183-3.541t6.183-3.461l.237-.133.237-.132.236-.132.237-.132.237-.132.236-.132.237-.132.237-.132q4.172-2.33,8.345-4.687t8.343-4.742q4.17-2.383,8.333-4.792t8.317-4.838q4.152-2.43,8.292-4.88t8.26-4.919q4.122-2.467,8.222-4.952t8.176-4.981q.948-.581,1.848-1.146c.6-.378,1.181-.752,1.744-1.127s1.107-.749,1.63-1.128,1.028-.76,1.509-1.148.941-.784,1.377-1.189.849-.821,1.237-1.25a16.421,16.421,0,0,0,1.087-1.329,14.734,14.734,0,0,0,.928-1.429l.036-.063.033-.061.031-.057.029-.056.027-.053.024-.051.024-.049.021-.046-.04-.017-.043-.018-.044-.019-.047-.019-.049-.02-.052-.02-.054-.021-.056-.022q-.967-.369-1.966-.663c-.666-.2-1.34-.372-2.022-.528s-1.372-.291-2.067-.41-1.4-.223-2.1-.314-1.414-.167-2.125-.235-1.424-.125-2.138-.177-1.428-.1-2.141-.137-1.425-.079-2.133-.117c-4.7-.249-9.478-.5-14.314-.729s-9.732-.423-14.666-.561-9.908-.213-14.9-.2-10,.125-15.017.36-10.022.595-15.014,1.113-9.962,1.193-14.893,2.059-9.823,1.922-14.655,3.2-9.6,2.779-14.3,4.535l-.307-.82-.306-.819-.307-.82-.306-.82-.307-.819-.306-.82-.307-.819-.306-.82q7.3-2.728,14.784-4.7C140.82,94.1,145.857,93,150.926,92.1s10.17-1.6,15.285-2.142,10.245-.917,15.369-1.164,10.243-.364,15.338-.386,10.167.054,15.2.192,10.016.337,14.942.567,9.79.488,14.575.742c.74.04,1.492.08,2.254.124s1.534.094,2.313.151,1.566.123,2.356.2,1.587.167,2.384.273,1.6.228,2.4.369,1.6.3,2.394.488,1.588.394,2.375.63,1.568.5,2.341.794c.114.043.252.1.407.159s.33.137.516.223.386.185.592.3.42.239.635.382a7.539,7.539,0,0,1,.645.478,6.775,6.775,0,0,1,.624.583,6.194,6.194,0,0,1,.568.7,5.891,5.891,0,0,1,.48.824,5.938,5.938,0,0,1,.428,1.235,6.09,6.09,0,0,1,.12.746,6.408,6.408,0,0,1,.027.83,7.016,7.016,0,0,1-.089.914,8.015,8.015,0,0,1-.23.995,9.464,9.464,0,0,1-.393,1.075,11.532,11.532,0,0,1-.579,1.155,21.387,21.387,0,0,1-1.355,2.087,24.25,24.25,0,0,1-1.545,1.89c-.542.6-1.109,1.17-1.693,1.714s-1.186,1.06-1.8,1.554-1.234.965-1.86,1.415-1.255.881-1.881,1.294-1.247.809-1.859,1.191-1.211.75-1.794,1.107q-4.091,2.507-8.206,5t-8.253,4.97q-4.136,2.477-8.291,4.936t-8.323,4.9q-4.168,2.439-8.347,4.856t-8.364,4.81q-4.185,2.393-8.374,4.759t-8.376,4.7l-.237.132-.237.133-.237.132-.237.132-.237.132-.237.132-.237.133-.238.132q-2.994,1.669-6,3.36t-6,3.434q-2.989,1.742-5.94,3.55t-5.826,3.711q-2.876,1.9-5.657,3.916t-5.431,4.166q-2.651,2.153-5.152,4.46t-4.816,4.8q-.364.391-.7.77c-.226.253-.442.5-.648.747s-.4.489-.588.73-.362.479-.526.717-.318.474-.459.71-.272.472-.389.708-.222.473-.313.712a7.118,7.118,0,0,0-.236.72,4.722,4.722,0,0,0-.118.6,4.84,4.84,0,0,0-.015,1.185,4.446,4.446,0,0,0,.1.556,3.91,3.91,0,0,0,.16.511,3.073,3.073,0,0,0,.221.449,2.3,2.3,0,0,0,.277.371,1.663,1.663,0,0,0,.33.279,2.255,2.255,0,0,0,.263.142,3.2,3.2,0,0,0,.3.121q.161.056.336.1c.117.031.238.06.364.086s.256.051.389.073.27.043.409.062l.424.055.436.049q2.082.231,4.189.383t4.228.242q2.122.09,4.257.122t4.273.022q2.14-.011,4.281-.058t4.276-.117q2.136-.07,4.262-.156t4.236-.175c2.273-.095,4.555-.191,6.844-.274s4.584-.152,6.881-.193,4.6-.056,6.9-.03,4.6.095,6.892.218,4.584.3,6.866.548,4.556.563,6.818.961,4.513.879,6.75,1.457,4.457,1.252,6.659,2.036q1.459.521,2.754,1.132a24.372,24.372,0,0,1,2.419,1.309,19.278,19.278,0,0,1,2.07,1.47,15.643,15.643,0,0,1,1.708,1.617,12.853,12.853,0,0,1,1.334,1.751,10.9,10.9,0,0,1,.946,1.869,10.042,10.042,0,0,1,.546,1.974,10.164,10.164,0,0,1,.132,2.063,10.346,10.346,0,0,1-.144,1.371,10.814,10.814,0,0,1-.31,1.3,11.733,11.733,0,0,1-.455,1.23c-.173.4-.367.79-.577,1.17s-.438.752-.678,1.115-.5.718-.758,1.066-.536.689-.815,1.024-.564.663-.851.987q-1.5,1.688-3.069,3.305t-3.194,3.172q-1.624,1.554-3.3,3.053t-3.379,2.952q-1.706,1.454-3.437,2.865t-3.475,2.8q-1.743,1.383-3.489,2.741t-3.482,2.7q-.993.769-2,1.546t-2.006,1.561q-1,.785-2.009,1.575t-2,1.592q-1,.8-1.993,1.607t-1.974,1.625q-.983.817-1.95,1.644t-1.916,1.662q-3.108,2.738-5.844,5.492t-5.1,5.52q-2.364,2.767-4.356,5.546t-3.609,5.564a58.421,58.421,0,0,0-2.857,5.58,50.22,50.22,0,0,0-2.1,5.589,44.867,44.867,0,0,0-1.347,5.594A41.811,41.811,0,0,0,164.62,305.934Z" transform="translate(-121.05 -88.406)"/></svg>