<svg id="Layer_1" data-name="Layer 1" xmlns="http://www.w3.org/2000/svg" viewBox="0 0 144.441 217.528"><defs><style>.cls-1{fill:#231f20;}</style></defs><path class="cls-1" d="M164.62,305.934l-.219-.009-.219-.008-.218-.008-.219-.008-.218-.008-.219-.008-.219-.008-.218-.008-.219-.008-.218-.009-.219-.008-.219-.008-.218-.008-.219-.008-.218-.008-.219-.008-.219-.008-.218-.009-.219-.008-.218-.008-.219-.008-.219-.008-.218-.008-.219-.008-.218-.008-.219-.008-.219-.009-.218-.008-.219-.008-.218-.008-.219-.008-.218-.008q.029-.793.084-1.584t.137-1.583q.081-.791.188-1.581t.24-1.579q.133-.789.292-1.577t.343-1.576q.185-.788.4-1.573t.446-1.571q.237-.785.5-1.569t.55-1.567q.286-.782.6-1.564t.653-1.562q.338-.78.7-1.559t.755-1.556q.39-.779.805-1.554t.857-1.551q.441-.775.908-1.548t.959-1.546q.493-.771,1.011-1.542t1.061-1.539q.543-.768,1.112-1.535t1.162-1.533q.594-.765,1.214-1.529t1.264-1.525q.645-.762,1.315-1.522t1.366-1.519q.7-.757,1.417-1.514t1.466-1.511q.747-.754,1.518-1.507t1.568-1.5q.8-.752,1.618-1.5t1.669-1.5l.491-.431.493-.429.5-.428.5-.426.5-.424c.166-.142.333-.283.5-.423l.5-.422q.25-.21.5-.419l.5-.419.5-.417.506-.415.507-.414.508-.413.508-.411.51-.41q.253-.206.509-.409t.511-.407l.51-.406c.17-.136.341-.271.511-.405l.511-.4.511-.4.512-.4.511-.4.511-.4.51-.4.51-.4.51-.4.509-.4.508-.394.508-.393.507-.393.5-.392q.423-.326.845-.654l.846-.656.847-.657.848-.66.849-.662.848-.664.847-.666.847-.67.846-.672.844-.676.842-.679q.42-.341.839-.682t.837-.687q.418-.343.834-.69c.278-.231.554-.462.831-.694s.551-.465.826-.7l.823-.7q.41-.352.817-.708t.813-.713q.405-.357.808-.718t.8-.723q.4-.363.8-.729t.789-.735q.393-.369.783-.74t.775-.747q.385-.375.767-.753t.76-.759q.378-.381.751-.766t.743-.773q.369-.388.733-.781t.724-.787q.36-.4.714-.8c.045-.05.09-.1.134-.152s.089-.1.134-.152l.132-.152.131-.153.13-.154.128-.154.126-.154c.041-.051.083-.1.124-.154s.081-.1.121-.154l.12-.155.116-.154.113-.155c.038-.052.075-.1.111-.155s.072-.1.107-.155.069-.1.1-.154l.1-.155.095-.154c.031-.051.062-.1.091-.154s.059-.1.087-.154.056-.1.082-.153.053-.1.078-.153.049-.1.072-.153.045-.1.067-.152.042-.1.061-.152.038-.1.056-.152.034-.1.049-.15.03-.1.044-.15.025-.1.037-.15.021-.1.03-.148.017-.1.024-.148.012-.1.016-.147.008-.1.009-.147c0-.085,0-.169,0-.254s-.012-.168-.024-.251-.026-.166-.045-.249-.04-.164-.065-.246-.054-.163-.086-.244-.066-.16-.1-.24-.079-.159-.123-.238-.09-.157-.14-.234-.1-.155-.157-.231-.113-.153-.173-.228-.123-.15-.188-.225-.133-.147-.2-.22-.142-.145-.217-.217-.151-.143-.229-.213-.16-.14-.242-.209-.167-.138-.254-.205-.174-.135-.264-.2-.181-.132-.274-.2-.188-.129-.284-.192-.193-.126-.292-.188-.2-.122-.3-.182-.2-.12-.307-.178-.207-.116-.313-.173-.211-.112-.319-.167-.214-.11-.323-.163-.218-.106-.328-.157l-.33-.152-.334-.146c-.111-.048-.223-.094-.335-.14s-.224-.091-.336-.135-.224-.087-.336-.128-.224-.083-.336-.123q-.766-.273-1.535-.527t-1.54-.489q-.771-.235-1.546-.453t-1.552-.419q-.777-.2-1.557-.385t-1.563-.353q-.783-.168-1.569-.321t-1.574-.292q-.789-.138-1.581-.262t-1.586-.235q-.794-.111-1.591-.209t-1.6-.183q-.8-.085-1.6-.159t-1.609-.137q-.807-.061-1.615-.114t-1.621-.094q-.812-.042-1.626-.075t-1.632-.057q-.818-.024-1.638-.04t-1.644-.024q-.823-.007-1.65-.009t-1.656,0q-.829.006-1.661.016l-1.668.027q-.834.017-1.673.037l-1.679.045q-.842.025-1.685.053t-1.691.059l-1.7.064-1.7.068-1.709.07-1.715.072-1.08.045-1.083.046-1.085.044-1.087.044-1.088.043-1.091.041-1.092.039c-.364.012-.728.025-1.093.036l-1.095.035-1.095.031c-.366.01-.732.02-1.1.028s-.732.018-1.1.025l-1.1.021-1.1.017-1.1.012-1.1.007c-.367,0-.734,0-1.1,0s-.734,0-1.1,0-.734-.006-1.1-.01-.735-.009-1.1-.015-.734-.014-1.1-.022-.734-.018-1.1-.029-.734-.023-1.1-.036-.733-.028-1.1-.043-.733-.033-1.1-.052-.732-.038-1.1-.059-.733-.044-1.1-.068-.731-.049-1.1-.077-.731-.055-1.1-.085-.73-.062-1.094-.1-.73-.068-1.094-.1-.728-.075-1.092-.115l-.183-.02-.183-.021-.184-.022-.184-.023-.185-.024-.185-.026-.186-.027-.186-.028-.186-.031-.186-.032-.187-.034-.187-.037-.187-.038-.187-.042-.187-.044-.187-.046-.187-.05-.187-.053-.186-.056q-.093-.029-.186-.06c-.063-.02-.125-.041-.187-.063s-.123-.043-.185-.066l-.186-.071-.185-.074-.184-.079-.184-.083c-.061-.028-.123-.057-.184-.087l-.183-.092-.182-.1c-.06-.033-.121-.067-.181-.1s-.121-.07-.181-.106l-.18-.112c-.111-.071-.22-.144-.328-.22s-.213-.154-.316-.234-.2-.163-.3-.248-.2-.172-.292-.261-.19-.181-.281-.275-.181-.188-.269-.286-.173-.2-.256-.3-.165-.2-.244-.31-.156-.212-.231-.32-.147-.219-.218-.331-.139-.225-.2-.34-.13-.232-.192-.35-.122-.238-.179-.359-.112-.243-.165-.367-.1-.248-.152-.375-.094-.253-.137-.382-.085-.258-.124-.389-.075-.262-.109-.395-.066-.267-.095-.4-.056-.27-.081-.407-.046-.273-.065-.411-.037-.276-.051-.416-.027-.279-.036-.419-.017-.281-.021-.423-.006-.283-.005-.426,0-.285.01-.428.015-.286.026-.429.025-.288.042-.432.036-.288.058-.432.047-.288.074-.432.058-.288.091-.432.068-.288.107-.432c.029-.11.06-.22.092-.328s.065-.217.1-.324.07-.214.107-.32.075-.212.114-.316.079-.209.121-.312.083-.206.127-.307.088-.2.133-.3.092-.2.14-.3.1-.2.145-.3.1-.2.151-.292.1-.194.157-.289.106-.191.161-.286.11-.188.166-.281.114-.187.171-.279.117-.184.176-.275.119-.182.179-.272.122-.18.184-.269.124-.178.187-.266.127-.176.191-.263.129-.174.194-.26.131-.172.2-.258l.2-.255.2-.252.2-.249.207-.247c.07-.082.139-.164.209-.245l.211-.243.211-.24.213-.238.214-.237.215-.234c.071-.078.143-.155.215-.232q.614-.661,1.239-1.308t1.262-1.281q.636-.635,1.283-1.256t1.3-1.232q.655-.609,1.322-1.207t1.342-1.185q.675-.586,1.359-1.162t1.377-1.14q.693-.566,1.393-1.12t1.408-1.1q.708-.546,1.424-1.081t1.437-1.063q.722-.526,1.45-1.045t1.462-1.028q.734-.51,1.474-1.012t1.484-1q.746-.5,1.494-.982t1.5-.969q.754-.481,1.512-.956t1.518-.944q.761-.47,1.525-.933t1.531-.922q.766-.459,1.536-.913t1.54-.9q.769-.45,1.543-.9t1.545-.888q.774-.442,1.547-.881l1.548-.876,1.548-.871,1.547-.867,1.545-.863,1.543-.86.059-.034.06-.033.059-.033.059-.033.059-.033.059-.033.06-.033.059-.033.059-.033.059-.033.059-.033.059-.033.06-.033.059-.033.059-.033.059-.033.059-.033.059-.033.06-.033.059-.033.059-.033.059-.033.059-.033.059-.033.06-.033.059-.033.059-.033.059-.033.059-.033.059-.033.06-.033.059-.033,2.086-1.166,2.086-1.17,2.087-1.174,2.086-1.177,2.086-1.18q1.044-.591,2.086-1.184t2.086-1.187q1.042-.594,2.085-1.191l2.085-1.193q1.041-.6,2.083-1.2t2.083-1.2q1.041-.6,2.082-1.2l2.081-1.205q1.041-.6,2.08-1.208l2.079-1.211,2.077-1.214q1.038-.608,2.075-1.216l2.074-1.219q1.036-.61,2.072-1.222t2.071-1.223l2.068-1.227q1.034-.614,2.066-1.228t2.064-1.231q1.032-.615,2.062-1.233l2.06-1.235,2.056-1.237q1.029-.618,2.055-1.239l2.051-1.241,2.049-1.242,2.045-1.245,2.043-1.246q1.02-.624,2.039-1.248l.471-.289.465-.287.459-.286.453-.284q.224-.141.446-.283l.439-.281q.219-.141.433-.282l.426-.281c.14-.094.28-.187.418-.281l.412-.281c.136-.094.27-.188.4-.283s.266-.188.4-.283.261-.189.389-.284.256-.191.382-.286.25-.192.373-.288.245-.193.365-.29.24-.195.357-.293.234-.2.349-.3.228-.2.34-.3.222-.2.331-.3.217-.2.323-.306.211-.206.314-.31.205-.209.305-.315.2-.212.3-.319.193-.215.286-.324.186-.218.277-.329.18-.223.267-.335.173-.226.257-.341.167-.23.247-.347.16-.235.238-.354.153-.239.227-.361.146-.243.216-.367l.009-.016.009-.016.009-.016.009-.015.008-.015.009-.016.008-.015.008-.015.008-.014.008-.015.007-.014.008-.014.007-.015.008-.014.007-.013.007-.014.007-.014.006-.013.007-.013.007-.013.006-.013.006-.013.006-.013.006-.012.006-.012.006-.013.006-.012.006-.012,0-.011,0-.012.006-.011,0-.012-.01,0-.01,0-.01-.005-.01,0-.011-.005-.01,0-.011-.005-.011,0-.011-.005-.011,0-.011-.005-.011,0-.012,0-.011,0-.012,0-.012-.005-.012,0-.012,0-.013,0-.012-.005-.013,0-.013,0-.013-.005-.013,0-.013-.006-.013,0-.014-.005-.014,0L258,99.5l-.014,0-.015-.006-.014-.005c-.161-.062-.323-.121-.486-.18s-.326-.115-.49-.17-.328-.109-.493-.161-.331-.1-.5-.152-.334-.1-.5-.144-.336-.092-.5-.136-.338-.086-.507-.127-.34-.082-.51-.121-.342-.076-.513-.112-.344-.072-.516-.106-.345-.068-.518-.1-.346-.063-.52-.093-.348-.059-.523-.087-.349-.055-.524-.081-.351-.051-.526-.075-.352-.048-.528-.071l-.53-.065-.53-.061-.532-.057-.533-.052-.534-.049-.534-.046-.535-.042-.535-.04L245,97.117l-.536-.035-.535-.033-.535-.032-.534-.03-.534-.03-.533-.028-.532-.029-3.539-.187q-1.778-.094-3.567-.186t-3.592-.182q-1.8-.088-3.616-.174t-3.638-.164q-1.824-.078-3.659-.15t-3.676-.133q-1.844-.061-3.693-.114t-3.708-.09q-1.857-.04-3.72-.066t-3.732-.036q-1.868-.011-3.74,0t-3.748.03q-1.875.024-3.753.068t-3.757.109q-1.88.066-3.759.153t-3.758.2q-1.878.112-3.756.25t-3.753.3q-1.875.165-3.747.359t-3.739.418q-1.868.225-3.73.481t-3.718.546q-1.857.29-3.706.614t-3.691.686q-1.842.36-3.674.759t-3.655.837q-1.824.44-3.635.918t-3.613,1q-1.8.522-3.589,1.087t-3.562,1.177q-1.775.612-3.535,1.27l-.077-.2-.076-.2-.077-.2-.077-.2-.076-.2-.077-.205-.076-.2-.077-.2-.077-.2-.076-.2-.077-.2-.077-.205-.076-.2-.077-.2-.076-.2-.077-.2-.077-.2-.076-.2-.077-.2-.077-.2-.076-.2-.077-.2-.077-.2-.076-.2-.077-.2-.076-.205-.077-.2-.077-.2-.076-.2-.077-.2-.077-.205-.076-.2q1.824-.683,3.661-1.316t3.686-1.22q1.848-.586,3.708-1.127t3.729-1.039q1.87-.5,3.749-.951t3.766-.869q1.887-.414,3.781-.789t3.8-.712q1.9-.337,3.807-.638t3.818-.568q1.911-.267,3.827-.5t3.833-.436q1.918-.2,3.839-.375t3.842-.317q1.922-.144,3.844-.262t3.844-.21q1.921-.092,3.841-.161t3.839-.116q1.917-.048,3.832-.074t3.826-.035q1.911-.008,3.817,0t3.806.034q1.9.026,3.793.065t3.78.091q1.886.051,3.764.114t3.746.135q1.868.072,3.726.152t3.706.166q1.846.085,3.682.177t3.658.185q1.823.093,3.632.189l3.6.191.557.03.562.03.566.031.569.033.574.034.576.037.58.038.583.042.586.045.588.048c.2.016.393.034.59.052s.4.036.592.056.4.039.594.06.4.043.6.066.4.046.6.071.4.05.6.076.4.054.6.083.4.058.6.088.4.063.6.1l.6.1c.2.036.4.072.6.11s.4.077.6.118.4.083.6.126.4.088.6.134.4.094.6.144.4.1.594.152.4.106.594.162.394.113.591.172.393.12.589.182.392.127.587.193.39.134.584.2.388.141.581.215l.09.034.1.038.106.041.113.046.12.049.127.054.132.058.137.062c.047.021.094.044.142.067l.146.072.151.077c.05.026.1.053.153.082l.156.087.158.093c.053.031.106.064.16.1s.107.068.161.1.108.072.162.11l.161.116q.081.06.162.123c.053.042.107.085.16.129s.107.089.16.135.105.094.157.142l.155.149c.051.051.1.1.152.157s.1.107.148.163.1.113.145.171.094.118.14.178.091.123.135.187.087.128.129.194.084.133.124.2.079.138.117.21.075.144.11.218l.063.136.06.14c.02.048.04.1.059.147s.037.1.055.151.036.1.053.157.034.108.05.163.031.111.046.167.029.115.042.174.026.118.038.178.022.122.032.184.02.125.028.189.016.129.022.195.012.132.017.2.008.135.01.2,0,.139,0,.21,0,.142,0,.215,0,.146-.01.221-.011.149-.018.226-.017.153-.027.23-.021.157-.034.237-.028.159-.044.241-.033.163-.052.246-.04.167-.062.251-.046.17-.072.257-.053.173-.082.261-.06.177-.092.266-.068.181-.1.272-.074.183-.115.276-.082.187-.126.282-.09.19-.138.286-.1.193-.151.291-.107.2-.164.3q-.156.274-.318.541t-.333.528c-.113.174-.228.345-.346.515s-.237.337-.358.5-.245.328-.37.49-.253.321-.381.478-.26.313-.392.467-.267.3-.4.455-.273.3-.411.444-.279.291-.42.434-.283.284-.427.423-.289.277-.435.413-.293.27-.441.4-.3.264-.447.394-.3.257-.453.384-.3.251-.457.374-.306.246-.46.367-.309.239-.465.357-.31.235-.466.35-.313.229-.469.341-.313.224-.47.334-.314.22-.471.327-.313.215-.47.32-.313.21-.47.313-.312.206-.468.307l-.467.3c-.155.1-.309.2-.463.3l-.461.289c-.152.1-.305.19-.456.284l-.451.279-.447.274-.44.27-2.047,1.253q-1.024.626-2.05,1.25l-2.053,1.249-2.056,1.248-2.059,1.245-2.062,1.244q-1.032.621-2.065,1.241t-2.067,1.24q-1.034.62-2.069,1.237l-2.072,1.236-2.074,1.233-2.076,1.23-2.078,1.229-2.08,1.226q-1.041.612-2.082,1.223l-2.083,1.221-2.085,1.218q-1.042.609-2.086,1.215t-2.087,1.213l-2.089,1.21q-1.044.6-2.09,1.207t-2.09,1.2l-2.092,1.2-2.092,1.2-2.093,1.2-2.093,1.191-2.094,1.188q-1.047.594-2.094,1.185l-2.094,1.181q-1.047.591-2.094,1.178l-2.094,1.175-2.094,1.17-.059.033-.06.033-.059.033-.059.033-.059.033-.06.033-.059.034-.059.033-.059.033-.06.033-.059.033-.059.033-.059.033-.06.033-.059.033-.059.033-.06.033-.059.033-.059.033-.059.033-.06.033-.059.033-.059.033-.059.033-.06.033-.059.033-.059.034-.059.033-.06.033-.059.033-.059.033-.06.033-1.5.836-1.5.838-1.5.841-1.5.845q-.752.425-1.5.85t-1.5.855q-.75.429-1.5.861t-1.5.868q-.747.435-1.493.875t-1.488.882q-.743.444-1.483.892t-1.476.9q-.737.453-1.47.911t-1.461.922q-.729.464-1.453.933t-1.442.945q-.72.475-1.433.958t-1.42.972q-.708.489-1.409.986t-1.4,1q-.695.505-1.381,1.017t-1.366,1.032q-.679.52-1.351,1.05t-1.333,1.067q-.663.539-1.317,1.086t-1.3,1.1q-.644.558-1.278,1.125t-1.259,1.145q-.624.577-1.238,1.166t-1.215,1.187q-.6.6-1.194,1.21t-1.169,1.234l-.181.195-.177.193-.174.192-.17.19c-.057.063-.112.126-.168.189s-.109.125-.163.187-.108.124-.16.186l-.157.185-.153.184-.149.183-.145.182c-.048.06-.095.12-.141.181s-.093.12-.138.18-.09.12-.133.179l-.13.179c-.042.06-.084.119-.125.179s-.082.118-.121.178-.079.118-.117.177-.076.119-.113.178-.073.118-.108.177-.07.118-.1.177-.067.118-.1.177-.064.118-.094.177-.061.118-.091.177-.058.118-.085.177-.055.119-.081.178-.052.119-.076.178-.049.119-.071.179-.045.119-.067.179-.041.119-.061.179-.038.12-.056.181-.035.12-.052.181-.025.1-.037.148-.022.1-.032.149-.019.1-.027.149-.016.1-.022.15-.013.1-.018.151-.01.1-.013.15-.007.1-.009.149,0,.1,0,.15,0,.1,0,.148,0,.1,0,.147,0,.1.009.146.008.1.014.144.011.095.018.143.014.093.022.14.016.092.026.138.019.091.03.135.022.089.034.133.025.087.038.129.028.085.043.126.03.083.045.123.033.08.05.118.035.077.054.115.037.074.057.11.039.071.06.106.042.068.064.1.045.064.068.095.047.061.071.091.049.057.074.084.051.054.078.079.053.05.081.073.055.046.084.067.057.041.087.06l.062.037.064.037.067.035.07.033.072.032.074.031.077.03.078.028q.041.015.081.027l.083.026.085.025q.044.013.087.024l.088.023.091.022.092.021.093.02.095.02.1.018.1.018.1.017.1.016.1.016.1.015.1.015.1.014.106.014.106.014.107.013.108.012.109.013.109.012.11.012c.347.039.694.075,1.043.11s.7.069,1.046.1.7.062,1.049.09.7.056,1.051.082.7.05,1.054.073.7.044,1.056.064.7.039,1.058.057.707.033,1.06.048.708.029,1.062.041.709.024,1.064.034.71.019,1.065.027l1.066.02c.355.006.711.01,1.067.014s.712.006,1.068.008.713,0,1.069,0l1.069,0,1.07-.008c.357,0,.714-.008,1.07-.013s.714-.01,1.071-.016l1.07-.021,1.07-.025,1.069-.027,1.069-.031,1.068-.034,1.067-.036c.356-.013.711-.025,1.066-.039l1.065-.04,1.064-.041,1.062-.043,1.06-.043,1.058-.045,1.056-.044,1.706-.071,1.71-.071,1.713-.068,1.715-.064q.858-.032,1.718-.059t1.719-.053q.861-.024,1.722-.045t1.722-.036q.862-.017,1.724-.026t1.724-.015q.862,0,1.725,0t1.724.012q.863.011,1.725.029t1.723.044q.862.027,1.723.063t1.721.082q.861.046,1.72.1t1.718.125q.858.068,1.715.148t1.713.172q.855.093,1.71.2t1.706.226q.852.119,1.7.253t1.7.284q.849.149,1.695.314t1.69.347q.843.182,1.685.381t1.68.415q.838.216,1.674.452t1.668.489q.833.254,1.662.527t1.655.568c.243.087.483.175.72.266s.469.183.7.277.456.191.679.289.442.2.657.3.428.206.637.311.414.213.615.322.4.22.594.333.386.227.573.343.371.233.55.352.357.241.529.363.342.247.507.373.326.253.484.382.311.259.461.391.3.265.439.4.281.271.416.409.265.277.392.417.25.283.369.426.235.288.346.434.218.293.321.442.2.3.3.449.186.3.273.457.171.308.249.464.154.313.225.471.137.317.2.477.121.322.175.485.1.325.149.49.087.33.124.5.069.334.1.5.052.337.072.508.035.341.046.513.018.345.02.519,0,.348-.006.523c0,.117-.011.234-.02.35s-.018.231-.03.345-.026.228-.042.34-.033.225-.052.336-.04.221-.063.331-.047.218-.073.326-.053.216-.082.323-.06.212-.092.318-.066.209-.1.313-.072.207-.11.31-.077.2-.118.306-.083.2-.126.3-.088.2-.133.3-.093.2-.141.294-.1.195-.148.291-.1.192-.155.287-.106.19-.161.284-.11.187-.167.28-.114.185-.173.277-.117.183-.177.274l-.183.271c-.062.09-.125.179-.188.268s-.127.177-.191.265-.13.175-.2.262-.132.174-.2.26-.135.171-.2.257-.136.17-.205.254-.139.169-.208.253-.14.167-.211.25l-.212.247c-.071.083-.142.164-.213.246l-.215.244q-.375.422-.754.839t-.764.831c-.255.275-.513.549-.771.822s-.519.543-.78.813-.524.538-.788.805-.528.532-.8.8-.533.527-.8.788-.538.523-.809.782-.543.517-.816.774-.546.512-.821.766-.551.508-.828.76-.554.5-.832.753-.558.5-.838.747-.561.5-.843.741-.564.491-.847.735-.567.487-.851.729-.569.483-.855.724-.571.48-.858.719-.573.476-.861.713-.575.474-.863.709-.577.471-.866.705l-.868.7q-.435.35-.87.7t-.871.693q-.435.346-.872.69l-.872.687-.872.683-.873.681c-.291.226-.581.453-.872.678l-.871.677-.87.674-.869.673-.5.385-.5.386-.5.387-.5.388-.5.389-.5.39-.5.39-.5.392-.5.392-.5.394-.5.394q-.251.2-.5.4l-.5.4-.5.4-.5.4-.5.4-.5.4-.5.4-.5.4-.5.4-.5.4-.5.406-.493.407-.491.407-.49.41-.489.41-.486.411-.485.413q-.242.205-.482.414t-.48.415l-.479.416-.475.417q-.777.684-1.531,1.37t-1.484,1.372q-.73.687-1.438,1.374t-1.391,1.376q-.684.687-1.345,1.377t-1.3,1.38q-.637.69-1.252,1.381t-1.206,1.382q-.591.693-1.159,1.385t-1.112,1.385q-.544.693-1.066,1.387t-1.019,1.389q-.5.695-.973,1.389t-.925,1.391q-.452.7-.879,1.392t-.832,1.392q-.4.7-.784,1.394t-.738,1.394q-.359.7-.691,1.4t-.644,1.4q-.31.7-.6,1.4t-.549,1.4q-.264.7-.5,1.4t-.455,1.4q-.216.7-.408,1.4t-.36,1.4q-.169.7-.314,1.4t-.265,1.4q-.121.7-.219,1.4t-.17,1.4q-.073.7-.124,1.4T164.62,305.934Z" transform="translate(-121.05 -88.406)"/></svg>