<svg id="Layer_1" data-name="Layer 1" xmlns="http://www.w3.org/2000/svg" viewBox="0 0 144.441 119.778"><defs><style>.cls-1{fill:#231f20;}</style></defs><path class="cls-1" d="M164.62,305.934l-.219-.005-.219,0-.218,0-.219,0-.218,0-.219,0-.219,0-.218,0-.219-.005-.218,0-.219,0-.219,0-.218,0-.219,0-.218,0-.219,0-.219,0-.218,0-.219,0-.218,0-.219,0-.219,0-.218,0-.219,0-.218,0-.219,0-.219,0-.218,0-.219,0-.218,0-.219,0-.218,0q.029-.436.084-.873c.037-.29.083-.581.137-.871s.117-.581.188-.871.151-.58.24-.869.186-.579.292-.869.22-.578.343-.867.255-.578.4-.866.289-.577.446-.866.324-.576.5-.863.358-.576.55-.863.392-.575.6-.861.427-.574.653-.86.46-.573.7-.859.494-.572.755-.857.528-.571.805-.856.563-.569.857-.854.6-.568.908-.852.631-.568.959-.851.665-.566,1.011-.849.7-.565,1.061-.847.732-.564,1.112-.846.766-.563,1.162-.844.8-.561,1.214-.842.834-.56,1.264-.84.869-.559,1.315-.838.9-.557,1.366-.836.936-.556,1.417-.834.969-.555,1.466-.832,1-.553,1.518-.829,1.037-.552,1.568-.828,1.07-.55,1.618-.825,1.1-.549,1.669-.823l.491-.237.493-.237.5-.235.5-.235.5-.234.5-.232.5-.232.5-.232.5-.23.5-.23.506-.228.507-.228.508-.228.508-.226.51-.226.509-.225.511-.224.51-.224.511-.223.511-.222.511-.222.512-.221.511-.22.511-.22.51-.219.51-.219.51-.218.509-.218.508-.217.508-.217.507-.216.5-.215.845-.361.846-.361.847-.362.848-.363.849-.364.848-.366.847-.367.847-.369.846-.37.844-.372.842-.374.839-.376q.42-.187.837-.378t.834-.38l.831-.382.826-.385c.275-.128.549-.258.823-.387s.546-.259.817-.39.543-.261.813-.392l.808-.4q.4-.2.8-.4t.8-.4l.789-.4q.393-.2.783-.408c.259-.136.518-.273.775-.411s.513-.276.767-.414.508-.279.76-.419.5-.28.751-.421.5-.283.743-.426.49-.286.733-.43.485-.288.724-.433.478-.291.714-.438l.134-.083.134-.084.132-.084.131-.084.13-.085.128-.085.126-.084.124-.085.121-.085.12-.085.116-.086c.038-.028.076-.056.113-.085s.075-.057.111-.085l.107-.085.1-.085.1-.085.095-.085.091-.085c.03-.028.059-.057.087-.085s.056-.056.082-.084l.078-.085q.038-.042.072-.084l.067-.084c.021-.028.042-.055.061-.083s.038-.056.056-.084.034-.055.049-.083.03-.055.044-.082l.037-.082c.011-.028.021-.055.03-.082s.017-.055.024-.082.012-.054.016-.081a.753.753,0,0,0,.009-.08.817.817,0,0,0,0-.14.843.843,0,0,0-.024-.139.952.952,0,0,0-.045-.137,1.187,1.187,0,0,0-.065-.135,1.513,1.513,0,0,0-.086-.134,1.551,1.551,0,0,0-.1-.133c-.038-.044-.079-.087-.123-.131s-.09-.086-.14-.129-.1-.085-.157-.127-.113-.084-.173-.125-.123-.083-.188-.124-.133-.081-.2-.121-.142-.08-.217-.12-.151-.078-.229-.117-.16-.077-.242-.115-.167-.076-.254-.113l-.264-.111-.274-.108-.284-.106-.292-.1c-.1-.034-.2-.067-.3-.1s-.2-.066-.307-.1-.207-.064-.313-.095l-.319-.093c-.107-.03-.214-.06-.323-.089l-.328-.086c-.109-.029-.22-.057-.33-.084l-.334-.08c-.111-.027-.223-.053-.335-.078l-.336-.074-.336-.071-.336-.067q-.766-.15-1.535-.29t-1.54-.27q-.771-.129-1.546-.249t-1.552-.231q-.777-.111-1.557-.212t-1.563-.194q-.783-.093-1.569-.177t-1.574-.161q-.789-.075-1.581-.144t-1.586-.13q-.794-.06-1.591-.114t-1.6-.1q-.8-.048-1.6-.088t-1.609-.075q-.807-.034-1.615-.063t-1.621-.052q-.812-.023-1.626-.041t-1.632-.031q-.818-.014-1.638-.022t-1.644-.014q-.823,0-1.65,0t-1.656,0l-1.661.009-1.668.015-1.673.02-1.679.025-1.685.029-1.691.033-1.7.035-1.7.037-1.709.039-1.715.039-1.08.025-1.083.025-1.085.025-1.087.024-1.088.023-1.091.023-1.092.022-1.093.02-1.095.019-1.095.017-1.1.016-1.1.013-1.1.012-1.1.009c-.366,0-.733,0-1.1.006s-.734,0-1.1,0l-1.1,0-1.1,0-1.1-.005-1.1-.009q-.55,0-1.1-.012l-1.1-.016c-.367-.006-.734-.012-1.1-.02s-.733-.015-1.1-.024-.733-.018-1.1-.028-.732-.021-1.1-.033-.733-.024-1.1-.037l-1.1-.042-1.1-.047-1.094-.053c-.365-.018-.73-.038-1.094-.058s-.728-.041-1.092-.063l-.183-.011-.183-.012-.184-.012-.184-.013-.185-.013-.185-.014-.186-.015-.186-.016-.186-.016-.186-.018-.187-.019-.187-.02-.187-.021-.187-.023-.187-.024-.187-.026-.187-.027-.187-.03c-.062-.009-.124-.02-.186-.03l-.186-.033-.187-.035-.185-.037-.186-.038-.185-.041-.184-.044-.184-.045-.184-.049-.183-.05-.182-.053-.181-.056-.181-.059-.18-.062c-.111-.039-.22-.079-.328-.121s-.213-.084-.316-.129-.2-.089-.3-.136-.2-.095-.292-.144-.19-.1-.281-.151-.181-.1-.269-.158-.173-.108-.256-.164-.165-.113-.244-.17-.156-.117-.231-.177-.147-.12-.218-.182-.139-.124-.2-.187-.13-.128-.192-.193-.122-.131-.179-.2-.112-.134-.165-.2-.1-.137-.152-.206-.094-.14-.137-.21-.085-.143-.124-.215-.075-.144-.109-.217-.066-.147-.095-.221-.056-.149-.081-.224-.046-.151-.065-.226-.037-.153-.051-.229-.027-.154-.036-.231-.017-.155-.021-.233-.006-.156-.005-.234,0-.157.01-.236.015-.158.026-.237.025-.158.042-.237.036-.159.058-.238.047-.159.074-.238.058-.159.091-.238.068-.159.107-.238c.029-.061.06-.121.092-.181s.065-.119.1-.178.07-.118.107-.176.075-.117.114-.174.079-.115.121-.172.083-.113.127-.169.088-.112.133-.168.092-.11.14-.165.1-.109.145-.163l.151-.161c.051-.053.1-.106.157-.159s.106-.1.161-.157.11-.1.166-.155l.171-.153.176-.152.179-.15.184-.148c.062-.049.124-.1.187-.146s.127-.1.191-.145l.194-.143c.065-.048.131-.095.2-.142l.2-.14c.067-.047.135-.093.2-.139l.2-.138.207-.136.209-.134c.07-.045.14-.09.211-.134l.211-.132.213-.132.214-.13.215-.129.215-.128q.614-.363,1.239-.72t1.262-.7q.636-.35,1.283-.692t1.3-.678q.655-.336,1.322-.665t1.342-.652q.675-.323,1.359-.64t1.377-.628q.693-.31,1.393-.617t1.408-.605q.708-.3,1.424-.595t1.437-.585q.722-.291,1.45-.576t1.462-.566q.734-.28,1.474-.557t1.484-.549q.746-.273,1.494-.541t1.5-.534q.754-.264,1.512-.526t1.518-.52q.761-.258,1.525-.513t1.531-.508q.766-.254,1.536-.5l1.54-.5q.769-.247,1.543-.493t1.545-.489q.774-.245,1.547-.486l1.548-.482,1.548-.48,1.547-.477,1.545-.475,1.543-.474.059-.018.06-.018.059-.019.059-.018.059-.018.059-.018.06-.018.059-.018.059-.019.059-.018.059-.018.059-.018.06-.018.059-.019.059-.018.059-.018.059-.018.059-.018.06-.018.059-.019.059-.018.059-.018.059-.018.059-.018.06-.019.059-.018.059-.018.059-.018.059-.018.059-.018.06-.019.059-.018,2.086-.642,2.086-.644,2.087-.646,2.086-.648,2.086-.65,2.086-.652,2.086-.654,2.085-.655,2.085-.658,2.083-.658,2.083-.661,2.082-.662,2.081-.664,2.08-.665,2.079-.667,2.077-.668,2.075-.67,2.074-.671,2.072-.673,2.071-.674q1.033-.336,2.068-.675l2.066-.676,2.064-.678,2.062-.679,2.06-.68,2.056-.681,2.055-.682,2.051-.683,2.049-.685,2.045-.685q1.023-.342,2.043-.686l2.039-.687.471-.159.465-.159.459-.157.453-.156.446-.156.439-.155.433-.155.426-.155.418-.155c.139-.051.276-.1.412-.155s.27-.1.4-.155l.4-.156.389-.156.382-.158c.125-.053.25-.1.373-.159l.365-.159c.121-.054.24-.107.357-.161s.234-.109.349-.163l.34-.165c.112-.055.222-.11.331-.166l.323-.168.314-.171c.1-.057.205-.115.305-.173s.2-.117.3-.176.193-.118.286-.178.186-.121.277-.182.18-.122.267-.184.173-.125.257-.188.167-.127.247-.191.16-.129.238-.195.153-.132.227-.2.146-.135.216-.2l.009-.009.009-.008.009-.009.009-.008.008-.009.009-.008.008-.009.008-.008.008-.008.008-.008.007-.008.008-.008.007-.007.008-.008.007-.008.007-.007.007-.008.006-.007.007-.007.007-.008.006-.007.006-.007.006-.007.006-.007.006-.006.006-.007.006-.007.006-.006,0-.007,0-.006.006-.006,0-.007-.01,0-.01,0-.01,0-.01,0-.011,0-.01,0-.011,0-.011,0-.011,0-.011,0-.011,0-.011,0-.012,0-.011,0-.012,0-.012,0-.012,0-.012,0-.013,0-.012,0-.013,0-.013,0-.013,0-.013,0-.013,0-.013,0-.014,0-.014,0-.013,0-.014,0-.015,0-.014,0c-.161-.034-.323-.066-.486-.1s-.326-.063-.49-.093-.328-.06-.493-.089-.331-.057-.5-.084l-.5-.079q-.252-.039-.5-.075l-.507-.07q-.255-.035-.51-.066c-.171-.022-.342-.042-.513-.062l-.516-.059c-.172-.018-.345-.037-.518-.054s-.346-.035-.52-.051-.348-.033-.523-.048-.349-.03-.524-.045l-.526-.041q-.264-.021-.528-.039l-.53-.036c-.176-.012-.353-.023-.53-.033l-.532-.032-.533-.029-.534-.027-.534-.025-.535-.023-.535-.022-.535-.02-.536-.02-.535-.018-.535-.017-.534-.017-.534-.016-.533-.016-.532-.016-3.539-.1q-1.778-.051-3.567-.1t-3.592-.1q-1.8-.049-3.616-.1t-3.638-.09q-1.824-.044-3.659-.083t-3.676-.073q-1.844-.035-3.693-.063t-3.708-.05q-1.857-.021-3.72-.036t-3.732-.02q-1.868-.006-3.74,0t-3.748.016q-1.875.013-3.753.038t-3.757.06q-1.88.036-3.759.084t-3.758.11q-1.878.063-3.756.138t-3.753.167q-1.875.091-3.747.2t-3.739.23q-1.868.124-3.73.265t-3.718.3q-1.857.159-3.706.338t-3.691.377q-1.842.2-3.674.419t-3.655.46q-1.824.242-3.635.506t-3.613.551q-1.8.287-3.589.6t-3.562.648q-1.775.336-3.535.7l-.077-.113-.076-.113-.077-.113-.077-.113-.076-.112-.077-.113-.076-.113-.077-.113-.077-.113-.076-.113-.077-.112-.077-.113-.076-.113-.077-.113-.076-.113-.077-.112-.077-.113-.076-.113-.077-.113-.077-.113-.076-.113-.077-.112-.077-.113-.076-.113-.077-.113-.076-.113-.077-.112-.077-.113-.076-.113-.077-.113-.077-.113-.076-.113q1.824-.375,3.661-.724t3.686-.672q1.848-.322,3.708-.621t3.729-.571q1.87-.275,3.749-.525t3.766-.478q1.887-.228,3.781-.434t3.8-.392q1.9-.186,3.807-.352t3.818-.312q1.911-.147,3.827-.276t3.833-.24q1.918-.111,3.839-.206t3.842-.175q1.922-.079,3.844-.144t3.844-.116q1.921-.051,3.841-.088t3.839-.064q1.917-.027,3.832-.041t3.826-.019q1.911,0,3.817,0t3.806.019q1.9.014,3.793.035t3.78.05q1.886.029,3.764.063t3.746.074q1.868.04,3.726.084t3.706.092q1.846.047,3.682.1t3.658.1l3.632.1,3.6.105.557.017.562.016.566.018.569.018.574.018.576.02.58.022.583.023.586.024.588.027.59.028.592.031.594.034c.2.011.4.023.6.036s.4.025.6.039.4.027.6.042.4.029.6.045l.6.049c.2.017.4.034.6.053l.6.056.6.061c.2.02.4.042.6.064l.6.07c.2.024.4.048.6.074s.4.051.6.079l.594.083q.3.043.594.09c.2.03.394.062.591.094s.393.066.589.1.392.069.587.106.39.074.584.112.388.078.581.119l.09.018.1.021.106.023.113.025.12.027.127.03.132.032.137.034.142.037.146.039.151.043.153.045.156.048.158.051.16.054.161.057.162.061.161.064.162.067.16.071.16.075.157.078.155.082.152.086.148.09c.049.031.1.063.145.095s.094.064.14.1.091.067.135.1.087.071.129.107.084.074.124.111.079.077.117.116.075.08.11.12l.063.075.06.077.059.081c.019.027.037.055.055.083s.036.058.053.087.034.059.05.089.031.061.046.093.029.063.042.095.026.065.038.1.022.067.032.1.02.069.028.1.016.071.022.107.012.073.017.11.008.075.01.113,0,.076,0,.116,0,.078,0,.118,0,.081-.01.122-.011.082-.018.124-.017.084-.027.127-.021.086-.034.13-.028.088-.044.133-.033.09-.052.135-.04.092-.062.139-.046.094-.072.141-.053.1-.082.144-.06.1-.092.147-.068.1-.1.149-.074.1-.115.152-.082.1-.126.155-.09.1-.138.158-.1.106-.151.16-.107.108-.164.163q-.156.151-.318.3t-.333.291c-.113.095-.228.19-.346.283s-.237.186-.358.277-.245.181-.37.27-.253.177-.381.263-.26.173-.392.257-.267.169-.4.251-.273.164-.411.245-.279.16-.42.238-.283.157-.427.233-.289.153-.435.228-.293.148-.441.221-.3.146-.447.217-.3.142-.453.211-.3.139-.457.207-.306.135-.46.2-.309.132-.465.2l-.466.193-.469.188-.47.184-.471.18-.47.176-.47.172-.468.169-.467.166-.463.162-.461.159c-.152.053-.305.105-.456.156l-.451.154-.447.151-.44.149-2.047.689-2.05.689-2.053.688-2.056.686-2.059.686-2.062.685-2.065.684-2.067.682-2.069.682-2.072.68-2.074.679-2.076.677-2.078.677-2.08.675-2.082.673-2.083.673-2.085.67-2.086.67-2.087.667-2.089.667-2.09.664q-1.044.333-2.09.663l-2.092.661q-1.046.332-2.092.66l-2.093.658-2.093.656-2.094.654-2.094.653-2.094.65-2.094.649-2.094.646-2.094.645-.059.018-.06.018-.059.018-.059.019-.059.018-.06.018-.059.018-.059.018-.059.019-.06.018-.059.018-.059.018-.059.018-.06.019-.059.018-.059.018-.06.018-.059.018-.059.019-.059.018-.06.018-.059.018-.059.018-.059.019-.06.018-.059.018-.059.018-.059.018-.06.019-.059.018-.059.018-.06.018-1.5.46-1.5.462-1.5.463-1.5.466q-.752.232-1.5.468l-1.5.47-1.5.474-1.5.478-1.493.482q-.744.242-1.488.486t-1.483.491q-.739.246-1.476.5t-1.47.5q-.732.252-1.461.507t-1.453.514q-.723.258-1.442.52t-1.433.528q-.712.266-1.42.535t-1.409.543q-.7.273-1.4.551t-1.381.56q-.687.282-1.366.568t-1.351.578q-.671.291-1.333.588t-1.317.6q-.653.3-1.3.608t-1.278.619q-.635.312-1.259.63t-1.238.642q-.612.324-1.215.654t-1.194.667q-.59.336-1.169.679l-.181.107-.177.107-.174.105-.17.1-.168.1-.163.1-.16.1-.157.1-.153.1-.149.1-.145.1-.141.1-.138.1-.133.1-.13.1-.125.1c-.041.032-.082.065-.121.1s-.079.065-.117.1-.076.065-.113.1-.073.065-.108.1-.07.065-.1.1l-.1.1c-.032.032-.064.065-.094.1l-.091.1c-.029.032-.058.065-.085.1l-.081.1c-.026.033-.052.065-.076.1s-.049.066-.071.1l-.067.1c-.021.033-.041.066-.061.1s-.038.066-.056.1l-.052.1c-.013.027-.025.054-.037.082s-.022.054-.032.082-.019.055-.027.082-.016.055-.022.083-.013.055-.018.082-.01.055-.013.083-.007.055-.009.082,0,.055,0,.083,0,.054,0,.081,0,.054,0,.081,0,.054.009.081.008.053.014.079.011.052.018.078.014.052.022.078.016.051.026.076.019.05.03.074.022.049.034.073.025.048.038.071.028.047.043.07.03.045.045.067l.05.066q.025.031.054.063c.018.02.037.041.057.06s.039.04.06.059l.064.055.068.053c.023.017.047.033.071.049s.049.032.074.047.051.03.078.044.053.027.081.04.055.025.084.036.057.023.087.033l.062.021.064.02.067.019.07.019.072.018.074.017.077.016.078.016.081.014.083.015.085.014.087.013.088.012.091.012.092.012.093.011.095.011.1.01.1.01.1.009.1.009.1.009.1.008.1.008.1.008.106.008.106.007.107.007.108.007.109.007.109.007.11.007c.347.021.694.041,1.043.06s.7.038,1.046.055.7.035,1.049.05.7.031,1.051.045.7.028,1.054.041l1.056.035,1.058.031c.353.01.707.018,1.06.027l1.062.022,1.064.019,1.065.015,1.066.011,1.067.007,1.068,0h2.138l1.07,0c.357,0,.714,0,1.07-.006l1.071-.01,1.07-.011,1.07-.014c.356,0,.713-.009,1.069-.015l1.069-.017,1.068-.018,1.067-.02,1.066-.021,1.065-.023,1.064-.022,1.062-.024,1.06-.024,1.058-.024,1.056-.025,1.706-.039,1.71-.039,1.713-.037,1.715-.036,1.718-.032,1.719-.029q.861-.014,1.722-.025t1.722-.02q.862-.009,1.724-.014t1.724-.008q.862,0,1.725,0t1.724.007q.863.006,1.725.015t1.723.025q.862.015,1.723.035t1.721.045q.861.025,1.72.056t1.718.069q.858.037,1.715.081t1.713.095q.855.051,1.71.11t1.706.124q.852.066,1.7.139t1.7.157q.849.081,1.695.173t1.69.191q.843.1,1.685.209t1.68.229q.838.119,1.674.248t1.668.27q.833.14,1.662.29t1.655.313q.364.072.72.146t.7.153q.345.078.679.159c.222.054.442.109.657.165s.428.114.637.172.414.117.615.177.4.121.594.183.386.125.573.189.371.128.55.194.357.132.529.2.342.136.507.205.326.139.484.21.311.143.461.216.3.146.439.22.281.149.416.225.265.153.392.23.25.156.369.234.235.159.346.239.218.162.321.244.2.164.3.247.186.167.273.252.171.169.249.255.154.172.225.259.137.175.2.263.121.177.175.267.1.179.149.27.087.182.124.273.069.184.1.277.052.186.072.28.035.188.046.282.018.19.02.286,0,.191-.006.288c0,.065-.011.129-.02.193s-.018.127-.03.19-.026.125-.042.187-.033.124-.052.185-.04.122-.063.182-.047.12-.073.18-.053.119-.082.177-.06.117-.092.175-.066.116-.1.173-.072.114-.11.171-.077.112-.118.168-.083.111-.126.166-.088.11-.133.164-.093.108-.141.162-.1.107-.148.16-.1.106-.155.158-.106.105-.161.156-.11.1-.167.155-.114.1-.173.152-.117.1-.177.151l-.183.149c-.062.05-.125.1-.188.148l-.191.146-.2.144c-.066.048-.132.1-.2.143s-.135.1-.2.142l-.205.14-.208.139c-.07.046-.14.092-.211.137l-.212.137-.213.135-.215.134q-.375.233-.754.463t-.764.457c-.255.152-.513.3-.771.453s-.519.3-.78.447-.524.3-.788.443-.528.294-.8.439-.533.29-.8.435-.538.287-.809.43l-.816.426q-.408.212-.821.422t-.828.418q-.414.209-.832.415t-.838.411q-.42.205-.843.408t-.847.405l-.851.4q-.426.2-.855.4l-.858.4-.861.393-.863.39-.866.388-.868.386-.87.384-.871.381-.872.38-.872.378-.872.376-.873.375-.872.374-.871.372-.87.371-.869.371-.5.212-.5.213-.5.213-.5.213-.5.215-.5.214-.5.215-.5.216-.5.216-.5.217-.5.217-.5.217-.5.219-.5.218-.5.22-.5.22-.5.22-.5.221-.5.222-.5.222-.5.223-.5.223-.493.224-.491.225-.49.225-.489.226-.486.226-.485.227-.482.228-.48.229-.479.229-.475.23q-.777.376-1.531.754t-1.484.756q-.73.376-1.438.756t-1.391.758q-.684.378-1.345.758t-1.3.76q-.637.38-1.252.76t-1.206.761q-.591.381-1.159.763t-1.112.763q-.544.381-1.066.763t-1.019.765q-.5.382-.973.765t-.925.766q-.452.383-.879.766t-.832.767q-.4.384-.784.767t-.738.768q-.359.384-.691.769t-.644.768q-.31.384-.6.769t-.549.769q-.264.386-.5.77t-.455.77q-.216.384-.408.77t-.36.77c-.113.257-.217.513-.314.77s-.185.513-.265.77-.154.514-.219.77-.121.514-.17.771-.091.513-.124.77S164.637,305.677,164.62,305.934Z" transform="translate(-121.05 -186.156)"/></svg>