<?xml version="1.0" encoding="UTF-8" standalone="no"?>
<svg
   xmlns:dc="http://purl.org/dc/elements/1.1/"
   xmlns:cc="http://creativecommons.org/ns#"
   xmlns:rdf="http://www.w3.org/1999/02/22-rdf-syntax-ns#"
   xmlns:svg="http://www.w3.org/2000/svg"
   xmlns="http://www.w3.org/2000/svg"
   height="1544.0"
   width="1120.0"
   xml:space="preserve"
   style="background-color:white"
   viewBox="0 0 1120 1544"
   y="0px"
   x="0px"
   id="Vector_rough"
   version="1.1"><metadata
   id="metadata298"><rdf:RDF><cc:Work
       rdf:about=""><dc:format>image/svg+xml</dc:format><dc:type
         rdf:resource="http://purl.org/dc/dcmitype/StillImage" /></cc:Work></rdf:RDF></metadata><defs
   id="defs296" />
<style
   id="style2"
   type="text/css">.st0{fill:#FFFFFF;stroke-width:1.544000;stroke-linecap:round;stroke-linejoin:round;stroke:#000000;}

	.st1{fill:none;stroke:#000000;stroke-width:1.544000;stroke-linecap:round;stroke-linejoin:round;}</style>
<g
   fill="none"
   stroke-linejoin="round"
   stroke-linecap="round"
   stroke-width="1.544000"
   stroke="#000000"
   id="vector_rough">
	<rect
   id="rect4"
   fill="none"
   stroke-linejoin="round"
   stroke-linecap="round"
   stroke-width="1.544000"
   stroke="#000000"
   height="1544"
   width="1120"
   class="st0" />
	<polyline
   id="polyline6"
   fill="none"
   stroke-linejoin="round"
   stroke-linecap="round"
   stroke-width="1.544000"
   stroke="#000000"
   points="543.5,13.8 545.6,10.6 544.8,7.3 541.4,3.4 538,1.3 534.5,1 530.7,2.9 527.8,6 526.5,9.4 525.9,13.3    526.1,17.5 527,21.9 528.7,26.2 531.5,30.4 535.1,33.4 539,35.2 542.8,36 546.4,35.9 550.7,35.2 555,33.9 557.2,31.7 556.3,27.9    553.8,25.4 550.8,25 547.8,26.4 545.2,29.4 543.5,34 543.4,39.9 544.3,45.7 545.4,50.8 546.7,55.2 548.4,58.7 550.5,61.2    553.2,62.6 557.7,63.2 562.5,63.4 565.7,62.5 567.7,60.3 566.9,58.9 564.1,58.8 560.2,60.6 556.1,65 553.2,71.4 552.1,77.1    551.8,82.3 552.4,86.4 553.8,88.8 556,89.2 559,86.9 560.4,83.6 558.7,83 556.2,84.8 554.7,88.6 556.6,94.1 560.8,98.7    564.6,101.3 569,103.2 574,104.7 579.2,105.8 584.6,106.5 590,106.9 595.1,107.1 599.9,107.1 604,107 607.4,106.9 609.8,106.7    611.1,106.6 611.3,106.5  "
   class="st1" />
	<polyline
   id="polyline8"
   fill="none"
   stroke-linejoin="round"
   stroke-linecap="round"
   stroke-width="1.544000"
   stroke="#000000"
   points="520.6,40.9 516.8,43.4 513,45.4 509.2,46.5 505.4,46.5 501.9,45.1 498.6,41.8 494.5,37.4 491.8,36.7    490.1,39 489.1,43.5 488.4,47.1 487.5,50.9 486.5,54.9 485.2,59 483.5,62.9 481.2,66.6 478.2,69.9 474.4,73.5 471.3,77.1    469.4,80.3 469,83.3 470.2,86.4 473.3,89.8 474.7,90.9  "
   class="st1" />
	<polyline
   id="polyline10"
   fill="none"
   stroke-linejoin="round"
   stroke-linecap="round"
   stroke-width="1.544000"
   stroke="#000000"
   points="478.8,106.5 475.9,104.1 473.6,100.2 472.8,96.1 474.6,92.7 479.1,90 482.7,87.3 485.8,85.7    489.2,85.8 492.6,87.6 495,91 495.6,95.4 494.9,99.6 494.8,103.1 496.1,106.4 499.4,110.4 503.4,114.2 507.5,118 511.5,121.5    515,124.5 517.4,126.5 518.5,127.4 518.5,127.4  "
   class="st1" />
	<polyline
   id="polyline12"
   fill="none"
   stroke-linejoin="round"
   stroke-linecap="round"
   stroke-width="1.544000"
   stroke="#000000"
   points="464.2,100.3 460.4,101.1 456,102.1 451.4,103.3 446.6,104.7 442,106.2 437.6,107.7 433.6,109.4    430.3,111.1 427.8,112.8 426.2,114.4 424.6,116.4 422.3,118.8 419.6,121.6 416.4,124.5 412.8,127.7 408.9,131 404.7,134.2    401.6,136.5 399.4,138.1 397.3,139.9 395.1,141.9 392.9,144.1 390.7,146.5 388.6,149.3 386.5,152.4 384.5,155.9 382.6,159.8    380.8,164.1 379.1,168.9 377.5,174.2 376.1,180 374.9,186.4 374.6,188.8  "
   class="st1" />
	<polyline
   id="polyline14"
   fill="none"
   stroke-linejoin="round"
   stroke-linecap="round"
   stroke-width="1.544000"
   stroke="#000000"
   points="464.2,102.4 460.2,102.9 455.7,103.1 451.3,102.7 447.5,101.8 444.2,100.2 440.5,99.1 436.8,99.5    433.7,102.8 432.1,106.7 430,110.3 427.3,114 424.3,117.9 421.5,121.6 419.1,125.2 417.6,128.3 417.1,131.1 416.8,134.8    416.7,139.1 416.9,143.7 417.6,148.3 418.9,152.7 420.8,156.4 423.6,159.3 427.2,160.8 431,161.4 435.2,162 439.9,162.5    444.6,163.1 449.4,163.6 454,164.1 458.2,164.6 461.9,165.2 464.8,165.8 468.9,166.4 474,166.2 479.5,165.5 484.6,164.5    488.6,163.5 491,162.9 491.4,162.8  "
   class="st1" />
	<polyline
   id="polyline16"
   fill="none"
   stroke-linejoin="round"
   stroke-linecap="round"
   stroke-width="1.544000"
   stroke="#000000"
   points="402.7,190.9 406.2,186.9 409.6,182.9 412.9,179 416,175.6 418.8,172.8 421.2,170.9 423.3,170.1    425.3,170.5 428.3,172 432,174.2 436.2,176.8 440.6,179.4 445,181.8 449.1,183.7 452.7,184.7 452.8,184.7  "
   class="st1" />
	<polyline
   id="polyline18"
   fill="none"
   stroke-linejoin="round"
   stroke-linecap="round"
   stroke-width="1.544000"
   stroke="#000000"
   points="610.2,108.6 606.4,108.5 602.3,107.8 598.2,106.6 594.5,104.6 591.5,101.7 589.6,97.9 588.8,91.8    589.6,87.7 591.3,84.8 593.2,82.2 593.3,79.7 591.3,76.5 588.2,72.8 584.7,68.8 581.5,64.9 579.4,61.5 579.1,58.5 581,56.7    583,57.7 583.1,61.9 579.6,68.6 577.1,72.1 574.2,75.7 571.1,79.2 567.7,82.7 564.3,86 561,89 557.9,91.7 555,94.1 552.4,96    550.1,97.7 546.8,100.3 543.3,102.6 539.5,104.3 535.5,104.9 531,104.1 528.9,100.8 530.8,98.2 535.1,99.2 537.6,102.2    539.8,105.6 541.5,109.5 542.6,113.6 543,117.9 542.5,122.1 541.2,125.7 539.4,129.1 537.2,132.4 535.1,135.7 533.2,139.3    532,143.4 531.8,148.2 532.2,153.3 532,157.5 531.6,161.2 531.1,164.6 530.8,168 530.8,171.8 531.3,176.1 532.6,181.3 535.5,187.6    539,192.8 542.5,196.7 545.6,199.6 548.1,201.4 549.5,202.3 549.8,202.4  "
   class="st1" />
	<polyline
   id="polyline20"
   fill="none"
   stroke-linejoin="round"
   stroke-linecap="round"
   stroke-width="1.544000"
   stroke="#000000"
   points="525.8,155.5 529,152.8 532.3,149.7 535.6,146.6 538.9,143.7 542.3,141 545.8,138.7 549.3,137    553,136.1 556.7,136.2 561.3,137.5 565.9,139.4 568.8,141.6 570.6,144.3 571.4,147.4 571.7,151.4 571.7,156.3 571,163.3    569.8,169.2 568.7,173.3 567.8,175.7 567.5,176.3  "
   class="st1" />
	<polyline
   id="polyline22"
   fill="none"
   stroke-linejoin="round"
   stroke-linecap="round"
   stroke-width="1.544000"
   stroke="#000000"
   points="535.2,151.3 541.2,151.4 545.5,151.4 548.8,150.9 551.6,149.4 554.1,146.9 556.7,143.8 559.2,140    560.8,136 560.9,132.1 558.9,128.6 555.2,126.3 551.6,124.7 547.5,123.4 543.2,122.4 538.7,121.5 534.3,120.8 530,120.1    525.9,119.4 522.3,118.5 518.3,117.6 514,117.2 510.2,117.7 506.8,119.1 503.6,121.4 500.3,124.6 497.9,127.3 494.9,130.2    491.5,133.3 487.6,136.6 483.7,139.7 480,142.5 476.6,144.9 473.8,146.6 471.6,147.5 468.4,148.5 464.3,149.6 459.7,151 455,152.6    450.7,154.5 447.1,156.7 444.6,159.4 444.4,159.7  "
   class="st1" />
	<polyline
   id="polyline24"
   fill="none"
   stroke-linejoin="round"
   stroke-linecap="round"
   stroke-width="1.544000"
   stroke="#000000"
   points="440.3,109.7 445.8,109.8 450.3,110.1 454.2,110.9 457.6,112.1 460.6,113.9 463.6,116.3 466.5,118.4    469.7,120.4 473.3,122.4 476.9,124.7 480.4,127.2 483.6,130.2 486.4,133.5 488.4,137.4 490,142.6 491.7,147.7 493.4,151 495.7,153    498.8,154.1 503.3,154.4 506.1,152.2 505.8,148.8 501.8,146.1 498.3,145.4 494.9,145.3 491.5,146 488,147.8 484.4,150.6    480.5,154.8 476.8,160.2 474.3,165.1 472.5,169.2 471,172.4 469.2,174.5 466.7,175.3 466.3,175.3  "
   class="st1" />
	<polyline
   id="polyline26"
   fill="none"
   stroke-linejoin="round"
   stroke-linecap="round"
   stroke-width="1.544000"
   stroke="#000000"
   points="465.3,109.7 462.2,112.3 459.1,114.6 456,116.7 452.7,118.6 449.1,120.4 445.2,122.1 440.9,123.7    436.1,125.3 432.3,127.2 429.2,129.9 426.8,133.2 424.8,136.9 423.2,140.9 421.6,144.9 419.9,148.7 417.9,152.3 415.8,155.1    414.3,157.8 413,161 412.1,164.5 411.8,168.2 412.1,172 413,175.8 414.8,179.5 417.5,182.9 421.3,185.9 426.2,188.4 432.9,190.4    441,192.2 447.5,193.6 452.6,194.6 456.4,195.3 459,195.8 460.5,196.1 461.1,196.1 461.1,196.1  "
   class="st1" />
	<polyline
   id="polyline28"
   fill="none"
   stroke-linejoin="round"
   stroke-linecap="round"
   stroke-width="1.544000"
   stroke="#000000"
   points="448.6,122.2 447.1,126.9 445.9,131.4 444.5,135.5 443,139.1 441.1,142.1 438,144.7 434.2,147.5    433.4,150.4 435.7,154.4 437.9,158.5 439.1,161.4 439.2,161.8  "
   class="st1" />
	<polyline
   id="polyline30"
   fill="none"
   stroke-linejoin="round"
   stroke-linecap="round"
   stroke-width="1.544000"
   stroke="#000000"
   points="439.2,144 442.3,144.7 445.7,146 449.2,147.8 452.6,150.3 455.6,153.4 458,157.2 459.6,161.7    460.1,164.9  "
   class="st1" />
	<polyline
   id="polyline32"
   fill="none"
   stroke-linejoin="round"
   stroke-linecap="round"
   stroke-width="1.544000"
   stroke="#000000"
   points="455.9,123.2 460.2,123.1 464.8,122.9 469.3,122.8 473.4,122.8 477,123.1 477.8,123.2  "
   class="st1" />
	<polyline
   id="polyline34"
   fill="none"
   stroke-linejoin="round"
   stroke-linecap="round"
   stroke-width="1.544000"
   stroke="#000000"
   points="466.3,119 467.1,123.2 467.8,126.9 467.7,130.4 466.2,134.1 462.5,138.5 454.2,146.8 452.2,148.8    451.7,149.3  "
   class="st1" />
	<polyline
   id="polyline36"
   fill="none"
   stroke-linejoin="round"
   stroke-linecap="round"
   stroke-width="1.544000"
   stroke="#000000"
   points="487.2,164.9 484.1,168.7 481.7,172.4 480.1,176 479.5,179.5 480,183 481.8,186.4 484.8,189.8    488.5,192.4 492.5,193.9 496.9,194.7 501.5,195 506.1,194.9 510.8,194.5 515.3,193.9 519.5,193.4 523.3,193 526.4,192.9    529.8,193.4 533.4,195.1 536.8,197.1 540.1,198.8 543.9,199.3 548.5,197.9 553.2,194.7 557.2,191.4 560.5,188.2 563.2,185.2    565.5,182.7 567.3,180.7 567.5,180.5  "
   class="st1" />
	<polyline
   id="polyline38"
   fill="none"
   stroke-linejoin="round"
   stroke-linecap="round"
   stroke-width="1.544000"
   stroke="#000000"
   points="498.7,173.2 502.7,173.6 506.6,174.8 510.5,176.5 514.2,178.8 517.8,181.4 521.2,184.4 524.4,187.5    527.5,190.7 530.2,193.9 532.7,197 535,199.8 537.7,203.6 540.8,208 543.3,210.1 546,210.1 549.4,207.9 549.8,207.6  "
   class="st1" />
	<polyline
   id="polyline40"
   fill="none"
   stroke-linejoin="round"
   stroke-linecap="round"
   stroke-width="1.544000"
   stroke="#000000"
   points="438.2,183.6 440.3,188 442.5,192.3 445,196.3 447.7,199.7 450.6,202.4 453.7,204.3 457,205    460.6,204.3 464.1,202.7 466.8,200.2 469.2,197.5 471.9,194.9 475.4,192.9 480.3,191.9 485.9,192 491,192.3 495.9,192.9    500.6,193.6 505,194.6 508.8,195.8 512,197.1 514.4,198.5 516.5,200.8 518,204.7 518.4,209.2 517.2,213 514.2,215 509.5,214.3    505.8,211.7 503.2,208 502,203.9 502.3,200.2 504.4,197.4 504.9,197.2  "
   class="st1" />
	<polyline
   id="polyline42"
   fill="none"
   stroke-linejoin="round"
   stroke-linecap="round"
   stroke-width="1.544000"
   stroke="#000000"
   points="494.5,101.3 491.9,105.3 489.3,109.3 486.9,113.2 484.6,117.2 482.5,121 480.6,124.8 479,128.4    477.8,131.8 477,135 476.7,138.2 476.6,141.9 476.3,145.8 475.6,149.9 474.5,154 472.9,158 470.7,161.7 467.8,164.9 464.1,167.5    463.2,168  "
   class="st1" />
	<polyline
   id="polyline44"
   fill="none"
   stroke-linejoin="round"
   stroke-linecap="round"
   stroke-width="1.544000"
   stroke="#000000"
   points="559.1,128.4 561.1,123.3 563.2,118.5 565.5,114 567.9,109.9 570.5,106 573.1,102.6 575.8,99.5    578.6,96.9 581.3,94.7 584.1,92.9 586.8,91.7 589.4,90.9  "
   class="st1" />
	<polyline
   id="polyline46"
   fill="none"
   stroke-linejoin="round"
   stroke-linecap="round"
   stroke-width="1.544000"
   stroke="#000000"
   points="571.7,160.7 577.5,160.6 581.5,160.1 584.3,159 586.4,157.4 588.4,155 591,151.6 594.6,147.3    598.5,142.4 600.6,137.6 601.2,133 600.6,129 599.2,125.5 597,122.9 594.5,121.4 592.1,121.5 590.4,123.5 589.3,126.9 588.7,131.3    588.6,136.3 588.8,141.5 589.1,146.4 589.8,151.4 590.8,156.6 591.6,161 592.2,164.9 592.3,168.5 591.9,171.8 590.9,174.7    589.4,177.8 587.2,181.1 584.4,184.3 581.1,187.3 577.4,189.9 573.3,191.8 569,192.9 565.4,193  "
   class="st1" />
	<polyline
   id="polyline48"
   fill="none"
   stroke-linejoin="round"
   stroke-linecap="round"
   stroke-width="1.544000"
   stroke="#000000"
   points="588.3,157.6 592.1,162 595.8,165.7 598.7,168.8 600.3,171.4 600,173.9 598.3,176.4 596.1,180    593.9,184.4 592.1,189 591,193.4 591.3,197.2 595.2,201 597.8,202.4 597.7,202.4  "
   class="st1" />
	<polyline
   id="polyline50"
   fill="none"
   stroke-linejoin="round"
   stroke-linecap="round"
   stroke-width="1.544000"
   stroke="#000000"
   points="615.5,132.6 611.3,128.5 609.3,125.5 610,123.1 614,120.9 617.9,120.4 621.2,122.1 623.5,125.5    624.7,129.8 624.8,133.1 624.8,136.3 624.7,140.3 624.8,144.9 624.9,149.8 625.3,154.8 625.8,159.6 626.7,164 627.9,167.8    629.7,171.2 632.1,175.1 634.4,178.4 637,180.9 640.2,182.7 644.4,183.6 650.4,183.4 655.6,182.4 658.9,181.8 660.7,183.2    661.7,186.8 662.9,190.3 664.4,194.6 666.2,199 668.2,203.4 670.5,207.3 672.9,210.3 674.9,211.8  "
   class="st1" />
	<polyline
   id="polyline52"
   fill="none"
   stroke-linejoin="round"
   stroke-linecap="round"
   stroke-width="1.544000"
   stroke="#000000"
   points="616.5,196.1 617.5,199.8 618.7,203.3 620.4,206.5 623,209.2 626.9,211 632.4,211.8 639.5,211.5    644.6,210.6 647.9,209.3 650.2,207.8 652,206.6  "
   class="st1" />
	<polyline
   id="polyline54"
   fill="none"
   stroke-linejoin="round"
   stroke-linecap="round"
   stroke-width="1.544000"
   stroke="#000000"
   points="617.5,202.4 613,205.2 609,208 605.4,210.2 602.2,211.4 599,211.1 595.9,208.9 594.3,206.1    594.5,202.9 596.4,199.8 599.6,196.7 603.9,193.7 609.7,191.1 614.2,190.4 617.1,191.1 620.2,192 625.4,191.6 630.5,190.4    633.8,190.5 636.3,192.5 638.8,195.6 641.7,198.8 644.7,202.3 647.7,205.7 650.5,208.5 652,209.7  "
   class="st1" />
	<polyline
   id="polyline56"
   fill="none"
   stroke-linejoin="round"
   stroke-linecap="round"
   stroke-width="1.544000"
   stroke="#000000"
   points="644.7,196.1 647,198.6 649.1,200.6 650.7,203 651.8,206.9 652.1,213 652.1,219.1 652.7,223.8    653.7,228.3 655.1,232.6 656.8,236.6 658.7,240.3 660.8,243.7 662.9,246.8 665,249.5 667.5,252.4 670.9,256.4 673.7,260.1    676.4,262.9 679.3,264.2 682.2,263.4 685.7,261.2 689.6,258.1 693.7,254.5 697.4,250.8 700.5,247.7 702.5,245.6 703.1,245.1  "
   class="st1" />
	<polyline
   id="polyline58"
   fill="none"
   stroke-linejoin="round"
   stroke-linecap="round"
   stroke-width="1.544000"
   stroke="#000000"
   points="652,218 656.7,217.3 660.9,216.2 664.6,215 668.2,213.7 671.9,212.6 675.9,211.9 680.9,211.6    685.8,209.5 689.3,205.7 691.4,201.7 692.4,198.9 692.6,198.2  "
   class="st1" />
	<polyline
   id="polyline60"
   fill="none"
   stroke-linejoin="round"
   stroke-linecap="round"
   stroke-width="1.544000"
   stroke="#000000"
   points="688.5,195.1 686.8,200.2 686,205 685.6,209.3 685.3,213.2 685,216.6 684.2,219.3 683.1,221.8    681.2,224.7 678.6,228 675.6,231.6 672.6,235.4 669.6,239.2 667.1,243.1 664.2,248 661.8,252.3 660.2,255.8 659.4,258.8    659.3,260.7  "
   class="st1" />
	<polyline
   id="polyline62"
   fill="none"
   stroke-linejoin="round"
   stroke-linecap="round"
   stroke-width="1.544000"
   stroke="#000000"
   points="684.3,203.4 687.6,207.5 690.9,211.2 694.1,214.7 697.3,217.7 700.3,220.2 703.2,222.3 705.9,223.8    709,224.8 713,225.1 717.4,224.7 721.7,223.7 725.6,222.4 726,222.2  "
   class="st1" />
	<polyline
   id="polyline64"
   fill="none"
   stroke-linejoin="round"
   stroke-linecap="round"
   stroke-width="1.544000"
   stroke="#000000"
   points="725,224.3 723.5,227.3 722,230.3 720.5,233.5 719,236.8 717.6,240.5 716.4,244.4 715.5,248.9    714.8,253.9 714.5,259.5 714.5,260.7  "
   class="st1" />
	<polyline
   id="polyline66"
   fill="none"
   stroke-linejoin="round"
   stroke-linecap="round"
   stroke-width="1.544000"
   stroke="#000000"
   points="716.6,253.4 716.9,249.4 715.7,245.7 713.3,242.5 710.1,239.6 706.5,237 704.5,235.9 701.8,235.8    698.4,236.4 694.5,237.7 690.3,239.6 685.9,242 681.7,244.9 677.7,248.1 674.2,251.5 671.4,255.1 669.4,258.9 668.6,261.8  "
   class="st1" />
	<polyline
   id="polyline68"
   fill="none"
   stroke-linejoin="round"
   stroke-linecap="round"
   stroke-width="1.544000"
   stroke="#000000"
   points="694.7,254.5 698.4,258.4 700.6,261.4 700.8,264.1 698.9,266.9 694.5,270.3 690.1,273.2 686.1,275.6    682.3,277.3 678.8,278.3 675.3,278.4 671.7,277.4 668.9,276.1 665.6,274 662,271.5 658.3,268.7 654.5,266 650.7,263.7 647.1,261.9    646.7,261.8  "
   class="st1" />
	<polyline
   id="polyline70"
   fill="none"
   stroke-linejoin="round"
   stroke-linecap="round"
   stroke-width="1.544000"
   stroke="#000000"
   points="650.9,258.6 650.9,262.4 650.9,266.5 650.5,270.6 649.6,274.7 648,278.5 645.5,281.9 641.8,284.6    637.2,286.8 633,287.2 629.5,286 626.7,283.5 624.7,280 623.8,276.2 623.9,274.6 624.3,272.6 624.9,270.4 625.9,267.8 627.2,265    628.8,262.1 630.7,258.9 633.1,255.5 635.9,252.1 639.1,248.5 642.8,244.8 647,241.1 651.7,237.3 657,233.6 662.8,229.8    663.4,229.5  "
   class="st1" />
	<polyline
   id="polyline72"
   fill="none"
   stroke-linejoin="round"
   stroke-linecap="round"
   stroke-width="1.544000"
   stroke="#000000"
   points="628,262.8 630.7,264.6 633.5,265.9 636.4,266.8 639.8,267.3 643.7,267.5 648.5,267.5 654.2,267.3    659.3,267  "
   class="st1" />
	<polyline
   id="polyline74"
   fill="none"
   stroke-linejoin="round"
   stroke-linecap="round"
   stroke-width="1.544000"
   stroke="#000000"
   points="549.8,245.1 553.3,243.6 556.9,242.4 560.7,241.4 564.6,240.7 568.7,240.2 572.8,239.9 577.1,239.6    581.4,239.4 585.8,239.3 590.3,239.1 594.8,238.9 598.7,238.4 602.7,237.7 606.9,236.6 611.1,235.3 615.4,233.8 619.6,232    623.7,229.9 627.5,227.7 631.2,225.3 634.5,222.7 637.4,220 639.9,217.2 641.8,214.3 642.6,212.8  "
   class="st1" />
	<polyline
   id="polyline76"
   fill="none"
   stroke-linejoin="round"
   stroke-linecap="round"
   stroke-width="1.544000"
   stroke="#000000"
   points="545.6,265.9 549.9,265.3 554.3,264.6 558.7,263.8 563.1,262.9 567.5,262 571.9,261 576.3,259.9    580.6,258.8 584.8,257.7 588.8,256.5 592.8,255.3 596.6,254.1 600.3,252.9 603.8,251.7 607.1,250.5 610.1,249.3 615.7,246.1    619.8,242.8 622.4,239.5 623.9,236.3 624.6,233.2 624.8,230.2 624.8,228.4  "
   class="st1" />
	<polyline
   id="polyline78"
   fill="none"
   stroke-linejoin="round"
   stroke-linecap="round"
   stroke-width="1.544000"
   stroke="#000000"
   points="568.5,265.9 572.3,265 576.4,263.9 580.6,262.8 584.9,261.6 589.3,260.3 593.7,258.9 598.1,257.4    602.4,255.7 606.6,253.9 610.6,252 614.4,249.9 618,247.6 621.2,245.2 624.1,242.6 626.5,239.7 628.5,236.7 630,233.4 630.8,229.9    631.2,226.1 631.1,224.3  "
   class="st1" />
	<polyline
   id="polyline80"
   fill="none"
   stroke-linejoin="round"
   stroke-linecap="round"
   stroke-width="1.544000"
   stroke="#000000"
   points="380.8,228.4 385.1,229.6 389.5,230.8 394,231.9 398.7,233 403.3,234.1 408.1,235.1 412.8,236.1    417.7,237.1 422.5,238 427.3,238.9 432.1,239.7 437,240.6 441.8,241.4 446.5,242.1 451.2,242.8 455.8,243.5 460.4,244.2    464.8,244.8 469.1,245.3 473.4,245.9 477.4,246.4 481.4,246.8 485.2,247.2 488.8,247.6 492.2,248 495.4,248.3 498.4,248.6    501.2,248.8 503.8,249 506.1,249.2 508,249.3  "
   class="st1" />
	<polyline
   id="polyline82"
   fill="none"
   stroke-linejoin="round"
   stroke-linecap="round"
   stroke-width="1.544000"
   stroke="#000000"
   points="370.4,277.4 376,277.7 381.4,278 386.7,278.5 391.8,279.1 396.7,279.7 401.5,280.3 406.1,281    410.5,281.7 414.7,282.4 418.7,283.1 422.4,283.8 426,284.3 429.3,284.8 432.3,285.3 435.2,285.5 437.7,285.7 440.6,285.7    445,285.5 449.7,285.2 454.7,284.8 459.6,284.4 464.4,284 468.7,283.6 472.4,283.5 475.4,283.5 476.8,283.7  "
   class="st1" />
	<polyline
   id="polyline84"
   fill="none"
   stroke-linejoin="round"
   stroke-linecap="round"
   stroke-width="1.544000"
   stroke="#000000"
   points="630.1,210.7 628.5,211.7 627,212.7 625.4,213.6 623.7,214.6 621.9,215.6 620.1,216.5 618.1,217.5    616,218.4 613.7,219.3 611.2,220.1 608.6,220.9 605.8,221.7 602.8,222.4 599.6,223.1 596.1,223.7 592.4,224.2 588.4,224.6    584.1,225 579.5,225.3 574.6,225.5 569.4,225.7 563.8,225.7 557.9,225.6 551.6,225.4 545,225.1 537.9,224.7 530.4,224.1    522.5,223.4 514.1,222.6 505.8,221.7 498.1,220.8 490.7,219.9 483.6,219 476.8,218.1 470.4,217.1 464.1,216.2 458.2,215.2    452.5,214.3 447.1,213.3 442,212.3 437.1,211.4 432.4,210.4 428,209.5 423.8,208.5 419.8,207.5 416,206.6 412.5,205.7 409.1,204.7    405.9,203.8 402.9,202.9 400.1,202.1 397.4,201.2 394.9,200.3 392.6,199.5 390.4,198.7 388.3,198 386.4,197.2 384.6,196.5    382.9,195.8 381.3,195.2 379.8,194.5 377.7,193.6 373.2,192.8 369.5,193.6 366.5,195.6 364,198.7 362,202.4 360.4,206.6    359.2,210.9 358.3,214.9 357.7,218 357.3,220.6 356.9,223.8 356.4,227.5 355.9,231.6 355.5,236 355,240.7 354.6,245.6 354.2,250.5    353.9,255.6 353.6,260.6 353.3,265.5 353.2,270.2 353.1,274.6 353.2,278.8 353.3,282.5 353.6,285.7 354.4,290.4 355.2,295.1    356,298.8 357.2,301.6 358.9,303.9 361.6,305.9 365.6,307.7 371.1,309.6 373.9,310.2 376.8,310.7 380.1,311.2 383.7,311.6    387.6,311.9 391.7,312.2 396,312.5 400.4,312.7 405.1,312.9 409.8,313.1 414.6,313.2 419.4,313.3 424.2,313.4 429.1,313.4    433.8,313.4 438.5,313.4 443.1,313.3 447.5,313.3 451.7,313.2 455.7,313.1 459.4,313 462.8,312.8 465.7,312.7 468.8,312.4    472.3,312.1 475.9,311.6 479.8,311 484,310.4 488.4,309.6 492.9,308.8 497.5,308 502.2,307 507.1,306.1 512,305 516.9,304    521.9,302.9 526.8,301.8 531.7,300.7 536.5,299.5 541.2,298.4 545.8,297.2 550.3,296.1 554.5,294.9 558.6,293.8 562.4,292.8    566,291.7 569.3,290.7 572.3,289.8 575,288.9 577.3,288.1 579.8,287.1 582.7,285.9 585.7,284.7 588.8,283.3 592.1,281.8    595.4,280.1 598.7,278.3 602.1,276.3 605.4,274 608.7,271.6 611.8,269 614.9,266.2 617.7,263.1 620.4,259.8 622.9,256.2    625.1,252.4 627,248.2 628.6,243.8 629.8,239.1 630.6,234 631.1,228.6 631.1,224.3  "
   class="st1" />
	<polyline
   id="polyline86"
   fill="none"
   stroke-linejoin="round"
   stroke-linecap="round"
   stroke-width="1.544000"
   stroke="#000000"
   points="631.1,234.7 637.2,232.5 641.4,230.8 644.4,229.3 646.9,227.8 649.6,225.8 653,223.2  "
   class="st1" />
	<polyline
   id="polyline88"
   fill="none"
   stroke-linejoin="round"
   stroke-linecap="round"
   stroke-width="1.544000"
   stroke="#000000"
   points="629,242 634.6,239.4 639,237.7 642.5,236.5 645.4,235.4 648.1,233.9 651,231.6 654,228.4  "
   class="st1" />
	<polyline
   id="polyline90"
   fill="none"
   stroke-linejoin="round"
   stroke-linecap="round"
   stroke-width="1.544000"
   stroke="#000000"
   points="399.6,320.1 402.5,324 404.7,327.2 406.2,330.3 407.2,333.4 407.7,337.3 407.9,342.1 408.1,347.7    408.4,352.9 408.6,357.9 408.6,362.6 408.5,366.8 408.1,370.6 407.6,373.7 406.9,376.2 404.1,377.8 399.4,376.1 394.8,373.1    392.3,371.2 392.3,371.2  "
   class="st1" />
	<polyline
   id="polyline92"
   fill="none"
   stroke-linejoin="round"
   stroke-linecap="round"
   stroke-width="1.544000"
   stroke="#000000"
   points="407.9,350.3 404.5,346.1 400.9,341.9 397.2,337.8 393.6,334 390.1,330.5 386.7,327.5 383.7,325.1    381,323.3 378.8,322.2 377,322.1 375.3,323.1 374.1,325.4 373.8,328.7 374.4,332.6 375.7,337.2 377.9,342 380.9,347 383.7,351.1    385.8,354.8 387.6,358.3 389,361.8 390.2,365.4 391,369.1 391.6,373 392,377.2 392.2,381.8 392.2,386.7 391.8,391.3 391.2,396.1    390.5,401.2 389.7,406.2 388.9,411.2 388.2,416 387.5,420.5 387,424.6 386.7,428.1 386.7,431 386.9,433.1 387.8,435.2 389.5,437.7    391.6,440.6 393.9,443.9 396.1,447.8 398,452.3 399.4,457.7 400.3,462.6 401.2,467.3 402.4,471.8 403.7,476.1 405.3,480.1    407.1,483.7 409.1,486.8 411.3,489.4 413.1,491  "
   class="st1" />
	<polyline
   id="polyline94"
   fill="none"
   stroke-linejoin="round"
   stroke-linecap="round"
   stroke-width="1.544000"
   stroke="#000000"
   points="583.1,296.2 581,302.2 579.3,307.8 578.1,313 577.4,317.6 577,321.8 577,325.4 577.4,328.4    578,330.8 578.9,332.6 581.6,334.6 584.7,336.5 587.5,339.5 589.7,345.1 592.6,350.1 595.1,350.7 596.2,349.5 596.9,346.2    597.3,341.3 597.5,335.7 597.2,330.2 596.4,325.5 595.1,322.6 592.4,321.5 588.6,319.9 584.4,317.9 580.5,315.6 577.3,313.6    573.5,312.6 569.1,311.8 564.5,311.2 560.2,310.8 556.8,310.8 553.9,311.4 550.4,312.9 546.4,315.1 542.4,317.6 538.3,320.1    534.5,322.4 530.6,324.8 527,327.8 524.2,331.1 522.1,334.4 520.8,337.7 519.7,341.7 517.6,344.5 514,346.5 511,347.6 508.3,348.7    504.9,350.3 500.8,352.4 496.3,354.8 491.8,357.3 487.2,359.8 482.9,362.3 479.1,364.5 476,366.2 472.7,368.6 469.1,371.9    466.4,374.1 463.6,374.2 460.1,371.2 456.5,367.7 453.2,364.7 450.1,362 447.1,359.6 444,357.4 440.9,355.2 438.3,352.3    436.2,348.8 434.6,344.8 433.4,340.6 432.9,336.3 432.8,332.2 433,330.5  "
   class="st1" />
	<polyline
   id="polyline96"
   fill="none"
   stroke-linejoin="round"
   stroke-linecap="round"
   stroke-width="1.544000"
   stroke="#000000"
   points="476.8,377.4 479.4,373.9 481.9,370.5 484.4,367.4 487,364.4 489.8,361.5 492.9,358.7 495.5,356.6     "
   class="st1" />
	<polyline
   id="polyline98"
   fill="none"
   stroke-linejoin="round"
   stroke-linecap="round"
   stroke-width="1.544000"
   stroke="#000000"
   points="519.5,383.7 522.7,378.4 525.8,373.6 528.8,369.6 531.6,366.5 534.2,364.5 536.5,364 538.4,365.1    539.2,367 539.2,369.8 538.7,373.4 538.1,377.7 537.4,382.7 537.1,388.4 537.2,393  "
   class="st1" />
	<polyline
   id="polyline100"
   fill="none"
   stroke-linejoin="round"
   stroke-linecap="round"
   stroke-width="1.544000"
   stroke="#000000"
   points="524.7,377.4 529.3,378.4 533.4,379.7 536.5,381.8 537.2,382.6  "
   class="st1" />
	<polyline
   id="polyline102"
   fill="none"
   stroke-linejoin="round"
   stroke-linecap="round"
   stroke-width="1.544000"
   stroke="#000000"
   points="558.1,305.5 553.5,309.7 550.3,313.2 548.1,316.2 546.7,319 545.8,322.1 544.6,325.1 542.1,327    538.6,327.9 534.3,328.1 529.5,327.9 524.6,327.6 519.7,327.4 514.9,326.9 510.5,326.5 506.6,326.6 503.1,327.4 500,329.3    497.2,332.6 494.7,336.4 492.5,339.7 490.3,342.5 487.8,344.8 484.6,346.3 480.4,346.9 474.8,346.4 473.6,346.2  "
   class="st1" />
	<polyline
   id="polyline104"
   fill="none"
   stroke-linejoin="round"
   stroke-linecap="round"
   stroke-width="1.544000"
   stroke="#000000"
   points="470.5,325.3 475.6,329.2 478.7,331.4 479.5,333.7 478.6,337 477.4,340.2 475.7,343.7 473.3,347.2    470.2,350.6 466.4,353.8 461.7,356.5 457.9,358.2 455.2,359.9 453.2,362.6 451.7,367.2 450.6,370.3 449,374 446.8,378.1    444.3,382.4 441.6,386.9 438.9,391.2 436.3,395.2 434,398.9 432.2,401.9 431.1,404.1 430.1,406.2 429.1,409.1 427.9,412.7    426.7,416.7 425.3,421 423.9,425.6 422.4,430.2 420.7,434.6 418.9,438.8 417,442.5 415.2,445.9 413.1,449.4 411,453 409,456.8    407.3,460.6 406.1,464.6 405.6,468.6 405.9,472.8 407.2,477 407.9,478.5  "
   class="st1" />
	<polyline
   id="polyline106"
   fill="none"
   stroke-linejoin="round"
   stroke-linecap="round"
   stroke-width="1.544000"
   stroke="#000000"
   points="433,334.7 436,337.4 438.5,340.6 441.2,343.7 444.8,345.8 448.8,346.5 452.7,345.4 456.6,343    459.7,339.7 461.8,336 462.1,332.4 461.4,329.1 459.3,326.3 455.8,324.3 450.8,323.3 446.6,323.6 443.4,324.5 440.2,325.9    436.8,327.8 433.4,330.2 430,333 426.6,336.3 423.1,340.1 419.7,344.7 418.1,349.2 418,353.2 419.3,357 421.3,360.4 423.7,363.5    426,366.5 428.2,369.9 429.9,374.4 429.2,377.5 426.6,379.9 422.6,382 419.8,383.6 417.4,385.9 414.8,389.1 411.2,394 408.8,398.1    406.6,402.3 404.6,406.5 402.8,410.4 401.3,414.2 400.2,417.5 399.6,420.4 399.8,422.7 400.8,425.6 402.4,428.9 404.5,432.7    406.7,436.8 408.9,441.2 411,445.7 412.7,450.2 413.8,454.8 414.2,457.6  "
   class="st1" />
	<polyline
   id="polyline108"
   fill="none"
   stroke-linejoin="round"
   stroke-linecap="round"
   stroke-width="1.544000"
   stroke="#000000"
   points="409,398.3 413.3,400.6 417.4,402.9 421.2,405.2 424.7,407.4 427.7,409.6 430.1,412 430.9,412.8  "
   class="st1" />
	<polyline
   id="polyline110"
   fill="none"
   stroke-linejoin="round"
   stroke-linecap="round"
   stroke-width="1.544000"
   stroke="#000000"
   points="407.9,371.2 411.3,373.8 414,376.1 416.6,378 420,379.7 424.7,381 427.7,381.6  "
   class="st1" />
	<polyline
   id="polyline112"
   fill="none"
   stroke-linejoin="round"
   stroke-linecap="round"
   stroke-width="1.544000"
   stroke="#000000"
   points="451.7,402.4 456.7,403.3 461.6,404.1 466.6,405.1 471.5,406.1 476.3,407.2 481,408.4 485.5,409.6    489.9,410.8 494.1,412.2 498,413.5 501.6,414.9 504.9,416.3 507.9,417.8 510.5,419.3 512.7,420.8 514.6,422.5 517.2,425.3    519.8,428.9 522.5,433 525.2,437.3 527.8,441.6 530.4,445.6 533,449 535.5,451.6 537.8,453.2 540.1,453.4 542.5,452.3 544.9,450    547.2,446.9 549.4,443 551.5,438.6 553.4,433.9 555,429.1 556,425.3  "
   class="st1" />
	<polyline
   id="polyline114"
   fill="none"
   stroke-linejoin="round"
   stroke-linecap="round"
   stroke-width="1.544000"
   stroke="#000000"
   points="555,428.5 558.5,429 562.5,430 566.9,431.3 571.5,432.9 576,434.6 580.2,436.3 584.1,438.1    587.3,439.7 590.2,441.6 594.7,443.9 598.2,444.3 600.8,442.3 602.4,437 603.8,432.4 605.7,430.6 608.1,432 609.9,436.1    611.6,440.6 613.4,442.5 616.6,443 621.3,443.2 626.4,443.5 631.4,444.2 635.4,445.6 638.7,447.1 642.7,447.8 647,447.7    651.1,446.6 654.9,444.7 657.8,441.7 659,440 660.2,438.6 661.6,436.9 663,435 664.4,432.9 665.9,430.4 667.4,427.5 668.9,424.3    670.3,420.6 671.5,416.5 672.7,411.9 673.6,406.8 674.4,401.1 674.9,394.9 675.1,388 675,380.5 674.9,377.4  "
   class="st1" />
	<polyline
   id="polyline116"
   fill="none"
   stroke-linejoin="round"
   stroke-linecap="round"
   stroke-width="1.544000"
   stroke="#000000"
   points="663.4,434.7 664.1,438.7 664.7,442.5 665.2,446.2 665.6,449.7 665.9,453.3 666,456.8 666.1,460.3    666,463.9 665.8,467.6 665.4,471.4 664.9,475.4 664.2,479.5 663.3,483.9 662.3,488.6 661.1,493.6 659.8,498.9 658.2,504.6    656.9,509.5 655.7,514.3 654.5,519 653.2,523.5 652.1,527.9 650.9,532.1 649.7,536.2 648.5,540.3 647.3,544.2 646.2,548.1    645.1,551.9 643.9,555.6 642.8,559.3 641.7,562.9 640.6,566.5 639.4,570.1 638.3,573.7 637.2,577.3 636.1,580.9 635,584.7    633.5,588.9 632,593 630.4,597 628.7,601 627.1,604.9 625.5,608.7 624,612.6 622.7,616.4 621.5,620.2 620.7,624 620,627.9    619.7,631.8 619.8,635.7 620.3,639.7 621.3,643.8 622.7,648 624.4,651.6 625.9,654.5 627.6,657.4 629.6,660.3 631.7,663.1    634.1,665.9 636.6,668.7 639.4,671.5 642.3,674.1 645.4,676.7 648.6,679.2 652,681.5 655.6,683.8 659.3,685.9 663.1,687.8    667.1,689.5 671.1,691.1 675.3,692.4 679.6,693.6 684,694.5 688.4,695.2 693,695.6 697.6,695.7 702.3,695.5 707,695 711.8,694.2    716.6,693.1  "
   class="st1" />
	<polyline
   id="polyline118"
   fill="none"
   stroke-linejoin="round"
   stroke-linecap="round"
   stroke-width="1.544000"
   stroke="#000000"
   points="711.4,688.9 704.3,690.7 698.3,692.2 693.2,693.5 689.1,694.8 685.9,696.1 683.4,697.7 681.5,699.7    680.2,702 679.4,705 679,708.2 678.5,710.7 678.1,713.4 677.6,716.4 677,719.7 676.4,723.2 675.8,726.9 675.2,730.9 674.6,735.1    674,739.4 673.4,744 672.9,748.6 672.4,753.5 671.9,758.5 671.5,763.5 671.1,768.7 670.9,774 670.7,778.9 670.5,783 670.3,787.2    670.1,791.6 669.8,796 669.5,800.6 669.2,805.3 668.9,809.9 668.6,814.7 668.2,819.4 667.9,824.1 667.5,828.7 667.2,833.3    666.8,837.7 666.5,842.1 666.2,846.3 665.8,850.4 665.6,854.3 665.3,858 665,861.5 664.8,864.7 664.6,867.7 664.5,870.2  "
   class="st1" />
	<polyline
   id="polyline120"
   fill="none"
   stroke-linejoin="round"
   stroke-linecap="round"
   stroke-width="1.544000"
   stroke="#000000"
   points="673.9,737.9 680.4,738.1 686.1,738.6 690.9,739.4 695,740.3 698.7,741.4 702,742.5 705,743.6    708.1,744.6 711.3,745.4 714.7,746 717.6,746.3 719.8,746.4 722.1,746.4 727.3,746.4 730.1,746.4 733.2,746.5 736.4,746.7    739.8,747 743.5,747.4 747.3,748 751.4,748.8 755.7,749.8 760.2,751 765,752.6 770,754.4 775.3,756.6 780.9,759.1 786.8,762.1    792.9,765.4 795.9,767.1  "
   class="st1" />
	<polyline
   id="polyline122"
   fill="none"
   stroke-linejoin="round"
   stroke-linecap="round"
   stroke-width="1.544000"
   stroke="#000000"
   points="705.1,743.1 709.9,742.8 714.5,742.6 719.2,742.5 723.7,742.4 728.2,742.5 732.6,742.6 737,742.8    741.3,743.1 745.5,743.4 749.8,743.8 753.9,744.3 758.1,744.8 762.1,745.4 766.2,746.1 770.2,746.8 774.2,747.5 778.1,748.3    782,749.1 785.9,750 789.7,750.9 793.5,751.8 797.3,752.7 801.1,753.7 804.9,754.7 808.7,755.7 812.4,756.8 815.7,757.7  "
   class="st1" />
	<polyline
   id="polyline124"
   fill="none"
   stroke-linejoin="round"
   stroke-linecap="round"
   stroke-width="1.544000"
   stroke="#000000"
   points="669.7,790 677.4,790.2 684.3,790.3 690.5,790.4 696,790.6 700.9,790.7 705.3,790.9 709.2,791.1    712.7,791.5 715.8,791.9 718.7,792.4 721.4,793 723.9,793.8 726.3,794.8 728.7,795.9 731.2,797.3 733.6,798.9 736.5,800.8    739.9,803 743.7,805.2 747.9,807.6 752.3,810 756.8,812.4 761.4,814.8 766,817 770.6,819.1 774.9,821 779.1,822.6 783,823.9    786.4,824.9 789.4,825.4 791.9,825.5 795,824.9 798.4,824 801.6,823 804.7,822.1 808,821.5 811.6,821.5 815.8,822 820.8,823.4    826.7,825.8 828.2,826.4  "
   class="st1" />
	<polyline
   id="polyline126"
   fill="none"
   stroke-linejoin="round"
   stroke-linecap="round"
   stroke-width="1.544000"
   stroke="#000000"
   points="753.1,809.8 757.7,810.7 762.3,811.5 766.9,812.3 771.4,813 775.9,813.7 780.4,814.2 784.8,814.8    789.1,815.3 793.4,815.7 797.7,816.1 801.8,816.5 805.9,816.8 810,817.2 813.9,817.5 817.8,817.8 821.5,818.1 825.2,818.4    828.8,818.7 832.3,819 834.5,819.2  "
   class="st1" />
	<polyline
   id="polyline128"
   fill="none"
   stroke-linejoin="round"
   stroke-linecap="round"
   stroke-width="1.544000"
   stroke="#000000"
   points="673.9,404.5 678.7,405.6 683.1,407.4 687.2,409.6 690.8,412.2 694,415.2 696.9,418.5 699.4,422    701.5,425.7 703.3,429.5 704.7,433.4 705.9,437.2 706.6,440.9 707.1,444.5 707.3,447.8 707.2,450.7 706.8,452.7 706.3,455    705.7,457.6 705.1,460.6 704.4,463.7 703.6,467.1 702.7,470.8 701.9,474.6 701,478.7 700.2,482.9 699.3,487.3 698.5,491.9    697.7,496.5 697,501.3 696.4,506.1 695.9,511.1 695.4,516 695.2,521.1 695,526.1 695,531.1 695.1,536.2 695.5,541.2 696.1,546.5    697,552.1 698,557.5 699,562.6 700.2,567.6 701.4,572.3 702.8,576.7 704.1,581 705.6,585.2 707,589.1 708.5,592.8 710.1,596.4    711.6,599.9 713.2,603.1 714.8,606.3 716.3,609.3 717.9,612.2 719.4,615 720.9,617.7 722.4,620.3 722.9,621.2  "
   class="st1" />
	<polyline
   id="polyline130"
   fill="none"
   stroke-linejoin="round"
   stroke-linecap="round"
   stroke-width="1.544000"
   stroke="#000000"
   points="721.8,635.8 722,630.8 722.3,625.8 722.9,620.7 723.7,615.7 724.6,610.6 725.7,605.6 727,600.6    728.5,595.7 730,590.8 731.6,585.9 733.3,581.2 735.1,576.6 736.9,572.1 738.8,567.7 740.7,563.4 742.5,559.3 744.4,555.4    746.2,551.7 747.9,548.1 749.6,544.7 751.2,541.6 752.7,538.7 754.1,536.1 755.3,533.7 756.4,531.6 757.2,529.8 758,528.3    758.6,527 759.6,525.1 760.8,522.7 762.4,519.9 764.2,516.6 766.2,513.1 768.3,509.2 770.7,505.1 773.1,500.9 775.6,496.5    778.2,491.9 780.8,487.4 783.4,482.8 786,478.3 788.5,474 791,469.7 793.3,465.7 795.5,461.9 797.5,458.4 799.3,455.3 800.9,452.6    802.2,450.3 803.4,448.4 804.9,446.1 806.6,443.6 808.5,440.9 810.6,438 812.8,434.8 815.2,431.5 817.7,428.1 820.4,424.5    823.1,420.8 826,417.1 829,413.3 832,409.6 835.1,405.8 838.3,402 841.5,398.3 844.7,394.7 847.9,391.2 851.1,387.8 854.3,384.6    857.5,381.6 860.7,378.7 863.7,376.1 866.7,373.7 869.8,371.5 873.3,369.1 876.7,366.7 880.2,364.5 883.8,362.4 887.3,360.4    891,358.6 894.6,356.9 898.3,355.3 902.1,353.9 905.9,352.6 909.8,351.5 913.7,350.5 917.7,349.8 921.7,349.2 925.8,348.8    930,348.6 934.3,348.5 938.6,348.7 943.1,349.1 947.5,349.7 952.8,350.6 960.6,352.1 967.6,353.8 973.8,355.6 979.1,357.3    983.6,359.1 987.4,360.9 990.5,362.4 992.8,363.8 994.5,364.9 995.6,365.6 996,365.9 996.1,366  "
   class="st1" />
	<polyline
   id="polyline132"
   fill="none"
   stroke-linejoin="round"
   stroke-linecap="round"
   stroke-width="1.544000"
   stroke="#000000"
   points="806.3,433.7 807.4,432.3 808.6,430.7 809.9,429 811.3,427.1 812.8,425.1 814.4,422.9 816.1,420.7    817.9,418.3 819.9,415.8 821.9,413.3 824,410.6 826.2,407.9 828.5,405.2 830.9,402.4 833.5,399.5 836.1,396.7 838.9,393.8    841.7,390.9 844.6,388.1 847.6,385.2 850.8,382.4 854,379.7 857.4,376.9 860.8,374.3 864.3,371.7 868,369.2 871.7,366.8    875.6,364.5 879.5,362.2 883.6,360.2 887.7,358.2 892,356.5 896.4,354.8 900.8,353.3 905.4,352.1 910,351 914.8,350.1 919.7,349.3    924.7,348.9 929.7,348.6 934.9,348.6 940.2,348.9 945.5,349.4 951,350.2 956.6,351.2 962.3,352.6 968.1,354.2 972.1,355.5  "
   class="st1" />
	<polyline
   id="polyline134"
   fill="none"
   stroke-linejoin="round"
   stroke-linecap="round"
   stroke-width="1.544000"
   stroke="#000000"
   points="731.2,595.2 732.8,588.9 734.4,583 735.9,577.4 737.4,572.1 738.9,567.1 740.3,562.3 741.7,557.9    743.1,553.6 744.4,549.6 745.8,545.8 747.3,542.3 748.7,538.8 750.2,535.6 751.7,532.5 753.3,529.6 755,526.8 756.7,524.1    758.5,521.4 760.5,518.9 762.5,516.4 764.6,514 766.9,511.6 769,509.3 771,507 772.7,504.5 774.4,501.9 775.9,499.1 777.3,496.1    778.7,493 780.1,489.9 781.4,486.5 782.8,483.1 784.2,479.6 785.7,475.9 787.3,472.2 789,468.4 790.9,464.5 792.9,460.5    795.2,456.5 797.7,452.4 800.5,448.3 803.6,444.1 807,439.9 810.7,435.6 814.8,431.4 818.6,427.7 821,425.2 823.4,422.7 825.7,420    828,417.4 830.3,414.6 832.6,411.8 834.9,408.9 837.2,406 839.5,403.1 841.8,400.2 844.1,397.3 846.4,394.3 848.8,391.4    851.2,388.5 853.7,385.6 856.2,382.8 858.8,380 861.4,377.3 864.2,374.6 867,372 869.9,369.5 872.8,367.1 876,364.8 879.1,362.6    882.5,360.5 885.9,358.5 889.5,356.7 893.2,355 897,353.5 901,352.2 905.1,351 909.5,350 913.9,349.2 918.6,348.6 923.4,348.1    928.5,348 933.7,348 939.1,348.3 944.7,348.8 950.6,349.6 956.7,350.6 960.6,351.4  "
   class="st1" />
	<polyline
   id="polyline136"
   fill="none"
   stroke-linejoin="round"
   stroke-linecap="round"
   stroke-width="1.544000"
   stroke="#000000"
   points="733.3,251.4 738.7,252.2 744,253 749.2,253.7 754.3,254.5 759.3,255.2 764.2,255.8 769.1,256.4    773.7,257 778.3,257.6 782.8,258.1 787.1,258.5 791.3,259 795.3,259.4 799.2,259.8 802.9,260.1 806.5,260.5 809.9,260.8 813.1,261    816.2,261.3 819.1,261.5 821.8,261.6 824.5,261.8 829.3,261.8 833.5,262 837.1,262.4 840.5,263 843.7,264 846.8,265.3 850.1,267.1    853.6,269.5 857.5,272.4 862,275.9 864.7,278.2 867.2,280.4 870,282.8 873,285.3 876.1,287.9 879.4,290.7 882.8,293.5 886.4,296.4    890,299.3 893.7,302.3 897.4,305.2 901.1,308.2 904.9,311.1 908.6,313.9 912.3,316.6 916,319.3 919.5,321.8 923,324.2 926.3,326.4    929.5,328.5 932.6,330.3 935.4,332 940.2,334.5 945.4,337.2 949.4,339.5 952.4,341.3 954.9,343 957.1,344.8 959.3,347 962,349.6    965.4,353 965.8,353.5  "
   class="st1" />
	<polyline
   id="polyline138"
   fill="none"
   stroke-linejoin="round"
   stroke-linecap="round"
   stroke-width="1.544000"
   stroke="#000000"
   points="980.4,357.6 986.1,361.9 991.4,365.9 996.4,369.7 1000.9,373.4 1005.1,377 1009,380.3 1012.5,383.6    1015.8,386.7 1018.8,389.7 1021.6,392.6 1024.2,395.4 1026.6,398.2 1028.8,400.9 1030.8,403.5 1032.7,406.1 1034.6,408.7    1036.3,411.3 1037.9,413.9 1039.5,416.5 1041.1,419.1 1042.6,421.8 1044.2,424.5 1045.9,427.3 1047.4,429.8 1048.3,431.4    1049.2,433.1 1050.1,435.1 1051.1,437.2 1052.1,439.4 1053.1,441.8 1054.2,444.4 1055.3,447.2 1056.3,450 1057.5,453.1    1058.6,456.2 1059.7,459.5 1060.9,462.9 1062,466.5 1063.2,470.1 1064.4,473.9 1065.5,477.8 1066.7,481.7 1067.9,485.8 1069.1,490    1070.3,494.2 1071.5,498.5 1072.7,502.9 1073.9,507.4 1075.1,512 1076.2,516.6 1077.4,521.2 1078.6,525.9 1079.7,530.7    1080.9,535.4 1082,540.3 1083.1,545.1 1084.1,550 1085.2,554.9 1086.2,559.8 1087.2,564.7 1088.2,569.7 1089.2,574.6 1090.1,579.5    1091.1,584.4 1091.9,589.3 1092.8,594.1 1093.6,599 1094.3,603.8 1095.1,608.6 1095.8,613.3 1096.5,618 1097.1,622.6 1097.6,627.2    1098.2,631.7 1098.6,635.3 1098.9,638.7 1099.3,642.2 1100,649.1 1100.4,652.5 1101.1,659.5 1101.5,663 1101.8,666.5 1102.2,670    1102.5,673.5 1102.9,677.1 1103.2,680.7 1103.5,684.2 1103.9,687.8 1104.2,691.4 1104.5,695.1 1104.9,698.7 1105.2,702.4    1105.5,706.1 1105.8,709.8 1106.1,713.6 1106.4,717.3 1106.7,721.1 1106.9,724.9 1107.2,728.7 1107.5,732.6 1107.7,736.5    1108,740.4 1108.2,744.3 1108.5,748.3 1108.7,752.3 1108.9,756.3 1109.1,760.4 1109.3,764.5 1109.5,768.6 1109.7,772.8    1109.9,776.9 1110.1,781.1 1110.2,785.4 1110.4,789.7 1110.6,794 1110.7,798.4 1110.8,802.8 1110.9,807.2 1111,811.7 1111.1,816.2    1111.2,820.7 1111.3,825.3 1111.4,830 1111.4,834.7 1111.5,839.4 1111.5,844.1 1111.5,848.9 1111.5,853.8 1111.5,858.7    1111.5,863.6 1111.5,868.6 1111.4,873.7 1111.4,878.7 1111.3,883.9 1111.3,889.1 1111.2,894.3 1111.1,899.6 1110.9,904.9    1110.8,910.3 1110.8,910.8  "
   class="st1" />
	<polyline
   id="polyline140"
   fill="none"
   stroke-linejoin="round"
   stroke-linecap="round"
   stroke-width="1.544000"
   stroke="#000000"
   points="984.6,361.8 987.5,364 990.4,366.1 993.2,368.3 995.9,370.4 998.6,372.6 1001.2,374.7 1003.7,376.8    1006.2,379 1008.6,381.1 1011,383.3 1013.3,385.4 1015.6,387.6 1017.8,389.9 1019.9,392.1 1022,394.4 1024.1,396.6 1026.1,399    1028,401.4 1029.9,403.8 1031.8,406.2 1033.7,408.7 1035.5,411.3 1037.2,413.9 1038.9,416.6 1040.6,419.3 1042.3,422.1 1043.9,425    1045.5,427.9 1047,430.9 1048.6,434 1050.1,437.2 1051.6,440.5 1053.1,443.8 1054.5,447.3 1055.9,450.8 1057.3,454.4 1058.7,458.2    1060.1,462 1061.5,466 1062.8,470.1 1064.2,474.2 1065.5,478.6 1066.8,483 1068.2,487.5 1069.5,492.2 1070.8,497 1072.1,502    1073.4,507.1 1074.8,512.3 1076.1,517.7 1077.4,523.3 1078.7,528.9 1080.1,534.8 1081.5,540.8 1082.8,546.9 1084.2,553.3    1085.6,559.8 1087,566.5 1088.4,573.3 1089.9,580.4 1091,585.6 1092,590.8 1093.1,596.1 1094,601.2 1095,606.5 1095.9,611.6    1096.8,616.8 1097.7,622 1098.5,627.1 1099.3,632.2 1100.1,637.4 1100.9,642.5 1101.6,647.6 1102.3,652.7 1103,657.8 1103.6,662.8    1104.3,667.9 1104.8,672.9 1105.4,677.9 1106,682.9 1106.5,687.8 1107,692.8 1107.5,697.7 1108,702.6 1108.4,707.5 1108.8,712.3    1109.3,717.1 1109.6,721.9 1110,726.7 1110.4,731.5 1110.7,736.2 1111,740.9 1111.3,745.5 1111.6,750.2 1111.9,754.8 1112.1,759.3    1112.4,763.9 1112.6,768.4 1112.8,772.9 1113,777.3 1113.2,781.7 1113.4,786 1113.6,790.4 1113.7,794.6 1113.8,798.9 1114,803.1    1114.1,807.3 1114.2,811.4 1114.3,815.5 1114.5,819.5 1114.6,823.5 1114.6,827.5 1114.7,831.4 1114.8,835.3 1114.9,839.1    1115,842.9 1115,846.6 1115.1,850.3 1115.1,853.9 1115.2,857.5 1115.2,861 1115.3,864.5 1115.3,867.9 1115.4,871.3 1115.5,874.6    1115.5,877.8 1115.6,881 1115.6,884.2 1115.7,887.3 1115.8,890.3 1115.8,893.3 1115.9,896.2 1116,899 1116.1,901.8 1116.1,904.5    1116.2,907.2 1116.3,909.8 1116.4,912.4 1116.6,914.8 1116.7,917.2 1116.8,919.6 1117,921.9 1117.1,923.3  "
   class="st1" />
	<polyline
   id="polyline142"
   fill="none"
   stroke-linejoin="round"
   stroke-linecap="round"
   stroke-width="1.544000"
   stroke="#000000"
   points="880.3,521.2 881.7,526.8 883.2,531.9 884.8,536.7 886.5,541.2 888.2,545.4 889.9,549.3 891.7,553.1    893.5,556.6 895.2,560 897,563.3 898.7,566.5 900.4,569.7 901.9,572.9 903.4,576.1 904.8,579.3 906.1,582.7 906.4,583.7  "
   class="st1" />
	<polyline
   id="polyline144"
   fill="none"
   stroke-linejoin="round"
   stroke-linecap="round"
   stroke-width="1.544000"
   stroke="#000000"
   points="869.9,541 871.8,544.9 873.9,548.7 876,552.4 878.2,556.1 880.5,559.6 882.9,563.1 885.3,566.5    887.9,569.8 890.5,573.1 893.1,576.2 895.9,579.3 898.6,582.3 901.4,585.2 904.3,588 907.2,590.8 907.5,591  "
   class="st1" />
	<polyline
   id="polyline146"
   fill="none"
   stroke-linejoin="round"
   stroke-linecap="round"
   stroke-width="1.544000"
   stroke="#000000"
   points="856.4,564.9 860.6,568 864.8,571 868.9,573.7 873,576.3 876.9,578.7 880.7,581 884.4,583.1    888.1,585.1 891.5,586.8 894.9,588.4 898.1,589.9 901.2,591.2 904.1,592.3 906.4,593.1  "
   class="st1" />
	<polyline
   id="polyline148"
   fill="none"
   stroke-linejoin="round"
   stroke-linecap="round"
   stroke-width="1.544000"
   stroke="#000000"
   points="838.6,558.7 840.3,563.2 842.4,567 844.8,570.2 847.1,573.2 848,574.3  "
   class="st1" />
	<polyline
   id="polyline150"
   fill="none"
   stroke-linejoin="round"
   stroke-linecap="round"
   stroke-width="1.544000"
   stroke="#000000"
   points="851.1,578.5 853.6,580 856.5,581.7 859.9,583.6 863.6,585.4 867.6,587.4 871.7,589.3 876.1,591.3    880.4,593.2 884.8,595 889,596.6 893.1,598.1 896.9,599.4 900.8,600.6 906,602.6 909.9,604.7 912.7,606.9 914.6,609.5 915.9,612.6    916.7,616.2 917.5,620.7 918.1,624.4 918.7,627.1 919.5,630.2 920.5,633.7 921.7,637.5 923,641.5 924.5,645.8 926.1,650.3    927.7,654.8 929.5,659.5 931.2,664.1 933,668.7 934.8,673.2 936.6,677.6 938.3,681.8 939.9,685.7 941.4,689.3 942.8,692.6    944.1,695.6 945.7,699.6 947.4,703.5 949,707.3 950.5,711.2 952,715.1 953.5,718.9 954.9,722.8 956.2,726.7 957.5,730.7    958.6,734.6 959.7,738.7 960.6,742.7 961.4,746.9 962.2,750.5 962.9,754.2 963.7,758.3 964.5,762.6 965.4,767.2 966.3,772    967.3,776.8 968.4,781.6 969.6,786.3 970.9,790.8 972.4,795.1 974,799.2 975.7,802.8 977.7,805.9 979.8,808.5 982.1,810.5    984.6,811.9 987,812.6 989.7,812.9 992.7,812.8 996.1,812.4 999.7,811.8 1003.6,810.8 1007.7,809.7 1011.9,808.4 1016.3,806.9    1020.8,805.4 1025.4,803.8 1030.1,802.2 1034.7,800.6 1039.4,799 1044,797.6 1048.5,796.3 1052.9,795.1 1057.2,794.2 1061.2,793.5    1065.1,793.2 1066,793.1  "
   class="st1" />
	<polyline
   id="polyline152"
   fill="none"
   stroke-linejoin="round"
   stroke-linecap="round"
   stroke-width="1.544000"
   stroke="#000000"
   points="983.6,811.9 985.2,816 986.7,819.5 988.3,822.2 990.8,824.2 994.5,825.3 1000.1,825.5 1004.1,825.3    1006.9,824.9 1009.9,824.3 1013.2,823.6 1016.8,822.8 1020.6,821.9 1024.6,821 1028.7,820 1033,819 1037.4,818 1042,817.2    1046.6,816.4 1051.2,815.7 1055.9,815.1 1060.6,814.7 1065.3,814.5 1069.9,814.5 1074.5,814.8 1079,815.3 1082.6,816  "
   class="st1" />
	<polyline
   id="polyline154"
   fill="none"
   stroke-linejoin="round"
   stroke-linecap="round"
   stroke-width="1.544000"
   stroke="#000000"
   points="988.8,822.3 989.1,827.7 989.5,832.8 990.1,837.2 991.3,840.8 993.2,843.2 996.1,844.4 999.6,844.1    1001.5,843.8 1003.8,843.3 1006.5,842.6 1009.5,841.8 1013,840.9 1016.7,840 1020.6,839 1024.9,838.1 1029.2,837.2 1033.8,836.4    1038.5,835.8 1043.3,835.3 1048.2,835 1053.1,835 1058,835.2 1062.9,835.8 1067.7,836.7 1072.4,838.1 1077,839.8 1081.5,842    1081.6,842.1  "
   class="st1" />
	<polyline
   id="polyline156"
   fill="none"
   stroke-linejoin="round"
   stroke-linecap="round"
   stroke-width="1.544000"
   stroke="#000000"
   points="999.2,844.2 1001.6,844.3 1004.2,844.6 1007.1,844.9 1010.1,845.3 1013.4,845.7 1016.9,846.2    1020.6,846.8 1024.4,847.5 1028.4,848.2 1032.5,849.1 1036.8,850 1041.1,851 1045.6,852.1 1050.1,853.3 1054.7,854.6 1059.3,856    1064,857.5 1068.7,859.1 1073.4,860.8 1078.2,862.6 1082.9,864.5 1087.5,866.5 1088.9,867.1  "
   class="st1" />
	<polyline
   id="polyline158"
   fill="none"
   stroke-linejoin="round"
   stroke-linecap="round"
   stroke-width="1.544000"
   stroke="#000000"
   points="994,844.2 994.2,848 994.4,852.1 994.4,856.3 994.3,860.7 994.2,865.3 994,869.9 993.7,874.6    993.3,879.3 992.9,884.1 992.4,888.8 991.9,893.5 991.3,898.1 990.7,902.5 990.1,906.9 989.5,911 988.8,915 988.1,918.8    987.5,922.2 986.8,925.4 986.2,928.3 985.5,931.3 984.9,936.9 985.4,941.3 986.9,944.5 989.3,946.7 992.5,948 996.4,948.5    1000.9,948.4 1003.6,947.8 1005.9,947.2 1008,946.4 1010.1,945.6 1012.4,944.6 1014.9,943.5 1018,942.4 1021.6,941.1 1026,939.8    1031.2,938.3 1037.5,936.8 1045,935.2 1053.5,933.6 1060.5,932.4 1066.9,931.2 1072.8,930 1078.2,928.8 1083.2,927.5 1087.7,926.2    1091.7,924.9 1095.4,923.6 1098.7,922.2 1101.6,920.8 1104.3,919.3 1106.6,917.8 1108.6,916.3 1110.4,914.6 1112.1,912.9    1112.9,911.9  "
   class="st1" />
	<polyline
   id="polyline160"
   fill="none"
   stroke-linejoin="round"
   stroke-linecap="round"
   stroke-width="1.544000"
   stroke="#000000"
   points="1000.3,948.3 1004.8,948.8 1009.2,949.1 1013.5,949.3 1017.6,949.5 1021.7,949.5 1025.7,949.5    1029.7,949.5 1033.7,949.4 1037.7,949.2 1041.7,949 1045.9,948.8 1050.1,948.5 1054.2,948.3 1057.8,947.7 1061.7,947.1    1065.8,946.2 1070.1,945.2 1074.6,944.1 1079.1,942.9 1083.6,941.5 1088.1,940 1092.4,938.4 1096.7,936.7 1100.7,934.9 1104.4,933    1107.8,931.1 1110.8,929 1113.4,927 1115,925.4  "
   class="st1" />
	<polyline
   id="polyline162"
   fill="none"
   stroke-linejoin="round"
   stroke-linecap="round"
   stroke-width="1.544000"
   stroke="#000000"
   points="996.1,948.3 996.8,953.7 997.4,958.8 997.9,963.7 998.4,968.5 998.8,973.2 999.1,977.7 999.3,982.1    999.6,986.5 999.7,990.7 999.8,994.8 999.9,998.8 999.9,1002.8 999.9,1006.7 999.8,1010.5 999.7,1014.3 999.6,1018.1 999.5,1021.9    999.3,1025.6 999.2,1029.4 999,1033.1 998.8,1036.9 998.7,1040.7 998.5,1044.5 998.4,1048.4 998.2,1052.4 998.1,1055.7    998.1,1058.2 998.1,1060.9 998.1,1063.9 998.2,1067.1 998.4,1070.5 998.7,1074.2 999,1077.9 999.3,1081.9 999.7,1086    1000.1,1090.3 1000.6,1094.7 1001.1,1099.2 1001.7,1103.9 1002.3,1108.6 1002.9,1113.5 1003.5,1118.4 1004.2,1123.4 1004.9,1128.4    1005.5,1133.5 1006.3,1138.7 1007,1143.8 1008.5,1154.1 1009.2,1159.3 1009.9,1164.4 1010.7,1169.5 1011.4,1174.6 1012.1,1179.6    1012.8,1184.5 1013.5,1189.4 1014.2,1194.2 1014.8,1198.8 1015.5,1203.4 1016.1,1207.8 1016.6,1212.1 1017.2,1216.2 1017.7,1220.2    1018.1,1224.1 1018.6,1227.7 1018.9,1231.1 1019.3,1234.4 1019.5,1237.4 1019.8,1240.2 1019.9,1242.7 1020,1245.1 1020.1,1247.1    1020.1,1250.8 1020.2,1254.8 1020.3,1258.9 1020.4,1263 1020.5,1267.1 1020.6,1271.2 1020.6,1275.2 1020.6,1279.3 1020.4,1283.4    1020.1,1287.4 1019.6,1291.4 1019,1295.4 1018.1,1299.3 1017.1,1303.2 1015.7,1307 1014.1,1310.8 1012.3,1314.4 1010,1318    1007.5,1321.5 1004.6,1324.9 1001.2,1328.2 997.5,1331.4 993.2,1334.7 988.9,1337.9 984.6,1341.1 980.4,1344.1 976.4,1347.1    972.3,1350 968.4,1352.9 964.6,1355.6 960.9,1358.3 957.3,1360.9 953.8,1363.4 950.5,1365.9 947.3,1368.3 944.2,1370.5    941.4,1372.7 938.7,1374.8 936.1,1376.9 933.8,1378.8 931.7,1380.7 929.7,1382.5 927.8,1384.4 925.3,1387.5 922.9,1390.7    920.5,1393.9 918.3,1397.2 916.1,1400.6 914,1404.1 912,1407.7 910.1,1411.5 908.2,1415.3 906.5,1419.3 904.8,1423.4 903.2,1427.7    901.8,1431.2 900.1,1435 898.2,1438.9 896.1,1443 893.9,1447.2 891.6,1451.4 889.2,1455.6 886.8,1459.8 884.4,1464 882,1468    879.8,1471.8 877.6,1475.4 875.5,1478.8 873.7,1481.9 872,1484.6 870.6,1486.9 868.7,1490.1 867.2,1494.5 867.2,1498.3    868.7,1501.1 871.6,1502.5 875.9,1502 880.1,1500.1 882.7,1498.5 885.4,1496.4 888.2,1493.9 891.1,1491.1 894.1,1487.9    897.1,1484.6 900.1,1481 903.1,1477.3 906,1473.5 908.8,1469.7 911.5,1465.8 914,1462.1 916.4,1458.4 918.5,1455 920.3,1451.8    922,1448.5 924,1445.3 926.2,1442.3 928.6,1439.4 931.2,1436.5 933.8,1433.7 936.6,1430.9 939.4,1428 942.2,1425 945,1421.8    947.7,1418.5 950.4,1414.9 953,1411.1 955.4,1406.9 957.5,1402.6  "
   class="st1" />
	<polyline
   id="polyline164"
   fill="none"
   stroke-linejoin="round"
   stroke-linecap="round"
   stroke-width="1.544000"
   stroke="#000000"
   points="940.8,1426.5 940.3,1430.8 939.6,1435 938.8,1439.1 937.8,1443.2 936.7,1447.3 935.4,1451.3    934,1455.3 932.5,1459.1 930.9,1462.9 929.1,1466.7 927.2,1470.3 925.2,1473.9 923.1,1477.4 920.9,1480.9 917.7,1486.1    915.1,1490.4 912.8,1494.1 911,1497.3 909.5,1500.3 908.3,1503.4 907.3,1506.7 906.5,1510.6 906.6,1516.4 908.2,1520 910.8,1521    914.1,1519.7 917.1,1516.8 918.9,1514.5 921.1,1511.7 923.7,1508.7 926.5,1505.4 929.4,1501.9 932.4,1498.3 935.5,1494.6    938.4,1490.9 941.1,1487.4 943.6,1483.9 945.5,1480.8 947.3,1477.5 949.3,1474.1 951.5,1470.4 953.7,1466.6 956,1462.6    958.3,1458.7 960.6,1454.8 962.8,1451 964.9,1447.4 966.8,1443.9 968.6,1440.7 970.1,1437.8 971.7,1434.6 973.6,1431.2    975.8,1427.7 978.1,1424.1 980.7,1420.5 983.5,1416.9 986.4,1413.5 989.5,1410.2 992.8,1407.3 996.2,1404.7 999.7,1402.4    1001.3,1401.5  "
   class="st1" />
	<polyline
   id="polyline166"
   fill="none"
   stroke-linejoin="round"
   stroke-linecap="round"
   stroke-width="1.544000"
   stroke="#000000"
   points="979.4,1423.4 979.1,1427.2 978.7,1431 978.3,1434.8 977.7,1438.6 977,1442.4 976.1,1446.3    975.1,1450.3 973.9,1454.4 972.4,1458.5 970.8,1462.9 968.8,1467.4 966.9,1471.3 965.1,1475.1 963,1478.9 960.9,1482.9 958.7,1487    956.5,1491.1 954.3,1495.3 952.2,1499.5 950.3,1503.6 948.6,1507.6 947.1,1511.6 945.9,1515.4 945.1,1519 944.7,1522.5    944.7,1525.6 945.5,1529.7 947.4,1533.6 949.8,1534.5 952.5,1533 955.3,1529.9 958.1,1526 960.7,1521.8 962.5,1519.1 964.1,1516.7    966,1513.7 968.1,1510.2 970.3,1506.4 972.6,1502.3 975,1498.1 977.2,1493.7 979.4,1489.4 981.4,1485.2 983.2,1481.1 984.7,1477.3    985.9,1473.9 987.4,1470.6 989,1467 990.9,1463.2 992.9,1459.2 995,1455.2 997.3,1451.1 999.5,1447.1 1001.7,1443.2 1003.9,1439.5    1006.1,1436.1 1008.1,1433 1010.3,1429.7 1014,1424.6 1017.3,1421.2 1020.1,1419.7 1022.2,1420.5 1023.3,1423.3 1022.8,1425.7    1021.7,1428.2 1020,1430.8 1017.9,1433.9 1015.7,1437.4 1013.3,1441.6 1011.2,1446.6 1009.3,1452.6 1008.2,1457.5 1007.6,1461    1007.1,1464.8 1006.6,1468.8 1006.1,1472.9 1005.8,1477.2 1005.5,1481.7 1005.3,1486.2 1005.2,1490.7 1005.2,1495.3 1005.3,1499.9    1005.5,1504.5 1005.7,1508.9 1006.1,1513.2 1006.6,1517.5 1007.2,1521.5 1008,1525.3 1008.8,1528.9 1009.9,1532.8 1011.9,1538.4    1013.9,1541.6 1015.9,1542.6 1017.9,1541.6 1019.7,1539.1 1021.5,1535.2 1023,1530.1 1024.3,1524.4 1025,1520.4 1025.5,1516.6    1025.8,1512.7 1025.9,1509 1026,1505.2 1026.1,1501.4 1026.3,1497.5 1026.6,1493.6 1027.1,1489.5 1027.9,1485.3 1029.1,1481    1030.8,1476.5 1032.9,1471.7 1035.1,1467.1 1037,1463.1 1038.7,1459.4 1040.3,1456.1 1041.9,1453 1043.4,1450.2 1045.1,1447.4    1047,1444.7 1049.1,1442 1051.5,1439.1 1054.3,1436.1 1057.6,1432.9 1061.5,1429.3 1065.9,1425.3 1070.1,1421.4 1073.3,1417.8    1076.1,1413.9 1078.6,1409.8 1080.8,1405.6 1082.6,1401.2 1084.3,1396.8 1085.7,1392.3 1086.9,1387.8 1088,1383.4 1088.9,1379.1    1089.8,1374.9 1090.7,1370.9 1091.6,1367.1 1092.4,1363.6 1093.4,1360.3 1094.5,1357.4 1095.7,1354.9 1097.1,1352.8 1099.2,1350    1101.3,1346.7 1103.1,1343 1104.7,1339 1106.2,1334.7 1107.4,1330.2 1108.5,1325.7 1109.5,1321.3 1110.3,1316.9 1110.9,1312.8    1111.4,1309 1111.8,1305.5 1111.8,1303 1111.8,1300.2 1111.8,1297 1111.8,1293.3 1111.8,1289.3 1111.8,1285 1111.7,1280.4    1111.6,1275.6 1111.6,1270.7 1111.4,1265.7 1111.3,1260.7 1111.1,1255.6 1110.9,1250.7 1110.7,1245.9 1110.4,1241.3 1110.1,1237    1109.8,1233 1109.4,1229.3 1109,1226.1 1108.5,1223.4 1108.1,1220.9 1107.7,1217.9 1107.2,1214.6 1106.6,1210.8 1106,1206.8    1105.4,1202.5 1104.7,1198 1104.1,1193.3 1103.4,1188.4 1102.7,1183.3 1102,1178.2 1101.3,1173 1100.6,1167.8 1099.9,1162.7    1099.3,1157.5 1098.7,1152.5 1098.1,1147.6 1097.5,1142.8 1097,1138.3 1096.6,1134 1096.2,1129.9 1095.8,1126.2 1095.5,1122.8    1095.3,1119.8 1095.2,1117.2 1095.2,1115.1 1095.2,1113.2 1095.2,1110.9 1095.3,1108.1 1095.5,1104.9 1095.6,1101.4 1095.8,1097.5    1096.1,1093.3 1096.3,1088.8 1096.6,1084.1 1096.9,1079.2 1097.2,1074 1097.6,1068.8 1097.9,1063.5 1098.3,1058.2 1098.7,1052.7    1099,1047.3 1099.4,1042 1099.8,1036.7 1100.2,1031.5 1100.6,1026.5 1100.9,1021.7 1101.3,1017.1 1101.7,1012.7 1102,1008.6    1102.3,1004.9 1102.6,1001.5 1102.9,998.5 1103.2,995.9 1103.4,993.8 1103.9,990.7 1104.6,986.8 1105.2,982.7 1105.9,978.6    1106.4,974.3 1106.8,970 1107.2,965.6 1107.3,961.2 1107.3,956.9 1107.1,952.6 1106.7,948.4 1106,944.3 1105,940.4 1103.8,936.7    1102.5,933.8  "
   class="st1" />
	<polyline
   id="polyline168"
   fill="none"
   stroke-linejoin="round"
   stroke-linecap="round"
   stroke-width="1.544000"
   stroke="#000000"
   points="666.6,832.7 673.3,832.4 678.7,832.4 682.9,832.7 686.4,833.3 689.2,834.4 691.9,835.9 694.5,837.9    697.5,839.9 700.8,840.8 704.4,841.2 708.4,841.2 712.5,841.2 716.9,841.2 721.4,841.5 726,842.3 730.7,843.9 735,846 738.7,848.4    741.9,850.8 745,853.2 748.1,855.1 751.5,856.6 755.4,857.2 760.1,856.9 764.5,856.1 768.5,855.9 772.4,856.2 776.2,857 780,858.2    783.8,859.7 787.6,861.5 791.5,863.5 795.4,865.6 799.5,867.8 803,869.6 806.3,870.9 809.6,871.9 812.8,872.8 816.1,873.6    819.5,874.5 823.1,875.6 826.9,877 831,878.9 835.5,881.3 840.4,884.4 845.6,888 850.7,891 855.7,893.4 860.5,895.3 865.1,896.8    869.4,897.9 873.6,898.9 877.5,899.7 881.1,900.4 884.4,901.2 887.4,902 890.1,903 892.3,904.2 894.1,905.4 896.1,906.6    898.3,908.2 900.8,910 903.4,912.1 906.3,914.4 909.4,916.9 912.7,919.6 916.1,922.4 919.7,925.3 923.4,928.3 927.2,931.4    931.1,934.5 935,937.7 939.1,940.9 943.2,944.1 947.3,947.2 950.2,949.4  "
   class="st1" />
	<polyline
   id="polyline170"
   fill="none"
   stroke-linejoin="round"
   stroke-linecap="round"
   stroke-width="1.544000"
   stroke="#000000"
   points="994,847.3 993.3,850.4 992.5,853.5 991.9,856.6 991.1,859.7 990.4,862.9 989.7,866.1 989,869.3    988.2,872.5 987.4,875.8 986.6,879.1 985.6,882.5 984.7,885.8 983.6,889.2 982.5,892.7 981.3,896.2 980,899.7 978.6,903.3    977,906.9 975.4,910.5 973.6,914.3 971.7,918 969.6,921.8 967.4,925.7 965.1,929.6 962.5,933.6 959.8,937.6 956.9,941.7    953.8,945.9 950.5,950.1 946.9,954.4 943.2,958.7 939.2,963.1 935,967.6 932.5,970.2  "
   class="st1" />
	<polyline
   id="polyline172"
   fill="none"
   stroke-linejoin="round"
   stroke-linecap="round"
   stroke-width="1.544000"
   stroke="#000000"
   points="953.3,940 956,936.2 958.5,932.7 960.9,929.4 963.1,926.5 965.1,923.7 967,921.1 968.7,918.6    970.4,916.2 971.9,913.8 973.3,911.4 974.6,909 975.9,906.5 977.1,903.9 978.3,901.1 979.4,898.1 980.5,894.8 981.6,891.3    982.6,887.4 983.7,883.1 984.8,878.5 985.9,873.3 987.1,867.7 988.3,861.6 989.6,854.8 990.9,847.4 991.9,842.1  "
   class="st1" />
	<polyline
   id="polyline174"
   fill="none"
   stroke-linejoin="round"
   stroke-linecap="round"
   stroke-width="1.544000"
   stroke="#000000"
   points="664.5,867.1 670.3,868.1 674.6,869.6 678,871.4 680.8,873.4 683.5,875.3 686.4,877.1 690.1,878.6    694.9,879.6 699.2,880.4 703.1,882.1 706.8,884.3 710.3,887 713.7,889.7 717,892.5 720.3,894.9 723.7,896.8 727.3,898 731.3,898.4    735.9,898.8 739.8,899.9 743.4,901.3 746.8,903.1 750.2,905.1 753.7,907.3 757.6,909.4 762.1,911.8 765.9,913.7 769.2,915.2    772.4,916.4 776.1,917.3 780.6,918 785.6,918.6 789.8,919.9 793.2,921.7 796.2,923.9 799.1,926.5 802.2,929.3 805.9,932.1    809.7,934.1 813.2,935 816.8,935.4 820.7,936.1 825.5,937.7 828.8,939 831.8,940.6 834.9,942.5 838,944.5 841.4,946.7 845.1,948.9    849.1,951 853.7,952.8 858.9,954.4 863.9,955.8 868.6,957.2 873,958.6 877.1,960 881.1,961.3 884.9,962.5 888.6,963.6 892.2,964.3    895.7,964.8 899.3,965 903.7,965.5 908.2,966.1 912.8,966.8 917.4,967.5 921.7,968.1 925.7,968.7 929.3,969.1 932.4,969.2    932.5,969.2  "
   class="st1" />
	<polyline
   id="polyline176"
   fill="none"
   stroke-linejoin="round"
   stroke-linecap="round"
   stroke-width="1.544000"
   stroke="#000000"
   points="706.2,844.2 700.9,846.8 697.2,849.2 694.6,851.8 693,854.6 692,858.1 691.1,862.9 689.7,867    688.1,869.5 685.8,872.1 683.2,875.4  "
   class="st1" />
	<polyline
   id="polyline178"
   fill="none"
   stroke-linejoin="round"
   stroke-linecap="round"
   stroke-width="1.544000"
   stroke="#000000"
   points="725,844.2 724.4,849.2 723.8,853.1 723.1,856.6 721.7,860.1 719.6,864.1 717.8,868.2 716.8,872    716.5,875.8 716.5,879.8 716.6,884.3 716.6,884.8  "
   class="st1" />
	<polyline
   id="polyline180"
   fill="none"
   stroke-linejoin="round"
   stroke-linecap="round"
   stroke-width="1.544000"
   stroke="#000000"
   points="754.2,856.7 753.9,860 753,862.8 751.8,865.2 750.3,867.6 748.6,870 746.7,872.8 744.9,876.1    743.1,880.2 741.6,885.2 740.4,891.5 739.6,899.2 739.6,899.4  "
   class="st1" />
	<polyline
   id="polyline182"
   fill="none"
   stroke-linejoin="round"
   stroke-linecap="round"
   stroke-width="1.544000"
   stroke="#000000"
   points="783.4,859.8 782.1,863.4 780.6,866.9 778.9,870.4 777,873.9 775.1,877.5 773.1,881.1 771.3,884.9    769.7,888.7 768.3,892.8 767.3,897 766.7,901.5 766.6,906.3 766.7,906.7  "
   class="st1" />
	<polyline
   id="polyline184"
   fill="none"
   stroke-linejoin="round"
   stroke-linecap="round"
   stroke-width="1.544000"
   stroke="#000000"
   points="808.4,871.2 806.2,875.4 804.2,879.4 802.3,883.1 800.5,886.6 798.9,890.1 797.5,893.5 796.3,897    795.3,900.6 794.6,904.4 794.2,908.4 794.1,912.8 794.3,917.4 794.8,922.3  "
   class="st1" />
	<polyline
   id="polyline186"
   fill="none"
   stroke-linejoin="round"
   stroke-linecap="round"
   stroke-width="1.544000"
   stroke="#000000"
   points="835.5,889 833.4,891.5 831.3,893.9 829.4,896.2 827.5,898.7 825.9,901.5 824.5,904.7 823.3,908.5    822.5,913.1 821.9,918.7 821.8,925.3 821.9,928.5  "
   class="st1" />
	<polyline
   id="polyline188"
   fill="none"
   stroke-linejoin="round"
   stroke-linecap="round"
   stroke-width="1.544000"
   stroke="#000000"
   points="859.5,904.6 856.5,908.4 853.9,911.9 851.7,915.4 849.9,918.8 848.4,922.3 847.2,925.9 846.3,929.7    845.6,933.7 845.1,938.1 844.9,941  "
   class="st1" />
	<polyline
   id="polyline190"
   fill="none"
   stroke-linejoin="round"
   stroke-linecap="round"
   stroke-width="1.544000"
   stroke="#000000"
   points="891.8,906.7 889.8,909.2 887.7,911.8 885.4,914.4 883.2,917 880.9,919.8 878.7,922.8 876.6,926.1    874.7,929.7 873,933.5 871.7,937.9 870.6,942.6 870,947.9 869.8,953.8 869.9,955.6  "
   class="st1" />
	<polyline
   id="polyline192"
   fill="none"
   stroke-linejoin="round"
   stroke-linecap="round"
   stroke-width="1.544000"
   stroke="#000000"
   points="913.7,922.3 910.7,926.5 908.1,930.5 905.7,934.3 903.6,938.1 901.8,941.8 900.3,945.4 899.1,949    898.2,952.7 897.5,956.4 897.1,960.2 897,964  "
   class="st1" />
	<polyline
   id="polyline194"
   fill="none"
   stroke-linejoin="round"
   stroke-linecap="round"
   stroke-width="1.544000"
   stroke="#000000"
   points="928.3,942.1 926,947.3 924,951.7 922.3,955.5 920.9,959 920.1,962.3 919.8,965.8 920,968.1  "
   class="st1" />
	<polyline
   id="polyline196"
   fill="none"
   stroke-linejoin="round"
   stroke-linecap="round"
   stroke-width="1.544000"
   stroke="#000000"
   points="720.8,652.5 721.4,656.4 722.2,660.3 723.3,663.9 724.6,667.4 726.2,670.8 728,673.9 730.1,676.9    732.5,679.7 735.1,682.3 737.9,684.7 741.1,686.8 744.6,688.8 748.3,690.5 752.3,691.9 756.6,693.1 761.2,694 766.1,694.7    771.3,695.1 776.9,695.2 782.3,695.1 787.3,694.8 792.2,694.5 797,694 801.5,693.4 806,692.7 810.3,691.8 814.4,690.8 818.4,689.7    822.2,688.4 825.8,686.9 829.3,685.3 832.7,683.5 835.8,681.5 838.9,679.3 841.7,676.9 844.4,674.3 846.9,671.4 849.2,668.4    851.4,665.1 853.4,661.6 855.2,657.8 855.3,657.7  "
   class="st1" />
	<polyline
   id="polyline198"
   fill="none"
   stroke-linejoin="round"
   stroke-linecap="round"
   stroke-width="1.544000"
   stroke="#000000"
   points="809.4,705.6 813,704.5 816.7,703.1 820.5,701.5 824.4,699.7 828.3,697.7 832.1,695.5 835.9,693.1    839.6,690.6 843.1,687.9 846.3,685 849.4,682 852.1,678.9 854.5,675.7 856.5,672.4 858.1,669 858.4,668.1  "
   class="st1" />
	<polyline
   id="polyline200"
   fill="none"
   stroke-linejoin="round"
   stroke-linecap="round"
   stroke-width="1.544000"
   stroke="#000000"
   points="801.1,702.5 804.1,702.2 807.3,701.8 810.8,701.3 814.6,700.6 818.5,699.8 822.5,698.9 826.7,697.8    830.9,696.5 835.2,695.1 839.5,693.5 843.8,691.8 848,690 852.1,687.9 856,685.8 859.8,683.5 863.4,681 866.7,678.3 868.9,676.4     "
   class="st1" />
	<polyline
   id="polyline202"
   fill="none"
   stroke-linejoin="round"
   stroke-linecap="round"
   stroke-width="1.544000"
   stroke="#000000"
   points="668.6,867.1 665.8,869.8 662.9,872.6 660.1,875.4 657.3,878.2 654.5,881 651.8,883.9 649,886.8    646.3,889.7 643.6,892.7 640.8,895.7 638.1,898.8 635.4,902 632.6,905.1 629.9,908.4 627.1,911.7 624.3,915.1 621.5,918.6    618.7,922.1 615.8,925.7 614.4,927.5  "
   class="st1" />
	<polyline
   id="polyline204"
   fill="none"
   stroke-linejoin="round"
   stroke-linecap="round"
   stroke-width="1.544000"
   stroke="#000000"
   points="670.7,868.1 668.5,870.3 666.1,872.6 663.6,875.1 661.1,877.7 658.5,880.4 655.8,883.3 653,886.3    650.3,889.4 647.5,892.6 644.7,895.9 641.8,899.3 639,902.8 636.2,906.3 633.4,909.9 630.7,913.5 628,917.1 625.3,920.8    622.8,924.5 620.3,928.3 617.9,932 615.6,935.7 613.4,939.4 611.4,943.1 609.5,946.8 606.2,952.7 603.1,958.6 600.3,963.9    597.8,968.7 595.6,973.1 593.7,977 592,980.5 590.4,983.6 589,986.4 587.7,988.8 586.5,990.9 585.3,992.7 584.1,994.2 583.2,995    581.9,995.9 580.3,997 578.3,998.2 576,999.5 573.5,1000.9 570.6,1002.4 567.5,1004 564.1,1005.7 560.5,1007.5 556.7,1009.4    552.7,1011.3 548.5,1013.2 544.2,1015.3 539.7,1017.4 535.2,1019.4 530.5,1021.6 525.8,1023.7 521,1025.8 516.1,1028 511.3,1030.1    506.4,1032.2 501.5,1034.2 496.7,1036.3 491.9,1038.3 487.1,1040.2 482.5,1042.1 478.5,1043.8 475,1045.2 471.4,1046.8    467.8,1048.4 464.1,1050.1 460.3,1051.9 456.5,1053.8 452.6,1055.7 448.7,1057.7 444.7,1059.7 440.7,1061.8 436.7,1063.9    432.6,1066 428.5,1068.2 424.5,1070.4 420.4,1072.6 416.3,1074.8 412.2,1077 408.2,1079.2 404.2,1081.5 400.2,1083.7 396.2,1085.9    392.3,1088.1 388.4,1090.2 384.6,1092.3 380.9,1094.4 377.2,1096.4 373.6,1098.4 370.1,1100.4 366.6,1102.3 363.3,1104.1    360.1,1105.8 356.9,1107.5 353.9,1109.1 351,1110.6 348.3,1112 345.6,1113.4 342.5,1114.9 339.5,1116.4 336.4,1117.7 333.2,1119    330,1120.3 326.7,1121.5 323.4,1122.6 320,1123.8 316.6,1124.9 313.1,1126 309.5,1127.1 305.9,1128.2 302.3,1129.2 298.5,1130.4    294.7,1131.5 290.9,1132.7 287,1133.9 283,1135.1 278.9,1136.4 274.8,1137.7 270.6,1139.2 266.4,1140.7 262.1,1142.3 257.7,1144    253.3,1145.7 248.7,1147.6 244.1,1149.6 239.5,1151.7 234.8,1154 229.9,1156.4 225.1,1158.9 221,1161.1 217.2,1163.2 213.4,1165.3    209.5,1167.4 205.5,1169.6 201.5,1171.9 197.3,1174.2 193.2,1176.6 188.9,1179 184.7,1181.4 180.4,1183.9 176,1186.3 171.7,1188.8    167.3,1191.3 163,1193.9 154.2,1198.9 149.9,1201.4 145.6,1203.9 141.3,1206.4 137,1208.9 132.9,1211.4 128.7,1213.8 124.6,1216.2    120.6,1218.5 116.6,1220.8 112.8,1223.1 109,1225.3 105.3,1227.5 101.7,1229.6 98.3,1231.6 94.9,1233.6 91.7,1235.4 88.6,1237.2    85.6,1238.9 82.8,1240.6 80.1,1242.1 77.6,1243.5 75.3,1244.8 73.1,1246.1 71.1,1247.2 69.3,1248.1 67.7,1249 66.9,1249.4  "
   class="st1" />
	<polyline
   id="polyline206"
   fill="none"
   stroke-linejoin="round"
   stroke-linecap="round"
   stroke-width="1.544000"
   stroke="#000000"
   points="194.2,1174.4 189.2,1179.1 185,1183.3 181.5,1186.9 178.5,1190.2 175.9,1193.1 173.8,1195.7    172,1197.9 170.4,1199.9 168.6,1201.9 166.1,1204 164,1205.4 160.7,1206.4 154.5,1207.4 149.5,1208.5 145.6,1209.7 141.6,1211    137.5,1212.4 133.5,1214 129.5,1215.6 125.5,1217.2 121.7,1218.9 117.9,1220.5 114.3,1222.1 113.9,1222.3  "
   class="st1" />
	<polyline
   id="polyline208"
   fill="none"
   stroke-linejoin="round"
   stroke-linecap="round"
   stroke-width="1.544000"
   stroke="#000000"
   points="105.5,1223.4 101.6,1226.7 97.7,1229.9 93.8,1233 90,1236.1 86.2,1239.1 82.5,1242.1 78.8,1245    75.2,1247.8 71.7,1250.7 68.2,1253.4 64.8,1256.1 61.5,1258.8 58.3,1261.4 55.1,1264 52,1266.6 49.1,1269.2 46.2,1271.7    43.4,1274.2 40.8,1276.7 38.3,1279.1 35.8,1281.6 33.5,1284 31.4,1286.4 29.3,1288.9 26.4,1292.4 22.7,1296.8 19.2,1300.9    16,1304.7 13,1308.3 10.4,1311.7 8,1314.9 6,1318 4.3,1321 2.9,1323.9 1.9,1326.8 1.4,1329.6 1,1333.5 1.1,1337.4 1.7,1340.8    2.8,1344 4.3,1347.3 6.3,1351 8.8,1355.5 11.1,1360 12.5,1363.5 14,1367.4 15.4,1371.6 16.9,1376.1 18.3,1380.6 19.8,1385.2    21.3,1389.8 22.8,1394.1 24.3,1398.2 25.9,1402 27.4,1405.3 29.1,1408.1 30.4,1409.9  "
   class="st1" />
	<polyline
   id="polyline210"
   fill="none"
   stroke-linejoin="round"
   stroke-linecap="round"
   stroke-width="1.544000"
   stroke="#000000"
   points="685.3,887.9 683.8,891.5 682.2,895 680.6,898.4 678.9,901.6 677.2,904.7 675.4,907.8 673.5,910.7    671.5,913.6 669.5,916.4 667.3,919.2 665.1,922 662.8,924.7 660.5,927.4 658,930.2 655.5,932.9 652.8,935.6 650.1,938.4    647.2,941.3 644.3,944.2 641.3,947.1 638.1,950.2 634.9,953.3 631.5,956.5 628.1,959.9 624.5,963.4 620.8,967 616.9,970.7    613,974.7 609,978.8 606.1,981.7  "
   class="st1" />
	<polyline
   id="polyline212"
   fill="none"
   stroke-linejoin="round"
   stroke-linecap="round"
   stroke-width="1.544000"
   stroke="#000000"
   points="701,906.7 698.9,909 696.8,911.4 694.6,913.9 692.4,916.4 690.2,919 688,921.7 685.8,924.5    683.6,927.5 681.5,930.6 679.4,933.8 677.3,937.2 675.4,940.8 673.5,944.5 671.7,948.4 670,952.6 668.4,957 667,961.6 665.7,966.4    664.5,971.4 663.6,976.8 662.8,982.4 662.4,985.8  "
   class="st1" />
	<polyline
   id="polyline214"
   fill="none"
   stroke-linejoin="round"
   stroke-linecap="round"
   stroke-width="1.544000"
   stroke="#000000"
   points="742.7,926.5 740.1,929.8 737.3,933.1 734.5,936.6 731.5,940.2 728.5,943.8 725.4,947.3 722.2,950.9    719.1,954.5 716,958 713,961.4 710.1,964.7 707.2,967.8 704.5,970.8 702,973.6 699.6,976.2 697.5,978.6 695.6,980.7 694.7,981.7     "
   class="st1" />
	<polyline
   id="polyline216"
   fill="none"
   stroke-linejoin="round"
   stroke-linecap="round"
   stroke-width="1.544000"
   stroke="#000000"
   points="756.2,931.7 754.6,934 752.8,936.4 751,938.9 749.1,941.6 747.1,944.4 745,947.3 742.9,950.3    740.8,953.5 738.6,956.7 736.4,960.1 734.1,963.5 731.9,967.1 729.6,970.7 727.3,974.5 725.1,978.3 722.8,982.3 720.6,986.3    718.4,990.4 716.2,994.6 714.1,998.9 712,1003.3 710,1007.7 708.1,1012.2 706.2,1016.8 704.4,1021.5 704.1,1022.3  "
   class="st1" />
	<polyline
   id="polyline218"
   fill="none"
   stroke-linejoin="round"
   stroke-linecap="round"
   stroke-width="1.544000"
   stroke="#000000"
   points="748.9,935.8 747.6,938.2 746.2,940.8 744.6,943.6 742.9,946.5 741.1,949.7 739.2,953 737.2,956.5    735.2,960.1 733.1,963.9 731,967.7 728.9,971.7 726.7,975.7 724.7,979.9 722.6,984.1 720.6,988.3 718.7,992.6 716.9,996.9    715.2,1001.2 713.6,1005.5 712.1,1009.8 710.8,1014.1 709.7,1018.3 708.8,1022.5 708.3,1025.4  "
   class="st1" />
	<polyline
   id="polyline220"
   fill="none"
   stroke-linejoin="round"
   stroke-linecap="round"
   stroke-width="1.544000"
   stroke="#000000"
   points="790.7,950.4 790.2,953.1 789.5,955.8 788.7,958.7 787.7,961.7 786.5,964.9 785.1,968.2 783.5,971.5    781.9,975 780,978.5 778.1,982.1 776,985.8 773.8,989.6 771.5,993.4 769.1,997.2 766.7,1001.1 764.1,1005 761.6,1008.9    758.9,1012.8 756.2,1016.7 753.5,1020.6 750.8,1024.5 748.1,1028.4 745.4,1032.2 742.6,1036 739.9,1039.7 737.2,1043.3    734.6,1046.9 732,1050.4 731.2,1051.5  "
   class="st1" />
	<polyline
   id="polyline222"
   fill="none"
   stroke-linejoin="round"
   stroke-linecap="round"
   stroke-width="1.544000"
   stroke="#000000"
   points="809.4,956.7 807.9,962.5 806.4,967.3 804.9,971.3 803.4,974.6 801.9,977.4 800.3,979.7 798.7,981.9    796.9,983.9 795.1,986 793,988.3 790.8,991 788.4,994.1 785.7,998 782.8,1002.6 779.6,1008.1 777.1,1012.9  "
   class="st1" />
	<polyline
   id="polyline224"
   fill="none"
   stroke-linejoin="round"
   stroke-linecap="round"
   stroke-width="1.544000"
   stroke="#000000"
   points="829.2,962.9 828.4,964.8 827.5,966.7 826.6,968.7 825.7,970.8 824.8,972.9 823.9,975.1 822.9,977.3    821.9,979.7 820.9,982 819.8,984.5 818.7,987 817.6,989.6 816.5,992.3 815.2,995 814,997.8 812.7,1000.7 811.3,1003.7    809.9,1006.7 808.5,1009.8 806.9,1013 805.4,1016.2 803.7,1019.6 802,1023 800.2,1026.5 798.3,1030.1 796.4,1033.8 794.4,1037.5    792.3,1041.4 790.1,1045.3 787.9,1049.3 785.5,1053.4 783.1,1057.5 780.6,1061.8 778,1066.2 775.2,1070.6 772.4,1075.2    769.5,1079.8 766.4,1084.5 763.3,1089.3 760,1094.2 756.6,1099.2 753.2,1104.3 749.5,1109.5 745.8,1114.8 741.9,1120.2    737.9,1125.7 733.8,1131.3 731.2,1134.8  "
   class="st1" />
	<polyline
   id="polyline226"
   fill="none"
   stroke-linejoin="round"
   stroke-linecap="round"
   stroke-width="1.544000"
   stroke="#000000"
   points="823,970.2 821.6,973.4 820.3,976.6 818.9,980 817.6,983.6 816.2,987.2 814.8,990.9 813.4,994.7    812,998.7 810.5,1002.7 809,1006.8 807.5,1010.9 806,1015.1 804.4,1019.4 802.8,1023.7 801.2,1028.1 799.5,1032.5 798.2,1035.6    797,1038.3 795.6,1041.2 794,1044.2 792.3,1047.3 790.5,1050.5 788.6,1053.9 786.5,1057.3 784.4,1060.9 782.2,1064.5 779.9,1068.2    777.5,1071.9 775.1,1075.7 772.6,1079.5 770.1,1083.4 767.6,1087.3 765.1,1091.2 762.5,1095.2 760,1099.1 757.5,1103 755.1,1106.8    752.6,1110.7 750.3,1114.5 747.9,1118.2 745.7,1121.9 743.6,1125.5 741.5,1129.1 740.6,1130.7  "
   class="st1" />
	<polyline
   id="polyline228"
   fill="none"
   stroke-linejoin="round"
   stroke-linecap="round"
   stroke-width="1.544000"
   stroke="#000000"
   points="856.4,973.3 855,977.2 853.3,981.2 851.5,985.2 849.5,989.4 847.4,993.6 845.2,997.8 842.9,1002    840.6,1006.2 838.2,1010.2 836,1014.2 833.7,1018.1 831.6,1021.8 829.6,1025.3 827.7,1028.6 826,1031.7 824.6,1034.4 823.4,1036.9    823,1037.9  "
   class="st1" />
	<polyline
   id="polyline230"
   fill="none"
   stroke-linejoin="round"
   stroke-linecap="round"
   stroke-width="1.544000"
   stroke="#000000"
   points="878.3,981.7 876.9,984.6 875.4,987.6 874,990.7 872.5,994 871,997.3 869.5,1000.8 867.9,1004.3    866.4,1008 864.8,1011.7 863.3,1015.5 861.8,1019.4 860.3,1023.4 858.8,1027.4 857.3,1031.6 855.9,1035.7 854.5,1040 853.2,1044.3    851.9,1048.6 850.7,1053 849.6,1057.4 848.5,1061.8 847.6,1066.3 846.6,1070.8 845.8,1075.3 845.1,1079.9 844.9,1081.7  "
   class="st1" />
	<polyline
   id="polyline232"
   fill="none"
   stroke-linejoin="round"
   stroke-linecap="round"
   stroke-width="1.544000"
   stroke="#000000"
   points="903.3,991.1 903,997 902.6,1002.5 902,1007.7 901.3,1012.5 900.3,1016.9 899.3,1021.1 898,1025    896.7,1028.7 895.2,1032.1 893.5,1035.4 891.8,1038.6 889.9,1041.6 888,1044.6 885.9,1047.5 883.8,1050.4 881.5,1053.2    879.3,1056.2 876.9,1059.1 874.5,1062.2 872,1065.4 869.4,1068.8 866.9,1072.3 864.2,1076.1 861.3,1080.5 858.6,1084.6 856,1088.5    853.6,1092.1 851.3,1095.6 849.1,1098.9 847,1102.1 845,1105.3 843.1,1108.4 841.3,1111.5 839.5,1114.5 837.8,1117.7 836.1,1121    834.4,1124.3 832.8,1127.9 831.1,1131.6 829.5,1135.6 827.8,1139.9 826.1,1144.4 825.1,1147.3  "
   class="st1" />
	<polyline
   id="polyline234"
   fill="none"
   stroke-linejoin="round"
   stroke-linecap="round"
   stroke-width="1.544000"
   stroke="#000000"
   points="935.6,966.1 935.8,968.2 935.9,970.4 936.1,972.7 936.2,975 936.3,977.3 936.4,979.8 936.4,982.3    936.4,984.8 936.2,987.4 936,990.1 935.8,992.8 935.4,995.7 934.9,998.6 934.3,1001.6 933.6,1004.7 932.8,1007.9 931.8,1011.1    930.7,1014.5 929.4,1018 928,1021.6 926.4,1025.2 924.6,1029 922.6,1032.9 920.4,1036.9 917.9,1041.1 915.3,1045.3 912.5,1049.7    909.3,1054.2 906,1058.9 902.4,1063.6 898.5,1068.5 894.4,1073.6 890,1078.8 885.3,1084.2 880.3,1089.7 874.9,1095.3 872,1098.4     "
   class="st1" />
	<polyline
   id="polyline236"
   fill="none"
   stroke-linejoin="round"
   stroke-linecap="round"
   stroke-width="1.544000"
   stroke="#000000"
   points="932.5,975.4 932.2,978.7 932,981.9 931.9,985.1 931.7,988.4 931.5,991.7 931.4,995.1 931.3,998.4    931.1,1001.8 931,1005.2 931,1008.6 930.9,1012 930.7,1015.5 930.7,1019 930.6,1022.5 930.4,1026.1 930.3,1029.6 930.2,1033.2    930.1,1036.8 929.9,1040.4 929.7,1044.1 929.6,1047.8 929.3,1051.5 929.1,1055.2 928.8,1059 928.6,1062.7 928.2,1066.5    927.9,1070.4 927.5,1074.2 927.1,1078.1 926.6,1082 926.1,1085.9 925.6,1089.9 924.9,1093.8 924.3,1097.8 923.6,1101.9    922.9,1105.9 922,1110 921.2,1114.1 920.3,1118.2 919.3,1122.4 918.3,1126.5 917.1,1130.7 915.9,1135 914.7,1139.2 913.4,1143.5    912,1147.8 910.5,1152.1 908.9,1156.5 907.3,1160.9 905.6,1165.3 903.7,1169.7 901.8,1174.2 899.8,1178.6 897.8,1183.1    895.6,1187.7 893.3,1192.3 890.9,1196.9 888.4,1201.5 885.8,1206.1 883.1,1210.8 880.3,1215.5 877.4,1220.2 874.4,1225    871.2,1229.7 869.9,1231.7  "
   class="st1" />
	<polyline
   id="polyline238"
   fill="none"
   stroke-linejoin="round"
   stroke-linecap="round"
   stroke-width="1.544000"
   stroke="#000000"
   points="921,1024.4 921.6,1028.6 922.1,1032.8 922.6,1037 923.1,1041.1 923.4,1045.3 923.7,1049.4    924,1053.5 924.2,1057.7 924.4,1061.7 924.5,1065.8 924.5,1069.9 924.5,1073.9 924.4,1078 924.3,1082 924.2,1086 923.9,1090.1    923.6,1094.1 923.3,1098.1 922.9,1102.1 922.4,1106 921.9,1110 921.4,1114 920.7,1118 920,1121.9 919.3,1125.9 918.5,1129.8    917.7,1133.8 916.8,1137.7 915.8,1141.7 914.8,1145.6 913.7,1149.5 912.6,1153.5 911.4,1157.4 910.1,1161.4 908.8,1165.3    907.5,1169.3 906,1173.2 904.6,1177.1 903,1181.1 901.4,1185.1 899.8,1189 898,1193 896.3,1197 894.4,1200.9 892.6,1204.9    890.6,1208.9 888.6,1212.9 886.5,1216.9 884.4,1220.9 882.2,1225 879.6,1229.7 876.7,1234.7 873.7,1239.6 870.6,1244.3    867.4,1248.8 864.3,1253.2 861,1257.4 857.7,1261.5 854.4,1265.4 851.1,1269.2 847.7,1272.9 844.3,1276.4 840.9,1279.8    837.5,1283.1 834.1,1286.2 830.6,1289.3 827.2,1292.2 823.8,1295 820.4,1297.8 817.1,1300.4 813.7,1302.9 810.4,1305.4    807.2,1307.7 804,1310 800.8,1312.2 797.7,1314.4 794.7,1316.4 791.7,1318.4 788.8,1320.4 786,1322.3 783.2,1324.1 780.6,1325.9    778,1327.7 775.6,1329.4 773.3,1331.1 771,1332.8 768.9,1334.4 766.9,1336 765.1,1337.6 763.5,1339  "
   class="st1" />
	<polyline
   id="polyline240"
   fill="none"
   stroke-linejoin="round"
   stroke-linecap="round"
   stroke-width="1.544000"
   stroke="#000000"
   points="875.1,1242.1 871.9,1246.3 868.7,1250.3 865.6,1254.1 862.5,1257.6 859.5,1261 856.6,1264.2    853.6,1267.3 850.7,1270.2 847.8,1272.9 844.9,1275.6 842,1278.1 839.1,1280.6 836.2,1283 833.2,1285.3 830.2,1287.6 827.2,1289.8    824.1,1292 821,1294.2 817.8,1296.4 814.6,1298.7 811.2,1300.9 807.8,1303.3 804.3,1305.6 800.4,1308.3 795,1311.9 790.4,1315.2    786.4,1318 782.9,1320.5 779.8,1322.6 777,1324.5 774.4,1326.2 771.8,1327.7 769.2,1329 766.4,1330.3 763.2,1331.6 759.7,1332.9    755.7,1334.3 750.9,1335.7 745.8,1337.3 741.3,1338.6 736.9,1339.8 732.7,1340.9 728.5,1342 724.5,1343.1 720.4,1344.1    716.5,1345.1 712.6,1346.1 708.7,1347.1 704.9,1348.1 701.1,1349.2 697.3,1350.3 693.5,1351.4 689.7,1352.6 685.8,1353.9    681.9,1355.3 678,1356.8 674,1358.3 670,1360 666.1,1361.4 662.3,1362.7 658.6,1363.7 654.9,1364.6 651.3,1365.4 647.7,1366.1    644.1,1366.6 640.4,1367.1 636.6,1367.5 632.8,1367.8 628.8,1368.1 624.7,1368.3 620.5,1368.6 616,1368.9 611.4,1369.2    606.4,1369.5 601.3,1369.9 595.6,1370.4 588.8,1371.1 582.7,1371.7 577.2,1372.4 572.2,1373.1 567.7,1373.8 563.7,1374.4    559.9,1375 556.5,1375.6 553.3,1376.1 550.2,1376.6 547.1,1377 544.1,1377.3 541,1377.5 537.8,1377.6 533.7,1377.7 529.2,1378.1    524.7,1378.9 520.3,1380.1 516.1,1381.4 512,1383 508.1,1384.6 504.3,1386.3 500.7,1387.9 497.4,1389.4 494.3,1390.8 492,1391.7    490,1392.5 488,1393.2 486,1393.9 483.8,1394.5 481.3,1395 478.5,1395.4 475.3,1395.8 471.5,1396.1 467.1,1396.4 462,1396.5    456.1,1396.6 449.3,1396.6 441.6,1396.5 433,1396.3  "
   class="st1" />
	<polyline
   id="polyline242"
   fill="none"
   stroke-linejoin="round"
   stroke-linecap="round"
   stroke-width="1.544000"
   stroke="#000000"
   points="590.4,1373.4 586,1374.2 581.7,1374.8 577.6,1375.3 573.6,1375.6 569.7,1375.9 565.9,1376.1    562.2,1376.3 558.5,1376.5 554.9,1376.5 551.2,1376.6 547.6,1376.8 543.9,1376.9 540.1,1377.1 536.3,1377.3 532.4,1377.7    528.4,1378.1 524.2,1378.7 519.9,1379.3 515.4,1380.2 510.7,1381.2 505.7,1382.3 500.6,1383.7 495.1,1385.3 489.7,1386.6    484.6,1387.8 479.6,1388.7 474.9,1389.5 470.4,1390.1 466,1390.6 461.8,1390.9 457.7,1391.1 453.7,1391.3 449.8,1391.4 446,1391.4    442.3,1391.4 438.6,1391.3 434.9,1391.3 431.3,1391.3 427.6,1391.3 423.9,1391.4 420.2,1391.5 416.4,1391.7 412.5,1392.1    408.5,1392.5 404.4,1393.1 398.3,1394.2 392.8,1395.1 388.3,1396 384.5,1396.7 381.3,1397.2 378.4,1397.7 375.7,1397.9    372.9,1398.1 370,1398.1 366.6,1397.9 362.6,1397.7 357.8,1397.2 352,1396.7 346.7,1396.2 342.9,1395.8 339.1,1395.4 335.1,1395    331.1,1394.5 327.1,1394 323,1393.5 318.9,1392.9 314.7,1392.3 310.6,1391.6 306.4,1390.9 302.2,1390.1 298,1389.2 293.8,1388.3    289.6,1387.3 285.5,1386.1 281.4,1384.9 277.3,1383.6 273.2,1382.2 269.3,1380.7 265.3,1379.1 261.5,1377.3 257.7,1375.4    254,1373.4 250.4,1371.3 247.3,1369.2  "
   class="st1" />
	<polyline
   id="polyline244"
   fill="none"
   stroke-linejoin="round"
   stroke-linecap="round"
   stroke-width="1.544000"
   stroke="#000000"
   points="366.2,1390.1 362,1390 358.1,1389.9 354.4,1389.7 350.7,1389.6 346.9,1389.6 342.9,1389.9    338.5,1390.5 333.7,1391.4 328.7,1392.7 324.2,1393.9 320,1395 316,1395.8 312.2,1396.4 308.4,1396.7 304.6,1396.7 300.8,1396.2    296.7,1395.2 292.5,1393.8 287.7,1392 283.3,1390.2 279.3,1388.5 275.6,1387.1 272.1,1386.3 268.8,1386.1 265.5,1386.9    262.2,1388.7 258.7,1391.9 256.7,1394.2  "
   class="st1" />
	<polyline
   id="polyline246"
   fill="none"
   stroke-linejoin="round"
   stroke-linecap="round"
   stroke-width="1.544000"
   stroke="#000000"
   points="407.9,1109.8 410.8,1107.2 413.7,1104.9 416.6,1102.8 419.6,1100.9 422.7,1099.3 425.9,1097.8    429.3,1096.4 432.9,1095.3 436.9,1094.3 441.1,1093.4 445.7,1092.7 450.7,1092.1 456.1,1091.5 462.3,1091.1 469.6,1090.9    476,1091.1 481.5,1091.6 486.3,1092.2 490.3,1093.1 493.8,1094.1 496.8,1095.3 499.3,1096.5 501.5,1097.9 503.4,1099.3    504.9,1100.4  "
   class="st1" />
	<polyline
   id="polyline248"
   fill="none"
   stroke-linejoin="round"
   stroke-linecap="round"
   stroke-width="1.544000"
   stroke="#000000"
   points="424.6,1103.6 427.4,1101.9 430.3,1100.4 433.2,1099.3 436.2,1098.3 439.3,1097.6 442.6,1097    446,1096.6 449.6,1096.3 453.4,1096 457.5,1095.9 461.8,1095.7 466.4,1095.6 471.3,1095.5 476.6,1095.3 482.1,1095 488.1,1094.6    493.4,1094.2  "
   class="st1" />
	<polyline
   id="polyline250"
   fill="none"
   stroke-linejoin="round"
   stroke-linecap="round"
   stroke-width="1.544000"
   stroke="#000000"
   points="361,1139 364.9,1135.7 368.8,1132.8 372.7,1130.4 376.5,1128.4 380.4,1126.8 384.2,1125.5    388,1124.5 391.8,1123.7 395.5,1123.2 399.2,1122.7 402.8,1122.4 405.9,1122.2 409.3,1122 413.3,1121.9 417.7,1121.7 422.5,1121.6    427.5,1121.6 432.7,1121.5 437.9,1121.4 443.1,1121.4 448.1,1121.3 452.9,1121.3 457.3,1121.3 461.3,1121.3 467.4,1121.3    469.4,1121.3 469.5,1121.3  "
   class="st1" />
	<polyline
   id="polyline252"
   fill="none"
   stroke-linejoin="round"
   stroke-linecap="round"
   stroke-width="1.544000"
   stroke="#000000"
   points="401.7,1122.3 406.5,1122.5 411,1122.5 415.2,1122.3 419.1,1122.2 422.8,1121.9 426.4,1121.5    429.8,1121 433.3,1120.5 436.7,1120 440.2,1119.3 443.9,1118.7 447.7,1118 451.8,1117.2 456.1,1116.5 460.7,1115.8 465.8,1115    471.3,1114.3 473.6,1114  "
   class="st1" />
	<polyline
   id="polyline254"
   fill="none"
   stroke-linejoin="round"
   stroke-linecap="round"
   stroke-width="1.544000"
   stroke="#000000"
   points="106.6,1430.7 108.9,1432.2 111.2,1433.6 113.3,1434.9 115.4,1436.1 117.4,1437.3 119.5,1438.4    121.7,1439.3 123.9,1440.2 126.3,1440.9 128.9,1441.6 131.8,1442.2 134.9,1442.6 138.4,1442.9 142.3,1443.1 146.6,1443.2    151.3,1443.1 156.5,1442.9 162.3,1442.6 168.7,1442.1 175.7,1441.5 183.5,1440.7 191.9,1439.8 198.3,1439  "
   class="st1" />
	<polyline
   id="polyline256"
   fill="none"
   stroke-linejoin="round"
   stroke-linecap="round"
   stroke-width="1.544000"
   stroke="#000000"
   points="122.2,1437 125.6,1438.7 128.8,1440.4 131.7,1441.9 134.5,1443.4 137.2,1444.7 139.8,1446    142.5,1447.1 145.4,1448.1 148.5,1449 151.8,1449.9 155.5,1450.6 159.6,1451.2 164.3,1451.7 169.5,1452 175.4,1452.3 182,1452.5    189.3,1452.6 191,1452.6  "
   class="st1" />
	<polyline
   id="polyline258"
   fill="none"
   stroke-linejoin="round"
   stroke-linecap="round"
   stroke-width="1.544000"
   stroke="#000000"
   points="614.4,991.1 612.2,993.5 610,995.9 607.8,998.3 605.6,1000.6 603.4,1003 601.3,1005.2 599.1,1007.6    596.9,1009.9 594.8,1012.2 592.6,1014.5 590.5,1016.9 588.3,1019.4 586.2,1021.8 584,1024.4 581.8,1027 579.6,1029.7 577.5,1032.4    575.3,1035.3 573.1,1038.3 570.8,1041.4 568.6,1044.6 566.4,1047.9 564.1,1051.4 561.8,1055 559.5,1058.8 557.2,1062.8    554.8,1066.9 552.4,1071.3 550.1,1075.8 547.6,1080.5 545.2,1085.4 542.7,1090.6 540.2,1096 537.6,1101.6 535.1,1107.5    532.4,1113.6 531,1117.1  "
   class="st1" />
	<polyline
   id="polyline260"
   fill="none"
   stroke-linejoin="round"
   stroke-linecap="round"
   stroke-width="1.544000"
   stroke="#000000"
   points="545.6,1126.5 550.8,1122.8 555.7,1119.4 560.3,1116.2 564.6,1113.4 568.6,1110.9 572.5,1108.6    576.2,1106.5 579.7,1104.7 583,1103.1 586.3,1101.7 589.5,1100.5 592.7,1099.4 595.8,1098.5 598.9,1097.8 602,1097.2 605.3,1096.7    608.5,1096.2 611.7,1095.4 614.8,1094.4 618,1093.1 621.3,1091.6 624.6,1089.9 628.1,1088.2 631.6,1086.4 635.3,1084.7 639.1,1083    643,1081.4 647.1,1080.1 651.4,1078.9 655.9,1078.1 660.5,1077.5 665.4,1077.4 670.5,1077.7 675.9,1078.6 683.6,1080 689.4,1081.1    693.5,1081.9 696.2,1082.7 697.5,1083.7 697.7,1085.2 697.1,1087.3 695.8,1090.3 694,1094.4 692,1099.8 690.5,1104.6  "
   class="st1" />
	<polyline
   id="polyline262"
   fill="none"
   stroke-linejoin="round"
   stroke-linecap="round"
   stroke-width="1.544000"
   stroke="#000000"
   points="584.2,1102.5 580.8,1105.6 577.6,1108.6 574.7,1111.4 572,1114.1 569.4,1116.7 566.9,1119.2    564.5,1121.6 562.1,1123.8 559.7,1126 557.3,1128.1 554.9,1130.1 552.3,1132 549.6,1133.8 546.8,1135.5 543.7,1137.2 540.4,1138.8    536.9,1140.3 533,1141.8 528.8,1143.2 524.2,1144.5 519.2,1145.8 513.8,1147.1 507.9,1148.3 501.5,1149.5 494.8,1150.6 490,1151.5    485.5,1152.5 481.2,1153.5 477,1154.7 473,1155.9 469.3,1157.2 465.6,1158.5 462.1,1159.9 458.7,1161.4 455.4,1162.9 452.2,1164.4    449,1166 446,1167.6 442.9,1169.3 439.9,1171 437,1172.7 434,1174.5 431,1176.2 428,1178 424.9,1179.8 421.8,1181.6 418.6,1183.4    415.3,1185.2 412,1187 408.5,1188.8 404.8,1190.6 401.1,1192.3 397.2,1194.1 393,1195.8 388.8,1197.5 384.3,1199.1 379.5,1200.7    374.6,1202.3 369.4,1203.8 363.9,1205.3 358.2,1206.7 352.4,1208.1 347,1209.3 341.8,1210.4 336.8,1211.6 332,1212.7 327.3,1213.8    322.8,1215 318.3,1216.1 314.1,1217.2 309.9,1218.4 305.9,1219.5 302,1220.7 298.1,1221.8 294.4,1223 290.8,1224.3 287.2,1225.5    283.7,1226.8 280.3,1228.1 276.9,1229.4 273.6,1230.8 270.3,1232.2 267.1,1233.6 263.9,1235.1 260.7,1236.7 257.6,1238.3    254.4,1240 251.3,1241.7 248.1,1243.5 244.9,1245.4 241.7,1247.3 238.5,1249.3 235.2,1251.4 231.9,1253.6 228.6,1255.8    225.1,1258.2 221.7,1260.6 218.1,1263.1 214.5,1265.7 210.8,1268.5 206.9,1271.3 203,1274.2 199,1277.3 197.3,1278.6  "
   class="st1" />
	<polyline
   id="polyline264"
   fill="none"
   stroke-linejoin="round"
   stroke-linecap="round"
   stroke-width="1.544000"
   stroke="#000000"
   points="223.4,1258.8 219.4,1260.6 215.6,1262.2 211.9,1263.7 208.3,1265.1 204.8,1266.4 201.4,1267.7    198.1,1269 194.8,1270.2 191.5,1271.5 188.2,1272.9 185,1274.2 181.7,1275.6 178.4,1277.2 175.1,1278.8 171.7,1280.6 168.3,1282.6    164.7,1284.7 161.1,1287 157.3,1289.5 153.4,1292.3 149.4,1295.3 145.2,1298.6 140.9,1302.3 136.4,1306.2 132.4,1309.6    128.6,1312.8 124.9,1315.7 121.1,1318.5 117.4,1321.2 113.7,1323.8 110,1326.3 106.4,1328.6 102.8,1330.9 99.3,1333.2 95.8,1335.4    92.4,1337.5 89.1,1339.7 85.8,1341.8 82.6,1344 79.5,1346.2 76.4,1348.5 73.5,1350.8 70.6,1353.3 67.9,1355.8 65.2,1358.4    62.7,1361.2 60.2,1364.1 57.9,1367.1 55.7,1370.3 53.7,1373.8 51.7,1377.4 50,1381.2 48.3,1385.3 46.8,1389.7 46.1,1392.2  "
   class="st1" />
	<polyline
   id="polyline266"
   fill="none"
   stroke-linejoin="round"
   stroke-linecap="round"
   stroke-width="1.544000"
   stroke="#000000"
   points="114.9,1319.2 111.2,1321.6 107.4,1324 103.6,1326.5 99.7,1329 95.9,1331.5 92.1,1334.1 88.3,1336.7    84.5,1339.3 80.9,1342 77.3,1344.7 73.8,1347.3 70.4,1350.1 67.2,1352.8 64.1,1355.5 61.2,1358.3 58.5,1361.1 56,1363.9    53.7,1366.7 51.7,1369.5 49.9,1372.3 48.3,1375.1 46.2,1379.9 44.5,1384.4 43.5,1388.1 42.9,1391.4 42.8,1394.5 42.9,1397.6    43.1,1400.9 43.3,1404.6 43.4,1409 43.2,1414.3 42.8,1419.9 42.7,1424.3 42.7,1428.7 43,1433.2 43.5,1437.6 44.3,1441.9    45.2,1446.2 46.3,1450.4 47.6,1454.5 49,1458.5 50.5,1462.4 52.2,1466.2 54,1469.7 55.9,1473.1 57.8,1476.3 59.9,1479.3    62.1,1482.2 65.2,1485.6 68.2,1488.5 71.3,1491 74.4,1493.2 77.7,1495.2 81.1,1496.9 84.6,1498.5 88.4,1500 92.4,1501.5 96.6,1503    101.2,1504.7 104.4,1505.8 107.5,1507.1 110.5,1508.4 113.4,1509.8 116.5,1511.2 119.6,1512.5 122.8,1513.8 126.1,1515    129.7,1516.1 133.5,1517.1 137.6,1517.9 142.1,1518.5 146.9,1519 152.1,1519.1 157.7,1519 163.9,1518.6 170.4,1518 176.4,1517.5    182,1517.2 187.3,1517.1 192.2,1517.2 196.8,1517.4 201.2,1517.8 205.4,1518.3 209.3,1518.9 213.1,1519.6 216.6,1520.4    220.1,1521.2 223.5,1522.1 226.8,1523 230,1523.9 233.2,1524.7 236.5,1525.5 239.8,1526.3 243.5,1526.9 247.7,1527.2 252.2,1527.3    256.9,1527.3 261.8,1527.2 266.7,1527 271.7,1526.9 276.5,1526.8 281.2,1526.9 285.7,1527.1 289.8,1527.5 293.6,1528.2 297,1529.3    299.8,1530.7 302.1,1532.5  "
   class="st1" />
	<polyline
   id="polyline268"
   fill="none"
   stroke-linejoin="round"
   stroke-linecap="round"
   stroke-width="1.544000"
   stroke="#000000"
   points="273.4,1526.6 280.6,1527.2 286.8,1527.7 292.2,1528.3 296.8,1528.8 300.9,1529.3 304.5,1529.7    307.8,1530 310.8,1530.4 313.7,1530.6 316.6,1530.8 319.7,1530.9 323,1531 326.7,1531 330.9,1530.9 335.7,1530.7 340.6,1530.5    345,1530.2 349.1,1529.8 353,1529.4 356.6,1529 360.1,1528.5 363.6,1528.1 367.1,1527.6 370.7,1527.3 374.4,1526.9 378.4,1526.7    382.8,1526.5 387.5,1526.4 392.6,1526.4 398.3,1526.6 403.9,1526.9 409,1527.1 413.6,1527.4 417.9,1527.7 421.9,1527.9    425.6,1528.1 429.2,1528.1 432.7,1527.9 436.1,1527.6 439.5,1527 443,1526.2 446.6,1525.1 450.5,1523.7 454.6,1522 459,1519.9    464.2,1517.2 469.2,1515 473.7,1513.3 477.8,1512.1 481.6,1511.3 485.2,1510.7 488.7,1510.4 492.1,1510.2 495.6,1510.1 499.2,1510    503.1,1509.8 507.2,1509.4 511.7,1508.8 515.8,1508 519.6,1507.2 523,1506.2 526.2,1505.1 529.3,1504 532.4,1502.8 535.6,1501.5    539,1500.2 542.7,1498.8 546.8,1497.3 551.4,1495.8 556.7,1494.2 562.6,1492.6 566.3,1491.6 568.9,1490.3 571.5,1488.7 574,1486.6    576.4,1484.2 578.8,1481.5 581,1478.4 583.2,1475.1 585.2,1471.5 587.1,1467.7 588.9,1463.6 590.5,1459.4 592,1455 593.3,1450.5    594.5,1445.9 595.4,1441.2 596.2,1436.5 596.8,1431.7 597.2,1427 597.4,1422.2 597.4,1417.5 597.1,1412.9 596.6,1408.4 595.8,1404    594.8,1399.8 593.5,1395.7 592,1391.9 590.2,1388.3 588,1384.9 585.6,1381.9 582.8,1379.1 581,1377.6  "
   class="st1" />
	<polyline
   id="polyline270"
   fill="none"
   stroke-linejoin="round"
   stroke-linecap="round"
   stroke-width="1.544000"
   stroke="#000000"
   points="597.7,1448.4 597.5,1441.1 597.1,1434.7 596.6,1429.2 596.1,1424.4 595.4,1420.2 594.5,1416.5    593.6,1413.3 592.6,1410.4 591.4,1407.7 590.1,1405.1 588.6,1402.6 587.1,1399.9 585.4,1397.1 583.6,1393.9 581.6,1390.4    579.6,1386.3 577.9,1382.8  "
   class="st1" />
	<polyline
   id="polyline272"
   fill="none"
   stroke-linejoin="round"
   stroke-linecap="round"
   stroke-width="1.544000"
   stroke="#000000"
   points="559.1,1484.9 562.5,1480.1 565.7,1475.8 568.6,1471.9 571.4,1468.3 574,1465 576.4,1461.8    578.5,1458.7 580.4,1455.7 582.1,1452.7 583.5,1449.5 584.6,1446.2 585.4,1442.6 586,1438.7 586.3,1434 586.4,1428.6 586.2,1423.8    585.6,1419.5 584.8,1415.7 583.6,1412.2 582.1,1409 580.3,1405.9 578.2,1402.9 575.8,1399.8 573,1396.6 572.7,1396.3  "
   class="st1" />
	<polyline
   id="polyline274"
   fill="none"
   stroke-linejoin="round"
   stroke-linecap="round"
   stroke-width="1.544000"
   stroke="#000000"
   points="422.5,1518.2 426.6,1515.8 430.6,1513.5 434.6,1511.4 438.4,1509.4 442.2,1507.5 445.8,1505.7    449.3,1503.8 452.7,1502 456,1500 459.1,1497.9 462.1,1495.7 465,1493.2 467.6,1490.5 470.2,1487.5 472.6,1484.2 474.8,1480.5    476.8,1476.4 478.6,1471.9 478.8,1471.3  "
   class="st1" />
	<polyline
   id="polyline276"
   fill="none"
   stroke-linejoin="round"
   stroke-linecap="round"
   stroke-width="1.544000"
   stroke="#000000"
   points="581,1477.6 586.7,1479.4 591.9,1480.9 596.7,1482.1 601.2,1483 605.5,1483.6 609.5,1484.1    613.3,1484.4 616.9,1484.5 620.4,1484.5 623.8,1484.4 627.2,1484.2 630.5,1484.1 633.9,1483.9 637.3,1483.7 640.8,1483.6    644.5,1483.6 648.3,1483.7 652.4,1483.9 656.8,1484.3 661.4,1485 666.3,1485.8 671.7,1486.9 676.7,1488 681.5,1488.9 686.2,1489.5    690.8,1489.9 695.4,1490.2 699.8,1490.3 704.1,1490.2 708.4,1490 712.6,1489.7 716.7,1489.3 720.8,1488.8 724.8,1488.2    728.8,1487.6 732.7,1486.9 736.6,1486.2 740.4,1485.5 744.2,1484.9 748.1,1484.2 751.9,1483.6 755.7,1483.1 759.4,1482.6    763.2,1482.2 767,1481.9 770.8,1481.7 774.6,1481.5 778.4,1481.5 782.4,1481.6 786.5,1481.7 790.6,1482 794.8,1482.3 799.1,1482.7    803.4,1483.2 807.7,1483.7 812.1,1484.2 816.5,1484.8 820.8,1485.4 825.2,1485.9 829.6,1486.6 834,1487.1 838.3,1487.7    842.5,1488.2 846.8,1488.7 850.9,1489.1 855,1489.5 859,1489.8 862.9,1490 866.7,1490.1 868.9,1490.1  "
   class="st1" />
	<polyline
   id="polyline278"
   fill="none"
   stroke-linejoin="round"
   stroke-linecap="round"
   stroke-width="1.544000"
   stroke="#000000"
   points="685.3,1360.9 691.5,1360.8 697.3,1360.5 703,1360 708.3,1359.3 713.4,1358.6 718.3,1357.7    722.9,1356.8 727.2,1355.9 731.4,1355 735.2,1354.1 738.8,1353.3 742.2,1352.6 745.3,1352 748.1,1351.6 750.8,1351.3 753.1,1351.3    755.3,1351.6 758.9,1352.2 762.3,1353 765.5,1354 768.4,1355.4 771.2,1357.5 773.6,1360.3 775.7,1364 777.4,1368.8 778.7,1374.8    779.4,1379 780,1381.3 781.1,1383.7 782.5,1386.1 784.3,1388.6 786.4,1391 788.8,1393.4 791.6,1395.9 794.5,1398.3 797.8,1400.7    801.2,1403 804.9,1405.4 808.8,1407.7 812.8,1409.9 817,1412.1 821.3,1414.3 825.7,1416.4 830.2,1418.4 834.8,1420.3 839.4,1422.1    844.1,1423.8 848.7,1425.4 853.4,1426.9 858,1428.3 862.5,1429.6 867.1,1430.7 871.4,1431.7 875.7,1432.6 879.9,1433.3    883.9,1433.8 884.5,1433.8  "
   class="st1" />
	<polyline
   id="polyline280"
   fill="none"
   stroke-linejoin="round"
   stroke-linecap="round"
   stroke-width="1.544000"
   stroke="#000000"
   points="769.8,1333.8 775.4,1334.6 780.1,1335.6 784.1,1336.9 787.5,1338.5 790.3,1340.3 792.7,1342.4    794.9,1344.6 796.9,1347.1 798.8,1349.8 800.9,1352.8 803.2,1355.8 805.8,1359.1 808.9,1362.6 812.6,1366.2 817,1369.9    821.4,1373.3 825.4,1376.4 829.4,1379.3 833.2,1382.2 836.9,1384.9 840.5,1387.5 844.1,1390 847.6,1392.4 851,1394.6 854.4,1396.7    857.8,1398.7 861.1,1400.6 864.5,1402.3 867.9,1403.9 871.3,1405.4 874.8,1406.7 878.3,1407.9 881.9,1409 885.5,1409.9    885.6,1409.9  "
   class="st1" />
	<polyline
   id="polyline282"
   fill="none"
   stroke-linejoin="round"
   stroke-linecap="round"
   stroke-width="1.544000"
   stroke="#000000"
   points="807.3,1351.5 811.1,1349.6 815.4,1348.3 820,1347.6 824.6,1347.1 829.1,1346.7 833.2,1346.3    836.8,1345.5 839.6,1344.3 842.9,1342.7 846.4,1340.5 850,1338 853.6,1335.2 857,1332.3 860,1329.4 862.5,1326.6 862.6,1326.5  "
   class="st1" />
	<polyline
   id="polyline284"
   fill="none"
   stroke-linejoin="round"
   stroke-linecap="round"
   stroke-width="1.544000"
   stroke="#000000"
   points="860.5,1304.6 860.4,1309 860.8,1313.2 861.5,1317.3 862.6,1321.3 863.9,1325.2 865.5,1329    867.1,1332.8 868.8,1336.6 870.6,1340.3 871.8,1343.9 872.6,1347.9 873.3,1352.4 873.8,1357.2 874.2,1362.1 874.5,1366.9    874.7,1371.6 875,1375.9 875.3,1379.7 875.7,1382.9 876.4,1385.5 877.6,1389.3 879.4,1393.1 881.7,1396.4 884.6,1398.4    888.1,1398.4 892.3,1395.9 895,1392.9 896.4,1390.7 897.8,1388.2 898.9,1385.5 899.8,1382.4 900.7,1379.1 901.4,1375.6    901.9,1371.8 902.4,1367.7 902.8,1363.4 903.2,1358.8 903.4,1354 903.6,1348.9 903.8,1343.6 904,1338 904.2,1332.3 904.4,1326.2    904.9,1320.4 905.6,1315 906.4,1310 907.2,1305.3 908.2,1300.9 909.2,1296.8 910.1,1292.9 911.1,1289.2 911.9,1285.6 912.7,1282.1    913.4,1278.7 913.9,1275.3 914.2,1271.9 914.3,1268.3 914.1,1264.7 913.7,1261 913.4,1258.9 913,1256.7 912.7,1254.5 912.4,1252.2    912.1,1249.8 911.9,1247.4 911.6,1244.8 911.4,1242.1 911.3,1239.2 911.2,1236.3 911.1,1233.2 911.1,1229.9 911.2,1226.5    911.4,1222.9 911.6,1219.1 912,1215.1 912.4,1211 912.9,1206.6 913.5,1202 914.3,1197.2 915.2,1192.1 916.2,1186.8 917.3,1181.2    918.6,1175.4 920,1169.3 921.6,1162.9 923.3,1156.2 925.3,1149.2 927.3,1142.1  "
   class="st1" />
	<polyline
   id="polyline286"
   fill="none"
   stroke-linejoin="round"
   stroke-linecap="round"
   stroke-width="1.544000"
   stroke="#000000"
   points="543.5,1275.5 549.4,1276.8 554.9,1278 560.3,1279.1 565.4,1280.1 570.2,1281.1 574.9,1281.9    579.3,1282.7 583.6,1283.4 587.7,1284.1 591.7,1284.6 595.6,1285.1 599.3,1285.5 603,1285.8 606.6,1286 610.2,1286.1 613.7,1286.2    617.2,1286.2 620.7,1286.1 624.2,1286 627.8,1285.8 631.4,1285.5 635,1285.1 638.8,1284.6 642.7,1284.1 646.7,1283.5 650.8,1282.8    655.3,1282 660,1281.2 664.6,1280.4 669.3,1279.7 674,1279.1 678.8,1278.6 683.5,1278.1 688.2,1277.6 692.9,1277.2 697.6,1276.9    702.2,1276.6 706.7,1276.4 711.2,1276.2 715.5,1276 719.8,1275.9 724,1275.9 728,1275.9 731.9,1276 735.7,1276.1 739.3,1276.2    742.7,1276.4 745.9,1276.6 749,1276.9 751.8,1277.2 754.2,1277.6  "
   class="st1" />
	<polyline
   id="polyline288"
   fill="none"
   stroke-linejoin="round"
   stroke-linecap="round"
   stroke-width="1.544000"
   stroke="#000000"
   points="612.3,1290.1 616.8,1289.8 621.1,1289.5 625.3,1289.1 629.4,1288.6 633.4,1288.1 637.4,1287.6    641.2,1287 645,1286.4 648.8,1285.8 652.5,1285.1 656.2,1284.5 659.9,1283.9 663.7,1283.3 667.4,1282.7 671.2,1282.2 675,1281.7    678.9,1281.2 682.9,1280.8 687,1280.4 691.1,1280.1 695.4,1280 699.9,1279.8 704.4,1279.8 709.1,1279.9 714,1280 719.1,1280.3    723.9,1280.7  "
   class="st1" />
	<polyline
   id="polyline290"
   fill="none"
   stroke-linejoin="round"
   stroke-linecap="round"
   stroke-width="1.544000"
   stroke="#000000"
   points="577.9,1300.5 581,1301.6 583.9,1302.5 586.7,1303.2 589.4,1303.7 591.9,1304.1 594.4,1304.3    596.9,1304.4 599.3,1304.3 601.8,1304.1 604.3,1303.8 606.9,1303.4 609.7,1303 612.5,1302.5 615.5,1301.9 618.8,1301.3    622.2,1300.6 625.9,1299.9 630,1299.3 634.3,1298.6 638.9,1298 644,1297.4 649.4,1296.8 655.3,1296.3 661.7,1295.9 668.5,1295.6    675.9,1295.4 683.8,1295.3 692.3,1295.3 694.7,1295.3  "
   class="st1" />
</g>
</svg>