<?xml version="1.0" encoding="UTF-8" standalone="no"?>
<svg
   xmlns:dc="http://purl.org/dc/elements/1.1/"
   xmlns:cc="http://creativecommons.org/ns#"
   xmlns:rdf="http://www.w3.org/1999/02/22-rdf-syntax-ns#"
   xmlns:svg="http://www.w3.org/2000/svg"
   xmlns="http://www.w3.org/2000/svg"
   height="2099.0"
   width="1500.0"
   id="svg506"
   style="background-color:white"
   version="1.1"
   viewBox="0 0 1500 2099"
   x="0px"
   y="0px"
   xml:space="preserve"><metadata
   id="metadata512"><rdf:RDF><cc:Work
       rdf:about=""><dc:format>image/svg+xml</dc:format><dc:type
         rdf:resource="http://purl.org/dc/dcmitype/StillImage" /></cc:Work></rdf:RDF></metadata><defs
   id="defs510" />
<style
   id="style2"
   type="text/css">.st0{display:none;stroke-width:2.099000;stroke-linecap:round;stroke-linejoin:round;stroke:#000000;}

	.st1{fill:none;stroke:#000000;stroke-miterlimit:10;stroke-width:2.099000;stroke-linecap:round;stroke-linejoin:round;}

	.st2{fill:#1D1D1B;stroke-width:2.099000;stroke-linecap:round;stroke-linejoin:round;stroke:#000000;}</style>
<g
   fill="none"
   stroke-linejoin="round"
   stroke-linecap="round"
   stroke-width="2.099000"
   stroke="#000000"
   id="Vector_rough">
	<path
   fill="none"
   class="st1"
   d="M511.8054504,172.1595001c-0.8254395-6.2756805-1.6313477-12.7962799,0.3048401-18.8226166   c1.9361572-6.0263367,7.4591675-11.3995819,13.7755127-10.9884033c4.4804077,0.2916565,8.2611694,3.2887268,11.7195435,6.1520844   c25.3643188,21.0003357,50.9038696,42.1753693,71.7457275,67.6700592   c45.6221313,55.8070374,65.5599976,128.1213684,104.1801147,188.984314"
   id="path4"
   stroke="#000000"
   stroke-linecap="round"
   stroke-linejoin="round"
   stroke-width="2.099000" />
	<path
   fill="none"
   class="st1"
   d="M502.5068054,136.7325439c-4.1733093,7.5564575-3.2325439,16.7862854-2.1740417,25.3534546   c1.0298767,8.3352966,2.059845,16.6715546,3.288147,24.9799347c2.3378906,15.8136597,5.5810242,31.9963226,14.4123535,45.3209076"
   id="path6"
   stroke="#000000"
   stroke-linecap="round"
   stroke-linejoin="round"
   stroke-width="2.099000" />
	<path
   fill="none"
   class="st1"
   d="M483.4589539,165.5347748c2.3179626-14.1914825,16.7218933-25.2925262,31.035675-23.9190826   c10.3120728,0.9894714,19.5109253,7.4672699,29.8348389,8.3241577"
   id="path8"
   stroke="#000000"
   stroke-linecap="round"
   stroke-linejoin="round"
   stroke-width="2.099000" />
	<path
   fill="none"
   class="st1"
   d="M487.3674622,62.7415047c9.0901489,3.2231941,16.8436584,10.0570641,21.1829224,18.6704216   c-6.348999-1.130928-13.2398376,1.5673752-19.1708374-0.9648743c-1.8259277-0.7795868-3.4162292-2.0086441-5.0907288-3.0753174   c-5.5099487-3.5098343-12.1052551-5.2886658-18.632782-5.0254669c9.0950928,4.9154434,17.6964111,10.7439346,25.6327209,17.3694305   c-3.4273376,0.9812469-6.8547058,1.9624863-10.2820435,2.9437332c3.7031555,0.2861099,5.1605225,5.5365829,3.2529907,8.7235184   c-1.9075012,3.1869431-5.6654663,4.6746292-9.1687012,5.9085464   c-17.2700806,6.0828781-34.8804321,11.1996002-52.7212219,15.3182678   c18.2840576-1.1922989,36.1099854-10.003418,54.214447-7.1827621c2.3525696,0.3665237,5.0862122,1.307869,5.6706238,3.6159897   c0.5639954,2.2274628-1.2576599,4.3310242-3.120636,5.6759949c-3.4987488,2.5259018-7.7023621,4.0644913-12.0050354,4.3940201"
   id="path10"
   stroke="#000000"
   stroke-linecap="round"
   stroke-linejoin="round"
   stroke-width="2.099000" />
	<path
   fill="none"
   class="st1"
   d="M518.1409302,91.5091248c-7.2361755,3.6031494-14.4723816,7.2062988-21.7085571,10.8094406   c-5.5658569,2.7714386-11.3871155,5.7626877-14.8280029,10.9414902c-2.1095886,3.175087-3.1483459,6.9393005-3.8364258,10.6887131   c-3.9779663,21.6769791,2.7858887,43.7251053,9.4710083,64.7257004   c3.4513245,10.8420105,6.9026794,21.6840057,10.3540039,32.5260162"
   id="path12"
   stroke="#000000"
   stroke-linecap="round"
   stroke-linejoin="round"
   stroke-width="2.099000" />
	<path
   fill="none"
   class="st1"
   d="M486.6350098,62.3027077c43.1791992,12.5393486,82.8527222,38.0493889,110.40448,73.5821533   c6.1275024,7.90242,11.6447144,16.2561646,17.1552124,24.6005096c4.333252,6.5616455,8.6665039,13.1232758,12.9997559,19.684906   c10.7636719,16.2989502,21.5377808,32.614975,31.1074829,49.642395   c5.840332,10.3917542,11.2234497,21.0333862,16.5076904,31.7186432   c34.977356,70.7276306,65.7150879,143.5515747,91.9933472,217.9509277"
   id="path14"
   stroke="#000000"
   stroke-linecap="round"
   stroke-linejoin="round"
   stroke-width="2.099000" />
	<path
   fill="none"
   class="st1"
   d="M488.8887024,136.993515c-8.2844543,30.9407349,2.3052979,63.5756378,14.4063721,93.2324371   c7.6567688,18.7648926,15.9694519,37.262146,24.9178162,55.4465942c3.0725098,6.243866,6.2286377,12.4660339,10.0384521,18.2893677   c4.0390625,6.1737366,8.7811279,11.8511963,13.1945801,17.7630615   c28.1914673,37.7628174,43.1893311,85.2992859,77.2797852,117.8359375   c9.7910156,9.3447571,20.9666748,17.2344055,30.0675659,27.2525635   c5.0927124,5.6060181,9.4735718,11.8122864,13.8401489,18.0006409c14.112854,20.000885,28.225708,40.0017395,42.338562,60.002594"
   id="path16"
   stroke="#000000"
   stroke-linecap="round"
   stroke-linejoin="round"
   stroke-width="2.099000" />
	<path
   fill="none"
   class="st1"
   d="M711.1538086,426.3614502c-1.355957-2.7319946-3.3522339-5.1436768-5.7827759-6.9862061   c-0.6920776-0.5246887-1.503418-1.0259399-2.3656616-0.9219666c-1.2412109,0.1496277-1.9735718,1.4361877-2.4651489,2.5856628   c-6.1608887,14.4049988-5.7424927,30.9443359-1.864563,46.1240234   c3.8779907,15.179657,11.0014648,29.2998047,18.0718994,43.2808228"
   id="path18"
   stroke="#000000"
   stroke-linecap="round"
   stroke-linejoin="round"
   stroke-width="2.099000" />
	<path
   fill="none"
   class="st1"
   d="M673.1444702,434.3554382c-5.1081543-8.1020508-6.1315308-18.0367126-7.024292-27.5729065   c-0.7000732-7.4776611-1.4000854-14.9553223-2.1001587-22.4330139   c6.2212524,10.7564697,12.7219849,21.8306885,22.741333,29.1803284c2.2103271,1.6213989,4.604187,3.0732727,6.3471069,5.1891174   c4.272644,5.1870422,2.9932251,13.9656677-2.5821533,17.7174377"
   id="path20"
   stroke="#000000"
   stroke-linecap="round"
   stroke-linejoin="round"
   stroke-width="2.099000" />
	<path
   fill="none"
   class="st1"
   d="M695.215271,377.3442993c-0.6786499-1.6436462-3.1699219-1.1557312-4.6200562-0.1264648   c-5.1377563,3.6467285-7.413208,10.0960999-8.7508545,16.2528992c-3.4069214,15.6815491-2.6117554,32.2557068,2.2807007,47.5391235   "
   id="path22"
   stroke="#000000"
   stroke-linecap="round"
   stroke-linejoin="round"
   stroke-width="2.099000" />
	<path
   fill="none"
   class="st1"
   d="M690.0527954,365.049408c-10.902832,4.4118958-15.8880005,16.8669128-18.8938599,28.2379761   c-2.036499,7.7042236-3.6984863,15.5074768-4.9779663,23.3729553c-1.421814,8.7401428-2.2952881,18.0810242,1.4139404,26.1217651   c1.1104126,2.4071045,2.7900391,4.7745667,5.298584,5.6315613c2.5084839,0.8569946,5.8536987-0.5472412,6.1654053-3.179718"
   id="path24"
   stroke="#000000"
   stroke-linecap="round"
   stroke-linejoin="round"
   stroke-width="2.099000" />
	<path
   fill="none"
   class="st1"
   d="M632.4447632,189.1292419c2.9019165,18.3575287,14.4525757,33.9581757,22.7571411,50.5850983   c11.4981079,23.0209198,16.9164429,48.517807,25.4204712,72.8046417   c4.8190918,13.7628479,10.6361084,27.1513367,15.9708862,40.7225647   c16.2694702,41.3880005,28.0569458,84.5361023,35.0901489,128.4472961"
   id="path26"
   stroke="#000000"
   stroke-linecap="round"
   stroke-linejoin="round"
   stroke-width="2.099000" />
	<path
   fill="none"
   class="st1"
   d="M656.1671753,294.0421753c11.8568115,12.8783569,23.5565796,25.9964905,33.2871094,40.5481567   c16.3478394,24.4474792,26.7314453,52.3039246,36.9705811,79.8736572"
   id="path28"
   stroke="#000000"
   stroke-linecap="round"
   stroke-linejoin="round"
   stroke-width="2.099000" />
	<path
   fill="none"
   class="st1"
   d="M748.3903809,459.2889404c2.0794678,8.4504089,6.1553345,16.4026794,11.8013306,23.025116"
   id="path30"
   stroke="#000000"
   stroke-linecap="round"
   stroke-linejoin="round"
   stroke-width="2.099000" />
	<path
   fill="none"
   class="st1"
   d="M753.9348755,466.567749c3.4612427,12.9978638,7.2959595,26.6569214,16.883728,36.0908508   c2.6259155,2.5837708,5.6118774,4.7680054,8.5857544,6.9421387c5.9475098,4.3479919,11.8950806,8.6960144,17.8425903,13.0439758   c8.2832031,6.055542,18.3955688,12.4307861,28.0982056,9.0930786c1.2596436-0.4333496,2.585083-1.1569824,2.9850464-2.4276123   c0.6187134-1.9653931-1.2674561-3.7514038-2.9400635-4.9546509c-2.3155518-1.6657715-4.6311035-3.3314819-6.9466553-4.9972534   c0.9031982-0.3370361,1.8063354-0.6740112,2.7094727-1.0109863"
   id="path32"
   stroke="#000000"
   stroke-linecap="round"
   stroke-linejoin="round"
   stroke-width="2.099000" />
	<path
   fill="none"
   class="st1"
   d="M809.9059448,531.1721802c16.7648926-24.2933044,37.8178711-45.6184998,61.8937988-62.6940613   c-20.8449707,19.9009094-28.9949341,49.4784241-34.0545654,77.8501892"
   id="path34"
   stroke="#000000"
   stroke-linecap="round"
   stroke-linejoin="round"
   stroke-width="2.099000" />
	<path
   fill="none"
   class="st1"
   d="M842.97052,543.5944824c11.572876-3.1517334,23.1809692-6.3109131,35.0521851-8.0253906   c18.7345581-2.7056885,37.9229126-1.7559204,56.4689941,2.0318604   c-18.7982788,13.1940308-40.6899414,21.9504395-63.4018555,25.3601685"
   id="path36"
   stroke="#000000"
   stroke-linecap="round"
   stroke-linejoin="round"
   stroke-width="2.099000" />
	<path
   fill="none"
   class="st1"
   d="M909.2052002,519.9900513c-28.8987427-4.3400269-59.6729126,12.7283936-71.2930298,39.5415649   c-1.1074219-5.4287109-0.3533936-11.2194824,2.1074219-16.1834717"
   id="path38"
   stroke="#000000"
   stroke-linecap="round"
   stroke-linejoin="round"
   stroke-width="2.099000" />
	<path
   fill="none"
   class="st1"
   d="M594.9683838,605.1748047c3.6011963-5.31427,8.3691406-9.7138062,13.092041-14.0616455   c16.6995239-15.373291,33.5725708-30.8757935,53.206665-42.2649536   c19.6340942-11.3892212,42.5337524-18.4837646,65.0414429-15.5488281"
   id="path40"
   stroke="#000000"
   stroke-linecap="round"
   stroke-linejoin="round"
   stroke-width="2.099000" />
	<path
   fill="none"
   class="st1"
   d="M694.4719849,539.2252197c-29.7831421,11.5403442-54.4703979,33.8151245-73.5686646,59.4172974   c-19.0982666,25.6022339-33.0928955,54.5856323-46.5280762,83.5634155   c-10.6605225,22.9933472-21.2247314,46.8309937-22.298645,72.1526489"
   id="path42"
   stroke="#000000"
   stroke-linecap="round"
   stroke-linejoin="round"
   stroke-width="2.099000" />
	<path
   fill="none"
   class="st1"
   d="M737.1530151,527.3556519c24.0635986-1.402771,48.31604,0.4702759,71.8788452,5.5513306"
   id="path44"
   stroke="#000000"
   stroke-linecap="round"
   stroke-linejoin="round"
   stroke-width="2.099000" />
	<path
   fill="none"
   class="st1"
   d="M804.2418213,534.0787964c16.2543945-1.8574219,32.1373291,4.8122559,47.1392212,11.3389282   c13.6230469,5.9268799,27.3067017,11.885498,39.8764648,19.8048096c5.9345093,3.7388306,11.5924072,7.897583,17.4284058,11.7883301   c7.8956299,5.263916,16.2571411,10.0952148,25.4536133,12.4353638"
   id="path46"
   stroke="#000000"
   stroke-linecap="round"
   stroke-linejoin="round"
   stroke-width="2.099000" />
	<path
   fill="none"
   class="st1"
   d="M877.1656494,566.3116455c17.0270386-0.118042,34.062561,1.0092163,50.9255371,3.3699341   c-4.7226563,3.2972412-10.800415,4.5866089-16.4550171,3.4909668   c39.7687378,0.1140747,79.3751831,13.8130493,110.7159424,38.2942505   c-13.6804199-3.0230103-28.1057129-6.0245361-41.4905396-1.8846436c2.1577759,5.2203369,6.7835693,9.3565674,12.211731,10.9194946"
   id="path48"
   stroke="#000000"
   stroke-linecap="round"
   stroke-linejoin="round"
   stroke-width="2.099000" />
	<path
   fill="none"
   class="st1"
   d="M887.2801514,564.3207397c11.1828003-0.5480957,22.3656006-1.0962524,33.5484009-1.6444092   c18.9693604-0.9298096,38.3744507-1.8101196,56.5665283,3.644165c2.1923828,0.6572876,4.7922363,1.9973145,4.6844482,4.2835083   c-0.104126,2.2077637-2.6477051,3.3250122-4.7705078,3.9403687c-5.7979736,1.6807251-11.5958862,3.3615112-17.3937988,5.0422363"
   id="path50"
   stroke="#000000"
   stroke-linecap="round"
   stroke-linejoin="round"
   stroke-width="2.099000" />
	<path
   fill="none"
   class="st1"
   d="M1026.032959,605.3293457c0.0203857,4.1677246,1.8662109,8.1466064,2.032959,12.3110352   s-2.4760742,9.0932007-6.6390991,8.8930664c-4.703064-0.2260742-6.468689-6.1803589-6.9729004-10.8618164   c1.8062744,14.0909424,4.6971436,28.0426636,8.6384888,41.6911621"
   id="path52"
   stroke="#000000"
   stroke-linecap="round"
   stroke-linejoin="round"
   stroke-width="2.099000" />
	<path
   fill="none"
   class="st1"
   d="M716.6542358,420.5354919c9.1878662,19.9142456,19.4674683,39.324707,30.7773438,58.1151733   c1.2584229,2.0907288,2.5822754,4.231842,4.5644531,5.6551514c1.9821167,1.4232788,4.8084106,1.9590454,6.8607178,0.6388855"
   id="path54"
   stroke="#000000"
   stroke-linecap="round"
   stroke-linejoin="round"
   stroke-width="2.099000" />
	<path
   fill="none"
   class="st1"
   d="M587.4732056,379.072052c23.0297852,20.7914124,36.0979614,50.9174194,59.4379272,71.3600159   c7.460083,6.5339661,15.8534546,11.9656982,23.0768433,18.7604065   c7.8619385,7.3954163,14.1741333,16.2473145,20.9101563,24.6811218   c10.3961792,13.01651,21.9036255,25.1452026,34.355957,36.2108765"
   id="path56"
   stroke="#000000"
   stroke-linecap="round"
   stroke-linejoin="round"
   stroke-width="2.099000" />
	<path
   fill="none"
   class="st1"
   d="M612.171875,610.3799438c-42.5553589,31.826416-69.4281006,83.6842041-70.8920898,136.8041992   c3.2797852-18.0977783,6.7293701-36.2878418,13.3306274-53.4550171   c6.6011963-17.1671753,16.5888062-33.4226685,30.9988403-44.852356"
   id="path58"
   stroke="#000000"
   stroke-linecap="round"
   stroke-linejoin="round"
   stroke-width="2.099000" />
	<path
   fill="none"
   class="st1"
   d="M636.8460693,566.0178833c-16.7990723,15.6235352-29.5996704,35.5118408-36.8624268,57.2731934"
   id="path60"
   stroke="#000000"
   stroke-linecap="round"
   stroke-linejoin="round"
   stroke-width="2.099000" />
	<path
   fill="none"
   class="st1"
   d="M1037.6467285,670.8758545c-7.1055908,3.119812-8.1104736,13.4638062-4.2073975,20.1713257   c3.9029541,6.7074585,10.951416,10.8088379,17.3162842,15.2487183   c16.060791,11.2033081,29.1899414,26.0716553,41.440918,41.3483887   c32.2763672,40.2479858,59.6356201,84.4353027,81.2769775,131.2681885   c24.4266357,52.8605957,41.484375,108.8057861,56.6491699,165.0279541   c2.5936279,9.6159668,3.8446045,22.4536133-4.9824219,27.0662842"
   id="path62"
   stroke="#000000"
   stroke-linecap="round"
   stroke-linejoin="round"
   stroke-width="2.099000" />
	<path
   fill="none"
   class="st1"
   d="M1230.2058105,1072.671875c7.4467773,23.5,6.5557861,49.5506592-2.4790039,72.4869385   c-0.2994385,0.7601318-0.6405029,1.5595703-1.3103027,2.0274658c-1.2658691,0.8842773-3.1619873,0.0753174-3.8929443-1.28479   c-0.7310791-1.3601074-0.5823975-3.019165-0.2364502-4.5240479"
   id="path64"
   stroke="#000000"
   stroke-linecap="round"
   stroke-linejoin="round"
   stroke-width="2.099000" />
	<path
   fill="none"
   class="st1"
   d="M949.3997803,694.1920776c25.067627,27.6335449,40.0987549,62.9746704,50.3938599,98.8356323   s16.2876587,72.8235474,25.8982544,108.8739624c6.798584,25.5025024,15.3907471,50.4858398,23.9862061,75.4401245   c9.7012939,28.1651001,19.4968262,56.5054932,34.145874,82.4437256   c36.5914307,64.7905273,104.0828857,111.196167,177.678833,122.1678467   c-1.6418457-4.5856934-3.2838135-9.1715088-4.9257813-13.7573242"
   id="path66"
   stroke="#000000"
   stroke-linecap="round"
   stroke-linejoin="round"
   stroke-width="2.099000" />
	<path
   fill="none"
   class="st1"
   d="M922.7752686,604.3467407c22.1918945,15.442688,43.0736084,32.6946411,63.3335571,50.5968628   c23.0459595,20.3640137,45.3237915,41.597229,66.7702026,63.6394043"
   id="path68"
   stroke="#000000"
   stroke-linecap="round"
   stroke-linejoin="round"
   stroke-width="2.099000" />
	<path
   fill="none"
   class="st1"
   d="M970.8388062,625.3308716c27.8903809,24.6461792,55.8977661,49.4116211,79.7959595,77.9455566   c23.8983154,28.5339355,43.7119141,61.2097168,52.835083,97.2940674"
   id="path70"
   stroke="#000000"
   stroke-linecap="round"
   stroke-linejoin="round"
   stroke-width="2.099000" />
	<path
   fill="none"
   class="st1"
   d="M972.177124,726.2794189c14.9795532,23.0269165,16.4424438,51.9101563,19.9976196,79.1495361   c7.5198975,57.6164551,26.2373657,113.1070557,45.3760376,167.9697266   c15.2498779,43.715332,31.3442383,88.2415771,60.4615479,124.2384033   c7.5917969,9.385498,16.0766602,18.1593018,26.0072021,25.0227051c9.9550781,6.880249,21.1671143,11.7125244,32.4608154,16.0592041   c22.078125,8.4973145,45.0324707,15.3608398,68.6343994,16.9720459   c23.6019287,1.6113281,48.0158691-2.3043213,68.4713135-14.1879883"
   id="path72"
   stroke="#000000"
   stroke-linecap="round"
   stroke-linejoin="round"
   stroke-width="2.099000" />
	<path
   fill="none"
   class="st1"
   d="M985.2867432,780.9991455c-7.0631104,16.145813-14.1262207,32.291626-21.1893311,48.4373779   c-5.5362549,12.6555176-11.6450195,26.0106201-23.1691284,33.62677"
   id="path74"
   stroke="#000000"
   stroke-linecap="round"
   stroke-linejoin="round"
   stroke-width="2.099000" />
	<path
   fill="none"
   class="st1"
   d="M966.6070557,819.6452637c-7.1690674,13.4263916-16.6923828,25.5914917-28.005188,35.7739868   c-4.1933594,3.774353-8.6602173,7.3099365-12.1801758,11.7189941c-4.2990723,5.3849487-7.0196533,11.8673096-11.1107788,17.4118042   c-4.0911865,5.5445557-10.2902222,10.338562-17.164978,9.87323"
   id="path76"
   stroke="#000000"
   stroke-linecap="round"
   stroke-linejoin="round"
   stroke-width="2.099000" />
	<path
   fill="none"
   class="st1"
   d="M923.3223877,869.4970093c-17.3459473,13.0616455-30.007019,31.2109375-44.4049072,47.4648438   s-31.9710083,31.4143677-53.3701782,35.0975952c8.0105591-22.9590454,33.4101563-34.1170654,50.0441284-51.8538818   c-20.8536377,14.3564453-46.1303101,22.1903687-71.447876,22.1435547"
   id="path78"
   stroke="#000000"
   stroke-linecap="round"
   stroke-linejoin="round"
   stroke-width="2.099000" />
	<path
   fill="none"
   class="st1"
   d="M835.0048218,904.0004272c-22.0681763,14.3591919-48.5371094,19.9391479-74.3251953,25.2463989   c-11.6600342,2.3996582-23.3200684,4.7992554-34.9800415,7.1989136   c-5.3272095,1.0963745-10.7711182,2.2373047-15.4291992,5.0449829c-4.9890137,3.0072021-8.7073364,7.7080078-12.0161743,12.5023193   c-5.8508911,8.477478-10.7890625,17.5845337-14.7015991,27.1130981"
   id="path80"
   stroke="#000000"
   stroke-linecap="round"
   stroke-linejoin="round"
   stroke-width="2.099000" />
	<path
   fill="none"
   class="st1"
   d="M945.7027588,880.7653198c14.5949097-19.0217285,23.7590942-42.1633301,26.1442871-66.0202026   c3.3018799,6.6533813,6.6038208,13.3068237,9.9057007,19.9602661   c9.0163574-16.1605835,15.2719727-33.8568115,18.4151001-52.0935669c3.5665894,1.5077515,6.2940063,4.857666,7.0473022,8.6559448   c11.4361572-26.2416992,6.1034546-56.3972168,0.5758667-84.4838257c0.6004028,7.3844604,1.2008057,14.7689209,1.8012085,22.1533813   c4.3175659-25.4977417,7.5551758-55.0030518-9.8348389-74.1436768"
   id="path82"
   stroke="#000000"
   stroke-linecap="round"
   stroke-linejoin="round"
   stroke-width="2.099000" />
	<path
   fill="none"
   class="st1"
   d="M929.1682739,589.2687378c6.1350708,1.8217773,12.5715942,3.8239136,16.9639893,8.4785156   c2.3925781,2.5353394,4.0031738,5.6886597,5.9483032,8.581543c8.5266724,12.6809692,22.9447021,19.7821045,35.3966064,28.6398926   c12.4519653,8.8577271,24.2184448,22.1582642,22.6430054,37.3579102"
   id="path84"
   stroke="#000000"
   stroke-linecap="round"
   stroke-linejoin="round"
   stroke-width="2.099000" />
	<path
   fill="none"
   class="st1"
   d="M605.7689209,686.2641602c4.3575439-21.7665405,14.8622437-42.2406616,29.8509521-58.6146851   c7.8148193-8.5371704,16.7785034-15.9440918,25.9746094-22.9716187   c9.1859131-7.0198364,18.8709717-13.8086548,29.9677124-17.0523682   c28.0834351-8.2090454,59.0547485,9.3589478,73.5613403,34.7681274s15.4215088,56.4685669,11.1598511,85.4151611   c-3.7912598,25.7513428-11.4821167,51.1699829-24.9135132,73.4656982   c-13.4313965,22.2957764-32.8496094,41.3647461-56.5494995,52.1265869   c-7.1763916,3.258667-14.7682495,5.7619629-22.6109009,6.5441284   c-23.4337158,2.3370972-45.4887695-10.6889038-64.4782715-24.6172485   c-6.753418-4.9534912-13.5378418-10.2666626-17.80896-17.4710083s-5.538208-16.77771-1.0407104-23.8430176"
   id="path86"
   stroke="#000000"
   stroke-linecap="round"
   stroke-linejoin="round"
   stroke-width="2.099000" />
	<path
   fill="none"
   class="st1"
   d="M614.1763306,660.9208374c-2.8881836,0.6309204-4.4498901,3.6936035-5.5736694,6.4279785   c-10.2626953,24.9715576-17.0928955,51.3510132-20.2386475,78.1652832   c-2.1710205,18.5054321-2.1575928,38.7472534,8.6937256,53.8936157"
   id="path88"
   stroke="#000000"
   stroke-linecap="round"
   stroke-linejoin="round"
   stroke-width="2.099000" />
	<path
   fill="none"
   class="st1"
   d="M590.171936,792.4747925c3.2370605,10.0543213,6.4741211,20.1087036,9.7111816,30.1630249   c1.2545166,3.8964844,2.5391235,7.8552246,4.8582764,11.2283936c2.5073242,3.6469116,6.0802612,6.4023438,9.5925903,9.0949707   c7.3389893,5.6261597,14.6779175,11.2523804,22.0169067,16.87854c4.5194092,3.4646606,9.0762939,6.9528198,14.1871338,9.4643555   c12.8655396,6.3223267,28.9053955,5.6820679,41.2260742-1.6456299"
   id="path90"
   stroke="#000000"
   stroke-linecap="round"
   stroke-linejoin="round"
   stroke-width="2.099000" />
	<path
   fill="none"
   class="st1"
   d="M585.6608276,826.5928955c-2.0335693,4.6921997-1.0884399,10.2538452,1.3071289,14.7719727   c2.3955688,4.5180664,6.0892334,8.1911011,9.772644,11.7385254c5.2649536,5.0706177,10.6269531,10.0404663,16.0820313,14.9059448   c8.0166626,7.1501465,16.3587036,14.156311,26.0700684,18.7476196c15.9573975,7.5444336,35.1656494,7.8662109,51.3668213,0.8605347   "
   id="path92"
   stroke="#000000"
   stroke-linecap="round"
   stroke-linejoin="round"
   stroke-width="2.099000" />
	<path
   fill="none"
   class="st1"
   d="M632.2575073,878.1233521c4.1509399,2.6387939,9.491333,2.2268677,14.3464355,1.4384766   c28.8062744-4.6779175,55.8269653-19.6740112,75.0363159-41.644043"
   id="path94"
   stroke="#000000"
   stroke-linecap="round"
   stroke-linejoin="round"
   stroke-width="2.099000" />
	<path
   fill="none"
   class="st1"
   d="M709.0576782,849.6018677c5.1396484,2.0090942,10.8480835-0.3790894,15.8410645-2.729248   c7.5683594-3.562439,15.6255493-7.5722046,19.6234741-14.9198608c2.5689087-4.7213135,3.2134399-10.4579468,6.5737305-14.6530151"
   id="path96"
   stroke="#000000"
   stroke-linecap="round"
   stroke-linejoin="round"
   stroke-width="2.099000" />
	<path
   fill="none"
   class="st1"
   d="M788.1347656,751.15625c1.1824341-0.4569092,1.5891113,1.5576172,1.2091064,2.7669678   c-5.0396118,16.0378418-12.8236084,31.2093506-22.9118652,44.6569214"
   id="path98"
   stroke="#000000"
   stroke-linecap="round"
   stroke-linejoin="round"
   stroke-width="2.099000" />
	<path
   fill="none"
   class="st1"
   d="M782.2376099,778.4442749c2.7719116-2.1712646,5.5438843-4.3425293,8.3157959-6.5137939   c-2.5047607,9.4429932-7.821167,18.1213379-15.0959473,24.6420898"
   id="path100"
   stroke="#000000"
   stroke-linecap="round"
   stroke-linejoin="round"
   stroke-width="2.099000" />
	<path
   fill="none"
   class="st1"
   d="M789.0166016,659.1501465c5.3301392,42.2567139-0.0410156,87.8578491-25.4963379,122.0055542"
   id="path102"
   stroke="#000000"
   stroke-linecap="round"
   stroke-linejoin="round"
   stroke-width="2.099000" />
	<path
   fill="none"
   class="st1"
   d="M779.4324951,609.1072388c3.5916748,4.789978,4.7719727,10.9436646,5.3752441,16.9002075   c1.2964478,12.8008423,0.3840332,25.8224487-2.6849365,38.3174438"
   id="path104"
   stroke="#000000"
   stroke-linecap="round"
   stroke-linejoin="round"
   stroke-width="2.099000" />
	<path
   fill="none"
   class="st1"
   d="M672.87323,598.1656494c9.4185181,6.730957,22.2692871,4.5508423,33.6318359,2.3359375   c11.3626099-2.2149658,24.5020142-3.7402344,33.2761841,3.8114624c2.5811157,2.2214355,4.5438232,5.0736694,6.2360229,8.0288696   c6.8952026,12.0410156,9.6182861,25.9559326,12.0883179,39.6098633c2.8522339,15.7667236,5.5053101,31.569458,7.9584351,47.4031982   c1.9740601,12.7417603,3.690979,26.4135132-1.9608154,38.0025635"
   id="path106"
   stroke="#000000"
   stroke-linecap="round"
   stroke-linejoin="round"
   stroke-width="2.099000" />
	<path
   fill="none"
   class="st1"
   d="M679.5940552,598.2331543c11.3186035-5.6005249,24.7816162-0.7122803,36.4181519,4.1936646   c13.7399902,5.7927856,28.1916504,12.1400757,36.8510742,24.2791138   c5.5962524,7.8449707,8.2020874,17.3726807,10.7053223,26.6782837   c6.6867065,24.8568726,13.432373,50.2719727,11.6867676,75.9533081"
   id="path108"
   stroke="#000000"
   stroke-linecap="round"
   stroke-linejoin="round"
   stroke-width="2.099000" />
	<path
   fill="none"
   class="st1"
   d="M549.1514893,754.2973022c2.5460205,8.6904907,12.3162842,13.3556519,16.1026001,21.5818481   c3.2860107,7.1391602,1.4718628,15.4272461,0.9386597,23.2681885c-1.1405029,16.7701416,3.9098511,33.2741699,8.9028931,49.3244019   c2.5369873,8.1553955,5.2664185,16.6409912,11.2484131,22.7370605c5.2608032,5.3612061,12.4946289,8.2966309,18.3468018,13.005249   c5.8521118,4.7086792,10.4145508,12.7387085,7.3278198,19.5864258"
   id="path110"
   stroke="#000000"
   stroke-linecap="round"
   stroke-linejoin="round"
   stroke-width="2.099000" />
	<path
   fill="none"
   class="st1"
   d="M554.0952759,743.3209229c-15.8013916,18.9561768-39.4458008,32.1992798-48.5806274,55.1246948   c-5.3881226,13.5224609-4.8687134,28.5723267-4.268219,43.116333c0.434021,10.5120239,0.964447,21.4053955,5.7729492,30.7632446   c5.261322,10.2390747,14.9582214,17.3317871,24.3144836,24.0385132   c7.6057739,5.4518433,15.2114868,10.9037476,22.8172607,16.3556519c5.7800903,4.1432495,11.9007568,8.4223022,18.9674683,9.2210083   "
   id="path112"
   stroke="#000000"
   stroke-linecap="round"
   stroke-linejoin="round"
   stroke-width="2.099000" />
	<path
   fill="none"
   class="st1"
   d="M527.133606,896.4052124c8.1346436-0.8004761,15.7255249,3.6121216,23.2470093,6.8120117   c9.4029541,4.0003662,19.5465088,6.2520142,29.7589111,6.605896"
   id="path114"
   stroke="#000000"
   stroke-linecap="round"
   stroke-linejoin="round"
   stroke-width="2.099000" />
	<path
   fill="none"
   class="st1"
   d="M547.8442993,902.1759033c3.5045776,13.4071045,12.9901123,25.1308594,25.3703003,31.3569336   c12.4225464,6.2473145,27.5297241,7.25354,38.2199097,16.1455688c3.2115479,2.6712646,6.0637207,6.5863037,5.3102417,10.6950684   c-0.3755493,2.0476685-1.598877,3.8214111-2.4523315,5.7202759c-2.0506592,4.5627441-1.9342041,9.7510376-2.4333496,14.7284546   c-1.4422607,14.3825073-8.5450439,28.1210327-19.4459839,37.6134033"
   id="path116"
   stroke="#000000"
   stroke-linecap="round"
   stroke-linejoin="round"
   stroke-width="2.099000" />
	<path
   fill="none"
   class="st1"
   d="M508.4058228,794.6550293c-1.8340149-3.8862915-7.4958191-4.6065674-11.1869507-2.4059448   c-3.6911621,2.2006226-5.7386475,6.3469849-7.1282654,10.4134521c-2.9760437,8.7088013-3.8400269,18.1311646-2.4974365,27.2360229   c0.5636292,3.8221436,1.9544373,8.1294556,5.5455322,9.5545044c4.8406067,1.9208984,9.8547668-2.8695068,11.5946655-7.7781372   c1.7398987-4.9085693,1.9050598-10.4944458,4.9384155-14.7276001c2.5995789-3.6278687,7.2174988-6.1691284,7.8374329-10.5888672   c0.5784302-4.1237183-2.6774292-7.7191772-5.8435364-10.4238281c-3.3287964-2.8435669-7.1573486-5.5820313-11.532959-5.7266235"
   id="path118"
   stroke="#000000"
   stroke-linecap="round"
   stroke-linejoin="round"
   stroke-width="2.099000" />
	<path
   fill="none"
   class="st1"
   d="M632.1176147,677.0428467c-10.1416016,2.3471069-17.8374634,11.1296387-21.5550537,20.8528442   s-4.0802612,20.3665771-4.1304932,30.776123c-0.0612793,12.6814575,0.2918701,25.4932251,3.406189,37.786499   c1.4613037,5.7681885,4.2368774,12.1060791,9.9180298,13.8757935c4.4087524,1.3734131,9.3186646-0.6067505,12.6195679-3.8358765   c3.3008423-3.229187,5.3029175-7.527771,7.1551514-11.7576904c5.6947632-13.0047607,10.6913452-26.5368652,11.9752197-40.6755981   c1.2838745-14.1387939-1.4694824-29.0733643-10.0263672-40.4017944c-2.069519-2.7398071-4.6731567-5.3709106-8.0315552-6.0854492   c-3.3583984-0.7145996-7.4575806,1.3328247-7.78302,4.7509155"
   id="path120"
   stroke="#000000"
   stroke-linecap="round"
   stroke-linejoin="round"
   stroke-width="2.099000" />
	<path
   fill="none"
   class="st1"
   d="M688.3084106,971.5089722c2.7675781,6.9611816,4.2210693,14.4421997,4.2614746,21.9332275   c0.0247192,4.5792236-0.47229,9.1434326-0.968689,13.6957397c-1.5709839,14.4072266-3.1420288,28.8144531-4.7130127,43.2216797"
   id="path122"
   stroke="#000000"
   stroke-linecap="round"
   stroke-linejoin="round"
   stroke-width="2.099000" />
	<path
   fill="none"
   class="st1"
   d="M687.4616089,1037.2893066c9.6742554,74.6826172,22.3268433,148.9793701,37.9175415,222.6542969   c10.1925049,48.1656494,21.8008423,96.5247803,43.3417358,140.7943115   c23.4602051,48.2141113,57.9443359,90.0551758,92.0981445,131.3891602   c20.875,25.2635498,42.076355,50.8344727,68.7783813,69.8349609"
   id="path124"
   stroke="#000000"
   stroke-linecap="round"
   stroke-linejoin="round"
   stroke-width="2.099000" />
	<path
   fill="none"
   class="st1"
   d="M690.8703613,997.8973999c12.5899658,11.0827026,25.453064,22.505188,33.3154297,37.321228   c8.3520508,15.7388916,10.3647461,34.0437012,10.7106323,51.8580322   c0.7040405,36.2576904-4.9164429,72.6295166-16.5319824,106.9835205"
   id="path126"
   stroke="#000000"
   stroke-linecap="round"
   stroke-linejoin="round"
   stroke-width="2.099000" />
	<path
   fill="none"
   class="st1"
   d="M603.8557129,1006.1116943c-37.1037598,51.6469727-70.6016235,107.9537354-81.8381348,170.5463867"
   id="path128"
   stroke="#000000"
   stroke-linecap="round"
   stroke-linejoin="round"
   stroke-width="2.099000" />
	<path
   fill="none"
   class="st1"
   d="M568.402832,1059.4536133c6.8728638-14.2454834,19.6025391-25.5548096,34.5582275-30.7023926   c4.6062012-1.5853271,9.684082-2.5976563,14.3121338-1.0771484c10.6186523,3.4885254,12.9346313,17.2210693,13.4212036,28.3875732   c1.152771,26.4572754,2.305542,52.9146729,3.458374,79.3720703c0.3964233,9.0982666,0.7928467,18.1975098,0.9696045,27.3027344   c0.8657227,44.600708-3.5421753,89.1346436-9.0140381,133.4069824   c-10.2136841,82.6384277-24.3496704,165.5316162-54.8706665,243.00354"
   id="path130"
   stroke="#000000"
   stroke-linecap="round"
   stroke-linejoin="round"
   stroke-width="2.099000" />
	<path
   fill="none"
   class="st1"
   d="M567.9311523,1068.1085205c4.4189453-7.4699707,8.8378906-14.9398193,13.256897-22.409668   c1.2369995-2.0910645,2.475647-4.1848145,3.8753052-6.1706543c2.553894-3.6237793,5.6225586-6.8581543,8.8530884-9.894043   c5.8345947-5.4832764,13.2886353-10.6560669,21.1849365-9.3306885c6.8312988,1.1466064,12.0705566,7.0827637,14.4029541,13.6052246   c2.3323975,6.5223389,2.2884521,13.6195068,2.2173462,20.5460205c-0.0565796,5.5117188-0.1131592,11.0234375-0.1697998,16.5351563   c-0.0477295,4.6480713-0.0241699,9.5708008,2.3829346,13.5472412"
   id="path132"
   stroke="#000000"
   stroke-linecap="round"
   stroke-linejoin="round"
   stroke-width="2.099000" />
	<path
   fill="none"
   class="st1"
   d="M512.7576904,1208.2587891c-4.3862915,19.5338135-8.0973816,39.2192383-11.1244507,59.0092773"
   id="path134"
   stroke="#000000"
   stroke-linecap="round"
   stroke-linejoin="round"
   stroke-width="2.099000" />
	<path
   fill="none"
   class="st1"
   d="M498.7947693,1358.2543945c-3.43573,44.9818115,8.7900696,89.534668,21.2296448,132.8985596   c4.3598022,15.197998,8.8327637,30.5570068,16.756897,44.2388916s19.7692871,25.7303467,34.7788086,30.7003174"
   id="path136"
   stroke="#000000"
   stroke-linecap="round"
   stroke-linejoin="round"
   stroke-width="2.099000" />
	<path
   fill="none"
   class="st1"
   d="M575.3624878,1566.991333c7.3387451,3.5518799,10.9966431,11.7368164,16.5266724,17.7279053   c5.9589844,6.4558105,14.493103,10.4655762,23.2662964,10.9318848"
   id="path138"
   stroke="#000000"
   stroke-linecap="round"
   stroke-linejoin="round"
   stroke-width="2.099000" />
	<path
   fill="none"
   class="st1"
   d="M520.9928589,1175.3103027c-3.6255493,15.6033936-6.8677368,31.2958984-9.7226563,47.0584717"
   id="path140"
   stroke="#000000"
   stroke-linecap="round"
   stroke-linejoin="round"
   stroke-width="2.099000" />
	<path
   fill="none"
   class="st1"
   d="M502.4267578,1264.3936768c-6.6701355,39.5755615-7.8172607,80.0778809-3.3977966,119.9675293"
   id="path142"
   stroke="#000000"
   stroke-linecap="round"
   stroke-linejoin="round"
   stroke-width="2.099000" />
	<path
   fill="none"
   class="st1"
   d="M517.6976929,1499.4008789c1.7774658,12.6879883,6.3577881,24.8232422,11.722229,36.4580078   c30.4491577,66.0408936,88.2672729,118.9443359,156.7462158,143.4226074"
   id="path144"
   stroke="#000000"
   stroke-linecap="round"
   stroke-linejoin="round"
   stroke-width="2.099000" />
	<path
   fill="none"
   class="st1"
   d="M532.7009277,1507.9677734c1.6578979,23.5070801,11.8891602,45.7983398,25.786499,64.8297119   c13.8973999,19.0314941,31.3791504,35.1291504,49.1885376,50.5615234   c27.8101807,24.0985107,57.7089844,47.4395752,93.0114136,57.826416c5.227417,1.5380859,10.6495972,2.8276367,15.206665,5.8149414   c3.2905884,2.1571045,5.9755249,5.1038818,9.0092163,7.6094971c6.9960327,5.7781982,15.9437256,9.1494141,25.0133057,9.4240723   c-3.6002197-1.2983398-6.3760986-4.6520996-6.9788818-8.4315186c-1.6270752,3.4725342-3.2540894,6.9450684-4.8811035,10.4176025   c-2.3013916-0.5574951-4.6027222-1.1149902-6.9040527-1.6726074"
   id="path146"
   stroke="#000000"
   stroke-linecap="round"
   stroke-linejoin="round"
   stroke-width="2.099000" />
	<path
   fill="none"
   class="st1"
   d="M611.8604736,1649.2583008c-46.2210693-15.2252197-95.2441406-24.9592285-143.5435181-19.0128174   c-4.7069702,0.5794678-9.5545959,1.3642578-13.5449829,3.927124c-9.6547546,6.2009277-10.4647217,20.8762207-4.7151794,30.8063965   c5.7495728,9.9301758,16.0917969,16.1671143,26.1151123,21.7526855   c28.7536316,16.0231934,58.5195007,30.2296143,89.0611267,42.5064697   c21.5239868,8.6520996,43.7824707,16.4213867,66.930603,17.9394531"
   id="path148"
   stroke="#000000"
   stroke-linecap="round"
   stroke-linejoin="round"
   stroke-width="2.099000" />
	<path
   fill="none"
   class="st1"
   d="M876.1529541,1643.3336182c-1.0317383,7.7855225-8.3872681,13.1586914-15.692749,16.0410156   c-7.305481,2.8824463-15.3300781,4.3349609-21.7236328,8.895752c-6.9555054,4.9616699-11.2140503,13.4912109-11,22.0323486"
   id="path150"
   stroke="#000000"
   stroke-linecap="round"
   stroke-linejoin="round"
   stroke-width="2.099000" />
	<path
   fill="none"
   class="st1"
   d="M837.7305298,1670.7636719c-6.5335693,5.0494385-13.0671387,10.098999-19.600708,15.1484375   c-5.4227905,4.190918-11.4884033,10.317749-9.2578125,16.7980957c1.6671143,4.8436279,7.1795654,6.994751,12.05896,8.553833   c7.0892944,2.2651367,14.1785278,4.5303955,21.2677612,6.7955322c-0.0153809,1.7625732-0.0307617,3.5251465-0.0462036,5.2877197"
   id="path152"
   stroke="#000000"
   stroke-linecap="round"
   stroke-linejoin="round"
   stroke-width="2.099000" />
	<path
   fill="none"
   class="st1"
   d="M840.1768188,1720.4187012c0.3452759-0.5410156-0.8848267-0.8621826-1.1130981-0.2623291   c-0.2282104,0.5998535,0.2425537,1.2197266,0.6771851,1.6920166   c10.2901611,11.1818848,19.0043335,23.8120117,25.8052368,37.4013672c1.232666,2.4630127,2.413208,4.987793,2.9638062,7.6865234   c0.9732666,4.7705078-0.1726685,9.9335938-3.0726318,13.8444824"
   id="path154"
   stroke="#000000"
   stroke-linecap="round"
   stroke-linejoin="round"
   stroke-width="2.099000" />
	<path
   fill="none"
   class="st1"
   d="M863.4050903,1763.8233643c1.6309204,8.0653076,3.2618408,16.1304932,4.8927002,24.1958008   c0.37323,1.8455811,0.7387085,3.807373,0.0773926,5.5704346c-0.7460938,1.9891357-2.6317139,3.2893066-4.4514771,4.385498   c-27.1089478,16.3303223-60.9224854,15.2741699-91.355896,23.9561768   c-9.5342407,2.7199707-19.1109619,6.6364746-25.9016113,13.8605957"
   id="path156"
   stroke="#000000"
   stroke-linecap="round"
   stroke-linejoin="round"
   stroke-width="2.099000" />
	<path
   fill="none"
   class="st1"
   d="M783.8571167,1820.4702148c-33.6156006,11.0906982-60.4102783,36.1022949-87.9190063,58.3796387   c-36.036377,29.1832275-75.7319336,54.9992676-120.1286621,68.3864746   c-1.2158813,0.3666992-2.5081177,0.7259521-3.7376709,0.4082031c-6.0716553-1.5692139,0.2199097-12.4046631-4.1005249-16.9500732   c-6.4720459,6.9064941-10.3068848,16.2259521-10.5698853,25.6873779"
   id="path158"
   stroke="#000000"
   stroke-linecap="round"
   stroke-linejoin="round"
   stroke-width="2.099000" />
	<path
   fill="none"
   class="st1"
   d="M742.2752075,1700.9837646c-35.6358643,0.9136963-71.1407471,6.7984619-105.1657715,17.4309082   c-10.0653076,3.1452637-20.0025024,6.7034912-30.1421509,9.6002197   c-15.1102905,4.3167725-30.6002808,7.1448975-45.8777466,10.8265381   c-72.7748108,17.5378418-140.6682129,54.9064941-194.4188232,107.0084229"
   id="path160"
   stroke="#000000"
   stroke-linecap="round"
   stroke-linejoin="round"
   stroke-width="2.099000" />
	<path
   fill="none"
   class="st1"
   d="M398.9963684,1817.3331299c-19.4382629,3.2244873-39.3758545,3.4204102-58.8737183,0.5784912   c-7.4508667-1.0860596-14.9184265-2.6171875-22.4368591-2.2071533   c-18.9206238,1.0321045-36.260437,15.7709961-40.3269958,34.2783203c-0.8473816,3.8565674-1.1643372,7.8974609-0.275177,11.7446289   c0.9867249,4.2692871,3.3876038,8.0546875,5.7481689,11.7463379c6.9260254,10.831543,16.5388489,23.0533447,29.3315125,21.772583"
   id="path162"
   stroke="#000000"
   stroke-linecap="round"
   stroke-linejoin="round"
   stroke-width="2.099000" />
	<path
   fill="none"
   class="st1"
   d="M319.2692261,1905.8502197c5.0805054-1.2200928,10.0122375-3.0584717,14.6517639-5.4616699   c2.4075012,8.8806152,6.1381531,17.5793457,12.2358093,24.4699707   c10.932251,12.3540039,27.7711792,17.2979736,43.6758118,21.677124   c23.4639893,6.4605713,49.4508972,12.7265625,71.2883301,1.9830322"
   id="path164"
   stroke="#000000"
   stroke-linecap="round"
   stroke-linejoin="round"
   stroke-width="2.099000" />
	<path
   fill="none"
   class="st1"
   d="M352.3882751,1937.1278076c8.9434509,13.0895996,26.4304504,16.5229492,42.1087036,18.8712158   c3.8712769,0.5799561,7.7543335,1.1607666,11.667511,1.2615967c10.5385742,0.2716064,20.821228-2.9304199,30.8760071-6.0985107"
   id="path166"
   stroke="#000000"
   stroke-linecap="round"
   stroke-linejoin="round"
   stroke-width="2.099000" />
	<path
   fill="none"
   class="st1"
   d="M438.5076904,1952.4559326c15.1790466,6.6488037,32.2663574,6.9680176,48.8363647,7.1804199   c22.6031494,0.289917,45.2062988,0.5797119,67.8094482,0.8696289"
   id="path168"
   stroke="#000000"
   stroke-linecap="round"
   stroke-linejoin="round"
   stroke-width="2.099000" />
	<path
   fill="none"
   class="st1"
   d="M860.7197876,1795.3861084c1.6991577,8.3096924,6.2044678,16.428833,4.6868896,24.7735596   c-1.6227417,8.9230957-9.8156738,15.2757568-18.3081055,18.4592285   c-19.4876099,7.3051758-41.178833,2.2321777-61.3474731-2.9019775c-9.3255615-2.3739014-18.651123-4.7478027-27.9767456-7.1217041"
   id="path170"
   stroke="#000000"
   stroke-linecap="round"
   stroke-linejoin="round"
   stroke-width="2.099000" />
	<path
   fill="none"
   class="st1"
   d="M766.3076782,1831.6151123c3.7088623-1.1502686,6.3237915-5.1158447,5.9200439-8.9780273   c-0.4037476-3.8620605-3.7822876-7.2011719-7.6488647-7.5595703c-5.1544189,7.34021-4.1986084,17.1265869-5.0509644,26.0552979   c-1.4484253,15.1721191-8.6021729,29.1263428-15.6254272,42.652832c-3.2056885,6.1740723-6.5,12.4683838-11.5245972,17.2796631   c-5.0571289,4.8425293-11.5385742,7.8682861-17.9013672,10.7906494   c-29.1905518,13.4071045-58.7919922,26.5091553-90.1141357,33.6340332   c-30.8030396,7.0067139-62.6030273,8.0819092-94.1755981,9.1287842   c-14.9240723,0.494873-29.8542786,0.9898682-44.7854004,0.8062744   c-35.2926941-0.43396-70.5373535-4.6729736-104.9263611-12.6202393"
   id="path172"
   stroke="#000000"
   stroke-linecap="round"
   stroke-linejoin="round"
   stroke-width="2.099000" />
	<path
   fill="none"
   class="st1"
   d="M827.1469727,1519.3046875c1.9656982-0.057251,3.9420166,0.2774658,5.7792969,0.9787598   c1.5476685-2.9887695-2.3168945-6.9287109-0.484375-9.7518311c0.8688965-1.338623,2.6380005-1.7020264,4.2212524-1.9024658   c18.1500854-2.2977295,37.0256348,1.5772705,52.8023682,10.8400879"
   id="path174"
   stroke="#000000"
   stroke-linecap="round"
   stroke-linejoin="round"
   stroke-width="2.099000" />
	<path
   fill="none"
   class="st1"
   d="M888.937439,1568.0330811c-2.4282837-5.6531982-3.5799561-11.8504639-3.3447876-17.9986572   c0.1287842-3.3665771,0.6657715-6.7026367,1.2017822-10.0286865c1.1978149-7.4329834,2.4304199-14.980835,5.6541748-21.7845459   c2.1013184-4.4349365,4.9967041-8.4382324,7.875061-12.4128418c1.7677612-2.4412842,3.5692749-4.9177246,5.9516602-6.763916   c3.833313-2.970459,8.8967285-4.0400391,13.7357178-3.7196045c13.4723511,0.8920898,24.8967285,12.4515381,27.5904541,25.6818848   c2.6937256,13.2304688-2.4161377,27.3011475-11.4716797,37.31604"
   id="path176"
   stroke="#000000"
   stroke-linecap="round"
   stroke-linejoin="round"
   stroke-width="2.099000" />
	<path
   fill="none"
   class="st1"
   d="M930.5780029,1582.4576416c3.3791504-10.7788086,13.5003052-17.7786865,22.9661255-23.9429932   c3.6540527-2.3796387,7.5170288-4.8322754,11.866394-5.1448975c5.5992432-0.4024658,10.7636108,2.8009033,15.3530273,6.0336914   c2.2435913,1.5804443,4.4987793,3.2364502,6.1160889,5.4536133c3.546936,4.8625488,3.3974609,11.4030762,3.0991821,17.4144287"
   id="path178"
   stroke="#000000"
   stroke-linecap="round"
   stroke-linejoin="round"
   stroke-width="2.099000" />
	<path
   fill="none"
   class="st1"
   d="M880.4216309,1548.4263916c-2.5289917-19.5036621-0.7646484-39.2792969,1.0023193-58.8666992   c1.8198853-20.1734619,4.1486206-41.6535645,16.8999634-57.3913574   c-2.6994019,9.4849854,6.0415039,17.8568115,12.3451538,25.4406738   c13.2453003,15.9351807,17.8487549,37.2052002,20.8171387,57.7127686   c2.5157471,17.3804932,4.1654663,34.873291,5.8141479,52.3575439c0.6819458,7.2315674,1.3638306,14.4632568,2.0457764,21.6949463"
   id="path180"
   stroke="#000000"
   stroke-linecap="round"
   stroke-linejoin="round"
   stroke-width="2.099000" />
	<path
   fill="none"
   class="st1"
   d="M915.7595825,1576.0494385c4.9515381-5.1977539,6.2459106-12.7980957,7.0409546-19.9327393   c4.3861084-39.3605957,0.4812012-79.6256104-11.3864746-117.4099121c3.890564-1.2368164,8.1098633,1.4211426,10.2509155,4.8970947   c2.1409912,3.4759521,2.7984009,7.6273193,3.9100342,11.5554199c2.279541,8.0554199,6.5635376,15.3793945,9.6882324,23.1461182   c7.5309448,18.7189941,8.0629883,40.1611328,1.4697266,59.2307129"
   id="path182"
   stroke="#000000"
   stroke-linecap="round"
   stroke-linejoin="round"
   stroke-width="2.099000" />
	<path
   fill="none"
   class="st1"
   d="M962.5440674,1476.75c-10.8496094,13.2283936-16.5651245,29.8139648-22.0700073,46.0126953   c-4.4087524,12.9731445-8.8174438,25.9462891-13.2261963,38.9194336c-1.6798096,4.9432373-3.397583,9.9621582-6.4003906,14.2330322   c-3.0027466,4.270874-7.5227051,7.7672119-12.7161865,8.3007813"
   id="path184"
   stroke="#000000"
   stroke-linecap="round"
   stroke-linejoin="round"
   stroke-width="2.099000" />
	<path
   fill="none"
   class="st1"
   d="M962.6381836,1477.5106201c4.0701294,23.5804443,8.1402588,47.1608887,12.2103271,70.741333   c1.0470581,6.0661621,2.0977173,12.1784668,1.9544067,18.3326416c-0.1462402,6.27771-1.5309448,12.4498291-2.5206299,18.6507568   c-0.7856445,4.9227295-1.2200317,10.3602295,1.5336304,14.515625c2.7537231,4.1555176,9.9532471,5.3837891,12.4577026,1.0736084"
   id="path186"
   stroke="#000000"
   stroke-linecap="round"
   stroke-linejoin="round"
   stroke-width="2.099000" />
	<path
   fill="none"
   class="st1"
   d="M950.3746948,1621.5321045c11.8622437-9.6700439,22.7474365-20.5377197,32.4364624-32.3843994   c2.628479-3.2138672,5.1810303-6.517334,7.1734619-10.1599121c1.9806519-3.6209717,3.3795166-7.5241699,4.9545288-11.3391113   c3.6972046-8.9555664,8.4025269-17.4946289,13.9984741-25.4039307c2.7406006,19.2861328,2.178833,39.0372314-1.6535645,58.1364746   c-1.1448975,5.7054443-2.5985107,11.40625-5.2133789,16.6048584c-4.4744263,8.895874-12.0946655,15.8199463-20.2058716,21.5961914   c-9.6483154,6.8709717-20.2333984,12.4246826-31.3699951,16.4591064c9.3781738,4.2000732,20.8673096,2.005249,29.1028442-4.1402588   s13.4372559-15.7331543,15.842041-25.7236328"
   id="path188"
   stroke="#000000"
   stroke-linecap="round"
   stroke-linejoin="round"
   stroke-width="2.099000" />
	<path
   fill="none"
   class="st1"
   d="M473.1638489,1396.4470215c38.4762268-50.8712158,78.2314758-102.9265137,132.509552-136.4256592"
   id="path190"
   stroke="#000000"
   stroke-linecap="round"
   stroke-linejoin="round"
   stroke-width="2.099000" />
	<path
   fill="none"
   class="st1"
   d="M510.1080017,1213.3874512c5.6323547,5.7528076,13.5288391,9.2270508,21.57547,9.4924316   c2.6075439,0.0860596,5.7314453,0.1009521,7.1283569,2.3044434"
   id="path192"
   stroke="#000000"
   stroke-linecap="round"
   stroke-linejoin="round"
   stroke-width="2.099000" />
	<path
   fill="none"
   class="st1"
   d="M547.3323975,1218.5777588c-24.625061,19.2294922-44.9239807,43.967041-58.9761353,71.8723145"
   id="path194"
   stroke="#000000"
   stroke-linecap="round"
   stroke-linejoin="round"
   stroke-width="2.099000" />
	<path
   fill="none"
   class="st1"
   d="M628.9797974,1101.3533936c-6.1010742,12.8725586-17.5397949,22.2398682-28.2410278,31.6425781   c-12.458374,10.9465332-24.4058838,22.5548096-34.7189331,35.5424805   c21.2971191-3.3569336,42.7115479,3.284668,64.0418701,6.4237061"
   id="path196"
   stroke="#000000"
   stroke-linecap="round"
   stroke-linejoin="round"
   stroke-width="2.099000" />
	<path
   fill="none"
   class="st1"
   d="M582.1055298,1189.8563232c22.6387329,2.0910645,45.3269653,3.6463623,68.0392456,4.6641846"
   id="path198"
   stroke="#000000"
   stroke-linecap="round"
   stroke-linejoin="round"
   stroke-width="2.099000" />
	<path
   fill="none"
   class="st1"
   d="M570.456604,1291.8187256c19.5056152-12.5828857,39.0112915-25.1658936,58.5169067-37.7487793"
   id="path200"
   stroke="#000000"
   stroke-linecap="round"
   stroke-linejoin="round"
   stroke-width="2.099000" />
	<path
   fill="none"
   class="st1"
   d="M629.3204956,1263.6668701c4.3720703-2.2823486,8.7442017-4.5648193,13.116272-6.84729   c6.7151489,16.0793457,10.3587036,33.4353027,10.6766357,50.857666c0.130188,7.1369629-0.2836914,14.3612061,1.2247925,21.3381348   c1.3687134,6.3302002,4.2672729,12.2053223,6.980957,18.0856934   c19.1578979,41.5142822,30.2697144,86.6431885,52.4985962,126.5974121   c16.4006958,29.4786377,38.4522705,55.394043,61.1928711,80.3106689   c11.189209,12.2598877,22.5985718,24.34729,34.8996582,35.4910889   c15.5369263,14.0751953,32.4685669,26.6101074,50.4662476,37.3614502"
   id="path202"
   stroke="#000000"
   stroke-linecap="round"
   stroke-linejoin="round"
   stroke-width="2.099000" />
	<path
   fill="none"
   class="st1"
   d="M636.3806763,1260.0430908c3.90979,16.0037842,7.8196411,32.0075684,11.7294312,48.0113525   c3.0413208,12.4489746,6.0848389,24.9080811,8.3297729,37.5251465c2.2435303,12.609375,3.7143555,25.4707031,8.1425171,37.4881592   c2.7744141,7.5294189,6.6633301,14.5919189,9.9005737,21.9342041c5.3946533,12.2352295,8.9619751,25.2059326,14.2214966,37.4998779   c16.9399414,39.5966797,50.1449585,69.6578369,73.6317749,105.7583008   c11.2322388,17.2645264,20.2954712,36.0031738,33.192688,52.0621338   c24.6373291,30.6772461,63.1448975,49.7539063,102.4777222,50.7672119"
   id="path204"
   stroke="#000000"
   stroke-linecap="round"
   stroke-linejoin="round"
   stroke-width="2.099000" />
	<path
   fill="none"
   class="st1"
   d="M658.7670898,1355.7525635c6.7786255,7.4448242,9.420166,17.6434326,12.1183472,27.3436279   c14.644165,52.6472168,38.8424072,104.720459,80.7746582,139.7613525"
   id="path206"
   stroke="#000000"
   stroke-linecap="round"
   stroke-linejoin="round"
   stroke-width="2.099000" />
	<path
   fill="none"
   class="st1"
   d="M783.1884155,1428.5284424c5.7698975,0.4249268,10.8553467,3.7941895,15.5570679,7.1655273   c4.7017822,3.3713379,9.5545654,6.9578857,15.256958,7.9350586c5.7024536,0.9771729,12.4970703-1.6396484,14.1359863-7.1882324   c1.4051514-4.7568359-2.0256958-10.3491211-6.9028931-11.2519531"
   id="path208"
   stroke="#000000"
   stroke-linecap="round"
   stroke-linejoin="round"
   stroke-width="2.099000" />
	<path
   fill="none"
   class="st1"
   d="M816.5357666,1441.4215088c1.6149292-7.2490234,3.2297974-14.4981689,4.8447266-21.7471924   c2.9731445-13.3460693,5.9932861-26.8297119,11.9400024-39.1420898   c8.380188-17.350708,22.1005249-31.4456787,35.5847168-45.2098389"
   id="path210"
   stroke="#000000"
   stroke-linecap="round"
   stroke-linejoin="round"
   stroke-width="2.099000" />
	<path
   fill="none"
   class="st1"
   d="M845.1251831,1362.3397217c-1.0645752,4.2092285-2.1292114,8.418457-3.1937866,12.6278076   c25.5406494-22.0777588,56.7719116-37.5159912,89.8226318-44.401123   c-13.8023682,7.852417-27.2161255,16.3878174-40.1757202,25.5645752   c28.9846802-19.1376953,63.4647827-26.9901123,100.713501-17.194458   c-13.6864014,7.4500732-27.0587769,15.4771729-40.0697632,24.0526123   c14.3269043,14.1292725,38.2938843,10.4683838,56.442627,19.1583252   c5.7779541,2.7666016,10.8695679,6.7550049,15.8916016,10.7321777   c18.5198975,14.666748,36.8060303,29.6287842,54.848877,44.8786621   c-10.7862549,2.9671631-22.2302246,3.5168457-33.2512207,1.597168"
   id="path212"
   stroke="#000000"
   stroke-linecap="round"
   stroke-linejoin="round"
   stroke-width="2.099000" />
	<path
   fill="none"
   class="st1"
   d="M1043.8183594,1440.4112549c0.0028076,0.8566895-1.6322021,0.1231689-1.201416-0.6171875   s1.5987549-0.5531006,2.2463379,0.0076904c12.064209,10.4494629,21.1016846,23.8757324,29.9907227,37.1318359   c3.4047852,5.0775146,6.8791504,10.3148193,8.1682129,16.2907715c-8.7625732,0.0904541-17.5251465,0.1810303-26.2878418,0.2716064   c4.3105469,6.3498535,8.7780762,13.1640625,9.0003662,20.8355713c0.222168,7.6715088-5.8095703,16.0310059-13.4439697,15.2458496   c0.1184082,5.93396-0.357666,11.8797607-1.4188232,17.7193604"
   id="path214"
   stroke="#000000"
   stroke-linecap="round"
   stroke-linejoin="round"
   stroke-width="2.099000" />
	<path
   fill="none"
   class="st1"
   d="M1006.5578613,1566.4038086c4.3201294,2.8166504,9.3161011,4.8344727,14.4732666,4.8128662   c10.2480469-0.0427246,18.6225586-7.7834473,25.8695068-15.029541"
   id="path216"
   stroke="#000000"
   stroke-linecap="round"
   stroke-linejoin="round"
   stroke-width="2.099000" />
	<path
   fill="none"
   class="st1"
   d="M1065.3242188,1515.9213867c12.8392334-7.4160156,14.8773193-26.5397949,7.3106689-39.2907715   c-7.5666504-12.7510986-21.8815918-19.9759521-36.1431885-24.0319824   c10.1295166-4.4104004,15.1209717-17.8811035,10.3111572-27.8270264   c-4.1225586-8.5250244-13.4925537-13.1453857-22.5716553-15.8361816s-18.7251587-4.1693115-26.786438-9.1378174   c8.3789063-0.7315674,12.6265869-11.6872559,9.5848999-19.5286865   c-3.041748-7.8415527-10.6647949-12.8458252-18.1140137-16.7509766   c-15.9753418-8.3747559-34.1644897-14.2336426-51.9487305-11.222168c5.7728271-2.0428467,7.1713257-10.413208,3.7034302-15.4602051   s-10.0048218-7.0943604-16.1252441-7.2904053c-12.3254395-0.3947754-24.2137451,5.3569336-33.5961914,13.3594971   c-9.3825073,8.0025635-16.6330566,18.1600342-23.7835083,28.2070313   c8.7484131-2.8363037,14.7047119-12.4995117,13.3076172-21.5894775   c-12.1069946-2.2279053-25.2509155,2.5252686-33.1326294,11.9815674"
   id="path218"
   stroke="#000000"
   stroke-linecap="round"
   stroke-linejoin="round"
   stroke-width="2.099000" />
	<path
   fill="none"
   class="st1"
   d="M631.4318237,1046.7010498c-38.8275146,43.2923584-76.8427124,87.3132324-114.0187378,132.0317383"
   id="path220"
   stroke="#000000"
   stroke-linecap="round"
   stroke-linejoin="round"
   stroke-width="2.099000" />
	<path
   fill="none"
   class="st1"
   d="M756.750061,1371.6420898c4.211731,5.182251,9.802002,9.0214844,14.9385986,13.2889404   c17.6049194,14.6257324,30.3139038,35.0455322,35.6625977,57.2994385"
   id="path222"
   stroke="#000000"
   stroke-linecap="round"
   stroke-linejoin="round"
   stroke-width="2.099000" />
	<path
   fill="none"
   class="st1"
   d="M879.6584473,1650.0075684c11.3978271,7.2307129,26.1793823,8.8474121,38.8707886,4.2515869   c3.8259888-1.385498,7.6494141-3.3312988,11.7099609-3.0679932"
   id="path224"
   stroke="#000000"
   stroke-linecap="round"
   stroke-linejoin="round"
   stroke-width="2.099000" />
	<path
   fill="none"
   class="st1"
   d="M560.7146606,1175.513916c5.3509521,1.1008301,10.7019653,2.2015381,16.0529785,3.3023682   c4.4193115,0.9091797,8.8518066,1.8203125,13.3486938,2.1878662c4.7061768,0.3846436,9.4383545,0.1702881,14.1552734-0.0441895   c8.4013672-0.381958,16.8027954-0.7640381,25.2041626-1.1459961"
   id="path226"
   stroke="#000000"
   stroke-linecap="round"
   stroke-linejoin="round"
   stroke-width="2.099000" />
	<path
   fill="none"
   class="st1"
   d="M616.7648315,1172.6578369c1.6066895,19.4880371-5.828186,38.4475098-8.9907837,57.7441406   c-2.8190308,17.2004395-2.2350464,34.7462158-2.6410522,52.1713867   c-0.6102905,26.1905518-3.4729614,52.2763672-6.8101196,78.2606201   c-5.8848877,45.8223877-13.2542725,91.4541016-22.0927124,136.7994385   c-1.7904663,9.185791-3.7127686,18.5528564-8.4403076,26.6297607   c-4.7275391,8.0767822-12.8407593,14.7701416-22.1846313,15.2969971"
   id="path228"
   stroke="#000000"
   stroke-linecap="round"
   stroke-linejoin="round"
   stroke-width="2.099000" />
	<path
   fill="none"
   class="st1"
   d="M535.9017334,1529.0999756c1.7022705,2.6433105,3.4163208,5.302124,5.5543213,7.6071777   c2.3012085,2.4810791,5.0457764,4.5013428,7.7722778,6.5056152c6.7587891,4.9685059,13.5175781,9.9368896,20.2763672,14.9053955   c8.0765381,5.9371338,16.3397217,11.9713135,25.887207,15.0251465"
   id="path230"
   stroke="#000000"
   stroke-linecap="round"
   stroke-linejoin="round"
   stroke-width="2.099000" />
	<path
   fill="none"
   class="st1"
   d="M512.0388794,1210.1774902c8.3014526,5.7733154,18.8183594,8.2706299,28.8291016,6.8457031"
   id="path232"
   stroke="#000000"
   stroke-linecap="round"
   stroke-linejoin="round"
   stroke-width="2.099000" />
	<path
   fill="none"
   class="st1"
   d="M843.3931885,1473.3393555c-0.8381958,0.6807861-0.4188843,2.0175781,0.0674438,2.9815674   c1.8723145,3.7114258,3.7446289,7.4227295,5.6169434,11.1341553c1.4008179,2.7766113,2.8189087,5.6043701,3.3533936,8.6682129   c0.631958,3.6225586-0.048584,7.4598389-1.8878174,10.6442871"
   id="path234"
   stroke="#000000"
   stroke-linecap="round"
   stroke-linejoin="round"
   stroke-width="2.099000" />
	<path
   fill="none"
   class="st1"
   d="M846.5217285,1482.4403076c-0.7563477,0.4693604-0.0514526,1.6143799,0.6548462,2.1561279   c2.2576294,1.7316895,4.5152588,3.4632568,6.7728882,5.1949463c3.8610229,2.9615479,8.4609985,6.0958252,13.1901245,4.949707"
   id="path236"
   stroke="#000000"
   stroke-linecap="round"
   stroke-linejoin="round"
   stroke-width="2.099000" />
	<path
   fill="none"
   class="st1"
   d="M808.0880737,1655.0456543c9.1698608,18.7410889,15.7114868,38.7658691,19.3740234,59.3060303"
   id="path238"
   stroke="#000000"
   stroke-linecap="round"
   stroke-linejoin="round"
   stroke-width="2.099000" />
	<path
   fill="none"
   class="st1"
   d="M551.2319336,753.024231c-4.6668701,2.3411865-7.6133423,6.9989624-10.9637451,11.0033569   c-3.5787964,4.2774048-7.8023682,7.9592285-11.9041138,11.7379761c-6.166748,5.6811523-12.0957642,11.6203613-17.7662354,17.796875   c-1.4145203,1.5407715-2.8761597,3.225647-3.1792908,5.295105"
   id="path240"
   stroke="#000000"
   stroke-linecap="round"
   stroke-linejoin="round"
   stroke-width="2.099000" />
	<path
   fill="none"
   class="st1"
   d="M552.1971436,742.4022827c-5.737854,7.7553711-12.6727295,14.578125-20.1878662,20.6271973   c-2.1342163,1.7178955-4.3299561,3.3877563-6.1578369,5.4285889c-1.5557861,1.7370605-2.8175049,3.7126465-4.0718994,5.6784058   c-3.8947754,6.1036987-7.7896118,12.2074585-11.6843872,18.3111572"
   id="path242"
   stroke="#000000"
   stroke-linecap="round"
   stroke-linejoin="round"
   stroke-width="2.099000" />
	<path
   fill="none"
   class="st1"
   d="M575.2553101,761.8893433c-2.8321533,7.5722656-3.8276978,15.8241577-2.8776855,23.8527222   c0.2901611,2.4521484,0.7579346,4.8793335,1.2252808,7.3039551c0.5192871,2.6937866,1.0385132,5.3875732,1.5578003,8.0813599   c0.5544434,2.8764038,1.1118774,5.7640381,2.0661621,8.5335693c0.7150879,2.0751953,1.6478882,4.0685425,2.6325684,6.0302734   c6.9933472,13.9326782,16.7294922,26.4820557,28.4871216,36.7185059"
   id="path244"
   stroke="#000000"
   stroke-linecap="round"
   stroke-linejoin="round"
   stroke-width="2.099000" />
	<path
   fill="none"
   class="st1"
   d="M585.3837891,802.3526001c1.1958618,4.2772217,2.4720459,8.5319824,3.8276978,12.7612915   c0.8399658,2.6204224,1.7247314,5.2617798,3.2047729,7.581543c1.9790039,3.1017456,4.9144287,5.4619751,7.9111328,7.5967407   c5.5291748,3.9387817,11.4584961,7.3155518,17.6670532,10.0614014"
   id="path246"
   stroke="#000000"
   stroke-linecap="round"
   stroke-linejoin="round"
   stroke-width="2.099000" />
	<path
   fill="none"
   class="st1"
   d="M1077.8704834,730.0327759c7.0567627,17.0530396,25.3234863,26.5001221,36.1890869,41.4180298   c5.2312012,7.1821899,8.6397705,15.4968872,12.083252,23.6877441   c17.0762939,40.6182251,36.2164307,80.3686523,57.3217773,119.046814"
   id="path248"
   stroke="#000000"
   stroke-linecap="round"
   stroke-linejoin="round"
   stroke-width="2.099000" />
	<path
   fill="none"
   class="st1"
   d="M1125.6501465,788.6962891c15.2398682,12.104248,29.0350342,26.0258179,40.9996338,41.3755493   c9.3310547,11.9711304,17.5422363,24.7946167,24.8553467,38.0948486"
   id="path250"
   stroke="#000000"
   stroke-linecap="round"
   stroke-linejoin="round"
   stroke-width="2.099000" />
	<path
   fill="none"
   class="st1"
   d="M1132.0356445,799.43927c19.9730225,21.0861816,32.260376,48.1243896,43.8693848,74.7472534   c23.77771,54.5287476,46.2327881,109.6341553,67.3388672,165.2514648   c7.7731934,20.4830322,15.4196777,41.2593994,18.1729736,62.9941406"
   id="path252"
   stroke="#000000"
   stroke-linecap="round"
   stroke-linejoin="round"
   stroke-width="2.099000" />
</g>
<g
   fill="none"
   stroke-linejoin="round"
   stroke-linecap="round"
   stroke-width="2.099000"
   stroke="#000000"
   id="Shadows">
	<path
   fill="none"
   class="st1"
   d="M762.1714478,866.3948975c21.6432495,13.1647949,49.6792603,5.0892334,72.6398315-5.6137695   c43.9505005-20.4875488,85.6262817-51.7254639,104.5283813-96.3807373"
   id="path255"
   stroke="#000000"
   stroke-linecap="round"
   stroke-linejoin="round"
   stroke-width="2.099000" />
	<path
   fill="none"
   class="st1"
   d="M805.9765015,864.2044678c-14.293396,17.6020508-27.4216309,36.1500244-39.2703247,55.4822998"
   id="path257"
   stroke="#000000"
   stroke-linecap="round"
   stroke-linejoin="round"
   stroke-width="2.099000" />
	<path
   fill="none"
   class="st1"
   d="M825.6242065,852.6652222c-9.0575562,14.050415-18.1150513,28.100769-27.1725464,42.1511841   c-2.5011597,3.8798218-5.0664673,7.9298096-5.6540527,12.5084229"
   id="path259"
   stroke="#000000"
   stroke-linecap="round"
   stroke-linejoin="round"
   stroke-width="2.099000" />
	<path
   fill="none"
   class="st1"
   d="M851.1277466,831.3327026c-14.2575684,23.9832764-27.6347656,48.4898071-40.0957031,73.4537964"
   id="path261"
   stroke="#000000"
   stroke-linecap="round"
   stroke-linejoin="round"
   stroke-width="2.099000" />
	<path
   fill="none"
   class="st1"
   d="M872.5992432,822.5065918c-10.6746216,29.9665527-25.4711914,54.0274658-41.5193481,81.4938354"
   id="path263"
   stroke="#000000"
   stroke-linecap="round"
   stroke-linejoin="round"
   stroke-width="2.099000" />
	<path
   fill="none"
   class="st1"
   d="M896.4147949,816.9813232c-15.3259888,30.8828125-29.4926758,62.3408813-42.4602051,94.2857666"
   id="path265"
   stroke="#000000"
   stroke-linecap="round"
   stroke-linejoin="round"
   stroke-width="2.099000" />
	<path
   fill="none"
   class="st1"
   d="M918.8301392,790.4285278c-0.1166992,5.5435181-0.9165649,11.0723877-2.3759155,16.4216919   c-1.7045288,6.2480469-4.2924194,12.2138672-6.87146,18.1546631   c-10.1775513,23.4437256-20.3551025,46.8874512-30.5326538,70.3311768"
   id="path267"
   stroke="#000000"
   stroke-linecap="round"
   stroke-linejoin="round"
   stroke-width="2.099000" />
	<path
   fill="none"
   class="st1"
   d="M933.9189453,774.2806396c-12.2568359,42.8521118-27.5514526,84.8349609-45.7310791,125.5293579"
   id="path269"
   stroke="#000000"
   stroke-linecap="round"
   stroke-linejoin="round"
   stroke-width="2.099000" />
	<path
   fill="none"
   class="st1"
   d="M942.6022339,781.0674438c-0.7617798,7.4977417-2.1744385,14.9292603-4.2169189,22.1835938   c-1.5321655,5.4417725-3.4157715,10.7772217-5.2979736,16.1080933   c-6.3833008,18.0793457-12.7666016,36.1586304-19.1498413,54.2379761"
   id="path271"
   stroke="#000000"
   stroke-linecap="round"
   stroke-linejoin="round"
   stroke-width="2.099000" />
	<path
   fill="none"
   class="st1"
   d="M1015.0596924,765.3959351c8.8904419,11.1123047,17.3747559,22.5495605,25.4302979,34.28125   c33.7236328,49.1137695,59.7097168,103.0336304,85.5568848,156.7119141"
   id="path273"
   stroke="#000000"
   stroke-linecap="round"
   stroke-linejoin="round"
   stroke-width="2.099000" />
	<path
   fill="none"
   class="st1"
   d="M996.2890625,646.369873c-2.5529785,15.5335693-4.2443848,31.2086792-5.0638428,46.9292603"
   id="path275"
   stroke="#000000"
   stroke-linecap="round"
   stroke-linejoin="round"
   stroke-width="2.099000" />
	<path
   fill="none"
   class="st1"
   d="M1009.6453247,660.277832c-2.4302979,17.6990967-4.8606567,35.3981934-7.2910156,53.0973511"
   id="path277"
   stroke="#000000"
   stroke-linecap="round"
   stroke-linejoin="round"
   stroke-width="2.099000" />
	<path
   fill="none"
   class="st1"
   d="M1023.293457,676.2090454c-3.975647,24.6705322-7.951355,49.3411255-11.927063,74.0117188"
   id="path279"
   stroke="#000000"
   stroke-linecap="round"
   stroke-linejoin="round"
   stroke-width="2.099000" />
	<path
   fill="none"
   class="st1"
   d="M1037.9749756,686.4084473c-2.1043701,28.3803711-5.3662109,56.6749268-9.7750244,84.7896118"
   id="path281"
   stroke="#000000"
   stroke-linecap="round"
   stroke-linejoin="round"
   stroke-width="2.099000" />
	<path
   fill="none"
   class="st1"
   d="M1051.0784912,715.335022c-0.9025879,15.196167-2.75,30.3185425-4.5961914,45.4291382   c-1.7299805,14.159668-3.460083,28.319397-5.1901855,42.4790649"
   id="path283"
   stroke="#000000"
   stroke-linecap="round"
   stroke-linejoin="round"
   stroke-width="2.099000" />
	<path
   fill="none"
   class="st1"
   d="M1066.5686035,726.4039307c-4.31604,31.8092041-7.0041504,63.8392334-8.050415,95.9228516"
   id="path285"
   stroke="#000000"
   stroke-linecap="round"
   stroke-linejoin="round"
   stroke-width="2.099000" />
	<path
   fill="none"
   class="st1"
   d="M1089.8948975,745.3063354c-4.5981445,28.7943115-9.8353271,57.4865723-15.7061768,86.048584"
   id="path287"
   stroke="#000000"
   stroke-linecap="round"
   stroke-linejoin="round"
   stroke-width="2.099000" />
	<path
   fill="none"
   class="st1"
   d="M1101.4747314,760.4047241c-5.9473877,33.4658203-10.6743164,67.1484985-14.1682129,100.9586182"
   id="path289"
   stroke="#000000"
   stroke-linecap="round"
   stroke-linejoin="round"
   stroke-width="2.099000" />
	<path
   fill="none"
   class="st1"
   d="M1114.4884033,779.3919067c-5.1612549,38.9786987-10.3225098,77.9573364-15.4837646,116.9359741"
   id="path291"
   stroke="#000000"
   stroke-linecap="round"
   stroke-linejoin="round"
   stroke-width="2.099000" />
	<path
   fill="none"
   class="st1"
   d="M1130.4359131,809.3702393c-2.8227539,35.131897-8.9121094,70.0006104-18.1638184,104.0097656"
   id="path293"
   stroke="#000000"
   stroke-linecap="round"
   stroke-linejoin="round"
   stroke-width="2.099000" />
	<path
   fill="none"
   class="st1"
   d="M1141.2902832,826.3619385c-3.5704346,33.9847412-9.1403809,67.7592773-16.6715088,101.0908813"
   id="path295"
   stroke="#000000"
   stroke-linecap="round"
   stroke-linejoin="round"
   stroke-width="2.099000" />
	<path
   fill="none"
   class="st1"
   d="M593.9116211,700.9685669c-15.2930298,21.1087036-18.6586304,48.8930054-15.586792,74.7776489   c0.7689209,6.4796753,1.9256592,12.9812622,4.4703369,18.9897461   c7.2200317,17.0477905,24.2019653,27.5200195,40.1757813,36.8792114"
   id="path297"
   stroke="#000000"
   stroke-linecap="round"
   stroke-linejoin="round"
   stroke-width="2.099000" />
	<path
   fill="none"
   class="st1"
   d="M578.6210938,759.4365845c-1.392395,21.3950806-2.3867188,44.442749,9.1445313,62.5181274   c6.1328125,9.6132813,15.3300781,16.9223022,21.788269,26.3201294c4.7747803,6.9480591,8.147583,15.1345215,14.7344971,20.3962402   c3.3453979,2.6723022,7.338623,4.4196777,11.4084473,5.7497559c21.3963623,6.9925537,46.2073364,2.3929443,63.675354-11.8045044"
   id="path299"
   stroke="#000000"
   stroke-linecap="round"
   stroke-linejoin="round"
   stroke-width="2.099000" />
	<path
   fill="none"
   class="st1"
   d="M590.1872559,714.1049194c-4.2112427,14.3756714-7.0827026,29.1435547-8.5651245,44.0498657   c-0.7492065,7.5340576-1.1299438,15.2571411,0.826355,22.571228c1.3129883,4.9089355,3.6397705,9.4796753,6.0438232,13.9564819   c10.8053589,20.1217651,24.1536865,39.8466187,43.6455688,51.7506714   c19.4919434,11.9040527,46.3821411,14.1164551,64.3885498,0.0662231"
   id="path301"
   stroke="#000000"
   stroke-linecap="round"
   stroke-linejoin="round"
   stroke-width="2.099000" />
	<path
   fill="none"
   class="st1"
   d="M593.4544678,708.5805664c-11.9041748,16.0154419-10.6132202,38.3586426-4.9147949,57.4827271   c7.3251953,24.5836792,21.6582642,47.7981567,43.1652832,61.7791748   c21.506958,13.980957,50.6792603,17.3209229,73.0580444,4.7827759"
   id="path303"
   stroke="#000000"
   stroke-linecap="round"
   stroke-linejoin="round"
   stroke-width="2.099000" />
	<path
   fill="none"
   class="st1"
   d="M645.0830078,963.2683105c-13.9370117,12.2422485-28.4255371,23.8566895-43.4067993,34.7962646"
   id="path305"
   stroke="#000000"
   stroke-linecap="round"
   stroke-linejoin="round"
   stroke-width="2.099000" />
	<path
   fill="none"
   class="st1"
   d="M661.9002686,961.0259399c-19.7520142,15.496582-39.119751,31.4828491-58.0795288,47.93927"
   id="path307"
   stroke="#000000"
   stroke-linecap="round"
   stroke-linejoin="round"
   stroke-width="2.099000" />
	<path
   fill="none"
   class="st1"
   d="M665.8419189,971.9554443c-20.1165771,15.9402466-40.2330933,31.8804932-60.3496704,47.8207397"
   id="path309"
   stroke="#000000"
   stroke-linecap="round"
   stroke-linejoin="round"
   stroke-width="2.099000" />
	<path
   fill="none"
   class="st1"
   d="M742.5847168,916.75c-24.1793823,25.9588623-50.8217163,49.6225586-79.4525146,70.5696411"
   id="path311"
   stroke="#000000"
   stroke-linecap="round"
   stroke-linejoin="round"
   stroke-width="2.099000" />
	<path
   fill="none"
   class="st1"
   d="M676.6104126,976.7791138c-22.0531006,21.0349121-44.8754272,41.2633057-68.4060669,60.6312866"
   id="path313"
   stroke="#000000"
   stroke-linecap="round"
   stroke-linejoin="round"
   stroke-width="2.099000" />
	<path
   fill="none"
   class="st1"
   d="M676.3955078,990.6160889c-22.2158813,20.0946655-44.4317627,40.1893311-66.647583,60.2840576"
   id="path315"
   stroke="#000000"
   stroke-linecap="round"
   stroke-linejoin="round"
   stroke-width="2.099000" />
	<path
   fill="none"
   class="st1"
   d="M684.3353882,1004.9661255c-18.6170654,22.6928101-46.1754761,36.3490601-66.166687,57.8410034"
   id="path317"
   stroke="#000000"
   stroke-linecap="round"
   stroke-linejoin="round"
   stroke-width="2.099000" />
	<path
   fill="none"
   class="st1"
   d="M688.791748,1020.9790039c-19.1151123,19.3470459-39.8326416,37.1103516-61.8707275,53.0483398"
   id="path319"
   stroke="#000000"
   stroke-linecap="round"
   stroke-linejoin="round"
   stroke-width="2.099000" />
	<path
   fill="none"
   class="st1"
   d="M686.7539063,1044.9263916c-16.4547729,15.5783691-33.5073853,30.5251465-51.1077881,44.7965088"
   id="path321"
   stroke="#000000"
   stroke-linecap="round"
   stroke-linejoin="round"
   stroke-width="2.099000" />
	<path
   fill="none"
   class="st1"
   d="M686.0514526,1056.2304688c-15.7561035,13.6126709-31.8612061,26.8215332-48.2941284,39.6091309"
   id="path323"
   stroke="#000000"
   stroke-linecap="round"
   stroke-linejoin="round"
   stroke-width="2.099000" />
	<path
   fill="none"
   class="st1"
   d="M679.9573364,1071.1531982c-10.0375977,10.085083-20.996521,19.2529297-32.6957397,27.3518066"
   id="path325"
   stroke="#000000"
   stroke-linecap="round"
   stroke-linejoin="round"
   stroke-width="2.099000" />
	<path
   fill="none"
   class="st1"
   d="M686.706665,1076.5437012c-18.5415649,13.5067139-37.171875,27.0889893-53.3338623,43.3681641"
   id="path327"
   stroke="#000000"
   stroke-linecap="round"
   stroke-linejoin="round"
   stroke-width="2.099000" />
	<path
   fill="none"
   class="st1"
   d="M686.6125488,1088.8007813c-15.7358398,15.9682617-32.2915649,31.12854-49.5802002,45.401123"
   id="path329"
   stroke="#000000"
   stroke-linecap="round"
   stroke-linejoin="round"
   stroke-width="2.099000" />
	<path
   fill="none"
   class="st1"
   d="M691.0289307,1103.2126465c-17.553833,16.0961914-34.7336426,32.6002197-51.5209961,49.4942627"
   id="path331"
   stroke="#000000"
   stroke-linecap="round"
   stroke-linejoin="round"
   stroke-width="2.099000" />
	<path
   fill="none"
   class="st1"
   d="M695.0089722,1120.2067871c-18.3149414,18.7016602-37.260437,36.7857666-56.793396,54.2113037"
   id="path333"
   stroke="#000000"
   stroke-linecap="round"
   stroke-linejoin="round"
   stroke-width="2.099000" />
	<path
   fill="none"
   class="st1"
   d="M700.4299316,1167.6623535c-22.6060181,20.6948242-45.2120361,41.3896484-67.8180542,62.0844727   c-9.4123535,8.6165771-18.9075317,17.3267822-26.1976929,27.8001709"
   id="path335"
   stroke="#000000"
   stroke-linecap="round"
   stroke-linejoin="round"
   stroke-width="2.099000" />
	<path
   fill="none"
   class="st1"
   d="M702.8256836,1171.0765381c-16.6783447,21.838501-36.6386108,40.9178467-56.5092163,59.8979492   c-8.6144409,8.2283936-17.2288208,16.4567871-25.8432617,24.6851807"
   id="path337"
   stroke="#000000"
   stroke-linecap="round"
   stroke-linejoin="round"
   stroke-width="2.099000" />
	<path
   fill="none"
   class="st1"
   d="M705.7318726,1185.9084473c-26.3910522,25.2875977-52.7821045,50.5751953-79.1732178,75.862915"
   id="path339"
   stroke="#000000"
   stroke-linecap="round"
   stroke-linejoin="round"
   stroke-width="2.099000" />
	<path
   fill="none"
   class="st1"
   d="M706.8441162,1205.0693359c-28.7710571,31.9058838-57.5421143,63.8117676-86.3131714,95.7176514"
   id="path341"
   stroke="#000000"
   stroke-linecap="round"
   stroke-linejoin="round"
   stroke-width="2.099000" />
	<path
   fill="none"
   class="st1"
   d="M711.3718262,1225.5393066c-20.8720093,24.4916992-42.9303589,47.97229-66.0719604,70.3319092   c-9.2810669,8.9675293-18.8225708,17.855957-25.9896851,28.588501"
   id="path343"
   stroke="#000000"
   stroke-linecap="round"
   stroke-linejoin="round"
   stroke-width="2.099000" />
	<path
   fill="none"
   class="st1"
   d="M712.7219849,1236.9919434c-32.8518066,39.7890625-65.7036133,79.5780029-98.5554199,119.3670654"
   id="path345"
   stroke="#000000"
   stroke-linecap="round"
   stroke-linejoin="round"
   stroke-width="2.099000" />
	<path
   fill="none"
   class="st1"
   d="M721.0194092,1265.2186279c-39.3060303,40.6030273-76.418396,83.3294678-111.1212769,127.9309082"
   id="path347"
   stroke="#000000"
   stroke-linecap="round"
   stroke-linejoin="round"
   stroke-width="2.099000" />
	<path
   fill="none"
   class="st1"
   d="M713.3449707,1290.5152588c-36.4194946,41.7510986-72.0235596,84.2133789-106.7852173,127.3546143"
   id="path349"
   stroke="#000000"
   stroke-linecap="round"
   stroke-linejoin="round"
   stroke-width="2.099000" />
	<path
   fill="none"
   class="st1"
   d="M727.3828125,1301.4154053c-42.3154907,48.7456055-82.9232178,98.9736328-121.7238159,150.560791"
   id="path351"
   stroke="#000000"
   stroke-linecap="round"
   stroke-linejoin="round"
   stroke-width="2.099000" />
	<path
   fill="none"
   class="st1"
   d="M727.2271729,1343.2064209c-45.5049438,56.9296875-91.0098877,113.8594971-136.5148315,170.7891846"
   id="path353"
   stroke="#000000"
   stroke-linecap="round"
   stroke-linejoin="round"
   stroke-width="2.099000" />
	<path
   fill="none"
   class="st1"
   d="M738.9279785,1344.8275146c-7.1331177,10.6690674-14.6595459,21.0751953-22.5588989,31.1900635   c-9.0594482,11.6002197-18.604248,22.8115234-28.1456909,34.0187988   c-29.3517456,34.4758301-58.7034302,68.9517822-88.0551758,103.4277344"
   id="path355"
   stroke="#000000"
   stroke-linecap="round"
   stroke-linejoin="round"
   stroke-width="2.099000" />
	<path
   fill="none"
   class="st1"
   d="M752.3085327,1357.3398438c-31.6707153,36.3903809-63.3464966,72.7866211-93.9727783,110.0603027   c-25.4187622,30.9359131-50.109314,62.4700928-74.0443115,94.567749"
   id="path357"
   stroke="#000000"
   stroke-linecap="round"
   stroke-linejoin="round"
   stroke-width="2.099000" />
	<path
   fill="none"
   class="st1"
   d="M760.894104,1388.9506836c-48.2528076,59.322998-94.1030884,120.6002197-137.4008179,183.6308594"
   id="path359"
   stroke="#000000"
   stroke-linecap="round"
   stroke-linejoin="round"
   stroke-width="2.099000" />
	<path
   fill="none"
   class="st1"
   d="M772.9443359,1407.9857178c-41.0477905,46.4526367-78.4709473,96.1074219-111.8173828,148.3642578   c-8.3786011,13.1300049-16.6362915,26.753418-19.9381714,41.9748535"
   id="path361"
   stroke="#000000"
   stroke-linecap="round"
   stroke-linejoin="round"
   stroke-width="2.099000" />
	<path
   fill="none"
   class="st1"
   d="M786.9020996,1431.7114258c-20.4210205,25.6898193-40.842041,51.3797607-61.2630615,77.0695801   c-25.4701538,32.0418701-51.1802368,64.4665527-68.4853516,101.5603027"
   id="path363"
   stroke="#000000"
   stroke-linecap="round"
   stroke-linejoin="round"
   stroke-width="2.099000" />
	<path
   fill="none"
   class="st1"
   d="M801.2692261,1446.862793c-46.9751587,63.84729-102.1327515,122.1903076-140.3427124,191.6391602"
   id="path365"
   stroke="#000000"
   stroke-linecap="round"
   stroke-linejoin="round"
   stroke-width="2.099000" />
	<path
   fill="none"
   class="st1"
   d="M811.9715576,1466.9685059c-14.3065796,18.2459717-28.6132202,36.4920654-42.9197998,54.7380371   c-30.9938965,39.5281982-62.3001709,79.567627-82.80896,125.4205322"
   id="path367"
   stroke="#000000"
   stroke-linecap="round"
   stroke-linejoin="round"
   stroke-width="2.099000" />
	<path
   fill="none"
   class="st1"
   d="M814.4276733,1477.3376465c-47.3531494,60.9835205-91.5755005,124.3980713-132.4346313,189.9102783"
   id="path369"
   stroke="#000000"
   stroke-linecap="round"
   stroke-linejoin="round"
   stroke-width="2.099000" />
	<path
   fill="none"
   class="st1"
   d="M821.9202271,1513.1588135c-41.5772095,51.1873779-77.1240234,107.2687988-105.6712036,166.71521"
   id="path371"
   stroke="#000000"
   stroke-linecap="round"
   stroke-linejoin="round"
   stroke-width="2.099000" />
	<path
   fill="none"
   class="st1"
   d="M830.3338623,1531.2711182c-38.9694824,49.8391113-74.8239136,102.1135254-107.2846069,156.4168701"
   id="path373"
   stroke="#000000"
   stroke-linecap="round"
   stroke-linejoin="round"
   stroke-width="2.099000" />
	<path
   fill="none"
   class="st1"
   d="M843.2894287,1565.1154785c-36.2373047,38.0667725-63.6594238,83.9794922-83.635437,132.5921631"
   id="path375"
   stroke="#000000"
   stroke-linecap="round"
   stroke-linejoin="round"
   stroke-width="2.099000" />
	<path
   fill="none"
   class="st1"
   d="M850.0232544,1585.9042969c-24.1170044,37.7120361-48.2339478,75.4240723-72.3509521,113.1359863"
   id="path377"
   stroke="#000000"
   stroke-linecap="round"
   stroke-linejoin="round"
   stroke-width="2.099000" />
	<path
   fill="none"
   class="st1"
   d="M854.6843262,1596.1868896c-8.3115234,29.3977051-32.3348389,51.4146729-46.9337769,78.2508545   c-3.5526733,6.5306396-6.5372314,14.6075439-2.99646,21.1446533"
   id="path379"
   stroke="#000000"
   stroke-linecap="round"
   stroke-linejoin="round"
   stroke-width="2.099000" />
	<path
   fill="none"
   class="st1"
   d="M848.7168579,1628.604126c-8.2741699,18.1950684-17.0675049,36.1540527-26.3656616,53.8477783"
   id="path381"
   stroke="#000000"
   stroke-linecap="round"
   stroke-linejoin="round"
   stroke-width="2.099000" />
	<path
   fill="none"
   class="st1"
   d="M861.0738525,1641.3011475c-4.9328613,8.3728027-9.8657227,16.7457275-14.798584,25.1186523"
   id="path383"
   stroke="#000000"
   stroke-linecap="round"
   stroke-linejoin="round"
   stroke-width="2.099000" />
	<path
   fill="none"
   class="st1"
   d="M543.1764526,1634.2313232c-13.3659058-0.2813721-26.7318726-0.5627441-40.0977783-0.8441162   c-11.4989929-0.2419434-24.3569336,0.0279541-32.5330811,8.1173096   c-4.7106323,4.6605225-7.0442505,11.3270264-7.5400085,17.9350586   c-0.8414612,11.2150879,3.4437866,22.7141113,11.4195557,30.6433105"
   id="path385"
   stroke="#000000"
   stroke-linecap="round"
   stroke-linejoin="round"
   stroke-width="2.099000" />
	<path
   fill="none"
   class="st1"
   d="M449.8694458,1662.9602051c18.4966431-13.5229492,38.8569641-24.493042,60.3241882-32.5026855"
   id="path387"
   stroke="#000000"
   stroke-linecap="round"
   stroke-linejoin="round"
   stroke-width="2.099000" />
	<path
   fill="none"
   class="st1"
   d="M473.5909729,1659.7990723c11.2660217-11.5362549,24.875824-20.7739258,39.7564392-26.9846191"
   id="path389"
   stroke="#000000"
   stroke-linecap="round"
   stroke-linejoin="round"
   stroke-width="2.099000" />
	<path
   fill="none"
   class="st1"
   d="M483.1641235,1678.3685303c28.0805359-15.473877,56.694458-29.9796143,85.7739258-43.4829102"
   id="path391"
   stroke="#000000"
   stroke-linecap="round"
   stroke-linejoin="round"
   stroke-width="2.099000" />
	<path
   fill="none"
   class="st1"
   d="M499.9407043,1687.1936035c30.7301941-17.630249,61.915741-35.4503174,96.1826477-44.4472656"
   id="path393"
   stroke="#000000"
   stroke-linecap="round"
   stroke-linejoin="round"
   stroke-width="2.099000" />
	<path
   fill="none"
   class="st1"
   d="M523.1647949,1705.7547607c33.5015869-20.3026123,67.2654419-40.7329102,104.039917-54.2305908"
   id="path395"
   stroke="#000000"
   stroke-linecap="round"
   stroke-linejoin="round"
   stroke-width="2.099000" />
	<path
   fill="none"
   class="st1"
   d="M560.0165405,1719.1184082c34.8322144-20.6834717,71.7176514-37.9071045,109.9376831-51.3353271"
   id="path397"
   stroke="#000000"
   stroke-linecap="round"
   stroke-linejoin="round"
   stroke-width="2.099000" />
	<path
   fill="none"
   class="st1"
   d="M641.4240112,1687.5126953c-7.3134155,12.012207-14.6268311,24.024292-21.9402466,36.036377"
   id="path399"
   stroke="#000000"
   stroke-linecap="round"
   stroke-linejoin="round"
   stroke-width="2.099000" />
	<path
   fill="none"
   class="st1"
   d="M632.6552734,1668.0561523c-12.6821289,9.1591797-25.3643188,18.3182373-38.0464478,27.477417   c-4.8708496,3.5177002-9.7808228,7.0701904-13.8175049,11.5203857"
   id="path401"
   stroke="#000000"
   stroke-linecap="round"
   stroke-linejoin="round"
   stroke-width="2.099000" />
	<path
   fill="none"
   class="st1"
   d="M598.159729,1646.3623047c-20.6810303,10.043335-38.6669922,25.5727539-51.6184082,44.5683594"
   id="path403"
   stroke="#000000"
   stroke-linecap="round"
   stroke-linejoin="round"
   stroke-width="2.099000" />
	<path
   fill="none"
   class="st1"
   d="M547.4193115,1635.7521973c-17.8081665,11.7365723-34.4371338,25.2614746-49.555603,40.3049316"
   id="path405"
   stroke="#000000"
   stroke-linecap="round"
   stroke-linejoin="round"
   stroke-width="2.099000" />
	<path
   fill="none"
   class="st1"
   d="M535.9256592,1714.8201904c15.6290283,4.7467041,32.0640259,6.0482178,48.3481445,7.3220215   c13.6732788,1.0697021,27.741272,2.0983887,40.8314819-1.9938965"
   id="path407"
   stroke="#000000"
   stroke-linecap="round"
   stroke-linejoin="round"
   stroke-width="2.099000" />
	<path
   fill="none"
   class="st1"
   d="M697.56073,1684.9504395c-11.8032837,6.9835205-23.6065063,13.967041-35.40979,20.9505615   c-10.4120483,6.1604004-20.930542,12.401123-29.6230469,20.8154297"
   id="path409"
   stroke="#000000"
   stroke-linecap="round"
   stroke-linejoin="round"
   stroke-width="2.099000" />
	<path
   fill="none"
   class="st1"
   d="M694.684021,1685.6816406c5.3203735,7.4580078,12.9669189,13.2312012,21.5968018,16.3056641"
   id="path411"
   stroke="#000000"
   stroke-linecap="round"
   stroke-linejoin="round"
   stroke-width="2.099000" />
	<path
   fill="none"
   class="st1"
   d="M512.6148071,1757.0200195c-16.1954956,11.8024902-29.5114136,27.5274658-38.4839783,45.4464111   c-5.841095,11.6650391-9.2225952,27.350708,0.0402527,36.5372314c7.1380615,7.0793457,18.4200439,6.8795166,28.294281,8.7680664   c12.3345642,2.3591309,23.5493469,8.5389404,35.3171082,12.9237061   c24.5171509,9.135498,51.9161987,10.3500977,77.1455078,3.4197998   c17.0795288-4.6915283,33.0569458-12.9609375,50.2893677-17.0554199   c7.5338745-1.7900391,15.2578125-2.7684326,22.6985474-4.9129639c33.8504028-9.7558594,57.105896-41.8571777,90.1186523-54.152832"
   id="path413"
   stroke="#000000"
   stroke-linecap="round"
   stroke-linejoin="round"
   stroke-width="2.099000" />
	<path
   fill="none"
   class="st1"
   d="M548.4541626,1740.6433105c-8.4891357,8.5135498-16.7114868,17.2880859-24.932251,26.0610352   c-11.7734985,12.564209-23.5470276,25.12854-35.3205261,37.6928711"
   id="path415"
   stroke="#000000"
   stroke-linecap="round"
   stroke-linejoin="round"
   stroke-width="2.099000" />
	<path
   fill="none"
   class="st1"
   d="M592.177063,1735.348999c-14.1668091,12.678833-24.9294434,28.6141357-36.4884033,43.7084961   c-12.9072876,16.8549805-26.9623413,32.8309326-42.0355835,47.7803955"
   id="path417"
   stroke="#000000"
   stroke-linecap="round"
   stroke-linejoin="round"
   stroke-width="2.099000" />
	<path
   fill="none"
   class="st1"
   d="M632.482666,1728.6889648c-36.211731,35.0003662-69.3222656,73.2080078-98.8170776,114.0291748"
   id="path419"
   stroke="#000000"
   stroke-linecap="round"
   stroke-linejoin="round"
   stroke-width="2.099000" />
	<path
   fill="none"
   class="st1"
   d="M659.4866943,1718.6209717c-37.2016602,45.4573975-72.972229,92.0860596-107.2409058,139.793457"
   id="path421"
   stroke="#000000"
   stroke-linecap="round"
   stroke-linejoin="round"
   stroke-width="2.099000" />
	<path
   fill="none"
   class="st1"
   d="M710.6295776,1704.7218018c-34.2662964,43.664917-66.6088867,88.8393555-96.9025269,135.3485107"
   id="path423"
   stroke="#000000"
   stroke-linecap="round"
   stroke-linejoin="round"
   stroke-width="2.099000" />
	<path
   fill="none"
   class="st1"
   d="M760.5308228,1693.8657227c-36.0610352,46.5413818-73.9212036,91.6887207-113.4675903,135.307373"
   id="path425"
   stroke="#000000"
   stroke-linecap="round"
   stroke-linejoin="round"
   stroke-width="2.099000" />
	<path
   fill="none"
   class="st1"
   d="M783.9391479,1692.1807861c-30.7001953,39.3154297-59.8699341,79.8259277-87.4210815,121.4088135"
   id="path427"
   stroke="#000000"
   stroke-linecap="round"
   stroke-linejoin="round"
   stroke-width="2.099000" />
	<path
   fill="none"
   class="st1"
   d="M611.960144,1732.9440918c2.5921021,0.5507813,5.2792358,0.0583496,7.8810425-0.4447021   c37.4903564-7.2490234,74.5592651-16.677002,110.9572754-28.2207031"
   id="path429"
   stroke="#000000"
   stroke-linecap="round"
   stroke-linejoin="round"
   stroke-width="2.099000" />
	<path
   fill="none"
   class="st1"
   d="M671.1057739,1734.2506104c18.6599731-9.0137939,37.3200073-18.0275879,55.9799805-27.0413818"
   id="path431"
   stroke="#000000"
   stroke-linecap="round"
   stroke-linejoin="round"
   stroke-width="2.099000" />
	<path
   fill="none"
   class="st1"
   d="M632.4926758,1313.6235352c6.326355,7.4820557,13.5765991,14.1821289,21.5336914,19.8995361"
   id="path433"
   stroke="#000000"
   stroke-linecap="round"
   stroke-linejoin="round"
   stroke-width="2.099000" />
	<path
   fill="none"
   class="st1"
   d="M625.6486816,1321.581543c2.6742554,1.4320068,4.4269409,4.0808105,6.2352295,6.5163574   c6.663269,8.9748535,15.526062,16.3041992,25.5922241,21.1641846"
   id="path435"
   stroke="#000000"
   stroke-linecap="round"
   stroke-linejoin="round"
   stroke-width="2.099000" />
	<path
   fill="none"
   class="st1"
   d="M629.5223999,1345.234375c3.5892334,1.796875,6.244751,4.9755859,9.0597534,7.8369141   c6.3069458,6.4107666,13.8869629,11.564209,22.1680908,15.071167"
   id="path437"
   stroke="#000000"
   stroke-linecap="round"
   stroke-linejoin="round"
   stroke-width="2.099000" />
	<path
   fill="none"
   class="st1"
   d="M639.0911865,1364.9207764c8.0869141,8.3170166,16.9981079,17.0793457,28.4492188,18.9348145"
   id="path439"
   stroke="#000000"
   stroke-linecap="round"
   stroke-linejoin="round"
   stroke-width="2.099000" />
	<path
   fill="none"
   class="st1"
   d="M646.9511719,1387.6343994c2.3857422,3.75354,4.9790039,7.3753662,7.763916,10.8431396   c3.2485352,4.0450439,6.8179932,7.9312744,11.2174683,10.6807861c4.3994751,2.7493896,9.7442627,4.2818604,14.8382568,3.2991943"
   id="path441"
   stroke="#000000"
   stroke-linecap="round"
   stroke-linejoin="round"
   stroke-width="2.099000" />
	<path
   fill="none"
   class="st1"
   d="M658.6848755,1419.4615479c7.2134399,8.4968262,18.3253174,13.5422363,29.4700317,13.3811035"
   id="path443"
   stroke="#000000"
   stroke-linecap="round"
   stroke-linejoin="round"
   stroke-width="2.099000" />
	<path
   fill="none"
   class="st1"
   d="M665.40625,1439.4962158c2.8521729,2.3331299,5.7044067,4.6663818,8.5566406,6.9996338   c8.786377,7.1875,18.3034058,14.6864014,29.607605,15.723877"
   id="path445"
   stroke="#000000"
   stroke-linecap="round"
   stroke-linejoin="round"
   stroke-width="2.099000" />
	<path
   fill="none"
   class="st1"
   d="M670.8110962,1454.4693604c12.6616211,11.5976563,26.0546875,23.6005859,42.7057495,27.791626"
   id="path447"
   stroke="#000000"
   stroke-linecap="round"
   stroke-linejoin="round"
   stroke-width="2.099000" />
	<path
   fill="none"
   class="st1"
   d="M680.7471313,1478.012085c0.5196533,2.1140137,2.5971069,3.4031982,4.4962769,4.4672852   c10.4822998,5.8736572,20.9645996,11.7471924,31.4468994,17.6207275c3.729248,2.0895996,7.9643555,4.2504883,12.0862427,3.1174316"
   id="path449"
   stroke="#000000"
   stroke-linecap="round"
   stroke-linejoin="round"
   stroke-width="2.099000" />
	<path
   fill="none"
   class="st1"
   d="M697.5975952,1498.6291504c2.019165,3.6016846,5.3533936,6.2454834,8.6031494,8.7927246   c13.6855469,10.7269287,28.1454468,21.8074951,45.2877197,24.7229004"
   id="path451"
   stroke="#000000"
   stroke-linecap="round"
   stroke-linejoin="round"
   stroke-width="2.099000" />
	<path
   fill="none"
   class="st1"
   d="M706.3301392,1534.9279785c5.9515991,3.0898438,11.9031982,6.1796875,17.8547974,9.2696533   c15.6063843,8.1022949,31.4186401,16.2821045,48.5454712,20.2669678"
   id="path453"
   stroke="#000000"
   stroke-linecap="round"
   stroke-linejoin="round"
   stroke-width="2.099000" />
	<path
   fill="none"
   class="st1"
   d="M727.5319214,1557.3276367c-0.0835571-0.7387695,1.1203003-0.6682129,1.7492676-0.2718506   c10.152832,6.3979492,19.0457764,14.6568604,29.2920532,20.9040527c9.2974243,5.6685791,19.605896,9.6011963,30.2245483,12.0136719   "
   id="path455"
   stroke="#000000"
   stroke-linecap="round"
   stroke-linejoin="round"
   stroke-width="2.099000" />
	<path
   fill="none"
   class="st1"
   d="M746.5452271,1581.6206055c4.6934814,5.1903076,10.1630249,9.6777344,16.1704712,13.2664795   c12.5479126,7.4960938,27.0466919,10.9057617,41.2843018,14.2122803"
   id="path457"
   stroke="#000000"
   stroke-linecap="round"
   stroke-linejoin="round"
   stroke-width="2.099000" />
	<path
   fill="none"
   class="st1"
   d="M760.4142456,1605.8431396c1.6399536,5.2104492,6.835144,8.3173828,11.6234131,10.9462891   c6.3080444,3.4631348,12.6160889,6.9263916,18.9241333,10.3895264c9.9040527,5.4373779,20.6243896,11.0499268,31.8562012,9.824707"
   id="path459"
   stroke="#000000"
   stroke-linecap="round"
   stroke-linejoin="round"
   stroke-width="2.099000" />
	<path
   fill="none"
   class="st1"
   d="M625.1034546,1058.2709961c-37.1100464,41.0560303-72.866272,83.3355713-107.1911011,126.7470703"
   id="path461"
   stroke="#000000"
   stroke-linecap="round"
   stroke-linejoin="round"
   stroke-width="2.099000" />
	<path
   fill="none"
   class="st1"
   d="M627.8817749,1062.2946777c-39.3394775,41.8496094-71.8635254,89.8399658-112.5166626,130.4147949"
   id="path463"
   stroke="#000000"
   stroke-linecap="round"
   stroke-linejoin="round"
   stroke-width="2.099000" />
	<path
   fill="none"
   class="st1"
   d="M630.6403809,1068.4295654c-39.4633789,46.3337402-78.9266968,92.6674805-118.3900757,139.0012207"
   id="path465"
   stroke="#000000"
   stroke-linecap="round"
   stroke-linejoin="round"
   stroke-width="2.099000" />
	<path
   fill="none"
   class="st1"
   d="M629.3942871,1081.2070313c-39.5905151,43.2659912-77.8500977,87.75-114.7064209,133.3676758"
   id="path467"
   stroke="#000000"
   stroke-linecap="round"
   stroke-linejoin="round"
   stroke-width="2.099000" />
	<path
   fill="none"
   class="st1"
   d="M631.7466431,1089.6124268c-36.5805054,36.0019531-70.9282837,74.2723389-102.7805786,114.5179443"
   id="path469"
   stroke="#000000"
   stroke-linecap="round"
   stroke-linejoin="round"
   stroke-width="2.099000" />
	<path
   fill="none"
   class="st1"
   d="M626.4992676,1103.0151367c-39.0484619,37.5889893-74.9124146,78.4851074-107.0818481,122.1068115"
   id="path471"
   stroke="#000000"
   stroke-linecap="round"
   stroke-linejoin="round"
   stroke-width="2.099000" />
	<path
   fill="none"
   class="st1"
   d="M625.3531494,1079.229126c-11.7279053,13.1556396-23.4557495,26.3111572-35.1836548,39.4667969"
   id="path473"
   stroke="#000000"
   stroke-linecap="round"
   stroke-linejoin="round"
   stroke-width="2.099000" />
	<path
   fill="none"
   class="st1"
   d="M592.2428589,1156.0151367c-4.4465332,4.8166504-8.8930664,9.6334229-13.3395996,14.4500732   c-16.0510254,17.387207-32.1020508,34.7744141-48.1530151,52.1616211"
   id="path475"
   stroke="#000000"
   stroke-linecap="round"
   stroke-linejoin="round"
   stroke-width="2.099000" />
	<path
   fill="none"
   class="st1"
   d="M600.4246216,1171.6179199c-27.3206177,27.213623-53.2038574,55.8702393-77.5056763,85.8105469"
   id="path477"
   stroke="#000000"
   stroke-linecap="round"
   stroke-linejoin="round"
   stroke-width="2.099000" />
	<path
   fill="none"
   class="st1"
   d="M615.7985229,1175.678833c-34.3733521,36.2895508-68.7467041,72.5791016-103.1200562,108.8686523"
   id="path479"
   stroke="#000000"
   stroke-linecap="round"
   stroke-linejoin="round"
   stroke-width="2.099000" />
	<path
   fill="none"
   class="st1"
   d="M625.9842529,1178.503418c-45.144165,42.8461914-88.8983765,87.1568604-131.1707458,132.8387451"
   id="path481"
   stroke="#000000"
   stroke-linecap="round"
   stroke-linejoin="round"
   stroke-width="2.099000" />
	<path
   fill="none"
   class="st1"
   d="M628.2313232,1184.1265869c-48.4379272,46.3448486-93.9780884,95.7178955-136.2660828,147.7352295"
   id="path483"
   stroke="#000000"
   stroke-linecap="round"
   stroke-linejoin="round"
   stroke-width="2.099000" />
	<path
   fill="none"
   class="st1"
   d="M630.2138062,1194.0596924c-43.4348755,44.388916-84.1896973,91.3999023-121.9686584,140.6920166"
   id="path485"
   stroke="#000000"
   stroke-linecap="round"
   stroke-linejoin="round"
   stroke-width="2.099000" />
	<path
   fill="none"
   class="st1"
   d="M626.8261719,1216.6873779c-31.4556885,33.4404297-62.911377,66.8808594-94.3670044,100.3214111"
   id="path487"
   stroke="#000000"
   stroke-linecap="round"
   stroke-linejoin="round"
   stroke-width="2.099000" />
	<path
   fill="none"
   class="st1"
   d="M621.9310913,1234.9785156c-19.3223267,20.684082-38.6734619,41.4018555-56.0944824,63.7109375"
   id="path489"
   stroke="#000000"
   stroke-linecap="round"
   stroke-linejoin="round"
   stroke-width="2.099000" />
	<path
   fill="none"
   class="st1"
   d="M612.5045166,1259.0560303c-23.8201904,25.7220459-47.6403809,51.4442139-71.4605103,77.1662598"
   id="path491"
   stroke="#000000"
   stroke-linecap="round"
   stroke-linejoin="round"
   stroke-width="2.099000" />
	<path
   fill="none"
   class="st1"
   d="M586.8911743,1202.8109131c-30.3049316,28.0946045-59.8776245,56.979126-88.6779175,86.6143799"
   id="path493"
   stroke="#000000"
   stroke-linecap="round"
   stroke-linejoin="round"
   stroke-width="2.099000" />
	<path
   fill="none"
   class="st2"
   d="M629.1158447,677.0428467l-12.5925293,10.3762207l-7.0158691,13.5494995l-3.6049194,24.2539063   l1.0042725,21.9616699l2.2154541,16.213501l4.5519409,12.1850586l6.2283325,5.1933594c0,0,6.4850464-0.6009521,6.8140259-0.7200317   c0.3290405-0.1191406,8.1254883-6.4657593,8.1254883-6.4657593l9.7019653-18.7427979l5.9886475-23.5657959l0.3415527-25.0115356   l-5.5966797-16.6724854l-8.850647-10.8156128L629.1158447,677.0428467z"
   id="path495"
   stroke="#000000"
   stroke-linecap="round"
   stroke-linejoin="round"
   stroke-width="2.099000" />
	<path
   fill="none"
   class="st2"
   d="M499.1444397,791.4153442l7.1932678,0.6702271l7.53302,5.909729l3.6898193,7.0915527l-3.28302,8.1356201   l-4.9999695,5.3164673c0,0-3.75,7.4243774-4,8.0539551s-3.0004272,7.8795776-3.0004272,7.8795776l-4.0638428,4.7687988   l-5.074585,0.211792l-6.1608887-5.4805908c0,0,0.4502563-13.5,0-14.75s2.4754028-14.5722656,2.4754028-14.5722656   s3.2860107-7.8519897,3.6548767-8.374939C493.4769592,795.7523804,499.1444397,791.4153442,499.1444397,791.4153442z"
   id="path497"
   stroke="#000000"
   stroke-linecap="round"
   stroke-linejoin="round"
   stroke-width="2.099000" />
	<path
   fill="none"
   class="st1"
   d="M575.4162598,757.7553711c-4.3778076,35.0054932,8.7103271,71.7647095,34.2258911,96.1266479"
   id="path499"
   stroke="#000000"
   stroke-linecap="round"
   stroke-linejoin="round"
   stroke-width="2.099000" />
	<path
   fill="none"
   class="st1"
   d="M665.8040771,867.8312378c24.1359253-7.5612793,46.7792969-19.8551636,66.2666016-35.9784546"
   id="path501"
   stroke="#000000"
   stroke-linecap="round"
   stroke-linejoin="round"
   stroke-width="2.099000" />
	<path
   fill="none"
   class="st1"
   d="M697.147522,841.8310547c-0.0982056-0.0723877-0.1964111-0.1448364-0.2946167-0.2172852   c18.7746582-1.0880737,35.4975586-11.8288574,50.5910034-23.0476074"
   id="path503"
   stroke="#000000"
   stroke-linecap="round"
   stroke-linejoin="round"
   stroke-width="2.099000" />
</g>
</svg>