<?xml version="1.0" encoding="utf-8"?>
<!-- Generator: Adobe Illustrator 24.1.3, SVG Export Plug-In . SVG Version: 6.00 Build 0)  -->
<svg version="1.1" id="Vector_rough" xmlns="http://www.w3.org/2000/svg" xmlns:xlink="http://www.w3.org/1999/xlink" x="0px"
	 y="0px" viewBox="0 0 1173 1119" style="enable-background:new 0 0 1173 1119;" xml:space="preserve">
<style type="text/css">
	.st0{fill:#FFFFFF;}
	.st1{fill:none;stroke:#000000;stroke-width:2;}
	.st2{clip-path:url(#SVGID_2_);fill:none;stroke:#000000;stroke-width:2;}
	.st3{clip-path:url(#SVGID_4_);fill:none;stroke:#000000;stroke-width:2;}
	.st4{clip-path:url(#SVGID_6_);fill:none;stroke:#000000;stroke-width:2;}
	.st5{clip-path:url(#SVGID_8_);fill:none;stroke:#000000;stroke-width:2;}
	.st6{clip-path:url(#SVGID_10_);fill:none;stroke:#000000;stroke-width:2;}
	.st7{clip-path:url(#SVGID_12_);fill:none;stroke:#000000;stroke-width:2;}
	.st8{clip-path:url(#SVGID_14_);fill:none;stroke:#000000;stroke-width:2;}
	.st9{clip-path:url(#SVGID_16_);fill:none;stroke:#000000;stroke-width:2;}
	.st10{fill:none;stroke:#FF94AF;stroke-width:0.5;}
</style>
<g id="vector_rough">
	<rect y="0" class="st0" width="1173" height="1119"/>
	<polyline class="st1" points="547.8,248.8 548.5,244.3 549.6,239.6 550.9,234.9 552.5,230 554.3,225.1 556.4,220.1 558.6,215.1 
		561.1,210.2 563.9,205.2 566.8,200.4 569.9,195.7 573.2,191 576.6,186.6 580.2,182.3 584,178.2 587.9,174.3 591.9,170.7 
		596.1,167.4 600.4,164.4 604.7,161.7 609.2,159.4 613.7,157.5 618.3,156 623,155 627.7,154.4 632.5,154.4 637.3,154.8 642.1,155.8 
		646.5,157.3 641.4,157.5 636.3,158 631.2,158.9 626.2,160.1 621.2,161.6 616.3,163.5 611.5,165.6 606.7,168.1 602,170.7 
		597.4,173.7 592.9,176.9 588.5,180.3 584.2,183.9 580,187.7 576,191.6 572,195.8 568.2,200.1 564.6,204.5 561.1,209 557.7,213.7 
		554.5,218.4 551.5,223.2 548.6,228.1 545.9,233 543.4,238 541.1,242.9 539,247.9 537.1,252.9 535.5,257.8 534,262.7 532.8,267.5 
		531.8,272.3 531,277 530.5,281.6 530.3,286 530.3,290.4 530.6,294.6 531.1,298.6 531.9,302.5 532.7,305.2 	"/>
	<polyline class="st1" points="575.9,191.7 572.8,194.5 569.8,197.7 567,201.1 564.2,204.8 561.5,208.8 559,213.1 556.6,217.5 
		554.3,222.3 552.1,227.1 550.1,232.2 548.2,237.4 546.4,242.8 544.8,248.3 543.3,253.9 542,259.5 540.8,265.3 539.8,271 539,276.8 
		538.3,282.6 537.8,288.4 537.5,294.2 537.4,299.9 537.5,305.5 537.7,311.1 538.2,316.5 538.8,321.8 539.7,327 540.8,332 542,336.8 
		543.5,341.4 545.3,345.8 547.2,349.9 549.4,353.8 551.8,357.4 554.6,360.8 557.8,364.1 	"/>
	<polyline class="st1" points="542.4,338 542.4,340.7 543,343.6 544.1,346.8 545.6,350.2 547.6,353.8 550,357.6 552.8,361.4 
		556,365.3 559.5,369.3 563.3,373.2 567.4,377.2 571.8,381.1 576.4,384.9 581.2,388.6 586.2,392.1 591.4,395.4 596.7,398.6 
		602.1,401.4 607.6,404 613.1,406.2 618.6,408.1 624.2,409.6 629.7,410.7 635.1,411.3 640.5,411.4 645.7,411 649.2,410.5 	"/>
	<polyline class="st1" points="540.5,330.8 549.7,343.4 552.8,347.6 555.9,351.8 559,356 562,360.2 565.1,364.4 568.2,368.6 
		571.3,372.8 574.3,377 577.4,381.2 580.5,385.4 583.5,389.6 584.4,390.9 	"/>
	<polyline class="st1" points="615.3,407 619,407.1 623.1,408.1 627.5,409.6 632.2,411.5 637.2,413.6 642.4,415.8 647.8,417.7 
		653.4,419.3 659.2,420.3 665,420.5 665.5,420.5 	"/>
	<polyline class="st1" points="623.4,408.2 626.5,407.3 630.5,407.3 635.2,408 640.4,409.3 646,411.1 651.9,413.3 657.7,415.8 
		663.5,418.5 669,421.2 674.1,424 678.5,426.6 682.2,429 684.3,430.5 	"/>
	<polyline class="st1" points="670.4,421.9 675.6,421.7 680.2,423 684.3,425.5 687.8,429.1 690.8,433.5 693.2,438.5 695.2,443.8 
		696.6,449.2 697.6,454.5 698.1,459.5 698.1,461.8 	"/>
	<polyline class="st1" points="714.4,33.3 711.8,33 709.2,33.8 706.4,35.6 703.5,38.3 700.7,41.8 697.9,46 695.1,50.9 692.5,56.2 
		690,62 687.7,68 685.7,74.3 683.9,80.7 682.5,87.1 681.5,93.4 680.8,99.5 680.6,105.3 680.9,110.7 681.7,115.6 683.2,119.9 
		683.5,121.2 681.7,118.1 680.5,114.3 680,109.9 679.9,105 680.4,99.7 681.3,94.1 682.6,88.3 684.2,82.3 686.1,76.3 688.3,70.3 
		690.6,64.5 693.1,58.8 695.6,53.5 698.2,48.6 700.8,44.2 703.3,40.3 705.7,37.1 705.8,36.2 701.2,39 696.9,41.9 692.7,45 
		688.8,48.3 685.1,51.8 681.6,55.4 678.3,59.1 675.1,63 672.1,67 669.3,71.2 666.6,75.5 664.2,79.9 661.8,84.5 659.6,89.1 
		657.5,93.9 655.6,98.8 653.7,103.7 652,108.8 650.4,113.9 649,119.2 647.6,124.5 646.3,129.8 644.9,135.9 644,141.2 644,145.4 
		644.6,149.7 646.1,155 645.8,155.6 644.9,152.6 644.4,149.1 644.3,145.2 644.7,140.8 645.5,136.2 646.6,131.1 648.1,125.9 
		649.9,120.4 652,114.7 654.3,108.9 656.9,103 659.7,97.1 662.8,91.2 665.9,85.3 669.3,79.5 672.7,73.9 676.3,68.4 679.9,63.2 
		683.5,58.2 687.2,53.6 690.9,49.3 694.5,45.4 698.1,42 701.5,39.1 704.9,36.7 708.2,34.9 711.3,33.8 714.2,33.3 714.4,33.3 	"/>
	<polyline class="st1" points="684.3,122.2 685.1,121.9 687,119.5 690,115.7 693.8,110.8 698.1,105.5 702.9,100.3 707.7,95.6 
		712.4,92 716.9,89.3 721.6,86.9 726.6,84.6 731.8,82.6 737.1,80.9 742.5,79.4 748,78.2 753.6,77.4 759.1,76.8 764.6,76.6 
		769.9,76.7 775.2,77.1 780.3,78 785.2,79.2 789.8,80.8 794.1,82.9 798.1,85.4 801.8,88.3 805,91.7 807.7,95.6 810,100 810.9,102.2 
			"/>
	<polyline class="st1" points="684.3,122.2 687.2,118.4 690,114.6 693,110.9 696,107.2 699.2,103.6 702.5,100 706.2,96.4 
		710.1,92.8 714.3,89.3 718.8,85.7 723.8,82.2 728.8,79 733.6,76.8 738.9,75.3 744.6,74.2 750.6,73.7 756.7,73.7 763,74.1 
		769.2,74.9 775.2,76 781,77.4 786.4,79.1 791.4,81 795.7,83.1 799.4,85.3 802.2,87.6 804.2,89.9 804.9,91.7 	"/>
	<polyline class="st1" points="810.9,102.2 814.6,95.8 814.3,93.4 809.1,91.9 799.7,90 791.3,89.4 783.8,89.9 777.2,91.2 
		771.4,93.1 766.2,95.4 761.8,97.8 757.9,100.1 754.6,102 751.6,103.3 749.1,103.8 746.8,103.2 744.7,101.2 745,100.5 748.2,101.4 
		752,101.4 756.3,100.5 761,99.1 766.2,97.3 771.5,95.3 777.2,93.3 782.9,91.5 788.7,90.1 794.4,89.4 800.1,89.5 805.5,90.6 
		810.7,92.8 813.4,94.7 	"/>
	<polyline class="st1" points="829.7,217.5 830.8,213.3 831.7,208.4 832.2,202.9 832.5,197.2 832.5,191.3 832.4,185.6 832,180.1 
		831.5,175.2 830.8,170.9 829.1,163.4 827,156.6 824.6,150.5 821.9,145 819,140 815.7,135.6 812.3,131.7 808.6,128.3 804.8,125.2 
		800.7,122.5 796.6,120.2 792.3,118.1 787.9,116.3 783.5,114.7 779,113.2 774.5,111.8 770,110.5 765.6,109.3 761.2,108 756.8,106.7 
		752.5,105.2 748.6,103.8 751.7,104.9 754.9,105.6 758,106 761.3,106.2 764.6,106.3 768,106.4 771.5,106.6 775.1,107 778.9,107.7 
		782.8,108.9 786.8,110.6 791.1,112.9 795.5,115.9 800.2,119.8 805.1,124.6 810.2,130.5 815.6,137.5 821.2,145.8 826.7,154.5 
		829.5,160 831.7,165.2 833.3,170.3 834.4,175.3 834.9,180.1 835.1,184.9 834.8,189.6 834.3,194.4 833.5,199.3 832.5,204.2 
		831.4,209.3 830.3,214.6 829.7,217.5 	"/>
	<polyline class="st1" points="794.6,179.9 798.3,182.6 802.6,185.6 807.1,188.9 811.8,192.3 816.3,196 820.5,199.8 824.2,203.7 
		827.1,207.9 829,212.1 829.7,216.5 826.3,217.6 824.5,213.5 822.6,209 820.5,204.3 818.2,199.5 815.7,194.6 813,189.8 810.1,185.1 
		806.9,180.6 803.5,176.5 799.7,172.7 795.7,169.5 791.4,166.9 786.8,164.9 781.8,163.8 776.4,163.6 778.7,165.5 782,168.4 
		785.2,172 788.3,176.1 791.2,180.8 793.9,185.8 796.4,191.1 798.5,196.7 800.4,202.4 801.9,208.1 803,213.7 803.7,219.2 
		803.9,224.5 803.6,229.4 802.8,233.9 801.3,237.9 800.9,238.8 	"/>
	<polyline class="st1" points="805.7,235.8 803.1,232 800.1,228 796.8,224 793.1,219.9 789.2,215.8 785,211.7 780.6,207.6 
		776.1,203.7 771.4,199.9 766.7,196.3 761.9,192.9 757,189.8 752.2,187 747.5,184.5 742.8,182.5 738.2,180.9 733.8,179.7 
		729.6,179.1 725.7,179 722,179.5 723.1,180.8 727,182.4 731,184.1 735.1,186 739.2,188 743.4,190.1 747.6,192.4 751.9,194.9 
		756.2,197.5 760.5,200.3 764.8,203.2 769.2,206.3 773.6,209.5 777.9,212.9 782.3,216.5 786.7,220.2 791,224.1 795.3,228.2 
		799.5,232.4 803.8,236.8 806.4,239.7 	"/>
	<polyline class="st1" points="720.7,179.9 722.1,179.5 725,181.5 729,185.5 733.5,190.7 738.3,196.4 742.7,202 746.4,206.9 
		748.9,210.3 749.5,211.2 744.3,210.4 739.6,209.5 737.1,207.9 733.9,206.4 730.1,205.2 725.7,204.1 720.8,203.2 715.5,202.5 
		709.8,201.9 703.7,201.5 697.5,201.3 691.1,201.2 684.5,201.3 678,201.5 671.5,201.8 665.1,202.3 658.8,202.9 652.8,203.6 
		647.1,204.5 641.8,205.5 637,206.5 632.6,207.7 628.8,209 625.7,210.4 625.9,210.1 630.1,207.9 634.7,206.1 639.5,204.7 
		644.6,203.8 649.9,203.1 655.3,202.8 660.8,202.8 666.5,203 672.2,203.3 677.9,203.8 683.5,204.5 689.2,205.2 694.7,205.9 
		700.1,206.6 705.3,207.3 710.3,207.9 715,208.3 719.5,208.6 723.7,208.7 724.4,208.7 	"/>
	<polyline class="st1" points="629.2,307.7 633,304.4 635.8,300.3 637.9,295.5 639.2,290.1 639.9,284.2 640,278 639.6,271.5 
		638.8,264.9 637.7,258.2 636.2,251.5 634.6,245.1 632.9,238.8 631.2,233 629.5,227.6 627.9,222.8 626.4,218.7 625.3,215.4 
		624.5,212.9 624.1,211.5 625.1,213.9 627.3,219.4 629.6,224.4 631.7,229 633.8,233.2 635.8,237.2 637.6,241.1 639.2,245 
		640.7,248.9 641.9,253 642.8,257.3 643.4,262 643.7,267.2 643.6,273 643.2,279.4 642.3,286.5 641.7,290.2 	"/>
	<polyline class="st1" points="655.5,361.6 652.2,361.1 649.1,359.3 646.2,356.4 643.4,352.7 640.8,348.1 638.5,342.9 636.3,337.1 
		634.4,331.1 632.6,324.8 631.1,318.5 629.8,312.3 628.7,306.3 627.8,300.7 627.2,295.6 626.8,291.2 626.7,287.7 626,291.2 
		625.8,295.5 626.2,300.3 627,305.6 628.3,311.2 630,316.9 632,322.7 634.3,328.4 636.9,333.9 639.7,339.1 642.6,343.7 645.7,347.8 
		648.9,351.1 652.1,353.5 653,354.1 	"/>
	<polyline class="st1" points="592.9,324 601.9,330.8 610.1,336.3 617.7,340.8 624.6,344.3 630.7,346.9 636.2,348.8 641.1,350 
		645.3,350.8 648.9,351.2 651.9,351.3 654.3,351.2 656,351.1 657.3,351.1 657.2,351.7 653,354.1 	"/>
	<polyline class="st1" points="592.9,324 593.4,329.6 594,335.2 594.7,340.7 595.4,346.1 596.3,351.4 597.4,356.5 598.7,361.4 
		600.3,366.1 602.1,370.5 604.3,374.6 606.9,378.4 609.8,381.8 613.3,384.8 617.2,387.4 621.7,389.6 626.7,391.2 632.4,392.3 
		638.7,392.9 641.7,392.9 	"/>
	<polyline class="st1" points="602.3,370.9 608.5,374.9 613.6,378.3 618,381.2 621.7,383.6 624.9,385.6 628,387.1 631.1,388.3 
		634.5,389.2 638.2,389.7 642.6,390 647.9,390.1 654.2,389.9 661.8,389.6 670,389 673.7,389.4 675.9,393.4 678.8,397.7 682.3,402 
		686.2,406.3 690.6,410.2 695.1,413.6 699.7,416.3 704.4,418.3 708.8,419.2 710.6,419.2 	"/>
	<polyline class="st1" points="673.1,387.9 677,393 680.9,397.5 685,401.5 689,405 693.1,408 697.3,410.6 701.5,412.7 705.8,414.3 
		710.2,415.6 714.7,416.5 719.3,417 724,417.2 728.8,417.1 733.7,416.6 738.8,415.9 744,414.9 749.3,413.6 754.7,412.2 760.4,410.5 
		764.5,409.2 	"/>
	<polyline class="st1" points="808.4,248.7 810.1,255.3 812.1,261 814.5,265.8 817.1,269.9 820,273.5 822.9,276.6 825.9,279.5 
		828.9,282.1 831.7,284.8 834.4,287.5 836.8,290.4 838.9,293.7 840.6,297.4 841.8,301.8 842.5,306.9 842.5,312.9 841.8,319.8 
		840.4,328 838.7,335 	"/>
	<polyline class="st1" points="834.2,290.2 837.4,292.6 840.1,296.2 842.3,300.7 844,305.9 845.3,311.5 845.9,317.5 846,323.4 
		845.4,329.2 844.2,334.5 842.2,339.2 839.6,343 837.8,344.7 	"/>
	<polyline class="st1" points="845.2,330.2 843.8,331.9 842.9,334.1 842.2,336.9 841.5,340.3 840.7,344.2 839.6,348.6 837.8,353.6 
		835.4,359 831.9,364.9 827.4,371.3 821.4,378.2 815.7,383.9 811.8,387.5 808.1,390.9 804.3,394.3 800.4,397.6 797.1,400.4 	"/>
	<polyline class="st1" points="817.4,382.3 813.9,381.9 810.2,384 806.3,387.8 802.1,392.3 797.4,396.8 793,400.3 788.8,403.3 
		784.6,406.1 780.3,408.7 776,411.4 771.4,414.2 	"/>
	<polyline class="st1" points="742.7,415.2 747.1,414.2 751.4,413.8 755.7,413.6 760.1,413.5 764.5,413.3 769,412.8 773.8,411.9 
		778.8,410.4 784.1,408 789.9,404.7 796,400.2 797,397.1 	"/>
	<polyline class="st1" points="673.7,295.8 675.2,291.7 677.8,287.8 681.4,284.2 685.8,281.1 690.7,278.4 696,276.3 701.5,274.7 
		707.1,273.8 712.6,273.5 717.7,274.1 722.3,275.5 725.1,277 	"/>
	<polyline class="st1" points="681.8,297.7 684.5,292.9 688.3,288.5 692.9,284.6 698,281.1 703.6,278.1 709.2,275.7 714.8,273.8 
		720,272.6 724.7,272 728.6,272.1 731.5,273 732.6,273.9 	"/>
	<polyline class="st1" points="805.7,238.9 802.1,240.9 798.3,242.9 794.3,245.6 790.1,250.1 790.3,252 796,248.5 801.3,246 
		805.9,244.1 809.5,242.5 811.5,241.3 	"/>
	<polyline class="st1" points="801.5,282 801.4,285.3 801.3,289.9 800.3,295.1 797.9,299.8 793.4,303.1 786.5,303.8 787.2,303.4 
		795.3,301.5 800.6,298.2 802.8,294.3 803,290 802.2,285.8 801.5,282.1 801.5,282 	"/>
	<polyline class="st1" points="766.4,301.4 773.1,302.2 777.4,302.7 781,302.8 785.2,302.1 791.5,300.2 797.1,300.7 797.1,300.7 	
		"/>
	<polyline class="st1" points="809.6,315.9 809.2,319.3 807.8,322.3 805.7,324.8 802.8,327 799.3,328.9 795.2,330.5 790.6,332.1 
		785.6,333.5 780.3,334.9 774.7,336.4 769,338 763.1,339.8 757.2,341.9 751.4,344.3 745.7,347.2 740.2,350.6 735,354.5 730.4,358.8 
		730.1,359.1 	"/>
	<polyline class="st1" points="809.6,315.9 810.8,314.9 811.4,315.4 811.1,317 809.6,319.7 806.8,323 802.3,326.9 795.9,331.1 
		787.3,335.4 776.2,339.5 771.8,340.8 766.8,342.3 761.1,344 755.1,345.8 749.2,347.8 743.8,349.7 739.4,351.7 736.3,353.4 
		735.9,353.7 	"/>
	<polyline class="st1" points="740,351.3 745.2,351.3 750,352.6 754.5,354.9 758.7,358 762.7,361.5 766.6,365.2 770.4,368.9 
		774.2,372.1 778,374.8 782,376.5 786,377 790.3,376 794.9,373.3 799.7,368.5 802.7,364.7 	"/>
	<polyline class="st1" points="808.5,321.2 806.3,325 805.1,329.4 804.6,334.2 804.4,339.3 804.3,344.6 804,350 803.4,355.4 
		802.1,360.6 799.8,365.6 796.4,370.2 792.9,374.6 792.8,374.7 	"/>
	<polyline class="st1" points="714.4,260.1 710.4,256.8 705.7,253.4 700.4,251.3 695.1,250.6 689.8,251.2 685,253 680.8,255.7 
		677.6,259.3 675.6,263.6 675.1,268 677.9,263.5 681.1,259.4 684.8,256 688.9,253.2 693.5,251.5 698.5,250.8 703.9,251.4 
		707.5,252.6 	"/>
	<polyline class="st1" points="777.7,236.3 778.8,231.2 781.7,227.2 785.9,224.1 790.8,221.8 795.9,220.5 796.8,220.3 	"/>
	<polyline class="st1" points="518.3,147.3 524.6,151.5 529.9,156 534.3,160.7 537.9,165.5 540.8,170.5 543,175.6 544.7,180.7 
		546,185.8 546.9,190.9 547.5,195.8 547.9,200.7 548.2,205.3 548.5,209.8 548.9,213.9 549.5,217.8 550.3,221.3 551.1,223.8 	"/>
	<polyline class="st1" points="518.3,147.3 519.3,148.2 520.9,150 523.2,152.5 525.9,155.7 528.9,159.5 532.2,163.9 535.5,168.7 
		538.8,174 541.8,179.6 544.5,185.5 546.8,191.6 548.5,197.8 549.4,204.1 549.5,210.4 549,214.4 	"/>
	<polyline class="st1" points="516.4,144.5 519,150 521.1,154.7 522.8,159.1 524.4,163.8 525.6,168.3 526.9,173.6 527.8,179.3 
		527.8,184.6 527.1,188 	"/>
	<polyline class="st1" points="445.6,206.2 446,202.3 447.2,198.4 449,194.7 451.4,191.2 454.5,187.8 458,184.7 462,181.8 
		466.5,179.2 471.2,177 476.3,175.2 481.6,173.8 487.1,172.8 492.8,172.3 498.5,172.4 504.2,173.1 509.9,174.3 515.4,176.2 
		520.9,178.8 526.1,182.1 527.9,183.5 	"/>
	<polyline class="st1" points="467.2,178.3 462.2,179.6 458.1,182.5 454,186.5 449.3,190.9 445.2,195 442.7,199 442.7,202.7 
		445.5,206 444.2,203.1 445.1,200.2 447.9,197.7 452.2,195.6 457.7,194.1 464,193.5 470.8,193.9 477.6,195.6 480.7,196.8 
		475.3,198.3 470.2,200.1 465.3,202.3 460.7,204.7 456.3,207.5 452.2,210.5 448.3,213.8 444.7,217.3 441.2,221 438.1,225 
		435.1,229.2 432.4,233.5 430,238 427.7,242.7 425.7,247.5 423.9,252.4 422.3,257.4 421,262.4 419.9,267.6 419,272.8 418.3,278 
		417.8,283.3 417.5,288.6 417.5,293.8 417.6,299 418,304.2 418.6,309.3 419.3,314.4 420,317.7 	"/>
	<polyline class="st1" points="447.2,214.8 444.9,215.5 442.7,216.9 440.6,219 438.6,221.8 436.7,225 434.9,228.8 433.3,233.1 
		431.8,237.8 430.4,242.9 429.2,248.4 428.1,254.1 427.2,260.1 426.4,266.2 425.8,272.5 425.4,279 425.2,285.4 425.1,291.9 
		425.3,298.4 425.7,304.8 426.3,311.1 427,317.2 428.1,323 429.3,328.7 430.8,334 432.5,338.9 434.5,343.5 436.7,347.6 438.1,349.7 
			"/>
	<polyline class="st1" points="425.3,298.8 423.8,301.1 422.9,304 422.6,307.5 422.8,311.4 423.6,315.8 424.9,320.5 426.7,325.4 
		428.8,330.6 431.3,335.9 434.2,341.4 437.3,346.8 440.7,352.3 444.3,357.6 448,362.7 451.9,367.7 455.9,372.3 459.9,376.6 
		463.9,380.4 467.9,383.8 471.9,386.6 475.1,388.5 	"/>
	<polyline class="st1" points="518.9,393.5 513.4,393.4 508,392.9 502.8,392.1 497.8,390.9 492.9,389.4 488.2,387.6 483.5,385.6 
		479,383.4 474.5,380.9 470.1,378.4 465.6,375.7 461.2,372.9 456.8,370 452.4,367.2 449,367.3 448.7,369.7 450.7,372.5 454.7,375.5 
		459.9,378.5 466.1,381.4 472.5,383.9 478.8,386 484.5,387.5 489.3,388.1 494.8,388.5 500,388.8 505.1,388.8 510,388.6 514.9,388.2 
		519.9,387.5 525.1,386.5 530.2,385.4 	"/>
	<polyline class="st1" points="505.2,382.9 511,385 516.3,387 521.3,388.6 525.9,389.9 530.3,390.8 534.5,391.2 538.7,391.1 
		543,390.5 547.4,389.2 551.9,387.2 556.9,384.5 562.2,380.9 567.3,377.1 	"/>
	<polyline class="st1" points="765.1,413.2 764.2,417.8 764.2,422.8 764.8,428.1 766.1,433.4 768.1,438.6 770.6,443.6 773.7,448.1 
		777.2,452 781.1,455.2 785.4,457.5 787.1,458.1 	"/>
	<polyline class="st1" points="764.5,426 764.5,431.2 765.8,435.9 768,440.3 771.1,444.2 774.9,447.6 779.3,450.5 784.2,452.9 
		789.3,454.8 794.6,456.1 800,456.8 805.2,456.9 810.4,456.8 817.8,460.6 822.4,463.1 825.3,464.2 828.4,464.5 833.4,464.4 
		837.2,464.4 	"/>
	<polyline class="st1" points="810.9,456.8 815.7,458.1 820.6,459.4 825.6,460.8 830.5,462.3 835.4,464 840.2,466 844.9,468.3 
		849.4,471 853.7,474.2 857.7,478 857.9,478.1 	"/>
	<polyline class="st1" points="837.2,464.4 840.8,467.1 844.7,470.6 848.6,474.5 852.4,478.9 855.8,483.3 858.7,487.9 860.8,492.3 
		861.6,495.1 	"/>
	<polyline class="st1" points="844.1,470.1 847.9,473 851.6,476.4 855.1,480.2 858.5,484.3 861.5,488.7 864.3,493.4 866.9,498.2 
		869.1,503.2 870.9,508.2 872.4,513.3 873.4,518.3 874,523.2 874.2,525.8 	"/>
	<polyline class="st1" points="857.9,478.1 860,482.5 862.2,487.1 864.2,491.9 866.2,496.8 868.1,501.8 869.9,506.8 871.6,512 
		873.1,517.2 874.4,522.4 875.6,527.6 876.5,532.8 877.2,537.9 877.7,542.9 877.9,547.8 877.9,548.9 	"/>
	<polyline class="st1" points="880.4,559.6 881,564.8 881.4,570.2 881.9,575.6 882.3,580.8 882.9,585.3 	"/>
	<polyline class="st1" points="885.4,640.4 885,635.7 884.7,630.9 884.3,625.8 884,620.6 883.7,615.2 883.5,609.8 883.2,604.2 
		882.9,598.7 882.6,593.1 882.3,587.5 882,581.9 881.6,576.4 881.2,571 880.7,565.7 880.2,560.6 879.7,555.6 879.1,550.8 
		878.4,546.2 877.7,542.3 879.2,546.7 880.3,551.9 881.3,557.3 882.1,562.8 882.9,568.1 883.6,572.1 	"/>
	<polyline class="st1" points="884.6,630.2 883.8,632.1 883.1,635 882.6,638.9 882.2,643.7 882,649.1 881.9,655 881.8,661.4 
		881.9,668 882,674.7 882.1,681.5 882.3,688.1 882.4,694.4 882.6,700.2 882.8,705.6 882.9,710.2 882.9,713.9 882.9,715 	"/>
	<polyline class="st1" points="886.6,672.4 886.9,677.2 887.2,682.3 887.3,687.7 887.1,693.1 886.7,698.6 886,704 884.9,709.2 
		883.3,714.2 881.2,718.8 878.5,722.9 877.7,723.5 879.7,719.5 881.4,715.2 882.9,710.5 884,705.5 885,700.2 885.7,694.7 
		886.2,689.1 886.5,683.3 886.7,677.5 886.6,671.7 886.5,666 886.2,660.4 885.8,654.9 885.3,649.6 884.7,644.7 884,640 883.3,635.7 
		883.2,634.8 	"/>
	<polyline class="st1" points="879.7,721.2 879.8,724.3 878.8,727.6 876.8,731 874,734.5 870.4,738.1 866.1,741.6 861.3,745 
		856.1,748.4 850.6,751.7 844.9,754.8 839.1,757.6 833.3,760.2 827.6,762.5 822.2,764.5 817.1,766.1 812.6,767.3 808.5,768.1 
		808.6,768.9 811.5,768.2 	"/>
	<polyline class="st1" points="854.1,542.1 856.4,546.5 858.4,551.2 860.1,556 861.5,561 862.6,566 863.4,571.2 864,576.4 
		864.2,581.6 864.2,586.9 863.9,592.2 863.4,597.5 862.6,602.7 861.5,607.9 860.2,613 858.6,618.1 856.8,623 854.8,627.8 
		852.5,632.4 850,636.8 849.7,637.3 	"/>
	<polyline class="st1" points="850.4,646.7 848.1,651.2 846.1,656.1 844.5,661.2 843.3,666.4 842.8,671.5 842.8,673 	"/>
	<polyline class="st1" points="851.3,634.7 849.9,637.7 848.3,642.8 846.7,649.1 845.2,655.9 843.9,662.5 843,668.1 842.7,671.9 
		842.8,673 	"/>
	<polyline class="st1" points="843.2,667.2 842.7,671.2 841.3,675.4 839,679.7 835.9,684.2 832.4,688.7 828.4,693.2 824.2,697.6 
		819.8,701.7 815.6,705.7 811.5,709.2 807.8,712.4 804.6,715.1 804,715.6 	"/>
	<polyline class="st1" points="822.6,699.1 819.2,701.9 816,705 812.8,708.3 809.5,711.9 805.9,715.5 801.7,719.1 796.9,722.7 
		791.2,726.1 790.8,726.3 	"/>
	<polyline class="st1" points="811,717.1 804.5,719.9 798.5,722.1 792.9,723.7 787.7,725 782.8,725.9 778.2,726.4 773.9,726.7 
		769.7,726.8 765.6,726.8 766.8,726.3 770.4,725.4 775.6,724.2 782,722.6 788.7,720.7 795.3,718.5 801,716.2 805.2,713.6 
		805.9,713.1 	"/>
	<polyline class="st1" points="782.8,726.4 787.4,724.8 792,722.5 796.7,719.8 801.2,716.8 805.6,713.6 809.7,710.4 813.6,707.4 
		813.7,707.3 	"/>
	<polyline class="st1" points="747.6,735.7 739.4,735.1 734.4,733.5 731.4,731.1 729.4,728.1 727.5,724.6 724.4,720.7 719.6,717.2 
		721.8,721.7 724.7,726.1 728.1,730.3 732.1,733.9 736.5,736.6 741.3,738 743.2,738.2 	"/>
	<polyline class="st1" points="772,726.9 766.2,726.8 760.9,726.6 755.9,726 751.2,725.1 746.7,723.7 742.3,721.8 738,719.1 
		733.6,715.7 727.1,712.7 720.9,713.8 719.5,717 721.2,721.2 724.6,725.2 727.6,727.5 	"/>
	<polyline class="st1" points="733.3,734.8 727,734.9 720.8,734.1 715,732.7 709.5,731.2 704.5,729.8 699.9,729 695.8,729.1 
		692.3,730.5 691.2,731.3 	"/>
	<polyline class="st1" points="697.4,728.9 695.6,729.8 692.2,731.3 688.1,733.8 684.3,737.5 681.7,742.8 681.3,750 683.4,757.5 
		686.8,760.4 689.3,761.4 	"/>
	<polyline class="st1" points="691.2,731.3 687.5,733.9 685.7,738 685.6,743.1 686.8,748.6 689.2,754.1 692.4,759 696.3,762.9 
		700.5,765.3 703.1,765.7 	"/>
	<polyline class="st1" points="689.3,745.1 687.7,747.2 687.8,750.7 689.4,754.9 692.4,759.5 696.6,763.9 702.1,767.7 708.6,770.4 
		710,770.8 	"/>
	<polyline class="st1" points="688.3,752.3 690.1,757.3 692.4,761.9 695.3,766.2 698.5,770.2 702.2,773.7 706.3,776.9 710.6,779.8 
		715.2,782.3 720,784.4 725,786.1 730.1,787.5 735.2,788.6 737.6,788.9 	"/>
	<polyline class="st1" points="731.3,787.8 740.5,787.5 747.8,787.2 753.6,786.8 758.1,786.3 761.7,785.6 764.8,784.8 767.5,783.8 
		770.4,782.5 773.5,781 777.4,779.2 782.4,777 788.6,774.5 796.2,771.8 797.7,771.4 	"/>
	<polyline class="st1" points="773.4,781.1 774.9,780.6 778.7,779.2 784.2,777.3 790.8,775 797.9,772.6 804.8,770.2 810.9,768.2 
		815.5,766.6 818,765.9 818,765.9 	"/>
	<polyline class="st1" points="814.6,500.1 818.4,503 822.3,506.1 826.4,509.4 830.5,512.9 834.7,516.4 838.9,520.1 842.9,523.9 
		846.7,527.8 850.4,531.7 853.7,535.8 856.7,539.9 859.2,544 861,547.7 	"/>
	<polyline class="st1" points="815.9,508.8 819.6,509.9 823.7,512.2 828.2,515.5 832.8,519.7 837.5,524.3 842.2,529.2 846.6,534.1 
		850.7,538.8 854.4,542.9 857.5,546.3 859.9,548.6 861.2,548.9 861,547.7 	"/>
	<polyline class="st1" points="814,569.6 816.3,565.6 819,561.3 822,556.8 825.1,552.1 828.1,547.2 830.8,542.3 832.9,537.4 
		834.4,532.5 835,527.6 834.5,522.9 833.1,522.8 831.6,527.6 829.8,532.5 827.8,537.3 825.5,542.2 823,546.9 820.3,551.6 
		817.4,556.1 814.3,560.4 811.1,564.5 807.8,568.3 804.6,571.5 	"/>
	<polyline class="st1" points="834.6,523.8 832.2,529.6 830,534.5 828.1,538.6 826.2,542.4 824.1,546.1 821.6,550.1 818.5,554.6 
		814.6,560.1 814.5,560.1 	"/>
	<polyline class="st1" points="732,515.1 736.6,516.5 741.3,518.1 746,520 750.7,522 755.4,524.3 760,526.9 764.6,529.6 
		769.1,532.5 773.5,535.6 777.8,538.8 781.9,542.3 785.9,545.9 789.7,549.7 793.3,553.6 796.7,557.6 799.8,561.8 802.7,566.1 
		805.3,570.5 807.6,575 809.6,579.7 811.4,584.4 812.1,585.9 	"/>
	<polyline class="st1" points="743,518.8 744.2,520.9 746.2,523 748.6,525.3 751.6,527.7 755,530.1 758.8,532.7 762.8,535.5 
		767.1,538.4 771.6,541.5 776.1,544.8 780.7,548.3 785.3,551.9 789.7,555.8 794,560 798.1,564.4 801.8,569.1 805.2,574 808.1,579.3 
		810.5,584.8 812.4,590.7 813.6,596.9 814,601.6 	"/>
	<polyline class="st1" points="756.9,531.5 766.2,535.5 774.2,539.8 781.2,544.3 787.1,549 792.2,553.8 796.4,558.7 799.9,563.5 
		802.7,568.4 805,573.1 806.7,577.6 808.1,581.9 809.2,585.9 810,589.7 810.7,593 811.3,595.9 811.9,598.3 812.7,600.1 813.6,601.3 
		814,601.6 	"/>
	<polyline class="st1" points="803.4,584 804.7,589.2 806.1,594.3 807.3,599.4 808.5,604.4 809.5,609.5 810.4,614.5 811.1,619.6 
		811.7,624.6 812.1,629.6 812.2,634.7 812.1,639.7 811.7,644.8 811,649.9 810.1,655 808.8,660.1 807.1,665.3 805.1,670.5 804,673 	
		"/>
	<polyline class="st1" points="805.4,570.7 808.7,575.4 811.5,580.2 813.8,584.9 815.8,589.7 817.4,594.4 818.6,599.2 819.4,604.1 
		819.9,608.9 820.1,613.9 820,618.9 819.6,623.9 818.9,629 817.9,634.2 816.7,639.5 815.3,644.9 814.6,647.3 	"/>
	<polyline class="st1" points="808,574.4 809.5,577.2 810.9,580.7 812.1,584.8 813.1,589.6 814,594.9 814.7,600.6 815.2,606.7 
		815.6,613 815.8,619.4 815.8,625.9 815.7,632.4 815.4,638.7 814.9,644.9 814.2,650.7 813.4,656.2 812.4,661.2 811.3,665.6 
		810,669.3 808.5,672.3 804.8,673.1 804,673 	"/>
	<polyline class="st1" points="854.1,616.6 852.2,617.7 849.5,620 846.4,623.2 842.9,627.3 839,632.1 835,637.2 830.9,642.7 
		826.8,648.2 822.9,653.7 819.2,658.9 815.9,663.6 813.1,667.7 810.8,671 808.9,673.2 807.9,673.3 	"/>
	<polyline class="st1" points="841.4,629.1 838.8,633.6 835.9,637.9 832.9,642.3 829.8,646.6 826.5,650.9 823.2,655.2 819.8,659.5 
		816.4,663.7 813.1,668 809.8,672.2 806.7,676.5 803.6,680.7 800.7,684.9 798.1,689.2 795.6,693.5 793.5,697.8 791.6,702.1 
		791.5,702.5 	"/>
	<polyline class="st1" points="807.4,664.5 804.7,667.9 801.9,671.7 799.1,676 796.3,680.6 793.5,685.5 790.8,690.6 788.3,695.8 
		785.9,701.1 783.7,706.4 781.8,711.6 780.1,716.6 778.8,721.3 777.9,725.8 777.5,729 	"/>
	<polyline class="st1" points="857.2,606 855.3,610.7 853.2,615.5 850.7,620.2 848,624.7 844.9,628.9 841.4,632.7 837.4,636 
		837.1,636.2 	"/>
	<polyline class="st1" points="852,617.8 849.4,623.6 846.9,628.1 844.5,631.7 841.7,634.8 838.4,638.1 834.3,641.8 831,645 	"/>
	<polyline class="st1" points="803.4,685.5 800,689.9 796.9,694.5 793.8,699.2 790.9,704 788.1,708.6 785.3,712.9 782.5,716.8 
		779.6,720 779,720.6 	"/>
	<polyline class="st1" points="748,524.7 745.5,525.3 742.6,526.7 739.3,528.8 735.8,531.5 732.1,534.8 728.1,538.6 724.1,542.7 
		719.9,547.3 715.8,552.1 711.7,557.2 707.7,562.4 703.8,567.6 700.1,572.9 696.7,578.1 693.5,583.2 690.8,588.1 688.4,592.7 
		686.5,596.9 685.1,600.8 684.3,604.1 	"/>
	<polyline class="st1" points="734.9,532.3 731.3,535.8 727.7,539.5 724.2,543.3 720.7,547.1 717.3,551 713.9,555.1 710.6,559.2 
		707.5,563.4 704.4,567.7 701.4,572 698.5,576.5 695.8,581 693.1,585.5 690.6,590.2 688.2,594.9 686,599.6 684,604.4 682.1,609.3 
		680.4,614.2 678.8,619.1 677.5,624.1 676.3,629.1 675.4,634.2 674.6,639.3 674.3,642.3 	"/>
	<polyline class="st1" points="726.7,540 723.5,542.5 720.4,545.5 717.5,548.9 714.7,552.7 712,556.8 709.5,561.3 707.1,566 
		704.8,571 702.6,576.1 700.6,581.5 698.6,587 696.8,592.6 695.1,598.3 693.5,604 692.1,609.7 690.7,615.4 689.4,621 688.2,626.5 
		687.1,631.9 686.1,637.1 685.2,642.1 684.3,646.9 683.6,651.3 682.9,655.5 682.5,658.6 	"/>
	<polyline class="st1" points="684.3,617.2 682.4,619.5 680.8,623 679.4,627.4 678.3,632.7 677.3,638.6 676.6,644.9 676,651.5 
		675.6,658 675.3,664.4 675.1,670.5 675,676 674.9,680.8 674.9,684.6 674.9,686.2 	"/>
	<polyline class="st1" points="674.6,639.3 673.2,632.2 672.1,625.9 671.1,620.5 670.3,615.6 669.5,611.3 668.6,607.4 667.5,603.7 
		666.1,600.2 664.4,596.7 662.1,593.1 659.3,589.2 655.9,585 651.6,580.4 646.6,575.1 647.4,576.8 650.8,581.6 654,586.3 657,590.9 
		659.8,595.5 662.3,600 664.7,604.5 666.8,609 668.8,613.4 670.5,617.9 672.1,622.3 673.5,626.8 674.7,631.3 675.7,635.8 
		676.6,640.4 677.3,645.1 677.9,649.9 678.2,654.7 678.5,659.6 678.6,664.7 678.6,669.9 678.4,675.2 678.1,680.6 677.7,686.3 
		677.1,692.1 676.4,698 675.7,704.2 675.6,705 	"/>
	<polyline class="st1" points="667.4,642.9 668.9,647.4 670.1,652.1 671.1,656.9 671.9,661.8 672.4,666.8 672.8,671.9 672.9,677.1 
		672.9,682.3 672.7,687.6 672.3,693 671.7,698.4 670.9,703.8 670,709.2 669,714.6 667.8,720 666.4,725.4 665,730.7 663.4,736 
		661.7,741.2 659.8,746.3 657.9,751.3 655.9,756.3 653.8,761.1 651.6,765.7 649.4,770.2 647,774.6 644.7,778.8 642.2,782.8 
		641.1,784.5 	"/>
	<polyline class="st1" points="651.8,765.4 649.5,770.9 647.2,776.2 645.1,781.2 642.9,786 640.9,790.7 638.8,795.2 636.8,799.6 
		634.7,803.9 632.7,808.1 630.6,812.4 628.5,816.6 626.3,820.9 624.1,825.2 621.7,829.6 619.3,834.1 616.8,838.8 614.1,843.6 
		611.3,848.7 608.4,853.9 605.8,858.9 603.5,863.5 602.3,866 	"/>
	<polyline class="st1" points="641.1,784.5 638.5,789.4 635.8,794.2 633.2,798.9 630.6,803.5 627.9,808.1 625.3,812.6 622.7,817.1 
		620.1,821.5 617.5,825.9 614.9,830.2 612.3,834.6 607,843.2 604.4,847.6 601.8,851.9 599.1,856.3 596.5,860.7 593.9,865.2 
		591.2,869.7 588.5,874.3 585.9,878.9 585.4,879.8 	"/>
	<polyline class="st1" points="610.3,837.8 607.9,842.3 605.4,846.9 603,851.6 600.6,856.2 598.2,860.8 595.8,865.4 593.5,870.1 
		591.1,874.7 588.8,879.4 586.4,884 584.1,888.7 581.8,893.3 579.4,898 577.1,902.7 574.7,907.3 572.8,911.1 	"/>
	<polyline class="st1" points="584.8,887.3 584.1,889.7 582.8,893 580.8,897.1 578.4,901.8 575.6,907.1 572.5,912.7 569.1,918.5 
		565.7,924.3 562.4,930.1 559.1,935.5 556.1,940.5 553.3,944.9 551,948.6 549.3,951.4 549,951.8 	"/>
	<polyline class="st1" points="542.1,952.5 548.1,950.3 553.5,948 558.4,945.6 562.8,943.1 566.8,940.5 570.5,937.6 573.9,934.6 
		577.1,931.4 580.2,927.9 583.3,924.1 586.3,920 589.3,915.5 592.5,910.7 594.4,908.9 593.5,913.5 592.5,918.4 591.6,923.5 
		590.8,928.8 590,934.2 589.3,939.6 588.6,945.2 587.9,950.7 587.4,956.2 586.9,961.7 586.5,967 586.3,972.2 586.1,977.2 586,981.9 
		586,985.1 	"/>
	<polyline class="st1" points="589.9,935.1 589.2,938 588.8,941.9 588.4,946.6 588.1,952.1 588,958.2 588,964.6 588,971.3 
		588.2,977.9 588.5,984.4 588.8,990.7 589.3,996.4 589.9,1001.5 590.5,1005.7 591.2,1009 591.6,1010.1 	"/>
	<polyline class="st1" points="689.3,852.8 686.4,854.8 683.2,857.2 679.9,860 676.5,863.2 673,866.7 669.4,870.5 665.7,874.6 
		662,879 658.3,883.5 654.6,888.2 650.9,893 647.2,898 643.7,903 640.2,908.1 636.8,913.2 633.5,918.2 630.4,923.2 627.5,928.1 
		624.8,932.9 622.3,937.6 620,942 617.9,946.2 616.2,950.2 614.8,953.9 613.6,957.2 613.5,957.5 	"/>
	<polyline class="st1" points="656.1,894.8 652.1,899.6 648.2,904.1 644.6,908.3 641.1,912.4 637.8,916.3 634.7,920.1 631.7,923.8 
		628.9,927.5 626.1,931.1 623.5,934.8 620.9,938.5 618.4,942.4 615.9,946.3 613.4,950.4 611,954.7 608.6,959.3 606.1,964.1 
		603.6,969.2 601.1,974.7 598.5,980.5 596,985.5 591.3,994.8 589.5,998.4 	"/>
	<polyline class="st1" points="641.6,906 644,900.8 646.6,895.8 649.5,891.2 652.6,887 655.9,882.9 659.4,879.2 663.1,875.6 
		666.9,872.3 670.9,869.1 674.9,866.1 679.1,863.3 683.4,860.5 687.7,857.8 692.1,855.2 696.5,852.6 701,849.9 705.4,847.3 
		709.9,844.7 714.3,841.9 718.7,839.1 720.7,837.8 	"/>
	<polyline class="st1" points="670.6,880.4 674.6,875.8 678.3,871.7 681.8,868.1 685.2,864.7 688.6,861.6 692.1,858.6 695.7,855.6 
		699.7,852.4 704,849.1 708.8,845.3 709.1,845.2 	"/>
	<polyline class="st1" points="720.7,837.8 723.2,838.1 727.1,837.3 732,835.8 737.7,833.7 743.9,831.1 750.1,828.4 756.1,825.6 
		761.5,823 766.1,820.9 769.5,819.3 770.2,819 	"/>
	<polyline class="st1" points="742.3,831.8 746.1,829.7 750.3,827.9 755,826.2 760,824.8 765.4,823.4 770.9,822.3 776.6,821.3 
		782.4,820.5 788.1,819.8 793.7,819.2 799.1,818.8 804.3,818.6 809.1,818.4 813.5,818.4 814,818.4 	"/>
	<polyline class="st1" points="770.8,822.3 776,821.7 781.2,821.3 786.4,821.1 791.6,821.3 796.8,821.8 802,822.6 807.1,823.6 
		812.1,825 817,826.7 821.8,828.7 826.4,831.1 830.9,833.8 832.2,834.7 	"/>
	<polyline class="st1" points="784.6,821.2 787.6,822.1 791.7,823.6 796.5,825.6 801.8,827.9 807.4,830.4 813.1,833.1 818.8,835.7 
		824,838.1 828.7,840.2 832.7,841.9 833.4,842.2 	"/>
	<polyline class="st1" points="670.1,869.7 672.1,869.1 674.8,868 678,866.4 681.9,864.5 686.2,862.2 690.9,859.7 696.1,856.9 
		701.5,854 707.2,850.9 713,847.8 719.1,844.7 725.1,841.6 731.2,838.6 737.2,835.7 743.1,833.1 748.9,830.7 754.4,828.6 
		759.6,826.8 764.4,825.5 768.8,824.7 772.7,824.3 776.1,824.5 778.2,825.1 	"/>
	<polyline class="st1" points="712.3,843.2 715.7,840.8 719.6,838.5 723.9,836.4 728.6,834.4 733.7,832.6 739,830.9 744.5,829.3 
		750.1,827.9 755.8,826.5 761.4,825.3 767,824.1 772.5,823.1 777.7,822.1 782.7,821.1 787.4,820.3 791.6,819.5 792,819.4 	"/>
	<polyline class="st1" points="794.2,824.6 799.3,826 802.8,826.5 805.9,826.8 809.6,827.6 814.9,829.5 823,833.2 828.5,835.9 
		833.3,838.2 838.1,840.5 842.8,842.9 847.3,845.4 850.4,847.2 	"/>
	<polyline class="st1" points="833.4,842.2 838.4,844.8 842.6,846.6 846.3,848.1 849.7,849.5 853,851.2 856.4,853.7 860.1,857.2 
		864.2,862.2 869.1,868.9 872.4,874.3 875.4,879.5 878,884.2 879.2,886 	"/>
	<polyline class="st1" points="836.6,843.9 841.7,847.5 846.4,851.2 850.6,855 854.6,858.8 858.2,862.8 861.6,866.8 864.7,870.8 
		867.6,875 870.4,879.1 873.1,883.3 875.7,887.5 878.2,891.8 880.7,896 883.3,900.2 885.9,904.4 888.7,908.5 891.5,912.6 
		894.6,916.7 897.8,920.6 900.5,923.6 	"/>
	<polyline class="st1" points="842,847.7 842.6,848.7 843.7,850.5 845.4,852.9 847.6,856 850.2,859.6 853.2,863.6 856.5,868.1 
		860.2,873 864,878.1 868,883.4 872.2,889 876.4,894.6 880.6,900.2 884.9,905.8 889,911.3 893,916.6 896.9,921.7 900.4,926.5 
		903.8,930.9 906.7,935 909.3,938.5 911.5,941.5 913,943.7 	"/>
	<polyline class="st1" points="905.3,933 908.5,935.5 912.2,938.7 916.3,942.3 920.7,946.3 925.2,950.6 929.9,955 934.5,959.4 
		939.2,963.8 943.6,968 947.8,971.9 951.7,975.4 955.2,978.3 958.2,980.6 960.5,982.2 961.2,982.5 	"/>
	<polyline class="st1" points="905.5,941.2 908.7,943.7 912.3,946.7 916.2,949.9 920.4,953.4 924.7,957 929.3,960.8 934,964.6 
		938.8,968.3 943.5,972 948.3,975.5 953,978.8 957.5,981.7 961.9,984.3 966.1,986.5 970,988.2 973.6,989.3 974.4,989.4 	"/>
	<polyline class="st1" points="917.5,951 921.6,954.8 925.5,958.2 929.4,961.4 933.3,964.6 937.3,967.6 941.5,970.6 945.8,973.7 
		947.8,975.2 	"/>
	<polyline class="st1" points="961.2,982.5 964.1,986.8 968.1,989.8 972.9,992 978.2,993.5 983.7,994.5 989.1,995.2 994.1,995.8 
		997.6,996.3 	"/>
	<polyline class="st1" points="974.4,989.4 979.8,991.1 985.1,992.3 990.1,992.9 995,993 999.8,992.5 1004.5,991.3 1009.2,989.4 
		1013.8,986.7 1018.3,983 1022.7,980.5 1028,980.1 1033.6,981.3 1038.7,983.6 1042.6,986.3 1043.9,987.6 	"/>
	<polyline class="st1" points="1027.8,980 1031.9,981.7 1037,983.8 1042.8,986 1048.5,988.1 1053.8,989.7 1057.9,990.6 1059,990.7 
		1064.3,989.6 1069.4,988.8 1074.4,988 1079.2,987.2 1084.1,986.4 1089.1,985.4 1094.3,984.3 1099.7,982.9 1101.9,984.2 
		1106.1,984.4 1112.3,984 1119.2,984.2 1120.4,984.4 	"/>
	<polyline class="st1" points="1083.3,986.5 1087.9,987.1 1092.3,987.1 1096.6,986.7 1101,986 1105.4,985.3 1110,984.6 
		1114.9,984.2 1120.2,984.1 1126,984.7 1132.3,986 1139.2,988.1 1141,988.8 	"/>
	<polyline class="st1" points="1125.4,984.6 1130.1,986.7 1134.8,988.8 1139.6,991 1144.1,993.4 1148.4,996.1 1152.4,999.1 
		1155.9,1002.6 1158.8,1006.6 1161.1,1011.3 1162.5,1016.7 1163,1020.8 	"/>
	<polyline class="st1" points="1136.9,989.7 1141.5,991.7 1145.8,994.4 1149.8,997.8 1153.3,1001.6 1156.3,1006 1158.7,1010.7 
		1160.5,1015.7 1161.5,1020.8 1161.6,1022.8 1158.3,1026.7 1154.5,1030.4 1150.3,1033.7 1145.7,1036.6 1141,1038.9 1136.2,1040.5 
		1134.8,1040.8 	"/>
	<polyline class="st1" points="1153.4,1031.3 1149.9,1032.8 1145.1,1035.2 1139.6,1037.8 1133.8,1040 1128.5,1041.1 1124.1,1040.5 
		1123.5,1040.2 	"/>
	<polyline class="st1" points="1110.3,1010.7 1115.3,1013.9 1118.7,1018.1 1120.6,1023 1121.2,1028.3 1120.7,1033.8 1119.2,1039.2 
		1117,1044.3 1114.1,1048.7 1110.7,1052.1 1107,1054.4 1104.1,1055.2 	"/>
	<polyline class="st1" points="1117.3,1016 1119.9,1019.9 1121,1024.3 1120.8,1029.1 1119.5,1034.1 1117.3,1039.1 1114.4,1044 
		1110.9,1048.5 1107.1,1052.6 1104.1,1055.2 	"/>
	<polyline class="st1" points="1120.6,1034.4 1121.1,1038.9 1119.7,1043.4 1116.8,1047.7 1112.9,1051.6 1108.2,1055 1103.1,1057.6 
		1098.1,1059.4 1093.4,1060.2 	"/>
	<polyline class="st1" points="1050.2,1031.4 1050.2,1035.3 1051.5,1039.2 1053.8,1043 1057.1,1046.6 1061.1,1049.8 1065.8,1052.5 
		1071,1054.6 1076.5,1056 1082.3,1056.5 1088.1,1056.1 1093.9,1054.5 1093.8,1055.3 1088.7,1058 1083.7,1059.7 1079,1060.4 
		1074.4,1060.2 1069.9,1059.1 1065.6,1057.3 1061.3,1054.7 1057,1051.5 1052.9,1047.8 1049.6,1044.6 	"/>
	<polyline class="st1" points="1064,1046.5 1067.3,1049.1 1071.7,1051.5 1076.9,1053.5 1082.4,1055 1088.2,1055.8 1093.8,1055.8 
		1098.9,1054.7 1103.2,1052.5 1106.5,1049 1107.3,1047.3 	"/>
	<polyline class="st1" points="1052.4,1041 1049.1,1036.6 1047.8,1031.9 1048,1027.1 1049.6,1022.4 1052.3,1017.7 1055.6,1013.3 
		1059.5,1009.3 1063.5,1005.8 1067.4,1002.8 1067.8,1002.6 	"/>
	<polyline class="st1" points="1050.2,1031.4 1048,1027.8 1047.4,1023.7 1048.3,1019.4 1050.5,1015.1 1053.6,1010.8 1057.7,1006.8 
		1062.3,1003.3 1067.5,1000.2 1072.9,998 1078.3,996.6 1081.5,996.3 	"/>
	<polyline class="st1" points="1067.8,1002.6 1070.8,1002.8 1074.5,1002 1078.9,1000.5 1083.6,998.9 1088.6,997.8 1093.8,997.5 
		1098.9,998.7 1103.9,1001.9 1108.5,1007.5 1110.3,1010.7 	"/>
	<polyline class="st1" points="1080.6,999.9 1083.5,1001.7 1086.7,1002.5 1090.3,1003 1094.5,1003.7 1099.4,1005.2 1105.1,1008.2 
		1111.6,1013.3 1117.3,1016 	"/>
	<polyline class="st1" points="759.5,942.4 760.9,946.5 762.8,951 765.1,955.7 767.7,960.6 770.7,965.6 773.9,970.4 777.4,975.1 
		780.9,979.5 784.6,983.4 788.4,986.7 792.1,989.3 794.6,990.7 	"/>
	<polyline class="st1" points="760.1,933.7 759.8,937.1 760.1,940.9 761.1,944.9 762.7,949.2 764.8,953.8 767.3,958.4 770.2,963.3 
		773.5,968.1 777.1,973.1 781,978 785,982.9 789.1,987.7 793.3,992.4 797.5,996.9 801.6,1001.2 805.6,1005.2 809.5,1009 
		813.2,1012.4 816.6,1015.4 819.6,1018 822.2,1020.1 	"/>
	<polyline class="st1" points="758.9,955.6 760.4,958.4 762.3,961.6 764.6,965 767.3,968.6 770.4,972.5 773.8,976.6 777.4,980.8 
		781.4,985.1 785.5,989.6 789.8,994.1 794.2,998.6 798.8,1003.1 803.5,1007.6 808.2,1012 812.9,1016.3 817.6,1020.4 822.2,1024.4 
		826.8,1028.2 831.3,1031.8 835.6,1035.2 839.7,1038.2 843.7,1040.9 847.4,1043.2 850.8,1045.2 853.9,1046.8 856.6,1047.9 
		861.1,1049.7 860.4,1051.5 	"/>
	<polyline class="st1" points="817.8,1027 821.7,1029.4 825.8,1031.7 830.2,1034.1 834.8,1036.4 839.6,1038.7 844.6,1040.9 
		849.6,1043.1 854.8,1045.2 860,1047.2 865.3,1049 870.6,1050.7 875.9,1052.3 881.2,1053.7 886.4,1054.9 891.5,1056 896.5,1056.8 
		901.4,1057.3 906,1057.7 909.2,1057.7 	"/>
	<polyline class="st1" points="821.9,1029.5 824.1,1030.7 826.9,1032.1 830.5,1033.4 834.6,1034.9 839.3,1036.3 844.4,1037.8 
		849.9,1039.3 855.7,1040.8 861.8,1042.3 868.1,1043.8 874.5,1045.3 881,1046.7 887.5,1048 893.9,1049.3 900.2,1050.4 906.3,1051.5 
		912.2,1052.5 917.7,1053.3 922.8,1054 927.4,1054.6 931.5,1055 935.1,1055.2 937.4,1055.2 	"/>
	<polyline class="st1" points="883.5,1054.3 886.4,1053.5 889.8,1053.2 893.8,1053.2 898.3,1053.5 903.2,1054.1 908.4,1054.7 
		914,1055.5 919.7,1056.3 925.7,1057.1 931.7,1057.8 937.8,1058.4 943.8,1058.7 949.7,1058.8 955.5,1058.5 961.1,1057.9 
		966.3,1056.7 971.3,1055.1 973.8,1054 	"/>
	<polyline class="st1" points="917.4,1053.3 920.9,1053.4 925.2,1053.5 930.1,1053.7 935.6,1053.9 941.4,1054.1 947.6,1054.2 
		953.9,1054.4 960.4,1054.5 966.8,1054.6 973.1,1054.6 979.2,1054.5 984.9,1054.4 990.3,1054.1 995,1053.8 999.2,1053.3 
		1002.5,1052.7 1004.5,1052.1 	"/>
	<polyline class="st1" points="972.5,1054.6 977.6,1055 982.8,1055.1 988,1055.1 993.2,1054.8 998.4,1054.3 1003.6,1053.7 
		1008.8,1053 1014,1052.2 1019.1,1051.3 1024.2,1050.4 1025.1,1050.2 	"/>
	<polyline class="st1" points="1024.2,1048.6 1029.9,1047.6 1034.9,1047.1 1039.7,1046.7 1044.5,1046 1049.3,1044.7 1043.7,1047.1 
		1037.4,1049 1030.7,1050.3 1023.9,1051.3 1017.4,1051.9 1011.3,1052.3 1006.1,1052.5 1002.1,1052.6 999.6,1052.6 998.8,1052.7 	"/>
	<polyline class="st1" points="593.7,990.2 595.7,993.9 598,998.5 600.6,1003.5 603.6,1008.6 606.9,1013.5 610.5,1017.7 614.4,1021 
		618.6,1022.9 621.1,1023.3 	"/>
	<polyline class="st1" points="641.1,1038.3 635.9,1037.9 630.9,1036.4 626.3,1034 622,1030.7 618,1026.8 614.5,1022.4 
		611.4,1017.6 608.7,1012.6 606.5,1007.5 604.9,1002.4 603.8,997.6 603.3,993.1 603.4,989.1 602.6,991.1 602.2,995.2 602.8,999.4 
		604.1,1003.6 606.1,1007.7 608.8,1011.8 612.1,1015.8 616,1019.6 620.3,1023.1 625,1026.3 630.1,1029.2 635.4,1031.6 641,1033.5 
		646.7,1034.9 652.4,1035.7 656.8,1035.8 	"/>
	<polyline class="st1" points="629.5,1035.8 633.9,1037 638.6,1038.1 643.7,1039.2 649.1,1040.2 654.6,1041.1 660.3,1041.8 
		665.9,1042.3 671.5,1042.5 677,1042.4 682.3,1042 687.2,1041.3 691.8,1040.1 695,1038.9 	"/>
	<polyline class="st1" points="650.5,1035.5 655.3,1036.9 660.2,1038.1 665.2,1039.2 670.4,1040 675.6,1040.7 680.9,1041.2 
		686.2,1041.5 691.6,1041.6 696.9,1041.5 702.3,1041.2 707.6,1040.7 712.8,1040 718,1039.2 723.1,1038.1 728,1036.9 732.8,1035.5 
		735.7,1034.6 	"/>
	<polyline class="st1" points="686.2,1041.5 690.4,1039.9 694.6,1038.9 699,1038.1 703.6,1037.4 708.7,1036.4 714.3,1035.1 
		720.6,1033 726.3,1030.8 731,1028.8 735.9,1026.8 740.8,1024.8 745.7,1022.7 750.6,1020.7 755.4,1018.5 760,1016.4 761.4,1015.8 	
		"/>
	<polyline class="st1" points="723.7,1031.8 726,1033.3 729.4,1033.3 733.7,1032 738.7,1029.8 744.3,1026.8 750.1,1023.3 
		755.9,1019.5 761.5,1015.6 766.7,1011.8 771.3,1008.5 774.9,1005.8 777.5,1004 777.7,1003.8 	"/>
	<polyline class="st1" points="756.9,1018.8 759.5,1017.1 763.1,1014.5 767.5,1011.1 772.4,1007.3 777.3,1003.5 782,1000 
		786.3,997.1 786.5,997 	"/>
	<polyline class="st1" points="752,1022 751.7,1024.5 750.3,1027.4 748,1030.6 745,1034.1 741.4,1038 737.5,1042.3 733.5,1046.8 
		729.6,1051.7 725.9,1056.8 722.6,1062.3 720,1068 718.8,1071.5 	"/>
	<polyline class="st1" points="750.8,1026.5 747.8,1028.1 744.6,1030.5 741.2,1033.7 737.8,1037.5 734.3,1041.8 730.9,1046.5 
		727.7,1051.5 724.6,1056.8 721.8,1062.2 719.2,1067.6 717,1073 715.3,1078.2 714,1083.1 713.3,1087.7 713.2,1090.9 	"/>
	<polyline class="st1" points="718.8,1071.5 716.8,1074.4 715,1078.8 713.6,1084.3 712.6,1090.3 712.3,1096.3 712.8,1101.9 
		714.3,1106.4 714.4,1106.6 	"/>
	<polyline class="st1" points="706.9,1095.3 708.2,1100.8 711.3,1104.2 715.7,1106 721,1106.5 726.5,1106 731.8,1104.8 
		735.7,1103.5 	"/>
	<polyline class="st1" points="721.3,1100.9 722.6,1104.6 726.5,1106.1 732.1,1106 738.4,1104.8 744.6,1102.9 749.8,1101 
		752.6,1099.7 750.9,1098.7 754.6,1097.1 761.6,1092.5 762.7,1091.6 	"/>
	<polyline class="st1" points="801.5,1042.1 796.2,1041.7 790.9,1041.4 785.7,1041.3 780.6,1041.6 775.8,1042.5 771.3,1044.1 
		767.3,1046.6 763.8,1050.2 761,1055 759.1,1060.8 758.9,1064.6 	"/>
	<polyline class="st1" points="793.9,1041.5 788.9,1040 784,1040 779.3,1041.2 774.9,1043.6 770.8,1046.9 767.2,1050.9 
		764.1,1055.5 761.6,1060.5 759.9,1065.7 758.9,1070.9 758.9,1075.9 759.5,1079.7 	"/>
	<polyline class="st1" points="783.2,1041.4 781.3,1043.4 778.9,1045.2 776.2,1047 773.2,1049.1 770.2,1051.8 767.2,1055.5 
		764.4,1060.2 761.9,1066.4 759.8,1074.4 758.4,1084.3 758.3,1089.7 759.7,1094.1 	"/>
	<g>
		<g>
			<defs>
				<rect id="SVGID_1_" width="1173" height="1119"/>
			</defs>
			<clipPath id="SVGID_2_">
				<use xlink:href="#SVGID_1_"  style="overflow:visible;"/>
			</clipPath>
			<polyline class="st2" points="759.2,1078.1 761,1082 762.2,1086.4 763,1090.9 764,1095.5 765.4,1099.9 767.6,1103.9 
				771.2,1107.1 776.3,1109.5 783.5,1110.8 787.3,1111 787.5,1111.9 789.3,1113.2 792.7,1114.4 797.9,1115 805,1114.5 814.3,1112.1 
				823.6,1108.6 824,1108.5 			"/>
		</g>
		<g>
			<defs>
				<rect id="SVGID_3_" width="1173" height="1119"/>
			</defs>
			<clipPath id="SVGID_4_">
				<use xlink:href="#SVGID_3_"  style="overflow:visible;"/>
			</clipPath>
			<polyline class="st3" points="782,1110.7 791.9,1112 799.3,1112.2 804.9,1111.6 809.1,1110.6 812.5,1109.4 815.7,1108.5 
				819,1108 823.1,1108.3 824,1108.5 			"/>
		</g>
	</g>
	<polyline class="st1" points="793.9,1041.5 790.6,1042.5 791.4,1042.6 795.3,1042.5 801.3,1042.5 808.5,1043.2 815.9,1045.2 
		820.9,1047.7 	"/>
	<polyline class="st1" points="814.2,1044.6 817.5,1045.4 821.2,1047.4 825,1050.3 828.7,1053.9 832,1058.3 834.8,1063.1 
		836.7,1068.2 837.5,1073.6 837,1079.1 835,1084.4 831.1,1089.5 830.9,1089.7 	"/>
	<polyline class="st1" points="824.7,1055.2 829.3,1062.3 832.3,1068.7 833.7,1074.6 833.9,1079.9 833.1,1084.7 831.6,1089.2 
		829.7,1093.3 827.5,1097.2 825.4,1100.9 823.6,1104.6 822.4,1108.2 822.2,1109.2 	"/>
	<polyline class="st1" points="833.5,1073.6 831.5,1077.7 830.7,1081.5 830.3,1085.2 829.5,1089 827.3,1093.2 823,1098 
		815.9,1103.5 	"/>
	<polyline class="st1" points="832.5,1069.3 837.1,1069.2 842.3,1067.8 847.6,1065.6 852.5,1063.1 856.7,1060.6 857.2,1060.2 	"/>
	<polyline class="st1" points="844.9,1064.8 849.6,1061.2 854,1058.5 858.2,1056.3 862.4,1054.3 866.5,1051.9 870.7,1048.8 
		874.4,1045.2 	"/>
	<polyline class="st1" points="1067.8,804.6 1063.3,804.8 1058.8,805.4 1054.1,806.6 1049.4,808.1 1044.6,810.1 1039.8,812.4 
		1035,815 1030.3,817.9 1025.6,821.1 1021,824.5 1016.5,828.1 1012.2,831.8 1008,835.7 1004.1,839.7 1000.3,843.7 996.8,847.7 
		993.6,851.7 990.6,855.7 988,859.6 985.8,863.4 985.1,864.7 	"/>
	<polyline class="st1" points="1051.5,812.1 1048.9,812.5 1045.9,813.6 1042.6,815.2 1039,817.4 1035.2,820 1031.1,823.1 
		1026.8,826.6 1022.4,830.5 1017.9,834.6 1013.3,839 1008.7,843.5 1004.1,848.2 999.5,853 995,857.9 990.7,862.7 986.5,867.5 
		982.6,872.1 978.9,876.6 975.5,880.9 972.4,885 969.7,888.7 967.4,892.1 965.5,895 963.5,898.8 961.2,903.5 959.4,907.8 
		957.7,912.6 956.9,914.9 	"/>
	<polyline class="st1" points="1021.5,831.2 1020.4,831.9 1018.5,833.5 1016.1,835.8 1013.1,838.9 1009.7,842.6 1006,846.8 
		1001.9,851.4 997.5,856.4 993.1,861.6 988.5,867 983.9,872.5 979.3,877.9 974.8,883.2 970.5,888.3 966.5,893.1 962.8,897.5 
		959.5,901.5 956.7,904.8 954.4,907.5 952.7,909.5 949.5,913.4 946.8,916.8 	"/>
	<polyline class="st1" points="964.6,896.6 965,899.9 963.9,903.7 961.7,907.9 958.5,912.3 954.5,916.8 950.1,921.4 945.4,925.9 
		940.6,930.1 936.1,934.1 932,937.7 928.6,940.8 926.2,943.1 	"/>
	<polyline class="st1" points="949.2,922.2 946,926.7 942.8,930.7 939.4,934.4 935.6,937.6 931.4,940.4 926.5,942.9 926.2,943.1 	
		"/>
	<polyline class="st1" points="930.7,940.8 926.6,944.5 923.1,947.4 918.7,950.4 917.5,951 	"/>
	<polyline class="st1" points="818.4,759.5 820.5,762.2 822.7,765.1 825.2,768.2 827.8,771.5 830.6,775.1 833.3,778.9 836.2,782.9 
		838.9,787.1 841.7,791.6 844.3,796.3 846.8,801.3 849.2,806.5 851.3,811.9 853.1,817.6 854.7,823.5 855.9,829.6 856.8,836 
		857.2,842.7 857.2,843.1 	"/>
	<polyline class="st1" points="843.1,779.5 845.4,785.2 847.4,789.9 849,793.9 850.5,797.5 851.6,800.8 852.6,804 853.5,807.4 
		854.2,811.2 854.8,815.6 855.4,820.9 856,827.2 856.6,834.7 857.2,843.7 857.7,850.3 857.9,854.8 856.7,849.7 855.9,844.9 
		855.3,840.1 854.5,835.1 853.6,830 852.5,824.8 851.2,819.6 849.7,814.3 848.1,809.1 846.2,803.9 844.2,798.8 842,793.8 839.6,789 
		837,784.4 834.3,780 831.3,775.9 828.2,772.1 824.9,768.7 824.6,768.5 	"/>
	<polyline class="st1" points="903.6,827.1 899.3,830.3 894.7,832.6 889.8,833.8 884.7,834.3 879.6,834 874.4,833 869.3,831.5 
		864.3,829.4 859.6,827 855.3,824.2 852,821.6 856.9,824.5 861.7,827.1 866.5,829.2 871.2,831 876,832.3 880.8,833.2 885.6,833.6 
		890.5,833.4 895.6,832.7 900.7,831.4 906.1,829.6 907.4,829 	"/>
	<polyline class="st1" points="881.1,852.2 887.1,855.9 892,858.9 896,861.3 899.5,863.1 902.9,864.5 906.6,865.5 910.9,866.1 
		916.2,866.5 922.9,866.6 927.4,866.6 	"/>
	<polyline class="st1" points="890.5,853.5 895.3,858 898.6,860.8 901.6,862.7 905.6,864.1 911.9,865.9 913.7,866.3 	"/>
	<polyline class="st1" points="879.2,886 880.2,888.1 884,888.5 889.7,887.5 896.2,885.6 902.5,883.2 907.8,880.7 911.9,878 
		916.2,875.1 920.4,872.1 921.8,871 	"/>
	<polyline class="st1" points="886.1,888.2 890.1,886.1 894.7,883.7 899.8,880.9 905.1,878 910.4,875.1 915.5,872.4 920.2,870 
		924.3,868 927.4,866.6 	"/>
	<polyline class="st1" points="907.4,829 911.3,826.7 915.4,824.2 919.7,821.6 924.2,818.9 928.7,816.1 933.4,813.3 938.1,810.5 
		942.9,807.6 947.8,804.9 952.6,802.1 957.5,799.4 962.4,796.9 967.3,794.4 972.1,792.1 976.8,790 981.5,788.1 986,786.4 
		990.5,784.9 993.3,784.2 990.2,785.5 986.3,787.3 981.9,789.3 976.9,791.5 971.5,794 965.8,796.6 959.9,799.4 953.9,802.2 
		948,805.1 942.2,807.9 936.7,810.7 931.5,813.4 926.9,815.9 922.8,818.2 919.5,820.3 917,822 916.1,822.8 	"/>
	<polyline class="st1" points="972.7,793.4 974.1,793.5 976.3,793.1 979.2,792.5 982.7,791.6 986.8,790.4 991.5,789 996.6,787.4 
		1002.1,785.6 1007.9,783.6 1014,781.6 1020.4,779.4 1026.8,777.1 1033.4,774.8 1040,772.5 1046.6,770.2 1053.1,767.9 1059.4,765.6 
		1065.5,763.4 1071.3,761.4 1076.7,759.4 1081.8,757.7 1086.4,756.1 1090.5,754.7 1093.9,753.6 1096.7,752.7 1097.2,752.6 	"/>
	<polyline class="st1" points="990.4,789.3 993.2,787.1 996.5,785 1000.1,782.9 1004.1,780.9 1008.4,778.9 1013,777.1 1017.9,775.3 
		1023,773.6 1028.3,772 1033.8,770.4 1039.5,769 1045.2,767.6 1051.1,766.3 1057.1,765 1063,763.9 1069,762.8 1075,761.8 
		1080.9,760.9 1086.8,760.1 1092.5,759.3 1098.2,758.7 1103.6,758.1 1108.9,757.6 1113.9,757.2 1118.7,756.8 1123.3,756.6 
		1127.5,756.4 1131.4,756.4 1132.9,756.3 	"/>
	<polyline class="st1" points="1038.5,769.2 1042.4,769.1 1046.1,768.7 1049.9,768 1053.6,767.1 1057.3,766.1 1061.2,764.9 
		1065.2,763.7 1069.4,762.4 1073.8,761.2 1078.5,760.1 1083.5,759.1 1088.9,758.3 1094.7,757.8 1101,757.5 1107.9,757.6 
		1115.2,758.2 1123.2,759.1 1130.8,760.4 1135.9,761.3 1141,762.2 1146.1,763.1 1149.8,763.9 	"/>
	<g>
		<g>
			<defs>
				<rect id="SVGID_5_" width="1173" height="1119"/>
			</defs>
			<clipPath id="SVGID_6_">
				<use xlink:href="#SVGID_5_"  style="overflow:visible;"/>
			</clipPath>
			<polyline class="st4" points="1108.1,757.7 1109.8,758.5 1112.4,759.3 1115.8,760.1 1119.8,760.9 1124.4,762 1129.4,763.3 
				1134.6,765 1139.9,767.2 1145.2,770 1150.2,773.6 1154.9,777.9 1159.1,783.1 1162.6,789.3 1164.9,795.2 			"/>
		</g>
		<g>
			<defs>
				<rect id="SVGID_7_" width="1173" height="1119"/>
			</defs>
			<clipPath id="SVGID_8_">
				<use xlink:href="#SVGID_7_"  style="overflow:visible;"/>
			</clipPath>
			<polyline class="st5" points="1135.4,768.9 1140.6,770.2 1145.4,772.2 1149.7,774.7 1153.6,777.7 1157,781.2 1159.9,785.1 
				1162.4,789.4 1164.5,793.9 1166.1,798.8 1167.2,803.8 1167.9,809 1168.1,814.3 1167.9,819.7 1167.3,825.1 1166.2,830.4 
				1164.6,835.7 1162.6,840.8 1160.5,845.3 			"/>
		</g>
		<g>
			<defs>
				<rect id="SVGID_9_" width="1173" height="1119"/>
			</defs>
			<clipPath id="SVGID_10_">
				<use xlink:href="#SVGID_9_"  style="overflow:visible;"/>
			</clipPath>
			<polyline class="st6" points="1160.3,785.1 1163.5,787.9 1165.9,791.3 1167.6,795.4 1168.6,800 1169.1,805.1 1169,810.5 
				1168.5,816.2 1167.6,822.1 1166.3,828 1164.7,834 1163,839.8 1161,845.4 1159,850.8 1156.9,855.8 1154.8,860.3 1152.8,864.2 
				1150.9,867.7 1148.2,872.2 1146.7,874.8 			"/>
		</g>
	</g>
	<polyline class="st1" points="1154.1,861.9 1153.5,864.3 1152.4,867.1 1150.8,870.4 1148.7,874 1146.3,877.9 1143.5,882.1 
		1140.4,886.5 1136.9,891.2 1133.3,895.9 1129.4,900.8 1125.3,905.8 1121.2,910.8 1116.9,915.8 1112.6,920.8 1108.3,925.7 
		1104,930.5 1099.7,935.2 1095.6,939.6 1091.6,943.9 1087.8,947.8 1084.3,951.5 1081,954.8 1078,957.7 1075.3,960.2 1073.4,961.9 	
		"/>
	<polyline class="st1" points="1146,878.3 1142.5,881.7 1138.9,885.1 1135.3,888.6 1131.7,892.1 1128,895.8 1124.3,899.5 
		1120.6,903.2 1116.9,906.9 1113.2,910.8 1109.5,914.6 1105.8,918.5 1102,922.4 1098.3,926.2 1094.6,930.1 1090.9,934.1 1087.3,938 
		1083.6,941.9 1080,945.7 1076.4,949.6 1072.8,953.4 1069.3,957.2 1065.8,961 1062.4,964.7 1059,968.4 1055.7,972 1052.1,975.9 
		1048.6,979.7 1045.1,983.5 1043.4,985.4 	"/>
	<polyline class="st1" points="1031.2,980.6 1033.9,980.2 1038.2,978 1043.5,974.6 1049.1,970.6 1054.3,966.8 1058.4,963.7 
		1059.6,962.9 1054.6,966 1048.1,970 1044.6,972.1 1048.5,969.7 1056,966.2 1062.1,963.2 1067,960.4 1071.1,957.8 1074.5,955.4 
		1077.6,953 1080.5,950.6 1083.5,948 1086.8,945.3 1090.7,942.3 1095.5,938.9 1097.4,937.7 	"/>
	<polyline class="st1" points="706.3,474.4 702.7,470.8 698.7,467.6 694.3,464.8 689.6,462.3 684.7,460.1 679.7,458.4 674.6,457 
		669.5,456.1 664.4,455.6 663.7,455.6 	"/>
	<polyline class="st1" points="701.6,469.9 700.4,469.1 698.3,467.3 695.5,464.8 692.1,462 687.9,459 683.2,456.2 677.8,454 
		671.8,452.5 665.4,452.2 658.4,453.2 651,456 649.2,456.8 	"/>
	<polyline class="st1" points="677.5,453.9 671.5,454.2 666.3,454.2 661.7,454.1 657.6,454 653.9,454.1 650.2,454.5 646.6,455.4 
		642.8,456.9 638.7,459.3 634.1,462.7 628.9,467.3 622.9,473.1 618.3,478.1 614.9,482.1 613.5,483.8 	"/>
	<polyline class="st1" points="649.2,456.8 648.4,459.3 644.4,463.2 639.2,467.5 634.7,471.2 630.7,475 626.8,478.8 623.1,482.5 
		619.7,486.2 616.4,489.9 613.3,493.7 610.4,497.6 607.6,501.7 604.8,506 602.2,510.6 599.5,515.6 598.5,517.6 	"/>
	<polyline class="st1" points="617,479.7 616.3,481.7 615,484.3 613.3,487.4 611.1,491 608.5,495 605.6,499.4 602.4,504.1 
		599,509.1 595.3,514.2 591.5,519.6 587.5,525 583.5,530.5 579.4,536 575.4,541.4 571.4,546.7 567.5,551.8 563.8,556.7 560.3,561.3 
		557,565.6 554,569.5 551.3,572.9 549,575.8 547.1,578.2 546.5,579 	"/>
	<polyline class="st1" points="602.6,503.8 599.1,507.6 595.6,511.4 592,515.2 588.5,519.1 585,522.9 581.5,526.8 578.1,530.7 
		574.6,534.6 571.2,538.5 567.8,542.5 564.4,546.4 561,550.4 557.7,554.4 554.4,558.5 551.1,562.5 547.9,566.6 544.7,570.7 
		541.5,574.9 538.4,579.1 535.3,583.3 532.3,587.5 529.3,591.8 526.3,596.1 523.4,600.4 520.6,604.7 520.2,605.3 	"/>
	<polyline class="st1" points="535.2,589 532.3,592.7 529,596.5 525.5,600.4 521.7,604.3 517.8,608.2 513.8,612 510,615.8 
		506.2,619.4 502.7,622.9 502,623.5 	"/>
	<polyline class="st1" points="547.1,572.8 545,576.4 542.3,580.1 539.2,584 535.7,587.8 531.9,591.7 527.8,595.5 523.5,599.3 
		519,603 514.5,606.7 509.9,610.1 505.3,613.4 500.8,616.5 496.4,619.4 492.2,622 488.3,624.3 485.1,626 	"/>
	<polyline class="st1" points="492.5,621.8 491.3,623.8 489.2,626.1 486.3,628.8 482.6,631.8 478.4,635.1 473.6,638.5 468.5,642.1 
		463,645.8 457.5,649.5 451.8,653.2 446.3,656.8 440.9,660.3 435.8,663.6 431,666.7 426.8,669.5 423.2,672 420.3,674.1 419.3,674.9 
			"/>
	<polyline class="st1" points="480.8,633.2 478.9,634.2 476.1,635.8 472.6,638 468.4,640.7 463.7,643.8 458.7,647.3 453.3,651 
		447.8,654.9 442.2,658.8 436.7,662.7 431.4,666.5 426.3,670.1 421.7,673.4 417.5,676.3 414,678.7 411.3,680.6 410.6,681.2 	"/>
	<polyline class="st1" points="434.8,664.1 431.3,665.3 427.5,666.9 423.4,668.9 419,671.1 414.4,673.7 409.6,676.5 404.7,679.4 
		399.7,682.6 394.6,685.8 389.5,689.1 384.5,692.4 379.5,695.7 374.7,699 370.1,702.2 365.6,705.3 361.5,708.2 357.6,710.9 
		354.1,713.3 351.7,715 	"/>
	<polyline class="st1" points="402.3,680.9 398,684.8 393.8,688.4 389.8,691.9 385.8,695.2 381.9,698.4 378,701.5 374.2,704.5 
		370.5,707.4 366.7,710.3 363,713.2 359.3,716.1 355.5,719.1 351.8,722.1 348,725.3 344.2,728.5 340.4,732 336.5,735.5 332.5,739.3 
		328.4,743.3 324.3,747.6 320,752.2 318.5,753.8 	"/>
	<polyline class="st1" points="387.5,690.4 386.1,692.3 384,694.7 381.4,697.5 378.3,700.8 374.8,704.4 370.9,708.3 366.7,712.4 
		362.2,716.8 357.5,721.2 352.8,725.8 348,730.4 343.2,734.9 338.5,739.4 333.9,743.7 329.5,747.8 325.4,751.7 321.7,755.3 
		318.3,758.5 315.4,761.3 313.1,763.6 312.8,763.9 	"/>
	<polyline class="st1" points="318.5,753.8 315.3,756 311.7,758.4 308,761.2 304,764.3 299.8,767.5 295.5,771 291.1,774.7 
		286.6,778.4 282.1,782.3 277.5,786.3 273,790.3 268.6,794.2 264.3,798.2 260.1,802.1 256.1,805.9 252.3,809.5 248.8,813 
		245.5,816.3 242.7,819.4 240.2,822.1 	"/>
	<polyline class="st1" points="258.9,803.2 255.3,805.3 251.1,808.5 246.7,812.4 242.2,816.8 237.9,821.3 234.1,825.8 231,829.9 
		228.9,833.4 228.1,835.9 228.8,837.3 231.3,837.1 235.8,835.2 242.6,831.3 250.8,825.9 252.8,824.6 257.1,821.8 262.7,818.1 
		268.7,814.1 274.3,810.5 278.4,807.8 282.6,805.7 287.6,803.7 292,802.2 296.3,801.1 301.2,800.3 307.1,799.6 307.2,799.6 	"/>
	<polyline class="st1" points="293,801.9 296.6,802.5 301,802.5 306,802 311.6,801.2 317.4,800.4 323.4,799.8 328.5,799.6 	"/>
	<polyline class="st1" points="316.3,800.5 315.7,805.6 314.6,810.7 313.2,815.8 311.5,820.8 309.5,825.6 307.8,829 	"/>
	<polyline class="st1" points="314.6,810.7 313.9,815.6 312.1,820.9 309.9,826.3 307.9,831.7 306.9,836.6 307.7,840.9 308.4,842.2 	
		"/>
	<polyline class="st1" points="307.1,834.9 307.2,839.1 310.5,843.8 315.1,847.1 317.2,847.8 	"/>
	<polyline class="st1" points="370.5,740.7 367.8,744.6 365,748.9 362.2,753.5 359.4,758.4 356.8,763.4 354.5,768.4 352.7,773.4 
		351.5,778.2 351,782.7 	"/>
	<polyline class="st1" points="365.7,747.9 362.9,751.7 360.3,756 358,760.6 355.9,765.6 354,770.8 352.4,776.1 350.9,781.4 
		349.6,786.7 348.4,791.8 347.4,796.7 346.7,800.8 	"/>
	<polyline class="st1" points="351,782.7 348,787.9 346.2,791.9 345,795.1 344.1,797.9 342.9,800.7 341.1,804.1 338.2,808.5 
		333.7,814.3 327.2,821.9 325.4,824 	"/>
	<polyline class="st1" points="341.1,804.1 340,806.3 337.2,810.8 333.5,816.6 329.7,822.5 326.3,827.6 324.2,830.7 324.1,830.9 	
		"/>
	<polyline class="st1" points="335.9,812.9 331.6,818.1 328.5,822.9 326.3,827.3 324.5,831.6 322.9,835.8 321.2,840.1 319,844.7 
		317.2,847.8 	"/>
	<polyline class="st1" points="267.6,818.5 266.5,823.4 265.9,828.9 266.4,834.4 268.3,838.9 269.6,840.3 	"/>
	<polyline class="st1" points="266.5,834.8 271.5,839.4 275.4,842.3 278.9,843.9 282.8,844.6 287.9,844.7 294,844.7 	"/>
	<polyline class="st1" points="278.7,843.9 283.9,846.1 288.7,846.6 293.3,845.6 297.9,843.6 302.6,840.9 307,838.4 	"/>
	<polyline class="st1" points="351.2,780.1 354.9,775.3 358.6,770.8 362.2,766.7 365.8,763 369.4,759.5 373,756.4 376.8,753.5 
		380.6,750.8 384.5,748.3 388.5,746 392.7,743.8 397.1,741.7 401.7,739.7 406.5,737.7 411.6,735.8 416.9,733.9 422.6,731.9 
		426.2,730.7 	"/>
	<polyline class="st1" points="388.7,755.4 388.2,754.4 389.6,752.7 392.6,750.3 396.9,747.5 402.3,744.2 408.4,740.7 415,737.1 
		421.7,733.6 428.2,730.1 434.4,727 439.7,724.2 444.1,722 447.1,720.5 448.1,720 	"/>
	<polyline class="st1" points="399.2,746 401.8,744.2 405.3,742.2 409.4,740.1 414.2,737.8 419.5,735.6 425.1,733.3 431,731 
		436.9,728.8 442.8,726.6 448.5,724.6 454,722.7 459,720.9 463.5,719.4 467.3,718 468.8,717.5 	"/>
	<polyline class="st1" points="426.2,730.6 430.2,728.3 434.4,725.9 438.9,723.6 443.5,721.2 448.3,719 453.2,716.7 458.2,714.5 
		463.3,712.3 468.4,710.1 473.5,708 478.6,706 483.6,704 488.4,702.1 493.2,700.2 497.8,698.4 502,696.8 	"/>
	<polyline class="st1" points="487.6,706.2 491.1,705.2 495.2,703.5 499.9,701.4 504.9,698.9 510.2,696.2 515.5,693.3 520.9,690.3 
		526.1,687.3 530.9,684.5 535.3,681.9 539.1,679.7 540.9,678.6 	"/>
	<polyline class="st1" points="511.4,695.5 513.6,693.9 517.1,691.7 521.6,689 526.8,686 532.4,682.8 538.2,679.6 543.8,676.4 
		549,673.6 553.5,671.1 557,669.1 557.8,668.6 	"/>
	<polyline class="st1" points="687.5,518.9 686.1,522.3 684.2,526.1 681.8,530.1 679,534.5 675.9,539 672.5,543.6 668.9,548.3 
		665.1,553.1 661.3,557.8 657.5,562.5 653.7,567 650,571.3 646.4,575.3 643.2,579.1 640.2,582.5 637.7,585.5 637.3,585.9 	"/>
	<polyline class="st1" points="674,541.6 673.3,543.7 671.8,546.4 669.6,549.6 666.8,553.3 663.5,557.3 659.9,561.6 655.8,566.1 
		651.6,570.9 647.1,575.7 642.6,580.5 638.1,585.4 633.7,590.1 629.4,594.7 625.4,599 621.7,603.1 618.5,606.8 615.7,610.1 
		613.6,612.8 612,614 609.3,616.5 605.8,620 601.6,624.4 596.9,629.3 592.2,634.3 587.5,639.3 583.1,643.9 579.4,647.8 576.4,650.7 
		573.2,653.6 569.5,657 565.8,660.6 564.7,661.7 	"/>
	<polyline class="st1" points="599.3,626.8 596.4,631.1 593.3,635.3 590.1,639.4 586.7,643.3 583.2,647.2 579.5,650.8 575.7,654.4 
		571.7,657.8 567.7,661.1 563.5,664.2 559.2,667.2 554.9,670 550.4,672.8 549.2,673.5 	"/>
	<polyline class="st1" points="617,479.7 615.7,481.8 611.9,483.3 606.4,485.1 599.6,488 593.7,491.6 588.6,494.6 584,497.3 
		579.8,499.9 575.8,502.4 572,504.9 568.4,507.5 564.8,510.3 561.2,513.3 557.5,516.8 553.7,520.7 549.7,525.2 547.1,528.3 	"/>
	<polyline class="st1" points="603.5,490.7 599.3,490.9 594.9,491.6 590.3,492.6 585.6,494.1 580.9,495.9 576,498 571.1,500.4 
		566.2,503.1 561.3,506.1 556.5,509.2 551.8,512.6 547.1,516.2 542.6,519.8 538.3,523.6 534.2,527.5 530.3,531.5 526.6,535.5 
		523.3,539.5 520.2,543.5 517.5,547.5 515.2,551.4 513.2,555.2 512.7,556.5 	"/>
	<polyline class="st1" points="579.8,496.3 576.7,498.4 573.2,500.5 569.2,502.7 564.8,505.1 560.1,507.7 555.2,510.8 550.1,514.2 
		544.8,518.3 540.6,521.8 536.7,525.3 532.9,528.9 529.2,532.6 525.6,536.4 522.2,540.3 518.9,544.3 515.7,548.5 512.8,552.7 
		510,557.1 507.5,561.7 505.3,566.3 503.3,571.1 501.5,576.1 501.4,576.5 	"/>
	<polyline class="st1" points="534.8,527.1 531,531.5 527.4,535.8 524.1,540 520.9,544.3 517.9,548.5 515.1,552.7 512.4,556.9 
		509.9,561.1 507.6,565.4 505.5,569.8 503.5,574.2 501.7,578.7 500,583.3 498.5,588.1 497.2,592.9 496,598 495,603.2 494.1,608.6 
		493.3,614.1 492.7,619.9 492.5,621.8 	"/>
	<polyline class="st1" points="517.1,563.4 514.8,567.9 512.8,572.7 511.1,577.8 509.7,582.9 508.4,588.2 507.2,593.5 506.2,598.7 
		505.1,603.8 504,608.8 502.8,613.5 502,612.3 502.2,606.3 502.8,600.5 503.8,594.8 505.1,589.4 506.6,584.1 508.2,579 509.6,574.1 
		510.9,569.4 512,564.9 512.6,560.7 512.7,556.7 512.7,556.5 	"/>
	<polyline class="st1" points="511.4,706.2 511.4,709.5 511.5,713.7 511.8,718.7 512.1,724.3 512.7,730.4 513.3,736.8 514.2,743.3 
		515.3,749.7 516.5,755.9 518,761.7 519.8,767 521.8,771.5 524.1,775.2 526.7,777.7 529,778.9 	"/>
	<polyline class="st1" points="506.7,698 506.6,702.4 506.6,707.2 506.8,712.2 507.1,717.5 507.5,722.9 508.1,728.5 508.8,734.1 
		509.6,739.8 510.5,745.4 511.5,750.9 512.7,756.3 514,761.5 515.3,766.5 516.8,771.2 518.4,775.5 519.6,778.3 	"/>
	<polyline class="st1" points="503.3,707.5 503.4,712 503.7,716.7 504.2,721.6 504.9,726.7 505.8,732 506.9,737.3 508.1,742.6 
		509.5,748.1 511,753.5 512.6,758.8 514.4,764.1 516.3,769.3 518.3,774.4 520.3,779.3 522.5,784 524.7,788.5 527,792.7 529.3,796.7 
		528.9,798.5 530,801.1 532.8,804.2 537.3,807.5 543.1,810.5 550,812.6 557.8,813.4 557.8,813.4 	"/>
	<polyline class="st1" points="535.4,806.3 541.6,805.9 545.8,806.2 549.6,806.6 554,806.2 560.5,804.5 562.2,804 	"/>
	<polyline class="st1" points="557.8,813.4 563,810.6 567.7,807.9 571.9,805.3 575.9,802.5 579.6,799.6 583.1,796.5 586.6,793 
		590.1,789.2 593.8,784.8 596,782 	"/>
	<polyline class="st1" points="575.7,802.6 579.8,801.5 583.9,799.2 588.1,796.1 592.3,792.4 596.3,788.3 600.3,783.9 604.1,779.7 
		607.6,775.7 610.8,772.2 611.7,771.4 	"/>
	<polyline class="st1" points="675,674.9 673.8,679.1 672.2,683.4 670.2,687.8 667.9,692.3 665.3,696.9 662.5,701.4 659.4,706 
		656.2,710.6 652.7,715.1 649.2,719.6 645.5,724 641.8,728.3 638.1,732.5 634.3,736.6 630.6,740.4 627,744.1 623.4,747.6 620,750.8 
		616.8,753.8 616.1,754.5 	"/>
	<polyline class="st1" points="672.9,681.5 671.2,686.4 669.3,691.3 667.2,696 665,700.7 662.5,705.3 659.9,709.8 657.2,714.2 
		654.4,718.6 651.4,722.9 648.3,727.1 645.1,731.3 641.9,735.4 638.5,739.4 635.1,743.4 631.7,747.3 628.2,751.2 624.7,755.1 
		621.2,758.9 617.7,762.6 614.7,766.9 611.8,771.2 611.7,771.4 	"/>
	<polyline class="st1" points="662.6,701.3 659.7,704.9 657,708.7 654.6,712.4 652.3,716.3 650,720.2 647.6,724.3 645.1,728.5 
		642.4,732.8 639.4,737.3 636.1,741.9 632.2,746.8 627.8,751.8 623.4,756.5 619.8,760.4 616.2,764.2 612.7,767.8 609.1,771.3 
		605.4,774.7 601.4,778 597.1,781.2 596,782 	"/>
	<polyline class="st1" points="554.7,392.3 559.4,396 563.8,399.6 567.9,403.1 571.8,406.6 575.4,410.1 578.9,413.6 582.2,417.1 
		585.4,420.7 588.6,424.3 591.7,428 594.8,431.8 597.9,435.8 601.1,439.9 604.4,444.2 607.8,448.7 609.8,451.2 	"/>
	<polyline class="st1" points="546,389.6 549,391.8 552.3,394.3 556,397 559.9,400 564,403.1 568.4,406.5 572.9,410.1 577.5,413.8 
		582.2,417.6 586.9,421.5 591.7,425.5 596.4,429.6 601,433.6 605.6,437.7 610,441.7 614.2,445.7 618.1,449.6 621.8,453.4 625.2,457 
		628.3,460.5 631,463.8 633.3,466.9 635.1,469.8 633.9,471.9 	"/>
	<polyline class="st1" points="550.1,388.1 554.7,391.7 559,395.1 563.2,398.4 567.2,401.6 571,404.7 574.7,407.8 578.3,411 
		581.8,414.2 585.1,417.6 588.4,421.2 591.6,425 594.8,429.2 597.9,433.7 600.9,438.5 603.7,443.3 	"/>
	<g>
		<g>
			<defs>
				<rect id="SVGID_11_" width="1173" height="1119"/>
			</defs>
			<clipPath id="SVGID_12_">
				<use xlink:href="#SVGID_11_"  style="overflow:visible;"/>
			</clipPath>
			<polyline class="st7" points="2.1,157.3 6.5,158.5 11,159.9 15.6,161.5 20.3,163.2 25,165.2 29.8,167.4 34.7,169.7 39.5,172.1 
				44.4,174.7 49.2,177.4 54,180.3 58.8,183.2 63.5,186.2 68.2,189.3 72.7,192.4 77.2,195.6 81.5,198.8 85.7,202.1 89.8,205.3 
				93.7,208.6 97.4,211.8 101,215 104.3,218.2 105.5,219.4 			"/>
		</g>
	</g>
	<polyline class="st1" points="17.7,170.5 20.8,172.4 24.3,174.4 28.1,176.3 32.2,178.3 36.6,180.3 41.2,182.3 46.1,184.4 
		51.1,186.6 56.2,188.9 61.4,191.2 66.6,193.7 71.8,196.4 77,199.1 82.1,202 87,205.1 91.8,208.4 96.2,211.7 100.4,215 104.4,218.3 
		108.2,221.7 111.9,225.2 115.5,228.8 119.1,232.4 122.5,236.2 126,240 129.4,243.9 132.8,247.8 136.3,251.9 137.4,253.2 	"/>
	<polyline class="st1" points="109.2,231.9 113.6,235.5 117.8,239 122,242.4 126,245.7 130,248.8 134,251.9 137.9,255 141.7,257.9 
		145.5,260.9 149.3,263.8 153.1,266.8 156.8,269.8 160.6,272.8 164.4,275.8 168.2,279 172.1,282.2 176,285.5 180,289 184,292.5 
		188.1,296.2 192.3,300.1 196.5,304.2 200.9,308.5 204.2,311.7 207.6,315 211.2,318.6 215.2,322.4 219.3,326.4 223.5,330.6 
		227.7,334.8 231.7,338.9 235.6,342.9 239.1,346.8 242.2,350.4 244.8,353.6 245.2,354.1 	"/>
	<polyline class="st1" points="137.4,253.2 140.5,256 143.8,259 147.2,262.2 150.7,265.5 154.3,269 158,272.5 161.8,276.2 
		165.7,280 169.7,283.9 173.7,287.9 177.7,291.9 181.7,296 185.8,300.1 189.8,304.3 193.9,308.4 197.9,312.6 201.9,316.8 
		205.8,320.9 209.7,325 213.5,329.1 217.2,333.1 220.7,337 224.2,340.9 227.6,344.7 230.8,348.3 233.8,351.9 236.7,355.3 
		239.4,358.5 241.4,361 	"/>
	<polyline class="st1" points="236.5,344 237,345.3 238,347.3 239.5,350.2 241.4,353.6 243.7,357.7 246.4,362.2 249.4,367.2 
		252.6,372.6 256,378.2 259.7,384.1 263.5,390.2 267.3,396.3 271.2,402.4 275.1,408.5 278.9,414.4 282.7,420.1 286.3,425.5 
		289.7,430.6 292.9,435.3 295.8,439.5 298.4,443.1 300.7,446 302.5,448.3 303.9,449.8 304.1,449.9 	"/>
	<polyline class="st1" points="221.4,346.6 224.2,349.6 227.2,352.8 230.4,356.2 233.7,359.7 237.1,363.4 240.6,367.2 244.3,371.1 
		248,375.1 251.8,379.1 255.7,383.3 259.7,387.5 263.7,391.7 267.7,395.9 271.8,400.2 275.9,404.4 280,408.7 284.1,412.9 288.2,417 
		292.3,421.1 296.3,425.1 300.3,429 304.2,432.8 308,436.5 311.8,440 315.5,443.4 319.1,446.6 322.5,449.7 325.8,452.6 329.1,455.2 
		332.1,457.6 333.5,458.7 	"/>
	<polyline class="st1" points="252.9,380.3 253.6,384.6 255,389 257,393.3 259.4,397.7 262.3,402 265.7,406.3 269.3,410.5 
		273.2,414.7 277.2,418.8 281.4,422.8 285.6,426.6 289.8,430.4 294,434 298,437.4 301.8,440.7 305.3,443.8 308.7,446.9 312.8,450.6 
		316.8,454.2 320.7,457.8 324.6,461.2 328.5,464.6 332.3,467.9 336.1,471.2 340,474.5 343.8,477.8 347.7,481 351.6,484.3 
		355.5,487.6 359.5,490.9 363.6,494.3 367.8,497.7 369.8,499.4 	"/>
	<polyline class="st1" points="277.4,402.6 278.6,403.3 280.1,404.4 281.8,405.9 283.7,407.9 286,410.2 288.4,412.8 291.1,415.8 
		293.9,419.1 297,422.7 300.3,426.5 303.7,430.5 307.3,434.7 311.1,439.1 315,443.6 319,448.2 323.2,453 327.4,457.7 331.8,462.5 
		336.3,467.3 340.8,472.1 345.4,476.8 350.1,481.4 354.8,486 359.5,490.4 364.3,494.6 369.1,498.7 373.9,502.5 378.6,506.1 
		383.4,509.5 388.1,512.5 392.8,515.3 397.4,517.6 402,519.6 404.9,520.7 	"/>
	<polyline class="st1" points="287.2,426.9 290,429.7 293,432.7 296.1,435.7 299.3,438.9 302.7,442.1 306.2,445.5 309.8,448.9 
		313.6,452.5 317.5,456 321.4,459.7 325.5,463.4 329.6,467.1 333.8,470.9 338.1,474.7 342.5,478.5 346.9,482.4 351.4,486.2 
		355.9,490 360.5,493.8 365.1,497.6 369.7,501.3 374.4,505 379,508.6 383.7,512.2 388.3,515.7 393,519.1 397.6,522.4 402.2,525.6 
		406.8,528.7 411.3,531.7 415.8,534.6 420.2,537.3 424.6,539.9 428.9,542.4 433.2,544.7 437.3,546.8 441.4,548.7 445.4,550.5 
		449.3,552 453,553.4 456.7,554.5 456.9,554.6 	"/>
	<polyline class="st1" points="318.5,464.4 320.1,466.3 322.2,468.5 324.8,471 327.8,473.7 331.2,476.6 334.9,479.6 339,482.8 
		343.4,486.2 348.1,489.6 353,493.2 358.1,496.8 363.4,500.4 368.8,504.1 374.4,507.8 380.1,511.4 385.8,515.1 391.6,518.6 
		397.3,522.1 403.1,525.4 408.8,528.6 414.4,531.7 419.9,534.6 425.3,537.3 430.5,539.8 435.5,542.1 440.3,544 444.8,545.8 
		449,547.2 452.9,548.2 456.4,549 459.6,549.3 462.4,549.3 464.4,548.9 	"/>
	<polyline class="st1" points="369.8,499.4 372.3,502.3 375.2,505.2 378.4,508.2 382,511.2 385.8,514.1 389.9,517.1 394.2,520.1 
		398.8,523.1 403.5,526.1 408.4,529 413.4,531.9 418.5,534.8 423.7,537.6 429,540.3 434.3,543.1 439.5,545.7 444.8,548.2 
		449.9,550.7 455,553 460,555.3 464.9,557.5 469.6,559.5 474.1,561.4 478.3,563.1 482.4,564.8 485.1,565.9 	"/>
	<polyline class="st1" points="439.1,543.6 444.6,544.9 449.7,546.5 454.6,548.2 459.3,550.1 463.9,552.1 468.4,553.9 473.1,555.6 
		477.8,557.1 482.9,558.2 488.2,558.8 493.9,559 	"/>
	<polyline class="st1" points="474.6,556.1 478.3,558 483.6,560.1 489.4,562.1 495,563.5 499.5,564 500.1,564 	"/>
	<polyline class="st1" points="493.9,559 499.1,559.2 504.3,559.8 508.2,560.5 	"/>
	<polyline class="st1" points="11.8,160.1 9.8,157.1 10.3,153.9 13,150.6 17.2,147.3 22.6,144.2 28.6,141.4 34.7,139 40.6,137.1 
		45.6,135.8 47.8,135.4 	"/>
	<polyline class="st1" points="42,136.7 45.8,136 50.4,135.1 55.6,133.9 61.3,132.5 67.3,131.1 73.4,129.7 79.6,128.4 85.6,127.2 
		91.2,126.2 96.4,125.4 101,125 104.8,125.1 106.7,125.4 	"/>
	<polyline class="st1" points="54.1,141.7 55.1,139.6 57.9,137.9 62.2,136.5 67.6,135.4 73.9,134.5 80.7,133.9 87.7,133.4 
		94.7,133.1 101.3,133 107.2,132.9 112.1,132.8 115.7,132.8 119.3,132.8 124.3,132.7 129.7,132.7 135.3,132.7 140.8,132.8 
		146.2,133.2 151.2,133.8 155.6,134.8 	"/>
	<polyline class="st1" points="64.6,131.8 69.1,132.2 73.7,132.6 78.6,133.1 83.6,133.7 88.7,134.3 94,135 99.4,135.7 104.9,136.5 
		110.4,137.3 116,138.2 121.5,139.2 127.1,140.2 132.7,141.3 138.2,142.5 143.6,143.8 148.9,145.1 154.1,146.5 159.2,148 
		164.1,149.6 168.9,151.3 173.4,153.1 177.8,154.9 181.9,156.9 185,158.6 	"/>
	<polyline class="st1" points="101.1,133 106.9,132.8 112.6,132.7 118.3,132.7 123.8,132.9 129.2,133.1 134.6,133.4 139.8,133.8 
		145,134.3 150.1,134.9 155.2,135.6 160.2,136.5 165.1,137.4 169.9,138.4 174.7,139.5 179.5,140.7 184.2,142 188.9,143.5 193.5,145 
		198.1,146.6 202.7,148.4 207.3,150.2 211.8,152.2 216.4,154.2 220.9,156.4 225.4,158.7 230,161.1 234.5,163.5 239.1,166.1 
		243.6,168.8 248.2,171.7 252.8,174.6 257.4,177.6 262.1,180.8 266.8,184 267.1,184.3 	"/>
	<polyline class="st1" points="110.5,132.8 116.4,134.6 122.2,136.3 127.7,137.8 133.1,139.2 138.4,140.5 143.5,141.8 148.5,142.9 
		153.3,144 158.1,145 162.7,146 167.3,146.9 171.8,147.9 176.2,148.8 180.6,149.8 184.9,150.7 189.2,151.8 193.5,152.8 197.8,154 
		202,155.2 206.3,156.5 210.7,157.9 215,159.4 219.4,161.1 223.9,162.9 228.4,164.8 233.1,166.9 237.8,169.2 242.6,171.7 
		247.6,174.4 252.6,177.4 257.9,180.5 263.2,183.9 268.8,187.6 274.5,191.5 279.8,195.3 292.5,204.5 294,205.6 	"/>
	<polyline class="st1" points="239.2,166.2 244.3,169.3 249.2,172.4 253.9,175.3 258.6,178.2 263.1,181 267.5,183.7 271.7,186.4 
		275.9,189.1 280.1,191.8 284.1,194.4 288.2,197 292.1,199.7 296.1,202.3 300,204.9 303.9,207.6 307.9,210.4 311.8,213.1 
		315.8,215.9 319.9,218.8 324,221.8 328.1,224.8 332.4,228 336.7,231.2 341.2,234.6 345.8,238 350.5,241.6 355.3,245.4 357.3,246.9 
			"/>
	<polyline class="st1" points="256.4,187.4 261.5,189.8 266.4,192.2 271.2,194.7 276,197.1 280.7,199.5 285.4,201.9 290,204.3 
		294.5,206.8 299,209.2 303.5,211.6 307.9,214.1 312.3,216.6 316.6,219.1 321,221.6 325.3,224.1 329.6,226.7 334,229.2 338.3,231.8 
		342.6,234.5 347,237.1 351.3,239.8 355.7,242.5 360.2,245.3 364.6,248.1 369.1,250.9 373.7,253.8 378.3,256.7 383,259.7 
		383.6,260.1 	"/>
	<polyline class="st1" points="307.3,213.8 309.4,216 311.9,218.5 314.9,221.1 318.3,223.9 322.1,226.8 326.3,229.9 330.7,233 
		335.4,236.2 340.3,239.5 345.4,242.8 350.7,246.2 356,249.5 361.4,252.8 366.9,256 372.3,259.2 377.7,262.3 383,265.2 388.1,268.1 
		393.1,270.8 397.9,273.3 402.5,275.6 406.8,277.7 410.7,279.6 414.3,281.2 417.5,282.6 417.8,282.7 	"/>
	<polyline class="st1" points="785.5,78.8 787,74.8 788.9,70.6 791.2,66.3 793.8,61.8 796.7,57.3 799.9,52.7 803.2,48 806.7,43.5 
		810.3,39 814,34.6 817.8,30.4 821.5,26.4 825.2,22.6 828.7,19.1 832.2,16 834.7,13.8 	"/>
	<polyline class="st1" points="788.4,71.6 789,70.7 790.6,68.3 793,64.7 796.1,60.2 799.8,55.1 803.9,49.7 808.2,44.3 812.5,39.1 
		816.8,34.6 821,30.8 825.1,27.3 829,23.9 832.9,20.8 836.9,17.9 841,15.1 845.3,12.4 850,9.7 852.9,8.2 	"/>
	<g>
		<g>
			<defs>
				<rect id="SVGID_13_" width="1173" height="1119"/>
			</defs>
			<clipPath id="SVGID_14_">
				<use xlink:href="#SVGID_13_"  style="overflow:visible;"/>
			</clipPath>
			<polyline class="st8" points="823,24.7 826.5,22.2 830.5,19.5 835,16.6 839.7,13.8 844.8,11.1 850,8.5 855.2,6.3 860.5,4.4 
				865.7,3.1 870.7,2.2 875.4,2.1 879.2,2.6 			"/>
		</g>
		<g>
			<defs>
				<rect id="SVGID_15_" width="1173" height="1119"/>
			</defs>
			<clipPath id="SVGID_16_">
				<use xlink:href="#SVGID_15_"  style="overflow:visible;"/>
			</clipPath>
			<polyline class="st9" points="852.9,8.2 855.3,6.7 858.8,5.6 863.2,5.1 868.1,5.3 873,6.5 877.7,8.9 881.8,12.5 885,17.7 
				886.9,24.6 887.3,29.5 			"/>
		</g>
	</g>
	<polyline class="st1" points="881.5,12.2 882.9,17.8 884.1,23.2 885.1,28.4 885.8,33.5 886.4,38.4 886.7,43.2 886.7,48 886.5,52.8 
		886,57.7 885.2,62.6 884.1,67.7 882.6,73 880.8,78.5 880.4,79.6 	"/>
	<polyline class="st1" points="883.6,45.9 883.2,50.2 883,54.6 882.9,59.3 882.9,64.2 883,69.2 883.1,74.3 883.2,79.6 883.4,85 
		883.5,90.5 883.6,96 883.6,101.5 883.5,107.1 883.3,112.7 883.1,118.3 882.6,123.8 882,129.1 881.4,134.1 880.7,139.2 879.8,144.4 
		879,149.6 878,154.8 877.1,160 876,165.2 875,170.4 873.9,175.5 872.9,180.6 871.8,185.5 871.7,186.2 	"/>
	<polyline class="st1" points="894.8,40.8 893.8,43.5 892.8,46.6 891.8,50.1 890.9,54 889.9,58.3 889.1,62.8 888.2,67.6 887.4,72.7 
		886.6,78.1 885.8,83.6 885.1,89.4 884.4,95.3 883.8,101.3 883.1,107.5 882.5,113.7 882,120 881.4,126.3 880.9,132.7 880.4,139 
		880,145.3 879.5,151.5 879.2,157.7 878.8,163.7 878.4,169.6 878.1,175.3 877.9,180.8 877.6,186.1 877.4,191.2 877.2,196 877,200.5 
		876.9,204.7 876.8,208.5 876.7,212 876.7,213.1 	"/>
	<polyline class="st1" points="880.2,142.3 881.1,145.2 881.7,148.6 882.2,152.4 882.6,156.5 882.8,161.1 882.8,165.9 882.7,171.1 
		882.5,176.5 882.1,182.1 881.7,188 881.1,194 880.5,200.1 879.8,206.3 879,212.6 878.2,218.9 877.3,225.2 876.4,231.4 875.5,237.6 
		874.5,243.7 873.6,249.6 872.6,255.4 871.7,261 870.8,266.3 869.9,271.4 869.1,276.1 868.4,280.6 867.7,284.6 867.1,288.3 
		866.6,290.8 	"/>
	<polyline class="st1" points="879.5,146.3 879.4,147.2 879.1,149 878.9,151.7 878.6,155.2 878.2,159.5 877.8,164.4 877.4,169.9 
		876.9,175.9 876.5,182.3 876,189 875.5,195.9 874.9,203 874.4,210.3 873.9,217.5 873.4,224.6 872.8,231.6 872.3,238.3 871.8,244.7 
		871.4,250.8 870.9,256.3 870.5,261.3 870.1,265.6 869.7,269.2 869.4,272 868.9,276.1 868.2,281.3 866.8,291.6 866.1,296.7 
		865.4,301.9 864.6,307.1 863.9,312.2 863.5,314.6 	"/>
	<polyline class="st1" points="867.9,283 867.3,290.1 866.8,296.3 866.3,301.7 865.8,306.6 865.4,310.9 864.9,315 864.4,318.8 
		863.8,322.6 863.1,326.5 862.2,330.7 861.2,335.2 860,340.2 858.5,345.9 856.8,352.4 854.9,359.8 853.4,365.1 852.1,370.2 
		850.8,375.2 849.5,380.1 848.3,385 847.2,389.8 846.1,394.8 845,399.9 844,405.2 843.5,408 841.4,401.5 840.6,397.5 841.2,394 
		843.1,389.3 846,382.4 848.5,376.1 850.7,370.4 852.6,365.3 854.2,360.5 855.6,356.2 856.8,352 857.8,347.9 858.7,343.8 
		859.6,339.6 860.3,335.3 861.1,330.6 861.9,325.5 862.7,319.8 863.7,313.5 864,312.5 863.7,315.3 863.2,318.7 862.4,322.6 
		861.4,327 860.2,331.8 858.8,337 857.3,342.5 855.6,348.3 853.8,354.3 851.9,360.4 850,366.6 848,372.9 846,379.3 843.9,385.5 
		841.9,391.7 839.9,397.7 838,403.5 836.1,409.1 834.4,414.3 832.8,419.2 831.3,423.6 829.9,427.7 828.8,431.2 827.9,434.1 
		827.8,434.3 	"/>
	<polyline class="st1" points="840.7,396.5 839.4,401.3 838,406.2 836.5,411.1 834.8,416.1 832.9,421.1 831,426.1 829,431.1 
		826.9,436 824.9,440.9 822.8,445.7 820.8,450.4 819,454.3 	"/>
	<polyline class="st1" points="819,459 820.4,453.7 822.8,450.6 824.8,446.7 825.2,440.1 	"/>
	<polyline class="st1" points="417.5,290.5 417.8,297.9 418.2,304.6 418.8,310.9 419.6,316.7 420.5,322 421.6,327 422.9,331.6 
		424.4,335.8 426.2,339.8 428.1,343.4 430.4,346.9 432.9,350.2 435.6,353.4 438.7,356.4 442.1,359.4 445.8,362.3 449.8,365.3 
		454.1,368.2 458.8,371.3 463.9,374.4 469.4,377.8 473.9,380.6 	"/>
	<polyline class="st1" points="418,301.6 419.3,305.6 420.8,310 422.4,314.7 424.1,319.7 426,324.8 428,330.1 430.2,335.4 
		432.5,340.7 434.9,346 437.5,351.1 440.2,356 443.1,360.6 446.1,365 449.2,368.9 452.5,372.4 455.9,375.5 459.8,377.8 464.7,379.5 
		469.6,381.2 474.5,382.9 479.4,384.6 484.4,386.3 489.3,388.1 489.6,388.2 	"/>
	<polyline class="st1" points="623.4,390.2 628.1,391.1 633.1,391.9 638.3,392.5 643.7,393 649.2,393.3 654.7,393.5 660.1,393.5 
		665.5,393.2 670.6,392.8 675.5,392.1 678.4,391.6 	"/>
	<polyline class="st1" points="804.6,221.9 804.6,225.6 805,230.6 805.8,236.3 807,242.5 808.5,248.9 810.3,255 812.5,260.5 
		815,265.1 817.8,268.4 820.9,270.2 822.4,270.3 	"/>
	<polyline class="st1" points="866.1,861.2 867.1,862.9 868.8,866 871.1,870.2 873.8,875.3 876.9,881.1 880.3,887.4 883.8,893.9 
		887.4,900.6 890.9,907 894.1,913.1 897.1,918.6 899.6,923.4 901.6,927.1 902.9,929.5 903.5,930.6 903.5,930.6 	"/>
	<polyline class="st1" points="1034.5,982.8 1038.3,984.1 1043,985.3 1048.4,986.4 1054.2,987.3 1060.2,988 1066.2,988.5 
		1072,988.6 1077.3,988.4 1081.9,987.7 1085.1,986.8 	"/>
	<polyline class="st1" points="889.2,857.2 893.4,854.3 897.7,851.2 901.8,847.9 905.8,844.4 909.3,840.6 912.4,836.5 914.9,832 
		916.7,827.2 917.6,822 918.3,821.1 	"/>
	<polyline class="st1" points="889.8,861 893.7,859 897.8,856.2 902.1,852.6 906.2,848.7 910,844.3 913.2,839.9 915.6,835.4 
		917.1,831 917.5,826 917.1,825.5 	"/>
	<polyline class="st10" points="11.8,162 11.3,160.4 10.8,158.9 10.9,157.3 11.1,155.7 11.9,154.3 12.8,153 14,151.9 15.3,150.9 
		16.6,149.9 17.8,148.9 19.2,148 20.6,147.2 22,146.5 23.5,145.7 24.9,145 26.4,144.3 27.9,143.7 29.3,143 30.8,142.4 32.3,141.8 
		33.8,141.2 35.4,140.7 36.9,140.2 38.4,139.7 40,139.2 41.5,138.8 44.7,138 47.8,137.2 	"/>
</g>
</svg>
