<?xml version="1.0" encoding="UTF-8" standalone="no"?>
<svg
   xmlns:dc="http://purl.org/dc/elements/1.1/"
   xmlns:cc="http://creativecommons.org/ns#"
   xmlns:rdf="http://www.w3.org/1999/02/22-rdf-syntax-ns#"
   xmlns:svg="http://www.w3.org/2000/svg"
   xmlns="http://www.w3.org/2000/svg"
   xml:space="preserve"
   y="0px"
   x="0px"
   width="3000.0"
   viewBox="0 0 3000.000000 3000.000000"
   version="1.1"
   style="background-color:white"
   id="svg1445"
   height="3000.0"><metadata
   id="metadata1451"><rdf:RDF><cc:Work
       rdf:about=""><dc:format>image/svg+xml</dc:format><dc:type
         rdf:resource="http://purl.org/dc/dcmitype/StillImage" /></cc:Work></rdf:RDF></metadata><defs
   id="defs1449" />
<style
   type="text/css"
   id="style2">.st0 {
    fill: none;
    stroke:#000000;
    stroke-miterlimit: 10
    stroke-width:3.000000;stroke-linecap:round;stroke-linejoin:round;}</style>
<g
   fill="none"
   stroke-linejoin="round"
   stroke-linecap="round"
   stroke-width="3.000000"
   stroke="#000000"
   id="Vector_rough">
	<path
   fill="none"
   stroke-width="3.000000"
   stroke-linejoin="round"
   stroke-linecap="round"
   stroke="#000000"
   id="path4"
   d="M 640.526199 566.408751 c 53.357781 -45.105320 107.337146 -90.130318 167.876477 -125.009155 c 60.539330 -34.878794 128.528595 -59.422472 198.393249 -60.104709"
   class="st0" />
	<path
   fill="none"
   stroke-width="3.000000"
   stroke-linejoin="round"
   stroke-linecap="round"
   stroke="#000000"
   id="path6"
   d="M 909.171634 387.298245 c 49.116177 0.771840 96.783193 19.133038 138.109165 45.687824 c 41.399977 26.602258 77.383423 61.595154 105.130853 102.236515"
   class="st0" />
	<path
   fill="none"
   stroke-width="3.000000"
   stroke-linejoin="round"
   stroke-linecap="round"
   stroke="#000000"
   id="path8"
   d="M 917.571089 381.229146 c 94.290415 -0.477515 188.047028 40.630764 251.578267 110.306380 c 10.640462 11.669540 20.507473 24.153646 28.127119 37.986162 c 13.313124 24.168354 19.413164 52.251901 17.325846 79.765405"
   class="st0" />
	<path
   fill="none"
   stroke-width="3.000000"
   stroke-linejoin="round"
   stroke-linecap="round"
   stroke="#000000"
   id="path10"
   d="M 1074.701436 422.092522 c 49.396854 18.722958 86.603970 61.968274 108.035194 110.251829 c 21.431308 48.283513 28.773159 101.565170 32.820808 154.235967 c 5.317773 69.199456 4.836188 141.349030 -23.734962 204.598829"
   class="st0" />
	<path
   fill="none"
   stroke-width="3.000000"
   stroke-linejoin="round"
   stroke-linecap="round"
   stroke="#000000"
   id="path12"
   d="M 1213.219961 684.199863 c -2.016449 27.595774 -4.032813 55.191549 -6.049262 82.787323 c -0.507016 6.939104 -1.014879 13.885922 -2.037133 20.768060 c -4.997508 33.644528 -21.953244 64.149221 -38.610331 93.805101"
   class="st0" />
	<path
   fill="none"
   stroke-width="3.000000"
   stroke-linejoin="round"
   stroke-linecap="round"
   stroke="#000000"
   id="path14"
   d="M 1120.267147 800.438605 c 11.592356 18.879530 23.184797 37.759145 34.777154 56.638760"
   class="st0" />
	<path
   fill="none"
   stroke-width="3.000000"
   stroke-linejoin="round"
   stroke-linecap="round"
   stroke="#000000"
   id="path16"
   d="M 1121.640354 813.373057 c 13.333978 22.703976 31.758542 42.398919 53.524356 57.214949"
   class="st0" />
	<path
   fill="none"
   stroke-width="3.000000"
   stroke-linejoin="round"
   stroke-linecap="round"
   stroke="#000000"
   id="path18"
   d="M 1192.971887 792.511325 c -0.317976 47.921414 -0.635952 95.842743 -0.953844 143.764157"
   class="st0" />
	<path
   fill="none"
   stroke-width="3.000000"
   stroke-linejoin="round"
   stroke-linecap="round"
   stroke="#000000"
   id="path20"
   d="M 1207.535044 811.308882 c 1.044295 45.164490 -0.452677 90.387641 -4.481591 135.384199"
   class="st0" />
	<path
   fill="none"
   stroke-width="3.000000"
   stroke-linejoin="round"
   stroke-linecap="round"
   stroke="#000000"
   id="path22"
   d="M 1205.850135 939.101071 c 13.946025 18.696849 30.790541 35.227373 49.746450 48.819224 c 6.364102 4.563226 12.969547 8.801693 19.079590 13.699934 c 17.446306 13.985867 30.236053 32.812415 42.754279 51.340061"
   class="st0" />
	<path
   fill="none"
   stroke-width="3.000000"
   stroke-linejoin="round"
   stroke-linecap="round"
   stroke="#000000"
   id="path24"
   d="M 1200.114526 930.517832 c 7.965427 9.615072 18.154653 17.090692 28.232151 24.462382 c 33.886719 24.787988 67.773353 49.575975 101.659987 74.363963 c 8.301120 6.072235 17.262183 13.176303 18.916914 23.327298 c 2.021705 0.134108 4.043410 0.268216 6.065030 0.402323"
   class="st0" />
	<path
   fill="none"
   stroke-width="3.000000"
   stroke-linejoin="round"
   stroke-linecap="round"
   stroke="#000000"
   id="path26"
   d="M 1206.097073 880.242496 c 4.487779 25.354936 20.360735 46.996646 35.778893 67.619239 c 4.763794 6.371731 9.560988 12.781186 15.377384 18.209076 c 7.076433 6.603750 15.479024 11.587101 23.808712 16.516622 c 23.242103 13.754442 46.484205 27.508884 69.726223 41.263326"
   class="st0" />
	<path
   fill="none"
   stroke-width="3.000000"
   stroke-linejoin="round"
   stroke-linecap="round"
   stroke="#000000"
   id="path28"
   d="M 1311.250136 1029.060364 c 21.674601 1.648458 34.030236 24.428050 46.623315 42.145962 c 17.879062 25.155046 42.860413 44.183095 65.054406 65.627543 c 18.440755 17.818027 35.100810 37.478214 49.651591 58.592733"
   class="st0" />
	<path
   fill="none"
   stroke-width="3.000000"
   stroke-linejoin="round"
   stroke-linecap="round"
   stroke="#000000"
   id="path30"
   d="M 1402.141402 1099.787309 c 39.286889 49.134827 81.441667 95.976173 126.178402 140.206401"
   class="st0" />
	<path
   fill="none"
   stroke-width="3.000000"
   stroke-linejoin="round"
   stroke-linecap="round"
   stroke="#000000"
   id="path32"
   d="M 1438.840739 1176.237233 c 42.305501 26.414490 79.215156 60.466258 118.647427 91.004350 s 82.754347 58.170573 131.523471 68.613095"
   class="st0" />
	<path
   fill="none"
   stroke-width="3.000000"
   stroke-linejoin="round"
   stroke-linecap="round"
   stroke="#000000"
   id="path34"
   d="M 1401.200612 1196.381378 c 11.719513 -4.068248 24.328868 1.788330 35.385386 7.414076 c 85.417514 43.461185 173.462762 81.757100 263.494873 114.608849"
   class="st0" />
	<path
   fill="none"
   stroke-width="3.000000"
   stroke-linejoin="round"
   stroke-linecap="round"
   stroke="#000000"
   id="path36"
   d="M 1407.354397 1209.820557 c -1.835971 1.513163 -3.499773 -2.926975 -1.356761 -3.960419 s 4.574924 0.528887 6.454976 1.986779 c 27.537452 21.354336 59.404924 37.100559 93.096330 46.000587 c -8.617147 4.702165 -17.875332 8.227624 -27.437507 10.447947"
   class="st0" />
	<path
   fill="none"
   stroke-width="3.000000"
   stroke-linejoin="round"
   stroke-linecap="round"
   stroke="#000000"
   id="path38"
   d="M 1421.572198 1205.528683 c 77.880520 12.556966 153.135342 41.174995 219.680108 83.540599"
   class="st0" />
	<path
   fill="none"
   stroke-width="3.000000"
   stroke-linejoin="round"
   stroke-linecap="round"
   stroke="#000000"
   id="path40"
   d="M 1313.329230 1086.261495 c 0.089010 -3.503757 0.178104 -7.007514 0.267198 -10.511356 c 6.780243 -0.031281 11.531152 6.428104 15.147146 12.163798 c 20.766110 32.939233 43.162028 64.850871 67.078400 95.579359 c 6.053077 7.777235 12.500763 15.723589 21.346283 20.069038"
   class="st0" />
	<path
   fill="none"
   stroke-width="3.000000"
   stroke-linejoin="round"
   stroke-linecap="round"
   stroke="#000000"
   id="path42"
   d="M 1127.284834 1060.775418 c 11.313799 18.591902 19.955105 38.807254 25.576274 59.832594 c 8.060286 30.148909 10.850016 63.793945 31.836955 86.890920 c -1.707628 -9.820557 -3.415341 -19.641113 -5.122969 -29.461670 c -6.471252 -37.215339 -12.965902 -74.738312 -11.831665 -112.495083 c 5.036079 2.209388 11.562771 -2.845764 10.683102 -8.274333 c 8.048163 2.660116 14.031135 9.263696 20.797136 14.369626 c 6.766086 5.105930 16.056824 8.849589 23.556349 4.898919 c 21.730126 22.925822 43.460337 45.851559 65.190548 68.777381 c 2.781338 2.934435 5.905914 6.047821 9.921858 6.515842 c 2.730476 0.318315 5.640327 -0.640700 8.174133 0.425466 c 1.844618 0.776164 3.104316 2.478282 4.271105 4.104190 c 5.388980 7.509613 10.777876 15.019141 16.166772 22.528754"
   class="st0" />
	<path
   fill="none"
   stroke-width="3.000000"
   stroke-linejoin="round"
   stroke-linecap="round"
   stroke="#000000"
   id="path44"
   d="M 1037.809584 1054.644267 c -19.235145 28.142717 -40.265995 55.057949 -62.922245 80.527496"
   class="st0" />
	<path
   fill="none"
   stroke-width="3.000000"
   stroke-linejoin="round"
   stroke-linecap="round"
   stroke="#000000"
   id="path46"
   d="M 1052.999454 1046.926880 c -8.644952 2.292040 -13.455624 11.213684 -17.700026 19.085948 c -11.877526 22.029707 -26.984914 42.314572 -44.689178 60.004764"
   class="st0" />
	<path
   fill="none"
   stroke-width="3.000000"
   stroke-linejoin="round"
   stroke-linecap="round"
   stroke="#000000"
   id="path48"
   d="M 1055.976020 1043.970489 c -12.187025 21.857876 -25.684102 42.985196 -40.394847 63.230726"
   class="st0" />
	<path
   fill="none"
   stroke-width="3.000000"
   stroke-linejoin="round"
   stroke-linecap="round"
   stroke="#000000"
   id="path50"
   d="M 1523.351033 1283.207533 c 8.637492 82.556322 56.749302 160.393948 47.916158 242.929586"
   class="st0" />
	<path
   fill="none"
   stroke-width="3.000000"
   stroke-linejoin="round"
   stroke-linecap="round"
   stroke="#000000"
   id="path52"
   d="M 1541.822984 1302.016364 c 9.681532 13.324229 16.990831 28.366767 21.483697 44.212257 c 3.399489 11.989763 5.185615 24.368032 6.962755 36.703067 c 4.568821 31.713698 9.137811 63.427395 13.706631 95.140923"
   class="st0" />
	<path
   fill="none"
   stroke-width="3.000000"
   stroke-linejoin="round"
   stroke-linecap="round"
   stroke="#000000"
   id="path54"
   d="M 1590.750461 1432.439847 c 5.614895 26.532322 7.032945 53.948466 4.185147 80.918545"
   class="st0" />
	<path
   fill="none"
   stroke-width="3.000000"
   stroke-linejoin="round"
   stroke-linecap="round"
   stroke="#000000"
   id="path56"
   d="M 1604.274665 1484.257677 c 6.053162 41.347758 9.398566 83.091905 10.007392 124.876065"
   class="st0" />
	<path
   fill="none"
   stroke-width="3.000000"
   stroke-linejoin="round"
   stroke-linecap="round"
   stroke="#000000"
   id="path58"
   d="M 1489.666409 1477.526177 c -15.290663 29.809909 -34.367879 57.675001 -56.627740 82.713487"
   class="st0" />
	<path
   fill="none"
   stroke-width="3.000000"
   stroke-linejoin="round"
   stroke-linecap="round"
   stroke="#000000"
   id="path60"
   d="M 1446.877374 1588.412984 c -20.793321 47.278849 -51.613532 90.119425 -89.829678 124.863858"
   class="st0" />
	<path
   fill="none"
   stroke-width="3.000000"
   stroke-linejoin="round"
   stroke-linecap="round"
   stroke="#000000"
   id="path62"
   d="M 1401.140255 1678.069390 c -9.949239 17.928399 -19.898478 35.856798 -29.847717 53.785197"
   class="st0" />
	<path
   fill="none"
   stroke-width="3.000000"
   stroke-linejoin="round"
   stroke-linecap="round"
   stroke="#000000"
   id="path64"
   d="M 1453.034973 1594.407654 c -1.491801 46.619839 -42.467329 82.325745 -55.320909 127.163527 c 18.172879 -20.313348 36.345757 -40.626695 54.518636 -60.940043"
   class="st0" />
	<path
   fill="none"
   stroke-width="3.000000"
   stroke-linejoin="round"
   stroke-linecap="round"
   stroke="#000000"
   id="path66"
   d="M 1343.038771 1704.967414 c -0.133006 22.559950 3.145938 45.137024 9.691111 66.727193"
   class="st0" />
	<path
   fill="none"
   stroke-width="3.000000"
   stroke-linejoin="round"
   stroke-linecap="round"
   stroke="#000000"
   id="path68"
   d="M 1356.479814 1711.297777 c 2.553643 21.302626 7.778676 42.283800 15.514035 62.296041"
   class="st0" />
	<path
   fill="none"
   stroke-width="3.000000"
   stroke-linejoin="round"
   stroke-linecap="round"
   stroke="#000000"
   id="path70"
   d="M 1392.255062 1702.892897 c -0.026703 21.231418 3.624386 42.462667 10.742103 62.465583"
   class="st0" />
	<path
   fill="none"
   stroke-width="3.000000"
   stroke-linejoin="round"
   stroke-linecap="round"
   stroke="#000000"
   id="path72"
   d="M 1455.627441 1755.758667 c 31.689962 -25.786675 64.741007 -49.900987 98.969184 -72.208659"
   class="st0" />
	<path
   fill="none"
   stroke-width="3.000000"
   stroke-linejoin="round"
   stroke-linecap="round"
   stroke="#000000"
   id="path74"
   d="M 1699.014791 1319.122399 c 17.224799 17.431725 24.213155 42.236922 30.567593 65.905084 c 16.183641 60.278914 32.367452 120.557743 48.551093 180.836572"
   class="st0" />
	<path
   fill="none"
   stroke-width="3.000000"
   stroke-linejoin="round"
   stroke-linecap="round"
   stroke="#000000"
   id="path76"
   d="M 1703.047180 1331.510078 c 34.997728 137.775506 69.995456 275.551012 104.993184 413.326518"
   class="st0" />
	<path
   fill="none"
   stroke-width="3.000000"
   stroke-linejoin="round"
   stroke-linecap="round"
   stroke="#000000"
   id="path78"
   d="M 1770.730930 1550.398763 c -3.421868 9.030321 -4.947578 18.654717 -6.211344 28.228590 c -8.355713 63.298374 -6.096056 127.984958 6.656223 190.546163"
   class="st0" />
	<path
   fill="none"
   stroke-width="3.000000"
   stroke-linejoin="round"
   stroke-linecap="round"
   stroke="#000000"
   id="path80"
   d="M 1777.682665 1571.321954 c 3.733148 63.678487 -18.929206 126.642524 -15.783183 190.352885"
   class="st0" />
	<path
   fill="none"
   stroke-width="3.000000"
   stroke-linejoin="round"
   stroke-linecap="round"
   stroke="#000000"
   id="path82"
   d="M 1794.922384 1683.999973 c 10.035875 44.614326 3.418138 91.482713 11.302185 136.527167 c 5.151367 29.432848 16.394043 57.489353 22.308519 86.778429 c 8.958435 44.362725 5.466885 90.176900 1.938036 135.297309 c -2.231683 28.533597 -4.463365 57.067193 -6.695048 85.600789 c -2.220493 28.389147 -5.164252 58.678352 -23.031786 80.851067"
   class="st0" />
	<path
   fill="none"
   stroke-width="3.000000"
   stroke-linejoin="round"
   stroke-linecap="round"
   stroke="#000000"
   id="path84"
   d="M 1762.856208 1663.528103 c 10.347833 21.559482 20.695665 43.118964 31.043498 64.678446"
   class="st0" />
	<path
   fill="none"
   stroke-width="3.000000"
   stroke-linejoin="round"
   stroke-linecap="round"
   stroke="#000000"
   id="path86"
   d="M 1773.956638 1958.343845 c 12.870789 39.044528 30.000814 76.526727 47.094048 113.915846 c 30.854797 67.490302 61.709595 134.980604 92.564222 202.471076"
   class="st0" />
	<path
   fill="none"
   stroke-width="3.000000"
   stroke-linejoin="round"
   stroke-linecap="round"
   stroke="#000000"
   id="path88"
   d="M 1788.535902 1973.385620 c 30.715264 43.764920 36.907959 99.429830 49.196370 151.466200 c 15.378486 65.122138 41.673788 127.652317 77.457174 184.193590"
   class="st0" />
	<path
   fill="none"
   stroke-width="3.000000"
   stroke-linejoin="round"
   stroke-linecap="round"
   stroke="#000000"
   id="path90"
   d="M 1739.363437 2115.852695 c 3.200955 -8.405389 5.999417 -16.964043 8.382670 -25.636631 c 2.251689 -8.194139 2.993435 -19.164361 -4.600525 -22.978210 c -5.924479 -2.975294 -13.444858 1.152717 -16.466438 7.053969 s -2.739292 12.885878 -2.273560 19.499207 c 1.752218 24.881999 6.584846 52.389865 26.419067 67.515564 c 15.899319 12.124803 37.552049 13.070170 57.479180 11.423747 c 9.838867 -0.812954 20.647346 -2.670288 26.851908 -10.349358"
   class="st0" />
	<path
   fill="none"
   stroke-width="3.000000"
   stroke-linejoin="round"
   stroke-linecap="round"
   stroke="#000000"
   id="path92"
   d="M 1787.825860 2123.611620 c -5.783759 29.542033 -9.019470 59.582520 -9.659492 89.678616"
   class="st0" />
	<path
   fill="none"
   stroke-width="3.000000"
   stroke-linejoin="round"
   stroke-linecap="round"
   stroke="#000000"
   id="path94"
   d="M 1904.809401 2277.265083 c 8.195157 63.790724 17.145114 127.586365 20.140415 191.831292 c 3.619215 77.634515 -1.480611 155.372450 -3.323534 233.069356 c -1.533678 64.659119 -0.810411 129.371643 2.167765 193.980238 c 1.535204 33.303494 4.307895 68.491279 23.459880 95.780436"
   class="st0" />
	<path
   fill="none"
   stroke-width="3.000000"
   stroke-linejoin="round"
   stroke-linecap="round"
   stroke="#000000"
   id="path96"
   d="M 1899.524434 2261.581251 c 12.597317 17.966716 14.706590 41.037835 16.046651 62.939962 c 3.347439 54.704624 4.436747 109.519450 5.525377 164.315626 c 3.073120 154.690552 6.146410 309.381103 9.219530 464.071486"
   class="st0" />
	<path
   fill="none"
   stroke-width="3.000000"
   stroke-linejoin="round"
   stroke-linecap="round"
   stroke="#000000"
   id="path98"
   d="M 1605.090163 2090.111796 c -1.287164 -0.644769 0.591193 -2.730136 1.795281 -1.940918 s 1.202562 2.522617 1.068285 3.955926 c -7.862345 83.877563 -9.195964 168.366326 -3.984748 252.450222"
   class="st0" />
	<path
   fill="none"
   stroke-width="3.000000"
   stroke-linejoin="round"
   stroke-linecap="round"
   stroke="#000000"
   id="path100"
   d="M 1627.881537 2090.349833 c 13.292609 89.120822 -19.780477 179.781087 -10.160997 269.372898"
   class="st0" />
	<path
   fill="none"
   stroke-width="3.000000"
   stroke-linejoin="round"
   stroke-linecap="round"
   stroke="#000000"
   id="path102"
   d="M 1623.019579 2077.719625 c -3.666009 59.457567 -12.830946 118.515862 -15.198432 178.039212 c -2.367486 59.523519 2.377319 120.496792 25.354512 175.457764"
   class="st0" />
	<path
   fill="none"
   stroke-width="3.000000"
   stroke-linejoin="round"
   stroke-linecap="round"
   stroke="#000000"
   id="path104"
   d="M 1614.314270 2350.908407 c 14.881049 123.031786 59.760030 242.326694 129.661391 344.659763"
   class="st0" />
	<path
   fill="none"
   stroke-width="3.000000"
   stroke-linejoin="round"
   stroke-linecap="round"
   stroke="#000000"
   id="path106"
   d="M 1610.788303 2309.215800 c 30.124749 129.539998 74.693129 255.715603 132.613797 375.437419"
   class="st0" />
	<path
   fill="none"
   stroke-width="3.000000"
   stroke-linejoin="round"
   stroke-linecap="round"
   stroke="#000000"
   id="path108"
   d="M 1622.200182 2280.761888 c 5.658468 9.690687 9.376695 20.509169 10.871209 31.631131 c 1.296658 9.648811 0.931803 19.432916 1.301405 29.161241 c 1.426358 37.534756 13.747830 73.846266 17.396206 111.230469"
   class="st0" />
	<path
   fill="none"
   stroke-width="3.000000"
   stroke-linejoin="round"
   stroke-linecap="round"
   stroke="#000000"
   id="path110"
   d="M 1633.109707 2408.517456 c 68.146600 142.437575 123.474799 291.004774 165.097724 443.320041"
   class="st0" />
	<path
   fill="none"
   stroke-width="3.000000"
   stroke-linejoin="round"
   stroke-linecap="round"
   stroke="#000000"
   id="path112"
   d="M 1733.769226 2665.452237 c 27.734375 96.312290 52.252706 193.550449 73.500400 291.498311"
   class="st0" />
	<path
   fill="none"
   stroke-width="3.000000"
   stroke-linejoin="round"
   stroke-linecap="round"
   stroke="#000000"
   id="path114"
   d="M 1769.764031 2802.564663 c -0.602553 13.352119 2.505493 26.597595 5.932617 39.598423 c 6.832377 25.919257 15.018887 51.621501 19.111464 78.006321 c 4.092407 26.385159 3.936259 53.822157 -5.652873 79.021200"
   class="st0" />
	<path
   fill="none"
   stroke-width="3.000000"
   stroke-linejoin="round"
   stroke-linecap="round"
   stroke="#000000"
   id="path116"
   d="M 1808.442688 2949.091932 c -1.509942 14.040799 -6.163533 27.800836 -13.599481 40.211656"
   class="st0" />
	<path
   fill="none"
   stroke-width="3.000000"
   stroke-linejoin="round"
   stroke-linecap="round"
   stroke="#000000"
   id="path118"
   d="M 1805.184258 2952.708266 c -4.581027 12.556288 -10.028246 24.855550 -16.299778 36.802843"
   class="st0" />
	<path
   fill="none"
   stroke-width="3.000000"
   stroke-linejoin="round"
   stroke-linecap="round"
   stroke="#000000"
   id="path120"
   d="M 1765.923055 2998.272027 c 10.079278 -7.244873 20.245870 -14.541287 31.703356 -19.797770 c 28.522068 -13.085259 61.963060 -12.328084 93.847487 -11.278280 c 7.684665 0.252957 15.519206 0.531684 22.738647 2.954780 c 11.223009 3.766547 19.653151 12.226359 27.614170 20.387438"
   class="st0" />
	<path
   fill="none"
   stroke-width="3.000000"
   stroke-linejoin="round"
   stroke-linecap="round"
   stroke="#000000"
   id="path122"
   d="M 1792.525228 2994.559055 c 13.054911 -4.693943 26.791212 -7.488336 40.642463 -8.267551 c 7.610914 -0.428263 15.241665 -0.251600 22.862583 -0.074938 c 24.721781 0.573391 49.443732 1.146783 74.165514 1.720513"
   class="st0" />
	<path
   fill="none"
   stroke-width="3.000000"
   stroke-linejoin="round"
   stroke-linecap="round"
   stroke="#000000"
   id="path124"
   d="M 1504.421149 1890.598891 c 24.562581 28.856574 45.347087 60.925293 61.657037 95.130920 c 8.988614 18.851556 16.612074 38.318380 24.226888 57.765537 c 15.265910 38.987054 30.531989 77.974107 45.797899 116.961161"
   class="st0" />
	<path
   fill="none"
   stroke-width="3.000000"
   stroke-linejoin="round"
   stroke-linecap="round"
   stroke="#000000"
   id="path126"
   d="M 1501.722548 1882.588365 c 41.960822 92.178684 86.400859 183.228726 133.256022 273.018562"
   class="st0" />
	<path
   fill="none"
   stroke-width="3.000000"
   stroke-linejoin="round"
   stroke-linecap="round"
   stroke="#000000"
   id="path128"
   d="M 1518.818834 1869.845412 c 25.019158 56.827121 51.341247 113.080512 78.938463 168.701341 c 16.656325 33.569845 33.956062 67.410448 41.536797 104.110548"
   class="st0" />
	<path
   fill="none"
   stroke-width="3.000000"
   stroke-linejoin="round"
   stroke-linecap="round"
   stroke="#000000"
   id="path130"
   d="M 1546.651204 1798.721652 c 30.184767 120.879110 66.347249 240.265062 108.311293 357.576158"
   class="st0" />
	<path
   fill="none"
   stroke-width="3.000000"
   stroke-linejoin="round"
   stroke-linecap="round"
   stroke="#000000"
   id="path132"
   d="M 1637.758382 2117.540487 c 3.598870 23.590597 7.197740 47.181023 10.796611 70.771620"
   class="st0" />
	<path
   fill="none"
   stroke-width="3.000000"
   stroke-linejoin="round"
   stroke-linecap="round"
   stroke="#000000"
   id="path134"
   d="M 1596.137153 1660.260688 c -20.834859 29.365031 -41.669718 58.730062 -62.504747 88.095262"
   class="st0" />
	<path
   fill="none"
   stroke-width="3.000000"
   stroke-linejoin="round"
   stroke-linecap="round"
   stroke="#000000"
   id="path136"
   d="M 1608.255853 1650.120544 c -14.366828 39.101495 -48.306274 67.050680 -73.652310 100.109694"
   class="st0" />
	<path
   fill="none"
   stroke-width="3.000000"
   stroke-linejoin="round"
   stroke-linecap="round"
   stroke="#000000"
   id="path138"
   d="M 1664.990573 1665.863207 c -4.959954 -1.379395 -9.727478 2.403937 -13.546922 5.855984 c -31.676738 28.630405 -67.247179 52.947320 -105.423482 72.070143"
   class="st0" />
	<path
   fill="none"
   stroke-width="3.000000"
   stroke-linejoin="round"
   stroke-linecap="round"
   stroke="#000000"
   id="path140"
   d="M 1595.081245 1735.646735 c 28.656684 -10.715230 55.387709 -26.557753 78.545634 -46.551175 c 4.630025 -3.997294 9.534878 -9.285651 8.482361 -15.311008"
   class="st0" />
	<path
   fill="none"
   stroke-width="3.000000"
   stroke-linejoin="round"
   stroke-linecap="round"
   stroke="#000000"
   id="path142"
   d="M 1540.422567 1692.550490 c -1.362779 58.513896 -4.381137 118.498908 -27.411567 172.307163 c -12.395392 28.960673 -30.226474 55.212741 -47.943963 81.260003 c -51.340315 75.476583 -103.038788 151.394992 -166.838582 216.680061"
   class="st0" />
	<path
   fill="none"
   stroke-width="3.000000"
   stroke-linejoin="round"
   stroke-linecap="round"
   stroke="#000000"
   id="path144"
   d="M 1558.430481 1721.697998 c -8.263821 75.906372 -37.708198 148.280334 -76.185269 214.231703 c -38.477071 65.951538 -85.943688 126.139662 -133.241272 186.081441 c -33.542718 42.509800 -67.085436 85.019769 -100.628153 127.529568"
   class="st0" />
	<path
   fill="none"
   stroke-width="3.000000"
   stroke-linejoin="round"
   stroke-linecap="round"
   stroke="#000000"
   id="path146"
   d="M 1577.217950 1727.021281 c -18.211534 72.698805 -46.320767 142.911106 -83.309089 208.092753 c -21.836175 38.479953 -46.703932 75.142076 -71.541850 111.756388 c -52.325100 77.133687 -104.650116 154.267544 -156.975132 231.401232"
   class="st0" />
	<path
   fill="none"
   stroke-width="3.000000"
   stroke-linejoin="round"
   stroke-linecap="round"
   stroke="#000000"
   id="path148"
   d="M 1298.974779 2151.038954 c 29.487440 -31.545512 58.974965 -63.091024 88.462406 -94.636705 c 16.180674 -17.309909 32.730781 -34.911940 53.485531 -46.344333"
   class="st0" />
	<path
   fill="none"
   stroke-width="3.000000"
   stroke-linejoin="round"
   stroke-linecap="round"
   stroke="#000000"
   id="path150"
   d="M 1279.630788 2231.294081 c -2.127075 46.874322 -8.297729 93.537564 -9.084744 140.453593 c -0.787099 46.915860 4.065704 94.811503 22.948117 137.767029"
   class="st0" />
	<path
   fill="none"
   stroke-width="3.000000"
   stroke-linejoin="round"
   stroke-linecap="round"
   stroke="#000000"
   id="path152"
   d="M 1310.787286 2202.654182 c -3.546143 45.849779 -12.379456 91.170587 -15.833961 137.027147 c -3.454420 45.856730 -1.259698 93.220690 16.353607 135.700650"
   class="st0" />
	<path
   fill="none"
   stroke-width="3.000000"
   stroke-linejoin="round"
   stroke-linecap="round"
   stroke="#000000"
   id="path154"
   d="M 1326.633453 2190.638394 c -11.716376 127.761163 -14.852990 256.308662 -9.381697 384.489271 c 1.066674 24.990167 2.471585 50.062900 7.264709 74.612427"
   class="st0" />
	<path
   fill="none"
   stroke-width="3.000000"
   stroke-linejoin="round"
   stroke-linecap="round"
   stroke="#000000"
   id="path156"
   d="M 1357.507239 2146.884833 c -41.533068 183.077494 -44.744703 374.756198 -9.368303 559.122382 c 5.216726 27.187602 11.292945 54.747857 8.519999 82.292175 c -2.218797 22.040304 -10.020362 43.080478 -17.754449 63.838196 c -11.983490 32.162476 -23.966980 64.325290 -35.950555 96.488105"
   class="st0" />
	<path
   fill="none"
   stroke-width="3.000000"
   stroke-linejoin="round"
   stroke-linecap="round"
   stroke="#000000"
   id="path158"
   d="M 1412.638007 2071.920776 c -6.233131 27.385288 -17.186991 53.432380 -28.087616 79.316372 c -5.578868 13.247172 -11.188422 26.554532 -18.726349 38.793437 c -4.743279 7.701450 -10.219065 14.927504 -15.085432 22.551812 c -9.900835 15.511915 -17.237176 32.656691 -21.621704 50.529141"
   class="st0" />
	<path
   fill="none"
   stroke-width="3.000000"
   stroke-linejoin="round"
   stroke-linecap="round"
   stroke="#000000"
   id="path160"
   d="M 1395.738051 2110.741679 c -20.707957 41.032749 -41.415914 82.065667 -62.123956 123.098585"
   class="st0" />
	<path
   fill="none"
   stroke-width="3.000000"
   stroke-linejoin="round"
   stroke-linecap="round"
   stroke="#000000"
   id="path162"
   d="M 1333.148702 2496.419779 c 6.096903 39.784580 12.193722 79.569160 18.290541 119.353739 c 6.316206 41.215685 12.647417 82.618205 12.735918 124.315050 c 0.189039 89.077759 -27.980465 175.482178 -55.849372 260.088433"
   class="st0" />
	<path
   fill="none"
   stroke-width="3.000000"
   stroke-linejoin="round"
   stroke-linecap="round"
   stroke="#000000"
   id="path164"
   d="M 1326.182726 2491.761949 c 30.311839 107.266744 60.905880 218.834941 42.551083 328.780789 c -9.784953 58.612061 -33.297051 114.749824 -37.744819 174.006483"
   class="st0" />
	<path
   fill="none"
   stroke-width="3.000000"
   stroke-linejoin="round"
   stroke-linecap="round"
   stroke="#000000"
   id="path166"
   d="M 1361.117384 2665.168932 c 19.765218 40.212674 34.305318 84.180874 32.751295 128.961521 c -0.862206 24.843852 -6.639184 49.222819 -12.389035 73.407661 c -10.329183 43.445842 -20.658366 86.892022 -30.987549 130.338203"
   class="st0" />
	<path
   fill="none"
   stroke-width="3.000000"
   stroke-linejoin="round"
   stroke-linecap="round"
   stroke="#000000"
   id="path168"
   d="M 1394.663578 2834.058126 c 1.034207 11.180793 -1.702287 22.328525 -4.417504 33.223979 c -9.854635 39.542982 -19.709184 79.085965 -29.563819 118.628947"
   class="st0" />
	<path
   fill="none"
   stroke-width="3.000000"
   stroke-linejoin="round"
   stroke-linecap="round"
   stroke="#000000"
   id="path170"
   d="M 1377.426232 2844.364760 c -11.707645 40.997993 -23.415290 81.995985 -35.122935 122.993978"
   class="st0" />
	<path
   fill="none"
   stroke-width="3.000000"
   stroke-linejoin="round"
   stroke-linecap="round"
   stroke="#000000"
   id="path172"
   d="M 760.972850 788.137393 c -1.000977 4.501088 6.403605 4.717424 10.745409 3.164588 c 13.459693 -4.813724 28.989919 -3.464254 41.417694 3.598955"
   class="st0" />
	<path
   fill="none"
   stroke-width="3.000000"
   stroke-linejoin="round"
   stroke-linecap="round"
   stroke="#000000"
   id="path174"
   d="M 754.014248 793.078613 c 11.253442 -1.936001 22.434913 2.708435 33.473206 5.631510 s 24.257321 3.618028 32.404921 -4.382324"
   class="st0" />
	<path
   fill="none"
   stroke-width="3.000000"
   stroke-linejoin="round"
   stroke-linecap="round"
   stroke="#000000"
   id="path176"
   d="M 803.512149 798.756409 c 1.094140 40.978071 2.188280 81.956058 3.282335 122.934129"
   class="st0" />
	<path
   fill="none"
   stroke-width="3.000000"
   stroke-linejoin="round"
   stroke-linecap="round"
   stroke="#000000"
   id="path178"
   d="M 816.027239 798.661126 c 8.512115 45.384132 8.571201 92.339410 0.173357 137.744819"
   class="st0" />
	<path
   fill="none"
   stroke-width="3.000000"
   stroke-linejoin="round"
   stroke-linecap="round"
   stroke="#000000"
   id="path180"
   d="M 782.189348 930.448998 c 14.017147 -2.697161 28.891330 -0.728692 41.724226 5.521986"
   class="st0" />
	<path
   fill="none"
   stroke-width="3.000000"
   stroke-linejoin="round"
   stroke-linecap="round"
   stroke="#000000"
   id="path182"
   d="M 784.166887 942.038473 c 18.839349 0.260417 37.713877 -2.178277 55.868276 -7.218509"
   class="st0" />
	<path
   fill="none"
   stroke-width="3.000000"
   stroke-linejoin="round"
   stroke-linecap="round"
   stroke="#000000"
   id="path184"
   d="M 829.318661 927.605099 c 4.924689 20.817142 9.849464 41.634369 14.774238 62.451511"
   class="st0" />
	<path
   fill="none"
   stroke-width="3.000000"
   stroke-linejoin="round"
   stroke-linecap="round"
   stroke="#000000"
   id="path186"
   d="M 834.760623 926.215702 c 7.239872 29.774051 15.191057 59.375085 23.844655 88.769362"
   class="st0" />
	<path
   fill="none"
   stroke-width="3.000000"
   stroke-linejoin="round"
   stroke-linecap="round"
   stroke="#000000"
   id="path188"
   d="M 839.806959 979.769474 c -8.813731 25.296868 -26.384481 46.832699 -46.874576 64.088609 c -20.490180 17.255910 -43.931325 30.601925 -67.391374 43.534088 c -12.277476 6.767782 -24.601746 13.450877 -36.971537 20.048608"
   class="st0" />
	<path
   fill="none"
   stroke-width="3.000000"
   stroke-linejoin="round"
   stroke-linecap="round"
   stroke="#000000"
   id="path190"
   d="M 849.573941 993.249766 c -32.538011 34.397125 -70.363871 63.283454 -108.005778 92.005751 c -9.371863 7.151116 -18.942515 14.411757 -30.051761 18.355730"
   class="st0" />
	<path
   fill="none"
   stroke-width="3.000000"
   stroke-linejoin="round"
   stroke-linecap="round"
   stroke="#000000"
   id="path192"
   d="M 841.184150 1010.001288 c -25.103251 22.800361 -50.206587 45.600806 -75.309923 68.401167"
   class="st0" />
	<path
   fill="none"
   stroke-width="3.000000"
   stroke-linejoin="round"
   stroke-linecap="round"
   stroke="#000000"
   id="path194"
   d="M 850.401815 1019.217004 c -17.027367 20.355309 -35.529836 39.476352 -55.314382 57.163493"
   class="st0" />
	<path
   fill="none"
   stroke-width="3.000000"
   stroke-linejoin="round"
   stroke-linecap="round"
   stroke="#000000"
   id="path196"
   d="M 852.961731 1021.018049 c -13.416714 1.268938 -24.447717 10.688188 -34.501139 19.662984 c -11.792077 10.526954 -23.584239 21.053908 -35.376316 31.580861 c 1.848433 -1.470439 3.696950 -2.940962 5.545383 -4.411401"
   class="st0" />
	<path
   fill="none"
   stroke-width="3.000000"
   stroke-linejoin="round"
   stroke-linecap="round"
   stroke="#000000"
   id="path198"
   d="M 850.585259 1023.555756 c -11.916775 15.630849 -23.833550 31.261614 -35.750326 46.892463 c 0.894419 -1.672702 1.788754 -3.345320 2.683173 -5.018022"
   class="st0" />
	<path
   fill="none"
   stroke-width="3.000000"
   stroke-linejoin="round"
   stroke-linecap="round"
   stroke="#000000"
   id="path200"
   d="M 635.395728 579.385376 c 84.586758 -70.636325 176.984066 -131.912825 274.964820 -182.352659"
   class="st0" />
	<path
   fill="none"
   stroke-width="3.000000"
   stroke-linejoin="round"
   stroke-linecap="round"
   stroke="#000000"
   id="path202"
   d="M 658.531867 559.770457 c -20.706092 51.565213 -39.059448 104.075114 -54.983860 157.311588"
   class="st0" />
	<path
   fill="none"
   stroke-width="3.000000"
   stroke-linejoin="round"
   stroke-linecap="round"
   stroke="#000000"
   id="path204"
   d="M 663.305113 563.229667 c -22.427368 68.607076 -44.951545 137.618425 -55.465571 209.028329"
   class="st0" />
	<path
   fill="none"
   stroke-width="3.000000"
   stroke-linejoin="round"
   stroke-linecap="round"
   stroke="#000000"
   id="path206"
   d="M 627.935579 667.580711 c -3.319931 30.395211 -6.639820 60.790465 -9.959708 91.185633 c -0.596449 5.460527 -0.391473 12.409465 4.638926 14.615716 c 3.997252 1.753065 8.812205 -0.769382 12.939199 0.651550 c 3.484726 1.199765 5.450355 4.815250 6.928804 8.191257 c 4.328834 9.884644 7.322990 20.352851 8.875826 31.031545"
   class="st0" />
	<path
   fill="none"
   stroke-width="3.000000"
   stroke-linejoin="round"
   stroke-linecap="round"
   stroke="#000000"
   id="path208"
   d="M 624.769550 791.385735 c 7.440694 8.597565 14.881388 17.195129 22.322082 25.792694"
   class="st0" />
	<path
   fill="none"
   stroke-width="3.000000"
   stroke-linejoin="round"
   stroke-linecap="round"
   stroke="#000000"
   id="path210"
   d="M 655.773078 821.733941 c -3.664780 58.385976 -1.461114 117.138757 6.567001 175.086127"
   class="st0" />
	<path
   fill="none"
   stroke-width="3.000000"
   stroke-linejoin="round"
   stroke-linecap="round"
   stroke="#000000"
   id="path212"
   d="M 645.443853 846.580844 c 6.249152 49.391005 12.498305 98.782010 18.747457 148.173014"
   class="st0" />
	<path
   fill="none"
   stroke-width="3.000000"
   stroke-linejoin="round"
   stroke-linecap="round"
   stroke="#000000"
   id="path214"
   d="M 662.723626 817.787679 c 5.159929 10.456255 9.328461 21.473863 11.408276 32.946947 c 2.835464 15.641785 1.732975 31.696574 0.620906 47.554270 c -2.199131 31.357998 -4.398261 62.715997 -6.597349 94.073910"
   class="st0" />
	<path
   fill="none"
   stroke-width="3.000000"
   stroke-linejoin="round"
   stroke-linecap="round"
   stroke="#000000"
   id="path216"
   d="M 684.414122 959.347365 c -8.983485 11.838192 -17.966970 23.676385 -26.950497 35.514662"
   class="st0" />
	<path
   fill="none"
   stroke-width="3.000000"
   stroke-linejoin="round"
   stroke-linecap="round"
   stroke="#000000"
   id="path218"
   d="M 689.768007 964.900801 c -10.027525 12.803735 -20.055008 25.607469 -30.082491 38.411289"
   class="st0" />
	<path
   fill="none"
   stroke-width="3.000000"
   stroke-linejoin="round"
   stroke-linecap="round"
   stroke="#000000"
   id="path220"
   d="M 692.956543 961.638896 c -10.358853 11.855062 -20.717663 23.710124 -31.076516 35.565101"
   class="st0" />
	<path
   fill="none"
   stroke-width="3.000000"
   stroke-linejoin="round"
   stroke-linecap="round"
   stroke="#000000"
   id="path222"
   d="M 685.439597 966.991848 c 8.839713 24.071672 17.679426 48.143260 26.519140 72.214847 c 4.366642 11.890920 8.852047 23.998600 16.665395 33.969116"
   class="st0" />
	<path
   fill="none"
   stroke-width="3.000000"
   stroke-linejoin="round"
   stroke-linecap="round"
   stroke="#000000"
   id="path224"
   d="M 684.157605 956.039005 c 7.062658 12.268066 14.125273 24.536048 21.187931 36.804114 c 14.467663 25.130632 29.133733 50.762600 35.380173 79.079522"
   class="st0" />
	<path
   fill="none"
   stroke-width="3.000000"
   stroke-linejoin="round"
   stroke-linecap="round"
   stroke="#000000"
   id="path226"
   d="M 689.286253 955.880144 c 22.236676 25.550503 39.949248 55.027262 52.071253 86.655680 c 2.955797 7.712301 5.580817 15.546417 8.204736 23.377736"
   class="st0" />
	<path
   fill="none"
   stroke-width="3.000000"
   stroke-linejoin="round"
   stroke-linecap="round"
   stroke="#000000"
   id="path228"
   d="M 688.556756 965.309906 c 20.165295 32.912360 36.994510 67.867533 50.146315 104.156579"
   class="st0" />
	<path
   fill="none"
   stroke-width="3.000000"
   stroke-linejoin="round"
   stroke-linecap="round"
   stroke="#000000"
   id="path230"
   d="M 1063.472154 1094.732751 c -25.043911 22.915141 -48.078664 48.025428 -68.753391 74.948544"
   class="st0" />
	<path
   fill="none"
   stroke-width="3.000000"
   stroke-linejoin="round"
   stroke-linecap="round"
   stroke="#000000"
   id="path232"
   d="M 1071.952481 1092.688666 c -13.327111 20.442115 -26.654307 40.884145 -39.981418 61.326260 c 2.119192 -1.056756 4.238298 -2.113512 6.357490 -3.170183"
   class="st0" />
	<path
   fill="none"
   stroke-width="3.000000"
   stroke-linejoin="round"
   stroke-linecap="round"
   stroke="#000000"
   id="path234"
   d="M 746.793620 1114.432865 c 33.085632 -4.721408 66.999647 -3.578440 99.692366 3.359985 c 24.444411 5.187903 48.090532 13.554213 72.264014 19.885847 c 33.553314 8.788384 68.136003 13.640171 102.812364 14.424048"
   class="st0" />
	<path
   fill="none"
   stroke-width="3.000000"
   stroke-linejoin="round"
   stroke-linecap="round"
   stroke="#000000"
   id="path236"
   d="M 746.400282 1122.383881 c 66.277059 -13.729011 134.658898 4.498461 199.210273 24.851566"
   class="st0" />
	<path
   fill="none"
   stroke-width="3.000000"
   stroke-linejoin="round"
   stroke-linecap="round"
   stroke="#000000"
   id="path238"
   d="M 815.225050 1117.411380 c 26.041751 -7.178412 53.819360 -1.171875 79.609002 6.865607 c 25.789557 8.037398 51.428986 18.189748 78.415510 19.386207"
   class="st0" />
	<path
   fill="none"
   stroke-width="3.000000"
   stroke-linejoin="round"
   stroke-linecap="round"
   stroke="#000000"
   id="path240"
   d="M 789.082336 1061.848874 c -1.126777 -0.615692 1.351166 -1.865557 1.684570 -0.625610 c 0.333320 1.240031 -0.959523 2.261946 -2.075789 2.896457 c -33.198971 18.869612 -66.398027 37.739224 -99.597041 56.608921"
   class="st0" />
	<path
   fill="none"
   stroke-width="3.000000"
   stroke-linejoin="round"
   stroke-linecap="round"
   stroke="#000000"
   id="path242"
   d="M 802.932654 1059.037018 c -25.884925 0.271437 -50.337389 11.147902 -73.854150 21.967655 c -28.799269 13.250054 -57.498169 26.718224 -86.093479 40.402900 c 4.020394 -3.376431 8.040831 -6.752862 12.061225 -10.129208"
   class="st0" />
	<path
   fill="none"
   stroke-width="3.000000"
   stroke-linejoin="round"
   stroke-linecap="round"
   stroke="#000000"
   id="path244"
   d="M 752.843306 1069.147322 c -47.780482 10.478804 -93.521161 30.178409 -133.963521 57.695516"
   class="st0" />
	<path
   fill="none"
   stroke-width="3.000000"
   stroke-linejoin="round"
   stroke-linecap="round"
   stroke="#000000"
   id="path246"
   d="M 632.000902 1119.136217 c 22.553211 -1.341756 45.296436 0.551351 67.317454 5.603282 c 11.263826 2.584076 22.333696 5.987549 33.650208 8.330027 c 12.515428 2.590688 25.259908 3.868866 37.976922 5.142975 c 49.491628 4.958428 98.983256 9.916772 148.474799 14.875200"
   class="st0" />
	<path
   fill="none"
   stroke-width="3.000000"
   stroke-linejoin="round"
   stroke-linecap="round"
   stroke="#000000"
   id="path248"
   d="M 650.854704 1130.095842 c 71.534347 6.131066 143.068737 12.262132 214.603127 18.393199"
   class="st0" />
	<path
   fill="none"
   stroke-width="3.000000"
   stroke-linejoin="round"
   stroke-linecap="round"
   stroke="#000000"
   id="path250"
   d="M 651.200994 1109.295061 c 16.233190 2.835168 32.466380 5.670336 48.699570 8.505503 c 16.237640 2.835931 32.475196 5.671861 48.712836 8.507792 c 36.961450 6.455315 73.922899 12.910716 110.884349 19.366116 c 9.810469 1.713393 19.672224 3.439924 29.074944 6.721751"
   class="st0" />
	<path
   fill="none"
   stroke-width="3.000000"
   stroke-linejoin="round"
   stroke-linecap="round"
   stroke="#000000"
   id="path252"
   d="M 488.338894 1123.003218 c 64.078267 -2.699704 128.048621 -7.959578 191.707230 -15.763007"
   class="st0" />
	<path
   fill="none"
   stroke-width="3.000000"
   stroke-linejoin="round"
   stroke-linecap="round"
   stroke="#000000"
   id="path254"
   d="M 496.272193 1122.107697 c 80.176841 -20.985921 163.418494 -30.223846 246.245744 -27.327559"
   class="st0" />
	<path
   fill="none"
   stroke-width="3.000000"
   stroke-linejoin="round"
   stroke-linecap="round"
   stroke="#000000"
   id="path256"
   d="M 786.137644 1071.482171 c -29.841020 24.130079 -64.276801 42.557610 -100.908068 53.998735 c -5.806224 1.813507 -11.665132 3.452894 -17.522981 5.091943"
   class="st0" />
	<path
   fill="none"
   stroke-width="3.000000"
   stroke-linejoin="round"
   stroke-linecap="round"
   stroke="#000000"
   id="path258"
   d="M 550.722758 1119.340600 c 10.983319 -5.726793 23.901749 -5.854967 36.275143 -6.428104 c 34.220378 -1.584964 68.234719 -7.565732 100.943247 -17.748939"
   class="st0" />
	<path
   fill="none"
   stroke-width="3.000000"
   stroke-linejoin="round"
   stroke-linecap="round"
   stroke="#000000"
   id="path260"
   d="M 607.043457 1113.058980 c 27.750482 -7.046170 55.500963 -14.092339 83.251444 -21.138509"
   class="st0" />
	<path
   fill="none"
   stroke-width="3.000000"
   stroke-linejoin="round"
   stroke-linecap="round"
   stroke="#000000"
   id="path262"
   d="M 496.951167 1135.559252 c 48.326577 -8.603753 96.653154 -17.207421 144.979731 -25.811174 c -40.126080 6.938765 -79.951392 15.616862 -119.326570 26.001655 c 40.861808 -0.884840 81.595442 -7.498762 120.638021 -19.587877 c -42.458174 15.555572 -86.587016 26.546648 -131.381310 32.722897 c 40.265825 -8.198547 80.471336 -16.693370 120.612166 -25.483534 c 3.133816 -0.686306 7.182609 -3.070323 5.778461 -5.954827"
   class="st0" />
	<path
   fill="none"
   stroke-width="3.000000"
   stroke-linejoin="round"
   stroke-linecap="round"
   stroke="#000000"
   id="path264"
   d="M 508.521356 1116.486613 c -35.344696 23.634423 -66.909875 52.908240 -93.136003 86.375003"
   class="st0" />
	<path
   fill="none"
   stroke-width="3.000000"
   stroke-linejoin="round"
   stroke-linecap="round"
   stroke="#000000"
   id="path266"
   d="M 504.308912 1123.023309 c -38.672257 38.425869 -78.116777 76.074473 -118.301646 112.915548"
   class="st0" />
	<path
   fill="none"
   stroke-width="3.000000"
   stroke-linejoin="round"
   stroke-linecap="round"
   stroke="#000000"
   id="path268"
   d="M 525.540797 1131.277127 c -52.684191 21.293301 -99.760734 56.291792 -135.328505 100.608402"
   class="st0" />
	<path
   fill="none"
   stroke-width="3.000000"
   stroke-linejoin="round"
   stroke-linecap="round"
   stroke="#000000"
   id="path270"
   d="M 536.323802 1131.941647 c -37.263955 20.511882 -73.022673 43.757545 -106.893921 69.488441 c -5.658086 4.298316 -11.614270 12.588416 -6.426451 17.443932"
   class="st0" />
	<path
   fill="none"
   stroke-width="3.000000"
   stroke-linejoin="round"
   stroke-linecap="round"
   stroke="#000000"
   id="path272"
   d="M 526.027171 1132.281833 c -37.316937 26.528931 -73.765394 54.279497 -109.267383 83.192190 c -12.203132 9.938219 -25.218455 21.683078 -26.695887 37.351566"
   class="st0" />
	<path
   fill="none"
   stroke-width="3.000000"
   stroke-linejoin="round"
   stroke-linecap="round"
   stroke="#000000"
   id="path274"
   d="M 523.226251 1110.181427 c -38.968913 20.279439 -72.417747 51.044973 -95.877499 88.186137"
   class="st0" />
	<path
   fill="none"
   stroke-width="3.000000"
   stroke-linejoin="round"
   stroke-linecap="round"
   stroke="#000000"
   id="path276"
   d="M 426.400969 1186.707136 c -25.225618 29.247792 -49.379179 59.420268 -72.395897 90.436384"
   class="st0" />
	<path
   fill="none"
   stroke-width="3.000000"
   stroke-linejoin="round"
   stroke-linecap="round"
   stroke="#000000"
   id="path278"
   d="M 422.942437 1199.543169 c -20.779673 32.429250 -43.223402 63.792080 -67.213355 93.924035"
   class="st0" />
	<path
   fill="none"
   stroke-width="3.000000"
   stroke-linejoin="round"
   stroke-linecap="round"
   stroke="#000000"
   id="path280"
   d="M 348.853599 1275.302972 c -6.030570 41.650899 -4.327350 83.987342 -2.610652 126.037513 c 2.033297 49.805450 4.066594 99.610986 6.099913 149.416521"
   class="st0" />
	<path
   fill="none"
   stroke-width="3.000000"
   stroke-linejoin="round"
   stroke-linecap="round"
   stroke="#000000"
   id="path282"
   d="M 358.149592 1279.984453 c -1.492733 35.676999 -2.985488 71.353997 -4.478222 107.030996 c -2.545505 60.838487 -5.078528 122.012160 2.465799 182.434591"
   class="st0" />
	<path
   fill="none"
   stroke-width="3.000000"
   stroke-linejoin="round"
   stroke-linecap="round"
   stroke="#000000"
   id="path284"
   d="M 367.092048 1271.640099 c -5.160607 94.378408 -4.411189 189.079539 2.242406 283.364444"
   class="st0" />
	<path
   fill="none"
   stroke-width="3.000000"
   stroke-linejoin="round"
   stroke-linecap="round"
   stroke="#000000"
   id="path286"
   d="M 363.496738 1498.824734 c -23.264037 39.633857 -41.782994 82.050239 -55.035612 126.055061 c -8.112886 26.938544 -14.348009 54.697672 -26.979044 79.836358"
   class="st0" />
	<path
   fill="none"
   stroke-width="3.000000"
   stroke-linejoin="round"
   stroke-linecap="round"
   stroke="#000000"
   id="path288"
   d="M 369.721052 1507.336595 c -23.824522 65.924750 -47.693507 131.957669 -77.429771 195.435587 c -2.300390 4.910617 -4.446496 11.290487 -0.736554 15.245565"
   class="st0" />
	<path
   fill="none"
   stroke-width="3.000000"
   stroke-linejoin="round"
   stroke-linecap="round"
   stroke="#000000"
   id="path290"
   d="M 375.336117 1531.829834 c -19.159614 60.408698 -43.877538 119.053311 -73.739603 174.951172 c -4.577531 8.568488 -9.405666 17.574904 -9.234577 27.287971"
   class="st0" />
	<path
   fill="none"
   stroke-width="3.000000"
   stroke-linejoin="round"
   stroke-linecap="round"
   stroke="#000000"
   id="path292"
   d="M 284.934828 1690.800137 c 2.987289 8.417426 6.738726 16.539680 10.105854 24.812486 c 22.151438 54.424540 27.236260 114.040629 32.076878 172.600810"
   class="st0" />
	<path
   fill="none"
   stroke-width="3.000000"
   stroke-linejoin="round"
   stroke-linecap="round"
   stroke="#000000"
   id="path294"
   d="M 301.215850 1676.184760 c 24.767240 60.903931 21.924803 128.874376 27.532556 194.382223"
   class="st0" />
	<path
   fill="none"
   stroke-width="3.000000"
   stroke-linejoin="round"
   stroke-linecap="round"
   stroke="#000000"
   id="path296"
   d="M 309.623655 1663.221741 c 13.332155 60.832045 19.493188 123.232354 18.314870 185.497030"
   class="st0" />
	<path
   fill="none"
   stroke-width="3.000000"
   stroke-linejoin="round"
   stroke-linecap="round"
   stroke="#000000"
   id="path298"
   d="M 323.351033 1653.017680 c 16.866557 61.438666 20.504676 126.473660 10.595767 189.410231"
   class="st0" />
	<path
   fill="none"
   stroke-width="3.000000"
   stroke-linejoin="round"
   stroke-linecap="round"
   stroke="#000000"
   id="path300"
   d="M 334.730996 1640.290663 c 14.902306 73.237101 15.894106 149.279616 2.906927 222.880554"
   class="st0" />
	<path
   fill="none"
   stroke-width="3.000000"
   stroke-linejoin="round"
   stroke-linecap="round"
   stroke="#000000"
   id="path302"
   d="M 336.006800 1675.659519 c -9.115431 17.313809 -18.230862 34.627787 -27.346293 51.941596"
   class="st0" />
	<path
   fill="none"
   stroke-width="3.000000"
   stroke-linejoin="round"
   stroke-linecap="round"
   stroke="#000000"
   id="path304"
   d="M 318.326420 1767.046780 c -7.492892 31.274753 -14.985784 62.549337 -22.478697 93.823920 c -4.010540 16.739570 -8.026059 33.504740 -10.566690 50.529310 c -7.539770 50.523716 -1.741939 102.977329 16.650009 150.634766"
   class="st0" />
	<path
   fill="none"
   stroke-width="3.000000"
   stroke-linejoin="round"
   stroke-linecap="round"
   stroke="#000000"
   id="path306"
   d="M 321.253946 1819.294908 c -5.986934 21.869066 -11.973890 43.738132 -17.960824 65.607198 c -4.756419 17.374166 -9.523858 34.800212 -12.142605 52.622308 c -6.499121 44.230482 0.721147 90.379333 20.419206 130.510966"
   class="st0" />
	<path
   fill="none"
   stroke-width="3.000000"
   stroke-linejoin="round"
   stroke-linecap="round"
   stroke="#000000"
   id="path308"
   d="M 327.466117 1854.799567 c -14.248212 42.247687 -28.496424 84.495544 -42.744637 126.743232 c 1.241917 -3.991699 2.483834 -7.983229 3.725773 -11.974928"
   class="st0" />
	<path
   fill="none"
   stroke-width="3.000000"
   stroke-linejoin="round"
   stroke-linecap="round"
   stroke="#000000"
   id="path310"
   d="M 341.453658 1885.284932 c -22.321192 19.907803 -44.642385 39.815606 -66.963598 59.723409 c -2.833154 2.526855 -5.849563 5.386353 -6.344393 9.150187 c -0.297864 2.265591 0.380813 4.535590 1.099332 6.704712 c 10.336579 31.204393 30.921597 58.920119 57.807838 77.832709"
   class="st0" />
	<path
   fill="none"
   stroke-width="3.000000"
   stroke-linejoin="round"
   stroke-linecap="round"
   stroke="#000000"
   id="path312"
   d="M 359.645335 1576.535543 c -0.601408 11.766730 -1.202816 23.533291 -1.804225 35.300022 c -0.424364 8.302138 -0.848685 16.624112 -0.364431 24.923028 c 1.044718 17.905172 6.281747 35.266113 11.482705 52.430895 c 5.820380 19.209290 11.640803 38.418579 17.461183 57.627699"
   class="st0" />
	<path
   fill="none"
   stroke-width="3.000000"
   stroke-linejoin="round"
   stroke-linecap="round"
   stroke="#000000"
   id="path314"
   d="M 367.543835 1750.807020 c 5.621084 -3.850810 11.242210 -7.701789 16.863336 -11.552768 c -17.046823 53.866068 -34.125392 107.819451 -55.978054 159.921434 c -7.459937 17.786323 -15.494834 35.409546 -20.791308 53.955417 c -9.820133 34.385851 -9.829881 71.514893 -0.027805 105.905830"
   class="st0" />
	<path
   fill="none"
   stroke-width="3.000000"
   stroke-linejoin="round"
   stroke-linecap="round"
   stroke="#000000"
   id="path316"
   d="M 325.900862 2065.385607 c -11.511718 24.018012 -20.801904 49.100240 -27.713331 74.821981"
   class="st0" />
	<path
   fill="none"
   stroke-width="3.000000"
   stroke-linejoin="round"
   stroke-linecap="round"
   stroke="#000000"
   id="path318"
   d="M 345.382203 1647.133213 c -14.832836 22.971937 -27.776104 47.163900 -38.656108 72.250875"
   class="st0" />
	<path
   fill="none"
   stroke-width="3.000000"
   stroke-linejoin="round"
   stroke-linecap="round"
   stroke="#000000"
   id="path320"
   d="M 359.254752 1569.033644 c 13.422733 -0.873481 25.819355 8.554416 32.481596 20.239766 s 8.732393 25.346883 10.684416 38.655599 c 1.466327 9.997050 2.932654 19.994100 4.398982 29.991319 c 1.304627 8.894857 2.741114 18.137105 7.828098 25.549486 c 5.086984 7.412550 14.984597 12.352837 23.271518 8.867561"
   class="st0" />
	<path
   fill="none"
   stroke-width="3.000000"
   stroke-linejoin="round"
   stroke-linecap="round"
   stroke="#000000"
   id="path322"
   d="M 302.006637 2034.498766 c -70.857959 139.439901 -111.866167 295.912509 -100.687197 451.451111 c 2.191077 30.485704 6.355413 60.800849 9.054883 91.246880 c 12.493006 140.902879 -6.900681 284.460958 -56.366867 417.244975"
   class="st0" />
	<path
   fill="none"
   stroke-width="3.000000"
   stroke-linejoin="round"
   stroke-linecap="round"
   stroke="#000000"
   id="path324"
   d="M 307.225397 2050.173781 c -7.968394 18.249512 -15.936788 36.499023 -23.905161 54.748535 c -23.118994 52.947998 -46.361266 106.262207 -59.505717 162.550524 c -41.455015 177.522617 21.064356 364.328172 -2.679168 545.101929 c -8.238496 62.724643 -26.741939 123.564148 -45.170604 184.064229"
   class="st0" />
	<path
   fill="none"
   stroke-width="3.000000"
   stroke-linejoin="round"
   stroke-linecap="round"
   stroke="#000000"
   id="path326"
   d="M 298.552619 2056.656901 c -42.747519 57.439507 -67.413712 126.693047 -80.932363 197.005887 c -13.518630 70.312839 -16.417546 142.175971 -19.280667 213.719177 c -1.347330 33.666314 -2.665647 67.720879 4.045804 100.738864 c 4.321967 21.262444 11.900965 41.702440 17.935032 62.543911 c 33.645100 116.208394 16.844559 246.098836 -45.260313 349.922689"
   class="st0" />
	<path
   fill="none"
   stroke-width="3.000000"
   stroke-linejoin="round"
   stroke-linecap="round"
   stroke="#000000"
   id="path328"
   d="M 204.422463 2576.030138 c 8.998934 28.295559 16.012849 57.222154 20.973163 86.496989 c 8.352831 49.296909 10.823250 100.142924 0.877168 149.143304 c -10.429361 51.381259 -34.065077 98.979865 -57.462173 145.898607"
   class="st0" />
	<path
   fill="none"
   stroke-width="3.000000"
   stroke-linejoin="round"
   stroke-linecap="round"
   stroke="#000000"
   id="path330"
   d="M 218.802664 2773.603482 c -3.575537 42.743429 -13.033528 84.990946 -28.024017 125.178867"
   class="st0" />
	<path
   fill="none"
   stroke-width="3.000000"
   stroke-linejoin="round"
   stroke-linecap="round"
   stroke="#000000"
   id="path332"
   d="M 266.775449 2130.384657 c 3.461054 14.777629 -2.563816 29.917230 -8.027289 44.077216 c -37.673844 97.641330 -53.444502 203.663466 -45.820893 308.042738 c 5.181397 70.941671 20.973926 140.852695 24.827258 211.878967 c 3.853332 71.026103 -5.513721 145.826891 -45.769925 204.469977"
   class="st0" />
	<path
   fill="none"
   stroke-width="3.000000"
   stroke-linejoin="round"
   stroke-linecap="round"
   stroke="#000000"
   id="path334"
   d="M 395.163133 1911.131287 c 0.984277 4.330105 1.968511 8.660380 2.952788 12.990485 c 4.165141 -9.184096 13.421038 -15.853204 23.451233 -16.897583 c -5.040571 19.731818 -10.081143 39.463637 -15.121714 59.195455 c -3.508801 13.735453 -7.041973 27.665880 -6.852637 41.841126 c 0.195482 14.636230 4.346975 28.882175 7.422257 43.193054 c 14.794964 68.847826 4.676141 141.099209 -16.695065 208.197700"
   class="st0" />
	<path
   fill="none"
   stroke-width="3.000000"
   stroke-linejoin="round"
   stroke-linecap="round"
   stroke="#000000"
   id="path336"
   d="M 437.585661 2006.708950 c -2.169164 6.722175 0.458950 13.927884 2.655835 20.641073 c 10.987939 33.576457 11.408954 70.526801 1.188956 104.344855"
   class="st0" />
	<path
   fill="none"
   stroke-width="3.000000"
   stroke-linejoin="round"
   stroke-linecap="round"
   stroke="#000000"
   id="path338"
   d="M 452.142122 2083.862644 c 7.373089 35.790507 1.256434 74.195184 -16.870499 105.924479"
   class="st0" />
	<path
   fill="none"
   stroke-width="3.000000"
   stroke-linejoin="round"
   stroke-linecap="round"
   stroke="#000000"
   id="path340"
   d="M 406.922065 2250.694444 c 4.878277 -11.670770 9.756554 -23.341539 14.634832 -35.012309 c 11.881298 42.688158 5.781640 88.686625 16.658232 131.641812 c 7.650291 30.213420 23.657947 58.927748 23.372692 90.093316 c -0.471242 51.479594 -45.134778 95.158556 -43.952137 146.626621"
   class="st0" />
	<path
   fill="none"
   stroke-width="3.000000"
   stroke-linejoin="round"
   stroke-linecap="round"
   stroke="#000000"
   id="path342"
   d="M 417.638652 2236.974419 c 5.262672 33.577474 10.525301 67.154948 15.787972 100.732252 c 7.535129 48.076375 15.091409 96.439277 14.295366 145.095995 c -1.190991 72.798665 -21.497091 145.200602 -58.336639 208.001031"
   class="st0" />
	<path
   fill="none"
   stroke-width="3.000000"
   stroke-linejoin="round"
   stroke-linecap="round"
   stroke="#000000"
   id="path344"
   d="M 503.069729 1781.679450 c 2.998988 1.533169 1.767434 6.061469 0.059382 8.964539 c -19.680913 33.448961 -48.612637 62.168376 -59.874810 99.307760"
   class="st0" />
	<path
   fill="none"
   stroke-width="3.000000"
   stroke-linejoin="round"
   stroke-linecap="round"
   stroke="#000000"
   id="path346"
   d="M 508.503893 1785.537889 c -29.796516 30.431112 -53.351381 66.947428 -68.788698 106.640964"
   class="st0" />
	<path
   fill="none"
   stroke-width="3.000000"
   stroke-linejoin="round"
   stroke-linecap="round"
   stroke="#000000"
   id="path348"
   d="M 519.135072 1781.752184 c -22.728475 36.226739 -45.456907 72.453478 -68.185382 108.680047"
   class="st0" />
	<path
   fill="none"
   stroke-width="3.000000"
   stroke-linejoin="round"
   stroke-linecap="round"
   stroke="#000000"
   id="path350"
   d="M 530.837250 1777.305942 c -17.815569 39.557733 -54.849031 67.017110 -77.848307 103.803507 c 25.972239 -27.318827 50.320265 -56.181505 72.872798 -86.385261 c 10.458713 8.912998 13.488007 23.608059 15.432909 37.210931 c 2.771081 19.381883 4.621039 38.895332 5.541484 58.452521"
   class="st0" />
	<path
   fill="none"
   stroke-width="3.000000"
   stroke-linejoin="round"
   stroke-linecap="round"
   stroke="#000000"
   id="path352"
   d="M 438.862144 1909.353638 c 5.798213 -12.843323 13.230599 -24.947951 22.061284 -35.929362"
   class="st0" />
	<path
   fill="none"
   stroke-width="3.000000"
   stroke-linejoin="round"
   stroke-linecap="round"
   stroke="#000000"
   id="path354"
   d="M 492.905257 1832.248433 c 0.717205 -2.341207 4.165141 -2.746412 6.141663 -1.301236 s 2.819316 3.944058 3.539658 6.284078 c 23.141564 75.174967 35.546705 153.646003 36.722310 232.293362"
   class="st0" />
	<path
   fill="none"
   stroke-width="3.000000"
   stroke-linejoin="round"
   stroke-linecap="round"
   stroke="#000000"
   id="path356"
   d="M 510.342365 1816.715325 c 30.831570 52.526516 34.118186 116.177029 36.618508 177.032301 c 0.644472 15.685357 1.196247 31.935459 -4.725605 46.474372"
   class="st0" />
	<path
   fill="none"
   stroke-width="3.000000"
   stroke-linejoin="round"
   stroke-linecap="round"
   stroke="#000000"
   id="path358"
   d="M 505.890656 1802.439372 c 3.521389 9.643724 4.637739 20.004781 7.742225 29.790751 c 3.741497 11.793857 10.294045 22.522481 14.301385 34.228516 c 12.344360 36.059740 -0.353453 78.103129 16.247219 112.411838"
   class="st0" />
	<path
   fill="none"
   stroke-width="3.000000"
   stroke-linejoin="round"
   stroke-linecap="round"
   stroke="#000000"
   id="path360"
   d="M 522.943242 1793.941922 c 33.667077 68.114556 46.858470 146.188694 37.438711 221.583218"
   class="st0" />
	<path
   fill="none"
   stroke-width="3.000000"
   stroke-linejoin="round"
   stroke-linecap="round"
   stroke="#000000"
   id="path362"
   d="M 522.286012 1796.798876 c 3.956011 20.101929 7.912064 40.203688 11.868074 60.305617 c 11.740790 59.658813 23.528417 120.689392 14.916314 180.879551"
   class="st0" />
	<path
   fill="none"
   stroke-width="3.000000"
   stroke-linejoin="round"
   stroke-linecap="round"
   stroke="#000000"
   id="path364"
   d="M 521.248542 1959.064399 c -4.009120 27.602302 -5.956777 55.503676 -5.821482 83.395216"
   class="st0" />
	<path
   fill="none"
   stroke-width="3.000000"
   stroke-linejoin="round"
   stroke-linecap="round"
   stroke="#000000"
   id="path366"
   d="M 512.566079 1960.682000 c -1.248889 2.620273 -1.952235 5.466037 -2.491845 8.318075 c -8.898205 47.029114 24.811384 92.252435 25.103039 140.115017"
   class="st0" />
	<path
   fill="none"
   stroke-width="3.000000"
   stroke-linejoin="round"
   stroke-linecap="round"
   stroke="#000000"
   id="path368"
   d="M 529.060237 2001.053196 c 5.917274 22.338019 9.184392 45.376756 9.711032 68.479072"
   class="st0" />
	<path
   fill="none"
   stroke-width="3.000000"
   stroke-linejoin="round"
   stroke-linecap="round"
   stroke="#000000"
   id="path370"
   d="M 618.412781 1844.952562 c -23.153602 51.090495 -44.258202 103.109572 -63.246155 155.890062"
   class="st0" />
	<path
   fill="none"
   stroke-width="3.000000"
   stroke-linejoin="round"
   stroke-linecap="round"
   stroke="#000000"
   id="path372"
   d="M 620.710882 1859.673903 c -26.368120 53.315735 -48.597505 108.677504 -66.422441 165.423584 c 0.248549 -3.241475 0.497098 -6.482781 0.745604 -9.724087"
   class="st0" />
	<path
   fill="none"
   stroke-width="3.000000"
   stroke-linejoin="round"
   stroke-linecap="round"
   stroke="#000000"
   id="path374"
   d="M 622.047212 1864.605543 c -19.899241 44.339498 -39.212248 88.941956 -57.932154 133.791945 c -7.504739 17.980279 -14.955648 36.133491 -18.863000 55.221218 c -3.530290 17.245653 -4.099655 35.093350 -1.675754 52.528890"
   class="st0" />
	<path
   fill="none"
   stroke-width="3.000000"
   stroke-linejoin="round"
   stroke-linecap="round"
   stroke="#000000"
   id="path376"
   d="M 615.789244 1896.735975 c -5.755573 19.837273 -12.942420 39.259338 -21.486198 58.064948 c -19.869402 43.734402 -47.827148 87.748210 -42.826080 135.523478"
   class="st0" />
	<path
   fill="none"
   stroke-width="3.000000"
   stroke-linejoin="round"
   stroke-linecap="round"
   stroke="#000000"
   id="path378"
   d="M 528.278393 2005.020989 c -2.242449 12.285529 0.420168 25.396898 7.277128 35.834418"
   class="st0" />
	<path
   fill="none"
   stroke-width="3.000000"
   stroke-linejoin="round"
   stroke-linecap="round"
   stroke="#000000"
   id="path380"
   d="M 519.051022 1640.188429 c 13.584391 -21.897719 32.481088 -39.942763 51.734628 -57.070075 c 58.217324 -51.788330 121.736950 -97.612678 189.243783 -136.524285"
   class="st0" />
	<path
   fill="none"
   stroke-width="3.000000"
   stroke-linejoin="round"
   stroke-linecap="round"
   stroke="#000000"
   id="path382"
   d="M 521.449577 1644.315762 c 49.863391 -51.006063 102.898661 -98.910862 158.697510 -143.345812"
   class="st0" />
	<path
   fill="none"
   stroke-width="3.000000"
   stroke-linejoin="round"
   stroke-linecap="round"
   stroke="#000000"
   id="path384"
   d="M 514.805433 1654.360792 c 26.939053 -22.192213 53.878064 -44.384427 80.817117 -66.576640 c 14.250988 -11.739773 28.720559 -23.617554 45.547485 -31.218126"
   class="st0" />
	<path
   fill="none"
   stroke-width="3.000000"
   stroke-linejoin="round"
   stroke-linecap="round"
   stroke="#000000"
   id="path386"
   d="M 521.916495 1657.236905 c 25.965966 -21.909247 54.425261 -40.861172 84.651862 -56.372240 c 25.845422 -13.262939 53.062185 -24.069383 77.370326 -39.975484 c 19.353570 -12.664117 36.647034 -28.468831 50.997247 -46.607462"
   class="st0" />
	<path
   fill="none"
   stroke-width="3.000000"
   stroke-linejoin="round"
   stroke-linecap="round"
   stroke="#000000"
   id="path388"
   d="M 552.188449 1651.903958 c 29.985216 -23.463270 61.834505 -44.543457 95.148892 -62.976752 c -8.126068 12.422180 -20.191108 21.645610 -32.017305 30.616930 c -13.117939 9.951274 -26.235877 19.902547 -39.353816 29.853990 c 26.405928 -19.609578 52.811898 -39.219157 79.217826 -58.828735 c -18.630218 20.265198 -37.260437 40.530565 -55.890656 60.795763 c 19.606145 -22.788662 41.065131 -43.982612 64.095518 -63.304138 c -18.380017 27.239312 -40.019311 52.277120 -64.308887 74.408976 c 18.606525 -21.858046 37.213050 -43.716261 55.819533 -65.574476 c -12.203386 25.393677 -28.259489 48.931546 -47.449239 69.559563 c 19.344033 -18.377516 36.554252 -38.999261 51.174757 -61.318800 c -9.361564 19.034492 -21.465005 36.717902 -35.820389 52.334425 c 16.617330 -16.539510 32.099321 -34.219530 46.300930 -52.874247"
   class="st0" />
	<path
   fill="none"
   stroke-width="3.000000"
   stroke-linejoin="round"
   stroke-linecap="round"
   stroke="#000000"
   id="path390"
   d="M 598.091846 1646.855672 c -11.796612 78.386095 -5.830171 159.393141 17.323600 235.205078"
   class="st0" />
	<path
   fill="none"
   stroke-width="3.000000"
   stroke-linejoin="round"
   stroke-linecap="round"
   stroke="#000000"
   id="path392"
   d="M 595.625178 1648.683506 c 3.591368 79.188707 7.182778 158.377584 10.774146 237.566291"
   class="st0" />
	<path
   fill="none"
   stroke-width="3.000000"
   stroke-linejoin="round"
   stroke-linecap="round"
   stroke="#000000"
   id="path394"
   d="M 612.131755 1632.071771 c 0.581784 85.408529 1.163610 170.816888 1.745436 256.225247"
   class="st0" />
	<path
   fill="none"
   stroke-width="3.000000"
   stroke-linejoin="round"
   stroke-linecap="round"
   stroke="#000000"
   id="path396"
   d="M 613.530392 1632.107713 c -15.690189 58.884176 -15.969552 121.803623 -0.802867 180.824958"
   class="st0" />
	<path
   fill="none"
   stroke-width="3.000000"
   stroke-linejoin="round"
   stroke-linecap="round"
   stroke="#000000"
   id="path398"
   d="M 613.702647 1841.747877 c -11.477619 53.229777 -41.311688 100.300598 -66.972351 148.328315"
   class="st0" />
	<path
   fill="none"
   stroke-width="3.000000"
   stroke-linejoin="round"
   stroke-linecap="round"
   stroke="#000000"
   id="path400"
   d="M 531.287172 2085.855103 c -11.528651 27.198961 -23.057344 54.398092 -34.585995 81.597222"
   class="st0" />
	<path
   fill="none"
   stroke-width="3.000000"
   stroke-linejoin="round"
   stroke-linecap="round"
   stroke="#000000"
   id="path402"
   d="M 542.708800 2094.607205 c -16.140917 36.478339 -32.281833 72.956848 -48.422708 109.435187 c 2.987162 -1.570299 5.371009 -4.256354 6.575521 -7.408820"
   class="st0" />
	<path
   fill="none"
   stroke-width="3.000000"
   stroke-linejoin="round"
   stroke-linecap="round"
   stroke="#000000"
   id="path404"
   d="M 551.198790 2082.244703 c -21.904797 35.606893 -39.131419 74.088033 -51.098082 114.144050"
   class="st0" />
	<path
   fill="none"
   stroke-width="3.000000"
   stroke-linejoin="round"
   stroke-linecap="round"
   stroke="#000000"
   id="path406"
   d="M 496.480348 2157.203674 c -1.452976 60.889350 4.376899 121.949259 17.325846 181.463453 c 4.928038 22.649638 10.924064 45.570204 8.975728 68.667603 c -2.773200 32.876078 -21.152878 61.986457 -34.914737 91.972012 c -37.489234 81.685215 -41.903856 174.753147 -72.692786 259.192064 c -10.398950 28.519355 -23.740260 55.860562 -37.090513 83.123440 c -16.194280 33.070543 -32.640839 66.433038 -55.862935 95.010037"
   class="st0" />
	<path
   fill="none"
   stroke-width="3.000000"
   stroke-linejoin="round"
   stroke-linecap="round"
   stroke="#000000"
   id="path408"
   d="M 505.510839 2179.850599 c 12.334442 58.983188 20.650737 118.806458 24.872123 178.917609 c 1.522870 21.685452 2.492142 43.699646 -2.028910 64.963277 c -4.555978 21.427748 -14.501063 41.251458 -23.606491 61.176215 c -13.730579 30.045573 -25.769848 60.960897 -33.931902 92.970954 c -7.092285 27.814568 -11.218940 56.292386 -17.285834 84.348382 c -24.139913 111.633470 -78.318405 214.121162 -131.892904 314.989895"
   class="st0" />
	<path
   fill="none"
   stroke-width="3.000000"
   stroke-linejoin="round"
   stroke-linecap="round"
   stroke="#000000"
   id="path410"
   d="M 519.655694 2152.842543 c 0.365660 -0.479465 0.731320 -0.958930 1.096980 -1.438395 c 0.608444 35.910204 1.216888 71.820407 1.825375 107.730442"
   class="st0" />
	<path
   fill="none"
   stroke-width="3.000000"
   stroke-linejoin="round"
   stroke-linecap="round"
   stroke="#000000"
   id="path412"
   d="M 544.978714 2104.962497 c -1.802614 107.771132 -8.062151 215.467665 -18.757206 322.721863"
   class="st0" />
	<path
   fill="none"
   stroke-width="3.000000"
   stroke-linejoin="round"
   stroke-linecap="round"
   stroke="#000000"
   id="path414"
   d="M 544.604238 2238.282606 c -6.638972 219.166056 -39.315965 437.531874 -97.124608 649.040731"
   class="st0" />
	<path
   fill="none"
   stroke-width="3.000000"
   stroke-linejoin="round"
   stroke-linecap="round"
   stroke="#000000"
   id="path416"
   d="M 522.556856 2436.510213 c -28.537072 116.874186 -57.187102 234.461975 -65.136592 354.506599 c -1.613744 24.368795 -2.370792 48.805406 -4.915110 73.094855 c -4.609256 44.002618 -15.041690 87.159220 -25.446998 130.161879"
   class="st0" />
	<path
   fill="none"
   stroke-width="3.000000"
   stroke-linejoin="round"
   stroke-linecap="round"
   stroke="#000000"
   id="path418"
   d="M 478.633965 2613.055081 c -19.870334 126.743571 -37.682342 253.800117 -53.426912 381.104872"
   class="st0" />
	<path
   fill="none"
   stroke-width="3.000000"
   stroke-linejoin="round"
   stroke-linecap="round"
   stroke="#000000"
   id="path420"
   d="M 448.021486 2713.208856 c -6.225840 95.302158 -17.816713 190.249464 -34.698613 284.235467"
   class="st0" />
	<path
   fill="none"
   stroke-width="3.000000"
   stroke-linejoin="round"
   stroke-linecap="round"
   stroke="#000000"
   id="path422"
   d="M 465.084288 2615.383233 c -3.550423 51.695421 -10.275904 103.172302 -20.125961 154.044596 c -3.631210 18.754069 -7.566791 38.836500 -0.057008 56.400893"
   class="st0" />
	<path
   fill="none"
   stroke-width="3.000000"
   stroke-linejoin="round"
   stroke-linecap="round"
   stroke="#000000"
   id="path424"
   d="M 436.871423 2667.551337 c -14.279090 45.042758 -28.558180 90.085347 -42.837312 135.128106 c -15.618303 49.267239 -31.538222 99.187215 -59.471851 142.672051"
   class="st0" />
	<path
   fill="none"
   stroke-width="3.000000"
   stroke-linejoin="round"
   stroke-linecap="round"
   stroke="#000000"
   id="path426"
   d="M 396.580590 2833.993191 c -21.012497 54.388428 -44.657008 107.790460 -70.826467 159.963989"
   class="st0" />
	<path
   fill="none"
   stroke-width="3.000000"
   stroke-linejoin="round"
   stroke-linecap="round"
   stroke="#000000"
   id="path428"
   d="M 372.800954 2903.772990 c -5.079354 33.184814 -15.271929 65.605672 -30.121295 95.811293 c 3.066826 -2.987332 6.133652 -5.975003 9.200478 -8.962335"
   class="st0" />
	<path
   fill="none"
   stroke-width="3.000000"
   stroke-linejoin="round"
   stroke-linecap="round"
   stroke="#000000"
   id="path430"
   d="M 385.838827 2907.478502 c -7.577388 30.619982 -17.133416 60.749986 -28.588571 90.139092"
   class="st0" />
	<path
   fill="none"
   stroke-width="3.000000"
   stroke-linejoin="round"
   stroke-linecap="round"
   stroke="#000000"
   id="path432"
   d="M 1634.077454 1671.519979 c -28.982205 16.071404 -56.652323 34.508091 -82.644823 55.066427"
   class="st0" />
	<path
   fill="none"
   stroke-width="3.000000"
   stroke-linejoin="round"
   stroke-linecap="round"
   stroke="#000000"
   id="path434"
   d="M 1592.316182 1724.381849 c 27.453613 6.939019 57.025147 5.237156 83.501519 -4.805501"
   class="st0" />
	<path
   fill="none"
   stroke-width="3.000000"
   stroke-linejoin="round"
   stroke-linecap="round"
   stroke="#000000"
   id="path436"
   d="M 1248.846859 1198.133257 c 2.266608 105.130853 4.533217 210.261620 6.799910 315.392303 c 0.853305 39.577738 1.705593 79.210239 -0.728268 118.722195 c -3.807153 61.807251 -15.617710 122.800700 -26.836565 183.700222 c -34.613122 187.890116 -63.835314 376.773241 -87.618679 566.338772"
   class="st0" />
	<path
   fill="none"
   stroke-width="3.000000"
   stroke-linejoin="round"
   stroke-linecap="round"
   stroke="#000000"
   id="path438"
   d="M 1128.304121 2329.907227 c -0.473362 29.278395 2.812195 58.615621 9.750705 87.063938 c 3.370921 -7.572089 6.741757 -15.144179 10.112593 -22.716098"
   class="st0" />
	<path
   fill="none"
   stroke-width="3.000000"
   stroke-linejoin="round"
   stroke-linecap="round"
   stroke="#000000"
   id="path440"
   d="M 1261.498769 1282.779355 c -9.564378 55.726454 -9.637536 113.069577 -0.215403 168.820275 c 5.661774 33.500332 14.719645 66.434733 18.528239 100.195991 c 6.086561 53.954230 -1.383548 108.451165 -10.076989 162.047153 c -23.337724 143.877835 -55.608538 286.306254 -96.564907 426.192220 c -23.934258 81.747097 -50.982157 163.354662 -59.327613 248.123508"
   class="st0" />
	<path
   fill="none"
   stroke-width="3.000000"
   stroke-linejoin="round"
   stroke-linecap="round"
   stroke="#000000"
   id="path442"
   d="M 1162.102678 1408.011542 c -15.877279 51.346164 -25.606367 104.453193 -41.947005 155.653720 s -40.137736 101.519097 -79.141490 138.495043"
   class="st0" />
	<path
   fill="none"
   stroke-width="3.000000"
   stroke-linejoin="round"
   stroke-linecap="round"
   stroke="#000000"
   id="path444"
   d="M 1146.753438 1550.409783 c -64.511024 116.890123 -130.441115 235.662842 -226.379395 328.511217"
   class="st0" />
	<path
   fill="none"
   stroke-width="3.000000"
   stroke-linejoin="round"
   stroke-linecap="round"
   stroke="#000000"
   id="path446"
   d="M 1129.200914 1595.264689 c -57.317267 104.178704 -120.786540 206.916979 -207.409075 288.372633 c -8.575100 -6.249661 -0.127750 -20.173475 9.704675 -24.162971 c 9.832340 -3.989495 22.373878 -5.674235 26.886919 -15.277608"
   class="st0" />
	<path
   fill="none"
   stroke-width="3.000000"
   stroke-linejoin="round"
   stroke-linecap="round"
   stroke="#000000"
   id="path448"
   d="M 768.646834 1405.081685 c -3.148143 39.192200 -9.456380 78.130086 -18.843248 116.311476"
   class="st0" />
	<path
   fill="none"
   stroke-width="3.000000"
   stroke-linejoin="round"
   stroke-linecap="round"
   stroke="#000000"
   id="path450"
   d="M 746.620348 1390.391795 c 2.151065 -8.188290 4.302131 -16.376580 6.453111 -24.564870 c 18.264431 12.102339 20.673540 37.512800 21.042040 59.419759 c 0.903829 53.738912 0.154538 109.420098 -22.247145 158.275519"
   class="st0" />
	<path
   fill="none"
   stroke-width="3.000000"
   stroke-linejoin="round"
   stroke-linecap="round"
   stroke="#000000"
   id="path452"
   d="M 617.454741 1647.659302 c 6.521479 0.585259 11.848789 5.240716 16.675059 9.665595 c 12.701119 11.644491 25.402239 23.289151 38.103358 34.933811 c 27.768199 25.458272 56.861623 53.069560 66.072422 89.598592 c 2.692244 10.677083 3.674910 22.088453 9.371694 31.511603 c 13.138919 21.733093 46.960788 26.125590 55.908797 49.893019"
   class="st0" />
	<path
   fill="none"
   stroke-width="3.000000"
   stroke-linejoin="round"
   stroke-linecap="round"
   stroke="#000000"
   id="path454"
   d="M 660.618803 1711.702643 c 26.066844 36.090257 48.088158 75.100199 65.519418 116.065301"
   class="st0" />
	<path
   fill="none"
   stroke-width="3.000000"
   stroke-linejoin="round"
   stroke-linecap="round"
   stroke="#000000"
   id="path456"
   d="M 542.097600 1711.322361 c 3.458617 15.691800 3.709157 32.083469 0.731701 47.873603"
   class="st0" />
	<path
   fill="none"
   stroke-width="3.000000"
   stroke-linejoin="round"
   stroke-linecap="round"
   stroke="#000000"
   id="path458"
   d="M 813.435788 1855.628120 c 11.084747 -1.305983 22.169410 -2.612135 33.254157 -3.918118 c -8.419630 8.301798 -14.475928 18.974813 -17.284563 30.460442 c 16.561466 -7.772827 33.122932 -15.545654 49.684397 -23.318312 c -9.026845 9.061178 -15.803273 20.347595 -19.557783 32.574293 c -0.443268 1.443481 -0.807614 3.139750 0.083160 4.358927 c 1.527150 2.090285 4.843479 0.756497 6.836446 -0.895521 c 5.768246 -4.781426 10.277642 -11.068387 12.957340 -18.065050 c -4.908668 -1.464335 -10.645125 0.504557 -13.619910 4.674615 c -2.974870 4.169888 -2.969615 10.234748 0.012461 14.399719 c 3.637950 -5.589803 7.275899 -11.179606 10.913849 -16.769579 c 9.304471 -14.296468 21.653239 -30.281915 38.703240 -29.770576"
   class="st0" />
	<path
   fill="none"
   stroke-width="3.000000"
   stroke-linejoin="round"
   stroke-linecap="round"
   stroke="#000000"
   id="path460"
   d="M 1299.421946 2079.974196 c -2.290514 93.750848 -2.003394 187.564765 0.860935 281.299845"
   class="st0" />
	<path
   fill="none"
   stroke-width="3.000000"
   stroke-linejoin="round"
   stroke-linecap="round"
   stroke="#000000"
   id="path462"
   d="M 1320.465342 2157.034132 c -1.040819 34.218004 -2.096982 68.586561 -8.193631 102.273051 c -4.264916 23.565504 -10.961575 47.975498 -4.364098 70.997111 c 0.356208 1.243083 1.076592 2.726407 2.369351 2.699449 c 1.292843 -0.026957 0.856188 -2.743530 -0.136651 -1.915148"
   class="st0" />
	<path
   fill="none"
   stroke-width="3.000000"
   stroke-linejoin="round"
   stroke-linecap="round"
   stroke="#000000"
   id="path464"
   d="M 1377.657233 2125.651720 c -19.720374 36.299812 -38.314395 73.211331 -55.746290 110.663859"
   class="st0" />
	<path
   fill="none"
   stroke-width="3.000000"
   stroke-linejoin="round"
   stroke-linecap="round"
   stroke="#000000"
   id="path466"
   d="M 523.373286 1979.236348 c 10.490799 24.340481 16.286468 50.694444 16.975360 77.190653 c -1.354726 -2.572971 -2.709495 -5.145772 -4.064263 -7.718574"
   class="st0" />
	<path
   fill="none"
   stroke-width="3.000000"
   stroke-linejoin="round"
   stroke-linecap="round"
   stroke="#000000"
   id="path468"
   d="M 514.434348 1967.115784 c 3.941218 15.662130 7.882436 31.324259 11.823654 46.986389 c 19.740804 78.448486 40.323978 158.796183 86.365382 225.309584 c 13.246452 19.136386 28.428777 36.848280 43.855625 54.274835 c 20.804469 23.501248 42.111376 46.557448 63.901308 69.147915 c -13.342709 1.777649 -26.665242 -7.510546 -31.805420 -19.951036 s -3.007634 -27.059767 3.313277 -38.943990 c -6.519614 -2.750651 -14.963023 0.771077 -17.595927 7.339138"
   class="st0" />
	<path
   fill="none"
   stroke-width="3.000000"
   stroke-linejoin="round"
   stroke-linecap="round"
   stroke="#000000"
   id="path470"
   d="M 798.805491 2336.541409 c -13.464355 1.605225 -25.655280 11.246067 -30.320062 23.978170 c 38.920169 7.118564 78.482649 14.266120 117.832947 10.141839 c 27.674103 -2.900526 54.449548 -11.310153 80.783081 -20.299784 c 129.758792 -44.296773 254.275258 -103.928121 370.130412 -177.256775"
   class="st0" />
	<path
   fill="none"
   stroke-width="3.000000"
   stroke-linejoin="round"
   stroke-linecap="round"
   stroke="#000000"
   id="path472"
   d="M 857.050408 2403.253004 c 68.188985 -23.368157 136.377886 -46.736145 204.566871 -70.104302 c 97.356500 -33.363681 200.053236 -70.365397 264.610884 -150.513543"
   class="st0" />
	<path
   fill="none"
   stroke-width="3.000000"
   stroke-linejoin="round"
   stroke-linecap="round"
   stroke="#000000"
   id="path474"
   d="M 844.652812 2409.414503 c 161.433156 -3.379483 321.289571 -60.431756 448.383670 -160.026889"
   class="st0" />
	<path
   fill="none"
   stroke-width="3.000000"
   stroke-linejoin="round"
   stroke-linecap="round"
   stroke="#000000"
   id="path476"
   d="M 1563.003371 1769.156223 c 4.157342 -0.578308 7.556491 3.066508 10.249329 6.286112 c 24.409315 29.183451 59.920587 52.205404 97.917684 50.277540 c 11.676873 -0.592380 23.700968 -3.787740 32.335748 -11.670600"
   class="st0" />
	<path
   fill="none"
   stroke-width="3.000000"
   stroke-linejoin="round"
   stroke-linecap="round"
   stroke="#000000"
   id="path478"
   d="M 1711.987813 1765.557522 c -2.173530 10.047404 -3.063965 20.371670 -2.642992 30.642870 c 4.314338 2.696228 8.944702 -2.949185 10.927667 -7.634311 c 4.907905 -11.595154 9.815640 -23.190308 14.723375 -34.785461 c -3.884210 16.125488 -6.390889 32.582601 -7.483758 49.133301"
   class="st0" />
	<path
   fill="none"
   stroke-width="3.000000"
   stroke-linejoin="round"
   stroke-linecap="round"
   stroke="#000000"
   id="path480"
   d="M 1598.708767 1795.222304 c 21.273804 9.003364 45.224169 9.960598 68.129306 6.962077 c 22.904968 -2.998691 45.116679 -9.765625 67.419603 -15.782844"
   class="st0" />
	<path
   fill="none"
   stroke-width="3.000000"
   stroke-linejoin="round"
   stroke-linecap="round"
   stroke="#000000"
   id="path482"
   d="M 1725.697666 1998.615519 c 12.228563 -14.114210 25.567627 -27.266269 39.853075 -39.294264"
   class="st0" />
	<path
   fill="none"
   stroke-width="3.000000"
   stroke-linejoin="round"
   stroke-linecap="round"
   stroke="#000000"
   id="path484"
   d="M 1765.520223 1963.400947 c -5.624220 6.799486 -9.064738 15.377808 -9.697469 24.179247 c 4.121738 -6.045193 8.243646 -12.090386 12.365553 -18.135749 c 10.635206 11.264377 21.270413 22.528754 31.905619 33.793132 c 6.962077 7.373895 14.072672 14.865112 22.931925 19.800483"
   class="st0" />
	<path
   fill="none"
   stroke-width="3.000000"
   stroke-linejoin="round"
   stroke-linecap="round"
   stroke="#000000"
   id="path486"
   d="M 1823.720296 2042.461650 c 0.219387 -2.637397 0.438775 -5.274794 0.658162 -7.912191 c 26.318190 40.023973 12.677850 97.014533 39.303589 136.834547"
   class="st0" />
	<path
   fill="none"
   stroke-width="3.000000"
   stroke-linejoin="round"
   stroke-linecap="round"
   stroke="#000000"
   id="path488"
   d="M 1799.958462 2148.529222 c -4.694451 21.067132 -4.985046 43.104892 -0.847541 64.288500 c 0.251770 1.289029 0.736660 2.813382 2.011787 3.128221 c 1.275126 0.314670 2.149116 -2.141317 0.836182 -2.175564"
   class="st0" />
	<path
   fill="none"
   stroke-width="3.000000"
   stroke-linejoin="round"
   stroke-linecap="round"
   stroke="#000000"
   id="path490"
   d="M 1799.379476 2190.179613 c 9.525553 138.012356 12.932671 276.446872 10.207791 414.760674"
   class="st0" />
	<path
   fill="none"
   stroke-width="3.000000"
   stroke-linejoin="round"
   stroke-linecap="round"
   stroke="#000000"
   id="path492"
   d="M 1782.728238 2209.138658 c -0.878228 28.465101 -1.756287 56.930203 -2.634345 85.395304"
   class="st0" />
	<path
   fill="none"
   stroke-width="3.000000"
   stroke-linejoin="round"
   stroke-linecap="round"
   stroke="#000000"
   id="path494"
   d="M 1818.061659 2179.390632 c 3.927612 24.186707 4.316542 48.790487 4.696825 73.290846 c 1.585049 102.122498 3.169929 204.244995 4.754978 306.367323"
   class="st0" />
	<path
   fill="none"
   stroke-width="3.000000"
   stroke-linejoin="round"
   stroke-linecap="round"
   stroke="#000000"
   id="path496"
   d="M 1067.790900 820.773146 c 1.245032 -4.201168 4.388682 -7.799361 8.384620 -9.597185 c 5.825043 6.053501 2.121396 16.582913 -4.222785 22.089810 c -6.344265 5.506897 -14.695485 8.341132 -20.880805 14.025964 c -3.627353 3.333706 -6.355370 7.509359 -9.043969 11.637709 c -11.778514 18.086582 -23.557112 36.173079 -35.335626 54.259576"
   class="st0" />
	<path
   fill="none"
   stroke-width="3.000000"
   stroke-linejoin="round"
   stroke-linecap="round"
   stroke="#000000"
   id="path498"
   d="M 1056.644948 809.530470 c -28.533681 44.558292 -54.787530 90.576341 -78.624556 137.814162"
   class="st0" />
	<path
   fill="none"
   stroke-width="3.000000"
   stroke-linejoin="round"
   stroke-linecap="round"
   stroke="#000000"
   id="path500"
   d="M 824.407620 894.872114 c 3.376007 3.419918 6.061215 7.445441 8.820173 11.380090 c 18.782637 26.785872 41.964806 50.479211 68.334707 69.841512"
   class="st0" />
	<path
   fill="none"
   stroke-width="3.000000"
   stroke-linejoin="round"
   stroke-linecap="round"
   stroke="#000000"
   id="path502"
   d="M 647.146606 818.075392 c 5.507151 21.009488 10.034307 42.275831 13.561885 63.706716"
   class="st0" />
	<path
   fill="none"
   stroke-width="3.000000"
   stroke-linejoin="round"
   stroke-linecap="round"
   stroke="#000000"
   id="path504"
   d="M 711.702728 862.190331 c 11.535390 40.271759 9.298367 83.193885 17.244636 124.324629"
   class="st0" />
	<path
   fill="none"
   stroke-width="3.000000"
   stroke-linejoin="round"
   stroke-linecap="round"
   stroke="#000000"
   id="path506"
   d="M 735.062408 876.401350 c -1.712460 46.751234 -0.836690 93.597073 2.622053 140.251668"
   class="st0" />
	<path
   fill="none"
   stroke-width="3.000000"
   stroke-linejoin="round"
   stroke-linecap="round"
   stroke="#000000"
   id="path508"
   d="M 752.374946 906.923336 c 0.743357 34.723070 0.223796 69.473097 -1.557329 104.158444"
   class="st0" />
	<path
   fill="none"
   stroke-width="3.000000"
   stroke-linejoin="round"
   stroke-linecap="round"
   stroke="#000000"
   id="path510"
   d="M 1094.771576 816.986847 c 4.785072 -4.728190 10.270182 -8.746762 16.220856 -11.883969 c 1.021406 -0.538466 2.165137 -1.065996 3.289880 -0.804647 c 1.070997 0.248803 1.847161 1.149580 2.541945 2.001699 c 14.947510 18.333350 28.668806 37.666321 41.041650 57.826911"
   class="st0" />
	<path
   fill="none"
   stroke-width="3.000000"
   stroke-linejoin="round"
   stroke-linecap="round"
   stroke="#000000"
   id="path512"
   d="M 1154.239739 859.568108 c 7.225460 4.726749 11.276923 12.883250 15.392897 20.473226 c 9.872097 18.204922 21.936205 35.219828 35.848660 50.560082"
   class="st0" />
	<path
   fill="none"
   stroke-width="3.000000"
   stroke-linejoin="round"
   stroke-linecap="round"
   stroke="#000000"
   id="path514"
   d="M 1043.331231 867.258538 c 7.731374 -7.974667 16.751777 -14.696842 26.603868 -19.825745 c 4.418098 -2.300093 9.417555 -4.327816 14.265611 -3.184848 c 5.703481 1.344638 9.478505 6.606971 12.723372 11.486308 c 2.376980 -4.569922 3.588274 -9.740278 3.488583 -14.890459 c 9.423235 3.326331 18.227726 8.396742 25.834317 14.877658"
   class="st0" />
	<path
   fill="none"
   stroke-width="3.000000"
   stroke-linejoin="round"
   stroke-linecap="round"
   stroke="#000000"
   id="path516"
   d="M 1019.406721 808.322991 c -3.907437 14.285617 -8.991920 28.249020 -15.185208 41.702271"
   class="st0" />
	<path
   fill="none"
   stroke-width="3.000000"
   stroke-linejoin="round"
   stroke-linecap="round"
   stroke="#000000"
   id="path518"
   d="M 1033.997091 796.058400 c 3.212823 -9.476132 9.964074 -17.706299 18.629032 -22.709995"
   class="st0" />
	<path
   fill="none"
   stroke-width="3.000000"
   stroke-linejoin="round"
   stroke-linecap="round"
   stroke="#000000"
   id="path520"
   d="M 855.247158 2567.519294 c -11.712816 5.918037 -22.289615 14.074537 -30.990007 23.898655 c 18.659465 -1.762051 37.319014 -3.524102 55.978478 -5.286323 c 22.632853 -2.137248 48.084937 -3.426615 65.216319 11.517673 c 6.930372 6.045532 11.921946 15.856425 8.542887 24.409654 c -4.267036 10.801019 -18.268077 13.092889 -29.863061 13.745626 c -15.007443 0.844828 -30.014971 1.689487 -45.022498 2.534315 c -5.668894 0.319078 -12.344445 0.190226 -15.686629 -4.399787 c -1.615228 -2.218458 -2.065277 -5.055576 -2.378167 -7.781813 c -1.583184 -13.795641 -0.847880 -27.854580 2.165816 -41.409810"
   class="st0" />
	<path
   fill="none"
   stroke-width="3.000000"
   stroke-linejoin="round"
   stroke-linecap="round"
   stroke="#000000"
   id="path522"
   d="M 1023.565250 2654.918416 c -14.135827 1.464844 -28.271654 2.929688 -42.407481 4.394531 c -2.571784 0.266351 -5.395084 0.472514 -7.516310 -1.005893 c -3.262244 -2.273390 -2.982585 -7.522074 -0.482008 -10.613505 c 2.500576 -3.091600 6.439548 -4.564073 10.183885 -5.902269 c 7.736630 -2.765232 15.473345 -5.530294 23.210059 -8.295356 c -50.357310 5.719672 -101.804097 1.688978 -150.656128 -11.803860 c -32.451291 -8.962843 -64.431085 -22.160848 -98.095788 -22.495694 c 65.288120 15.322028 129.539659 35.059272 192.170376 59.032186 c -28.348880 -3.367954 -55.932448 -11.283705 -83.370039 -19.169278 c -37.403276 -10.749817 -74.806637 -21.499464 -112.209998 -32.249281 c 12.190755 6.672329 26.508247 7.816569 40.137312 10.533990 c 49.703895 9.909566 94.030084 42.011176 144.622294 45.028856 c -1.607513 -8.064100 -5.055915 -15.755547 -10.007222 -22.320387 c 9.146712 3.325568 14.697011 14.330716 11.933984 23.662821"
   class="st0" />
	<path
   fill="none"
   stroke-width="3.000000"
   stroke-linejoin="round"
   stroke-linecap="round"
   stroke="#000000"
   id="path524"
   d="M 1180.625916 2603.741286 c -12.369453 -3.687371 -25.999281 -2.986993 -37.925720 1.948547 c -7.906426 3.271993 -16.034020 10.981072 -13.271332 19.079420 c 4.890866 1.289029 9.993151 -0.682746 14.622328 -2.720303 c 25.650363 -11.290148 51.746114 -26.112196 79.649353 -23.500570 c 1.431698 0.133938 2.947489 0.351122 4.048835 1.275804 c 2.694787 2.262370 1.054213 6.706238 -1.255798 9.360419 c -8.179813 9.398058 -21.311018 12.277052 -33.304342 15.652635 c -24.411519 6.870524 -47.644891 17.907037 -68.393538 32.488505 c 12.716081 -2.415975 25.432078 -4.832119 38.148159 -7.248264 c 9.811740 -1.864115 19.775136 -3.737047 29.723528 -2.856276 c 7.910495 0.700378 15.959337 3.346761 21.500736 9.035238 s 7.932705 14.838155 4.263814 21.881273 c -3.288269 6.312392 -10.358005 9.597778 -17.116377 11.830139"
   class="st0" />
	<path
   fill="none"
   stroke-width="3.000000"
   stroke-linejoin="round"
   stroke-linecap="round"
   stroke="#000000"
   id="path526"
   d="M 1023.063236 2643.258667 c 35.247294 95.105320 51.781294 197.105238 48.382314 298.475138"
   class="st0" />
	<path
   fill="none"
   stroke-width="3.000000"
   stroke-linejoin="round"
   stroke-linecap="round"
   stroke="#000000"
   id="path528"
   d="M 1013.913218 2670.843675 c 9.899563 29.849074 19.799211 59.698147 29.698775 89.547221 c 14.431678 43.513997 29.045105 88.307359 26.486969 134.080675"
   class="st0" />
	<path
   fill="none"
   stroke-width="3.000000"
   stroke-linejoin="round"
   stroke-linecap="round"
   stroke="#000000"
   id="path530"
   d="M 1011.120860 2673.265076 c 10.369449 84.582350 20.754157 169.960361 12.735748 254.797872"
   class="st0" />
	<path
   fill="none"
   stroke-width="3.000000"
   stroke-linejoin="round"
   stroke-linecap="round"
   stroke="#000000"
   id="path532"
   d="M 1007.298703 2782.086351 c 5.018192 -12.529839 10.036299 -25.059679 15.054491 -37.589518"
   class="st0" />
	<path
   fill="none"
   stroke-width="3.000000"
   stroke-linejoin="round"
   stroke-linecap="round"
   stroke="#000000"
   id="path534"
   d="M 1028.884633 2926.517741 c 2.152591 8.094618 0.011359 16.586643 -2.125465 24.684652 c -2.897898 10.982937 -5.795797 21.965535 -8.693695 32.948473 c -1.318444 4.996745 -2.837033 10.313924 -6.944614 13.725450"
   class="st0" />
	<path
   fill="none"
   stroke-width="3.000000"
   stroke-linejoin="round"
   stroke-linecap="round"
   stroke="#000000"
   id="path536"
   d="M 1044.442410 2909.700521 c 2.796597 7.132297 0.676219 15.145196 -1.511637 22.487047 c -6.661987 22.356839 -13.775126 44.579061 -21.333482 66.648695"
   class="st0" />
	<path
   fill="none"
   stroke-width="3.000000"
   stroke-linejoin="round"
   stroke-linecap="round"
   stroke="#000000"
   id="path538"
   d="M 1067.532264 2913.824802 c -1.684231 12.763808 -6.274329 24.917602 -11.390432 36.662123 c -6.932068 15.913561 -14.900292 31.343926 -23.832703 46.152073"
   class="st0" />
	<path
   fill="none"
   stroke-width="3.000000"
   stroke-linejoin="round"
   stroke-linecap="round"
   stroke="#000000"
   id="path540"
   d="M 1059.082879 2927.546861 c -6.177012 13.613892 -12.354109 27.227783 -18.531206 40.841675 c -4.095459 9.026421 -8.266618 18.386841 -8.242543 28.250461"
   class="st0" />
</g>
</svg>