<?xml version="1.0" encoding="utf-8"?>
<!-- Generator: Adobe Illustrator 26.3.1, SVG Export Plug-In . SVG Version: 6.00 Build 0)  -->
<svg version="1.1" id="SvgjsSvg1001" xmlns:svgjs="http://svgjs.com/svgjs"
	 xmlns="http://www.w3.org/2000/svg" xmlns:xlink="http://www.w3.org/1999/xlink" x="0px" y="0px" viewBox="0 0 337 318.6"
	 style="enable-background:new 0 0 337 318.6;" xml:space="preserve">
<style type="text/css">
	.st0{fill:none;stroke:#000000;}
</style>
<path id="SvgjsPath1008" class="st0" d="M168,182.1l1,4.5l1.1,4.5l1.3,4.5l1.2,4.5l1,4.5l1,4.5l0.9,4.5l0.8,4.5l0.6,4.5l0.5,4.5
	l0.3,4.5l0.1,4.5l0,4.5v4.5v4.5v4.5v4.5v4.5v4.5v4.5v4.5v4.5v4.5v4.5v4.5v4.5v4.5v4.5v4.5v4.5"/>
<path id="SvgjsPath1009" class="st0" d="M168.9,184.8l0.3,4.3l0.6,4.3l0.8,4.3l1.1,4.2l1.2,4.2l1.2,4.2l1.2,4.2l1.1,4.2l0.9,4.3
	l0.7,4.3l0.6,4.3l0.7,4.3l0.7,4.3l0.7,4.3l0.6,4.3l0.6,4.3l0.5,4.3l0.4,4.3l0.2,4.3l0,4.3l-0.1,4.3l-0.3,4.3l-0.4,4.3l-0.5,4.3
	l-0.6,4.3l-0.7,4.3l-0.7,4.3l-1,4.2l-0.9,4.2l-0.9,4.2"/>
<path id="SvgjsPath1010" class="st0" d="M170.4,181.1l0.1,0.7l0.1,0.7l0.1,0.7l0.1,0.7l0.1,0.7l0,0.7l0,0.7l0,0.7l0,0.7l0,0.7
	l-0.1,0.7l-0.1,0.7l-0.1,0.7l-0.1,0.7l-0.1,0.7l-0.1,0.7l0,0.7l0,0.7l0,0.7l0,0.7l0,0.7l0,0.7l0,0.7l0,0.7l0,0.7l0,0.7l0,0.7l0,0.7
	l-0.1,1.4"/>
<path id="SvgjsPath1011" class="st0" d="M164,152.9l1,0.7l1,0.7l0.9,0.8l0.9,0.8l0.9,0.8l0.8,0.9l0.7,0.9l0.7,1l0.6,1l0.5,1.1
	l0.5,1.1l0.4,1.1l0.3,1.2l0.2,1.2l0.1,1.2l0,1.2l-0.1,1.2l-0.1,1.2l-0.2,1.2l-0.2,1.2l-0.3,1.2l-0.3,1.2l-0.3,1.1l-0.3,1.1l-0.3,1.1
	l-0.3,1.1l-0.3,1.1l-0.3,1.1l-0.3,1.2l-0.3,1.2l-0.3,1.2"/>
<path id="SvgjsPath1012" class="st0" d="M165.2,153.9l0.7,1.2l0.7,1.2l0.7,1.2l0.7,1.1l0.7,1.1l0.7,1.2l0.6,1.2l0.3,1.3l0.2,1.3
	l0.1,1.3l0.1,1.3l0,1.3l0,1.3l-0.1,1.3l-0.2,1.3l-0.2,1.3l-0.3,1.3l-0.2,1.3l-0.2,1.3l-0.1,1.3l-0.1,1.3l-0.1,1.3l0,1.3l0,1.3
	l-0.1,1.3l-0.1,1.3l-0.1,1.3l-0.1,1.3l-0.1,1.3l-0.1,1.3"/>
<path id="SvgjsPath1013" class="st0" d="M157.9,150l0.4,0.3l0.4,0.3l0.4,0.3l0.4,0.3l0.4,0.3l0.4,0.3l0.4,0.3l0.4,0.3l0.4,0.3
	l0.4,0.3l0.4,0.3l0.4,0.3l0.4,0.3l0.4,0.3l0.4,0.3l0.4,0.3l0.4,0.3l0.4,0.3l0.4,0.2l0.4,0.2l0.4,0.2l0.4,0.2l0.4,0.2l0.4,0.2
	l0.5,0.1l0.5,0.1l0.5,0.1l0.5,0.1l0.5,0.1l0.5,0.1"/>
<path id="SvgjsPath1014" class="st0" d="M171.3,186.7l1.4-0.7l1.4-0.6l1.4-0.5l1.4-0.5l1.4-0.5l1.4-0.5l1.4-0.5l1.4-0.5l1.4-0.5
	l1.4-0.5l1.4-0.5l1.4-0.5l1.4-0.5l1.4-0.5l1.4-0.5l1.4-0.5l1.4-0.5l1.4-0.5l1.4-0.5l1.4-0.5l1.4-0.5l1.4-0.5l1.4-0.4l1.4-0.4
	l1.4-0.4l1.4-0.4l1.4-0.4l1.4-0.4l1.4-0.4l1.4-0.4"/>
<path id="SvgjsPath1015" class="st0" d="M170.7,188.3l2.7-1.2l2.7-1.2l2.7-1.2l2.7-1.2l2.7-1.2l2.7-1.2l2.7-1.2l2.8-1.2l2.8-1.2
	l2.8-1.2l2.8-1.1l2.8-1.1l2.8-1.1l2.8-1l2.8-1l2.8-1l2.8-1l2.8-1l2.8-1l2.8-1l2.8-0.9l2.8-0.9l2.8-1l2.8-1l2.8-1l2.8-1l2.8-1l2.8-1
	l2.8-1.1l2.8-1.1"/>
<path id="SvgjsPath1016" class="st0" d="M204.7,172.9l2.5-0.2l2.5-0.3l2.5-0.5l2.4-0.7l2.4-0.8l2.4-0.9l2.4-0.9l2.4-0.9l2.4-0.9
	l2.4-1l2.4-1l2.4-1l2.4-1l2.4-1.1l2.3-1.1l2.3-1.1l2.3-1.1l2.3-1.2l2.3-1.3l2.3-1.3l2.2-1.4l2.2-1.4l2.2-1.6l2.1-1.7l2.1-1.7l2-1.9
	l1.8-2.1l1.5-2.5l1.1-2.8l0.7-3"/>
<path id="SvgjsPath1017" class="st0" d="M214.1,150.9l0.1,0.3l0.1,0.3l0.1,0.3l0.1,0.3l0.1,0.3l0.1,0.3l0.1,0.3l0.1,0.3l0.1,0.3
	l0.1,0.3l0.1,0.3l0.1,0.3l0.1,0.3l0.1,0.3l0.1,0.3l0.1,0.3l0,0.3l0,0.3l0,0.3l0,0.3l0,0.3l0,0.3l0,0.3l0,0.3l-0.1,0.3l-0.1,0.3
	l-0.1,0.3l-0.1,0.3l-0.4,0.4"/>
<path id="SvgjsPath1018" class="st0" d="M217.1,158.5l-0.6,0.5l-0.6,0.5l-0.7,0.5l-0.7,0.5l-0.7,0.4l-0.7,0.4l-0.7,0.4l-0.7,0.4
	l-0.7,0.3l-0.7,0.3l-0.7,0.3l-0.7,0.3l-0.7,0.3l-0.7,0.2l-0.7,0.2l-0.7,0.2l-0.7,0.2l-0.7,0.2l-0.7,0.2l-0.7,0.2l-0.7,0.2l-0.7,0.2
	l-0.7,0.2l-0.7,0.2l-0.7,0.2l-0.7,0.2l-0.7,0.2l-0.7,0.2l-1.5,0.5"/>
<path id="SvgjsPath1019" class="st0" d="M214.5,159.9l-1,0.4l-1,0.4l-1,0.4l-1,0.3l-1,0.3l-1,0.3l-1,0.3l-1,0.3l-1,0.3l-1,0.3
	l-1,0.3l-1,0.3l-1,0.3l-1,0.2l-1,0.2l-1,0.2l-1,0.2l-1,0.2l-1,0.2l-1,0.2l-1,0.1l-1,0.1l-1,0.1l-1,0.2l-1,0.2l-1,0.2l-1,0.1l-1,0.1
	l-1,0.1l-1,0.1"/>
<path id="SvgjsPath1020" class="st0" d="M202.8,163.8l-1,0.4l-1.1,0.4l-1.1,0.4l-1.1,0.3l-1.1,0.3l-1.1,0.2l-1.1,0.2l-1.1,0.2
	l-1.1,0.2l-1.1,0.1l-1.1,0.1l-1.1,0.1l-1.1,0.1l-1.1,0.1l-1.1,0.1l-1.1,0.1l-1.1,0.1l-1.1,0.1l-1.1,0.1l-1.1,0.1l-1.1,0l-1.1,0
	l-1.1,0l-1.1,0l-1.1,0l-1.1,0l-1.1,0.1l-1.1,0.2l-1.1,0.3l-1.1,0.3"/>
<path id="SvgjsPath1021" class="st0" d="M222.4,133.7l0.2,0.9l0.2,0.9l0.2,0.9l0.1,0.9l0.1,0.9l0.1,0.9l0,0.9l-0.1,0.9l-0.2,0.9
	l-0.4,0.8l-0.4,0.8l-0.4,0.8l-0.6,0.5l-0.6,0.4l-0.6,0.4l-0.6,0.4l-0.6,0.4l-0.6,0.4l-0.6,0.4l-0.6,0.5l-0.6,0.5l-0.5,0.7l-0.5,0.7
	l-0.4,0.7l-0.3,0.8l-0.3,0.9l-0.1,0.9l0.2,0.9l0.3,0.8l0.5,0.7"/>
<path id="SvgjsPath1022" class="st0" d="M222.1,131.6l0.4,1l0.4,1.1l0.3,1.1l0.3,1.1l0.3,1.1l0.2,1.1l0.1,1.1l0,1.2l-0.2,1.1l-0.4,1
	l-0.6,0.9l-0.6,0.8l-0.7,0.6l-0.8,0.5l-0.8,0.4l-0.8,0.4l-0.8,0.4l-0.8,0.5l-0.7,0.6l-0.6,0.8l-0.4,1l-0.1,1.1l0.2,1.1l0.5,1
	l0.5,0.9l0.5,0.9l0.4,1l0.2,1.1l-0.3,1.1l-0.5,0.9"/>
<path id="SvgjsPath1023" class="st0" d="M221.4,130l0.1,0.3l0.1,0.3l0.1,0.3l0.1,0.3l0.1,0.3l0.1,0.3l0.1,0.3l0.1,0.3l0.1,0.3
	l0.1,0.3l0.1,0.3l0.1,0.3l0.1,0.3l0.1,0.3l0.1,0.3l0.1,0.3l0.1,0.3l0.1,0.3l0.1,0.3l0.1,0.3l0.1,0.3l0.1,0.3l0.1,0.3l0.1,0.3
	l0.1,0.3l0.1,0.3l0,0.3l0,0.3l0,0.3l0,0.3"/>
<path id="SvgjsPath1024" class="st0" d="M241.1,131.1l0.7,0.3l0.7,0.3l0.7,0.3l0.7,0.2l0.7,0.2l0.7,0.2l0.7,0.2l0.7,0.1l0.7,0.1
	l0.7,0.1l0.7,0l0.7,0l0.7,0l0.7-0.1l0.7-0.1l0.7-0.1l0.7-0.2l0.7-0.2l0.7-0.2l0.7-0.3l0.7-0.3l0.7-0.3l0.7-0.3l0.7-0.4l0.6-0.4
	l0.6-0.4l0.6-0.4l0.6-0.4l0.6-0.5l0.6-0.5"/>
<path id="SvgjsPath1025" class="st0" d="M231.8,112.2l-0.5-0.1l-0.5-0.1l-0.5-0.1l-0.5-0.1l-0.5,0l-0.5,0l-0.5,0.1l-0.5,0.1
	l-0.5,0.1l-0.5,0.1l-0.5,0.2l-0.5,0.2l-0.5,0.2l-0.5,0.2l-0.5,0.2l-0.5,0.2l-0.5,0.3l-0.5,0.3l-0.4,0.3l-0.4,0.3l-0.4,0.3l-0.4,0.3
	l-0.4,0.3l-0.4,0.4l-0.4,0.4l-0.4,0.4l-0.4,0.4l-0.4,0.4l-0.8,0.8"/>
<path id="SvgjsPath1026" class="st0" d="M224.8,113l-2.6,0.4l-2.5,0.8l-2.4,1.3l-1.7,2.4l-1.3,2.6l-2.6,0.4l-2.5,0.9l-2.4,1.3
	l-2.4,1.4l-2.1,1.8l-1.4,2.7l-0.2,3.2l1.6,2.4l2.5,0.7l2.6-0.1l2.6-0.1l2.6-0.2l2.5-1l2.4-1.3l2.5-0.8l2.6,0l2.6,0l2.6-0.6l2.1,1.2
	l1.7,2.2l2.6,0.1l2.6-0.6l2.5-0.8l2.5-1.1l2.4-1.2"/>
<path id="SvgjsPath1027" class="st0" d="M229.1,131.5l0.3,0.5l0.3,0.5l0.4,0.5l0.4,0.4l0.5,0.3l0.5,0.3l0.5,0.2l0.5,0.2l0.5,0.1
	l0.5,0.1l0.5,0l0.5,0l0.5-0.1l0.5-0.1l0.5-0.2l0.5-0.2l0.5-0.2l0.5-0.2l0.5-0.2l0.5-0.2l0.5-0.2l0.5-0.2l0.5-0.2l0.5-0.2l0.5-0.3
	l0.5-0.3l0.5-0.3l0.5-0.3l0.9-0.7"/>
<path id="SvgjsPath1028" class="st0" d="M229.1,113.8l0.3-1.2l0.4-1.2l0.4-1.1l0.5-1.1l0.5-1.1l0.6-1.1l0.6-1l0.6-1l0.7-1l0.7-0.9
	l0.7-0.9l0.7-0.9l0.8-0.8l0.8-0.8l0.8-0.7l0.8-0.7l0.9-0.7l0.9-0.6l0.9-0.6l0.9-0.5l0.9-0.4l1-0.4l1-0.3l1-0.2l1-0.2l1,0l1,0.2
	l0.9,0.5l0.7,0.8l0.5,1.1l0.3,1.2"/>
<path id="SvgjsPath1029" class="st0" d="M229.5,109.5l0.6-1.2l0.6-1.1l0.7-1.1l0.7-1.1l0.7-1.1l0.7-1l0.8-1l0.8-0.9l0.8-0.9l0.9-0.9
	l0.9-0.8l0.9-0.8l0.9-0.7l0.9-0.7l1-0.7l1-0.6l1-0.5l1.1-0.4l1.1-0.3l1.1-0.2l1.1-0.1l1.1,0.1l1.1,0.3l1,0.6l0.9,0.8l0.7,1.1
	l0.4,1.3l0.1,1.4l-0.2,1.3l-0.5,1.2"/>
<path id="SvgjsPath1030" class="st0" d="M248.5,102.4l0.7-0.8l0.7-0.8l0.7-0.8l0.7-0.8l0.8-0.8l0.8-0.8l0.8-0.7l0.8-0.7l0.8-0.6
	l0.9-0.6l0.9-0.5l0.9-0.5l0.9-0.4l1-0.3l1-0.1l1,0.1l0.9,0.3l0.9,0.6l0.8,0.7l0.8,0.8l0.7,0.9l0.5,1.1l0.4,1.1l0.2,1.2l0.1,1.2
	l0,1.2l0,1.2l-0.2,1.2l-0.2,1.2l-0.3,1.2l-0.3,1.2"/>
<path id="SvgjsPath1031" class="st0" d="M266.2,108.3l0.3-0.2l0.3-0.2l0.3-0.2l0.3-0.2l0.4-0.2l0.4-0.2l0.4-0.2l0.4-0.2l0.4-0.1
	l0.4-0.1l0.4-0.1l0.4,0l0.4,0l0.4,0l0.4,0.1l0.4,0.1l0.4,0.2l0.3,0.2l0.3,0.2l0.3,0.3l0.3,0.3l0.2,0.4l0.2,0.4l0.2,0.4l0.2,0.4
	l0.2,0.4l0.2,0.4l0.1,0.4l0.1,0.4l0.1,0.5l0.1,0.5"/>
<path id="SvgjsPath1032" class="st0" d="M275.2,112.1l0.9-1l0.9-1l1-0.9l1-0.9l1.1-0.7l1.1-0.7l1.1-0.6l1.1-0.5l1.1-0.4l1.2-0.3
	l1.2-0.1l1.2,0.2l1.2,0.2l1.2,0.2l1.2,0.2l1,0.8l1,0.8l0.8,1.1l0.8,1.1l0.7,1.3l0.6,1.3l0.5,1.4l0.4,1.4l0.3,1.5l0.1,1.5l0.1,1.5
	l-0.1,1.5l-0.1,1.5l-0.2,1.5l-0.2,1.5"/>
<path id="SvgjsPath1033" class="st0" d="M280.5,131.3l1.4,0.8l1.5,0.5l1.5-0.1l1.5-0.6l1.5-0.5l1.5-0.1l1.5,0.2l1.3,0.8l1.1,1.3
	l1.4,0.8l1.5,0l1.3-1l1-1.4l0.8-1.7l0.5-1.8l0.1-1.9l-0.3-1.9l-0.5-1.9l-0.4-1.9l-0.3-1.9l0-1.9l-0.6-1.8l-0.8-1.7l-0.9-1.6
	l-0.9-1.6l-0.9-1.6l-1-1.5l-1.2-1.2l-1.4-0.6l-1.5,0.1"/>
<path id="SvgjsPath1034" class="st0" d="M275.9,113l0.6-0.8l0.7-0.8l0.7-0.8l0.7-0.7l0.7-0.7l0.8-0.6l0.8-0.5l0.8-0.5l0.9-0.4
	l0.9-0.3l0.9-0.2l0.9,0l0.9,0l0.9,0.2l0.9,0.3l0.9,0.3l0.8,0.6l0.8,0.6l0.8,0.6l0.6,0.8l0.6,0.9l0.5,0.9l0.4,1l0.4,1l0.3,1.1
	l0.3,1.1l0.2,1.1l0.2,1.1l0.1,1.1l0.1,1.1"/>
<path id="SvgjsPath1035" class="st0" d="M261.5,126.4l0.1,0.9l0.1,0.9l0.3,0.9l0.3,0.9l0.4,0.8l0.4,0.8l0.6,0.6l0.6,0.6l0.7,0.4
	l0.7,0.3l0.7,0.2l0.7,0.2l0.8,0.1l0.8,0.1l0.8,0l0.8,0l0.8-0.1l0.8-0.1l0.8-0.1l0.8-0.1l0.7-0.1l0.7-0.1l0.7-0.2l0.7-0.2l0.7-0.3
	l0.7-0.3l0.7-0.3l0.7-0.3l1.4-0.6"/>
<path id="SvgjsPath1036" class="st0" d="M223.8,130.7l0.2,0.4l0.2,0.4l0.2,0.4l0.2,0.4l0.2,0.4l0.2,0.4l0.2,0.4l0.2,0.4l0.2,0.4
	l0.2,0.4l0.2,0.4l0.2,0.4l0.2,0.4l0.2,0.4l0.1,0.4l0.1,0.4l0.1,0.4l0.1,0.4l0.1,0.4l0.1,0.4l0.1,0.4l0.1,0.4l0.1,0.4l0.1,0.4
	l0.1,0.5l0.1,0.5l0,0.5l0,0.5l0.1,0.9"/>
<path id="SvgjsPath1037" class="st0" d="M225.1,132.3l0.3,0.8l0.3,0.8l0.3,0.8l0.2,0.9l0.2,0.9l0.2,0.9l0.2,0.9l0.2,0.9l0.1,0.9
	l0.1,0.9l0,0.9l0,0.9l-0.1,0.9l-0.3,0.8l-0.4,0.8L226,146l-0.4,0.7l-0.5,0.6l-0.5,0.6l-0.5,0.7l-0.2,0.9l-0.2,0.9l-0.2,0.9l0.1,0.9
	l0.2,0.9l0.4,0.8l0.4,0.7l0.5,0.7l0.5,0.6l0.6,0.6"/>
<path id="SvgjsPath1038" class="st0" d="M225.1,156.3l0.9,0.1l0.9,0.1l0.9,0.1l0.9,0.1l0.9,0l0.9,0l0.9,0l0.9-0.1l0.9-0.1l0.9-0.1
	l0.9-0.1l0.9-0.1l0.9-0.2l0.9-0.2l0.9-0.2l0.9-0.2l0.9-0.2l0.9-0.2l0.9-0.3l0.9-0.3l0.9-0.3l0.9-0.3l0.9-0.3l0.9-0.3l0.9-0.3
	l0.9-0.3l0.9-0.3l0.9-0.4l0.9-0.4l0.9-0.4"/>
<path id="SvgjsPath1039" class="st0" d="M225.4,156.7l1.5,0.3l1.5,0.2l1.5,0.1l1.5,0l1.5-0.1l1.5-0.2l1.5-0.2l1.5-0.2l1.5-0.3
	l1.5-0.4l1.5-0.5l1.4-0.6l1.4-0.5l1.5-0.4l1.5-0.4l1.5-0.4l1.4-0.6l1.4-0.7l1.3-0.9l1.3-0.9l1.3-1l1.3-1l1.2-1.1l1.2-1.2l1.1-1.3
	l0.9-1.5l0.7-1.7l0.6-1.7l0.6-1.7l0.5-1.8"/>
<path id="SvgjsPath1040" class="st0" d="M264.5,131.9l0,0.4l0,0.4l0,0.4l0,0.4l-0.1,0.4l-0.1,0.4l-0.1,0.4l-0.1,0.4l-0.1,0.4
	l-0.1,0.4l-0.1,0.4l-0.1,0.4l-0.1,0.4l-0.1,0.4l-0.1,0.4l-0.1,0.4l-0.2,0.3l-0.2,0.3l-0.2,0.3l-0.2,0.3l-0.2,0.3l-0.2,0.3l-0.2,0.3
	l-0.2,0.3l-0.2,0.3l-0.2,0.3l-0.2,0.3l-0.2,0.3l-0.4,0.6"/>
<path id="SvgjsPath1041" class="st0" d="M121.9,36.5l-0.2,0.1l-0.2,0.1l-0.2,0.1l-0.2,0.1l-0.2,0.1l-0.2,0.1l-0.2,0.1l-0.2,0.1
	l-0.2,0.1l-0.2,0.1l-0.2,0.1l-0.2,0.1l-0.2,0.2l-0.2,0.2l-0.2,0.2l-0.2,0.2l-0.2,0.2l-0.2,0.2l-0.2,0.2l-0.2,0.2l-0.2,0.2l-0.2,0.2
	l-0.2,0.2l-0.2,0.2l-0.1,0.2l-0.1,0.2l-0.1,0.3l-0.1,0.3l-0.1,0.3l-0.1,0.3"/>
<path id="SvgjsPath1042" class="st0" d="M124.7,28.6l0.2-1l0.2-1l0.3-0.9l0.4-0.9l0.5-0.8l0.5-0.8l0.6-0.7l0.7-0.6l0.8-0.4l0.8-0.3
	l0.8-0.2l0.8-0.2l0.8-0.1l0.8,0l0.8,0.1l0.8,0.2l0.8,0.3l0.8,0.4l0.8,0.5l0.7,0.5l0.7,0.6l0.6,0.7l0.6,0.7l0.5,0.8l0.5,0.8l0.4,0.9
	l0.4,0.9l0.3,1l0.3,1l0.2,1l0.2,1"/>
<path id="SvgjsPath1043" class="st0" d="M130.7,25.8l-0.5-0.1l-0.5-0.1l-0.5,0l-0.5,0l-0.5,0l-0.5,0l-0.5,0.1l-0.5,0.1l-0.5,0.1
	l-0.5,0.1l-0.5,0.3l-0.5,0.3l-0.4,0.3l-0.4,0.3l-0.4,0.4l-0.4,0.4l-0.3,0.5l-0.3,0.5l-0.3,0.5l-0.3,0.5l-0.1,0.6l-0.1,0.6l-0.1,0.6
	l-0.1,0.6l0.1,0.6l0.1,0.6l0.1,0.6l0.1,0.6l0.2,1.2"/>
<path id="SvgjsPath1044" class="st0" d="M142.6,32l1.1-4.1l1.7-3.8l2.3-3.3l3.1-2l3.4-1.4l3.5-0.3l3.5,0.9l3.2,1.8l2.9,2.4l2.8,2.7
	l2.3,3.3l2,3.6l1.8,3.8l1.2,4.1l-1.3,4l-2.7,2.7L170,48l-3.4,0.9l-3.5-0.3l-3.5-0.7l-3.4,1.3l-3.5-0.2l-3.1-2l-2.5,0.6l-2.2,3.4
	l-3.2,1.7l-3.5,0.1l-3.5-0.1l-3.3,1.2l-2.8,2.6"/>
<path id="SvgjsPath1045" class="st0" d="M132.2,51.7l-0.1,1.2l-0.1,1.2l-0.1,1.2l-0.2,1.2l-0.2,1.2l-0.2,1.2l-0.3,1.2l-0.3,1.2
	l-0.3,1.2l-0.3,1.1l-0.4,1.1l-0.4,1.1l-0.4,1.1l-0.5,1.1l-0.5,1l-0.6,1l-0.6,0.9l-0.7,0.9l-0.7,0.8l-0.8,0.8l-0.8,0.7l-0.9,0.6
	l-0.9,0.5l-0.9,0.4l-1,0.3l-1,0.1l-1-0.2l-0.8-0.6l-0.6-1l-0.3-1.1"/>
<path id="SvgjsPath1046" class="st0" d="M127.7,66.5l-1.4,2.5l-1.5,2.3l-1.7,2.1l-1.9,1.8l-2.1,1.4l-2.3,0.7l-2.4-0.3l-2.3-0.8
	l-2.1-1.4l-2.1-1.5l-2.3-0.6l-2.2,0.9l-2.1,1.5l-2.2,0.9l-2.3-0.3l-2.3-1l-2.3-1l-2.3-0.9L87.8,72l-2.3-0.8L83.1,71l-2.2,1l-2,1.6
	l-2.3,0.9l-2.4,0.1l-2.4-0.3l-2.3-0.9l-2.1-1.5L65.6,70l-1.7-2.1"/>
<path id="SvgjsPath1047" class="st0" d="M116,41.6l-1.1-1.1l-1.2-1l-1.3-0.8l-1.4-0.4l-1.4-0.3l-1.4-0.1l-1.4,0.1l-1.4,0.1l-1.4,0.1
	l-1.4,0l-1.4,0.1l-1.4,0.1l-1.4,0.5l-1.3,0.8l-1.1,1.1l-1.1,1.1l-1.2,0.9L92,43.4l-1.3,0.7L89.4,45l-1.2,1l-1,1.3l-0.9,1.4l-0.8,1.5
	l-1.1,1.1l-1.1,1.1l-1.1,1.1l-1,1.3l-1,1.3l-0.9,1.4"/>
<path id="SvgjsPath1048" class="st0" d="M101.2,35.5l-0.8,0.1l-0.8,0.1l-0.8,0.1L98,36l-0.8,0.2l-0.8,0.2l-0.8,0.2l-0.8,0.3
	l-0.8,0.3l-0.8,0.3l-0.8,0.4l-0.7,0.4L91,38.7l-0.7,0.5l-0.7,0.5l-0.7,0.6l-0.7,0.6l-0.6,0.6L87,42l-0.6,0.7L86,43.6l-0.4,0.8
	l-0.4,0.9l-0.3,0.9l-0.2,1l-0.1,1l0,1l0,1l0.1,1l0.1,1"/>
<path id="SvgjsPath1049" class="st0" d="M90.4,45.2l-3.1,1.4l-3,1.7l-2.8,2.1l-2.4,2.7l-2,3.1l-0.8,3.9l-3.1,0.5L70.2,62l-2.7,2.2
	L65.1,67l0,3.9l2.2,2.8l3,1.6l3.2,0.6l3.3-0.3l3.2-0.7l3.2-0.8l3.2-0.8l3.2,0.5l3,1.5l3.2,0.3l3.3,0l3.3,0.3l3.3,0.3l3.2-0.5
	l3.1-1.3l3,1.4l3.2-0.9l2.8-2l2.4-2.8"/>
<path id="SvgjsPath1050" class="st0" d="M242.5,12.1l-0.6-0.3l-0.6-0.3l-0.7-0.1l-0.7,0l-0.7,0.3l-0.6,0.3l-0.5,0.6l-0.5,0.6
	l-0.4,0.7l-0.4,0.7l-0.4,0.7l-0.4,0.7l-0.4,0.7l-0.4,0.7l-0.4,0.7l-0.4,0.7l-0.4,0.7l-0.4,0.7l-0.4,0.7l-0.4,0.7l-0.4,0.7l-0.4,0.7
	l-0.4,0.8l-0.4,0.8l-0.3,0.8l-0.3,0.8l-0.3,0.8l-0.3,0.8l-0.3,0.8l-0.3,0.8"/>
<path id="SvgjsPath1051" class="st0" d="M244.3,13.5l-0.8-0.6l-0.9-0.5l-0.9-0.4l-0.9-0.2l-1-0.1l-1,0.1l-0.9,0.3l-0.9,0.4l-0.8,0.6
	l-0.8,0.7l-0.8,0.8l-0.7,0.9l-0.6,0.9l-0.6,1l-0.5,1l-0.5,1l-0.5,1l-0.4,1.1l-0.4,1.1l-0.4,1.1l-0.3,1.1l-0.3,1.2l-0.2,1.2L229,28
	l-0.1,1.2l0,1.2l0.1,1.2l0.2,1.2l0.3,1.2l0.3,1.2"/>
<path id="SvgjsPath1052" class="st0" d="M242.8,13l-0.1,0.4l-0.1,0.4l-0.1,0.4l-0.1,0.4l-0.1,0.4l-0.1,0.4l0,0.4l0,0.4l0,0.4l0,0.4
	l0,0.4l0,0.4l0,0.4l0,0.4l0,0.4l0,0.4l0,0.4l0,0.4l0,0.4l0,0.4l0,0.4l0,0.4l0,0.4l0,0.4l0,0.4l0,0.4l0,0.4l0,0.4l0,0.4l0,0.4"/>
<path id="SvgjsPath1053" class="st0" d="M240.3,9.8l0.2,0.5l0.2,0.5l0.2,0.5l0.2,0.5l0.1,0.5l0.1,0.5l0.1,0.6l0.1,0.6l0.1,0.6
	l0.1,0.6l0.1,0.6l0.1,0.6l0.1,0.6l0.1,0.6l0,0.6l0,0.6l0,0.6l0,0.6l0,0.6l0,0.6l-0.1,0.6l-0.1,0.6l-0.1,0.6l-0.1,0.6l-0.1,0.5
	l-0.1,0.5l-0.1,0.5l-0.1,0.5l-0.2,0.5l-0.2,0.5"/>
<path id="SvgjsPath1054" class="st0" d="M194.7,48.2l1,1.3l1.2,1.1l1.3,0.7l1.5,0.2l1.4-0.3l1.4-0.4l1.4-0.4l1.4-0.3l1.4-0.3
	l1.4-0.1l0.4,1.8l1,1.1l1.4,0.2l1.4-0.4l1.3-0.7l1.4-0.6l1.4-0.5l1.5,0l1.3,0.6l1.2,1l1,1.3l1.3,0.9l1.4,0.5l1.5,0.1l1.4-0.2
	l1.4-0.4l1.4-0.5l1.4-0.5l1.4-0.5l1.4-0.5"/>
<path id="SvgjsPath1055" class="st0" d="M228.1,30.1l-0.6-0.8l-0.6-0.8l-0.6-0.8l-0.7-0.7l-0.7-0.7l-0.7-0.6l-0.8-0.5l-0.8-0.5
	l-0.8-0.4l-0.8-0.3l-0.9-0.2l-0.9-0.1l-0.9,0l-0.9,0.1l-0.9,0.1l-0.9,0.2l-0.8,0.3l-0.8,0.4l-0.8,0.5l-0.7,0.6l-0.7,0.6l-0.7,0.7
	l-0.6,0.8l-0.6,0.8l-0.5,0.9l-0.5,0.9l-0.4,0.9l-0.1,1.1l0.2,1.1l0.4,1l0.5,0.9"/>
<path id="SvgjsPath1056" class="st0" d="M229.4,29.5l-0.8-2.2l-1.2-1.9l-1.6-1.3l-1.9-0.6l-1.9,0.1l-1.9,0.5l-1.9,0.6l-1.9,0.7
	l-1.7,1.2l-1.5,1.5l-1.3,1.8l-1.2,1.9l-1.6,1.3l-1.9,0.3l-1.8,0.8l-1.8,1.1l-1.8,1l-1.8,1l-1.8,0.9l-1.9,0.6l-1.9,0.4l-1.9,0.4
	l-1.8,1l-1.4,1.7l-0.9,2.2l-0.2,2.4l0.9,1.8l1.9,0.6l1.9-0.1l1.9-0.8"/>
<path id="SvgjsPath1057" class="st0" d="M209.5,35.4l-0.5,0l-0.5,0l-0.5,0l-0.5,0l-0.5,0l-0.5,0l-0.5,0l-0.5,0l-0.5,0l-0.5,0l-0.5,0
	l-0.5,0l-0.5,0.1l-0.5,0.1l-0.5,0.1l-0.5,0.1l-0.5,0.2l-0.5,0.2l-0.5,0.2l-0.5,0.2l-0.5,0.2l-0.5,0.2l-0.5,0.2l-0.5,0.2l-0.5,0.2
	l-0.5,0.2l-0.5,0.2l-0.5,0.2l-0.5,0.2l-0.5,0.2"/>
<path id="SvgjsPath1058" class="st0" d="M242.2,26.1l0.3-0.5l0.3-0.5l0.3-0.5l0.3-0.5l0.3-0.5l0.3-0.5l0.4-0.5l0.4-0.5l0.4-0.5
	l0.4-0.5l0.4-0.4l0.4-0.4l0.4-0.4l0.4-0.4l0.5-0.3l0.5-0.3l0.5-0.3l0.5-0.3l0.5-0.3l0.5-0.3l0.5-0.2l0.5-0.2l0.5-0.1l0.5-0.1
	l0.5,0.1l0.5,0.1l0.5,0.3l0.5,0.3l0.4,0.4l0.4,0.4"/>
<path id="SvgjsPath1059" class="st0" d="M240.8,26.3l0.8-1.1l0.8-1l0.9-1l0.9-0.9l0.9-0.9l1-0.7l1.1-0.7l1.2-0.3l1.2-0.3l1.2-0.2
	l1.1,0.2l1.1,0.5l0.9,1l0.7,1.2l0.2,1.5l0.1,1.5l0.1,1.5l0,1.5l0,1.5l0,1.5l-0.1,1.5l-0.1,1.5l-0.1,1.5l-0.2,1.5l-0.4,1.4l-0.4,1.4
	l-0.7,1.2l-0.8,1l-1,0.9l-1.1,0.6l-1.1,0.6"/>
<path id="SvgjsPath1060" class="st0" d="M255.3,18.6l0.3,1.3l0.2,1.3l0.1,1.3l-0.1,1.3l-0.1,1.3l-0.2,1.3l-0.4,1.3l-0.4,1.2
	l-0.4,1.2l-0.5,1.2l-0.5,1.2l-0.5,1.2l-0.5,1.2l-0.5,1.2l-0.3,1.2l1.1,0.1l0.8,0.6l0.5,1.1l-0.1,1.3l-0.3,1.3l-0.4,1.3l-0.5,1.2
	l-0.5,1.2l-0.6,1.1l-0.7,1.1l-0.7,1l-0.8,0.9l-0.9,0.7l-1,0.6l-1,0.5"/>
<path id="SvgjsPath1061" class="st0" d="M249.1,43.9l0.5,0.8l0.4,0.9l0.3,1l0,1l-0.1,1.1l-0.4,0.9l-0.4,0.9l-0.6,0.8l-0.6,0.8
	l-0.7,0.6l-0.7,0.5l-0.8,0.4l-0.8,0.4l-0.8,0.3l-0.8,0.3l-0.8,0.1l-0.8,0.1l-0.9,0l-0.9,0l-0.8-0.1l-0.8-0.1l-0.8-0.3l-0.8-0.3
	l-0.8-0.3l-0.8-0.3l-0.8-0.3l-0.8-0.3l-0.8-0.4l-0.8-0.4l-0.8-0.4l-0.8-0.4"/>
<path id="SvgjsPath1062" class="st0" d="M231.4,70.2l0.3-0.1l0.3-0.1l0.3-0.1l0.3,0l0.3,0l0.3,0l0.3,0l0.3,0l0.3,0l0.3,0l0.3,0
	l0.3,0l0.3,0l0.3,0l0.3,0.2l0.3,0.2l0.3,0.2l0.3,0.2l0.2,0.3l0.2,0.3l0.2,0.3l0.2,0.3l0.1,0.4l0.1,0.4l0,0.4l0,0.4l0,0.4l0,0.4
	l0,0.8"/>
<path id="SvgjsPath1063" class="st0" d="M209.2,85.9l0.7,0.9l0.7,0.9l0.8,0.7l0.8,0.6l0.9,0.4l0.9,0.3l1,0.2l1,0.1l1,0.1l1,0l1,0
	l1-0.1l1-0.1l1-0.1l1-0.1l1-0.1l1-0.1l1-0.2l1-0.2l1-0.2l1-0.2l1-0.3l0.9-0.4l0.9-0.5l0.8-0.6l0.8-0.8l0.6-1l0.5-1l0.3-1.1l0.3-1.2"
	/>
<path id="SvgjsPath1064" class="st0" d="M231.1,71.6l0.8-0.4l0.9-0.4l0.9-0.3l0.9-0.3l0.9-0.2l0.9-0.1l0.9,0.1l0.9,0.4l0.7,0.6
	l0.6,0.9l0.3,1.1l0,1.1l-0.3,1.1l-0.4,1l-0.5,0.9L238,78l-0.5,1l-0.4,1l-0.2,1.1l-0.3,1.1l-0.4,1l-0.5,1l-0.5,0.9l-0.6,0.8l-0.7,0.7
	l-0.7,0.7l-0.8,0.5l-0.8,0.5l-0.9,0.4l-0.9,0.3"/>
<path id="SvgjsPath1065" class="st0" d="M214.1,79.5l-0.2,0.2l-0.2,0.2l-0.2,0.2l-0.2,0.2l-0.2,0.2l-0.2,0.2l-0.2,0.2l-0.2,0.2
	l-0.2,0.2l-0.2,0.2l-0.2,0.2l-0.2,0.1l-0.2,0.2l-0.2,0.2l-0.2,0.2l-0.2,0.2l-0.2,0.2l-0.2,0.2l-0.2,0.2l-0.2,0.2l-0.2,0.2l-0.2,0.2
	l-0.1,0.3l-0.1,0.3l-0.1,0.3l-0.1,0.3l0,0.3l0,0.3l-0.1,0.6"/>
<path id="SvgjsPath1066" class="st0" d="M209.4,50.4l-0.4,0.9l-0.4,0.9l-0.4,0.9l-0.4,0.9l-0.4,0.9l-0.4,0.9l-0.4,0.9l-0.4,0.9
	l-0.4,0.9l-0.4,0.9l-0.4,0.9l-0.5,0.9l-0.5,0.9l-0.5,0.9l-0.5,0.9l-0.5,0.9l-0.5,0.9l-0.5,0.9l-0.5,0.9l-0.5,0.9l-0.5,0.9l-0.5,0.9
	l-0.5,0.8l-0.6,0.8l-0.7,0.7l-0.7,0.6l-0.8,0.5l-0.8,0.5l-0.8,0.5l-0.8,0.5l-0.8,0.4"/>
<path id="SvgjsPath1067" class="st0" d="M209,51.8l-0.4,0.8l-0.4,0.8l-0.4,0.8l-0.4,0.8l-0.4,0.8l-0.4,0.8l-0.4,0.8l-0.4,0.8
	l-0.4,0.8l-0.4,0.8l-0.4,0.8l-0.4,0.8l-0.4,0.8l-0.4,0.8l-0.4,0.8l-0.4,0.8l-0.4,0.8l-0.4,0.8l-0.4,0.8l-0.4,0.8l-0.4,0.8l-0.5,0.7
	l-0.5,0.7L199,71l-0.6,0.6l-0.6,0.5l-0.7,0.5l-0.7,0.5l-0.7,0.4l-0.7,0.4"/>
<path id="SvgjsPath1068" class="st0" d="M213.4,49.9l-0.3,1l-0.3,1l-0.3,1l-0.3,1l-0.3,1l-0.4,1l-0.4,1l-0.4,1l-0.4,1l-0.4,1l-0.4,1
	l-0.4,1l-0.4,1l-0.4,1l-0.4,1l-0.4,1l-0.4,1l-0.4,1l-0.4,1l-0.4,1l-0.4,1l-0.4,0.9l-0.4,0.9l-0.4,0.9l-0.5,0.9l-0.5,0.9l-0.5,0.9
	l-0.5,0.9l-0.5,0.9l-0.5,0.9"/>
<path id="SvgjsPath1069" class="st0" d="M212.7,52.2l-0.4,1.1l-0.4,1.1l-0.4,1.1l-0.4,1.1l-0.4,1.1l-0.4,1.1l-0.4,1.1l-0.4,1.1
	l-0.4,1.1l-0.4,1.1l-0.4,1.1l-0.4,1.1l-0.4,1.1l-0.4,1.1l-0.5,1l-0.5,1l-0.5,1l-0.5,1l-0.5,1l-0.5,1l-0.5,1l-0.5,1l-0.5,1l-0.4,1.1
	l-0.4,1.1l-0.4,1.1l-0.4,1.1l-0.4,1.1l-0.4,1.1l-0.4,1.1"/>
<path id="SvgjsPath1070" class="st0" d="M56.5,143.8l0,0.8l0,0.8l0.1,0.8l0.2,0.8l0.4,0.7l0.4,0.6l0.5,0.5l0.5,0.5l0.6,0.4l0.6,0.4
	l0.6,0.3l0.6,0.3l0.6,0.3l0.6,0.2l0.6,0.1l0.6,0.1l0.7,0.1l0.7,0l0.7,0l0.7,0l0.7-0.1l0.6-0.1l0.6-0.1l0.6-0.1l0.6-0.2l0.6-0.2
	l0.6-0.2l0.6-0.2l1.2-0.5"/>
<path id="SvgjsPath1071" class="st0" d="M57.1,121.6l-3,3l-3,3.1l-2.9,3.2l-2.6,3.6l-0.4,4.3l2.4,3.6l2.3,3.8l2.4,3.6l3.9,0l3.9,0.5
	l3.6,1.7l3.6,1.5l3.8-0.4l3.5-1.9l3.4-2.3l3.4-2.3l3-3l1.8-4.2l0.8-4.7l0.5-4.8l0.2-4.8l-0.8-4.7l-2.2-3.9l-2.7-3.4l-2.9-3.1l-2.2-4
	l-0.8-4.4l0.3-4.8l-1-4.6L73,88.6l-3.2-2.7"/>
<path id="SvgjsPath1072" class="st0" d="M79.9,111.7l1,0.7l1,0.8l1,0.8l1,0.8l1,0.9l0.9,1l0.8,1.1l0.7,1.2l0.6,1.3l0.4,1.4l0.2,1.5
	l0.1,1.5l0,1.5l-0.2,1.5l-0.3,1.5l-0.4,1.4l-0.5,1.4l-0.6,1.3l-0.6,1.3l-0.6,1.3l-0.6,1.3l-0.6,1.3l-0.6,1.3l-0.6,1.3l-0.6,1.3
	l-0.6,1.3l-0.6,1.3l-0.6,1.3l-0.6,1.3l-0.6,1.3"/>
<path id="SvgjsPath1073" class="st0" d="M48.6,130.2l-0.7,0.5l-0.7,0.6l-0.6,0.6l-0.6,0.7l-0.5,0.8l-0.4,0.9l-0.3,0.9l-0.3,1l-0.2,1
	l-0.1,1l0,1l0.1,1l0.2,1l0.3,0.9l0.4,0.9l0.6,0.7l0.6,0.6l0.7,0.5l0.7,0.4l0.8,0.3l0.8,0.2l0.8,0.1l0.8-0.1l0.8-0.2l0.8-0.2l0.8-0.3
	l0.8-0.3l0.8-0.3l0.8-0.3l0.8-0.3"/>
<path id="SvgjsPath1074" class="st0" d="M48.5,108.9l0,0.6l0,0.6l0,0.6l0,0.6l0,0.6l0,0.6l0,0.6l0,0.6l0.2,0.6l0.2,0.6l0.3,0.5
	l0.3,0.5l0.4,0.4l0.4,0.4l0.4,0.3l0.4,0.3l0.4,0.3l0.4,0.3l0.5,0.2l0.5,0.2l0.5,0.2l0.5,0.2l0.4,0.3l0.4,0.3l0.4,0.3l0.4,0.3
	l0.4,0.4l0.4,0.4l0.4,0.4l0.4,0.4"/>
<path id="SvgjsPath1075" class="st0" d="M70.2,86.3L68.6,86L67,85.7l-1.6-0.2l-1.6-0.2l-1.6-0.1L60.4,85l-1.6,0.1l-1.6,0.2l-1.6,0.3
	L53.9,86l-1.6,0.6l-1.5,0.7L49.2,88l-1.5,0.9l-1.5,0.9l-1.5,0.9l-1.5,0.9l-1.2,1.4l-1.1,1.5l-0.8,1.8l-0.7,1.8l-0.3,2l0.1,1.9
	L40,104l1,1.6l1.2,1.4l1.5,0.9l1.5,0.7l1.6,0.2l1.6,0.2"/>
<path id="SvgjsPath1076" class="st0" d="M70.2,87.7l-1.1-0.4L67.9,87l-1.2-0.3l-1.2-0.3l-1.2-0.2L63.3,86l-1.2-0.2L61,85.6l-1.2-0.1
	l-1.2-0.1l-1.2,0l-1.2,0l-1.2,0.1l-1.2,0.1l-1.2,0.2L51.6,86l-1.2,0.2l-1.2,0.3l-1.1,0.4L47,87.3l-1.1,0.6l-1,0.7l-1,0.8l-1,0.8
	l-0.9,1l-0.7,1.2l-0.4,1.3l-0.1,1.4l0.2,1.4l0.4,1.4"/>
<path id="SvgjsPath1077" class="st0" d="M40.7,97.4l-0.2,0.8L40.3,99l-0.2,0.8l-0.2,0.8l-0.1,0.8l-0.1,0.8l0,0.8l0,0.8l0.1,0.8
	l0.2,0.8l0.3,0.8l0.3,0.7l0.4,0.7l0.5,0.6l0.5,0.6l0.5,0.5l0.5,0.5l0.6,0.5l0.6,0.5l0.6,0.4l0.6,0.4l0.6,0.4l0.6,0.4l0.6,0.4
	l0.6,0.3l0.6,0.3l0.6,0.3l0.6,0.3l0.7,0.3l0.7,0.3"/>
<path id="SvgjsPath1078" class="st0" d="M96.5,114.4l0.4,0.7l0.4,0.7l0.5,0.7l0.5,0.6l0.6,0.5l0.6,0.5l0.7,0.3l0.7,0.3l0.7,0.2
	l0.7,0.2l0.7,0l0.7,0l0.7-0.1l0.7-0.1l0.7-0.2l0.7-0.2l0.7-0.2l0.7-0.2l0.7-0.2l0.7-0.2l0.7-0.2l0.7-0.2l0.7-0.3l0.7-0.3l0.7-0.2
	l0.7-0.2l0.7-0.1l0.7-0.1l1.4-0.1"/>
<path id="SvgjsPath1079" class="st0" d="M95.5,112.2l-0.2,1.6l0,1.6l0.4,1.5l0.9,1.1l1.1,0.8l1.2,0.5l1.3,0.3l1.3,0.2l1.3,0.1
	l1.3-0.1l1.3-0.1l1.3-0.1l1.3-0.3l1.2-0.4l1.2-0.5l1.2-0.6l1.2-0.6l1.1-0.7l1.1-0.8l1.1-0.9l1.1-0.9l1.1-0.9l1.3-0.3l1.2-0.4
	l1.2-0.6l1.1-0.9l1-1l0.9-1.2l0.8-1.2l0.7-1.3"/>
<path id="SvgjsPath1080" class="st0" d="M119.5,92.3l-0.6-0.4l-0.6-0.4l-0.7-0.2l-0.7-0.2l-0.7,0l-0.7,0l-0.6,0.3l-0.6,0.3l-0.6,0.4
	l-0.6,0.4l-0.6,0.4l-0.6,0.4l-0.6,0.4l-0.6,0.4l-0.5,0.5l-0.5,0.5l-0.5,0.5l-0.5,0.5l-0.5,0.6l-0.5,0.6l-0.4,0.6l-0.4,0.7l-0.4,0.7
	l-0.4,0.7l-0.3,0.7l-0.3,0.7l-0.3,0.8l-0.2,0.8l-0.4,1.6"/>
<path id="SvgjsPath1081" class="st0" d="M104.4,104.9L104,105l-0.4,0.1l-0.4,0.1l-0.4,0.1l-0.4,0.2l-0.4,0.2l-0.3,0.2l-0.3,0.2
	l-0.3,0.3l-0.3,0.3l-0.3,0.3l-0.3,0.3l-0.3,0.3l-0.3,0.3l-0.3,0.3l-0.3,0.3l-0.3,0.3l-0.3,0.3l-0.3,0.4l-0.3,0.4l-0.3,0.4l-0.3,0.4
	l-0.2,0.4l-0.2,0.4l-0.2,0.4l-0.2,0.4l-0.1,0.5l-0.1,0.5l0,1"/>
<path id="SvgjsPath1082" class="st0" d="M113.2,96.5l-0.7-0.5l-0.7-0.4l-0.8-0.2l-0.8,0.1l-0.8,0.2l-0.7,0.4l-0.7,0.5l-0.7,0.6
	l-0.6,0.6l-0.6,0.7l-0.6,0.7l-0.5,0.7l-0.5,0.7l-0.5,0.8l-0.5,0.8l-0.4,0.8l-0.3,0.9l-0.3,0.9l-0.3,0.9l-0.4,0.9l-0.6,0.7l-0.6,0.6
	l-0.7,0.4l-0.7,0.4l-0.7,0.5l-0.7,0.5l-0.6,0.6l-0.6,0.6l-0.6,0.7l-0.6,0.7"/>
<path id="SvgjsPath1083" class="st0" d="M116.1,116.1l0.3,0.2l0.3,0.2l0.3,0.1l0.3,0.1l0.4-0.1l0.3-0.1l0.3-0.2l0.3-0.2l0.3-0.2
	l0.3-0.2l0.3-0.2l0.3-0.3l0.3-0.3l0.3-0.3l0.3-0.3l0.2-0.3l0.2-0.3l0.2-0.3l0.2-0.3l0.2-0.3l0.2-0.4l0.2-0.4l0.2-0.4l0.2-0.4
	l0.2-0.4l0.2-0.4l0.2-0.4l0.2-0.4l0.4-0.7"/>
<path id="SvgjsPath1084" class="st0" d="M133,99.6l0.4,0.4l0.4,0.5l0.2,0.6l0.1,0.6l-0.1,0.7l-0.2,0.6l-0.3,0.5l-0.4,0.5l-0.4,0.5
	l-0.4,0.5l-0.4,0.5l-0.4,0.5l-0.4,0.4l-0.4,0.4l-0.4,0.4l-0.4,0.4l-0.5,0.4l-0.5,0.4l-0.5,0.3l-0.5,0.3l-0.5,0.3l-0.5,0.3l-0.5,0.2
	l-0.5,0.2l-0.5,0.2l-0.5,0.2l-0.5,0.1l-0.5,0.1l-0.5,0.1l-0.5,0.1"/>
<path id="SvgjsPath1085" class="st0" d="M118.8,93.7l0.7-0.8l0.7-0.8l0.7-0.8l0.7-0.7l0.8-0.7l0.8-0.6l0.8-0.5l0.8-0.5l0.9-0.4
	l0.9-0.3l0.9-0.3l0.9-0.2l0.9-0.1l0.9,0l0.9,0.1l0.9,0.2l0.9,0.2l0.9,0.3l0.8,0.6l0.7,0.8l0.6,0.9l0,1.2l-0.1,1.1l-0.2,1.1l-0.3,1.1
	l-0.4,1.1l-0.4,1l-0.5,1l-0.5,1l-0.5,1"/>
<path id="SvgjsPath1086" class="st0" d="M122.1,92.8l-0.3-0.2l-0.3-0.2l-0.3-0.1l-0.3-0.1l-0.4-0.1l-0.4-0.1l-0.4,0l-0.4,0l-0.3,0.1
	l-0.3,0.1l-0.3,0.1l-0.3,0.1l-0.3,0.2l-0.3,0.2l-0.3,0.2l-0.3,0.2l-0.3,0.2l-0.3,0.2l-0.3,0.3l-0.3,0.3l-0.3,0.3l-0.3,0.3l-0.3,0.3
	l-0.3,0.3l-0.3,0.3l-0.3,0.3l-0.2,0.3l-0.2,0.3l-0.2,0.3l-0.2,0.3"/>
<path id="SvgjsPath1087" class="st0" d="M151.8,45.7l-0.4,0.8l-0.4,0.8l-0.4,0.8l-0.3,0.9l-0.3,0.9l-0.2,0.9l-0.2,1l-0.1,1l-0.1,1
	l-0.1,1l0,1l0,1l0,1l0.1,1l0.1,1l0.2,1l0.2,0.9l0.3,0.9l0.4,0.8l0.5,0.7l0.6,0.5l0.6,0.4l0.6,0.4l0.6,0.2l0.7,0l0.7-0.1l0.7-0.2
	l0.6-0.2l0.6-0.3l0.6-0.3"/>
<path id="SvgjsPath1088" class="st0" d="M152.4,49.9l0.1,2.4l0.3,2.4l0.4,2.3l0.7,2.2l0.9,2.1l1.1,2l1.3,1.7l1.7,1.1l1.8,0.8
	l1.9,0.4l1.9,0.2l1.9,0l1.9-0.1l1.9-0.3l1.9-0.4l1.9-0.4l1.9-0.4l1.9-0.4l1.9-0.3l1.9-0.2l1.9,0l1.9,0.3L187,66l1.8,0.8l1.7,1
	l1.6,1.3l1.4,1.7l1.1,2l0.8,2.2l0.5,2.3"/>
<path id="SvgjsPath1089" class="st0" d="M152.7,48.1l-0.5,2.2l-0.2,2.3l0.2,2.3l0.6,2.1l0.9,2l1.1,1.8l1.2,1.7l1.3,1.6l1.4,1.4
	l1.6,1.2l1.7,0.8l1.8,0.4l1.8,0.1l1.8,0.1l1.8,0.1l1.8-0.1l1.8-0.3l1.8-0.3l1.8-0.3l1.8-0.2l1.8-0.2l1.8-0.2l1.8-0.3l1.8-0.3l1.8,0
	l1.7,0.8l1.6,1.2l0.9,2l0.7,2.1l0.3,2.2"/>
<path id="SvgjsPath1090" class="st0" d="M217.8,90.1l-0.2,1.1l-0.2,1.1l-0.3,1.1l-0.3,1.1l-0.3,1.1l-0.3,1.1l-0.3,1.1l-0.3,1.1
	l-0.4,1.1l-0.4,1.1l-0.4,1.1l-0.3,1.1l-0.3,1.1l-0.3,1.1l-0.3,1.1l-0.3,1.1l-0.3,1.1l-0.2,1.1l-0.2,1.2l-0.2,1.2l-0.2,1.2l-0.2,1.2
	l-0.1,1.2l-0.1,1.2l-0.1,1.2l0,1.2l0.1,1.2l0.2,1.2l0.3,1.1l0.3,1.1"/>
<path id="SvgjsPath1091" class="st0" d="M217.8,88.2l-0.1,1.3l-0.2,1.3l-0.2,1.3l-0.3,1.3l-0.3,1.2l-0.4,1.2l-0.4,1.2l-0.4,1.2
	l-0.5,1.2l-0.5,1.2l-0.5,1.2l-0.5,1.2l-0.4,1.2l-0.4,1.2l-0.4,1.2l-0.3,1.3l-0.3,1.3l-0.3,1.3l-0.3,1.3L211,113l-0.2,1.3l-0.2,1.3
	l-0.2,1.3l-0.2,1.3l-0.1,1.3l-0.1,1.3l-0.1,1.3l-0.1,1.3l0,1.3l0,1.3"/>
<path id="SvgjsPath1092" class="st0" d="M200.2,82.7l0,1.3l0,1.3l0,1.3l0,1.3l0,1.3l-0.1,1.3l-0.1,1.3l-0.2,1.3l-0.2,1.3l-0.3,1.2
	l-0.4,1.2l-0.4,1.2l-0.4,1.2l-0.4,1.2l-0.4,1.2l-0.4,1.2l-0.5,1.2l-0.5,1.2l-0.5,1.2l-0.5,1.1l-0.5,1.1l-0.5,1.1l-0.5,1.1l-0.6,1.1
	l-0.6,1.1l-0.6,1.1l-0.6,1.1l-0.6,1l-0.6,1l-0.6,1"/>
<path id="SvgjsPath1093" class="st0" d="M199.8,81.8l0.2,1.1l0.2,1.1l0.1,1.1l0.1,1.1l0.1,1.1l0.1,1.1l0,1.1l0,1.1l0,1.1l-0.1,1.1
	l-0.1,1.1l-0.2,1.1l-0.2,1.1l-0.2,1.1l-0.3,1.1l-0.3,1.1l-0.3,1.1l-0.3,1.1l-0.3,1.1l-0.4,1.1l-0.4,1.1l-0.4,1l-0.4,1l-0.4,1l-0.4,1
	l-0.4,1l-0.4,1l-0.4,1l-0.4,1l-0.4,1"/>
<path id="SvgjsPath1094" class="st0" d="M198,99.3l-0.6,1.5l-0.6,1.4l-0.7,1.4l-0.8,1.3l-0.8,1.3l-0.9,1.2l-0.9,1.2l-0.9,1.2
	l-0.9,1.1l-1,1.1l-1,1.1l-1,1.1l-1,1.1l-1,1.1l-1,1.1l-1,1.1l-1,1.1l-1,1.1l-1,1l-1,1l-1,1l-1,1l-1,1l-1.1,1l-1.1,1l-1.1,1l-1.1,1
	l-1.1,0.9l-1.1,0.9l-1.1,0.9"/>
<path id="SvgjsPath1095" class="st0" d="M194.7,107.6l-1.3,1.1l-1.2,1.2l-1.2,1.2l-1.2,1.2l-1.2,1.2l-1.2,1.2l-1.2,1.3l-1.2,1.2
	l-1.2,1.2l-1.2,1.2l-1.2,1.2l-1.2,1.2l-1.2,1.2l-1.2,1.2l-1.2,1.2l-1.2,1.2l-1.2,1.2l-1.2,1.2l-1.2,1.2l-1.2,1.3l-1.1,1.4l-1,1.5
	l-0.9,1.6l-0.9,1.6l-0.8,1.6l-0.8,1.7l-0.7,1.7l-0.7,1.7l-0.7,1.7l-0.8,1.7"/>
<path id="SvgjsPath1096" class="st0" d="M186.2,115.5l-0.9,0.8l-0.9,0.8l-0.9,0.9l-0.9,0.9l-0.9,0.9l-0.8,1l-0.8,1l-0.8,1l-0.8,1
	l-0.8,1l-0.8,1l-0.8,1l-0.8,1l-0.8,1l-0.8,1l-0.8,1l-0.8,1.1l-0.7,1.1l-0.7,1.1l-0.7,1.2l-0.6,1.2l-0.6,1.2l-0.6,1.2l-0.6,1.2
	l-0.5,1.3l-0.5,1.3l-0.5,1.3l-0.5,1.3l-0.5,1.3l-0.5,1.3"/>
<path id="SvgjsPath1097" class="st0" d="M168.8,133.4l-0.5,0.6l-0.5,0.6l-0.5,0.6l-0.5,0.6l-0.5,0.6L166,137l-0.4,0.6l-0.4,0.6
	l-0.4,0.6l-0.4,0.7l-0.4,0.7l-0.4,0.7l-0.4,0.7l-0.3,0.7l-0.3,0.7l-0.3,0.7l-0.3,0.7l-0.3,0.7l-0.3,0.7l-0.2,0.7l-0.2,0.7l-0.2,0.7
	l-0.2,0.7l-0.2,0.7l-0.2,0.7l-0.2,0.7l-0.3,0.7l-0.3,0.7l-0.3,0.7l-0.3,0.7"/>
<path id="SvgjsPath1098" class="st0" d="M117.6,113.1l-0.7,1.2l-0.6,1.2l-0.6,1.3l-0.6,1.3l-0.5,1.3l-0.5,1.4l-0.4,1.4l-0.3,1.4
	l-0.3,1.4l-0.2,1.4l-0.2,1.5l-0.1,1.5l-0.1,1.5l0,1.5l0,1.5l0.1,1.5l0.2,1.5l0.3,1.4l0.5,1.4l0.5,1.3l0.6,1.3l0.7,1.2l0.8,1.1l0.9,1
	l0.9,0.9l1,0.9l1,0.8l1.1,0.6l1.1,0.5l1.1,0.4"/>
<path id="SvgjsPath1099" class="st0" d="M113.9,122.8l-0.2,1.4l-0.2,1.4l-0.1,1.4l-0.1,1.4l0,1.4l0.1,1.4l0.1,1.4l0.2,1.4l0.3,1.4
	l0.4,1.3l0.5,1.3l0.6,1.2l0.7,1.1l0.7,1.1l0.8,0.9l0.9,0.8l1,0.7l1.1,0.5l1.1,0.4l1.1,0.3l1.1,0.2l1.1,0.1l1.1,0l1.1,0l1.1-0.1
	l1.1-0.1l1.1-0.2l1.1-0.2l1.1-0.3l1.1-0.3"/>
<path id="SvgjsPath1100" class="st0" d="M116.5,143.1l0.4,0.3l0.4,0.3l0.4,0.3l0.4,0.3l0.4,0.3l0.4,0.3l0.5,0.2l0.5,0.2l0.5,0.2
	l0.5,0.2l0.5,0.2l0.5,0.2l0.5,0.1l0.5,0.1l0.5,0.1l0.5,0.1l0.5,0.1l0.5,0.1l0.5,0l0.5,0l0.5,0l0.5,0l0.5-0.1l0.5-0.1l0.5-0.1
	l0.5-0.1l0.5-0.2l0.5-0.2l0.9-0.4"/>
<path id="SvgjsPath1101" class="st0" d="M115.8,143.6l0.5,0.2l0.5,0.2l0.5,0.2l0.5,0.2l0.5,0.3l0.5,0.3l0.5,0.3l0.4,0.3l0.5,0.2
	l0.5,0.2l0.5,0.2l0.5,0.2l0.5,0.2l0.5,0.2l0.5,0.2l0.5,0.2l0.5,0.2l0.5,0.2l0.5,0.2l0.5,0.1l0.5,0.1l0.5,0.1l0.5,0.1l0.5,0.1l0.5,0
	h0.5l0.5,0l0.5,0l0.5,0l1-0.2"/>
<path id="SvgjsPath1102" class="st0" d="M168.3,118.6l-0.5,0.3l-0.5,0.3l-0.5,0.3l-0.5,0.3l-0.5,0.3l-0.5,0.3l-0.5,0.4l-0.5,0.4
	l-0.5,0.4l-0.5,0.4l-0.5,0.4l-0.5,0.4l-0.4,0.4l-0.4,0.4l-0.4,0.4l-0.4,0.4l-0.4,0.4l-0.4,0.4l-0.4,0.4l-0.4,0.4l-0.4,0.4l-0.4,0.4
	l-0.5,0.4l-0.5,0.4l-0.5,0.3l-0.5,0.3l-0.5,0.3l-0.5,0.3l-1,0.5"/>
<path id="SvgjsPath1103" class="st0" d="M167.4,119.6l-0.8,0.6l-0.8,0.6l-0.8,0.6l-0.8,0.6l-0.8,0.6l-0.8,0.6l-0.8,0.6l-0.8,0.7
	l-0.8,0.7l-0.8,0.7l-0.8,0.7l-0.8,0.7l-0.8,0.7l-0.8,0.7l-0.8,0.7l-0.8,0.6l-0.8,0.6l-0.8,0.6l-0.8,0.6l-0.8,0.6l-0.8,0.6l-0.8,0.6
	l-0.8,0.6l-0.8,0.6l-0.9,0.5l-0.9,0.5l-0.9,0.5l-0.9,0.5l-0.8,0.5l-0.8,0.5"/>
<path id="SvgjsPath1104" class="st0" d="M129.6,145.9l0.7-0.3l0.7-0.3l0.7-0.2l0.7-0.2l0.7-0.2l0.7-0.2l0.7-0.2l0.7-0.2l0.7-0.2
	l0.7-0.2l0.7-0.2l0.7-0.2l0.7-0.2l0.7-0.2l0.7-0.2l0.7-0.3l0.7-0.3l0.7-0.3l0.7-0.2l0.7-0.2l0.7-0.2l0.7-0.2l0.7-0.2l0.7-0.2
	l0.7-0.2l0.7-0.3l0.6-0.3l0.6-0.3l1.3-0.7"/>
<path id="SvgjsPath1105" class="st0" d="M133.7,143.6l0.9-0.1l0.9-0.1l0.9-0.1l0.9-0.2l0.8-0.2l0.8-0.2l0.8-0.2l0.8-0.3l0.8-0.3
	l0.8-0.3l0.8-0.3l0.8-0.3l0.8-0.3l0.8-0.3l0.8-0.4l0.8-0.4l0.8-0.4l0.8-0.4l0.8-0.4l0.8-0.4l0.8-0.4l0.8-0.4l0.8-0.4l0.8-0.4
	l0.8-0.4l0.8-0.5l0.8-0.5l0.7-0.5l0.7-0.6l0.7-0.6"/>
<path id="SvgjsPath1106" class="st0" d="M128.9,63.2L129,64l0.1,0.8l0.1,0.8l0.1,0.8l0.1,0.8l0.1,0.8l0,0.8l0,0.8l0,0.8l0,0.8l0,0.8
	l0,0.8l0,0.8l0,0.8l0,0.8l0,0.8l0.1,0.8l0.1,0.8l0.1,0.8l0.1,0.8l0.2,0.8l0.2,0.8l0.1,0.8l0.1,0.8l0.1,0.8l0.1,0.8l0.1,0.8l0.1,0.8
	l0.2,1.6"/>
<path id="SvgjsPath1107" class="st0" d="M128.9,63.7l0,0.8l0,0.8l0,0.8l0,0.8l0,0.8l0,0.8l0,0.8l0,0.8l0.1,0.8l0.1,0.8l0.1,0.8
	l0.1,0.8l0.1,0.8l0.1,0.8l0.1,0.8l0.1,0.8l0,0.8l0,0.8l0,0.8l0,0.8l0,0.8l0,0.8l0,0.8l0,0.8l0.1,0.8l0.1,0.8l0.2,0.8l0.2,0.8
	l0.6,1.5"/>
<path id="SvgjsPath1108" class="st0" d="M221.5,87.3l-0.4,1.1l-0.4,1.1l-0.4,1.1l-0.4,1.1l-0.4,1.1l-0.4,1.1l-0.3,1.1l-0.3,1.1
	l-0.3,1.1l-0.3,1.2l-0.3,1.2l-0.3,1.2l-0.3,1.2l-0.3,1.2l-0.3,1.2l-0.3,1.2l-0.3,1.2l-0.3,1.2l-0.2,1.2l-0.2,1.2l-0.2,1.2l-0.1,1.2
	l-0.1,1.2l0,1.2l0,1.2l0.1,1.2l0.2,1.2l0.3,1.2l0.3,1.2l0.4,1.1"/>
<path id="SvgjsPath1109" class="st0" d="M134.8,50.8l0,1.3l0,1.3l0,1.3l0,1.3l0,1.3l0,1.3l0,1.3l0,1.3l0,1.3l0,1.3l0,1.3l0,1.3
	l0,1.3l0,1.3l0,1.3l0,1.3l0,1.3l0,1.3l0,1.3l0,1.3l0,1.3l0,1.3l0,1.3l0,1.3l0,1.3l0,1.3l0,1.3l0,1.3l0,1.3l0,1.3l0,1.3"/>
<path id="SvgjsPath1110" class="st0" d="M151.6,191.6l0.6-0.8l0.6-0.9l0.5-0.9l0.4-1l0.4-1l0.3-1l0.2-1.1l0.1-1.1l0-1.1l0-1.1
	l-0.1-1.1l-0.2-1.1l-0.3-1.1l-0.3-1l-0.3-1l-0.3-1l-0.3-1l-0.3-1l-0.3-1l-0.3-1l-0.3-1l-0.4-1l-0.4-1l-0.5-0.9l-0.5-0.9l-0.6-0.8
	l-0.7-0.7L148,164l-0.8-0.6l-0.8-0.5"/>
<path id="SvgjsPath1111" class="st0" d="M153.1,189.3l0.7-0.9l0.6-1l0.6-1.1l0.4-1.2l0.3-1.2l0.1-1.3l0-1.3l-0.1-1.3l-0.2-1.3
	l-0.3-1.2l-0.4-1.2l-0.4-1.2l-0.5-1.1l-0.6-1.1l-0.6-1l-0.6-1l-0.6-1l-0.6-1l-0.7-1l-0.7-0.9l-0.8-0.9l-0.9-0.7l-0.9-0.7L146,164
	l-0.9-0.5l-1-0.5l-1-0.4l-1-0.4l-1-0.3l-1-0.3"/>
<path id="SvgjsPath1112" class="st0" d="M148.3,165.3l0.7,0.8l0.7,0.8l0.7,0.8l0.7,0.7l0.7,0.7l0.7,0.7l0.7,0.7l0.7,0.7l0.7,0.7
	l0.7,0.7l0.7,0.7l0.6,0.8l0.6,0.9l0.5,1l0.5,1l0.4,1l0.3,1.1l0.2,1.1l0.1,1.1l0,1.1l0,1.1l-0.1,1.1L159,186l-0.2,1.1l-0.3,1.1
	l-0.3,1.1l-0.4,1.1l-0.5,0.9l-0.6,0.9l-0.6,0.8"/>
<path id="SvgjsPath1113" class="st0" d="M150.5,169.4l-2.1-2.2l-2.3-2l-2.4-1.7l-2.5-1.4l-2.6-1.1l-2.7-0.9l-2.7-0.7l-2.7-0.5
	l-2.8-0.4l-2.8-0.3l-2.8-0.2l-2.8-0.1l-2.8,0l-2.8,0l-2.8,0.1l-2.8,0.3l-2.7,0.5l-2.7,0.7l-2.7,0.8l-2.7,0.8l-2.7,0.7l-2.7,0.7
	l-2.8,0.5l-2.8,0.3l-2.8-0.1l-2.6-1.1l-1.1-2.9l0.3-3.4l0.8-3.3l1.2-3.1"/>
<path id="SvgjsPath1114" class="st0" d="M81.4,163.2l0.1,0.2l0.1,0.2l0.2,0.1l0.2,0.1l0.2,0.1l0.2,0.1l0.2,0.1l0.2,0.1l0.2,0.1
	l0.2,0.1l0.2,0.1l0.2,0.1l0.2,0.1l0.2,0l0.2,0l0.2,0l0.2,0l0.2,0l0.2,0l0.2,0l0.2,0l0.2,0l0.2,0h0.2l0.2,0l0.2,0l0.2,0l0.2,0l0.2,0
	l0.4,0"/>
<path id="SvgjsPath1115" class="st0" d="M84.8,165.7l1.1-0.3l1.1-0.3l1.1-0.3l1.1-0.3l1.1-0.3l1.1-0.3l1.1-0.3l1.1-0.3l1.1-0.3
	l1.1-0.3l1.1-0.3l1.1-0.3L99,162l1.1-0.3l1.1-0.4l1.1-0.4l1.1-0.4l1.1-0.4l1.1-0.4l1.1-0.3l1.1-0.3l1.1-0.2l1.1-0.1l1.1-0.1l1.1-0.1
	l1.1,0l1.1,0l1.1,0l1.1,0l1.1,0"/>
<path id="SvgjsPath1116" class="st0" d="M155.7,184.8l-4.3,3.4l-4.2,3.4l-4.1,3.5l-3.9,3.6l-3.6,3.8l-3.4,3.9l-3.2,4l-3,4l-2.9,4.1
	l-2.7,4.2l-2.6,4.2l-2.5,4.2l-2.4,4.3l-2.3,4.3l-2.2,4.3l-2.1,4.4l-2,4.4l-1.9,4.4l-1.7,4.4l-1.6,4.5l-1.5,4.5l-1.4,4.5l-1.3,4.5
	l-1.1,4.6l-1,4.6l-0.9,4.6l-0.7,4.6l-0.6,4.6l-0.4,4.6l-0.3,4.6"/>
<path id="SvgjsPath1117" class="st0" d="M152.6,184.2l-4.2,3.1l-4.1,3.2l-3.9,3.3l-3.8,3.4l-3.6,3.4l-3.5,3.5l-3.4,3.6l-3.2,3.7
	l-3.1,3.7l-2.9,3.8l-2.8,3.9l-2.7,3.9l-2.5,4l-2.4,4l-2.3,4l-2.2,4.1l-2,4.1l-1.9,4.2l-1.7,4.2l-1.5,4.2l-1.3,4.3l-1.1,4.3l-0.8,4.3
	l-0.6,4.4l-0.4,4.4l-0.1,4.4l0.2,4.4l0.3,4.4l0.3,4.4l0.3,4.4"/>
<path id="SvgjsPath1118" class="st0" d="M148.5,182.5l-3.7,3.8l-3.7,3.8l-3.6,3.8l-3.6,3.9l-3.5,3.9l-3.3,4l-3.2,4l-3,4.1l-2.8,4.2
	l-2.7,4.2l-2.7,4.2l-2.6,4.3l-2.6,4.3l-2.4,4.3l-2.3,4.4l-2.2,4.4l-2,4.5l-1.8,4.5l-1.6,4.5l-1.6,4.5l-1.5,4.6l-1.4,4.6l-1.3,4.6
	l-1.2,4.6l-1,4.6l-0.9,4.6l-0.7,4.7l-0.4,4.7l-0.4,4.7l-0.4,4.7l-0.5,4.7"/>
<path id="SvgjsPath1119" class="st0" d="M84.8,138.9l-0.3,0.8l-0.3,0.8l-0.3,0.8l-0.3,0.8l-0.2,0.8l-0.2,0.8l-0.2,0.8l-0.2,0.8
	l-0.2,0.8l-0.2,0.8l-0.2,0.8l-0.2,0.8l-0.2,0.8l-0.2,0.8l-0.2,0.8l-0.2,0.8l-0.2,0.8l-0.2,0.8l-0.2,0.8l-0.2,0.8l-0.2,0.8l-0.2,0.8
	l-0.1,0.8l-0.1,0.8l-0.2,0.8l-0.2,0.8l-0.2,0.8l-0.2,0.8l-0.5,1.5"/>
<path id="SvgjsPath1120" class="st0" d="M82.6,143.6l-0.3,0.6l-0.3,0.6l-0.3,0.6l-0.2,0.6l-0.2,0.6l-0.2,0.6l-0.2,0.7l-0.2,0.7
	l-0.1,0.7l-0.1,0.7l-0.1,0.7l-0.1,0.7l-0.1,0.7l-0.1,0.7l0,0.7l0,0.7l0,0.7l0,0.7l0,0.7l0,0.7l0,0.7l0,0.7l0,0.7l0.1,0.7l0.1,0.7
	l0.1,0.7l0.2,0.6l0.2,0.6l0.6,1.2"/>
<path id="SvgjsPath1121" class="st0" d="M85,155.5l0.1,0.2l0.1,0.2l0.2,0.2l0.2,0.2l0.2,0.2l0.2,0.2l0.2,0.2l0.2,0.2l0.2,0.2
	l0.2,0.2l0.2,0.1l0.2,0.1l0.2,0.1l0.2,0.1l0.2,0l0.2,0l0.2,0l0.2,0l0.2,0l0.2,0l0.2-0.1l0.2-0.1l0.2-0.1l0.2-0.1l0.2-0.1l0.2-0.1
	l0.2-0.1l0.2-0.1l0.4-0.2"/>
<path id="SvgjsPath1122" class="st0" d="M87.4,158.3l0.9-0.3l1-0.3l1-0.3l1-0.3l1-0.3l1-0.2l1-0.2l1-0.2l1-0.3l0.9-0.4l0.9-0.4
	l0.9-0.4l0.9-0.4l0.9-0.4l0.9-0.3l1-0.3l1-0.3l1-0.3l1-0.3l1-0.2l1-0.2l1-0.2l1-0.2l1-0.2l1-0.2l1-0.2l1-0.3l1-0.3l1-0.3l1-0.3"/>
<path id="SvgjsPath1123" class="st0" d="M85.9,120.9l0.1,1.2l0.1,1.2l0.1,1.2l0,1.2l0,1.2l0,1.2l-0.1,1.2l-0.1,1.2l-0.1,1.2
	l-0.1,1.2l-0.1,1.2l-0.1,1.2l-0.2,1.2l-0.2,1.2l-0.2,1.1l-0.2,1.1l-0.2,1.1l-0.2,1.1l-0.2,1.2l-0.1,1.2l-0.1,1.2l-0.1,1.2l-0.1,1.2
	l-0.1,1.2l0,1.2l0,1.2l0.1,1.2l0.2,1.1l0.3,1.1l0.4,1.1"/>
<path id="SvgjsPath1124" class="st0" d="M117.6,112.6l-1.1,1l-1.1,1l-1.1,1.1l-1.1,1.1l-1,1.1l-1,1.2l-1,1.2l-0.9,1.2l-0.9,1.3
	l-0.9,1.3l-0.8,1.4l-0.7,1.4l-0.7,1.5l-0.6,1.5l-0.5,1.6l-0.4,1.6l-0.3,1.7l-0.1,1.7l0,1.7l0.2,1.7l0.4,1.6l0.5,1.6l0.7,1.5l0.8,1.4
	l0.9,1.3l1,1.1l1.2,0.9l1.2,0.7l1.3,0.5l1.4,0.2"/>
<path id="SvgjsPath1125" class="st0" d="M112.8,113.6l-0.8,1.4l-0.7,1.4l-0.7,1.4l-0.7,1.4l-0.6,1.5l-0.6,1.5l-0.6,1.5l-0.5,1.5
	l-0.5,1.5l-0.5,1.5l-0.5,1.6l-0.4,1.6l-0.4,1.6l-0.4,1.6l-0.3,1.6l-0.3,1.6l-0.2,1.6l-0.1,1.6l0,1.6l0.1,1.6l0.2,1.6l0.4,1.6
	l0.4,1.6l0.6,1.5l0.7,1.4l0.9,1.2l1.1,0.9l1.3,0.5l1.3,0.1l1.3-0.2"/>
<path id="SvgjsPath1126" class="st0" d="M96.7,73.9l0.6,0.5l0.6,0.5l0.6,0.5l0.6,0.5l0.6,0.5l0.7,0.5l0.7,0.5l0.7,0.4l0.7,0.4
	l0.7,0.4l0.7,0.4l0.7,0.4l0.7,0.4l0.7,0.4l0.7,0.4l0.7,0.4l0.7,0.4l0.7,0.4l0.7,0.3l0.7,0.3l0.7,0.3l0.7,0.3l0.7,0.3l0.7,0.3
	l0.7,0.3l0.7,0.4l0.7,0.4l0.7,0.4l0.7,0.5l0.6,0.5"/>
<path id="SvgjsPath1127" class="st0" d="M99.7,75.2l0.7,0.5l0.7,0.5l0.7,0.5l0.7,0.5l0.7,0.5l0.7,0.5l0.7,0.5l0.7,0.5l0.7,0.5
	l0.7,0.5l0.7,0.5l0.7,0.5l0.7,0.5l0.7,0.5l0.7,0.5l0.7,0.5l0.7,0.5l0.7,0.5l0.7,0.5l0.7,0.5l0.7,0.5l0.7,0.5l0.6,0.5l0.6,0.6
	l0.6,0.6l0.6,0.6l0.6,0.6l0.6,0.6l0.6,0.6l0.6,0.6"/>
<path id="SvgjsPath1128" class="st0" d="M106.8,74.3l0.4,0.3l0.4,0.3l0.4,0.3l0.4,0.3l0.4,0.3l0.4,0.3l0.4,0.3l0.4,0.3l0.4,0.3
	l0.4,0.3l0.4,0.3l0.4,0.3l0.4,0.3l0.4,0.3l0.4,0.3l0.4,0.3l0.4,0.3l0.4,0.3l0.4,0.3l0.4,0.3l0.4,0.3l0.4,0.3l0.4,0.4l0.4,0.4
	l0.4,0.3l0.4,0.3l0.4,0.3l0.4,0.3l0.9,0.6"/>
<path id="SvgjsPath1129" class="st0" d="M107.6,73.9l0.6,0.5l0.6,0.5l0.6,0.5l0.6,0.5l0.6,0.5l0.6,0.5l0.6,0.5l0.6,0.5l0.6,0.5
	l0.6,0.5l0.6,0.5l0.6,0.5l0.6,0.5l0.6,0.5l0.6,0.6l0.6,0.6l0.5,0.6l0.5,0.6l0.5,0.6l0.5,0.7l0.5,0.7l0.5,0.6l0.5,0.6l0.6,0.6
	l0.6,0.6l0.6,0.5l0.6,0.6l0.6,0.6l1.1,1.1"/>
<path id="SvgjsPath1130" class="st0" d="M134.8,93.7l0,0.4l0,0.4L135,95l0.1,0.4l0.1,0.4l0.1,0.4l0.1,0.4l0.1,0.4l0.1,0.4l0.1,0.4
	l0.1,0.4l0.1,0.4L136,99l0.1,0.4l0.2,0.4l0.2,0.4l0.2,0.4l0.2,0.4l0.2,0.4l0.2,0.4l0.2,0.3l0.2,0.3l0.2,0.3l0.2,0.3l0.3,0.3l0.3,0.3
	l0.3,0.2l0.3,0.2l0.3,0.2l0.3,0.2"/>
<path id="SvgjsPath1131" class="st0" d="M134.5,93.7l0.1,0.3l0.1,0.3l0.1,0.3l0.1,0.3l0.1,0.3l0.1,0.3l0.2,0.3l0.1,0.3l0.2,0.3
	l0.2,0.3l0.2,0.3l0.2,0.3l0.2,0.3l0.2,0.3l0.2,0.3l0.2,0.3l0.2,0.3l0.2,0.3l0.2,0.3l0.2,0.3l0.2,0.3l0.2,0.3l0.2,0.3l0.1,0.3
	l0.2,0.3l0.2,0.3l0.2,0.2l0.2,0.2l0.2,0.2l0.2,0.2"/>
<path id="SvgjsPath1132" class="st0" d="M139.3,102.2l0.2,0.1l0.2,0.1l0.2,0.1l0.2,0.1l0.2,0.1l0.2,0.1l0.2,0.1l0.2,0.1l0.2,0l0.2,0
	l0.2,0l0.2,0l0.2,0l0.2,0l0.2,0l0.2,0l0.2,0l0.2,0l0.2,0l0.2,0l0.2,0l0.2,0l0.2,0l0.2,0l0.2,0l0.2,0l0.2,0l0.2,0l0.2,0l0.2,0"/>
<path id="SvgjsPath1133" class="st0" d="M137.4,102.5l0.8,0.3l0.8,0.3l0.8,0.2l0.8,0.2l0.8,0.2l0.8,0.1l0.8,0.1l0.8,0l0.8,0h0.8
	l0.8,0l0.8,0l0.8,0l0.8,0l0.8,0l0.8,0l0.8,0l0.8,0l0.8,0l0.8,0l0.8,0l0.8,0l0.8,0l0.8,0l0.8,0l0.8,0l0.8,0l0.8,0l0.8,0l0.8,0"/>
<path id="SvgjsPath1134" class="st0" d="M160.8,103.5l0.8,0l0.8,0l0.8,0l0.8,0l0.8,0l0.8,0l0.8,0l0.8,0l0.8,0l0.8,0l0.8,0l0.8,0
	l0.8,0l0.8,0l0.8,0l0.8-0.1l0.8-0.1l0.8-0.1l0.8-0.2l0.8-0.2l0.8-0.1l0.8-0.1l0.8-0.1l0.8-0.1l0.8-0.1l0.8-0.2l0.8-0.2l0.8-0.3
	l0.8-0.4l0.8-0.4"/>
<path id="SvgjsPath1135" class="st0" d="M155.3,103l1,0l1,0l1,0l1,0l1,0l1,0l1,0l1,0l1,0l1,0l1,0l1,0l1,0l1,0l1,0l1,0l1,0l1,0l1,0
	l1,0l1-0.1l1-0.1l1-0.2l1-0.2l1-0.3l1-0.4l0.9-0.5l0.9-0.6l0.9-0.6l0.9-0.7"/>
<path id="SvgjsPath1136" class="st0" d="M150.1,45.7l-0.1,0.7l-0.1,0.7l-0.1,0.7l-0.1,0.7l-0.1,0.7l-0.1,0.7l-0.1,0.7l-0.1,0.7
	l-0.1,0.7l0,0.7l0,0.7l0,0.7l0,0.7l0,0.7l0,0.7l0,0.7l0,0.7l0,0.7l0,0.7l0.1,0.7l0.1,0.7l0.1,0.7l0.1,0.7l0.1,0.7l0.1,0.7l0.1,0.7
	l0.1,0.7l0.1,0.7l0.3,1.4"/>
<path id="SvgjsPath1137" class="st0" d="M149.4,48l-0.2,1.5l-0.2,1.5l-0.1,1.5l-0.1,1.6l0,1.6l0,1.6l0.1,1.6l0.1,1.5l0.2,1.5
	l0.3,1.5l0.4,1.5l0.6,1.4l0.7,1.3l0.8,1.2l0.8,1.2l0.8,1.2l0.9,1l1,0.9l1.1,0.8l1.2,0.6l1.2,0.5l1.2,0.3l1.2,0.2l1.3,0.1l1.3,0
	l1.3,0l1.3-0.1l1.3-0.1l1.3-0.1l1.3-0.1"/>
<path id="SvgjsPath1138" class="st0" d="M168.9,73.9l0.9-0.1l0.9-0.1l0.9-0.1l0.9-0.1l0.9,0l0.9,0l0.9,0.1l0.9,0.1l0.9,0.2l0.9,0.3
	l0.8,0.3l0.8,0.3l0.8,0.4l0.8,0.4l0.8,0.5l0.8,0.5l0.8,0.5l0.7,0.6l0.7,0.6l0.7,0.7l0.7,0.7l0.6,0.7l0.6,0.8l0.6,0.8l0.6,0.8
	l0.5,0.9l0.5,0.9l0.5,0.9l0.5,0.9l0.4,0.9"/>
<path id="SvgjsPath1139" class="st0" d="M184.7,78.5l0.7,0.6l0.7,0.6l0.6,0.7l0.6,0.7l0.6,0.7l0.6,0.7l0.5,0.8l0.4,0.9l0.4,0.9
	l0.2,1l0.1,1l0,1l0,1l-0.2,1l-0.2,1l-0.3,0.9l-0.3,0.9l-0.4,0.9l-0.4,0.9l-0.4,0.9l-0.4,0.9l-0.4,0.9l-0.4,0.8l-0.5,0.8l-0.5,0.8
	l-0.5,0.8l-0.5,0.8l-0.5,0.8l-0.5,0.8l-0.5,0.8"/>
<path id="SvgjsPath1140" class="st0" d="M162.6,113.1l0.2,0.2l0.2,0.2l0.2,0.2l0.2,0.2l0.2,0.2l0.2,0.2l0.2,0.2l0.2,0.2l0.2,0.2
	l0.2,0.2l0.2,0.2l0.2,0.2l0.2,0.2l0.2,0.2l0.2,0.1l0.2,0.1l0.2,0.2l0.2,0.2l0.2,0.2l0.2,0.2l0.2,0.2l0.2,0.2l0.2,0.2l0.2,0.2
	l0.2,0.2l0.2,0.2l0.2,0.2l0.2,0.2l0.2,0.2l0.2,0.2"/>
<path id="SvgjsPath1141" class="st0" d="M131.5,102.9l0.6,0.8l0.6,0.7l0.7,0.7l0.7,0.6l0.7,0.6l0.8,0.5l0.8,0.5l0.8,0.5l0.8,0.4
	l0.8,0.4l0.8,0.4l0.8,0.4l0.8,0.4l0.8,0.3l0.9,0.3l0.9,0.3l0.9,0.3l0.9,0.2l0.9,0.2l0.9,0.2l0.9,0.1l0.9,0.1l0.9,0.1l0.9,0.1
	l0.9,0.1l0.9,0l0.9,0l0.9,0l0.9,0l0.9,0l0.9,0"/>
<path id="SvgjsPath1142" class="st0" d="M132.2,103.4l0.9,0.9l0.9,0.8l1,0.8l1,0.7l1.1,0.6l1.1,0.5l1.1,0.4l1.1,0.3l1.1,0.3l1.1,0.3
	l1.2,0.2l1.1,0.2l1.2,0.2l1.2,0.2l1.2,0.2l1.1,0.2l1.1,0.2l1.1,0.2l1.1,0.2l1.1,0.2l1.1,0.2l1.2,0.2l1.2,0.2l1.2,0.2l1.2,0.2
	l1.2,0.1l1.2,0.1l1.2,0.1l1.2,0.1l1.2,0"/>
<path id="SvgjsPath1143" class="st0" d="M158.8,113.1l0.3,0l0.3,0l0.3,0.1l0.3,0.1l0.3,0.1l0.3,0.1l0.3,0.1l0.3,0.1l0.3,0.1l0.3,0.1
	l0.3,0.1l0.3,0.1l0.3,0.1l0.3,0.1l0.3,0.2l0.3,0.2l0.3,0.2l0.3,0.2l0.3,0.2l0.3,0.2l0.3,0.2l0.3,0.2l0.3,0.2l0.3,0.2l0.3,0.2
	l0.3,0.2l0.3,0.2l0.3,0.2l0.6,0.4"/>
<path id="SvgjsPath1144" class="st0" d="M220.1,70.2l-0.6,0.3l-0.6,0.3l-0.6,0.3l-0.6,0.4l-0.6,0.4l-0.5,0.5l-0.5,0.5l-0.5,0.5
	l-0.5,0.5l-0.5,0.5L214,75l-0.5,0.5l-0.5,0.5l-0.5,0.6l-0.4,0.6l-0.4,0.6l-0.3,0.7l-0.2,0.8l-0.1,0.8l0.2,0.8l0.3,0.7l0.3,0.7
	l0.3,0.7l0.4,0.7l0.4,0.7l0.5,0.6l0.5,0.5l0.6,0L216,85"/>
<path id="SvgjsPath1145" class="st0" d="M228.9,67.5l-0.6,0.1l-0.6,0.1l-0.6,0.2l-0.6,0.2l-0.6,0.2l-0.6,0.2l-0.6,0.2l-0.6,0.2
	l-0.6,0.2l-0.6,0.2l-0.6,0.3l-0.6,0.3l-0.6,0.3l-0.6,0.3l-0.6,0.3l-0.6,0.3l-0.6,0.4l-0.6,0.4l-0.6,0.4l-0.6,0.4l-0.5,0.5l-0.5,0.5
	l-0.5,0.6l-0.5,0.6l-0.3,0.7l-0.3,0.7l-0.1,0.8l0,0.8l0.1,0.8l0.1,0.8"/>
<path id="SvgjsPath1146" class="st0" d="M235.1,67l-0.5-0.3l-0.5-0.3l-0.5-0.3l-0.5-0.3l-0.5-0.2l-0.5-0.2l-0.5-0.1l-0.5,0l-0.5,0
	l-0.5,0.1l-0.5,0.1l-0.5,0.1l-0.5,0.1l-0.5,0.2l-0.5,0.2l-0.5,0.2l-0.5,0.2l-0.5,0.2l-0.5,0.2l-0.5,0.2l-0.5,0.2l-0.5,0.2l-0.5,0.2
	l-0.5,0.2l-0.5,0.3l-0.5,0.3l-0.4,0.4l-0.4,0.4l-0.4,0.5l-0.4,0.5"/>
</svg>
