<svg xmlns="http://www.w3.org/2000/svg" id="SvgjsSvg1001" width="336.962658" height="318.589" version="1.1" xmlns:xlink="http://www.w3.org/1999/xlink" xmlns:svgjs="http://svgjs.com/svgjs" viewBox="-0.6376580000000001 -1 336.962658 318.589"><defs id="SvgjsDefs1002"></defs><path id="SvgjsPath1008" d="M 167.749 176.674 L 168.214 181.321 L 168.716 185.965 L 169.298 190.599 L 169.824 195.24 L 170.293 199.887 L 170.729 204.537 L 171.123 209.191 L 171.466 213.849 L 171.747 218.511 L 171.952 223.177 L 172.074 227.846 L 172.12 232.516 L 172.128 237.187 L 172.128 241.858 L 172.128 246.528 L 172.128 251.199 L 172.128 255.87 L 172.128 260.54 L 172.128 265.211 L 172.128 269.882 L 172.128 274.552 L 172.128 279.223 L 172.128 283.894 L 172.128 288.565 L 172.128 293.235 L 172.128 297.906 L 172.128 302.577 L 172.128 307.247 L 172.128 311.918 L 172.128 316.589" data-group="0" data-id="3" fill="none" stroke="#000" stroke-width="1"></path><path id="SvgjsPath1009" d="M 168.147 179.48 L 168.3 183.885 L 168.55 188.285 L 168.925 192.677 L 169.415 197.057 L 169.959 201.432 L 170.519 205.804 L 171.059 210.178 L 171.543 214.559 L 171.937 218.949 L 172.248 223.346 L 172.541 227.744 L 172.847 232.141 L 173.16 236.538 L 173.468 240.935 L 173.758 245.333 L 174.016 249.733 L 174.232 254.136 L 174.393 258.541 L 174.486 262.947 L 174.499 267.355 L 174.436 271.762 L 174.309 276.168 L 174.126 280.572 L 173.896 284.974 L 173.628 289.373 L 173.328 293.771 L 173.006 298.167 L 172.572 302.553 L 172.157 306.941 L 171.73 311.329" data-group="0" data-id="4" fill="none" stroke="#000" stroke-width="1"></path><path id="SvgjsPath1010" d="M 169.74 175.622 L 169.852 176.351 L 169.964 177.081 L 170.048 177.815 L 170.129 178.549 L 170.18 179.285 L 170.22 180.022 L 170.233 180.76 L 170.226 181.498 L 170.203 182.236 L 170.158 182.973 L 170.106 183.71 L 170.035 184.444 L 169.965 185.179 L 169.895 185.915 L 169.826 186.65 L 169.775 187.386 L 169.725 188.123 L 169.688 188.86 L 169.653 189.598 L 169.624 190.336 L 169.598 191.073 L 169.574 191.811 L 169.551 192.549 L 169.527 193.287 L 169.502 194.025 L 169.474 194.763 L 169.443 195.501 L 169.411 196.239 L 169.342 197.714" data-group="0" data-id="5" fill="none" stroke="#000" stroke-width="1"></path><path id="SvgjsPath1011" d="M 163.371 146.517 L 164.356 147.241 L 165.322 147.992 L 166.266 148.77 L 167.16 149.605 L 168.014 150.479 L 168.83 151.391 L 169.575 152.361 L 170.263 153.37 L 170.902 154.413 L 171.447 155.508 L 171.909 156.639 L 172.301 157.797 L 172.58 158.988 L 172.753 160.197 L 172.851 161.415 L 172.849 162.638 L 172.768 163.858 L 172.642 165.075 L 172.461 166.285 L 172.233 167.486 L 171.979 168.683 L 171.697 169.873 L 171.39 171.057 L 171.072 172.239 L 170.745 173.418 L 170.416 174.596 L 170.094 175.776 L 169.782 176.959 L 169.493 178.148 L 169.213 179.339 L 168.943 180.532" data-group="0" data-id="6" fill="none" stroke="#000" stroke-width="1"></path><path id="SvgjsPath1012" d="M 164.565 147.569 L 165.216 148.786 L 165.88 149.996 L 166.566 151.193 L 167.313 152.354 L 168.022 153.538 L 168.693 154.744 L 169.309 155.979 L 169.638 157.315 L 169.859 158.676 L 169.995 160.049 L 170.051 161.429 L 170.055 162.808 L 170.011 164.188 L 169.912 165.565 L 169.758 166.936 L 169.555 168.301 L 169.287 169.655 L 169.049 171.015 L 168.854 172.381 L 168.708 173.753 L 168.627 175.131 L 168.576 176.51 L 168.545 177.89 L 168.517 179.271 L 168.462 180.65 L 168.395 182.029 L 168.321 183.407 L 168.26 184.786 L 168.202 186.165 L 168.147 187.545" data-group="0" data-id="7" fill="none" stroke="#000" stroke-width="1"></path><path id="SvgjsPath1013" d="M 157.215 143.514 L 157.579 143.8 L 157.944 144.087 L 158.311 144.371 L 158.677 144.655 L 159.045 144.937 L 159.413 145.22 L 159.782 145.5 L 160.152 145.781 L 160.525 146.056 L 160.898 146.332 L 161.274 146.603 L 161.65 146.874 L 162.029 147.142 L 162.408 147.409 L 162.789 147.674 L 163.17 147.938 L 163.554 148.198 L 163.938 148.459 L 164.333 148.7 L 164.732 148.938 L 165.13 149.175 L 165.529 149.412 L 165.954 149.595 L 166.387 149.759 L 166.841 149.855 L 167.295 149.95 L 167.754 150.015 L 168.214 150.073 L 168.675 150.131 L 169.135 150.189" data-group="0" data-id="93" fill="none" stroke="#000" stroke-width="1"></path><path id="SvgjsPath1014" d="M 168.461 182.729 L 170.222 182.049 L 171.998 181.411 L 173.802 180.857 L 175.622 180.357 L 177.431 179.818 L 179.235 179.263 L 181.038 178.703 L 182.841 178.146 L 184.648 177.601 L 186.461 177.075 L 188.279 176.569 L 190.102 176.078 L 191.926 175.594 L 193.751 175.111 L 195.577 174.632 L 197.403 174.155 L 199.23 173.68 L 201.057 173.207 L 202.885 172.737 L 204.713 172.268 L 206.542 171.802 L 208.372 171.337 L 210.202 170.874 L 212.032 170.413 L 213.863 169.953 L 215.694 169.495 L 217.525 169.038 L 219.357 168.582 L 221.189 168.127 L 223.021 167.674" data-group="1" data-id="8" fill="none" stroke="#000" stroke-width="1"></path><path id="SvgjsPath1015" d="M 167.595 184.356 L 171.148 183.074 L 174.701 181.79 L 178.253 180.502 L 181.805 179.215 L 185.359 177.934 L 188.916 176.662 L 192.478 175.404 L 196.047 174.164 L 199.623 172.946 L 203.209 171.756 L 206.804 170.596 L 210.41 169.469 L 214.025 168.372 L 217.648 167.301 L 221.278 166.254 L 224.913 165.226 L 228.553 164.216 L 232.197 163.218 L 235.843 162.229 L 239.491 161.247 L 243.14 160.268 L 246.788 159.287 L 250.435 158.302 L 254.08 157.309 L 257.722 156.305 L 261.36 155.286 L 264.993 154.248 L 268.618 153.186 L 272.236 152.099 L 275.849 150.993" data-group="1" data-id="9" fill="none" stroke="#000" stroke-width="1"></path><path id="SvgjsPath1016" d="M 211.762 168.488 L 214.995 168.279 L 218.216 167.923 L 221.409 167.374 L 224.562 166.629 L 227.69 165.783 L 230.8 164.875 L 233.906 163.952 L 237.009 163.017 L 240.101 162.049 L 243.184 161.054 L 246.259 160.031 L 249.325 158.983 L 252.384 157.914 L 255.435 156.825 L 258.481 155.718 L 261.521 154.597 L 264.543 153.429 L 267.541 152.201 L 270.511 150.905 L 273.447 149.535 L 276.326 148.047 L 279.203 146.557 L 282.009 144.938 L 284.762 143.229 L 287.455 141.428 L 290.044 139.479 L 292.41 137.266 L 294.317 134.648 L 295.693 131.715 L 296.633 128.615" data-group="1" data-id="10" fill="none" stroke="#000" stroke-width="1"></path><path id="SvgjsPath1017" d="M 223.887 146.517 L 224.052 146.803 L 224.216 147.089 L 224.375 147.379 L 224.534 147.668 L 224.687 147.961 L 224.84 148.254 L 224.985 148.551 L 225.13 148.848 L 225.267 149.148 L 225.404 149.449 L 225.533 149.753 L 225.661 150.058 L 225.78 150.366 L 225.899 150.674 L 226 150.989 L 226.1 151.304 L 226.163 151.628 L 226.224 151.952 L 226.275 152.279 L 226.324 152.605 L 226.369 152.933 L 226.413 153.26 L 226.367 153.585 L 226.305 153.91 L 226.2 154.223 L 226.09 154.533 L 225.907 154.809 L 225.721 155.081 L 225.186 155.468" data-group="2" data-id="26" fill="none" stroke="#000" stroke-width="1"></path><path id="SvgjsPath1018" d="M 227.78 154.004 L 226.961 154.528 L 226.14 155.047 L 225.297 155.532 L 224.448 156.004 L 223.578 156.437 L 222.697 156.848 L 221.8 157.223 L 220.895 157.575 L 219.981 157.905 L 219.059 158.213 L 218.132 158.506 L 217.198 158.776 L 216.262 159.038 L 215.32 159.277 L 214.377 159.514 L 213.43 159.73 L 212.482 159.945 L 211.53 160.142 L 210.578 160.34 L 209.626 160.537 L 208.674 160.731 L 207.721 160.92 L 206.767 161.111 L 205.814 161.302 L 204.863 161.501 L 203.912 161.704 L 202.964 161.918 L 202.017 162.134 L 200.126 162.586" data-group="2" data-id="136" fill="none" stroke="#000" stroke-width="1"></path><path id="SvgjsPath1019" d="M 224.443 155.434 L 223.188 155.861 L 221.926 156.266 L 220.657 156.646 L 219.378 156.992 L 218.088 157.297 L 216.794 157.584 L 215.497 157.857 L 214.198 158.121 L 212.899 158.385 L 211.602 158.653 L 210.305 158.926 L 209.007 159.198 L 207.707 159.455 L 206.404 159.698 L 205.098 159.923 L 203.788 160.123 L 202.476 160.309 L 201.162 160.484 L 199.847 160.645 L 198.53 160.794 L 197.212 160.937 L 195.894 161.075 L 194.576 161.214 L 193.26 161.367 L 191.944 161.529 L 190.63 161.695 L 189.312 161.837 L 187.991 161.948 L 186.669 162.038 L 185.346 162.109" data-group="2" data-id="137" fill="none" stroke="#000" stroke-width="1"></path><path id="SvgjsPath1020" d="M 209.185 159.248 L 207.827 159.694 L 206.46 160.11 L 205.083 160.492 L 203.696 160.835 L 202.296 161.121 L 200.888 161.367 L 199.475 161.583 L 198.059 161.77 L 196.638 161.928 L 195.215 162.06 L 193.791 162.177 L 192.366 162.28 L 190.939 162.373 L 189.513 162.459 L 188.086 162.546 L 186.66 162.634 L 185.234 162.728 L 183.809 162.831 L 182.382 162.919 L 180.955 162.986 L 179.526 163.031 L 178.097 163.054 L 176.668 163.065 L 175.239 163.067 L 173.81 163.068 L 172.381 163.075 L 170.959 163.216 L 169.546 163.424 L 168.143 163.692 L 166.751 164.016" data-group="2" data-id="138" fill="none" stroke="#000" stroke-width="1"></path><path id="SvgjsPath1021" d="M 234.712 129.429 L 234.992 130.304 L 235.24 131.188 L 235.456 132.081 L 235.605 132.988 L 235.721 133.899 L 235.801 134.815 L 235.761 135.733 L 235.648 136.642 L 235.453 137.54 L 234.974 138.32 L 234.467 139.087 L 233.947 139.845 L 233.165 140.315 L 232.347 140.731 L 231.506 141.101 L 230.665 141.472 L 229.825 141.846 L 228.988 142.225 L 228.163 142.63 L 227.37 143.088 L 226.624 143.626 L 225.994 144.291 L 225.396 144.989 L 224.826 145.71 L 224.385 146.513 L 224.047 147.36 L 223.855 148.259 L 224.109 149.142 L 224.558 149.914 L 225.186 150.586" data-group="2" data-id="25" fill="none" stroke="#000" stroke-width="1"></path><path id="SvgjsPath1022" d="M 234.279 127.394 L 234.758 128.433 L 235.212 129.485 L 235.642 130.546 L 236.039 131.62 L 236.37 132.714 L 236.597 133.835 L 236.716 134.974 L 236.693 136.119 L 236.444 137.233 L 235.873 138.205 L 235.157 139.098 L 234.334 139.88 L 233.364 140.481 L 232.317 140.943 L 231.24 141.332 L 230.167 141.732 L 229.11 142.173 L 228.086 142.682 L 227.136 143.312 L 226.344 144.119 L 225.837 145.131 L 225.693 146.265 L 226.008 147.366 L 226.602 148.339 L 227.301 149.245 L 227.996 150.154 L 228.547 151.145 L 228.778 152.232 L 228.45 153.317 L 227.784 154.248" data-group="2" data-id="24" fill="none" stroke="#000" stroke-width="1"></path><path id="SvgjsPath1023" d="M 233.413 124.139 L 233.528 124.405 L 233.644 124.672 L 233.76 124.938 L 233.877 125.204 L 233.996 125.469 L 234.115 125.734 L 234.236 125.998 L 234.357 126.263 L 234.478 126.527 L 234.599 126.791 L 234.72 127.055 L 234.841 127.319 L 234.96 127.584 L 235.078 127.849 L 235.195 128.115 L 235.312 128.382 L 235.422 128.65 L 235.533 128.919 L 235.636 129.191 L 235.739 129.462 L 235.829 129.738 L 235.92 130.015 L 236.006 130.292 L 236.091 130.57 L 236.158 130.852 L 236.225 131.135 L 236.282 131.42 L 236.339 131.705 L 236.392 131.991 L 236.444 132.277" data-group="2" data-id="23" fill="none" stroke="#000" stroke-width="1"></path><path id="SvgjsPath1024" d="M 258.961 125.36 L 259.835 125.661 L 260.712 125.958 L 261.598 126.222 L 262.488 126.474 L 263.388 126.69 L 264.292 126.885 L 265.204 127.041 L 266.12 127.169 L 267.04 127.267 L 267.962 127.328 L 268.887 127.365 L 269.812 127.355 L 270.736 127.33 L 271.658 127.249 L 272.579 127.161 L 273.492 127.01 L 274.403 126.851 L 275.304 126.64 L 276.201 126.414 L 277.086 126.146 L 277.964 125.857 L 278.832 125.534 L 279.689 125.187 L 280.536 124.815 L 281.368 124.412 L 282.192 123.991 L 283 123.541 L 283.803 123.081 L 284.59 122.595 L 285.375 122.105" data-group="3" data-id="14" fill="none" stroke="#000" stroke-width="1"></path><path id="SvgjsPath1025" d="M 246.837 105.83 L 246.199 105.693 L 245.561 105.556 L 244.915 105.47 L 244.268 105.385 L 243.617 105.367 L 242.965 105.349 L 242.315 105.405 L 241.666 105.461 L 241.023 105.573 L 240.381 105.685 L 239.752 105.857 L 239.123 106.03 L 238.506 106.241 L 237.889 106.452 L 237.284 106.696 L 236.68 106.941 L 236.089 107.216 L 235.497 107.491 L 234.92 107.794 L 234.342 108.097 L 233.784 108.434 L 233.226 108.771 L 232.683 109.132 L 232.141 109.494 L 231.616 109.882 L 231.092 110.27 L 230.583 110.678 L 230.074 111.085 L 229.083 111.933" data-group="4" data-id="11" fill="none" stroke="#000" stroke-width="1"></path><path id="SvgjsPath1026" d="M 237.743 106.644 L 234.378 107.038 L 231.104 107.903 L 228.013 109.281 L 225.805 111.737 L 224.086 114.375 L 220.724 114.796 L 217.488 115.762 L 214.378 117.115 L 211.307 118.555 L 208.538 120.42 L 206.71 123.237 L 206.474 126.522 L 208.582 128.985 L 211.833 129.701 L 215.22 129.645 L 218.58 129.576 L 221.901 129.379 L 225.137 128.373 L 228.232 126.987 L 231.479 126.144 L 234.865 126.095 L 238.247 126.103 L 241.585 125.517 L 244.369 126.802 L 246.558 129.068 L 249.87 129.133 L 253.211 128.552 L 256.492 127.697 L 259.692 126.578 L 262.858 125.36" data-group="4" data-id="12" fill="none" stroke="#000" stroke-width="1"></path><path id="SvgjsPath1027" d="M 243.372 125.767 L 243.789 126.313 L 244.206 126.859 L 244.712 127.325 L 245.22 127.788 L 245.817 128.129 L 246.417 128.463 L 247.08 128.646 L 247.744 128.823 L 248.428 128.889 L 249.113 128.95 L 249.8 128.925 L 250.487 128.897 L 251.167 128.798 L 251.847 128.696 L 252.508 128.509 L 253.17 128.321 L 253.821 128.102 L 254.473 127.882 L 255.12 127.649 L 255.767 127.415 L 256.411 127.177 L 257.056 126.938 L 257.701 126.699 L 258.346 126.461 L 258.977 126.189 L 259.608 125.916 L 260.214 125.591 L 260.82 125.265 L 261.992 124.546" data-group="4" data-id="13" fill="none" stroke="#000" stroke-width="1"></path><path id="SvgjsPath1028" d="M 243.372 107.458 L 243.82 106.235 L 244.316 105.031 L 244.864 103.85 L 245.466 102.695 L 246.126 101.573 L 246.846 100.488 L 247.611 99.4341 L 248.416 98.4111 L 249.265 97.4232 L 250.16 96.4774 L 251.089 95.5645 L 252.049 94.685 L 253.04 93.8395 L 254.07 93.0423 L 255.128 92.2832 L 256.212 91.5631 L 257.323 90.8834 L 258.463 90.2523 L 259.63 89.6763 L 260.823 89.1557 L 262.043 88.7018 L 263.294 88.3392 L 264.56 88.0325 L 265.837 87.7821 L 267.127 87.6241 L 268.428 87.6 L 269.706 87.8487 L 270.884 88.3781 L 271.836 89.2175 L 272.478 90.3319 L 272.818 91.5892" data-group="5" data-id="15" fill="none" stroke="#000" stroke-width="1"></path><path id="SvgjsPath1029" d="M 243.805 102.982 L 244.586 101.788 L 245.403 100.619 L 246.256 99.4764 L 247.146 98.3616 L 248.07 97.275 L 249.038 96.2276 L 250.048 95.22 L 251.091 94.2477 L 252.167 93.3117 L 253.274 92.4132 L 254.413 91.5541 L 255.595 90.7556 L 256.797 89.9884 L 258.019 89.2531 L 259.271 88.5714 L 260.561 87.963 L 261.886 87.4353 L 263.26 87.0511 L 264.66 86.7842 L 266.071 86.5817 L 267.49 86.499 L 268.909 86.6155 L 270.299 86.9345 L 271.593 87.5305 L 272.739 88.3648 L 273.607 89.4631 L 274.116 90.7731 L 274.202 92.1869 L 273.912 93.5808 L 273.251 94.8446" data-group="5" data-id="16" fill="none" stroke="#000" stroke-width="1"></path><path id="SvgjsPath1030" d="M 268.487 95.6576 L 269.415 94.7824 L 270.344 93.9071 L 271.302 93.0636 L 272.262 92.2227 L 273.25 91.4152 L 274.243 90.6136 L 275.275 89.8631 L 276.318 89.1277 L 277.405 88.4626 L 278.513 87.8279 L 279.665 87.286 L 280.845 86.7996 L 282.062 86.4291 L 283.307 86.1513 L 284.566 86.0535 L 285.839 86.1473 L 287.049 86.4522 L 288.17 87.063 L 289.244 87.7429 L 290.232 88.551 L 291.119 89.444 L 291.747 90.5549 L 292.271 91.7042 L 292.514 92.9571 L 292.7 94.2148 L 292.673 95.4908 L 292.621 96.7642 L 292.414 98.0236 L 292.196 99.2803 L 291.837 100.505 L 291.478 101.73" data-group="6" data-id="17" fill="none" stroke="#000" stroke-width="1"></path><path id="SvgjsPath1031" d="M 291.478 101.73 L 291.921 101.523 L 292.365 101.316 L 292.817 101.126 L 293.269 100.937 L 293.725 100.759 L 294.182 100.583 L 294.642 100.415 L 295.103 100.249 L 295.569 100.099 L 296.037 99.9558 L 296.519 99.8882 L 297.008 99.8627 L 297.497 99.8669 L 297.986 99.8934 L 298.466 99.9761 L 298.937 100.11 L 299.393 100.283 L 299.829 100.505 L 300.256 100.744 L 300.667 101.01 L 301.049 101.31 L 301.37 101.68 L 301.677 102.061 L 301.942 102.472 L 302.2 102.888 L 302.427 103.323 L 302.644 103.761 L 302.809 104.222 L 302.968 104.685 L 303.063 105.165 L 303.158 105.646" data-group="7" data-id="18" fill="none" stroke="#000" stroke-width="1"></path><path id="SvgjsPath1032" d="M 303.158 105.646 L 304.349 104.643 L 305.54 103.64 L 306.81 102.74 L 308.092 101.858 L 309.456 101.113 L 310.851 100.422 L 312.283 99.8154 L 313.743 99.2754 L 315.233 98.8448 L 316.765 98.5677 L 318.3 98.4267 L 319.842 98.6455 L 321.382 98.869 L 322.918 99.1252 L 324.454 99.3814 L 325.771 100.209 L 327.086 101.043 L 328.174 102.147 L 329.22 103.3 L 330.073 104.593 L 330.842 105.947 L 331.452 107.37 L 331.932 108.852 L 332.278 110.36 L 332.425 111.911 L 332.507 113.462 L 332.416 115.016 L 332.298 116.567 L 332.005 118.096 L 331.712 119.625" data-group="8" data-id="19" fill="none" stroke="#000" stroke-width="1"></path><path id="SvgjsPath1033" d="M 309.943 125.484 L 311.786 126.279 L 313.735 126.755 L 315.74 126.671 L 317.644 126.039 L 319.577 125.496 L 321.562 125.359 L 323.56 125.524 L 325.252 126.354 L 326.727 127.683 L 328.519 128.521 L 330.477 128.513 L 332.203 127.494 L 333.563 126.017 L 334.566 124.283 L 335.201 122.388 L 335.325 120.407 L 334.972 118.447 L 334.381 116.528 L 333.817 114.602 L 333.419 112.64 L 333.359 110.636 L 332.622 108.769 L 331.599 107.045 L 330.409 105.43 L 329.237 103.801 L 328.043 102.189 L 326.737 100.667 L 325.197 99.4371 L 323.32 98.8077 L 321.315 98.9126" data-group="8" data-id="21" fill="none" stroke="#000" stroke-width="1"></path><path id="SvgjsPath1034" d="M 303.995 106.644 L 304.82 105.802 L 305.664 104.98 L 306.535 104.186 L 307.447 103.44 L 308.385 102.728 L 309.371 102.083 L 310.405 101.521 L 311.467 101.013 L 312.587 100.644 L 313.729 100.369 L 314.892 100.179 L 316.07 100.16 L 317.245 100.211 L 318.413 100.366 L 319.561 100.628 L 320.679 100.978 L 321.71 101.55 L 322.739 102.125 L 323.756 102.716 L 324.571 103.567 L 325.324 104.47 L 326.005 105.431 L 326.577 106.461 L 327.097 107.517 L 327.534 108.611 L 327.883 109.736 L 328.183 110.875 L 328.392 112.035 L 328.553 113.202 L 328.677 114.374" data-group="8" data-id="22" fill="none" stroke="#000" stroke-width="1"></path><path id="SvgjsPath1035" d="M 285.375 120.477 L 285.544 121.445 L 285.714 122.413 L 286.047 123.337 L 286.382 124.261 L 286.888 125.104 L 287.401 125.94 L 288.147 126.58 L 288.897 127.212 L 289.81 127.576 L 290.724 127.935 L 291.684 128.15 L 292.643 128.359 L 293.622 128.444 L 294.602 128.524 L 295.584 128.489 L 296.566 128.451 L 297.545 128.369 L 298.524 128.286 L 299.501 128.172 L 300.477 128.057 L 301.447 127.905 L 302.418 127.751 L 303.371 127.511 L 304.324 127.269 L 305.265 126.986 L 306.206 126.703 L 307.143 126.407 L 308.08 126.11 L 309.943 125.484" data-group="9" data-id="20" fill="none" stroke="#000" stroke-width="1"></path><path id="SvgjsPath1036" d="M 236.444 124.953 L 236.721 125.337 L 236.999 125.721 L 237.263 126.114 L 237.527 126.508 L 237.779 126.909 L 238.031 127.311 L 238.274 127.718 L 238.516 128.125 L 238.744 128.54 L 238.973 128.956 L 239.192 129.376 L 239.411 129.796 L 239.61 130.227 L 239.808 130.657 L 239.993 131.093 L 240.178 131.53 L 240.35 131.972 L 240.522 132.413 L 240.665 132.865 L 240.807 133.317 L 240.936 133.773 L 241.065 134.229 L 241.176 134.69 L 241.278 135.153 L 241.352 135.621 L 241.427 136.089 L 241.48 136.56 L 241.533 137.031 L 241.64 137.973" data-group="10" data-id="27" fill="none" stroke="#000" stroke-width="1"></path><path id="SvgjsPath1037" d="M 238.176 126.58 L 238.536 127.439 L 238.886 128.302 L 239.215 129.174 L 239.524 130.052 L 239.823 130.935 L 240.058 131.836 L 240.282 132.741 L 240.485 133.65 L 240.648 134.567 L 240.79 135.487 L 240.806 136.419 L 240.762 137.345 L 240.592 138.261 L 240.232 139.109 L 239.776 139.921 L 239.318 140.733 L 238.786 141.485 L 238.098 142.114 L 237.454 142.785 L 236.833 143.48 L 236.526 144.358 L 236.254 145.248 L 236.042 146.155 L 236.139 147.056 L 236.39 147.953 L 236.903 148.731 L 237.454 149.479 L 238.075 150.174 L 238.759 150.803 L 239.475 151.4" data-group="10" data-id="28" fill="none" stroke="#000" stroke-width="1"></path><path id="SvgjsPath1038" d="M 238.176 151.4 L 239.347 151.538 L 240.519 151.658 L 241.694 151.762 L 242.872 151.82 L 244.05 151.853 L 245.229 151.86 L 246.408 151.826 L 247.586 151.772 L 248.762 151.7 L 249.937 151.592 L 251.109 151.467 L 252.28 151.327 L 253.446 151.155 L 254.611 150.97 L 255.773 150.771 L 256.93 150.546 L 258.085 150.31 L 259.238 150.061 L 260.386 149.79 L 261.531 149.51 L 262.674 149.219 L 263.811 148.91 L 264.947 148.591 L 266.08 148.265 L 267.208 147.924 L 268.335 147.575 L 269.459 147.22 L 270.58 146.854 L 271.7 146.484 L 272.818 146.11" data-group="10" data-id="29" fill="none" stroke="#000" stroke-width="1"></path><path id="SvgjsPath1039" d="M 238.609 151.806 L 240.539 152.077 L 242.48 152.246 L 244.429 152.3 L 246.377 152.258 L 248.321 152.12 L 250.261 151.928 L 252.198 151.71 L 254.133 151.474 L 256.061 151.192 L 257.973 150.819 L 259.855 150.313 L 261.712 149.721 L 263.585 149.184 L 265.485 148.753 L 267.394 148.362 L 269.291 147.914 L 271.145 147.321 L 272.935 146.554 L 274.67 145.666 L 276.37 144.713 L 278.041 143.71 L 279.678 142.652 L 281.276 141.537 L 282.816 140.343 L 284.215 138.989 L 285.344 137.405 L 286.189 135.652 L 286.952 133.858 L 287.701 132.059 L 288.406 130.242" data-group="10" data-id="30" fill="none" stroke="#000" stroke-width="1"></path><path id="SvgjsPath1040" d="M 289.272 126.174 L 289.231 126.585 L 289.19 126.996 L 289.127 127.404 L 289.064 127.812 L 288.975 128.215 L 288.886 128.618 L 288.783 129.018 L 288.679 129.418 L 288.559 129.813 L 288.438 130.208 L 288.286 130.592 L 288.133 130.976 L 287.971 131.355 L 287.808 131.735 L 287.625 132.105 L 287.441 132.475 L 287.239 132.835 L 287.036 133.194 L 286.824 133.549 L 286.611 133.903 L 286.375 134.241 L 286.138 134.58 L 285.893 134.912 L 285.648 135.244 L 285.396 135.571 L 285.144 135.899 L 284.882 136.218 L 284.62 136.537 L 284.076 137.159" data-group="10" data-id="31" fill="none" stroke="#000" stroke-width="1"></path><path id="SvgjsPath1041" d="M 105.939 26.2716 L 105.629 26.346 L 105.319 26.4203 L 105.015 26.5153 L 104.711 26.6103 L 104.409 26.7135 L 104.108 26.8167 L 103.806 26.9202 L 103.505 27.0237 L 103.211 27.1473 L 102.917 27.2709 L 102.622 27.3907 L 102.327 27.5105 L 102.056 27.6793 L 101.786 27.848 L 101.516 28.0174 L 101.246 28.1868 L 100.977 28.3576 L 100.708 28.5286 L 100.484 28.7548 L 100.259 28.9811 L 100.047 29.2187 L 99.8349 29.4564 L 99.6217 29.6932 L 99.4132 29.9339 L 99.2246 30.1908 L 99.036 30.4477 L 98.8582 30.7121 L 98.6815 30.9773 L 98.5048 31.2425 L 98.328 31.5076" data-group="11" data-id="33" fill="none" stroke="#000" stroke-width="1"></path><path id="SvgjsPath1042" d="M 109.536 18.1181 L 109.815 17.0789 L 110.095 16.0397 L 110.538 15.06 L 110.993 14.0848 L 111.62 13.2127 L 112.268 12.3538 L 113.097 11.6758 L 113.958 11.0314 L 114.938 10.6064 L 115.953 10.2488 L 117.001 10.0207 L 118.063 9.84945 L 119.134 9.79306 L 120.21 9.80258 L 121.274 9.92878 L 122.329 10.1443 L 123.356 10.4495 L 124.355 10.8487 L 125.32 11.3163 L 126.237 11.8801 L 127.114 12.4982 L 127.918 13.2131 L 128.68 13.9672 L 129.337 14.8199 L 129.966 15.6908 L 130.488 16.6317 L 130.994 17.5805 L 131.398 18.578 L 131.794 19.5781 L 132.099 20.6104 L 132.403 21.6427" data-group="12" data-id="37" fill="none" stroke="#000" stroke-width="1"></path><path id="SvgjsPath1043" d="M 117.165 15.2573 L 116.508 15.1934 L 115.852 15.1296 L 115.193 15.1071 L 114.533 15.0849 L 113.874 15.1091 L 113.215 15.1339 L 112.563 15.2311 L 111.911 15.3293 L 111.265 15.4662 L 110.62 15.6035 L 110.024 15.8844 L 109.428 16.1677 L 108.86 16.503 L 108.293 16.8395 L 107.79 17.2663 L 107.288 17.6942 L 106.867 18.2015 L 106.447 18.7101 L 106.072 19.2524 L 105.696 19.7949 L 105.529 20.4322 L 105.363 21.0707 L 105.292 21.7263 L 105.225 22.382 L 105.32 23.0346 L 105.416 23.6872 L 105.524 24.3379 L 105.633 24.9885 L 105.939 26.2716" data-group="12" data-id="32" fill="none" stroke="#000" stroke-width="1"></path><path id="SvgjsPath1044" d="M 132.403 21.6427 L 133.838 17.3622 L 135.965 13.3871 L 138.91 10.0091 L 142.819 7.89288 L 147.104 6.45574 L 151.571 6.17047 L 155.986 7.08648 L 160.091 8.9474 L 163.844 11.4658 L 167.378 14.2539 L 170.368 17.6308 L 172.93 21.3488 L 175.193 25.2601 L 176.706 29.4538 L 174.985 33.5409 L 171.516 36.3338 L 167.383 38.159 L 163.008 39.089 L 158.522 38.7545 L 154.068 37.9868 L 149.781 39.3475 L 145.343 39.125 L 141.384 37.0545 L 138.157 37.6412 L 135.311 41.1186 L 131.209 42.8395 L 126.693 42.9065 L 122.175 42.8515 L 117.921 44.0439 L 114.304 46.7255" data-group="13" data-id="38" fill="none" stroke="#000" stroke-width="1"></path><path id="SvgjsPath1045" d="M 119.072 41.9576 L 118.973 43.2044 L 118.84 44.448 L 118.67 45.6869 L 118.464 46.9204 L 118.223 48.1477 L 117.931 49.364 L 117.607 50.5718 L 117.249 51.77 L 116.858 52.9578 L 116.428 54.1325 L 115.947 55.2871 L 115.428 56.4248 L 114.867 57.5422 L 114.26 58.6356 L 113.598 59.6964 L 112.873 60.7157 L 112.096 61.6947 L 111.264 62.627 L 110.374 63.5047 L 109.409 64.3012 L 108.366 64.9895 L 107.268 65.5828 L 106.117 66.0664 L 104.922 66.4331 L 103.708 66.7353 L 102.464 66.8329 L 101.246 66.6467 L 100.189 66.0615 L 99.4522 65.0731 L 99.0467 63.8899" data-group="14" data-id="39" fill="none" stroke="#000" stroke-width="1"></path><path id="SvgjsPath1046" d="M 113.35 57.2148 L 111.623 59.7479 L 109.695 62.1311 L 107.549 64.3189 L 105.134 66.2016 L 102.433 67.634 L 99.473 68.3576 L 96.4708 68.0074 L 93.5166 67.1959 L 90.8144 65.8001 L 88.1583 64.2721 L 85.2435 63.6667 L 82.4339 64.6146 L 79.7963 66.1768 L 76.9254 67.1169 L 73.9557 66.8376 L 71.0568 65.8469 L 68.1816 64.7833 L 65.2763 63.8076 L 62.3455 62.9082 L 59.3925 62.0911 L 56.3997 61.8494 L 53.5625 62.8405 L 50.9811 64.4576 L 48.0788 65.352 L 45.0184 65.4525 L 41.9783 65.1459 L 39.0683 64.2062 L 36.4024 62.6984 L 33.9851 60.8145 L 31.819 58.6452" data-group="14" data-id="40" fill="none" stroke="#000" stroke-width="1"></path><path id="SvgjsPath1047" d="M 98.328 31.5076 L 96.8663 30.396 L 95.3237 29.4115 L 93.6971 28.5601 L 91.9173 28.1082 L 90.1104 27.835 L 88.2764 27.7425 L 86.4416 27.816 L 84.6079 27.9114 L 82.7753 28.0285 L 80.9396 28.0753 L 79.1041 28.1296 L 77.2689 28.1953 L 75.5091 28.7091 L 73.8903 29.5161 L 72.4229 30.6201 L 70.9623 31.7331 L 69.396 32.6679 L 67.7188 33.4158 L 66.0345 34.1472 L 64.4188 35.0065 L 62.8791 36.0073 L 61.5761 37.2995 L 60.4277 38.7187 L 59.4414 40.2677 L 58.0215 41.4294 L 56.5811 42.5683 L 55.1274 43.6902 L 53.8439 45.0027 L 52.6098 46.3613 L 51.4217 47.7614" data-group="14" data-id="34" fill="none" stroke="#000" stroke-width="1"></path><path id="SvgjsPath1048" d="M 79.4977 25.2699 L 78.4635 25.3481 L 77.4306 25.4399 L 76.4003 25.5589 L 75.3748 25.7122 L 74.3518 25.8828 L 73.3401 26.1113 L 72.3325 26.3561 L 71.3333 26.634 L 70.3441 26.9447 L 69.3601 27.2724 L 68.3949 27.652 L 67.4378 28.0504 L 66.497 28.4872 L 65.577 28.9648 L 64.6679 29.4641 L 63.8005 30.0325 L 62.9522 30.6275 L 62.1435 31.2769 L 61.3878 31.985 L 60.6601 32.7239 L 60.0395 33.5548 L 59.4651 34.4149 L 58.984 35.3338 L 58.6152 36.2993 L 58.3039 37.2886 L 58.1937 38.3198 L 58.1383 39.3526 L 58.1922 40.3884 L 58.3339 41.4139 L 58.5192 42.4344" data-group="14" data-id="35" fill="none" stroke="#000" stroke-width="1"></path><path id="SvgjsPath1049" d="M 65.6711 35.2825 L 61.7545 36.7289 L 57.9594 38.4666 L 54.3688 40.5882 L 51.303 43.4006 L 48.7887 46.6324 L 47.7355 50.6694 L 43.7617 51.1666 L 39.8379 52.5657 L 36.3455 54.8013 L 33.3717 57.7234 L 33.4309 61.7099 L 36.2756 64.6508 L 40.0878 66.2782 L 44.2101 66.8471 L 48.3711 66.57 L 52.4825 65.8364 L 56.5793 65.0279 L 60.6763 64.2184 L 64.7514 64.6961 L 68.5653 66.27 L 72.7091 66.5809 L 76.885 66.6167 L 81.0522 66.8882 L 85.2128 67.2388 L 89.2428 66.6953 L 93.2073 65.3839 L 96.9799 66.8718 L 101.013 65.9862 L 104.598 63.8868 L 107.629 61.0292" data-group="14" data-id="36" fill="none" stroke="#000" stroke-width="1"></path><path id="SvgjsPath1050" d="M 260.679 2.38396 L 259.842 2.0338 L 259.005 1.68364 L 258.102 1.59653 L 257.204 1.55011 L 256.347 1.8483 L 255.514 2.1867 L 254.838 2.7917 L 254.18 3.41325 L 253.606 4.11586 L 253.042 4.826 L 252.534 5.57733 L 252.025 6.32874 L 251.518 7.08066 L 251.011 7.83269 L 250.505 8.58559 L 249.999 9.33882 L 249.498 10.0947 L 248.996 10.8508 L 248.497 11.6082 L 247.999 12.3664 L 247.516 13.1343 L 247.034 13.903 L 246.573 14.6839 L 246.113 15.4658 L 245.691 16.2689 L 245.27 17.0724 L 244.871 17.887 L 244.472 18.7017 L 244.095 19.5266 L 243.717 20.3515" data-group="15" data-id="41" fill="none" stroke="#000" stroke-width="1"></path><path id="SvgjsPath1051" d="M 263.063 3.81437 L 261.983 3.1843 L 260.867 2.6289 L 259.701 2.17695 L 258.481 1.92058 L 257.246 1.78588 L 255.999 1.88544 L 254.792 2.18251 L 253.615 2.59419 L 252.526 3.20929 L 251.497 3.91279 L 250.521 4.69345 L 249.644 5.58446 L 248.813 6.51614 L 248.051 7.50733 L 247.342 8.53607 L 246.658 9.58246 L 246.021 10.6583 L 245.44 11.7642 L 244.895 12.8895 L 244.423 14.0473 L 243.998 15.2218 L 243.628 16.4159 L 243.388 17.642 L 243.178 18.8744 L 242.996 20.1113 L 242.97 21.3573 L 243.035 22.6039 L 243.275 23.8311 L 243.6 25.0357 L 243.991 26.2235" data-group="15" data-id="44" fill="none" stroke="#000" stroke-width="1"></path><path id="SvgjsPath1052" d="M 261.155 3.33757 L 261 3.76581 L 260.844 4.19404 L 260.733 4.63575 L 260.622 5.07751 L 260.557 5.52819 L 260.491 5.97889 L 260.441 6.43159 L 260.391 6.8843 L 260.357 7.33847 L 260.323 7.79264 L 260.338 8.24785 L 260.353 8.70307 L 260.368 9.15828 L 260.383 9.61349 L 260.396 10.0688 L 260.409 10.5241 L 260.419 10.9794 L 260.43 11.4347 L 260.441 11.8901 L 260.451 12.3454 L 260.435 12.8006 L 260.418 13.2557 L 260.394 13.7106 L 260.372 14.1655 L 260.353 14.6205 L 260.334 15.0756 L 260.32 15.5309 L 260.305 15.9861 L 260.291 16.4413 L 260.277 16.8966" data-group="15" data-id="47" fill="none" stroke="#000" stroke-width="1"></path><path id="SvgjsPath1053" d="M 257.818 0 L 258.066 0.533508 L 258.314 1.06702 L 258.537 1.61124 L 258.76 2.15568 L 258.952 2.71186 L 259.143 3.26819 L 259.295 3.8367 L 259.446 4.40522 L 259.598 4.97373 L 259.749 5.54225 L 259.815 6.12685 L 259.881 6.71148 L 259.947 7.29615 L 260.013 7.88082 L 260.035 8.46874 L 260.057 9.05666 L 260.036 9.64461 L 260.014 10.2326 L 259.992 10.8205 L 259.971 11.4084 L 259.863 11.9869 L 259.756 12.5654 L 259.649 13.1439 L 259.542 13.7224 L 259.387 14.2899 L 259.231 14.8573 L 259.057 15.4192 L 258.882 15.9809 L 258.686 16.5359 L 258.49 17.0903" data-group="15" data-id="50" fill="none" stroke="#000" stroke-width="1"></path><path id="SvgjsPath1054" d="M 198.698 39.7256 L 200.003 41.0915 L 201.518 42.1909 L 203.237 42.874 L 205.119 43.0383 L 206.981 42.746 L 208.83 42.3622 L 210.666 41.9177 L 212.529 41.6008 L 214.396 41.3136 L 216.18 41.1856 L 216.698 43.0027 L 217.989 44.1281 L 219.785 44.3521 L 221.638 43.9825 L 223.374 43.2365 L 225.144 42.5814 L 226.95 42.0504 L 228.839 42.0438 L 230.538 42.6885 L 232.084 43.7642 L 233.429 45.0911 L 235.066 45.9693 L 236.862 46.4928 L 238.748 46.6128 L 240.617 46.3872 L 242.459 45.9886 L 244.262 45.4242 L 246.083 44.9182 L 247.9 44.4007 L 249.712 43.8647" data-group="16" data-id="43" fill="none" stroke="#000" stroke-width="1"></path><path id="SvgjsPath1055" d="M 242.084 20.9788 L 241.323 20.1378 L 240.537 19.3224 L 239.723 18.5329 L 238.852 17.8074 L 237.944 17.1304 L 237.002 16.5004 L 236.002 15.9655 L 234.973 15.4938 L 233.918 15.0813 L 232.823 14.7868 L 231.712 14.5706 L 230.589 14.4241 L 229.455 14.4067 L 228.326 14.4784 L 227.202 14.6229 L 226.097 14.8749 L 225.01 15.1923 L 223.941 15.5673 L 222.92 16.0598 L 221.949 16.6399 L 221.017 17.2844 L 220.15 18.0141 L 219.329 18.7949 L 218.55 19.6168 L 217.852 20.5099 L 217.178 21.4216 L 216.622 22.3839 L 216.47 23.5074 L 216.71 24.5956 L 217.2 25.6004 L 217.888 26.5015" data-group="17" data-id="45" fill="none" stroke="#000" stroke-width="1"></path><path id="SvgjsPath1056" d="M 243.717 20.3515 L 242.651 18.0484 L 241.091 16.0591 L 239.002 14.6718 L 236.591 14.0115 L 234.084 14.0688 L 231.601 14.5846 L 229.146 15.2282 L 226.729 15.9661 L 224.524 17.2198 L 222.518 18.7752 L 220.842 20.676 L 219.291 22.6843 L 217.209 23.9915 L 214.721 24.3527 L 212.357 25.165 L 210.065 26.2546 L 207.764 27.3268 L 205.44 28.3455 L 203.068 29.2394 L 200.611 29.8735 L 198.104 30.2698 L 195.598 30.6661 L 193.297 31.691 L 191.494 33.4161 L 190.352 35.6385 L 190.148 38.0814 L 191.352 39.9756 L 193.772 40.6105 L 196.292 40.5347 L 198.698 39.7256" data-group="17" data-id="42" fill="none" stroke="#000" stroke-width="1"></path><path id="SvgjsPath1057" d="M 217.888 26.5015 L 217.234 26.5316 L 216.58 26.5617 L 215.926 26.5692 L 215.271 26.5764 L 214.617 26.5473 L 213.963 26.518 L 213.31 26.4715 L 212.657 26.4252 L 212.003 26.4125 L 211.348 26.4001 L 210.695 26.4395 L 210.042 26.4793 L 209.394 26.5717 L 208.746 26.6646 L 208.108 26.8117 L 207.47 26.9589 L 206.836 27.1207 L 206.201 27.2825 L 205.567 27.4437 L 204.932 27.6048 L 204.297 27.7614 L 203.661 27.9181 L 203.026 28.0754 L 202.39 28.2329 L 201.767 28.4321 L 201.143 28.6314 L 200.527 28.8532 L 199.911 29.075 L 199.304 29.318 L 198.696 29.561" data-group="17" data-id="46" fill="none" stroke="#000" stroke-width="1"></path><path id="SvgjsPath1058" d="M 260.277 16.8966 L 260.706 16.354 L 261.135 15.8114 L 261.572 15.2744 L 262.008 14.7375 L 262.438 14.1953 L 262.868 13.6531 L 263.338 13.1446 L 263.808 12.6372 L 264.308 12.1589 L 264.809 11.6818 L 265.34 11.2378 L 265.872 10.7954 L 266.449 10.4133 L 267.028 10.0347 L 267.635 9.70305 L 268.244 9.37468 L 268.88 9.1015 L 269.517 8.83226 L 270.155 8.56302 L 270.792 8.29378 L 271.452 8.08771 L 272.115 7.88763 L 272.797 7.77239 L 273.48 7.66474 L 274.164 7.75125 L 274.848 7.85746 L 275.488 8.11618 L 276.127 8.38344 L 276.701 8.7695 L 277.275 9.15637" data-group="18" data-id="48" fill="none" stroke="#000" stroke-width="1"></path><path id="SvgjsPath1059" d="M 258.49 17.0903 L 259.563 15.9937 L 260.657 14.9191 L 261.808 13.9051 L 262.995 12.9342 L 264.213 12.0017 L 265.541 11.2394 L 266.909 10.5551 L 268.404 10.2102 L 269.906 9.90071 L 271.42 9.65265 L 272.886 9.9102 L 274.325 10.4421 L 275.431 11.5013 L 276.302 12.6973 L 276.614 14.1995 L 276.808 15.7182 L 276.92 17.2485 L 276.93 18.7822 L 276.919 20.3164 L 276.872 21.8499 L 276.807 23.3827 L 276.715 24.9143 L 276.536 26.4368 L 276.313 27.9547 L 275.857 29.4185 L 275.292 30.8296 L 274.364 32.0515 L 273.288 33.1221 L 272.043 34.0182 L 270.672 34.6891 L 269.256 35.282" data-group="18" data-id="51" fill="none" stroke="#000" stroke-width="1"></path><path id="SvgjsPath1060" d="M 277.275 9.15637 L 277.64 10.4918 L 277.91 11.8465 L 278.079 13.2191 L 277.975 14.5996 L 277.787 15.969 L 277.527 17.3288 L 277.066 18.6341 L 276.553 19.9188 L 275.98 21.1792 L 275.379 22.4264 L 274.767 23.6679 L 274.139 24.902 L 273.468 26.1127 L 272.837 27.3423 L 272.418 28.5679 L 273.794 28.7177 L 274.884 29.3747 L 275.488 30.5409 L 275.338 31.9172 L 274.991 33.2511 L 274.535 34.5568 L 273.948 35.8104 L 273.277 37.0195 L 272.546 38.1939 L 271.694 39.2855 L 270.734 40.2738 L 269.682 41.1721 L 268.473 41.847 L 267.219 42.4244 L 265.923 42.9111" data-group="18" data-id="49" fill="none" stroke="#000" stroke-width="1"></path><path id="SvgjsPath1061" d="M 269.256 35.282 L 269.937 36.153 L 270.518 37.0775 L 270.86 38.129 L 270.849 39.2061 L 270.663 40.2959 L 270.148 41.2629 L 269.574 42.2079 L 268.848 43.0379 L 268.094 43.8468 L 267.172 44.4458 L 266.218 45.0041 L 265.194 45.4168 L 264.159 45.8049 L 263.09 46.0818 L 262.015 46.3406 L 260.918 46.4699 L 259.818 46.5769 L 258.713 46.604 L 257.607 46.6169 L 256.507 46.5186 L 255.408 46.4009 L 254.337 46.1341 L 253.271 45.8397 L 252.204 45.5481 L 251.138 45.2569 L 250.077 44.9443 L 249.018 44.6276 L 247.986 44.2328 L 246.958 43.8247 L 245.95 43.3704 L 244.945 42.9112" data-group="18" data-id="52" fill="none" stroke="#000" stroke-width="1"></path><path id="SvgjsPath1062" d="M 246.375 62.4595 L 246.806 62.4017 L 247.237 62.3439 L 247.669 62.2922 L 248.101 62.2406 L 248.534 62.2014 L 248.968 62.1622 L 249.402 62.1364 L 249.836 62.1108 L 250.271 62.1164 L 250.706 62.1225 L 251.141 62.143 L 251.575 62.1637 L 252.008 62.2119 L 252.44 62.2608 L 252.844 62.4208 L 253.248 62.583 L 253.643 62.7645 L 254.039 62.9464 L 254.347 63.2525 L 254.654 63.5605 L 254.918 63.9062 L 255.182 64.2523 L 255.283 64.6751 L 255.381 65.0989 L 255.419 65.5322 L 255.457 65.9656 L 255.47 66.4005 L 255.482 66.8354 L 255.434 67.7042" data-group="19" data-id="59" fill="none" stroke="#000" stroke-width="1"></path><path id="SvgjsPath1063" d="M 217.608 78.6695 L 218.466 79.6003 L 219.366 80.4848 L 220.383 81.2384 L 221.48 81.8472 L 222.66 82.3074 L 223.884 82.6044 L 225.133 82.8123 L 226.393 82.9071 L 227.658 82.9635 L 228.924 82.9578 L 230.19 82.9401 L 231.453 82.8609 L 232.716 82.7761 L 233.976 82.6511 L 235.236 82.5249 L 236.494 82.3892 L 237.752 82.2451 L 239.006 82.0688 L 240.257 81.8797 L 241.504 81.6601 L 242.747 81.4195 L 243.983 81.1455 L 245.189 80.7743 L 246.362 80.2993 L 247.423 79.6347 L 248.404 78.8336 L 249.167 77.8417 L 249.836 76.7668 L 250.268 75.5813 L 250.666 74.3793" data-group="19" data-id="57" fill="none" stroke="#000" stroke-width="1"></path><path id="SvgjsPath1064" d="M 245.898 63.8899 L 246.988 63.4386 L 248.097 63.0408 L 249.224 62.6948 L 250.369 62.4086 L 251.53 62.2055 L 252.701 62.1408 L 253.871 62.2425 L 254.993 62.6086 L 255.96 63.2608 L 256.683 64.1448 L 257.106 65.2425 L 257.129 66.4218 L 256.782 67.5268 L 256.227 68.5609 L 255.537 69.5181 L 254.823 70.4564 L 254.217 71.4638 L 253.749 72.539 L 253.484 73.6884 L 253.151 74.8198 L 252.645 75.8726 L 251.997 76.8583 L 251.31 77.8166 L 250.477 78.647 L 249.584 79.4164 L 248.652 80.1374 L 247.618 80.7048 L 246.539 81.1776 L 245.428 81.5697 L 244.292 81.8865" data-group="19" data-id="58" fill="none" stroke="#000" stroke-width="1"></path><path id="SvgjsPath1065" d="M 223.892 72.0632 L 223.642 72.2596 L 223.392 72.456 L 223.141 72.6506 L 222.89 72.8453 L 222.635 73.0348 L 222.379 73.2242 L 222.114 73.3994 L 221.849 73.5737 L 221.58 73.7434 L 221.311 73.9127 L 221.034 74.068 L 220.756 74.2221 L 220.489 74.3944 L 220.223 74.5685 L 219.968 74.7581 L 219.715 74.9496 L 219.469 75.1511 L 219.225 75.3541 L 218.992 75.5702 L 218.761 75.7883 L 218.55 76.0262 L 218.344 76.2674 L 218.175 76.5356 L 218.023 76.8137 L 217.923 77.1153 L 217.823 77.417 L 217.767 77.7296 L 217.714 78.0429 L 217.608 78.6695" data-group="19" data-id="56" fill="none" stroke="#000" stroke-width="1"></path><path id="SvgjsPath1066" d="M 217.767 41.9576 L 217.199 42.9216 L 216.631 43.8858 L 216.064 44.8502 L 215.498 45.8153 L 214.932 46.7807 L 214.367 47.7461 L 213.8 48.7108 L 213.232 49.6747 L 212.66 50.6364 L 212.086 51.5968 L 211.507 52.5542 L 210.923 53.5086 L 210.336 54.4609 L 209.733 55.4034 L 209.129 56.3454 L 208.525 57.2872 L 207.908 58.2202 L 207.283 59.1484 L 206.643 60.0657 L 205.994 60.9773 L 205.334 61.8809 L 204.644 62.7616 L 203.932 63.623 L 203.137 64.4108 L 202.268 65.1062 L 201.33 65.7159 L 200.346 66.2476 L 199.353 66.762 L 198.349 67.2553 L 197.333 67.7251 L 196.312 68.181" data-group="20" data-id="80" fill="none" stroke="#000" stroke-width="1"></path><path id="SvgjsPath1067" d="M 217.291 43.3879 L 216.719 44.1985 L 216.15 45.0107 L 215.588 45.8278 L 215.032 46.6488 L 214.482 47.4741 L 213.941 48.3056 L 213.405 49.1397 L 212.878 49.98 L 212.353 50.8216 L 211.836 51.6679 L 211.322 52.5162 L 210.814 53.3674 L 210.309 54.2214 L 209.807 55.0768 L 209.311 55.9354 L 208.816 56.7947 L 208.325 57.6567 L 207.834 58.5184 L 207.342 59.3795 L 206.828 60.2271 L 206.297 61.0647 L 205.676 61.8362 L 205.027 62.5851 L 204.259 63.2123 L 203.473 63.8153 L 202.645 64.361 L 201.799 64.8791 L 200.939 65.3728 L 200.059 65.8291 L 199.173 66.2739" data-group="20" data-id="81" fill="none" stroke="#000" stroke-width="1"></path><path id="SvgjsPath1068" d="M 223.012 41.4808 L 222.58 42.5274 L 222.145 43.5726 L 221.705 44.6161 L 221.258 45.6562 L 220.806 46.6944 L 220.346 47.729 L 219.879 48.7603 L 219.407 49.7897 L 218.926 50.8148 L 218.44 51.8373 L 217.949 52.8574 L 217.447 53.8726 L 216.941 54.8855 L 216.429 55.895 L 215.908 56.9002 L 215.382 57.9029 L 214.847 58.9011 L 214.306 59.8956 L 213.76 60.8876 L 213.204 61.8737 L 212.643 62.8569 L 212.075 63.8368 L 211.498 64.811 L 210.916 65.7824 L 210.327 66.7492 L 209.729 67.7104 L 209.126 68.6687 L 208.514 69.6214 L 207.898 70.5711 L 207.278 71.5186" data-group="21" data-id="82" fill="none" stroke="#000" stroke-width="1"></path><path id="SvgjsPath1069" d="M 222.059 43.8647 L 221.548 44.9855 L 221.028 46.1024 L 220.499 47.2146 L 219.95 48.3172 L 219.391 49.415 L 218.832 50.5129 L 218.283 51.6156 L 217.762 52.7314 L 217.264 53.8578 L 216.791 54.9954 L 216.329 56.137 L 215.837 57.2662 L 215.314 58.3812 L 214.734 59.4677 L 214.128 60.5404 L 213.515 61.6085 L 212.906 62.6794 L 212.311 63.7577 L 211.699 64.8269 L 211.064 65.8819 L 210.355 66.8895 L 209.667 67.9112 L 209.013 68.9534 L 208.461 70.0548 L 207.972 71.1847 L 207.503 72.3235 L 207.017 73.4556 L 206.488 74.5677 L 205.938 75.6698 L 205.371 76.7632" data-group="21" data-id="83" fill="none" stroke="#000" stroke-width="1"></path><path id="SvgjsPath1070" d="M 22.3685 137.055 L 22.321 137.887 L 22.287 138.718 L 22.4704 139.53 L 22.7194 140.313 L 23.2059 140.99 L 23.7409 141.618 L 24.4113 142.113 L 25.0965 142.584 L 25.8277 142.983 L 26.5705 143.357 L 27.3524 143.645 L 28.1347 143.931 L 28.9184 144.214 L 29.709 144.47 L 30.5309 144.606 L 31.3542 144.73 L 32.1851 144.791 L 33.0163 144.842 L 33.8494 144.835 L 34.6821 144.822 L 35.5124 144.754 L 36.3422 144.681 L 37.1658 144.555 L 37.9886 144.426 L 38.8007 144.24 L 39.6123 144.052 L 40.4117 143.818 L 41.2109 143.583 L 42.7851 143.037" data-group="22" data-id="66" fill="none" stroke="#000" stroke-width="1"></path><path id="SvgjsPath1071" d="M 23.0941 114.129 L 19.2572 117.279 L 15.4815 120.503 L 11.7886 123.82 L 8.51727 127.522 L 8.04846 131.932 L 11.0523 135.697 L 14.0443 139.624 L 17.1137 143.383 L 22.0765 143.344 L 26.9948 143.871 L 31.5636 145.662 L 36.1508 147.242 L 41.0439 146.835 L 45.5756 144.894 L 49.9261 142.502 L 54.2986 140.158 L 58.0869 137.037 L 60.3405 132.679 L 61.3407 127.824 L 61.9542 122.898 L 62.2174 117.945 L 61.1835 113.132 L 58.4026 109.06 L 54.9353 105.515 L 51.2067 102.282 L 48.4011 98.1969 L 47.3498 93.6305 L 47.7282 88.6965 L 46.4957 83.9707 L 43.5128 80.0649 L 39.4476 77.24" data-group="22" data-id="62" fill="none" stroke="#000" stroke-width="1"></path><path id="SvgjsPath1072" d="M 52.321 103.941 L 53.6614 104.709 L 54.9821 105.51 L 56.2823 106.345 L 57.5586 107.215 L 58.7759 108.166 L 59.8813 109.242 L 60.8895 110.41 L 61.7992 111.656 L 62.5788 112.99 L 63.1222 114.433 L 63.4318 115.937 L 63.5638 117.475 L 63.6213 119.019 L 63.404 120.548 L 63.0388 122.046 L 62.544 123.507 L 61.9369 124.928 L 61.224 126.299 L 60.4926 127.66 L 59.7524 129.016 L 59.0071 130.369 L 58.251 131.717 L 57.4921 133.062 L 56.7331 134.408 L 55.976 135.755 L 55.2234 137.104 L 54.4835 138.461 L 53.7539 139.823 L 53.0336 141.19 L 52.321 142.561" data-group="22" data-id="67" fill="none" stroke="#000" stroke-width="1"></path><path id="SvgjsPath1073" d="M 12.2706 123.012 L 11.3827 123.55 L 10.5217 124.127 L 9.7159 124.782 L 8.99111 125.521 L 8.30803 126.304 L 7.80533 127.212 L 7.36142 128.147 L 7.03803 129.133 L 6.82154 130.146 L 6.66198 131.172 L 6.66751 132.21 L 6.74513 133.241 L 6.97405 134.254 L 7.39567 135.191 L 7.92137 136.086 L 8.67432 136.801 L 9.47814 137.448 L 10.3799 137.963 L 11.3335 138.366 L 12.3112 138.716 L 13.3229 138.95 L 14.3434 139.076 L 15.3796 139.006 L 16.4013 138.833 L 17.4162 138.613 L 18.4135 138.324 L 19.4088 138.028 L 20.4003 137.719 L 21.3858 137.391 L 22.3685 137.055" data-group="22" data-id="65" fill="none" stroke="#000" stroke-width="1"></path><path id="SvgjsPath1074" d="M 12.1571 101.044 L 12.1811 101.678 L 12.2051 102.312 L 12.2176 102.947 L 12.23 103.581 L 12.1945 104.215 L 12.1584 104.849 L 12.1727 105.483 L 12.1896 106.117 L 12.4176 106.71 L 12.6456 107.302 L 12.9884 107.836 L 13.3384 108.364 L 13.823 108.774 L 14.3097 109.181 L 14.8466 109.519 L 15.3852 109.855 L 15.9577 110.128 L 16.5309 110.401 L 17.1231 110.629 L 17.7155 110.857 L 18.3165 111.061 L 18.9164 111.267 L 19.4722 111.574 L 20.0276 111.881 L 20.5651 112.218 L 21.1021 112.556 L 21.6108 112.936 L 22.1193 113.316 L 22.6067 113.722 L 23.0941 114.129" data-group="22" data-id="61" fill="none" stroke="#000" stroke-width="1"></path><path id="SvgjsPath1075" d="M 39.9244 77.7168 L 37.8496 77.366 L 35.7731 77.0275 L 33.6833 76.7818 L 31.5909 76.5659 L 29.4901 76.4465 L 27.3883 76.3883 L 25.2847 76.4405 L 23.1908 76.6083 L 21.1075 76.904 L 19.0606 77.3699 L 17.0388 77.953 L 15.0716 78.6925 L 13.1264 79.495 L 11.2327 80.4106 L 9.34906 81.3485 L 7.46544 82.2864 L 5.60772 83.261 L 4.09383 84.7224 L 2.66611 86.2514 L 1.60865 88.0706 L 0.757559 89.9669 L 0.362342 92.0337 L 0.499129 94.0477 L 1.29254 95.9965 L 2.56454 97.6081 L 4.13348 99.0102 L 6.0054 99.9127 L 7.97411 100.656 L 10.0595 100.877 L 12.1571 101.044" data-group="22" data-id="60" fill="none" stroke="#000" stroke-width="1"></path><path id="SvgjsPath1076" d="M 39.9244 79.1472 L 38.4668 78.7757 L 37.0036 78.4274 L 35.5343 78.1059 L 34.0586 77.8154 L 32.5761 77.5606 L 31.087 77.3483 L 29.5936 77.1692 L 28.0967 77.0241 L 26.5967 76.9137 L 25.0943 76.8404 L 23.5903 76.8161 L 22.0864 76.8311 L 20.5835 76.8869 L 19.0835 76.9915 L 17.5895 77.1663 L 16.0957 77.343 L 14.6121 77.5873 L 13.1413 77.8993 L 11.6886 78.2854 L 10.2664 78.7751 L 8.88524 79.3704 L 7.56962 80.0938 L 6.2831 80.8732 L 5.03043 81.6985 L 3.91394 82.7065 L 3.01355 83.9091 L 2.4962 85.2946 L 2.3815 86.7715 L 2.64735 88.2422 L 3.21156 89.6366" data-group="22" data-id="63" fill="none" stroke="#000" stroke-width="1"></path><path id="SvgjsPath1077" d="M 2.25796 89.1598 L 1.98062 89.9934 L 1.70328 90.827 L 1.48982 91.6788 L 1.28777 92.5338 L 1.13382 93.3981 L 1.00166 94.2667 L 0.966922 95.1401 L 1.01195 96.0175 L 1.17061 96.8715 L 1.47678 97.6949 L 1.82062 98.5008 L 2.25823 99.2626 L 2.73204 99.9957 L 3.37407 100.595 L 4.01769 101.193 L 4.70514 101.74 L 5.3926 102.287 L 6.11148 102.792 L 6.83438 103.291 L 7.58313 103.75 L 8.34091 104.195 L 9.11364 104.612 L 9.89662 105.01 L 10.6901 105.387 L 11.4966 105.735 L 12.307 106.074 L 13.1265 106.391 L 13.9476 106.703 L 14.7778 106.99 L 15.6081 107.278" data-group="22" data-id="64" fill="none" stroke="#000" stroke-width="1"></path><path id="SvgjsPath1078" d="M 73.4265 106.698 L 73.9099 107.472 L 74.3974 108.242 L 75.01 108.918 L 75.6395 109.574 L 76.4 110.078 L 77.1739 110.556 L 78.0216 110.892 L 78.8754 111.209 L 79.7673 111.4 L 80.6614 111.571 L 81.5734 111.586 L 82.4851 111.593 L 83.393 111.506 L 84.3004 111.415 L 85.1978 111.251 L 86.0948 111.086 L 86.9821 110.875 L 87.8696 110.665 L 88.7591 110.463 L 89.6486 110.261 L 90.5337 110.041 L 91.4186 109.82 L 92.2919 109.557 L 93.1647 109.292 L 94.0512 109.078 L 94.9387 108.867 L 95.841 108.735 L 96.7441 108.608 L 98.5626 108.464" data-group="23" data-id="70" fill="none" stroke="#000" stroke-width="1"></path><path id="SvgjsPath1079" d="M 72.1341 104.436 L 71.8623 106.052 L 71.918 107.658 L 72.4282 109.173 L 73.6274 110.289 L 75.0346 111.066 L 76.5741 111.626 L 78.1751 111.973 L 79.7897 112.225 L 81.4241 112.337 L 83.0584 112.265 L 84.6926 112.149 L 86.3267 112.033 L 87.9311 111.737 L 89.515 111.318 L 91.0573 110.766 L 92.582 110.169 L 94.0791 109.504 L 95.536 108.756 L 96.9667 107.96 L 98.327 107.047 L 99.6828 106.128 L 101.035 105.203 L 102.645 104.939 L 104.23 104.568 L 105.752 103.961 L 107.117 103.072 L 108.4 102.06 L 109.519 100.863 L 110.52 99.5722 L 111.443 98.2186" data-group="23" data-id="76" fill="none" stroke="#000" stroke-width="1"></path><path id="SvgjsPath1080" d="M 102.861 83.9151 L 102.073 83.5396 L 101.286 83.164 L 100.438 82.9578 L 99.5896 82.7589 L 98.7173 82.7686 L 97.8486 82.7982 L 97.0302 83.1003 L 96.2136 83.4067 L 95.4289 83.7879 L 94.645 84.1707 L 93.8791 84.5885 L 93.1139 85.0074 L 92.369 85.4614 L 91.6249 85.9167 L 90.9353 86.4511 L 90.2458 86.9855 L 89.5794 87.5485 L 88.913 88.1115 L 88.286 88.7181 L 87.6594 89.3251 L 87.1024 89.9964 L 86.5466 90.6689 L 86.034 91.3747 L 85.5227 92.0816 L 85.0975 92.843 L 84.6763 93.607 L 84.3542 94.4175 L 84.0356 95.2296 L 83.556 96.9072" data-group="23" data-id="68" fill="none" stroke="#000" stroke-width="1"></path><path id="SvgjsPath1081" d="M 83.556 96.9072 L 83.0539 96.9655 L 82.5518 97.0241 L 82.057 97.1277 L 81.563 97.2338 L 81.097 97.4297 L 80.631 97.6256 L 80.1843 97.8624 L 79.7377 98.0992 L 79.3199 98.3838 L 78.9021 98.6684 L 78.5007 98.9757 L 78.0994 99.283 L 77.7352 99.6337 L 77.3712 99.9845 L 77.0072 100.335 L 76.6432 100.686 L 76.2792 101.037 L 75.9152 101.388 L 75.5739 101.76 L 75.233 102.134 L 74.911 102.523 L 74.5895 102.914 L 74.321 103.342 L 74.0539 103.771 L 73.8461 104.232 L 73.6402 104.693 L 73.5494 105.19 L 73.4638 105.688 L 73.4265 106.698" data-group="23" data-id="69" fill="none" stroke="#000" stroke-width="1"></path><path id="SvgjsPath1082" d="M 94.8379 88.2461 L 93.9807 87.6891 L 93.0697 87.254 L 92.0803 86.9963 L 91.0785 87.0681 L 90.0726 87.25 L 89.1642 87.7052 L 88.2707 88.2019 L 87.4337 88.7863 L 86.612 89.3947 L 85.8508 90.0744 L 85.1148 90.7838 L 84.4213 91.5336 L 83.7533 92.3075 L 83.0885 93.0841 L 82.4265 93.8631 L 81.8844 94.716 L 81.4865 95.6577 L 81.1134 96.6088 L 80.7831 97.5763 L 80.3331 98.4654 L 79.5783 99.1549 L 78.7735 99.7706 L 77.8534 100.216 L 76.9407 100.676 L 76.0536 101.184 L 75.1883 101.724 L 74.3892 102.362 L 73.6058 103.017 L 72.87 103.727 L 72.1341 104.436" data-group="23" data-id="75" fill="none" stroke="#000" stroke-width="1"></path><path id="SvgjsPath1083" d="M 98.5626 108.464 L 98.9696 108.67 L 99.378 108.873 L 99.8181 108.993 L 100.262 109.062 L 100.713 108.997 L 101.152 108.887 L 101.571 108.706 L 101.979 108.505 L 102.366 108.262 L 102.752 108.018 L 103.137 107.774 L 103.507 107.51 L 103.83 107.188 L 104.153 106.866 L 104.476 106.544 L 104.794 106.217 L 105.09 105.87 L 105.385 105.522 L 105.672 105.167 L 105.958 104.812 L 106.234 104.448 L 106.509 104.084 L 106.778 103.715 L 107.044 103.344 L 107.304 102.97 L 107.565 102.595 L 107.819 102.216 L 108.073 101.837 L 108.582 101.08" data-group="23" data-id="71" fill="none" stroke="#000" stroke-width="1"></path><path id="SvgjsPath1084" d="M 120.139 91.4478 L 120.651 91.9119 L 121.145 92.3884 L 121.42 93.0224 L 121.545 93.6692 L 121.383 94.3408 L 121.138 94.9705 L 120.694 95.4998 L 120.243 96.0226 L 119.773 96.5285 L 119.295 97.0268 L 118.794 97.5026 L 118.286 97.9705 L 117.755 98.4121 L 117.219 98.8473 L 116.662 99.2569 L 116.102 99.6605 L 115.522 100.035 L 114.939 100.406 L 114.34 100.75 L 113.739 101.09 L 113.121 101.4 L 112.502 101.704 L 111.858 101.956 L 111.214 102.203 L 110.548 102.388 L 109.882 102.569 L 109.203 102.697 L 108.524 102.824 L 107.838 102.905 L 107.152 102.987" data-group="23" data-id="73" fill="none" stroke="#000" stroke-width="1"></path><path id="SvgjsPath1085" d="M 101.907 85.3455 L 102.74 84.4954 L 103.599 83.672 L 104.484 82.8757 L 105.428 82.1508 L 106.404 81.4709 L 107.412 80.8382 L 108.469 80.2904 L 109.548 79.7892 L 110.649 79.3375 L 111.787 78.987 L 112.939 78.6936 L 114.107 78.4622 L 115.292 78.3548 L 116.479 78.3343 L 117.667 78.4109 L 118.839 78.6161 L 120.001 78.8704 L 121.151 79.1775 L 122.14 79.8354 L 122.999 80.6389 L 123.726 81.5815 L 123.749 82.7712 L 123.632 83.9484 L 123.386 85.113 L 122.984 86.2337 L 122.515 87.3254 L 121.982 88.3899 L 121.396 89.4261 L 120.781 90.4453 L 120.139 91.4478" data-group="23" data-id="72" fill="none" stroke="#000" stroke-width="1"></path><path id="SvgjsPath1086" d="M 106.199 84.3919 L 105.787 84.2069 L 105.376 84.0218 L 104.95 83.871 L 104.524 83.7229 L 104.077 83.6621 L 103.63 83.6013 L 103.179 83.599 L 102.728 83.5973 L 102.287 83.6949 L 101.847 83.793 L 101.411 83.9097 L 100.975 84.0266 L 100.564 84.2117 L 100.152 84.3969 L 99.7492 84.5998 L 99.3463 84.8028 L 98.9716 85.0541 L 98.5969 85.3056 L 98.236 85.5764 L 97.8752 85.8473 L 97.5199 86.1254 L 97.1646 86.4036 L 96.819 86.6937 L 96.4784 86.9894 L 96.1524 87.3014 L 95.8265 87.6134 L 95.511 87.936 L 95.1956 88.2586 L 94.8801 88.5812 L 94.5646 88.9038" data-group="23" data-id="74" fill="none" stroke="#000" stroke-width="1"></path><path id="SvgjsPath1087" d="M 148.156 35.7593 L 147.51 36.548 L 146.894 37.3583 L 146.336 38.2113 L 145.863 39.1121 L 145.433 40.0363 L 145.137 41.0117 L 144.87 41.9945 L 144.661 42.9921 L 144.504 43.9986 L 144.374 45.0095 L 144.322 46.0275 L 144.31 47.0452 L 144.382 48.0619 L 144.5 49.0739 L 144.642 50.0832 L 144.897 51.0701 L 145.222 52.0301 L 145.696 52.9323 L 146.323 53.7246 L 147.034 54.4544 L 147.93 54.9402 L 148.841 55.395 L 149.781 55.7895 L 150.775 55.9445 L 151.793 55.9887 L 152.804 55.8625 L 153.809 55.6979 L 154.8 55.4618 L 155.774 55.1617 L 156.738 54.8309" data-group="24" data-id="77" fill="none" stroke="#000" stroke-width="1"></path><path id="SvgjsPath1088" d="M 143.865 41.4808 L 144 43.9407 L 144.334 46.3813 L 144.903 48.7774 L 145.775 51.0793 L 146.947 53.243 L 148.349 55.2664 L 150.089 56.9986 L 152.248 58.134 L 154.561 58.9787 L 156.973 59.4185 L 159.43 59.5802 L 161.893 59.6225 L 164.352 59.5146 L 166.8 59.2476 L 169.235 58.8716 L 171.659 58.4352 L 174.082 57.9899 L 176.513 57.5887 L 178.957 57.2833 L 181.413 57.1244 L 183.873 57.1723 L 186.315 57.4805 L 188.712 58.0383 L 191.045 58.8245 L 193.272 59.8696 L 195.321 61.2271 L 197.08 62.9456 L 198.447 64.9919 L 199.446 67.2434 L 200.126 69.6114" data-group="24" data-id="78" fill="none" stroke="#000" stroke-width="1"></path><path id="SvgjsPath1089" d="M 144.342 39.5736 L 143.734 41.8579 L 143.512 44.211 L 143.787 46.5583 L 144.625 48.7683 L 145.84 50.7961 L 147.298 52.6565 L 148.875 54.418 L 150.565 56.0709 L 152.404 57.5561 L 154.419 58.792 L 156.621 59.651 L 158.954 60.0289 L 161.317 60.1085 L 163.679 60.1896 L 166.043 60.2452 L 168.406 60.1801 L 170.754 59.9123 L 173.091 59.5532 L 175.439 59.2844 L 177.794 59.0785 L 180.15 58.8856 L 182.502 58.6485 L 184.85 58.3748 L 187.198 58.0993 L 189.561 58.1357 L 191.758 59.0019 L 193.791 60.1972 L 194.991 62.2331 L 195.863 64.4297 L 196.312 66.7507" data-group="24" data-id="79" fill="none" stroke="#000" stroke-width="1"></path><path id="SvgjsPath1090" d="M 228.734 82.9615 L 228.424 84.1473 L 228.1 85.3295 L 227.758 86.5065 L 227.381 87.6725 L 226.986 88.8327 L 226.56 89.9819 L 226.119 91.1258 L 225.671 92.2667 L 225.215 93.4042 L 224.759 94.5421 L 224.305 95.6804 L 223.863 96.8236 L 223.43 97.9704 L 223.015 99.1235 L 222.636 100.289 L 222.275 101.46 L 221.944 102.641 L 221.64 103.828 L 221.357 105.02 L 221.128 106.224 L 220.912 107.431 L 220.715 108.641 L 220.578 109.858 L 220.459 111.078 L 220.359 112.3 L 220.379 113.522 L 220.483 114.742 L 220.774 115.932 L 221.145 117.098 L 221.582 118.244" data-group="25" data-id="84" fill="none" stroke="#000" stroke-width="1"></path><path id="SvgjsPath1091" d="M 228.734 81.0544 L 228.583 82.4076 L 228.379 83.753 L 228.112 85.0872 L 227.765 86.4039 L 227.315 87.6884 L 226.818 88.9553 L 226.281 90.2066 L 225.709 91.4419 L 225.118 92.6685 L 224.528 93.8954 L 223.942 95.1247 L 223.357 96.354 L 222.81 97.6007 L 222.299 98.8624 L 221.826 100.139 L 221.401 101.432 L 220.994 102.732 L 220.607 104.037 L 220.244 105.349 L 219.915 106.671 L 219.61 107.997 L 219.33 109.33 L 219.082 110.668 L 218.869 112.013 L 218.684 113.362 L 218.528 114.714 L 218.417 116.071 L 218.336 117.43 L 218.279 118.79 L 218.244 120.152" data-group="25" data-id="85" fill="none" stroke="#000" stroke-width="1"></path><path id="SvgjsPath1092" d="M 205.848 75.3329 L 205.897 76.6787 L 205.929 78.025 L 205.946 79.3716 L 205.944 80.7183 L 205.899 82.0642 L 205.794 83.4065 L 205.626 84.7419 L 205.391 86.0673 L 205.071 87.3755 L 204.67 88.6607 L 204.216 89.9282 L 203.721 91.1803 L 203.195 92.4202 L 202.647 93.6502 L 202.084 94.8738 L 201.508 96.0908 L 200.917 97.301 L 200.305 98.5007 L 199.676 99.6917 L 199.032 100.874 L 198.373 102.048 L 197.693 103.211 L 196.994 104.362 L 196.277 105.502 L 195.543 106.631 L 194.788 107.746 L 194.004 108.841 L 193.2 109.922 L 192.379 110.989 L 191.544 112.046" data-group="26" data-id="87" fill="none" stroke="#000" stroke-width="1"></path><path id="SvgjsPath1093" d="M 205.371 74.3793 L 205.584 75.5476 L 205.782 76.7184 L 205.966 77.8918 L 206.114 79.0701 L 206.238 80.251 L 206.336 81.4345 L 206.378 82.6214 L 206.385 83.8085 L 206.359 84.9958 L 206.252 86.1786 L 206.099 87.3554 L 205.899 88.5261 L 205.612 89.6786 L 205.295 90.8226 L 204.946 91.9579 L 204.559 93.0806 L 204.157 94.198 L 203.74 95.3101 L 203.297 96.4119 L 202.842 97.5088 L 202.375 98.6009 L 201.889 99.6844 L 201.394 100.764 L 200.892 101.84 L 200.377 102.91 L 199.857 103.978 L 199.334 105.044 L 198.805 106.108 L 198.275 107.17 L 197.742 108.232" data-group="26" data-id="88" fill="none" stroke="#000" stroke-width="1"></path><path id="SvgjsPath1094" d="M 202.987 92.4973 L 202.237 94.026 L 201.411 95.5141 L 200.496 96.9491 L 199.504 98.3325 L 198.444 99.664 L 197.328 100.949 L 196.167 102.194 L 194.971 103.406 L 193.745 104.586 L 192.486 105.733 L 191.227 106.879 L 189.946 108.001 L 188.657 109.112 L 187.364 110.22 L 186.071 111.328 L 184.781 112.439 L 183.487 113.546 L 182.184 114.641 L 180.87 115.723 L 179.546 116.794 L 178.21 117.85 L 176.865 118.894 L 175.511 119.926 L 174.148 120.946 L 172.777 121.955 L 171.396 122.951 L 170.007 123.936 L 168.611 124.91 L 167.207 125.873 L 165.797 126.827" data-group="26" data-id="89" fill="none" stroke="#000" stroke-width="1"></path><path id="SvgjsPath1095" d="M 198.696 101.08 L 197.059 102.238 L 195.444 103.427 L 193.858 104.654 L 192.294 105.909 L 190.749 107.188 L 189.214 108.478 L 187.683 109.772 L 186.148 111.063 L 184.603 112.342 L 183.043 113.601 L 181.466 114.839 L 179.873 116.058 L 178.27 117.262 L 176.66 118.457 L 175.047 119.648 L 173.434 120.84 L 171.825 122.037 L 170.225 123.246 L 168.654 124.492 L 167.156 125.823 L 165.766 127.267 L 164.488 128.811 L 163.305 130.429 L 162.189 132.095 L 161.122 133.792 L 160.11 135.523 L 159.158 137.288 L 158.212 139.056 L 157.24 140.81 L 156.262 142.561" data-group="26" data-id="90" fill="none" stroke="#000" stroke-width="1"></path><path id="SvgjsPath1096" d="M 187.73 109.185 L 186.512 110.017 L 185.319 110.884 L 184.156 111.79 L 183.023 112.734 L 181.917 113.709 L 180.835 114.712 L 179.774 115.736 L 178.721 116.768 L 177.667 117.8 L 176.608 118.827 L 175.541 119.845 L 174.469 120.858 L 173.4 121.874 L 172.341 122.9 L 171.299 123.944 L 170.282 125.011 L 169.297 126.108 L 168.352 127.241 L 167.461 128.416 L 166.601 129.614 L 165.768 130.831 L 164.963 132.066 L 164.185 133.319 L 163.438 134.591 L 162.735 135.888 L 162.102 137.219 L 161.478 138.555 L 160.846 139.888 L 160.214 141.22 L 159.599 142.561" data-group="26" data-id="91" fill="none" stroke="#000" stroke-width="1"></path><path id="SvgjsPath1097" d="M 168.181 126.35 L 167.698 126.964 L 167.215 127.578 L 166.747 128.204 L 166.281 128.831 L 165.83 129.469 L 165.385 130.111 L 164.956 130.764 L 164.538 131.424 L 164.133 132.092 L 163.743 132.769 L 163.362 133.451 L 163.002 134.144 L 162.646 134.84 L 162.316 135.548 L 161.987 136.257 L 161.689 136.979 L 161.391 137.701 L 161.119 138.434 L 160.852 139.168 L 160.606 139.91 L 160.369 140.654 L 160.144 141.402 L 159.93 142.154 L 159.711 142.903 L 159.485 143.651 L 159.249 144.396 L 158.989 145.133 L 158.727 145.869 L 158.448 146.599 L 158.169 147.329" data-group="26" data-id="92" fill="none" stroke="#000" stroke-width="1"></path><path id="SvgjsPath1098" d="M 100.477 105.371 L 99.5991 106.615 L 98.7711 107.892 L 97.9989 109.204 L 97.2818 110.547 L 96.6222 111.918 L 96.0364 113.324 L 95.534 114.761 L 95.0991 116.22 L 94.7307 117.697 L 94.4275 119.188 L 94.1875 120.691 L 94.0087 122.204 L 93.8997 123.722 L 93.8497 125.244 L 93.872 126.765 L 93.9908 128.282 L 94.2352 129.783 L 94.635 131.252 L 95.2195 132.658 L 95.9203 134.008 L 96.7144 135.305 L 97.5976 136.544 L 98.5779 137.707 L 99.6679 138.77 L 100.84 139.742 L 102.072 140.635 L 103.371 141.424 L 104.739 142.087 L 106.165 142.619 L 107.629 143.037" data-group="27" data-id="107" fill="none" stroke="#000" stroke-width="1"></path><path id="SvgjsPath1099" d="M 95.7087 115.384 L 95.4605 116.807 L 95.2586 118.238 L 95.1093 119.674 L 95.0191 121.116 L 95.0232 122.561 L 95.1073 124.003 L 95.2679 125.438 L 95.5102 126.862 L 95.8583 128.264 L 96.3324 129.628 L 96.9161 130.947 L 97.6365 132.192 L 98.5466 133.315 L 99.4589 134.435 L 100.521 135.402 L 101.707 136.222 L 102.976 136.912 L 104.324 137.43 L 105.71 137.833 L 107.121 138.137 L 108.549 138.353 L 109.99 138.473 L 111.434 138.512 L 112.878 138.49 L 114.32 138.412 L 115.759 138.281 L 117.192 138.091 L 118.618 137.864 L 120.04 137.604 L 121.456 137.316" data-group="27" data-id="108" fill="none" stroke="#000" stroke-width="1"></path><path id="SvgjsPath1100" d="M 99.0467 136.362 L 99.5859 136.696 L 100.125 137.031 L 100.678 137.343 L 101.231 137.654 L 101.801 137.934 L 102.37 138.215 L 102.956 138.46 L 103.541 138.705 L 104.138 138.921 L 104.735 139.137 L 105.344 139.316 L 105.953 139.495 L 106.57 139.645 L 107.186 139.796 L 107.809 139.917 L 108.432 140.038 L 109.061 140.127 L 109.69 140.215 L 110.322 140.266 L 110.955 140.317 L 111.59 140.309 L 112.224 140.301 L 112.857 140.247 L 113.489 140.192 L 114.113 140.078 L 114.738 139.964 L 115.351 139.798 L 115.963 139.633 L 117.165 139.223" data-group="27" data-id="109" fill="none" stroke="#000" stroke-width="1"></path><path id="SvgjsPath1101" d="M 98.0927 136.839 L 98.6696 137.093 L 99.2465 137.347 L 99.8228 137.603 L 100.399 137.859 L 100.974 138.118 L 101.549 138.377 L 102.124 138.636 L 102.698 138.896 L 103.274 139.152 L 103.851 139.407 L 104.431 139.653 L 105.014 139.895 L 105.6 140.126 L 106.189 140.352 L 106.782 140.567 L 107.378 140.772 L 107.978 140.965 L 108.582 141.145 L 109.19 141.313 L 109.802 141.463 L 110.418 141.596 L 111.04 141.697 L 111.664 141.786 L 112.292 141.841 L 112.921 141.886 L 113.551 141.886 L 114.182 141.879 L 114.81 141.83 L 115.439 141.779 L 116.688 141.607" data-group="27" data-id="110" fill="none" stroke="#000" stroke-width="1"></path><path id="SvgjsPath1102" d="M 167.704 111.093 L 167.234 111.449 L 166.764 111.805 L 166.295 112.164 L 165.827 112.523 L 165.36 112.884 L 164.894 113.245 L 164.431 113.61 L 163.968 113.975 L 163.51 114.348 L 163.053 114.721 L 162.602 115.1 L 162.15 115.479 L 161.704 115.866 L 161.259 116.252 L 160.822 116.648 L 160.385 117.045 L 159.955 117.448 L 159.524 117.852 L 159.094 118.255 L 158.664 118.659 L 158.231 119.059 L 157.797 119.459 L 157.346 119.84 L 156.895 120.22 L 156.415 120.562 L 155.934 120.903 L 155.428 121.207 L 154.923 121.511 L 153.878 122.059" data-group="27" data-id="132" fill="none" stroke="#000" stroke-width="1"></path><path id="SvgjsPath1103" d="M 166.751 112.046 L 165.954 112.682 L 165.16 113.321 L 164.371 113.967 L 163.589 114.62 L 162.81 115.277 L 162.041 115.946 L 161.274 116.617 L 160.511 117.293 L 159.75 117.972 L 158.991 118.652 L 158.233 119.334 L 157.475 120.015 L 156.716 120.696 L 155.955 121.374 L 155.194 122.051 L 154.426 122.722 L 153.656 123.389 L 152.88 124.05 L 152.096 124.703 L 151.309 125.35 L 150.506 125.978 L 149.695 126.595 L 148.866 127.188 L 148.022 127.76 L 147.171 128.321 L 146.315 128.873 L 145.46 129.429 L 144.609 129.99 L 143.76 130.554 L 142.911 131.118" data-group="27" data-id="133" fill="none" stroke="#000" stroke-width="1"></path><path id="SvgjsPath1104" d="M 115.734 139.223 L 116.574 138.959 L 117.415 138.696 L 118.258 138.441 L 119.101 138.189 L 119.948 137.945 L 120.795 137.705 L 121.645 137.472 L 122.494 137.24 L 123.344 137.01 L 124.194 136.778 L 125.043 136.545 L 125.891 136.308 L 126.739 136.068 L 127.584 135.819 L 128.428 135.568 L 129.267 135.3 L 130.106 135.034 L 130.947 134.771 L 131.79 134.517 L 132.641 134.289 L 133.494 134.069 L 134.35 133.861 L 135.205 133.65 L 136.059 133.436 L 136.905 133.193 L 137.746 132.931 L 138.572 132.627 L 139.393 132.307 L 141.004 131.595" data-group="27" data-id="134" fill="none" stroke="#000" stroke-width="1"></path><path id="SvgjsPath1105" d="M 120.979 136.839 L 122.077 136.777 L 123.175 136.695 L 124.27 136.588 L 125.359 136.432 L 126.444 136.25 L 127.52 136.022 L 128.591 135.767 L 129.658 135.498 L 130.718 135.204 L 131.777 134.903 L 132.833 134.595 L 133.887 134.279 L 134.939 133.956 L 135.987 133.619 L 137.023 133.249 L 138.052 132.861 L 139.069 132.439 L 140.082 132.009 L 141.092 131.574 L 142.11 131.154 L 143.133 130.749 L 144.163 130.361 L 145.191 129.969 L 146.212 129.559 L 147.216 129.111 L 148.198 128.614 L 149.166 128.092 L 150.113 127.531 L 151.046 126.948 L 151.97 126.35" data-group="27" data-id="135" fill="none" stroke="#000" stroke-width="1"></path><path id="SvgjsPath1106" d="M 114.781 53.8773 L 114.932 54.6904 L 115.083 55.5034 L 115.21 56.3206 L 115.338 57.1377 L 115.436 57.9588 L 115.535 58.78 L 115.596 59.6047 L 115.657 60.4295 L 115.685 61.256 L 115.713 62.0826 L 115.721 62.9095 L 115.729 63.7365 L 115.739 64.5635 L 115.749 65.3904 L 115.786 66.2166 L 115.824 67.0428 L 115.92 67.8642 L 116.016 68.6856 L 116.199 69.4921 L 116.382 70.2986 L 116.615 71.0922 L 116.848 71.8857 L 117.024 72.6936 L 117.201 73.5015 L 117.356 74.3139 L 117.511 75.1263 L 117.665 75.9388 L 117.82 76.7512 L 118.118 78.3782" data-group="28" data-id="117" fill="none" stroke="#000" stroke-width="1"></path><path id="SvgjsPath1107" d="M 114.781 54.3541 L 114.8 55.2224 L 114.82 56.0906 L 114.851 56.9586 L 114.882 57.8265 L 114.928 58.6938 L 114.974 59.5611 L 115.035 60.4274 L 115.096 61.2938 L 115.164 62.1596 L 115.233 63.0253 L 115.305 63.8909 L 115.377 64.7564 L 115.447 65.622 L 115.518 66.4877 L 115.582 67.3538 L 115.646 68.2199 L 115.692 69.0872 L 115.737 69.9545 L 115.72 70.8227 L 115.698 71.6909 L 115.686 72.5593 L 115.674 73.4277 L 115.662 74.2961 L 115.65 75.1646 L 115.755 76.0258 L 115.873 76.8863 L 116.134 77.7133 L 116.409 78.5372 L 117.165 80.1008" data-group="28" data-id="120" fill="none" stroke="#000" stroke-width="1"></path><path id="SvgjsPath1108" d="M 233.502 80.1008 L 233.029 81.272 L 232.559 82.4442 L 232.091 83.6173 L 231.628 84.7921 L 231.169 85.9688 L 230.715 87.1471 L 230.266 88.3277 L 229.826 89.5113 L 229.391 90.6972 L 228.963 91.8854 L 228.548 93.078 L 228.14 94.2733 L 227.741 95.4716 L 227.363 96.6764 L 226.988 97.8825 L 226.62 99.0907 L 226.269 100.304 L 225.941 101.523 L 225.637 102.749 L 225.364 103.982 L 225.154 105.227 L 224.986 106.478 L 224.859 107.735 L 224.807 108.997 L 224.817 110.259 L 224.9 111.517 L 225.122 112.76 L 225.459 113.975 L 225.87 115.168 L 226.35 116.337" data-group="29" data-id="86" fill="none" stroke="#000" stroke-width="1"></path><path id="SvgjsPath1109" d="M 122.409 41.004 L 122.379 42.2951 L 122.349 43.5862 L 122.319 44.8773 L 122.289 46.1685 L 122.259 47.4596 L 122.229 48.7507 L 122.199 50.0418 L 122.169 51.3329 L 122.139 52.6241 L 122.109 53.9152 L 122.079 55.2063 L 122.049 56.4974 L 122.019 57.7885 L 121.989 59.0797 L 121.959 60.3708 L 121.929 61.6619 L 121.899 62.953 L 121.869 64.2441 L 121.839 65.5353 L 121.809 66.8264 L 121.779 68.1175 L 121.749 69.4086 L 121.719 70.6997 L 121.689 71.9909 L 121.659 73.282 L 121.629 74.5731 L 121.599 75.8642 L 121.569 77.1553 L 121.539 78.4465 L 121.509 79.7376 L 121.479 81.0287" data-group="30" data-id="118" fill="none" stroke="#000" stroke-width="1"></path><path id="SvgjsPath1110" d="M 143.865 186.425 L 144.606 185.56 L 145.321 184.676 L 145.952 183.728 L 146.507 182.738 L 146.981 181.702 L 147.319 180.619 L 147.603 179.516 L 147.693 178.382 L 147.753 177.245 L 147.724 176.107 L 147.617 174.977 L 147.402 173.859 L 147.072 172.772 L 146.683 171.702 L 146.277 170.638 L 145.873 169.574 L 145.497 168.499 L 145.115 167.426 L 144.723 166.357 L 144.306 165.298 L 143.872 164.245 L 143.4 163.209 L 142.916 162.178 L 142.324 161.205 L 141.687 160.266 L 140.925 159.42 L 140.087 158.658 L 139.173 157.978 L 138.192 157.404 L 137.19 156.864" data-group="31" data-id="94" fill="none" stroke="#000" stroke-width="1"></path><path id="SvgjsPath1111" d="M 145.772 184.041 L 146.677 183.07 L 147.497 182.032 L 148.229 180.925 L 148.72 179.692 L 149.053 178.416 L 149.236 177.102 L 149.192 175.775 L 149.044 174.46 L 148.797 173.156 L 148.384 171.895 L 147.89 170.665 L 147.32 169.467 L 146.627 168.335 L 145.895 167.228 L 145.129 166.144 L 144.339 165.077 L 143.535 164.021 L 142.716 162.977 L 141.838 161.981 L 140.919 161.025 L 139.959 160.108 L 138.866 159.355 L 137.754 158.632 L 136.623 157.937 L 135.416 157.385 L 134.185 156.892 L 132.931 156.455 L 131.657 156.083 L 130.375 155.743 L 129.084 155.434" data-group="31" data-id="95" fill="none" stroke="#000" stroke-width="1"></path><path id="SvgjsPath1112" d="M 139.574 159.248 L 140.436 160.059 L 141.305 160.862 L 142.185 161.655 L 143.08 162.428 L 143.986 163.191 L 144.91 163.931 L 145.852 164.647 L 146.803 165.352 L 147.754 166.058 L 148.679 166.795 L 149.579 167.564 L 150.374 168.44 L 151.094 169.372 L 151.678 170.402 L 152.26 171.433 L 152.809 172.478 L 153.178 173.603 L 153.425 174.756 L 153.577 175.93 L 153.582 177.113 L 153.544 178.295 L 153.443 179.475 L 153.277 180.646 L 153.059 181.808 L 152.721 182.943 L 152.32 184.055 L 151.867 185.147 L 151.175 186.107 L 150.411 187.006 L 149.586 187.856" data-group="31" data-id="96" fill="none" stroke="#000" stroke-width="1"></path><path id="SvgjsPath1113" d="M 142.435 163.539 L 139.712 161.253 L 136.823 159.185 L 133.746 157.41 L 130.504 155.956 L 127.155 154.769 L 123.73 153.824 L 120.253 153.088 L 116.744 152.528 L 113.213 152.121 L 109.669 151.846 L 106.118 151.677 L 102.565 151.593 L 99.0099 151.573 L 95.4551 151.601 L 91.9018 151.704 L 88.3644 152.052 L 84.8542 152.612 L 81.37 153.317 L 77.904 154.107 L 74.4417 154.912 L 70.9691 155.672 L 67.4838 156.371 L 63.9721 156.913 L 60.4324 157.218 L 56.8841 157.162 L 53.5752 156.055 L 52.1219 153.094 L 52.5404 149.609 L 53.6 146.219 L 55.1817 143.038" data-group="31" data-id="97" fill="none" stroke="#000" stroke-width="1"></path><path id="SvgjsPath1114" d="M 54.1822 157.164 L 54.3617 157.333 L 54.5423 157.5 L 54.7434 157.642 L 54.9452 157.783 L 55.1539 157.914 L 55.3635 158.043 L 55.5775 158.165 L 55.7952 158.279 L 56.0232 158.372 L 56.2537 158.459 L 56.4894 158.53 L 56.7259 158.598 L 56.9638 158.662 L 57.2045 158.712 L 57.4486 158.744 L 57.6929 158.775 L 57.9374 158.805 L 58.1826 158.827 L 58.4282 158.844 L 58.6742 158.856 L 58.9203 158.865 L 59.1665 158.867 L 59.4128 158.865 L 59.6591 158.865 L 59.9053 158.864 L 60.1513 158.853 L 60.3973 158.841 L 60.643 158.824 L 60.8887 158.807 L 61.38 158.772" data-group="31" data-id="100" fill="none" stroke="#000" stroke-width="1"></path><path id="SvgjsPath1115" d="M 58.5192 159.725 L 59.9194 159.459 L 61.3193 159.192 L 62.7189 158.924 L 64.1181 158.653 L 65.517 158.381 L 66.9146 158.102 L 68.3111 157.818 L 69.7063 157.527 L 71.1 157.229 L 72.492 156.924 L 73.8812 156.606 L 75.2679 156.277 L 76.6517 155.936 L 78.0317 155.581 L 79.4073 155.208 L 80.7773 154.815 L 82.1464 154.42 L 83.518 154.033 L 84.8951 153.666 L 86.2805 153.332 L 87.6801 153.064 L 89.0894 152.854 L 90.5059 152.702 L 91.9273 152.601 L 93.3513 152.544 L 94.7764 152.532 L 96.2015 152.531 L 97.6266 152.537 L 99.0517 152.55 L 100.477 152.573" data-group="31" data-id="101" fill="none" stroke="#000" stroke-width="1"></path><path id="SvgjsPath1116" d="M 155.807 179.48 L 152.508 182.943 L 149.287 186.48 L 146.161 190.1 L 143.186 193.845 L 140.392 197.727 L 137.77 201.727 L 135.295 205.82 L 132.957 209.992 L 130.745 214.234 L 128.647 218.532 L 126.649 222.878 L 124.739 227.263 L 122.906 231.681 L 121.149 236.13 L 119.469 240.609 L 117.868 245.116 L 116.349 249.652 L 114.913 254.215 L 113.565 258.804 L 112.306 263.418 L 111.139 268.057 L 110.067 272.718 L 109.092 277.401 L 108.218 282.104 L 107.448 286.825 L 106.783 291.562 L 106.23 296.313 L 105.8 301.077 L 105.483 305.85 L 105.254 310.628" data-group="31" data-id="0" fill="none" stroke="#000" stroke-width="1"></path><path id="SvgjsPath1117" d="M 153.419 178.778 L 150.205 181.973 L 147.07 185.247 L 144.038 188.615 L 141.125 192.087 L 138.323 195.648 L 135.629 199.293 L 133.041 203.013 L 130.56 206.806 L 128.185 210.665 L 125.915 214.588 L 123.747 218.567 L 121.679 222.6 L 119.714 226.684 L 117.846 230.813 L 116.075 234.985 L 114.402 239.197 L 112.836 243.449 L 111.397 247.746 L 110.103 252.089 L 108.962 256.475 L 107.976 260.898 L 107.152 265.354 L 106.497 269.838 L 106.024 274.345 L 105.741 278.868 L 105.676 283.399 L 105.825 287.928 L 106.049 292.455 L 106.25 296.983 L 106.448 301.511" data-group="31" data-id="1" fill="none" stroke="#000" stroke-width="1"></path><path id="SvgjsPath1118" d="M 150.235 177.025 L 147.392 180.953 L 144.574 184.9 L 141.784 188.867 L 139.041 192.866 L 136.373 196.916 L 133.797 201.025 L 131.342 205.207 L 129.027 209.468 L 126.847 213.8 L 124.727 218.162 L 122.644 222.541 L 120.61 226.943 L 118.641 231.375 L 116.752 235.842 L 114.962 240.349 L 113.288 244.9 L 111.751 249.5 L 110.368 254.148 L 109.107 258.83 L 107.908 263.529 L 106.762 268.242 L 105.683 272.969 L 104.681 277.714 L 103.772 282.478 L 102.968 287.26 L 102.288 292.062 L 101.753 296.882 L 101.437 301.721 L 101.166 306.563 L 100.832 311.401 L 100.477 316.238" data-group="31" data-id="2" fill="none" stroke="#000" stroke-width="1"></path><path id="SvgjsPath1119" d="M 58.5192 132.071 L 58.1627 132.854 L 57.8062 133.638 L 57.4663 134.429 L 57.1264 135.22 L 56.8091 136.02 L 56.4918 136.821 L 56.1966 137.629 L 55.9014 138.438 L 55.6162 139.25 L 55.3311 140.063 L 55.0486 140.876 L 54.7661 141.689 L 54.4787 142.501 L 54.1913 143.312 L 53.8938 144.12 L 53.5962 144.928 L 53.3001 145.736 L 53.0041 146.545 L 52.7415 147.365 L 52.4793 148.185 L 52.2683 149.019 L 52.058 149.854 L 51.8699 150.694 L 51.6821 151.535 L 51.4515 152.364 L 51.2202 153.193 L 50.9218 154.001 L 50.6225 154.808 L 49.937 156.388" data-group="31" data-id="98" fill="none" stroke="#000" stroke-width="1"></path><path id="SvgjsPath1120" d="M 55.6585 136.839 L 55.3024 137.453 L 54.9464 138.067 L 54.627 138.701 L 54.3078 139.336 L 54.0368 139.992 L 53.7664 140.648 L 53.5519 141.325 L 53.3384 142.002 L 53.1697 142.692 L 53.0022 143.382 L 52.8827 144.082 L 52.765 144.782 L 52.6766 145.486 L 52.5896 146.191 L 52.5275 146.898 L 52.4667 147.606 L 52.4265 148.315 L 52.3876 149.024 L 52.3655 149.733 L 52.3448 150.443 L 52.3764 151.152 L 52.4125 151.861 L 52.4745 152.568 L 52.539 153.275 L 52.6963 153.967 L 52.8635 154.657 L 53.1461 155.308 L 53.4377 155.955 L 54.1822 157.164" data-group="31" data-id="99" fill="none" stroke="#000" stroke-width="1"></path><path id="SvgjsPath1121" d="M 58.7705 149.197 L 58.9457 149.434 L 59.1225 149.67 L 59.3214 149.887 L 59.5212 150.104 L 59.7393 150.302 L 59.9574 150.501 L 60.1743 150.7 L 60.3911 150.9 L 60.6371 151.062 L 60.8835 151.224 L 61.1694 151.296 L 61.4555 151.367 L 61.7416 151.438 L 62.0277 151.509 L 62.3216 151.532 L 62.6156 151.554 L 62.9097 151.535 L 63.2039 151.515 L 63.4979 151.493 L 63.7919 151.471 L 64.0803 151.411 L 64.3687 151.35 L 64.6526 151.27 L 64.9364 151.19 L 65.2212 151.114 L 65.506 151.038 L 65.7876 150.951 L 66.0692 150.863 L 66.6247 150.666" data-group="32" data-id="103" fill="none" stroke="#000" stroke-width="1"></path><path id="SvgjsPath1122" d="M 61.8567 152.097 L 63.0691 151.745 L 64.2851 151.406 L 65.5038 151.077 L 66.7234 150.751 L 67.9563 150.483 L 69.1968 150.25 L 70.4434 150.051 L 71.6794 149.796 L 72.903 149.489 L 74.1122 149.127 L 75.2974 148.692 L 76.4816 148.255 L 77.6674 147.822 L 78.8664 147.427 L 80.0767 147.069 L 81.2946 146.738 L 82.5202 146.436 L 83.7523 146.161 L 84.9875 145.901 L 86.2254 145.653 L 87.466 145.42 L 88.7073 145.19 L 89.9488 144.962 L 91.1899 144.731 L 92.4293 144.492 L 93.6664 144.241 L 94.8993 143.97 L 96.1261 143.672 L 97.3495 143.361 L 98.5697 143.038" data-group="32" data-id="104" fill="none" stroke="#000" stroke-width="1"></path><path id="SvgjsPath1123" d="M 59.9496 113.477 L 60.089 114.674 L 60.2073 115.874 L 60.3042 117.076 L 60.3473 118.28 L 60.3596 119.486 L 60.3398 120.691 L 60.2718 121.895 L 60.1824 123.097 L 60.0705 124.297 L 59.9237 125.494 L 59.7624 126.689 L 59.5858 127.881 L 59.3884 129.071 L 59.1832 130.259 L 58.9698 131.445 L 58.7497 132.631 L 58.5317 133.817 L 58.3169 135.003 L 58.1207 136.193 L 57.9421 137.385 L 57.785 138.58 L 57.6818 139.781 L 57.5972 140.984 L 57.5325 142.188 L 57.474 143.392 L 57.4771 144.595 L 57.568 145.798 L 57.8814 146.96 L 58.2848 148.093 L 58.7705 149.197" data-group="32" data-id="102" fill="none" stroke="#000" stroke-width="1"></path><path id="SvgjsPath1124" d="M 100.477 104.894 L 99.0684 105.934 L 97.6799 107.001 L 96.3136 108.096 L 94.9682 109.216 L 93.6537 110.373 L 92.3719 111.566 L 91.1269 112.797 L 89.924 114.069 L 88.7696 115.385 L 87.6715 116.748 L 86.639 118.162 L 85.6833 119.628 L 84.8177 121.149 L 84.0577 122.725 L 83.4205 124.354 L 82.9241 126.031 L 82.5866 127.747 L 82.428 129.488 L 82.4722 131.235 L 82.7361 132.963 L 83.2143 134.644 L 83.8859 136.259 L 84.7349 137.788 L 85.7505 139.212 L 86.925 140.507 L 88.2538 141.644 L 89.7399 142.567 L 91.3331 143.29 L 93.0206 143.755 L 94.7557 143.991" data-group="33" data-id="105" fill="none" stroke="#000" stroke-width="1"></path><path id="SvgjsPath1125" d="M 94.2787 105.848 L 93.3117 107.253 L 92.3741 108.678 L 91.4726 110.126 L 90.6134 111.599 L 89.7963 113.097 L 89.0177 114.614 L 88.2771 116.151 L 87.5782 117.707 L 86.9193 119.281 L 86.3024 120.871 L 85.7236 122.476 L 85.1729 124.09 L 84.6523 125.715 L 84.178 127.353 L 83.7426 129.003 L 83.3739 130.668 L 83.1261 132.355 L 83.0259 134.056 L 83.0663 135.759 L 83.2326 137.456 L 83.5305 139.133 L 83.9988 140.774 L 84.537 142.393 L 85.2663 143.933 L 86.208 145.349 L 87.3808 146.574 L 88.7981 147.48 L 90.4156 147.972 L 92.114 148.053 L 93.8017 147.805" data-group="33" data-id="106" fill="none" stroke="#000" stroke-width="1"></path><path id="SvgjsPath1126" d="M 73.7767 64.8435 L 74.571 65.3865 L 75.3684 65.9251 L 76.1752 66.4495 L 76.9894 66.9621 L 77.8119 67.4615 L 78.6455 67.942 L 79.4837 68.4146 L 80.331 68.8708 L 81.1799 69.3238 L 82.0342 69.7667 L 82.8899 70.2068 L 83.7477 70.6427 L 84.6065 71.0768 L 85.4659 71.5097 L 86.3283 71.9366 L 87.1927 72.3592 L 88.0694 72.7558 L 88.9527 73.1368 L 89.8483 73.4888 L 90.7498 73.825 L 91.6555 74.1499 L 92.562 74.4727 L 93.4683 74.796 L 94.3684 75.1364 L 95.2623 75.4917 L 96.1413 75.8832 L 97.006 76.3042 L 97.8577 76.7519 L 98.6928 77.2297 L 99.5227 77.7168" data-group="34" data-id="111" fill="none" stroke="#000" stroke-width="1"></path><path id="SvgjsPath1127" d="M 77.5907 66.2739 L 78.4694 66.7398 L 79.3465 67.2088 L 80.2204 67.6838 L 81.0899 68.1668 L 81.9571 68.6537 L 82.8177 69.1525 L 83.6769 69.6534 L 84.5337 70.1586 L 85.3891 70.6661 L 86.2439 71.1747 L 87.0983 71.6839 L 87.9532 72.1922 L 88.8091 72.6989 L 89.6671 73.202 L 90.5261 73.7033 L 91.39 74.1963 L 92.2561 74.6854 L 93.1264 75.1668 L 94.0023 75.638 L 94.8811 76.1039 L 95.7489 76.5898 L 96.6001 77.1025 L 97.4174 77.6693 L 98.2169 78.2606 L 99.0074 78.8642 L 99.7853 79.4841 L 100.561 80.107 L 101.331 80.7359 L 102.097 81.3705 L 102.861 82.0079" data-group="34" data-id="112" fill="none" stroke="#000" stroke-width="1"></path><path id="SvgjsPath1128" d="M 86.6497 65.3203 L 87.2017 65.635 L 87.7537 65.9498 L 88.3004 66.2738 L 88.847 66.5979 L 89.386 66.9344 L 89.9251 67.2709 L 90.4568 67.6189 L 90.9885 67.9669 L 91.5173 68.3193 L 92.0461 68.6718 L 92.5765 69.0216 L 93.107 69.3715 L 93.6428 69.7131 L 94.1787 70.0547 L 94.7214 70.3852 L 95.2642 70.7157 L 95.8119 71.0379 L 96.3596 71.3601 L 96.9071 71.6827 L 97.4546 72.0053 L 97.9846 72.3559 L 98.5146 72.7065 L 99.0371 73.0681 L 99.5596 73.4298 L 100.095 73.7725 L 100.63 74.115 L 101.182 74.4293 L 101.735 74.7435 L 102.861 75.3329" data-group="35" data-id="115" fill="none" stroke="#000" stroke-width="1"></path><path id="SvgjsPath1129" d="M 87.6037 64.8435 L 88.3626 65.3842 L 89.1231 65.9226 L 89.8888 66.4535 L 90.6591 66.9778 L 91.4344 67.4946 L 92.2151 68.0033 L 92.9979 68.5087 L 93.781 69.0137 L 94.5633 69.52 L 95.3418 70.032 L 96.1164 70.5499 L 96.8852 71.0763 L 97.6435 71.6177 L 98.396 72.1673 L 99.1262 72.7459 L 99.8494 73.3333 L 100.542 73.9567 L 101.221 74.5946 L 101.874 75.2592 L 102.514 75.9365 L 103.144 76.6227 L 103.794 77.2906 L 104.451 77.9508 L 105.162 78.5527 L 105.882 79.1441 L 106.622 79.7102 L 107.355 80.2854 L 108.082 80.8687 L 109.536 82.0345" data-group="35" data-id="116" fill="none" stroke="#000" stroke-width="1"></path><path id="SvgjsPath1130" d="M 122.409 85.3455 L 122.46 85.7776 L 122.511 86.2098 L 122.587 86.6383 L 122.663 87.0668 L 122.77 87.4887 L 122.877 87.9106 L 123.001 88.3278 L 123.125 88.7449 L 123.264 89.1572 L 123.404 89.5695 L 123.571 89.9712 L 123.738 90.3729 L 123.914 90.7709 L 124.091 91.1688 L 124.284 91.5586 L 124.478 91.9483 L 124.695 92.3255 L 124.912 92.7026 L 125.141 93.0729 L 125.37 93.443 L 125.639 93.7847 L 125.909 94.1259 L 126.21 94.44 L 126.52 94.745 L 126.857 95.0206 L 127.194 95.2963 L 127.547 95.5503 L 127.901 95.804 L 128.254 96.0578 L 128.608 96.3116" data-group="36" data-id="119" fill="none" stroke="#000" stroke-width="1"></path><path id="SvgjsPath1131" d="M 121.933 85.3455 L 122.119 85.6532 L 122.304 85.9609 L 122.491 86.268 L 122.678 86.5751 L 122.867 86.881 L 123.056 87.1868 L 123.248 87.4909 L 123.439 87.795 L 123.632 88.0987 L 123.824 88.4025 L 124.018 88.7052 L 124.212 89.008 L 124.406 89.3102 L 124.601 89.6124 L 124.797 89.9142 L 124.992 90.2159 L 125.188 90.5176 L 125.383 90.8192 L 125.579 91.1207 L 125.775 91.4221 L 125.971 91.7233 L 126.167 92.0245 L 126.359 92.3287 L 126.55 92.633 L 126.788 92.9018 L 127.034 93.1644 L 127.296 93.4101 L 127.562 93.6519 L 127.836 93.8843 L 128.111 94.1167" data-group="36" data-id="121" fill="none" stroke="#000" stroke-width="1"></path><path id="SvgjsPath1132" d="M 128.111 94.1167 L 128.31 94.2262 L 128.51 94.3357 L 128.723 94.4159 L 128.937 94.4959 L 129.154 94.5637 L 129.372 94.6313 L 129.589 94.6988 L 129.807 94.766 L 130.031 94.8057 L 130.256 94.8454 L 130.482 94.87 L 130.709 94.8945 L 130.935 94.9189 L 131.162 94.9431 L 131.39 94.9473 L 131.617 94.9516 L 131.845 94.9526 L 132.073 94.9535 L 132.301 94.9544 L 132.529 94.9552 L 132.756 94.9487 L 132.984 94.9421 L 133.212 94.9369 L 133.44 94.9311 L 133.667 94.9235 L 133.895 94.916 L 134.123 94.9074 L 134.35 94.8988 L 134.578 94.8902 L 134.806 94.8816" data-group="36" data-id="122" fill="none" stroke="#000" stroke-width="1"></path><path id="SvgjsPath1133" d="M 125.747 94.4046 L 126.754 94.7159 L 127.766 95.0125 L 128.791 95.2613 L 129.823 95.4793 L 130.861 95.6622 L 131.91 95.7575 L 132.963 95.8158 L 134.018 95.8275 L 135.073 95.8346 L 136.127 95.8346 L 137.182 95.8326 L 138.237 95.8278 L 139.291 95.8229 L 140.346 95.8181 L 141.401 95.7995 L 142.455 95.7778 L 143.509 95.7477 L 144.564 95.7153 L 145.618 95.6789 L 146.672 95.6407 L 147.726 95.6012 L 148.78 95.5617 L 149.834 95.5224 L 150.888 95.486 L 151.942 95.452 L 152.996 95.424 L 154.051 95.401 L 155.105 95.3825 L 156.16 95.3692 L 157.215 95.3576" data-group="36" data-id="123" fill="none" stroke="#000" stroke-width="1"></path><path id="SvgjsPath1134" d="M 154.831 96.7886 L 155.923 96.7911 L 157.016 96.7938 L 158.108 96.797 L 159.201 96.801 L 160.293 96.8054 L 161.386 96.8101 L 162.479 96.8142 L 163.571 96.8178 L 164.664 96.8198 L 165.756 96.8204 L 166.849 96.8196 L 167.941 96.8152 L 169.034 96.807 L 170.126 96.7922 L 171.218 96.751 L 172.309 96.6885 L 173.395 96.5712 L 174.476 96.4177 L 175.555 96.2428 L 176.635 96.0817 L 177.719 95.9507 L 178.808 95.8544 L 179.898 95.7863 L 180.988 95.706 L 182.074 95.5897 L 183.146 95.3867 L 184.208 95.1331 L 185.241 94.7766 L 186.254 94.3704 L 187.253 93.9276" data-group="36" data-id="128" fill="none" stroke="#000" stroke-width="1"></path><path id="SvgjsPath1135" d="M 147.679 96.3116 L 148.975 96.3216 L 150.271 96.3353 L 151.567 96.353 L 152.863 96.3781 L 154.159 96.4093 L 155.455 96.4443 L 156.751 96.4826 L 158.046 96.523 L 159.342 96.5638 L 160.638 96.6047 L 161.933 96.6435 L 163.229 96.6798 L 164.525 96.7132 L 165.821 96.741 L 167.117 96.7583 L 168.413 96.7715 L 169.71 96.7846 L 171.006 96.7786 L 172.302 96.7541 L 173.597 96.7093 L 174.89 96.6127 L 176.179 96.4779 L 177.463 96.3023 L 178.735 96.0541 L 179.99 95.7337 L 181.226 95.3468 L 182.43 94.8654 L 183.589 94.2864 L 184.719 93.6545 L 185.823 92.9741" data-group="36" data-id="129" fill="none" stroke="#000" stroke-width="1"></path><path id="SvgjsPath1136" d="M 141.958 35.7593 L 141.829 36.4868 L 141.701 37.2144 L 141.584 37.9439 L 141.469 38.6737 L 141.366 39.4052 L 141.268 40.1375 L 141.182 40.8711 L 141.105 41.6059 L 141.036 42.3414 L 140.979 43.078 L 140.927 43.8149 L 140.891 44.5528 L 140.858 45.2908 L 140.846 46.0295 L 140.833 46.7682 L 140.847 47.5068 L 140.862 48.2455 L 140.901 48.9832 L 140.945 49.7207 L 141.009 50.4566 L 141.081 51.1918 L 141.171 51.925 L 141.274 52.6566 L 141.393 53.3854 L 141.534 54.1106 L 141.684 54.8338 L 141.858 55.5518 L 142.036 56.2689 L 142.435 57.6916" data-group="36" data-id="124" fill="none" stroke="#000" stroke-width="1"></path><path id="SvgjsPath1137" d="M 141.004 38.1433 L 140.774 39.7318 L 140.577 41.3247 L 140.419 42.9218 L 140.308 44.5228 L 140.251 46.1266 L 140.252 47.7317 L 140.336 49.3346 L 140.502 50.9305 L 140.769 52.5119 L 141.159 54.0664 L 141.699 55.5749 L 142.421 57.0083 L 143.361 58.3097 L 144.349 59.574 L 145.348 60.8301 L 146.413 62.0256 L 147.613 63.0873 L 148.939 63.9916 L 150.322 64.8071 L 151.798 65.4272 L 153.324 65.9212 L 154.884 66.2823 L 156.475 66.4886 L 158.078 66.5691 L 159.683 66.548 L 161.288 66.5123 L 162.892 66.458 L 164.496 66.3959 L 166.1 66.3363 L 167.704 66.2739" data-group="36" data-id="125" fill="none" stroke="#000" stroke-width="1"></path><path id="SvgjsPath1138" d="M 165.321 66.2739 L 166.444 66.1219 L 167.57 65.9926 L 168.699 65.886 L 169.832 65.8335 L 170.965 65.8181 L 172.099 65.8399 L 173.228 65.9412 L 174.352 66.0847 L 175.47 66.2704 L 176.572 66.5388 L 177.663 66.8453 L 178.743 67.1899 L 179.8 67.6 L 180.845 68.0374 L 181.88 68.5022 L 182.887 69.0224 L 183.877 69.5745 L 184.848 70.1586 L 185.778 70.8076 L 186.686 71.4861 L 187.572 72.1939 L 188.412 72.9552 L 189.228 73.7412 L 190.021 74.5521 L 190.762 75.4099 L 191.471 76.2937 L 192.148 77.2035 L 192.765 78.1544 L 193.359 79.1202 L 193.928 80.1008" data-group="36" data-id="126" fill="none" stroke="#000" stroke-width="1"></path><path id="SvgjsPath1139" d="M 185.823 71.0418 L 186.673 71.659 L 187.518 72.283 L 188.324 72.9566 L 189.118 73.6442 L 189.872 74.3763 L 190.591 75.14 L 191.248 75.9594 L 191.807 76.841 L 192.262 77.7882 L 192.546 78.7905 L 192.73 79.8249 L 192.781 80.8716 L 192.788 81.9222 L 192.521 82.9348 L 192.223 83.942 L 191.806 84.9063 L 191.382 85.8676 L 190.923 86.8126 L 190.449 87.7503 L 189.94 88.6693 L 189.41 89.5762 L 188.85 90.4648 L 188.272 91.3424 L 187.679 92.2097 L 187.071 93.0666 L 186.455 93.9178 L 185.828 94.761 L 185.198 95.6018 L 184.557 96.4343 L 183.915 97.2656" data-group="36" data-id="127" fill="none" stroke="#000" stroke-width="1"></path><path id="SvgjsPath1140" d="M 161.983 105.371 L 162.176 105.561 L 162.369 105.752 L 162.565 105.939 L 162.762 106.126 L 162.966 106.305 L 163.17 106.483 L 163.382 106.653 L 163.593 106.823 L 163.807 106.991 L 164.021 107.158 L 164.241 107.317 L 164.46 107.476 L 164.682 107.632 L 164.904 107.788 L 165.128 107.942 L 165.351 108.096 L 165.571 108.255 L 165.791 108.414 L 166.008 108.576 L 166.226 108.738 L 166.435 108.911 L 166.644 109.084 L 166.846 109.265 L 167.047 109.448 L 167.241 109.637 L 167.435 109.827 L 167.622 110.024 L 167.808 110.221 L 167.994 110.418 L 168.181 110.616" data-group="37" data-id="130" fill="none" stroke="#000" stroke-width="1"></path><path id="SvgjsPath1141" d="M 118.118 94.8816 L 118.918 95.6855 L 119.746 96.4601 L 120.607 97.1992 L 121.534 97.8533 L 122.489 98.4628 L 123.484 99.0084 L 124.504 99.5046 L 125.536 99.9771 L 126.582 100.415 L 127.639 100.828 L 128.701 101.227 L 129.771 101.604 L 130.847 101.966 L 131.926 102.317 L 133.015 102.633 L 134.111 102.927 L 135.213 103.198 L 136.325 103.424 L 137.441 103.629 L 138.561 103.808 L 139.687 103.95 L 140.814 104.075 L 141.945 104.173 L 143.077 104.247 L 144.21 104.308 L 145.344 104.349 L 146.478 104.378 L 147.613 104.399 L 148.747 104.41 L 149.882 104.416 L 151.017 104.417" data-group="37" data-id="113" fill="none" stroke="#000" stroke-width="1"></path><path id="SvgjsPath1142" d="M 119.072 95.3576 L 120.224 96.2958 L 121.425 97.1682 L 122.682 97.9584 L 123.993 98.6534 L 125.357 99.2431 L 126.762 99.7267 L 128.187 100.143 L 129.629 100.502 L 131.081 100.813 L 132.542 101.083 L 134.011 101.309 L 135.479 101.535 L 136.949 101.755 L 138.418 101.972 L 139.887 102.201 L 141.351 102.452 L 142.815 102.705 L 144.279 102.956 L 145.744 103.204 L 147.21 103.446 L 148.678 103.676 L 150.148 103.894 L 151.619 104.098 L 153.093 104.286 L 154.569 104.457 L 156.048 104.598 L 157.53 104.711 L 159.013 104.795 L 160.497 104.855 L 161.983 104.894" data-group="37" data-id="114" fill="none" stroke="#000" stroke-width="1"></path><path id="SvgjsPath1143" d="M 158.169 105.371 L 158.505 105.413 L 158.841 105.456 L 159.176 105.511 L 159.51 105.566 L 159.84 105.642 L 160.17 105.718 L 160.495 105.817 L 160.819 105.915 L 161.14 106.023 L 161.461 106.132 L 161.775 106.261 L 162.088 106.389 L 162.392 106.539 L 162.696 106.689 L 162.993 106.852 L 163.291 107.015 L 163.58 107.191 L 163.87 107.367 L 164.154 107.552 L 164.438 107.736 L 164.719 107.926 L 165 108.116 L 165.279 108.308 L 165.558 108.5 L 165.837 108.693 L 166.115 108.887 L 166.394 109.08 L 166.672 109.274 L 167.228 109.662" data-group="37" data-id="131" fill="none" stroke="#000" stroke-width="1"></path><path id="SvgjsPath1144" d="M 231.639 62.468 L 230.854 62.7754 L 230.076 63.0997 L 229.308 63.448 L 228.566 63.8484 L 227.838 64.2731 L 227.136 64.7401 L 226.45 65.2297 L 225.774 65.733 L 225.115 66.2593 L 224.463 66.7939 L 223.819 67.3382 L 223.182 67.8914 L 222.559 68.4587 L 221.967 69.0591 L 221.42 69.6993 L 220.904 70.3648 L 220.484 71.096 L 220.245 71.8831 L 220.179 72.7238 L 220.464 73.5166 L 220.806 74.2842 L 221.226 75.0155 L 221.673 75.7298 L 222.137 76.4336 L 222.634 77.1146 L 223.241 77.6891 L 223.922 78.1687 L 224.764 78.2117 L 226.35 77.7168" data-group="38" data-id="54" fill="none" stroke="#000" stroke-width="1"></path><path id="SvgjsPath1145" d="M 243.037 59.5988 L 242.202 59.7516 L 241.367 59.9044 L 240.535 60.0716 L 239.703 60.2392 L 238.874 60.4237 L 238.046 60.6092 L 237.223 60.8161 L 236.4 61.0248 L 235.583 61.2548 L 234.767 61.4874 L 233.959 61.747 L 233.152 62.0107 L 232.359 62.314 L 231.569 62.6245 L 230.795 62.9712 L 230.024 63.3257 L 229.271 63.7175 L 228.523 64.1188 L 227.802 64.5652 L 227.088 65.025 L 226.417 65.5421 L 225.759 66.0788 L 225.146 66.6646 L 224.55 67.2689 L 224.101 67.9794 L 223.714 68.7347 L 223.581 69.5596 L 223.53 70.4068 L 223.703 71.2357 L 223.892 72.0632" data-group="38" data-id="55" fill="none" stroke="#000" stroke-width="1"></path><path id="SvgjsPath1146" d="M 251.143 59.122 L 250.539 58.7634 L 249.935 58.4048 L 249.296 58.1158 L 248.65 57.8404 L 247.978 57.6445 L 247.294 57.4843 L 246.601 57.3944 L 245.899 57.3658 L 245.198 57.3709 L 244.499 57.433 L 243.801 57.5087 L 243.111 57.6377 L 242.421 57.7682 L 241.742 57.947 L 241.063 58.1257 L 240.39 58.327 L 239.718 58.5318 L 239.049 58.7435 L 238.38 58.9583 L 237.711 59.1729 L 237.043 59.3874 L 236.374 59.6022 L 235.706 59.8175 L 235.043 60.048 L 234.409 60.3498 L 233.779 60.6573 L 233.214 61.0747 L 232.649 61.4921 L 232.144 61.9799 L 231.639 62.468" data-group="38" data-id="53" fill="none" stroke="#000" stroke-width="1"></path></svg>