<?xml version="1.0" encoding="utf-8"?>
<!-- Generator: Adobe Illustrator 26.3.1, SVG Export Plug-In . SVG Version: 6.00 Build 0)  -->
<svg version="1.1" id="SvgjsSvg1001" xmlns:svgjs="http://svgjs.com/svgjs"
	 xmlns="http://www.w3.org/2000/svg" xmlns:xlink="http://www.w3.org/1999/xlink" x="0px" y="0px" viewBox="0 0 337 318.6"
	 style="enable-background:new 0 0 337 318.6;" xml:space="preserve">
<style type="text/css">
	.st0{fill:none;stroke:#000000;}
</style>
<path id="SvgjsPath1008" class="st0" d="M155.9,170l0.3,4.4l0.3,4.4l0.4,4.4l0.3,4.4l0.3,4.4l0.3,4.4l0.3,4.4l0.2,4.4l0.2,4.4
	l0.1,4.4l0.1,4.4l0,4.4l0,4.4v4.4v4.4v4.4v4.4v4.4v4.4v4.4v4.4v4.4v4.4v4.4v4.4v4.4v4.4v4.4v4.4v4.4"/>
<path id="SvgjsPath1009" class="st0" d="M156.2,172.6l0.1,4.2l0.2,4.2l0.2,4.2l0.3,4.2l0.4,4.1l0.4,4.1l0.4,4.1l0.3,4.2l0.3,4.2
	l0.2,4.2l0.2,4.2l0.2,4.2l0.2,4.2l0.2,4.2l0.2,4.2l0.2,4.2l0.1,4.2l0.1,4.2l0.1,4.2l0,4.2l0,4.2l-0.1,4.2l-0.1,4.2l-0.1,4.2
	l-0.2,4.2l-0.2,4.2l-0.2,4.2l-0.3,4.2l-0.3,4.2l-0.3,4.2"/>
<path id="SvgjsPath1010" class="st0" d="M157.2,169l0.1,0.7l0.1,0.7l0.1,0.7l0.1,0.7l0,0.7l0,0.7l0,0.7l0,0.7l0,0.7l0,0.7l0,0.7
	l0,0.7l0,0.7l0,0.7l0,0.7l0,0.7l0,0.7l0,0.7l0,0.7l0,0.7l0,0.7l0,0.7l0,0.7l0,0.7l0,0.7l0,0.7l0,0.7l0,0.7l0,1.4"/>
<path id="SvgjsPath1011" class="st0" d="M153.1,141.4l0.6,0.7l0.6,0.7l0.6,0.7l0.6,0.8l0.6,0.8l0.5,0.9l0.5,0.9l0.4,1l0.4,1l0.4,1
	l0.3,1.1l0.3,1.1l0.2,1.1l0.1,1.1l0.1,1.2l0,1.2l-0.1,1.2l-0.1,1.2l-0.1,1.1l-0.1,1.1l-0.2,1.1l-0.2,1.1l-0.2,1.1l-0.2,1.1l-0.2,1.1
	l-0.2,1.1l-0.2,1.1l-0.2,1.1l-0.2,1.1l-0.2,1.1l-0.2,1.1"/>
<path id="SvgjsPath1012" class="st0" d="M153.9,142.4l0.4,1.2l0.4,1.1l0.4,1.1l0.5,1.1l0.5,1.1l0.4,1.1l0.4,1.2l0.2,1.3l0.1,1.3
	l0.1,1.3l0,1.3l0,1.3l0,1.3l-0.1,1.3l-0.1,1.3l-0.1,1.3l-0.2,1.3l-0.2,1.3l-0.1,1.3l-0.1,1.3l-0.1,1.3l0,1.3l0,1.3l0,1.3l0,1.3
	l0,1.3l0,1.3l0,1.3l0,1.3l0,1.3"/>
<path id="SvgjsPath1013" class="st0" d="M149.1,138.6l0.2,0.3l0.2,0.3l0.2,0.3l0.2,0.3l0.2,0.3l0.2,0.3l0.2,0.3l0.2,0.3l0.2,0.3
	l0.2,0.3l0.2,0.3l0.2,0.3l0.2,0.3l0.2,0.3l0.2,0.3l0.2,0.3l0.3,0.2l0.3,0.2l0.3,0.2l0.3,0.2l0.3,0.2l0.3,0.2l0.3,0.2l0.3,0.2
	l0.3,0.1l0.3,0.1l0.3,0.1l0.3,0.1l0.3,0.1l0.3,0.1"/>
<path id="SvgjsPath1014" class="st0" d="M156.4,175.7l1.1-0.6l1.2-0.6l1.2-0.5l1.2-0.5l1.2-0.5l1.2-0.5l1.2-0.5l1.2-0.5l1.2-0.5
	l1.2-0.5l1.2-0.5l1.2-0.5l1.2-0.5l1.2-0.5l1.2-0.5l1.2-0.5l1.2-0.5l1.2-0.4l1.2-0.4l1.2-0.4l1.2-0.4l1.2-0.4l1.2-0.4l1.2-0.4
	l1.2-0.4l1.2-0.4l1.2-0.4l1.2-0.4l1.2-0.4l1.2-0.4"/>
<path id="SvgjsPath1015" class="st0" d="M155.8,177.3l2.3-1.2l2.3-1.2l2.3-1.2l2.3-1.2l2.3-1.2l2.3-1.2l2.3-1.2l2.3-1.2l2.3-1.2
	l2.3-1.1l2.3-1.1l2.3-1.1l2.4-1l2.4-1l2.4-1l2.4-1l2.4-1l2.4-0.9l2.4-0.9l2.4-0.9l2.4-0.9l2.4-0.9l2.4-0.9l2.4-0.9l2.4-1l2.4-1
	l2.4-1l2.4-1l2.4-1l2.4-1"/>
<path id="SvgjsPath1016" class="st0" d="M184.6,162.2l2.1-0.2l2.1-0.3l2.1-0.5l2.1-0.7l2-0.8l2-0.9l2-0.9l2-0.9l2-0.9l2-0.9l2-1l2-1
	l2-1l2-1l2-1l2-1.1l2-1.1l2-1.2l1.9-1.2l1.9-1.3l1.9-1.4l1.9-1.4l1.8-1.5l1.8-1.6l1.8-1.7l1.7-1.8l1.5-2.1l1.2-2.5l0.9-2.8l0.6-2.9"
	/>
<path id="SvgjsPath1017" class="st0" d="M192.5,141.4l0.1,0.3l0.1,0.3l0.1,0.3l0.1,0.3l0.1,0.3l0.1,0.3l0.1,0.3l0.1,0.3l0.1,0.3
	l0.1,0.3l0.1,0.3l0.1,0.3l0.1,0.3l0.1,0.3l0.1,0.3l0.1,0.3l0,0.3l0,0.3l0,0.3l0,0.3l0,0.3l0,0.3l0,0.3l0,0.3l-0.1,0.3l-0.1,0.3
	l-0.1,0.3l-0.1,0.3l-0.3,0.4"/>
<path id="SvgjsPath1018" class="st0" d="M195,148.5l-0.5,0.5l-0.5,0.5l-0.5,0.5l-0.6,0.4l-0.6,0.4l-0.6,0.4l-0.6,0.4l-0.6,0.3
	l-0.6,0.3l-0.6,0.3l-0.6,0.3l-0.6,0.3l-0.6,0.2l-0.6,0.2l-0.6,0.2l-0.6,0.2l-0.6,0.2l-0.6,0.2l-0.6,0.2l-0.6,0.2l-0.6,0.2l-0.6,0.2
	l-0.6,0.2l-0.6,0.2l-0.6,0.2l-0.6,0.2l-0.6,0.2l-0.6,0.2l-1.2,0.4"/>
<path id="SvgjsPath1019" class="st0" d="M192.9,149.9l-0.8,0.4l-0.8,0.4l-0.8,0.4l-0.8,0.3l-0.8,0.3l-0.8,0.3l-0.8,0.3l-0.8,0.3
	l-0.8,0.3l-0.8,0.3l-0.8,0.3l-0.8,0.3l-0.8,0.2l-0.8,0.2l-0.9,0.2l-0.9,0.2l-0.9,0.2l-0.9,0.2l-0.9,0.2l-0.9,0.1l-0.9,0.1l-0.9,0.1
	l-0.9,0.1l-0.9,0.1l-0.9,0.2l-0.9,0.2l-0.9,0.1l-0.9,0.1l-0.9,0.1l-0.9,0.1"/>
<path id="SvgjsPath1020" class="st0" d="M182.9,153.5l-0.9,0.4l-0.9,0.4l-0.9,0.4l-0.9,0.3l-0.9,0.3l-0.9,0.2l-0.9,0.2l-0.9,0.2
	l-0.9,0.1l-0.9,0.1l-0.9,0.1l-0.9,0.1l-0.9,0.1l-0.9,0.1l-0.9,0.1l-0.9,0.1l-0.9,0.1l-0.9,0.1l-0.9,0.1l-0.9,0.1l-0.9,0l-0.9,0
	l-0.9,0l-0.9,0l-0.9,0l-0.9,0l-0.9,0.1l-0.9,0.2l-0.9,0.3l-0.9,0.3"/>
<path id="SvgjsPath1021" class="st0" d="M199.6,125.2l0.2,0.8l0.2,0.8l0.1,0.8l0.1,0.9l0.1,0.9l0.1,0.9l0,0.9l-0.1,0.9l-0.1,0.9
	l-0.3,0.7l-0.3,0.7l-0.3,0.7l-0.5,0.4l-0.5,0.4l-0.5,0.4l-0.5,0.4l-0.5,0.4l-0.5,0.4l-0.5,0.4l-0.5,0.4l-0.5,0.5l-0.4,0.6l-0.4,0.7
	l-0.4,0.7l-0.3,0.8l-0.2,0.8l-0.1,0.9l0.2,0.8l0.3,0.7l0.4,0.6"/>
<path id="SvgjsPath1022" class="st0" d="M199.3,123.3l0.3,1l0.3,1l0.3,1l0.3,1l0.2,1l0.1,1.1l0.1,1.1l0,1.1l-0.2,1.1l-0.4,0.9
	l-0.5,0.8l-0.5,0.7l-0.6,0.6l-0.7,0.4l-0.7,0.4l-0.7,0.4l-0.7,0.4l-0.7,0.5l-0.6,0.6l-0.5,0.8l-0.3,1l-0.1,1.1l0.2,1l0.4,0.9
	l0.5,0.9l0.5,0.9l0.4,0.9l0.2,1l-0.2,1l-0.4,0.9"/>
<path id="SvgjsPath1023" class="st0" d="M198.7,120.2l0.1,0.3l0.1,0.3l0.1,0.3l0.1,0.3l0.1,0.3l0.1,0.3l0.1,0.3l0.1,0.3l0.1,0.3
	l0.1,0.3l0.1,0.3l0.1,0.3l0.1,0.3l0.1,0.3l0.1,0.3l0.1,0.3l0.1,0.3l0.1,0.3l0.1,0.3l0.1,0.3l0.1,0.3l0.1,0.3l0.1,0.3l0.1,0.3l0,0.3
	l0,0.3l0,0.3l0,0.3l0,0.3l0,0.3"/>
<path id="SvgjsPath1024" class="st0" d="M215.4,121.4l0.6,0.3l0.6,0.3l0.6,0.3l0.6,0.2l0.6,0.2l0.6,0.2l0.6,0.1l0.6,0.1l0.6,0.1
	l0.6,0.1l0.6,0l0.6,0l0.6,0l0.6-0.1l0.6-0.1l0.6-0.1l0.6-0.2l0.6-0.2l0.6-0.2l0.6-0.3l0.6-0.3l0.6-0.3l0.6-0.3l0.6-0.4l0.5-0.4
	l0.5-0.4l0.5-0.4l0.5-0.4l0.5-0.5l0.5-0.5"/>
<path id="SvgjsPath1025" class="st0" d="M207.5,102.8l-0.4-0.1l-0.4-0.1l-0.4-0.1l-0.4-0.1l-0.4,0l-0.4,0l-0.4,0.1l-0.4,0.1
	l-0.4,0.1l-0.4,0.1l-0.4,0.2l-0.4,0.2l-0.4,0.2l-0.4,0.2l-0.4,0.2l-0.4,0.2l-0.4,0.3l-0.4,0.3l-0.4,0.3l-0.4,0.3l-0.4,0.3l-0.4,0.3
	l-0.4,0.3l-0.4,0.3l-0.3,0.4l-0.3,0.4l-0.3,0.4l-0.3,0.4l-0.6,0.8"/>
<path id="SvgjsPath1026" class="st0" d="M201.5,103.6l-2.2,0.4l-2.1,0.8l-2,1.3l-1.4,2.3l-1.1,2.5l-2.2,0.4l-2.1,0.9l-2,1.3l-2,1.4
	l-1.8,1.8l-1.2,2.7l-0.2,3.1l1.4,2.3l2.1,0.7l2.2-0.1l2.2-0.1l2.2-0.2l2.1-1l2-1.3l2.1-0.8l2.2,0l2.2,0l2.2-0.6l1.8,1.2l1.4,2.1
	l2.2,0.1l2.2-0.6l2.1-0.8l2.1-1.1l2.1-1.2"/>
<path id="SvgjsPath1027" class="st0" d="M205.2,121.7l0.3,0.5l0.3,0.5l0.3,0.4l0.3,0.4l0.4,0.3l0.4,0.3l0.4,0.2l0.4,0.2l0.4,0.1
	l0.4,0.1l0.4,0l0.4,0l0.4-0.1l0.4-0.1l0.4-0.2l0.4-0.2l0.4-0.2l0.4-0.2l0.4-0.2l0.4-0.2l0.4-0.2l0.4-0.2l0.4-0.2l0.4-0.2l0.4-0.3
	l0.4-0.3l0.4-0.3l0.4-0.3l0.8-0.7"/>
<path id="SvgjsPath1028" class="st0" d="M205.2,104.4l0.3-1.2l0.3-1.1l0.4-1.1l0.4-1.1l0.4-1.1l0.5-1l0.5-1l0.5-1l0.6-0.9l0.6-0.9
	l0.6-0.9l0.6-0.8l0.6-0.8l0.7-0.8l0.7-0.7l0.7-0.7l0.7-0.6l0.7-0.6l0.8-0.5l0.8-0.5l0.8-0.4l0.8-0.3L219,86l0.8-0.2l0.8-0.1l0.8,0
	l0.8,0.2l0.8,0.5l0.6,0.8l0.4,1.1l0.2,1.2"/>
<path id="SvgjsPath1029" class="st0" d="M205.5,100.1L206,99l0.5-1.1l0.6-1.1l0.6-1.1l0.6-1l0.6-1l0.7-1l0.7-0.9l0.7-0.9l0.7-0.9
	l0.7-0.8l0.8-0.8l0.8-0.7l0.8-0.7l0.8-0.6l0.8-0.6l0.9-0.5l0.9-0.4l0.9-0.3l0.9-0.2l0.9-0.1l0.9,0.1l0.9,0.3l0.8,0.6l0.7,0.8l0.6,1
	l0.3,1.2l0.1,1.3l-0.2,1.3l-0.4,1.2"/>
<path id="SvgjsPath1030" class="st0" d="M221.6,93.2l0.6-0.8l0.6-0.8l0.6-0.8L224,90l0.6-0.8l0.6-0.8l0.7-0.7l0.7-0.7l0.7-0.6
	l0.7-0.6l0.8-0.5l0.8-0.5l0.8-0.4l0.8-0.3l0.8-0.1l0.8,0.1l0.8,0.3l0.7,0.6l0.7,0.6l0.6,0.8l0.6,0.8l0.4,1.1l0.3,1.1l0.2,1.2
	l0.1,1.2l0,1.2l0,1.2l-0.1,1.2l-0.1,1.2l-0.2,1.2l-0.2,1.2"/>
<path id="SvgjsPath1031" class="st0" d="M236.5,99l0.3-0.2l0.3-0.2l0.3-0.2l0.3-0.2L238,98l0.3-0.2l0.3-0.2l0.3-0.2l0.3-0.1l0.3-0.1
	l0.3-0.1l0.3,0l0.3,0l0.3,0l0.3,0.1l0.3,0.1l0.3,0.2l0.3,0.2l0.3,0.2l0.3,0.3l0.2,0.3l0.2,0.4l0.2,0.4l0.2,0.4l0.2,0.4l0.1,0.4
	l0.1,0.4l0.1,0.4l0.1,0.4l0.1,0.5l0.1,0.5"/>
<path id="SvgjsPath1032" class="st0" d="M244.2,102.7l0.8-1l0.8-1l0.8-0.9l0.8-0.8l0.9-0.7l0.9-0.7l0.9-0.6l1-0.5l1-0.4l1-0.3l1-0.1
	l1,0.2l1,0.2l1,0.2l1,0.2l0.9,0.8l0.9,0.8l0.7,1l0.7,1.1l0.6,1.2l0.5,1.3l0.4,1.3l0.3,1.4l0.2,1.4l0.1,1.5l0.1,1.5l-0.1,1.5
	l-0.1,1.5l-0.2,1.4l-0.2,1.4"/>
<path id="SvgjsPath1033" class="st0" d="M248.6,121.5l1.2,0.8l1.3,0.5l1.3-0.1l1.2-0.6l1.3-0.5l1.3-0.1l1.3,0.2l1.1,0.8l1,1.3
	l1.2,0.8l1.3,0l1.1-1l0.9-1.4l0.7-1.6l0.4-1.8l0.1-1.9l-0.2-1.9l-0.4-1.8l-0.4-1.8l-0.3-1.9l0-1.9l-0.5-1.8l-0.7-1.6l-0.8-1.5
	l-0.8-1.5l-0.8-1.5l-0.9-1.4l-1-1.2l-1.2-0.6l-1.3,0.1"/>
<path id="SvgjsPath1034" class="st0" d="M244.7,103.6l0.5-0.8l0.5-0.8l0.6-0.8l0.6-0.7l0.6-0.7l0.6-0.6l0.7-0.5l0.7-0.5l0.7-0.3
	l0.7-0.3l0.8-0.2l0.8,0l0.8,0l0.8,0.1l0.7,0.2l0.7,0.3l0.7,0.5l0.7,0.5l0.7,0.6l0.5,0.8l0.5,0.9l0.4,0.9l0.4,1l0.3,1l0.3,1l0.2,1.1
	l0.2,1.1l0.1,1.1l0.1,1.1l0.1,1.1"/>
<path id="SvgjsPath1035" class="st0" d="M232.6,116.7l0.1,0.9l0.1,0.9l0.2,0.9l0.2,0.9l0.3,0.8l0.3,0.8l0.5,0.6l0.5,0.6l0.6,0.3
	l0.6,0.3l0.6,0.2l0.6,0.2l0.6,0.1l0.6,0.1l0.6,0l0.6,0l0.6-0.1l0.6-0.1l0.6-0.1l0.6-0.1l0.6-0.1l0.6-0.1l0.6-0.2l0.6-0.2l0.6-0.3
	l0.6-0.3l0.6-0.3l0.6-0.3l1.2-0.6"/>
<path id="SvgjsPath1036" class="st0" d="M200.7,121l0.2,0.4l0.2,0.4l0.2,0.4l0.2,0.4l0.2,0.4l0.2,0.4l0.2,0.4l0.2,0.4l0.1,0.4
	l0.1,0.4l0.1,0.4l0.1,0.4l0.1,0.4l0.1,0.4l0.1,0.4l0.1,0.4l0.1,0.4l0.1,0.4l0.1,0.4l0.1,0.4l0.1,0.4l0.1,0.4l0.1,0.4l0.1,0.4l0,0.4
	l0,0.4l0,0.4l0,0.4l0.1,0.9"/>
<path id="SvgjsPath1037" class="st0" d="M201.8,122.5l0.2,0.8l0.2,0.8l0.2,0.8l0.2,0.8l0.2,0.8l0.2,0.9l0.1,0.9l0.1,0.9l0.1,0.9
	l0.1,0.9l0,0.9l0,0.9l-0.1,0.9l-0.2,0.8l-0.3,0.8l-0.3,0.8l-0.3,0.7l-0.4,0.6l-0.4,0.6l-0.4,0.7l-0.2,0.8l-0.2,0.8l-0.1,0.9l0.1,0.9
	l0.2,0.9l0.3,0.7l0.4,0.7l0.4,0.7l0.4,0.6l0.5,0.6"/>
<path id="SvgjsPath1038" class="st0" d="M201.8,146l0.8,0.1l0.8,0.1l0.8,0.1l0.8,0.1l0.8,0l0.8,0l0.8,0l0.8-0.1l0.8-0.1l0.8-0.1
	l0.8-0.1l0.8-0.1l0.8-0.2l0.8-0.2l0.8-0.2l0.8-0.2l0.8-0.2l0.8-0.2l0.7-0.3l0.7-0.3l0.7-0.3l0.7-0.3l0.7-0.3l0.7-0.3l0.7-0.3
	l0.7-0.3l0.7-0.3l0.7-0.3l0.7-0.4l0.7-0.4"/>
<path id="SvgjsPath1039" class="st0" d="M202.1,146.4l1.3,0.3l1.3,0.2l1.3,0.1l1.3,0l1.3-0.1l1.3-0.2l1.3-0.2l1.3-0.2l1.3-0.3
	l1.2-0.4l1.2-0.5l1.2-0.6l1.2-0.5l1.2-0.4l1.2-0.4l1.2-0.4l1.2-0.6l1.2-0.7l1.1-0.8l1.1-0.9l1.1-1l1.1-1l1-1.1l1-1.1l0.9-1.3
	l0.7-1.5l0.6-1.7l0.5-1.7l0.5-1.7l0.5-1.7"/>
<path id="SvgjsPath1040" class="st0" d="M235.1,122.1l0,0.4l0,0.4l0,0.4l0,0.4l-0.1,0.4l-0.1,0.4l-0.1,0.4l-0.1,0.4l-0.1,0.4
	l-0.1,0.4l-0.1,0.4l-0.1,0.4l-0.1,0.4l-0.1,0.4l-0.1,0.4l-0.1,0.4l-0.1,0.3l-0.1,0.3l-0.1,0.3l-0.1,0.3l-0.2,0.3l-0.2,0.3l-0.2,0.3
	l-0.2,0.3l-0.2,0.3l-0.2,0.3l-0.2,0.3l-0.2,0.3l-0.4,0.6"/>
<path id="SvgjsPath1041" class="st0" d="M115.7,27.4l-0.2,0.1l-0.2,0.1l-0.2,0.1l-0.2,0.1l-0.2,0.1l-0.2,0.1l-0.2,0.1l-0.2,0.1
	l-0.2,0.1l-0.2,0.1l-0.2,0.1l-0.2,0.1l-0.2,0.2l-0.2,0.2l-0.2,0.2l-0.2,0.2l-0.2,0.2l-0.2,0.2l-0.1,0.2L112,30l-0.1,0.2l-0.1,0.2
	l-0.1,0.2l-0.1,0.2l-0.1,0.2l-0.1,0.2l-0.1,0.3l-0.1,0.3l-0.1,0.3l-0.1,0.3"/>
<path id="SvgjsPath1042" class="st0" d="M118,19.7l0.2-1l0.2-1l0.3-0.9l0.3-0.9l0.4-0.8l0.4-0.8l0.5-0.6l0.6-0.6l0.6-0.4l0.7-0.3
	l0.7-0.2l0.7-0.2l0.7-0.1l0.7,0l0.7,0.1l0.7,0.2l0.7,0.3l0.7,0.4l0.6,0.4l0.6,0.5l0.6,0.6l0.5,0.7l0.5,0.7l0.4,0.8l0.4,0.8l0.3,0.9
	l0.3,0.9l0.3,0.9l0.3,0.9l0.2,1l0.2,1"/>
<path id="SvgjsPath1043" class="st0" d="M123,17l-0.4-0.1l-0.4-0.1l-0.4,0l-0.4,0l-0.4,0l-0.4,0L120,17l-0.4,0.1l-0.4,0.1l-0.4,0.1
	l-0.4,0.3l-0.4,0.3l-0.4,0.3l-0.4,0.3l-0.3,0.4l-0.3,0.4l-0.3,0.5l-0.3,0.5l-0.2,0.5l-0.2,0.5l-0.1,0.6l-0.1,0.6l0,0.6l0,0.6
	l0.1,0.6l0.1,0.6l0.1,0.6l0.1,0.6l0.2,1.2"/>
<path id="SvgjsPath1044" class="st0" d="M132.9,23.1l0.9-4.1l1.4-3.8l1.9-3.2l2.5-2l2.8-1.4l2.9-0.3l2.9,0.9l2.7,1.8l2.4,2.4
	l2.3,2.6l1.9,3.2l1.7,3.5l1.5,3.7l1,4l-1.1,3.9l-2.3,2.6l-2.7,1.7l-2.9,0.9l-2.9-0.3l-2.9-0.7l-2.8,1.3l-2.9-0.2l-2.6-2l-2.1,0.6
	l-1.9,3.3l-2.7,1.6l-2.9,0.1l-2.9-0.1l-2.8,1.1l-2.4,2.5"/>
<path id="SvgjsPath1045" class="st0" d="M124.2,42.3l-0.1,1.2l-0.1,1.2l-0.1,1.2l-0.1,1.2l-0.2,1.2l-0.2,1.2l-0.2,1.1l-0.2,1.1
	l-0.3,1.1l-0.3,1.1l-0.3,1.1l-0.3,1.1l-0.4,1.1l-0.4,1l-0.4,1l-0.5,1l-0.5,0.9l-0.5,0.9l-0.6,0.8l-0.6,0.8l-0.7,0.7l-0.7,0.6
	l-0.7,0.5l-0.8,0.3l-0.8,0.3l-0.8,0.1l-0.8-0.2l-0.7-0.6l-0.5-0.9l-0.3-1.1"/>
<path id="SvgjsPath1046" class="st0" d="M120.5,56.8l-1.1,2.4l-1.3,2.3l-1.4,2.1l-1.6,1.8l-1.8,1.4l-1.9,0.7l-2-0.3l-1.9-0.8
	l-1.8-1.3l-1.7-1.4l-1.9-0.6l-1.8,0.9l-1.7,1.5l-1.9,0.9l-1.9-0.3L92.9,65l-1.9-1L89.2,63l-1.9-0.9l-1.9-0.8l-2-0.2l-1.8,0.9
	l-1.7,1.5L78,64.5l-2,0.1l-2-0.3l-1.9-0.9L70.3,62l-1.6-1.8l-1.4-2.1"/>
<path id="SvgjsPath1047" class="st0" d="M110.7,32.4l-1-1.1l-1-0.9l-1.1-0.8l-1.2-0.4l-1.2-0.3l-1.2-0.1l-1.2,0.1l-1.2,0.1l-1.2,0.1
	l-1.2,0l-1.2,0.1L97,29.3l-1.1,0.5l-1.1,0.8l-1,1l-1,1.1l-1,0.9l-1.1,0.7l-1.1,0.7l-1.1,0.8l-1,0.9l-0.8,1.2L86,39.2l-0.6,1.5
	l-0.9,1.1l-0.9,1.1L82.5,44l-0.8,1.2l-0.8,1.3l-0.8,1.3"/>
<path id="SvgjsPath1048" class="st0" d="M98.4,26.5l-0.7,0.1l-0.7,0.1l-0.7,0.1l-0.7,0.1l-0.7,0.2l-0.7,0.2l-0.7,0.2l-0.7,0.3
	l-0.6,0.3l-0.6,0.3l-0.6,0.4l-0.6,0.4L90,29.5L89.4,30l-0.6,0.5L88.2,31l-0.6,0.6l-0.5,0.6l-0.5,0.7l-0.5,0.7l-0.4,0.8l-0.4,0.8
	L85.1,36L84.8,37l-0.2,0.9l-0.1,1l0,1l0,1l0.1,1l0.1,1"/>
<path id="SvgjsPath1049" class="st0" d="M89.4,36l-2.6,1.4L84.4,39L82,41l-2,2.7l-1.6,3.1l-0.7,3.8L75.1,51l-2.6,1.3l-2.3,2.1
	l-1.9,2.8l0,3.8l1.9,2.8l2.5,1.5l2.7,0.5l2.7-0.3l2.7-0.7l2.7-0.8l2.7-0.8l2.7,0.5l2.5,1.5l2.7,0.3l2.7,0l2.7,0.3l2.7,0.3l2.6-0.5
	l2.6-1.2l2.5,1.4l2.6-0.8l2.3-2l2-2.7"/>
<path id="SvgjsPath1050" class="st0" d="M216.5,4.8l-0.5-0.3l-0.5-0.3l-0.6-0.1l-0.6,0l-0.6,0.3l-0.5,0.3l-0.4,0.6l-0.4,0.6
	l-0.4,0.7l-0.4,0.7l-0.3,0.7l-0.3,0.7l-0.3,0.7l-0.3,0.7l-0.3,0.7l-0.3,0.7l-0.3,0.7l-0.3,0.7l-0.3,0.7l-0.3,0.7l-0.3,0.7l-0.3,0.7
	l-0.3,0.7l-0.3,0.7l-0.3,0.8l-0.3,0.8l-0.3,0.8l-0.3,0.8l-0.2,0.8l-0.2,0.8"/>
<path id="SvgjsPath1051" class="st0" d="M218,6.2l-0.7-0.6L216.6,5l-0.8-0.4L215,4.4l-0.8-0.1l-0.8,0.1l-0.8,0.3L211.9,5l-0.7,0.6
	l-0.7,0.7L209.9,7l-0.6,0.8l-0.5,0.9l-0.5,0.9l-0.5,1l-0.4,1l-0.4,1l-0.4,1l-0.4,1.1l-0.3,1.1l-0.3,1.1l-0.2,1.1l-0.2,1.2l-0.1,1.2
	l-0.1,1.2l0,1.2l0,1.2l0.2,1.2l0.2,1.1l0.3,1.1"/>
<path id="SvgjsPath1052" class="st0" d="M216.8,5.7l-0.1,0.4l-0.1,0.4l-0.1,0.4l-0.1,0.4l0,0.4l0,0.4l0,0.4l0,0.4l0,0.4l0,0.4l0,0.4
	l0,0.4l0,0.4l0,0.4l0,0.4l0,0.4l0,0.4l0,0.4l0,0.4l0,0.4l0,0.4l0,0.4l0,0.4l0,0.4l0,0.4l0,0.4l0,0.4l0,0.4l0,0.4l0,0.4"/>
<path id="SvgjsPath1053" class="st0" d="M214.6,2.6l0.2,0.5l0.2,0.5l0.1,0.5l0.1,0.5l0.1,0.5l0.1,0.5l0.1,0.5l0.1,0.5l0.1,0.5
	l0.1,0.5l0,0.6l0,0.6l0,0.6l0,0.6l0,0.6l0,0.6l0,0.6l0,0.6l0,0.6l0,0.6l-0.1,0.5l-0.1,0.5l-0.1,0.5l-0.1,0.5l-0.1,0.5l-0.1,0.5
	l-0.1,0.5l-0.1,0.5l-0.1,0.5l-0.1,0.5"/>
<path id="SvgjsPath1054" class="st0" d="M176.1,40.2l0.9,1.3l1,1l1.1,0.6l1.2,0.2l1.2-0.3l1.2-0.4l1.2-0.4l1.2-0.3l1.2-0.3l1.2-0.1
	l0.3,1.7l0.8,1.1l1.2,0.2l1.2-0.4l1.1-0.7l1.2-0.6l1.2-0.5l1.2,0l1.1,0.6l1,1l0.9,1.3l1.1,0.8l1.2,0.5l1.2,0.1l1.2-0.2l1.2-0.4
	l1.2-0.5l1.2-0.5l1.2-0.5l1.2-0.5"/>
<path id="SvgjsPath1055" class="st0" d="M204.4,22.4l-0.5-0.8l-0.5-0.8l-0.5-0.7l-0.6-0.7l-0.6-0.6l-0.6-0.6l-0.7-0.5l-0.7-0.4
	l-0.7-0.4l-0.7-0.3l-0.7-0.2l-0.7-0.1l-0.7,0l-0.7,0.1l-0.7,0.1l-0.7,0.2l-0.7,0.3l-0.7,0.4l-0.7,0.5l-0.6,0.5l-0.6,0.6l-0.6,0.7
	l-0.5,0.7l-0.5,0.8l-0.5,0.8l-0.4,0.9l-0.4,0.9l-0.1,1.1l0.2,1l0.3,1l0.4,0.9"/>
<path id="SvgjsPath1056" class="st0" d="M205.4,21.8l-0.7-2.2l-1-1.9l-1.4-1.3l-1.6-0.6l-1.6,0.1l-1.6,0.5l-1.6,0.6l-1.6,0.7
	l-1.4,1.2l-1.3,1.5l-1.1,1.8l-1,1.9l-1.4,1.2l-1.6,0.3l-1.5,0.8l-1.5,1l-1.5,1l-1.5,1l-1.5,0.8l-1.6,0.6l-1.6,0.4l-1.6,0.4l-1.5,1
	l-1.2,1.6l-0.7,2.1l-0.1,2.3l0.8,1.8l1.6,0.6l1.6-0.1l1.6-0.8"/>
<path id="SvgjsPath1057" class="st0" d="M188.6,27.7l-0.4,0l-0.4,0l-0.4,0l-0.4,0l-0.4,0l-0.4,0l-0.4,0l-0.4,0l-0.4,0l-0.4,0l-0.4,0
	l-0.4,0l-0.4,0.1l-0.4,0.1l-0.4,0.1l-0.4,0.1l-0.4,0.2l-0.4,0.2l-0.4,0.2l-0.4,0.2l-0.4,0.1l-0.4,0.1l-0.4,0.1l-0.4,0.1l-0.4,0.2
	l-0.4,0.2l-0.4,0.2l-0.4,0.2l-0.4,0.2l-0.4,0.2"/>
<path id="SvgjsPath1058" class="st0" d="M216.2,18.6l0.3-0.5l0.3-0.5l0.3-0.5l0.3-0.5l0.3-0.5l0.3-0.5l0.3-0.5l0.3-0.5l0.3-0.5
	l0.3-0.5l0.3-0.4l0.3-0.4l0.4-0.4l0.4-0.4l0.4-0.3l0.4-0.3l0.4-0.3l0.4-0.3l0.4-0.3l0.4-0.3l0.4-0.2l0.4-0.2l0.4-0.1l0.4-0.1
	l0.4,0.1l0.4,0.1l0.4,0.2l0.4,0.3l0.4,0.4l0.4,0.4"/>
<path id="SvgjsPath1059" class="st0" d="M215.1,18.7l0.7-1l0.7-1l0.7-1l0.8-0.9l0.8-0.9l0.9-0.7l0.9-0.6l1-0.3l1-0.3l1-0.2l1,0.2
	l0.9,0.5l0.7,1l0.6,1.1l0.2,1.4l0.1,1.4l0.1,1.5l0,1.5l0,1.5l0,1.5l0,1.5l-0.1,1.5l-0.1,1.4l-0.1,1.4l-0.3,1.4l-0.4,1.3l-0.6,1.2
	l-0.7,1l-0.8,0.8l-0.9,0.6l-0.9,0.6"/>
<path id="SvgjsPath1060" class="st0" d="M227.3,11.2l0.2,1.3l0.2,1.3l0.1,1.3l-0.1,1.3l-0.1,1.3l-0.2,1.3l-0.3,1.2l-0.3,1.2
	l-0.4,1.2l-0.4,1.2l-0.4,1.2l-0.4,1.2l-0.4,1.1l-0.4,1.2l-0.3,1.2l0.9,0.1l0.7,0.6l0.4,1.1l-0.1,1.3l-0.2,1.3l-0.3,1.2l-0.4,1.2
	l-0.4,1.1l-0.5,1.1l-0.6,1l-0.6,0.9l-0.7,0.9l-0.8,0.6l-0.8,0.5l-0.8,0.5"/>
<path id="SvgjsPath1061" class="st0" d="M222.1,36l0.4,0.8l0.4,0.9l0.2,1l0,1l-0.1,1l-0.3,0.9l-0.4,0.9l-0.5,0.8l-0.5,0.8l-0.6,0.6
	l-0.6,0.5l-0.7,0.4l-0.7,0.4l-0.7,0.3l-0.7,0.2l-0.7,0.1l-0.7,0.1l-0.7,0l-0.7,0l-0.7-0.1l-0.7-0.1l-0.7-0.3l-0.7-0.3l-0.7-0.3
	l-0.7-0.3l-0.7-0.3l-0.7-0.3l-0.7-0.4l-0.7-0.4l-0.7-0.4l-0.7-0.4"/>
<path id="SvgjsPath1062" class="st0" d="M207.2,61.7l0.3-0.1l0.3-0.1l0.3,0l0.3,0l0.3,0l0.3,0l0.3,0l0.3,0l0.3,0l0.3,0l0.3,0l0.3,0
	l0.3,0l0.3,0l0.3,0.2l0.3,0.2l0.3,0.2l0.3,0.2l0.2,0.3l0.2,0.3l0.2,0.3l0.2,0.3l0.1,0.4l0.1,0.4l0,0.4l0,0.4l0,0.4l0,0.4l0,0.8"/>
<path id="SvgjsPath1063" class="st0" d="M188.4,77.1L189,78l0.6,0.8l0.7,0.7l0.7,0.6l0.8,0.4l0.8,0.3l0.8,0.2l0.8,0.1l0.8,0.1l0.8,0
	l0.8,0l0.8-0.1l0.8-0.1l0.8-0.1l0.8-0.1l0.8-0.1l0.8-0.1l0.8-0.2l0.8-0.2l0.8-0.2l0.8-0.2l0.8-0.3l0.8-0.4l0.8-0.5l0.7-0.6l0.6-0.8
	l0.5-0.9l0.4-1l0.3-1.1L210,73"/>
<path id="SvgjsPath1064" class="st0" d="M206.8,63.1l0.7-0.4l0.7-0.4L209,62l0.7-0.3l0.8-0.2l0.8-0.1l0.8,0.1l0.7,0.3l0.6,0.6
	l0.5,0.8l0.3,1l0,1.1l-0.2,1l-0.4,1l-0.4,0.9l-0.5,0.9l-0.4,1l-0.3,1l-0.2,1.1l-0.2,1.1l-0.3,1l-0.4,0.9l-0.4,0.9l-0.5,0.8l-0.6,0.7
	l-0.6,0.7L208,79l-0.7,0.4l-0.7,0.4l-0.7,0.3"/>
<path id="SvgjsPath1065" class="st0" d="M192.5,70.8l-0.2,0.2l-0.2,0.2l-0.2,0.2l-0.2,0.2l-0.2,0.2l-0.2,0.2l-0.2,0.2l-0.2,0.2
	l-0.2,0.2l-0.2,0.2l-0.2,0.1l-0.2,0.1l-0.2,0.2l-0.2,0.2l-0.2,0.2l-0.2,0.2l-0.2,0.2l-0.2,0.2l-0.2,0.2l-0.2,0.2l-0.1,0.2l-0.1,0.2
	l-0.1,0.3l-0.1,0.3l-0.1,0.3l-0.1,0.3l0,0.3l0,0.3l-0.1,0.6"/>
<path id="SvgjsPath1066" class="st0" d="M188.5,42.3l-0.4,0.9l-0.4,0.9l-0.4,0.9L187,46l-0.4,0.9l-0.4,0.9l-0.4,0.9l-0.4,0.9
	l-0.4,0.9l-0.4,0.9l-0.4,0.9l-0.4,0.9l-0.4,0.9l-0.4,0.9l-0.4,0.9l-0.4,0.9l-0.4,0.9l-0.4,0.9l-0.4,0.9l-0.4,0.9l-0.4,0.9L180,62
	l-0.5,0.8l-0.5,0.7l-0.6,0.7l-0.6,0.6l-0.6,0.5l-0.6,0.5l-0.7,0.5l-0.7,0.4l-0.7,0.4"/>
<path id="SvgjsPath1067" class="st0" d="M188.2,43.7l-0.4,0.8l-0.4,0.8l-0.4,0.8l-0.4,0.8l-0.4,0.8l-0.4,0.8l-0.3,0.8l-0.3,0.8
	l-0.3,0.8l-0.3,0.8l-0.3,0.8l-0.3,0.8l-0.3,0.8l-0.3,0.8l-0.3,0.8l-0.3,0.8l-0.3,0.8L182,58l-0.3,0.8l-0.3,0.8l-0.3,0.8l-0.4,0.7
	l-0.4,0.7l-0.5,0.6l-0.5,0.6l-0.5,0.5l-0.6,0.5l-0.6,0.5l-0.6,0.4l-0.6,0.4"/>
<path id="SvgjsPath1068" class="st0" d="M191.9,41.9l-0.3,1l-0.3,1l-0.3,1l-0.3,1l-0.3,1l-0.3,1l-0.3,1l-0.3,1l-0.3,1l-0.3,1l-0.3,1
	l-0.3,1l-0.3,1l-0.3,1l-0.3,1l-0.3,1l-0.3,0.9l-0.4,0.9l-0.4,0.9l-0.4,0.9l-0.4,0.9l-0.4,0.9l-0.4,0.9l-0.4,0.9l-0.4,0.9l-0.4,0.9
	l-0.4,0.9l-0.4,0.9l-0.4,0.9l-0.4,0.9"/>
<path id="SvgjsPath1069" class="st0" d="M191.3,44.1l-0.3,1.1l-0.3,1.1l-0.3,1.1l-0.4,1l-0.4,1l-0.4,1l-0.4,1l-0.3,1.1l-0.3,1.1
	l-0.3,1.1l-0.3,1.1l-0.3,1.1l-0.3,1.1l-0.4,1l-0.4,1l-0.4,1l-0.4,1l-0.4,1l-0.4,1l-0.4,1l-0.5,1l-0.4,1l-0.4,1l-0.4,1l-0.3,1.1
	l-0.3,1.1l-0.3,1.1l-0.3,1.1l-0.4,1l-0.4,1"/>
<path id="SvgjsPath1070" class="st0" d="M61.2,132.4l0,0.8l0,0.8l0.1,0.8l0.2,0.7l0.3,0.6l0.3,0.6l0.4,0.5l0.4,0.4l0.5,0.4l0.5,0.4
	l0.5,0.3L65,139l0.5,0.3l0.5,0.2l0.5,0.1l0.5,0.1l0.5,0.1l0.5,0l0.5,0l0.5,0l0.5-0.1l0.5-0.1l0.5-0.1l0.5-0.1l0.5-0.2l0.5-0.2
	l0.5-0.2l0.5-0.2l1-0.5"/>
<path id="SvgjsPath1071" class="st0" d="M61.7,110.7l-2.5,3l-2.5,3.1l-2.4,3.1l-2.1,3.5l-0.3,4.2l2,3.6l1.9,3.7l2,3.6l3.2,0l3.2,0.5
	l3,1.7l3,1.5l3.2-0.4l3-1.8l2.8-2.3l2.8-2.2l2.5-3l1.5-4.1l0.7-4.6L87,119l0.2-4.7l-0.7-4.6l-1.8-3.9l-2.3-3.4L80,99.5l-1.8-3.9
	l-0.7-4.3l0.2-4.7l-0.8-4.5L75,78.4l-2.6-2.7"/>
<path id="SvgjsPath1072" class="st0" d="M80.7,101.1l0.9,0.7l0.9,0.8l0.8,0.8l0.8,0.8l0.8,0.9l0.7,1l0.7,1.1l0.6,1.2l0.5,1.3
	l0.4,1.4l0.2,1.4l0.1,1.5l0,1.5l-0.1,1.4l-0.2,1.4l-0.3,1.4l-0.4,1.3l-0.5,1.3l-0.5,1.3l-0.5,1.3l-0.5,1.3l-0.5,1.3l-0.5,1.3
	l-0.5,1.3l-0.5,1.3l-0.5,1.3l-0.5,1.3l-0.5,1.3l-0.5,1.3l-0.5,1.3"/>
<path id="SvgjsPath1073" class="st0" d="M54.6,119.1l-0.6,0.5l-0.6,0.5l-0.5,0.6l-0.5,0.7l-0.4,0.7l-0.3,0.9l-0.3,0.9l-0.2,0.9
	l-0.1,1l-0.1,1l0,1l0.1,1l0.1,1l0.3,0.9l0.3,0.8l0.5,0.7l0.5,0.6l0.6,0.5l0.6,0.4l0.6,0.3l0.7,0.2l0.7,0.1l0.7-0.1l0.7-0.2l0.7-0.2
	l0.6-0.3l0.6-0.3l0.6-0.3l0.6-0.3l0.6-0.3"/>
<path id="SvgjsPath1074" class="st0" d="M54.5,98.3l0,0.6l0,0.6l0,0.6l0,0.6l0,0.6l0,0.6l0,0.6l0,0.6l0.1,0.6l0.1,0.6l0.2,0.5
	l0.2,0.5l0.3,0.4l0.3,0.4l0.3,0.3l0.4,0.3l0.4,0.3l0.4,0.3l0.4,0.2l0.4,0.2l0.4,0.2l0.4,0.2l0.4,0.3l0.4,0.3l0.4,0.3l0.3,0.3
	l0.3,0.4l0.3,0.4l0.3,0.4l0.3,0.4"/>
<path id="SvgjsPath1075" class="st0" d="M72.6,76.2l-1.4-0.3l-1.4-0.3l-1.4-0.2l-1.4-0.2L65.8,75l-1.4-0.1l-1.4,0l-1.4,0.2l-1.4,0.3
	L59,75.9l-1.3,0.6l-1.3,0.7l-1.3,0.8l-1.2,0.9l-1.2,0.9l-1.2,0.9l-1.2,0.9l-1,1.4l-0.9,1.4L47.7,86l-0.6,1.8l-0.3,2l0.1,1.9l0.5,1.8
	l0.8,1.5l1,1.3l1.2,0.9l1.3,0.7l1.4,0.2l1.4,0.2"/>
<path id="SvgjsPath1076" class="st0" d="M72.6,77.6l-0.9-0.4l-1-0.3l-1-0.3l-1-0.3l-1-0.2l-1-0.2l-1-0.2l-1-0.1l-1-0.1l-1-0.1l-1,0
	l-1,0l-1,0.1l-1,0.1l-1,0.2l-1,0.2l-1,0.2l-1,0.3l-0.9,0.4l-0.9,0.5l-0.9,0.6l-0.9,0.7l-0.8,0.7L49.9,80l-0.7,1l-0.6,1.1l-0.3,1.3
	l-0.1,1.4l0.2,1.4l0.4,1.3"/>
<path id="SvgjsPath1077" class="st0" d="M48.1,87l-0.2,0.8l-0.2,0.8l-0.1,0.8l-0.1,0.8l-0.1,0.8l-0.1,0.8l0,0.8l0,0.8l0.1,0.8
	l0.2,0.8l0.2,0.8l0.3,0.7l0.3,0.7l0.4,0.6l0.4,0.6l0.4,0.5l0.4,0.5l0.5,0.5l0.5,0.5l0.5,0.4l0.5,0.4l0.5,0.4l0.5,0.4l0.5,0.4
	l0.5,0.3l0.5,0.3l0.5,0.3l0.5,0.3l0.5,0.3l0.5,0.3"/>
<path id="SvgjsPath1078" class="st0" d="M94.5,103.7l0.3,0.7l0.3,0.7l0.4,0.6l0.4,0.6l0.5,0.5l0.5,0.5l0.6,0.3l0.6,0.3l0.6,0.2
	l0.6,0.2l0.6,0l0.6,0l0.6-0.1l0.6-0.1l0.6-0.2l0.6-0.2l0.6-0.2l0.6-0.2l0.6-0.2l0.6-0.2l0.6-0.2l0.6-0.2l0.6-0.2l0.6-0.3l0.6-0.2
	l0.6-0.2l0.6-0.1l0.6-0.1l1.2-0.1"/>
<path id="SvgjsPath1079" class="st0" d="M93.6,101.5l-0.2,1.5l0,1.5l0.3,1.4l0.8,1.1l0.9,0.7l1,0.5l1,0.3l1.1,0.2l1.1,0.1l1.1-0.1
	l1.1-0.1l1.1-0.1l1-0.3l1-0.4l1-0.5l1-0.6l1-0.6l0.9-0.7l0.9-0.8l0.9-0.9l0.9-0.9l0.9-0.9l1-0.3l1-0.4l1-0.6l0.9-0.8l0.8-1l0.7-1.1
	l0.7-1.2l0.6-1.3"/>
<path id="SvgjsPath1080" class="st0" d="M113.6,82.1l-0.5-0.4l-0.5-0.4l-0.6-0.2l-0.6-0.2l-0.6,0l-0.6,0l-0.5,0.3l-0.5,0.3l-0.5,0.4
	l-0.5,0.4l-0.5,0.4l-0.5,0.4l-0.5,0.4l-0.5,0.4l-0.4,0.5l-0.4,0.5l-0.4,0.5l-0.4,0.5l-0.4,0.6l-0.4,0.6l-0.4,0.6l-0.4,0.6l-0.3,0.7
	l-0.3,0.7l-0.3,0.7l-0.3,0.7l-0.2,0.8l-0.2,0.8l-0.3,1.6"/>
<path id="SvgjsPath1081" class="st0" d="M101.1,94.4l-0.3,0.1l-0.3,0.1l-0.3,0.1l-0.3,0.1l-0.3,0.2l-0.3,0.2l-0.3,0.2l-0.3,0.2
	l-0.3,0.3L98,96.1l-0.3,0.3l-0.3,0.3L97.3,97L97,97.3l-0.2,0.3L96.6,98l-0.2,0.3l-0.2,0.3L95.9,99l-0.2,0.4l-0.2,0.4l-0.2,0.4
	l-0.2,0.4l-0.2,0.4l-0.1,0.4l-0.1,0.4l-0.1,0.5l-0.1,0.5l0,1"/>
<path id="SvgjsPath1082" class="st0" d="M108.4,86.2l-0.6-0.5l-0.6-0.4l-0.6-0.2l-0.7,0.1l-0.7,0.2l-0.6,0.4l-0.6,0.5l-0.5,0.6
	l-0.5,0.6l-0.5,0.6l-0.5,0.7l-0.5,0.7l-0.4,0.7l-0.4,0.7l-0.4,0.7l-0.4,0.8l-0.3,0.9l-0.2,0.9L99.3,95L99,95.9l-0.5,0.7L98,97.1
	l-0.6,0.4L96.8,98l-0.6,0.5L95.6,99l-0.5,0.6l-0.5,0.6l-0.5,0.7l-0.5,0.7"/>
<path id="SvgjsPath1083" class="st0" d="M110.8,105.3l0.3,0.2l0.3,0.2l0.3,0.1l0.3,0.1l0.3-0.1l0.3-0.1l0.3-0.2l0.3-0.2l0.3-0.2
	l0.3-0.2l0.3-0.2l0.2-0.3l0.2-0.3l0.2-0.3l0.2-0.3l0.2-0.3l0.2-0.3l0.2-0.3l0.2-0.3l0.2-0.3l0.2-0.3l0.2-0.3l0.2-0.3l0.2-0.4
	l0.2-0.4l0.2-0.4l0.2-0.4l0.2-0.4l0.3-0.7"/>
<path id="SvgjsPath1084" class="st0" d="M124.9,89.2l0.3,0.4l0.3,0.5l0.2,0.6l0.1,0.6l-0.1,0.6l-0.2,0.6l-0.3,0.5l-0.3,0.5l-0.3,0.5
	l-0.3,0.5L124,95l-0.3,0.4l-0.3,0.4l-0.3,0.4l-0.4,0.4l-0.4,0.4l-0.4,0.4l-0.4,0.4l-0.4,0.3l-0.4,0.3l-0.4,0.3l-0.4,0.3l-0.4,0.2
	l-0.4,0.2l-0.4,0.2l-0.4,0.2l-0.4,0.1l-0.4,0.1l-0.4,0.1l-0.4,0.1"/>
<path id="SvgjsPath1085" class="st0" d="M113,83.4l0.5-0.8l0.6-0.8l0.6-0.8l0.6-0.7l0.6-0.6l0.7-0.6l0.7-0.5l0.7-0.5l0.7-0.4
	l0.7-0.3l0.8-0.3l0.8-0.2l0.8-0.1l0.8,0l0.8,0.1l0.8,0.2l0.8,0.2l0.7,0.3l0.6,0.6l0.6,0.8l0.5,0.9l0,1.1l-0.1,1.1l-0.2,1.1l-0.3,1.1
	l-0.3,1l-0.3,1l-0.4,1l-0.4,1l-0.4,1"/>
<path id="SvgjsPath1086" class="st0" d="M115.8,82.5l-0.3-0.2l-0.3-0.2L115,82l-0.3-0.1l-0.3-0.1l-0.3-0.1l-0.3,0l-0.3,0l-0.3,0.1
	L113,82l-0.3,0.1l-0.3,0.1l-0.3,0.2l-0.3,0.2l-0.3,0.2l-0.3,0.2l-0.2,0.2l-0.2,0.2l-0.2,0.3l-0.2,0.3l-0.2,0.3l-0.2,0.3l-0.2,0.3
	l-0.2,0.3l-0.2,0.3l-0.2,0.3l-0.2,0.3l-0.2,0.3l-0.2,0.3l-0.2,0.3"/>
<path id="SvgjsPath1087" class="st0" d="M143.2,36.4l-0.4,0.7l-0.4,0.8l-0.4,0.8l-0.3,0.9l-0.3,0.9l-0.2,0.9l-0.2,0.9l-0.1,0.9
	l-0.1,1l-0.1,1l0,1l0,1l0,1l0.1,1l0.1,1l0.2,0.9l0.2,0.9l0.3,0.9l0.4,0.8l0.5,0.7l0.6,0.5l0.6,0.4l0.6,0.4l0.6,0.1l0.7,0l0.7-0.1
	l0.7-0.2l0.6-0.2l0.6-0.3l0.6-0.3"/>
<path id="SvgjsPath1088" class="st0" d="M140.4,41.9l0.1,2.3l0.2,2.3l0.4,2.3l0.6,2.2l0.8,2.1l0.9,1.9l1.1,1.6l1.4,1.1l1.5,0.8
	l1.6,0.4l1.6,0.2l1.6,0l1.6-0.1l1.6-0.3l1.6-0.4l1.6-0.4l1.6-0.4l1.6-0.4l1.6-0.3l1.6-0.2l1.6,0L168,57l1.6,0.5l1.5,0.7l1.5,1
	l1.3,1.3l1.1,1.6l0.9,1.9l0.7,2.1l0.4,2.2"/>
<path id="SvgjsPath1089" class="st0" d="M140.7,40.1l-0.4,2.2l-0.1,2.2l0.2,2.2l0.5,2.1l0.8,1.9l1,1.8l1,1.7l1.1,1.6l1.2,1.4
	l1.3,1.2l1.4,0.8l1.5,0.4l1.5,0.1l1.5,0.1l1.5,0.1l1.5-0.1l1.5-0.3l1.5-0.3l1.5-0.3l1.5-0.2l1.5-0.2l1.5-0.2l1.5-0.3l1.5-0.3l1.5,0
	l1.4,0.8l1.3,1.1l0.8,1.9l0.6,2.1l0.3,2.2"/>
<path id="SvgjsPath1090" class="st0" d="M195.7,81.2l-0.2,1.1l-0.2,1.1l-0.2,1.1l-0.2,1.1l-0.3,1.1l-0.3,1.1l-0.3,1.1l-0.3,1.1
	l-0.3,1.1l-0.3,1.1l-0.3,1.1l-0.3,1.1l-0.3,1.1l-0.3,1.1l-0.2,1.1l-0.2,1.1l-0.2,1.1l-0.2,1.1l-0.2,1.1l-0.1,1.1l-0.1,1.1l-0.1,1.1
	l-0.1,1.2l-0.1,1.2l-0.1,1.2l0,1.2l0.1,1.2l0.2,1.1l0.2,1.1l0.3,1.1"/>
<path id="SvgjsPath1091" class="st0" d="M195.7,79.4l-0.1,1.3l-0.1,1.3l-0.2,1.3l-0.2,1.2l-0.3,1.2l-0.3,1.2l-0.3,1.2l-0.4,1.2
	l-0.4,1.2l-0.4,1.2l-0.4,1.2l-0.4,1.2l-0.4,1.2l-0.3,1.2l-0.3,1.2l-0.3,1.2l-0.3,1.2l-0.3,1.2l-0.2,1.2l-0.2,1.3l-0.2,1.3l-0.2,1.3
	l-0.2,1.3l-0.1,1.3l-0.1,1.3l-0.1,1.3l-0.1,1.3l-0.1,1.3l0,1.3l0,1.3"/>
<path id="SvgjsPath1092" class="st0" d="M180.8,73.9l0,1.3l0,1.3l0,1.3l0,1.3l0,1.3l-0.1,1.3l-0.1,1.3l-0.2,1.3l-0.2,1.2l-0.3,1.2
	l-0.3,1.2l-0.3,1.2l-0.3,1.2l-0.4,1.2l-0.4,1.2l-0.4,1.2l-0.4,1.1l-0.4,1.1l-0.4,1.1l-0.4,1.1l-0.4,1.1l-0.4,1.1l-0.5,1.1l-0.5,1.1
	l-0.5,1.1l-0.5,1.1l-0.5,1l-0.5,1l-0.5,1l-0.5,1"/>
<path id="SvgjsPath1093" class="st0" d="M180.4,73l0.1,1.1l0.1,1.1l0.1,1.1l0.1,1.1l0.1,1.1l0.1,1.1l0,1.1l0,1.1l0,1.1l-0.1,1.1
	l-0.1,1.1l-0.1,1.1l-0.2,1.1l-0.2,1.1l-0.2,1.1l-0.3,1.1l-0.3,1.1l-0.3,1.1l-0.3,1l-0.3,1l-0.3,1l-0.3,1l-0.3,1l-0.3,1l-0.3,1
	l-0.3,1l-0.3,1l-0.3,1l-0.3,1l-0.3,1"/>
<path id="SvgjsPath1094" class="st0" d="M178.9,90.2l-0.5,1.4l-0.5,1.4l-0.6,1.4l-0.6,1.3l-0.7,1.3l-0.7,1.2l-0.8,1.2l-0.8,1.1
	l-0.8,1.1l-0.8,1.1l-0.8,1.1l-0.8,1.1l-0.8,1.1l-0.8,1.1l-0.8,1.1l-0.8,1.1l-0.8,1l-0.8,1l-0.9,1l-0.9,1l-0.9,1l-0.9,1l-0.9,1
	l-0.9,1l-0.9,1l-0.9,0.9l-0.9,0.9l-0.9,0.9l-0.9,0.9l-0.9,0.9"/>
<path id="SvgjsPath1095" class="st0" d="M176.1,98.3l-1.1,1.1l-1.1,1.1l-1,1.2l-1,1.2l-1,1.2l-1,1.2l-1,1.2l-1,1.2l-1,1.2l-1,1.2
	l-1,1.2l-1,1.2l-1,1.1l-1,1.1l-1.1,1.1l-1.1,1.1l-1,1.1l-1,1.1l-1,1.2l-1,1.3l-0.9,1.4l-0.8,1.5l-0.8,1.5l-0.7,1.6l-0.7,1.6
	l-0.7,1.6l-0.6,1.7l-0.6,1.7l-0.6,1.7l-0.6,1.7"/>
<path id="SvgjsPath1096" class="st0" d="M168.9,106l-0.8,0.8l-0.8,0.8l-0.8,0.9l-0.7,0.9l-0.7,0.9l-0.7,1l-0.7,1l-0.7,1l-0.7,1
	l-0.7,1l-0.7,1l-0.7,1l-0.7,1l-0.7,1l-0.7,1l-0.7,1l-0.6,1l-0.6,1.1l-0.6,1.1l-0.6,1.1l-0.5,1.2l-0.5,1.2l-0.5,1.2l-0.5,1.2
	l-0.5,1.2l-0.4,1.3l-0.4,1.3l-0.4,1.3l-0.4,1.3l-0.4,1.3"/>
<path id="SvgjsPath1097" class="st0" d="M156.2,122.3l-0.3,0.6l-0.3,0.6l-0.3,0.6l-0.3,0.6l-0.3,0.6l-0.3,0.6l-0.3,0.6l-0.3,0.6
	l-0.3,0.6l-0.3,0.6l-0.2,0.6l-0.2,0.7l-0.2,0.7l-0.2,0.7l-0.2,0.7l-0.2,0.7l-0.2,0.7l-0.2,0.7l-0.2,0.7l-0.2,0.7l-0.2,0.7l-0.1,0.7
	l-0.1,0.7l-0.1,0.7l-0.1,0.7l-0.2,0.7l-0.2,0.7l-0.2,0.7l-0.2,0.7l-0.2,0.7"/>
<path id="SvgjsPath1098" class="st0" d="M112.1,102.4l-0.6,1.2l-0.5,1.2l-0.5,1.2l-0.5,1.3l-0.4,1.3l-0.4,1.3l-0.3,1.4l-0.3,1.4
	l-0.2,1.4l-0.2,1.4l-0.2,1.4l-0.1,1.4l-0.1,1.4l0,1.4l0,1.4l0.1,1.4l0.2,1.4l0.3,1.4l0.4,1.3l0.5,1.3l0.5,1.2l0.6,1.2l0.6,1.1l0.7,1
	l0.8,0.9l0.8,0.8l0.8,0.7l0.9,0.6l0.9,0.5l1,0.4"/>
<path id="SvgjsPath1099" class="st0" d="M109,111.9l-0.2,1.3l-0.1,1.4l-0.1,1.4l-0.1,1.4l0,1.4l0.1,1.4l0.1,1.4l0.2,1.3l0.2,1.3
	l0.3,1.3l0.4,1.3l0.5,1.2l0.6,1.1l0.6,1.1l0.7,0.9l0.8,0.8l0.8,0.7l0.9,0.5l0.9,0.4l0.9,0.3l0.9,0.2l0.9,0.1l0.9,0l0.9,0l0.9-0.1
	l0.9-0.1l0.9-0.2l0.9-0.2l0.9-0.2l0.9-0.3"/>
<path id="SvgjsPath1100" class="st0" d="M111.2,131.8l0.4,0.3l0.4,0.3l0.4,0.3l0.4,0.3l0.4,0.3l0.4,0.3l0.4,0.2l0.4,0.2l0.4,0.2
	l0.4,0.2l0.4,0.2l0.4,0.2l0.4,0.1l0.4,0.1l0.4,0.1l0.4,0.1l0.4,0.1l0.4,0.1l0.4,0l0.4,0l0.4,0l0.4,0l0.4-0.1l0.4-0.1l0.4-0.1
	l0.4-0.1l0.4-0.2l0.4-0.2l0.8-0.4"/>
<path id="SvgjsPath1101" class="st0" d="M110.5,132.2l0.4,0.2l0.4,0.2l0.4,0.2l0.4,0.2l0.4,0.2l0.4,0.2l0.4,0.2l0.4,0.2l0.4,0.2
	l0.4,0.2l0.4,0.2l0.4,0.2l0.4,0.2l0.4,0.2l0.4,0.2l0.4,0.2l0.4,0.2l0.4,0.2l0.4,0.2l0.4,0.1l0.4,0.1l0.4,0.1l0.4,0.1l0.4,0.1l0.4,0
	h0.4l0.4,0l0.4,0l0.4,0l0.8-0.2"/>
<path id="SvgjsPath1102" class="st0" d="M155.9,107.8l-0.3,0.3l-0.3,0.3l-0.3,0.3l-0.3,0.3l-0.3,0.3l-0.3,0.3l-0.3,0.3l-0.3,0.3
	l-0.3,0.4l-0.3,0.4l-0.3,0.4l-0.3,0.4l-0.3,0.4l-0.3,0.4l-0.3,0.4l-0.3,0.4l-0.3,0.4l-0.3,0.4l-0.3,0.4L150,115l-0.3,0.4l-0.3,0.4
	l-0.3,0.4l-0.3,0.4l-0.3,0.3l-0.3,0.3l-0.3,0.3l-0.3,0.3l-0.7,0.5"/>
<path id="SvgjsPath1103" class="st0" d="M155.3,108.7l-0.5,0.6l-0.5,0.6l-0.5,0.6l-0.5,0.6l-0.5,0.6l-0.5,0.6l-0.5,0.6l-0.5,0.6
	l-0.5,0.6l-0.5,0.6l-0.5,0.6l-0.5,0.6l-0.5,0.6l-0.5,0.6l-0.5,0.6l-0.5,0.6l-0.5,0.6l-0.5,0.6l-0.5,0.6l-0.5,0.6l-0.5,0.6l-0.5,0.6
	l-0.5,0.6l-0.5,0.5l-0.6,0.5l-0.6,0.5l-0.6,0.5l-0.6,0.5l-0.6,0.5l-0.6,0.5"/>
<path id="SvgjsPath1104" class="st0" d="M122,134.5l0.5-0.3l0.5-0.2l0.5-0.2l0.5-0.2l0.6-0.2l0.6-0.2l0.6-0.2l0.6-0.2l0.6-0.2
	l0.6-0.2l0.6-0.2l0.6-0.2l0.6-0.2l0.6-0.2l0.5-0.2l0.5-0.3l0.5-0.3l0.5-0.2l0.5-0.2l0.6-0.2l0.6-0.2l0.6-0.2l0.6-0.2l0.6-0.2
	l0.6-0.2l0.5-0.2l0.5-0.3l0.5-0.3l1-0.7"/>
<path id="SvgjsPath1105" class="st0" d="M125.5,132.2l0.7-0.1l0.7-0.1l0.7-0.1l0.7-0.1l0.7-0.2l0.7-0.2l0.7-0.2l0.7-0.3l0.7-0.3
	l0.7-0.3l0.7-0.3l0.7-0.3l0.7-0.3l0.7-0.3l0.7-0.4l0.7-0.4l0.7-0.4l0.7-0.4l0.7-0.4l0.7-0.4l0.7-0.4l0.7-0.4l0.7-0.4l0.7-0.4
	l0.7-0.4l0.6-0.5l0.6-0.5l0.6-0.5l0.6-0.6l0.6-0.6"/>
<path id="SvgjsPath1106" class="st0" d="M121.4,53.6l0.1,0.8l0.1,0.8l0.1,0.8l0.1,0.8l0.1,0.8l0.1,0.8l0,0.8l0,0.8l0,0.8l0,0.8
	l0,0.8l0,0.8l0,0.8l0,0.8l0,0.8l0,0.8l0.1,0.8l0.1,0.8l0.1,0.8l0.1,0.8l0.2,0.8l0.2,0.8l0.1,0.8l0.1,0.8l0.1,0.8l0.1,0.8l0.1,0.8
	l0.1,0.8l0.2,1.5"/>
<path id="SvgjsPath1107" class="st0" d="M121.4,54.1l0,0.8l0,0.8l0,0.8l0,0.8l0,0.8l0,0.8l0,0.8l0,0.8l0,0.8l0,0.8l0,0.8l0,0.8
	l0,0.8l0,0.8l0,0.8l0,0.8l0,0.8l0,0.8l0,0.8l0,0.8l0,0.8l0,0.8l0,0.8l0,0.8l0.1,0.8l0.1,0.8l0.2,0.8l0.2,0.8l0.5,1.5"/>
<path id="SvgjsPath1108" class="st0" d="M198.8,78.5l-0.3,1.1l-0.3,1.1l-0.3,1.1l-0.3,1.1l-0.3,1.1l-0.3,1.1l-0.3,1.1l-0.3,1.1
	l-0.3,1.1l-0.3,1.1l-0.3,1.1l-0.3,1.1L195,93l-0.2,1.1l-0.2,1.1l-0.2,1.1l-0.2,1.1l-0.2,1.2l-0.2,1.2l-0.2,1.2l-0.1,1.2l-0.1,1.2
	l-0.1,1.2l0,1.2l0,1.2l0.1,1.2l0.1,1.2l0.2,1.2l0.3,1.1l0.3,1.1"/>
<path id="SvgjsPath1109" class="st0" d="M126.4,41.4l0,1.2l0,1.2l0,1.2l0,1.2l0,1.2l0,1.2l0,1.2l0,1.2l0,1.2l0,1.2l0,1.2l0,1.2
	l0,1.2l0,1.2l0,1.2l0,1.2l0,1.2l0,1.2l0,1.2l0,1.2l0,1.2l0,1.2l0,1.2l0,1.2l0,1.2l0,1.2l0,1.2l0,1.2l0,1.2l0,1.2l0,1.2"/>
<path id="SvgjsPath1110" class="st0" d="M140.4,179.2l0.5-0.8l0.5-0.8l0.4-0.9l0.4-0.9l0.3-1l0.2-1l0.2-1l0.1-1.1l0-1.1l0-1.1
	l-0.1-1.1l-0.1-1.1l-0.2-1l-0.3-1l-0.3-1l-0.3-1l-0.2-1l-0.2-1l-0.3-1l-0.3-1l-0.3-1l-0.3-1l-0.3-1l-0.4-0.9l-0.4-0.9l-0.5-0.8
	l-0.5-0.7l-0.6-0.6l-0.6-0.5l-0.7-0.5"/>
<path id="SvgjsPath1111" class="st0" d="M141.6,177l0.6-0.9l0.5-1l0.5-1l0.3-1.2l0.2-1.2l0.1-1.2l0-1.3l-0.1-1.2l-0.2-1.2l-0.3-1.2
	l-0.3-1.2l-0.4-1.1l-0.5-1.1l-0.5-1l-0.5-1l-0.5-1l-0.5-1l-0.5-1l-0.6-0.9l-0.6-0.9l-0.6-0.9l-0.7-0.7l-0.7-0.7l-0.7-0.7l-0.8-0.5
	l-0.8-0.5l-0.8-0.4l-0.8-0.4l-0.8-0.3l-0.8-0.3"/>
<path id="SvgjsPath1112" class="st0" d="M137.6,153.5l0.6,0.8l0.6,0.8l0.6,0.8l0.6,0.7l0.6,0.7l0.6,0.7l0.6,0.7l0.6,0.7l0.6,0.7
	l0.6,0.7l0.6,0.7l0.5,0.8l0.5,0.9l0.4,1l0.4,1l0.4,1l0.2,1.1l0.2,1.1l0.1,1.1l0,1.1l0,1.1l-0.1,1.1l-0.1,1.1l-0.1,1.1l-0.2,1.1
	l-0.3,1.1l-0.3,1l-0.5,0.9l-0.5,0.9l-0.5,0.8"/>
<path id="SvgjsPath1113" class="st0" d="M139.4,157.5l-1.8-2.2l-1.9-2l-2-1.7l-2.1-1.4l-2.2-1.1l-2.2-0.9l-2.3-0.7l-2.3-0.5
	l-2.3-0.4l-2.3-0.3l-2.3-0.2l-2.3-0.1l-2.3,0l-2.3,0l-2.3,0.1l-2.3,0.3l-2.3,0.5l-2.3,0.7l-2.3,0.7l-2.3,0.8l-2.3,0.7l-2.3,0.7
	l-2.3,0.5l-2.3,0.3l-2.3-0.1l-2.2-1l-0.9-2.8l0.3-3.3l0.7-3.2l1-3"/>
<path id="SvgjsPath1114" class="st0" d="M81.9,151.5l0.1,0.2l0.1,0.2l0.1,0.1l0.1,0.1l0.1,0.1l0.1,0.1l0.1,0.1l0.1,0.1l0.1,0.1
	l0.2,0.1l0.2,0.1l0.2,0.1l0.2,0.1l0.2,0l0.2,0l0.2,0l0.2,0l0.2,0l0.2,0l0.2,0l0.2,0l0.2,0l0.2,0h0.2l0.2,0l0.2,0l0.2,0l0.2,0l0.2,0
	l0.3,0"/>
<path id="SvgjsPath1115" class="st0" d="M84.8,153.9l0.9-0.3l0.9-0.3l0.9-0.3l0.9-0.3l0.9-0.3l0.9-0.3l0.9-0.3l0.9-0.3l0.9-0.3
	l0.9-0.3l0.9-0.3l0.9-0.3l0.9-0.3l0.9-0.3l0.9-0.4l0.9-0.4l0.9-0.4l0.9-0.4l0.9-0.3l0.9-0.3l0.9-0.3l0.9-0.2l0.9-0.1l0.9-0.1
	l0.9-0.1l0.9,0l0.9,0l0.9,0l0.9,0l0.9,0"/>
<path id="SvgjsPath1116" class="st0" d="M148.1,172.6l-2.1,3.3l-2.1,3.4l-2,3.4l-1.9,3.5l-1.8,3.7l-1.7,3.8l-1.6,3.9l-1.5,4l-1.4,4
	l-1.4,4.1l-1.3,4.1l-1.2,4.2l-1.2,4.2l-1.1,4.2l-1.1,4.2l-1,4.3l-1,4.3l-0.9,4.3l-0.9,4.3l-0.8,4.4l-0.8,4.4l-0.7,4.4l-0.6,4.4
	l-0.6,4.5l-0.5,4.5l-0.4,4.5l-0.4,4.5l-0.3,4.5l-0.2,4.5l-0.1,4.5"/>
<path id="SvgjsPath1117" class="st0" d="M146.6,172l-2.1,3l-2,3.1l-2,3.2l-1.9,3.3l-1.8,3.4l-1.8,3.5l-1.7,3.5l-1.6,3.6l-1.5,3.7
	l-1.5,3.7l-1.4,3.8l-1.3,3.8l-1.3,3.9l-1.2,3.9l-1.2,4l-1.1,4l-1,4l-0.9,4.1l-0.8,4.1l-0.7,4.2l-0.6,4.2l-0.5,4.2l-0.4,4.2l-0.3,4.3
	l-0.2,4.3l0,4.3l0.1,4.3l0.1,4.3l0.1,4.3l0.1,4.3"/>
<path id="SvgjsPath1118" class="st0" d="M144.5,170.3l-1.9,3.7l-1.8,3.7l-1.8,3.8l-1.8,3.8l-1.7,3.8l-1.7,3.9l-1.6,4l-1.5,4
	l-1.4,4.1l-1.4,4.1l-1.4,4.2l-1.3,4.2l-1.3,4.2l-1.2,4.2l-1.2,4.3l-1.1,4.3l-1,4.4l-0.9,4.4l-0.8,4.4l-0.8,4.5l-0.7,4.5l-0.7,4.5
	l-0.7,4.5l-0.6,4.5l-0.5,4.5l-0.4,4.6l-0.3,4.6l-0.2,4.6l-0.2,4.6l-0.2,4.6l-0.2,4.6"/>
<path id="SvgjsPath1119" class="st0" d="M84.8,127.7l-0.2,0.7l-0.2,0.7l-0.2,0.7l-0.2,0.7l-0.2,0.8l-0.2,0.8l-0.2,0.8l-0.2,0.8
	l-0.2,0.8l-0.2,0.8l-0.2,0.8l-0.2,0.8l-0.2,0.8l-0.2,0.8l-0.2,0.8l-0.2,0.8l-0.2,0.8l-0.2,0.8l-0.2,0.8l-0.2,0.8l-0.1,0.8l-0.1,0.8
	l-0.1,0.8l-0.1,0.8l-0.2,0.8l-0.2,0.8l-0.2,0.8l-0.2,0.8l-0.4,1.5"/>
<path id="SvgjsPath1120" class="st0" d="M82.9,132.2l-0.2,0.6l-0.2,0.6l-0.2,0.6l-0.2,0.6l-0.2,0.6l-0.2,0.6l-0.1,0.6l-0.1,0.6
	l-0.1,0.7l-0.1,0.7l-0.1,0.7l-0.1,0.7l-0.1,0.7l-0.1,0.7l0,0.7l0,0.7l0,0.7l0,0.7l0,0.7l0,0.7l0,0.7l0,0.7l0,0.7l0,0.7l0.1,0.7
	l0.1,0.7l0.2,0.6l0.2,0.6l0.5,1.1"/>
<path id="SvgjsPath1121" class="st0" d="M84.9,143.9l0.1,0.2l0.1,0.2l0.1,0.2l0.1,0.2l0.1,0.2l0.1,0.2l0.1,0.2l0.1,0.2l0.2,0.2
	l0.2,0.2l0.2,0.1l0.2,0.1l0.2,0.1l0.2,0.1l0.2,0l0.2,0l0.2,0l0.2,0l0.2,0l0.2,0l0.2-0.1l0.2-0.1l0.2-0.1l0.2-0.1l0.2-0.1l0.2-0.1
	l0.2-0.1l0.2-0.1l0.4-0.2"/>
<path id="SvgjsPath1122" class="st0" d="M86.9,146.7l0.8-0.3l0.8-0.3l0.8-0.3l0.8-0.3l0.8-0.3l0.8-0.2l0.8-0.2l0.8-0.2l0.8-0.3
	l0.8-0.3l0.8-0.4l0.8-0.4l0.8-0.4l0.8-0.4l0.8-0.3l0.8-0.3l0.8-0.3l0.8-0.3l0.8-0.2l0.8-0.2l0.8-0.2l0.8-0.2l0.8-0.2l0.8-0.2
	l0.8-0.2l0.8-0.2l0.8-0.3l0.8-0.3l0.8-0.3l0.8-0.3"/>
<path id="SvgjsPath1123" class="st0" d="M85.7,110.1l0.1,1.1l0.1,1.1l0.1,1.1l0,1.1l0,1.1l0,1.1l0,1.1l-0.1,1.1l-0.1,1.1l-0.1,1.1
	l-0.1,1.1l-0.1,1.1l-0.1,1.1l-0.1,1.1l-0.1,1.1l-0.1,1.1l-0.1,1.1l-0.1,1.1l-0.1,1.1l-0.1,1.1l-0.1,1.1l-0.1,1.1l-0.1,1.1l0,1.1
	l0,1.1l0,1.1l0.1,1.1l0.2,1.1l0.3,1.1l0.3,1"/>
<path id="SvgjsPath1124" class="st0" d="M112.1,102l-0.9,1l-0.9,1l-0.9,1l-0.9,1.1l-0.9,1.1l-0.8,1.1l-0.8,1.2l-0.8,1.2l-0.8,1.2
	l-0.7,1.3l-0.7,1.3l-0.6,1.4l-0.6,1.4l-0.5,1.5l-0.4,1.5l-0.3,1.6l-0.2,1.6l-0.1,1.6l0,1.7l0.2,1.6l0.3,1.6l0.4,1.5l0.6,1.4l0.7,1.3
	l0.8,1.2l0.9,1.1l1,0.9l1,0.7l1.1,0.4l1.1,0.2"/>
<path id="SvgjsPath1125" class="st0" d="M108.1,102.9l-0.6,1.3l-0.6,1.4l-0.6,1.4l-0.6,1.4l-0.5,1.4l-0.5,1.4l-0.5,1.5l-0.5,1.5
	l-0.4,1.5l-0.4,1.5l-0.4,1.5l-0.4,1.5l-0.3,1.5l-0.3,1.6l-0.3,1.6l-0.2,1.6l-0.2,1.6l-0.1,1.6l0,1.6l0.1,1.6l0.2,1.6l0.3,1.6
	l0.4,1.5l0.5,1.5l0.6,1.3l0.8,1.2l0.9,0.9l1.1,0.5l1.1,0.1l1.1-0.2"/>
<path id="SvgjsPath1126" class="st0" d="M94.7,64l0.5,0.5l0.5,0.5l0.5,0.5l0.5,0.5l0.5,0.5l0.5,0.5l0.5,0.4l0.6,0.4l0.6,0.4l0.6,0.4
	l0.6,0.4l0.6,0.4l0.6,0.4l0.6,0.4l0.6,0.4l0.6,0.4l0.6,0.4l0.6,0.4l0.6,0.3l0.6,0.3l0.6,0.3l0.6,0.3l0.6,0.3l0.6,0.3l0.6,0.3
	l0.6,0.4l0.6,0.4l0.6,0.4l0.5,0.5l0.5,0.5"/>
<path id="SvgjsPath1127" class="st0" d="M97.2,65.4l0.6,0.4l0.6,0.4l0.6,0.5l0.6,0.5l0.6,0.5l0.6,0.5l0.6,0.5l0.6,0.5l0.6,0.5
	l0.6,0.5l0.6,0.5l0.6,0.5l0.6,0.5l0.6,0.5l0.6,0.5l0.6,0.5l0.6,0.5l0.6,0.5l0.6,0.4l0.6,0.4l0.6,0.5l0.6,0.5l0.5,0.5l0.5,0.6
	l0.5,0.6l0.5,0.6l0.5,0.6l0.5,0.6l0.5,0.6l0.5,0.6"/>
<path id="SvgjsPath1128" class="st0" d="M103.1,64.5l0.4,0.3l0.4,0.3l0.4,0.3l0.4,0.3l0.4,0.3l0.4,0.3l0.3,0.3l0.3,0.3l0.3,0.3
	l0.3,0.3l0.3,0.3l0.3,0.3l0.3,0.3l0.3,0.3l0.4,0.3l0.4,0.3l0.4,0.3l0.4,0.3l0.4,0.3l0.4,0.3l0.3,0.3l0.3,0.3l0.3,0.3l0.3,0.3
	l0.3,0.3l0.3,0.3l0.4,0.3l0.4,0.3l0.7,0.6"/>
<path id="SvgjsPath1129" class="st0" d="M103.7,64l0.5,0.5l0.5,0.5l0.5,0.5l0.5,0.5l0.5,0.5l0.5,0.5l0.5,0.5l0.5,0.5l0.5,0.5
	l0.5,0.5l0.5,0.5l0.5,0.5l0.5,0.5l0.5,0.5l0.5,0.5l0.5,0.6l0.5,0.6l0.4,0.6l0.4,0.6l0.4,0.6l0.4,0.7l0.4,0.6l0.4,0.6l0.5,0.6
	l0.5,0.6l0.5,0.5l0.5,0.5l0.5,0.6l0.9,1.1"/>
<path id="SvgjsPath1130" class="st0" d="M126.4,83.4l0,0.4l0,0.4l0,0.4l0,0.4l0.1,0.4l0.1,0.4l0.1,0.4l0.1,0.4l0.1,0.4l0.1,0.4
	l0.1,0.4l0.1,0.4l0.1,0.4l0.1,0.4l0.1,0.4l0.1,0.4l0.1,0.4l0.1,0.4l0.1,0.4l0.1,0.4l0.2,0.3l0.2,0.3l0.2,0.3l0.2,0.3l0.2,0.3
	l0.2,0.3l0.2,0.2l0.2,0.2l0.2,0.2l0.2,0.2"/>
<path id="SvgjsPath1131" class="st0" d="M126.1,83.4l0.1,0.3l0.1,0.3l0.1,0.3l0.1,0.3l0.1,0.3l0.1,0.3l0.1,0.3l0.1,0.3l0.1,0.3
	l0.1,0.3l0.1,0.3l0.1,0.3l0.1,0.3l0.1,0.3l0.1,0.3l0.1,0.3l0.1,0.3l0.1,0.3l0.1,0.3l0.1,0.3l0.1,0.3l0.1,0.3l0.1,0.3l0.1,0.3
	l0.2,0.3l0.2,0.2l0.2,0.2l0.2,0.2l0.2,0.2l0.2,0.2"/>
<path id="SvgjsPath1132" class="st0" d="M130.1,91.7l0.1,0.1l0.1,0.1l0.1,0.1l0.1,0.1l0.1,0.1l0.1,0.1l0.1,0.1l0.1,0.1l0.1,0l0.1,0
	l0.1,0l0.1,0l0.1,0l0.1,0l0.1,0l0.1,0l0.1,0l0.1,0l0.1,0l0.1,0l0.1,0l0.1,0l0.1,0l0.1,0l0.1,0l0.1,0l0.1,0l0.1,0l0.1,0l0.1,0"/>
<path id="SvgjsPath1133" class="st0" d="M128.6,92l0.7,0.3l0.7,0.3l0.7,0.2l0.7,0.2l0.7,0.2l0.7,0.1l0.7,0.1l0.7,0l0.7,0h0.7l0.7,0
	l0.7,0l0.7,0l0.7,0l0.7,0l0.7,0l0.7,0l0.7,0l0.7,0l0.7,0l0.7,0l0.7,0l0.7,0l0.7,0l0.7,0l0.7,0l0.7,0l0.7,0l0.7,0l0.7,0"/>
<path id="SvgjsPath1134" class="st0" d="M147.5,94.3l0.7,0l0.7,0l0.7,0l0.7,0l0.7,0l0.7,0l0.7,0l0.7,0l0.7,0l0.7,0l0.7,0l0.7,0
	l0.7,0l0.7,0l0.7,0l0.7-0.1l0.7-0.1l0.7-0.1l0.7-0.2l0.7-0.2l0.7-0.1l0.7-0.1l0.7-0.1l0.7-0.1l0.7-0.1l0.7-0.2l0.7-0.2l0.7-0.3
	L168,92l0.7-0.4"/>
<path id="SvgjsPath1135" class="st0" d="M142.8,93.8l0.8,0l0.8,0l0.8,0l0.8,0l0.8,0l0.8,0l0.8,0l0.8,0l0.8,0l0.8,0l0.8,0l0.8,0
	l0.8,0l0.8,0l0.8,0l0.8,0l0.8,0l0.8,0l0.8,0l0.8,0l0.8-0.1l0.8-0.1l0.8-0.2l0.8-0.2l0.8-0.3l0.8-0.4l0.8-0.5l0.8-0.5l0.7-0.6
	l0.7-0.6"/>
<path id="SvgjsPath1136" class="st0" d="M139.1,36.4l-0.1,0.7l-0.1,0.7l-0.1,0.7l-0.1,0.7l-0.1,0.7l-0.1,0.7l-0.1,0.7l-0.1,0.7
	l0,0.7l0,0.7l0,0.7l0,0.7l0,0.7l0,0.7l0,0.7l0,0.7l0,0.7l0,0.7l0,0.7l0,0.7l0,0.7l0.1,0.7l0.1,0.7l0.1,0.7l0.1,0.7l0.1,0.7l0.1,0.7
	l0.1,0.7l0.3,1.3"/>
<path id="SvgjsPath1137" class="st0" d="M138.5,38.7l-0.1,1.5l-0.1,1.5l-0.1,1.5l-0.1,1.5l0,1.5l0,1.5l0.1,1.5l0.1,1.5l0.2,1.5
	l0.3,1.5l0.4,1.4l0.5,1.4l0.6,1.2l0.6,1.2l0.7,1.2l0.7,1.1l0.8,1l0.9,0.9l0.9,0.8l1,0.6l1,0.5l1,0.3l1,0.2l1,0.1l1,0l1,0l1-0.1
	l1-0.1l1-0.1l1-0.1"/>
<path id="SvgjsPath1138" class="st0" d="M154.3,65.4l0.7-0.1l0.7-0.1l0.7-0.1l0.7,0l0.7,0l0.7,0l0.7,0.1l0.7,0.1l0.7,0.2l0.7,0.3
	l0.7,0.3l0.7,0.3l0.7,0.4l0.7,0.4l0.7,0.4l0.7,0.5l0.6,0.5l0.6,0.6l0.6,0.6l0.6,0.6l0.6,0.7l0.5,0.7l0.5,0.7l0.5,0.8l0.5,0.8
	l0.5,0.8l0.4,0.9l0.4,0.9l0.4,0.9l0.4,0.9"/>
<path id="SvgjsPath1139" class="st0" d="M167.7,69.9l0.6,0.6l0.6,0.6l0.5,0.6l0.5,0.7l0.5,0.7l0.5,0.7l0.4,0.8l0.4,0.8l0.3,0.9
	l0.2,0.9l0.1,1l0,1l0,1l-0.2,1l-0.2,1l-0.3,0.9l-0.3,0.9l-0.3,0.9l-0.3,0.9l-0.3,0.9l-0.3,0.9l-0.4,0.8l-0.4,0.8l-0.4,0.8l-0.4,0.8
	l-0.4,0.8l-0.4,0.8l-0.4,0.8l-0.4,0.8l-0.4,0.8"/>
<path id="SvgjsPath1140" class="st0" d="M152.2,102.4l0.1,0.2l0.1,0.2l0.1,0.2l0.1,0.2l0.1,0.2l0.1,0.2l0.1,0.2l0.1,0.2l0.1,0.2
	l0.1,0.2l0.1,0.2l0.1,0.2l0.1,0.1l0.1,0.1l0.1,0.1l0.1,0.1l0.1,0.2l0.1,0.2l0.1,0.2l0.1,0.2l0.1,0.2l0.1,0.2l0.1,0.2l0.1,0.2
	l0.1,0.2l0.1,0.2l0.1,0.2l0.1,0.2l0.1,0.2l0.1,0.2"/>
<path id="SvgjsPath1141" class="st0" d="M123.6,92.5l0.5,0.8l0.5,0.7l0.6,0.7l0.6,0.6l0.6,0.6l0.6,0.5l0.7,0.5l0.7,0.4l0.7,0.4
	l0.7,0.4l0.7,0.4l0.7,0.4l0.7,0.3l0.7,0.3l0.7,0.3l0.7,0.3l0.7,0.3l0.7,0.2l0.7,0.2l0.7,0.2l0.7,0.1l0.7,0.1l0.7,0.1l0.7,0.1
	l0.7,0.1l0.7,0l0.7,0l0.7,0l0.7,0l0.7,0l0.7,0"/>
<path id="SvgjsPath1142" class="st0" d="M124.2,92.9l0.8,0.9l0.8,0.8l0.8,0.7l0.9,0.7l0.9,0.6l0.9,0.5l0.9,0.4l0.9,0.3l0.9,0.3
	l1,0.3l1,0.2l1,0.2l1,0.2l1,0.2l1,0.2l1,0.2l1,0.2l1,0.2l1,0.2l1,0.2l1,0.2l1,0.2l1,0.2l1,0.2l1,0.2l1,0.1l1,0.1l1,0.1l1,0.1l1,0"/>
<path id="SvgjsPath1143" class="st0" d="M149.7,102.4l0.2,0l0.2,0l0.2,0.1l0.2,0.1l0.2,0.1l0.2,0.1l0.2,0.1l0.2,0.1l0.2,0.1l0.2,0.1
	l0.2,0.1l0.2,0.1l0.2,0.1l0.2,0.1l0.2,0.2l0.2,0.2l0.2,0.2l0.2,0.2l0.2,0.2l0.2,0.2l0.2,0.2l0.2,0.2l0.2,0.2l0.2,0.2l0.2,0.2
	l0.2,0.2l0.2,0.2l0.2,0.2l0.4,0.4"/>
<path id="SvgjsPath1144" class="st0" d="M197.6,61.8L197,62l-0.5,0.3l-0.5,0.3l-0.5,0.4l-0.5,0.4l-0.5,0.4l-0.4,0.5l-0.4,0.5
	l-0.4,0.5l-0.4,0.5l-0.4,0.5l-0.4,0.5l-0.4,0.5l-0.4,0.6l-0.4,0.6l-0.3,0.6l-0.3,0.7l-0.2,0.7l0,0.8l0.2,0.8l0.2,0.7l0.3,0.7
	l0.3,0.7l0.3,0.7l0.3,0.6l0.4,0.5l0.4,0.5l0.5,0l1-0.5"/>
<path id="SvgjsPath1145" class="st0" d="M205,59l-0.5,0.1l-0.5,0.1l-0.5,0.2l-0.5,0.2l-0.5,0.2l-0.5,0.2l-0.5,0.2l-0.5,0.2l-0.5,0.2
	l-0.5,0.2l-0.5,0.2l-0.5,0.2l-0.5,0.3l-0.5,0.3l-0.5,0.3l-0.5,0.3l-0.5,0.4l-0.5,0.4l-0.5,0.4l-0.5,0.4l-0.4,0.5l-0.4,0.5l-0.4,0.6
	l-0.4,0.6l-0.3,0.7l-0.3,0.7l-0.1,0.8l0,0.8l0.1,0.8l0.1,0.8"/>
<path id="SvgjsPath1146" class="st0" d="M210.3,58.6l-0.4-0.3l-0.4-0.3l-0.4-0.3l-0.4-0.3l-0.4-0.2l-0.4-0.2l-0.5-0.1l-0.5,0l-0.5,0
	l-0.5,0.1l-0.5,0.1l-0.4,0.1l-0.4,0.1l-0.4,0.2l-0.4,0.2l-0.4,0.2l-0.4,0.2l-0.4,0.2l-0.4,0.2l-0.4,0.2l-0.4,0.2l-0.4,0.2l-0.4,0.2
	l-0.4,0.2l-0.4,0.3l-0.4,0.3l-0.4,0.4l-0.4,0.4l-0.3,0.5l-0.3,0.5"/>
</svg>
