<?xml version="1.0" encoding="UTF-8"?><svg id="SvgjsSvg1001" xmlns="http://www.w3.org/2000/svg" viewBox="0 0 335.974 267.536"><defs><style>.cls-1{fill:none;stroke:#000;}</style></defs><path id="SvgjsPath1008" class="cls-1" d="M167.893,127.621l.465,4.647,.502,4.644,.582,4.634,.526,4.641,.469,4.647,.436,4.65,.394,4.654,.343,4.658,.281,4.662,.205,4.666,.122,4.669,.046,4.67,.008,4.671v79.402"/><path id="SvgjsPath1009" class="cls-1" d="M168.291,130.427l.153,4.405,.25,4.4,.375,4.392,.49,4.38,.544,4.375,.56,4.372,.54,4.374,.484,4.381,.394,4.39,.311,4.397,.293,4.398,.306,4.397,.313,4.397,.308,4.397,.29,4.398,.258,4.4,.216,4.403,.161,4.405,.093,4.406,.013,4.408-.063,4.407-.127,4.406-.183,4.404-.23,4.402-.268,4.399-.3,4.398-.322,4.396-.434,4.386-.415,4.388-.427,4.388"/><path id="SvgjsPath1010" class="cls-1" d="M169.884,126.569l.112,.729,.112,.73,.084,.734,.081,.734,.051,.736,.04,.737,.013,.738-.007,.738-.023,.738-.045,.737-.052,.737-.071,.734-.07,.735-.07,.736-.069,.735-.051,.736-.05,.737-.037,.737-.035,.738-.029,.738-.026,.737-.024,.738-.023,.738-.024,.738-.025,.738-.028,.738-.031,.738-.032,.738-.069,1.475"/><path id="SvgjsPath1011" class="cls-1" d="M163.515,108.317l.985,.534,.966,.554,.944,.574,.894,.616,.854,.645,.816,.673,.745,.715,.688,.744,.639,.769,.545,.808,.462,.834,.392,.854,.279,.878,.173,.892,.098,.898-.002,.902-.081,.9-.126,.897-.181,.892-.228,.886-.254,.883-.282,.878-.307,.873-.318,.872-.327,.869-.329,.869-.322,.87-.312,.872-.289,.877-.28,.878-.27,.88"/><path id="SvgjsPath1012" class="cls-1" d="M164.709,109.093l.651,.897,.664,.892,.686,.883,.747,.856,.709,.873,.671,.889,.616,.911,.329,.985,.221,1.004,.136,1.013,.056,1.018,.004,1.017-.044,1.018-.099,1.015-.154,1.011-.203,1.007-.268,.999-.238,1.003-.195,1.007-.146,1.012-.081,1.016-.051,1.017-.031,1.018-.028,1.018-.055,1.017-.067,1.017-.074,1.016-.061,1.017-.058,1.017-.055,1.018"/><path id="SvgjsPath1013" class="cls-1" d="M157.359,106.103l.364,.211,.365,.212,.367,.209,.366,.209,.368,.208,.368,.209,.369,.206,.37,.207,.373,.203,.373,.204,.376,.2,.376,.2,.379,.198,.379,.197,.381,.195,.381,.195,.384,.192,.384,.192,.395,.178,.399,.176,.398,.175,.399,.175,.425,.135,.433,.121,.454,.071,.454,.07,.459,.048,.46,.043,.461,.043,.46,.043"/><path id="SvgjsPath1014" class="cls-1" d="M168.605,135.022l1.761-.501,1.776-.471,1.804-.409,1.82-.369,1.809-.397,1.804-.409,1.803-.413,1.803-.411,1.807-.402,1.813-.388,1.818-.373,1.823-.362,1.824-.357,1.825-.356,1.826-.353,1.826-.352,1.827-.35,1.827-.349,1.828-.347,1.828-.346,1.829-.344,1.83-.343,1.83-.341,1.83-.34,1.831-.339,1.831-.338,1.831-.337,1.832-.336,1.832-.336,1.832-.334"/><path id="SvgjsPath1015" class="cls-1" d="M167.739,136.222l3.553-.945,3.553-.947,3.552-.95,3.552-.949,3.554-.945,3.557-.938,3.562-.928,3.569-.914,3.576-.898,3.586-.878,3.595-.855,3.606-.831,3.615-.809,3.623-.79,3.63-.772,3.635-.758,3.64-.745,3.644-.736,3.646-.729,3.648-.724,3.649-.722,3.648-.723,3.647-.726,3.645-.732,3.642-.74,3.638-.751,3.633-.765,3.625-.783,3.618-.802,3.613-.816"/><path id="SvgjsPath1016" class="cls-1" d="M211.906,124.52l3.233-.154,3.221-.263,3.193-.405,3.153-.549,3.128-.624,3.11-.67,3.106-.681,3.103-.69,3.092-.714,3.083-.734,3.075-.754,3.066-.773,3.059-.788,3.051-.803,3.046-.816,3.04-.827,3.022-.861,2.998-.906,2.97-.956,2.936-1.01,2.879-1.097,2.877-1.099,2.806-1.194,2.753-1.26,2.693-1.328,2.589-1.437,2.366-1.632,1.907-1.931,1.376-2.163,.94-2.286"/><path id="SvgjsPath1017" class="cls-1" d="M224.031,108.317l.165,.211,.164,.211,.159,.214,.159,.213,.153,.216,.153,.216,.145,.219,.145,.219,.137,.221,.137,.222,.129,.224,.128,.225,.119,.227,.119,.227,.101,.232,.1,.232,.063,.239,.061,.239,.051,.241,.049,.24,.045,.242,.044,.241-.046,.24-.062,.24-.105,.231-.11,.229-.183,.204-.186,.201-.535,.285"/><path id="SvgjsPath1018" class="cls-1" d="M227.924,113.839l-.819,.386-.821,.383-.843,.358-.849,.348-.87,.319-.881,.303-.897,.277-.905,.26-.914,.243-.922,.227-.927,.216-.934,.199-.936,.193-.942,.176-.943,.175-.947,.159-.948,.159-.952,.145-.952,.146-.952,.145-.952,.143-.953,.139-.954,.141-.953,.141-.951,.147-.951,.15-.948,.158-.947,.159-1.891,.333"/><path id="SvgjsPath1019" class="cls-1" d="M224.587,114.893l-1.255,.315-1.262,.299-1.269,.28-1.279,.255-1.29,.225-1.294,.212-1.297,.201-1.299,.195-1.299,.195-1.297,.198-1.297,.201-1.298,.201-1.3,.19-1.303,.179-1.306,.166-1.31,.147-1.312,.137-1.314,.129-1.315,.119-1.317,.11-1.318,.105-1.318,.102-1.318,.103-1.316,.113-1.316,.119-1.314,.122-1.318,.105-1.321,.082-1.322,.066-1.323,.052"/><path id="SvgjsPath1020" class="cls-1" d="M209.329,117.706l-1.358,.329-1.367,.307-1.377,.282-1.387,.253-1.4,.211-1.408,.181-1.413,.159-1.416,.138-1.421,.117-1.423,.097-1.424,.086-1.425,.076-1.427,.069-1.426,.063-1.427,.064-1.426,.065-1.426,.069-1.425,.076-1.427,.065-1.427,.049-1.429,.033-1.429,.017-1.429,.008h-1.429l-1.429,.002-1.429,.005-1.422,.104-1.413,.153-1.403,.198-1.392,.239"/><path id="SvgjsPath1021" class="cls-1" d="M234.856,95.715l.28,.645,.248,.652,.216,.659,.149,.669,.116,.672,.08,.676-.04,.677-.113,.67-.195,.662-.479,.575-.507,.566-.52,.559-.782,.347-.818,.307-.841,.273-.841,.274-.84,.276-.837,.28-.825,.299-.793,.338-.746,.397-.63,.49-.598,.515-.57,.532-.441,.592-.338,.625-.192,.663,.254,.651,.449,.569,.628,.496"/><path id="SvgjsPath1022" class="cls-1" d="M234.423,94.215l.479,.766,.454,.776,.43,.782,.397,.792,.331,.807,.227,.827,.119,.84-.023,.844-.249,.822-.571,.717-.716,.659-.823,.577-.97,.443-1.047,.341-1.077,.287-1.073,.295-1.057,.325-1.024,.375-.95,.465-.792,.595-.507,.746-.144,.836,.315,.812,.594,.718,.699,.668,.695,.67,.551,.731,.231,.802-.328,.8-.666,.687"/><path id="SvgjsPath1023" class="cls-1" d="M233.557,91.814l.115,.196,.116,.197,.116,.196,.117,.196,.119,.195,.119,.195,.121,.195,.121,.195,.121,.195,.121,.195,.121,.195,.121,.195,.119,.195,.118,.195,.117,.196,.117,.197,.11,.198,.111,.198,.103,.201,.103,.2,.09,.204,.091,.204,.086,.204,.085,.205,.067,.208,.067,.209,.057,.21,.057,.21,.053,.211,.052,.211"/><path id="SvgjsPath1024" class="cls-1" d="M259.105,92.715l.874,.222,.877,.219,.886,.195,.89,.186,.9,.159,.904,.144,.912,.115,.916,.094,.92,.072,.922,.045,.925,.027,.925-.007,.924-.018,.922-.06,.921-.065,.913-.111,.911-.117,.901-.156,.897-.167,.885-.198,.878-.213,.868-.238,.857-.256,.847-.274,.832-.297,.824-.31,.808-.332,.803-.339,.787-.358,.785-.361"/><path id="SvgjsPath1025" class="cls-1" d="M246.981,78.312l-.638-.101-.638-.101-.646-.063-.647-.063-.651-.013-.652-.013-.65,.041-.649,.041-.643,.083-.642,.083-.629,.127-.629,.128-.617,.156-.617,.156-.605,.18-.604,.181-.591,.203-.592,.203-.577,.223-.578,.223-.558,.249-.558,.249-.543,.266-.542,.267-.525,.286-.524,.286-.509,.301-.509,.3-.991,.625"/><path id="SvgjsPath1026" class="cls-1" d="M237.887,78.912l-3.365,.291-3.274,.638-3.091,1.016-2.208,1.811-1.719,1.945-3.362,.31-3.236,.712-3.11,.998-3.071,1.062-2.769,1.375-1.828,2.077-.236,2.423,2.108,1.816,3.251,.528,3.387-.041,3.36-.051,3.321-.145,3.236-.742,3.095-1.022,3.247-.622,3.386-.036,3.382,.006,3.338-.432,2.784,.948,2.189,1.671,3.312,.048,3.341-.428,3.281-.631,3.2-.825,3.166-.898"/><path id="SvgjsPath1027" class="cls-1" d="M243.516,93.015l.417,.403,.417,.403,.506,.344,.508,.341,.597,.251,.6,.246,.663,.135,.664,.131,.684,.049,.685,.045,.687-.018,.687-.021,.68-.073,.68-.075,.661-.138,.662-.139,.651-.161,.652-.162,.647-.172,.647-.173,.644-.176,.645-.176,.645-.176,.645-.176,.631-.201,.631-.201,.606-.24,.606-.24,1.172-.53"/><path id="SvgjsPath1028" class="cls-1" d="M243.516,79.513l.448-.902,.496-.888,.548-.871,.602-.852,.66-.827,.72-.8,.765-.777,.805-.754,.849-.729,.895-.697,.929-.673,.96-.649,.991-.624,1.03-.588,1.058-.56,1.084-.531,1.111-.501,1.14-.465,1.167-.425,1.193-.384,1.22-.335,1.251-.267,1.266-.226,1.277-.185,1.29-.117,1.301-.018,1.278,.183,1.178,.39,.952,.619,.642,.822,.34,.927"/><path id="SvgjsPath1029" class="cls-1" d="M243.949,76.212l.781-.881,.817-.862,.853-.843,.89-.822,.924-.801,.968-.772,1.01-.743,1.043-.717,1.076-.69,1.107-.663,1.139-.634,1.182-.589,1.202-.566,1.222-.542,1.252-.503,1.29-.449,1.325-.389,1.374-.283,1.4-.197,1.411-.149,1.419-.061,1.419,.086,1.39,.235,1.294,.44,1.146,.615,.868,.81,.509,.966,.086,1.043-.29,1.028-.661,.932"/><path id="SvgjsPath1030" class="cls-1" d="M268.631,70.81l.928-.645,.929-.646,.958-.622,.96-.62,.988-.596,.993-.591,1.032-.553,1.043-.542,1.087-.49,1.108-.468,1.152-.4,1.18-.359,1.217-.273,1.245-.205,1.259-.072,1.273,.069,1.21,.225,1.121,.45,1.074,.501,.988,.596,.887,.659,.628,.819,.524,.848,.243,.924,.186,.928-.027,.941-.052,.939-.207,.929-.218,.927-.359,.903-.359,.903"/><path id="SvgjsPath1031" class="cls-1" d="M291.622,75.289l.443-.153,.444-.153,.452-.14,.452-.139,.456-.131,.457-.13,.46-.124,.461-.122,.466-.111,.468-.106,.482-.05,.489-.019,.489,.003,.489,.02,.48,.061,.471,.099,.456,.128,.436,.164,.427,.176,.411,.196,.382,.221,.321,.273,.307,.281,.265,.303,.258,.307,.227,.321,.217,.323,.165,.34,.159,.341,.095,.354,.095,.355"/><path id="SvgjsPath1032" class="cls-1" d="M303.302,78.176l1.191-.74,1.191-.74,1.27-.664,1.282-.65,1.364-.549,1.395-.51,1.432-.447,1.46-.398,1.49-.318,1.532-.204,1.535-.104,1.542,.161,1.54,.165,1.536,.189,1.536,.189,1.317,.61,1.315,.615,1.088,.814,1.046,.85,.853,.954,.769,.999,.61,1.049,.48,1.093,.346,1.112,.147,1.144,.082,1.144-.091,1.146-.118,1.144-.293,1.128-.293,1.128"/><path id="SvgjsPath1033" class="cls-1" d="M310.087,92.806l1.843,.586,1.949,.351,2.005-.062,1.904-.466,1.933-.4,1.985-.101,1.998,.122,1.692,.612,1.475,.98,1.792,.618,1.958-.006,1.726-.751,1.36-1.089,1.003-1.279,.635-1.397,.124-1.461-.353-1.445-.591-1.415-.564-1.42-.398-1.447-.06-1.478-.737-1.377-1.023-1.271-1.19-1.191-1.172-1.201-1.194-1.189-1.306-1.122-1.54-.907-1.877-.464-2.005,.077"/><path id="SvgjsPath1034" class="cls-1" d="M304.139,78.912l.825-.621,.844-.606,.871-.586,.912-.55,.938-.525,.986-.476,1.034-.414,1.062-.375,1.12-.272,1.142-.203,1.163-.14,1.178-.014,1.175,.038,1.168,.114,1.148,.193,1.118,.258,1.031,.422,1.029,.424,1.017,.436,.815,.628,.753,.666,.681,.709,.572,.76,.52,.779,.437,.807,.349,.83,.3,.84,.209,.855,.161,.861,.124,.864"/><path id="SvgjsPath1035" class="cls-1" d="M285.519,89.114l.169,.714,.17,.714,.333,.681,.335,.681,.506,.622,.513,.617,.746,.472,.75,.466,.913,.268,.914,.265,.96,.159,.959,.154,.979,.063,.98,.059,.982-.026,.982-.028,.979-.06,.979-.061,.977-.084,.976-.085,.97-.112,.971-.114,.953-.177,.953-.178,.941-.209,.941-.209,.937-.218,.937-.219,1.863-.462"/><path id="SvgjsPath1036" class="cls-1" d="M236.588,92.415l.277,.283,.278,.283,.264,.29,.264,.291,.252,.296,.252,.296,.243,.3,.242,.3,.228,.306,.229,.307,.219,.31,.219,.31,.199,.318,.198,.317,.185,.322,.185,.322,.172,.326,.172,.325,.143,.333,.142,.333,.129,.336,.129,.336,.111,.34,.102,.341,.074,.345,.075,.345,.053,.347,.053,.347,.107,.695"/><path id="SvgjsPath1037" class="cls-1" d="M238.32,93.614l.36,.633,.35,.636,.329,.643,.309,.647,.299,.651,.235,.664,.224,.667,.203,.67,.163,.676,.142,.678,.016,.687-.044,.683-.17,.676-.36,.625-.456,.599-.458,.599-.532,.555-.688,.464-.644,.495-.621,.513-.307,.647-.272,.656-.212,.669,.097,.664,.251,.662,.513,.574,.551,.552,.621,.513,.684,.464,.716,.44"/><path id="SvgjsPath1038" class="cls-1" d="M238.32,111.918l1.171,.102,1.172,.089,1.175,.077,1.178,.043,1.178,.024,1.179,.005,1.179-.025,1.178-.04,1.176-.053,1.175-.08,1.172-.092,1.171-.103,1.166-.127,1.165-.136,1.162-.147,1.157-.166,1.155-.174,1.153-.184,1.148-.2,1.145-.206,1.143-.215,1.137-.228,1.136-.235,1.133-.24,1.128-.251,1.127-.257,1.124-.262,1.121-.27,1.12-.273,1.118-.276"/><path id="SvgjsPath1039" class="cls-1" d="M238.753,112.218l1.93,.2,1.941,.125,1.949,.04,1.948-.031,1.944-.102,1.94-.142,1.937-.161,1.935-.174,1.928-.208,1.912-.275,1.882-.373,1.857-.437,1.873-.396,1.9-.318,1.909-.288,1.897-.33,1.854-.437,1.79-.566,1.735-.655,1.7-.703,1.671-.74,1.637-.78,1.598-.822,1.54-.881,1.399-.999,1.129-1.168,.845-1.293,.763-1.323,.749-1.327,.705-1.34"/><path id="SvgjsPath1040" class="cls-1" d="M289.416,93.315l-.041,.303-.041,.303-.063,.301-.063,.301-.089,.297-.089,.297-.103,.295-.104,.295-.12,.291-.121,.291-.152,.283-.153,.283-.162,.279-.163,.28-.183,.273-.184,.273-.202,.265-.203,.265-.212,.262-.213,.261-.236,.249-.237,.25-.245,.245-.245,.245-.252,.241-.252,.242-.262,.235-.262,.235-.544,.459"/><path id="SvgjsPath1041" class="cls-1" d="M106.083,19.641l-.31,.055-.31,.055-.304,.07-.304,.07-.302,.076-.301,.076-.302,.076-.301,.076-.294,.091-.294,.091-.295,.088-.295,.088-.271,.124-.27,.124-.27,.125-.27,.125-.269,.126-.269,.126-.224,.167-.225,.167-.212,.175-.212,.175-.213,.175-.208,.178-.189,.189-.189,.189-.178,.195-.177,.196-.177,.196-.177,.196"/><path id="SvgjsPath1042" class="cls-1" d="M109.68,13.628l.279-.766,.28-.766,.443-.722,.455-.719,.627-.643,.648-.633,.829-.5,.861-.475,.98-.313,1.015-.264,1.048-.168,1.062-.126,1.071-.042,1.076,.007,1.064,.093,1.055,.159,1.027,.225,.999,.294,.965,.345,.917,.416,.877,.456,.804,.527,.762,.556,.657,.629,.629,.642,.522,.694,.506,.7,.404,.736,.396,.738,.305,.761,.304,.761"/><path id="SvgjsPath1043" class="cls-1" d="M117.309,11.518l-.657-.047-.656-.047-.659-.017-.66-.016-.659,.018-.659,.018-.652,.072-.652,.072-.646,.101-.645,.101-.596,.207-.596,.209-.568,.247-.567,.248-.503,.315-.502,.316-.421,.374-.42,.375-.375,.4-.376,.4-.167,.47-.166,.471-.071,.483-.067,.484,.095,.481,.096,.481,.108,.48,.109,.48,.306,.946"/><path id="SvgjsPath1044" class="cls-1" d="M132.547,16.227l1.435-3.157,2.127-2.931,2.945-2.491,3.909-1.561,4.285-1.06,4.467-.21,4.415,.676,4.105,1.372,3.753,1.857,3.534,2.056,2.99,2.49,2.562,2.742,2.263,2.884,1.513,3.093-1.721,3.014-3.469,2.06-4.133,1.346-4.375,.686-4.486-.247-4.454-.566-4.287,1.003-4.438-.164-3.959-1.527-3.227,.433-2.846,2.564-4.102,1.269-4.516,.049-4.518-.041-4.254,.879-3.617,1.978"/><path id="SvgjsPath1045" class="cls-1" d="M119.216,31.209l-.099,.919-.133,.917-.17,.914-.206,.91-.241,.905-.292,.897-.324,.891-.358,.884-.391,.876-.43,.866-.481,.851-.519,.839-.561,.824-.607,.806-.662,.782-.725,.752-.777,.722-.832,.688-.89,.647-.965,.587-1.043,.508-1.098,.438-1.151,.357-1.195,.27-1.214,.223-1.244,.072-1.218-.137-1.057-.432-.737-.729-.406-.873"/><path id="SvgjsPath1046" class="cls-1" d="M113.494,42.46l-1.727,1.868-1.928,1.758-2.146,1.613-2.415,1.388-2.701,1.056-2.96,.534-3.002-.258-2.954-.598-2.702-1.029-2.656-1.127-2.915-.446-2.81,.699-2.638,1.152-2.871,.693-2.97-.206-2.899-.731-2.875-.784-2.905-.72-2.931-.663-2.953-.603-2.993-.178-2.837,.731-2.581,1.193-2.902,.66-3.06,.074-3.04-.226-2.91-.693-2.666-1.112-2.417-1.389-2.166-1.6"/><path id="SvgjsPath1047" class="cls-1" d="M98.472,23.502l-1.462-.82-1.543-.726-1.627-.628-1.78-.333-1.807-.201-1.834-.068-1.835,.054-1.834,.07-1.833,.086-1.836,.035-1.835,.04-1.835,.048-1.76,.379-1.619,.595-1.467,.814-1.461,.821-1.566,.689-1.677,.552-1.684,.539-1.616,.634-1.54,.738-1.303,.953-1.148,1.047-.986,1.142-1.42,.857-1.44,.84-1.454,.827-1.284,.968-1.234,1.002-1.188,1.033"/><path id="SvgjsPath1048" class="cls-1" d="M79.641,18.902l-1.034,.058-1.033,.068-1.03,.088-1.025,.113-1.023,.126-1.012,.169-1.008,.181-.999,.205-.989,.229-.984,.242-.965,.28-.957,.294-.941,.322-.92,.352-.909,.368-.867,.419-.848,.439-.809,.479-.756,.522-.728,.545-.621,.613-.574,.634-.481,.678-.369,.712-.311,.73-.11,.76-.055,.762,.054,.764,.142,.756,.185,.753"/><path id="SvgjsPath1049" class="cls-1" d="M65.815,26.286l-3.917,1.067-3.795,1.281-3.591,1.565-3.066,2.074-2.514,2.383-1.053,2.977-3.974,.367-3.924,1.032-3.492,1.649-2.974,2.155,.059,2.94,2.845,2.169,3.812,1.2,4.122,.42,4.161-.204,4.111-.541,4.097-.596,4.097-.597,4.075,.352,3.814,1.161,4.144,.229,4.176,.026,4.167,.2,4.161,.259,4.03-.401,3.965-.967,3.773,1.097,4.033-.653,3.585-1.548,3.031-2.107"/><path id="SvgjsPath1050" class="cls-1" d="M260.823,2.025l-.837-.258-.837-.258-.903-.064-.898-.034-.857,.22-.833,.25-.676,.446-.658,.458-.574,.518-.564,.524-.508,.554-.509,.554-.507,.555-.507,.555-.506,.555-.506,.555-.501,.557-.502,.558-.499,.559-.498,.559-.483,.566-.482,.567-.461,.576-.46,.577-.422,.592-.421,.593-.399,.601-.399,.601-.377,.608-.378,.608"/><path id="SvgjsPath1051" class="cls-1" d="M263.207,3.08l-1.08-.465-1.116-.41-1.166-.333-1.22-.189-1.235-.099-1.247,.073-1.207,.219-1.177,.304-1.089,.454-1.029,.519-.976,.576-.877,.657-.831,.687-.762,.731-.709,.759-.684,.772-.637,.793-.581,.816-.545,.83-.472,.854-.425,.866-.37,.881-.24,.904-.21,.909-.182,.912-.026,.919,.065,.919,.24,.905,.325,.888,.391,.876"/><path id="SvgjsPath1052" class="cls-1" d="M261.299,2.728l-.155,.316-.156,.316-.111,.326-.111,.326-.065,.332-.066,.332-.05,.334-.05,.334-.034,.335-.034,.335,.015,.336,.015,.336,.015,.336,.015,.336,.013,.336,.013,.336,.01,.336,.011,.336,.011,.336,.01,.336-.016,.336-.017,.336-.024,.335-.022,.335-.019,.336-.019,.336-.014,.336-.015,.336-.014,.336-.014,.336"/><path id="SvgjsPath1053" class="cls-1" d="M257.962,.267l.248,.393,.248,.393,.223,.401,.223,.402,.192,.41,.191,.41,.152,.419,.151,.419,.152,.419,.151,.419,.066,.431,.066,.431,.066,.431,.066,.431,.022,.434,.022,.434-.021,.434-.022,.434-.022,.434-.021,.434-.108,.427-.107,.427-.107,.427-.107,.427-.155,.419-.156,.418-.174,.414-.175,.414-.196,.409-.196,.409"/><path id="SvgjsPath1054" class="cls-1" d="M198.842,29.563l1.305,1.007,1.515,.811,1.719,.504,1.882,.121,1.862-.216,1.849-.283,1.836-.328,1.863-.234,1.867-.212,1.784-.094,.518,1.34,1.291,.83,1.796,.165,1.853-.273,1.736-.55,1.77-.483,1.806-.392,1.889-.005,1.699,.475,1.546,.793,1.345,.979,1.637,.648,1.796,.386,1.886,.088,1.869-.166,1.842-.294,1.803-.416,1.821-.373,1.817-.382,1.812-.395"/><path id="SvgjsPath1055" class="cls-1" d="M242.228,15.738l-.761-.62-.786-.601-.814-.582-.871-.535-.908-.499-.942-.465-1-.394-1.029-.348-1.055-.304-1.095-.217-1.111-.159-1.123-.108-1.134-.013-1.129,.053-1.124,.107-1.105,.186-1.087,.234-1.069,.277-1.021,.363-.971,.428-.932,.475-.867,.538-.821,.576-.779,.606-.698,.659-.674,.672-.556,.71-.152,.829,.24,.803,.49,.741,.688,.665"/><path id="SvgjsPath1056" class="cls-1" d="M243.861,15.275l-1.066-1.698-1.56-1.467-2.089-1.023-2.411-.487-2.507,.042-2.483,.38-2.455,.475-2.417,.544-2.205,.925-2.006,1.147-1.676,1.402-1.551,1.481-2.082,.964-2.488,.266-2.364,.599-2.292,.804-2.301,.791-2.324,.751-2.372,.659-2.457,.468-2.507,.292-2.506,.292-2.301,.756-1.803,1.272-1.142,1.639-.204,1.802,1.204,1.397,2.42,.468,2.52-.056,2.406-.597"/><path id="SvgjsPath1057" class="cls-1" d="M218.032,19.81l-.654,.022-.654,.022-.654,.006-.655,.005-.654-.021-.654-.022-.653-.034-.653-.034-.654-.009-.655-.009-.653,.029-.653,.029-.648,.068-.648,.069-.638,.108-.638,.109-.634,.119-.635,.119-.634,.119-.635,.119-.635,.115-.636,.116-.635,.116-.636,.116-.623,.147-.624,.147-.616,.164-.616,.164-.607,.179-.608,.179"/><path id="SvgjsPath1058" class="cls-1" d="M260.421,12.727l.429-.4,.429-.4,.437-.396,.436-.396,.43-.4,.43-.4,.47-.375,.47-.374,.5-.353,.501-.352,.531-.327,.532-.326,.577-.282,.579-.279,.607-.245,.609-.242,.636-.201,.637-.199,.638-.199,.637-.199,.66-.152,.663-.148,.682-.085,.683-.079,.684,.064,.684,.078,.64,.191,.639,.197,.574,.285,.574,.285"/><path id="SvgjsPath1059" class="cls-1" d="M258.634,12.87l1.073-.809,1.094-.792,1.151-.748,1.187-.716,1.218-.688,1.328-.562,1.368-.505,1.495-.254,1.502-.228,1.514-.183,1.466,.19,1.439,.392,1.106,.781,.871,.882,.312,1.108,.194,1.12,.112,1.129,.01,1.131-.011,1.131-.047,1.131-.065,1.13-.092,1.129-.179,1.123-.223,1.119-.456,1.079-.565,1.041-.928,.901-1.076,.79-1.245,.661-1.371,.495-1.416,.437"/><path id="SvgjsPath1060" class="cls-1" d="M277.419,7.019l.365,.985,.27,.999,.169,1.012-.104,1.018-.188,1.01-.26,1.003-.461,.963-.513,.947-.573,.929-.601,.92-.612,.916-.628,.91-.671,.893-.631,.907-.419,.904,1.376,.11,1.09,.485,.604,.86-.15,1.015-.347,.984-.456,.963-.587,.924-.671,.892-.731,.866-.852,.805-.96,.729-1.052,.662-1.209,.498-1.254,.426-1.296,.359"/><path id="SvgjsPath1061" class="cls-1" d="M269.4,26.286l.681,.642,.581,.682,.342,.775-.011,.794-.186,.804-.515,.713-.574,.697-.726,.612-.754,.597-.922,.442-.954,.412-1.024,.304-1.035,.286-1.069,.204-1.075,.191-1.097,.095-1.1,.079-1.105,.02-1.106,.01-1.1-.072-1.099-.087-1.071-.197-1.066-.217-1.067-.215-1.066-.215-1.061-.231-1.059-.234-1.032-.291-1.028-.301-1.008-.335-1.005-.339"/><path id="SvgjsPath1062" class="cls-1" d="M246.519,46.328l.431-.043,.431-.043,.432-.038,.432-.038,.433-.029,.434-.029,.434-.019,.434-.019,.435,.004,.435,.004,.435,.015,.434,.015,.433,.036,.432,.036,.404,.118,.404,.12,.395,.134,.396,.134,.308,.226,.307,.227,.264,.255,.264,.255,.101,.312,.098,.313,.038,.32,.038,.32,.013,.321,.012,.321-.048,.641"/><path id="SvgjsPath1063" class="cls-1" d="M217.752,58.282l.858,.686,.9,.652,1.017,.556,1.097,.449,1.18,.339,1.224,.219,1.249,.153,1.26,.07,1.265,.042,1.266-.004,1.266-.013,1.263-.058,1.263-.063,1.26-.092,1.26-.093,1.258-.1,1.258-.106,1.254-.13,1.251-.139,1.247-.162,1.243-.177,1.236-.202,1.206-.274,1.173-.35,1.061-.49,.981-.591,.763-.731,.669-.793,.432-.874,.398-.886"/><path id="SvgjsPath1064" class="cls-1" d="M246.042,47.383l1.09-.333,1.109-.293,1.127-.255,1.145-.211,1.161-.15,1.171-.048,1.17,.075,1.122,.27,.967,.481,.723,.652,.423,.81,.023,.87-.347,.815-.555,.763-.69,.706-.714,.692-.606,.743-.468,.793-.265,.848-.333,.834-.506,.776-.648,.727-.687,.707-.833,.612-.893,.567-.932,.532-1.034,.418-1.079,.349-1.111,.289-1.136,.234"/><path id="SvgjsPath1065" class="cls-1" d="M224.036,53.41l-.25,.145-.25,.145-.251,.144-.251,.144-.255,.14-.256,.14-.265,.129-.265,.129-.269,.125-.269,.125-.277,.115-.278,.114-.267,.127-.266,.128-.255,.14-.253,.141-.246,.149-.244,.15-.233,.159-.231,.161-.211,.175-.206,.178-.169,.198-.152,.205-.1,.222-.1,.222-.056,.231-.053,.231-.106,.462"/><path id="SvgjsPath1066" class="cls-1" d="M217.911,31.209l-.568,.711-.568,.711-.567,.711-.566,.712-.566,.712-.565,.712-.567,.711-.568,.711-.572,.709-.574,.708-.579,.706-.584,.704-.587,.702-.603,.695-.604,.695-.604,.695-.617,.688-.625,.685-.64,.676-.649,.672-.66,.666-.69,.649-.712,.635-.795,.581-.869,.513-.938,.45-.984,.392-.993,.379-1.004,.364-1.016,.346-1.021,.336"/><path id="SvgjsPath1067" class="cls-1" d="M217.435,32.264l-.572,.598-.569,.599-.562,.603-.556,.605-.55,.609-.541,.613-.536,.615-.527,.62-.525,.621-.517,.624-.514,.626-.508,.628-.505,.63-.502,.631-.496,.633-.495,.634-.491,.636-.491,.635-.492,.635-.514,.625-.531,.618-.621,.569-.649,.552-.768,.463-.786,.445-.828,.402-.846,.382-.86,.364-.88,.337-.886,.328"/><path id="SvgjsPath1068" class="cls-1" d="M223.156,30.857l-.432,.772-.435,.771-.44,.77-.447,.767-.452,.766-.46,.763-.467,.761-.472,.759-.481,.756-.486,.754-.491,.752-.502,.749-.506,.747-.512,.744-.521,.741-.526,.739-.535,.736-.541,.733-.546,.732-.556,.727-.561,.725-.568,.723-.577,.718-.582,.716-.589,.713-.598,.709-.603,.707-.612,.703-.616,.7-.62,.699"/><path id="SvgjsPath1069" class="cls-1" d="M222.203,32.615l-.511,.827-.52,.824-.529,.82-.549,.813-.559,.81-.559,.81-.549,.813-.521,.823-.498,.831-.473,.839-.462,.842-.492,.833-.523,.822-.58,.801-.606,.791-.613,.788-.609,.79-.595,.795-.612,.788-.635,.778-.709,.743-.688,.753-.654,.769-.552,.812-.489,.833-.469,.84-.486,.835-.529,.82-.55,.813-.567,.806"/><path id="SvgjsPath1070" class="cls-1" d="M22.512,101.339l-.048,.614-.034,.613,.183,.599,.249,.577,.486,.499,.535,.463,.67,.365,.685,.347,.731,.294,.743,.276,.782,.212,.782,.211,.784,.209,.791,.189,.822,.1,.823,.091,.831,.045,.831,.038,.833-.005,.833-.01,.83-.05,.83-.054,.824-.093,.823-.095,.812-.137,.812-.139,.799-.173,.799-.173,1.574-.403"/><path id="SvgjsPath1071" class="cls-1" d="M23.238,84.432l-3.837,2.323-3.776,2.378-3.693,2.446-3.271,2.73-.469,3.252,3.004,2.777,2.992,2.896,3.069,2.772,4.963-.029,4.918,.389,4.569,1.321,4.587,1.165,4.893-.3,4.532-1.431,4.351-1.764,4.372-1.729,3.788-2.302,2.254-3.214,1-3.58,.614-3.633,.263-3.653-1.034-3.549-2.781-3.003-3.467-2.614-3.729-2.384-2.806-3.013-1.051-3.368,.378-3.639-1.232-3.485-2.983-2.88-4.065-2.083"/><path id="SvgjsPath1072" class="cls-1" d="M52.465,76.919l1.34,.566,1.321,.591,1.3,.616,1.276,.642,1.217,.701,1.105,.794,1.008,.861,.91,.919,.78,.984,.543,1.064,.31,1.109,.132,1.134,.057,1.139-.217,1.128-.365,1.105-.495,1.077-.607,1.048-.713,1.011-.731,1.004-.74,1-.745,.998-.756,.994-.759,.992-.759,.993-.757,.993-.753,.995-.74,1.001-.73,1.004-.72,1.008-.713,1.011"/><path id="SvgjsPath1073" class="cls-1" d="M12.414,90.983l-.888,.397-.861,.426-.806,.483-.725,.545-.683,.577-.503,.67-.444,.69-.323,.727-.216,.747-.16,.757,.006,.765,.078,.76,.229,.747,.422,.691,.526,.66,.753,.527,.804,.477,.902,.38,.954,.297,.978,.258,1.012,.173,1.021,.093,1.036-.052,1.022-.128,1.015-.162,.997-.213,.995-.218,.991-.228,.986-.242,.983-.248"/><path id="SvgjsPath1074" class="cls-1" d="M12.301,74.783l.024,.468,.024,.468,.012,.468,.012,.468-.035,.468-.036,.468,.014,.468,.017,.468,.228,.437,.228,.437,.343,.394,.35,.389,.485,.302,.487,.3,.537,.249,.539,.248,.573,.201,.573,.201,.592,.168,.592,.168,.601,.15,.6,.152,.556,.226,.555,.226,.538,.249,.537,.249,.509,.28,.509,.28,.487,.299,.487,.3"/><path id="SvgjsPath1075" class="cls-1" d="M40.068,57.58l-2.075-.259-2.076-.25-2.09-.181-2.092-.159-2.101-.088-2.102-.043-2.104,.038-2.094,.124-2.083,.218-2.047,.344-2.022,.43-1.967,.545-1.945,.592-1.894,.675-1.884,.692-1.884,.692-1.858,.719-1.514,1.078-1.428,1.128-1.057,1.342-.851,1.398-.395,1.524,.137,1.485,.793,1.437,1.272,1.188,1.569,1.034,1.872,.666,1.969,.548,2.085,.163,2.098,.123"/><path id="SvgjsPath1076" class="cls-1" d="M40.068,58.635l-1.458-.274-1.463-.257-1.469-.237-1.476-.214-1.483-.188-1.489-.157-1.493-.132-1.497-.107-1.5-.081-1.502-.054-1.504-.018-1.504,.011-1.503,.041-1.5,.077-1.494,.129-1.494,.13-1.484,.18-1.471,.23-1.453,.285-1.422,.361-1.381,.439-1.316,.533-1.287,.575-1.253,.609-1.116,.743-.9,.887-.517,1.022-.115,1.089,.266,1.085,.564,1.028"/><path id="SvgjsPath1077" class="cls-1" d="M2.402,66.018l-.277,.615-.277,.615-.213,.628-.202,.631-.154,.637-.132,.641-.035,.644,.045,.647,.159,.63,.306,.607,.344,.594,.438,.562,.474,.541,.642,.442,.644,.441,.687,.403,.687,.403,.719,.372,.723,.368,.749,.338,.758,.328,.773,.308,.783,.294,.793,.278,.807,.257,.81,.25,.819,.234,.821,.23,.83,.212,.83,.212"/><path id="SvgjsPath1078" class="cls-1" d="M73.57,78.952l.483,.571,.488,.568,.613,.499,.63,.484,.76,.372,.774,.353,.848,.248,.854,.234,.892,.141,.894,.126,.912,.011,.912,.005,.908-.064,.907-.067,.897-.121,.897-.122,.887-.156,.887-.155,.89-.149,.889-.149,.885-.162,.885-.163,.873-.194,.873-.195,.886-.158,.887-.156,.902-.097,.903-.094,1.818-.106"/><path id="SvgjsPath1079" class="cls-1" d="M72.278,77.284l-.272,1.192,.056,1.184,.51,1.117,1.199,.823,1.407,.573,1.539,.413,1.601,.256,1.615,.186,1.634,.083,1.634-.053,1.634-.086,1.634-.086,1.604-.218,1.584-.309,1.542-.407,1.525-.44,1.497-.49,1.457-.552,1.431-.587,1.36-.673,1.356-.678,1.352-.682,1.61-.195,1.585-.274,1.522-.448,1.365-.656,1.283-.746,1.119-.883,1.001-.952,.923-.998"/><path id="SvgjsPath1080" class="cls-1" d="M103.005,62.151l-.788-.277-.787-.277-.848-.152-.848-.147-.872,.007-.869,.022-.818,.223-.817,.226-.785,.281-.784,.282-.766,.308-.765,.309-.745,.335-.744,.336-.69,.394-.69,.394-.666,.415-.666,.415-.627,.447-.627,.448-.557,.495-.556,.496-.513,.521-.511,.521-.425,.562-.421,.563-.322,.598-.319,.599-.48,1.237"/><path id="SvgjsPath1081" class="cls-1" d="M83.7,71.732l-.502,.043-.502,.043-.495,.076-.494,.078-.466,.144-.466,.144-.447,.175-.447,.175-.418,.21-.418,.21-.401,.227-.401,.227-.364,.259-.364,.259-.364,.258-.364,.259-.364,.259-.364,.259-.341,.274-.341,.276-.322,.287-.322,.288-.269,.316-.267,.316-.208,.34-.206,.34-.091,.367-.086,.367-.037,.745"/><path id="SvgjsPath1082" class="cls-1" d="M94.981,65.345l-.857-.411-.911-.321-.989-.19-1.002,.053-1.006,.134-.908,.336-.894,.366-.837,.431-.822,.449-.761,.501-.736,.523-.693,.553-.668,.571-.665,.573-.662,.574-.542,.629-.398,.694-.373,.701-.33,.713-.45,.656-.755,.508-.805,.454-.92,.328-.913,.339-.887,.375-.865,.398-.799,.471-.783,.483-.736,.524-.736,.523"/><path id="SvgjsPath1083" class="cls-1" d="M98.706,80.255l.407,.152,.408,.15,.44,.088,.444,.051,.451-.048,.439-.081,.419-.133,.408-.148,.387-.179,.386-.18,.385-.18,.37-.195,.323-.237,.323-.237,.323-.237,.318-.241,.296-.256,.295-.257,.287-.262,.286-.262,.276-.268,.275-.268,.269-.272,.266-.274,.26-.276,.261-.277,.254-.279,.254-.28,.509-.558"/><path id="SvgjsPath1084" class="cls-1" d="M120.283,67.706l.512,.342,.494,.351,.275,.468,.125,.477-.162,.495-.245,.464-.444,.39-.451,.386-.47,.373-.478,.367-.501,.351-.508,.345-.531,.326-.536,.321-.557,.302-.56,.298-.58,.276-.583,.274-.599,.254-.601,.251-.618,.229-.619,.224-.644,.186-.644,.182-.666,.136-.666,.133-.679,.094-.679,.094-.686,.06-.686,.06"/><path id="SvgjsPath1085" class="cls-1" d="M102.051,63.206l.833-.627,.859-.607,.885-.587,.944-.535,.976-.501,1.008-.467,1.057-.404,1.079-.37,1.101-.333,1.138-.258,1.152-.216,1.168-.171,1.185-.079,1.187-.015,1.188,.056,1.172,.151,1.162,.188,1.15,.226,.989,.485,.859,.593,.727,.695,.023,.877-.117,.868-.246,.859-.402,.826-.469,.805-.533,.785-.586,.764-.615,.752-.642,.739"/><path id="SvgjsPath1086" class="cls-1" d="M106.343,62.502l-.412-.136-.411-.137-.426-.111-.426-.109-.447-.045-.447-.045-.451-.002h-.451l-.441,.071-.44,.072-.436,.086-.436,.086-.411,.137-.412,.137-.403,.15-.403,.15-.375,.185-.375,.185-.361,.2-.361,.2-.355,.205-.355,.205-.346,.214-.341,.218-.326,.23-.326,.23-.315,.238-.315,.238-.316,.238-.315,.238"/><path id="SvgjsPath1087" class="cls-1" d="M148.3,26.638l-.646,.582-.616,.598-.558,.629-.473,.664-.43,.682-.296,.719-.267,.725-.209,.736-.157,.742-.13,.745-.052,.751-.012,.751,.072,.75,.118,.746,.142,.744,.255,.728,.325,.708,.474,.665,.627,.584,.711,.538,.896,.358,.911,.335,.94,.291,.994,.114,1.018,.033,1.011-.093,1.005-.121,.991-.174,.974-.221,.964-.244"/><path id="SvgjsPath1088" class="cls-1" d="M144.009,30.857l.135,1.814,.334,1.8,.569,1.767,.872,1.698,1.172,1.596,1.402,1.492,1.74,1.277,2.159,.837,2.313,.623,2.412,.324,2.457,.119,2.463,.031,2.459-.08,2.448-.197,2.435-.277,2.424-.322,2.423-.328,2.431-.296,2.444-.225,2.456-.117,2.46,.035,2.442,.227,2.397,.411,2.333,.58,2.227,.771,2.049,1.001,1.759,1.267,1.367,1.509,.999,1.66,.68,1.746"/><path id="SvgjsPath1089" class="cls-1" d="M144.486,29.451l-.608,1.685-.222,1.735,.275,1.731,.838,1.63,1.215,1.495,1.458,1.372,1.577,1.299,1.69,1.219,1.839,1.095,2.015,.911,2.202,.633,2.333,.279,2.363,.059,2.362,.06,2.364,.041,2.363-.048,2.348-.197,2.337-.265,2.348-.198,2.355-.152,2.356-.142,2.352-.175,2.348-.202,2.348-.203,2.363,.027,2.197,.639,2.033,.881,1.2,1.501,.872,1.62,.449,1.712"/><path id="SvgjsPath1090" class="cls-1" d="M228.878,61.447l-.31,.874-.324,.872-.342,.868-.377,.86-.395,.856-.426,.847-.441,.844-.448,.841-.456,.839-.456,.839-.454,.839-.442,.843-.433,.846-.415,.85-.379,.86-.361,.864-.331,.871-.304,.875-.283,.879-.229,.888-.216,.89-.197,.892-.137,.897-.119,.9-.1,.901,.02,.901,.104,.9,.291,.878,.371,.86,.437,.845"/><path id="SvgjsPath1091" class="cls-1" d="M228.878,60.041l-.151,.998-.204,.992-.267,.984-.347,.971-.45,.947-.497,.934-.537,.923-.572,.911-.591,.905-.59,.905-.586,.907-.585,.907-.547,.919-.511,.93-.473,.941-.425,.954-.407,.959-.387,.962-.363,.968-.329,.975-.305,.978-.28,.983-.248,.987-.213,.992-.185,.995-.156,.997-.111,1.001-.081,1.002-.057,1.003-.035,1.004"/><path id="SvgjsPath1092" class="cls-1" d="M205.992,55.822l.049,.992,.032,.993,.017,.993-.002,.993-.045,.993-.105,.99-.168,.985-.235,.977-.32,.965-.401,.948-.454,.935-.495,.923-.526,.914-.548,.907-.563,.902-.576,.897-.591,.892-.612,.885-.629,.878-.644,.872-.659,.866-.68,.858-.699,.849-.717,.841-.734,.833-.755,.822-.784,.808-.804,.797-.821,.787-.835,.779"/><path id="SvgjsPath1093" class="cls-1" d="M205.515,55.118l.213,.862,.198,.863,.184,.865,.148,.869,.124,.871,.098,.873,.042,.875,.007,.875-.026,.876-.107,.872-.153,.868-.2,.863-.287,.85-.317,.844-.349,.837-.387,.828-.402,.824-.417,.82-.443,.813-.455,.809-.467,.805-.486,.799-.495,.796-.502,.794-.515,.789-.52,.788-.523,.786-.529,.785-.53,.783-.533,.783"/><path id="SvgjsPath1094" class="cls-1" d="M203.131,68.48l-.75,1.127-.826,1.097-.915,1.058-.992,1.02-1.06,.982-1.116,.948-1.161,.918-1.196,.894-1.226,.87-1.259,.846-1.259,.845-1.281,.827-1.289,.819-1.293,.817-1.293,.817-1.29,.819-1.294,.816-1.303,.808-1.314,.798-1.324,.79-1.336,.779-1.345,.77-1.354,.761-1.363,.752-1.371,.744-1.381,.735-1.389,.726-1.396,.718-1.404,.71-1.41,.704"/><path id="SvgjsPath1095" class="cls-1" d="M198.84,74.809l-1.637,.854-1.615,.877-1.586,.905-1.564,.926-1.545,.943-1.535,.951-1.531,.954-1.535,.952-1.545,.943-1.56,.928-1.577,.913-1.593,.899-1.603,.888-1.61,.881-1.613,.878-1.613,.879-1.609,.883-1.6,.892-1.571,.919-1.498,.982-1.39,1.065-1.278,1.139-1.183,1.193-1.116,1.229-1.067,1.251-1.012,1.277-.952,1.302-.946,1.304-.972,1.294-.978,1.291"/><path id="SvgjsPath1096" class="cls-1" d="M187.874,80.786l-1.218,.614-1.193,.639-1.163,.668-1.133,.696-1.106,.719-1.082,.74-1.061,.755-1.053,.761-1.054,.761-1.059,.757-1.067,.751-1.072,.747-1.069,.749-1.059,.757-1.042,.77-1.017,.787-.985,.809-.945,.836-.891,.867-.86,.883-.833,.897-.805,.911-.778,.924-.747,.938-.703,.956-.633,.982-.624,.985-.632,.983-.632,.982-.615,.989"/><path id="SvgjsPath1097" class="cls-1" d="M168.325,93.445l-.483,.453-.483,.453-.468,.462-.466,.462-.451,.471-.445,.473-.429,.482-.418,.487-.405,.493-.39,.499-.381,.503-.36,.511-.356,.513-.33,.522-.329,.523-.298,.532-.298,.532-.272,.541-.267,.541-.246,.547-.237,.549-.225,.552-.214,.555-.219,.552-.226,.552-.236,.549-.26,.544-.262,.543-.279,.538-.279,.538"/><path id="SvgjsPath1098" class="cls-1" d="M100.621,77.974l-.878,.917-.828,.942-.772,.968-.717,.99-.66,1.011-.586,1.037-.502,1.06-.435,1.076-.368,1.089-.303,1.1-.24,1.108-.179,1.116-.109,1.119-.05,1.122,.022,1.122,.119,1.119,.244,1.107,.4,1.083,.584,1.037,.701,.996,.794,.956,.883,.914,.98,.858,1.09,.784,1.172,.717,1.232,.659,1.299,.582,1.368,.489,1.426,.392,1.464,.308"/><path id="SvgjsPath1099" class="cls-1" d="M95.852,85.358l-.248,1.049-.202,1.055-.149,1.059-.09,1.063,.004,1.066,.084,1.063,.161,1.058,.242,1.05,.348,1.034,.474,1.006,.584,.973,.72,.918,.91,.828,.912,.826,1.062,.713,1.186,.605,1.269,.509,1.348,.382,1.386,.297,1.411,.224,1.428,.159,1.441,.089,1.444,.029,1.444-.016,1.442-.058,1.439-.097,1.433-.14,1.426-.167,1.422-.192,1.416-.212"/><path id="SvgjsPath1100" class="cls-1" d="M99.19,100.828l.539,.246,.539,.247,.553,.23,.553,.229,.57,.206,.569,.207,.586,.181,.585,.181,.597,.159,.597,.159,.609,.132,.609,.132,.617,.111,.616,.111,.623,.089,.623,.089,.629,.066,.629,.065,.632,.038,.633,.038,.635-.006,.634-.006,.633-.04,.632-.041,.624-.084,.625-.084,.613-.122,.612-.122,1.202-.302"/><path id="SvgjsPath1101" class="cls-1" d="M98.236,101.18l.577,.187,.577,.187,.576,.189,.576,.189,.575,.191,.575,.191,.575,.191,.574,.192,.576,.189,.577,.188,.58,.181,.583,.178,.586,.17,.589,.167,.593,.159,.596,.151,.6,.142,.604,.133,.608,.124,.612,.111,.616,.098,.622,.074,.624,.066,.628,.041,.629,.033h.63l.631-.005,.628-.036,.629-.038,1.249-.127"/><path id="SvgjsPath1102" class="cls-1" d="M167.848,82.193l-.47,.263-.47,.263-.469,.265-.468,.265-.467,.266-.466,.266-.463,.269-.463,.269-.458,.275-.457,.275-.451,.279-.452,.279-.446,.285-.445,.285-.437,.292-.437,.293-.43,.297-.431,.298-.43,.297-.43,.298-.433,.295-.434,.295-.451,.281-.451,.28-.48,.252-.481,.251-.506,.224-.505,.224-1.045,.404"/><path id="SvgjsPath1103" class="cls-1" d="M166.895,82.896l-.797,.469-.794,.471-.789,.476-.782,.482-.779,.485-.769,.493-.767,.495-.763,.499-.761,.501-.759,.501-.758,.503-.758,.502-.759,.502-.761,.5-.761,.499-.768,.495-.77,.492-.776,.487-.784,.482-.787,.477-.803,.463-.811,.455-.829,.437-.844,.422-.851,.414-.856,.407-.855,.41-.851,.414-.849,.416-.849,.416"/><path id="SvgjsPath1104" class="cls-1" d="M115.878,102.938l.84-.195,.841-.194,.843-.188,.843-.186,.847-.18,.847-.177,.85-.172,.849-.171,.85-.17,.85-.171,.849-.172,.848-.175,.848-.177,.845-.184,.844-.185,.839-.198,.839-.196,.841-.194,.843-.187,.851-.168,.853-.162,.856-.153,.855-.156,.854-.158,.846-.179,.841-.193,.826-.224,.821-.236,1.611-.525"/><path id="SvgjsPath1105" class="cls-1" d="M121.123,101.18l1.098-.046,1.098-.06,1.095-.079,1.089-.115,1.085-.134,1.076-.168,1.071-.188,1.067-.198,1.06-.217,1.059-.222,1.056-.227,1.054-.233,1.052-.238,1.048-.249,1.036-.273,1.029-.286,1.017-.311,1.013-.317,1.01-.321,1.018-.31,1.023-.299,1.03-.286,1.028-.289,1.021-.302,1.004-.33,.982-.367,.968-.385,.947-.414,.933-.43,.924-.441"/><path id="SvgjsPath1106" class="cls-1" d="M114.925,39.999l.151,.6,.151,.6,.127,.603,.128,.603,.098,.606,.099,.606,.061,.608,.061,.608,.028,.61,.028,.61,.008,.61,.008,.61,.01,.61,.01,.61,.037,.609,.038,.609,.096,.606,.096,.606,.183,.595,.183,.595,.233,.585,.233,.585,.176,.596,.177,.596,.155,.599,.155,.599,.154,.599,.155,.599,.298,1.2"/><path id="SvgjsPath1107" class="cls-1" d="M114.925,40.351l.019,.64,.02,.64,.031,.64,.031,.64,.046,.64,.046,.64,.061,.639,.061,.639,.068,.638,.069,.638,.072,.638,.072,.638,.07,.638,.071,.638,.064,.639,.064,.639,.046,.64,.045,.64-.017,.64-.022,.64-.012,.64-.012,.64-.012,.64-.012,.64,.105,.635,.118,.635,.261,.61,.275,.608,.756,1.153"/><path id="SvgjsPath1108" class="cls-1" d="M233.646,59.338l-.473,.864-.47,.864-.468,.865-.463,.866-.459,.868-.454,.869-.449,.871-.44,.873-.435,.875-.428,.876-.415,.879-.408,.881-.399,.884-.378,.888-.375,.889-.368,.891-.351,.895-.328,.899-.304,.904-.273,.909-.21,.918-.168,.923-.127,.927-.052,.931,.01,.931,.083,.928,.222,.917,.337,.896,.411,.88,.48,.862"/><path id="SvgjsPath1109" class="cls-1" d="M122.553,30.505l-.03,.952-.03,.952-.03,.952-.03,.952-.03,.952-.03,.952-.03,.952-.03,.952-.03,.952-.03,.952-.03,.952-.03,.952-.03,.952-.03,.952-.03,.952-.03,.952-.03,.952-.03,.952-.03,.952-.03,.952-.03,.952-.03,.952-.03,.952-.03,.952-.03,.952-.03,.952-.03,.952-.03,.952-.03,.952-.03,.952-.03,.952"/><path id="SvgjsPath1110" class="cls-1" d="M144.009,137.748l.741-.638,.715-.652,.631-.699,.555-.73,.474-.764,.338-.799,.284-.813,.09-.836,.06-.838-.029-.839-.107-.833-.215-.824-.33-.802-.389-.789-.406-.785-.404-.785-.376-.793-.382-.791-.392-.788-.417-.781-.434-.777-.472-.764-.484-.76-.592-.718-.637-.692-.762-.624-.838-.562-.914-.501-.981-.423-1.002-.398"/><path id="SvgjsPath1111" class="cls-1" d="M145.916,135.99l.905-.716,.82-.765,.732-.816,.491-.909,.333-.941,.183-.969-.044-.979-.148-.97-.247-.962-.413-.93-.494-.907-.57-.883-.693-.835-.732-.816-.766-.799-.79-.787-.804-.779-.819-.77-.878-.735-.919-.705-.96-.676-1.093-.555-1.112-.533-1.131-.513-1.207-.407-1.231-.364-1.254-.322-1.274-.274-1.282-.251-1.291-.228"/><path id="SvgjsPath1112" class="cls-1" d="M139.718,117.706l.862,.598,.869,.592,.88,.585,.895,.57,.906,.563,.924,.546,.942,.528,.951,.52,.951,.521,.925,.544,.9,.567,.795,.646,.72,.687,.584,.76,.582,.76,.549,.771,.369,.83,.247,.85,.152,.866,.005,.872-.038,.872-.101,.87-.166,.864-.218,.857-.338,.837-.401,.82-.453,.805-.692,.708-.764,.663-.825,.627"/><path id="SvgjsPath1113" class="cls-1" d="M142.579,120.87l-2.723-1.686-2.889-1.525-3.077-1.309-3.242-1.072-3.349-.875-3.425-.697-3.477-.543-3.509-.413-3.531-.3-3.544-.203-3.551-.125-3.553-.062-3.555-.015-3.555,.021-3.553,.076-3.537,.257-3.51,.413-3.484,.52-3.466,.583-3.462,.594-3.473,.56-3.485,.515-3.512,.4-3.54,.225-3.548-.041-3.309-.816-1.453-2.184,.419-2.57,1.06-2.5,1.582-2.346"/><path id="SvgjsPath1114" class="cls-1" d="M54.326,116.169l.179,.125,.181,.123,.201,.105,.202,.104,.209,.097,.21,.095,.214,.09,.218,.084,.228,.069,.23,.064,.236,.052,.236,.05,.238,.047,.241,.037,.244,.024,.244,.023,.244,.022,.245,.016,.246,.013,.246,.009,.246,.007h.985l.246-.009,.246-.009,.246-.013,.246-.013,.491-.026"/><path id="SvgjsPath1115" class="cls-1" d="M58.663,118.058l1.4-.196,1.4-.197,1.4-.198,1.399-.2,1.399-.201,1.398-.206,1.396-.209,1.395-.215,1.394-.22,1.392-.225,1.389-.235,1.387-.243,1.384-.251,1.38-.262,1.376-.275,1.37-.29,1.369-.291,1.372-.285,1.377-.271,1.385-.246,1.4-.198,1.409-.155,1.416-.112,1.421-.074,1.424-.042,1.425-.009h1.425l1.425,.004,1.425,.01,1.425,.017"/><path id="SvgjsPath1116" class="cls-1" d="M155.951,130.427l-3.299,3.463-3.221,3.537-3.126,3.62-2.975,3.745-2.794,3.882-2.622,4-2.475,4.093-2.338,4.172-2.212,4.242-2.098,4.298-1.998,4.346-1.91,4.385-1.833,4.418-1.757,4.449-1.68,4.479-1.601,4.507-1.519,4.536-1.436,4.563-1.348,4.589-1.259,4.614-1.167,4.639-1.072,4.661-.975,4.683-.874,4.703-.77,4.721-.665,4.737-.553,4.751-.43,4.764-.317,4.773-.229,4.778"/><path id="SvgjsPath1117" class="cls-1" d="M153.563,129.725l-3.214,3.195-3.135,3.274-3.032,3.368-2.913,3.472-2.802,3.561-2.694,3.645-2.588,3.72-2.481,3.793-2.375,3.859-2.27,3.923-2.168,3.979-2.068,4.033-1.965,4.084-1.868,4.129-1.771,4.172-1.673,4.212-1.566,4.252-1.439,4.297-1.294,4.343-1.141,4.386-.986,4.423-.824,4.456-.655,4.484-.473,4.507-.283,4.523-.065,4.531,.149,4.529,.224,4.527,.201,4.528,.198,4.528"/><path id="SvgjsPath1118" class="cls-1" d="M150.379,127.972l-2.843,3.928-2.818,3.947-2.79,3.967-2.743,3.999-2.668,4.05-2.576,4.109-2.455,4.182-2.315,4.261-2.18,4.332-2.12,4.362-2.083,4.379-2.034,4.402-1.969,4.432-1.889,4.467-1.79,4.507-1.674,4.551-1.537,4.6-1.383,4.648-1.261,4.682-1.199,4.699-1.146,4.713-1.079,4.727-1.002,4.745-.909,4.764-.804,4.782-.68,4.802-.535,4.82-.316,4.839-.271,4.842-.334,4.838-.355,4.837"/><path id="SvgjsPath1119" class="cls-1" d="M58.663,97.664l-.356,.577-.357,.578-.34,.583-.34,.583-.317,.59-.317,.591-.295,.596-.295,.597-.285,.599-.285,.6-.283,.6-.282,.6-.287,.599-.287,.598-.298,.596-.298,.596-.296,.596-.296,.597-.263,.605-.262,.605-.211,.615-.21,.616-.188,.619-.188,.62-.231,.611-.231,.611-.298,.596-.299,.595-.686,1.165"/><path id="SvgjsPath1120" class="cls-1" d="M55.802,101.18l-.356,.453-.356,.453-.319,.468-.319,.468-.271,.484-.27,.484-.215,.499-.213,.499-.169,.509-.167,.509-.119,.516-.118,.516-.088,.519-.087,.52-.062,.521-.061,.522-.04,.523-.039,.523-.022,.523-.021,.524,.032,.523,.036,.523,.062,.521,.065,.521,.157,.51,.167,.509,.283,.48,.292,.477,.745,.892"/><path id="SvgjsPath1121" class="cls-1" d="M58.914,110.294l.175,.175,.177,.174,.199,.16,.2,.16,.218,.146,.218,.147,.217,.147,.217,.147,.246,.119,.246,.119,.286,.053,.286,.052,.286,.052,.286,.052,.294,.017,.294,.016,.294-.014,.294-.015,.294-.016,.294-.016,.288-.044,.288-.045,.284-.059,.284-.059,.285-.056,.285-.056,.282-.064,.282-.065,.556-.145"/><path id="SvgjsPath1122" class="cls-1" d="M62,112.432l1.212-.26,1.216-.25,1.219-.243,1.22-.24,1.233-.198,1.241-.172,1.247-.147,1.236-.188,1.224-.226,1.209-.267,1.185-.321,1.184-.322,1.186-.319,1.199-.291,1.21-.264,1.218-.244,1.226-.223,1.232-.203,1.235-.192,1.238-.183,1.241-.172,1.241-.17,1.242-.168,1.241-.17,1.239-.176,1.237-.185,1.233-.2,1.227-.22,1.223-.229,1.22-.238"/><path id="SvgjsPath1123" class="cls-1" d="M60.093,83.951l.139,.883,.118,.885,.097,.886,.043,.888,.012,.889-.02,.889-.068,.888-.089,.886-.112,.885-.147,.883-.161,.881-.177,.879-.197,.878-.205,.876-.213,.875-.22,.875-.218,.875-.215,.875-.196,.878-.179,.879-.157,.881-.103,.886-.085,.887-.065,.888-.059,.888,.003,.887,.091,.887,.313,.857,.403,.836,.486,.814"/><path id="SvgjsPath1124" class="cls-1" d="M100.621,77.622l-1.409,.767-1.388,.787-1.366,.808-1.345,.826-1.314,.853-1.282,.88-1.245,.908-1.203,.938-1.154,.97-1.098,1.005-1.033,1.043-.956,1.081-.866,1.122-.76,1.162-.637,1.201-.496,1.237-.338,1.265-.159,1.284,.044,1.288,.264,1.274,.478,1.24,.672,1.191,.849,1.128,1.016,1.05,1.174,.955,1.329,.838,1.486,.681,1.593,.533,1.688,.343,1.735,.174"/><path id="SvgjsPath1125" class="cls-1" d="M94.422,78.325l-.967,1.036-.938,1.051-.901,1.068-.859,1.086-.817,1.105-.779,1.119-.741,1.133-.699,1.147-.659,1.161-.617,1.173-.579,1.184-.551,1.19-.521,1.198-.474,1.208-.435,1.217-.369,1.228-.248,1.244-.1,1.254,.04,1.256,.166,1.251,.298,1.237,.468,1.21,.538,1.194,.729,1.136,.942,1.044,1.173,.903,1.417,.668,1.618,.363,1.698,.06,1.688-.183"/><path id="SvgjsPath1126" class="cls-1" d="M73.92,48.086l.794,.4,.797,.397,.807,.387,.814,.378,.822,.368,.834,.354,.838,.349,.847,.336,.849,.334,.854,.327,.856,.325,.858,.321,.859,.32,.859,.319,.862,.315,.864,.312,.877,.292,.883,.281,.896,.26,.902,.248,.906,.24,.906,.238,.906,.238,.9,.251,.894,.262,.879,.289,.865,.31,.852,.33,.835,.352,.83,.359"/><path id="SvgjsPath1127" class="cls-1" d="M77.734,49.141l.879,.344,.877,.346,.874,.35,.869,.356,.867,.359,.861,.368,.859,.369,.857,.373,.855,.374,.855,.375,.854,.376,.855,.375,.856,.374,.858,.371,.859,.37,.864,.364,.866,.361,.87,.355,.876,.347,.879,.344,.868,.358,.851,.378,.817,.418,.8,.436,.79,.445,.778,.457,.776,.459,.77,.464,.766,.468,.764,.47"/><path id="SvgjsPath1128" class="cls-1" d="M86.793,48.438l.552,.232,.552,.232,.547,.239,.547,.239,.539,.248,.539,.248,.532,.257,.532,.257,.529,.26,.529,.26,.53,.258,.531,.258,.536,.252,.536,.252,.543,.244,.543,.244,.548,.238,.548,.238,.548,.238,.548,.238,.53,.259,.53,.259,.522,.267,.522,.267,.535,.253,.535,.253,.552,.232,.553,.232,1.126,.435"/><path id="SvgjsPath1129" class="cls-1" d="M87.747,48.086l.759,.399,.76,.397,.766,.392,.77,.387,.775,.381,.781,.375,.783,.373,.783,.372,.782,.373,.778,.378,.775,.382,.769,.388,.758,.399,.753,.405,.73,.427,.723,.433,.693,.46,.679,.47,.653,.49,.64,.499,.63,.506,.65,.493,.657,.487,.711,.444,.72,.436,.74,.417,.733,.424,.727,.43,1.454,.86"/><path id="SvgjsPath1130" class="cls-1" d="M122.553,63.206l.051,.319,.051,.319,.076,.316,.076,.316,.107,.311,.107,.311,.124,.308,.124,.308,.139,.304,.14,.304,.167,.296,.167,.296,.176,.294,.177,.293,.193,.287,.194,.287,.217,.278,.217,.278,.229,.273,.229,.273,.269,.252,.27,.252,.301,.232,.31,.225,.337,.203,.337,.203,.353,.187,.354,.187,.353,.187,.354,.187"/><path id="SvgjsPath1131" class="cls-1" d="M122.077,63.206l.186,.227,.185,.227,.187,.226,.187,.226,.189,.226,.189,.226,.192,.224,.191,.224,.193,.224,.192,.224,.194,.223,.194,.223,.194,.223,.195,.223,.196,.223,.195,.222,.196,.222,.195,.222,.196,.222,.196,.222,.196,.222,.196,.222,.192,.224,.191,.224,.238,.198,.246,.194,.262,.181,.266,.178,.274,.171,.275,.171"/><path id="SvgjsPath1132" class="cls-1" d="M128.255,69.674l.199,.081,.2,.081,.213,.059,.214,.059,.217,.05,.218,.05,.217,.05,.218,.05,.224,.029,.225,.029,.226,.018,.227,.018,.226,.018,.227,.018,.228,.003,.227,.003h.456l.228,.002h.228l.227-.004,.228-.005,.228-.004,.228-.004,.227-.006,.228-.006,.228-.006,.227-.006,.228-.006,.228-.006"/><path id="SvgjsPath1133" class="cls-1" d="M125.891,69.886l1.007,.23,1.012,.219,1.025,.183,1.032,.161,1.038,.135,1.049,.07,1.053,.043,1.055,.009,1.055,.005h2.109l1.055-.005,1.054-.004,1.055-.004,1.055-.014,1.054-.016,1.054-.022,1.055-.024,1.054-.027,1.054-.028,1.054-.029,1.054-.029,1.054-.029,1.054-.027,1.054-.025,1.054-.021,1.055-.017,1.054-.014,1.055-.01,1.055-.009"/><path id="SvgjsPath1134" class="cls-1" d="M154.975,71.644l1.092,.002,1.093,.002,1.092,.002,1.093,.003,1.092,.003,1.093,.003,1.093,.003,1.092,.003h1.093l1.092,.002h1.093l1.092-.004,1.093-.006,1.092-.011,1.092-.03,1.091-.046,1.086-.087,1.081-.113,1.079-.129,1.08-.119,1.084-.097,1.089-.071,1.09-.05,1.09-.059,1.086-.086,1.072-.15,1.062-.187,1.033-.263,1.013-.3,.999-.327"/><path id="SvgjsPath1135" class="cls-1" d="M147.823,71.293l1.296,.007,1.296,.01,1.296,.013,1.296,.019,1.296,.023,1.296,.026,1.296,.028,1.295,.03,1.296,.03,1.296,.03,1.295,.029,1.296,.027,1.296,.025,1.296,.02,1.296,.013,1.296,.01,1.297,.01,1.296-.004,1.296-.018,1.295-.033,1.293-.071,1.289-.099,1.284-.129,1.272-.183,1.255-.236,1.236-.285,1.204-.355,1.159-.427,1.13-.466,1.104-.502"/><path id="SvgjsPath1136" class="cls-1" d="M142.102,26.638l-.129,.537-.128,.537-.117,.538-.115,.538-.103,.539-.098,.54-.086,.541-.077,.542-.069,.542-.057,.543-.052,.543-.036,.544-.033,.544-.012,.545-.013,.545,.014,.545,.015,.545,.039,.544,.044,.544,.064,.543,.072,.542,.09,.541,.103,.54,.119,.537,.141,.535,.15,.533,.174,.529,.178,.529,.399,1.049"/><path id="SvgjsPath1137" class="cls-1" d="M141.148,28.396l-.23,1.171-.197,1.175-.158,1.178-.111,1.181-.057,1.183v1.184l.085,1.182,.166,1.177,.267,1.166,.39,1.146,.54,1.112,.722,1.057,.94,.96,.988,.932,.999,.926,1.065,.882,1.2,.783,1.326,.667,1.383,.601,1.476,.457,1.526,.364,1.56,.266,1.591,.152,1.603,.059,1.605-.016,1.605-.026,1.604-.04,1.604-.046,1.604-.044,1.604-.046"/><path id="SvgjsPath1138" class="cls-1" d="M165.465,49.141l1.123-.112,1.126-.095,1.129-.079,1.133-.039,1.133-.011,1.134,.016,1.129,.075,1.124,.106,1.118,.137,1.102,.198,1.091,.226,1.08,.254,1.057,.302,1.045,.323,1.035,.343,1.007,.384,.99,.407,.971,.431,.93,.479,.908,.5,.886,.522,.84,.561,.816,.58,.793,.598,.741,.633,.709,.652,.677,.671,.617,.701,.594,.712,.569,.723"/><path id="SvgjsPath1139" class="cls-1" d="M185.967,52.657l.85,.455,.845,.46,.806,.497,.794,.507,.754,.54,.719,.563,.657,.604,.559,.65,.455,.699,.284,.739,.184,.763,.051,.772,.007,.775-.267,.747-.298,.743-.417,.711-.424,.709-.459,.697-.474,.692-.509,.678-.53,.669-.56,.655-.578,.647-.593,.64-.608,.632-.616,.628-.627,.622-.63,.62-.641,.614-.642,.613"/><path id="SvgjsPath1140" class="cls-1" d="M162.127,77.974l.193,.14,.193,.141,.196,.138,.197,.138,.204,.132,.204,.131,.212,.125,.211,.125,.214,.124,.214,.123,.22,.117,.219,.117,.222,.115,.222,.115,.224,.114,.223,.114,.22,.117,.22,.117,.217,.119,.218,.119,.209,.128,.209,.128,.202,.133,.201,.135,.194,.139,.194,.14,.187,.145,.186,.145,.186,.145,.187,.146"/><path id="SvgjsPath1141" class="cls-1" d="M118.262,70.238l.8,.593,.828,.571,.861,.545,.927,.482,.955,.449,.995,.402,1.02,.366,1.032,.348,1.046,.323,1.057,.305,1.062,.294,1.07,.278,1.076,.267,1.079,.259,1.089,.233,1.096,.217,1.102,.2,1.112,.167,1.116,.151,1.12,.132,1.126,.105,1.127,.092,1.131,.072,1.132,.055,1.133,.045,1.134,.03,1.134,.021,1.135,.015,1.134,.008,1.135,.004h1.135"/><path id="SvgjsPath1142" class="cls-1" d="M119.216,70.589l1.152,.692,1.201,.643,1.257,.583,1.311,.513,1.364,.435,1.405,.357,1.425,.307,1.442,.265,1.452,.229,1.461,.199,1.469,.167,1.468,.167,1.47,.162,1.469,.16,1.469,.169,1.464,.185,1.464,.187,1.464,.185,1.465,.183,1.466,.178,1.468,.17,1.47,.161,1.471,.15,1.474,.139,1.476,.126,1.479,.104,1.482,.083,1.483,.062,1.484,.044,1.486,.029"/><path id="SvgjsPath1143" class="cls-1" d="M158.313,77.974l.336,.031,.336,.032,.335,.041,.334,.041,.33,.056,.33,.056,.325,.073,.324,.072,.321,.08,.321,.08,.314,.095,.313,.094,.304,.111,.304,.111,.297,.12,.298,.12,.289,.13,.29,.13,.284,.136,.284,.136,.281,.14,.281,.14,.279,.142,.279,.142,.279,.142,.278,.143,.279,.142,.278,.143,.556,.286"/><path id="SvgjsPath1144" class="cls-1" d="M231.783,46.334l-.785,.227-.778,.239-.768,.257-.742,.295-.728,.313-.702,.344-.686,.361-.676,.371-.659,.388-.652,.394-.644,.401-.637,.408-.623,.418-.592,.443-.547,.472-.516,.491-.42,.539-.239,.58-.066,.62,.285,.585,.342,.566,.42,.539,.447,.527,.464,.519,.497,.502,.607,.424,.681,.354,.842,.032,1.586-.365"/><path id="SvgjsPath1145" class="cls-1" d="M243.181,44.218l-.835,.113-.835,.113-.832,.123-.832,.124-.829,.136-.828,.137-.823,.153-.823,.154-.817,.17-.816,.172-.808,.191-.807,.194-.793,.224-.79,.229-.774,.256-.771,.261-.753,.289-.748,.296-.721,.329-.714,.339-.671,.381-.658,.396-.613,.432-.596,.446-.449,.524-.387,.557-.133,.608-.051,.625,.173,.611,.189,.61"/><path id="SvgjsPath1146" class="cls-1" d="M251.287,43.867l-.604-.264-.604-.264-.639-.213-.646-.203-.672-.144-.684-.118-.693-.066-.702-.021-.701,.004-.699,.046-.698,.056-.69,.095-.69,.096-.679,.132-.679,.132-.673,.148-.672,.151-.669,.156-.669,.158-.669,.158-.668,.158-.669,.158-.668,.159-.663,.17-.634,.223-.63,.227-.565,.308-.565,.308-.505,.36-.505,.36"/></svg>