<?xml version="1.0" encoding="utf-8"?>
<!-- Generator: Adobe Adobe Illustrator 24.2.0, SVG Export Plug-In . SVG Version: 6.00 Build 0)  -->
<svg version="1.1" id="Layer_2" xmlns="http://www.w3.org/2000/svg" xmlns:xlink="http://www.w3.org/1999/xlink" x="0px" y="0px"
	 width="317.8px" height="170.9px" viewBox="0 0 317.8 170.9" style="enable-background:new 0 0 317.8 170.9;" xml:space="preserve"
	>
<style type="text/css">
	.st0{fill:none;stroke:#231F20;stroke-width:0.5;stroke-miterlimit:10;}
</style>
<path class="st0" d="M258.1,21.8c-1.9-5.1-5-9.7-9-13.3c-2-1.9-4.8-3.6-7.4-2.8c-2.4,0.8-3.7,3.3-4.5,5.7c-1.6,4.8-2.5,9.8-2.5,14.8
	"/>
<path class="st0" d="M242.1,5.2c-0.7-0.5-1.7-0.3-2.4,0.3s-1.1,1.3-1.5,2.1c-2.7,5.5-4.2,11.5-4.4,17.5"/>
<path class="st0" d="M240.6,6.2c0.7-1.7,3.1-2.2,4.8-1.4s2.9,2.4,4,3.9c0.6,0.9,1.2,1.7,1.8,2.6c2.6,3.7,5.2,7.3,7.3,11.3"/>
<path class="st0" d="M247.3,6.5c5.3,4.2,9.6,9.6,12.7,15.6"/>
<path class="st0" d="M288.2,41.7c-0.7-5.6-3.7-10.9-8.2-14.3c-3.1-2.3-6.8-3.8-10.4-5.2c-4.5-1.8-9-3.5-12.5-4
	c6.6,1.8,13.4,3.6,19.3,7.2c5.9,3.6,10.9,9.1,12.2,15.9c0.3,1.7,0.4,3.5,0.9,5.1c0.5,1.7,1.4,3.3,2.9,4.1"/>
<path class="st0" d="M259.5,20c0.9-0.6,2.1-0.3,3.1,0.1c3.3,1.1,6.5,2.4,9.6,3.8c5.4,2.5,11,5.5,14.1,10.6c1.6,2.7,2.5,5.7,3.1,8.8
	c0.7,3.4,1.4,7.3,4.4,9"/>
<path class="st0" d="M290.8,48.3c1.3,2.2,3.1,4,5.3,5.3c1.7,1.1,3.6,1.8,5.4,2.7c3.2,1.5,6.3,3.5,8.2,6.6"/>
<path class="st0" d="M291.7,50.9c1.7,1.6,3.5,3.1,5.7,4.1c1.2,0.6,2.6,0.9,3.9,1.4c3.3,1.2,6.2,3.2,8.5,5.9"/>
<path class="st0" d="M276.8,43.9c-1.5-0.3-3.1-0.6-4.7-0.6c-1.6,0-3.2,0.3-4.5,1"/>
<path class="st0" d="M270.2,42.3c3.1-0.4,6.4,0,9.3,1.3"/>
<path class="st0" d="M271.7,43c2-0.2,3.9,0.1,5.8,0.8"/>
<path class="st0" d="M273.1,41.7c1.9-0.2,3.8,0.1,5.5,1"/>
<path class="st0" d="M282.2,52.5c-2.8-0.5-5.7,0.1-8,1.8"/>
<path class="st0" d="M283.3,51.8c-3.3-0.7-6.9,0.4-9.2,2.8"/>
<path class="st0" d="M282.2,52.8c-2.7-0.5-5.6,0.3-7.6,2.2"/>
<path class="st0" d="M282.8,52c-3.1-0.2-6.3,1.2-8.4,3.5"/>
<path class="st0" d="M312.8,63.3c-1.1-0.9-2.7-1.2-4.1-0.8s-2.5,1.6-2.9,3c-0.2,0.8-0.2,1.8,0.3,2.5c0.4,0.7,1.2,1.1,2,1.3
	c1.2,0.3,2.5,0.3,3.5-0.4c1-0.7,1.5-2.1,1-3.1c-0.3-0.7-1-1.1-1.8-1.2c-0.7-0.2-1.5-0.1-2.2,0.1"/>
<path class="st0" d="M309.7,65.8c-0.4-0.4-1-0.5-1.5-0.2c-0.4,0.3-0.6,0.9-0.4,1.4c0.2,0.5,0.8,0.8,1.4,0.8c0.6,0,1.1-0.2,1.7-0.4
	c0.6-0.2,1.2-0.5,1.4-1.1c0.2-0.6,0-1.3-0.4-1.8c-0.7-0.8-1.9-1.2-3-1c-1.1,0.2-2,1-2.4,2.1c-0.3,0.8-0.3,1.7,0,2.5
	c0.3,0.7,1,1.1,1.7,1.4c1,0.4,2.2,0.3,3.2-0.3c1-0.5,1.7-1.5,1.9-2.6c0.3-1.2-0.2-2.6-1.2-3.4c-0.9-0.7-2.2-0.8-3.2-0.3
	c-1,0.5-1.8,1.5-2,2.6c-0.3,1.3,0.1,2.8,1.2,3.5C309.2,69.9,312.5,68.7,309.7,65.8z"/>
<path class="st0" d="M279.6,69.1c2.4,1.8,4.7,3.7,7.4,5.1c2.6,1.4,5.6,2.4,8.5,2.4c5.3,0,10.4-3.3,12.6-8.1"/>
<path class="st0" d="M280.8,68.6c2.4,2.8,5.3,5.1,8.7,6.6c3.4,1.4,7.2,1.8,10.8,0.8c3.5-1,6.6-3.7,7.9-7.1"/>
<path class="st0" d="M263.8,73.5c5.3,0.1,10.2,2.3,15.3,3.7c5.1,1.4,10.8,2.1,15.3-0.5"/>
<path class="st0" d="M265.4,74.4c3.5-0.1,6.8,1.5,10,2.6c2.2,0.7,4.4,1.3,6.6,1.7c2.2,0.4,4.5,0.6,6.8,0.3c2.2-0.3,4.5-1.1,6.2-2.6"
	/>
<path class="st0" d="M266.7,73.9c3.8,0,7.3,2,10.9,3.2c5.3,1.7,11.2,1.7,16.5,0"/>
<path class="st0" d="M241.7,13.7c1.1,3.6,2.3,7.2,2.6,11s-0.4,7.7-2.6,10.8"/>
<path class="st0" d="M243.2,13.6c2.4,6.8,1,14.6-2.5,20.9"/>
<path class="st0" d="M241.7,18c1.4,2.1,1.7,4.8,1.3,7.4s-1.4,4.9-2.4,7.2"/>
<path class="st0" d="M234.7,40.7c-2.5,4.8-3.5,10.3-2.9,15.6c0.3,2.5,1,5.1,2.8,6.9"/>
<path class="st0" d="M232.7,53.3c-0.7,5.8,2.8,11.8,8.1,14.2"/>
<path class="st0" d="M232.8,59.8c-1.8-5.3-1.2-11.4,1.4-16.4"/>
<path class="st0" d="M218.5,103.3c15.9-10.8,32.1-21.8,49.9-26.9c-11.2,3.4-21.4,9.5-31.4,15.6C231,95.8,224.9,99.5,218.5,103.3z"/>
<path class="st0" d="M154.6,61.8c-8.2,19.6-13.2,40.5-14.6,61.6"/>
<path class="st0" d="M152.4,72c-6.3,17.1-9.3,35.4-8.6,53.7"/>
<path class="st0" d="M150.2,74.6c-7.4,18-9.7,38-6.5,57.2"/>
<path class="st0" d="M209.1,79.9c-7.5,16.8-18,32.3-31,45.3"/>
<path class="st0" d="M214.8,78.5c-11.5,16.9-23.8,33.3-36.6,49.3"/>
<path class="st0" d="M144.4,132.8c0.6,1,1.2,2,1.8,2.9"/>
<path class="st0" d="M163.8,157.1c-6.6-7.4-13.1-14.9-18.4-21.6C151.8,145.6,160.4,154.4,163.8,157.1z"/>
<path class="st0" d="M146.7,135.6c8.7,10.1,17.9,19.8,27.5,28.9"/>
<path class="st0" d="M175.2,167.6c2.6,2.3,6.6,1.6,10.1,1.1c4.4-0.7,8.8-0.8,13.2-0.9c5.1-0.1,10.2-0.3,15.3-0.4"/>
<path class="st0" d="M177.5,168c13.9-0.4,27.7-0.6,41.6-0.5"/>
<path class="st0" d="M180.7,124.7c4.1,10.6,7.6,21.5,10.4,32.6"/>
<path class="st0" d="M192.9,159.2c-3.5-12-8.1-23.6-13.6-34.8"/>
<path class="st0" d="M179.7,128.5c5.6,10.5,10.1,21.6,13.4,33.1"/>
<path class="st0" d="M220.9,101.8c-11.3,7.7-23.1,15.6-36,19.1C198.3,117.3,210.9,110.6,220.9,101.8z"/>
<path class="st0" d="M206.1,157.3c8,0.2,15.9,2.4,22.9,6.4"/>
<path class="st0" d="M217.8,163.9c0,0.1,0,0.1,0,0.2c3.5,0,7-0.3,10.5-1C224.8,163.5,221.2,163.8,217.8,163.9z"/>
<path class="st0" d="M218.5,163.4c3.2,0.1,6.5,0.2,9.7,0.2"/>
<path class="st0" d="M228.8,163.3c-7-5.3-15.7-8.1-23.3-7.4C211.7,156.4,217.8,157.5,228.8,163.3z"/>
<path class="st0" d="M202.5,134.9c2.3,7.2,4.1,14.5,5.2,22"/>
<path class="st0" d="M208.2,157.2c0-8.8-1.6-17.6-5.9-23.6c8.6-7.7,14.7-18.2,17.1-29.5"/>
<path class="st0" d="M218.6,104.4c-3.5,10.7-9.1,20.7-15.2,27.6c2.9-1.4,4.8-4.4,6.4-7.2C212.8,119.6,215.8,114.4,218.6,104.4z"/>
<path class="st0" d="M177.6,21.9c-11.1,7.9-19.8,19.4-24.4,32.3"/>
<path class="st0" d="M156.3,51.2c4.1-11.8,12.7-22.1,23.6-28.3"/>
<path class="st0" d="M169.1,160.2c2,2.5,4.1,4.8,6.3,7.1c0.5,0.5,1.2,1.1,1.9,0.8"/>
<path class="st0" d="M233.9,22.2c-8.9,1.8-17.9-1.5-26.1-5.4s-16.1-8.6-25-10.1c-7.6-1.2-15.4,0-22.6,2.6s-13.8,6.7-20,11.2"/>
<path class="st0" d="M142.5,20.7c6.8-5.5,14.7-9.7,23.2-11.9s17.6-2.2,25.9,0.6c7.3,2.4,13.7,6.8,20.6,10.1
	c6.9,3.3,14.9,5.5,22.2,3.1"/>
<path class="st0" d="M158.7,11.1c-22.3,8.3-46.2-3-68.4-6.1C69.1,2,45.6,3.9,28.7,18.2c-8.2,6.9-14.3,16.6-15.9,27.3"/>
<path class="st0" d="M26.5,21.5c-6.9,6.5-12.1,15-14.1,24.2"/>
<path class="st0" d="M14.7,44.4c4.5-20.4,19.3-35,39.8-39c19.3-3.8,39.1,1.7,58,5.8c5.3,1.2,10.7,2.3,16.1,3.1
	c5.9,0.9,11.9,0.5,17.9,0.8"/>
<path class="st0" d="M73,4.8C53.1,6.5,31.3,9.6,20.4,28.6c-2.8,4.9-4.5,10.3-5.4,15.8"/>
<path class="st0" d="M235.6,64.2c2.6,4.1,7.4,6.6,12.3,6.3"/>
<path class="st0" d="M29.8,144.8c1.9,6.8,2.5,13.9,2.6,20.3c11.8,4.9,25.5-1.6,37.9,1.3"/>
<path class="st0" d="M75.5,166.3c-12.7-0.9-25.5-0.6-41.3,0C51.2,164.9,68.4,164.9,75.5,166.3z"/>
<path class="st0" d="M34.4,164.9c14.5,0.7,29.1,1,43.7,0.9"/>
<path class="st0" d="M49.6,156.9c7.3-0.5,14.4,2.2,21.2,4.9c2.5,1,5,2,7,3.8"/>
<path class="st0" d="M50.7,157.6c9.6-0.7,19.4,2.2,27.1,8"/>
<path class="st0" d="M16.6,38c-4.7,8.2-6,18.1-5.3,27.5s3.3,18.7,5.9,27.8c5.1,18.1,10.2,36.2,15.3,54.3"/>
<path class="st0" d="M18.1,31.6c-3.2,13.9-6,28.2-5.4,42.5c1.5,31.5,19.8,60.4,21.3,92"/>
<path class="st0" d="M56.1,155.6c-0.4-6.3,2.5-12.4,6.3-17.4c3.8-5.1,8.4-9.4,12.3-14.3c13.1-16.6,16.2-40.5,8-60"/>
<path class="st0" d="M87.5,68.8C89.6,92,82,116,66.8,133.7c-3.6,4.2-7.7,8.2-9.6,13.3c-1.3,3.5-1.6,7.3-3.2,10.6"/>
<path class="st0" d="M89,80.4c0.3,8.8-3.2,17.3-6.6,25.5c-2.7,6.5-5.5,13.1-9.4,19c-3.3,5-7.5,9.3-10.9,14.3
	c-3.4,4.9-6,10.7-5.8,16.6"/>
<path class="st0" d="M78.6,118.9c19.5,9.8,42.2,12.9,63.6,8.7"/>
<path class="st0" d="M80.7,118.4c9.2,5.6,19.7,8.9,30.3,10.2c10.7,1.3,21.5,0.7,32.1-0.9"/>
<path class="st0" d="M78,119.4c5.4,3.6,11.7,5.3,18,7c4.9,1.3,9.7,2.6,14.7,3c3.4,0.3,6.8,0.2,10.1,0.1c7.3-0.2,14.6-0.6,21.9-1"/>
<path class="st0" d="M70.8,155.1c7.7-9,14.4-18.9,20.6-30.1C85.6,135.9,79.6,147.1,70.8,155.1z"/>
<path class="st0" d="M71.7,155c3.7-0.8,7.6,0.4,11,2.2c3.4,1.8,6.3,4.2,9.6,6.2"/>
<path class="st0" d="M75.7,163.7c5.4-0.4,10.8-0.2,16.2,0.4"/>
<path class="st0" d="M72,155.8c1.5-0.9,3.3-0.5,4.9-0.1c1.7,0.4,3.4,0.9,5.1,1.5c1.4,0.5,2.9,1,4.2,1.8c2.1,1.3,3.7,3.2,5.3,5"/>
<path class="st0" d="M73.6,162.8c2.1,0.1,4.2,0.2,6.2,0.3c2.7,0.1,5.5,0.2,8.2,0.5c1.2,0.1,2.5,0.3,3.6-0.2"/>
<path class="st0" d="M17.5,33.9c-1.7-1-3.8-1.2-5.7-0.6c-1.9,0.6-3.5,1.9-4.7,3.4c-2.1,2.6-3.2,6.1-2.7,9.4s2.7,6.4,5.8,7.7"/>
<path class="st0" d="M6.5,48c-2.2-3.4-1.4-8.4,1.7-11c0.9-0.7,1.8-1.2,2.9-1.7c2-0.9,4.2-1.4,6.3-1"/>
<path class="st0" d="M13,54.4c-1.4-0.5-2.8-1.2-4-2.1c-1-0.7-2-1.6-2.7-2.6c-0.9-1.3-1.4-2.8-1.9-4.3c-0.1-0.3-0.2-0.5-0.3-0.8"/>
<path class="st0" d="M17,35.9c-3.1,13.9-6.3,28.3-3.3,42.2"/>
<path class="st0" d="M143.9,101.3c-2.3,10.3-2.1,21.2,0.5,31.5"/>
<path class="st0" d="M89.4,31.1c11.3,3.3,23.5,0.3,34.9-2.8"/>
<path class="st0" d="M90.2,33.6c10.6-0.4,21.2-2.2,31.3-5.4"/>
<path class="st0" d="M93.8,34.6c9.9-2.1,19.7-4.4,29.4-6.9"/>
<path class="st0" d="M271.7,75.4c-8.5,0.3-16.1,5-23.3,9.6c-5.5,3.5-11,7-16.5,10.5"/>
<path class="st0" d="M82.3,55.3c-2.6-6.6-5.6-13.7-11.6-17.4"/>
<path class="st0" d="M67.5,32.6c7.8,6.8,13.4,16.2,15.8,26.3"/>
<path class="st0" d="M218.8,166.7c-3.5-4.6-9.6-6.1-15.3-7.1c-4-0.7-8-1.4-12-2"/>
<path class="st0" d="M192.4,159c6.5-0.4,12.9,1.4,19.2,3.2c3.3,0.9,6.8,2,8.7,4.8"/>
<path class="st0" d="M140.5,21.2c11.9-9.4,27.2-15.9,42.2-13.5c10.4,1.7,19.6,7.4,29.2,11.7c6.9,3.1,14.6,5.5,21.9,3.6"/>
<path class="st0" d="M41.3,11.3C57.4,2.7,76.9,3.7,94.9,7s35.9,8.5,54.1,7.7"/>
<path class="st0" d="M16.9,34.1c-3.3-1.4-7.5-0.6-10.1,1.9c-2.6,2.5-3.5,6.6-2.2,10c0.4,1.1,1.1,2.2,1.8,3.2
	c1.4,1.8,3.1,3.6,5.2,4.3"/>
<path class="st0" d="M12.7,56.4c-1.5,4.6-0.8,9.5,0,14.3c2.3,13.5,5.2,26.9,9.2,40c1.8,5.8,3.7,11.6,5.3,17.5
	c3,11.3,4.6,23,6.1,34.6"/>
<path class="st0" d="M74.7,38.4c3.9,5.9,8,12.2,8.8,19.2"/>
<path class="st0" d="M233.8,45.5c-1.9,4.8-1.9,10.4,0.1,15.2c2,4.8,5.9,8.8,10.7,10.8"/>
<path class="st0" d="M230.9,46.2c-0.9,2.8-0.7,5.8,0.1,8.6c0.8,2.8,2.2,5.4,3.7,7.9c0.8,1.4,1.7,2.9,2.9,4.1c1.2,1.2,2.8,2,4.4,2"/>
<path class="st0" d="M263.1,77c-10.7,5.7-21.8,10.5-33.3,14.4"/>
<path class="st0" d="M243.4,87.6c-9.5,5.7-19.2,11.2-26.6,17.2c-6.2,4.1-12.8,7.6-19.6,10.5"/>
<path class="st0" d="M224.5,98.6c3.9-1.8,7.8-3.7,11.7-5.6"/>
<path class="st0" d="M210.3,84.4c-6.5,8.6-13.1,17.2-19.6,25.7"/>
<path class="st0" d="M80.9,117.7c5.9,5.2,14.1,6.5,21.9,7.7"/>
<path class="st0" d="M95.5,124.8c9.7,1.9,19.7,2.1,29.5,0.7"/>
<path class="st0" d="M113.6,128.1c6.5,0.3,13,0.3,19.4,0"/>
<path class="st0" d="M14.6,56.2c-3.3,13.5-1.7,28.2,4.3,41.6c4.2,9,7.5,18.5,9.7,28.2"/>
<path class="st0" d="M24.1,119.7c4.6,8.1,7.5,17,8.6,26.2"/>
<path class="st0" d="M52.5,157.5c3.1-7.7,7.3-14.9,12.6-21.4"/>
<path class="st0" d="M32.6,142.1c1.5,6.8,1.7,14,0.4,20.8"/>
<path class="st0" d="M89.1,128.1c0.7-1.3,1.4-2.6,2.1-3.9c-4.9,8.3-10.3,16.4-16.2,24"/>
<path class="st0" d="M78.2,40.5c2.1,3.7,3.9,7.7,5.2,11.7"/>
<path class="st0" d="M91.4,6.2C81.3,4.1,70.6,4.6,60.7,7.5"/>
<path class="st0" d="M57.7,5.6C48,7.8,39.1,13,32.3,20.2"/>
<path class="st0" d="M40.5,11.6c-2.3,1.5-4.5,2.9-6.8,4.4"/>
<path class="st0" d="M177.7,6.8c-6.5,0.6-13,2.3-18.9,5.1"/>
<path class="st0" d="M201.6,14.4c-4.3-2.3-9.2-3.6-14-3.5"/>
<path class="st0" d="M189.5,9.8c-3.1-0.9-6.3-1.3-9.5-1.4"/>
<path class="st0" d="M138.9,14.2c-7.9-1.3-15.6-3.2-23.2-5.6"/>
<path class="st0" d="M119,11.9c-4.9-1.2-9.8-2.8-14.5-4.6"/>
<path class="st0" d="M238.2,8.3c-1.6,3-3.1,6-4.1,9.2c-1,3.2-1.4,6.7-0.5,9.9"/>
<path class="st0" d="M235.5,17.2c-1,4.1-1.9,8.4-1,12.5"/>
<path class="st0" d="M277.9,43.5c-2.9-0.8-6.1-0.7-8.9,0.3"/>
<path class="st0" d="M281.8,51.8c-1.4,0.1-2.7,0.2-4,0.6c-1.3,0.4-2.6,1-3.4,2.1"/>
<path class="st0" d="M187.3,118.1c6.3-2.5,12.5-5.2,18.6-8.1"/>
<path class="st0" d="M199.5,110.3c8.7-1,16.9-4.9,24.8-8.6"/>
<path class="st0" d="M217,103.9c9-4.5,17.7-9.4,26.3-14.7"/>
<path class="st0" d="M180.4,128.1c3.7,8.6,6.8,17.5,9.4,26.5"/>
<path class="st0" d="M202.8,133.9c2.2,7.2,3.7,14.6,4.5,22.1"/>
<path class="st0" d="M216.8,106.4c-4,7.6-8.2,15.1-12.7,22.5"/>
<path class="st0" d="M176.9,24.1c-10.1,5.7-17.7,15.5-20.8,26.7"/>
<path class="st0" d="M154.2,67.1c-9.6,18.6-13.3,40.2-10.6,60.9"/>
<path class="st0" d="M178.1,123.9c14.6-12.3,26.2-28.1,33.6-45.7"/>
<path class="st0" d="M145.5,62.7c-1.9,8.4-2,17.2-0.4,25.7"/>
<path class="st0" d="M146.7,65.3c-3,7.2-3.2,15.6-0.6,22.9"/>
<path class="st0" d="M243.5,5.6c2.7-0.1,4.8,2.2,6.5,4.3c1.1,1.3,2.1,2.6,3.2,3.9c2.3,2.8,4.5,5.5,6.2,8.7"/>
<path class="st0" d="M283.1,30.9c3.2,3.5,4.2,8.3,5.2,12.9c0.5,2.2,1,4.5,4.1,7.8c-0.1,0.9,0.9,1.5,1.8,1.9c1.1,0.4,2.2,0.9,3.3,1.3
	c0.6,0.2,1.2,0.5,1.8,0.8c0.7,0.4,1.4,0.9,2.1,1.3c1.5,0.8,3.2,1.3,4.7,2c1.5,0.8,3,2,3.3,3.7"/>
<path class="st0" d="M312.6,64.5c-0.6-0.4-1.2-1-2-1c-0.3,0-0.6,0.1-0.8,0.2c-0.3,0.1-0.5,0.1-0.8,0.2c-0.2,0.1-0.4,0.2-0.7,0.4
	c-0.2,0.1-0.5,0.2-0.7,0.4c-0.3,0.3-0.5,0.7-0.7,1.1c-0.2,0.4-0.4,0.8-0.3,1.2c0,0.4,0.2,0.9,0.4,1.2c0.5,0.8,1.7,1.2,2.6,1.1
	c0.5-0.1,1-0.2,1.3-0.6c0.2-0.3,0.4-0.8,0.5-1.1c0.1-0.2,0-0.5-0.1-0.7c-0.1-0.3-0.2-0.5-0.4-0.7c-0.4-0.4-0.9-0.8-1.5-0.7
	c-0.3,0.1-0.6,0.2-0.7,0.4c-0.1,0.1-0.2,0.3-0.1,0.3"/>
<path class="st0" d="M280.2,70.2c4.9,4.3,11.3,7.7,17.7,6.6c4.3-0.7,8.1-3.5,10.1-7.4"/>
</svg>
