<?xml version="1.0" encoding="utf-8"?>
<!-- Generator: Adobe Adobe Illustrator 24.2.0, SVG Export Plug-In . SVG Version: 6.00 Build 0)  -->
<svg version="1.1" id="Layer_2" xmlns="http://www.w3.org/2000/svg" xmlns:xlink="http://www.w3.org/1999/xlink" x="0px" y="0px"
	 width="800px" height="800px" viewBox="0 0 800 800" style="enable-background:new 0 0 800 800;" xml:space="preserve">
<style type="text/css">
	.st0{fill:none;stroke:#000000;stroke-miterlimit:10;}
</style>
<path class="st0" d="M157.95,252.8c10.28,12.15,17.79,26.62,19.15,43.87c-0.84,20.44-3.79,40.79-8.87,61.35
	c-1.26,16.86,2.1,34.05,9.61,49.2"/>
<path class="st0" d="M148.11,227.14c3.45-14.05,12.37-26.67,24.46-34.6c12.09-7.93,27.23-11.1,41.48-8.66
	c18.87,3.22,35.15,15.72,46.85,30.87c11.7,15.15,19.45,32.91,27.08,50.47"/>
<path class="st0" d="M293.69,275.08c70.2,53.49,138.88,108.99,205.91,166.41"/>
<path class="st0" d="M294.08,303.5c-17.98,1.58-32.81,17.24-36.62,34.88c-3.8,17.64,2.03,36.37,12.44,51.11
	c10.42,14.74,25.04,25.98,40.23,35.73c84.04,53.97,187.06,67.24,280.72,101.92"/>
<path class="st0" d="M497.6,439.03c33.65,33.09,78.56,54.67,106.24,92.89"/>
<path class="st0" d="M171.21,375.8c4.32,43.99,25.72,86.08,58.71,115.49s77.25,45.86,121.45,45.12"/>
<path class="st0" d="M156.88,252.6c14.11,14.61,18.67,36.1,18.64,56.41s-4.01,40.45-4.2,60.76c-0.43,45.42,19.1,90.68,52.45,121.52
	s80,46.78,125.25,42.81"/>
<path class="st0" d="M160.97,247.27c-22.03,4.16-44.99,3.34-66.67-2.36c18.73-8.61,37.16-14.79,56.64-19.4
	c-17.85,3.68-34.99,10.78-50.2,20.81"/>
<path class="st0" d="M164.81,246.21c-21.4,8.4-46.19,7.75-67.13-1.75"/>
<path class="st0" d="M155.2,250.38c13.04,12.95,18.24,32.04,18.86,50.41c0.62,18.37-2.79,36.61-4.39,54.91
	c-1.61,18.31-1.28,37.41,6.31,54.15"/>
<path class="st0" d="M172.58,381.45c-0.99,29.26,9.07,58.76,27.71,81.34"/>
<path class="st0" d="M189.43,442.12c11.59,26.35,31.88,48.79,56.95,62.96"/>
<path class="st0" d="M228.75,492.89c22.84,24.52,56.26,38.83,89.76,38.45"/>
<path class="st0" d="M274.29,515.83c21.7,11.82,46.33,18.19,71.03,18.38"/>
<path class="st0" d="M151.26,226.45c0.97-15.78,13.04-29.04,26.98-36.51c6.29-3.38,13.11-5.87,20.19-6.83
	c20.75-2.83,41.52,7.92,55.78,23.26s23.13,34.8,31.41,54.04"/>
<path class="st0" d="M154.45,211.1c9.14-19.68,31.71-31.29,53.38-30.2c21.67,1.09,41.82,13.54,55.16,30.65
	c13.09,16.79,20.04,37.4,25.98,56.55c13.37,14.3,28.73,26.73,45.5,36.83"/>
<path class="st0" d="M293.33,304.86c-19.51,3.66-33.87,22.69-35.75,42.46c-1.88,19.76,6.94,39.43,20.11,54.29
	c13.17,14.86,30.36,25.53,47.82,34.98c80.74,43.68,171.29,65.16,260.64,86.2"/>
<path class="st0" d="M289.24,270.27c105.83,79.31,207.72,163.87,305.18,253.26"/>
<path class="st0" d="M158.42,247.26c4.99,7.53,8.56,15.99,10.47,24.82"/>
<path class="st0" d="M155.55,251.42c10.51,8.52,16.75,21.47,19.29,34.75c2.54,13.28,1.66,26.99-0.05,40.4
	c-1.71,13.42-4.26,26.75-5.04,40.25"/>
<path class="st0" d="M346.29,516.71c0.08,12.17,5.19,24.23,13.89,32.75"/>
<path class="st0" d="M363.5,513.23c6.26,4.05,10.89,10.55,12.66,17.79s0.67,15.15-3.87,21.13c-4.51-1.27-9.13-2.17-12.22-2.98
	c-12.97,22.03-24.4,44.97-34.18,68.59"/>
<path class="st0" d="M368.37,551.68c-13.17,22.41-24.54,45.88-33.98,70.1"/>
<path class="st0" d="M376.83,538.28c30.15-1.49,59.38-10.32,89.04-15.94c29.66-5.62,61.24-7.85,89.25,3.39"/>
<path class="st0" d="M345.09,517.23c-1.24,12.62,5.37,25.68,16.26,32.16"/>
<path class="st0" d="M370.97,550.8c4.35-5.11,6.31-12.17,5.23-18.79c-1.08-6.62-5.19-12.69-10.94-16.15"/>
<path class="st0" d="M357.67,554.24c-11.48,20.73-21.75,42.13-30.73,64.06"/>
<path class="st0" d="M368.15,550.89c-11.37,25.04-22.74,50.09-34.11,75.13"/>
<path class="st0" d="M335.69,624.24c0.01,1.61,1.39,2.94,2.92,3.44c1.53,0.5,3.18,0.34,4.78,0.18c4.1-0.41,8.19-0.82,12.29-1.23
	c2.43-0.24,4.91-0.49,7.3,0.01s4.73,1.87,5.78,4.08c1.05,2.21,0.4,5.26-1.76,6.39"/>
<path class="st0" d="M371.34,635.87c-7.87,3.54-16.9,3.5-25.44,2.26c-8.54-1.24-16.9-3.62-25.48-4.58
	c-10.42-1.17-21.07-0.2-31.11,2.83c-3.63,1.1-7.22,2.46-10.99,2.92c-3.77,0.45-7.85-0.13-10.78-2.55c-0.19-3.24,3.03-6.61,6.66-7.85
	s7.58-0.88,11.41-0.58c9.21,0.71,18.72,0.88,27.37-2.34s16.33-10.53,18.69-18.08c-6.61,10.64-19.71,15.55-32.2,16.59
	c-12.49,1.04-25.03-1.03-37.55-0.79c-2,0.04-4.08,0.15-5.86,1.06c-1.78,0.91-3.21,2.83-2.92,4.81c0.37,2.57,3.26,3.99,5.84,4.24
	c2.59,0.25,5.28-0.2,7.74,0.66"/>
<path class="st0" d="M332.68,608.44c-8.24,8.7-20.34,12.8-32.25,14.11c-11.91,1.32-23.93,0.17-35.91,0.05
	c-2.47-0.03-5.02,0.01-7.28,1c-2.26,0.99-4.17,3.2-4.05,5.66c0.13,2.61,2.48,4.67,5,5.34c2.52,0.67,5.19,0.24,7.76-0.18"/>
<path class="st0" d="M329.55,614.48c-5.37,7.85-15.01,11.74-24.42,13.11c-9.41,1.36-19,0.63-28.48,1.45
	c-2.07,0.18-4.19,0.45-6.02,1.43s-3.33,2.83-3.33,4.91c0,2.14,1.6,4.04,3.55,4.93c1.95,0.89,4.18,0.92,6.31,0.71
	c9.69-0.97,18.3-6.63,27.85-8.58c19.24-3.93,38.6,7.62,58.18,6.25c1.75-0.12,3.55-0.37,5.04-1.29c1.49-0.92,2.59-2.68,2.25-4.4"/>
<path class="st0" d="M343.58,604.16c-1.05,3.29-3.17,6.11-4.69,9.21s-2.42,6.85-0.91,9.95c1.88,3.86,6.79,5.25,11.08,4.98
	c4.29-0.27,8.45-1.76,12.75-1.84c2.26-0.04,4.7,0.39,6.29,2c1.59,1.61,1.82,4.65-0.01,5.97"/>
<path class="st0" d="M535.28,521.34c27.75,3.57,53.88,14.92,78.78,27.69c24.89,12.77,49.07,27.11,75.1,37.38
	c14.54,5.74,30.02,10.22,45.59,8.94"/>
<path class="st0" d="M562.09,490.79c42.02,25.39,84.37,50.94,130.51,67.71c14.68,5.34,29.71,9.77,43.99,16.09
	c3.49,1.55,7.09,3.33,9.28,6.46c2.19,3.13,2.36,7.99-0.62,10.38"/>
<path class="st0" d="M377.64,535.63c39.25,4.12,76.89-15.91,116.17-19.78c28.81-2.84,57.98,3.17,84.93,13.75
	s51.89,25.63,76.14,41.45c14.04,9.16,28.14,18.71,44.11,23.79c15.97,5.08,34.45,5.1,48.45-4.12"/>
<path class="st0" d="M666.39,576.96c20.05,13.85,45.12,20.25,69.36,17.7"/>
<path class="st0" d="M713.66,594.92c8.64,2.15,17.98,1.41,26.17-2.09c2.63-1.12,5.26-2.64,6.71-5.1c1.44-2.47,1.23-6.09-1.13-7.71"
	/>
<path class="st0" d="M575.66,496.93c21.78,18.52,47.08,32.57,73.35,43.86s53.59,19.91,80.88,28.46c5.95,1.86,12.62,4.37,14.92,10.16
	"/>
<path class="st0" d="M376.29,536.45c22.87,5.18,46.37-2.68,69.18-8.16c30.53-7.33,62.08-10.46,93.46-9.27"/>
<path class="st0" d="M353.46,542.87c-12.32,20.82-23.82,42.11-34.47,63.83"/>
<path class="st0" d="M359.15,548.56c-13.65,19.99-24.73,41.73-32.89,64.52"/>
<path class="st0" d="M352.09,542.72c-11.81,22.36-23.62,44.72-35.43,67.08"/>
<path class="st0" d="M320.52,602.82c-5.23,6.55-11.24,13.58-19.52,14.88c-4.55,0.72-9.16-0.43-13.71-1.12s-9.52-0.85-13.44,1.57
	c-0.9,0.56-1.75,1.28-2.15,2.26c-0.4,0.98-0.22,2.26,0.64,2.88"/>
<path class="st0" d="M308.71,614.91c-11.97-1.31-23.93-2.62-35.9-3.93c-3.76-0.41-7.71-0.8-11.21,0.63
	c-1.53,0.63-3.04,1.75-3.38,3.38c-0.33,1.58,0.57,3.2,1.83,4.2c1.26,1,2.84,1.49,4.37,1.97"/>
<path class="st0" d="M321.27,604.39c-4.43,6.53-11.96,10.85-19.83,11.38c-7.23,0.49-14.48-2.04-21.67-1.12
	c-2.49,0.32-5,1.09-6.88,2.75c-1.88,1.66-2.99,4.34-2.3,6.75"/>
<path class="st0" d="M308.75,613.12c-12.12,2.59-24.51-2.45-36.9-2.62c-2.68-0.04-5.43,0.17-7.89,1.26
	c-2.45,1.09-4.58,3.18-5.13,5.81s0.86,5.69,3.42,6.5"/>
<path class="st0" d="M338.59,617.71c2.47,1.47,5.5,1.59,8.37,1.47c2.87-0.12,5.81-0.42,8.58,0.37c1.44,0.41,2.9,1.22,3.48,2.61
	c0.58,1.38-0.23,3.34-1.73,3.44"/>
<path class="st0" d="M337.52,620.03c4.2-0.34,8.41-0.69,12.61-1.03c1.41-0.12,2.84-0.23,4.22,0.06c1.38,0.29,2.73,1.05,3.39,2.3
	c0.67,1.24,0.45,2.99-0.71,3.8"/>
<path class="st0" d="M291.2,303.31c-14.55,4.17-27.06,14.95-33.34,28.72c-6.28,13.77-6.22,30.28,0.17,44"/>
<path class="st0" d="M255.81,347.88c0.31,27.72,15.43,54.85,38.86,69.69"/>
<path class="st0" d="M272.96,397.18c8.36,13.52,20.65,24.33,34.27,32.53c13.62,8.2,28.59,13.92,43.75,18.72"/>
<path class="st0" d="M308.61,426.7c25.77,19.09,54.9,33.63,85.65,42.74"/>
<path class="st0" d="M348.6,449.07c27.52,17.35,58.1,29.84,89.89,36.74"/>
<path class="st0" d="M391.66,468.99c26.64,11.28,54.59,19.46,83.1,24.32"/>
<path class="st0" d="M454.81,488.29c22.37,8.6,45.97,13.95,69.86,15.85"/>
<path class="st0" d="M443.96,485.63c34.66,15.75,71.77,26.1,109.57,30.56"/>
<path class="st0" d="M488.32,499.33c28.35,9.88,57.81,16.54,87.65,19.82"/>
<path class="st0" d="M542.59,514.19c18.51,7.49,38.78,10.59,58.68,8.98"/>
<path class="st0" d="M297.23,273.01c20.23,16.1,40.46,32.19,60.69,48.29"/>
<path class="st0" d="M367.96,328.96c15.79,12.8,31.57,25.61,47.36,38.41"/>
<path class="st0" d="M427.67,376.53c20.62,13.97,40.31,29.3,58.91,45.87"/>
<path class="st0" d="M449.11,393.84c20.26,20.32,40.52,40.64,60.78,60.96"/>
<path class="st0" d="M468.83,410.24c16.67,15.02,33.35,30.04,50.02,45.05"/>
<path class="st0" d="M510.44,445.21c12.82,12.43,26.71,23.75,41.48,33.79"/>
<path class="st0" d="M541.88,471.35c16.23,9.47,30.68,21.97,42.39,36.66"/>
<path class="st0" d="M561.36,489.77c5.3,4.14,10.6,8.28,15.9,12.42"/>
<path class="st0" d="M158.01,253.21c11.67,7.41,18.53,20.75,21.17,34.32c2.63,13.57,1.54,27.55,0.44,41.32"/>
<path class="st0" d="M173.64,291.19c5.71,15.3,4.25,32.26,1.9,48.42c-2.35,16.16-5.5,32.57-2.95,48.7"/>
<path class="st0" d="M175.34,370.1c0.78,42.38,17.76,84.26,46.71,115.23"/>
<path class="st0" d="M186.43,436.93c17.97,34.8,46.75,63.91,81.33,82.27"/>
<path class="st0" d="M236.45,491.43c24.09,22.88,56.27,37.07,89.4,39.41"/>
<path class="st0" d="M342.47,520.91c0.79,8.67,4.68,17.03,10.82,23.22"/>
<path class="st0" d="M369.72,516.86c6.46,8.15,8.38,19.67,4.91,29.48"/>
<path class="st0" d="M342.51,525.15c2.56,7.37,6.2,14.37,10.78,20.69c1.13,1.56,2.34,3.1,3.97,4.13c1.62,1.02,3.75,1.45,5.49,0.64"
	/>
<path class="st0" d="M513.97,516.05c33.32,4.5,64.19,19.65,93.66,35.84c29.47,16.19,58.55,33.78,90.62,43.88"/>
<path class="st0" d="M560.99,529.03c41.37,15.39,82.05,32.64,121.87,51.68"/>
<path class="st0" d="M595.31,538.25c23.82,15.69,48.62,29.9,74.21,42.5"/>
<path class="st0" d="M611.9,551.46c24.88,11.09,49.12,23.61,72.56,37.48"/>
<path class="st0" d="M573.61,496.9c40.36,31.75,88.22,53.9,138.54,64.13"/>
<path class="st0" d="M687.99,587.01c7.37,7.9,17.94,12.72,28.73,13.1s21.68-3.68,29.58-11.04"/>
<path class="st0" d="M706.77,559.19c4.73,2.55,10.15,3.41,15.44,4.33c5.29,0.91,10.71,1.97,15.26,4.82
	c4.55,2.85,8.1,7.93,7.61,13.28"/>
<path class="st0" d="M288.38,272.98c-4.7-14.71-9.42-29.49-16.29-43.33c-6.86-13.84-16-26.81-28.23-36.24
	c-12.23-9.43-27.79-15.09-43.16-13.56c-23.11,2.29-42.71,21.11-49.33,42.91c4.23-16.31,16.13-30.45,31.49-37.39
	c15.35-6.94,33.84-6.53,48.87,1.08c8.77,4.44,16.24,11.09,22.88,18.33c7.4,8.08,13.94,17.06,18.4,27.07
	c3.64,8.2,5.84,16.96,9.23,25.26S290.47,273.53,288.38,272.98z"/>
<path class="st0" d="M161.62,245.48c5.12-1.28,9.88-3.98,13.62-7.71c1.27-1.27,2.51-3.01,1.97-4.73c-0.72-2.28-3.78-2.57-6.16-2.42
	c-4.49,0.27-8.98,0.55-13.47,0.82c-2.36,0.14-4.86,0.26-6.93-0.89s-3.33-4.05-1.87-4.97c1.73,2.87,5.19,4.32,8.53,4.55
	s6.66-0.57,9.94-1.26c3.28-0.68,6.68-1.25,9.96-0.56c2.24,0.47,4.69,2.04,4.6,4.34c-0.06,1.63-1.38,2.9-2.64,3.94
	C174.95,240.05,170.34,243.02,161.62,245.48z"/>
<path class="st0" d="M286.73,259.29c4.85,10.1,12.95,18.61,22.8,23.96"/>
<path class="st0" d="M93.1,243.01c20.18,11.02,44.76,13.71,66.84,7.3"/>
<path class="st0" d="M101.68,243.46c14.18-9.4,30.11-16.14,46.72-19.79"/>
<path class="st0" d="M369.56,553.31c-13.24,22.66-24.59,46.42-33.9,70.96"/>
<path class="st0" d="M164.72,228.89c2.62-9.96,8.99-18.89,17.54-24.62c3.73-2.49,8.11-4.44,12.57-3.97s8.8,4.05,8.84,8.54"/>
<path class="st0" d="M174.24,211.71c1.05-1.14,2.13-2.31,3.55-2.94c1.41-0.63,3.24-0.6,4.33,0.5c1.02,1.03,1.12,2.65,0.99,4.09
	c-0.51,5.69-3.72,11.07-8.46,14.24"/>
<path class="st0" d="M168.66,217.6c0.15,3.64,0.31,7.28,0.46,10.91"/>
<path class="st0" d="M167.23,222.08c0.02,2.25,0.04,4.51,0.07,6.76"/>
<path class="st0" d="M170.61,215.66c-0.18,3.95-0.03,7.92,0.45,11.85"/>
<path class="st0" d="M172.82,212.51c-0.61,5.27-0.36,10.63,0.73,15.82"/>
<path class="st0" d="M174.57,210.37c-0.54,5.32-0.27,10.73,0.78,15.97"/>
<path class="st0" d="M176.33,209.7c-0.54,4.78-0.27,9.65,0.81,14.33"/>
<path class="st0" d="M178.62,208.97c-0.6,4.03-0.44,8.17,0.48,12.14"/>
<path class="st0" d="M180.86,208.76c-0.24,3.32-0.25,6.66-0.01,9.98"/>
<path class="st0" d="M204.39,208.32c-0.75-5.11-6.09-8.63-11.25-8.73c-5.16-0.1-10.02,2.49-14.09,5.67
	c-7.55,5.9-13.28,14.1-16.23,23.22"/>
<path class="st0" d="M181.17,230.5c4.65-0.55,9.12-2.62,12.54-5.81c3.43-3.2,5.8-7.5,6.68-12.11"/>
<path class="st0" d="M184.05,232.57c8.36-3.93,15.08-11.21,18.33-19.85"/>
<path class="st0" d="M166.6,223.28c0.22,2.12,0.45,4.24,0.67,6.35"/>
<path class="st0" d="M167.7,220.8c0.4,2.51,0.8,5.02,1.2,7.53"/>
<path class="st0" d="M170.91,217.12c0.18,3.18,0.51,6.35,0.97,9.5"/>
<path class="st0" d="M173.02,214.42c0.16,3.87,0.59,7.72,1.27,11.53"/>
<path class="st0" d="M175.22,212.63c0.04,4.08,0.49,8.15,1.35,12.13"/>
<path class="st0" d="M177.29,210.59c0.03,3.89,0.28,7.79,0.74,11.65"/>
<path class="st0" d="M179.71,208.89c-0.13,3.98,0.03,7.97,0.48,11.93"/>
<path class="st0" d="M182.21,209.83c-0.22,2.33-0.26,4.67-0.13,7.01"/>
<path class="st0" d="M148.23,225.86c-16.24,2.22-31.96,8.14-45.63,17.18"/>
</svg>
