<?xml version="1.0" encoding="utf-8"?>
<!-- Generator: Adobe Adobe Illustrator 24.2.0, SVG Export Plug-In . SVG Version: 6.00 Build 0)  -->
<svg version="1.1" id="Layer_3" xmlns="http://www.w3.org/2000/svg" xmlns:xlink="http://www.w3.org/1999/xlink" x="0px" y="0px"
	 width="800px" height="800px" viewBox="0 0 800 800" style="enable-background:new 0 0 800 800;" xml:space="preserve">
<style type="text/css">
	.st0{fill:none;stroke:#000000;stroke-miterlimit:10;}
</style>
<path class="st0" d="M244.42,507.5c-27.27-22.52-50.04-51.35-61.48-84.81c-5.88-17.21-8.72-35.38-15.21-52.37
	c-6.49-16.99-17.6-33.41-30.74-42.17c14.42,11.29,25.59,26.67,31.85,43.88"/>
<path class="st0" d="M136.59,331.48c19.94,18.9,33.98,43.95,39.68,70.83"/>
<path class="st0" d="M171.77,382.49c6.55,27.28,17.25,53.56,31.62,77.65"/>
<path class="st0" d="M180.1,413.43c6.38,31.18,23.44,60.08,47.67,80.73"/>
<path class="st0" d="M202.32,456.66c12.04,24.64,32.17,45.25,56.52,57.87"/>
<path class="st0" d="M213.82,474.68c16.47,16.88,35.35,31.4,55.89,42.99"/>
<path class="st0" d="M240.15,503.54c16.08,15.24,37,25.3,58.94,28.34"/>
<path class="st0" d="M258.46,515.56c16.31,9.44,34.53,15.56,53.23,17.89"/>
<path class="st0" d="M264.5,516.08c17.61,7.57,35.92,13.51,54.62,17.71"/>
<path class="st0" d="M281.12,524.85c19.41,8.88,41.11,12.71,62.39,11"/>
<path class="st0" d="M133.25,328.02c24.9,22.97,42.48,53.77,49.59,86.9"/>
<path class="st0" d="M173.86,379.81c3.5,4.88,4.62,11.02,5.89,16.89c4.97,23.01,13.61,45.22,25.48,65.54"/>
<path class="st0" d="M183.49,420.28c8.96,23.41,22.32,45.13,39.18,63.68"/>
<path class="st0" d="M202.84,457.49c13.7,19.91,31.75,36.81,52.52,49.17"/>
<path class="st0" d="M214.98,477.94c13.31,16.47,30.33,29.93,49.43,39.08"/>
<path class="st0" d="M198.39,458.62c15.31,26.51,39.82,47.59,68.32,58.76"/>
<path class="st0" d="M222.09,483.17c17.23,17.27,37.79,31.2,56.92,35.64c18.76,8.73,39.57,12.99,60.25,12.34"/>
<path class="st0" d="M309.68,533.53c11.59,0.38,23.18,0.76,34.77,1.14"/>
<path class="st0" d="M75.24,344.63c10.49-14.23,23.15-26.86,39.07-37.78c2.49,2.52,6.56,2.81,9.95,1.77
	c3.39-1.03,6.32-3.15,9.35-4.97c3.04-1.82,6.42-3.41,9.96-3.2c1.2,0.07,2.48,0.41,3.25,1.33c1.35,1.62,0.52,4.07-0.45,5.94
	c-2.85,5.49-6.5,10.55-10.81,14.98"/>
<path class="st0" d="M81.54,344.62c18.68-2.39,36.82-8.86,52.8-18.82"/>
<path class="st0" d="M115.92,305.6c-17.75,9.12-32.83,23.37-42.95,40.57"/>
<path class="st0" d="M76.69,345.74c16.3-2.52,32.18-7.78,46.76-15.49c8.53-4.51,17.14-10.49,20.39-19.57"/>
<path class="st0" d="M114.11,307.78c2.9,2.12,6.85,2.28,10.32,1.4c3.48-0.88,6.64-2.69,9.86-4.27c3.22-1.58,6.67-2.97,10.25-2.93
	c0.65,0.01,1.37,0.1,1.77,0.61c0.41,0.53,0.3,1.27,0.17,1.93c-0.49,2.44-0.97,4.88-1.46,7.32"/>
<path class="st0" d="M129.19,305.39c-4.11-12.29-1.23-26.67,7.3-36.43c2.21-2.53,4.98-4.87,8.31-5.35c3.33-0.48,7.19,1.58,7.62,4.91
	"/>
<path class="st0" d="M153.49,274.25c1.3,8.09-0.78,16.68-5.65,23.28"/>
<path class="st0" d="M127.7,290.05c0.09-2.42,0.22-4.96,1.51-7.01c1.29-2.04,4.18-3.29,6.21-1.98c1.28,0.83,1.86,2.38,2.25,3.85
	c1.44,5.51,1.23,11.44-0.6,16.84"/>
<path class="st0" d="M150.89,267.46c-1.9-3.74-7.28-4.55-11.01-2.63c-3.73,1.91-6.08,5.73-7.82,9.55
	c-4.55,10.01-6.15,21.35-4.55,32.24"/>
<path class="st0" d="M128.06,299.86c1.07,1.6,2.34,3.07,3.76,4.37"/>
<path class="st0" d="M127.76,297.73c1.66,2.14,3.56,4.1,5.64,5.83"/>
<path class="st0" d="M127.57,295.25c2.11,2.62,4.44,5.07,6.94,7.33"/>
<path class="st0" d="M128.15,292.92c2.59,3,5.38,5.84,8.33,8.48"/>
<path class="st0" d="M128.43,290.51c2.76,3.28,5.72,6.38,8.86,9.29"/>
<path class="st0" d="M128.71,287.43c2.65,3.33,5.5,6.51,8.52,9.51"/>
<path class="st0" d="M129.66,285.82c2.69,3.07,5.39,6.15,8.08,9.22"/>
<path class="st0" d="M130.02,283.45c2.67,3.1,5.33,6.2,8,9.3"/>
<path class="st0" d="M131.24,281.57c2.04,2.29,4.09,4.57,6.13,6.86"/>
<path class="st0" d="M132.73,280.51c1.5,1.64,2.99,3.28,4.49,4.92"/>
<path class="st0" d="M152.57,270.88c2.58,8.84,1.1,18.78-3.96,26.48"/>
<path class="st0" d="M115.48,308.67c-3.6-8.62-2.91-18.56,0-27.44c6.24-19.01,22.89-34.24,42.38-38.77"/>
<path class="st0" d="M115.93,305.6c-1.95-9.66-0.9-19.91,2.97-28.97c4.88-11.42,14.1-20.74,24.97-26.75
	c10.87-6.01,23.32-8.85,35.73-9.32"/>
<path class="st0" d="M161.36,241.76c18.98-0.54,38.08,4.1,54.7,13.27s30.73,22.87,40.39,39.21"/>
<path class="st0" d="M178.24,240.91c31.06,6.17,59.31,25.36,76.48,51.96"/>
<path class="st0" d="M253.21,287.23c14.87,12,32.75,20.26,51.53,23.78"/>
<path class="st0" d="M257.38,294.1c21.64,11.21,44.95,19.18,68.93,23.56"/>
<path class="st0" d="M280.07,301.76c67.42,22.1,134.82,44.24,202.22,66.41"/>
<path class="st0" d="M319.51,313.36c44.52,13.08,89.04,26.17,133.56,39.25"/>
<path class="st0" d="M334.44,321.51c59.14,15.2,117.5,33.45,174.76,54.63"/>
<path class="st0" d="M441.25,354.2c43.89,11.58,87.24,25.24,129.84,40.92"/>
<path class="st0" d="M460.55,356.24c36.63,12.13,73.27,24.25,109.9,36.38"/>
<path class="st0" d="M481.1,361.6c33.42,9.3,66.21,20.89,98.04,34.68"/>
<path class="st0" d="M515.89,378.63c30.37,9.75,60.74,19.5,91.11,29.26"/>
<path class="st0" d="M561.71,388.59c23.01,7.28,45.62,15.83,67.7,25.59"/>
<path class="st0" d="M587.76,400.61c17.14,4.53,33.76,11.01,49.45,19.26"/>
<path class="st0" d="M353.63,322.64c-29.1-5.81-57.75-13.86-85.82-20.7c20.33,8.05,41.3,14.48,62.65,19.21"/>
<path class="st0" d="M337.01,324.26c21.19,6.75,42.65,12.66,64.3,17.73"/>
<path class="st0" d="M394.83,339.68c24.24,6.42,48.06,14.42,71.27,23.91"/>
<path class="st0" d="M435.82,349.93c17.09,2.95,33.84,7.81,49.86,14.46"/>
<path class="st0" d="M284.33,419.48c-15.36-8.64-26.02-25.13-27.58-42.69c-1.56-17.55,6.02-35.67,17.06-45.47
	c-16.02,13.16-22.67,36.64-15.91,56.25"/>
<path class="st0" d="M259.35,381.26c10.28,28.69,36.26,51.19,66.13,57.25"/>
<path class="st0" d="M281.99,414.02c26.29,19.41,58.58,30.56,91.25,31.5"/>
<path class="st0" d="M386.14,443c-31.8-1.97-63.26-9.31-89.18-18.19C327.85,440.29,363.26,446.61,386.14,443z"/>
<path class="st0" d="M259.99,391.54c18.49,26.19,48.25,44.13,80.05,48.25"/>
<path class="st0" d="M357.23,439.54c32.26,5.47,65.14,7.28,97.8,5.37"/>
<path class="st0" d="M376.34,444.41c33.49,1.66,67.06,1.6,100.54-0.17"/>
<path class="st0" d="M471.13,441.31c-27.4,2.75-55.05,3.02-78.23,0.1c36.82,1.82,73.76,1.38,110.53-1.33"/>
<path class="st0" d="M468.36,441.09c28.51-2.01,56.94-5.26,85.18-9.74"/>
<path class="st0" d="M488.95,442.06c28.47-3.33,56.94-6.66,85.41-9.99"/>
<path class="st0" d="M510.31,436.69c27.27-3.89,54.8-6,82.35-6.3"/>
<path class="st0" d="M484.33,440.75c38.51,0.69,77.07-2.07,115.09-8.23"/>
<path class="st0" d="M554.56,437.25c24.38-3.79,48.75-7.57,73.13-11.36"/>
<path class="st0" d="M636.67,421.54c-20.67,4.39-41.34,8.77-60.18,11.51C596.52,429.09,616.55,425.14,636.67,421.54z"/>
<path class="st0" d="M423.66,447c27.17,0.41,54.38-1.5,81.23-5.69"/>
<path class="st0" d="M374.26,532.53c26.69-4.27,52.36-14.75,74.4-30.39"/>
<path class="st0" d="M444.24,506.95c-19.47,12.45-41.86,20.32-62.83,25.43C407.3,528.45,432.17,517.99,444.24,506.95z"/>
<path class="st0" d="M506.73,473.16c-20.7,10.49-40.75,22.3-61.81,33.78c27.08-19.79,57.41-35.13,89.4-45.24"/>
<path class="st0" d="M494.94,481.92c36.99-24.76,83.24-35.31,127.31-29.02"/>
<path class="st0" d="M548.94,455.01c25.05-5.39,51.08-6.16,76.4-2.28c33.41,5.12,66.44,18.29,99.95,13.85"/>
<path class="st0" d="M624.14,456.43c37.51,6.07,75.07,12.15,112.95,15.18c7.27,0.58,14.67,1.04,21.8-0.49
	c7.13-1.54,14.08-5.34,17.85-11.58"/>
<path class="st0" d="M614.54,455.69c28.27,5.07,56.53,10.13,84.8,15.2c13.36,2.4,26.9,4.8,40.44,3.78
	c13.54-1.02,27.3-5.86,36.44-15.91c2.16-2.37,4.1-5.19,4.32-8.39c0.22-3.2-1.88-6.72-5.06-7.08"/>
<path class="st0" d="M613.84,425.92c22.61,10.5,48.35,11.64,73.29,11.27c24.93-0.37,50.2-2.04,74.52,3.42
	c4.95,1.11,9.83,2.51,14.56,4.35"/>
<path class="st0" d="M612.78,430.11c24.72,8.44,51.48,8.13,77.58,7.06s52.6-2.77,78.05,3.12c1.71,0.4,3.48,0.85,4.86,1.94
	c1.38,1.09,2.29,2.97,1.73,4.64"/>
<path class="st0" d="M537.29,458.79c26.36-6.48,54.03-7.6,80.83-3.26c26.38,4.28,52.29,13.8,78.98,12.37"/>
<path class="st0" d="M378.24,529.06c25.84-3.16,51.09-11.06,74.12-23.2c17.09-9.01,32.88-20.27,49.45-30.21
	c16.57-9.94,34.25-18.67,53.3-21.88"/>
<path class="st0" d="M341.69,517.72c0.12,11.95,5.67,23.73,14.8,31.44"/>
<path class="st0" d="M366.34,512.35c10.71,11.84,13.18,30.42,5.93,44.64"/>
<path class="st0" d="M356.12,549.27c4.06,4.85,11.45,6.55,17.22,3.96"/>
<path class="st0" d="M344.42,513.93c-0.19,13.98,6.33,27.91,17.19,36.72"/>
<path class="st0" d="M340.59,516.39c1.03,15.18,8.63,29.79,20.45,39.36"/>
<path class="st0" d="M343.26,516.85c1.37,12.09,5.79,23.82,12.74,33.8"/>
<path class="st0" d="M372.57,552.02c7.19-12.93,5.72-30.16-3.1-39.94C375.6,523.69,377.29,537.57,372.57,552.02z"/>
<path class="st0" d="M357.76,549.28c4.08,3.37,9.29,5.34,14.58,5.5"/>
<path class="st0" d="M351.26,541.55c-9.82,23.97-21.48,47.19-34.84,69.38"/>
<path class="st0" d="M368.11,552.62c-10.57,22.96-20.46,46.24-29.64,69.79"/>
<path class="st0" d="M318.27,607.85c-4.98,5.18-12.11,8.22-19.29,8.23c-5.49,0.01-10.89-1.66-16.38-1.52s-11.59,2.91-12.9,8.24"/>
<path class="st0" d="M311.97,610.54c-6.58,2.84-14.12,2.12-21.17,0.81c-7.05-1.3-14.15-3.15-21.28-2.4
	c-3.47,0.36-7.11,1.5-9.23,4.27c-2.12,2.76-1.89,7.46,1.17,9.13"/>
<path class="st0" d="M356.95,551.57c-13.15,19.47-23.65,40.72-31.13,62.99"/>
<path class="st0" d="M269.65,635.11c-3.75,1.19-7.97,1.78-11.54,0.1c-3.56-1.68-5.91-6.31-4-9.75c1.89-3.39,6.45-3.93,10.33-4
	c10.83-0.19,21.69,0.21,32.49-0.7c10.8-0.91,21.65-3.2,31.14-8.42"/>
<path class="st0" d="M358.66,551.29c-6.08,10.16-9.88,21.49-14.33,32.47c-4.45,10.98-9.75,21.91-18.15,30.26"/>
<path class="st0" d="M268.57,635.65c-3.42,0.75-7,1.5-10.4,0.63c-3.39-0.88-6.51-3.92-6.2-7.42c0.25-2.8,2.6-5.05,5.24-6.02
	s5.52-0.9,8.33-0.79c11.4,0.45,22.85,1.41,34.19,0.13c11.34-1.28,22.76-5.01,32.2-14.23c-2.84,9.97-12.78,16.45-22.85,18.9
	c-10.07,2.45-20.6,1.75-30.94,2.41c-2.48,0.16-5.07,0.44-7.15,1.81c-2.07,1.37-3.41,4.18-2.34,6.42c0.75,1.57,2.43,2.47,4.08,3
	c6.54,2.13,13.7,0.23,20.1-2.3c6.4-2.53,12.72-5.74,19.58-6.27"/>
<path class="st0" d="M332.09,609.26c-3.63,8.78-12.39,14.57-21.53,17.13c-9.14,2.57-18.79,2.42-28.28,2.51
	c-2.94,0.03-6,0.12-8.58,1.53c-2.58,1.41-4.44,4.58-3.39,7.32c0.92,2.4,3.63,3.6,6.16,4.08c6.86,1.31,13.9-0.78,20.42-3.28
	c6.52-2.5,13.02-5.48,19.99-6.05c15.77-1.29,31.13,9.97,46.59,6.58"/>
<path class="st0" d="M367.49,554.69c-9.57,20.65-19.14,41.29-28.72,61.94c-1.24,2.68-2.47,5.92-0.95,8.45
	c1.02,1.69,3.05,2.55,5.01,2.7s3.92-0.29,5.86-0.64c4.45-0.8,9-1.11,13.52-0.93c2.83,0.11,5.94,0.56,7.79,2.71
	c1.95,2.26,1.73,5.92-0.15,8.24c-1.88,2.32-5.08,3.32-8.04,2.97"/>
<path class="st0" d="M339.27,619.28c2,1.45,4.72,1.22,7.18,0.92c2.75-0.33,5.51-0.67,8.26-1c1.44-0.17,3.02-0.31,4.21,0.51
	c1.23,0.85,1.65,2.54,1.41,4.01c-0.24,1.48-1.02,2.8-1.79,4.09"/>
<path class="st0" d="M361.13,568.67c-7.16,15.17-14.32,30.34-21.48,45.5c-1.54,3.26-3.09,7.08-1.54,10.34
	c1.69,3.56,6.31,4.64,10.22,4.23c3.07-0.32,6.04-1.27,9.08-1.84c3.04-0.56,6.28-0.72,9.11,0.51c2.83,1.23,5.11,4.14,4.79,7.21
	c-0.32,3.07-3.94,5.57-6.69,4.16"/>
<path class="st0" d="M135.35,328.84c24.83,15.41,42.52,41.85,47.28,70.68"/>
<path class="st0" d="M142.1,333.94c15.73,17.3,27.63,38.08,34.59,60.41"/>
<path class="st0" d="M167.01,363.24c4.96,8.12,8.84,16.89,11.52,26.01"/>
<path class="st0" d="M614.17,429.51c51.67,15.04,107.72,4.7,160.21,16.59"/>
<path class="st0" d="M151.64,267.48c-1.18-3.62-5.81-5.19-9.47-4.12c-3.65,1.07-6.41,4.07-8.56,7.22
	c-6.69,9.77-9.23,22.29-6.89,33.9"/>
<path class="st0" d="M349.69,544.7c-9.25,22.27-20.3,43.79-33,64.29"/>
<path class="st0" d="M354.97,553.59c-9.17,19.15-18.35,38.29-27.52,57.44"/>
<path class="st0" d="M348.97,565.36c-6.78,13.89-13.57,27.77-20.35,41.66"/>
<path class="st0" d="M272.43,330.44c-13.4,12.83-19.9,32.48-16.79,50.77c3.12,18.29,15.76,34.68,32.65,42.35"/>
<path class="st0" d="M266.41,397.85c15.44,22.79,40.2,39.05,67.25,44.15"/>
<path class="st0" d="M272.56,409.56c12.25,13.99,29.09,23.41,46.79,29.1s36.34,7.86,54.89,9.15c49.15,3.42,98.71,0.82,147.23-7.71"
	/>
<path class="st0" d="M351.33,443.74c34.32,4.48,69.19,4.78,103.59,0.9"/>
<path class="st0" d="M264.87,398.26c-5.96-10.06-8.5-22.11-7.1-33.72c1.4-11.61,6.74-22.71,14.93-31.05"/>
<path class="st0" d="M114.84,305.39c-0.31-10.73,1.08-21.63,5.15-31.56c4.07-9.94,10.96-18.88,20.14-24.44
	c8.34-5.05,18.27-7.15,28.02-6.94c9.75,0.21,19.35,2.63,28.48,6.09c25.39,9.62,47.55,27.55,62.26,50.37"/>
<path class="st0" d="M186.97,242.24c15.72,2.09,30.32,9.77,42.55,19.87c12.22,10.1,22.27,22.58,31.08,36.69
	c15.27,2.2,30.4,5.42,45.25,9.62"/>
<path class="st0" d="M586.79,433.61c15.9-3.76,31.8-7.52,47.7-11.28"/>
</svg>
