<?xml version="1.0" encoding="utf-8"?>
<!-- Generator: Adobe Illustrator 27.5.0, SVG Export Plug-In . SVG Version: 6.00 Build 0)  -->
<svg version="1.1" id="Layer_1" xmlns="http://www.w3.org/2000/svg" xmlns:xlink="http://www.w3.org/1999/xlink" x="0px" y="0px"
	 viewBox="0 0 800 800" style="enable-background:new 0 0 800 800;" xml:space="preserve">
<style type="text/css">
	.st0{fill:none;stroke:#000000;stroke-width:0.5;stroke-miterlimit:10;}
</style>
<g id="Layer_2_00000150787149979297436630000010353303646311746714_">
	<path class="st0" d="M339.9,149.3c-0.6,12.3-0.3,24.7,1,36.9"/>
	<path class="st0" d="M341.3,188.6c1.5,7.9,4.8,15.4,9.5,21.9"/>
	<path class="st0" d="M342.6,140.4c-0.3,7.9-0.6,15.9-0.9,23.9c-0.2,5.8-0.4,11.6,0.1,17.3c1.1,11.7,5.2,23,11.3,33
		s14.1,18.8,23.1,26.4"/>
	<path class="st0" d="M342.1,194.4c2.2,7.7,6.5,14.6,10.7,21.4c1.3,2.1,2.7,4.3,4.2,6.3c1.3,1.8,2.8,3.5,4.2,5.1
		c4,4.5,8.2,8.8,13,12.5"/>
	<path class="st0" d="M339.6,145.7c0.4-11.6,6.2-22.6,14.7-30.4s19.6-12.5,31.1-14.3"/>
	<path class="st0" d="M348,123.7c3.9-5,8.8-9.3,14.3-12.4"/>
	<path class="st0" d="M348.3,119.7c8.6-9.9,20.5-16.9,33.4-19.4"/>
	<path class="st0" d="M385,100.8c14.2,1,26.5,10.6,35,22c2.9,3.9,5.6,8.2,7,12.9c1.2,4,1.6,8.2,1.9,12.4c0.8,12.7,0.4,25.5-1.2,38.1
		"/>
	<path class="st0" d="M426.9,136.4c2,15.5,2.3,31.2,0.9,46.7"/>
	<path class="st0" d="M397.9,241.5c12.4-15.2,22.3-32.5,29.2-50.8"/>
	<path class="st0" d="M423.8,197.9c-7.2,15.3-15.9,29.9-25.7,43.6"/>
	<path class="st0" d="M425.1,198.9c-6.8,15.2-15.5,29.5-25.9,42.4"/>
	<path class="st0" d="M374.7,241.9c6.8,3.5,15.1,4,22.2,1.2"/>
	<path class="st0" d="M377.5,242.2c6.5,2.4,13.9,2.3,20.4-0.4"/>
	<path class="st0" d="M347.2,125.5c-4.4,6.3-6,14.1-6.4,21.8s0.3,15.4,0,23"/>
	<path class="st0" d="M383.3,121c0.7,34.8,1.6,69.7,2.9,104.5"/>
	<path class="st0" d="M385.2,132.5c2.1,23.2,3.1,46.5,3.1,69.8"/>
	<path class="st0" d="M351,166.2c9.9,3.4,20.5,4.6,30.9,4.2s20.8-2.2,31-4.8"/>
	<path class="st0" d="M349.5,168.9c20,4.7,41.1,4.7,61.1,0"/>
	<path class="st0" d="M353.4,218.3c-0.2,14.2,0.1,28.5,0.9,42.7"/>
	<path class="st0" d="M352.7,226.9c-0.4,11.4-0.2,22.7,0.5,34"/>
	<path class="st0" d="M415.9,214.9c0.3,16.9,0.6,33.8,0.9,50.7"/>
	<path class="st0" d="M351,249.3c-11.5,4.9-22.9,10.3-34.1,16.1"/>
	<path class="st0" d="M344,253.2c-6.9,2.9-13.8,6.1-19.3,11.2"/>
	<path class="st0" d="M416.7,214.6c0.5,16,0.7,31.9,0.7,47.9"/>
	<path class="st0" d="M416.8,246.2c10.9,7.2,21.4,15.1,31.3,23.6"/>
	<path class="st0" d="M416.1,248c4.8,2.2,9.3,4.8,13.7,7.8c1.2,0.8,2.4,1.7,3.6,2.5c5.3,3.8,10.5,7.9,15.5,12.1"/>
	<path class="st0" d="M352.4,214.8c0.1,4.7,0.1,9.4,0.2,14.1c0.2,14.7,0.5,29.4,0.7,44.1"/>
	<path class="st0" d="M381.5,295.5c1.2,1.3,2.5,2.6,3.8,3.9c0.6,0.6,1.2,1.3,2,1.7c1.6,0.9,3.6,0.8,5.4,0.1s3.2-1.9,4.6-3.1"/>
	<path class="st0" d="M384,295.9c0.6,1.8,2.2,3,3.8,4c0.4,0.3,0.9,0.5,1.4,0.7c1.3,0.4,2.7,0.2,3.9-0.4c1.2-0.6,2.3-1.4,3.3-2.3"/>
	<path class="st0" d="M401,290.6c14.4-4.2,28.6-8.7,42.8-13.6"/>
	<path class="st0" d="M408,287.5c15-4.9,30-9.6,45-14.2"/>
	<path class="st0" d="M419.4,285c15.1-6.5,31.3-10.6,47.8-12.1"/>
	<path class="st0" d="M397,289.3c6.1,0,12.1-0.9,17.9-2.8"/>
	<path class="st0" d="M439.8,263c9.7,2.6,19.4,5.3,29,7.9"/>
	<path class="st0" d="M443,264.7c8.4,2.5,16.9,4.9,25.4,7.1"/>
	<path class="st0" d="M304.7,270c11.1-0.3,21.8,3.9,32.1,8c4.5,1.8,9,3.6,13.5,5.4c7.3,2.9,15.3,5.9,22.9,3.9"/>
	<path class="st0" d="M308.6,270.6c7.9,0.4,15.5,3.2,22.9,6c9.4,3.5,18.9,7.1,28.3,10.6c2.6,1,5.2,2,8,2.2c2.8,0.3,5.7-0.3,7.8-2.1"
		/>
	<path class="st0" d="M313.2,271.8c10.2,2.7,20.3,6.1,30,10.2"/>
	<path class="st0" d="M329.6,259.1c-9.4,1-18.6,4.3-26.4,9.5"/>
	<path class="st0" d="M285.1,293.1c12.2,5.6,25.7,7.4,39,8.9c23.5,2.7,47,4.9,70.6,4.1c30.8-1.1,61.1-7.3,91.3-13.5"/>
	<path class="st0" d="M291.2,297c38.2,9.9,78.2,12.3,117.6,9.9c19.4-1.2,38.9-3.6,57.3-9.6"/>
	<path class="st0" d="M485.4,279.3c3.3,21.9,3.5,44.3,0.5,66.2"/>
	<path class="st0" d="M488.6,293.7c-0.1,8.9-0.3,17.7-0.4,26.5"/>
	<path class="st0" d="M387.4,325.9c0.8,26.3,1.6,52.5,2.4,78.8"/>
	<path class="st0" d="M388.9,328.8c0.6,22.5,1.9,45.1,3.8,67.5"/>
	<path class="st0" d="M388.9,347.7c0.1,16.3,0.3,32.6,0.4,48.9"/>
	<path class="st0" d="M389.5,370.7c1,11.6,1.3,23.3,1,35"/>
	<path class="st0" d="M487.4,284.8c2.4,17.9,2.7,36.1,1.1,54.1"/>
	<path class="st0" d="M487.4,279.4c3.7,20.9,3.8,42.3,0.3,63.2"/>
	<path class="st0" d="M287.9,278.6c-6.6,23.4-7.8,48.2-3.6,72.1"/>
	<path class="st0" d="M283.2,290.4c-3.2,12.7-4.5,25.8-3.9,38.9"/>
	<path class="st0" d="M285,363.6c4.6,18.8,12.8,36.7,24,52.5"/>
	<path class="st0" d="M284.8,357.3c3.7,17.9,10.7,35.2,20.5,50.6"/>
	<path class="st0" d="M288.8,366c2.8,12.3,7.5,24.1,13.7,35"/>
	<path class="st0" d="M223.6,340.6c4.8-16.4,12.1-32.3,23.8-44.7c14.1-15,33.7-23.9,53.5-29.6"/>
	<path class="st0" d="M227.4,325.2c5.9-14.8,16.1-27.7,28.7-37.5c12.6-9.8,27.5-16.4,43-19.9"/>
	<path class="st0" d="M236.2,310.4c13.9-18.6,33.7-32.7,55.9-39.7"/>
	<path class="st0" d="M234.5,315.3c3.1-4.9,6.9-9.4,11.2-13.3"/>
	<path class="st0" d="M250.8,296c6.7-6.1,14-11.5,21.7-16.2"/>
	<path class="st0" d="M282,275.5c5.7-2.5,11.6-4.3,17.7-5.4"/>
	<path class="st0" d="M285.6,281.9c-0.7,3.3-1.4,6.5-2,9.8"/>
	<path class="st0" d="M278.5,331.7c0.9,6.6,2.1,13.1,3.7,19.5"/>
	<path class="st0" d="M226.6,361.6c5.8,0.9,11.9,0.2,17.4-1.9c3.8-1.5,7.2-3.7,11.1-5c6.6-2.3,13.7-1.9,20.7-1.5"/>
	<path class="st0" d="M236,362.9c0.2,0.6,1,0.6,1.6,0.4c7.4-2.2,14-6.8,21.5-8.5c4.1-1,8.4-1.1,12.6-1.2"/>
	<path class="st0" d="M241.9,362.4c8-3.5,16.4-6.6,25.2-7"/>
	<path class="st0" d="M185.7,434.8c12-4.2,23-11.2,31.8-20.4c2.7-2.8,5.2-5.9,7.7-8.9c7.3-9,14.5-18.1,22.9-25.9
		c8.5-7.9,18.4-14.5,31.5-15.8c-10.3,3-19.6,8.8-27.9,15.6c-8.3,6.8-15.7,14.5-23.3,22.1c-5.2,5.2-10.5,10.4-15.9,15.5
		c-3.9,3.8-7.9,7.6-12.5,10.5C195.9,430.2,191.1,432.2,185.7,434.8z"/>
	<path class="st0" d="M307.6,498.1c-10.3-22.1-17.5-45.8-21-70c-3.2-21.7-3.6-44.1-11.2-64.8"/>
	<path class="st0" d="M310.7,511.4c-14.8-31.5-24.1-65.7-27.4-100.4c-1.5-16.2-1.8-32.7-6.2-48.4"/>
	<path class="st0" d="M309,503.4c-4.7-7.7-6.4-16.8-9-25.4c-2.4-7.7-5.7-15.1-8.1-22.8c-6.2-20.5-5.4-42.4-6.7-63.8
		c-0.5-8.7-1.4-17.6-4.9-25.7"/>
	<path class="st0" d="M282.6,382.7c1.6,18.6,4.6,37.1,8.9,55.3"/>
	<path class="st0" d="M285.8,411.4c0.9,3.4,1.8,6.8,3.5,9.9c2.2,4.1,5.8,7.4,7.6,11.7c1.2,3,1.5,6.4,1.8,9.7c0,0-0.5-4.5-3-6.7
		c-1,1.7-1.1,3.9-0.7,5.8c0.4,2,1.3,3.8,2.1,5.6c0.4,0.9,0.9,1.8,1.7,2.4c0.4,0.3,0.9,0.5,1.3,0.8c1.4,1,1.7,3,2.7,4.4"/>
	<path class="st0" d="M299.9,453.6c5,6.5,10,13,16.3,18.2c3.2,2.7,6.8,5,10.5,6.9"/>
	<path class="st0" d="M300.9,447.6c2.6,8.6,8.4,15.9,14.5,22.6"/>
	<path class="st0" d="M307.7,456c2.8,2.9,4.4,6.6,6.6,10c5.4,8.2,14,13.6,22.4,18.7"/>
	<path class="st0" d="M296.6,474.1c-5,17.6-10.1,36.1-6.1,54c2.7,12.2,9.6,23.2,11.5,35.5"/>
	<path class="st0" d="M296.1,481.8c-5.2,13.6-6.1,28.7-4.4,43.2c1.8,14.5,6.1,28.6,11.2,42.3"/>
	<path class="st0" d="M300.3,488.9c2.8,6.5,5.8,12.8,9.5,18.8c1.2,2,2.5,3.9,3,6.2c0.6,2.2,0.3,4.8-1.4,6.5"/>
	<path class="st0" d="M306.5,502.1c4.8,6.1,6.7,14.3,5.1,21.9"/>
	<path class="st0" d="M331.9,479.8c1.2,1.7,2.6,3.2,4.3,4.5c1.5-0.2,2.9-0.9,4-1.9c1.1-1,2.4-2.5,3.8-2l2.2,1.4"/>
	<path class="st0" d="M339.2,490.1c5.3-0.2,9.1-5.1,11.3-10c3.2-6.8,4.9-14.2,7.5-21.2c2.6-7,6.5-13.9,12.3-18.1
		c2.1-1.6,4.7-2.5,7.4-2.4c0.6,3,0,6.3-1.5,9c-0.1,0.1-0.2,0.3-0.3,0.2s0-0.3,0.1-0.2"/>
	<path class="st0" d="M373.7,447.5c0.8-1.3,1.6-2.6,2.4-4c-1.9-0.7-4.1,0.2-5.4,1.8s-1.9,3.5-2.4,5.5c-0.2,0.9-0.4,1.8-1.2,2.3
		s-2-0.2-1.7-1c-3.3,4.5-6.1,9.4-8.2,14.6"/>
	<path class="st0" d="M372.2,442.5c-6,3.3-8.4,10.5-10.7,16.9c-3.4,9.5-7.8,18.6-13,27.3"/>
	<path class="st0" d="M395,442.2c0.5-0.8,1.1-1.5,1.6-2.3c0.9,0.5,0.9,1.8,0.9,2.9c-0.2,5.1,1.6,10.1,3.5,14.9"/>
	<path class="st0" d="M400.8,446.4c1.3,6.5,3.3,12.8,5.8,18.9c2.8,6.7,6.4,13.4,12,18"/>
	<path class="st0" d="M422.4,483c0.5,1.9,1,3.9,2,5.7s2.5,3.3,4.4,3.9c2.2,0.7,4.5,0,6.6-0.6"/>
	<path class="st0" d="M402.5,445c4.6,10.5,8.5,21.3,11.9,32.3"/>
	<path class="st0" d="M404.2,454.5c2,11.2,7.1,21.5,12.2,31.7c1.6,3.1,3.8,6.7,7.2,6.9"/>
	<path class="st0" d="M403.2,459.4c3.4,8.8,6.8,17.8,12.6,25.3c3.2,4.2,7.5,8,12.8,8.6"/>
	<path class="st0" d="M485.1,361.5c-2.5,13.8-7.2,27.3-13.6,39.7"/>
	<path class="st0" d="M466,411.1c-2.6,3.6-5.2,7.2-7.7,10.8C457.7,422.8,457,423.7,466,411.1z"/>
	<path class="st0" d="M459.8,417c8.8-13.5,16.1-28.1,21.6-43.3"/>
	<path class="st0" d="M459.4,421.7c11.4-17.8,23-36.4,23-55.1C476.4,383.6,468.6,400,459.4,421.7z"/>
	<path class="st0" d="M321.6,420.8c-1.2-0.3-2.4-0.6-3.6-1c18.8,2,37.8,1.2,56.3-2.2"/>
	<path class="st0" d="M328.1,422.9c16.5-1.4,33.1-3.4,49.5-6"/>
	<path class="st0" d="M333.1,425.4c17-1,34-3.9,50.4-8.6"/>
	<path class="st0" d="M398.9,416.9c19.9,6.2,41.2,5.7,61.9,3.4"/>
	<path class="st0" d="M397.1,417.6c6.1,2,12.4,4.1,18.8,4.8c5.4,0.6,10.8,0.4,16.2,0.1c5-0.3,10-0.6,15-1"/>
	<path class="st0" d="M398.2,419.8c17.4,3.3,35.2,6,52.6,3"/>
	<path class="st0" d="M312.7,427c47.1,10.4,96.1,6.2,144.1,2.1"/>
	<path class="st0" d="M320.9,430.1c41.3,6.7,83.5,5.6,125,0.6"/>
	<path class="st0" d="M389.6,428.7c-2.4,48.4-4.1,96.8-5,145.2"/>
	<path class="st0" d="M386,458.3c-0.6,35.5-1.3,71.1-2,106.6"/>
	<path class="st0" d="M386.7,487.8c-0.9,29.6-1.8,59.3-2.6,88.9"/>
	<path class="st0" d="M384.1,432.4c1.2-1.4,2.6-2.5,4.2-3.5c-0.3,5.2-1,10.3-2,15.4c-0.7,3.7-1.7,7.6-0.6,11.2"/>
	<path class="st0" d="M391.8,448.4c-0.6,3.1-1.3,6.3-2,9.4"/>
	<path class="st0" d="M357.6,493.9c17.2,1.4,34.6,1.3,51.8-0.5"/>
	<path class="st0" d="M360.5,491.7c2.6,1.2,5.5,1.6,8.3,1.9c11.1,1.1,22.4,0.8,33.5-0.7"/>
	<path class="st0" d="M372.5,492.3c10.6,1.1,21.4,0.6,31.9-1.4"/>
	<path class="st0" d="M324.2,524c9.7,5.2,20.8,7.1,31.8,8.6c8.2,1.2,16.4,2.2,24.6,2.6c12.1,0.6,24.3-0.1,36.5-0.8"/>
	<path class="st0" d="M366.1,532.4c15,3.3,30.7,3.8,45.8,1.3"/>
	<path class="st0" d="M365,532.3c5.8,1.2,11.7,1.7,17.6,1.6c6.7-0.1,13.5-1.1,20.2-0.6"/>
	<path class="st0" d="M370.7,531.3c10.9,0.4,21.7,0.4,32.6,0.1"/>
	<path class="st0" d="M425.2,502.6c-3.2,4.5-3,10.4-3.2,15.9c-0.3,7-1.6,13.8-2,20.8c-0.3,5,0,10.1-0.6,15c-0.8,6.5-3,12.7-5.2,18.8
		"/>
	<path class="st0" d="M421.8,508c-1.6,22.4-4.5,44.6-8.5,66.7"/>
	<path class="st0" d="M420.2,526.1c-0.8,18-3,35.9-6.5,53.6"/>
	<path class="st0" d="M420.7,535.5c-0.5,14.3-2.7,28.6-6.5,42.4"/>
	<path class="st0" d="M339.7,508c-0.5,10.6,0.5,21.2,1.6,31.8c1.5,15,3,30.3,8.7,44.3"/>
	<path class="st0" d="M337.8,512.1c1.9,24.7,3.9,49.8,13.3,72.6"/>
	<path class="st0" d="M379.2,558.8c-0.7,0-1.4-0.1-2.1-0.1c2.3-0.7,4.7-1.2,7.1-1.4c2-0.2,4.4-0.1,5.8,1.5c0.2,0.2,0.3,0.4,0.3,0.6
		c0,0.2-0.1,0.3-0.2,0.4c-0.4,0.5-1.1,0.8-1.7,0.9c-1.6,0.4-3.3,0.5-6,0.1c2.6,0.2,5.3,0.4,7.7-0.7c0.2-0.1,0.4-0.2,0.4-0.3
		c0-0.1,0-0.3-0.1-0.4c-0.5-0.9-1.6-1.2-2.6-1.3c-1.4-0.1-2.7-0.1-4.1,0c-0.2,0-0.5,0.1-0.7,0.3c-0.1,0.2-0.2,0.3-0.3,0.5
		c-0.3,0.4-0.8,0.4-1.3,0.4C379.6,559.2,377.8,558.9,379.2,558.8z"/>
	<path class="st0" d="M473.7,427.8c-6.5,10.5-14.3,20.2-22,29.9c-4,5-8.1,10.1-12.1,15.1"/>
	<path class="st0" d="M471,435.8c-12.5,11.7-20.7,27.4-32.2,40.2"/>
	<path class="st0" d="M464.8,444.4c-9,10.5-17.6,21.4-25.5,32.8"/>
	<path class="st0" d="M457.3,457.1c-4.2,3.6-7.5,8.1-11.9,12.9c0,9.4,0,18.9,0,28.3"/>
	<path class="st0" d="M449.5,467.4c-0.1,9.7-0.2,19.5-0.3,29.2"/>
	<path class="st0" d="M451.1,458.4c0.5,9.4,1,18.7,1.5,28.1"/>
	<path class="st0" d="M455.7,453.8c-0.4,8.2-0.2,16.4,0.5,24.5"/>
	<path class="st0" d="M460.5,450.8c-0.2,6.8,0,13.6,0.6,20.4"/>
	<path class="st0" d="M463.4,445.5c0.3,5,0.5,9.9,0.8,14.9"/>
	<path class="st0" d="M465.7,442.2c0.3,4.6,0.6,9.3,0.9,13.9"/>
	<path class="st0" d="M469,436.3c0.2,3.6,0.5,7.1,0.7,10.7"/>
	<path class="st0" d="M294.5,436.6c-0.6,12.3,0,24.6,1.6,36.8"/>
	<path class="st0" d="M297.8,465c-0.2-4-0.1-8,3.4-11.1c0.2,10.9,0.9,21.8,2,32.6"/>
	<path class="st0" d="M305.7,460.2c0,6.9,0.4,13.8,1.1,20.6"/>
	<path class="st0" d="M308.7,464.6c0.7,7.3,1.7,14.5,3,21.8"/>
	<path class="st0" d="M312.7,469.2c-0.3,5.4,0.2,10.9,1.4,16.2"/>
	<path class="st0" d="M316.9,474c0.6,4.3,1.2,8.6,1.8,12.8"/>
	<path class="st0" d="M321.2,475.5c-0.3,4.5,0,9,0.8,13.4"/>
	<path class="st0" d="M323.9,476c0,4.2,0.2,8.5,0.8,12.6"/>
	<path class="st0" d="M328.9,480c0.2,1.6,0.5,3.1,0.8,4.7"/>
	<path class="st0" d="M497.3,356.8c-7.9,8.9-8.4,21.8-9.3,33.6c-3.4,42.3-17.7,83.7-41.2,119.1"/>
	<path class="st0" d="M493.7,356.2c-4.2,9.5-5,20-6,30.4c-2.4,25.9-5.8,51.9-14.7,76.3c-6.9,19-17,36.6-27,54.1"/>
	<path class="st0" d="M493.8,359.7c-4.4,8.7-6.4,18.5-7.8,28.2c-3.2,21.9-3.8,44.3-10,65.6c-6.4,21.8-18.5,41.3-30.4,60.6"/>
	<path class="st0" d="M488.2,394.3c1.5,18.3-5.5,36.1-10.6,53.7c-1,3.4-1.9,6.8-3,10.1c-5.7,17.4-16.6,32.6-27.4,47.4"/>
	<path class="st0" d="M296.7,334.2c5.7-6,11.9-11.6,18.6-16.6c2.4-1.8,5.3-3.6,8.2-2.9c-9.5,13.9-23.8,24.6-30.3,40.1
		c1.8,1.2,4.1-0.2,5.7-1.5c7.9-6.5,16-12.5,24.4-18.2c2-1.4,4.6-2.8,6.8-1.7c-12.2,14-23.3,29.1-33,45c3.4,0.5,6.9-0.5,9.5-2.8"/>
	<path class="st0" d="M310,396.5c4.7-5.2,9.7-10.1,14.9-14.8c1-0.9,2.5-1.7,3.4-0.7c-6.5,8.3-12.3,17.1-17.3,26.4
		c4,1.1,7.4-3.2,11.5-4.3c0.5-0.1,1-0.2,1.5-0.1c1.3,0.4,1.6,2.1,1.3,3.4s-0.9,2.7-0.5,4c0.5,1.8,2.7,2.6,4.5,2.4s3.5-1.1,5.3-1.7
		c2.8-0.9,5.9-0.8,8.7,0.2"/>
	<path class="st0" d="M411.4,413.1c-2-0.5-3.9-1-5.9-1.4c4.6-0.5,9.2-3.8,13.4-2c3.2,1.4,5,5.6,8.5,6.2c1.5,0.2,2.9-0.2,4.3-0.7
		c6.7-2.2,13.4-4.4,20.1-6.5"/>
	<path class="st0" d="M265.9,367.3c-11,7.3-21.2,15.8-30.4,25.3c-7.6,7.8-14.5,16.3-22.5,23.8s-17.2,14-27.7,16.9"/>
	<path class="st0" d="M279.2,362c-7.4,1.5-14.4,4.6-20.6,9"/>
	<path class="st0" d="M219.6,362c-14.2,14.6-28.7,29-43.4,43.1"/>
	<path class="st0" d="M193,391.5c-4.5,3.6-8.7,7.5-12.7,11.5"/>
	<path class="st0" d="M217.8,359.9c-9.8,12.5-20.6,24.1-32.3,34.8"/>
	<path class="st0" d="M213.9,369.3c-5.6,7.7-13.1,13.7-20.5,19.7"/>
	<path class="st0" d="M165.1,398.3c14.8-34.9,39.1-65.6,69.5-86c-27.9,18.7-50.8,44.7-66,74.6"/>
	<path class="st0" d="M228.5,319.3c-17.8,12.4-33,28.3-44.6,46.6"/>
	<path class="st0" d="M237.2,306.9c-20.5,15.2-38.4,33.9-52.5,55.2"/>
	<path class="st0" d="M173.5,376.4c-5.5,8.7-10.7,17.5-15.8,26.4"/>
	<path class="st0" d="M153.6,406.4c-7.5,10.7-14.4,22-20.4,33.6"/>
	<path class="st0" d="M146.7,416.2c-17.3,24.8-29.8,53-36.6,82.4"/>
	<path class="st0" d="M125.8,457.7c-5.9,14.5-11.1,29.2-15.7,44.1"/>
	<path class="st0" d="M111.5,497.1c-3.3,17.4-6.8,34.8-10.5,52.2"/>
	<path class="st0" d="M108.7,512.2c-5.1,20.9-10.6,41.7-16.5,62.4"/>
	<path class="st0" d="M189.6,431.5c-6.9,17.5-12.1,35.7-19.4,53s-16.9,34.2-31,46.7"/>
	<path class="st0" d="M185.8,446.6c-5.2,29.1-18.6,56.7-38.2,78.8"/>
	<path class="st0" d="M180.1,462c-9.5,24.3-21.1,48.5-39.3,67.2"/>
	<path class="st0" d="M189.3,435.6c-4.3,12.8-9,25.4-14.3,37.9"/>
	<path class="st0" d="M178.7,470.2c-4.4,11-10,21.5-16.7,31.3"/>
	<path class="st0" d="M168.5,402.5c5.3,25.3,0.8,52.5-12.4,74.8"/>
	<path class="st0" d="M171,405.8c1.8,14.2,2.6,29-1.9,42.6c-3.1,9.5-8.6,18-12.8,27.1"/>
	<path class="st0" d="M166.6,404.1c5.6,10.6,6.5,23.2,4.2,35c-2.3,11.7-7.7,22.7-14.3,32.7"/>
	<path class="st0" d="M150.9,519.7c-5.7,8.5-11.4,17.1-14.9,26.7c-3.4,9.4-4.5,19.5-8.7,28.6"/>
	<path class="st0" d="M145.1,524.8c-7.5,16.4-12.7,33.8-15.5,51.6"/>
	<path class="st0" d="M142.6,526.9c-6.8,16.3-8.5,34.2-10.2,51.9"/>
	<path class="st0" d="M144.2,493.8c-13.4,23.1-23.2,48.3-29,74.4"/>
	<path class="st0" d="M139.9,506.6c-4.9,9.7-9.7,19.5-14.6,29.3c-2.5,5-5,10-6.2,15.4"/>
	<path class="st0" d="M110,499.4c-1.8,9.3-3.6,18.5-6,27.7c-2.9,11.2-6.5,22.2-9,33.4"/>
	<path class="st0" d="M100.8,544.8c-1.3,10-3.6,19.9-6.8,28c-4.8,14.8-7.8,30.3-8.7,45.9"/>
	<path class="st0" d="M91.5,575.7c0.3-0.9,0.6-1.7,0.8-2.6c-0.2,6.2-3.3,12-4.9,18c-2.4,8.7-1.8,18-4.2,26.7"/>
	<path class="st0" d="M130.4,575.7c4.4,10.1,10.3,19.5,17.4,27.8"/>
	<path class="st0" d="M131.7,574.8c4.1,9.6,9.4,18.7,15.5,27.4c1,1.2,2.1,2.5,2.4,4c0.3,1.4-0.1,2.8-0.4,4.2
		c-1.8,6.8-4.4,13.3-7.7,19.5"/>
	<path class="st0" d="M148.7,604.3c0.9,3.9-0.4,8-1.9,11.8c-1.7,4.2-3.7,8.4-5.7,12.5"/>
	<path class="st0" d="M138.6,619c-1.7,7.3,2.8,15.2,0.2,22.3"/>
	<path class="st0" d="M115.9,631.9c0.4,1.8,0.9,3.7,1.6,5.4c0.6,1.7,1.2,3.3,2.3,4.7c2.8,3.4,7.8,4.3,12,3.2
		c2.6-0.7,5.2-2.2,6.6-4.5"/>
	<path class="st0" d="M136.2,620.5c1,5.1,1.9,10.2,2.8,15.3c0.3,2,0.6,4.4-0.9,5.8"/>
	<path class="st0" d="M114.5,629.8c0.2,2.7,1.2,5.3,2.4,7.8c1.6,3.2,3.8,6.5,7.2,7.6c3.7,1.2,7.8-0.4,11.3-2"/>
	<path class="st0" d="M116.9,630c0,4.7,2,9.2,4.6,13.1c0.3,0.4,0.6,0.9,1.1,1.2c1,0.7,2.4,0.3,3.5,0.7"/>
	<path class="st0" d="M84.7,620.3c15.9-0.3,32,1.9,47.8-0.6"/>
	<path class="st0" d="M88.7,621.8c14.8,1,29.7,0.7,44.5-1.2"/>
	<path class="st0" d="M99.8,628.3c0.1,1.2,0.6,2.4,1.2,3.5c1.6,3.3,3.4,6.5,5.7,9.4c0.8,1,1.6,1.9,2.6,2.6c2.4,1.7,5.7,1.8,8.7,1.8
		c1.7,0,3.5,0,4.9-1"/>
	<path class="st0" d="M98.2,628.9c1.2,2.8,2.9,5.5,4.6,8.1c1,1.6,2,3.2,3.3,4.6s2.8,2.6,4.6,3.2"/>
	<path class="st0" d="M88.9,625.3c1.6,4,3.3,8,6.1,11.2s7,5.6,11.2,5"/>
	<path class="st0" d="M90.5,626.4c0.9,4.7,3.3,9,6.6,12.3"/>
	<path class="st0" d="M133.9,625.8c-0.5,0-1,0-1.5,0c-0.1,0-0.1,0-0.1,0C132.2,625.9,132.2,626,133.9,625.8z"/>
	<path class="st0" d="M83.8,623.3c0.9,2.8,1.8,5.7,3.3,8.2s3.8,4.7,6.7,5.6"/>
	<path class="st0" d="M85.8,626.3c1,3.8,3.1,7.2,5.9,9.9"/>
	<path class="st0" d="M88.2,614.5c0.7-1.9,1.5-4,3.3-4.9c0.3-0.2,0.7-0.3,1.1-0.1c0.4,0.2,0.4,0.7,0.5,1.1c0.1,0.6,0.2,1.1,0.2,1.7
		c0.1,0.4,0.1,0.9,0.4,1.2c0.5,0.7,1.6,0.5,2.4,0.3"/>
	<path class="st0" d="M100.3,613c1-1.5,2.3-2.8,3.8-3.8c0.8,1,0.1,2.8,1.1,3.7c0.4,0.4,1,0.5,1.6,0.4c1.6-0.2,2.9-1.4,4.5-1.4"/>
	<path class="st0" d="M120.9,611.6c0.7-0.7,1.3-1.3,2-2c0.3-0.3,0.8-0.7,1.2-0.5c0.2,0.1,0.3,0.2,0.4,0.4c0.6,0.8,1,1.7,1.8,2.4
		s1.8,1.2,2.7,0.9c0.9-0.2,1.7-1,2.5-0.7c0.4,0.2,0.6,0.5,0.9,0.7c1.2,0.8,2.7-0.1,4.1,0"/>
	<path class="st0" d="M112.9,614.7c1-2,1.1-4.6,3.1-5.7c0.8-0.4,1.8-0.5,2.7-0.5c2.3,0,4.6,0.2,6.6,1.3c1.2,0.6,2.3,1.6,3.4,2.2
		c1.2,0.7,2.6,1.1,3.9,0.6"/>
	<path class="st0" d="M115.2,612.3c2.4-1.7,5.6-2,8.6-1.7s5.8,1.2,8.8,1.7"/>
	<path class="st0" d="M97.4,614.5c1.2-1.4,2.5-2.9,4.2-3.8c1.7-0.9,3.8-1.1,5.4,0"/>
	<path class="st0" d="M102.3,601.5c1-15.4,4.4-30.5,10.1-44.9"/>
	<path class="st0" d="M119,559c-1.3,14.2-0.2,28.6,3.4,42.4"/>
	<path class="st0" d="M123.9,578.7c-0.3,2.7,1.2,5.1,2.6,7.4c4.5,7.3,8.3,14.9,11.5,22.9"/>
	<path class="st0" d="M460.5,487.6c6.2,12.8,7.1,27.7,5,41.7s-7,27.5-12,40.9"/>
	<path class="st0" d="M454.4,567.5c3.8-12.4,7.7-24.9,9.2-37.8s0.5-26.3-2.9-37.2c4.5,9.7,4.2,21,2.5,31.6
		C461.4,534.7,458.3,545.1,454.4,567.5z"/>
	<path class="st0" d="M296.9,475.3c-3.1,11.4-6.2,23-6.9,34.8c-0.2,3.8-0.2,7.7,0.5,11.5c0.9,4.8,2.8,9.2,4.4,13.8
		c3.9,10.8,6.4,22.1,8.9,33.4"/>
	<path class="st0" d="M293.4,535.6c-2.3,9.2-5.2,18.3-8.8,27.1"/>
	<path class="st0" d="M293.4,541.8c-2.1,5.2-4.2,10.4-6.3,15.5"/>
	<path class="st0" d="M460.6,539.5c-0.8,3.7-0.8,7.5-0.1,11.2c0.3,1.5,0.7,3,1.4,4.3c1,2,2.5,3.6,3.6,5.5c1.3,2.4,1.7,5.3,1.1,8"/>
	<path class="st0" d="M460.8,534.2c-0.3,4.7-0.5,9.5,1,13.9c0.8,2.3,2.1,4.3,3.1,6.5c2,4.2,3.3,8.8,3.6,13.5"/>
	<path class="st0" d="M462.6,554.3c2.2,3.8,3.8,8,4.6,12.4"/>
	<path class="st0" d="M290.9,532.5c-0.4,9.4-2.6,18.7-6.4,27.3"/>
	<path class="st0" d="M292.2,539.5c-1.9,7-4.3,13.9-7.2,20.6"/>
	<path class="st0" d="M346.9,434.4c5.3-3.7,10.8-7.2,16.4-10.5c1.1-0.6,2.5-1.3,3.5-0.5c-3.8,3.7-7.7,7.5-11.5,11.2
		c8.8-2.2,15.6-9.8,24.5-11.4c-3.6,2.7-6.7,6-9.1,9.8c2.5,1.2,5.3-0.6,7.6-2.2c5.6-3.8,11.7-6.9,18.1-9c-3.1,3.7-6.2,7.4-9.3,11.1
		c0.6,1.2,2.5,1,3.8,0.6c5.4-1.6,10.9-3.3,16.3-4.9"/>
	<path class="st0" d="M462.5,273.1c21.1-1.7,42.8,4.4,59.9,16.9s29.5,31.3,34.2,52"/>
	<path class="st0" d="M448.9,274.4c7.9-2.9,16.5-3.5,24.9-2.9c19.9,1.5,39.2,9.7,54,23c14.8,13.3,25.1,31.6,28.7,51.2"/>
	<path class="st0" d="M513.2,285.6c6.9,2.9,12.2,8.7,16.9,14.5c11.9,14.9,21.4,31.6,28.2,49.4"/>
	<path class="st0" d="M542.5,313.4c4.1,8.8,7.1,18.1,9.1,27.6"/>
	<path class="st0" d="M497.4,350.1c6.3-0.4,12,3.2,17.8,6c5.2,2.5,10.6,4.3,16.2,5.4c9.5,1.8,20.2,1.3,27.5-5"/>
	<path class="st0" d="M498,355.8c2.7-1.4,5.5-2.4,8.4-3.1c0.5-0.1,1.1-0.3,1.6-0.1c0.7,0.2,1.1,0.9,1.5,1.5
		c3.4,4.7,9.4,7.3,15.1,6.5"/>
	<path class="st0" d="M522.2,363.8c8.2-1.6,16.7-0.7,25-1.3c3.4-0.2,7-0.8,9.6-3.1"/>
	<path class="st0" d="M513.6,357.1c10.9,2.5,22,5.1,33.2,3.8c4.6-0.5,9.3-1.7,13.7-0.2"/>
	<path class="st0" d="M499.9,348.9c9.4,3.1,17.3,9.9,26.7,12.9c12.3,4,25.8,1.3,38.3-2.1"/>
	<path class="st0" d="M499.5,360.6c9.4,10,18.9,20,28.5,29.8c14.1,14.5,29,29.3,48.1,35.9"/>
	<path class="st0" d="M501.4,364.6c18.8,21.1,39.9,40.1,62.9,56.5"/>
	<path class="st0" d="M506,363.1c11.6,16.8,25.5,31.9,41.4,44.7"/>
	<path class="st0" d="M531.9,397.2c13.4,12.8,27.8,24.4,43.2,34.6"/>
	<path class="st0" d="M495.8,360.4c7.6,8.5,15.6,16.6,24.1,24.2"/>
	<path class="st0" d="M487.7,359.9c-0.5-2.8,2.7-5.5,5.4-4.6c1,0.3,1.8,1,2.6,1.7c7.3,6.5,12.6,15.4,20.8,20.7"/>
	<path class="st0" d="M557.8,362.9c12.4,21.5,28.4,40.9,47.2,57.1"/>
	<path class="st0" d="M562.5,366.6c7.1,14.2,16.9,27.1,28.8,37.7"/>
	<path class="st0" d="M553.1,332c11.9,10.3,25.2,19,35.9,30.5c11.4,12.2,19.5,27.3,24.8,43.2"/>
	<path class="st0" d="M550.9,327.5c13.8,11.4,27.2,23.5,38.7,37.2c11.5,13.8,21.1,29.3,26.6,46.3"/>
	<path class="st0" d="M545.9,310.5c9.9,7.5,19.8,15,28.4,23.9c15.8,16.2,26.9,36.6,34,58.1"/>
	<path class="st0" d="M280.7,316.4c0.3,10.2,1.2,20.3,2.8,30.4"/>
	<path class="st0" d="M534.4,302.4c7.4,9.4,13.4,19.8,17.7,31"/>
	<path class="st0" d="M627.5,428.6c-1.5-5.2-0.9-10.8-2.3-16c-0.3-1-0.6-2-1.3-2.8c-0.6-0.7-1.3-1.1-2.1-1.6
		c-2.9-1.7-5.8-3.4-8.5-6.5c3.5,1.9,6.8,4.1,9.9,6.5c1,0.8,2,1.6,2.7,2.7c0.8,1.3,1.1,2.9,1.3,4.4
		C627.9,419.9,628.5,424.4,627.5,428.6z"/>
	<path class="st0" d="M613,470.8c-6.7-9.4-9.5-21.4-7.7-32.7c0.6-3.5,1.6-7.1,3.6-10.1c2-3,5.1-5.4,9.3-7.9
		c-5.1-0.5-9.9,3.2-12.1,7.9s-2.3,9.9-2,15C605.1,455.7,608.8,468.5,613,470.8z"/>
	<path class="st0" d="M574.7,426.4c0.9,11,4.7,21.5,9,31.7c6.7,16.1,14.7,31.6,23.8,46.5c4.7,7.7,9.7,15.2,13.7,23.3
		c7.9,16.3,11.2,34.8,9.4,52.9"/>
	<path class="st0" d="M577.1,429.9c0.3,4,1.6,7.9,2.9,11.6c7.6,21.5,17.3,42.3,29.1,61.8c5.3,8.9,11.1,17.7,14.8,27.4
		c5.2,13.6,6,28.4,6.3,42.9"/>
	<path class="st0" d="M535.1,399.5c6.8,6.5,14.1,12.5,21.8,18c5.8,4.1,11.8,7.9,17.9,11.4"/>
	<path class="st0" d="M576.3,435.2c6.3,23.5,16.8,45.9,30.6,66c2.6,3.7,5.2,7.3,7.6,11.2c12.3,20,15.1,44.4,15.1,67.9"/>
	<path class="st0" d="M625.3,498c5.3,5.5,8.4,12.7,11.3,19.7c7.3,17.7,14.7,35.4,19.6,53.9"/>
	<path class="st0" d="M638,527c6,12.3,10.8,25.1,14.5,38.2"/>
	<path class="st0" d="M627.3,422.3c9.5,9.1,13.3,22.4,16.4,35.2c5.1,21.3,9,43,12.8,64.6c2.6,14.5,5.2,29,10.7,42.7"/>
	<path class="st0" d="M629.4,425.6c22.5,45.9,19,100.6,37.7,148.2"/>
	<path class="st0" d="M647.6,477.6c4.2,27.7,10,55.2,17.5,82.2"/>
	<path class="st0" d="M656.2,527.6c2.4,13.8,6.4,27.3,12,40.2"/>
	<path class="st0" d="M653,574.6c5.7,0.6,11.5,0.3,17-0.9"/>
	<path class="st0" d="M644.8,576.1c8.3,0.9,16.9,1.8,25-0.2"/>
	<path class="st0" d="M681,603.8c-0.2-5.3-2.4-10.2-4.5-15.1c-3.2-7.2-6.3-14.5-11.2-21C668.6,579.9,677.8,590,681,603.8z"/>
	<path class="st0" d="M660.5,551.4c2.9,12.4,7.5,24.4,13.6,35.5c2.7,4.8,5.7,9.6,7,15"/>
	<path class="st0" d="M670.7,578.6c2.8,6.1,5.5,12.2,8.3,18.2"/>
	<path class="st0" d="M680.6,603.8c0.3,8.1-0.4,16.3-2.1,24.2"/>
	<path class="st0" d="M679.4,605.9c-0.3,7.3-1,14.5-2.1,21.7"/>
	<path class="st0" d="M634.7,610.1c4.9,4.3,9.7,8.8,14.3,11.9c10,5.6,22.3,6.9,33.2,3.4"/>
	<path class="st0" d="M647.2,623.4c3.7,0.3,7.3,1.6,10.9,2.6c6.3,1.7,12.8,2.2,19.2,1.5"/>
	<path class="st0" d="M635.7,611.5c2.1,3.3,5.1,6,8.3,8.1c3.2,2.2,6.7,3.9,10.3,5.6"/>
	<path class="st0" d="M630.5,577c-7,11.1-13.8,22.4-20.5,33.7"/>
	<path class="st0" d="M629.6,574.2c-5.6,12.6-12.4,24.7-21.3,35.6c3.3,7.7,6.8,15.7,13.3,20.9"/>
	<path class="st0" d="M608.8,607.8c2.1,9.1,6.3,17.6,12.1,24.9"/>
	<path class="st0" d="M624.7,611c1.6,5.7,1.2,12-1.2,17.5c-0.3,0.6-0.5,1.2-1,1.7c-0.6,0.6-1.4,0.9-2.2,1"/>
	<path class="st0" d="M626,615.8c1.2,2.8,0.9,6-0.1,8.8c-1,2.8-2.7,5.4-4.8,7.3c0,2.8,1.2,5.7,3.3,7.6c2.1,1.9,5,2.9,7.8,2.7
		c1.6-0.1,3.2-0.7,4.7-1.3c3.6-1.5,7-3.7,9.5-6.8"/>
	<path class="st0" d="M630.5,642.2c6.4-1.4,12.3-5.2,16-10.6"/>
	<path class="st0" d="M635.3,641.3c1.6,1.6,3.7,2.7,6,3.1c3.7,0.7,7.5-0.5,10.7-2.5s5.6-5,7.8-8"/>
	<path class="st0" d="M650.2,643.3c4.1-3.3,7.6-7.3,10.4-11.7"/>
	<path class="st0" d="M634.9,641.8c4.6-2.9,9-6.1,13.1-9.5"/>
	<path class="st0" d="M649.6,644.1c7.9-0.1,15.7-4.5,19.8-11.4"/>
	<path class="st0" d="M653.4,644.5c6.9-1.3,13.3-5.3,17.4-11"/>
	<path class="st0" d="M665,640.7c4.9-3.1,9.9-6.7,12.5-11.9"/>
	<path class="st0" d="M678.6,626.8c-1.6,4.6-4.5,8.8-8.2,12"/>
	<path class="st0" d="M469,569.9c-21.5,6.6-43.2,13.2-65.6,15.2c-39.4,3.6-78.8-7.1-115.7-21.5"/>
	<path class="st0" d="M427.3,580c-10.8,1.5-21.7,3.1-32.6,3.7c-32.6,1.9-65.4-4.6-95.4-17.5"/>
	<path class="st0" d="M458.1,575.2c-54.2,16-114.1,11.9-165.6-11.5"/>
	<path class="st0" d="M332.9,580.9c-15.7-5.1-31.4-10.2-47.1-15.4"/>
	<path class="st0" d="M347.7,582.5c-23.3-4.5-46-12.2-67.3-22.6"/>
	<path class="st0" d="M453.9,580.2c-26.6,8.7-54.2,14.4-82.1,16.7"/>
	<path class="st0" d="M452.7,585c-15,2.2-30,4.5-45,6.7"/>
	<path class="st0" d="M424.3,590.8c-16.5,2.9-33.3,4.6-50.1,4.9"/>
	<path class="st0" d="M361.9,593.6c-21.5-1.9-42.8-6.8-63.1-14.2"/>
	<path class="st0" d="M359.1,596.4c-16.9-4.3-33.8-8.6-50.7-12.9"/>
	<path class="st0" d="M282.4,559.9c-2.6,1.6-4,4.6-5,7.5c-2.6,7.5-3.8,15.8-1,23.2"/>
	<path class="st0" d="M279.8,559.7c-3.2,3.6-4.8,8.5-5.4,13.3s-0.1,9.7,0.3,14.5"/>
	<path class="st0" d="M275.1,586.1c-11.8,30-20,61.3-24.4,93.2"/>
	<path class="st0" d="M276,583.1c-4.5,7.7-7.4,16.2-10.1,24.8c-8,25.7-14.1,51.9-18.2,78.5"/>
	<path class="st0" d="M271.5,594.4c-10.1,27.4-18,55.5-23.5,84.2"/>
	<path class="st0" d="M267.5,598.6c-7.5,25.5-13.8,51.2-19,77.3"/>
	<path class="st0" d="M468.5,570c1.5-0.2,3.1-0.4,4.2,0.6c0.8,0.7,1.1,1.7,1.3,2.7c1.8,7.8,2.1,16,0.8,23.9"/>
	<path class="st0" d="M468,572c1.5-1.9,4.7-1.5,6.4,0.3s2.1,4.3,2.4,6.7c0.9,7.8,0.5,15.8-1,23.6"/>
	<path class="st0" d="M475.1,575.9c2.5,8.6,1.1,17.8-0.2,26.7"/>
	<path class="st0" d="M477.4,593.8c7.2,13.9,10.2,29.6,11.9,45.2s2.4,31.3,5.3,46.7"/>
	<path class="st0" d="M478,596.8c9.1,28.4,15.3,57.7,18.6,87.4"/>
	<path class="st0" d="M475.8,589.5c9.1,19.3,12.2,40.8,15.2,61.8c1.8,12.7,3.6,25.4,5.4,38"/>
	<path class="st0" d="M379.7,589.4c-0.8,8.1-0.9,16.3-0.3,24.5"/>
	<path class="st0" d="M379.4,619.1c-0.4,6.4-0.5,12.9-0.2,19.3"/>
	<path class="st0" d="M380.7,591.4c-0.4,7.2-0.6,14.4-0.6,21.7"/>
	<path class="st0" d="M380.3,608.7c-0.2,11.3-0.1,22.6,0.4,33.9"/>
	<path class="st0" d="M441.5,599.4c-2.8,0.8-5.6,1.6-8.4,2.4c2.2,4.7,0,10.1-2.3,14.8c-8,16.4-17,32.3-26.8,47.7"/>
	<path class="st0" d="M433.2,608.2c-6.3,15.3-12.6,30.6-21.2,44.7c-0.1,0.2-0.3,0.5-0.6,0.5c-0.3,0-0.3-0.5-0.1-0.5"/>
	<path class="st0" d="M429.1,610.9c-3.5,16.1-14.8,29.5-19.3,45.4"/>
	<path class="st0" d="M441.3,596.5c-3.5,0.8-5.5,4.5-6.3,7.9s-0.9,7.1-2.5,10.3c-0.8,1.6-2,3-3.1,4.5c-9.3,11.9-16.3,25.6-20.6,40.1
		"/>
	<path class="st0" d="M423.5,630.3c-2.7,5.6-5.5,11.2-8.2,16.8"/>
	<path class="st0" d="M314.1,606.3c2.2,0.3,3.5,2.7,4.2,4.8c0.7,2.2,1.3,4.6,3.3,5.7c0.7,0.4,1.4,0.6,2,1.1c1.3,1.2,0.8,3.3,0.4,5.1
		c-0.4,1.8,0,4.2,1.8,4.4c0.4,0,0.7,0,1.1,0c1.9,0.1,2.9,2.2,3.5,4c3.5,10.4,8.3,20.5,14.1,29.8"/>
	<path class="st0" d="M315,614.2c9.3,10.4,18.9,21.1,23.7,34.2"/>
	<path class="st0" d="M323,626.5c6.1,7.2,10.9,15.5,14.3,24.4l2.5,5.5"/>
	<path class="st0" d="M323.9,620.9c0.7,4.2,1.5,8.4,2.2,12.5c1.2-0.9,2.7-1.8,4.1-1.2c0.7,0.3,1.2,1,1.5,1.7
		c0.9,2.1,0.5,4.7,1.4,6.8c0.9,2,3,3.3,4.4,5c3.3,4.1,3,10.8,7.5,13.4"/>
	<path class="st0" d="M294.9,580.3c1.9,1.8,4.4,3,7,3.2c1.2,0.1,2.4,0,3.5,0.3s2.3,1.2,2.4,2.4c0.1,0.7-0.2,1.5,0.2,2.1
		c0.3,0.4,0.8,0.6,1.2,0.7c1.5,0.4,2.9,0.8,4.9,0c6.4-0.6,12.8,1.2,19,3c6.3,1.8,12.5,3.7,18.8,5.5"/>
	<path class="st0" d="M387.2,598.6c13-0.5,25.9-3.3,38-8c3.5-1.4,7.1-2.9,10.8-2.7"/>
	<path class="st0" d="M472.1,573c3.5,4.4,3.3,10.6,2.6,16.2c-0.7,5.6-1.9,11.4-0.1,16.7"/>
	<path class="st0" d="M479,601.2c0.8,15.6,3.9,31.1,9.1,45.9c1.6,4.6,3.5,9.2,4.4,14.1c1.8,9.5-0.1,20,4.8,28.4"/>
	<path class="st0" d="M463.5,326.5c2.3-1.6,5.2-2.3,8-2.1c-1,2.3-2,4.7-2.9,7c-0.4,0.9-0.8,1.8-0.6,2.8c0.6,3.6,7.1,2.5,8.8,5.9
		c1.7,3.5-3.9,7.7-1.7,10.9c1.2,1.7,4,1.8,4.9,3.7c0.4,0.8,0.3,1.7,0.2,2.5c-0.8,8.6-2.8,17-5.9,25"/>
	<path class="st0" d="M464,341.5c4,0.6,6.9,4.9,6,8.8c-0.1,0.5-0.3,1.1-0.2,1.6c0.1,1.5,1.9,2.3,3.4,2.5s3.2,0.1,4.3,1.1
		c1.1,0.9,1.4,2.4,1.6,3.7c0.9,5.5,1.8,11,1,16.5c-1.2,8.4-6.4,16.2-5.6,24.7"/>
	<path class="st0" d="M460.6,407.2c-1-1.9-2-3.7-3-5.5c-0.7,0.8-0.1,2.2,0.9,2.5c1,0.3,2.1-0.1,3-0.6c3.2-1.8,5.8-4.8,7-8.2
		c0.5-1.5,0.7-3.5-0.7-4.4c-0.8-0.5-1.8-0.5-2.4-1.1c-0.7-0.8-0.4-2,0-3c1.1-2.7,2.2-5.5,3.2-8.2c-1.2,0.1-2-1.5-1.7-2.7
		c0.3-1.2,1.3-2.1,2.2-2.9c9.1-8.5,11.7-21.6,13.9-33.9"/>
	<path class="st0" d="M304.1,444.4c5.8,10.2,13.4,19.4,22.3,27.1c1,0.8,2,1.6,3.2,2.1c1.3,0.5,2.7,0.5,4.1,0.5c0.4,0,0.7,0,1-0.2
		c0.7-0.4,0.9-1.4,0.5-2.2c-0.3-0.8-1-1.3-1.6-1.8"/>
	<path class="st0" d="M457.4,441c-5.3,7.5-10.6,15.1-15.9,22.6c-4.1,5.9-8.6,12-15.4,14.5"/>
	<path class="st0" d="M484.5,381.1c-3,17-4.4,34.3-4,51.5"/>
	<path class="st0" d="M479,391.1c-0.2,15.7-1.4,31.4-2.8,47.2c-1.7,10.9-5,21.5-9.7,31.4"/>
	<path class="st0" d="M281.8,377.7c3.6,11.5,7.6,22.8,12,33.9c0.8,2,2.1,4.3,4.3,4.1"/>
	<path class="st0" d="M284.7,386.9c4.5,15,9.9,29.7,16.4,44"/>
	<path class="st0" d="M285.5,404.4c5.8,13.6,12.2,27,19.1,40.1"/>
	<path class="st0" d="M280.9,363.8c4.2,14,9.3,27.8,15.4,41.2"/>
	<path class="st0" d="M297.8,412.1c1.9,5,4.2,9.7,6.9,14.3"/>
</g>
<g id="Layer_3">
	<path class="st0" d="M382.7,287.9c0.3,2.8,0.6,5.6,0.9,8.4C383.6,295.5,383.6,294.8,382.7,287.9z"/>
	<path class="st0" d="M384.5,286.5c0.7,4.6,1.3,9.1,2,13.7"/>
	<path class="st0" d="M386.7,289.2c0.2,3.7,0.8,7.4,1.8,11"/>
	<path class="st0" d="M389,292.6c0.4,2.7,0.7,5.5,1.1,8.2"/>
	<path class="st0" d="M392.1,294.2c0.1,1.9,0.2,3.8,0.3,5.6"/>
	<path class="st0" d="M378.9,282.1c-5.7-4.6-7.6-12.5-8.4-19.9c-0.7-7.3-0.6-15-3.3-21.6c-1.3,1.9-2.5,3.8-3.8,5.8"/>
	<path class="st0" d="M368.3,242.5c-1.7,2.4-3.3,4.8-5,7.2"/>
	<path class="st0" d="M368.3,245.3c-2,3-4,6-6,9"/>
	<path class="st0" d="M369.8,248.5c-2.3,2.4-4.1,5.2-5.5,8.2"/>
	<path class="st0" d="M370.1,252.8c-2.1,3.7-4.5,7.2-7,10.6"/>
	<path class="st0" d="M370.8,257.4c-1.8,2.8-3.7,5.7-5.5,8.5"/>
	<path class="st0" d="M370.3,263c-1.7,2.6-3.3,5.2-5,7.9"/>
	<path class="st0" d="M370.8,265.7c-1.2,2.1-2.3,4.2-3.5,6.2"/>
	<path class="st0" d="M371.9,267.8c-1,1.6-2.1,3.2-3.2,4.9"/>
	<path class="st0" d="M372.9,270.3c-1.1,1.8-2.2,3.7-3.2,5.5"/>
	<path class="st0" d="M374,273.2c-1,1.6-1.9,3.1-2.9,4.7"/>
	<path class="st0" d="M361.7,232.7c6.4,10.4,9.7,22.7,9.4,34.9"/>
	<path class="st0" d="M366.1,243.4c1.7,10.7,3.9,21.3,6.5,31.8"/>
	<path class="st0" d="M407,279.6c-1.6,2.6-3.2,5.2-4.9,7.8"/>
	<path class="st0" d="M405.4,288.2c1.6-4.5,3.9-8.6,6.8-12.4"/>
	<path class="st0" d="M408.4,288c1.3-3.7,3.2-7.2,5.7-10.3"/>
	<path class="st0" d="M410.7,287.3c0.9-1.9,2-3.7,3.2-5.3"/>
	<path class="st0" d="M414.1,285.4c1-1.3,2.1-2.6,3.1-3.9"/>
	<path class="st0" d="M420.3,283.4c0.1-1.3,0.3-2.6,0.8-3.8s1.5-2.2,2.7-2.6c0,0.9,0,1.7-0.1,2.6c0,0.5,0.1,1.1,0.5,1.3
		c0.4,0.1,0.8-0.3,1.1-0.6c0.9-1.4,1.1-3.4,2.5-4.4c0.2-0.1,0.4-0.2,0.5-0.1c0.1,0,0.1,0.1,0.2,0.2c0.3,0.7,0.1,1.6,0.1,2.4
		c0,0.2,0,0.5,0.1,0.7c0.4,0.5,1.2,0.4,1.7-0.1c0.5-0.5,0.8-1.1,1.3-1.5"/>
	<path class="st0" d="M348.8,254c-8.3,1.3-16.2,4.8-22.7,10.1c4.9-1.6,10-2.5,15.1-2.6c-4.8,1.6-9.4,3.5-13.9,5.7
		c-0.4,0.2-0.9,0.5-0.9,1c0,0.5,0.5,0.8,0.9,0.8s0.9-0.2,1.3-0.4c3.6-1.6,7.7-2.4,11.7-2c-2.8,1.2-5.3,3-7.4,5.1
		c2.9-0.1,5.9-0.1,8.8-0.2c0.2,0,0.4,0,0.5,0.1c0.5,0.4-0.2,1-0.5,1.5c-0.4,0.7-0.2,1.7,0.4,2.3c0.6,0.6,1.4,0.9,2.1,1.2"/>
	<path class="st0" d="M229.6,359.5c1.4-1.5,2.9-2.8,4.5-4c1.3,0,1.4,2.5,2.8,2.6c0.3,0,0.6-0.1,0.9-0.2c8.2-3.8,15.9-9.6,25-10.1"/>
	<path class="st0" d="M277.5,349.4c-2.6-1-5.6-1-8.4-0.5s-5.5,1.5-8.1,2.5"/>
	<path class="st0" d="M229.1,317.8c-3.3,2.6-6.3,5.6-9.1,8.7c-1.1,1.3-2.3,3-1.6,4.5c3.2-1.3,6.3-2.7,9.3-4.3
		c-0.6,2.8-2.8,5-4.6,7.1c-4.8,5.4-8.6,11.7-7.3,18.8c-11,10.7-21.4,22.2-31,34.2"/>
	<path class="st0" d="M270.6,284.1c-9.4,7-18.9,14-27.7,21.8c-3.1,2.7-6.2,5.7-8.1,9.4c5.9-6.6,13.1-12,21.1-15.7
		c0,0-16.5,16.3-16.7,19c2.2-1.2,4.4-2.5,6.6-3.7c0.5-0.3,1.3-0.5,1.6,0c-3.7,4.1-7.3,8.3-11,12.5c3-1.3,6-2.6,9-3.9
		c-2.9,4-5.9,8-8.8,12c-1,1.4-2,2.9-2,4.6"/>
	<path class="st0" d="M168.3,385.6c-5.1,3-9.4,7.2-13.6,11.3c-1.5,1.5-3,2.9-4,4.8c-0.7,1.4-1.1,2.9-1.6,4.4
		c-1.7,5.4-4.3,10.5-7.5,15.1"/>
	<path class="st0" d="M165.4,389.6c-7.4,6.5-13.2,14.7-18.9,22.7"/>
	<path class="st0" d="M151.3,418c2.7-1.6,5.4-3.2,8-4.8c-4.4,3.4-8.7,6.8-13.1,10.2c-1,0.8-2.1,2-1.4,3c2.4-1.1,4.9-1.8,7.5-2
		c-2,3.2-5.3,5.3-8.1,7.8c-2.8,2.5-5.4,5.8-5.2,9.6c2.5-1.6,5.1-2.8,8-3.6c-6,5.6-11.3,12-15.8,18.8"/>
	<path class="st0" d="M227.7,394.4c12.7-6.7,24.9-14.2,36.6-22.6"/>
	<path class="st0" d="M221.5,399.6c2.1-0.9,6.3-2.8,6.3-2.8l5.1-5.1"/>
	<path class="st0" d="M206.6,408c8.3-2.3,16.3-6.1,23.4-11.1"/>
	<path class="st0" d="M204.7,414.2c3.7-2.1,7.5-4,11.4-5.8c1.3-0.6,2.8-1.2,4.2-0.8c-1.6,1.1-3.2,2.1-4.8,3.2"/>
	<path class="st0" d="M200.6,417.2c4.4-1.8,8.9-3.6,13.3-5.4c1.4-0.6,2.9-1.1,4.4-1.5"/>
	<path class="st0" d="M199.1,420.4c4.1-2.1,8.5-3.6,13.1-4.5"/>
	<path class="st0" d="M194.9,424.3c3.9-2.2,8.3-3.6,12.7-4.3"/>
	<path class="st0" d="M188.2,430.9c2.6-0.6,5.2-1.4,7.7-2.4"/>
	<path class="st0" d="M192.6,427.6c0.8-1.1,2.2-1.4,3.4-1.7c2.7-0.6,5.4-1.2,8.1-1.8"/>
	<path class="st0" d="M178.1,447c-4.4,4.4-8,9.6-10.5,15.3c2.8-0.7,5.5-1.4,8.2-2c-1.7,10.2-13.9,15.8-16.3,25.8
		c2.8-1.3,5.7-2.6,8.5-3.9c-9.1,10.3-18.3,20.7-27.4,31"/>
	<path class="st0" d="M109.5,513.9c0.1,9.5,0.2,19,0.1,28.5c-1.4-0.7-2.8-1.3-4.2-1.9c-0.6,4.9-1.2,9.8-1.8,14.7
		c-0.1,0.8-0.2,1.8-0.9,2.3c-0.5,0.4-1.2,0.5-1.6,1c-0.5,0.4-0.7,1.1-0.9,1.7c-1,3.6-2.1,7.2-3.1,10.9"/>
	<path class="st0" d="M91.3,577.1c5.3-0.2,10.6,0.5,15.9,0.2c6-0.2,11.9-1.7,17.4-4.2"/>
	<path class="st0" d="M90.2,578.6c10.7,1.1,21.4-1.7,31.8-4.5"/>
	<path class="st0" d="M344.6,132.1c6.4-7,15.6-11.3,25-11.8c0.4,1.1-0.4,2.2-1.1,3.1c-4,4.7-8.4,9.2-13.1,13.3
		c-4.3,3.8-9.2,7.7-10.3,13.3c7.4-5.6,15.1-11.4,24.2-13.3c0.1,1.9-1.5,3.3-3,4.4c-7.4,5.5-14.7,11.5-19.2,19.5
		c3.9-0.9,7.7-2.5,11.1-4.6c-1.5,2.8-4.1,4.8-6.5,6.9s-4.7,4.7-4.9,7.9c2.4-1.1,4.8-2.1,7.2-3.2"/>
	<path class="st0" d="M306.6,436.9c7.2,9.3,14.6,18.8,24.3,25.5c1.6,1.1,3.4,2.1,5.2,1.9c-0.5-3.1-2.4-5.9-5.1-7.4"/>
	<path class="st0" d="M427.3,462.9c12.1-8.6,22.8-19,33.4-29.3"/>
	<path class="st0" d="M424.5,472.7c3.1-5.7,7-11,11.6-15.6"/>
	<path class="st0" d="M291.8,495c3.5-2.7,7.4-5.6,11.8-5.9c-1.3,1.9-3.2,3.3-4.9,4.9c-3.4,3.2-6.1,7.1-7.9,11.4
		c3.5-1.1,6.9-2.6,10.2-4.3c-0.2,1.4-1.2,2.4-2.2,3.4c-2.5,2.6-4.7,5.6-6.5,8.7"/>
	<path class="st0" d="M291.8,522.1c3.2-3.2,6.7-6.4,11-7.8c-3.6,4.2-7.4,8.3-11.3,12.2c4.5,0.4,8-5.2,12.5-4.7c-1.6,2-3.2,4-4.8,5.9
		c-1.8,2.3-3.7,4.7-4.8,7.4c2.8,1.2,5.8-1,8.8-1c0.2,0,0.5,0,0.7,0.2c0.5,0.3,0.3,1,0,1.5c-1.3,2.9-2.5,5.7-3.8,8.6
		c-0.4,0.9-0.8,2-0.3,2.8c0.5,1,1.8,1.1,2.8,1.7c1.7,1.1,1.9,3.5,2.3,5.4c0.7,2.8,2.4,5.3,4.7,7"/>
	<path class="st0" d="M341.8,499.8c2.2-3,4.9-5.7,7.9-7.9c-2.7,6.1-5.3,12.3-8,18.5c3.3,1.2,6.2-3.7,9.7-3.2
		c-2.2,4-4.4,7.9-6.6,11.9c-0.4,0.7-0.7,1.3-0.7,2.1c0.1,1.2,1.2,1.9,1.9,2.9c1.3,1.9,0.9,4.3,0.7,6.6c-0.1,2.2,0.4,5,2.5,5.8
		l1.8,12.6"/>
	<path class="st0" d="M336.8,521.8c1.9-1.9,4-3.5,6.4-4.8c0.6-0.3,1.5-0.7,2-0.1c0.3,0.3,0.3,0.8,0.2,1.2c-0.6,3.2-3.5,5.4-5.1,8.2
		c-0.7,1.2-1,3.1,0.2,3.7c0.8,0.4,1.7,0,2.5,0.3c1.3,0.4,1.7,2.1,1.4,3.4s-1.2,2.4-1.8,3.6s-0.8,2.8,0.1,3.8c0.4,0.5,1,0.7,1.6,1.1
		c1.6,1.2,2,3.4,2,5.4c0,2-0.3,4.1,0.4,6"/>
	<path class="st0" d="M499.7,366.7c1.2-2.2,2.4-4.5,4.1-6.4c1.7-1.9,3.8-3.5,6.2-4.1"/>
	<path class="st0" d="M505.7,367c3.2-3.8,7-7,11.2-9.5"/>
	<path class="st0" d="M509.2,370.7c3.6-2.9,7.2-5.7,11-8.4"/>
	<path class="st0" d="M513.8,375.3c3.3-2.4,6.7-4.8,10-7.2"/>
	<path class="st0" d="M517,380.9c3.4-3.7,7.2-7,11.5-9.6"/>
	<path class="st0" d="M521.5,384.4c3.2-2.5,6.3-4.9,9.5-7.4"/>
	<path class="st0" d="M526.7,387.7c3.1-2.1,6.2-4.2,9.2-6.4"/>
	<path class="st0" d="M538.5,392.1c2,0,4,0,6,0c0.7,0,1.4,0,1.8,0.5c0.5,0.5,0.4,1.2,0.3,1.9c-0.3,2.6-0.5,5.2-0.8,7.8
		c0,0.5-0.1,1.1,0.1,1.6c0.5,1.4,2.3,1.8,3.8,1.7s3.1-0.5,4.4,0.1c1.5,0.8,2,2.6,2.9,4.1c2.4,4.3,7.6,6,12.1,8s9.3,5.7,8.9,10.6"/>
	<path class="st0" d="M616.8,442.7c2.2-4.3,4.4-8.6,6.6-12.9c2.1,0.8,1.5,4,0.5,6c-3.7,7.4-7.3,14.8-11,22.2
		c4.8-0.9,9.5-1.7,14.3-2.6c-0.3,3.5-3.2,6.1-5,9.1c-1.8,3-2.1,7.8,1.2,9.1c1.4,0.5,3.1,0.2,4.1,1.3c0.7,0.7,0.8,1.9,0.9,2.9
		c0.3,4.8,0.7,9.6,1.1,14.4"/>
	<path class="st0" d="M564.6,363.5c0.1,2.2,0.2,4.5,0.3,6.7c0,0.7,0.1,1.4,0.7,1.8c0.5,0.3,1,0.2,1.6,0.3c2.3,0.2,3.4,2.9,3.7,5.2
		c0.2,2.3,0,4.8,1.4,6.6c1.2,1.7,3.5,2.3,5,3.7c1.7,1.5,2.6,3.6,3.7,5.6c2.1,3.9,5.2,7.2,8.2,10.4c2.5,2.6,4.9,5.2,7.4,7.9
		c2.1,2.3,4.3,4.6,7.1,6"/>
	<path class="st0" d="M488.9,279.2c8.5-0.3,18.5,0,23.6,6.8c1.9,2.5,2.9,5.6,4.7,8.2c4.7,6.6,14,8.5,18.8,15c1.4,2,2.4,4.3,4,6.1
		c1.2,1.4,2.8,2.4,4,3.8c1.5,1.8,2.1,4.2,2.8,6.4c2.6,9.4,5.1,18.8,7.7,28.1"/>
	<path class="st0" d="M532.2,314.9c0.1-0.8,0.3-1.7,0.9-2.2c0.6-0.5,1.8-0.3,1.9,0.5c0,0.3-0.1,0.6-0.2,0.8
		c-0.6,1.2-1.1,2.5-1.7,3.7c1.9-1,3.8-2.1,5.7-3.1c0.7,1,0.2,2.3-0.2,3.4c-0.8,2.2-1.7,4.3-2.5,6.5c1.7-0.9,3.3-1.8,5-2.8
		c-0.4,4-0.9,7.9-1.6,11.8c1.1,0,2-0.9,2.9-1.5s2.2-1.2,3.1-0.5c0.4,0.3,0.6,0.8,0.8,1.3c0.9,3.2-1.3,6.6-0.5,9.8
		c0.3,1.2,1.1,2.3,1.7,3.4c1.3,2.3,2.2,4.8,2.5,7.4"/>
	<path class="st0" d="M650.8,585.4c-0.5,0.2-1.1,0.5-1.6,0.7c4.6-1.5,9.4-2.6,14.2-3.3c0.6,0.6-0.1,1.5-0.8,2
		c-3.9,3-7.8,6.1-11.8,9.1c5.9-0.2,11.2-5.5,17-4.4c-3,2.5-5.9,5-8.9,7.5c-0.6,0.5-1.3,1.4-0.7,2c0.3,0.3,0.8,0.3,1.2,0.3
		c4.5-0.3,9.2-2,13.5-0.6c0.3,0.1,0.6,0.2,0.7,0.5c0.1,0.2,0,0.5,0,0.8c-1.8,6.5-7.7,11.7-6.5,19.3c1.9,0.7,4,1.4,5.9,0.8
		c0,0.5,0,1.1-0.2,1.6"/>
	<path class="st0" d="M639.2,612.1c0.5-0.7,1.2-1.3,1.9-1.8c0.5-0.3,1.1-0.6,1.7-0.6s1.2,0.5,1.3,1.1c0,0.3-0.1,0.7-0.1,1
		c0,0.9,1,1.4,1.9,1.5c0.8,0.1,1.8,0,2.5,0.3c1,0.4,1.5,1.5,1.3,2.5"/>
	<path class="st0" d="M655.3,617.7c0.8,0.2,1.6,0.4,2.4,0.6c0.2,0,0.5,0.1,0.7,0.2c0.3,0.2,0.5,0.5,0.7,0.8c1,1.6,2.8,2.6,4.7,3.1
		c1.8,0.5,3.8,0.5,5.7,0.5c2.3,0,4.5,0,6.8,0.1"/>
	<path class="st0" d="M626.5,606.3c-5,2.2-9.8,4.9-14.2,8.1"/>
	<path class="st0" d="M624.6,609.9c-4.2,1.8-8.3,4.1-12,6.9"/>
	<path class="st0" d="M623.3,613c-3.6,1.7-7.1,3.5-10.4,5.6"/>
	<path class="st0" d="M624.8,615.2c-4.2,1.7-8.2,3.9-11.8,6.7"/>
	<path class="st0" d="M624.2,618.3c-3.4,1.5-6.6,3.3-9.5,5.6"/>
	<path class="st0" d="M624.1,622.3c-2.4,2.1-4.9,4.1-7.3,6.2"/>
	<path class="st0" d="M681.6,610.7c-1.5,1.9-3.1,3.9-4.6,5.8"/>
	<path class="st0" d="M623.5,620.3c-2.5,1.5-4.8,3.2-6.9,5.1"/>
	<path class="st0" d="M623.9,624.4c-1.7,1.9-3.7,3.5-5.9,4.8"/>
	<path class="st0" d="M618.4,608.7c-2.5,1-4.9,2.3-7.1,3.9"/>
	<path class="st0" d="M445.3,517.6c-3.4,2.5-6.4,5.5-8.9,8.9c1.5,0.1,3,0.2,4.5,0.5c-0.3,1.5-1.2,2.9-2.4,3.9c-0.4,0.3-0.8,0.5-1,1
		c-0.3,0.7,0,1.5,0.2,2.2c1.9,6.5-6.5,13-4.2,19.5c0.4,1.2,1.2,2.2,1.7,3.3c1.6,3.4,0.9,7.4,0.2,11.1"/>
	<path class="st0" d="M443.2,522.2c-2.5,1.6-4.6,3.7-6.3,6c2-0.1,4-0.1,6-0.2c-0.8,2.8-4.8,3.9-5.4,6.8c1.2,0.5,2.5,0.7,3.8,0.5
		c-1.6,1.5-3,3.1-4.4,4.8c0.9,0.4,2,0.5,3,0.5c-2.3,4-4.2,8.2-5.7,12.6"/>
	<path class="st0" d="M423.2,508c-2,1.6-4.1,3.2-6.1,4.8c2.2-0.8,4.5-1.4,6.8-1.6c-1.8,2.9-3.9,5.6-6.4,7.9c1.6,0.6,3.4,0.8,5.1,0.6
		c-1.1,2-2.3,3.9-2.8,6.1c-0.3,1.4-0.3,2.8-0.3,4.2c-0.2,12-1.5,23.9-4,35.6"/>
	<path class="st0" d="M338.6,516.5c-0.5,3.5-1,7-1.4,10.5c0.7-1,2.4-0.5,3,0.6s0.3,2.4,0.1,3.6s-0.5,2.5,0.1,3.6
		c0.3,0.5,0.7,0.9,1,1.4c0.7,1.1,0.7,2.4,0.7,3.6c0.3,13.7,2.7,27.2,7.2,40.2"/>
	<path class="st0" d="M276.1,605.1c5.5-6.2,11.8-11.6,18.8-16.1c-6.8,8.9-14.8,16.8-22.8,24.6c14.1-7.8,28.1-15.6,42.2-23.4
		c1-0.6,2.5-1.1,3.3-0.2c-10.3,9.4-20.5,18.8-30.8,28.2c14.3-7,28.5-14,42.8-21c-11,9.6-22,19.3-32.9,28.9
		c15.3-0.8,26.3-18.8,41.5-17.4c-10.2,6.8-19.6,14.7-27.9,23.6c13.2-1.2,23.2-13.6,36.4-15.4c-6,6.7-12,13.4-18,20.1
		c10.6,3.5,21.8-5.5,32.9-3.9"/>
	<path class="st0" d="M276.7,595.6c1.8-2.8,4-5.3,6.6-7.3c1.2-0.9,2.8-1.8,4.2-1.2c1.6,0.7,1.8,3,1.2,4.7c-1.1,3.2-4,5.4-6.4,7.8
		c-2.4,2.4-4.5,5.7-3.7,9c0,0.2,0.1,0.4,0.2,0.5c0.3,0.3,0.8,0.1,1.1-0.1c4.5-2.4,9.1-4.8,13.6-7.2c0,5-7.5,7.8-7.1,12.8
		c4.4-1.5,8.7-3.7,12.5-6.4c-1.9,4.2-4.5,8.1-7.7,11.4c0.5,1.7,3.2,1.2,4.7,0.1c5.1-3.5,9.3-8.2,14.1-12.2c4.8-4,10.4-7.4,16.6-7.6
		c-8.7,8.8-17.4,17.5-26.2,26.3"/>
	<path class="st0" d="M293.2,281.8c-2.5,2.2-5,4.5-7.4,6.7c7.5-7.1,16-13.1,25.1-17.9c-7.2,8.5-14.4,17-21.5,25.6
		c9.2-6.3,18.3-12.7,27.5-19c-8,7.3-15.5,15.2-22.2,23.8c6.9-4.4,14.2-8.2,21.8-11.5c-2.5,3.9-5,7.8-7.5,11.7c4.2-2,8.4-4,12.6-6
		c-1.6,3.3-3.2,6.6-4.8,9.9c4-1.8,8-3.6,11.9-5.5c0.2,2,0.4,4,0.6,6c21.7-1.5,43.5-1.9,65.3-1.3"/>
	<path class="st0" d="M416.5,302.7c5.5,0.6,11.4-1.9,16.5,0.2c1.1,0.5,2.1,1.1,3.3,1.4c4.8,1.1,8-4.6,12.1-7.4
		c3.9-2.6,9.2-2.6,13.1-5.2c1.5-1,2.8-2.5,4.4-3.4c1.6-0.9,3.9-1,5.1,0.3"/>
	<path class="st0" d="M408.1,238.1c-2.6,6.4-3,13.5-4,20.4c-1,6.9-3,14-8,18.8"/>
	<path class="st0" d="M404.2,240.3c0.5,6.4,0.9,12.8,0.2,19.2s-2.7,12.7-6.6,17.8"/>
	<path class="st0" d="M349.6,172.4c-0.9,0.6-1.6,1.5-1.9,2.5c1.4-0.8,3-1.1,4.6-0.8c-1.7,2.6-3.3,5.1-5,7.7c-1,1.5-1.7,3.8-0.2,4.6
		c0.5,0.3,1.1,0.3,1.5,0.5c1.4,0.8,0.8,2.8,0.1,4.2s-1.3,3.4,0,4.3c0.8,0.5,1.9,0.3,2.6,0.9c1.5,1.1,0.1,3.3,0,5.2
		c0,1.1,0.5,2.2,1,3.2c1.9,3.7,3.9,7.4,5.8,11.2c1.3,2.4,2.6,5,4.8,6.6"/>
	<path class="st0" d="M400.1,116.8c4.5,1.6,9.9,1.4,13.1,4.8c0.9,1,1.6,2.2,2.3,3.4c1.7,3.1,3.4,6.4,2.8,9.8c-0.2,1-0.5,2-0.1,2.9
		c0.4,0.8,1.2,1.3,1.9,1.9c2.5,2.2,2.3,6.1,1.9,9.4"/>
	<path class="st0" d="M423.7,154.6c-0.7,3.9-1.4,7.8-2.1,11.7c-0.2,1-0.4,2-0.1,3c0.2,0.7,0.5,1.3,0.8,2c2.2,5.2-2.2,10.8-2.8,16.4"
		/>
	<path class="st0" d="M418.1,194.6c-0.8,4.8-2.2,9.6-4,14.1"/>
	<path class="st0" d="M109.9,561.9c-4.9,14.6-7.7,30-8.2,45.4"/>
	<path class="st0" d="M117.3,566.3c-1.1,11.2-0.2,22.5,2.5,33.4"/>
	<path class="st0" d="M361.6,507.4c3.9-2.3,8.3-3.9,12.8-4.7c-4.9,5.6-9.8,11.3-14.7,16.9c6.7-3.7,13.7-6.7,21-9
		c-2.6,3.8-6.7,6.2-9.9,9.4s-5.8,8.1-3.9,12.3l-10.1,7.3"/>
	<path class="st0" d="M363,468.5c3.7-2.4,7.5-4.9,11.8-5.8c-4.2,5.5-8.3,10.9-12.5,16.4c2,0.5,4.1,1.1,6.1,1.6
		c0.8,0.2,1.5,0.4,2.1,1c1.4,1.3,0.7,3.6-0.1,5.4"/>
	<path class="st0" d="M355.9,557.4c2.6-3,5.6-5.7,8.7-8c1.2,0.5,0.8,2.3,0.1,3.5c-2,3.4-4,6.8-5.9,10.1c1.8-0.1,3.5-0.2,5.3-0.3
		c0.5,0,1.1,0,1.6,0.2c0.8,0.4,1.2,1.5,1.1,2.4c-0.1,0.9-0.5,1.8-0.8,2.7c-1.4,4.5,1.5,10,6.1,11.3"/>
</g>
</svg>
