<?xml version="1.0" encoding="utf-8"?>
<!-- Generator: Adobe Illustrator 26.5.0, SVG Export Plug-In . SVG Version: 6.00 Build 0)  -->
<svg version="1.1" id="Layer_1" xmlns="http://www.w3.org/2000/svg" xmlns:xlink="http://www.w3.org/1999/xlink" x="0px" y="0px"
	 viewBox="0 0 90.6 84.1" style="enable-background:new 0 0 90.6 84.1;" xml:space="preserve">
<style type="text/css">
	.st0{fill:none;stroke:#F7B6D1;stroke-width:0.3565;}
	.st1{fill:none;stroke:#E03826;stroke-width:0.3565;}
	.st2{fill:none;stroke:#339BD6;stroke-width:0.3565;}
</style>
<polyline class="st0" points="4.5,61 4.5,61.1 4.5,61.2 4.6,61.3 4.6,61.4 4.6,61.5 4.7,61.6 4.7,61.7 4.8,61.8 4.8,61.9 4.8,62 
	4.9,62.1 4.9,62.2 5,62.3 5,62.4 5.1,62.5 5.1,62.6 5.2,62.6 5.2,62.7 5.3,62.8 5.4,62.9 5.4,63 5.5,63.1 5.6,63.2 5.6,63.2 
	5.7,63.3 5.8,63.4 5.8,63.5 5.9,63.5 6,63.6 6.1,63.6 6.2,63.7 "/>
<polyline class="st0" points="5,61.7 5,61.8 5,61.9 5.1,62 5.1,62.1 5.2,62.2 5.2,62.4 5.3,62.5 5.3,62.6 5.4,62.7 5.4,62.8 
	5.5,62.9 5.5,62.9 5.6,63 5.7,63.1 5.7,63.2 5.8,63.3 5.9,63.4 5.9,63.5 6,63.6 6.1,63.7 6.2,63.7 6.3,63.8 6.3,63.9 6.4,64 6.5,64 
	6.6,64.1 6.7,64.2 6.8,64.2 7,64.3 "/>
<polyline class="st0" points="5.6,62.9 5.7,63 5.8,63.1 5.8,63.2 5.9,63.3 6,63.4 6,63.5 6.1,63.6 6.2,63.7 6.3,63.8 6.4,63.9 
	6.5,64 6.6,64.1 6.7,64.2 6.8,64.2 6.9,64.3 7,64.4 7.1,64.4 7.2,64.5 7.3,64.6 7.4,64.6 7.6,64.7 7.7,64.7 7.8,64.8 7.9,64.8 
	8,64.9 8.2,64.9 8.3,64.9 8.4,64.9 8.5,65 8.7,65 "/>
<polyline class="st0" points="9.1,64.8 9,64.7 9,64.7 9,64.7 8.9,64.6 8.9,64.6 8.8,64.6 8.8,64.5 8.7,64.5 8.7,64.5 8.6,64.5 
	8.6,64.4 8.5,64.4 8.5,64.4 8.4,64.4 8.4,64.3 8.4,64.3 8.3,64.3 8.2,64.3 8.2,64.3 8.1,64.3 8.1,64.2 8,64.2 8,64.2 7.9,64.2 
	7.9,64.2 7.8,64.2 7.8,64.2 7.7,64.2 7.7,64.1 7.6,64.1 "/>
<polyline class="st0" points="3.8,60.6 3.9,60.7 4,60.8 4.1,60.9 4.1,61 4.2,61.1 4.3,61.2 4.4,61.4 4.5,61.5 4.6,61.6 4.6,61.7 
	4.7,61.8 4.8,61.9 4.9,62 5,62.1 5.1,62.2 5.2,62.4 5.3,62.5 5.4,62.6 5.5,62.7 5.6,62.8 5.7,62.9 5.7,63 5.8,63.1 5.9,63.2 6,63.3 
	6.1,63.4 6.2,63.5 6.3,63.6 6.5,63.8 "/>
<polyline class="st0" points="8.7,65 8.6,64.9 8.5,64.9 8.4,64.9 8.4,64.8 8.3,64.8 8.2,64.7 8.1,64.7 8.1,64.6 8,64.6 7.9,64.6 
	7.8,64.5 7.8,64.5 7.7,64.4 7.6,64.4 7.5,64.3 7.5,64.3 7.4,64.3 7.3,64.2 7.2,64.2 7.2,64.1 7.1,64.1 7,64 6.9,64 6.9,64 6.8,63.9 
	6.7,63.9 6.6,63.8 6.6,63.8 6.5,63.8 6.4,63.7 "/>
<polyline class="st0" points="6.4,63.7 6.5,63.8 6.6,63.8 6.7,63.8 6.7,63.9 6.8,63.9 6.9,64 7,64 7.1,64.1 7.2,64.1 7.3,64.2 
	7.4,64.2 7.4,64.2 7.5,64.3 7.6,64.3 7.7,64.4 7.8,64.4 7.9,64.4 8,64.5 8.1,64.5 8.2,64.5 8.2,64.6 8.3,64.6 8.4,64.6 8.5,64.6 
	8.6,64.7 8.7,64.7 8.8,64.7 8.9,64.7 9,64.8 9.1,64.8 "/>
<polyline class="st0" points="7.6,64.1 7.7,64.2 7.7,64.2 7.8,64.3 7.9,64.3 7.9,64.3 8,64.3 8.1,64.4 8.1,64.4 8.2,64.4 8.3,64.4 
	8.3,64.5 8.4,64.5 8.5,64.5 8.6,64.5 8.6,64.5 8.7,64.6 8.8,64.6 8.8,64.6 8.9,64.6 9,64.6 9,64.6 9.1,64.6 9.2,64.7 9.3,64.7 
	9.3,64.7 9.4,64.7 9.5,64.7 9.6,64.7 9.7,64.7 "/>
<polyline class="st1" points="9.4,64.8 9.6,64.8 9.7,64.8 9.8,64.8 10,64.8 10.1,64.8 10.2,64.8 10.4,64.8 10.5,64.7 10.6,64.7 
	10.7,64.7 10.9,64.6 11,64.6 11.1,64.5 11.2,64.5 11.4,64.4 11.5,64.4 11.6,64.3 11.7,64.2 11.8,64.2 11.9,64.1 12,64 12.2,63.9 
	12.3,63.9 12.4,63.8 12.5,63.7 12.6,63.6 12.6,63.5 12.7,63.4 12.8,63.3 12.9,63.2 "/>
<polyline class="st1" points="12.9,63.2 12.8,63.3 12.7,63.4 12.7,63.5 12.6,63.5 12.5,63.6 12.4,63.7 12.3,63.8 12.2,63.9 12.1,64 
	12,64 11.9,64.1 11.8,64.2 11.8,64.3 11.7,64.3 11.6,64.4 11.5,64.5 11.4,64.5 11.3,64.6 11.2,64.7 11.1,64.7 10.9,64.8 10.8,64.8 
	10.7,64.9 10.6,65 10.5,65 10.4,65.1 10.3,65.1 10.2,65.2 10.1,65.2 10,65.3 "/>
<polyline class="st1" points="10,65.3 10.1,65.2 10.3,65.1 10.5,65.1 10.6,65 10.8,64.9 10.9,64.8 11.1,64.8 11.2,64.7 11.4,64.6 
	11.5,64.5 11.7,64.4 11.8,64.3 12,64.2 12.1,64.1 12.3,64 12.4,63.9 12.6,63.8 12.7,63.7 12.9,63.6 13,63.5 13.1,63.4 13.3,63.3 
	13.4,63.2 13.5,63.1 13.7,62.9 13.8,62.8 13.9,62.7 14,62.6 14.2,62.5 14.3,62.3 "/>
<polyline class="st1" points="11.2,64.7 11.4,64.7 11.6,64.6 11.7,64.6 11.9,64.5 12,64.4 12.2,64.3 12.3,64.3 12.5,64.2 12.6,64 
	12.8,63.9 12.9,63.8 13,63.7 13.2,63.6 13.3,63.4 13.4,63.3 13.5,63.2 13.6,63 13.7,62.9 13.9,62.8 14,62.6 14.1,62.5 14.2,62.4 
	14.3,62.2 14.4,62.1 14.5,62 14.7,61.8 14.8,61.7 14.9,61.6 15,61.5 15.2,61.3 "/>
<polyline class="st1" points="16.6,60.7 16.5,60.8 16.4,60.9 16.3,61 16.1,61.1 16,61.1 15.9,61.2 15.8,61.3 15.7,61.4 15.6,61.5 
	15.5,61.6 15.4,61.7 15.3,61.7 15.2,61.8 15.1,61.9 15,62 14.9,62.1 14.8,62.2 14.7,62.3 14.6,62.3 14.4,62.4 14.3,62.5 14.2,62.6 
	14.1,62.7 14,62.7 13.9,62.8 13.8,62.9 13.6,62.9 13.5,63 13.3,63.1 "/>
<polyline class="st1" points="13.3,63.1 13.4,63 13.4,62.9 13.5,62.8 13.6,62.7 13.7,62.6 13.8,62.5 13.9,62.4 14.1,62.3 14.2,62.3 
	14.3,62.2 14.4,62.1 14.5,62 14.6,62 14.7,61.9 14.8,61.8 15,61.7 15.1,61.7 15.2,61.6 15.3,61.5 15.4,61.5 15.5,61.4 15.7,61.3 
	15.8,61.2 15.9,61.2 16,61.1 16.1,61 16.2,60.9 16.4,60.9 16.6,60.7 "/>
<polyline class="st1" points="17.1,60.5 17,60.6 16.8,60.7 16.7,60.8 16.6,60.8 16.5,60.9 16.3,61 16.2,61.1 16.1,61.2 16,61.3 
	15.8,61.3 15.7,61.4 15.6,61.5 15.5,61.6 15.4,61.7 15.2,61.8 15.1,61.9 15,62 14.9,62.1 14.8,62.2 14.7,62.3 14.6,62.3 14.5,62.5 
	14.3,62.6 14.2,62.7 14.1,62.8 14,62.9 13.9,63 13.8,63.1 13.6,63.3 "/>
<polyline class="st1" points="9.5,65 9.4,65.1 9.3,65.2 9.2,65.3 9.1,65.4 9.1,65.5 9,65.6 8.9,65.7 8.8,65.8 8.8,65.9 8.7,66 
	8.6,66.1 8.6,66.2 8.5,66.3 8.4,66.4 8.4,66.5 8.3,66.6 8.3,66.7 8.2,66.9 8.2,67 8.2,67.1 8.1,67.2 8.1,67.3 8.1,67.5 8.1,67.6 
	8,67.7 8,67.8 8,67.9 8,68.1 8,68.2 8,68.3 "/>
<polyline class="st1" points="9.5,65.4 9.4,65.5 9.3,65.6 9.2,65.7 9.2,65.8 9.1,66 9,66.1 9,66.2 8.9,66.3 8.9,66.5 8.9,66.6 
	8.8,66.8 8.8,66.9 8.8,67 8.7,67.2 8.7,67.3 8.7,67.4 8.6,67.6 8.6,67.7 8.6,67.8 8.6,68 8.6,68.1 8.5,68.3 8.5,68.4 8.6,68.5 
	8.6,68.7 8.7,68.8 8.8,68.8 8.9,68.8 9,68.7 9.1,68.6 "/>
<polyline class="st1" points="8.8,66.9 8.8,67 8.8,67 8.8,67.1 8.8,67.1 8.8,67.2 8.8,67.3 8.8,67.3 8.8,67.4 8.8,67.4 8.8,67.5 
	8.8,67.5 8.8,67.6 8.8,67.6 8.8,67.7 8.8,67.7 8.8,67.8 8.8,67.9 8.8,67.9 8.8,68 8.7,68 8.7,68.1 8.7,68.1 8.7,68.2 8.7,68.2 
	8.7,68.3 8.7,68.3 8.7,68.4 8.7,68.4 8.7,68.6 "/>
<polyline class="st1" points="8.7,68.6 8.6,68.5 8.6,68.4 8.6,68.3 8.6,68.2 8.5,68.1 8.5,67.9 8.5,67.8 8.5,67.7 8.5,67.6 
	8.5,67.5 8.6,67.4 8.6,67.3 8.6,67.2 8.6,67.1 8.6,67 8.7,66.9 8.7,66.8 8.7,66.7 8.8,66.6 8.8,66.5 8.9,66.4 8.9,66.3 9,66.2 
	9,66.2 9.1,66.1 9.1,66 9.2,65.9 9.3,65.8 9.4,65.7 "/>
<polyline class="st1" points="9.4,65.7 9.3,65.8 9.2,66 9.1,66.2 9,66.3 8.9,66.5 8.9,66.7 8.9,66.9 8.8,67.1 8.8,67.3 8.8,67.5 
	8.8,67.7 8.8,67.9 8.8,68.1 8.8,68.3 8.8,68.4 8.8,68.6 8.8,68.8 8.8,69 8.8,69.2 8.8,69.4 8.8,69.6 8.8,69.8 8.9,70 8.9,70.2 
	8.9,70.4 9,70.6 9,70.8 9.1,70.9 9.2,71.1 9.2,71.3 "/>
<polyline class="st1" points="8.7,67.2 8.6,67.3 8.6,67.4 8.6,67.6 8.6,67.7 8.6,67.9 8.6,68 8.5,68.2 8.5,68.3 8.6,68.5 8.6,68.6 
	8.6,68.7 8.6,68.9 8.6,69 8.7,69.2 8.7,69.3 8.7,69.4 8.8,69.6 8.8,69.7 8.9,69.9 8.9,70 9,70.1 9,70.2 9.1,70.4 9.2,70.5 9.3,70.6 
	9.3,70.7 9.4,70.9 9.5,71 9.6,71.1 9.7,71.2 "/>
<polyline class="st1" points="8.6,68 8.6,68.1 8.6,68.2 8.6,68.4 8.6,68.5 8.6,68.6 8.6,68.8 8.6,68.9 8.7,69 8.7,69.2 8.7,69.3 
	8.7,69.4 8.8,69.6 8.8,69.7 8.9,69.8 8.9,69.9 9,70.1 9,70.2 9.1,70.3 9.1,70.4 9.2,70.5 9.2,70.7 9.3,70.8 9.4,70.9 9.5,71 
	9.5,71.1 9.6,71.2 9.7,71.3 9.8,71.4 9.9,71.5 9.9,71.6 "/>
<polyline class="st1" points="8.8,69 8.9,69.1 8.9,69.2 8.9,69.3 8.9,69.4 9,69.5 9,69.6 9,69.7 9.1,69.8 9.1,69.9 9.1,70 9.2,70.1 
	9.2,70.2 9.3,70.3 9.3,70.4 9.4,70.5 9.4,70.6 9.4,70.7 9.5,70.7 9.5,70.8 9.6,70.9 9.6,71 9.7,71.1 9.7,71.2 9.8,71.3 9.9,71.4 
	9.9,71.5 10,71.6 10,71.6 10.2,71.8 "/>
<polyline class="st1" points="9,69.4 9.1,69.5 9.1,69.6 9.1,69.7 9.2,69.7 9.2,69.8 9.2,69.9 9.3,70 9.3,70.1 9.4,70.2 9.4,70.3 
	9.4,70.3 9.5,70.4 9.5,70.5 9.6,70.6 9.6,70.7 9.7,70.8 9.7,70.8 9.8,70.9 9.8,71 9.9,71.1 9.9,71.2 10,71.2 10,71.3 10.1,71.4 
	10.1,71.5 10.2,71.6 10.2,71.6 10.3,71.7 10.4,71.9 "/>
<polyline class="st2" points="29.5,0.3 29.9,0.2 30.2,0.1 30.5,0.1 30.8,0 31.1,0 31.4,0 31.7,0 32,0.1 32.3,0.1 32.6,0.2 32.9,0.4 
	33.2,0.5 33.4,0.8 33.6,1 33.8,1.2 33.9,1.5 34,1.8 34.1,2.1 34.2,2.4 34.3,2.7 34.3,3 34.4,3.3 34.5,3.6 34.5,4 34.5,4.3 34.6,4.6 
	34.6,4.9 34.6,5.2 34.6,5.5 34.6,5.8 "/>
<polyline class="st2" points="32,0.2 32.3,0.3 32.6,0.5 32.9,0.7 33.1,0.9 33.3,1.2 33.5,1.4 33.7,1.7 33.8,2.1 33.9,2.4 33.9,2.7 
	34,3 34.1,3.4 34.1,3.7 34.2,4 34.2,4.4 34.2,4.7 34.3,5 34.3,5.4 34.3,5.7 34.3,6.1 34.3,6.4 34.3,6.7 34.3,7.1 34.2,7.4 34.2,7.7 
	34.2,8.1 34.1,8.4 34.1,8.7 34,9.1 34,9.4 "/>
<polyline class="st2" points="32.9,1.8 33.2,2.3 33.6,2.9 33.8,3.4 34.1,4 34.2,4.6 34.3,5.2 34.4,5.9 34.4,6.5 34.4,7.1 34.4,7.8 
	34.3,8.4 34.2,9 34,9.6 33.9,10.2 33.7,10.8 33.5,11.4 33.3,12 33.1,12.6 32.9,13.2 32.7,13.8 32.5,14.4 32.3,15 32.1,15.6 
	31.9,16.2 31.7,16.8 31.6,17.4 31.5,18.1 31.4,18.7 31.4,19.3 31.3,20 "/>
<polyline class="st2" points="33.6,3.7 33.6,4.5 33.6,5.2 33.6,5.9 33.6,6.6 33.5,7.4 33.4,8.1 33.3,8.8 33.1,9.5 33,10.2 
	32.8,10.9 32.6,11.6 32.4,12.3 32.2,13 32,13.7 31.8,14.4 31.5,15.1 31.4,15.8 31.2,16.5 31,17.2 30.9,17.9 30.7,18.6 30.6,19.3 
	30.5,20.1 30.5,20.8 30.5,21.5 30.5,22.2 30.5,23 30.6,23.7 30.8,24.4 31,25.1 31.2,25.8 "/>
<polyline class="st2" points="31.5,16.7 31.3,17 31.2,17.3 31.1,17.7 31,18 30.9,18.3 30.8,18.6 30.7,18.9 30.7,19.3 30.6,19.6 
	30.5,19.9 30.5,20.2 30.5,20.6 30.4,20.9 30.4,21.2 30.4,21.6 30.4,21.9 30.4,22.2 30.4,22.6 30.4,22.9 30.5,23.2 30.5,23.6 
	30.5,23.9 30.6,24.2 30.7,24.5 30.7,24.9 30.8,25.2 30.9,25.5 31,25.8 31.1,26.1 31.2,26.4 "/>
<polyline class="st2" points="31.2,26.4 31.2,26.1 31.2,25.7 31.2,25.3 31.1,24.9 31.1,24.6 31.1,24.2 31.1,23.8 31.1,23.4 
	31.1,23.1 31.1,22.7 31.1,22.3 31.1,21.9 31.1,21.6 31.1,21.2 31.1,20.8 31.1,20.4 31.1,20.1 31.1,19.7 31.1,19.3 31.2,18.9 
	31.2,18.6 31.3,18.2 31.3,17.8 31.4,17.4 31.5,17.1 31.6,16.7 31.7,16.4 31.9,16 32,15.7 32.2,15.3 "/>
<polyline class="st2" points="32.2,15.3 32.2,15.6 32.2,16 32.2,16.3 32.2,16.6 32.1,16.9 32.1,17.2 32,17.5 31.9,17.9 31.8,18.2 
	31.7,18.5 31.6,18.8 31.5,19.1 31.4,19.4 31.4,19.7 31.3,20 31.2,20.4 31.2,20.7 31.1,21 31.1,21.3 31,21.6 31,21.9 30.9,22.3 
	30.9,22.6 30.9,22.9 30.9,23.2 30.9,23.6 30.9,23.9 30.9,24.2 30.9,24.5 30.9,24.8 "/>
<polyline class="st2" points="30.9,24.8 30.8,24.5 30.7,24.1 30.7,23.8 30.6,23.4 30.6,23.1 30.5,22.7 30.5,22.3 30.6,22 30.6,21.6 
	30.6,21.3 30.7,20.9 30.7,20.5 30.8,20.2 30.9,19.8 30.9,19.5 31,19.1 31.1,18.8 31.1,18.4 31.2,18 31.3,17.7 31.4,17.3 31.5,17 
	31.5,16.6 31.6,16.3 31.7,15.9 31.8,15.6 31.9,15.2 32,14.9 32,14.5 32.1,14.2 "/>
<polyline class="st2" points="30.6,23.3 30.7,22.9 30.7,22.4 30.7,22 30.8,21.6 30.8,21.1 30.8,20.7 30.9,20.3 30.9,19.8 31,19.4 
	31.1,19 31.1,18.5 31.2,18.1 31.3,17.7 31.4,17.2 31.5,16.8 31.6,16.4 31.7,16 31.8,15.5 31.9,15.1 32,14.7 32.1,14.3 32.3,13.8 
	32.4,13.4 32.5,13 32.7,12.6 32.8,12.2 33,11.8 33.1,11.4 33.3,11 33.4,10.6 "/>
<polyline class="st2" points="33.4,10.6 33.4,10.8 33.3,11.1 33.2,11.4 33.1,11.7 33.1,12 33,12.3 32.9,12.6 32.8,12.8 32.8,13.1 
	32.7,13.4 32.6,13.7 32.5,14 32.5,14.3 32.4,14.6 32.3,14.9 32.2,15.1 32.2,15.4 32.1,15.7 32,16 31.9,16.3 31.9,16.6 31.8,16.9 
	31.7,17.2 31.6,17.4 31.6,17.7 31.5,18 31.4,18.3 31.3,18.6 31.3,18.9 31.2,19.2 "/>
<polyline class="st2" points="31.2,19.2 31.3,18.8 31.4,18.5 31.6,18.1 31.7,17.8 31.8,17.5 31.9,17.1 32,16.8 32.1,16.4 32.3,16.1 
	32.4,15.7 32.5,15.4 32.6,15 32.7,14.7 32.8,14.3 32.9,14 32.9,13.6 33,13.3 33.1,12.9 33.2,12.6 33.3,12.2 33.4,11.9 33.5,11.5 
	33.6,11.2 33.6,10.8 33.7,10.5 33.8,10.1 33.9,9.7 34,9.4 34,9 34.1,8.7 "/>
<polyline class="st2" points="32.3,16 32.5,15.7 32.6,15.3 32.7,14.9 32.9,14.6 33,14.2 33.1,13.8 33.2,13.5 33.3,13.1 33.4,12.7 
	33.5,12.4 33.6,12 33.7,11.6 33.7,11.2 33.8,10.8 33.9,10.5 33.9,10.1 34,9.7 34,9.3 34.1,8.9 34.1,8.6 34.2,8.2 34.2,7.8 34.3,7.4 
	34.3,7 34.3,6.6 34.4,6.3 34.4,5.9 34.4,5.5 34.5,5.1 34.5,4.7 "/>
<polyline class="st2" points="34.5,4.7 34.4,5.1 34.4,5.5 34.3,5.9 34.3,6.3 34.2,6.7 34.2,7.1 34.1,7.5 34,7.9 34,8.3 33.9,8.7 
	33.9,9.1 33.8,9.5 33.7,9.9 33.7,10.3 33.6,10.7 33.5,11.1 33.4,11.5 33.3,11.9 33.2,12.2 33.1,12.6 33,13 32.9,13.4 32.8,13.8 
	32.7,14.2 32.6,14.6 32.5,15 32.3,15.3 32.2,15.7 32.1,16.1 31.9,16.5 "/>
<polyline class="st2" points="31.9,16.5 32,16.1 32.1,15.7 32.2,15.3 32.2,14.9 32.3,14.5 32.4,14.1 32.5,13.7 32.5,13.3 32.6,12.9 
	32.7,12.5 32.7,12.1 32.8,11.7 32.9,11.3 32.9,10.9 33,10.5 33.1,10.1 33.1,9.7 33.2,9.3 33.2,8.9 33.3,8.5 33.3,8.1 33.4,7.7 
	33.5,7.3 33.5,6.9 33.6,6.5 33.6,6.1 33.7,5.7 33.7,5.3 33.7,4.9 33.8,4.5 "/>
<polyline class="st2" points="34.4,4.3 34.3,4.7 34.3,5.1 34.2,5.6 34.1,6 34,6.4 33.9,6.9 33.8,7.3 33.7,7.7 33.6,8.1 33.5,8.6 
	33.4,9 33.3,9.4 33.2,9.8 33.1,10.3 33,10.7 32.9,11.1 32.8,11.5 32.7,12 32.6,12.4 32.5,12.8 32.4,13.2 32.2,13.7 32.1,14.1 
	32,14.5 31.9,14.9 31.8,15.4 31.7,15.8 31.5,16.2 31.4,16.6 31.3,17 "/>
<polyline class="st2" points="33.1,11.1 33,11.6 32.9,12.1 32.8,12.6 32.6,13.1 32.5,13.7 32.4,14.2 32.3,14.7 32.1,15.2 32,15.7 
	31.8,16.2 31.7,16.7 31.5,17.2 31.4,17.7 31.3,18.2 31.1,18.7 31,19.2 30.9,19.7 30.7,20.2 30.6,20.7 30.5,21.2 30.4,21.7 
	30.4,22.2 30.3,22.8 30.3,23.3 30.2,23.8 30.2,24.3 30.3,24.8 30.4,25.3 30.7,25.8 31,26.2 "/>
<polyline class="st2" points="30.9,21.3 30.9,21.5 30.9,21.6 30.9,21.7 30.9,21.8 30.9,21.9 30.9,22.1 30.9,22.2 30.9,22.3 
	30.9,22.4 31,22.5 31,22.6 31,22.8 31,22.9 31,23 31,23.1 31.1,23.2 31.1,23.3 31.1,23.5 31.1,23.6 31.2,23.7 31.2,23.8 31.2,23.9 
	31.3,24 31.3,24.1 31.3,24.3 31.4,24.4 31.4,24.5 31.4,24.6 31.5,24.7 31.5,24.8 "/>
<polyline class="st2" points="27.5,48.2 27.2,48.4 26.9,48.6 26.6,48.8 26.3,49 26.1,49.2 25.8,49.4 25.6,49.7 25.4,50 25.2,50.2 
	25,50.5 24.8,50.8 24.6,51.1 24.4,51.4 24.3,51.7 24.1,52 24,52.3 23.8,52.6 23.7,52.9 23.6,53.2 23.4,53.5 23.3,53.8 23.3,54.2 
	23.2,54.5 23.1,54.8 23.1,55.2 23.1,55.5 23.1,55.9 23.2,56.2 23.2,56.5 23.3,56.9 23.4,57.2 "/>
<polyline class="st2" points="26.8,49.1 26.5,49.2 26.2,49.4 25.9,49.6 25.6,49.8 25.4,50.1 25.2,50.3 25,50.6 24.7,50.9 24.5,51.2 
	24.4,51.5 24.2,51.8 24,52.1 23.9,52.4 23.7,52.7 23.6,53 23.5,53.4 23.4,53.7 23.3,54 23.2,54.4 23.1,54.7 23.1,55.1 23,55.4 
	23,55.8 23,56.1 23,56.4 23,56.8 23,57.1 23,57.5 23.1,57.8 23.3,58.1 23.5,58.4 "/>
<polyline class="st2" points="24.4,52.8 24.2,52.9 24,52.9 23.9,53.1 23.8,53.3 23.7,53.4 23.6,53.6 23.5,53.8 23.5,54 23.4,54.2 
	23.4,54.4 23.3,54.6 23.3,54.8 23.3,55 23.2,55.2 23.2,55.4 23.2,55.6 23.2,55.8 23.3,56 23.3,56.3 23.3,56.5 23.4,56.7 23.4,56.9 
	23.5,57.1 23.5,57.2 23.6,57.4 23.7,57.6 23.8,57.8 24,57.9 24.2,57.9 24.4,57.9 24.6,57.8 "/>
<polyline class="st2" points="23.5,54.7 23.5,54.8 23.5,54.9 23.5,55.1 23.5,55.2 23.5,55.3 23.5,55.5 23.5,55.6 23.5,55.7 
	23.5,55.9 23.5,56 23.5,56.1 23.6,56.3 23.6,56.4 23.6,56.5 23.6,56.7 23.7,56.8 23.7,56.9 23.7,57.1 23.7,57.2 23.8,57.3 
	23.8,57.4 23.8,57.6 23.9,57.7 23.9,57.8 24,58 24,58.1 24.1,58.2 24.2,58.3 24.3,58.4 24.4,58.4 "/>
<polyline class="st2" points="23.6,54.8 23.5,55 23.5,55.2 23.6,55.4 23.6,55.6 23.7,55.8 23.7,56 23.8,56.1 23.8,56.3 23.9,56.5 
	23.9,56.7 24,56.9 24.1,57 24.1,57.2 24.2,57.4 24.2,57.6 24.3,57.8 24.4,58 24.4,58.1 24.5,58.3 24.5,58.5 24.6,58.7 24.6,58.9 
	24.7,59 24.8,59.2 24.8,59.4 24.9,59.6 24.9,59.8 25,59.9 25,60.1 25.1,60.3 "/>
<polyline class="st2" points="27.5,48.2 27.2,48.4 26.9,48.6 26.6,48.8 26.3,49 26.1,49.2 25.8,49.4 25.6,49.7 25.4,50 25.2,50.2 
	25,50.5 24.8,50.8 24.6,51.1 24.4,51.4 24.3,51.7 24.1,52 24,52.3 23.8,52.6 23.7,52.9 23.6,53.2 23.4,53.5 23.3,53.8 23.3,54.2 
	23.2,54.5 23.1,54.8 23.1,55.2 23.1,55.5 23.1,55.9 23.2,56.2 23.2,56.5 23.3,56.9 23.4,57.2 "/>
<polyline class="st2" points="26.8,49.1 26.5,49.2 26.2,49.4 25.9,49.6 25.6,49.8 25.4,50.1 25.2,50.3 25,50.6 24.7,50.9 24.5,51.2 
	24.4,51.5 24.2,51.8 24,52.1 23.9,52.4 23.7,52.7 23.6,53 23.5,53.4 23.4,53.7 23.3,54 23.2,54.4 23.1,54.7 23.1,55.1 23,55.4 
	23,55.8 23,56.1 23,56.4 23,56.8 23,57.1 23,57.5 23.1,57.8 23.3,58.1 23.5,58.4 "/>
<polyline class="st2" points="24.4,52.8 24.2,52.9 24,52.9 23.9,53.1 23.8,53.3 23.7,53.4 23.6,53.6 23.5,53.8 23.5,54 23.4,54.2 
	23.4,54.4 23.3,54.6 23.3,54.8 23.3,55 23.2,55.2 23.2,55.4 23.2,55.6 23.2,55.8 23.3,56 23.3,56.3 23.3,56.5 23.4,56.7 23.4,56.9 
	23.5,57.1 23.5,57.2 23.6,57.4 23.7,57.6 23.8,57.8 24,57.9 24.2,57.9 24.4,57.9 24.6,57.8 "/>
<polyline class="st2" points="23.5,54.7 23.5,54.8 23.5,54.9 23.5,55.1 23.5,55.2 23.5,55.3 23.5,55.5 23.5,55.6 23.5,55.7 
	23.5,55.9 23.5,56 23.5,56.1 23.6,56.3 23.6,56.4 23.6,56.5 23.6,56.7 23.7,56.8 23.7,56.9 23.7,57.1 23.7,57.2 23.8,57.3 
	23.8,57.4 23.8,57.6 23.9,57.7 23.9,57.8 24,58 24,58.1 24.1,58.2 24.2,58.3 24.3,58.4 24.4,58.4 "/>
<polyline class="st2" points="23.6,54.8 23.5,55 23.5,55.2 23.6,55.4 23.6,55.6 23.7,55.8 23.7,56 23.8,56.1 23.8,56.3 23.9,56.5 
	23.9,56.7 24,56.9 24.1,57 24.1,57.2 24.2,57.4 24.2,57.6 24.3,57.8 24.4,58 24.4,58.1 24.5,58.3 24.5,58.5 24.6,58.7 24.6,58.9 
	24.7,59 24.8,59.2 24.8,59.4 24.9,59.6 24.9,59.8 25,59.9 25,60.1 25.1,60.3 "/>
<polyline class="st2" points="27.5,48.2 27.2,48.4 26.9,48.6 26.6,48.8 26.3,49 26.1,49.2 25.8,49.4 25.6,49.7 25.4,50 25.2,50.2 
	25,50.5 24.8,50.8 24.6,51.1 24.4,51.4 24.3,51.7 24.1,52 24,52.3 23.8,52.6 23.7,52.9 23.6,53.2 23.4,53.5 23.3,53.8 23.3,54.2 
	23.2,54.5 23.1,54.8 23.1,55.2 23.1,55.5 23.1,55.9 23.2,56.2 23.2,56.5 23.3,56.9 23.4,57.2 "/>
<polyline class="st2" points="26.8,49.1 26.5,49.2 26.2,49.4 25.9,49.6 25.6,49.8 25.4,50.1 25.2,50.3 25,50.6 24.7,50.9 24.5,51.2 
	24.4,51.5 24.2,51.8 24,52.1 23.9,52.4 23.7,52.7 23.6,53 23.5,53.4 23.4,53.7 23.3,54 23.2,54.4 23.1,54.7 23.1,55.1 23,55.4 
	23,55.8 23,56.1 23,56.4 23,56.8 23,57.1 23,57.5 23.1,57.8 23.3,58.1 23.5,58.4 "/>
<polyline class="st2" points="24.4,52.8 24.2,52.9 24,52.9 23.9,53.1 23.8,53.3 23.7,53.4 23.6,53.6 23.5,53.8 23.5,54 23.4,54.2 
	23.4,54.4 23.3,54.6 23.3,54.8 23.3,55 23.2,55.2 23.2,55.4 23.2,55.6 23.2,55.8 23.3,56 23.3,56.3 23.3,56.5 23.4,56.7 23.4,56.9 
	23.5,57.1 23.5,57.2 23.6,57.4 23.7,57.6 23.8,57.8 24,57.9 24.2,57.9 24.4,57.9 24.6,57.8 "/>
<polyline class="st2" points="23.5,54.7 23.5,54.8 23.5,54.9 23.5,55.1 23.5,55.2 23.5,55.3 23.5,55.5 23.5,55.6 23.5,55.7 
	23.5,55.9 23.5,56 23.5,56.1 23.6,56.3 23.6,56.4 23.6,56.5 23.6,56.7 23.7,56.8 23.7,56.9 23.7,57.1 23.7,57.2 23.8,57.3 
	23.8,57.4 23.8,57.6 23.9,57.7 23.9,57.8 24,58 24,58.1 24.1,58.2 24.2,58.3 24.3,58.4 24.4,58.4 "/>
<polyline class="st2" points="23.6,54.8 23.5,55 23.5,55.2 23.6,55.4 23.6,55.6 23.7,55.8 23.7,56 23.8,56.1 23.8,56.3 23.9,56.5 
	23.9,56.7 24,56.9 24.1,57 24.1,57.2 24.2,57.4 24.2,57.6 24.3,57.8 24.4,58 24.4,58.1 24.5,58.3 24.5,58.5 24.6,58.7 24.6,58.9 
	24.7,59 24.8,59.2 24.8,59.4 24.9,59.6 24.9,59.8 25,59.9 25,60.1 25.1,60.3 "/>
<polyline class="st2" points="27.5,48.2 27.2,48.4 26.9,48.6 26.6,48.8 26.3,49 26.1,49.2 25.8,49.4 25.6,49.7 25.4,50 25.2,50.2 
	25,50.5 24.8,50.8 24.6,51.1 24.4,51.4 24.3,51.7 24.1,52 24,52.3 23.8,52.6 23.7,52.9 23.6,53.2 23.4,53.5 23.3,53.8 23.3,54.2 
	23.2,54.5 23.1,54.8 23.1,55.2 23.1,55.5 23.1,55.9 23.2,56.2 23.2,56.5 23.3,56.9 23.4,57.2 "/>
<polyline class="st2" points="26.8,49.1 26.5,49.2 26.2,49.4 25.9,49.6 25.6,49.8 25.4,50.1 25.2,50.3 25,50.6 24.7,50.9 24.5,51.2 
	24.4,51.5 24.2,51.8 24,52.1 23.9,52.4 23.7,52.7 23.6,53 23.5,53.4 23.4,53.7 23.3,54 23.2,54.4 23.1,54.7 23.1,55.1 23,55.4 
	23,55.8 23,56.1 23,56.4 23,56.8 23,57.1 23,57.5 23.1,57.8 23.3,58.1 23.5,58.4 "/>
<polyline class="st2" points="24.4,52.8 24.2,52.9 24,52.9 23.9,53.1 23.8,53.3 23.7,53.4 23.6,53.6 23.5,53.8 23.5,54 23.4,54.2 
	23.4,54.4 23.3,54.6 23.3,54.8 23.3,55 23.2,55.2 23.2,55.4 23.2,55.6 23.2,55.8 23.3,56 23.3,56.3 23.3,56.5 23.4,56.7 23.4,56.9 
	23.5,57.1 23.5,57.2 23.6,57.4 23.7,57.6 23.8,57.8 24,57.9 24.2,57.9 24.4,57.9 24.6,57.8 "/>
<polyline class="st2" points="23.5,54.7 23.5,54.8 23.5,54.9 23.5,55.1 23.5,55.2 23.5,55.3 23.5,55.5 23.5,55.6 23.5,55.7 
	23.5,55.9 23.5,56 23.5,56.1 23.6,56.3 23.6,56.4 23.6,56.5 23.6,56.7 23.7,56.8 23.7,56.9 23.7,57.1 23.7,57.2 23.8,57.3 
	23.8,57.4 23.8,57.6 23.9,57.7 23.9,57.8 24,58 24,58.1 24.1,58.2 24.2,58.3 24.3,58.4 24.4,58.4 "/>
<polyline class="st2" points="23.6,54.8 23.5,55 23.5,55.2 23.6,55.4 23.6,55.6 23.7,55.8 23.7,56 23.8,56.1 23.8,56.3 23.9,56.5 
	23.9,56.7 24,56.9 24.1,57 24.1,57.2 24.2,57.4 24.2,57.6 24.3,57.8 24.4,58 24.4,58.1 24.5,58.3 24.5,58.5 24.6,58.7 24.6,58.9 
	24.7,59 24.8,59.2 24.8,59.4 24.9,59.6 24.9,59.8 25,59.9 25,60.1 25.1,60.3 "/>
<polyline class="st2" points="27.5,48.2 27.2,48.4 26.9,48.6 26.6,48.8 26.3,49 26.1,49.2 25.8,49.4 25.6,49.7 25.4,50 25.2,50.2 
	25,50.5 24.8,50.8 24.6,51.1 24.4,51.4 24.3,51.7 24.1,52 24,52.3 23.8,52.6 23.7,52.9 23.6,53.2 23.4,53.5 23.3,53.8 23.3,54.2 
	23.2,54.5 23.1,54.8 23.1,55.2 23.1,55.5 23.1,55.9 23.2,56.2 23.2,56.5 23.3,56.9 23.4,57.2 "/>
<polyline class="st2" points="26.8,49.1 26.5,49.2 26.2,49.4 25.9,49.6 25.6,49.8 25.4,50.1 25.2,50.3 25,50.6 24.7,50.9 24.5,51.2 
	24.4,51.5 24.2,51.8 24,52.1 23.9,52.4 23.7,52.7 23.6,53 23.5,53.4 23.4,53.7 23.3,54 23.2,54.4 23.1,54.7 23.1,55.1 23,55.4 
	23,55.8 23,56.1 23,56.4 23,56.8 23,57.1 23,57.5 23.1,57.8 23.3,58.1 23.5,58.4 "/>
<polyline class="st2" points="24.4,52.8 24.2,52.9 24,52.9 23.9,53.1 23.8,53.3 23.7,53.4 23.6,53.6 23.5,53.8 23.5,54 23.4,54.2 
	23.4,54.4 23.3,54.6 23.3,54.8 23.3,55 23.2,55.2 23.2,55.4 23.2,55.6 23.2,55.8 23.3,56 23.3,56.3 23.3,56.5 23.4,56.7 23.4,56.9 
	23.5,57.1 23.5,57.2 23.6,57.4 23.7,57.6 23.8,57.8 24,57.9 24.2,57.9 24.4,57.9 24.6,57.8 "/>
<polyline class="st2" points="23.5,54.7 23.5,54.8 23.5,54.9 23.5,55.1 23.5,55.2 23.5,55.3 23.5,55.5 23.5,55.6 23.5,55.7 
	23.5,55.9 23.5,56 23.5,56.1 23.6,56.3 23.6,56.4 23.6,56.5 23.6,56.7 23.7,56.8 23.7,56.9 23.7,57.1 23.7,57.2 23.8,57.3 
	23.8,57.4 23.8,57.6 23.9,57.7 23.9,57.8 24,58 24,58.1 24.1,58.2 24.2,58.3 24.3,58.4 24.4,58.4 "/>
<polyline class="st2" points="23.6,54.8 23.5,55 23.5,55.2 23.6,55.4 23.6,55.6 23.7,55.8 23.7,56 23.8,56.1 23.8,56.3 23.9,56.5 
	23.9,56.7 24,56.9 24.1,57 24.1,57.2 24.2,57.4 24.2,57.6 24.3,57.8 24.4,58 24.4,58.1 24.5,58.3 24.5,58.5 24.6,58.7 24.6,58.9 
	24.7,59 24.8,59.2 24.8,59.4 24.9,59.6 24.9,59.8 25,59.9 25,60.1 25.1,60.3 "/>
<polyline class="st2" points="8.7,31.9 8.9,31.8 9.1,31.7 9.4,31.5 9.6,31.4 9.8,31.3 10.1,31.2 10.3,31.1 10.5,31 10.8,30.9 
	11,30.8 11.3,30.7 11.5,30.6 11.7,30.6 12,30.5 12.2,30.4 12.5,30.3 12.7,30.2 13,30.1 13.2,30.1 13.5,30 13.7,29.9 14,29.9 
	14.2,29.8 14.5,29.7 14.7,29.7 15,29.6 15.2,29.6 15.5,29.5 15.7,29.4 16,29.4 "/>
<polyline class="st2" points="13.5,30.2 13.7,30.2 13.9,30.1 14.1,30 14.2,29.9 14.4,29.9 14.6,29.8 14.8,29.7 15,29.6 15.1,29.5 
	15.3,29.5 15.5,29.4 15.7,29.3 15.8,29.2 16,29.1 16.2,29.1 16.4,29 16.5,28.9 16.7,28.8 16.9,28.7 17.1,28.6 17.2,28.5 17.4,28.4 
	17.6,28.3 17.8,28.2 17.9,28.1 18.1,28 18.3,27.9 18.4,27.8 18.6,27.7 18.8,27.6 18.9,27.5 "/>
<polyline class="st2" points="13.2,30.3 13.5,30.2 13.7,30.2 14,30.1 14.2,30 14.5,29.9 14.7,29.8 14.9,29.6 15.2,29.5 15.4,29.3 
	15.6,29.2 15.8,29 16,28.8 16.2,28.7 16.4,28.5 16.6,28.3 16.8,28.1 17,27.9 17.2,27.8 17.4,27.6 17.6,27.4 17.8,27.2 17.9,27 
	18.1,26.8 18.3,26.6 18.4,26.3 18.6,26.1 18.8,25.9 18.9,25.7 19.1,25.5 19.2,25.2 "/>
<polyline class="st2" points="19.2,25.2 19.1,25.5 18.9,25.7 18.8,25.9 18.6,26.1 18.5,26.3 18.3,26.6 18.2,26.8 18,27 17.8,27.2 
	17.7,27.4 17.5,27.6 17.3,27.8 17.1,28 17,28.2 16.8,28.4 16.6,28.6 16.4,28.7 16.2,28.9 16,29.1 15.8,29.3 15.6,29.5 15.4,29.6 
	15.2,29.8 15,30 14.8,30.2 14.6,30.3 14.4,30.5 14.2,30.6 14,30.8 13.8,30.9 "/>
<polyline class="st2" points="13.8,30.9 14,30.8 14.3,30.6 14.6,30.4 14.8,30.3 15.1,30.1 15.3,29.9 15.6,29.8 15.8,29.6 16.1,29.4 
	16.3,29.2 16.6,29 16.8,28.8 17.1,28.6 17.3,28.5 17.5,28.3 17.8,28.1 18,27.9 18.2,27.6 18.5,27.4 18.7,27.2 18.9,27 19.1,26.8 
	19.3,26.5 19.5,26.3 19.6,26 19.7,25.7 19.7,25.4 19.8,25.1 19.8,24.8 19.7,24.5 "/>
<polyline class="st2" points="19.7,24.5 19.6,24.7 19.6,24.9 19.5,25 19.4,25.2 19.3,25.4 19.2,25.6 19.1,25.8 19,26 18.9,26.2 
	18.8,26.4 18.7,26.6 18.6,26.8 18.4,27 18.3,27.2 18.2,27.3 18.1,27.5 18,27.7 17.8,27.9 17.7,28.1 17.6,28.2 17.4,28.4 17.3,28.6 
	17.2,28.7 17,28.9 16.9,29.1 16.7,29.2 16.6,29.4 16.4,29.6 16.3,29.7 16.1,29.9 "/>
<polyline class="st2" points="16.1,29.9 16.3,29.7 16.5,29.5 16.7,29.3 16.9,29.1 17.1,28.9 17.3,28.7 17.5,28.5 17.6,28.4 
	17.8,28.2 18,28 18.2,27.8 18.4,27.6 18.6,27.4 18.8,27.2 19,27 19.1,26.8 19.3,26.6 19.5,26.4 19.7,26.2 19.9,26 20,25.8 
	20.2,25.6 20.4,25.4 20.6,25.2 20.7,25 20.9,24.8 21.1,24.6 21.3,24.4 21.4,24.1 21.6,23.9 "/>
<polyline class="st2" points="19.1,27.6 19.2,27.3 19.3,27 19.4,26.6 19.5,26.3 19.6,25.9 19.7,25.6 19.8,25.2 19.9,24.9 20,24.5 
	20.1,24.2 20.2,23.8 20.2,23.5 20.3,23.1 20.4,22.8 20.4,22.4 20.5,22.1 20.5,21.7 20.5,21.3 20.6,21 20.6,20.6 20.6,20.3 
	20.6,19.9 20.6,19.5 20.7,19.2 20.6,18.8 20.6,18.5 20.6,18.1 20.5,17.7 20.5,17.4 20.4,17 "/>
<polyline class="st2" points="20,26.3 20.1,25.9 20.2,25.5 20.3,25.1 20.3,24.8 20.4,24.4 20.5,24 20.5,23.6 20.6,23.2 20.6,22.8 
	20.7,22.4 20.7,22 20.7,21.6 20.8,21.2 20.8,20.8 20.8,20.4 20.8,20 20.8,19.6 20.8,19.2 20.8,18.8 20.7,18.4 20.7,18 20.7,17.6 
	20.6,17.2 20.6,16.8 20.5,16.4 20.5,16 20.4,15.6 20.3,15.2 20.2,14.8 20,14.5 "/>
<polyline class="st2" points="20.2,24.7 20.1,24.1 20.1,23.5 20.1,22.9 20.1,22.3 20.1,21.7 20,21.1 20,20.5 20,19.9 20,19.3 
	20,18.7 20.1,18.1 20.1,17.5 20.1,16.8 20.2,16.2 20.2,15.6 20.3,15 20.3,14.4 20.4,13.8 20.5,13.2 20.6,12.6 20.7,12 20.9,11.4 
	21,10.8 21.2,10.3 21.4,9.7 21.6,9.1 21.8,8.5 22,8 22.3,7.4 22.5,6.9 "/>
<polyline class="st2" points="22.8,8.7 22.6,9 22.4,9.4 22.2,9.7 22,10.1 21.8,10.4 21.6,10.8 21.4,11.2 21.3,11.6 21.1,12 21,12.4 
	20.9,12.8 20.8,13.2 20.7,13.6 20.6,14 20.5,14.4 20.5,14.8 20.4,15.2 20.4,15.6 20.3,16 20.3,16.4 20.3,16.8 20.3,17.2 20.3,17.7 
	20.3,18.1 20.4,18.5 20.4,18.9 20.4,19.3 20.4,19.7 20.5,20.1 20.5,20.5 "/>
<polyline class="st2" points="20.5,20.5 20.4,20 20.4,19.5 20.4,19 20.4,18.5 20.4,18 20.4,17.4 20.4,16.9 20.5,16.4 20.5,15.9 
	20.6,15.4 20.7,14.9 20.8,14.4 20.9,13.9 21,13.4 21.1,12.9 21.3,12.4 21.4,11.9 21.6,11.4 21.7,10.9 21.9,10.4 22.1,9.9 22.2,9.4 
	22.4,9 22.6,8.5 22.8,8 23,7.5 23.2,7 23.4,6.6 23.6,6.1 23.8,5.6 24,5.1 "/>
<polyline class="st2" points="24,5.1 23.9,5.5 23.7,5.8 23.6,6.1 23.4,6.4 23.3,6.8 23.2,7.1 23,7.4 22.9,7.8 22.8,8.1 22.7,8.4 
	22.6,8.8 22.4,9.1 22.3,9.4 22.2,9.8 22.1,10.1 22,10.4 21.9,10.8 21.8,11.1 21.7,11.5 21.6,11.8 21.5,12.2 21.5,12.5 21.4,12.8 
	21.3,13.2 21.2,13.5 21.1,13.9 21.1,14.2 21,14.6 20.9,14.9 20.9,15.3 "/>
<polyline class="st2" points="20.9,15.3 20.8,14.8 20.8,14.2 20.8,13.7 20.8,13.2 20.8,12.7 20.9,12.2 21,11.6 21.1,11.1 21.3,10.6 
	21.5,10.1 21.6,9.7 21.8,9.2 22,8.7 22.2,8.2 22.5,7.7 22.7,7.3 22.9,6.8 23.2,6.3 23.4,5.9 23.7,5.5 24,5 24.3,4.6 24.6,4.2 
	24.9,3.8 25.3,3.4 25.7,3 26.1,2.7 26.5,2.4 27,2.2 27.5,1.9 "/>
<polyline class="st2" points="21.4,9.9 21.5,9.4 21.6,8.9 21.8,8.4 21.9,8 22.1,7.5 22.3,7.1 22.5,6.6 22.7,6.2 22.9,5.7 23.2,5.3 
	23.4,4.9 23.7,4.5 24,4.1 24.3,3.8 24.7,3.4 25,3.1 25.4,2.7 25.7,2.4 26.1,2.1 26.5,1.8 26.9,1.5 27.3,1.3 27.7,1 28.2,0.8 
	28.6,0.6 29.1,0.5 29.6,0.4 30.1,0.4 30.5,0.6 31,0.8 "/>
<polyline class="st2" points="23.4,4.8 23.5,4.4 23.7,4 23.8,3.6 24.1,3.3 24.3,2.9 24.6,2.6 24.9,2.3 25.2,2.1 25.5,1.8 25.9,1.5 
	26.2,1.3 26.6,1.1 27,0.9 27.4,0.8 27.8,0.6 28.2,0.5 28.6,0.4 29,0.3 29.4,0.2 29.8,0.1 30.2,0.1 30.7,0.1 31.1,0.1 31.5,0.1 
	31.9,0.1 32.3,0.2 32.8,0.3 33.2,0.4 33.6,0.5 34,0.6 "/>
<polyline class="st2" points="2.1,52.3 2,52.1 1.9,51.9 1.9,51.7 1.8,51.5 1.8,51.4 1.8,51.2 1.8,51 1.8,50.8 1.8,50.6 1.9,50.4 
	1.9,50.2 2,50 2,49.8 2.1,49.7 2.1,49.5 2.2,49.3 2.3,49.1 2.3,48.9 2.4,48.8 2.5,48.6 2.6,48.4 2.7,48.3 2.8,48.1 2.9,47.9 3,47.8 
	3.1,47.6 3.2,47.5 3.3,47.3 3.5,47.2 3.6,47 3.7,46.9 "/>
<polyline class="st2" points="23.8,56.5 24,56.8 24.1,57.2 24.3,57.6 24.5,58 24.6,58.5 24.7,58.9 24.8,59.3 24.9,59.7 25,60.1 
	25.1,60.5 25.2,61 25.2,61.4 25.3,61.8 25.3,62.3 25.3,62.7 25.3,63.1 25.3,63.6 25.3,64 25.3,64.4 25.2,64.9 25.1,65.3 25.1,65.7 
	25,66.1 24.9,66.6 24.8,67 24.6,67.4 24.5,67.8 24.3,68.2 24.2,68.6 24,69 "/>
<polyline class="st2" points="24.6,60.3 24.7,60.6 24.7,61 24.8,61.3 24.8,61.6 24.9,61.9 24.9,62.2 24.9,62.5 24.9,62.9 24.9,63.2 
	24.9,63.5 24.9,63.8 24.9,64.2 24.9,64.5 24.8,64.8 24.8,65.1 24.7,65.4 24.6,65.7 24.6,66.1 24.5,66.4 24.4,66.7 24.3,67 
	24.2,67.3 24.1,67.6 23.9,67.9 23.8,68.2 23.7,68.5 23.5,68.8 23.4,69 23.2,69.3 23,69.6 "/>
<polyline class="st2" points="24.9,62.6 25,63 25,63.3 25,63.7 24.9,64 24.9,64.4 24.9,64.7 24.8,65.1 24.8,65.4 24.7,65.7 
	24.6,66.1 24.5,66.4 24.4,66.8 24.3,67.1 24.2,67.4 24.1,67.7 23.9,68.1 23.8,68.4 23.6,68.7 23.4,69 23.2,69.3 23.1,69.6 
	22.8,69.8 22.6,70.1 22.4,70.4 22.2,70.7 21.9,70.9 21.7,71.2 21.4,71.4 21.2,71.6 20.9,71.9 20.6,72.1 "/>
<polyline class="st2" points="20.6,72.1 20.8,72 20.9,71.9 21.1,71.8 21.2,71.8 21.3,71.7 21.5,71.6 21.6,71.5 21.7,71.4 21.8,71.3 
	21.9,71.2 22.1,71.1 22.2,71 22.3,70.8 22.4,70.7 22.5,70.6 22.6,70.5 22.7,70.3 22.8,70.2 22.9,70.1 22.9,70 23,69.8 23.1,69.7 
	23.2,69.5 23.2,69.4 23.3,69.2 23.4,69.1 23.4,69 23.5,68.8 23.6,68.5 "/>
<polyline class="st2" points="23.6,68.5 23.5,68.7 23.5,68.8 23.4,69 23.3,69.1 23.2,69.3 23.2,69.4 23.1,69.6 23,69.7 22.9,69.9 
	22.8,70 22.7,70.1 22.6,70.3 22.5,70.4 22.4,70.5 22.3,70.7 22.1,70.8 22,70.9 21.9,71 21.8,71.1 21.6,71.2 21.5,71.3 21.3,71.4 
	21.2,71.5 21,71.6 20.9,71.7 20.7,71.7 20.6,71.8 20.4,71.9 20.3,72 20.1,72 "/>
<polyline class="st2" points="20.1,72 20.3,71.9 20.4,71.8 20.5,71.7 20.7,71.7 20.8,71.6 20.9,71.5 21,71.4 21.2,71.3 21.3,71.2 
	21.4,71.1 21.5,70.9 21.6,70.8 21.7,70.7 21.9,70.6 22,70.5 22.1,70.4 22.2,70.3 22.3,70.1 22.4,70 22.5,69.9 22.6,69.8 22.7,69.6 
	22.8,69.5 22.8,69.4 22.9,69.2 23,69.1 23.1,68.9 23.2,68.8 23.2,68.7 23.3,68.5 23.4,68.4 "/>
<polyline class="st2" points="23.4,68.4 23.2,68.7 23.1,68.9 22.9,69.2 22.8,69.4 22.6,69.7 22.4,69.9 22.2,70.1 22,70.4 21.8,70.6 
	21.6,70.8 21.3,71 21.1,71.2 20.9,71.4 20.6,71.5 20.4,71.7 20.1,71.9 19.8,72 19.6,72.2 19.3,72.3 19,72.4 18.8,72.6 18.5,72.7 
	18.2,72.8 17.9,72.9 17.6,73 17.4,73.1 17.1,73.2 16.8,73.3 16.5,73.4 16.2,73.5 "/>
<polyline class="st2" points="16.2,73.5 16.4,73.3 16.6,73.2 16.8,73 17,72.9 17.2,72.7 17.4,72.6 17.6,72.5 17.9,72.3 18.1,72.2 
	18.3,72.1 18.5,72 18.8,71.9 19,71.8 19.2,71.6 19.5,71.5 19.7,71.4 19.9,71.3 20.1,71.2 20.3,71 20.6,70.9 20.8,70.8 21,70.6 
	21.2,70.5 21.4,70.3 21.6,70.2 21.8,70.1 22,69.9 22.2,69.8 22.5,69.6 22.7,69.4 "/>
<polyline class="st2" points="21.5,70.4 21.4,70.5 21.2,70.7 21.1,70.8 20.9,70.9 20.8,71 20.6,71.1 20.4,71.2 20.3,71.2 20.1,71.3 
	19.9,71.3 19.7,71.4 19.5,71.4 19.3,71.5 19.1,71.5 19,71.5 18.8,71.6 18.6,71.6 18.4,71.6 18.2,71.7 18,71.7 17.8,71.7 17.6,71.7 
	17.4,71.8 17.2,71.8 17.1,71.8 16.9,71.8 16.7,71.8 16.5,71.8 16.3,71.9 16.1,71.9 15.9,71.9 "/>
<polyline class="st2" points="15.9,71.9 16.1,71.9 16.2,71.9 16.4,71.9 16.5,71.9 16.7,71.9 16.8,71.9 17,71.9 17.1,71.9 17.3,71.9 
	17.4,71.9 17.6,71.8 17.7,71.8 17.9,71.8 18,71.8 18.2,71.8 18.3,71.7 18.5,71.7 18.6,71.7 18.8,71.6 18.9,71.6 19.1,71.6 
	19.2,71.6 19.4,71.5 19.5,71.5 19.7,71.5 19.8,71.4 20,71.4 20.1,71.4 20.3,71.3 20.4,71.3 "/>
<polyline class="st2" points="20.4,71.3 20.3,71.4 20.1,71.5 19.9,71.6 19.8,71.6 19.6,71.7 19.4,71.8 19.2,71.9 19.1,71.9 18.9,72 
	18.7,72 18.5,72.1 18.3,72.1 18.1,72.1 17.9,72.2 17.8,72.2 17.6,72.2 17.4,72.2 17.2,72.2 17,72.2 16.8,72.2 16.6,72.2 16.4,72.2 
	16.2,72.2 16.1,72.1 15.9,72.1 15.7,72.1 15.5,72 15.3,72 15.1,71.9 15,71.8 "/>
<polyline class="st2" points="15,71.8 15,71.8 15.1,71.8 15.2,71.8 15.3,71.8 15.4,71.8 15.5,71.9 15.6,71.9 15.6,71.9 15.7,71.9 
	15.8,71.9 15.9,71.9 16,71.9 16.1,71.9 16.2,71.9 16.2,71.9 16.3,72 16.4,72 16.5,72 16.6,72 16.7,72 16.7,72.1 16.8,72.1 
	16.9,72.1 17,72.1 17.1,72.2 17.2,72.2 17.2,72.2 17.3,72.2 17.4,72.3 17.5,72.3 "/>
<polyline class="st2" points="17.5,72.3 17.3,72.3 17.2,72.3 17,72.3 16.9,72.3 16.7,72.3 16.6,72.3 16.4,72.3 16.3,72.2 16.1,72.2 
	16,72.2 15.8,72.2 15.7,72.2 15.5,72.2 15.4,72.1 15.2,72.1 15.1,72.1 14.9,72.1 14.8,72.1 14.6,72 14.5,72 14.3,72 14.2,72 
	14,71.9 13.9,71.9 13.7,71.9 13.6,71.9 13.4,71.8 13.3,71.8 13.2,71.8 13,71.7 "/>
<polyline class="st2" points="13,71.7 13.2,71.8 13.4,71.8 13.5,71.9 13.7,71.9 13.9,72 14.1,72.1 14.3,72.1 14.4,72.2 14.6,72.2 
	14.8,72.3 15,72.3 15.1,72.4 15.3,72.4 15.5,72.5 15.7,72.5 15.9,72.6 16.1,72.6 16.2,72.6 16.4,72.7 16.6,72.7 16.8,72.7 17,72.7 
	17.2,72.7 17.3,72.7 17.5,72.7 17.7,72.6 17.9,72.6 18.1,72.5 18.3,72.5 18.4,72.4 18.6,72.3 "/>
<polyline class="st2" points="18.6,72.3 18.5,72.4 18.4,72.4 18.3,72.4 18.2,72.4 18.1,72.4 17.9,72.5 17.8,72.5 17.7,72.5 
	17.6,72.5 17.5,72.5 17.4,72.5 17.3,72.6 17.2,72.6 17.1,72.6 17,72.6 16.9,72.6 16.7,72.6 16.6,72.7 16.5,72.7 16.4,72.7 
	16.3,72.7 16.2,72.7 16.1,72.7 16,72.7 15.9,72.8 15.8,72.8 15.6,72.8 15.5,72.8 15.4,72.8 15.3,72.8 15.2,72.8 "/>
<polyline class="st2" points="15.2,72.8 15.4,72.8 15.7,72.9 15.9,72.9 16.1,72.9 16.3,72.9 16.6,72.9 16.8,72.9 17,72.9 17.3,72.9 
	17.5,72.9 17.7,72.8 17.9,72.8 18.2,72.8 18.4,72.7 18.6,72.7 18.8,72.6 19,72.5 19.3,72.5 19.5,72.4 19.7,72.3 19.9,72.2 
	20.1,72.1 20.3,72 20.5,71.9 20.7,71.8 20.9,71.6 21,71.4 21.1,71.3 21.2,71.1 21.3,70.8 "/>
<polyline class="st2" points="21.3,70.8 21.1,71 20.9,71.2 20.7,71.3 20.5,71.4 20.3,71.6 20.1,71.7 19.9,71.8 19.6,71.9 19.4,72 
	19.2,72.1 18.9,72.2 18.7,72.3 18.5,72.3 18.2,72.4 18,72.4 17.7,72.5 17.5,72.5 17.2,72.5 17,72.5 16.7,72.5 16.5,72.5 16.2,72.5 
	16,72.5 15.7,72.5 15.5,72.4 15.2,72.3 15,72.3 14.7,72.2 14.5,72.1 14.3,72 "/>
<polyline class="st2" points="10.1,71.7 10.2,71.7 10.3,71.8 10.4,71.9 10.5,72 10.7,72 10.8,72.1 11,72.1 11.1,72.2 11.2,72.2 
	11.4,72.2 11.5,72.2 11.7,72.3 11.8,72.3 12,72.3 12.1,72.3 12.2,72.3 12.4,72.2 12.5,72.2 12.7,72.2 12.8,72.2 13,72.2 13.1,72.1 
	13.2,72.1 13.4,72 13.5,72 13.7,72 13.8,71.9 13.9,71.9 14.2,71.8 "/>
<polyline class="st2" points="14.2,71.8 14.1,71.8 14.1,71.8 14,71.8 13.9,71.8 13.8,71.8 13.7,71.8 13.6,71.8 13.6,71.8 13.5,71.8 
	13.4,71.8 13.3,71.8 13.2,71.8 13.2,71.8 13.1,71.8 13,71.8 12.9,71.8 12.8,71.9 12.8,71.9 12.7,71.9 12.6,71.9 12.5,71.9 
	12.4,71.9 12.4,71.9 12.3,71.9 12.2,71.9 12.1,71.9 12.1,72 12,72 11.9,72 11.8,72.1 11.8,72.1 "/>
<polyline class="st2" points="11.9,72.1 11.9,72.1 11.8,72.1 11.7,72.1 11.7,72.1 11.6,72.1 11.5,72.1 11.5,72.1 11.4,72.1 
	11.3,72.1 11.3,72.1 11.2,72.1 11.1,72.1 11.1,72 11,72 11,72 10.9,72 10.8,72 10.8,72 10.7,72 10.6,71.9 10.6,71.9 10.5,71.9 
	10.5,71.9 10.4,71.8 10.3,71.8 10.3,71.8 10.2,71.8 10.2,71.7 10.1,71.7 "/>
<polyline class="st2" points="10.4,72.5 9.9,72.3 9.5,72.2 9.1,72 8.6,71.9 8.2,71.8 7.7,71.7 7.3,71.6 6.8,71.5 6.4,71.5 5.9,71.4 
	5.5,71.3 5.1,71.1 4.6,71 4.2,70.8 3.8,70.6 3.4,70.3 3.1,70 2.7,69.7 2.4,69.4 2.1,69 1.9,68.7 1.6,68.3 1.4,67.9 1.1,67.5 
	0.9,67.1 0.7,66.7 0.5,66.3 0.3,65.8 0.2,65.4 0,65 "/>
<polyline class="st2" points="0,65 0.1,65.3 0.1,65.6 0.2,65.9 0.3,66.2 0.4,66.5 0.6,66.8 0.7,67.1 0.8,67.4 1,67.6 1.2,67.9 
	1.4,68.1 1.5,68.4 1.8,68.6 2,68.9 2.2,69.1 2.4,69.3 2.6,69.5 2.9,69.7 3.1,69.9 3.4,70.1 3.7,70.3 3.9,70.5 4.2,70.6 4.5,70.8 
	4.7,70.9 5,71.1 5.3,71.2 5.6,71.3 5.9,71.5 6.2,71.6 "/>
<polyline class="st2" points="6.2,71.6 5.9,71.5 5.6,71.4 5.3,71.3 5,71.2 4.7,71 4.4,70.9 4.1,70.8 3.8,70.6 3.6,70.4 3.3,70.2 
	3.1,70 2.8,69.8 2.6,69.6 2.3,69.4 2.1,69.1 1.9,68.9 1.7,68.6 1.5,68.4 1.4,68.1 1.2,67.8 1,67.6 0.9,67.3 0.8,67 0.6,66.7 
	0.5,66.4 0.4,66.1 0.4,65.8 0.3,65.5 0.2,65.1 0.2,64.8 "/>
<polyline class="st2" points="0.2,64.8 0.3,65.1 0.4,65.4 0.5,65.6 0.6,65.9 0.7,66.2 0.8,66.4 0.9,66.7 1,66.9 1.2,67.2 1.3,67.4 
	1.5,67.6 1.6,67.9 1.8,68.1 2,68.3 2.1,68.6 2.3,68.8 2.5,69 2.7,69.2 2.9,69.4 3.1,69.6 3.3,69.8 3.5,70 3.7,70.2 4,70.3 4.2,70.5 
	4.4,70.7 4.7,70.8 4.9,71 5.1,71.1 5.4,71.3 "/>
<polyline class="st2" points="0.8,68.2 1,68.4 1.2,68.5 1.5,68.7 1.7,68.8 1.9,69 2.2,69.1 2.4,69.3 2.7,69.4 2.9,69.6 3.2,69.7 
	3.4,69.8 3.7,70 3.9,70.1 4.2,70.2 4.4,70.4 4.7,70.5 4.9,70.6 5.2,70.7 5.4,70.8 5.7,71 5.9,71.1 6.2,71.2 6.5,71.3 6.7,71.4 
	7,71.5 7.3,71.5 7.6,71.6 7.8,71.7 8.1,71.7 8.4,71.8 "/>
<polyline class="st2" points="8.4,71.8 8.2,71.7 8,71.6 7.7,71.6 7.5,71.5 7.3,71.4 7.1,71.4 6.9,71.3 6.7,71.2 6.4,71.2 6.2,71.1 
	6,71.1 5.8,71 5.6,70.9 5.4,70.9 5.2,70.8 4.9,70.7 4.7,70.7 4.5,70.6 4.3,70.5 4.1,70.5 3.9,70.4 3.7,70.3 3.5,70.2 3.2,70.1 
	3,70.1 2.8,69.9 2.6,69.8 2.5,69.7 2.3,69.6 2.1,69.5 "/>
<polyline class="st2" points="2.1,69.5 2.3,69.6 2.4,69.7 2.6,69.8 2.8,69.9 3,70.1 3.2,70.2 3.4,70.3 3.5,70.4 3.7,70.5 3.9,70.6 
	4.1,70.7 4.3,70.8 4.5,70.9 4.7,71 4.9,71 5.1,71.1 5.3,71.2 5.5,71.3 5.7,71.3 5.9,71.4 6.1,71.4 6.3,71.5 6.6,71.5 6.8,71.6 
	7,71.6 7.2,71.6 7.4,71.6 7.6,71.6 7.8,71.6 8.1,71.6 "/>
<polyline class="st2" points="8.6,72 8.4,72.1 8.2,72.1 7.9,72.1 7.7,72.2 7.5,72.2 7.2,72.2 7,72.2 6.8,72.1 6.5,72.1 6.3,72.1 
	6.1,72 5.9,72 5.6,71.9 5.4,71.8 5.2,71.7 5,71.6 4.8,71.5 4.6,71.4 4.4,71.3 4.2,71.2 4,71.1 3.8,70.9 3.6,70.8 3.4,70.6 3.3,70.5 
	3.1,70.3 3,70.1 2.8,69.9 2.7,69.7 2.6,69.6 "/>
<polyline class="st2" points="7.3,72.3 6.9,72.2 6.6,72.1 6.2,72 5.9,71.9 5.6,71.7 5.3,71.6 4.9,71.4 4.6,71.2 4.3,71 4,70.8 
	3.7,70.6 3.5,70.4 3.2,70.2 2.9,69.9 2.7,69.7 2.4,69.4 2.2,69.1 2,68.8 1.8,68.5 1.6,68.2 1.4,67.9 1.2,67.6 1,67.3 0.9,67 
	0.7,66.7 0.6,66.3 0.5,66 0.4,65.6 0.3,65.3 0.2,64.9 "/>
<polyline class="st2" points="2.9,70.4 2.6,70.2 2.4,70 2.2,69.8 2,69.5 1.8,69.2 1.6,69 1.4,68.7 1.3,68.4 1.1,68.1 1,67.9 
	0.8,67.6 0.7,67.3 0.6,67 0.5,66.6 0.4,66.3 0.4,66 0.3,65.7 0.2,65.4 0.2,65.1 0.1,64.8 0.1,64.4 0.1,64.1 0,63.8 0,63.5 0,63.1 
	0,62.8 0,62.5 0,62.2 0,61.9 0,61.5 "/>
<polyline class="st2" points="1.2,66.9 1,66.8 0.8,66.7 0.6,66.4 0.5,66.2 0.5,66 0.5,65.7 0.5,65.4 0.4,65.2 0.4,64.9 0.4,64.7 
	0.4,64.4 0.4,64.2 0.4,63.9 0.4,63.7 0.4,63.4 0.4,63.1 0.4,62.9 0.4,62.6 0.4,62.4 0.4,62.1 0.5,61.9 0.5,61.6 0.6,61.4 0.6,61.1 
	0.7,60.9 0.7,60.6 0.8,60.4 0.9,60.1 1,59.9 1.1,59.7 "/>
<polyline class="st2" points="1.4,58.4 1.4,58.4 1.4,58.3 1.4,58.3 1.5,58.2 1.5,58.2 1.5,58.1 1.5,58.1 1.5,58.1 1.6,58 1.6,58 
	1.6,57.9 1.6,57.9 1.6,57.8 1.7,57.8 1.7,57.7 1.7,57.7 1.7,57.7 1.7,57.6 1.7,57.6 1.7,57.5 1.8,57.5 1.8,57.4 1.8,57.4 1.8,57.3 
	1.8,57.3 1.8,57.2 1.8,57.2 1.8,57.1 1.8,57 "/>
<polyline class="st2" points="1.8,57 1.7,57.2 1.5,57.4 1.4,57.6 1.2,57.8 1.1,58 1,58.2 0.9,58.5 0.8,58.7 0.7,58.9 0.6,59.1 
	0.5,59.4 0.4,59.6 0.4,59.9 0.3,60.1 0.3,60.3 0.2,60.6 0.2,60.8 0.1,61.1 0.1,61.3 0.1,61.6 0.1,61.8 0.1,62 0,62.3 0,62.5 0,62.8 
	0.1,63 0.1,63.3 0.1,63.5 0.1,63.8 0.2,64 "/>
<polyline class="st2" points="0.2,64 0.2,63.8 0.2,63.6 0.2,63.4 0.2,63.2 0.2,63 0.2,62.9 0.2,62.7 0.2,62.5 0.2,62.3 0.2,62.1 
	0.3,61.9 0.3,61.7 0.3,61.5 0.4,61.3 0.4,61.1 0.5,60.9 0.5,60.8 0.6,60.6 0.6,60.4 0.7,60.2 0.8,60 0.8,59.8 0.9,59.7 0.9,59.5 
	1,59.3 1.1,59.1 1.2,58.9 1.2,58.8 1.3,58.6 1.4,58.4 "/>
<polyline class="st2" points="0.5,64 0.5,63.8 0.5,63.5 0.5,63.3 0.6,63 0.6,62.8 0.6,62.5 0.7,62.3 0.7,62 0.7,61.8 0.8,61.5 
	0.8,61.3 0.9,61 0.9,60.8 1,60.5 1,60.3 1.1,60.1 1.2,59.8 1.2,59.6 1.3,59.3 1.4,59.1 1.5,58.9 1.6,58.6 1.6,58.4 1.7,58.2 
	1.8,57.9 1.9,57.7 2,57.5 2.1,57.2 2.2,57 2.3,56.8 "/>
<polyline class="st2" points="2.2,53.3 2.2,53.5 2.2,53.6 2.2,53.8 2.2,53.9 2.2,54.1 2.1,54.2 2.1,54.4 2.1,54.5 2.1,54.7 2,54.8 
	2,55 1.9,55.1 1.9,55.3 1.9,55.4 1.8,55.6 1.8,55.7 1.7,55.8 1.7,56 1.7,56.1 1.6,56.3 1.6,56.4 1.5,56.6 1.5,56.7 1.5,56.9 1.4,57 
	1.4,57.2 1.4,57.3 1.3,57.5 1.3,57.6 1.3,57.8 "/>
<polyline class="st2" points="1.3,57.8 1.4,57.7 1.5,57.5 1.6,57.4 1.7,57.3 1.7,57.2 1.8,57 1.9,56.9 1.9,56.7 2,56.6 2,56.4 
	2,56.3 2.1,56.1 2.1,56 2.1,55.8 2.1,55.7 2.1,55.5 2.2,55.3 2.2,55.2 2.2,55 2.2,54.9 2.2,54.7 2.2,54.6 2.2,54.4 2.2,54.3 
	2.2,54.1 2.2,53.9 2.2,53.8 2.2,53.6 2.2,53.5 2.2,53.3 "/>
<polyline class="st2" points="0.9,59.6 0.9,59.4 1,59.2 1.1,59 1.2,58.8 1.3,58.6 1.4,58.4 1.5,58.1 1.5,57.9 1.6,57.7 1.7,57.5 
	1.8,57.3 1.8,57.1 1.9,56.8 2,56.6 2,56.4 2.1,56.2 2.1,56 2.2,55.7 2.2,55.5 2.3,55.3 2.3,55.1 2.3,54.8 2.3,54.6 2.3,54.4 
	2.3,54.1 2.3,53.9 2.3,53.7 2.3,53.4 2.2,53.2 2.2,53 2.2,52.8 "/>
<polyline class="st2" points="1.9,56.4 1.9,56.1 1.8,55.7 1.8,55.4 1.7,55 1.7,54.6 1.7,54.3 1.7,53.9 1.7,53.6 1.8,53.2 1.8,52.8 
	1.9,52.5 2,52.1 2,51.8 2.1,51.4 2.2,51.1 2.3,50.7 2.4,50.4 2.5,50.1 2.6,49.7 2.8,49.4 2.9,49 3,48.7 3.2,48.4 3.3,48 3.4,47.7 
	3.6,47.4 3.7,47 3.9,46.7 4.1,46.4 4.3,46.1 "/>
<polyline class="st2" points="4.3,46.1 4.1,46.3 4,46.6 3.8,46.8 3.7,47.1 3.5,47.4 3.4,47.6 3.3,47.9 3.2,48.1 3.1,48.4 2.9,48.7 
	2.8,49 2.8,49.2 2.7,49.5 2.6,49.8 2.5,50.1 2.4,50.3 2.4,50.6 2.3,50.9 2.2,51.2 2.2,51.5 2.2,51.8 2.1,52.1 2.1,52.3 2.1,52.6 
	2,52.9 2,53.2 2,53.5 2,53.8 2,54.1 2,54.4 "/>
<polyline class="st2" points="2.5,52.5 2.5,52.3 2.5,52.2 2.5,52.1 2.5,51.9 2.5,51.8 2.5,51.7 2.5,51.5 2.5,51.4 2.5,51.3 
	2.5,51.1 2.5,51 2.4,50.8 2.4,50.7 2.4,50.6 2.4,50.4 2.4,50.3 2.4,50.2 2.4,50 2.4,49.9 2.4,49.8 2.4,49.6 2.4,49.5 2.4,49.4 
	2.4,49.2 2.4,49.1 2.4,49 2.4,48.8 2.4,48.7 2.3,48.6 2.3,48.4 "/>
<polyline class="st2" points="2.3,48.4 2.3,48.5 2.2,48.6 2.1,48.7 2.1,48.9 2.1,49 2,49.1 2,49.2 2,49.4 2,49.5 2,49.6 2,49.7 
	2,49.9 2,50 2,50.1 2,50.2 2,50.4 2,50.5 2.1,50.6 2.1,50.8 2.1,50.9 2.1,51 2.1,51.1 2.1,51.3 2.1,51.4 2.1,51.5 2.1,51.6 
	2.1,51.8 2.1,51.9 2.1,52 2.1,52.1 2.1,52.3 "/>
<polyline class="st2" points="3.7,46.9 3.6,47.1 3.4,47.3 3.3,47.5 3.2,47.8 3.1,48 3,48.2 2.9,48.5 2.8,48.7 2.7,48.9 2.7,49.2 
	2.6,49.4 2.5,49.7 2.5,49.9 2.4,50.1 2.3,50.4 2.3,50.6 2.2,50.9 2.2,51.1 2.1,51.4 2.1,51.6 2.1,51.9 2,52.1 2,52.4 2,52.6 2,52.9 
	2,53.1 2,53.4 2.1,53.6 2.1,53.9 2.2,54.1 "/>
<polyline class="st2" points="2.2,54.1 2.2,53.9 2.2,53.7 2.2,53.5 2.3,53.3 2.3,53 2.3,52.8 2.3,52.6 2.3,52.4 2.4,52.2 2.4,52 
	2.4,51.8 2.5,51.6 2.5,51.4 2.6,51.2 2.6,51 2.7,50.8 2.7,50.6 2.8,50.4 2.8,50.2 2.9,50 3,49.8 3,49.6 3.1,49.4 3.2,49.2 3.2,49 
	3.3,48.8 3.4,48.6 3.5,48.4 3.6,48.2 3.7,48 "/>
<polyline class="st2" points="3.8,46.7 3.9,46.6 3.9,46.5 3.9,46.3 4,46.2 4,46.1 4.1,46 4.1,45.9 4.1,45.8 4.2,45.7 4.2,45.6 
	4.2,45.5 4.2,45.4 4.3,45.3 4.3,45.2 4.3,45.1 4.3,44.9 4.4,44.8 4.4,44.7 4.4,44.6 4.4,44.5 4.4,44.4 4.5,44.3 4.5,44.2 4.5,44.1 
	4.5,43.9 4.5,43.8 4.5,43.7 4.5,43.6 4.5,43.4 "/>
<polyline class="st2" points="4.5,43.4 4.5,43.5 4.5,43.5 4.5,43.6 4.5,43.7 4.6,43.7 4.6,43.8 4.6,43.8 4.6,43.9 4.6,44 4.6,44 
	4.6,44.1 4.5,44.2 4.5,44.2 4.5,44.3 4.5,44.4 4.5,44.4 4.5,44.5 4.5,44.6 4.5,44.6 4.5,44.7 4.5,44.8 4.5,44.8 4.5,44.9 4.5,44.9 
	4.5,45 4.5,45.1 4.5,45.1 4.5,45.2 4.5,45.3 4.5,45.3 4.5,45.4 "/>
<polyline class="st2" points="4.5,45.4 4.5,45.3 4.5,45.2 4.5,45.1 4.5,45 4.5,44.9 4.5,44.7 4.5,44.6 4.5,44.5 4.5,44.4 4.5,44.3 
	4.5,44.2 4.5,44.1 4.5,44 4.5,43.9 4.6,43.8 4.6,43.7 4.6,43.5 4.6,43.4 4.6,43.3 4.6,43.2 4.6,43.1 4.6,43 4.6,42.9 4.6,42.8 
	4.6,42.7 4.6,42.6 4.6,42.5 4.6,42.3 4.6,42.2 4.6,42.1 "/>
<polyline class="st2" points="4.8,44.9 4.8,44.5 4.8,44.2 4.8,43.8 4.7,43.4 4.7,43.1 4.6,42.7 4.6,42.3 4.6,42 4.5,41.6 4.5,41.2 
	4.5,40.9 4.5,40.5 4.4,40.1 4.4,39.8 4.4,39.4 4.5,39 4.5,38.7 4.5,38.3 4.6,37.9 4.6,37.6 4.7,37.2 4.8,36.9 4.9,36.5 5.1,36.2 
	5.2,35.8 5.4,35.5 5.6,35.2 5.8,34.9 6,34.6 6.3,34.3 "/>
<polyline class="st2" points="4.6,43.3 4.6,43 4.5,42.7 4.5,42.4 4.5,42.2 4.5,41.9 4.5,41.6 4.5,41.3 4.5,41 4.5,40.7 4.5,40.4 
	4.6,40.1 4.6,39.8 4.6,39.6 4.7,39.3 4.7,39 4.8,38.7 4.8,38.4 4.9,38.1 5,37.8 5,37.6 5.1,37.3 5.2,37 5.3,36.7 5.4,36.5 5.5,36.2 
	5.6,35.9 5.7,35.6 5.8,35.4 5.9,35.1 6.1,34.8 "/>
<polyline class="st2" points="6.1,34.8 6,35.1 6,35.3 6,35.5 5.9,35.8 5.9,36 5.8,36.2 5.8,36.5 5.8,36.7 5.7,36.9 5.7,37.1 
	5.6,37.4 5.6,37.6 5.5,37.8 5.5,38.1 5.4,38.3 5.4,38.5 5.3,38.7 5.3,39 5.2,39.2 5.2,39.4 5.1,39.6 5,39.9 5,40.1 4.9,40.3 
	4.8,40.5 4.8,40.7 4.7,41 4.6,41.2 4.6,41.4 4.5,41.6 "/>
<polyline class="st2" points="4.5,41.6 4.5,41.4 4.5,41.1 4.5,40.8 4.5,40.5 4.5,40.3 4.5,40 4.6,39.7 4.6,39.5 4.7,39.2 4.7,38.9 
	4.8,38.7 4.8,38.4 4.9,38.1 5,37.9 5.1,37.6 5.2,37.3 5.3,37.1 5.4,36.8 5.5,36.6 5.6,36.3 5.7,36.1 5.8,35.8 5.9,35.6 6,35.3 
	6.1,35.1 6.2,34.8 6.3,34.6 6.4,34.3 6.6,34.1 6.7,33.8 "/>
<polyline class="st2" points="4.1,41.1 4.1,40.7 4.1,40.4 4.2,40.1 4.2,39.8 4.2,39.4 4.3,39.1 4.3,38.8 4.4,38.5 4.5,38.2 
	4.5,37.8 4.6,37.5 4.7,37.2 4.8,36.9 4.9,36.6 5,36.3 5.2,36 5.3,35.7 5.4,35.4 5.6,35.1 5.7,34.8 5.9,34.5 6,34.2 6.2,33.9 
	6.4,33.7 6.6,33.4 6.8,33.1 6.9,32.9 7.2,32.6 7.4,32.4 7.6,32.1 7.8,31.9 "/>
<polyline class="st2" points="4.1,38.4 4.2,38.1 4.2,37.7 4.2,37.4 4.3,37 4.4,36.6 4.5,36.3 4.6,36 4.8,35.6 4.9,35.3 5.1,35 
	5.3,34.7 5.5,34.4 5.7,34 5.9,33.7 6.1,33.4 6.3,33.2 6.5,32.9 6.8,32.6 7,32.3 7.2,32 7.5,31.7 7.7,31.5 8,31.3 8.3,31 8.6,30.8 
	8.9,30.7 9.3,30.6 9.6,30.5 10,30.5 10.4,30.5 10.7,30.6 "/>
<polyline class="st2" points="4.8,35.5 5,35.1 5.1,34.7 5.3,34.4 5.5,34 5.7,33.7 5.9,33.4 6.2,33.1 6.4,32.8 6.7,32.5 7,32.3 
	7.3,32 7.6,31.8 7.9,31.6 8.2,31.3 8.5,31.1 8.9,30.9 9.2,30.7 9.6,30.5 9.9,30.4 10.2,30.2 10.6,30 10.9,29.8 11.3,29.7 11.7,29.5 
	12,29.4 12.4,29.3 12.8,29.2 13.2,29.1 13.5,29.1 13.9,29 "/>
<polyline class="st2" points="7.5,32.4 7.7,32.2 7.8,32 8,31.8 8.3,31.6 8.5,31.5 8.7,31.4 8.9,31.2 9.2,31.1 9.4,31 9.7,30.8 
	9.9,30.7 10.1,30.6 10.4,30.5 10.6,30.4 10.9,30.3 11.1,30.2 11.4,30.1 11.6,30 11.9,29.9 12.1,29.8 12.4,29.7 12.6,29.6 12.9,29.6 
	13.1,29.5 13.4,29.4 13.7,29.3 13.9,29.3 14.2,29.3 14.4,29.4 14.7,29.5 "/>
<polyline class="st2" points="11.6,72 11.5,72.1 11.4,72.1 11.3,72.1 11.2,72.1 11.1,72.2 11,72.2 10.9,72.2 10.7,72.3 10.6,72.3 
	10.5,72.3 10.4,72.4 10.3,72.4 10.2,72.4 10.1,72.5 10,72.5 9.9,72.5 9.8,72.5 9.7,72.6 9.6,72.6 9.4,72.6 9.3,72.6 9.2,72.7 
	9.1,72.7 9,72.7 8.9,72.7 8.8,72.7 8.7,72.7 8.5,72.7 8.3,72.6 "/>
<polyline class="st2" points="9.8,72.2 9.8,72.2 9.7,72.2 9.7,72.2 9.7,72.2 9.7,72.2 9.6,72.2 9.6,72.2 9.6,72.2 9.5,72.2 
	9.5,72.2 9.5,72.2 9.4,72.2 9.4,72.2 9.4,72.2 9.4,72.2 9.3,72.2 9.3,72.2 9.3,72.2 9.2,72.2 9.2,72.2 9.2,72.2 9.1,72.2 9.1,72.2 
	9.1,72.2 9.1,72.2 9,72.2 9,72.2 9,72.2 8.9,72.2 "/>
<polyline class="st2" points="10.1,72.1 9.9,72.2 9.8,72.2 9.6,72.2 9.5,72.2 9.3,72.2 9.2,72.2 9,72.2 8.9,72.2 8.7,72.2 8.6,72.2 
	8.4,72.2 8.3,72.2 8.1,72.2 8,72.2 7.8,72.2 7.7,72.2 7.5,72.2 7.4,72.2 7.2,72.1 7.1,72.1 6.9,72.1 6.8,72.1 6.6,72 6.5,72 6.3,72 
	6.2,71.9 6.1,71.9 5.9,71.8 5.6,71.8 "/>
<polyline class="st2" points="8.3,72.6 8.4,72.6 8.4,72.6 8.5,72.6 8.5,72.6 8.6,72.6 8.6,72.6 8.7,72.6 8.7,72.6 8.8,72.5 
	8.8,72.5 8.9,72.5 8.9,72.5 9,72.5 9,72.5 9.1,72.5 9.1,72.5 9.2,72.4 9.2,72.4 9.3,72.4 9.3,72.4 9.4,72.4 9.4,72.4 9.5,72.4 
	9.5,72.3 9.6,72.3 9.6,72.3 9.7,72.3 9.7,72.3 9.8,72.2 "/>
<polyline class="st2" points="8.9,72.2 8.9,72.2 9,72.2 9,72.2 9.1,72.2 9.1,72.2 9.1,72.2 9.2,72.2 9.2,72.2 9.3,72.2 9.3,72.2 
	9.3,72.2 9.4,72.2 9.4,72.2 9.4,72.2 9.5,72.2 9.5,72.2 9.6,72.2 9.6,72.2 9.6,72.2 9.7,72.2 9.7,72.2 9.7,72.2 9.8,72.1 9.8,72.1 
	9.9,72.1 9.9,72.1 9.9,72.1 10,72.1 10.1,72.1 "/>
</svg>
