<?xml version="1.0" encoding="utf-8"?>
<!-- Generator: Adobe Adobe Illustrator 24.2.0, SVG Export Plug-In . SVG Version: 6.00 Build 0)  -->
<svg version="1.1" xmlns="http://www.w3.org/2000/svg" xmlns:xlink="http://www.w3.org/1999/xlink" x="0px" y="0px" width="800px"
	 height="800px" viewBox="0 0 800 800" style="enable-background:new 0 0 800 800;" xml:space="preserve">
<style type="text/css">
	.st0{fill:none;stroke:#000000;stroke-width:0.5;stroke-miterlimit:10;stroke-dasharray:0,0,0,0,0,0;}
	.st1{fill:none;stroke:#000000;stroke-width:0.5;stroke-miterlimit:10;}
</style>
<g id="Layer_2">
	<path class="st0" d="M358.1,242.61c13.88-4.32,29.91-2.44,42.13,4.95c2.64,1.6,5.22,3.56,6.35,6.26"/>
	<path class="st0" d="M288.63,249.3c9-7.5,22.18-10.59,34.04-7.98"/>
	<path class="st0" d="M299.42,244.55c-3.19,7.55-6.02,15.35-6.45,23.43c-0.43,8.08,1.78,16.55,7.65,22.61"/>
	<path class="st0" d="M318.03,242.39c5.24,5.23,7.4,12.39,8.9,19.34c1.08,5.04,1.91,10.16,1.62,15.29
		c-0.29,5.13-1.75,10.29-4.91,14.54"/>
	<path class="st0" d="M362.82,242.72c-3.99,9.74-6.13,20.1-6.3,30.49c-0.11,6.74,0.78,13.92,5.39,19.19"/>
	<path class="st0" d="M385.36,297.68c3.97,0.36,7.98-1.07,11.07-3.38c3.08-2.31,5.32-5.45,7.01-8.74
		c3.31-6.46,4.68-13.73,3.91-20.82"/>
	<path class="st0" d="M321.06,296.21c1.64-2.65,4.6-4.47,7.76-5.45c3.16-0.98,6.55-1.18,9.89-1.22c7.79-0.08,16.27,1.01,21.71,6.09"
		/>
	<path class="st0" d="M323.11,294.77c-8.2,16.71-6.68,37.09,3.93,52.63"/>
	<path class="st0" d="M364.51,296.19c8.96,3.83,19.49,2.91,29.11,0.77"/>
	<path class="st0" d="M358.47,291.47c-4.43-1.62-8.96-3.26-13.73-3.46c-6.07-0.25-11.93,1.86-17.57,3.93"/>
	<path class="st0" d="M366.74,265.57c-4.09,1.85-6.92,5.62-7.86,9.69s-0.11,8.37,1.79,12.15c0.8,1.59,1.81,3.12,3.24,4.28
		c2.33,1.89,5.66,2.6,8.74,2.14c3.08-0.46,5.89-2.01,8.01-4.08c4.15-4.05,5.66-10.21,3.8-15.49S376.35,261.23,366.74,265.57z"/>
	<path class="st0" d="M324.92,268.65c-0.69-2.02-3.26-3.01-5.58-3.15c-4.16-0.24-8.34,1.46-11.19,4.23
		c-2.85,2.78-4.41,6.54-4.67,10.33c-0.25,3.65,0.79,7.54,3.64,10.12c2.99,2.71,7.83,3.56,11.72,2.05c4.88-1.89,7.57-6.93,7.84-11.76
		C326.95,275.65,325.67,270.85,324.92,268.65z"/>
	<path class="st0" d="M295.66,219.02c2.61-14.6,13.41-26.99,25.86-36.49c12.45-9.5,26.76-16.75,39.71-25.68
		c12.95-8.93,24.89-20.1,29.84-34.19c2.19-6.25,2.93-12.87,2.69-19.42c-1.07-29.17-23.03-56.81-53.13-66.84"/>
	<path class="st0" d="M392.91,155.7c7.25-11.41,12.96-23.8,15.05-36.84c2.09-13.05,0.38-26.81-6.43-38.44
		c-3.27-5.58-7.63-10.57-12.28-15.28c-12.54-12.71-27.64-23.75-45.27-29.61"/>
	<path class="st0" d="M391.14,160.99c12.94-10.83,24.25-23.88,29.43-39.18c2.53-7.47,3.25-16.39-2.28-22.37"/>
	<path class="st0" d="M394.02,201.87c0.46-11.48,6.08-22.24,12.38-32.18c6.31-9.94,13.47-19.58,17.55-30.44
		c4.08-10.87,4.68-23.5-1.89-33.3"/>
	<path class="st0" d="M399.2,185.03c10.16,18.26,36.5,23.95,49.98,40.33c11.67,14.18,11.54,33.54,9.44,51.16"/>
	<path class="st0" d="M299.98,202.38c-10.29,10.66-19.17,22.68-24.21,36.12c-5.04,13.44-6.03,28.4,0.89,42.63
		c-5.34,3.57-10.74,7.19-14.89,11.89c-5.75,6.53-8.76,15.03-8.28,23.39c0.48,8.36,4.45,16.52,10.92,22.47"/>
	<path class="st0" d="M455.94,286.17c1.66-9.73,3.32-19.52,3.11-29.37s-2.4-19.85-7.97-28.29c-11.44-17.37-34.49-25.01-50.53-39.04"
		/>
	<path class="st0" d="M420.48,351.75c9.59-0.86,19.3-1.86,28.27-5.05c8.98-3.19,17.27-8.87,21.26-16.86c2-4,2.84-8.41,3.11-12.8
		c0.29-4.69-0.06-9.45-1.65-13.92c-3.05-8.58-10.35-15.32-17.96-21.09"/>
	<path class="st0" d="M361.73,299.66c2.55,2.34,3,6.09,1.97,9.25c-1.04,3.16-3.33,5.84-5.75,8.29c-2.23,2.26-4.6,4.39-7.1,6.4
		c-2.98,2.39-6.16,4.59-8.89,7.21c-4.05,3.88-7.06,8.64-8.71,13.78c-0.38,1.18-0.72,2.44-1.65,3.34c-0.92,0.9-2.66,1.25-3.61,0.36"
		/>
	<path class="st0" d="M325.75,296.02c-6.76,15.82-6.48,34.04,0.75,49.68"/>
	<path class="st0" d="M292.76,243.24c7.74-4.46,17.25-6.3,26.32-5.09"/>
	<path class="st0" d="M396.12,242.99c-2.41-1.69-5.45-2.43-8.4-3.12c-7.72-1.82-15.73-3.65-23.59-2.44"/>
	<path class="st0" d="M405.08,249.29c-10.85-9.82-27.39-14.09-42.28-10.92"/>
	<path class="st0" d="M404.32,246.28c-5.1-4.13-11.5-6.79-18.12-8.32c-6.62-1.53-13.48-1.98-20.31-2.1"/>
	<path class="st0" d="M410.48,254.78c-7.13-5.64-15.49-10.07-24.58-12.43c-9.08-2.36-18.9-2.6-27.96-0.18"/>
	<path class="st0" d="M356.61,245.4c11.7-4.74,25.53-4.9,37.37-0.44"/>
	<path class="st0" d="M289.25,249.26c9.96-6.46,22.81-9.09,34.84-7.12"/>
	<path class="st0" d="M356.87,243.48c16.11-5.26,35.09-2.5,48.6,7.08"/>
	<path class="st0" d="M322.28,240.47c-7.01-0.27-14.12-0.54-20.94,0.97c-3.66,0.81-7.21,2.14-10.3,4.1"/>
	<path class="st0" d="M315.48,236.18c-6.19-0.18-12.43,1.19-17.85,3.92"/>
	<path class="st0" d="M426.81,297.51c-9.76-3.22-20.66-3.54-30.62-0.88c-10.04,2.67-19.63,9.01-22.47,18.18
		c-1.53,4.95-0.82,10.67,2.84,14.6c2.26,2.43,5.44,4.01,8.69,5.21c12.44,4.6,26.99,4.22,39.11-1.04
		c5.63-2.44,10.93-6.09,13.57-11.24C440.56,317.19,444.9,303.48,426.81,297.51z"/>
	<path class="st0" d="M316.73,299.96c-4.01-4.6-10.42-6.89-16.71-8.2c-6.24-1.3-12.98-1.81-18.89,0.43
		c-5.91,2.24-10.63,7.87-9.66,13.64c0.53,3.11,2.57,5.84,4.91,8.15c4.24,4.17,9.76,7.38,15.87,8.48c6.12,1.1,12.83-0.06,17.67-3.64
		S317.44,309.14,316.73,299.96z"/>
	<path class="st0" d="M263.93,334.64c0.91,3.2,3.52,5.8,6.45,7.76c5.51,3.69,12.47,5.55,19.3,5.16"/>
	<path class="st0" d="M286.72,342.34c1.27,2.17,2.57,4.37,4.55,6.04c4.22,3.56,10.5,3.95,15.73,3.11c7.62,6.7,19.16,9.45,29.41,7.02
		"/>
	<path class="st0" d="M386.75,355.75c6.97,3.94,15.76,3.64,23.94,3.13c3.87-0.24,7.78-0.51,11.45-1.66s7.12-3.28,8.9-6.41"/>
	<path class="st0" d="M290.76,389.95c-5.37,7.83-8.84,16.74-10.09,25.9c-0.37,2.7-0.5,5.61,1.02,7.94c1.52,2.34,5.3,3.62,7.6,1.89"
		/>
	<path class="st0" d="M290.1,353.13c-8.13,10.08-13.14,22.24-14.3,34.7c-0.5,5.34-0.15,11.14,3.47,15.36"/>
	<path class="st0" d="M293.51,415.57c-3.48,8.95-4.31,18.73-2.39,28.06c0.47,2.29,1.13,4.6,2.52,6.56s3.63,3.53,9.37,4.88
		c-1.58,8.38,1.48,17.38,7.98,23.48"/>
	<path class="st0" d="M393.44,358.33c-13.07,12.17-21.65,28.27-24.05,45.16c-2.41,16.88,1.38,34.45,10.6,49.25"/>
	<path class="st0" d="M378.22,415.39c-0.86,11.16-1.72,22.37-0.68,33.51c1.04,11.14,4.08,22.31,10.5,31.84
		c3.22,4.78,7.92,9.43,14.05,9.96"/>
	<path class="st0" d="M405.52,460.93c-3.93,11.98-4.12,24.95-0.55,37.02c1.31,4.42,3.15,8.78,6.16,12.45
		c3.88,4.73,9.46,8.02,14.92,11.21"/>
	<path class="st0" d="M429.17,500.73c-5.03,8.28-3.98,18.56-0.97,27.63c2.73,8.22,7.79,16.76,16.7,19.57"/>
	<path class="st0" d="M449.73,347.87c18,7.8,31.25,22.52,41.66,38.01c34.95,52,43.35,118.15,22.36,176.04"/>
	<path class="st0" d="M442.94,526.76c-2.5,8.49,0.43,17.88,6.51,24.71s14.98,11.27,24.33,13.47"/>
	<path class="st0" d="M474.41,544.63c2.01,7.49,7.22,14.24,14.28,18.49c7.06,4.26,15.91,5.98,24.27,4.74"/>
	<path class="st0" d="M311.02,478.25c4.79,24.09,22.33,45.8,46.15,57.14c23.82,11.34,53.41,12.04,77.85,1.87"/>
	<path class="st0" d="M287.63,348.44c-28.38,32.29-34.52,79.52-15.2,116.95c2.82,5.45,6.28,10.87,11.64,14.4"/>
	<path class="st0" d="M279.63,476.06c5.25,27.44,30.41,50.79,60.43,56.09"/>
	<path class="st0" d="M426.77,536.52c11.74,49.92,31.79,98.65,63.3,140.87c31.51,42.22,74.92,77.75,126.51,97.71"/>
	<path class="st0" d="M501.45,567.46c-2.52,83.23,43.79,166.4,119.01,213.71"/>
	<path class="st0" d="M341.46,532.77c-0.26,5.41-0.49,11.01,1.69,16.06c2.18,5.04,7.46,9.4,13.4,9.06"/>
	<path class="st0" d="M356.97,552.21c-0.02,2.01,0,4.16,1.2,5.85c1.12,1.59,3.12,2.52,5.15,2.88s4.13,0.21,6.19,0.05
		c0,0,1.27,0.35,1.96,0.04c3.65-0.31,6.57-3.81,5.91-7.09"/>
	<path class="st0" d="M378.63,556.37c2.22-0.99,3.92-2.88,4.55-5.06c0.63-2.17,0.18-4.59-1.21-6.45"/>
	<path class="st0" d="M386.52,545.77c0.78,3.64,1.57,7.29,2.8,10.83c0.64,1.84,1.44,3.7,2.92,5.07s3.81,2.16,5.77,1.45"/>
	<path class="st0" d="M400.73,559.11c0.44,1.9,1.07,4.04,2.95,4.96c0.86,0.42,1.85,0.52,2.83,0.56c3.02,0.14,6.07-0.12,9.01-0.78
		l2.12,0.22"/>
	<path class="st0" d="M416.03,564.7c1.98,1.47,4.83,1.9,7.23,1.09c2.3-0.78,4.06-2.59,5.06-4.63s1.3-4.32,1.34-6.55l-4.64-19.94"/>
	<path class="st0" d="M356.23,556.93c0.34,8.85-1.53,17.77-5.43,25.88"/>
	<path class="st0" d="M368.16,560.53c-1.6,10.25-1.81,20.67-1.46,31.58c-0.44,3.02-2.07,5.87-4.52,7.94
		c-1.91,1.61-4.25,2.72-6.52,3.89c-6.8,3.49-13.3,7.72-17.96,13.42"/>
</g>
<g id="Layer_3">
	<path class="st0" d="M370.01,264.36c-4.48,3.94-8.4,8.41-11.63,13.26"/>
	<path class="st0" d="M371.86,265.34c-4.91,4.77-9.36,9.93-13.27,15.41"/>
	<path class="st0" d="M375.68,264.48c-6,5.78-11.46,12.02-16.29,18.64"/>
	<path class="st0" d="M377.05,266.05c-6.41,6.12-12.23,12.76-17.38,19.8"/>
	<path class="st0" d="M360.99,287.71c4.79-7.05,10.23-13.73,16.25-19.95"/>
	<path class="st0" d="M361.71,289.3c5.53-7.33,11.6-14.32,18.16-20.9"/>
	<path class="st0" d="M363.24,291.19c5.7-7.99,12.08-15.57,19.06-22.66"/>
	<path class="st0" d="M365.17,292.07c4.88-7.5,10.53-14.57,16.87-21.1"/>
	<path class="st0" d="M367.24,292.64c5.04-7.01,10.34-13.85,15.9-20.53"/>
	<path class="st0" d="M369.87,292.75c4.52-6.88,9.3-13.62,14.32-20.21"/>
	<path class="st0" d="M373.21,291.95c3.11-5.75,6.91-11.2,11.3-16.2"/>
	<path class="st0" d="M376.45,291.45c2.3-4.36,5.14-8.49,8.44-12.28"/>
	<path class="st0" d="M381.09,287.74c1.13-2.64,2.56-5.17,4.26-7.53"/>
	<path class="st0" d="M313.36,266.74c-2.94,2.51-5.6,5.29-7.92,8.3"/>
	<path class="st0" d="M316.74,266.05c-5.53,4.6-10.39,9.87-14.42,15.63"/>
	<path class="st0" d="M319.67,265.67c-5.56,5.39-10.67,11.15-15.28,17.23"/>
	<path class="st0" d="M321.67,266.12c-6.39,6.76-12.37,13.83-17.91,21.18"/>
	<path class="st0" d="M322.79,267.63c-5.67,6.19-11.03,12.61-16.07,19.23"/>
	<path class="st0" d="M324.76,267.72c-6.57,7.07-12.71,14.47-18.38,22.16"/>
	<path class="st0" d="M324.61,270.33c-5.73,6.34-11.13,12.93-16.18,19.73"/>
	<path class="st0" d="M309.53,291.51c4.58-6.28,9.59-12.31,14.98-18.03"/>
	<path class="st0" d="M311.76,291.95c3.75-5.56,7.83-10.93,12.24-16.08"/>
	<path class="st0" d="M325.43,276.28c-4.49,5.33-8.78,10.8-12.84,16.41"/>
	<path class="st0" d="M324.82,278.7c-3.01,4.92-6.26,9.72-9.74,14.37"/>
	<path class="st0" d="M325.19,280.98c-2.48,3.83-4.95,7.67-7.43,11.5"/>
	<path class="st0" d="M325.81,282.78c-1.27,1.97-2.54,3.95-3.81,5.92c-0.35,0.55-0.71,1.12-0.81,1.75"/>
	<path class="st1" d="M423.42,350.06c18.47,3.07,38.56-6.72,46-22.42c7.44-15.7,1.48-35.74-13.64-45.87"/>
	<path class="st1" d="M398.79,185.45c9.23,7.97,19.14,15.29,29.61,21.87c5.93,3.72,12.1,7.25,17.05,12.02
		c8.64,8.33,12.81,19.85,13.93,31.26s-0.55,22.89-2.22,34.25"/>
	<path class="st1" d="M323.86,294.25c-8.23,16.69-7.19,36.92,2.72,52.83"/>
	<path class="st1" d="M361.18,294.49c-11.81-7.56-28.53-8.12-40.93-1.39"/>
	<path class="st1" d="M328.01,348.17c2.77-0.45,4.86-2.59,6.1-4.89s1.86-4.83,3.02-7.17c2.51-5.04,7.33-8.76,12.07-12.23
		s9.68-6.99,12.57-11.86c2.89-4.87,3.15-11.51-1.08-15.47"/>
	<path class="st1" d="M324.72,268.62c-2.49-3.7-8.51-4.37-12.7-2.3c-4.19,2.07-6.75,6.13-8.23,10.25c-1.13,3.15-1.74,6.63-0.46,9.73
		c1.92,4.67,8.11,7.27,13.45,6.17c5.34-1.11,9.51-5.41,10.79-10.26S327.2,272.3,324.72,268.62z"/>
	<path class="st1" d="M365.8,265.3c-2.8,2.97-5.19,6.33-6.43,10.07c-1.24,3.75-1.24,7.92,0.59,11.47s5.63,6.32,9.91,6.65
		c3.31,0.26,6.65-0.94,9.13-2.96c2.48-2.02,4.12-4.79,4.97-7.71c1.37-4.72,0.62-10.08-2.72-13.91
		C377.91,265.09,371.82,263.22,365.8,265.3z"/>
	<path class="st1" d="M295.3,219.86c1.27-13.6,10.41-25.7,21.55-34.83c11.14-9.13,24.34-15.86,36.78-23.48
		c12.44-7.62,24.48-16.51,31.75-28.45c10.29-16.91,9.46-38.3,0.73-55.92s-24.61-31.71-42.56-42.01"/>
	<path class="st1" d="M389.03,162.11c9.79-12.57,16.53-27.26,18.34-42.58s-1.48-31.27-10.26-44.45
		c-11.9-17.87-32.42-29.22-52.16-39.88"/>
	<path class="st1" d="M392.11,160.14c8.94-7.69,17.12-16.31,22.69-26.29c5.58-9.99,8.43-21.47,6.46-32.53"/>
	<path class="st1" d="M395.43,201.64c-0.45-11.21,4.8-21.93,10.83-31.71c6.03-9.78,13.02-19.23,16.63-29.95
		c4.24-12.58,3.44-26.51-2.2-38.63"/>
	<path class="st1" d="M304.04,199.95c-12.89,9-22.64,21.68-27.53,35.78c-4.89,14.11-4.89,29.58,0.62,45.26
		c-10.44,6.66-18.94,16.36-21.73,27.68c-2.79,11.32,0.86,24.22,10.68,31.62"/>
	<path class="st1" d="M263.38,330.83c0.55,6.02,4.38,11.71,10.01,14.9s12.93,3.8,19.1,1.59"/>
	<path class="st1" d="M288.66,342.53c0.2,3.76,3.56,6.88,7.39,8.3c3.83,1.42,8.07,1.46,11.43,0.63c3.22,3.83,7.8,6.69,12.88,8.05
		c5.08,1.36,10.63,1.21,15.62-0.41"/>
	<path class="st1" d="M293.15,349.66c-8.34,9.48-14.16,20.79-16.82,32.69c-1.02,4.57-1.58,9.29-0.84,13.91
		c0.74,4.62,2.88,9.15,6.61,12.34"/>
	<path class="st1" d="M290.59,389.4c-5.03,7.15-8.46,15.22-10.04,23.59c-0.66,3.5-0.98,7.2,0.43,10.51c1.4,3.31,4.95,6.1,8.83,5.83"
		/>
	<path class="st1" d="M293.35,415.67c-4.74,9.93-5.64,21.34-2.49,31.77c0.7,2.31,1.62,4.63,3.35,6.43c1.74,1.8,4.44,2.98,7.01,2.48"
		/>
	<path class="st1" d="M303.21,452.91c-1.97,4.6-2.29,9.78-0.89,14.56s4.5,9.12,8.73,12.22"/>
	<path class="st1" d="M310.57,476.8c2.99,24.51,19.64,47.32,43.3,59.31c23.66,11.99,53.71,12.85,78.16,2.24"/>
	<path class="st1" d="M327.24,295.04c-7.91,15.88-8.45,34.68-1.46,50.92"/>
	<path class="st1" d="M357.2,363.34c11.79,2.9,24.85,1.23,35.31-4.52"/>
	<path class="st1" d="M386.19,356.31c6.97,3.81,15.34,5.47,23.42,4.63c8.08-0.83,15.83-4.15,21.69-9.29"/>
	<path class="st1" d="M357.27,364.82c11.6,2.48,24.26,0.54,34.33-5.27"/>
	<path class="st1" d="M376.46,449.98c-7.17-14.7-9.58-31.29-6.84-47.18s10.62-31.01,22.4-42.99"/>
	<path class="st1" d="M378.42,414.67c-2.66,14.39-4.43,29.22-1.21,43.52s12.13,28.15,26.32,34.92"/>
	<path class="st1" d="M404,459.85c-2.28,11.78-3.8,24.02-0.56,35.61s12.14,22.52,24.77,25.81"/>
	<path class="st1" d="M426.96,499.55c-3.49,12.22-2.28,25.52,3.39,37.04c1.6,3.26,3.61,6.45,6.56,8.81s6.97,3.81,10.83,3.17"/>
	<path class="st1" d="M444.18,525.74c-1.41,10.79,1.66,22.38,9.91,30.22c8.25,7.84,22.05,11.04,32.72,6.18"/>
	<path class="st1" d="M449.18,346.09c34.09,26.57,58.9,62.86,70.05,102.45c11.15,39.58,8.58,82.27-7.26,120.51"/>
	<path class="st1" d="M472.67,542.86c1.56,8.1,6.82,15.55,14.27,20.2s16.98,6.43,25.83,4.82"/>
	<path class="st1" d="M451.42,347.47c34.12,26.21,58.87,62.38,69.65,101.83s7.56,81.97-9.08,119.7"/>
	<path class="st1" d="M350.86,583.26c-20.22,7.42-41.12,13.28-62.42,17.49c-3.29,0.65-6.84,1.4-9,3.75s-1.62,6.82,1.66,7.53"/>
	<path class="st1" d="M310.8,600.36c-8.2,2.14-16.07,5.29-23.34,9.34c-3.04,1.7-6.13,3.72-7.48,6.72c-1.37,3.04-0.56,6.8,1.97,9.15
		c2.53,2.35,6.64,3.15,10.01,1.95"/>
	<path class="st1" d="M326.55,604.67c-6.26,3.26-11.34,8.05-16.65,12.49c-5.31,4.44-11.14,8.68-18.09,10.45"/>
	<path class="st1" d="M340.16,614.43c-3.6,3.54-5.82,8.02-8.45,12.21c-2.64,4.18-5.97,8.3-10.81,10.27
		c-4.83,1.97-11.45,0.99-14.02-3.23"/>
	<path class="st1" d="M330.16,602.37c-5.55,4.97-11.09,9.93-16.64,14.9c-2.51,2.25-5.07,4.55-6.61,7.44c-1.54,2.88-1.9,6.5-0.01,9.2
		"/>
	<path class="st1" d="M399.78,562.97c0.17,9.46,0.35,18.91,0.52,28.37"/>
	<path class="st1" d="M414.17,565.12c0.07,8.42,0.14,16.85,0.21,25.27"/>
	<path class="st1" d="M399.46,590.14c-9.29,12.77-20.59,24.33-33.44,34.21c-2.85,2.19-5.8,4.32-8.07,7.01
		c-2.27,2.69-3.83,6.06-3.4,9.43c0.42,3.37,3.21,6.6,8.12,6.91c2.77,0.55,5.7-0.45,7.92-2.05c2.23-1.6,3.88-3.76,5.5-5.88
		c3.9-5.11,7.79-10.22,11.25-14.66c2.67-2.82,5.02-5.89,7.02-9.14"/>
	<path class="st1" d="M394.44,619.97c-3.36,6.39-5.82,13.17-7.29,20.12c-0.9,4.25-1.18,9.28,2.28,12.25
		c2.73,2.35,6.95,2.57,10.63,1.9c3.57-0.65,7.16-2.13,9.17-4.89c2.73-3.74,1.91-8.68,0.98-13.09c-1.49-7.07-2.98-14.13-4.46-21.2"/>
	<path class="st1" d="M407.09,612.66c3.59,3.49,5.99,7.83,8.32,12.11s4.69,8.64,8.22,12.18c3.52,3.54,8.44,6.23,13.69,6.19
		s10.59-3.42,11.38-8.14c0.5-3.02-0.85-6.11-2.92-8.52c-2.07-2.41-4.8-4.26-7.5-6.07"/>
	<path class="st1" d="M413.85,590.34c2.92,11.91,11.04,22.7,22.2,29.47"/>
	<path class="st1" d="M340.75,532c-0.53,3.89-1.06,7.81-0.67,11.7s1.78,7.83,4.65,10.74c2.88,2.91,7.4,4.62,11.59,3.72"/>
	<path class="st1" d="M357.25,550.99c-1.53,1.94-1.19,4.75,0.32,6.7s3.97,3.12,6.5,3.76c2.21,0.56,4.72,0.72,6.66-0.39"/>
	<path class="st1" d="M382.31,544.61c1.04,2.24,1.06,4.85,0.07,7.1c-1,2.25-3,4.12-5.45,5.08"/>
	<path class="st1" d="M355.26,556.94c-0.46,9.19-1.85,18.34-4.13,27.3"/>
	<path class="st1" d="M367.37,560.96c-2.05,11.47-2.82,23.13-2.3,34.74"/>
	<path class="st1" d="M386.47,545.37c-1.14,5.02,0.51,10.5,4.31,14.28c2.13,2.12,5.12,3.76,8.26,3.55"/>
	<path class="st1" d="M399.78,557.86c-0.5,1.92,0.42,3.99,1.99,5.35c1.57,1.36,3.69,2.08,5.83,2.4c3.45,0.52,7.07,0.06,10.24-1.29"
		/>
	<path class="st1" d="M414.99,560.67c0.4,1.78,1.77,3.36,3.57,4.13c1.81,0.77,4.01,0.72,5.77-0.13"/>
	<path class="st1" d="M425.55,540.52c1.57,3.97,2.6,8.11,3.07,12.31c0.26,2.28,0.34,4.63-0.34,6.84s-2.25,4.29-4.54,5.24"/>
	<path class="st1" d="M291.28,347.42c-17.31,17.41-27.86,40.29-29.41,63.73c-1.54,23.45,5.94,47.31,20.84,66.48"/>
	<path class="st1" d="M278.61,473.47c1.34,14.67,8.42,28.86,19.69,39.42c11.27,10.56,26.64,17.41,42.7,19.05"/>
	<path class="st1" d="M351.65,583.46c-19.51,7.34-39.98,12.56-60.84,15.52c-2.82,0.4-5.69,0.77-8.29,1.86
		c-2.59,1.09-4.92,3.03-5.61,5.55c-0.69,2.52,0.72,5.57,3.44,6.34"/>
	<path class="st1" d="M309.91,600.04c-8.06,1.71-15.85,4.46-23.06,8.16c-3.33,1.71-6.72,3.8-8.22,7.01c-1.54,3.3-0.58,7.44,2.3,9.89
		s7.47,3.06,10.99,1.44"/>
	<path class="st1" d="M295.59,627.03c11.57-7.17,22.35-15.4,33.69-24.16c-6.33,5.57-12.45,11.35-18.34,17.31
		c-3.12,3.16-6.38,6.95-5.78,11.17c0.71,4.95,6.93,8.08,12.36,7.38s9.92-4.25,13.23-8.24c3.31-3.98,5.76-8.52,9.14-12.45
		c7.14-8.3,17.93-13.38,25.59-21.28"/>
	<path class="st1" d="M400.5,591.11c-13.93,15.83-28.92,30.89-44.86,45.06"/>
	<path class="st1" d="M398.56,562.82c-0.18,9.19,0.28,18.38,1.38,27.52"/>
	<path class="st1" d="M412.81,564.89c-0.56,8.94,0,17.95,1.69,26.77"/>
	<path class="st1" d="M375.92,617.79c-8.26,5.06-17.02,10.68-20.38,19.22c-1.21,3.07-1.52,6.78,0.72,9.33
		c2.39,2.72,6.98,3.1,10.52,1.77c3.54-1.33,6.23-3.99,8.7-6.65c6.98-7.54,13.08-15.75,18.17-24.45"/>
	<path class="st1" d="M392.24,622.35c-3.29,7.15-5.27,14.8-5.83,22.54c-0.17,2.37-0.15,4.94,1.41,6.84c1.84,2.25,5.23,2.86,8.3,3.05
		c3.06,0.18,6.36,0.05,8.83-1.59c4-2.66,4.19-7.96,3.84-12.46c-0.68-8.76-1.93-17.48-2.83-27.37c4.13,3.03,7.05,7.2,9.66,11.4
		c2.61,4.2,5.02,8.56,8.42,12.27s7.97,6.78,13.23,7.44c2.46,0.31,5.07,0.05,7.19-1.12c3.51-1.95,4.98-6.14,4.26-9.83
		c-0.72-3.69-3.26-6.89-6.23-9.47c-2.98-2.58-6.42-4.67-9.59-7.06c-9.54-7.2-16.41-17.28-19.28-28.26"/>
	<path class="st1" d="M428.87,540.82c16.85,96.68,83.34,185.21,176.16,234.56"/>
	<path class="st1" d="M500.77,568.82c-1.96,40.63,7.36,81.67,26.85,118.26c19.49,36.59,49.12,68.65,85.38,92.39"/>
	<path class="st1" d="M430.81,537.15c14.94,87.85,69.42,169.57,148.11,222.16"/>
	<path class="st1" d="M503.76,568.18c-2.27,39.33,6.11,79.13,24.2,114.9c18.09,35.77,45.84,67.45,80.13,91.45"/>
	<path class="st1" d="M323.58,293.01c-5.92,2.06-12.63,0.83-18.47-1.4c-5.84-2.24-11.21-5.43-17.13-7.48
		c-5.92-2.05-12.8-2.86-18.45-0.25"/>
	<path class="st1" d="M389.15,298.13c7.33-1.63,13.81-5.43,20.46-8.67s14.02-6.01,21.52-5.29"/>
	<path class="st1" d="M416.82,290.28c11.97-8.07,28.69-9.87,42.4-4.58"/>
	<path class="st1" d="M362.28,296.53c10.22,4.49,22.78,4.27,32.81-0.56"/>
	<path class="st1" d="M324.12,290.96c-3.16,3.8-9.19,4.8-14.27,3.68c-5.09-1.12-9.48-3.96-13.75-6.72c-4.27-2.76-8.7-5.57-13.81-6.6
		c-5.11-1.04-11.12,0.13-14.13,4.03"/>
	<path class="st1" d="M272.38,284.93c-7.07,2.17-12.77,7.72-14.69,14.29"/>
	<path class="st1" d="M362.07,243.21c-7.92,15.21-8.52,33.43-1.63,49.04"/>
	<path class="st1" d="M407.55,263.51c1.46,12.97-3.97,26.44-14.3,35.46"/>
	<path class="st1" d="M301.15,243.47c-9.58,14.14-9.88,33.09-0.74,47.47"/>
	<path class="st1" d="M320.2,244.01c8.73,14.69,9.82,32.97,2.87,48.44"/>
	<path class="st1" d="M331.07,348.55c4.74-8.67,11.25-16.53,19.09-23.07c3.44-2.87,7.16-5.51,9.98-8.89
		c2.82-3.38,4.68-7.73,3.69-11.88"/>
	<path class="st1" d="M289.6,349.73c-15.35,17.4-24.82,39.03-26.83,61.28c-2,22.24,3.47,45,15.5,64.44"/>
	<path class="st1" d="M370.52,234.73c-5.03,2.46-8.8,6.95-10.1,12.02"/>
	<path class="st1" d="M313.71,234.65c2.83,2.6,5.13,5.69,6.72,9.05"/>
	<path class="st1" d="M397.19,296.81c-9.96,1.55-18.97,7.55-23.62,15.73c-2.34,4.13-3.59,9.1-1.71,13.42
		c2.93,6.74,11.89,9.21,19.76,10.24c8.97,1.17,18.25,1.56,26.97-0.71c8.71-2.26,16.84-7.52,20.4-15.11
		c1.67-3.56,2.25-7.79,0.33-11.25c-1.52-2.74-4.39-4.64-7.31-6.16C419.84,296.64,404.8,295.62,397.19,296.81z"/>
	<path class="st1" d="M459.14,285.53c-1.63,0.48-3.25,0.96-4.88,1.44c-0.36-1.71-0.26-3.5,0.3-5.16
		C455,282.33,455.44,282.83,459.14,285.53z"/>
	<path class="st1" d="M316.27,299.31c-9.53-5.82-21.76-7.81-32.92-5.37c-4.03,0.88-8.02,2.38-10.98,5.03s-4.7,6.62-3.73,10.29
		c1.38,5.16,7.31,8.08,12.82,9.84c5.46,1.75,11.19,3.03,16.97,2.79c5.78-0.23,11.64-2.11,15.64-5.91
		C318.09,312.18,319.9,306.3,316.27,299.31z"/>
	<path class="st1" d="M296.61,218.59c0.87-13.54,9.71-25.75,20.61-34.99s23.92-16.11,36.11-23.9c12.19-7.79,23.95-16.9,30.71-28.99
		c7.52-13.44,8.09-29.57,3.6-44.09c-4.49-14.52-13.72-27.54-24.79-38.77"/>
	<path class="st1" d="M388.97,163.41c20.31-12.85,33.06-35.08,33.04-57.6"/>
</g>
</svg>
