<?xml version="1.0" encoding="utf-8" ?>
<svg baseProfile="full" height="722" version="1.1" viewBox="0,0,426,722" width="426" xmlns="http://www.w3.org/2000/svg" xmlns:ev="http://www.w3.org/2001/xml-events" xmlns:xlink="http://www.w3.org/1999/xlink">
	<path d="M 81.946049 265.188284 L 81.765602 265.650206 L 81.585155 266.112129 L 81.404708 266.574052 L 81.223956 267.035852 L 81.035688 267.494642 L 80.847419 267.953433 L 80.659150 268.412223 L 80.471679 268.871330 L 80.293981 269.334317 L 80.116282 269.797304 L 79.938584 270.260291 L 79.762252 270.723781 L 79.597160 271.191412 L 79.432068 271.659042 L 79.266976 272.126673 L 79.103900 272.594981 L 78.953090 273.067410 L 78.802279 273.539840 L 78.651469 274.012270 L 78.503273 274.485488 L 78.367833 274.962551 L 78.232393 275.439615 L 78.096953 275.916678 L 77.964712 276.394592 L 77.845322 276.875924 L 77.725933 277.357255 L 77.606543 277.838586 L 77.490932 278.320786 L 77.388077 278.805920 L 77.285222 279.291053 L 77.182368 279.776187 L 77.083883 280.262168 L 76.997813 280.750559 L 76.911742 281.238950 L 76.825671 281.727340 L 76.744460 282.216502 L 76.675167 282.707554 L 76.605873 283.198606 L 76.536580 283.689658 L 76.472644 284.181373 L 76.420183 284.674507 L 76.367722 285.167641 L 76.315261 285.660776 L 76.269388 286.154484 L 76.235812 286.649263 L 76.202236 287.144042 L 76.168661 287.638821 L 76.140721 288.133898 L 76.121962 288.629460 L 76.103202 289.125022 L 76.084442 289.620584 L 76.072510 290.116293 L 76.069867 290.612203 L 76.067225 291.108113 L 76.064583 291.604023 L 76.068361 292.099876 L 76.079795 292.595661 L 76.091230 293.091446 L 76.102664 293.587231 L 76.123905 294.082590 L 76.155515 294.577499 L 76.187125 295.072407 L 76.218735 295.567316 L 76.259000 296.061523 L 76.307525 296.555060 L 76.356050 297.048597 L 76.404575 297.542134 L 76.462018 298.034642 L 76.527222 298.526253 L 76.592426 299.017865 L 76.657630 299.509477 L 76.732075 299.999703 L 76.813922 300.488819 L 76.895769 300.977935 L 76.977615 301.467052 L 77.068936 301.954418 L 77.167268 302.440488 L 77.265600 302.926558 L 77.363932 303.412629 L 77.472222 303.896504 L 77.587329 304.378878 L 77.702435 304.861251 L 77.817542 305.343625 L 77.942969 305.823343 L 78.074969 306.301369 L 78.206970 306.779396 L 78.338970 307.257423 L 78.481665 307.732289 L 78.630718 308.205276 L 78.779772 308.678263 L 78.928826 309.151250 L 79.088580 309.620655 L 79.254298 310.088064 L 79.420016 310.555473 L 79.585733 311.022882 L 79.762195 311.486268 L 79.944278 311.947548 L 80.126361 312.408828 L 80.308443 312.870108 L 80.503968 313.325756 L 80.705103 313.779054 L 80.906237 314.232351 L 81.107371 314.685649 L 81.315571 315.135735 L 81.524845 315.585332 L 81.734119 316.034930 L 81.943393 316.484527 L 82.161827 316.929744 L 82.380485 317.374853 L 82.817801 318.265072" fill="none" stroke="black" stroke-width="1.000000" />
	<path d="M 146.018127 269.972046 L 147.915199 269.355873 L 149.799005 268.703242 L 151.665429 268.001686 L 153.490780 267.202385 L 155.304023 266.374277 L 157.091946 265.489526 L 158.877472 264.599984 L 160.668429 263.721451 L 162.465390 262.855377 L 164.271399 262.008522 L 166.081734 261.170741 L 167.911655 260.376552 L 169.756307 259.617130 L 171.603382 258.863657 L 173.442005 258.089837 L 175.294846 257.350612 L 177.148967 256.614743 L 179.021308 255.926707 L 180.916825 255.305394 L 182.833977 254.754467 L 184.770760 254.277267 L 186.725570 253.879678 L 188.686681 253.514284 L 190.647328 253.146572 L 192.615344 252.821230 L 194.594978 252.576364 L 196.583089 252.413809 L 198.575953 252.328454 L 200.570638 252.335767 L 202.563053 252.432451 L 204.551069 252.597455 L 206.536440 252.790426 L 208.512243 253.065028 L 210.479739 253.394318 L 212.444676 253.736491 L 214.382731 254.208913 L 216.305988 254.738160 L 218.206668 255.343569 L 220.082623 256.021179 L 221.911532 256.817016 L 223.682435 257.734500 L 225.377313 258.785851 L 226.988110 259.962113 L 228.514041 261.246435 L 229.938091 262.643101 L 231.275978 264.122379 L 232.505565 265.692941 L 233.635293 267.336728 L 234.648993 269.054578 L 235.554973 270.831535 L 236.336659 272.666619 L 236.999829 274.547752 L 237.534413 276.469426 L 237.946721 278.420986 L 238.231793 280.395162 L 238.392437 282.383412 L 238.449222 284.377217 L 238.367031 286.370257 L 238.181088 288.356202 L 237.859714 290.324930 L 237.456876 292.278493 L 236.927506 294.201738 L 236.309882 296.098444 L 235.588914 297.958358 L 234.777073 299.780423 L 233.868529 301.556255 L 232.867566 303.281715 L 231.786583 304.958194 L 230.623409 306.578754 L 229.388788 308.145556 L 228.081012 309.651854 L 226.707606 311.098564 L 225.270801 312.482331 L 223.773002 313.799850 L 222.220469 315.052404 L 220.614009 316.235016 L 218.960050 317.350231 L 217.260379 318.394467 L 215.520056 319.369455 L 213.742527 320.274839 L 211.929991 321.107954 L 210.089609 321.877574 L 208.217621 322.566839 L 206.328036 323.206185 L 204.409166 323.751517 L 202.479862 324.258594 L 200.528864 324.674596 L 198.569862 325.051017 L 196.596879 325.345608 L 194.617195 325.591131 L 192.630476 325.771058 L 190.638493 325.878149 L 188.645050 325.952866 L 186.650447 325.920762 L 184.655643 325.907239 L 182.664656 325.782989 L 180.671402 325.702945 L 178.682569 325.547981" fill="none" stroke="black" stroke-width="1.000000" />
	<path d="M 112.386371 212.352565 L 112.879017 212.295376 L 113.371664 212.238187 L 113.864311 212.180999 L 114.356967 212.123890 L 114.849848 212.068754 L 115.342729 212.013619 L 115.835610 211.958483 L 116.328533 211.903742 L 116.821925 211.853381 L 117.315317 211.803020 L 117.808708 211.752659 L 118.302179 211.703125 L 118.796196 211.659328 L 119.290214 211.615532 L 119.784232 211.571736 L 120.278350 211.529184 L 120.772958 211.492651 L 121.267566 211.456117 L 121.762174 211.419584 L 122.256931 211.385436 L 122.752223 211.359784 L 123.247514 211.334132 L 123.742805 211.308480 L 124.238197 211.285157 L 124.733859 211.268114 L 125.229522 211.251070 L 125.725184 211.234026 L 126.220939 211.221639 L 126.716887 211.218913 L 127.212834 211.216188 L 127.708782 211.213462 L 128.204708 211.214858 L 128.700598 211.222899 L 129.196488 211.230940 L 129.692378 211.238980 L 130.188080 211.253204 L 130.683548 211.275187 L 131.179016 211.297170 L 131.674484 211.319153 L 132.169658 211.346468 L 132.664548 211.378962 L 133.159437 211.411456 L 133.654327 211.443949 L 134.148557 211.484656 L 134.642296 211.531489 L 135.136036 211.578321 L 135.629775 211.625153 L 136.122611 211.680328 L 136.614942 211.740175 L 137.107273 211.800022 L 137.599604 211.859869 L 138.090688 211.928960 L 138.581264 212.001803 L 139.071841 212.074647 L 139.562417 212.147490 L 140.051209 212.231277 L 140.539507 212.318092 L 141.027805 212.404906 L 141.516102 212.491721 L 142.001623 212.592746 L 142.486676 212.696162 L 142.971729 212.799579 L 143.456782 212.902996 L 143.938749 213.019894 L 144.420484 213.137805 L 144.902219 213.255716 L 145.383942 213.373673 L 145.861337 213.508081 L 146.338732 213.642489 L 146.816127 213.776897 L 147.292730 213.913906 L 147.764033 214.068324 L 148.235337 214.222742 L 148.706640 214.377160 L 149.176673 214.535215 L 149.641682 214.707662 L 150.106692 214.880108 L 150.571701 215.052555 L 151.034874 215.229687 L 151.493265 215.419027 L 151.951656 215.608367 L 152.410046 215.797707 L 152.865707 215.993308 L 153.316402 216.200300 L 153.767097 216.407293 L 154.217791 216.614286 L 154.665049 216.828406 L 155.107692 217.052099 L 155.550335 217.275793 L 155.992978 217.499487 L 156.430586 217.732629 L 156.863122 217.975289 L 157.295658 218.217950 L 157.728194 218.460611 L 158.155337 218.712471 L 158.578387 218.971316 L 159.001436 219.230161 L 159.424486 219.489006 L 159.840146 219.759364 L 160.251677 220.036156 L 160.663208 220.312948 L 161.074739 220.589740 L 161.469483 220.889557 L 161.858879 221.196709 L 162.248275 221.503860 L 162.637672 221.811012 L 163.013417 222.134571 L 163.386275 222.461601 L 163.759132 222.788632 L 164.131989 223.115663 L 164.491935 223.456779 L 164.850109 223.799829 L 165.208282 224.142878 L 165.566456 224.485928 L 165.938012 224.814402 L 166.310338 225.142038 L 166.682663 225.469674 L 167.054989 225.797310" fill="none" stroke="black" stroke-width="1.000000" />
	<path d="M 183.067646 269.972243 L 182.599032 269.798214 L 182.130417 269.624185 L 181.661802 269.450156 L 181.192628 269.277726 L 180.717852 269.121284 L 180.243076 268.964842 L 179.768301 268.808401 L 179.292714 268.654597 L 178.812109 268.517103 L 178.331504 268.379608 L 177.850899 268.242114 L 177.369226 268.108606 L 176.884228 267.987517 L 176.399230 267.866428 L 175.914232 267.745339 L 175.427626 267.631393 L 174.937506 267.533066 L 174.447386 267.434740 L 173.957266 267.336413 L 173.465821 267.245403 L 172.972345 267.165603 L 172.478870 267.085804 L 171.985395 267.006004 L 171.490713 266.934573 L 170.994785 266.871795 L 170.498857 266.809016 L 170.002929 266.746238 L 169.505708 266.695889 L 169.007477 266.655245 L 168.509246 266.614601 L 168.011016 266.573957 L 167.512451 266.537784 L 167.013703 266.504081 L 166.514955 266.470378 L 166.016206 266.436675 L 165.516688 266.421735 L 165.016855 266.414454 L 164.517022 266.407173 L 164.017189 266.399892 L 163.517323 266.400894 L 163.017448 266.404171 L 162.517573 266.407448 L 162.017698 266.410724 L 161.518370 266.433169 L 161.019122 266.458408 L 160.519874 266.483647 L 160.020625 266.508885 L 159.523952 266.565080 L 159.027398 266.622691 L 158.530843 266.680302 L 158.034294 266.737965 L 157.537858 266.796592 L 157.041422 266.855219 L 156.544986 266.913847 L 156.049498 266.978419 L 155.559444 267.077077 L 155.069391 267.175735 L 154.579337 267.274392 L 154.089773 267.375366 L 153.601684 267.483328 L 153.113596 267.591290 L 152.625508 267.699252 L 152.139716 267.816438 L 151.657983 267.949926 L 151.176250 268.083413 L 150.694517 268.216901 L 150.217140 268.364412 L 149.744557 268.527358 L 149.271974 268.690305 L 148.799392 268.853251 L 148.330362 269.025949 L 147.863703 269.205157 L 147.397044 269.384365 L 146.930385 269.563573 L 146.472592 269.763860 L 146.018121 269.972048 L 145.563650 270.180236 L 145.109180 270.388424 L 144.664504 270.616610 L 144.221404 270.848016 L 143.778304 271.079421 L 143.335228 271.310868 L 142.910035 271.573731 L 142.484843 271.836595 L 142.059651 272.099459 L 141.634490 272.362373 L 141.209509 272.625579 L 140.784528 272.888785 L 140.359548 273.151990 L 139.939863 273.423168 L 139.532510 273.712909 L 139.125158 274.002650 L 138.717806 274.292391 L 138.318585 274.592878 L 137.929039 274.906151 L 137.539493 275.219424 L 137.149947 275.532697 L 136.777474 275.865476 L 136.415342 276.210072 L 136.053211 276.554669 L 135.691080 276.899265 L 135.341929 277.256879 L 134.996306 277.618031 L 134.650683 277.979183 L 134.305061 278.340335 L 133.996379 278.733406 L 133.689194 279.127771 L 133.382010 279.522136 L 133.078257 279.918994 L 132.798056 280.332966 L 132.517855 280.746939 L 132.237654 281.160912 L 131.967791 281.581273 L 131.722853 282.017038 L 131.477916 282.452804 L 131.232978 282.888569 L 131.014423 283.337048 L 130.826206 283.800146 L 130.637988 284.263244 L 130.449771 284.726343 L 130.268930 285.192330 L 130.092535 285.660060 L 129.916140 286.127789 L 129.739745 286.595518 L 129.565462 287.064038 L 129.391507 287.532680 L 129.217552 288.001322 L 129.090395 288.478393 L 129.089901 288.978279 L 129.089406 289.478165 L 129.088911 289.978050 L 129.112226 290.476443 L 129.175142 290.972354 L 129.238058 291.468265 L 129.300974 291.964175 L 129.364185 292.460048 L 129.427715 292.955881 L 129.491244 293.451713 L 129.554773 293.947546 L 129.652864 294.436700 L 129.778636 294.920505 L 129.904408 295.404310 L 130.030180 295.888115 L 130.201142 296.356227 L 130.402302 296.813851 L 130.603463 297.271476 L 130.804623 297.729101 L 131.048109 298.164117 L 131.316615 298.585769 L 131.585120 299.007422 L 131.853625 299.429074 L 132.160670 299.821572 L 132.493376 300.194657 L 132.826082 300.567742 L 133.158789 300.940827 L 133.521572 301.282606 L 133.907676 301.600111 L 134.293780 301.917615 L 134.679885 302.235120 L 135.077814 302.536978 L 135.488647 302.821762 L 135.899480 303.106546 L 136.310314 303.391331 L 136.732208 303.658086 L 137.172207 303.895335 L 137.612205 304.132585 L 138.052203 304.369834 L 138.495218 304.601157 L 138.946007 304.817200 L 139.396797 305.033243 L 139.847586 305.249287 L 140.301083 305.459044 L 140.767783 305.638143 L 141.234484 305.817241 L 141.701185 305.996340 L 142.168712 306.172966 L 142.649314 306.310470 L 143.129916 306.447974 L 143.610518 306.585478 L 144.091121 306.722982 L 144.571254 306.862115 L 145.051361 307.001336 L 145.531469 307.140557 L 146.011577 307.279778 L 146.500146 307.384411 L 146.990304 307.482546 L 147.480462 307.580682 L 147.970621 307.678817 L 148.463801 307.759771 L 148.958032 307.834749 L 149.452263 307.909727 L 149.946493 307.984705 L 150.442501 308.046007 L 150.939482 308.099816 L 151.436464 308.153626 L 151.933445 308.207436 L 152.430808 308.257483 L 152.928475 308.304526 L 153.426142 308.351569 L 153.923810 308.398611 L 154.422196 308.435936 L 154.921370 308.462594 L 155.420545 308.489251 L 155.919719 308.515909 L 156.419098 308.537610 L 156.918776 308.552026 L 157.418454 308.566441 L 157.918131 308.580857 L 158.417877 308.589349 L 158.917754 308.586389 L 159.417631 308.583430 L 159.917508 308.580470 L 160.417253 308.572140 L 160.916668 308.550457 L 161.416084 308.528775 L 161.915499 308.507092 L 162.414671 308.481376 L 162.913060 308.442725 L 163.411449 308.404074 L 163.909839 308.365422 L 164.407977 308.324035 L 164.905087 308.271431 L 165.402198 308.218827 L 165.899308 308.166223 L 166.395790 308.108960 L 166.889089 308.028075 L 167.382388 307.947191 L 167.875686 307.866307 L 168.368724 307.783933 L 168.860107 307.692126 L 169.351490 307.600319 L 169.842873 307.508513 L 170.333639 307.413803 L 170.819900 307.297889 L 171.306162 307.181975 L 171.792423 307.066061 L 172.278119 306.947981 L 172.759139 306.811945 L 173.240159 306.675909 L 173.721179 306.539873 L 174.201843 306.402636 L 174.679364 306.254788 L 175.156886 306.106940 L 175.634408 305.959092 L 176.110867 305.808154 L 176.578343 305.631089 L 177.045819 305.454024 L 177.513295 305.276958 L 177.979935 305.097812 L 178.440045 304.902403 L 178.900155 304.706994 L 179.360265 304.511586 L 179.819229 304.313630 L 180.270620 304.098847 L 180.722011 303.884064 L 181.173403 303.669281 L 181.622728 303.450468 L 182.060682 303.209464 L 182.498635 302.968460 L 182.936588 302.727456 L 183.371791 302.481790 L 183.794582 302.215081 L 184.217373 301.948373 L 184.640165 301.681664 L 185.059565 301.409905 L 185.466537 301.119629 L 185.873508 300.829352 L 186.280479 300.539076 L 186.681352 300.240933 L 187.063904 299.919158 L 187.446457 299.597382 L 187.829009 299.275607 L 188.211464 298.953715 L 188.593681 298.631541 L 188.975898 298.309367 L 189.358115 297.987194 L 189.733643 297.657550 L 190.095889 297.313074 L 190.458135 296.968599 L 190.820382 296.624123 L 191.170027 296.267554 L 191.499319 295.891453 L 191.828612 295.515351 L 192.157905 295.139250 L 192.472132 294.751107 L 192.766406 294.347018 L 193.060681 293.942929 L 193.354956 293.538840 L 193.633472 293.124218 L 193.894269 292.697755 L 194.155066 292.271292 L 194.415864 291.844829 L 194.658375 291.408163 L 194.884346 290.962267 L 195.110317 290.516372 L 195.336288 290.070476 L 195.525806 289.609259 L 195.686232 289.135815 L 195.846659 288.662371 L 196.007085 288.188927 L 196.130987 287.705695 L 196.228809 287.215474 L 196.326631 286.725253 L 196.424453 286.235032 L 196.442781 285.739799 L 196.407298 285.241174 L 196.371815 284.742550 L 196.336332 284.243925 L 196.248331 283.753914 L 196.122676 283.270078 L 195.997021 282.786243 L 195.871366 282.302407 L 195.729078 281.823422 L 195.574988 281.347878 L 195.420898 280.872334 L 195.266807 280.396790 L 195.066143 279.941321 L 194.826235 279.502766 L 194.586328 279.064211 L 194.346421 278.625657 L 194.084371 278.200627 L 193.803706 277.786969 L 193.523042 277.373311 L 193.242377 276.959653 L 192.938271 276.564219 L 192.606581 276.190229 L 192.274892 275.816240 L 191.943203 275.442251 L 191.593464 275.086744 L 191.211708 274.764024 L 190.829953 274.441304 L 190.448197 274.118583 L 190.058981 273.805475 L 189.651626 273.515737 L 189.244272 273.225999 L 188.836917 272.936261 L 188.425171 272.653309 L 187.994025 272.400328 L 187.562879 272.147347 L 187.131734 271.894366 L 186.698866 271.644584 L 186.250281 271.424001 L 185.801696 271.203417 L 185.353110 270.982834 L 184.904276 270.762791 L 184.445119 270.565154 L 183.985961 270.367517 L 183.526804 270.169880 L 183.067646 269.972243" fill="none" stroke="black" stroke-width="1.000000" />
	<path d="M 44.475041 219.887898 L 45.992452 218.829580 L 47.578497 217.877479 L 49.215220 217.015488 L 50.873719 216.195869 L 52.553896 215.421749 L 54.257711 214.701281 L 55.985686 214.040999 L 57.737719 213.447667 L 59.516381 212.940339 L 61.322526 212.542469 L 63.155347 212.296244 L 65.004732 212.284837 L 66.850054 212.405343 L 68.683264 212.649705 L 70.498797 213.003729 L 72.301027 213.419727 L 74.100393 213.847337 L 75.893303 214.303284" fill="none" stroke="black" stroke-width="1.000000" />
	<path d="M 28.271480 276.967429 L 28.446228 277.435883 L 28.620975 277.904338 L 28.795723 278.372792 L 28.969903 278.841457 L 29.144080 279.310124 L 29.318256 279.778791 L 29.492145 280.247564 L 29.662768 280.717536 L 29.833391 281.187508 L 30.004014 281.657481 L 30.192654 282.118689 L 30.457086 282.543025 L 30.721519 282.967362 L 30.985951 283.391699 L 31.279850 283.794804 L 31.598681 284.179943 L 31.917513 284.565083 L 32.236345 284.950223 L 32.590762 285.301301 L 32.961580 285.636682 L 33.332398 285.972063 L 33.703215 286.307444 L 34.095870 286.616624 L 34.492584 286.920933 L 34.889299 287.225241 L 35.286014 287.529550 L 35.715150 287.786110 L 36.144330 288.042607 L 36.573511 288.299103 L 37.004233 288.552901 L 37.443127 288.792396 L 37.882022 289.031891 L 38.320916 289.271386 L 38.769315 289.489990 L 39.238224 289.663515 L 39.707132 289.837040 L 40.176041 290.010566 L 40.640755 290.194644 L 41.100850 290.390344 L 41.560945 290.586045 L 42.021040 290.781746 L 42.493193 290.944015 L 42.972286 291.087038 L 43.451379 291.230062 L 43.930472 291.373086 L 44.407548 291.522660 L 44.884105 291.673921 L 45.360662 291.825182 L 45.837218 291.976443 L 46.326693 292.077818 L 46.816772 292.176857 L 47.306850 292.275897 L 47.797225 292.373362 L 48.289831 292.458952 L 48.782437 292.544543 L 49.275042 292.630133 L 49.769198 292.703733 L 50.267378 292.746186 L 50.765559 292.788638 L 51.263740 292.831091 L 51.762664 292.859839 L 52.262513 292.871508 L 52.762363 292.883177 L 53.262213 292.894846 L 53.761730 292.883580 L 54.261030 292.857390 L 54.760330 292.831200 L 55.259629 292.805010 L 55.756461 292.751022 L 56.252564 292.688828 L 56.748666 292.626633 L 57.244769 292.564438 L 57.736102 292.472186 L 58.227085 292.377730 L 58.718068 292.283274 L 59.208203 292.185176 L 59.690471 292.053252 L 60.172739 291.921329 L 60.655007 291.789405 L 61.134595 291.648885 L 61.606394 291.483379 L 62.078192 291.317873 L 62.549991 291.152367 L 63.013512 290.966664 L 63.465767 290.753469 L 63.918021 290.540274 L 64.370276 290.327080 L 64.810754 290.091500 L 65.242632 289.839572 L 65.674509 289.587643 L 66.106386 289.335714 L 66.512431 289.045258 L 66.909490 288.741398 L 67.306549 288.437539 L 67.703607 288.133679 L 68.068618 287.792448 L 68.429463 287.446360 L 68.790308 287.100272 L 69.149622 286.752787 L 69.461259 286.361803 L 69.772897 285.970819 L 70.084534 285.579835 L 70.396132 285.188820 L 70.707511 284.797631 L 71.018890 284.406441 L 71.330270 284.015252 L 71.627257 283.614047 L 71.885909 283.186162 L 72.144560 282.758277 L 72.403211 282.330391 L 72.639790 281.891098 L 72.839251 281.432621 L 73.038712 280.974144 L 73.238174 280.515667 L 73.424074 280.051789 L 73.594399 279.581709 L 73.764724 279.111628 L 73.935050 278.641548 L 74.011499 278.150447 L 74.057907 277.652620 L 74.104315 277.154792 L 74.150723 276.656964 L 74.097866 276.162107 L 74.021771 275.667945 L 73.945676 275.173784 L 73.869581 274.679622 L 73.755157 274.193230 L 73.632827 273.708439 L 73.510497 273.223649 L 73.388168 272.738859 L 73.142652 272.307751 L 72.870842 271.888101 L 72.599033 271.468452 L 72.327223 271.048802 L 72.043294 270.637319 L 71.756392 270.227840 L 71.469489 269.818361 L 71.182587 269.408882 L 70.818998 269.071326 L 70.428733 268.758789 L 70.038468 268.446252 L 69.648203 268.133715 L 69.241262 267.843893 L 68.826166 267.565180 L 68.411069 267.286466 L 67.995973 267.007752 L 67.561698 266.762268 L 67.112718 266.542261 L 66.663737 266.322255 L 66.214757 266.102248 L 65.760240 265.894430 L 65.299181 265.701012 L 64.838121 265.507594 L 64.377062 265.314175 L 63.912400 265.130094 L 63.440921 264.963681 L 62.969441 264.797268 L 62.497962 264.630855 L 62.024718 264.469851 L 61.545827 264.326150 L 61.066936 264.182449 L 60.588046 264.038748 L 60.108332 263.898045 L 59.623198 263.777088 L 59.138063 263.656131 L 58.652929 263.535174 L 58.167623 263.414980 L 57.677366 263.316822 L 57.187110 263.218664 L 56.696854 263.120506 L 56.206598 263.022348 L 55.712594 262.945445 L 55.218329 262.870022 L 54.724065 262.794599 L 54.229800 262.719176 L 53.733150 262.662061 L 53.236060 262.608323 L 52.738970 262.554585 L 52.241880 262.500847 L 51.743248 262.465649 L 51.244112 262.436503 L 50.744976 262.407357 L 50.245840 262.378211 L 49.746172 262.363592 L 49.246241 262.356134 L 48.746311 262.348676 L 48.246380 262.341218 L 47.746611 262.348807 L 47.246954 262.366962 L 46.747298 262.385117 L 46.247642 262.403271 L 45.748722 262.433642 L 45.250509 262.475710 L 44.752296 262.517777 L 44.254083 262.559845 L 43.757308 262.614547 L 43.262389 262.685551 L 42.767470 262.756555 L 42.272551 262.827560 L 41.779321 262.908419 L 41.288978 263.006145 L 40.798636 263.103871 L 40.308293 263.201598 L 39.820683 263.310722 L 39.339322 263.445919 L 38.857962 263.581116 L 38.376601 263.716313 L 37.897563 263.858872 L 37.425765 264.024378 L 36.953966 264.189884 L 36.482167 264.355390 L 36.014221 264.530272 L 35.562350 264.744278 L 35.110479 264.958284 L 34.658608 265.172290 L 34.208993 265.390646 L 33.773812 265.636824 L 33.338631 265.883002 L 32.903450 266.129180 L 32.472171 266.381226 L 32.076818 266.687302 L 31.681466 266.993378 L 31.286114 267.299455 L 30.892548 267.607584 L 30.534916 267.956991 L 30.177284 268.306399 L 29.819653 268.655806 L 29.462712 269.005829 L 29.157452 269.401811 L 28.852192 269.797794 L 28.546931 270.193777 L 28.242529 270.590279 L 28.033170 271.044322 L 27.823811 271.498365 L 27.405093 272.406451" fill="none" stroke="black" stroke-width="1.000000" />
	<path d="M 57.337326 213.558731 L 56.511694 215.220083 L 55.704403 216.890422 L 54.937444 218.579646 L 54.189745 220.277493 L 53.504688 222.001500 L 52.870752 223.744971 L 52.289324 225.506635 L 51.764534 227.285971 L 51.300404 229.082061 L 50.898442 230.893064 L 50.559440 232.716887 L 50.286727 234.551766 L 50.086040 236.395866 L 49.960284 238.246552 L 49.906072 240.100719 L 49.918466 241.955642 L 50.002202 243.808606 L 50.163508 245.656340 L 50.406134 247.495095 L 50.731044 249.321082 L 51.136563 251.130907 L 51.622304 252.920825 L 52.189030 254.686835 L 52.834753 256.425542 L 53.559546 258.132904 L 54.397547 259.787238 L 55.283332 261.414140 L 56.206596 263.022339" fill="none" stroke="black" stroke-width="1.000000" />
	<path d="M 189.811954 322.324690 L 188.352072 323.557161 L 186.882340 324.777865 L 185.374157 325.950620 L 183.818796 327.059882 L 182.227486 328.117001 L 180.596401 329.111447 L 178.918523 330.024302 L 177.198474 330.855005 L 175.444986 331.612813 L 173.660778 332.294905 L 171.848600 332.898722 L 170.012231 333.424383 L 168.155487 333.872823 L 166.282056 334.245530 L 164.395032 334.541584 L 162.497329 334.758921 L 160.592190 334.896630 L 158.682918 334.954204 L 156.772894 334.931665 L 154.865512 334.827996 L 152.964222 334.643248 L 151.072328 334.378380 L 149.198834 334.006091 L 147.332049 333.604772 L 145.471893 333.169830" fill="none" stroke="black" stroke-width="1.000000" />
	<path d="M 61.145927 173.179688 L 59.692720 174.456421 L 58.233703 175.726509 L 56.793214 177.017566 L 55.359820 178.316501 L 53.955169 179.646428 L 52.564587 180.991089 L 51.225475 182.386849 L 49.927948 183.821420 L 48.669800 185.290648 L 47.450496 186.792265 L 46.269886 188.324487 L 45.126693 189.884828 L 44.022849 191.473233 L 42.957490 193.087708 L 41.930401 194.726792 L 40.942117 196.389556 L 39.995120 198.076157 L 39.088490 199.784806 L 38.222757 201.514526 L 37.397055 203.263719 L 36.609641 205.030486 L 35.861722 206.814318 L 35.155886 208.615198 L 34.493329 210.432443 L 33.874010 212.264876 L 33.300478 214.112125 L 32.775766 215.973811 L 32.294174 217.847183 L 31.855971 219.731128 L 31.469479 221.626292 L 31.126926 223.530027 L 30.819053 225.439670 L 30.567266 227.357186 L 30.369755 229.281410 L 30.199909 231.208278 L 30.080634 233.138510 L 30.030400 235.072128 L 30.011647 237.006419 L 30.026000 238.940321 L 30.118111 240.872355 L 30.254282 242.801942 L 30.439332 244.727048 L 30.649141 246.649112 L 30.889373 248.568368 L 31.162011 250.483429 L 31.434286 252.398544" fill="none" stroke="black" stroke-width="1.000000" />
	<path d="M 69.472267 211.179916 L 70.999835 212.331859 L 72.470957 213.555058 L 73.878086 214.851358 L 75.214839 216.220126 L 76.486368 217.649686 L 77.659358 219.161133 L 78.739718 220.740115 L 79.720462 222.382815 L 80.597915 224.082924 L 81.366651 225.834866 L 82.038624 227.626159 L 82.616687 229.449922 L 83.113998 231.297348 L 83.526547 233.165522 L 83.869764 235.047680 L 84.146971 236.940687 L 84.357789 238.842232 L 84.503421 240.749877 L 84.582897 242.661422 L 84.583197 244.574607 L 84.498631 246.485919 L 84.334891 248.392090 L 84.089679 250.289502 L 83.763985 252.174771 L 83.340143 254.040417 L 82.825704 255.883151 L 82.200840 257.691234 L 81.569417 259.496936 L 80.861764 261.273413 L 80.147560 263.047485" fill="none" stroke="black" stroke-width="1.000000" />
	<path d="M 150.227141 330.066167 L 149.819046 330.344322 L 149.410951 330.622476 L 149.002856 330.900630 L 148.594508 331.178407 L 148.182004 331.449981 L 147.769500 331.721554 L 147.356997 331.993127 L 146.943617 332.263327 L 146.523426 332.522849 L 146.103235 332.782370 L 145.683045 333.041891 L 145.260732 333.297774 L 144.828010 333.535815 L 144.395289 333.773857 L 143.962568 334.011898 L 143.525480 334.241111 L 143.073652 334.440517 L 142.621824 334.639923 L 142.169996 334.839330 L 141.716406 335.034563 L 141.258378 335.219285 L 140.800351 335.404007 L 140.342324 335.588730 L 139.882072 335.767627 L 139.417504 335.935222 L 138.952936 336.102817 L 138.488368 336.270412 L 138.021060 336.429858 L 137.549602 336.576961 L 137.078145 336.724063 L 136.606687 336.871165 L 136.131781 337.005996 L 135.652706 337.125991 L 135.173631 337.245986 L 134.694557 337.365981 L 134.212893 337.474505 L 133.728719 337.571907 L 133.244545 337.669309 L 132.760371 337.766712 L 132.273583 337.848955 L 131.784754 337.919368 L 131.295926 337.989781 L 130.807097 338.060194 L 130.316466 338.115379 L 129.824705 338.161012 L 129.332944 338.206645 L 128.841183 338.252279 L 128.348358 338.282564 L 127.855002 338.305165 L 127.361645 338.327767 L 126.868289 338.350368 L 126.374572 338.353987 L 125.880713 338.350124 L 125.386854 338.346261 L 124.892995 338.342399 L 124.399771 338.319389 L 123.906739 338.290563 L 123.413707 338.261736 L 122.920675 338.232909 L 122.429273 338.184456 L 121.938240 338.131556 L 121.447208 338.078657 L 120.956175 338.025757 L 120.467806 337.952675 L 119.979861 337.876379 L 119.491916 337.800082 L 119.003971 337.723786 L 118.516076 337.647168 L 118.028187 337.570517 L 117.540297 337.493866 L 117.052408 337.417215 L 116.567214 337.325094 L 116.082147 337.232239 L 115.112014 337.046530" fill="none" stroke="black" stroke-width="1.000000" />
	<path d="M 127.212837 211.216187 L 125.408857 211.936806 L 123.655295 212.772625 L 122.025302 213.829184 L 120.577663 215.124453 L 119.235798 216.528410 L 118.228500 218.189405 L 117.336900 219.915293 L 116.531743 221.683158 L 115.807662 223.485736 L 115.164229 225.318639 L 114.582211 227.171964 L 114.075209 229.047178 L 113.641154 230.940602 L 113.293954 232.851827 L 113.020289 234.774973 L 112.813933 236.706498 L 112.674858 238.644010 L 112.606485 240.585256 L 112.592739 242.527687 L 112.632629 244.469724 L 112.730432 246.409648 L 112.896925 248.344750 L 113.135389 250.272275 L 113.437644 252.190947 L 113.806317 254.097789 L 114.256357 255.986890 L 114.793300 257.853281 L 115.445690 259.682297 L 116.137558 261.495374 L 116.910084 263.275141 L 117.722176 265.039154" fill="none" stroke="black" stroke-width="1.000000" />
	<path d="M 45.275528 412.572906 L 43.325659 412.410667 L 41.401514 412.092517 L 39.537924 411.609541 L 37.700911 410.971140 L 36.166376 409.760838 L 34.880370 408.288586 L 33.836956 406.634987 L 33.010867 404.862344 L 32.368550 403.014757 L 31.872714 401.122568 L 31.518491 399.198715 L 31.290193 397.255870 L 31.186287 395.302401 L 31.207451 393.346272 L 31.355388 391.395569 L 31.625433 389.457961 L 32.018049 387.541420 L 32.538595 385.655575 L 33.190111 383.810908 L 33.987166 382.024046 L 34.861367 380.273672 L 35.847005 378.583426 L 36.845437 376.900706" fill="none" stroke="black" stroke-width="1.000000" />
	<path d="M 117.722176 265.039154 L 119.561736 265.719428 L 121.409303 266.378260 L 123.257262 267.033077 L 125.125294 267.625012 L 127.006304 268.178672 L 128.922063 268.597880 L 130.856868 268.917311 L 132.808532 269.097106 L 134.768719 269.153399 L 136.730031 269.133356 L 138.690767 269.074269 L 140.649611 268.974508 L 142.605449 268.824554 L 144.555666 268.618021 L 146.491868 268.309125 L 148.383176 267.812638 L 150.184909 267.043515 L 151.880445 266.065833 L 153.424988 264.861647 L 154.828268 263.492483 L 156.132101 262.027713 L 157.341686 260.484661 L 158.438230 258.858831 L 159.441578 257.173581 L 160.364891 255.443287 L 161.195159 253.666450 L 161.929210 251.847696 L 162.568830 249.993509 L 163.121806 248.111685 L 163.579133 246.204322 L 163.944607 244.277054 L 164.264795 242.341778 L 164.516587 240.396622 L 164.624037 238.437988 L 164.638057 236.476410 L 164.574144 234.515797" fill="none" stroke="black" stroke-width="1.000000" />
	<path d="M 57.395233 438.945404 L 55.599930 438.255877 L 53.900483 437.408281 L 52.387952 436.278769 L 50.969627 434.990328 L 49.941821 433.360423 L 49.142339 431.605830 L 48.502457 429.786576 L 47.986480 427.927909 L 47.550950 426.048643 L 47.178081 424.155880 L 46.841065 422.256280 L 46.493577 420.358556 L 46.150971 418.459961 L 45.828921 416.557801 L 45.539380 414.650451 L 45.291272 412.737275 L 45.088048 410.818802 L 44.930007 408.896071 L 44.818227 406.970086 L 44.753730 405.041905 L 44.721546 403.112903 L 44.714995 401.183639" fill="none" stroke="black" stroke-width="1.000000" />
	<path d="M 46.726465 318.450638 L 44.898048 319.201495 L 43.051423 319.906366 L 41.181212 320.545983 L 39.313451 321.192791 L 37.399717 321.686258 L 35.469928 322.113595 L 33.515208 322.404924 L 31.545779 322.569981 L 29.569685 322.591244 L 27.597961 322.459571 L 25.643276 322.169908 L 23.718034 321.724947 L 21.837379 321.119007 L 20.013435 320.359254 L 18.262061 319.444832 L 16.596532 318.382135 L 15.031294 317.176737 L 13.589582 315.826434 L 12.281284 314.346422 L 11.111983 312.754254 L 10.085394 311.066489 L 9.134567 309.333844 L 8.219982 307.581637 L 7.500955 305.743590 L 6.841716 303.880187 L 6.187347 302.015062 L 5.492061 300.164968 L 4.846030 298.297329 L 4.375897 296.379807 L 3.890764 294.464158 L 3.316127 292.573398 L 2.815546 290.662333 L 2.448842 288.721060 L 2.214703 286.759366 L 2.111743 284.786410 L 2.138588 282.810945 L 2.292961 280.841315 L 2.577618 278.886369 L 2.997825 276.956140 L 3.549219 275.059106 L 4.225144 273.202761 L 5.026268 271.397064 L 5.954237 269.653268 L 7.001805 267.978434 L 8.153173 266.372875 L 9.398967 264.839456 L 10.734759 263.383759 L 12.154973 262.010278 L 13.653545 260.722713 L 15.221797 259.520786 L 16.850967 258.402710 L 18.533770 257.366975 L 20.262774 256.410168 L 22.029588 255.524816 L 23.826635 254.702364 L 25.651683 253.944302 L 27.516998 253.295421 L 29.427312 252.793385 L 31.367116 252.417933 L 33.325784 252.160648 L 35.297452 252.047380 L 37.271690 252.096955 L 39.233521 252.319534 L 41.168482 252.714920 L 43.067729 253.258041 L 44.927378 253.925268 L 46.743316 254.703507 L 48.513533 255.581687 L 50.252141 256.521826 L 51.977073 257.486922 L 53.695932 258.462841 L 55.418350 259.432412 L 57.149517 260.386307 L 58.891113 261.320851 L 60.659507 262.202600 L 62.470917 262.992020 L 64.322581 263.681719 L 66.211240 264.261484 L 68.135998 264.705199 L 70.090773 264.987042 L 72.062829 265.088109 L 74.035886 264.998593 L 75.986900 264.707665 L 77.874281 264.134367 L 79.681658 263.334730 L 81.469460 262.491786 L 83.279309 261.700373 L 85.148594 261.060396 L 87.055434 260.541309 L 88.985323 260.116805 L 90.937347 259.810543 L 92.905263 259.630260 L 94.879975 259.546959 L 96.856080 259.528350 L 98.827382 259.660427 L 100.791496 259.850329 L 102.744193 260.135625 L 104.680254 260.521616 L 106.606219 260.963034 L 108.508649 261.495336 L 110.400408 262.062574 L 112.260347 262.726244 L 114.100281 263.443811 L 115.917548 264.220205 L 117.723587 265.023315" fill="none" stroke="black" stroke-width="1.000000" />
	<path d="M 70.345276 459.357727 L 68.560297 458.713055 L 66.782081 458.050178 L 65.093080 457.213595 L 63.411219 456.358999 L 62.095308 454.991830 L 60.937835 453.488701 L 60.039751 451.817113 L 59.306993 450.066708 L 58.730801 448.258602 L 58.271597 446.417273 L 57.914215 444.553493 L 57.654513 442.673586 L 57.481235 440.783746 L 57.393736 438.887983 L 57.386963 436.990195 L 57.447211 435.093344 L 57.571358 433.199589 L 57.741332 431.309394 L 57.958454 429.424028 L 58.206981 427.542543 L 58.485342 425.665238" fill="none" stroke="black" stroke-width="1.000000" />
	<path d="M 61.145927 173.179688 L 61.818874 171.327034 L 62.518671 169.484356 L 63.261920 167.658777 L 64.053649 165.853698 L 64.929172 164.087776 L 65.856605 162.348529 L 66.883474 160.666158 L 67.981772 159.029479 L 69.162484 157.451261 L 70.418631 155.932396 L 71.730094 154.460988 L 73.103626 153.047383 L 74.523946 151.680754 L 75.972441 150.343981 L 77.481070 149.075621 L 79.029570 147.856151 L 80.608181 146.675889 L 82.220310 145.541871 L 83.858616 144.445974 L 85.524797 143.392970 L 87.215332 142.379509 L 88.925676 141.399824 L 90.656755 140.457283 L 92.403447 139.543963 L 94.166245 138.662145 L 95.942948 137.808676 L 97.730369 136.977864 L 99.529332 136.172367 L 101.336232 135.384802 L 103.151692 134.617190 L 104.974307 133.866711 L 106.801815 133.128214 L 108.635036 132.404025 L 110.471176 131.687250 L 112.310720 130.979263 L 114.152686 130.277596 L 115.995205 129.577377 L 117.838959 128.880418 L 119.681499 128.180258 L 121.523160 127.477788 L 123.363038 126.770663 L 125.199337 126.054305 L 127.032422 125.329757 L 128.859885 124.591165 L 130.681656 123.838639 L 132.496689 123.070017 L 134.303135 122.281444 L 136.100798 121.473043 L 137.887284 120.640274 L 139.661885 119.782464 L 141.423291 118.897896 L 143.169483 117.983685 L 144.899502 117.039229 L 146.610625 116.060999 L 148.301331 115.047896 L 149.969615 113.998304 L 151.613151 112.910394 L 153.228784 111.781502 L 154.813232 110.609276 L 156.363527 109.392269 L 157.875833 108.128413 L 159.346603 106.816484 L 160.767382 105.450718 L 162.131925 104.028805 L 163.443552 102.557816 L 164.707132 101.045289 L 165.923770 99.494743 L 167.087385 97.904107 L 168.197667 96.275744 L 169.246814 94.607472 L 170.222177 92.895155 L 171.120244 91.141030 L 171.943983 89.350734 L 172.696267 87.529222 L 173.377005 85.679785 L 173.987945 83.806093 L 174.529862 81.911286 L 175.004336 79.998447 L 175.412826 78.070429 L 175.755063 76.129561 L 176.033392 74.178466 L 176.248051 72.219361 L 176.399247 70.254325 L 176.488619 68.285496 L 176.515240 66.314840 L 176.482097 64.344234 L 176.388581 62.375611 L 176.234626 60.410764 L 176.022958 58.451281 L 175.752363 56.499092 L 175.427375 54.555145 L 175.047667 52.621205 L 174.613196 50.698781 L 174.128017 48.788513 L 173.590480 46.892349 L 173.006531 45.009864 L 172.375598 43.142695 L 171.696457 41.292453 L 170.974084 39.458650 L 170.205674 37.643708 L 169.398625 35.845488 L 168.551848 34.065770 L 167.663224 32.306466 L 166.737712 30.566317 L 165.771658 28.848372 L 164.772808 27.149169 L 163.741836 25.469371 L 162.675495 23.811732 L 161.579882 22.173277 L 160.449969 20.558383 L 159.292949 18.962638 L 158.110722 17.385592 L 156.894104 15.834886 L 155.655954 14.302100 L 154.369256 12.811057 L 153.046435 11.352431 L 151.670845 9.941438 L 150.261914 8.564475 L 148.834932 7.205140 L 147.356597 5.902395 L 145.878990 4.599994 L 144.357948 3.346556 L 142.828930 2.103132 L 141.302960 0.855536 L 139.768326 -0.381202" fill="none" stroke="black" stroke-width="1.000000" />
	<path d="M 160.702522 173.374541 L 161.206242 171.488855 L 161.767390 169.619468 L 162.334550 167.751883 L 162.972783 165.907439 L 163.662978 164.081782 L 164.449148 162.295511 L 165.293875 160.536052 L 166.227290 158.822178 L 167.208830 157.135204 L 168.248475 155.483491 L 169.335302 153.862379 L 170.461732 152.268511 L 171.631423 150.706154 L 172.828743 149.164781 L 174.063314 147.653169 L 175.319092 146.159018 L 176.599662 144.686106 L 177.896893 143.227794 L 179.208738 141.782618 L 180.531995 140.347872 L 181.861126 138.918554 L 183.195994 137.494596 L 184.528544 136.068468 L 185.859981 134.641297 L 187.183166 133.206492 L 188.497190 131.763280 L 189.798093 130.308258 L 191.080591 128.837006 L 192.344637 127.349861 L 193.580109 125.839016 L 194.789278 124.306931 L 195.959461 122.745140 L 197.088273 121.153009 L 198.163880 119.524834 L 199.193510 117.866790 L 200.181215 116.183634 L 201.114056 114.469491 L 201.990377 112.725769 L 202.797139 110.949103 L 203.527357 109.139442 L 204.183479 107.301719 L 204.762705 105.438251 L 205.264966 103.552645 L 205.686677 101.647379 L 206.028178 99.726103 L 206.285778 97.791881 L 206.454890 95.847826 L 206.533894 93.898245 L 206.513195 91.946883 L 206.398962 89.999333 L 206.137341 88.065414 L 205.825539 86.140708 L 205.473862 84.221943 L 205.081546 82.309982 L 204.694104 80.397234 L 204.316254 78.482437" fill="none" stroke="black" stroke-width="1.000000" />
	<path d="M 161.991531 133.136047 L 163.353708 131.734430 L 164.711852 130.328904 L 166.052847 128.907010 L 167.371457 127.464333 L 168.677806 126.010544 L 169.951897 124.528414 L 171.216193 123.037907 L 172.455404 121.526491 L 173.670965 119.995988 L 174.874497 118.456001 L 176.030644 116.880176 L 177.165656 115.289020 L 178.264482 113.672685 L 179.330791 112.034710 L 180.369161 110.378877 L 181.358852 108.693540 L 182.322967 106.993396 L 183.245142 105.270177 L 184.122951 103.523945 L 184.970150 101.762630 L 185.755711 99.973063 L 186.506724 98.168642 L 187.210574 96.345344 L 187.859279 94.501728 L 188.467829 92.644426 L 189.010913 90.767030 L 189.504906 88.876053 L 189.945097 86.971858 L 190.318493 85.053497 L 190.635592 83.124983 L 190.894570 81.187823 L 191.104307 79.244682 L 191.261671 77.296618 L 191.359711 75.344697 L 191.406561 73.390842 L 191.390114 71.436557 L 191.303771 69.484137 L 191.152582 67.535638 L 190.934554 65.593504 L 190.648297 63.660257 L 190.292481 61.738608 L 189.868750 59.830779 L 189.385631 57.937072 L 188.848116 56.058066 L 188.252353 54.196741 L 187.602783 52.353475 L 186.892446 50.532827 L 186.113725 48.740421 L 185.289001 46.968538 L 184.413281 45.221378 L 183.483661 43.502299 L 182.511306 41.806945 L 181.492364 40.139236 L 180.442788 38.490514 L 179.363641 36.861018 L 178.248173 35.256213 L 177.104509 33.671312 L 175.934924 32.105448 L 174.734555 30.563095 L 173.506155 29.042942 L 172.258278 27.538693 L 170.984915 26.056020 L 169.694188 24.588363 L 168.375177 23.146205 L 167.028020 21.730241 L 165.664547 20.329907 L 164.280751 18.949725 L 162.877952 17.588812 L 161.455138 16.248884 L 160.008138 14.935152 L 158.544285 13.640115 L 157.062939 12.365215 L 155.562384 11.112935 L 154.045428 9.880568 L 152.505867 8.676609 L 150.958129 7.483541 L 149.393687 6.312293 L 147.807960 5.170792 L 146.220623 4.030541 L 144.621159 2.907369 L 143.003272 1.812197 L 141.398502 0.696802 L 139.768326 -0.381202" fill="none" stroke="black" stroke-width="1.000000" />
	<path d="M 161.991531 133.136047 L 163.715833 132.270419 L 165.427235 131.379570 L 167.132800 130.477588 L 168.818268 129.538653 L 170.496133 128.586139 L 172.149422 127.591716 L 173.782072 126.563705 L 175.392304 125.500956 L 176.978907 124.403257 L 178.540411 123.270162 L 180.076108 122.102334 L 181.584477 120.899438 L 183.064656 119.662028 L 184.514776 118.389549 L 185.933171 117.081815 L 187.319585 115.740217 L 188.673968 114.366289 L 189.994815 112.960111 L 191.278006 111.519546 L 192.517666 110.041427 L 193.712903 108.527108 L 194.872217 106.984979 L 196.006609 105.424363 L 197.107437 103.840083 L 198.154184 102.219740 L 199.135767 100.559173 L 200.048580 98.859817 L 200.906567 97.131863 L 201.704424 95.375603 L 202.433999 93.589797 L 203.085478 91.774238 L 203.652568 89.930515 L 204.121864 88.059683 L 204.443980 86.158698 L 204.588483 84.236322 L 204.628485 82.316013 L 204.524649 80.398842 L 204.316254 78.482437" fill="none" stroke="black" stroke-width="1.000000" />
	<path d="M 163.560135 164.341385 L 165.067973 165.577201 L 166.582614 166.804668 L 168.110794 168.015237 L 169.658524 169.200701 L 171.229121 170.355691 L 172.823134 171.478136 L 174.430318 172.581656 L 176.059995 173.651650 L 177.700454 174.705069 L 179.344909 175.752246 L 180.992156 176.795027 L 182.638926 177.838562 L 184.283052 178.886256 L 185.921848 179.942265 L 187.551795 181.011874 L 189.170770 182.098013 L 190.774219 183.206924 L 192.361034 184.339506 L 193.925689 185.502478 L 195.463226 186.701038 L 196.970294 187.937670 L 198.442019 189.216123 L 199.876233 190.536509 L 201.269981 191.899518 L 202.619386 193.306412 L 203.918322 194.759979 L 205.160366 196.262395 L 206.341996 197.812757 L 207.462409 199.407927 L 208.521320 201.044575 L 209.516179 202.720909 L 210.443478 204.435513 L 211.297501 206.187717 L 212.076204 207.974668 L 212.781857 209.791741 L 213.410841 211.636715 L 213.968420 213.504587 L 214.452736 215.392748 L 214.874353 217.296002 L 215.223423 219.213773 L 215.510714 221.141901 L 215.728966 223.078973 L 215.893793 225.021461 L 216.003597 226.967804 L 216.067675 228.916250 L 216.089804 230.865638 L 216.080520 232.815161 L 216.049821 234.764481 L 215.972587 236.712484 L 215.843318 238.657743 L 215.682190 240.600617 L 215.507607 242.542323 L 215.324094 244.483124 L 215.141081 246.424022 L 214.939198 248.363013 L 214.725403 250.300714 L 214.484490 252.235123 L 214.233551 254.168365" fill="none" stroke="black" stroke-width="1.000000" />
	<path d="M 84.499567 319.430458 L 86.140639 318.366553 L 87.587016 317.050166 L 88.853697 315.560073 L 89.959698 313.947115 L 91.032658 312.311951 L 92.079568 310.659988 L 93.105772 308.995081 L 94.165151 307.351087 L 95.280000 305.744203 L 96.463588 304.187266 L 97.716371 302.685450 L 99.032157 301.238514 L 100.404569 299.845170 L 101.825883 298.501742 L 103.286971 297.201675 L 104.777411 295.935357 L 106.284746 294.689187 L 107.793385 293.444590 L 109.287465 292.182561 L 110.743611 290.877009 L 112.165118 289.533837 L 113.534334 288.137563 L 114.838174 286.680240 L 116.051916 285.147530 L 117.158883 283.536372 L 118.130929 281.841194 L 118.951424 280.068055 L 119.599985 278.225753 L 120.022771 276.321777 L 120.192410 274.377693 L 120.103950 272.429763 L 119.659410 270.530265 L 119.148535 268.650515 L 118.469444 266.823339 L 117.724152 265.016968" fill="none" stroke="black" stroke-width="1.000000" />
	<path d="M 135.038054 385.338909 L 134.739376 387.245187 L 134.500912 389.159909 L 134.299288 391.078866 L 134.068644 392.994550 L 133.864163 394.913201 L 133.672108 396.833151 L 133.496210 398.754643 L 133.340780 400.677893 L 133.205990 402.602698 L 133.091823 404.528835 L 133.007166 406.456468 L 132.948532 408.385083 L 132.916140 410.314310 L 132.920392 412.243755 L 132.957936 414.172872 L 133.028743 416.101039 L 133.138499 418.027348 L 133.288456 419.950949 L 133.480442 421.870789 L 133.716895 423.785647 L 133.997762 425.694500 L 134.328620 427.595252 L 134.710624 429.486427 L 135.141699 431.367014 L 135.627250 433.234197 L 136.168964 435.085913 L 136.764257 436.921095 L 137.415413 438.737167 L 138.124588 440.531376 L 138.891442 442.301704 L 139.716216 444.045782 L 140.599192 445.761146 L 141.540221 447.445325 L 142.546079 449.091418 L 143.611510 450.700086 L 144.716101 452.281444 L 145.909064 453.797086 L 147.185837 455.243551 L 148.517361 456.639145 L 149.934729 457.947763 L 151.426997 459.169929 L 153.060592 460.190244 L 154.692089 461.216596 L 156.415290 462.079288 L 158.142230 462.933061 L 159.911011 463.703949" fill="none" stroke="black" stroke-width="1.000000" />
	<path d="M 145.471893 333.169830 L 144.281194 334.700211 L 143.099126 336.237269 L 141.937409 337.789763 L 140.800118 339.360238 L 139.693385 340.952391 L 138.602888 342.555713 L 137.565903 344.194129 L 136.566103 345.855510 L 135.605006 347.539573 L 134.680618 349.244063 L 133.798429 350.970764 L 132.953139 352.715829 L 132.148020 354.479783 L 131.388982 356.264042 L 130.670185 358.064896 L 129.993503 359.881990 L 129.363075 361.715638 L 128.775149 363.563356 L 128.234046 365.425316 L 127.740035 367.300319 L 127.288110 369.185915 L 126.885023 371.082538 L 126.527618 372.988303 L 126.215024 374.901929 L 125.954133 376.823270 L 125.738236 378.750200 L 125.569454 380.681820 L 125.451886 382.617222 L 125.374880 384.554685 L 125.338442 386.493332 L 125.350893 388.432261 L 125.406588 390.370445 L 125.515576 392.306334 L 125.662140 394.239783 L 125.854428 396.169197 L 126.089846 398.093834 L 126.370522 400.012387 L 126.686290 401.925501 L 127.052437 403.829574 L 127.453462 405.726651 L 127.903785 407.612596 L 128.388761 409.489969 L 128.921803 411.354233 L 129.490611 413.207930 L 130.128486 415.038867 L 130.787404 416.861975 L 131.480645 418.672405 L 132.207738 420.469688 L 132.971418 422.251599 L 133.747910 424.028198" fill="none" stroke="black" stroke-width="1.000000" />
	<path d="M 161.632112 430.544136 L 161.221633 432.459236 L 160.820255 434.376263 L 160.413367 436.292128 L 160.035759 438.213974 L 159.695756 440.142822 L 159.406111 442.079860 L 159.166899 444.023766 L 158.989006 445.974221 L 158.853088 447.928073 L 158.770102 449.884867 L 158.743226 451.843226 L 158.775347 453.801496 L 158.868097 455.757823 L 159.023228 457.710184 L 159.241982 459.656433 L 159.526284 461.594180 L 159.877721 463.520870 L 160.300633 465.433116 L 160.792880 467.328701 L 161.355067 469.204719 L 161.989071 471.057679 L 162.697860 472.883315 L 163.479747 474.678866 L 164.332261 476.441988 L 165.281486 478.154736 L 166.339874 479.802139 L 167.492294 481.385357 L 168.732814 482.900550 L 170.052990 484.346939 L 171.457571 485.711412 L 172.927014 487.006023 L 174.459386 488.225487 L 176.053739 489.362727 L 177.713806 490.401488 L 179.383821 491.423669 L 181.081792 492.398724 L 182.789627 493.357147" fill="none" stroke="black" stroke-width="1.000000" />
	<path d="M 184.894628 470.242655 L 184.328034 472.092531 L 183.782005 473.948578 L 183.304490 475.823356 L 182.905783 477.716404 L 182.545937 479.617314 L 182.280003 481.533347 L 182.124845 483.461383 L 182.070919 485.394952 L 182.111619 487.328851 L 182.241831 489.258799 L 182.456732 491.181173 L 182.752217 493.092827 L 183.125234 494.990879 L 183.574127 496.872420 L 184.099549 498.734003 L 184.705836 500.570746 L 185.401405 502.375391 L 186.195516 504.138681 L 187.076323 505.860705 L 188.037345 507.539069 L 189.084397 509.165066 L 190.224584 510.726760 L 191.465695 512.209376 L 192.811872 513.596736 L 194.267638 514.868600 L 195.828519 516.008708 L 197.489291 516.998191 L 199.270759 517.743856 L 201.078433 518.407358 L 202.923571 518.982079 L 204.794556 519.474487" fill="none" stroke="black" stroke-width="1.000000" />
	<path d="M 170.567346 530.632105 L 170.759779 531.088234 L 170.952212 531.544362 L 171.144645 532.000491 L 171.349392 532.449543 L 171.646607 532.845456 L 171.943822 533.241369 L 172.241037 533.637282 L 172.620953 533.932300 L 173.067496 534.146036 L 173.514039 534.359772 L 173.960582 534.573508 L 174.407223 534.787040 L 174.853922 535.000450 L 175.300621 535.213859 L 175.747320 535.427269 L 176.217121 535.578363 L 176.694985 535.707708 L 177.172848 535.837054 L 177.650711 535.966399 L 178.134863 535.902496 L 178.620125 535.804492 L 179.105387 535.706488 L 179.590649 535.608484 L 180.038844 535.400450 L 180.484492 535.184855 L 180.930141 534.969260 L 181.375790 534.753665 L 181.745696 534.424709 L 182.115437 534.095505 L 182.485177 533.766300 L 182.854843 533.437011 L 183.224443 533.107650 L 183.594044 532.778288 L 183.963645 532.448927 L 184.254246 532.057531 L 184.486558 531.620364 L 184.718870 531.183198 L 184.951183 530.746031 L 185.140961 530.290693 L 185.296252 529.820620 L 185.451542 529.350546 L 185.606832 528.880473 L 185.698757 528.394110 L 185.789440 527.907427 L 185.880123 527.420744 L 185.934773 526.929979 L 185.955244 526.435343 L 185.975715 525.940708 L 185.996186 525.446072 L 185.987984 524.952036 L 185.946825 524.458691 L 185.905667 523.965345 L 185.864508 523.472000 L 185.807434 522.980613 L 185.727751 522.492009 L 185.648067 522.003404 L 185.568383 521.514800 L 185.483723 521.027080 L 185.390130 520.540949 L 185.296537 520.054817 L 185.202944 519.568685 L 185.105037 519.083449 L 184.997343 518.600245 L 184.889649 518.117042 L 184.781956 517.633838 L 184.672869 517.150953 L 184.559894 516.668957 L 184.446918 516.186961 L 184.333942 515.704965 L 184.219245 515.223387 L 184.098203 514.743353 L 183.977161 514.263319 L 183.856120 513.783285 L 183.733506 513.303664 L 183.602994 512.826118 L 183.472482 512.348572 L 183.341970 511.871026 L 183.210914 511.393631 L 183.075929 510.917330 L 182.940944 510.441029 L 182.805959 509.964728 L 182.671810 509.488199 L 182.547251 509.009066 L 182.422691 508.529933 L 182.298131 508.050800 L 182.173713 507.571631 L 182.052781 507.091569 L 181.931850 506.611507 L 181.810918 506.131445 L 181.689986 505.651384" fill="none" stroke="black" stroke-width="1.000000" />
	<path d="M 200.671714 495.907201 L 200.448230 497.810036 L 200.246204 499.715267 L 200.128428 501.627479 L 200.115271 503.543175 L 200.208340 505.456599 L 200.415640 507.360934 L 200.739981 509.248781 L 201.179954 511.113021 L 201.734118 512.946502 L 202.400913 514.742029 L 203.174588 516.494155 L 204.053297 518.195958 L 205.027421 519.845088 L 206.091480 521.437643 L 207.258166 522.956118 L 208.533288 524.384487 L 209.901927 525.723941 L 211.351219 526.975752 L 212.870250 528.142172 L 214.450775 529.223837 L 216.091872 530.210734 L 217.787098 531.101852 L 219.527075 531.902251 L 221.297706 532.633559 L 223.092741 533.301999 L 224.918391 533.880285 L 226.775116 534.349144 L 228.657811 534.697910 L 230.559776 534.922644 L 232.471484 535.032175 L 234.385518 534.996708 L 236.290138 534.797099 L 238.162340 534.398433 L 240.019515 533.945081 L 241.850484 533.389699 L 243.666229 532.779663" fill="none" stroke="black" stroke-width="1.000000" />
	<path d="M 229.175733 509.658782 L 229.701180 511.583454 L 230.264724 513.497316 L 230.870619 515.398195 L 231.539117 517.277967 L 232.307317 519.119228 L 233.168892 520.918686 L 234.132049 522.665869 L 235.205000 524.347842 L 236.374902 525.963886 L 237.652913 527.495833 L 239.020943 528.947973 L 240.480269 530.308313 L 242.019108 531.578018 L 243.630828 532.753824 L 245.315026 533.823200 L 247.032172 534.838964 L 248.780811 535.799493 L 250.552645 536.716551 L 252.363424 537.553993 L 254.229196 538.260215 L 256.161509 538.755283 L 258.127043 539.096422 L 260.112132 539.294401 L 262.106317 539.348933 L 264.097400 539.226823 L 266.056173 538.851110 L 267.942925 538.204927 L 269.661654 537.195096 L 271.175517 535.897602 L 272.497628 534.404524 L 273.763027 532.862115 L 274.986588 531.286291 L 276.096868 529.628965 L 277.193836 527.962498 L 278.241540 526.264683 L 279.251690 524.544231 L 280.252154 522.818102 L 281.196848 521.060901 L 282.117872 519.291117 L 283.009712 517.506457 L 283.862395 515.702776 L 284.694420 513.889447 L 285.486571 512.058376 L 286.251262 510.215648 L 286.989666 508.362229 L 287.691001 506.494484 L 288.368542 504.617957 L 289.011647 502.729368 L 289.626598 500.831414 L 290.216204 498.925432 L 290.771530 497.009195 L 291.302019 495.085919 L 291.801105 493.154267 L 292.272245 491.215603 L 292.719372 489.271256 L 293.135103 487.319967 L 293.527225 485.363784 L 293.892953 483.402500 L 294.231252 481.436301 L 294.547866 479.466486 L 294.838086 477.492617 L 295.104130 475.515341 L 295.346178 473.534984 L 295.560712 471.551463 L 295.754194 469.565769 L 295.923341 467.577860 L 296.069286 465.588110 L 296.193849 463.596906 L 296.292232 461.604244 L 296.372016 459.610740 L 296.430310 457.616497 L 296.465641 455.621716 L 296.481942 453.626684 L 296.473187 451.631614 L 296.446020 449.636700 L 296.401818 447.642090 L 296.337159 445.648042 L 296.254771 443.654645 L 296.153985 441.662094 L 296.031517 439.670763 L 295.892147 437.680537 L 295.730596 435.691997 L 295.554613 433.704671 L 295.362745 431.718819 L 295.151307 429.734959 L 294.926527 427.752559 L 294.675700 425.773307 L 294.409631 423.796026 L 294.127407 421.820990 L 293.823073 419.849248 L 293.505889 417.879519 L 293.160948 415.914489 L 292.800402 413.952235 L 292.424020 411.992962 L 292.023137 410.038568 L 291.609152 408.086888 L 291.165422 406.141793 L 290.703289 404.200955 L 290.223359 402.264444 L 289.716738 400.334763 L 289.195507 398.408951 L 288.644821 396.491393 L 288.071792 394.580365 L 287.480097 392.675031 L 286.861513 390.778277 L 286.222028 388.888448 L 285.554220 387.008466 L 284.859241 385.138349 L 284.142131 383.276594 L 283.397196 381.425817 L 282.628200 379.584892 L 281.832469 377.755376 L 281.006318 375.939406 L 280.156615 374.134311 L 279.277989 372.343141 L 278.372343 370.565468 L 277.440554 368.801358 L 276.475282 367.055378 L 275.484988 365.323424 L 274.464295 363.609246 L 273.413472 361.913360 L 272.336639 360.233854 L 271.224561 358.577536 L 270.087299 356.938337 L 268.919669 355.320677 L 267.720938 353.725921 L 266.497335 352.150134 L 265.239653 350.601489 L 263.957165 349.073239 L 262.645115 347.570352 L 261.303229 346.094030 L 259.936413 344.640729 L 258.536708 343.219163 L 257.113313 341.821217 L 255.661134 340.453275 L 254.181520 339.115019 L 252.676893 337.804942 L 251.141566 336.531061 L 249.583369 335.285150 L 247.997146 334.075227 L 246.386534 332.897887 L 244.750992 331.755473 L 243.076603 330.671027 L 241.388615 329.608565 L 239.678919 328.581624 L 237.943953 327.597761 L 236.185203 326.657472 L 234.405787 325.756761 L 232.598857 324.912873 L 230.775627 324.105093 L 228.925827 323.359488 L 227.059424 322.657490 L 225.174451 322.005836 L 223.270151 321.413554 L 221.359085 320.842043 L 219.430432 320.332284 L 217.501086 319.825417 L 215.564209 319.346924" fill="none" stroke="black" stroke-width="1.000000" />
	<path d="M 67.267931 447.261150 L 67.669695 449.197853 L 68.134118 451.120489 L 68.577464 453.048097 L 69.071094 454.963438 L 69.599841 456.869387 L 70.151597 458.768804 L 70.780375 460.644096 L 71.442727 462.507826 L 72.171475 464.346577 L 72.944110 466.167345 L 73.759803 467.969231 L 74.634650 469.743125 L 75.545107 471.499039 L 76.511293 473.224878 L 77.515044 474.929174 L 78.558843 476.609232 L 79.648911 478.259628 L 80.773198 479.886930 L 81.944365 481.480786 L 83.149770 483.048942 L 84.392216 484.587902 L 85.673194 486.094933 L 86.985839 487.574481 L 88.338066 489.017906 L 89.721278 490.431699 L 91.137542 491.812363 L 92.586625 493.158538 L 94.064804 494.472710 L 95.575848 495.748926 L 97.114820 496.991349 L 98.682560 498.197251 L 100.278208 499.365973 L 101.899950 500.498214 L 103.548067 501.591693 L 105.220953 502.646895 L 106.917833 503.663057 L 108.638033 504.639216 L 110.380437 505.575168 L 112.143606 506.471391 L 113.927701 507.325174 L 115.730441 508.138878 L 117.551417 508.910888 L 119.389501 509.641234 L 121.242707 510.332335 L 123.111756 510.979301 L 124.993780 511.587573 L 126.888697 512.154350 L 128.795286 512.680556 L 130.711948 513.168831 L 132.639321 513.612820 L 134.574869 514.019871 L 136.518567 514.385894 L 138.469301 514.712431 L 140.425693 515.003219 L 142.388149 515.249465 L 144.354607 515.461886 L 146.325136 515.631906 L 148.298451 515.766371 L 150.273849 515.865495 L 152.250872 515.923047 L 154.228619 515.947609 L 156.206419 515.931590 L 158.183642 515.880078 L 160.159952 515.800501 L 162.133723 515.673487 L 164.106183 515.526490 L 166.073549 515.323118 L 168.039018 515.101408 L 169.999428 514.838816 L 171.954007 514.535797 L 173.897654 514.171238 L 175.838767 513.794085 L 177.768460 513.361829 L 179.690928 512.899461 L 181.601540 512.389595 L 183.502303 511.845827 L 185.394108 511.269123 L 187.278757 510.669182 L 189.160599 510.060211" fill="none" stroke="black" stroke-width="1.000000" />
	<path d="M 264.663544 539.138794 L 265.050056 541.079950 L 265.442325 543.019938 L 265.837538 544.959321 L 266.247704 546.895562 L 266.668679 548.829443 L 267.106152 550.759686 L 267.560585 552.685965 L 268.029729 554.608741 L 268.519008 556.526451 L 269.023358 558.440247 L 269.547353 560.348808 L 270.086330 562.253150 L 270.641588 564.152867 L 271.204162 566.050438 L 271.793944 567.939768 L 272.397540 569.824738 L 273.020065 571.703511 L 273.656107 573.577789 L 274.307565 575.446733 L 274.977965 577.308981 L 275.662406 579.166123 L 276.366291 581.015949 L 277.083784 582.860583 L 277.816659 584.699123 L 278.567817 586.530290 L 279.333281 588.355527 L 280.117771 590.172639 L 280.916072 591.983766 L 281.729027 593.788330 L 282.559425 595.584953 L 283.404056 597.374929 L 284.267261 599.155997 L 285.144622 600.930173 L 286.036131 602.697249 L 286.944562 604.455707 L 287.867088 606.206808 L 288.807470 607.948364 L 289.761990 609.682247 L 290.729927 611.408646 L 291.713891 613.125981 L 292.711571 614.835378 L 293.726254 616.534722 L 294.755005 618.225617 L 295.796791 619.908485 L 296.853722 621.581903 L 297.923916 623.246861 L 299.010280 624.901304 L 300.110495 626.546592 L 301.223558 628.183194 L 302.350874 629.810030 L 303.490912 631.427962 L 304.646427 633.034875 L 305.815447 634.632008 L 306.997132 636.219774 L 308.192263 637.797463 L 309.399552 639.365852 L 310.621628 640.922749 L 311.856739 642.469336 L 313.104308 644.005879 L 314.364690 645.531945 L 315.636739 647.048284 L 316.922713 648.552837 L 318.221138 650.046664 L 319.531746 651.529806 L 320.854565 653.002079 L 322.188581 654.464202 L 323.535597 655.914362 L 324.894372 657.353512 L 326.264928 658.781444 L 327.647003 660.198238 L 329.039800 661.604483 L 330.444680 662.998663 L 331.860628 664.381600 L 333.287901 665.752845 L 334.726034 667.112701 L 336.174474 668.461567 L 337.634152 669.798269 L 339.104306 671.123436 L 340.585414 672.436353 L 342.076627 673.737782 L 343.577786 675.027723 L 345.089408 676.305390 L 346.610799 677.571406 L 348.142582 678.824831 L 349.683817 680.066617 L 351.234600 681.296457 L 352.795105 682.513939 L 354.364810 683.719532 L 355.944349 684.912217 L 357.532703 686.093138 L 359.130186 687.261678 L 360.736745 688.417710 L 362.351974 689.561593 L 363.976508 690.692228 L 365.609248 691.810978 L 367.250737 692.916853 L 368.900642 694.010132 L 370.558683 695.091030 L 372.225498 696.158354 L 373.899868 697.213782 L 375.582568 698.255882 L 377.273054 699.285303 L 378.971120 700.302170 L 380.677430 701.305147 L 382.390638 702.296292 L 384.111749 703.273650 L 385.840039 704.238260 L 387.575363 705.190152 L 389.318427 706.127805 L 391.067745 707.053732 L 392.824523 707.965429 L 394.587871 708.864353 L 396.357707 709.750432 L 398.134806 710.621859 L 399.917548 711.481680 L 401.707393 712.326617 L 403.503198 713.158812 L 405.305292 713.977298 L 407.113969 714.781140 L 408.927351 715.574306 L 410.747237 716.352436 L 412.572072 717.118892 L 414.399838 717.878324 L 416.235045 718.619601 L 418.073765 719.352121 L 419.915608 720.076753 L 421.760754 720.792933 L 423.607686 721.504496 L 425.454646 722.215987" fill="none" stroke="black" stroke-width="1.000000" />
	<path d="M 185.807434 522.980591 L 186.632925 524.794501 L 187.456775 526.609158 L 188.280508 528.423868 L 189.105725 530.237903 L 189.935490 532.049863 L 190.773039 533.858237 L 191.618637 535.662861 L 192.472992 537.463357 L 193.338315 539.258607 L 194.213526 541.049057 L 195.098106 542.834897 L 195.995437 544.614363 L 196.900150 546.390088 L 197.817553 548.159290 L 198.744824 549.923341 L 199.680585 551.682902 L 200.622486 553.439185 L 201.581920 555.185949 L 202.548920 556.928538 L 203.527157 558.664844 L 204.518104 560.393926 L 205.514681 562.119771 L 206.525529 563.837294 L 207.544493 565.550016 L 208.574108 567.256356 L 209.615864 568.955310 L 210.664027 570.650320 L 211.725578 572.336976 L 212.795989 574.018024 L 213.876546 575.692569 L 214.968546 577.359673 L 216.067977 579.021887 L 217.179458 580.676066 L 218.300214 582.323976 L 219.430756 583.965188 L 220.572034 585.598952 L 221.721733 587.226801 L 222.882267 588.846943 L 224.052218 590.460299 L 225.231739 592.066671 L 226.421254 593.665656 L 227.619899 595.257809 L 228.828469 596.842441 L 230.046350 598.419928 L 231.273619 599.990123 L 232.510249 601.552955 L 233.756272 603.108309 L 235.011620 604.656147 L 236.276099 606.196534 L 237.549730 607.729362 L 238.832249 609.254761 L 240.124166 610.772209 L 241.424971 612.282045 L 242.734729 613.784121 L 244.053400 615.278379 L 245.380619 616.765049 L 246.717047 618.243446 L 248.062057 619.714040 L 249.415815 621.176584 L 250.778238 622.631060 L 252.148968 624.077711 L 253.528600 625.515873 L 254.916612 626.945951 L 256.313132 628.367720 L 257.718073 629.781169 L 259.131135 631.186499 L 260.552737 632.583189 L 261.982525 633.971499 L 263.420456 635.351372 L 264.866558 636.722680 L 266.320643 638.085520 L 267.782879 639.439610 L 269.253191 640.784927 L 270.731325 642.121646 L 272.217453 643.449470 L 273.711484 644.768396 L 275.213371 646.078370 L 276.723197 647.379185 L 278.240440 648.671342 L 279.765580 649.954167 L 281.298525 651.227656 L 282.838975 652.492057 L 284.387215 653.746906 L 285.942421 654.993111 L 287.505434 656.229511 L 289.076048 657.456239 L 290.653781 658.673800 L 292.239110 659.881452 L 293.830944 661.080518 L 295.430521 662.269233 L 297.037402 663.448058 L 298.650999 664.617673 L 300.271977 665.777034 L 301.898994 666.927909 L 303.533740 668.067774 L 305.175423 669.197628 L 306.823416 670.318258 L 308.478590 671.428252 L 310.139301 672.529949 L 311.807794 673.619818 L 313.482792 674.699668 L 315.163664 675.770352 L 316.851604 676.829854 L 318.544613 677.881243 L 320.245583 678.919692 L 321.952678 679.948050 L 323.665214 680.967321 L 325.384525 681.975118 L 327.108331 682.975214 L 328.840079 683.961481 L 330.577286 684.938112 L 332.319033 685.906623 L 334.067862 686.862276 L 335.820998 687.810018 L 337.582524 688.742052 L 339.349349 689.664018 L 341.120890 690.576891 L 342.899340 691.476219 L 344.681730 692.367726 L 346.472374 693.242510 L 348.268011 694.107025 L 350.068136 694.962150 L 351.874911 695.803125 L 353.685529 696.635808 L 355.504005 697.451155 L 357.327153 698.256032 L 359.154623 699.051045 L 360.988433 699.831307 L 362.825728 700.603349 L 364.670461 701.357404 L 366.519162 702.101718 L 368.371728 702.836353 L 370.229489 703.557742 L 372.090499 704.270721 L 373.956730 704.969903 L 375.826415 705.659810 L 377.698343 706.343615 L 379.574503 707.015704 L 381.451400 707.685753 L 383.333486 708.341046 L 385.218975 708.986513 L 387.109871 709.615933 L 389.003845 710.236039 L 390.897571 710.856884 L 392.794950 711.466502 L 394.691262 712.079422 L 396.590792 712.682313 L 398.488067 713.292259 L 400.388289 713.892961 L 402.285522 714.503036 L 404.185809 715.103534 L 406.082722 715.714606 L 407.982535 716.316598 L 409.879161 716.928568 L 411.779962 717.527423 L 413.680520 718.126908 L 415.585615 718.711910 L 417.491186 719.295425 L 419.398407 719.873535" fill="none" stroke="black" stroke-width="1.000000" />
	<path d="M 97.845718 502.284412 L 97.679061 504.200357 L 97.557254 506.119672 L 97.474123 508.041049 L 97.450808 509.964069 L 97.514710 511.886136 L 97.686230 513.801557 L 97.999158 515.698913 L 98.479688 517.560785 L 99.159630 519.359274 L 100.065533 521.055049 L 101.200970 522.606499 L 102.522131 524.003483 L 104.013877 525.216703 L 105.647596 526.230874 L 107.398511 527.025934 L 109.209044 527.674294 L 111.085591 528.087023 L 112.962158 528.499756" fill="none" stroke="black" stroke-width="1.000000" />
	<path d="M 113.564787 521.075311 L 113.637337 522.987218 L 113.463921 524.892068 L 113.871225 526.754711 L 115.022041 528.261602 L 116.333198 529.654276 L 117.870806 530.783618 L 119.614634 531.552139 L 121.466984 532.013346 L 123.365904 532.219514 L 125.275926 532.190824 L 127.163559 531.906624 L 129.004565 531.396625 L 130.743545 530.617527 L 132.246280 529.465723 L 133.538875 528.057515 L 134.761105 526.585573 L 136.017310 525.144603 L 137.300895 523.728804 L 138.408226 522.175811 L 139.204226 520.448620 L 139.326118 518.557984 L 139.283808 516.685247 L 139.026535 514.796631" fill="none" stroke="black" stroke-width="1.000000" />
	<path d="M 143.485901 515.362000 L 143.569233 516.977990 L 143.689653 518.591610 L 143.876715 520.198702 L 144.171145 521.789057 L 144.562898 523.358401 L 145.058369 524.897746 L 145.672934 526.392938 L 146.406947 527.833349 L 147.245287 529.216134 L 148.197271 530.521236 L 149.308206 531.690024 L 150.599480 532.657632 L 152.022334 533.427379 L 153.513293 534.051865 L 155.004639 534.676514" fill="none" stroke="black" stroke-width="1.000000" />
	<path d="M 155.828260 528.385088 L 156.533948 530.233845 L 157.786030 531.766065 L 159.167918 533.182450 L 160.790401 534.315036 L 162.628230 535.048284 L 164.573604 535.410651 L 166.545513 535.576189 L 168.524319 535.563427 L 170.494946 535.383127 L 172.451086 535.085088 L 174.407227 534.787048" fill="none" stroke="black" stroke-width="1.000000" />
	<path d="M 112.962158 528.499756 L 112.777617 530.376592 L 112.562154 532.250123 L 112.334690 534.122240 L 112.051648 535.986705 L 111.740530 537.846736 L 111.390745 539.699859 L 111.003532 541.545528 L 110.602649 543.388311 L 110.183362 545.226988 L 109.736787 547.059221 L 109.258202 548.883353 L 108.730818 550.693964 L 108.160422 552.491472 L 107.590019 554.289001" fill="none" stroke="black" stroke-width="1.000000" />
	<path d="M 123.400116 532.262024 L 123.106611 534.180028 L 122.822660 536.099470 L 122.554091 538.021123 L 122.308940 539.945900 L 122.091105 541.873956 L 121.900618 543.804904 L 121.725339 545.737299 L 121.585635 547.672568 L 121.470746 549.609483 L 121.379217 551.547641 L 121.308576 553.486675 L 121.253246 555.426211 L 121.203023 557.365892 L 121.139863 559.305187 L 121.035855 561.242659 L 120.854283 563.174219 L 120.512439 565.082978 L 119.927780 566.930185 L 119.090976 568.677427 L 118.046240 570.309843 L 116.830314 571.819538 L 115.420093 573.146980 L 113.837083 574.263196 L 112.171709 575.257760 L 110.483240 576.213712 L 108.794607 577.169427 L 107.118223 578.146378 L 105.463233 579.159027 L 103.836588 580.216500 L 102.244782 581.325611 L 100.695310 582.492991 L 99.195912 583.723895 L 97.756348 585.024075 L 96.385863 586.396749 L 95.071564 587.823815 L 93.803767 589.292389 L 92.604901 590.817189 L 91.476378 592.395121 L 90.394946 594.005994 L 89.337683 595.632951 L 88.277545 597.258042 L 87.187925 598.863376 L 86.041325 600.428155 L 84.817027 601.932584 L 83.498151 603.354275 L 82.074903 604.671035 L 80.538443 605.852787 L 78.882820 606.859328 L 77.114461 607.649977 L 75.255735 608.194526 L 73.328674 608.314660 L 71.420089 608.263368 L 69.552903 607.889002 L 67.777554 607.194807 L 66.133634 606.214420 L 64.563065 605.085083" fill="none" stroke="black" stroke-width="1.000000" />
	<path d="M 39.881470 316.775705 L 40.197243 317.160765 L 40.513017 317.545824 L 40.828790 317.930883 L 41.145077 318.315504 L 41.476346 318.687317 L 41.807614 319.059130 L 42.138883 319.430942 L 42.475746 319.796388 L 42.887105 320.077044 L 43.298463 320.357700 L 43.709822 320.638355 L 44.121715 320.918215 L 44.537579 321.192150 L 44.953444 321.466085 L 45.369309 321.740019 L 45.786307 322.012186 L 46.208898 322.275626 L 46.631488 322.539066 L 47.054079 322.802505 L 47.479221 323.061637 L 47.913415 323.305480 L 48.347609 323.549323 L 48.781803 323.793166 L 49.219681 324.029976 L 49.667323 324.248151 L 50.114965 324.466326 L 50.562607 324.684501 L 51.012402 324.898082 L 51.466551 325.102365 L 51.920701 325.306649 L 52.374851 325.510932 L 52.834372 325.701988 L 53.302371 325.872166 L 53.770370 326.042344 L 54.238369 326.212521 L 54.711386 326.367146 L 55.190606 326.502540 L 55.669827 326.637933 L 56.149047 326.773327 L 56.633835 326.884519 L 57.124044 326.972152 L 57.614252 327.059784 L 58.104460 327.147417 L 58.598103 327.208809 L 59.094352 327.250296 L 59.590600 327.291782 L 60.086849 327.333269 L 60.584039 327.358262 L 61.081784 327.373551 L 61.579529 327.388841 L 62.077274 327.404130 L 62.574598 327.388935 L 63.071731 327.359910 L 63.568864 327.330885 L 64.065997 327.301860 L 64.560902 327.248498 L 65.055042 327.186778 L 65.549182 327.125059 L 66.043322 327.063340 L 66.534363 326.981152 L 67.024622 326.893806 L 67.514882 326.806460 L 68.005141 326.719115 L 68.490718 326.609091 L 68.975477 326.495105 L 69.460235 326.381119 L 69.944994 326.267133 L 70.421458 326.122715 L 70.897017 325.974973 L 71.372575 325.827230 L 71.848134 325.679488 L 72.314103 325.503956 L 72.779579 325.326992 L 73.710530 324.973064" fill="none" stroke="black" stroke-width="1.000000" />
	<path d="M 63.180103 260.960183 L 63.598972 260.690667 L 64.017841 260.421151 L 64.436710 260.151635 L 64.855234 259.881584 L 65.273721 259.611475 L 65.692208 259.341367 L 66.109676 259.069701 L 66.524625 258.794188 L 66.939574 258.518675 L 67.354524 258.243162 L 67.748129 257.939002 L 68.130838 257.620217 L 68.513547 257.301432 L 68.880547 256.965430 L 69.232975 256.613458 L 69.585404 256.261486 L 69.937833 255.909514 L 70.280064 255.547625 L 70.622117 255.185561 L 70.964170 254.823497 L 71.301660 254.457291 L 71.629081 254.081944 L 71.956502 253.706596 L 72.283923 253.331249 L 72.603161 252.948992 L 72.918379 252.563339 L 73.233597 252.177687 L 73.548204 251.791547 L 73.853604 251.398075 L 74.159005 251.004603 L 74.464406 250.611130 L 74.763792 250.213153 L 75.055483 249.809413 L 75.347175 249.405672 L 75.638866 249.001932 L 75.919119 248.590215 L 76.197136 248.176940 L 76.475154 247.763665 L 76.749612 247.348077 L 77.014312 246.926148 L 77.279012 246.504219 L 77.543713 246.082290 L 77.798417 245.654328 L 78.048405 245.223520 L 78.298393 244.792711 L 78.545384 244.360254 L 78.775331 243.918423 L 79.005278 243.476592 L 79.235225 243.034761 L 79.449413 242.585318 L 79.652548 242.130537 L 79.855682 241.675755 L 80.058286 241.220757 L 80.231132 240.753622 L 80.403978 240.286488 L 80.576824 239.819354 L 80.732040 239.346441 L 80.869235 238.867622 L 81.006430 238.388803 L 81.143148 237.909848 L 81.278865 237.430608 L 81.414582 236.951368 L 81.550300 236.472128 L 81.647861 235.984520 L 81.725171 235.492470 L 81.703644 235.009358 L 81.539311 234.539162 L 81.374977 234.068965 L 81.210644 233.598769 L 80.870851 233.519187 L 80.410206 233.708649 L 79.949561 233.898112 L 79.488915 234.087575 L 79.033446 234.288245 L 78.590513 234.516062 L 78.147579 234.743878 L 77.704646 234.971695 L 77.266661 235.208209 L 76.844514 235.472560 L 76.422366 235.736911 L 76.000219 236.001262 L 75.579084 236.267096 L 75.179240 236.564106 L 74.779396 236.861116 L 74.379551 237.158126 L 73.979707 237.455135 L 73.594706 237.770976 L 73.212518 238.090386 L 72.830331 238.409796 L 72.448143 238.729206 L 72.085209 239.070189 L 71.724570 239.413743 L 71.363931 239.757297 L 71.003292 240.100852 L 70.654260 240.456034 L 70.310066 240.816063 L 69.965872 241.176092 L 69.621678 241.536121 L 69.285882 241.903852 L 68.956839 242.277779 L 68.627796 242.651705 L 68.298753 243.025631 L 67.979191 243.407601 L 67.663869 243.793168 L 67.348547 244.178736 L 67.033225 244.564303 L 66.743709 244.968757 L 66.471531 245.385902 L 66.199353 245.803046 L 65.927176 246.220191 L 65.664701 246.643390 L 65.409606 247.071194 L 65.154511 247.498999 L 64.899416 247.926803 L 64.665289 248.366337 L 64.434247 248.807596 L 64.203204 249.248855 L 63.995666 249.701287 L 63.799352 250.159055 L 63.603039 250.616822 L 63.426760 251.082323 L 63.264609 251.553276 L 63.102459 252.024230 L 62.941640 252.495586 L 62.815573 252.977455 L 62.689506 253.459324 L 62.437373 254.423061" fill="none" stroke="black" stroke-width="1.000000" />
	<path d="M 138.215768 235.564598 L 137.751522 235.743001 L 137.287276 235.921404 L 136.823029 236.099806 L 136.358803 236.278261 L 135.894659 236.456929 L 135.430515 236.635597 L 134.966371 236.814266 L 134.502627 236.993966 L 134.039487 237.175221 L 133.576347 237.356477 L 133.113207 237.537732 L 132.665530 237.753210 L 132.223413 237.980992 L 131.781296 238.208774 L 131.339244 238.436682 L 130.897239 238.664681 L 130.455234 238.892680 L 130.020547 239.133142 L 129.606101 239.408072 L 129.191654 239.683001 L 128.777208 239.957931 L 128.390460 240.269513 L 128.012829 240.593160 L 127.635199 240.916807 L 127.258914 241.241952 L 126.896805 241.582876 L 126.534695 241.923799 L 126.172585 242.264723 L 125.815736 242.610995 L 125.468827 242.967374 L 125.121919 243.323754 L 124.775010 243.680134 L 124.440464 244.047884 L 124.114263 244.423311 L 123.788063 244.798738 L 123.461862 245.174165 L 123.152128 245.563194 L 122.845053 245.954419 L 122.537978 246.345644 L 122.234275 246.739391 L 121.945814 247.144536 L 121.657353 247.549681 L 121.368892 247.954826 L 121.094053 248.369185 L 120.825370 248.787708 L 120.556688 249.206231 L 120.288820 249.625263 L 120.031015 250.050574 L 119.773211 250.475884 L 119.515407 250.901195 L 119.274820 251.336233 L 119.043571 251.776546 L 118.812322 252.216860 L 118.598862 252.665993 L 118.388390 253.116608 L 118.177918 253.567223 L 117.988580 254.026957 L 117.805119 254.489228 L 117.621657 254.951499 L 117.460813 255.421855 L 117.309627 255.895664 L 117.158442 256.369473 L 117.034250 256.850888 L 116.915833 257.333930 L 116.797416 257.816972 L 116.680669 258.300357 L 116.599115 258.790970 L 116.517560 259.281583 L 116.436006 259.772196 L 116.597005 260.163527 L 116.999153 260.456152 L 117.401301 260.748776 L 117.803455 261.041392 L 118.206651 261.332572 L 118.609846 261.623751 L 119.013041 261.914931 L 119.430436 262.108754 L 119.900001 261.944861 L 120.369565 261.780968 L 120.839130 261.617075 L 121.298062 261.427181 L 121.747902 261.215059 L 122.197743 261.002937 L 122.647583 260.790815 L 123.089979 260.566052 L 123.493637 260.275514 L 123.897295 259.984976 L 124.300953 259.694438 L 124.704611 259.403900 L 125.095549 259.096545 L 125.484980 258.787198 L 125.874412 258.477852 L 126.263843 258.168506 L 126.637677 257.841091 L 127.000560 257.500991 L 127.363443 257.160891 L 127.726326 256.820791 L 128.079693 256.471311 L 128.414477 256.103519 L 128.749262 255.735726 L 129.084046 255.367933 L 129.414447 254.996516 L 129.712775 254.598580 L 130.011102 254.200645 L 130.309430 253.802709 L 130.607534 253.404611 L 130.894295 252.998261 L 131.181055 252.591910 L 131.467815 252.185560 L 131.754576 251.779209 L 132.026235 251.362627 L 132.297339 250.945668 L 132.568443 250.528709 L 132.839547 250.111750 L 133.091320 249.682932 L 133.340163 249.252317 L 133.589006 248.821702 L 133.837850 248.391087 L 134.070147 247.951424 L 134.298440 247.509571 L 134.526733 247.067717 L 134.755026 246.625864 L 134.942737 246.166111 L 135.115092 245.699586 L 135.287447 245.233060 L 135.459802 244.766535 L 135.589667 244.286798 L 135.712253 243.804797 L 135.834839 243.322796 L 135.957425 242.840795 L 136.025047 242.348613 L 136.083242 241.854684 L 136.141436 241.360755" fill="none" stroke="black" stroke-width="1.000000" />
	<path d="M 40.185162 320.890625 L 38.698535 322.187305 L 37.202085 323.472636 L 35.711725 324.765023 L 34.216635 326.051936 L 32.753885 327.375465 L 31.309820 328.719373 L 29.896588 330.095647 L 28.518702 331.507294 L 27.174414 332.950976 L 25.874159 334.434404 L 24.612403 335.950731 L 23.393193 337.501457 L 22.214040 339.082862 L 21.057240 340.680735 L 19.956477 342.317589 L 18.900802 343.983943 L 17.885657 345.675302 L 16.912761 347.391303 L 15.982154 349.130599 L 15.093268 350.891583 L 14.247886 352.673851 L 13.443520 354.475012 L 12.682920 356.295072 L 11.964870 358.132342 L 11.289716 359.985799 L 10.658984 361.854833 L 10.069607 363.737331 L 9.524602 365.633132 L 9.021387 367.540466 L 8.563173 369.459088 L 8.151067 371.388137 L 7.781444 373.325792 L 7.456814 375.271472 L 7.177094 377.224118 L 6.943058 379.182757 L 6.755033 381.146346 L 6.612010 383.113730 L 6.514960 385.083906 L 6.460500 387.055742 L 6.453832 389.028274 L 6.485501 391.000633 L 6.563742 392.971612 L 6.698690 394.939477 L 6.862699 396.905306 L 7.072318 398.866618 L 7.307240 400.825247 L 7.583829 402.778248 L 7.911448 404.723387 L 8.257850 406.665406 L 8.651669 408.598066 L 9.066019 410.526730 L 9.520068 412.446166 L 10.022630 414.353647 L 10.554542 416.253217 L 11.131072 418.139534 L 11.732840 420.018179 L 12.366405 421.886168 L 13.037624 423.741068 L 13.738623 425.584921 L 14.474212 427.415203 L 15.241951 429.232285 L 16.038550 431.036892 L 16.869059 432.826103 L 17.727465 434.602179 L 18.607692 436.367533 L 19.513858 438.119687 L 20.419891 439.871926 L 21.306814 441.633955 L 22.164512 443.410245 L 22.937197 445.224014 L 23.634389 447.069315 L 24.306869 448.923789 L 24.924260 450.796757 L 25.512331 452.679648 L 26.098467 454.563101 L 26.646096 456.458150 L 27.182013 458.356616 L 27.736318 460.249773 L 28.318254 462.134575 L 28.937827 464.007291 L 29.603139 465.864197 L 30.313436 467.704440 L 31.068745 469.526555 L 31.876659 471.325987 L 32.734311 473.102265 L 33.638633 474.855275 L 34.587034 476.584829 L 35.582422 478.287706 L 36.627199 479.960780 L 37.719940 481.602868 L 38.861929 483.211149 L 40.050923 484.784941 L 41.287793 486.321446 L 42.567499 487.822497 L 43.888039 489.287720 L 45.251070 490.713481 L 46.658101 492.095771 L 48.109493 493.431487 L 49.600207 494.723182 L 51.130259 495.967937 L 52.700953 497.161069 L 54.309704 498.302257 L 55.958214 499.385258 L 57.642155 500.412418 L 59.358214 501.384792 L 61.105527 502.300195 L 62.876475 503.168521 L 64.678652 503.970284 L 66.506106 504.712477 L 68.359162 505.388192 L 70.232569 506.005855 L 72.121935 506.571471 L 74.040612 507.028039 L 75.966498 507.448008 L 77.905408 507.802543 L 79.856278 508.084264 L 81.816288 508.289696 L 83.782622 508.417527 L 85.752690 508.462445 L 87.722619 508.420626 L 89.689875 508.304830 L 91.651724 508.110525 L 93.607074 507.857994 L 95.557874 507.567105 L 97.504990 507.250641" fill="none" stroke="black" stroke-width="1.000000" />
	<path d="M 46.631489 322.539063 L 45.126364 323.761555 L 43.639893 325.006662 L 42.186207 326.289893 L 40.773275 327.617862 L 39.382973 328.969508 L 38.058043 330.385283 L 36.787842 331.850362 L 35.583850 333.370313 L 34.449325 334.942794 L 33.380236 336.560476 L 32.375395 338.218829 L 31.437191 339.915771 L 30.567793 341.648970 L 29.769429 343.416013 L 29.044653 345.214489 L 28.396999 347.042153 L 27.830478 348.896566 L 27.348462 350.774715 L 26.954227 352.673228 L 26.648648 354.588009 L 26.430009 356.514655 L 26.297477 358.449133 L 26.248960 360.387541 L 26.286349 362.326195 L 26.407035 364.261453 L 26.611312 366.189681 L 26.897484 368.107468 L 27.265301 370.011284 L 27.712102 371.898129 L 28.238993 373.764196 L 28.851410 375.603969 L 29.545650 377.414456 L 30.346817 379.179852 L 31.177526 380.930540 L 32.065928 382.653029 L 32.983871 384.360809" fill="none" stroke="black" stroke-width="1.000000" />
	<path d="M 107.590019 554.289001 L 105.753590 554.951389 L 103.916004 555.610533 L 102.075913 556.262640 L 100.232822 556.906183 L 98.386528 557.540456 L 96.538390 558.169409 L 94.684925 558.782516 L 92.828407 559.386307 L 90.968274 559.978863 L 89.104389 560.559519 L 87.237887 561.131712 L 85.368940 561.695837 L 83.495441 562.244669 L 81.618798 562.782675 L 79.741235 563.317435 L 77.859324 563.836626 L 75.972070 564.336137 L 74.084874 564.835868 L 72.196262 565.330009 L 70.299849 565.793537 L 68.403563 566.257582 L 66.506825 566.719749 L 64.606607 567.167394 L 62.703227 567.601403 L 60.797117 568.023264 L 58.888458 568.433458 L 56.978533 568.837693 L 55.065588 569.227379 L 53.149561 569.601648 L 51.232970 569.973025 L 49.316816 570.346645 L 47.401305 570.723466 L 45.492790 571.133945 L 43.602957 571.622197 L 41.766013 572.279420 L 40.070291 573.244770 L 38.557868 574.477797 L 37.272066 575.945664 L 36.280278 577.626323 L 35.591692 579.453034 L 34.799518 581.237327 L 34.008001 583.021911" fill="none" stroke="black" stroke-width="1.000000" />
	<path d="M 67.561377 570.767616 L 65.720848 571.256886 L 63.884153 571.760354 L 62.054007 572.287103 L 60.231775 572.840579 L 58.419015 573.424290 L 56.617208 574.040942 L 54.827560 574.692004 L 53.051076 575.378147 L 51.288778 576.099916 L 49.541665 576.857683 L 47.811348 577.653011 L 46.100674 578.489671 L 44.415327 579.376046 L 42.765092 580.325812 L 41.170763 581.365577 L 39.670334 582.534518 L 38.316769 583.868003 L 37.176497 585.384679 L 36.338693 587.082599 L 35.856718 588.915747 L 35.656370 590.807464 L 35.669262 592.706940 L 36.140677 594.501794 L 37.318231 595.979054 L 38.839826 597.109277 L 40.565612 597.905139 L 42.419691 598.314451 L 44.285281 598.611817 L 46.174142 598.677737 L 48.074501 598.631531" fill="none" stroke="black" stroke-width="1.000000" />
	<path d="M 87.992961 571.888269 L 86.537882 573.204413 L 85.084648 574.522592 L 83.633301 575.842850 L 82.183287 577.164573 L 80.734999 578.488186 L 79.288170 579.813393 L 77.843836 581.141319 L 76.403293 582.473357 L 74.968144 583.811203 L 73.541864 585.158498 L 72.128152 586.518970 L 70.735724 587.901200 L 69.449341 589.381988 L 68.269490 590.949102 L 67.172020 592.575188 L 66.113262 594.226962 L 65.158278 595.940353 L 64.316494 597.712109 L 63.876920 599.617666 L 63.980209 601.568793 L 64.244202 603.512627 L 64.656604 605.430059 L 65.450697 607.217594 L 66.751653 608.669163 L 68.470246 609.583737 L 70.392468 609.912214 L 72.349228 609.847265 L 74.284791 609.536850 L 76.180044 609.034278 L 78.018277 608.352032 L 79.786786 607.505058 L 81.478129 606.512609 L 83.088065 605.392690 L 84.616103 604.163151 L 86.062506 602.838405 L 87.432146 601.434242 L 88.730844 599.964080 L 89.975596 598.447717 L 91.179944 596.898966 L 92.359044 595.330820 L 93.530427 593.756861 L 94.705686 592.185796 L 95.902012 590.630773 L 97.124843 589.096511 L 98.388589 587.595918 L 99.690847 586.128547 L 101.039209 584.703567 L 102.424328 583.314126 L 103.853697 581.970427 L 105.324638 580.672276 L 106.819656 579.401740 L 108.312418 578.128506 L 109.805465 576.855597 L 111.274814 575.555502 L 112.731557 574.241510 L 114.173258 572.911176 L 115.592132 571.556381 L 116.995743 570.185713 L 118.383923 568.799292 L 119.765724 567.406433" fill="none" stroke="black" stroke-width="1.000000" />
	<path d="M 85.406822 574.230103 L 83.862745 575.271322 L 82.312234 576.302932 L 80.758907 577.330302 L 79.199531 578.348458 L 77.655740 579.390025 L 76.127790 580.454711 L 74.612123 581.536835 L 73.107055 582.633655 L 71.609341 583.740515 L 70.115797 584.853003 L 68.624906 585.969047 L 67.133455 587.084341 L 65.634874 588.189998 L 64.129984 589.287092 L 62.613633 590.368097 L 61.079853 591.424389 L 59.532868 592.461139 L 57.965827 593.467277 L 56.375737 594.436492 L 54.762366 595.366689 L 53.134034 596.269952 L 51.465865 597.097851 L 49.772382 597.868878 L 48.074501 598.631531" fill="none" stroke="black" stroke-width="1.000000" />
	<path d="M 155.004639 534.676514 L 155.083786 536.472372 L 155.165943 538.268096 L 155.250336 540.063715 L 155.344312 541.858857 L 155.445676 543.653598 L 155.554212 545.447919 L 155.670233 547.241772 L 155.790556 549.035342 L 155.901352 550.829523 L 156.004064 552.624187 L 156.103028 554.419062 L 156.201830 556.213947 L 156.303648 558.008663 L 156.412291 559.802976 L 156.520935 561.597290" fill="none" stroke="black" stroke-width="1.000000" />
	<path d="M 170.001251 535.701233 L 169.973481 537.673744 L 169.952607 539.646341 L 169.945018 541.619033 L 169.952718 543.591725 L 169.977237 545.564278 L 170.019645 547.536528 L 170.082668 549.508226 L 170.167905 551.479088 L 170.265389 553.449384 L 170.408712 555.416862 L 170.602363 557.380020 L 170.879989 559.333028 L 171.271987 561.266262 L 171.674159 563.197539 L 172.273902 565.076350 L 172.951902 566.928813 L 173.732375 568.740394 L 174.589112 570.517252 L 175.530364 572.250780 L 176.542129 573.944160 L 177.624776 575.593107 L 178.771563 577.198123 L 179.983693 578.754359 L 181.259936 580.258457 L 182.598528 581.707335 L 183.990097 583.105448 L 185.432987 584.450522 L 186.916319 585.750914 L 188.437968 587.006252 L 189.992925 588.220107 L 191.577203 589.395452 L 193.177648 590.548748 L 194.779458 591.700173 L 196.363516 592.875854 L 197.898179 594.115070 L 199.357440 595.441983 L 200.716875 596.870734 L 201.934654 598.421441 L 202.947832 600.112016 L 203.651763 601.951120 L 204.081736 603.874180 L 204.012649 605.837632 L 203.667684 607.778250 L 203.192462 609.692446 L 201.820634 611.055124 L 200.172407 612.134706 L 198.462771 613.118492 L 196.598707 613.747470 L 194.658359 614.090665 L 192.689039 614.110483 L 190.739780 613.825554 L 188.833705 613.322417 L 186.989246 612.626264 L 185.202118 611.792401 L 183.489322 610.815377 L 181.873907 609.684970 L 180.373436 608.405977 L 178.971562 607.018908 L 177.668509 605.538557 L 176.443984 603.992272 L 175.292662 602.390682 L 174.196768 600.750519 L 173.138133 599.085982 L 172.104698 597.405653 L 171.083324 595.717954 L 170.022472 594.055550 L 168.957343 592.396045 L 167.816854 590.787067 L 166.657905 589.192199 L 165.424919 587.653963 L 164.170710 586.132362 L 162.878250 584.642029" fill="none" stroke="black" stroke-width="1.000000" />
	<path d="M 156.520935 561.597290 L 155.300883 563.089562 L 154.074873 564.576944 L 152.842851 566.059348 L 151.601564 567.534003 L 150.355192 569.004363 L 149.099963 570.467168 L 147.832075 571.919009 L 146.550519 573.358798 L 145.255726 574.786693 L 143.950883 576.205414 L 142.636293 577.615109 L 141.311090 579.014829 L 139.973991 580.403185 L 138.625519 581.780499 L 137.265114 583.146024 L 135.889134 584.495839 L 134.492297 585.824029 L 133.072043 587.127131 L 131.621538 588.396393 L 130.144948 589.635274 L 128.654085 590.857024 L 127.162023 592.077333 L 125.671878 593.299982 L 124.185009 594.526610 L 122.704015 595.760321 L 121.233884 597.006938 L 119.777786 598.269910 L 118.347637 599.562099 L 116.983752 600.923441 L 115.728135 602.384638 L 114.567221 603.922766 L 113.522354 605.541682 L 112.540160 607.200079 L 111.941204 609.016210 L 111.520001 610.847224 L 111.447323 612.747610 L 111.551254 614.667664" fill="none" stroke="black" stroke-width="1.000000" />
	<path d="M 111.551254 614.667664 L 113.162387 615.627765 L 114.816892 616.492335 L 116.556754 617.159444 L 118.339476 617.730963 L 120.203414 617.936236 L 122.076827 617.875123 L 123.918316 617.531171 L 125.670970 616.876013 L 127.310553 615.968637 L 128.840567 614.883774 L 130.269951 613.668213 L 131.616691 612.360480 L 132.902497 610.992237 L 134.144234 609.583628 L 135.354150 608.147479 L 136.541843 606.692834 L 137.714489 605.226011 L 138.875834 603.750217 L 140.027729 602.267032 L 141.171174 600.777320 L 142.307466 599.282142 L 143.438197 597.782754 L 144.562418 596.278481 L 145.678345 594.768047 L 146.783138 593.249454 L 147.873956 591.720787 L 148.952710 590.183577 L 150.024820 588.641725 L 151.094898 587.098462" fill="none" stroke="black" stroke-width="1.000000" />
	<path d="M 149.677094 589.142151 L 148.949882 590.923206 L 148.236002 592.709647 L 147.546525 594.505648 L 146.888896 596.313552 L 146.260904 598.131964 L 145.651509 599.956692 L 145.111933 601.803269 L 144.617833 603.662531 L 144.181034 605.536083 L 143.817348 607.425187 L 143.519146 609.325729 L 143.282846 611.234956 L 143.165625 613.155166 L 143.214601 615.078319 L 143.480271 616.983655 L 143.915853 618.857485 L 144.571714 620.665925 L 145.619468 622.278494 L 147.051253 623.562113 L 148.728984 624.501881 L 150.554204 625.107301 L 152.457071 625.386822 L 154.380374 625.412339 L 156.295420 625.234341 L 158.171839 624.812966 L 159.970346 624.132035 L 161.650816 623.198272 L 163.123787 621.962959 L 164.351828 620.483466 L 165.324772 618.826925 L 165.903478 616.992971 L 166.269951 615.104578 L 166.526610 613.198102 L 166.683846 611.281201 L 166.657126 609.357940 L 166.473952 607.442917 L 166.240122 605.533402 L 165.968569 603.628873 L 165.675865 601.727473 L 165.383296 599.826056 L 165.072007 597.927614 L 164.746183 596.031621 L 164.457398 594.129629 L 164.129323 592.234042 L 163.835900 590.332939 L 163.507764 588.437367 L 163.205323 586.537797 L 162.878250 584.642029" fill="none" stroke="black" stroke-width="1.000000" />
</svg>