<?xml version="1.0" encoding="utf-8"?>
<!-- Generator: Adobe Adobe Illustrator 24.2.0, SVG Export Plug-In . SVG Version: 6.00 Build 0)  -->
<svg version="1.1" id="Layer_2" xmlns="http://www.w3.org/2000/svg" xmlns:xlink="http://www.w3.org/1999/xlink" x="0px" y="0px"
	 width="800px" height="800px" viewBox="0 0 800 800" style="enable-background:new 0 0 800 800;" xml:space="preserve">
<style type="text/css">
	.st0{fill:none;stroke:#000000;stroke-miterlimit:10;}
</style>
<path class="st0" d="M363.14,236.22c-3.89-7.39-12.58-11.4-20.93-11.39s-16.35,3.49-23.37,8.02c-20.92,13.49-34.52,36.1-42.5,59.68
	s-10.99,48.49-15.24,73.02s-9.97,49.3-26.17,71.71c34.1-23.45,65.72-50.49,94.18-80.52c14.4-15.19,28.3-31.69,35-51.52
	C371.19,284.34,375.38,259.46,363.14,236.22z"/>
<path class="st0" d="M238.44,437.9c11.98-9.29,23.86-18.71,35.64-28.25c25.76-20.86,51.43-42.76,69.34-70.66s27.26-63,17.62-94.72"
	/>
<path class="st0" d="M415.89,226.04c-17.03,3.19-36.11,7.77-44.88,22.71c-3.8,6.47-5.08,14.14-5.15,21.64
	c-0.11,11.19,2.36,22.41,7.28,32.45c4.81,9.8,11.82,18.32,18.78,26.74c22.94,27.79,45.89,55.58,68.83,83.37"/>
<path class="st0" d="M427.81,225.66c9.49,0.15,15.58,9.94,19.32,18.67c22.47,52.46,26.98,110.64,29.87,167.64"/>
<path class="st0" d="M459.42,413.81c-32.36-33.64-59.17-72.6-79.03-114.85c-4.28-9.1-8.29-18.6-8.8-28.63
	c-0.8-15.88,8.11-31.86,22.05-39.52c13.94-7.65,32.21-6.61,37.78,3.09c11.61,3.54,16.22,17.22,18.95,29.05
	c14.13,61.1,23.68,123.26,28.56,185.79"/>
<path class="st0" d="M368.68,269.73c27.41,62.79,68.98,118.32,112.82,170.97"/>
<path class="st0" d="M242.2,279.08c-18.58,13.86-31.47,33.87-43.45,53.72c-14.49,24-28.25,48.43-45.07,70.24
	c26.23-7.58,50.69-20.16,74.96-32.66c10.92-5.62,22.07-11.42,30.4-20.45"/>
<path class="st0" d="M242.51,277.76c-39.39,37.05-71.45,81.86-93.81,131.1"/>
<path class="st0" d="M266.36,344c-30.31,29.87-70.71,46.79-110.05,63.02"/>
<path class="st0" d="M305.8,236.47c-6.87-17.17-3.41-37.6,7.21-52.74c10.62-15.14,27.73-25.11,45.83-28.89
	c18.41-3.84,38.19-1.5,54.81,7.3s29.84,24.13,36.55,44.54c-3.69,8.36-10.2,15.43-18.23,19.79"/>
<path class="st0" d="M440.39,186.71c6.58-13.38,20.53-21.4,34.25-27.24c47.69-20.3,101.09-23.64,152.97-43.76
	c-20.04,32.51-47.46,60.44-79.61,81.06"/>
<path class="st0" d="M441.28,233.6c36.39,33.5,89.62,39.24,138.92,43.32c27.97,2.32,55.94,4.63,83.91,6.95"/>
<path class="st0" d="M341.43,343.39c-2.59,16.64,5.12,32.96,12.62,48.04c9.79,19.69,19.94,39.85,36.13,54.72"/>
<path class="st0" d="M389.07,333.69c8.08,37.22,5.63,76.66-7,112.59"/>
<path class="st0" d="M462.2,312.73c21.42,24.83,44.72,50.88,76.31,59.67"/>
<path class="st0" d="M508.3,268.32c23.77,25.48,31.1,62.56,29.64,97.37"/>
<path class="st0" d="M435.1,225.16c21.64,25.85,56.29,36.25,89.24,43.43c45.09,9.82,90.97,16.06,137.05,18.63"/>
<path class="st0" d="M456.65,196.12c27.36-5.75,56.14,0.16,81.72,11.46c25.57,11.3,48.47,27.76,71.16,44.1
	c16.68,12.01,33.37,24.02,50.05,36.03"/>
<path class="st0" d="M464.21,306.71c19.35,26.6,45.17,48.47,77.74,69.31c1.08-39.79-11.62-79.82-35.44-111.71"/>
<path class="st0" d="M442.64,190.2c3.37-14.92,14.96-27,28.44-34.23c13.48-7.23,28.79-10.23,43.93-12.43
	c37.63-5.45,77.11-6.83,110.69-24.66"/>
<path class="st0" d="M534.93,202.82c36.44-15.81,67.04-44.69,84.95-80.14"/>
<path class="st0" d="M303.5,236.66c-3.55-16.31-1.32-33.92,6.73-48.54s21.98-26.03,38.07-30.46c10.1-2.78,20.75-2.86,31.19-2.06
	c9.72,0.74,19.46,2.24,28.57,5.72c19.65,7.51,35.41,24.54,40.86,44.65c-4.64,7.79-10.36,14.94-16.95,21.17"/>
<path class="st0" d="M451.81,202.34c0.13-12.25-6.85-23.79-16.33-31.56c-9.48-7.76-21.23-12.21-33.03-15.49
	c-8.38-2.33-16.95-4.14-25.64-4.4c-35.15-1.05-68.86,26.92-74.31,61.67"/>
<path class="st0" d="M309.45,237.74c-7.34-22.79-0.22-49.21,16.54-66.3c16.76-17.09,42.16-24.74,65.85-21.26"/>
<path class="st0" d="M363.44,232.88c-14.8-9.46-35.39-4.27-48.49,7.43c-13.1,11.7-20.38,28.43-26.95,44.72
	c-19.74,48.97-36.59,99.12-52.4,154.9c29.24-18.46,54.02-43.15,77.13-68.87c14.42-16.05,28.51-32.91,36.97-52.76
	C359.54,295.24,361.19,269.64,363.44,232.88z"/>
<path class="st0" d="M387.39,237.04c-13.63,2.16-20.12,18.55-19.52,32.34c0.82,18.71,9.7,36.24,20.99,51.18
	c11.29,14.94,25.03,27.82,37.51,41.78c24.26,27.15,43.75,58.55,57.32,92.34"/>
<path class="st0" d="M425.84,226.25c12.94,2.85,18.87,17.58,22.5,30.33c17.61,61.86,30.15,125.17,37.45,189.07"/>
<path class="st0" d="M335.26,339.86c8.49,37.34,28.86,70.74,49.53,102.97"/>
<path class="st0" d="M395.15,327.1c9.71,41.51-3.06,84.86-19.11,124.36"/>
<path class="st0" d="M455.85,308.55c5.22,1.31,8.58,6.2,11.74,10.56c16.82,23.15,41.63,40.39,69.2,48.07"/>
<path class="st0" d="M497.49,257.16c15.74,13.38,24.84,33.25,28.95,53.5c4.11,20.25,3.67,41.11,3.21,61.76"/>
<path class="st0" d="M440.24,221.88c9.92,23.12,31.98,39.31,55.71,47.67c23.73,8.36,49.25,9.85,74.39,10.78s50.57,1.39,74.89,7.84"
	/>
<path class="st0" d="M459.4,197.53c38.13-11.3,78.68,6.15,112.43,27.19c30.28,18.87,58.49,40.93,85.25,64.54"/>
<path class="st0" d="M529.85,206.75c39.84-18.55,73.35-50.41,93.88-89.26"/>
<path class="st0" d="M442.7,184.54c18.91-26.6,52.89-37.6,85.07-42.99s65.83-7.11,94.99-21.76"/>
<path class="st0" d="M245.15,277.72c-24.57,20.2-45.15,45.24-60.2,73.26c-9.33,17.37-16.78,36.19-30.29,50.56"/>
<path class="st0" d="M161.72,383.37c2.95,8.02,5.91,16.03,8.86,24.05"/>
<path class="st0" d="M170.39,366.09c5.05,13.19,10.48,26.25,16.27,39.13"/>
<path class="st0" d="M169.09,375.98c2.76,9.29,5.84,18.48,9.25,27.55"/>
<path class="st0" d="M175.69,363.02c4.93,12.3,10.26,24.45,15.97,36.42"/>
<path class="st0" d="M180.03,357.05c5.51,13.09,11.25,26.08,17.21,38.98"/>
<path class="st0" d="M185.16,350.28c4.62,13.98,10.33,27.6,17.07,40.7"/>
<path class="st0" d="M189.3,344.99c5.12,15.05,11.31,29.73,18.52,43.9"/>
<path class="st0" d="M194.78,338.37c4.69,15.5,10.73,30.6,18.04,45.05"/>
<path class="st0" d="M198.91,331.57c6.16,14.65,12.41,29.25,18.75,43.82c0.21,0.47,1.2,0.55,0.87,0.15"/>
<path class="st0" d="M205.27,324.18c5.8,16.47,12.38,32.68,19.7,48.53"/>
<path class="st0" d="M211.18,320.29c5.84,15.62,12.51,30.92,19.97,45.84"/>
<path class="st0" d="M216.67,307.98c5.56,17.05,12.51,33.64,20.77,49.56"/>
<path class="st0" d="M224.31,299.74c6.52,18.63,13.61,37.07,21.27,55.27"/>
<path class="st0" d="M231.19,296.42c6.07,18.12,13.04,35.95,20.88,53.38"/>
<path class="st0" d="M240.2,289.11c6.65,17.58,13.3,35.17,19.94,52.75"/>
<path class="st0" d="M249.89,285.73c4.46,14.63,9.82,28.99,16.02,42.97"/>
<path class="st0" d="M367.79,428.72c6.67,0.63,13.37,0.93,20.07,0.92"/>
<path class="st0" d="M364.1,422.01c8.36-0.01,16.73-0.02,25.09-0.03"/>
<path class="st0" d="M359.01,414.31c9.78,0.02,19.56-0.08,29.33-0.31"/>
<path class="st0" d="M352.6,403.95c11.59-0.19,23.18-0.38,34.77-0.56"/>
<path class="st0" d="M350.69,392.9c14.46,1.78,29.09,2.19,43.62,1.2"/>
<path class="st0" d="M346.1,384c14.27-0.03,28.53-0.07,42.8-0.1"/>
<path class="st0" d="M345.96,372.78c14.4,0.38,28.79,0.76,43.19,1.15c0.81,0.02,1.98-0.42,1.67-1.17"/>
<path class="st0" d="M342.96,362.11c13.86,0.8,27.72,1.61,41.57,2.41c3.18,0.18,6.45,0.36,9.46-0.69"/>
<path class="st0" d="M341.12,352.11c16.21,1.08,32.41,2.15,48.62,3.23c1.58,0.1,3.3,0.17,4.6-0.73"/>
<path class="st0" d="M342.64,341.86c16.25,1.19,32.53,1.97,48.82,2.34"/>
<path class="st0" d="M348.95,332.04c13.07,1.23,26.18,2.01,39.3,2.32"/>
<path class="st0" d="M351.43,322.17c10.94,0.85,21.87,1.69,32.81,2.52c-0.04-0.64-0.57-1.21-1.2-1.3"/>
<path class="st0" d="M357.66,314.24c7.27,0.66,14.57,1.07,21.88,1.21"/>
<path class="st0" d="M358.83,304.54c6.45-0.17,12.91,0.09,19.32,0.8"/>
<path class="st0" d="M521.58,360.91c6.5-4.02,12.88-8.24,19.11-12.65"/>
<path class="st0" d="M515.45,357.96c7.05-5.63,14.37-10.93,21.92-15.87"/>
<path class="st0" d="M508.01,353.11c8.51-5.93,16.9-12.03,25.16-18.3"/>
<path class="st0" d="M501.4,348.27c11.43-7.21,22.37-15.2,32.71-23.9"/>
<path class="st0" d="M494.02,343.26c12.23-8.15,23.75-17.38,34.37-27.55"/>
<path class="st0" d="M492.22,335.36c12.57-7.65,24.34-16.6,35.07-26.67"/>
<path class="st0" d="M486.92,330.33c12.48-8.72,24.64-17.92,36.42-27.56"/>
<path class="st0" d="M481.82,324.53c13.25-9.49,26.05-19.62,38.33-30.34"/>
<path class="st0" d="M474.73,319.11c14.65-10.69,28.89-21.94,42.66-33.74"/>
<path class="st0" d="M471.19,312.13c14.56-10.03,28.13-21.49,40.45-34.17"/>
<path class="st0" d="M471.95,301.99c12.48-9.7,24.77-19.67,36.84-29.88"/>
<path class="st0" d="M467.94,295.73c11.24-9.02,22.47-18.03,33.71-27.05"/>
<path class="st0" d="M463.11,286.91c9.75-7.24,19.29-14.76,28.6-22.55"/>
<path class="st0" d="M463.08,278.37c7.51-6.01,15.22-11.75,23.13-17.22"/>
<path class="st0" d="M461.07,270.98c5.08-4.11,10.1-8.28,15.08-12.51"/>
<path class="st0" d="M457.01,263.63c3.81-2.66,7.47-5.53,10.97-8.58"/>
<path class="st0" d="M452.01,257.69c2.39-1.78,4.64-3.76,6.71-5.91"/>
<path class="st0" d="M451.43,249.49c1.66-1.2,3.33-2.41,4.99-3.61"/>
<path class="st0" d="M264.36,345.83c-27.01,36.46-71.88,54.94-115.82,66.25"/>
<path class="st0" d="M401.46,340.52c-7.36,134.36,29.35,270.78,103.16,383.29"/>
<path class="st0" d="M410.25,340.81c-14.49,58.73-1.85,120.45,12.74,179.16c17.43,70.12,38.48,141.31,81.9,199.06"/>
<path class="st0" d="M403.72,351.54c-3.29,56.83,5.08,113.68,15.66,169.61c4.22,22.29,8.8,44.57,15.64,66.2
	c7.01,22.18,16.35,43.55,25.67,64.87c11.27,25.78,22.73,51.88,40.22,73.92"/>
<path class="st0" d="M404.08,382.43c3.92,61.21,11.31,122.46,27.49,181.62s41.4,116.36,78.65,165.08"/>
<path class="st0" d="M365.48,239.16c5.46-0.68,10.92-1.37,16.38-2.05"/>
<path class="st0" d="M241.53,426.48c10.92-39.7,22.19-79.3,33.83-118.79c5.9-20.03,12.23-40.67,25.75-56.59
	c13.51-15.92,36.24-25.97,59.09-14.23c7.63,13.58,8.1,30.3,4.28,45.39c-3.82,15.09-11.6,28.87-19.85,42.07
	C318.54,366.1,286.21,404.84,241.53,426.48z"/>
<path class="st0" d="M376.54,251.43c-5.37,23.59,1.45,48.58,13.25,69.7c11.8,21.12,28.31,39.14,44.06,57.5
	c15.75,18.36,31.11,37.65,39.96,60.16"/>
<path class="st0" d="M436.63,229.44c9.3,11.04,14.47,24.94,18.54,38.79c18.55,63.07,17.78,130.11,30.23,194.66"/>
<path class="st0" d="M335.05,348.32c6.42,35.73,22.19,69.73,45.31,97.71"/>
<path class="st0" d="M339.84,357.13c7.95,29.81,16.71,61.07,38.45,82.96"/>
<path class="st0" d="M305.17,223.75c-16.16-11.98-36.73-17.85-56.78-16.2c-25.44,2.09-48.57,15.66-68.56,31.54
	s-37.88,34.39-58.8,49.02"/>
<path class="st0" d="M307.72,240.63c-19.85,16.82-43.4,28.97-68.11,37.13c-24.7,8.16-50.57,12.41-76.51,14.44
	c-13.5,1.06-27.51,1.44-40.1-3.55"/>
<path class="st0" d="M308.47,224.99c-8.29-5.15-17.95-7.68-27.6-9.13c-41.67-6.28-85.89,7.31-116.84,35.91
	c-13.18,12.18-24.5,27.19-40.84,34.6"/>
<path class="st0" d="M310.56,240.32c-44.59,30.62-96.52,51.91-150.52,55.05c-12.08,0.7-24.64,0.41-35.63-4.67"/>
<path class="st0" d="M305.43,223.75c-5.42-6.02-13.91-8.11-21.95-9.12c-39.65-4.97-80.15,9.38-112.02,33.49
	c-6.08,4.6-11.88,9.54-17.69,14.47c-9.77,8.31-19.55,16.63-29.32,24.94"/>
<path class="st0" d="M308.03,244.8c-23.95,15.61-49.42,29.09-76.45,38.41c-27.03,9.32-55.68,14.42-84.24,13.21
	c-11.73-0.5-23.77-2.18-33.9-8.11"/>
<path class="st0" d="M305.17,219.5c-26.34-14.06-59.06-11.44-86.7-0.15c-27.64,11.29-51.28,30.34-74.48,49.13
	c-9.72,7.87-19.44,15.74-29.15,23.61"/>
<path class="st0" d="M254.17,274.53c4.36,16.06,9.21,31.98,14.56,47.74"/>
<path class="st0" d="M261.96,271.2c3.37,11.4,7.09,22.69,11.16,33.85"/>
<path class="st0" d="M270.81,266.95c2.74,7.59,5.17,15.29,7.26,23.08"/>
<path class="st0" d="M280.64,259.73c1.48,5.85,2.96,11.7,4.43,17.55"/>
<path class="st0" d="M289.11,254.57c0.8,2.16,1.6,4.31,2.4,6.47"/>
</svg>
