<?xml version="1.0" encoding="utf-8"?>
<!-- Generator: Adobe Adobe Illustrator 24.2.0, SVG Export Plug-In . SVG Version: 6.00 Build 0)  -->
<svg version="1.1" id="Layer_1" xmlns="http://www.w3.org/2000/svg" xmlns:xlink="http://www.w3.org/1999/xlink" x="0px" y="0px"
	 width="800px" height="800px" viewBox="0 0 800 800" style="enable-background:new 0 0 800 800;" xml:space="preserve">
<style type="text/css">
	.st0{fill:none;stroke:#000000;stroke-miterlimit:10;}
</style>
<path class="st0" d="M307.61,242.03c-12.03-20.62-5.27-48.72,11.74-65.47s41.99-23.38,65.86-22.91c14.73,0.29,29.95,3.27,41.8,12.03
	c15.62,11.54,22.88,30.96,29.35,49.28"/>
<path class="st0" d="M342.82,232.8c-19.72-3.59-39.45,9.52-49.87,26.64s-13.53,37.57-16.44,57.4c-3.52,24.07-7.04,48.13-9.08,80.06
	c23.21-14.63,45.29-31.54,62.76-52.69c17.47-21.15,30.15-46.86,32.76-74.17C364.18,257.21,364.89,236.82,342.82,232.8z"/>
<path class="st0" d="M472.72,419.37c-61.08-30.12-101.15-98.43-97.62-166.44c4.58-17.77,34.27-30.69,56.64-26.73
	c12.57,9.42,19.75,24.26,25.62,38.83C476.92,313.67,486.99,366.12,472.72,419.37z"/>
<path class="st0" d="M381.97,240.93c-8.62,16.6-5.66,36.73-0.8,54.8c12.31,45.76,36.86,89.93,76.1,116.49"/>
<path class="st0" d="M636.8,306.05c-73.9,8.63-151.25-21.81-199.44-78.49c9.27-21.74,28.56-37.03,42.44-35.36
	c17.35,0.44,33.13,9.56,48.05,18.42C568.17,234.56,609.72,259.62,636.8,306.05z"/>
<path class="st0" d="M301.2,223.64c-5.88-10.04-20.42-9.62-31.72-6.85c-43.03,10.54-81.98,36.92-116.26,75.66
	c39.82,6.91,81.39,3.49,119.55-9.84"/>
<path class="st0" d="M445.42,188.22c21.65-22.04,52.54-32.62,83.07-37.33c30.53-4.7,61.64-4.25,92.3-8.03"/>
<path class="st0" d="M526,206.6c5.54-0.81,10.71-3.16,15.8-5.49c31.06-14.2,62.63-28.73,88.16-51.41"/>
<path class="st0" d="M445.85,189.61c8.46-13.95,24.79-20.82,40.33-25.79c47.37-15.16,97.16-20.87,146.57-26.51"/>
<path class="st0" d="M521.15,208.61c23.78-9.53,47.76-19.17,69.01-33.47c18.22-12.26,34.05-27.68,49.78-43.02"/>
<path class="st0" d="M444.76,206.57c12.27-10.67,30.02-13.32,46-10.31s30.55,11.02,44.29,19.72c9.4,5.95,18.57,12.27,27.47,18.94
	c27.96,20.97,53.69,45.68,85.35,60.47"/>
<path class="st0" d="M436.86,224.07c8.94,28.23,38.58,43.84,66.22,54.47c45.5,17.5,94.37,29.69,142.79,24.01"/>
<path class="st0" d="M301.53,229.39c-7.45-9.54-20.89-12.76-32.86-10.97s-22.85,7.78-33.31,13.88
	c-32.87,19.16-64.52,40.42-95.6,66.42c20.22-1.1,40.44-2.2,60.67-3.3c23.61-1.28,48.87-3.16,67.46-17.76"/>
<path class="st0" d="M438.93,227.4c-13.42-3.14-27.95-3.82-40.62,1.6c-12.67,5.42-22.9,18.03-22.38,31.8"/>
<path class="st0" d="M349.03,233.85c9.2-3.06,17.91,6.57,20.45,15.93c3.43,12.62,1.08,26.26-4.11,38.26
	c-5.19,12-13.07,22.62-21.08,32.95c-22.52,29.05-46.67,56.83-72.31,83.17"/>
<path class="st0" d="M306.75,241.56c-7.82-8.62-8.23-21.84-5.1-33.05c8.97-32.19,43.87-53.31,77.23-51.27s63.48,24.14,80.46,52.93"
	/>
<path class="st0" d="M437,227.07c7.53,14.89,20.37,26.44,34.11,35.91c45.63,31.45,102.55,42.86,157.97,43.23"/>
<path class="st0" d="M237.91,292.52c-14.96,27.04-31.65,53.14-49.3,80.59c7.7,0.25,15.55,0.49,22.94-1.67
	c5.16-1.51,9.91-4.13,14.95-6c6.69-2.48,13.81-3.6,20.59-5.82c6.78-2.22,13.49-5.81,17.34-11.83"/>
<path class="st0" d="M338.9,339.34c-4.91,27.67,8.12,57.69,31.7,72.99"/>
<path class="st0" d="M388.9,340.39c1.47,29.18,2.38,59.63-9.65,86.25"/>
<path class="st0" d="M479.05,329.39c2.12,7.51,9.07,12.47,15.59,16.76c15.94,10.49,32.11,20.63,48.49,30.42"/>
<path class="st0" d="M520.76,288.92c17.88,20.21,27.25,47.71,25.43,74.62"/>
<path class="st0" d="M239.49,290.39c-16.15,27.93-31.69,56.22-51.76,85.09c19.53,4.83,39.58-3.95,57.78-12.51
	c7.25-3.41,14.5-6.82,21.74-10.23"/>
<path class="st0" d="M339.24,333.04c0.8,33.88,15.64,67.21,40.29,90.47"/>
<path class="st0" d="M389.35,312.97c3.05,36.68,5.77,75.33-9.91,108.63"/>
<path class="st0" d="M478.1,320.1c14.63,24.56,38.67,43.34,66.04,51.58"/>
<path class="st0" d="M520.1,288.22c19.89,24.23,28.19,57.57,21.98,88.3"/>
<path class="st0" d="M418.21,382.09c15.26,98.24-16.51,197.7-57.17,288.42"/>
<path class="st0" d="M401.31,352.48c13.99,47.41,11.31,98.23,2.89,146.94c-12.17,70.4-36.11,138.76-70.54,201.36"/>
<path class="st0" d="M414.53,374.15c2.93,54.63,3.15,109.96-8.62,163.39c-15.48,70.3-50.94,134.32-83.47,191.56
	c7.16-7.04,12.18-15.91,17.03-24.7c26.5-47.98,51.03-97.87,62.22-151.52c6.2-29.73,8.21-60.15,10.21-90.46
	C413.73,434.65,415.55,406.62,414.53,374.15z"/>
<path class="st0" d="M334.51,232.67c9.03-1.47,19.67-2.11,25.89,4.6c5.33,5.75,5.13,14.6,4.09,22.37
	c-4.86,36.26-21.23,70.89-46.18,97.65"/>
<path class="st0" d="M404.16,225.29c-15.63,6.68-27.13,21.54-31.11,38.06c-3.98,16.52-0.78,34.38,7.38,49.28
	c3.2,5.85,7.13,11.27,11.04,16.67c15.46,21.34,30.99,42.76,49.4,61.63c7.6,7.79,15.85,15.37,20.42,25.25"/>
<path class="st0" d="M425.27,224.15c8.56,3.62,14.71,11.27,19.68,19.12c15.06,23.78,22.56,51.71,25.58,79.7
	c3.02,27.98,1.77,56.23,0.51,84.35"/>
<path class="st0" d="M445.35,186.57c25.77-20.34,58.67-29.27,91.07-34.56c32.4-5.3,65.45-7.49,96.98-16.61"/>
<path class="st0" d="M520.61,211.3c38.99-10.92,74.98-32.34,103.18-61.4"/>
<path class="st0" d="M452.54,201.61c-2.63-21.26-23.8-35.45-44.48-41.03c-23.15-6.24-48.83-5.12-69.94,6.25
	c-21.11,11.36-36.74,33.77-37.72,57.38c-14.96-5.95-32.13-3.71-47.05,2.32c-14.92,6.03-28.11,15.57-41.43,24.6
	c-24.5,16.6-49.98,31.75-79.55,49.38c23.76,2.7,47.73,4.73,71.57,2.79s47.67-8.01,68.06-20.52"/>
<path class="st0" d="M258.55,292.32c12.44-6.37,24.3-13.85,35.41-22.33"/>
<path class="st0" d="M245.8,286.9c-27.13,25.81-40.88,62.52-62.37,96.06c25.53-4.62,50.18-14.05,72.28-27.64"/>
<path class="st0" d="M338.04,330.08c-3.27,3.46-2.6,8.96-1.52,13.59c6.84,29.38,21.59,56.88,42.28,78.83"/>
<path class="st0" d="M389.51,317.48c3.57,17.85,5.99,36.04,5.17,54.23c-0.82,18.18-4.98,36.43-13.91,52.29"/>
<path class="st0" d="M478.26,315.91c-2.52-2.02-5.04-4.04-7.56-6.06c16.35,25.26,42.31,42.43,67.52,58.86"/>
<path class="st0" d="M518.02,284.14c20.76,25.64,29.99,60.27,24.75,92.84"/>
<path class="st0" d="M266.99,398.73c1.6-28.54,3.84-57.1,8.47-85.31c3.11-18.97,7.65-38.51,19.68-53.5
	c2.95-3.68,6.3-7.01,9.75-10.21c8.17-7.57,17.32-14.65,28.12-17.39c10.8-2.74,23.57-0.19,33.02,10.21
	c3.93,14.99,0.78,30.99-4.59,45.52C346.47,328.66,315.45,360.93,266.99,398.73z"/>
<path class="st0" d="M337.96,228.21c-17.31,1.97-32.43,13.59-42.19,28.02s-14.83,31.49-18.68,48.48
	c-7.11,31.34-10.55,63.51-10.24,95.64"/>
<path class="st0" d="M389.68,238.78c-6.82,0.13-13.62,0.78-21.81,4.53C374.19,241.19,380.85,240.07,389.68,238.78z"/>
<path class="st0" d="M428.65,224.73c5.63-1.98,11.04-4.6,16.09-7.78"/>
<path class="st0" d="M452.45,203.54c-2.22-10.62-8.2-20.26-16.05-27.76s-17.5-12.92-27.66-16.75c-14.56-5.48-30.54-7.75-45.82-4.84
	c-17.15,3.27-32.85,13.11-43.8,26.72c-10.95,13.6-17.16,30.82-18.12,48.25"/>
<path class="st0" d="M367.52,242.66c3.19-0.95,6.37-1.9,9.56-2.85"/>
<path class="st0" d="M531,367.22c5.02-4.53,10.05-9.07,15.07-13.6"/>
<path class="st0" d="M523.65,364.03c0.7-1.85,2.16-3.3,3.58-4.68c6.33-6.17,12.66-12.34,18.99-18.51"/>
<path class="st0" d="M520.88,360.12c8.36-9.13,16.48-18.48,24.36-28.03"/>
<path class="st0" d="M514.53,355.69c10.46-11.87,20.91-23.73,31.37-35.6"/>
<path class="st0" d="M509.64,351.42c11.95-13.12,23.48-26.62,34.56-40.48"/>
<path class="st0" d="M502.79,348.02c11.82-13.11,23.23-26.6,34.19-40.44"/>
<path class="st0" d="M497.63,342.43c11.95-14.33,23.9-28.67,35.85-43"/>
<path class="st0" d="M491,335.75c12.51-14.27,25.02-28.54,37.53-42.81"/>
<path class="st0" d="M488,329.12c10.85-13.11,21.69-26.21,32.54-39.32"/>
<path class="st0" d="M482.77,324.21c11.12-12.45,21.87-25.22,32.23-38.31"/>
<path class="st0" d="M477.97,318.93c8.96-10.2,17.58-20.71,25.83-31.49"/>
<path class="st0" d="M473.05,311.73c8.96-9.39,17.34-19.34,25.07-29.78"/>
<path class="st0" d="M472.37,301.85c7.65-7.93,14.68-16.46,20.99-25.48"/>
<path class="st0" d="M469.33,292.27c6.03-5.85,11.44-12.35,16.11-19.34"/>
<path class="st0" d="M466.38,284.96c5.24-4.79,9.71-10.41,13.22-16.58"/>
<path class="st0" d="M463.72,275.18c3.42-4.68,6.84-9.37,10.25-14.05"/>
<path class="st0" d="M459.92,267.3c1.93-2.63,3.86-5.26,5.8-7.88c0.76-1.04,1.57-2.32,1.1-3.53"/>
<path class="st0" d="M455.28,258.15c2.07-2.99,3.94-6.12,5.59-9.36"/>
<path class="st0" d="M369.95,411.64c5.24,0.39,10.52,0.16,15.7-0.7"/>
<path class="st0" d="M360.13,404.76c8.39-0.11,16.77-0.22,25.16-0.33"/>
<path class="st0" d="M359.61,397.36c8.79-0.34,17.59-0.69,26.38-1.03"/>
<path class="st0" d="M355.33,390.43c8,0.1,16,0.19,24,0.29c2.6,0.03,5.31,0.04,7.67-1.06"/>
<path class="st0" d="M351.34,382.19c9.21-0.46,18.43-0.92,27.64-1.38c3.17-0.16,6.34-0.32,9.49-0.74"/>
<path class="st0" d="M349.7,373.45c11.76-0.38,23.51-0.94,35.25-1.65"/>
<path class="st0" d="M345.51,365.47c13.65,0.58,27.34,0.19,40.94-1.16"/>
<path class="st0" d="M346.92,356.69c13.87,0.98,27.81,0.89,41.67-0.26"/>
<path class="st0" d="M344.49,348.89c12.07,0.02,24.14,0.03,36.21,0.05c2.82,0,5.75-0.02,8.27-1.29"/>
<path class="st0" d="M343.44,340.32c13.42,0.4,26.86,0.42,40.28,0.04"/>
<path class="st0" d="M343.31,333.5c13.36,0.31,26.73,0.2,40.08-0.33"/>
<path class="st0" d="M347.65,326.06c12.46,0.83,24.96,0.87,37.42,0.11c0.25-0.02,0.58-0.09,0.62-0.34c0.04-0.25-0.51-0.2-0.34-0.01"
	/>
<path class="st0" d="M355.26,320.94c9.87-0.36,19.75-0.72,29.62-1.08"/>
<path class="st0" d="M357.13,311.88c6.51,0.01,13.02,0.02,19.53,0.04c0.9,0,2.01-0.12,2.36-0.95"/>
<path class="st0" d="M355.31,304.29c7.31,0.95,14.73,1.02,22.06,0.22"/>
<path class="st0" d="M358.88,295.88c5.26,0.57,10.62,0.29,15.79-0.84"/>
<path class="st0" d="M360.45,289.54c4.51,0.12,9.03-0.12,13.51-0.72"/>
<path class="st0" d="M368.46,264.66c2.71,0,5.43,0.01,8.14,0.01"/>
<path class="st0" d="M368.47,254.54c3.58,0.1,7.17,0.2,10.75,0.3"/>
<path class="st0" d="M367.59,246.52c3.28,0.21,6.56,0.43,9.83,0.64"/>
<path class="st0" d="M196.11,365.45c2.83,4.65,5.65,9.29,8.48,13.94"/>
<path class="st0" d="M198.13,358.19c3.11,5.3,6.53,10.41,10.24,15.3"/>
<path class="st0" d="M201.51,352.63c4.29,6.14,8.57,12.29,12.86,18.43"/>
<path class="st0" d="M207.06,347.09c4.6,7.96,9.71,15.63,15.28,22.95"/>
<path class="st0" d="M209.72,341.38c5.54,8.9,11.51,17.52,17.89,25.84c0.48,0.62,1.14,1.31,1.9,1.14"/>
<path class="st0" d="M213.89,334.47c7.09,11,14.68,21.66,22.76,31.95"/>
<path class="st0" d="M218,332.14c7.75,10.45,15.83,20.65,24.22,30.6"/>
<path class="st0" d="M219.81,322.7c9.41,12.28,18.81,24.55,28.22,36.83"/>
<path class="st0" d="M224.51,319.87c8.66,12.21,17.91,24,27.71,35.32"/>
<path class="st0" d="M229.05,316.15c8.13,12.49,17.23,24.36,27.18,35.45"/>
<path class="st0" d="M231.54,312.06c10.15,13.59,20.78,26.83,31.85,39.69"/>
<path class="st0" d="M232.18,304.96c10.87,13.29,21.74,26.57,32.61,39.86"/>
<path class="st0" d="M238.23,303.45c9.51,13.71,19.94,26.78,31.21,39.08"/>
<path class="st0" d="M242.13,301.01c7.76,10.95,16.39,21.29,25.8,30.86"/>
<path class="st0" d="M245.95,298.04c7.98,10.1,16.28,19.94,24.9,29.49"/>
<path class="st0" d="M250.62,293.52c6.66,9.1,13.94,17.74,21.77,25.86"/>
<path class="st0" d="M256.34,291.24c5.56,7.59,11.3,15.05,17.24,22.35c0.01-0.38,0.02-0.77,0.03-1.15"/>
<path class="st0" d="M262,289.36c4.05,4.58,8.09,9.16,12.14,13.74c0.15,0.17,0.34,0.35,0.55,0.3c0.21-0.05,0.18-0.48-0.02-0.41"/>
<path class="st0" d="M269.2,286.32c2.42,3.01,4.83,6.02,7.25,9.02c0.14,0.18,0.32,0.37,0.55,0.37S277.4,295.37,269.2,286.32z"/>
<path class="st0" d="M275.89,284.49c1.5,1.78,3,3.55,4.5,5.33"/>
</svg>
