<?xml version="1.0" encoding="utf-8"?>
<!-- Generator: Adobe Adobe Illustrator 24.2.0, SVG Export Plug-In . SVG Version: 6.00 Build 0)  -->
<svg version="1.1" id="Layer_2" xmlns="http://www.w3.org/2000/svg" xmlns:xlink="http://www.w3.org/1999/xlink" x="0px" y="0px"
	 width="800px" height="800px" viewBox="0 0 800 800" style="enable-background:new 0 0 800 800;" xml:space="preserve">
<style type="text/css">
	.st0{fill:none;stroke:#000000;stroke-miterlimit:10;}
</style>
<path class="st0" d="M363.14,236.22c-3.89-7.39-12.58-11.4-20.93-11.39s-16.35,3.49-23.37,8.02c-20.92,13.49-34.52,36.1-42.5,59.68
	s-10.99,48.49-15.24,73.02s-9.97,49.3-26.17,71.71c34.1-23.45,65.72-50.49,94.18-80.52c14.4-15.19,28.3-31.69,35-51.52
	C371.19,284.34,375.38,259.46,363.14,236.22z"/>
<path class="st0" d="M238.44,437.9c11.98-9.29,23.86-18.71,35.64-28.25c25.76-20.86,51.43-42.76,69.34-70.66s27.26-63,17.62-94.72"
	/>
<path class="st0" d="M415.89,226.04c-17.03,3.19-36.11,7.77-44.88,22.71c-3.8,6.47-5.08,14.14-5.15,21.64
	c-0.11,11.19,2.36,22.41,7.28,32.45c4.81,9.8,11.82,18.32,18.78,26.74c22.94,27.79,45.89,55.58,68.83,83.37"/>
<path class="st0" d="M427.81,225.66c9.49,0.15,15.58,9.94,19.32,18.67c22.47,52.46,26.98,110.64,29.87,167.64"/>
<path class="st0" d="M459.42,413.81c-32.36-33.64-59.17-72.6-79.03-114.85c-4.28-9.1-8.29-18.6-8.8-28.63
	c-0.8-15.88,8.11-31.86,22.05-39.52c13.94-7.65,32.21-6.61,37.78,3.09c11.61,3.54,16.22,17.22,18.95,29.05
	c14.13,61.1,23.68,123.26,28.56,185.79"/>
<path class="st0" d="M368.68,269.73c27.41,62.79,68.98,118.32,112.82,170.97"/>
<path class="st0" d="M304.34,221.77c-8.38-11.27-22.62-16.47-36.36-19.35c-50.54-10.59-104.9,1.98-152.25-13.53
	c14.12,33.19,38.75,62.71,71.32,78.23s73.24,15.45,103.48-4.21"/>
<path class="st0" d="M242.2,279.08c-18.58,13.86-31.47,33.87-43.45,53.72c-14.49,24-28.25,48.43-45.07,70.24
	c26.23-7.58,50.69-20.16,74.96-32.66c10.92-5.62,22.07-11.42,30.4-20.45"/>
<path class="st0" d="M302.63,230.61c-2.78-10.52-13.73-16.58-24.08-19.95c-51.35-16.72-110.7,2.93-161.38-21.42
	c16.4,30.7,39.99,58.57,71.05,74.27s70.21,17.63,100.02-0.33"/>
<path class="st0" d="M242.51,277.76c-39.39,37.05-71.45,81.86-93.81,131.1"/>
<path class="st0" d="M266.36,344c-30.31,29.87-70.71,46.79-110.05,63.02"/>
<path class="st0" d="M305.8,236.47c-6.87-17.17-3.41-37.6,7.21-52.74c10.62-15.14,27.73-25.11,45.83-28.89
	c18.41-3.84,38.19-1.5,54.81,7.3s29.84,24.13,36.55,44.54c-3.69,8.36-10.2,15.43-18.23,19.79"/>
<path class="st0" d="M440.39,186.71c6.58-13.38,20.53-21.4,34.25-27.24c47.69-20.3,101.09-23.64,152.97-43.76
	c-20.04,32.51-47.46,60.44-79.61,81.06"/>
<path class="st0" d="M441.28,233.6c36.39,33.5,89.62,39.24,138.92,43.32c27.97,2.32,55.94,4.63,83.91,6.95"/>
<path class="st0" d="M341.43,343.39c-2.59,16.64,5.12,32.96,12.62,48.04c9.79,19.69,19.94,39.85,36.13,54.72"/>
<path class="st0" d="M389.07,333.69c8.08,37.22,5.63,76.66-7,112.59"/>
<path class="st0" d="M462.2,312.73c21.42,24.83,44.72,50.88,76.31,59.67"/>
<path class="st0" d="M508.3,268.32c23.77,25.48,31.1,62.56,29.64,97.37"/>
<path class="st0" d="M435.1,225.16c21.64,25.85,56.29,36.25,89.24,43.43c45.09,9.82,90.97,16.06,137.05,18.63"/>
<path class="st0" d="M456.65,196.12c27.36-5.75,56.14,0.16,81.72,11.46c25.57,11.3,48.47,27.76,71.16,44.1
	c16.68,12.01,33.37,24.02,50.05,36.03"/>
<path class="st0" d="M464.21,306.71c19.35,26.6,45.17,48.47,77.74,69.31c1.08-39.79-11.62-79.82-35.44-111.71"/>
<path class="st0" d="M442.64,190.2c3.37-14.92,14.96-27,28.44-34.23c13.48-7.23,28.79-10.23,43.93-12.43
	c37.63-5.45,77.11-6.83,110.69-24.66"/>
<path class="st0" d="M534.93,202.82c36.44-15.81,67.04-44.69,84.95-80.14"/>
<path class="st0" d="M303.5,236.66c-3.55-16.31-1.32-33.92,6.73-48.54s21.98-26.03,38.07-30.46c10.1-2.78,20.75-2.86,31.19-2.06
	c9.72,0.74,19.46,2.24,28.57,5.72c19.65,7.51,35.41,24.54,40.86,44.65c-4.64,7.79-10.36,14.94-16.95,21.17"/>
<path class="st0" d="M451.81,202.34c0.13-12.25-6.85-23.79-16.33-31.56c-9.48-7.76-21.23-12.21-33.03-15.49
	c-8.38-2.33-16.95-4.14-25.64-4.4c-35.15-1.05-68.86,26.92-74.31,61.67"/>
<path class="st0" d="M309.45,237.74c-7.34-22.79-0.22-49.21,16.54-66.3c16.76-17.09,42.16-24.74,65.85-21.26"/>
<path class="st0" d="M363.44,232.88c-14.8-9.46-35.39-4.27-48.49,7.43c-13.1,11.7-20.38,28.43-26.95,44.72
	c-19.74,48.97-36.59,99.12-52.4,154.9c29.24-18.46,54.02-43.15,77.13-68.87c14.42-16.05,28.51-32.91,36.97-52.76
	C359.54,295.24,361.19,269.64,363.44,232.88z"/>
<path class="st0" d="M387.39,237.04c-13.63,2.16-20.12,18.55-19.52,32.34c0.82,18.71,9.7,36.24,20.99,51.18
	c11.29,14.94,25.03,27.82,37.51,41.78c24.26,27.15,43.75,58.55,57.32,92.34"/>
<path class="st0" d="M425.84,226.25c12.94,2.85,18.87,17.58,22.5,30.33c17.61,61.86,30.15,125.17,37.45,189.07"/>
<path class="st0" d="M335.26,339.86c8.49,37.34,28.86,70.74,49.53,102.97"/>
<path class="st0" d="M395.15,327.1c9.71,41.51-3.06,84.86-19.11,124.36"/>
<path class="st0" d="M455.85,308.55c5.22,1.31,8.58,6.2,11.74,10.56c16.82,23.15,41.63,40.39,69.2,48.07"/>
<path class="st0" d="M497.49,257.16c15.74,13.38,24.84,33.25,28.95,53.5c4.11,20.25,3.67,41.11,3.21,61.76"/>
<path class="st0" d="M440.24,221.88c9.92,23.12,31.98,39.31,55.71,47.67c23.73,8.36,49.25,9.85,74.39,10.78s50.57,1.39,74.89,7.84"
	/>
<path class="st0" d="M459.4,197.53c38.13-11.3,78.68,6.15,112.43,27.19c30.28,18.87,58.49,40.93,85.25,64.54"/>
<path class="st0" d="M529.85,206.75c39.84-18.55,73.35-50.41,93.88-89.26"/>
<path class="st0" d="M442.7,184.54c18.91-26.6,52.89-37.6,85.07-42.99s65.83-7.11,94.99-21.76"/>
<path class="st0" d="M303.64,236.39c2.71-3.98,1.28-9.71-2.01-13.23c-3.29-3.52-7.97-5.34-12.53-6.91
	c-16.13-5.54-32.83-9.39-49.76-11.46c-15.47-1.89-31.09-2.29-46.61-3.73c-26.9-2.49-53.41-8.06-79.85-13.63"/>
<path class="st0" d="M289.64,265.49c-34.4,18.69-78.15,12.76-112.36-6.29c-9.53-5.31-18.54-11.56-26.85-18.63
	c-15.6-13.27-28.91-29.82-35.58-49.18"/>
<path class="st0" d="M245.15,277.72c-24.57,20.2-45.15,45.24-60.2,73.26c-9.33,17.37-16.78,36.19-30.29,50.56"/>
<path class="st0" d="M264.36,345.83c-27.01,36.46-71.88,54.94-115.82,66.25"/>
<path class="st0" d="M401.46,340.52c-7.36,134.36,29.35,270.78,103.16,383.29"/>
<path class="st0" d="M410.25,340.81c-14.49,58.73-1.85,120.45,12.74,179.16c17.43,70.12,38.48,141.31,81.9,199.06"/>
<path class="st0" d="M403.72,351.54c-3.29,56.83,5.08,113.68,15.66,169.61c4.22,22.29,8.8,44.57,15.64,66.2
	c7.01,22.18,16.35,43.55,25.67,64.87c11.27,25.78,22.73,51.88,40.22,73.92"/>
<path class="st0" d="M404.08,382.43c3.92,61.21,11.31,122.46,27.49,181.62s41.4,116.36,78.65,165.08"/>
<path class="st0" d="M365.48,239.16c5.46-0.68,10.92-1.37,16.38-2.05"/>
<path class="st0" d="M241.53,426.48c10.92-39.7,22.19-79.3,33.83-118.79c5.9-20.03,12.23-40.67,25.75-56.59
	c13.51-15.92,36.24-25.97,59.09-14.23c7.63,13.58,8.1,30.3,4.28,45.39c-3.82,15.09-11.6,28.87-19.85,42.07
	C318.54,366.1,286.21,404.84,241.53,426.48z"/>
<path class="st0" d="M376.54,251.43c-5.37,23.59,1.45,48.58,13.25,69.7c11.8,21.12,28.31,39.14,44.06,57.5
	c15.75,18.36,31.11,37.65,39.96,60.16"/>
<path class="st0" d="M436.63,229.44c9.3,11.04,14.47,24.94,18.54,38.79c18.55,63.07,17.78,130.11,30.23,194.66"/>
<path class="st0" d="M335.05,348.32c6.42,35.73,22.19,69.73,45.31,97.71"/>
<path class="st0" d="M339.84,357.13c7.95,29.81,16.71,61.07,38.45,82.96"/>
</svg>
