<?xml version="1.0" encoding="utf-8" ?>
<svg baseProfile="full" height="782" version="1.1" viewBox="0,0,585,782" width="585" xmlns="http://www.w3.org/2000/svg" xmlns:ev="http://www.w3.org/2001/xml-events" xmlns:xlink="http://www.w3.org/1999/xlink">
	<path d="M 179.265839 183.752380 L 177.500071 184.670273 L 175.727159 185.574289 L 173.947122 186.464194 L 172.163402 187.346693 L 170.380911 188.231672 L 168.607381 189.134474 L 166.845364 190.059547 L 165.097285 191.010693 L 163.360559 191.982415 L 161.635734 192.975109 L 159.915115 193.975075 L 158.202189 194.988162 L 156.499205 196.017874 L 154.804981 197.061936 L 153.120144 198.121080 L 151.444725 199.195060 L 149.781541 200.287890 L 148.124732 201.390362 L 146.480558 202.511590 L 144.840915 203.639435 L 143.211065 204.781384 L 141.591308 205.937606 L 139.980415 207.106146 L 138.387989 208.299727 L 136.814426 209.518069 L 135.267272 210.769773 L 133.750749 212.058419 L 132.271221 213.389373 L 130.833021 214.764882 L 129.464409 216.209636 L 128.168059 217.719570 L 126.973813 219.311488 L 125.894961 220.983755 L 124.938284 222.728775 L 124.112054 224.539201 L 123.406903 226.400162 L 122.766531 228.284214 L 122.367963 230.233899 L 122.128559 232.209478 L 122.022915 234.196755 L 121.965487 236.186016 L 121.887637 238.174582 L 121.787667 240.162160 L 121.672576 242.148918 L 121.534474 244.134209 L 121.365889 246.117144 L 121.166408 248.097183 L 120.866347 250.064518 L 120.527646 252.025572 L 120.158476 253.981122 L 119.778654 255.934624 L 119.448959 257.897207 L 119.174142 259.868222 L 118.958942 261.846623 L 118.834823 263.832833 L 118.762313 265.821598 L 118.729236 267.811414 L 118.699239 269.801270 L 118.733238 271.791058 L 118.841653 273.778186 L 119.009560 275.761175 L 119.231555 277.738840 L 119.502058 279.710454 L 119.829927 281.673351 L 120.167055 283.634679 L 120.505833 285.595721 L 120.861494 287.553772 L 121.240348 289.507468 L 121.648172 291.455321 L 122.093689 293.394901 L 122.572412 295.326553 L 123.084795 297.249551 L 123.612551 299.168389 L 124.150945 301.084268 L 124.688985 303.000246 L 125.201759 304.923139 L 125.679215 306.855100 L 126.082083 308.803972 L 126.368305 310.773367 L 126.580799 312.752079 L 126.760892 314.734004 L 126.917563 316.717918 L 127.055106 318.703250 L 127.176538 320.689633 L 127.284476 322.676794 L 127.380570 324.664564 L 127.467184 326.652769 L 127.542317 328.641441 L 127.603695 330.630586 L 127.651064 332.620113 L 127.678248 334.610018 L 127.685243 336.600096 L 127.681387 338.590184 L 127.673888 340.580261 L 127.657266 342.570282 L 127.654432 344.560371 L 127.682274 346.550267 L 127.748546 348.539254 L 127.852338 350.526636 L 127.973443 352.513038 L 128.167575 354.493635 L 128.444100 356.464418 L 128.853946 358.411840 L 129.436573 360.314726 L 130.199123 362.152913 L 131.161311 363.894910 L 132.315862 365.515818 L 133.629430 367.010756 L 135.087380 368.365256 L 136.663960 369.579663 L 138.306577 370.703166 L 139.976657 371.785427 L 141.666909 372.835902 L 143.382268 373.844860 L 145.121621 374.811867 L 146.884141 375.735976 L 148.663801 376.626633 L 150.457783 377.488077 L 152.266109 378.318989 L 154.090776 379.113373 L 155.933150 379.865781 L 157.785282 380.593838 L 159.646032 381.299578 L 161.517569 381.976193 L 163.400207 382.621280 L 165.293074 383.235703 L 167.191838 383.831652 L 169.096710 384.407782 L 171.011190 384.951129 L 172.932456 385.469973 L 174.861586 385.958768 L 176.799727 386.410509 L 178.746430 386.823800 L 180.702061 387.192538 L 182.662770 387.533249 L 184.630486 387.830828 L 186.602360 388.099478 L 188.578576 388.334068 L 190.562666 388.488466 L 192.552011 388.542768 L 194.536938 388.399932 L 196.467114 387.916700 L 198.217946 386.971229 L 199.828704 385.802641 L 201.520159 384.754237 L 203.276578 383.818586 L 205.044354 382.904566 L 206.816849 381.999954 L 208.656333 381.241331 L 210.577243 380.721738 L 212.535930 380.370056 L 214.512731 380.140469 L 216.491836 379.931669 L 218.473201 379.745564 L 220.457100 379.588695 L 222.441486 379.438127 L 224.424793 379.273972 L 226.406466 379.091125 L 228.387863 378.905322 L 230.370818 378.736942 L 232.353737 378.568143 L 234.335759 378.389118 L 236.317194 378.203723 L 238.296792 377.999638 L 240.275079 377.783207 L 242.252568 377.559607 L 244.228864 377.325696 L 246.204452 377.085874 L 248.178872 376.836623 L 250.152741 376.583039 L 252.125702 376.322495 L 254.097540 376.053577 L 256.068455 375.777978 L 258.037920 375.492197 L 260.006620 375.201201 L 261.974090 374.901993 L 263.940288 374.594540 L 265.905257 374.279329 L 267.868818 373.955466 L 269.831508 373.626360 L 271.792622 373.287995 L 273.752361 372.941752 L 275.710725 372.587811 L 277.667415 372.224736 L 279.622997 371.855737 L 281.576986 371.478390 L 283.529371 371.092833 L 285.480266 370.699809 L 287.429520 370.298722 L 289.377384 369.890936 L 291.323863 369.476592 L 293.268825 369.055183 L 295.212725 368.628906 L 297.155572 368.197852 L 299.097645 367.763324 L 301.039192 367.326449 L 302.980129 366.886878 L 304.920159 366.443317 L 306.858933 365.994299 L 308.796278 365.539156 L 310.731931 365.076866 L 312.665487 364.605889 L 314.596464 364.124443 L 316.524703 363.632144 L 318.451009 363.132337 L 320.376767 362.630425 L 322.302432 362.128152 L 324.228547 361.627611 L 326.155173 361.129036 L 328.081476 360.629218 L 330.007310 360.127596 L 331.932977 359.625331 L 333.858333 359.121879 L 335.783579 358.618002 L 337.708394 358.112486 L 339.633233 357.607058 L 341.557763 357.100452 L 343.481991 356.592704 L 345.406072 356.084401 L 347.329530 355.573743 L 349.252323 355.060586 L 351.173759 354.542371 L 353.091994 354.012432 L 355.007672 353.473322 L 356.919442 352.920514 L 358.826497 352.351652 L 360.730620 351.773053 L 362.635638 351.197408 L 364.542697 350.628558 L 366.451328 350.065008 L 368.360543 349.503437 L 370.269480 348.940924 L 372.176107 348.370629 L 374.082639 347.800019 L 375.991691 347.237897 L 377.904777 346.689659 L 379.821913 346.155758 L 381.744265 345.640956 L 383.672665 345.149291 L 385.608346 344.687127 L 387.549669 344.249267 L 389.494980 343.829476 L 391.443422 343.424462 L 393.395204 343.035867 L 395.350002 342.662739 L 397.307044 342.301561 L 399.266406 341.953194 L 401.227450 341.614418 L 403.189956 341.284223 L 405.153837 340.962300 L 407.118655 340.646150 L 409.084471 340.336261 L 411.051096 340.031553 L 413.018353 339.730955 L 414.985999 339.432905 L 416.953486 339.133814 L 418.920089 338.828958 L 420.885303 338.515282 L 422.848783 338.190924 L 424.810499 337.856063 L 426.770928 337.513748 L 428.729214 337.159383 L 430.685560 336.794459 L 432.639405 336.416369 L 434.589691 336.020338 L 436.536278 335.606507 L 438.478038 335.170589 L 440.415842 334.717410 L 442.350232 334.249870 L 444.280797 333.766776 L 446.207529 333.268618 L 448.125860 332.739043 L 450.038142 332.188015 L 451.944063 331.615374 L 453.845071 331.026624 L 455.742388 330.426083 L 457.627210 329.787430 L 459.504411 329.126696 L 461.373048 328.442119 L 463.229562 327.725323 L 465.075709 326.982227 L 466.904165 326.196626 L 468.723401 325.389885 L 470.539630 324.576390 L 472.350783 323.751657 L 474.163612 322.930614 L 475.973899 322.103981 L 477.777414 321.262678 L 479.578413 320.416000 L 481.373748 319.557378 L 483.162508 318.685142 L 484.945342 317.800856 L 486.717855 316.896066 L 488.477420 315.966348 L 490.225650 315.015484 L 491.963099 314.045061 L 493.684966 313.047257 L 495.394370 312.028245 L 497.091246 310.988504 L 498.780787 309.936882 L 500.468038 308.881588 L 502.154624 307.825232 L 503.844291 306.773810 L 505.534550 305.723340 L 507.228610 304.679012 L 508.928827 303.644739 L 510.636405 302.622665 L 512.357443 301.623430 L 514.087720 300.640274 L 515.829006 299.676754 L 517.579718 298.730468 L 519.341207 297.804399 L 521.116086 296.904264 L 522.900980 296.024150 L 524.696085 295.165053 L 526.497736 294.319768 L 528.303376 293.483033 L 530.120571 292.671713 L 531.945061 291.876924 L 533.774501 291.093595 L 535.606445 290.316140 L 537.438007 289.537788 L 539.260935 288.739671 L 541.078699 287.930221 L 542.879908 287.084609 L 544.657677 286.192322 L 546.410151 285.252329 L 548.131021 284.254578 L 549.824048 283.209647 L 551.494255 282.128319 L 553.141137 281.011758 L 554.769336 279.868043 L 556.374557 278.692219 L 557.960361 277.490407 L 559.524017 276.259882 L 561.065179 275.001335 L 562.581591 273.713171 L 564.072173 272.395270 L 565.535156 271.046774 L 566.970755 269.669118 L 568.378471 268.262976 L 569.758584 266.829746 L 571.106658 265.366505 L 572.425149 263.876568 L 573.706367 262.354533 L 574.953495 260.804531 L 576.158018 259.221424 L 577.319160 257.606435 L 578.425683 255.954031 L 579.471203 254.262918 L 580.429558 252.522514 L 581.265688 250.724782 L 581.956855 248.870135 L 582.468850 246.957735 L 582.812929 245.006763 L 583.063293 243.034515" fill="none" stroke="black" stroke-width="1.000000" />
	<path d="M 181.894089 104.038345 L 180.265083 105.115992 L 178.703290 106.288859 L 177.261412 107.606148 L 175.902152 109.008657 L 174.865137 110.661836 L 173.986835 112.405982 L 173.327639 114.243589 L 172.824226 116.130311 L 172.444201 118.045844 L 172.136530 119.974544 L 171.790723 121.896819 L 171.352751 123.800013 L 170.785122 125.668395 L 170.015288 127.462192 L 169.071063 129.171111 L 167.877269 130.714715 L 166.426441 132.019341 L 164.765649 133.044195 L 162.953177 133.766537 L 161.118494 134.420105 L 159.256561 135.005478" fill="none" stroke="black" stroke-width="1.000000" />
	<path d="M 338.979248 317.094421 L 340.797018 316.288930 L 342.611968 315.477103 L 344.419332 314.648526 L 346.222094 313.809983 L 348.027888 312.977990 L 349.830998 312.140197 L 351.641774 311.319106 L 353.457900 310.509916 L 355.283642 309.722667 L 357.125077 308.972874 L 358.973202 308.239710 L 360.838230 307.550712 L 362.708118 306.874976 L 364.590676 306.235418 L 366.476737 305.606232 L 368.377439 305.022830 L 370.287462 304.470673 L 372.203118 303.938365 L 374.126551 303.434904 L 376.055309 302.952227 L 377.990804 302.497333 L 379.931162 302.063633 L 381.876973 301.655113 L 383.827729 301.270891 L 385.782949 300.910076 L 387.742291 300.572359 L 389.705538 300.258140 L 391.672110 299.965441 L 393.641960 299.695695 L 395.614828 299.448995 L 397.590163 299.222878 L 399.567991 299.019741 L 401.548026 298.839375 L 403.530101 298.683045 L 405.514155 298.554286 L 407.499816 298.453313 L 409.486705 298.380415 L 411.474232 298.327381 L 413.462232 298.297124 L 415.450455 298.294537 L 417.438606 298.312615 L 419.426641 298.341136 L 421.414712 298.367220 L 423.402814 298.390713 L 425.390824 298.420976 L 427.378775 298.454987 L 429.366349 298.506157 L 431.353752 298.563907 L 433.340868 298.630715 L 435.327792 298.703089 L 437.314528 298.780432 L 439.301185 298.859803 L 441.287730 298.941909 L 443.274224 299.025259 L 445.260832 299.105849 L 447.247657 299.180846 L 449.234945 299.242238 L 451.222742 299.283637 L 453.210859 299.304829 L 455.199078 299.301547 L 457.186048 299.234824 L 459.169565 299.099979 L 461.149772 298.921953 L 463.124931 298.694980 L 465.092449 298.409501 L 467.052110 298.074061 L 469.004601 297.698985 L 470.949130 297.284629 L 472.882984 296.823140 L 474.798930 296.292611 L 476.700809 295.713243 L 478.591608 295.098582 L 480.470329 294.447966 L 482.337081 293.763742 L 484.192267 293.048736 L 486.036182 292.305132 L 487.868648 291.533745 L 489.689465 290.735245 L 491.497841 289.908968 L 493.289801 289.047728 L 495.069155 288.160654 L 496.835471 287.247914 L 498.587167 286.307433 L 500.324288 285.340288 L 502.041220 284.337817 L 503.745235 283.313431 L 505.430846 282.259119 L 507.094741 281.170872 L 508.738711 280.052720 L 510.357637 278.898673 L 511.955115 277.715046 L 513.524142 276.494054 L 515.077365 275.252869 L 516.623756 274.003162 L 518.158650 272.739386 L 519.675851 271.454454 L 521.186487 270.161751 L 522.688904 268.859519 L 524.185510 267.550601 L 525.693476 266.254826 L 527.210869 264.970069 L 528.741811 263.701523 L 530.294937 262.460302 L 531.867689 261.243999 L 533.460029 260.053474 L 535.074302 258.892893 L 536.716285 257.771964 L 538.379121 256.682064 L 540.060078 255.620335 L 541.757600 254.585278 L 543.477815 253.588539 L 545.215139 252.621768 L 546.970749 251.688708 L 548.742852 250.787300 L 550.534948 249.926474 L 552.341918 249.097141 L 554.168343 248.311840 L 556.009126 247.560544 L 557.868622 246.857054 L 559.736577 246.176992 L 561.609899 245.511991 L 563.498313 244.890437 L 565.395864 244.299218 L 567.310845 243.769499 L 569.244942 243.320951 L 571.194708 242.944098 L 573.165449 242.709638 L 575.141733 242.577665 L 577.127713 242.533558 L 579.109750 242.657300 L 581.089238 242.798040 L 583.063293 243.034515" fill="none" stroke="black" stroke-width="1.000000" />
	<path d="M 191.040198 185.766740 L 191.813970 184.009940 L 192.562450 182.242215 L 193.024856 180.379123 L 193.465216 178.510660 L 193.889984 176.638590 L 194.312487 174.766008 L 194.728126 172.891890 L 195.115942 171.011819 L 195.472206 169.125516 L 195.789772 167.232328 L 196.056915 165.331382 L 196.275874 163.424356 L 196.434044 161.511292 L 196.550066 159.595235 L 196.623682 157.677075 L 196.657968 155.757808 L 196.655109 153.838222 L 196.625716 151.918821 L 196.586640 149.999693 L 196.537308 148.080704" fill="none" stroke="black" stroke-width="1.000000" />
	<path d="M 173.547180 116.201073 L 174.760421 117.101137 L 175.990566 117.977937 L 177.129017 118.970112 L 178.203435 120.031788 L 179.140383 121.216089 L 179.969254 122.478882" fill="none" stroke="black" stroke-width="1.000000" />
	<path d="M 192.957016 167.885681 L 192.157302 166.142143 L 191.380565 164.388251 L 190.655760 162.612296 L 189.975444 160.818828 L 189.318932 159.016490 L 188.742492 157.187128 L 188.222354 155.340880 L 187.750073 153.481804 L 187.322061 151.612037 L 186.931979 149.733975 L 186.571844 147.849925 L 186.237449 145.961130 L 185.927285 144.068204 L 185.637552 142.172036 L 185.371588 140.272401 L 185.122120 138.370509 L 184.886706 136.466826 L 184.685947 134.559266 L 184.508332 132.649326 L 184.344977 130.738111 L 184.183601 128.826718 L 184.019667 126.915543 L 183.866077 125.003520 L 183.721362 123.090795 L 183.574929 121.178200 L 183.423666 119.265980 L 183.266159 117.354266 L 183.105332 115.442826 L 182.937522 113.531989 L 182.761061 111.621932 L 182.560117 109.714320 L 182.350434 107.807706 L 182.127402 105.902577 L 181.895630 103.998444" fill="none" stroke="black" stroke-width="1.000000" />
	<path d="M 192.957016 167.885681 L 192.464964 166.017870 L 191.997866 164.144118 L 191.576756 162.259845 L 191.211410 160.364179 L 190.874814 158.462532 L 190.635205 156.546042 L 190.476740 154.621527 L 190.430304 152.691122 L 190.479641 150.760285 L 190.572764 148.830925 L 190.697679 146.903493 L 190.883764 144.981206 L 191.154314 143.069181 L 191.506831 141.170213 L 191.910047 139.281229 L 192.345458 137.399346 L 192.818591 135.526846 L 193.358678 133.672574 L 193.967815 131.839810 L 194.644197 130.030733 L 195.387986 128.248435 L 196.211622 126.501637 L 197.115551 124.794809 L 198.081758 123.122339 L 199.098021 121.479757 L 200.158413 119.865282 L 201.256794 118.276334 L 202.367158 116.696154 L 203.600969 115.209915 L 204.842034 113.729727" fill="none" stroke="black" stroke-width="1.000000" />
	<path d="M 166.750057 127.736899 L 167.224043 127.829831 L 167.698028 127.922763 L 168.172014 128.015696 L 168.637172 128.140112 L 169.090376 128.307159 L 169.543580 128.474206 L 169.996784 128.641253 L 170.460289 128.776412 L 170.925574 128.906061 L 171.390858 129.035710 L 171.860424 129.142955 L 172.340729 129.194001 L 172.821034 129.245048 L 173.301340 129.296094 L 173.782025 129.277391 L 174.262859 129.231589 L 174.743692 129.185786 L 175.222000 129.126626 L 175.686368 128.993731 L 176.150736 128.860836 L 176.615104 128.727941 L 177.062505 128.550487 L 177.497659 128.340869 L 178.367968 127.921633" fill="none" stroke="black" stroke-width="1.000000" />
	<path d="M 159.180115 174.687073 L 161.006332 175.065455 L 162.841560 175.397256 L 164.702182 175.509143 L 166.566810 175.503524 L 168.425624 175.361922 L 170.287671 175.262946 L 172.138838 175.050012 L 173.988895 174.814866 L 175.837488 174.568438 L 177.683530 174.303237 L 179.527107 174.021474 L 181.353964 173.650541 L 183.150379 173.152743 L 184.907041 172.528783 L 186.619119 171.790671 L 188.274479 170.933007 L 189.852940 169.941233 L 191.412745 168.921991 L 192.949524 167.865921" fill="none" stroke="black" stroke-width="1.000000" />
	<path d="M 328.920086 333.392233 L 329.339079 333.123841 L 329.758073 332.855448 L 330.177067 332.587056 L 330.596681 332.319651 L 331.020416 332.058808 L 331.444152 331.797966 L 331.867887 331.537124 L 332.292942 331.278474 L 332.721746 331.026051 L 333.150550 330.773627 L 333.579354 330.521204 L 334.010049 330.272067 L 334.443710 330.028082 L 334.877371 329.784097 L 335.311032 329.540112 L 335.747533 329.301315 L 336.186676 329.067341 L 336.625819 328.833366 L 337.064961 328.599392 L 337.508102 328.373173 L 337.953429 328.151195 L 338.398755 327.929216 L 338.844082 327.707237 L 339.294177 327.495178 L 339.745664 327.286012 L 340.197150 327.076845 L 340.648636 326.867678 L 341.104983 326.669380 L 341.561857 326.472259 L 342.018730 326.275138 L 342.475764 326.078403 L 342.937921 325.894009 L 343.400078 325.709614 L 343.862235 325.525220 L 344.325286 325.343175 L 344.793068 325.173555 L 345.260849 325.003935 L 345.728631 324.834316 L 346.197594 324.668090 L 346.669506 324.510326 L 347.141418 324.352563 L 347.613331 324.194799 L 348.086943 324.042363 L 348.562990 323.897554 L 349.039037 323.752745 L 349.515084 323.607935 L 349.993058 323.469772 L 350.472702 323.337364 L 350.952347 323.204957 L 351.431991 323.072549 L 351.913964 322.949064 L 352.397138 322.830184 L 352.880313 322.711305 L 353.363488 322.592425 L 353.849136 322.484242 L 354.335469 322.379026 L 354.821802 322.273810 L 355.308135 322.168594 L 355.796793 322.074846 L 356.285695 321.982297 L 356.774597 321.889749 L 357.263558 321.797536 L 357.754626 321.717267 L 358.245693 321.636998 L 358.736761 321.556729 L 359.228115 321.478372 L 359.721108 321.410930 L 360.214101 321.343488 L 360.707093 321.276046 L 361.200556 321.212453 L 361.695287 321.159239 L 362.190018 321.106025 L 362.684749 321.052811 L 363.180032 321.005603 L 363.676167 320.967654 L 364.172303 320.929706 L 364.668438 320.891757 L 365.164796 320.856976 L 365.661363 320.825180 L 366.157931 320.793385 L 366.654499 320.761589 L 367.151450 320.737120 L 367.648621 320.716836 L 368.145792 320.696551 L 368.642963 320.676267 L 369.140370 320.663752 L 369.637854 320.653721 L 370.135337 320.643690 L 370.632820 320.633659 L 371.130389 320.630614 L 371.627969 320.628533 L 372.623129 320.624371" fill="none" stroke="black" stroke-width="1.000000" />
	<path d="M 337.827416 349.477676 L 338.323274 349.433141 L 338.819131 349.388606 L 339.314989 349.344071 L 339.809977 349.290844 L 340.304832 349.236279 L 340.799686 349.181714 L 341.293541 349.118936 L 341.787031 349.053168 L 342.280522 348.987401 L 342.773103 348.915329 L 343.265079 348.839051 L 343.757055 348.762774 L 344.248161 348.681284 L 344.738274 348.593835 L 345.228388 348.506386 L 345.717723 348.414874 L 346.205505 348.315239 L 346.693287 348.215605 L 347.180591 348.113758 L 347.665984 348.003070 L 348.151377 347.892383 L 348.636578 347.780898 L 349.119096 347.658283 L 349.601614 347.535668 L 350.084133 347.413052 L 350.563711 347.279434 L 351.043078 347.145029 L 351.522446 347.010624 L 351.999313 346.867669 L 352.475555 346.722575 L 352.951796 346.577480 L 353.425803 346.425333 L 353.898691 346.269659 L 354.371580 346.113984 L 354.842561 345.952725 L 355.311873 345.786579 L 355.781185 345.620433 L 356.248977 345.450141 L 356.714491 345.273632 L 357.180004 345.097123 L 357.644446 344.917878 L 358.105941 344.731115 L 358.567436 344.544352 L 359.028365 344.356234 L 359.485623 344.159323 L 359.942880 343.962413 L 360.400138 343.765502 L 360.852107 343.556739 L 361.304076 343.347976 L 361.756046 343.139213 L 362.203930 342.921857 L 362.651186 342.703178 L 363.098442 342.484498 L 363.542031 342.258529 L 363.984287 342.029907 L 364.426543 341.801284 L 364.865612 341.566666 L 365.302557 341.328050 L 365.739501 341.089434 L 366.173856 340.846201 L 366.605251 340.597693 L 367.036647 340.349185 L 367.466140 340.097460 L 367.891832 339.839304 L 368.317524 339.581148 L 368.742048 339.321113 L 369.161903 339.053568 L 369.581758 338.786024 L 370.001170 338.517803 L 370.414399 338.240134 L 370.827628 337.962465 L 371.240857 337.684797 L 371.647644 337.397788 L 372.053970 337.110113 L 372.460296 336.822437 L 372.861367 336.527512 L 373.261122 336.230773 L 373.660877 335.934034 L 374.055645 335.630747 L 374.447917 335.324184 L 374.840189 335.017622 L 375.228808 334.706489 L 375.614231 334.391358 L 375.999654 334.076228 L 376.382492 333.758000 L 376.761455 333.435129 L 377.140417 333.112258 L 377.517464 332.787187 L 377.889246 332.456074 L 378.261028 332.124960 L 378.631926 331.792874 L 378.997090 331.454475 L 379.362253 331.116075 L 379.727416 330.777676" fill="none" stroke="black" stroke-width="1.000000" />
	<path d="M 186.299271 170.210754 L 185.502026 171.891644 L 184.692554 173.566604 L 183.864716 175.232314 L 183.024665 176.892065 L 182.132575 178.524503 L 181.208313 180.138956 L 180.256669 181.737440 L 179.277399 183.319127 L 178.271960 184.884328 L 177.241608 186.433237 L 176.187070 187.965791 L 175.108997 189.481879 L 174.007548 190.981078 L 172.882939 192.462978 L 171.734620 193.926592 L 170.563084 195.371692 L 169.368237 196.797594 L 168.151612 198.204977 L 166.915697 199.595469 L 165.664607 200.972334 L 164.402130 202.338770" fill="none" stroke="black" stroke-width="1.000000" />
	<path d="M 253.927416 192.677676 L 253.471222 192.877922 L 253.015029 193.078168 L 252.558835 193.278414 L 252.102770 193.478950 L 251.646768 193.679632 L 251.190766 193.880313 L 250.734823 194.081131 L 250.279001 194.282221 L 249.823179 194.483311 L 249.367357 194.684401 L 248.911791 194.886069 L 248.456225 195.087739 L 248.000659 195.289409 L 247.545374 195.491712 L 247.090232 195.694336 L 246.635090 195.896960 L 246.180278 196.100321 L 245.726138 196.305182 L 245.271998 196.510043 L 244.817858 196.714903 L 244.364748 196.922032 L 243.911643 197.129171 L 243.458538 197.336310 L 243.006248 197.545219 L 242.554375 197.755033 L 242.102503 197.964848 L 241.651101 198.175667 L 241.200667 198.388552 L 240.750232 198.601436 L 240.299798 198.814321 L 239.851011 199.030657 L 239.402236 199.247017 L 238.953460 199.463377 L 238.507091 199.684623 L 238.061966 199.908398 L 237.616842 200.132173 L 237.172036 200.356577 L 236.727891 200.582290 L 236.283746 200.808003 L 235.839601 201.033716 L 235.398685 201.265671 L 234.957799 201.497685 L 234.516913 201.729698 L 234.079847 201.968761 L 233.644776 202.211505 L 233.209706 202.454249 L 232.777496 202.701914 L 232.351271 202.959874 L 231.925046 203.217833 L 231.498821 203.475793 L 231.129520 203.810053 L 230.760832 204.145135 L 230.392144 204.480218 L 230.029769 204.822052 L 229.670713 205.167435 L 229.311657 205.512819 L 228.965469 205.870188 L 228.646400 206.252818 L 228.327331 206.635449 L 228.008450 207.018220 L 227.731616 207.432435 L 227.454782 207.846649 L 227.177948 208.260864 L 226.905720 208.678103 L 226.635756 209.096827 L 226.365792 209.515552 L 226.091193 209.931178 L 225.807451 210.340692 L 225.523709 210.750205 L 225.239946 211.159704 L 224.946956 211.562653 L 224.653966 211.965602 L 224.360976 212.368551 L 224.058216 212.764117 L 223.750609 213.156022 L 223.443003 213.547927 L 223.130094 213.935490 L 222.806693 214.314467 L 222.483292 214.693443 L 222.159861 215.072392 L 221.823254 215.439688 L 221.486647 215.806985 L 221.150040 216.174281 L 220.801895 216.530481 L 220.448021 216.881173 L 220.094147 217.231864 L 219.735485 217.577517 L 219.367279 217.913129 L 218.999073 218.248741 L 218.630855 218.584339 L 218.250303 218.905884 L 217.869751 219.227429 L 217.489199 219.548974 L 217.101692 219.862006 L 216.710725 220.170803 L 216.319757 220.479600 L 215.925937 220.784677 L 215.526430 221.082344 L 215.126923 221.380010 L 214.727416 221.677676" fill="none" stroke="black" stroke-width="1.000000" />
	<path d="M 145.693268 205.438492 L 146.604055 207.158053 L 147.847861 208.653675 L 149.352373 209.880578 L 151.111729 210.702637 L 153.000885 211.165365 L 154.926299 211.441264 L 156.869096 211.544596 L 158.813990 211.524971 L 160.749304 211.324622 L 162.672283 211.028392 L 164.577848 210.635596 L 166.458957 210.138637 L 168.310486 209.540749 L 170.127846 208.845904 L 171.904991 208.053676 L 173.644089 207.180962 L 175.349899 206.244812 L 177.023894 205.252812 L 178.675989 204.224729 L 180.310781 203.169375 L 181.918924 202.073854 L 183.494711 200.932271 L 185.039076 199.748502 L 186.559657 198.534326 L 188.058530 197.293445 L 189.539265 196.030982 L 191.047662 194.801855 L 192.653148 193.702495 L 194.335315 192.724383 L 196.052556 191.809231 L 197.788307 190.929691 L 199.537069 190.076312 L 201.309371 189.272977 L 203.106819 188.527620 L 204.930858 187.849966 L 206.765076 187.200309 L 208.602804 186.560641 L 210.442738 185.927343 L 212.284029 185.298001 L 214.123472 184.663277 L 215.971040 184.052634 L 217.825768 183.464093 L 219.683622 182.885475 L 221.549801 182.334337 L 223.423238 181.808389 L 225.297880 181.286718 L 227.178489 180.787020 L 229.061554 180.296626 L 230.943889 179.803435 L 232.819324 179.284663 L 234.685805 178.734557 L 236.538296 178.139074 L 238.371863 177.487667 L 240.185936 176.783747 L 241.984094 176.040104 L 243.765204 175.256504 L 245.535323 174.448372 L 247.311823 173.654355 L 249.080943 172.844285 L 250.830755 171.993063 L 252.569544 171.119727 L 254.304032 170.238048 L 256.029044 169.337806 L 257.745373 168.421138 L 259.453438 167.489195 L 261.154550 166.544555 L 262.851289 165.591941 L 264.545441 164.634720" fill="none" stroke="black" stroke-width="1.000000" />
	<path d="M 181.894089 104.038345 L 181.540783 102.134369 L 181.212570 100.225910 L 180.819409 98.329790 L 180.500042 96.419882 L 180.281688 94.495876 L 180.181117 92.562209 L 180.144259 90.626141 L 180.308038 88.697450 L 180.608579 86.784816 L 181.053897 84.900793 L 181.648216 83.058452 L 182.414899 81.281335 L 183.361978 79.593748 L 184.480803 78.014892 L 185.776893 76.578696 L 187.246341 75.321167 L 188.878589 74.284943 L 190.651897 73.516722 L 192.525994 73.046454 L 194.448853 72.844598 L 196.382330 72.884556 L 198.297046 73.156387 L 200.163907 73.660268 L 201.956173 74.386255 L 203.653095 75.313960 L 205.253439 76.401404 L 206.759795 77.616277 L 208.157978 78.953757 L 209.464409 80.382186 L 210.684346 81.885077 L 211.830140 83.445686 L 212.909455 85.053016 L 213.933678 86.696220 L 214.906922 88.370092 L 215.836624 90.068662 L 216.725392 91.788967 L 217.581363 93.525936 L 218.435422 95.263879 L 219.299907 96.996681 L 220.163771 98.729793 L 221.036825 100.458241 L 221.936613 102.172897 L 222.867380 103.870910 L 223.839243 105.545578 L 224.866925 107.186448 L 225.948106 108.792833 L 227.105351 110.342679 L 228.373097 111.806486 L 229.692534 113.219711 L 231.195849 114.438296 L 232.742213 115.594875 L 234.353234 116.660646 L 236.032175 117.619082 L 237.748871 118.512226 L 239.489960 119.359673" fill="none" stroke="black" stroke-width="1.000000" />
	<path d="M 186.683623 86.186201 L 187.177955 86.253447 L 187.672287 86.320693 L 188.166619 86.387939 L 188.660843 86.455879 L 189.152389 86.541140 L 189.643934 86.626401 L 190.135479 86.711662 L 190.626526 86.799360 L 191.112054 86.914025 L 191.597583 87.028689 L 192.083112 87.143353 L 192.567427 87.262404 L 193.042806 87.413733 L 193.518186 87.565061 L 193.993566 87.716390 L 194.466819 87.873538 L 194.927791 88.064302 L 195.388763 88.255067 L 195.849734 88.445832 L 196.307835 88.642805 L 196.751705 88.870544 L 197.195576 89.098283 L 197.639447 89.326022 L 198.080040 89.559610 L 198.506034 89.819255 L 198.932028 90.078899 L 199.358022 90.338544 L 199.780695 90.603264 L 200.189227 90.889599 L 200.597759 91.175935 L 201.006291 91.462270 L 201.411802 91.752673 L 201.804112 92.060861 L 202.196421 92.369048 L 202.588730 92.677236 L 202.978336 92.988695 L 203.354977 93.315846 L 203.731618 93.642998 L 204.108258 93.970149 L 204.482742 94.299679 L 204.845110 94.642572 L 205.207479 94.985464 L 205.569847 95.328357 L 205.930805 95.672692 L 206.281586 96.027429 L 206.632367 96.382167 L 206.983148 96.736904 L 207.333323 97.092229 L 207.676993 97.453860 L 208.020663 97.815492 L 208.364333 98.177123 L 208.707768 98.538974 L 209.046124 98.905582 L 209.384480 99.272190 L 209.722836 99.638798 L 210.061191 100.005406 L 210.397825 100.373596 L 210.734456 100.741788 L 211.071088 101.109981 L 211.407719 101.478173 L 211.745960 101.844886 L 212.084286 102.211522 L 212.422612 102.578158 L 212.760938 102.944794 L 213.104203 103.306802 L 213.448017 103.668296 L 213.791831 104.029790 L 214.135645 104.391284 L 214.485738 104.746683 L 214.836933 105.101010 L 215.188129 105.455337 L 215.539325 105.809664 L 215.898546 106.155806 L 216.259745 106.499929 L 216.620944 106.844053 L 216.982144 107.188177 L 217.353171 107.521579 L 217.727360 107.851532 L 218.101548 108.181485 L 218.475737 108.511438 L 218.858225 108.831632 L 219.244007 109.147952 L 219.629788 109.464273 L 220.015570 109.780594 L 220.405823 110.091341 L 220.798182 110.399466 L 221.190541 110.707590 L 221.582900 111.015714 L 221.980206 111.317373 L 222.380226 111.615483 L 222.780247 111.913594 L 223.180267 112.211705 L 223.588899 112.497665 L 224.002668 112.776379 L 224.416437 113.055093 L 224.830206 113.333807 L 225.252574 113.598997 L 225.680480 113.855478 L 226.108386 114.111960 L 226.536292 114.368441 L 226.968329 114.617808 L 227.403167 114.862354 L 227.838004 115.106899 L 228.272842 115.351445 L 228.712106 115.587821 L 229.154434 115.818541 L 229.596763 116.049260 L 230.039091 116.279980 L 230.487289 116.498809 L 230.939441 116.709629 L 231.391592 116.920449 L 231.843744 117.131270 L 232.303874 117.323374 L 232.769052 117.503641 L 233.234229 117.683908 L 233.699407 117.864175 L 234.172052 118.022914 L 234.648933 118.169440 L 235.125815 118.315966 L 235.602697 118.462492 L 236.084336 118.592075 L 236.567798 118.715164 L 237.051259 118.838253 L 237.534721 118.961341 L 238.022574 119.065127 L 238.511703 119.163308 L 239.000831 119.261489 L 239.489960 119.359670 L 239.982592 119.437912 L 240.475893 119.512340 L 240.969195 119.586768 L 241.462497 119.661196 L 241.959922 119.697519 L 242.457726 119.730334 L 243.453335 119.795964" fill="none" stroke="black" stroke-width="1.000000" />
	<path d="M 212.646164 84.620316 L 214.522610 84.103518 L 216.399040 83.586663 L 218.316346 83.252981 L 220.244750 82.989820 L 222.188962 82.906398 L 224.134106 82.967095 L 226.067196 83.190613 L 227.990027 83.491519 L 229.872779 83.982120 L 231.714309 84.610934 L 233.520582 85.335280 L 235.272975 86.181134 L 236.982816 87.110515 L 238.631214 88.144499 L 240.230410 89.253475 L 241.769091 90.444754 L 243.244540 91.713538 L 244.645580 93.063853 L 245.975731 94.484197 L 247.225106 95.975914 L 248.406721 97.522136 L 249.501296 99.130783 L 250.535475 100.779400 L 251.521200 102.457462 L 252.463656 104.160241 L 253.350651 105.892421 L 254.184541 107.650861 L 254.970130 109.431425 L 255.715645 111.229199 L 256.422154 113.042640 L 257.092848 114.869661 L 257.729357 116.708868 L 258.334504 118.558651 L 258.909228 120.418108 L 259.454847 122.286322 L 259.973068 124.162327 L 260.464412 126.045551 L 260.929995 127.935314 L 261.369048 129.831410 L 261.782146 131.733338 L 262.168217 133.640926 L 262.528860 135.553501 L 262.854240 137.472329 L 263.152381 139.395648 L 263.416387 141.323904 L 263.658005 143.255150 L 263.850557 145.191837 L 264.018797 147.130829 L 264.136584 149.073570 L 264.231803 151.017415 L 264.289251 152.962848 L 264.350194 154.908087 L 264.361636 156.853943 L 264.401683 158.799439 L 264.415076 160.745234 L 264.472819 162.689859 L 264.545441 164.634720" fill="none" stroke="black" stroke-width="1.000000" />
	<path d="M 245.604416 171.765100 L 245.637023 171.267158 L 245.669630 170.769217 L 245.702238 170.271275 L 245.734763 169.773328 L 245.766761 169.275347 L 245.798758 168.777366 L 245.830755 168.279384 L 245.862236 167.781371 L 245.892297 167.283269 L 245.922357 166.785167 L 245.952418 166.287065 L 245.982240 165.788949 L 246.011707 165.290812 L 246.041173 164.792674 L 246.070639 164.294537 L 246.098627 163.796316 L 246.125324 163.298023 L 246.152021 162.799729 L 246.178718 162.301436 L 246.202700 161.803008 L 246.225328 161.304513 L 246.247956 160.806018 L 246.270583 160.307523 L 246.289027 159.808861 L 246.306429 159.310156 L 246.323831 158.811451 L 246.341234 158.312747 L 246.352829 157.813876 L 246.364015 157.314993 L 246.375202 156.816110 L 246.385892 156.317220 L 246.389759 155.818227 L 246.393627 155.319234 L 246.397494 154.820240 L 246.399721 154.321248 L 246.395444 153.822258 L 246.391167 153.323268 L 246.386889 152.824279 L 246.379590 152.325342 L 246.366285 151.826511 L 246.352979 151.327681 L 246.339673 150.828850 L 246.321927 150.330180 L 246.299133 149.831693 L 246.276339 149.333205 L 246.253544 148.834718 L 246.224680 148.336570 L 246.191789 147.838647 L 246.158897 147.340724 L 246.126006 146.842801 L 246.085616 146.345451 L 246.042511 145.848308 L 245.999406 145.351165 L 245.956302 144.854022 L 245.905536 144.357612 L 245.853598 143.861314 L 245.749721 142.868718" fill="none" stroke="black" stroke-width="1.000000" />
	<path d="M 159.256561 135.005478 L 159.226884 136.912365 L 159.335198 138.816364 L 159.340422 140.723440 L 159.480635 142.625297 L 159.367253 144.528589 L 158.999329 146.399305 L 158.356608 148.193949 L 157.822620 150.024561 L 157.784016 151.927626 L 158.182020 153.789931 L 158.336123 155.689503 L 158.289846 157.595454 L 158.298876 159.502469 L 158.409247 161.406238 L 158.637037 163.299522 L 158.730195 165.204114 L 158.737875 167.111152 L 158.703950 169.017955 L 158.724753 170.924206 L 158.925649 172.806044 L 159.180115 174.687073" fill="none" stroke="black" stroke-width="1.000000" />
	<path d="M 289.717072 177.150513 L 291.480366 176.256899 L 293.246366 175.368706 L 295.016823 174.489419 L 296.793906 173.623692 L 298.575245 172.766709 L 300.364080 171.925609 L 302.156379 171.091812 L 303.955364 170.272916 L 305.756753 169.459259 L 307.568868 168.670801 L 309.384762 167.890114 L 311.212966 167.138952 L 313.043701 166.393312 L 314.879187 165.659344 L 316.716944 164.931041 L 318.558095 164.211449 L 320.401742 163.498197 L 322.249769 162.796555 L 324.105725 162.115985 L 325.963233 161.439638 L 327.824683 160.774340 L 329.688091 160.114454 L 331.546964 159.441902 L 333.404300 158.765083 L 335.262429 158.090443 L 337.122778 157.421979 L 338.987655 156.766262 L 340.856232 156.121134 L 342.728774 155.487655 L 344.607259 154.872051 L 346.491941 154.275677 L 348.383246 153.700719 L 350.280555 153.145785 L 352.183066 152.609047 L 354.091122 152.092288 L 356.004485 151.595651 L 357.922634 151.117672 L 359.844818 150.656361 L 361.772006 150.216267 L 363.702827 149.792466 L 365.637731 149.387676 L 367.576104 148.999828 L 369.517688 148.628387 L 371.462233 148.272762 L 373.409733 147.933731 L 375.360002 147.610929 L 377.312511 147.302030 L 379.267449 147.008841 L 381.224372 146.729217 L 383.183145 146.462835 L 385.143443 146.207903 L 387.105035 145.963123 L 389.067778 145.727736 L 391.031413 145.499897 L 392.995796 145.278585 L 394.960721 145.062139 L 396.926120 144.850042 L 398.891890 144.641402 L 400.857936 144.435381 L 402.824200 144.231447 L 404.790615 144.028972 L 406.757121 143.827389 L 408.723738 143.626883 L 410.690639 143.429198 L 412.658168 143.237897 L 414.626751 143.057880 L 416.597018 142.897634 L 418.569878 142.776733 L 420.545828 142.732176 L 422.521775 142.776071 L 424.493052 142.915874 L 426.453706 143.164893 L 428.400027 143.508499 L 430.327867 143.944239 L 432.234589 144.464937 L 434.119292 145.060669 L 435.982513 145.720680 L 437.825091 146.436379 L 439.647101 147.202938 L 441.447824 148.018322 L 443.228733 148.876145 L 444.989955 149.773715 L 446.731816 150.708328 L 448.455277 151.676466 L 450.160784 152.675905 L 451.848620 153.704913 L 453.519179 154.761751 L 455.168968 155.850378 L 456.771380 157.007839 L 458.344667 158.204732 L 459.916939 159.402932 L 461.475245 160.619262 L 463.028564 161.841958 L 464.580262 163.066707 L 466.127809 164.296699 L 467.676664 165.525033 L 469.237461 166.738162 L 470.805666 167.941703 L 472.379868 169.137387 L 473.964444 170.319205 L 475.585473 171.450417 L 477.254281 172.510067 L 478.927212 173.563197 L 480.593426 174.626850 L 482.222197 175.746996 L 483.807819 176.927473 L 485.362240 178.148715 L 486.862944 179.435403 L 488.300421 180.792399 L 489.754044 182.132087" fill="none" stroke="black" stroke-width="1.000000" />
	<path d="M 420.480072 157.825348 L 418.492697 157.935903 L 416.505617 158.049897 L 414.515018 158.087017 L 412.525806 158.167737 L 410.539278 158.261093 L 408.555617 158.417963 L 406.576482 158.631062 L 404.601574 158.881837 L 402.630237 159.160113 L 400.662011 159.460296 L 398.696144 159.775857 L 396.731721 160.100538 L 394.768502 160.432475 L 392.806141 160.769392 L 390.844766 161.112005 L 388.883994 161.458032 L 386.926356 161.821421 L 384.971321 162.198478 L 383.020326 162.595936 L 381.073542 163.013478 L 379.132030 163.454899 L 377.195756 163.918781 L 375.264788 164.404246 L 373.339804 164.912965 L 371.420142 165.441387 L 369.506744 165.992056 L 367.600384 166.566577 L 365.702352 167.168075 L 363.812314 167.794187 L 361.932241 168.449638 L 360.062036 169.132720 L 358.202704 169.844872 L 356.354197 170.584689 L 354.515943 171.349625 L 352.688196 172.139354 L 350.870148 172.951168 L 349.061302 173.783305 L 347.259159 174.629882 L 345.462366 175.487704 L 343.676434 176.367934 L 341.900529 177.268196 L 340.136587 178.191709 L 338.382614 179.133988 L 336.641062 180.099059 L 334.910032 181.082857 L 333.191643 182.088594 L 331.483216 183.111164 L 329.783875 184.148784 L 328.090289 185.195755 L 326.406202 186.257928 L 324.733872 187.338510 L 323.076111 188.441254 L 321.438508 189.573784 L 319.815153 190.726542 L 318.221459 191.919818 L 316.664228 193.160563 L 315.109063 194.403882 L 313.541813 195.631924 L 311.959739 196.840779 L 310.358462 198.024084 L 308.738773 199.182065 L 307.096484 200.307278 L 305.400600 201.349933 L 303.649946 202.296602 L 301.830246 203.104219 L 299.978545 203.835619 L 298.099166 204.492016 L 296.186115 205.042717 L 294.246599 205.491924 L 292.289958 205.860304 L 290.325676 206.185891 L 288.359633 206.500690 L 286.393055 206.812124 L 284.425961 207.120270 L 282.461077 207.442069 L 280.501247 207.793364 L 278.546549 208.172180 L 276.596955 208.576495 L 274.651622 209.000753 L 272.713155 209.455424 L 270.779916 209.931778 L 268.854262 210.437940 L 266.935765 210.970614 L 265.023821 211.526317 L 263.120457 212.110745 L 261.225726 212.722569 L 259.340908 213.364261 L 257.467509 214.038597 L 255.604170 214.740211 L 253.754316 215.476679 L 251.915906 216.241234 L 250.092460 217.040834 L 248.283874 217.873497 L 246.490996 218.739442 L 244.717301 219.644025 L 242.964858 220.589060 L 241.240062 221.583743 L 239.532824 222.608322 L 237.833165 223.644985 L 236.198904 224.780777 L 234.690916 226.080712 L 233.233577 227.437325 L 231.742926 228.757297 L 230.237039 230.059822 L 228.760463 231.395541 L 227.285738 232.733286 L 225.794199 234.052275 L 224.307140 235.376308 L 222.805954 236.684113 L 221.247930 237.923757 L 219.648875 239.109973 L 218.006644 240.235721 L 216.333007 241.314282 L 214.640357 242.362713 L 212.921525 243.367720 L 211.199452 244.367133 L 209.460690 245.337244 L 207.712700 246.290631 L 205.958281 247.232140 L 204.203020 248.172078 L 202.449381 249.115033 L 200.703116 250.071582 L 198.958723 251.031532 L 197.223919 252.008637 L 195.521055 253.040298 L 193.871893 254.155693 L 192.295336 255.371789 L 190.711093 256.577857 L 189.127525 257.784810 L 187.547028 258.995783 L 185.966104 260.206196 L 184.391587 261.424928 L 182.832030 262.662749 L 181.286139 263.917584 L 179.765885 265.203324 L 178.300578 266.551120 L 176.981421 268.042225 L 175.825914 269.663651 L 174.760273 271.345526 L 173.771195 273.073569 L 172.810653 274.817638 L 171.875504 276.575453 L 170.961568 278.344393 L 170.049233 280.114158 L 169.128244 281.879435 L 168.189554 283.635362 L 167.212659 285.370325 L 166.188471 287.077798" fill="none" stroke="black" stroke-width="1.000000" />
	<path d="M 454.625458 184.252029 L 453.747263 182.633095 L 452.833828 181.033825 L 451.917088 179.436403 L 450.938792 177.876464 L 449.917610 176.343821 L 448.872793 174.827123 L 447.817056 173.317956 L 446.757953 171.811148 L 445.705976 170.299431 L 444.683067 168.768006 L 443.705456 167.207353 L 442.823163 165.591309 L 441.940796 163.975128" fill="none" stroke="black" stroke-width="1.000000" />
	<path d="M 199.443497 296.164215 L 197.660077 296.996336 L 195.902927 297.882582 L 194.161870 298.800040 L 192.490521 299.839062 L 190.892974 300.988324 L 189.388381 302.256863 L 187.934038 303.582651 L 186.642322 305.067362 L 185.511080 306.677723 L 184.491314 308.360896 L 183.570549 310.100207 L 182.731018 311.880151 L 182.003720 313.708819 L 181.305650 315.548848 L 180.717552 317.426904 L 180.240199 319.336111 L 179.827812 321.260408 L 179.510730 323.202673 L 179.297714 325.159079 L 179.170938 327.122967 L 179.129201 329.090497 L 179.170374 331.058039 L 179.285525 333.022642 L 179.472932 334.981672 L 179.734628 336.932165 L 180.069137 338.871497 L 180.471578 340.797880 L 180.935883 342.710297 L 181.450330 344.609847 L 182.015632 346.494885 L 182.636060 348.362496 L 183.310539 350.211265 L 184.038817 352.039500 L 184.815144 353.847855 L 185.633185 355.637732 L 186.486699 357.410972 L 187.377787 359.165615 L 188.301324 360.903406 L 189.261948 362.620940 L 190.258045 364.318146 L 191.292498 365.992210 L 192.360942 367.644814 L 193.461998 369.275858 L 194.592018 370.886998 L 195.745435 372.481506 L 196.921030 374.059713 L 198.118432 375.621496 L 199.326902 377.174484 L 200.545298 378.719856 L 201.781693 380.250903 L 203.025898 381.775613 L 204.276993 383.294739" fill="none" stroke="black" stroke-width="1.000000" />
	<path d="M 450.343841 162.420555 L 452.050396 163.209539 L 453.733142 164.048070 L 455.420341 164.877636 L 457.109162 165.703895 L 458.791994 166.542278 L 460.465923 167.398287 L 462.101540 168.325032 L 463.707539 169.302402 L 465.260088 170.362159 L 466.746905 171.512167 L 468.166557 172.744195 L 469.514253 174.054523 L 470.780707 175.443471 L 471.991160 176.881902 L 473.135913 178.373053 L 474.232237 179.900334 L 475.276787 181.463470 L 476.273769 183.057407 L 477.208167 184.688728 L 478.118937 186.332858 L 479.013184 187.986450" fill="none" stroke="black" stroke-width="1.000000" />
	<path d="M 441.940796 163.975128 L 443.409719 165.097791 L 444.896928 166.196101 L 446.425716 167.235604 L 447.973065 168.247400 L 449.565940 169.185382 L 451.192338 170.064210 L 452.837515 170.907590 L 454.492557 171.731531 L 456.156568 172.537190 L 457.820895 173.342243 L 459.477582 174.162842 L 461.122727 175.006296 L 462.752040 175.879833 L 464.363868 176.785250 L 465.954454 177.727309 L 467.518359 178.712966 L 469.053219 179.743289 L 470.558390 180.816566 L 472.034016 181.930172 L 473.480476 183.081446 L 474.897531 184.268769 L 476.274647 185.502154 L 477.649505 186.738061 L 479.013184 187.986450" fill="none" stroke="black" stroke-width="1.000000" />
	<path d="M 418.481208 149.117631 L 418.785241 150.981891 L 419.041456 152.853299 L 419.421285 154.703272 L 419.989254 156.503624 L 420.689806 158.257138 L 421.534778 159.945273 L 422.599051 161.501406 L 423.944201 162.815782 L 425.467498 163.927758 L 427.084800 164.901143 L 428.763010 165.766196 L 430.455241 166.605349 L 432.120110 167.496537 L 433.720707 168.496262 L 435.237530 169.619500 L 436.682058 170.835615 L 438.078741 172.107033 L 439.448895 173.407201 L 440.786537 174.740188 L 442.100580 176.096704 L 443.459044 177.408901 L 444.856671 178.679155 L 446.308510 179.886255 L 447.839686 180.991289 L 449.441227 181.991713 L 451.142116 182.808938 L 452.867941 183.563227 L 454.625458 184.252029" fill="none" stroke="black" stroke-width="1.000000" />
	<path d="M 472.793121 177.428574 L 474.495355 178.189911 L 476.197580 178.951245 L 477.877811 179.759978 L 479.576131 180.529915 L 481.310247 181.215480 L 483.067474 181.839308 L 484.859118 182.355249 L 486.710179 182.580693" fill="none" stroke="black" stroke-width="1.000000" />
	<path d="M 197.422069 307.763371 L 199.290473 308.352840 L 201.222222 308.678067 L 203.154399 309.002253 L 205.085116 309.335022 L 207.026950 309.594600 L 208.970861 309.838743 L 210.922669 310.007180 L 212.877407 310.138747 L 214.834586 310.226272 L 216.793106 310.275817 L 218.752162 310.296215 L 220.711298 310.287240 L 222.668672 310.207976 L 224.623751 310.082165 L 226.576289 309.921460 L 228.527246 309.742199 L 230.477854 309.559071 L 232.429437 309.386757 L 234.379778 309.201042 L 236.330492 309.019117 L 238.282473 308.851396 L 240.232880 308.666604 L 242.183329 308.481869 L 244.131538 308.275426 L 246.081000 308.081109 L 248.030864 307.890282 L 249.981260 307.705027 L 251.932103 307.524432 L 253.883371 307.348512 L 255.835197 307.178884 L 257.787740 307.017785 L 259.741060 306.866368 L 261.695162 306.725451 L 263.650047 306.595846 L 265.605918 306.482375 L 267.563102 306.395336 L 269.521275 306.333100 L 271.479975 306.290827 L 273.439021 306.270519 L 275.398170 306.272968 L 277.357174 306.297355 L 279.315807 306.342673 L 281.273547 306.415680 L 283.230024 306.518108 L 285.184901 306.646884 L 287.137428 306.807566 L 289.086794 307.002430 L 291.032526 307.231312 L 292.974517 307.489635 L 294.911935 307.780624 L 296.845590 308.095658 L 298.775423 308.433379 L 300.702665 308.785713 L 302.629107 309.142394 L 304.554079 309.506871 L 306.476582 309.884185 L 308.396151 310.276009 L 310.311951 310.686022 L 312.224971 311.108640 L 314.133741 311.550221 L 316.039763 312.003383 L 317.941655 312.473707 L 319.841108 312.953735 L 321.737905 313.444210 L 323.633905 313.937753 L 325.535918 314.407240 L 327.442104 314.858686 L 329.354841 315.280608 L 331.274600 315.670103 L 333.202728 316.014743 L 335.128299 316.375245 L 337.056274 316.719672 L 338.979248 317.094421" fill="none" stroke="black" stroke-width="1.000000" />
	<path d="M 145.693268 205.438492 L 145.103914 203.562317 L 144.517936 201.685085 L 143.902069 199.817448 L 143.262656 197.957741 L 142.595489 196.107812 L 141.884070 194.274457 L 141.140356 192.453957 L 140.360850 190.648498 L 139.549114 188.857297 L 138.702810 187.082173 L 137.824279 185.322774 L 136.928208 183.572230 L 135.987920 181.845079 L 135.019042 180.133770 L 134.024022 178.437528 L 133.009855 176.752654 L 131.985380 175.074021 L 130.954790 173.399132 L 129.921188 171.726100 L 128.882400 170.056284 L 127.836712 168.390781 L 126.783749 166.729868 L 125.718789 165.076627 L 124.642789 163.430549 L 123.556436 161.791284 L 122.459329 160.159198 L 121.354009 158.532659 L 120.238706 156.912953 L 119.113214 155.300310 L 117.976063 153.695870 L 116.822304 152.103343 L 115.648723 150.525375 L 114.452560 148.964468 L 113.233257 147.421570 L 112.000043 145.889734 L 110.763132 144.360872 L 109.527559 142.830927 L 108.294734 141.298769 L 107.060940 139.767390 L 105.838628 138.226853 L 104.632248 136.673810 L 103.438583 135.110962 L 102.261201 133.535827 L 101.093586 131.953414 L 99.937823 130.362336 L 98.799434 128.758797 L 97.681591 127.140878 L 96.590480 125.504845 L 95.507058 123.863636 L 94.457588 122.200712 L 93.448361 120.512981 L 92.465439 118.809719 L 91.519669 117.085670 L 90.629649 115.332327 L 89.826907 113.537793 L 89.097131 111.711909 L 88.421354 109.865280 L 87.796207 108.000899 L 87.255227 106.110879 L 86.756681 104.208567 L 86.274680 102.302011 L 85.815401 100.389870 L 85.358263 98.477185 L 84.910545 96.562293 L 84.477286 94.644057 L 84.054275 92.723535 L 83.642599 90.800553 L 83.237591 88.876148 L 82.840891 86.950021 L 82.454526 85.021791 L 82.076133 83.091978 L 81.704083 81.160932 L 81.337014 79.228931 L 80.975681 77.295851 L 80.624066 75.360987 L 80.275253 73.425607 L 79.929347 71.489709 L 79.592017 69.552299 L 79.251805 67.615397 L 78.905787 65.679514 L 78.543219 63.746729 L 78.158305 61.818217 L 77.764319 59.891525 L 77.353550 57.968398 L 76.934903 56.046925 L 76.508490 54.127210 L 76.063578 52.211639 L 75.615778 50.296738 L 75.157912 48.384257 L 74.687649 46.474748 L 74.209752 44.567162 L 73.715291 42.663787 L 73.209915 40.763275 L 72.696012 38.865051 L 72.170669 36.969962 L 71.632855 35.078461 L 71.064868 33.196296 L 70.455720 31.327546 L 69.790451 29.478162 L 69.059239 27.654339 L 68.262221 25.858552 L 67.394479 24.095657 L 66.460021 22.366956 L 65.460849 20.674745 L 64.430717 18.999975" fill="none" stroke="black" stroke-width="1.000000" />
	<path d="M 158.851059 167.566803 L 157.631263 166.009287 L 156.411001 164.452137 L 155.185152 162.899393 L 153.961357 161.345023 L 152.719560 159.805107 L 151.462018 158.278610 L 150.180969 156.771553 L 148.880041 155.281203 L 147.567436 153.801075 L 146.254920 152.320854 L 144.939962 150.842803 L 143.625643 149.364183 L 142.316608 147.880880 L 141.012357 146.393380 L 139.715402 144.899503 L 138.423204 143.401523 L 137.139948 141.895864 L 135.864613 140.383514 L 134.600621 138.861646 L 133.341270 137.335939 L 132.086426 135.806518 L 130.835043 134.274276 L 129.595944 132.732100 L 128.369500 131.179815 L 127.151042 129.621271 L 125.943001 128.054619 L 124.741555 126.482925 L 123.555636 124.899497 L 122.387001 123.303252 L 121.231186 121.697694 L 120.088576 120.082733 L 118.968003 118.452457 L 117.872119 116.805405 L 116.788619 115.150221 L 115.747599 113.468657 L 114.778091 111.744184 L 113.842866 110.001802 L 113.022036 108.202587 L 112.299145 106.361252 L 111.628129 104.500288 L 110.996532 102.625588 L 110.398964 100.739678 L 109.809506 98.851213 L 109.220371 96.962647 L 108.626807 95.075469 L 108.029176 93.189575 L 107.427572 91.304943 L 106.822711 89.421357 L 106.211266 87.539897 L 105.593364 85.660547 L 104.973694 83.781778 L 104.353621 81.903146 L 103.724082 80.027664 L 103.088756 78.154131 L 102.451385 76.281297 L 101.804958 74.411568 L 101.151348 72.544339 L 100.488566 70.680345 L 99.817757 68.819224 L 99.139730 66.960721 L 98.453422 65.105260 L 97.759979 63.252453 L 97.058828 61.402550 L 96.349962 59.555588 L 95.634770 57.711068 L 94.910854 55.869955 L 94.178402 54.032218 L 93.440264 52.196763 L 92.691269 50.365705 L 91.940231 48.535486 L 91.183949 46.707431 L 90.416233 44.884145 L 89.643902 43.062809 L 88.865114 41.244224 L 88.086867 39.425408 L 87.302966 37.609022 L 86.511479 35.795928 L 85.716102 33.984540 L 84.909023 32.178334 L 84.092307 30.376466 L 83.263109 28.580308 L 82.421285 26.790031 L 81.572390 25.003104 L 80.745510 23.205882 L 79.898297 21.418153 L 79.069905 19.621629 L 78.214291 17.837908 L 77.332485 16.066991 L 76.417586 14.312953 L 75.452338 12.586090 L 74.474027 10.866605 L 73.447231 9.175618 L 72.386364 7.505790 L 71.309867 5.845996" fill="none" stroke="black" stroke-width="1.000000" />
	<path d="M 174.845261 187.006760 L 173.681924 186.001786 L 172.528588 184.985363 L 171.427179 183.913481 L 170.381939 182.786860 L 169.394348 181.609488 L 168.448769 180.397559 L 167.530766 179.164560 L 166.637658 177.913361 L 165.774706 176.641167 L 164.911743 175.368958" fill="none" stroke="black" stroke-width="1.000000" />
	<path d="M 179.265839 183.752380 L 177.865518 182.855130 L 176.461079 181.964344 L 175.042840 181.095773 L 173.597523 180.273497 L 172.130705 179.489930 L 170.659244 178.714873 L 169.197610 177.921621 L 167.751638 177.100102 L 166.331718 176.234547 L 164.911743 175.368958" fill="none" stroke="black" stroke-width="1.000000" />
	<path d="M 179.975647 122.476311 L 178.693908 121.217185 L 177.413275 119.956935 L 176.131587 118.697759 L 174.844838 117.443786 L 173.547180 116.201073" fill="none" stroke="black" stroke-width="1.000000" />
	<path d="M 179.975647 122.476311 L 179.952236 122.485742 L 179.928824 122.495168 L 179.905411 122.504593" fill="none" stroke="black" stroke-width="1.000000" />
	<path d="M 23.628036 19.385496 L 25.301592 20.083399 L 27.010210 20.690105 L 28.756236 21.178014 L 30.526687 21.568346 L 32.332898 21.684087 L 34.145674 21.672084 L 35.958562 21.636183 L 37.771611 21.642136 L 39.582477 21.725501 L 41.388326 21.885137 L 43.189597 22.092444 L 44.991075 22.298248 L 46.797533 22.449397 L 48.607258 22.454712 L 50.407395 22.259396 L 52.178232 21.881266 L 53.908775 21.343168 L 55.609653 20.714893 L 57.309648 20.085128 L 59.039954 19.546549 L 60.828258 19.275053 L 62.621308 19.084986 L 64.430717 18.999975" fill="none" stroke="black" stroke-width="1.000000" />
	<path d="M 23.628036 19.385496 L 25.310631 18.550435 L 27.025892 17.784722 L 28.759812 17.062253 L 30.561056 16.529596 L 32.386560 16.086973 L 34.221482 15.685104 L 36.061778 15.308602 L 37.898180 14.913537 L 39.722597 14.466407 L 41.530618 13.957017 L 43.312454 13.362495 L 45.083086 12.735352 L 46.862331 12.133315 L 48.641575 11.531278" fill="none" stroke="black" stroke-width="1.000000" />
	<path d="M 2.673232 16.670184 L 4.616462 16.684282 L 6.558382 16.611654 L 8.490580 16.404606 L 10.406535 16.080011 L 12.298731 15.637510 L 14.171871 15.120188 L 16.036411 14.572629 L 17.899601 14.020482 L 19.762225 13.466427 L 21.625233 12.913666 L 23.494222 12.381489 L 25.374125 11.889285 L 27.293917 11.589821 L 29.228173 11.403665 L 31.167847 11.285805 L 33.110947 11.264063 L 35.053961 11.295301 L 36.994293 11.401749 L 38.932237 11.545584 L 40.874350 11.612186 L 42.816833 11.667874 L 44.759849 11.666075 L 46.700728 11.614656 L 48.641575 11.531278" fill="none" stroke="black" stroke-width="1.000000" />
	<path d="M 69.313143 4.809474 L 68.814580 4.778094 L 68.316016 4.746713 L 67.817453 4.715333 L 67.318890 4.683944 L 66.820355 4.652118 L 66.321819 4.620292 L 65.823284 4.588466 L 65.324756 4.556528 L 64.826426 4.521646 L 64.328095 4.486764 L 63.829764 4.451882 L 63.331454 4.416725 L 62.833499 4.376838 L 62.335544 4.336950 L 61.837589 4.297063 L 61.339650 4.256982 L 60.841912 4.214466 L 60.344175 4.171949 L 59.846437 4.129432 L 59.348742 4.086444 L 58.851471 4.038789 L 58.354199 3.991134 L 57.856927 3.943479 L 57.359686 3.895514 L 56.862691 3.845052 L 56.365696 3.794590 L 55.868701 3.744128 L 55.371793 3.692864 L 54.875466 3.636207 L 54.379139 3.579549 L 53.882813 3.522892 L 53.386602 3.465270 L 52.891053 3.402178 L 52.395503 3.339086 L 51.899953 3.275994 L 51.404396 3.212957 L 50.908805 3.150186 L 50.413215 3.087415 L 49.917624 3.024643 L 49.421951 2.962543 L 48.925977 2.902876 L 48.430003 2.843209 L 47.934029 2.783542 L 47.438831 2.718463 L 46.946077 2.636341 L 46.453324 2.554219 L 45.960570 2.472097 L 45.467847 2.389789 L 44.975212 2.306958 L 44.482577 2.224126 L 43.989942 2.141295 L 43.496110 2.067130 L 42.999463 2.013360 L 42.502815 1.959589 L 42.006167 1.905819 L 41.508941 1.883573 L 41.010656 1.919096 L 40.512370 1.954619 L 40.014085 1.990143 L 39.517472 2.040851 L 39.023398 2.114617 L 38.529325 2.188384 L 38.035251 2.262151 L 37.542569 2.344104 L 37.051882 2.437788 L 36.561196 2.531472 L 36.070509 2.625156 L 35.580822 2.723772 L 35.092403 2.828640 L 34.603985 2.933509 L 34.115566 3.038378 L 33.627290 3.143907 L 33.139178 3.250196 L 32.651067 3.356485 L 32.162955 3.462773 L 31.674459 3.567266 L 31.185546 3.669804 L 30.696633 3.772342 L 30.207720 3.874880 L 29.718328 3.975083 L 29.228456 4.072938 L 28.738584 4.170792 L 28.248712 4.268647 L 27.758450 4.364518 L 27.267917 4.459005 L 26.777384 4.553491 L 26.286852 4.647978 L 25.796461 4.743201 L 25.306160 4.838883 L 24.815859 4.934565 L 24.325558 5.030247 L 23.835957 5.129413 L 23.346747 5.230527 L 22.857537 5.331642 L 22.368327 5.432756 L 21.882228 5.547463 L 21.397723 5.669139 L 20.913217 5.790815 L 20.428712 5.912491 L 19.948578 6.049963 L 19.470433 6.194629 L 18.992289 6.339294 L 18.514144 6.483960 L 18.041327 6.644874 L 17.570353 6.811407 L 17.099378 6.977939 L 16.628403 7.144472 L 16.162897 7.325520 L 15.699110 7.511133 L 15.235323 7.696745 L 14.771536 7.882357 L 14.313163 8.080823 L 13.856332 8.282951 L 13.399501 8.485079 L 12.942670 8.687208 L 12.490954 8.900432 L 12.040534 9.116471 L 11.590115 9.332510 L 11.139696 9.548548 L 10.692987 9.772125 L 10.247092 9.997353 L 9.801197 10.222582 L 9.355302 10.447810 L 8.908244 10.670719 L 8.461005 10.893267 L 8.013766 11.115815 L 7.566527 11.338363 L 7.122062 11.566392 L 6.677906 11.795029 L 6.233749 12.023666 L 5.789592 12.252303 L 5.346836 12.483641 L 4.904196 12.715201 L 4.461556 12.946761 L 4.018916 13.178321 L 3.579285 13.415540 L 3.139820 13.653070 L 2.700354 13.890599 L 2.260888 14.128128 L 1.825002 14.372161 L 1.389205 14.616356 L 0.517610 15.104745" fill="none" stroke="black" stroke-width="1.000000" />
	<path d="M 182.058816 266.306537 L 181.769297 268.232081 L 181.610626 270.172703 L 181.586975 272.119562 L 181.667964 274.064905 L 181.869604 276.001333 L 182.200754 277.919738 L 182.670814 279.808747 L 183.282322 281.656687 L 184.077408 283.432507 L 185.104867 285.083058 L 186.336421 286.588005 L 187.723517 287.951952 L 189.234201 289.178026 L 190.860082 290.245810 L 192.567199 291.180312 L 194.290576 292.086677 L 195.954665 293.095209 L 197.552055 294.207694 L 199.078576 295.415382 L 200.524715 296.718240 L 201.878767 298.116475 L 203.139841 299.599334 L 204.303165 301.160106 L 205.371179 302.787757 L 206.338776 304.477085 L 207.164904 306.239346 L 207.958993 308.015066 L 208.707672 309.812195" fill="none" stroke="black" stroke-width="1.000000" />
	<path d="M 141.077314 513.384566 L 141.378314 513.778623 L 141.679314 514.172680 L 141.980314 514.566738 L 142.281256 514.960840 L 142.580645 515.356122 L 142.880034 515.751405 L 143.179424 516.146688 L 143.478564 516.542157 L 143.774547 516.939997 L 144.070529 517.337837 L 144.366511 517.735677 L 144.661894 518.133957 L 144.952534 518.535717 L 145.243173 518.937477 L 145.533813 519.339237 L 145.823727 519.741515 L 146.109593 520.146685 L 146.395459 520.551856 L 146.681324 520.957026 L 146.966424 521.362731 L 147.248227 521.770738 L 147.530030 522.178744 L 147.811833 522.586751 L 148.091476 522.996212 L 148.363669 523.410692 L 148.635862 523.825172 L 148.908054 524.239651 L 149.176066 524.656764 L 149.432213 525.081347 L 149.688360 525.505931 L 149.944506 525.930514 L 150.195129 526.358269 L 150.432589 526.793579 L 150.670049 527.228890 L 150.907509 527.664200 L 151.138805 528.102705 L 151.357603 528.547688 L 151.576401 528.992671 L 151.795199 529.437654 L 152.008592 529.885184 L 152.212538 530.337166 L 152.416485 530.789149 L 152.620432 531.241131 L 152.818394 531.695695 L 153.007260 532.154184 L 153.196127 532.612673 L 153.384993 533.071161 L 153.566566 533.532498 L 153.738434 533.997626 L 153.910302 534.462753 L 154.082170 534.927881 L 154.246478 535.395654 L 154.402152 535.866449 L 154.557827 536.337244 L 154.713501 536.808039 L 154.861173 537.281332 L 155.000928 537.757095 L 155.140684 538.232858 L 155.280439 538.708622 L 155.411882 539.186681 L 155.536147 539.666723 L 155.660413 540.146765 L 155.784678 540.626807 L 155.900295 541.108943 L 156.009308 541.592677 L 156.118322 542.076410 L 156.227335 542.560144 L 156.327547 543.045721 L 156.421801 543.532546 L 156.516055 544.019371 L 156.610310 544.506196 L 156.695741 544.994597 L 156.775887 545.483942 L 156.856032 545.973288 L 156.936177 546.462634 L 157.007314 546.953325 L 157.073705 547.444726 L 157.140097 547.936126 L 157.206488 548.427527 L 157.263994 548.920009 L 157.317461 549.412983 L 157.370929 549.905957 L 157.424397 550.398932 L 157.469029 550.892753 L 157.510258 551.386902 L 157.551486 551.881050 L 157.592715 552.375198 L 157.625366 552.869963 L 157.655242 553.364927 L 157.685119 553.859892 L 157.714995 554.354856 L 157.735960 554.850256 L 157.754539 555.345773 L 157.773118 555.841290 L 157.791697 556.336807 L 157.801945 556.832551 L 157.810344 557.328345 L 157.818743 557.824139 L 157.827141 558.319933 L 157.827782 558.815787 L 157.827025 559.311652 L 157.826269 559.807517 L 157.825513 560.303381 L 157.817883 560.799181 L 157.809290 561.294972 L 157.800698 561.790763 L 157.792105 562.286553 L 157.778097 562.782218 L 157.763537 563.277869 L 157.748977 563.773520 L 157.734417 564.269172 L 157.715981 564.764693 L 157.697288 565.260206 L 157.678596 565.755719 L 157.659904 566.251232 L 157.637668 566.746598 L 157.615318 567.241959 L 157.592968 567.737320 L 157.570618 568.232681" fill="none" stroke="black" stroke-width="1.000000" />
	<path d="M 134.218155 367.634430 L 133.589686 369.522144 L 132.942522 371.403530 L 132.370914 373.309229 L 131.805164 375.216679 L 131.259946 377.130098 L 130.758387 379.055419 L 130.268734 380.983806 L 129.812432 382.920354 L 129.370188 384.860162 L 128.949107 386.804673 L 128.551987 388.754217 L 128.171168 390.707013 L 127.816368 392.664701 L 127.482312 394.626036 L 127.170563 396.591040 L 126.881340 398.559485 L 126.612340 400.530796 L 126.365333 402.504983 L 126.138730 404.481616 L 125.932974 406.460528 L 125.747539 408.441447 L 125.581476 410.424084 L 125.425536 412.407545 L 125.296790 414.392951 L 125.186825 416.379489 L 125.095212 418.366958 L 125.020657 420.355140 L 124.963380 422.343895 L 124.921624 424.333037 L 124.895758 426.322448 L 124.885921 428.312003 L 124.890753 430.301577 L 124.911693 432.291046 L 124.945945 434.280332 L 124.993630 436.269340 L 125.054777 438.257980 L 125.128372 440.246199 L 125.216300 442.233835 L 125.315535 444.220939 L 125.426108 446.207444 L 125.547563 448.193314 L 125.679083 450.178543 L 125.822687 452.162934 L 125.975383 454.146647 L 126.136758 456.129673 L 126.306335 458.112014 L 126.483248 460.093714 L 126.669025 462.074602 L 126.861461 464.054856 L 127.059718 466.034535 L 127.263742 468.013628 L 127.472569 469.992220 L 127.685915 471.970330 L 127.903193 473.948012 L 128.124121 475.925289 L 128.347749 477.902264 L 128.573080 479.879045 L 128.798109 481.855860 L 129.022430 483.832756 L 129.246753 485.809651 L 129.467752 487.786921 L 129.683846 489.764733 L 129.894091 491.743174 L 130.092476 493.722838 L 130.274102 495.704106 L 130.431395 497.687447 L 130.565032 499.672524 L 130.703850 501.657256 L 130.858742 503.640793 L 131.011839 505.624476 L 131.160744 507.608478 L 131.304253 509.592877 L 131.439521 511.577853 L 131.569259 513.563200 L 131.689158 515.549164 L 131.774944 517.536862 L 131.830251 519.525654 L 131.888851 521.514371 L 131.957134 523.502779 L 132.027683 525.491110 L 132.100223 527.479369 L 132.189273 529.466948 L 132.275976 531.454640 L 132.369585 533.442016 L 132.481992 535.428410 L 132.596324 537.414704 L 132.740317 539.399037 L 132.916306 541.380792 L 133.119720 543.359928 L 133.331361 545.338220 L 133.539223 547.316914 L 133.752292 549.295053 L 133.968224 551.272882 L 134.183236 553.250812 L 134.406268 555.227851 L 134.626495 557.205206 L 134.828815 559.184463 L 135.003110 561.166369 L 135.133914 563.151582 L 135.220358 565.139224 L 135.259323 567.128353 L 135.253899 569.117867 L 135.211002 571.106944 L 135.130529 573.094853 L 135.014915 575.081034 L 134.879508 577.065993 L 134.712412 579.048507 L 134.510737 581.027801 L 134.287352 583.004790 L 134.028435 584.977402 L 133.752101 586.947694 L 133.457288 588.915300 L 133.107812 590.873813 L 132.700124 592.821055 L 132.247419 594.758381 L 131.768430 596.689424 L 131.268973 598.615280 L 130.752336 600.536603 L 130.228613 602.456016 L 129.695818 604.372928 L 129.160949 606.289267 L 128.622160 608.204505 L 128.079345 610.118607 L 127.534240 612.032059 L 126.983717 613.943957 L 126.429541 615.854801 L 125.865013 617.762607 L 125.301546 619.670731 L 124.739144 621.579171 L 124.177966 623.487971 L 123.612555 625.395519 L 123.048423 627.303448 L 122.486932 629.212155 L 121.927411 631.121441 L 121.373362 633.032320 L 120.816090 634.942263 L 120.261017 636.852846 L 119.706096 638.763474 L 119.154268 640.674997 L 118.608976 642.588393 L 118.062929 644.501576 L 117.518122 646.415112 L 116.974391 648.328955 L 116.434841 650.243979 L 115.905689 652.161897 L 115.377377 654.080054 L 114.856520 656.000243 L 114.337031 657.920808 L 113.821760 659.842507 L 113.317192 661.767038 L 112.818202 663.693029 L 112.324926 665.620491 L 111.843204 667.550867 L 111.371759 669.483782 L 110.917672 671.420834 L 110.502255 673.366472 L 110.125725 675.320034 L 109.771043 677.277733 L 109.435640 679.238821 L 109.109153 681.201431 L 108.817157 683.169382 L 108.550522 685.140999 L 108.301254 687.114891 L 108.068385 689.090786 L 107.851488 691.068498 L 107.650713 693.047912 L 107.465700 695.028861 L 107.296742 697.011244 L 107.144355 698.994969 L 107.009280 700.979946 L 106.891643 702.966033 L 106.794124 704.953203 L 106.714488 706.941177 L 106.658258 708.929933 L 106.618685 710.919113 L 106.605860 712.908607 L 106.606117 714.898187 L 106.631884 716.887552 L 106.678414 718.876577 L 106.751187 720.864785 L 106.846495 722.852063 L 106.965803 724.838033 L 107.124007 726.821220 L 107.301260 728.802885 L 107.495598 730.782934 L 107.697253 732.762270 L 107.936783 734.737246 L 108.193502 736.710196 L 108.490384 738.677349 L 108.810521 740.640999 L 109.182121 742.595393 L 109.565701 744.547448 L 109.971573 746.495044 L 110.396336 748.438683 L 110.824308 750.381677 L 111.272415 752.320091 L 111.732191 754.255407 L 112.226286 756.182225 L 112.757180 758.099001 L 113.329835 760.003841 L 113.945174 761.895151 L 114.613611 763.768020 L 115.346865 765.615203 L 116.157112 767.429193 L 117.059861 769.198133 L 118.056818 770.914768 L 119.148977 772.573340 L 120.344143 774.157492 L 121.607489 775.691135 L 122.959334 777.148256 L 124.306097 778.612549 L 125.687912 780.043457" fill="none" stroke="black" stroke-width="1.000000" />
	<path d="M 195.664246 388.222534 L 195.663201 390.206462 L 195.641559 392.190271 L 195.625389 394.174132 L 195.571858 396.157335 L 195.536746 398.140950 L 195.473421 400.123864 L 195.409847 402.106773 L 195.328912 404.089047 L 195.233689 406.070687 L 195.127727 408.051782 L 195.006063 410.031974 L 194.873184 412.011446 L 194.727371 413.990006 L 194.569041 415.967604 L 194.399956 417.944312 L 194.217515 419.919832 L 194.024797 421.894376 L 193.817890 423.867482 L 193.601216 425.839541 L 193.371431 427.810114 L 193.136794 429.780117 L 192.887691 431.748341 L 192.627123 433.715080 L 192.356077 435.680404 L 192.075592 437.644402 L 191.783320 439.606681 L 191.484264 441.567938 L 191.174604 443.527548 L 190.856623 445.485826 L 190.530169 447.442709 L 190.192852 449.397747 L 189.850571 451.351925 L 189.499087 453.304467 L 189.142132 455.256017 L 188.776639 457.205986 L 188.404180 459.154636 L 188.025022 461.101994 L 187.638949 463.047993 L 187.246384 464.992693 L 186.847405 466.936087 L 186.442240 468.878201 L 186.030899 470.819016 L 185.613319 472.758498 L 185.190849 474.696921 L 184.763135 476.634194 L 184.330637 478.570405 L 183.893715 480.505622 L 183.452343 482.439829 L 183.007444 484.373228 L 182.558631 486.305723 L 182.106461 488.237434 L 181.651443 490.168477 L 181.193487 492.098825 L 180.733781 494.028757 L 180.271980 495.958189 L 179.809801 497.887531 L 179.345867 499.816451 L 178.883801 501.745820 L 178.421528 503.675139 L 177.962345 505.605195 L 177.506137 507.535957 L 177.059541 509.468960 L 176.627197 511.405197 L 176.193977 513.341246 L 175.772936 515.279970 L 175.358217 517.220067 L 174.999444 519.171090 L 174.657398 521.125308 L 174.327764 523.081651 L 174.040919 525.044626 L 173.808962 527.014814 L 173.683353 528.994159 L 173.670145 530.977527 L 173.722544 532.960640 L 173.853127 534.939954 L 174.098930 536.907921 L 174.344323 538.876557 L 174.542845 540.850414 L 174.732558 542.825250 L 174.895021 544.802454 L 175.037124 546.781275 L 175.153575 548.761744 L 175.242923 550.743626 L 175.306012 552.726518 L 175.341812 554.710087 L 175.353743 556.693955 L 175.340436 558.677805 L 175.302543 560.661343 L 175.239980 562.644254 L 175.151842 564.626190 L 175.036475 566.606722 L 174.894688 568.585543 L 174.727642 570.562394 L 174.533760 572.536787 L 174.313307 574.508393 L 174.064268 576.476582 L 173.787112 578.441015 L 173.481477 580.401215 L 173.144118 582.356190 L 172.776656 584.305744 L 172.382765 586.250141 L 171.959089 588.188245 L 171.508710 590.120341 L 171.031987 592.046098 L 170.527362 593.964728 L 169.993191 595.875335 L 169.428284 597.777078 L 168.837841 599.671073 L 168.218169 601.555676 L 167.568774 603.430257 L 166.891054 605.294786 L 166.179699 607.146707 L 165.436180 608.985977 L 164.657662 610.810672 L 163.828960 612.612992 L 162.960748 614.396784 L 162.089645 616.179229 L 161.212175 617.958540 L 160.314845 619.727898 L 159.400431 621.488511 L 158.470351 623.240892 L 157.521635 624.983244 L 156.551259 626.713615 L 155.562245 628.433422 L 154.562217 630.146867 L 153.559416 631.858696 L 152.560965 633.573062 L 151.569335 635.291382 L 150.587528 637.015326 L 149.617320 638.745824 L 148.658903 640.482879 L 147.713182 642.226876 L 146.778493 643.976818 L 145.855805 645.733110 L 144.949097 647.497694 L 144.060876 649.271651 L 143.192573 651.055437 L 142.345345 652.849326 L 141.516494 654.651795 L 140.708652 656.463752 L 139.922747 658.285346 L 139.158277 660.116032 L 138.417912 661.956588 L 137.700022 663.806043 L 137.010986 665.666381 L 136.343510 667.534644 L 135.691065 669.408196 L 135.057518 671.288217 L 134.439575 673.173442 L 133.832968 675.062348 L 133.225924 676.951116 L 132.583167 678.827799 L 131.886551 680.685201 L 131.143465 682.524569 L 130.379533 684.355518 L 129.604347 686.181705 L 128.815083 688.001869 L 128.023821 689.821172 L 127.246049 691.646252 L 126.493684 693.481914 L 125.771804 695.329772 L 125.084556 697.190754 L 124.436145 699.065610 L 123.828947 700.954202 L 123.265016 702.856154 L 122.744116 704.770351 L 122.267555 706.696042 L 121.835408 708.632208 L 121.443200 710.576886 L 121.089325 712.528895 L 120.772405 714.487267 L 120.491556 716.451122 L 120.252302 718.420502 L 120.033192 720.391900 L 119.848779 722.366694 L 119.695520 724.344319 L 119.565616 726.323943 L 119.452156 728.304594 L 119.340293 730.285358 L 119.224763 732.265886 L 119.096596 734.245508 L 118.940785 736.223059 L 118.731294 738.194584 L 118.438905 740.153386 L 117.999308 742.077456 L 117.410523 743.959027 L 116.693045 745.804984 L 115.859494 747.604268 L 114.901856 749.332750 L 113.877761 751.024170 L 112.755373 752.659682 L 111.598724 754.271545" fill="none" stroke="black" stroke-width="1.000000" />
	<path d="M 125.638947 780.028564 L 126.943415 778.621534 L 128.257146 777.223149 L 129.507900 775.768240 L 130.712226 774.274649 L 131.765872 772.671801 L 132.666900 770.978419 L 133.441075 769.223219 L 133.951482 767.375494 L 134.297334 765.488841 L 134.512276 763.582688 L 134.621762 761.667444 L 134.634442 759.749101 L 134.544004 757.832935 L 134.355036 755.923944 L 134.084036 754.024751 L 133.756627 752.134321 L 133.449052 750.240515 L 133.192423 748.339212 L 132.983613 746.432025 L 132.824275 744.520099 L 132.717013 742.604560 L 132.671118 740.686654 L 132.674027 738.768068 L 132.724098 736.850176 L 132.822765 734.934165 L 132.969428 733.021231 L 133.175280 731.113889 L 133.443177 729.214229 L 133.778153 727.325353 L 134.177642 725.448960 L 134.638825 723.586808 L 135.162353 721.741206 L 135.737378 719.910852 L 136.349029 718.092341 L 136.974119 716.278332 L 137.602238 714.465374 L 138.231609 712.652848 L 138.876858 710.846045 L 139.623945 709.081318 L 140.488176 707.368508 L 141.371741 705.665402 L 142.161776 703.920132 L 142.771607 702.102856 L 143.269552 700.250025 L 143.726880 698.386745 L 144.033302 696.499323 L 144.035355 694.585501 L 143.738072 692.696804 L 143.140474 690.878631 L 142.281362 689.168614 L 141.204218 687.584122 L 139.971213 686.116460 L 138.676186 684.700950 L 137.410643 683.260711 L 136.273333 681.725995 L 135.349027 680.087244 L 134.720630 678.322706 L 134.262962 676.472194 L 133.987228 674.573547" fill="none" stroke="black" stroke-width="1.000000" />
	<path d="M 510.152039 279.054626 L 511.697916 277.876993 L 513.250275 276.707920 L 514.812683 275.552313 L 516.381580 274.405529 L 517.976082 273.294684 L 519.595270 272.220147 L 521.239406 271.184208 L 522.911930 270.194825 L 524.613187 269.255749 L 526.344693 268.373783 L 528.102877 267.546239 L 529.916476 266.850919 L 531.770038 266.268728 L 533.653436 265.791715 L 535.536441 265.311382 L 537.430329 264.876406 L 539.352689 264.598893 L 541.287982 264.425025 L 543.230176 264.372315 L 545.168890 264.494511 L 547.090651 264.779834 L 548.946733 265.344304 L 550.760498 266.007811 L 552.544128 266.771118" fill="none" stroke="black" stroke-width="1.000000" />
	<path d="M 552.544128 266.771118 L 552.930216 268.588875 L 553.229869 270.422823 L 553.508326 272.260145 L 553.356932 274.109542 L 552.870146 275.900889 L 552.158234 277.616198 L 551.259383 279.241510 L 550.177405 280.750885 L 548.951162 282.146114 L 547.593900 283.414308 L 546.152386 284.586595 L 544.641932 285.668741 L 543.084394 286.682176 L 541.477763 287.615823 L 539.807136 288.428402 L 538.136475 289.240997" fill="none" stroke="black" stroke-width="1.000000" />
	<path d="M 201.732058 235.353643 L 200.774218 233.614387 L 199.957210 231.804744 L 199.633234 229.846618 L 199.407691 227.873946 L 199.354519 225.889281 L 199.450839 223.906224 L 199.669404 221.932862 L 199.989734 219.973419 L 200.403512 218.031559 L 200.905830 216.110699 L 201.488948 214.212799 L 202.140773 212.337363 L 202.836375 210.477668 L 203.613127 208.650513 L 204.465684 206.857453 L 205.408428 205.110231 L 206.394028 203.386604 L 207.451721 201.706427 L 208.564032 200.061788 L 209.737729 198.460452 L 210.969584 196.903399 L 212.263266 195.397381 L 213.616859 193.944976 L 215.032785 192.553341 L 216.509032 191.225877 L 218.043161 189.965776 L 219.630741 188.773704 L 221.270450 187.654480 L 222.974152 186.635866 L 224.761085 185.773296 L 226.620786 185.081376 L 228.513890 184.483366 L 230.425439 183.946838 L 232.322845 183.362596 L 234.224661 182.792233 L 236.142996 182.280682 L 238.071822 181.809634 L 240.013601 181.395879 L 241.963461 181.021281 L 243.920387 180.685751 L 245.881770 180.376958 L 247.849947 180.115944 L 249.821706 179.882333 L 251.796227 179.673567 L 253.772617 179.483023 L 255.750221 179.305478 L 257.728018 179.130021 L 259.706033 178.957039 L 261.683775 178.780982 L 263.661515 178.604878 L 265.638650 178.422167 L 267.615562 178.236996 L 269.591693 178.043741 L 271.568167 177.854010 L 273.543724 177.655039 L 275.521250 177.477228 L 277.498542 177.296318 L 279.478161 177.143919 L 281.457151 176.982819 L 283.435662 176.815600 L 285.408478 176.592572 L 287.382178 176.375937 L 289.354328 176.145645 L 291.323228 175.892569 L 293.288383 175.612609 L 295.248007 175.293703 L 297.205353 174.960297" fill="none" stroke="black" stroke-width="1.000000" />
	<path d="M 572.639404 244.066406 L 574.071196 245.116104 L 575.502667 246.166238 L 576.668226 247.502863 L 577.394454 249.118619 L 577.749892 250.855978 L 577.790953 252.629789 L 577.614270 254.395950 L 577.247360 256.132124 L 576.880432 257.868378" fill="none" stroke="black" stroke-width="1.000000" />
	<path d="M 125.638947 780.028564 L 125.861910 780.310324 L 126.076489 780.537670 L 126.177559 780.192871" fill="none" stroke="black" stroke-width="1.000000" />
	<path d="M 196.537308 148.080704 L 198.304176 147.309889 L 200.047074 146.489141 L 201.785591 145.658203 L 203.467781 144.718184 L 205.026566 143.586485 L 206.401057 142.236694 L 207.586091 140.718117 L 208.556395 139.054527 L 209.284647 137.271411 L 209.771397 135.409092 L 209.945028 133.491466 L 209.839928 131.567401 L 209.521584 129.673457 L 208.650844 127.960645 L 207.303965 126.591039 L 205.572451 125.750519 L 203.683605 125.365344 L 201.791034 125.003670 L 199.865943 125.104327" fill="none" stroke="black" stroke-width="1.000000" />
	<path d="M 202.427416 139.377676 L 202.679463 138.952044 L 202.937580 138.530088 L 203.206915 138.115229 L 203.486202 137.706967 L 203.771097 137.302585 L 204.058299 136.899836 L 204.347675 136.498645 L 204.636701 136.097200 L 204.921070 135.692464 L 205.200766 135.284467 L 205.466644 134.867631 L 205.687859 134.425648 L 205.862207 133.963266 L 206.006810 133.490250 L 206.130365 133.011334 L 206.162311 132.519018 L 206.084750 132.032467 L 205.929077 131.563232 L 205.711519 131.120458 L 205.442267 130.705768 L 205.112567 130.345462 L 204.663358 130.139446 L 204.194862 129.982248 L 203.712770 129.873198 L 203.227416 129.777676" fill="none" stroke="black" stroke-width="1.000000" />
	<path d="M 219.769562 182.853989 L 219.977360 180.933276 L 220.185158 179.012564 L 220.369230 177.089412 L 220.543977 175.165390 L 220.724382 173.241890 L 220.899711 171.317922 L 221.066793 169.393219 L 221.222830 167.467590 L 221.370649 165.541311" fill="none" stroke="black" stroke-width="1.000000" />
</svg>