<?xml version="1.0" encoding="utf-8"?>
<!-- Generator: Adobe Adobe Illustrator 24.2.0, SVG Export Plug-In . SVG Version: 6.00 Build 0)  -->
<svg version="1.1" id="Layer_2" xmlns="http://www.w3.org/2000/svg" xmlns:xlink="http://www.w3.org/1999/xlink" x="0px" y="0px"
	 width="1000px" height="1000px" viewBox="0 0 1000 1000" style="enable-background:new 0 0 1000 1000;" xml:space="preserve">
<style type="text/css">
	.st0{fill:none;stroke:#000000;stroke-miterlimit:10;}
</style>
<path class="st0" d="M319.1,273.96c20.91,36.64,28.49,80.7,21.02,122.22"/>
<path class="st0" d="M344.22,314.59c-5.22-13.08-12.55-25.32-21.6-36.1"/>
<path class="st0" d="M352.01,433.6c5.03-23.77,17.94-47.17,13.02-70.97c-1.9-9.19-6.39-17.63-9.24-26.58
	c-3.23-10.11-4.35-20.89-3.27-31.45c0.44-4.29,1.23-8.64,0.36-12.86c-1.87-9.07-10.87-15.26-13.16-24.23"/>
<path class="st0" d="M240.67,336.43c49.74-20.17,103.3-30.88,156.97-31.39"/>
<path class="st0" d="M310.1,323.1c22.86-9.61,47.97-13.81,72.71-12.15"/>
<path class="st0" d="M324.12,328.99c31.71,7.65,64.71-3.24,97.33-3.44"/>
<path class="st0" d="M455.54,337.11c32.18,4.42,65.11,3.31,96.92-3.26"/>
<path class="st0" d="M463.6,322.19c23.57-4.86,47.93-5.89,71.83-3.05"/>
<path class="st0" d="M470.17,271.36c2.36-2.49,5.41-4.31,8.73-5.19c5.56,7.67,7.28,17.43,8.27,26.85
	c3.38,32.2,0.07,65.08-9.68,95.96"/>
<path class="st0" d="M498.47,283.34c-2.76,7.35-0.69,15.52,1.11,23.16c7.35,31.13,9.76,64.29,0.1,94.79"/>
<path class="st0" d="M490.95,355.18c-0.71,8.63-1.41,17.33-0.38,25.92c0.89,7.41,3.03,15.06,0.71,22.15"/>
<path class="st0" d="M484.5,417.95c-5.24,6.3-6.1,15.09-9.73,22.43c-3.87,7.82-11.04,14.49-11.49,23.21"/>
<path class="st0" d="M480.79,473.8c0.73-8.24,4.05-16.12,8.8-22.89c3.8-5.42,8.8-11.22,7.53-17.72c-0.72-3.71-3.44-6.78-4.28-10.47
	c-2.06-9.01,7.37-16.56,9.01-25.66"/>
<path class="st0" d="M463.81,433.47c2.89-5.12,5.79-10.24,8.68-15.35c0.89-1.57,1.81-3.23,1.84-5.04c0.02-1.15-0.31-2.3-0.1-3.43
	c0.42-2.27,2.85-3.7,3.4-5.94c0.24-0.95,0.1-1.95-0.03-2.92c-1.47-10.33-3.5-20.58-6.1-30.68"/>
<path class="st0" d="M467,208.92c3.65,0.83,6.3,3.98,8.18,7.21c1.88,3.24,3.31,6.8,5.87,9.53c1.24,1.32,2.73,2.44,3.67,3.98
	c0.9,1.46,1.23,3.19,1.55,4.87c3.11,16.4,6.22,32.8,8.7,49.3"/>
<path class="st0" d="M215.97,334.97c40.79-44.58,92.58-79.02,142.51-103.4c15.19-8.96,33.04-12.02,50.45-14.79
	c25.65-4.09,51.34-7.91,77.07-11.47"/>
<path class="st0" d="M368.12,232.14c101.69-32.11,212.33-35.37,315.73-9.31"/>
<path class="st0" d="M390.75,219.09c-58.61,15.24-114.82,39.65-164.84,63.93c-1.68-17.09,6.46-33.57,15.84-47.95
	c34.62-53.09,88.38-91.37,145.85-118.07"/>
<path class="st0" d="M213.58,273.25c4.79-28.78,22.89-53.54,42.74-74.92c32.45-34.94,71.11-64.1,113.62-85.7"/>
<path class="st0" d="M388.54,109.2c-40.36,20.08-78.87,44.69-110.81,76.51s-57.15,71.18-68.19,114.89"/>
<path class="st0" d="M221.89,295.45c40.27-25.03,84.08-44.34,129.72-57.19"/>
<path class="st0" d="M225.82,327.02c2.47-8.35,4.95-16.84,5.04-25.54c0.04-4.22-0.48-8.42-1-12.6c-0.36-2.93-0.73-5.85-1.09-8.78"/>
<path class="st0" d="M258.23,295.29c3.93-9.6,3.03-21.04-2.33-29.92"/>
<path class="st0" d="M284.39,276.7c2.08-6.82,2.31-14.19,0.65-21.13"/>
<path class="st0" d="M224.53,321.23c-3.25,5.47-4.67,12.01-8.68,16.95c-2.62,3.23-6.18,5.55-9.19,8.42
	c-5.44,5.17-9.09,12.2-10.17,19.63"/>
<path class="st0" d="M187.85,306.72c-2.41-0.74-5.04,0.92-6.25,3.14c-1.21,2.22-1.34,4.84-1.42,7.36
	c-0.3,8.45-0.26,17.52,4.51,24.49c1.41,2.06,3.44,3.98,5.93,4.12c3.21,0.19,5.8-2.57,7.42-5.35c3.76-6.45,4.99-14.33,3.36-21.61
	c-0.68-3.04-1.87-6.02-3.89-8.39S192.54,306.44,187.85,306.72z"/>
<path class="st0" d="M180.73,319.9c2.76-4.29,6.03-8.24,9.73-11.74c-0.76,3.67-3.48,6.55-5.42,9.75c-1.88,3.11-3.06,6.65-3.42,10.27
	c3.83-6.38,7.92-13.02,14.37-16.73c-5.84,7.88-11.84,16.11-13.67,25.74c3.76-7.85,8.93-15.03,15.19-21.09
	c-3.79,8.29-11.08,15.15-12.39,24.17c3.12-4.86,6.54-9.53,10.23-13.98c1.36-1.64,2.84-3.31,4.82-4.09
	c-4.48,6.97-8.12,14.48-10.83,22.31c1.85-2.22,3.71-4.45,5.56-6.67c2.06-2.47,4.18-4.99,6.99-6.55"/>
<path class="st0" d="M200.74,309.39c18.43-61.35,57.68-116.24,109.78-153.51"/>
<path class="st0" d="M191.47,300.44c2.74-20.28,12.35-38.99,23.41-56.21c33-51.38,80.53-93.32,135.61-119.68"/>
<path class="st0" d="M181.23,292.91c9.55-38.49,37.39-69.57,65.97-97.06c27.36-26.32,56.55-51.16,89.77-69.53"/>
<path class="st0" d="M180.53,285.75c1.15-15.76,9.3-30.12,18.35-43.07c31.53-45.12,75.65-79.89,121.28-110.69"/>
<path class="st0" d="M172.27,297.24c3.92-25.14,13.49-49.83,30.22-68.99c9.74-11.15,21.62-20.18,33.18-29.41
	c39.41-31.46,76.34-66.39,119.24-92.88"/>
<path class="st0" d="M242.2,189c42.17-55.16,109.05-87.01,177.05-101.04"/>
<path class="st0" d="M344.85,127.33C388,105.91,436,94.31,484.17,93.68"/>
<path class="st0" d="M222.8,335.66c-6.8,5.02-9.18,14.61-7.23,22.84c1.95,8.23,7.54,15.19,14.03,20.61
	c6.49,5.42,13.94,9.55,21.02,14.17c12.17,7.93,23.35,17.37,33.21,28.03"/>
<path class="st0" d="M251.93,397.4c21.89,21.96,48.84,38.83,78.16,48.93"/>
<path class="st0" d="M293.74,420.94c5.67,3.77,11.51,7.23,17.54,10.38c3.79,1.9,7.51,3.93,11.16,6.09
	c5.21,3.16,10.12,6.83,15.01,10.46c4.53,3.36,9.17,6.41,14.26,8.88c5.61,2.72,11.5,4.09,17.54,5.44"/>
<path class="st0" d="M215.63,372.01c25.57,29.56,57.28,53.79,92.52,70.7"/>
<path class="st0" d="M207.61,378.99c39.79,28.5,80.23,57.34,126.24,74.03l12.81,5.01"/>
<path class="st0" d="M337.09,452.86c19.55,5.56,37.35,15.89,56.13,23.66c18.78,7.77,39.74,12.99,59.37,7.7"/>
<path class="st0" d="M388.74,462.3c17.09,8.9,36.49,13.35,55.75,12.79c8.95-0.26,17.86-1.58,26.81-1.67
	c19.14-0.2,38.67,5.17,57.15,0.18"/>
<path class="st0" d="M453.67,483.98c27.92,1.54,56.05-0.75,83.35-6.81"/>
<path class="st0" d="M252.42,466.25c-14.45-25.03-29.21-50.98-37.06-74.72c3.6,24.43,17.69,46.12,34.08,64.6
	c16.38,18.48,35.33,34.57,51.48,53.25"/>
<path class="st0" d="M210.28,404.06c17.69,38.73,44.15,73.43,76.82,100.74"/>
<path class="st0" d="M285.71,490.06c21.57,18.4,47.08,32.15,74.31,40.07"/>
<path class="st0" d="M201.11,383.07c4.51,22.11,15.82,42.2,27.95,61.23c13.47,21.15,28.48,41.85,48.46,57
	c17.22,13.06,37.83,21.59,59.24,24.53"/>
<path class="st0" d="M190.62,381.45c17.62,67.81,69.88,125.62,135.57,149.97"/>
<path class="st0" d="M178.05,361.89c14.3,49.73,40.45,96,75.68,133.9"/>
<path class="st0" d="M174.01,338.99c3.89,46.12,22.39,90.89,52.19,126.3c7.6,9.02,16.17,17.94,19.21,29.34"/>
<path class="st0" d="M196.04,446.32c-26.47-44.47-30.83-99.24-23.24-150.42"/>
<path class="st0" d="M180.61,288.28c-3.34-0.82-5.09,3.83-5.24,7.27c-1.36,31.89,4.83,64.07,17.9,93.18"/>
<path class="st0" d="M188.39,351.19c6.09,21.52,15.11,42.2,26.72,61.32"/>
<path class="st0" d="M173.08,343.91c3.21,4.25,7.24,7.89,11.78,10.67c1.75,1.07,3.65,2.03,5.7,2.17c3.73,0.26,7.08-2.24,9.62-4.98
	s4.73-5.93,7.94-7.85"/>
<path class="st0" d="M176.34,352c2.07,3.64,4.18,7.32,7.16,10.26s7,5.07,11.18,4.86c5.5-0.28,9.95-4.37,13.88-8.23"/>
<path class="st0" d="M178.53,309.69c1.14-3.9,2.71-7.67,4.68-11.22c0.61-1.09,1.29-2.2,2.34-2.87c1.25-0.79,2.82-0.83,4.29-0.75
	c7.75,0.42,15.31,3.74,20.87,9.15"/>
<path class="st0" d="M178.32,298.41c2.1-4.96,4.63-10.37,9.59-12.46c3.64-1.53,7.79-0.9,11.66-0.11c4.57,0.93,9.25,2.1,12.94,4.96"
	/>
<path class="st0" d="M214.4,348.16c-5.11,6.59-6.38,15.32-7.07,23.64c-0.41,4.95-0.68,10.02,0.75,14.78"/>
<path class="st0" d="M209.99,375.8c-0.41-7.16,0.02-14.36,1.29-21.42"/>
<path class="st0" d="M212.3,378.95c-0.45-6.84,0.4-13.76,2.51-20.29"/>
<path class="st0" d="M214.94,381.31c-0.89-6.24-0.24-12.58,0.4-18.85"/>
<path class="st0" d="M217.07,384.46c-0.39-6.45,0.11-12.94,1.48-19.25"/>
<path class="st0" d="M220.37,389.17c-0.39-6.74,0.01-13.52,1.19-20.16"/>
<path class="st0" d="M241.59,385.97c-6.98,1.89-13.35,5.96-18,11.49"/>
<path class="st0" d="M247.67,413.92c-1.3-3.11-0.71-6.63-0.31-9.98c0.59-5.01,0.69-10.08,0.29-15.11"/>
<path class="st0" d="M252.58,414.51c1.4-6.31,1.22-12.97-0.52-19.2"/>
<path class="st0" d="M267.72,426.49c0.89-5.38,1.27-10.85,1.13-16.31"/>
<path class="st0" d="M273.55,428.78c0.58-5.72,0.81-11.47,0.7-17.21"/>
<path class="st0" d="M231.65,398.32c29.71,24.75,64.16,43.8,100.91,55.81"/>
<path class="st0" d="M254.68,402.88c19.47,14.13,40.84,25.63,63.36,34.09"/>
<path class="st0" d="M316.38,432.01c25.74,17.15,54.56,29.68,84.66,36.82"/>
<path class="st0" d="M376.42,469.51c-1.03-0.69-2.05-1.37-3.08-2.06c26.47,12.41,56,18.23,85.2,16.78"/>
<path class="st0" d="M313.72,495.02c5.87-9.55,10.44-19.91,13.52-30.7c1.22-4.26,2.21-8.73,1.5-13.11"/>
<path class="st0" d="M320.26,504.97c9.62-10.45,15.57-24.21,16.62-38.37"/>
<path class="st0" d="M212.43,352.43c-10.09,30.53-11.21,63.97-3.17,95.1"/>
<path class="st0" d="M191.55,344.57c2.76,18.41,9.94,36.14,20.76,51.28"/>
<path class="st0" d="M205.91,336.03c4.89,15.38,7.12,31.6,6.58,47.72"/>
<path class="st0" d="M358.85,522.51c45,14.24,93.94,15.81,139.76,4.5"/>
<path class="st0" d="M366.17,531.4c38.16,12.07,79.4,6.19,118.97,0.19"/>
<path class="st0" d="M320.97,529.7c42.63,16.83,88.12,26.37,133.92,28.08"/>
<path class="st0" d="M339.43,526.12c37.64,13.23,77.63,19.71,117.52,19.04"/>
<path class="st0" d="M437.29,557.8c45.08,4.05,91.05-2.25,133.38-18.27"/>
<path class="st0" d="M496.84,545.31c21.05-9.3,42.3-18.13,63.75-26.47"/>
<path class="st0" d="M488.71,532.69c18.26-2.95,36.15-8.21,53.11-15.6"/>
<path class="st0" d="M498.14,532.68c42.67-2.09,85.04-10.21,125.46-24.04"/>
<path class="st0" d="M562.35,542.01c52.86-9.02,102.47-36.1,138.65-75.68"/>
<path class="st0" d="M753.18,349.27c-1.38,15.49-5.3,30.76-11.56,45c-7.73,17.6-18.9,33.43-28.51,50.08"/>
<path class="st0" d="M721.43,407.67c-28.27,25.56-63.37,43.49-100.65,51.39"/>
<path class="st0" d="M727.28,394.84c-22.86,19.94-50.54,33.75-79.2,43.68s-58.46,16.15-88.15,22.34"/>
<path class="st0" d="M700.44,432.39c-39.01,23.08-82.11,39.23-126.69,47.45"/>
<path class="st0" d="M648.58,447.21c-31.54,13.83-65.55,22.02-99.93,24.05"/>
<path class="st0" d="M621.99,488.08c-6.82,4.06-14.99,5.16-22.92,5.39s-15.92-0.34-23.78,0.75"/>
<path class="st0" d="M618.02,489.36c-13.39,4.34-27.67,5.9-41.69,4.56"/>
<path class="st0" d="M615.9,497.15c-15.54,4.22-31.74,5.98-47.82,5.19"/>
<path class="st0" d="M612.67,476.85c-2.77,27.63-20.96,53.21-46.15,64.9"/>
<path class="st0" d="M645.35,460.82c-3.08,19.73-6.71,40.68-20.1,55.49c-6.13,6.79-13.96,11.83-22.11,15.99"/>
<path class="st0" d="M653.69,465.74c-1.93,6.31-4.34,12.48-7.19,18.43"/>
<path class="st0" d="M695.3,432.2c-13.71,26.45-36.71,47.98-64.01,59.91"/>
<path class="st0" d="M734.51,393.88c-25.56,45.28-67.56,78.77-110.47,108.13"/>
<path class="st0" d="M616.22,513.02c27.18-12.8,51.56-31.5,70.73-50.05c-12.07,16.12-26.88,30.18-43.61,41.38"/>
<path class="st0" d="M650.04,497.31c-19.76,15.14-42.97,25.73-67.35,30.72"/>
<path class="st0" d="M744.51,347.61c-20.06,33.05-46.17,62.41-76.64,86.2"/>
<path class="st0" d="M741.66,360.87c-11.26,24.77-30.35,45.91-53.85,59.62"/>
<path class="st0" d="M747.29,364.34c-4.18,6.12-6.66,13.22-9.78,19.94c-8.57,18.47-22.13,34.28-37.53,47.6
	c-15.4,13.32-32.66,24.28-50.05,34.86"/>
<path class="st0" d="M618.66,447.5c31.09-70.76,38.07-151.86,19.53-226.89"/>
<path class="st0" d="M633.45,439.16c14.04-57.83,18.21-118.03,12.29-177.24"/>
<path class="st0" d="M634.29,427.67c21.74-52.92,20.75-112.03,19.42-169.22"/>
<path class="st0" d="M643.07,412.49c11.16-20.79,15.04-44.72,16.44-68.28c1.4-23.56,0.48-47.24,2.84-70.72"/>
<path class="st0" d="M652.45,317.6c1.72-28.39-2.6-57.12-12.59-83.75"/>
<path class="st0" d="M458.63,216.92c6.41,13.67,12.27,27.59,17.58,41.73"/>
<path class="st0" d="M696.41,337.18c0.28-1-1.13-1.55-2.16-1.61c-27.25-1.66-54.65-0.88-81.77,2.31"/>
<path class="st0" d="M677.9,330.76c-14.91-1.21-29.91-1.35-44.84-0.41"/>
<path class="st0" d="M686.49,287.5c-20.68-3.38-41.81-4.03-62.66-1.92"/>
<path class="st0" d="M681.98,276.48c-20.07-1.67-40.32-1.26-60.3,1.23"/>
<path class="st0" d="M671.26,291.77c-8.47,0.01-16.94,0.02-25.41,0.02"/>
<path class="st0" d="M781.46,334.64c-65.93-13.3-133.49-18.56-200.69-15.6"/>
<path class="st0" d="M662.22,240.8c-53.31-17.74-110.52-29.2-165.64-18.34"/>
<path class="st0" d="M567.1,215.37c-41.91-2.43-84.04-1.14-125.72,3.87"/>
<path class="st0" d="M386.65,225.61c70.66-11.03,144.65-14.5,212.16,9.11"/>
<path class="st0" d="M590.78,213.36C631,218,670.21,231.2,705.05,251.82"/>
<path class="st0" d="M655.12,232.58c26.91,11.03,52.03,26.42,74.09,45.37"/>
<path class="st0" d="M701.43,246.34c-27.25-16.44-57.22-28.35-88.31-35.12"/>
<path class="st0" d="M619.25,212.55c-48.48-17.81-101.72-15.39-153.3-12.73"/>
<path class="st0" d="M444.36,202.46c-12.19-34.05-36.11-63.78-66.77-82.97"/>
<path class="st0" d="M434.3,166.48c-5.38-11.98-15.4-21.38-26.61-28.22c-11.21-6.84-23.65-11.35-35.99-15.82"/>
<path class="st0" d="M472.41,198.42c-12.17-33.04-34.79-62.15-63.81-82.11"/>
<path class="st0" d="M341.08,142.67c7.83-4.95,16.73-7.9,25.56-10.68c25.26-7.95,50.97-14.85,77.26-18.03
	c26.29-3.18,53.27-2.56,78.84,4.35"/>
<path class="st0" d="M376.85,119.98c15.14-4.89,30.8-8.13,46.64-9.65"/>
<path class="st0" d="M474.42,93.81c-22.35,1.96-44.51,6.24-63.92,11.96c12.1,0.29,24.65-0.68,35.85,3.92
	c4.34,1.78,8.34,4.36,12.74,6s9.51,2.26,13.67,0.09c3.84-2,6.26-6.09,7.2-10.32S480.54,96.83,474.42,93.81z"/>
<path class="st0" d="M424.06,101.75c1.23,1.73,2.47,3.46,3.7,5.19c0.52-1.95,1.04-3.91,1.56-5.86c1.59,0.6,1.07,3.2,2.33,4.35
	c1.04,0.96,2.86,0.35,3.64-0.84c0.77-1.19,0.8-2.69,0.8-4.11c0.93,1.87,2.17,3.59,3.66,5.05c0.42,0.41,0.97,0.83,1.54,0.69
	c0.63-0.16,0.89-0.91,1.04-1.54c0.53-2.23,1.06-4.46,1.59-6.69c0.88,2.88,1.97,5.7,3.24,8.42c0.7,1.5,2.21,3.25,3.67,2.46
	c0.7-0.38,1-1.21,1.21-1.97c0.83-2.92,1.27-5.95,1.31-8.98c3.24,4.47,1.32,12.06,5.98,15.01c1.67-4.87,2.95-9.87,3.84-14.94
	c3.34,4.48,1.68,11.09,4.26,16.04c0.2,0.39,0.53,0.82,0.96,0.78c0.5-0.04,0.73-0.63,0.84-1.13c1.13-5.19,1.36-10.57,0.68-15.84
	c0.63,4.29,1.65,8.53,3.06,12.63c0.43,1.27,1.45,2.81,2.71,2.36c0.62-0.22,0.98-0.86,1.26-1.45c1.28-2.7,2.21-5.56,2.77-8.49"/>
<path class="st0" d="M482.34,94.14c18.83-1.27,37.76-2.54,56.53-0.69c1.49,0.15,3.22,0.47,3.92,1.79c0.34,0.64,0.36,1.4,0.37,2.13
	c0.12,7.57,0.24,15.13,0.37,22.7"/>
<path class="st0" d="M483.45,109.87c-3.31-1.54-6.06-4.27-7.62-7.58c24.02,5.33,48.04,10.66,72.07,15.99"/>
<path class="st0" d="M481.48,102.08c-0.65-2.42-0.29-5.09,0.96-7.25c0.18-0.3,0.42-0.63,0.77-0.66c0.54-0.04,0.82,0.61,0.95,1.14
	c0.77,3.24,1.53,6.48,2.3,9.72c0.48-3.32,0.96-6.64,1.45-9.95c1.35,3.67,2.69,7.33,4.04,11c0.73-3.31,1.45-6.63,2.18-9.94
	c0.09-0.41,0.21-0.86,0.57-1.07c0.78-0.46,1.55,0.6,1.84,1.46c1.18,3.48,2.35,6.97,3.53,10.45c0.6-3.32,1.19-6.63,1.79-9.95
	c0.17-0.94,0.46-2.03,1.35-2.38c3.35,3.42,2.49,9.45,5.71,13c0.63-3.51,1.25-7.01,1.88-10.52c0.18-1.01,0.95-2.35,1.86-1.85
	c0.27,0.14,0.43,0.42,0.56,0.69c1.87,3.74,0.87,8.8,3.83,11.75c0.51-4.22,1.2-8.42,2.09-12.58c4.2,4.28,2.42,11.76,5.65,16.81
	c1.08-5.13,2.16-10.25,3.24-15.38c3.11,4.62,1.11,11.24,3.89,16.06c2.41-3.52,1.16-8.38,2.62-12.39c0.13-0.37,0.32-0.76,0.68-0.92
	c0.95-0.44,1.61,0.99,1.68,2.03c0.25,3.61,0.49,7.21,0.74,10.82c0.08,1.18,0.48,2.7,1.66,2.78"/>
<path class="st0" d="M660.47,166.76c-2.4-5.11-6.93-8.83-11.32-12.38c-14.93-12.06-30.7-24.52-49.57-28.03
	c-9.47-1.76-19.23-1.14-28.75-2.57c-8.51-1.28-17.31-4.17-23.82-2.93c0.43-9.8,0.19-19.63-0.73-29.39
	c33.18,6.14,67.42,3.82,100.73,9.18c6.82,1.1,13.6,2.52,20.29,4.26c0.75,0.2,1.56,0.43,2.07,1.02c0.41,0.48,0.57,1.12,0.7,1.74
	c1.9,9.36-0.74,18.95-2.86,28.27C664.83,146.32,663.12,156.86,660.47,166.76z"/>
<path class="st0" d="M551.04,119.78c1.34-9.28,2.34-18.61,2.99-27.97c0.71,11.1,2,22.16,3.85,33.12
	c-0.01-10.75,3.2-21.21,6.39-31.47c0.73,10.43,1.67,20.85,2.82,31.24c0.41-8.59,1.07-17.23,3.29-25.54c0.43-1.62,1.1-3.43,2.66-4.04
	c0.81,7.19,1.63,14.37,2.44,21.56c0.24,2.13,0.56,4.43,2.06,5.97c0.2-7.57,1.14-15.12,2.79-22.5c0.43-1.9,1.02-3.98,2.65-5.04
	c3.17,9.68,1.07,20.49,4.29,30.15c2.78-7.98,1.11-17.18,4.8-24.78c0.39-0.8,0.87-1.61,1.63-2.07c0.76-0.46,1.87-0.45,2.43,0.24
	c0.38,0.46,0.42,1.1,0.45,1.7c0.46,8.82,0.93,17.64,1.39,26.46c1.21-7.1,2.42-14.2,3.63-21.29c0.4-2.33,1.65-5.32,3.98-4.93
	c0.46,9.46,0.92,18.92,1.38,28.38c0.85-5.97,1.69-11.94,2.54-17.91c0.23-1.61,0.47-3.26,1.3-4.66s2.4-2.49,4-2.25
	c2.55,8.58-0.32,18.11,2.41,26.64c0.36-8.18,0.75-16.54,3.77-24.15c0.63-1.58,2.36-3.4,3.68-2.32c0.6,0.48,0.7,1.34,0.75,2.11
	c0.74,10.01,1.48,20.02,2.22,30.03c0.95-8.73,1.91-17.53,4.44-25.94c0.72-2.41,1.88-5.09,4.29-5.82c1.08,1.4,1,3.35,0.91,5.11
	c-0.54,10.42-0.01,20.9,1.58,31.22c0.08-9.07,1.09-18.13,3-26.99c0.68-3.17,1.9-6.79,4.96-7.85c-0.22,4.01-0.45,8.02-0.67,12.03
	c-0.57,10.18-1.11,20.58,1.6,30.41c1.22-11.13,2.86-22.22,4.92-33.23c0.35-1.87,1.28-4.2,3.17-4.1c0.24,13.95,0.31,27.91,0.21,41.86
	c1.19-14.51,2.45-29.32,8.25-42.67c-2.1,14.66-2.81,29.52-2.12,44.31c-2.79-15.69,1.3-31.85,7.42-46.57"/>
<path class="st0" d="M677.15,99.48c2.5,27.93,5,55.95,4.11,83.98c-0.3,9.45-0.85,19.49,3.78,27.74"/>
<path class="st0" d="M674.2,93.33c4.6,1.27,6.71,6.52,7.81,11.17c6.01,25.36,1.86,52.85,11.47,77.07
	c3.51,8.85,8.74,16.91,12.81,25.52c4.97,10.51,8.18,21.79,13.08,32.33c7.25,15.61,18.1,29.49,23.97,45.67"/>
<path class="st0" d="M684.97,189.99c3.63,15.69,9.51,30.85,17.42,44.88c4.75,8.42,10.21,16.42,14.99,24.82
	c7.22,12.68,12.87,26.26,16.78,40.32"/>
<path class="st0" d="M685.51,185.51c5.51,14.35,12.24,28.23,20.11,41.44c5.92,9.94,12.73,19.74,22.35,26.15"/>
<path class="st0" d="M691.75,208.89c4.23,9.58,9.55,18.67,15.82,27.06c3.58,4.78,7.48,9.34,10.65,14.4
	c10.52,16.78,12.29,37.57,20.51,55.59"/>
<path class="st0" d="M678.69,420.41c7.02-3.58,12.08-10.04,16.47-16.58c3.48-5.17,6.7-10.55,9.06-16.32
	c2.95-7.22,4.49-14.93,6.02-22.58c5.43-27.24,10.71-56.35,0.21-82.07c-3.37-8.26-8.27-15.82-11.63-24.08
	c-2.83-6.95-4.56-14.38-8.29-20.89c-4.29-7.5-10.95-13.29-16.68-19.76c-6.3-7.11-11.52-15.09-17.5-22.48
	c-20.85-25.77-51.05-43.8-83.63-49.91"/>
<path class="st0" d="M586.2,152.8c18.55,4.42,35.61,14.9,47.93,29.45c5.31,6.27,9.83,13.33,16.26,18.44
	c3.84,3.05,8.26,5.31,11.96,8.53c4.97,4.32,8.37,10.12,11.68,15.81c9.93,17.06,20.22,35.87,17.31,55.39"/>
<path class="st0" d="M665.51,240.5c10.15-11.32,12.94-27.51,12.62-42.71c-0.15-7.17-1-14.64-4.93-20.64
	c-3.69-5.63-9.97-9.76-11.68-16.28"/>
<path class="st0" d="M567.71,197.05c0.82-9.41-1.34-18.83-4-27.9c-4.28-14.55-9.88-28.72-16.73-42.25
	c-2.54-5.02-6.18-10.57-11.78-10.93"/>
<path class="st0" d="M537.34,125.92c1.97,13.29,8.51,25.87,18.28,35.1c1.96,1.86,4.5,3.7,7.13,3.06c4.25-1.03,4.46-7.14,2.71-11.15
	c-1.75-4.01-4.53-8.31-2.95-12.39c3.06-0.12,5.07,3.18,5.81,6.15c0.74,2.97,1.08,6.35,3.4,8.34c1.32,1.14,3.08,1.6,4.62,2.43
	c1.99,1.07,3.6,2.73,5.04,4.47c9.21,11.15,12.58,26.88,8.74,40.82"/>
<path class="st0" d="M583.62,151.62c5.2,4.6,10.39,9.2,15.59,13.8c3.45,3.05,6.91,6.11,10.6,8.87c9.23,6.88,20.3,12.23,26.05,22.2"
	/>
<path class="st0" d="M416.77,122.22c58.08,1.69,115.91,11.91,171.05,30.24"/>
<path class="st0" d="M497.27,125.64c51.81-2.31,102.18,15.33,151.03,32.73"/>
<path class="st0" d="M478.26,116.09c43.94,1.39,88.86,2.97,129.86,18.81"/>
<path class="st0" d="M263.06,198.67c13.65,4.32,27.31,8.63,40.96,12.95c1.72,0.54,3.51,1.13,4.77,2.42c1.2,1.23,1.76,2.93,2.42,4.52
	c1.78,4.28,4.6,8.13,8.15,11.11"/>
<path class="st0" d="M277.2,196.88c6.59,3.61,13.6,7.66,16.76,14.48c2.48,5.37,2.15,11.63,4.04,17.24"/>
<path class="st0" d="M283.13,188.71c15.35,3.68,28.82,14.5,35.73,28.68c1.82,3.74,3.22,7.71,5.56,11.15"/>
<path class="st0" d="M229.1,252.6c-2.97-5.94-9.17-10.14-15.8-10.68"/>
<path class="st0" d="M232.45,240.9c-4.92-2.6-9.85-5.2-14.77-7.8"/>
<path class="st0" d="M230.85,254.52c-7.95,12.21-16.2,25.43-15.8,40c0.09,3.32,1.48,7.45,4.79,7.66c1.4,0.09,2.72-0.61,3.95-1.29
	c24.17-13.41,47.32-28.55,70.45-43.69"/>
<path class="st0" d="M219.19,298.52c-0.12,3.56,0.91,8.4,4.47,8.41c1.33,0,2.52-0.77,3.63-1.52c24.94-16.9,49.88-33.8,74.82-50.7"/>
<path class="st0" d="M206.57,293.3c4.38,4.87,8.85,9.87,11.34,15.93c2.48,6.06,2.63,13.51-1.31,18.74"/>
<path class="st0" d="M201.4,310.01c11.06,9.42,13.24,27.61,4.72,39.38"/>
<path class="st0" d="M336.63,273.47c9.83,15.78,11.73,35.04,14.7,53.4c2.81,17.38,6.8,34.61,8.17,52.16
	c1.37,17.55-0.03,35.75-7.54,51.67"/>
<path class="st0" d="M340.99,402.16c-2.52,10.09-5.03,20.18-7.55,30.27"/>
<path class="st0" d="M459.69,329.07c19.37,0.76,38.81-0.56,57.9-3.92"/>
<path class="st0" d="M473.6,332.53c17.07,1.79,34.4,1.11,51.28-2.02"/>
<path class="st0" d="M490.4,407.91c-5.1,16.24-9.6,32.66-13.5,49.22"/>
<path class="st0" d="M491.98,440.02c-5.45,17.17-9.83,34.69-13.94,49.69c-3.13,18.23-10.32,35.75-20.88,50.93"/>
<path class="st0" d="M454.14,510.38c14.47-1.44,29.01-2.12,43.54-2.06"/>
<path class="st0" d="M462.31,515.33c14.3,2.37,29.25,0.73,42.7-4.68"/>
<path class="st0" d="M717.21,283.48c4.7,23.92,9.39,48.71,3.8,72.44"/>
<path class="st0" d="M712.48,258.43c0.92,11.3,1.89,22.83,6.41,33.23c1.95,4.48,4.53,8.67,6.53,13.12
	c3.96,8.8,5.63,18.51,5.83,28.16"/>
<path class="st0" d="M729.89,291.72c2.77,9.11,5.55,18.28,6.79,27.72s0.87,19.27-2.52,28.17"/>
<path class="st0" d="M736.62,300.59c7.84,15.87,10.04,34.46,6.12,51.72"/>
<path class="st0" d="M743.5,297.24c7.67,16.05,10.63,34.32,8.43,51.97"/>
<path class="st0" d="M737.68,298.92c6.89,6.51,9.63,16.23,11.3,25.56c2.01,11.24,2.91,22.69,2.66,34.11"/>
<path class="st0" d="M744.99,287.53c5.19,7.15,7.6,15.95,8.88,24.69c1.69,11.56,1.57,23.3,1.44,34.99"/>
<path class="st0" d="M754.39,296.25c6.5,14.28,9.59,30.1,8.96,45.78"/>
<path class="st0" d="M734.53,312.51c7.28-5.59,14.89-10.75,22.78-15.43"/>
<path class="st0" d="M730.48,321.87c9.32-6.75,19-13.02,28.97-18.77"/>
<path class="st0" d="M734.69,329.26c8.68-7.85,18.23-14.74,28.41-20.51"/>
<path class="st0" d="M735.81,337.73c8.27-8.12,17.27-15.48,26.86-21.98"/>
<path class="st0" d="M739.89,342.69c7.08-7.58,15.24-14.15,24.17-19.43"/>
<path class="st0" d="M739.26,350.7c7.56-6.45,15.55-12.38,23.91-17.75"/>
<path class="st0" d="M749.22,290.88c5.87-1.41,11.25,3.76,14.18,9.04c5.33,9.62,6.92,20.95,6.37,31.93
	c-0.55,10.98-3.14,21.75-5.71,32.44"/>
<path class="st0" d="M762.25,340.12c-3.31,20.55-10.42,40.49-20.87,58.49"/>
<path class="st0" d="M688.05,469.39c11.01-13.88,21.57-28.11,31.65-42.68"/>
<path class="st0" d="M712.02,435.02c-5.98,20.18-8.43,41.4-7.19,62.41"/>
<path class="st0" d="M721.27,435.71c-8.37,18.56-12.42,39.05-11.74,59.4"/>
<path class="st0" d="M762.66,314.9c11.53-4.78,24.71-2.19,36.66,1.44c11.94,3.64,23.99,8.32,36.45,7.52"/>
<path class="st0" d="M762.84,327.42c23.72-1,47.56,0.99,70.78,5.9"/>
<path class="st0" d="M766.62,315.49c6.79-0.53,13.48,1.49,20.05,3.29c9.76,2.68,19.65,4.92,29.61,6.71"/>
<path class="st0" d="M762.42,321.99c8.16-1.18,16.48-1.2,24.64-0.06"/>
<path class="st0" d="M765,332.33c-3.57,3.79-3.71,9.96-1.32,14.59c2.4,4.62,6.87,7.86,11.62,9.99c4.52,2.03,9.94,3.15,14.33,0.85
	c4.27-2.25,6.45-7.22,6.98-12.01c0.97-8.67-2.7-17.73-9.44-23.28c-2.47-2.03-5.53-3.66-8.71-3.37
	C773.82,319.52,771.95,324.94,765,332.33z"/>
<path class="st0" d="M774.56,333.3c-0.99,1.95-2.01,4.03-1.88,6.22c0.19,3.01,2.5,5.41,4.69,7.48c0.9,0.85,2.08,1.75,3.24,1.34
	c0.88-0.31,1.34-1.26,1.64-2.14c1.11-3.31,1.07-6.99-0.09-10.28c-0.34-0.98-0.8-1.94-1.51-2.68
	C778.82,331.31,775.46,331.53,774.56,333.3z"/>
<path class="st0" d="M791.78,352.21c-4.26,3.22-9.33,6.63-14.52,5.36c-0.53-0.13-1.15-0.43-1.18-0.97
	c-0.01-0.29,0.15-0.55,0.32-0.79c4.13-5.79,13.38-6.68,16.46-13.09c-6.03,1.12-11.91,3.04-17.44,5.69
	c5.73-5.04,13.85-6.89,19.2-12.34c-7.49-1.48-14.8,3.08-22.4,3.83c5.68-5.12,14.3-5.92,19.95-11.08c-0.99-1.68-3.35-1.75-5.29-1.62
	c-5.2,0.35-10.4,0.7-15.6,1.05c2.41-1.77,5.15-3.11,8.03-3.92"/>
<path class="st0" d="M768.95,335.16c17.99,2.21,36.19,4.42,54.18,2.22"/>
<path class="st0" d="M765.23,339.06c20.88,5.98,43.37,6.24,64.39,0.74"/>
<path class="st0" d="M778.53,357.73c16.87-3.48,34.86-3.14,50.32-10.72c0.74-0.36,1.59-0.93,1.52-1.76
	c-0.03-0.39-0.28-0.73-0.53-1.03c-1-1.18-2.31-2.11-3.75-2.68"/>
<path class="st0" d="M770.81,360.61c17.08-0.48,34.13-2.02,51.02-4.61c5.03-0.77,10.48-1.87,13.77-5.76
	c1.51-1.79,2.41-4.02,3.04-6.29c1.78-6.44,1.45-13.45-0.93-19.7"/>
<path class="st0" d="M809.08,359.36c0.75,4.96,5.23,8.88,10.17,9.76s10.1-0.94,14.02-4.08c3.91-3.14,6.69-7.49,8.8-12.04
	c4.1-8.85,5.86-18.77,5.07-28.48c-0.24-2.92-0.71-5.86-1.86-8.56c-2.95-6.94-10.6-11.56-18.11-10.96
	c-7.51,0.61-14.32,6.41-16.11,13.72"/>
<path class="st0" d="M832.77,304.38c7.99-16.24,5.59-35.36,6.61-53.43c0.69-12.27,3.05-24.4,6.12-36.3
	c2.58-9.99,5.67-19.86,9.63-29.39c2.97-7.14,7.3-14.82,14.79-16.77"/>
<path class="st0" d="M861.47,173.28c1.05-1.89,2.33-3.64,3.81-5.2c1.54-1.62,3.53-3.13,5.76-2.99c2.59,0.16,4.51,2.44,6.81,7.44
	c4.31-1.15,8.43,2.84,9.86,7.06c2.89,8.51-0.91,17.65-4.11,26.04c-6.29,16.49-10.41,33.73-16.18,50.41
	c-5.76,16.68-13.37,33.12-25.48,45.96"/>
<path class="st0" d="M841.29,279.62c-1.53-16.43,1.74-32.89,4.99-49.07c3.89-19.36,7.93-39.12,17.84-56.2"/>
<path class="st0" d="M874.99,208.61c3.31-10.15,4.26-21.05,2.77-31.62"/>
<path class="st0" d="M883.55,179.8c2.28,3.92,1.44,8.86,0.31,13.25c-5.23,20.35-15.06,39.22-21.57,59.2"/>
<path class="st0" d="M865.35,239.78c-4.66,18.34-13.78,35.52-26.36,49.65"/>
<path class="st0" d="M845.11,289.9c-1.43,1.4-2.85,2.8-3.07,4.46c8.38-10.43,15.39-21.96,20.81-34.2"/>
<path class="st0" d="M846.58,266.32c6.81-12.72,13.16-25.69,19-38.88"/>
<path class="st0" d="M869.01,227.78c1.75-4.09,3.5-8.18,5.24-12.27"/>
<path class="st0" d="M867.14,336.15c16.59-15.28,34.06-29.83,53.73-40.87c19.67-11.04,41.74-18.48,64.29-18.7"/>
<path class="st0" d="M868.79,341.45c33.27,5.38,68.79-5.53,93.31-28.65"/>
<path class="st0" d="M975.71,281.08c-7.44,2.96-14.8,6.09-22.08,9.4c-2.89,1.44-5.83,2.74-8.84,3.91
	c-6.75,2.74-13.53,5.43-20.25,8.26c-6.61,2.78-12.9,5.85-18.79,9.97c-9.68,6.79-18.36,15.08-27.42,22.65"/>
<path class="st0" d="M892.92,332c16.15-12,32.77-24.24,52.11-29.8c11.83-3.4,25.43-4.78,33.45-14.12"/>
<path class="st0" d="M875.15,337.56c21.21-9.13,41.43-20.56,60.2-34.01c5-3.59,9.95-7.35,15.56-9.88
	c5.61-2.54,12.05-3.78,17.96-2.07c1.35,0.39,2.95,1.6,2.3,2.85"/>
<path class="st0" d="M946.07,305.73c5.45-1.81,11.08-3.08,16.78-3.8c1.55-0.2,3.6-0.03,4.01,1.47c0.19,0.7-0.09,1.43-0.38,2.08
	c-1.35,3.01-3.2,5.8-5.44,8.22"/>
<path class="st0" d="M824.98,296.9c-10.59,7.4-18.24,18.88-20.99,31.49s-0.58,26.24,5.97,37.37"/>
<path class="st0" d="M837.09,297.56c6.57,0.09,13.13,1.04,19.46,2.82"/>
<path class="st0" d="M872.99,313.33c3.99,8.4,8.07,17.24,7.61,26.53c-0.41,8.47-4.58,16.31-9.53,23.19"/>
<path class="st0" d="M880.53,330.77c3.37,3.44,8.68,5.43,10.06,10.04c0.94,3.13-0.38,6.6-2.55,9.04s-5.1,4.08-7.96,5.66"/>
<path class="st0" d="M826.79,372.33c6.7-1.34,13.6-0.33,20.42,0.13c6.81,0.46,14.02,0.28,19.94-3.13"/>
<path class="st0" d="M844.25,353.08c8.99-1.98,17.99-3.96,26.98-5.93"/>
<path class="st0" d="M843.38,337.13c4.94-2.55,11.77-0.34,14.28,4.62c0.68,1.35,1.09,2.88,2.07,4.03c1.39,1.63,3.66,2.21,5.8,2.3
	c2.14,0.1,4.3-0.2,6.42,0.1"/>
<path class="st0" d="M852.35,328.09c3.17-0.56,6.37-1.12,9.58-0.95c3.21,0.17,6.48,1.16,8.85,3.33"/>
<path class="st0" d="M865.52,321.34c4.24,13.45,3.36,28.44-2.42,41.31"/>
<path class="st0" d="M874.83,322.92c-0.12,10.27-0.92,20.54-0.53,29.63c3.86-2.79,7.45-5.96,10.7-9.43
	c1.12-1.19,2.19-3.16,0.99-4.27"/>
<path class="st0" d="M861.7,293.69c0.97-3.63-0.46-7.77-3.45-10.03c0.72,2.32,1.43,4.65,2.15,6.97c0.42,1.37,0.84,2.83,0.41,4.2
	c-0.59,1.88-2.56,2.9-4.35,3.72C852.63,300.31,848.8,302.08,861.7,293.69z"/>
<path class="st0" d="M860.07,565.84c-45.72,21.14-97.99,23.19-148.2,19.13c-50.21-4.07-99.95-13.87-150.31-15.09"/>
<path class="st0" d="M839.49,483.33c-1.49,0.22-2.97,0.45-4.46,0.67c7.86-9.02,15.71-18.03,23.57-27.05
	c-10.77,6.51-21.55,13.02-32.32,19.53c9.68-10.46,19.35-20.93,29.03-31.39c-9.39,4.99-18.21,11.06-26.24,18.05
	c6.54-13.19,23.31-19.23,28.99-32.81c-10.91,6.75-21.82,13.5-32.73,20.26c10.75-10.23,21.51-20.46,32.26-30.69
	c-9.33,4.93-18.66,9.85-27.99,14.78c8.94-8.78,17.88-17.56,26.83-26.34c-8.98,5.93-17.97,11.87-26.95,17.8
	c8.01-10.31,17.13-19.76,27.14-28.14c-8.65,5.05-17.3,10.1-25.95,15.15c6.78-10.78,17.19-18.67,27.37-26.32
	c-7.89,4.62-16.27,8.41-24.95,11.28c5.49-8.18,12.68-15.21,20.98-20.51c-7.43,4.39-15.18,8.22-23.18,11.45
	c7.37-6.91,15.54-12.96,24.29-18.01c-6.07,2.67-12.14,5.34-18.56,2.99C827.7,406.4,826.23,440.81,839.49,483.33z"/>
<path class="st0" d="M859.17,378.4c4.08,34.53,3.39,69.62-2.03,103.97"/>
<path class="st0" d="M837.62,367.11c-5.04,29.03-9.12,58.23-12.22,87.54c-0.69,6.56-1.34,13.16-0.97,19.77
	c0.24,4.41,1,8.96,3.52,12.66c1.41,2.08,3.45,3.87,5.92,4.47c1.53,0.37,3.14,0.26,4.68,0c8.72-1.5,15.85-8.01,19.79-15.73
	s5.1-16.55,5.38-25.22c0.82-25.16-5.15-50.35-3.49-75.46"/>
<path class="st0" d="M805.2,358.64c-10.65,4.97-21.29,9.94-31.94,14.91c-10.74,5.01-22.28,10.8-27.37,21.5
	c-0.9,1.89-1.55,4.17-0.54,6c1.01,1.82,3.27,2.49,5.33,2.83c18.1,3.02,35.78-6.07,51.88-14.86c8.52-4.65,17.16-9.39,24.12-16.16"/>
<path class="st0" d="M748.73,400.86c1.29-5.13,3.1-10.13,5.4-14.89c-0.74,5.55-1.47,11.21-0.38,16.7
	c2.79-8.21,6.49-16.11,11.01-23.51c-0.03,6.33-0.06,12.66-0.08,18.99c1.49-7.76,4.44-15.23,8.64-21.92
	c0.64,6.86,0.55,13.78-0.27,20.62c5.37-7.89,3.13-19.6,9.55-26.67c0.02,7.26,0.04,14.53,0.06,21.79c2.23-8.37,5.05-16.58,8.45-24.54
	c0.81,7.13,0.82,14.32,0.83,21.49c2.76-8.75,5.52-17.51,8.28-26.26c-0.37,7.68-0.28,15.39,0.28,23.06
	c1.85-7.71,3.69-15.43,5.54-23.14c0.89,5.53,1.78,11.06,2.67,16.59c0.86-4.51,2.32-8.91,4.31-13.05c0.98,3.39,2.9,6.5,5.49,8.9"/>
<path class="st0" d="M385.94,33.56c141.32,13.78,281.83,35.93,420.54,66.27"/>
<path class="st0" d="M386.2,19.54C518.87,40.2,650.95,64.74,782.19,93.11"/>
<path class="st0" d="M342.19,34.6c-79.54,40.37-159.08,80.75-238.62,121.12"/>
<path class="st0" d="M80.43,145.09c88.55,4.73,176.87,13.78,264.54,27.11"/>
<path class="st0" d="M216.52,106.64c72.77,0.05,145.53,4.2,217.83,12.42"/>
<path class="st0" d="M223.11,62.79c-11.96,129.28-23.95,258.77-47.43,386.46"/>
<path class="st0" d="M373.7,27.66c-1.93,120.1-10.55,240.09-25.82,359.23"/>
<path class="st0" d="M358.06,350.82c2.51,77.78,0.12,155.71-7.14,233.19"/>
<path class="st0" d="M206.79,373.17c-1.61,53.19-7.33,106.26-20.77,150.23c54.84,23.9,110.45,46.03,166.72,66.35"/>
<path class="st0" d="M129.7,141.98c-17.83,109.66-21.72,221.58-11.54,332.21"/>
<path class="st0" d="M54.48,331.35c45.49-8.71,92.35-10.21,138.31-4.46"/>
<path class="st0" d="M96.52,481.85c42.6,5.15,85.99,3.62,128.12-4.53"/>
<path class="st0" d="M241.68,554.97c44.55-10.91,90.09-17.76,135.88-20.46"/>
<path class="st0" d="M262.45,492.15c16.06-2.35,32.13-4.7,48.19-7.05"/>
<path class="st0" d="M299.27,597.28c162.85-20.25,326.15-36.89,489.74-49.89"/>
<path class="st0" d="M746.26,182.16c1.2-5.17,2.41-10.35,3.61-15.52c-12.79,85.5-19.45,171.92-19.93,258.37"/>
<path class="st0" d="M622.88,202.6c-12.53,101.39-14.67,204.06-6.36,305.89"/>
<path class="st0" d="M684.11,196.16c48.28-23.86,98-44.82,148.8-62.73"/>
<path class="st0" d="M753.41,144.85c34.36-8.69,68.72-17.39,103.07-26.08"/>
<path class="st0" d="M596.04,145.1c41.56,4.4,82.9,10.9,123.81,19.47"/>
<path class="st0" d="M889.63,123.86c-23.35,127.65-30.77,258.2-22.01,387.67"/>
<path class="st0" d="M842.58,101.82c18.42,3.9,36.85,7.8,55.27,11.69"/>
<path class="st0" d="M652.54,556.32c65.43-11.79,130.85-23.58,196.28-35.36"/>
<path class="st0" d="M646.77,479.95c54.55,19.12,110.45,34.38,167.15,45.61"/>
<path class="st0" d="M101.61,475.06c17.03,10.41,34.06,20.82,51.09,31.24"/>
<path class="st0" d="M388.21,738.26c-2.52-0.42-4.77-2.19-7.33-2.15c-2.02,0.03-3.83,1.19-5.51,2.31c-1.33,0.88-2.71,1.81-3.52,3.19
	c-1.59,2.68-0.59,6.12,0.78,8.92c1.32,2.71,3.1,5.4,5.82,6.69c1.75,0.83,3.74,1,5.68,1c3.74-0.01,7.84-0.85,10.17-3.79
	c2.01-2.53,2.21-6.22,0.95-9.2c-1.25-2.98-3.77-5.3-6.62-6.85C385.69,736.78,382.03,735.96,388.21,738.26z"/>
<path class="st0" d="M363.38,728.54c10.06-0.27,19.8,3.9,28.09,9.6c8.29,5.7,15.41,12.91,22.88,19.66
	c15.94,14.41,33.66,26.85,52.63,36.95"/>
<path class="st0" d="M374.22,730.2c14.55,0.63,26.79,10.6,37.91,20c12.89,10.89,25.97,21.74,40.7,29.99"/>
<path class="st0" d="M397.88,740.55c29,12.06,58.12,24.18,84.95,40.51c15.64,9.52,30.63,20.52,47.86,26.69"/>
<path class="st0" d="M475.88,786.99c2.6,0.82,5.15,2.51,5.96,5.11c0.81,2.6-1.03,5.98-3.76,5.9c-1.11-0.03-2.14-0.6-3.06-1.22
	c-2.84-1.92-5.19-4.54-6.79-7.56c-0.41-0.77-0.78-1.61-0.73-2.48c0.04-0.79,0.43-1.53,0.9-2.17c1.95-2.6,5.67-3.71,8.73-2.6
	c2.47,0.89,4.3,2.98,5.81,5.12c1.42,2.03,2.66,4.2,3.68,6.46c0.8,1.78,1.49,3.78,0.91,5.65c-0.99,3.18-5.34,4.22-8.36,2.81
	c-3.02-1.41-4.92-4.43-6.46-7.38c-1.14-2.19-2.17-4.43-3.1-6.72c-0.8-1.97-1.53-4.04-1.44-6.17c0.16-3.88,3.02-7.16,6.24-9.33
	s6.9-3.58,10.1-5.79"/>
<path class="st0" d="M476.96,779.79c2.43-1.67,3.78-4.67,6.39-6.04c2.89-1.52,6.45-0.59,9.43,0.74c3.9,1.74,7.83,4.58,8.65,8.77
	c0.57,2.95-0.73,6.25-3.29,7.82c-2.56,1.58-6.24,1.17-8.25-1.07c-1.74-1.95-2.06-4.86-1.45-7.4S490.45,777.79,476.96,779.79z"/>
<path class="st0" d="M381.92,732.04c-1.04-0.9-2.25-1.59-3.22-2.55c-0.97-0.97-1.71-2.33-1.44-3.67c0.44-2.17,3.04-3.02,5.23-3.33
	c1.9-0.27,3.81-0.45,5.73-0.53c0.85-0.04,1.73-0.05,2.5,0.3s1.42,1.14,1.31,1.98c-0.14,1.04-1.25,1.62-2.26,1.9
	c-1.9,0.54-4.06,0.63-5.74-0.41c-1.79-1.11-2.65-3.22-3.6-5.1c-0.96-1.88-2.39-3.84-4.49-4.09c-0.44-0.05-0.93-0.01-1.24,0.31
	c-0.49,0.48-0.26,1.38,0.3,1.79c0.55,0.4,1.29,0.44,1.98,0.39c1.86-0.14,3.67-0.78,5.21-1.84c0.42-0.29,0.84-0.65,0.96-1.15
	c0.14-0.64-0.27-1.24-0.59-1.81c-0.7-1.25-1.03-2.79-0.55-4.14c0.48-1.35,1.9-2.41,3.32-2.17c1.03,0.17,1.83,0.94,2.69,1.53
	c3.07,2.13,7.49,2.1,10.53-0.07"/>
<path class="st0" d="M383.77,737.61c3.69,2.27,6.55,5.85,7.95,9.95c0.55,1.6,0.88,3.34,0.51,4.99c-0.36,1.65-1.54,3.2-3.18,3.63
	c-1.34,0.35-2.76-0.08-4.06-0.56c-1.57-0.58-3.11-1.25-4.6-2c-1.74-0.87-3.5-1.93-4.46-3.62c-1.26-2.21-0.84-5.11,0.54-7.25
	c1.38-2.14,3.56-3.64,5.83-4.81C384.56,736.78,386.96,735.89,383.77,737.61z"/>
<path class="st0" d="M437.99,796.5c-16.98,4.25-31.91,16.09-39.91,31.66c-2.85,5.55-4.88,11.91-3.55,18.01
	c1.81,8.29,9.2,13.98,16.09,18.94"/>
<path class="st0" d="M404.95,918.67c-0.03-5.31-1.02-10.61-2.9-15.57c-4.06-10.72-12.22-19.81-14.5-31.05
	c-0.9-4.44-0.83-9.04-0.33-13.54c2.88-26.12,20.98-50.01,44.27-58.64c-11.85,3.97-23.25,9.26-33.94,15.75
	c-5.53,3.36-11.01,7.17-14.58,12.56c-4.72,7.12-5.49,16.7-1.96,24.48"/>
<path class="st0" d="M442.38,794.09c-17.32,2.27-34.14,8.28-48.97,17.5c-7.04,4.37-13.82,9.66-17.92,16.86
	c-4.1,7.2-5.03,16.67-0.54,23.64"/>
<path class="st0" d="M408.99,802.53c-17.07,7.66-31.68,20.73-41.18,36.85"/>
<path class="st0" d="M375.66,850.07c4.93,7.99,14.77,12.64,24.07,11.4c0,0,24.96,1.8,28.38,1.42c5.39-0.64,10.79-1.27,16.18-1.91"/>
<path class="st0" d="M451.04,855.33c21.74-5.02,43.06-11.91,63.63-20.57"/>
<path class="st0" d="M376.16,856.43c-5.78,9.99-7.14,22.44-3.66,33.44"/>
<path class="st0" d="M376.13,896.98c0.03,4.96,0.07,10.02,1.64,14.72c0.88,2.65,2.23,5.12,3.78,7.44c1.46,2.17,3.12,4.23,5.14,5.89
	c4.19,3.43,9.6,4.9,14.83,6.27"/>
<path class="st0" d="M531.48,953.02c-0.62,4.36,0.44,8.94,2.9,12.59c3.86-2.42,5.83-7.51,4.6-11.9c-0.42-1.48-1.23-2.95-2.58-3.69
	C535.04,949.27,532.02,949.18,531.48,953.02z"/>
<path class="st0" d="M519.61,947.04c-3.53,8.42-3.52,18.27,0.04,26.69"/>
<path class="st0" d="M542.13,946c-0.95-5.75-7.79-9.7-13.25-7.65c-3.18,1.19-5.54,3.94-7.26,6.86c-5.74,9.74-5.49,22.71,0.6,32.23"
	/>
<path class="st0" d="M537.43,935.02c-8.08-7.42-21.89-7.45-29.99-0.05c-5.32,4.86-7.99,12.08-8.8,19.24
	c-0.96,8.47,0.86,17.94,10.16,25.1c8.04,4.15,18.58,2.83,25.35-3.19"/>
<path class="st0" d="M515.93,927.27c8.22-1.13,17.35-2.05,24.1,2.77c6.62,4.73,8.83,13.95,7.2,21.92
	c-1.64,7.97-6.44,14.9-11.63,21.18"/>
<path class="st0" d="M534.12,923.68c-0.63-2.91-1.46-6.13-3.99-7.71c-1.32-0.82-2.9-1.05-4.44-1.23c-5.17-0.6-10.87-0.66-15.04,2.47
	c-2.29,1.72-3.85,4.23-5.22,6.76c-2.79,5.17-5,10.65-6.56,16.31"/>
<path class="st0" d="M666.43,900.55c-2.02,1.55-3.38,3.92-3.71,6.44c-0.32,2.52,0.4,5.16,1.97,7.17c0.31,0.4,0.68,0.79,1.17,0.89
	c0.57,0.12,1.15-0.18,1.65-0.49c1.95-1.2,3.78-2.64,5.09-4.51s2.06-4.21,1.7-6.46S671.24,896.87,666.43,900.55z"/>
<path class="st0" d="M657.42,905.74c-0.81-4.98,1.21-10.33,5.1-13.53c2.53-2.09,6.15-3.26,9.14-1.9c1.21,0.55,2.21,1.47,3.15,2.41
	c1.18,1.18,2.31,2.44,3.18,3.86c2.68,4.36,2.75,9.98,1.03,14.8c-1.72,4.82-5.05,8.91-8.81,12.38c-1.02,0.95-2.14,1.89-3.5,2.2
	c-1.66,0.38-3.43-0.28-4.76-1.35c-2.87-2.3-3.93-6.17-4.4-9.81C656.81,909.05,657.13,903.18,657.42,905.74z"/>
<path class="st0" d="M663.48,890.22c1.43-1.04,2.85-2.07,4.28-3.11"/>
<path class="st0" d="M664.2,883.07c0.87-1.71,2.84-2.64,4.76-2.75c1.91-0.1,3.79,0.51,5.57,1.23c1.23,0.5,2.46,1.07,3.41,2
	c0.91,0.89,1.5,2.05,2.07,3.19c1.71,3.38,3.44,6.86,3.8,10.63c0.43,4.55-1.18,9.01-2.76,13.3c-3.03,8.19-6.22,16.65-12.33,22.9"/>
<path class="st0" d="M656.89,889.2c-4.27,5.5-5.19,12.81-5.95,19.74c-0.34,3.09-0.67,6.28,0.26,9.24c1.4,4.47,5.36,7.58,9.1,10.4"/>
<path class="st0" d="M662.71,873.27c-12.18,5.4-23.58,14.67-27.22,27.48c-1.26,4.43-1.53,9.07-1.63,13.68
	c-0.07,3.19-0.05,6.43,0.88,9.48c0.88,2.92,2.55,5.53,4.31,8.01c1.45,2.05,3.03,4.09,5.12,5.49s4.82,2.07,7.17,1.19"/>
<path class="st0" d="M654.85,881.95c-9.82,5.94-16.92,16.19-19.03,27.47c-0.5,2.65-0.73,5.4-0.14,8.03
	c1.3,5.84,6.27,10.03,12.76,16.32c1.58,1.37,2.34,3.73,4.31,4.45c1.64,0.6,3.43-0.21,4.98-1c5.1-2.6,10.36-5.33,13.89-9.83"/>
<path class="st0" d="M660.9,877.52c4.14-1.94,9.29-1.53,13.08,1.04"/>
<path class="st0" d="M668.53,872.2c4.66,1.82,9.64,3.91,12.22,8.19l2.04,1.26"/>
<path class="st0" d="M686.25,878.34c5.64-7.74,9.56-16.72,11.39-26.12"/>
<path class="st0" d="M706.31,704.43c0.5,1.79,1,3.57,1.51,5.36"/>
<path class="st0" d="M709.19,716.6c2.36,19.91,0.76,40.05-0.85,60.04c-1.78,22.2-3.59,44.55-9.52,66.01"/>
<path class="st0" d="M680.26,667.66c6.54,1.4,12.26,5.68,16.23,11.07s6.3,11.84,7.65,18.4"/>
<path class="st0" d="M686.88,670.38c3.17-11.4,7.29-22.52,12.32-33.23l3.69-9.56"/>
<path class="st0" d="M707.78,614.75c3.68-18.21,5.35-36.83,4.96-55.41"/>
<path class="st0" d="M703.5,550.55c-1.14,27.23-5.19,54.34-12.04,80.71"/>
<path class="st0" d="M689.41,639.31c-7.71,26.15-15.31,52.44-19.34,79.4c-2.47,16.51-3.68,33.57-10.73,48.7"/>
<path class="st0" d="M652.9,781.85c-3.7,9.59-8.07,18.92-13.05,27.92"/>
<path class="st0" d="M667.5,627.89c13.42-21.33,29.59-40.93,47.97-58.17c1.54-1.44,3.13-2.92,3.98-4.85
	c0.85-1.93,0.75-4.45-0.81-5.86"/>
<path class="st0" d="M694.98,598.85c-9.62,36.83-20.41,73.36-32.34,109.51"/>
<path class="st0" d="M680.15,612.71c2.73,5.51,4.92,11.28,6.55,17.2c-7.67,1.17-14.85,5.34-19.67,11.42
	c1.16,3.21,3.96,5.47,6.34,7.91c2.38,2.44,4.55,5.66,3.92,9.02c-5.31,2.4-9.86,6.43-12.9,11.41"/>
<path class="st0" d="M672.12,665.02c-3.55,4.34-6.7,9.02-9.39,13.94"/>
<path class="st0" d="M668.36,674.62c-15.05,23.39-38.72,39.62-61.75,55.21"/>
<path class="st0" d="M668.01,706.96c-18.34,7.88-37.27,14.4-56.57,19.48"/>
<path class="st0" d="M621.55,733.79c7.89-0.46,15.64-3.12,22.16-7.6"/>
<path class="st0" d="M633.95,735.46c8.53-0.42,16.02-5.55,22.99-10.49"/>
<path class="st0" d="M663.17,680.71c-1.77,7.77-3.53,15.54-5.3,23.31"/>
<path class="st0" d="M686.87,661.12c-5.14,25.44-11.34,50.66-18.59,75.58"/>
<path class="st0" d="M689.39,666.54c0.14,22.26-5.63,44.52-16.56,63.91"/>
<path class="st0" d="M682.76,654.85c3.59-0.42,7.16,1.55,9.39,4.39c2.23,2.84,3.3,6.42,3.86,9.99c0.78,4.94,0.68,10.03-0.3,14.94
	c-1.21,6.07-3.72,11.78-6.22,17.44c-5.27,11.92-10.66,23.9-18.25,34.49"/>
<path class="st0" d="M692.57,653.31c8.49,4.92,11.38,15.87,11.29,25.68c-0.11,12.24-3.6,24.26-8.62,35.43
	c-5.02,11.17-11.54,21.58-18.04,31.95"/>
<path class="st0" d="M666.39,751.76c18.36-20.5,30.98-46.09,36.42-74.46c5.43,12.57,9.78,26.19,8.1,39.78
	c-2.11,17.07-13.34,31.64-17.71,48.27"/>
<path class="st0" d="M650.15,561.18c-18.77,72.49-51.17,140.82-71.23,212.96"/>
<path class="st0" d="M645.51,593.86c-17.06,55.44-36.96,110.01-59.58,163.42"/>
<path class="st0" d="M660.15,574.22c-25.53,70.81-51.06,141.62-76.59,212.43"/>
<path class="st0" d="M670.03,566.38c-25.79,71.46-47.26,144.58-77.8,214.14"/>
<path class="st0" d="M583.16,560.75c-7.6,25.14-15.2,50.28-22.81,75.43"/>
<path class="st0" d="M578.54,559.11c-8.8,23.63-16.74,47.58-23.8,71.78"/>
<path class="st0" d="M568.16,562.28c-5.51,17.18-11.03,34.36-16.54,51.54L568.16,562.28z"/>
<path class="st0" d="M573.95,556.59c-7.11,20.84-14.22,41.68-21.34,62.53"/>
<path class="st0" d="M560.24,541.6c-4.81,6.93-9.63,13.86-14.44,20.8c15.76-3.2,32.21-2.93,47.85,0.79
	c10.16,2.42,20.38,6.55,24.9,10.64c2.97,1.26,6,2.39,9.08,3.38c1.14,0.37,2.57,0.65,3.4-0.21"/>
<path class="st0" d="M619.54,528.64c6.32,16.07,10.46,33,12.26,50.18"/>
<path class="st0" d="M562.81,541.71c-4.16,6.95-7.83,14.19-11,21.65"/>
<path class="st0" d="M570.44,540.84c-4.42,7.62-8.35,15.52-11.73,23.65"/>
<path class="st0" d="M577.95,540.02c-4.56,6.88-7.99,14.51-10.11,22.49"/>
<path class="st0" d="M585.47,539.21c-4.02,6.8-7.46,13.93-10.29,21.3"/>
<path class="st0" d="M595.19,533.23c-5.25,8.69-9.73,17.84-13.37,27.31"/>
<path class="st0" d="M605.45,530.52c-7.11,10.05-13.05,20.92-17.68,32.32"/>
<path class="st0" d="M611.02,528.74c-6.07,10.63-11.61,21.57-16.59,32.75"/>
<path class="st0" d="M615.21,526.95c-4.89,12.21-8.91,24.76-12.03,37.54"/>
<path class="st0" d="M618.55,526.21c-3.94,13.03-7.25,26.24-9.93,39.59"/>
<path class="st0" d="M620.33,529.38c-2.65,13.41-5.58,26.76-8.77,40.05"/>
<path class="st0" d="M621.68,536.98c-2.2,12.77-4.4,25.53-6.6,38.3"/>
<path class="st0" d="M624.46,541.27c-2.74,11.58-1.14,23.86-3.89,35.44"/>
<path class="st0" d="M625.78,552.44c-0.21,7.65-0.18,15.3,0.07,22.94"/>
<path class="st0" d="M629.52,561.82c0,5.04,0.22,10.09,0.64,15.11"/>
<path class="st0" d="M632.56,517.03c-0.58,5.61-1.76,11.17-3.5,16.54c-0.31,0.95-0.78,2.04-1.75,2.27
	c-0.71,0.17-1.44-0.19-2.01-0.65c-2.1-1.67-2.9-4.78-1.87-7.25c1.17-2.81,4.16-4.33,6.95-5.55c1.6-0.7,3.42-1.38,5.03-0.71
	c1.02,0.42,1.76,1.33,2.38,2.25c4.81,7.19,4.08,17.61-1.69,24.06c-1.19,1.33-2.7,2.56-4.48,2.64c-0.47,0.02-0.97-0.05-1.32-0.36
	c-0.29-0.26-0.43-0.63-0.55-1c-1.78-5.3-1.71-11.21,0.2-16.47"/>
<path class="st0" d="M583.51,561.13c1.2,5.69,6,9.8,10.52,13.46c1.85,1.5,3.7,3,5.56,4.51c2.8,2.27,5.73,4.6,9.24,5.4
	c3.51,0.79,7.77-0.48,9.22-3.78"/>
<path class="st0" d="M619.48,572.63c-0.44,2.94-0.88,5.88-1.32,8.82"/>
<path class="st0" d="M588.37,561.26c-0.07,2.65-0.15,5.29-0.22,7.94"/>
<path class="st0" d="M592.92,562.92c0.07,3.71,0.15,7.43,0.22,11.14"/>
<path class="st0" d="M596.01,564.35c0.59,4.75,1.19,9.49,1.78,14.24"/>
<path class="st0" d="M600.6,565.01c0.33,5.11,0.66,10.22,0.99,15.33"/>
<path class="st0" d="M604.27,567c0.47,5.07,0.94,10.15,1.41,15.22"/>
<path class="st0" d="M607.25,567.66c0.24,5.1,0.78,10.19,1.6,15.23"/>
<path class="st0" d="M611.67,570.2c0.23,4.1,0.59,8.18,1.08,12.26"/>
<path class="st0" d="M614.42,570.86c0.5,3.93,1.19,7.83,2.05,11.7"/>
<path class="st0" d="M605.47,579.87c-7.86,1.03-14.86,6.93-17.21,14.5c-0.52,1.69-0.99,3.66-2.57,4.46"/>
<path class="st0" d="M586.69,598.67c-1.53-1.82-3.06-3.64-4.59-5.45c-1.18,8.02-2.37,16.05-3.59,26.38
	c0.61,3.7,1.73,7.31,3.31,10.71c0.25-0.22,0.49-0.43,0.85-0.31c-7.74,3.62-12.57,12.49-20.89,14.49"/>
<path class="st0" d="M619.02,584.18c-2.27,8.19-4.55,16.41-5.64,24.83c-0.41,3.15-0.63,6.46,0.61,9.38"/>
<path class="st0" d="M613.85,616.45c-4.09,9.61-10.83,18.22-12.81,28.47c-0.24,1.22-0.4,2.49-0.08,3.69
	c0.89,3.35,5.18,5.13,5.6,8.57"/>
<path class="st0" d="M604.83,655.69c1.37,4.45,2.75,8.9,4.12,13.35"/>
<path class="st0" d="M606.74,823.99c-0.79-26.04,1.89-52.18,7.94-77.52c8.45-35.37,23.44-69.24,28.04-105.32"/>
<path class="st0" d="M625.06,810.45c-4.87-46.14,9.91-91.76,17.37-137.55c3.39-20.82,5.28-41.85,7.17-62.86
	c2.37-26.35,4.73-52.71,7.1-79.06"/>
<path class="st0" d="M662.28,518.25c-0.79,18.57-2.85,37.08-6.16,55.36"/>
<path class="st0" d="M654.46,582.7c-0.84,4.01-1.67,8.03-2.51,12.04"/>
<path class="st0" d="M673.6,517.61c1.1,3.39,4.65,5.23,7.89,6.72c1.58,0.73,3.22,1.47,4.95,1.45c1.69-0.02,3.27-0.76,4.91-1.15
	c2.3-0.55,4.82-0.44,6.85-1.67c2.15-1.3,3.25-3.85,3.64-6.34c0.47-2.97,0.08-6.15-1.56-8.67c-1.64-2.52-4.65-4.22-7.63-3.86
	c-0.96,0.12-1.93,0.43-2.86,0.21c-1.64-0.38-2.49-2.2-3.89-3.14c-1.44-0.96-3.38-0.9-5-0.27c-1.62,0.63-2.98,1.76-4.32,2.86
	c-2.13,1.76-4.31,3.6-5.55,6.06c-0.8,1.6-1.17,3.38-1.43,5.14c-0.52,3.49-0.64,7.27,1.1,10.34c1.03,1.83,2.66,3.27,4.45,4.36
	c3.25,1.98,7.15,2.9,10.94,2.56"/>
<path class="st0" d="M683.18,498.67c2.85-0.68,5.77-1.25,8.7-1.08c2.93,0.17,5.9,1.15,7.99,3.22c1.2,1.18,2.06,2.67,2.72,4.21
	c2.44,5.73,2.13,12.57-0.82,18.06c-2.95,5.49-8.49,9.51-14.62,10.63"/>
<path class="st0" d="M678.3,496.54c-5.71,3.52-11.89,7.66-13.57,14.16c-1.15,4.44,0.09,9.12,1.41,13.51
	c1.14,3.79,2.41,7.68,5.02,10.66c2.61,2.98,6.91,4.84,10.62,3.46"/>
<path class="st0" d="M690.31,491.55c3.16-0.16,6.5-0.28,9.26,1.26c2.09,1.16,3.58,3.14,4.88,5.15c3.78,5.83,6.51,12.74,5.62,19.64
	c-1.12,8.62-7.53,15.47-13.62,21.67"/>
<path class="st0" d="M665.61,530.58c2.1,2.18,3.26,5.33,5.92,6.78c1.32,0.72,2.86,0.92,4.35,1.05c5.05,0.43,10.16,0.18,15.14-0.74"
	/>
<path class="st0" d="M658.54,505.59c-5.26,4.39-7.55,11.44-8.28,18.26c-0.48,4.5-0.38,9.2,1.44,13.35
	c2.65,6.04,8.71,10.14,15.14,11.6c6.43,1.46,13.19,0.58,19.54-1.21"/>
<path class="st0" d="M681.8,551.45c9.78-5.65,19.25-12.69,24.63-22.62s5.71-23.28,1.16-29.21c6.03,9.04,7.7,20.43,6.77,31.26
	c-0.93,10.83-4.27,21.28-7.59,31.63"/>
<path class="st0" d="M706.48,487.24c6.79,1.62,12.26,6.99,15.36,13.25c3.1,6.26,4.11,13.34,4.45,20.32
	c0.17,3.47,0.17,7.01-0.8,10.35c-1.23,4.19-3.96,7.89-4.74,12.19c-0.7,3.8,0.2,7.71,0.02,11.57c-0.2,4.53-1.92,8.97-4.82,12.45"/>
<path class="st0" d="M712.65,489.95c5.9,5.09,10.81,11.31,14.4,18.23c2.2,4.24,3.92,9.21,2.35,13.72
	c-1.37,3.93-5.13,7.24-4.63,11.37c0.09,0.74,0.32,1.48,0.2,2.22c-0.22,1.34-1.5,2.24-2.08,3.47c-0.8,1.69-0.11,3.79,1.2,5.12
	s3.11,2.05,4.89,2.62c0.97,0.31,2.19,0.96,1.97,1.96c-0.1,0.44-0.46,0.75-0.8,1.04c-4.89,4.09-9.78,8.18-14.67,12.27"/>
<path class="st0" d="M716.43,488.84c-0.36-0.28-0.07-0.92,0.37-1.03s0.89,0.14,1.28,0.37c10.06,6.14,16.73,17.5,17.18,29.27
	c0.08,2.17-0.04,4.4-0.83,6.43c-1.92,4.96-7.44,7.95-8.97,13.04c-0.4,1.31-0.23,3.14,1.09,3.51c0.67,0.19,1.55-0.03,1.94,0.55
	c0.26,0.39,0.1,0.9-0.06,1.34c-0.7,1.87-1.39,3.74-2.09,5.61"/>
<path class="st0" d="M676.97,475.09c13.07-3.54,26.97-1.6,40.22,1.23c7.43,1.58,14.85,3.45,21.82,6.49c1.09,0.47,2.2,1,3.01,1.87
	c1.85,1.98,1.77,5.28,3.75,7.13c3.34,3.12,10.55,0.44,12.26,4.68c0.48,1.2,0.25,2.56-0.06,3.82c-1.01,4.11-2.71,8.05-5.02,11.6"/>
<path class="st0" d="M676.32,480.89c6.43,4.14,14.59,4.05,22.24,4.07c7.65,0.01,15.93,0.49,21.8,5.39
	c5.88,4.91,7.86,13.01,12.29,19.25c2.12,2.99,5.37,5.76,9.02,5.33"/>
<path class="st0" d="M745.58,492.85c-3.94,5.25-7.65,10.66-11.13,16.22"/>
<path class="st0" d="M779.52,353.9c-15.73,29.65-31.46,59.32-45.39,89.85c-10.6,23.23-20.14,46.93-29.68,70.62"/>
<path class="st0" d="M789.84,357.55c-31.77,46.55-60.2,95.38-84.98,146"/>
<path class="st0" d="M758.9,415.54c-17.14,31.01-34.27,62.01-51.41,93.02"/>
<path class="st0" d="M632.75,756.63c6.95-6.97,13.9-13.93,20.85-20.9c0.75-0.75,1.55-1.53,2.58-1.78c1.03-0.24,2.09,0.09,3.11,0.37
	c6.66,1.84,13.92,1.42,20.32-1.17c0.65-0.26,1.34-0.55,2.02-0.4c2.18,0.47,1.42,4.04,2.95,5.67c1.86,1.98,5.93-0.02,7.58,2.14
	c0.44,0.57,0.57,1.31,0.7,2.01c1.54,8.81,3.09,17.61,4.63,26.42c0.53,3.02,1.04,6.22-0.11,9.06c-0.91,2.23-2.73,3.94-4.5,5.58
	c-5.75,5.32-11.5,10.64-17.26,15.96c1.3,0.75,2.31,1.98,2.81,3.39"/>
<path class="st0" d="M651.47,806.87c9.43-2.42,18.85-4.83,28.28-7.25c1.08-0.28,2.4-0.49,3.16,0.33c-0.94,1.5-2.57,2.38-4.13,3.2
	c-7.89,4.15-15.79,8.3-23.68,12.45c-3.61,1.9-7.3,3.86-10.01,6.9"/>
<path class="st0" d="M642.66,809.32c0.62-2.5,1-5.06,1.14-7.64c0.04-0.78,0.05-1.59-0.21-2.32c-0.36-1.01-1.18-1.78-2-2.46
	c-1.41-1.17-2.9-2.23-4.47-3.17c-0.99-0.59-2.04-1.14-3.19-1.22c-0.91-0.06-1.81,0.19-2.66,0.51c-3.69,1.39-6.78,4.29-8.41,7.87
	s-1.78,7.82-0.4,11.51c0.99,2.65,3.03,5.2,5.83,5.62c2.27,0.35,4.51-0.76,6.43-2.02c3.07-2.01,5.83-4.5,8.15-7.35
	c1.12-1.37,2.19-3.03,1.92-4.78c-0.33-2.17-2.6-3.63-2.99-5.79"/>
<path class="st0" d="M633.41,793.3c0.72-0.62,1.43-1.24,2.15-1.87c-6.46,5.41-11.93,11.99-16.08,19.32"/>
<path class="st0" d="M633.01,816.99c0.31-1.25,1.14-2.29,1.98-3.27c3.07-3.59,6.47-6.89,10.14-9.86"/>
<path class="st0" d="M636.14,793.53c-5.67,5.02-10.8,10.66-15.25,16.79"/>
<path class="st0" d="M638.22,795.33c-6.17,5.11-11.61,11.09-16.1,17.72"/>
<path class="st0" d="M624.19,815.16c3.47-7.23,9.79-12.62,15.92-17.79"/>
<path class="st0" d="M626.82,817.13c3.3-6.08,7.6-11.62,12.67-16.33c0.74-0.68,1.51-1.36,2.43-1.75"/>
<path class="st0" d="M631.66,816.3c2.52-4.89,5.66-9.46,9.34-13.56"/>
<path class="st0" d="M661.72,757.03c-4.03,13.48-10.16,26.34-18.11,37.95"/>
<path class="st0" d="M621.78,853.97c25.37-11.81,51.74-21.46,78.74-28.81"/>
<path class="st0" d="M629.06,853.12c22.86-10.39,46.55-18.94,70.77-25.56"/>
<path class="st0" d="M643.09,851.18c17.35-8.53,35.41-15.59,53.94-21.1"/>
<path class="st0" d="M661.55,846.18c12.34-5.66,24.87-11.38,38.27-13.52"/>
<path class="st0" d="M672.34,845.36c8.43-2.94,16.85-5.87,25.28-8.81"/>
<path class="st0" d="M697.73,845.54c-4.16,11.45-8.89,22.7-14.17,33.68"/>
<path class="st0" d="M634.43,848.66c6.74,10.33,12.96,20.99,18.65,31.93"/>
<path class="st0" d="M620.55,853.77c6.8,9.52,14.03,18.73,21.67,27.59"/>
<path class="st0" d="M636.9,854.81c-4.29,3.08-7.31,7.87-8.24,13.06"/>
<path class="st0" d="M640.79,862.47c-3.45,2.1-5.62,6.14-5.48,10.18"/>
<path class="st0" d="M647.15,869.21c-3.56,1.23-6.26,4.61-6.69,8.35"/>
<path class="st0" d="M649.9,875.7c-2.56,2.04-4.55,4.78-5.72,7.84"/>
<path class="st0" d="M507.1,888.96c0.96,14.73,2.65,29.42,5.05,43.99"/>
<path class="st0" d="M518.19,889.24c3.65,14.12,7.31,28.24,10.96,42.36"/>
<path class="st0" d="M508.72,890.86c3.08,0.27,6.16,0.54,9.24,0.82"/>
<path class="st0" d="M509.33,896.38c3.89,1.42,8.48,0.73,11.78-1.77"/>
<path class="st0" d="M510.9,901.46c2.72,0.27,5.43,0.54,8.15,0.82"/>
<path class="st0" d="M533.82,879.87c1.06-0.71,2.5,0.61,2.46,1.89s-0.92,2.34-1.62,3.41c-1.39,2.13-2.18,4.65-2.25,7.2"/>
<path class="st0" d="M531.27,873.62c0.5-1.04-0.14-2.35-1.11-2.98s-2.17-0.77-3.32-0.88c-2.96-0.3-6.1-0.57-7.98,1.01
	c-4.1,2.57-7.27,6.34-10.36,10.06c-1.31,1.57-2.63,3.15-3.94,4.72"/>
<path class="st0" d="M517.91,869.72c-0.86-0.94-1.75-1.92-2.94-2.39c-1.87-0.75-3.97-0.11-5.88,0.53c-1.72,0.58-3.5,1.2-4.76,2.5
	c-0.65,0.67-1.13,1.49-1.48,2.36c-1.82,4.57,0.68,10.38,5.25,12.2"/>
<path class="st0" d="M504.4,878.66c-1.55-0.74-3.35-1.48-4.92-0.78c-0.75,0.33-1.33,0.95-1.82,1.61c-1.48,1.97-2.35,4.47-2.07,6.92
	c0.32,2.74,1.99,5.11,3.6,7.35c0.42,0.59,0.87,1.19,1.49,1.56c0.97,0.59,2.2,0.5,3.29,0.82c1.12,0.33,2.07,1.07,3.15,1.49
	c1.96,0.76,4.16,0.38,6.23,0"/>
<path class="st0" d="M521.65,888.73c3.4-2.54,6.46-5.54,9.07-8.9"/>
<path class="st0" d="M513.65,870.02c4.72,8.02,14.66,12.6,23.82,10.96"/>
<path class="st0" d="M528.51,865.19c2.21,4.45,5.47,8.38,9.43,11.38c0.8,0.6,1.64,1.19,2.19,2.02c0.55,0.83,0.73,2,0.15,2.81
	c-0.31,0.43-0.79,0.7-1.26,0.95c-3.11,1.66-6.48,3.08-8.83,5.7"/>
<path class="st0" d="M533.11,883.57c-1.58,4.4-3.2,8.85-5.85,12.7s-6.49,7.1-11.07,8.03"/>
<path class="st0" d="M524.37,868.55c2.07-2.54,0.7-6.7-2.08-8.44c-2.78-1.74-6.35-1.59-9.53-0.81c-6.64,1.63-12.54,5.73-16.95,10.97
	c-4.2,5-7.19,11.45-6.41,17.93c0.74,6.17,4.98,11.69,10.53,14.5c5.55,2.81,12.24,3.02,18.15,1.09"/>
<path class="st0" d="M496.26,868.51c-0.11-6.98,6.14-13.42,13.12-13.54c2.09-0.03,4.15,0.42,6.15,1.01c3.69,1.09,7.26,2.66,10.4,4.9
	c5.64,4.02,9.94,10.18,16.5,12.39"/>
<path class="st0" d="M529.66,861.92c-0.09-1.74,0.37-3.51,1.3-4.99c1.58,0.1,3.13,0.56,4.51,1.34c0.21-2.32,0.21-4.65,0-6.97"/>
<path class="st0" d="M537.61,814.36c-3.01-0.01-5.64,2.28-6.95,4.99c-1.31,2.71-1.56,5.79-1.79,8.79
	c-0.26,3.42-0.52,6.84-0.78,10.27c-0.34,4.51-0.39,9.77,3.1,12.64c1.18,0.98,2.66,1.55,4.16,1.89c8.05,1.83,16.43-2.87,21.5-9.39
	c2.64-3.39,4.64-7.37,5.25-11.62c0.61-4.26-0.28-8.81-2.9-12.22C555.72,815.17,549.24,813.19,537.61,814.36z"/>
<path class="st0" d="M522.71,828.13c4.59,3.74,11.31,2.98,16.99,1.34c4.85-1.4,9.55-3.3,14.01-5.65c3.74-1.98,7.53-4.52,9.16-8.42"
	/>
<path class="st0" d="M524.99,840.42c4.4-0.58,8.85-0.82,13.29-0.72c3.18,0.07,6.79,0.55,8.65,3.14l7.2,23.11"/>
<path class="st0" d="M552.07,853.9c-0.85,5.67-1.7,11.43-1.02,17.12c0.5,4.24,1.85,8.36,2.6,10.55c-1.75,5.29-5.78,9.79-10.84,12.11
	"/>
<path class="st0" d="M557.44,884.18c-2.57-2.18-6.58-2.46-9.44-0.66c-1.29,0.81-2.39,2.49-1.59,3.78c0.68,1.08,2.2,1.13,3.47,1.04
	c1.2-0.08,2.43-0.18,3.54-0.66c1.6-0.68,2.77-2.06,4.19-3.06c2.93-2.06,6.71-2.39,10.28-2.64"/>
<path class="st0" d="M503.98,912.11c14.88-7.48,31.86-10.73,48.44-9.25"/>
<path class="st0" d="M541.93,888.09c-3.4,2.56-6.81,5.12-10.21,7.69c-0.65,0.49-1.31,1-1.68,1.72c-0.82,1.59,0.09,3.49,0.91,5.08
	c2.53,4.89,4.39,10.13,5.5,15.53c0.14,0.67,0.42,1.5,1.1,1.58c0.72,0.08,1.18-0.73,1.45-1.4c1.47-3.57,3.71-6.81,6.52-9.45"/>
<path class="st0" d="M537.76,892.42c2.62,2.05,5.92,3.07,8.55,5.1c1.66,1.28,3,2.91,4.32,4.52c2.02,2.46,4.03,4.92,6.05,7.38"/>
<path class="st0" d="M555.47,904.95c7.93-0.3,15.85-0.59,23.78-0.89c1.4-0.05,2.84-0.12,4.09-0.75"/>
<path class="st0" d="M666.05,852.65c-15.03,1.08-30.53,2.28-43.91,9.21c-10.04,5.2-18.32,13.39-24.78,22.67
	c-4.96,7.11-9.23,15.2-17.85,19.62c-3.81,3.52-7.74,6.9-11.79,10.14c0.36,1.39,1.99,2.1,3.42,1.98s2.72-0.83,4.04-1.4
	c3.31-1.42,6.95-1.94,10.3-3.27c2.2-0.88,4.25-2.1,6.29-3.31c4.87-2.9,9.74-5.81,14.61-8.71"/>
<path class="st0" d="M600.34,886.78c1.23,1.79,3.03,3.18,5.06,3.93c1.04,0.38,2.32,0.75,2.64,1.82c0.37,1.19-0.74,2.29-1.75,3.03
	c-5.93,4.35-12.48,7.86-19.38,10.4"/>
<path class="st0" d="M608.23,887.7c3.86-1.88,7.72-3.76,11.59-5.64c2.09-1.02,4.7-2,6.59-0.65c0.8,0.57,1.3,1.46,1.73,2.35
	c1.38,2.8,2.41,5.77,3.06,8.82c0.45,2.13,0.81,4.47,2.43,5.92"/>
<path class="st0" d="M632.11,871.31c-2.39,1.29-4.56,2.97-6.4,4.97c-0.42,0.46-0.85,1.02-0.75,1.64c0.11,0.65,0.77,1.04,1.4,1.25
	c1.57,0.53,3.27,0.45,4.92,0.62s3.4,0.68,4.38,2.02c0.75,1.03,0.91,2.38,1.62,3.44c1.44,2.17,4.49,2.4,7.09,2.4"/>
<path class="st0" d="M636.27,897.54c-13.08-1.93-26.21,2.13-38.81,6.14"/>
<path class="st0" d="M614.97,900.2c-1.04,4.12-1.62,8.35-1.71,12.6c2.55,1.1,5.48,1.27,8.14,0.48"/>
<path class="st0" d="M566.85,872.39c7.2,2.68,13.22,7.74,19.08,12.7c14.8,12.52,29.6,25.05,44.03,37.99"/>
<path class="st0" d="M574.83,910.63c5.46,5.98,8.94,13.73,9.78,21.78c-0.41-8.65,3.2-17.56,0.48-25.78"/>
<path class="st0" d="M540.54,929.65c11.89-5.62,24.34-10.05,37.1-13.2"/>
<path class="st0" d="M545.33,916.69c9.27-2.8,18.46-5.88,27.54-9.25"/>
<path class="st0" d="M531.59,934c-4.06,0.12-8.09-1.69-12.08-0.94c-1.15,0.22-2.26,0.64-3.33,1.12
	c-9.64,4.3-16.97,13.47-16.07,22.01c-0.21,3.8,0.03,7.62,0.72,11.37c0.2,1.1,0.46,2.23,1.11,3.15s1.8,1.56,2.89,1.3"/>
<path class="st0" d="M502.88,954.89c0.51,9.57,7.46,18.47,16.63,21.28"/>
<path class="st0" d="M532.57,945.78c-0.73-2.94-2.39-5.64-4.69-7.62c-2.31,0.22-4.29,1.89-5.44,3.91c-1.15,2.02-1.58,4.36-1.91,6.66
	c-0.89,6.23-1.11,12.56-0.65,18.84c0.07,0.98,0.16,1.98,0.54,2.88c1.3,3.14,5.25,4.01,8.62,4.45"/>
<path class="st0" d="M508.1,945.07c8.49-4.32,17.14-8.35,25.91-12.08"/>
<path class="st0" d="M528.86,935.35c7.16-3.87,14.44-7.51,21.83-10.92"/>
<path class="st0" d="M420.79,975.37c37.16-13.37,75.19-24.33,113.77-32.79"/>
<path class="st0" d="M403.46,971.42c35-19.21,72.18-34.46,110.6-45.35"/>
<path class="st0" d="M372.11,969.41c14.81-7.91,31.57-11.16,47.86-15.23c27.84-6.95,55.01-16.54,81.04-28.6"/>
<path class="st0" d="M400.89,860.95c2.51,8.53,6.08,16.73,10.11,24.66c4.48,8.82,9.54,17.35,15.13,25.52"/>
<path class="st0" d="M406.73,866.24c10.92,12.23,19.74,26.34,25.93,41.52c1.55,3.79,2.94,7.67,5.05,11.18
	c1.86,3.1,4.24,5.85,6.53,8.64c10.48,12.76,19.47,26.76,26.72,41.6"/>
<path class="st0" d="M415.95,871.9c15.3,18.71,29,38.72,40.89,59.76c1.12,1.99,2.24,4,3.73,5.73c1.17,1.37,2.56,2.54,3.95,3.68
	c5.02,4.13,10.38,8.05,16.54,10.12s13.3,2.09,18.83-1.33"/>
<path class="st0" d="M429.85,905.61c-3.21,14.12-1.33,29.34,5.22,42.25"/>
<path class="st0" d="M429.98,916.25c-1.51-0.89-3.01-1.78-4.52-2.67c-0.42-0.25-0.87-0.5-1.36-0.48c-0.77,0.03-1.33,0.74-1.67,1.44
	c-1.12,2.32-0.86,5.25,0.66,7.34c0.73,1.01,1.73,1.83,2.32,2.92c0.87,1.63,0.7,3.6,0.31,5.41c-0.39,1.8-0.99,3.59-0.91,5.44
	s1.03,3.81,2.78,4.39c0.51,0.17,1.08,0.2,1.56-0.01c0.47-0.21,0.82-0.62,1.12-1.03c1.54-2.12,2.4-4.73,2.4-7.34"/>
<path class="st0" d="M398.25,941.27c9.38-5,19.03-9.5,28.96-13.27c9.86-3.75,19.98-6.77,29.95-10.23
	c19.33-6.69,38.3-15.04,58.53-18.15"/>
<path class="st0" d="M465.74,908.4c0.63-2.6,1.28-5.23,2.47-7.63c1.2-2.4,3.01-4.58,5.44-5.71c1.72,4.75,1.36,10,0.41,14.96
	c-0.95,4.96-2.46,9.82-2.99,14.85"/>
<path class="st0" d="M487.82,894.42c-2.29,10.78-2.81,21.94-1.53,32.89c0.09,0.74,0.19,1.5,0.62,2.11s1.27,0.99,1.93,0.64"/>
<path class="st0" d="M498.27,923.42c-0.39,0.04-0.78,0.08-1.17,0.12c-2.78-6.88-2.71-14.86,3.54-20.09c0.85,4.02,1.52,8.08,2,12.16
	C502.82,917.21,502.93,919.01,498.27,923.42z"/>
<path class="st0" d="M468.43,932.6c4.79,0.94,9.79-0.09,14.31-1.94c4.52-1.85,8.65-4.51,12.85-7"/>
<path class="st0" d="M452.64,924.93c12.21,0.63,23.9,5.7,36.12,5.95"/>
<path class="st0" d="M446.61,903.19c20.3-6.79,40.83-12.88,61.55-18.26"/>
<path class="st0" d="M458.39,897.46c11.63-9.12,27.12-12.42,38.27-22.11"/>
<path class="st0" d="M431.81,801.27c-3.43,1.72-6.77,3.63-9.98,5.72c-1.91,1.25-4.02,3.05-3.71,5.31c0.24,1.77,1.98,3.02,3.74,3.33
	c1.76,0.31,3.55-0.12,5.3-0.47c7.98-1.6,16.24-1.8,24.28-0.58c1.94,0.29,3.93,0.7,5.52,1.86c1.28,0.93,2.18,2.28,3.32,3.39
	c1.55,1.52,3.5,2.56,5.23,3.87c5.09,3.82,8.23,9.87,9.39,16.14s0.48,12.75-0.96,18.95c-4.16,17.85-14.88,34.1-29.66,44.95"/>
<path class="st0" d="M395.38,839.15c39.57-9.51,78.79-20.5,117.54-32.94"/>
<path class="st0" d="M397.09,852.25c7.95-3.08,15.96-6,24.02-8.77c37.11-12.75,75.25-22.2,113.34-31.64"/>
<path class="st0" d="M418,845.76c32.11-5.62,63.74-13.99,94.43-25"/>
<path class="st0" d="M427.31,845.28c3.34,3.15,6.79,6.46,8.42,10.75c1.84-5.28,4.47-10.28,7.77-14.8c0.65,2.61,1.47,5.18,2.46,7.68
	c0.4,1,1.07,2.16,2.15,2.12c0.94-0.04,1.55-0.99,1.98-1.83c2.11-4.1,4.23-8.21,6.34-12.31c0.43,3.81,1.33,7.58,2.66,11.18
	c0.3,0.82,0.89,1.79,1.75,1.64c0.47-0.08,0.8-0.48,1.09-0.86c3.72-4.81,7.44-9.62,11.16-14.42"/>
<path class="st0" d="M482.54,832.8c0.72,1.49,1.45,2.98,2.17,4.48c1.03-2.65,2.68-5.05,4.79-6.95c0.32-0.29,0.7-0.59,1.13-0.59
	c1.22-0.02,1.3,1.82,2.09,2.76c0.69,0.82,2,0.84,2.95,0.35c0.95-0.49,1.63-1.37,2.27-2.23c2.18-2.89,4.36-5.78,6.54-8.67"/>
<path class="st0" d="M418.69,827.66c3.17,0.16,6.6,0.43,9,2.51c1.14,0.99,1.93,2.3,2.91,3.44c3.41,3.97,8.74,5.6,13.77,7.04"/>
<path class="st0" d="M429.61,826.57c4.13,0.53,7.53,3.34,11.17,5.37c7.13,3.98,15.73,5.14,22.26,10.03"/>
<path class="st0" d="M421.66,812.3c3.16,2.21,6.36,4.44,9.98,5.75c1.73,0.63,3.54,1.04,5.2,1.82c2.31,1.08,4.24,2.83,6.49,4.03
	c2.48,1.32,5.27,1.92,8.01,2.51c-2.84-3.32-6.34-6.07-10.24-8.05"/>
<path class="st0" d="M429.92,817.42c-7.9,2.42-15.69,5.53-22.4,10.34c-6.72,4.81-12.33,11.46-14.78,19.35"/>
<path class="st0" d="M395.95,839.98c11.25,4.38,23.22,8.84,35.1,6.71"/>
<path class="st0" d="M393.17,851.97c24.56,9.61,53.15,8.39,76.8-3.28"/>
<path class="st0" d="M385.07,829.24c-3.09,4.58-4.87,10.03-5.1,15.55c-0.08,1.87,0.11,3.94,1.46,5.23c0.89,0.84,2.13,1.19,3.32,1.48
	c3.73,0.9,7.54,1.52,11.36,1.84"/>
<path class="st0" d="M408.31,846.22c-3.43,0.27-6.88,0.26-10.31-0.03c-1.45-0.12-2.91-0.3-4.25-0.85c-3.61-1.48-5.73-5.51-5.75-9.4
	c-0.03-3.9,1.73-7.62,4.04-10.75c2.31-3.14,5.19-5.81,10.79-8.08c-6,4.69-10.03,11.84-10.94,19.41c-0.22,1.8-0.25,3.69,0.49,5.35
	C393.71,844.82,397.07,846.2,408.31,846.22z"/>
<path class="st0" d="M387.48,827.19c-3.42,6.8-3.94,14.99-1.4,22.16c0.89,2.51,2.27,5.04,4.61,6.32c2.76,1.52,6.15,0.96,9,3.58
	c5.56,4.74,13.92,3.19,21,1.36c18.51-4.77,37.01-9.6,55.5-14.48l49.17-22.65"/>
<path class="st0" d="M506.65,824.32c16.13-6.65,32.66-12.35,49.46-17.05"/>
<path class="st0" d="M527.19,808.44c-1.99,0.89-3.98,1.79-5.97,2.68c6.27-0.67,11.74-4.34,17.32-7.28
	c9.26-4.9,19.34-7.99,29.38-10.97c62.83-18.66,126.62-34.1,191.03-46.25"/>
<path class="st0" d="M508.14,806.45c81.4-10.08,161.83-28.03,239.8-53.52"/>
<path class="st0" d="M624.11,705.1c43.97-21.83,100.22-16.2,138.99,13.93"/>
<path class="st0" d="M632.21,722.4c44.06-3.93,89.45,9.84,123.91,37.58"/>
<path class="st0" d="M642.5,742.75c21.45-2.85,43.36,1.45,63.59,9.12s39.04,18.6,57.72,29.5"/>
<path class="st0" d="M615.55,767.03c23.25-7.98,45.45-19.03,65.83-32.78"/>
<path class="st0" d="M619.73,784.12c16.85-11.29,33.45-23.35,46.74-38.67c13.29-15.32,23.16-34.3,24.47-54.54"/>
<path class="st0" d="M559.35,840.04c42.38-33.09,85.25-66.67,117.91-109.37c9.13-11.94,17.62-25.03,20.1-39.86"/>
<path class="st0" d="M598.12,834.1c-4.66-5.83-11.93-9.3-19.35-10.07c-7.43-0.78-14.98,0.98-21.72,4.19
	c-1.75,0.83-3.49,1.79-4.76,3.25c-1.32,1.52-2.04,3.46-2.6,5.39c-2.28,7.9-2.13,17.01,2.7,23.66c6.06,8.36,19.25,10.36,27.52,4.18"
	/>
<path class="st0" d="M553.46,844.92c-2.63,0.46-5.2,1.26-7.63,2.38c1.64,6.41,6.27,11.88,12.06,15.09s12.66,4.23,19.23,3.47
	c2.42-0.28,4.91-0.83,6.83-2.33s3.12-4.15,2.29-6.44c-0.54-1.5-1.82-2.59-3.08-3.55c-5.27-4-11.6-7-18.21-6.9
	C558.34,846.72,551.53,850.49,553.46,844.92z"/>
<path class="st0" d="M605.04,829.6c-11.13-11.32-29.8-14.35-43.94-7.12c-1.03,0.53-2.11,1.12-3.27,1.04
	c-1.16-0.08-2.32-1.17-1.98-2.28c0.17-0.57,0.67-0.96,1.13-1.32c2.9-2.23,5.79-4.46,8.69-6.68"/>
<path class="st0" d="M555.6,806.06c2.84,2.55,5.94,5.23,9.74,5.63c3.6,0.38,7.17-1.38,10.78-1.03"/>
<path class="st0" d="M585.02,807.81c1.73,2.85,3.46,5.71,5.2,8.56c0.33,0.55,0.68,1.11,1.17,1.52c1.12,0.93,2.73,0.9,4.17,0.7"/>
<path class="st0" d="M577.39,814.47c-4.7,0.21-9.72,0.54-13.44,3.42c-1.16,0.9-2.21,2.43-1.54,3.73c0.61,1.18,2.2,1.34,3.52,1.35
	c13,0.01,26.17-1.19,38.88,1.52"/>
<path class="st0" d="M583.86,858.67c1.06-6.04-1.52-12.31-1.13-18.24c1.04,1.97,2.59,3.68,4.46,4.9c0.7-1.44,1.53-2.82,2.49-4.1
	c0.47,3.27,1.64,6.44,3.42,9.22c0.48,0.75,1.03,1.5,1.82,1.92c0.51,0.27,1.08,0.38,1.65,0.47c2.04,0.32,4.12,0.44,6.18,0.34"/>
<path class="st0" d="M598.63,833.13c-0.55,0.06-1.09,0.13-1.64,0.19c0.5,0.98,1.73,1.24,2.75,1.65c3.4,1.38,5.12,5.87,3.51,9.17
	c-1.29,2.63-4.14,4.16-5.71,6.64"/>
<path class="st0" d="M579.75,857.81c-3.56,0.51-6.81-2.17-10.39-2.54c-3.54-0.37-6.97,1.53-10.53,1.54c-3.36,0-6.67-1.83-8.45-4.68"
	/>
<path class="st0" d="M570.42,861.49c-5.71,0.85-11.74-0.67-16.38-4.11c-0.96-0.71-1.9-1.56-2.32-2.68c-0.29-0.78-0.3-1.63-0.3-2.46
	c-0.01-3.29,0.08-6.58,1.98-10.01c-0.91-0.68-1.83-1.36-2.74-2.04c8.72,8.2,20.24,13.37,32.17,14.43"/>
<path class="st0" d="M596.68,852.43c3.02,1.63,6.34,3.32,9.71,2.7c2.14-0.39,4-1.68,5.78-2.93c1.73-1.21,3.46-2.43,5.19-3.64
	c0.94-0.66,1.94-1.4,2.32-2.49c0.36-1.02,0.1-2.14-0.15-3.2c-1.34-5.83-2-11.82-2.56-17.35c-2.85,4.58-3.16,10.24-3.4,15.63
	c-0.14,3.15-0.27,6.32-0.07,9.47c0.16,2.41,0.39,5.17-1.32,6.87"/>
<path class="st0" d="M611.9,854.68c-1.42-1.69-2.55-3.63-3.32-5.7C608.99,849.17,609.4,849.35,611.9,854.68z"/>
<path class="st0" d="M627.51,814.06c-2.07,5.44-6.24,9.78-10.54,13.7c-4.3,3.92-8.88,7.65-11.78,14.88
	c2.84,6.16,2.67,13.62-0.45,19.64"/>
<path class="st0" d="M549.55,866.37c0.92,2.16,3.24,3.33,5.46,4.11c2.22,0.78,4.61,1.4,6.27,3.06"/>
<path class="st0" d="M554.95,865.34c2.13,1.21,4.25,2.43,6.38,3.64"/>
<path class="st0" d="M552,611.71c-2.19,5.7-4.1,11.5-5.28,17.21c2.85,2.97,5.88,5.76,8.91,8.54c3.46,3.18,6.92,6.35,10.38,9.53
	c3.11,2.86,6.23,5.72,9.58,8.3c9.67,7.45,21.23,12.43,33.29,14.34"/>
<path class="st0" d="M639.37,824.2c-1.73,0.22-3.57,0.42-5.16-0.31c-1.59-0.73-2.71-2.76-1.83-4.28c0.66-1.14,2.11-1.52,3.4-1.79
	c1.3-0.27,2.74-0.52,3.87,0.17c1,0.61,1.49,1.81,2.4,2.56c1.38,1.13,3.68,1.19,4.43,2.8c0.56,1.22-0.13,2.65-0.99,3.67
	c-2.42,2.89-6.29,4.43-10.05,4.23c-3.76-0.2-7.36-2.05-9.9-4.84c-1.74-1.91-3.03-4.34-3.12-6.92c-0.09-2.58,1.2-5.29,3.52-6.44"/>
<path class="st0" d="M643.21,831.1c-2,6-2.47,12.5-1.37,18.73"/>
<path class="st0" d="M633.47,831.94c-1.14,4.41-2.58,8.74-4.32,12.96"/>
<path class="st0" d="M632.97,836.66c3.6,3.85,7.2,7.7,9.99,10.4c0.41,6.9,0.92,14.1,4.48,20.02"/>
<path class="st0" d="M577.8,782.79c4.56,10.49,15.69,16.72,21.37,26.65c1.61,2.82,2.76,5.9,4.62,8.55c1.32,1.89,2.97,3.52,4.68,5.07
	c7.73,6.99,16.79,12.36,26.18,16.88"/>
<path class="st0" d="M509.77,719.93c2.46-10.01,5.39-19.91,7.97-27.75C512.97,707.09,509.18,722.34,509.77,719.93z"/>
<path class="st0" d="M549.93,691.71c-0.66,21.43-5.18,42.74-13.29,62.59"/>
<path class="st0" d="M508.57,725.07c4.36,3.23,8.55,6.8,11.74,11.19c3.19,4.39,5.35,9.68,5.27,15.11"/>
<path class="st0" d="M510.32,728.44c-2.2,0.31-3.29,3.14-2.52,5.23c0.76,2.08,2.75,3.45,4.74,4.42c2,0.97,4.15,1.7,5.85,3.12
	c2.38,1.99,3.56,5.13,3.82,8.23c0.26,3.09-0.3,6.19-0.85,9.25"/>
<path class="st0" d="M506.17,733.02c2.71,7.01,5.42,14.03,8.14,21.04"/>
<path class="st0" d="M501.83,739.89c1.72,7.01,4.32,13.8,7.74,20.15"/>
<path class="st0" d="M467.54,676.86c-6.69,11.58-11.63,24.18-12.52,34.8c-5.63,3.47-10.6,8.02-14.55,13.32"/>
<path class="st0" d="M516.84,587.96c-8.8-0.46-18.91,1.96-28.33,4.73c-24.91,7.32-48.71,17.54-69.1,29.67
	c-5.1,3.04-10.5,6.91-9.78,10.25c0.88,4.11,10.1,4.33,17.84,3.46c32.59-3.65,66.93-15.99,91.18-32.76c3.89-2.69,7.73-5.75,8.37-8.75
	S523.98,588.33,516.84,587.96z"/>
<path class="st0" d="M443.67,619.79c3.1,0.72,6.31-0.22,9.36-1.14c12.63-3.84,25.47-7.77,36.44-15.12c2.23-1.49,4.5-3.3,5.23-5.88"
	/>
<path class="st0" d="M439.13,615.43c-7.5,2.2-14.69,5.49-23.83,11.77c6.78-3.79,14.05-6.68,21.58-8.57
	c-9.17,2.86-17.65,7.88-24.57,14.54c10.06-5.36,20.13-10.72,30.19-16.09c-4.85,5.47-9.69,10.94-14.54,16.42
	c4.99-5.48,11.13-9.92,17.9-12.93c-3.06,4.26-6.12,8.52-9.17,12.79c4.58-6.27,10.4-11.61,17.04-15.64
	c-1.16,5.13-3.95,9.87-7.85,13.4c3.91-6.11,9.51-11.13,16-14.36c-2.78,4.18-5.56,8.36-8.34,12.54c4.1-5.4,8.75-10.38,13.84-14.85
	c-0.91,4.34-2.84,8.47-5.61,11.94c2.54-5.62,6.4-10.64,11.19-14.53c-0.06,4-1.63,7.97-4.32,10.93c3.31-5.71,7.92-10.66,13.39-14.36
	c-1.15,5.42-3.45,10.6-6.7,15.09c3.23-6.93,7.63-13.32,12.96-18.81c-0.48,5.87-3.21,11.29-5.9,16.53
	c4.16-7.56,8.68-14.92,13.56-22.04c-2.29,6.64-4.59,13.32-5.84,20.23c2.94-9.43,7.52-18.35,13.46-26.24
	c-1.58,5.61-3.15,11.23-4.73,16.84c4.07-6.34,8.13-12.69,12.2-19.03c-1.98,5.93-3.96,11.86-5.94,17.8c3-6.15,6.94-11.85,11.63-16.84
	c-1.78,4.66-3.55,9.33-5.33,13.99c4.08-4.51,8.16-9.03,12.24-13.54c0.2,1.16,0.39,2.33,0.59,3.49"/>
<path class="st0" d="M472.96,642.57c-0.31,2.32-1,4.59-2.02,6.69c1.29,0.79,2.51,1.68,3.65,2.67"/>
<path class="st0" d="M454.91,634.3c1.75,6.55-0.54,13.83,1.92,20.15c0.49,1.26,1.17,2.45,1.95,3.56c4.62,6.55,13.31,9.93,21.14,8.23
	"/>
<path class="st0" d="M472.57,659.07c2.16-0.16,4.31-0.54,6.39-1.15"/>
<path class="st0" d="M499.34,614.71c-3.77,9.87-1.44,22.08,6.49,29.06c7.93,6.98,21.18,7.44,28.9,0.22
	c3.3-3.08,5.46-7.23,6.77-11.55c1.39-4.59,1.87-9.63,0.2-14.13c-2.61-7.04-9.82-11.28-16.93-13.65"/>
<path class="st0" d="M494.49,617.81c0.51,7.81-1.9,16.17,1.55,23.19c2.12,4.3,6.23,7.4,10.73,9.07c4.5,1.67,9.37,2.04,14.17,1.98
	c2.1-0.03,4.25-0.14,6.21-0.9c4.97-1.92,7.48-7.32,11.11-11.21"/>
<path class="st0" d="M498.64,622.9c3.88-4.98,8.12-9.69,12.68-14.05c-4.14,8.26-8.34,16.72-9.56,25.89
	c6.06-8.4,12.13-16.8,18.19-25.2c-4.7,9.05-9.43,18.18-12.22,27.99c5.84-10.14,11.84-20.47,20.58-28.26
	c-4.36,8.17-8.55,16.44-12.57,24.78c-1.57,3.26-3.15,6.74-2.81,10.34c4.92-7.9,9.83-15.81,14.75-23.71c1.46-2.34,3.29-4.93,6.04-5.2
	c-5.98,9.32-10.46,19.6-13.23,30.32c3.6-3.52,5.78-8.2,8.36-12.52c2.58-4.32,5.9-8.58,10.64-10.3c-2.08,6.23-3.63,12.64-4.62,19.13
	c0.86,0.3,1.88,0.07,2.53-0.56"/>
<path class="st0" d="M437.71,636.1c-1.64-0.29-2.7,1.64-3.21,3.22c-1.68,5.17-3.35,10.87-1.27,15.89c1.76,4.24,5.95,7.09,10.36,8.36
	c6.12,1.77,13.55,0.5,17.37-4.61"/>
<path class="st0" d="M437.12,644.34c0.71-3.86,3.24-7.34,6.69-9.21c-2.61,5.63-5.23,11.25-7.84,16.88
	c3.18-4.97,6.37-9.96,10.18-14.47c0.89-1.05,1.99-2.16,3.37-2.14c-3.14,7.65-8.62,14.64-9.07,22.89c3.04-6,6.24-12.18,11.5-16.37
	c-1.79,5.72-5.66,10.77-6.55,16.7c2.13-2.91,4.25-5.83,6.38-8.74c0.34-0.47,0.94-0.99,1.42-0.66c-1.49,3.08-2.69,6.3-3.59,9.6
	c1.21,0.06,2.43-0.61,3.04-1.66"/>
<path class="st0" d="M462.01,640.9c0.99,2.17,1.33,4.64,0.98,7"/>
<path class="st0" d="M494.89,651.81c-4.14,1.94-8.08,4.28-11.76,6.99c-0.5,0.37-1.01,0.76-1.3,1.31c-0.24,0.46-0.31,0.98-0.35,1.49
	c-0.42,4.79,0.6,9.83-1.17,14.31"/>
<path class="st0" d="M489.79,627.57c0.31-1.34,0.62-2.69,0.93-4.03c-2.28,4.89-2.18,10.58-1.23,15.9c0.81,4.56,2.31,9.22,5.62,12.47
	c1.55,1.53,3.43,2.68,5.38,3.66c8.6,4.35,19.26,5.46,27.82,1.03"/>
<path class="st0" d="M480.82,637.92c0.22-0.26,0.58,0.1,0.72,0.43c0.84,2.01,1.04,4.33,0.57,6.48"/>
<path class="st0" d="M645.82,820.01c-0.72-1.23-1.43-2.46-2.15-3.69"/>
<path class="st0" d="M464.1,673.15c3.62,1.41,7.62,1.83,11.46,1.22c-1.8-1.08-3.29-2.67-4.25-4.55c3.82,2.69,8.35,4.36,13,4.79"/>
<path class="st0" d="M483.08,668.67c1.93-4.48,4.66-8.6,8.03-12.12"/>
<path class="st0" d="M486.35,666.36c0.33-2.09,1.67-4,3.52-5.03c-1.23,2.51-1.72,5.37-1.39,8.14c1.58-1.4,3.17-2.81,4.75-4.21
	c0.05,1.4-0.12,2.81-0.49,4.16c4.32-5.2,9.04-10.06,14.12-14.52"/>
<path class="st0" d="M493.64,672.05c0.38,4.57,3.13,8.55,5.83,12.26c1.78,2.45,3.61,4.91,5.95,6.83c3.81,3.13,8.71,4.61,12.77,7.39"
	/>
<path class="st0" d="M503.96,670.53c-0.03,0.51,0.5,0.91,1.01,0.94s0.99-0.21,1.44-0.44c9.96-5.16,19-12.2,29.56-16"/>
<path class="st0" d="M501.03,678.35c3.09,0.5,6.18-0.57,9.14-1.59c8.2-2.83,16.49-5.43,24.83-7.81"/>
<path class="st0" d="M545,654.4c-2.53-0.72-5.12,0.89-7.07,2.67c-8.91,8.15-12.88,21.23-23.2,27.5"/>
<path class="st0" d="M552.39,659.26c-1.44-0.89-3.33-0.78-4.88-0.11s-2.84,1.82-4.08,2.98c-3.58,3.34-6.99,6.86-10.21,10.54
	c-5.38,6.15-10.55,12.99-18.04,16.26"/>
<path class="st0" d="M554.64,667.85c-1.17-0.83-2.81-0.74-4.11-0.13s-2.35,1.63-3.38,2.64c-8.3,8.2-17.05,16.51-28.01,20.51"/>
<path class="st0" d="M521.78,694.94c1.16-3.76,4.87-6.05,8.34-7.92c11.94-6.45,24.5-12.03,37.8-14.68"/>
<path class="st0" d="M531.53,704.28c3.88-4.01,7.8-8.03,12.38-11.21c7.38-5.13,16.11-7.86,24.69-10.52"/>
<path class="st0" d="M526.8,691.1c-8.2,12.6-15.2,25.98-20.88,39.9"/>
<path class="st0" d="M555.67,685.48c2.97,1.1,6.28,2.58,7.27,5.58c0.56,1.71,0.23,3.57-0.17,5.32
	c-4.62,20.04-18.02,36.7-27.72,54.83"/>
<path class="st0" d="M481.85,678.37c-1.6,2.89-2.68,6.03-3.76,9.15c-3.1,9.02-6.2,18.03-9.3,27.05"/>
<path class="st0" d="M492.91,683.89c-2.42,17.6-14.8,33-15.42,50.75"/>
<path class="st0" d="M475.73,715.75c-1.47,8.68-2.72,17.4-3.76,26.14"/>
<path class="st0" d="M520.76,653.64c1.82,12.34-2.5,24.73-7.56,36.13c-5.07,11.4-11.03,22.68-12.8,35.03"/>
<path class="st0" d="M487.6,723.88c-3.52,15.1-16.85,26.49-31.54,31.44c-0.71,0.24-1.45,0.49-1.95,1.05
	c-0.53,0.6-0.67,1.45-0.79,2.24c-1.12,7.45-2.81,14.82-5.04,22.02"/>
<path class="st0" d="M458.78,785.41c-0.91-5.34,1.58-10.62,4.17-15.37c1.32-2.43,2.92-5.03,5.55-5.89c2.9-0.94,6.37,0.5,8.96-1.1
	c1.13-0.7,2.27-1.98,3.5-1.47c0.55,0.23,0.9,0.77,1.41,1.08c1.13,0.69,2.59,0.06,3.71-0.65c2.92-1.85,5.53-4.19,7.68-6.9"/>
<path class="st0" d="M473.01,750.27c1.54-1.65,3.14-3.35,5.18-4.31c2.05-0.96,4.68-1.04,6.41,0.42c0.46,0.39,0.85,0.87,1.39,1.11
	c1.35,0.6,2.78-0.52,3.89-1.49c4.54-3.97,10.12-6.74,16.02-7.95"/>
<path class="st0" d="M484.86,741.49c4.53-4.13,9.15-8.17,13.85-12.1c5.02-4.19,10.2-8.33,13.99-13.65"/>
<path class="st0" d="M496.95,739.62c-0.9,15.61,7.85,29.99,16.78,42.82c3.1,4.46,6.48,9.07,11.42,11.34"/>
<path class="st0" d="M487.73,776c3.15-0.8,6.04-2.4,8.88-3.97c9.64-5.34,19.27-10.68,28.26-17.83c3.32-1.34,6.39-3.28,9.03-5.7"/>
<path class="st0" d="M525.01,743.04c-0.62-1.72-1.25-3.44-1.87-5.16c2.44,3.14,6.37,4.63,9.7,6.8c8.86,5.77,13.32,16.17,17.29,25.96
	"/>
<path class="st0" d="M538.1,721.03c0.4,7.1,0.05,14.25-1.06,21.28c-0.86,5.49-2.19,10.92-2.49,16.46
	c-0.3,5.54,0.51,11.35,3.58,15.98"/>
<path class="st0" d="M516.51,740.78c-1.81-2.34,0.23-5.63,2.2-7.85c2.76-3.1,5.52-6.21,8.27-9.31c1.31-1.47,2.63-2.96,4.2-4.15
	c1.86-1.4,4.01-2.36,5.96-3.61c8.39-5.39,12.22-15.55,18.88-22.96"/>
<path class="st0" d="M548.59,732.82c2.35-4.59,5.09-9.54,9.89-11.41c2.1-0.82,4.39-0.95,6.63-1.18c7.3-0.76,14.47-2.7,21.16-5.73"/>
<path class="st0" d="M552.02,719.61c-1.13,15.22-4.86,30.23-10.99,44.21"/>
<path class="st0" d="M550.01,725.97c-1.24,5.18-2.13,10.45-2.67,15.75c-0.21,2.06-0.31,4.34,0.96,5.97
	c0.94,1.22,2.46,1.82,3.78,2.61c3.3,1.95,5.64,5.24,7.13,8.77s2.23,7.32,2.95,11.09"/>
<path class="st0" d="M567.54,711.33c1.99,8.05-0.48,16.45-0.69,24.74c-0.11,4.2,0.36,8.38,0.83,12.55
	c0.93,8.23,1.86,16.47,2.79,24.7"/>
<path class="st0" d="M571.46,716.31c10,20.89,21.22,41.18,33.61,60.75"/>
<path class="st0" d="M561.89,737.21c5.55-10.82,13.02-20.65,21.97-28.89"/>
<path class="st0" d="M584.45,718.32c-7.22,6.1-13.83,12.91-19.71,20.31c-3.03,3.81-5.97,8.03-6.47,12.88"/>
<path class="st0" d="M589.63,722.19c-10.97,9.77-19.6,22.14-24.99,35.8"/>
<path class="st0" d="M586.6,747.88c-6.21,6.19-11,13.8-13.89,22.07"/>
<path class="st0" d="M591.95,718.51c-6.73-8.44-12.16-17.83-17.89-26.98c-10.39-16.59-21.83-32.53-34.56-48.3
	c1.06-1.35,3.19-0.72,4.73,0.03c11.61,5.69,22.82,12.18,33.53,19.42c1.43,0.97,2.91,2.01,3.73,3.53c1.22,2.27,0.71,5.05,0.16,7.58
	c-1.8,8.29-3.6,16.58-5.39,24.87"/>
<path class="st0" d="M550.63,647.13c-0.21,4.69-0.42,9.38-0.63,14.06"/>
<path class="st0" d="M556.01,650.45c-0.63,4.46-1.12,8.94-1.46,13.44"/>
<path class="st0" d="M561.31,653.74c-0.74,5.34-1.13,10.73-1.16,16.12"/>
<path class="st0" d="M565.71,658.11c-0.7,6.67-1.08,13.37-1.13,20.07"/>
<path class="st0" d="M570.36,660.42c-0.56,6.78-1.12,13.56-1.68,20.34"/>
<path class="st0" d="M575.9,664.72c-0.87,7.09-1.73,14.18-2.6,21.26"/>
<path class="st0" d="M471.36,675.54c-1.36,1.19-2.72,2.39-3.77,3.86c-1.04,1.47-1.75,3.25-1.6,5.05"/>
<path class="st0" d="M474.94,678.19c-5.76,4.27-10.18,10.32-12.5,17.1"/>
<path class="st0" d="M477.97,680.61c-7.09,4.6-11.71,12.07-16.1,19.3"/>
<path class="st0" d="M475.11,688.66c-4.61,2.98-8.83,6.54-12.55,10.57c-2.74,2.98-5.25,6.25-8.58,8.55"/>
<path class="st0" d="M470.24,698.03c-0.49,1.58-1,3.2-2.08,4.44c-0.56,0.65-1.26,1.16-1.94,1.67c-2.81,2.09-5.62,4.17-8.43,6.26"/>
<path class="st0" d="M463.61,734.32c-1.99-5.24-5.18-10.34-10.15-12.92c-1.13-0.59-2.33-1.03-3.38-1.75
	c-1.05-0.72-1.93-1.7-3.06-2.3c-1.13-0.6-2.7-0.68-3.54,0.28c-0.4,0.45-0.57,1.06-0.72,1.64c-0.59,2.2-1.13,4.76,0.2,6.61"/>
<path class="st0" d="M445.8,723.52c-0.47-0.88-0.94-1.76-1.41-2.64c-0.08-0.15-0.16-0.3-0.13-0.47c0.03-0.22,0.23-0.36,0.43-0.46
	c1.38-0.67,3.02,0.02,4.39,0.71s2.99,1.41,4.39,0.78"/>
<path class="st0" d="M451.43,720.99c2.12-3.57,5.45-6.41,9.31-7.94c0.9-0.35,1.84-0.65,2.62-1.22c1.11-0.8,1.82-2.1,3.63-0.75
	c3.58,2.42,3.19,8.38,6.77,10.8"/>
<path class="st0" d="M454.27,716.64c1.48-0.54,3.01-0.94,4.56-1.19c0.69-0.11,1.4-0.18,2.07,0.01c1.56,0.45,2.33,2.15,3,3.63
	c1.91,4.24,4.47,8.19,7.57,11.66"/>
<path class="st0" d="M468.59,704.81c-2.2,4.85-5.1,9.38-8.57,13.4c-1.55,1.8-3.28,3.54-5.46,4.49c-2.15,0.94-4.56,1.02-6.89,1.18
	c-10.98,0.75-22.63,3.86-29.58,12.39"/>
<path class="st0" d="M440.5,726.14c-1.9,2.54-3.07,5.62-3.33,8.79c-0.1,1.18-0.13,2.5-0.97,3.33c-0.68,0.68-1.71,0.83-2.67,0.95
	c-4.61,0.57-9.23,1.14-13.84,1.71c-0.41,0.05-0.84,0.11-1.14,0.38c-0.47,0.42-0.45,1.14-0.4,1.76c0.24,2.85,0.48,5.7,0.72,8.54"/>
<path class="st0" d="M473.72,722.09c-5.39,3.5-9.27,8.82-13.82,13.35c-10.33,10.28-24,16.38-37.34,22.26"/>
<path class="st0" d="M425.36,769.71c1.45,13.25,2.44,26.55,2.97,39.87"/>
<path class="st0" d="M430.51,769.3c1.24,6.39,3.21,12.65,5.85,18.6"/>
<path class="st0" d="M436.07,778.42c0.25-1.86,1.03-3.65,2.23-5.09c-0.13,8.76-0.04,17.53-1.52,28.25c-0.29-0.73-0.58-1.46-0.87-2.2
	c-0.36,0.12-0.41,0.6-0.4,0.97c0.09,4.74-0.29,9.49-1.12,14.15"/>
<path class="st0" d="M471.17,790.14c-4.96,1.93-9.67,4.49-13.99,7.6c-1.83,1.32-3.8,3.38-3.04,5.51c0.5,1.4,1.98,2.13,3.24,2.94
	c4.69,3.01,7.27,8.46,11.6,11.97c2.64,2.14,5.83,3.48,9.02,4.65c4.57,1.66,9.3,3.03,14.15,3.33s9.87-0.54,14.05-3.02"/>
<path class="st0" d="M454.12,822.45c14.41-5.13,29.29-8.81,44.14-12.49c6.59-1.63,13.18-3.26,19.84-4.55"/>
<path class="st0" d="M517.78,796.17c-4.18,0.43-8.48,1.44-11.71,4.12c-1.48,1.23-2.68,2.77-3.87,4.29
	c-4.68,6.01-9.36,12.01-14.04,18.02"/>
<path class="st0" d="M510.54,792.82c0.65,4.45,0.82,8.98,0.51,13.47"/>
<path class="st0" d="M525.1,778.13c1.09,15.48,0.49,31.08-1.78,46.43"/>
<path class="st0" d="M529.35,782.84c0.35,9.6-1.04,19.25-4.09,28.36"/>
<path class="st0" d="M548.5,762.19c2.33,3.57,4.04,7.51,6.15,11.21c2.11,3.7,4.72,7.27,8.35,9.51"/>
<path class="st0" d="M542.79,815.05c5.97-0.66,10.93-4.84,15.08-9.18c5.85-6.13,10.93-12.99,15.1-20.36c1.55-2.74,3-5.68,3.04-8.82
	c0.05-3.56-1.7-6.87-3.49-9.95"/>
<path class="st0" d="M667.21,729.64c-3.04,5.92-6.87,11.42-11.36,16.33c-3.31,3.62-7.13,7.01-11.78,8.57
	c-4.66,1.56-10.31,0.94-13.72-2.59"/>
<path class="st0" d="M532.34,654.33c7.89-5.11,12.85-14.45,12.66-23.84"/>
<path class="st0" d="M483.4,622.17c-0.26,7.08,3.81,14.14,10.07,17.46"/>
<path class="st0" d="M487.72,621.4c-0.38,2.16,0.17,4.41,1.17,6.36c1,1.95,2.43,3.65,3.9,5.28c1.15,1.26,2.47,2.57,4.16,2.79"/>
<path class="st0" d="M289.2,891.67c60.44-24.05,122.55-43.91,185.74-59.38"/>
<path class="st0" d="M497.12,826.48c8.63-2.05,17.25-4.11,25.88-6.16"/>
<path class="st0" d="M308.02,871.79c46.16-12.07,92.31-24.15,138.47-36.22"/>
<path class="st0" d="M413.49,843.43c-32.35,4.14-64.29,11.54-101.53,15.47c14.91-5.64,30.9-7.61,46.67-9.98
	c58.18-8.76,115.43-23.65,170.51-44.35"/>
<path class="st0" d="M521.56,756.32c4.06-2.14,7.96-4.6,11.63-7.36c-5.24,2.46-9.87,6.21-13.37,10.82c4.36-1.47,8.72-2.93,13.08-4.4
	c-19.82,12.32-39.82,24.34-59.99,36.07"/>
<path class="st0" d="M699.1,703.48c-14.43,39.52-41.18,74.43-75.59,98.63"/>
<path class="st0" d="M670.85,739.42c-13.95,23.4-31.93,44.38-52.92,61.75"/>
<path class="st0" d="M617.25,736.87c20.64-13.84,42.02-26.58,64.03-38.14"/>
<path class="st0" d="M634.1,732.92c10.34-6.79,20.68-13.58,31.03-20.38"/>
<path class="st0" d="M622.35,765.75c13.09-14.26,27.43-27.38,42.8-39.15"/>
<path class="st0" d="M437.61,615.13c-6.38-19.88-16.26-38.64-27.8-53.34c6.73-3.83,14.44-5.91,22.17-5.98"/>
<path class="st0" d="M853.77,215.6c-1.97,12.93-3.93,25.86-5.9,38.78"/>
<path class="st0" d="M496.99,596.43c-8.53-10.43-14.98-22.54-18.87-35.44"/>
<path class="st0" d="M415.75,566.83c4.28-3.56,8.81-6.81,13.56-9.71c-4.48,4.72-7.99,10.35-10.26,16.44
	c4.87-4.76,10.06-9.21,15.51-13.3c-4.72,6.9-9.43,13.79-14.15,20.69c8.47-7.32,16.95-14.65,25.42-21.97
	c-6.23,6.7-12.46,13.42-18.07,20.65c-1.48,1.91-3,4.28-2.25,6.58c9.26-9.03,18.64-18.15,29.8-24.68
	c-9.65,9.5-19.49,19.27-25.38,31.47c10.25-11.66,20.93-23.65,35.06-30.09c-11.71,11.23-23.59,22.69-31.49,36.86
	c4.02-2.41,6.9-6.28,9.9-9.88c7.75-9.28,16.99-17.31,27.26-23.68c-12.48,13.48-25.02,27.03-35.22,42.29
	c6.9-6.42,12.76-13.86,19.32-20.62c6.56-6.76,14.03-12.97,22.92-16.1c-13.39,11.8-27.06,23.96-35.5,39.69
	c14.2-11.97,25.11-28.6,42.2-35.86c-13,11.89-24.92,24.96-35.57,39c3.15-1.07,5.45-3.73,7.62-6.25
	c8.53-9.88,17.92-19.61,29.97-24.65c-6.21,5.88-12.3,11.87-18.27,17.99c-2.96,3.03-6.03,6.36-6.68,10.55
	c8.06-7.85,16.39-15.88,26.79-20.2c-4.56,5.29-9.11,10.58-13.67,15.87c6.17-4.52,12.35-9.04,18.52-13.55c-1.53,1.9-3.07,3.8-4.6,5.7
	c1.25-0.48,2.49-0.97,3.74-1.45"/>
</svg>
