<?xml version="1.0" encoding="utf-8"?>
<!-- Generator: Adobe Adobe Illustrator 24.2.0, SVG Export Plug-In . SVG Version: 6.00 Build 0)  -->
<svg version="1.1" xmlns="http://www.w3.org/2000/svg" xmlns:xlink="http://www.w3.org/1999/xlink" x="0px" y="0px" width="1500px"
	 height="1000px" viewBox="0 0 1500 1000" style="enable-background:new 0 0 1500 1000;" xml:space="preserve">
<style type="text/css">
	.st0{fill:none;stroke:#000000;stroke-miterlimit:10;}
</style>
<g id="Layer_2">
	<path class="st0" d="M348.29,206.22c-5.47-1.66-11.08-3.06-16.8-3.06c-5.71,0.01-11.58,1.54-15.97,5.19
		c-8.36,6.94-9.3,19.99-5.03,29.98s12.59,17.6,19.83,24.29c3.87,3.04,5.12,8.85,9.48,11.14c2.87,1.5,6.32,1.05,9.53,0.21
		c1.53,2.18,2.52,4.74,2.87,7.38c0.47,3.57,0.08,7.89,3,9.99c0.68,0.49,1.53,0.79,2.35,0.65c0.91-0.16,1.63-0.84,2.3-1.47
		c1.59-1.5,3.31-2.96,5.4-3.63c2.08-0.66,4.62-0.34,5.71,0.98c1.54,2.45,2.39,5.32,2.44,8.21c0.05,2.56-0.4,5.5,1.37,7.35
		c1.27,1.32,3.31,1.6,5.12,1.32c1.81-0.28,3.52-1.01,5.31-1.4c3.68-0.8,7.94-0.24,10.82-2.66c0.89-0.74,1.56-1.72,2.42-2.49
		c0.86-0.78,2.03-1.37,3.67-1.44c13.68,9.94,30.71,14.47,47.59,15.51c16.88,1.03,33.78-1.22,50.5-3.75
		c7.39-1.12,14.77-2.29,22.15-3.52c1.65-0.28,4.22,0.53,4.51,2.75c-3.69,6.24-10.06,10.49-16.78,13.22
		c-6.71,2.74-13.88,4.14-20.88,6.03c-14.35,3.86-28.08,9.73-42.4,13.7c-14.32,3.97-29.66,5.99-43.97,2"/>
	<path class="st0" d="M324.11,340.18c1.34-0.74,2.24-2.06,3.33-3.14c1.08-1.08,2.61-2,4.08-1.58c1.22,0.34,2.04,1.52,2.42,2.72
		c0.38,1.21,0.41,2.49,0.63,3.74c0.56,3.1,2.37,5.96,4.93,7.79c4.02-1.11,7.49-2.67,10.97-4.23c1.26-0.57,2.7-1.14,3.99-0.64
		c1.06,0.41,1.73,1.44,2.33,2.4c1.69,2.72,3.39,5.45,5.08,8.17c3.97-1.35,6.54-5.17,10.29-5.22c2.49-0.03,4.66,1.68,6.35,3.52
		c1.69,1.84,3.19,3.94,5.37,5.15c5.14-4.55,6.77-11.37,8.32-17.79c0.4-1.67,0.99-3.56,2.57-4.25c1.27-0.55,2.8-0.08,3.85,0.81
		s1.75,2.13,2.41,3.35c2.2,4.01,4.4,8.02,6.6,12.04c1.31,2.38,2.93,5.01,4.71,4.44c9.37,2.89,19.47,0.38,28.9-2.35
		c20.49-5.93,40.69-12.86,60.51-20.76c12.95-5.16,25.77-10.75,39.16-14.63c13.39-3.88,27.5-6.02,41.02-5.01
		c4.45,0.54,10.35,0.2,11.59-4.11c0.68-2.38-0.63-4.98-2.59-6.5c-1.96-1.52-4.44-2.17-6.86-2.69c-18.69-4-38.05-2.27-57.12-1.06
		c-20.66,1.31-41.36,1.97-62.06,2c-7.77,0.01-15.57-0.08-23.27-1.14c-10.17-1.41-20.04-4.52-29.58-8.34
		c-23.8-9.53-45.77-23.57-64.41-41.16"/>
	<path class="st0" d="M320.27,213c-1.82,4.02-1.43,8.78,0.16,12.9c1.58,4.12,4.26,7.72,7.02,11.17c4.23,5.29,8.84,10.47,14.78,13.73
		"/>
	<path class="st0" d="M374.48,341.55c1.18-1.94,2.19-3.98,3.02-6.09c0.25-0.63,0.51-1.31,1.05-1.72c0.81-0.6,1.99-0.39,2.81,0.19
		c0.82,0.58,1.37,1.45,1.97,2.26c1.91,2.58,4.47,4.69,8.17,6.19c-4.95,1.27-10.17,0.45-15.15-0.66
		c-19.2-4.31-37.09-12.96-55.32-20.36c-18.23-7.4-37.49-13.66-57.15-12.78c-5.1,0.23-10.91,1.41-12.49,6.21
		c-1.36,0.96-1.34,3.11-0.39,4.48c0.95,1.37,2.53,2.13,4.06,2.79c14.98,6.48,31.92,9.25,43.42,19.8c1.18,3.13-0.32,7.04-2.24,8.76
		c-5.18,3.12-9.3,7.94-11.59,13.54c-0.99,2.42-1.64,5.02-1.59,7.63c0.12,5.61,3.49,10.75,7.83,14.3c4.34,3.55,9.59,5.78,14.76,7.95
		c7.53,3.16,15.05,6.33,22.58,9.49c3.55,1.49,7.12,2.99,10.84,4.01c7.53,2.05,15.45,2.05,23.25,2.04"/>
	<path class="st0" d="M486.65,205.83c-11.24,3.4-23.66,7.75-28.95,18.23c-1.51,2.99-2.27,6.72-0.6,9.63
		c2.33,4.06,7.93,4.5,12.6,4.23c9.08-0.53,18.47-1.89,27.08,1.05c2.95,1.01,5.72,2.5,8.69,3.44c11.69,3.7,24.13-1.6,35.24-6.81"/>
	<path class="st0" d="M504.83,216.58c-3.86-0.7-7.85-0.72-11.72-0.06c-1.87,0.32-3.81,0.86-5.13,2.21
		c-1.32,1.36-1.73,3.76-0.41,5.11c0.65,0.67,1.58,0.97,2.47,1.24c12.65,3.81,26.02,5.21,39.18,4.11"/>
	<path class="st0" d="M528.42,221.46c6.1-1.72,12.49-2.4,18.82-2.01c1.64,0.1,3.32,0.28,4.81,1c3.57,1.71,5.13,6.22,4.46,10.12
		s-3.11,7.26-5.81,10.15c-5.09,5.47-11.36,9.84-18.24,12.73"/>
	<path class="st0" d="M521.91,211.14c10.14-3.44,21.22-3.08,31.76-1.16c4.22,0.77,8.46,1.81,12.16,3.97
		c3.7,2.16,6.84,5.58,7.83,9.75c1.68,7.1-3.08,14.08-8.28,19.2c-5.03,4.96-10.74,9.23-16.91,12.68"/>
	<path class="st0" d="M576.03,212.02c20.09-7.6,35.98-23.21,54.52-34.03c6-3.5,12.77-6.59,19.66-5.68c1.71,0.23,3.47,0.75,4.68,1.97
		c2.26,2.3,1.79,6.06,1.05,9.21c-3.24,13.9-8.42,27.35-15.35,39.84"/>
	<path class="st0" d="M584.68,228.27c24.2-8.82,38.88-33.32,60.52-47.28c1.44-0.93,3.5-1.76,4.7-0.53c0.88,0.91,0.67,2.38,0.38,3.61
		c-3.13,13.43-8.18,26.42-14.93,38.44"/>
	<path class="st0" d="M569.02,246.34c15.25-11.32,33.59-17.55,51.6-23.6c0.67-0.22,1.41-0.44,2.05-0.14
		c0.7,0.34,0.98,1.19,1.06,1.97c0.3,2.97-1.22,5.8-2.89,8.27c-3.64,5.37-8.23,10.05-13.19,14.23c-5.29,4.46-11.03,8.4-17.1,11.73"/>
	<path class="st0" d="M602.86,252.19c13.92-4.05,28.84-3.8,43.08-1.08c1.92,0.37,3.91,0.82,5.43,2.05c1.52,1.23,2.39,3.48,1.46,5.2
		c-0.39,0.71-1.03,1.25-1.67,1.75c-6.82,5.28-15.28,7.87-23.54,10.36c-4.45,1.34-8.91,2.68-13.36,4.02"/>
	<path class="st0" d="M463.59,252.33c3.91-3.11,6.06-8.35,10.59-10.47c2.29-1.07,4.91-1.19,7.44-1.15c3.82,0.07,7.81,0.54,10.95,2.7
		s5.12,6.44,3.55,9.92c-1.17,2.6-3.88,4.09-6.41,5.39c-1.41,0.73-2.95,1.47-4.51,1.16"/>
	<path class="st0" d="M489.15,262.27c4.75-0.1,9.4-2.35,12.44-5.99c3.04-3.65,4.4-8.64,3.64-13.32l-0.91-0.4"/>
	<path class="st0" d="M665.4,300.44c-13.47-0.69-25.9-7.27-37.22-14.59s-22.23-15.6-34.83-20.39c-21.19-8.06-44.85-5.44-67.09-1.01
		c-22.23,4.43-44.53,10.58-67.16,9.22c-27.15-1.63-53.44-14.63-71.22-35.21"/>
	<path class="st0" d="M643.07,273.05c4.39-0.35,8.73,1.23,12.52,3.47c3.78,2.25,7.12,5.16,10.62,7.82
		c5.05,3.83,10.46,7.16,16.01,10.21c4.04,2.22,8.4,4.34,13.74,3.9c4.66-0.47,9.29-1.37,13.79-2.67c0.97,3.2-1.68,6.3-4.33,8.33
		c-8.27,6.32-18.63,9.48-29,10.45s-20.81-0.13-31.12-1.63"/>
	<path class="st0" d="M661.7,263.23c20.53,0.79,41,3.24,61.13,7.33c8.11,1.65,16.27,3.59,23.57,7.5c3.24,1.74,6.72,5.22,5.12,8.53
		c-0.67,1.4-2.09,2.25-3.45,3c-12.24,6.73-25.92,10.81-39.85,11.88"/>
	<path class="st0" d="M664.86,276.57c16.19-2.54,32.71-0.8,49,0.95c6.26,0.67,13.1,1.62,17.39,6.23
		c-8.25,3.54-16.56,6.92-24.94,10.14"/>
	<path class="st0" d="M449.09,251.36c7.68,3.45,16.32,3.84,24.58,5.48c8.26,1.63,16.9,5.07,21.16,12.34"/>
	<path class="st0" d="M523.3,244.79c-8.57,3.13-15.61,9.36-22.2,15.68c-2.44,2.34-5.44,4.9-8.75,4.23"/>
	<path class="st0" d="M418.18,230.05c3.54-1.49,7.61-1.35,11.31-0.32c3.7,1.04,7.11,2.91,10.43,4.86c4.23,2.47,8.38,5.08,12.45,7.82
		c4.38,2.94,8.91,6.38,10.51,11.41"/>
	<path class="st0" d="M434.59,232.23c4.49-2.46,8.42-5.93,11.4-10.09"/>
	<path class="st0" d="M445.14,226.6c1.14-2.94,1.09-6.18,1.29-9.33s0.77-6.47,2.85-8.85c2.9-3.32,7.96-3.83,11.44-3.31
		c13.09-0.64,25.77-4.49,38.64-6.95c18.96-3.61,38.51-4.18,57.65-1.67c4.81,0.63,10.08,1.36,13.21-1.08
		c12.78-10.71,16.84-28.3,24.62-43.05c7.43-14.09,18.76-26.09,32.4-34.33c1.91-1.15,4.05-2.27,6.26-1.99
		c4.65,0.6,6.31,6.67,5.45,11.28c-2.26,12.15-13.61,20.92-16.46,32.95c-0.52,2.2-0.69,4.7,0.59,6.57c1.32,1.92,3.8,2.63,6.09,3.03
		c12.75,2.22,25.74-1.01,38.28-4.22c23.87-6.11,47.85-12.26,70.52-21.94c11.99-5.12,23.65-11.25,36.25-14.56
		c1.09-0.29,2.25-0.55,3.32-0.19c3.06,1.04,2.45,5.6,0.8,8.38c-5.31,8.97-14.67,14.63-23.64,19.93
		c-36.04,21.29-72.11,42.59-112.54,65.3c13.7,2.01,26.9-5.29,40.56-7.55c1.07-0.18,2.16-0.32,3.22-0.16
		c2.15,0.34,4.02,2.04,4.55,4.15c0.53,2.11-0.3,4.5-2.03,5.81"/>
	<path class="st0" d="M633.95,230.01c13.41,1.98,26.82-2.33,40.1-5.03c5.19-1.06,10.77-1.83,15.61,0.32c1.97,0.88,3.94,2.9,3.16,4.9
		"/>
	<path class="st0" d="M656.27,247.32c24.16-14.55,52.36-22.83,80.54-21.75c3.77,0.14,7.73,0.52,9.53,2.64
		c0.63,4.91-3.41,9.17-7.62,11.77c-10.33,6.37-23.19,7.6-33.54,13.94c-2,1.22-3.95,2.71-5,4.81c-1.04,2.1-0.92,4.93,0.85,6.48"/>
	<path class="st0" d="M351.73,394.68c4.91,2.74,6.49,9.01,10.3,13.15c4.6,5,11.84,6.35,18.55,7.42c2.35,0.37,5.15,0.59,6.7-1.21
		c1.18-1.38,1.1-3.5,0.3-5.12s-2.19-2.87-3.55-4.07c-2.11-1.87-4.22-3.73-6.33-5.6c-3.27-2.9-6.7-6.03-7.88-10.24"/>
	<path class="st0" d="M381.6,401.06c2.12,1.31,4.81,1.11,7.27,0.73c14.74-2.26,29.38-9.14,43.97-6.05"/>
	<path class="st0" d="M416.49,388.38c5.22,0.94,9.44,4.69,14.31,6.8c6.55,2.84,14.39,2.5,20.67-0.88"/>
	<path class="st0" d="M434.89,380.91c7.46,5.99,15.13,12.1,24.19,15.16c9.07,3.06,19.97,2.5,27.11-3.88"/>
	<path class="st0" d="M462.31,375.58c5.74,3.89,10.6,8.94,16.22,12.99c5.62,4.05,12.44,7.15,19.31,6.25
		c4.63-0.61,8.83-2.96,12.89-5.27"/>
	<path class="st0" d="M480.11,367.34c9.17,8.23,18.58,16.6,29.93,21.4c11.35,4.79,25.22,5.43,35.42-1.48"/>
	<path class="st0" d="M504.87,361.44c10.94,9.76,22.23,19.72,35.96,24.85c2.8,1.05,5.9,1.88,8.74,0.94s4.99-4.36,3.6-7.01"/>
	<path class="st0" d="M518.38,353.98c8.84,7.58,18.2,14.54,28.01,20.82c5.4,3.46,11.07,6.76,17.35,8.05
		c6.28,1.29,13.35,0.28,18.07-4.06"/>
	<path class="st0" d="M539.91,345.6c15.99,16.34,34.39,30.34,54.41,41.38c6.74,3.72,13.82,7.15,21.46,8.12
		c2.14,0.27,4.72,0.15,5.9-1.67c0.93-1.43,0.56-3.32-0.02-4.92c-1.83-5.01-5.38-9.18-8.93-13.15c-8.76-9.78-18.03-19.11-27.74-27.95
		"/>
	<path class="st0" d="M614.57,378.29c4.64,3.38,10.79,3.57,16.52,3.63c2.39,0.02,5.39-0.35,6.15-2.62c0.41-1.22-0.03-2.55-0.51-3.75
		c-6.54-16.57-18.94-30.14-32.15-42.09"/>
	<path class="st0" d="M612.68,340.9c11.43,12.04,24.66,22.36,39.11,30.53c2.67,1.51,5.49,2.98,8.55,3.19
		c3.06,0.22,6.44-1.14,7.69-3.94c0.85-1.91,0.59-4.15-0.08-6.13c-1.51-4.46-4.89-8.01-8.26-11.3c-8.8-8.61-18.2-16.61-28.18-25.37
		c4.87,3.56,10.03,6.74,15.54,9.2c5.22,2.33,10.71,4,16.2,5.61c4.59,1.34,9.33,2.66,14.08,2.16c1.73-0.18,3.5-0.64,4.8-1.78
		c1.95-1.72,2.43-4.68,1.75-7.19s-2.32-4.64-4.08-6.56c-6.65-7.28-15.5-12.53-25.08-14.86"/>
	<path class="st0" d="M666.5,360.71c5.44,2.42,11.52,3.38,17.44,2.76c1.85-0.19,3.76-0.56,5.28-1.64c3.25-2.29,3.71-7.17,2.11-10.81
		s-4.75-6.33-7.79-8.9"/>
	<path class="st0" d="M689.51,349.79c9.68,1.53,19.51,2.18,29.31,1.94c3.27-0.08,6.65-0.29,9.57-1.76c2.93-1.47,5.3-4.5,5.01-7.76
		c-0.2-2.18-1.51-4.08-2.85-5.8c-4.25-5.46-9.27-10.32-14.87-14.38c-2.96-2.15-6.12-4.1-8.55-6.84c-2.43-2.74-4.06-6.48-3.24-10.05"
		/>
	<path class="st0" d="M348.13,206.72c1.21-7.15,6.69-13.42,13.62-15.57c11.29-3.51,23.15,3.57,31.58,11.85
		c9.33,9.16,16.73,20.09,25.24,30.01c8.52,9.93,18.59,19.13,31.02,23.22"/>
	<path class="st0" d="M346.25,213.77c-0.23,3.3-0.46,6.67,0.37,9.87c0.87,3.37,2.86,6.34,5.1,9c7.19,8.55,17.35,14.55,28.31,16.72"
		/>
	<path class="st0" d="M374.7,238.37c7.05,19.64,23.41,35.07,42.29,43.96s40.12,11.76,60.99,11.6c20.87-0.16,41.59-3.24,62.31-5.69
		c11.63-1.38,23.36-2.57,35.04-1.63c11.68,0.93,23.39,4.11,33.01,10.79c5.39,3.74,10.45,10.04,7.62,16.49
		c-3.47,10.25-13.73,16.94-24.26,19.45s-21.52,1.61-32.34,1.28c-15.1-0.46-30.55,0.3-44.65,5.73c-8.6,3.31-16.45,8.27-24.58,12.6
		c-16.37,8.71-34.05,14.95-52.27,18.42c-4.85,0.92-9.77,1.67-14.36,3.48c-4.32,1.7-8.24,4.32-12.55,6.05
		c-9.21,3.71-19.51,3.19-29.43,2.61c-22.36-1.31-46.76-3.48-62.88-19.02"/>
	<path class="st0" d="M540.28,390.1c-1.19,3.08-2.29,6.87-0.21,9.44c1.15,1.43,3.01,2.06,4.81,2.42c6.46,1.27,13.43-0.38,18.65-4.4"
		/>
	<path class="st0" d="M537.53,399.97c-5.66,1.72-10.48,6.01-12.85,11.43c-0.87,1.98-1.42,4.1-1.7,6.25
		c-0.17,1.3-0.15,2.84,0.88,3.63c0.57,0.44,1.33,0.54,2.05,0.61c5.58,0.53,11.25-0.05,16.61-1.69"/>
	<path class="st0" d="M523.31,419.41c-6.23,2.2-11.81,6.19-15.89,11.38c-1.16,1.48-2.22,3.09-2.68,4.91
		c-0.46,1.82-0.25,3.89,0.93,5.35c1.23,1.52,3.28,2.15,5.24,2.26c1.95,0.11,3.91-0.19,5.87-0.14"/>
	<path class="st0" d="M506.76,436.74c-10.92,0.33-21.27,7.84-24.97,18.12c-0.87,2.4-1.38,5.12-0.33,7.45
		c1.03,2.3,3.42,3.76,5.88,4.3s5.02,0.32,7.53,0.09"/>
	<path class="st0" d="M484.47,457.52c-5.58-1.13-11.2,1.98-15.35,5.88c-3.48,3.27-6.44,7.33-7.43,12c-0.99,4.68,0.31,10.02,4.05,13"
		/>
	<path class="st0" d="M463.02,479.96c-7.14,0.22-14.05,4.2-17.82,10.27c-3.77,6.06-4.29,14.02-1.34,20.53"/>
	<path class="st0" d="M438.41,507.78c-6,2.74-11.02,7.58-13.97,13.48c-1.65,3.29-2.67,7.01-2.18,10.66c0.48,3.65,2.66,7.2,6.02,8.69
		"/>
	<path class="st0" d="M422.52,532.49c-6.45,5.37-11.05,12.92-12.88,21.11c-0.5,2.25-0.79,4.64-0.05,6.82
		c0.88,2.56,3.04,4.43,5.11,6.18"/>
	<path class="st0" d="M410.12,558.99c-3.54,0.24-6.03,3.51-7.82,6.58c-3.82,6.56-6.82,13.9-6.59,21.49
		c0.23,7.59,4.28,15.41,11.27,18.38"/>
	<path class="st0" d="M399.29,597.85c-2.9,1.33-4.94,4.1-6.07,7.08c-1.13,2.98-1.46,6.2-1.76,9.37c-0.4,4.27-0.77,8.56-0.6,12.84
		c0.12,2.77,0.48,5.6,1.72,8.08c2.42,4.83,8.3,7.63,13.57,6.48"/>
	<path class="st0" d="M392.96,637.26c-5.01,10.93-4.08,24.37,2.38,34.51c1.68,2.64,3.77,5.11,6.52,6.6
		c5.09,2.77,11.51,1.67,16.71-0.92"/>
	<path class="st0" d="M395.79,666.08c-2.21,1.07-3.67,3.32-4.33,5.69c-0.66,2.37-0.63,4.86-0.58,7.32c0.1,4.21,0.29,8.48,1.57,12.5
		c1.29,4.01,3.82,7.8,7.57,9.71c2.67,1.36,5.73,1.7,8.71,2"/>
	<path class="st0" d="M406.15,701.82c-2.37,2.7-3.52,6.31-3.74,9.9c-0.21,3.58,0.45,7.17,1.34,10.64c0.85,3.31,2,6.68,4.37,9.13
		c3.15,3.26,7.86,4.33,12.3,5.25"/>
	<path class="st0" d="M412.89,734.22c2.49,6.55,6.09,12.91,11.67,17.15s13.43,5.97,19.77,2.99"/>
	<path class="st0" d="M436.03,757.8c2.96,3.45,6.05,6.88,9.92,9.27c3.87,2.39,8.67,3.63,13.03,2.34"/>
	<path class="st0" d="M573.87,404.89c-23.5,23.22-46.99,46.43-70.49,69.65c-17.92,17.7-35.92,35.51-50.73,55.89
		c-14.81,20.38-26.4,43.63-29.89,68.58"/>
	<path class="st0" d="M418.58,629.49c-2.38,40.73,10.26,82.16,34.97,114.62"/>
	<path class="st0" d="M686.24,364.21c2.34,13.01-0.77,26.53-6.35,38.51c-5.58,11.98-13.54,22.67-21.44,33.27
		c-12.86,17.24-25.72,34.48-38.57,51.72c-16.11,21.6-32.88,44.97-34.11,71.89"/>
	<path class="st0" d="M694.48,353.74c1.5,11.24,3,22.48,4.5,33.72c0.46,3.46,0.91,7.04-0.09,10.38s-3.88,6.38-7.37,6.41"/>
	<path class="st0" d="M687.47,394c3.36,5.94,4.27,13.22,2.48,19.81c-1.79,6.59-6.25,12.41-12.15,15.85"/>
	<path class="st0" d="M674.76,420.97c3.04,6.92,5.04,14.85,2.58,22c-1.9,5.49-6.16,9.76-10.3,13.84"/>
	<path class="st0" d="M663.87,441.26c1.26,4.32,2.11,8.87,1.48,13.33c-1.1,7.76-6.45,14.16-11.58,20.09"/>
	<path class="st0" d="M647.97,462.88c2.53,5.25,2.79,11.4,1.51,17.08c-1.28,5.68-4.03,10.94-7.29,15.77
		c-0.88,1.3-1.82,2.6-3.09,3.52c-2.62,1.9-6.11,1.88-9.34,1.78"/>
	<path class="st0" d="M628.11,491.94c1.18,5.7,2.12,11.52,1.67,17.32c-0.45,5.8-2.39,11.64-6.34,15.92
		c-3.56,3.86-8.46,6.18-13.3,8.23"/>
	<path class="st0" d="M606.33,522.69c4.29,3.72,6.83,9.38,6.75,15.05s-2.77,11.26-7.16,14.86"/>
	<path class="st0" d="M600.11,541.81c5.07,3.73,7.43,10.31,7.43,16.6c0,6.29-2.06,12.39-8.68,21.04c3.71-3.03,8.09-5.99,12.86-5.54
		c3.65,0.35,7,2.89,8.33,6.31"/>
	<path class="st0" d="M620.79,585.67c-1.07-2.25-0.7-5.01,0.57-7.15s3.34-3.71,5.58-4.81c1.82-0.89,3.83-1.5,5.85-1.35
		s4.04,1.14,5.09,2.87"/>
	<path class="st0" d="M652.61,550.39c-5.11,4.1-9.41,9.34-11.81,15.44c-2.41,6.1-2.82,13.08-0.52,19.21"/>
	<path class="st0" d="M663.8,531.39c-5.45,3.7-8.53,10.2-9.38,16.74c-0.86,6.54,0.26,13.16,1.71,19.59"/>
	<path class="st0" d="M673.82,499.06c-8.55,10.2-10.08,25.73-3.68,37.4"/>
	<path class="st0" d="M685.35,473.59c-1.35-1.16-3.55-0.68-4.81,0.57c-1.26,1.25-1.8,3.04-2.23,4.76
		c-2.25,8.91-2.92,18.46-0.12,27.22"/>
	<path class="st0" d="M698.03,454.77c-0.22-1.02-1.42-1.58-2.46-1.42c-1.03,0.16-1.9,0.85-2.65,1.57c-2.82,2.7-4.82,6.24-5.66,10.05
		c-1.62,7.33,0.99,14.93,0.68,22.43"/>
	<path class="st0" d="M713.67,419.52c-2.03-0.71-4.35,0.2-5.86,1.72c-1.52,1.52-2.38,3.56-3.12,5.58
		c-4.46,12.09-5.86,25.23-4.55,38.05"/>
	<path class="st0" d="M586.98,569.9c-2.5,8.42,1.06,17.96,7.69,23.73c6.62,5.77,15.82,8.04,24.58,7.42
		c15.72-1.11,29.81-10.84,39.73-23.08s16.28-26.92,22.52-41.38c10.8-25.05,21.61-50.1,32.41-75.15
		c13.03-30.21,26.51-61.11,49.26-84.88"/>
	<path class="st0" d="M782.3,329.49c-4.85-2.87-11.41-0.97-15.45,2.96s-6.13,9.41-7.91,14.76c-2.93,8.78-5.37,17.72-7.33,26.76"/>
	<path class="st0" d="M804.39,316.5c0.72-2.24-0.93-4.74-3.13-5.58c-2.2-0.83-4.7-0.33-6.84,0.66c-6.13,2.83-9.91,9.19-11.88,15.65
		c-1.97,6.46-2.49,13.27-4.19,19.8"/>
	<path class="st0" d="M839.12,299.79c-0.51-2.54-2.9-4.38-5.43-4.94c-2.53-0.55-5.17-0.04-7.65,0.7c-3.07,0.91-6.12,2.21-8.41,4.46
		c-2.01,1.97-3.31,4.54-4.49,7.09c-3.41,7.32-6.21,14.99-10.66,21.72"/>
	<path class="st0" d="M728.39,394.2c-2.69-2.85-7.81-1.59-10.24,1.48c-2.43,3.07-2.9,7.2-3.29,11.1c-0.97,9.88-1.93,19.75-2.9,29.63
		"/>
	<path class="st0" d="M751.88,363.13c-3.72-1.85-8.41-0.65-11.61,2c-3.2,2.65-5.16,6.5-6.68,10.36c-3.29,8.38-4.93,17.41-4.78,26.42
		"/>
	<path class="st0" d="M871.58,293.03c1.06-3.29-1.92-6.82-5.32-7.49c-3.39-0.67-6.85,0.73-9.86,2.44
		c-7.97,4.52-14.57,11.45-18.69,19.64"/>
	<path class="st0" d="M904.52,290.57c-1.9-6.57-9.79-10.69-16.27-8.51c-2.33,0.79-4.37,2.22-6.38,3.64
		c-5.51,3.9-11.02,7.79-16.53,11.69"/>
	<path class="st0" d="M936.63,291.19c-1.95-4.18-4.29-8.72-8.58-10.39c-3.55-1.38-7.58-0.42-11.11,1.02
		c-8.19,3.32-15.19,8.98-22.05,14.55"/>
	<path class="st0" d="M973.27,298.68c-0.05-2.86-0.15-5.92-1.79-8.26c-1.79-2.55-5.02-3.68-8.11-4.07
		c-7.35-0.92-14.71,1.5-21.45,4.56c-6.74,3.07-13.22,6.84-20.33,8.9"/>
	<path class="st0" d="M1003.11,307.79c1.49-0.79,1.97-2.84,1.42-4.44c-0.55-1.6-1.89-2.8-3.32-3.71c-5.71-3.68-13.08-3.74-19.7-2.25
		c-6.62,1.49-12.85,4.38-19.37,6.27"/>
	<path class="st0" d="M1022.99,323.43c3.81-0.3,6.65-4.09,7-7.9c0.12-1.33-0.01-2.72-0.69-3.87c-0.91-1.55-2.65-2.41-4.33-3.05
		c-8.46-3.25-18.12-3.28-26.6-0.08"/>
	<path class="st0" d="M1046.61,343.2c1.85-0.78,3.79-1.63,4.99-3.24c1.68-2.25,1.43-5.55-0.07-7.93c-1.49-2.38-4-3.95-6.62-4.99
		c-7.84-3.1-16.63-1.91-24.97-0.66"/>
	<path class="st0" d="M1064.41,362.96c3.22-0.95,4.34-5.31,2.96-8.36c-1.39-3.05-4.44-4.98-7.46-6.44
		c-8.42-4.08-17.89-5.96-27.23-5.41"/>
	<path class="st0" d="M1075.02,385.37c3.91-1.89,5.65-7.27,3.59-11.09c-1.13-2.1-3.13-3.6-5.17-4.83
		c-6.19-3.74-13.43-5.72-20.67-5.65"/>
	<path class="st0" d="M1088.48,403.15c1.87-0.7,2.65-3.09,2.14-5.02c-0.51-1.93-1.98-3.44-3.52-4.71
		c-5.91-4.85-13.44-7.24-20.86-9.09"/>
	<path class="st0" d="M777.01,357.19c48.66-48.44,126.11-65.43,190.58-41.8c5.27,1.93,10.44,4.11,15.58,6.36
		c12.44,5.46,24.72,11.41,35.96,19.03c37.27,25.27,61.2,69.93,59.36,114.92c-1.75,42.87-25.1,81.83-51.56,115.61"/>
	<path class="st0" d="M1081.85,405.73c5.59,0.28,10.92,3.72,13.49,8.7c2.57,4.98,2.27,11.31-0.74,16.03
		c-0.7,1.1-1.61,2.16-2.84,2.59c-1.35,0.47-2.84,0.09-4.18-0.39"/>
	<path class="st0" d="M1081.77,431.19c4.39-0.35,8.09,3.46,9.84,7.51c1.57,3.63,2.12,7.79,0.99,11.58
		c-1.12,3.79-4.06,7.12-11.32,9.22c1.69-0.76,3.75,0.14,4.89,1.6c1.13,1.46,1.54,3.34,1.87,5.16c0.81,4.55,1.27,9.27,0.2,13.76
		c-1.07,4.49-3.89,8.77-11.37,9.64c3.59,3,5.79,7.6,5.87,12.28c0.08,4.68-1.96,9.35-5.44,12.48"/>
	<path class="st0" d="M1069.62,511.84c4.49,3.92,6.84,10.14,6.07,16.05c-0.66,5.05-3.38,9.55-6.04,13.89
		c-0.85,1.39-1.76,2.84-3.18,3.65c-1.42,0.81-3.5,0.71-4.39-0.66"/>
	<path class="st0" d="M1056.9,535.23c3.47,5.64,6.43,11.92,6.36,18.54c-0.07,6.62-3.89,13.58-10.23,15.48"/>
	<path class="st0" d="M1046.64,554.16c2.55,5.07,5.17,10.44,4.82,16.1c-0.49,7.98-7.21,14.75-14.97,16.69"/>
	<path class="st0" d="M1030.19,575.89c3.13,3.63,5.71,8.02,5.89,12.81c0.17,4.79-2.67,9.9-7.31,11.1"/>
	<path class="st0" d="M489.38,697.29c-8.6-15.85-10.76-35.37-4.47-52.26c6.3-16.89,21.38-30.57,39.12-33.83
		c20.55-3.78,41.03,5.98,58.95,16.74c10.49,6.3,20.98,13.3,27.96,23.35"/>
	<path class="st0" d="M619.97,654.96c19.7,20.22,37.63,42.17,53.51,65.51"/>
	<path class="st0" d="M694.98,712.21c-5.53-18.13-2.46-38.07,5.11-55.45c7.56-17.38,19.33-32.58,35.6-49.08
		c2.68-0.01,5.36,0.78,7.62,2.24c-2.59,17.01-5.18,34.17-4.06,51.34c1.96,29.87,15.07,58.23,16.42,88.13
		c1.03,22.73-5.01,45.73-17.07,65.03"/>
	<path class="st0" d="M721.68,741.66c-0.22-3.49-0.14-7.65,2.75-9.63c2.47-1.69,6.07-0.81,8.15,1.35c2.07,2.16,2.87,5.26,3.1,8.24
		c0.46,5.98-1.16,12.17-4.87,16.88s-9.55,7.79-15.54,7.73c-1.6-0.02-3.26-0.27-4.6-1.13c-1.43-0.92-2.36-2.42-3.17-3.91
		c-3.35-6.16-5.49-13.17-4.88-20.16c0.6-6.99,4.24-13.91,10.32-17.41c6.88-3.96,16.06-2.87,22.38,1.93
		c6.31,4.8,9.77,12.84,9.83,20.78c0.06,7.93-3.03,15.7-7.8,22.05c-7.53,10.03-20.22,16.85-32.58,14.71"/>
	<path class="st0" d="M723.6,768.39c-7.5,4.48-16.92,4.76-25.4,2.67c-8.48-2.09-16.25-6.33-23.91-10.53
		c-22.5-12.33-44.99-24.67-67.49-37c-13.25-7.26-26.77-14.63-41.62-17.41c-22.64-4.25-46.16,2.55-68.94-0.88
		c-8.92-1.34-18.49-4.16-26.59-0.17c-6.05,2.98-10.01,9.76-9.64,16.5c0.38,6.74,5.07,13.03,11.41,15.32"/>
	<path class="st0" d="M462.91,732.06c-0.6,8.55,1.22,17.25,5.21,24.83"/>
	<path class="st0" d="M475.6,823.15c-4.22-6.5-5.74-14.47-5.55-22.22c0.2-7.75,2.01-15.36,4.26-23.83c5.01,1.77,9.62,4.67,13.6,8.64
		C482.31,798.68,476.62,812.18,475.6,823.15z"/>
	<path class="st0" d="M487.21,797.08c3.01-0.24,5.54-2.24,7.87-4.16c3.32-2.73,6.74-5.59,8.59-9.47c2.1-4.41,1.9-9.53,1.65-14.41"/>
	<path class="st0" d="M504.51,784.22c3.83-6.33,10.29-10.75,17.24-13.27c6.95-2.52,14.41-3.3,23.49-1.21
		c5.58,2.83,9.53,8.2,11.86,14.01c2.33,5.8,3.21,12.07,3.98,18.27"/>
	<path class="st0" d="M468.45,756.92c0.65-7.95,4.52-15.59,10.55-20.8"/>
	<path class="st0" d="M472.7,737.35c3.55,1.47,7.23,2.96,11.07,2.89c3.62-0.06,7.06-1.5,10.4-2.91"/>
	<path class="st0" d="M469.93,787.93c-3.85-8.24-1.44-18.41,4.16-25.58c5.6-7.17,13.87-11.75,21.65-14.49
		c11.01-5.64,20.55-14.13,27.43-24.41"/>
	<path class="st0" d="M583.69,756.85c-3.36,9.27,0.16,19.54,4.33,28.48c4.17,8.94,9.14,18.1,8.7,27.95
		c-0.49,10.88-8.37,21.05-21.05,24.52c1.07-4.24-0.81-9.05-6.41-10.33c-6.83,5.85-15.23,9.84-21.54,11.57
		c8.97,0.62,18.29,1.19,26.63-2.14"/>
	<path class="st0" d="M560.26,830.67c-2.68-5.28-2.33-11.73-0.18-17.25c2.15-5.52,5.92-10.26,9.96-14.59"/>
	<path class="st0" d="M512.6,736.39c-18.98-2.79-39.04,6.76-49.41,22.9s-10.87,37.93-1.84,54.86c9.03,16.93,27.02,28.54,46.11,30.51
		c19.08,1.97,38.77-5.51,52.25-19.16"/>
	<path class="st0" d="M752.22,721c6.62-3.53,10.74-10.32,14.38-16.87c30.28-54.5,49.55-114.26,71.24-172.71
		c4.51-12.16,9.14-24.29,14.76-35.97c4.6-9.56,9.94-18.93,17.45-26.42c7.51-7.49,17.44-12.99,28.04-13.44
		c7.59-0.32,15.64,2.27,20.38,8.21c6.77,8.48,5.09,20.93,1.12,31.03c-8.71,22.15-26.07,39.57-39.46,59.25
		c-5.49,8.06-10.33,16.54-14.86,25.17c-12.43,23.63-22.73,48.86-25.48,75.42c-2.74,26.56,2.74,54.73,19.2,75.75"/>
	<path class="st0" d="M858.51,737.81c5.25-3.21,3.72-11.07,1.81-16.91c-3-9.22-5.31-18.82-5.01-28.51
		c0.29-9.7,3.41-19.57,10.07-26.62c7.78-8.23,19.34-11.71,30.54-13.37c11.2-1.66,22.69-1.87,33.55-5.09
		c10.86-3.22,21.42-10.24,25.12-20.94c4.47-12.94-1.75-28.74,5.85-40.12c5.38-8.04,15.73-10.78,25.19-12.82"/>
	<path class="st0" d="M962.86,582.84c-7.72-9.85-8.07-23.65-5.75-35.95s6.94-24.18,7.98-36.66c1.15-13.74-2.07-27.89,0.53-38.49
		c7.46,0.75,12.9,7.34,16.55,13.89c15.67,28.2,13.76,63.66,29.71,91.7c5.42,9.53,12.74,17.89,17.85,27.58
		c13.7,26.01,9.46,58.48-3.49,84.86c-12.95,26.38-33.59,48.06-53.48,69.7c-5.31,5.77-10.74,11.84-13.04,19.33
		c-4.63,15.05,4.45,30.55,13.13,43.68"/>
	<path class="st0" d="M965.49,606.64c1.53-5.05,3.9-10.92,9.06-12.03c5.63-1.21,10.56,4.3,12.25,9.8
		c3.31,10.75-0.47,22.37-5.43,32.46c-6.91,14.04-16.72,27.38-31.5,34.34c-2.03,3.79-1.35,8.85,1.61,11.97
		c1.78,1.88,4.22,3.03,6.73,3.71c3.25,0.89,6.7,1.06,10.03,0.49c3.88-0.66,8.04-2.85,9.24-7.5c-2.96,7.66-5.03,15.66-6.15,23.8
		c-0.43,3.12-0.71,6.36,0.26,9.35c0.97,2.99,3.48,5.69,6.61,5.96"/>
	<path class="st0" d="M1035.19,672.35c16.66,1.1,32.94-8.45,42.44-22.17c9.5-13.72,12.82-31.03,11.96-47.7s-5.61-32.89-11.1-48.65
		c-1.94-5.58-4.01-11.47-2.89-17.28"/>
	<path class="st0" d="M1116.08,386.04c-6.34,0.18-12.56,3.09-16.76,7.84c-4.2,4.75-6.33,11.27-5.73,17.59"/>
	<path class="st0" d="M1122.21,430.33c1.89-14.26,1.82-28.78-0.22-43.02c-1.03-7.25-2.58-14.52-2.15-21.83
		c0.43-7.31,3.18-14.9,7.74-19.05c4.58,2.2,8.51,5.67,11.49,9.79c3.76,5.21,6.04,11.7,5.29,18.09"/>
	<path class="st0" d="M1137.05,416.82c10.16-18.82,2.08-43.62,12.42-62.34c4.96-8.98,13.53-15.3,20.72-19.79
		c7.06,2.32,11.96,9.22,13.42,16.51c1.46,7.29-0.08,14.88-2.68,21.85c-4.56,12.21-12.44,23.17-22.57,31.38"/>
	<path class="st0" d="M1181.87,367.27c7.03-4.79,14.65-8.75,22.7-11.49c11.27-3.84,23.19-5.25,36.31-5.29
		c1.14,4.46-0.18,9.27-2.62,13.16s-5.94,7.01-9.48,9.94c-16.28,13.47-34.77,24.26-54.5,31.8"/>
	<path class="st0" d="M1207.96,388.35c8.11,5.73,17.43,9.73,27.16,11.67c2.42,0.48,5.21,1.07,7.2,5.65c-1.6,3.87-5.34,6.52-9.3,7.85
		c-3.97,1.33-8.21,1.53-12.39,1.79c-17.45,1.09-34.81,3.51-51.89,7.24"/>
	<path class="st0" d="M1208,416.71c5.36,4.56,10.72,9.12,16.08,13.67c0.96,0.81,1.96,1.7,2.31,2.9c0.52,1.8-0.64,3.74-2.23,4.71
		c-1.6,0.97-3.53,1.19-5.39,1.35c-12.91,1.11-25.96,0.55-38.73-1.67c-8.93-1.55-18.26-3.9-26.88-1.07"/>
	<path class="st0" d="M959.66,782.29c2.66,9.47,11.15,16.09,19.76,20.84c34.25,18.9,76.62,18.24,114.02,6.76
		c4.28-1.31,8.83-2.98,11.34-6.7c2.51-3.71,1.47-9.99-2.87-11.1"/>
	<path class="st0" d="M1108.23,799.38c6.04-1.52,12.34-3.17,16.93-7.37c4.59-4.2,6.73-11.79,2.96-16.74"/>
	<path class="st0" d="M1131.15,782.39c4.33-1.35,9.21-3.22,10.73-7.48c0.59-1.65,0.57-3.45,0.4-5.19c-0.31-3.11-1.11-6.17-2.35-9.03
		"/>
	<path class="st0" d="M1144.72,769.47c7.14-1.68,12.3-9.37,11.15-16.61c-1.15-7.24-8.43-12.96-15.74-12.35"/>
	<path class="st0" d="M1158.92,754.33c4.68-4.69,9.41-10.58,8.53-17.14c-0.71-5.36-5.02-9.51-9.52-12.51"/>
	<path class="st0" d="M1168.82,737.75c6.13-5.35,10.41-13.99,7.65-21.65c-1.77-4.92-6.04-8.44-10.11-11.72"/>
	<path class="st0" d="M1179.07,714.34c3.25-5.56,6.59-11.39,6.94-17.82c0.34-6.43-3.36-13.57-9.68-14.83"/>
	<path class="st0" d="M1188.47,668.63c3.27-4.26,4.11-10.27,2.14-15.26c-1.98-5-6.7-8.8-12-9.67"/>
	<path class="st0" d="M1188.13,647.63c2.4-4.45,4.86-9.63,3.09-14.36c-1.97-5.26-8.24-7.51-11.51-12.09"/>
	<path class="st0" d="M1189.32,631.51c1.3-6.05,2.58-12.44,0.71-18.34c-1.87-5.9-8.12-10.9-14.05-9.12"/>
	<path class="st0" d="M1187.94,608.29c2.07-4.79,4.17-10.15,2.45-15.08c-2-5.72-8.27-8.55-13.95-10.65"/>
	<path class="st0" d="M1181.76,585.2c3.14-3.49,3.31-8.93,1.44-13.24s-5.42-7.64-9.16-10.48"/>
	<path class="st0" d="M1177.11,563.78c3.27-3.68,3.01-9.57,0.43-13.76c-2.58-4.19-6.99-6.92-10.97-11.22
		c2.13-2.5,4.39-5.5,3.76-8.73c-0.37-1.88-1.69-3.43-3.08-4.76c-3.23-3.08-7.12-5.46-11.33-6.94"/>
	<path class="st0" d="M1162.99,522.81c1.62-4.37,0.19-9.5-2.88-13.01c-3.07-3.51-7.55-5.55-12.13-6.47"/>
	<path class="st0" d="M1157.21,506.58c-0.32-3.95-0.7-8.06-2.81-11.41c-1.51-2.39-3.79-4.19-6.1-5.82c-3.06-2.16-6.27-4.1-9.59-5.83
		"/>
	<path class="st0" d="M1178.13,437.6c3.51,5.21,4.18,12.21,1.83,18.75c-4.19,2.42-9.35,2.4-14.13,1.64
		c-4.78-0.77-9.46-2.21-14.29-2.43c-3.17-0.15-6.72,0.43-8.67,2.93c-0.94,1.2-1.39,2.71-1.82,4.17c-0.76,2.6-1.53,5.27-1.29,7.97
		c0.23,2.57,1.37,4.96,2.48,7.28c1.6,3.34,3.2,6.68,4.81,10.02"/>
	<path class="st0" d="M1133.42,459.04c-0.73,19.89,7.19,38.92,14.07,57.59c8.59,23.31,15.75,47.13,21.44,71.31
		c2.19,9.3,4.16,18.68,5.18,28.18c3.27,30.49-3.66,61.99-19.41,88.29"/>
	<path class="st0" d="M1068.01,793.82c29.63-14.1,54.91-37.2,71.61-65.44"/>
	<path class="st0" d="M957.87,686.72c-19.41,26.72-28.68,60.19-50.51,84.97"/>
	<path class="st0" d="M823.68,753.44c2.73-4.52,5.51-9.09,9.36-12.71c3.84-3.62,8.95-6.22,14.22-5.91c3.78,0.22,7.31,1.89,10.7,3.61
		c9.47,4.79,18.74,10.16,28.82,13.48c10.08,3.32,21.3,4.47,31.23,0.72"/>
	<path class="st0" d="M820.83,768.38c-2.86-6.61,1.62-14.71,8.16-17.73c6.54-3.02,14.28-1.99,21.05,0.48
		c6.77,2.47,12.98,6.27,19.7,8.86c12.09,4.66,25.49,5.25,38.31,3.32"/>
	<path class="st0" d="M829.4,782.04c-3.34-1.34-6.35-3.61-8.3-6.64c-1.95-3.03-2.75-6.84-1.89-10.33"/>
	<path class="st0" d="M900.9,773.34c-13.42,1.89-27.04-0.33-40.58-0.67c-8.29-0.21-16.93,0.39-24.17,4.44
		c-7.23,4.05-12.62,12.39-10.93,20.51"/>
	<path class="st0" d="M826.96,804.49c-0.4,2.87,2.24,5.23,4.81,6.54c6.44,3.29,14,3.73,21.2,3.02c7.2-0.71,14.26-2.48,21.44-3.36
		c15.22-1.86,30.61,0.34,45.77,2.65c5.81,0.89,11.65,1.79,17.25,3.6c12.48,4.02,23.76,12.45,36.86,13.12"/>
	<path class="st0" d="M825.02,792.12c-7.32,9.18-14.18,18.73-20.65,28.63c4.72,0.71,9.57-0.07,14.09-1.6s8.76-3.77,12.95-6.06"/>
	<path class="st0" d="M818.48,767.82c-6.38,9.33-11.13,19.78-13.97,31.34c8.45-2.97,14.94-9.72,21.08-16.24"/>
	<path class="st0" d="M977.17,718.33c9.17-2.85,16.83-10.17,20.1-19.19"/>
	<path class="st0" d="M994.87,585.17c5.45,3.07,9.15,8.66,11.08,14.61c1.93,5.95,2.26,12.29,2.31,18.55
		c0.18,21.41-2.74,42.84-8.64,63.42"/>
	<path class="st0" d="M379.66,229.89c2.27,0.97,5.12-0.16,6.39-2.28c1.27-2.11,1.05-4.94-0.25-7.03c-0.92-1.48-2.39-2.66-4.1-2.98
		c-2.06-0.38-4.13,0.49-6.05,1.35c-2.06,0.92-4.13,1.85-6.19,2.77c-1.92,0.86-3.93,1.73-6.03,1.57"/>
	<path class="st0" d="M360.46,215.93c2.18-1.28,4.18-2.86,5.93-4.68c0.94-0.98,1.82-2.06,2.28-3.33s0.43-2.79-0.36-3.9
		c-0.81-1.13-2.31-1.64-3.7-1.54c-1.39,0.1-2.69,0.74-3.86,1.51"/>
	<path class="st0" d="M318.06,350.39c7.13,5.69,15.35,9.99,24.08,12.62c16.86,5.06,34.88,3.77,52.43,2.42"/>
	<path class="st0" d="M582.88,772.84c21.18,3,38.65,17.47,55.12,31.13c16.46,13.66,34.55,27.65,55.88,29.34
		c16.63,1.32,33.72-5.65,44.69-18.23"/>
	<path class="st0" d="M325.34,337.95c0.01-2.35-2.59-4.31-4.85-3.65c-0.97,0.28-1.78,0.94-2.6,1.53c-2,1.45-4.21,2.61-6.54,3.44"/>
	<path class="st0" d="M317.98,343.82c16.76,12.19,37.56,18.71,58.27,18.26"/>
	<path class="st0" d="M1182.38,664.14c5.38,2.38,9.3,7.79,9.86,13.65c0.56,5.86-2.25,11.92-7.08,15.28"/>
</g>
<g id="Layer_3">
	<path class="st0" d="M650.26,169.75c41.62-7.7,82.14-21.28,120-40.2"/>
	<path class="st0" d="M569.13,196.99c11.43-13.65,18.78-30.17,28.1-45.34c9.32-15.17,21.57-29.73,38.37-35.63"/>
	<path class="st0" d="M636.48,119.58c1.57,7.63-1.92,15.33-5.75,22.12s-8.19,13.72-8.57,21.5"/>
	<path class="st0" d="M578.13,214.03c18.97-11.48,37.51-23.67,55.57-36.53"/>
	<path class="st0" d="M583.91,229.74c23.72-10.01,38.55-34.04,60.62-47.32"/>
	<path class="st0" d="M634.5,176.34c3.11-1.85,6.43-3.53,10.03-3.9c3.6-0.37,7.54,0.78,9.69,3.69c2.5,3.4,2,8.09,1.07,12.21
		c-2.63,11.7-7.65,22.71-12.63,33.61"/>
	<path class="st0" d="M777.63,135.96c-7.5,10.41-17.61,18.72-28.43,25.62c-10.82,6.9-22.41,12.5-33.83,18.35
		c-22.49,11.52-44.45,24.09-65.78,37.64"/>
	<path class="st0" d="M642.48,223.42c12.35,1.02,23.9-5.67,36.04-8.11c2.23-0.45,4.53-0.75,6.76-0.29s4.37,1.8,5.28,3.88
		s0.25,4.88-1.76,5.93"/>
	<path class="st0" d="M633.35,232.53c16.66-2.71,33.32-5.43,49.99-8.14c1.97-0.32,4.04-0.63,5.92,0.04
		c1.88,0.68,3.43,2.71,2.84,4.62"/>
	<path class="st0" d="M587.87,230.63c15.71-10.32,29.74-23.2,41.36-37.97"/>
	<path class="st0" d="M657.64,247.96c23.67-15.54,52.12-23.69,80.43-23.04c3.79,0.09,8.5,1.03,9.45,4.7"/>
	<path class="st0" d="M702.97,267.03c-2.05-1.61-2.6-4.64-1.82-7.12s2.67-4.49,4.77-6.04c6.5-4.82,14.92-5.93,22.74-8.06
		s16.08-6.21,18.79-13.84"/>
	<path class="st0" d="M660.38,247.75c25.06-14.1,53.78-21.63,82.54-21.64"/>
	<path class="st0" d="M642.41,185.5c0.68-1.32,1.4-2.69,2.57-3.6c1.18-0.91,2.96-1.22,4.13-0.31c1.69,1.3,1.13,3.94,0.39,5.94
		c-4.26,11.58-9.09,22.96-14.45,34.08"/>
	<path class="st0" d="M666.15,276.96c19.86-1.43,39.88-0.63,59.57,2.36c3.41,0.52,7.03,1.21,9.56,3.56"/>
	<path class="st0" d="M705.51,293c9.67-0.61,19.15-3.91,27.12-9.41"/>
	<path class="st0" d="M662.02,265.01c27-3.22,54.6,0.63,80.32,9.44c2.48,0.85,5,1.78,7.01,3.46c2,1.69,3.42,4.31,2.98,6.89
		c-0.59,3.52-4.17,5.63-7.42,7.1c-9.3,4.2-19.15,7.19-29.22,8.88"/>
	<path class="st0" d="M701.87,306.72c2.1,6.67,8.05,11.32,13.95,15.07c5.9,3.75,12.3,7.23,16.3,12.96
		c2.26,3.24,3.63,7.48,2.19,11.15c-1.17,2.96-3.99,5.02-7.02,5.99s-6.27,0.99-9.45,0.89c-8.81-0.29-17.58-1.44-23.27-2.32
		c-2.1,6.03-0.66,12.7,1.4,18.74s4.74,12.01,5.13,18.38c0.39,6.37-2.16,13.47-7.94,16.18"/>
	<path class="st0" d="M686.47,364.7c-0.42,27.55-14.47,53.11-31.17,75.03c-16.7,21.92-36.43,41.57-51.16,64.86
		s-24.26,51.72-17.57,78.45"/>
	<path class="st0" d="M687.95,395.41c3.23,12.19-0.4,25.97-9.23,34.99"/>
	<path class="st0" d="M666.09,457.68c5.16-4.01,8.87-9.85,10.3-16.22s0.57-13.24-2.38-19.07"/>
	<path class="st0" d="M662.67,442.1c2.05,13.51-3.99,27.94-15.05,35.96"/>
	<path class="st0" d="M647.23,463.54c0.59,8.2,1.15,16.65-1.48,24.44s-9.3,14.81-17.51,15.23"/>
	<path class="st0" d="M626.34,491.88c1.56,5.88,3.13,11.84,3.21,17.92c0.08,6.08-1.49,12.41-5.53,16.96
		c-2.06,2.32-5.15,4.19-8.14,3.39"/>
	<path class="st0" d="M604.88,522.64c4.48,3.06,7.47,8.2,7.91,13.61s-1.67,10.97-5.59,14.71"/>
	<path class="st0" d="M600.72,544.18c5.34,4.64,6.84,12.6,5.31,19.5s-5.63,12.95-10.04,18.48"/>
	<path class="st0" d="M581.28,567.88c0.75-18.52,7.54-36.4,16.9-52.4c9.36-16,21.25-30.35,33.08-44.63"/>
	<path class="st0" d="M687.57,368.08c-8.8,41.28-35.65,76.04-61.74,109.22"/>
	<path class="st0" d="M584.28,394.36c-36.63,32.38-71.3,66.96-103.78,103.49"/>
	<path class="st0" d="M528.87,222.48c5.77-2.55,12.28-3.39,18.51-2.39c3.12,0.5,6.44,1.65,8.08,4.35c1.36,2.24,1.25,5.14,0.29,7.58
		c-0.97,2.43-2.7,4.48-4.5,6.38c-5.19,5.47-11.24,10.13-17.86,13.74"/>
	<path class="st0" d="M523.09,212.51c10.93-2.5,22.27-3.19,33.42-2.04c4.43,0.46,9.1,1.32,12.41,4.29
		c4.32,3.88,5.21,10.58,3.47,16.12c-1.74,5.54-5.66,10.12-9.82,14.18c-4.16,4.06-8.68,7.8-12.14,12.47"/>
	<path class="st0" d="M570.18,196.45c-36.12-2.86-72.75,0.71-107.64,10.49"/>
	<path class="st0" d="M446.13,227.98c1.26-3.78,0.96-7.89,1.32-11.86c0.37-3.97,1.69-8.25,5.07-10.37
		c4.04-2.53,9.29-1.04,13.79,0.52"/>
	<path class="st0" d="M446.69,219.2c-3.14,5.3-7.92,9.61-13.52,12.18"/>
	<path class="st0" d="M486.28,204.62c-11.19,3.8-22.38,9.3-29.39,18.81c-2.22,3.01-4.02,6.95-2.59,10.41
		c1.03,2.5,3.56,4.13,6.19,4.77c2.63,0.64,5.38,0.43,8.08,0.23"/>
	<path class="st0" d="M505.06,216.54c-4.96-1.39-10.42-0.89-15.05,1.37c-2.24,1.09-4.55,3.34-3.74,5.69
		c0.58,1.68,2.46,2.45,4.15,2.98c12.9,4.04,26.73,5.1,40.1,3.06"/>
	<path class="st0" d="M468.94,239.58c8.1-3.29,17.22-2.76,25.84-1.34c8.62,1.42,17.18,3.68,25.92,3.68c8.74,0,17.99-2.65,23.59-9.36
		"/>
	<path class="st0" d="M461.23,252.99c5.45-8.26,15.63-13.13,25.47-12.21c3.63,0.34,7.64,1.8,9.03,5.17
		c1.12,2.72,0.13,5.94-1.72,8.22c-1.85,2.28-4.44,3.82-6.98,5.31"/>
	<path class="st0" d="M503.49,242.78c0.7,3.9-0.21,8.07-2.48,11.32c-2.27,3.25-5.87,5.54-9.77,6.23"/>
	<path class="st0" d="M524.48,244.19c-6.41,1.15-11.83,5.31-16.74,9.59c-4.91,4.28-9.74,8.91-15.78,11.36"/>
	<path class="st0" d="M504.86,243.22c-0.24,8.6-7.29,16.52-15.81,17.74"/>
	<path class="st0" d="M493.97,271.81c-1.67-4.31-5.35-7.6-9.44-9.74c-4.1-2.14-8.64-3.26-13.12-4.36
		c-8.6-2.11-17.21-4.22-25.81-6.33"/>
	<path class="st0" d="M463.31,255.8c-9.22-15.92-27.22-26.35-45.62-26.44"/>
	<path class="st0" d="M454.65,255.3c-13.81-2.16-25.53-11.31-35.02-21.57c-9.48-10.26-17.43-21.94-27.62-31.5
		c-6.54-6.14-14.52-11.55-23.49-11.91c-8.96-0.36-18.62,6.09-18.97,15.05"/>
	<path class="st0" d="M344.52,214.05c-1.86,8.63,2.95,17.59,9.8,23.16c6.85,5.56,15.45,8.41,23.84,11.15"/>
	<path class="st0" d="M388.52,238.58c19.91,23.41,50.39,37.46,81.12,37.39c20.52-0.04,40.48-6,60.56-10.23
		c20.07-4.24,41.39-6.7,60.78,0.02c23.02,7.98,41.2,28.22,65.29,31.91"/>
	<path class="st0" d="M363.31,225.4c5.62-2.44,11.25-4.88,16.87-7.33c1.49-0.65,3.24-1.29,4.69-0.54c2.14,1.12,1.89,4.21,1.34,6.56"
		/>
	<path class="st0" d="M441.6,252.72c-15.74-13.77-30.55-28.61-44.29-44.37c-5.97-6.85-12.19-14.19-20.81-17.09
		c-11.32-3.8-25.05,2.18-29.98,13.06"/>
	<path class="st0" d="M320.39,212.88c-2.69,6.66-1.1,14.47,2.65,20.59s9.39,10.83,15.19,15.07"/>
	<path class="st0" d="M347.97,252.63c27.02,24.62,60.42,43.17,96.61,48.31c48.99,6.96,100.34-10.62,147.7,3.71"/>
	<path class="st0" d="M592.48,309.26c-6.15,6.5-16.4,5.9-25.35,6.03c-26.76,0.38-52.06,11.38-76.7,21.83
		c-24.64,10.45-50.42,20.72-77.15,19.51"/>
	<path class="st0" d="M372.84,238.44c8.03,20.86,25.99,36.91,46.43,45.95c20.44,9.04,43.22,11.62,65.57,11.17s44.51-3.81,66.74-6.18
		c19.45-2.07,40.57-3,59.4,10.73c3.91,3.37,4.8,9.36,3.09,14.23c-1.71,4.86-5.59,8.69-9.9,11.53c-11.83,7.77-26.75,8.9-40.91,8.67
		c-14.15-0.23-28.59-1.56-42.25,2.14c-13.61,3.68-25.38,12.04-37.98,18.36c-17.75,8.91-37.19,13.77-56.46,18.57"/>
	<path class="st0" d="M415.04,378.46c-27.99,5.27-57.29,3.43-84.4-5.31"/>
	<path class="st0" d="M393.06,366.76c-26.03,2.51-52.76-2.64-75.99-14.64"/>
	<path class="st0" d="M316.31,340.99c14.67,14.17,35.43,21.81,55.79,20.53"/>
	<path class="st0" d="M324.95,340.77c0.71-1.28,1.44-2.59,2.53-3.56c1.09-0.97,2.64-1.56,4.05-1.14c2.41,0.72,3.09,3.7,3.88,6.09
		c1.01,3.02,2.84,5.77,5.23,7.87"/>
	<path class="st0" d="M362.03,354.44c1.5-2.36,4.01-4.05,6.75-4.57c2.75-0.52,5.69,0.15,7.95,1.79c2.69,1.96,4.36,5.18,7.28,6.8"/>
	<path class="st0" d="M339.55,348.05c2.66-0.41,5.06-1.75,7.56-2.75c2.49-1,5.33-1.67,7.84-0.7c2.11,0.81,3.65,2.65,4.83,4.57
		s2.09,4.02,3.47,5.81"/>
	<path class="st0" d="M384.21,358.79c3.33-1.66,5-5.46,5.86-9.08c0.85-3.62,1.19-7.45,2.97-10.72c0.39-0.71,0.9-1.44,1.68-1.68
		c1.11-0.35,2.25,0.42,3.08,1.23c2.99,2.94,4.61,6.94,6.46,10.7s4.21,7.57,7.97,9.42"/>
	<path class="st0" d="M568.3,286.39c-29.8,4.82-59.82,8.22-89.94,10.18"/>
	<path class="st0" d="M552.04,260.41c-26.54,5.82-53.08,11.63-79.62,17.45"/>
	<path class="st0" d="M569.48,259.96c24.18,6.57,47.25,17.24,67.91,31.43"/>
	<path class="st0" d="M407.57,259.63c14.06,7.96,29.43,13.59,45.31,16.58"/>
	<path class="st0" d="M526.79,304.93c-21.01,3.64-42.15,7.29-63.47,7.37c-21.33,0.08-43.06-3.59-61.78-13.8"/>
	<path class="st0" d="M402.7,342.33c13.81,3.97,28.65,2.54,42.6-0.91c13.95-3.45,27.33-8.86,41.1-12.93
		c12.54-3.71,25.94-6.58,35.86-15.1"/>
	<path class="st0" d="M390,341.8c-37.96-1.8-69.67-27.03-106.95-31.91c-10.08-1.32-20.46-1.15-30.33,1.48"/>
	<path class="st0" d="M298.83,343.4c-5.32-5.28-12.29-8.58-19.36-11.09c-7.06-2.51-14.37-4.35-21.28-7.27
		c-2.19-0.93-4.41-2.01-5.95-3.83c-1.54-1.81-2.25-4.53-1.12-6.62"/>
	<path class="st0" d="M365.26,410.94c-22.51-2.31-44.58-8.81-64.76-19.05c-6.91-3.51-14.15-8.12-16.39-15.53
		c-1.7-5.62-0.07-11.82,3.01-16.81c3.08-4.99,7.49-9,11.84-12.94"/>
	<path class="st0" d="M350.85,394.61c6.92,3.88,9.54,12.77,16.01,17.35c6.51,4.61,15.25,3.83,23.17,2.86"/>
	<path class="st0" d="M369.02,389.35c3.92,8.77,13.24,13.67,19.52,20.94c0.82,0.95,1.64,2.07,1.6,3.33s-1.4,2.49-2.53,1.92"/>
	<path class="st0" d="M379.31,400.52c1.78,2.26,5.2,2.15,8.03,1.62c6.99-1.31,13.69-3.85,20.59-5.58s14.25-2.65,21.08-0.67"/>
	<path class="st0" d="M417.04,388.27c6.43,2.64,12.48,6.26,19.15,8.21c6.67,1.95,14.42,1.97,19.99-2.18"/>
	<path class="st0" d="M435.87,381.59c7.38,5.44,14.92,10.97,23.62,13.88c8.7,2.91,18.9,2.82,26.39-2.48"/>
	<path class="st0" d="M461.36,376.77c6.52,6.15,13.22,12.43,21.47,15.94c8.25,3.51,18.5,3.73,25.57-1.78"/>
	<path class="st0" d="M480.92,369.01c13.98,17.98,39.2,26.36,61.16,20.31"/>
	<path class="st0" d="M504.66,362.87c10.3,12.71,25.24,21.58,41.33,24.55c1.86,0.34,3.92,0.58,5.55-0.39
		c1.63-0.96,2.3-3.63,0.76-4.74"/>
	<path class="st0" d="M518.14,354.76c11.29,8.33,23.1,15.96,35.33,22.83c4.16,2.34,8.47,4.63,13.19,5.34
		c4.72,0.71,9.98-0.43,13.11-4.03"/>
	<path class="st0" d="M541,347.69c20.61,21.09,45.95,37.55,73.6,47.8"/>
	<path class="st0" d="M584.36,350c14.42,7.04,26.43,18.93,33.6,33.29c1.15,2.3,2.2,4.83,1.8,7.37c-0.4,2.54-2.84,4.91-5.34,4.3"/>
	<path class="st0" d="M616.55,378.92c3.62,1.91,7.72,2.92,11.82,2.89c2.5-0.01,5.21-0.51,6.92-2.33c1.5-1.6,1.94-3.97,1.64-6.14
		c-0.31-2.17-1.28-4.18-2.32-6.11c-3.36-6.24-7.59-12-12.53-17.09"/>
	<path class="st0" d="M628.56,356.98c7.81,6.7,16.74,12.09,26.31,15.87c2.3,0.91,4.71,1.74,7.18,1.66c2.47-0.07,5.05-1.23,6.2-3.42
		c0.88-1.69,0.8-3.73,0.47-5.61c-1.06-5.95-4.4-11.3-8.55-15.69c-4.15-4.39-9.09-7.94-14.01-11.46c-4.35-3.11-8.69-6.22-13.04-9.33"
		/>
	<path class="st0" d="M651.11,314.55c10.03,2.13,19.41,7.23,26.66,14.49c1.91,1.91,3.71,4.03,4.6,6.58
		c0.89,2.55,0.72,5.61-1.02,7.67c-2.31,2.73-6.42,2.89-9.98,2.53c-13.45-1.37-26.41-7.2-36.36-16.36"/>
	<path class="st0" d="M655.59,313.64c9.15,0.39,18.35,0.78,27.42-0.47c9.07-1.25,18.09-4.24,25.24-9.97
		c1.44-1.15,2.84-2.48,3.45-4.22c0.61-1.74,0.15-3.97-1.45-4.88c-12.13,4.12-26.01,2.72-37.07-3.75
		c-9.48-5.54-17.32-14.72-28.14-16.59"/>
	<path class="st0" d="M611.84,273.32c12.92-1.99,25.48-6.37,36.83-12.85"/>
	<path class="st0" d="M603.55,251.41c12.28-1.27,24.64-1.81,36.99-1.6c4.33,0.07,9.37,0.63,11.65,4.31"/>
	<path class="st0" d="M568.3,248.25c16.28-10.78,33.93-19.48,52.39-25.84"/>
	<path class="st0" d="M624.31,225.05c-6.92,15.38-19.45,28.15-34.69,35.37"/>
	<path class="st0" d="M539.22,391.04c-2.33,1.76-2.69,5.58-0.75,7.75c1.59,1.78,4.16,2.27,6.55,2.44c7.39,0.52,14.93-1.16,21.4-4.76
		"/>
	<path class="st0" d="M538.94,398.76c-6.66,2.32-12.31,7.41-15.3,13.79c-1.21,2.58-1.87,5.97,0.12,8.02c0.97,1,2.38,1.43,3.75,1.7
		c5.99,1.17,12.43-0.22,17.41-3.74"/>
	<path class="st0" d="M523.6,418.36c-6.32,1.63-12.03,5.53-15.84,10.83c-1.12,1.55-2.09,3.25-2.5,5.11s-0.23,3.92,0.83,5.52
		c1.83,2.75,5.65,3.39,8.92,2.89c3.26-0.5,6.37-1.87,9.66-2.15"/>
	<path class="st0" d="M504.17,436.55c-7.98,1.69-15.17,6.85-19.31,13.88c-1.81,3.07-3.07,6.78-2.02,10.18
		c0.92,2.96,3.52,5.21,6.46,6.17c2.94,0.96,6.17,0.72,9.14-0.16"/>
	<path class="st0" d="M482.52,456.83c-5.46,0.99-10.78,3.19-14.95,6.86s-7.1,8.88-7.44,14.42c-0.19,3.01,0.42,6.15,2.18,8.59
		s4.79,4.08,7.78,3.71"/>
	<path class="st0" d="M460.09,480.46c-5.14,1.55-9.87,4.43-13.6,8.29c-2.73,2.83-4.97,6.27-5.72,10.13
		c-0.75,3.86,0.17,8.17,2.97,10.93c2.8,2.77,7.57,3.55,10.8,1.3"/>
	<path class="st0" d="M441.23,507.54c-7.18,2.63-13.29,8.04-16.77,14.84c-1.44,2.83-2.45,5.95-2.32,9.12
		c0.13,3.17,1.54,6.39,4.15,8.19c2.61,1.81,6.45,1.89,8.83-0.21"/>
	<path class="st0" d="M422.01,532.64c-7.14,3.84-12.05,11.56-12.49,19.66c-0.17,3.17,0.33,6.47,2.02,9.15
		c3.09,4.9,10.21,6.71,15.26,3.88"/>
	<path class="st0" d="M408.7,558.25c-6.91,6.47-11.31,15.55-12.11,24.98c-0.52,6.15,0.6,12.74,4.61,17.43
		c4.01,4.69,11.4,6.75,16.63,3.48"/>
	<path class="st0" d="M397.42,598.16c-6.22,9.12-9.07,20.48-7.89,31.45c0.57,5.29,2.69,11.22,7.71,13c4.43,1.57,9.2-0.75,13.32-3.01
		"/>
	<path class="st0" d="M394.7,636.15c-1.48,5.38-2.97,10.8-3.49,16.37c-0.51,5.56,0,11.33,2.38,16.39
		c2.38,5.05,6.79,9.31,12.21,10.67c5.42,1.36,11.74-0.61,14.78-5.3"/>
	<path class="st0" d="M394.01,666.09c-4.84,5.46-6.95,13.24-5.54,20.4c1.42,7.16,6.33,13.55,12.89,16.76
		c4.3,2.1,9.98,2.66,13.48-0.61"/>
	<path class="st0" d="M406.41,699.65c-2.77,5.72-5.07,11.85-5.07,18.21c-0.01,6.35,2.64,13,7.98,16.44c5.34,3.44,13.45,2.62,17-2.65
		"/>
	<path class="st0" d="M412.94,732.83c1.27,8.74,6.19,17.19,13.94,21.41c7.76,4.22,18.33,3.43,24.52-2.87"/>
	<path class="st0" d="M435.48,758.1c1.61,4.05,4.8,7.45,8.73,9.32c3.94,1.87,8.58,2.2,12.74,0.9"/>
	<path class="st0" d="M419.98,629.08c-0.18,21.6,0.74,43.43,6.51,64.25c5.76,20.81,16.74,40.71,33.74,54.02"/>
	<path class="st0" d="M555.36,421.77c-30.36,27.28-58.66,56.86-84.57,88.39c-21.25,25.85-41.54,54.56-46.03,87.72"/>
	<path class="st0" d="M423.08,606.27c-3.19,16.74-4.08,33.92-2.63,50.89"/>
	<path class="st0" d="M542.07,353.25c13.03,10.29,26.05,20.57,39.08,30.86"/>
	<path class="st0" d="M572.57,375.69c10.31,10.71,24.13,17.99,38.79,20.42"/>
	<path class="st0" d="M581.56,381.18c9.84,5.6,20.11,10.43,30.7,14.42"/>
	<path class="st0" d="M521.25,357.32c13.89,12.35,30.16,22.02,47.65,28.32"/>
	<path class="st0" d="M629.09,358.3c9.27,7.39,18.96,15,30.53,17.6c3.33,0.75,6.96,1.03,10.05-0.43c3.09-1.47,5.32-5.15,4.16-8.37"
		/>
	<path class="st0" d="M683.13,377.57c1.41-4.44,2.83-8.88,4.24-13.32c-3.75,27.81-17.81,53.23-34.28,75.95s-35.56,43.49-51.43,66.64
		c-8.17,11.91-15.56,24.66-18.87,38.71s-2.15,29.67,5.8,41.72"/>
	<path class="st0" d="M624.76,170.49c51.06-2.62,101.46-17.4,145.84-42.79"/>
	<path class="st0" d="M663.7,170.6c31.2-6.92,61.51-17.8,89.99-32.3"/>
	<path class="st0" d="M462.71,253.46c4.67-6.8,12.48-11.34,20.7-12.04c4.13-0.35,8.93,0.61,10.97,4.21c1.69,2.99,0.84,6.9-1.18,9.69
		c-2.02,2.78-5,4.68-7.91,6.51"/>
	<path class="st0" d="M485.35,206.17c-9.69,3.41-18.62,8.92-26.01,16.05c-3.13,3.02-6.19,7.44-4.38,11.39
		c1.05,2.28,3.52,3.64,5.99,4.06c2.48,0.42,5.01,0.06,7.5-0.21c10.3-1.12,20.75-0.75,30.94,1.1c6.63,1.2,13.19,3.03,19.92,3.21
		s13.88-1.54,18.54-6.4"/>
	<path class="st0" d="M523.75,245.73c-9.48,3.56-18.14,9.27-25.15,16.57"/>
	<path class="st0" d="M552.05,831.22c-14.21,13.97-36.1,19.58-55.28,14.16s-34.9-21.65-39.69-41s1.52-41.04,15.94-54.79
		c10.46-9.09,24.43-14.28,34.89-12.04c-18.4-1.34-36.98,8.93-46.25,24.88c-9.27,15.95-9.15,36.75-0.32,52.95
		c8.83,16.2,25.86,27.45,44.14,29.97C523.77,847.87,542.89,841.82,552.05,831.22z"/>
	<path class="st0" d="M524.03,722.52c-6.1,10.9-15.22,20.08-26.07,26.26c-7.35,4.19-15.53,7.06-22.06,12.43s-11.21,14.37-8.22,22.28
		"/>
	<path class="st0" d="M483.42,797.45c6.1,1.95,12.87-1.6,16.66-6.76s5.27-11.61,6.65-17.86"/>
	<path class="st0" d="M469.78,778.58c3.36-1.59,7.45-0.83,10.66,1.05s5.71,4.73,8.15,7.53"/>
	<path class="st0" d="M475.59,778.16c-6.48,13.94-6.32,30.8,0.43,44.61"/>
	<path class="st0" d="M504.42,784.6c11.07-12.65,28.48-19.46,43.19-17.13c7.83,11.1,12.63,24.32,13.75,37.86"/>
	<path class="st0" d="M553.43,781.07c-2.56-5.3-4.88-10.72-6.93-16.24"/>
	<path class="st0" d="M565.42,803.08c1.14-2.52,2.84-4.79,4.95-6.58c-8.08,5.52-13.07,15.3-12.78,25.08
		c0.03,1.08,0.14,2.2,0.69,3.12c0.55,0.93,1.66,1.6,2.7,1.32"/>
	<path class="st0" d="M568.94,826.9c-6.65,6.31-15.07,10.73-24.05,12.61"/>
	<path class="st0" d="M582.49,756.38c-2.74,10.81-0.75,22.73,5.35,32.06c2.58,3.94,5.84,7.44,8,11.62
		c3.86,7.47,3.68,16.89-0.45,24.21c-4.14,7.33-12.11,12.34-20.5,12.9"/>
	<path class="st0" d="M575.53,708.99c-12.34-5.53-26.41-5.55-39.89-4.43c-13.48,1.12-27.02,3.28-40.46,1.75
		c-6.71-0.76-13.39-2.45-20.13-2.01c-6.74,0.44-13.87,3.58-16.65,9.73c-2.26,4.99-1.13,11.09,2,15.57c3.14,4.49,8.04,7.5,13.2,9.32
		c5.16,1.82,10.64,2.54,16.07,3.25"/>
	<path class="st0" d="M497.98,703.23c-17.55-14.97-21.07-43.07-9.6-63.08s35.75-31.12,58.73-29.05
		c22.98,2.07,44.01,16.21,56.77,35.43"/>
	<path class="st0" d="M635.95,677.91c15.84,13.93,28.96,30.94,38.41,49.79"/>
	<path class="st0" d="M692.64,713.64c-4.88-37.28,10.81-76.59,40.01-100.28"/>
	<path class="st0" d="M497.89,704.32c-8.87-11.54-15.08-25.47-15.65-40s5.01-29.62,16.26-38.85c9.43-7.74,21.93-10.84,34.12-11.3
		c27.8-1.05,55.8,11.28,73.8,32.48"/>
	<path class="st0" d="M616.29,655.82c33.25,24.37,59.39,58.33,74.44,96.71"/>
	<path class="st0" d="M727.61,618.26c-27.76,24.17-41.81,63.14-35.85,99.46"/>
	<path class="st0" d="M740.59,614.76c-4.4,23.34-4.12,47.55,0.83,70.79"/>
	<path class="st0" d="M743.23,699.34c5.9,18.29,10.07,37.14,12.46,56.21"/>
	<path class="st0" d="M734.01,610.13c3.4-2.63,9.18-0.87,10.55,3.21"/>
	<path class="st0" d="M721.09,744.91c-1.22-3.29-1.73-7-0.54-10.3s4.43-6,7.93-5.78c3.27,0.2,6.01,2.87,7.1,5.96
		c1.09,3.09,0.78,6.5,0.04,9.69c-1.66,7.1-5.48,13.68-10.82,18.63c-4.5,4.17-11.49,7.19-16.61,3.81c-3.14-2.07-4.54-5.92-5.47-9.57
		c-1.54-6.05-2.31-12.42-1.1-18.54c1.21-6.12,4.61-12,9.96-15.22c8.84-5.33,21.31-1.76,27.47,6.51c6.17,8.28,6.53,19.94,2.65,29.5
		s-11.46,17.23-19.92,23.13"/>
	<path class="st0" d="M717.06,775.74c-27.63-1.51-52.53-16.43-75.74-31.49c-23.21-15.07-47.01-31.12-74.35-35.43"/>
	<path class="st0" d="M582.72,772.54c21.24-0.4,39.07,15.04,54.46,29.69c15.39,14.64,32.8,30.37,54.04,30.73"/>
	<path class="st0" d="M699.3,834.56c18.52,0.99,35.42-12.33,44.26-28.63c8.84-16.3,11.22-35.21,13.46-53.62"/>
	<path class="st0" d="M622.16,789.12c3.75,4.1,7.5,8.2,11.39,12.18c10.36,10.61,21.81,20.44,35.14,26.95
		c13.33,6.51,28.76,9.51,43.2,6.14"/>
	<path class="st0" d="M718.45,833.06c10.9-2.79,19.51-11.54,24.77-21.49c5.26-9.95,7.64-21.13,9.97-32.14"/>
	<path class="st0" d="M901.4,454.39c-22.94,7.86-41.07,26.22-53.62,46.98s-20.19,44.03-28.09,66.96
		c-11.47,33.3-23.69,66.33-36.64,99.08c-7.68,19.43-15.9,39.2-29.97,54.64"/>
	<path class="st0" d="M843.75,507.46c-12.68,35.3-25.36,70.59-38.04,105.89c-13.81,38.43-27.79,77.23-49.76,111.66"/>
	<path class="st0" d="M870.65,471.78c4.97-7.01,11.44-13.3,19.53-16.21s17.96-1.84,24.09,4.18c8.42,8.27,7.22,22.17,3.53,33.38
		c-8.62,26.17-26.88,47.81-42.48,70.51c-16.89,24.58-31.2,51.65-36.24,81.05c-5.04,29.4,0.14,61.51,18.82,84.77"/>
	<path class="st0" d="M917.03,500.81c-12.68,26.08-30.54,49.23-46.48,73.45s-30.31,50.38-34.63,79.06s3,60.47,24.71,79.7"/>
	<path class="st0" d="M984.73,573.62c-15.74,3.08-28.7,17.07-30.56,33c-0.72,6.19,0.07,12.5-0.96,18.64
		c-1.03,6.14-4.55,12.51-10.54,14.21"/>
	<path class="st0" d="M857.53,737.89c3.9-6.02,3.76-13.81,2.32-20.83s-4.04-13.83-4.64-20.98c-1.1-13.1,5.18-26.57,15.92-34.15
		c11.11-7.84,25.37-9.14,38.85-10.98c13.47-1.85,27.89-5.06,36.85-15.3"/>
	<path class="st0" d="M922.22,648.96c-13.38,1.19-27.02,2.64-39.24,8.22c-12.22,5.58-22.97,16.08-25.35,29.3
		c-2.68,14.91,5.49,29.78,4.92,44.92"/>
	<path class="st0" d="M965.38,581.92c-7.32-6.44-9.69-17.03-8.95-26.75c0.74-9.72,4.09-19.02,6.42-28.49
		c4.27-17.39,5.08-35.62,2.36-53.32"/>
	<path class="st0" d="M964.62,607.32c1.23-2.91,2.51-5.87,4.56-8.27c2.06-2.4,5.05-4.21,8.21-4.06c4.61,0.21,8.17,4.55,9.06,9.08
		s-0.28,9.17-1.49,13.62c-2.86,10.47-6.09,20.94-11.35,30.44s-12.72,18.05-22.38,22.99"/>
	<path class="st0" d="M949.11,680.25c0.92,4.26,4.54,7.65,8.71,8.91c4.17,1.26,8.76,0.58,12.72-1.25s7.32-4.73,10.28-7.93"/>
	<path class="st0" d="M973.89,686.48c-2.2,6.82-3.23,14.02-3.02,21.19c0.07,2.43,0.32,4.96,1.6,7.03c1.26,2.02,3.5,3.4,5.87,3.62
		c2.37,0.22,4.83-0.73,6.43-2.49"/>
	<path class="st0" d="M966.72,609.84c0.84-5.44,2.46-11.87,7.67-13.67c3.88-1.34,8.34,0.78,10.73,4.11s3.08,7.61,3.14,11.71
		c0.17,11.08-3.75,21.99-9.85,31.25s-14.27,16.99-23.08,23.72"/>
	<path class="st0" d="M966.06,471.59c10.93,4.81,18.05,15.78,21.76,27.13c3.72,11.35,4.64,23.4,6.92,35.13
		c4.87,25.1,16.13,48.94,32.41,68.65c0,0,5.61,7.69,4.89,7.38c12.37,31.77,7.35,69.72-12.86,97.18"/>
	<path class="st0" d="M1033.78,672.12c-11.58,33.28-32.67,63.19-60.12,85.28"/>
	<path class="st0" d="M957.09,687.61c-22.54,24.69-27.99,61.84-51.82,85.27"/>
	<path class="st0" d="M922.58,748.61c-2.99,4.19-8.65,5.37-13.79,5.71c-16.25,1.07-32.81-3.2-46.52-11.98
		c-3.8-2.44-7.57-5.28-12.02-6.01c-4.99-0.82-10.12,1.23-14.08,4.38c-3.96,3.15-6.96,7.32-9.91,11.44"/>
	<path class="st0" d="M829.97,779.2c-5.14-2.24-8.84-7.45-9.28-13.04c-0.44-5.59,2.41-11.31,7.13-14.33
		c4.65-2.97,10.6-3.26,15.98-2.05c5.38,1.22,10.33,3.8,15.25,6.3c6.94,3.53,13.99,6.96,21.48,9.09c7.49,2.14,15.5,2.93,23.08,1.14"
		/>
	<path class="st0" d="M825.19,795.39c-0.53-10.18,8.09-19.04,17.79-22.16s20.21-1.81,30.28-0.26c10.07,1.55,20.44,3.29,30.36,0.95"
		/>
	<path class="st0" d="M825.91,806.93c4.07,6.06,11.53,9.11,18.81,9.65c7.28,0.53,14.52-1.1,21.65-2.62
		c18.32-3.91,37.44-7.18,55.63-2.69c19.51,4.81,37.18,18.34,57.25,17.42"/>
	<path class="st0" d="M977.61,755.97c-10.67,8.43-17.23,21.83-17.34,35.43c-0.11,13.6,6.23,27.1,16.77,35.7"/>
	<path class="st0" d="M829.55,750.83c-4.27,1.84-7.11,6.09-8.46,10.54c-1.21,3.98-1.4,8.41,0.29,12.22s5.47,6.81,9.63,6.82"/>
	<path class="st0" d="M719.43,830.16c20.45-9.43,33.28-31.13,37.01-53.34c3.73-22.21-0.42-44.99-6.28-66.74
		s-13.44-43.12-16.79-65.39"/>
	<path class="st0" d="M968.79,612.59c-0.27-3.13-0.53-6.33,0.24-9.37c0.76-3.05,2.76-5.97,5.73-6.99
		c5.65-1.95,11.24,3.81,12.68,9.61c2.07,8.36-0.82,17.13-4.58,24.88c-8.51,17.55-21.76,32.78-36,46.38
		c-1.31,4.36,1.42,9.24,5.47,11.32c4.05,2.08,8.99,1.74,13.25,0.13c4.26-1.6,7.97-4.35,11.63-7.05"/>
	<path class="st0" d="M971.87,687.91c-2.57,6.36-3.54,13.36-2.81,20.18c0.42,3.92,1.91,8.37,5.64,9.65
		c3.03,1.04,6.33-0.49,8.99-2.28c6.31-4.25,11.44-10.24,14.67-17.13"/>
	<path class="st0" d="M1006.74,595.88c5.01,19.35,0.32,39.74-4.37,59.17"/>
	<path class="st0" d="M818.89,767.21c-6.7,9.41-11.81,19.96-15.04,31.05"/>
	<path class="st0" d="M810.29,797.4c5.89-5.62,11.78-11.24,17.66-16.86"/>
	<path class="st0" d="M567.59,828.86c-7.9,5.37-16.88,9.14-26.25,11"/>
	<path class="st0" d="M598.94,581.9c2.51-3.63,6.62-6.11,11-6.63s8.96,0.92,12.25,3.86"/>
	<path class="st0" d="M638.63,574.93c-3.75-2.61-9.18-1.97-12.77,0.85s-5.49,7.41-5.86,11.97"/>
	<path class="st0" d="M653.83,550.51c-11.11,7.63-17.11,22.04-14.71,35.3"/>
	<path class="st0" d="M667.38,530.26c-5.43,3.63-9.67,9.01-11.95,15.13c-2.28,6.12-2.58,12.96-0.84,19.26"/>
	<path class="st0" d="M675.5,497.86c-9.2,11.07-11.34,27.51-5.3,40.57"/>
	<path class="st0" d="M686.28,475.05c0.17-1.68-2.14-2.7-3.67-1.98s-2.32,2.41-2.92,3.99c-4.24,11.19-4.59,23.82-0.97,35.23"/>
	<path class="st0" d="M699.49,456.14c-0.44-1.54-2.44-2.18-3.96-1.67c-1.52,0.52-2.6,1.84-3.48,3.18
		c-3.06,4.67-4.57,10.22-5.14,15.77c-0.58,5.55-0.27,11.15,0.04,16.73"/>
	<path class="st0" d="M713.2,419.65c-2.35,0.16-4.46,1.64-5.88,3.52c-1.42,1.88-2.24,4.13-2.96,6.38
		c-3.4,10.59-4.93,21.78-4.5,32.89"/>
	<path class="st0" d="M728.62,396.24c-1.93-1.87-5.17-1.78-7.48-0.41c-2.31,1.37-3.83,3.75-4.99,6.17
		c-4.22,8.84-4.51,18.98-4.72,28.78"/>
	<path class="st0" d="M403.48,299.5c-1.64-1.4-4.21-0.58-5.94,0.71c-1.73,1.29-3.27,3.04-5.37,3.51c-1.95,0.44-3.98-0.33-5.98-0.22
		c-2.11,0.12-4.02,1.21-6.01,1.91c-1.99,0.71-4.4,0.97-6.05-0.35"/>
	<path class="st0" d="M367.53,287.51c1.96,0.5,3.21,2.49,3.67,4.46c0.46,1.97,0.33,4.03,0.64,6.03c0.46,3.05,1.95,5.93,4.16,8.07"/>
	<path class="st0" d="M349.18,275.47c0.85,3.56,1.7,7.13,2.55,10.69c0.59,2.47,1.43,5.26,3.73,6.32c2.38,1.09,5.16-0.23,7.26-1.81
		c2.09-1.58,4.14-3.52,6.75-3.84"/>
	<path class="st0" d="M348.42,205.75c-5.7-1.99-11.63-3.57-17.67-3.56s-12.23,1.73-16.79,5.69c-5.68,4.95-8.16,12.94-7.5,20.45
		s4.16,14.54,8.75,20.51c4.6,5.97,10.28,11.01,17.09,15.96c1,3.39,3.48,6.31,6.67,7.85c3.18,1.54,7.02,1.66,10.29,0.33"/>
	<path class="st0" d="M753.61,364.73c-3.44-1.93-7.92-1.39-11.25,0.73c-3.33,2.12-5.61,5.6-6.99,9.3c-1.38,3.7-1.94,7.64-2.5,11.55"
		/>
	<path class="st0" d="M781.66,333.65c-0.69-2.65-3.95-3.95-6.62-3.37c-2.67,0.59-4.82,2.55-6.64,4.59
		c-10.09,11.32-14.11,26.64-17.81,41.35"/>
	<path class="st0" d="M804.58,318.97c0.46-3.58-3.43-6.59-7.03-6.37c-3.61,0.22-6.68,2.72-8.98,5.51
		c-5.58,6.74-8.08,15.45-10.43,23.88"/>
	<path class="st0" d="M841.55,304.67c-1.27-4.49-6.12-7.37-10.79-7.29s-9.02,2.64-12.24,6.03s-5.48,7.55-7.67,11.67
		c-2.19,4.13-4.39,8.31-7.52,11.78"/>
	<path class="st0" d="M872.89,291.44c0.81-1.66,0.39-3.76-0.75-5.21c-1.15-1.45-2.92-2.31-4.73-2.66
		c-5.61-1.09-11.16,2.28-15.15,6.38s-7.11,9.05-11.62,12.57"/>
	<path class="st0" d="M903.66,290.47c-0.32-4.45-4.16-8.15-8.5-9.2c-4.34-1.05-8.98,0.17-12.86,2.38s-7.12,5.36-10.33,8.47"/>
	<path class="st0" d="M937.68,292.31c0.64-3.78-1.44-7.7-4.59-9.9c-3.15-2.2-7.17-2.85-11-2.53c-9.9,0.82-18.24,7.51-25.51,14.28"/>
	<path class="st0" d="M972.73,299.27c2.25-2.53,2.15-6.61,0.27-9.42c-1.87-2.81-5.18-4.44-8.52-4.94c-3.34-0.5-6.76,0.01-10.06,0.72
		c-10.95,2.34-21.43,6.87-30.64,13.25"/>
	<path class="st0" d="M1005.3,306.73c1.98-2.62,1.03-6.64-1.34-8.9s-5.77-3.12-9.04-3.44c-11.97-1.19-23.67,3.47-34.8,8.03"/>
	<path class="st0" d="M1023.63,325.34c2,0.14,3.95-0.94,5.26-2.47s2.04-3.46,2.57-5.4c0.6-2.18,0.95-4.58,0.03-6.65
		c-1.11-2.51-3.81-3.9-6.43-4.71c-9.06-2.8-18.82-0.83-28.09,1.15"/>
	<path class="st0" d="M1048.51,344.08c4.28-1.24,6.44-6.59,5.13-10.84s-5.29-7.27-9.55-8.56s-8.81-1.11-13.25-0.79
		s-8.93,0.78-13.32,0.02"/>
	<path class="st0" d="M1064.78,364.6c3.18-0.94,4.72-4.91,3.88-8.12c-0.83-3.21-3.42-5.68-6.22-7.47
		c-7.79-4.99-17.42-5.89-26.64-6.65"/>
	<path class="st0" d="M1076.15,386.94c3.68-2.43,4.8-7.7,3.21-11.81c-1.59-4.11-5.38-7.08-9.51-8.63
		c-4.13-1.54-8.62-1.84-13.03-1.95"/>
	<path class="st0" d="M1088.4,407.85c3.06-0.89,4.76-4.47,4.33-7.63c-0.43-3.16-2.55-5.85-5-7.89c-5.12-4.25-11.74-6.15-18.15-7.95"
		/>
	<path class="st0" d="M1090.31,433.65c3.51-1.15,5.92-4.65,6.47-8.31c0.83-5.52-2.12-11.08-6.29-14.79c-4.17-3.71-9.44-5.92-14.62-8
		"/>
	<path class="st0" d="M1121.2,386.4c-7.3-0.93-14.98,1.67-20.21,6.85c-5.23,5.18-7.92,12.83-7.06,20.14"/>
	<path class="st0" d="M1144.79,371.62c0.75-2.64-0.43-5.43-1.81-7.81c-4.16-7.2-10.39-13.19-17.06-16.39
		c-6.41,7.1-8.16,17.35-7.52,26.89c0.64,9.54,3.37,18.82,4.74,28.29c1.37,9.47,1.24,19.62-3.41,27.98"/>
	<path class="st0" d="M1157.95,408.9c17.81-13.67,27.02-37.69,22.92-59.75c-1.1-5.92-3.3-12-8.01-15.76"/>
	<path class="st0" d="M1140.51,415.26c2.99-9.39,3.83-19.3,4.86-29.1c1.03-9.8,2.3-19.72,6.08-28.82c3.78-9.1,10.4-17.42,19.5-21.21
		"/>
	<path class="st0" d="M1181.13,367.57c17.68-10.74,38.49-16.25,59.17-15.66"/>
	<path class="st0" d="M1174.35,403.02c15.93-5.88,31.02-14.01,44.71-24.06c8.98-6.6,17.73-14.59,21-25.24"/>
	<path class="st0" d="M1209.22,388.99c11.92,4.05,23.44,9.24,34.37,15.49"/>
	<path class="st0" d="M1166.96,422.51c7.75-4.27,16.79-5.54,25.63-5.87c8.84-0.33,17.73,0.19,26.51-0.83
		c8.79-1.02,17.69-3.75,24.24-9.7"/>
	<path class="st0" d="M1208.01,416.25c7.65,4.55,14.47,10.49,20.02,17.45"/>
	<path class="st0" d="M1155.73,438.18c4.01-2.22,8.72-2.87,13.3-2.7c4.58,0.17,9.08,1.13,13.58,1.97
		c7.24,1.34,14.58,2.36,21.94,2.12c7.36-0.24,14.77-1.8,21.22-5.35"/>
	<path class="st0" d="M1177.7,438.24c2.58,2.49,4.28,5.87,4.74,9.42c0.46,3.55-0.32,7.25-2.18,10.32"/>
	<path class="st0" d="M1180.85,457.38c-11.33,3.73-23.9-3.61-34.76,0.24c-1.57,0.36-2.83,1.62-3.54,3.07
		c-0.71,1.45-0.93,3.09-1.02,4.7c-0.42,6.98,1.37,14.08,5.04,20.03"/>
	<path class="st0" d="M1138.73,482.4c4.89,2.59,10.1,4.79,14.14,8.57c4.04,3.78,6.71,9.68,4.86,14.9"/>
	<path class="st0" d="M1147.9,502.21c4.68,0.77,9.05,3.25,12.11,6.86s4.79,8.34,4.77,13.08"/>
	<path class="st0" d="M1157.74,517.15c4.18,1.99,8.26,4.65,10.58,8.66c2.32,4,2.39,9.6-0.86,12.89"/>
	<path class="st0" d="M1164.5,537.74c5.16,2.03,9.53,6.02,12.01,10.98c2.48,4.96,3.07,10.84,1.6,16.19"/>
	<path class="st0" d="M1172.6,559.56c4.03,3.04,8.16,6.2,10.66,10.58c2.5,4.38,2.94,10.35-0.31,14.2"/>
	<path class="st0" d="M1176.58,582.07c2.91,1.19,5.83,2.38,8.46,4.1c2.63,1.72,4.96,4.01,6.23,6.88c2,4.52,0.92,10.22-2.6,13.69"/>
	<path class="st0" d="M1177.96,605.16c4.52,0.86,8.64,3.68,11.06,7.6s3.13,8.85,1.88,13.29"/>
	<path class="st0" d="M1180.24,621.45c5.06,2.77,9.73,6.73,11.93,12.06c2.19,5.33,1.32,12.18-3.14,15.84"/>
	<path class="st0" d="M1179.95,644.5c4.33,1.95,7.86,5.59,9.69,9.97c1.83,4.38,1.93,9.45,0.28,13.9"/>
	<path class="st0" d="M1180.97,662.86c5.82,1.73,10.52,6.81,11.79,12.74s-0.94,12.49-5.55,16.45"/>
	<path class="st0" d="M1176.85,680.83c6.32,2.65,10.08,9.73,10.03,16.58c-0.04,6.85-3.36,13.36-7.88,18.51"/>
	<path class="st0" d="M1166.25,703.49c6.17,2.87,10.65,9.1,11.41,15.87c0.76,6.77-2.24,13.83-7.62,18"/>
	<path class="st0" d="M1156.31,724.34c4.42,1.12,7.95,4.84,9.38,9.18c1.43,4.34,0.91,9.17-0.86,13.37
		c-1.77,4.21-4.72,7.83-8.08,10.93"/>
	<path class="st0" d="M1140.6,740.65c5.23-0.02,10.38,2.84,13.11,7.29c2.74,4.45,2.97,10.34,0.58,14.99s-7.29,7.91-12.51,8.29"/>
	<path class="st0" d="M1138.73,760.79c3.63,3.75,4.91,9.61,3.18,14.54c-1.73,4.93-6.39,8.7-11.57,9.35"/>
	<path class="st0" d="M1128.19,773.2c3.44,6.41,1.23,14.88-4.01,19.92c-5.24,5.05-12.85,7.03-20.12,6.84"/>
	<path class="st0" d="M1102.36,790.19c3.17,2.06,5,6.02,4.52,9.77c-0.48,3.75-3.25,7.12-6.83,8.32"/>
	<path class="st0" d="M1083.21,803.09c1.06,2.37,0.17,5.27-1.58,7.19c-1.76,1.92-4.22,3.01-6.69,3.83
		c-2.47,0.82-5.02,1.42-7.34,2.59"/>
	<path class="st0" d="M1061.33,810.06c-1.19,3.46-4.84,5.48-8.4,6.31s-7.3,0.81-10.81,1.82"/>
	<path class="st0" d="M1066.13,792.39c26.75-10.58,49.98-29.87,65.3-54.22"/>
	<path class="st0" d="M1151.06,710.2c1.87-3.67,3.74-7.34,5.62-11.01"/>
	<path class="st0" d="M1081.49,428.99c3.84,0.91,7.29,3.38,9.39,6.73c2.1,3.35,2.82,7.53,1.96,11.39
		c-1.11,5.02-4.67,9.13-8.48,12.57c-0.41,0.37-0.86,0.75-1.41,0.81c-0.55,0.06-1.18-0.36-1.11-0.91l1.36-0.69"/>
	<path class="st0" d="M1077.35,489.47c4.4-0.5,8.18-3.77,10.03-7.79c1.86-4.02,1.99-8.66,1.19-13.01c-0.8-4.35-2.48-8.48-4.16-12.58
		"/>
	<path class="st0" d="M1074.77,515.18c2.86,0.57,5.82-1.19,7.38-3.66c1.56-2.47,1.94-5.51,1.93-8.43
		c-0.03-4.98-1.68-10.67-6.25-12.65"/>
	<path class="st0" d="M1060.96,541.71c0.91,2.23,3.6,3.42,5.99,3.02c2.38-0.4,4.39-2.11,5.64-4.18s1.83-4.46,2.23-6.84
		c1.42-8.4,0.6-17.73-4.85-24.27"/>
	<path class="st0" d="M1050.37,567.05c1.18,2.13,4.12,2.88,6.4,2.03c2.29-0.85,3.92-2.98,4.72-5.28c0.81-2.3,0.9-4.79,0.91-7.23
		c0.03-7.79-0.88-16.01-5.42-22.34"/>
	<path class="st0" d="M1033.28,585.01c4.78,2.18,10.79,0.08,14.09-4.01c3.3-4.09,4.23-9.7,3.63-14.93
		c-0.59-5.22-2.54-10.19-4.47-15.07"/>
	<path class="st0" d="M1028.45,599.6c1.24,1.98,4.34,2.09,6.2,0.67s2.65-3.86,2.84-6.19c0.5-6.23-2.51-12.14-5.43-17.66"/>
	<path class="st0" d="M1025.85,575.93c17.19-18.94,29.15-42.06,38.72-65.78c6.22-15.43,11.55-31.39,13.36-47.93
		c1.81-16.54-0.09-33.8-7.69-48.6"/>
	<path class="st0" d="M1073.49,408.44c-15.33-33.65-42.98-61.51-76.51-77.11"/>
	<path class="st0" d="M977.2,320.44c-34.9-17.79-76.85-21.22-114.17-9.33"/>
	<path class="st0" d="M848.53,315.95c-32.39,8.31-61.65,28.32-81.15,55.48"/>
	<path class="st0" d="M756.18,388.59c-21.24,25.06-37.55,54.27-47.76,85.49"/>
	<path class="st0" d="M696.39,502.27c-7.74,29.3-21.09,57.11-39.11,81.47"/>
	<path class="st0" d="M586.92,583.76c3.54,7.57,8.69,14.75,16.07,18.67c7.38,3.92,17.3,3.82,23.43-1.86"/>
	<path class="st0" d="M639.36,596.74c12.74-8.15,23.4-19.51,30.72-32.73"/>
	<path class="st0" d="M689.92,515.45c13.25-30.04,26.49-60.09,39.74-90.13"/>
	<path class="st0" d="M747.47,397.09c14-22.23,32.88-41.38,54.91-55.69"/>
	<path class="st0" d="M849.3,314.4c33.19-9,68.62-9.6,102.09-1.73"/>
	<path class="st0" d="M820.94,332.38c-32.17,16.25-58.82,43.19-74.71,75.53"/>
	<path class="st0" d="M737.32,420.54c-13.54,23.47-24.6,48.37-32.94,74.15"/>
	<path class="st0" d="M833.15,324.74c20.38-8.69,42.59-13.05,64.74-12.7"/>
	<path class="st0" d="M913.92,308.43c35.14,0.29,70.04,13.44,96.63,36.42"/>
	<path class="st0" d="M1039.22,361.58c17.78,15.44,29.43,37.75,31.95,61.16"/>
	<path class="st0" d="M1076.33,449.36c-3.33,40.59-18.92,80.09-44.21,112"/>
	<path class="st0" d="M1021.83,577.17c-1.77,2.24-4.18,3.97-10.53,1.79c-6.64-17.27-8.66-35.91-13.03-53.88
		c-4.37-17.98-11.74-36.22-26.18-47.78"/>
	<path class="st0" d="M1034.47,674.31c17.39,2.76,34.98-8.14,43.9-23.31c8.92-15.18,10.4-33.71,8.42-51.21s-7.16-34.44-10.73-51.68"
		/>
	<path class="st0" d="M1131.24,468.95c9.2,35.57,20.53,70.58,33.9,104.8"/>
	<path class="st0" d="M1168.87,600.09c7.19,22.61,7.58,47.34,1.09,70.16"/>
	<path class="st0" d="M1034.56,674c12.88,3.83,27.27-2.1,36.18-12.15c8.92-10.05,13.08-23.51,14.82-36.82"/>
	<path class="st0" d="M1073.68,539c17.87,35.02,20.09,77.66,5.96,114.35"/>
	<path class="st0" d="M1096.3,412.25c-0.97-6.16,0.89-12.71,4.97-17.44c4.07-4.73,10.28-7.54,16.51-7.49"/>
	<path class="st0" d="M1128.76,347.38c-8.53,8.66-9.18,22.33-7.42,34.35s5.38,24.12,3.45,36.12"/>
	<path class="st0" d="M670.42,166.34c39.87-0.97,72.59-34.4,112.21-38.89"/>
	<path class="st0" d="M739.22,167.96c11.56-6.52,22.6-13.95,32.99-22.21c4.93-3.92,10.16-8.97,9.85-15.27"/>
	<path class="st0" d="M256.02,309.04c-3.63,0.01-6.24,4.1-5.77,7.7c0.47,3.6,3.15,6.54,6.11,8.62c12.49,8.79,31.22,6.68,41.65,17.85
		"/>
	<path class="st0" d="M298.21,348.04c-6.32,3.76-12.1,8.94-14.89,15.75c-2.78,6.8-1.95,15.41,3.37,20.48"/>
	<path class="st0" d="M291.5,387.78c18.46,12.97,40.49,20.79,62.99,22.36"/>
	<path class="st0" d="M351.94,394.88c2.61,8.08,8.53,15.03,16.08,18.9c7.55,3.87,16.65,4.62,24.73,2.02"/>
	<path class="st0" d="M580.38,401.11c-36.97,30-71.45,63.07-102.97,98.75c-23.13,26.2-45.45,55.51-50.77,90.05"/>
	<path class="st0" d="M423.11,607.29c-7.53,34.27-2.97,71.06,12.7,102.45"/>
	<path class="st0" d="M423.42,650.32c1.94,32.91,12.76,65.26,31,92.73"/>
	<path class="st0" d="M493.95,701.86c-16.24-11.66-20.27-35.68-12.52-54.11c7.75-18.43,24.95-31.53,43.51-38.98"/>
	<path class="st0" d="M569.29,622.72c11.47,5.28,21.77,13.09,29.96,22.7"/>
	<path class="st0" d="M689.69,715.51c-3.68-44.88,18.04-91,54.98-116.76"/>
	<path class="st0" d="M1064.09,793.01c28.67-10.33,53.98-29.75,71.39-54.76"/>
	<path class="st0" d="M1149.91,711.4c20.48-39.02,24.58-86.32,11.11-128.28"/>
	<path class="st0" d="M1128.79,468.59c9.54,35.49,21.62,70.3,36.13,104.06"/>
	<path class="st0" d="M1165.26,592.99c13.48,34.43,10.56,74.87-7.71,107.01"/>
	<path class="st0" d="M1081.87,558.88c1.08,16.28,4.65,32.31,5.7,48.59c1.05,16.28-0.67,33.39-9.27,47.24
		c-8.61,13.86-25.41,23.51-41.32,19.9"/>
	<path class="st0" d="M1035.96,665.95c-0.29,17.85-9.96,34.29-21.6,47.83c-11.64,13.54-25.46,25.13-36.61,39.07
		c-11.15,13.95-19.7,31.24-15.45,53.65c4.96,6.39,9.92,12.79,14.88,19.18"/>
</g>
</svg>
