<?xml version="1.0" encoding="UTF-8"?><svg id="Layer_1" xmlns="http://www.w3.org/2000/svg" viewBox="0 0 138.364 64.894"><defs><style>.cls-1{fill:none;stroke:#000;stroke-miterlimit:10;}</style></defs><path class="cls-1" d="M4.026,40.691C15.114,19.971,36.289,4.961,59.512,1.359s47.949,4.288,64.794,20.675"/><path class="cls-1" d="M3.927,47.045C14.933,22.945,39.196,5.427,65.534,2.564c26.339-2.864,53.799,9.031,69.727,30.203"/><path class="cls-1" d="M1.227,47.062C12.987,22.399,37.869,4.479,64.988,1.143c27.119-3.337,55.603,8.017,72.99,29.094"/><path class="cls-1" d="M.248,44.231c20.799,11.91,45.423,17.016,69.243,14.359,23.82-2.657,46.713-13.064,64.376-29.265"/><path class="cls-1" d="M134.57,32.288c-16.699,17.267-39.46,28.552-63.313,31.393-23.853,2.84-48.627-2.785-68.577-17.323,21.015,12.613,46.231,18.084,70.583,15.316,24.353-2.768,47.697-13.759,61.307-29.387Z"/><path class="cls-1" d="M65.965,7.286c10.147-4.73,23.655,.002,28.633,10.03,4.977,10.028,.578,23.648-9.325,28.87s-23.627,1.157-29.09-8.615-2.292-24.656,9.783-30.285Z"/><path class="cls-1" d="M68.318,9.148c-7.794,2.907-13.019,11.533-11.985,19.787s8.226,15.325,16.496,16.219c8.27,.894,16.807-4.476,19.582-12.318s-.486-17.386-7.478-21.892"/><path class="cls-1" d="M77.705,7.402c-9.523-1.352-19.563,4.936-22.504,14.094s1.56,20.116,10.09,24.561c8.53,4.446,20.09,1.86,25.913-5.796s5.227-19.487-1.336-26.519"/></svg>