<?xml version="1.0" encoding="utf-8"?>
<!-- Generator: Adobe Adobe Illustrator 24.2.0, SVG Export Plug-In . SVG Version: 6.00 Build 0)  -->
<svg version="1.1" id="Layer_2" xmlns="http://www.w3.org/2000/svg" xmlns:xlink="http://www.w3.org/1999/xlink" x="0px" y="0px"
	 width="800px" height="800px" viewBox="0 0 800 800" style="enable-background:new 0 0 800 800;" xml:space="preserve">
<style type="text/css">
	.st0{fill:none;stroke:#000000;stroke-miterlimit:10;}
</style>
<path class="st0" d="M445.76,228.33c1.67-15.26-4.61-31.24-16.01-40.71c-11.4-9.46-27.52-12.09-41.06-6.68
	c-13.54,5.41-24.04,18.66-27.04,35.62c10.26,11.8,23.65,20.88,38.49,24.02C414.96,243.73,431.23,240.5,445.76,228.33z"/>
<path class="st0" d="M387.38,179.89c-6.03-19.54-8.51-40.31-7.28-60.83c0.75-12.49,3.68-26.28,13.47-33.26
	c3.12-2.23,6.78-3.61,9.58-6.28c2.91-2.77,4.88-6.87,8.51-8.39c1.71-0.72,3.61-0.76,5.45-0.72c8.66,0.16,17.3,1.72,25.53,4.63
	c12.5,4.41,25.24,13.88,26.65,27.78c0.47,4.64-0.4,9.31-1.3,13.87c-5.36,27.12-13.61,56.21-35.02,72.03"/>
<path class="st0" d="M367.44,226.08c-16.84,3.13-34.09,4.24-50.48,9.44c-16.38,5.2-32.36,15.31-40.15,31.48
	c-1.36,2.83-2.47,5.87-2.56,9.04c-0.08,2.66,0.56,5.34,0.12,7.96c-0.81,4.85-5.17,9-4.21,13.82c0.33,1.65,1.26,3.08,2.19,4.44
	c6.12,8.96,13.39,17.23,22.34,22.89c8.95,5.67,19.73,8.57,29.96,6.45c5.25-1.09,10.42-3.46,15.74-2.83
	c6.68,0.79,13.75,6.14,19.44,2.35c1.87-1.25,3.13-3.29,4.32-5.27c6.91-11.47,13.82-22.94,20.74-34.42
	c9.24-15.33,18.85-32.15,19.52-46.58c-2.86,21.93-5.32,46.03,5.98,64.64c2.43,4.01,5.49,7.72,6.83,12.27
	c1.15,3.9,0.95,8.14,2.13,12.02c1.89,6.19,7.51,10.88,13.62,11.36c7.41,0.59,14.14-4.41,21.42-6c8.7-1.9,17.67,1.13,26.54,0.77
	c13.19-0.54,25.02-8.46,35.7-16.7c5.85-4.52,11.86-9.59,14.41-16.79c2.88-8.14,0.63-17.54-3.96-24.74
	c-4.59-7.2-11.24-12.59-17.9-17.64c-20-15.19-42.17-28.94-66.65-31.3"/>
<path class="st0" d="M447.04,213.73c38.47-20.98,86.03-22.11,125.35-2.98c0.95,0.46,1.93,0.97,2.55,1.86
	c0.89,1.28,0.8,3.02,0.76,4.61c-0.2,8.61,2.24,17.27,6.87,24.34c1.12,1.71,2.43,3.57,2.19,5.64c-0.17,1.48-1.11,2.71-2.01,3.85
	c-6.98,8.77-14.51,17.23-23.64,23.39s-20.05,9.89-30.78,8.43"/>
<path class="st0" d="M456.91,160.17c6.89-18.16,25.14-27.95,42.14-35.54c10.38-4.64,23.15-8.79,32.16-1.6
	c2.28,1.82,4.14,4.28,6.72,5.55c3.98,1.96,8.76,0.67,12.93,2.11c5.13,1.77,8.3,7.29,9.93,12.75c1.64,5.46,2.22,11.3,4.5,16.5
	c0.65,1.49,1.46,3.01,1.4,4.65c-0.05,1.43-0.75,2.73-1.44,3.96c-4.09,7.29-8.48,14.57-14.54,20.11s-14.11,9.17-22.02,7.95"/>
<path class="st0" d="M360.16,209.55c-13.26-2.49-26.33-6.11-39.04-10.82c-9.64-3.56-19.29-7.89-26.8-15.22
	c-9.83-9.58-15-23.26-19.88-36.44c-2.75-7.43-5.46-15.99-2.05-23.1c1.39-2.9,3.68-5.21,5.28-7.99c3.68-6.41,3.77-15.35,9.46-19.8
	c7.71-6.03,18.39,1.05,27.95,0.52c2.99-0.16,5.91-1.1,8.9-1.27c6.54-0.36,12.86,3.07,17.65,7.82c4.79,4.75,8.28,10.75,11.71,16.67
	c10.73,18.5,21.45,37.01,32.18,55.51"/>
<path class="st0" d="M295.54,185.79c-7.76-4.12-16.17-8.35-24.74-6.96c-3.64,0.59-7.08,2.18-10.67,3.07
	c-4.29,1.06-8.75,1.11-13.05,2.12c-4.47,1.05-8.67,3.11-12.66,5.49c-7.77,4.65-15.16,11.04-18.4,19.87
	c-3.95,10.8-0.82,23.41,5.61,32.78c6.42,9.36,15.7,16.02,25.09,21.92c8.26,5.19,17.18,10.09,26.78,10.24"/>
<path class="st0" d="M388.95,283.75c-32.02,157.84-53.89,318.01-65.39,479.01"/>
<path class="st0" d="M361.04,517.52C351,593,342,668,339.86,743.05"/>
<path class="st0" d="M399.19,286.38C395,310,391,334,386,359c-8,47-15,91-21.92,137.37"/>
<path class="st0" d="M447.72,225.79c1.96-18.01-7.37-36.75-22.37-45.41c-15-8.66-34.71-6.89-48.29,4.11
	c-2.05,1.66-3.98,3.52-5.64,5.62c-1.57,1.98-2.9,4.15-4.08,6.41c-2.99,5.74-5.03,12.04-5.03,18.41c8.63,7.79,17.47,15.72,28.01,20.1
	C408.65,242.64,429.92,238.31,447.72,225.79z"/>
<path class="st0" d="M435.57,189.07c10.52-9.34,20.11-20.65,24.31-34.51c1.33-4.41,2.1-8.99,3.37-13.42
	c2.54-8.83,7.09-17.02,8.43-26.14c1.62-11.01-1.88-22.74-9.17-30.75c-8.66-9.5-21.39-13.21-33.55-16.06
	c-5.21-1.22-10.77-2.34-15.77-0.37c-2.31,0.91-4.35,2.44-6.37,3.95c-3.07,2.3-6.14,4.6-9.21,6.9c-4.36,3.27-8.77,6.58-12.21,10.91
	c-7.44,9.38-9.41,22.37-9.31,34.64c0.15,19.14,4.6,37.96,10.2,56.16"/>
<path class="st0" d="M462.24,147.35c12.66-14.36,28.77-25.26,46.37-31.37c5.66-1.97,11.97-3.42,17.46-0.96
	c4.89,2.18,8.24,7.08,12.83,9.92c5.17,3.2,11.43,3.52,17.14,5.38c1.76,0.58,3.57,1.38,4.65,2.97c0.64,0.95,0.96,2.1,1.21,3.23
	c1.09,4.84,1.3,9.97,3.3,14.47c1.29,2.89,3.29,5.42,4.29,8.44c1.52,4.61,0.49,9.82-1.73,14.09c-2.22,4.27-5.53,7.77-8.83,11.18
	c-5.96,6.17-12.49,12.49-20.66,14.17"/>
<path class="st0" d="M448.65,210.32c29.27-14.17,62.75-18.31,94.31-11.66c8.87,1.87,17.57,4.56,26.09,7.79
	c4.07,1.54,8.58,3.72,9.92,8.08c1.06,3.47-0.25,7.26,0.17,10.88c0.71,6.16,6.21,10.7,7.21,16.82c0.8,4.91-1.46,9.8-4.18,13.87
	c-8,11.98-20.08,20.1-32.3,27c-6.16,3.48-13.8,6.71-19.79,2.92"/>
<path class="st0" d="M405.64,243.34c-0.83,8.72-2.85,17.27-3.95,25.96c-1.1,8.69-1.24,17.75,1.58,25.99
	c2.84,8.3,8.51,15.33,10.74,23.84"/>
<path class="st0" d="M406.15,246.8c-1.61,11.06-3.23,22.22-2.53,33.39c0.7,11.16,3.92,22.48,10.92,30.85"/>
<path class="st0" d="M415.92,320.81c1.16,3.44,1.06,7.2,1.81,10.76c1.58,7.49,7.24,13.85,14.19,15.95c2.58,0.78,5.46,0.98,7.86-0.3"
	/>
<path class="st0" d="M444.55,231.12c7.75,2.16,15.46,4.51,23.11,7.06c5.5,1.83,10.97,3.76,16.23,6.25
	c18.64,8.84,33.68,24.3,48.14,39.6"/>
<path class="st0" d="M438.89,347.61c7.55-5.97,17.14-8.97,26.53-8.3c5.1,0.36,10.1,1.76,15.21,2.11c8.47,0.57,16.97-1.82,24.52-5.95
	c7.54-4.13,14.18-9.94,20.12-16.37c2.34-2.53,4.62-5.23,5.88-8.51c2.36-6.16,0.73-13.17-1.39-19.43"/>
<path class="st0" d="M529.81,284.45c10.7,1.29,21.62-2.16,30.73-8.26c9.11-6.1,16.53-14.73,22.66-24.13"/>
<path class="st0" d="M447.59,211.08c19.53-8.94,40.35-15.12,61.58-16.25c21.24-1.13,42.94,2.95,61.74,13.49"/>
<path class="st0" d="M575.71,211.79c1.6,1.78,2.09,4.38,2.17,6.84c0.07,2.46-0.2,4.95,0.19,7.37c0.22,1.4,0.66,2.74,0.88,4.14
	c0.24,1.56,0.2,3.18,0.69,4.67c1.07,3.2,4.34,5.07,5.6,8.19"/>
<path class="st0" d="M461.11,149.75c13.18-14.33,29.44-25.46,47.17-32.29c2.51-0.97,5.09-1.86,7.76-1.94
	c7.93-0.24,14.31,6.42,21.27,10.47c3.22,1.87,6.71,3.23,10.32,4c2.6,0.56,5.35,0.85,7.61,2.33c3.22,2.11,4.75,6.13,6.08,9.89
	c1.92,5.43,3.85,10.85,5.77,16.28c0.83,2.33,1.67,4.74,1.63,7.23c-0.03,2.15-0.71,4.24-1.53,6.2c-2.79,6.68-7.34,12.52-12.99,16.67
	c-4.77,3.51-10.37,5.9-14.3,10.44"/>
<path class="st0" d="M434.99,188.29c12.59-13.49,25.49-28.19,29.39-46.72c1.06-5.03,1.42-10.21,2.58-15.21
	c1.69-7.23,5.07-14.66,3.02-21.78"/>
<path class="st0" d="M383.61,163.35c-4.24-14.09-6.05-28.99-5.33-43.76c0.33-6.71,1.2-13.45,3.46-19.72
	c2.27-6.27,6.03-12.07,11.29-15.8c2.51-1.78,5.31-3.07,7.76-4.94c4.27-3.28,7.36-8.28,12.12-10.68c6.37-3.21,13.89-0.93,20.52,1.6
	c5.73,2.19,11.41,4.54,16.9,7.34c2.41,1.23,4.79,2.55,7,4.15c7.28,5.28,12.48,13.68,14.16,22.86"/>
<path class="st0" d="M361.61,212.97c4.12-12.71,11.59-24.85,22.89-30.89c5.95-3.18,12.61-4.51,19.22-5.39
	c2.82-0.38,5.7-0.68,8.49-0.13c2.7,0.53,5.2,1.82,7.65,3.12c3.75,1.98,7.5,4.02,10.86,6.66c8.85,6.95,14.64,18.12,15.41,29.78"/>
<path class="st0" d="M364.17,216.32c9.72,12.19,23.74,20.41,38.63,22.65s30.51-1.53,43.03-10.37"/>
<path class="st0" d="M368.29,225.08c-19.48,1.23-38.8,5.32-57.24,12.11c-9.36,3.45-18.76,7.78-25.67,15.32
	c-6.77,7.39-10.66,17.67-10.61,27.98c0.02,3.09,0.35,6.32-0.76,9.18c-0.69,1.77-1.89,3.27-2.65,5c-1.97,4.45-0.78,9.9,1.84,13.95
	c2.63,4.05,6.49,6.97,10.29,9.77c9.22,6.77,19.15,13.48,30.33,14.41c5.88,0.49,11.76-0.67,17.65-1.03
	c6.18-0.38,12.41,0.11,18.46,1.47c1.85,0.41,3.76,0.91,5.6,0.45c1.5-0.38,2.8-1.36,3.96-2.43c4.05-3.71,6.93-8.62,9.74-13.45
	c8.43-14.47,16.86-28.94,25.29-43.4"/>
<path class="st0" d="M360.25,228.07c-13.29,1.83-26.66,3.68-39.47,7.85c-12.81,4.17-25.17,10.82-34.49,21.05"/>
<path class="st0" d="M362.41,212.51c-21.52-6.42-42.45-15.1-62.38-25.87"/>
<path class="st0" d="M303.18,192.72c-12.34-11.49-30.26-15.8-46.31-8.66c-10.87-1.48-22.42,1.2-31,8.44
	c-8.57,7.24-13.72,19.26-12.06,30.76c0.9,6.25,3.66,12.04,6.89,17.35c11.46,18.84,30.55,33.36,51.64,34.51"/>
<path class="st0" d="M385.78,178.73c-9.49-13.41-17.37-28.01-25.22-42.56c-3.98-7.38-7.96-14.75-11.95-22.13
	c-4.1-7.6-9.34-16.04-17.53-17.11c-5.66-0.74-11.29,2.4-16.95,1.7c-3.49-0.43-6.65-2.26-9.9-3.65c-6.97-2.99-15.9-3.59-21.14,2.14
	c-5.97,6.52-4.17,17.67-8.9,25.25c-1.08,1.72-2.47,3.22-3.47,4.99c-1.69,2.99-2.16,6.6-2.05,10.09c0.41,13.5,8.62,25.13,16.47,35.76
	c3.87,5.24,7.74,10.47,11.6,15.71"/>
<path class="st0" d="M360.06,210.99c-19.85-4.28-39.15-11.39-57.24-21.06"/>
<path class="st0" d="M384.08,174.09c-10.61-14.21-20.06-29.4-28.22-45.33c-4.5-8.78-8.66-17.88-14.69-25.55
	c-2.9-3.69-6.62-7.21-11.13-7.52c-3.42-0.24-6.67,1.41-10.02,2.15c-4.54,1.01-9.4,0.3-13.52-1.96"/>
<path class="st0" d="M290.94,183.84c-7.06-2.53-14.61-5.09-21.84-3.16c-4.43,1.18-8.45,3.99-13,4.44c-1.96,0.19-3.94-0.07-5.91-0.15
	c-8.26-0.34-16.6,2.59-23.03,8.09"/>
<path class="st0" d="M367.77,224.54c-10.13-0.38-20.19,1.48-30.17,3.34c-9.22,1.72-19.03,3.73-25.8,10.6"/>
<path class="st0" d="M405.54,244.49c-10.97,26.87-24.87,52.39-41.32,75.89"/>
<path class="st0" d="M272.88,288.21c-0.33,3.83-2.86,7.18-3,11.02c-0.14,3.9,2.24,7.42,4.96,10.05c2.72,2.63,5.9,4.76,8.23,7.78"/>
<path class="st0" d="M296.46,187.78c-6.72-7.35-12.7-15.46-17.79-24.17c-2.92-5-5.6-10.32-6.47-16.13
	c-0.63-4.19-0.29-8.46,0.1-12.68c0.31-3.36,0.65-6.71,1.02-10.06c0.15-1.35,0.31-2.72,0.83-3.96c0.76-1.81,2.23-3.18,3.18-4.88
	c2.09-3.73,1.49-8.55,3.15-12.52c1.22-2.91,3.57-5.12,6.07-6.86c1.85-1.29,3.86-2.38,6.02-2.91c8.37-2.08,16.83,4.43,25.35,3.27
	c2.24-0.3,4.38-1.13,6.61-1.5c6.95-1.16,14.02,2.29,19.17,7.39c5.15,5.1,8.71,11.7,12.2,18.19c5.84,10.88,11.69,21.76,17.53,32.64"
	/>
<path class="st0" d="M386.14,288.79c-31.86,150.06-52.28,302.85-60.99,456.4"/>
<path class="st0" d="M338.35,746.89C341,670,349,593,360.14,517.45c9.31-0.78,18.6,1.18,27.93,1.74s19.37-0.55,26.58-6.49
	c2.61-2.15,4.91-4.95,8.16-5.89c1.86-0.54,3.84-0.4,5.76-0.13c16.78,2.37,32.94,14.36,49.18,9.52
	c10.71-3.19,17.92-12.85,25.01-21.48c1.7-2.07,3.6-4.22,6.18-4.93c1.83-0.5,3.77-0.21,5.65,0.03c28.31,3.64,57.97-4.73,80.21-22.63
	c14.67-11.81,26.44-27.67,43.44-35.8"/>
<path class="st0" d="M401.59,276.72C384,349,372,423,362.48,501.3c9.38-18.68,25.07-34.13,43.9-43.22c2.09-1.01,4.28-1.96,6.6-2.04
	c3.17-0.12,6.22,1.39,9.39,1.33c3.96-0.08,7.41-2.55,10.65-4.82c9.71-6.8,20.07-12.67,30.88-17.53c8.34-3.75,17.86-6.91,26.46-3.8
	c2.65,0.96,5.09,2.49,7.82,3.19c7.22,1.87,14.44-2.27,21.07-5.68c36.41-18.73,82.14-18.03,117.97,1.8"/>
<path class="st0" d="M387.61,290.58c-30.25,147.25-50.69,296.77-61.12,447.08"/>
<path class="st0" d="M563.53,441.82c-70.86,6.91-143,24.43-203.32,66.25c20.71-17.56,45.34-30.08,70.94-39.14
	c25.6-9.06,52.26-14.77,78.94-19.81C523.05,446.68,536.05,444.38,563.53,441.82z"/>
<path class="st0" d="M360.68,501.01c7.58-11.74,16.7-22.49,27.05-31.89c7.76-7.04,17.64-13.69,27.91-11.67
	c2.21,0.44,4.37,1.27,6.62,1.24c3.74-0.06,6.98-2.46,9.99-4.69c6.3-4.67,12.84-9.01,19.59-13c11.72-6.93,25.79-12.95,38.6-8.33
	c3.04,1.1,5.88,2.76,9.02,3.55c10.1,2.54,19.8-4.36,29.04-9.17c15.66-8.15,33.77-10.82,51.4-9.78c17.62,1.04,34.86,5.62,51.57,11.3"
	/>
<path class="st0" d="M360.62,517.98c12.01,1.55,24.11,2.45,36.22,2.71c3.49,0.07,7.09,0.08,10.34-1.21
	c6.94-2.74,11.09-10.84,18.4-12.34c6.64-1.36,12.82,3.25,19.01,6.01c4.96,2.21,10.34,3.29,15.67,4.32c4.99,0.96,10.14,1.9,15.1,0.81
	c12.92-2.84,19.52-17.86,31.61-23.22c6.71-2.98,14.35-2.64,21.69-2.74c16.97-0.23,34.25-3.21,49.04-11.54
	c5.69-3.21,10.92-7.16,16.06-11.19c14.78-11.6,28.93-24.01,42.37-37.14"/>
<path class="st0" d="M360.8,512.45c6.83-7.49,15.28-13.31,23.99-18.49c26.74-15.93,56.41-26.45,86.63-33.91
	c30.22-7.45,61.08-11.91,91.88-16.36"/>
<path class="st0" d="M363.86,216.83c1.13-11.09,6.64-21.61,14.91-28.49s19.21-10.03,29.62-8.53"/>
<path class="st0" d="M271.46,137.77c5.47,27.47,25.84,51.01,51.16,59.11"/>
</svg>
