<?xml version="1.0" encoding="utf-8"?>
<!-- Generator: Adobe Illustrator 27.0.0, SVG Export Plug-In . SVG Version: 6.00 Build 0)  -->
<svg version="1.1" id="Layer_1" xmlns:ev="http://www.w3.org/2001/xml-events"
	 xmlns="http://www.w3.org/2000/svg" xmlns:xlink="http://www.w3.org/1999/xlink" x="0px" y="0px" viewBox="0 0 382 529"
	 style="enable-background:new 0 0 382 529;" xml:space="preserve">
<style type="text/css">
	.st0{fill:none;stroke:#000000;}
</style>
<path class="st0" d="M168.4,171.8l-1.7,0.1l-2,2.3l-1.8,2.4l-1.7,2.6l-1.5,2.7l-1.3,2.8l-1.1,2.8l-0.9,2.9l-0.6,2.9l-0.4,2.9
	l-0.1,2.9l0.2,2.9l0.5,2.9l0.8,2.8l1.2,2.7l1.5,2.6l2,2.3l2.3,1.8l2.6,1.4l2.8,1l3,0.5l3,0.1l3-0.3l2.9-0.6l2.9-0.9l2.8-1.1l2.7-1.3
	l2.6-1.5l2.5-1.7l2.4-1.8l2.2-2l2.1-2.1l2-2.2l1.9-2.4l1.7-2.5l1.6-2.6l1.4-2.7l1.2-2.7l1.1-2.8l0.9-2.9l0.6-2.3"/>
<path class="st0" d="M214.9,185.9l-0.8,2.9l-1.1,2.8l-1.3,2.7l-1.5,2.6l-1.7,2.5l-1.9,2.4l-2,2.2l-2.2,2.1l-2.3,1.9l-2.4,1.7
	l-2.6,1.6l-2.7,1.4l-2.8,1.2l-2.8,0.9l-2.9,0.7l-3,0.5l-3,0.2l-3.1-0.1l-3-0.5l-2.9-0.8l-2.7-1.2l-2.5-1.5l-2.2-1.9l-1.8-2.3
	l-1.3-2.7l-0.8-2.9l-0.5-3l-0.3-3l-0.2-3l-0.1-3.1l0.1-3l0.5-2.9l0.9-2.8l1.4-2.6l0.1-0.1"/>
<path class="st0" d="M160.5,180.7l-1.3,2.8l-1.1,2.8l-0.9,2.9l-0.7,2.9L156,195l-0.2,3l0.2,3l0.5,3l0.9,2.9l1.3,2.7l1.7,2.4l2.1,2.1
	l2.5,1.7l2.7,1.2l2.8,0.7l2.9,0.3l3-0.1l3-0.4l3-0.7l2.9-0.9l2.8-1l2.8-1.2l2.7-1.3l2.6-1.5l2.5-1.7l2.4-1.9l2.2-2l2-2.2l1.7-2.4
	l1.4-2.6l0.3-0.7"/>
<path class="st0" d="M211.6,175.2l0.8,2.9l1,2.8l1.2,2.7l1.4,2.6l1.6,2.5l1.8,2.4l2,2.3l2.1,2.1l2.3,2l2.4,1.8l2.5,1.6l2.6,1.5
	l2.7,1.3l2.8,1.1l2.9,0.8l2.9,0.6l3,0.4l3,0.1l3.1-0.1l3-0.4l2.9-0.7l2.8-1.1l2.6-1.4l2.3-1.8l2-2.2l1.6-2.5l1.1-2.7l0.7-2.8
	l0.3-2.9l-0.1-3l-0.4-3l-0.7-3l-0.9-2.9l-1.1-2.8l-1.3-2.7l-1.4-2.6l-1.6-2.6L264,163l-1.8-2.4l-1.9-2.3l-2-2.2l-2.1-2.1l-2.2-2
	l-2.3-1.9l-2.4-1.8l-2.5-1.7l-2.6-1.5l-2.6-1.4l-2.7-1.3l-2.8-1.2l-2.8-1l-2.9-0.9l-2.9-0.7l-2.9-0.6l-3-0.4l-1.6-0.2"/>
<path class="st0" d="M212.9,174.6l0.6,2.9l0.9,2.8l1.2,2.7l1.5,2.6l1.7,2.5l1.8,2.4l1.9,2.3l2.1,2.2l2.2,2.1l2.3,1.9l2.5,1.8
	l2.6,1.6l2.7,1.4l2.8,1.1l2.8,0.9l2.9,0.6l3,0.3l3,0l3-0.4l3-0.8l2.8-1.1l2.7-1.4l2.5-1.7l2.2-2l1.9-2.2l1.6-2.5l1.2-2.7l0.7-2.9
	l0.2-3l-0.2-3l-0.6-3l-0.9-2.9l-1.1-2.8l-1.2-2.7l-1.4-2.6l-1.6-2.5l-1.7-2.4l-1.8-2.3l-2-2.2l-2.1-2.1l-2.2-2l-2.3-1.9l-2.4-1.9
	l-2.4-1.8l-2.5-1.7l-2.6-1.6l-2.6-1.6l-2.7-1.5l-2.7-1.4l-2.7-1.4l-2.8-1.3l-2.8-1.3l-1.5-0.7"/>
<path class="st0" d="M214.2,178.8l1.7,2.5l1.8,2.4l1.9,2.3l2,2.2l2.1,2.1l2.3,2l2.4,1.8l2.5,1.7l2.6,1.5l2.7,1.3l2.8,1.2l2.9,0.9
	l2.9,0.7l3,0.5l3,0.2l3,0l3-0.2l3-0.5l2.9-0.7l2.8-1l2.7-1.2l2.6-1.5l2.4-1.8l2-2.2l1.1-2.7l0.1-3l-0.4-3l-0.7-2.9l-0.8-2.9l-1-2.8
	l-1.1-2.8l-1.2-2.7l-1.4-2.7l-1.5-2.6l-1.6-2.5l-1.8-2.4l-1.9-2.3l-2-2.3l-2.1-2.2l-2.2-2.1l-2.3-1.9l-2.4-1.8l-2.5-1.7l-2.5-1.6
	l-2.6-1.5l-2.7-1.3l-2.7-1.2l-2.8-1.1l-2.9-0.9l-2.9-0.8l-2.9-0.6l-1.1-0.2"/>
<path class="st0" d="M226.3,135.2l2.4-1.9l2.3-1.9l2.2-2l2.2-2.1l2.1-2.2l2-2.2l1.9-2.3l1.9-2.4l1.8-2.4l1.7-2.5l1.6-2.5l1.5-2.6
	l1.3-2.7l1.2-2.7l1.1-2.8l1-2.8l0.8-2.9l0.7-2.9l0.5-3l0.4-3l0.2-3l0-3l-0.1-3l-0.3-3l-0.5-3l-0.6-2.9l-0.8-2.9l-1-2.8l-1.2-2.7
	l-1.3-2.7l-1.5-2.6l-1.7-2.5l-1.9-2.3l-2.1-2.1l-2.3-1.9l-2.5-1.6l-2.7-1.3l-2.8-1l-2.9-0.6l-3-0.2l-3,0.1l-3,0.5l-2.9,0.8l-2.8,1.1
	l-2.7,1.3l-2.6,1.5l-2.4,1.7l-2.3,1.9l-2.2,2.1l-2.1,2.2l-1.9,2.3l-1.8,2.4l-1.7,2.5l-1.6,2.5l-1.5,2.6l-1.4,2.7l-1.3,2.7l-1.2,2.8
	l-1.1,2.8l-0.9,2.9l-0.8,2.9l-0.7,2.9l-0.5,3l-0.4,3l-0.3,3l-0.1,3l0,3l0.2,3l0.4,2.9l0.5,2.9l0.7,2.9l0.8,2.9l1,2.8l0.3,0.8"/>
<path class="st0" d="M224.6,134.1l2.8-1l2.7-1.3l2.6-1.5l2.5-1.7l2.3-1.9l2.2-2l2.1-2.2l1.9-2.3l1.8-2.4l1.6-2.5l1.5-2.6l1.4-2.7
	l1.2-2.7l1.1-2.8l1-2.8l0.9-2.9l0.8-2.9l0.7-2.9l0.7-2.9l0.6-3l0.5-3l0.4-3l0.3-3l0.2-3l0.1-3l-0.1-3l-0.3-3l-0.5-2.9l-0.7-2.9
	l-0.9-2.8l-1.2-2.8l-1.5-2.7l-1.7-2.5l-1.9-2.3l-2.2-2.1l-2.3-1.8l-2.5-1.5l-2.7-1.2l-2.8-0.8l-3-0.4l-3,0l-3,0.4l-2.9,0.7l-2.9,0.9
	l-2.8,1.1l-2.7,1.3l-2.6,1.5l-2.5,1.7l-2.4,1.8l-2.3,2l-2.1,2.1l-2,2.2l-1.9,2.3l-1.8,2.4l-1.6,2.5l-1.5,2.6l-1.4,2.6l-1.3,2.7
	l-1.2,2.8l-1.1,2.8l-1,2.8l-0.9,2.9l-0.8,2.9l-0.7,2.9l-0.7,2.9l-0.6,2.9l-0.5,3l-0.5,3l-0.4,3l-0.3,3l-0.3,3l-0.2,3l-0.1,3l-0.1,3
	l0,2.2"/>
<path class="st0" d="M189.3,115.9l-0.4-3l-0.3-3l-0.2-3l-0.1-3l0-3l0.2-3l0.3-3l0.4-3l0.5-3l0.6-2.9l0.7-2.9l0.8-2.9l0.9-2.8l1-2.8
	l1.1-2.8l1.3-2.7l1.4-2.7l1.5-2.6l1.6-2.6l1.7-2.5l1.8-2.4l1.9-2.4l2-2.3l2-2.2l2.1-2.1l2.3-2l2.4-1.8l2.5-1.6l2.7-1.3l2.9-1l3-0.6
	l3-0.2l3,0.3l2.9,0.8l1.3,0.6"/>
<path class="st0" d="M205.1,118.6l1.1-2.8l1-2.8l0.9-2.9l0.8-2.9l0.7-2.9l0.5-3l0.4-3l0.3-3l0.2-3l0-3l-0.1-3l-0.2-3l-0.3-2.8"/>
<path class="st0" d="M204.6,118.6l1.1-2.8l1-2.8l0.9-2.8l0.9-2.9l0.8-2.9l0.7-2.9l0.7-2.9l0.6-2.9l0.5-3l0.4-3l0.4-3l0.3-3l0.2-1.8"
	/>
<path class="st0" d="M216.7,125.6l1.9-2.3l1.9-2.3l2-2.2l2-2.2l2.1-2.1l2.2-2.1l2.2-2l2.3-2l2.3-1.9l2.4-1.9l2.4-1.8l0-0.1l-1.1,0.7
	"/>
<path class="st0" d="M218.7,125l1.5-2.6l1.6-2.5l1.7-2.5l1.8-2.4l1.9-2.3l2-2.3l2.1-2.2l2.1-2.1l2.2-2l2.3-1.9l2.4-1.9l1.5-1.1"/>
<path class="st0" d="M216.9,121.7l2-2.3l2-2.2l2.1-2.2l2.1-2.1l2.2-2.1l2.2-2l2.3-2l2.3-1.9l2.3-1.9l2.4-1.8l0.6-0.4"/>
<path class="st0" d="M210.5,123.2l-2.6-1.2l-3.1-0.1l-3,0l-3,0.2l-3,0.5l-2.8,0.8l-2.7,1.3l-2.4,1.8l-2,2.2l-1.6,2.5l-1.2,2.8
	l-0.7,2.9l-0.3,3l0,3l0.4,3l0.7,2.9l1,2.9l1.5,2.6l2.4,1.8l2.9,0.8l3,0.5l3,0.3l3,0l2.9-0.5l2.8-1.1l2.5-1.6l2.2-2l2-2.3l1.7-2.5
	l1.4-2.7l1.1-2.8l0.7-2.9l0.2-3l-0.4-2.9l-1-2.9l-1.5-2.6l-2-2.2l-2.5-1.7l-2.9-0.9l-3-0.1l-2.9,0.7l-2.6,1.4l-2.2,2l-0.3,0.4"/>
<path class="st0" d="M186.4,151.1l2,2.2l2.3,2l2.5,1.5l2.8,1l2.9,0.4l3-0.1l2.9-0.5l2.9-1l2.7-1.4l2.5-1.7l2.2-2.1l1.9-2.4l1.4-2.7
	l1-2.8l0.6-2.9l0.2-3l-0.2-3l-0.6-2.9l-1-2.8l-1.3-2.6l-1.7-2.4l-2-2l-2.4-1.7l-2.7-1.2l-3.1-0.7l-3.3-0.2l-3.1,0.3l-2.9,0.8
	l-2.7,1.3l-2.5,1.6l-2.2,2l-1.9,2.2l-1.6,2.5l-1.3,2.7l-0.9,2.8l-0.5,2.9l-0.1,2.9l0.3,2.9l0.8,2.8l1.3,2.7L186.4,151.1"/>
<path class="st0" d="M193,157.5l3.3,1.1l3.2,0.5l3-0.1l2.8-0.7l2.6-1.1l2.4-1.5l2.2-1.9l1.9-2.2l1.6-2.5l1.3-2.6l0.9-2.8l0.6-2.8
	l0.2-2.9l-0.3-2.8l-0.7-2.7l-1.2-2.6l-1.7-2.4l-2.2-2.1l-2.8-1.8l-3.3-1.4l-3.3-0.7l-3.1-0.1l-2.9,0.5l-2.7,1l-2.5,1.5l-2.2,1.9
	l-2,2.2l-1.7,2.5l-1.3,2.7l-1,2.8l-0.6,2.9l-0.2,2.9l0.2,2.9l0.6,2.8l1.1,2.6l1.6,2.4l2.1,2.1l2.6,1.8L193,157.5"/>
<path class="st0" d="M212.6,123.1l-2.3-1.9l-2.6-1.4l-2.9-0.8l-3-0.3l-3,0.3l-2.9,0.8l-2.7,1.3l-2.4,1.7l-2.1,2.1l-1.8,2.4l-1.5,2.6
	l-1.2,2.8l-0.9,2.9l-0.6,3l-0.2,3l0.1,3l0.5,2.9l0.9,2.8l1.3,2.7l1.7,2.4l2.2,2.1l2.5,1.7l2.7,1.3l2.9,0.8l3,0.2l2.9-0.4l2.8-1.1
	l2.6-1.5l2.4-1.8l2.1-2.1l1.9-2.3l1.7-2.5l1.4-2.7l1.1-2.8l0.7-2.9l0.3-3l-0.1-3l-0.6-3l-1-2.8l-1.4-2.6l-1.8-2.3l-2.2-2l-2.6-1.5
	l-2.8-1.2l-2.8-1.1l-2.7-1.3l-1.3-0.9"/>
<path class="st0" d="M155.9,121.1l2.6,1.5l2.6,1.4l2.7,1.3l2.7,1.3l2.8,1.2l2.8,1.1l2.8,1l2.8,0.9l2.9,0.8l2.6,0.7"/>
<path class="st0" d="M158.1,120.4l2.5,1.7l2.5,1.6l2.6,1.5l2.6,1.5l2.7,1.4l2.7,1.3l2.8,1.2l2.8,1.1l2.8,1l-2.3-0.6"/>
<path class="st0" d="M157.7,122.2l2.7,1.3l2.7,1.3l2.7,1.2l2.8,1.2l2.8,1.1l2.8,1.1l2.8,1l0.2,0.1"/>
<path class="st0" d="M154.5,146l3-0.5l3-0.5l3-0.4l3-0.3l3-0.2l3-0.2l3-0.1l3,0l2.1-0.1l-1.9-0.6"/>
<path class="st0" d="M153.1,146.7l3-0.3l3-0.3l3-0.3l3-0.3l3-0.3l3-0.3l3-0.3l3-0.3l2.8-0.3"/>
<path class="st0" d="M184.8,102.7l-1.8-2.3l-2.1-2.1l-2.3-1.9l-2.4-1.7l-2.6-1.5l-2.7-1.3l-2.8-1.1l-2.9-0.9l-3-0.6l-3-0.4l-3-0.2
	l-3,0.1l-3,0.3l-3,0.5l-2.9,0.7l-2.9,0.9l-2.8,1l-2.7,1.2l-2.7,1.3l-2.6,1.5l-2.5,1.6l-2.5,1.7l-2.4,1.8l-2.3,1.9l-2.2,2l-2.1,2.1
	l-2,2.3l-1.9,2.4l-1.7,2.5l-1.5,2.6l-1.2,2.7l-1,2.8l-0.6,2.9l-0.3,3l0,3l0.3,3l0.5,3l0.7,2.9l0.8,2.9l0.9,2.9l1,2.8l1.2,2.8
	l1.3,2.7l1.4,2.6l1.6,2.6l1.7,2.4l1.9,2.3l2,2.2l2.1,2.1l2.3,1.9l2.5,1.7l2.6,1.5l2.7,1.3l2.8,1.1l2.9,0.8l3,0.6l3,0.3l3,0l3-0.3
	l2.9-0.6l2.8-0.9l2.7-1.2l1.9-1"/>
<path class="st0" d="M182.2,96.7l-2.6-1.5l-2.7-1.3l-2.8-1.1l-2.9-0.9l-2.9-0.7l-3-0.6l-3-0.4l-3-0.3l-3-0.1l-3,0.1l-3,0.2l-3,0.4
	l-3,0.6l-3,0.7l-2.9,0.9l-2.8,1.1l-2.7,1.2l-2.6,1.4l-2.5,1.6l-2.4,1.7l-2.2,1.9l-2.1,2.1l-1.9,2.3l-1.7,2.4l-1.5,2.6l-1.2,2.7
	l-1,2.8l-0.8,2.9l-0.6,2.9l-0.4,3l-0.2,3l0,3l0.2,3l0.4,3l0.6,2.9l0.8,2.9l1,2.8l1.1,2.8l1.3,2.7l1.4,2.6l1.6,2.6l1.7,2.5l1.9,2.4
	l2,2.3l2.1,2.2l2.2,2l2.3,1.9l2.4,1.8l2.5,1.6l2.6,1.5l2.7,1.3l2.7,1.2l2.8,1l2.9,0.8l2.9,0.6l2.2,0.4"/>
<path class="st0" d="M108.3,125.9l-0.4,3l-0.1,3l0.2,3l0.5,3l0.7,2.9l0.8,2.9l1,2.8l1.1,2.8l1.2,2.8l1.3,2.7l1.5,2.6l1.6,2.5
	l1.7,2.5l1.9,2.3l2,2.2l2.1,2.1l2.3,2l2.4,1.8l2.5,1.6l2.7,1.4l2.7,1.2l2.8,1l2.9,0.8l2.9,0.5l3,0.3l3,0l3-0.3l0.9-0.1"/>
<path class="st0" d="M201.9,200.6l0.4,3l0.3,3l0.2,3l0.1,3l0,3l0,3l-0.1,3l-0.2,3l-0.3,3l-0.3,3l-0.4,3l-0.4,3l-0.5,3l-0.5,3l-0.5,3
	l-0.6,3l-0.6,2.9l-0.6,2.9l-0.6,2.9l-0.7,2.9l-0.7,2.9l-0.7,2.9l-0.7,2.9l-0.7,2.9l-0.8,2.9l-0.8,2.9l-0.8,2.9l-0.8,2.9l-0.8,2.9
	L189,289l-0.9,2.9l-0.9,2.9l-0.9,2.9l-0.9,2.9l-0.9,2.9l-0.9,2.9l-0.9,2.9l-1,2.8l-1,2.8l-1,2.8l-1,2.8l-1,2.8l-1,2.8l-1,2.8l-1,2.8
	l-1,2.8l-1,2.8l-1,2.8l-1,2.8l-1,2.8l-1.1,2.8l-1.1,2.8l-1.1,2.8l-1.1,2.8l-1.1,2.8l-1.1,2.8l-1.1,2.8l-1.1,2.8l-1.1,2.8l-1.1,2.8
	l-1.1,2.8l-1.1,2.8l-1.1,2.8l-1.1,2.8l-1.1,2.8l-1,2.8l-1,2.8l-1,2.8l-1,2.8l-1,2.8l-1,2.8l-1,2.8l-1,2.8l-1,2.8l-1,2.8l-1,2.8
	l-1,2.8l-0.9,2.8l-0.9,2.8l-0.9,2.8l-0.9,2.9l-0.9,2.9l-0.9,2.9l-0.9,2.9l-0.8,2.9l-0.8,2.9l-0.8,2.9l-0.8,2.9l-0.8,2.9l-0.8,2.9
	l-0.7,2.9l-0.7,2.9l-0.7,2.9l-0.7,2.9l-0.7,2.9l-0.6,2.9l-0.6,2.9l-0.6,2.9l-0.6,2.9l-0.5,2.9l-0.5,2.9l-0.5,2.9l-0.5,3l-0.4,3
	l-0.4,3l-0.2,1.9"/>
<path class="st0" d="M204.9,201.2l0.4,3l0.3,3l0.3,3l0.2,3l0.1,3l0,3l-0.1,3l-0.2,2.9l-0.2,2.9l-0.3,2.9l-0.4,2.9l-0.4,2.9l-0.5,2.9
	l-0.6,2.9l-0.6,2.9l-0.7,2.9l-0.7,2.9l-0.8,2.9l-0.8,2.9l-0.9,2.9l-0.9,2.9l-0.9,2.9l-1,2.9l-1,2.9l-1,2.9l-1.1,2.9L192,280
	l-1.1,2.8l-1.1,2.8l-1.1,2.8l-1.1,2.8l-1.1,2.8l-1.2,2.8l-1.2,2.8l-1.2,2.8l-1.2,2.8l-1.2,2.8l-1.2,2.8l-1.2,2.8l-1.2,2.8L176,319
	l-1.1,2.8l-1.1,2.8l-1.1,2.8l-1.1,2.8l-1.1,2.8l-1.1,2.8l-1.1,2.8l-1.1,2.8l-1.1,2.8l-1.1,2.8l-1.1,2.8l-1.1,2.8l-1.1,2.8l-1.1,2.8
	l-1.1,2.8l-1.1,2.8l-1.1,2.8l-1.1,2.8l-1.1,2.8l-1,2.8l-1,2.8l-1,2.8l-1,2.8l-1,2.8l-1,2.8l-1,2.8l-1,2.8l-1,2.8l-1,2.8l-0.9,2.9
	l-0.9,2.9l-0.9,2.9l-0.9,2.9l-0.9,2.9l-0.9,2.9l-0.9,2.9l-0.8,2.9l-0.8,2.9l-0.8,2.9l-0.8,2.9l-0.8,2.9l-0.8,2.9l-0.8,2.9l-0.7,2.9
	l-0.7,2.9l-0.7,2.9l-0.7,2.9l-0.7,2.9l-0.6,2.9l-0.6,2.9l-0.6,2.9L127,467l-0.6,2.9l-0.5,2.9l-0.5,2.9l-0.5,2.9l-0.5,2.9l-0.5,3
	l-0.4,3l-0.4,3l-0.4,3l-0.4,3l-0.3,3l-0.3,3l-0.3,3l0,0.5"/>
<path class="st0" d="M207.5,210l-0.5,3l-0.5,3l-0.5,3l-0.5,3l-0.5,3l-0.5,3l-0.5,3l-0.5,3l-0.5,3l-0.5,3l-0.5,3l-0.5,3l-0.5,3
	l-0.5,3l-0.5,3l-0.5,3l-0.5,3l-0.5,3l-0.5,3l-0.5,3l-0.5,3l-0.5,3l-0.5,3l-0.5,3l-0.5,3l-0.5,3l-0.5,3l-0.5,3l-0.5,3l-0.5,3l-0.5,3
	l-0.6,3l-0.6,3l-0.6,2.9l-0.7,2.9l-0.7,2.9l-0.8,2.9l-0.9,2.9l-0.9,2.8l-1,2.8l-1.1,2.8l-1.2,2.7l-1.3,2.7l-1.4,2.7l-1.4,2.6
	l-1.5,2.6l-1.6,2.6l-1.6,2.5l-1.6,2.5l-1.7,2.5l-1.7,2.5l-1.7,2.5l-1.7,2.5l-1.7,2.5l-1.7,2.5l-1.7,2.5l-1.7,2.5L158,374l-1.6,2.5
	l-1.5,2.6l-1.5,2.6l-1.4,2.6l-1.4,2.6l-1.4,2.6l-1.3,2.7l-1.3,2.7l-1.2,2.7l-1.2,2.7l-1.2,2.7l-1.1,2.8l-1.1,2.8l-1.1,2.8l-1,2.8
	l-1,2.8l-1,2.8l-1,2.8l-0.9,2.8l-0.9,2.9l-0.9,2.9l-0.8,2.9l-0.8,2.9l-0.8,2.9l-0.8,2.9l-0.8,2.9l-0.7,2.9l-0.7,2.9l-0.7,2.9
	l-0.7,2.9l-0.7,2.9l-0.6,3l-0.6,3l-0.6,3l-0.6,3l-0.6,3l-0.6,3l-0.6,3l-0.6,3l-0.6,3l-0.5,3l-0.5,3l-0.5,3l-0.5,3l-0.5,3l-0.5,3
	l-0.1,0.4"/>
<path class="st0" d="M197.8,267l-0.6,2.9l-0.6,2.9l-0.7,2.9l-0.7,2.9l-0.7,2.9l-0.8,2.9l-0.8,2.9l-0.8,2.9l-0.9,2.9l-0.9,2.9
	l-0.9,2.9l-0.9,2.9l-1,2.8l-1,2.8l-1,2.8l-1,2.8l-1,2.8l-1.1,2.8l-1.1,2.8l-1.1,2.8l-1.1,2.8l-1.1,2.8l-1.1,2.8l-1.1,2.8l-1.2,2.8
	l-1.2,2.8l-1.2,2.8l-1.2,2.8l-1.2,2.8l-1.2,2.8l-1.2,2.8l-1.2,2.8l-1.2,2.8l-1.2,2.8l-1.2,2.8l-1.2,2.8l-1.2,2.8l-1.2,2.8l-1.2,2.8
	l-1.2,2.8l-1.2,2.8l-1.2,2.8l-1.2,2.8l-1.2,2.8l-1.2,2.8l-1.2,2.8l-1.2,2.8l-1.1,2.8l-1.1,2.8l-1.1,2.8l-1.1,2.8l-1.1,2.8l-1.1,2.8
	l-1.1,2.8l-1,2.8l-1,2.8l-1,2.8l-1,2.8l-1,2.8l-0.9,2.8l-0.9,2.8l-0.9,2.8l-0.9,2.8l-0.8,2.9l-0.8,2.9l-0.8,2.9l-0.8,2.9l-0.7,2.9
	l-0.7,2.9l-0.7,2.9l-0.6,2.9l-0.6,2.9l-0.6,2.9l-0.5,2.9l-0.5,2.9l-0.5,2.9l-0.4,3l-0.4,3l-0.3,3l-0.1,0.8"/>
<path class="st0" d="M172.5,166l-2.5,1.7l-2.3,1.9l-2.1,2.1l-1.9,2.3l-1.7,2.5l-1.4,2.7l-1.1,2.8l-0.8,2.9l-0.1,0.4"/>
<path class="st0" d="M190.8,153l-2,2.3l-1.9,2.3l-1.8,2.4l-1.7,2.5l-1.6,2.6l-1.5,2.6l-1.4,2.7l-1.3,2.7l-0.4,1"/>
<path class="st0" d="M190.9,152.3l-2.1,2.1l-2,2.2l-1.9,2.3l-1.9,2.4l-1.8,2.4l-1.7,2.5l-1.6,2.5l-1.5,2.6l-1.4,2.7l-0.3,0.6"/>
<path class="st0" d="M201.9,155.3l-1.7,2.5l-1.6,2.5l-1.5,2.6l-1.4,2.6l-1.4,2.7l-1.3,2.7l-1.2,2.8l-1.1,2.8l-1,2.8l-0.9,2.9
	l-0.8,2.9l-0.6,2.3"/>
<path class="st0" d="M201.8,154.6l-1.5,2.6l-1.4,2.7l-1.3,2.7l-1.3,2.7l-1.2,2.8l-1.1,2.8l-1,2.8l-1,2.8l-0.9,2.9l-0.8,2.9l-0.6,2.5
	"/>
<path class="st0" d="M208.1,151.9l2.6,1.5l2.6,1.6l2.5,1.6l2.5,1.7l2.5,1.7l2.4,1.7l2.4,1.8l2.4,1.8l2.3,1.9l2.3,1.9l2.3,2l2.2,2
	l-0.8-0.2l-0.5-0.3"/>
<path class="st0" d="M209.8,150.7l2.6,1.5l2.6,1.5l2.5,1.6l2.5,1.7l2.4,1.8l2.4,1.8l2.3,1.9l2.3,2l2.2,2l2.2,2.1l2.1,2.1l1.8,2
	l-1.8-1.4"/>
<path class="st0" d="M215.8,143l2.9,0.9l2.7,1.1l2.6,1.4l2.5,1.6l2.4,1.8l2.3,1.9l2.2,2.1l2.1,2.2l2.1,2.2l2,2.3l2,2.3l-1-0.7
	l-0.8-0.8"/>
<path class="st0" d="M216.3,143.7l2.7,1.3l2.6,1.4l2.6,1.6l2.5,1.7l2.4,1.8l2.3,2l2.2,2.1l2,2.2l1.9,2.3l1.8,2.4l0.6,0.9"/>
</svg>
