<?xml version="1.0" encoding="utf-8"?>
<!-- Generator: Adobe Adobe Illustrator 24.2.0, SVG Export Plug-In . SVG Version: 6.00 Build 0)  -->
<svg version="1.1" xmlns="http://www.w3.org/2000/svg" xmlns:xlink="http://www.w3.org/1999/xlink" x="0px" y="0px" width="382px"
	 height="529px" viewBox="0 0 382 529" style="enable-background:new 0 0 382 529;" xml:space="preserve">
<style type="text/css">
	.st0{fill:none;stroke:#000000;}
	.st1{fill:none;stroke:#000000;stroke-miterlimit:10;}
</style>
<g id="Layer_1" xmlns:ev="http://www.w3.org/2001/xml-events">
	<path class="st0" d="M163.37,172.8l-1.73,0.06l-1.96,2.32l-1.83,2.45l-1.67,2.57l-1.5,2.67l-1.31,2.75l-1.11,2.82l-0.88,2.87
		l-0.64,2.91l-0.38,2.93l-0.1,2.93l0.19,2.92l0.51,2.89l0.84,2.85l1.16,2.75l1.55,2.56l1.98,2.28l2.32,1.85l2.62,1.41l2.84,0.97
		l2.97,0.54l3.02,0.11l2.97-0.27l2.94-0.6l2.88-0.89l2.79-1.14l2.68-1.35l2.59-1.52l2.48-1.69l2.37-1.84l2.25-1.98l2.12-2.12
		l1.99-2.24l1.85-2.36l1.71-2.47l1.56-2.56l1.4-2.65l1.23-2.73l1.06-2.8l0.89-2.86l0.57-2.3"/>
	<path class="st0" d="M209.87,186.9l-0.85,2.88l-1.07,2.8l-1.29,2.7l-1.49,2.6l-1.68,2.48l-1.86,2.35l-2.02,2.21l-2.18,2.06
		l-2.32,1.91l-2.45,1.73l-2.57,1.55l-2.67,1.36l-2.76,1.16l-2.85,0.95l-2.91,0.72l-2.97,0.48l-3.05,0.19l-3.08-0.13l-3.04-0.46
		l-2.93-0.8l-2.74-1.16l-2.48-1.54l-2.16-1.94l-1.76-2.35l-1.27-2.7l-0.78-2.89l-0.46-2.98l-0.33-2.98l-0.21-3.04l-0.08-3.06
		l0.14-3.03l0.45-2.94l0.86-2.8l1.36-2.6l0.09-0.14"/>
	<path class="st0" d="M155.47,181.7l-1.26,2.75l-1.11,2.81l-0.93,2.86l-0.71,2.9l-0.45,2.94l-0.16,2.98l0.16,3l0.54,2.96l0.94,2.86
		l1.33,2.69l1.72,2.44l2.09,2.11l2.46,1.71l2.69,1.18l2.84,0.71l2.94,0.28l3-0.09l3.02-0.4l2.99-0.66l2.92-0.87l2.83-1.01l2.79-1.17
		l2.73-1.34l2.64-1.5l2.51-1.68l2.36-1.85l2.18-2.03l1.96-2.22l1.72-2.4l1.44-2.6l0.3-0.65"/>
	<path class="st0" d="M206.57,176.2l0.8,2.9l1.02,2.82l1.23,2.73l1.44,2.63l1.62,2.52l1.8,2.4l1.97,2.27l2.12,2.13l2.26,1.97
		l2.39,1.81l2.51,1.64l2.62,1.46l2.72,1.26l2.8,1.06l2.87,0.85l2.93,0.62l2.98,0.39l3.03,0.14l3.05-0.14l3.02-0.43l2.94-0.74
		l2.79-1.06l2.59-1.41l2.33-1.77l2.02-2.16l1.61-2.51l1.13-2.69l0.7-2.83l0.3-2.93l-0.07-2.99l-0.39-3.01l-0.68-2.99l-0.92-2.93
		l-1.13-2.83l-1.28-2.72l-1.42-2.64l-1.55-2.56l-1.68-2.48l-1.81-2.39l-1.92-2.3l-2.04-2.2l-2.14-2.1l-2.24-2l-2.33-1.89l-2.42-1.78
		l-2.5-1.66l-2.58-1.54l-2.65-1.41l-2.71-1.28l-2.77-1.15l-2.82-1.01l-2.87-0.87l-2.91-0.72l-2.94-0.57l-2.97-0.42l-1.55-0.15"/>
	<path class="st0" d="M207.87,175.6l0.63,2.9l0.95,2.82l1.22,2.73l1.46,2.63l1.67,2.52l1.83,2.4l1.95,2.28l2.08,2.18l2.21,2.06
		l2.34,1.92l2.45,1.76l2.56,1.58l2.66,1.37l2.75,1.15l2.83,0.9l2.9,0.63l2.97,0.33l3.02-0.01l3.01-0.39l2.95-0.75l2.84-1.09
		l2.68-1.41l2.48-1.71l2.22-1.99l1.92-2.25l1.56-2.48l1.16-2.7l0.71-2.89l0.25-2.96l-0.19-2.98l-0.56-2.96l-0.86-2.9l-1.08-2.81
		l-1.24-2.7l-1.4-2.6l-1.55-2.49l-1.69-2.39l-1.83-2.3l-1.95-2.2l-2.07-2.11l-2.17-2.03l-2.27-1.94l-2.36-1.86l-2.44-1.78l-2.51-1.7
		l-2.57-1.63l-2.63-1.56l-2.67-1.49l-2.71-1.43l-2.73-1.37l-2.75-1.31l-2.76-1.25l-1.48-0.65"/>
	<path class="st0" d="M209.17,179.8l1.68,2.49l1.8,2.41l1.92,2.31l2.04,2.21l2.15,2.09l2.26,1.97l2.37,1.83l2.47,1.68l2.57,1.52
		l2.67,1.34l2.77,1.16l2.86,0.94l2.93,0.71l2.98,0.48l3.01,0.25l3.02,0.01l3-0.23l2.96-0.48l2.9-0.73l2.81-0.98l2.7-1.24l2.56-1.5
		l2.43-1.8l2.01-2.19l1.1-2.72l0.14-2.98l-0.4-3l-0.65-2.93l-0.81-2.88l-0.96-2.84l-1.11-2.78l-1.25-2.72l-1.38-2.66l-1.52-2.59
		l-1.64-2.51l-1.76-2.43l-1.88-2.34l-1.99-2.25l-2.09-2.16l-2.19-2.06l-2.29-1.95l-2.38-1.84l-2.46-1.72l-2.54-1.6l-2.61-1.47
		l-2.68-1.34l-2.74-1.2l-2.8-1.06l-2.85-0.91l-2.9-0.75l-2.94-0.6l-1.1-0.18"/>
	<path class="st0" d="M221.27,136.2l2.35-1.88l2.3-1.95l2.24-2.02l2.18-2.09l2.11-2.16l2.03-2.23l1.95-2.29l1.86-2.36l1.77-2.42
		l1.67-2.48l1.57-2.54l1.46-2.6l1.34-2.66l1.22-2.72l1.1-2.77l0.96-2.85l0.81-2.9l0.66-2.94l0.51-2.98l0.36-3l0.2-3.01l0.04-3.01
		l-0.12-3l-0.29-2.98l-0.45-2.96l-0.63-2.92l-0.8-2.87l-0.98-2.81l-1.15-2.74l-1.34-2.66l-1.52-2.58l-1.72-2.47l-1.92-2.32
		l-2.12-2.13l-2.31-1.89l-2.5-1.62l-2.69-1.3l-2.84-0.95l-2.92-0.57l-2.97-0.2l-2.98,0.15l-2.97,0.48l-2.91,0.78l-2.83,1.07
		l-2.7,1.33l-2.57,1.55l-2.44,1.74L201,50.34l-2.18,2.05l-2.06,2.18l-1.94,2.29l-1.83,2.38l-1.73,2.45l-1.63,2.53l-1.52,2.61
		l-1.41,2.67l-1.3,2.73l-1.18,2.79l-1.06,2.83l-0.94,2.88l-0.81,2.91l-0.68,2.94l-0.54,2.96l-0.4,2.97l-0.26,2.98l-0.11,2.98
		l0.04,2.98l0.19,2.97l0.35,2.95l0.51,2.92l0.68,2.89l0.84,2.85l1.02,2.81l0.35,0.85"/>
	<path class="st0" d="M219.57,135.1l2.8-1.05l2.69-1.28l2.58-1.5l2.46-1.7l2.33-1.88l2.2-2.04l2.07-2.19l1.93-2.32l1.79-2.43
		l1.64-2.53l1.49-2.6l1.36-2.66l1.24-2.72l1.12-2.77l1.01-2.82l0.92-2.85l0.83-2.89l0.75-2.91l0.68-2.94l0.61-2.95l0.53-2.98l0.44-3
		l0.33-3.01l0.21-3.01l0.07-3.01l-0.09-2.99l-0.27-2.96l-0.47-2.93l-0.69-2.89l-0.93-2.84l-1.2-2.78l-1.46-2.67l-1.71-2.51
		l-1.94-2.32l-2.15-2.09l-2.35-1.83l-2.53-1.53l-2.7-1.19l-2.85-0.81l-2.96-0.4l-2.98,0.01l-2.98,0.36l-2.94,0.65l-2.86,0.91
		l-2.77,1.13l-2.68,1.32l-2.58,1.51l-2.48,1.68l-2.37,1.84l-2.26,1.98l-2.14,2.11l-2.02,2.23l-1.89,2.34l-1.76,2.43l-1.63,2.51
		l-1.51,2.58l-1.39,2.64l-1.28,2.7l-1.18,2.75l-1.08,2.8l-0.98,2.84l-0.9,2.87l-0.81,2.9l-0.73,2.92l-0.66,2.93l-0.59,2.94
		l-0.52,2.95l-0.45,2.96l-0.39,2.97l-0.33,2.98l-0.27,2.99l-0.2,2.99l-0.14,3l-0.08,3l-0.02,2.23"/>
	<path class="st0" d="M184.27,116.9l-0.44-2.97l-0.32-2.99l-0.2-3l-0.08-3l0.04-3l0.15-3l0.27-2.99l0.38-2.98l0.5-2.96l0.61-2.94
		l0.72-2.91l0.83-2.88l0.94-2.85l1.04-2.81l1.15-2.77l1.25-2.72l1.36-2.67l1.46-2.62l1.56-2.56l1.66-2.49l1.76-2.43l1.86-2.35
		l1.95-2.28l2.04-2.19l2.14-2.09l2.27-1.97l2.41-1.8l2.55-1.59l2.7-1.33l2.86-0.97l2.95-0.61l2.99-0.19l2.96,0.27l2.87,0.77
		l1.31,0.55"/>
	<path class="st0" d="M200.07,119.6l1.12-2.78l1.01-2.83l0.89-2.87l0.77-2.9l0.66-2.93l0.53-2.95l0.41-2.97l0.29-2.99l0.17-2.99
		l0.04-3l-0.08-2.99l-0.21-2.99l-0.31-2.8"/>
	<path class="st0" d="M199.57,119.6l1.06-2.8l0.99-2.82l0.93-2.85l0.86-2.87l0.79-2.89l0.72-2.91l0.65-2.93l0.59-2.94l0.52-2.96
		l0.45-2.97l0.38-2.98l0.31-2.99l0.15-1.79"/>
	<path class="st0" d="M211.67,126.6l1.88-2.32l1.94-2.28l1.99-2.24l2.05-2.19l2.1-2.14l2.15-2.09l2.21-2.04l2.26-1.98l2.31-1.93
		l2.35-1.87l2.4-1.81l0.02-0.13l-1.06,0.71"/>
	<path class="st0" d="M213.67,126l1.55-2.58l1.64-2.52l1.73-2.46l1.81-2.39l1.9-2.32l1.98-2.25l2.06-2.18l2.14-2.1l2.21-2.02
		l2.28-1.94l2.35-1.85l1.46-1.08"/>
	<path class="st0" d="M211.87,122.7l1.96-2.26l2.02-2.22l2.07-2.17l2.12-2.12l2.17-2.07l2.22-2.03l2.26-1.98l2.3-1.93l2.34-1.88
		l2.38-1.83l0.56-0.42"/>
	<path class="st0" d="M205.47,124.2l-2.62-1.18l-3.08-0.12l-3.03,0.04l-3.02,0.2l-2.96,0.45l-2.85,0.82l-2.67,1.3l-2.35,1.81
		l-1.99,2.22l-1.6,2.54l-1.19,2.78l-0.74,2.93l-0.32,2.98l0.03,2.99l0.35,2.97l0.65,2.93l0.99,2.85l1.52,2.58l2.36,1.75l2.89,0.81
		l2.99,0.45l3,0.32l2.98,0.02l2.94-0.48l2.77-1.07l2.51-1.58l2.24-1.99l1.97-2.3l1.68-2.52l1.37-2.71l1.05-2.83l0.65-2.91l0.17-2.95
		l-0.39-2.95l-0.95-2.86l-1.49-2.62l-1.99-2.21l-2.47-1.65l-2.86-0.9l-2.98-0.07l-2.92,0.69l-2.65,1.39l-2.19,2.04l-0.33,0.43"/>
	<path class="st0" d="M181.37,152.1l2.05,2.22l2.26,1.97l2.54,1.54l2.78,0.99l2.9,0.45l2.96-0.06l2.94-0.53l2.86-0.97l2.71-1.38
		l2.5-1.74l2.21-2.08l1.86-2.42l1.43-2.66l1.01-2.83l0.6-2.94l0.2-3l-0.19-2.99l-0.58-2.92l-0.96-2.79l-1.32-2.6l-1.69-2.35
		l-2.04-2.04l-2.38-1.67l-2.72-1.24l-3.05-0.75l-3.29-0.2l-3.14,0.34l-2.94,0.82l-2.72,1.25l-2.48,1.63l-2.21,1.97l-1.92,2.25
		l-1.6,2.48l-1.26,2.67l-0.9,2.8l-0.51,2.89l-0.09,2.92l0.35,2.91l0.81,2.85l1.3,2.74L181.37,152.1"/>
	<path class="st0" d="M187.97,158.5l3.3,1.1l3.17,0.46l3.02-0.13l2.85-0.66l2.65-1.13l2.42-1.54l2.17-1.9l1.9-2.21l1.6-2.45
		l1.27-2.64l0.93-2.77l0.55-2.85l0.15-2.87l-0.27-2.83l-0.72-2.73l-1.19-2.58l-1.69-2.37l-2.21-2.11l-2.76-1.79l-3.28-1.39
		l-3.26-0.73l-3.1-0.09l-2.92,0.49l-2.72,1.01l-2.49,1.47l-2.24,1.86l-1.97,2.19l-1.67,2.47l-1.35,2.68l-1,2.82l-0.63,2.91
		l-0.23,2.93l0.18,2.9l0.62,2.8l1.09,2.64l1.58,2.41l2.09,2.13l2.63,1.78L187.97,158.5"/>
	<path class="st0" d="M207.57,124.1l-2.26-1.91l-2.63-1.36l-2.88-0.81l-3-0.26l-3.01,0.29l-2.9,0.84l-2.68,1.34l-2.41,1.75
		l-2.14,2.09l-1.85,2.37l-1.54,2.59l-1.22,2.75l-0.9,2.87l-0.57,2.96l-0.22,3.01l0.14,3.01l0.52,2.95l0.91,2.84l1.31,2.67l1.74,2.45
		l2.16,2.11l2.49,1.72l2.74,1.27l2.89,0.76l2.96,0.21l2.93-0.4l2.81-1.05l2.58-1.54l2.35-1.82l2.14-2.09l1.93-2.3l1.69-2.49
		l1.41-2.65l1.09-2.79l0.74-2.9l0.34-2.99l-0.1-3.02l-0.56-2.97l-0.99-2.84l-1.42-2.63l-1.83-2.33l-2.22-1.96l-2.56-1.53l-2.76-1.21
		l-2.8-1.15l-2.67-1.34l-1.34-0.9"/>
	<path class="st0" d="M150.87,122.1l2.6,1.51l2.64,1.43l2.68,1.35l2.72,1.26l2.75,1.18l2.79,1.1l2.82,1.02l2.85,0.93l2.88,0.85
		l2.57,0.68"/>
	<path class="st0" d="M153.07,121.4l2.45,1.72l2.51,1.63l2.57,1.55l2.62,1.46l2.67,1.37l2.72,1.28l2.76,1.18l2.8,1.08l2.83,0.98
		l-2.34-0.65"/>
	<path class="st0" d="M152.67,123.2l2.72,1.3l2.73,1.26l2.75,1.22l2.76,1.18l2.77,1.14l2.78,1.09l2.79,1.05l0.19,0.07"/>
	<path class="st0" d="M148.07,147.7l2.98-0.3l2.98-0.3l2.98-0.3l2.98-0.3l2.98-0.3l2.98-0.3l2.98-0.3l2.98-0.3l2.82-0.29"/>
	<path class="st0" d="M179.77,103.7l-1.84-2.34l-2.06-2.14l-2.25-1.93l-2.42-1.72l-2.57-1.51l-2.7-1.29l-2.81-1.07l-2.89-0.85
		l-2.96-0.63l-3-0.41l-3.02-0.18l-3.02,0.05l-2.99,0.28l-2.95,0.49l-2.91,0.68l-2.86,0.86l-2.8,1.03l-2.75,1.19l-2.68,1.34
		l-2.61,1.48l-2.54,1.61l-2.46,1.73l-2.38,1.85l-2.3,1.95l-2.21,2.04l-2.13,2.14l-2.02,2.26l-1.88,2.37l-1.71,2.48l-1.5,2.59
		l-1.25,2.7l-0.97,2.8l-0.64,2.91l-0.29,2.98l0.01,2.99l0.27,2.98l0.49,2.97l0.66,2.94l0.78,2.91l0.91,2.88l1.04,2.84l1.17,2.79
		l1.3,2.72l1.43,2.64l1.57,2.55l1.71,2.45l1.85,2.33l2,2.2l2.15,2.06l2.3,1.9l2.45,1.73l2.6,1.51l2.73,1.29l2.84,1.06l2.91,0.81
		l2.97,0.56l2.99,0.3l2.99,0.02l2.97-0.26l2.92-0.55l2.84-0.85l2.74-1.16l1.91-1.04"/>
	<path class="st0" d="M180.9,101.53l-2.83-1.45l-2.94-1.25l-3.04-1.06l-3.13-0.88l-3.19-0.71l-3.24-0.54l-3.27-0.39l-3.28-0.24
		l-3.29-0.09L149.37,95l-3.32,0.23l-3.3,0.38l-3.28,0.54l-3.23,0.7l-3.17,0.86l-3.09,1.02l-3,1.18l-2.89,1.35l-2.76,1.51l-2.62,1.68
		l-2.45,1.85l-2.28,2.01l-2.08,2.18l-1.87,2.36l-1.62,2.51l-1.35,2.62l-1.1,2.71l-0.86,2.79l-0.63,2.84l-0.41,2.88l-0.2,2.89
		l0.01,2.89l0.23,2.88l0.45,2.86l0.66,2.82l0.86,2.78l1.05,2.73l1.23,2.67l1.4,2.61l1.57,2.54l1.73,2.46l1.89,2.37l2.03,2.28
		l2.17,2.18l2.3,2.08l2.42,1.96l2.54,1.84l2.65,1.71l2.75,1.58l2.85,1.44l2.93,1.29l3.01,1.13l3.08,0.97l3.15,0.8l3.2,0.62l2.4,0.34
		"/>
	<path class="st0" d="M103.27,126.9l-0.43,2.98l-0.09,2.99l0.21,2.99l0.46,2.97l0.67,2.93l0.83,2.88l0.96,2.83l1.08,2.8l1.21,2.75
		l1.33,2.69l1.46,2.63l1.59,2.54l1.72,2.45l1.86,2.35l1.99,2.23l2.13,2.11l2.27,1.97l2.41,1.81l2.54,1.63l2.65,1.44l2.75,1.24
		l2.83,1.02l2.89,0.79l2.93,0.55l2.96,0.29l2.97,0.03l2.97-0.25l0.92-0.14"/>
	<path class="st0" d="M196.87,201.6l0.41,2.97l0.31,2.97l0.21,2.98l0.12,2.98l0.04,2.99l-0.04,2.99l-0.12,2.99l-0.19,2.99
		l-0.25,2.99l-0.31,2.99l-0.37,2.99l-0.41,2.98l-0.46,2.98l-0.5,2.97l-0.53,2.96l-0.56,2.95l-0.59,2.94l-0.61,2.94l-0.64,2.93
		l-0.66,2.92l-0.68,2.92l-0.7,2.91l-0.72,2.91l-0.74,2.9l-0.76,2.9l-0.78,2.89l-0.8,2.89l-0.81,2.89l-0.83,2.88l-0.85,2.88
		l-0.86,2.87l-0.88,2.87l-0.89,2.87l-0.91,2.86l-0.92,2.86l-0.93,2.86l-0.94,2.85l-0.96,2.85l-0.97,2.85l-0.98,2.84l-0.99,2.84
		l-1,2.84l-1.01,2.84l-1.01,2.83l-1.02,2.83l-1.03,2.83l-1.03,2.83l-1.04,2.83l-1.05,2.83l-1.05,2.82l-1.05,2.82l-1.06,2.82
		l-1.06,2.82l-1.06,2.82l-1.06,2.82l-1.07,2.82l-1.07,2.82l-1.07,2.82l-1.07,2.82l-1.06,2.82l-1.06,2.82l-1.06,2.82l-1.06,2.82
		l-1.05,2.82l-1.05,2.82l-1.05,2.82l-1.04,2.82l-1.03,2.82l-1.03,2.83l-1.02,2.83l-1.01,2.83l-1.01,2.83l-1,2.83l-0.99,2.83
		l-0.98,2.84l-0.97,2.84l-0.96,2.84l-0.95,2.84l-0.93,2.85l-0.92,2.85l-0.91,2.85l-0.89,2.86l-0.88,2.86l-0.86,2.86l-0.85,2.87
		l-0.83,2.87l-0.82,2.87l-0.8,2.88l-0.78,2.88l-0.76,2.89l-0.74,2.89l-0.72,2.89l-0.7,2.9l-0.68,2.9l-0.66,2.91l-0.64,2.91
		l-0.62,2.92l-0.59,2.92l-0.57,2.93l-0.54,2.94l-0.52,2.94l-0.49,2.95l-0.47,2.95l-0.44,2.96l-0.41,2.97l-0.25,1.86"/>
	<path class="st0" d="M199.87,202.2l0.44,2.96l0.35,2.96l0.25,2.96l0.17,2.96l0.08,2.96l0,2.95l-0.08,2.95l-0.16,2.95l-0.24,2.95
		l-0.31,2.94l-0.38,2.94l-0.44,2.93l-0.51,2.93l-0.57,2.93l-0.62,2.92l-0.68,2.92l-0.73,2.91l-0.78,2.91l-0.82,2.9l-0.86,2.89
		l-0.9,2.89l-0.94,2.88l-0.97,2.87l-1.01,2.87l-1.03,2.86l-1.06,2.85l-1.08,2.84l-1.1,2.83l-1.12,2.83l-1.13,2.82l-1.14,2.81
		l-1.15,2.8l-1.15,2.79l-1.15,2.78l-1.16,2.77l-1.16,2.77l-1.16,2.77l-1.16,2.77l-1.15,2.78l-1.15,2.78l-1.15,2.78l-1.15,2.78
		l-1.15,2.78l-1.14,2.78l-1.14,2.79l-1.14,2.79l-1.13,2.79l-1.13,2.79l-1.13,2.79l-1.12,2.8l-1.12,2.8l-1.11,2.8l-1.1,2.8l-1.1,2.81
		l-1.09,2.81l-1.08,2.81l-1.08,2.81l-1.07,2.81l-1.06,2.82l-1.05,2.82l-1.04,2.82l-1.04,2.83l-1.03,2.83l-1.02,2.83l-1.01,2.83
		l-1,2.84l-0.99,2.84l-0.97,2.84l-0.96,2.84l-0.95,2.85l-0.94,2.85l-0.93,2.85l-0.91,2.86l-0.9,2.86l-0.89,2.86l-0.87,2.87
		l-0.86,2.87l-0.85,2.87l-0.83,2.88l-0.82,2.88l-0.8,2.88l-0.78,2.89l-0.77,2.89l-0.75,2.89l-0.73,2.9l-0.72,2.9l-0.7,2.9
		l-0.68,2.91l-0.66,2.91l-0.64,2.92l-0.63,2.92l-0.61,2.92l-0.59,2.93l-0.57,2.93l-0.55,2.94l-0.53,2.94l-0.5,2.94l-0.48,2.95
		l-0.46,2.95l-0.44,2.96l-0.42,2.96l-0.39,2.96l-0.37,2.97l-0.35,2.97l-0.32,2.98l-0.3,2.98l-0.04,0.47"/>
	<path class="st0" d="M202.47,211l-0.48,2.97l-0.48,2.97l-0.48,2.97l-0.48,2.97l-0.48,2.97l-0.48,2.97l-0.48,2.96l-0.48,2.96
		l-0.48,2.96l-0.48,2.96l-0.48,2.96l-0.48,2.96l-0.48,2.96l-0.48,2.96l-0.48,2.96l-0.48,2.96l-0.48,2.96l-0.48,2.96l-0.48,2.96
		l-0.48,2.96l-0.47,2.96l-0.47,2.96l-0.47,2.96L191,282.1l-0.47,2.96l-0.47,2.96l-0.47,2.96l-0.49,2.96l-0.5,2.96l-0.51,2.97
		l-0.53,2.96l-0.56,2.96l-0.59,2.95l-0.63,2.94l-0.68,2.93l-0.73,2.91l-0.79,2.89l-0.85,2.87l-0.92,2.84l-1,2.82l-1.08,2.78
		l-1.17,2.75l-1.27,2.71l-1.36,2.67l-1.43,2.62l-1.5,2.59l-1.56,2.55l-1.61,2.52l-1.65,2.5l-1.68,2.48l-1.7,2.47l-1.72,2.46
		l-1.72,2.46l-1.72,2.47l-1.71,2.47l-1.69,2.49l-1.66,2.51l-1.62,2.53l-1.57,2.55l-1.53,2.57l-1.48,2.59l-1.44,2.61l-1.4,2.63
		l-1.36,2.65l-1.32,2.67l-1.28,2.69l-1.25,2.7l-1.21,2.72l-1.17,2.74l-1.14,2.75l-1.1,2.77l-1.07,2.78l-1.04,2.8l-1.01,2.81
		l-0.98,2.82l-0.95,2.83l-0.92,2.85l-0.9,2.86l-0.87,2.87l-0.84,2.88l-0.82,2.89l-0.8,2.9l-0.77,2.91l-0.75,2.91l-0.73,2.92
		l-0.71,2.93l-0.69,2.93l-0.68,2.94l-0.66,2.95l-0.64,2.95l-0.63,2.95l-0.62,2.96l-0.6,2.96l-0.59,2.96l-0.58,2.96l-0.57,2.97
		l-0.56,2.97l-0.55,2.97l-0.55,2.97l-0.54,2.97l-0.53,2.96l-0.53,2.96l-0.53,2.96l-0.52,2.96l-0.07,0.4"/>
	<path class="st0" d="M192.77,268l-0.61,2.94l-0.64,2.93l-0.68,2.92l-0.71,2.91l-0.74,2.9l-0.77,2.89l-0.8,2.89l-0.83,2.88
		l-0.85,2.87l-0.88,2.86l-0.9,2.86l-0.93,2.85l-0.95,2.84l-0.97,2.84l-0.99,2.83l-1.01,2.83l-1.03,2.82l-1.05,2.82l-1.07,2.81
		l-1.08,2.81l-1.1,2.8l-1.11,2.8l-1.13,2.8l-1.14,2.79l-1.15,2.79l-1.16,2.79l-1.17,2.78l-1.18,2.78l-1.19,2.78l-1.19,2.78
		l-1.2,2.77l-1.2,2.77l-1.21,2.77l-1.21,2.77l-1.21,2.77l-1.21,2.77l-1.21,2.77l-1.21,2.77l-1.21,2.77l-1.21,2.77l-1.2,2.77
		l-1.2,2.77l-1.19,2.77l-1.18,2.77l-1.18,2.77l-1.17,2.78l-1.16,2.78l-1.15,2.78l-1.14,2.78l-1.12,2.79l-1.11,2.79l-1.09,2.79
		l-1.08,2.8l-1.06,2.8l-1.05,2.8l-1.03,2.81l-1.01,2.81l-0.99,2.82l-0.97,2.82l-0.94,2.83l-0.92,2.83l-0.9,2.84l-0.87,2.85
		l-0.84,2.85l-0.82,2.86l-0.79,2.87l-0.76,2.87l-0.73,2.88l-0.7,2.89l-0.67,2.9l-0.64,2.9l-0.6,2.91l-0.57,2.92l-0.53,2.93
		l-0.49,2.94l-0.46,2.95l-0.42,2.96l-0.38,2.97l-0.34,2.98l-0.08,0.78"/>
	<path class="st0" d="M167.47,167l-2.49,1.67l-2.31,1.91l-2.11,2.13l-1.89,2.33l-1.65,2.5l-1.4,2.65l-1.12,2.78l-0.83,2.89
		l-0.1,0.44"/>
	<path class="st0" d="M185.77,154l-1.96,2.26l-1.86,2.34l-1.77,2.42l-1.67,2.49l-1.57,2.56l-1.47,2.62l-1.37,2.67l-1.27,2.72
		l-0.44,1.02"/>
	<path class="st0" d="M185.87,153.3l-2.1,2.15l-2.02,2.22l-1.94,2.29l-1.85,2.36l-1.76,2.43l-1.67,2.49l-1.58,2.55l-1.48,2.6
		l-1.38,2.66l-0.32,0.65"/>
	<path class="st0" d="M196.87,156.3l-1.71,2.47l-1.63,2.52l-1.54,2.58l-1.45,2.62l-1.36,2.67l-1.27,2.71l-1.18,2.75l-1.09,2.79
		l-1,2.83l-0.9,2.86l-0.81,2.89l-0.57,2.29"/>
	<path class="st0" d="M196.77,155.6l-1.48,2.62l-1.41,2.66l-1.34,2.69l-1.26,2.73l-1.19,2.76l-1.11,2.79l-1.04,2.81l-0.96,2.84
		l-0.88,2.86l-0.8,2.88l-0.62,2.47"/>
	<path class="st0" d="M203.07,152.9l2.58,1.52l2.55,1.57l2.52,1.61l2.49,1.66l2.46,1.7l2.43,1.75l2.4,1.79l2.37,1.84l2.34,1.88
		l2.31,1.93l2.27,1.97l2.24,2.02l-0.77-0.23l-0.5-0.3"/>
	<path class="st0" d="M204.77,151.7l2.62,1.47l2.57,1.54l2.53,1.62l2.48,1.69l2.43,1.76l2.38,1.83l2.33,1.89l2.27,1.96l2.22,2.02
		l2.16,2.09l2.1,2.15l1.82,2l-1.78-1.4"/>
	<path class="st0" d="M210.77,144l2.85,0.86l2.72,1.14l2.6,1.38l2.49,1.59l2.39,1.78l2.29,1.94l2.21,2.07l2.13,2.17l2.07,2.24
		l2.01,2.28l1.97,2.29l-1.02-0.75l-0.82-0.79"/>
	<path class="st0" d="M211.27,144.7l2.72,1.26l2.64,1.41l2.56,1.56l2.47,1.7l2.38,1.83l2.27,1.96l2.17,2.08l2.05,2.19l1.93,2.3
		l1.8,2.4l0.62,0.9"/>
</g>
<g id="Layer_2">
	<path class="st0" d="M203.45,88.69c0.13,10.87-1.75,21.77-5.52,31.97"/>
	<path class="st0" d="M208.78,125.59c5.54-7.96,12.5-14.94,20.45-20.5"/>
	<path class="st0" d="M178.34,145.92c-8.91,0.27-17.78,1.56-26.4,3.84"/>
	<path class="st0" d="M177.31,144.5c-7.86-0.59-15.81-0.06-23.52,1.56"/>
	<path class="st0" d="M177.95,134.47c-7.03-0.96-13.59-3.99-20.02-6.98"/>
	<path class="st0" d="M182.84,154.01c-4.82,5.11-8.92,10.91-12.13,17.16"/>
	<path class="st0" d="M197.29,157.99c-4.31,6.51-7.38,13.84-8.99,21.48"/>
	<path class="st0" d="M210.63,146.07c6.8,2.63,13.01,6.76,18.06,12"/>
	<path class="st0" d="M109.14,119.09c1.62-7.9,7.53-14.34,14.33-18.66c8.46-5.38,18.6-8.05,28.61-7.55
		c10.01,0.51,19.83,4.19,27.71,10.4"/>
	<path class="st0" d="M155.45,177.45c-4.74,6.4-7.21,14.44-6.88,22.39c0.16,3.9,1,7.82,2.81,11.28c1.81,3.46,4.65,6.44,8.2,8.07"/>
	<path class="st0" d="M180.39,219.35c6.77-3.15,13.33-6.92,18.75-12.06c5.42-5.13,9.65-11.73,11-19.07"/>
	<path class="st0" d="M181.86,112.04c-3.67-21.82,3.34-45.17,18.42-61.36c3.7-3.98,7.91-7.57,12.78-9.97s10.47-3.56,15.81-2.58
		c7.76,1.42,14.21,7.23,17.96,14.16s5.14,14.91,5.73,22.77"/>
	<path class="st0" d="M253.33,64.02c2.86,13.98,1.97,28.86-3.5,42.04c-5.47,13.18-15.69,24.53-28.67,30.45"/>
	<path class="st0" d="M212.47,186.18c5.84,6.92,12.85,13.08,21.2,16.59s18.17,4.14,26.39,0.33c3.63-1.68,6.95-4.27,8.91-7.76
		c2.09-3.72,2.49-8.23,1.73-12.43c-0.76-4.2-2.6-8.13-4.78-11.81c-8.82-14.91-23.51-26.23-40.18-30.95"/>
	<path class="st0" d="M184.92,122.75c-4.75,4.79-8.45,10.83-9.53,17.49s0.75,13.95,5.57,18.67s12.76,6.31,18.63,2.99"/>
	<path class="st0" d="M201.68,119.7c3.29-7.19,5.33-14.96,5.99-22.84"/>
	<path class="st0" d="M212.98,127.24c2.95-3.91,6.49-7.39,10.46-10.26"/>
	<path class="st0" d="M198.46,158.24c-3.46,5.89-6.04,12.3-7.62,18.95"/>
	<path class="st0" d="M205.07,156.04c8.05,4.28,15.41,9.86,21.71,16.46"/>
	<path class="st0" d="M215.7,137.1c17.09,0.73,33.66,9.53,43.85,23.27"/>
	<path class="st0" d="M176.04,145.6c-5.35,0.19-10.68,1.03-15.83,2.5"/>
	<path class="st0" d="M178.64,147.18c-8.81-0.24-17.67,1.15-25.99,4.07"/>
	<path class="st0" d="M186.64,154.23c-3.92,4.91-7.21,10.32-9.77,16.05"/>
	<path class="st0" d="M179.58,132.76c-7.36-1.99-14.43-5.05-20.93-9.05"/>
	<path class="st0" d="M179.93,131.13c-5.47-1.18-10.75-3.18-15.63-5.91"/>
	<path class="st0" d="M200.8,98.68c-0.13,8.8-2.03,17.56-5.55,25.63"/>
	<path class="st0" d="M179.23,104.03c-5.19-5.14-12.34-8.02-19.6-8.83c-7.26-0.81-14.62,0.33-21.63,2.39
		c-7.09,2.09-13.98,5.16-19.73,9.81c-5.75,4.65-10.3,10.97-12.03,18.15c-2.52,10.45,1.13,21.54,6.89,30.61
		c4.57,7.2,10.64,13.65,18.26,17.46c7.63,3.81,16.94,4.73,24.72,1.25"/>
	<path class="st0" d="M166.6,169.57c-7.14,6.38-11.9,15.36-13.17,24.85c-0.9,6.67,0.23,14.2,5.29,18.64
		c5.17,4.53,12.96,4.56,19.59,2.71c8.25-2.3,15.77-7.15,21.27-13.71c5.5-6.56,8.96-14.81,9.79-23.33"/>
	<path class="st0" d="M122.45,502.85c0.86-52.19,22.1-101.59,42.4-149.67s40.38-98.23,38.72-150.4"/>
	<path class="st1" d="M120.62,502.09c-1.82-31.87,8.54-63.2,21.52-92.37c12.98-29.16,28.74-57.19,38.79-87.49
		c11.99-36.12,15.51-74.42,18.96-112.32"/>
	<path class="st1" d="M115.06,507.59c4.18-53.31,26.16-103.35,47.02-152.58s41.21-100.3,41.79-153.77"/>
</g>
</svg>
