<?xml version="1.0" encoding="utf-8"?>
<!-- Generator: Adobe Adobe Illustrator 24.2.0, SVG Export Plug-In . SVG Version: 6.00 Build 0)  -->
<svg version="1.1" id="Layer_2" xmlns="http://www.w3.org/2000/svg" xmlns:xlink="http://www.w3.org/1999/xlink" x="0px" y="0px"
	 width="800px" height="800px" viewBox="0 0 800 800" style="enable-background:new 0 0 800 800;" xml:space="preserve">
<style type="text/css">
	.st0{fill:none;stroke:#000000;stroke-miterlimit:10;}
</style>
<path class="st0" d="M445.72,212.97c-1.46-19.92-17.3-37.64-36.14-40.45s-38.74,9.61-45.29,30.17
	c12.08,22.73,39.38,35.23,63.46,29.07c5.01-1.28,9.94-3.33,13.87-6.83S448.38,216.33,445.72,212.97z"/>
<path class="st0" d="M390.31,169.2c-14.42-18.21-23.51-41-25.74-64.56c-0.52-5.49-0.58-11.41,2.25-16.06
	c1.81-2.98,4.62-5.09,7.13-7.45c4.97-4.67,9.07-10.58,15.03-13.71c3.99-2.1,8.55-2.77,13.02-2.65c19.17,0.48,36.14,15.17,44.68,33.2
	c2.19,4.61,3.95,9.58,4.02,14.73c0.07,4.95-1.41,9.76-3.01,14.42c-5.74,16.78-13.09,32.94-21.91,48.17"/>
<path class="st0" d="M442.03,193.39c16.62-14.28,34.99-26.3,54.51-35.68c3.77-1.81,7.62-3.54,11.66-4.54
	c6-1.48,12.24-1.32,18.4-1.03c12.75,0.62,26.51,2.25,35.9,11.32c0.52,0.5,1.05,1.08,1.13,1.81c0.08,0.72-0.3,1.4-0.62,2.05
	c-6.45,13.05,8.37,28.69,4.27,42.74c-1.13,3.88-3.62,7.15-6.05,10.31c-6.27,8.15-13.64,16.94-23.57,17.86
	c-3.28,0.31-6.57-0.3-9.81-0.91c-9.79-1.83-19.59-3.67-29.38-5.5"/>
<path class="st0" d="M446.3,132.48c7-11.63,15.44-22.44,25.83-30.81c10.4-8.37,22.86-14.2,35.92-15.3c1.87-0.16,3.87-0.19,5.49,0.81
	c1.85,1.14,2.85,3.4,4.66,4.62c2.9,1.95,7.34,0.88,9.55,3.66c0.96,1.21,1.21,2.85,1.42,4.4c0.92,6.64,1.83,13.29,2.75,19.93
	c0.79,5.7,1.57,11.48,0.89,17.19c-0.68,5.71-3.03,11.45-7.43,14.88"/>
<path class="st0" d="M445.77,219.05c15.6-1.38,30.86,4.75,45.1,11.57c12.35,5.91,24.6,12.54,34.57,22.2
	c9.97,9.66,17.53,22.77,18.29,37c0.12,2.14,0.06,4.39-0.89,6.29c-0.95,1.89-2.66,3.21-4.32,4.46
	c-11.82,8.91-24.46,18.14-38.98,19.28c-7.19,0.56-14.51-0.92-21.58,0.56c-6.98,1.46-13.2,5.72-20.16,7.31
	c-6.96,1.59-15.83-0.86-17.4-8.43c-4.13-5.03-12.14-4.85-16.2-9.95c-3.14-3.94-2.85-9.66-2.51-14.78
	c0.72-10.97,0.91-21.98,0.57-32.98c-0.14-4.43-0.37-8.91-1.57-13.16c-1.24-4.38-3.51-8.44-7.14-10.78
	c-6.29,8.07-8.93,18.59-10.43,28.89c-1.5,10.31-2.03,20.83-4.86,30.83c-2.82,10-8.37,19.72-17.21,24.48
	c-8.83,4.76-21.24,2.94-26.56-5.86c-14.15,2.64-28.8,5.26-42.74,1.62c-13.94-3.64-27.06-15.33-28.05-30.38
	c-0.65-9.84,3.95-19.43,10.43-26.55c6.49-7.13,14.74-12.16,22.97-16.92c18.13-10.49,36.7-20.13,55.64-28.89"/>
<path class="st0" d="M390.26,168.6c-9.59-5.44-17.64-13.86-22.85-23.92c-8.41-16.22-10.74-37.84-26-47
	c-7.73-4.64-17.33-4.88-25.03-9.59c-2.94-1.8-5.55-4.23-8.71-5.56c-3.16-1.34-7.23-1.29-9.48,1.4c-1.15,1.37-1.64,3.19-2.58,4.72
	c-2.75,4.48-8.52,5.55-12.47,8.9c-5.1,4.32-6.52,11.83-6.61,18.71c-0.29,23.73,11.61,46.49,28.66,62.08s38.8,24.59,60.91,29.51"/>
<path class="st0" d="M298.25,173.64c-10.63-2.84-22.93-1.28-30.88,6.65c-1.55,1.55-2.92,3.31-4.64,4.65
	c-2.14,1.67-4.72,2.58-7.18,3.66c-7.38,3.25-14.07,8.23-19.43,14.48c-2.03,2.37-3.96,5.14-4.11,8.32c-0.06,1.29,0.17,2.58,0.41,3.85
	c1.65,8.96,3.78,18.75,10.7,24.27c2.46,1.96,5.38,3.23,7.85,5.18c3.17,2.51,5.48,6.02,8.42,8.83c7.76,7.4,18.89,9.07,29.29,10.4"/>
<path class="st0" d="M403.37,266.09c-9.16,157.97-31.92,315.06-67.93,468.74"/>
<path class="st0" d="M395.06,498.74C384,582,369,664,350.79,745.76"/>
<path class="st0" d="M415.55,242.14C412,322,408,402,397.12,482.48"/>
<path class="st0" d="M363.96,205.22c6.18-19.33,26.38-32.53,45.62-29.8c19.24,2.72,35.4,21.06,36.49,41.41"/>
<path class="st0" d="M392,170.19c-10.63-16.8-18.88-35.27-24.39-54.59c-1.73-6.07-3.2-12.55-1.64-18.67
	c1.69-6.63,6.62-11.71,11.34-16.44c3.79-3.79,7.62-7.62,12.15-10.36c10.51-6.35,24.87-5.69,33.97,2.72"/>
<path class="st0" d="M430.56,78.28c9.72,6,15.73,17.41,17.22,29.14c1.49,11.73-1.14,23.71-5.64,34.56
	c-4.51,10.85-10.84,20.73-17.14,30.55"/>
<path class="st0" d="M394.32,171.78c-18.41-17.33-28.86-43.59-27.69-69.52"/>
<path class="st0" d="M389.33,169.97c-11.38-8.5-20.68-20.02-26.81-33.19c-3.3-7.09-5.68-14.62-9.12-21.62s-8.15-13.65-14.77-17.39
	c-8.09-4.57-18.82-4.76-24.57-12.28"/>
<path class="st0" d="M310.14,82.97c-2.81-1.96-6.5-2.44-9.67-1.27c-3.18,1.17-5.77,3.97-8.5,10.08c-5.74,2.2-10.09,7.49-12.34,13.46
	c-2.24,5.97-2.57,12.56-2.01,18.95c1.91,22.07,14.09,42.3,30.49,56.24c16.4,13.95,36.72,22.08,57.39,26.54"/>
<path class="st0" d="M364.31,202.83c3.28,6.96,8.69,12.67,14.94,16.83s13.31,6.83,20.52,8.57c7.8,1.89,15.92,2.73,23.83,1.43
	c7.91-1.3,15.61-4.84,21.24-10.82"/>
<path class="st0" d="M445.72,135.66c7.1-10.81,14.55-21.5,23.79-30.35s20.45-15.84,32.79-18.02c3.86-0.68,8.18-0.77,11.3,1.71
	c1.73,1.38,3.01,3.5,5.06,4.26c2.05,0.76,4.49,0,6.37,1.14c1.79,1.08,2.4,3.43,2.85,5.54c1.82,8.57,3.65,17.21,3.73,25.99
	c0.08,8.78-1.72,17.82-6.57,24.96"/>
<path class="st0" d="M439.71,192.37c16.42-14.22,34.48-26.81,54.66-33.88c20.18-7.07,42.74-8.28,62.55-0.13"/>
<path class="st0" d="M562.05,165.37c-2.85,2.99-3.21,7.79-2.25,11.89s3.01,7.82,4.44,11.78c4.25,11.8,2.45,25.83-4.71,35.97
	s-19.44,16.06-31.42,15.05c-10.52-0.89-20.19-6.66-30.66-7.98"/>
<path class="st0" d="M414.47,234.62c6.39,9.96,9.12,22.13,9.48,34.13c0.37,12-1.5,23.95-3.65,35.75"/>
<path class="st0" d="M424.4,306.8c-0.24,3.62,3.05,6.42,6.28,7.69c3.23,1.27,6.86,1.78,9.55,4.05c2.37,2,3.73,5.15,6.27,6.9
	c3.29,2.28,7.74,1.61,11.33-0.09c3.6-1.7,6.75-4.32,10.38-5.95c5.79-2.6,12.35-2.49,18.61-1.77c6.26,0.72,12.51,2.02,18.8,1.66
	c13.28-0.77,25.37-8.99,34.08-19.55"/>
<path class="st0" d="M448.02,219.47c14.76,1.22,28.78,7.18,42.21,13.73c11.72,5.71,23.34,11.99,33.21,20.75s17.96,20.25,20.88,33.47
	"/>
<path class="st0" d="M372.01,214.38c-32.79,10.81-62.73,31.01-85.72,57.83"/>
<path class="st0" d="M413.99,235.78c-11.59,17.03-13.63,38.94-17.32,59.52c-1.42,7.9-3.36,16.2-8.8,21.85
	c-3.13,3.25-7.18,5.36-11.33,6.9c-3.48,1.3-7.27,2.24-10.84,1.26c-3.57-0.99-6.75-4.46-6.4-8.31"/>
<path class="st0" d="M294.56,263.39c-7.75,5.85-11.6,16.52-10.42,26.46s7.03,18.95,14.88,24.64c7.85,5.69,17.55,8.23,27.09,8.16
	c9.54-0.07,18.95-2.63,27.79-6.41"/>
<path class="st0" d="M302.51,175.8c-5.43-1.83-11.09-3.1-16.79-2.86c-5.7,0.23-11.44,2.06-15.85,5.85c-2.71,2.33-4.85,5.34-7.62,7.6
	c-4.2,3.43-9.54,4.89-14.24,7.51c-6.6,3.67-12.05,9.9-14.2,17.41s-0.7,16.25,4.36,22.02c3.29,3.76,7.78,6.07,11.62,9.2
	c3.86,3.15,7.05,7.12,10.84,10.37c7.94,6.82,18.48,10.22,28.7,9.25"/>
<path class="st0" d="M357.54,314.87c3.16,7.41,12.64,10.14,19.86,7.24s12.22-10.05,14.97-17.64c2.74-7.59,3.61-15.75,5.08-23.71
	c2.8-15.17,7.89-29.88,15.01-43.4"/>
<path class="st0" d="M405.3,263.09c-10.43,160.43-33.37,319.96-68.51,476.47"/>
<path class="st0" d="M357.31,744.63C373,667,388,589,396,508c0-3,1-6,1.43-8.36c11.1,2.79,22.39,5.6,33.83,5.12
	c11.44-0.48,23.25-4.73,30.3-13.74c3.59-4.59,6.04-10.43,11.1-13.32c2.48-1.42,5.36-1.97,8.19-2.41c11.41-1.76,23.2-2.05,33.98-6.19
	s20.67-13.41,21.1-24.94c0.11-2.88-0.21-6.21,1.92-8.15c1-0.91,2.36-1.3,3.67-1.66c14.89-4.11,30.03-8.19,43.23-16.2
	c25.2-15.29,40.05-42.61,59.74-64.55"/>
<path class="st0" d="M417.51,244.86C414,324,409,403,398.68,485.78c8.78-6.28,13.51-16.61,18.97-25.92s13.09-18.69,23.75-20.43
	c2.55-0.42,5.17-0.37,7.66-1.04c5.68-1.52,9.69-6.41,13.53-10.86c6.99-8.11,14.66-15.62,22.92-22.44c2.62-2.16,5.39-4.3,8.66-5.24
	c4.7-1.34,9.78-0.01,14.6-0.79c8.18-1.33,14.04-8.28,20.07-13.96c14.52-13.67,33.58-21.78,53.07-26.01
	c19.49-4.23,39.57-4.83,59.51-5.15"/>
<path class="st0" d="M405.55,256.42c-5.3,125.04-20.28,249.62-44.77,372.11"/>
<path class="st0" d="M585.67,378.23c-58.83,18.92-113.29,51.32-157.99,94c-8.67,8.27-17.46,17.23-31.97,18.75
	c15-6.35,26.68-18.4,38.89-29.18C477.21,424.15,529.85,399.69,585.67,378.23z"/>
<path class="st0" d="M400,483.44c6.51-7.14,12.17-15.05,16.82-23.52c2.8-5.1,5.27-10.45,8.94-14.98c3.67-4.52,8.82-8.23,14.63-8.61
	c4.4-0.29,9.12,1.28,13.09-0.66c1.99-0.97,3.48-2.71,4.91-4.39c5.11-6.02,10.21-12.03,15.32-18.05c5.1-6.01,10.68-12.33,18.3-14.35
	c7.6-2.02,15.84,0.67,23.45-1.33"/>
<path class="st0" d="M512.09,398.34c5.56-5.38,9.88-11.99,15.69-17.1c7.64-6.71,17.4-10.43,27-13.78
	c27.84-9.7,57.44-17.45,85.83-10.12c-11.3,14-20.48,29.62-31.96,43.46c-11.48,13.85-25.91,26.2-43.35,30.58
	c-9.08,2.28-18.93,2.42-28.59,8.35c0.3,6.68,0.43,13.92-3.47,19.35c-1.33,1.85-3.07,3.37-4.86,4.78
	c-14.11,11.13-32.73,16.36-49.81,15.08c-3.04-0.51-6.03,1.36-7.98,3.75c-1.95,2.39-3.15,5.29-4.8,7.89
	c-6.66,10.49-19.97,15.03-32.4,15.04c-12.43,0.01-24.51-3.68-36.71-6.09"/>
<path class="st0" d="M365.66,204.34c4.12-11.87,13.53-21.58,24.89-25.71s24.48-2.61,34.71,4.05c10.23,6.65,17.37,18.29,18.92,30.82"
	/>
<path class="st0" d="M364.41,208.32c9.52,12.64,23.93,21.09,39.17,23c15.24,1.9,31.13-2.77,43.21-12.7"/>
<path class="st0" d="M365.22,203c-19.1-2.46-37.54-10.33-52.85-22.55c-15.32-12.22-27.47-28.77-34.84-47.44"/>
<path class="st0" d="M392.34,171.75c-11.35-5.14-20.28-15.03-26.72-26.1c-6.44-11.08-10.65-23.4-14.8-35.62"/>
<path class="st0" d="M296.2,257.72c-11.46,4.83-25.38,2.46-34.8-5.92c-3.84-3.41-6.93-7.69-10.87-10.97
	c-4.38-3.64-9.78-6.03-13.35-10.54c-4.25-5.39-5.13-13.22-2.99-19.85c2.14-6.63,6.99-12.06,12.73-15.62"/>
<path class="st0" d="M369.91,215.04c-22.9,9.59-45.54,20.29-65.86,34.95c-9.11,6.57-18.35,14.99-20.12,26.44"/>
<path class="st0" d="M282.66,287.47c-0.51,10.35,5.34,20.32,13.52,26.11c8.18,5.79,18.36,7.81,28.23,7.56s19.55-2.63,29.16-4.99"/>
<path class="st0" d="M415.58,236.61c6.77,8.8,9.73,20.29,10.22,31.59c0.49,11.3-1.29,22.56-3.07,33.71"/>
<path class="st0" d="M421.86,307.81c7.58,5.46,15.15,10.91,22.73,16.37c1.59,1.14,3.23,2.31,5.11,2.73
	c3.86,0.86,7.59-1.58,11.14-3.38c9.66-4.91,20.73-5.58,31.46-5.91c10.73-0.33,21.73-0.46,31.77-4.46s19.1-12.81,20.39-24.01"/>
<path class="st0" d="M453.9,220.12c23.02,3.13,44.43,14.09,64.15,26.96c7.34,4.79,14.64,9.99,20,17.11s8.58,16.53,6.68,25.38"/>
<path class="st0" d="M440.85,194.93c15.41-13.59,32.14-25.86,50.83-33.71s39.51-11.1,59.15-6.48c2.61,0.61,5.32,1.43,7.25,3.38
	c1.93,1.95,2.8,5.34,1.23,7.62"/>
<path class="st0" d="M444.41,139.19c8.31-11.49,16.67-23.05,26.79-32.82c10.12-9.76,22.18-17.74,35.63-20.73"/>
<path class="st0" d="M528.18,100.73c-0.16,8.33,1.8,16.53,2.5,24.82s-0.04,17.25-4.87,23.86"/>
<path class="st0" d="M423.91,174.44c7.5-10.99,15.08-22.12,19.82-34.69s6.44-26.93,1.95-39.6c-2.7-7.62-7.5-14.28-13.2-19.78
	c-8.54-8.24-19.84-14.17-31.4-13.18"/>
</svg>
