<?xml version="1.0" encoding="UTF-8"?><svg id="Layer_1" xmlns="http://www.w3.org/2000/svg" viewBox="0 0 115.741 163.623"><defs><style>.cls-1{fill:none;stroke:#000;stroke-miterlimit:10;}</style></defs><path class="cls-1" d="M16.796,86.739c.311-2.79-.978-5.416-2.337-7.527-4.281-6.648-10.056-11.879-12.503-20.107-.501-1.684-.849-3.521-.642-5.319,.456-3.969,3.631-6.553,6.534-6.239s5.45,2.868,7.375,5.883,3.382,6.542,5.197,9.684c1.815,3.142,4.125,5.994,6.936,7.071"/><path class="cls-1" d="M16.73,79.708c-1.368,5.026-2.374,10.194-2.423,15.415s.89,10.516,3.236,15.139l.409,.441,.358,.618,.358,.741,.478,.741,.358,.618,.358,.741,.478,.741,.478,.741,.597,.865,.597,.865,.478,.865,.717,.865,.717,.988,.717,.988,.597,.988,.597,.988,.597,.741,.478,.618,.597,.618,.717,.371"/><path class="cls-1" d="M19.585,81.134c-3.987,7.2-5.571,15.793-4.424,24.005,1.147,8.212,5.017,15.991,10.811,21.729"/><path class="cls-1" d="M16.241,87.021c.182-2.724-1.575-4.85-3.094-6.608-4.066-4.709-7.587-10.311-10.39-16.531-1.014-2.249-1.952-4.649-2.2-7.275-.249-2.626,.318-5.54,1.846-7.142,.748-.784,1.67-1.204,2.601-1.379,3.277-.616,6.526,1.715,8.911,4.879s4.111,7.128,6.098,10.777c1.987,3.649,4.378,7.131,7.489,8.682"/><path class="cls-1" d="M48.747,65.354c2.681-1.165,3.982-5.478,4.796-9.357,3.071-14.629,4.099-30.118,7.924-44.369,.758-2.824,1.651-5.648,3.097-7.836,1.447-2.189,3.548-3.666,5.616-3.209,2.041,.451,3.699,2.662,4.875,5.12,3.114,6.505,3.627,15.005,2.748,22.818-.879,7.812-3.012,15.189-4.829,22.654-1.818,7.465-3.348,15.289-2.73,23.178"/><path class="cls-1" d="M50.216,69.612c4.281-7.296,6.403-16.735,7.747-26.11,1.344-9.374,2.014-18.968,3.883-28.152,.697-3.428,1.619-6.919,3.423-9.356,1.804-2.437,4.712-3.49,6.786-1.555,1.885,1.759,2.524,5.272,2.86,8.482,.871,8.33,.721,16.881-.442,25.136-1.45,10.292-4.464,20.225-4.562,30.728-.025,2.631,.247,5.582,1.671,7.215"/><path class="cls-1" d="M74.616,83.028c-2.943-4.01-4.38-9.099-3.969-14.056"/><path class="cls-1" d="M67.412,120.866c-5.788,11.274-7.176,24.737-3.809,36.955"/><path class="cls-1" d="M64.251,123.311c-2.963,9.416-4.755,19.2-5.323,29.054"/><path class="cls-1" d="M15.152,105.089c1.716,5.471,4.214,10.786,8.061,14.939,3.847,4.153,9.171,7.051,14.731,7.049"/><path class="cls-1" d="M17.886,115.301c2.093,2.842,4.202,5.702,6.784,8.108s5.694,4.358,9.158,5.034"/><path class="cls-1" d="M27.898,125.445c1.778,5.384,1.512,11.235,.619,16.834s-2.39,11.099-3.032,16.733"/><path class="cls-1" d="M30.466,127.619c1.94,11.924,1.141,24.285-2.317,35.86"/><path class="cls-1" d="M30.544,131.847l-.992,27.528"/><path class="cls-1" d="M25.274,71.674c3.449-2.517,5.128-7.255,5.2-11.706,.072-4.451-1.218-8.716-2.552-12.855s-2.742-8.332-2.919-12.768c-.116-2.913,.311-5.876,1.248-8.656,1.099-3.26,3.19-6.501,6.245-7.398,2.93-.861,6.014,.729,7.915,3.185,1.901,2.456,2.835,5.643,3.597,8.786,.999,4.12,1.775,8.322,2.151,12.592,.741,8.412-.026,17.294,2.985,24.973"/><path class="cls-1" d="M27.038,72.068c4.582-5.547,4.478-14.105,3.013-21.2-1.465-7.095-3.98-14.116-3.102-21.532,.561-4.744,3.422-10.057,7.507-10.214,2.218-.085,4.208,1.449,5.445,3.485,1.237,2.036,1.836,4.528,2.323,7.001,2.274,11.55,2.536,23.716,5.07,35.173,.522,2.363,1.232,4.843,2.92,6.225"/><path class="cls-1" d="M76.188,89.358c3.176-5.509,10.723-8.245,17.867-9.797,4.251-.923,8.77-1.589,13.01-.63s8.085,3.958,8.175,7.589c.037,1.495-.616,3.051-2.012,4.002-1.256,.855-2.931,1.132-4.536,1.356-5.945,.831-12.15,1.385-17.33,3.933-10.929,5.376-14.203,17.995-25.29,23.202"/><path class="cls-1" d="M75.38,86.848c5.425-6.676,15.857-9.411,25.59-9.516,3.526-.038,7.222,.25,10.189,1.826,2.967,1.575,4.922,4.767,3.656,7.486-.449,.964-1.254,1.793-2.185,2.482-4.664,3.45-11.753,3.26-17.395,5.502-5.136,2.041-8.772,5.983-11.659,10.043-2.887,4.06-5.257,8.409-8.855,12.061-3.598,3.652-8.782,6.615-14.481,6.579"/><path class="cls-1" d="M84.558,97.404l-4.451,6.882c-3.207,4.959-6.468,9.981-10.817,13.894s-9.993,6.652-15.732,6.168"/><path class="cls-1" d="M76.894,85.38c-2.224-2.784-5.726-4.361-9.268-4.758s-7.13,.295-10.513,1.415c-5.597,1.854-11.107,5.239-13.473,10.64"/><path class="cls-1" d="M47.119,91.052c2.091-3.04,5.374-5.115,8.868-6.301s7.211-1.548,10.897-1.707c3.676-.159,7.575-.068,10.707,1.862"/><path class="cls-1" d="M65.138,123.172c-5.317,10.916-6.914,23.604-4.465,35.497"/></svg>