<?xml version="1.0" encoding="utf-8"?>
<!-- Generator: Adobe Illustrator 27.5.0, SVG Export Plug-In . SVG Version: 6.00 Build 0)  -->
<svg version="1.1" id="Layer_1" xmlns="http://www.w3.org/2000/svg" xmlns:xlink="http://www.w3.org/1999/xlink" x="0px" y="0px"
	 viewBox="0 0 800 800" style="enable-background:new 0 0 800 800;" xml:space="preserve">
<style type="text/css">
	.st0{fill:none;stroke:#000000;stroke-miterlimit:10;}
</style>
<g id="Layer_2_00000124884442990634835050000011778996003024917168_">
	<path class="st0" d="M208.9,233.7c-1.8,12.5,3.1,25,9.8,35.7s15,20.3,21.1,31.4c17.9,32.1,14.7,71.9,26.7,106.6
		c11.3,32.6,35.9,59.6,65.4,77.5c29.5,17.9,63.6,27.2,97.9,31.1"/>
	<path class="st0" d="M217.2,217.5c11.2-9,25.4-14.3,39.7-14.3c14.3,0.1,28.7,5.6,38.8,15.8c19.4,19.5,20.7,51.3,38.7,72.1
		c11.6,13.4,29.5,21.4,37.3,37.3"/>
	<path class="st0" d="M315.9,256.4c15.2-17.5,27.9-36.9,39.6-56.8c11.9-20.1,22.8-40.7,34.6-60.9c3.3-5.6,6.6-11.2,10.1-16.7
		c3-4.7,6-11.8,10.9-14.8"/>
	<path class="st0" d="M457.1,432.6c-0.8,0.1-1.5,0.2-2.2,0.4c20.3,17.8,39,37.4,54.7,59.4C533,527,552,568,551.3,611.5"/>
	<path class="st0" d="M370.8,329.2c29.7-20.4,62.9-35.2,96.1-48.7c35.1-14.3,70.4-27.8,104.5-44.7c18.8-9.3,37.6-18.2,55.4-29.4"/>
	<path class="st0" d="M508.3,665.5C529,653,544,632,551.2,609.6"/>
	<path class="st0" d="M209.7,234.3c-32.3-30.2-65.9-58.9-100.8-85.9"/>
	<path class="st0" d="M216.5,216.9c-36.7-22.7-72.9-46.4-108.3-71"/>
	<path class="st0" d="M317.1,258.6c21.2-25.7,38-54.6,54.7-83.4c13.1-22.6,26.2-45.2,39.3-67.8"/>
	<path class="st0" d="M296.5,217.1c18,19.9,19.9,50.6,37.8,70.6"/>
	<path class="st0" d="M337.6,292.9c12.6,9,23.9,19.8,33.5,32"/>
	<path class="st0" d="M319,259.5c31.7-48.1,61.3-97.5,88.6-148.2"/>
	<path class="st0" d="M371,329.6c29.8-17.6,61.4-31.9,92.9-46.1c64.4-29,128.8-58,193.1-87.1"/>
	<path class="st0" d="M371.9,329.9c22.9-24.2,55.4-35,85.8-46.5c37-14.1,73.1-30.2,108.9-47c20.4-9.6,40.8-19.5,60.9-29.8"/>
	<path class="st0" d="M460.7,435.2c-1.2,0.4-2.5,0.7-3.8,1.1c19.6,20.5,39.4,41.2,55.8,64.4C538,536,555,579,547.9,622.8"/>
	<path class="st0" d="M509.1,667.7c14.3-9.4,26.3-22.4,34-37.8c2.2-4.3,4-8.9,5.5-13.5"/>
	<path class="st0" d="M208.5,234.8c-0.5,13.6,4.8,26.8,11.5,38.6c6.7,11.9,14.9,22.9,20.9,35.1c18,36.4,15.5,79.9,31.4,117.2
		c12.9,30.3,38.1,55.2,68.6,67.8"/>
	<path class="st0" d="M264.1,390c4.9,38,30.1,71.4,61.9,92.9c31.8,21.5,69.6,32.3,107.4,38.8"/>
	<path class="st0" d="M209.6,233.7c-3.8,11.4-0.5,24,5.3,34.5s14,19.4,20.9,29.1c7,9.7,13,20.8,13.4,32.7"/>
	<path class="st0" d="M243.3,312.3c7.8,25.8,13.5,52.2,17.2,79"/>
	<path class="st0" d="M251.5,339.9c1.1,28.7,7.6,57.2,19.1,83.5"/>
	<path class="st0" d="M334.9,288.5c-15.8-17.6-16.8-44.4-30.4-63.7c-9-12.8-23.5-21.7-39.1-23.8c-15.6-2.1-31.9,2.5-44,12.5"/>
	<path class="st0" d="M293.2,215.2c-14.8-12.4-36.4-16.3-54.5-9.7"/>
	<path class="st0" d="M215.3,215.7c-34.4-22.3-68.9-44.6-103.3-66.9"/>
	<path class="st0" d="M207.9,236c-32.3-29.6-64.5-59.2-96.8-88.8"/>
	<path class="st0" d="M219.2,216.4c-35.9-23.1-71.8-46.2-107.7-69.2"/>
	<path class="st0" d="M208.9,233.5c-3.2,9.4-2,19.8,1.7,29.1c3.7,9.2,9.6,17.3,15.7,25.1s12.7,15.3,17.9,23.7"/>
	<path class="st0" d="M248,318.7c2.6,25,5.4,50.2,11.9,74.5c6.5,24.3,16.9,48,33.1,67.3c16.5,19.6,38.5,34.2,62.2,43.8
		c23.8,9.6,49.2,14.4,74.8,16.5"/>
	<path class="st0" d="M276.2,431.6C293,453,309,474,333,490c5,3,10,6,15,9c25,14,53,21,81.8,19.3"/>
	<path class="st0" d="M509.6,669.4C530,655,544,634,551,611c6-69-43-125-89-172c-1-2-2-4-4.5-5c0.4,0.3,0.6,0.5,0.9,0.9
		c-0.4-0.2-0.6-0.6-0.9-0.9c0.5-0.1,1.1-0.3,1.6-0.3"/>
	<path class="st0" d="M370.3,323.8c33.3-15.7,66.6-31.2,100-46.7c33.4-15.5,66.8-30.8,100.3-46.1c18.8-8.5,37.5-17.1,56.3-25.5"/>
	<path class="st0" d="M467.4,428.7c24.3-6,47.7-15.6,69.2-28.4"/>
	<path class="st0" d="M327,276.5c3.4,10.9,12.9,18.5,22.1,25.2s19,13.7,23.4,24.2"/>
</g>
<g id="Layer_4">
	<path class="st0" d="M664.7,191.1c1.2,9.8-5.5,18.8-12.1,26.1C629.5,242.6,602,264,571.7,280"/>
	<path class="st0" d="M627.1,245.2c5.2-1.2,10.6-1.7,15.9-1.5c1.4,0.1,2.8,0.2,3.9,1c2.6,1.9,1.8,5.9,0.4,8.9
		c-9.2,20-28.3,33.6-47.5,44.4c-23.3,13.2-48.4,23.9-74.9,28.2"/>
	<path class="st0" d="M611,291.1c4.3-0.8,8.8-1,13.2-0.7c1.4,0.1,3,0.3,4,1.4c0.7,0.8,0.9,2,1,3.1c0.4,9.3-7.4,16.6-14.9,22.1
		c-32.2,23.9-70.7,39.1-110.5,43.8"/>
	<path class="st0" d="M571.8,342.2c6-1.6,13.7-2.7,17.4,2.2c2.3,3,2.1,7.4,0.3,10.8s-4.9,5.8-8.1,7.9c-5.8,3.7-12.2,6.3-18.6,8.6
		c-25.9,9.4-53.3,14.7-80.9,15.7"/>
	<path class="st0" d="M489.4,387.8c13.3-2.7,26.8-4.6,40.4-5.5c5.2-0.4,10.8-0.5,15,2.6c1,0.7,1.9,1.7,1.9,2.9c0,1-0.6,1.8-1.1,2.6
		c-8.9,12.1-23.2,18.9-37.2,24.6c-17.8,7.3-36,13.5-54.5,18.6"/>
	<path class="st0" d="M640,201.2c5.7-3.5,12-6,18.5-7.6c1.8-0.4,4.1-0.5,4.9,1.1c0.6,1.2,0,2.7-0.6,3.9c-6.3,11.5-16.1,20.7-26,29.3
		c-20.2,17.7-41.5,34.1-63.6,49.3"/>
	<path class="st0" d="M622.5,211.1c10.7-7,22.5-12.2,34.8-15.4c0.9-0.2,2-0.4,2.7,0.2c0.6,0.5,0.6,1.4,0.5,2.2
		c-0.5,6.4-4.1,12-8.1,17c-8.4,10.4-18.8,18.9-29.3,27.2c-14.8,11.6-29.8,22.8-45.2,33.6"/>
	<path class="st0" d="M621.5,245.2c6.2-1.7,12.6-2.6,19-2.9c2.5-0.1,5.3,0.2,6.7,2.2c1.1,1.7,0.7,3.9,0.1,5.8
		c-3.6,11.7-13,20.7-22.6,28.4c-28.9,23.2-63,39.9-99,48.5"/>
	<path class="st0" d="M615.3,249.3c6.9-3.1,14.5-4.6,22-4.4c1.7,0.1,3.4,0.2,4.8,1.1c2.6,1.6,3.4,5.2,2.5,8.2s-3,5.3-5.1,7.6
		c-29,30.9-67.9,51.6-108.6,63.5"/>
	<path class="st0" d="M606.9,292.7c5-1.7,10.2-2.7,15.5-2.9c2-0.1,4.3,0.1,5.4,1.8c0.6,0.9,0.7,2.1,0.7,3.2
		c-0.4,7.3-6.3,12.9-12.1,17.3c-32.8,25.2-72.6,39.5-112.7,49.4"/>
	<path class="st0" d="M600.9,296.2c7.4-2.7,15.2-4.4,23.1-5c1.8-0.1,4.1,0.1,4.6,1.9c0.3,1-0.3,2-0.8,2.9
		c-6.7,11.2-15.2,21.6-26,28.9c-4,2.7-8.2,4.9-12.5,7.1c-25.8,13.1-53.2,23-81.4,29.7"/>
	<path class="st0" d="M569.7,341.1c8.4-1.9,17.7,0.3,24.2,5.9c-4.1,7.9-11.9,13.3-19.6,17.7c-27.3,15.7-58.5,24.5-89.9,25.4"/>
	<path class="st0" d="M556.9,345.1c8.9-2,18.1-2.6,27.2-1.9c2.8,0.2,6.1,1,7,3.7c0.9,2.8-1.7,5.5-4.1,7.2
		c-28.8,21.7-64.5,34.2-100.5,35.2"/>
	<path class="st0" d="M524.1,383.5c6.2-1.5,12.9-1.2,18.9,1c0.8,0.3,1.8,0.8,1.9,1.6c0.1,0.7-0.3,1.3-0.8,1.9
		c-8.2,10.6-20.7,16.8-32.7,22.6c-18.7,9.1-37.6,18.3-57.7,23.6"/>
	<path class="st0" d="M520.5,385.1c6.3-0.7,12.7-0.4,18.8,0.8c1.9,0.4,4.2,1.3,4.4,3.3c0.1,1-0.4,1.9-1,2.7c-2,3-4.9,5.2-7.8,7.3
		c-24.2,17-53.4,25-82,32.7"/>
	<path class="st0" d="M623.2,207.2c10.7-5.8,22.1-10.2,33.9-13.1c3-0.7,6-1.3,9-1"/>
	<path class="st0" d="M652.4,197.4c-33.2,10.6-65.2,25-95.2,42.7c-3.8,2.2-7.5,4.5-11.4,6.7c-17.6,9.9-36.8,16.7-55.8,23.5"/>
</g>
<g id="Layer_5">
	<path class="st0" d="M649.4,205.9c-1.5,5.4-3,10.8-4.5,16.2"/>
	<path class="st0" d="M643.4,209.6c-1.2,6.4-2.6,12.7-4.3,18.9"/>
	<path class="st0" d="M635.6,214.3c-1.2,7.1-2.5,14.1-3.7,21.2"/>
	<path class="st0" d="M626.4,219.1c-1.5,7.3-2.7,14.6-3.7,22"/>
	<path class="st0" d="M618.6,226.1c-0.3-0.5-0.9,0.2-1,0.8c-1,7-1.7,14-2.3,21"/>
	<path class="st0" d="M609.9,226.7c-1.2,8.6-2.1,17.2-2.7,25.9"/>
	<path class="st0" d="M602.5,232.6c-0.9,7.7-1.8,15.4-2.7,23"/>
	<path class="st0" d="M594.5,238c-1.1,7.9-2,15.7-2.7,23.6"/>
	<path class="st0" d="M587.5,242.5c-0.7,8.4-1.5,16.8-2.7,25.1"/>
	<path class="st0" d="M582,250.9c-0.9,8.4-1.8,16.7-2.7,25.1"/>
</g>
<g id="Layer_6">
	<path class="st0" d="M534.5,307.4c-0.6,6.2-1.6,12.4-3,18.4"/>
	<path class="st0" d="M540.5,301.9c-1,7-2.1,14-3.1,21.1"/>
	<path class="st0" d="M547.6,298.6c-1.7,7.6-3,15.3-4,23.1"/>
	<path class="st0" d="M554.5,293.5c-1,8.4-1.9,16.9-2.9,25.3"/>
	<path class="st0" d="M562.2,291.5c-1.8,7.3-2.9,14.8-3.4,22.3"/>
	<path class="st0" d="M569.9,289.3c-1.9,7.4-3.2,15-4,22.6"/>
	<path class="st0" d="M576.5,288.5c-0.8,6.4-1.6,12.8-2.4,19.2"/>
	<path class="st0" d="M584.7,284.3c-1.7,6.7-2.8,13.5-3.3,20.4"/>
	<path class="st0" d="M590.7,279.9c-1,7.2-1.9,14.3-2.9,21.5"/>
	<path class="st0" d="M597.8,271.7c-1.5,8.7-2.6,17.5-3.5,26.2"/>
	<path class="st0" d="M604.9,266.6c-1.1,8.9-2.5,17.9-4.1,26.7"/>
	<path class="st0" d="M611,263c0.6,8.6-3.5,17-3.2,25.7"/>
	<path class="st0" d="M618,259.6c-1.5,7.5-2.6,15-3.1,22.6"/>
	<path class="st0" d="M625.2,255.2c-0.7,6.2-1.7,12.4-3.2,18.5"/>
	<path class="st0" d="M632.3,253.3c-1.3,6.6-2.6,13.2-3.8,19.8"/>
	<path class="st0" d="M639.5,249.7c-0.7,4.7-1.5,9.3-2.2,14"/>
	<path class="st0" d="M516.8,338.8c-2.2,7.4-3.9,15-5.2,22.6"/>
	<path class="st0" d="M523,337.9c-1.5,6.9-3,13.7-4.6,20.6"/>
	<path class="st0" d="M530.6,333c-1.7,7-3.1,14-4.1,21.1"/>
	<path class="st0" d="M537.1,332.8c-1.3,7.1-2.6,14.2-4,21.4"/>
	<path class="st0" d="M546,329c-1.2,7.3-2.5,14.6-3.8,21.9"/>
	<path class="st0" d="M552.3,330.3c-0.9,6.3-1.8,12.6-2.8,18.9"/>
	<path class="st0" d="M559.8,325.1c-1.3,7.2-2.3,14.4-3,21.7"/>
	<path class="st0" d="M565.9,323.2c-0.9,6.9-1.9,13.8-2.8,20.8"/>
	<path class="st0" d="M572.2,321.8c-0.9,6.5-1.7,13-2.2,19.5"/>
	<path class="st0" d="M578.7,317.7c-0.4,6.5-1.1,13-2,19.5"/>
	<path class="st0" d="M586.3,312.4c-0.7,8.2-1.4,16.5-2.1,24.7"/>
	<path class="st0" d="M594.9,313.5c-0.9,5.3-1.6,10.6-2,15.9"/>
	<path class="st0" d="M602.8,309.4c-1.2,4.7-2.1,9.5-2.5,14.3"/>
	<path class="st0" d="M607.2,304.7c-0.7,4.8-1.4,9.5-2,14.3"/>
	<path class="st0" d="M612.5,300.1c-1.3,5.4-2.2,10.8-2.6,16.3"/>
	<path class="st0" d="M617.1,298.7c-0.7,4-1.5,8.1-2.2,12.1"/>
	<path class="st0" d="M623,296.7c-0.9,3.4-1.8,6.7-2.7,10.1"/>
	<path class="st0" d="M495.5,372.1c-2.4,6.1-4.7,12.3-7.1,18.4"/>
	<path class="st0" d="M502.2,371.2c-2.5,5.5-5.2,11-8.1,16.3"/>
	<path class="st0" d="M509,370.7c-2.5,5.2-5.1,10.5-7.6,15.8"/>
	<path class="st0" d="M516.4,370.2c-2,5.5-3.9,11-5.9,16.4"/>
	<path class="st0" d="M523.8,370c-1.3,5.3-3.2,10.4-5.7,15.2"/>
	<path class="st0" d="M532.5,367.3c-1.2,4.9-2.9,9.8-5.1,14.4"/>
	<path class="st0" d="M540.1,362.4c-2.2,6.6-4.4,13.2-6.6,19.8"/>
	<path class="st0" d="M549.3,358.5c-2.4,6.9-5,13.7-7.6,20.4"/>
	<path class="st0" d="M556.6,356.7c-1.9,7.2-4.5,14.3-7.7,21"/>
	<path class="st0" d="M563,356.2c-2.2,5.6-4.5,11.2-7.1,16.6"/>
	<path class="st0" d="M568.7,356c-1.8,4.8-3.5,9.7-5.3,14.5"/>
	<path class="st0" d="M575.8,353.9c-1.4,3.8-2.7,7.5-4.1,11.3"/>
	<path class="st0" d="M585.6,348.2c-1.3,3.7-2.6,7.3-3.9,11"/>
	<path class="st0" d="M462.3,410.5c-2.9,7.5-5.8,15-8.8,22.4"/>
	<path class="st0" d="M469,408.8c-3.1,7.6-6.2,15.2-9.3,22.8"/>
	<path class="st0" d="M478.1,403.8c-3.5,7.9-6.7,15.9-9.5,24"/>
	<path class="st0" d="M486.4,398.2c-3.9,9.1-7.2,18.4-9.8,27.9"/>
	<path class="st0" d="M494.8,398.8c-3.3,7.9-6.3,15.9-9,24"/>
	<path class="st0" d="M502,397.1c-3.1,7.4-5.7,15-7.7,22.7"/>
	<path class="st0" d="M508.6,395.9c-2.6,6.5-4.9,13.1-6.8,19.9"/>
	<path class="st0" d="M515.2,396.6c-1.8,5.3-3.6,10.6-5.5,15.9"/>
	<path class="st0" d="M521.3,396.2c-1.3,3.8-2.6,7.5-3.9,11.3"/>
	<path class="st0" d="M527.2,393.7c-1.3,3.4-2.3,7-3.1,10.6"/>
	<path class="st0" d="M534.4,391.8c-0.9,2.9-1.8,5.7-2.7,8.6"/>
	<path class="st0" d="M546.6,572.6c5.2,17.6,4.3,37-2.6,54.1c-6.9,17.1-19.7,31.7-35.2,42.1c-2.3-5-2.1-10.8-1.8-16.3
		c1.2-22.6,3.4-45.3,0.3-67.7c-3-22.4-11.9-44.9-29-59.7"/>
	<path class="st0" d="M507.5,642.4c-7.7,15.8-16.8,34-34.8,39.9c2.8-18.1,1.6-36.5-0.4-54.5c-2.3-25.8-6.3-51.8-14.6-77"/>
	<path class="st0" d="M436.8,529.8c7.5,40.7,9.7,83,0,123.2c-1.4,5.7-3,11.4-5.3,16.8c-1.6,3.7-2.9,9.1,0.7,10.9
		c2.7,1.4,5.8-0.7,8-2.8c12.6-11.5,23.6-24.8,32.6-39.3"/>
	<path class="st0" d="M428.6,518.6c21.5,49,22.9,106.4,3.7,156.4"/>
	<path class="st0" d="M432.5,518.6c16.9,51.4,15.9,108.4-2.6,159.2"/>
	<path class="st0" d="M473.5,637.8c-8.3,16.2-17.5,33.2-33.3,42.1c-1.8,1-4,1.9-5.9,1.2c-2.3-0.9-3-4.3-1.4-6.1"/>
	<path class="st0" d="M459.3,550.6C475,590,478,633,473.5,675.5"/>
	<path class="st0" d="M462,560.9c7.1,26.9,12.2,54.5,11.9,82.3c-0.1,11.9-1.2,23.9-1.3,35.8c0,0.7,0,1.5,0.4,2.1
		c0.5,0.8,1.6,1,2.5,0.9c3.6-0.2,6.4-2.9,8.9-5.5c9.5-10.2,17.8-21.5,24.8-33.6"/>
	<path class="st0" d="M471.8,591.3c4.5,18.3,5.4,37.4,2.9,56c-1,7.4-2.6,14.7-3.3,22.2c-0.4,4.2,0.5,9.7,4.7,10.3
		c2.5,0.4,4.7-1.4,6.5-3.1c9.5-8.8,18-18.9,25-29.8"/>
	<path class="st0" d="M506.6,666c-1.1-2.2-1.1-4.8-1-7.3c1-22.4,3.9-44.7,2.4-67.1c-1.5-22.3-7.9-45.2-24.3-58.1
		c8.6,6.9,14.2,17.1,17.4,27.7c3.2,10.6,4.2,21.7,5,32.7c1.3,17.5,2.4,35.1,0,52.5C505.1,653.2,503.6,660,506.6,666z"/>
	<path class="st0" d="M435.6,668.7c2.8,3.5,5.5,7,8.2,10.5"/>
	<path class="st0" d="M438.9,662.6c2.3,4.2,5.2,8,8.6,11.3"/>
	<path class="st0" d="M442.6,657.2c3,3.9,6.1,7.8,9.1,11.7"/>
	<path class="st0" d="M443.1,651.2c4.4,5.2,9,10.3,13.8,15.2"/>
	<path class="st0" d="M446,645.9c4.8,4.9,9.5,9.8,14.3,14.7"/>
	<path class="st0" d="M448.1,640.2c4.8,4.8,9.5,9.7,14.3,14.5"/>
	<path class="st0" d="M450.5,634.7c4.8,4.4,9.7,8.9,14.5,13.3"/>
	<path class="st0" d="M451,628c6.2,5.7,12.9,11,19.8,15.9"/>
	<path class="st0" d="M453.1,620.6c6.3,5.7,13,11,20,15.8"/>
	<path class="st0" d="M456.5,616.1c5,4.3,10.1,8.5,15.5,12.4"/>
	<path class="st0" d="M457,609.5c5,4.4,10.2,8.6,15.5,12.6"/>
	<path class="st0" d="M458.1,602.7c3.7,3.6,7.7,7,11.9,10.1c0.6,0.4,1.4,0.9,2,0.5"/>
	<path class="st0" d="M457.9,596.4c3.6,3.8,7.7,7.2,12,10.1"/>
	<path class="st0" d="M457.8,589.5c3.1,3.1,6.4,5.9,9.9,8.5"/>
	<path class="st0" d="M458.4,584.4c2.2,2,4.5,4.1,6.7,6.1C466,591.3,467.2,592.2,458.4,584.4z"/>
	<path class="st0" d="M456.7,576.5c3.1,3.4,6.7,6.4,10.5,9"/>
	<path class="st0" d="M455.7,570c3,2.7,6.1,5.2,9.4,7.6C465.4,577.9,466.1,577.6,455.7,570z"/>
	<path class="st0" d="M455.8,563.2c2.7,2.6,5.6,5,8.7,7.2"/>
	<path class="st0" d="M454.4,554.8c2.2,1.8,4.3,3.5,6.5,5.3"/>
	<path class="st0" d="M473.8,665.2c3.2,3.5,6.5,7,9.7,10.4"/>
	<path class="st0" d="M475.3,658.2c3.6,4.1,7.5,7.9,11.5,11.5"/>
	<path class="st0" d="M479.1,653.3c3.3,5,7.7,9.2,12.8,12.3"/>
	<path class="st0" d="M481.6,648.9c3.8,4.6,8.2,8.7,13.1,12.1"/>
	<path class="st0" d="M482.6,643c5.5,5.1,11.5,9.6,17.8,13.6"/>
	<path class="st0" d="M484.6,635.5c6,5.9,13,10.8,20.5,14.6"/>
	<path class="st0" d="M485.9,629.8c6.5,5,13.4,9.7,20.5,13.9"/>
	<path class="st0" d="M489.6,625.4c5.3,3.9,11,7.5,16.8,10.6"/>
	<path class="st0" d="M490.8,620.1c5.5,3.5,11,7.1,16.5,10.6"/>
	<path class="st0" d="M491,613.5c4.8,3,9.6,6.1,14.4,9.2"/>
	<path class="st0" d="M491.2,607.7c6.3,3.7,12.6,7.3,18.9,11"/>
	<path class="st0" d="M491.8,601.3c4.7,2.7,9.4,5.3,14.2,7.8"/>
	<path class="st0" d="M490.4,594.1c5.6,3.3,11.3,6.4,17.1,9.3"/>
	<path class="st0" d="M490.5,588.1c4.6,2.7,9.2,5.3,13.8,8"/>
	<path class="st0" d="M490.4,582c4.6,2.5,9.1,5.1,13.5,7.8"/>
	<path class="st0" d="M489.2,575c5.4,3.1,10.7,6.1,16.1,9.2"/>
	<path class="st0" d="M488.9,568.8c4.9,3.3,10,6.3,15.3,9"/>
	<path class="st0" d="M486.8,560.4c4.7,3.2,9.7,6.2,14.9,8.7"/>
	<path class="st0" d="M485.2,552.1c4.7,2.7,9.5,5.4,14.2,8.1"/>
	<path class="st0" d="M482.9,542.4c4,2.5,8,4.9,12,7.3"/>
	<path class="st0" d="M479.4,532.4c3.1,2.1,6.1,4.1,9.2,6.2"/>
	<path class="st0" d="M508.5,668.6c3.8,1.4,7.7-1.3,10.7-4c13.8-12.6,25.9-28.5,28.6-47"/>
	<path class="st0" d="M508.9,655.5c3.8,2.6,7.5,5.1,11.3,7.7"/>
	<path class="st0" d="M512,649.8c3.1,3.4,6.8,6.2,10.9,8.2"/>
	<path class="st0" d="M513.4,644.5c4.7,3,9.4,5.9,14,8.9"/>
	<path class="st0" d="M513.7,638.3c6,4.1,12.2,7.8,18.7,11.1"/>
	<path class="st0" d="M515.5,632.5c5.7,3.6,11.6,7,17.6,10.1"/>
	<path class="st0" d="M517.7,626.8c7.5,4.8,15.4,9.1,23.5,12.7"/>
	<path class="st0" d="M519.3,621.5c7.4,4.8,15.2,8.8,23.5,11.9"/>
	<path class="st0" d="M520.7,615.2c7.8,4.4,16,8.2,24.3,11.4"/>
	<path class="st0" d="M520.7,608.7c6.3,3.1,12.7,6.2,19,9.2c2.4,1.2,4.8,2.3,7.4,3"/>
	<path class="st0" d="M523.5,604.2c7.7,4,15.5,7.7,23.5,10.9c0.2,0.1,0.3,0.1,0.5,0s0.1-0.4,0-0.4"/>
	<path class="st0" d="M524.6,598c7.6,4,15.5,7.5,23.7,10.3"/>
	<path class="st0" d="M527.1,591.8c6.9,4,14.1,7.3,21.5,10"/>
	<path class="st0" d="M527,585.1c6.7,3.7,13.7,7,20.8,9.8"/>
	<path class="st0" d="M527.7,580.1c6.6,3.6,13.5,6.7,20.5,9.2"/>
	<path class="st0" d="M529.3,574.2c5.8,2.5,11.6,5.1,17.5,7.6"/>
	<path class="st0" d="M528,566.9c5.4,2.8,10.9,5.3,16.5,7.5"/>
	<path class="st0" d="M527.4,558.7c5.2,2.9,10.6,5.5,16.1,7.8"/>
	<path class="st0" d="M524.4,551c6.1,3.3,12.4,6.2,18.9,8.6"/>
	<path class="st0" d="M524.6,544.4c4.7,2.8,9.6,5.3,14.7,7.3"/>
	<path class="st0" d="M520.8,535.8c5,2.8,10.1,5.4,15.3,7.7"/>
	<path class="st0" d="M515.2,528.4c6.3,2.4,12.7,4.8,19,7.2"/>
	<path class="st0" d="M511.5,521.7c6.5,2.2,12.9,4.3,19.4,6.5"/>
	<path class="st0" d="M507,514.4c5.7,1.8,11.4,3.6,17.1,5.4"/>
	<path class="st0" d="M502,507.3c5.9,1.6,11.8,3.1,17.7,4.7"/>
	<path class="st0" d="M494.6,498.4c6.4,1.8,12.7,3.5,19.1,5.2"/>
	<path class="st0" d="M489,490.2c6.1,2.2,12.4,4,18.8,5.3"/>
	<path class="st0" d="M487.3,482.6c5.4,1.7,10.7,3.4,16.1,5.1"/>
	<path class="st0" d="M483,474.7c4.4,1.3,8.9,2.6,13.3,3.9"/>
	<path class="st0" d="M478.5,467.1c3.8,1.3,7.6,2.6,11.4,3.9"/>
	<path class="st0" d="M416.5,520.5c11.2-2.1,21.7-7.4,29.9-15.2"/>
	<path class="st0" d="M407.3,517.2c16.5-3.4,30.3-14.8,41.8-27.1"/>
	<path class="st0" d="M401.4,516.1c12.3-5,23.5-12.5,32.8-22"/>
	<path class="st0" d="M393.6,514.4c9.3-3.6,17.9-9,25.2-15.8"/>
	<path class="st0" d="M386.6,513.2c9.2-4.2,17.7-9.6,25.3-16.2"/>
	<path class="st0" d="M377,511.3c7.6-3.4,14.9-7.6,21.6-12.5"/>
	<path class="st0" d="M368.8,509.3c8.1-4.4,15.9-9.2,23.5-14.6"/>
	<path class="st0" d="M361.5,505.8c7.1-3.7,13.9-8,20.4-12.8"/>
	<path class="st0" d="M355.1,502.5c6.3-3,12.4-6.6,18.3-10.5"/>
	<path class="st0" d="M348.2,499.7c5.7-2.7,11.2-5.9,16.5-9.3"/>
	<path class="st0" d="M341.7,495.7c5-2.2,9.9-4.8,14.5-7.8"/>
	<path class="st0" d="M333.2,492.4c3.8-1.6,7.7-3.1,11.5-4.7"/>
</g>
<g id="Layer_7">
	<path class="st0" d="M406.3,115c1.4-2.9,2.9-6,5.5-7.9c2.7-1.9,6.9-2,8.8,0.7c1.2,1.7,1.1,4,1,6.2c-3.4,41.6-22.7,80.3-44.8,115.8"
		/>
	<path class="st0" d="M410.4,163.9c2.9-4.4,8-7.2,13.2-7.3c1,0,2,0.1,2.8,0.6c1.4,1,1.4,3,1.3,4.7c-1.4,18.8-7.7,36.9-16.3,53.7
		s-19.2,32.4-29.9,47.9"/>
	<path class="st0" d="M405.7,226.8c6-4.6,13.9-6.8,21.4-5.9c0.6,0.1,1.3,0.2,1.7,0.6c0.6,0.5,0.7,1.3,0.8,2c1,8.1-3.3,15.8-7.5,22.8
		c-3.7,6.1-7.4,12.3-11.4,18.2c-7,10.2-15.1,19.8-24.1,28.3"/>
	<path class="st0" d="M414.4,260c3.9-1.8,8.1-3.1,12.4-3.7c1.2-0.2,2.5-0.3,3.6,0.2c2.6,1.2,2.5,4.9,2.1,7.7c-1,5.9-2,11.8-4.3,17.3
		c-3.8,8.8-11,15.7-15.9,24"/>
	<path class="st0" d="M397.2,128.6c2.9-5.7,6.7-11,11.3-15.5c2.7-2.7,5.8-5.1,9.4-5.8c0.8-0.2,1.8-0.2,2.5,0.2
		c1.4,0.8,1.6,2.8,1.5,4.4c-1.2,22.9-9.6,44.8-19,65.7c-7.7,17.1-16.1,33.9-25.3,50.2"/>
	<path class="st0" d="M408.6,165.6c2.5-4.5,7.5-7.4,12.6-7.6c0.7,0,1.5,0,2.2,0.3c1.8,0.9,2.2,3.2,2.2,5.2c0.2,12.3-4.2,24.2-9,35.6
		c-9.4,22.2-20.9,43.5-34.2,63.5"/>
	<path class="st0" d="M403.9,227.4c4.2-2.8,8.7-5.1,13.5-6.8c2.3-0.8,4.8-1.4,7-0.4c2,1,3.1,3.5,3.1,5.8c0,2.3-0.8,4.5-1.6,6.6
		c-9.2,23.1-23.2,44.3-41.1,61.7"/>
	<path class="st0" d="M410.8,262.8c4-3,8.5-5.2,13.3-6.5c2-0.6,4.5-0.8,5.9,0.7c0.8,0.8,1.1,2,1.2,3.2c0.2,3-0.7,6.1-1.8,8.9
		c-4.2,11.9-9.9,23.3-16.8,33.9"/>
	<path class="st0" d="M410.1,109.9c2.3-2.1,5.4-3.3,8.5-3.4c0.6,0,1.3,0,1.9,0.3c0.8,0.5,1.2,1.4,1.5,2.3c1.6,5,2.1,10.4,1.3,15.6
		c-0.5,3.2-1.5,6.4-2.5,9.5c-4.1,13.2-8.2,26.5-14.1,39.1"/>
	<path class="st0" d="M378.6,224.4c12.5-18.6,18.9-41,31.8-59.4c2.9-4.2,6.5-8.4,11.5-9.6c0.5-0.1,1-0.2,1.5-0.1
		c1,0.3,1.4,1.5,1.6,2.5c0.9,4.1,1.5,8.3,1.1,12.5c-0.4,3.7-1.4,7.3-2.5,10.9c-4.4,14.6-8.9,29.2-15.6,42.9
		c-1.6,3.2-3.3,6.4-5.1,9.5c-6.5,11.2-13.8,21.9-22,31.9"/>
	<path class="st0" d="M404,226.7c6.2-5,13.8-8.1,21.7-8.9c0.6-0.1,1.3-0.1,1.9,0.2c0.6,0.3,0.9,0.9,1.2,1.4c1.8,3.6,1.8,8,0.7,11.9
		s-3.1,7.5-5.1,11c-2.7,4.8-5.5,9.6-8.2,14.3c-2.5,4.4-5,8.7-8,12.7c-2.1,2.7-4.4,5.2-6.7,7.6c-4.7,5-9.4,10.1-14.1,15.2"/>
	<path class="st0" d="M413.9,260.9c2.4-2.7,6-4,9.5-5c1.7-0.5,3.4-1,5.1-0.8s3.5,1.1,4.2,2.7c0.5,1.3,0.3,2.7,0.1,4
		c-3.1,16.6-11.1,32.3-22.7,44.7"/>
	<path class="st0" d="M371.4,319.2c0.4,2.5,0.8,4.9,1.2,7.4"/>
	<path class="st0" d="M374.6,318.7c0.2,2.1,0.6,4.3,1.1,6.4"/>
	<path class="st0" d="M378.3,315.8c0.4,2.3,0.9,4.6,1.3,6.9"/>
	<path class="st0" d="M382,313.5c0.3,2.1,0.7,4.2,1.2,6.3"/>
	<path class="st0" d="M385.4,311c0.3,2.3,0.7,4.5,1.2,6.8"/>
	<path class="st0" d="M388.9,308.6c0.4,2.5,0.8,4.9,1.4,7.4"/>
	<path class="st0" d="M392.1,305.6c0.5,2.4,1.1,4.9,1.7,7.2"/>
	<path class="st0" d="M395.8,302.7c0.3,3.3,0.9,6.6,1.9,9.8"/>
	<path class="st0" d="M398.6,296.7c0.4,4.9,1.5,9.7,3.1,14.3"/>
	<path class="st0" d="M402,293.5c0.6,4.4,1.4,8.7,2.3,13c0.1,0.6,0.4,1.3,1,1.5"/>
	<path class="st0" d="M404.5,287.9c1.5,6.1,3,12.2,4.6,18.2"/>
	<path class="st0" d="M408.9,285.6c0.4,5.6,1.5,11.2,3.3,16.6c0.1,0.2,0.1,0.4,0.3,0.4s0.4-0.2,0.2-0.3"/>
	<path class="st0" d="M412.5,280.2c1.2,5.6,2.4,11.2,3.6,16.8"/>
	<path class="st0" d="M416.6,276.9c0.6,5.4,1.7,10.8,3.3,16"/>
	<path class="st0" d="M419.5,270.7c0.6,4.7,1.5,9.3,2.6,13.9"/>
	<path class="st0" d="M422.4,266.5c1,4.5,2,9,3,13.5"/>
	<path class="st0" d="M426.6,262.3c0.3,3.2,0.9,6.5,1.6,9.7L426.6,262.3z"/>
	<path class="st0" d="M429.5,258.3c0.3,2.5,0.5,5,0.8,7.4"/>
	<path class="st0" d="M384.4,286.7c0.3,2.4,0.6,4.8,1,7.1"/>
	<path class="st0" d="M387.3,281.3c0.3,3.1,0.9,6.2,1.6,9.2"/>
	<path class="st0" d="M390.2,277.6c0.5,3,1,6,1.4,9"/>
	<path class="st0" d="M392.9,273.6c0.7,3.3,1.6,6.5,2.6,9.8"/>
	<path class="st0" d="M396,267.5c0.7,3.3,1.4,6.5,2.2,9.8"/>
	<path class="st0" d="M399.1,262.8c0.8,3.5,1.7,7,2.7,10.4c0.2-0.2,0.3-0.5,0.2-0.9"/>
	<path class="st0" d="M401.9,257.4c0.7,3.6,1.6,7.2,2.8,10.7"/>
	<path class="st0" d="M404.2,249.5c1.1,5.4,2.4,10.7,4,16c0.1,0.3,0.4,0.8,0.7,0.5"/>
	<path class="st0" d="M407.4,243.8c0.4,5.4,1.4,10.7,3,15.8c0.1,0.2,0.1,0.4,0.3,0.4c0.2,0,0.3-0.3,0.1-0.3"/>
	<path class="st0" d="M410.3,238.7c0.7,5.9,2,11.7,3.9,17.2c0-0.3,0.1-0.7,0.2-1"/>
	<path class="st0" d="M413.5,235.2c0.2,5.1,1.7,10.2,4.3,14.6c0.1-0.3,0.1-0.6,0.2-0.9"/>
	<path class="st0" d="M416.7,230c0.9,5.1,2,10.2,3.2,15.3c0.1,0.3,0.7,0.4,0.6,0.1"/>
	<path class="st0" d="M419.6,227c1,4.8,2.3,9.6,3.7,14.3"/>
	<path class="st0" d="M424,222.7c0.9,4.2,1.7,8.4,2.6,12.6"/>
	<path class="st0" d="M380.4,251.7c0.4,3,0.8,6,1.2,8.9"/>
	<path class="st0" d="M383.6,248.7c0.7,4,1.5,8,2.6,11.9"/>
	<path class="st0" d="M386.4,245c0.8,3,1.6,6,2.5,8.9"/>
	<path class="st0" d="M389.7,239.2c0.8,2.9,1.5,5.7,2.3,8.6"/>
	<path class="st0" d="M392,233.2c1.2,4,2.6,7.9,4.2,11.7"/>
	<path class="st0" d="M394.6,228c1.4,4.5,2.5,9.1,3.6,13.7"/>
	<path class="st0" d="M397,222.1c1.4,5.1,3,10.1,4.9,15.1"/>
	<path class="st0" d="M400.2,215.7c1.2,3.7,2.5,7.3,3.7,11"/>
	<path class="st0" d="M402.8,208.6c1.5,4.6,3.2,9.1,5,13.6"/>
	<path class="st0" d="M405,202.1c1.7,5.3,3.6,10.6,5.6,15.8"/>
	<path class="st0" d="M407,195.7c1.6,4.6,3.3,9.2,5.2,13.7"/>
	<path class="st0" d="M409.2,188.1c1.8,5.8,3.8,11.6,6,17.3"/>
	<path class="st0" d="M412.1,183.3c1.9,5.4,3.9,10.9,5.8,16.3"/>
	<path class="st0" d="M414.3,175.5c1.4,5,3.2,9.8,5.4,14.5"/>
	<path class="st0" d="M416.3,165.5c2.3,5.9,4.6,11.9,6.9,17.8"/>
	<path class="st0" d="M419.8,161.5c1.9,3.6,3.6,7.3,5.1,11.1"/>
	<path class="st0" d="M376.2,216.2c0.8,3.1,1.6,6.2,2.4,9.3"/>
	<path class="st0" d="M378.7,211.6c0.9,2.6,1.8,5.1,2.7,7.7"/>
	<path class="st0" d="M380.6,205.9c1.2,3.2,2.4,6.3,3.6,9.5"/>
	<path class="st0" d="M383.3,199.8c1.8,4,3.5,7.9,5.3,11.9"/>
	<path class="st0" d="M386.2,192.6c1.6,3.8,3.3,7.5,4.9,11.3"/>
	<path class="st0" d="M389.1,186.7c1.4,3.2,2.9,6.4,4.4,9.6"/>
	<path class="st0" d="M391.7,181.2c1.2,2.8,2.6,5.6,4,8.4"/>
	<path class="st0" d="M394.3,174.9c1.5,3.1,3.1,6.3,4.8,9.3"/>
	<path class="st0" d="M396.9,167.7c1.7,3.4,3.5,6.9,5.2,10.3"/>
	<path class="st0" d="M398.9,162.8c1.8,3.9,3.7,7.7,5.9,11.3"/>
	<path class="st0" d="M400.6,154.8c2,4.1,4.1,8.2,6.1,12.4"/>
	<path class="st0" d="M402.3,148.9c1.9,4,4,7.9,6.3,11.6"/>
	<path class="st0" d="M405.1,141.9c2,4,4.1,7.9,6.3,11.8"/>
	<path class="st0" d="M407.4,134.9c2.2,4.4,4.3,8.7,6.5,13.1"/>
	<path class="st0" d="M409.6,128.5c1.6,3.9,3.6,7.6,6,11.1"/>
	<path class="st0" d="M412.2,122.3c1.8,3.4,3.6,6.9,5.4,10.3"/>
	<path class="st0" d="M413.9,113.7c1.9,3.7,3.8,7.3,5.7,11"/>
	<path class="st0" d="M418.1,109.6c1.1,2.2,2.2,4.3,3.3,6.4"/>
	<path class="st0" d="M225.6,283c1.6,4.1,4.9,7.4,8.4,10.1c9.4,7.5,20.7,12.5,32.5,14.4"/>
	<path class="st0" d="M240.1,302.2c5.5,4.3,11.7,7.7,18.2,10.1"/>
	<path class="st0" d="M244.1,312.4c4.4,2.9,9.1,5.4,13.9,7.5"/>
	<path class="st0" d="M248.3,323.5c3.6,2.3,7.2,4.5,10.7,6.8"/>
	<path class="st0" d="M249.8,331.6c3.6,2.4,7.2,4.8,10.8,7.2"/>
	<path class="st0" d="M252.9,342.4c3.7,2.2,7.4,4.4,11,6.5"/>
	<path class="st0" d="M254.4,351.9c3.9,2.8,8.1,5.3,12.5,7.5"/>
	<path class="st0" d="M325,487.4c4.2-0.6,8.2-2,11.9-4"/>
	<path class="st0" d="M315.7,481.5c5.2-0.1,10.4-1.4,15.1-3.8"/>
	<path class="st0" d="M310.2,476.4c4.3-0.7,8.6-1.6,12.9-2.7"/>
	<path class="st0" d="M302.5,470.1c4.8-0.4,9.5-1,14.2-1.9"/>
	<path class="st0" d="M297.9,463.4c3.5-0.4,6.9-0.8,10.4-1.2"/>
	<path class="st0" d="M291.1,457.4c4.3-0.2,8.6-0.7,12.9-1.5"/>
	<path class="st0" d="M286.8,450.6c4.9,0.1,9.8-0.3,14.5-1.1"/>
	<path class="st0" d="M283.5,445.3c3.3-0.1,6.5-0.2,9.8-0.4"/>
	<path class="st0" d="M280.5,440.5c3.7-0.2,7.5-0.3,11.2-0.5"/>
	<path class="st0" d="M274.9,432.7c5.9,1,11.8,1.2,17.7,0.6"/>
	<path class="st0" d="M270.9,423.9c5.3,1.2,10.8,1.8,16.3,2"/>
	<path class="st0" d="M268.2,416.9c5.2,1.8,10.7,2.8,16.2,2.8"/>
	<path class="st0" d="M264.4,409c5.5,2,11.2,3.1,17,3.4"/>
	<path class="st0" d="M260.4,400.2c5.4,1.9,11,3.2,16.7,3.9"/>
	<path class="st0" d="M260.5,391.5c4.2,1.6,8.7,2.6,13.2,3.1"/>
	<path class="st0" d="M259.9,384.4c3.7,1.4,7.5,2.4,11.4,3"/>
	<path class="st0" d="M257.1,373.4c4,2,8.2,3.7,12.5,5.2"/>
	<path class="st0" d="M256.8,363.9c3.2,1.7,6.3,3.4,9.5,5.2"/>
	<path class="st0" d="M282.5,208c10.5,4.4,18.7,13.2,24.5,23.1s9.3,20.8,12.9,31.7"/>
	<path class="st0" d="M397.2,128.6c-25,43.5-51.1,86.4-78.3,128.6"/>
</g>
<g id="Layer_8">
	<path class="st0" d="M262.2,236.8c-0.6-5.5-4.3-10.5-9.3-12.7c-5-2.2-11.2-1.5-14.5,1.5c2,4.5,5.2,8.6,9.5,11
		C252.3,239.1,257.9,239.5,262.2,236.8z"/>
	<path class="st0" d="M242.9,223.3c-1.3,1.4-2.5,3-3.6,4.6"/>
	<path class="st0" d="M244.4,223.3c-1.5,1.8-2.8,3.6-4.1,5.6"/>
	<path class="st0" d="M246.8,222.8c-1.8,2.4-3.5,4.8-5.1,7.2"/>
	<path class="st0" d="M248.6,223.8c-2.4,2.8-4.6,5.6-6.6,8.6"/>
	<path class="st0" d="M250.7,223.8c-2.7,3.3-5.2,6.7-7.7,10.1"/>
	<path class="st0" d="M252.3,224.3c-2.7,3.2-5.2,6.7-7.4,10.4"/>
	<path class="st0" d="M253.7,224.9c-2.2,3.6-4.7,7.2-7.3,10.5"/>
	<path class="st0" d="M255.5,225.6c-2.6,3.6-5.2,7.3-7.6,11"/>
	<path class="st0" d="M256.7,226.5c-2.5,3.6-4.9,7.2-7.2,11"/>
	<path class="st0" d="M257.7,227.5c-2.4,3.3-4.5,6.7-6.4,10.2"/>
	<path class="st0" d="M258.7,228.8c-2.1,3-4,6.2-5.6,9.6"/>
	<path class="st0" d="M259.5,230.2c-2,2.7-3.8,5.6-5.3,8.6"/>
	<path class="st0" d="M260.2,231.6c-1.5,2.4-3,4.7-4.5,7.1"/>
	<path class="st0" d="M261.2,233.2c-1.1,1.6-2.3,3.3-3.4,4.9"/>
	<path class="st0" d="M261.9,235c-0.7,0.8-1.3,1.7-1.9,2.6"/>
	<path class="st0" d="M232.1,291.8c9.7,7.2,21.8,11.1,33.9,11.1"/>
	<path class="st0" d="M209.8,232.9c21.9-2.1,44.4,5.6,60.7,20.3"/>
	<path class="st0" d="M210.3,230.4c21.9,0.6,43.4,8.8,60.2,22.8"/>
	<path class="st0" d="M217.9,216.6c3.4,4,9.4,4.9,14.7,4.1s10.3-2.6,15.6-3c9.2-0.6,18.5,4.1,23.5,11.9"/>
	<path class="st0" d="M220.4,215.3c2.3,3.1,6.6,4.2,10.4,4s7.6-1.2,11.5-1.6c11.1-1.1,22.6,4.6,28.6,14"/>
	<path class="st0" d="M218.7,216.4c4.3,3.2,10.1,3.8,15.5,3.4s10.8-1.4,16.2-0.9c8.2,0.8,15.9,5.6,20.3,12.5"/>
	<path class="st0" d="M220.5,215.3c-7.3,5.6-12.1,14.3-13,23.4"/>
	<path class="st0" d="M219.7,217.6c-3.7,4.3-6.7,9.2-8.6,14.5"/>
	<path class="st0" d="M222.6,218.8c-3.3,3.6-5.8,8-7.3,12.6"/>
	<path class="st0" d="M224.7,219.9c-2.5,3.8-4.6,7.9-6.2,12.1"/>
	<path class="st0" d="M228.5,219.8c-2.7,3.6-5,7.5-6.7,11.6"/>
	<path class="st0" d="M231.5,219.7c-2.6,3.7-4.9,7.7-6.9,11.9"/>
	<path class="st0" d="M234.5,219.9c-2.7,3.6-5,7.6-6.7,11.8"/>
	<path class="st0" d="M236.6,221.9c-2.3,3.9-4.6,7.8-6.9,11.7"/>
</g>
</svg>
