<?xml version="1.0" encoding="utf-8"?>
<!-- Generator: Adobe Adobe Illustrator 24.2.0, SVG Export Plug-In . SVG Version: 6.00 Build 0)  -->
<svg version="1.1" xmlns="http://www.w3.org/2000/svg" xmlns:xlink="http://www.w3.org/1999/xlink" x="0px" y="0px" width="800px"
	 height="800px" viewBox="0 0 800 800" style="enable-background:new 0 0 800 800;" xml:space="preserve">
<style type="text/css">
	.st0{fill:none;stroke:#000000;stroke-width:0.5;stroke-miterlimit:10;}
</style>
<g id="Layer_4">
	<path class="st0" d="M347.98,98.2c7.03,27.88,13.25,55.95,18.67,84.19"/>
	<path class="st0" d="M403.15,94.09c-1.95,28.87-3.23,57.78-3.85,86.71"/>
	<path class="st0" d="M366.45,182.27c1.96,2.4,4.91,3.8,7.88,4.69c4.73,1.43,9.86,1.8,14.64,0.51c4.78-1.29,9.16-4.33,11.6-8.63"/>
	<path class="st0" d="M399.26,99.48c-3.42,4.36-8.69,6.96-14.11,8.11c-5.42,1.14-11.02,0.95-16.54,0.57
		c-5.75-0.4-11.78-1.1-16.47-4.46c-1.7-1.22-3.22-2.84-4.6-4.82c1.77-5.36,6.37-9.45,11.55-11.68c5.18-2.23,10.93-2.8,16.57-2.87
		c9.45-0.12,19.4,1.29,26.92,7.01"/>
	<path class="st0" d="M358.96,88.65c-3.49,4.64-6.74,9.46-9.73,14.44"/>
	<path class="st0" d="M364.19,86.7c-4.03,5.17-7.45,10.82-10.17,16.79"/>
	<path class="st0" d="M369.83,86.62c-4.94,6.12-9.26,12.74-12.85,19.73"/>
	<path class="st0" d="M375.95,85.55c-5.51,6.75-10.24,14.15-14.04,21.99"/>
	<path class="st0" d="M382.23,85.96c-5.44,6.34-10.27,13.19-14.42,20.44"/>
	<path class="st0" d="M387.07,86.61c-5.13,6.6-10.28,13.25-14.13,20.67"/>
	<path class="st0" d="M391.87,88.89c-4.65,5.82-8.86,11.99-12.58,18.44"/>
	<path class="st0" d="M397.54,89.92c-4.37,5.04-8.15,10.6-11.22,16.53"/>
	<path class="st0" d="M401.74,92.24c-1.22,1.9-2.45,3.81-3.67,5.71"/>
	<path class="st0" d="M363.7,172.8c-47.17,15.94-86.68,53.17-105.4,99.31"/>
	<path class="st0" d="M400.45,168.94c28.5,1.26,54.11,17.36,76.54,34.98c16.44,12.91,32.94,28.5,36.77,49.05"/>
	<path class="st0" d="M366.44,182.66c-16.66,11.77-30.62,27.35-40.5,45.2"/>
	<path class="st0" d="M375.89,187.44c-9.48,36.21-17.31,73.51-14.35,110.82"/>
	<path class="st0" d="M395.91,186.08c8.26,10.96,14.27,23.62,17.55,36.95"/>
	<path class="st0" d="M403.84,181.98c38.85,16.48,71.02,48.17,88.07,86.78"/>
	<path class="st0" d="M347.69,305.93c13.62,5.07,29.12,4.92,42.64-0.42"/>
	<path class="st0" d="M354.37,307.01c-6.65,15.46-12.53,31.25-17.6,47.29"/>
	<path class="st0" d="M389.51,307.37c-10.46,16.11-19.95,32.84-28.4,50.09"/>
	<path class="st0" d="M336.35,355.27c7.12,4.12,16.1,4.86,23.8,1.96"/>
	<path class="st0" d="M353.74,308.9c-0.79,13.46-1.59,26.91-2.38,40.37"/>
	<path class="st0" d="M335.52,354.72c6.07-15.39,12.14-30.77,18.2-46.16"/>
	<path class="st0" d="M353.09,309.35c-0.35,13.34-0.59,26.69-0.67,39.96c0.63,1.21,2.21,1.51,3.57,1.63
		c2.55,0.24,5.23,0.37,7.58-0.63"/>
	<path class="st0" d="M351.73,316.85c2.65-2.83,5.41-5.55,8.27-8.17"/>
	<path class="st0" d="M352.46,319.11c3.36-3.57,6.96-6.91,10.78-9.99"/>
	<path class="st0" d="M353.73,322.01c0.71-1.31,1.83-2.35,2.94-3.34c3.24-2.9,6.59-5.67,10.04-8.31"/>
	<path class="st0" d="M352.6,327.42c5.81-5.94,12.01-11.49,18.56-16.59"/>
	<path class="st0" d="M353.14,330.71c7.77-7.92,16.18-15.22,25.12-21.8"/>
	<path class="st0" d="M353.17,334.24c9.75-8.37,19.59-16.65,29.51-24.83"/>
	<path class="st0" d="M352.54,339.01c10.5-9.19,21.22-18.11,32.16-26.77"/>
	<path class="st0" d="M352.97,342.23c7.99-6.37,16.31-12.32,24.9-17.85"/>
	<path class="st0" d="M352.75,345.65c6.33-4.74,12.81-9.28,19.42-13.62"/>
	<path class="st0" d="M353.19,349.02c5.57-3.85,11.13-7.69,16.7-11.54"/>
	<path class="st0" d="M356.34,349.94c3.63-3.1,7.53-5.88,11.65-8.28"/>
	<path class="st0" d="M360.79,349.59c1.61-1.31,3.22-2.61,4.83-3.92"/>
	<path class="st0" d="M390.69,306.68c-0.24,16.1-0.31,32.21-0.21,48.31"/>
	<path class="st0" d="M389.29,313.31c0.11,10.54-0.56,21.08-0.52,31.62c0.03,8.38,0.51,16.76,1,25.13"/>
	<path class="st0" d="M381.23,322.83c1.11,24.76,2.36,49.52,3.76,74.26"/>
	<path class="st0" d="M363.88,357.45c7.59,10.87,14.85,21.96,21.78,33.26"/>
	<path class="st0" d="M338.64,357.68c15.23,9.81,27.76,23.47,43.31,32.76"/>
	<path class="st0" d="M390.06,315.25c-9.11,14.63-17.3,29.82-24.52,45.47"/>
	<path class="st0" d="M389.18,329.72c-6.63,10.88-12.96,21.94-18.97,33.18"/>
	<path class="st0" d="M389.39,341.37c-5.47,9.01-10.68,18.18-15.62,27.48"/>
	<path class="st0" d="M388.09,354.76c-3.49,6.92-7.22,13.72-11.19,20.38"/>
	<path class="st0" d="M388.9,364.71c-2.98,4.97-5.79,10.04-8.43,15.19"/>
	<path class="st0" d="M388.85,372.78c-1.98,3.79-3.96,7.58-5.94,11.37"/>
	<path class="st0" d="M388.53,346.52c0.19,14.01,0.38,28.03,0.57,42.04"/>
	<path class="st0" d="M343.63,358.17c-0.13,0.79-0.26,1.59-0.39,2.38"/>
	<path class="st0" d="M347.45,358.33c-0.15,1.88-0.4,3.75-0.77,5.6"/>
	<path class="st0" d="M350.53,358.2c-0.36,2.78-0.73,5.56-1.09,8.33"/>
	<path class="st0" d="M354.27,358.27c-0.71,3.66-1.35,7.34-1.94,11.02"/>
	<path class="st0" d="M357.9,357.61c-0.75,4.53-1.4,9.07-1.95,13.62"/>
	<path class="st0" d="M362.43,356.15c-0.89,5.93-1.99,11.82-3.3,17.67"/>
	<path class="st0" d="M365.23,359.45c-0.41,5.52-0.94,11.03-1.59,16.52"/>
	<path class="st0" d="M367.82,362.97c-0.19,5.26-0.49,10.52-0.9,15.78"/>
	<path class="st0" d="M370.59,367.6c-0.35,4.53-0.7,9.07-1.05,13.6"/>
	<path class="st0" d="M372.98,371.86c-0.22,3.53-0.39,7.06-0.51,10.6"/>
	<path class="st0" d="M375.32,374.11c-0.21,3.53-0.36,7.07-0.45,10.6"/>
	<path class="st0" d="M377.33,377.65c0,2.72,0.01,5.45,0.01,8.17"/>
	<path class="st0" d="M379.94,381.03c0.15,2.36,0.11,4.74-0.12,7.09"/>
	<path class="st0" d="M382.29,385.11c0.05,1.36,0.1,2.71,0.15,4.07"/>
	<path class="st0" d="M389.26,251.75c3.93-2.76,8.81-3.81,13.59-4.31c17.13-1.77,34.86,3.16,48.62,13.51"/>
	<path class="st0" d="M386.96,250.12c10.08-4.52,21.56-5.5,32.45-3.68c10.89,1.83,21.22,6.37,30.48,12.39"/>
	<path class="st0" d="M386.17,253.26c11.2-5.63,24.37-5.98,36.78-4.22c9.98,1.42,20.07,4.28,27.96,10.56"/>
	<path class="st0" d="M293.89,262.18c1.49-2.89,4.07-5.08,6.8-6.83c6.25-4,13.63-6.07,21.04-6.54s14.86,0.63,22.01,2.6"/>
	<path class="st0" d="M298.88,255.19c13.12-7.11,29.12-8.7,43.39-4.31"/>
	<path class="st0" d="M303.71,251.42c11.65-4.2,24.38-5.36,36.6-3.34"/>
	<path class="st0" d="M298.87,259c4.03-4.02,9.8-5.74,15.41-6.72c9.84-1.73,20-1.65,29.81,0.21"/>
	<path class="st0" d="M306.42,252.44c10.79-3.42,22.6-3.55,33.46-0.36"/>
	<path class="st0" d="M301.38,257.65c6.64-3.97,14.43-5.69,22.16-6.11s15.46,0.42,23.15,1.25"/>
	<path class="st0" d="M388.18,254.65c4.64-3.01,10.11-4.56,15.6-5.24s11.05-0.53,16.58-0.38c6.77,0.19,13.9,0.48,19.65,4.06"/>
	<path class="st0" d="M388.32,256.51c12.2-6.18,26.23-7.47,39.89-8.02"/>
	<path class="st0" d="M301.87,252.9c0.84-3.14,2.58-6.03,4.95-8.24"/>
	<path class="st0" d="M303.4,246.57c10.8-6.04,23.68-8.26,35.88-6.2"/>
	<path class="st0" d="M344.51,253.16c-7.08-1.44-14.3-2.49-21.52-2.09c-7.22,0.4-14.47,2.31-20.44,6.39"/>
	<path class="st0" d="M344.65,255.84c-12.2-4.83-26.05-5.37-38.58-1.51"/>
	<path class="st0" d="M443.36,247.67c-14.22-9.52-32.68-12.42-49.13-7.73"/>
	<path class="st0" d="M337.96,240.25c1.82,2.85,3.25,5.95,4.24,9.19"/>
	<path class="st0" d="M396.26,238.29c-2.73,3.92-4.6,8.44-5.42,13.14"/>
	<path class="st0" d="M443.27,247.22c-16.45-10.49-38.45-11.62-55.88-2.86"/>
	<path class="st0" d="M395.41,238.72c-1.46,4.2-2.75,8.46-3.89,12.76"/>
	<path class="st0" d="M442.39,246.8c-13.2-7.59-29.14-10.3-44.11-7.5"/>
	<path class="st0" d="M342.12,239.77c-14.69-1.5-29.67,1.89-42.86,8.53"/>
	<path class="st0" d="M400.6,263.77c-3.89,2.11-5.7,6.75-6.24,11.15c-0.66,5.37,0.19,11.04,3.12,15.59
		c1.91,2.97,4.75,5.43,8.14,6.45c3.38,1.02,7.31,0.46,10.01-1.82c1.26-1.06,2.22-2.45,2.98-3.91c3.67-6.98,2.92-16.06-1.85-22.33
		c-1.16-1.52-2.54-2.9-4.21-3.83C409.55,263.41,405.34,261.19,400.6,263.77z"/>
	<path class="st0" d="M328.85,263.51c-5.06,3.24-7.99,9.23-8.33,15.23c-0.28,5.04,1.26,10.36,4.96,13.78
		c3.7,3.43,9.74,4.45,13.93,1.65c1.22-0.82,2.25-1.91,3.11-3.1c3.84-5.31,4.32-12.64,1.95-18.75c-1.16-2.99-2.99-5.79-5.62-7.62
		S332.35,261.27,328.85,263.51z"/>
	<path class="st0" d="M327.29,264.71c-2.63,5.37-4.88,10.93-6.73,16.62"/>
	<path class="st0" d="M331.06,262.35c-3.67,7.35-6.94,14.89-9.8,22.59"/>
	<path class="st0" d="M332.94,263.03c-3.34,7.81-6.76,15.59-10.28,23.32"/>
	<path class="st0" d="M335.22,263.79c-3.64,8.9-7.27,17.8-10.91,26.71"/>
	<path class="st0" d="M336.94,265.22c-3.86,8.93-7.23,18.06-10.11,27.35"/>
	<path class="st0" d="M339.05,265.07c-4.01,9.93-7.57,20.04-10.64,30.3"/>
	<path class="st0" d="M340.28,267.47c-3.57,9.15-6.72,18.46-9.45,27.89"/>
	<path class="st0" d="M342.13,268.15c-3.34,9.29-6.48,18.65-9.41,28.08"/>
	<path class="st0" d="M342.88,270.73c-2.85,8.27-5.39,16.64-7.63,25.09"/>
	<path class="st0" d="M343.8,273.46c-2.2,7.03-4.49,14.03-6.86,21"/>
	<path class="st0" d="M344.56,276.67c-1.56,5.78-3.39,11.48-5.47,17.09"/>
	<path class="st0" d="M344.96,280.42c-0.93,3.66-2.07,7.27-3.41,10.8"/>
	<path class="st0" d="M399.96,264.35c-1.86,4.13-3.44,8.39-4.73,12.74"/>
	<path class="st0" d="M402.49,263.65c-2.65,6.69-5.02,13.49-7.1,20.38"/>
	<path class="st0" d="M404.92,262.52c-2.85,8.98-5.69,17.96-8.54,26.94"/>
	<path class="st0" d="M406.85,262.51c-2.7,9.93-5.43,19.86-8.17,29.78"/>
	<path class="st0" d="M408.56,263.41c-2.74,10.21-5.28,20.48-7.63,30.79"/>
	<path class="st0" d="M410.64,263.67c-2.34,10.58-4.69,21.17-7.03,31.75"/>
	<path class="st0" d="M412.16,265.26c-2.13,10.66-4.25,21.32-6.38,31.98"/>
	<path class="st0" d="M413.89,265.86c-2.19,10.23-4.01,20.53-5.46,30.88"/>
	<path class="st0" d="M415.26,267.75c-1.33,9.5-2.48,19.03-3.45,28.58"/>
	<path class="st0" d="M416.79,269.33c-0.85,8.31-1.45,16.65-1.81,24.99"/>
	<path class="st0" d="M418.9,272.28c-0.7,6.62-1.39,13.24-2.09,19.86"/>
	<path class="st0" d="M420.33,276.9c-0.24,3.85-0.48,7.7-0.72,11.55"/>
	<path class="st0" d="M300.63,257.48c-1.22,7.04-1.94,14.21-1.4,21.34s2.4,14.23,6.07,20.36"/>
	<path class="st0" d="M344.55,255.86c3.95,14.72,3.66,30.56-0.84,45.12"/>
	<path class="st0" d="M424.82,248.17c-12.63-2.59-25.92-1.85-38.18,2.13"/>
	<path class="st0" d="M389.17,254.61c10.99-5.21,23.51-7.16,35.57-5.52"/>
	<path class="st0" d="M388.05,251.93c9.33-4.23,19.93-4.34,30.18-4.39"/>
	<path class="st0" d="M341.81,250.3c-11.17-3.23-23.21-3.42-34.48-0.55"/>
	<path class="st0" d="M343.69,254.37c-11.89-4.3-25.02-5.12-37.36-2.33"/>
	<path class="st0" d="M450.23,257.2c-9.26-6.17-20.17-9.85-31.28-10.56"/>
	<path class="st0" d="M390.87,255c-1.72,17.43,0.2,35.98,10,50.49"/>
	<path class="st0" d="M449.49,259.82c1.69,13.61-1.2,27.74-8.1,39.59"/>
	<path class="st0" d="M392.34,254.74c-1.02,8.22-1.83,16.53-1.14,24.78s2.94,16.53,7.61,23.37"/>
	<path class="st0" d="M450.27,259.69c-0.62,14.19-4.38,28.23-10.93,40.83"/>
	<path class="st0" d="M398.52,305.41c15.08-4.87,31.24-6.35,46.95-4.31"/>
	<path class="st0" d="M345.97,304.2c-14.81-7.1-32.89-6.96-47.59,0.38"/>
	<path class="st0" d="M396.44,305.54c17.11-6.15,35.72-8.04,53.71-5.48"/>
	<path class="st0" d="M299.55,302.76c8.83-1.96,17.84-3.93,26.85-3.08c7.12,0.67,13.94,3.08,20.68,5.46"/>
	<path class="st0" d="M257.54,272.43c0.99,4.4,4.38,7.83,7.76,10.82c10.27,9.08,22.37,16.75,35.92,18.83"/>
	<path class="st0" d="M449.3,297.96c26.68-5.98,50.93-22.2,66.65-44.57"/>
	<path class="st0" d="M258.4,271.9c9,14.02,22.63,25.02,38.24,30.85"/>
	<path class="st0" d="M450.88,298.49c13.24-3,25.7-9,36.85-16.75c11.14-7.75,21.01-17.24,29.89-27.51"/>
	<path class="st0" d="M339.85,398.32c15.39,5.39,31.96,8.2,48.11,5.9c16.15-2.3,31.85-10.05,41.88-22.92"/>
	<path class="st0" d="M373.39,406.86c-0.35,6.62-0.7,13.25-1.05,19.87c-0.14,2.59-0.11,5.58,1.89,7.23c1.21,1.01,2.88,1.24,4.46,1.3
		c9.35,0.33,18.21-4.36,25.46-10.27c10.52-8.57,19.02-21.01,18.64-34.57"/>
	<path class="st0" d="M371.41,427.92c9.97-11.67,27.31-16.4,41.83-11.42"/>
	<path class="st0" d="M340.67,400.89c7.17,2.92,14.95,3.95,22.63,4.84c4.49,0.52,9,1.01,13.53,1.04
		c20.28,0.18,40.45-9.12,53.49-24.64"/>
	<path class="st0" d="M425.34,372.15c3.08,6.63,8.8,11.99,15.62,14.62"/>
	<path class="st0" d="M345.7,392.45c-2.21,6.24-6.17,11.85-11.31,16.03"/>
	<path class="st0" d="M424.74,368.35c2.63,8.4,8.61,15.69,16.34,19.9"/>
	<path class="st0" d="M375.47,406.26c-0.81,6.86-1.83,13.69-3.06,20.49"/>
	<path class="st0" d="M377.47,407.25c-0.87,6.15-1.74,12.29-2.61,18.44"/>
	<path class="st0" d="M380.53,406.57c-0.99,5.17-1.99,10.34-2.98,15.51"/>
	<path class="st0" d="M383.16,406.31c-0.8,4.77-1.6,9.54-2.4,14.31"/>
	<path class="st0" d="M385.82,406.45c-0.76,4.05-1.38,8.13-1.85,12.22"/>
	<path class="st0" d="M388.98,405.88c-0.91,4.3-1.64,8.64-2.19,13"/>
	<path class="st0" d="M391.82,405.11c-0.81,4.14-1.55,8.3-2.2,12.47"/>
	<path class="st0" d="M395.09,403.32c-0.89,4.44-1.61,8.9-2.15,13.4"/>
	<path class="st0" d="M397.85,403.68c-0.69,4-1.38,8.01-2.06,12.01"/>
	<path class="st0" d="M400.75,402.35c-1.13,4.24-1.96,8.56-2.49,12.91"/>
	<path class="st0" d="M402.8,402.01c-0.52,4.16-1.23,8.3-2.13,12.4"/>
	<path class="st0" d="M405.35,400.14c-0.8,4.91-1.59,9.81-2.39,14.72"/>
	<path class="st0" d="M408.59,398.88c-0.9,5.3-1.81,10.6-2.71,15.89"/>
	<path class="st0" d="M410.81,398.95c-1.11,5.15-2.05,10.34-2.81,15.56"/>
	<path class="st0" d="M413.64,395.85c-0.92,6.34-1.84,12.67-2.75,19.01"/>
	<path class="st0" d="M417.21,395.25c-1.09,6.25-2.19,12.49-3.28,18.74"/>
	<path class="st0" d="M420.05,392.73c-0.83,5.48-1.78,10.93-2.86,16.37"/>
	<path class="st0" d="M422.4,391.87c-0.36,2.67-0.72,5.34-1.07,8.01"/>
	<path class="st0" d="M347.55,392.06c-2.58,6.15-7.4,11.05-12.11,15.78"/>
	<path class="st0" d="M341.69,400.44c1.9,0.51,3.8,1.02,5.7,1.53c4.12,1.11,8.26,2.22,12.5,2.74c2.61,0.32,5.23,0.43,7.86,0.51
		c8.57,0.27,17.21,0.32,25.63-1.25c8.43-1.57,16.7-4.88,23.05-10.64"/>
	<path class="st0" d="M373.28,406.53c-0.69,5.99-1.14,12-1.35,18.02c-0.12,3.49,0.01,7.43,2.54,9.84c2.97,2.83,7.76,2.19,11.67,0.93
		c15.78-5.06,29.1-17.33,35.44-32.64c0.74-1.78,1.39-3.62,1.68-5.53c0.46-3.02-0.01-6.09-0.48-9.1"/>
	<path class="st0" d="M371.59,444.57c1.46,2.35,4.24,3.5,6.92,4.17c11.8,2.95,25.11-1.3,33.01-10.55"/>
	<path class="st0" d="M350.95,102.86c3.71,11.17,5.03,22.98,7.64,34.46c1.31,5.79,2.96,11.5,4.4,17.26
		c2.56,10.2,4.51,20.54,6.45,30.88"/>
	<path class="st0" d="M352.98,104.39c7.35,26.41,13.59,53.13,18.69,80.06"/>
	<path class="st0" d="M355.81,106.09c6.88,26.2,12.91,52.63,18.08,79.22"/>
	<path class="st0" d="M358.73,106.36c6.41,26.94,12.04,54.06,16.9,81.32"/>
	<path class="st0" d="M361.27,107.14c4.95,27.08,13.43,53.61,15.41,81.06"/>
	<path class="st0" d="M363.43,106.67c5.95,26.32,11.26,52.79,15.93,79.37"/>
	<path class="st0" d="M366.02,107.82c5.54,26.81,10.63,53.71,15.28,80.69"/>
	<path class="st0" d="M368.66,108.32c5.56,25.88,10.32,51.94,14.26,78.11"/>
	<path class="st0" d="M371.45,108.62c3.62,26.31,10.4,52.13,13.61,78.49"/>
	<path class="st0" d="M376.58,108.8c2.97,25.86,6.15,51.69,9.56,77.5"/>
	<path class="st0" d="M381.6,108.37c2.14,26.03,4.61,52.03,7.39,78"/>
	<path class="st0" d="M389.07,107.16c-0.55,25.64,2.9,51.19,3.52,76.83"/>
	<path class="st0" d="M395.36,106.26c0.65,25.58-0.93,51.22,0.97,76.74"/>
	<path class="st0" d="M289.41,364.44c-14.46,27-27.69,54.65-39.65,82.85"/>
	<path class="st0" d="M301.87,392.69c-8.53,18.73-18.28,36.91-29.17,54.38"/>
	<path class="st0" d="M248.26,447.5c1.21,21.97,5.41,43.77,12.44,64.62"/>
	<path class="st0" d="M272.5,447.3c2.4,19.93,2.49,40.15,0.26,60.1"/>
	<path class="st0" d="M259.6,273.81c25.93,77.4,50.76,155.16,74.5,233.25"/>
	<path class="st0" d="M264.68,283.8c17.73,50.53,33.18,101.83,48.62,153.11c7.15,23.74,14.3,47.49,21.46,71.23"/>
	<path class="st0" d="M309.98,301.76c18.23,71.17,40.02,141.58,52.36,213.99"/>
	<path class="st0" d="M383.26,381.25c0.9,7.1,1.8,14.2,2.7,21.3"/>
	<path class="st0" d="M394.22,461.05c2.76,18.73,5.14,37.52,7.15,56.34"/>
	<path class="st0" d="M443.72,300.93c-1.17,66.76-2.34,133.53-3.5,200.29"/>
	<path class="st0" d="M492.17,278.61c-8.63,70.16-16.73,140.38-24.28,210.66"/>
	<path class="st0" d="M506.46,333.21c-7.96,1.35-15,6.37-19.93,12.77c-4.92,6.4-7.9,14.11-9.87,21.94"/>
	<path class="st0" d="M478.97,357.3c11.36,27.06,26.27,52.63,44.24,75.83"/>
	<path class="st0" d="M517.17,254.97c-4.39,26.44-9.29,52.79-14.7,79.04"/>
	<path class="st0" d="M494,386.93c-5.78,34.3-11.56,68.6-17.35,102.9"/>
	<path class="st0" d="M255.43,509.91c0.67,2.55,3.9,3.47,6.51,3.1c2.06-0.29,4.01-1.09,5.9-1.95c3.76-1.71,7.38-3.7,10.99-5.69"/>
	<path class="st0" d="M256.95,502.21c-2.55-0.36-5.17,0.79-6.96,2.64c-1.79,1.86-2.81,4.35-3.27,6.88c-0.22,1.18-0.32,2.4-0.13,3.58
		c0.56,3.56,4.01,6.43,7.61,6.33"/>
	<path class="st0" d="M274.49,499.72c4.87-1.55,10.7,1.66,12.01,6.6c0.37,1.39,0.4,2.92-0.23,4.21c-1.35,2.77-5.21,3.56-6.6,6.3"/>
	<path class="st0" d="M501.92,336.12c14.16,33.77,30.04,66.82,47.56,98.98"/>
	<path class="st0" d="M523.82,433.97c-8.07,21.34-11.54,44.41-10.09,67.18"/>
	<path class="st0" d="M548.41,434.67c-3.15,24.05-10.65,47.52-22.03,68.94"/>
	<path class="st0" d="M334.12,506.03c14.8,9.85,33.6,11.02,51.37,10.87c16.45-0.13,33.02-1.13,48.94-5.28
		c15.92-4.15,31.25-11.62,42.84-23.29"/>
	<path class="st0" d="M339.64,509.14c1.18,6.93,2.36,13.87,3.54,20.8"/>
	<path class="st0" d="M470.11,494.1c0.41,8.12,1.07,16.24,1.96,24.32"/>
	<path class="st0" d="M343.81,530.2c6.19,6.69,16.02,8.3,25.09,9.15c11.61,1.09,23.28,1.58,34.94,1.46
		c12.21-0.12,24.5-0.91,36.29-4.08c11.79-3.16,23.12-8.83,31.59-17.62"/>
	<path class="st0" d="M287.74,547.96c2.34,4.57,4.43,9.4,4.73,14.52c0.3,5.12-1.48,10.61-5.61,13.65"/>
	<path class="st0" d="M277.77,553.19c4.51,7.05,4.86,16.55,0.89,23.91c-1.15,2.13-2.75,4.17-4.99,5.08
		c-1.86,0.75-3.96,0.65-5.92,0.25c-5.52-1.12-10.54-4.53-13.61-9.25"/>
	<path class="st0" d="M253.29,521.93c-1.65,7.61-2.32,15.52-1.05,23.21s4.58,15.16,10.09,20.66"/>
	<path class="st0" d="M255.57,557.02c-1.69-0.6-3.75,0.12-4.69,1.64c-0.6,0.98-0.75,2.16-0.77,3.31c-0.05,2.84,0.6,5.66,1.57,8.34
		c1.55,4.29,4.27,8.56,8.56,10.09"/>
	<path class="st0" d="M254.32,523.15c-2.78,10-2.47,20.83,0.89,30.65c1.7,4.97,4.34,9.88,8.75,12.73"/>
	<path class="st0" d="M255.14,556.51c-1.89-0.1-3.54,1.51-4.09,3.32s-0.24,3.76,0.15,5.62c1.06,5,2.81,10.02,6.24,13.81
		c3.42,3.79,8.81,6.14,13.75,4.84c5.82-1.53,9.49-7.65,10.06-13.64c0.57-5.99-1.3-11.92-3.16-17.64"/>
	<path class="st0" d="M279.52,575.16c2.31,1.43,5.58,1.93,7.58,0.09c0.71-0.66,1.18-1.53,1.59-2.41c3.41-7.36,3.38-16.23-0.07-23.57
		"/>
	<path class="st0" d="M290.59,572.35c7.34-2.54,11.76-10.59,11.97-18.35c0.21-7.77-3.03-15.24-7.06-21.88
		c-4.03-6.65-8.91-12.78-12.5-19.67"/>
	<path class="st0" d="M283.24,513.13c1.44,7.22,7.93,12.16,11.99,18.31c4.47,6.76,6,15.1,6.1,23.2c0.04,2.97-0.11,6-1.19,8.76
		c-1.08,2.76-3.23,5.24-6.08,6.06"/>
	<path class="st0" d="M257.16,501.8c-3,0.56-5.84,2.05-7.92,4.29s-3.36,5.22-3.46,8.27c-0.08,2.38,0.63,4.88,2.35,6.51
		c1.75,1.65,4.46,2.19,6.71,1.34"/>
	<path class="st0" d="M255.23,510.57c0.21,1.38,1.52,2.39,2.89,2.68s2.78,0,4.14-0.33c3.25-0.79,6.46-1.83,9.41-3.4
		c2.34-1.25,4.7-2.88,7.35-2.78"/>
	<path class="st0" d="M273.95,499.54c2.63-1.08,5.75-0.86,8.21,0.58c2.45,1.43,4.18,4.05,4.53,6.87c0.1,0.78,0.09,1.58-0.16,2.33
		c-0.33,1-1.08,1.79-1.78,2.57c-1.64,1.81-3.2,3.7-4.67,5.65"/>
	<path class="st0" d="M289.54,364.39c-8.14,15.89-16.29,31.77-24.43,47.66c-1.95,3.8-3.9,7.61-5.77,11.45
		c-4.11,8.43-7.85,17.03-11.2,25.79"/>
	<path class="st0" d="M261.16,512.22c-6.87-20.38-11.21-41.61-12.89-63.05"/>
	<path class="st0" d="M273.2,509.29c3.75-20.14,3.41-41.02-0.13-62.77c10.68-15.16,19.5-31.63,26.2-48.93"/>
	<path class="st0" d="M513.12,490.33c-2.64-0.67-5.53-1.03-8.04,0.05c-2.97,1.27-4.87,4.47-5.04,7.69
		c-0.17,3.23,1.21,6.41,3.32,8.85"/>
	<path class="st0" d="M513.25,498.79c-1.17-0.76-2.5-1.55-3.88-1.3c-0.28,0.05-0.55,0.15-0.75,0.35c-0.66,0.67,0.06,1.77,0.77,2.39
		c4.47,3.86,10.11,6.4,15.98,7.01c1.32,0.14,2.77,0.14,3.81-0.68c1.04-0.82,1.19-2.76,0-3.32"/>
	<path class="st0" d="M512.56,490.43c-1.8-1.28-4.27-1.43-6.31-0.61c-2.05,0.82-3.67,2.52-4.64,4.5c-1.34,2.73-1.47,6.02-0.37,8.85
		c1.1,2.83,3.43,5.16,6.27,6.26"/>
	<path class="st0" d="M531.33,495.19c2.84,0.62,5.35,2.64,6.55,5.29s1.08,5.86-0.32,8.41c-1.78,3.23-5.29,5.13-8.78,6.32"/>
	<path class="st0" d="M493.28,539.58c-1.78,4.99-3.56,10.05-4.07,15.33s0.36,10.87,3.48,15.16c3.12,4.29,8.77,6.93,13.89,5.54"/>
	<path class="st0" d="M507.98,544.73c-1.51,7.02-3.03,14.13-2.68,21.3c0.2,4.17,1.4,8.82,5.04,10.85c2.3,1.28,5.09,1.22,7.71,1.03
		c2.67-0.19,5.38-0.49,7.85-1.53c5.35-2.26,8.89-8.2,8.34-13.98"/>
	<path class="st0" d="M502.16,502.38c-2.22,9.59-9.16,17.23-15.15,25.04c-5.99,7.81-11.47,17.18-9.98,26.91
		c1.16,7.55,6.84,14.23,14.11,16.58"/>
	<path class="st0" d="M528.55,515.78c3.59,4.71,5.15,10.79,4.98,16.71s-1.97,11.71-4.54,17.05c-1.63,3.39-3.64,7.06-2.68,10.7"/>
	<path class="st0" d="M529.47,551.88c5.49,3.76,7.35,11.94,4.03,17.71"/>
	<path class="st0" d="M502.86,505.34c-1.61,5.3-4.3,10.27-7.87,14.52c-2.31,2.75-4.97,5.18-7.4,7.82
		c-5.98,6.48-10.75,14.69-10.7,23.51s6.17,17.94,14.92,19.12"/>
	<path class="st0" d="M493.92,538.47c-3.03,4.83-5.27,10.25-5.72,15.93s1.01,11.63,4.66,16s9.62,6.92,15.21,5.82"/>
	<path class="st0" d="M507.53,543.97c-3.2,5.75-4.15,12.54-3.71,19.1c0.2,2.97,0.7,5.99,2.16,8.58c2.73,4.84,8.62,7.42,14.15,6.96
		c4.79-0.39,9.54-3.07,11.58-7.41c0.83-1.77,1.2-3.73,1.39-5.67c0.49-4.88-0.27-10.36-3.97-13.57"/>
	<path class="st0" d="M528.2,516.51c3.32,5.61,4.55,12.42,3.4,18.83c-1.49,8.34-6.83,16.35-5.04,24.64"/>
	<path class="st0" d="M502.44,505.94c-6.66,9.75-13.31,19.49-19.97,29.24c-2.21,3.23-4.44,6.52-5.62,10.25
		c-1.74,5.5-0.94,11.75,2.13,16.64c3.07,4.89,8.35,8.33,14.06,9.15"/>
	<path class="st0" d="M494.62,539.2c-4.19,4.89-5.48,11.63-5.76,18.06c-0.17,3.73-0.02,7.61,1.62,10.96
		c2.97,6.08,11.08,9.04,17.26,6.3"/>
	<path class="st0" d="M507.91,545.8c-2.25,5.21-3.5,10.86-3.67,16.54c-0.1,3.42,0.21,6.93,1.59,10.06c1.38,3.14,3.94,5.87,7.22,6.85
		c1.67,0.5,3.46,0.52,5.19,0.31c5.92-0.71,11.53-4.35,14.13-9.7s1.87-12.31-2.18-16.68"/>
	<path class="st0" d="M528.48,516.89c1.69,1.12,2.44,3.2,2.91,5.17c1.35,5.64,1.28,11.61-0.21,17.21
		c-1.82,6.85-5.75,13.56-4.54,20.55"/>
	<path class="st0" d="M505.33,507.67c-4.1-1.51-6.71-6.27-5.79-10.54c0.92-4.27,5.27-7.52,9.63-7.21"/>
	<path class="st0" d="M514.84,497.93c-1.49-0.23-2.97-0.47-4.46-0.7c-0.49-0.08-1.01-0.15-1.45,0.08c-0.69,0.35-0.86,1.32-0.56,2.03
		c0.3,0.71,0.93,1.22,1.55,1.68c5.17,3.77,11.55,5.85,17.95,5.88c1.38,0,2.95-0.18,3.78-1.29"/>
	<path class="st0" d="M530.62,494.19c2.39,1.26,4.87,2.61,6.39,4.84c1.82,2.68,1.91,6.34,0.54,9.27s-4.06,5.14-7.09,6.29"/>
	<path class="st0" d="M471.55,520.08c-12.11,13.94-31.97,17.69-50.31,19.79c-14.3,1.63-28.75,2.77-43.07,1.31
		c-14.32-1.46-28.59-5.64-41.04-15.33c-17.04,61.21-35.41,122.05-55.1,182.46"/>
	<path class="st0" d="M366.94,539.29c-11.19,62.43-20.67,125.16-28.41,188.11"/>
	<path class="st0" d="M403.39,540.61c2.37,61.86,5.68,123.67,9.96,185.43"/>
	<path class="st0" d="M438.77,538.61c12.84,34.49,17.1,71.57,27.78,106.79c6.88,22.69,16.41,44.57,22.1,67.58"/>
	<path class="st0" d="M464.91,523.83c3.76,9.24,7.37,18.55,10.83,27.91"/>
	<path class="st0" d="M484.26,568.07c17.3,40.37,36.31,80,56.95,118.77"/>
	<path class="st0" d="M473.07,517.94c3.21,5.47,6.17,11.07,8.88,16.8"/>
	<path class="st0" d="M503.64,577.61c16.59,30.72,33.19,61.44,49.78,92.17"/>
	<path class="st0" d="M280.99,707c20.18,8.15,40.37,16.31,60.55,24.46"/>
	<path class="st0" d="M410.36,735.63c25.89-4.85,51.77-9.7,77.66-14.55"/>
	<path class="st0" d="M340.56,730.49c22.64,3.47,45.52,5.36,68.42,5.65"/>
	<path class="st0" d="M490.47,723.22c16.35-11.83,32.7-23.66,49.05-35.49"/>
	<path class="st0" d="M282.57,706.55c19,7.67,38.01,15.34,57.01,23.01"/>
	<path class="st0" d="M410.58,735.53c25.44-4.17,50.88-8.34,76.32-12.51"/>
	<path class="st0" d="M491.69,720.58c16.36-9.39,31.89-20.21,46.36-32.31"/>
	<path class="st0" d="M541.35,685.4c3.47-5.74,6.95-11.48,10.42-17.22"/>
	<path class="st0" d="M339.57,727.87c23.14,4.03,46.53,6.59,70,7.64"/>
	<path class="st0" d="M415.03,732.87c23.8-3.68,47.59-7.35,71.39-11.03"/>
	<path class="st0" d="M282.19,706.35c20,7.49,40,14.98,60,22.48"/>
	<path class="st0" d="M345.79,730.38c21.42,2.37,42.98,3.43,64.53,3.18"/>
	<path class="st0" d="M492.86,721.51c16.23-10.21,31.87-21.37,46.79-33.4"/>
	<path class="st0" d="M542.73,685.42c4.13-5.62,7.87-11.52,11.19-17.66"/>
	<path class="st0" d="M341.23,515.73c41.78,14.08,89.52,9.3,127.69-12.77"/>
	<path class="st0" d="M342.94,523.74c40.63,15.88,88.43,12.16,126.11-9.82"/>
	<path class="st0" d="M341.27,516.55c41.58,15.25,90.01,10.49,127.84-12.55"/>
	<path class="st0" d="M341.06,523.81c13.24,3.6,26.51,7.2,40.06,9.27c13.56,2.07,27.48,2.58,40.94-0.01
		c17.64-3.39,33.82-11.94,49.6-20.52"/>
	<path class="st0" d="M340.81,515.1c20.8,8.06,43.5,11.18,65.7,9.03c22.2-2.15,43.88-9.58,62.74-21.49"/>
	<path class="st0" d="M346.88,532.22c-3.02-0.68-5.84-2.21-8.05-4.37c-0.99-0.96-1.91-2.27-1.6-3.62c0.23-0.97,1.08-1.7,2.02-2.05
		c0.94-0.35,1.96-0.38,2.96-0.41"/>
	<path class="st0" d="M337.5,524.39c-1.62,6.64-3.24,13.29-4.86,19.93"/>
	<path class="st0" d="M367.99,542.39c-11.24,60.75-21.12,121.74-29.65,182.93"/>
	<path class="st0" d="M337.49,527.02c-17.62,61.14-35.24,122.27-52.85,183.41"/>
	<path class="st0" d="M403.84,544.4c2.19,61.7,4.39,123.41,6.58,185.11"/>
	<path class="st0" d="M438.79,539.24c14.79,60.48,31.15,120.57,49.07,180.19"/>
	<path class="st0" d="M465.54,526.97c2.64,9.11,6.02,18.01,10.1,26.58"/>
	<path class="st0" d="M484.37,568.98c18.97,39.55,37.94,79.1,56.91,118.65"/>
	<path class="st0" d="M336.26,528.35c-18.23,59.72-36.46,119.44-54.69,179.15"/>
	<path class="st0" d="M367.98,543.44C356.23,605,346.3,666.9,338.21,729.04"/>
	<path class="st0" d="M404.05,543.98c1.51,63.96,3.02,127.91,4.52,191.87"/>
	<path class="st0" d="M366.16,543.88c-8.72,62.16-17.44,124.32-26.16,186.48"/>
	<path class="st0" d="M439.68,540.03c13.59,62.13,30.1,123.63,49.45,184.21"/>
	<path class="st0" d="M465.57,527.75c2.97,7.91,5.95,15.82,8.92,23.73"/>
	<path class="st0" d="M483.94,569.41c18.95,38.8,37.9,77.6,56.85,116.4"/>
	<path class="st0" d="M472.8,519.42c2.74,4.99,5.47,9.97,8.21,14.96"/>
	<path class="st0" d="M502.74,577.51c16.26,31.62,33.48,62.75,51.64,93.32"/>
	<path class="st0" d="M479.04,357.29c13.15,26.35,28.18,51.76,44.93,75.98"/>
	<path class="st0" d="M550.19,434.21c-17.74-31.67-33.89-64.24-45.97-98.69c-12.34,4.79-22.45,15.04-27.06,27.45"/>
	<path class="st0" d="M522.77,433.19c-6.13,22.5-8.48,46.02-6.94,69.29"/>
	<path class="st0" d="M548.76,434.66c-3.16,24.04-10.21,47.56-20.81,69.36"/>
	<path class="st0" d="M523.15,433.49c-6.22,21.29-9.76,43.35-10.52,65.51"/>
	<path class="st0" d="M548.76,437.51c-3.27,22.67-10.03,44.82-19.98,65.45"/>
	<path class="st0" d="M480.02,361.52c11.62,23.84,25.19,46.72,40.53,68.36"/>
	<path class="st0" d="M504.14,339.1c16.64,30.88,31.47,62.74,44.39,95.35"/>
	<path class="st0" d="M289.03,366.4c-14.75,26.47-28.25,53.64-40.42,81.39"/>
	<path class="st0" d="M299.78,396.97c-8.82,17.91-18.19,35.56-28.08,52.9"/>
	<path class="st0" d="M248.84,445.89c-0.02,21.64,3.6,43.29,10.65,63.75"/>
	<path class="st0" d="M273.03,448.3c2.71,19.6,3.58,39.45,2.61,59.21"/>
	<path class="st0" d="M399.7,167.9c3.18-5.22,6.77-10.19,10.72-14.86c3.89-4.6,8.37-9.06,14.09-10.95"/>
	<path class="st0" d="M425.51,172.71c6.75-9.65,16.09-17.49,26.76-22.46"/>
	<path class="st0" d="M424.02,141.83c2.54-0.15,5.08-0.3,7.62-0.23c8.2,0.23,16.33,2.82,23.15,7.38"/>
	<path class="st0" d="M456.62,187.1c2.16-12.45,1.27-25.41-2.58-37.44"/>
	<path class="st0" d="M439.18,179.35c1.32-6.56,1.37-13.38,0.13-19.95"/>
	<path class="st0" d="M404.06,161.63c1.08,2.38,2.17,4.76,3.25,7.14"/>
	<path class="st0" d="M406.58,159.95c1.53,3.52,3.06,7.03,4.59,10.55"/>
	<path class="st0" d="M408.46,156.97c2.21,4.21,4.42,8.42,6.63,12.63"/>
	<path class="st0" d="M410.34,153.12c3.45,6.11,6.9,12.23,10.34,18.34"/>
	<path class="st0" d="M413.3,149.96c3.92,7.92,8.17,15.67,12.73,23.24"/>
	<path class="st0" d="M416.92,147.57c3.63,7.06,7.54,13.96,11.74,20.7"/>
	<path class="st0" d="M420.3,144.84c3.57,6.57,7.14,13.14,10.72,19.71"/>
	<path class="st0" d="M424.42,142.61c3.01,6.05,6.01,12.09,9.02,18.14"/>
	<path class="st0" d="M429.35,142.54c2.32,5.05,4.64,10.1,6.97,15.16"/>
	<path class="st0" d="M435.05,142.82c1.85,4.22,3.7,8.44,5.55,12.66"/>
	<path class="st0" d="M440.65,144.16c1.2,2.88,2.39,5.76,3.59,8.63"/>
	<path class="st0" d="M444.54,144.8c1.23,2.79,2.46,5.58,3.69,8.37"/>
	<path class="st0" d="M448.79,145.8c0.76,1.49,1.45,3.02,2.05,4.58"/>
	<path class="st0" d="M440.42,178.09c4.26,2.48,8.52,4.97,12.78,7.45"/>
	<path class="st0" d="M440.05,175.39c5.28,3.31,10.69,6.42,16.21,9.32"/>
	<path class="st0" d="M440.43,173.77c5.27,2.92,10.54,5.84,15.81,8.76"/>
	<path class="st0" d="M440.15,171.39c5.5,3,11,6.01,16.5,9.01"/>
	<path class="st0" d="M441.11,169.96c5.02,2.67,9.96,5.5,14.79,8.48"/>
	<path class="st0" d="M440.47,167.42c5.43,2.7,10.76,5.58,16.01,8.62"/>
	<path class="st0" d="M441.49,165.55c5.34,3.1,10.77,6.04,16.28,8.82"/>
	<path class="st0" d="M441.08,162.23c4.57,3.04,9.34,5.78,14.27,8.19"/>
	<path class="st0" d="M440.1,160.71c4.93,2.91,9.97,5.6,15.13,8.08"/>
	<path class="st0" d="M440.88,159.12c4.88,3.06,9.96,5.81,15.2,8.21"/>
	<path class="st0" d="M441.85,157.83c5.1,2.63,10.19,5.25,15.29,7.88"/>
	<path class="st0" d="M443.03,155.77c4.52,2.51,9.15,4.81,13.88,6.88"/>
	<path class="st0" d="M445.56,154.6c3.4,1.69,6.75,3.5,10.02,5.43"/>
	<path class="st0" d="M447.79,153.88c2.52,1.06,4.99,2.24,7.39,3.55"/>
	<path class="st0" d="M449.68,151.68c1.96,0.86,3.92,1.71,5.88,2.57"/>
	<path class="st0" d="M441.48,177.28c4.95,2.44,9.82,5.03,14.61,7.77"/>
	<path class="st0" d="M440.85,174.49c4.84,2.49,9.69,4.98,14.53,7.48"/>
	<path class="st0" d="M441.25,172.14c4.64,2.88,9.45,5.46,14.41,7.74"/>
	<path class="st0" d="M440.94,167.26c4.99,3.48,9.98,6.96,14.96,10.44"/>
	<path class="st0" d="M441.15,164.76c5.06,3.5,10.22,6.86,15.47,10.09"/>
	<path class="st0" d="M441.52,161.97c5.04,3.63,10.17,7.13,15.4,10.48"/>
	<path class="st0" d="M442.55,160c4.86,3.26,9.78,6.45,14.74,9.56"/>
	<path class="st0" d="M443.94,157.35c4.04,3.13,8.34,5.92,12.84,8.33"/>
	<path class="st0" d="M446.21,155.19c3.3,1.21,5.85,3.96,9.12,5.25"/>
	<path class="st0" d="M403.02,164.78c0.24,0.96,0.48,1.92,0.72,2.88"/>
	<path class="st0" d="M399.22,167.18c4.52-10.49,12.62-19.4,22.63-24.89"/>
	<path class="st0" d="M426.41,174.19c1.14-2.32,2.88-4.28,4.67-6.15c6.61-6.95,14.08-13.09,22.17-18.23"/>
	<path class="st0" d="M311.79,306.64c19.41,70.66,36.25,142.03,50.48,213.91"/>
	<path class="st0" d="M394.12,465.84c1.41,15.96,2.81,31.93,4.22,47.89"/>
	<path class="st0" d="M446.45,306.26c-2.13,65.15-4.26,130.3-6.4,195.44"/>
	<path class="st0" d="M491.48,282.55c-11.48,70.2-20.23,140.85-26.22,211.74"/>
	<path class="st0" d="M491.95,385.86c-6.42,34.09-11.85,68.36-16.28,102.76"/>
	<path class="st0" d="M514.67,258.21c-4.14,25.34-8.29,50.68-12.43,76.02"/>
	<path class="st0" d="M312.62,302.48C324,348,335.38,393.53,346.75,439.06"/>
	<path class="st0" d="M394.33,458.08c1.25,18.52,3.3,36.99,6.14,55.34"/>
	<path class="st0" d="M441.07,461.72c-0.72,16.14-1.45,32.28-2.17,48.43"/>
	<path class="st0" d="M473.93,420.82c-2.75,25.15-5.49,50.3-8.24,75.45"/>
	<path class="st0" d="M399.94,99.52c0.16,26.3,0.01,52.61-0.45,78.91"/>
	<path class="st0" d="M348.43,97.94c-0.5,2.25,0.78,4.6,2.61,6.01c1.83,1.41,4.11,2.05,6.36,2.6c7.98,1.94,16.32,3.01,24.43,1.7
		c8.11-1.32,16.02-5.23,20.96-11.8"/>
	<path class="st0" d="M365.71,182.69c0.56,2.63,3.55,3.86,6.16,4.49c5.23,1.27,10.73,1.85,15.99,0.75c5.27-1.1,10.3-4.06,13.09-8.66
		"/>
	<path class="st0" d="M364.41,170.87c-47.16,16.83-86.66,54.04-106.26,100.12"/>
	<path class="st0" d="M365.67,182.33c-21.84,14.1-39.07,35.24-48.48,59.47"/>
	<path class="st0" d="M374.07,188.82c-11.57,36.7-15.98,75.64-12.93,113.99"/>
	<path class="st0" d="M395.79,184.04c11.6,14.59,19.43,32.16,22.5,50.55"/>
	<path class="st0" d="M401.72,180.09c42.02,17.82,76.68,52.34,94.66,94.3"/>
	<path class="st0" d="M400.47,169.61c24.74,4.22,48.43,14.45,68.47,29.55c20.04,15.1,36.4,35.05,47.28,57.66"/>
	<path class="st0" d="M402.7,169.25c47.77,9.91,90.54,41.76,113.72,84.69"/>
	<path class="st0" d="M445.29,302.68c-1.98,67.81-3.95,135.63-5.93,203.44"/>
</g>
<g id="Layer_5">
	<path class="st0" d="M329.91,265.54c-2.66,7.23-5.32,14.46-7.97,21.7"/>
	<path class="st0" d="M333.27,264.68c-3.91,8.09-7.16,16.5-9.71,25.11"/>
	<path class="st0" d="M335.84,266.24c-3.87,8.15-7.27,16.51-10.21,25.04"/>
	<path class="st0" d="M337.86,267.39c-3.5,8.54-7,17.07-10.5,25.61"/>
	<path class="st0" d="M340.07,268.9c-3.5,8.35-7,16.7-10.51,25.05"/>
	<path class="st0" d="M342.29,270.04c-3.17,7.86-6.35,15.73-9.52,23.59"/>
	<path class="st0" d="M343.77,273.01c-2.81,7.39-5.62,14.78-8.43,22.17"/>
	<path class="st0" d="M344.55,277.37c-1.8,5.36-3.61,10.72-5.41,16.08"/>
	<path class="st0" d="M340.23,269.59c-3.05,8.68-5.71,17.49-7.97,26.4"/>
	<path class="st0" d="M399.52,265.07c-2.26,5.78-4.23,11.68-5.91,17.66"/>
	<path class="st0" d="M403.65,263.41c-3.02,7.44-5.55,15.08-7.58,22.85"/>
	<path class="st0" d="M406.5,264.77c-3.16,8.61-6.06,17.33-8.69,26.12"/>
	<path class="st0" d="M408.92,264.87c-3.02,9.52-6.04,19.05-9.06,28.57"/>
	<path class="st0" d="M412.22,266.63c-3.55,10.02-6.67,20.19-9.34,30.48"/>
	<path class="st0" d="M409.59,266.13c-2.67,9.04-5.34,18.09-8.01,27.13"/>
	<path class="st0" d="M414.99,268.1c-3.14,9.61-6.28,19.23-9.42,28.84"/>
	<path class="st0" d="M414.95,270.68c-2.54,8.72-5.09,17.43-7.63,26.15"/>
	<path class="st0" d="M416.6,272.63c-2.23,8.11-4.46,16.22-6.69,24.32"/>
	<path class="st0" d="M418.3,275.14c-1.85,6.76-3.7,13.51-5.54,20.27"/>
	<path class="st0" d="M419.6,278.78c-1.19,5.02-2.37,10.04-3.56,15.07"/>
	<path class="st0" d="M400.99,264.77c-1.71,6.5-3.43,13.01-5.14,19.51"/>
	<path class="st0" d="M362.33,309.24c-3.62,2.67-6.98,5.7-10,9.04"/>
	<path class="st0" d="M365.96,309.25c-4.6,3.54-8.8,7.58-12.51,12.05"/>
	<path class="st0" d="M369.86,310.55c-5.86,3.81-11.3,8.26-16.19,13.26"/>
	<path class="st0" d="M374.84,309.19c-7.6,5.67-14.73,11.97-21.29,18.82"/>
	<path class="st0" d="M381.91,308.53c-9.43,7.09-18.42,14.77-26.88,22.99"/>
	<path class="st0" d="M386.08,310.54c-10.94,7.19-21.42,15.08-31.35,23.6"/>
	<path class="st0" d="M381.85,317.56c-9.38,6.27-18.37,13.12-26.91,20.5"/>
	<path class="st0" d="M376.51,327.13c-8.54,5.98-16.85,12.29-24.92,18.89"/>
	<path class="st0" d="M379.46,321.32c-9.59,6.15-18.77,12.93-27.46,20.3"/>
	<path class="st0" d="M372.28,333.52c-6.9,5.06-13.79,10.12-20.69,15.18"/>
	<path class="st0" d="M376.7,407.18c-0.93,5.61-1.85,11.22-2.78,16.84"/>
	<path class="st0" d="M378.52,407.35c-0.48,4.82-1.23,9.61-2.24,14.35"/>
	<path class="st0" d="M381.73,406.59c-0.73,4.95-1.45,9.9-2.18,14.86"/>
	<path class="st0" d="M385.03,406.23c-0.68,4.33-1.37,8.66-2.05,12.98"/>
	<path class="st0" d="M387.76,406.4c-0.68,3.64-1.37,7.29-2.05,10.93"/>
	<path class="st0" d="M390.25,406.33c-0.66,3.62-1.32,7.23-1.97,10.85"/>
	<path class="st0" d="M393.39,405.22c-0.77,3.67-1.54,7.35-2.3,11.02"/>
	<path class="st0" d="M396.78,404.1c-0.88,3.45-1.5,6.97-1.86,10.51"/>
	<path class="st0" d="M400.02,403.25c-0.77,3.02-1.54,6.04-2.31,9.06"/>
	<path class="st0" d="M402.22,401.89c-0.77,4.24-1.54,8.49-2.3,12.73"/>
	<path class="st0" d="M406.81,400.61c-0.91,4.3-1.81,8.6-2.72,12.9"/>
	<path class="st0" d="M410.22,398.54c-1.06,4.47-2.11,8.94-3.17,13.41"/>
	<path class="st0" d="M413.01,397.53c-1.14,5.5-2.27,10.99-3.41,16.49"/>
	<path class="st0" d="M415.92,395.73c-1.07,5.33-2.15,10.65-3.22,15.98"/>
	<path class="st0" d="M419.25,393.09c-0.23,5.1-1.12,10.16-2.65,15.03"/>
	<path class="st0" d="M421.85,393.12c-0.57,4.46-1.61,8.85-3.11,13.09"/>
	<path class="st0" d="M259.71,273.46c17.93-45.42,55.33-82.78,100.77-100.66"/>
	<path class="st0" d="M318.07,239.71c10.06-21.78,25.61-40.99,44.82-55.35"/>
	<path class="st0" d="M376.29,188.63c-9.41,21-14.49,43.93-14.81,66.94"/>
	<path class="st0" d="M397.71,186.09c8.85,13.14,14.87,28.17,17.52,43.79"/>
	<path class="st0" d="M405.28,181.28c38.32,15.34,70.3,45.89,87.38,83.47"/>
	<path class="st0" d="M403.8,169.65c24.43,3.17,47.97,12.95,67.46,28.01c19.49,15.07,34.88,35.38,44.11,58.22"/>
	<path class="st0" d="M502.65,333.79c3.2-26.01,7.82-51.83,13.84-77.34"/>
	<path class="st0" d="M493.31,388.14c-5.85,33.82-11.69,67.63-17.54,101.45"/>
	<path class="st0" d="M263.58,280.64c23.2,75.07,46.39,150.14,69.59,225.21"/>
	<path class="st0" d="M311.83,302.49c8.48,33.8,16.97,67.61,25.45,101.41"/>
	<path class="st0" d="M350,458.12c4.12,18.68,8.23,37.35,12.35,56.03"/>
	<path class="st0" d="M333.65,507.5c23.47,9.66,49.48,13.07,74.65,9.79s49.44-13.23,69.65-28.58"/>
	<path class="st0" d="M340.42,510.89c1.19,6.68,2.37,13.36,3.56,20.04"/>
	<path class="st0" d="M404.26,540.66c0.95,23.4,1.91,46.8,2.86,70.2"/>
	<path class="st0" d="M439.92,537.95c3.13,20.86,7.93,41.47,14.33,61.57"/>
	<path class="st0" d="M254.12,522.73c-2.9,6.98-3.69,14.82-2.21,22.24c1.47,7.41,5.19,14.36,10.54,19.7"/>
	<path class="st0" d="M255.75,502.56c-2.25-0.29-4.14,1.59-5.58,3.35c-1.44,1.75-2.86,3.55-3.78,5.62
		c-0.92,2.07-1.31,4.45-0.65,6.62c0.66,2.16,2.53,4.03,4.78,4.28"/>
	<path class="st0" d="M254.63,556.78c-1.62-0.55-3.45,0.59-4.18,2.14s-0.62,3.36-0.32,5.05c1.66,9.34,9,17.43,18.13,20"/>
	<path class="st0" d="M283.2,515.8c5.67,6.83,10.38,14.46,13.95,22.59c2.38,5.42,4.29,11.25,3.91,17.16
		c-0.37,5.91-3.43,11.94-8.77,14.5"/>
	<path class="st0" d="M502.18,506.68c-4.32,8.71-10.31,16.59-17.55,23.09"/>
	<path class="st0" d="M530.01,514.7c4.4,12.24,4.23,26.07-0.46,38.2"/>
	<path class="st0" d="M526.07,516.82c4.43-0.34,8.61-3.05,10.73-6.96s2.1-8.89-0.03-12.79"/>
	<path class="st0" d="M449.36,258.56c-16.37-12.38-38.84-16.22-58.39-9.99"/>
	<path class="st0" d="M342.16,250.51c-13.82-5.62-30.2-4.48-43.11,3"/>
	<path class="st0" d="M447.35,255.56c-12.72-9.26-29.4-12.87-44.81-9.71"/>
	<path class="st0" d="M371.64,446.39c6.02,4.24,13.75,6,21.01,4.78s13.99-5.4,18.3-11.38"/>
	<path class="st0" d="M373.8,445.37c11.75,5.79,27.01,3.42,36.45-5.66"/>
	<path class="st0" d="M424.79,368.82c0.81,9.03,7.53,17.23,16.22,19.81"/>
	<path class="st0" d="M374.19,444.83c1.2,2.79,4.78,3.51,7.82,3.7c6.02,0.37,12.16,0.14,17.92-1.64
		c5.76-1.79,11.15-5.25,14.41-10.32"/>
	<path class="st0" d="M389.21,306.64c-11,16.48-20.84,33.73-29.41,51.59"/>
	<path class="st0" d="M354.7,310.87c-7.38,14.43-13.72,29.38-17.67,44.12c7.09,4.83,17.13,4.86,24.24,0.07"/>
	<path class="st0" d="M389.55,308.71c0.12,14.99,0.24,29.99,0.36,44.98"/>
</g>
</svg>
