<?xml version="1.0" encoding="utf-8"?>
<!-- Generator: Adobe Adobe Illustrator 24.2.0, SVG Export Plug-In . SVG Version: 6.00 Build 0)  -->
<svg version="1.1" xmlns="http://www.w3.org/2000/svg" xmlns:xlink="http://www.w3.org/1999/xlink" x="0px" y="0px" width="800px"
	 height="800px" viewBox="0 0 800 800" style="enable-background:new 0 0 800 800;" xml:space="preserve">
<style type="text/css">
	.st0{fill:none;stroke:#000000;stroke-width:0.5;stroke-miterlimit:10;}
</style>
<g id="Layer_2">
	<path class="st0" d="M453.66,252.07c-8.02-8.74-18.92-14.78-30.57-16.97s-24-0.5-34.64,4.74"/>
	<path class="st0" d="M340.32,239.49c-8.5-4.68-18.76-6.06-28.19-3.77s-17.93,8.21-23.33,16.27"/>
	<path class="st0" d="M386.91,243.9c9.72-4.7,20.1-8.46,30.89-8.96s22.06,2.6,29.83,10.1"/>
	<path class="st0" d="M399.18,302.62c9.26,4.62,20.32,2.42,30.41,0.11"/>
	<path class="st0" d="M393.35,242.37c-4.24,12.84-3.06,26.86-0.35,40.11c0.87,4.27,1.92,8.56,3.97,12.41s5.21,7.25,9.28,8.8"/>
	<path class="st0" d="M437.41,300.15c11.73-9.94,17.09-26.8,13.26-41.68"/>
	<path class="st0" d="M399.45,303.77c14.98,1,29.9-6.56,44.66-3.81"/>
	<path class="st0" d="M338.68,240.15c10.17,17.07,11.86,38.93,4.44,57.36"/>
	<path class="st0" d="M301.52,248.23c-2.2,9.46-3.16,19.2-2.85,28.9c0.3,9.23,2.08,19.11,8.65,25.59"/>
	<path class="st0" d="M339.09,241.95c-15.16-6.19-33.42-4.05-46.75,5.46"/>
	<path class="st0" d="M449.63,247.66c-18.03-14.13-44.39-16.68-64.79-6.26"/>
	<path class="st0" d="M341.31,240.91c-7.61-2.33-15.52-4.08-23.48-3.68s-16.01,3.11-21.69,8.68"/>
	<path class="st0" d="M448.22,244.69c-9.95-5.12-20.3-10-31.41-11.28c-11.12-1.28-23.28,1.61-30.71,9.98"/>
	<path class="st0" d="M339.76,239.26c-15.32-5.13-33.17-1.84-45.67,8.39"/>
	<path class="st0" d="M343.94,306.76c-14.12-5.61-29.76-7.37-44.78-5.02"/>
	<path class="st0" d="M298.85,304.86c14.06-6.48,30.54-4.46,45.47-0.39"/>
	<path class="st0" d="M339.35,303.23c8.66-17.1,9.16-38.11,1.33-55.61"/>
	<path class="st0" d="M306,244.56c-3.89,5.71-5.85,12.56-6.66,19.42c-0.81,6.86-0.51,13.8-0.21,20.7"/>
	<path class="st0" d="M407.22,236.51c7.9-1.75,16.1,0.56,23.72,3.26c7.47,2.65,15.3,6.12,19.36,12.92"/>
	<path class="st0" d="M322.61,237.95c-5.32-0.6-10.7,0.9-15.48,3.32c-4.77,2.42-9.03,5.73-13.25,9.03"/>
	<path class="st0" d="M342.45,267.46c-3.61-4.71-11.08-5.85-15.93-2.43c-4.01,2.82-5.84,7.92-6.16,12.81
		c-0.27,3.99,0.35,8.12,2.34,11.59c1.99,3.47,5.47,6.19,9.44,6.71c2.59,0.34,5.3-0.28,7.48-1.72c3.66-2.4,5.58-6.82,6.01-11.18
		C346.05,278.88,347.05,273.46,342.45,267.46z"/>
	<path class="st0" d="M399.49,264.58c-2.65,1.93-4.34,4.99-5.06,8.19s-0.51,6.55,0.09,9.77c0.92,4.98,3.08,10.15,7.46,12.68
		c3.71,2.15,8.67,1.91,12.15-0.59c1.64-1.17,2.94-2.78,3.94-4.53c2.44-4.27,3.09-9.53,1.78-14.27c-1.31-4.74-4.57-8.92-8.85-11.34
		C407.6,262.57,402.85,262.13,399.49,264.58z"/>
	<path class="st0" d="M443.48,237.59c-16.58-9.97-37.31-12.78-55.95-7.58"/>
	<path class="st0" d="M439.53,233.74c-10.81-5.79-23.19-8.59-34.93-6.91c-5.65,2.83-10.41,7.39-13.49,12.91"/>
	<path class="st0" d="M295.84,244.44c8.21-11.69,22.73-18.66,36.99-17.74"/>
	<path class="st0" d="M297.07,236.8c4.31-2.73,8.96-4.92,13.8-6.52c2.65-0.87,5.36-1.57,8.11-2.05c4.74-0.83,9.6-1.03,14.39-0.58"/>
	<path class="st0" d="M401.72,264.02c-3.57,2.53-5.75,6.73-6.39,11.05s0.12,8.77,1.54,12.9c0.94,2.72,2.32,5.51,4.83,6.91
		c2.8,1.55,6.26,0.97,9.4,0.35"/>
	<path class="st0" d="M405.51,261.49c6.47,1.31,12.12,6.08,14.5,12.24c2.37,6.16,1.38,13.49-2.54,18.8"/>
	<path class="st0" d="M332.07,263.17c-3.66,0.38-6.92,2.75-8.95,5.82s-2.95,6.75-3.25,10.41c-0.26,3.08-0.11,6.24,0.86,9.18
		c0.97,2.94,2.8,5.65,5.4,7.32"/>
	<path class="st0" d="M339,265.41c3.65,3.38,6.49,7.82,7.17,12.75c0.68,4.93-1.08,10.31-5.06,13.29"/>
	<path class="st0" d="M325.99,267.59c-5.06,6.41-5.44,16.12-0.89,22.91c0.96,1.44,2.17,2.79,3.75,3.5c3.03,1.37,6.54,0.1,9.62-1.17"
		/>
	<path class="st0" d="M346.78,306.11c14.76,2.52,30.22,4.99,44.45,0.32"/>
	<path class="st0" d="M452.09,296.26c24.16-5.63,46.08-19.8,61.88-38.93"/>
	<path class="st0" d="M263.05,275.5c7.81,10.4,18.85,18.33,31.19,22.43"/>
	<path class="st0" d="M353.51,306.98c-5.25,16.05-10.77,32-16.55,47.87"/>
	<path class="st0" d="M390.11,306.94c-9.65,16.41-18.91,33.06-27.75,49.92"/>
	<path class="st0" d="M336.99,354.3c7.18,4.33,16.48,4.92,24.15,1.54"/>
	<path class="st0" d="M387.78,306.69c-0.02,25.56,0.49,51.12,1.55,76.66"/>
	<path class="st0" d="M364.99,356.93c5.85,9.2,11.69,18.4,17.54,27.6"/>
	<path class="st0" d="M338.12,354.55c13.47,11.27,27.29,22.11,41.45,32.51"/>
	<path class="st0" d="M259.79,275.58c0.92-10.25,6.03-19.6,11.38-28.4c18.28-30.07,43.02-59.34,77.08-68.19"/>
	<path class="st0" d="M347.3,98.36c6.91,27.77,13.3,55.67,19.15,83.67"/>
	<path class="st0" d="M359.55,172.2c-27.49,8.75-52.48,25.2-71.4,46.98c-12.7,14.63-22.88,32.19-25.13,51.43"/>
	<path class="st0" d="M402.42,172.06c24.05,3.27,47.69,11.08,67.88,24.54c20.19,13.46,36.79,32.77,45.22,55.52"/>
	<path class="st0" d="M453.26,298.61c17.96-6,34.75-15.5,49.15-27.8c5.5-4.7,10.83-10.09,13.04-16.97"/>
	<path class="st0" d="M400.52,306.23c12.86-1.74,25.69-3.7,38.49-5.87"/>
	<path class="st0" d="M353.53,306.91c0.2,14.43-0.15,28.87-0.79,43.11c3.63,0.2,7.25,0.41,10.88,0.61"/>
	<path class="st0" d="M359.12,308.19c-2.74,3.64-5.47,7.28-8.21,10.93"/>
	<path class="st0" d="M363.79,309.06c-3.78,3.94-7.15,8.28-10.04,12.91"/>
	<path class="st0" d="M368.97,309.07c-5.89,5.87-11.26,12.27-16.04,19.08"/>
	<path class="st0" d="M374.2,308.78c-7.92,7.99-14.98,16.84-20.99,26.34"/>
	<path class="st0" d="M380.63,308.41c-10,9.67-19.19,20.17-27.45,31.36"/>
	<path class="st0" d="M384.1,309.78c-10.8,10.09-20.68,21.16-29.46,33.05"/>
	<path class="st0" d="M385.8,313.54c-11.39,10.74-22.02,22.29-31.79,34.52"/>
	<path class="st0" d="M379.88,324.55c-7.27,7.27-14.21,14.88-20.78,22.79"/>
	<path class="st0" d="M373.43,336.28c-2.85,4.32-6.02,8.44-9.48,12.29"/>
	<path class="st0" d="M375.3,186.25c-11.15,37.18-16.26,76.17-15.09,114.97"/>
	<path class="st0" d="M394.85,186.3c8.91,9.81,15.83,21.41,20.23,33.91"/>
	<path class="st0" d="M403.47,180.7c37.88,18,69.96,48,90.44,84.6"/>
	<path class="st0" d="M362.45,181.62c-15.54,13.56-31.5,27.67-40.38,46.28"/>
	<path class="st0" d="M403.68,263.76c-3.21,0.85-5.8,3.39-7.22,6.39c-1.42,3-1.78,6.41-1.57,9.72c0.27,4.39,1.54,8.83,4.32,12.24
		s7.21,5.63,11.57,5.07"/>
	<path class="st0" d="M415.51,293.4c2.62-3.88,4.16-8.48,4.41-13.15c0.13-2.47-0.11-5.02-1.11-7.28c-1.53-3.46-4.65-5.92-7.65-8.23"
		/>
	<path class="st0" d="M328.35,265.62c-2.33,0.56-4.18,2.46-5.2,4.63c-1.03,2.17-1.34,4.6-1.51,7c-0.22,3.17-0.19,6.39,0.65,9.45
		s2.57,5.96,5.2,7.74"/>
	<path class="st0" d="M335.59,264.3c4.17,1.69,7.25,5.59,8.41,9.94c1.16,4.35,0.53,9.05-1.25,13.18"/>
	<path class="st0" d="M265.51,283.33c9.43,28.14,18.98,56.25,27.92,84.55c8.84,27.98,16.59,56.2,23.86,84.62
		c3.99,15.6,8.12,31.19,13.32,46.44"/>
	<path class="st0" d="M331.46,521.44c2.68,4.57,5.45,9.47,5.29,14.77c-0.15,4.82-2.79,9.32-6.38,12.54"/>
	<path class="st0" d="M323.75,529.62c2.54,3.63,3.94,8.05,3.95,12.48c0.01,2.3-0.37,4.64-1.47,6.66c-1.41,2.58-3.93,4.43-6.68,5.49
		c-2.74,1.06-5.72,1.38-8.66,1.48c-1.5,0.05-3.15-0.01-4.27-1.01"/>
	<path class="st0" d="M303.68,506.89c-1.71,5.43-1.85,11.34-0.41,16.84c0.61,2.32,1.49,4.55,2.36,6.78
		c0.99,2.51,1.98,5.02,2.96,7.53"/>
	<path class="st0" d="M304.89,530.88c-2.37-1.5-5.66-0.88-7.8,0.93c-2.14,1.81-3.27,4.57-3.78,7.33c-0.41,2.18-0.47,4.48,0.27,6.57
		c0.96,2.74,3.21,4.87,5.74,6.29c2.53,1.42,5.36,2.2,8.16,2.98"/>
	<path class="st0" d="M326.59,548.73c2.58-0.68,5.14-1.79,6.93-3.77c2.02-2.22,2.87-5.32,2.91-8.32c0.05-3-0.63-5.97-1.3-8.89"/>
	<path class="st0" d="M337.75,537.7c4.68-2.06,6.92-7.77,6.28-12.84c-0.64-5.07-3.58-9.56-6.87-13.46s-7.05-7.46-9.83-11.74"/>
	<path class="st0" d="M493.68,379.94c-5.67,28.12-9.85,56.5-14.08,84.86c-1.22,8.19-2.44,16.37-3.71,24.55"/>
	<path class="st0" d="M515.58,255.03c-4.68,25.83-9.26,51.67-13.76,77.52"/>
	<path class="st0" d="M349.9,377.23c-1.4,9.05-4.17,17.89-8.18,26.13"/>
	<path class="st0" d="M430.15,378.78c-5.57,10.02-15.42,17.09-25.98,21.53c-19.41,8.16-42.11,8.13-61.49-0.09"/>
	<path class="st0" d="M425.26,367.7c2.13,5.69,5.29,10.99,9.29,15.56c2.48,2.84,5.55,5.53,9.3,5.99"/>
	<path class="st0" d="M374.84,407.49c4.02,9.63-1.08,20.35-2.74,30.65c-0.26,1.61-0.4,3.4,0.53,4.74c0.63,0.91,1.66,1.46,2.68,1.89
		c8.49,3.64,18.73,1.62,26.26-3.74s12.59-13.63,15.66-22.34s4.33-17.95,5.56-27.11"/>
	<path class="st0" d="M373.11,431.19c11.19-11.06,28.23-15.81,43.53-12.13"/>
	<path class="st0" d="M372.11,407.67c2.63,8.8-0.15,18.16-1.3,27.26c-0.48,3.85-0.42,8.36,2.57,10.83c1.69,1.39,3.98,1.81,6.17,1.91
		c13.27,0.6,25.4-8.73,32.03-20.25c6.63-11.52,8.82-24.97,10.91-38.09"/>
	<path class="st0" d="M425.82,364.29c0.71,5.5,1.47,11.16,4.23,15.97c1.21,2.11,2.77,3.98,4.33,5.84c3.03,3.6,6.99,7.5,11.64,6.8"/>
	<path class="st0" d="M349.44,377.8c-1.28,8.94-4.61,17.58-6.57,22.66c9.76,6.82,22.41,7.73,34.31,7.28
		c9.17-0.35,18.41-1.38,27.05-4.48s16.69-8.39,21.87-15.97"/>
	<path class="st0" d="M366.75,455.97c7.64,6.82,18.75,8.96,28.81,7.05c7.09-1.34,14.49-5.31,16.54-12.23"/>
	<path class="st0" d="M380.98,324.53c1.58,27.97,3.16,55.95,4.74,83.92"/>
	<path class="st0" d="M402.72,97.05c-1.29,27.81-2.58,55.62-3.88,83.43"/>
	<path class="st0" d="M365.64,181.65c1.38,2.18,3.79,3.5,6.21,4.39c9.63,3.51,21.17,1.07,28.55-6.05"/>
	<path class="st0" d="M402.22,91.74c-7.58-3.63-15.67-6.4-24.05-7.08c-8.38-0.68-17.08,0.86-24.2,5.31
		c-2.33,1.45-4.58,3.36-5.41,5.98s0.33,6,2.98,6.75"/>
	<path class="st0" d="M362.88,105.33c12.16,1.73,24.79,0.1,36.11-4.67"/>
	<path class="st0" d="M350.38,95.33c0.75-2.79,3.53-4.47,6.15-5.68c9.67-4.44,20.5-6.32,31.09-5.38c5.81,0.51,12.42,2.57,14.47,8.03
		"/>
	<path class="st0" d="M358.68,103.94c12.51,5.73,27.89,4.66,39.48-2.75"/>
	<path class="st0" d="M359.7,87.55c-3.95,5.61-7.69,11.36-11.21,17.25"/>
	<path class="st0" d="M364.5,86.78c-4.7,6.65-8.79,13.72-12.21,21.11"/>
	<path class="st0" d="M374.02,84.29c-6.33,7.27-11.66,15.4-15.81,24.11"/>
	<path class="st0" d="M378.37,85.52c-5.28,6.99-10.02,14.38-14.17,22.09"/>
	<path class="st0" d="M384.02,87.74c-4.59,6.56-8.88,13.33-12.86,20.28"/>
	<path class="st0" d="M391.63,88.8c-5.48,5.68-10.11,12.16-13.71,19.18"/>
	<path class="st0" d="M398.84,88.69c-3.88,5.05-7.76,10.11-11.64,15.16"/>
	<path class="st0" d="M402.79,91.83c-3.33,4.99-6.85,9.86-10.55,14.59"/>
	<path class="st0" d="M392.44,462.31c1.7,14.83,3.02,29.7,3.96,44.59"/>
	<path class="st0" d="M480.64,373.37c-2.34,19.35-4.55,38.72-6.62,58.1"/>
	<path class="st0" d="M493.57,276.08c-3.56,24.57-6.9,49.17-10.02,73.81"/>
	<path class="st0" d="M480.27,364.35c14.82,23.19,30.68,45.72,47.52,67.5"/>
	<path class="st0" d="M503.31,335.88c14.86,32.35,31.08,64.08,48.6,95.07"/>
	<path class="st0" d="M479.42,361.38c15.9,24.96,32.42,49.53,49.56,73.66"/>
	<path class="st0" d="M500.98,334.58c15,33.04,31.28,65.5,48.77,97.29"/>
	<path class="st0" d="M529.8,433.95c-12.4,20.13-24.34,40.55-35.79,61.23"/>
	<path class="st0" d="M485.96,500.15c-8.21,8.08-14.38,18.22-17.79,29.22c-1.43,4.63-2.38,9.54-1.52,14.3s3.83,9.37,8.34,11.12"/>
	<path class="st0" d="M480.74,533.65c-3.62,6.68-5.46,14.31-5.28,21.9c0.06,2.56,0.38,5.22,1.7,7.41c1.39,2.32,3.74,3.88,6.07,5.26
		c2.45,1.46,5.17,2.85,8.01,2.59"/>
	<path class="st0" d="M493.2,539.56c-1.34,5.9-2.38,11.88-3.12,17.88c-0.3,2.44-0.54,4.95,0.04,7.34c0.88,3.62,3.77,6.69,7.34,7.79
		s7.68,0.2,10.45-2.3"/>
	<path class="st0" d="M508.65,548.04c1.26-5.51,3.88-10.63,5.22-16.13c1.34-5.49,1.15-11.86-2.2-14.31
		c2.94,5.41,2.96,12.02,1.39,17.97C511.48,541.51,508.45,546.95,508.65,548.04z"/>
	<path class="st0" d="M494.22,539.51c-2.86,6.05-4.32,12.75-4.22,19.44c0.05,3.34,0.58,6.92,2.87,9.35
		c2.66,2.84,7.11,3.36,10.85,2.29c3.74-1.07,6.94-3.46,10.03-5.82c1.05-0.8,2.12-1.62,2.9-2.69c1.13-1.52,1.61-3.42,1.82-5.3
		c0.63-5.8-1.3-11.83-5.19-16.17"/>
	<path class="st0" d="M482.99,530.04c-2.49,5.65-5.01,11.39-5.95,17.5c-0.94,6.11-0.14,12.73,3.51,17.71
		c1.06,1.44,2.39,2.76,4.07,3.4c1.67,0.64,3.73,0.47,5.04-0.76"/>
	<path class="st0" d="M486.05,500.02c-8.08,8.46-14.37,18.61-18.36,29.6c-1.78,4.9-3.11,10.17-2.17,15.3s4.68,10.04,9.82,10.91"/>
	<path class="st0" d="M511.87,516.68c2.29,1.18,3.69,3.68,4.08,6.23c0.4,2.55-0.08,5.15-0.75,7.64c-0.61,2.27-1.39,4.53-2.65,6.51
		c-0.98,1.54-2.25,2.9-3.14,4.5c-1.12,2-1.6,4.28-2.08,6.53c-0.33,1.55-0.64,3.23,0,4.68s2.69,2.35,3.88,1.3"/>
	<path class="st0" d="M289.02,357.71c-15.8,31.68-30.54,63.88-44.21,96.54"/>
	<path class="st0" d="M246.77,451.36c-11.28,12.51,32.24,32.42,39.63,36.72c4.76,2.77,9.41,5.73,13.7,9.18"/>
	<path class="st0" d="M311.31,478.78c1.36,0.65,2.08,2.26,2,3.77c-0.08,1.51-0.82,2.91-1.74,4.1c-4.08,5.32-11.84,7.81-13.83,14.21"
		/>
	<path class="st0" d="M295.05,493.13c-2.35,0.64-4.28,2.53-5.17,4.79s-0.81,4.86,0.02,7.15c0.39,1.08,0.96,2.13,1.84,2.86
		c0.94,0.78,2.17,1.13,3.39,1.26c2.57,0.26,5.23-0.45,7.32-1.96c1.4-1.01,2.65-2.41,4.35-2.71"/>
	<path class="st0" d="M306.56,476.4c2.91-1.63,6.87-1.07,9.22,1.29c1.08,1.09,1.81,2.46,2.52,3.82c0.67,1.28,1.35,2.59,1.69,3.99
		c0.2,0.81,0.29,1.65,0.63,2.41c0.63,1.37,2.13,2.28,3.63,2.22"/>
	<path class="st0" d="M271.58,446.68c14.03,11.17,27.21,23.4,39.39,36.56"/>
	<path class="st0" d="M507.57,506c12.86-16.2,24.73-33.2,35.5-50.87c4.56-7.48,9.09-16.07,7.05-24.59"/>
	<path class="st0" d="M470.13,467.95c-0.75,6.7-1.5,13.39-2.25,20.09"/>
	<path class="st0" d="M314.49,304.24c5.74,26.25,11.6,52.47,17.59,78.66c5.96,26.08,12.05,52.13,18.26,78.15
		c3.52,14.76,7.08,29.5,10.68,44.24"/>
	<path class="st0" d="M503.98,332.57c-8.75,0.45-16.22,7.12-20.07,14.98s-4.75,16.81-5.41,25.54"/>
	<path class="st0" d="M323.4,490.17c6.2,6.77,11.39,14.47,15.35,22.75c2.09,4.37,3.86,9.11,3.47,13.94
		c-0.49,6.03-4.24,11.24-7.86,16.09"/>
	<path class="st0" d="M496.4,491.22c-0.79-0.56-1.62-1.12-2.56-1.33s-2.06,0.04-2.6,0.85c-0.68,1.02-0.19,2.4,0.41,3.47
		c3.05,5.37,8.52,8.89,14.02,11.7c2.02,1.03,4.26,2.02,6.48,1.54c0.82-0.18,1.69-0.68,1.79-1.51c0.05-0.45-0.13-0.88-0.31-1.29
		c-0.54-1.22-1.08-2.44-1.62-3.66"/>
	<path class="st0" d="M498.14,487.63c-1.82-0.84-3.66-1.69-5.64-2.02s-4.13-0.09-5.75,1.09c-2.05,1.5-2.85,4.19-3.16,6.72
		c-0.34,2.84-0.21,5.79,0.9,8.43s3.29,4.9,6.05,5.64"/>
	<path class="st0" d="M508.16,516.64c4.62,0.19,9.07-3.57,9.65-8.15c0.1-0.76,0.1-1.55-0.09-2.29c-0.2-0.82-0.62-1.56-1.04-2.29
		c-0.94-1.61-1.93-3.19-2.98-4.74"/>
	<path class="st0" d="M270.41,445.61c7.51-12.83,14.8-25.79,21.86-38.88"/>
	<path class="st0" d="M302.14,393.87c-10.8,18.34-21.75,36.58-32.86,54.73"/>
	<path class="st0" d="M290.1,362.68c-17.42,28.97-32.78,59.17-45.92,90.31"/>
	<path class="st0" d="M269.66,446.25c15.93,11.09,29.8,25.12,40.7,41.18"/>
	<path class="st0" d="M245.11,454.91c5.99,9.57,14.59,17.29,23.98,23.56c9.39,6.27,19.61,11.17,29.79,16.06"/>
	<path class="st0" d="M525.94,435.81c-13.75,17.67-24.52,37.66-31.7,58.87"/>
	<path class="st0" d="M506.75,504.6c5.92-3.08,10.02-8.72,13.83-14.2c12.11-17.44,23.81-35.91,27.92-56.74"/>
	<path class="st0" d="M481.15,364.1c16.75,22.73,27.72,49.33,44.78,71.82"/>
	<path class="st0" d="M493.82,496.36c8.63-21.89,20.78-42.38,35.84-60.45"/>
	<path class="st0" d="M343.88,529.52c7.25,6.53,17.44,8.46,27.11,9.83c15.64,2.22,31.51,3.66,47.22,1.98
		c15.71-1.68,31.33-6.64,43.91-16.19"/>
	<path class="st0" d="M330.11,546.87c-16.72,53.61-33.44,107.23-50.16,160.84"/>
	<path class="st0" d="M487.02,570.83c18.13,38.02,36.25,76.03,54.38,114.05"/>
	<path class="st0" d="M365.48,540.83c-7.2,56.89-14.4,113.78-21.6,170.68"/>
	<path class="st0" d="M402.79,542.77c2.11,59.11,4.21,118.21,6.32,177.32"/>
	<path class="st0" d="M439.13,534.44c10.89,53.24,26.9,105.43,47.73,155.62"/>
	<path class="st0" d="M366.79,541.21c-12.01,62.88-21.32,126.27-27.91,189.95"/>
	<path class="st0" d="M401.25,549.71c2.2,61.2,4.98,122.37,8.34,183.52"/>
	<path class="st0" d="M281.54,705.37c3.4,3.27,7.88,5.14,12.24,6.94c13.27,5.46,26.54,10.93,43.14,17.49
		c24.52,1.5,48.99,3.73,73.38,6.68"/>
	<path class="st0" d="M441.06,538c13.8,57.67,30.19,114.72,49.11,170.92"/>
	<path class="st0" d="M496,589.91c15.46,33.15,30.91,66.3,46.37,99.45"/>
	<path class="st0" d="M464.62,625.42c8.57,31.01,17.13,62.02,25.7,93.03"/>
	<path class="st0" d="M544.66,686.65c-17.87,11.59-35.74,23.18-53.61,34.76"/>
	<path class="st0" d="M412.07,736.63c25.7-2.7,51.21-7.27,76.25-13.67"/>
	<path class="st0" d="M353.81,104.82c4.89,28.55,10.51,56.97,16.87,85.23"/>
	<path class="st0" d="M361.26,104.6c3.49,27.71,7.79,55.32,12.9,82.78"/>
	<path class="st0" d="M368.4,109.56c3.97,27.08,7.93,54.16,11.9,81.24"/>
	<path class="st0" d="M375.92,109.33c2.39,24.94,4.79,49.88,7.18,74.82"/>
	<path class="st0" d="M383.11,108.29c1.43,24.94,2.86,49.88,4.3,74.82"/>
	<path class="st0" d="M391.08,104.34c-0.78,25.81-0.84,51.64-0.16,77.46"/>
	<path class="st0" d="M398.15,101.54c-1.33,25.99-1.65,52.04-0.97,78.05"/>
	<path class="st0" d="M347.25,358c-0.23,1.47-0.47,2.93-0.7,4.4"/>
	<path class="st0" d="M350.95,356.98c-0.67,3.11-1.05,6.29-1.14,9.48"/>
	<path class="st0" d="M354.62,357.67c-0.46,3.57-0.8,7.15-1.04,10.74"/>
	<path class="st0" d="M358.03,356.58c-0.69,4.74-1.19,9.51-1.51,14.29"/>
	<path class="st0" d="M361.55,356.66c-0.45,5.48-1.18,10.94-2.2,16.34"/>
	<path class="st0" d="M365.13,359.61c-0.64,5.49-1.12,11-1.44,16.52"/>
	<path class="st0" d="M368.03,363.35c-0.46,4.92-0.83,9.85-1.1,14.79"/>
	<path class="st0" d="M370.49,366.5c-0.32,4.09-0.65,8.18-0.97,12.28"/>
	<path class="st0" d="M373.19,369.99c-0.16,4.01-0.33,8.02-0.49,12.04"/>
	<path class="st0" d="M375.42,373.81c-0.18,3.62-0.36,7.25-0.55,10.87"/>
	<path class="st0" d="M377.93,377.86c0.08,2.41,0.05,4.82-0.11,7.22"/>
	<path class="st0" d="M380.03,381.42c-0.08,1.51-0.16,3.02-0.24,4.53"/>
	<path class="st0" d="M387.13,321.28c-6.63,12.2-12.4,24.87-17.26,37.88"/>
	<path class="st0" d="M388.85,329.93c-5.62,11.82-11.24,23.65-16.86,35.47"/>
	<path class="st0" d="M387.46,344.61c-3.92,9.03-7.83,18.07-11.75,27.1"/>
	<path class="st0" d="M388.36,356.05c-3.09,7-5.86,14.14-8.29,21.39"/>
	<path class="st0" d="M388.65,369.63c-0.99,2.73-1.97,5.45-2.96,8.18"/>
	<path class="st0" d="M424.29,361.28c0.03,7.71,3.71,14.88,7.32,21.7c1.71,3.23,3.48,6.54,6.23,8.95c2.75,2.41,6.72,3.78,10.14,2.47
		"/>
	<path class="st0" d="M348.63,379.86c-0.8,5.48-1.63,11.02-3.73,16.14c-2.1,5.12-5.64,9.86-10.63,12.28"/>
	<path class="st0" d="M374.13,409.55c-0.88,9.86-1.77,19.73-2.65,29.59c-0.15,1.63-0.28,3.34,0.37,4.84
		c1.67,3.88,7.11,4.03,11.21,3.04c11.01-2.67,21.05-9.17,28-18.11c6.95-8.95,10.76-20.28,10.63-31.61"/>
	<path class="st0" d="M379.73,407.22c-1,6.59-2.01,13.19-3.01,19.78"/>
	<path class="st0" d="M382.94,407.31c-0.59,6.08-1.44,12.13-2.54,18.14"/>
	<path class="st0" d="M387.45,406.41c-1.22,5.29-2.22,10.64-3,16.02"/>
	<path class="st0" d="M391.59,405.11c-1.19,4.94-2.38,9.88-3.56,14.83"/>
	<path class="st0" d="M395.44,403.83c-1.35,5.47-2.92,10.89-4.7,16.24"/>
	<path class="st0" d="M399.8,402.81c-2.07,5.36-3.59,10.93-4.51,16.6"/>
	<path class="st0" d="M403.88,401.07c-1.58,6.18-3.17,12.35-4.75,18.53"/>
	<path class="st0" d="M408.94,398.49c-1.76,6.35-3.53,12.71-5.29,19.06"/>
	<path class="st0" d="M414.35,395.48c-2.21,7.3-4.08,14.7-5.58,22.18"/>
	<path class="st0" d="M418.69,393.9c-1.3,7.17-2.83,14.3-4.57,21.37"/>
	<path class="st0" d="M330.58,263.43c-3.94,6.96-7.08,14.37-9.36,22.04"/>
	<path class="st0" d="M333.41,263.62c-4.74,8.69-8.79,17.75-12.11,27.07"/>
	<path class="st0" d="M337.13,263.22c-5.14,9.05-9.83,18.36-14.02,27.88"/>
	<path class="st0" d="M338.7,265.57c-4.34,8.51-8.44,17.13-12.29,25.87"/>
	<path class="st0" d="M341.43,268.3c-4.83,7.94-8.93,16.32-12.23,25.01"/>
	<path class="st0" d="M342.06,271.57c-4.16,7.69-8.02,15.55-11.57,23.55"/>
	<path class="st0" d="M343.34,274.71c-3.9,6.54-7.41,13.31-10.49,20.27"/>
	<path class="st0" d="M343.35,279.28c-2.72,5.04-5.44,10.08-8.16,15.13"/>
	<path class="st0" d="M344.03,282.68c-2.01,3.7-4.02,7.4-6.03,11.11"/>
	<path class="st0" d="M402.65,264.96c-3.11,5.55-5.99,11.24-8.61,17.03"/>
	<path class="st0" d="M405.93,264.07c-4.01,7.25-7.77,14.63-11.29,22.12"/>
	<path class="st0" d="M409.07,264.8c-4.39,7.18-8.38,14.6-11.95,22.21"/>
	<path class="st0" d="M411.39,265.74c-4.53,7.38-8.66,15-12.38,22.82"/>
	<path class="st0" d="M413.02,268.75c-5.04,8.15-9.65,16.56-13.79,25.2"/>
	<path class="st0" d="M414.86,269.89c-5.03,8.04-9.62,16.35-13.74,24.9"/>
	<path class="st0" d="M416.87,271.3c-4.75,8.02-9.32,16.16-13.68,24.4"/>
	<path class="st0" d="M418.8,273.52c-5.04,7.52-9.39,15.5-12.98,23.81"/>
	<path class="st0" d="M419.27,278.19c-0.57,1.77-1.66,3.32-2.69,4.86c-2.65,3.95-5.04,8.08-7.16,12.34"/>
	<path class="st0" d="M419.36,282.55c-3.23,4.72-6.12,9.67-8.64,14.8"/>
	<path class="st0" d="M443.58,303.3C439,369,439,435,440.75,501.17"/>
	<path class="st0" d="M399.68,163.48c7.78-8.58,16.97-15.87,28.37-22.21c8.89,0.82,17.67,2.78,26.07,5.81"/>
	<path class="st0" d="M426.13,173.77c5.95-6.54,12.01-13.17,19.55-17.8c2.43-1.49,5.02-2.77,7.8-3.43"/>
	<path class="st0" d="M454.87,147.33c3.92,13.05,4.66,27.04,2.14,40.42"/>
	<path class="st0" d="M440.42,162.48c-0.02,6.27-0.04,12.53-0.06,18.8"/>
</g>
<g id="Layer_3">
	<path class="st0" d="M328.88,266.34c-2.53,5.05-4.63,10.32-6.26,15.73"/>
	<path class="st0" d="M333.5,264.9c-4.3,7.57-8.18,15.38-11.62,23.38"/>
	<path class="st0" d="M337.75,266.27c-5.01,7.85-9.39,16.11-13.08,24.66"/>
	<path class="st0" d="M339.49,269.92c-4.6,7.27-8.66,14.88-12.16,22.75"/>
	<path class="st0" d="M341.13,272.75c-3.76,6.6-7.26,13.34-10.47,20.22"/>
	<path class="st0" d="M342.81,275.48c-3.4,6.05-6.62,12.2-9.65,18.44"/>
	<path class="st0" d="M402.05,265.53c-2.6,3.9-4.76,8.1-6.44,12.47"/>
	<path class="st0" d="M406.53,264.41c-4.14,6.32-7.74,12.98-10.75,19.91"/>
	<path class="st0" d="M408.84,264.68c-4.37,7.3-8.23,14.91-11.54,22.75"/>
	<path class="st0" d="M409.55,268.45c-4.57,7.28-9.16,14.68-11.74,22.88"/>
	<path class="st0" d="M412.41,268.2c-5.15,7.96-9.61,16.38-13.3,25.11"/>
	<path class="st0" d="M414.53,270.06c-4.41,7.76-8.86,15.63-11.22,24.24"/>
	<path class="st0" d="M416.92,271.91c-4.43,7.49-8.3,15.3-11.58,23.35"/>
	<path class="st0" d="M418.82,275.27c-3.87,6.32-7.38,12.87-10.52,19.58"/>
	<path class="st0" d="M420.11,280.59c-3.05,4.58-6,9.23-8.85,13.94"/>
	<path class="st0" d="M418.34,286.2c-1.79,3.06-3.58,6.12-5.37,9.18"/>
	<path class="st0" d="M393.62,240.42c-5.82,21.33-3.38,44.81,6.71,64.49"/>
	<path class="st0" d="M386.89,241.94c7.96-5.07,17.9-5.68,27.33-5.68c6.25,0,12.57,0.22,18.61,1.86c6.03,1.64,11.82,4.83,15.55,9.85
		"/>
	<path class="st0" d="M442.78,241.21c-15.66-10.48-36.77-12.25-53.97-4.54"/>
	<path class="st0" d="M441.51,236.48c-14.46-8.76-32.26-11.83-48.81-8.42"/>
	<path class="st0" d="M403.78,226.87c-5.45,4.32-9.87,9.94-11.44,15.95c-5.11,18.79-2.96,39.46,5.91,56.8"/>
	<path class="st0" d="M449.34,259.16c2.53,14.26-0.8,29.48-9.06,41.37"/>
	<path class="st0" d="M398.03,305.32c6.77-3.76,14.74-4.72,22.48-4.87c7.74-0.15,15.53,0.43,23.21-0.54"/>
	<path class="st0" d="M341.13,240.62c-8.9-4.26-19.48-3.06-28.89-0.11c-9.33,2.93-18.14,7.48-25.92,13.4"/>
	<path class="st0" d="M297.99,240.21c9.46-8.98,22.34-14.27,35.39-14.54"/>
	<path class="st0" d="M305.46,246.33c-3.7,5.12-5.18,11.5-5.99,17.76c-1.3,10.13-0.86,21.06,4.69,29.63"/>
	<path class="st0" d="M342.14,244.97c3.43,8.14,4.3,17.11,4.84,25.92c0.54,8.77,0.7,18-3.35,25.79"/>
	<path class="st0" d="M297.75,303.11c6.81-2.19,14.1-2.44,21.24-1.97c7.14,0.48,14.21,1.66,21.34,2.28"/>
	<path class="st0" d="M399.62,305.15c16.88-1.89,33.68-4.48,50.34-7.75"/>
	<path class="st0" d="M342.21,302.28c-10.39-3.1-21.43-3.99-32.19-2.61c-5.12,0.66-10.89,2.38-12.97,7.11"/>
	<path class="st0" d="M353.12,306.85c-6.69,16.09-12.59,32.51-17.68,49.18"/>
	<path class="st0" d="M390.97,307.84c-9.83,14.9-19.21,30.1-28.13,45.56"/>
	<path class="st0" d="M354.21,307.96c-6.3,15.89-12.79,31.7-19.46,47.43"/>
	<path class="st0" d="M385.67,308.83c-6.99,15.57-14.57,30.88-22.74,45.87"/>
	<path class="st0" d="M337.45,352.82c0.9,3.17,4.08,5.19,7.27,6.02c5.87,1.54,12.47-0.13,16.91-4.27"/>
	<path class="st0" d="M338.05,354.9c2.96,3.53,7.98,4.78,12.57,4.29s8.86-2.46,13.03-4.43"/>
	<path class="st0" d="M353.84,309.1c-1.46,12.85-2.5,25.75-3.1,38.66"/>
	<path class="st0" d="M352.18,312.33c-0.48,12.75-0.51,25.52-0.08,38.27"/>
	<path class="st0" d="M347.01,306.07c15.6,2.65,31.67,2.48,47.21-0.49"/>
	<path class="st0" d="M353.55,312.61c-0.03-0.49-0.07-0.98-0.1-1.47c-1.67,12.84-2.38,25.81-1.17,39.62
		c4.2,0.55,8.51,0.29,12.61-0.77"/>
	<path class="st0" d="M359.45,308.55c-2.55,3.62-4.86,7.41-6.9,11.33"/>
	<path class="st0" d="M364.22,309.68c-5.17,5.27-10.49,10.78-12.89,17.75"/>
	<path class="st0" d="M370.79,309.52c-6.69,6.59-12.49,14.09-17.2,22.22"/>
	<path class="st0" d="M376.96,309.97c-9.5,8.38-17.75,18.16-24.42,28.93"/>
	<path class="st0" d="M379.88,313.83c-7.11,7.7-14.23,15.39-21.14,23.27c-2.72,3.1-5.46,6.33-6.78,10.23"/>
	<path class="st0" d="M379.5,322.44c-8.99,8.37-17.28,17.5-24.73,27.27"/>
	<path class="st0" d="M372.76,336.15c-5.02,4.65-9.72,9.66-14.03,14.98"/>
	<path class="st0" d="M376.98,387.16c-4.41-2.26-8.35-5.32-12.26-8.37c-9.04-7.04-18.07-14.07-26.7-22.06
		C351.46,367.73,365.6,377.87,376.98,387.16z"/>
	<path class="st0" d="M365.39,358.75c5.29,9.61,11.2,18.89,17.69,27.74"/>
	<path class="st0" d="M381.81,320.72c-0.31,25.96,0.18,51.93,1.45,77.85"/>
	<path class="st0" d="M390.39,307.98c-0.47,23.41-0.94,46.82-1.41,70.22"/>
	<path class="st0" d="M389.61,311.88c-0.34,13.44-0.18,26.9,0.48,40.33"/>
	<path class="st0" d="M424.58,364.05c1.21,7.48,5.53,14.04,9.75,20.34c2.52,3.77,5.35,7.78,9.64,9.23"/>
	<path class="st0" d="M334.75,409.39c8.13-8.45,13.81-19.23,16.17-30.71"/>
	<path class="st0" d="M349.5,101.26c6.8,29.24,12.89,58.64,18.27,88.17"/>
	<path class="st0" d="M352,107.46c7.09,27.33,12.89,54.99,17.36,82.87"/>
	<path class="st0" d="M361.01,105.32c4.54,25.41,8.37,50.94,11.47,76.56"/>
	<path class="st0" d="M368.6,107.53c3.42,25.31,6.84,50.62,10.26,75.93"/>
	<path class="st0" d="M376.22,108.55c2.08,25.94,4.17,51.87,6.25,77.81"/>
	<path class="st0" d="M365.38,109.59c3.85,25.18,6.86,50.48,9.03,75.86"/>
	<path class="st0" d="M358.13,105.23c4.11,25.87,8.22,51.74,12.32,77.61"/>
	<path class="st0" d="M372.24,108.58c3.48,24.83,6.39,49.75,8.71,74.72"/>
	<path class="st0" d="M364.78,184.59c7.17,2.2,14.76,4.42,22.05,2.66c4.28-1.03,8.14-3.38,11.53-6.17"/>
	<path class="st0" d="M366.04,180.55c4.26,3.61,9.68,5.82,15.25,6.21c5.57,0.39,11.25-1.04,15.97-4.01"/>
	<path class="st0" d="M356.82,103.93c2.46,28.33,8.09,56.38,16.73,83.47"/>
	<path class="st0" d="M358.84,172.17c-44.96,19.07-81.62,56.88-99.3,102.4"/>
	<path class="st0" d="M352.57,175.22c-36.67,17.33-66.9,47.92-83.78,84.8"/>
	<path class="st0" d="M261.37,274.06c7.09,13.85,22.02,23.33,37.57,23.85"/>
	<path class="st0" d="M401.54,169.92c22.21,6.09,44.38,13.23,64.17,25c19.79,11.77,37.23,28.59,46.2,49.79"/>
	<path class="st0" d="M401.15,165.35c18.75,5.64,36.07,15.13,53.24,24.55c7.26,3.98,14.53,7.98,21.36,12.66
		c15.27,10.46,28.19,24.34,37.53,40.32"/>
	<path class="st0" d="M516.22,255.16c-2.86-6.98-6.97-13.39-11.47-19.44c-24.85-33.4-62.62-56.94-104.07-68.76
		c4.07-8.96,10.25-16.95,17.9-23.14"/>
	<path class="st0" d="M424.22,173.99c6.51-8.07,13.46-16.47,23.09-20.32"/>
	<path class="st0" d="M400.84,165.33c5.61-9.28,11.89-19.14,22.43-20.28c11.89-3.58,25.42-1.21,35.39,6.19"/>
	<path class="st0" d="M421.53,143.82c9.22-1.7,18.85-1.13,27.8,1.64"/>
	<path class="st0" d="M455.17,149.56c0.33,3.25,0.65,6.51,0.98,9.76c0.12-4.12-0.4-8.25-1.53-12.21c2.7,12.46,3.06,25.42,1.08,38.01
		"/>
	<path class="st0" d="M438.95,159.11c0.68,7.31,0.95,14.66,0.8,22"/>
	<path class="st0" d="M404.89,156.9c1.68,4.57,3.65,9.02,5.9,13.33"/>
	<path class="st0" d="M407.65,156.72c2.59,5.15,5.19,10.3,7.78,15.44"/>
	<path class="st0" d="M409.94,153.61c2.93,5.61,5.86,11.22,8.79,16.83c0.6,1.15,1.23,2.34,2.26,3.13"/>
	<path class="st0" d="M413.33,150.73c3.75,7.74,7.78,15.35,12.08,22.8"/>
	<path class="st0" d="M416.68,147.84c3.77,7.77,7.81,15.41,12.1,22.9"/>
	<path class="st0" d="M421.02,146.51c2.54,6.45,5.84,12.61,9.8,18.3"/>
	<path class="st0" d="M425.23,145.08c2.93,5.74,5.85,11.47,8.78,17.21c0.28,0.55,0.64,1.16,1.25,1.25"/>
	<path class="st0" d="M430.19,144.66c2.02,4.23,4.05,8.47,6.07,12.7c0.54,1.13,1.18,2.35,2.34,2.8"/>
	<path class="st0" d="M435.36,144.12c1.85,4.43,4.03,8.71,6.54,12.8"/>
	<path class="st0" d="M440.39,144.68c1.44,2.58,2.88,5.16,4.33,7.74c0.47,0.84,1.02,1.75,1.93,2.05"/>
	<path class="st0" d="M447.77,144.91c1.33,2.49,2.83,4.89,4.5,7.17"/>
	<path class="st0" d="M441.2,175.18c2.43,3.24,4.98,6.39,7.64,9.45"/>
	<path class="st0" d="M440.46,171.16c3.79,5.56,8.4,10.56,13.65,14.78"/>
	<path class="st0" d="M441.42,168.62c4.65,5.32,9.45,10.51,14.41,15.55"/>
	<path class="st0" d="M442.7,165.95c3.96,5.87,8.52,11.34,13.57,16.3"/>
	<path class="st0" d="M441.41,160.79c4.11,5.86,8.84,11.27,14.1,16.12"/>
	<path class="st0" d="M441.74,158.72c5.21,4.97,10.33,10.03,15.35,15.19"/>
	<path class="st0" d="M443.79,157.49c4.36,4.21,8.72,8.43,13.08,12.64"/>
	<path class="st0" d="M445.92,155.59c2.99,3.12,5.98,6.25,8.96,9.37c0.65,0.68,1.32,1.37,2.12,1.87"/>
	<path class="st0" d="M448.81,154.86c2.7,2.81,5.41,5.62,8.11,8.44"/>
	<path class="st0" d="M450.62,152.93c1.99,1.67,3.84,3.5,5.52,5.47"/>
	<path class="st0" d="M440.5,178.16c2.47,2.1,5.05,4.08,7.71,5.93"/>
	<path class="st0" d="M440.69,175.33c4.61,3.74,9.49,7.16,14.58,10.21"/>
	<path class="st0" d="M440.69,172.83c5.1,3.3,10.2,6.61,15.3,9.91"/>
	<path class="st0" d="M440.13,169.12c5.92,3.73,11.74,7.62,17.45,11.66"/>
	<path class="st0" d="M440.14,164.82c5.31,3.78,10.71,7.44,16.19,10.97"/>
	<path class="st0" d="M442.62,161.87c-0.08-0.28-0.16-0.55-0.23-0.83c4.48,4.2,9.14,8.21,13.97,12.02"/>
	<path class="st0" d="M443.89,158.54c4.83,2.17,8.12,6.78,12.66,9.48"/>
	<path class="st0" d="M447.44,156.04c3.39,2.61,6.69,5.35,9.89,8.21"/>
	<path class="st0" d="M450.73,155.28c1.35,1.12,2.7,2.24,4.05,3.35"/>
	<path class="st0" d="M401.66,182.05c40.37,17.89,73.72,51.11,91.76,91.42"/>
	<path class="st0" d="M393.71,184.48c9.89,11.27,17.05,24.91,20.71,39.45"/>
	<path class="st0" d="M376.58,188.48c-8.91,30.69-13.34,62.68-13.1,94.64"/>
	<path class="st0" d="M365.45,182.98c-16.24,12.13-30.15,27.36-40.79,44.62"/>
	<path class="st0" d="M297.84,211.66c17.52-18.2,40-31.59,64.35-38.34"/>
	<path class="st0" d="M258.46,274c3.64,3.58,4.64,9.12,7.99,12.98c1.34,1.55,3.02,2.77,4.74,3.9c9.74,6.38,21.26,10.02,32.91,10.39"
		/>
	<path class="st0" d="M492.81,281.45c-5.31,24.96-9.49,50.15-12.52,75.49"/>
	<path class="st0" d="M478.97,374.54C476,413,471,450,467.67,487.54"/>
	<path class="st0" d="M493.51,383.14c-6.95,34.15-12.72,68.53-17.3,103.07"/>
	<path class="st0" d="M476.43,374.8c-0.69-8.28,2.6-16.38,6.73-23.59c2.51-4.37,5.4-8.61,9.25-11.86c3.85-3.25,8.79-5.44,13.82-5.22
		c0.33-25.05,3.68-51.82,10.92-77.83c-6.89,26.56-12.22,53.53-15.94,80.72"/>
	<path class="st0" d="M267.77,286.79c21.78,66.89,42.42,134.14,61.93,201.73"/>
	<path class="st0" d="M313.41,308.08c6.89,25.73,13.43,51.56,19.63,77.47c6.17,25.8,12,51.67,17.48,77.63
		c3.11,14.72,6.11,29.46,9,44.22"/>
	<path class="st0" d="M393.49,472.51c1.17,11.48,2.49,22.95,3.97,34.39"/>
	<path class="st0" d="M396.44,464.2c1.58,14.13,3.15,28.26,4.73,42.39"/>
	<path class="st0" d="M439.27,501.35C442,436,444,372,446.76,307.07"/>
	<path class="st0" d="M344.1,532.44c7.1,2.01,14.35,3.44,21.68,4.27"/>
	<path class="st0" d="M371.28,538.06c12.97,1.26,25.98,2.08,37.96,3.19c11.52-2.64,23.05-5.28,30.25-5.38
		c10.02-5.09,20.04-10.19,30.05-15.28"/>
	<path class="st0" d="M496.9,487.32c-1.78-1.99-4.6-2.98-7.23-2.55s-4.98,2.29-6.02,4.74c-0.82,1.94-0.84,4.11-0.76,6.21
		c0.08,1.95,0.25,3.9,0.82,5.77c0.28,0.91,0.66,1.81,1.3,2.51c1.61,1.78,4.33,1.86,6.73,1.81"/>
	<path class="st0" d="M497.01,491.27c-1.98-0.97-4.47-1.91-6.26-0.62c-0.99,0.71-1.48,1.98-1.49,3.2c-0.01,1.22,0.4,2.41,0.91,3.52
		c2.36,5.14,7.02,9.18,12.45,10.78c2.19,0.65,4.6,0.9,6.74,0.1s3.93-2.84,3.88-5.13"/>
	<path class="st0" d="M513.81,497.87c1.88,2.1,3.6,4.39,4.64,7s1.36,5.6,0.43,8.25c-0.93,2.66-3.25,4.89-6.04,5.3"/>
	<path class="st0" d="M483,499.92c-10.56,11.65-17.12,26.86-18.35,42.53c-0.39,5.05,0.3,11.11,4.75,13.52"/>
	<path class="st0" d="M496.24,535.8c-4.75,6.69-7.19,14.99-6.82,23.19c0.2,4.35,1.29,8.89,4.28,12.06s8.25,4.47,11.83,1.98"/>
	<path class="st0" d="M510.9,518.59c3.18,2.18,4.17,6.57,3.5,10.36c-0.67,3.8-2.67,7.2-4.42,10.64c-1.75,3.44-3.3,7.18-2.97,11.02
		c0.08,0.89,0.33,1.88,1.09,2.35"/>
	<path class="st0" d="M513.19,539.9c3.36,1.69,5.94,4.86,6.93,8.48c0.99,3.63,0.37,7.66-1.66,10.82c-2.78,4.33-7.71,6.66-12.01,9.49
		"/>
	<path class="st0" d="M291.48,358.98c-15.64,30.25-29.6,61.35-41.81,93.14"/>
	<path class="st0" d="M302.13,393.81c-10.66,16.97-20.55,34.42-29.62,52.29"/>
	<path class="st0" d="M519.24,254.65c-5.32,26.64-9.67,53.47-13.04,80.43"/>
	<path class="st0" d="M247.04,454.16c0.22,5.89,5.44,10.21,10.28,13.58c12.57,8.78,25.64,16.84,39.13,24.12"/>
	<path class="st0" d="M272.21,448.45c12.52,8.65,23.68,19.26,32.94,31.34"/>
	<path class="st0" d="M296.81,499.99c0.91-3.85,4.68-6.19,7.96-8.41s6.69-5.44,6.27-9.38"/>
	<path class="st0" d="M293.72,493.61c-1.55,0.42-2.53,1.93-3.14,3.42c-0.74,1.81-1.15,3.82-0.71,5.73c0.62,2.7,3.05,4.89,5.8,5.22
		c1.45,0.17,2.92-0.12,4.32-0.56c3.27-1.04,6.29-2.88,8.71-5.31"/>
	<path class="st0" d="M303.25,506.17c-3.5,11.49-0.53,24.73,7.55,33.62"/>
	<path class="st0" d="M304.84,531.21c-2.13-2.19-5.93-2.18-8.4-0.38c-2.47,1.8-3.65,5.01-3.55,8.06c0.1,3.05,1.34,5.97,2.93,8.58
		c1.14,1.86,2.48,3.62,4.12,5.05c5.39,4.71,14,5.25,19.92,1.24c5.93-4.01,8.64-12.2,6.27-18.95"/>
	<path class="st0" d="M326.8,546.77c2.13,1.33,4.95,0.06,6.82-1.61c1.18-1.06,2.23-2.3,2.86-3.76c0.87-2.04,0.84-4.35,0.53-6.55
		c-0.7-4.92-2.77-9.64-5.91-13.49"/>
	<path class="st0" d="M336.16,536.82c1.81,0.77,3.93-0.41,5.02-2.04c1.73-2.61,1.54-6.01,1.16-9.12c-0.37-3.05-0.9-6.17-2.45-8.83
		c-2.17-3.7-6.14-6.17-7.9-10.08"/>
	<path class="st0" d="M306.07,477.71c2.7-1.65,6.44-1.38,8.87,0.64c1.13,0.94,1.96,2.18,2.75,3.42c2.09,3.3,3.97,6.75,5.61,10.29"/>
	<path class="st0" d="M365.95,456.09c2.89,5.1,8.28,8.47,13.99,9.76s11.72,0.65,17.37-0.86c7.63-2.04,15.32-6.18,18.66-13.34"/>
	<path class="st0" d="M331.44,549.63c-15.36,49.97-30.72,99.93-46.07,149.9"/>
	<path class="st0" d="M368.48,456.38c1.94,3.46,5.36,5.9,9.03,7.41c3.67,1.51,7.62,2.17,11.53,2.83c2.93,0.49,5.92,0.98,8.85,0.52
		c3.07-0.49,5.88-2,8.53-3.61c5.16-3.15,10.36-7.31,11.67-13.21"/>
	<path class="st0" d="M367.56,541.11c-9.57,42.82-16.68,86.18-21.28,129.81c-1.97,18.67-3.49,37.46-7.84,55.72"/>
	<path class="st0" d="M402.13,540.34c3.51,63.37,0.25,127.13,7.58,190.17"/>
	<path class="st0" d="M367.37,456.68c2.96,4.64,7.93,7.65,13.09,9.55c5.45,2.01,11.41,2.95,17.13,1.89
		c10.26-1.9,18.86-10.75,20.48-21.06"/>
	<path class="st0" d="M438.72,543.57c12.88,55.3,28.49,109.96,46.75,163.72"/>
	<path class="st0" d="M487.12,574.52c16.22,37.38,32.9,74.57,50.03,111.54"/>
	<path class="st0" d="M340.19,731.5c3.41-37.26,8.71-74.34,15.86-111.07"/>
	<path class="st0" d="M331.04,566.55c-18.22,45.66-34.09,92.26-50.16,143.12c6.2-19.14,12.4-38.29,18.6-57.43"/>
	<path class="st0" d="M282.24,707.41c18.51,7.63,37.02,15.26,59.82,21.72c12.62,1.94,25.24,3.89,37.86,5.83
		c7.38,1.14,14.85,2.28,22.29,1.68"/>
	<path class="st0" d="M541.28,685.07c-14.88,13.25-30.61,25.55-47.06,36.78"/>
	<path class="st0" d="M486.84,723.17c-25.64,4.83-51.44,8.75-79.57,9.99c-18.86,0.31-37.76-1.37-56.27-5"/>
	<path class="st0" d="M277.55,706.83c24.19,6.51,48.06,14.2,71.5,23.05"/>
	<path class="st0" d="M508.36,333.83c-6.24,1.13-12.66,2.7-17.6,6.67c-8.53,6.87-10.46,18.88-11.78,29.76"/>
	<path class="st0" d="M443.11,303.94c0.13,14.45,0.25,28.9,0.38,43.36"/>
	<path class="st0" d="M441.94,358.61c0.16,39.33,0.33,78.67,0.49,118"/>
	<path class="st0" d="M479.69,380.85c-2.28,24.88-4.57,49.76-6.85,74.64"/>
	<path class="st0" d="M448.01,582.55c1.51,4.15,3.02,8.29,4.52,12.44"/>
	<path class="st0" d="M400.88,566.71c2.66,36.06,5.33,72.13,7.99,108.19"/>
	<path class="st0" d="M365.78,558.79c-3.6,19.83-6.09,39.85-7.46,59.95"/>
	<path class="st0" d="M490.54,584.09c9.04,19.23,18.08,38.46,27.12,57.69"/>
	<path class="st0" d="M268.41,451.27c12.27-16.17,21.94-34.3,28.53-53.5"/>
	<path class="st0" d="M276.46,451.91c12.23,10.76,23.18,22.98,32.54,36.32"/>
	<path class="st0" d="M338.31,239.94c-13.31-6.2-30.19-3.74-41.19,5.99"/>
	<path class="st0" d="M307.04,242.04c-4.49,7.32-7.59,15.56-8.41,24.11c-0.82,8.55,0.72,17.4,4.94,24.88"/>
	<path class="st0" d="M343.26,305.95c-14.21-7.1-31.77-7.06-45.94,0.11"/>
	<path class="st0" d="M341.8,271.8c-4.49,6.01-8.68,12.24-12.55,18.67"/>
	<path class="st0" d="M344.12,273.65c-4.94,5.76-9.38,11.94-13.27,18.46"/>
	<path class="st0" d="M343.55,277.09c-3.69,5.96-7.46,11.87-11.3,17.73"/>
	<path class="st0" d="M344.76,279.4c-3.04,4.68-5.89,9.47-8.54,14.38"/>
	<path class="st0" d="M375.95,185.79c-8.08,25.57-12.9,52.17-14.31,78.95"/>
	<path class="st0" d="M395.5,183.79c5.97,7.73,10.83,16.32,14.39,25.42"/>
	<path class="st0" d="M493.22,277.47c6.95-5.99,13.18-12.81,18.51-20.27"/>
	<path class="st0" d="M518.24,260.04c-4.98,24.35-9.14,48.87-12.47,73.49"/>
	<path class="st0" d="M495.15,381.99C491,418,482,453,477.74,488.89"/>
	<path class="st0" d="M339.74,505.63c0.6,4.08,1.19,8.16,1.46,11.56c21.38,4.09,42.92,8.2,64.69,8.03s44.03-4.91,62.01-17.18"/>
	<path class="st0" d="M468.54,515.35c-38.78,18.24-84.38,21.48-123.81,10.62c20.64,4.13,41.67,6.99,62.7,6.2
		C428.47,531.39,449.6,526.84,468.54,515.35z"/>
	<path class="st0" d="M471.13,456.68c-2.01,14.08-3.29,28.26-3.84,42.47"/>
	<path class="st0" d="M441.98,474.09c-0.68,11.34-0.95,22.71-0.82,34.07"/>
	<path class="st0" d="M397.87,488.21c0.88,9.79,1.76,19.57,2.64,29.36"/>
	<path class="st0" d="M501.75,573.05c14.42,28.57,29.5,56.79,45.24,84.66"/>
	<path class="st0" d="M542.94,685.88c2.26-5.81,4.98-11.44,8.13-16.82"/>
	<path class="st0" d="M551.75,667.37c-20.23-30.38-37.43-62.77-49.53-92.11C519.35,605.44,535.95,635.91,551.75,667.37z"/>
	<path class="st0" d="M482.8,502.14c-4.67,5.13-9.38,10.3-12.9,16.28c-3.52,5.98-5.8,12.9-5.18,19.81s4.51,13.73,10.78,16.72"/>
	<path class="st0" d="M482.99,530.7c-3.2,4.69-5.89,9.83-7.04,15.39c-1.15,5.56-0.63,11.6,2.22,16.51s8.26,8.46,13.94,8.34"/>
	<path class="st0" d="M483.12,501.35c-4.67,5.73-9.32,11.54-12.74,18.09s-5.56,13.96-4.85,21.31c0.47,4.84,2.66,10.07,7.21,11.79"/>
	<path class="st0" d="M322.97,492.53c6.06,6.46,12.21,13.06,16.12,21.01c3.91,7.95,5.31,17.62,1.59,25.66"/>
	<path class="st0" d="M314.39,478.44c3.66,1.92,6.18,5.85,8.42,12.52c10.14,9.3,17.06,22.05,19.32,35.62
		c0.37,2.25,0.62,4.59-0.04,6.77c-0.66,2.18-2.43,4.17-4.69,4.44"/>
	<path class="st0" d="M340.04,239.61c-2.74-4.2-8.29-5.52-13.3-5.7c-10.59-0.37-21.28,2.9-29.85,9.12"/>
	<path class="st0" d="M387.33,238.67c16.39-6.92,35.99-5.7,51.39,3.21"/>
	<path class="st0" d="M337.06,239.09c-6.17-3.84-13.84-4.64-21.03-3.67c-7.2,0.97-14.06,3.57-20.85,6.15"/>
	<path class="st0" d="M446.63,247.35c-8.33-7.59-19.1-12.45-30.3-13.67s-22.77,1.21-32.53,6.84"/>
	<path class="st0" d="M429.39,238.73c-13.74-4.39-29.15-3.27-42.11,3.05"/>
	<path class="st0" d="M386.79,238.54c16-5.21,33.63-5.3,49.69-0.24"/>
	<path class="st0" d="M339.06,239.63c-5.25-2.78-11.42-3.11-17.36-3.15c-5.11-0.04-10.53,0.16-14.84,2.91"/>
	<path class="st0" d="M386.2,238.73c5.44-3.86,12.14-5.73,18.81-6.01c6.67-0.28,13.32,0.95,19.72,2.85"/>
	<path class="st0" d="M298.35,243.11c2.07-1.98,4.9-2.89,7.64-3.71c4.83-1.44,9.72-2.79,14.73-3.39c5.01-0.6,10.17-0.44,14.98,1.08"
		/>
	<path class="st0" d="M267.94,287.12c12.24,41.23,24.47,82.46,36.71,123.69c8.66,29.19,17.36,58.47,29.51,86.39"/>
	<path class="st0" d="M516.89,254.68c-4.29,25.42-9.12,50.75-14.48,75.97"/>
	<path class="st0" d="M424.81,364c1.84,7.9,3.87,16.16,9.27,22.21c1.91,2.14,4.18,3.92,6.32,5.83c2.59,2.31,5.24,4.94,8.66,5.47"/>
	<path class="st0" d="M342.65,400.46c0.79,2.67,3.96,3.72,6.69,4.25c26.63,5.15,55.25-0.97,77.45-16.56"/>
	<path class="st0" d="M375.39,406.31c-1.42,9.13-2.84,18.25-4.25,27.38c-0.66,4.25-1.14,9.16,1.78,12.32
		c2.7,2.93,7.27,3.12,11.18,2.35c8.62-1.71,16.28-7.08,21.64-14.06c5.35-6.97,8.52-15.45,10.08-24.1"/>
	<path class="st0" d="M341.46,401.84c13.56,7.16,29.95,5.38,45.06,2.79c6.11-1.05,12.27-2.22,17.91-4.79
		c7.84-3.57,14.23-9.62,20.46-15.56"/>
	<path class="st0" d="M368.07,456.55c1.03,4.61,4.81,8.3,9.2,10.05c4.39,1.75,9.31,1.76,13.97,0.94
		c8.75-1.54,16.97-5.98,23.06-12.45"/>
	<path class="st0" d="M404.44,265.84c-1.98,1.87-3.32,4.3-4.62,6.69c-1.82,3.33-3.64,6.69-4.79,10.31"/>
	<path class="st0" d="M409,265.99c-4.38,7.77-8.24,15.84-11.53,24.13"/>
	<path class="st0" d="M410.75,269.63c-3.35,7.74-6.69,15.49-10.04,23.23"/>
	<path class="st0" d="M414.52,270.67c-3.87,7.88-7.49,15.89-10.84,24"/>
	<path class="st0" d="M416.3,273.95c-2.97,6.84-5.93,13.67-8.9,20.51"/>
	<path class="st0" d="M418.53,277.28c-2.64,5.86-5.27,11.71-7.91,17.57"/>
	<path class="st0" d="M354.68,104.24c5.33,26.66,11.41,53.17,18.23,79.48"/>
	<path class="st0" d="M363.97,108.52c2.78,24.97,6.23,49.86,10.36,74.64"/>
	<path class="st0" d="M367.74,111.49c1.88,24.81,5.01,49.52,9.37,74.02"/>
	<path class="st0" d="M372.34,113.3c1.36,22.97,4.17,45.85,8.42,68.46"/>
	<path class="st0" d="M311.75,305.22c3.79,18.51,8.32,36.88,13.59,55.03"/>
	<path class="st0" d="M329.71,383.24c8.63,35.09,17.86,70.02,27.7,104.79"/>
	<path class="st0" d="M466.75,497.08c3.59-3.12,7.17-6.23,10.76-9.35"/>
	<path class="st0" d="M469.46,495.35c1.03,7.28,2.07,14.56,3.1,21.84"/>
	<path class="st0" d="M337.21,507.99c7.01,0.74,13.95,2.09,20.74,4"/>
	<path class="st0" d="M364.72,515.3c8.7,1.72,17.63,2.25,26.46,1.59"/>
	<path class="st0" d="M406.2,515.23c10.62,0.79,21.45-1.42,30.91-6.31"/>
	<path class="st0" d="M447.38,506.09c6.62-1.85,12.88-4.97,18.35-9.14"/>
	<path class="st0" d="M334.68,502.91c7.12,2.71,14.24,5.42,25.63,8.65c11.37,2.93,23.09,4.54,39.41,4.82
		c7.59-0.23,15.22-0.46,22.69-1.85c4.65-0.86,9.54-2.39,14.75-5.05c12.14-0.95,24.01-5.22,33.98-12.22"/>
	<path class="st0" d="M358.54,512.57c-7.65-2.87-15.31-5.73-22.96-8.6"/>
	<path class="st0" d="M397.19,515.16c-10.72,0.85-21.57,0.15-32.09-2.08"/>
	<path class="st0" d="M402.16,515.05c12.36-0.12,24.69-2.58,40.89-8.41c10.35-3.21,20.36-7.51,29.81-12.81"/>
	<path class="st0" d="M470.75,494.16c0.85,6.19,1.7,12.38,2.56,18.58"/>
	<path class="st0" d="M465.28,498.44c4.17-2.9,8.15-6.08,11.88-9.53"/>
	<path class="st0" d="M268.72,287.57c19.83,70.4,39.67,140.8,59.5,211.19"/>
	<path class="st0" d="M366.95,540.36c11.85,2.2,23.98,2.89,36.01,2.05"/>
	<path class="st0" d="M408.2,543.14c10.74-0.59,21.38-2.91,31.39-6.82"/>
	<path class="st0" d="M446.2,533.01c5.92-3.45,11.84-6.89,17.76-10.34"/>
	<path class="st0" d="M342.85,516.65c21.46,4.74,43.2,9.13,65.18,8.92c21.98-0.22,44.45-5.36,62.3-18.19"/>
	<path class="st0" d="M343.1,524.16c40.23,15.97,87.7,12.48,125.15-9.22"/>
	<path class="st0" d="M400.21,525.01c26.24-0.23,52.34-9,73.38-24.68"/>
</g>
</svg>
