<?xml version="1.0" encoding="utf-8"?>
<!-- Generator: Adobe Illustrator 27.5.0, SVG Export Plug-In . SVG Version: 6.00 Build 0)  -->
<svg version="1.1" id="Layer_1" xmlns="http://www.w3.org/2000/svg" xmlns:xlink="http://www.w3.org/1999/xlink" x="0px" y="0px"
	 viewBox="0 0 300 300" style="enable-background:new 0 0 300 300;" xml:space="preserve">
<style type="text/css">
	.st0{fill:none;stroke:#000000;stroke-miterlimit:10;}
	.st1{fill:#FFFFFF;stroke:#000000;stroke-miterlimit:10;}
</style>
<g id="Layer_2_00000005244650818535260500000007642353519880467341_">
	<path class="st0" d="M103,219.3C92.4,229,78.3,235,63.7,233.1c-13.8-1.8-25.9-10.7-29.5-24.4c-1.9-7.1-1.3-15.1,2.5-21.5"/>
	<path class="st0" d="M134.1,156.3C131,171,126,185,119.4,197.6"/>
	<path class="st0" d="M160,71.9c-11.9,21-17,44.8-22.2,68.1"/>
	<path class="st0" d="M196.9,61c6.3-1.5,18-9.4,14.2-17.2c-2.5-5.1-9.8-6.9-14.9-6.2c-6.3,1-11.7,4.9-16.3,9.1
		c-5.4,4.7-10.1,10.2-14.1,16"/>
	<path class="st0" d="M117.7,85.3c0.3,9.1-10.2,16.1-19.1,14C89.8,97.2,83.7,88.1,83.1,79c-1.2-16.4,13.3-31.5,29.7-33.6
		s32.8,6.7,42.9,19.7c10.1,13,14.6,29.7,16.1,46.1s0.3,32.9,0.3,49.4s1.2,33.3,7.3,48.6c4.5,11.3,12,21.9,22.9,27.4
		c10.1,5.1,22.3,5.2,33.2,1.9c13.2-4,25.3-13.7,29.1-26.9c3.1-11-0.1-23.6-8.1-31.8c-3.6-3.7-8.3-6.5-13.5-7
		c-5.1-0.4-10.7,2-13.1,6.5s-0.6,11.1,4.1,13.2"/>
	<path class="st0" d="M98.7,210.4c-8.5,9.7-20.4,17-33.6,17.1c-12.5,0.1-24.7-6.4-29.2-18.6c-2.2-6.1-2.3-13.2,0.7-19.1"/>
	<path class="st0" d="M125,151.8c-3.4,12.7-7.3,25.8-13.2,37.6"/>
	<path class="st0" d="M155.1,65c-13.1,23-20.1,49-26.7,73.7"/>
	<path class="st0" d="M197.1,61.3c9-3.8,23-16.3,10.6-25.3c-9.7-7-24.5,0.8-32.6,6.7c-5.8,4.2-10.8,9.5-15.1,15.2"/>
	<path class="st0" d="M116.6,86.5c0.7,7.7-7.3,14.4-15,13.7s-14-7.2-16-14.7S85.2,70,88.4,63c3-6.4,7.4-12.4,13.7-15.8
		c5.9-3.2,12.8-3.8,19.5-3.4c11,0.8,21.8,4.3,31,10.2c5.8,3.7,11.1,8.4,17,11.9c6,3.5,13,5.9,19.6,6.6c0.5,35.4,1.4,70.8,7,105.8
		c1.9,12.2,4.5,24.4,9.6,35.6c3.7,8.1,9.3,16.1,17.6,19.5c9.5,3.9,21,0.9,28.6-6c7.6-6.9,11.7-17,13.1-27.2"/>
	<path class="st0" d="M195.2,166.8C206,164,217,159,224,149c3-5,1-13-6.3-13.9"/>
	<path class="st0" d="M100.8,162.2c-2.2,7.9-12.6,3.2-12.8-3.4c-0.3-8.6,9.5-11.9,16.5-11.8c15.5,0.1,29.2,8.8,42.7,15.2
		c7.8,3.7,16,6.9,24.6,7.7"/>
	<path class="st0" d="M194.1,157.6c9.3-0.2,18.7-1.9,27.4-5.4"/>
	<path class="st0" d="M93,149.7c9.9-5,20.3-9.7,31.6-10.5c11.6-0.8,20.6,3.7,30.6,9c5.3,2.8,10.7,5,16.5,6.6"/>
	<path class="st0" d="M79,248.4c2.1,3,1.1,7.6-1.8,10c-2.8,2.4-6.9,2.8-10.5,1.8c-3.6-1-6.7-3.2-9.4-5.7
		c-13.5-12.2-19.8-31.7-16-49.4c1.2-5.7,3.4-11.2,7.1-15.7s9.1-7.7,14.9-8.1c4.8-0.3,9.5,1.3,13.5,3.8s7.4,6,10.5,9.6
		c13.4,15.8,21.7,35.8,23.3,56.4l0.9,1.3"/>
	<path class="st0" d="M134.1,211.7c-9.6,13.6-17.9,28.1-24.6,43.3"/>
	<path class="st0" d="M128.8,220.5c-3.4-11.8-8.8-23.1-17-32.1c-8.2-9-19.5-15.6-31.7-16.8c-12.2-1.2-25.1,3.4-32.6,13
		c-4.2,5.3-6.6,11.9-7.9,18.6c-3.4,17.8,1.8,37.8,15.6,49.6"/>
	<path class="st0" d="M139.1,217.5c-10.4,12.9-18.8,27.4-24.8,42.8"/>
	<path class="st0" d="M139.1,218.6c-10.9,15.1-18.1,32.7-20.9,51.1"/>
	<path class="st0" d="M114.7,260c0.7,3.3,1.9,6.6,3.6,9.5"/>
	<path class="st0" d="M243.1,244.9c3.1,0.2,6.3,0.4,9.4,0.6"/>
	<path class="st0" d="M274.5,196c2.5,9.4,1.8,19.6-2,28.5s-10.6,16.6-19.1,21.3"/>
	<path class="st0" d="M88.5,99.5c-4.1-1.8-7.1-5.5-9.1-9.4c-4.5-8.6-5.1-19.2-1.5-28.2s11.2-16.3,20.6-20c-2.2-0.3-4.3-0.6-6.9-0.7
		c-7.9,4.8-13.7,12.7-16,21.6s-0.8,18.7,3.8,26.6"/>
</g>
<g id="Layer_3">
	<path class="st0" d="M196.8,60.8c4.8-1.4,8.9-4.8,11.4-9.1c1.2-2.1,2.1-4.7,1.6-7.1c-0.7-3.3-3.7-5.7-7-6.4s-6.7,0.1-9.9,1.3
		c-10.8,4.2-18.7,13.4-26.1,22.3"/>
	<path class="st0" d="M161.3,70.8c-10,21.1-17,43.5-20.8,66.5"/>
	<path class="st0" d="M213.7,41.4c-4.1-5.9-11.7-8.8-18.9-8.4s-14,3.8-19.6,8.3c-5.6,4.5-10.3,10.1-14.9,15.6"/>
	<path class="st0" d="M154.4,65c-11.4,23.3-20.5,47.8-27.1,72.9"/>
	<path class="st0" d="M100.2,158.8c1.6,2.5-0.6,6.2-3.5,6.6c-3,0.3-5.7-2.3-6.2-5.2c-0.5-2.9,0.8-5.9,2.9-8.1
		c3.1-3.2,7.7-4.8,12.2-4.8c4.5-0.1,8.9,1.2,13.1,2.7c16.7,6.3,31.6,18.3,49.3,20.3"/>
	<path class="st0" d="M195.1,168c9.3-2,18-7,24.3-14.1c2-2.3,3.8-4.8,4.6-7.8c0.8-2.9,0.5-6.3-1.4-8.7c-1.8-2.2-5.8-3-7.4-0.7"/>
	<path class="st0" d="M89.1,153.7c7-7.2,16.2-12.3,26-14.4c9.8-2.1,20.3-1.2,29.6,2.6c8.5,3.4,16.1,9.2,25.1,11.1"/>
	<path class="st0" d="M193.1,156.3c4.8-0.7,9.6-1.3,14.4-2c2.7-0.4,5.4-0.8,7.9-1.7s4.9-2.4,6.5-4.6c1.5-2.2,2.1-5.2,1-7.7
		c-1.1-2.5-4.1-4.1-6.6-3.3"/>
	<path class="st0" d="M117.4,85.6c-0.3,6.6-6.1,12.2-12.6,13.1S91.6,96,87.9,90.6s-4.6-12.5-3.1-18.9c3.3-14.5,18.1-24.6,32.9-24.8
		s28.9,8.2,37.9,20c9,11.8,13.4,26.6,15.1,41.3c1.7,14.7,0.9,29.6,0.5,44.4s-0.2,29.8,3.2,44.7c3.9,15.1,11.1,30.5,24.6,38.6
		c6.8,4.1,14.7,6,22.6,6.1c11,0.2,22.2-3.2,30.7-10.2c8.5-7,14.1-17.7,13.9-28.8c-0.1-11-6.3-22-16.1-27c-3.5-1.8-7.6-2.9-11.5-2.2
		s-7.6,3.5-8.6,7.4s1.3,8.5,5.2,9.4"/>
	<path class="st0" d="M135.6,157.1c-3,13.7-7.9,27-14.7,39.4"/>
	<path class="st0" d="M124.2,152.7c-3.4,11.7-7.6,23.2-12.6,34.3"/>
	<path class="st0" d="M129.1,219c-3.4-11.3-8.8-22.1-16.8-30.7S93.7,173.1,82,171.4s-24.2,1.7-32.6,9.9c-5.8,5.6-9.4,13.2-11.2,21
		c-4.2,18.8,2.5,39.6,17,52.3c3,2.6,6.4,5,10.3,6c3.9,1,8.3,0.5,11.4-2.1s4.2-7.5,2-10.8"/>
	<path class="st0" d="M110.4,253.4c-1-21.5-9.5-42.7-23.8-58.8c-3.4-3.9-7.3-7.6-11.9-10s-10-3.6-15.1-2.3c-4.3,1.1-8.1,4-10.8,7.5
		c-2.7,3.6-4.4,7.8-5.6,12.1c-4.7,17-0.4,36.2,11,49.7"/>
	<path class="st0" d="M36.1,190.5c-1.4,4.6-2,9.5-1.7,14.4c0.1,1.9,0.5,3.9,2,5"/>
	<path class="st0" d="M40.6,217c8,7.8,19.5,11.9,30.6,10.8s21.6-7.3,27.8-16.6"/>
	<path class="st0" d="M33.7,192.2c-1.5,8.4-0.5,17.2,3,25"/>
	<path class="st0" d="M41.7,223.5c8.5,7.4,20,11.4,31.3,10.9s22.4-5.5,30.2-13.6"/>
	<path class="st0" d="M242.2,244.1c10.6-1.9,20.3-8.3,26.2-17.3c6-8.9,8.1-20.3,5.8-30.9"/>
</g>
<g id="Layer_4">
	<path class="st0" d="M171.4,65.6c-3.2,3.5-6.5,6.9-9.8,10.4"/>
	<path class="st0" d="M176.2,68.2c-4.1,4.1-8.2,8.3-12.2,12.4"/>
	<path class="st0" d="M180,70.1c-4.2,4.7-8.5,9.3-12.7,13.9"/>
	<path class="st0" d="M183.8,72.2c-5.7,6.5-11.3,13-17,19.5"/>
	<path class="st0" d="M188.5,72.6c-7,9.3-14.1,18.6-21.1,27.9"/>
	<path class="st0" d="M190.4,79.1c-7.1,8.3-14.1,16.6-21.2,24.9"/>
	<path class="st0" d="M190.2,87.5c-6.7,7.6-13.4,15.1-20.1,22.7"/>
	<path class="st0" d="M189.9,95.2c-5.7,6.2-11.4,12.5-17.1,18.7"/>
	<path class="st0" d="M189.9,102c-6,6.5-12,13-17.9,19.5"/>
	<path class="st0" d="M190.1,106.8c-5.9,6.5-11.7,13.1-17.6,19.6"/>
	<path class="st0" d="M190.6,112.9c-6.3,6.7-12.6,13.4-19,20.2"/>
	<path class="st0" d="M190.7,119.1c-6.5,7-12.9,14-19.4,20.9"/>
	<path class="st0" d="M191.3,124.4c-6.3,7.1-12.6,14.1-19,21.1"/>
	<path class="st0" d="M191.7,131.8c-6.5,6.6-13,13.1-19.5,19.7"/>
	<path class="st0" d="M192.2,138c-6.8,6.4-13.6,12.8-20.4,19.2"/>
	<path class="st0" d="M192.1,143.9c-7.1,7.1-14.2,14.3-21.3,21.4"/>
	<path class="st0" d="M192.7,149.4c-7,7.3-14,14.5-21,21.8"/>
	<path class="st0" d="M193,155.4c-6.9,7.4-13.9,14.9-20.8,22.4"/>
	<path class="st0" d="M193.6,160.5c-6.9,7.3-13.7,14.6-20.6,22"/>
	<path class="st0" d="M194,166.2c-6.7,6.9-13.3,13.7-20,20.6"/>
	<path class="st0" d="M195.4,171c-7,7.1-14.1,14.2-21.1,21.3"/>
	<path class="st0" d="M196.3,176.5c-6.8,6.8-13.6,13.7-20.4,20.5"/>
	<path class="st0" d="M196.7,181.9c-6.8,6.9-13.5,13.8-20.3,20.7"/>
	<path class="st0" d="M197.4,187.6c-6.5,6.9-13,13.9-19.5,20.8"/>
	<path class="st0" d="M198.9,192.2c-6,6.6-11.9,13.2-17.9,19.8"/>
	<path class="st0" d="M199.6,197.9c-5.8,6.6-11.6,13.1-17.4,19.7"/>
	<path class="st0" d="M201.7,202.1c-5.4,6.2-10.7,12.3-16,18.5"/>
	<path class="st0" d="M202.7,206.8c-4.7,5.8-9.4,11.5-14.1,17.3"/>
	<path class="st0" d="M204.1,211.2c-4.6,6-9.3,12-13.9,18.1"/>
	<path class="st0" d="M206.2,215.8c-4.1,5-8.2,10-12.4,15.1"/>
	<path class="st0" d="M208.4,219.9c-3.8,4.9-7.6,9.8-11.4,14.6"/>
	<path class="st0" d="M210.5,223.4c-3.3,4.4-6.6,8.7-9.9,13.1"/>
	<path class="st0" d="M213,226.1c-2.8,3.9-5.7,7.9-8.5,11.9"/>
	<path class="st0" d="M216.4,229.1c-2.5,3.2-4.9,6.5-7.4,9.7"/>
	<path class="st0" d="M218.6,231.2c-1.9,2.6-3.7,5.2-5.6,7.8"/>
	<path class="st0" d="M221.2,232.1c-1.9,2.7-3.8,5.4-5.8,8"/>
	<path class="st0" d="M224.2,233.4c-2.2,2.7-4.4,5.5-6.5,8.2"/>
	<path class="st0" d="M226.7,234.1c-1.9,2.4-3.7,4.9-5.6,7.4"/>
	<path class="st0" d="M229.1,234.2c-1.6,2.3-3.2,4.5-4.8,6.8"/>
	<path class="st0" d="M231.3,234.5c-1.2,1.8-2.5,3.7-3.7,5.5"/>
	<path class="st0" d="M233.2,235.2c-1.2,1.8-2.4,3.7-3.6,5.5"/>
	<path class="st0" d="M235.5,235c-0.9,1.5-1.8,3.1-2.7,4.6"/>
	<path class="st0" d="M238,235c-0.7,1.3-1.4,2.6-2.2,3.9"/>
	<path class="st0" d="M241.1,234c-0.5,1.2-1,2.3-1.5,3.5"/>
	<path class="st0" d="M243.5,232.7c-0.4,1.4-0.8,2.9-1.1,4.3"/>
	<path class="st0" d="M245.5,231.1c-0.3,1.9-0.5,3.7-0.8,5.6"/>
	<path class="st0" d="M247.8,230.5c-0.2,1.8-0.4,3.5-0.6,5.2"/>
	<path class="st0" d="M250.3,228.8c-0.2,1.7-0.5,3.5-0.7,5.2"/>
	<path class="st0" d="M252.8,226.5c-0.1,1.8-0.1,3.6-0.2,5.4"/>
	<path class="st0" d="M255.7,223.7c-0.2,1.7-0.4,3.3-0.7,5"/>
	<path class="st0" d="M257.9,221.3c-0.2,1.5-0.4,3-0.6,4.5"/>
	<path class="st0" d="M259.6,218.2c-0.1,1.8-0.2,3.7-0.2,5.5"/>
	<path class="st0" d="M261.4,215.1c-0.1,1.5-0.2,3.1-0.4,4.6"/>
	<path class="st0" d="M262.8,210.6c0.1,1.7,0.3,3.4,0.4,5"/>
	<path class="st0" d="M264.1,207.8c0.1,1.1,0.2,2.2,0.2,3.4"/>
	<path class="st0" d="M245.8,242.7c0.1,0.9,0.2,1.7,0.3,2.6"/>
	<path class="st0" d="M247.7,242c0.2,1.1,0.4,2.3,0.6,3.4"/>
	<path class="st0" d="M249.1,241.8c0.2,1.3,0.4,2.6,0.6,3.9"/>
	<path class="st0" d="M250.8,241.2c0.2,1.6,0.4,3.2,0.6,4.8"/>
	<path class="st0" d="M252.6,240.3c0.2,1.8,0.5,3.5,0.7,5.3"/>
	<path class="st0" d="M254.2,239.9c0.2,1.6,0.4,3.2,0.6,4.9"/>
	<path class="st0" d="M255.3,239.2c0.2,1.4,0.5,2.9,0.7,4.3"/>
	<path class="st0" d="M256.8,237.9c0.2,1.6,0.5,3.1,0.8,4.7"/>
	<path class="st0" d="M258.2,237.2c0.3,1.6,0.6,3.2,0.9,4.8c0.1-0.2,0.2-0.4,0.4-0.6"/>
	<path class="st0" d="M260.1,235.8c0.2,1.4,0.5,2.9,0.7,4.3"/>
	<path class="st0" d="M261.6,234.3c0.3,1.5,0.6,2.9,0.9,4.4"/>
	<path class="st0" d="M263.1,232.6c0.2,1.5,0.5,3.1,0.7,4.6"/>
	<path class="st0" d="M264.8,231.9c0.3,1.2,0.5,2.5,0.8,3.7"/>
	<path class="st0" d="M265.8,230.1c0.2,1.2,0.4,2.3,0.6,3.5"/>
	<path class="st0" d="M267.1,229.2c0.3,1.3,0.6,2.5,0.9,3.8"/>
	<path class="st0" d="M268.5,227.1c0.3,1.3,0.7,2.6,1,3.9"/>
	<path class="st0" d="M269.4,224.8c0.4,1.4,0.8,2.8,1.2,4.2"/>
	<path class="st0" d="M270.9,222.8c0.3,1.3,0.6,2.6,1,3.9"/>
	<path class="st0" d="M271.6,220.9c0.4,1.2,0.7,2.4,1.1,3.6"/>
	<path class="st0" d="M272.6,218.8c0.4,1.1,0.7,2.2,1.1,3.3"/>
	<path class="st0" d="M273.5,216c0.3,1,0.7,2.1,1,3.1"/>
	<path class="st0" d="M274,213.6c0.3,0.9,0.6,1.8,0.9,2.7"/>
	<path class="st0" d="M274.7,210.5c0.4,0.9,0.7,1.8,1.1,2.7"/>
	<path class="st0" d="M167,64.4c-2.6,2.4-5.2,4.8-7.9,7.3"/>
	<path class="st0" d="M162.9,61.3c-2.1,2-4.3,4-6.4,6"/>
	<path class="st0" d="M158.9,58.3c-2,1.8-3.9,3.7-5.9,5.5"/>
	<path class="st0" d="M155.9,55.7c-1.4,1.1-2.9,2.2-4.3,3.3"/>
	<path class="st0" d="M152.2,53c-1.5,1.2-3,2.5-4.5,3.8"/>
	<path class="st0" d="M148.3,51.8c-1.5,1.2-3,2.3-4.5,3.5"/>
	<path class="st0" d="M145.7,49.8c-1.7,1.2-3.4,2.4-5,3.7"/>
	<path class="st0" d="M141.5,48.4c-1.3,0.9-2.7,1.8-4,2.7"/>
	<path class="st0" d="M139,46.9c-1.7,1-3.4,2-5.2,2.9"/>
	<path class="st0" d="M134.7,46.1c-1.8,0.9-3.5,1.8-5.3,2.7"/>
	<path class="st0" d="M130.6,44.8c-1.6,1-3.2,2-4.8,3"/>
	<path class="st0" d="M126.8,44.2c-1.9,1.2-3.9,2.5-5.8,3.7"/>
	<path class="st0" d="M122,44.2c-1.6,1-3.2,2-4.8,3"/>
	<path class="st0" d="M118.7,43.4c-2,1.3-3.9,2.6-5.9,3.9"/>
	<path class="st0" d="M113.2,43.7c-1.7,1.5-3.3,3.1-5,4.6"/>
	<path class="st0" d="M108.8,44.6c-1.8,1.7-3.7,3.3-5.5,5"/>
	<path class="st0" d="M103.7,46.3c-1.5,1.9-3,3.9-4.5,5.8"/>
	<path class="st0" d="M98.9,49.4c-1.5,2.4-3,4.7-4.5,7.1"/>
	<path class="st0" d="M93.8,54.2c-1.5,2.3-2.9,4.6-4.4,7"/>
	<path class="st0" d="M87,61.6c-0.8,2.7-1.5,5.3-2.2,8"/>
	<path class="st0" d="M74.8,66.6c0.4,1.5,0.7,3.1,1.1,4.6"/>
	<path class="st0" d="M75.6,63.6c0.4,1.4,0.7,2.8,1.1,4.2"/>
	<path class="st0" d="M76.6,58.9c0.3,1.8,0.7,3.5,1,5.3"/>
	<path class="st0" d="M77.9,56.1c0.3,1.6,0.7,3.2,1.1,4.8"/>
	<path class="st0" d="M79.3,53.3c0.3,1.6,0.6,3.2,0.9,4.8"/>
	<path class="st0" d="M81,51.1c0.3,1.7,0.6,3.3,0.8,5"/>
	<path class="st0" d="M82.9,48.6c0.2,1.6,0.4,3.2,0.7,4.8"/>
	<path class="st0" d="M84.8,46.8c0.1,1.4,0.2,2.8,0.4,4.1"/>
	<path class="st0" d="M86.4,44.6c0.1,1.7,0.2,3.4,0.3,5.2"/>
	<path class="st0" d="M88.2,43.1c0.1,1.6,0.2,3.2,0.2,4.8"/>
	<path class="st0" d="M90.1,41.8c0,1.5,0,3,0,4.4"/>
	<path class="st0" d="M91.8,40.8c0,1.5-0.1,3.1-0.1,4.6"/>
	<path class="st0" d="M93.7,41.2c0,1.2,0,2.4,0.1,3.5"/>
	<path class="st0" d="M96,40.8c-0.1,0.8-0.1,1.5-0.2,2.2"/>
</g>
<g id="Layer_5">
	<path class="st1" d="M110.3,141.2c-1.9,2.2-3.8,4.5-5.8,6.8"/>
	<path class="st1" d="M115.9,139.9c-2.2,2.6-4.4,5.2-6.6,7.8"/>
	<path class="st1" d="M120.4,139.4c-2.8,3.1-5.6,6.1-8.3,9.2"/>
	<path class="st1" d="M124.2,139.4c-2.8,3.1-5.5,6.2-8.2,9.3"/>
	<path class="st1" d="M127.8,139.4c-2.9,3.4-5.8,6.7-8.7,10.1"/>
	<path class="st1" d="M130.9,139.8c-2.8,3.6-5.6,7.2-8.4,10.9"/>
	<path class="st1" d="M134.7,140.2c-2.7,3.6-5.4,7.2-8.2,10.9"/>
	<path class="st1" d="M138.1,140.6c-2.9,4.1-5.7,8.2-8.6,12.4"/>
	<path class="st1" d="M141.5,142.4c-2.9,4.2-5.8,8.4-8.8,12.6"/>
	<path class="st1" d="M144.1,143.3c-2.6,4.2-5.2,8.4-7.7,12.7"/>
	<path class="st1" d="M147.7,144.4c-2.8,4.4-5.6,8.8-8.4,13.3"/>
	<path class="st1" d="M149.9,146.2c-2.7,4.9-5.4,9.9-8.1,14.8"/>
	<path class="st1" d="M152.9,147.8c-2.6,4.6-5.1,9.2-7.7,13.8"/>
	<path class="st1" d="M155.9,149c-2.4,4.7-4.7,9.3-7.1,14"/>
	<path class="st1" d="M159.3,150.5c-2.5,4.8-4.9,9.5-7.4,14.2"/>
	<path class="st1" d="M162.6,151.6c-2.4,4.9-4.7,9.9-7.1,14.8"/>
	<path class="st1" d="M166.3,153.1c-2,4.3-3.9,8.6-5.9,12.9"/>
	<path class="st1" d="M169.2,154.2c-1.9,4.6-3.9,9.2-5.8,13.9"/>
	<path class="st1" d="M171.7,155.7c-1.6,4.1-3.2,8.1-4.9,12.2"/>
	<path class="st1" d="M171.1,163.7c-0.5,1.3-0.9,2.6-1.4,3.9"/>
	<path class="st1" d="M196.6,157.2c-1,3-2,6-3,9.1"/>
	<path class="st1" d="M200.2,156.8c-1.2,3.5-2.4,7-3.5,10.5"/>
	<path class="st1" d="M203.1,157.1c-1,2.9-2,5.8-3,8.7"/>
	<path class="st1" d="M207.7,154.8c-1,3.1-2.1,6.1-3.1,9.2"/>
	<path class="st1" d="M211.2,154.2c-1,2.6-2,5.3-3.1,7.9"/>
	<path class="st1" d="M214.2,153.3c-1,2.4-2.1,4.9-3.1,7.3"/>
	<path class="st1" d="M217.9,151.4c-1,2.3-1.9,4.6-2.9,6.8"/>
	<path class="st1" d="M221.4,149.8c-0.7,1.6-1.4,3.2-2.1,4.9"/>
</g>
<g id="Layer_6">
	<path class="st0" d="M35.6,208c-0.5,1.7-1,3.4-1.4,5"/>
	<path class="st0" d="M36.8,211c-0.3,1-0.5,2-0.8,3.1"/>
	<path class="st0" d="M43.3,219.8c-0.2,1.6-0.4,3.1-0.6,4.7"/>
	<path class="st0" d="M46.6,221.1c-0.3,1.8-0.7,3.6-1,5.4"/>
	<path class="st0" d="M49.2,222.4c-0.3,2-0.7,3.9-1,5.9"/>
	<path class="st0" d="M51.8,224c-0.2,1.6-0.5,3.3-0.8,4.9"/>
	<path class="st0" d="M54.5,225.3c-0.2,1.8-0.4,3.6-0.5,5.4"/>
	<path class="st0" d="M57.5,225.8c-0.4,1.8-0.7,3.6-1.1,5.4"/>
	<path class="st0" d="M60,226.9c-0.1,1.6-0.2,3.3-0.3,4.9"/>
	<path class="st0" d="M62.7,227.4c0,1.8,0,3.5,0.1,5.3"/>
	<path class="st0" d="M65.6,227.6c0,1.9,0,3.8-0.1,5.6"/>
	<path class="st0" d="M68.6,227.6c-0.1,1.6-0.1,3.3-0.2,4.9"/>
	<path class="st0" d="M71.1,227.1c0,1.9-0.1,3.8-0.1,5.6"/>
	<path class="st0" d="M74.1,226.9c-0.1,1.8-0.1,3.6-0.1,5.4"/>
	<path class="st0" d="M76.4,226.8c0,1.7,0.1,3.4,0.1,5.1"/>
	<path class="st0" d="M78.9,225.7c-0.1,2.3-0.1,4.5-0.2,6.8"/>
	<path class="st0" d="M81.3,224.9c-0.1,2.4-0.1,4.8-0.1,7.2"/>
	<path class="st0" d="M83.6,224.2c-0.1,2.1-0.1,4.3-0.1,6.4"/>
	<path class="st0" d="M85.5,222.5c0.2,2.8,0.3,5.6,0.5,8.3"/>
	<path class="st0" d="M88.2,221.6c-0.1,2.6-0.3,5.3-0.4,7.9"/>
	<path class="st0" d="M90.6,220.6c-0.1,2.6-0.2,5.2-0.3,7.9"/>
	<path class="st0" d="M92.9,218.2c0,3,0.1,5.9,0.1,8.9"/>
	<path class="st0" d="M95.4,216.5c0.2,3.1,0.4,6.3,0.6,9.4"/>
	<path class="st0" d="M98,214.1c0.2,2.9,0.4,5.7,0.6,8.6"/>
	<path class="st0" d="M99.8,214.7c0.4,2.4,0.7,4.8,1.1,7.3"/>
	<path class="st0" d="M113.9,184.8c2,3.8,4.1,7.5,6.1,11.3"/>
	<path class="st0" d="M115.6,181.5c2,3.6,3.9,7.1,5.9,10.6"/>
	<path class="st0" d="M116.4,177.2c2.4,4.3,4.8,8.6,7.2,13"/>
	<path class="st0" d="M118.1,174.4c2.1,3.6,4.2,7.2,6.3,10.8"/>
	<path class="st0" d="M119.4,170.3c2.8,4.1,5.5,8.3,8.3,12.4"/>
	<path class="st0" d="M120.1,166.5c2.9,4.1,5.9,8.2,8.8,12.2"/>
	<path class="st0" d="M121.2,162.8c2.9,3.9,5.8,7.8,8.7,11.7"/>
	<path class="st0" d="M121.9,159.8c3,3.7,6,7.4,9,11.1"/>
	<path class="st0" d="M122.8,156.6c3.3,3.8,6.6,7.6,9.8,11.4"/>
	<path class="st0" d="M123.9,154.2c3.1,3.4,6.1,6.7,9.2,10"/>
	<path class="st0" d="M126.1,152.6c2.6,2.7,5.2,5.5,7.8,8.2"/>
	<path class="st0" d="M129.1,135.6c0.9,0.9,1.8,1.8,2.7,2.7"/>
	<path class="st0" d="M129.1,132.6c2.4,2.4,4.9,4.7,7.3,7.1"/>
	<path class="st0" d="M130,130.2c2.9,2.8,5.9,5.6,8.8,8.5"/>
	<path class="st0" d="M130.4,127.6c2.9,2.7,5.9,5.5,8.8,8.2"/>
	<path class="st0" d="M131.3,125.6c3,2.7,6,5.4,9,8.1"/>
	<path class="st0" d="M131.7,122.8c3.1,2.9,6.2,5.8,9.3,8.8"/>
	<path class="st0" d="M132.5,120.8c2.8,2.6,5.6,5.1,8.3,7.7"/>
	<path class="st0" d="M133.5,118.6c2.7,2.4,5.4,4.8,8.1,7.1"/>
	<path class="st0" d="M133.7,116.1c2.9,2.6,5.9,5.2,8.8,7.9"/>
	<path class="st0" d="M134.9,114.3c2.6,2.4,5.2,4.8,7.9,7.2"/>
	<path class="st0" d="M135.4,112.4c2.7,2.5,5.4,4.9,8.1,7.4"/>
	<path class="st0" d="M136,109.9c2.5,2.2,4.9,4.5,7.4,6.8"/>
	<path class="st0" d="M137.1,107.9c2.5,2.4,5,4.8,7.5,7.3"/>
	<path class="st0" d="M137.8,105.8c2.3,2.3,4.6,4.5,6.9,6.8"/>
	<path class="st0" d="M138.3,103.6c2.4,2.4,4.8,4.8,7.3,7.2"/>
	<path class="st0" d="M139.5,101.9c2.2,2.2,4.4,4.4,6.6,6.6"/>
	<path class="st0" d="M140.5,99.8c1.9,1.9,3.8,3.9,5.7,5.9"/>
	<path class="st0" d="M140.5,97.3c2.4,2.3,4.8,4.6,7.2,6.9"/>
	<path class="st0" d="M141.5,95c2.1,2.2,4.1,4.5,6.2,6.7"/>
	<path class="st0" d="M142.3,93.2c2.1,2.1,4.2,4.2,6.3,6.3"/>
	<path class="st0" d="M142.9,90.9c2.3,2.2,4.6,4.4,6.9,6.5"/>
	<path class="st0" d="M143.8,89.1c2.3,2.1,4.6,4.1,6.9,6.2"/>
	<path class="st0" d="M144.5,86.7c2.3,2.2,4.5,4.4,6.8,6.6"/>
	<path class="st0" d="M145.5,84.7c2.3,2.3,4.7,4.6,7,6.9"/>
	<path class="st0" d="M146.4,82.8c2.1,2,4.1,4,6.2,6.1"/>
	<path class="st0" d="M146.9,80.6c2.3,2.1,4.6,4.2,6.9,6.3"/>
	<path class="st0" d="M148.4,78.8c2.1,2,4.2,4,6.3,6"/>
	<path class="st0" d="M149,76.3c2.2,2.2,4.4,4.4,6.7,6.5"/>
	<path class="st0" d="M150.2,74.5c1.9,2,3.9,3.9,5.9,5.9"/>
	<path class="st0" d="M151.2,72.3c1.9,1.9,3.8,3.8,5.6,5.7"/>
	<path class="st0" d="M152.1,70.2c1.9,2,3.8,4,5.6,6"/>
	<path class="st0" d="M153.4,68.5c1.6,1.6,3.2,3.3,4.8,4.9"/>
	<path class="st0" d="M154.4,67c1,1.1,2.1,2.2,3.1,3.3"/>
	<path class="st0" d="M160.3,57.1c1.8,2,3.7,4,5.5,6.1"/>
	<path class="st0" d="M161.4,55.2c1.7,2,3.3,4.1,5,6.1"/>
	<path class="st0" d="M162.5,54.3c1.6,1.9,3.2,3.7,4.9,5.6"/>
	<path class="st0" d="M163.8,52.7c1.5,1.9,3.1,3.8,4.6,5.7"/>
	<path class="st0" d="M165.1,51.4c1.5,1.8,3.1,3.7,4.6,5.6"/>
	<path class="st0" d="M166.8,50.2c1.5,2,2.9,4,4.4,6"/>
	<path class="st0" d="M168.4,48.3c1.2,1.8,2.5,3.5,3.8,5.2"/>
	<path class="st0" d="M170.1,47.3c1.4,1.9,2.7,3.8,4.1,5.8"/>
	<path class="st0" d="M171.6,46c1.3,1.9,2.7,3.8,4,5.7"/>
	<path class="st0" d="M173,43.8c1.4,1.9,2.8,3.8,4.2,5.7"/>
	<path class="st0" d="M175,42.3c1.2,1.9,2.4,3.8,3.6,5.7"/>
	<path class="st0" d="M176.8,41.5c1.1,1.8,2.2,3.6,3.3,5.4"/>
	<path class="st0" d="M179,40.2c1,1.6,1.9,3.1,2.9,4.7"/>
	<path class="st0" d="M181,38.6c1,1.6,2,3.2,3,4.8"/>
	<path class="st0" d="M183.1,37.3c1,1.6,1.9,3.3,2.9,4.9"/>
	<path class="st0" d="M184.9,36.5c0.9,1.5,1.8,2.9,2.8,4.4"/>
	<path class="st0" d="M187.1,35.6c0.8,1.4,1.6,2.8,2.4,4.2c0.1-0.1,0.2-0.2,0.3-0.3"/>
	<path class="st0" d="M189.3,34.8c0.8,1.5,1.7,3.1,2.5,4.6"/>
	<path class="st0" d="M191.6,34.9c0.6,1.3,1.3,2.6,2,3.9"/>
	<path class="st0" d="M193.9,34.2c0.6,1.4,1.1,2.7,1.7,4.1"/>
	<path class="st0" d="M195.8,33.9c0.5,1.6,1,3.3,1.5,4.9"/>
	<path class="st0" d="M197.5,33.5c0.5,1.7,1,3.3,1.6,5"/>
	<path class="st0" d="M199.7,33.5c0.5,1.7,0.9,3.3,1.4,5"/>
	<path class="st0" d="M202,33.8c0.4,1.6,0.9,3.3,1.3,4.9"/>
	<path class="st0" d="M204,34.9c0.3,1.3,0.5,2.5,0.8,3.8"/>
	<path class="st0" d="M206.3,35.5c0.3,1.5,0.6,3.1,0.9,4.6"/>
	<path class="st0" d="M208.3,36.9c0.1,1.7,0.3,3.3,0.4,5"/>
	<path class="st0" d="M210.3,39.4c-0.1,1.6-0.3,3.3-0.4,4.9"/>
	<path class="st0" d="M211.8,41.2c-0.4,2.2-0.8,4.5-1.2,6.7"/>
	<path class="st0" d="M211.7,46c-0.7,1.6-1.3,3.2-2,4.8"/>
	<path class="st0" d="M217.4,41.6c1.3,6.1-1.7,12.9-7.1,16"/>
</g>
<g id="Layer_7">
	<path class="st0" d="M109.8,245.3c5.9-9.9,11.8-19.9,17.8-29.8"/>
	<path class="st0" d="M109.2,239.3c5.5-9.1,11.1-18.2,16.6-27.2"/>
	<path class="st0" d="M108.4,234.1c5.3-9,10.6-18,15.9-27.1"/>
	<path class="st0" d="M106.9,228.9c5.2-8.3,10.4-16.6,15.6-24.9"/>
	<path class="st0" d="M105.4,224.9c4.7-8,9.4-16,14.1-23.9"/>
	<path class="st0" d="M103.3,221c5.2-8.6,10.4-17.3,15.6-25.9"/>
	<path class="st0" d="M102.1,217.2c4.9-9.1,9.8-18.2,14.7-27.3"/>
	<path class="st0" d="M100.5,212.1c4.4-8.1,8.7-16.1,13.1-24.2"/>
	<path class="st0" d="M98.1,208.2c4.2-7.3,8.3-14.5,12.5-21.8"/>
	<path class="st0" d="M94.8,206c4.5-7.5,9-14.9,13.5-22.4"/>
	<path class="st0" d="M92.6,202c4.2-6.8,8.3-13.7,12.5-20.5"/>
	<path class="st0" d="M90.6,198.7c4.1-6.5,8.1-13.1,12.2-19.6"/>
	<path class="st0" d="M88.8,194.8c3.4-5.6,6.9-11.3,10.3-17"/>
	<path class="st0" d="M85.7,193.1c3.4-5.3,6.7-10.6,10.1-15.9"/>
	<path class="st0" d="M83.8,190.8c2.8-5.4,5.7-10.9,8.5-16.4"/>
	<path class="st0" d="M81.6,188.2c2.4-4.6,4.8-9.1,7.2-13.6"/>
	<path class="st0" d="M78.8,187c2.4-4.4,4.8-8.8,7.2-13.2"/>
	<path class="st0" d="M76.3,185.3c2.1-4.2,4.3-8.4,6.4-12.6"/>
	<path class="st0" d="M74.9,183.6c1.8-3.8,3.6-7.7,5.3-11.5"/>
	<path class="st0" d="M72.6,183.2c1.8-3.8,3.6-7.6,5.3-11.4"/>
	<path class="st0" d="M70.5,182.7c1.7-3.8,3.4-7.6,5.1-11.5"/>
	<path class="st0" d="M68.2,182.4c1.6-3.5,3.1-7,4.7-10.4"/>
	<path class="st0" d="M66.2,181.1c1.3-3.4,2.7-6.7,4-10"/>
	<path class="st0" d="M63.5,181.2c1.1-2.8,2.2-5.6,3.2-8.4"/>
	<path class="st0" d="M61,181.6c1.1-3,2.1-6,3.2-9"/>
	<path class="st0" d="M58.5,182.4c0.8-2.6,1.6-5.3,2.4-8"/>
	<path class="st0" d="M56.4,182.5c0.7-2.2,1.3-4.5,2-6.8"/>
	<path class="st0" d="M53.3,184.6c0.7-2.2,1.3-4.5,2-6.8"/>
	<path class="st0" d="M50.6,187.1c0.6-2.7,1.2-5.3,1.8-8"/>
	<path class="st0" d="M48.2,188.9c0.6-2.4,1.2-4.8,1.8-7.2"/>
	<path class="st0" d="M47,192.3c-0.1-3-0.2-6.1-0.3-9.1"/>
	<path class="st0" d="M45.5,194.4c-0.3-2.8-0.5-5.6-0.8-8.4"/>
	<path class="st0" d="M44.3,197.6c-0.4-2.6-0.9-5.2-1.3-7.8"/>
	<path class="st0" d="M42.9,200.7c-0.5-3-1-6-1.6-9"/>
	<path class="st0" d="M41.8,203.6c-0.5-2.7-0.9-5.4-1.4-8.1"/>
	<path class="st0" d="M41,208.3c-0.5-2.7-1-5.4-1.5-8.1"/>
	<path class="st0" d="M40.9,211.1c-0.4-2.1-0.8-4.2-1.2-6.2"/>
	<path class="st0" d="M40.8,214.6c-0.8-2.4-1.6-4.8-2.3-7.2"/>
	<path class="st0" d="M40.3,223.9c-0.9-2.3-1.8-4.7-2.7-7"/>
	<path class="st0" d="M40.6,226.5c-0.8-1.6-1.5-3.2-2.2-4.8"/>
	<path class="st0" d="M42.3,231.1c-1.2-1.6-2.3-3.2-3.5-4.8"/>
	<path class="st0" d="M43.3,233.8c-1.1-1.3-2.2-2.6-3.3-3.9"/>
	<path class="st0" d="M44.7,237.3c-1.1-1-2.2-2-3.3-3"/>
	<path class="st0" d="M45.9,240.9c-1.1-1.2-2.1-2.4-3.2-3.5"/>
	<path class="st0" d="M115.9,255.9c1,3.4,2.1,6.9,3.1,10.3"/>
	<path class="st0" d="M116.8,253.7c1,2.7,2.1,5.3,3.1,7.9"/>
	<path class="st0" d="M118.4,249.6c0.8,3,1.7,6,2.5,9"/>
	<path class="st0" d="M119.5,246.3c0.9,3.1,1.8,6.2,2.7,9.3"/>
	<path class="st0" d="M121.2,243.9c0.8,2.3,1.5,4.5,2.3,6.8"/>
	<path class="st0" d="M122.7,242c0.7,1.3,1.3,2.7,1.9,4"/>
	<path class="st0" d="M123.7,240.3c0.5,1.1,1.1,2.3,1.6,3.4"/>
	<path class="st0" d="M124.5,237.8c0.6,1.2,1.2,2.5,1.8,3.7"/>
	<path class="st0" d="M125.6,236.4c0.5,1,1.1,1.9,1.6,2.9"/>
	<path class="st0" d="M126.7,234.3c0.5,1,0.9,2,1.4,2.9"/>
	<path class="st0" d="M127.7,232.9c0.4,0.9,0.8,1.7,1.2,2.6"/>
	<path class="st0" d="M128.7,231.3c0.4,0.8,0.8,1.6,1.1,2.4"/>
	<path class="st0" d="M129.8,230.1c0.3,0.7,0.6,1.4,0.9,2.1"/>
	<path class="st0" d="M130.8,228.2c0.3,0.7,0.6,1.4,1,2.1"/>
	<path class="st0" d="M131.7,226.9c0.3,0.6,0.6,1.2,0.9,1.8"/>
	<path class="st0" d="M133,225.4c0.2,0.5,0.5,1.1,0.7,1.6"/>
</g>
</svg>
