<?xml version="1.0" encoding="UTF-8"?><svg id="Layer_1" xmlns="http://www.w3.org/2000/svg" viewBox="0 0 102.302 128.762"><defs><style>.cls-1{fill:none;stroke:#000;stroke-miterlimit:10;}</style></defs><line class="cls-1" x1="5.33" y1="13.902" x2="5.33" y2="128.762"/><line class="cls-1" x1="10.28" y1="22.595" x2="10.28" y2="120.877"/><line class="cls-1" x1="16.317" y1="32.737" x2="16.317" y2="115.565"/><line class="cls-1" x1=".5" y1="60.508" x2=".5" y2="85.899"/><line class="cls-1" x1="20.905" y1="62.922" x2="20.905" y2="85.899"/><line class="cls-1" x1="33.341" y1="8.107" x2="102.302" y2="8.107"/><line class="cls-1" x1="53.988" y1=".5" x2="83.774" y2=".5"/><line class="cls-1" x1="58.334" y1="19.094" x2="83.774" y2="19.094"/><line class="cls-1" x1="64.371" y1="12.815" x2="95.087" y2="12.815"/><path class="cls-1" d="M66.811,43.43c-7.071-.447-14.217,.306-21.04,2.217-2.419,.677-4.864,1.536-6.765,3.178-4.175,3.607-4.617,9.812-4.749,15.328l-.311,12.956c-.076,3.146-.147,6.334,.583,9.395,.715,3,2.174,5.764,3.677,8.457,2.246,4.024,4.624,7.974,7.13,11.841,2.469,3.81,5.588,7.879,10.089,8.477"/><path class="cls-1" d="M72.535,50.572c-6.344-.474-12.722-.49-19.069-.05-6.548,.455-13.835,1.844-17.587,7.229-1.912,2.744-2.597,6.158-2.864,9.492-.673,8.385,1.134,17.115,5.953,24.01s12.824,11.721,21.235,11.801"/><path class="cls-1" d="M70.999,63.171c-4.791,.872-10.314-1.427-14.304,1.365-2.512,1.758-3.475,4.99-3.982,8.014-.303,1.806-.498,3.697,.064,5.44,.793,2.456,3.007,4.244,5.416,5.166s5.029,1.108,7.604,1.283c9.822,.67,19.928,1.307,29.294-1.725"/></svg>