<?xml version="1.0" encoding="utf-8"?>
<!-- Generator: Adobe Adobe Illustrator 24.2.0, SVG Export Plug-In . SVG Version: 6.00 Build 0)  -->
<svg version="1.1" xmlns="http://www.w3.org/2000/svg" xmlns:xlink="http://www.w3.org/1999/xlink" x="0px" y="0px" width="300px"
	 height="300px" viewBox="0 0 300 300" style="enable-background:new 0 0 300 300;" xml:space="preserve">
<style type="text/css">
	.st0{fill:none;stroke:#000000;stroke-miterlimit:10;}
</style>
<g id="Layer_1">
	<path class="st0" d="M150.1,60.21c-22.23,7.05-40.5,22.72-48.7,41.75s-6.18,41.09,5.37,58.81c6.55,10.04,15.93,18.66,21.49,29.13
		c5.55,10.47,6.27,24.2-3.37,32.21c-5.22,4.33-12.54,6.23-19.7,7.33c-10.63,1.63-22.07,1.72-31.72-2.42
		c-9.66-4.15-16.88-13.41-14.84-22.49"/>
	<path class="st0" d="M150.71,57.07c19.57-2.24,39.79,6.08,52.17,19.95c12.39,13.87,17.16,32.67,14.52,50.33
		s-12.31,34.15-25.66,47.27c-4.96,4.87-10.43,9.34-14.9,14.59c-4.47,5.25-7.94,11.49-8.07,18.11c-0.17,9.1,6.42,17.78,15.48,21.75
		s20.12,4.24,29.22,0.34"/>
	<path class="st0" d="M131.12,211.52c3.57-11.01-2.65-22.68-10.89-31.67s-18.62-16.57-25.54-26.34
		c-13.4-18.91-11.32-44.27,2.49-62.97s37.97-30.84,63.37-34.93"/>
	<path class="st0" d="M174.65,192.18c-6.8,5.65-8.03,15.51-4.26,23.14c3.77,7.62,11.74,13.07,20.42,15.94
		c8.31,2.74,17.61,4.1,26.04,1.7c37.83-10.76,12.57-42.46-9.08-34.7c-8.22,2.95-13.45,11.84-10.88,19.49"/>
	<path class="st0" d="M159.72,55.58c-21.93,6.5-42.69,17.44-56.04,33.68s-18.26,38.25-9.05,56.48c4.29,8.49,11.28,15.74,18.05,22.95
		c6.77,7.21,13.52,14.68,17.18,23.39c3.66,8.71,3.81,18.98-2.16,26.7c-7.97,10.29-24.12,13.23-38.55,13.05
		c-7.01-0.09-14.16-0.74-20.5-3.29c-6.34-2.55-11.8-7.27-13.24-13.14c-1.44-5.87,2.02-12.69,8.59-14.77"/>
	<path class="st0" d="M67.9,198.49c-5.64,1.69-8.85,8.02-7.81,13.57c1.04,5.55,5.57,10.1,10.9,12.54c5.33,2.44,11.39,3.03,17.3,3.03
		c8.04-0.01,16.21-1.11,23.43-4.47c7.22-3.36,13.41-9.19,15.81-16.5c2.69-8.22,0.37-17.25-3.67-24.95
		c-4.04-7.7-9.7-14.51-14.24-21.96c-11.75-19.24-15.51-43.46-7.1-64.23s29.96-36.91,53.04-35.9c18.84-3.41,38.92,5.51,50.19,20.3
		s14.19,34.52,9.98,52.36c-4.21,17.84-15.02,33.84-28.64,46.72c-7.92,7.49-17.43,15.12-18.56,25.7c-0.71,6.63,2.25,13.34,7.05,18.18
		c4.8,4.85,11.28,7.97,18.01,9.76c8.17,2.18,17.01,3.24,25.07,0.71c37.73-11.86,7.86-42.75-8.77-34.1
		c-7.44,3.87-11.43,13.42-7.44,20.55"/>
	<path class="st0" d="M69.28,200.97c-5.43,0.79-9.05,6.55-8.32,11.74c0.73,5.19,4.94,9.49,9.88,11.76
		c4.95,2.27,10.56,2.81,16.05,2.94c7.66,0.19,15.49-0.38,22.59-3.11c7.11-2.73,13.46-7.87,16.13-14.72
		c3.55-9.11,0.02-19.52-5.88-27.44c-5.9-7.93-13.96-14.12-20.94-21.21c-11.79-11.96-20.82-27.78-19.12-44.11
		c1.18-11.32,7.4-21.69,15.18-30.31c18.67-20.67,47.33-32.79,76.08-31.41c13.82,1.41,26.41,9.43,34.43,20.25
		c8.02,10.82,11.72,24.2,12.03,37.45c0.51,21.69-8.04,43.46-23.35,59.51c-5.43,5.69-11.66,10.68-16.67,16.7
		c-5.01,6.02-8.82,13.44-8.25,21.11c0.57,7.71,5.66,14.75,12.5,18.91c6.83,4.16,15.21,6.38,23.3,5.91
		c8.63-0.51,17.35-3.29,23.61-8.98c16.83-15.28-4.74-27.21-13.74-25.88c-8.55,1.26-14.92,10.9-11.41,18.44"/>
	<path class="st0" d="M126.81,188.97c-10.32-12.46-19.37-25.88-26.99-40c-5.72-10.62-10.75-22.34-9.08-34.17
		c1.93-13.75,12.47-24.89,23.41-34.04c12.28-10.28,26.74-19.64,43.06-20.42c11.14-0.53,22.31,3.13,31.26,9.48
		c8.95,6.35,15.72,15.27,20.04,25.07c10.86,24.65,5.24,55.12-13.79,74.76c-4.37,4.51-9.37,8.48-13.36,13.29
		c-4,4.82-7,10.78-6.44,16.9"/>
	<path class="st0" d="M67.3,210.33c-3.17,3.6-1.8,9.2,1.8,12.46c3.6,3.26,8.8,4.66,13.84,5.49c8.36,1.38,17.1,1.53,25.29-0.5
		c8.19-2.03,15.82-6.37,20.52-12.7"/>
	<path class="st0" d="M161.15,56.07c-15.5,4.23-30.87,9.41-44.27,17.54S92.08,93.1,86.93,106.8c-5.15,13.71-3.32,29.86,6.82,41.13
		c4.98,5.53,11.61,9.65,17.75,14.17c7.6,5.58,14.65,11.98,19.33,19.7c4.68,7.72,6.83,16.93,4.38,25.43
		c-2.45,8.5-10.01,16.03-19.64,17.85"/>
	<path class="st0" d="M97.05,229.74c13.28-1.78,27.75-6.14,34.19-17.27c6.28-10.84,2.68-24.56-3.83-35.29
		c-6.5-10.73-15.67-19.93-21.38-31.05c-8.51-16.57-8.41-36.87,0.27-53.36s25.74-28.81,43.48-30.88
		c17.14-4.55,36.44,2.28,47.98,15.11c11.54,12.82,15.71,30.71,13.28,47.39s-10.98,32.18-22.21,45.25
		c-5.63,6.56-11.98,12.62-16.72,19.79s-7.79,15.81-5.93,24.08c2.33,10.35,12.18,18.18,23,20.86c10.82,2.68,22.38,1.67,32.97-1.74"/>
	<path class="st0" d="M150.86,59.04c13.76-4.87,30.37-1.08,41.57,7.27c11.2,8.36,17.57,20.57,20.6,32.97
		c4.33,17.72,2.2,36.92-8.35,52.65c-5.3,7.9-12.51,14.72-19.24,21.79c-6.73,7.07-13.12,14.62-16.34,23.29s-2.84,18.72,3.26,26.19
		c3.02,3.69,7.26,6.57,11.86,8.8c7.34,3.56,15.88,5.56,24.29,4.87c8.41-0.69,16.63-4.25,21.49-10.12s5.94-14.06,1.93-20.38
		c-4.01-6.32-13.28-10.1-21.41-8.14c-8.13,1.97-13.74,9.96-11.19,16.8"/>
	<path class="st0" d="M111.36,79.78c-10.44,11.77-15.79,26.34-14.94,40.72s7.88,28.49,19.66,39.43"/>
	<path class="st0" d="M96.68,94.83c-8.83,14.46-6.94,31.88,0.45,46.84c7.39,14.96,19.77,27.97,32,40.76"/>
	<path class="st0" d="M101.09,98.79c-3.39,24.45,4.39,49.78,21.56,70.24"/>
	<path class="st0" d="M96.11,118.5c6.94,17.01,17.05,33.21,29.9,47.89"/>
	<path class="st0" d="M118.42,78.87c-15.56,17.14-18.89,40.83-8.48,60.28"/>
	<path class="st0" d="M138.4,64.71c11.24-8.49,28.91-8.94,42.31-3.13c13.4,5.81,22.83,16.86,28.34,28.74
		c12.25,26.42,5.95,58.39-15.76,79.99c-9.12,9.07-21.11,17.06-24.4,28.66"/>
</g>
<g id="Layer_2">
	<path class="st0" d="M164.04,58.66c-17.91,5.66-35.58,12.86-49.14,24.18s-22.55,27.38-20.11,43.29c1.5,9.81,7.13,18.85,13.69,27.07
		s14.14,15.87,20.24,24.34c6.86,9.52,11.87,21,8.15,31.68c-3.32,9.55-13.47,16.85-24.92,19.46s-23.91,0.87-34.59-3.45
		c-7.62-3.09-15.22-8.68-14.81-15.77c0.4-6.97,10.28-12.27,18.01-9.66"/>
	<path class="st0" d="M127.51,71.08c-14.63,6.2-27.06,16.33-33.83,28.85c-6.78,12.51-7.62,27.39-1.26,40.06
		c4.62,9.19,12.64,16.84,20.44,24.38s15.65,15.35,19.83,24.69c4.17,9.34,4.02,20.66-3.37,28.48c-7.08,7.49-19.08,10.29-30.41,11.31
		c-7.26,0.65-14.86,0.71-21.54-1.75c-6.68-2.46-12.2-7.98-11.9-14.09s8.1-11.64,14.96-9.56"/>
</g>
<g id="Layer_3">
	<path class="st0" d="M113.29,227.74c8.64,1.49,20.52-7.08,25.11-14.55c4.59-7.47,3.8-13.1,0-21.01c-3.7-7.7-8.7-15.28-14.51-21.54
		c-9.66-10.41-16.87-23.08-20.89-36.7c-2.85-9.66-4.08-20.08-1.46-29.81c2.66-9.85,9.15-18.36,17.03-24.83
		c7.89-6.47,17.14-11.05,27.61-14.06c15.62-4.15,33.05,0.48,45.22,11.12c12.16,10.64,19.01,26.81,19.19,42.96
		s-6.06,32.13-16.38,44.56c-8.23,9.92-18.97,17.75-26.02,28.54c-3.74,5.71-6.4,12.58-5.17,19.3c1.88,10.27,11.89,16.77,21.3,21.29"
		/>
	<path class="st0" d="M109.07,148.66c6.73,8.2,13.45,16.41,20.18,24.61c4.56,5.56,9.18,11.21,12.07,17.79
		c2.9,6.58,3.91,14.33,1.1,20.95c-3.49,8.21-11.98,13.08-20.31,16.26c-10.76,4.11-22.4,6.42-33.83,5.04s-22.63-6.74-29.68-15.85"/>
	<path class="st0" d="M127.35,66.19c-15.62,6.58-30.13,17.1-38.41,31.89s-9.35,34.21,0.01,48.34"/>
</g>
</svg>
