<?xml version="1.0" encoding="UTF-8" standalone="no"?>
<svg
   xmlns:dc="http://purl.org/dc/elements/1.1/"
   xmlns:cc="http://creativecommons.org/ns#"
   xmlns:rdf="http://www.w3.org/1999/02/22-rdf-syntax-ns#"
   xmlns:svg="http://www.w3.org/2000/svg"
   xmlns="http://www.w3.org/2000/svg"
   xmlns:sodipodi="http://sodipodi.sourceforge.net/DTD/sodipodi-0.dtd"
   xmlns:inkscape="http://www.inkscape.org/namespaces/inkscape"
   inkscape:version="1.0 (4035a4fb49, 2020-05-01)"
   sodipodi:docname="omega.svg"
   id="svg36"
   width="159.11345"
   viewBox="0 0 159.11345 168.08504"
   version="1.1"
   height="168.08504">
  <metadata
     id="metadata40">
    <rdf:RDF>
      <cc:Work
         rdf:about="">
        <dc:format>image/svg+xml</dc:format>
        <dc:type
           rdf:resource="http://purl.org/dc/dcmitype/StillImage" />
      </cc:Work>
    </rdf:RDF>
  </metadata>
  <sodipodi:namedview
     inkscape:current-layer="svg36"
     inkscape:window-maximized="0"
     inkscape:window-y="0"
     inkscape:window-x="0"
     inkscape:cy="84.37437"
     inkscape:cx="79.900327"
     inkscape:zoom="5.0898204"
     showgrid="false"
     id="namedview38"
     inkscape:window-height="480"
     inkscape:window-width="820"
     inkscape:pageshadow="2"
     inkscape:pageopacity="0"
     guidetolerance="10"
     gridtolerance="10"
     objecttolerance="10"
     borderopacity="1"
     bordercolor="#666666"
     pagecolor="#ffffff" />
  <defs
     id="defs4">
    <style
       id="style2"
       type="text/css"><![CDATA[
	.background { fill: white; }
	.line { stroke: firebrick; stroke-width: .1mm; }
	.blacksquare { fill: indigo; }
	.whitesquare { fill: white; }
]]></style>
  </defs>
  <path
     stroke-width="1.79462"
     stroke="#000000"
     id="1"
     fill="none"
     d="m 13.943354,129.84272 -1.399102,1.42905 -1.353658,1.47217 -1.306886,1.51384 -1.258832,1.55403 -1.209542,1.5927 -1.159066,1.6298 -1.107453,1.6653 -1.054752,1.69916 -1.001018,1.73137 -0.506718,1.80945 0.947058,1.88682 1.066807,1.75859 1.179524,1.63166 1.285206,1.50604 1.383854,1.38174 1.475469,1.25873 1.560051,1.13704 1.637598,1.01665 1.708112,0.89758 1.771593,0.7798 1.82804,0.66335 1.877452,0.54819 1.919832,0.43434 1.955178,0.32181 1.98349,0.21057 2.004768,0.10066 2.019014,-0.008 2.026225,-0.11526 2.026402,-0.22127 2.019546,-0.32596 2.005657,-0.42933 1.984733,-0.53142 1.956776,-0.63218 1.800536,-0.68639 1.720991,-0.77338 1.768657,-0.90288 1.791195,-1.0156 1.788604,-1.11154 1.760886,-1.19072 1.70804,-1.25312 1.630065,-1.29876 1.526961,-1.32761 1.398731,-1.33971 1.245371,-1.33502 0.859842,-1.14005 0.856466,-1.52659 0.886756,-1.91368 0.864822,-2.19487 0.790665,-2.37018 0.664284,-2.4396 0.485678,-2.40315 0.254849,-2.26079 -0.0282,-2.01256 -0.363481,-1.65843 -0.750981,-1.19843 -1.106775,-0.61268" />
  <path
     stroke-width="1.79462"
     stroke="#000000"
     id="2"
     fill="none"
     d="m 79.85813,33.269907 -0.206727,0.510721 -0.302402,0.698378 -0.391374,0.876388 -0.473647,1.044752 -0.549218,1.203469 -0.618088,1.352539 -0.680259,1.491962 -0.735726,1.621739 -0.784495,1.741868 -0.826562,1.852351 -0.861928,1.953187 -0.890594,2.044376 -0.912558,2.125919 -0.927822,2.197813 -0.936384,2.260063 -0.938247,2.312665 -0.933408,2.355619 -0.921868,2.388928 -0.903628,2.412589 -0.878686,2.426604 -0.847044,2.430972 -0.808701,2.425693 -0.763657,2.410767 -0.711913,2.386194 -0.653467,2.351975 -0.58832,2.308109 -0.516473,2.254596 -0.437925,2.191436 -0.352676,2.118629 -0.260727,2.036176 -0.162075,1.944075 -0.05673,1.842328 0.05533,1.730935 0.174081,1.609893 0.299535,1.479206 0.543546,1.674989 0.780551,1.81923 0.896198,1.77929 0.949311,1.76434 0.939885,1.7744 0.867925,1.80943 0.733428,1.86946 0.55003,1.95738 0.45136,1.99993 0.371999,2.00442 0.283263,2.00389 0.185151,1.99837 0.07766,1.98785 -0.0392,1.97231 -0.165433,1.95179 -0.301045,1.92625 -0.446032,1.89572 -0.600394,1.86017 -0.76413,1.81964 -0.937243,1.7741 -1.119729,1.72355 -0.581099,0.77726" />
  <path
     stroke-width="1.79462"
     stroke="#000000"
     id="3"
     fill="none"
     d="m 86.75619,32.50346 -0.971461,2.120852 -0.967613,2.079586 -0.962526,2.040681 -0.956204,2.004137 -0.948646,1.969953 -0.939849,1.938129 -0.929818,1.908667 -0.918549,1.881565 -0.906044,1.856824 -0.892303,1.834442 -0.877324,1.814422 -0.86111,1.796763 -0.843659,1.781463 -0.824972,1.768525 -0.805047,1.757947 -0.783887,1.74973 -0.76149,1.743873 -0.737856,1.740377 -0.712986,1.739242 -0.68688,1.740466 -0.659536,1.744052 -0.630957,1.749999 -0.601141,1.758305 -0.570088,1.768973 -0.537799,1.782 -0.504273,1.79739 -0.469511,1.815139 -0.433513,1.835248 -0.396277,1.857719 -0.357805,1.88255 -0.318098,1.909742 -0.277153,1.939294 -0.234971,1.971206 -0.191554,2.00548 -0.1469,2.042114 -0.101009,2.081109 -0.05388,2.122466 -0.02035,2.01159 -0.01133,1.99969 -0.004,1.99996 0.0018,2.00015 0.0062,2.00026 0.0091,2.0003 0.01056,2.00026 0.01057,2.00013 0.0091,1.99995 0.0062,1.99967 -0.06715,-1.74151 0.06536,-1.99851 0.206993,-1.98884 0.347578,-1.96914 0.486413,-1.93951 0.488585,-1.52689" />
  <path
     stroke-width="1.79462"
     stroke="#000000"
     id="4"
     fill="none"
     d="m 96.72007,28.671203 -1.369106,1.647086 -1.341762,1.651154 -1.314434,1.655421 -1.287118,1.659884 -1.259817,1.664545 -1.232529,1.669403 -1.205256,1.674459 -1.177996,1.679711 -1.15075,1.685161 -1.123518,1.690808 -1.096301,1.696653 -1.069096,1.702694 -1.041906,1.708934 -1.01473,1.71537 -0.987567,1.722003 -0.960419,1.728834 -0.933284,1.735863 -0.906164,1.743087 -0.879057,1.750511 -0.851964,1.75813 -0.824885,1.765948 -0.79782,1.773962 -0.770769,1.782174 -0.743732,1.790583 -0.716709,1.799189 -0.689699,1.807993 -0.662703,1.816994 -0.635722,1.826192 -0.608754,1.835588 -0.5818,1.84518 -0.554861,1.854971 -0.527934,1.864957 -0.501023,1.875143 -0.474124,1.885524 -0.44724,1.896103 -0.420369,1.90688 -0.393513,1.917853 -0.366671,1.929024 -0.339841,1.940393 -0.313027,1.951958 -0.286226,1.963717 -0.25944,1.97568 -0.232666,1.98784 -0.205907,2.0002 -0.179162,2.01274 -0.15243,2.0255 -0.125713,2.03844 -0.09901,2.05158 -0.07232,2.06493 -0.04565,2.07846 -0.01898,2.0922 -0.07323,-0.1702 -0.03769,-1.99055 0.0665,-2.00092 0.151199,-2.00607 0.216409,-2.006 0.262132,-2.00071 0.288369,-1.9902 0.295116,-1.97448 0.282377,-1.95354 0.07645,-0.55985" />
  <path
     stroke-width="1.79462"
     stroke="#000000"
     id="5"
     fill="none"
     d="m 96.72007,24.838946 -1.030134,1.686144 -1.041225,1.687827 -1.050192,1.689978 -1.057035,1.692597 -1.061755,1.695682 -1.06435,1.699238 -1.064824,1.703259 -1.063171,1.70775 -1.059397,1.712708 -1.053499,1.718134 -1.045476,1.724027 -1.03533,1.73039 -1.023061,1.737219 -1.008668,1.744516 -0.992151,1.752282 -0.97351,1.760515 -0.952747,1.769217 -0.929858,1.778385 -0.904847,1.788023 -0.877713,1.798127 -0.848453,1.8087 -0.817071,1.81974 -0.783565,1.831249 -0.747936,1.843226 -0.710182,1.85567 -0.670306,1.868582 -0.628305,1.881962 -0.58418,1.89581 -0.537933,1.910126 -0.489562,1.92491 -0.439066,1.940161 -0.386447,1.955881 -0.331705,1.972068 -0.274839,1.988723 -0.215207,1.996652 -0.16748,1.956019 -0.138673,1.97825 -0.112056,1.99753 -0.08763,2.01386 -0.06539,2.027238 -0.04534,2.037667 -0.02747,2.045142 -0.0118,2.04967 0.0017,2.05125 0.01299,2.04987 0.02209,2.04555 0.02902,2.03826 0.03375,2.02805 0.03629,2.01486 0.03664,1.99873 0.03481,1.97966 0.03079,1.95762 0.02457,1.93264 0.01617,1.90471 0.0056,1.74098 v -2 -2 -2 -0.34422" />
  <path
     stroke-width="1.79462"
     stroke="#000000"
     id="6"
     fill="none"
     d="m 79.82982,37.003119 0.59333,-1.663959 0.687358,-1.680527 0.777685,-1.69141 0.864312,-1.696604 0.947238,-1.696114 1.026462,-1.689935 1.101984,-1.678072 1.173808,-1.660521 1.241927,-1.637285 1.306348,-1.60836 1.367067,-1.573751 1.424084,-1.533455 1.4774,-1.487472 1.527016,-1.435802 1.57293,-1.378447 1.615143,-1.315404 1.653658,-1.246676 1.68847,-1.1722602 1.71957,-1.092159 1.74699,-1.006371 1.77069,-0.914897 1.7907,-0.817735 1.807,-0.714888 1.74394,-0.583266 1.43328,-0.396618 1.61711,-0.378735 1.77976,-0.355277 1.92121,-0.326242 2.0415,-0.291631 2.14058,-0.251446 2.21849,-0.205683 2.27522,-0.154347 2.31076,-0.097433 2.32513,-0.034944 2.31829,0.03312 2.29029,0.10676 2.2411,0.185976 2.17072,0.270768 2.07916,0.361135 1.96642,0.457079 1.83249,0.558597 1.67739,0.665691 1.50109,0.778362 1.30362,0.896608 1.12804,1.062434 1.06626,1.328383 0.931,1.492139 0.80086,1.6397662 0.67581,1.77126 0.5559,1.886624 0.44108,1.985856 0.33138,2.068959 0.2268,2.135929 0.12733,2.186769 0.033,2.221478 -0.0563,2.240056 -0.14041,2.242503 -0.21943,2.228819 -0.29334,2.199003 -0.36214,2.153058 -0.42582,2.09098 -0.48439,2.012773 -0.53784,1.918433 -0.58619,1.807963 -0.62943,1.681362 -0.66753,1.53863 -0.70055,1.379767 -0.97121,1.671404 -1.04118,1.631194 -1.1067,1.591837 -1.16841,1.554466 -1.22631,1.519084 -1.28038,1.485688 -1.33066,1.454281 -1.37712,1.424861 -1.41975,1.397429 -1.45859,1.371985 -1.49359,1.348528 -1.5248,1.327058 -1.55218,1.307577 -1.57576,1.290082 -1.59552,1.274576 -1.61146,1.261058 -1.62359,1.249526 -1.63192,1.239983 -1.63641,1.232426 -1.63711,1.226859 -1.63398,1.223278 -1.62705,1.221685 -1.61629,1.222079 -1.60174,1.224462 -1.58335,1.228831 -1.56116,1.235189 -1.53516,1.243534 -1.50534,1.253867 -1.40132,1.204799 -1.17326,1.045659 -1.21787,1.121973 -1.25721,1.194901 -1.29131,1.26444 -1.32015,1.330591 -1.34374,1.393354 -1.36208,1.45273 -1.37518,1.508718 -1.383011,1.561317 -1.385603,1.610528 -1.38294,1.65635 -1.375028,1.69879 -1.361864,1.73784 -1.343448,1.7735 -1.319783,1.80577 -1.290866,1.83465 -1.256698,1.86015 -1.21728,1.88227 -1.172609,1.90098 -1.122689,1.91631 -1.067518,1.92826 -1.007095,1.93682 -0.941421,1.94198 -0.870497,1.94377 -0.794322,1.94217 -0.712895,1.93716 -0.626218,1.92879 -0.534289,1.91702 -0.437111,1.90185 -0.33468,1.88332 -0.226999,1.86138 -0.114067,1.83605 0.0041,1.80735 0.12755,1.77525 0.256235,1.73977 0.390171,1.70089 0.529357,1.65864 0.624741,1.48683 0.781755,1.19902 1.110129,1.26207 1.399145,1.30119 1.648807,1.31641 1.859109,1.30774 2.030056,1.27514 2.161645,1.21865 2.253878,1.13824 2.306753,1.03394 2.320272,0.90572 2.294434,0.75361 2.229234,0.57757 2.12469,0.37764 1.98078,0.1538 1.79751,-0.0939 1.57489,-0.3656 1.3129,-0.66116 1.01158,-0.98062 0.67087,-1.324 0.29083,-1.69128 0.007,-0.59984" />
  <path
     stroke-width="1.79462"
     stroke="#000000"
     id="7"
     fill="none"
     d="m 87.31445,164.03136 1.850041,0.27843 1.886667,0.28025 1.919888,0.27912 1.949706,0.27504 1.976121,0.268 1.999132,0.25801 2.018745,0.24508 2.03494,0.2292 2.04774,0.21035 2.05714,0.18857 2.06314,0.16382 2.06572,0.13614 2.06491,0.1055 2.06069,0.0719 2.05307,0.0354 2.04204,-0.004 2.02762,-0.0466 2.00979,-0.092 1.98854,-0.14032 1.96392,-0.19161 1.93586,-0.24587 1.90443,-0.30306 1.86957,-0.36321 2.04119,-0.48673 2.13386,-0.66158 1.981,-0.77325 1.85032,-0.86957 1.74187,-0.95054 1.65561,-1.01615 1.59155,-1.06641 1.54969,-1.10132 1.53004,-1.12086 1.53259,-1.12506 1.55735,-1.1139 0.47713,-0.33093" />
  <path
     stroke-width="1.79462"
     stroke="#000000"
     id="8"
     fill="none"
     d="m 10.111097,129.84272 -1.748532,1.21552 -1.609548,1.31216 -1.452437,1.39897 -1.277201,1.47599 -1.083839,1.54318 -0.87235,1.60058 -0.642736,1.64817 -0.394997,1.68594 -0.12912998,1.71392 0.15486098,1.73207 0.456979,1.74043 0.777222,1.73897 1.115591,1.72771 1.472087,1.70663 1.846707,1.67575 1.854428,1.37689" />
  <path
     stroke-width="1.79462"
     stroke="#000000"
     id="9"
     fill="none"
     d="m 123.58632,166.52534 2.35122,0.29823 2.34789,0.11178 2.3328,-0.0639 2.30593,-0.22891 2.26728,-0.38314 2.21688,-0.52664 2.15468,-0.6594 2.08072,-0.78142 1.99499,-0.8927 1.89748,-0.99325 1.78819,-1.08305 1.66714,-1.16213 1.53431,-1.23046 1.3897,-1.28805 1.23333,-1.33491 1.06518,-1.37102 0.88525,-1.3964 0.69356,-1.41105 0.49008,-1.41495 0.27484,-1.40811 0.0478,-1.39054 -0.19097,-1.36223 -0.44153,-1.32319 -0.70388,-1.27339 -0.97798,-1.21288 -1.26388,-1.14161 -1.56153,-1.0596 -1.87097,-0.96688 -2.19217,-0.86339 -2.52515,-0.74918 -2.86991,-0.62423 -2.62577,-0.40522 -1.95309,-0.15448 -2.12479,-0.0405 -2.24983,0.0741 -2.32818,0.1894 -2.35989,0.30529 -2.3449,0.42184 -2.28326,0.539 -2.17495,0.6568 -2.01996,0.77524 -1.81831,0.89432 -1.56998,1.01403 -1.27499,1.13437 -0.93333,1.25536 -0.545,1.37697 -0.11,1.49922 0.36938,1.61533 0.80973,1.45258 1.21029,1.23588 1.54627,1.01841 1.81767,0.80015 2.0245,0.5811 2.16674,0.36128 2.2444,0.14066 2.25749,-0.0807 2.20598,-0.30291 2.08991,-0.52588 1.90925,-0.74963 1.66402,-0.97415 1.35419,-1.19948 0.84938,-1.17962" />
  <path
     stroke-width="1.79462"
     stroke="#000000"
     id="10"
     fill="none"
     d="m 117.89663,167.02414 2.05333,0.11912 2.09824,0.0443 2.13212,-0.0306 2.15498,-0.10573 2.16684,-0.18102 2.16766,-0.25649 2.15748,-0.33212 2.13627,-0.40793 2.10405,-0.48391 2.0608,-0.56007 2.00654,-0.63638 1.94126,-0.71288 1.86496,-0.78955 1.77764,-0.86638 1.67931,-0.9434 1.56995,-1.02058 1.44958,-1.09793 1.31819,-1.17546 1.17578,-1.25315 1.02235,-1.33103 0.8579,-1.40906 0.72894,-1.70615 0.35171,-1.73515 -0.0331,-1.69278 -0.3924,-1.63755 -0.7262,-1.56943 -1.03449,-1.48846 -1.31728,-1.39462 -1.57457,-1.28791 -1.80635,-1.16833 -2.01263,-1.03588 -2.19341,-0.89057 -2.34867,-0.73239 -1.93524,-0.45026 -1.81373,-0.30043 -1.94397,-0.22096 -2.04848,-0.14054 -2.12723,-0.0592 -2.18025,0.0232 -2.20752,0.1065 -2.20907,0.19077 -2.18486,0.27601 -2.13491,0.36221 -2.05923,0.44937 -1.95781,0.5375 -1.83064,0.62658 -1.67773,0.71664 -1.49909,0.80764 -1.37111,0.96001 -1.64575,1.56543 -1.13692,1.64856 -0.59497,1.7038 -0.0199,1.73113 0.58824,1.73055 1.22951,1.70208 1.68393,1.43466 1.87936,0.89145 2.09173,0.52933 2.21433,0.27495 2.24718,0.12828 2.19028,0.0894 2.04362,0.15813 1.80721,0.33465 1.48105,0.61888 0.9646,0.86843" />
  <path
     stroke-width="1.79462"
     stroke="#000000"
     id="11"
     fill="none"
     d="m 74.84008,141.71451 1.43714,2.03102 1.362556,1.91397 1.303311,1.79938 1.259409,1.68721 1.230845,1.57747 1.217622,1.47016 1.219739,1.36531 1.237197,1.26287 1.269995,1.16286 1.318133,1.06531 1.381611,0.97017 1.46043,0.87748 1.554589,0.78722 1.664087,0.69939 1.788927,0.61399 1.929107,0.53103 2.084626,0.45051 2.255486,0.37242 2.44169,0.29676 2.18592,0.1955 2.00437,0.14206 2.0162,0.10387 2.02292,0.0595 2.02452,0.009 2.021,-0.0478 2.01236,-0.11062 1.99861,-0.17967 1.97975,-0.25487 1.95576,-0.33625 1.92665,-0.42379 1.89244,-0.51749 1.43018,-0.46605" />
  <path
     stroke-width="1.79462"
     stroke="#000000"
     id="12"
     fill="none"
     d="m 138.87518,68.340109 -1.14235,0.829376 -1.2178,0.868141 -1.28867,0.906045 -1.35493,0.943093 -1.4166,0.979279 -1.47368,1.014607 -1.52615,1.049076 -1.57404,1.082685 -1.61733,1.115437 -1.65603,1.147327 -1.69012,1.17836 -1.71962,1.208533 -1.74454,1.237847 -1.76485,1.266302 -1.78057,1.293897 -1.79169,1.320634 -1.79822,1.346512 -1.80015,1.371529 -1.7975,1.395689 -1.79023,1.418989 -1.77839,1.44143 -1.76193,1.463012 -1.7409,1.483734 -1.715262,1.503598 -1.685027,1.522602 -1.650199,1.540747 -1.610777,1.55803 -1.56676,1.57446 -1.518147,1.59003 -1.46494,1.60474 -1.407137,1.61858 -1.34474,1.63158 -1.277746,1.64371 -1.206159,1.65498 -1.129975,1.66539 -1.049198,1.67495 -0.963824,1.68364 -0.873856,1.69148 -0.779293,1.69845 -0.680134,1.70457 -0.576381,1.70983 -0.468032,1.71423 -0.355088,1.71777 -0.23755,1.72044 -0.115415,1.72227 0.01131,1.72324 0.142638,1.72333 0.03937,0.30569" />
  <path
     stroke-width="1.79462"
     stroke="#000000"
     id="13"
     fill="none"
     d="m 79.09168,44.000221 1.274205,-1.599877 1.26769,-1.602398 1.263393,-1.602226 1.26131,-1.599358 1.261444,-1.593796 1.263794,-1.58554 1.26836,-1.57459 1.275143,-1.560943 1.284141,-1.544604 1.295356,-1.52557 1.308786,-1.503841 1.324433,-1.479417 1.342295,-1.4523 1.362375,-1.422487 1.38467,-1.38998 1.40918,-1.354778 1.435915,-1.316883 1.46485,-1.276292 1.49601,-1.233007 1.52938,-1.187028 1.56498,-1.138354 1.60279,-1.086985 1.64281,-1.032923 1.68505,-0.976165 1.7295,-0.9167122 1.77618,-0.854567 1.82506,-0.789725 1.87617,-0.722189 1.92949,-0.65196 1.98503,-0.579035 2.04278,-0.503416 2.10275,-0.425103 1.8932,-0.299606 1.85398,-0.19745 1.99817,-0.122468 2.09814,-0.037891 2.1539,0.056279 2.16548,0.160044 2.13282,0.273403 2.05599,0.396358 1.93492,0.528905 1.76967,0.671049 1.56021,0.822786 1.67422,1.203892 1.53627,1.38676 1.346,1.5163342 1.15951,1.630006 0.9768,1.727774 0.79787,1.80964 0.62273,1.875603 0.45137,1.925662 0.28378,1.959819 0.11997,1.978072 -0.04,1.980423 -0.1963,1.966871 -0.34875,1.937415 -0.46012,1.800966 -0.52421,1.762727 -0.5994,1.82176 -0.66732,1.868398 -0.728,1.902644 -0.78143,1.924497 -0.8276,1.933958 -0.86653,1.931025 -0.8982,1.915699 -0.92261,1.887981 -0.93978,1.847869 -0.9497,1.795365 -0.95235,1.730468 -0.94777,1.653177 -0.94357,1.575355 -1.05206,1.608425 -1.13662,1.562586 -1.21443,1.519965 -1.28548,1.480567 -1.34978,1.444387 -1.40733,1.411429 -1.45813,1.381691 -1.50218,1.355174 -1.53947,1.331876 -1.57001,1.3118 -1.5938,1.294943 -1.61084,1.281308 -1.62112,1.270892 -1.62466,1.263697 -1.62144,1.259723 -1.61147,1.258969 -1.59474,1.261434 -1.57127,1.267122 -1.54104,1.276029 -1.50406,1.288156 -1.46033,1.303505 -1.40985,1.322072 -1.28916,1.278878" />
  <path
     stroke-width="1.79462"
     stroke="#000000"
     id="14"
     fill="none"
     d="m 97.4865,28.671203 -1.654194,0.403038 -1.555566,0.78118 -1.459848,1.110957 -1.367039,1.392367 -1.277138,1.62541 -1.190148,1.810088 -1.106067,1.946398 -1.024895,2.034343 -0.946632,2.07392 -0.871279,2.065132 -0.798835,2.007976 -0.7293,1.902455 -0.662674,1.748568 -0.598958,1.546313 -0.640687,1.565551 -0.719944,1.753717 -0.725716,1.781165 -0.729171,1.806855 -0.730306,1.83079 -0.729122,1.852968 -0.725618,1.873389 -0.719797,1.892054 -0.711655,1.908961 -0.701195,1.924112 -0.688415,1.937508 -0.673316,1.949145 -0.655899,1.959026 -0.636162,1.967151 -0.614105,1.97352 -0.589731,1.978131 -0.563035,1.980985 -0.534023,1.982084 -0.50269,1.981425 -0.469038,1.979011 -0.433068,1.974839 -0.394777,1.96891 -0.354169,1.961225 -0.31124,1.951784 -0.265993,1.940586 -0.218427,1.92763 -0.168541,1.91292 -0.116336,1.89645 0.567784,1.59434 0.871835,-0.80929" />
  <path
     stroke-width="1.79462"
     stroke="#000000"
     id="15"
     fill="none"
     d="m 113.58198,12.575737 -1.71237,1.150195 -1.66276,1.187617 -1.61451,1.22441 -1.56763,1.260575 -1.52211,1.296111 -1.47795,1.331017 -1.43518,1.365294 -1.39375,1.398943 -1.353696,1.431963 -1.315008,1.464354 -1.277685,1.496115 -1.241729,1.527248 -1.207138,1.557751 -1.173913,1.587627 -1.142054,1.616872 -1.111561,1.645489 -1.082433,1.673477 -1.054672,1.700836 -1.028277,1.727566 -1.003246,1.753667 -0.979583,1.779139 -0.957285,1.803982 -0.933858,1.800078 -0.907623,1.782177 -0.883094,1.794459 -0.858397,1.806403 -0.833541,1.818007 -0.808526,1.829268 -0.78336,1.840186 -0.758046,1.850758 -0.73259,1.86098 -0.706995,1.870854 -0.681269,1.880375 -0.655413,1.889543 -0.629435,1.898354 -0.500646,1.723602 -0.432663,2.143162 -0.465661,2.611233 -0.487723,2.721962 -0.498851,2.475351 -0.499042,1.871401 -0.488299,0.910109 -0.295238,-0.07858" />
  <path
     stroke-width="1.79462"
     stroke="#000000"
     id="16"
     fill="none"
     d="m 105.91746,8.7434798 -1.37405,-0.035502 -1.455,0.28184 -1.52316,0.569742 -1.578522,0.8282042 -1.62107,1.057228 -1.650825,1.256812 -1.667778,1.426955 -1.671932,1.567659 -1.663285,1.678923 -1.641838,1.760748 -1.60759,1.813134 -1.560542,1.836079 -1.500695,1.829584 -1.428045,1.793651 -1.342597,1.728278 -1.244347,1.633464 -1.133298,1.509212 -1.009447,1.355519 -0.872798,1.172387 -0.949287,1.279145 -1.064447,1.518508 -1.030368,1.568148 -0.996378,1.615375 -0.962479,1.660193 -0.928669,1.702598 -0.894948,1.742594 -0.861317,1.780179 -0.827775,1.815351 -0.794323,1.848114 -0.76096,1.878465 -0.727688,1.906406 -0.694503,1.931935 -0.66141,1.955054 -0.628404,1.975761 -0.59549,1.994058 -0.562664,2.009943 -0.529927,2.023418 -0.497282,2.034482 -0.464724,2.043134 -0.432256,2.049376 -0.399878,2.053207 -0.36759,2.054627 -0.33539,2.053635 -0.303281,2.050234 -0.271261,2.04442 -0.23933,2.036197 -0.20749,2.025561 -0.175737,2.012515 -0.144076,1.997059 -0.112502,1.97919 -0.08102,1.958912 -0.04963,1.936222 -0.01832,1.911121 0.01289,1.883606 0.04402,1.85369 0.07366,1.79356" />
  <path
     stroke-width="1.79462"
     stroke="#000000"
     id="17"
     fill="none"
     d="m 56.86461,100.71763 0.521182,2.03188 0.521069,1.97002 0.510759,1.92202 0.490251,1.88786 0.459544,1.86755 0.418641,1.86108 0.367539,1.86847 0.30624,1.8897 0.234742,1.92478 0.153047,1.9737 0.06115,2.03648 -0.04094,2.1131 -0.15205,2.19107 -0.179273,1.47602 -0.27476,1.63889 -0.368763,1.77674 -0.461281,1.88957 -0.552312,1.97741 -0.64186,2.04023 -0.729922,2.07805 -0.816499,2.09085 -0.901591,2.07865 -0.985198,2.04144 -1.06732,1.97922 -1.147956,1.89198 -1.227108,1.77975 -1.304774,1.6425 -1.380955,1.48024 -1.455652,1.29298 -1.528863,1.08071 -1.600589,0.84342 -1.67083,0.58113 -1.651188,0.28637" />
  <path
     stroke-width="1.79462"
     stroke="#000000"
     id="18"
     fill="none"
     d="m 62.99622,119.87883 0.0018,1.94309 -0.107013,1.95013 -0.213284,1.95179 -0.317027,1.94806 -0.418242,1.93895 -0.516927,1.92445 -0.613085,1.90458 -0.706714,1.87933 -0.797815,1.84868 -0.886388,1.81267 -0.972431,1.77126 -1.055947,1.72447 -1.136934,1.6723 -1.215393,1.61475 -1.291323,1.55182 -1.364726,1.4835 -1.435599,1.4098 -1.503944,1.33073 -1.569761,1.24625 -1.633049,1.15642 -1.693809,1.06118 -1.752041,0.96057 -1.807744,0.85458 -1.51903,0.61672" />
  <path
     stroke-width="1.79462"
     stroke="#000000"
     id="19"
     fill="none"
     d="m 9.344649,131.37562 -1.493887,1.36188 -1.054933,1.59144 -0.651679,1.77322 -0.284128,1.90721 0.047723,1.99344 0.343873,2.03189 0.604321,2.02255 0.829069,1.96544 1.018115,1.86055 1.171461,1.70789 1.289104,1.50744 1.371047,1.25922 0.642171,0.47846" />
  <path
     stroke-width="1.79462"
     stroke="#000000"
     id="20"
     fill="none"
     d="m 67.59492,81.556309 -0.248069,1.984556 -0.24807,1.984555 -0.248069,1.984556 -0.24807,1.984556 -0.248069,1.984556 -0.24807,1.984555 -0.248069,1.984556 -0.24807,1.984556 -0.248069,1.984556 -0.24807,1.984559 -0.248069,1.98455 -0.24807,1.98456 -0.248069,1.98455 -0.24807,1.98456 -0.248069,1.98456 -0.24807,1.98455 -0.248069,1.98456 -0.24807,1.98455 -0.248069,1.98456 -0.24807,1.98455 -0.248069,1.98456 -0.24807,1.98455 -0.24807,1.98456 -0.248069,1.98456 -0.177942,1.42353" />
  <path
     stroke-width="1.79462"
     stroke="#000000"
     id="21"
     fill="none"
     d="m 97.4865,27.904755 -1.494557,1.22382 -1.456135,1.275155 -1.417654,1.324771 -1.379117,1.372665 -1.340522,1.418842 -1.30187,1.463299 -1.263161,1.506037 -1.224394,1.547054 -1.185569,1.586353 -1.146689,1.623932 -1.107749,1.659792 -1.068754,1.693932 -1.029701,1.726353 -0.990589,1.757055 -0.951422,1.786036 -0.912197,1.813299 -0.872914,1.838842 -0.833575,1.862666 -0.794177,1.884771 -0.754723,1.905155 -0.715211,1.92382 -0.675642,1.940767 -0.636016,1.955993 -0.596332,1.969501 -0.556591,1.981288 -0.516793,1.991356 -0.476937,1.999706 -0.437025,2.006335 -0.397054,2.011245 -0.357027,2.014435 -0.316942,2.015907 -0.2768,2.015659 -0.2366,2.013691 -0.196344,2.010004 -0.15603,2.004597 -0.115658,1.997471 -0.07523,1.988626 -0.03474,1.978062 0.0058,1.965777 0.0464,1.951773 0.08706,1.936053 0.127773,1.91861 0.168545,1.89944 0.209375,1.87857 0.249851,1.88627 0.274703,1.92646 0.286926,1.95573 0.28846,1.98023 0.279307,1.99991 0.259466,2.01481 0.228937,2.02492 0.187721,2.03024 0.135815,2.03076 0.07322,2.0265 -5.8e-5,2.01743 -0.08403,2.00358 -0.178682,1.98493 -0.284027,1.9615 -0.400059,1.93327 -0.526779,1.90025 -0.768249,2.16156 -0.914006,2.10938 -1.016087,1.96004 -1.110015,1.82159 -1.195795,1.694 -1.273424,1.57729 -1.342902,1.47146 -1.404229,1.3765 -1.457407,1.29242 -1.502435,1.2192 -1.539311,1.15688 -1.568037,1.10542 -1.588614,1.06484 -1.601039,1.03513 -1.605314,1.0163 -1.601439,1.00834 -1.589414,1.01126 -1.569237,1.02505 -1.141889,0.77274" />
  <path
     stroke-width="1.79462"
     stroke="#000000"
     id="22"
     fill="none"
     d="m 21.607904,163.56657 1.978676,0.1013 2.000711,0.17336 2.012983,0.20794 2.015494,0.20505 2.008242,0.16468 1.991227,0.0868 1.964449,-0.0285 2.161971,-0.21281 2.096866,-0.41961 1.962021,-0.59836 1.845949,-0.75325 1.748652,-0.88422 1.670129,-0.99131 1.610382,-1.0745 1.569408,-1.13379 1.54721,-1.1692 1.543786,-1.18071 1.559136,-1.16832 1.593261,-1.13205 1.646161,-1.07187 1.717836,-0.98781 1.808284,-0.87984 1.917508,-0.74799 0.950924,-0.30115" />
  <path
     stroke-width="1.79462"
     stroke="#000000"
     id="23"
     fill="none"
     d="m 131.9768,7.2105758 -1.8256,-0.031804 -1.82604,0.130441 -1.82401,0.283934 -1.81952,0.428675 -1.81259,0.564665 -1.8032,0.691903 -1.79135,0.8103892 -1.77704,0.920124 -1.76029,1.021107 -1.74108,1.113339 -1.71942,1.196818 -1.69529,1.271546 -1.66872,1.337522 -1.63968,1.394746 -1.6082,1.44322 -1.57427,1.482941 -1.53786,1.51391 -1.49902,1.536128 -1.457712,1.549594 -1.413952,1.554308 -1.367737,1.550271 -1.319069,1.537483 -1.267944,1.515941 -1.214366,1.48565 -1.158332,1.446605 -1.099844,1.39881 -1.063945,1.375005 -1.192832,1.576389 -1.175807,1.598765 -1.1567,1.620711 -1.135514,1.642229 -1.112246,1.663318 -1.086899,1.683978 -1.05947,1.704211 -1.029962,1.724014 -0.998373,1.743389 -0.964703,1.762334 -0.928954,1.780853 -0.891123,1.798941 -0.851212,1.816602 -0.809221,1.833833 -0.765149,1.850636 -0.718997,1.867011 -0.670765,1.882956 -0.620451,1.898474 -0.568058,1.913562 -0.513583,1.928223 -0.458478,1.975538 -0.367217,2.001329 -0.270328,1.994806 -0.180514,1.988965 -0.09777,1.983806 -0.02211,1.979329 0.04648,1.975533 0.107992,1.97242 0.162431,1.969989 0.209793,1.968238 0.250082,1.96717 0.283294,1.966784 0.309433,1.96708 0.328494,1.968057 0.340482,1.96972 0.345393,1.97205 0.343231,1.97508 0.333992,1.97879 0.317679,1.98317 0.29429,1.98824 0.263825,1.99399 0.226287,2.00042 0.181672,2.00754 0.129983,2.01533 0.04609,1.5908 -0.02647,1.66265 -0.09678,1.79489 -0.168381,1.90763 -0.241283,2.00081 -0.315482,2.07446 -0.390979,2.1286 -0.467774,2.16319 -0.545865,2.17825 -0.625255,2.17377 -0.705943,2.14978 -0.787927,2.10624 -0.871211,2.04318 -0.95579,1.96057 -1.041669,1.85845 -1.128844,1.73678 -1.217318,1.59559 -1.307088,1.43487 -1.398157,1.2546 -1.490523,1.05481 -1.584187,0.83549 -1.679149,0.59664 -1.775407,0.33825 -1.872965,0.0603 -1.971819,-0.23712 -0.399455,-0.0833" />
  <path
     stroke-width="1.79462"
     stroke="#000000"
     id="24"
     fill="none"
     d="m 128.56481,136.09878 -2.32758,0.41155 -2.24925,0.81438 -2.12447,1.14345 -1.95321,1.39881 -1.73549,1.58043 -1.4713,1.68831 -1.16064,1.72246 -0.80353,1.68289 -0.39994,1.56956 0.0501,1.38252 0.54663,1.12174 1.08961,0.78723 1.67906,0.37898 2.31498,-0.103 0.72168,-0.11663" />
  <path
     stroke-width="1.79462"
     stroke="#000000"
     id="25"
     fill="none"
     d="m 125.00872,153.55664 -3.08808,-0.57113 -2.27628,-0.84707 -1.54156,-1.08216 -0.88392,-1.27644 -0.30336,-1.42988 0.20014,-1.5425 0.62654,-1.6143 0.97587,-1.64525 1.24813,-1.63539 1.44331,-1.5847 1.56141,-1.49318 1.60243,-1.36083 1.56637,-1.18765 1.00264,-0.68618" />
  <path
     stroke-width="1.79462"
     stroke="#000000"
     id="26"
     fill="none"
     d="m 15.476259,129.84272 -1.759272,0.84387 -1.612993,1.09946 -1.457254,1.32396 -1.292058,1.51733 -1.117407,1.67961 -0.933297,1.81079 -0.739729,1.91085 -0.536706,1.97982 -0.324224,2.01767 -0.102286,2.02443 0.12911,2.00008 0.369962,1.94462 0.620274,1.85806 0.88004,1.7404 0.315354,-1.83616 -0.104046,-1.22061" />
  <path
     stroke-width="1.79462"
     stroke="#000000"
     id="27"
     fill="none"
     d="m 23.140763,124.47755 -1.991522,0.36534 -1.893129,0.64747 -1.788416,0.9042 -1.677383,1.13553 -1.560031,1.34146 -1.43636,1.52198 -1.306369,1.67712 -1.17006,1.80685 -1.027431,1.91118 -0.878482,1.99011 -0.723215,2.04365 -0.561628,2.07178 -0.393721,2.07452 -0.219496,2.05185 -0.03895,2.00379 0.147913,1.93032 0.341097,1.83147 0.5406,1.7072 0.746422,1.55755 0.958563,1.38248 1.177025,1.18203 1.401804,0.95617 1.632904,0.70491 1.870322,0.42825 2.114061,0.1262 2.364117,-0.20126 0.420242,-0.0674" />
  <path
     stroke-width="1.79462"
     stroke="#000000"
     id="28"
     fill="none"
     d="m 119.32109,0.87436983 -1.94881,0.44932997 -1.93609,0.501302 -1.92199,0.552915 -1.90651,0.604133 -1.88967,0.654917 -1.87147,0.705234 -1.85194,0.755044 -1.83107,0.804316 -1.80891,0.853011 -1.78544,0.901096 -1.760692,0.948536 -1.734689,0.995296 -1.707443,1.0413452 -1.678975,1.086649 -1.649306,1.131173 -1.618455,1.17489 -1.586446,1.217764 -1.553302,1.259767 -1.519046,1.300869 -1.483703,1.34104 -1.447298,1.38025 -1.409857,1.418473 -1.371407,1.45568 -1.331974,1.491846 -1.29159,1.526943 -1.250281,1.560949 -1.208076,1.593836 -1.165007,1.625583 -1.121104,1.656167 -1.076398,1.685564 -1.030923,1.713756 -0.98471,1.740721 -0.93779,1.76644 -0.890201,1.790894 -0.815727,1.825947 -0.763357,1.848526 -0.713634,1.868284 -0.663401,1.886707 -0.612691,1.903778 -0.561544,1.919487 -0.509995,1.933821 -0.458081,1.946773 -0.405839,1.95833 -0.353306,1.968486 -0.300521,1.977232 -0.247521,1.984564 -0.194342,1.990476 -0.141026,1.994962 -0.08761,1.99802 -0.03413,1.999649 0.01938,1.999847 0.07287,1.998612 0.126307,1.995948 0.179655,1.991855 0.232876,1.986336 0.285928,1.979395 0.338777,1.971039 0.391383,1.96127 0.443708,1.950098 0.495718,1.937531 0.54737,1.923577 0.598633,1.908245 0.649465,1.891549 0.699834,1.873498 0.749702,1.854109 0.799032,1.83338 0.847792,1.81136 0.895943,1.78803 0.201716,0.3867" />
  <path
     stroke-width="1.79462"
     stroke="#000000"
     id="29"
     fill="none"
     d="m 112.21934,3.3893468 -1.98506,0.162873 -1.95938,0.283719 -1.93379,0.397149 -1.9083,0.503157 -1.88292,0.601749 -1.85763,0.692921 -1.83244,0.776675 -1.807351,0.853009 -1.782363,0.921925 -1.757474,0.983423 -1.732685,1.0375022 -1.707995,1.084161 -1.683407,1.123403 -1.658916,1.155225 -1.634527,1.179629 -1.610236,1.196612 -1.594035,1.212082 -1.583652,1.231646 -1.570511,1.252332 -1.554613,1.274141 -1.535955,1.297071 -1.514541,1.321125 -1.490368,1.3463 -1.463436,1.372598 -1.433748,1.400018 -1.401301,1.42856 -1.366095,1.458224 -1.328133,1.489011 -1.287411,1.520921 -1.243933,1.553951 -1.197695,1.588105 -1.1487,1.623381 -1.096947,1.65978 -1.042435,1.697299 -0.985166,1.735942 -0.923616,1.772959 -0.857912,1.803471 -0.792719,1.831674 -0.72816,1.857735 -0.664236,1.881659 -0.600947,1.903442 -0.538293,1.923086 -0.476274,1.94059 -0.41489,1.955955 -0.354141,1.96918 -0.294027,1.980266 -0.234548,1.989212 -0.175704,1.996019 -0.117495,2.000686 -0.05992,2.003213 -0.003,2.003602 0.05332,2.00185 0.108974,1.997935 0.162791,1.99227 0.214776,1.986084 0.265477,1.979257 0.314894,1.97179 0.363026,1.963683 0.409877,1.954936 0.455442,1.945547 0.499723,1.935519 0.542722,1.924851 0.584436,1.913542 0.624866,1.901591 0.664014,1.889 0.701876,1.87578 0.738455,1.8619 0.77375,1.84739 0.807762,1.83225 0.84049,1.81645 0.468102,0.97632" />
  <path
     stroke-width="1.79462"
     stroke="#000000"
     id="30"
     fill="none"
     d="m 72.62933,24.946121 -1.170746,1.621475 -1.133803,1.64752 -1.096278,1.672723 -1.058196,1.697072 -1.019571,1.720554 -0.980426,1.743156 -0.940781,1.764869 -0.900654,1.785679 -0.860068,1.805579 -0.819042,1.824554 -0.777598,1.842599 -0.735757,1.859702 -0.693539,1.875855 -0.650968,1.891051 -0.608064,1.905278 -0.56485,1.918535 -0.521346,1.93081 -0.477577,1.942099 -0.433564,1.952397 -0.389328,1.961696 -0.344895,1.969995 -0.300285,1.977285 -0.255522,1.983567 -0.210627,1.988836 -0.165627,1.993087 -0.12054,1.996322 -0.07539,1.998536 -0.03021,1.999729 0.01499,1.999901 0.06019,1.999052 0.105352,1.99718 0.150462,1.99429 0.195494,1.99038 0.240427,1.985453 0.285236,1.979513 0.329901,1.97256 0.374396,1.964601 0.4187,1.955638 0.462791,1.945676 0.506645,1.934715 0.550241,1.92278 0.593554,1.90985 0.636566,1.89595 0.679251,1.88107 0.72159,1.86525 0.76356,1.84846 0.80514,1.83073 0.84631,1.81207 0.887046,1.79248 0.927329,1.77197 0.967139,1.75056 1.006455,1.72826 0.893762,1.46324" />
</svg>
