<?xml version="1.0" encoding="UTF-8" standalone="no"?>
<svg
   xmlns:dc="http://purl.org/dc/elements/1.1/"
   xmlns:cc="http://creativecommons.org/ns#"
   xmlns:rdf="http://www.w3.org/1999/02/22-rdf-syntax-ns#"
   xmlns:svg="http://www.w3.org/2000/svg"
   xmlns="http://www.w3.org/2000/svg"
   xmlns:sodipodi="http://sodipodi.sourceforge.net/DTD/sodipodi-0.dtd"
   xmlns:inkscape="http://www.inkscape.org/namespaces/inkscape"
   inkscape:version="1.0 (4035a4fb49, 2020-05-01)"
   sodipodi:docname="omega2.svg"
   id="svg34"
   width="170.15465"
   viewBox="0 0 170.15465 172.73338"
   version="1.1"
   height="172.73338">
  <metadata
     id="metadata38">
    <rdf:RDF>
      <cc:Work
         rdf:about="">
        <dc:format>image/svg+xml</dc:format>
        <dc:type
           rdf:resource="http://purl.org/dc/dcmitype/StillImage" />
      </cc:Work>
    </rdf:RDF>
  </metadata>
  <sodipodi:namedview
     inkscape:current-layer="svg34"
     inkscape:window-maximized="0"
     inkscape:window-y="0"
     inkscape:window-x="0"
     inkscape:cy="86.750041"
     inkscape:cx="85.750667"
     inkscape:zoom="4.9418605"
     showgrid="false"
     id="namedview36"
     inkscape:window-height="480"
     inkscape:window-width="820"
     inkscape:pageshadow="2"
     inkscape:pageopacity="0"
     guidetolerance="10"
     gridtolerance="10"
     objecttolerance="10"
     borderopacity="1"
     bordercolor="#666666"
     pagecolor="#ffffff" />
  <defs
     id="defs4">
    <style
       id="style2"
       type="text/css"><![CDATA[
	.background { fill: white; }
	.line { stroke: firebrick; stroke-width: .1mm; }
	.blacksquare { fill: indigo; }
	.whitesquare { fill: white; }
]]></style>
  </defs>
  <path
     stroke-width="1.5"
     stroke="#000000"
     id="1"
     fill="none"
     d="m 15.878607,131.59571 -1.398235,1.42989 -1.350989,1.47462 -1.302312,1.51777 -1.252257,1.55932 -1.2008779,1.59923 -1.148227,1.63745 -1.094362,1.67392 -1.039339,1.70863 -0.983215,1.74154 0.170764,1.87194 0.996286,1.83483 1.117552,1.70224 1.231232,1.57106 1.337328,1.44128 1.4358369,1.31292 1.526761,1.18596 1.6101,1.06043 1.685852,0.93629 1.754019,0.81357 1.814601,0.69227 1.867597,0.57236 1.913007,0.45387 1.950832,0.3368 1.981071,0.22113 2.003725,0.10687 2.018792,-0.006 2.026275,-0.11741 2.026172,-0.22744 2.018482,-0.33605 2.003209,-0.44325 1.980348,-0.54905 1.949903,-0.65344 1.743599,-0.6942 1.737296,-0.81256 1.778738,-0.94166 1.79308,-1.05266 1.780322,-1.14559 1.740462,-1.22041 1.673504,-1.27716 1.579445,-1.31582 1.458285,-1.33639 1.310026,-1.33886 1.000083,-1.18699 0.835176,-1.37744 0.883236,-1.8131 0.874976,-2.13455 0.810393,-2.34181 0.689487,-2.43488 0.512261,-2.41375 0.27871,-2.27841 -0.01116,-2.0289 -0.357355,-1.66517 -0.759871,-1.18726 -1.028069,-0.5542" />
  <path
     stroke-width="1.5"
     stroke="#000000"
     id="2"
     fill="none"
     d="m 79.349981,38.602779 -0.20861,0.514392 -0.3077,0.708888 -0.399562,0.89298 -0.484198,1.066668 -0.561606,1.229952 -0.631789,1.382832 -0.694745,1.525309 -0.750473,1.657381 -0.798976,1.77905 -0.840251,1.890316 -0.8743,1.991176 -0.901122,2.081634 -0.920718,2.161687 -0.933086,2.231337 -0.938229,2.290582 -0.936144,2.339425 -0.926832,2.377863 -0.910295,2.405896 -0.88653,2.423528 -0.855539,2.430754 -0.81732,2.427577 -0.771876,2.413995 -0.719204,2.390011 -0.659307,2.355622 -0.592181,2.310829 -0.51783,2.255633 -0.436252,2.190033 -0.347447,2.114028 -0.251416,2.027621 -0.148157,1.930809 -0.03767,1.823593 0.08004,1.705974 0.204978,1.577946 0.337143,1.43953 0.653592,1.81421 0.830007,1.80176 0.925046,1.77031 0.952642,1.7658 0.912794,1.78825 0.805504,1.83764 0.630771,1.914 0.480558,1.99502 0.401933,2.00335 0.313137,2.00459 0.214229,2.00046 0.105211,1.99091 -0.01392,1.97597 -0.143158,1.95564 -0.282507,1.92992 -0.431969,1.8988 -0.591541,1.86228 -0.761223,1.82038 -0.941016,1.77306 -1.13092,1.72037 -0.466865,0.61988" />
  <path
     stroke-width="1.5"
     stroke="#000000"
     id="3"
     fill="none"
     d="m 79.322721,42.197603 0.595162,-1.664313 0.692662,-1.681292 0.786171,-1.692138 0.875689,-1.696852 0.961215,-1.695432 1.042749,-1.68788 1.120292,-1.674195 1.193843,-1.654378 1.263403,-1.628427 1.328971,-1.596345 1.390547,-1.558129 1.448132,-1.51378 1.501726,-1.4633 1.551327,-1.406686 1.596938,-1.343939 1.638556,-1.27506 1.676183,-1.200049 1.709823,-1.118904 1.73946,-1.031626 1.76512,-0.938217 1.78677,-0.838674 1.80445,-0.732998 1.8006,-0.615765 1.41459,-0.398014 1.60716,-0.3798832 1.77689,-0.355739 1.92378,-0.325581 2.04782,-0.289411 2.14901,-0.247226 2.22736,-0.199029 2.28286,-0.144818 2.31552,-0.084595 2.32533,-0.018357 2.3123,0.053893 2.27641,0.132156 2.21768,0.216433 2.13612,0.306724 2.03169,0.403027 1.90443,0.505343 1.75432,0.6136732 1.58136,0.728016 1.38556,0.848373 1.16691,0.974742 1.10297,1.262959 0.9693,1.446752 0.83272,1.604545 0.70166,1.74494 0.57611,1.86794 0.45606,1.973542 0.34154,2.061747 0.23254,2.132556 0.12903,2.185968 0.0311,2.221982 -0.0614,2.240601 -0.14837,2.241821 -0.2298,2.225646 -0.30574,2.192074 -0.37615,2.141104 -0.44104,2.072737 -0.50043,1.986975 -0.5543,1.883815 -0.60266,1.763258 -0.6455,1.625305 -0.68282,1.469954 -0.82623,1.505399 -1.00846,1.650737 -1.07833,1.608915 -1.14407,1.569238 -1.20572,1.531705 -1.26325,1.496314 -1.31665,1.463067 -1.36596,1.431965 -1.41115,1.403005 -1.45222,1.376189 -1.48918,1.351518 -1.52202,1.328988 -1.55077,1.308604 -1.57538,1.290362 -1.5959,1.274265 -1.61229,1.26031 -1.62457,1.2485 -1.63275,1.238833 -1.6368,1.23131 -1.63675,1.22593 -1.63257,1.222694 -1.6243,1.221601 -1.6119,1.222653 -1.59539,1.225847 -1.57477,1.231186 -1.55004,1.238667 -1.52119,1.248293 -1.48823,1.260062 -1.22743,1.076336 -1.20062,1.091798 -1.24355,1.168873 -1.28083,1.242297 -1.31244,1.312065 -1.33839,1.378179 -1.35869,1.440641 -1.373305,1.499452 -1.382268,1.5546 -1.385566,1.6061 -1.383202,1.65395 -1.375175,1.69814 -1.361485,1.73868 -1.34213,1.77556 -1.317115,1.8088 -1.286435,1.83837 -1.250092,1.8643 -1.208087,1.88656 -1.160419,1.90519 -1.107086,1.92014 -1.048093,1.93146 -0.983434,1.93911 -0.913114,1.94311 -0.837131,1.94346 -0.755483,1.94015 -0.668174,1.93319 -0.575201,1.92258 -0.476566,1.90831 -0.372266,1.89039 -0.262305,1.86882 -0.14668,1.84359 -0.02539,1.8147 0.101559,1.78217 0.234173,1.74598 0.372449,1.70614 0.516389,1.66264 0.623567,1.50814 0.776493,1.19784 1.117323,1.26319 1.415709,1.30277 1.671649,1.31654 1.885144,1.30455 2.056192,1.26677 2.184797,1.20321 2.270954,1.11387 2.314667,0.99874 2.315934,0.85783 2.274756,0.69114 2.191137,0.49867 2.06506,0.28041 1.89655,0.0364 1.68559,-0.23345 1.43218,-0.52905 1.13633,-0.85044 0.79804,-1.1976 0.41729,-1.57056 0.0505,-1.10903" />
  <path
     stroke-width="1.5"
     stroke="#000000"
     id="4"
     fill="none"
     d="m 86.529901,164.51701 1.850767,0.27849 1.888666,0.28026 1.922894,0.27884 1.953453,0.27425 1.980339,0.26648 2.003556,0.25551 2.023104,0.24137 2.03898,0.22405 2.05118,0.20354 2.05972,0.17985 2.06457,0.15298 2.06578,0.12293 2.06329,0.0897 2.05714,0.0533 2.04733,0.0137 2.03383,-0.0291 2.01667,-0.0751 1.99585,-0.12422 1.97134,-0.17656 1.94316,-0.23208 1.91133,-0.29077 1.8758,-0.35264 1.99301,-0.46064 2.14967,-0.65007 1.98916,-0.76726 1.85259,-0.8679 1.73998,-0.95196 1.65131,-1.01947 1.58658,-1.07042 1.5458,-1.10482 1.52896,-1.12265 1.53607,-1.12393 1.56713,-1.10864 0.0471,-0.0324" />
  <path
     stroke-width="1.5"
     stroke="#000000"
     id="5"
     fill="none"
     d="m 12.188409,131.59571 -1.745969,1.21745 -1.6009089,1.31741 -1.436302,1.40677 -1.252145,1.48558 -1.04844,1.5538 -0.825188,1.61145 -0.582387,1.6585 -0.320037,1.695 -0.038139,1.7209 0.263306,1.73624 0.5843,1.74098 0.924843,1.73516 1.284933,1.71876 1.664573,1.69178 2.0637599,1.65422 0.587729,0.4113" />
  <path
     stroke-width="1.5"
     stroke="#000000"
     id="6"
     fill="none"
     d="m 121.4572,166.91854 2.35123,0.29458 2.3473,0.10138 2.33068,-0.0803 2.30137,-0.25027 2.25936,-0.40874 2.20465,-0.5556 2.13724,-0.69091 2.05714,-0.81461 1.96434,-0.92676 1.85884,-1.0273 1.74064,-1.11627 1.60975,-1.19367 1.46615,-1.25948 1.30987,-1.3137 1.14088,-1.35636 0.9592,-1.38742 0.76481,-1.40692 0.55774,-1.41482 0.33796,-1.41114 0.10548,-1.3959 -0.13968,-1.36905 -0.39756,-1.33065 -0.66812,-1.28064 -0.95139,-1.21907 -1.24734,-1.14592 -1.55601,-1.06117 -1.87736,-0.96486 -2.21142,-0.85695 -2.55816,-0.73748 -2.91762,-0.60642 -2.41867,-0.34582 -1.99335,-0.1303 -2.16043,-0.0118 -2.27717,0.10746 -2.34357,0.22736 -2.35966,0.34795 -2.32541,0.46922 -2.24081,0.59118 -2.1059,0.71383 -1.92066,0.83716 -1.68506,0.96117 -1.39916,1.08587 -1.06291,1.21126 -0.67634,1.33733 -0.23943,1.46408 0.24782,1.59153 0.72249,1.51002 1.146,1.27308 1.50513,1.04736 1.79459,0.82079 2.01443,0.59337 2.1646,0.36512 2.24513,0.136 2.25601,-0.094 2.19725,-0.32474 2.06884,-0.55639 1.87077,-0.78887 1.60307,-1.02221 1.26571,-1.25638 0.5237,-0.78506" />
  <path
     stroke-width="1.5"
     stroke="#000000"
     id="7"
     fill="none"
     d="m 115.97842,167.39886 2.05427,0.11767 2.10045,0.04 2.13476,-0.0378 2.15719,-0.11587 2.16773,-0.19408 2.16639,-0.27249 2.15317,-0.35108 2.12806,-0.42985 2.09107,-0.50881 2.0422,-0.58795 1.98145,-0.66728 1.9088,-0.7468 1.82428,-0.8265 1.72788,-0.90639 1.61959,-0.98646 1.49942,-1.06671 1.36736,-1.14716 1.22343,-1.22778 1.06761,-1.3086 0.8999,-1.38959 0.76817,-1.63802 0.42069,-1.74111 0.017,-1.69916 -0.35916,-1.64332 -0.70783,-1.57361 -1.02898,-1.49002 -1.32263,-1.39256 -1.58879,-1.2812 -1.82742,-1.15599 -2.03856,-1.01688 -2.2222,-0.86391 -2.37832,-0.69705 -1.77876,-0.37882 -1.85402,-0.27751 -1.98101,-0.19468 -2.08025,-0.11081 -2.15173,-0.0259 -2.19544,0.06 -2.21139,0.14701 -2.19959,0.23503 -2.16003,0.32409 -2.0927,0.41418 -1.99761,0.50532 -1.87476,0.59749 -1.72416,0.6907 -1.54578,0.78495 -1.33966,0.88023 -1.66935,1.50238 -1.20636,1.63902 -0.64746,1.69968 -0.0528,1.73025 0.57745,1.73071 1.24348,1.7011 1.69356,1.39908 1.90386,0.85154 2.11346,0.4886 2.22627,0.24185 2.24227,0.11128 2.16149,0.0969 1.98389,0.19866 1.70952,0.41662 1.33833,0.75077 0.47992,0.51021" />
  <path
     stroke-width="1.5"
     stroke="#000000"
     id="8"
     fill="none"
     d="m 74.517941,143.02744 1.43561,2.02874 1.358768,1.90731 1.29847,1.78848 1.254716,1.67228 1.227506,1.55872 1.216841,1.44777 1.222719,1.33945 1.245141,1.23375 1.284108,1.13069 1.339619,1.03024 1.411673,0.93242 1.500272,0.83723 1.605415,0.74465 1.727103,0.65472 1.865333,0.56739 2.020108,0.4827 2.191428,0.40063 2.379289,0.32119 2.33104,0.22614 2.00061,0.15062 2.01412,0.11241 2.02211,0.0675 2.02458,0.0161 2.02154,-0.0421 2.01297,-0.10691 1.9989,-0.17837 1.97929,-0.25647 1.95417,-0.34123 1.92355,-0.43264 1.88738,-0.53071 1.09818,-0.36314" />
  <path
     stroke-width="1.5"
     stroke="#000000"
     id="9"
     fill="none"
     d="m 136.17931,72.372966 -1.14383,0.830127 -1.22201,0.87035 -1.29522,0.909645 -1.3635,0.948015 -1.4268,0.985458 -1.48515,1.021974 -1.53856,1.057563 -1.58699,1.092227 -1.63048,1.125963 -1.66902,1.158773 -1.70258,1.190657 -1.73121,1.221613 -1.75487,1.251644 -1.77358,1.280748 -1.78732,1.308924 -1.79613,1.336176 -1.79997,1.362499 -1.79885,1.387898 -1.79278,1.412368 -1.78175,1.435912 -1.76577,1.45853 -1.74484,1.480222 -1.718942,1.500988 -1.688092,1.52082 -1.652287,1.53974 -1.611526,1.55772 -1.56581,1.57478 -1.515139,1.59091 -1.459511,1.60612 -1.398927,1.62039 -1.333389,1.63375 -1.262894,1.64618 -1.187444,1.65767 -1.107037,1.66825 -1.021676,1.67789 -0.931359,1.68661 -0.836085,1.6944 -0.735857,1.70127 -0.630672,1.70721 -0.520532,1.71223 -0.405437,1.71631 -0.285384,1.71947 -0.160378,1.7217 -0.03041,1.72301 0.104504,1.7234 0.08732,0.73849" />
  <path
     stroke-width="1.5"
     stroke="#000000"
     id="10"
     fill="none"
     d="m 78.611941,48.935332 1.274065,-1.599942 1.267389,-1.602453 1.263102,-1.602059 1.261206,-1.598757 1.261699,-1.592551 1.264583,-1.583438 1.269857,-1.571419 1.27752,-1.556494 1.287574,-1.538663 1.300017,-1.517927 1.314851,-1.494285 1.332075,-1.467736 1.351688,-1.438281 1.373692,-1.405921 1.398086,-1.370654 1.424869,-1.332482 1.454046,-1.291403 1.48561,-1.24742 1.51956,-1.200529 1.5559,-1.150733 1.59464,-1.09803 1.63576,-1.042423 1.67927,-0.983908 1.72518,-0.922488 1.77347,-0.858162 1.82416,-0.790931 1.87723,-0.720792 1.93269,-0.647748 1.99055,-0.571799 2.05079,-0.492943 2.11342,-0.411181 1.82399,-0.268292 1.8942,-0.179491 2.03152,-0.09893 2.12117,-0.008 2.16313,0.09324 2.15743,0.204842 2.10405,0.326794 2.003,0.459092 1.85427,0.601739 1.65786,0.754732 1.60219,1.036376 1.60646,1.335606 1.40751,1.475862 1.21264,1.598966 1.02185,1.704918 0.83514,1.793721 0.6525,1.865372 0.47394,1.919872 0.29945,1.957221 0.12905,1.977419 -0.0373,1.980467 -0.19953,1.966362 -0.35771,1.935108 -0.4657,1.784621 -0.53487,1.771478 -0.61179,1.830777 -0.68086,1.876711 -0.74213,1.90928 -0.79556,1.928483 -0.84119,1.934321 -0.87899,1.926792 -0.90896,1.9059 -0.93111,1.87164 -0.94546,1.824016 -0.95196,1.763026 -0.95066,1.688671 -0.94152,1.60095 -1.00537,1.597487 -1.1099,1.57712 -1.19284,1.531839 -1.2685,1.49003 -1.33687,1.451695 -1.39798,1.416832 -1.45178,1.385444 -1.49832,1.357528 -1.53757,1.333086 -1.56954,1.312116 -1.59423,1.29462 -1.61163,1.280597 -1.62175,1.270047 -1.62459,1.26297 -1.62015,1.259367 -1.60843,1.259237 -1.58942,1.262579 -1.56314,1.269395 -1.52957,1.279684 -1.48871,1.293447 -1.44058,1.310682 -1.38517,1.33139 -0.62893,0.632991" />
  <path
     stroke-width="1.5"
     stroke="#000000"
     id="11"
     fill="none"
     d="m 57.208811,103.55028 0.521243,2.0306 0.520717,1.96692 0.509195,1.91817 0.486674,1.88436 0.453155,1.86548 0.408638,1.86154 0.353123,1.87252 0.28661,1.89846 0.209098,1.93931 0.120589,1.9951 0.02108,2.06583 -0.08942,2.15149 -0.167095,1.83145 -0.229077,1.56371 -0.327409,1.71883 -0.42414,1.847 -0.51927,1.94818 -0.612797,2.0224 -0.704722,2.06964 -0.795047,2.08992 -0.88377,2.08322 -0.970891,2.04955 -1.05641,1.98891 -1.140328,1.9013 -1.222644,1.78672 -1.303358,1.64516 -1.382471,1.47663 -1.459982,1.28114 -1.535892,1.05867 -1.610199,0.80923 -1.682906,0.53282 -1.27116,0.19871" />
  <path
     stroke-width="1.5"
     stroke="#000000"
     id="12"
     fill="none"
     d="m 63.113121,122.00118 -3.22e-4,1.94326 -0.11321,1.95035 -0.22337,1.95165 -0.330803,1.94713 -0.43551,1.9368 -0.537489,1.92068 -0.636742,1.89875 -0.733268,1.87101 -0.827067,1.83748 -0.91814,1.79813 -1.006485,1.75297 -1.092104,1.70203 -1.174996,1.64526 -1.255161,1.5827 -1.332599,1.51433 -1.40731,1.44016 -1.479295,1.36017 -1.548553,1.2744 -1.615083,1.18281 -1.678888,1.08541 -1.739965,0.98221 -1.798316,0.87322 -1.732585,0.713" />
  <path
     stroke-width="1.5"
     stroke="#000000"
     id="13"
     fill="none"
     d="m 11.450373,133.07179 -1.4852179,1.3666 -1.030793,1.60308 -0.61487,1.78804 -0.237451,1.92146 0.101466,2.00336 0.40188,2.03374 0.663791,2.01259 0.8871999,1.9399 1.072105,1.8157 1.218509,1.63997 1.326408,1.41271 1.387171,1.12795" />
  <path
     stroke-width="1.5"
     stroke="#000000"
     id="14"
     fill="none"
     d="m 96.324881,33.436508 -1.493818,1.22482 -1.453915,1.278061 -1.413948,1.329449 -1.37392,1.378983 -1.333831,1.426661 -1.293679,1.472485 -1.253465,1.516456 -1.21319,1.558572 -1.172854,1.598833 -1.132454,1.63724 -1.091994,1.673793 -1.051472,1.708492 -1.010887,1.741335 -0.970242,1.772325 -0.929533,1.801461 -0.888764,1.828741 -0.847933,1.854168 -0.807039,1.877741 -0.766085,1.899458 -0.725067,1.919322 -0.683989,1.937331 -0.642849,1.953486 -0.601646,1.967786 -0.560383,1.980233 -0.519056,1.990824 -0.477669,1.999562 -0.436219,2.006445 -0.394709,2.011474 -0.353135,2.014648 -0.3115,2.015968 -0.269804,2.015434 -0.228045,2.013045 -0.186225,2.008802 -0.144343,2.002705 -0.1024,1.994753 -0.06039,1.984947 -0.01833,1.973287 0.0238,1.959766 0.06599,1.94441 0.108247,1.92718 0.150562,1.9081 0.192938,1.88717 0.23591,1.87498 0.268386,1.91588 0.284477,1.94781 0.289042,1.97456 0.28208,1.99617 0.263592,2.01258 0.233576,2.02384 0.192035,2.02992 0.138967,2.03085 0.07437,2.02659 -0.0018,2.01718 -0.0894,2.00258 -0.188572,1.98284 -0.299274,1.95791 -0.421502,1.92782 -0.555257,1.89256 -0.831678,2.22637 -0.944476,2.0649 -1.047863,1.91333 -1.142462,1.77347 -1.228268,1.64534 -1.305287,1.52894 -1.373514,1.42427 -1.432951,1.33133 -1.4836,1.25012 -1.525457,1.18063 -1.558525,1.12288 -1.582802,1.07685 -1.598291,1.04255 -1.604988,1.01998 -1.602896,1.00914 -1.592014,1.01003 -1.572342,1.02265 -1.268773,0.85642" />
  <path
     stroke-width="1.5"
     stroke="#000000"
     id="15"
     fill="none"
     d="m 129.53665,13.509445 -1.82563,-0.02863 -1.82597,0.139514 -1.82368,0.298216 -1.81872,0.447479 -1.81113,0.587305 -1.80088,0.717692 -1.788,0.83864 -1.77245,0.95015 -1.75427,1.052222 -1.73343,1.144854 -1.70995,1.228049 -1.68382,1.301805 -1.65505,1.366122 -1.62362,1.421002 -1.58955,1.466442 -1.55284,1.502444 -1.51346,1.529008 -1.471455,1.546133 -1.426791,1.55382 -1.379482,1.552068 -1.329526,1.540878 -1.276922,1.520249 -1.221672,1.490182 -1.163773,1.450676 -1.103227,1.401733 -1.064317,1.375099 -1.192503,1.576845 -1.174736,1.600063 -1.154726,1.62282 -1.132472,1.645113 -1.107975,1.666946 -1.081233,1.688315 -1.052249,1.709223 -1.021019,1.729668 -0.987548,1.749651 -0.951831,1.769172 -0.913872,1.78823 -0.873668,1.806827 -0.831221,1.824961 -0.786531,1.842632 -0.739595,1.859842 -0.690417,1.87659 -0.638996,1.892875 -0.585329,1.908698 -0.52942,1.924058 -0.473713,1.958059 -0.388479,2.002787 -0.286459,1.995878 -0.192068,1.989705 -0.105309,1.984266 -0.02618,1.979564 0.04532,1.975596 0.109188,1.972364 0.165426,1.969867 0.214033,1.968106 0.255011,1.967079 0.288357,1.966793 0.314074,1.96723 0.332159,1.96841 0.342615,1.97033 0.34544,1.97298 0.340635,1.97637 0.328199,1.98048 0.308133,1.98534 0.280435,1.99094 0.245109,1.99726 0.202152,2.00432 0.151563,2.01212 0.07927,1.75703 -0.0039,1.61546 -0.07654,1.759 -0.150541,1.88148 -0.225941,1.98288 -0.302741,2.06322 -0.38094,2.12251 -0.460539,2.16071 -0.541537,2.17787 -0.623935,2.17394 -0.707733,2.14897 -0.792929,2.10292 -0.879525,2.03581 -0.967521,1.94764 -1.056916,1.83839 -1.147711,1.70809 -1.239904,1.55672 -1.333498,1.38428 -1.428491,1.19079 -1.524884,0.97622 -1.622676,0.74059 -1.721867,0.48389 -1.822458,0.20614 -1.924448,-0.0927 -1.26683,-0.22163" />
  <path
     stroke-width="1.5"
     stroke="#000000"
     id="16"
     fill="none"
     d="m 126.25114,137.61986 -2.32635,0.41977 -2.24317,0.83514 -2.10985,1.171 -1.92643,1.42734 -1.6929,1.60415 -1.40925,1.70146 -1.07549,1.71923 -0.69163,1.6575 -0.25764,1.51624 0.22646,1.29546 0.76066,0.99516 1.34499,0.61535 1.97941,0.15601 1.88785,-0.22431" />
  <path
     stroke-width="1.5"
     stroke="#000000"
     id="17"
     fill="none"
     d="m 122.82687,154.43058 -3.07197,-0.57669 -2.23202,-0.86162 -1.47517,-1.1025 -0.80145,-1.29936 -0.21087,-1.45218 0.2966,-1.56098 0.72093,-1.62573 1.06214,-1.64647 1.32023,-1.62316 1.49518,-1.55583 1.58702,-1.44446 1.59572,-1.28907 1.52131,-1.08964 0.2469,-0.16333" />
  <path
     stroke-width="1.5"
     stroke="#000000"
     id="18"
     fill="none"
     d="m 17.354688,131.59571 -1.756515,0.84899 -1.604225,1.11317 -1.441736,1.34381 -1.269047,1.54091 -1.086158,1.70446 -0.8930719,1.83447 -0.689784,1.93093 -0.476298,1.99384 -0.252612,2.0232 -0.018728,2.01903 0.225357,1.98131 0.47964,1.91004 0.744124,1.80522 0.6951899,-0.062 -0.0249,-1.9922 -0.011649,-0.0681" />
  <path
     stroke-width="1.5"
     stroke="#000000"
     id="19"
     fill="none"
     d="m 24.735076,126.42944 -1.989668,0.37093 -1.887233,0.6629 -1.777984,0.92748 -1.66192,1.16467 -1.539039,1.37447 -1.409344,1.55686 -1.272833,1.71188 -1.129508,1.8395 -0.979367,1.93972 -0.822411,2.01255 -0.6586399,2.058 -0.488053,2.07604 -0.310652,2.0667 -0.126435,2.02996 0.064598,1.96583 0.262445,1.87431 0.467107,1.7554 0.6785849,1.60909 0.896879,1.43539 1.121986,1.2343 1.35391,1.00581 1.592648,0.74994 1.838202,0.46667 2.090572,0.156 2.349755,-0.18204 0.494672,-0.0782" />
  <path
     stroke-width="1.5"
     stroke="#000000"
     id="20"
     fill="none"
     d="m 117.35008,7.4081178 -1.94857,0.450333 -1.93531,0.504291 -1.92056,0.55786 -1.90432,0.611 -1.8866,0.6636662 -1.86745,0.715822 -1.84683,0.767423 -1.82481,0.818434 -1.80136,0.868812 -1.776533,0.91852 -1.750329,0.967518 -1.722775,1.015769 -1.693892,1.063238 -1.663701,1.109884 -1.632225,1.155674 -1.59949,1.200573 -1.56552,1.244544 -1.530342,1.287555 -1.493982,1.329571 -1.456469,1.370562 -1.417832,1.410495 -1.378101,1.449338 -1.337305,1.487063 -1.295478,1.523641 -1.25265,1.559041 -1.208855,1.593239 -1.164128,1.626207 -1.118502,1.65792 -1.072012,1.688352 -1.024695,1.717481 -0.976586,1.745286 -0.927725,1.771742 -0.873591,1.798946 -0.798347,1.833681 -0.747099,1.855151 -0.695274,1.87519 -0.642911,1.893781 -0.590053,1.910911 -0.536738,1.926566 -0.483011,1.940732 -0.42891,1.953402 -0.374477,1.964564 -0.319756,1.974208 -0.264788,1.982329 -0.209616,1.988921 -0.154281,1.993976 -0.09883,1.997492 -0.0433,1.999467 0.01226,1.999898 0.06782,1.998786 0.12332,1.99613 0.178725,1.991933 0.233993,1.9862 0.289081,1.978933 0.343945,1.970138 0.398544,1.959823 0.452835,1.947995 0.506777,1.934662 0.560327,1.919838 0.613445,1.90353 0.666089,1.885755 0.71822,1.86652 0.769795,1.84585 0.820777,1.82375 0.871126,1.80025 0.629426,1.22649" />
  <path
     stroke-width="1.5"
     stroke="#000000"
     id="21"
     fill="none"
     d="m 110.51158,9.8298658 -1.98457,0.165245 -1.95789,0.2904472 -1.93134,0.407649 -1.90487,0.51685 -1.87853,0.61805 -1.852293,0.711249 -1.826152,0.796447 -1.800127,0.873645 -1.774208,0.942841 -1.748397,1.004036 -1.722694,1.057231 -1.697098,1.102425 -1.671609,1.139618 -1.646229,1.168809 -1.620956,1.190001 -1.598816,1.205154 -1.58775,1.224383 -1.575093,1.245462 -1.559462,1.267752 -1.540856,1.291253 -1.519275,1.315964 -1.494721,1.341886 -1.467192,1.369017 -1.436688,1.397359 -1.403211,1.426911 -1.366757,1.457674 -1.327331,1.489646 -1.284928,1.522831 -1.239553,1.557223 -1.191203,1.592828 -1.139877,1.629642 -1.085579,1.667667 -1.028304,1.706902 -0.968028,1.747311 -0.902073,1.783315 -0.83394,1.814052 -0.76649,1.842483 -0.699727,1.868606 -0.633646,1.892421 -0.568252,1.913929 -0.503543,1.933129 -0.439517,1.950023 -0.376177,1.964608 -0.313521,1.976886 -0.251552,1.986857 -0.190265,1.994521 -0.129664,1.999876 -0.06975,2.002924 -0.01052,2.003666 0.04803,2.002099 0.105882,1.998208 0.161869,1.992371 0.215852,1.985946 0.268451,1.978829 0.319666,1.971022 0.369494,1.962524 0.417941,1.953337 0.465,1.943458 0.510677,1.932889 0.554969,1.921629 0.597876,1.909678 0.639398,1.89704 0.679536,1.88371 0.71829,1.86968 0.755659,1.85497 0.791644,1.83957 0.826243,1.82348 0.795044,1.67418" />
  <path
     stroke-width="1.5"
     stroke="#000000"
     id="22"
     fill="none"
     d="m 72.389151,30.587548 -1.170039,1.621982 -1.13165,1.648995 -1.092636,1.675101 -1.053021,1.700283 -1.012825,1.724529 -0.972072,1.747825 -0.930783,1.770158 -0.888982,1.791516 -0.846689,1.811887 -0.803932,1.831259 -0.760731,1.849623 -0.717112,1.866967 -0.673096,1.883284 -0.62871,1.898562 -0.583978,1.912796 -0.538925,1.925974 -0.493573,1.938092 -0.447951,1.949143 -0.402082,1.959119 -0.35599,1.968016 -0.309704,1.975829 -0.263245,1.982553 -0.216643,1.988186 -0.169921,1.992722 -0.123105,1.996162 -0.07622,1.998501 -0.0293,1.99974 0.01765,1.999876 0.06458,1.998911 0.111474,1.996845 0.158309,1.993679 0.205056,1.989414 0.251692,1.984053 0.298187,1.9776 0.344519,1.970056 0.390661,1.961429 0.436588,1.951715 0.482275,1.94094 0.527694,1.92908 0.572825,1.91616 0.617639,1.9022 0.662114,1.88717 0.706222,1.87111 0.749943,1.85403 0.793249,1.83591 0.83612,1.81679 0.878529,1.79666 0.920455,1.77555 0.961873,1.75346 1.002761,1.7304 0.934815,1.53337" />
  <path
     stroke-width="1.5"
     stroke="#000000"
     id="23"
     fill="none"
     d="m 84.401821,11.499321 -1.368981,1.458007 -1.342843,1.482116 -1.31628,1.505757 -1.2893,1.528921 -1.261913,1.551602 -1.234128,1.573793 -1.205951,1.595486 -1.177394,1.616675 -1.148465,1.637352 -1.119172,1.657513 -1.089526,1.677148 -1.059536,1.696255 -1.029209,1.714824 -0.998559,1.732852 -0.967592,1.750332 -0.936319,1.767258 -0.904751,1.783625 -0.872896,1.79943 -0.840765,1.814665 -0.808369,1.829326 -0.775718,1.843409 -0.74282,1.85691 -0.709688,1.869822 -0.676332,1.882145 -0.642762,1.893873 -0.608988,1.905 -0.575023,1.915527 -0.540875,1.925448 -0.506556,1.93476 -0.472078,1.94346 -0.43745,1.951546 -0.402683,1.959015 -0.36779,1.965865 -0.332781,1.972093 -0.04188,0.264385" />
  <path
     stroke-width="1.5"
     stroke="#000000"
     id="24"
     fill="none"
     d="m 20.290589,172.06055 1.794215,-0.88361 1.788192,-0.89574 1.782088,-0.90783 1.775901,-0.91987 1.769633,-0.93187 1.763284,-0.94383 1.756854,-0.95574 1.750344,-0.96762 1.743754,-0.97944 1.737083,-0.99123 1.730333,-1.00296 1.723504,-1.01465 1.716595,-1.0263 1.709609,-1.03789 1.702543,-1.04945 1.695399,-1.06094 1.688179,-1.0724 1.680881,-1.0838 1.673504,-1.09516 1.666053,-1.10646 1.658524,-1.11771 1.65092,-1.12891 1.64324,-1.14007 1.635484,-1.15116 0.217346,-0.15424" />
  <path
     stroke-width="1.5"
     stroke="#000000"
     id="25"
     fill="none"
     d="m 82.988861,115.33063 1.350007,-1.47563 1.350007,-1.47563 1.350006,-1.47563 1.350007,-1.47563 1.350006,-1.47563 1.350007,-1.47563 1.350007,-1.47563 1.350006,-1.47563 1.350007,-1.47563 1.350007,-1.47563 1.350006,-1.475627 1.350007,-1.475629 1.350009,-1.47563 1.35001,-1.475629 1.35,-1.475629 1.35001,-1.47563 1.35001,-1.475629 1.35,-1.475629 1.35001,-1.47563 1.35001,-1.475629 1.35,-1.47563 1.35001,-1.475629 1.35001,-1.475629 1.35,-1.47563 1.35001,-1.475629 1.35001,-1.475629 1.35,-1.47563 1.35001,-1.475629 1.35001,-1.47563 1.35,-1.475629 1.35001,-1.475629 1.35001,-1.47563 1.35,-1.475629 1.35001,-1.475629 1.35001,-1.47563 1.35,-1.475629 1.35001,-1.47563 1.35001,-1.475629 1.35,-1.475629 0.94885,-1.037145" />
  <path
     stroke-width="1.5"
     stroke="#000000"
     id="26"
     fill="none"
     d="m 105.53499,167.70205 1.99994,0.004 1.9993,-0.0505 1.9972,-0.10468 1.99362,-0.15878 1.98859,-0.21276 1.98209,-0.26659 1.97414,-0.32022 1.96473,-0.3736 1.95389,-0.42673 1.94159,-0.47953 1.92789,-0.53199 1.91276,-0.58404 1.89622,-0.63568 1.8783,-0.68684 1.85899,-0.73751 1.83832,-0.78762 1.81629,-0.83717 1.79293,-0.88609 1.76825,-0.93436 1.74228,-0.98195 1.71502,-1.02881 1.6865,-1.07493 1.65675,-1.12024 1.62577,-1.16474 1.59361,-1.20838 1.56026,-1.25113 1.52578,-1.29296 1.49017,-1.33385 1.45347,-1.37375 1.41569,-1.41264 1.37689,-1.4505 0.004,-0.004" />
  <path
     stroke-width="1.5"
     stroke="#000000"
     id="27"
     fill="none"
     d="m 2.2312281,134.24328 -0.626137,1.89879 -0.457592,1.94629 -0.28553796,1.97887 -0.111294,1.99626 0.063805,1.99834 0.23841296,1.9851 0.411194,1.95662 0.58082,1.91313 0.74599,1.85498 0.905438,1.78259 1.057941,1.69653 1.202328,1.59745 1.358733,1.48105 1.626186,1.29816 1.8177399,0.97781 1.90323,0.50379 1.88265,-0.12387 1.131691,-0.47177" />
  <path
     stroke-width="1.5"
     stroke="#000000"
     id="28"
     fill="none"
     d="m 81.390201,28.489309 1.359365,-1.471752 1.395561,-1.434914 1.430703,-1.397791 1.464791,-1.360382 1.497824,-1.32269 1.529801,-1.284711 1.560725,-1.246447 1.590594,-1.207898 1.619409,-1.169064 1.647168,-1.129946 1.673873,-1.090541 1.699524,-1.050852 1.724121,-1.010877 1.74766,-0.970618 1.77015,-0.930073 1.79158,-0.8892432 1.81196,-0.848127 1.83127,-0.806728 1.84955,-0.765043 1.86676,-0.723072 1.88292,-0.680816 1.89803,-0.638276 1.91207,-0.59545 1.92507,-0.552339 1.93701,-0.508942 1.94789,-0.465262 1.95773,-0.421295 1.9665,-0.377043 1.97423,-0.332507 1.98089,-0.287685 1.98651,-0.242578 1.99106,-0.197186 1.99457,-0.15150898 1.99701,-0.105546 1.99841,-0.059299 1.99875,-0.012766 1.99804,0.034052 1.99626,0.081154 1.99344,0.128543 1.98957,0.17621598 1.98463,0.224174 1.97864,0.272417 1.97159,0.320947 1.96351,0.36976 1.95434,0.418859 1.94415,0.468243 1.93288,0.517912 1.92056,0.567866 0.70046,0.220645" />
</svg>
