<?xml version="1.0" encoding="utf-8"?>
<!-- Generator: Adobe Illustrator 27.5.0, SVG Export Plug-In . SVG Version: 6.00 Build 0)  -->
<svg version="1.1" id="Layer_1" xmlns="http://www.w3.org/2000/svg" xmlns:xlink="http://www.w3.org/1999/xlink" x="0px" y="0px"
	 viewBox="0 0 800 800" style="enable-background:new 0 0 800 800;" xml:space="preserve">
<style type="text/css">
	.st0{fill:none;stroke:#000000;stroke-miterlimit:10;}
</style>
<g id="Layer_2_00000178203405862104192440000007278465539969096860_">
	<path class="st0" d="M337.2,278.5c5-4.4,5.3-13,0.7-17.7c-1.9-1.9-4.3-3.2-5.7-5.4c-1.6-2.6-1.4-6,0-8.8c1.3-2.8,3.5-5,5.7-7.1
		c3.5-3.2,7.2-6.3,11.4-8.4c8-4,17.4-4.2,26.4-3.9c3.4,0.1,6.7,0.3,10,1.1c4,0.9,7.8,2.7,11.5,4.5c5.4,2.7,10.8,5.7,15.1,10
		s7.4,10,7.4,16.1"/>
	<path class="st0" d="M332.5,256.1c-2.5,1.7-4.5,4.2-5.3,7.1s-0.2,6.2,1.7,8.6c1.5,1.9,3.7,3.1,5.9,4.2c0.8,0.4,1.5,0.8,2.3,1.2"/>
	<path class="st0" d="M387.5,227.9c1.5-16.7,8.2-32.5,15.8-47.3c11.4-22.2,25.5-43.2,43.4-60.7s39.5-31.4,63-38.7
		c2.9,3.8,3.5,8.9,3.4,13.7c-0.3,14.6-6.1,28.6-13,41.5s-14.9,25.3-20.3,38.8c-3.6,9.1-6.2,18.7-11.3,27
		c-12.2,19.7-36.9,28.6-50.5,47.4"/>
	<path class="st0" d="M413.9,241.3c-2.4-16.6,1.1-33.9,9.5-48.4c3.4-5.8,7.6-11.2,10.5-17.3c4.3-9.2,5.4-19.8,10.9-28.4
		c3.4-5.2,8.2-9.3,12.1-14.2c7.9-9.8,11.9-22.7,21.4-31c3.3-2.9,7.1-5.1,10.9-7.3"/>
	<path class="st0" d="M373.2,223.1c1.5-14.2-0.8-28.6-5.1-42.2s-10.4-26.5-16.9-39.2c-7.9-15.5-16.4-30.7-25.3-45.7
		c-5.6-9.5-12-19.2-21.4-23.9c-3.5,2.3-4.5,7-4.7,11.2c-1.4,21.5,6.7,42.5,6.7,64c0,5.8-0.5,11.6-0.2,17.4
		c1.8,27,23.3,48.9,28.9,75.4"/>
	<path class="st0" d="M340.9,236.8c-0.6-7.8,4.9-15.1,4.4-22.9c-0.6-9-9-16.1-9.1-25.1c0-5.3,2.8-10.1,3.6-15.3
		c0.5-3.4,0.1-6.8-0.2-10.2c-0.5-5-1.1-10.1-1.6-15.1c-0.5-4.5-1-9-2.4-13.2c-0.8-2.5-2-4.8-2.7-7.3c-0.8-2.9-1-6-1.6-8.9
		c-1.9-10.2-7.8-19.2-13.6-27.8"/>
	<path class="st0" d="M412.4,272.3c-3.4-1.3-7-1.9-10.6-1.1s-6.9,2.7-8.8,5.8c-1.4,2.2-2,4.9-3.1,8.1c4.6,1.6,9.6,3.2,14.3,1.7
		c2.9-0.9,5.4-3.1,6.8-5.8C412.3,278.2,412.5,274.9,412.4,272.3z"/>
	<path class="st0" d="M388.8,277c0.1-4.6,3.3-9,7.7-10.4c2.9-0.9,6.1-0.6,9.1-0.3s6.2,0.5,9.1-0.7s5.2-4.1,4.7-7.1"/>
	<path class="st0" d="M406,288.1c-6.9,1.4-13.9-0.8-20.4-3.6s-12.8-6.1-19.7-7c-6.7-0.9-13.6,0.4-20,2.5"/>
	<path class="st0" d="M344.7,311.3c3.9,4.1,8.1,8.1,12.5,11.7"/>
	<path class="st0" d="M355.9,339.8c-6.1,3.9-12.9,6.7-19.9,8.2"/>
	<path class="st0" d="M327.6,270.8c-0.7,3.4-3.5,5.8-6.1,8c-4.6,3.9-9.3,7.8-14,11.7c-3.6,3-7.3,6.2-9.7,10.3s-3.1,9.5-0.5,13.3
		c0.6-1.8,1.8-3.5,3.4-4.6c-1.8,4-2,8.7-1,13.1c0.9,4.4,2.9,8.4,5.8,13.2c0.1-1.5,0.5-3,1.2-4.3c-0.2,2.4,1.1,4.7,2.5,6.7
		c2.6,3.8,5.8,7.2,9.3,10.2c1.1,1,2.2,1.9,3.5,2.6c4.1,2.3,9.1,2.3,13.5,0.9c12,10,29.3,13.2,44,8.1"/>
	<path class="st0" d="M416,265.1c0.8,4.2,1.6,8.6,3.9,12.2c2.6,4.2,6.8,7.1,10.4,10.5c8.3,8,13.2,19.5,13.1,31.1
		c-1.1-1.3-2.2-2.5-4.6-3.8c3,3.3,3.4,8.2,2.8,12.7c-1.2,8.2-5.3,15.9-11.5,21.4"/>
	<path class="st0" d="M429.5,350.8c1.3-2.9,1.8-6.2,1.2-8.6c-2.6,7.1-7.5,13.3-13.8,17.4s-14,6-21.5,5.5"/>
	<path class="st0" d="M375.5,312.6c-3.7,3.9-8.2,7-13.2,9.2c-1.5,0.6-3.1,1.2-4.4,1c-0.7,4.8-1.4,9.6-2.2,14.4
		c-0.1,0.9-0.3,1.9-0.2,2.5c3.3,6.6,10.6,11,18,10.8"/>
	<path class="st0" d="M343.9,307.1c3.2-3.9,7.4-6.9,12-8.8"/>
	<path class="st0" d="M377.7,283.1c-8.2-4-18.1-4.5-26.7-1.5"/>
	<path class="st0" d="M391,282.3c0.4,1.2,0.8,2.3,1.2,3.4"/>
	<path class="st0" d="M391.6,279.9c0.8,2.2,1.6,4.4,2.4,6.6"/>
	<path class="st0" d="M392.4,277.9c1.1,3.2,2.3,6.5,3.4,9.7"/>
	<path class="st0" d="M333.8,257.6c-1.4,0.5-2.9,1.1-4.4,1.6"/>
	<path class="st0" d="M335.3,258.5c-2.5,0.9-5.1,1.9-7.5,2.9"/>
	<path class="st0" d="M336.2,259.6c-3,1.1-5.9,2.3-8.7,3.6"/>
	<path class="st0" d="M337.5,260.8c-3.5,1.5-6.9,2.9-10.4,4.4"/>
	<path class="st0" d="M338.7,262c-3.9,1.5-7.7,3.1-11.5,4.9"/>
	<path class="st0" d="M339.5,263.2c-4,1.9-8,3.6-12,5.2"/>
	<path class="st0" d="M340,264.4c-3.9,2-7.9,3.8-12,5.5"/>
	<path class="st0" d="M340.8,265.5c-4,2-8.1,3.9-12.2,5.7"/>
	<path class="st0" d="M340.9,267.2c-3.6,1.9-7.4,3.6-11.1,5.2"/>
	<path class="st0" d="M341.1,268.6c-3.3,1.7-6.5,3.4-9.9,4.9"/>
	<path class="st0" d="M341.2,270.3c-3,1.4-5.9,2.8-8.7,4.4"/>
	<path class="st0" d="M340.4,271.9c-2.1,1.3-4.3,2.4-6.5,3.4"/>
	<path class="st0" d="M340.1,274c-1.6,0.6-3.2,1.3-4.7,2.2"/>
	<path class="st0" d="M339,275.9c-0.8,0.4-1.5,0.8-2.4,1.1"/>
	<path class="st0" d="M393.5,276.5c1.4,3.5,2.7,6.9,3.9,10.5"/>
	<path class="st0" d="M394.8,275.2c1.5,3.9,2.9,7.9,4.4,11.8"/>
	<path class="st0" d="M395.9,273.9c1.7,4.4,3.4,8.9,5.1,13.3"/>
	<path class="st0" d="M397.3,273.2c1.6,4.6,3.4,9.2,5.4,13.7"/>
	<path class="st0" d="M398.7,272.4c1.8,4.6,3.5,9.2,5.2,13.8"/>
	<path class="st0" d="M399.9,271.8c1.9,4.8,3.8,9.6,5.6,14.5"/>
	<path class="st0" d="M401.3,271.5c1.8,4.5,3.7,8.9,5.5,13.4"/>
	<path class="st0" d="M402.8,271.4c1.9,4.2,3.7,8.5,5.6,12.7"/>
	<path class="st0" d="M404.5,271c1.6,3.8,3.3,7.6,4.9,11.4"/>
	<path class="st0" d="M406.2,270.9c1.5,3.4,2.9,6.8,4.4,10.2"/>
	<path class="st0" d="M408.1,271.3c1.2,2.5,2.3,5.1,3.5,7.6"/>
	<path class="st0" d="M410,271.9c0.6,1.4,1.2,2.8,1.8,4.2"/>
	<path class="st0" d="M389,228.6c1.3-14.9,5.9-29.6,13.4-42.6"/>
	<path class="st0" d="M404.1,180.2c9.3-17.9,20.5-34.8,33.4-50.3"/>
	<path class="st0" d="M446.9,120.1c17.1-14.3,36-26.4,56.2-35.8"/>
	<path class="st0" d="M509.9,86.6c3.4,19-0.8,39.3-11.7,55.4"/>
	<path class="st0" d="M485.7,97c-11.9,12.6-22.2,26.5-30.9,41.8c-8.1,4.6-12.1,13.9-15.1,22.8c-2.9,8.9-5.7,18.4-12.7,24.6"/>
	<path class="st0" d="M425.8,192.1c-8,14.8-12,31.8-11.6,48.6"/>
	<path class="st0" d="M416.4,247.2c11.8-15.6,33.2-21.8,44-38.1"/>
	<path class="st0" d="M493.5,145.6c-8,20.6-17.2,40.7-27.8,60"/>
	<path class="st0" d="M340.9,236.4c-2.4-6.9,4-13.7,4.8-21c0.9-8.5-5.8-15.8-7.4-24.2c-1.1-5.9,0.4-12,1.2-18
		c1.8-13.3,0.1-26.9-3.5-39.8c-3.6-12.9-9-25.2-14.9-37.3"/>
	<path class="st0" d="M337.7,239c-6.9-14.4-13.8-28.7-20.6-43c-4.1-8.6-8.3-17.4-9.7-26.8c-1.4-9.7,0.1-19.5-0.2-29.3
		c-0.7-22.2-10.9-44.2-6.3-66"/>
	<path class="st0" d="M371.6,224.9c3.1-19.9-0.7-40.4-7.7-59.3s-17.2-36.4-27.4-53.8c-8.4-14.4-17.1-29.2-30.1-39.6"/>
	<path class="st0" d="M302.5,117c6.6,18.1,1.8,38.3,5.2,57.3c4.3,24.1,21.5,44,27.9,67.6"/>
	<path class="st0" d="M333,255.2c-2.8-2.5-3-7.1-1.3-10.4c1.6-3.4,4.7-5.8,7.9-7.9c10.6-6.9,23.2-10.8,35.9-10.4s25.2,5,34.8,13.2
		c3.3,2.8,6.2,6.1,8.1,10s2.6,8.5,1.4,12.6"/>
	<path class="st0" d="M389.1,276.8c0.4-4.4,3.8-8.3,8.1-9.4c2.8-0.7,5.7-0.3,8.5,0.2c2.8,0.4,5.8,0.8,8.5,0.1s5.4-2.9,5.6-5.8"/>
	<path class="st0" d="M329.4,272.6c-8.3,7.2-16.5,14.5-24.8,21.7c-2.5,2.2-5.1,4.5-6.8,7.3c-1.8,2.9-2.6,6.4-1.5,11.8
		c1-2.7,3.3-4.8,6-5.7c-3.3,9.3-2.1,20.1,3,26.8c-0.2-2.5,0.7-5.1,2.5-7c-1.1,1.7-1.1,4-0.4,5.9c0.7,1.9,1.9,3.6,3.1,5.3
		c3,4.1,6.1,8.3,10.4,11.1s9.9,4,16,1.9c11,11.1,29.2,14.3,43.4,7.6"/>
	<path class="st0" d="M416.7,265.5c0.2,6,3.6,11.5,7.6,15.9s8.7,8.3,12.3,13.1c5.2,6.9,7.8,15.7,7.1,25c-2-2.6-4.6-4.8-7.6-6.2"/>
	<path class="st0" d="M437.8,315.9c2.7,5.3,3.5,11.6,2.2,17.5s-4.6,11.2-9.9,16.3c1-3.1,1.2-6.4,0.6-10.1c-2.2,7.5-7,14.1-13.4,18.6
		c-6.4,4.4-14.3,6.6-22.1,6.1"/>
	<path class="st0" d="M345.1,307.6c3.1-3.3,6.7-6.2,10.7-8.4"/>
	<path class="st0" d="M362.5,299.8c5,1.9,9.5,4.9,13.3,8.7"/>
	<path class="st0" d="M346.2,310.6c3.3,5.1,7.3,9.9,11.7,14.2"/>
	<path class="st0" d="M363.1,298.4c4.5,2.8,8.6,6.1,12.3,10"/>
	<path class="st0" d="M357.8,324c6.9-1,13.4-5,17.3-10.9"/>
	<path class="st0" d="M354.9,340.4c2.1,3.5,5.2,6.4,8.9,8.2s7.8,2.5,11.9,2.1"/>
	<path class="st0" d="M359.2,323.6c-1.2,5.4-2.5,10.8-3.7,16.2"/>
	<path class="st0" d="M336.5,347.2c7-1.8,13.7-4.9,19.6-9.1"/>
	<path class="st0" d="M332.1,246.6c-1.3,1.4-1,3.6,0,5.2c1.1,1.5,2.8,2.5,4.5,3.2c1.7,0.8,3.5,1.4,4.9,2.7c1.9,1.6,3,4.2,2.9,6.8"/>
	<path class="st0" d="M334.1,244.2c-0.5,1.1-1,2.3-1.2,3.5c-0.2,1.2-0.1,2.5,0.6,3.6c1.3,2.1,4.2,2.4,6.5,3.6c2,1,3.5,2.9,4.1,5"/>
	<path class="st0" d="M356.2,275.9c5.7-1.3,11.7-0.4,17.2,1.7c5.5,2.1,10.5,5.2,15.4,8.3"/>
</g>
<g id="Layer_3">
	<path class="st0" d="M438.8,340.1c9.6,12.8,16.3,28.2,17,44.3s-4.7,32.6-16.2,43.8"/>
	<path class="st0" d="M452.7,406c1.9,19.6-5.9,40.2-18.6,49.5"/>
	<path class="st0" d="M445.4,443.8c-3.2,22.5-12.3,44.3-26.4,63"/>
	<path class="st0" d="M382.6,478.2c-14.4,21.6-22.3,47.4-22.5,73.3"/>
	<path class="st0" d="M359.6,546.7c-3.5,15.4-3.7,31.6-0.7,47.1c0.6,3.3,1.9,7.1,5.1,8.2c3.1,1,6.3-1.2,8.5-3.5
		c7.4-7.9,10.8-18.6,13.9-29"/>
	<path class="st0" d="M418.7,502.8c-4.8,25.8-18.6,49.8-38.4,66.9"/>
	<path class="st0" d="M309.1,456.4c4.2,10.6,3.9,22.6,2.1,33.9c-1.8,11.3-4.9,22.4-6.1,33.8s-0.3,23.5,5.5,33.4
		c4.5,7.7,11.8,13.8,15.1,22c2.7,6.7,2.7,14.3,6.2,20.6c1.3,2.4,3.5,4.6,6.2,4.8c3.5,0.2,6.1-3.1,8.1-6.1"/>
	<path class="st0" d="M340.2,484c7.4,11.9,10.2,26,12.4,39.8c2,12.7,3.6,25.5,3,38.4s-3.5,25.8-10,36.8"/>
	<path class="st0" d="M455.8,402.8c1.5,19.3,10.9,36.9,19.7,54.1c8.9,17.2,17.5,35.4,17.4,54.7"/>
	<path class="st0" d="M484.4,502c21.9,30.7,29,71.4,18.7,107.7"/>
	<path class="st0" d="M500,595.9c8.1,35.5-1.9,74.8-26,102.1"/>
	<path class="st0" d="M353.3,625.4c4.8,18.6,14,36.1,26.5,50.7"/>
	<path class="st0" d="M378.6,666.4c5.7,15.2,16.8,28.2,31.4,35.8c4.2-6.1,11.5-9.4,18.7-11c15.2-3.3,31.7-0.1,44.4,8.8"/>
	<path class="st0" d="M410.8,700.7c-1.9,3.5-3.9,7-4.4,11c-0.5,4,0.6,8.4,3.8,10.7c2.9,2,6.8,1.7,10.3,1.5
		c12.5-0.8,25.1,0.1,37.4,2.8c4.8,1.1,10,2.4,14.5,0.2c4.6-2.2,7.2-7.8,6.9-13.1c-0.3-5.3-3-10.1-6.7-13.8"/>
	<path class="st0" d="M429.6,724.6c-1-6.2,0.5-12.6,4.2-17.8"/>
	<path class="st0" d="M432.2,724.7c-1.7-6.5-0.6-13.6,3-19.4"/>
	<path class="st0" d="M451.9,724.1c3.1-5.8,4.2-12.7,3.3-19.2"/>
	<path class="st0" d="M454.2,725.2c1.5-6.1,2-12.5,1.3-18.8"/>
	<path class="st0" d="M303.8,426.9c1.6,20.5,11.4,40.2,26.8,53.9"/>
	<path class="st0" d="M299.1,434.4c0.8-2.7,2.2-5.2,4.1-7.4"/>
	<path class="st0" d="M303.3,430.5c2.3,19.4,12.3,37.7,27.4,50.1"/>
	<path class="st0" d="M310.5,457.3c5,15.1,2,31.6-0.9,47.2c-2.9,15.7-5.7,32.2-0.2,47.2c5.4,14.8,18.3,26.4,21.2,41.9
		c0.4,2.3,0.6,4.8,1.6,7s2.8,4.2,5.2,4.4c3.4,0.3,6-2.9,7.6-5.8c6.9-12.2,9.8-26.2,10.2-40.2c0.4-14-1.7-27.9-4.3-41.6
		c-2.3-11.8-5.1-24-12.3-33.7"/>
	<path class="st0" d="M383.8,479.5c-12.6,20-20.7,42.8-23.5,65c-5.5,16.8-6.1,35.1-1.9,52.3c0.5,2.2,1.3,4.5,3.1,5.7
		c1.5,1,3.5,1,5.1,0.4s3.1-1.6,4.5-2.8c8.7-7.4,14.2-18.5,14.7-30"/>
	<path class="st0" d="M431.7,458c6.4-5.6,12.6-12,17-20.5c4.3-8.5,6.5-19.5,4.4-29.5"/>
	<path class="st0" d="M438.4,338c11.5,12.2,18.2,28.8,18.5,45.5s-5.9,33.5-16.9,46.1"/>
	<path class="st0" d="M445.9,445.5c-2.6,22.4-11.9,44.1-26.5,62.3"/>
	<path class="st0" d="M419.8,500.9c-4.9,27.5-19.3,53.1-40.3,71.5"/>
	<path class="st0" d="M310.9,467.3c1.9,21.3-5.4,42.4-13.8,62.1c-8.4,19.7-18.1,39.2-21.4,62.6c0.4-3.4,2.5-6.5,6.6-7.4
		c-1.1,24.8,4.5,49.9,16.1,71.9"/>
	<path class="st0" d="M298.7,657.5c-1.2-6-1-12.3,1.1-17.9c1.1,6.1,2.1,12.2,4.6,17.8s6.4,10.9,11.9,13.7"/>
	<path class="st0" d="M355.2,624.8c4.1,20,13.7,38.8,27.5,53.8"/>
	<path class="st0" d="M380,666.2c5.7,15,17,27.9,31.1,35.5"/>
	<path class="st0" d="M454.6,402.6c3.6,14.6,7.3,29.2,13.5,43c5,11.1,11.6,21.5,16.7,32.6c5.1,11.1,8.8,23.2,7.5,35.4"/>
	<path class="st0" d="M484.1,503.6c21,29.4,27.8,68.4,18,103.1"/>
	<path class="st0" d="M497.3,586.5c10.7,38.7,0.1,82.7-27.1,112.3"/>
	<path class="st0" d="M407.3,718.3c-3.8-6.6-1-15.4,4.6-20.5c5.6-5.1,13.3-7.2,20.8-8.4c7.6-1.2,15.4-1.8,22.9-0.2
		s14.8,5.4,19.3,11.5s6,14.8,2.6,21.7"/>
	<path class="st0" d="M429.7,724.2c0.1-6.1,1.7-12.3,4.7-17.8"/>
	<path class="st0" d="M452.2,724.9c2.4-6.6,3.6-13.6,3.4-20.6"/>
	<path class="st0" d="M406.7,706.3c-2.8,5.2-2.6,12.5,2,16c3.8,3,9.2,2.6,14,2.3c9.8-0.5,19.6,0.3,29.2,2.4c5.1,1.1,10.3,2.6,15.5,2
		s10.5-3.9,11.6-9"/>
	<path class="st0" d="M370.2,689.8c-13-3.2-25.6-7.8-37.6-13.6"/>
	<path class="st0" d="M325,673.5c-14.7-3.3-30.3-4.7-44.5,0.1s-26.8,16.8-28.6,31.8"/>
	<path class="st0" d="M395.5,692.6c-0.2,4-3.3,7.3-6.9,8.9c-3.6,1.7-7.6,2-11.6,2.2c-16.4,1.2-32.7,2.3-49,3.5
		c-25.4,1.8-51.2,3.6-76.1-1.9"/>
	<path class="st0" d="M272.8,707.3c1.1-8.3,6.1-15.9,13-19.9"/>
	<path class="st0" d="M275.5,709c0.5-7.7,3.9-15.1,9.3-20.2"/>
	<path class="st0" d="M311,471.7c-1.4,17.1-5.2,34.1-11.5,50.1c-4.5,11.6-10.2,22.7-14.9,34.2s-8.4,23.6-7.9,37.3
		c0.3-2.2,1.3-4.4,3.5-6.6c-0.1,23.3,6.2,46.6,18.8,67.6c-1.9-4-2-8.8-0.2-12.8c0.1,0.8,0.2,1.5,0.3,2.3"/>
	<path class="st0" d="M299.2,641.4c-0.3,9.6,4.6,19.1,12.5,24.6"/>
	<path class="st0" d="M397.8,692.4c-1.9,4.4-4.1,9.3-8.5,11.3c-2.8,1.3-5.9,1.2-9,1.2c-21.1-0.2-42.2,2.6-63.2,4.1
		c-21.1,1.5-42.5,1.8-64.2-3.4c1.6-15.2,13.7-27.9,28-33.1s30.4-3.5,44.8,1.6"/>
	<path class="st0" d="M299,642.2c0.6,12.1,7.7,23.7,18.1,29.7"/>
	<path class="st0" d="M329.2,674.9c14.4,1.1,25.8,14.1,40.2,14.7"/>
	<path class="st0" d="M273.4,707.7c1.2-7.5,5.3-14.5,11.1-18.9"/>
	<path class="st0" d="M275.2,708.7c0.5-6.9,3.3-13.6,7.7-18.7"/>
	<path class="st0" d="M314.9,345.5c-7.9,13.9-15.5,28.1-19.3,43.6c-3.8,15.5-3.5,32.5,3.9,46.7"/>
	<path class="st0" d="M317.5,346.6c-20,23.5-27.4,57.1-19.2,87.7c1-4.1,3.8-7.7,7.5-10.4c-2.6,10.6-1.6,22,2.9,32
		c4.5,10,12.4,18.3,22,23.4"/>
	<path class="st0" d="M314.7,345c-19.2,25.6-25.7,60.3-17,91.2"/>
</g>
<g id="Layer_4">
	<path class="st0" d="M339.9,483.2c11.8,2.8,22.5,9.9,29.8,19.7"/>
	<path class="st0" d="M343.3,483.8c-0.2,2.2-0.5,4.4-0.7,6.5"/>
	<path class="st0" d="M346.2,485c-0.5,3.6-1.1,7.2-1.6,10.8"/>
	<path class="st0" d="M348.9,485.8c-1.1,4.5-2,9.1-2.4,13.7"/>
	<path class="st0" d="M351.8,487.7c-2,6.1-3.3,12.5-3.9,18.9"/>
	<path class="st0" d="M354.2,489.1c-1.6,6.5-3,13-4.1,19.6"/>
	<path class="st0" d="M357.3,490.5c-2.6,9-4.8,18.2-6.4,27.5"/>
	<path class="st0" d="M360.1,492.4c-2.5,10.5-4.9,20.9-7.3,31.4"/>
	<path class="st0" d="M363,494.9c-3.2,12-6.4,24.1-9.6,36.2"/>
	<path class="st0" d="M365.7,498.2c-3.9,13.1-7.8,26.3-11.6,39.4"/>
	<path class="st0" d="M368.4,500.3c-4.6,14.8-9.3,29.5-13.9,44.3"/>
	<path class="st0" d="M361.7,531.3c-2.2,5.8-4.4,11.7-6.6,17.5"/>
	<path class="st0" d="M361.5,540.9c-2.2,4.8-4.2,9.7-5.9,14.8"/>
	<path class="st0" d="M354.3,586.2c-2.4,9.4-4.9,18.7-7.6,27.9c-1,3.3-2.1,6.8-4.8,8.9c-3.4,2.7-8.6,2.3-12.2-0.1s-6-6.3-7.5-10.4
		c-1.5-4.1-2.3-8.4-3.6-12.6c-5.1-16.2-18-29.3-21.6-45.9c-3.5-16.1,2.5-32.7,11.2-45.1c-4,6.9-7.4,14.1-10.3,21.6"/>
	<path class="st0" d="M305.8,523.2c-3.9,6.6-7.3,13.5-10.2,20.6"/>
	<path class="st0" d="M305.8,532.4c-2.8,5.7-5.5,11.3-8.3,17"/>
	<path class="st0" d="M306.6,540.4c-3.1,5.9-5.7,12.2-7.6,18.6"/>
	<path class="st0" d="M307.7,550.6c-2.9,4.9-5.1,10.2-6.5,15.7"/>
	<path class="st0" d="M310.4,555.7c-2.8,5-5,10.3-6.4,15.9"/>
	<path class="st0" d="M312.3,560.9c-2.1,5.8-4.2,11.6-6.4,17.4"/>
	<path class="st0" d="M316.2,565.8c-2.6,5.2-4.6,10.7-6,16.3"/>
	<path class="st0" d="M319.4,569.7c-2.2,6.4-4.5,12.8-6.7,19.1"/>
	<path class="st0" d="M322.9,574.5c-3.2,6.7-5.5,13.9-6.9,21.2"/>
	<path class="st0" d="M325.2,580.6c-2.4,7.3-4.7,14.7-7,22"/>
	<path class="st0" d="M328.1,586.4c-1.8,7-3.5,13.9-5.3,20.8"/>
	<path class="st0" d="M330.4,593.8c-3.1,7.3-5.2,15.1-6.1,23"/>
	<path class="st0" d="M333.4,598.9c-1.5,7.3-3.1,14.6-4.7,21.9"/>
	<path class="st0" d="M337.4,602.7c-1.5,7-2.6,14.2-3.3,21.4"/>
	<path class="st0" d="M340.8,603.7c-0.2,6.8-0.5,13.7-0.7,20.5"/>
	<path class="st0" d="M346,600c0.1,5.8,0.2,11.7,0.3,17.5"/>
	<path class="st0" d="M349.7,591.5c0.3,3.8,0.5,7.6,0.8,11.4"/>
	<path class="st0" d="M352.8,582.1c0.1,2.5,0.3,5,0.5,7.5"/>
	<path class="st0" d="M440.3,472.4c-13.5,19.8-11.9,46.3-21.9,68c-5.6,12.2-14.8,22.5-20.3,34.8c-3.4,7.6-5.4,15.7-8.4,23.5
		c-3,7.7-7.3,15.3-14.2,20c-3.4,2.3-8.2,3.7-11.5,1.2c-1.9-1.5-2.8-4-3.5-6.3c-2.2-7.8-3.6-15.9-4-24"/>
	<path class="st0" d="M360.7,601.9c0.3,3.7,0.6,7.5,0.9,11.2"/>
	<path class="st0" d="M364.5,601.7c-0.1,6.1,0.2,12.2,0.8,18.3"/>
	<path class="st0" d="M368.7,601.2c0.4,6.5,1.4,13,2.9,19.3"/>
	<path class="st0" d="M373.5,597.5c0.5,6.2,1.6,12.3,3.4,18.2"/>
	<path class="st0" d="M379.4,590.5c1.2,6.4,2.4,12.9,3.6,19.3"/>
	<path class="st0" d="M383.5,581.4c1.5,6.9,3,13.8,4.5,20.8"/>
	<path class="st0" d="M387.7,571.2c1.2,7.2,2.3,14.4,3.5,21.6"/>
	<path class="st0" d="M391,559.9c0.5,7.4,1.8,14.8,3.7,22"/>
	<path class="st0" d="M394.7,556.3c0.6,6.2,1.7,12.4,3.3,18.5"/>
	<path class="st0" d="M399.2,550.6c0.3,6.3,1.5,12.6,3.5,18.7"/>
	<path class="st0" d="M401.8,543.4c1.4,6.2,2.8,12.3,4.2,18.5"/>
	<path class="st0" d="M406.5,536.2c1.6,6.5,3.1,13,4.7,19.5"/>
	<path class="st0" d="M411.1,529.1c0.6,6.4,1.9,12.8,3.9,19"/>
	<path class="st0" d="M414.1,520.8c1.1,7,2.5,13.9,4.2,20.8"/>
	<path class="st0" d="M417,513.5c1.6,6.8,3.2,13.6,4.8,20.4"/>
	<path class="st0" d="M420.6,505c0.9,7,2.4,14,4.4,20.8"/>
	<path class="st0" d="M424.2,498.1c1,4.8,2,9.7,3.1,14.5"/>
	<path class="st0" d="M428.1,492c0.5,2.1,0.9,4.3,1.4,6.4"/>
	<path class="st0" d="M414.5,229c0.9,4.9,1.8,9.8,2.8,14.8"/>
	<path class="st0" d="M413.9,221c1.7,7.1,3.7,14.1,6.1,21.1c0-0.4,0.1-0.9,0.1-1.3"/>
	<path class="st0" d="M416.1,214.6c2.7,7.8,5.4,15.5,8.1,23.2"/>
	<path class="st0" d="M417.9,207.6c2.3,8.6,5.2,17.1,8.5,25.4"/>
	<path class="st0" d="M421.5,202.4c2.6,9.3,5.5,18.4,8.9,27.4c-0.1-0.5-0.2-0.9-0.3-1.4"/>
	<path class="st0" d="M423.8,195.2c2.5,12.2,6.5,24.2,11.6,35.5c0-0.8,0.1-1.6,0.1-2.4"/>
	<path class="st0" d="M426.5,187.7c3.1,12.5,7.1,24.7,11.9,36.6c0.1-2.7-0.5-5.4-1.7-7.9"/>
	<path class="st0" d="M429.4,180.8c4.1,14.4,8.9,28.7,14.3,42.7c-0.2-1.6-0.5-3.2-0.7-4.8"/>
	<path class="st0" d="M433.7,177.4c4.1,13.4,8.9,26.5,14.5,39.3c-0.1-0.5-0.2-1-0.3-1.5"/>
	<path class="st0" d="M436,170.2c5.6,14.4,11.2,28.8,16.7,43.2"/>
	<path class="st0" d="M439.8,163.4c6.3,15.6,12.6,31.2,19,46.9"/>
	<path class="st0" d="M444.5,157.9c5.9,15.1,11.8,30.3,17.7,45.4c-0.3-1.3-0.6-2.6-1-3.9"/>
	<path class="st0" d="M448.1,151c6.2,15.7,12.4,31.3,18.6,47c-0.2-1.3-0.3-2.6-0.5-3.9"/>
	<path class="st0" d="M451.4,140.6c5.9,15.2,11.9,30.4,17.8,45.7c0.1-0.6,0.1-1.1,0.2-1.7"/>
	<path class="st0" d="M457.7,135.4c5.6,14.8,11.8,29.4,18.5,43.7"/>
	<path class="st0" d="M465.3,130.3c2.7,12.9,7.3,25.3,13.4,36.9"/>
	<path class="st0" d="M469.4,123.1c3,11.8,7.3,23.4,12.6,34.4c0.1-0.4,0.2-0.8,0.3-1.1"/>
	<path class="st0" d="M474.2,115.2c3,11.9,7.6,23.5,13.8,34.2"/>
	<path class="st0" d="M481.5,109.3c2.5,10.7,6.7,20.9,12.3,30.3"/>
	<path class="st0" d="M487.1,105.2c2.6,8.7,6,17,10.3,25"/>
	<path class="st0" d="M492.8,99.3c3.2,7.7,6.5,15.4,9.7,23.1c0.2-0.7,0.4-1.3,0.6-2"/>
	<path class="st0" d="M500.2,91.4c2.5,6.8,5,13.5,7.6,20.3"/>
	<path class="st0" d="M335.3,234.8c3.1-4,5.9-8.2,8.5-12.5"/>
	<path class="st0" d="M334,230.1c4.1-6.1,8.2-12.3,12.2-18.5"/>
	<path class="st0" d="M330.8,226.1c4.4-6.6,8.6-13.2,12.6-20"/>
	<path class="st0" d="M328.8,221.3c4.1-6.8,8.2-13.6,12.4-20.5"/>
	<path class="st0" d="M326.1,215.6c4.2-6.6,8.4-13.2,12.6-19.8"/>
	<path class="st0" d="M323.2,209.4c5.4-7.1,10.3-14.6,14.6-22.4"/>
	<path class="st0" d="M320.7,203.3c6-8.1,11.6-16.4,16.8-25"/>
	<path class="st0" d="M318.4,196.6c7.2-10.3,14.4-20.6,21.6-30.9"/>
	<path class="st0" d="M315.2,192.4c7.6-12.8,15.8-25.1,24.5-37.1"/>
	<path class="st0" d="M312.5,187.7c8.7-13.4,17.3-26.7,26-40.1"/>
	<path class="st0" d="M310.3,181.5c9.2-13.3,17.8-27.1,25.8-41.2"/>
	<path class="st0" d="M308.4,173.1c8.9-13.5,17.7-27,26.3-40.7"/>
	<path class="st0" d="M307.6,164.6c8.7-12.2,16.9-24.8,24.6-37.6"/>
	<path class="st0" d="M307.3,154.6c7.4-12.3,15.1-24.4,23.1-36.3"/>
	<path class="st0" d="M306.8,144c7.3-10.3,14.6-20.7,21.9-31"/>
	<path class="st0" d="M306.9,135.1c6.5-9.4,13.1-18.9,19.7-28.3"/>
	<path class="st0" d="M305.5,127.6c6-8.8,11.9-17.7,17.9-26.5"/>
	<path class="st0" d="M321.3,97.3c-5.6,6.7-11.2,13.4-16.9,20.1"/>
	<path class="st0" d="M319,93.2c-5,5.4-9.9,10.8-14.9,16.1"/>
	<path class="st0" d="M315,89.2c-3.3,4.1-7,7.8-11.1,11.1"/>
	<path class="st0" d="M312,85.1c-2.9,3.4-5.9,6.6-9.1,9.6"/>
	<path class="st0" d="M307.8,81.7c-2.1,2.3-4.3,4.5-6.4,6.8"/>
	<path class="st0" d="M305.7,77.5c-1.7,1.7-3.4,3.4-5.1,5.1"/>
	<path class="st0" d="M412,692.8c0.2,1.7,0.6,3.3,1.2,4.9"/>
	<path class="st0" d="M424.1,500.5c14.9-15.6,23.1-37.5,22-59"/>
	<path class="st0" d="M432.2,456.9c8.6-5,15.5-12.8,19.5-21.9c4-9.1,4.9-19.5,2.6-29.2"/>
	<path class="st0" d="M390.1,227c1.2-13.5,5.1-26.7,10.7-38.8c14.2-25.8,28.8-52.1,50.7-71.8c12.7-11.4,27.6-20.1,42.7-28"/>
	<path class="st0" d="M372.9,226.6c0.4-6,0.8-11.9,1.2-17.9"/>
	<path class="st0" d="M317.4,81.2c16.2,22.4,30.5,46.2,42.7,71l1.9,4.9"/>
	<path class="st0" d="M363.1,159.5c8.1,21.2,12,44.1,11.4,66.8"/>
	<path class="st0" d="M392,228.7c3.9-30.9,15.9-60.8,34.6-85.7S470.4,98,499,85.6"/>
</g>
</svg>
