<?xml version="1.0" encoding="utf-8"?>
<!-- Generator: Adobe Illustrator 27.5.0, SVG Export Plug-In . SVG Version: 6.00 Build 0)  -->
<svg version="1.1" id="Layer_1" xmlns="http://www.w3.org/2000/svg" xmlns:xlink="http://www.w3.org/1999/xlink" x="0px" y="0px"
	 viewBox="0 0 800 800" style="enable-background:new 0 0 800 800;" xml:space="preserve">
<style type="text/css">
	.st0{fill:none;stroke:#000000;stroke-miterlimit:10;}
</style>
<g id="Layer_3">
	<path class="st0" d="M335.2,237.9c1.6-2.5,0.4-6-1.7-8.1c-2.1-2.1-5-3.1-7.6-4.5s-5.2-3.3-6.1-6.2c-1.3-4.5,2.3-8.9,6-11.8
		c12.3-9.5,28.4-13,44-13.1c12-0.1,24.3,1.9,34.7,7.9c10.4,6,18.7,16.4,20,28.3c0.3,2.6,0.2,5.4-1.4,7.4s-4.3,2.8-6.9,2.8
		c-2.6,0-5.1-0.6-7.7-0.8c-8.2-0.7-16.6,3.1-21.5,9.6"/>
	<path class="st0" d="M416.3,247.7c-5.3-3.3-12.4-3.5-18-0.7c-5.6,2.8-9.5,8.6-9.6,15c5.3,3.5,12.6,3.9,18.2,0.9
		S416.2,253.6,416.3,247.7z"/>
	<path class="st0" d="M389.2,258.4c0.7,1.9,1.6,3.7,2.8,5.4"/>
	<path class="st0" d="M390,256.1c1.1,2.8,2.5,5.5,4.1,8"/>
	<path class="st0" d="M390.9,254.1c1.8,3.7,3.7,7.4,5.7,11.1"/>
	<path class="st0" d="M392,252.9c2,3.9,4.1,7.8,6.1,11.7"/>
	<path class="st0" d="M393.3,251.2c2.2,4.7,4.6,9.3,7.2,13.8"/>
	<path class="st0" d="M394.4,249.9c2.4,4.7,4.8,9.4,7.2,14.1"/>
	<path class="st0" d="M396,249.2c2.6,4.9,5.2,9.7,7.8,14.6"/>
	<path class="st0" d="M397.3,247.9c2.7,5,5.4,10,8.1,15.1"/>
	<path class="st0" d="M398.9,246.9c2.8,5.2,5.7,10.4,8.5,15.6"/>
	<path class="st0" d="M400.4,246.2c2.7,4.9,5.4,9.8,8,14.7"/>
	<path class="st0" d="M402.1,246.1c2.7,4.8,5.4,9.6,8.2,14.4"/>
	<path class="st0" d="M403.8,245.5c2.4,4.3,4.7,8.6,7.1,12.9"/>
	<path class="st0" d="M405.6,245.3c2.3,4.2,4.6,8.4,7,12.6"/>
	<path class="st0" d="M407.2,245.1c1.8,3.6,3.9,7.1,6.1,10.5"/>
	<path class="st0" d="M409.1,245.4c1.8,3.1,3.5,6.1,5.3,9.2"/>
	<path class="st0" d="M411.3,246.1c1.1,2.2,2.3,4.2,3.7,6.2"/>
	<path class="st0" d="M413.4,246.8c0.8,1.3,1.7,2.6,2.5,3.9"/>
	<path class="st0" d="M385.3,255.3c0.1-5.6,4-10.6,8.9-13.4c4.9-2.7,10.6-3.5,16.2-3.6c3.5-0.1,7.3,0,10.1-2.1
		c2.9-2.2,3.8-6.2,3.2-9.7c-0.6-3.5-2.4-6.7-4.2-9.8"/>
	<path class="st0" d="M340.4,255.6c7.8-3.7,16.9-4.7,25.3-2.6c8,2,15.1,6.5,22.8,9.6s16.7,4.6,23.9,0.6"/>
	<path class="st0" d="M350.6,251c11.3-2.4,23.7,0.9,32.4,8.7"/>
	<path class="st0" d="M350.7,254.9c6-1,12.2-0.1,18,1.7s11.2,4.5,16.7,7.2"/>
	<path class="st0" d="M320,215.6c-0.9,3.5,0.8,7.1,3.1,9.9c2.2,2.8,5,5.1,7,8.1c4.1,6.2,3.9,15.1-0.7,21.1"/>
	<path class="st0" d="M323.4,226.4c-5,3.5-7.6,10.2-6.2,16.2c1.4,6,6.7,10.9,12.8,11.7"/>
	<path class="st0" d="M325,227.8c-1.6,0.6-3.2,1.1-4.8,1.7"/>
	<path class="st0" d="M325.9,228.9c-2.4,0.8-4.7,1.6-7,2.4"/>
	<path class="st0" d="M326.9,230.2c-3,1.1-6,2.2-9.1,3.4"/>
	<path class="st0" d="M327.7,231.4c-3.2,1.3-6.5,2.5-9.7,3.8"/>
	<path class="st0" d="M328.7,232.9c-3.9,1.4-7.8,2.8-11.8,4.1"/>
	<path class="st0" d="M329.8,234.1c-4.4,1.8-8.8,3.5-13.1,5.2"/>
	<path class="st0" d="M330.5,235.4c-4.2,1.8-8.5,3.6-12.7,5.4"/>
	<path class="st0" d="M331.5,237.3c-4.7,1.6-9.3,3.5-13.8,5.6"/>
	<path class="st0" d="M332.1,238.6c-4.7,2-9.4,3.9-14.1,5.9"/>
	<path class="st0" d="M332.9,239.9c-4.8,2.3-9.7,4.6-14.5,6.8"/>
	<path class="st0" d="M332.8,241.5c-4.2,2.2-8.5,4.3-12.7,6.5"/>
	<path class="st0" d="M332.8,243.3c-3.9,1.9-7.8,3.9-11.7,5.9"/>
	<path class="st0" d="M332.9,244.9c-3.7,2.1-7.5,3.9-11.4,5.7"/>
	<path class="st0" d="M332.9,246.8c-3,1.5-5.9,3.1-8.9,4.6"/>
	<path class="st0" d="M332,249c-2.2,1.3-4.5,2.6-6.7,3.9"/>
	<path class="st0" d="M331,251.4c-1.2,0.6-2.4,1.3-3.6,1.9"/>
	<path class="st0" d="M385.3,193.4c18.6-39.7,45-75.8,77.3-105.5c24.6-22.7,52.4-41.5,81-58.8c3-1.8,6.2-3.7,9.7-4.3
		s7.5,0.3,9.6,3.1c3,3.9,1.3,9.5-0.6,14.1c-3.8,9.3-8.1,18.3-12.4,27.4c-6.2,13-12.3,26-20.1,38.1c-8.4,13.2-18.6,25.2-28.2,37.6
		C489,161,477.2,178,461.2,190.6c-12.9,10.1-28.1,16.9-43.1,23.5"/>
	<path class="st0" d="M418.6,210.4c-4.1-10.3-1.8-22.2,2.8-32.3c4.7-10.1,11.6-18.9,17.4-28.5c6.3-10.5,11.3-21.8,18.2-31.8
		c7-10.1,15.9-18.8,24.3-27.8c17.5-18.9,33.8-40.3,56.9-51.7"/>
	<path class="st0" d="M328.1,205c-7.9-2-12.2-10.4-14.4-18.2s-3.7-16.4-9.5-22.1c-5-4.9-12.4-6.8-17.1-12c-4-4.5-5.4-10.9-9.2-15.5
		c-3.1-3.8-7.5-6.1-11.3-9.2c-13.9-11.1-18.3-30.4-30-43.7c-7.3-8.3-17.5-14.1-28.4-16.1"/>
	<path class="st0" d="M319.9,218.1c1.4-6.6,5.5-12.6,11.3-16.1c2.1-1.3,4.5-2.3,6.9-3.2c18.7-7,39.8-7.4,58.7-1.1
		c9.7,3.2,19.2,8.5,24.2,17.4c3,5.3,4.1,11.5,3.1,17.5"/>
	<path class="st0" d="M317,246.6c-2.4,7-8.2,12.2-14.3,16.4s-12.6,8-17.4,13.6s-7.7,13.7-4.3,20.2c1-4.1,4-7.6,7.7-9.5
		c-2.8,5.5-3.2,12-2.2,18s3.1,11.9,5.3,17.7c0.2,0.6,0.7,1.3,1.3,1.2c-0.6-3.8-0.4-7.8,0.4-11c1.1,5.2,3.2,10.3,6.1,14.8
		c1.3,2,2.7,3.8,4.4,5.4c4.3,4.2,10.3,6.6,16.4,6.6c3.2,0,6.4-0.6,9.2-1.3c3.3,4.6,8.7,7.2,13.9,9.4c2.9,1.2,5.8,2.4,8.8,3.2
		c9.1,2.4,19.1,0.9,27.1-3.9"/>
	<path class="st0" d="M420.1,238.1c0.6,5.5,1.8,11,4.5,15.8c4.7,8.3,13.4,13.6,19.3,21.1c6.3,7.9,9.2,18.3,7.6,28.6
		c-1.4-3.2-4.4-5.8-7.5-7.2c2.6,6.6,2.6,14,0.8,20.9s-5.3,13.1-10.6,19.4c2.6-4,3.1-9.3,1.1-14.1c-2.1,9.5-8,18.2-16,23.8
		c-8,5.6-18.1,8.1-27.8,6.8"/>
	<path class="st0" d="M444.6,318.4c14.3,11.3,22.5,26,22.7,40.9s-7.5,29.7-21.5,41.2"/>
	<path class="st0" d="M464.9,380.8c1.7,8.7-0.4,17.9-5.8,25.5s-14,13.5-23.9,16.5"/>
	<path class="st0" d="M444.8,316c14.4,12,22.4,27.5,22,43s-8.9,30.8-23.8,42.6"/>
	<path class="st0" d="M464.7,375.3c2.3,9,0.9,18.7-3.8,27.1c-4.8,8.4-12.9,15.3-22.7,19.5"/>
	<path class="st0" d="M387.7,194.6c14.4-34.9,36.6-66.2,63-93.2s56.9-49.6,89.1-69.4c6.2-3.9,13.9-7.7,21.6-4.3
		c0.9,12-3.6,23.7-8.4,34.7c-20.2,45.7-49.1,87.6-84.7,122.7c-13.7,13.5-29.9,26.6-46.3,26.7c-5.1-9.2-4.2-20.7-0.6-30.6
		c3.7-9.9,9.8-18.5,15.2-27.6c6.5-10.9,12-22.4,18.9-33.1c8-12.3,17.8-23.2,27.9-33.9c15.6-16.6,31.9-32.9,51.5-44.5"/>
	<path class="st0" d="M330,204.8c-8.5-2.2-12.7-11.6-14.9-20.1c-2.2-8.5-4-18-10.9-23.4c-5.9-4.6-14.5-5.3-19-11.1
		c-3.2-4.1-3.6-10-6.9-14.1c-2-2.5-4.9-4.2-7.6-6.1c-7.9-5.7-13.5-14.1-18.4-22.6s-9.4-17.3-15.8-24.7s-15.1-13.4-24.8-14.2"/>
	<path class="st0" d="M324.1,208.6c1-2.3,3.2-3.9,5.4-5.2c4.8-2.8,9.9-5.1,15.3-6.7"/>
	<path class="st0" d="M318.5,245.4c-1.6,5.2-5.7,9.1-9.7,12.8c-3.5,3.1-6.9,6.3-10.6,9.1c-4.5,3.4-9.5,6.3-13,10.7
		c-3.9,4.8-5.7,11.2-4.8,18.1c1.6-4.3,4.8-7.9,9.3-10.3c-1.1,6.1-2,12.2-1.8,18.4c0.2,6.2,1.5,12.4,4.5,17.8"/>
	<path class="st0" d="M293,325c-1.1-4.9-0.6-10.1,0.5-14.4c1.2,5.1,3,10.1,5.3,14.9c1.1,2.2,2.3,4.5,4.1,6.2
		c2.2,2.2,5.2,3.6,8.2,4.7c6.3,2.2,13.1,3.1,19.6,0.6c1.1,2.7,3.5,4.7,5.9,6.4c12.2,8.3,28.9,9.7,42.3,3.6"/>
	<path class="st0" d="M290.1,400.5c-0.6,9.1,3.3,18.2,9.6,26.1s15.1,14.6,24.6,20.6"/>
	<path class="st0" d="M390.4,351c6.2,2.7,13.4,0.7,19.6-1.9c5.9-2.4,11.6-5.5,16.3-9.8c4.7-4.3,8.2-10.1,8.9-16.4"/>
	<path class="st0" d="M421.2,238.8c0.2,8.4,5.7,15.5,11,22c2.4,3,4.8,6,7.6,8.6c1.7,1.6,3.5,3,5.1,4.6c7,7.2,8.6,18.3,6.9,29.8
		c-0.4-4-4-7.5-7.9-7c3,4.9,2.3,11.2,1.3,16.9c-1.6,9-4.2,18.3-10.8,24.1c1.2-3.4,1.8-6.9,1.7-10.5c0-1.7-0.2-3.5-1.2-4.9"/>
	<path class="st0" d="M379.3,441.4c-11.3,15.4-21.7,31.7-27.8,49.8s-7.7,38.2-1.3,56.1c1.6,4.4,4.3,9.1,8.9,9.7
		c5.5,0.7,9.5-4.9,12.1-9.7c5.3-9.7,10.6-19.4,15.9-29"/>
	<path class="st0" d="M456,409.2c-2.9,21.9-15.7,42.5-34.5,55.3"/>
	<path class="st0" d="M422,463.8c-9.4,24-25.2,45.6-45.3,61.8"/>
	<path class="st0" d="M294.8,419.6c3.7,11.9,2,24.7,0.8,37s-2,25.5,3.3,36.7c3.4,7,8.9,12.9,12.4,19.8c4.7,9.5,5.3,20.4,6.2,30.9
		c0.3,3.5,0.9,7.4,3.7,9.5c3,2.3,7.7,1.4,10.6-1.1s4.5-6.1,5.9-9.7c1.4-3.6,2.7-7.3,5.3-10.2"/>
	<path class="st0" d="M331.4,450c11.3,11.6,17.8,27.9,17.5,44.1"/>
	<path class="st0" d="M376.2,441.6c-14.1,24.7-28.5,50.5-30.4,78.8c-0.7,10.1,0.4,20.7,5.5,29.4c1.8,3.1,4.5,6.2,8.1,6.7
		c2.9,0.4,5.7-1,7.8-3c2.1-2,3.5-4.5,5-7c5.5-9.8,11.1-19.7,16.6-29.5"/>
	<path class="st0" d="M454,413.4c-2.5,21.8-15.6,42.3-34.8,54.4"/>
	<path class="st0" d="M423.7,464.1c-10.6,25.1-27.9,47.4-49.5,63.9"/>
	<path class="st0" d="M332,451c9.3,13.4,15.4,28.9,17.6,45"/>
	<path class="st0" d="M298.1,424c-0.5,14.6-1,29.1-1.4,43.7c-0.2,6.1-0.4,12.4,1.4,18.3c2.1,6.9,6.8,12.8,10.1,19.2
		c6.7,13.1,7.7,28.3,10.9,42.8c0.5,2.4,1.2,5,3.2,6.5c2.2,1.7,5.4,1.5,7.7,0.1s4-3.7,5.3-6.2c3.4-6.5,4.9-14.5,10.5-19.2"/>
	<path class="st0" d="M295,460.1c-2.9,11.7-10.3,21.9-18.4,30.9c-8.1,9-17.1,17.2-24.3,26.9c-7.2,9.7-12.7,21.3-12.7,35.9
		c2.2-4.4,5.6-8.1,11.9-12.5c-2.4,20.5,5.7,42.1,20,55c-0.2-3.8,1.3-7.8,4.3-11.2c2.8,12,11.8,22.3,23.3,26.8"/>
	<path class="st0" d="M343,556.4c2.8,10.3,5.7,20.7,11,30c5.2,9.3,13.2,17.5,23.3,21"/>
	<path class="st0" d="M373.5,598.2c7.1,12.2,17.3,22.5,29.3,29.9"/>
	<path class="st0" d="M464.1,392c1.3,11.5,7.9,21.8,15.4,30.7c7.6,8.8,16.2,16.7,23,26.2s11.5,21.1,9.7,32.6"/>
	<path class="st0" d="M503.1,470.1c12.9,10.2,22.6,24.3,27.5,39.9c4.9,15.7,5,32.8,0.2,48.5"/>
	<path class="st0" d="M525.1,539.3c8,16.6,8.1,36.8,0,53.4c-8,16.6-23.9,29.1-41.9,33"/>
	<path class="st0" d="M295.7,464.1c-4.6,15.3-19,29.4-32,43.5c-12.9,14.1-24.8,29-23.1,44.9c1.2-3.2,4.6-6.2,8.5-9
		c-1.9,19.6,6.9,39.5,25.6,57.3c-3-4.1-2.6-8.9,0.9-12.4c1.7,9.1,9.9,17.8,22.8,24.2"/>
	<path class="st0" d="M349.8,577.6c3.2,9.7,11,19.7,22.7,28.9"/>
	<path class="st0" d="M373,601.2c5.3,9.3,16.2,18.6,31,26.3"/>
	<path class="st0" d="M379.1,638.2c4.4-5.8,7.4-12.6,8.6-19.7"/>
	<path class="st0" d="M375.7,606.8c-18.1-10.8-31-29.8-34.6-50.6"/>
	<path class="st0" d="M404.4,629.3c-13.1-7-24.5-17.2-32.9-29.5"/>
	<path class="st0" d="M379.4,640.2c4.9-6.7,8.5-14.3,10.6-22.3"/>
	<path class="st0" d="M462.5,394.6c4.1,15,16.8,28.6,28.1,42.2s21.8,28.2,21,43.3"/>
	<path class="st0" d="M506.5,474.2c25.7,24.7,34.9,55,25.2,83.2"/>
	<path class="st0" d="M524.2,543.1c15.9,27.5,1.6,59.3-36.1,79.9"/>
	<path class="st0" d="M489.8,643.7c2.5-10.2-3.7-21.1-12.7-26.6c-8.9-5.5-20-6.5-30.5-6c-10.8,0.6-21.8,3-30.5,9.3
		c-8.7,6.3-14.7,17.3-12.6,26.6c0.6,4.5,5.4,7.5,9.9,7.8s9-1.1,13.5-2.2c8.8-2,18-2.2,26.9-0.5c4.7,0.9,9.2,2.3,13.9,3
		c4.7,0.7,9.7,0.5,13.9-1.5C485.9,651.5,488.9,647.1,489.8,643.7z"/>
	<path class="st0" d="M428,652.3c-0.9-8,0.3-16.3,3.3-23.8"/>
	<path class="st0" d="M431.6,652.7c-2.2-7.2-2.3-15.2-0.2-22.5"/>
	<path class="st0" d="M456,652c2.8-7.6,3.8-15.9,2.8-24"/>
	<path class="st0" d="M459.9,654.7c1.5-8.4,1.2-17.1-0.8-25.4"/>
	<path class="st0" d="M421.5,617.4c-7.4,3.2-13.7,9.1-17.3,16.3c-1.5,3-2.6,6.4-2.5,9.8s1.5,6.9,4.2,9c4.8,3.8,11.8,2.1,17.8,1
		c9.9-1.8,20.1-1.5,29.9,0.8c7.7,1.8,15.7,4.9,23.2,2.7c7.8-2.3,13.2-10.3,13.5-18.5c0.3-8.2-4.1-16.1-10.5-21.1
		c-6.4-5-14.7-7.3-22.8-7.6c-8.1-0.3-16.2,1.4-24.1,3.7c-8.8,2.6-17.6,6.1-23.9,12.8"/>
	<path class="st0" d="M401,633.2c7.4-10.5,18.7-18.1,31.1-21.5s25.8-2.6,38,1.6c6,2.1,11.8,5.1,16.1,9.7s7.2,10.9,6.5,17.2
		s-5.4,12.2-11.6,13.5"/>
	<path class="st0" d="M408,652.5c4.2,2.3,9.4,2.2,14.2,1.3c4.8-0.9,9.4-2.4,14.2-2.8c7.3-0.5,14.5,1.8,21.6,3.8s14.6,3.6,21.7,1.7
		s13.5-8.4,12.8-15.7"/>
	<path class="st0" d="M295.4,462.7c-3.2,11.5-10.5,21.4-18.4,30.4c-7.9,8.9-16.6,17.2-23.8,26.7c-7.1,9.6-12.6,20.8-12.9,32.8"/>
	<path class="st0" d="M311.6,614.4c14.8,7.4,30.6,12.7,46.9,15.6"/>
	<path class="st0" d="M234.5,652.3c2.9-7.2,7.2-13.8,12.6-19.3"/>
	<path class="st0" d="M351.1,631.4c-14.8-4.6-29.2-10.3-43.1-17.2"/>
	<path class="st0" d="M300.9,612.4c-11-2.5-22.2-4.2-33.5-3.5c-11.2,0.7-22.5,3.9-31.7,10.7s-16.1,17.4-17.8,29.1
		c36.2,8.8,74,4.8,111,0.8c11.6-1.3,23.3-2.5,34.9-3.8c3.6-0.4,7.3-0.8,10.5-2.5c3.2-1.7,6-4.9,6.1-8.7"/>
	<path class="st0" d="M349.8,629.2c-12.7-5.3-25.5-10.1-38.5-14.5"/>
	<path class="st0" d="M299.9,613.2c-15.9-4.8-33.3-6.3-49-0.7s-29.4,19.1-32.6,36.1"/>
	<path class="st0" d="M382.5,635.4c-1.2,4-4.5,6.9-8.2,8.5c-3.6,1.6-7.7,2.2-11.6,2.6c-23.9,2.9-47.9,5.3-71.9,7.1
		c-14.8,1.1-29.6,1.9-44.3,0.7c-9.6-0.7-19.1-2.3-28.5-4.7"/>
	<path class="st0" d="M235.1,650.5c3.4-9.3,9.9-17.5,18.1-23"/>
	<path class="st0" d="M238.7,651.8c2.8-9.7,8.3-18.6,15.7-25.5"/>
	<path class="st0" d="M336.4,292.8c2.7,4,6,7.7,9.7,10.8c1.1,0.9,2.2,1.8,3.8,2.1c3.9,1.3,8.2-0.3,11.9-2.1c3.6-1.8,7.2-3.9,9.7-7"
		/>
	<path class="st0" d="M337.3,288.6c2.7-4.1,6.9-7.3,11.6-8.9"/>
	<path class="st0" d="M373.1,291.7c0.1-2-1.4-3.8-2.9-5.2c-3-2.8-6.4-5.2-10.1-7"/>
	<path class="st0" d="M350.9,307.2c-0.2,5.9-0.6,11.7-1.2,17.5"/>
	<path class="st0" d="M326.3,332.1c8.3,0.2,16.7-2.6,24-7.1c1.3,2,3.2,3.7,5.1,5.1c6.1,4.5,13.6,7,21.2,7.3"/>
	<path class="st0" d="M338.2,292c1.5,6.8,7.2,12.4,14,13.9"/>
	<path class="st0" d="M370.5,296.6c-5.3,3.9-11.1,7.2-17.2,9.5"/>
	<path class="st0" d="M347.1,278c-3.3,2.2-6.4,4.9-9,8"/>
	<path class="st0" d="M360.2,277.1c5,3.9,9.3,8.7,12.6,14.1"/>
	<path class="st0" d="M352.7,306c-0.4,6.7-1.4,13.4-2.9,20"/>
	<path class="st0" d="M325.2,332.8c6.3-1.1,12.5-2.9,18.4-5.2c2.5-1,5.2-2.4,6.9-4.9c4.9,9.2,15.4,15.1,25.8,14.5"/>
	<path class="st0" d="M334.5,201.2c-4.9,1.7-9.1,5.1-12,9.4c-1.5,2.4-2.7,5.4-1.4,7.9c1.3,2.6,4.5,3.5,7,4.8c5.5,2.9,9,9.3,8.5,15.5
		"/>
	<path class="st0" d="M284.8,407.5c1.6-3.3,3.8-6.2,6.8-9c-1.9,9.7,2.1,19.8,8,27.8c6.6,9,15.6,16.3,25.8,20.8"/>
	<path class="st0" d="M291.2,406.7c0.8,8.7,5.6,16.6,11.8,22.7s13.7,10.8,21.1,15.4"/>
	<path class="st0" d="M299.7,327.3c-10.5,10.5-17.6,24.2-20.2,38.8c-2.6,14.6-0.6,29.9,5.7,43.4"/>
	<path class="st0" d="M300.8,328.8c-19,20.7-25.8,51.9-17,78.6"/>
	<path class="st0" d="M291.7,396.8c-3.6,3.2-6.3,7.5-7.5,12.2"/>
	<path class="st0" d="M299.5,328.7c-15.2,15.7-22.5,38.7-19.2,60.3"/>
</g>
<g id="Layer_4">
	<path class="st0" d="M416.8,197.9c2.8,4.5,5.9,8.7,9.4,12.7"/>
	<path class="st0" d="M417.6,189.6c4.6,6.6,9.2,13.1,13.9,19.6"/>
	<path class="st0" d="M420,184.6c5.6,7.6,11.4,15.2,17.4,22.6"/>
	<path class="st0" d="M423.1,177.9c7,9,14.2,17.8,21.7,26.4"/>
	<path class="st0" d="M425.9,171.3c7.6,9.6,15.2,19.3,22.9,28.9"/>
	<path class="st0" d="M430,166c7.6,10.5,15.4,20.7,23.6,30.8"/>
	<path class="st0" d="M432.5,159.2c8,11.6,16.2,23,24.7,34.2"/>
	<path class="st0" d="M435.7,154.1c8.5,11.9,17,23.9,25.5,35.8"/>
	<path class="st0" d="M438.2,149.1c9.5,11.5,18.6,23.5,27,35.8"/>
	<path class="st0" d="M442.1,143.6c9.2,12.7,18.4,25.4,27.7,38.1"/>
	<path class="st0" d="M475,177.5c-10.8-13.4-20.5-27.6-29.1-42.5"/>
	<path class="st0" d="M480.4,171.6c-10.3-14.8-20.7-29.7-31-44.5"/>
	<path class="st0" d="M485.3,166.2c-10.4-14.9-21.1-29.5-32-44"/>
	<path class="st0" d="M490.9,161.4c-11-15.5-22.1-30.8-33.6-45.9"/>
	<path class="st0" d="M496.1,154.2c-11.4-14.5-22.9-28.9-34.7-43.1"/>
	<path class="st0" d="M500.2,148.1c-11-13.8-22-27.6-33-41.4"/>
	<path class="st0" d="M505,140.9c-10.6-14.8-21.7-29.3-33.2-43.5"/>
	<path class="st0" d="M509.8,132.6c-9.9-13.2-19.5-26.5-28.8-40"/>
	<path class="st0" d="M516.3,125.6c-9.3-12.9-18.9-25.6-28.9-37.9"/>
	<path class="st0" d="M521.4,117.1c-9.6-12.5-19.6-24.8-30-36.6"/>
	<path class="st0" d="M497.2,75.6c9.4,12,18.8,24,29.4,34.9"/>
	<path class="st0" d="M500.9,71.8c10.8,8.7,18,21.2,28.4,30.5"/>
	<path class="st0" d="M505.3,67.7c7.5,8,14.9,16.1,22.4,24.1c1.6,1.7,3.2,3.4,4.9,5"/>
	<path class="st0" d="M509.4,61.2c8.5,9.2,17,18.4,25.7,27.4"/>
	<path class="st0" d="M515.6,57.2c8.3,8.5,16.4,17.2,24.3,26.1"/>
	<path class="st0" d="M522.6,54c7,7.3,14,14.5,21.2,21.7"/>
	<path class="st0" d="M528.2,49.5c6.3,6.4,12.6,12.8,18.9,19.1c0.2,0.2,0.4,0.3,0.5,0.2s-0.2-0.4-0.2-0.2"/>
	<path class="st0" d="M534,45.9c5.4,5.2,10.9,10.5,16.3,15.8c0.1,0.1,0.3,0.3,0.5,0.2c0.2-0.1,0-0.4-0.1-0.3"/>
	<path class="st0" d="M542,43.5c4.3,3.8,8.5,7.7,12.5,11.8"/>
	<path class="st0" d="M544.9,36.2c3.6,3.2,7.1,6.6,10.2,10.2"/>
	<path class="st0" d="M318.7,210.2c0.5-3.2,1.1-6.4,1.9-9.6"/>
	<path class="st0" d="M313.9,209.4c0.6-4.2,1.6-8.4,3-12.4"/>
	<path class="st0" d="M308.4,206.9c1.4-5.1,2.8-10.3,4.2-15.4"/>
	<path class="st0" d="M303.9,203.7c1.8-8.2,4-16.2,6.7-24.1"/>
	<path class="st0" d="M298,199.2c3.3-8.8,6.6-17.6,9.9-26.4"/>
	<path class="st0" d="M293.6,195.4c1.1-5.8,3.3-11.2,5.5-16.6c1.8-4.3,3.5-8.6,5.3-12.9"/>
	<path class="st0" d="M289,190.8c3.6-10.6,7.2-21.2,10.8-31.8"/>
	<path class="st0" d="M283.7,187.3c3.4-9.2,6.9-18.5,10.3-27.7"/>
	<path class="st0" d="M277,185.7c3.9-10.1,7.7-20.1,11.6-30.2"/>
	<path class="st0" d="M271.9,182.8c3.7-10.3,7.8-20.4,12.2-30.4"/>
	<path class="st0" d="M265.9,177.8c5.4-10.6,10.4-21.3,15.2-32.1"/>
	<path class="st0" d="M260.3,174c5.8-11.5,11.6-23.1,17.4-34.6"/>
	<path class="st0" d="M256.4,168.2c5.6-11.6,11.7-23,18-34.2"/>
	<path class="st0" d="M253,163.3c1.9-4.9,4.3-9.6,6.7-14.3c3.5-6.7,7-13.4,10.5-20.1"/>
	<path class="st0" d="M249.6,154.5c5.2-9.4,10.4-18.8,15.5-28.3"/>
	<path class="st0" d="M246.4,148.8c4.4-8.6,9.2-17,14.4-25.1"/>
	<path class="st0" d="M242.8,142.3c4.3-8,8.9-15.8,13.9-23.4"/>
	<path class="st0" d="M238.8,135.5c4.8-6.9,9.6-13.9,14.4-20.9"/>
	<path class="st0" d="M234.8,130.8c5.2-7.1,10.4-14.2,15.4-21.4"/>
	<path class="st0" d="M230.9,127.2c4.6-8.2,10.3-15.9,16.7-22.9"/>
	<path class="st0" d="M227.5,122.7c5.8-8.6,11.7-17.2,17.5-25.9"/>
	<path class="st0" d="M222.6,117.2c5.9-8.1,11.9-16.1,17.8-24.2"/>
	<path class="st0" d="M218.8,111.3c6.1-8.3,12.2-16.7,18.3-25"/>
	<path class="st0" d="M216,103.6c6-7.5,11.9-15.1,17.8-22.7"/>
	<path class="st0" d="M213.4,97.1c5.2-6.5,10.4-13,15.6-19.6"/>
	<path class="st0" d="M210.6,92.8c4.6-6.7,9.6-13.2,15-19.3"/>
	<path class="st0" d="M207.4,85.4c3.4-4.6,7-9,10.6-13.4"/>
	<path class="st0" d="M203.3,82.1c3-4.5,6.4-8.7,10.1-12.6"/>
	<path class="st0" d="M198.9,78.3c3.3-3.7,6.6-7.4,9.9-11.2"/>
	<path class="st0" d="M194.9,73.4c2.4-2.5,4.7-4.9,7.1-7.4"/>
	<path class="st0" d="M191.1,68.6c1.4-1.9,2.9-3.8,4.3-5.8"/>
	<path class="st0" d="M185.9,64.1c0.9-1.1,1.9-2.2,2.8-3.4"/>
	<path class="st0" d="M182.9,60.1c0.7-0.9,1.5-1.8,2.2-2.7"/>
	<path class="st0" d="M332.4,450c11.9-2.3,24.8,2.1,32.8,11.1"/>
	<path class="st0" d="M336.5,449.1c-0.7,2.5-1.4,5-2.1,7.5"/>
	<path class="st0" d="M339,449.2c-1,3.7-2,7.5-2.9,11.2"/>
	<path class="st0" d="M343.1,449.4c-1.4,4.9-2.9,9.8-4.3,14.7"/>
	<path class="st0" d="M347,451.2c-1.9,5.4-3.6,10.9-5.1,16.5"/>
	<path class="st0" d="M350.3,451.9c-2.7,6.7-5,13.6-6.9,20.7"/>
	<path class="st0" d="M354.8,453.1c-3.9,8.4-7.2,17.2-9.6,26.2"/>
	<path class="st0" d="M357.5,455.3c-4,9.5-7.8,19.1-11.3,28.8"/>
	<path class="st0" d="M360.4,456.1c-5,11.5-9.5,23.2-13.3,35.2"/>
	<path class="st0" d="M362.5,458.9c-2.4,5.8-4.9,11.6-6.9,17.5c-2.3,6.5-4.2,13.2-7.4,19.3"/>
	<path class="st0" d="M293.9,468.7c-2.7,8.3-0.7,17.4,2.4,25.5s7.4,15.9,9.5,24.3c3.4,13.1,1.5,27.1,4.9,40.2
		c0.9,3.4,2.4,6.9,5.4,8.7c2.9,1.7,6.5,1.3,9.6,0.2c6.7-2.5,11.6-8.3,14.6-14.8s4.2-13.5,5.2-21.6c-0.5,9.5,0.7,19,3.4,28.1
		c1.5,5.1,4.2,10.7,9.4,11.8c5.1,1.1,9.9-2.8,13.1-6.9c9.7-12.5,13.3-29.7,24.9-40c21.5-16,32.5-43.2,34.9-70"/>
	<path class="st0" d="M295.1,472.7c-0.6,3.3-1.2,6.5-1.8,9.8"/>
	<path class="st0" d="M296.2,480.8c-0.6,3.1-1.2,6.2-1.9,9.3"/>
	<path class="st0" d="M298,488.1c-0.5,2.5-1,5.1-1.6,7.6"/>
	<path class="st0" d="M300.7,492c-0.6,3.4-1.2,6.7-1.9,10.1"/>
	<path class="st0" d="M302.5,495.5c-0.6,3.8-1.1,7.5-1.7,11.3"/>
	<path class="st0" d="M305.1,499.1c-0.8,4.1-1.7,8.2-2.5,12.3"/>
	<path class="st0" d="M307.1,502.6c-0.8,4.4-1.5,8.7-2.3,13.1"/>
	<path class="st0" d="M308.9,506.8c-1,4.8-2.1,9.6-3.1,14.4"/>
	<path class="st0" d="M311,510.4c-1.3,6.2-2.5,12.4-3.8,18.6"/>
	<path class="st0" d="M312.7,515.2c-1.5,7.2-3.2,14.3-5.2,21.3"/>
	<path class="st0" d="M314.5,520.8c-2.3,7.7-4.4,15.5-6.3,23.3"/>
	<path class="st0" d="M316,527.6c-2.8,8-4.8,16.2-6.1,24.6"/>
	<path class="st0" d="M316.4,535.5c-2,8.1-3.9,16.3-5.5,24.5"/>
	<path class="st0" d="M317.3,543.4c-1.3,6.9-2.9,13.7-4.6,20.5"/>
	<path class="st0" d="M319,550.6c-1,5.2-2.1,10.5-3.4,15.7"/>
	<path class="st0" d="M321.3,554c-0.8,4.7-1.6,9.5-2.4,14.2"/>
	<path class="st0" d="M324.2,554.8c-0.8,4.2-1.3,8.5-1.7,12.7"/>
	<path class="st0" d="M327.6,554.8c-0.9,4-1.5,8.1-1.7,12.2"/>
	<path class="st0" d="M330.6,553.5c-0.1,3.9-0.4,7.8-1,11.6"/>
	<path class="st0" d="M333.3,551.1c0,3.9-0.2,7.9-0.5,11.8"/>
	<path class="st0" d="M336.6,546.4c-0.1,4-0.2,8-0.6,12"/>
	<path class="st0" d="M339.1,541.7c-0.3,4.8-0.4,9.7-0.3,14.5"/>
	<path class="st0" d="M341,536c-0.1,4.8-0.1,9.5,0,14.3"/>
	<path class="st0" d="M343.3,532.5c0.1,3,0.2,6.1,0.3,9.1"/>
	<path class="st0" d="M348,541.7c-0.1,3-0.2,6-0.2,8.9"/>
	<path class="st0" d="M349.8,547.9c-0.1,4.6-0.2,9.2-0.4,13.8"/>
	<path class="st0" d="M353,551.2c-0.3,5.5-0.6,11-0.8,16.5"/>
	<path class="st0" d="M355.4,555c0.1,5.1,0,10.2-0.3,15.4"/>
	<path class="st0" d="M358.5,556.7c-0.2,5.3-0.2,10.5,0,15.8"/>
	<path class="st0" d="M361.8,556.6c-0.2,4.8-0.3,9.6-0.4,14.4"/>
	<path class="st0" d="M364.4,555.9c0.3,4.4,0.3,8.8,0.2,13.2"/>
	<path class="st0" d="M367.1,553.8c0,4.7,0.1,9.3,0.5,14"/>
	<path class="st0" d="M369.9,549.9c0.4,4.6,0.8,9.1,1.2,13.7"/>
	<path class="st0" d="M372.9,545.4c0.1,4.9,0.3,9.8,0.7,14.6"/>
	<path class="st0" d="M375.8,540c0.2,5.9,0.5,11.7,1,17.5"/>
	<path class="st0" d="M378.7,535.2c0,4.5,0.2,9.1,0.6,13.6"/>
	<path class="st0" d="M381.1,529.8c0.3,4.8,0.8,9.7,1.3,14.5"/>
	<path class="st0" d="M383.1,527c0.5,0.8,0.5,1.7,0.6,2.5c0.4,4,0.7,7.9,1.1,11.9"/>
	<path class="st0" d="M386.3,521.5c0.2,5.1,0.6,10.2,1.4,15.3"/>
	<path class="st0" d="M388.7,515.5c0.5,4.9,1.2,9.8,2,14.7"/>
	<path class="st0" d="M391.8,512.5c0.3,5,1,10,2,15"/>
	<path class="st0" d="M394.5,509.4c0.5,4.8,1.2,9.5,2.2,14.2"/>
	<path class="st0" d="M398.1,505.6c0.5,5.6,1.3,11.1,2.5,16.6"/>
	<path class="st0" d="M401.2,501.5c0.9,4.8,1.7,9.6,2.6,14.3c0.1,0.5,0.2,0.9,0.5,1.3"/>
	<path class="st0" d="M404.5,498.1c1,5,2.2,9.9,3.5,14.8"/>
	<path class="st0" d="M407.4,492.9c0.9,5.3,1.9,10.6,3,15.8"/>
	<path class="st0" d="M410.1,489.3c1.5,5.4,2.8,10.9,3.8,16.4"/>
	<path class="st0" d="M412.8,484.7c1,6.1,2.4,12,4.2,17.9"/>
	<path class="st0" d="M415.5,480.9c0.9,5.1,2.2,10.1,3.8,15.1"/>
	<path class="st0" d="M417.4,476.5c1,5,2.3,9.9,3.9,14.8"/>
	<path class="st0" d="M419.8,471.8c1.3,4.3,2.6,8.6,4,13"/>
	<path class="st0" d="M421.9,466.1c0.9,4.6,2.2,9.2,3.9,13.6"/>
	<path class="st0" d="M424.2,462c1.1,4,2.2,7.9,3.4,11.9"/>
	<path class="st0" d="M427.6,459.6c0.6,2.7,1.2,5.3,1.8,8"/>
	<path class="st0" d="M465.5,398.8c-2.7,6.2-7.3,11.7-13,15.4"/>
	<path class="st0" d="M457.1,410.1c-1.1,20.4-12.2,40.1-29,51.7"/>
	<path class="st0" d="M356.4,193.9c-35-71-101-126-177.1-147.6"/>
	<path class="st0" d="M178.5,58.6c20.1,19.8,34.4,44.3,49.2,68c14.4,23.1,30,46.1,51.5,63.3c12,9.7,25.9,17.4,41,21"/>
	<path class="st0" d="M173.8,50.8c1.2-3.2,4.8-5.1,8.2-5.2s6.8,1.1,10,2.3c34.6,13.4,67.5,31.7,95.7,55.8
		c28.2,24.1,51.7,54.1,66.3,88.3"/>
	<path class="st0" d="M175.3,55.8c17.5,13.5,29.6,32.8,40.2,52.2s20.2,39.6,34.2,56.8c18.1,22.2,43.2,38.6,70.9,46"/>
	<path class="st0" d="M252.8,77.5c-21.7-11.8-43.6-23.7-67.3-30.4c-2.2-0.6-4.6-1.2-6.9-0.7c-2.3,0.5-4.4,2.4-4.4,4.7
		c0,1.9,1.4,3.4,2.6,4.8c6.4,7,12.8,13.9,19.2,20.9"/>
	<path class="st0" d="M229,129.5c17.3,38.4,51.1,69,91,82.4"/>
	<path class="st0" d="M549,27.4c-70.4,37.6-129.4,96.1-167.3,166.3c0.2,0,0.3,0,0.5,0"/>
</g>
</svg>
