<?xml version="1.0" encoding="utf-8"?>
<!-- Generator: Adobe Illustrator 19.0.0, SVG Export Plug-In . SVG Version: 6.00 Build 0)  -->
<svg version="1.1" id="Layer_1" xmlns="http://www.w3.org/2000/svg" xmlns:xlink="http://www.w3.org/1999/xlink" x="0px" y="0px"
	 viewBox="0 0 500 500" style="enable-background:new 0 0 500 500;" xml:space="preserve">
<style type="text/css">
	.st0{fill:#FFFFFF;stroke:#000000;stroke-miterlimit:10;}
</style>
<path id="XMLID_1_" class="st0" d="M53.5,358.4c92.9-14.2,161.9-68,175.7-135c11-53.6-12-122.4-43.5-127.7
	C149,89.6,85.5,167.2,97,242.1c10.3,67.1,79.3,122.6,142.9,114.1c59.3-7.9,108.1-70.3,98.3-89.8c-6.5-12.9-42-14.2-55.9,1.1
	c-21.9,24.1,0.4,98.7,41.2,106.2c37.6,6.9,82.2-44.7,74.6-66.7c-3.7-10.8-21.4-17.8-27.7-13c-12.4,9.6,6.7,74.8,44.6,85.9
	c11.9,3.5,29.2,2.7,32.2-4.5c3.5-8.3-11.9-26-19.2-23.7c-8.8,2.8-12.2,36.7,3.4,58.8c9.9,14,27.5,23.4,29.9,20.9
	c1.8-1.8-2.7-11.7-9-13c-7.1-1.4-16.4,8.1-17.5,16.4c-1.6,12,13.5,26.5,38.4,35"/>
</svg>
