<?xml version="1.0" encoding="utf-8"?>
<!-- Generator: Adobe Illustrator 26.3.1, SVG Export Plug-In . SVG Version: 6.00 Build 0)  -->
<svg version="1.1" id="Layer_1" xmlns="http://www.w3.org/2000/svg" xmlns:xlink="http://www.w3.org/1999/xlink" x="0px" y="0px"
	 viewBox="0 0 200 200" style="enable-background:new 0 0 200 200;" xml:space="preserve">
<style type="text/css">
	.st0{fill:none;stroke:#000000;stroke-miterlimit:10;}
</style>
<path class="st0" d="M72.4,72.1c-4-5.9-11.2-9.2-18.4-9.1c-7.1,0-14,3.1-19.3,7.9c-5.3,4.8-9.3,11.6-9.2,18.7
	c0,7.9,4.9,15.3,11.7,19.2s15.2,4.6,22.9,2.8"/>
<path class="st0" d="M71.2,75.6c-11.1-9.6-28.5-10.9-40.9-3.1c-3,1.9-5.8,4.3-7.5,7.4c-1.5,2.6-2.2,5.6-2.3,8.5
	c-0.4,12,9.5,22.9,21.2,25.5c11.7,2.6,24.3-2.1,33-10.4"/>
<path class="st0" d="M74.6,85.5C67.5,83.7,59.9,80,57.5,73c-0.9-2.8-0.9-5.8-0.4-8.8c1.1-6.4,4.6-12.4,9.8-16.2s12.2-5.2,18.4-3.3
	c5.6,1.7,10.2,6,13,11.2s3.9,11.1,3.8,16.9"/>
<path class="st0" d="M61.7,79.6c-3.9-3.5-5.9-8.8-6-14s1.4-10.4,3.6-15.1c3.9-8.3,10.9-16.2,20-16.9c8.3-0.7,16.1,4.9,20.4,12
	s5.8,15.5,6.9,23.8"/>
<path class="st0" d="M56.7,72.5c-3.2-4.9-1.2-11.5,1.3-16.8c2.6-5.6,5.6-11.1,10.2-15.2s10.9-6.7,16.9-5.5
	c6.1,1.2,10.9,5.9,13.8,11.4c2.8,5.5,3.9,11.7,4.8,17.8"/>
<path class="st0" d="M99.1,69.9c0.4-5.2,3.6-9.8,7.6-13.1c4-3.3,8.8-5.4,13.6-7.5c3.2-1.4,6.5-2.8,10-2.8c4.2,0,8.1,2.1,11.1,5
	c6.2,6.1,8.4,16,5.3,24.2c-3.1,8.2-11.3,14.1-20,14.6"/>
<path class="st0" d="M81.2,88.8c5.7,6.9,9.2,15.4,11.3,24.1c2.1,8.7,2.9,17.6,3.7,26.6"/>
<path class="st0" d="M85.9,88.4c4.8,5.1,8.9,10.7,12.3,17.8c3-12.4,10.1-23.8,20-31.9"/>
<path class="st0" d="M114.7,82.5c-8.5,9.2-12.9,22.1-11.6,35.9c5.8,0.1,11.5-2,16.4-5.1c4.9-3.1,9.2-7.1,13.3-11.1"/>
<path class="st0" d="M135.1,106.4c-6.2,4.9-12.4,9.8-18.6,14.6"/>
<path class="st0" d="M97.1,125.5c0.8,3.3,0.3,6.7-0.3,10.1c-1.6,8.1-3.8,16.2-6.1,24.1"/>
<path class="st0" d="M69,110.1c-4.2,1.4-7.2,5.2-9,9.2c-1.4,3.2-2.3,6.8-1.5,10.2c0.7,3,2.6,5.6,5.1,7.5c5,3.9,11.7,4.8,17.9,3.7
	c6.2-1,12-3.8,17.5-6.7"/>
<path class="st0" d="M71,107c-5.4,3.4-8.7,9.3-10.8,15.3c-1.9,5.6-2.6,12.4,1.1,17c2.5,3.2,6.8,4.8,10.9,4.7
	c4.1-0.1,8.1-1.6,11.6-3.6"/>
<path class="st0" d="M140.9,85.5c4.1-2.7,10.2-2.1,13.7,1.4c2.7,2.7,3.7,6.8,3.3,10.6c-0.4,3.8-2.1,7.4-4.3,10.5
	c-7.3,10.2-20.4,15.8-32.8,14.1"/>
<path class="st0" d="M95.3,140.1c-2.2,8.5-4.3,17.1-8,25.1c-1.3,2.8-2.8,5.5-6.8,7.3c7.4-2.2,14.8-4.4,22.3-6
	c2.2-0.5,4.5-0.9,6.8-0.5c0.6,0.1,1.3,0.3,1.6,0.8"/>
<path class="st0" d="M112.7,127.8c-3.1,12.6-6.2,25.8-2.5,38.2c0.2,0.6,0.7,1.4,1.3,1"/>
<path class="st0" d="M81.7,91.6c5.1,5.3,8.4,12.1,10.5,19.1c2,7.1,2.8,14.4,3.5,21.7"/>
<path class="st0" d="M100.2,71.6c1.4-7.2,5.7-13.9,11.7-18.2c6-4.3,13.7-6.2,21-5.3c2,0.3,4,0.7,5.8,1.8c4.6,2.7,6.5,8.5,6.4,13.8
	c-0.1,8.3-4.3,16.5-11,21.4"/>
<path class="st0" d="M114,131.7c-1,0.3-1.9,0.9-2.4,1.8c3.5,3.4,8.7,4.4,13.5,4c4-0.3,8.2-1.5,11.2-4.3c3-2.7,4.7-7.1,3.6-11"/>
<path class="st0" d="M111.1,132.5c3.4,3.9,8.6,6.3,13.7,6.3c5.2,0.1,10.4-2.1,13.9-5.9c1.1-1.2,2.1-2.6,2.5-4.2
	c0.4-1.6,0.2-3.4-0.8-4.7"/>
</svg>
