<?xml version="1.0" encoding="utf-8"?>
<!-- Generator: Adobe Illustrator 19.0.0, SVG Export Plug-In . SVG Version: 6.00 Build 0)  -->
<svg version="1.1" id="Layer_1" xmlns="http://www.w3.org/2000/svg" xmlns:xlink="http://www.w3.org/1999/xlink" x="0px" y="0px"
	 viewBox="0 0 500 500" style="enable-background:new 0 0 500 500;" xml:space="preserve">
<style type="text/css">
	.st0{fill:none;stroke:#000000;stroke-miterlimit:10;}
</style>
<path id="XMLID_1_" class="st0" d="M81.8,364.7c-4.2-6.7-51.4-83.4-28.6-173C73.1,113.6,137.6,59.1,211,62.8"/>
<path id="XMLID_2_" class="st0" d="M69.9,164.4c8.4-13.3,21.9-31.8,41.3-49C151,80.3,190.4,73,208.8,69.8c22.9-3.9,43.2-1.6,83.9,3
	c39.3,4.5,60.9,11.2,81.1,22c9.6,5.1,17.2,10.2,22.5,14"/>
<path id="XMLID_3_" class="st0" d="M193.5,50.3c37.1,1.8,68.3,5.1,91.5,8c85.1,10.7,106.4,22.7,122.8,41c18.3,20.4,27.2,45,28.9,50
	c9.7,27.7,10.2,52.6,9.6,66"/>
<path id="XMLID_4_" class="st0" d="M375.8,113.4c9.5,0.2,27.8,2.6,39.3,19c8.1,11.5,9,24.5,10.4,41c8.1,93.1,14.5,90.2,9.6,111.1
	c-7.9,33.7-27.6,53.6-41.7,68c-26.3,26.7-53.4,36.2-68.2,40"/>
<path id="XMLID_5_" class="st0" d="M451.2,242.5c0.8,11.3,0.9,28.3-3.2,48c-7.3,34.8-23.3,56.5-31.3,67
	c-30.6,40.4-68.7,51.9-89.9,58c-49.5,14.2-90.3,3.1-118.8-5c-31.5-9-56.6-22.3-73.9-33"/>
<path id="XMLID_6_" class="st0" d="M257,439.6c-22.3,0.4-81.7-1.1-130.1-37c-10.2-7.6-25.2-19-37.7-41c-10-17.5-13.5-33.1-20.1-62
	c-7.9-34.8-11.8-52.2-8.8-71.1c4.5-27.9,18.9-46.3,28.9-59c13.6-17.4,27.7-27.5,36.9-33"/>
<path id="XMLID_7_" class="st0" d="M167.7,410.3c-21.5-8.6-50.2-24.9-68-55.3c-10.3-17.5-13.6-34-18-55.7
	c-6.2-30.7-6.9-56.7-6.3-74.7"/>
<path id="XMLID_8_" class="st0" d="M189.3,395.3c-47.4-8.5-63-28.4-68.7-38c-3.9-6.8-8.1-17.3-16.3-38.3c-5.3-13.4-9.3-24.7-12-32.3
	"/>
<path id="XMLID_9_" class="st0" d="M243,407c28.5,4.5,52,3.1,68,1c21.2-2.8,39.5-5.2,59.5-17.5c18.5-11.4,29.5-25.9,38-37
	c3-4,13.4-17.9,22.5-38.5c4.9-11.1,10.1-23.1,12.5-40c2-14,1.1-25,0.5-32c-1.4-16.2-4.3-22-8-41.5c-1.7-8.8-3.8-21.6-5-37.5"/>
<path id="XMLID_10_" class="st0" d="M266.5,80c23.8,0.4,42.2,4.2,54.5,7.5c26.9,7.3,25.8,12.8,51,18c7.8,1.6,19.7,3.5,32.5,12
	c5.7,3.8,9.8,7.7,12.5,10.5"/>
<path id="XMLID_11_" class="st0" d="M226.8,58.3c-8.4-0.7-17.9-1-28.3-0.5c-8.9,0.4-17,1.3-24.3,2.5"/>
<path id="XMLID_12_" class="st0" d="M230.3,429.5c13.5,3.2,32.2,6,54.3,4.7c14.8-0.9,27.7-3.5,38-6.3"/>
<path id="XMLID_13_" class="st0" d="M117.2,136.5c9-7.5,21.1-16.4,36.5-24.7c4-2.2,18.8-10,40-16.7c11.6-3.7,33.3-10.4,62.3-11
	c10.9-0.2,20,0.4,26.7,1.2"/>
<path id="XMLID_14_" class="st0" d="M87.8,293.7c-0.6-6.4-1.1-12.8-1.7-19.3c-0.5-6.2-0.9-12.3-1.3-18.3"/>
<path id="XMLID_15_" class="st0" d="M68,228.8c1.2-5.1,3-11,5.7-17.5c2.9-6.8,6.1-12.5,9-17"/>
<path id="XMLID_16_" class="st0" d="M351,393c-12.1,3.2-26.7,6-43.5,7c-9.4,0.6-18.1,0.5-26,0"/>
<path id="XMLID_17_" class="st0" d="M255.5,415.5c-8.5-2.3-17-4.7-25.5-7"/>
</svg>
