<?xml version="1.0" encoding="UTF-8"?><svg id="Layer_1" xmlns="http://www.w3.org/2000/svg" viewBox="0 0 85.234 140.038"><defs><style>.cls-1{fill:none;stroke:#000;stroke-miterlimit:10;}</style></defs><path class="cls-1" d="M32.289,39.132c-2.47-5.86-6.89-9.161-11.248-9.14s-8.593,3.134-11.841,7.876c-3.276,4.783-5.678,11.556-5.664,18.731,.016,7.862,3.026,15.288,7.193,19.231s9.316,4.617,13.998,2.776"/><path class="cls-1" d="M31.569,42.67c-6.788-9.561-17.454-10.88-25.047-3.098-1.837,1.883-3.524,4.287-4.6,7.362-.904,2.585-1.345,5.563-1.413,8.538-.273,11.998,5.825,22.912,13.007,25.497s14.872-2.147,20.229-10.373"/><path class="cls-1" d="M33.655,52.567c-4.39-1.791-9.039-5.561-10.47-12.569-.572-2.799-.555-5.845-.249-8.753,.672-6.365,2.788-12.379,5.992-16.169,3.204-3.791,7.492-5.192,11.271-3.278,3.424,1.734,6.242,6.026,7.947,11.174s2.367,11.093,2.352,16.945"/><path class="cls-1" d="M25.726,46.662c-2.403-3.466-3.614-8.788-3.699-14.021s.862-10.392,2.217-15.137C26.612,9.205,30.893,1.321,36.482,.558c5.072-.692,9.861,4.868,12.501,11.971,2.64,7.103,3.53,15.533,4.216,23.765"/><path class="cls-1" d="M22.651,39.577c-1.936-4.945-.707-11.467,.798-16.797,1.577-5.584,3.461-11.089,6.263-15.198s6.673-6.663,10.37-5.484c3.709,1.182,6.703,5.93,8.432,11.416s2.376,11.688,2.91,17.796"/><path class="cls-1" d="M48.626,36.996c.231-5.164,2.182-9.795,4.637-13.071s5.398-5.4,8.301-7.485c1.964-1.41,4.001-2.847,6.146-2.839,2.555,.009,4.982,2.117,6.808,5.034,3.824,6.11,5.159,16.018,3.259,24.184-1.9,8.166-6.928,14.128-12.273,14.553"/><path class="cls-1" d="M37.703,55.867c3.486,6.902,5.631,15.395,6.925,24.087,1.294,8.693,1.78,17.643,2.262,26.554"/><path class="cls-1" d="M40.57,55.455c2.913,5.084,5.459,10.726,7.546,17.777,1.825-12.414,6.197-23.793,12.249-31.878"/><path class="cls-1" d="M58.208,49.576c-5.218,9.221-7.889,22.145-7.129,35.932,3.551,.1,7.02-2.036,10.026-5.125s5.607-7.104,8.16-11.134"/><path class="cls-1" d="M70.715,73.426l-11.366,14.644"/><path class="cls-1" d="M47.428,92.527c.508,3.283,.186,6.743-.204,10.068-.956,8.146-2.307,16.154-3.743,24.109"/><path class="cls-1" d="M30.18,77.097c-2.565,1.389-4.386,5.185-5.496,9.208-.877,3.176-1.411,6.756-.937,10.153,.419,3.008,1.609,5.635,3.099,7.534,3.036,3.868,7.189,4.771,10.988,3.735s7.327-3.812,10.743-6.714"/><path class="cls-1" d="M31.401,74c-3.286,3.418-5.359,9.27-6.599,15.301-1.158,5.631-1.58,12.386,.681,17.039,1.56,3.21,4.167,4.756,6.676,4.693s4.934-1.57,7.126-3.566"/><path class="cls-1" d="M74.27,52.565c2.537-2.736,6.239-2.097,8.369,1.445,1.641,2.73,2.288,6.79,2.045,10.594s-1.297,7.371-2.658,10.485c-4.455,10.194-12.517,15.845-20.113,14.098"/><path class="cls-1" d="M46.311,107.193c-1.321,8.523-2.654,17.103-4.913,25.084-.797,2.813-1.705,5.538-4.177,7.311,4.518-2.202,9.043-4.407,13.662-5.95,1.371-.458,2.784-.858,4.163-.473,.373,.104,.779,.311,.969,.847"/><path class="cls-1" d="M57.001,94.841c-1.913,12.555-3.821,25.85-1.533,38.236,.113,.609,.453,1.362,.784,1.024"/><path class="cls-1" d="M38.007,58.618c3.149,5.253,5.173,12.082,6.408,19.149,1.235,7.067,1.726,14.416,2.154,21.732"/><path class="cls-1" d="M49.3,38.688c.876-7.246,3.494-13.891,7.168-18.2,3.675-4.309,8.368-6.236,12.854-5.279,1.232,.263,2.467,.747,3.542,1.765,2.819,2.667,3.978,8.473,3.929,13.792-.077,8.31-2.655,16.463-6.76,21.379"/><path class="cls-1" d="M57.786,98.71c-.608,.279-1.145,.949-1.471,1.833,2.126,3.359,5.303,4.378,8.253,4.017,2.48-.304,4.996-1.548,6.846-4.262s2.901-7.078,2.202-10.974"/><path class="cls-1" d="M56.002,99.558c2.105,3.893,5.239,6.251,8.419,6.332s6.358-2.113,8.537-5.896c.689-1.197,1.293-2.58,1.557-4.165s.147-3.4-.482-4.683"/></svg>