<?xml version="1.0" encoding="utf-8"?>
<!-- Generator: Adobe Illustrator 27.1.1, SVG Export Plug-In . SVG Version: 6.00 Build 0)  -->
<svg version="1.1" id="Layer_1" xmlns="http://www.w3.org/2000/svg" xmlns:xlink="http://www.w3.org/1999/xlink" x="0px" y="0px"
	 viewBox="0 0 800 800" style="enable-background:new 0 0 800 800;" xml:space="preserve">
<style type="text/css">
	.st0{fill:none;stroke:#000000;stroke-miterlimit:10;}
</style>
<path class="st0" d="M219.29,360.26c0.08-0.67,0.27-1.29,0.54-1.85s0.64-1.08,1.07-1.54s0.94-0.86,1.49-1.2
	c0.55-0.34,1.15-0.62,1.79-0.83s1.29-0.36,1.96-0.44c0.67-0.08,1.35-0.09,2.03-0.02c0.67,0.06,1.34,0.2,1.97,0.42
	s1.24,0.51,1.8,0.89c0.56,0.38,1.07,0.8,1.53,1.27c0.46,0.47,0.88,0.97,1.25,1.51c0.37,0.54,0.69,1.12,0.97,1.72
	s0.52,1.23,0.71,1.87c0.19,0.64,0.35,1.31,0.46,1.98c0.11,0.67,0.18,1.35,0.22,2.04c0.03,0.68,0.03,1.37-0.01,2.05
	c-0.04,0.68-0.12,1.36-0.23,2.02c-0.19,1.1-0.46,2.18-0.8,3.23s-0.75,2.07-1.22,3.07s-1,1.96-1.59,2.9
	c-0.59,0.94-1.23,1.85-1.92,2.73c-0.69,0.88-1.42,1.73-2.2,2.54c-0.77,0.82-1.59,1.6-2.43,2.35s-1.72,1.47-2.62,2.15
	c-0.9,0.68-1.82,1.32-2.76,1.93c-0.31,0.2-0.63,0.4-0.94,0.6c-0.32,0.2-0.64,0.39-0.96,0.57c-0.32,0.18-0.65,0.36-0.98,0.53
	c-0.33,0.17-0.67,0.33-1,0.49c-0.34,0.15-0.68,0.3-1.03,0.43c-0.35,0.13-0.69,0.26-1.05,0.37c-0.35,0.11-0.71,0.21-1.07,0.29
	c-0.36,0.08-0.72,0.16-1.09,0.21c-0.41,0.06-0.82,0.1-1.23,0.13c-0.41,0.02-0.82,0.03-1.23,0.01s-0.82-0.04-1.23-0.09
	c-0.41-0.05-0.82-0.11-1.22-0.19c-0.41-0.08-0.81-0.17-1.21-0.28c-0.4-0.11-0.8-0.23-1.19-0.36c-0.39-0.13-0.78-0.28-1.17-0.43
	s-0.76-0.32-1.14-0.5c-1.53-0.72-2.96-1.6-4.27-2.6c-1.31-1-2.52-2.14-3.61-3.38c-1.09-1.24-2.07-2.58-2.93-4.01
	c-0.86-1.43-1.62-2.94-2.25-4.51s-1.16-3.2-1.56-4.86c-0.4-1.66-0.69-3.36-0.85-5.07c-0.17-1.71-0.21-3.43-0.14-5.14
	s0.27-3.41,0.58-5.07s0.73-3.3,1.23-4.9s1.08-3.17,1.74-4.71c0.66-1.54,1.4-3.05,2.2-4.53c0.8-1.48,1.67-2.93,2.59-4.36
	c0.92-1.42,1.9-2.82,2.92-4.18c1.02-1.37,2.09-2.7,3.19-4.01c1.1-1.31,2.23-2.59,3.39-3.85c1.16-1.26,2.34-2.48,3.53-3.69
	c1.23-1.24,2.49-2.47,3.78-3.67c1.29-1.2,2.61-2.38,3.96-3.52c1.35-1.14,2.73-2.25,4.13-3.3c1.41-1.06,2.85-2.07,4.31-3.02
	s2.97-1.85,4.5-2.67c1.53-0.83,3.09-1.58,4.68-2.26c1.59-0.68,3.22-1.28,4.87-1.78c1.66-0.51,3.34-0.92,5.06-1.24
	c2.56-0.47,5.14-0.68,7.71-0.66c2.57,0.02,5.13,0.27,7.65,0.74c2.53,0.47,5.02,1.15,7.45,2.02s4.8,1.94,7.09,3.18
	s4.49,2.66,6.59,4.22c2.09,1.57,4.08,3.29,5.93,5.14c1.85,1.85,3.57,3.84,5.13,5.94c1.56,2.1,2.96,4.31,4.18,6.61
	c1.22,2.3,2.27,4.68,3.16,7.1c0.89,2.43,1.62,4.91,2.2,7.43s1,5.07,1.28,7.65c0.28,2.58,0.41,5.18,0.4,7.78s-0.16,5.22-0.44,7.82
	s-0.7,5.19-1.24,7.76c-0.54,2.57-1.21,5.11-2,7.6c-0.79,2.5-1.69,4.95-2.71,7.35s-2.14,4.74-3.35,7.04
	c-1.21,2.29-2.52,4.54-3.91,6.73s-2.86,4.33-4.41,6.42c-1.55,2.09-3.17,4.13-4.86,6.11s-3.44,3.92-5.25,5.81s-3.67,3.72-5.58,5.51
	c-1.91,1.79-3.87,3.53-5.87,5.22s-4.03,3.33-6.09,4.93c-1.1,0.85-2.21,1.69-3.33,2.51s-2.26,1.63-3.42,2.41
	c-1.15,0.78-2.32,1.54-3.51,2.27c-1.19,0.73-2.39,1.43-3.6,2.09c-1.22,0.66-2.45,1.29-3.7,1.88c-1.25,0.59-2.52,1.13-3.81,1.62
	c-1.29,0.49-2.59,0.94-3.91,1.32c-1.32,0.39-2.66,0.72-4.02,0.99c-2.29,0.45-4.59,0.71-6.9,0.78c-2.31,0.07-4.61-0.04-6.9-0.31
	c-2.29-0.28-4.56-0.73-6.8-1.33c-2.24-0.61-4.44-1.37-6.58-2.27c-2.15-0.91-4.24-1.96-6.26-3.14c-2.02-1.18-3.96-2.49-5.82-3.93
	s-3.62-2.98-5.27-4.64c-1.65-1.66-3.19-3.42-4.61-5.27s-2.7-3.79-3.88-5.78s-2.23-4.06-3.17-6.18c-0.94-2.12-1.76-4.29-2.47-6.5
	c-0.71-2.21-1.31-4.46-1.79-6.74s-0.86-4.59-1.12-6.91s-0.42-4.66-0.47-7c-0.05-2.34,0-4.69,0.16-7.02s0.42-4.66,0.78-6.96
	s0.82-4.58,1.36-6.84c0.54-2.26,1.17-4.49,1.88-6.71c0.71-2.21,1.5-4.4,2.36-6.56c0.86-2.16,1.8-4.29,2.8-6.4
	c1-2.1,2.07-4.18,3.2-6.23c1.13-2.05,2.31-4.06,3.55-6.04c1.24-1.98,2.53-3.93,3.87-5.85c1.34-1.92,2.72-3.8,4.14-5.65
	c1.9-2.47,3.88-4.88,5.94-7.24c2.05-2.35,4.18-4.64,6.39-6.86c2.2-2.22,4.48-4.37,6.82-6.43c2.34-2.06,4.75-4.05,7.23-5.94
	s5.02-3.69,7.62-5.39c2.6-1.7,5.27-3.3,8-4.78c2.73-1.49,5.51-2.86,8.35-4.12c2.84-1.26,5.74-2.39,8.69-3.4
	c2.95-1.01,5.95-1.87,8.99-2.6c3.04-0.72,6.12-1.3,9.22-1.73s6.22-0.71,9.34-0.85c3.12-0.13,6.25-0.11,9.36,0.07
	c3.11,0.18,6.21,0.51,9.27,1.01c3.07,0.5,6.1,1.15,9.09,1.98c2.99,0.82,5.93,1.81,8.8,2.97c2.88,1.16,5.69,2.49,8.41,3.99
	c0.97,0.53,1.92,1.08,2.86,1.66c0.94,0.57,1.87,1.16,2.79,1.77s1.83,1.23,2.73,1.87c0.9,0.64,1.79,1.29,2.66,1.96
	c0.88,0.67,1.75,1.35,2.6,2.04c0.86,0.69,1.71,1.4,2.55,2.12c0.84,0.72,1.67,1.44,2.49,2.18c0.82,0.74,1.63,1.48,2.44,2.24
	c3.21,3,6.31,6.16,9.27,9.45c2.96,3.29,5.78,6.72,8.43,10.27c2.66,3.55,5.15,7.22,7.46,10.99c2.31,3.77,4.43,7.65,6.34,11.61
	c1.91,3.96,3.61,8.01,5.08,12.13c1.47,4.12,2.7,8.31,3.68,12.56c0.98,4.25,1.7,8.55,2.14,12.88c0.44,4.34,0.6,8.71,0.46,13.11
	c-0.08,2.56-0.27,5.11-0.54,7.64c-0.28,2.54-0.65,5.06-1.11,7.57c-0.46,2.51-1.01,5-1.64,7.48c-0.63,2.47-1.34,4.93-2.13,7.36
	c-0.79,2.43-1.65,4.85-2.58,7.23c-0.93,2.39-1.94,4.75-3,7.08s-2.19,4.64-3.38,6.91c-1.19,2.27-2.43,4.52-3.72,6.72
	c-1.98,3.39-4.09,6.7-6.32,9.94s-4.58,6.39-7.05,9.45s-5.05,6.03-7.74,8.89c-2.69,2.86-5.49,5.62-8.39,8.26
	c-2.9,2.64-5.91,5.16-9.01,7.56c-3.1,2.39-6.3,4.66-9.59,6.78s-6.66,4.1-10.12,5.93c-3.46,1.83-7,3.5-10.63,5.01
	c-3.62,1.51-7.32,2.85-11.08,4c-3.76,1.16-7.57,2.14-11.42,2.93c-3.85,0.8-7.74,1.41-11.65,1.83c-3.91,0.42-7.83,0.66-11.75,0.7
	c-3.92,0.04-7.84-0.11-11.74-0.45c-3.9-0.35-7.78-0.89-11.61-1.64c-3.84-0.75-7.63-1.7-11.37-2.85c-3.74-1.16-7.41-2.52-11-4.09
	s-7.09-3.37-10.48-5.36c-3.39-1.99-6.66-4.18-9.79-6.55s-6.13-4.92-8.97-7.64c-2.84-2.71-5.52-5.59-8.03-8.61
	c-2.51-3.02-4.83-6.18-6.96-9.46c-2.13-3.28-4.05-6.69-5.76-10.2c-1.7-3.51-3.19-7.13-4.43-10.83c-1.24-3.7-2.24-7.49-2.97-11.35
	c-0.32-1.7-0.6-3.41-0.83-5.13s-0.41-3.44-0.55-5.16s-0.24-3.45-0.3-5.19c-0.06-1.73-0.08-3.47-0.07-5.2
	c0.01-1.74,0.06-3.47,0.13-5.21s0.18-3.47,0.31-5.21c0.13-1.73,0.29-3.47,0.46-5.19s0.38-3.45,0.59-5.18
	c0.5-3.99,1.1-7.98,1.81-11.96c0.71-3.97,1.52-7.93,2.44-11.87c0.92-3.93,1.95-7.84,3.1-11.71c1.15-3.87,2.41-7.7,3.8-11.48
	c1.39-3.78,2.89-7.51,4.52-11.18c1.63-3.67,3.39-7.28,5.28-10.81c1.89-3.54,3.92-7,6.08-10.38c2.16-3.38,4.46-6.68,6.9-9.88
	c1.16-1.52,2.35-3.02,3.57-4.5s2.47-2.93,3.75-4.35c1.28-1.43,2.58-2.83,3.91-4.21c1.33-1.38,2.69-2.73,4.07-4.06
	c1.38-1.33,2.78-2.63,4.21-3.91s2.88-2.53,4.35-3.76c1.47-1.23,2.96-2.43,4.48-3.61s3.04-2.33,4.59-3.45
	c4.89-3.55,9.97-6.84,15.21-9.85c5.24-3.01,10.63-5.74,16.15-8.2c5.52-2.45,11.17-4.62,16.91-6.51s11.58-3.48,17.49-4.78
	c5.9-1.3,11.87-2.3,17.88-3c6-0.7,12.04-1.1,18.08-1.19s12.09,0.13,18.1,0.66c6.02,0.53,12.01,1.38,17.94,2.55
	c1.9,0.38,3.8,0.78,5.69,1.22s3.77,0.9,5.65,1.39c1.88,0.49,3.75,1.01,5.61,1.55c1.86,0.54,3.72,1.11,5.57,1.69
	c1.85,0.59,3.69,1.2,5.53,1.82s3.67,1.27,5.5,1.94c1.83,0.66,3.65,1.34,5.46,2.04c1.81,0.69,3.62,1.4,5.42,2.12
	c1.97,0.79,3.93,1.59,5.89,2.41c1.96,0.82,3.91,1.66,5.85,2.52s3.87,1.74,5.79,2.65c1.92,0.91,3.82,1.84,5.71,2.81
	c1.89,0.96,3.76,1.95,5.62,2.98s3.69,2.08,5.5,3.17c1.81,1.09,3.61,2.22,5.37,3.38c1.77,1.16,3.51,2.37,5.23,3.61
	c2.83,2.05,5.57,4.21,8.23,6.47c2.66,2.26,5.23,4.61,7.72,7.05c2.49,2.44,4.89,4.96,7.22,7.57c2.32,2.6,4.56,5.28,6.73,8.03
	c2.16,2.75,4.24,5.56,6.24,8.44c2,2.87,3.93,5.81,5.77,8.79c1.85,2.98,3.62,6.01,5.31,9.08s3.31,6.18,4.86,9.31
	c1.55,3.14,3.02,6.3,4.44,9.49s2.76,6.41,4.06,9.65c1.29,3.24,2.53,6.51,3.72,9.79s2.33,6.59,3.42,9.91c1.1,3.32,2.15,6.66,3.17,10
	c1.02,3.35,2,6.71,2.95,10.08s1.87,6.75,2.77,10.13c0.9,3.38,1.77,6.77,2.63,10.16"/>
<path class="st0" d="M320.08,507.57c1.59-1.24,3.23-2.38,4.93-3.43s3.44-2.02,5.22-2.9c1.79-0.89,3.61-1.7,5.47-2.44
	s3.75-1.41,5.67-2.03c1.92-0.62,3.86-1.17,5.82-1.68s3.94-0.97,5.92-1.39c1.99-0.42,3.98-0.81,5.98-1.16c2-0.36,3.99-0.68,5.98-0.99
	c3.48-0.54,6.97-1.03,10.46-1.5c3.49-0.46,6.99-0.9,10.49-1.32c3.5-0.42,7-0.83,10.5-1.24s7-0.82,10.5-1.24
	c3.5-0.42,6.99-0.86,10.48-1.34c3.49-0.47,6.97-0.97,10.44-1.52c3.47-0.55,6.94-1.14,10.4-1.79c3.46-0.65,6.9-1.37,10.33-2.16
	s6.86-1.67,10.27-2.64c3.41-0.97,6.79-2.03,10.15-3.2c3.35-1.17,6.66-2.43,9.92-3.81c3.26-1.38,6.47-2.86,9.6-4.46
	c3.14-1.6,6.2-3.32,9.19-5.16c2.98-1.84,5.88-3.81,8.67-5.91s5.48-4.33,8.05-6.7s5.02-4.88,7.33-7.53"/>
<path class="st0" d="M222.57,358.89c0.24-0.46,0.51-0.92,0.81-1.36c0.3-0.44,0.64-0.86,1-1.26s0.75-0.77,1.15-1.11
	c0.41-0.34,0.84-0.65,1.28-0.93c0.45-0.27,0.91-0.51,1.38-0.7s0.96-0.34,1.45-0.44c0.49-0.1,0.99-0.14,1.5-0.13
	c0.5,0.01,1.01,0.08,1.52,0.22c0.57,0.15,1.09,0.37,1.57,0.65c0.48,0.28,0.92,0.61,1.33,0.99c0.4,0.38,0.77,0.81,1.09,1.27
	c0.33,0.46,0.62,0.97,0.87,1.5c0.26,0.53,0.48,1.08,0.66,1.66c0.19,0.57,0.34,1.16,0.46,1.76c0.12,0.6,0.21,1.2,0.28,1.8
	c0.06,0.6,0.09,1.2,0.1,1.79c0.01,0.93-0.03,1.85-0.1,2.78s-0.19,1.84-0.34,2.76c-0.15,0.91-0.34,1.82-0.57,2.72s-0.5,1.78-0.8,2.66
	c-0.3,0.87-0.64,1.74-1.02,2.58c-0.38,0.85-0.79,1.68-1.23,2.49c-0.45,0.81-0.93,1.6-1.44,2.37s-1.06,1.52-1.64,2.24
	s-1.19,1.42-1.83,2.09c-0.64,0.67-1.31,1.31-2,1.92c-0.69,0.61-1.42,1.19-2.16,1.75s-1.51,1.07-2.3,1.56s-1.59,0.94-2.42,1.36
	s-1.67,0.8-2.53,1.15c-0.86,0.35-1.73,0.66-2.62,0.93c-0.88,0.27-1.78,0.51-2.69,0.7"/>
<path class="st0" d="M202.43,391.66c-0.94-0.66-1.83-1.38-2.68-2.15c-0.85-0.77-1.66-1.58-2.41-2.44c-0.76-0.86-1.47-1.76-2.12-2.7
	c-0.66-0.94-1.26-1.91-1.81-2.92c-0.55-1.01-1.04-2.04-1.48-3.1s-0.81-2.14-1.13-3.24s-0.57-2.22-0.76-3.35
	c-0.19-1.13-0.31-2.27-0.36-3.41c-0.03-0.7-0.04-1.4-0.03-2.11s0.05-1.4,0.11-2.1c0.06-0.7,0.14-1.4,0.24-2.09
	c0.1-0.69,0.22-1.39,0.36-2.07s0.3-1.37,0.47-2.06c0.17-0.68,0.36-1.36,0.57-2.03s0.43-1.34,0.66-2.01s0.48-1.32,0.74-1.97
	c0.75-1.88,1.6-3.72,2.54-5.5c0.94-1.78,1.96-3.52,3.06-5.21c1.1-1.69,2.28-3.33,3.52-4.92c1.24-1.59,2.55-3.14,3.92-4.64
	c1.37-1.5,2.79-2.96,4.26-4.37s2.99-2.78,4.54-4.11s3.15-2.61,4.77-3.85c1.62-1.24,3.27-2.44,4.93-3.6c0.7-0.49,1.41-0.98,2.13-1.46
	s1.43-0.95,2.16-1.42c0.72-0.46,1.46-0.92,2.19-1.36s1.48-0.88,2.23-1.3s1.51-0.83,2.27-1.22c0.76-0.39,1.53-0.77,2.31-1.14
	s1.56-0.71,2.35-1.04s1.59-0.64,2.4-0.93s1.63-0.56,2.45-0.81c0.82-0.25,1.66-0.47,2.49-0.68c0.84-0.2,1.68-0.38,2.53-0.53
	s1.7-0.28,2.55-0.37c0.85-0.1,1.71-0.17,2.57-0.2c0.86-0.04,1.71-0.05,2.57-0.02s1.71,0.08,2.56,0.17c0.85,0.09,1.7,0.21,2.55,0.37
	c0.7,0.13,1.39,0.29,2.07,0.46s1.36,0.38,2.04,0.59c0.67,0.22,1.34,0.46,2,0.71s1.31,0.53,1.96,0.82s1.29,0.59,1.93,0.91
	s1.26,0.65,1.89,1c0.62,0.34,1.24,0.7,1.85,1.07c0.61,0.37,1.21,0.74,1.81,1.13c0.89,0.57,1.77,1.17,2.64,1.79
	c0.87,0.62,1.72,1.26,2.56,1.93s1.65,1.36,2.43,2.08c0.79,0.72,1.55,1.46,2.28,2.23s1.43,1.56,2.08,2.39
	c0.66,0.82,1.28,1.67,1.86,2.55c0.58,0.88,1.11,1.78,1.59,2.71c0.48,0.93,0.92,1.89,1.29,2.88"/>
<path class="st0" d="M301.79,358.34c0.21,1.18,0.35,2.36,0.43,3.55c0.08,1.19,0.11,2.37,0.08,3.56c-0.03,1.19-0.1,2.38-0.23,3.56
	s-0.29,2.37-0.5,3.55c-0.21,1.18-0.45,2.36-0.73,3.53c-0.28,1.17-0.58,2.34-0.92,3.5c-0.33,1.16-0.69,2.32-1.07,3.46
	c-0.38,1.15-0.77,2.28-1.18,3.41c-0.61,1.71-1.26,3.41-1.94,5.09c-0.68,1.69-1.39,3.37-2.14,5.03c-0.75,1.66-1.53,3.3-2.36,4.93
	c-0.82,1.62-1.69,3.22-2.59,4.79s-1.85,3.12-2.85,4.63c-0.99,1.51-2.03,2.99-3.12,4.43c-1.09,1.44-2.23,2.85-3.42,4.21
	c-1.19,1.36-2.43,2.68-3.73,3.95c-0.4,0.39-0.8,0.78-1.21,1.16c-0.41,0.38-0.82,0.76-1.24,1.13c-0.42,0.37-0.84,0.74-1.26,1.11
	c-0.42,0.36-0.85,0.73-1.28,1.08c-0.43,0.36-0.86,0.71-1.29,1.07c-0.43,0.35-0.87,0.7-1.31,1.05s-0.88,0.69-1.32,1.04
	c-0.44,0.34-0.88,0.69-1.33,1.03c-1.11,0.85-2.23,1.7-3.35,2.53c-1.13,0.83-2.26,1.66-3.41,2.47c-1.15,0.81-2.3,1.6-3.47,2.38
	c-1.17,0.77-2.35,1.53-3.54,2.26c-1.19,0.73-2.4,1.44-3.62,2.12c-1.22,0.68-2.45,1.33-3.7,1.95c-1.25,0.62-2.52,1.2-3.8,1.75
	c-1.28,0.55-2.58,1.06-3.9,1.53c-1.32,0.47-2.65,0.9-4.01,1.28s-2.72,0.71-4.1,0.99c-1.38,0.28-2.77,0.5-4.16,0.67
	c-1.39,0.17-2.79,0.28-4.19,0.33c-1.4,0.05-2.79,0.04-4.19-0.04c-1.39-0.08-2.77-0.22-4.15-0.44c-1.37-0.21-2.73-0.5-4.08-0.86
	c-1.34-0.36-2.67-0.79-3.97-1.3"/>
<path class="st0" d="M193.34,441.75c-0.59-0.26-1.17-0.54-1.73-0.85c-0.56-0.31-1.11-0.64-1.65-0.99c-0.54-0.35-1.06-0.72-1.57-1.11
	c-0.51-0.39-1.01-0.8-1.5-1.22c-0.49-0.42-0.96-0.86-1.42-1.31s-0.91-0.91-1.36-1.39s-0.87-0.96-1.29-1.45
	c-0.42-0.49-0.83-1-1.22-1.5c-1.44-1.84-2.76-3.76-3.95-5.75s-2.27-4.05-3.22-6.17s-1.79-4.29-2.51-6.5s-1.32-4.47-1.81-6.76
	c-0.49-2.29-0.87-4.6-1.13-6.93c-0.27-2.33-0.42-4.68-0.47-7.03c-0.05-2.35,0.01-4.7,0.17-7.05c0.16-2.34,0.42-4.68,0.79-6.99
	s0.82-4.6,1.36-6.87c0.54-2.27,1.17-4.51,1.87-6.73c0.7-2.22,1.48-4.42,2.33-6.59s1.77-4.32,2.75-6.44s2.03-4.22,3.13-6.29
	c1.1-2.07,2.26-4.11,3.46-6.13c1.2-2.01,2.45-4,3.74-5.96c1.29-1.96,2.62-3.89,3.99-5.79"/>
<path class="st0" d="M230.59,294.12c1.4-0.98,2.85-1.91,4.33-2.77c1.48-0.86,2.99-1.67,4.53-2.42c1.54-0.75,3.11-1.44,4.7-2.07
	c1.59-0.63,3.21-1.21,4.84-1.73c1.64-0.52,3.29-0.98,4.96-1.39c1.67-0.41,3.35-0.76,5.05-1.07c1.69-0.3,3.4-0.55,5.1-0.75
	s3.42-0.34,5.13-0.44c1.71-0.1,3.43-0.14,5.14-0.15c1.71,0,3.43,0.04,5.14,0.13c1.71,0.09,3.42,0.21,5.13,0.38
	c1.71,0.17,3.41,0.37,5.11,0.62c1.7,0.24,3.39,0.52,5.08,0.84c1.69,0.31,3.37,0.66,5.05,1.04c1.68,0.38,3.35,0.78,5.01,1.22
	c1.66,0.43,3.32,0.9,4.96,1.38c0.84,0.25,1.68,0.5,2.52,0.76c0.84,0.26,1.67,0.53,2.5,0.82s1.66,0.57,2.48,0.87
	c0.82,0.3,1.64,0.62,2.46,0.94c0.81,0.33,1.62,0.67,2.42,1.02s1.59,0.72,2.38,1.11c0.79,0.38,1.56,0.79,2.33,1.2
	c0.77,0.42,1.53,0.85,2.28,1.31c1.45,0.88,2.86,1.83,4.21,2.84c1.36,1.01,2.67,2.07,3.94,3.18c1.27,1.11,2.5,2.27,3.69,3.48
	c1.19,1.2,2.34,2.45,3.46,3.73c1.12,1.28,2.2,2.6,3.26,3.94c1.06,1.34,2.08,2.71,3.08,4.1c1,1.39,1.98,2.79,2.93,4.21
	c0.95,1.42,1.89,2.85,2.8,4.28c1.04,1.64,2.07,3.29,3.09,4.94c1.01,1.66,2.01,3.33,2.99,5s1.94,3.37,2.88,5.06
	c0.94,1.7,1.87,3.4,2.78,5.12c0.91,1.72,1.8,3.44,2.68,5.17c0.88,1.73,1.73,3.48,2.57,5.23c0.84,1.75,1.66,3.51,2.47,5.28
	s1.59,3.54,2.36,5.32"/>
<path class="st0" d="M375.37,353.04c1.18,1.62,2.25,3.31,3.21,5.05s1.83,3.53,2.6,5.36c0.77,1.83,1.43,3.71,2.01,5.62
	s1.05,3.85,1.44,5.82s0.69,3.96,0.91,5.96c0.22,2,0.35,4.02,0.4,6.04s0.03,4.04-0.07,6.05c-0.1,2.01-0.28,4.02-0.52,6.01
	c-0.25,1.99-0.56,3.96-0.92,5.93c-0.37,1.96-0.79,3.92-1.27,5.86c-0.47,1.94-1,3.87-1.57,5.79s-1.18,3.83-1.82,5.73
	c-0.65,1.9-1.33,3.79-2.04,5.67c-0.71,1.88-1.45,3.75-2.21,5.61c-0.76,1.86-1.54,3.72-2.33,5.56c-0.79,1.85-1.6,3.68-2.42,5.52
	c-0.96,2.17-1.94,4.34-2.95,6.5s-2.04,4.32-3.12,6.46s-2.18,4.25-3.34,6.34c-1.16,2.08-2.36,4.14-3.62,6.15s-2.58,3.97-3.96,5.88
	c-1.38,1.91-2.83,3.76-4.36,5.55s-3.12,3.5-4.81,5.14c-1.69,1.64-3.46,3.19-5.32,4.65"/>
<path class="st0" d="M355.07,477.8c-1.64,1.87-3.34,3.67-5.1,5.41c-1.76,1.74-3.58,3.42-5.44,5.05s-3.78,3.2-5.73,4.73
	s-3.95,3.01-5.98,4.45c-2.03,1.44-4.09,2.84-6.18,4.2c-2.09,1.36-4.2,2.69-6.33,3.99c-2.13,1.3-4.28,2.57-6.44,3.82
	s-4.33,2.47-6.51,3.68c-1.63,0.91-3.28,1.81-4.93,2.7c-1.65,0.89-3.32,1.76-4.99,2.62c-1.67,0.85-3.36,1.68-5.06,2.48
	c-1.7,0.8-3.41,1.56-5.13,2.29c-1.72,0.73-3.46,1.41-5.22,2.05c-1.75,0.64-3.52,1.22-5.3,1.75c-1.78,0.53-3.58,1-5.4,1.41
	s-3.65,0.75-5.5,1.01"/>
<path class="st0" d="M154.53,379.75c-0.5,1.87-1,3.75-1.49,5.63c-0.49,1.88-0.98,3.76-1.46,5.64c-0.48,1.88-0.94,3.77-1.39,5.66
	c-0.45,1.89-0.88,3.78-1.29,5.68c-0.41,1.9-0.8,3.79-1.16,5.7c-0.36,1.9-0.69,3.81-0.99,5.72c-0.3,1.91-0.56,3.83-0.79,5.75
	c-0.22,1.92-0.41,3.85-0.55,5.78c-0.14,1.93-0.23,3.88-0.28,5.82c-0.04,1.95-0.03,3.89,0.04,5.84c0.07,1.95,0.19,3.89,0.38,5.83
	s0.43,3.86,0.74,5.78c0.31,1.91,0.69,3.81,1.14,5.7c0.45,1.88,0.97,3.74,1.56,5.58c0.59,1.84,1.26,3.65,2.01,5.43
	c0.75,1.78,1.57,3.53,2.48,5.24"/>
<path class="st0" d="M150.74,440.17c-0.09,1.08-0.14,2.17-0.16,3.26c-0.01,1.09,0.01,2.17,0.07,3.26c0.06,1.08,0.16,2.17,0.29,3.25
	s0.3,2.16,0.5,3.23c0.2,1.07,0.43,2.14,0.7,3.19c0.26,1.06,0.56,2.11,0.88,3.15c0.32,1.04,0.68,2.08,1.05,3.1
	c0.38,1.02,0.79,2.04,1.22,3.04c0.62,1.45,1.3,2.88,2.02,4.28c0.72,1.4,1.49,2.78,2.29,4.13s1.65,2.69,2.53,4s1.79,2.6,2.73,3.87
	c0.94,1.27,1.91,2.52,2.9,3.76c0.99,1.23,2.01,2.45,3.04,3.65c1.03,1.2,2.09,2.39,3.15,3.56s2.14,2.33,3.23,3.48
	c0.32,0.33,0.63,0.67,0.95,1s0.64,0.66,0.97,0.99c0.33,0.33,0.66,0.65,0.99,0.97c0.33,0.32,0.67,0.63,1.02,0.93
	c0.35,0.3,0.7,0.6,1.05,0.89c0.36,0.29,0.72,0.57,1.09,0.83c0.37,0.27,0.75,0.52,1.14,0.76c0.39,0.24,0.78,0.47,1.19,0.68"/>
<path class="st0" d="M192.84,510.74c2.76,1.72,5.58,3.32,8.46,4.82c2.88,1.49,5.82,2.88,8.81,4.14c2.99,1.27,6.03,2.42,9.1,3.46
	c3.08,1.04,6.2,1.95,9.34,2.75c3.15,0.8,6.33,1.48,9.53,2.03c3.2,0.56,6.42,0.99,9.65,1.3c3.23,0.31,6.48,0.5,9.72,0.56
	c3.25,0.06,6.5-0.01,9.74-0.2"/>
<path class="st0" d="M157.36,374.93c0.66-3.62,1.53-7.17,2.58-10.66c1.05-3.49,2.29-6.91,3.69-10.28c1.4-3.36,2.95-6.66,4.65-9.91
	s3.52-6.43,5.46-9.56c1.94-3.13,3.99-6.21,6.13-9.24c2.14-3.03,4.37-6,6.66-8.93c2.29-2.93,4.64-5.81,7.03-8.65
	c2.39-2.84,4.82-5.63,7.27-8.38"/>
<path class="st0" d="M215.05,293.08c0.18-0.45,0.37-0.89,0.59-1.32c0.22-0.43,0.46-0.84,0.72-1.25c0.26-0.4,0.53-0.8,0.82-1.18
	s0.6-0.76,0.92-1.12s0.65-0.72,1-1.06c0.34-0.35,0.7-0.68,1.06-1.01c0.36-0.33,0.73-0.65,1.1-0.96s0.75-0.62,1.13-0.92
	c0.84-0.66,1.7-1.3,2.58-1.91c0.87-0.61,1.76-1.21,2.66-1.78c0.9-0.57,1.82-1.12,2.74-1.66c0.93-0.53,1.86-1.05,2.81-1.55
	c0.95-0.5,1.9-0.99,2.86-1.46s1.93-0.93,2.91-1.38s1.95-0.89,2.94-1.31c0.98-0.43,1.97-0.85,2.96-1.26c2.14-0.89,4.29-1.76,6.44-2.6
	c2.16-0.84,4.33-1.65,6.5-2.44c2.18-0.79,4.36-1.55,6.56-2.3c2.19-0.74,4.4-1.46,6.61-2.16c2.21-0.7,4.43-1.37,6.65-2.02
	c2.22-0.65,4.45-1.29,6.69-1.9c2.23-0.61,4.47-1.21,6.72-1.78s4.49-1.14,6.75-1.68"/>
<path class="st0" d="M323.18,256.23c3.71,0.01,7.43,0.12,11.14,0.34s7.41,0.53,11.1,0.95c3.69,0.42,7.37,0.93,11.03,1.55
	c3.66,0.61,7.31,1.33,10.93,2.14c3.62,0.81,7.23,1.72,10.8,2.73s7.12,2.11,10.64,3.31s7,2.49,10.44,3.88s6.85,2.87,10.22,4.44"/>
<path class="st0" d="M401.75,276.91c2.87,0.99,5.72,2.07,8.53,3.21c2.81,1.15,5.6,2.37,8.34,3.67c2.75,1.3,5.46,2.66,8.14,4.1
	c2.68,1.44,5.31,2.95,7.91,4.53c2.6,1.58,5.15,3.23,7.66,4.94s4.97,3.49,7.39,5.34c2.41,1.84,4.78,3.75,7.09,5.72
	c2.31,1.97,4.57,4,6.78,6.09"/>
<path class="st0" d="M472.18,325.95c2.14,2.65,4.2,5.36,6.17,8.12c1.98,2.77,3.87,5.59,5.69,8.47c1.81,2.88,3.54,5.81,5.19,8.79
	s3.2,6.01,4.67,9.07s2.85,6.18,4.14,9.33s2.49,6.33,3.59,9.55c1.11,3.22,2.12,6.47,3.03,9.74s1.74,6.58,2.46,9.91"/>
<path class="st0" d="M334.63,494.6c2.62-1.22,5.29-2.32,7.99-3.31c2.7-0.98,5.44-1.86,8.21-2.63s5.57-1.45,8.39-2.03
	c2.82-0.59,5.67-1.09,8.53-1.52c2.86-0.43,5.74-0.79,8.63-1.08c2.89-0.3,5.79-0.54,8.69-0.73c2.9-0.19,5.81-0.34,8.72-0.45
	c2.9-0.11,5.81-0.2,8.7-0.26s5.79-0.11,8.69-0.15c2.9-0.04,5.8-0.09,8.7-0.14c2.9-0.06,5.8-0.12,8.7-0.22
	c2.9-0.09,5.79-0.22,8.68-0.38c2.89-0.16,5.77-0.37,8.65-0.63s5.74-0.57,8.6-0.96s5.7-0.84,8.53-1.38s5.65-1.16,8.45-1.88
	s5.59-1.56,8.34-2.51c2.75-0.95,5.45-2.01,8.07-3.17c2.62-1.16,5.16-2.43,7.59-3.8s4.74-2.83,6.9-4.39c2.16-1.56,4.17-3.21,6-4.95
	c1.83-1.74,3.47-3.57,4.89-5.48c1.42-1.91,2.62-3.9,3.57-5.97c0.95-2.07,1.64-4.21,2.04-6.43c-0.65,1-1.33,1.98-2.04,2.93
	c-0.71,0.96-1.44,1.9-2.2,2.82c-0.76,0.92-1.54,1.82-2.34,2.7c-0.8,0.88-1.63,1.74-2.48,2.58c-0.85,0.84-1.72,1.66-2.6,2.46
	c-0.89,0.8-1.79,1.58-2.71,2.34c-0.92,0.76-1.86,1.5-2.81,2.22c-0.95,0.72-1.92,1.42-2.9,2.1c-2.56,1.77-5.19,3.41-7.89,4.92
	c-2.7,1.51-5.46,2.89-8.28,4.16s-5.69,2.42-8.61,3.47s-5.88,2-8.87,2.86c-3,0.86-6.02,1.63-9.08,2.31c-3.05,0.69-6.13,1.3-9.22,1.84
	c-3.09,0.54-6.19,1.02-9.29,1.45c-3.1,0.42-6.21,0.8-9.31,1.12s-6.2,0.62-9.34,0.9c-3.14,0.28-6.33,0.54-9.59,0.81
	c-3.26,0.27-6.6,0.55-10.05,0.86c-3.45,0.31-7.01,0.65-10.72,1.04c-3.71,0.39-7.57,0.83-11.61,1.35c-4.04,0.52-8.27,1.1-12.71,1.79
	c-4.44,0.69-9.11,1.47-14.03,2.37C345.26,492.43,340.09,493.44,334.63,494.6z"/>
<path class="st0" d="M490.3,357.61c1.42,2.76,2.8,5.53,4.16,8.32s2.68,5.59,3.98,8.4c1.3,2.81,2.57,5.64,3.8,8.48
	c1.24,2.84,2.45,5.69,3.63,8.56c1.18,2.87,2.33,5.74,3.45,8.63c1.12,2.89,2.21,5.79,3.27,8.7c1.06,2.91,2.09,5.84,3.08,8.77
	s1.96,5.88,2.9,8.83"/>
<path class="st0" d="M354.11,329.66c1.42,0.85,2.78,1.78,4.08,2.79c1.3,1.01,2.53,2.09,3.71,3.23c1.18,1.14,2.29,2.35,3.35,3.62
	c1.05,1.26,2.05,2.59,2.99,3.95c0.94,1.37,1.81,2.78,2.63,4.23s1.58,2.94,2.28,4.45s1.35,3.06,1.93,4.62
	c0.59,1.56,1.12,3.14,1.59,4.73c1,3.36,1.78,6.76,2.36,10.17c0.58,3.42,0.96,6.86,1.16,10.31s0.24,6.93,0.14,10.41
	s-0.35,6.98-0.72,10.47s-0.84,6.99-1.4,10.49c-0.56,3.5-1.21,6.99-1.91,10.47c-0.7,3.48-1.47,6.95-2.26,10.4s-1.61,6.89-2.43,10.3"
	/>
<path class="st0" d="M322.69,295.23c2.05,0.72,4.06,1.53,6.02,2.44c1.96,0.91,3.88,1.91,5.75,3s3.69,2.26,5.46,3.51
	c1.77,1.25,3.49,2.57,5.16,3.96c1.67,1.39,3.28,2.85,4.85,4.37c1.56,1.52,3.07,3.1,4.52,4.72s2.85,3.31,4.18,5.03
	c1.34,1.72,2.61,3.49,3.83,5.29s2.38,3.63,3.48,5.49c1.11,1.86,2.16,3.75,3.17,5.67c1.01,1.92,1.96,3.86,2.88,5.83
	c0.91,1.97,1.78,3.96,2.61,5.96c0.83,2.01,1.62,4.03,2.37,6.08c0.75,2.04,1.47,4.1,2.16,6.16c0.69,2.07,1.34,4.14,1.97,6.23
	c0.63,2.08,1.22,4.18,1.8,6.27c0.45,1.63,0.88,3.27,1.3,4.92c0.41,1.65,0.81,3.3,1.17,4.96c0.37,1.66,0.7,3.33,1.01,5
	s0.57,3.35,0.79,5.02c0.22,1.68,0.41,3.36,0.54,5.04s0.21,3.37,0.24,5.05c0.02,1.68-0.01,3.37-0.11,5.05
	c-0.1,1.68-0.26,3.36-0.5,5.04c-0.32,2.27-0.76,4.5-1.32,6.7c-0.56,2.2-1.22,4.36-1.98,6.5c-0.76,2.14-1.61,4.24-2.54,6.32
	s-1.94,4.13-3.01,6.16c-1.07,2.03-2.2,4.03-3.38,6.02s-2.4,3.95-3.64,5.89c-1.25,1.95-2.52,3.87-3.81,5.79
	c-1.29,1.91-2.59,3.81-3.89,5.7"/>
<path class="st0" d="M211.23,523.22c2.15,1.06,4.34,2.02,6.57,2.88s4.49,1.62,6.79,2.28c2.29,0.66,4.62,1.22,6.96,1.69
	c2.34,0.47,4.71,0.84,7.09,1.12s4.77,0.47,7.17,0.58c2.4,0.1,4.8,0.12,7.2,0.04c2.4-0.07,4.8-0.23,7.19-0.47
	c2.39-0.24,4.77-0.56,7.13-0.96s4.71-0.88,7.04-1.43c2.33-0.55,4.64-1.17,6.93-1.85c2.29-0.69,4.56-1.44,6.81-2.25
	c2.25-0.81,4.48-1.69,6.69-2.62s4.39-1.92,6.56-2.95s4.3-2.13,6.42-3.26c2.12-1.14,4.21-2.32,6.27-3.54
	c2.07-1.22,4.1-2.49,6.12-3.79"/>
<path class="st0" d="M211.44,454.3c0.73,0.25,1.47,0.45,2.21,0.61c0.75,0.16,1.5,0.29,2.26,0.37c0.76,0.09,1.52,0.14,2.29,0.16
	c0.77,0.02,1.53,0.01,2.3-0.03c0.77-0.04,1.54-0.1,2.31-0.19c0.77-0.09,1.54-0.2,2.31-0.33s1.53-0.28,2.29-0.44
	c0.76-0.16,1.51-0.33,2.26-0.52c3.74-0.92,7.42-2.07,11.01-3.44c3.59-1.37,7.1-2.97,10.5-4.77c3.4-1.8,6.7-3.8,9.87-5.98
	c3.17-2.18,6.21-4.55,9.11-7.09c2.9-2.54,5.65-5.24,8.24-8.09s5-5.85,7.24-8.98s4.28-6.4,6.12-9.77c1.84-3.38,3.47-6.87,4.88-10.46"
	/>
<path class="st0" d="M278.14,306.54c0.96,0.29,1.88,0.64,2.76,1.06c0.89,0.42,1.74,0.9,2.56,1.44c0.82,0.54,1.61,1.13,2.36,1.77
	c0.75,0.64,1.47,1.32,2.16,2.05s1.34,1.48,1.97,2.27c0.62,0.79,1.22,1.61,1.78,2.45s1.09,1.71,1.59,2.59
	c0.5,0.88,0.96,1.77,1.4,2.67c0.74,1.51,1.41,3.05,2.02,4.61c0.61,1.56,1.16,3.14,1.67,4.74c0.5,1.6,0.96,3.21,1.37,4.84
	s0.78,3.27,1.11,4.92s0.63,3.31,0.91,4.98c0.27,1.67,0.52,3.34,0.76,5.02c0.23,1.68,0.45,3.36,0.65,5.04
	c0.2,1.68,0.4,3.36,0.59,5.03"/>
<path class="st0" d="M235.72,378.19c-0.47,0.74-0.94,1.48-1.43,2.21c-0.49,0.73-0.98,1.45-1.49,2.17c-0.51,0.71-1.03,1.42-1.57,2.11
	c-0.54,0.69-1.09,1.37-1.66,2.03c-0.57,0.66-1.15,1.31-1.76,1.93c-0.6,0.63-1.23,1.23-1.87,1.81c-0.64,0.58-1.31,1.14-2,1.67
	c-0.69,0.53-1.4,1.03-2.13,1.5s-1.5,0.91-2.29,1.3c-0.79,0.4-1.6,0.75-2.42,1.06s-1.67,0.58-2.52,0.79
	c-0.85,0.22-1.71,0.39-2.58,0.5c-0.87,0.12-1.73,0.18-2.6,0.18s-1.73-0.05-2.58-0.16c-0.85-0.11-1.69-0.29-2.52-0.53
	s-1.63-0.55-2.42-0.93c-0.42-0.2-0.84-0.43-1.24-0.66c-0.4-0.24-0.8-0.49-1.18-0.76c-0.38-0.27-0.75-0.56-1.12-0.86
	s-0.71-0.61-1.05-0.94c-0.34-0.32-0.67-0.66-0.99-1.01s-0.63-0.71-0.92-1.07s-0.58-0.74-0.86-1.13c-0.27-0.38-0.54-0.77-0.79-1.17
	c-0.85-1.34-1.58-2.74-2.18-4.17s-1.09-2.92-1.47-4.43s-0.64-3.05-0.81-4.62s-0.24-3.14-0.22-4.74c0.02-1.59,0.13-3.19,0.32-4.79
	s0.46-3.19,0.8-4.77s0.75-3.15,1.22-4.69c0.47-1.54,1-3.06,1.59-4.54c1.11-2.82,2.4-5.56,3.85-8.22s3.06-5.22,4.81-7.68
	s3.66-4.82,5.69-7.07c2.03-2.24,4.19-4.37,6.47-6.37s4.66-3.87,7.15-5.59c2.49-1.72,5.08-3.31,7.74-4.73
	c2.67-1.42,5.42-2.69,8.24-3.79c2.82-1.1,5.71-2.02,8.65-2.76c1.6-0.4,3.25-0.74,4.92-0.99s3.36-0.44,5.06-0.53
	c1.7-0.09,3.4-0.1,5.08-0.01c1.68,0.09,3.35,0.28,4.97,0.58c1.63,0.3,3.22,0.7,4.75,1.22c1.53,0.52,3,1.16,4.4,1.93
	c1.39,0.77,2.71,1.66,3.93,2.7c1.22,1.03,2.34,2.2,3.33,3.52"/>
<path class="st0" d="M169.05,382.18c0.01,1.56,0.02,3.12,0.03,4.68c0.02,1.56,0.04,3.13,0.07,4.69c0.04,1.56,0.08,3.13,0.15,4.69
	s0.15,3.12,0.26,4.67c0.11,1.55,0.25,3.11,0.41,4.65c0.17,1.55,0.36,3.09,0.6,4.62c0.24,1.54,0.51,3.06,0.82,4.59
	c0.32,1.52,0.68,3.03,1.08,4.54s0.87,3,1.4,4.48s1.1,2.94,1.74,4.38c0.64,1.44,1.33,2.85,2.08,4.22c0.75,1.38,1.56,2.71,2.43,4.01
	c0.87,1.29,1.79,2.54,2.78,3.74c0.99,1.2,2.03,2.34,3.13,3.41c1.1,1.08,2.27,2.09,3.49,3.03s2.51,1.81,3.86,2.59
	c0.44,0.26,0.88,0.5,1.33,0.74c0.45,0.24,0.9,0.46,1.36,0.68c0.46,0.22,0.92,0.43,1.38,0.64c0.46,0.2,0.93,0.4,1.4,0.59
	c0.47,0.19,0.94,0.37,1.42,0.55c0.48,0.18,0.95,0.34,1.44,0.51c0.48,0.16,0.96,0.32,1.45,0.47c0.48,0.15,0.97,0.3,1.46,0.44
	c2,0.58,4.05,1.07,6.12,1.46c2.07,0.39,4.17,0.68,6.28,0.87s4.22,0.26,6.33,0.23c2.1-0.04,4.2-0.19,6.27-0.46
	c2.07-0.27,4.11-0.67,6.1-1.2c1.99-0.53,3.94-1.19,5.82-1.99c1.88-0.8,3.7-1.74,5.44-2.82c1.74-1.09,3.39-2.32,4.95-3.71"/>
<path class="st0" d="M290.37,281.18c2.52-0.14,5.02-0.07,7.48,0.18c2.47,0.25,4.9,0.69,7.3,1.29c2.4,0.6,4.77,1.37,7.1,2.27
	c2.33,0.9,4.62,1.94,6.87,3.1c2.25,1.16,4.46,2.43,6.62,3.8c2.16,1.37,4.28,2.83,6.35,4.35c2.07,1.53,4.09,3.13,6.06,4.77
	s3.88,3.33,5.74,5.05c2.23,2.06,4.43,4.19,6.58,6.38c2.14,2.2,4.23,4.46,6.25,6.79c2.01,2.33,3.94,4.72,5.78,7.18
	c1.83,2.46,3.56,4.98,5.16,7.56s3.08,5.22,4.41,7.92s2.51,5.46,3.51,8.27s1.84,5.68,2.48,8.61c0.64,2.92,1.08,5.9,1.3,8.93"/>
<path class="st0" d="M235.73,291.8c-3.12,2.2-6.22,4.46-9.29,6.78s-6.1,4.69-9.08,7.14c-2.97,2.45-5.89,4.96-8.73,7.55
	s-5.59,5.25-8.25,8c-2.65,2.75-5.2,5.58-7.62,8.5c-2.42,2.92-4.72,5.93-6.87,9.04c-2.15,3.11-4.15,6.31-5.97,9.62
	c-1.83,3.31-3.48,6.72-4.94,10.25c-0.92,2.21-1.75,4.45-2.49,6.72c-0.75,2.27-1.41,4.57-1.99,6.89s-1.07,4.66-1.48,7.02
	s-0.73,4.73-0.96,7.11c-0.23,2.38-0.38,4.77-0.44,7.16s-0.03,4.78,0.08,7.17c0.11,2.39,0.32,4.77,0.61,7.14
	c0.29,2.37,0.67,4.73,1.14,7.08c0.26,1.32,0.56,2.64,0.88,3.96c0.32,1.31,0.68,2.62,1.06,3.92c0.38,1.3,0.8,2.58,1.25,3.86
	c0.45,1.27,0.93,2.54,1.45,3.78c0.52,1.25,1.07,2.48,1.66,3.69c0.59,1.21,1.21,2.41,1.87,3.58s1.36,2.32,2.1,3.45
	c0.74,1.13,1.51,2.23,2.33,3.3c0.82,1.08,1.67,2.12,2.57,3.13s1.83,1.99,2.81,2.93c0.97,0.94,1.98,1.84,3.03,2.7
	s2.12,1.68,3.23,2.44c1.11,0.77,2.25,1.49,3.42,2.16c1.17,0.67,2.37,1.28,3.59,1.84c1.22,0.56,2.47,1.06,3.74,1.49
	s2.57,0.81,3.88,1.12"/>
<path class="st0" d="M232.29,279.89c-6.58,3.24-12.89,6.98-18.9,11.17c-6,4.18-11.69,8.8-17.04,13.8
	c-5.34,5-10.34,10.37-14.95,16.07c-4.61,5.69-8.84,11.7-12.65,17.97c-3.81,6.27-7.19,12.79-10.12,19.51s-5.4,13.63-7.37,20.68
	c-1.97,7.05-3.45,14.23-4.4,21.48s-1.36,14.58-1.2,21.92"/>
<path class="st0" d="M621.83,393.37c1.27,0.7,2.51,1.48,3.71,2.31c1.2,0.83,2.36,1.73,3.48,2.68c1.12,0.95,2.2,1.96,3.24,3.01
	s2.03,2.16,2.97,3.3c0.94,1.14,1.84,2.33,2.68,3.55s1.63,2.48,2.37,3.77c0.74,1.29,1.42,2.6,2.04,3.94c0.62,1.34,1.18,2.7,1.68,4.07
	c0.25,0.75,0.5,1.48,0.75,2.21s0.5,1.43,0.75,2.12s0.5,1.38,0.75,2.05s0.5,1.34,0.75,1.99s0.5,1.3,0.75,1.95s0.5,1.28,0.75,1.91
	s0.5,1.26,0.75,1.89s0.5,1.25,0.75,1.88c0.75,1.88,1.12,3.66,1.18,5.34s-0.2,3.28-0.71,4.77s-1.29,2.89-2.26,4.18
	s-2.14,2.49-3.46,3.58s-2.77,2.09-4.3,2.97s-3.15,1.67-4.79,2.35s-3.3,1.25-4.93,1.72s-3.22,0.83-4.72,1.08
	c-2.25,0.25-4.59,0.44-6.99,0.61s-4.84,0.34-7.29,0.54s-4.91,0.45-7.34,0.78s-4.82,0.75-7.13,1.32s-4.55,1.27-6.66,2.16
	s-4.11,1.98-5.93,3.31s-3.49,2.9-4.95,4.76S577,479.5,576,482c-0.5,1.5-0.97,3.02-1.42,4.54s-0.89,3.06-1.33,4.6
	s-0.88,3.08-1.33,4.62s-0.92,3.08-1.42,4.61s-1.03,3.05-1.61,4.56s-1.2,3.01-1.89,4.48s-1.44,2.93-2.27,4.37S563,516.62,562,518
	c-0.5,0.5-1.02,1-1.54,1.5s-1.07,0.99-1.63,1.47s-1.12,0.96-1.7,1.43s-1.16,0.92-1.76,1.36s-1.2,0.86-1.8,1.26s-1.22,0.79-1.84,1.14
	s-1.24,0.7-1.86,1s-1.25,0.59-1.87,0.84c-2.38,1-4.78,1.81-7.21,2.47s-4.89,1.17-7.37,1.56s-4.97,0.66-7.48,0.86
	s-5.03,0.3-7.56,0.36s-5.07,0.08-7.61,0.08s-5.08,0-7.62,0.01s-5.07,0.05-7.6,0.15s-5.04,0.25-7.54,0.5c-0.5,0-1.02,0.02-1.54,0.04
	s-1.07,0.07-1.61,0.13s-1.1,0.12-1.66,0.2s-1.12,0.16-1.68,0.26s-1.12,0.2-1.68,0.3s-1.11,0.22-1.66,0.34s-1.09,0.24-1.61,0.36
	s-1.04,0.25-1.54,0.37c-0.12,0-0.25,0.03-0.38,0.09s-0.25,0.13-0.38,0.23s-0.25,0.2-0.38,0.32s-0.25,0.24-0.38,0.37
	s-0.25,0.25-0.38,0.37s-0.25,0.23-0.38,0.32s-0.25,0.17-0.38,0.23S472.12,538,472,538c-0.25,0.12-0.52,0.23-0.79,0.33
	s-0.57,0.18-0.86,0.26s-0.6,0.15-0.91,0.21s-0.62,0.13-0.93,0.19s-0.62,0.12-0.93,0.19s-0.61,0.14-0.91,0.21s-0.59,0.16-0.86,0.26
	s-0.54,0.21-0.79,0.33c-1.62,1-3.23,2.02-4.84,3.04s-3.2,2.05-4.79,3.07s-3.19,2.04-4.79,3.05s-3.21,2-4.84,2.97
	s-3.27,1.91-4.93,2.83s-3.35,1.79-5.07,2.63s-3.47,1.63-5.26,2.37s-3.62,1.43-5.49,2.05c-1.38,0.5-2.75,0.94-4.13,1.32
	s-2.76,0.7-4.14,0.96s-2.77,0.48-4.16,0.64s-2.79,0.27-4.2,0.33s-2.82,0.08-4.24,0.05s-2.86-0.1-4.3-0.21s-2.9-0.26-4.37-0.44
	s-2.96-0.4-4.46-0.65c-3.62-0.62-7.28-1.2-10.95-1.7s-7.36-0.92-11.04-1.23c-3.68-0.31-7.36-0.51-11.03-0.57
	c-3.66-0.06-7.31,0.02-10.91,0.28s-7.18,0.68-10.7,1.31s-6.99,1.47-10.39,2.54s-6.73,2.38-9.97,3.96c-3.24,1.58-6.4,3.42-9.46,5.57"
	/>
<path class="st0" d="M591.23,390.81c0.91-0.36,1.84-0.68,2.77-0.96c0.93-0.28,1.88-0.52,2.82-0.72s1.9-0.36,2.86-0.48
	c0.96-0.12,1.92-0.2,2.89-0.24c0.96-0.04,1.93-0.04,2.9,0.01c0.97,0.04,1.93,0.13,2.89,0.26s1.92,0.29,2.87,0.5
	c0.95,0.21,1.9,0.46,2.84,0.76"/>
<path class="st0" d="M584.91,393.52c-0.82,0.4-1.63,0.82-2.44,1.26c-0.8,0.43-1.6,0.88-2.39,1.34c-0.79,0.46-1.58,0.93-2.35,1.42
	c-0.78,0.48-1.55,0.98-2.31,1.48c-0.76,0.51-1.52,1.02-2.27,1.55c-0.75,0.52-1.5,1.06-2.23,1.6c-0.74,0.54-1.47,1.09-2.19,1.65
	c-0.73,0.56-1.44,1.12-2.16,1.69c-1.19,0.95-2.35,1.93-3.49,2.92c-1.13,1-2.24,2.02-3.32,3.05c-1.08,1.04-2.14,2.09-3.19,3.16
	c-1.04,1.07-2.07,2.15-3.08,3.25c-1.01,1.1-2.01,2.2-3.01,3.32c-0.99,1.12-1.98,2.24-2.97,3.37c-0.98,1.13-1.97,2.27-2.95,3.41
	c-0.99,1.14-1.97,2.28-2.97,3.42c-0.83,0.95-1.69,1.91-2.56,2.86c-0.88,0.95-1.78,1.89-2.7,2.81c-0.92,0.92-1.86,1.81-2.81,2.67
	c-0.95,0.85-1.92,1.67-2.9,2.43c-0.98,0.76-1.97,1.47-2.97,2.11s-2,1.21-3.01,1.69s-2.02,0.88-3.04,1.18
	c-1.01,0.3-2.03,0.5-3.04,0.58c3.27-1.49,6.35-3.25,9.3-5.22c2.95-1.96,5.77-4.12,8.49-6.42c2.72-2.3,5.36-4.74,7.94-7.25
	c2.58-2.51,5.12-5.1,7.65-7.7c2.53-2.6,5.06-5.21,7.63-7.76s5.17-5.06,7.86-7.45c2.69-2.39,5.46-4.66,8.36-6.75
	C578.69,397.1,581.71,395.19,584.91,393.52z"/>
<path class="st0" d="M621.18,395.85c0.32-0.08,0.63-0.11,0.94-0.1s0.62,0.04,0.92,0.12c0.3,0.07,0.6,0.17,0.89,0.3
	c0.29,0.13,0.58,0.28,0.85,0.45c0.28,0.17,0.55,0.37,0.82,0.57c0.27,0.21,0.52,0.43,0.78,0.66c0.25,0.23,0.49,0.47,0.73,0.71
	c0.23,0.24,0.46,0.49,0.68,0.73c0.33,0.37,0.66,0.74,0.99,1.12c0.33,0.37,0.66,0.75,0.98,1.12c0.33,0.38,0.65,0.75,0.97,1.13
	s0.65,0.76,0.97,1.13c0.32,0.38,0.64,0.76,0.96,1.14s0.64,0.76,0.95,1.15c0.32,0.38,0.63,0.77,0.95,1.15
	c0.31,0.39,0.63,0.77,0.94,1.16c0.87,1.08,1.73,2.19,2.58,3.31s1.67,2.27,2.47,3.44c0.8,1.17,1.56,2.36,2.28,3.57
	c0.72,1.21,1.39,2.44,2.01,3.69c0.62,1.25,1.17,2.52,1.66,3.8c0.48,1.29,0.9,2.59,1.22,3.91c0.33,1.32,0.57,2.66,0.71,4.01
	c0.14,1.36,0.18,2.73,0.11,4.11"/>
<path class="st0" d="M648.54,434.39c0.19,0.53,0.38,1.06,0.56,1.6s0.36,1.09,0.52,1.63c0.16,0.55,0.31,1.1,0.45,1.66
	c0.13,0.55,0.24,1.11,0.33,1.66c0.09,0.55,0.15,1.11,0.18,1.66c0.03,0.55,0.02,1.1-0.02,1.64c-0.04,0.54-0.12,1.08-0.25,1.61
	c-0.13,0.53-0.3,1.05-0.52,1.57c-0.21,0.49-0.47,0.95-0.75,1.39c-0.28,0.44-0.6,0.86-0.94,1.26c-0.34,0.4-0.71,0.78-1.09,1.15
	c-0.38,0.37-0.78,0.73-1.19,1.08c-0.41,0.35-0.83,0.69-1.25,1.04c-0.42,0.34-0.85,0.68-1.27,1.03c-0.42,0.34-0.84,0.69-1.25,1.05
	c-0.41,0.36-0.8,0.72-1.18,1.1"/>
<path class="st0" d="M647.96,442.47c0.17,0.19,0.32,0.4,0.45,0.62c0.13,0.22,0.24,0.45,0.33,0.68c0.09,0.24,0.16,0.48,0.21,0.73
	c0.05,0.25,0.08,0.5,0.1,0.76c0.01,0.26,0.01,0.52-0.01,0.78s-0.05,0.52-0.11,0.77c-0.05,0.26-0.12,0.51-0.2,0.76
	c-0.08,0.25-0.18,0.49-0.29,0.72s-0.23,0.46-0.36,0.68c-0.13,0.22-0.27,0.43-0.42,0.64c-0.15,0.21-0.31,0.41-0.47,0.6
	c-0.17,0.2-0.34,0.39-0.52,0.57c-0.18,0.19-0.36,0.37-0.56,0.54c-0.19,0.18-0.39,0.35-0.58,0.52s-0.4,0.33-0.61,0.49
	c-0.2,0.16-0.41,0.32-0.62,0.47c-1.5,1.11-3.06,2.1-4.67,2.98c-1.61,0.89-3.28,1.67-5,2.36c-1.72,0.69-3.49,1.3-5.3,1.82
	s-3.68,0.98-5.58,1.37c-1.9,0.39-3.85,0.73-5.83,1.01c-1.98,0.29-4,0.53-6.05,0.74c-2.05,0.21-4.13,0.39-6.24,0.55
	s-4.25,0.31-6.41,0.45c-0.43-0.11-0.87-0.19-1.31-0.24c-0.44-0.06-0.88-0.09-1.32-0.1c-0.44-0.01-0.88,0.01-1.33,0.04
	c-0.44,0.04-0.88,0.09-1.32,0.17c-0.44,0.08-0.88,0.17-1.31,0.28s-0.86,0.24-1.28,0.39c-0.42,0.15-0.84,0.31-1.25,0.49
	c-0.41,0.18-0.81,0.37-1.21,0.57s-0.78,0.42-1.16,0.65c-0.38,0.23-0.76,0.47-1.12,0.71s-0.73,0.5-1.09,0.77
	c-0.36,0.26-0.71,0.54-1.06,0.82c-0.35,0.28-0.69,0.56-1.03,0.85c-0.34,0.29-0.67,0.59-1,0.89c-0.33,0.3-0.66,0.6-0.98,0.91
	c-0.32,0.31-0.65,0.61-0.97,0.92c-0.43,0.42-0.86,0.84-1.28,1.26c-0.42,0.43-0.84,0.86-1.26,1.3c-0.41,0.44-0.81,0.89-1.21,1.34
	c-0.39,0.46-0.77,0.92-1.13,1.39c-0.36,0.47-0.71,0.96-1.04,1.45c-0.33,0.49-0.64,1-0.93,1.52c-0.29,0.52-0.55,1.05-0.79,1.59
	c-0.24,0.54-0.45,1.1-0.63,1.67"/>
<path class="st0" d="M597.27,465.8c-0.34-0.03-0.68-0.06-1.02-0.09c-0.34-0.03-0.68-0.06-1.03-0.08c-0.34-0.02-0.69-0.04-1.03-0.05
	c-0.34-0.01-0.68-0.02-1.03-0.01c-0.34,0-0.68,0.02-1.02,0.04s-0.67,0.06-1.01,0.1s-0.67,0.11-1,0.18
	c-0.33,0.08-0.66,0.17-0.98,0.28c-0.31,0.1-0.61,0.22-0.9,0.35c-0.29,0.13-0.58,0.28-0.86,0.43c-0.28,0.16-0.56,0.32-0.83,0.5
	s-0.53,0.37-0.79,0.56s-0.51,0.4-0.76,0.61s-0.49,0.43-0.73,0.65c-0.24,0.22-0.47,0.45-0.7,0.68s-0.45,0.47-0.67,0.71
	c-0.81,0.87-1.58,1.78-2.31,2.72c-0.73,0.94-1.42,1.91-2.06,2.91s-1.25,2.03-1.81,3.08c-0.56,1.05-1.07,2.13-1.54,3.22
	s-0.89,2.21-1.26,3.34c-0.37,1.13-0.7,2.28-0.97,3.44c-0.27,1.16-0.5,2.33-0.67,3.51c-0.17,1.18-0.29,2.36-0.36,3.55"/>
<path class="st0" d="M575.33,480.78c-0.22,0.96-0.45,1.92-0.67,2.88c-0.23,0.96-0.45,1.92-0.69,2.88c-0.23,0.96-0.47,1.92-0.72,2.87
	s-0.5,1.91-0.77,2.86c-0.26,0.95-0.54,1.9-0.83,2.84c-0.29,0.94-0.59,1.88-0.9,2.81s-0.64,1.86-0.99,2.78
	c-0.35,0.92-0.71,1.84-1.1,2.74s-0.79,1.81-1.22,2.7c-0.43,0.89-0.88,1.77-1.36,2.64c-0.48,0.87-0.97,1.72-1.5,2.56
	c-0.52,0.84-1.07,1.66-1.64,2.47c-0.57,0.8-1.17,1.59-1.79,2.35c-0.62,0.76-1.27,1.5-1.95,2.21c-0.68,0.71-1.38,1.4-2.11,2.06
	s-1.49,1.28-2.27,1.88"/>
<path class="st0" d="M592.49,287.19c-0.51,5.12-1.01,10.24-1.48,15.37c-0.47,5.12-0.93,10.25-1.36,15.38
	c-0.44,5.13-0.85,10.26-1.25,15.39s-0.77,10.26-1.13,15.4s-0.69,10.27-1.01,15.41c-0.32,5.14-0.62,10.27-0.89,15.41
	s-0.54,10.28-0.78,15.42s-0.46,10.28-0.66,15.43"/>
<path class="st0" d="M598.7,284.65c-0.4,4.05-0.79,8.1-1.16,12.16s-0.74,8.11-1.09,12.16c-0.35,4.06-0.69,8.11-1.01,12.17
	c-0.33,4.06-0.64,8.12-0.94,12.17c-0.3,4.06-0.59,8.12-0.86,12.18c-0.28,4.06-0.54,8.12-0.79,12.18c-0.25,4.06-0.49,8.13-0.72,12.19
	s-0.44,8.13-0.64,12.19c-0.05,1.1-0.11,2.19-0.16,3.29c-0.05,1.1-0.1,2.19-0.14,3.29c-0.04,1.1-0.08,2.2-0.11,3.29
	s-0.05,2.2-0.07,3.29s-0.02,2.19-0.01,3.29c0.01,1.1,0.03,2.19,0.06,3.29s0.08,2.19,0.14,3.29s0.14,2.19,0.24,3.28"/>
<path class="st0" d="M654.02,296.05c-1.82,4.16-3.64,8.33-5.46,12.49c-1.82,4.16-3.64,8.33-5.46,12.49
	c-1.82,4.16-3.64,8.33-5.46,12.49c-1.82,4.16-3.64,8.33-5.46,12.49c-1.82,4.16-3.64,8.33-5.46,12.49
	c-1.82,4.16-3.64,8.33-5.46,12.49c-1.82,4.16-3.64,8.33-5.46,12.49c-1.82,4.16-3.64,8.33-5.46,12.49"/>
<path class="st0" d="M595.38,252.39c-0.98,0.35-1.92,0.77-2.81,1.28c-0.9,0.5-1.75,1.08-2.55,1.73c-0.8,0.64-1.55,1.35-2.25,2.11
	c-0.7,0.76-1.34,1.57-1.92,2.43s-1.11,1.76-1.57,2.69s-0.85,1.9-1.18,2.89c-0.32,0.99-0.58,2-0.76,3.02
	c-0.18,1.02-0.28,2.06-0.31,3.1c-0.01,0.3-0.01,0.61,0,0.91s0.02,0.61,0.04,0.91s0.05,0.61,0.09,0.91c0.04,0.3,0.09,0.6,0.14,0.9
	s0.12,0.59,0.2,0.89c0.08,0.29,0.17,0.58,0.27,0.87s0.21,0.56,0.33,0.84c0.12,0.27,0.26,0.54,0.41,0.81
	c0.25,0.45,0.54,0.87,0.85,1.26c0.31,0.4,0.65,0.77,1.02,1.11c0.37,0.35,0.76,0.67,1.17,0.97s0.84,0.57,1.29,0.82
	s0.91,0.48,1.38,0.69c0.47,0.21,0.96,0.39,1.45,0.55c0.49,0.16,0.99,0.3,1.5,0.42c0.5,0.12,1.01,0.22,1.52,0.3
	c0.86,0.13,1.74,0.21,2.63,0.22c0.88,0.01,1.77-0.03,2.66-0.14s1.76-0.27,2.61-0.49s1.69-0.5,2.49-0.84s1.58-0.74,2.31-1.19
	c0.73-0.46,1.42-0.97,2.05-1.54c0.63-0.57,1.21-1.2,1.72-1.88c0.51-0.68,0.95-1.42,1.32-2.22"/>
<path class="st0" d="M660.57,260.99c-0.49,0.21-0.97,0.44-1.43,0.71c-0.46,0.26-0.9,0.56-1.33,0.87c-0.43,0.32-0.83,0.66-1.22,1.02
	c-0.39,0.36-0.76,0.75-1.11,1.15c-0.35,0.4-0.69,0.82-1,1.26s-0.61,0.89-0.89,1.35c-0.28,0.46-0.53,0.94-0.77,1.42
	c-0.24,0.48-0.45,0.98-0.64,1.48c-0.19,0.5-0.37,1-0.53,1.51c-0.16,0.51-0.3,1.02-0.42,1.54s-0.24,1.04-0.33,1.57
	c-0.1,0.53-0.18,1.05-0.25,1.59c-0.07,0.53-0.13,1.06-0.18,1.6c-0.05,0.53-0.09,1.07-0.12,1.61c-0.03,0.54-0.05,1.07-0.07,1.61
	s-0.02,1.07-0.02,1.61c0,0.2,0,0.4,0,0.6s0,0.4,0.01,0.6c0,0.2,0.01,0.4,0.02,0.6s0.02,0.4,0.03,0.6c0.01,0.2,0.03,0.4,0.05,0.59
	c0.02,0.2,0.04,0.39,0.07,0.59s0.06,0.39,0.09,0.59s0.07,0.39,0.11,0.58c0.12,0.57,0.29,1.12,0.5,1.66s0.45,1.06,0.74,1.57
	c0.28,0.51,0.6,0.99,0.95,1.45c0.35,0.46,0.73,0.9,1.14,1.32c0.41,0.41,0.84,0.8,1.3,1.15c0.46,0.35,0.94,0.68,1.44,0.96
	c0.5,0.29,1.02,0.54,1.56,0.75c0.54,0.21,1.09,0.39,1.66,0.52c0.57,0.13,1.14,0.22,1.72,0.26c0.58,0.05,1.16,0.05,1.73,0.01
	c0.58-0.04,1.15-0.11,1.72-0.23c0.57-0.12,1.13-0.27,1.68-0.46c0.55-0.19,1.08-0.42,1.6-0.68c0.52-0.26,1.02-0.56,1.49-0.89
	c0.48-0.33,0.93-0.69,1.35-1.08c0.42-0.39,0.82-0.82,1.18-1.27"/>
<path class="st0" d="M161.06,480.01c-3.08,2.49-6.25,4.83-9.51,7.03c-3.26,2.2-6.6,4.27-10.01,6.23c-3.41,1.95-6.89,3.79-10.43,5.54
	c-3.54,1.74-7.13,3.39-10.77,4.95c-3.64,1.57-7.32,3.05-11.03,4.48c-3.71,1.43-7.45,2.79-11.21,4.11c-3.76,1.32-7.53,2.6-11.3,3.86
	c-3.77,1.26-7.55,2.49-11.31,3.71"/>
<path class="st0" d="M548.49,526.23c-2.54,0.49-5.08,0.96-7.63,1.41c-2.55,0.45-5.1,0.87-7.65,1.27c-2.55,0.4-5.11,0.78-7.67,1.13
	s-5.13,0.68-7.69,0.99c-2.57,0.31-5.14,0.59-7.71,0.85c-2.57,0.26-5.15,0.5-7.72,0.71s-5.16,0.4-7.74,0.57
	c-2.58,0.16-5.16,0.31-7.74,0.42c-0.78,0.04-1.57,0.07-2.36,0.11c-0.79,0.04-1.57,0.07-2.36,0.12c-0.79,0.04-1.57,0.09-2.36,0.15
	c-0.78,0.06-1.57,0.13-2.35,0.21c-0.78,0.08-1.56,0.18-2.33,0.29c-0.77,0.11-1.54,0.24-2.31,0.39c-0.77,0.15-1.53,0.32-2.28,0.52
	c-0.76,0.2-1.5,0.42-2.25,0.67c-0.79,0.27-1.56,0.56-2.32,0.88s-1.51,0.67-2.25,1.03c-0.74,0.37-1.47,0.75-2.19,1.16
	s-1.44,0.82-2.14,1.26c-0.71,0.43-1.41,0.88-2.11,1.33c-0.7,0.45-1.39,0.91-2.09,1.37c-0.69,0.46-1.38,0.92-2.08,1.38
	s-1.38,0.92-2.08,1.37c-1.6,1.04-3.22,2.06-4.85,3.04c-1.64,0.98-3.29,1.93-4.97,2.85c-1.67,0.92-3.36,1.81-5.07,2.66
	c-1.71,0.86-3.43,1.68-5.17,2.47c-1.74,0.79-3.49,1.55-5.26,2.28c-1.77,0.73-3.55,1.42-5.34,2.08s-3.6,1.28-5.41,1.87
	s-3.64,1.15-5.48,1.67"/>
<path class="st0" d="M297.88,575.51c1.09-0.11,2.17-0.29,3.23-0.51c1.06-0.22,2.12-0.49,3.16-0.79c1.04-0.31,2.08-0.65,3.1-1.02
	c1.03-0.37,2.05-0.78,3.06-1.2s2.02-0.86,3.03-1.31c1.01-0.45,2.01-0.91,3.02-1.37c1-0.46,2.01-0.92,3.01-1.38
	c1.01-0.45,2.01-0.9,3.02-1.32c1.88-0.79,3.78-1.52,5.7-2.19s3.87-1.27,5.83-1.81c1.96-0.54,3.94-1.02,5.93-1.44
	c1.99-0.42,4-0.77,6.01-1.06c2.01-0.29,4.04-0.52,6.06-0.68c2.03-0.16,4.06-0.26,6.09-0.29c2.03-0.03,4.07,0,6.1,0.1
	c2.03,0.1,4.06,0.26,6.08,0.49c1.74,0.2,3.47,0.44,5.2,0.72c1.73,0.28,3.46,0.58,5.19,0.9c1.73,0.32,3.45,0.65,5.18,0.97
	c1.73,0.33,3.45,0.65,5.18,0.94c1.73,0.3,3.45,0.57,5.18,0.81s3.45,0.43,5.18,0.57c1.73,0.14,3.46,0.22,5.19,0.22
	c1.73,0.01,3.47-0.06,5.21-0.23"/>
<path class="st0" d="M79.26,520.45c0.88-0.13,1.76-0.19,2.63-0.19c0.87,0.01,1.74,0.07,2.6,0.2s1.72,0.3,2.57,0.53
	c0.85,0.22,1.7,0.49,2.54,0.8c0.84,0.31,1.67,0.65,2.5,1.01s1.64,0.76,2.45,1.17c0.81,0.41,1.61,0.84,2.4,1.27
	c0.79,0.44,1.58,0.88,2.35,1.32c0.97,0.55,1.93,1.1,2.9,1.66c0.97,0.55,1.93,1.11,2.89,1.68c0.96,0.56,1.92,1.13,2.87,1.71
	c0.95,0.58,1.9,1.16,2.84,1.76c0.94,0.6,1.87,1.21,2.79,1.83c0.92,0.62,1.83,1.26,2.73,1.91c0.9,0.65,1.78,1.32,2.66,2.01
	c0.87,0.69,1.73,1.39,2.57,2.12c0.52,0.45,1.03,0.91,1.54,1.37c0.51,0.46,1.02,0.93,1.52,1.39s1.01,0.93,1.52,1.39
	c0.51,0.46,1.02,0.92,1.54,1.37c0.52,0.45,1.04,0.89,1.58,1.32c0.53,0.43,1.07,0.84,1.63,1.24c0.55,0.4,1.12,0.78,1.7,1.14
	c0.58,0.36,1.17,0.7,1.78,1.01c0.57,0.29,1.14,0.56,1.73,0.8c0.59,0.24,1.18,0.47,1.78,0.67c0.6,0.2,1.21,0.38,1.82,0.55
	s1.23,0.31,1.86,0.44c0.62,0.13,1.25,0.24,1.88,0.34c0.63,0.1,1.27,0.19,1.9,0.26c0.64,0.07,1.27,0.14,1.91,0.19s1.27,0.1,1.91,0.14
	c2.42,0.14,4.85,0.19,7.29,0.18s4.88-0.09,7.33-0.19s4.9-0.24,7.34-0.37s4.89-0.25,7.33-0.34s4.87-0.14,7.28-0.12
	c2.42,0.02,4.82,0.11,7.21,0.31c2.39,0.2,4.76,0.49,7.12,0.93c2.35,0.44,4.69,1.01,7,1.75c1.24,0.4,2.46,0.84,3.67,1.32
	c1.21,0.48,2.39,1,3.57,1.54s2.34,1.12,3.5,1.71c1.16,0.59,2.31,1.2,3.46,1.82c1.15,0.62,2.29,1.25,3.44,1.88s2.29,1.26,3.44,1.88
	c1.15,0.62,2.3,1.23,3.46,1.83c1.16,0.59,2.33,1.17,3.51,1.72c2.93,1.36,5.93,2.54,8.99,3.55c3.06,1.01,6.18,1.84,9.34,2.49
	c3.16,0.65,6.35,1.13,9.56,1.43c3.21,0.3,6.44,0.42,9.67,0.37c3.23-0.05,6.45-0.28,9.65-0.68c3.2-0.4,6.38-0.98,9.51-1.74
	c3.13-0.75,6.22-1.68,9.25-2.79c3.03-1.1,5.99-2.38,8.87-3.83"/>
<path class="st0" d="M156.99,481.96c-2.91,2.25-5.93,4.28-9.06,6.15c-3.12,1.86-6.34,3.56-9.64,5.13c-3.29,1.57-6.65,3.02-10.06,4.4
	c-3.41,1.38-6.86,2.68-10.32,3.95c-3.47,1.27-6.95,2.52-10.43,3.78s-6.95,2.55-10.39,3.9c-3.44,1.35-6.84,2.77-10.19,4.3
	c-3.35,1.53-6.63,3.18-9.83,4.98"/>
<path class="st0" d="M485.43,344.49c0.93,2.48,1.92,4.93,2.95,7.37s2.09,4.86,3.18,7.27s2.2,4.81,3.33,7.21
	c1.12,2.4,2.25,4.8,3.37,7.19c1.12,2.4,2.23,4.8,3.32,7.21c1.09,2.41,2.15,4.83,3.17,7.27s2,4.89,2.92,7.36
	c0.92,2.47,1.79,4.97,2.58,7.49c0.51,1.63,0.99,3.28,1.45,4.93c0.46,1.65,0.89,3.32,1.3,4.99s0.8,3.35,1.18,5.04
	c0.38,1.69,0.74,3.38,1.1,5.08s0.7,3.41,1.05,5.13c0.35,1.72,0.69,3.44,1.04,5.16c0.35,1.73,0.7,3.46,1.06,5.2
	c0.36,1.74,0.74,3.48,1.12,5.23c3.04-1.44,5.91-3.17,8.63-5.11s5.31-4.08,7.81-6.37c2.5-2.28,4.91-4.7,7.28-7.17
	c2.37-2.47,4.7-5,7.03-7.51c2.34-2.51,4.68-5,7.08-7.4c2.4-2.4,4.86-4.7,7.42-6.83c2.56-2.13,5.22-4.09,8.04-5.81
	c2.82-1.71,5.78-3.18,8.95-4.32"/>
<path class="st0" d="M592.46,388.68c0.8-0.23,1.61-0.44,2.42-0.62c0.81-0.18,1.63-0.33,2.46-0.46s1.65-0.23,2.48-0.3
	c0.83-0.07,1.66-0.12,2.5-0.14s1.67-0.01,2.5,0.02s1.66,0.09,2.49,0.18c0.83,0.09,1.65,0.2,2.48,0.34c0.82,0.14,1.64,0.31,2.45,0.5"
	/>
<path class="st0" d="M579.75,396.11c-0.73,0.07-1.44,0.2-2.14,0.39c-0.69,0.19-1.37,0.42-2.02,0.71c-0.66,0.28-1.3,0.61-1.92,0.98
	c-0.62,0.37-1.23,0.77-1.83,1.2c-0.6,0.43-1.18,0.9-1.74,1.38s-1.12,0.99-1.67,1.5s-1.08,1.04-1.6,1.58s-1.04,1.07-1.54,1.6
	c-0.95,1-1.9,2-2.85,3c-0.95,1-1.9,2-2.85,3c-0.95,1-1.9,2-2.85,3s-1.9,2-2.85,3c-0.95,1-1.9,2-2.85,3s-1.9,2-2.85,3
	c-0.95,1-1.9,2-2.85,3c-0.95,1-1.9,2-2.85,3c-0.8,0.84-1.62,1.69-2.44,2.54c-0.83,0.84-1.67,1.68-2.53,2.5
	c-0.86,0.82-1.73,1.62-2.62,2.4c-0.89,0.77-1.8,1.52-2.74,2.22c-0.93,0.7-1.89,1.36-2.87,1.97s-1.99,1.16-3.02,1.64
	c-1.03,0.49-2.09,0.91-3.18,1.25c-1.09,0.34-2.21,0.61-3.36,0.78"/>
<path class="st0" d="M448.9,301.77c2.3,2.58,4.56,5.19,6.8,7.83c2.23,2.64,4.43,5.3,6.6,8c2.16,2.69,4.29,5.42,6.39,8.16
	s4.16,5.52,6.18,8.32s4.01,5.63,5.97,8.48c1.95,2.85,3.87,5.73,5.75,8.63c1.88,2.9,3.72,5.82,5.53,8.77s3.57,5.92,5.3,8.91"/>
<path class="st0" d="M369.82,485.25c2.46-0.77,4.94-1.43,7.43-1.98c2.5-0.56,5.02-1.01,7.55-1.39c2.53-0.38,5.08-0.68,7.64-0.93
	c2.56-0.25,5.13-0.44,7.7-0.6s5.16-0.29,7.74-0.41c2.58-0.12,5.17-0.23,7.76-0.35s5.17-0.25,7.75-0.41
	c2.58-0.16,5.15-0.36,7.72-0.62c3.33-0.33,6.65-0.76,9.95-1.28c3.3-0.52,6.59-1.14,9.86-1.85c3.27-0.71,6.52-1.52,9.74-2.41
	c3.22-0.9,6.42-1.89,9.59-2.96c3.17-1.08,6.3-2.25,9.41-3.5c3.1-1.26,6.17-2.6,9.19-4.03s6.01-2.95,8.95-4.55s5.83-3.29,8.67-5.06"
	/>
<path class="st0" d="M219.81,363.77c0.17-0.36,0.34-0.72,0.53-1.07s0.39-0.7,0.61-1.03s0.44-0.67,0.68-0.99
	c0.24-0.32,0.49-0.63,0.75-0.93c0.26-0.3,0.54-0.58,0.82-0.86c0.29-0.27,0.58-0.53,0.89-0.77s0.63-0.47,0.97-0.68
	c0.33-0.21,0.68-0.4,1.04-0.57s0.73-0.32,1.11-0.44s0.77-0.22,1.16-0.3c0.39-0.07,0.79-0.12,1.19-0.15s0.8-0.02,1.19,0.01
	c0.4,0.03,0.79,0.09,1.17,0.17c0.38,0.08,0.76,0.2,1.13,0.34c0.36,0.14,0.72,0.31,1.05,0.51s0.66,0.43,0.96,0.68
	c0.18,0.15,0.35,0.31,0.51,0.48c0.16,0.17,0.32,0.34,0.46,0.53c0.15,0.18,0.29,0.37,0.42,0.57c0.13,0.19,0.26,0.4,0.37,0.6
	c0.12,0.21,0.23,0.41,0.33,0.63c0.1,0.21,0.2,0.43,0.3,0.65c0.09,0.22,0.18,0.44,0.26,0.66c0.08,0.22,0.16,0.45,0.23,0.67
	c0.26,0.82,0.47,1.65,0.62,2.48c0.15,0.84,0.25,1.68,0.3,2.53c0.05,0.85,0.05,1.7,0,2.56c-0.05,0.85-0.14,1.71-0.28,2.55
	c-0.14,0.85-0.32,1.69-0.54,2.53c-0.22,0.83-0.48,1.66-0.78,2.47c-0.3,0.81-0.63,1.61-1,2.39c-0.37,0.78-0.77,1.55-1.2,2.29
	c-0.43,0.74-0.89,1.47-1.37,2.17s-0.99,1.39-1.52,2.07s-1.08,1.33-1.65,1.97c-0.57,0.64-1.16,1.27-1.76,1.88s-1.22,1.21-1.86,1.8
	c-0.63,0.59-1.28,1.16-1.93,1.72c-0.66,0.56-1.32,1.11-1.99,1.65s-1.35,1.07-2.04,1.59"/>
<path class="st0" d="M197.25,342.11c1.51-2.57,3.19-5.04,5.02-7.39c1.83-2.35,3.8-4.59,5.9-6.71c2.1-2.11,4.33-4.1,6.67-5.95
	s4.79-3.57,7.32-5.13s5.17-2.98,7.87-4.24c2.7-1.26,5.48-2.36,8.31-3.29c2.83-0.93,5.72-1.69,8.64-2.26s5.88-0.97,8.86-1.17
	c0.62-0.04,1.23-0.07,1.85-0.1s1.24-0.03,1.86-0.03c0.62,0,1.24,0.01,1.86,0.04c0.62,0.03,1.24,0.07,1.85,0.14
	c0.61,0.06,1.23,0.14,1.83,0.24c0.61,0.1,1.21,0.22,1.81,0.36c0.6,0.14,1.19,0.31,1.77,0.5c0.58,0.19,1.16,0.4,1.73,0.64
	c0.42,0.18,0.84,0.37,1.25,0.58s0.81,0.43,1.21,0.66s0.79,0.47,1.17,0.73c0.38,0.25,0.76,0.52,1.14,0.79
	c0.37,0.27,0.74,0.55,1.1,0.84c0.36,0.29,0.72,0.58,1.07,0.88c0.35,0.3,0.7,0.61,1.04,0.92c0.34,0.31,0.68,0.63,1.01,0.95
	c2.51,2.39,4.8,4.97,6.88,7.73c2.07,2.75,3.92,5.67,5.54,8.72s3.01,6.22,4.16,9.47s2.06,6.6,2.73,10s1.09,6.83,1.26,10.29
	c0.17,3.45,0.08,6.91-0.26,10.34c-0.35,3.43-0.95,6.83-1.83,10.17s-2.02,6.6-3.44,9.76"/>
<path class="st0" d="M169.34,396.09c-0.09,0.98-0.16,1.97-0.21,2.96c-0.05,0.99-0.07,1.98-0.07,2.96c0,0.99,0.02,1.98,0.07,2.96
	c0.05,0.99,0.12,1.97,0.21,2.96c0.09,0.98,0.21,1.97,0.35,2.94s0.3,1.95,0.49,2.92c0.19,0.97,0.39,1.94,0.62,2.9
	s0.48,1.92,0.76,2.86c0.28,0.98,0.59,1.95,0.93,2.91c0.34,0.96,0.7,1.92,1.1,2.86c0.39,0.94,0.82,1.87,1.27,2.78
	s0.94,1.81,1.45,2.68s1.06,1.73,1.64,2.56c0.58,0.83,1.19,1.63,1.84,2.41c0.65,0.77,1.33,1.52,2.04,2.23
	c0.72,0.71,1.47,1.39,2.26,2.03c0.41,0.34,0.84,0.66,1.27,0.97c0.43,0.31,0.87,0.62,1.31,0.91s0.9,0.58,1.36,0.85
	c0.46,0.27,0.92,0.54,1.39,0.79c0.47,0.26,0.94,0.5,1.42,0.74c0.48,0.24,0.96,0.47,1.45,0.69c0.49,0.22,0.98,0.44,1.47,0.65
	c0.49,0.21,0.99,0.41,1.48,0.61c2.87,1.14,5.82,2.07,8.81,2.81c2.99,0.74,6.04,1.28,9.1,1.62c3.06,0.35,6.15,0.5,9.24,0.46
	c3.09-0.04,6.17-0.27,9.23-0.69c3.06-0.42,6.09-1.03,9.08-1.82c2.98-0.79,5.92-1.77,8.77-2.93c2.86-1.16,5.64-2.5,8.32-4.02
	c2.68-1.52,5.27-3.21,7.73-5.08"/>
<path class="st0" d="M151.41,387.58c-0.33,2.17-0.66,4.33-0.98,6.5c-0.32,2.17-0.64,4.34-0.95,6.51c-0.3,2.17-0.6,4.35-0.87,6.52
	c-0.27,2.18-0.52,4.35-0.75,6.53s-0.43,4.36-0.6,6.54s-0.3,4.36-0.4,6.55c-0.1,2.18-0.15,4.37-0.17,6.56
	c-0.01,2.19,0.02,4.37,0.11,6.56c0.09,2.19,0.23,4.38,0.43,6.57c0.2,2.19,0.46,4.37,0.79,6.55c0.33,2.18,0.72,4.34,1.17,6.49
	s0.99,4.28,1.59,6.38c0.6,2.11,1.27,4.19,2.03,6.24c0.75,2.05,1.58,4.07,2.49,6.05s1.9,3.92,2.98,5.81c1.08,1.89,2.24,3.74,3.5,5.53
	c1.08,1.54,2.21,3.02,3.41,4.47c1.19,1.44,2.44,2.83,3.74,4.18c1.3,1.34,2.65,2.64,4.04,3.89c1.39,1.25,2.84,2.45,4.32,3.6
	c1.48,1.15,3,2.25,4.55,3.31c1.55,1.05,3.14,2.06,4.76,3.02c1.62,0.96,3.27,1.87,4.94,2.73s3.37,1.67,5.08,2.43
	c1.71,0.76,3.45,1.48,5.19,2.15c1.75,0.67,3.51,1.3,5.29,1.88c1.78,0.58,3.57,1.13,5.38,1.63c1.8,0.5,3.62,0.97,5.45,1.4
	c1.83,0.43,3.66,0.82,5.5,1.19c1.84,0.36,3.69,0.69,5.55,0.99c1.85,0.3,3.71,0.57,5.58,0.81s3.73,0.45,5.59,0.64"/>
<path class="st0" d="M378.05,396.97c-0.06,2.42-0.23,4.82-0.5,7.21c-0.27,2.39-0.65,4.76-1.11,7.11c-0.46,2.36-1.01,4.7-1.63,7.03
	c-0.62,2.33-1.31,4.64-2.06,6.94c-0.75,2.3-1.55,4.59-2.4,6.87c-0.85,2.28-1.74,4.54-2.66,6.8c-0.92,2.25-1.87,4.5-2.83,6.73
	c-0.96,2.23-1.94,4.45-2.92,6.67c-0.42,0.95-0.84,1.89-1.26,2.84c-0.42,0.95-0.84,1.89-1.27,2.83s-0.86,1.89-1.29,2.82
	c-0.44,0.94-0.88,1.88-1.33,2.81c-0.45,0.93-0.9,1.86-1.37,2.79s-0.94,1.84-1.42,2.76c-0.48,0.91-0.98,1.82-1.48,2.72
	c-0.51,0.9-1.02,1.8-1.56,2.68c-1.67,2.77-3.47,5.46-5.4,8.06c-1.93,2.59-3.99,5.1-6.16,7.49c-2.17,2.4-4.46,4.69-6.85,6.87
	s-4.88,4.25-7.47,6.2s-5.26,3.78-8.01,5.47s-5.59,3.27-8.49,4.7c-2.9,1.43-5.87,2.72-8.9,3.86c-3.03,1.14-6.11,2.14-9.23,2.98"/>
<path class="st0" d="M229.13,525.89c4.89,0.41,9.79,0.58,14.69,0.52c4.9-0.07,9.8-0.37,14.67-0.9c4.87-0.53,9.72-1.29,14.52-2.28
	c4.8-0.99,9.56-2.2,14.25-3.62c4.69-1.43,9.32-3.07,13.86-4.93c4.54-1.86,8.99-3.92,13.34-6.19c4.34-2.27,8.58-4.75,12.69-7.42
	c4.11-2.67,8.09-5.55,11.92-8.61"/>
<path class="st0" d="M149.04,463.8c1.13,3.42,2.48,6.76,4.03,10.01c1.55,3.24,3.31,6.39,5.24,9.42s4.06,5.95,6.34,8.73
	c2.29,2.78,4.73,5.43,7.33,7.92c2.6,2.5,5.34,4.84,8.21,7.01c2.87,2.17,5.86,4.18,8.97,5.99c3.1,1.82,6.32,3.44,9.62,4.87
	c3.3,1.42,6.7,2.64,10.16,3.63"/>
<path class="st0" d="M189.09,334.13c1.9-2.58,3.87-5.1,5.93-7.56s4.19-4.86,6.39-7.19c2.21-2.33,4.49-4.59,6.84-6.76
	s4.78-4.27,7.27-6.27s5.06-3.91,7.69-5.71c2.63-1.8,5.33-3.5,8.09-5.09s5.59-3.06,8.47-4.41c2.89-1.35,5.83-2.57,8.84-3.66
	s6.07-2.03,9.18-2.82c3.11-0.79,6.26-1.43,9.44-1.92c3.17-0.48,6.37-0.81,9.58-0.98c3.2-0.17,6.41-0.17,9.6-0.01
	c3.19,0.16,6.37,0.49,9.52,1c3.15,0.5,6.26,1.18,9.32,2.03s6.07,1.88,9.01,3.09s5.81,2.6,8.59,4.19"/>
<path class="st0" d="M365.75,263.52c3.14-0.02,6.24,0.16,9.33,0.54c3.09,0.38,6.15,0.94,9.2,1.69c3.05,0.75,6.09,1.67,9.12,2.77
	c3.03,1.1,6.05,2.36,9.08,3.78s6.05,3,9.09,4.72c3.04,1.72,6.08,3.59,9.14,5.58c3.06,2,6.14,4.13,9.24,6.38
	c3.1,2.25,6.23,4.62,9.39,7.1c1.33,0.66,2.62,1.38,3.89,2.14c1.27,0.76,2.51,1.56,3.72,2.41c1.21,0.85,2.39,1.73,3.55,2.66
	c1.15,0.92,2.28,1.89,3.38,2.88s2.17,2.02,3.22,3.08c1.04,1.06,2.06,2.14,3.05,3.25c0.99,1.11,1.96,2.24,2.89,3.39
	c0.94,1.15,1.85,2.32,2.74,3.51c0.89,1.19,1.75,2.39,2.59,3.61c0.84,1.22,1.66,2.45,2.46,3.7c0.8,1.24,1.59,2.5,2.36,3.77
	c0.77,1.27,1.52,2.54,2.27,3.82c0.74,1.28,1.47,2.57,2.19,3.87c0.72,1.3,1.43,2.6,2.14,3.9c0.7,1.31,1.4,2.61,2.1,3.92
	c0.7,1.31,1.39,2.62,2.08,3.93"/>
<path class="st0" d="M158.81,478.45c-1.17,0.97-2.38,1.9-3.6,2.79c-1.23,0.89-2.48,1.75-3.75,2.58s-2.57,1.62-3.88,2.39
	s-2.64,1.51-3.98,2.23c-1.34,0.72-2.7,1.42-4.06,2.11c-1.36,0.68-2.74,1.35-4.11,2.01c-1.38,0.66-2.76,1.3-4.15,1.94
	c-1.39,0.64-2.77,1.27-4.16,1.91c-2.19,1-4.39,2-6.59,3c-2.2,1-4.41,2-6.62,3c-2.22,1-4.45,2-6.7,3c-2.25,1-4.51,1.99-6.8,2.99
	c-2.29,0.99-4.6,1.99-6.94,2.98c-2.34,0.99-4.71,1.98-7.12,2.96c-2.41,0.98-4.85,1.97-7.33,2.95c-2.48,0.98-5.01,1.95-7.58,2.92
	c1.51-0.35,3.02-0.55,4.53-0.62s3.02-0.02,4.52,0.14c1.5,0.16,2.99,0.44,4.47,0.81s2.95,0.84,4.4,1.39s2.88,1.18,4.29,1.88
	s2.79,1.46,4.15,2.27c1.36,0.81,2.69,1.67,3.98,2.57c1.3,0.89,2.56,1.82,3.78,2.77s2.43,1.92,3.64,2.9c1.21,0.98,2.4,1.98,3.61,2.98
	c1.2,1,2.4,1.99,3.61,2.98c1.21,0.98,2.42,1.95,3.66,2.9c1.23,0.94,2.47,1.86,3.74,2.74c1.27,0.88,2.55,1.72,3.86,2.52
	s2.65,1.53,4.03,2.21c1.38,0.68,2.78,1.29,4.23,1.83c2.89,1.07,5.85,1.81,8.86,2.3c3.01,0.49,6.06,0.72,9.14,0.8
	c3.08,0.07,6.2-0.02,9.33-0.19c3.13-0.17,6.27-0.42,9.41-0.66c3.14-0.24,6.28-0.48,9.39-0.62s6.21-0.19,9.28-0.06
	c3.06,0.13,6.09,0.44,9.06,1.01c2.97,0.57,5.89,1.41,8.74,2.6c0.79,0.33,1.57,0.68,2.33,1.06c0.77,0.37,1.52,0.77,2.27,1.17
	c0.75,0.41,1.49,0.83,2.23,1.26c0.74,0.43,1.47,0.88,2.2,1.33c0.73,0.45,1.46,0.9,2.18,1.36s1.45,0.91,2.18,1.36
	c0.73,0.45,1.46,0.9,2.19,1.34s1.48,0.87,2.22,1.28c3.09,1.72,6.28,3.19,9.53,4.43c3.26,1.24,6.59,2.25,9.97,3.06
	s6.83,1.41,10.31,1.83c3.48,0.42,7,0.66,10.55,0.75c3.54,0.08,7.11,0.01,10.68-0.19c3.57-0.21,7.15-0.54,10.71-0.99
	c3.56-0.45,7.12-1,10.64-1.65s7.02-1.37,10.47-2.16"/>
<path class="st0" d="M582.01,416.49c0.75-5.69,1.47-11.36,2.15-17.04c0.68-5.67,1.33-11.34,1.94-17c0.61-5.66,1.19-11.32,1.72-16.97
	c0.53-5.65,1.03-11.3,1.47-16.95s0.85-11.3,1.21-16.94c0.36-5.65,0.67-11.29,0.93-16.94c0.26-5.65,0.47-11.3,0.62-16.95
	c0.16-5.65,0.26-11.31,0.3-16.97"/>
<path class="st0" d="M585.86,260.47c-0.41,0.45-0.76,0.93-1.05,1.44c-0.3,0.51-0.54,1.04-0.74,1.59s-0.35,1.12-0.46,1.71
	c-0.11,0.59-0.19,1.18-0.23,1.79s-0.05,1.23-0.03,1.85c0.02,0.62,0.06,1.25,0.13,1.87c0.07,0.62,0.15,1.24,0.25,1.86
	c0.1,0.61,0.21,1.22,0.33,1.82c0.04,0.18,0.07,0.36,0.11,0.54c0.04,0.18,0.08,0.36,0.12,0.54c0.04,0.18,0.09,0.36,0.13,0.54
	c0.05,0.18,0.1,0.36,0.15,0.53c0.05,0.18,0.11,0.35,0.17,0.53c0.06,0.17,0.13,0.35,0.2,0.51c0.07,0.17,0.15,0.34,0.23,0.5
	c0.08,0.16,0.17,0.33,0.26,0.49c0.09,0.16,0.19,0.31,0.29,0.46s0.21,0.3,0.33,0.44c0.11,0.14,0.23,0.28,0.35,0.42
	s0.25,0.27,0.38,0.39s0.26,0.25,0.4,0.37c0.14,0.12,0.28,0.24,0.42,0.35s0.29,0.22,0.44,0.33c0.15,0.11,0.3,0.21,0.45,0.31
	c0.27,0.18,0.54,0.35,0.82,0.51c0.28,0.16,0.56,0.32,0.85,0.46s0.58,0.28,0.88,0.41c0.3,0.13,0.6,0.25,0.9,0.36
	c0.3,0.11,0.61,0.21,0.92,0.3c0.31,0.09,0.62,0.17,0.93,0.25c0.31,0.07,0.63,0.14,0.95,0.19c0.32,0.05,0.64,0.1,0.96,0.13
	c0.61,0.06,1.22,0.09,1.83,0.08c0.61-0.01,1.22-0.05,1.83-0.13s1.21-0.19,1.8-0.34s1.18-0.32,1.76-0.53
	c0.58-0.21,1.14-0.45,1.69-0.72c0.55-0.27,1.09-0.57,1.61-0.89c0.52-0.32,1.02-0.68,1.5-1.06c0.48-0.38,0.94-0.78,1.38-1.21
	s0.85-0.88,1.24-1.35c0.39-0.47,0.75-0.96,1.09-1.47c0.34-0.51,0.65-1.04,0.93-1.58c0.29-0.54,0.54-1.1,0.78-1.66
	s0.44-1.14,0.61-1.73s0.33-1.18,0.45-1.78s0.21-1.21,0.27-1.82c0.06-0.61,0.09-1.22,0.1-1.83c0-0.43-0.01-0.86-0.04-1.3
	c-0.03-0.43-0.07-0.86-0.13-1.29c-0.06-0.43-0.14-0.86-0.23-1.28s-0.2-0.84-0.33-1.25c-0.13-0.41-0.27-0.82-0.43-1.22
	c-0.16-0.4-0.34-0.79-0.54-1.17c-0.2-0.38-0.41-0.75-0.65-1.11c-0.23-0.36-0.49-0.71-0.76-1.05c-0.31-0.38-0.63-0.74-0.98-1.08
	c-0.35-0.34-0.71-0.66-1.09-0.95c-0.38-0.3-0.78-0.57-1.19-0.83c-0.41-0.26-0.84-0.49-1.28-0.7s-0.89-0.41-1.34-0.58
	c-0.46-0.17-0.92-0.32-1.39-0.45s-0.95-0.23-1.43-0.32s-0.97-0.15-1.45-0.19c-0.48-0.04-0.97-0.06-1.47-0.05
	c-0.49,0.01-1,0.06-1.52,0.14s-1.05,0.22-1.61,0.4c-0.56,0.19-1.13,0.43-1.74,0.74c-0.61,0.31-1.24,0.69-1.91,1.14
	c-0.67,0.46-1.38,0.99-2.12,1.62c-0.75,0.63-1.54,1.35-2.38,2.17C587.69,258.5,586.8,259.42,585.86,260.47z"/>
<path class="st0" d="M658.03,262.48c-0.62,0.47-1.19,0.99-1.72,1.54c-0.53,0.55-1.01,1.15-1.45,1.77s-0.84,1.28-1.2,1.96
	s-0.67,1.39-0.95,2.11c-0.28,0.73-0.52,1.47-0.72,2.23c-0.2,0.76-0.37,1.53-0.5,2.31c-0.13,0.78-0.23,1.56-0.29,2.34
	s-0.1,1.57-0.1,2.34c0,0.46,0.01,0.91,0.03,1.37s0.05,0.91,0.09,1.37c0.04,0.46,0.09,0.91,0.16,1.36c0.06,0.45,0.14,0.9,0.23,1.35
	c0.09,0.45,0.2,0.89,0.32,1.32c0.12,0.44,0.26,0.87,0.41,1.29c0.15,0.43,0.32,0.85,0.51,1.26c0.19,0.41,0.39,0.82,0.61,1.21
	c0.22,0.4,0.46,0.79,0.72,1.16c0.26,0.38,0.54,0.74,0.84,1.09c0.3,0.35,0.61,0.68,0.94,0.99c0.33,0.31,0.68,0.61,1.04,0.89
	c0.36,0.28,0.74,0.53,1.13,0.76c0.39,0.23,0.79,0.44,1.2,0.62c0.41,0.18,0.84,0.34,1.27,0.46c0.43,0.13,0.87,0.22,1.32,0.29
	c0.45,0.07,0.89,0.1,1.34,0.1s0.89-0.02,1.33-0.07c0.44-0.05,0.88-0.12,1.32-0.22c0.44-0.1,0.87-0.21,1.31-0.35s0.86-0.29,1.28-0.46
	c0.42-0.17,0.84-0.36,1.25-0.56s0.82-0.41,1.22-0.63s0.79-0.45,1.18-0.69c0.29-0.18,0.59-0.37,0.88-0.56
	c0.29-0.19,0.58-0.38,0.86-0.58s0.56-0.4,0.84-0.61c0.28-0.21,0.55-0.43,0.81-0.65s0.53-0.45,0.78-0.68
	c0.25-0.23,0.5-0.47,0.74-0.72c0.24-0.25,0.47-0.5,0.7-0.76c0.23-0.26,0.44-0.53,0.65-0.81c0.61-0.8,1.12-1.66,1.54-2.55
	c0.42-0.9,0.75-1.84,0.99-2.8s0.39-1.95,0.46-2.94c0.06-1,0.04-2-0.07-2.99c-0.11-1-0.3-1.98-0.57-2.95
	c-0.27-0.96-0.63-1.9-1.06-2.81c-0.43-0.9-0.95-1.76-1.54-2.57c-0.59-0.8-1.26-1.55-2-2.23c-0.74-0.67-1.54-1.27-2.37-1.78
	c-0.83-0.51-1.7-0.95-2.58-1.31s-1.78-0.66-2.67-0.88c-0.89-0.23-1.78-0.39-2.64-0.49s-1.7-0.15-2.49-0.14s-1.54,0.07-2.22,0.17
	c-0.68,0.11-1.3,0.26-1.83,0.45C658.82,261.99,658.38,262.22,658.03,262.48z"/>
<path class="st0" d="M589.53,416.06c0.3-5.55,0.61-11.1,0.91-16.65c0.3-5.55,0.61-11.1,0.92-16.65s0.61-11.1,0.91-16.65
	s0.61-11.1,0.92-16.65c0.3-5.55,0.61-11.1,0.91-16.65s0.61-11.1,0.91-16.65s0.61-11.1,0.92-16.65c0.3-5.55,0.61-11.1,0.91-16.65"/>
<path class="st0" d="M610.22,400.09c1.85-4.39,3.68-8.79,5.51-13.2s3.64-8.83,5.46-13.27c1.81-4.43,3.62-8.87,5.42-13.32
	c1.8-4.45,3.61-8.9,5.41-13.35s3.61-8.91,5.42-13.36c1.81-4.45,3.63-8.91,5.45-13.36c1.82-4.45,3.66-8.9,5.5-13.34
	c1.84-4.44,3.7-8.88,5.57-13.3"/>
<path class="st0" d="M618,401.48c1.51-4.44,3.03-8.87,4.57-13.3c1.54-4.43,3.09-8.85,4.66-13.27c1.57-4.42,3.15-8.83,4.75-13.24
	c1.6-4.41,3.21-8.81,4.84-13.21c1.63-4.4,3.27-8.79,4.93-13.17c1.66-4.39,3.33-8.76,5.01-13.14s3.39-8.74,5.1-13.1
	c1.72-4.36,3.45-8.72,5.19-13.07"/>
<path class="st0" d="M593.14,265.48c0.04,0.27,0.08,0.55,0.13,0.82c0.05,0.27,0.12,0.54,0.19,0.8c0.07,0.27,0.16,0.53,0.25,0.79
	s0.19,0.52,0.3,0.77c0.11,0.25,0.23,0.5,0.35,0.75c0.13,0.25,0.26,0.49,0.4,0.72c0.14,0.24,0.29,0.47,0.45,0.69
	c0.16,0.23,0.33,0.45,0.5,0.66c0.28-0.28,0.56-0.56,0.83-0.85c0.27-0.29,0.53-0.59,0.78-0.9c0.25-0.31,0.49-0.63,0.72-0.95
	c0.23-0.32,0.45-0.65,0.66-0.99c0.21-0.34,0.41-0.68,0.6-1.03c0.19-0.35,0.37-0.7,0.54-1.06c0.17-0.36,0.33-0.72,0.47-1.09
	s0.28-0.74,0.4-1.12c0.05-0.15,0.1-0.3,0.14-0.46c0.04-0.15,0.08-0.31,0.12-0.47c0.04-0.16,0.07-0.32,0.09-0.47
	c0.02-0.16,0.04-0.32,0.05-0.48c0.01-0.16,0.01-0.32,0.01-0.47c-0.01-0.16-0.02-0.31-0.05-0.46c-0.03-0.15-0.06-0.3-0.11-0.45
	c-0.05-0.15-0.11-0.29-0.18-0.43c-0.1-0.19-0.22-0.37-0.36-0.53c-0.14-0.16-0.3-0.3-0.47-0.42c-0.17-0.12-0.36-0.23-0.55-0.32
	c-0.2-0.09-0.4-0.16-0.61-0.21c-0.21-0.05-0.43-0.09-0.65-0.11s-0.44-0.02-0.66,0s-0.44,0.05-0.66,0.1
	c-0.22,0.05-0.43,0.12-0.63,0.2s-0.4,0.18-0.58,0.29c-0.19,0.11-0.37,0.23-0.54,0.35s-0.34,0.26-0.5,0.41
	c-0.16,0.15-0.32,0.3-0.47,0.46c-0.15,0.16-0.29,0.33-0.43,0.5s-0.27,0.35-0.4,0.53c-0.13,0.18-0.26,0.36-0.38,0.55
	c-0.12,0.18-0.24,0.37-0.35,0.56c-0.1,0.17-0.21,0.34-0.31,0.51s-0.2,0.35-0.29,0.52s-0.18,0.35-0.27,0.53s-0.16,0.36-0.24,0.54
	c-0.07,0.18-0.14,0.37-0.2,0.55c-0.06,0.19-0.12,0.37-0.16,0.56c-0.05,0.19-0.09,0.38-0.12,0.57s-0.05,0.39-0.07,0.58
	c-0.01,0.2-0.01,0.4,0,0.6c0.01,0.2,0.03,0.4,0.07,0.6s0.08,0.39,0.14,0.58s0.12,0.38,0.2,0.56c0.08,0.18,0.17,0.35,0.27,0.52
	c0.1,0.17,0.22,0.32,0.34,0.47s0.26,0.28,0.41,0.41c0.15,0.13,0.31,0.24,0.48,0.34c0.19,0.11,0.4,0.2,0.6,0.27
	c0.21,0.07,0.42,0.12,0.64,0.15c0.22,0.03,0.44,0.04,0.66,0.03s0.44-0.04,0.66-0.08c0.22-0.04,0.44-0.1,0.65-0.18
	s0.42-0.17,0.62-0.27c0.2-0.1,0.39-0.22,0.58-0.35c0.18-0.13,0.36-0.27,0.52-0.43s0.31-0.32,0.46-0.49c0.14-0.17,0.27-0.35,0.4-0.53
	c0.12-0.18,0.24-0.37,0.34-0.57c0.11-0.2,0.2-0.4,0.29-0.6c0.09-0.2,0.17-0.41,0.25-0.63s0.14-0.43,0.21-0.64
	c0.06-0.22,0.12-0.44,0.17-0.65s0.1-0.44,0.14-0.66c0.03-0.14,0.05-0.28,0.07-0.42s0.04-0.28,0.05-0.42s0.03-0.28,0.03-0.43
	s0.01-0.28,0.01-0.43c0-0.14-0.01-0.28-0.02-0.42s-0.03-0.28-0.06-0.41c-0.03-0.14-0.06-0.27-0.1-0.41
	c-0.04-0.13-0.09-0.26-0.15-0.39s-0.13-0.25-0.2-0.37c-0.08-0.12-0.17-0.23-0.26-0.34c-0.1-0.11-0.2-0.21-0.31-0.3
	s-0.23-0.17-0.35-0.25c-0.12-0.07-0.25-0.13-0.38-0.18c-0.13-0.05-0.26-0.09-0.4-0.11c-0.13-0.02-0.27-0.03-0.41-0.03
	s-0.27,0.03-0.41,0.06c-0.1,0.03-0.19,0.06-0.28,0.1c-0.09,0.04-0.18,0.09-0.26,0.14c-0.08,0.05-0.16,0.11-0.24,0.18
	s-0.15,0.13-0.22,0.21c-0.07,0.07-0.14,0.15-0.21,0.23c-0.07,0.08-0.13,0.16-0.19,0.24c-0.06,0.08-0.12,0.17-0.17,0.26
	c-0.06,0.09-0.11,0.17-0.16,0.26c-0.17,0.29-0.33,0.58-0.47,0.88c-0.14,0.3-0.28,0.61-0.39,0.92s-0.22,0.63-0.32,0.95
	s-0.17,0.65-0.24,0.97c-0.07,0.33-0.12,0.66-0.16,0.99s-0.06,0.66-0.07,1c-0.01,0.33-0.01,0.67,0.01,1
	c0.02,0.33,0.05,0.66,0.09,0.99c0.02,0.13,0.05,0.27,0.08,0.41s0.08,0.27,0.13,0.41c0.05,0.13,0.11,0.26,0.17,0.39
	c0.07,0.12,0.14,0.24,0.22,0.35c0.08,0.11,0.17,0.21,0.26,0.29c0.09,0.09,0.19,0.16,0.3,0.21c0.11,0.06,0.22,0.1,0.34,0.11
	c0.12,0.02,0.24,0.02,0.38,0c0.06-0.01,0.12-0.03,0.18-0.05c0.06-0.02,0.11-0.05,0.17-0.08c0.05-0.03,0.11-0.06,0.16-0.1
	c0.05-0.04,0.1-0.08,0.15-0.12c0.05-0.04,0.09-0.09,0.14-0.13c0.04-0.05,0.09-0.1,0.13-0.15c0.04-0.05,0.08-0.1,0.12-0.15
	s0.08-0.1,0.12-0.15c0.17-0.23,0.33-0.46,0.48-0.7c0.16-0.24,0.31-0.48,0.45-0.72c0.14-0.24,0.28-0.49,0.41-0.74
	c0.13-0.25,0.26-0.51,0.37-0.76s0.23-0.52,0.33-0.78s0.2-0.53,0.29-0.8s0.17-0.54,0.25-0.81c0.08-0.27,0.14-0.55,0.21-0.82
	c0.03-0.11,0.05-0.23,0.07-0.35c0.02-0.12,0.04-0.24,0.05-0.36s0.02-0.24,0.02-0.36s0-0.24-0.01-0.36
	c-0.01-0.12-0.03-0.23-0.06-0.35c-0.03-0.11-0.06-0.22-0.11-0.32c-0.04-0.1-0.1-0.2-0.16-0.29c-0.06-0.09-0.14-0.18-0.23-0.26
	c-0.1-0.09-0.2-0.16-0.31-0.22c-0.11-0.06-0.23-0.1-0.35-0.13s-0.25-0.05-0.37-0.05c-0.13,0-0.26,0-0.39,0.02
	c-0.13,0.02-0.26,0.05-0.39,0.08c-0.13,0.04-0.26,0.08-0.38,0.14c-0.13,0.05-0.25,0.12-0.36,0.18c-0.12,0.07-0.23,0.14-0.33,0.22
	c-0.21,0.16-0.41,0.34-0.59,0.53c-0.18,0.19-0.35,0.4-0.49,0.62c-0.15,0.22-0.28,0.45-0.39,0.69c-0.11,0.24-0.21,0.49-0.29,0.74
	c-0.08,0.25-0.14,0.51-0.17,0.78c-0.04,0.26-0.06,0.53-0.06,0.79c0,0.26,0.02,0.53,0.07,0.79c0.04,0.26,0.11,0.52,0.2,0.77
	c0.01,0.04,0.03,0.08,0.04,0.12c0.02,0.04,0.03,0.08,0.05,0.12c0.02,0.04,0.04,0.08,0.06,0.11s0.04,0.07,0.06,0.11
	s0.05,0.07,0.07,0.1c0.03,0.03,0.05,0.06,0.08,0.09c0.03,0.03,0.06,0.05,0.09,0.08c0.03,0.02,0.07,0.05,0.11,0.06
	c0.06,0.03,0.13,0.05,0.19,0.06s0.13,0.02,0.2,0.01c0.07,0,0.13-0.02,0.2-0.03c0.07-0.02,0.13-0.04,0.2-0.07s0.13-0.06,0.19-0.1
	s0.12-0.08,0.18-0.13s0.12-0.09,0.17-0.14c0.06-0.05,0.11-0.1,0.16-0.15c0.15-0.15,0.29-0.3,0.43-0.45c0.14-0.16,0.27-0.31,0.4-0.48
	c0.13-0.16,0.26-0.33,0.38-0.5c0.12-0.17,0.24-0.34,0.35-0.52c0.11-0.17,0.22-0.35,0.32-0.53c0.1-0.18,0.2-0.36,0.29-0.55
	s0.18-0.37,0.26-0.57s0.16-0.38,0.23-0.58c0.03-0.09,0.06-0.19,0.08-0.3c0.02-0.1,0.03-0.21,0.03-0.32c0-0.11,0-0.22-0.02-0.32
	c-0.01-0.1-0.03-0.21-0.06-0.3c-0.03-0.09-0.07-0.18-0.11-0.25s-0.1-0.14-0.16-0.19s-0.13-0.08-0.21-0.1
	c-0.08-0.01-0.16-0.01-0.26,0.02c-0.03,0.01-0.05,0.02-0.08,0.03c-0.02,0.01-0.05,0.02-0.07,0.04c-0.02,0.01-0.05,0.03-0.07,0.05
	c-0.02,0.02-0.04,0.03-0.06,0.05c-0.02,0.02-0.04,0.04-0.06,0.06c-0.02,0.02-0.04,0.04-0.06,0.06c-0.02,0.02-0.04,0.04-0.05,0.07
	c-0.02,0.02-0.03,0.04-0.05,0.07c-0.08,0.11-0.15,0.23-0.22,0.35c-0.07,0.12-0.13,0.24-0.18,0.37c-0.05,0.13-0.1,0.25-0.14,0.39
	c-0.04,0.13-0.08,0.26-0.1,0.4c-0.03,0.13-0.05,0.27-0.06,0.41s-0.02,0.27-0.02,0.41s0.01,0.27,0.02,0.41
	c0.01,0.14,0.04,0.27,0.06,0.41c0.04-0.03,0.08-0.05,0.11-0.07c0.03-0.02,0.05-0.05,0.05-0.07c0-0.02-0.02-0.04-0.07-0.06
	c-0.05-0.02-0.14-0.03-0.26-0.05c-0.13-0.01-0.29-0.02-0.51-0.03c-0.22-0.01-0.49-0.01-0.83-0.01c-0.34,0-0.73,0.01-1.2,0.02
	C594.31,265.44,593.77,265.46,593.14,265.48z"/>
<path class="st0" d="M658.46,272.19c0.02,0.27,0.03,0.54,0.05,0.82c0.02,0.27,0.03,0.54,0.05,0.82c0.02,0.27,0.03,0.54,0.05,0.82
	c0.02,0.27,0.03,0.54,0.05,0.82c0.02,0.27,0.03,0.54,0.05,0.82c0.02,0.27,0.03,0.54,0.05,0.82c0.02,0.27,0.03,0.54,0.05,0.82
	c0.02,0.27,0.03,0.54,0.05,0.82c0.21,0.05,0.42,0.08,0.63,0.08s0.42-0.02,0.62-0.06c0.2-0.04,0.41-0.1,0.6-0.18
	c0.2-0.08,0.39-0.18,0.58-0.29s0.38-0.23,0.56-0.37s0.36-0.28,0.53-0.43s0.34-0.31,0.49-0.47c0.16-0.16,0.31-0.33,0.46-0.49
	c0.15-0.17,0.29-0.34,0.44-0.51s0.28-0.35,0.42-0.53c0.14-0.18,0.27-0.36,0.4-0.55c0.13-0.19,0.25-0.38,0.36-0.57
	s0.22-0.39,0.32-0.59c0.1-0.2,0.19-0.4,0.27-0.61s0.15-0.42,0.21-0.63c0.06-0.21,0.11-0.43,0.14-0.65c0.03-0.22,0.05-0.45,0.05-0.67
	c0-0.23-0.01-0.45-0.05-0.68c-0.03-0.23-0.08-0.45-0.14-0.67c-0.06-0.22-0.14-0.43-0.23-0.63s-0.2-0.4-0.32-0.58
	c-0.12-0.18-0.26-0.35-0.41-0.51c-0.15-0.15-0.32-0.29-0.5-0.41s-0.38-0.22-0.58-0.3c-0.18-0.07-0.37-0.12-0.55-0.15
	c-0.19-0.03-0.38-0.05-0.57-0.05s-0.38,0.02-0.57,0.05c-0.19,0.03-0.38,0.08-0.56,0.13c-0.18,0.06-0.37,0.13-0.54,0.21
	s-0.35,0.18-0.52,0.28s-0.33,0.22-0.48,0.34c-0.15,0.12-0.3,0.25-0.44,0.39s-0.27,0.28-0.39,0.43c-0.12,0.15-0.24,0.3-0.35,0.46
	c-0.11,0.16-0.21,0.32-0.31,0.49s-0.19,0.34-0.28,0.51c-0.09,0.17-0.17,0.35-0.26,0.52s-0.16,0.36-0.24,0.54
	c-0.08,0.18-0.15,0.36-0.22,0.54c-0.07,0.18-0.14,0.36-0.21,0.54c-0.05,0.14-0.1,0.27-0.15,0.41c-0.05,0.14-0.1,0.28-0.15,0.41
	c-0.05,0.14-0.09,0.28-0.13,0.42c-0.04,0.14-0.08,0.28-0.12,0.42c-0.04,0.14-0.07,0.28-0.09,0.42c-0.03,0.14-0.05,0.28-0.07,0.43
	c-0.02,0.14-0.03,0.29-0.03,0.43c-0.01,0.14,0,0.29,0.01,0.43s0.03,0.29,0.05,0.44c0.03,0.14,0.06,0.29,0.1,0.43s0.1,0.28,0.16,0.41
	c0.06,0.13,0.13,0.26,0.21,0.39c0.08,0.12,0.16,0.24,0.25,0.35c0.09,0.11,0.19,0.21,0.3,0.3c0.11,0.09,0.22,0.17,0.35,0.24
	c0.12,0.07,0.25,0.13,0.39,0.18c0.2,0.07,0.4,0.11,0.6,0.12c0.2,0.01,0.4,0,0.6-0.03c0.2-0.04,0.39-0.09,0.58-0.17
	c0.19-0.08,0.38-0.17,0.56-0.28c0.18-0.11,0.36-0.23,0.54-0.37c0.17-0.14,0.34-0.28,0.51-0.44c0.16-0.15,0.32-0.31,0.47-0.48
	c0.15-0.16,0.29-0.33,0.43-0.5c0.23-0.29,0.46-0.6,0.67-0.92c0.21-0.32,0.42-0.65,0.6-1s0.35-0.69,0.5-1.05
	c0.15-0.36,0.27-0.72,0.36-1.08c0.09-0.36,0.16-0.72,0.19-1.08s0.03-0.71-0.02-1.05c-0.04-0.34-0.13-0.68-0.26-1
	c-0.13-0.32-0.31-0.63-0.53-0.92c-0.07-0.08-0.14-0.17-0.21-0.24s-0.16-0.15-0.24-0.22c-0.08-0.07-0.17-0.13-0.26-0.19
	c-0.09-0.06-0.18-0.11-0.28-0.16s-0.19-0.08-0.3-0.12s-0.2-0.05-0.3-0.07c-0.1-0.01-0.21-0.02-0.31-0.01
	c-0.1,0.01-0.21,0.02-0.31,0.05c-0.1,0.03-0.19,0.06-0.28,0.1c-0.09,0.04-0.17,0.09-0.25,0.15c-0.08,0.06-0.16,0.12-0.23,0.18
	c-0.07,0.07-0.14,0.14-0.21,0.22s-0.13,0.16-0.19,0.24c-0.06,0.08-0.12,0.17-0.18,0.25c-0.06,0.09-0.11,0.17-0.17,0.26
	s-0.1,0.18-0.15,0.26c-0.07,0.12-0.14,0.24-0.21,0.36c-0.07,0.12-0.14,0.24-0.21,0.36c-0.07,0.12-0.14,0.24-0.21,0.37
	c-0.07,0.12-0.14,0.24-0.21,0.37c-0.07,0.12-0.14,0.24-0.21,0.37c-0.07,0.12-0.14,0.24-0.21,0.37c-0.07,0.12-0.14,0.24-0.21,0.36
	c-0.07,0.12-0.14,0.24-0.21,0.36c-0.07,0.11-0.13,0.23-0.2,0.35c-0.07,0.12-0.13,0.23-0.2,0.35s-0.13,0.23-0.19,0.35
	c-0.06,0.12-0.12,0.24-0.17,0.36s-0.11,0.24-0.15,0.37s-0.09,0.25-0.13,0.37c-0.04,0.13-0.07,0.25-0.1,0.38
	c-0.03,0.13-0.05,0.26-0.06,0.39c-0.02,0.13-0.02,0.26-0.02,0.4s0.01,0.27,0.03,0.4c0.02,0.13,0.04,0.27,0.08,0.4
	c0.03,0.13,0.08,0.26,0.13,0.38c0.05,0.12,0.11,0.24,0.18,0.35c0.07,0.11,0.14,0.22,0.23,0.31c0.08,0.1,0.18,0.19,0.28,0.27
	c0.1,0.08,0.21,0.15,0.33,0.21c0.19,0.09,0.38,0.15,0.57,0.19c0.19,0.03,0.38,0.03,0.58,0.01s0.38-0.07,0.57-0.13
	s0.38-0.15,0.56-0.25c0.19-0.1,0.37-0.22,0.54-0.35c0.18-0.13,0.35-0.27,0.52-0.42c0.17-0.15,0.33-0.3,0.48-0.46
	c0.15-0.16,0.3-0.32,0.43-0.48c0.15-0.17,0.29-0.35,0.44-0.52s0.29-0.36,0.42-0.54c0.14-0.18,0.27-0.37,0.4-0.56
	c0.13-0.19,0.25-0.38,0.37-0.57c0.12-0.19,0.22-0.39,0.32-0.59c0.1-0.2,0.19-0.4,0.27-0.61c0.08-0.21,0.15-0.42,0.2-0.64
	c0.05-0.22,0.1-0.44,0.12-0.66s0.03-0.45,0.02-0.68c-0.02-0.23-0.05-0.46-0.11-0.68c-0.05-0.22-0.13-0.44-0.22-0.65
	c-0.09-0.21-0.2-0.41-0.32-0.6c-0.12-0.19-0.26-0.36-0.41-0.52c-0.15-0.16-0.32-0.3-0.5-0.42s-0.37-0.22-0.58-0.29
	s-0.42-0.11-0.64-0.13c-0.18-0.01-0.37,0-0.54,0.02c-0.18,0.03-0.35,0.07-0.52,0.13c-0.17,0.06-0.33,0.14-0.49,0.22
	c-0.16,0.09-0.31,0.19-0.46,0.3s-0.29,0.23-0.43,0.36c-0.14,0.13-0.27,0.27-0.4,0.41c-0.13,0.14-0.25,0.29-0.36,0.44
	s-0.22,0.31-0.32,0.46c-0.15,0.23-0.29,0.47-0.43,0.71c-0.14,0.24-0.26,0.48-0.39,0.73c-0.12,0.25-0.23,0.5-0.34,0.75
	c-0.1,0.25-0.2,0.51-0.29,0.77c-0.09,0.26-0.17,0.52-0.24,0.79c-0.07,0.27-0.14,0.53-0.19,0.8c-0.06,0.27-0.1,0.54-0.14,0.81
	s-0.07,0.55-0.09,0.82c-0.01,0.09-0.01,0.18-0.02,0.26c0,0.09-0.01,0.18-0.01,0.27c0,0.09,0,0.18,0.01,0.27s0.02,0.18,0.03,0.26
	c0.01,0.09,0.03,0.17,0.05,0.26s0.05,0.17,0.08,0.25c0.03,0.08,0.07,0.16,0.11,0.23c0.04,0.07,0.09,0.15,0.15,0.22
	c0.11,0.13,0.23,0.24,0.36,0.33c0.13,0.09,0.27,0.15,0.42,0.2s0.31,0.07,0.47,0.08s0.33,0,0.5-0.02c0.17-0.02,0.34-0.06,0.51-0.11
	c0.17-0.05,0.34-0.11,0.5-0.18c0.16-0.07,0.32-0.15,0.47-0.24c0.15-0.09,0.3-0.19,0.43-0.29c0.23-0.17,0.45-0.36,0.65-0.56
	c0.21-0.2,0.41-0.41,0.59-0.62s0.36-0.44,0.53-0.68c0.16-0.23,0.32-0.48,0.46-0.73s0.27-0.51,0.39-0.77
	c0.12-0.26,0.22-0.53,0.31-0.8c0.09-0.27,0.17-0.55,0.23-0.83c0.06-0.28,0.11-0.56,0.14-0.85c0.01-0.11,0.02-0.21,0.03-0.32
	c0.01-0.11,0.01-0.21,0.01-0.32c0-0.11,0-0.21-0.01-0.32s-0.01-0.21-0.03-0.32c-0.01-0.1-0.03-0.21-0.05-0.31
	c-0.02-0.1-0.05-0.2-0.08-0.3c-0.03-0.1-0.07-0.2-0.11-0.29c-0.04-0.09-0.09-0.19-0.15-0.27s-0.12-0.17-0.19-0.25
	s-0.15-0.15-0.23-0.22c-0.08-0.07-0.17-0.13-0.26-0.19s-0.19-0.1-0.28-0.14c-0.1-0.04-0.2-0.07-0.3-0.09
	c-0.1-0.02-0.2-0.04-0.31-0.04c-0.1,0-0.2,0-0.3,0.02c-0.1,0.02-0.2,0.05-0.3,0.09c-0.05,0.02-0.11,0.05-0.16,0.08
	s-0.1,0.06-0.15,0.1c-0.05,0.04-0.09,0.07-0.14,0.11c-0.04,0.04-0.09,0.08-0.13,0.13c-0.04,0.04-0.08,0.09-0.12,0.14
	c-0.04,0.05-0.07,0.1-0.11,0.14c-0.04,0.05-0.07,0.1-0.1,0.15c-0.03,0.05-0.07,0.1-0.1,0.15c-0.11,0.17-0.22,0.35-0.32,0.53
	c-0.1,0.18-0.2,0.36-0.29,0.55c-0.09,0.18-0.18,0.37-0.26,0.56c-0.08,0.19-0.16,0.38-0.23,0.57c-0.07,0.19-0.14,0.39-0.2,0.58
	s-0.12,0.39-0.16,0.59c-0.05,0.2-0.09,0.4-0.13,0.6c-0.04,0.2-0.07,0.4-0.1,0.61c-0.01,0.1-0.02,0.19-0.03,0.29
	c-0.01,0.1-0.01,0.2,0,0.3s0.01,0.2,0.02,0.3c0.01,0.1,0.03,0.19,0.06,0.29c0.03,0.09,0.06,0.18,0.1,0.26
	c0.04,0.08,0.08,0.16,0.14,0.23c0.05,0.07,0.12,0.13,0.19,0.19s0.15,0.1,0.24,0.14c0.07,0.03,0.15,0.05,0.22,0.06s0.15,0.01,0.22,0
	c0.07-0.01,0.15-0.02,0.22-0.04c0.07-0.02,0.15-0.05,0.22-0.08c0.07-0.03,0.14-0.07,0.21-0.11c0.07-0.04,0.14-0.09,0.2-0.13
	c0.07-0.05,0.13-0.1,0.19-0.15s0.12-0.11,0.18-0.16c0.22-0.2,0.43-0.42,0.62-0.65c0.2-0.23,0.38-0.46,0.55-0.71
	c0.17-0.24,0.33-0.5,0.48-0.76c0.15-0.26,0.28-0.53,0.4-0.8c0.12-0.27,0.23-0.55,0.32-0.84c0.09-0.28,0.17-0.57,0.24-0.86
	c0.07-0.29,0.12-0.59,0.15-0.88s0.06-0.6,0.06-0.9c-0.21,0.09-0.41,0.2-0.6,0.33c-0.19,0.12-0.38,0.26-0.55,0.41
	c-0.17,0.15-0.33,0.31-0.49,0.49c-0.15,0.17-0.29,0.36-0.41,0.55c-0.13,0.19-0.24,0.39-0.34,0.6c-0.1,0.21-0.18,0.42-0.25,0.64
	c-0.07,0.22-0.12,0.44-0.16,0.67c-0.04,0.23-0.06,0.46-0.06,0.69c0.18-0.07,0.35-0.15,0.51-0.25s0.32-0.21,0.46-0.33
	c0.15-0.12,0.28-0.25,0.41-0.4s0.24-0.29,0.35-0.45c0.1-0.16,0.2-0.33,0.28-0.5c0.08-0.17,0.15-0.35,0.2-0.53
	c0.05-0.18,0.09-0.37,0.11-0.56s0.03-0.38,0.02-0.57c-0.07,0.02-0.14,0.04-0.21,0.06c-0.07,0.03-0.15,0.06-0.25,0.11
	s-0.2,0.09-0.33,0.16c-0.13,0.06-0.28,0.14-0.45,0.22s-0.38,0.19-0.63,0.3c-0.24,0.11-0.52,0.24-0.84,0.39s-0.69,0.31-1.11,0.49
	C659.46,271.77,658.99,271.97,658.46,272.19z"/>
<path class="st0" d="M593.68,438.77c1.53,0.67,3.1,1.23,4.7,1.68c1.6,0.45,3.23,0.79,4.88,1.01c1.65,0.23,3.31,0.35,4.98,0.36
	c1.67,0.01,3.33-0.08,4.99-0.28c1.65-0.2,3.3-0.5,4.91-0.91s3.2-0.92,4.75-1.53c1.55-0.61,3.05-1.33,4.5-2.14
	c1.45-0.81,2.85-1.73,4.17-2.74"/>
<path class="st0" d="M592.79,434.05c0.3,0.47,0.64,0.91,1.01,1.32c0.37,0.41,0.77,0.79,1.19,1.14c0.42,0.35,0.87,0.68,1.34,0.98
	s0.96,0.57,1.46,0.82c0.5,0.25,1.03,0.47,1.56,0.68c0.53,0.2,1.07,0.38,1.62,0.55c0.55,0.16,1.1,0.3,1.66,0.43
	c0.56,0.12,1.11,0.23,1.67,0.32c1.11,0.18,2.23,0.31,3.35,0.39c1.12,0.08,2.25,0.11,3.37,0.09c1.12-0.02,2.25-0.08,3.37-0.2
	s2.23-0.27,3.34-0.48c1.11-0.21,2.2-0.46,3.29-0.76c1.08-0.3,2.16-0.65,3.21-1.04c1.05-0.39,2.09-0.83,3.11-1.31
	c1.02-0.48,2.01-1.01,2.98-1.57"/>
<path class="st0" d="M601.54,234.41c-0.93-0.03-1.86-0.01-2.79,0.07c-0.93,0.08-1.85,0.21-2.76,0.4c-0.91,0.19-1.81,0.42-2.69,0.71
	c-0.88,0.29-1.75,0.63-2.6,1.01s-1.67,0.82-2.47,1.29c-0.8,0.48-1.57,1-2.31,1.56c-0.74,0.56-1.44,1.17-2.11,1.81
	c-0.67,0.64-1.3,1.33-1.88,2.05"/>
<path class="st0" d="M674.65,247.88c0.95-0.01,1.89,0.08,2.81,0.25c0.92,0.17,1.83,0.43,2.71,0.76c0.88,0.33,1.74,0.74,2.55,1.21
	s1.6,1.01,2.33,1.61c0.73,0.6,1.42,1.26,2.04,1.96c0.63,0.71,1.19,1.46,1.69,2.26c0.5,0.8,0.93,1.64,1.28,2.51
	c0.35,0.87,0.62,1.78,0.81,2.71"/>
<path class="st0" d="M604.33,236.37c-1.35-0.16-2.71-0.22-4.06-0.17c-1.35,0.05-2.7,0.2-4.04,0.45c-1.33,0.25-2.65,0.59-3.94,1.03
	c-1.29,0.43-2.54,0.96-3.76,1.57c-1.22,0.61-2.39,1.3-3.51,2.07s-2.18,1.62-3.18,2.54c-1,0.92-1.93,1.91-2.78,2.97
	c-0.85,1.06-1.62,2.18-2.3,3.36"/>
<path class="st0" d="M670.54,244.28c0.54-0.09,1.09-0.14,1.64-0.16c0.55-0.02,1.1,0.01,1.64,0.06c0.55,0.06,1.09,0.14,1.63,0.27
	c0.54,0.12,1.07,0.27,1.59,0.46c0.52,0.18,1.04,0.39,1.54,0.63c0.5,0.24,0.99,0.5,1.47,0.79c0.48,0.29,0.94,0.6,1.38,0.94
	c0.44,0.34,0.87,0.69,1.27,1.07s0.79,0.77,1.16,1.18c0.37,0.41,0.72,0.83,1.05,1.27s0.64,0.89,0.94,1.36
	c0.3,0.46,0.58,0.94,0.84,1.43c0.26,0.49,0.51,0.98,0.74,1.49c0.23,0.5,0.44,1.02,0.64,1.54c0.2,0.52,0.38,1.04,0.55,1.57
	c0.17,0.53,0.32,1.06,0.46,1.6"/>
<path class="st0" d="M599.04,237.91c-0.89,0.15-1.77,0.34-2.64,0.57c-0.87,0.23-1.73,0.51-2.58,0.82s-1.68,0.67-2.49,1.06
	c-0.81,0.39-1.61,0.82-2.38,1.29c-0.77,0.47-1.52,0.97-2.25,1.5c-0.73,0.53-1.43,1.1-2.1,1.7c-0.67,0.6-1.32,1.23-1.93,1.89
	c-0.61,0.66-1.2,1.35-1.74,2.07"/>
<path class="st0" d="M670.21,245.97c0.29-0.05,0.57-0.08,0.86-0.1c0.29-0.02,0.57-0.02,0.86-0.01s0.57,0.04,0.86,0.07
	c0.29,0.04,0.57,0.08,0.86,0.14c0.28,0.06,0.57,0.12,0.85,0.19c0.28,0.07,0.57,0.15,0.85,0.23c0.28,0.08,0.56,0.17,0.84,0.26
	c0.28,0.09,0.56,0.18,0.83,0.27c0.22,0.07,0.44,0.15,0.66,0.22c0.22,0.08,0.44,0.15,0.66,0.23c0.22,0.08,0.44,0.16,0.66,0.24
	c0.22,0.08,0.43,0.17,0.65,0.26c0.21,0.09,0.43,0.19,0.64,0.29c0.21,0.1,0.42,0.21,0.62,0.32c0.2,0.11,0.4,0.23,0.6,0.35
	c0.2,0.12,0.39,0.26,0.57,0.4c0.46,0.34,0.87,0.72,1.26,1.13c0.38,0.41,0.73,0.84,1.06,1.3c0.33,0.46,0.63,0.94,0.92,1.43
	s0.56,1,0.83,1.51c0.27,0.51,0.53,1.03,0.8,1.54c0.27,0.51,0.54,1.03,0.82,1.53c0.28,0.5,0.58,0.99,0.9,1.47s0.66,0.93,1.04,1.36"/>
</svg>
