<?xml version="1.0" encoding="utf-8"?>
<!-- Generator: Adobe Adobe Illustrator 24.2.0, SVG Export Plug-In . SVG Version: 6.00 Build 0)  -->
<svg version="1.1" id="Layer_1" xmlns="http://www.w3.org/2000/svg" xmlns:xlink="http://www.w3.org/1999/xlink" x="0px" y="0px"
	 width="800px" height="800px" viewBox="0 0 800 800" style="enable-background:new 0 0 800 800;" xml:space="preserve">
<style type="text/css">
	.st0{fill:none;stroke:#000000;stroke-miterlimit:10;}
</style>
<path class="st0" d="M219.29,360.26c0.63-5.34,8.19-7.61,12.65-4.59c4.46,3.01,5.8,9.15,4.89,14.46c-1.52,8.8-8.03,16.04-15.53,20.9
	c-2.49,1.62-5.19,3.06-8.13,3.5c-3.27,0.49-6.63-0.3-9.62-1.7c-12.26-5.77-17.56-21.33-15.03-34.64
	c2.53-13.31,11.24-24.61,20.8-34.23c9.86-9.92,21.54-18.95,35.3-21.47c20.51-3.75,41.99,8.77,51.73,27.2
	c9.75,18.43,8.79,41.31,0.64,60.5c-8.15,19.19-22.82,35.01-39.32,47.76c-8.77,6.78-18.43,12.94-29.31,15.09
	c-18.29,3.61-37.83-5.28-49.13-20.11c-11.3-14.83-14.86-34.68-11.96-53.1c2.9-18.42,11.8-35.5,23.17-50.27
	c15.21-19.75,35.43-36.12,59.03-44.16c23.59-8.05,50.65-7.18,72.48,4.85c7.73,4.26,14.69,9.8,21.13,15.83
	c25.72,24.03,43.99,57.83,42.86,93.01c-0.66,20.46-7.77,40.34-18.11,58c-15.86,27.08-39.89,49.74-68.86,61.81
	c-28.97,12.08-62.87,13.02-91.62,0.43c-28.75-12.59-51.52-39.16-57.39-70c-2.6-13.63-1.99-27.69-0.26-41.46
	c4.02-31.95,14.41-63.65,33.94-89.26c9.29-12.18,20.53-22.84,32.93-31.84c39.14-28.42,90.31-39.68,137.77-30.31
	c15.23,3.01,30.01,8.02,44.43,13.78c15.74,6.3,31.22,13.57,44.95,23.53c22.64,16.42,39.71,39.64,52.08,64.73
	c12.37,25.08,20.28,52.11,27.16,79.21"/>
<path class="st0" d="M320.08,507.57c12.7-9.89,29.08-13.56,44.99-16.02c27.84-4.3,56.14-5.78,83.59-12.1s54.67-18.16,73.17-39.4"/>
<path class="st0" d="M222.57,358.89c1.9-3.72,6.05-6.79,10.09-5.7c4.53,1.23,6.33,6.73,6.37,11.42c0.06,7.41-2.5,14.81-7.14,20.59
	s-11.29,9.9-18.54,11.46"/>
<path class="st0" d="M202.43,391.66c-7.49-5.3-12.33-14.16-12.76-23.32c-0.26-5.62,1.05-11.22,3.13-16.44
	c6.02-15.07,18.22-26.9,31.53-36.19c5.63-3.94,11.57-7.53,18.04-9.86c6.47-2.33,13.51-3.35,20.27-2.08
	c5.58,1.05,10.77,3.62,15.55,6.69c7.13,4.58,13.72,10.64,16.74,18.56"/>
<path class="st0" d="M301.79,358.34c1.65,9.44-0.85,19.11-4.1,28.13c-4.92,13.65-11.77,26.9-22.14,37.06
	c-3.19,3.13-6.69,5.93-10.23,8.66c-8.87,6.81-18.25,13.22-28.79,16.98c-10.53,3.77-22.42,4.71-32.84,0.62"/>
<path class="st0" d="M193.34,441.75c-4.72-2.07-8.56-5.76-11.74-9.82c-11.54-14.72-15.05-34.7-12.14-53.18
	c2.91-18.48,11.72-35.6,22.63-50.79"/>
<path class="st0" d="M230.59,294.12c11.24-7.88,24.94-11.86,38.64-12.63c13.71-0.77,27.45,1.56,40.62,5.45
	c6.72,1.98,13.38,4.4,19.37,8.04c11.62,7.06,20.05,18.29,27.37,29.75c8.36,13.1,15.67,26.87,21.82,41.13"/>
<path class="st0" d="M375.37,353.04c9.42,12.98,11.95,29.99,9.98,45.91c-1.97,15.91-8.05,31.01-14.57,45.66
	c-7.7,17.33-16.56,34.96-31.48,46.66"/>
<path class="st0" d="M355.07,477.8c-13.12,14.95-30.33,25.66-47.72,35.33c-13.07,7.27-26.72,14.19-41.53,16.31"/>
<path class="st0" d="M154.53,379.75c-3.99,14.99-8,30.09-9.12,45.56c-1.13,15.47,0.79,31.51,8.07,45.21"/>
<path class="st0" d="M150.74,440.17c-0.73,8.68,1.11,17.47,4.56,25.47c5,11.62,13.22,21.55,21.9,30.74
	c2.52,2.67,5.16,5.35,8.41,7.06"/>
<path class="st0" d="M192.84,510.74c22.05,13.74,48.42,20.43,74.36,18.86"/>
<path class="st0" d="M157.36,374.93c5.28-28.97,23.91-53.59,43.47-75.61"/>
<path class="st0" d="M215.05,293.08c1.4-3.61,4.29-6.43,7.34-8.82c6.74-5.28,14.55-9.01,22.45-12.31
	c17.1-7.15,34.89-12.54,52.91-16.88"/>
<path class="st0" d="M323.18,256.23c29.72,0.08,59.39,6.73,86.31,19.32"/>
<path class="st0" d="M401.75,276.91c22.97,7.96,44.2,20.87,61.84,37.6"/>
<path class="st0" d="M472.18,325.95c17.1,21.17,29.17,46.39,34.94,72.99"/>
<path class="st0" d="M334.63,494.6c20.97-9.79,44.71-11.51,67.85-12.01s46.6,0.03,69.01-5.74c22.41-5.77,44.17-18.98,47.39-36.71
	c-5.22,7.98-12.25,14.7-20.09,20.14c-20.47,14.2-45.77,19.51-70.55,22.14C403.46,485.05,378.33,485.34,334.63,494.6z"/>
<path class="st0" d="M490.3,357.61c11.32,22.06,20.78,45.06,28.27,68.7"/>
<path class="st0" d="M354.11,329.66c11.37,6.8,18.76,18.91,22.55,31.61c8.03,26.9,1.5,55.74-5.06,83.03"/>
<path class="st0" d="M322.69,295.23c16.4,5.73,30.03,17.93,39.76,32.32s15.84,30.94,20.44,47.7c3.58,13.05,6.32,26.67,4.44,40.08
	c-2.55,18.14-13.2,33.97-23.57,49.08"/>
<path class="st0" d="M211.23,523.22c17.18,8.5,37.21,10.37,56.11,7.16c18.9-3.21,36.73-11.29,52.83-21.69"/>
<path class="st0" d="M211.44,454.3c5.84,1.98,12.24,1.11,18.23-0.36c29.93-7.33,55.71-29.88,66.95-58.58"/>
<path class="st0" d="M278.14,306.54c7.64,2.29,13.09,9.12,16.58,16.3c5.89,12.12,7.52,25.8,9.07,39.19"/>
<path class="st0" d="M235.72,378.19c-3.73,5.91-8.03,11.67-13.91,15.44c-5.88,3.77-13.64,5.24-19.93,2.22
	c-3.39-1.63-6.13-4.43-8.14-7.6c-6.82-10.73-5.41-24.9-0.75-36.74c8.88-22.55,29.09-40.3,52.6-46.21
	c12.82-3.22,28.45-2.12,36.44,8.42"/>
<path class="st0" d="M169.05,382.18c0.07,12.47,0.17,25.1,3.44,37.13s10.13,23.59,20.9,29.87c3.51,2.04,7.33,3.48,11.23,4.61
	c16.02,4.64,34.86,3.48,47.3-7.63"/>
<path class="st0" d="M290.37,281.18c20.18-1.13,38.65,11.11,53.52,24.81c17.85,16.46,33.69,37.41,35.46,61.63"/>
<path class="st0" d="M235.73,291.8c-24.92,17.62-49.06,38.67-60.74,66.87c-7.32,17.67-9.28,37.53-5.54,56.28
	c2.11,10.59,6.06,20.94,12.59,29.54c6.52,8.6,15.76,15.36,26.27,17.82"/>
<path class="st0" d="M232.29,279.89c-52.67,25.94-87.87,83.88-86.62,142.58"/>
<path class="st0" d="M621.83,393.37C632,399,640,409,644,420c2,6,4,11,6,16c6,15-12,24-24,26c-18,2-42,0-50,20c-4,12-6,25-14,36
	c-4,4-9,8-14,10c-19,8-40,4-60,6c-4,0-9,1-13,2c-1,0-2,2-3,2c-2,1-5,1-7,2c-13,8-25,17-40,22c-11,4-22,4-34,2
	c-29-5-60-7-84.45,10.15"/>
<path class="st0" d="M591.23,390.81c7.3-2.89,15.34-3.23,22.84-0.88"/>
<path class="st0" d="M584.91,393.52c-6.55,3.24-12.65,7.43-18.35,11.98c-9.54,7.61-17,16.78-24.97,25.91
	c-6.64,7.61-14.93,15.65-23.03,16.33C544.68,435.78,559.35,406.88,584.91,393.52z"/>
<path class="st0" d="M621.18,395.85c2.54-0.6,4.86,1.5,6.6,3.45c2.65,2.97,5.22,6,7.71,9.1c6.96,8.66,13.6,18.75,13.04,29.85"/>
<path class="st0" d="M648.54,434.39c1.52,4.21,3.03,8.92,1.25,13.03c-1.71,3.93-5.91,6.05-8.93,9.09"/>
<path class="st0" d="M647.96,442.47c1.36,1.55,1.36,3.96,0.48,5.82c-0.88,1.86-2.48,3.28-4.14,4.51
	c-11.99,8.87-27.79,10.14-45.07,11.3c-3.46-0.85-7.17-0.03-10.33,1.61s-5.86,4.04-8.42,6.52c-3.44,3.32-6.81,6.97-8.27,11.52"/>
<path class="st0" d="M597.27,465.8c-2.71-0.26-5.52-0.51-8.1,0.36c-2.46,0.83-4.48,2.61-6.24,4.51
	c-6.48,6.98-10.44,16.26-10.97,25.77"/>
<path class="st0" d="M575.33,480.78c-1.78,7.69-3.58,15.42-6.66,22.68c-3.08,7.26-7.55,14.11-13.84,18.87"/>
<path class="st0" d="M592.49,287.19c-4.11,40.97-6.96,82.06-8.56,123.2"/>
<path class="st0" d="M598.7,284.65c-3.19,32.41-5.6,64.89-7.21,97.41c-0.43,8.77-0.81,17.57-0.04,26.32"/>
<path class="st0" d="M654.02,296.05c-14.57,33.31-29.13,66.62-43.7,99.93"/>
<path class="st0" d="M595.38,252.39c-7.83,2.76-13.15,10.95-13.35,19.25c-0.06,2.42,0.29,4.92,1.48,7.03
	c2.01,3.57,6.12,5.49,10.17,6.12c6.91,1.07,14.87-1.72,17.78-8.08"/>
<path class="st0" d="M660.57,260.99c-3.95,1.65-6.85,5.27-8.4,9.26c-1.55,3.99-1.9,8.35-1.92,12.63c0,1.59,0.04,3.19,0.38,4.74
	c1,4.53,4.76,8.34,9.29,9.39c4.52,1.05,9.58-0.7,12.48-4.33"/>
<path class="st0" d="M161.06,480.01c-24.62,19.92-55.47,30.11-85.58,39.91"/>
<path class="st0" d="M548.49,526.23c-20.3,3.94-40.9,6.4-61.56,7.34c-6.27,0.29-12.65,0.45-18.59,2.46
	c-6.28,2.12-11.7,6.16-17.25,9.78c-12.79,8.35-26.85,14.75-41.55,18.92"/>
<path class="st0" d="M297.88,575.51c8.72-0.92,16.55-5.51,24.64-8.91c15-6.32,31.63-8.71,47.8-6.88c13.89,1.58,27.6,6.21,41.51,4.91
	"/>
<path class="st0" d="M79.26,520.45c7.05-1.06,13.85,2.59,20.04,6.12c7.73,4.41,15.51,8.85,22.24,14.67
	c4.14,3.59,7.93,7.72,12.81,10.23c4.53,2.33,9.71,3.09,14.79,3.39c19.37,1.14,39.43-3.79,57.9,2.15c9.92,3.19,18.6,9.31,28.05,13.7
	c23.41,10.88,51.79,10.42,74.84-1.2"/>
<path class="st0" d="M156.99,481.96c-23.25,18-54.31,22.16-79.92,36.6"/>
<path class="st0" d="M485.43,344.49c7.45,19.8,18.48,38.19,24.82,58.38c4.1,13.07,6.18,26.78,9.29,40.75
	c24.36-11.53,36.89-41.37,62.24-50.51"/>
<path class="st0" d="M592.46,388.68c6.4-1.86,13.29-2.02,19.77-0.46"/>
<path class="st0" d="M579.75,396.11c-5.85,0.56-10.42,5.08-14.47,9.34c-7.6,8-15.2,15.99-22.8,23.99
	c-6.42,6.75-13.54,13.89-22.76,15.29"/>
<path class="st0" d="M448.9,301.77c18.39,20.64,34.67,43.16,48.51,67.09"/>
<path class="st0" d="M369.82,485.25c19.65-6.2,40.78-4.67,61.29-6.7c26.64-2.65,52.64-11.5,75.36-25.66"/>
<path class="st0" d="M219.81,363.77c1.33-2.88,3.43-5.52,6.29-6.89s6.55-1.24,8.96,0.82c1.44,1.22,2.32,2.99,2.89,4.79
	c2.1,6.54,0.56,13.86-2.9,19.81c-3.45,5.94-8.64,10.68-14.12,14.84"/>
<path class="st0" d="M197.25,342.11c12.12-20.57,34.77-34.55,58.6-36.15c4.93-0.33,10.02-0.14,14.56,1.79
	c3.39,1.44,6.33,3.79,9,6.34c20.08,19.08,26.39,51.2,15.03,76.46"/>
<path class="st0" d="M169.34,396.09c-0.74,7.87,0.02,15.88,2.23,23.47c2.27,7.8,6.21,15.34,12.52,20.46
	c3.31,2.69,7.18,4.64,11.15,6.21c22.99,9.1,50.61,5.31,70.29-9.65"/>
<path class="st0" d="M151.41,387.58c-2.64,17.32-5.29,34.76-4.6,52.27c0.69,17.5,4.93,35.27,14.98,49.62
	c8.61,12.29,21.13,21.52,34.84,27.62c13.71,6.09,28.6,9.18,43.52,10.68"/>
<path class="st0" d="M378.05,396.97c-0.46,19.34-8.3,37.65-16.12,55.35c-3.35,7.57-6.72,15.16-10.98,22.26
	c-13.34,22.2-35.5,38.92-60.51,45.64"/>
<path class="st0" d="M229.13,525.89c39.1,3.31,79.3-8.92,109.94-33.43"/>
<path class="st0" d="M149.04,463.8c9.03,27.37,32.19,49.64,59.9,57.58"/>
<path class="st0" d="M189.09,334.13c15.17-20.6,35.48-37.95,59.53-46.66c24.05-8.71,52-8.07,74.24,4.58"/>
<path class="st0" d="M365.75,263.52c25.08-0.16,48.32,12.72,73.58,32.56c10.6,5.31,19.34,13.82,26.43,23.32
	c7.09,9.51,12.65,20.04,18.18,30.53"/>
<path class="st0" d="M158.81,478.45c-9.39,7.76-20.61,12.9-31.69,17.96c-17.55,8.01-35.12,16.03-55.68,23.8
	c12.07-2.76,24.33,3.62,34.12,11.2c9.79,7.58,18.78,16.75,30.38,21.06c23.15,8.59,50.41-4.34,73.2,5.16
	c6.31,2.63,11.83,6.84,17.81,10.16c24.75,13.76,55.26,11.38,82.87,5.07"/>
<path class="st0" d="M582.01,416.49C588,371,592,326,592.36,280.73"/>
<path class="st0" d="M585.86,260.47c-3.26,3.61-2.77,9.16-1.8,13.92c0.29,1.44,0.62,2.91,1.37,4.18c0.74,1.26,1.85,2.27,3.06,3.08
	c2.14,1.44,4.64,2.35,7.2,2.62c4.87,0.51,9.9-1.36,13.39-4.79c3.49-3.43,5.44-8.33,5.46-13.23c0.01-3.45-0.94-6.98-3.11-9.67
	c-2.45-3.03-6.28-4.76-10.16-5.09C597.39,251.18,593.41,252.11,585.86,260.47z"/>
<path class="st0" d="M658.03,262.48c-4.94,3.77-6.92,10.39-6.93,16.61c-0.01,3.64,0.57,7.36,2.35,10.53
	c1.77,3.18,4.87,5.74,8.47,6.26c3.58,0.52,7.15-0.99,10.24-2.88c2.36-1.45,4.59-3.16,6.26-5.37c4.86-6.4,3.69-16.43-2.25-21.84
	C670.22,260.39,660.79,260.37,658.03,262.48z"/>
<path class="st0" d="M589.53,416.06c2.44-44.4,4.88-88.79,7.32-133.19"/>
<path class="st0" d="M610.22,400.09C625,365,639,329,653.96,293.6"/>
<path class="st0" d="M618,401.48c12.07-35.5,25.09-70.69,39.05-105.49"/>
<path class="st0" d="M593.14,265.48c0.28,2.19,1.19,4.29,2.59,6c2.28-2.21,4.02-4.98,5-8c0.39-1.2,0.65-2.57,0.07-3.69
	c-0.8-1.55-2.98-1.96-4.59-1.29c-1.61,0.67-2.75,2.14-3.66,3.63c-0.83,1.35-1.55,2.82-1.65,4.39c-0.1,1.58,0.54,3.28,1.91,4.07
	c1.55,0.9,3.63,0.37,4.93-0.86c1.3-1.23,1.93-3.01,2.26-4.77c0.2-1.11,0.29-2.3-0.17-3.33c-0.46-1.03-1.63-1.82-2.71-1.52
	c-0.78,0.22-1.33,0.92-1.74,1.62c-1.36,2.3-1.91,5.07-1.55,7.71c0.15,1.06,0.82,2.36,1.87,2.17c0.5-0.09,0.86-0.52,1.17-0.93
	c1.34-1.83,2.31-3.93,2.8-6.14c0.21-0.92,0.28-2.03-0.42-2.66c-0.78-0.71-2.06-0.38-2.9,0.25c-1.7,1.29-2.43,3.71-1.73,5.72
	c0.11,0.31,0.27,0.64,0.57,0.79c0.51,0.25,1.1-0.15,1.5-0.55c1.18-1.18,2.09-2.61,2.67-4.17c0.27-0.74,0.04-1.98-0.71-1.76
	c-0.21,0.06-0.37,0.24-0.5,0.42c-0.64,0.89-0.88,2.06-0.65,3.13C597.83,265.51,598.17,265.31,593.14,265.48z"/>
<path class="st0" d="M658.46,272.19c0.13,2.18,0.25,4.35,0.38,6.53c1.7,0.43,3.31-0.89,4.47-2.21c1.18-1.34,2.28-2.87,2.56-4.64
	c0.27-1.77-0.52-3.81-2.19-4.45c-1.45-0.55-3.14,0.1-4.23,1.2c-1.09,1.1-1.7,2.58-2.25,4.03c-0.41,1.09-0.81,2.22-0.74,3.38
	s0.71,2.37,1.81,2.74c1.61,0.56,3.21-0.81,4.28-2.14c1.85-2.32,3.33-5.75,1.51-8.09c-0.53-0.67-1.39-1.18-2.22-0.96
	c-0.78,0.21-1.27,0.97-1.67,1.67c-0.57,0.97-1.13,1.95-1.7,2.92c-0.53,0.92-1.08,1.86-1.2,2.92c-0.13,1.05,0.28,2.24,1.23,2.72
	c1.5,0.75,3.17-0.62,4.26-1.9c1.17-1.38,2.33-2.9,2.54-4.69c0.21-1.79-0.96-3.86-2.76-3.97c-1.48-0.09-2.72,1.12-3.53,2.36
	c-1.21,1.85-1.94,4-2.12,6.2c-0.06,0.7-0.04,1.46,0.4,2.01c0.85,1.06,2.58,0.57,3.65-0.25c1.82-1.4,3.04-3.56,3.3-5.84
	c0.1-0.84,0.06-1.74-0.39-2.45s-1.4-1.16-2.17-0.82c-0.44,0.2-0.74,0.6-1,1.01c-0.88,1.39-1.46,2.97-1.68,4.6
	c-0.1,0.76-0.01,1.72,0.71,2c0.59,0.23,1.22-0.18,1.67-0.61c1.75-1.64,2.8-3.99,2.84-6.39c-1.68,0.75-2.84,2.53-2.86,4.37
	c1.42-0.54,2.41-2.06,2.34-3.58C663.14,269.99,662.7,270.42,658.46,272.19z"/>
<path class="st0" d="M593.68,438.77c12.22,5.36,27.28,3.55,37.89-4.54"/>
<path class="st0" d="M592.79,434.05c2.43,3.78,7.07,5.51,11.51,6.23c8.89,1.43,18.26-0.33,26.03-4.88"/>
<path class="st0" d="M601.54,234.41c-7.44-0.26-14.91,3.14-19.6,8.91"/>
<path class="st0" d="M674.65,247.88c7.58-0.04,14.77,5.84,16.23,13.28"/>
<path class="st0" d="M604.33,236.37c-10.8-1.31-22.13,4.37-27.55,13.81"/>
<path class="st0" d="M670.54,244.28c4.36-0.73,8.92,1.04,12.16,4.05c3.24,3.01,5.26,7.15,6.38,11.43"/>
<path class="st0" d="M599.04,237.91c-7.12,1.18-13.74,5.17-18.12,10.91"/>
<path class="st0" d="M670.21,245.97c2.29-0.4,4.6,0.34,6.81,1.07c1.77,0.59,3.57,1.19,5.06,2.31c3.66,2.74,4.63,7.82,7.63,11.27"/>
</svg>
