<?xml version="1.0" encoding="utf-8"?>
<!-- Generator: Adobe Adobe Illustrator 24.2.0, SVG Export Plug-In . SVG Version: 6.00 Build 0)  -->
<svg version="1.1" id="Layer_1" xmlns="http://www.w3.org/2000/svg" xmlns:xlink="http://www.w3.org/1999/xlink" x="0px" y="0px"
	 width="200px" height="200px" viewBox="0 0 200 200" style="enable-background:new 0 0 200 200;" xml:space="preserve">
<style type="text/css">
	.st0{fill:none;stroke:#000000;stroke-miterlimit:10;}
</style>
<path class="st0" d="M68.32,74.89c-13.31,13.9-17.21,36.01-9.47,53.63s26.66,29.7,45.9,29.3s37.65-13.24,44.66-31.17
	s2.2-39.85-11.67-53.19"/>
<path class="st0" d="M68.3,75.55c-11.12,13.8-14.89,33.2-9.73,50.16"/>
<path class="st0" d="M76.67,156.62c-11.84-8.63-19.89-22.29-21.69-36.83s2.67-29.75,10.21-40.73
	c-14.87,14.81-18.16,39.89-7.61,58.03s33.96,27.7,54.19,22.12"/>
<path class="st0" d="M57.85,86.19c-9.32,17.47-7.34,40.35,4.83,55.97s33.87,23.12,53.09,18.36"/>
<path class="st0" d="M123.8,156.31c12.17-7.93,21.09-20.7,24.35-34.86s0.83-29.54-8.29-45.05c11.1,12.69,15.02,31.27,10,47.37
	C144.85,139.86,131.07,152.92,123.8,156.31z"/>
<path class="st0" d="M88.03,156.92c18.74,3.22,38.95-4.11,51.26-18.6s16.29-35.61,10.09-53.59"/>
<path class="st0" d="M106.5,160.17c15.34,1.33,31.08-7.19,38.36-20.76"/>
<path class="st0" d="M129.47,70.53c-17.76,10.42-40.32,12.22-60.18,4.58c22.03,12.74,51.34,11.63,72.35-2.74"/>
<path class="st0" d="M133.26,74.79c-19.47,9.58-43.33,9.67-61.3-1.29c13.54,6.61,29.16,8.86,44.02,6.33"/>
<path class="st0" d="M67.04,73.29c21.3,9.64,46.74,9.65,68.05,0.04"/>
<path class="st0" d="M72.17,73.86c-2.18-1.16-3.61-3.61-3.54-6.07c0.07-2.47,1.63-4.83,3.86-5.87c17.53-8.12,38.81-7.63,55.95,1.28
	c3.31,1.72,5.6,5.23,5.68,11.37c2.89-1.25,3.66-5.71,1.35-7.85c-7.96-7.39-18.52-11.9-29.36-12.54s-21.86,2.6-30.63,8.99"/>
<path class="st0" d="M137.59,71.01C129.26,60.13,115.54,53.6,101.84,54c-13.7,0.39-27.02,7.7-34.71,19.04"/>
<path class="st0" d="M73.91,77.42c-2.33-1.71-3.63-4.73-3.27-7.6c0.36-2.87,2.36-5.47,5.03-6.56c10.71-4.35,22.04-8.02,33.58-7.39
	c11.54,0.63,23.39,6.34,28.6,16.65"/>
<path class="st0" d="M96.36,54.62c-1.54-3.53-0.14-8.08,3.11-10.13c3.25-2.05,7.96-1.35,10.48,1.56c2.52,2.91,2.53,7.67,0.03,10.6"
	/>
<path class="st0" d="M98.85,55.83c-3.48-2.64-4.05-8.34-1.15-11.61s8.63-3.4,11.67-0.27c3.04,3.13,2.74,8.86-0.62,11.65"/>
<path class="st0" d="M55.87,97.6C49.68,95.21,44.65,90,42.02,83.28c-3.11,2.93-6.22,5.85-9.33,8.78"/>
<path class="st0" d="M56.22,135.19c-11.01-12.41-18.29-28.1-21.78-45.18C35.48,109.13,45.03,127.64,56.22,135.19z"/>
<path class="st0" d="M33.33,88.65c1.02,18.23,10.11,35.87,24.36,47.29"/>
<path class="st0" d="M32.27,92.01c3.04-3.22,6.08-6.43,10.38-11.12c-0.07,8.43,5.72,16.58,13.7,19.3"/>
<path class="st0" d="M43.43,85.43c1.95,6.29,7.28,11.42,13.64,13.12"/>
<path class="st0" d="M152.18,97.68c1.47-2.52,3.06-5.16,5.72-6.67c2.67-1.51,6.75-1.35,8.38,1.09c4.81,7.18,5.53,16.5,1.88,24.22
	s-11.59,13.65-20.63,15.41"/>
<path class="st0" d="M151.02,87.21c3.22-6.38,11.55-10.4,19.35-9.33s14.37,7.13,15.26,14.08c1.44,11.19-2.43,22.83-10.49,31.54
	s-20.18,14.37-32.84,15.33"/>
<path class="st0" d="M148.18,89.68c1.42-7.76,10.46-13.36,19.12-12.72s16.2,6.72,19.04,14.15s1.38,15.86-2.74,22.79
	c-4.12,6.92-10.69,12.45-17.95,16.77c-7.26,4.32-15.26,7.51-23.21,10.69"/>
<path class="st0" d="M150.64,100.93c1.79-4.21,3.77-8.66,7.59-11.18c3.82-2.51,10.03-1.89,11.77,2.34
	c3.51,8.54,2.74,18.73-2.01,26.65c-4.75,7.92-13.38,13.39-22.57,14.3"/>
<path class="st0" d="M150.56,97.58c0.55-4.61,5.12-8.35,9.75-8c4.63,0.36,8.56,4.77,8.4,9.4c-0.27,7.61-1,15.5-4.76,22.12
	c-3.76,6.63-11.33,11.65-18.81,10.21"/>
</svg>
