<?xml version="1.0" encoding="utf-8"?>
<!-- Generator: Adobe Illustrator 26.2.1, SVG Export Plug-In . SVG Version: 6.00 Build 0)  -->
<svg version="1.1" id="Layer_1" xmlns="http://www.w3.org/2000/svg" xmlns:xlink="http://www.w3.org/1999/xlink" x="0px" y="0px"
	 viewBox="0 0 200 200" style="enable-background:new 0 0 200 200;" xml:space="preserve">
<style type="text/css">
	.st0{fill:none;stroke:#000000;stroke-miterlimit:10;}
</style>
<path class="st0" d="M68.3,74.9c-13.3,13.9-17.2,36-9.5,53.6s26.7,29.7,45.9,29.3s37.6-13.2,44.7-31.2s2.2-39.8-11.7-53.2"/>
<path class="st0" d="M68.3,75.6c-11.1,13.8-14.9,33.2-9.7,50.2"/>
<path class="st0" d="M57.8,86.2c-9.3,17.5-7.3,40.3,4.8,56s33.9,23.1,53.1,18.4"/>
<path class="st0" d="M123.8,156.3c12.2-7.9,21.1-20.7,24.4-34.9s0.8-29.5-8.3-45.1c11.1,12.7,15,31.3,10,47.4
	C144.9,139.9,131.1,152.9,123.8,156.3z"/>
<path class="st0" d="M88,156.9c18.7,3.2,38.9-4.1,51.3-18.6s16.3-35.6,10.1-53.6"/>
<path class="st0" d="M106.5,160.2c15.3,1.3,31.1-7.2,38.4-20.8"/>
<path class="st0" d="M129.5,70.5c-17.8,10.4-40.3,12.2-60.2,4.6c22,12.7,51.3,11.6,72.3-2.7"/>
<path class="st0" d="M133.3,74.8c-19.5,9.6-43.3,9.7-61.3-1.3c13.5,6.6,29.2,8.9,44,6.3"/>
<path class="st0" d="M72.2,73.9c-2.2-1.2-3.6-3.6-3.5-6.1c0.1-2.5,1.6-4.8,3.9-5.9c17.5-8.1,38.8-7.6,56,1.3
	c3.3,1.7,5.6,5.2,5.7,11.4c2.9-1.2,3.7-5.7,1.4-7.8c-8-7.4-18.5-11.9-29.4-12.5s-21.9,2.6-30.6,9"/>
<path class="st0" d="M137.6,71c-8.3-10.9-22-17.4-35.8-17c-13.7,0.4-27,7.7-34.7,19"/>
<path class="st0" d="M73.9,77.4c-2.3-1.7-3.6-4.7-3.3-7.6c0.4-2.9,2.4-5.5,5-6.6c10.7-4.3,22-8,33.6-7.4s23.4,6.3,28.6,16.6"/>
<path class="st0" d="M96.4,54.6c-1.5-3.5-0.1-8.1,3.1-10.1c3.2-2,8-1.3,10.5,1.6s2.5,7.7,0,10.6"/>
<path class="st0" d="M98.8,55.8c-3.5-2.6-4.1-8.3-1.2-11.6s8.6-3.4,11.7-0.3s2.7,8.9-0.6,11.6"/>
<path class="st0" d="M54.4,97.6C43.1,95.2,33.9,90,29.2,83.3c-5.7,2.9-11.3,5.8-17,8.8"/>
<path class="st0" d="M55,135.2C35,122.8,21.7,107.1,15.4,90C17.2,109.1,34.6,127.6,55,135.2z"/>
<path class="st0" d="M13.3,88.7c1.9,18.2,18.4,35.9,44.4,47.3"/>
<path class="st0" d="M11.4,92c5.5-3.2,11.1-6.4,18.9-11.1c-0.1,8.4,10.4,16.6,24.9,19.3"/>
<path class="st0" d="M31.7,85.4c3.6,6.3,13.3,11.4,24.8,13.1"/>
<path class="st0" d="M152.2,97.7c1.5-2.5,3.1-5.2,5.7-6.7c2.7-1.5,6.8-1.3,8.4,1.1c4.8,7.2,5.5,16.5,1.9,24.2s-11.6,13.7-20.6,15.4"
	/>
<path class="st0" d="M151,87.2c3.2-6.4,11.6-10.4,19.4-9.3S184.7,85,185.6,92c1.4,11.2-2.4,22.8-10.5,31.5s-20.2,14.4-32.8,15.3"/>
<path class="st0" d="M148.2,89.7c1.4-7.8,10.5-13.4,19.1-12.7s16.2,6.7,19,14.2s1.4,15.9-2.7,22.8c-4.1,6.9-10.7,12.4-17.9,16.8
	c-7.3,4.3-15.3,7.5-23.2,10.7"/>
<path class="st0" d="M150.6,100.9c1.8-4.2,3.8-8.7,7.6-11.2c3.8-2.5,10-1.9,11.8,2.3c3.5,8.5,2.7,18.7-2,26.7s-13.4,13.4-22.6,14.3"
	/>
<path class="st0" d="M150.6,97.6c0.6-4.6,5.1-8.3,9.8-8c4.6,0.4,8.6,4.8,8.4,9.4c-0.3,7.6-1,15.5-4.8,22.1
	c-3.8,6.6-11.3,11.6-18.8,10.2"/>
</svg>
