<?xml version="1.0" encoding="utf-8"?>
<!-- Generator: Adobe Adobe Illustrator 24.2.0, SVG Export Plug-In . SVG Version: 6.00 Build 0)  -->
<svg version="1.1" id="Layer_2" xmlns="http://www.w3.org/2000/svg" xmlns:xlink="http://www.w3.org/1999/xlink" x="0px" y="0px"
	 width="657px" height="561px" viewBox="0 0 657 561" style="enable-background:new 0 0 657 561;" xml:space="preserve">
<style type="text/css">
	.st0{fill:none;stroke:#000000;stroke-miterlimit:10;}
</style>
<path class="st0" d="M293.7,29.9c-3.8,0.7-7.6,2.5-10,5.5s-3.3,7.4-1.7,11"/>
<path class="st0" d="M288.1,32.4c-1.7,1.3-3.1,3-4.1,4.9c-1.6,2.9-2.2,6.8-0.3,9.5c0.5,0.8,1.3,1.4,2,2c4.2,3.1,10.1,3.6,14.7,1.3"
	/>
<path class="st0" d="M298.6,34.3c-0.8-1.1-2.7-1.2-3.6-0.1c-0.3,0.4-0.5,1-0.6,1.5c-0.1,1.6,1.1,3.2,2.7,3.5
	C298.6,39.4,301.2,37.8,298.6,34.3z"/>
<path class="st0" d="M293.6,31c1.7-1.1,3.9-0.8,5.7-0.1c1,0.4,1.9,0.9,2.7,1.7c0.7,0.8,1.2,1.8,1.5,2.8c1.1,3.8-0.2,8-1.8,11.6"/>
<path class="st0" d="M281.8,47.6c2.4,1.9,5.2,3.4,8.2,4.3c1.1,0.4,2.3,0.6,3.5,0.5c1-0.1,1.9-0.6,2.8-1c1.7-0.8,3.6-1.8,4.5-3.5"/>
<path class="st0" d="M297.4,30.3c-2.7-0.4-5.5,0.2-8,1.4c-2.5,1.2-4.6,3-6.5,5"/>
<path class="st0" d="M296.5,20.5c-3.8-1.6-8.2-1.5-12.2-0.2c-3.9,1.3-7.5,3.6-10.6,6.4c-2.8,2.4-5.3,5.2-6.9,8.6
	c-3.3,6.9-2,15.8,3.3,21.4s14,7.6,21.1,4.8"/>
<path class="st0" d="M323.3,17.4c-0.2,10.4-5.9,19.9-12.3,28.1s-13.8,15.7-18.7,24.9c-4.9,9.2-6.9,20.7-1.8,29.8"/>
<path class="st0" d="M330.6,20.2c-0.5,10.7-6.1,20.5-12.3,29.2c-6.2,8.7-13.4,17-17.7,26.7c-4.4,9.8-5.6,21.8,0,30.9"/>
<path class="st0" d="M303.1,112.1c5.7,5.3,13.3,7.9,20.6,10.6c10.4,3.7,20.6,7.7,30.8,11.8c9.4,3.8,18.7,7.8,27.9,12.2
	c39.7,19.4,75.1,47.5,102.9,81.9"/>
<path class="st0" d="M332.1,18.8c23.5,2.2,45,14.2,64.7,27.3c40.7,27.1,78.6,61.9,96.5,107.3c5.1,12.9,8.5,26.8,7.7,40.7
	c-0.8,13.9-6,27.8-16.2,37.3"/>
<path class="st0" d="M301.1,77.8c14.7-1.2,29.2,3.8,42.9,9.5c31.7,13.2,62,30.4,87.3,53.6s45.7,52.3,55.5,85.2"/>
<path class="st0" d="M319.5,79.2c3.4-6.2,8.4-11.8,14.7-15c6.3-3.2,14.1-3.9,20.6-1.1c4.5,2,8.1,5.5,11.6,9
	c22.4,22.7,42.3,48.5,69.1,65.8c5.6,3.6,11.5,6.9,15.9,11.9c4.3,5,6.7,12.4,3.8,18.4"/>
<path class="st0" d="M445.1,154.3c3.2-1.1,6.6-2.3,8.7-5c0.6-0.9,1.1-1.8,1.6-2.8c1.1-2.4,2.2-4.8,3-7.3c1.4-4.3,2.2-8.9,4.2-13
	c2.8-5.8,7.8-10.6,9.5-16.8"/>
<path class="st0" d="M410.3,123.2c2.9-4.4,7.1-7.8,12-9.7"/>
<path class="st0" d="M414.4,127c0.8-5.6,5.1-10,9.2-13.9"/>
<path class="st0" d="M424.3,133c4.3-5.6,10.8-9.6,17.7-10.7"/>
<path class="st0" d="M429,138.8c2.6-7.2,8.1-13.3,14.9-16.7"/>
<path class="st0" d="M434.1,143c3.8-5.2,9.1-9.4,15.1-11.8c1.1-0.4,2.3-0.8,3.4-0.4"/>
<path class="st0" d="M439.7,146.4c3.1-6.4,7.9-12,13.7-16.1"/>
<path class="st0" d="M362.1,96.2c16.8,12.5,34.9,23.4,51.5,36.2c16.6,12.9,31.9,28.1,41,47c1.3,2.6,2.4,5.7,1.5,8.4
	c-1,2.8-5.2,4.3-6.9,1.9"/>
<path class="st0" d="M323.6,81.5c11.4,5.1,21.8,12.1,31.8,19.6c16.5,12.4,31.9,26.3,45.9,41.5c1.4,1.6,2.9,3.1,3.9,5
	c0.5,0.9,0.9,2,0.6,3c-0.3,0.9-1.1,1.4-1.9,1.9c-2.4,1.3-5.2,1.7-7.8,1.3"/>
<path class="st0" d="M367,118.6c4.9-3.6,8-9.6,8-15.8"/>
<path class="st0" d="M378.2,107c-3.1,4.3-6.4,8.8-11.2,11.1"/>
<path class="st0" d="M384.7,111.8c0.8,6.1-1.2,12.4-5.4,16.9"/>
<path class="st0" d="M390.8,114.7c-2.1,5.4-5.9,10.1-10.7,13.4"/>
<path class="st0" d="M401.3,124.8c-1.7,5.7-5.3,10.9-10.1,14.5"/>
<path class="st0" d="M405.3,128.1c-3.4,4.4-7.8,7.9-12.7,10.4"/>
<path class="st0" d="M415.5,136.3c-1.5,6.7-5.6,12.7-11.4,16.4"/>
<path class="st0" d="M421.1,141c-1.8,2.8-4.6,4.7-7.5,6.3c-2.9,1.6-6,2.9-8.7,4.9"/>
<path class="st0" d="M425.9,147.5c-1.3,4.9-4.7,9.3-9.2,11.7"/>
<path class="st0" d="M429.6,151.3c-2.7,4.1-7,7-11.7,8.1"/>
<path class="st0" d="M435.6,157.4c-1.6,3.7-4.6,6.8-8.2,8.5"/>
<path class="st0" d="M438.1,160.3c-3,2.9-7,4.6-11.2,5"/>
<path class="st0" d="M441.2,164.3c-1.4,2.8-3.5,5.2-6,7.1"/>
<path class="st0" d="M443.8,166.5c-2.2,2.2-5,3.7-8,4.6"/>
<path class="st0" d="M447.9,171.5c-0.8,2.8-2.7,5.2-5.3,6.6"/>
<path class="st0" d="M450.3,174.6c-2.1,1.7-4.8,2.8-7.5,3"/>
<path class="st0" d="M453.9,180.3c-0.8,1.6-1.9,3.1-3.3,4.4"/>
<path class="st0" d="M450.4,184.8c1.7-0.6,3.3-1.2,4-2.3c-6.2-12.2-14.7-23-24.2-32.8s-19.9-18.6-30.3-27.5"/>
<path class="st0" d="M293.8,105.2c2.6,5.8-1.8,14.7-4.7,19.6c-3.6,6.1-8.3,11.5-12.6,17.2c-9.3,12.2-16.1,26.1-19.9,41
	c-2.1,8.5-3.3,17.3-3.3,26"/>
<path class="st0" d="M291.2,118.1c-9.6,11.5-19,23.2-26.3,36.3c-7.3,13-12.5,27.5-13,42.5"/>
<path class="st0" d="M284.8,127.2c-16.6,24.1-33.7,49.8-35.9,79"/>
<path class="st0" d="M181.1,68.9C198.2,34.5,233.3,9.6,271.5,5c9-1.1,18.3-1.1,27.1,1.1c8.6,2.1,16.7,6.3,25.7,12.7
	c-11-9.4-25.7-13.6-40.1-13.6s-28.6,3.7-42.2,8.6c-5.6,2-11,4.3-16.3,6.9c-11.7,5.9-22.3,14-31.2,23.6"/>
<path class="st0" d="M315.9,14.1c-10.7,3.6-22.4,2.4-33.7,1.7c-11.3-0.7-23.3-0.7-33.1,4.8"/>
<path class="st0" d="M292.3,16.9c-20.5-4.6-42,2.1-60.5,12"/>
<path class="st0" d="M256.3,19.8c-10.7,2.8-21.6,6.1-30.7,12.4c-10,6.9-17.4,17-22.8,27.8s-9,22.5-12.5,34.1"/>
<path class="st0" d="M210.2,42.6c-2.6,24.3-18.4,45-25.6,68.4"/>
<path class="st0" d="M201.5,70.7c-8.4,15.8-18,31.1-25.1,47.5c-7.1,16.5-11.7,34.5-9.7,52.3"/>
<path class="st0" d="M198.4,44c-21.5,33-32.1,72.3-35.9,111.6c-1.8,18.6-2.2,37.5,1.5,55.8c3.6,18.3,11.4,36.1,24.3,49.6"/>
<path class="st0" d="M165.2,150.6c-5,36.4,2.6,74.5,21.4,106.2"/>
<path class="st0" d="M161.3,189c6.9,34.8,19.7,69.9,45.3,94.4"/>
<path class="st0" d="M189.7,261.5c2.1,11.4,13.4,18.5,24.2,22.5c4.2,1.6,8.8,2.8,13.2,2.2c3.5-0.5,6.7-2.1,9.6-4.1
	c4.5-3.1,8.4-7.1,11.3-11.8c6.4-10.4,7.7-23.2,7.4-35.4c-0.3-12.2-1.9-24.5-0.6-36.7"/>
<path class="st0" d="M270.7,147.4c-13,25.3-17.9,54.6-13.8,82.7"/>
<path class="st0" d="M186.5,100.9c-16.2,23.8-24.8,52.7-24.4,81.5"/>
<path class="st0" d="M181.4,111.2c-13,21.2-19.5,46.4-18.3,71.2"/>
<path class="st0" d="M298.8,102.4c1.1,5.8,5.2,10.7,10,14.1s10.4,5.5,15.9,7.6c27.7,10.5,55.4,21.3,80.9,36.1
	c30.7,17.9,58.1,41.6,80.1,69.5"/>
<path class="st0" d="M300.9,77.2C319,76.8,336.5,83.4,353,91c30,13.8,58.5,31.5,82.2,54.5s42.7,51.3,52.3,82.9"/>
<path class="st0" d="M321.5,79.4c7-8.4,15.8-17.6,26.7-16.9c7.9,0.5,14.4,6.2,19.9,11.9c19.4,19.8,36.1,42.8,59.1,58.2
	c6.5,4.3,13.5,8,19.3,13.2c5.8,5.2,10.5,12.4,10.5,20.1"/>
<path class="st0" d="M396.2,154.1c3.6,0.7,8.5,0.6,9.6-2.9c0.6-2-0.5-4.1-1.7-5.9c-5.8-8.4-13.5-15.2-21.3-21.7
	c-19.6-16.3-40.1-31.5-61.4-45.5"/>
<path class="st0" d="M355.5,64.7c-4.1-1-8.2-2-12.4-1.6c-5,0.4-9.7,2.8-13.7,6s-7.2,7-10.5,10.8"/>
<path class="st0" d="M296.1,21.1c-7.4-2.5-15.6,0.2-21.9,4.7c-6.3,4.6-11.5,11.8-10.7,19.6c0.4,4.4,2.8,8.6,6.1,11.6s7.4,5,11.7,6.3
	c2.6,0.7,5.7,1.1,7.8-0.7"/>
<path class="st0" d="M205.2,281.1c16.8,17.2,37.7,30.3,60.6,37.8"/>
<path class="st0" d="M294.3,113.5c55,68.9,148.2,98.7,202.9,167.8"/>
<path class="st0" d="M254.8,240.1c38.5,49.3,95.3,83.9,156.8,95.5c15.5,2.9,31.9,4.3,46.6-1.4"/>
<path class="st0" d="M358.6,282.7c32.8,14.4,65.6,28.8,98.4,43.3c20.2,8.9,40.7,17.8,62.5,21c3.4,0.5,7.2,0.7,9.8-1.5
	c2.6-2.2,1.8-7.7-1.6-7.8"/>
<path class="st0" d="M382.3,264c33.2,22.9,69,41.9,106.6,56.5c9.7,3.8,21.1,7.1,29.9,1.7c-1.4-5.8-5.1-10.9-10.1-14.2"/>
<path class="st0" d="M370.4,232.2c38.3,28.4,79.4,52.9,122.5,73.1c6.6,3.1,14.8,5.9,20.6,1.5c-3.1-6.6-7.5-12.6-12.8-17.5"/>
<path class="st0" d="M403.9,227.3c26.1,27,59.3,47.1,95.3,57.8"/>
<path class="st0" d="M296.6,238.6c30.2,29,65.5,52.7,103.7,69.6"/>
<path class="st0" d="M307.5,242.3c31.6,32.3,70.9,56.9,113.7,71.3"/>
<path class="st0" d="M377.4,291.1c36.3,22,75.5,39.3,116.3,51.3"/>
<path class="st0" d="M414.6,307c-2.5-1.3-5.1-2.6-7.6-3.9c35.1,20,73.2,34.8,112.6,43.8"/>
<path class="st0" d="M389.8,268.8c25.9,23.6,59.5,36.6,92.6,47.9"/>
<path class="st0" d="M411.8,280.9c25.2,21.1,56.3,35.1,88.8,39.8"/>
<path class="st0" d="M375.8,234.9c35.3,31.2,76.1,56.3,119.8,73.7"/>
<path class="st0" d="M419.6,264.1c25.5,17.5,53.2,31.8,82.3,42.2"/>
<path class="st0" d="M404.2,227.1c10,10.2,20.1,20.4,32.1,28.3c17.8,11.7,38.8,17.5,58,26.8"/>
<path class="st0" d="M497.2,342.2c-1.8-0.7-3.7-1.3-5.5-2c5.5,1.6,10.9,3.7,16.5,5.2c5.6,1.5,11.4,2.3,17.1,1.2c1-0.2,2-0.5,2.7-1.1
	c1.5-1.3,1.2-3.8,0.4-5.6c-1.7-3.9-5.2-6.6-8.8-8.8c-3.7-2.3-7.7-4.2-11.8-5.6"/>
<path class="st0" d="M428,292c22.4,14.9,47.2,26.2,73.2,33.3c3.3,0.9,6.7,1.7,10.1,1.1c3.4-0.6,6.7-2.9,7.3-6.3
	c0.7-3.8-2.2-7.4-5.2-9.9"/>
<path class="st0" d="M419.7,267.4c16.9,10.6,34.4,20.2,52.4,28.8c11,5.3,22.4,10.2,34.5,11.4c2.6,0.3,5.9,0,6.9-2.4
	c0.8-1.9-0.1-4-1.2-5.7c-4.3-7.1-10.5-13-17.8-17"/>
<path class="st0" d="M404.3,225.2c18.2,21.2,40.7,38.7,65.8,51c8.3,4.1,17.1,7.7,26.2,9.2"/>
<path class="st0" d="M296.9,110.7c18.7,29,47.8,49.5,76.2,69.2"/>
<path class="st0" d="M310.9,122c24.4,26.1,52.1,49.1,82.1,68.5"/>
<path class="st0" d="M421.5,216.4c-23.3-14.2-45.1-30.7-70.8-56C377.2,183.3,405.3,204.4,421.5,216.4z"/>
<path class="st0" d="M273.7,337.8c-7.3-12-10.7-26.3-10.6-44.1C264.3,306.8,266.8,319.7,273.7,337.8z"/>
<path class="st0" d="M295,366.1c9.2-4.4,17.8-10.2,25.2-17.2"/>
<path class="st0" d="M362,384.6c-14-11.2-22.6-29-24.4-50.3C338.6,353.9,347.7,373,362,384.6z"/>
<path class="st0" d="M333.3,332.1c2.6,11.6,5.5,23.2,10.3,34c4.8,10.8,11.8,21,21.4,28"/>
<path class="st0" d="M367.7,377c1,8-0.5,16.1-3.2,23.6c-2.7,7.5-6.6,14.6-9.1,18.2c-7.7,7-15.9,14.9-17,25.2"/>
<path class="st0" d="M339.5,437c-1.2,3.5-2.3,7.1-2.5,10.7c-0.2,3.7,0.8,7.6,3.5,10.2"/>
<path class="st0" d="M366.2,378.2c3.6-2.2,8.2-2.7,11.9-0.5c0.4,17.4-3.1,34.9-10.1,50.9"/>
<path class="st0" d="M377.6,382.1c0,16-3.6,31.9-9.4,45.6c0,7.1-0.2,15-5,20.3"/>
<path class="st0" d="M361.8,439.8c-1.5,2.7-2.8,5.4-3.9,8.3c-0.7,1.8-1.3,4.2,0.1,5.6c0.8,0.8,1.9,1,3,1c1.1-0.1,2.2-0.4,3.2-0.9"/>
<path class="st0" d="M354.2,432.4c-4.5,6.1-7.1,13.4-7.6,20.9c-0.2,2.8,0.1,5.8,1.9,7.9c2.1,2.5,5.8,2.9,8.9,2.2
	c5-1.3,9.1-5.5,10.2-10.6"/>
<path class="st0" d="M343.9,431.5c-4.1,7.5-7.7,16.3-5.1,24.4c0.4,1.4,1.1,2.8,2.3,3.7c1.2,0.9,2.9,1.1,4.1,0.2"/>
<path class="st0" d="M377.7,397.9c10-4.6,18.1-12.9,22.4-23"/>
<path class="st0" d="M335.7,333.8c1.1,15,8.3,28.7,15.4,41.9c3.3,6.2,6.9,12.6,12.9,16.3"/>
<path class="st0" d="M377.3,394.5c9.4-6.1,19.2-12.5,24.6-22.3"/>
<path class="st0" d="M411.1,360.6c10.8,1.8,21.4-3.8,30.9-9.2c6.8-3.9,13.9-8,18.2-14.5"/>
<path class="st0" d="M379.8,392.5c6.6-3.6,12.9-7.8,17.9-13.4s8.6-12.6,9.1-20.1"/>
<path class="st0" d="M406.6,364.3c20.6-2.9,40-13.8,53.4-29.8"/>
<path class="st0" d="M283.6,358.2c2.8-0.5,4-4.1,3-6.8s-3.5-4.4-5.8-6c-15.1-10.1-31.9-17.7-49.4-22.6c-3.3-0.9-6.6-1.7-10-1.7
	c-9.6,0.1-17.9,7.1-22.8,15.3c-2.2,3.7-4,7.9-3.9,12.3c0.1,4.4,2.4,8.8,6.4,10.6"/>
<path class="st0" d="M225.2,331.6c-7.5,2.8-14.1,8.1-18.5,14.7c-2.1,3.1-3.7,6.6-3.9,10.3c-0.2,3.7,1.3,7.7,4.4,9.7
	c2.8,1.8,6.6,1.9,9.8,0.8c3.2-1,6.1-3,8.9-4.9"/>
<path class="st0" d="M285.8,357.6c1.7-2.4,1.4-5.7,0-8.3c-1.4-2.6-3.7-4.5-6.1-6.2c-12.4-9-27-14.5-41.8-18.4
	c-3.2-0.8-6.4-1.6-9.7-1.9c-10.7-1-21.8,3.4-29,11.5c-3.2,3.6-5.6,8-5.7,12.7c-0.1,4.8,2.7,9.7,7.2,11.1"/>
<path class="st0" d="M281.9,358.2c-6.3-0.6-11.5-5.1-17.1-8.1c-4-2.2-8.3-3.7-12.7-5.2c-5.8-2-11.6-4-17.7-4.4
	c-6.1-0.4-12.6,1-17.1,5.2c-2.5,2.3-4.3,5.7-3.7,9c0.7,3.3,4.6,6,7.6,4.4"/>
<path class="st0" d="M225.7,330.4c-5.6,2-11.1,4.7-15.6,8.5c-4.6,3.9-8.2,9-9.5,14.8c-0.8,3.6-0.6,7.6,1.6,10.5c3.1,4,9,4.5,14,3.7
	c4.8-0.7,9.7-2.3,12.7-6"/>
<path class="st0" d="M193.1,345c2.4,0.3,4.9-0.5,7.3-0.6c2.5-0.1,5.3,0.7,6.1,3.1"/>
<path class="st0" d="M211.9,338.9c-3-4.5-8.9-6.8-14.1-5.5"/>
<path class="st0" d="M223.2,340.6c-2.5-1.9-5.5-3-8.6-3.3"/>
<path class="st0" d="M214.2,352c-2.5-0.1-5-0.3-7.5,0.3c-2.4,0.6-4.8,2-5.9,4.2"/>
<path class="st0" d="M216,358.2c-1.9,3.6-4.5,6.8-7.8,9.3"/>
<path class="st0" d="M234.1,340.7c-0.8-3.7-3.1-7.1-6.2-9.4"/>
<path class="st0" d="M247.4,342.4c-0.1-3.5-0.9-7-2.4-10.2"/>
<path class="st0" d="M261,347.2c0.7-3.4,1-6.9,0.7-10.3"/>
<path class="st0" d="M278.2,357.9c14.9,5.5,27,16.7,37.8,28.3c10.8,11.7,20.8,24.3,33.4,34"/>
<path class="st0" d="M364.6,397.4c1.6-6.4,1.8-13.2,1.2-17.9c-0.2,5-0.5,9.9-0.8,14.9c-0.2,2.7-0.8,5.3-1.5,7.8
	c-0.6,1.9-1.3,3.8-2.2,5.6c-1.9,3.5-3.6,7-5.2,10.7"/>
<path class="st0" d="M373.8,387.7c-2.8-0.8-5.9-0.4-8.5,1"/>
<path class="st0" d="M368.6,396c1.9-0.9,4.2-0.7,5.9,0.5c1.7,1.2,2.7,3.3,2.5,5.3"/>
<path class="st0" d="M366.7,403.8c2.2,0.5,4.2,1.7,5.4,3.5c1.2,1.8,1.6,4.3,0.7,6.3"/>
<path class="st0" d="M363.8,415c1.8,0.4,3.4,1.6,4.4,3.2c1,1.6,1.4,3.5,1,5.3"/>
<path class="st0" d="M346.1,431.5c2.2-0.6,4.7-0.3,6.7,1c0.7,0.4,1.4,1.1,1.2,1.9"/>
<path class="st0" d="M341.7,443.6c1.3,1.5,3.5,2.3,5.4,1.9"/>
<path class="st0" d="M340.6,453.2c1.3,1.7,3.6,2.6,5.7,2.4"/>
<path class="st0" d="M360.9,441c-0.6-0.9-1.1-1.7-2-2.3c-1.5-1-3.5-0.7-5.2-1.1"/>
<path class="st0" d="M357.3,448.8c-1.6-1.2-3.9-1.4-5.7-0.4"/>
<path class="st0" d="M358.7,454.8c-1.1,2.2-3.1,4.1-5.4,5"/>
<path class="st0" d="M367,432.5c-1.5-3.5-4.9-6.2-8.7-6.9"/>
<path class="st0" d="M1.2,128.1c24.1,17.3,48.3,34.5,72.4,51.8c22.6,16.2,45.4,32.5,63.6,53.5c10.5,12.1,19.3,25.6,28,39.1
	c10,15.5,20.1,31,30.1,46.4"/>
<path class="st0" d="M2.3,153.8c60.1,31.8,111.8,79.3,148.4,136.6c10.6,16.6,20.4,34.5,35.8,46.8"/>
<path class="st0" d="M8.1,137.5c33.1,14.5,61.6,37.4,89.5,60.5c20.6,17.1,41.4,34.8,56.3,57.1c17,25.5,26.8,57.5,52,74.9"/>
<path class="st0" d="M206.3,327.1c-6.6-4.5-12.5-9.9-17.9-15.9c-5.6-6.2-10.6-13-15.3-25.2c2.9,6.7,5.9,13.6,10.9,19
	c2.2,2.3,4.6,4.2,6.8,6.6C194.4,315.5,197.6,320.9,206.3,327.1z"/>
<path class="st0" d="M162.6,308.3c7.5,11.9,17.3,22.3,28.8,30.6c0.8,0.6,1.9,1.1,2.6,0.4"/>
<path class="st0" d="M4.8,154.5c19.5,5.4,35.7,18.6,51.3,31.5c20.1,16.7,40.4,33.4,57.5,53.2c4.8,5.5,9.3,11.2,13.8,17
	c8.2,10.4,16.4,20.9,23.8,32c12.9,19.4,23.8,41.3,43.4,53.8"/>
<path class="st0" d="M214.5,353.7c15,11,33.7,15.5,50.6,23.2c17.7,8,33.6,19.7,46.6,34.1c9.6,10.7,17.7,23,29.4,31.5"/>
<path class="st0" d="M339.5,437.5c-17.4-10.9-27.7-30.1-43.1-43.7c-22.8-20.1-54.6-25.9-81.4-40.1"/>
<path class="st0" d="M281.4,361c14.5,4.5,25.6,16.1,35.3,27.9c9.7,11.7,19,24.3,32.2,32"/>
<path class="st0" d="M364.8,381.6c-0.4,8.5-0.9,17.1-3.6,25.1c-2.1,6-5.4,11.6-9.8,16.3c-2.9,3.1-6.2,5.8-8.8,9.1
	c-2.6,3.3-4.5,7.5-3.8,11.7"/>
<path class="st0" d="M378.8,382.3c-1.3,16.8-4.7,33.5-10.2,47.1c0.5,5-0.9,10.1-3.9,14.1"/>
<path class="st0" d="M366.8,438.6c-2.2,4.1-4.4,8.2-6.6,12.3L366.8,438.6z"/>
<path class="st0" d="M357.3,428.7c-6.8,7.2-11.3,16.5-12.7,26.3c-0.5,3.5-0.1,7.9,3.1,9.2c1.5,0.6,3.2,0.4,4.8,0.2
	c5.7-0.8,12.3-2.3,14.9-7.4"/>
<path class="st0" d="M354.3,433.4c-5.1,7-8.3,15.4-9.2,24c-0.2,2-0.2,4.2,1.1,5.7c1.7,1.8,4.7,1.5,7.1,1.1"/>
<path class="st0" d="M382.7,393.2c14.6-9.7,25.4-24.9,29.6-41.9"/>
<path class="st0" d="M360.7,449.8c14.4,7.6,30.7,11.8,47,12c11.9,0.2,23.8-1.7,35.7-2.3c35.6-1.6,71,8.7,103,24.4
	c32,15.7,61.2,36.6,90.1,57.3"/>
<path class="st0" d="M370.2,432.2c8.9,5.6,19.7,7.4,30.2,7.4c10.5,0,20.9-1.7,31.4-2.7c40.6-3.6,82.1,4.8,118.1,23.9
	c9.3,5,18.2,10.6,27.1,16.3c25.7,16.4,51.1,33.2,76.2,50.4"/>
<path class="st0" d="M510.8,472.5c13.7,21.8,30,42,47.3,57.3c17.4,7.2,36.7,10,55.4,8.2"/>
<path class="st0" d="M536.1,530.2c-11.7-18-19.9-38.2-24-59.3"/>
<path class="st0" d="M482.4,462.3c4.8,14.5,9.6,29.2,17.9,42s20.5,23.8,35.4,27.3"/>
<path class="st0" d="M485.8,500c-4.5-10.7-5.7-22.7-3.4-34.1"/>
<path class="st0" d="M483.7,498.8c-7.3-1.5-14-5.9-18.3-12.1"/>
<path class="st0" d="M464.8,485.7c-4.5-8.2-7.5-17.3-8.6-26.6"/>
<path class="st0" d="M451.3,434.3c-4.1-26.1-10.5-51.8-19.1-76.8"/>
<path class="st0" d="M467.9,335.4c15.6,45.2,41.7,86.8,75.5,120.5"/>
<path class="st0" d="M576.1,499.9c13.2,11.6,25.7,23.9,37.5,36.9"/>
<path class="st0" d="M452.7,434.6c-6.1-25.8-13.1-51.4-21.1-76.7"/>
<path class="st0" d="M456.3,459.7c0.4,8.6,2.4,17.3,7.1,24.5c4.7,7.2,12.2,12.8,21.3,14.2c-5.6-10.4-6.5-23.2-2.6-34.3"/>
<path class="st0" d="M513.7,473.7c2,20.2,9.5,39.8,21,54.6c-27.2-9.4-48.2-34.7-52.5-63.2"/>
<path class="st0" d="M558.4,529.4c-19-15-34.4-34.6-44.5-56.7"/>
<path class="st0" d="M613.8,536.6c-11.1-9.9-21.5-20.4-31.3-31.5"/>
<path class="st0" d="M555.8,528.4c18.1,7.9,38.5,10.5,58,7.5"/>
<path class="st0" d="M544.3,455.8c-33.4-34.6-60.4-75.4-79.1-119.6"/>
<path class="st0" d="M292.6,147.9c1.4,25.3,7.7,50.3,18.7,73.2"/>
<path class="st0" d="M314.6,161.4c3.8,12.8,10,24.8,16.2,36.6c6.3,12,12.5,24,18.8,35.9"/>
<path class="st0" d="M349.1,177.7c3.7,8.9,11.3,16,20.4,19"/>
<path class="st0" d="M296.6,149.2c-0.9,21.8,3.1,43.8,11.5,64"/>
<path class="st0" d="M316.6,162.7c7.2,23,17.6,44.9,30.7,65.1"/>
<path class="st0" d="M351.1,176.7c2.9,6.9,6.9,13.4,11.8,19"/>
<path class="st0" d="M256.1,243.7c24,30.7,55.6,55.4,91.2,71.2c35.6,15.8,75.2,22.7,114,19.8"/>
<path class="st0" d="M330.1,18.8c64.8,16.3,121.9,60.8,153.6,119.5c7.3,13.6,13.4,28.1,15.4,43.5s-0.2,31.6-8.6,44.6"/>
<path class="st0" d="M305.6,114.1c-8.3-7.9-9.5-21.1-6.2-32s10.4-20.3,16.9-29.7s12.8-19.6,14.1-30.9"/>
<path class="st0" d="M292.7,103.7c-5.9-8.6-4.9-20.4-0.7-29.9c4.2-9.5,11.3-17.5,17.6-25.8s12.1-17.6,13.1-27.9"/>
<path class="st0" d="M332.9,18.5c69.6,18.9,129.4,71.1,157.4,137.6c5.3,12.5,9.5,25.7,9.5,39.2c0,13.5-4.7,27.6-14.9,36.5"/>
<path class="st0" d="M449.2,191.6c1.8,0.2,3.7,0.3,5.5,0.5c3.6-7.8-1.7-16.8-7.1-23.5c-23.3-29.1-52.5-53.4-85.3-71"/>
<path class="st0" d="M327.7,19c-0.7,15.1-9.9,28.3-18.1,41s-16,27.3-13.6,42.2"/>
<path class="st0" d="M314.2,14.8c-21-0.2-42.4-0.3-62.5,5.9S212.6,40.3,205.1,60"/>
<path class="st0" d="M209.3,43.8c-8.3,26.8-19.3,52.8-32.8,77.4"/>
<path class="st0" d="M186.3,257.3c5,8.5,10.2,17.1,17.7,23.5c7.6,6.3,18.1,10,27.4,6.8c6.6-2.2,11.8-7.6,15.1-13.7s4.9-13,6-19.9
	c2.6-16.3,2.8-33,0.5-49.3"/>
<path class="st0" d="M205.4,281.6c17.7,16.5,39.1,29,62.2,36.4"/>
<path class="st0" d="M275.3,339.2c-8.4-15.5-12.8-33.2-12.6-50.9"/>
<path class="st0" d="M302.5,338.4c9.8,6.8,21.4,10.8,33.3,11.4"/>
<path class="st0" d="M208.3,285.2c17,15.3,36.6,27.7,57.7,36.5"/>
<path class="st0" d="M303.9,336.6c8.3,7.5,19.6,11.6,30.8,11.1"/>
<path class="st0" d="M320.5,345.7c-7.8,8.1-16.8,15.1-26.7,20.5"/>
<path class="st0" d="M464.9,338.3c10.6,33.3,28.3,64.3,51.5,90.3"/>
<path class="st0" d="M487.6,385.1c12.4,21.2,26.2,41.7,41.1,61.3"/>
<path class="st0" d="M434,355c6.9,25.7,13.7,51.5,20.6,77.2"/>
<path class="st0" d="M484.4,378.7c13.8,26.2,32,50.1,53.6,70.4"/>
<path class="st0" d="M515,476c12.7,17.5,26.3,34.2,41,50.1"/>
<path class="st0" d="M481.8,464.7c6.3,21.4,19.4,40.7,36.9,54.4"/>
<path class="st0" d="M524.4,485.8c7.8,16.2,19,30.8,32.7,42.5"/>
<path class="st0" d="M579.5,505.8c9.2,8.9,18.3,17.8,27.5,26.7"/>
<path class="st0" d="M555.9,529.5c14.8,9.6,33.7,12.6,50.7,8.1"/>
<path class="st0" d="M360.7,448.2c10.9,8.9,25.5,12,39.5,12.3c14.1,0.3,28-2,42.1-2.5c34.6-1.3,69,8.1,100.6,22.2
	c31.6,14.1,60.9,33,90,51.8"/>
<path class="st0" d="M646.3,522.5c-29.6-21-59.3-42-91.8-58s-68.3-26.7-104.5-25.8c-26.6,0.7-54.4,7.4-80.3-5.3
	c20.4,9.6,44.3,5.1,66.9,4.1c38.7-1.7,77.4,7.8,112.8,23.5C584.8,476.8,617.2,498.5,646.3,522.5z"/>
<path class="st0" d="M540.1,480.1c32.6,16.1,64.1,34.6,94.1,55.2"/>
<path class="st0" d="M216.4,354.6c22.3,9.7,44.8,19.5,65.5,32.4s39.8,29,53.1,49.4"/>
<path class="st0" d="M231.7,340.4c22.1,6.6,43.5,15.6,63.6,26.9"/>
<path class="st0" d="M213.8,25.4c-22.2,24.5-37.9,54.8-45.1,87"/>
<path class="st0" d="M186.1,72.6c-16.2,27.3-24.2,59.4-22.6,91.1"/>
<path class="st0" d="M299,113.1c21.4,25.9,45.9,49.3,72.7,69.4"/>
<path class="st0" d="M399.7,203c22.8,13.8,44.6,29.4,65.1,46.5"/>
<path class="st0" d="M328.5,20.7c0.6,13.6-7.7,25.9-15.5,37c-7.9,11.1-16,23.4-15.4,37"/>
<path class="st0" d="M426.9,68.1c34.1,24.6,59,61.6,69,102.5"/>
<path class="st0" d="M453.2,240.2c15.2,11.6,28.8,25.3,40.3,40.7"/>
<path class="st0" d="M283.9,130.2c7.4-4.5,10.9-14.4,8-22.5"/>
<path class="st0" d="M314.2,128c11.2,13,23.8,24.8,37.6,35.2"/>
<path class="st0" d="M368.7,176.3c12.7,7.8,25.5,15.7,38.2,23.5"/>
<path class="st0" d="M398,196.5c17.6,11.3,34.5,23.7,55.4,41c13.1,9.8,24.8,21.6,34.5,34.9"/>
<path class="st0" d="M262.6,257.2c19.8,20.5,43.4,37.2,69.2,49.2"/>
<path class="st0" d="M264.8,247c16.4,21.8,36.7,40.7,59.7,55.3"/>
<path class="st0" d="M312.4,287.8c15.9,13.6,33.6,25,52.6,33.7"/>
<path class="st0" d="M287.5,267.4c17.2,18.6,37.6,34.2,60,46"/>
<path class="st0" d="M309.1,288.5c29.3,22.5,64.8,36.9,101.4,41.4"/>
<path class="st0" d="M320.9,291.9c27.9,18.3,59.8,30.3,92.8,35"/>
<path class="st0" d="M329.5,300.9c-2-1.1-3.9-2.3-5.9-3.4c31.9,18.4,67.1,31,103.4,36.9"/>
<path class="st0" d="M290.9,281.5c35.7,28.3,78.7,47.3,123.6,54.5"/>
<path class="st0" d="M346.9,311.9c26.5,12.5,55.2,20.1,84.4,22.5"/>
<path class="st0" d="M324.8,296.5c29.4,19.2,63.5,31.2,98.4,34.7"/>
<path class="st0" d="M398.9,326.6c12.5,3.5,25.3,6,38.1,7.5c3.4,0.4,6.8,0.7,10.1-0.2s6.3-3.2,7.1-6.5"/>
<path class="st0" d="M385.9,328.7c13.3,2.3,25.6,8.3,38.4,12.2c12.9,3.9,27.4,5.5,39.3-0.9"/>
<path class="st0" d="M403.2,330.9c9.3,3.4,18.8,6.8,28.6,7.9c9.9,1.1,20.4-0.4,28.5-6"/>
<path class="st0" d="M307.4,244.3c29.1,26.4,63.7,46.6,101,58.9"/>
<path class="st0" d="M316.8,253.4c35.5,31,78.1,53.9,123.5,66.4"/>
<path class="st0" d="M380.2,288.8c22.9,14.4,46.9,26.9,71.9,37.3"/>
<path class="st0" d="M390.4,303.1c25.7,13.2,53,23.4,81.1,30.2"/>
<path class="st0" d="M366,248.6c23.6,21.1,50.1,39,78.4,53.2"/>
<path class="st0" d="M370.8,260.9c25.4,17.4,52.7,32,81.3,43.4"/>
<path class="st0" d="M425.6,290.1c25.2,15.7,53.3,26.7,82.5,32.1"/>
<path class="st0" d="M472,332.6c12.7,7.5,25.8,15.1,40.2,18.2c3.2,0.7,6.5,1.1,9.7,0.5c3.2-0.7,6.3-2.6,7.5-5.6c1.3-3,0.2-7-2.8-8.4
	"/>
<path class="st0" d="M454.5,305c15.1,9.3,30.7,18.7,48,22.6c4.4,1,10,1.1,12.4-2.8c2.1-3.5,0.1-8-1.9-11.6"/>
<path class="st0" d="M411,258.1c28,26,64.3,43,102.2,47.7"/>
<path class="st0" d="M417.3,239.8c21.8,24.5,51.8,41.7,83.9,48.1"/>
<path class="st0" d="M398.6,202.3c32.4,19.1,62,42.8,87.8,70.2"/>
<path class="st0" d="M162.4,157.9c1.7,38,11.7,75.7,29.3,109.4"/>
<path class="st0" d="M162,189.7c-0.1,26.3,10.9,52.4,29.8,70.7"/>
<path class="st0" d="M184.2,259c5.4,9,11.1,18.2,19.5,24.5c8.4,6.3,20.5,8.9,29.5,3.6"/>
<path class="st0" d="M204.8,280.9c3.4,8.9,14.2,13.6,23.5,11.8c9.3-1.8,17-9.1,21-17.8c4-8.6,4.8-18.4,4.3-27.9"/>
<path class="st0" d="M247.4,269.7c7.8-20.3,8.1-43.5,0.6-64"/>
<path class="st0" d="M298.5,326.8c8.7,10.6,20.3,18.8,33.2,23.4"/>
<path class="st0" d="M332.3,329.4c1.3,19.7,10.4,38.7,24.9,52.1"/>
<path class="st0" d="M295.9,332.1c12,9.8,26.7,16.1,42.1,18.2"/>
<path class="st0" d="M465.4,337.3c12,40,33,77.3,61.2,108.3"/>
<path class="st0" d="M436.2,362.4c9.8,23.4,18,47.4,24.5,71.9"/>
<path class="st0" d="M612.9,537.9c-14.5-13-27.9-27.1-45.5-42C580.7,510.2,594.1,524.5,612.9,537.9z"/>
<path class="st0" d="M515.5,472.6c11.7,19.1,25.9,36.7,42.1,52.2"/>
<path class="st0" d="M433.3,357.7c11.1,23.9,18.1,49.7,20.7,75.9"/>
<path class="st0" d="M455.9,457.9c2.3,15.1,10,29.3,21.2,39.6"/>
<path class="st0" d="M380.1,393.7c12.2-10.9,22.9-23.4,28.7-30.2c16.3-0.7,32.1-8.6,42.5-21.1"/>
<path class="st0" d="M409.6,362.6c19.2-0.3,38.1-9.1,50.5-23.7"/>
<path class="st0" d="M342.8,146.3c19.6,18.2,39.2,36.5,58.8,54.7"/>
<path class="st0" d="M332.8,146c24.6,25.1,53.2,46.3,84.4,62.6"/>
<path class="st0" d="M347.6,167.1c27.2,21.3,56.4,40,87.2,55.7"/>
<path class="st0" d="M379.9,190c24.2,15.9,48.5,31.9,72.7,47.8"/>
<path class="st0" d="M407.1,200.8c18.6,15,37.1,30,55.7,45.1"/>
<path class="st0" d="M423.3,208c20.2,15.5,39.1,32.9,56.2,51.8"/>
<path class="st0" d="M446.5,230.6c15.1,13.2,29,27.8,41.5,43.5"/>
<path class="st0" d="M478,356.5c11.9,27.3,27.4,53.1,45.9,76.4"/>
<path class="st0" d="M481.7,376.7c11.9,26.5,27.7,51.2,46.8,73.1"/>
<path class="st0" d="M481.9,358.9c16.8,38.5,40.3,74,69,104.6"/>
<path class="st0" d="M524.5,436.5c6.3,7.3,12.6,14.6,18.9,21.9"/>
<path class="st0" d="M471.6,340.3c8.4,19,16.8,37.9,25.1,56.9"/>
<path class="st0" d="M475,364.5c10.5,24.4,24.2,47.4,40.5,68.4"/>
<path class="st0" d="M541.3,459.4c21,11.3,41.5,23.6,61.4,36.9"/>
<path class="st0" d="M581.3,480.8c21.7,13.3,42.2,28.4,61.4,45.1"/>
<path class="st0" d="M509.4,445.5c24,10.8,47.3,23.2,69.7,37"/>
</svg>
