<?xml version="1.0" encoding="UTF-8"?><svg id="Layer_1" xmlns="http://www.w3.org/2000/svg" viewBox="0 0 108.689 158.084"><defs><style>.cls-1{fill:none;stroke:#000;stroke-miterlimit:10;}</style></defs><path class="cls-1" d="M16.407,135.406c.192-25.727,12.163-50.592,30.085-69.05"/><path class="cls-1" d="M16.599,158.035c-3.502-36,9.197-73.27,33.952-99.642,.589-.627,1.605-1.265,2.198-.642"/><path class="cls-1" d="M12.627,152.788c-.572-11.732,2.689-23.307,6.617-34.377,8.15-22.969,19.323-44.863,33.141-64.94"/><path class="cls-1" d="M13.737,146.366c.184-7.514,2.034-14.888,4.239-22.074,7.141-23.264,18.156-45.334,32.454-65.025"/><path class="cls-1" d="M21.404,108.463C10.518,99.919,3.112,87.066,1.181,73.363c-1.885-13.377,1.278-26.961,5.57-39.77C-.185,54.224,1.331,77.561,10.877,97.122c1.828,3.745,3.964,7.392,10.527,11.341Z"/><path class="cls-1" d="M18.447,107.021C10.463,94.855,2.251,82.07,.754,67.596c-1.01-9.769,1.14-19.561,3.908-28.776,.834-3.464,2.57-6.707,4.99-9.322-.97,2.153-.218,4.65,.542,6.885l7.978,23.482"/><path class="cls-1" d="M7.83,30.701c3.799,6.358,5.912,13.556,7.987,20.665,1.46,5.002,2.935,10.17,2.325,15.344"/><path class="cls-1" d="M8.315,34.256c5.346,10.493,7.697,22.287,8.598,34.03-.644-7.135-1.811-14.222-3.488-21.186"/><path class="cls-1" d="M52.492,54.369c-3.724-9.496-4.419-20.153-1.959-30.052S58.596,5.325,65.592,.754c3.106,7.863,6.26,15.968,5.134,22.82-.11-6.495-1.82-12.957-4.938-18.655-.953-1.742-2.761-3.664-4.576-2.859-.567,.251-.991,.735-1.387,1.212-11.646,14.022-14.488,34.784-7.332,51.097Z"/><path class="cls-1" d="M82.301,41.933c4.06-4.679,8.153-9.405,11.116-14.845s4.744-11.728,3.823-17.853c-2.852-2.403-5.313-1.369-7.562-.285-3.223,1.553-6.373,3.26-9.434,5.112-2.076,1.256-4.133,2.597-5.811,4.35-2.395,2.504-3.89,5.712-7.082,10.273,9.176-9.253,19.392-18.538,31.7-19.748-1.922,13.279-8.594,25.82-16.75,32.997Z"/><path class="cls-1" d="M80.824,43.947c8.185-2.858,16.938-4.078,25.593-3.568,.661,.039,1.453,.178,1.702,.791,.204,.501-.074,1.058-.354,1.521-4.401,7.255-11.491,12.647-19.313,15.936-7.822,3.289-16.361,4.587-23.869,4.606,15.211,.792,30.646-5.44,41.042-16.571"/><path class="cls-1" d="M67.158,62.558c6.794-.378,13.368-2.692,19.394-5.852s11.567-7.158,17.083-11.142"/><path class="cls-1" d="M106.818,43.014c-1.966,4.163-5.535,7.402-9.5,9.742s-8.348,3.865-12.698,5.375"/><path class="cls-1" d="M72.824,63.419c-3.83-.071-7.653-.508-10.3-.673,10.765,.095,21.544-2.047,31.455-6.25"/></svg>