<?xml version="1.0" encoding="utf-8"?>
<!-- Generator: Adobe Illustrator 26.3.1, SVG Export Plug-In . SVG Version: 6.00 Build 0)  -->
<svg version="1.1" id="Layer_1" xmlns="http://www.w3.org/2000/svg" xmlns:xlink="http://www.w3.org/1999/xlink" x="0px" y="0px"
	 viewBox="0 0 200 200" style="enable-background:new 0 0 200 200;" xml:space="preserve">
<style type="text/css">
	.st0{fill:none;stroke:#000000;stroke-miterlimit:10;}
</style>
<path class="st0" d="M53.8,156.3c0.2-25.7,14.2-50.6,35-69.1"/>
<path class="st0" d="M54,179c-4.1-36,10.7-73.3,39.5-99.6c0.7-0.6,1.9-1.3,2.6-0.6"/>
<path class="st0" d="M49.3,173.7c-0.7-11.7,3.1-23.3,7.7-34.4c9.5-23,22.5-44.9,38.6-64.9"/>
<path class="st0" d="M50.6,167.3c0.2-7.5,2.4-14.9,4.9-22.1c8.3-23.3,21.1-45.3,37.8-65"/>
<path class="st0" d="M59.6,129.4C46.9,118.6,38.3,102.5,36,85.2c-2.2-16.8,1.5-33.9,6.5-50c-8.1,26-6.3,55.3,4.8,79.9
	C49.4,119.8,51.9,124.4,59.6,129.4z"/>
<path class="st0" d="M56.1,127.6C46.8,112.3,37.3,96.2,35.5,78c-1.2-12.3,1.3-24.6,4.6-36.2c1-4.4,3-8.4,5.8-11.7
	c-1.1,2.7-0.3,5.8,0.6,8.7c3.1,9.8,6.2,19.7,9.3,29.5"/>
<path class="st0" d="M43.8,31.6c4.4,8,6.9,17.1,9.3,26c1.7,6.3,3.4,12.8,2.7,19.3"/>
<path class="st0" d="M44.3,36c6.2,13.2,9,28,10,42.8c-0.8-9-2.1-17.9-4.1-26.7"/>
<path class="st0" d="M95.8,77.6c-4.3-7-5.1-14.9-2.3-22.2s9.4-14,17.5-17.4c3.6,5.8,7.3,11.8,6,16.9c-0.1-4.8-2.1-9.6-5.8-13.8
	c-1.1-1.3-3.2-2.7-5.3-2.1c-0.7,0.2-1.2,0.5-1.6,0.9C90.8,50.2,87.4,65.6,95.8,77.6z"/>
<path class="st0" d="M130.5,68.4c4.7-3.5,9.5-6.9,12.9-11c3.5-4,5.5-8.7,4.5-13.2c-3.3-1.8-6.2-1-8.8-0.2c-3.8,1.1-7.4,2.4-11,3.8
	c-2.4,0.9-4.8,1.9-6.8,3.2c-2.8,1.8-4.5,4.2-8.2,7.6c10.7-6.8,22.6-13.7,36.9-14.6C147.8,53.9,140,63.1,130.5,68.4z"/>
<path class="st0" d="M128.8,69.9c9.5-2.1,19.7-3,29.8-2.6c0.8,0,1.7,0.1,2,0.6c0.2,0.4-0.1,0.8-0.4,1.1c-5.1,5.4-13.4,9.3-22.5,11.8
	s-19.1,3.4-27.8,3.4c17.7,0.6,35.7-4,47.8-12.2"/>
<path class="st0" d="M112.9,83.7c7.9-0.3,15.6-2,22.6-4.3c7-2.3,13.5-5.3,19.9-8.2"/>
<path class="st0" d="M159.1,69.2c-2.3,3.1-6.4,5.5-11.1,7.2s-9.7,2.9-14.8,4"/>
<path class="st0" d="M119.5,84.3c-4.5-0.1-8.9-0.5-12-0.7c12.5,0.1,25.1-2,36.6-6.3"/>
</svg>
