<?xml version="1.0" encoding="UTF-8"?><svg id="Layer_1" xmlns="http://www.w3.org/2000/svg" viewBox="0 0 120.66 163.193"><defs><style>.cls-1{fill:none;stroke:#000;stroke-miterlimit:10;}</style></defs><path class="cls-1" d="M14.112,153.895c7.462-35.678,25.968-69.425,52.882-96.438"/><path class="cls-1" d="M13.352,163.145c-.407-4.177,.621-8.351,1.765-12.415,9.657-34.311,28.177-66.57,53.676-93.493"/><path class="cls-1" d="M8.819,162.151c12.061-39.07,32.734-75.965,60.462-107.903"/><path class="cls-1" d="M23.492,117.695C6.592,100.445,.032,75.422,6.579,53.178"/><path class="cls-1" d="M26.386,119.283c-3.099-2.117-5.395-5.031-7.558-7.945-6.722-9.053-12.723-18.693-15.939-29.193C-.326,71.646-.594,60.163,3.927,50.061"/><path class="cls-1" d="M25.092,121.884C6.115,103.297-1.671,75.943,5.036,51.419"/><path class="cls-1" d="M22.227,91.578c-2.67-15.468-7.514-31.575-20.024-42.433"/><path class="cls-1" d="M23.829,96.477c-6.372-14.79-12.774-29.639-21.436-43.451"/><path class="cls-1" d="M.969,50.339c8.71,7.194,12.428,17.929,15.791,28.136l4.588,13.928"/><path class="cls-1" d="M87.658,10.357c-8.932,2.996-16.45,9.959-20.123,18.634s-3.438,18.92,.627,27.418"/><path class="cls-1" d="M81.628,37.805c3.818-8.324,5.67-17.542,5.363-26.695"/><path class="cls-1" d="M65.959,56.321c-4.969-8.794-5.974-19.912-1.925-29.166,4.048-9.254,13.316-16.212,23.402-16.764"/><path class="cls-1" d="M67.426,58.046c-2.685-8.502-5.4-17.443-3.694-26.194,1.359-6.967,5.49-13.203,10.792-17.922s11.73-8.024,18.328-10.601"/><path class="cls-1" d="M88.403,.226c3.035,5.979,3.783,12.972,2.749,19.597s-3.775,12.902-8.864,18.795c4.462-12.088,16.104-21.203,28.909-22.634"/><path class="cls-1" d="M81.935,37.141c6.782-11.189,18.509-19.254,31.384-21.585"/><path class="cls-1" d="M93.512,44.258c9.11-7.009,14.956-18.095,15.595-29.571"/><path class="cls-1" d="M111.004,12.877c.045,5.425-.394,10.943-2.332,16.011-1.2,3.14-2.949,6.038-4.734,8.887-1.225,1.956-2.489,3.918-4.156,5.514s-3.798,2.813-6.101,2.964"/><path class="cls-1" d="M118.699,41.663c-7.989-1.113-16.258-.159-23.783,2.745"/><path class="cls-1" d="M81.053,62.237c9.873,.485,19.206-4.613,26.886-10.836,4.943-4.006,9.544-8.661,12.27-14.41"/><path class="cls-1" d="M83.893,64.452c7.217-.712,14.062-3.906,19.736-8.423s10.231-10.315,13.956-16.537"/><path class="cls-1" d="M119.498,43.458c-8.457-.268-17.087-.515-25.195,1.9"/><path class="cls-1" d="M77.384,63.222c2.145,1.335,4.837,1.387,7.352,1.145,11.71-1.129,22.714-8.09,28.75-18.188"/></svg>