<?xml version="1.0" encoding="UTF-8"?><svg id="Layer_1" xmlns="http://www.w3.org/2000/svg" viewBox="0 0 103.672 156.383"><defs><style>.cls-1{fill:none;stroke:#000;stroke-miterlimit:10;}</style></defs><path class="cls-1" d="M5.771,147.085c7.462-35.678,25.968-69.425,52.882-96.438"/><path class="cls-1" d="M5.011,156.335c-.407-4.177,.621-8.351,1.765-12.415,9.657-34.311,28.177-66.57,53.676-93.493"/><path class="cls-1" d="M.478,155.341C12.538,116.271,33.212,79.377,60.94,47.438"/><path class="cls-1" d="M14.609,110.262C2.197,83.491,1.871,47.795,13.769,18.228"/><path class="cls-1" d="M17.07,112.96c-2.533-3.465-4.078-7.89-5.494-12.29-4.399-13.674-7.946-28.033-8.539-43.092-.593-15.059,1.958-30.961,8.885-44.118"/><path class="cls-1" d="M15.158,116.325C1.028,87.346,.066,48.218,12.681,15.529"/><path class="cls-1" d="M19.765,73.981c1.162-21.822,.34-44.909-9.316-62.087"/><path class="cls-1" d="M20.141,81.024c-2.649-21.533-5.314-43.154-10.457-63.738"/><path class="cls-1" d="M8.94,13.327c6.813,11.455,7.843,26.926,8.652,41.607,.368,6.677,.736,13.354,1.104,20.032"/><path class="cls-1" d="M87.858,9.256c-6.996,.74-14.277,5.488-19.487,12.708-5.21,7.22-8.262,16.791-8.168,25.617"/><path class="cls-1" d="M75.166,33.377c5.198-6.86,9.344-15,12.004-23.574"/><path class="cls-1" d="M58.736,46.995c-.613-9.307,2.19-19.866,7.836-27.537,5.646-7.671,14.112-12.015,21.125-10.221"/><path class="cls-1" d="M59.19,48.933c.844-8.513,1.805-17.441,5.705-25.181,3.105-6.162,7.861-11.01,12.936-14.182,5.075-3.172,10.47-4.771,15.752-5.656"/><path class="cls-1" d="M91.539,.015c.185,6.249-1.5,12.917-4.278,18.836-2.778,5.918-6.604,11.123-11.902,15.433,6.815-10.21,17.567-16.014,26.699-14.414"/><path class="cls-1" d="M75.582,32.83c8.106-8.844,18.587-13.654,28.049-12.874"/><path class="cls-1" d="M81.202,42.091c8.375-4.428,15.814-13.389,19.845-23.905"/><path class="cls-1" d="M102.901,16.938c-1.67,5.051-3.697,10.077-6.6,14.342-1.798,2.643-3.892,4.935-5.996,7.173-1.444,1.537-2.916,3.071-4.547,4.172-1.631,1.101-3.457,1.745-5.066,1.358"/><path class="cls-1" d="M99.097,45.443c-5.069-2.862-10.975-3.867-16.989-2.891"/><path class="cls-1" d="M67.118,55.944c6.543,2.709,14.471,.109,21.629-3.916,4.608-2.591,9.187-5.863,12.837-10.58"/><path class="cls-1" d="M68.35,58.652c5.118,.989,10.761-.412,16.024-3.31,5.263-2.898,10.171-7.242,14.648-12.171"/><path class="cls-1" d="M99.076,47.293c-5.651-2.184-11.426-4.388-17.682-3.999"/><path class="cls-1" d="M64.321,56.02c1.036,1.731,2.846,2.395,4.627,2.746,8.295,1.631,17.939-2.319,25.198-10.32"/></svg>