<?xml version="1.0" encoding="utf-8"?>
<!-- Generator: Adobe Illustrator 27.1.1, SVG Export Plug-In . SVG Version: 6.00 Build 0)  -->
<svg version="1.1" id="Layer_1" xmlns="http://www.w3.org/2000/svg" xmlns:xlink="http://www.w3.org/1999/xlink" x="0px" y="0px"
	 viewBox="0 0 800 800" style="enable-background:new 0 0 800 800;" xml:space="preserve">
<style type="text/css">
	.st0{fill:none;stroke:#000000;stroke-miterlimit:10;}
</style>
<g id="Layer_2_00000057111812179064573420000006828503445421015462_">
	<path class="st0" d="M701.88,438.48c-4.03,2.29-8.09,4.55-12.16,6.77c-4.08,2.22-8.18,4.4-12.31,6.53s-8.29,4.2-12.48,6.21
		c-4.19,2.01-8.4,3.94-12.65,5.8s-8.53,3.63-12.84,5.3s-8.66,3.25-13.04,4.71s-8.8,2.81-13.26,4.03c-4.46,1.22-8.95,2.32-13.48,3.27
		s-9.12,1.75-13.73,2.39c-4.61,0.63-9.25,1.1-13.91,1.4c-4.65,0.29-9.31,0.41-13.97,0.34c-4.65-0.07-9.29-0.33-13.9-0.79
		s-9.19-1.12-13.73-1.99c-4.53-0.87-9.01-1.95-13.43-3.25c-4.41-1.3-8.76-2.83-13.01-4.59c-4.25-1.76-8.42-3.76-12.47-6
		c-3.21-1.33-6.36-2.83-9.45-4.46c-3.09-1.63-6.12-3.4-9.1-5.28c-2.98-1.88-5.92-3.88-8.81-5.97c-2.9-2.09-5.76-4.27-8.59-6.51
		c-2.83-2.24-5.63-4.56-8.42-6.91s-5.55-4.76-8.31-7.18c-2.76-2.42-5.51-4.86-8.26-7.3c-2.75-2.44-5.5-4.87-8.27-7.28
		c-2.76-2.41-5.56-4.8-8.41-7.17c-2.84-2.36-5.73-4.69-8.68-6.97c-2.94-2.28-5.94-4.51-9-6.66c-3.06-2.16-6.18-4.24-9.37-6.23
		c-3.19-1.99-6.45-3.9-9.78-5.69c-3.34-1.79-6.75-3.47-10.25-5.03c-3.5-1.55-7.09-2.97-10.77-4.25c-3.68-1.27-7.46-2.4-11.34-3.35
		c-2.74-1.83-5.35-3.83-7.82-5.96c-2.47-2.13-4.81-4.4-7.03-6.8s-4.31-4.9-6.3-7.51c-1.98-2.61-3.85-5.32-5.62-8.11
		c-1.76-2.79-3.43-5.66-4.99-8.6c-1.57-2.93-3.03-5.93-4.42-8.96c-1.38-3.03-2.68-6.11-3.9-9.21s-2.36-6.22-3.43-9.34
		s-2.09-6.26-3.07-9.41c-0.98-3.15-1.93-6.32-2.86-9.49c-0.93-3.17-1.84-6.35-2.76-9.53c-0.91-3.18-1.83-6.35-2.76-9.52
		c-0.93-3.17-1.88-6.33-2.87-9.48s-2.01-6.28-3.09-9.4c-1.08-3.11-2.21-6.21-3.41-9.27c-1.2-3.07-2.48-6.1-3.85-9.11"/>
	<path class="st0" d="M309.89,325.79c3.12-2.58,6.27-5.12,9.47-7.61c3.2-2.49,6.43-4.94,9.71-7.33c3.28-2.39,6.59-4.72,9.95-6.99
		s6.76-4.47,10.2-6.59c3.44-2.13,6.93-4.18,10.46-6.15c3.53-1.97,7.1-3.86,10.72-5.65c3.62-1.8,7.28-3.5,10.99-5.1
		s7.46-3.11,11.26-4.5s7.65-2.67,11.54-3.83c3.89-1.16,7.82-2.19,11.77-3.1c3.96-0.91,7.94-1.68,11.95-2.32
		c4.01-0.64,8.03-1.13,12.06-1.48c4.03-0.35,8.07-0.55,12.11-0.59c4.04-0.04,8.07,0.07,12.1,0.34c4.02,0.28,8.03,0.72,12.02,1.33
		s7.95,1.4,11.88,2.38c6.06,1.5,11.95,3.39,17.69,5.61s11.32,4.79,16.78,7.63c5.46,2.84,10.79,5.95,16.02,9.29
		c5.23,3.33,10.35,6.88,15.39,10.59c5.04,3.71,10,7.58,14.91,11.54c4.9,3.97,9.75,8.03,14.56,12.14s9.59,8.25,14.36,12.38
		c4.77,4.13,9.52,8.24,14.29,12.27c4.04,3.42,8.12,6.8,12.23,10.13c4.11,3.34,8.25,6.63,12.43,9.88c4.18,3.25,8.39,6.46,12.63,9.63
		c4.24,3.17,8.52,6.29,12.82,9.37c4.31,3.08,8.64,6.11,13.01,9.1c4.37,2.99,8.77,5.94,13.19,8.84c4.43,2.9,8.89,5.76,13.37,8.57
		c4.49,2.81,9,5.58,13.54,8.29"/>
	<path class="st0" d="M350.9,376.06c-0.81,4.29-1.51,8.61-2.12,12.94s-1.1,8.68-1.5,13.03c-0.39,4.36-0.68,8.72-0.85,13.09
		c-0.17,4.37-0.24,8.74-0.18,13.11c0.05,4.37,0.22,8.73,0.51,13.09c0.29,4.36,0.7,8.7,1.23,13.03c0.53,4.33,1.19,8.65,1.97,12.94
		c0.78,4.29,1.69,8.56,2.73,12.81s2.22,8.46,3.53,12.63s2.75,8.31,4.32,12.39c1.57,4.08,3.28,8.11,5.11,12.08s3.8,7.88,5.9,11.71
		s4.32,7.59,6.67,11.27s4.83,7.27,7.44,10.77c2.61,3.5,5.34,6.9,8.19,10.2c2.86,3.3,5.84,6.49,8.94,9.56
		c3.6,3.56,7.39,6.96,11.36,10.16c3.97,3.2,8.11,6.22,12.4,9.01c4.29,2.79,8.72,5.36,13.27,7.67s9.21,4.38,13.96,6.16
		s9.59,3.28,14.48,4.47c4.9,1.19,9.85,2.06,14.83,2.59s9.99,0.72,15.01,0.55s10.02-0.73,15.01-1.68c0.63-1.15,1.16-2.33,1.58-3.55
		c0.42-1.22,0.75-2.46,0.98-3.72c0.23-1.26,0.37-2.55,0.43-3.84c0.06-1.29,0.03-2.6-0.08-3.91c-0.11-1.31-0.29-2.61-0.54-3.91
		s-0.58-2.59-0.96-3.86c-0.39-1.27-0.83-2.53-1.34-3.75s-1.06-2.43-1.66-3.59c-0.6-1.16-1.25-2.3-1.93-3.41s-1.39-2.21-2.13-3.28
		c-0.74-1.07-1.51-2.13-2.3-3.17c-0.79-1.04-1.6-2.07-2.43-3.09s-1.67-2.03-2.51-3.03s-1.7-2-2.56-3c-0.86-1-1.72-1.99-2.57-2.99
		c-0.85-1-1.7-2-2.54-3.01c-2.88-3.47-5.62-7.04-8.23-10.71c-2.61-3.67-5.08-7.44-7.41-11.29c-2.33-3.85-4.53-7.79-6.57-11.8
		c-2.05-4.01-3.95-8.1-5.7-12.25c-1.75-4.15-3.36-8.36-4.81-12.63c-1.45-4.27-2.75-8.58-3.88-12.94c-1.14-4.36-2.12-8.76-2.93-13.19
		c-0.82-4.43-1.47-8.89-1.95-13.37"/>
	<path class="st0" d="M461.15,496.25c3.82,0.55,7.65,0.98,11.49,1.31c3.84,0.33,7.69,0.54,11.55,0.65c3.85,0.11,7.71,0.1,11.56-0.01
		c3.85-0.11,7.7-0.33,11.55-0.66c3.84-0.33,7.67-0.77,11.49-1.31c3.82-0.55,7.62-1.2,11.4-1.96c3.78-0.76,7.54-1.63,11.27-2.6
		c3.73-0.98,7.43-2.06,11.1-3.25"/>
	<path class="st0" d="M257.96,388.45c-1.8,2.34-3.79,4.46-5.95,6.4c-2.15,1.94-4.45,3.71-6.87,5.36c-2.41,1.65-4.93,3.18-7.51,4.64
		s-5.22,2.86-7.88,4.24c-2.66,1.38-5.33,2.75-7.98,4.16c-2.64,1.41-5.26,2.86-7.79,4.4c-2.54,1.54-5,3.18-7.34,4.96
		c-2.34,1.78-4.56,3.71-6.6,5.84c-1.93,2-3.65,4.15-5.19,6.43s-2.87,4.68-4.02,7.18c-1.14,2.5-2.09,5.09-2.84,7.74
		c-0.75,2.65-1.31,5.37-1.68,8.12c-0.36,2.75-0.53,5.53-0.51,8.31s0.24,5.56,0.66,8.31c0.41,2.75,1.02,5.47,1.82,8.13
		s1.79,5.26,2.98,7.77s2.54,4.92,4.05,7.22s3.17,4.51,4.97,6.6c1.8,2.09,3.72,4.07,5.77,5.93c2.04,1.86,4.2,3.6,6.46,5.21
		c2.26,1.61,4.61,3.1,7.04,4.45c2.43,1.35,4.94,2.57,7.51,3.65c2.57,1.08,5.2,2.01,7.87,2.8s5.38,1.42,8.11,1.91
		s5.48,0.82,8.23,1.01s5.51,0.26,8.26,0.18c2.75-0.07,5.49-0.28,8.21-0.6s5.42-0.78,8.09-1.34c2.67-0.57,5.31-1.25,7.9-2.03
		c2.59-0.79,5.14-1.69,7.64-2.68s4.93-2.09,7.3-3.29s4.67-2.47,6.89-3.84c0.27-0.6,0.49-1.21,0.66-1.83
		c0.18-0.62,0.31-1.25,0.4-1.89s0.15-1.28,0.16-1.93c0.02-0.65,0-1.3-0.06-1.95c-0.05-0.65-0.14-1.3-0.26-1.95
		c-0.12-0.65-0.27-1.29-0.44-1.93c-0.18-0.64-0.38-1.27-0.61-1.88c-0.23-0.62-0.48-1.23-0.75-1.82c-0.27-0.59-0.57-1.18-0.88-1.75
		c-0.31-0.57-0.63-1.14-0.97-1.69s-0.69-1.1-1.05-1.64s-0.74-1.08-1.12-1.61c-0.38-0.53-0.77-1.05-1.17-1.58
		c-0.4-0.52-0.8-1.04-1.2-1.56s-0.81-1.03-1.21-1.54s-0.81-1.03-1.21-1.54c-0.73-0.94-1.46-1.89-2.18-2.85
		c-0.72-0.96-1.42-1.93-2.11-2.92c-0.69-0.98-1.36-1.98-2.01-2.99c-0.65-1.01-1.27-2.03-1.87-3.06c-0.6-1.03-1.17-2.08-1.71-3.14
		s-1.05-2.14-1.52-3.23c-0.47-1.09-0.9-2.2-1.29-3.32c-0.39-1.12-0.74-2.26-1.03-3.42s-0.54-2.33-0.73-3.52
		c-0.19-1.19-0.32-2.39-0.39-3.59c-0.07-1.2-0.08-2.41-0.03-3.61c0.05-1.2,0.17-2.4,0.35-3.57s0.43-2.34,0.75-3.49
		s0.71-2.26,1.17-3.34c0.46-1.08,0.99-2.14,1.6-3.15c0.61-1.01,1.29-1.98,2.06-2.9"/>
	<path class="st0" d="M581.65,488.08c0.28,1.7,0.71,3.34,1.27,4.92c0.56,1.59,1.25,3.12,2.05,4.59c0.8,1.47,1.72,2.89,2.74,4.25
		s2.13,2.66,3.32,3.89c1.19,1.24,2.47,2.41,3.8,3.53s2.73,2.16,4.18,3.15c1.45,0.98,2.94,1.9,4.46,2.76
		c1.52,0.85,3.07,1.64,4.63,2.35c3.31,1.51,6.72,2.78,10.2,3.8c3.48,1.02,7.03,1.8,10.62,2.34c3.59,0.54,7.22,0.84,10.85,0.9
		c3.63,0.06,7.27-0.11,10.89-0.52c3.61-0.41,7.2-1.05,10.73-1.91c3.53-0.87,7-1.97,10.38-3.29s6.67-2.87,9.84-4.64
		c3.17-1.77,6.21-3.76,9.1-5.97"/>
	<path class="st0" d="M643.02,467.71c1.73,1.01,3.45,2.02,5.18,3.03c1.73,1.01,3.45,2.02,5.18,3.03c1.73,1.01,3.45,2.02,5.18,3.03
		c1.73,1.01,3.45,2.02,5.18,3.03s3.45,2.02,5.18,3.03c1.73,1.01,3.45,2.02,5.18,3.03c1.73,1.01,3.45,2.02,5.18,3.03
		c1.73,1.01,3.45,2.02,5.18,3.03c0.36,0.21,0.72,0.42,1.08,0.64s0.72,0.43,1.07,0.65c0.36,0.22,0.71,0.45,1.05,0.68
		c0.35,0.23,0.69,0.47,1.02,0.72c0.33,0.25,0.66,0.5,0.97,0.77c0.32,0.27,0.62,0.54,0.91,0.83c0.29,0.29,0.57,0.59,0.84,0.9
		s0.52,0.64,0.75,0.98c0.24,0.34,0.45,0.7,0.64,1.08c0.19,0.38,0.36,0.77,0.49,1.16c0.14,0.4,0.25,0.81,0.33,1.22
		c0.08,0.41,0.14,0.83,0.16,1.24c0.02,0.41,0.01,0.83-0.03,1.23c-0.04,0.41-0.12,0.8-0.24,1.19s-0.26,0.76-0.45,1.12
		s-0.42,0.7-0.69,1.01"/>
	<path class="st0" d="M278.85,235.2c-1.86-2.96-3.93-5.79-6.16-8.46c-2.24-2.68-4.65-5.21-7.21-7.58s-5.28-4.58-8.12-6.61
		c-2.84-2.03-5.81-3.9-8.88-5.57s-6.24-3.16-9.49-4.44c-3.25-1.29-6.58-2.37-9.96-3.24c-3.38-0.87-6.81-1.53-10.28-1.96
		c-3.46-0.43-6.96-0.63-10.45-0.6s-6.99,0.31-10.44,0.82c-3.45,0.5-6.87,1.23-10.23,2.18c-3.36,0.94-6.66,2.1-9.89,3.45
		c-3.22,1.35-6.36,2.91-9.39,4.64c-3.03,1.74-5.96,3.66-8.76,5.75c-2.8,2.09-5.46,4.36-7.98,6.78c-2.51,2.42-4.87,5-7.05,7.73
		c-2.18,2.72-4.18,5.59-5.99,8.59"/>
	<path class="st0" d="M334.08,357.06c3.77-0.09,7.51,0.08,11.21,0.46c3.7,0.39,7.38,1,11.01,1.81c3.63,0.81,7.23,1.82,10.78,2.99
		s7.06,2.53,10.53,4.03c3.46,1.5,6.88,3.14,10.25,4.9c3.37,1.76,6.68,3.65,9.94,5.62c3.26,1.98,6.47,4.05,9.61,6.19
		s6.24,4.35,9.26,6.6s6.02,4.55,8.99,6.88s5.92,4.69,8.86,7.07c2.94,2.37,5.87,4.76,8.81,7.14c2.94,2.38,5.88,4.74,8.84,7.08
		c2.96,2.34,5.94,4.65,8.95,6.91s6.05,4.48,9.14,6.62c3.09,2.15,6.22,4.22,9.4,6.22c3.19,1.99,6.43,3.89,9.75,5.69
		c5.62,3.04,11.42,5.73,17.36,8.07c5.94,2.34,12.01,4.32,18.19,5.95c6.17,1.63,12.44,2.91,18.76,3.83
		c6.32,0.92,12.69,1.48,19.08,1.69s12.78,0.06,19.15-0.45c6.37-0.51,12.7-1.38,18.97-2.6c6.26-1.23,12.46-2.81,18.53-4.76
		c6.08-1.95,12.04-4.26,17.85-6.93"/>
	<path class="st0" d="M175.7,202.21c-0.16-0.47-0.37-0.9-0.63-1.31s-0.55-0.79-0.89-1.13s-0.7-0.66-1.1-0.94s-0.82-0.53-1.27-0.73
		c-0.44-0.21-0.91-0.38-1.39-0.52c-0.48-0.14-0.97-0.23-1.46-0.29c-0.49-0.06-0.99-0.07-1.49-0.05s-0.99,0.09-1.47,0.2
		c-0.48,0.11-0.95,0.26-1.4,0.43c-0.45,0.18-0.89,0.39-1.32,0.62c-0.42,0.24-0.83,0.5-1.23,0.79c-0.39,0.29-0.77,0.61-1.13,0.94
		c-0.36,0.34-0.7,0.69-1.03,1.07c-0.33,0.37-0.63,0.77-0.92,1.17s-0.56,0.83-0.8,1.26c-0.25,0.43-0.48,0.87-0.68,1.32
		s-0.39,0.9-0.57,1.36c-0.17,0.46-0.33,0.92-0.47,1.39c-0.14,0.47-0.27,0.94-0.38,1.42c-0.11,0.48-0.21,0.96-0.3,1.44
		c-0.09,0.48-0.17,0.97-0.24,1.46c-0.07,0.49-0.13,0.98-0.19,1.47c-0.05,0.49-0.1,0.98-0.15,1.48c-0.04,0.49-0.08,0.98-0.12,1.48"/>
	<path class="st0" d="M165.5,209.52c-0.64-0.13-1.27-0.32-1.88-0.54c-0.61-0.22-1.21-0.49-1.78-0.8s-1.13-0.65-1.66-1.03
		c-0.53-0.38-1.04-0.79-1.52-1.24c-0.48-0.45-0.93-0.92-1.35-1.42s-0.8-1.03-1.15-1.58c-0.35-0.55-0.66-1.13-0.93-1.72
		c-0.27-0.59-0.5-1.21-0.68-1.83"/>
	<path class="st0" d="M194.51,204.5c-0.78,1.42-1.47,2.88-2.07,4.38c-0.6,1.5-1.11,3.04-1.53,4.6c-0.42,1.56-0.75,3.15-0.98,4.75
		c-0.24,1.6-0.38,3.21-0.44,4.83c-0.05,1.62-0.02,3.24,0.11,4.85c0.13,1.61,0.35,3.22,0.66,4.8c0.31,1.59,0.72,3.15,1.22,4.69
		c0.5,1.54,1.09,3.05,1.77,4.51c0.21,0.46,0.44,0.91,0.68,1.37c0.24,0.45,0.5,0.9,0.78,1.34c0.28,0.44,0.57,0.86,0.87,1.27
		c0.31,0.41,0.63,0.8,0.98,1.17c0.34,0.37,0.7,0.72,1.08,1.04s0.78,0.61,1.19,0.87c0.42,0.26,0.85,0.49,1.3,0.67
		c0.45,0.19,0.93,0.33,1.42,0.44c0.4,0.08,0.81,0.13,1.22,0.15c0.41,0.02,0.81,0.01,1.22-0.03s0.81-0.1,1.21-0.19
		c0.4-0.09,0.8-0.2,1.19-0.33s0.78-0.28,1.16-0.45c0.38-0.17,0.76-0.36,1.12-0.56c0.37-0.2,0.73-0.42,1.08-0.64
		c0.35-0.23,0.69-0.46,1.03-0.71c0.82-0.6,1.59-1.25,2.32-1.94c0.73-0.69,1.42-1.42,2.07-2.19c0.65-0.77,1.26-1.57,1.83-2.4
		c0.57-0.83,1.1-1.7,1.58-2.58c0.49-0.89,0.93-1.8,1.34-2.73c0.41-0.93,0.77-1.88,1.1-2.85s0.61-1.94,0.85-2.93
		c0.24-0.99,0.45-1.98,0.61-2.98c0.11-0.67,0.2-1.33,0.27-2.01c0.07-0.67,0.13-1.35,0.16-2.02c0.03-0.68,0.05-1.35,0.04-2.03
		s-0.04-1.35-0.09-2.02s-0.13-1.34-0.23-2.01c-0.1-0.66-0.23-1.33-0.38-1.98c-0.15-0.65-0.33-1.3-0.54-1.94s-0.45-1.27-0.71-1.89
		s-0.57-1.23-0.9-1.82c-0.33-0.59-0.69-1.17-1.09-1.72c-0.39-0.55-0.81-1.09-1.26-1.6c-0.45-0.51-0.92-0.99-1.42-1.45
		c-0.5-0.46-1.02-0.88-1.56-1.27c-0.54-0.39-1.11-0.75-1.69-1.08c-0.59-0.32-1.19-0.61-1.81-0.85c-0.62-0.24-1.26-0.45-1.92-0.6
		s-1.34-0.27-2.05-0.35s-1.43-0.12-2.16-0.12c-0.73,0-1.46,0.04-2.19,0.12c-0.73,0.08-1.44,0.2-2.13,0.37
		c-0.69,0.16-1.36,0.37-1.99,0.62s-1.23,0.54-1.77,0.88c-0.54,0.34-1.04,0.72-1.47,1.14C195.16,203.51,194.79,203.98,194.51,204.5z"
		/>
	<path class="st0" d="M189.49,226.22c-0.05,0.13-0.1,0.26-0.15,0.38s-0.1,0.26-0.14,0.39c-0.05,0.13-0.09,0.26-0.13,0.39
		c-0.04,0.13-0.08,0.26-0.12,0.39c-0.04,0.13-0.07,0.26-0.1,0.39c-0.03,0.13-0.06,0.26-0.08,0.4s-0.04,0.27-0.05,0.4
		s-0.02,0.27-0.02,0.41s0.01,0.27,0.02,0.41s0.04,0.27,0.07,0.41c0.03,0.13,0.07,0.27,0.11,0.4s0.1,0.26,0.16,0.38
		c0.06,0.12,0.13,0.24,0.2,0.35c0.07,0.11,0.16,0.22,0.25,0.31s0.19,0.19,0.29,0.27c0.11,0.08,0.22,0.15,0.34,0.22
		c0.18,0.09,0.37,0.16,0.55,0.2c0.19,0.04,0.38,0.06,0.57,0.06c0.19,0,0.39-0.03,0.58-0.07c0.19-0.04,0.38-0.11,0.57-0.19
		c0.19-0.08,0.37-0.17,0.55-0.28c0.18-0.11,0.35-0.23,0.52-0.36s0.33-0.27,0.48-0.42c0.15-0.15,0.29-0.3,0.42-0.46
		c0.15-0.18,0.3-0.38,0.43-0.57s0.26-0.4,0.38-0.61c0.12-0.21,0.23-0.42,0.33-0.64c0.1-0.22,0.2-0.44,0.28-0.66s0.16-0.45,0.23-0.68
		c0.07-0.23,0.12-0.46,0.17-0.7s0.09-0.47,0.11-0.71c0.03-0.24,0.05-0.48,0.06-0.72c0.01-0.17,0.01-0.34,0-0.51
		s-0.02-0.34-0.04-0.51s-0.05-0.34-0.09-0.5s-0.08-0.33-0.14-0.49c-0.05-0.16-0.12-0.31-0.19-0.46c-0.07-0.15-0.16-0.29-0.25-0.42
		c-0.09-0.13-0.2-0.26-0.31-0.38c-0.12-0.12-0.24-0.22-0.38-0.32c-0.17-0.11-0.34-0.2-0.53-0.27s-0.37-0.12-0.57-0.14
		c-0.19-0.03-0.39-0.04-0.59-0.03c-0.2,0.01-0.4,0.04-0.59,0.08c-0.2,0.04-0.39,0.11-0.58,0.18c-0.19,0.08-0.38,0.17-0.55,0.27
		c-0.18,0.1-0.35,0.22-0.51,0.35s-0.31,0.27-0.44,0.42s-0.26,0.31-0.37,0.47c-0.11,0.16-0.22,0.33-0.32,0.51
		c-0.1,0.17-0.19,0.35-0.27,0.54s-0.15,0.37-0.22,0.56c-0.07,0.19-0.13,0.38-0.18,0.58s-0.11,0.39-0.15,0.59s-0.09,0.4-0.13,0.6
		c-0.04,0.2-0.07,0.4-0.11,0.6c-0.02,0.14-0.05,0.29-0.07,0.43c-0.02,0.14-0.04,0.29-0.06,0.43c-0.02,0.14-0.03,0.29-0.05,0.43
		s-0.02,0.29-0.03,0.43c-0.01,0.14-0.01,0.29,0,0.43c0,0.14,0.01,0.29,0.02,0.43c0.01,0.14,0.03,0.28,0.06,0.42
		c0.02,0.14,0.06,0.28,0.09,0.42s0.08,0.28,0.14,0.41c0.05,0.14,0.12,0.27,0.18,0.4c0.07,0.13,0.15,0.25,0.23,0.37
		c0.08,0.12,0.17,0.23,0.27,0.34c0.1,0.11,0.2,0.21,0.31,0.3c0.11,0.09,0.22,0.18,0.34,0.25c0.12,0.07,0.25,0.14,0.38,0.19
		c0.13,0.05,0.27,0.09,0.41,0.12c0.22,0.04,0.44,0.06,0.65,0.04c0.21-0.02,0.42-0.06,0.62-0.13c0.2-0.07,0.4-0.16,0.59-0.27
		c0.19-0.11,0.37-0.24,0.55-0.39c0.17-0.15,0.34-0.31,0.5-0.48c0.16-0.17,0.31-0.36,0.44-0.55c0.14-0.19,0.27-0.39,0.39-0.6
		c0.12-0.2,0.22-0.41,0.32-0.62c0.11-0.24,0.22-0.49,0.31-0.73c0.1-0.25,0.19-0.5,0.27-0.75c0.08-0.25,0.16-0.51,0.23-0.76
		c0.07-0.26,0.13-0.51,0.19-0.77c0.05-0.26,0.1-0.52,0.14-0.78c0.04-0.26,0.07-0.53,0.1-0.79c0.03-0.26,0.04-0.53,0.06-0.79
		c0.01-0.26,0.01-0.53,0.01-0.8c0-0.19-0.01-0.39-0.03-0.59c-0.02-0.2-0.05-0.4-0.09-0.6s-0.09-0.4-0.15-0.59s-0.13-0.38-0.21-0.55
		c-0.08-0.18-0.18-0.34-0.28-0.5s-0.22-0.3-0.36-0.42c-0.13-0.13-0.28-0.24-0.43-0.33c-0.16-0.09-0.33-0.16-0.52-0.21
		c-0.2-0.05-0.4-0.07-0.59-0.06s-0.38,0.04-0.56,0.1c-0.18,0.06-0.36,0.14-0.53,0.24c-0.17,0.1-0.34,0.22-0.5,0.35
		c-0.16,0.13-0.31,0.28-0.45,0.44s-0.28,0.33-0.41,0.5s-0.25,0.36-0.35,0.54c-0.11,0.18-0.21,0.37-0.3,0.56
		c-0.12,0.26-0.24,0.52-0.35,0.78s-0.21,0.53-0.31,0.79s-0.19,0.54-0.27,0.81c-0.08,0.27-0.16,0.55-0.23,0.82
		c-0.07,0.28-0.13,0.55-0.19,0.83c-0.05,0.28-0.1,0.56-0.14,0.84s-0.07,0.56-0.1,0.85s-0.05,0.57-0.06,0.85
		c-0.01,0.15-0.01,0.3-0.01,0.44c0,0.15,0,0.3,0,0.45c0,0.15,0.01,0.3,0.02,0.45c0.01,0.15,0.03,0.3,0.05,0.44
		c0.02,0.15,0.05,0.29,0.07,0.44c0.03,0.14,0.06,0.29,0.1,0.43s0.09,0.28,0.14,0.42c0.05,0.14,0.11,0.27,0.18,0.41
		s0.14,0.26,0.22,0.39c0.08,0.13,0.17,0.25,0.26,0.36c0.09,0.12,0.19,0.23,0.3,0.33c0.11,0.1,0.22,0.2,0.34,0.29
		s0.24,0.17,0.37,0.24s0.26,0.14,0.4,0.19c0.14,0.05,0.28,0.1,0.42,0.13c0.14,0.03,0.29,0.05,0.44,0.06
		c0.25,0.01,0.49-0.01,0.72-0.06c0.23-0.05,0.45-0.13,0.66-0.24c0.21-0.1,0.41-0.23,0.6-0.38c0.19-0.15,0.38-0.32,0.55-0.5
		c0.17-0.18,0.34-0.38,0.5-0.59s0.31-0.43,0.45-0.65c0.14-0.22,0.27-0.45,0.4-0.68c0.12-0.23,0.24-0.46,0.35-0.69
		c0.09-0.19,0.18-0.37,0.27-0.56c0.09-0.19,0.18-0.38,0.26-0.57c0.08-0.19,0.17-0.38,0.24-0.58c0.08-0.19,0.15-0.39,0.22-0.58
		c0.07-0.2,0.13-0.39,0.18-0.59c0.05-0.2,0.1-0.4,0.14-0.6c0.04-0.2,0.07-0.4,0.09-0.61s0.03-0.41,0.02-0.62
		c0-0.21-0.02-0.41-0.06-0.62c-0.03-0.21-0.08-0.41-0.14-0.61c-0.06-0.2-0.14-0.4-0.23-0.59s-0.19-0.37-0.31-0.54
		s-0.24-0.33-0.38-0.48c-0.14-0.15-0.29-0.28-0.45-0.4c-0.16-0.12-0.33-0.22-0.52-0.3c-0.18-0.08-0.38-0.14-0.58-0.18
		c-0.22-0.04-0.43-0.06-0.65-0.05s-0.42,0.05-0.63,0.11c-0.21,0.06-0.41,0.14-0.6,0.24c-0.19,0.1-0.38,0.22-0.56,0.35
		s-0.34,0.28-0.5,0.45s-0.3,0.34-0.43,0.52c-0.13,0.19-0.25,0.38-0.35,0.58c-0.1,0.2-0.19,0.41-0.25,0.62s-0.12,0.42-0.16,0.64
		c-0.04,0.22-0.07,0.43-0.09,0.65s-0.03,0.44-0.03,0.66c0,0.22,0,0.44,0.01,0.67c0.01,0.22,0.03,0.45,0.05,0.67
		c0.02,0.22,0.05,0.45,0.08,0.67c0.03,0.22,0.07,0.44,0.1,0.67c0.04,0.22,0.08,0.44,0.11,0.66c0.01,0.09,0.03,0.17,0.05,0.26
		c0.02,0.09,0.03,0.17,0.05,0.26c0.02,0.09,0.04,0.17,0.06,0.26s0.04,0.17,0.07,0.26s0.05,0.17,0.08,0.25
		c0.03,0.08,0.06,0.17,0.09,0.25s0.07,0.16,0.11,0.24c0.04,0.08,0.08,0.15,0.13,0.23s0.1,0.15,0.16,0.22
		c0.06,0.07,0.12,0.14,0.18,0.2c0.06,0.06,0.13,0.12,0.2,0.18s0.14,0.1,0.22,0.15c0.08,0.04,0.15,0.08,0.23,0.12
		c0.08,0.03,0.16,0.06,0.25,0.08c0.08,0.02,0.17,0.03,0.25,0.04c0.09,0,0.17,0,0.26-0.01c0.1-0.01,0.19-0.04,0.28-0.07
		c0.09-0.03,0.17-0.07,0.25-0.12c0.08-0.05,0.16-0.1,0.23-0.16c0.07-0.06,0.15-0.12,0.21-0.19c0.07-0.07,0.13-0.14,0.19-0.22
		c0.06-0.08,0.12-0.16,0.18-0.24c0.06-0.08,0.11-0.17,0.16-0.25c0.05-0.09,0.1-0.17,0.14-0.26c0.12-0.23,0.24-0.47,0.35-0.71
		c0.11-0.24,0.21-0.48,0.3-0.73c0.09-0.25,0.18-0.5,0.25-0.75c0.08-0.25,0.15-0.51,0.21-0.76c0.06-0.26,0.11-0.51,0.16-0.77
		c0.05-0.26,0.08-0.52,0.11-0.78c0.03-0.26,0.05-0.52,0.06-0.79c0.01-0.26,0.02-0.52,0.01-0.79c0-0.14-0.01-0.29-0.03-0.43
		c-0.01-0.15-0.04-0.29-0.06-0.44c-0.03-0.15-0.06-0.29-0.11-0.43s-0.09-0.28-0.15-0.41s-0.13-0.25-0.2-0.37
		c-0.08-0.11-0.16-0.22-0.26-0.31c-0.1-0.09-0.2-0.17-0.32-0.24s-0.24-0.12-0.38-0.15c-0.09-0.02-0.18-0.03-0.26-0.04
		c-0.09,0-0.18,0-0.26,0.01s-0.17,0.03-0.26,0.05c-0.09,0.02-0.17,0.05-0.25,0.09c-0.08,0.04-0.16,0.08-0.24,0.13
		c-0.08,0.05-0.15,0.1-0.22,0.16s-0.14,0.12-0.2,0.18c-0.06,0.06-0.12,0.13-0.18,0.2s-0.11,0.14-0.15,0.22
		c-0.05,0.08-0.09,0.15-0.13,0.23c-0.04,0.08-0.08,0.16-0.11,0.24s-0.07,0.17-0.1,0.25c-0.03,0.08-0.06,0.17-0.08,0.26
		c-0.03,0.09-0.05,0.17-0.07,0.26c-0.02,0.09-0.04,0.18-0.06,0.26s-0.04,0.18-0.05,0.26c-0.04,0.19-0.07,0.38-0.09,0.57
		s-0.05,0.38-0.07,0.57c-0.02,0.19-0.04,0.38-0.05,0.57c-0.01,0.19-0.02,0.38-0.03,0.58c-0.01,0.19-0.01,0.38-0.01,0.58
		c0,0.19,0,0.38,0.01,0.58c0.01,0.19,0.02,0.38,0.03,0.58c0.01,0.19,0.03,0.38,0.05,0.57c0.01,0.06,0.02,0.13,0.03,0.19
		c0.01,0.06,0.02,0.13,0.04,0.19s0.03,0.13,0.05,0.19s0.04,0.12,0.07,0.18c0.03,0.06,0.05,0.11,0.09,0.17
		c0.03,0.05,0.07,0.1,0.11,0.15c0.04,0.04,0.08,0.08,0.13,0.12c0.05,0.03,0.1,0.06,0.16,0.09c0.08,0.03,0.15,0.05,0.23,0.05
		s0.15,0,0.22-0.02s0.14-0.04,0.21-0.08s0.14-0.08,0.2-0.12c0.07-0.05,0.13-0.1,0.19-0.16c0.06-0.06,0.12-0.12,0.17-0.19
		c0.05-0.07,0.11-0.14,0.15-0.21c0.05-0.07,0.09-0.14,0.13-0.21c0.09-0.16,0.18-0.32,0.26-0.49s0.16-0.33,0.23-0.5
		c0.07-0.17,0.14-0.34,0.2-0.51s0.12-0.35,0.17-0.52c0.05-0.18,0.1-0.35,0.14-0.53c0.04-0.18,0.08-0.36,0.11-0.54
		c0.03-0.18,0.06-0.36,0.08-0.55s0.04-0.37,0.05-0.55c0.01-0.1,0.01-0.21,0.01-0.31c0-0.11-0.01-0.21-0.02-0.32
		c-0.01-0.11-0.03-0.21-0.05-0.32c-0.02-0.1-0.05-0.2-0.09-0.3c-0.03-0.1-0.08-0.19-0.12-0.27s-0.1-0.17-0.17-0.24
		c-0.06-0.07-0.13-0.13-0.21-0.19c-0.08-0.05-0.17-0.09-0.27-0.12c-0.07-0.02-0.14-0.04-0.22-0.04c-0.07-0.01-0.14,0-0.22,0.01
		s-0.14,0.03-0.21,0.05c-0.07,0.02-0.14,0.05-0.2,0.09s-0.13,0.07-0.19,0.12c-0.06,0.04-0.12,0.09-0.18,0.14s-0.11,0.11-0.15,0.17
		c-0.05,0.06-0.09,0.12-0.13,0.18s-0.07,0.13-0.11,0.2c-0.03,0.07-0.06,0.14-0.09,0.2c-0.03,0.07-0.05,0.14-0.07,0.21
		c-0.02,0.07-0.04,0.14-0.05,0.22s-0.03,0.15-0.04,0.22s-0.02,0.15-0.03,0.22c-0.01,0.07-0.02,0.15-0.03,0.22
		c-0.01,0.07-0.02,0.15-0.02,0.22c-0.01,0.11-0.02,0.23-0.03,0.35s-0.01,0.24-0.01,0.35s0,0.24,0.01,0.35
		c0.01,0.12,0.02,0.23,0.05,0.34s0.05,0.22,0.09,0.32s0.08,0.2,0.14,0.29c0.05,0.09,0.12,0.18,0.19,0.25
		c0.07,0.08,0.16,0.14,0.26,0.2c0.1,0.06,0.21,0.1,0.32,0.13c0.11,0.02,0.22,0.03,0.33,0.02s0.22-0.03,0.33-0.06
		c0.11-0.03,0.22-0.08,0.32-0.14c0.1-0.06,0.2-0.13,0.3-0.21s0.18-0.17,0.26-0.26c0.08-0.09,0.15-0.2,0.2-0.3
		c0.06-0.11,0.1-0.22,0.14-0.33s0.06-0.23,0.08-0.35s0.03-0.23,0.03-0.35c0-0.12,0-0.23-0.01-0.35s-0.03-0.24-0.05-0.35
		s-0.04-0.24-0.07-0.35c-0.03-0.12-0.06-0.23-0.09-0.35s-0.07-0.23-0.11-0.35c-0.04-0.12-0.08-0.23-0.11-0.34
		c-0.04,0-0.07,0.01-0.12,0.03c-0.05,0.01-0.1,0.03-0.18,0.05s-0.17,0.05-0.3,0.08c-0.13,0.03-0.29,0.06-0.49,0.1
		s-0.45,0.07-0.75,0.11s-0.65,0.08-1.07,0.13s-0.9,0.09-1.46,0.14C190.84,226.12,190.21,226.17,189.49,226.22z"/>
	<path class="st0" d="M178.95,194.35c-0.5-0.47-1.01-0.9-1.52-1.29c-0.51-0.39-1.02-0.75-1.54-1.06c-0.51-0.32-1.03-0.59-1.54-0.83
		c-0.51-0.24-1.02-0.44-1.53-0.6c-0.51-0.16-1.01-0.28-1.5-0.36c-0.5-0.08-0.98-0.12-1.46-0.11s-0.95,0.05-1.4,0.14
		s-0.9,0.22-1.33,0.39s-0.84,0.39-1.23,0.65s-0.77,0.56-1.13,0.89c-0.36,0.34-0.69,0.71-1.01,1.12c-0.32,0.41-0.61,0.86-0.89,1.33
		c-0.27,0.48-0.53,0.99-0.76,1.53c-0.23,0.54-0.43,1.11-0.61,1.71c-0.18,0.6-0.34,1.23-0.47,1.88s-0.23,1.33-0.31,2.03"/>
	<path class="st0" d="M104.12,285.53c3.41,2.31,6.99,4.36,10.68,6.15c3.7,1.79,7.52,3.33,11.43,4.6s7.9,2.29,11.95,3.04
		c4.05,0.75,8.14,1.24,12.25,1.47c4.11,0.23,8.24,0.19,12.34-0.12c4.1-0.3,8.19-0.87,12.21-1.71c4.02-0.84,7.99-1.95,11.86-3.32
		c3.87-1.38,7.65-3.02,11.29-4.94"/>
	<path class="st0" d="M186.72,202.9c1.17,1.08,2.41,2.08,3.7,2.99c1.3,0.92,2.65,1.75,4.05,2.5s2.84,1.41,4.33,1.99
		c1.48,0.57,3,1.06,4.53,1.46c1.54,0.4,3.1,0.7,4.67,0.91c1.57,0.21,3.16,0.33,4.75,0.35s3.17-0.06,4.75-0.24
		c1.58-0.18,3.14-0.45,4.68-0.83"/>
	<path class="st0" d="M320.22,347.05c1.44-2.57,2.98-5.08,4.62-7.52c1.64-2.44,3.38-4.82,5.21-7.13s3.75-4.54,5.75-6.7
		c2-2.16,4.09-4.24,6.26-6.23c2.17-1.99,4.41-3.91,6.72-5.73c2.31-1.82,4.7-3.55,7.15-5.18c2.45-1.63,4.96-3.17,7.53-4.61
		c2.57-1.43,5.2-2.77,7.88-3.99c0.86-0.39,1.74-0.77,2.64-1.12c0.9-0.35,1.82-0.68,2.75-0.97c0.93-0.29,1.87-0.55,2.81-0.76
		c0.94-0.21,1.89-0.37,2.83-0.47c0.94-0.1,1.87-0.14,2.79-0.12c0.92,0.03,1.82,0.13,2.71,0.31c0.88,0.18,1.74,0.44,2.58,0.8
		c0.83,0.36,1.63,0.8,2.39,1.36c0.77,0.56,1.46,1.19,2.06,1.88s1.12,1.44,1.57,2.23c0.45,0.8,0.82,1.64,1.14,2.52
		c0.31,0.88,0.56,1.79,0.76,2.73c0.2,0.94,0.34,1.9,0.43,2.88c0.1,0.98,0.15,1.96,0.16,2.96c0.01,0.99-0.01,1.98-0.06,2.96
		c-0.05,0.98-0.13,1.95-0.22,2.9c-0.22,2.18-0.49,4.36-0.8,6.52c-0.32,2.17-0.68,4.33-1.09,6.48c-0.41,2.15-0.87,4.3-1.37,6.43
		c-0.5,2.13-1.05,4.25-1.65,6.36c-0.6,2.11-1.24,4.21-1.92,6.29c-0.69,2.08-1.42,4.15-2.19,6.2c-0.78,2.05-1.6,4.08-2.46,6.1
		c-0.86,2.01-1.77,4.01-2.73,5.98"/>
	<path class="st0" d="M408.09,380.67c-0.07-1.51-0.14-3.02-0.19-4.53c-0.06-1.51-0.1-3.03-0.14-4.54s-0.05-3.03-0.05-4.54
		c0-1.51,0.03-3.03,0.07-4.54c0.05-1.51,0.12-3.02,0.23-4.52c0.11-1.5,0.24-3,0.42-4.5c0.17-1.5,0.38-2.99,0.64-4.47
		c0.25-1.48,0.55-2.96,0.89-4.43s0.74-2.94,1.19-4.39c0.45-1.45,0.95-2.89,1.51-4.3c0.56-1.42,1.17-2.81,1.84-4.17
		c0.67-1.36,1.39-2.69,2.18-3.99c0.78-1.29,1.62-2.55,2.52-3.75c0.9-1.21,1.85-2.36,2.86-3.47c1.01-1.1,2.08-2.15,3.22-3.13
		c1.13-0.98,2.32-1.9,3.57-2.75s2.57-1.6,3.93-2.27c1.37-0.67,2.78-1.24,4.23-1.71c1.45-0.47,2.93-0.85,4.42-1.12s3-0.44,4.51-0.5
		c1.51-0.06,3.01-0.01,4.5,0.14s2.96,0.43,4.39,0.82s2.83,0.9,4.18,1.53s2.64,1.39,3.86,2.27c0.93,0.67,1.81,1.41,2.63,2.19
		c0.82,0.78,1.6,1.61,2.33,2.48s1.41,1.78,2.05,2.73c0.64,0.95,1.24,1.93,1.8,2.93c0.56,1.01,1.09,2.04,1.58,3.09
		s0.96,2.12,1.39,3.21c0.44,1.08,0.84,2.18,1.23,3.27c0.39,1.1,0.75,2.2,1.1,3.3c1.2,3.78,2.27,7.6,3.2,11.45
		c0.93,3.85,1.73,7.74,2.39,11.64s1.18,7.84,1.57,11.78c0.39,3.94,0.64,7.9,0.76,11.86c0.12,3.96,0.1,7.93-0.06,11.89
		s-0.45,7.92-0.88,11.86s-0.99,7.87-1.7,11.77s-1.54,7.78-2.52,11.62"/>
	<path class="st0" d="M504.98,448.95c-0.72-3.63-1.31-7.28-1.78-10.95s-0.82-7.35-1.05-11.04c-0.23-3.69-0.33-7.39-0.31-11.09
		c0.02-3.7,0.16-7.4,0.41-11.09c0.26-3.69,0.64-7.37,1.14-11.04c0.5-3.67,1.12-7.31,1.86-10.94c0.74-3.62,1.6-7.22,2.58-10.79
		c0.98-3.57,2.08-7.1,3.3-10.59c0.25-0.72,0.51-1.43,0.77-2.15c0.26-0.71,0.54-1.43,0.82-2.13c0.28-0.71,0.58-1.41,0.89-2.1
		s0.63-1.38,0.97-2.06s0.69-1.35,1.07-2c0.37-0.66,0.77-1.3,1.18-1.93c0.41-0.63,0.85-1.25,1.31-1.84c0.46-0.6,0.94-1.18,1.45-1.74
		s1.05-1.1,1.62-1.62c0.57-0.51,1.16-1,1.78-1.45c0.62-0.45,1.26-0.88,1.92-1.26s1.34-0.73,2.03-1.04s1.4-0.57,2.12-0.79
		c0.72-0.22,1.45-0.39,2.19-0.5c0.74-0.12,1.48-0.18,2.23-0.19c0.75-0.01,1.5,0.04,2.25,0.15c0.93,0.14,1.82,0.36,2.69,0.66
		s1.69,0.67,2.49,1.1s1.57,0.93,2.32,1.48c0.74,0.55,1.46,1.15,2.15,1.79c0.69,0.64,1.35,1.32,1.99,2.03
		c0.64,0.71,1.25,1.45,1.85,2.21s1.16,1.53,1.71,2.32c0.55,0.78,1.08,1.57,1.59,2.36c2.5,3.83,4.86,7.75,7.08,11.74
		c2.22,4,4.31,8.07,6.25,12.21c1.94,4.14,3.74,8.35,5.39,12.61c1.65,4.26,3.16,8.58,4.52,12.95c1.36,4.37,2.57,8.78,3.62,13.23
		c1.06,4.45,1.96,8.93,2.71,13.44s1.34,9.05,1.77,13.6c0.43,4.55,0.71,9.12,0.82,13.69"/>
	<path class="st0" d="M387.85,278.37c0.27,1.21,0.62,2.41,1.04,3.59c0.42,1.17,0.91,2.33,1.46,3.44c0.56,1.12,1.18,2.2,1.86,3.25
		c0.68,1.05,1.42,2.05,2.22,3s1.65,1.86,2.56,2.71c0.91,0.85,1.86,1.64,2.86,2.37s2.05,1.39,3.14,1.97c1.09,0.59,2.22,1.1,3.39,1.53
		s2.37,0.77,3.59,1.02s2.46,0.42,3.7,0.49s2.5,0.06,3.74-0.03c1.24-0.1,2.48-0.28,3.69-0.55s2.41-0.62,3.57-1.06
		s2.29-0.95,3.36-1.56c1.08-0.6,2.11-1.28,3.08-2.04c0.97-0.76,1.88-1.6,2.72-2.53c0.84-0.92,1.59-1.92,2.24-2.97
		c0.66-1.05,1.22-2.17,1.7-3.32s0.85-2.34,1.13-3.56c0.28-1.21,0.47-2.45,0.56-3.69s0.08-2.48-0.04-3.72
		c-0.11-1.23-0.33-2.45-0.65-3.64c-0.32-1.19-0.74-2.35-1.27-3.46c-0.53-1.11-1.17-2.17-1.91-3.17"/>
	<path class="st0" d="M450.59,265.13c0.1,2.42,0.39,4.82,0.87,7.18s1.14,4.69,1.98,6.95c0.83,2.26,1.83,4.47,2.99,6.59
		c1.15,2.12,2.46,4.17,3.91,6.11c1.44,1.94,3.03,3.78,4.73,5.49c1.7,1.72,3.53,3.31,5.46,4.76c1.93,1.45,3.97,2.75,6.09,3.89
		s4.34,2.11,6.63,2.9c2.29,0.79,4.64,1.38,7.01,1.79c2.38,0.41,4.78,0.63,7.19,0.67c2.41,0.04,4.83-0.09,7.23-0.4
		c2.4-0.31,4.77-0.79,7.1-1.43c2.33-0.64,4.62-1.45,6.83-2.42c2.21-0.97,4.36-2.09,6.41-3.36c2.05-1.27,4-2.7,5.83-4.27
		s3.54-3.28,5.1-5.13"/>
	<path class="st0" d="M547.18,297.78c-0.67,1.12-1.25,2.29-1.73,3.5s-0.86,2.45-1.14,3.71c-0.29,1.26-0.48,2.55-0.58,3.85
		c-0.1,1.3-0.11,2.61-0.04,3.91s0.24,2.61,0.48,3.91c0.24,1.29,0.57,2.57,0.98,3.83c0.41,1.25,0.89,2.48,1.45,3.67
		c0.56,1.19,1.19,2.34,1.9,3.45c0.71,1.1,1.47,2.16,2.29,3.17c0.82,1.01,1.7,1.97,2.63,2.88c0.93,0.91,1.9,1.78,2.92,2.6
		c1.02,0.82,2.08,1.59,3.17,2.31c1.09,0.72,2.22,1.39,3.38,2.01c1.16,0.62,2.35,1.2,3.55,1.72c1.21,0.52,2.44,1,3.68,1.42
		s2.51,0.8,3.77,1.12c1.27,0.32,2.55,0.6,3.83,0.84c1.29,0.23,2.58,0.43,3.87,0.58s2.6,0.27,3.9,0.34c1.31,0.08,2.61,0.12,3.92,0.13
		c1.31,0.01,2.62-0.01,3.93-0.06c1.31-0.05,2.62-0.13,3.93-0.24c1.31-0.11,2.62-0.24,3.92-0.39s2.61-0.33,3.9-0.52"/>
	<path class="st0" d="M649.69,440.82c1.46-0.71,2.9-1.43,4.34-2.18c1.44-0.74,2.87-1.51,4.28-2.29c1.42-0.78,2.83-1.58,4.22-2.39
		s2.79-1.65,4.16-2.5c1.38-0.85,2.74-1.72,4.1-2.6c1.35-0.89,2.7-1.79,4.03-2.71c1.33-0.92,2.65-1.86,3.96-2.81s2.6-1.92,3.89-2.91"
		/>
	<path class="st0" d="M623.84,448.71c-1.07-1.6-2.12-3.21-3.15-4.83s-2.04-3.26-3.03-4.91s-1.96-3.31-2.92-4.98
		c-0.95-1.67-1.88-3.35-2.8-5.05c-0.91-1.69-1.8-3.4-2.68-5.11c-0.87-1.71-1.72-3.44-2.56-5.17c-0.83-1.73-1.64-3.48-2.43-5.23
		c-0.79-1.75-1.56-3.52-2.31-5.29c-0.4-0.96-0.8-1.92-1.19-2.89c-0.39-0.97-0.77-1.94-1.13-2.92c-0.36-0.98-0.71-1.96-1.04-2.95
		s-0.64-1.98-0.92-2.98c-0.28-1-0.54-2-0.77-3.01c-0.23-1.01-0.43-2.02-0.6-3.04c-0.17-1.02-0.3-2.04-0.39-3.07
		c-0.09-1.03-0.15-2.06-0.16-3.1c-0.01-1.04,0.03-2.08,0.12-3.13s0.23-2.08,0.43-3.12s0.44-2.05,0.74-3.05
		c0.3-1,0.65-1.98,1.06-2.94c0.41-0.96,0.87-1.88,1.38-2.78c0.51-0.89,1.08-1.75,1.71-2.56c0.62-0.81,1.3-1.58,2.04-2.3
		s1.53-1.38,2.37-1.98c0.85-0.6,1.76-1.12,2.7-1.55s1.94-0.78,2.95-1.04c1.01-0.26,2.05-0.44,3.09-0.53c1.04-0.09,2.09-0.09,3.12,0
		c1.03,0.09,2.05,0.27,3.04,0.53c0.99,0.27,1.94,0.63,2.84,1.08c0.9,0.45,1.76,1,2.54,1.63c0.78,0.64,1.5,1.37,2.12,2.2"/>
	<path class="st0" d="M639.81,374.54c1.86,1.65,3.68,3.35,5.45,5.1c1.77,1.75,3.48,3.55,5.15,5.4c1.67,1.85,3.28,3.74,4.84,5.68
		c1.56,1.94,3.06,3.92,4.51,5.94c1.45,2.02,2.84,4.09,4.17,6.19c1.33,2.1,2.61,4.24,3.82,6.41s2.36,4.38,3.45,6.61
		c1.09,2.24,2.11,4.5,3.07,6.8"/>
	<path class="st0" d="M322.25,349.66c1.28-2.82,2.7-5.57,4.25-8.26c1.55-2.68,3.22-5.29,5-7.82c1.79-2.53,3.69-4.97,5.7-7.32
		c2.01-2.35,4.13-4.61,6.35-6.78c2.22-2.16,4.53-4.22,6.94-6.17c2.4-1.95,4.9-3.79,7.47-5.52c2.57-1.72,5.22-3.33,7.94-4.8
		c2.72-1.48,5.51-2.82,8.36-4.04c0.82-0.35,1.67-0.69,2.54-0.99c0.87-0.31,1.76-0.59,2.65-0.84c0.9-0.25,1.8-0.46,2.7-0.62
		c0.9-0.16,1.81-0.28,2.71-0.34c0.9-0.06,1.78-0.06,2.65,0.01s1.72,0.2,2.55,0.42s1.62,0.51,2.39,0.9c0.76,0.39,1.49,0.86,2.17,1.44
		c0.57,0.48,1.07,1,1.52,1.56c0.45,0.56,0.84,1.16,1.19,1.79c0.35,0.63,0.64,1.29,0.89,1.97c0.25,0.68,0.46,1.39,0.64,2.11
		s0.31,1.46,0.42,2.21c0.11,0.75,0.19,1.51,0.24,2.27c0.05,0.76,0.08,1.52,0.1,2.28c0.01,0.76,0.01,1.51-0.01,2.25
		c-0.05,2.19-0.15,4.37-0.31,6.56s-0.37,4.36-0.63,6.53c-0.26,2.17-0.58,4.34-0.95,6.5c-0.37,2.16-0.79,4.31-1.26,6.44
		c-0.47,2.14-1,4.26-1.57,6.37c-0.57,2.11-1.2,4.21-1.88,6.29c-0.68,2.08-1.4,4.15-2.18,6.19c-0.78,2.05-1.6,4.07-2.48,6.08"/>
	<path class="st0" d="M427.12,316.09c-1.65,1.9-3.2,3.88-4.64,5.94c-1.44,2.06-2.77,4.2-3.99,6.4c-1.22,2.2-2.32,4.46-3.31,6.78
		c-0.99,2.31-1.86,4.68-2.61,7.08c-0.75,2.4-1.38,4.84-1.89,7.31s-0.89,4.95-1.14,7.46s-0.38,5.02-0.37,7.53
		c0.01,2.51,0.15,5.03,0.42,7.53"/>
	<path class="st0" d="M466.54,317.4c1.63,2.67,3.17,5.39,4.6,8.16c1.43,2.78,2.77,5.6,4,8.47c1.23,2.87,2.36,5.79,3.39,8.74
		c1.03,2.95,1.95,5.94,2.77,8.95c0.82,3.02,1.53,6.06,2.13,9.13c0.6,3.07,1.1,6.15,1.48,9.25c0.38,3.1,0.66,6.21,0.82,9.33
		s0.21,6.25,0.15,9.37"/>
	<path class="st0" d="M481.54,379.97c0.3,1.81,0.55,3.63,0.76,5.45c0.2,1.82,0.36,3.65,0.47,5.48c0.11,1.83,0.17,3.66,0.18,5.5
		s-0.02,3.67-0.11,5.5c-0.08,1.83-0.21,3.66-0.39,5.48s-0.4,3.64-0.68,5.46s-0.59,3.62-0.96,5.41s-0.78,3.58-1.25,5.36"/>
	<path class="st0" d="M524.9,342.64c-1.81,1.73-3.51,3.57-5.09,5.5c-1.58,1.93-3.05,3.96-4.4,6.06c-1.35,2.1-2.58,4.29-3.68,6.53
		c-1.1,2.24-2.08,4.55-2.93,6.91s-1.56,4.76-2.14,7.19c-0.58,2.43-1.02,4.9-1.32,7.38s-0.45,4.98-0.46,7.48
		c-0.01,2.5,0.13,5,0.43,7.48"/>
	<path class="st0" d="M504.82,403.36c-0.23,1.69-0.43,3.38-0.59,5.07c-0.16,1.69-0.29,3.39-0.38,5.09s-0.15,3.4-0.17,5.1
		c-0.02,1.7-0.01,3.4,0.04,5.11s0.13,3.4,0.25,5.1c0.12,1.7,0.27,3.39,0.46,5.09c0.19,1.69,0.41,3.38,0.67,5.06s0.55,3.36,0.88,5.03
		"/>
	<path class="st0" d="M539.92,342.52c2.09,1.89,4.03,3.9,5.84,6.02c1.81,2.11,3.48,4.33,5.04,6.63c1.56,2.3,3,4.69,4.34,7.14
		c1.34,2.45,2.58,4.98,3.75,7.55c1.16,2.57,2.24,5.2,3.26,7.86c1.02,2.66,1.97,5.35,2.88,8.06c0.91,2.71,1.77,5.43,2.6,8.16
		c0.83,2.72,1.64,5.45,2.43,8.15"/>
	<path class="st0" d="M575.99,413.71c0.58,1.14,1.13,2.29,1.66,3.46s1.02,2.34,1.49,3.53c0.47,1.19,0.91,2.39,1.32,3.6
		s0.79,2.43,1.14,3.66c0.35,1.23,0.67,2.47,0.97,3.71c0.29,1.24,0.55,2.5,0.79,3.75c0.23,1.26,0.43,2.52,0.61,3.79
		s0.31,2.54,0.42,3.81"/>
	<path class="st0" d="M451.7,270.44c0.39,0.9,0.78,1.8,1.17,2.69c0.39,0.9,0.78,1.79,1.18,2.69c0.4,0.89,0.8,1.79,1.21,2.67
		c0.41,0.89,0.83,1.77,1.26,2.65s0.87,1.75,1.32,2.62c0.45,0.87,0.91,1.73,1.39,2.58c0.48,0.85,0.97,1.69,1.48,2.52
		s1.04,1.65,1.58,2.46s1.11,1.61,1.7,2.39s1.2,1.55,1.83,2.3s1.29,1.48,1.96,2.19c0.68,0.71,1.37,1.4,2.09,2.06s1.46,1.3,2.22,1.91
		s1.55,1.19,2.35,1.73c0.81,0.55,1.63,1.06,2.48,1.53c0.85,0.48,1.72,0.91,2.61,1.31"/>
	<path class="st0" d="M491.49,309.74c1.92,0.09,3.84,0.09,5.76-0.01c1.92-0.09,3.83-0.28,5.73-0.56c1.9-0.27,3.79-0.64,5.66-1.09
		c1.87-0.45,3.71-0.99,5.53-1.61s3.61-1.32,5.36-2.11c1.75-0.78,3.47-1.65,5.14-2.59c1.67-0.94,3.3-1.96,4.88-3.06
		s3.1-2.27,4.56-3.51"/>
	<path class="st0" d="M551.21,298.84c-0.52,0.67-1.01,1.37-1.46,2.08s-0.87,1.46-1.25,2.22s-0.72,1.54-1.03,2.33
		c-0.31,0.79-0.57,1.6-0.8,2.42c-0.23,0.82-0.42,1.65-0.57,2.48c-0.15,0.84-0.26,1.68-0.33,2.52c-0.07,0.85-0.1,1.69-0.09,2.54
		s0.06,1.7,0.16,2.54s0.24,1.68,0.41,2.51s0.4,1.65,0.66,2.46c0.26,0.81,0.56,1.6,0.89,2.38s0.71,1.54,1.12,2.29
		c0.41,0.74,0.85,1.47,1.33,2.17c0.48,0.7,0.99,1.38,1.53,2.04c0.54,0.65,1.11,1.28,1.71,1.88c0.6,0.6,1.23,1.17,1.89,1.7"/>
	<path class="st0" d="M564.91,338.31c1.48,0.67,3,1.28,4.53,1.83s3.09,1.03,4.66,1.45c1.57,0.42,3.16,0.78,4.77,1.07
		c1.6,0.29,3.22,0.52,4.84,0.69c1.62,0.17,3.25,0.27,4.88,0.3c1.63,0.04,3.26,0.01,4.88-0.08s3.25-0.25,4.86-0.48
		c1.61-0.22,3.22-0.51,4.81-0.87"/>
	<path class="st0" d="M619.57,359.72c-1.03-0.07-2.06-0.05-3.09,0.04c-1.03,0.09-2.04,0.26-3.05,0.49c-1,0.24-1.99,0.55-2.95,0.92
		c-0.96,0.37-1.9,0.82-2.8,1.32c-0.9,0.5-1.77,1.06-2.6,1.68c-0.83,0.62-1.61,1.29-2.34,2.02c-0.73,0.73-1.41,1.5-2.03,2.33
		s-1.18,1.69-1.66,2.61c-0.49,0.91-0.9,1.86-1.25,2.83c-0.34,0.97-0.62,1.97-0.82,2.98c-0.2,1.01-0.33,2.04-0.39,3.07
		c-0.06,1.03-0.05,2.07,0.03,3.09c0.08,1.03,0.23,2.05,0.45,3.06c0.22,1.01,0.51,2,0.87,2.97s0.78,1.91,1.27,2.81
		c0.49,0.91,1.05,1.78,1.68,2.6"/>
	<path class="st0" d="M607.49,411.57c0.53,1.84,1.06,3.67,1.61,5.51s1.11,3.66,1.68,5.49s1.15,3.65,1.75,5.47
		c0.59,1.82,1.2,3.63,1.81,5.44c0.62,1.81,1.24,3.62,1.88,5.42c0.64,1.8,1.29,3.6,1.95,5.4c0.66,1.8,1.33,3.59,2.02,5.37
		c0.68,1.79,1.38,3.57,2.08,5.35"/>
	<path class="st0" d="M633.56,370.36c2.28,1.59,4.52,3.26,6.69,5.01c2.17,1.74,4.29,3.56,6.34,5.44s4.05,3.83,5.98,5.84
		c1.93,2.01,3.79,4.08,5.58,6.21c1.79,2.13,3.52,4.32,5.17,6.56s3.23,4.54,4.73,6.88c1.5,2.34,2.93,4.74,4.27,7.18
		s2.61,4.92,3.79,7.44"/>
	<path class="st0" d="M600.31,376.01c-0.09,1.97-0.1,3.95-0.05,5.92c0.05,1.97,0.17,3.95,0.36,5.91s0.44,3.93,0.76,5.87
		c0.32,1.95,0.71,3.89,1.16,5.81c0.45,1.92,0.97,3.83,1.55,5.72s1.22,3.76,1.93,5.6s1.48,3.66,2.31,5.46s1.72,3.55,2.68,5.28"/>
	<path class="st0" d="M257.15,211.73c2.55,2.01,4.98,4.16,7.28,6.45c2.3,2.28,4.48,4.7,6.51,7.22s3.94,5.16,5.69,7.89
		c1.75,2.73,3.36,5.55,4.82,8.45c1.45,2.9,2.75,5.88,3.89,8.92c1.14,3.04,2.11,6.14,2.91,9.28c0.8,3.14,1.43,6.33,1.88,9.54
		c0.45,3.21,0.72,6.45,0.8,9.69"/>
	<path class="st0" d="M289.16,272.12c0.43,4.02,1.04,8.02,1.8,11.99c0.76,3.97,1.68,7.91,2.75,11.8c1.07,3.9,2.3,7.75,3.68,11.55
		c1.38,3.8,2.91,7.54,4.58,11.22s3.49,7.29,5.44,10.83c1.96,3.54,4.05,7,6.28,10.37c2.23,3.37,4.59,6.65,7.08,9.84
		c2.49,3.18,5.11,6.26,7.85,9.23"/>
	<path class="st0" d="M292.74,285.04c0.42,2.49,0.9,4.97,1.46,7.43c0.56,2.46,1.18,4.91,1.87,7.34c0.69,2.43,1.45,4.84,2.27,7.23
		c0.82,2.39,1.71,4.75,2.67,7.09s1.97,4.65,3.05,6.94c1.08,2.28,2.22,4.54,3.43,6.76c1.2,2.22,2.47,4.41,3.79,6.56
		s2.71,4.27,4.15,6.34"/>
	<path class="st0" d="M139.78,238.88c-2.31-0.06-4.6,0.13-6.84,0.53c-2.24,0.41-4.43,1.03-6.55,1.85c-2.12,0.82-4.17,1.84-6.14,3.02
		c-1.96,1.19-3.83,2.54-5.58,4.04c-1.75,1.5-3.39,3.15-4.89,4.91c-1.5,1.77-2.87,3.65-4.07,5.64c-1.21,1.98-2.25,4.06-3.12,6.21
		c-0.86,2.15-1.55,4.36-2.03,6.63s-0.77,4.55-0.89,6.83c-0.12,2.29-0.07,4.58,0.15,6.86c0.21,2.28,0.59,4.55,1.12,6.79
		c0.53,2.24,1.2,4.45,2.01,6.61c0.81,2.16,1.77,4.28,2.84,6.34c1.08,2.06,2.28,4.05,3.6,5.96c1.32,1.91,2.76,3.75,4.29,5.49
		s3.18,3.38,4.91,4.91s3.55,2.96,5.43,4.28c1.88,1.32,3.83,2.55,5.84,3.67c2.01,1.12,4.07,2.14,6.18,3.06
		c2.11,0.92,4.27,1.75,6.46,2.48c2.19,0.73,4.43,1.36,6.68,1.9s4.54,0.99,6.83,1.34c2.3,0.35,4.61,0.62,6.92,0.79
		c2.32,0.17,4.63,0.26,6.95,0.26s4.62-0.08,6.92-0.24c2.3-0.16,4.59-0.39,6.88-0.69c2.28-0.3,4.56-0.67,6.82-1.1
		c2.26-0.43,4.52-0.92,6.76-1.47s4.47-1.15,6.68-1.81s4.41-1.36,6.59-2.11c2.18-0.75,4.34-1.54,6.48-2.37s4.27-1.7,6.37-2.6
		c1.49-0.06,2.94,0.06,4.34,0.34s2.75,0.71,4.06,1.27s2.56,1.26,3.77,2.07c1.21,0.81,2.37,1.72,3.49,2.72s2.18,2.09,3.2,3.24
		s1.98,2.36,2.9,3.61c0.92,1.25,1.79,2.54,2.61,3.84c0.82,1.3,1.59,2.62,2.31,3.93c1.68,3.05,3.26,6.15,4.77,9.29
		c1.51,3.13,2.95,6.3,4.34,9.5c1.39,3.19,2.73,6.41,4.05,9.64c1.32,3.23,2.61,6.47,3.91,9.71s2.59,6.48,3.91,9.71
		c1.32,3.23,2.66,6.44,4.05,9.64s2.83,6.36,4.33,9.5c1.51,3.13,3.09,6.24,4.76,9.29c1.67,3.05,3.48,6.08,5.42,9.04
		s4.01,5.85,6.2,8.64c2.19,2.79,4.51,5.48,6.94,8.04c2.43,2.56,4.98,4.98,7.65,7.23s5.44,4.33,8.32,6.21
		c2.88,1.88,5.87,3.55,8.96,4.98c3.09,1.43,6.28,2.62,9.56,3.54c3.28,0.92,6.66,1.56,10.13,1.9"/>
	<path class="st0" d="M264.08,383.4c-1.52,2.37-3.25,4.5-5.15,6.46s-3.98,3.72-6.18,5.36c-2.2,1.64-4.53,3.14-6.95,4.55
		c-2.41,1.42-4.91,2.75-7.45,4.04s-5.12,2.55-7.7,3.82s-5.16,2.54-7.7,3.88c-2.54,1.34-5.03,2.74-7.43,4.24
		c-2.4,1.51-4.72,3.12-6.9,4.89c-2.22,1.8-4.29,3.77-6.19,5.89c-1.9,2.11-3.64,4.37-5.21,6.74c-1.57,2.37-2.97,4.86-4.2,7.43
		c-1.22,2.57-2.27,5.24-3.14,7.96c-0.87,2.72-1.55,5.51-2.05,8.32c-0.5,2.82-0.8,5.67-0.91,8.53c-0.11,2.86-0.03,5.72,0.26,8.56
		s0.77,5.66,1.47,8.44s1.59,5.49,2.66,8.13s2.32,5.2,3.73,7.67c1.41,2.47,2.98,4.86,4.7,7.13s3.58,4.45,5.57,6.51
		c1.99,2.05,4.1,3.99,6.33,5.79s4.56,3.47,6.98,4.99c2.43,1.52,4.94,2.89,7.54,4.09c2.59,1.21,5.26,2.25,7.99,3.11
		c2.73,0.86,5.5,1.55,8.3,2.07c2.8,0.52,5.63,0.87,8.48,1.06s5.7,0.21,8.55,0.07c2.85-0.14,5.7-0.43,8.52-0.88
		c2.82-0.45,5.62-1.05,8.39-1.81c2.76-0.75,5.48-1.66,8.15-2.7c2.67-1.05,5.27-2.24,7.81-3.57c2.54-1.33,5-2.8,7.37-4.4"/>
	<path class="st0" d="M289.1,431.66c-1.27,2.12-2.36,4.34-3.27,6.63c-0.91,2.29-1.63,4.65-2.17,7.05c-0.54,2.4-0.91,4.85-1.09,7.31
		s-0.19,4.94-0.02,7.4c0.17,2.46,0.52,4.91,1.04,7.33c0.52,2.41,1.22,4.78,2.08,7.09c0.87,2.3,1.91,4.54,3.12,6.68
		c1.21,2.14,2.59,4.19,4.14,6.11c0.41,0.5,0.82,1,1.25,1.49c0.42,0.49,0.85,0.97,1.29,1.45c0.43,0.48,0.87,0.96,1.31,1.43
		s0.88,0.95,1.32,1.43c0.44,0.48,0.88,0.95,1.31,1.43c0.43,0.48,0.86,0.96,1.28,1.45c0.42,0.49,0.83,0.99,1.24,1.49
		c0.4,0.5,0.8,1.02,1.18,1.54c0.38,0.52,0.75,1.06,1.1,1.61c0.35,0.55,0.68,1.12,0.99,1.69s0.6,1.16,0.86,1.76
		c0.26,0.6,0.5,1.2,0.71,1.82s0.38,1.23,0.53,1.86c0.14,0.63,0.25,1.26,0.32,1.89s0.1,1.27,0.09,1.91
		c-0.01,0.64-0.07,1.28-0.17,1.92"/>
	<path class="st0" d="M208.48,420.11c-1.05,1.32-2.09,2.65-3.12,3.99s-2.04,2.7-3.02,4.07c-0.99,1.37-1.96,2.76-2.89,4.17
		s-1.85,2.83-2.72,4.27s-1.72,2.9-2.52,4.38c-0.8,1.48-1.56,2.98-2.27,4.5c-0.71,1.52-1.37,3.06-1.98,4.62
		c-0.61,1.56-1.16,3.15-1.66,4.76s-0.92,3.25-1.28,4.91c-0.36,1.66-0.64,3.34-0.84,5.02s-0.33,3.38-0.38,5.08
		c-0.05,1.69-0.01,3.39,0.11,5.07c0.12,1.68,0.34,3.35,0.64,5c0.3,1.65,0.7,3.27,1.19,4.86c0.49,1.59,1.09,3.15,1.78,4.67
		c0.69,1.52,1.49,2.99,2.39,4.42"/>
	<path class="st0" d="M197.87,494.9c0.02,0.59,0.07,1.18,0.16,1.76c0.09,0.58,0.21,1.16,0.37,1.72c0.15,0.57,0.34,1.13,0.55,1.67
		c0.21,0.55,0.46,1.09,0.72,1.62c0.27,0.53,0.56,1.05,0.88,1.55s0.65,1,1.01,1.47c0.36,0.48,0.74,0.94,1.13,1.39
		c0.39,0.45,0.8,0.88,1.23,1.29s0.86,0.81,1.31,1.19c0.45,0.38,0.91,0.75,1.38,1.11c0.47,0.36,0.95,0.7,1.44,1.04
		c0.49,0.34,0.98,0.66,1.48,0.97c0.5,0.32,1.01,0.62,1.52,0.92s1.03,0.59,1.55,0.87c0.52,0.28,1.05,0.56,1.57,0.84
		c0.53,0.27,1.06,0.54,1.58,0.81c1.63,0.82,3.27,1.61,4.92,2.38c1.65,0.77,3.31,1.51,4.99,2.23c1.67,0.72,3.36,1.41,5.05,2.09
		c1.69,0.67,3.4,1.32,5.11,1.94c1.71,0.62,3.43,1.22,5.16,1.79c1.73,0.57,3.47,1.12,5.21,1.64c1.75,0.52,3.5,1.02,5.26,1.48
		c1.76,0.47,3.53,0.91,5.3,1.33"/>
	<path class="st0" d="M259.84,390.7c-1.64,1.41-3.29,2.8-4.96,4.16c-1.67,1.37-3.35,2.72-5.05,4.04c-1.7,1.33-3.42,2.63-5.15,3.92
		c-1.73,1.29-3.48,2.55-5.24,3.8c-1.76,1.24-3.54,2.47-5.33,3.67c-1.79,1.2-3.6,2.38-5.42,3.54s-3.65,2.29-5.5,3.41
		c-1.85,1.11-3.71,2.21-5.58,3.27"/>
	<path class="st0" d="M288.02,431.65c-1.08,1.31-2.04,2.7-2.88,4.14c-0.84,1.45-1.58,2.95-2.2,4.51c-0.62,1.55-1.13,3.15-1.54,4.79
		c-0.41,1.63-0.71,3.3-0.91,4.98c-0.2,1.68-0.3,3.39-0.31,5.1c-0.01,1.71,0.08,3.42,0.27,5.13c0.18,1.7,0.45,3.4,0.81,5.07
		s0.8,3.32,1.33,4.94c0.52,1.61,1.12,3.2,1.78,4.75c0.66,1.55,1.38,3.08,2.16,4.57c0.78,1.5,1.61,2.97,2.5,4.41s1.81,2.86,2.79,4.25
		c0.97,1.39,1.98,2.76,3.03,4.1c1.05,1.34,2.12,2.67,3.23,3.97c1.1,1.3,2.23,2.58,3.38,3.84c1.15,1.26,2.31,2.5,3.49,3.72"/>
	<path class="st0" d="M261.56,523.88c1.68,0.34,3.37,0.59,5.08,0.75c1.7,0.16,3.41,0.23,5.13,0.21c1.71-0.02,3.42-0.13,5.12-0.33
		c1.7-0.2,3.39-0.48,5.06-0.85c1.67-0.37,3.33-0.82,4.95-1.36c1.63-0.54,3.22-1.16,4.79-1.86s3.09-1.48,4.57-2.34
		c1.48-0.86,2.91-1.8,4.29-2.82"/>
	<path class="st0" d="M226.51,326.75c1.77,1.25,3.46,2.58,5.09,3.98c1.63,1.4,3.19,2.88,4.69,4.42s2.93,3.14,4.3,4.8
		c1.37,1.66,2.69,3.37,3.95,5.13c1.26,1.76,2.46,3.56,3.62,5.4c1.15,1.84,2.26,3.72,3.31,5.62s2.07,3.83,3.03,5.78
		s1.89,3.91,2.78,5.88s1.74,3.96,2.58,5.96s1.66,4.03,2.48,6.07c0.82,2.05,1.65,4.12,2.49,6.21c0.84,2.1,1.7,4.22,2.59,6.38
		c0.89,2.16,1.81,4.35,2.79,6.58c0.97,2.23,1.99,4.5,3.08,6.81c1.09,2.31,2.24,4.66,3.48,7.06c1.24,2.4,2.55,4.85,3.97,7.34
		c1.07,3.42,2.4,6.74,3.97,9.95c1.56,3.21,3.36,6.3,5.37,9.25s4.22,5.77,6.61,8.43s4.97,5.15,7.69,7.47
		c2.73,2.32,5.61,4.45,8.62,6.38c3.01,1.93,6.15,3.65,9.39,5.15c3.24,1.5,6.58,2.77,10,3.79c3.42,1.02,6.91,1.8,10.46,2.3"/>
	<path class="st0" d="M233.12,329.29c2.16,1.8,4.17,3.73,6.06,5.76c1.89,2.03,3.66,4.17,5.32,6.39c1.66,2.22,3.21,4.53,4.68,6.91
		c1.46,2.38,2.83,4.83,4.13,7.33c1.3,2.5,2.52,5.05,3.69,7.64c1.17,2.59,2.27,5.21,3.34,7.85c1.07,2.64,2.09,5.3,3.1,7.95
		c1,2.66,1.98,5.31,2.95,7.95c0.97,2.64,1.96,5.29,2.97,7.95c1.01,2.66,2.05,5.32,3.13,7.96c1.08,2.65,2.19,5.28,3.36,7.89
		c1.17,2.61,2.38,5.2,3.65,7.74c1.27,2.55,2.61,5.05,4.02,7.5c1.41,2.45,2.89,4.85,4.45,7.18c1.56,2.33,3.21,4.59,4.95,6.77
		c1.74,2.18,3.57,4.28,5.51,6.28c1.82,1.98,3.71,3.9,5.67,5.74s3.98,3.62,6.07,5.32c2.09,1.7,4.23,3.32,6.44,4.87
		c2.2,1.54,4.46,3.01,6.77,4.4c2.31,1.38,4.66,2.69,7.06,3.9c2.4,1.22,4.84,2.35,7.32,3.39c2.48,1.04,5,1.99,7.55,2.86
		c2.55,0.86,5.13,1.63,7.74,2.3"/>
	<path class="st0" d="M292.17,284.84c0.77,4.79,1.79,9.54,3.05,14.22c1.26,4.68,2.76,9.3,4.48,13.83c1.72,4.53,3.67,8.98,5.83,13.32
		c2.16,4.34,4.54,8.58,7.11,12.69c2.57,4.11,5.35,8.1,8.31,11.94c2.96,3.84,6.11,7.53,9.44,11.06c3.32,3.53,6.82,6.89,10.48,10.07
		c3.66,3.18,7.48,6.17,11.46,8.95"/>
	<path class="st0" d="M353.39,375.17c-0.93,3.21-1.74,6.45-2.44,9.71c-0.7,3.26-1.28,6.55-1.75,9.86c-0.47,3.31-0.83,6.63-1.07,9.96
		c-0.24,3.33-0.37,6.67-0.39,10.01c-0.02,3.34,0.08,6.68,0.3,10.01c0.21,3.33,0.54,6.66,0.98,9.97s1,6.6,1.67,9.87
		c0.67,3.27,1.45,6.52,2.35,9.73"/>
	<path class="st0" d="M350.6,445.17c0.26,3.68,0.61,7.35,1.05,11.01c0.44,3.66,0.97,7.31,1.59,10.95c0.62,3.64,1.33,7.26,2.12,10.86
		s1.68,7.18,2.64,10.74c0.97,3.56,2.02,7.09,3.16,10.6c1.14,3.51,2.36,6.99,3.67,10.44c1.31,3.45,2.7,6.87,4.17,10.25
		c1.47,3.38,3.03,6.73,4.67,10.03"/>
	<path class="st0" d="M370.36,521.61c1.07,2.66,2.22,5.28,3.44,7.86c1.23,2.59,2.53,5.14,3.9,7.65c1.37,2.51,2.82,4.98,4.34,7.41
		c1.52,2.43,3.11,4.81,4.77,7.14c1.66,2.33,3.38,4.62,5.17,6.85s3.64,4.41,5.56,6.54c1.92,2.13,3.9,4.19,5.93,6.2
		c2.04,2.01,4.14,3.96,6.29,5.84"/>
	<path class="st0" d="M345.66,427.22c0.41,4.04,0.87,8.08,1.38,12.11c0.51,4.03,1.08,8.06,1.7,12.07c0.62,4.02,1.29,8.03,2.02,12.02
		s1.51,7.99,2.34,11.97c0.83,3.98,1.72,7.95,2.65,11.9c0.94,3.95,1.93,7.9,2.97,11.83s2.13,7.84,3.28,11.74
		c1.15,3.9,2.34,7.78,3.59,11.65"/>
	<path class="st0" d="M451.04,448.55c0.53,3.46,1.15,6.91,1.84,10.34c0.7,3.43,1.48,6.85,2.35,10.24c0.87,3.39,1.81,6.77,2.84,10.11
		c1.03,3.35,2.14,6.67,3.33,9.96c1.19,3.29,2.46,6.56,3.81,9.79c1.35,3.23,2.78,6.43,4.28,9.6c1.5,3.16,3.09,6.29,4.74,9.38
		c1.66,3.09,3.39,6.13,5.2,9.13"/>
	<path class="st0" d="M457.96,481.96c0.55,3.01,1.2,6,1.93,8.98c0.73,2.97,1.55,5.92,2.45,8.85c0.9,2.92,1.89,5.82,2.97,8.69
		c1.07,2.87,2.23,5.7,3.47,8.5c1.24,2.8,2.56,5.56,3.96,8.28c1.4,2.72,2.88,5.4,4.44,8.04c1.56,2.63,3.19,5.22,4.9,7.76
		c1.71,2.54,3.49,5.03,5.35,7.46"/>
	<path class="st0" d="M465.47,503.07c0.98,2.43,2.02,4.84,3.09,7.23s2.2,4.75,3.38,7.1s2.39,4.66,3.65,6.96
		c1.26,2.3,2.57,4.57,3.92,6.81s2.75,4.46,4.19,6.65c1.44,2.19,2.92,4.35,4.44,6.49s3.09,4.24,4.69,6.31s3.25,4.11,4.94,6.12"/>
	<path class="st0" d="M370.77,524.4c1.3,2.58,2.65,5.13,4.07,7.65c1.42,2.52,2.89,5,4.42,7.45c1.53,2.45,3.12,4.86,4.77,7.23
		c1.64,2.37,3.34,4.71,5.1,7s3.56,4.55,5.42,6.76c1.86,2.21,3.77,4.38,5.73,6.5c1.96,2.12,3.97,4.19,6.03,6.22
		c2.06,2.03,4.16,4,6.32,5.93"/>
	<path class="st0" d="M390.35,546.79c1.04,2.2,2.16,4.36,3.36,6.47c1.2,2.12,2.47,4.19,3.81,6.22c1.34,2.03,2.76,4.01,4.24,5.93
		c1.48,1.93,3.03,3.8,4.65,5.62s3.29,3.58,5.03,5.29c1.74,1.7,3.53,3.35,5.38,4.92s3.76,3.09,5.71,4.53s3.97,2.82,6.02,4.11"/>
	<path class="st0" d="M379.85,548.65c1.65,2.43,3.36,4.83,5.13,7.18c1.77,2.35,3.59,4.66,5.48,6.91s3.82,4.47,5.81,6.64
		c1.99,2.16,4.04,4.28,6.13,6.34c2.1,2.06,4.24,4.08,6.44,6.03c2.19,1.96,4.44,3.86,6.72,5.71c2.29,1.85,4.62,3.64,7,5.37
		c2.38,1.73,4.8,3.4,7.26,5.02"/>
	<path class="st0" d="M392.38,558.97c1.66,2.66,3.43,5.25,5.32,7.75c1.88,2.51,3.87,4.93,5.95,7.27c2.08,2.34,4.27,4.59,6.54,6.75
		c2.27,2.16,4.63,4.23,7.08,6.19c2.44,1.97,4.97,3.83,7.56,5.59c2.6,1.76,5.26,3.41,8,4.95c2.73,1.54,5.53,2.96,8.38,4.26
		s5.76,2.48,8.71,3.54"/>
	<path class="st0" d="M436.46,598.56c2.09,1.42,4.23,2.77,6.41,4.05c2.18,1.28,4.39,2.5,6.64,3.65c2.25,1.15,4.54,2.23,6.86,3.23
		c2.32,1.01,4.67,1.94,7.04,2.81c2.37,0.86,4.78,1.65,7.2,2.37c2.42,0.72,4.87,1.36,7.33,1.93c2.46,0.57,4.94,1.06,7.43,1.47
		s5,0.75,7.51,1.01"/>
	<path class="st0" d="M459.02,605.27c1.53,0.53,3.06,1.05,4.59,1.57c1.53,0.51,3.07,1.02,4.61,1.52s3.08,0.99,4.62,1.47
		c1.54,0.48,3.09,0.95,4.64,1.42c1.55,0.47,3.1,0.92,4.65,1.37c1.55,0.45,3.11,0.89,4.66,1.32c1.56,0.43,3.12,0.86,4.68,1.27
		c1.56,0.42,3.13,0.82,4.69,1.22"/>
	<path class="st0" d="M471.01,611.4c0.76,0.29,1.53,0.54,2.3,0.77c0.77,0.23,1.56,0.43,2.35,0.61c0.79,0.18,1.58,0.33,2.38,0.46
		c0.8,0.13,1.6,0.23,2.41,0.31c0.81,0.08,1.61,0.14,2.43,0.18s1.62,0.06,2.44,0.06c0.81,0,1.63-0.02,2.44-0.05
		c0.81-0.04,1.62-0.09,2.43-0.15s1.61-0.15,2.42-0.25s1.61-0.2,2.41-0.32c0.8-0.12,1.6-0.25,2.4-0.39c0.8-0.14,1.59-0.29,2.39-0.45
		s1.59-0.32,2.38-0.49s1.59-0.34,2.38-0.52c0.79-0.18,1.58-0.36,2.37-0.55c0.79-0.18,1.58-0.37,2.37-0.56"/>
	<path class="st0" d="M501.48,558.67c1.73,1.56,3.33,3.24,4.8,5.04c1.47,1.79,2.81,3.69,4.02,5.67c1.21,1.98,2.27,4.05,3.2,6.18
		c0.93,2.13,1.71,4.32,2.35,6.56c0.64,2.24,1.12,4.51,1.46,6.81s0.51,4.62,0.53,6.94s-0.12,4.64-0.43,6.94
		c-0.31,2.3-0.78,4.58-1.42,6.81"/>
	<path class="st0" d="M466.64,498.67c1.59,0.24,3.18,0.45,4.77,0.63c1.59,0.18,3.19,0.34,4.79,0.46c1.6,0.13,3.2,0.23,4.8,0.3
		c1.6,0.07,3.2,0.12,4.81,0.13c1.6,0.02,3.21,0.01,4.81-0.03c1.6-0.04,3.2-0.1,4.8-0.19c1.6-0.09,3.2-0.21,4.79-0.36
		c1.6-0.15,3.19-0.32,4.78-0.52"/>
	<path class="st0" d="M510.86,498c1.84,0.05,3.69,0.05,5.53,0c1.84-0.05,3.69-0.14,5.52-0.28c1.84-0.14,3.67-0.33,5.5-0.57
		c1.83-0.24,3.65-0.52,5.47-0.85c1.81-0.33,3.62-0.71,5.42-1.13s3.58-0.89,5.35-1.4c1.77-0.51,3.53-1.07,5.27-1.68
		c1.74-0.6,3.47-1.25,5.18-1.95"/>
	<path class="st0" d="M346.98,375.65c3.09,1.12,6.15,2.31,9.19,3.57c3.04,1.26,6.06,2.58,9.06,3.98c3,1.4,5.97,2.86,8.93,4.41
		c2.95,1.54,5.89,3.17,8.8,4.87c2.91,1.7,5.81,3.49,8.69,5.35c2.88,1.87,5.73,3.82,8.57,5.87c2.84,2.04,5.66,4.18,8.47,6.41
		c2.81,2.23,5.59,4.55,8.37,6.97c2.95,3.05,5.96,6.04,9.06,8.95c3.1,2.92,6.27,5.77,9.52,8.55c3.25,2.79,6.59,5.51,10.01,8.17
		c3.42,2.66,6.93,5.27,10.54,7.81c3.6,2.55,7.3,5.03,11.09,7.47c3.79,2.43,7.68,4.81,11.67,7.14c3.99,2.33,8.08,4.61,12.28,6.83
		s8.5,4.41,12.92,6.55c2.99,1.3,6.04,2.49,9.12,3.55c3.09,1.06,6.21,2,9.37,2.81c3.16,0.82,6.35,1.51,9.57,2.08
		c3.21,0.57,6.45,1.01,9.7,1.33c3.25,0.32,6.51,0.51,9.77,0.58s6.53,0.01,9.79-0.17c3.26-0.18,6.51-0.5,9.74-0.94
		c3.23-0.44,6.45-1.01,9.64-1.7"/>
	<path class="st0" d="M328.27,357.03c2.92,0.22,5.84,0.52,8.75,0.89s5.81,0.81,8.7,1.33c2.89,0.52,5.76,1.1,8.62,1.76
		c2.86,0.66,5.7,1.39,8.52,2.19c2.82,0.8,5.63,1.67,8.41,2.61c2.78,0.94,5.54,1.95,8.26,3.03c2.73,1.08,5.43,2.22,8.1,3.44
		s5.31,2.49,7.92,3.84"/>
	<path class="st0" d="M408.31,386.14c2.73,2.19,5.45,4.39,8.19,6.59c2.74,2.2,5.49,4.4,8.28,6.61c2.78,2.21,5.6,4.43,8.46,6.66
		c2.86,2.23,5.76,4.47,8.72,6.73c2.96,2.26,5.98,4.54,9.08,6.83s6.26,4.62,9.52,6.96s6.6,4.71,10.05,7.11s7,4.82,10.67,7.28
		c2.7,1.92,5.49,3.71,8.36,5.38s5.8,3.2,8.81,4.6c3,1.4,6.07,2.67,9.18,3.8c3.11,1.13,6.28,2.13,9.48,2.99
		c3.2,0.86,6.44,1.58,9.7,2.15c3.26,0.58,6.55,1.01,9.85,1.29c3.3,0.29,6.61,0.43,9.93,0.42s6.63-0.17,9.93-0.48"/>
	<path class="st0" d="M572.8,461.23c2.02,0.36,4.04,0.66,6.07,0.89c2.03,0.23,4.07,0.4,6.12,0.51c2.04,0.11,4.09,0.15,6.14,0.13
		c2.05-0.02,4.09-0.11,6.13-0.25c2.04-0.15,4.08-0.36,6.11-0.63c2.03-0.27,4.05-0.61,6.06-1c2.01-0.4,4-0.86,5.98-1.38
		c1.98-0.52,3.94-1.1,5.88-1.75"/>
	<path class="st0" d="M634.37,446.82c2.04-0.68,4.07-1.41,6.08-2.18c2.01-0.77,4-1.59,5.97-2.45c1.97-0.86,3.92-1.77,5.86-2.72
		c1.93-0.95,3.84-1.94,5.73-2.98c1.89-1.03,3.75-2.11,5.59-3.23c1.84-1.12,3.65-2.28,5.44-3.48s3.55-2.44,5.28-3.72
		c1.73-1.28,3.43-2.6,5.11-3.95"/>
	<path class="st0" d="M559.39,307.29c3.06,2.97,6.15,5.9,9.29,8.81c3.14,2.91,6.33,5.8,9.58,8.68s6.55,5.75,9.93,8.62
		c3.38,2.87,6.83,5.75,10.36,8.65c3.53,2.9,7.15,5.81,10.86,8.76c3.71,2.95,7.52,5.93,11.43,8.96s7.93,6.1,12.07,9.23
		s8.39,6.33,12.78,9.59c2.58,2.51,5.21,4.98,7.89,7.39s5.39,4.78,8.16,7.1s5.57,4.58,8.41,6.79c2.84,2.21,5.73,4.37,8.65,6.48
		c2.92,2.11,5.89,4.16,8.88,6.16c3,2,6.03,3.94,9.1,5.83c3.07,1.89,6.17,3.72,9.31,5.49c3.14,1.77,6.31,3.49,9.51,5.14"/>
	<path class="st0" d="M538.01,485.75c4.78,0.47,9.58,0.75,14.38,0.86c4.8,0.11,9.61,0.03,14.41-0.22s9.59-0.68,14.35-1.28
		c4.77-0.6,9.51-1.37,14.22-2.32c4.71-0.95,9.39-2.06,14.02-3.35c4.63-1.29,9.21-2.74,13.73-4.36c4.52-1.62,8.98-3.41,13.37-5.36
		c4.39-1.95,8.71-4.07,12.94-6.35"/>
	<path class="st0" d="M570.45,481.06c4.94,0.16,9.89,0.09,14.82-0.2c4.93-0.3,9.85-0.82,14.74-1.56c4.89-0.74,9.74-1.7,14.54-2.88
		c4.8-1.17,9.55-2.56,14.23-4.16c4.68-1.6,9.29-3.4,13.81-5.4c4.52-2,8.95-4.21,13.28-6.6c4.32-2.4,8.54-4.99,12.63-7.77
		c4.09-2.78,8.05-5.75,11.86-8.89"/>
	<path class="st0" d="M629.54,476.39c3.32-0.86,6.62-1.82,9.88-2.88c3.26-1.06,6.49-2.22,9.69-3.48c3.19-1.26,6.35-2.61,9.46-4.06
		s6.18-2.99,9.2-4.63c3.02-1.63,5.99-3.36,8.9-5.17c2.91-1.81,5.77-3.72,8.57-5.7c2.8-1.99,5.54-4.06,8.21-6.21s5.28-4.39,7.81-6.7"
		/>
	<path class="st0" d="M653.59,460.44c3.12-0.82,6.21-1.75,9.27-2.78c3.06-1.03,6.08-2.16,9.06-3.4s5.92-2.57,8.81-4
		c2.89-1.43,5.74-2.96,8.53-4.57c2.79-1.62,5.53-3.33,8.2-5.13c2.68-1.8,5.29-3.69,7.84-5.66s5.03-4.03,7.45-6.18
		c2.41-2.14,4.75-4.36,7.01-6.67"/>
	<path class="st0" d="M624.69,452.9c3.55-0.99,7.07-2.1,10.54-3.32s6.91-2.57,10.29-4.03c3.38-1.46,6.72-3.03,10-4.71
		c3.28-1.68,6.51-3.47,9.67-5.36c3.16-1.89,6.26-3.89,9.29-5.99s5.99-4.3,8.87-6.59c2.88-2.29,5.69-4.68,8.41-7.17
		s5.36-5.06,7.91-7.72"/>
	<path class="st0" d="M579.77,487.64c0.9,2.11,1.95,4.15,3.14,6.1c1.18,1.96,2.5,3.84,3.93,5.62c1.43,1.79,2.98,3.48,4.63,5.07
		c1.65,1.59,3.4,3.08,5.23,4.45c1.84,1.37,3.76,2.63,5.75,3.77c1.99,1.13,4.05,2.14,6.17,3.01c2.12,0.87,4.29,1.6,6.5,2.18
		s4.47,1.02,6.74,1.29"/>
	<path class="st0" d="M641.84,467.2c2.05,1.58,4.12,3.13,6.22,4.65s4.23,3,6.37,4.44c2.15,1.44,4.32,2.85,6.52,4.23
		c2.2,1.37,4.41,2.71,6.65,4.01c2.24,1.3,4.5,2.56,6.78,3.79c2.28,1.23,4.58,2.41,6.9,3.56c2.32,1.15,4.66,2.26,7.02,3.33
		s4.73,2.11,7.12,3.1"/>
	<path class="st0" d="M605.42,517.07c3.29,1.7,6.7,3.13,10.2,4.3s7.08,2.07,10.71,2.72c3.63,0.64,7.31,1.03,11.01,1.15
		c3.69,0.13,7.4,0,11.07-0.39c3.68-0.38,7.33-1.02,10.92-1.9s7.11-2.02,10.53-3.39s6.74-3,9.92-4.86s6.22-3.97,9.09-6.31"/>
	<path class="st0" d="M625.6,521.18c2.98,0.53,5.99,0.9,9,1.11c3.02,0.21,6.04,0.27,9.07,0.18s6.04-0.34,9.04-0.74
		c3-0.4,5.98-0.94,8.93-1.63c2.95-0.69,5.86-1.53,8.72-2.5s5.68-2.1,8.43-3.36c2.75-1.26,5.44-2.66,8.05-4.19
		c2.61-1.53,5.14-3.2,7.57-5"/>
	<path class="st0" d="M645.32,472.78c1.76,1.38,3.56,2.7,5.39,3.98c1.83,1.28,3.71,2.5,5.61,3.67c1.9,1.17,3.84,2.29,5.81,3.35
		s3.96,2.07,5.98,3.02c2.02,0.95,4.07,1.85,6.14,2.69c2.07,0.84,4.17,1.62,6.28,2.34c2.11,0.72,4.25,1.38,6.4,1.99
		c2.15,0.6,4.32,1.14,6.5,1.62"/>
	<path class="st0" d="M582.95,495.2c1.27,1.43,2.6,2.81,3.98,4.14c1.38,1.33,2.81,2.6,4.29,3.81c1.48,1.21,3,2.37,4.57,3.47
		s3.18,2.14,4.82,3.11c1.65,0.98,3.33,1.89,5.05,2.73s3.47,1.63,5.24,2.34s3.58,1.36,5.41,1.93c1.83,0.57,3.67,1.07,5.54,1.5"/>
	<path class="st0" d="M461.6,493.9c2.57,0.37,5.14,0.68,7.72,0.92c2.58,0.24,5.17,0.42,7.76,0.53c2.59,0.11,5.18,0.16,7.78,0.14
		c2.59-0.02,5.19-0.1,7.77-0.25c2.59-0.15,5.17-0.36,7.75-0.64s5.15-0.62,7.71-1.03c2.56-0.41,5.11-0.88,7.65-1.41
		c2.54-0.54,5.06-1.14,7.57-1.8"/>
	<path class="st0" d="M476.09,498.23c2.78,0.19,5.56,0.3,8.34,0.35c2.78,0.04,5.57,0.02,8.35-0.08s5.56-0.27,8.33-0.5
		c2.77-0.24,5.54-0.55,8.3-0.92c2.76-0.38,5.5-0.83,8.24-1.34s5.46-1.1,8.16-1.76c2.7-0.65,5.39-1.38,8.06-2.17
		c2.67-0.79,5.32-1.65,7.94-2.58"/>
	<path class="st0" d="M351.97,375.24c3.5,1.16,6.97,2.41,10.41,3.74c3.44,1.34,6.84,2.76,10.21,4.27c3.37,1.51,6.69,3.11,9.98,4.79
		c3.28,1.68,6.53,3.44,9.72,5.29s6.34,3.77,9.44,5.78c3.1,2.01,6.14,4.09,9.13,6.25c2.99,2.16,5.93,4.4,8.8,6.71
		c2.88,2.31,5.69,4.7,8.44,7.15"/>
	<path class="st0" d="M372.79,382.79c3.18,2.89,6.39,5.75,9.63,8.57s6.5,5.62,9.8,8.38s6.61,5.49,9.96,8.19
		c3.35,2.7,6.72,5.36,10.11,8c3.4,2.63,6.82,5.23,10.27,7.8s6.92,5.1,10.42,7.6s7.02,4.96,10.56,7.39s7.11,4.82,10.7,7.18"/>
	<path class="st0" d="M360.57,374.87c4.99,3.4,9.96,6.82,14.91,10.28c4.95,3.45,9.88,6.93,14.79,10.44
		c4.91,3.51,9.8,7.04,14.68,10.61s9.73,7.15,14.56,10.77c4.83,3.62,9.64,7.26,14.44,10.93s9.56,7.37,14.31,11.09
		c4.75,3.72,9.48,7.48,14.19,11.25c4.71,3.78,9.4,7.58,14.06,11.41"/>
	<path class="st0" d="M314.98,322.34c-0.1,0.01-0.19,0.03-0.29,0.04c-0.1,0.01-0.19,0.03-0.29,0.04s-0.19,0.03-0.29,0.04
		s-0.19,0.03-0.29,0.04c-0.1,0.01-0.19,0.03-0.29,0.04s-0.19,0.03-0.29,0.04s-0.19,0.03-0.29,0.04c-0.1,0.01-0.19,0.03-0.29,0.04
		c2.78-2.11,5.61-4.16,8.49-6.15c2.87-1.99,5.79-3.92,8.74-5.78c2.95-1.86,5.95-3.67,8.98-5.4c3.03-1.74,6.1-3.41,9.2-5.01
		c3.1-1.61,6.24-3.14,9.41-4.62c3.17-1.47,6.37-2.87,9.6-4.21c3.23-1.33,6.49-2.6,9.77-3.79c3.28-1.19,6.59-2.32,9.93-3.37"/>
	<path class="st0" d="M373.82,288.27c3.16-1.63,6.36-3.17,9.61-4.62s6.53-2.8,9.86-4.06s6.68-2.42,10.08-3.48
		c3.39-1.06,6.81-2.03,10.26-2.9c3.45-0.87,6.92-1.64,10.41-2.31s7-1.24,10.52-1.71c3.52-0.47,7.06-0.83,10.6-1.1
		c3.54-0.26,7.1-0.42,10.65-0.48"/>
	<path class="st0" d="M396.99,276.58c3.62-1.26,7.29-2.39,11-3.39c3.7-1,7.44-1.87,11.21-2.6s7.56-1.34,11.37-1.81
		c3.81-0.47,7.63-0.81,11.46-1.02c3.83-0.21,7.67-0.28,11.51-0.22c3.84,0.06,7.67,0.25,11.49,0.58s7.64,0.79,11.43,1.38
		c3.79,0.59,7.56,1.32,11.3,2.19"/>
	<path class="st0" d="M405.58,271.84c4.51-1.45,9.07-2.7,13.68-3.77c4.61-1.07,9.26-1.95,13.94-2.63c4.68-0.69,9.39-1.19,14.11-1.5
		c4.72-0.31,9.45-0.43,14.19-0.36c4.73,0.07,9.46,0.33,14.17,0.77c4.71,0.45,9.4,1.08,14.06,1.91s9.28,1.84,13.86,3.04
		c4.58,1.2,9.1,2.59,13.56,4.17"/>
	<path class="st0" d="M453.54,266.58c3.79-0.06,7.58,0.04,11.36,0.28c3.78,0.24,7.55,0.62,11.31,1.15c3.75,0.53,7.49,1.2,11.19,2.01
		s7.37,1.76,11.01,2.85c3.63,1.09,7.22,2.31,10.76,3.67s7.03,2.85,10.45,4.47c3.43,1.62,6.79,3.37,10.08,5.25
		c3.29,1.88,6.51,3.89,9.64,6.02"/>
	<path class="st0" d="M518.36,278.9c3.14,1.41,6.24,2.87,9.33,4.39c3.08,1.52,6.14,3.09,9.17,4.72c3.03,1.63,6.03,3.31,9,5.04
		c2.97,1.73,5.91,3.52,8.81,5.36c2.91,1.84,5.78,3.72,8.62,5.66c2.84,1.94,5.64,3.93,8.41,5.96c2.77,2.04,5.5,4.12,8.2,6.26
		s5.35,4.31,7.97,6.54"/>
	<path class="st0" d="M691.76,408.78c-3.91-2.21-7.78-4.48-11.62-6.81s-7.64-4.72-11.41-7.16c-3.77-2.45-7.49-4.95-11.18-7.51
		c-3.69-2.56-7.34-5.18-10.94-7.85s-7.17-5.4-10.7-8.18c-3.52-2.78-7.01-5.62-10.44-8.5s-6.83-5.83-10.18-8.82s-6.65-6.04-9.9-9.13"
		/>
	<path class="st0" d="M689.74,417.47c-3.2,2.42-6.46,4.76-9.78,7.02s-6.68,4.44-10.1,6.54s-6.89,4.11-10.41,6.04
		c-3.52,1.93-7.08,3.77-10.69,5.53c-3.61,1.76-7.25,3.43-10.94,5.01c-3.69,1.58-7.41,3.08-11.17,4.48
		c-3.76,1.4-7.55,2.72-11.37,3.94c-3.82,1.22-7.67,2.35-11.55,3.38"/>
	<path class="st0" d="M499.73,449.93c3.69,1.17,7.41,2.25,11.14,3.26c3.74,1.01,7.5,1.93,11.27,2.77s7.57,1.61,11.38,2.28
		c3.81,0.68,7.63,1.28,11.47,1.79s7.68,0.95,11.54,1.3c3.85,0.35,7.72,0.62,11.58,0.8s7.74,0.29,11.61,0.3
		c3.87,0.02,7.74-0.05,11.61-0.2"/>
	<path class="st0" d="M418.33,390.64c3.1,3.51,6.32,6.91,9.65,10.19c3.33,3.29,6.77,6.47,10.31,9.52c3.54,3.06,7.19,6,10.92,8.82
		c3.74,2.82,7.57,5.52,11.48,8.08s7.91,5.01,11.99,7.31s8.22,4.48,12.44,6.51c4.22,2.03,8.5,3.92,12.84,5.67
		c4.34,1.75,8.74,3.35,13.2,4.79"/>
	<path class="st0" d="M597.17,336.12c-1.59-1.92-3.22-3.8-4.92-5.63c-1.69-1.83-3.43-3.61-5.23-5.34c-1.79-1.73-3.63-3.41-5.52-5.04
		c-1.89-1.63-3.82-3.2-5.79-4.72c-1.97-1.52-3.99-2.99-6.04-4.39c-2.05-1.41-4.15-2.76-6.28-4.05c-2.13-1.29-4.3-2.52-6.5-3.69
		c-2.2-1.17-4.43-2.28-6.69-3.32"/>
	<path class="st0" d="M583.84,323.82c-2.81-2.26-5.65-4.48-8.52-6.67s-5.76-4.35-8.68-6.47s-5.86-4.21-8.83-6.25
		s-5.96-4.06-8.98-6.04c-3.02-1.98-6.06-3.92-9.13-5.82c-3.07-1.9-6.15-3.77-9.26-5.6c-3.11-1.83-6.24-3.62-9.4-5.38
		c-3.15-1.75-6.33-3.47-9.52-5.15"/>
	<path class="st0" d="M542.05,289.92c-1.89-1.48-3.82-2.89-5.8-4.25c-1.98-1.36-3.99-2.65-6.05-3.89c-2.05-1.23-4.15-2.41-6.27-3.51
		s-4.28-2.15-6.47-3.13s-4.41-1.89-6.65-2.74c-2.24-0.85-4.51-1.63-6.8-2.33c-2.29-0.71-4.6-1.35-6.93-1.92
		c-2.33-0.57-4.68-1.07-7.04-1.49"/>
	<path class="st0" d="M525.22,281.86c-1.58-1.28-3.22-2.43-4.93-3.47c-1.71-1.04-3.47-1.97-5.29-2.8s-3.68-1.56-5.58-2.21
		c-1.9-0.65-3.84-1.22-5.81-1.72c-1.97-0.5-3.97-0.94-5.98-1.32s-4.04-0.72-6.08-1.01c-2.04-0.3-4.08-0.55-6.12-0.79
		c-2.04-0.24-4.07-0.45-6.09-0.66"/>
	<path class="st0" d="M382.74,281.38c-2.68,1.4-5.36,2.8-8.04,4.21c-2.68,1.4-5.36,2.81-8.04,4.21s-5.36,2.81-8.03,4.21
		s-5.36,2.81-8.03,4.21c-2.68,1.4-5.36,2.81-8.03,4.21s-5.36,2.81-8.03,4.21s-5.36,2.81-8.04,4.21c-2.68,1.4-5.36,2.81-8.04,4.21"/>
	<path class="st0" d="M359.46,377.47c2.7,1.25,5.38,2.52,8.06,3.82c2.67,1.3,5.34,2.62,7.99,3.97c2.65,1.35,5.29,2.72,7.91,4.11
		c2.63,1.39,5.24,2.81,7.84,4.25c2.6,1.44,5.19,2.9,7.76,4.39c2.57,1.49,5.13,3,7.68,4.53s5.08,3.09,7.6,4.67
		c2.52,1.58,5.02,3.18,7.51,4.8"/>
	<path class="st0" d="M403.24,403.33c3.5,2.83,6.99,5.66,10.49,8.49c3.5,2.83,6.99,5.66,10.49,8.49c3.5,2.83,6.99,5.66,10.49,8.49
		s6.99,5.66,10.49,8.49c3.5,2.83,6.99,5.66,10.49,8.49s6.99,5.66,10.49,8.49c3.5,2.83,6.99,5.66,10.49,8.49
		c3.5,2.83,6.99,5.66,10.49,8.49"/>
	<path class="st0" d="M440.74,438.96c3.04,2.69,6.17,5.28,9.38,7.77c3.21,2.49,6.5,4.88,9.86,7.16s6.79,4.46,10.29,6.53
		c3.5,2.07,7.06,4.03,10.67,5.88c3.62,1.85,7.29,3.58,11.02,5.2c3.73,1.62,7.5,3.12,11.32,4.5c3.82,1.38,7.68,2.65,11.58,3.79
		c3.9,1.14,7.83,2.16,11.8,3.04"/>
	<path class="st0" d="M515.56,480.44c3.25,1.55,6.58,2.93,9.97,4.13s6.85,2.22,10.34,3.06c3.5,0.84,7.04,1.51,10.61,1.99
		c3.57,0.49,7.16,0.79,10.76,0.92c3.6,0.13,7.2,0.07,10.79-0.16c3.59-0.23,7.17-0.65,10.72-1.24s7.07-1.37,10.53-2.33
		s6.89-2.1,10.24-3.42"/>
	<path class="st0" d="M566.63,485.8c3.18,0.17,6.36,0.25,9.55,0.23c3.18-0.02,6.36-0.14,9.54-0.35c3.18-0.21,6.35-0.52,9.5-0.92
		s6.3-0.89,9.43-1.48s6.24-1.27,9.33-2.04c3.09-0.77,6.15-1.64,9.19-2.59c3.04-0.95,6.04-2,9.02-3.14c2.97-1.14,5.91-2.36,8.81-3.67
		"/>
	<path class="st0" d="M630.03,471.35c2.79-0.82,5.56-1.72,8.31-2.69c2.74-0.97,5.46-2.01,8.15-3.13s5.35-2.3,7.97-3.56
		c2.63-1.26,5.22-2.58,7.77-3.98s5.07-2.85,7.55-4.38c2.48-1.53,4.92-3.12,7.31-4.77c2.39-1.66,4.74-3.38,7.04-5.16
		c2.3-1.78,4.56-3.62,6.76-5.53"/>
	<path class="st0" d="M683.1,446.45c1.05-0.87,2.09-1.74,3.14-2.62c1.05-0.87,2.09-1.74,3.14-2.62c1.05-0.87,2.09-1.74,3.14-2.62
		s2.09-1.74,3.14-2.62c1.05-0.87,2.09-1.74,3.14-2.62c1.05-0.87,2.09-1.74,3.14-2.62c1.05-0.87,2.09-1.74,3.14-2.62
		c1.05-0.87,2.09-1.74,3.14-2.62"/>
	<path class="st0" d="M143.5,241.81c-0.98-0.15-1.97-0.26-2.96-0.33c-0.99-0.07-1.99-0.09-2.98-0.08c-0.99,0.01-1.99,0.07-2.98,0.16
		s-1.97,0.23-2.95,0.4c-0.98,0.17-1.95,0.39-2.91,0.64c-0.96,0.25-1.91,0.54-2.85,0.87c-0.94,0.33-1.86,0.7-2.77,1.1
		s-1.8,0.85-2.67,1.33c-0.87,0.48-1.72,1-2.55,1.55s-1.64,1.14-2.43,1.77s-1.56,1.28-2.3,1.98c-0.75,0.69-1.48,1.42-2.18,2.19
		c-0.71,0.76-1.4,1.56-2.07,2.4s-1.32,1.7-1.95,2.6c-0.63,0.9-1.24,1.83-1.83,2.8c-0.59,0.97-1.16,1.96-1.72,3
		c-0.7,1.95-1.29,3.95-1.76,5.97s-0.82,4.07-1.05,6.13s-0.35,4.13-0.36,6.21s0.1,4.15,0.33,6.21c0.22,2.06,0.56,4.11,1,6.14
		c0.45,2.03,1.01,4.03,1.67,5.99c0.67,1.96,1.45,3.89,2.34,5.76c0.89,1.87,1.88,3.69,2.99,5.45c1.1,1.76,2.31,3.45,3.62,5.06
		s2.7,3.15,4.18,4.6s3.04,2.83,4.67,4.11s3.33,2.47,5.1,3.57s3.59,2.09,5.46,2.99c1.87,0.9,3.79,1.69,5.75,2.37
		c1.96,0.68,3.96,1.25,5.98,1.71c2.02,0.45,4.07,0.79,6.14,1"/>
	<path class="st0" d="M155.01,338.08c1.31,0.48,2.63,0.89,3.97,1.24c1.34,0.35,2.69,0.64,4.05,0.86s2.74,0.4,4.12,0.51
		c1.38,0.11,2.77,0.18,4.16,0.18c1.39,0.01,2.78-0.03,4.17-0.12c1.39-0.09,2.78-0.22,4.17-0.4s2.77-0.4,4.14-0.65
		s2.73-0.55,4.08-0.88s2.69-0.69,4.02-1.08s2.65-0.81,3.97-1.26c1.31-0.44,2.62-0.91,3.92-1.4s2.59-1,3.88-1.52
		c1.29-0.53,2.57-1.07,3.85-1.62c1.28-0.55,2.55-1.12,3.82-1.69s2.53-1.15,3.8-1.74c1.26-0.58,2.52-1.17,3.78-1.76"/>
	<path class="st0" d="M226.02,326.82c1.01,0.23,2.01,0.51,2.98,0.86c0.97,0.35,1.92,0.75,2.84,1.21c0.92,0.46,1.82,0.96,2.69,1.52
		s1.72,1.15,2.53,1.79c0.82,0.64,1.61,1.32,2.37,2.03s1.5,1.46,2.2,2.24c0.7,0.78,1.38,1.58,2.02,2.4c0.64,0.83,1.25,1.67,1.83,2.54
		s1.12,1.74,1.65,2.64c0.52,0.89,1.02,1.8,1.49,2.72c0.47,0.92,0.93,1.85,1.36,2.79c0.43,0.94,0.85,1.89,1.25,2.85
		c0.4,0.96,0.79,1.92,1.16,2.89s0.74,1.95,1.1,2.92c0.36,0.98,0.71,1.96,1.05,2.94c0.34,0.98,0.69,1.96,1.03,2.95"/>
	<path class="st0" d="M191.99,282.92c0.45,1.12,0.99,2.19,1.61,3.22s1.33,1.99,2.11,2.91c0.78,0.91,1.63,1.77,2.54,2.55
		c0.91,0.79,1.88,1.51,2.89,2.15c1.02,0.64,2.08,1.22,3.18,1.7s2.23,0.9,3.39,1.21c1.16,0.32,2.34,0.54,3.53,0.68
		c1.19,0.13,2.39,0.16,3.6,0.09"/>
	<path class="st0" d="M142.08,239.98c-2.44,0.19-4.85,0.58-7.22,1.14s-4.7,1.29-6.97,2.19c-2.27,0.89-4.47,1.95-6.6,3.15
		s-4.17,2.55-6.11,4.03c-1.94,1.48-3.79,3.09-5.51,4.81c-1.72,1.73-3.33,3.57-4.8,5.51c-1.47,1.94-2.8,3.99-3.97,6.13
		s-2.19,4.36-3.02,6.65"/>
	<path class="st0" d="M97.49,280.57c0.02,1.8,0.13,3.6,0.32,5.39s0.47,3.57,0.84,5.34c0.36,1.77,0.81,3.51,1.33,5.24
		s1.13,3.43,1.81,5.09c0.68,1.67,1.44,3.31,2.27,4.91s1.74,3.16,2.71,4.68c0.98,1.52,2.02,2.98,3.14,4.4s2.3,2.78,3.55,4.08"/>
	<path class="st0" d="M125.53,328.28c0.58,0.4,1.17,0.79,1.76,1.17s1.2,0.75,1.8,1.11s1.22,0.71,1.84,1.05
		c0.62,0.34,1.24,0.67,1.87,0.99s1.27,0.62,1.91,0.92c0.64,0.3,1.29,0.58,1.94,0.86c0.65,0.27,1.31,0.54,1.96,0.79
		c0.66,0.25,1.32,0.49,1.99,0.72"/>
	<path class="st0" d="M99.68,279.73c1.04,1.11,2.13,2.18,3.25,3.21c1.13,1.02,2.3,2,3.5,2.93c1.21,0.93,2.45,1.81,3.73,2.64
		c1.28,0.83,2.59,1.61,3.93,2.34c1.34,0.73,2.71,1.4,4.1,2.02c1.39,0.62,2.81,1.18,4.25,1.68c1.44,0.5,2.9,0.95,4.37,1.33
		c1.47,0.39,2.96,0.71,4.46,0.97"/>
	<path class="st0" d="M124.12,292.62c1.42,0.74,2.87,1.43,4.34,2.07c1.47,0.64,2.96,1.23,4.47,1.77c1.51,0.54,3.04,1.02,4.58,1.46
		c1.54,0.43,3.1,0.82,4.67,1.15c1.57,0.33,3.15,0.61,4.73,0.83s3.18,0.4,4.78,0.51s3.2,0.18,4.8,0.19c1.6,0.01,3.21-0.04,4.81-0.14"
		/>
	<path class="st0" d="M101.3,280.16c3,2.25,6.14,4.31,9.38,6.18c3.25,1.86,6.61,3.53,10.06,4.99c3.45,1.46,6.98,2.73,10.58,3.78
		c3.6,1.06,7.25,1.91,10.95,2.54s7.43,1.07,11.17,1.28c3.74,0.21,7.5,0.21,11.24-0.01s7.47-0.66,11.15-1.32
		c3.69-0.66,7.33-1.55,10.92-2.67"/>
	<path class="st0" d="M151.91,299.23c1.56,0.17,3.12,0.29,4.69,0.35c1.57,0.06,3.13,0.07,4.7,0.02c1.57-0.05,3.13-0.15,4.69-0.31
		c1.56-0.16,3.11-0.37,4.66-0.64c1.54-0.27,3.08-0.59,4.6-0.96c1.52-0.37,3.03-0.8,4.52-1.27c1.49-0.48,2.97-1.01,4.42-1.59
		s2.89-1.21,4.3-1.9"/>
	<path class="st0" d="M191.93,284.09c-0.08,0.19-0.15,0.38-0.2,0.58s-0.09,0.4-0.11,0.6c-0.02,0.2-0.04,0.4-0.04,0.61
		c0,0.2,0.01,0.41,0.04,0.61c0.02,0.2,0.06,0.41,0.1,0.61c0.05,0.2,0.1,0.4,0.17,0.6c0.07,0.2,0.14,0.39,0.22,0.58
		c0.08,0.19,0.18,0.37,0.28,0.55s0.21,0.35,0.32,0.52s0.23,0.34,0.36,0.5c0.12,0.16,0.26,0.32,0.39,0.47
		c0.13,0.15,0.27,0.3,0.42,0.45c0.14,0.15,0.29,0.29,0.44,0.43c0.15,0.14,0.3,0.28,0.46,0.41c0.16,0.13,0.31,0.27,0.47,0.4
		c0.16,0.13,0.32,0.26,0.48,0.38c0.66,0.51,1.33,1,2.02,1.47c0.69,0.46,1.4,0.9,2.12,1.32c0.72,0.41,1.46,0.8,2.21,1.16
		s1.51,0.7,2.29,1.01c0.77,0.31,1.56,0.59,2.35,0.85s1.59,0.48,2.4,0.68s1.62,0.37,2.44,0.51c0.82,0.14,1.65,0.25,2.47,0.33"/>
	<path class="st0" d="M193.35,288.48c0.34,0.42,0.69,0.82,1.06,1.21s0.74,0.77,1.14,1.13c0.39,0.37,0.8,0.72,1.21,1.06
		c0.42,0.34,0.84,0.66,1.28,0.97c0.44,0.31,0.88,0.61,1.34,0.89s0.92,0.55,1.4,0.79c0.47,0.25,0.96,0.48,1.45,0.7
		c0.49,0.22,0.99,0.42,1.49,0.6"/>
	<path class="st0" d="M185.94,203.62c1.24,1.02,2.55,1.97,3.9,2.83s2.77,1.64,4.21,2.33c1.45,0.69,2.94,1.3,4.46,1.82
		c1.52,0.52,3.07,0.96,4.64,1.3c1.57,0.35,3.16,0.6,4.76,0.77c1.6,0.16,3.21,0.24,4.81,0.21c1.61-0.02,3.21-0.14,4.8-0.35
		s3.17-0.52,4.73-0.93"/>
	<path class="st0" d="M140.6,239.84c1.03-1.99,2.16-3.94,3.36-5.83c1.2-1.89,2.49-3.73,3.85-5.52c1.36-1.78,2.8-3.51,4.31-5.17
		c1.51-1.66,3.08-3.26,4.73-4.79c1.64-1.53,3.35-2.99,5.11-4.38c1.76-1.39,3.59-2.7,5.46-3.93s3.8-2.39,5.77-3.46
		s3.99-2.05,6.05-2.94s4.16-1.69,6.29-2.4c2.13-0.71,4.29-1.33,6.47-1.85s4.39-0.96,6.6-1.29c2.22-0.34,4.45-0.58,6.69-0.73
		c2.24-0.15,4.48-0.21,6.73-0.17c2.24,0.04,4.49,0.17,6.72,0.39s4.45,0.55,6.66,0.96s4.39,0.93,6.55,1.54"/>
	<path class="st0" d="M241.56,204.83c3.6,1.91,7.06,4.08,10.34,6.47c3.29,2.39,6.4,5.02,9.34,7.84c2.93,2.82,5.68,5.84,8.22,9.02
		c2.54,3.18,4.88,6.53,6.99,10.02c2.11,3.48,4,7.1,5.65,10.83c1.65,3.73,3.05,7.55,4.2,11.46c1.14,3.9,2.03,7.88,2.63,11.9
		c0.6,4.02,0.93,8.09,0.95,12.16"/>
	<path class="st0" d="M271.59,228.85c-1.53-1.85-3.12-3.65-4.77-5.39s-3.36-3.42-5.13-5.04c-1.77-1.62-3.59-3.18-5.47-4.68
		c-1.87-1.5-3.8-2.93-5.77-4.3s-3.99-2.67-6.05-3.9c-2.06-1.23-4.16-2.39-6.3-3.48c-2.14-1.09-4.31-2.1-6.52-3.04
		c-2.21-0.94-4.45-1.8-6.72-2.58"/>
	<path class="st0" d="M137.75,239.67c0.46-0.78,0.92-1.55,1.41-2.31c0.48-0.76,0.98-1.52,1.49-2.26s1.03-1.48,1.56-2.21
		s1.08-1.45,1.64-2.15s1.13-1.41,1.71-2.1c0.58-0.69,1.18-1.37,1.78-2.04c0.61-0.67,1.22-1.33,1.85-1.97
		c0.63-0.65,1.27-1.28,1.92-1.91"/>
	<path class="st0" d="M158.55,215.59c2.11-2.04,4.35-3.93,6.7-5.66c2.35-1.74,4.82-3.32,7.38-4.74s5.2-2.68,7.92-3.78
		c2.72-1.1,5.5-2.03,8.33-2.79c2.83-0.76,5.71-1.35,8.61-1.76c2.9-0.41,5.82-0.64,8.75-0.69s5.85,0.08,8.76,0.41
		c2.91,0.32,5.79,0.84,8.64,1.54"/>
	<path class="st0" d="M203.9,250.93c-0.38,0.04-0.77,0.06-1.15,0.04c-0.38-0.02-0.76-0.06-1.13-0.13c-0.37-0.07-0.75-0.16-1.11-0.28
		c-0.36-0.12-0.72-0.26-1.07-0.42c-0.35-0.16-0.69-0.35-1.02-0.55c-0.33-0.2-0.65-0.42-0.96-0.66c-0.31-0.24-0.61-0.49-0.89-0.75
		c-0.28-0.27-0.55-0.54-0.81-0.83c-0.26-0.29-0.5-0.59-0.73-0.9s-0.45-0.62-0.65-0.95c-0.21-0.32-0.4-0.66-0.59-0.99
		s-0.36-0.68-0.53-1.03c-0.17-0.35-0.32-0.7-0.47-1.06c-0.15-0.36-0.29-0.72-0.43-1.08s-0.27-0.73-0.39-1.1s-0.24-0.74-0.36-1.1
		c-0.47-1.49-0.87-3.02-1.2-4.57c-0.33-1.55-0.59-3.12-0.76-4.7c-0.17-1.58-0.26-3.18-0.26-4.77s0.1-3.19,0.3-4.77
		s0.51-3.15,0.93-4.7c0.42-1.55,0.95-3.07,1.61-4.56c0.66-1.49,1.44-2.95,2.36-4.36c0.92-1.41,1.98-2.77,3.18-4.08
		c0.47-0.43,0.98-0.82,1.51-1.16s1.09-0.64,1.67-0.89c0.58-0.25,1.18-0.46,1.79-0.63s1.24-0.29,1.88-0.37
		c0.63-0.08,1.28-0.12,1.92-0.11c0.64,0.01,1.28,0.05,1.92,0.15s1.27,0.22,1.88,0.4c0.62,0.17,1.22,0.39,1.81,0.65
		s1.15,0.55,1.7,0.88c0.54,0.33,1.07,0.69,1.57,1.07c0.5,0.39,0.98,0.81,1.44,1.25c0.46,0.44,0.89,0.91,1.3,1.4s0.8,1,1.16,1.54
		s0.69,1.08,1,1.65c0.31,0.56,0.59,1.14,0.84,1.73s0.48,1.19,0.67,1.8s0.36,1.22,0.51,1.85c0.14,0.62,0.26,1.25,0.35,1.88
		c0.09,0.63,0.16,1.26,0.21,1.9s0.07,1.28,0.07,1.92c0,0.64-0.02,1.28-0.06,1.92c-0.04,0.64-0.1,1.28-0.17,1.92
		c-0.08,0.64-0.17,1.27-0.28,1.91c-0.11,0.63-0.24,1.26-0.38,1.88"/>
	<path class="st0" d="M176.53,203.79c-0.1-0.47-0.24-0.93-0.42-1.38c-0.18-0.44-0.4-0.87-0.65-1.28c-0.25-0.41-0.54-0.79-0.86-1.16
		s-0.66-0.7-1.03-1.01s-0.76-0.59-1.18-0.83c-0.41-0.25-0.85-0.46-1.29-0.63c-0.45-0.18-0.91-0.31-1.38-0.41
		c-0.47-0.1-0.95-0.15-1.43-0.16s-0.96,0.03-1.44,0.11c-0.47,0.08-0.94,0.2-1.39,0.36c-0.45,0.16-0.89,0.35-1.32,0.58
		s-0.83,0.49-1.21,0.79s-0.74,0.62-1.07,0.97c-0.33,0.35-0.63,0.72-0.9,1.12c-0.27,0.4-0.5,0.82-0.7,1.25s-0.35,0.89-0.47,1.36"/>
	<path class="st0" d="M223.53,326.09c0.24-0.17,0.49-0.31,0.74-0.44c0.26-0.13,0.52-0.24,0.8-0.32c0.27-0.09,0.55-0.16,0.84-0.21
		s0.57-0.09,0.86-0.11c0.29-0.02,0.58-0.02,0.88-0.01c0.29,0.01,0.59,0.04,0.88,0.09s0.58,0.11,0.86,0.18
		c0.28,0.07,0.56,0.16,0.84,0.26s0.54,0.21,0.8,0.34c0.26,0.12,0.52,0.26,0.77,0.4c0.25,0.14,0.5,0.29,0.74,0.45
		c0.24,0.16,0.48,0.32,0.72,0.5s0.47,0.35,0.69,0.53c0.23,0.18,0.45,0.37,0.67,0.56s0.44,0.39,0.65,0.59
		c0.21,0.2,0.43,0.4,0.63,0.61c1.27,1.24,2.48,2.54,3.61,3.89c1.13,1.35,2.2,2.75,3.21,4.2c1.01,1.45,1.96,2.93,2.87,4.46
		c0.91,1.52,1.76,3.08,2.58,4.66s1.59,3.19,2.34,4.82s1.46,3.27,2.15,4.93c0.69,1.66,1.36,3.32,2.02,4.99s1.3,3.33,1.94,5"/>
	<path class="st0" d="M261.83,381.63c0.71,2.42,1.47,4.82,2.28,7.2c0.81,2.38,1.67,4.75,2.57,7.1c0.91,2.35,1.86,4.68,2.86,6.99
		c1,2.31,2.05,4.6,3.15,6.86c1.1,2.26,2.24,4.51,3.43,6.73c1.19,2.22,2.42,4.41,3.7,6.58s2.6,4.31,3.97,6.42
		c1.37,2.11,2.78,4.19,4.24,6.25"/>
	<path class="st0" d="M293.16,441.95c1.23,1.98,2.54,3.9,3.93,5.76c1.39,1.86,2.86,3.67,4.4,5.41c1.54,1.74,3.16,3.42,4.84,5.02
		c1.68,1.61,3.43,3.15,5.23,4.61c1.81,1.46,3.67,2.85,5.59,4.17s3.89,2.54,5.92,3.69s4.09,2.21,6.2,3.19s4.26,1.86,6.45,2.65"/>
	<path class="st0" d="M329.19,469.9c1.04,0.85,2.11,1.66,3.2,2.45s2.2,1.54,3.34,2.26c1.13,0.72,2.29,1.41,3.46,2.07
		c1.17,0.66,2.36,1.28,3.57,1.87s2.43,1.15,3.67,1.67c1.24,0.52,2.49,1.01,3.76,1.46s2.54,0.87,3.83,1.24s2.59,0.72,3.9,1.02"/>
	<path class="st0" d="M348.44,380.05c-0.11,1.4-0.22,2.8-0.33,4.2c-0.11,1.4-0.22,2.8-0.33,4.2c-0.11,1.4-0.22,2.8-0.33,4.2
		c-0.11,1.4-0.22,2.8-0.33,4.2c-0.11,1.4-0.22,2.8-0.33,4.2c-0.11,1.4-0.22,2.8-0.33,4.2c-0.11,1.4-0.22,2.8-0.33,4.2
		c-0.11,1.4-0.22,2.8-0.33,4.2"/>
	<path class="st0" d="M311.82,321.33c3.57-2.82,7.22-5.55,10.95-8.16c3.73-2.62,7.52-5.13,11.39-7.53c3.87-2.4,7.8-4.7,11.79-6.88
		c3.99-2.18,8.05-4.26,12.16-6.21c4.11-1.96,8.27-3.8,12.49-5.53c4.21-1.73,8.47-3.33,12.77-4.82c4.3-1.49,8.65-2.86,13.02-4.1
		c4.38-1.24,8.79-2.36,13.23-3.36"/>
	<path class="st0" d="M276.59,236.65c0.92,3.94,1.88,7.87,2.9,11.78c1.02,3.91,2.08,7.82,3.2,11.7c1.12,3.89,2.28,7.76,3.5,11.62
		c1.22,3.86,2.48,7.7,3.8,11.52c1.32,3.82,2.68,7.63,4.1,11.42c1.41,3.79,2.88,7.56,4.39,11.31s3.07,7.48,4.68,11.2
		s3.26,7.4,4.97,11.07"/>
	<path class="st0" d="M582.79,490.68c1.35,2.07,2.82,4.06,4.38,5.98c1.56,1.91,3.22,3.75,4.97,5.49c1.75,1.75,3.58,3.41,5.49,4.97
		c1.91,1.56,3.9,3.04,5.96,4.4c2.06,1.37,4.18,2.64,6.36,3.8c2.18,1.16,4.42,2.21,6.7,3.15c2.28,0.94,4.62,1.76,6.98,2.46
		s4.77,1.28,7.2,1.73s4.88,0.77,7.34,0.97c2.46,0.2,4.93,0.26,7.4,0.21c2.47-0.06,4.94-0.23,7.39-0.54c2.45-0.3,4.89-0.72,7.3-1.26
		c2.41-0.54,4.8-1.2,7.14-1.97c2.35-0.77,4.65-1.67,6.91-2.67c2.26-1,4.46-2.12,6.61-3.35c2.14-1.23,4.22-2.56,6.23-4.01"/>
	<path class="st0" d="M659.19,463.48c2.01-1.32,4.02-2.65,6.02-3.99c2-1.34,4-2.69,5.99-4.05c1.99-1.36,3.97-2.72,5.95-4.1
		c1.98-1.38,3.95-2.76,5.91-4.15c1.97-1.39,3.92-2.79,5.88-4.2s3.9-2.83,5.84-4.25c1.94-1.43,3.88-2.86,5.8-4.3
		c1.93-1.44,3.85-2.9,5.77-4.36"/>
	<path class="st0" d="M176.11,204.6c-0.06-0.48-0.18-0.93-0.35-1.37c-0.17-0.43-0.39-0.85-0.65-1.23c-0.26-0.39-0.57-0.75-0.9-1.08
		c-0.34-0.33-0.71-0.63-1.11-0.9c-0.4-0.27-0.82-0.5-1.26-0.7c-0.44-0.2-0.9-0.36-1.37-0.48c-0.47-0.12-0.95-0.2-1.43-0.24
		c-0.48-0.04-0.96-0.03-1.44,0.02s-0.94,0.14-1.4,0.27s-0.9,0.28-1.34,0.47c-0.43,0.19-0.86,0.41-1.27,0.65
		c-0.41,0.24-0.8,0.52-1.18,0.81c-0.38,0.29-0.75,0.61-1.1,0.95c-0.35,0.34-0.68,0.69-1,1.06c-0.32,0.37-0.61,0.75-0.89,1.15
		c-0.28,0.4-0.54,0.8-0.78,1.22s-0.46,0.84-0.67,1.27c-0.21,0.43-0.4,0.87-0.58,1.31c-0.18,0.44-0.34,0.89-0.5,1.35
		c-0.15,0.45-0.3,0.91-0.43,1.37c-0.13,0.46-0.26,0.93-0.38,1.39c-0.12,0.47-0.23,0.94-0.34,1.41c-0.11,0.47-0.21,0.94-0.31,1.41
		c-0.1,0.47-0.2,0.94-0.29,1.41"/>
	<path class="st0" d="M264.54,385.14c-2.2,1.54-4.4,3.07-6.61,4.6c-2.2,1.53-4.4,3.07-6.61,4.6s-4.4,3.07-6.61,4.6
		s-4.4,3.07-6.61,4.6c-2.2,1.53-4.41,3.07-6.61,4.6s-4.4,3.07-6.61,4.6s-4.4,3.07-6.61,4.6c-2.2,1.53-4.4,3.07-6.61,4.6
		c-1.11,0.77-2.23,1.56-3.34,2.38c-1.11,0.82-2.22,1.66-3.3,2.54c-1.08,0.87-2.14,1.78-3.15,2.71s-1.98,1.9-2.89,2.91
		c-0.91,1-1.75,2.04-2.51,3.12c-0.76,1.08-1.44,2.2-2.02,3.36c-0.58,1.16-1.05,2.37-1.41,3.62c-0.35,1.25-0.59,2.55-0.68,3.89"/>
	<path class="st0" d="M460.75,315c-1.32-0.44-2.66-0.77-4.01-1c-1.35-0.23-2.72-0.37-4.09-0.41c-1.37-0.04-2.75,0.01-4.12,0.14
		c-1.37,0.14-2.74,0.36-4.09,0.66s-2.69,0.69-4.01,1.15c-1.32,0.46-2.61,0.99-3.87,1.6c-1.26,0.6-2.49,1.27-3.67,2.01
		c-1.19,0.73-2.33,1.53-3.42,2.39s-2.14,1.76-3.14,2.71c-1,0.95-1.95,1.95-2.87,2.98c-0.91,1.04-1.78,2.11-2.6,3.22
		c-0.82,1.11-1.61,2.26-2.35,3.43c-0.74,1.17-1.44,2.38-2.1,3.6c-0.66,1.23-1.28,2.48-1.86,3.74c-0.58,1.27-1.12,2.55-1.63,3.85
		s-0.97,2.61-1.41,3.93s-0.83,2.64-1.2,3.98c-0.37,1.33-0.71,2.68-1.03,4.02c-0.32,1.35-0.61,2.7-0.88,4.06
		c-0.27,1.36-0.52,2.72-0.75,4.09c-0.23,1.37-0.45,2.74-0.65,4.11c-0.2,1.37-0.39,2.75-0.58,4.13c-0.18,1.38-0.36,2.76-0.53,4.14
		c-0.17,1.38-0.33,2.76-0.5,4.14"/>
	<path class="st0" d="M198.39,190.16c0.82-0.12,1.64-0.18,2.46-0.2c0.82-0.02,1.64,0.02,2.46,0.1c0.82,0.08,1.63,0.21,2.44,0.38
		c0.8,0.17,1.6,0.39,2.38,0.65c0.78,0.26,1.55,0.56,2.29,0.91c0.75,0.35,1.47,0.73,2.18,1.16c0.7,0.43,1.38,0.89,2.03,1.4
		c0.65,0.51,1.27,1.05,1.85,1.63"/>
	<path class="st0" d="M556.68,303c0.81,0.67,1.62,1.34,2.44,2.02s1.64,1.37,2.47,2.07s1.67,1.42,2.52,2.16
		c0.85,0.74,1.72,1.51,2.6,2.3c0.88,0.8,1.78,1.62,2.7,2.49c0.92,0.87,1.87,1.77,2.84,2.72c0.97,0.95,1.97,1.95,3,3
		c1.03,1.05,2.09,2.16,3.18,3.33c1.93,1.57,3.85,3.13,5.78,4.7c1.93,1.57,3.85,3.13,5.78,4.7c1.93,1.57,3.85,3.13,5.78,4.7
		c1.93,1.57,3.85,3.13,5.78,4.7c1.93,1.57,3.85,3.13,5.78,4.7c1.93,1.57,3.85,3.13,5.78,4.7c1.93,1.57,3.85,3.13,5.78,4.7
		c1.93,1.57,3.85,3.13,5.78,4.7"/>
	<path class="st0" d="M637.54,369.61c2.41,2.02,4.84,4.01,7.3,5.96c2.46,1.95,4.95,3.88,7.47,5.76c2.51,1.89,5.06,3.74,7.62,5.56
		c2.57,1.82,5.16,3.6,7.77,5.35s5.25,3.46,7.91,5.13s5.34,3.31,8.05,4.92c2.71,1.6,5.43,3.17,8.18,4.7s5.52,3.02,8.31,4.47"/>
	<path class="st0" d="M675.39,402.84c1.6,1.03,3.21,2.04,4.83,3.03c1.62,0.99,3.26,1.96,4.91,2.9c1.65,0.95,3.31,1.87,4.99,2.77
		c1.67,0.9,3.36,1.78,5.06,2.64c1.7,0.86,3.41,1.69,5.12,2.5c1.72,0.81,3.45,1.6,5.19,2.37c1.74,0.77,3.49,1.51,5.25,2.23
		c1.76,0.72,3.53,1.42,5.31,2.09"/>
</g>
<g id="Layer_3">
	<path class="st0" d="M448.82,267.22c0.22,1.78,0.53,3.54,0.94,5.28c0.41,1.74,0.91,3.46,1.49,5.15c0.59,1.69,1.26,3.35,2.01,4.97
		s1.59,3.21,2.51,4.75c0.92,1.54,1.91,3.03,2.97,4.47c1.06,1.44,2.2,2.82,3.41,4.14c1.2,1.32,2.48,2.58,3.81,3.77
		c1.34,1.19,2.73,2.31,4.19,3.35s2.97,2,4.53,2.88s3.16,1.68,4.8,2.39s3.32,1.34,5.03,1.88c1.71,0.54,3.44,1,5.19,1.36
		c1.75,0.37,3.52,0.65,5.3,0.84s3.57,0.29,5.36,0.3c1.79,0.01,3.58-0.08,5.36-0.26c1.78-0.18,3.55-0.45,5.3-0.82
		c1.51-0.32,3.03-0.73,4.52-1.22s2.96-1.08,4.4-1.74c1.43-0.66,2.82-1.41,4.16-2.24s2.61-1.73,3.81-2.71
		c1.2-0.98,2.32-2.03,3.35-3.16c1.03-1.13,1.96-2.32,2.77-3.59s1.51-2.6,2.08-4c0.57-1.4,1-2.86,1.28-4.38"/>
	<path class="st0" d="M389.47,279.95c0.35,1.1,0.77,2.17,1.24,3.22s1.01,2.08,1.59,3.07c0.59,0.99,1.23,1.96,1.92,2.88
		c0.69,0.92,1.43,1.81,2.22,2.65s1.62,1.63,2.49,2.38c0.87,0.74,1.79,1.43,2.75,2.06c0.96,0.63,1.95,1.2,2.98,1.71
		c1.03,0.5,2.09,0.94,3.18,1.31c1.09,0.36,2.21,0.65,3.34,0.85c1.13,0.2,2.28,0.33,3.44,0.37s2.31,0.01,3.46-0.1
		c1.15-0.11,2.29-0.3,3.41-0.57c1.12-0.27,2.22-0.61,3.28-1.02s2.1-0.91,3.09-1.48c0.99-0.57,1.94-1.21,2.82-1.92
		s1.72-1.5,2.49-2.36s1.45-1.79,2.05-2.77s1.11-2.01,1.54-3.08c0.43-1.07,0.76-2.17,1.01-3.3c0.25-1.12,0.41-2.27,0.47-3.42
		c0.07-1.15,0.04-2.3-0.08-3.43c-0.12-1.14-0.34-2.26-0.65-3.35c-0.31-1.09-0.72-2.15-1.24-3.17c-0.51-1.02-1.12-1.98-1.83-2.89"/>
	<path class="st0" d="M319.69,341.86c1.8-2.35,3.69-4.64,5.65-6.86c1.96-2.22,3.99-4.38,6.1-6.47c2.1-2.09,4.28-4.1,6.51-6.05
		s4.54-3.81,6.9-5.6c2.36-1.79,4.78-3.5,7.25-5.14c2.47-1.63,5-3.18,7.58-4.64c2.58-1.46,5.2-2.84,7.87-4.13
		c2.67-1.29,5.38-2.49,8.13-3.59c0.72-0.29,1.47-0.57,2.23-0.83c0.76-0.26,1.54-0.5,2.33-0.71c0.79-0.21,1.58-0.39,2.37-0.52
		c0.79-0.14,1.58-0.23,2.37-0.28c0.78-0.04,1.55-0.04,2.31,0.03c0.75,0.07,1.49,0.2,2.2,0.4c0.71,0.2,1.4,0.47,2.05,0.83
		c0.65,0.35,1.27,0.79,1.84,1.32c0.38,0.35,0.72,0.72,1.03,1.11c0.31,0.39,0.58,0.81,0.83,1.24c0.25,0.43,0.47,0.89,0.66,1.35
		c0.19,0.47,0.36,0.95,0.51,1.44s0.28,0.99,0.39,1.5c0.11,0.51,0.2,1.02,0.28,1.54c0.08,0.52,0.14,1.03,0.2,1.55
		c0.05,0.52,0.1,1.03,0.14,1.54c0.18,2.43,0.26,4.87,0.26,7.31c0,2.44-0.09,4.87-0.27,7.31c-0.18,2.43-0.44,4.86-0.79,7.27
		s-0.79,4.81-1.31,7.19s-1.13,4.74-1.82,7.08s-1.46,4.65-2.32,6.93c-0.86,2.28-1.79,4.53-2.81,6.75c-1.02,2.22-2.12,4.39-3.29,6.53"
		/>
	<path class="st0" d="M405.93,379.07c0.1-1.51,0.2-3.02,0.31-4.53s0.22-3.02,0.35-4.53s0.26-3.02,0.42-4.52
		c0.15-1.51,0.32-3.01,0.52-4.51s0.41-2.99,0.65-4.48c0.24-1.49,0.52-2.97,0.82-4.45c0.31-1.48,0.64-2.94,1.02-4.4
		c0.38-1.46,0.79-2.91,1.26-4.35c0.46-1.44,0.97-2.87,1.53-4.28c0.56-1.41,1.17-2.81,1.83-4.18c0.66-1.37,1.38-2.72,2.14-4.03
		c0.77-1.31,1.58-2.59,2.45-3.83c0.87-1.24,1.79-2.43,2.77-3.58c0.98-1.14,2-2.24,3.09-3.28s2.22-2.01,3.41-2.93
		c1.19-0.91,2.44-1.76,3.74-2.53s2.66-1.45,4.06-2.04c1.4-0.59,2.85-1.08,4.32-1.47c1.47-0.39,2.97-0.69,4.48-0.88
		c1.51-0.19,3.02-0.28,4.53-0.26c1.51,0.02,3.01,0.14,4.49,0.38c1.48,0.24,2.93,0.58,4.34,1.05c1.41,0.46,2.78,1.04,4.1,1.74
		c1.31,0.7,2.57,1.52,3.75,2.46c0.76,0.61,1.47,1.25,2.15,1.93c0.68,0.68,1.32,1.39,1.93,2.13c0.61,0.74,1.18,1.51,1.73,2.3
		c0.54,0.79,1.06,1.61,1.55,2.45s0.95,1.69,1.39,2.56c0.44,0.87,0.86,1.75,1.25,2.64s0.78,1.79,1.14,2.69
		c0.36,0.9,0.71,1.81,1.05,2.72c1.45,3.93,2.74,7.92,3.85,11.96c1.12,4.04,2.06,8.12,2.84,12.24c0.78,4.12,1.38,8.27,1.82,12.43
		c0.44,4.17,0.7,8.35,0.8,12.54c0.1,4.19,0.02,8.38-0.23,12.57s-0.66,8.36-1.25,12.5c-0.59,4.15-1.35,8.27-2.28,12.36
		c-0.93,4.08-2.03,8.13-3.31,12.12"/>
	<path class="st0" d="M502.99,444.07c-0.36-3.47-0.65-6.95-0.85-10.44c-0.2-3.48-0.32-6.97-0.37-10.46c-0.04-3.49,0-6.98,0.12-10.47
		c0.12-3.49,0.32-6.97,0.6-10.45s0.64-6.95,1.08-10.42s0.96-6.92,1.55-10.35s1.27-6.86,2.03-10.27s1.59-6.8,2.5-10.17
		c0.33-1.23,0.7-2.48,1.1-3.73c0.4-1.25,0.84-2.5,1.31-3.73c0.48-1.23,1-2.44,1.57-3.62s1.19-2.32,1.86-3.41
		c0.67-1.09,1.4-2.13,2.19-3.09s1.64-1.86,2.56-2.67c0.92-0.81,1.91-1.52,2.97-2.14c1.06-0.61,2.2-1.12,3.42-1.5
		c0.77-0.24,1.54-0.42,2.33-0.55c0.78-0.13,1.57-0.2,2.37-0.21c0.79-0.02,1.59,0.01,2.38,0.1s1.58,0.21,2.37,0.38
		c0.78,0.17,1.56,0.39,2.33,0.64c0.77,0.25,1.52,0.55,2.26,0.88s1.47,0.7,2.17,1.09c0.71,0.4,1.39,0.83,2.05,1.28
		s1.3,0.94,1.92,1.44c0.62,0.5,1.22,1.03,1.81,1.57c0.59,0.54,1.15,1.11,1.71,1.69c0.55,0.58,1.09,1.17,1.62,1.78
		c0.52,0.61,1.04,1.23,1.54,1.86s0.99,1.27,1.47,1.92c0.48,0.65,0.95,1.31,1.41,1.97c0.46,0.66,0.91,1.33,1.36,1.99
		c2.58,3.85,5,7.8,7.27,11.84c2.26,4.04,4.37,8.17,6.3,12.38c1.94,4.21,3.71,8.49,5.32,12.83c1.61,4.35,3.04,8.75,4.31,13.21
		c1.27,4.46,2.36,8.96,3.28,13.5c0.92,4.54,1.66,9.12,2.22,13.71c0.56,4.6,0.94,9.22,1.14,13.84c0.2,4.63,0.21,9.26,0.04,13.89"/>
	<path class="st0" d="M620.35,452.24c-1.49-2.08-2.88-4.22-4.17-6.41c-1.29-2.19-2.49-4.43-3.6-6.72c-1.11-2.28-2.15-4.61-3.11-6.97
		c-0.97-2.36-1.86-4.75-2.7-7.17s-1.63-4.86-2.37-7.33c-0.74-2.46-1.44-4.94-2.12-7.43s-1.31-4.98-1.94-7.48
		c-0.63-2.5-1.23-4.99-1.84-7.48c-0.19-0.79-0.38-1.58-0.57-2.37c-0.19-0.79-0.37-1.58-0.55-2.38c-0.18-0.79-0.34-1.59-0.5-2.39
		c-0.16-0.8-0.3-1.6-0.43-2.4c-0.13-0.8-0.24-1.6-0.34-2.41s-0.17-1.61-0.22-2.41c-0.05-0.8-0.08-1.61-0.08-2.42
		s0.03-1.61,0.09-2.42c0.06-0.81,0.16-1.62,0.29-2.43c0.13-0.81,0.31-1.61,0.51-2.4c0.21-0.79,0.46-1.57,0.74-2.34
		c0.29-0.77,0.61-1.51,0.97-2.24s0.77-1.43,1.21-2.1c0.44-0.67,0.92-1.31,1.45-1.92c0.52-0.6,1.09-1.17,1.69-1.7
		c0.6-0.52,1.25-1.01,1.93-1.44s1.42-0.8,2.18-1.09c0.76-0.3,1.55-0.52,2.35-0.68s1.62-0.25,2.43-0.27
		c0.82-0.02,1.63,0.02,2.43,0.14s1.58,0.3,2.34,0.56c0.75,0.26,1.48,0.58,2.16,0.98c0.68,0.4,1.31,0.86,1.89,1.4
		s1.09,1.15,1.53,1.83"/>
	<path class="st0" d="M548.18,298.01c-0.87,1.56-1.56,3.19-2.07,4.87s-0.85,3.39-1.03,5.13c-0.18,1.74-0.19,3.5-0.06,5.26
		s0.42,3.52,0.84,5.26c0.42,1.74,0.99,3.45,1.67,5.12c0.69,1.67,1.5,3.29,2.43,4.85c0.93,1.56,1.97,3.04,3.12,4.44
		s2.39,2.7,3.73,3.89c1.34,1.19,2.74,2.29,4.21,3.29c1.46,1,2.98,1.91,4.55,2.73c1.57,0.82,3.19,1.56,4.84,2.21
		c1.66,0.65,3.35,1.22,5.07,1.72c1.72,0.49,3.47,0.91,5.24,1.26s3.56,0.62,5.35,0.83c1.8,0.21,3.6,0.35,5.4,0.44
		c1.8,0.08,3.61,0.1,5.4,0.07"/>
</g>
</svg>
