<?xml version="1.0" encoding="utf-8"?>
<!-- Generator: Adobe Adobe Illustrator 24.2.0, SVG Export Plug-In . SVG Version: 6.00 Build 0)  -->
<svg version="1.1" id="Layer_4" xmlns="http://www.w3.org/2000/svg" xmlns:xlink="http://www.w3.org/1999/xlink" x="0px" y="0px"
	 width="800px" height="800px" viewBox="0 0 800 800" style="enable-background:new 0 0 800 800;" xml:space="preserve">
<style type="text/css">
	.st0{fill:none;stroke:#000000;stroke-miterlimit:10;}
</style>
<path class="st0" d="M182.72,201.15c11.92-9.77,25.38-17.95,40.22-22.14c14.83-4.18,31.15-4.13,45.3,1.97
	c8.17,3.52,15.38,8.91,22.24,14.58c8.69,7.18,17.15,15.18,21.88,25.41c3.23,7,4.57,14.71,5.6,22.34c3.14,23.1,3.88,46.48,7.3,69.53
	s9.75,46.18,22.88,65.44"/>
<path class="st0" d="M236.98,180.69c7.69,10.25,19.85,17.03,32.61,18.19"/>
<path class="st0" d="M268.95,184.12c-3.99-5.05-9.21-9.12-15.07-11.77"/>
<path class="st0" d="M225.96,179.41c0.62-3.63-2.84-6.93-6.48-7.53c-1.51-0.25-3.1-0.16-4.53,0.39c-1.56,0.6-2.87,1.7-4.14,2.79
	c-3.67,3.12-7.55,6.58-8.61,11.28"/>
<path class="st0" d="M214.74,180.43c-3.87-1.24-6.56-5.43-6.07-9.47"/>
<path class="st0" d="M215.22,173.68c-0.78-0.69-0.99-1.87-0.72-2.87c0.26-1.01,0.92-1.86,1.65-2.6c1.99-2.02,4.62-3.4,7.41-3.9
	c1.24-0.22,2.55-0.27,3.72,0.19c1.5,0.59,2.57,1.93,3.35,3.33c0.79,1.4,1.38,2.92,2.3,4.23"/>
<path class="st0" d="M251.06,183.01c-5.86,2.71-10.34,7.9-13.13,13.73c-2.79,5.83-4.02,12.28-4.65,18.71
	c-0.28,2.81-0.44,5.68,0.2,8.42s2.18,5.4,4.63,6.8c2.96,1.69,6.71,1.3,9.88,0.04c6.23-2.47,10.85-7.82,14.56-13.41
	c2.93-4.41,5.49-9.19,6.41-14.39c0.93-5.21,0.04-10.93-3.33-15.02C262.26,183.82,255.82,180.81,251.06,183.01z"/>
<path class="st0" d="M240.17,201.49c-1.24,1.31-2.5,2.65-3.26,4.29c-0.75,1.64-0.92,3.66,0.03,5.2c0.13,0.21,0.29,0.41,0.51,0.5
	c0.47,0.19,0.97-0.19,1.32-0.55c2.25-2.33,3.89-5.24,4.7-8.38c0.19-0.73,0.33-1.52,0.04-2.21c-0.45-1.07-1.83-1.5-2.96-1.21
	c-1.12,0.29-2.02,1.13-2.77,2.02c-2.25,2.64-3.66,5.98-4,9.43c-0.09,0.88-0.06,1.87,0.57,2.48c0.35,0.34,0.85,0.5,1.34,0.55
	c1.42,0.14,2.83-0.59,3.79-1.65c0.96-1.06,1.52-2.42,1.94-3.78c0.52-1.7,0.84-3.59,0.13-5.23c-0.7-1.64-2.76-2.78-4.33-1.95
	c-0.72,0.38-1.21,1.08-1.64,1.78c-1.41,2.34-2.36,4.95-2.77,7.65c-0.11,0.74-0.15,1.59,0.36,2.13c0.72,0.75,1.97,0.4,2.87-0.12
	c2.63-1.51,4.6-4.12,5.35-7.05c0.37-1.44,0.23-3.35-1.15-3.92c-1.32-0.55-2.74,0.6-3.5,1.81c-1.05,1.66-1.58,3.64-1.53,5.61
	c0.03,0.94,0.48,2.14,1.42,2.07c0.32-0.02,0.62-0.2,0.88-0.39c1.77-1.28,3.06-3.19,3.6-5.3c0.07-0.29,0.13-0.62-0.01-0.89
	c-0.23-0.46-0.88-0.5-1.38-0.38c-1.55,0.38-2.79,1.8-2.95,3.39c-0.05,0.55,0.04,1.17,0.45,1.53c0.82,0.72,2.09-0.01,2.82-0.81
	c0.94-1.03,1.71-2.66,0.82-3.73C240.1,205.13,239.55,206.13,240.17,201.49z"/>
<path class="st0" d="M252.43,181.67c-3.55,0.73-6.49,3.2-8.88,5.92c-6.79,7.76-10.18,18.14-10.48,28.45
	c-0.08,2.87,0.07,5.81,1.17,8.45c1.1,2.65,3.28,4.98,6.07,5.63c2.77,0.64,5.64-0.43,8.15-1.78c11.98-6.43,19.74-20.01,19.2-33.59
	c-0.1-2.43-0.45-4.9-1.54-7.07s-3.02-4.02-5.39-4.55"/>
<path class="st0" d="M225.4,178.57c1.46-3.02-0.69-6.89-3.82-8.08c-3.13-1.19-6.74-0.23-9.57,1.57c-5.9,3.75-9.04,10.52-11.71,16.97
	"/>
<path class="st0" d="M182.73,204.93c-15.6-5.17-33.78,1.98-43.55,15.19c-9.77,13.21-11.65,31.26-7.1,47.05
	c1.7,5.91,4.27,11.62,8.08,16.45c2.52,3.19,5.54,5.95,8.7,8.5c20.81,16.75,48.67,24.43,75.13,20.71c8.55-1.2,16.94-3.53,26.02-2.12
	c6.95,4.21,9.5,12.88,11.49,20.76c2.86,11.32,5.72,22.67,7.43,34.23c3.01,20.3,2.51,41.41,9.79,60.6"/>
<path class="st0" d="M131.93,240.92c10.47,12.43,25.54,20.33,41.22,24.64c15.67,4.31,32.05,5.28,48.29,5.79"/>
<path class="st0" d="M129.39,236.45c26.12,24.32,61.65,38.81,97.32,37.69"/>
<path class="st0" d="M129.3,238.69c21.17,20.64,50.09,33.14,79.62,34.4c4.77,0.2,9.8,0.07,13.95-2.31"/>
<path class="st0" d="M220.3,262.52c1.61,6.04,5.31,11.49,10.33,15.21c5.02,3.72,11.31,5.68,17.56,5.46"/>
<path class="st0" d="M220.22,256.85c0.43,7.34,3.98,14.45,9.59,19.21c5.61,4.75,13.21,7.08,20.52,6.29"/>
<path class="st0" d="M223.67,264.29c0.36,6.13,4.98,11.26,10.21,14.49c5.24,3.23,11.31,5.09,17.46,5.33"/>
<path class="st0" d="M347.48,475.41c-21.39-3.98-40.75-16.64-54.36-33.61c-13.62-16.97-21.68-38.03-24.68-59.59
	c-1.67-12.02-1.82-24.21-3.5-36.23c-1.68-12.02-5.03-24.14-14.73-33.14c8.99,15.96,11.69,34.57,14.88,52.61
	c4.42,25.04,10.3,50.46,24.12,71.8C303.46,459.25,325.94,475.77,347.48,475.41z"/>
<path class="st0" d="M252.18,311.88c-16.01,3.54-32.46,7.11-48.67,4.66c-11.42-1.73-22.18-6.37-32.63-11.3
	c-14.95-7.05-30.68-15.92-37.08-31.16c-2.26-5.39-3.18-11.26-3.33-17.11c-0.35-14.29,4.17-29,13.98-39.39
	c9.81-10.4,25.19-15.83,39.57-11.95c-7.89-1.06-16.05-2.1-23.69,0.14c-9.91,2.9-17.6,11.06-22.25,20.28
	c-9,17.85-7.56,40.24,2.69,57.4s28.7,28.88,48.43,32.03c13.18,2.11,26.63,0.63,39.89-0.86C236.59,313.78,244.1,312.95,252.18,311.88
	z"/>
<path class="st0" d="M249.98,315.83c7.07,7.77,10.55,18.19,12.28,28.56c1.73,10.36,1.91,20.93,3.4,31.33
	c1.32,9.27,3.68,18.36,6.49,27.29c3.12,9.9,6.81,19.62,11.04,29.1c2.88,6.45,6.04,12.83,10.27,18.5
	c11.79,15.79,31.14,24.66,50.66,27.36"/>
<path class="st0" d="M181.41,205.08c5.47-8.11,14.58-12.9,23.48-16.95c16-7.29,33.34-13.37,50.81-11.41
	c7.43,0.83,14.68,3.12,21.36,6.48c7.38,3.7,14.1,8.7,19.77,14.7c14.05,14.87,21.03,35.16,24.28,55.36s3.14,40.77,5.12,61.13
	c1.18,12.1,3.09,24.13,5.73,36c2.76,12.41,6.87,25.51,16.94,33.27"/>
<path class="st0" d="M254.08,171.2c6.2,5.07,11.47,11.27,15.46,18.21"/>
<path class="st0" d="M349.91,377.31c-8.96,58.37-1.61,119.16,21,173.71c10.74,25.91,26.11,51.69,50.84,64.91"/>
<path class="st0" d="M446.78,439.34c2,36.18,7.87,72.14,17.48,107.07c3.67,13.36,7.9,26.61,10.04,40.3
	c1.91,12.22,1.46,26.37-7.63,34.76c-8.83,8.15-22.49,7.76-34.24,5.27c-7.79-1.65-16.16-4.56-20.12-11.46"/>
<path class="st0" d="M351.5,379.67c-7.07,43.55-5.88,88.43,3.49,131.55c4.99,22.97,12.38,45.65,24.56,65.75
	c12.18,20.1,29.44,37.57,50.78,47.42"/>
<path class="st0" d="M446.38,445c-0.5,56.96,29.06,112.1,22.4,168.67"/>
<path class="st0" d="M350.47,386.54c-5.37,30.2-4.27,61.19-1.57,91.75c3.53,40.04,10.57,81.77,35.11,113.6
	c11.56,14.99,26.71,27.2,43.83,35.3"/>
<path class="st0" d="M445.61,441.43c0.88,39.27,7.28,78.42,18.96,115.93c6.13,19.69,13.75,40.87,6.93,60.33"/>
<path class="st0" d="M268.4,390.43c-8.72,17.63-23.62,31.29-38.44,44.22s-30.17,25.88-40.26,42.76s-14.1,38.81-4.96,56.22
	c8.59,16.37,26.63,25.4,44.25,31.03c11.39,3.64,23.35,6.33,35.24,5.1c11.89-1.23,23.78-6.91,30.21-16.99"/>
<path class="st0" d="M285.72,439.01c-8.4,14.82-13.88,31.28-16.02,48.18c-0.8,6.29-1.09,12.95,1.56,18.72
	c2.95,6.45,9.08,10.78,15.05,14.61c5.97,3.83,12.28,7.7,16,13.73c3.72,6.04,3.81,15-1.81,19.32"/>
<path class="st0" d="M289.51,440.6c-10.81,18.02-22.04,38.94-15.76,59c3.61,11.55,12.52,20.58,21.53,28.66
	c5.97,5.35,12.67,13.71,8.15,20.34c-1.11,1.62-2.75,2.78-4.39,3.85c-28.7,18.77-68.33,19.18-97.41,1c-4.35-2.72-8.5-5.84-11.86-9.72
	c-13.03-15.06-11.25-38.57-1.9-56.16c9.36-17.58,24.79-30.97,38.71-45.21c15.92-16.29,30.21-34.16,41.43-53.2
	c-10.12,17.03-22.07,32.97-35.58,47.45c-15.02,16.1-32.23,30.76-42.61,50.18c-10.38,19.42-12.04,45.8,3.22,61.68
	c7.64,7.95,18.36,12.14,28.98,15.08c12.96,3.58,26.53,5.65,39.89,4.07c13.36-1.57,26.54-7.03,35.81-16.78
	c2.57-2.7,4.94-6.11,4.56-9.82c-0.29-2.82-2.12-5.21-3.88-7.44c-3.76-4.75-7.53-9.5-11.29-14.26c-5.5-6.95-11.13-14.12-13.69-22.61
	C267.95,478.61,277.47,459.72,289.51,440.6z"/>
<path class="st0" d="M450.46,489.09c25.03,8.07,52.21,9.36,77.89,3.68"/>
<path class="st0" d="M345.52,375.06c31.27,7.04,56.46,29.44,80.14,51.04c9.5,8.66,18.99,17.32,28.49,25.98
	c14.4,13.13,29.12,26.48,46.9,34.47c20.73,9.32,44.4,10.67,66.84,7.08c22.44-3.59,43.86-11.89,64.56-21.25
	c22.73-10.28,45.47-22.39,61.53-41.48"/>
<path class="st0" d="M325.42,309.65c14.2-13.19,32.81-20.41,51.09-26.87c47.76-16.88,101.03-30.51,148.12-11.83
	c48.45,19.22,77.83,67.37,115.6,103.3c21.03,20,45.28,36.61,71.54,48.96"/>
<path class="st0" d="M338.53,356.18c11.83-3.16,24,2.7,34.85,8.39c8.57,4.49,17.14,8.98,25.7,13.47
	c18.51,9.7,37.08,19.44,54.22,31.41c17.22,12.02,32.86,26.19,50.2,38.04s36.95,21.48,57.91,22.76c17.3,1.06,34.41-3.63,50.92-8.93
	c25.66-8.24,51.59-18.59,70.76-37.53"/>
<path class="st0" d="M328.88,332.72c5.23-15.06,20.36-24.22,35.12-30.26c6.08-2.49,12.44-4.69,19.01-4.6
	c6.56,0.1,13.42,2.89,16.86,8.48c2.04,3.32,2.71,7.29,2.89,11.18c0.89,19.51-9.62,37.5-19.77,54.18"/>
<path class="st0" d="M409.03,382.33c-2.77-17.48,0.22-35.83,8.4-51.53c4.62-8.86,11.85-17.51,21.74-18.97
	c8.33-1.23,16.74,3.11,22.3,9.43s8.71,14.37,11.24,22.4c9.29,29.48,11.59,61.14,6.65,91.65"/>
<path class="st0" d="M514.97,456.1c-10.7-23.11-9.75-49.8-6.96-75.11c1.28-11.57,4-24.79,14.23-30.36
	c8.24-4.48,18.9-2.05,26.34,3.66c7.44,5.71,12.27,14.12,16.47,22.5c13.23,26.39,22.24,54.89,26.58,84.09"/>
<path class="st0" d="M623.73,456.34c-5.02-5.37-7.92-12.33-10.71-19.13c-7.06-17.21-14.26-35.13-13.3-53.7
	c0.23-4.39,1.04-9.04,4.03-12.27c2.46-2.66,6.08-3.96,9.66-4.56c6.99-1.16,14.35,0.1,20.56,3.51"/>
<path class="st0" d="M549.61,288.6c-10.51,10.59-9.83,28.99-1.23,41.18c8.6,12.19,23.24,18.89,37.9,21.67
	c9.57,1.82,20.25,1.97,28.14-3.74"/>
<path class="st0" d="M445.01,265.91c3.05,16.16,10.67,31.92,23.5,42.21c12.83,10.28,31.3,14.19,46.3,7.42
	c15.7-7.08,24.84-24.06,28.19-40.95"/>
<path class="st0" d="M385.73,278.63c5.32,9.83,13.42,18.14,23.11,23.72c4.09,2.35,8.66,4.26,13.36,3.97
	c8.13-0.5,14.66-7.71,16.73-15.6s0.53-16.25-1.66-24.1"/>
<path class="st0" d="M580.07,491.65c9.06,13.73,20.75,26.78,36.35,32.02c10.29,3.45,21.55,3.2,32.16,0.89
	c10.61-2.31,20.67-6.59,30.54-11.11c3.11-1.43,6.28-2.93,8.69-5.36c2.41-2.43,3.94-6.02,3.03-9.32"/>
<path class="st0" d="M643.31,469.39c10.35,6.96,21.49,12.75,33.13,17.23c5.04,1.94,10.47,3.84,13.79,8.11"/>
<path class="st0" d="M579.7,493.96c12.65,17.33,31.85,30.21,53.07,33.38c21.22,3.18,44.15-4.01,58.41-20.05
	c1.39-1.56,2.78-3.57,2.21-5.58"/>
<path class="st0" d="M642.88,469.09c9.8,3.93,19.62,7.86,28.97,12.76c5.16,2.71,10.22,5.74,14.41,9.78
	c4.2,4.04,7.51,9.18,8.56,14.91"/>
<path class="st0" d="M583.32,494.5c5.86,6.75,12.66,12.68,20.12,17.61c12.66,8.37,27.52,13.87,42.7,13.84
	c15.18-0.03,30.62-6.01,40.55-17.49"/>
<path class="st0" d="M343.01,375.62c10.12-0.91,19.8,3.93,28.57,9.06c19.17,11.19,37.15,24.4,53.56,39.35
	c17.43,15.89,33.09,33.73,51.54,48.43c18.44,14.7,40.49,26.34,64.07,26.96c10.17,0.27,20.28-1.52,30.19-3.84
	c49.74-11.66,96.14-37.26,132.52-73.13"/>
<path class="st0" d="M349.93,375.61c49.38,17.37,83.55,61.5,125.35,93c9,6.78,18.47,13.04,28.83,17.45
	c23.21,9.88,49.67,9.88,74.35,4.63s47.97-15.46,71.06-25.61c22.12-9.73,45.34-20.35,59.26-40.1"/>
<path class="st0" d="M339.09,357.6c-0.73-1.45,1.87-2.1,3.42-1.64c35.49,10.63,69.26,26.99,99.6,48.24
	c21.04,14.73,40.41,31.77,61.81,45.97c9.49,6.29,19.41,12.03,30.09,15.97c7.66,2.83,15.67,4.7,23.79,5.57
	c24.92,2.67,50.12-4.22,72.57-15.36s42.56-26.4,62.52-41.56"/>
<path class="st0" d="M340.74,354.95c65.8,20.14,120.71,64.78,179.53,100.48c10.42,6.33,21.19,12.47,33.06,15.25
	c11.91,2.8,24.41,2.07,36.46-0.04c40.48-7.1,76.74-29.31,109.17-54.54"/>
<path class="st0" d="M711.89,424.01c-23.67-9.65-45.65-23.4-64.69-40.45c-20.59-18.45-37.55-40.52-56.37-60.77
	s-40.23-39.14-66.17-48.7c-23.9-8.81-50.07-9.13-75.47-7.19c-44.11,3.36-88.8,13.68-119.99,38.44
	c13.04-6.28,26.08-12.56,39.12-18.84c10.7-5.15,21.44-10.32,32.68-14.14c37.08-12.61,77.93-9.91,115.79,0.13
	c10.76,2.85,21.44,6.31,31.3,11.48c9.64,5.05,18.38,11.68,26.59,18.82C620.32,342.47,652.05,399.51,711.89,424.01z"/>
<path class="st0" d="M627.53,458.44c-9.16-8.05-15.25-19.13-19.1-30.7c-3.85-11.57-5.62-23.71-7.31-35.79
	c-0.9-6.38-1.68-13.32,1.57-18.89c1.5-2.56,3.91-4.7,6.8-5.37c1.68-0.39,3.42-0.28,5.14-0.12c9.15,0.87,18.15,3.2,26.57,6.88"/>
<path class="st0" d="M548.82,288.72c-7.04,9.08-7.29,22.2-2.63,32.7c4.66,10.5,13.56,18.61,23.34,24.63
	c6.52,4.01,13.63,7.26,21.2,8.37c7.57,1.11,15.66-0.09,22.01-4.35"/>
<path class="st0" d="M443.32,265.09c3.39,16.04,11.86,31.3,24.95,41.17s30.97,13.78,46.49,8.51s27.71-20.34,27.92-36.74"/>
<path class="st0" d="M385.74,279.54c4,10.47,12.55,18.7,22.17,24.45c3.75,2.24,7.83,4.19,12.19,4.52
	c9.08,0.68,17.55-6.21,20.85-14.7s2.28-18.11-0.45-26.8"/>
<path class="st0" d="M329.77,331.56c4.23-10.42,14.22-17.17,23.66-23.29c3.79-2.45,7.61-4.93,11.81-6.59
	c6.55-2.59,14.01-3.07,20.69-0.83s12.47,7.29,15.14,13.81c3.83,9.38,0.96,20.1-2.95,29.44c-3.47,8.29-7.74,16.24-12.73,23.72"/>
<path class="st0" d="M409.54,384.41c-0.28-12.48,1.06-25,3.97-37.14c1.68-7,3.93-13.97,7.87-20c3.94-6.03,9.74-11.08,16.69-12.94
	c6.96-1.86,15.06-0.09,19.78,5.35c2.15,2.48,3.5,5.52,4.76,8.55c13.2,31.65,19.42,66.19,18.09,100.46"/>
<path class="st0" d="M513.83,456.08c-10.01-25.88-11.53-54.96-4.29-81.74c1.74-6.42,4.05-12.86,8.28-17.99
	c4.24-5.13,10.72-8.79,17.35-8.17c7.73,0.72,13.79,6.81,18.48,12.99c12.54,16.51,20.38,36.09,26.54,55.89
	c5.02,16.13,9.01,32.57,11.95,49.2"/>
<path class="st0" d="M629.09,454.52c-5.79-2.1-9.65-7.51-12.78-12.83c-5.99-10.19-10.68-21.14-13.91-32.51
	c-2.43-8.57-4.02-17.81-1.35-26.31c2.67-8.5,10.73-15.86,19.6-15.05"/>
<path class="st0" d="M546.25,288.06c-4.24,11.81-3.62,25.29,1.7,36.66s15.27,20.48,27.06,24.79c10.06,3.68,22.13,3.61,30.66-2.87"/>
<path class="st0" d="M442.83,268.62c7.51,12.06,15.2,24.32,26.04,33.5c10.84,9.18,25.53,14.95,39.37,11.73
	c5.62-1.31,10.82-4.01,15.7-7.1c6.48-4.1,12.83-9.36,15.14-16.67"/>
<path class="st0" d="M384.39,280.48c4.9,6.85,9.89,13.79,16.47,19.06c6.58,5.26,15.06,8.73,23.4,7.48c3.02-0.45,5.92-1.5,8.77-2.62
	c1.81-0.71,3.65-1.48,5.07-2.81c1.73-1.62,2.65-3.91,3.3-6.18c2.7-9.44,1.32-19.97-3.72-28.39"/>
<path class="st0" d="M483.03,431.5c0.38-14.8-0.78-29.64-3.44-44.2c-1.32-7.2-3-14.34-4.68-21.46
	c-3.71-15.72-7.94-32.38-19.64-43.52c-4.61-4.39-10.79-7.84-17.1-6.93c-6.24,0.89-11.14,5.8-14.66,11.02
	c-9.83,14.58-12.36,32.72-14.62,50.16"/>
<path class="st0" d="M385.39,370.04c4.84-12.09,9.15-24.39,12.93-36.86c2.28-7.5,4.23-16.13,0.07-22.77
	c-3.05-4.87-8.91-7.48-14.65-7.8c-5.74-0.31-11.41,1.38-16.75,3.53c-14.02,5.65-26.68,14.65-36.63,26.04"/>
<path class="st0" d="M520.02,457.09c-7.18-10.6-9.96-23.56-11.55-36.27c-1.97-15.75-2.31-31.96,1.92-47.26
	c1.51-5.47,3.66-10.89,7.27-15.27c3.61-4.38,8.86-7.66,14.53-7.91c8.46-0.37,15.79,5.76,21.19,12.29
	c9.51,11.48,15.99,25.14,21.54,38.97c8.41,20.95,14.91,42.68,19.38,64.81"/>
<path class="st0" d="M626.51,456.84c-14.79-20.54-27.7-43.95-28.07-69.25c-0.06-3.95,0.23-8.05,2.08-11.55
	c2.31-4.38,6.97-7.32,11.88-7.92c4.91-0.61,9.98,1.01,13.91,4.03"/>
<path class="st0" d="M340.77,374.13c20.74,2.29,39.77,12.82,56.22,25.67c16.45,12.85,30.83,28.11,46.55,41.84
	c14.91,13.03,31.03,24.68,48.08,34.75c15.09,8.92,31.35,16.73,48.8,18.42c7.64,0.74,15.36,0.29,22.99-0.54
	c52.89-5.77,103.52-30.49,140.6-68.65"/>
<path class="st0" d="M340.63,355.11c43.22,10.71,83.92,31.48,117.95,60.21"/>
<path class="st0" d="M450.98,490.47c17.78,2.75,35.92,3.19,53.82,1.29"/>
<path class="st0" d="M250.46,312.58c9.85,22.83,17.38,46.67,22.43,71.01c3.44,16.58,5.81,33.64,13.07,48.93
	c11.66,24.56,36.18,42.55,63.1,46.32"/>
<path class="st0" d="M450.25,494.13c21.71,3.05,43.86,2.89,65.52-0.49"/>
<path class="st0" d="M350.26,387.97c1.25-3.28,2.49-6.55,3.74-9.83c-14.36,49.26-8.27,102.31,4.59,151.98
	c3.76,14.51,8.14,29.01,15.38,42.14c11.23,20.37,28.91,36.58,48.36,49.35c5.92,3.89,12.22,7.56,19.21,8.73
	c10.75,1.79,22.34-3.11,28.53-12.08c6.19-8.97,6.68-21.54,1.19-30.96"/>
<path class="st0" d="M265.25,389.23c-8.21,20.68-24.52,36.89-40.43,52.44c-15.91,15.55-32.28,31.69-40.64,52.3
	c-8.36,20.61-6.55,47.09,10.27,61.64c8.01,6.93,18.39,10.42,28.68,12.92c21.9,5.31,46.04,6.56,66.01-3.89
	c7.7-4.03,15.03-10.55,16.17-19.17"/>
<path class="st0" d="M269.14,181.58c23.92,6.16,40.19,29.18,46.95,52.93s6.07,48.88,8.27,73.48s8.02,50.29,24.94,68.28"/>
<path class="st0" d="M181.96,205.22c6.47-8.19,14.91-14.81,24.39-19.17"/>
</svg>
