<?xml version="1.0" encoding="utf-8"?>
<!-- Generator: Adobe Adobe Illustrator 24.2.0, SVG Export Plug-In . SVG Version: 6.00 Build 0)  -->
<svg version="1.1" xmlns="http://www.w3.org/2000/svg" xmlns:xlink="http://www.w3.org/1999/xlink" x="0px" y="0px" width="800px"
	 height="800px" viewBox="0 0 800 800" style="enable-background:new 0 0 800 800;" xml:space="preserve">
<style type="text/css">
	.st0{fill:none;stroke:#000000;stroke-miterlimit:10;}
</style>
<g id="Layer_2">
	<path class="st0" d="M701.88,438.48c-32.25,18.28-65.95,35-102.22,42.62s-75.7,5.44-108.14-12.49
		c-25.72-10.67-47.09-31.62-69.2-50.89c-22.11-19.27-46.55-37.72-77.6-45.35c-21.94-14.68-34.92-39.52-43.5-64.49
		s-13.73-51.17-24.66-75.21"/>
	<path class="st0" d="M309.89,325.79c24.94-20.64,52.37-38.77,82.76-49.92c30.39-11.15,63.99-15.04,95.42-7.27
		c48.49,11.97,85.86,49.19,124,81.45c32.33,27.35,66.89,52.06,103.23,73.81"/>
	<path class="st0" d="M350.9,376.06c-6.45,34.35-6.54,70.1,1.79,104.04c8.33,33.94,25.27,66.01,50.1,90.61
		c28.76,28.48,70.46,46.54,110.33,38.92c5.05-9.18,3.23-20.83-1.6-30.14c-4.83-9.3-12.28-16.91-18.97-24.98
		c-23-27.74-37.62-62.35-41.49-98.18"/>
	<path class="st0" d="M461.15,496.25c30.53,4.38,62.06,1.68,91.4-7.83"/>
	<path class="st0" d="M257.96,388.45c-14.38,18.75-41.53,22.98-57.92,40c-15.4,15.99-18.27,41.92-8.78,61.98
		c9.49,20.06,29.91,33.91,51.77,37.76c21.86,3.85,44.77-1.64,62.54-12.59c2.13-4.77,1.3-10.43-0.88-15.18
		c-2.19-4.75-5.6-8.79-8.82-12.91c-5.88-7.52-11.33-15.67-13.72-24.92c-2.39-9.25-1.31-19.83,4.79-27.17"/>
	<path class="st0" d="M581.65,488.08c2.24,13.56,13.96,23.72,26.45,29.44c26.48,12.11,59.5,8.4,82.62-9.29"/>
	<path class="st0" d="M643.02,467.71c13.81,8.09,27.62,16.17,41.42,24.26c2.87,1.68,5.83,3.44,7.71,6.18
		c1.89,2.73,2.38,6.73,0.22,9.26"/>
	<path class="st0" d="M278.85,235.2c-14.91-23.68-42.57-38.76-70.55-38.46s-55.32,15.95-69.73,39.94"/>
	<path class="st0" d="M334.08,357.06c30.15-0.7,58.39,14.6,82.59,32.6c24.2,18,46.21,39.25,72.74,53.61
		c44.97,24.34,101.43,26.17,147.88,4.8"/>
	<path class="st0" d="M175.7,202.21c-1.29-3.73-5.84-5.66-9.68-4.77c-3.84,0.88-6.86,4.03-8.51,7.61s-2.12,7.58-2.4,11.51"/>
	<path class="st0" d="M165.5,209.52c-5.12-1.08-9.49-5.15-10.95-10.17"/>
	<path class="st0" d="M194.51,204.5c-6.24,11.34-6.72,25.67-1.25,37.41c1.7,3.65,4.36,7.35,8.31,8.17c3.24,0.67,6.56-0.8,9.22-2.76
		c6.52-4.81,10.4-12.61,11.71-20.6c0.87-5.32,0.65-10.94-1.49-15.9s-6.4-9.14-11.65-10.39S196.79,200.35,194.51,204.5z"/>
	<path class="st0" d="M189.49,226.22c-0.39,1.02-0.78,2.06-0.78,3.15c0,1.09,0.48,2.24,1.44,2.74c1.44,0.75,3.21-0.25,4.24-1.51
		c1.22-1.48,1.93-3.37,2-5.29c0.05-1.34-0.3-2.83-1.41-3.59c-1.34-0.91-3.28-0.34-4.36,0.87c-1.08,1.21-1.48,2.86-1.75,4.46
		c-0.19,1.14-0.33,2.32-0.03,3.43c0.3,1.11,1.13,2.15,2.26,2.38c1.78,0.35,3.3-1.34,4.06-2.99c0.89-1.93,1.34-4.06,1.31-6.18
		c-0.02-1.55-0.57-3.41-2.07-3.79c-1.6-0.4-2.98,1.18-3.69,2.66c-0.98,2.05-1.54,4.3-1.64,6.57c-0.05,1.18,0.04,2.41,0.56,3.47
		s1.55,1.94,2.74,1.99c2.01,0.09,3.35-1.98,4.23-3.79c0.72-1.49,1.45-3.05,1.42-4.71c-0.03-1.65-1.04-3.42-2.66-3.73
		c-1.74-0.34-3.43,1.13-3.97,2.82s-0.23,3.53,0.08,5.28c0.12,0.69,0.25,1.4,0.63,2s1.05,1.06,1.75,0.96
		c0.77-0.11,1.29-0.82,1.65-1.51c0.99-1.86,1.49-3.97,1.46-6.07c-0.02-1.13-0.4-2.5-1.5-2.77c-0.7-0.17-1.44,0.21-1.88,0.78
		c-0.44,0.57-0.63,1.29-0.76,1.99c-0.28,1.51-0.34,3.06-0.17,4.59c0.06,0.5,0.2,1.09,0.67,1.27c0.61,0.24,1.2-0.37,1.52-0.94
		c0.72-1.28,1.15-2.72,1.25-4.19c0.05-0.81-0.14-1.83-0.92-2.07c-0.57-0.18-1.19,0.2-1.5,0.71c-0.31,0.51-0.38,1.13-0.44,1.72
		c-0.09,0.9-0.09,2,0.69,2.46c0.82,0.48,1.93-0.24,2.2-1.16c0.27-0.92-0.03-1.89-0.34-2.8C195.48,225.47,195.25,225.8,189.49,226.22
		z"/>
	<path class="st0" d="M178.95,194.35c-4-3.73-8.4-5.12-11.82-3.73c-3.42,1.39-5.8,5.55-6.4,11.16"/>
	<path class="st0" d="M104.12,285.53c27.31,18.46,64.85,20.52,94.02,5.17"/>
	<path class="st0" d="M186.72,202.9c9.35,8.62,23.12,12.16,35.46,9.12"/>
	<path class="st0" d="M320.22,347.05c11.51-20.56,29.7-37.3,51.13-47.09c6.86-3.13,15.41-5.41,21.51-0.98
		c6.19,4.48,6.6,13.46,5.83,21.06c-1.76,17.44-6.59,34.57-14.21,50.36"/>
	<path class="st0" d="M408.09,380.67c-0.56-12.07-0.87-24.31,1.87-36.08c2.74-11.77,8.88-23.18,18.89-29.95s24.24-7.91,34.03-0.83
		c7.46,5.4,11.32,14.42,14.11,23.2c9.61,30.22,10.58,63.13,2.77,93.87"/>
	<path class="st0" d="M504.98,448.95c-5.74-29.03-3.59-59.59,6.15-87.53c2-5.73,4.38-11.47,8.45-15.97
		c4.07-4.5,10.13-7.59,16.13-6.7c7.43,1.1,12.69,7.66,16.79,13.95c19.99,30.64,31.27,66.9,32.16,103.47"/>
	<path class="st0" d="M387.85,278.37c2.19,9.72,9.19,18.42,18.54,21.87c9.35,3.45,20.77,1.12,27.46-6.25
		c6.7-7.38,7.73-19.54,1.76-27.52"/>
	<path class="st0" d="M450.59,265.13c0.77,19.35,14.33,37.57,32.65,43.87c18.32,6.29,40.21,0.25,52.71-14.55"/>
	<path class="st0" d="M547.18,297.78c-5.4,8.98-4.33,20.99,1.32,29.82c5.64,8.83,15.26,14.64,25.41,17.23
		c10.16,2.59,20.86,2.21,31.23,0.68"/>
	<path class="st0" d="M649.69,440.82c11.65-5.66,22.72-12.5,32.98-20.39"/>
	<path class="st0" d="M623.84,448.71c-8.55-12.79-15.88-26.39-21.87-40.57c-3.23-7.65-6.11-15.67-6.2-23.97
		c-0.08-8.31,3.07-17.04,9.85-21.85c6.78-4.8,17.4-4.3,22.41,2.32"/>
	<path class="st0" d="M639.81,374.54c14.91,13.18,26.8,29.77,34.47,48.13"/>
	<path class="st0" d="M322.25,349.66c10.27-22.55,29.21-41.01,52.01-50.7c6.59-2.8,14.9-4.65,20.36-0.03
		c4.53,3.83,5.12,10.51,4.99,16.44c-0.4,17.5-4.25,34.92-11.25,50.96"/>
	<path class="st0" d="M427.12,316.09c-13.23,15.18-19.75,36.01-17.54,56.02"/>
	<path class="st0" d="M466.54,317.4c13.06,21.32,19.86,46.42,19.34,71.41"/>
	<path class="st0" d="M481.54,379.97c2.4,14.47,1.72,29.44-1.98,43.63"/>
	<path class="st0" d="M524.9,342.64c-14.47,13.84-21.95,34.65-19.6,54.53"/>
	<path class="st0" d="M504.82,403.36c-1.85,13.49-1.45,27.29,1.18,40.65"/>
	<path class="st0" d="M539.92,342.52c16.73,15.13,23.78,37.92,30.13,59.56"/>
	<path class="st0" d="M575.99,413.71c4.64,9.11,7.5,19.13,8.38,29.32"/>
	<path class="st0" d="M451.7,270.44c3.1,7.18,6.22,14.41,10.59,20.89c4.37,6.48,10.12,12.25,17.26,15.44"/>
	<path class="st0" d="M491.49,309.74c15.35,0.73,30.92-4.57,42.63-14.53"/>
	<path class="st0" d="M551.21,298.84c-4.17,5.36-6.15,12.38-5.38,19.13s4.27,13.15,9.54,17.43"/>
	<path class="st0" d="M564.91,338.31c11.88,5.38,25.51,6.77,38.23,3.92"/>
	<path class="st0" d="M619.57,359.72c-8.25-0.53-16.62,4.12-20.52,11.41c-3.91,7.29-3.16,16.82,1.85,23.41"/>
	<path class="st0" d="M607.49,411.57c4.21,14.71,9.14,29.22,14.78,43.45"/>
	<path class="st0" d="M633.56,370.36c18.28,12.75,33.12,30.38,42.56,50.56"/>
	<path class="st0" d="M600.31,376.01c-0.69,15.79,3.05,31.74,10.68,45.58"/>
	<path class="st0" d="M257.15,211.73c20.4,16.07,33.13,41.47,33.79,67.43"/>
	<path class="st0" d="M289.16,272.12c3.48,32.15,17.53,63.07,39.46,86.83"/>
	<path class="st0" d="M292.74,285.04c3.34,19.93,11.15,39.11,22.69,55.7"/>
	<path class="st0" d="M139.78,238.88c-18.5-0.47-35.39,14.74-39.22,32.84c-3.83,18.1,4.17,37.54,18.04,49.79
		c13.87,12.25,32.8,17.79,51.3,17.78c18.5-0.01,36.67-5.18,53.49-12.37c11.94-0.47,20.92,10.55,26.67,21.02
		c13.42,24.43,20.73,51.83,34.12,76.26c13.4,24.44,35.43,46.88,63.17,49.56"/>
	<path class="st0" d="M264.08,383.4c-12.15,18.94-37.99,23.07-55.47,37.24c-17.78,14.41-25.53,39.68-19.97,61.87
		s23.68,40.51,45.49,47.42c21.81,6.91,46.6,2.67,65.56-10.15"/>
	<path class="st0" d="M289.1,431.66c-10.18,16.96-8.58,40.19,3.82,55.59c3.25,4.03,7.13,7.54,10.17,11.72
		c3.04,4.19,5.24,9.35,4.42,14.46"/>
	<path class="st0" d="M208.48,420.11c-8.4,10.54-16.23,21.87-20.19,34.76c-3.96,12.89-3.61,27.64,3.62,39.02"/>
	<path class="st0" d="M197.87,494.9c0.13,4.74,2.66,9.17,6.05,12.47s7.61,5.63,11.84,7.76c13.03,6.53,26.82,11.53,41,14.87"/>
	<path class="st0" d="M259.84,390.7c-13.08,11.26-27.25,21.26-42.24,29.81"/>
	<path class="st0" d="M288.02,431.65c-8.62,10.49-9.64,25.74-5.43,38.65c4.2,12.91,12.94,23.84,22.35,33.61"/>
	<path class="st0" d="M261.56,523.88c13.42,2.74,27.95-0.46,38.98-8.59"/>
	<path class="st0" d="M226.51,326.75c14.14,9.97,23.68,25.23,30.77,41.01c7.09,15.78,12.12,32.43,23.45,52.42
		c8.58,27.33,33.75,48.7,62.11,52.72"/>
	<path class="st0" d="M233.12,329.29c17.25,14.44,25.51,36.66,33.27,57.78c7.76,21.11,16.52,43.26,32.04,59.29
		c14.54,15.87,33.76,27.4,54.61,32.77"/>
	<path class="st0" d="M292.17,284.84c6.17,38.32,28.39,73.8,60.17,96.07"/>
	<path class="st0" d="M353.39,375.17c-7.41,25.66-7.54,53.39-0.35,79.12"/>
	<path class="st0" d="M350.6,445.17c2.09,29.43,9.98,58.44,23.09,84.88"/>
	<path class="st0" d="M370.36,521.61c8.56,21.24,22.18,40.42,39.41,55.5"/>
	<path class="st0" d="M345.66,427.22c3.25,32.35,9.94,64.36,19.93,95.3"/>
	<path class="st0" d="M451.04,448.55c4.24,27.69,13.95,54.54,28.4,78.55"/>
	<path class="st0" d="M457.96,481.96c4.42,24.08,14.61,47.09,29.47,66.55"/>
	<path class="st0" d="M465.47,503.07c7.87,19.43,18.82,37.61,32.3,53.66"/>
	<path class="st0" d="M370.77,524.4c10.36,20.65,24.63,39.32,41.85,54.73"/>
	<path class="st0" d="M390.35,546.79c8.34,17.58,21.76,32.72,38.21,43.11"/>
	<path class="st0" d="M379.85,548.65c13.19,19.48,30.28,36.31,49.96,49.2"/>
	<path class="st0" d="M392.38,558.97c13.28,21.28,33.9,37.88,57.53,46.31"/>
	<path class="st0" d="M436.46,598.56c16.74,11.34,36.31,18.46,56.42,20.52"/>
	<path class="st0" d="M459.02,605.27c12.22,4.24,24.61,7.96,37.14,11.16"/>
	<path class="st0" d="M471.01,611.4c6.07,2.29,12.7,2.73,19.16,2.19c6.46-0.54,12.8-2.03,19.11-3.52"/>
	<path class="st0" d="M501.48,558.67c13.81,12.47,19.67,33.06,14.51,50.94"/>
	<path class="st0" d="M466.64,498.67c12.69,1.89,25.63,2.03,38.35,0.42"/>
	<path class="st0" d="M510.86,498c14.75,0.39,29.57-2.3,43.24-7.85"/>
	<path class="st0" d="M346.98,375.65c24.69,9,47.89,22.05,70.07,41.42c23.57,24.43,51.75,44.39,87.09,61.48
		c23.94,10.43,51.19,13.11,76.71,7.54"/>
	<path class="st0" d="M328.27,357.03c23.4,1.77,46.44,8.31,67.29,19.08"/>
	<path class="st0" d="M408.31,386.14c21.8,17.55,43.6,35.1,72.96,54.77c21.62,15.35,48.83,22.64,75.23,20.15"/>
	<path class="st0" d="M572.8,461.23c16.12,2.88,32.95,1.66,48.49-3.49"/>
	<path class="st0" d="M634.37,446.82c16.33-5.45,31.67-13.86,45.05-24.7"/>
	<path class="st0" d="M559.39,307.29c24.47,23.75,51.2,45.18,86.3,71.31c20.67,20.1,44.31,37.14,69.91,50.39"/>
	<path class="st0" d="M538.01,485.75c38.26,3.74,77.58-4.15,111.43-22.38"/>
	<path class="st0" d="M570.45,481.06c39.54,1.31,79.4-12.28,109.92-37.46"/>
	<path class="st0" d="M629.54,476.39c26.58-6.86,51.44-20.32,71.72-38.84"/>
	<path class="st0" d="M653.59,460.44c24.96-6.56,48.09-19.97,66.17-38.38"/>
	<path class="st0" d="M624.69,452.9c28.41-7.9,54.61-23.58,74.99-44.88"/>
	<path class="st0" d="M579.77,487.64c7.23,16.86,23.87,29.31,42.09,31.5"/>
	<path class="st0" d="M641.84,467.2c16.39,12.67,34.46,23.16,53.59,31.11"/>
	<path class="st0" d="M605.42,517.07c26.3,13.61,60.53,10.05,83.46-8.68"/>
	<path class="st0" d="M625.6,521.18c23.84,4.23,49.33-1.74,68.81-16.13"/>
	<path class="st0" d="M645.32,472.78c14.08,11.02,30.66,18.82,48.12,22.66"/>
	<path class="st0" d="M582.95,495.2c10.17,11.45,23.97,19.62,38.9,23.04"/>
	<path class="st0" d="M461.6,493.9c20.53,2.97,41.66,1.75,61.71-3.56"/>
	<path class="st0" d="M476.09,498.23c22.22,1.5,44.73-1.59,65.72-9.01"/>
	<path class="st0" d="M351.97,375.24c28.02,9.26,54.11,24.33,76.13,43.98"/>
	<path class="st0" d="M372.79,382.79c25.46,23.11,52.72,44.23,81.45,63.11"/>
	<path class="st0" d="M360.57,374.87c39.91,27.18,78.61,56.15,115.94,86.79"/>
	<path class="st0" d="M314.98,322.34c-0.77,0.12-1.54,0.23-2.31,0.35c22.27-16.9,47.46-29.93,74.12-38.34"/>
	<path class="st0" d="M373.82,288.27c25.25-13.07,53.55-20.2,81.98-20.65"/>
	<path class="st0" d="M396.99,276.58c29-10.08,60.85-11.8,90.77-4.89"/>
	<path class="st0" d="M405.58,271.84c36.04-11.58,75.87-11,111.56,1.62"/>
	<path class="st0" d="M453.54,266.58c30.32-0.45,60.72,8.66,85.8,25.7"/>
	<path class="st0" d="M518.36,278.9c25.08,11.27,48.56,26.11,69.5,43.93"/>
	<path class="st0" d="M691.76,408.78c-31.27-17.67-60.35-39.21-86.37-63.96"/>
	<path class="st0" d="M689.74,417.47c-25.61,19.35-54.99,33.68-86.01,41.94"/>
	<path class="st0" d="M499.73,449.93c29.52,9.34,60.66,13.52,91.6,12.32"/>
	<path class="st0" d="M418.33,390.64c24.82,28.05,57.23,49.31,92.84,60.9"/>
	<path class="st0" d="M597.17,336.12c-12.68-15.37-28.86-27.84-46.96-36.18"/>
	<path class="st0" d="M583.84,323.82c-22.51-18.07-46.77-33.96-72.33-47.38"/>
	<path class="st0" d="M542.05,289.92c-15.11-11.8-33.12-19.86-52-23.27"/>
	<path class="st0" d="M525.22,281.86c-12.6-10.23-29.73-12.31-45.87-13.99"/>
	<path class="st0" d="M382.74,281.38c-21.43,11.22-42.85,22.44-64.28,33.67"/>
	<path class="st0" d="M359.46,377.47c21.58,9.99,42.43,21.55,62.34,34.54"/>
	<path class="st0" d="M403.24,403.33c27.97,22.63,55.95,45.27,83.92,67.9"/>
	<path class="st0" d="M440.74,438.96c24.35,21.52,54.21,36.77,85.92,43.88"/>
	<path class="st0" d="M515.56,480.44c25.99,12.42,57.16,13.52,83.96,2.95"/>
	<path class="st0" d="M566.63,485.8c25.43,1.38,51.17-3.45,74.37-13.96"/>
	<path class="st0" d="M630.03,471.35c22.34-6.57,43.25-17.97,60.87-33.19"/>
	<path class="st0" d="M683.1,446.45c8.37-6.98,16.74-13.95,25.11-20.93"/>
	<path class="st0" d="M143.5,241.81c-7.86-1.2-16.1,0.26-23.07,4.1c-6.96,3.84-12.6,10.02-17.03,18.27
		c-5.63,15.63-3.67,33.8,5.16,47.86c8.84,14.06,24.36,23.71,40.89,25.41"/>
	<path class="st0" d="M155.01,338.08c10.44,3.83,22.06,3.39,32.86,0.75c10.8-2.64,20.96-7.38,31.03-12.08"/>
	<path class="st0" d="M226.02,326.82c8.11,1.8,14.84,7.67,19.45,14.58c4.61,6.91,7.37,14.85,10.09,22.7"/>
	<path class="st0" d="M191.99,282.92c3.57,8.95,13.23,15.08,22.85,14.51"/>
	<path class="st0" d="M142.08,239.98c-19.49,1.56-37.49,15.25-44.19,33.61"/>
	<path class="st0" d="M97.49,280.57c0.15,14.42,5.99,28.71,15.97,39.13"/>
	<path class="st0" d="M125.53,328.28c4.65,3.2,9.74,5.77,15.08,7.6"/>
	<path class="st0" d="M99.68,279.73c8.32,8.91,19.59,15.02,31.6,17.12"/>
	<path class="st0" d="M124.12,292.62c11.39,5.91,24.39,8.65,37.19,7.84"/>
	<path class="st0" d="M101.3,280.16c23.99,18.03,56.78,23.7,85.44,14.78"/>
	<path class="st0" d="M151.91,299.23c12.46,1.38,25.3-0.83,36.57-6.3"/>
	<path class="st0" d="M191.93,284.09c-0.64,1.51-0.34,3.3,0.46,4.73s2.05,2.56,3.34,3.56c5.25,4.1,11.68,6.67,18.31,7.32"/>
	<path class="st0" d="M193.35,288.48c2.7,3.32,6.33,5.89,10.36,7.35"/>
	<path class="st0" d="M185.94,203.62c9.94,8.18,23.88,11.25,36.33,7.98"/>
	<path class="st0" d="M140.6,239.84c8.27-15.94,22.16-28.89,38.64-36.03s35.42-8.42,52.71-3.56"/>
	<path class="st0" d="M241.56,204.83c28.82,15.27,48.11,47.08,48.32,79.7"/>
	<path class="st0" d="M271.59,228.85c-12.22-14.81-28.58-26.16-46.73-32.42"/>
	<path class="st0" d="M137.75,239.67c3.64-6.23,8.16-11.96,13.36-16.95"/>
	<path class="st0" d="M158.55,215.59c16.86-16.3,42.33-23.13,65.09-17.47"/>
	<path class="st0" d="M203.9,250.93c-3.07,0.35-6.12-1.26-8.15-3.58c-2.04-2.32-3.22-5.26-4.14-8.21
		c-3.73-11.94-3.45-26.04,6.16-36.5c3.78-3.45,9.7-4.03,14.38-1.97c4.68,2.06,8.12,6.45,9.68,11.32s1.39,10.18,0.24,15.17"/>
	<path class="st0" d="M176.53,203.79c-0.77-3.78-4.38-6.79-8.24-6.86c-3.86-0.07-7.58,2.79-8.49,6.54"/>
	<path class="st0" d="M223.53,326.09c1.9-1.34,4.51-1.37,6.69-0.56s4.02,2.34,5.69,3.97c10.2,9.93,15.61,23.65,20.73,36.94"/>
	<path class="st0" d="M261.83,381.63c5.67,19.32,14.56,37.69,26.2,54.11"/>
	<path class="st0" d="M293.16,441.95c9.82,15.8,25.07,28.16,42.56,34.5"/>
	<path class="st0" d="M329.19,469.9c8.35,6.78,18.25,11.63,28.72,14.06"/>
	<path class="st0" d="M348.44,380.05c-0.89,11.21-1.78,22.41-2.67,33.62"/>
	<path class="st0" d="M311.82,321.33c28.57-22.59,62.27-38.64,97.81-46.59"/>
	<path class="st0" d="M276.59,236.65c7.32,31.52,17.9,62.28,31.53,91.63"/>
	<path class="st0" d="M582.79,490.68c10.83,16.55,28.61,28.38,48.05,31.99c19.44,3.61,40.28-1.06,56.33-12.62"/>
	<path class="st0" d="M659.19,463.48c16.1-10.58,31.83-21.73,47.16-33.41"/>
	<path class="st0" d="M176.11,204.6c-0.49-3.81-4.7-6.4-8.51-5.97s-7.04,3.25-8.95,6.58c-1.91,3.33-2.73,7.17-3.5,10.93"/>
	<path class="st0" d="M264.54,385.14c-17.62,12.28-35.24,24.56-52.86,36.83c-8.85,6.16-18.55,13.77-19.3,24.53"/>
	<path class="st0" d="M460.75,315c-10.54-3.49-22.55-0.31-31.29,6.53c-8.74,6.84-14.48,16.93-17.94,27.47s-4.79,21.65-6.11,32.67"/>
	<path class="st0" d="M198.39,190.16c6.52-0.92,13.42,1.38,18.09,6.02"/>
	<path class="st0" d="M556.68,303c6.5,5.37,12.99,10.74,21.75,20.1c15.41,12.54,30.82,25.07,46.22,37.61"/>
	<path class="st0" d="M637.54,369.61c19.26,16.17,40.3,30.23,62.61,41.85"/>
	<path class="st0" d="M675.39,402.84c12.77,8.25,26.43,15.14,40.65,20.52"/>
</g>
<g id="Layer_3">
	<path class="st0" d="M448.82,267.22c1.75,14.22,9.69,27.56,21.34,35.89c11.65,8.33,26.85,11.52,40.87,8.57
		c12.12-2.55,24.12-10.86,26.36-23.04"/>
	<path class="st0" d="M389.47,279.95c2.83,8.76,9.63,16.36,18.37,19.28c8.73,2.91,19.21,0.65,25.33-6.23
		c6.12-6.88,6.96-18.17,1.26-25.41"/>
	<path class="st0" d="M319.69,341.86c14.44-18.8,33.99-33.64,55.99-42.47c5.79-2.33,13.11-3.99,17.7,0.24
		c3.01,2.77,3.73,7.2,4.03,11.28c1.42,19.45-2.93,39.29-12.35,56.37"/>
	<path class="st0" d="M405.93,379.07c0.81-12.06,1.65-24.26,5.34-35.77c3.68-11.51,10.55-22.45,20.95-28.62s24.63-6.58,34.07,0.97
		c6.04,4.84,9.49,12.17,12.18,19.42c11.63,31.45,12.44,66.79,2.24,98.73"/>
	<path class="st0" d="M502.99,444.07c-2.91-27.77-0.65-56.08,6.66-83.03c2.67-9.85,7.25-20.82,16.99-23.88
		c6.13-1.92,12.97-0.04,18.26,3.61s9.25,8.89,12.83,14.22c20.64,30.78,31.26,68.18,29.88,105.21"/>
	<path class="st0" d="M620.35,452.24c-11.93-16.65-17.01-37.09-21.85-56.99c-1.53-6.3-3.07-12.73-2.6-19.19
		c0.48-6.47,3.31-13.1,8.8-16.55s13.78-2.59,17.3,2.86"/>
	<path class="st0" d="M548.18,298.01c-6.98,12.51-2.06,29.29,8.64,38.83c10.7,9.53,25.74,12.82,40.07,12.55"/>
</g>
</svg>
