<svg id="Layer_1" data-name="Layer 1" xmlns="http://www.w3.org/2000/svg" viewBox="0 0 57.5 71.85"><defs><style>.cls-1{fill:none;stroke:#000;stroke-miterlimit:10;}</style></defs><path class="cls-1" d="M40.39,77.88a27.54,27.54,0,0,1,3-.74,30.69,30.69,0,0,1,9.34-.33A24.1,24.1,0,0,1,50,72c-.63-1.46-.76-5.47-1.08-7a22.46,22.46,0,0,1-.46-4.08c1.76,0,9.82.39,11.57.23a37.36,37.36,0,0,0,5.19-.8,29.24,29.24,0,0,0,3.84-1.13,17.71,17.71,0,0,0,2.79-1.29,10.05,10.05,0,0,0,2.34-1.82,7.43,7.43,0,0,0,1.91-3.91,6.26,6.26,0,0,0-1.58-4.9c-1.32-1.43-6-3-8.25-4A18.74,18.74,0,0,0,60.53,42c1-.57,4.1-1.54,5.09-2.18a25.77,25.77,0,0,0,3.1-2c1.19-1.38,2.29-3.3,1.52-4.87-.95-1.93-1.43-2.75-3.19-3.19-1.11-.28-5-.71-6-1.19a9.73,9.73,0,0,0,1-3.87,33.58,33.58,0,0,0-1.43-8.31,11.79,11.79,0,0,0-2.38-3.32A17.32,17.32,0,0,0,55.52,11a24.78,24.78,0,0,0-2.45-1.42,23.7,23.7,0,0,0-3.53-1.43,19.05,19.05,0,0,0-3.27-.71,14.93,14.93,0,0,0-3-.07,12.7,12.7,0,0,0-3.4.76,10.57,10.57,0,0,0-3,1.72A7.47,7.47,0,0,0,35.05,12a5.93,5.93,0,0,0-.45,4.31c.41,1.5,1.94,6.76,3.46,7.53a19.23,19.23,0,0,0-7.9,1.71A17.87,17.87,0,0,0,26.24,28a16,16,0,0,0-2.42,2.38,9.62,9.62,0,0,0-2.13,4.16,6.57,6.57,0,0,0,.23,3.29,7.57,7.57,0,0,0,2.39,3.48A9,9,0,0,0,27,42.8a10.27,10.27,0,0,0,5.1.45c-1.75.83-7.54,3.21-8.89,4.48a12.35,12.35,0,0,0-2.58,3.39,9.19,9.19,0,0,0-1,4.43,7.86,7.86,0,0,0,1.58,4.53,11.38,11.38,0,0,0,4.82,3.43,15.39,15.39,0,0,0,3.86,1,13.15,13.15,0,0,0,4-.06,62.47,62.47,0,0,0,6.94-2.24,13.27,13.27,0,0,0,1.8-1.09c2.27-1.62,1.4,1.11,1.14,2.6-.16.94-.68,4.37-.88,5.3-.31,1.42-.66,2.84-1.07,4.25S40.94,76.36,40.39,77.88Z" transform="translate(-19.17 -6.79)"/></svg>