<svg id="Layer_1" data-name="Layer 1" xmlns="http://www.w3.org/2000/svg" viewBox="0 0 57.53 71.83"><path d="M20.41,71.86l.34-.94c.36-1,.63-1.83.84-2.64.2-.66.41-1.35.58-1.94s.27-1,.4-1.45l.09-.32c.2-.81.37-1.52.57-2.45.14-.62.43-2.45.64-3.8.1-.63.19-1.18.24-1.47s.08-.45.13-.69a7,7,0,0,0,.23-1.82,2.44,2.44,0,0,0-.72.4,14.75,14.75,0,0,1-1.87,1.13c-.33.17-1.16.46-2.49.91-1.72.58-3.91,1.25-4.58,1.37a13.5,13.5,0,0,1-4.16.06,15.35,15.35,0,0,1-4-1,12,12,0,0,1-5-3.57A8.37,8.37,0,0,1,0,48.77,9.83,9.83,0,0,1,1,44.1,13.07,13.07,0,0,1,3.7,40.57a19.76,19.76,0,0,1,4.21-2.38c.82-.39,1.68-.78,2.46-1.13a11,11,0,0,1-2.71-.58,9.58,9.58,0,0,1-2.83-1.57A8,8,0,0,1,2.28,31.2,7.09,7.09,0,0,1,2,27.66a10.19,10.19,0,0,1,2.24-4.4,16,16,0,0,1,2.49-2.44,18.19,18.19,0,0,1,4-2.51,19.47,19.47,0,0,1,6.92-1.72A15.54,15.54,0,0,1,16,13.06c-.54-1.47-.94-2.93-1.07-3.41A6.37,6.37,0,0,1,15.44,5a7.9,7.9,0,0,1,2-2.31A11,11,0,0,1,20.53.87,13.29,13.29,0,0,1,24.06.08a16,16,0,0,1,3.1.07,20.11,20.11,0,0,1,3.36.73,24,24,0,0,1,3.6,1.46,25.48,25.48,0,0,1,2.5,1.45,17.84,17.84,0,0,1,2.79,2.12A12.34,12.34,0,0,1,41.9,9.38a20.25,20.25,0,0,1,1,4,31.21,31.21,0,0,1,.51,4.55,10.28,10.28,0,0,1-.81,3.58,14.86,14.86,0,0,0,2.37.48l1,.17c.87.14,1.63.26,2.06.37,2,.49,2.54,1.47,3.52,3.45s-.58,4.24-1.59,5.42l-.08.07a26.19,26.19,0,0,1-3.16,2,19.73,19.73,0,0,1-2.86,1.24l-.51.2c.61.09,1.21.2,1.81.34a15.67,15.67,0,0,1,2.19.74c.55.24,1.24.52,2,.82s1.73.69,2.6,1.07a13.08,13.08,0,0,1,3.78,2.2,6.8,6.8,0,0,1,1.76,5.34,7.92,7.92,0,0,1-2,4.19A10.88,10.88,0,0,1,53,51.53a18.64,18.64,0,0,1-2.87,1.32A29.54,29.54,0,0,1,46.18,54a38.61,38.61,0,0,1-5.26.81,49,49,0,0,1-5.48,0l-3-.1c-1.07-.07-2-.08-2.62-.09a21.49,21.49,0,0,0,.43,3.48c.12.59.22,1.51.32,2.49,0,.39.08.79.13,1.19a13.4,13.4,0,0,0,.62,3.28,22.76,22.76,0,0,0,1.28,2.57c.42.71.88,1.42,1.37,2.09l.68.93-1.14-.13a30.16,30.16,0,0,0-9.19.32,26.86,26.86,0,0,0-2.94.73Zm4.13-18.53a.92.92,0,0,1,.48.14c.7.46.46,1.64.2,2.9,0,.23-.09.45-.13.65s-.13.83-.23,1.46c-.23,1.43-.51,3.2-.65,3.85-.2.94-.37,1.67-.59,2.49l-.08.33c-.14.49-.27,1-.41,1.47s-.38,1.3-.58,1.94-.32,1.14-.54,1.78c.7-.19,1.41-.35,2.12-.48a31.14,31.14,0,0,1,8.4-.45c-.28-.42-.55-.85-.8-1.28a22.39,22.39,0,0,1-1.36-2.73,14.49,14.49,0,0,1-.68-3.53c0-.38-.08-.78-.13-1.18-.1-.95-.19-1.85-.3-2.39a23.36,23.36,0,0,1-.47-4.17v-.51h.51c.57,0,1.76,0,3.19.09l3,.1a47.79,47.79,0,0,0,5.34,0A36.56,36.56,0,0,0,46,53a27.73,27.73,0,0,0,3.78-1.11,17.52,17.52,0,0,0,2.71-1.25,9.44,9.44,0,0,0,2.23-1.74,7,7,0,0,0,1.78-3.64A5.73,5.73,0,0,0,55,40.8a12.07,12.07,0,0,0-3.46-2c-.89-.39-1.78-.74-2.6-1.07s-1.47-.59-2-.83a13.08,13.08,0,0,0-2-.68,19.35,19.35,0,0,0-3.56-.52l-1.69-.09,1.47-.84a21.4,21.4,0,0,1,2.36-1,19.75,19.75,0,0,0,2.71-1.17,26.12,26.12,0,0,0,3-1.95c.85-1,2.12-2.83,1.41-4.28-.92-1.87-1.32-2.54-2.86-2.92-.39-.1-1.16-.23-2-.36l-1-.16a15.2,15.2,0,0,1-3.08-.69l-.54-.18.25-.51a9.2,9.2,0,0,0,1-3.67,28.8,28.8,0,0,0-.5-4.39A19.16,19.16,0,0,0,41,9.77a11.25,11.25,0,0,0-2.26-3.13,16.58,16.58,0,0,0-2.63-2,21.69,21.69,0,0,0-2.42-1.4,22.05,22.05,0,0,0-3.45-1.4A18,18,0,0,0,27,1.15a14.07,14.07,0,0,0-2.9-.07,12.13,12.13,0,0,0-3.26.73A10,10,0,0,0,18,3.45a6.7,6.7,0,0,0-1.7,2,5.35,5.35,0,0,0-.41,3.93c.13.47.53,1.9,1.05,3.33,1.14,3.09,1.89,3.75,2.16,3.88l1.84.95H18.89a18.39,18.39,0,0,0-7.69,1.67A16.91,16.91,0,0,0,7.39,21.6,14.68,14.68,0,0,0,5,23.91a9,9,0,0,0-2,3.95,6.09,6.09,0,0,0,.21,3,7.1,7.1,0,0,0,2.24,3.25A8.38,8.38,0,0,0,8,35.54a9.92,9.92,0,0,0,4.86.43l3.53-.59-3.24,1.53c-.37.18-.92.42-1.57.71-1,.43-2.13,1-3.26,1.48a19.81,19.81,0,0,0-4,2.24A12,12,0,0,0,1.9,44.56,8.81,8.81,0,0,0,1,48.75,7.31,7.31,0,0,0,2.44,53,11,11,0,0,0,7,56.25a14.9,14.9,0,0,0,3.75,1,12.81,12.81,0,0,0,3.86,0c.54-.1,2.57-.71,4.43-1.33.71-.24,2-.69,2.36-.86a12.82,12.82,0,0,0,1.74-1.06A2.63,2.63,0,0,1,24.54,53.33Z" transform="translate(0.04 -0.04)"/></svg>