<svg id="Layer_1" data-name="Layer 1" xmlns="http://www.w3.org/2000/svg" viewBox="0 0 49.33 65.45"><defs><style>.cls-1{fill:none;stroke:#000;stroke-miterlimit:10;}</style></defs><path class="cls-1" d="M40.73,75.38a27.54,27.54,0,0,1,3-.74,30.19,30.19,0,0,1,4.14-.5,31.15,31.15,0,0,1,5.2.17,24.1,24.1,0,0,1-2.73-4.8A23.37,23.37,0,0,1,48.93,65a22.46,22.46,0,0,1-.46-4.08c1.76,0,3.52-.06,5.27-.22a40.77,40.77,0,0,0,5.2-.8,30.22,30.22,0,0,0,3.84-1.14,18.59,18.59,0,0,0,2.79-1.29,10.17,10.17,0,0,0,2.34-1.81,7.54,7.54,0,0,0,1-8.76,9.07,9.07,0,0,0-3.35-3.33A11.42,11.42,0,0,0,60.53,42a22.5,22.5,0,0,0,3-1.92A10.93,10.93,0,0,0,65,38.68a5.68,5.68,0,0,0,1.52-4.87A6.11,6.11,0,0,0,64,30.36a16.25,16.25,0,0,0-3-1.75,9.63,9.63,0,0,0,.06-8.28A11.74,11.74,0,0,0,58.69,17a16.84,16.84,0,0,0-2.64-2.15,22,22,0,0,0-2.45-1.42A23.58,23.58,0,0,0,50.08,12a18.45,18.45,0,0,0-3.28-.71,14.93,14.93,0,0,0-3-.07,12.53,12.53,0,0,0-3.39.75,10.43,10.43,0,0,0-3,1.72,7.54,7.54,0,0,0-1.84,2.23,5.92,5.92,0,0,0-.44,4.31,5.7,5.7,0,0,0,2.92,3.62,19.23,19.23,0,0,0-7.9,1.71A17.87,17.87,0,0,0,26.24,28a16,16,0,0,0-2.42,2.38,9.62,9.62,0,0,0-2.13,4.16,6.57,6.57,0,0,0,.23,3.29,7.57,7.57,0,0,0,2.39,3.48A9,9,0,0,0,27,42.8a10.27,10.27,0,0,0,5.1.45,18.28,18.28,0,0,0-4.74,3.17,12.3,12.3,0,0,0-2.58,3.38,9.22,9.22,0,0,0-1,4.44,7.88,7.88,0,0,0,.85,3.35,6.52,6.52,0,0,0,.73,1.17,9.45,9.45,0,0,0,2.13,2,14.06,14.06,0,0,0,2.68,1.44,15.9,15.9,0,0,0,3.87,1,13.09,13.09,0,0,0,4-.07,10.12,10.12,0,0,0,2.8-.92,13.27,13.27,0,0,0,1.8-1.09c2.27-1.62,1.4,1.11,1.14,2.6-.16.94-.34,1.87-.54,2.8C43,68,42.62,69.39,42.21,70.8S41.28,73.87,40.73,75.38Z" transform="translate(-21.08 -10.69)"/></svg>