<svg id="Layer_1" data-name="Layer 1" xmlns="http://www.w3.org/2000/svg" viewBox="0 0 57.5 71.85"><defs><style>.cls-1{fill:none;stroke:#000;stroke-miterlimit:10;}</style></defs><path class="cls-1" d="M40.39,77.88a27.54,27.54,0,0,1,3-.74,30.69,30.69,0,0,1,9.34-.33,24.55,24.55,0,0,1-1.4-2.14A22.76,22.76,0,0,1,50,72a14.09,14.09,0,0,1-.64-3.37c-.16-1.41-.28-2.85-.44-3.64a22.46,22.46,0,0,1-.46-4.08c.55,0,1.74,0,3.16.09l3,.1c2.33.07,4.6.12,5.43,0a37.36,37.36,0,0,0,5.19-.8,29.24,29.24,0,0,0,3.84-1.13,17.71,17.71,0,0,0,2.79-1.29,10.05,10.05,0,0,0,2.34-1.82,7.43,7.43,0,0,0,1.91-3.91,6.26,6.26,0,0,0-1.58-4.9,12.62,12.62,0,0,0-3.66-2.12c-1.65-.72-3.44-1.38-4.59-1.89a13.72,13.72,0,0,0-2.11-.71A20.64,20.64,0,0,0,60.53,42c1-.57,4.1-1.54,5.09-2.18a25.77,25.77,0,0,0,3.1-2c1.19-1.38,2.29-3.3,1.52-4.87-.95-1.93-1.43-2.75-3.19-3.19-.56-.14-1.8-.32-3-.52a15.65,15.65,0,0,1-3-.67,9.73,9.73,0,0,0,1-3.87,29.64,29.64,0,0,0-.51-4.5,19.54,19.54,0,0,0-.92-3.81,11.79,11.79,0,0,0-2.38-3.32A17.32,17.32,0,0,0,55.52,11a24.78,24.78,0,0,0-2.45-1.42,23.7,23.7,0,0,0-3.53-1.43,19.05,19.05,0,0,0-3.27-.71,14.93,14.93,0,0,0-3-.07,12.7,12.7,0,0,0-3.4.76,10.57,10.57,0,0,0-3,1.72A7.47,7.47,0,0,0,35.05,12a5.93,5.93,0,0,0-.45,4.31c.18.65.56,2,1.06,3.37.67,1.82,1.54,3.72,2.4,4.16a19.23,19.23,0,0,0-7.9,1.71A17.87,17.87,0,0,0,26.24,28a16,16,0,0,0-2.42,2.38,9.62,9.62,0,0,0-2.13,4.16,6.57,6.57,0,0,0,.23,3.29,7.57,7.57,0,0,0,2.39,3.48A9,9,0,0,0,27,42.8a10.27,10.27,0,0,0,5.1.45c-.91.43-2.93,1.29-4.83,2.19a19.74,19.74,0,0,0-4.06,2.29,12.35,12.35,0,0,0-2.58,3.39,9.19,9.19,0,0,0-1,4.43,7.86,7.86,0,0,0,1.58,4.53,11.38,11.38,0,0,0,4.82,3.43,15.39,15.39,0,0,0,3.86,1,13.15,13.15,0,0,0,4-.06c.62-.11,2.75-.76,4.51-1.35,1.12-.38,2.1-.72,2.43-.89a13.27,13.27,0,0,0,1.8-1.09c2.27-1.62,1.4,1.11,1.14,2.6-.16.94-.68,4.37-.88,5.3s-.37,1.65-.58,2.47c-.16.59-.32,1.19-.49,1.78s-.38,1.29-.58,1.93C41,76.12,40.71,77,40.39,77.88Z" transform="translate(-19.17 -6.79)"/></svg>