<svg id="Layer_1" data-name="Layer 1" xmlns="http://www.w3.org/2000/svg" viewBox="0 0 57.51 71.83"><path d="M20.41,71.86l.34-.94c.48-1.32.89-2.76,1.26-4l.16-.54c.38-1.31.73-2.69,1.06-4.22.14-.62.43-2.45.64-3.8.1-.63.19-1.18.24-1.47s.08-.45.13-.69a7,7,0,0,0,.23-1.82,2.44,2.44,0,0,0-.72.4,14.75,14.75,0,0,1-1.87,1.13,63.16,63.16,0,0,1-7,2.27,13.47,13.47,0,0,1-4.2.07,15.35,15.35,0,0,1-4-1,12,12,0,0,1-5-3.57A8.37,8.37,0,0,1,0,48.77,9.83,9.83,0,0,1,1,44.1,13.07,13.07,0,0,1,3.7,40.57c1-1,4.22-2.42,6.67-3.51a11,11,0,0,1-2.71-.58,9.58,9.58,0,0,1-2.83-1.57A8,8,0,0,1,2.28,31.2,7.09,7.09,0,0,1,2,27.66a10.19,10.19,0,0,1,2.24-4.4,16,16,0,0,1,2.49-2.44,18.19,18.19,0,0,1,4-2.51,19.47,19.47,0,0,1,6.93-1.72c-1.19-1.65-2.2-4.88-2.76-6.94A6.37,6.37,0,0,1,15.44,5a7.9,7.9,0,0,1,2-2.31A11,11,0,0,1,20.53.87,13.29,13.29,0,0,1,24.06.08a16,16,0,0,1,3.1.07,20.11,20.11,0,0,1,3.36.73,24,24,0,0,1,3.6,1.46,25.48,25.48,0,0,1,2.5,1.45,17.84,17.84,0,0,1,2.79,2.12A12.34,12.34,0,0,1,41.9,9.38a34.31,34.31,0,0,1,1.48,8.51,10.17,10.17,0,0,1-.82,3.6c.82.23,2.25.45,3.36.63.89.14,1.66.26,2.08.37,2,.49,2.54,1.47,3.52,3.45s-.58,4.24-1.59,5.42l-.08.07a26.19,26.19,0,0,1-3.16,2,19.73,19.73,0,0,1-2.86,1.24l-.56.22a18.76,18.76,0,0,1,4,1.12c.57.25,1.28.53,2.05.84,2.49,1,5.31,2.13,6.38,3.28a6.81,6.81,0,0,1,1.71,5.3,7.86,7.86,0,0,1-2,4.19,10.66,10.66,0,0,1-2.46,1.92,18.53,18.53,0,0,1-2.86,1.32,29.54,29.54,0,0,1-3.9,1.15,38.85,38.85,0,0,1-5.26.81c-1.17.11-5,0-8.09-.13-1.22,0-2.3-.08-3-.09a21.37,21.37,0,0,0,.43,3.47c.12.59.21,1.47.32,2.5a20.09,20.09,0,0,0,.73,4.4A24,24,0,0,0,34,69.72l.68.93-1.14-.13a30.16,30.16,0,0,0-9.19.32,26.86,26.86,0,0,0-2.94.73Zm4.13-18.53a.92.92,0,0,1,.48.14c.7.46.46,1.64.2,2.9,0,.23-.09.45-.13.65s-.13.83-.23,1.46c-.23,1.43-.51,3.2-.65,3.85-.34,1.56-.69,3-1.08,4.29l-.16.54c-.29,1-.61,2.11-1,3.18.7-.19,1.41-.35,2.12-.48a31.14,31.14,0,0,1,8.4-.45,24.5,24.5,0,0,1-2.16-4,20.11,20.11,0,0,1-.81-4.7c-.09-1-.19-1.86-.3-2.4a23.36,23.36,0,0,1-.47-4.17v-.51h.51c.61,0,2,0,3.55.1,2.9.1,6.86.23,8,.13a36.82,36.82,0,0,0,5.12-.79A27.73,27.73,0,0,0,49.72,52a17.52,17.52,0,0,0,2.71-1.25A9.88,9.88,0,0,0,54.66,49a7,7,0,0,0,1.78-3.65A5.73,5.73,0,0,0,55,40.85c-.91-1-3.86-2.17-6-3-.78-.31-1.51-.6-2.07-.85a18,18,0,0,0-5.57-1.26l-1.66-.11,1.44-.82a21.4,21.4,0,0,1,2.36-1,19.75,19.75,0,0,0,2.71-1.17,26.12,26.12,0,0,0,3-1.95c.85-1,2.12-2.83,1.41-4.28-.92-1.87-1.32-2.54-2.86-2.92-.38-.1-1.17-.23-2-.36a21.19,21.19,0,0,1-4.1-.87L41.21,22l.22-.45a9.2,9.2,0,0,0,1-3.67A32.93,32.93,0,0,0,41,9.75a11.21,11.21,0,0,0-2.25-3.11,16.58,16.58,0,0,0-2.63-2,21.69,21.69,0,0,0-2.42-1.4,22.05,22.05,0,0,0-3.45-1.4A18,18,0,0,0,27,1.15a14.07,14.07,0,0,0-2.9-.07,12.13,12.13,0,0,0-3.26.73A10,10,0,0,0,18,3.45a6.7,6.7,0,0,0-1.7,2,5.35,5.35,0,0,0-.41,3.93c1.06,3.88,2.35,6.78,3.21,7.21l1.86.95H18.89a18.39,18.39,0,0,0-7.69,1.67A16.91,16.91,0,0,0,7.39,21.6,14.68,14.68,0,0,0,5,23.91a9,9,0,0,0-2,3.95,6.09,6.09,0,0,0,.21,3,7.1,7.1,0,0,0,2.24,3.25A8.38,8.38,0,0,0,8,35.54a9.92,9.92,0,0,0,4.86.43l3.51-.59-3.22,1.53c-.38.19-1,.45-1.66.75-2.28,1-6.11,2.71-7.1,3.64A12.14,12.14,0,0,0,1.9,44.56,8.81,8.81,0,0,0,1,48.75,7.31,7.31,0,0,0,2.44,53,11,11,0,0,0,7,56.25a14.9,14.9,0,0,0,3.75,1,12.81,12.81,0,0,0,3.86,0A64.09,64.09,0,0,0,21.48,55a12.14,12.14,0,0,0,1.69-1A2.63,2.63,0,0,1,24.54,53.33Z" transform="translate(0.04 -0.04)"/></svg>