<?xml version="1.0" encoding="utf-8" ?>
<svg baseProfile="full" height="166" version="1.1" viewBox="0,0,318,166" width="318" xmlns="http://www.w3.org/2000/svg" xmlns:ev="http://www.w3.org/2001/xml-events" xmlns:xlink="http://www.w3.org/1999/xlink">
	<path d="M 235.577530 6.268200 L 237.497813 6.319275 L 239.410365 6.498448 L 241.303226 6.825268 L 243.118581 7.452134 L 244.797064 8.386063 L 246.371696 9.486303 L 247.879185 10.676922 L 249.377965 11.878485 L 250.875600 13.081474 L 252.405591 14.243012 L 253.990525 15.328290 L 255.593433 16.386945 L 257.257410 17.346438 L 259.051708 18.028695 L 260.915713 18.489930 L 262.797610 18.874971 L 264.684946 19.232758 L 266.573056 19.586506 L 268.461700 19.937392 L 270.350941 20.285048 L 272.234577 20.661737 L 274.103512 21.105133 L 275.951436 21.629008 L 277.760632 22.273019 L 279.494219 23.097242 L 281.100915 24.145640 L 282.556259 25.396048 L 283.905409 26.762468 L 285.162769 28.213989 L 286.269675 29.781909 L 287.156571 31.482563 L 287.898813 33.253507 L 288.742563 34.977834 L 289.955628 36.453888 L 291.188862 37.926204 L 292.455902 39.369704 L 293.853296 40.685125 L 295.394410 41.828219 L 297.077818 42.746969 L 298.869939 43.431307 L 300.711660 43.975185 L 302.561209 44.494090 L 304.410413 45.014225 L 306.234049 45.616728 L 308.007766 46.352422 L 309.666292 47.316907 L 311.311299 48.303194 L 312.849887 49.444443 L 314.327756 50.656086 L 315.620330 52.059908 L 316.866760 53.512932" fill="none" stroke="black" stroke-width="1.000000" />
	<path d="M 235.577530 6.268200 L 234.464087 7.657839 L 233.488967 9.131723 L 232.543587 10.630138 L 231.972406 12.313627 L 231.639791 14.062788 L 231.408959 15.828627 L 231.236818 17.601366 L 231.101296 19.377187 L 231.016602 21.156102 L 230.987210 22.936819 L 231.006154 24.717803 L 231.056927 26.498158 L 231.145542 28.277052 L 231.274654 30.053501" fill="none" stroke="black" stroke-width="1.000000" />
	<path d="M 189.834808 129.261505 L 189.411050 130.928441 L 189.082886 132.616602 L 188.748371 134.303707 L 188.541697 136.010064 L 188.255292 137.704911 L 187.891011 139.385618 L 187.481224 141.055936 L 187.033651 142.716553 L 186.539734 144.363930 L 185.990585 145.993708 L 185.398870 147.608614 L 184.684860 149.172674 L 183.970764 150.736923" fill="none" stroke="black" stroke-width="1.000000" />
	<path d="M 182.185636 128.000157 L 182.380894 129.880395 L 182.611347 131.756627 L 182.905501 133.623827 L 183.278401 135.476739 L 183.731578 137.311547 L 184.263087 139.125116 L 184.863141 140.917293 L 185.525649 142.687362 L 186.247538 144.434190 L 187.033330 146.153373 L 187.819138 147.872589" fill="none" stroke="black" stroke-width="1.000000" />
	<path d="M 235.680594 12.151760 L 235.912425 12.583238 L 236.144257 13.014717 L 236.376088 13.446195 L 236.608370 13.877431 L 236.841942 14.307969 L 237.075513 14.738508 L 237.309085 15.169047 L 237.540233 15.600884 L 237.769121 16.033931 L 237.998010 16.466978 L 238.226899 16.900025 L 238.432974 17.344175 L 238.632552 17.791487 L 238.832130 18.238799 L 239.030016 18.686774 L 239.187185 19.150689 L 239.344354 19.614604 L 239.501522 20.078520 L 239.649858 20.545137 L 239.779159 21.017579 L 239.908459 21.490020 L 240.037759 21.962462 L 240.138614 22.441191 L 240.220497 22.924114 L 240.302380 23.407037 L 240.384263 23.889960 L 240.426882 24.377824 L 240.467194 24.865978 L 240.507507 25.354132 L 240.541026 25.842621 L 240.548804 26.332375 L 240.556582 26.822129 L 240.564360 27.311883 L 240.552574 27.801120 L 240.518957 28.289781 L 240.485341 28.778442 L 240.451724 29.267103 L 240.399585 29.754008 L 240.340821 30.240286 L 240.223292 31.212842" fill="none" stroke="black" stroke-width="1.000000" />
	<path d="M 312.457825 57.307922 L 311.563392 59.038756 L 310.603890 60.729561 L 309.521868 62.342752 L 308.305671 63.855268 L 306.996233 65.291586 L 305.510234 66.535433 L 303.959069 67.674807 L 302.294817 68.685435 L 300.528017 69.506305 L 298.701014 70.181641 L 296.813807 70.657350 L 294.886455 70.934363 L 292.942674 71.069882 L 290.994436 71.130238 L 289.045397 71.163857 L 287.096247 71.190740 L 285.148720 71.263795 L 283.202322 71.370779 L 281.256139 71.481508 L 279.309298 71.578610 L 277.362787 71.681383 L 275.415516 71.758502 L 273.467988 71.831264 L 271.525429 71.987840 L 269.591368 72.227834 L 267.669289 72.549924 L 265.762076 72.951139 L 263.869606 73.417733 L 261.992858 73.943577 L 260.134951 74.532797 L 258.291860 75.167406 L 256.459880 75.833266 L 254.638869 76.528792 L 252.823731 77.239523 L 251.020080 77.978395 L 249.238790 78.769772 L 247.469785 79.588605 L 245.696806 80.398827 L 243.925137 81.211897 L 242.157704 82.034125 L 240.395747 82.868021 L 238.636611 83.707862 L 236.873412 84.539146 L 235.107127 85.363843 L 233.336741 86.179713 L 231.564453 86.991440 L 229.790553 87.799640 L 228.017789 88.610329 L 226.244072 89.418934 L 224.471083 90.229129 L 222.695221 91.033000 L 220.915019 91.827218 L 219.131775 92.614589 L 217.349276 93.403642 L 215.568124 94.195713 L 213.780332 94.972694 L 211.987408 95.737723 L 210.185386 96.481112 L 208.382129 97.221468 L 206.570491 97.941103 L 204.761587 98.667587 L 202.952059 99.392475 L 201.154621 100.146877 L 199.361831 100.912258 L 197.576281 101.694370 L 195.803895 102.505885 L 194.022248 103.296863" fill="none" stroke="black" stroke-width="1.000000" />
	<path d="M 222.276486 39.679064 L 222.262252 40.178031 L 222.248019 40.676998 L 222.233785 41.175965 L 222.217453 41.674844 L 222.189992 42.173259 L 222.162532 42.671673 L 222.135071 43.170087 L 222.101810 43.668074 L 222.056007 44.165138 L 222.010204 44.662202 L 221.964402 45.159266 L 221.911020 45.655508 L 221.849120 46.150825 L 221.787220 46.646142 L 221.725320 47.141459 L 221.656219 47.635791 L 221.582786 48.129530 L 221.509354 48.623269 L 221.435921 49.117008 L 221.353917 49.609375 L 221.269472 50.101350 L 221.185026 50.593325 L 221.100581 51.085301 L 221.000025 51.574217 L 220.898313 52.062915 L 220.796601 52.551613 L 220.693579 53.040016 L 220.576563 53.525277 L 220.459547 54.010538 L 220.342532 54.495798 L 220.222275 54.980228 L 220.091495 55.461962 L 219.960715 55.943696 L 219.829935 56.425429 L 219.694347 56.905790 L 219.551073 57.383957 L 219.407800 57.862123 L 219.264526 58.340290 L 219.115949 58.816807 L 218.962713 59.291875 L 218.809478 59.766943 L 218.656242 60.242011 L 218.499342 60.715877 L 218.341437 61.189413 L 218.183532 61.662949 L 218.025627 62.136486 L 217.855404 62.605724 L 217.684448 63.074707 L 217.513492 63.543689 L 217.341547 64.012301 L 217.161875 64.478014 L 216.982203 64.943727 L 216.802531 65.409440 L 216.626025 65.876334 L 216.456930 66.345991 L 216.287835 66.815648 L 216.118741 67.285305 L 215.946488 67.753799 L 215.770547 68.220934 L 215.594606 68.688069 L 215.418665 69.155204 L 215.237347 69.620257 L 215.052790 70.084056 L 214.868234 70.547856 L 214.683678 71.011655 L 214.481677 71.468017 L 214.274830 71.922313 L 214.067982 72.376609 L 213.861135 72.830905 L 213.638056 73.277425 L 213.413652 73.723310 L 213.189248 74.169195 L 212.963428 74.614323 L 212.717089 75.048474 L 212.470750 75.482626 L 212.224410 75.916778 L 211.975870 76.349643 L 211.718567 76.777388 L 211.461264 77.205133 L 211.203961 77.632878 L 210.942765 78.058208 L 210.673862 78.478758 L 210.404960 78.899308 L 210.136057 79.319857 L 209.862147 79.737115 L 209.582582 80.150653 L 209.303016 80.564191 L 209.023450 80.977729 L 208.739231 81.388056 L 208.451946 81.796270 L 208.164661 82.204483 L 207.877375 82.612696 L 207.584901 83.017189 L 207.290566 83.420349 L 206.996231 83.823508 L 206.701896 84.226668 L 206.400257 84.624376 L 206.097508 85.021256 L 205.492010 85.815015" fill="none" stroke="black" stroke-width="1.000000" />
	<path d="M 209.490192 66.928872 L 209.201289 67.333496 L 208.912386 67.738121 L 208.623482 68.142745 L 208.334395 68.547236 L 208.041226 68.948780 L 207.748057 69.350324 L 207.454888 69.751869 L 207.161510 70.153259 L 206.865940 70.553040 L 206.570370 70.952820 L 206.274801 71.352600 L 205.978918 71.752148 L 205.680965 72.150155 L 205.383012 72.548162 L 205.085058 72.946169 L 204.786406 73.343647 L 204.484446 73.738623 L 204.182486 74.133599 L 203.880525 74.528575 L 203.577729 74.922904 L 203.271942 75.314925 L 202.966156 75.706947 L 202.660370 76.098968 L 202.353575 76.490194 L 202.043943 76.879185 L 201.734311 77.268176 L 201.424680 77.657167 L 201.113671 78.045048 L 200.799545 78.430419 L 200.485419 78.815790 L 200.171294 79.201162 L 199.855839 79.585438 L 199.537918 79.967684 L 199.219997 80.349931 L 198.902076 80.732177 L 198.582096 81.112686 L 198.258950 81.490525 L 197.935804 81.868365 L 197.612659 82.246204 L 197.287822 82.622582 L 196.960823 82.997092 L 196.633825 83.371602 L 196.306827 83.746113 L 195.977583 84.118638 L 195.645937 84.489038 L 195.314291 84.859439 L 194.982645 85.229839 L 194.648812 85.598260 L 194.313013 85.964900 L 193.977215 86.331541 L 193.641417 86.698181 L 193.303464 87.062828 L 192.963889 87.425974 L 192.624315 87.789120 L 192.284740 88.152266 L 191.941961 88.512371 L 191.597167 88.870565 L 191.252373 89.228759 L 190.907579 89.586953 L 190.560218 89.942649 L 190.211526 90.297049 L 189.862834 90.651450 L 189.514142 91.005850 L 189.162860 91.357675 L 188.810479 91.708408 L 188.458098 92.059141 L 188.105717 92.409873 L 187.749256 92.756442 L 187.391404 93.101590 L 187.033551 93.446739 L 186.675698 93.791887 L 186.315096 94.134155 L 185.953755 94.475650 L 185.592415 94.817145 L 185.231074 95.158639 L 184.866849 95.497051 L 184.502037 95.834835 L 184.137224 96.172618 L 183.772411 96.510401 L 183.402910 96.843039 L 183.032727 97.174927 L 182.662543 97.506815 L 182.292360 97.838704 L 181.920262 98.168443 L 181.547986 98.497983 L 181.175711 98.827524 L 180.803435 99.157064 L 180.427821 99.482792 L 180.052059 99.808350 L 179.676296 100.133909 L 179.300534 100.459468" fill="none" stroke="black" stroke-width="1.000000" />
	<path d="M 234.774647 41.720986 L 234.670995 42.208573 L 234.567344 42.696159 L 234.463692 43.183746 L 234.359257 43.671161 L 234.250441 44.157621 L 234.141625 44.644081 L 234.032808 45.130541 L 233.928265 45.617901 L 233.831583 46.106917 L 233.734901 46.595933 L 233.638219 47.084949 L 233.549108 47.575343 L 233.467368 48.067077 L 233.385627 48.558811 L 233.303886 49.050546 L 233.243648 49.545141 L 233.193968 50.041141 L 233.144287 50.537141 L 233.094607 51.033141 L 233.094992 51.531176 L 233.104258 52.029572 L 233.113524 52.527967 L 233.148509 53.023300 L 233.256562 53.509930 L 233.364615 53.996560 L 233.472668 54.483190 L 233.578027 54.970398 L 233.679207 55.458504 L 233.780386 55.946609 L 233.881566 56.434714 L 234.000611 56.918461 L 234.135600 57.398317 L 234.270588 57.878174 L 234.405577 58.358030 L 234.567507 58.829040 L 234.743253 59.295514 L 234.918999 59.761988 L 235.094744 60.228461 L 235.340585 60.660194 L 235.605355 61.082546 L 235.870125 61.504898 L 236.134895 61.927250 L 236.402604 62.347743 L 236.670669 62.768011 L 236.938735 63.188279 L 237.222259 63.596967 L 237.550238 63.972351 L 237.878218 64.347736 L 238.206197 64.723121 L 238.547147 65.085928 L 238.912280 65.425283 L 239.277414 65.764638 L 239.642547 66.103992 L 240.020261 66.428512 L 240.414710 66.733298 L 240.809158 67.038084 L 241.203607 67.342870 L 241.610704 67.629717 L 242.030282 67.898861 L 242.449859 68.168005 L 242.869437 68.437149 L 243.301842 68.684186 L 243.743729 68.914882 L 244.185615 69.145577 L 244.627502 69.376273 L 245.082317 69.578984 L 245.544423 69.765912 L 246.006529 69.952840 L 246.468635 70.139768 L 246.939838 70.301454 L 247.414952 70.452288 L 247.890066 70.603122 L 248.365180 70.753957 L 248.849110 70.871929 L 249.335923 70.979153 L 249.822736 71.086376 L 250.309550 71.193600 L 250.801891 71.270115 L 251.295537 71.339380 L 251.789183 71.408646 L 252.282829 71.477912 L 252.779130 71.523630 L 253.275807 71.566015 L 253.772483 71.608400 L 254.269160 71.650786 L 254.766848 71.678683 L 255.264597 71.705707 L 255.762346 71.732731 L 256.260094 71.759755" fill="none" stroke="black" stroke-width="1.000000" />
	<path d="M 152.733129 46.135620 L 151.833548 47.843147 L 150.946234 49.557079 L 150.347887 51.391652 L 149.763927 53.231184 L 149.180285 55.070818 L 148.604908 56.913053 L 148.018691 58.751866 L 147.416900 60.585641 L 146.796072 62.413055 L 146.176636 64.240947 L 145.540968 66.063252 L 144.898325 67.883114 L 144.253599 69.702240 L 143.611987 71.522466 L 143.001131 73.353217 L 142.356791 75.172439 L 141.712497 76.991718 L 141.080066 78.815150 L 140.415999 80.627264 L 139.737831 82.434185 L 139.059948 84.241217 L 138.388372 86.050601 L 137.738990 87.868054 L 137.110214 89.692743 L 136.496935 91.522704 L 135.909322 93.361056 L 135.350070 95.208232 L 134.824359 97.065227 L 134.357197 98.937767 L 133.943690 100.822904 L 133.643722 102.728711 L 133.363077 104.636789 L 133.147956 106.554441 L 132.952148 108.474419" fill="none" stroke="black" stroke-width="1.000000" />
	<path d="M 132.952148 108.474419 L 134.243826 109.894301 L 135.697362 111.147901 L 137.161052 112.389440 L 138.812647 113.367544 L 140.503262 114.276470 L 142.288773 114.981059 L 144.109125 115.589995 L 145.957704 116.106908 L 147.826356 116.545732 L 149.698866 116.967867 L 151.567308 117.407656 L 153.436007 117.846355 L 155.312735 118.249282 L 157.200418 118.597187 L 159.091663 118.925328 L 160.973984 119.301163 L 162.849292 119.710635 L 164.725580 120.115647 L 166.601582 120.521987 L 168.471056 120.957321 L 170.329862 121.436108 L 172.178669 121.952188 L 174.023275 122.483142 L 175.864729 123.024935 L 177.691618 123.613888 L 179.500035 124.257315 L 181.306113 124.907375 L 183.094132 125.605517 L 184.819421 126.444876 L 186.524323 127.321216 L 188.189753 128.272865 L 189.834808 129.261505" fill="none" stroke="black" stroke-width="1.000000" />
	<path d="M 232.155762 12.316797 L 230.169765 12.377956 L 228.182858 12.389001 L 226.198704 12.283928 L 224.224598 12.058602 L 222.273597 11.682518 L 220.350363 11.183522 L 218.461261 10.567760 L 216.600907 9.869916 L 214.761397 9.118838 L 212.933693 8.339466 L 211.110458 7.549694 L 209.284326 6.766646 L 207.452467 5.997091 L 205.613802 5.243944 L 203.764837 4.516449 L 201.902155 3.824831 L 200.022494 3.180784 L 198.121256 2.603538 L 196.198317 2.103315 L 194.257561 1.677423 L 192.307202 1.297923 L 190.343957 0.991992 L 188.374189 0.731345 L 186.391960 0.594691 L 184.406205 0.526162 L 182.420047 0.470494 L 180.433507 0.430717 L 178.446652 0.412549 L 176.459921 0.441058 L 174.475337 0.537617 L 172.494141 0.688511 L 170.517955 0.894882 L 168.550758 1.174198 L 166.594671 1.522918 L 164.650351 1.932196 L 162.718718 2.397692 L 160.801361 2.918871 L 158.902427 3.503615 L 157.024064 4.151397 L 155.168984 4.863115 L 153.334721 5.626897 L 151.513727 6.421810 L 149.699401 7.231836 L 147.885640 8.043126 L 146.062689 8.833546 L 144.209942 9.551280 L 142.325485 10.181032 L 140.413711 10.722217 L 138.456137 11.061312 L 136.470619 11.126894 L 134.486811 11.017622 L 132.506880 10.851048 L 130.528503 10.666815 L 128.550059 10.483292 L 126.570827 10.308459 L 124.591076 10.139621 L 122.610395 9.982060 L 120.629540 9.826702 L 118.649116 9.665951 L 116.668537 9.507103 L 114.688438 9.342395 L 112.707593 9.186907 L 110.725286 9.051374 L 108.742501 8.922982 L 106.759608 8.796247 L 104.776626 8.670924 L 102.793527 8.547474 L 100.810478 8.423217 L 98.827463 8.298414 L 96.844394 8.174473 L 94.861566 8.046747 L 92.878836 7.917497 L 90.896106 7.788248 L 88.913739 7.653546 L 86.931175 7.521777 L 84.948271 7.395233 L 82.965402 7.268145 L 80.981870 7.151874 L 78.997536 7.050207 L 77.012811 6.956465 L 75.027282 6.881764 L 73.040752 6.842129 L 71.053833 6.844024 L 69.067417 6.888717 L 67.081818 6.961419 L 65.096576 7.043488 L 63.111339 7.125695 L 61.126602 7.219145 L 59.144290 7.354335 L 57.166886 7.548313 L 55.197713 7.812956 L 53.239528 8.149375 L 51.294128 8.553250 L 49.364393 9.026321 L 47.456026 9.579231 L 45.573636 10.214954 L 43.716948 10.922301 L 41.886183 11.694295 L 40.080237 12.522716 L 38.299277 13.403583 L 36.545095 14.336634 L 34.819468 15.321491 L 33.126938 16.362176 L 31.470062 17.458735 L 29.851222 18.610699 L 28.272818 19.817470 L 26.738277 21.079539 L 25.250702 22.396633 L 23.812658 23.767630 L 22.420737 25.185455 L 21.072460 26.644857 L 19.773573 28.148367 L 18.534958 29.701869 L 17.366677 31.308900 L 16.280987 32.972798 L 15.303504 34.702367 L 14.437714 36.490472 L 13.673798 38.324476 L 13.007888 40.196315 L 12.437902 42.099570 L 11.949946 44.025540 L 11.531346 45.967798 L 11.187802 47.924711 L 10.922252 49.893716 L 10.754559 51.873394 L 10.685466 53.858962 L 10.708014 55.845628 L 10.824159 57.829014 L 11.020429 59.806123 L 11.306544 61.772203 L 11.675561 63.724446 L 12.117614 65.661485 L 12.632049 67.580567 L 13.210580 69.481332 L 13.858095 71.359696 L 14.575844 73.212354 L 15.358163 75.038700 L 16.199845 76.838471 L 17.101706 78.608846 L 18.049991 80.354835 L 19.029733 82.083399 L 20.039169 83.794794 L 21.089487 85.481377 L 22.182022 87.140923 L 23.311808 88.775348 L 24.489626 90.375464 L 25.708072 91.944894 L 26.967770 93.481400 L 28.266675 94.984913 L 29.596725 96.460973 L 30.970105 97.896743 L 32.371104 99.305649 L 33.802354 100.683792 L 35.260022 102.033979 L 36.749377 103.349099 L 38.274143 104.622970 L 39.818474 105.873128 L 41.381730 107.099533 L 42.939888 108.332438 L 44.505293 109.556125 L 46.061074 110.792020 L 47.584715 112.067234 L 49.071392 113.385344 L 50.543945 114.719317 L 51.910547 116.160753 L 53.195844 117.675658 L 54.380584 119.270239 L 55.478195 120.926185 L 56.505291 122.626882 L 57.464350 124.366867 L 58.359029 126.140839 L 59.140418 127.967119 L 59.891066 129.805412 L 60.580252 131.667800 L 61.211253 133.550854 L 61.787993 135.451366 L 62.313140 137.366894 L 62.789667 139.295168 L 63.219229 141.234492 L 63.602471 143.183513 L 63.938606 145.141175 L 64.229047 147.106150 L 64.465954 149.078186 L 64.657768 151.055101 L 64.797551 153.036566 L 64.894259 155.020644 L 64.949166 157.006410 L 64.964605 158.992913 L 64.937257 160.979194 L 64.877753 162.964883 L 64.794441 164.950027" fill="none" stroke="black" stroke-width="1.000000" />
	<path d="M 176.521547 12.624817 L 176.140162 12.946801 L 175.758778 13.268785 L 175.377393 13.590769 L 174.995498 13.912141 L 174.609575 14.228671 L 174.223651 14.545201 L 173.837727 14.861731 L 173.451435 15.177809 L 173.063866 15.492322 L 172.676297 15.806834 L 172.288727 16.121347 L 171.904612 16.439979 L 171.527382 16.766820 L 171.150151 17.093662 L 170.772921 17.420503 L 170.400209 17.752402 L 170.033129 18.090604 L 169.666049 18.428806 L 169.298969 18.767007 L 168.935446 19.108999 L 168.574751 19.454003 L 168.214057 19.799007 L 167.853363 20.144011 L 167.500189 20.496629 L 167.150727 20.853007 L 166.801265 21.209384 L 166.451803 21.565761 L 166.109045 21.928557 L 165.768144 22.293132 L 165.427243 22.657706 L 165.086342 23.022281 L 164.751586 23.392495 L 164.417532 23.763354 L 164.083479 24.134214 L 163.749934 24.505517 L 163.426852 24.885973 L 163.103770 25.266428 L 162.780689 25.646884 L 162.459799 26.029136 L 162.150119 26.420578 L 161.840440 26.812021 L 161.530761 27.203463 L 161.223873 27.597057 L 160.924108 27.996142 L 160.624342 28.395227 L 160.324577 28.794312 L 160.029822 29.197041 L 159.742534 29.605200 L 159.455245 30.013359 L 159.167957 30.421518 L 158.886638 30.833756 L 158.610735 31.249695 L 158.334831 31.665635 L 158.058928 32.081574 L 157.791358 32.502859 L 157.528347 32.927068 L 157.265336 33.351277 L 157.002325 33.775487 L 156.753938 34.208321 L 156.509940 34.643744 L 156.265941 35.079166 L 156.023993 35.515721 L 155.785493 35.954180 L 155.547865 36.393087 L 155.329889 36.842102 L 155.111913 37.291117 L 154.904413 37.744969 L 154.704050 38.202115 L 154.503686 38.659262 L 154.315798 39.121644 L 154.129871 39.584849 L 153.943944 40.048055 L 153.773060 40.516970 L 153.604830 40.986892 L 153.436600 41.456814 L 153.268369 41.926736" fill="none" stroke="black" stroke-width="1.000000" />
	<path d="M 11.130966 60.761585 L 10.911275 62.730050 L 10.692436 64.698609 L 10.521318 66.671885 L 10.399875 68.648838 L 10.377706 70.629365 L 10.455117 72.608498 L 10.591306 74.584481 L 10.797758 76.554351 L 11.064928 78.516912 L 11.365542 80.474644 L 11.755470 82.416499 L 12.185991 84.349815 L 12.675990 86.268895 L 13.201196 88.178665 L 13.769638 90.076004 L 14.365250 91.965006 L 14.990772 93.844310 L 15.630673 95.718779 L 16.302294 97.582101 L 16.997979 99.436582 L 17.708802 101.285320 L 18.413344 103.136464 L 19.101910 104.993604 L 19.747623 106.866035 L 20.332255 108.758383 L 20.844463 110.671569 L 21.303478 112.598272 L 21.626835 114.551894 L 21.855411 116.519157 L 21.989490 118.495082 L 22.090794 120.473160 L 22.078534 122.453419 L 21.981606 124.431568 L 21.784747 126.402169 L 21.512591 128.363928 L 21.185839 130.317399 L 20.818496 132.263680 L 20.420987 134.204043 L 19.975218 136.133838 L 19.478278 138.051093 L 18.929303 139.954098 L 18.342258 141.845750 L 17.708787 143.722334 L 17.032897 145.584079 L 16.322188 147.432831 L 15.582189 149.270066 L 14.819049 151.097820 L 14.040636 152.919130 L 13.233045 154.727617 L 12.418268 156.532775 L 11.583513 158.328912 L 10.756779 160.128773 L 9.949904 161.937119 L 9.158243 163.752502" fill="none" stroke="black" stroke-width="1.000000" />
	<path d="M 33.881691 159.141312 L 34.532081 157.348123 L 35.186829 155.556521 L 35.844119 153.765850 L 36.505683 151.976754 L 37.207329 150.203037 L 37.948034 148.445274 L 38.743521 146.711687 L 39.574205 144.994614 L 40.438257 143.294097 L 41.335296 141.610752 L 42.263622 139.944455 L 43.218932 138.293465 L 44.198176 136.656551 L 45.199033 135.032753 L 46.236309 133.432050 L 47.313075 131.857631 L 48.421129 130.305026 L 49.559576 128.774566 L 50.734181 127.271696 L 51.974583 125.822812 L 53.283682 124.435994 L 54.617877 123.074771 L 55.978867 121.738792" fill="none" stroke="black" stroke-width="1.000000" />
	<path d="M 55.382492 163.003235 L 53.534967 163.098130 L 51.687773 163.199268 L 49.840482 163.298612 L 47.993519 163.403882 L 46.146756 163.512602 L 44.299429 163.611219 L 42.451732 163.702673 L 40.603627 163.785463 L 38.754933 163.853659 L 36.905795 163.908611 L 35.056315 163.950443 L 33.206504 163.972287 L 31.356569 163.971497 L 29.506674 163.956637 L 27.656777 163.941390 L 25.806847 163.930987 L 23.956904 163.922892 L 22.107127 163.898046 L 20.257333 163.873273 L 18.407484 163.853024 L 16.557590 163.837348 L 14.707754 163.815994 L 12.857923 163.794426 L 11.008063 163.775162 L 9.158243 163.752502" fill="none" stroke="black" stroke-width="1.000000" />
	<path d="M 55.382492 163.003235 L 53.717361 162.187218 L 52.026774 161.425370 L 50.320283 160.699838 L 48.574565 160.074855 L 46.793121 159.560623 L 44.977133 159.186764 L 43.139140 158.942681 L 41.288900 158.821881 L 39.434688 158.814894 L 37.582522 158.903299 L 35.732110 159.022305 L 33.881691 159.141312" fill="none" stroke="black" stroke-width="1.000000" />
	<path d="M 11.970904 43.892174 L 10.692746 45.224648 L 9.399623 46.542269 L 8.102313 47.855611 L 6.874597 49.233180 L 5.803144 50.735353 L 4.893997 52.340909 L 4.140907 54.025926 L 3.519506 55.763055 L 3.086752 57.554839 L 2.933033 59.389593 L 3.123074 61.224879 L 3.507153 63.030428 L 4.020664 64.803947 L 4.477107 66.593045" fill="none" stroke="black" stroke-width="1.000000" />
	<path d="M 285.524188 43.955077 L 285.062853 44.147705 L 284.601517 44.340333 L 284.140181 44.532961 L 283.678055 44.723625 L 283.211975 44.904472 L 282.745895 45.085319 L 282.279816 45.266166 L 281.816769 45.454312 L 281.359767 45.657008 L 280.902765 45.859704 L 280.445764 46.062399 L 279.997669 46.283180 L 279.558425 46.521928 L 279.119181 46.760676 L 278.679937 46.999424 L 278.254196 47.260834 L 277.835146 47.533476 L 277.416096 47.806117 L 276.997046 48.078758 L 276.591072 48.370333 L 276.187686 48.665657 L 275.784300 48.960980 L 275.380914 49.256304" fill="none" stroke="black" stroke-width="1.000000" />
	<path d="M 231.737515 89.503803 L 231.172048 91.322926 L 230.595709 93.138633 L 230.015320 94.953051 L 229.437686 96.768347 L 228.848251 98.579842 L 228.232438 100.382519 L 227.592910 102.176924 L 226.947584 103.969273 L 226.307526 105.763508 L 225.668399 107.558078 L 225.024257 109.350851 L 224.374956 111.141763 L 223.722677 112.931593 L 223.075659 114.723328 L 222.442731 116.520073 L 221.827311 118.322886 L 221.216345 120.127236 L 220.596114 121.928410 L 219.964767 123.725724 L 219.332608 125.522757 L 218.701130 127.320032 L 218.062944 129.114929 L 217.410461 130.904660 L 216.735714 132.686091 L 216.036196 134.457948 L 215.288031 136.209514 L 214.524369 137.954702 L 213.779672 139.708069 L 213.038663 141.463023 L 212.295393 143.217022 L 211.560288 144.974449 L 210.851485 146.742603 L 210.154745 148.515555 L 209.447468 150.284341 L 208.775162 152.066666 L 208.092316 153.844833" fill="none" stroke="black" stroke-width="1.000000" />
	<path d="M 185.953751 94.475647 L 186.909277 96.195000 L 187.908365 97.889412 L 188.954106 99.555435 L 190.067566 101.176980 L 191.204270 102.782318 L 192.397401 104.346171 L 193.610233 105.894798 L 194.832248 107.436189 L 196.036766 108.991291 L 197.230963 110.554333 L 198.401392 112.135250 L 199.549357 113.732553 L 200.684788 115.338792 L 201.768750 116.980194 L 202.725512 118.698799 L 203.552822 120.483329 L 204.339026 122.286401 L 205.059289 124.116802 L 205.704897 125.974844 L 206.147847 127.891193 L 206.147186 129.857521 L 205.775923 131.788700 L 205.102163 133.636370 L 204.150210 135.357328 L 202.984113 136.941161 L 201.638695 138.375843 L 200.160669 139.673592 L 198.634765 140.914864 L 197.136063 142.188863 L 195.617676 143.439343 L 194.056962 144.636558 L 192.457748 145.781845 L 190.824941 146.878713 L 189.127837 147.871727 L 187.425860 148.855734 L 185.700752 149.800830 L 183.970764 150.736923" fill="none" stroke="black" stroke-width="1.000000" />
	<path d="M 187.819138 147.872589 L 188.398731 149.615256 L 188.983935 151.356046 L 189.560562 153.099694 L 190.144702 154.840840 L 190.734611 156.580042 L 191.319508 158.320935 L 191.857243 160.076926 L 192.383684 161.836367 L 192.910126 163.595810" fill="none" stroke="black" stroke-width="1.000000" />
	<path d="M 208.092316 153.844833 L 209.733001 154.609510 L 211.399779 155.315496 L 213.094230 155.952195 L 214.841580 156.424517 L 216.606075 156.828344 L 218.378883 157.194000 L 220.143712 157.596406 L 221.896115 158.049847 L 223.641806 158.528522 L 225.380554 159.031835 L 227.110870 159.563412 L 228.832318 160.123041 L 230.542285 160.716826 L 232.230744 161.368979 L 233.919205 162.021133" fill="none" stroke="black" stroke-width="1.000000" />
	<path d="M 192.910126 163.595810 L 194.695252 163.608117 L 196.480416 163.611268 L 198.265366 163.584731 L 200.050138 163.547221 L 201.833763 163.474555 L 203.616468 163.381075 L 205.398149 163.269831 L 207.178754 163.142483 L 208.958392 163.002197 L 210.737248 162.852264 L 212.516060 162.701773 L 214.295925 162.564672 L 216.076954 162.443328 L 217.858825 162.335163 L 219.641544 162.242013 L 221.425027 162.164948 L 223.209210 162.106606 L 224.993987 162.070899 L 226.779092 162.058228 L 228.564257 162.061539 L 230.349424 162.063015 L 232.134300 162.043069 L 233.919205 162.021133" fill="none" stroke="black" stroke-width="1.000000" />
	<path d="M 97.389748 117.484741 L 99.126668 118.245843 L 100.875841 118.978344 L 102.621132 119.720046 L 104.393683 120.393959 L 106.180631 121.028746 L 108.004082 121.549202 L 109.845264 122.003180 L 111.701383 122.391574 L 113.570117 122.713819 L 115.447987 122.977700 L 117.332795 123.186341 L 119.222466 123.345057 L 121.116284 123.442072 L 123.011950 123.492020 L 124.908267 123.492546 L 126.804188 123.453202 L 128.699258 123.383779 L 130.591401 123.258387 L 132.477182 123.059402 L 134.353908 122.787913 L 136.224863 122.478702 L 138.090644 122.139625 L 139.952068 121.777361 L 141.807844 121.387209 L 143.657686 120.969819 L 145.500984 120.524417 L 147.338368 120.055200 L 149.175898 119.586638 L 151.004756 119.085761 L 152.834645 118.589658 L 154.655884 118.061234" fill="none" stroke="black" stroke-width="1.000000" />
	<path d="M 312.746689 50.311185 L 312.262123 50.428692 L 311.779221 50.550447 L 311.343879 50.793530 L 310.911605 51.041179 L 310.522094 51.352457 L 310.145661 51.675305 L 309.884187 52.099856 L 309.636110 52.530722 L 309.475042 53.002601 L 309.345038 53.478687 L 309.374774 53.976410 L 309.424786 54.470674 L 309.561750 54.950104 L 309.725933 55.417709 L 309.982893 55.845008 L 310.273843 56.243033 L 310.658319 56.560508 L 311.059863 56.852204 L 311.502266 57.082187 L 311.962075 57.254544 L 312.457820 57.307923 L 312.953908 57.327357 L 313.450632 57.284020 L 313.934160 57.185235 L 314.397157 57.000177 L 314.841201 56.778584 L 315.259134 56.506656 L 315.631829 56.183435 L 315.953865 55.802771 L 316.221547 55.387117 L 316.434707 54.936368 L 316.616991 54.473339 L 316.771604 53.999306 L 316.866766 53.512931 L 316.913609 53.016526 L 316.861607 52.527347 L 316.743068 52.043032 L 316.568087 51.578471 L 316.358739 51.125939 L 316.037943 50.757479 L 315.660306 50.431898 L 315.241985 50.164888 L 314.805058 49.924666 L 314.328299 49.797331 L 313.837366 49.710167 L 313.340698 49.701707 L 312.842315 49.716774 L 312.374634 49.873327 L 311.914830 50.066182 L 311.487565 50.321531 L 311.065898 50.587631 L 310.704737 50.929693 L 310.351073 51.281168 L 310.084652 51.701274 L 309.826320 52.127745 L 309.648473 52.593088 L 309.475039 53.060564 L 309.360088 53.545641 L 309.246689 54.031185" fill="none" stroke="black" stroke-width="1.000000" />
	<path d="M 94.323385 73.577292 L 94.969393 75.388261 L 95.614446 77.199569 L 96.251539 79.013691 L 96.874716 80.832638 L 97.480856 82.657329 L 98.076934 84.485337 L 98.625600 86.328037 L 99.031121 88.206582 L 99.308124 90.108648 L 99.528665 92.018621 L 99.708923 93.932819 L 99.844775 95.850650 L 99.933453 97.771224 L 99.964878 99.693504 L 99.947501 101.616055 L 99.848434 103.535655 L 99.719043 105.454036 L 99.538335 107.367834 L 99.302532 109.275961 L 98.999546 111.174169 L 98.607402 113.055904 L 98.136704 114.919794 L 97.604396 116.767145 L 97.006248 118.594026 L 96.345024 120.399290 L 95.641260 122.188508 L 94.902057 123.963358 L 94.126064 125.722440 L 93.292383 127.454317 L 92.385125 129.149359 L 91.440777 130.824171 L 90.471588 132.484682 L 89.468819 134.125092 L 88.438449 135.748443 L 87.412225 137.374398 L 86.411608 139.015990 L 85.468496 140.691378 L 84.574749 142.393648 L 83.726824 144.119249 L 82.921283 145.864954 L 82.228245 147.657488 L 81.570015 149.461854 L 80.955715 151.283499 L 80.421695 153.129987 L 79.885239 154.975769" fill="none" stroke="black" stroke-width="1.000000" />
	<path d="M 130.717073 17.486275 L 130.297904 17.589102 L 129.878732 17.691917 L 129.458125 17.788699 L 129.037519 17.885482 L 128.616913 17.982264 L 128.196307 18.079046" fill="none" stroke="black" stroke-width="1.000000" />
	<path d="M 277.524414 35.050453 L 277.420551 35.167653 L 277.363675 35.167227 L 277.504669 35.041691" fill="none" stroke="black" stroke-width="1.000000" />
	<path d="M 277.524414 35.050453 L 277.507305 35.042868 L 277.604803 35.086095 L 277.702301 35.129322" fill="none" stroke="black" stroke-width="1.000000" />
	<path d="M 264.294285 39.361237 L 265.809816 38.456797 L 267.346858 37.589472 L 269.038331 37.101240 L 270.746238 36.656390 L 272.442887 36.170590 L 274.150522 35.724908 L 275.885328 35.401740 L 277.623230 35.094269" fill="none" stroke="black" stroke-width="1.000000" />
	<path d="M 313.220895 50.796741 L 313.688097 50.938198 L 314.155300 51.079655 L 314.622503 51.221112 L 315.089307 51.363880 L 315.556095 51.506700 L 316.022883 51.649520 L 316.257196 52.011537 L 316.372347 52.485909 L 316.487497 52.960281 L 316.565224 53.429232 L 316.320180 53.851419 L 316.075137 54.273606 L 315.821155 54.686384 L 315.386925 54.909393 L 314.952695 55.132401 L 314.518465 55.355410 L 314.047516 55.335710 L 313.566751 55.251130 L 313.085986 55.166551 L 312.779366 54.884622 L 312.635616 54.418119 L 312.491867 53.951617 L 312.348581 53.484972 L 312.206136 53.018069 L 312.063691 52.551167 L 311.921246 52.084264 L 312.216918 51.773173 L 312.622186 51.501057 L 313.027453 51.228941 L 313.432720 50.956825" fill="none" stroke="black" stroke-width="1.000000" />
	<path d="M 230.826689 39.011185 L 230.735341 39.493714 L 230.640516 39.975402 L 230.498985 40.445666 L 230.347348 40.912184 L 230.139863 41.357300 L 229.923548 41.797878 L 229.677662 42.222989 L 229.429951 42.647027 L 229.177662 43.068368 L 228.924505 43.489188 L 228.669621 43.908965 L 228.410629 44.326182 L 228.145669 44.739673 L 227.877384 45.150995 L 227.605342 45.559861 L 227.329672 45.966271 L 227.050759 46.370482 L 226.764165 46.769211 L 226.472453 47.164284 L 226.175893 47.555709 L 225.876886 47.945290 L 225.573970 48.331829 L 225.267045 48.715198 L 224.951694 49.091640 L 224.634397 49.466476 L 224.310707 49.835789 L 223.986034 50.204254 L 223.336689 50.941185" fill="none" stroke="black" stroke-width="1.000000" />
	<path d="M 70.304124 33.645389 L 70.683731 33.967313 L 71.063338 34.289238 L 71.442946 34.611162 L 71.821182 34.934679 L 72.195815 35.262378 L 72.570449 35.590077 L 72.945082 35.917776 L 73.308960 36.256878 L 73.657962 36.611751 L 74.006964 36.966623 L 74.357004 37.320449 L 74.714895 37.666356 L 75.072785 38.012263 L 75.430675 38.358170 L 75.788073 38.704583 L 76.144052 39.052457 L 76.500031 39.400330 L 76.856010 39.748204 L 77.209677 40.098404 L 77.559846 40.452125 L 77.910015 40.805847 L 78.260184 41.159568 L 78.603363 41.519963 L 78.940542 41.886088 L 79.277721 42.252213 L 79.614900 42.618338 L 79.938245 42.996523 L 80.254967 43.380482 L 80.571689 43.764440 L 80.888410 44.148399 L 81.186040 44.547174 L 81.479356 44.949297 L 81.772672 45.351420 L 82.065735 45.753719 L 82.339668 46.169288 L 82.613601 46.584857 L 82.887534 47.000426 L 83.159900 47.417006 L 83.425620 47.837874 L 83.691340 48.258743 L 83.957060 48.679611 L 84.217397 49.103789 L 84.473212 49.530751 L 84.729027 49.957712 L 84.984842 50.384673 L 85.233006 50.816094 L 85.478485 51.249080 L 85.723963 51.682067 L 85.969442 52.115053 L 86.206463 52.552712 L 86.442329 52.991009 L 86.678195 53.429306 L 86.913865 53.867706 L 87.140904 54.310640 L 87.367943 54.753574 L 87.594982 55.196507 L 87.820792 55.640059 L 88.040637 56.086607 L 88.260482 56.533155 L 88.480327 56.979703 L 88.698173 57.427217 L 88.911546 57.876894 L 89.124918 58.326571 L 89.338291 58.776248 L 89.551643 59.225934 L 89.764971 59.675632 L 89.978299 60.125330 L 90.191627 60.575028 L 90.406856 61.023816 L 90.623426 61.471961 L 90.839996 61.920107 L 91.056566 62.368252 L 91.275693 62.815150 L 91.495790 63.261574 L 91.715887 63.707998 L 91.935984 64.154421 L 92.158930 64.599427 L 92.382330 65.044208 L 92.605730 65.488988 L 92.829131 65.933768" fill="none" stroke="black" stroke-width="1.000000" />
	<path d="M 64.794441 164.950027 L 66.609907 165.092665 L 68.429025 165.176018 L 70.244453 165.044437 L 72.054264 164.843212 L 73.857132 164.587244 L 75.668230 164.400797 L 77.482512 164.243937 L 79.298252 164.105116 L 81.115240 163.983661 L 82.933298 163.879510 L 84.752328 163.794112 L 86.572253 163.731047 L 88.392829 163.690502 L 90.213751 163.670887 L 92.034801 163.667599 L 93.855810 163.677836 L 95.676712 163.701685 L 97.497510 163.732318 L 99.318118 163.772611 L 101.138518 163.821682 L 102.958931 163.870210 L 104.779301 163.920357 L 106.599692 163.969703 L 108.420113 164.017975" fill="none" stroke="black" stroke-width="1.000000" />
	<path d="M 79.885239 154.975769 L 81.742454 155.307516 L 83.596503 155.656520 L 85.453209 155.991107 L 87.312293 156.312212 L 89.168126 156.651600 L 91.016813 157.027948 L 92.856393 157.446535 L 94.683174 157.917828 L 96.492238 158.453088 L 98.284588 159.041922 L 100.056890 159.688596 L 101.799689 160.410998 L 103.508867 161.209706 L 105.179549 162.086094 L 106.799829 163.052033 L 108.420113 164.017975" fill="none" stroke="black" stroke-width="1.000000" />
</svg>