<svg id="Layer_1" data-name="Layer 1" xmlns="http://www.w3.org/2000/svg" viewBox="0 0 317.75 165.5"><defs><style>.cls-1{fill:none;stroke:#231f20;stroke-miterlimit:10;stroke-width:0.5px;}</style></defs><path class="cls-1" d="M398.69,157.08l-3-2.7-3-2.7-3-2.71-3-2.7a22.64,22.64,0,0,0-2-1.6,11.94,11.94,0,0,0-2.21-1.26,6.07,6.07,0,0,0-2.27-.54,4,4,0,0,0-2.2.57,4.22,4.22,0,0,0-1.16,1,6.53,6.53,0,0,0-.79,1.36,9.93,9.93,0,0,0-.51,1.54c-.14.53-.24,1.07-.34,1.59-.26,1.5-.48,3-.67,4.51s-.33,3-.45,4.52-.19,3-.23,4.55-.05,3,0,4.55" transform="translate(-142.57 -138.24)"/><path class="cls-1" d="M378.71,150.85a16.09,16.09,0,0,1,2.24,3.82,17.06,17.06,0,0,1,1.16,4.28,17.29,17.29,0,0,1,0,4.43,16.23,16.23,0,0,1-1.15,4.28" transform="translate(-142.57 -138.24)"/><path class="cls-1" d="M392.08,150.92a28.93,28.93,0,0,0,5.41,2.39,52.41,52.41,0,0,0,5.76,1.53c1.95.42,3.93.77,5.91,1.14s3.94.77,5.87,1.26a34.51,34.51,0,0,1,5.76,2,26.84,26.84,0,0,1,5.25,3.07,18.27,18.27,0,0,1,4.07,4.17,13.54,13.54,0,0,1,2.21,5.31c.11.56.18,1.15.25,1.74s.15,1.18.27,1.75a7.9,7.9,0,0,0,.49,1.63,4.77,4.77,0,0,0,.93,1.39,4.46,4.46,0,0,0,.72.58,5.9,5.9,0,0,0,.82.45,8.36,8.36,0,0,0,.87.36l.89.31,3.65,1.2,3.65,1.21,3.65,1.2,3.65,1.21,1.55.52c.52.19,1,.39,1.52.61a12.13,12.13,0,0,1,1.43.75,9.29,9.29,0,0,1,1.31,1,7.06,7.06,0,0,1,1.08,1.23,6.34,6.34,0,0,1,.74,1.47,5.29,5.29,0,0,1,.28,1.57,4,4,0,0,1-.28,1.56,3.19,3.19,0,0,1-1,1.28,3.93,3.93,0,0,1-1.43.75,3.31,3.31,0,0,1-1.56.06,2.41,2.41,0,0,1-1.32-.76" transform="translate(-142.57 -138.24)"/><path class="cls-1" d="M454.17,195.09c-1.24,1.61-2.52,3.26-3.87,4.84a47.61,47.61,0,0,1-4.28,4.46,26.78,26.78,0,0,1-4.83,3.53,18.46,18.46,0,0,1-5.53,2,20.22,20.22,0,0,1-2.31.28c-.77.05-1.55.06-2.33.06l-2.33,0q-1.17,0-2.34-.06a55.11,55.11,0,0,0-11.12,1.1,78.55,78.55,0,0,0-10.83,3c-3.55,1.25-7.07,2.72-10.54,4.29s-6.9,3.24-10.29,4.9l-12.8,6.25L358,236l-12.8,6.26-12.79,6.26" transform="translate(-142.57 -138.24)"/><path class="cls-1" d="M443.62,205.34c-.88,0-1.75,0-2.62,0s-1.74-.12-2.61-.22-1.73-.24-2.59-.41-1.7-.36-2.55-.59" transform="translate(-142.57 -138.24)"/><path class="cls-1" d="M365.41,178.36a31.89,31.89,0,0,1,0,6.1,45.65,45.65,0,0,1-1,5.94c-.45,1.95-1,3.89-1.62,5.81s-1.27,3.84-1.93,5.75a47.11,47.11,0,0,1-2.51,5.84,64.18,64.18,0,0,1-3.25,5.67c-1.17,1.85-2.43,3.65-3.72,5.38s-2.61,3.4-3.93,5" transform="translate(-142.57 -138.24)"/><path class="cls-1" d="M374.53,150.38a16.38,16.38,0,0,1-5.7.3,26.65,26.65,0,0,1-5.64-1.37c-1.86-.65-3.71-1.46-5.55-2.31s-3.65-1.73-5.44-2.53a68.6,68.6,0,0,0-17.38-5.11A73.59,73.59,0,0,0,299,142.71,68.67,68.67,0,0,0,282.84,151" transform="translate(-142.57 -138.24)"/><path class="cls-1" d="M155.88,198.88A48.45,48.45,0,0,0,154.2,206a49,49,0,0,0-.59,7.26,48.62,48.62,0,0,0,2.13,14.41c.56,1.84,1.24,3.65,2,5.45s1.51,3.58,2.27,5.37,1.53,3.57,2.21,5.38a51.81,51.81,0,0,1,1.78,5.5,45,45,0,0,1,1.32,13.33A64.78,64.78,0,0,1,163.17,276a115.37,115.37,0,0,1-4.39,13.16c-1.71,4.34-3.61,8.62-5.5,12.81h45a21.75,21.75,0,0,0-4.71-2.77,24.22,24.22,0,0,0-5.31-1.57,24.63,24.63,0,0,0-5.56-.31,23.06,23.06,0,0,0-5.46,1" transform="translate(-142.57 -138.24)"/><path class="cls-1" d="M154.44,184.33a.18.18,0,0,0,.13-.12.28.28,0,0,0,0-.18.39.39,0,0,0-.11-.17.28.28,0,0,0-.19-.09.74.74,0,0,0-.21,0,.66.66,0,0,0-.19.09l-.18.13a1.07,1.07,0,0,0-.16.14c-.78.75-1.52,1.53-2.23,2.34s-1.39,1.64-2,2.5-1.24,1.73-1.81,2.63-1.1,1.82-1.59,2.76a16,16,0,0,0-.79,1.73,9.27,9.27,0,0,0-.49,1.82,5.73,5.73,0,0,0,0,1.8,4.06,4.06,0,0,0,.67,1.65,4.39,4.39,0,0,0,1.24,1.19,7,7,0,0,0,1.6.77,13.44,13.44,0,0,0,1.82.45c.62.12,1.25.2,1.86.27" transform="translate(-142.57 -138.24)"/><path class="cls-1" d="M428.27,182.39c-.77.28-1.52.59-2.26.94s-1.45.75-2.15,1.17a23.32,23.32,0,0,0-2,1.39,21.55,21.55,0,0,0-1.86,1.58" transform="translate(-142.57 -138.24)"/><path class="cls-1" d="M374.45,228q-2.35,8.19-5,16.3t-5.56,16.12q-2.92,8-6.12,15.92T351.1,292" transform="translate(-142.57 -138.24)"/><path class="cls-1" d="M331,259.71c0,1.68.13,3.36.3,5s.43,3.32.75,4.94.72,3.23,1.19,4.79,1,3.08,1.6,4.56" transform="translate(-142.57 -138.24)"/><path class="cls-1" d="M336.35,285.94a.21.21,0,0,0,0-.19.39.39,0,0,0-.12-.14.29.29,0,0,0-.18,0,.2.2,0,0,0-.15.11.86.86,0,0,0-.06.23,1,1,0,0,0,0,.24,1.14,1.14,0,0,0,.06.25,2.25,2.25,0,0,0,.08.24c.43,1.1.82,2.24,1.15,3.41s.62,2.35.86,3.56.41,2.43.54,3.67.21,2.48.24,3.73q4.79.33,9.58.47c3.19.08,6.39.1,9.58.05s6.39-.16,9.58-.35,6.38-.44,9.57-.76l-5.78-2.52-5.78-2.51-5.78-2.52L354,290.37" transform="translate(-142.57 -138.24)"/><path class="cls-1" d="M241.12,259.83a3.3,3.3,0,0,0,.65.42,5.64,5.64,0,0,0,.75.32,7.93,7.93,0,0,0,.83.25l.86.19a57.35,57.35,0,0,0,8.7,1.12,77.23,77.23,0,0,0,8.87,0c3-.17,5.94-.48,8.89-.88s5.87-.89,8.75-1.42" transform="translate(-142.57 -138.24)"/><path class="cls-1" d="M378.46,150.73a16.79,16.79,0,0,0,1,2.24c.4.72.83,1.43,1.26,2.14s.86,1.42,1.25,2.14a16.78,16.78,0,0,1,1.05,2.23,13,13,0,0,1,.66,2.44,13.52,13.52,0,0,1-.11,5,12.73,12.73,0,0,1-.76,2.41" transform="translate(-142.57 -138.24)"/><path class="cls-1" d="M425.38,183.1a9.15,9.15,0,0,0-1.86.37,9.56,9.56,0,0,0-1.74.76,9.21,9.21,0,0,0-1.55,1.09,9.37,9.37,0,0,0-1.29,1.38" transform="translate(-142.57 -138.24)"/><path class="cls-1" d="M427.2,181.71a22.37,22.37,0,0,0-2.09.86q-1,.48-2,1.05c-.65.38-1.29.78-1.91,1.22s-1.21.9-1.78,1.39" transform="translate(-142.57 -138.24)"/><path class="cls-1" d="M456.45,185.88c-.47.36-.94.74-1.39,1.14a12.63,12.63,0,0,0-1.25,1.29,6.16,6.16,0,0,0-.88,1.47,4,4,0,0,0-.32,1.65,3.75,3.75,0,0,0,.78,2.16,3.59,3.59,0,0,0,.83.82,3.5,3.5,0,0,0,1,.52,3.71,3.71,0,0,0,1.15.15,3.65,3.65,0,0,0,1.14-.21,4.43,4.43,0,0,0,1-.53,3.8,3.8,0,0,0,.82-.83,3.45,3.45,0,0,0,.57-1.35,4,4,0,0,0,0-1.47,4.31,4.31,0,0,0-.48-1.4,3.88,3.88,0,0,0-1-1.13,3.81,3.81,0,0,0-1.31-.68,4.51,4.51,0,0,0-1.46-.19,4.79,4.79,0,0,0-1.46.28,4.25,4.25,0,0,0-1.29.74,4.5,4.5,0,0,0-1,1.12,5.16,5.16,0,0,0-.57,1.37,5.65,5.65,0,0,0-.17,1.48,5.16,5.16,0,0,0,.27,1.46,2.63,2.63,0,0,0,.17.42,3,3,0,0,0,.21.4,3.09,3.09,0,0,0,.26.37,2.34,2.34,0,0,0,.31.32,2.51,2.51,0,0,0,.71.45,3.06,3.06,0,0,0,.8.22,4.1,4.1,0,0,0,.86.05,6,6,0,0,0,.85-.12,5.18,5.18,0,0,0,1.72-.75,5.69,5.69,0,0,0,1.38-1.3,5.08,5.08,0,0,0,.83-1.64,4,4,0,0,0,.08-1.83,3.29,3.29,0,0,0-.83-1.64,4.15,4.15,0,0,0-1.51-1.08,3.86,3.86,0,0,0-1.79-.31A2.86,2.86,0,0,0,454,188a3.17,3.17,0,0,0-.59.68,3.88,3.88,0,0,0-.42.81,5.06,5.06,0,0,0-.24.89,5.63,5.63,0,0,0-.1.91c0,.16,0,.32,0,.47a3.56,3.56,0,0,0,.05.47,3.27,3.27,0,0,0,.1.45,3.38,3.38,0,0,0,.18.44,2.23,2.23,0,0,0,1,1,2.8,2.8,0,0,0,1.34.33,3.06,3.06,0,0,0,1.37-.28,2.47,2.47,0,0,0,1-.91,2.55,2.55,0,0,0,.37-1.33,3.09,3.09,0,0,0-.29-1.36,3.36,3.36,0,0,0-.82-1.15,2.87,2.87,0,0,0-1.24-.66,2.8,2.8,0,0,0-1.57.11A3.63,3.63,0,0,0,452,191a2.74,2.74,0,0,0-.06,1.58,2.63,2.63,0,0,0,.83,1.33,3.63,3.63,0,0,0,3,.84,2.74,2.74,0,0,0,1.4-.72,2.82,2.82,0,0,0,.66-1.08,3.25,3.25,0,0,0,.16-1.27,3,3,0,0,0-.34-1.22,2.58,2.58,0,0,0-.84-.93,2.34,2.34,0,0,0-1.2-.36,2.82,2.82,0,0,0-1.24.26,2.67,2.67,0,0,0-1,.75,2.05,2.05,0,0,0-.48,1.14,1.92,1.92,0,0,0,.28,1.19,2.62,2.62,0,0,0,.9.88,2.52,2.52,0,0,0,1.18.37,1.83,1.83,0,0,0,1.16-.35l.19-.17a1.54,1.54,0,0,0,.17-.19,1.64,1.64,0,0,0,.14-.22,1.6,1.6,0,0,0,.1-.23,1.31,1.31,0,0,0,0-.59,1.63,1.63,0,0,0-.22-.55,1.72,1.72,0,0,0-.41-.44,1.45,1.45,0,0,0-.54-.27,1.74,1.74,0,0,0-.6,0,2,2,0,0,0-.58.15,2.11,2.11,0,0,0-.52.31,2,2,0,0,0-.43.43,1.89,1.89,0,0,0-.26.51,1.87,1.87,0,0,0-.08.57,1.21,1.21,0,0,0,.14.51.86.86,0,0,0,.38.35l.21.06h.21l.22,0,.21,0a3.71,3.71,0,0,0,.47-.16,2.67,2.67,0,0,0,.43-.25,1.78,1.78,0,0,0,.35-.32,1.59,1.59,0,0,0,.26-.41,1.28,1.28,0,0,0,.09-.48,1.33,1.33,0,0,0-.32-.89,1,1,0,0,0-.4-.25.76.76,0,0,0-.47,0,1,1,0,0,0-.4.26.9.9,0,0,0-.23.4.62.62,0,0,0,.06.44" transform="translate(-142.57 -138.24)"/><path class="cls-1" d="M376.91,180.86c-.15.79-.28,1.58-.39,2.38s-.19,1.59-.25,2.39-.09,1.6-.1,2.4,0,1.61,0,2.41.1,1.55.19,2.32a21.87,21.87,0,0,0,.38,2.29,19,19,0,0,0,.61,2.24,15.21,15.21,0,0,0,.89,2.13,15.65,15.65,0,0,0,1.69,2.65,17.21,17.21,0,0,0,2.16,2.28,20.3,20.3,0,0,0,2.53,1.89,20.72,20.72,0,0,0,2.8,1.47,23.74,23.74,0,0,0,3,1,26.61,26.61,0,0,0,3.07.66c1,.16,2.09.26,3.15.32s2.11.05,3.16,0" transform="translate(-142.57 -138.24)"/><path class="cls-1" d="M276.18,155.16a63.87,63.87,0,0,1-6.89,2.28,67.84,67.84,0,0,1-7.1,1.51,69.77,69.77,0,0,1-7.22.73,67.44,67.44,0,0,1-7.25-.06" transform="translate(-142.57 -138.24)"/><path class="cls-1" d="M366.83,179.45a48.64,48.64,0,0,1-.58,6,49.57,49.57,0,0,1-1.3,5.92,49.64,49.64,0,0,1-4.68,11.15" transform="translate(-142.57 -138.24)"/><path class="cls-1" d="M363.82,185s0,0-.05,0a.06.06,0,0,1,0-.06.09.09,0,0,1,0-.06.06.06,0,0,1,.07,0,.1.1,0,0,1,.05,0l0,.08v.08a.27.27,0,0,1,0,.09c-.1,1-.22,1.93-.36,2.89s-.29,1.91-.47,2.87-.37,1.9-.59,2.85-.45,1.88-.7,2.82-.55,2-.86,3-.62,1.95-.95,2.92-.67,2-1,2.91-.69,1.94-1,2.9" transform="translate(-142.57 -138.24)"/><path class="cls-1" d="M360.38,198.88a54.14,54.14,0,0,1-1.48,5.9,55.09,55.09,0,0,1-2.15,5.7A54.06,54.06,0,0,1,350.6,221" transform="translate(-142.57 -138.24)"/><path class="cls-1" d="M378.48,151.75c.51.67,1,1.34,1.51,2s1,1.37,1.42,2.08.88,1.42,1.27,2.16a21.27,21.27,0,0,1,1,2.28,16,16,0,0,1,.72,2.42,14.25,14.25,0,0,1,.32,2.51,11.51,11.51,0,0,1-.17,2.49,10,10,0,0,1-.72,2.38" transform="translate(-142.57 -138.24)"/><path class="cls-1" d="M379.45,153.12a18.54,18.54,0,0,1,2.28,3.64,19.56,19.56,0,0,1,1.39,4.07,19.33,19.33,0,0,1,.45,4.28,18,18,0,0,1-.53,4.27,9.58,9.58,0,0,0,.5-1.39,8.71,8.71,0,0,0,.27-1.44,9.15,9.15,0,0,0,0-1.48,9,9,0,0,0-.19-1.46l-.27,1.51-.27,1.51-.27,1.51-.27,1.51" transform="translate(-142.57 -138.24)"/><path class="cls-1" d="M383.36,170.14a14.53,14.53,0,0,0,.76-2.22,15.11,15.11,0,0,0,.41-2.31,15.37,15.37,0,0,0,0-2.35,14,14,0,0,0-.32-2.33" transform="translate(-142.57 -138.24)"/><path class="cls-1" d="M426.84,182.73a24.51,24.51,0,0,0-2.3,1c-.75.37-1.48.77-2.2,1.2s-1.4.91-2.06,1.41-1.31,1-1.93,1.59a17.28,17.28,0,0,1,2-1.61,16.71,16.71,0,0,1,2.21-1.28,16.12,16.12,0,0,1,2.38-.94,16.42,16.42,0,0,1,2.5-.56,9.53,9.53,0,0,0-2.13.18,9.8,9.8,0,0,0-2,.65,9.4,9.4,0,0,0-1.84,1.07,9,9,0,0,0-1.57,1.45" transform="translate(-142.57 -138.24)"/><path class="cls-1" d="M426.84,182.57a11.14,11.14,0,0,0-2,.42,12.18,12.18,0,0,0-1.94.8,12.57,12.57,0,0,0-1.75,1.15,11.5,11.5,0,0,0-1.5,1.46" transform="translate(-142.57 -138.24)"/><path class="cls-1" d="M376.21,181.19c-.26,1-.5,2.05-.7,3.09a30.51,30.51,0,0,0-.42,3.13,18.05,18.05,0,0,0,0,3.12,13.73,13.73,0,0,0,.6,3.05,15.85,15.85,0,0,0,1.42,3.09q.44.74.93,1.44c.33.47.67.92,1,1.37a29.43,29.43,0,0,0,3.82,4,25.39,25.39,0,0,0,4.52,3.17,19.49,19.49,0,0,0,5,1.95,16,16,0,0,0,5.35.33" transform="translate(-142.57 -138.24)"/><path class="cls-1" d="M375.73,182.94a25,25,0,0,0-.5,3.1,23.56,23.56,0,0,0-.13,3.14,23.17,23.17,0,0,0,.26,3.12,21.23,21.23,0,0,0,.71,3.06,18.19,18.19,0,0,0,1.16,2.91,18.93,18.93,0,0,0,1.62,2.7,17.71,17.71,0,0,0,2,2.37,16.43,16.43,0,0,0,2.44,1.95,17.73,17.73,0,0,0,3.3,1.69,25.24,25.24,0,0,0,3.56,1.08c1.21.28,2.46.5,3.7.67s2.5.31,3.74.44" transform="translate(-142.57 -138.24)"/><path class="cls-1" d="M376.05,183.13a20.88,20.88,0,0,0-.39,4.6,21.46,21.46,0,0,0,.59,4.59,22,22,0,0,0,1.52,4.37,21.22,21.22,0,0,0,2.41,3.94,22,22,0,0,0,3.21,3.33,22.65,22.65,0,0,0,3.85,2.57,22.36,22.36,0,0,0,4.29,1.72,21.44,21.44,0,0,0,4.56.78" transform="translate(-142.57 -138.24)"/><path class="cls-1" d="M433.61,204.29c.4.17.82.33,1.23.48s.84.3,1.26.43.85.25,1.28.36l1.29.3a14.23,14.23,0,0,0,1.85.28,9.74,9.74,0,0,0,1.87,0,6.43,6.43,0,0,0,1.76-.39,5,5,0,0,0,1.54-.91" transform="translate(-142.57 -138.24)"/><path class="cls-1" d="M435.05,204.94a14.17,14.17,0,0,0,2.77.74,13.8,13.8,0,0,0,2.87.18,13.58,13.58,0,0,0,2.84-.39,13.81,13.81,0,0,0,2.71-.94" transform="translate(-142.57 -138.24)"/><path class="cls-1" d="M435,204.93a13.35,13.35,0,0,0,3,.61,14.15,14.15,0,0,0,3.05-.09,14.53,14.53,0,0,0,3-.71,15,15,0,0,0,2.78-1.31,15.58,15.58,0,0,0,2.46-1.81,18.39,18.39,0,0,0,2.09-2.23,19.94,19.94,0,0,0,1.7-2.56,19,19,0,0,0,1.28-2.79" transform="translate(-142.57 -138.24)"/><path class="cls-1" d="M443.18,205.6a5.6,5.6,0,0,0,1.23-.27l.4-.13a15.57,15.57,0,0,0,5.56-3.58,15.7,15.7,0,0,0,2.09-2.59,14.78,14.78,0,0,0,1.48-3" transform="translate(-142.57 -138.24)"/><path class="cls-1" d="M394.27,153a34.31,34.31,0,0,0,6,2.13c2,.54,4.12.95,6.22,1.31s4.22.66,6.32,1,4.21.74,6.27,1.26" transform="translate(-142.57 -138.24)"/><path class="cls-1" d="M394.15,151.91a16.31,16.31,0,0,0,5.5,2.81,37.11,37.11,0,0,0,6.23,1.2c2.15.27,4.34.46,6.49.76a31.17,31.17,0,0,1,6.26,1.46A19.66,19.66,0,0,1,423.8,161a21.27,21.27,0,0,1,7,9.42A19.37,19.37,0,0,1,432,176.2" transform="translate(-142.57 -138.24)"/><path class="cls-1" d="M417.6,158.52a11.23,11.23,0,0,1,3.13.89,13.84,13.84,0,0,1,2.81,1.68,16.74,16.74,0,0,1,2.41,2.28,18.24,18.24,0,0,1,1.95,2.69,25.21,25.21,0,0,1,1.51,2.92c.43,1,.82,2,1.16,3.08s.66,2.11.94,3.17.56,2.14.83,3.21" transform="translate(-142.57 -138.24)"/><path class="cls-1" d="M427.67,164.44a20.15,20.15,0,0,1,1.64,2.35,19.78,19.78,0,0,1,1.29,2.56,20.11,20.11,0,0,1,.92,2.71,20.87,20.87,0,0,1,.52,2.82" transform="translate(-142.57 -138.24)"/><path class="cls-1" d="M431.19,170.88l.07.56.07.55.07.56.07.55c.06.41.11.81.17,1.22s.15.81.24,1.2a7.86,7.86,0,0,0,.38,1.16,5.67,5.67,0,0,0,.56,1.06,4.24,4.24,0,0,0,1.88,1.54,3.2,3.2,0,0,0,1.17.26,2.56,2.56,0,0,0,1.15-.22" transform="translate(-142.57 -138.24)"/><path class="cls-1" d="M431.45,174.25a4.47,4.47,0,0,0,.18,1.75,5.63,5.63,0,0,0,.79,1.59,7.07,7.07,0,0,0,1.23,1.34,8.05,8.05,0,0,0,1.53,1,11.36,11.36,0,0,0,1.67.66c.57.17,1.16.31,1.75.43s1.19.2,1.79.29l1.8.25a36.75,36.75,0,0,1,3.95.78,26.32,26.32,0,0,1,3.82,1.27,19,19,0,0,1,3.46,1.9,14.55,14.55,0,0,1,2.87,2.68" transform="translate(-142.57 -138.24)"/><path class="cls-1" d="M433.75,179a.72.72,0,0,0,.09.2l.13.18.16.15.18.14a12.8,12.8,0,0,0,2.54,1.51,18.87,18.87,0,0,0,2.79,1c1,.28,1.94.5,2.93.69s2,.37,3,.55,2,.39,2.95.63a25.33,25.33,0,0,1,2.88.9A15.63,15.63,0,0,1,454,186.3a10.91,10.91,0,0,1,2.24,1.89" transform="translate(-142.57 -138.24)"/><path class="cls-1" d="M455.58,188.81a3.31,3.31,0,0,0-1.12.2,3.75,3.75,0,0,0-1,.55,3.66,3.66,0,0,0-.8.82,3.26,3.26,0,0,0-.49,1,3.31,3.31,0,0,0-.13,1.13,3.93,3.93,0,0,0,.24,1.12,4.21,4.21,0,0,0,.56,1,3.41,3.41,0,0,0,.84.77,3.3,3.3,0,0,0,.94.42,3.94,3.94,0,0,0,1,.15,4.53,4.53,0,0,0,1-.12,4.68,4.68,0,0,0,1-.38,4.18,4.18,0,0,0,.83-.62,4.61,4.61,0,0,0,.66-.8,5.36,5.36,0,0,0,.48-.92,5.14,5.14,0,0,0,.25-1,2.92,2.92,0,0,0,0-.51,4.47,4.47,0,0,0,0-.52,4,4,0,0,0-.09-.5,2.81,2.81,0,0,0-.16-.49,3,3,0,0,0-.77-1.09,3.58,3.58,0,0,0-1.15-.71,4.32,4.32,0,0,0-1.34-.27,3.56,3.56,0,0,0-1.34.22,4.27,4.27,0,0,0-1.17.68,4.61,4.61,0,0,0-.9,1,5,5,0,0,0-.84,2.59" transform="translate(-142.57 -138.24)"/><path class="cls-1" d="M376.11,146.05c-.47,1.65-.87,3.31-1.18,5a51.28,51.28,0,0,0-.71,5.08c-.16,1.71-.23,3.42-.22,5.13s.09,3.42.26,5.12" transform="translate(-142.57 -138.24)"/><path class="cls-1" d="M374.37,168.5c-.25-1.35-.43-2.71-.56-4.07s-.19-2.73-.21-4.1,0-2.74.15-4.1.27-2.73.49-4.08a22.63,22.63,0,0,1,.6-2.6,12.71,12.71,0,0,1,1-2.46,7.5,7.5,0,0,1,1.52-2,5.56,5.56,0,0,1,4.47-1.52,8,8,0,0,1,2.31.6,13.78,13.78,0,0,1,2.2,1.18,21.78,21.78,0,0,1,2,1.47c.94.75,1.86,1.52,2.75,2.32s1.77,1.62,2.62,2.47,1.67,1.73,2.46,2.64,1.54,1.83,2.25,2.79" transform="translate(-142.57 -138.24)"/><path class="cls-1" d="M398.3,156.51c-.57-.53-1.11-1.1-1.64-1.69s-1-1.19-1.54-1.79-1-1.21-1.54-1.8-1.06-1.16-1.63-1.7a21.26,21.26,0,0,0-9.6-5.18,21.3,21.3,0,0,0-3.64-.53h-.39a2.55,2.55,0,0,0-.39,0,2.5,2.5,0,0,0-.38.06,1.48,1.48,0,0,0-.35.13,1.74,1.74,0,0,0-.44.31,2.79,2.79,0,0,0-.35.42,4.67,4.67,0,0,0-.27.49c-.08.17-.16.34-.22.51-.22.55-.42,1.11-.6,1.67s-.33,1.14-.47,1.71-.25,1.16-.35,1.74-.17,1.17-.22,1.76" transform="translate(-142.57 -138.24)"/><path class="cls-1" d="M332.59,247.48l-.48.11-.49.12-.48.11-.49.11c1.55-.67,3.1-1.36,4.64-2.05s3.07-1.41,4.6-2.13,3.05-1.45,4.57-2.2,3-1.5,4.53-2.27" transform="translate(-142.57 -138.24)"/><path class="cls-1" d="M331.28,248.15q5.69-2.86,11.42-5.64T354.2,237q5.78-2.7,11.57-5.31t11.65-5.14" transform="translate(-142.57 -138.24)"/><path class="cls-1" d="M380.7,224.92c3.11-1.77,6.25-3.54,9.44-5.24s6.41-3.31,9.69-4.75a85.68,85.68,0,0,1,10-3.72,60.47,60.47,0,0,1,10.44-2.16c1.56-.18,3.13-.28,4.7-.35s3.14-.1,4.72-.13,3.14,0,4.72-.1,3.14-.13,4.7-.27c.3,0,.61-.07.91-.13a4.4,4.4,0,0,0,.88-.24,2.71,2.71,0,0,0,.74-.43,1.81,1.81,0,0,0,.52-.67" transform="translate(-142.57 -138.24)"/><path class="cls-1" d="M416.11,209.44q-3.35,1.17-6.68,2.38t-6.65,2.46q-3.31,1.25-6.62,2.53c-2.21.86-4.4,1.73-6.6,2.62" transform="translate(-142.57 -138.24)"/><path class="cls-1" d="M398.69,216.5l-6.93,2.34-6.92,2.34-6.93,2.35L371,225.87" transform="translate(-142.57 -138.24)"/><path class="cls-1" d="M384,222.33q-2.47,1.51-5.06,2.85c-1.72.88-3.48,1.7-5.26,2.45s-3.6,1.43-5.44,2.05-3.69,1.16-5.57,1.63" transform="translate(-142.57 -138.24)"/><path class="cls-1" d="M369.79,230.09c-2.32,1.22-4.68,2.35-7.08,3.37s-4.85,1.95-7.32,2.78-5,1.54-7.51,2.16-5.09,1.14-7.66,1.55" transform="translate(-142.57 -138.24)"/><path class="cls-1" d="M373.62,228.53q-.83,3.27-1.74,6.53t-1.95,6.48q-1,3.22-2.14,6.42c-.75,2.13-1.53,4.24-2.34,6.35" transform="translate(-142.57 -138.24)"/><path class="cls-1" d="M371.87,230.05c-.57,2.74-1.22,5.46-1.93,8.16s-1.49,5.38-2.34,8-1.76,5.3-2.75,7.92-2,5.2-3.16,7.76" transform="translate(-142.57 -138.24)"/><path class="cls-1" d="M365.59,252.09q-.9,3-1.9,5.91t-2.12,5.83q-1.11,2.9-2.33,5.75t-2.56,5.66" transform="translate(-142.57 -138.24)"/><path class="cls-1" d="M365.15,255.14q-1.14,4.74-2.55,9.4t-3.09,9.23q-1.69,4.58-3.64,9t-4.17,8.8" transform="translate(-142.57 -138.24)"/><path class="cls-1" d="M358.89,274.6q-1.33,2.26-2.46,4.64t-2.06,4.83q-.92,2.46-1.64,5c-.48,1.69-.88,3.39-1.22,5.11" transform="translate(-142.57 -138.24)"/><path class="cls-1" d="M351.37,291.32a.79.79,0,0,0-.34.41,1.12,1.12,0,0,0-.07.55,2,2,0,0,0,.14.58,2.24,2.24,0,0,0,.31.52,4.2,4.2,0,0,0,1.3,1.08,6.32,6.32,0,0,0,1.63.58,11.7,11.7,0,0,0,1.79.26c.61.05,1.22.08,1.8.1,1.5.06,3,.18,4.46.37s3,.45,4.41.77,2.91.71,4.33,1.16,2.83,1,4.2,1.53" transform="translate(-142.57 -138.24)"/><path class="cls-1" d="M351,293.34c1.68.23,3.35.49,5,.78s3.33.61,5,.95,3.31.73,4.95,1.14,3.28.85,4.91,1.31l1.61.49c.54.18,1.07.37,1.59.58a12.21,12.21,0,0,1,1.5.73,9.91,9.91,0,0,1,1.39.93" transform="translate(-142.57 -138.24)"/><path class="cls-1" d="M335.85,283.24c.34,1.16.65,2.34.93,3.52s.52,2.39.73,3.6.4,2.44.55,3.66.27,2.47.35,3.71" transform="translate(-142.57 -138.24)"/><path class="cls-1" d="M335.6,284.05l1.38,4.67c.45,1.55.9,3.12,1.33,4.68s.87,3.14,1.29,4.71.84,3.15,1.25,4.73" transform="translate(-142.57 -138.24)"/><path class="cls-1" d="M335.59,285.51l1,4,1,4,1,4,1,4" transform="translate(-142.57 -138.24)"/><path class="cls-1" d="M333.93,300.8a66.67,66.67,0,0,0,10,.37c3.34-.09,6.68-.34,10-.58s6.69-.46,10-.49a59,59,0,0,1,9.94.67" transform="translate(-142.57 -138.24)"/><path class="cls-1" d="M334.81,301.13c2,.09,4,.13,6,.15s4,0,6,0,4-.13,6-.25,4-.26,6-.44c1-.1,2.12-.21,3.18-.29s2.13-.16,3.2-.18a30.43,30.43,0,0,1,3.17.09,19.58,19.58,0,0,1,3.12.54" transform="translate(-142.57 -138.24)"/><path class="cls-1" d="M331,259.69c.05,1.64.15,3.29.31,4.93s.37,3.26.64,4.87.59,3.2,1,4.77.81,3.12,1.29,4.63" transform="translate(-142.57 -138.24)"/><path class="cls-1" d="M330.67,261.25c.06,1.83.2,3.65.41,5.46s.51,3.6.88,5.36.82,3.5,1.33,5.2,1.11,3.35,1.77,5" transform="translate(-142.57 -138.24)"/><path class="cls-1" d="M290.92,196.33c-.19,1.81-.41,3.63-.66,5.44s-.53,3.62-.84,5.42-.65,3.59-1,5.38-.77,3.57-1.21,5.35" transform="translate(-142.57 -138.24)"/><path class="cls-1" d="M244.05,224.81c0,1.44.1,2.88.13,4.32s.06,2.89.08,4.33,0,2.89,0,4.33,0,2.89-.05,4.33-.08,2.91-.18,4.38-.27,2.91-.52,4.32a24.05,24.05,0,0,1-1.06,4,14.47,14.47,0,0,1-1.82,3.44" transform="translate(-142.57 -138.24)"/><path class="cls-1" d="M241.41,259.66a14.15,14.15,0,0,0,1.94,1,18.31,18.31,0,0,0,2.16.75c.75.21,1.52.38,2.31.52s1.58.24,2.38.32,1.6.11,2.4.13,1.61,0,2.42,0,1.61-.06,2.41-.1l2.41-.17c1.48-.11,3-.23,4.43-.38s2.94-.32,4.39-.54,2.9-.46,4.31-.76,2.81-.66,4.18-1.08" transform="translate(-142.57 -138.24)"/><path class="cls-1" d="M239.63,260.94c1.48.33,3,.6,4.53.8s3.1.34,4.67.43,3.15.13,4.73.12,3.16-.07,4.72-.16,3.13-.22,4.69-.37,3.1-.34,4.64-.54,3.08-.41,4.62-.64,3.06-.46,4.59-.69" transform="translate(-142.57 -138.24)"/><path class="cls-1" d="M284,149.61c1.33-.4,2.65-.83,4-1.3s2.61-.95,3.9-1.47,2.56-1.06,3.83-1.64,2.51-1.18,3.75-1.81" transform="translate(-142.57 -138.24)"/><path class="cls-1" d="M283.56,150.27a16.34,16.34,0,0,0,2.86-.69,25.75,25.75,0,0,0,2.74-1.11c.9-.42,1.79-.88,2.67-1.35s1.76-.94,2.64-1.39q2.36-1.2,4.79-2.21c1.63-.66,3.28-1.27,5-1.8s3.37-1,5.08-1.39,3.45-.72,5.19-1" transform="translate(-142.57 -138.24)"/><path class="cls-1" d="M289.21,146.88a58.33,58.33,0,0,1,10.91-5,61.29,61.29,0,0,1,23.68-3.11,58.51,58.51,0,0,1,11.83,2" transform="translate(-142.57 -138.24)"/><path class="cls-1" d="M374.09,151.1a23.47,23.47,0,0,1-4.43.24,24.33,24.33,0,0,1-4.41-.58,25,25,0,0,1-4.22-1.37,23.66,23.66,0,0,1-3.89-2.13" transform="translate(-142.57 -138.24)"/><path class="cls-1" d="M364.4,150.72,360,148.81l-4.39-1.92L351.23,145l-4.39-1.91-1.8-.78c-.6-.26-1.2-.5-1.81-.74s-1.22-.46-1.84-.66-1.24-.39-1.87-.55a22.58,22.58,0,0,0-2.84-.54,24.65,24.65,0,0,0-5.78,0,23,23,0,0,0-2.85.51" transform="translate(-142.57 -138.24)"/><path class="cls-1" d="M248,160.19c2.16-.25,4.32-.52,6.47-.83s4.3-.64,6.45-1,4.28-.75,6.41-1.17,4.26-.87,6.38-1.35" transform="translate(-142.57 -138.24)"/><path class="cls-1" d="M274.15,155.37c-1.52.34-3,.63-4.58.87s-3.08.42-4.63.56-3.1.23-4.65.27-3.11,0-4.66,0" transform="translate(-142.57 -138.24)"/><path class="cls-1" d="M273.7,156.5l-.59.35-.59.34-.59.34-.59.35" transform="translate(-142.57 -138.24)"/><path class="cls-1" d="M273.73,156.54l-1.36.28-1.37.27-1.36.28-1.36.28" transform="translate(-142.57 -138.24)"/><path class="cls-1" d="M241.2,221.54a.1.1,0,0,1,0-.09.14.14,0,0,1,0-.11.2.2,0,0,1,.06-.09.12.12,0,0,1,.09,0l.09,0,.07.07.07.09.06.11a27.57,27.57,0,0,1,2,5.4,32.91,32.91,0,0,1,.79,11.94,29.25,29.25,0,0,1-1.26,5.79" transform="translate(-142.57 -138.24)"/><path class="cls-1" d="M242.88,233.27a50.68,50.68,0,0,1,.61,6.87A53.43,53.43,0,0,1,242,253.78a48.15,48.15,0,0,1-2,6.36" transform="translate(-142.57 -138.24)"/><path class="cls-1" d="M154.66,183.32a17.2,17.2,0,0,0-4.06,3.1,17.61,17.61,0,0,0-2.94,4.05,16.66,16.66,0,0,0-1.65,4.65,15.09,15.09,0,0,0-.16,4.88" transform="translate(-142.57 -138.24)"/><path class="cls-1" d="M155,183.12a20,20,0,0,0-3.45,1.91,20.62,20.62,0,0,0-3,2.51,19.61,19.61,0,0,0-2.4,3,18.54,18.54,0,0,0-1.72,3.38c-.13.34-.24.67-.34,1a9.75,9.75,0,0,0-.24,1,6.11,6.11,0,0,0,0,2.09,4.81,4.81,0,0,0,.34,1,4.51,4.51,0,0,0,.59.9,4,4,0,0,0,.81.72,3.21,3.21,0,0,0,1,.44" transform="translate(-142.57 -138.24)"/><path class="cls-1" d="M155.44,200.59a47.4,47.4,0,0,0-1.49,6.94,48.81,48.81,0,0,0-.44,7.05,47.58,47.58,0,0,0,.61,7,47.07,47.07,0,0,0,1.64,6.9" transform="translate(-142.57 -138.24)"/><path class="cls-1" d="M155,201.16a37.78,37.78,0,0,0-1.12,8.36,51.07,51.07,0,0,0,.51,8.45,77.27,77.27,0,0,0,1.69,8.41c.7,2.78,1.53,5.54,2.39,8.26" transform="translate(-142.57 -138.24)"/><path class="cls-1" d="M153.69,207.51a65.74,65.74,0,0,0,1,10.85A94.66,94.66,0,0,0,157.23,229c1,3.53,2.26,7,3.55,10.49s2.67,6.91,4,10.33" transform="translate(-142.57 -138.24)"/><path class="cls-1" d="M163.16,244.23s-.06,0-.08,0a.19.19,0,0,1-.05-.09.2.2,0,0,1,0-.11.11.11,0,0,1,.09-.07.19.19,0,0,1,.12,0l.09.08a.52.52,0,0,1,.06.13.69.69,0,0,1,.05.13,39.62,39.62,0,0,1,1.13,5.82,40.84,40.84,0,0,1-.28,11.82,41,41,0,0,1-1.41,5.76" transform="translate(-142.57 -138.24)"/><path class="cls-1" d="M164,247.73a59,59,0,0,1,1.14,16.91,59.71,59.71,0,0,1-1.24,8.4,59.07,59.07,0,0,1-2.44,8.14" transform="translate(-142.57 -138.24)"/><path class="cls-1" d="M163.33,269.56c-.36,2.05-.81,4.09-1.36,6.1s-1.18,4-1.9,6-1.53,3.87-2.43,5.75-1.88,3.73-2.94,5.52" transform="translate(-142.57 -138.24)"/><path class="cls-1" d="M163,273.9q-.93,3-2,6t-2.26,6q-1.2,2.94-2.51,5.85t-2.76,5.74" transform="translate(-142.57 -138.24)"/><path class="cls-1" d="M160.06,282.81l-2.18,4.86-2.18,4.85-2.17,4.85-2.18,4.86" transform="translate(-142.57 -138.24)"/><path class="cls-1" d="M176.64,297.9a121,121,0,0,1,4.62-11.74,99.19,99.19,0,0,1,5.51-10.37A76,76,0,0,1,193,267a56,56,0,0,1,6.89-7" transform="translate(-142.57 -138.24)"/><path class="cls-1" d="M177.64,295.37q1.92-4.59,4-8.83t4.37-8.1c1.51-2.57,3.07-5,4.67-7.32s3.26-4.48,5-6.5" transform="translate(-142.57 -138.24)"/><path class="cls-1" d="M176.45,298.27a27.86,27.86,0,0,1,4.47-1.21,27.48,27.48,0,0,1,4.61-.45,28.47,28.47,0,0,1,4.62.32,26.92,26.92,0,0,1,4.51,1.08c.34.11.69.24,1,.38a9,9,0,0,1,1,.47,6.18,6.18,0,0,1,.9.61,5,5,0,0,1,.75.78" transform="translate(-142.57 -138.24)"/><path class="cls-1" d="M177.55,297l-.1.17-.1.16-.11.17-.1.16c1.14-.1,2.29-.17,3.44-.21s2.29,0,3.44,0,2.29.06,3.44.13,2.29.18,3.43.3c.71.08,1.43.18,2.15.33a13.55,13.55,0,0,1,2.1.57,8.52,8.52,0,0,1,1.89.93,6.63,6.63,0,0,1,1.53,1.42" transform="translate(-142.57 -138.24)"/><path class="cls-1" d="M151.17,302.79c3.71-.17,7.42-.32,11.12-.47s7.42-.28,11.13-.4,7.41-.23,11.12-.33l11.13-.27a90.62,90.62,0,0,1-9.43,1c-3.15.19-6.32.24-9.49.2s-6.34-.18-9.52-.36-6.34-.42-9.5-.65" transform="translate(-142.57 -138.24)"/><path class="cls-1" d="M153.4,300.79s0,0,0,0l0,0h-.06a.08.08,0,0,0,0,.05l0,.05a.09.09,0,0,0,.05,0l.06,0h.07l5.52.52,5.53.52,5.53.53,5.53.52" transform="translate(-142.57 -138.24)"/><path class="cls-1" d="M422.25,175.08c-.84,0-1.67,0-2.51.08s-1.67.11-2.5.2-1.67.18-2.49.3-1.66.25-2.48.41c.65,0,1.3,0,2-.07s1.3-.12,1.94-.21,1.29-.21,1.92-.34,1.27-.3,1.9-.48a12.4,12.4,0,0,0-1.33-.35c-.45-.08-.91-.14-1.36-.18a10.45,10.45,0,0,0-1.37,0,12.46,12.46,0,0,0-1.37.14c.22,0,.45.05.67.06s.45,0,.68,0,.45,0,.67-.07a4.81,4.81,0,0,0,.66-.13" transform="translate(-142.57 -138.24)"/><path class="cls-1" d="M421.12,173.88s0,0,0-.06a.11.11,0,0,1,.08,0,.2.2,0,0,1,.08,0,.05.05,0,0,1,0,.08.11.11,0,0,1-.06.07.15.15,0,0,1-.09,0h-.23l-.83-.12-.84-.13-.84-.13-.83-.13.68,0,.67,0,.68,0,.68,0a8.29,8.29,0,0,0-.83-.31c-.28-.09-.57-.17-.86-.24s-.58-.12-.88-.17-.59-.07-.88-.09l1.13.27,1.13.25,1.14.23,1.14.22" transform="translate(-142.57 -138.24)"/><path class="cls-1" d="M419.21,175.63a15.65,15.65,0,0,0-2.47.07,16.76,16.76,0,0,0-2.43.45A16.49,16.49,0,0,0,412,177a16.81,16.81,0,0,0-2.18,1.15" transform="translate(-142.57 -138.24)"/><path class="cls-1" d="M421.18,174.34c-.34,0-.68-.06-1-.09l-1,0h-1l-1,0,.42,0a3,3,0,0,1,.43,0,2.9,2.9,0,0,1,.41.06,2.73,2.73,0,0,1,.41.1,4.31,4.31,0,0,0-.39-.46,3.57,3.57,0,0,0-.46-.4,4.39,4.39,0,0,0-.51-.32,3.76,3.76,0,0,0-.55-.23l.37.21.37.2.37.21.37.21" transform="translate(-142.57 -138.24)"/><path class="cls-1" d="M454.53,192.11a.5.5,0,0,0-.42.11.83.83,0,0,0-.25.4,1.25,1.25,0,0,0,0,.51.79.79,0,0,0,.23.43,1.27,1.27,0,0,0,.43.26,1.94,1.94,0,0,0,.49.1,3,3,0,0,0,.52,0,4.71,4.71,0,0,0,.52-.09,5.65,5.65,0,0,0,.75-.21,3.79,3.79,0,0,0,.7-.34,2.46,2.46,0,0,0,.57-.49,1.59,1.59,0,0,0,.32-.65,1.44,1.44,0,0,0-.06-.85,2,2,0,0,0-.49-.73,2.7,2.7,0,0,0-.76-.52,2.43,2.43,0,0,0-.9-.22,3,3,0,0,0-1.12.13,3.6,3.6,0,0,0-1,.48,4,4,0,0,0-.82.77,3.13,3.13,0,0,0-.52,1l-.06.2c0,.07,0,.14,0,.21a1.47,1.47,0,0,0,0,.21.64.64,0,0,0,0,.2.85.85,0,0,0,.26.45,1.24,1.24,0,0,0,.46.27,1.42,1.42,0,0,0,.54.08,1.63,1.63,0,0,0,.54-.12,2.39,2.39,0,0,0,.46-.29,3.5,3.5,0,0,0,.38-.39,5.27,5.27,0,0,0,.31-.46c.1-.16.18-.32.27-.48a2.62,2.62,0,0,0,.15-.39,2.07,2.07,0,0,0,.08-.42,1.1,1.1,0,0,0-.06-.37.53.53,0,0,0-.25-.26.48.48,0,0,0-.3-.07.85.85,0,0,0-.31.09,1.37,1.37,0,0,0-.29.2,2,2,0,0,0-.24.26,2.27,2.27,0,0,0-.29.48,1.74,1.74,0,0,0-.15.54,1.24,1.24,0,0,0,0,.51.76.76,0,0,0,.3.39.73.73,0,0,0,.34.14,1.21,1.21,0,0,0,.38,0,1.9,1.9,0,0,0,.39-.11,2.32,2.32,0,0,0,.36-.16,2.56,2.56,0,0,0,.39-.22,2.3,2.3,0,0,0,.34-.28A1.36,1.36,0,0,0,457,192a.9.9,0,0,0,.09-.4.78.78,0,0,0-.16-.47,1.13,1.13,0,0,0-.4-.31,1.25,1.25,0,0,0-.51-.14,1.36,1.36,0,0,0-.53.07,2,2,0,0,0-.45.26,2.11,2.11,0,0,0-.38.35,4.46,4.46,0,0,0-.33.43c-.1.14-.2.3-.29.45a4.7,4.7,0,0,0,.75,0,4.53,4.53,0,0,0,.74-.08,6,6,0,0,0,.73-.19,5.85,5.85,0,0,0,.68-.3,1.84,1.84,0,0,1,0,.33,2,2,0,0,1-.08.33,1.94,1.94,0,0,1-.13.3,1.67,1.67,0,0,1-.18.28" transform="translate(-142.57 -138.24)"/><path class="cls-1" d="M456.63,189.85a1.31,1.31,0,0,1,.74.51,1.92,1.92,0,0,1,.34.86,2.51,2.51,0,0,1-.07,1,2.19,2.19,0,0,1-.45.87,3.34,3.34,0,0,1-.74.61,4.93,4.93,0,0,1-.87.4,6.15,6.15,0,0,1-1,.25c-.32.07-.65.12-1,.17" transform="translate(-142.57 -138.24)"/><path class="cls-1" d="M379.11,153.45a11.47,11.47,0,0,1,1.95,2.11,12,12,0,0,1,2.08,5.31,11.49,11.49,0,0,1,0,2.87" transform="translate(-142.57 -138.24)"/><path class="cls-1" d="M381.07,152.8a10.8,10.8,0,0,1,1,1.58,13.05,13.05,0,0,1,.73,1.72,15.72,15.72,0,0,1,.49,1.82,16.32,16.32,0,0,1,.26,1.86c.05.62.07,1.25.06,1.87s-.05,1.25-.1,1.87-.13,1.25-.22,1.87-.2,1.24-.31,1.85" transform="translate(-142.57 -138.24)"/><path class="cls-1" d="M383.74,169.22v.12a2.34,2.34,0,0,1-.12.7,2.78,2.78,0,0,1-.33.64,4.37,4.37,0,0,1-.45.59c-.16.19-.34.37-.51.55" transform="translate(-142.57 -138.24)"/><path class="cls-1" d="M375,182.52c-.23.71-.46,1.42-.68,2.13s-.43,1.43-.62,2.15-.36,1.44-.51,2.17-.28,1.46-.38,2.2-.16,1.48-.18,2.22a18.57,18.57,0,0,0,.05,2.24,16.2,16.2,0,0,0,.32,2.2,14.54,14.54,0,0,0,.62,2.14" transform="translate(-142.57 -138.24)"/><path class="cls-1" d="M376.62,181.61l-.92,2.13-.91,2.14-.92,2.13-.91,2.13" transform="translate(-142.57 -138.24)"/><path class="cls-1" d="M373.66,177.51a.29.29,0,0,1,.11-.11.34.34,0,0,1,.15-.06h.15a.29.29,0,0,1,.13.08c-.5,1.1-1,2.18-1.63,3.24s-1.22,2.09-1.9,3.1-1.38,2-2.13,2.93-1.55,1.87-2.37,2.75" transform="translate(-142.57 -138.24)"/><path class="cls-1" d="M245.41,257.75l-.2-.08-.19-.07-.19-.08-.2-.08c1.29.59,2.61,1.12,4,1.58s2.69.84,4,1.16,2.75.57,4.13.75a41.77,41.77,0,0,0,4.18.32" transform="translate(-142.57 -138.24)"/><path class="cls-1" d="M241.81,256.46a17.26,17.26,0,0,0,2,1.48,20.56,20.56,0,0,0,2.22,1.19,25,25,0,0,0,2.36.92c.8.27,1.62.49,2.43.68s1.65.36,2.48.49,1.66.25,2.5.34,1.68.17,2.52.24l2.52.19" transform="translate(-142.57 -138.24)"/><path class="cls-1" d="M251.88,261.1l-.22-.06-.23,0h-.24l-.23,0c.31.09.62.16.94.22s.65.12,1,.16l1,.12,1,.08c1,.07,2,.12,3,.13s2,0,3,0,2-.12,3-.22,2-.24,2.95-.4" transform="translate(-142.57 -138.24)"/><path class="cls-1" d="M259,262.1l.13.07.16,0h.36c1.11-.09,2.21-.2,3.31-.31s2.19-.24,3.28-.38,2.19-.28,3.27-.44,2.17-.32,3.25-.5" transform="translate(-142.57 -138.24)"/><path class="cls-1" d="M153.91,183.72c-.55.48-1.11,1-1.65,1.45s-1.07,1-1.58,1.52-1,1.05-1.46,1.61a18,18,0,0,0-1.28,1.73,15,15,0,0,0-1,1.88,12.26,12.26,0,0,0-.72,2,10.62,10.62,0,0,0-.34,2.08,9.19,9.19,0,0,0,.14,2.09,5.57,5.57,0,0,0,.43,1.33,4.71,4.71,0,0,0,.77,1.18,3.63,3.63,0,0,0,1.08.84,2.72,2.72,0,0,0,1.34.29" transform="translate(-142.57 -138.24)"/><path class="cls-1" d="M152.09,184.16c-.66.48-1.29,1-1.91,1.49s-1.2,1.07-1.77,1.63-1.11,1.15-1.63,1.76-1,1.22-1.46,1.87c-.25.34-.49.68-.71,1s-.44.72-.64,1.08a11.55,11.55,0,0,0-.52,1.13,8.32,8.32,0,0,0-.39,1.16,7.24,7.24,0,0,0-.21,1.22,6.32,6.32,0,0,0,0,1.23,5.42,5.42,0,0,0,.23,1.2,5.18,5.18,0,0,0,1.34,2.26,6.14,6.14,0,0,0,1.12.9,7.35,7.35,0,0,0,1.32.65,7.15,7.15,0,0,0,1.45.36,7.31,7.31,0,0,0,1.48.08,9.1,9.1,0,0,0,1.47-.19,9.71,9.71,0,0,0,1.42-.43,9.09,9.09,0,0,0,1.33-.65" transform="translate(-142.57 -138.24)"/><path class="cls-1" d="M373.41,230.27l.07-.15.07-.15.07-.15.07-.15c-.38,1-.79,1.89-1.22,2.82s-.89,1.84-1.37,2.75-1,1.8-1.52,2.68-1.07,1.74-1.65,2.59" transform="translate(-142.57 -138.24)"/><path class="cls-1" d="M372.27,229.39a.11.11,0,0,0,0-.11.22.22,0,0,0-.17-.17.25.25,0,0,0-.12,0q-.8,2.76-1.7,5.51c-.6,1.83-1.23,3.64-1.9,5.45s-1.36,3.6-2.09,5.37-1.5,3.55-2.29,5.3" transform="translate(-142.57 -138.24)"/><path class="cls-1" d="M437.51,208.67c-2.17.13-4.35.19-6.52.18s-4.35-.1-6.52-.26-4.33-.4-6.49-.71-4.29-.68-6.42-1.14" transform="translate(-142.57 -138.24)"/><path class="cls-1" d="M419,209.94a27.27,27.27,0,0,0-3.41-.92,26.59,26.59,0,0,0-7-.49A25.9,25.9,0,0,0,405,209" transform="translate(-142.57 -138.24)"/><path class="cls-1" d="M419.86,208.86c-.65,0-1.29-.05-1.93-.1s-1.28-.12-1.92-.2-1.28-.18-1.91-.3-1.26-.25-1.89-.4" transform="translate(-142.57 -138.24)"/><path class="cls-1" d="M318.8,150.67a47,47,0,0,0-7.17,5.63,49.57,49.57,0,0,0-6,6.87A50.1,50.1,0,0,0,301,171a48.32,48.32,0,0,0-3.11,8.58" transform="translate(-142.57 -138.24)"/><path class="cls-1" d="M316.6,154.2a45,45,0,0,0-7.13,5,46.94,46.94,0,0,0-6,6.25,46,46,0,0,0-4.76,7.28,43.91,43.91,0,0,0-3.28,8,20.57,20.57,0,0,1,1.49-4.82,28,28,0,0,1,2.51-4.42,44.11,44.11,0,0,1,3.19-4.06c1.14-1.3,2.35-2.55,3.55-3.75l1.81-1.78,1.83-1.75,1.86-1.72c.62-.57,1.25-1.13,1.88-1.69.39-.34.79-.69,1.2-1a13.87,13.87,0,0,1,1.26-.91,8.14,8.14,0,0,1,1.37-.72,5.7,5.7,0,0,1,1.47-.39,24.91,24.91,0,0,0-5.71,3.51,36.41,36.41,0,0,0-4.8,4.74,63,63,0,0,0-4.12,5.53c-1.28,1.91-2.5,3.88-3.68,5.83" transform="translate(-142.57 -138.24)"/><path class="cls-1" d="M318.8,152.09A61.51,61.51,0,0,0,314,156c-1.54,1.37-3,2.82-4.41,4.33s-2.72,3.09-4,4.73-2.41,3.34-3.49,5.09" transform="translate(-142.57 -138.24)"/><path class="cls-1" d="M213,172.31a44,44,0,0,1,7.25,6.63,63.11,63.11,0,0,1,5.87,7.94c1.77,2.81,3.39,5.75,4.9,8.75s2.94,6,4.33,9" transform="translate(-142.57 -138.24)"/><path class="cls-1" d="M235.2,204.42a25,25,0,0,1-2-3.3c-.59-1.14-1.11-2.32-1.61-3.5s-1-2.39-1.52-3.57-1.08-2.34-1.72-3.46a26.72,26.72,0,0,0-2.46-3.61,29,29,0,0,0-3-3.17,28.67,28.67,0,0,0-3.47-2.65,26.86,26.86,0,0,0-3.84-2.08" transform="translate(-142.57 -138.24)"/><path class="cls-1" d="M216.87,173.68a67.84,67.84,0,0,1,4.1,5.69,66.5,66.5,0,0,1,3.5,6.08,69.46,69.46,0,0,1,2.86,6.41,67.4,67.4,0,0,1,2.17,6.67" transform="translate(-142.57 -138.24)"/><path class="cls-1" d="M225.23,181.91c-.11-.16-.22-.31-.34-.46s-.25-.3-.39-.44-.27-.27-.41-.39l-.45-.37c.54,1.19,1.09,2.38,1.66,3.55s1.16,2.34,1.77,3.5,1.23,2.3,1.87,3.44,1.3,2.27,2,3.38c-.39-.84-.81-1.67-1.24-2.49s-.88-1.63-1.35-2.43-1-1.59-1.47-2.36-1-1.54-1.58-2.29q1.71,2.19,3.3,4.47c1,1.53,2.07,3.08,3,4.66s1.89,3.19,2.77,4.82,1.7,3.3,2.48,5" transform="translate(-142.57 -138.24)"/><path class="cls-1" d="M287.6,149.17c-.7.11-1.42.19-2.15.25s-1.46.08-2.21.1-1.5,0-2.25,0l-2.24,0c-3.84-.12-7.68-.28-11.5-.46s-7.65-.41-11.46-.67-7.61-.54-11.4-.86-7.55-.67-11.31-1.06l-3-.31-3-.31-3.05-.26c-1-.08-2-.15-3.08-.21q-3.08-.16-6.17-.16c-2.06,0-4.12.08-6.16.2s-4.07.3-6.06.53-3.95.53-5.87.87" transform="translate(-142.57 -138.24)"/><path class="cls-1" d="M208.16,302.93q5.42-.45,10.84-.66t10.86-.16c3.62,0,7.24.15,10.86.34s7.23.47,10.83.83a28.31,28.31,0,0,0-6-3.84,42.92,42.92,0,0,0-6.76-2.48c-2.33-.65-4.74-1.17-7.15-1.61s-4.84-.84-7.23-1.24l-.54-.1a4.26,4.26,0,0,1-.54-.15,2.71,2.71,0,0,1-.49-.22,1.72,1.72,0,0,1-.43-.32,1.91,1.91,0,0,1-.48-.82,2.78,2.78,0,0,1-.09-1,4.58,4.58,0,0,1,.19-1,7.57,7.57,0,0,1,.35-1,59.07,59.07,0,0,1,3.19-6.3c1.19-2.05,2.47-4.05,3.78-6s2.65-4,3.95-5.94,2.56-4,3.72-6a43.8,43.8,0,0,0,4.88-13.2,45.47,45.47,0,0,0,.85-7,46.54,46.54,0,0,0-.2-7c-.23-2.19-.56-4.37-1-6.52s-.93-4.3-1.51-6.42-1.23-4.24-1.92-6.33-1.43-4.18-2.19-6.24" transform="translate(-142.57 -138.24)"/><path class="cls-1" d="M240.2,255.51c-.46,1.37-1,2.72-1.49,4.06s-1.1,2.67-1.71,4-1.24,2.61-1.91,3.88-1.38,2.54-2.12,3.78" transform="translate(-142.57 -138.24)"/><path class="cls-1" d="M240.49,257.19q-1.77,3.53-3.67,7c-1.26,2.31-2.56,4.61-3.91,6.88s-2.73,4.51-4.16,6.73-2.9,4.41-4.4,6.57" transform="translate(-142.57 -138.24)"/><path class="cls-1" d="M233.05,271.54c-1,1.44-2,2.93-2.88,4.44s-1.74,3.07-2.53,4.65-1.51,3.19-2.18,4.82-1.27,3.3-1.82,5" transform="translate(-142.57 -138.24)"/><path class="cls-1" d="M228.45,276.26c-.72,1.32-1.38,2.66-2,4s-1.14,2.78-1.61,4.2-.87,2.87-1.2,4.34-.6,2.94-.79,4.43" transform="translate(-142.57 -138.24)"/><path class="cls-1" d="M224.61,283.86c-.14.65-.28,1.31-.4,2s-.25,1.31-.35,2-.21,1.33-.3,2-.17,1.33-.24,2c.32-1.45.7-2.89,1.14-4.31s.93-2.81,1.49-4.19,1.16-2.73,1.83-4.06,1.39-2.62,2.17-3.88" transform="translate(-142.57 -138.24)"/><path class="cls-1" d="M223.4,290a2.85,2.85,0,0,0-.37.79,3.05,3.05,0,0,0,0,1.73,3.2,3.2,0,0,0,.4.78,2.76,2.76,0,0,0,.63.6,2.91,2.91,0,0,0,.79.39,2.82,2.82,0,0,0,.86.14,2.87,2.87,0,0,0,.87-.13" transform="translate(-142.57 -138.24)"/><path class="cls-1" d="M222.77,292.88c1.4.13,2.79.32,4.17.56s2.76.53,4.13.86,2.73.67,4.08,1.05,2.71.75,4.06,1.14c1.13.32,2.26.65,3.39,1s2.23.77,3.31,1.23a22,22,0,0,1,3.09,1.6,15.44,15.44,0,0,1,2.72,2.14,27.6,27.6,0,0,0-2.41-1.77,25.57,25.57,0,0,0-2.58-1.51A26.68,26.68,0,0,0,244,298a27.64,27.64,0,0,0-2.83-.95c-.62-.17-1.25-.32-1.88-.46s-1.27-.25-1.91-.36-1.27-.21-1.91-.3l-1.93-.27-2.64-.36-2.64-.36-2.64-.36-2.64-.36a21.75,21.75,0,0,1,3.69-.35,24.32,24.32,0,0,1,3.71.23,30.81,30.81,0,0,1,3.66.74A34.27,34.27,0,0,1,237.6,296c1.15.45,2.29,1,3.4,1.49s2.21,1.13,3.29,1.75,2.14,1.26,3.2,1.92,2.1,1.34,3.14,2" transform="translate(-142.57 -138.24)"/><path class="cls-1" d="M249.77,302.12q-5.1-.12-10.2-.11t-10.2.16q-5.1.15-10.2.43t-10.18.69" transform="translate(-142.57 -138.24)"/><path class="cls-1" d="M198.52,257.79l-.15-.35-.14-.36-.15-.35-.15-.36a77.43,77.43,0,0,1,5,10.73,79.24,79.24,0,0,1,4.93,23.08,78,78,0,0,1-.18,11.84" transform="translate(-142.57 -138.24)"/><path class="cls-1" d="M286.27,149.3a5.62,5.62,0,0,1-.93.34,10.79,10.79,0,0,1-1.08.23c-.38,0-.78.09-1.18.12s-.8,0-1.2,0-.8,0-1.2,0-.79,0-1.18-.09-.78-.08-1.17-.12l-1.17-.14c-1.5-.17-3-.32-4.52-.45s-3-.26-4.56-.37-3.05-.2-4.58-.3l-4.6-.26-7.95-.46-7.94-.47q-4-.25-7.92-.54c-2.63-.19-5.27-.4-7.89-.62l-4.72-.41c-1.58-.12-3.16-.24-4.75-.32s-3.16-.12-4.74-.1-3.15.08-4.71.23" transform="translate(-142.57 -138.24)"/><path class="cls-1" d="M176.75,297.39a58.06,58.06,0,0,1,3-10.73,59.24,59.24,0,0,1,5-10,60,60,0,0,1,6.76-8.87,58.12,58.12,0,0,1,8.3-7.45" transform="translate(-142.57 -138.24)"/><path class="cls-1" d="M241.21,257.55a12.45,12.45,0,0,1,2.11.19,12.85,12.85,0,0,1,2.05.53,12.3,12.3,0,0,1,3.7,2.06" transform="translate(-142.57 -138.24)"/><path class="cls-1" d="M241,257.75c.85.41,1.71.78,2.59,1.11s1.77.61,2.68.86,1.82.45,2.74.61,1.86.28,2.79.36" transform="translate(-142.57 -138.24)"/><path class="cls-1" d="M284.41,150.34l-6.77-.8-6.76-.81-6.77-.81-6.76-.8" transform="translate(-142.57 -138.24)"/><path class="cls-1" d="M241.15,224.8l-.07-.26-.07-.26-.07-.26-.07-.27a36.18,36.18,0,0,1,2.23,7,37.33,37.33,0,0,1,.79,7.3,36.64,36.64,0,0,1-.64,7.32,36.09,36.09,0,0,1-2.07,7.05" transform="translate(-142.57 -138.24)"/><path class="cls-1" d="M243.08,247.18c-.41,1.42-.83,2.84-1.27,4.25s-.89,2.83-1.35,4.23-.93,2.81-1.42,4.21-1,2.79-1.5,4.18" transform="translate(-142.57 -138.24)"/><path class="cls-1" d="M198.56,146.84a49.57,49.57,0,0,0-13.69,3.37,52.3,52.3,0,0,0-12.2,7,51.08,51.08,0,0,0-9.87,9.89,47.34,47.34,0,0,0-6.67,12.15A45.45,45.45,0,0,0,153.42,197a50.62,50.62,0,0,0,3.92,17,60.86,60.86,0,0,0,9.2,15.16A66.64,66.64,0,0,0,179.7,241.3c1,.73,2.11,1.43,3.18,2.12l3.24,2.05c1.07.68,2.14,1.37,3.2,2.09s2.09,1.46,3.09,2.25,2,1.63,2.9,2.52a29,29,0,0,1,2.57,2.86,22.87,22.87,0,0,1,2.08,3.18,18.26,18.26,0,0,1,1.42,3.52" transform="translate(-142.57 -138.24)"/><path class="cls-1" d="M256.86,146.89q-6.57-.44-13.17-.75t-13.17-.55q-6.6-.22-13.19-.36t-13.19-.15" transform="translate(-142.57 -138.24)"/><path class="cls-1" d="M213.49,144.39a31,31,0,0,1-3.72.48c-1.25.1-2.51.13-3.76.16s-2.52,0-3.78.06-2.52.09-3.77.21a34.21,34.21,0,0,0-4.38.73,34.73,34.73,0,0,0-4.26,1.26,35.89,35.89,0,0,0-4.07,1.79,35,35,0,0,0-3.81,2.29" transform="translate(-142.57 -138.24)"/><path class="cls-1" d="M196.52,145.49a67.31,67.31,0,0,0-10.78,3.63,68.38,68.38,0,0,0-10,5.36,69.74,69.74,0,0,0-9,6.94,68.57,68.57,0,0,0-7.73,8.34" transform="translate(-142.57 -138.24)"/><path class="cls-1" d="M189.68,148.54a70.36,70.36,0,0,0-8.13,3.65,62,62,0,0,0-7.54,4.74,54.46,54.46,0,0,0-6.71,5.79,49.16,49.16,0,0,0-5.61,6.85,43.64,43.64,0,0,0-4.21,7.86A42.47,42.47,0,0,0,155,186a38.43,38.43,0,0,0-.62,8.82,34.85,34.85,0,0,0,1.48,8.7" transform="translate(-142.57 -138.24)"/><path class="cls-1" d="M164.61,164.85a36,36,0,0,0-4.94,5.31,38,38,0,0,0-6.34,13,36.13,36.13,0,0,0-1.16,7.16,35.75,35.75,0,0,0,.3,7.24,37.64,37.64,0,0,0,4.74,13.64,36.67,36.67,0,0,0,4.27,5.87" transform="translate(-142.57 -138.24)"/><path class="cls-1" d="M156,173.09a43.56,43.56,0,0,0-2.5,11.62,51.81,51.81,0,0,0,.49,11.92,61.37,61.37,0,0,0,3.06,11.69,68.35,68.35,0,0,0,5.18,10.93,85.87,85.87,0,0,0,6.79,9.87,114.66,114.66,0,0,0,8,9c2.8,2.87,5.74,5.62,8.76,8.29s6.1,5.26,9.21,7.8" transform="translate(-142.57 -138.24)"/><path class="cls-1" d="M154.31,178a67.37,67.37,0,0,0,.23,18.92,73.31,73.31,0,0,0,15.05,34.44,67.89,67.89,0,0,0,13.74,13c1.68,1.19,3.44,2.35,5.19,3.53s3.47,2.41,5.07,3.73a28.6,28.6,0,0,1,4.3,4.29,17.42,17.42,0,0,1,2.88,5.25" transform="translate(-142.57 -138.24)"/><path class="cls-1" d="M192.56,252.85a50.9,50.9,0,0,1,5.13,6,52.09,52.09,0,0,1,7.24,14.06,49.76,49.76,0,0,1,1.94,7.69" transform="translate(-142.57 -138.24)"/><path class="cls-1" d="M192.72,252.22a33.92,33.92,0,0,1,4,4.12,38.69,38.69,0,0,1,3.31,4.71,46.18,46.18,0,0,1,2.65,5.14,50.33,50.33,0,0,1,2,5.42c.57,1.84,1,3.71,1.43,5.59s.71,3.78,1,5.68.44,3.83.58,5.75.24,3.85.32,5.78" transform="translate(-142.57 -138.24)"/><path class="cls-1" d="M195,256.15a75,75,0,0,1,5.86,10.7,78,78,0,0,1,6.38,23.46,76.36,76.36,0,0,1,.36,12.19" transform="translate(-142.57 -138.24)"/><path class="cls-1" d="M200.4,262.38q1.33,4.46,2.42,9t1.91,9.08c.55,3.05,1,6.11,1.39,9.18s.67,6.16.88,9.25" transform="translate(-142.57 -138.24)"/><path class="cls-1" d="M207.42,287.91l-.33,3.95-.34,4-.33,3.95-.34,4" transform="translate(-142.57 -138.24)"/><path class="cls-1" d="M206.14,302.12a.31.31,0,0,0-.19.12.51.51,0,0,0-.1.21.71.71,0,0,0,0,.25.57.57,0,0,0,.11.22.9.9,0,0,0,.19.15.92.92,0,0,0,.23.09l.24.06.25,0c.59.05,1.18.07,1.77.07s1.17-.05,1.76-.11,1.17-.16,1.74-.28,1.15-.27,1.71-.44" transform="translate(-142.57 -138.24)"/><path class="cls-1" d="M296.13,196.19q-3.33,6.74-6.17,13.67t-5.16,14.08q-2.32,7.13-4.14,14.41T277.56,253" transform="translate(-142.57 -138.24)"/><path class="cls-1" d="M277.58,253.31q1.77,6.22,3.78,12.38t4.24,12.23q2.23,6.07,4.7,12.07t5.14,11.88" transform="translate(-142.57 -138.24)"/><path class="cls-1" d="M311.36,294.06a15.5,15.5,0,0,1-2-4.32,18.89,18.89,0,0,1-.73-4.74,22.76,22.76,0,0,1,.42-4.86,25.13,25.13,0,0,1,1.4-4.67,32.79,32.79,0,0,1,2.19-4.3,44.5,44.5,0,0,1,2.73-4c1-1.28,2-2.53,3.11-3.74s2.19-2.4,3.31-3.57" transform="translate(-142.57 -138.24)"/><path class="cls-1" d="M320.17,260.75a100.28,100.28,0,0,0,10-11.52,101.7,101.7,0,0,0,8.13-12.9,103.2,103.2,0,0,0,6.12-14,99.66,99.66,0,0,0,3.94-14.73" transform="translate(-142.57 -138.24)"/><path class="cls-1" d="M347.73,215.3l.15-.3.15-.31.14-.3.15-.31q-1.85,4.65-3.9,9.22t-4.33,9c-1.5,3-3.08,5.92-4.72,8.82s-3.36,5.77-5.13,8.6" transform="translate(-142.57 -138.24)"/><path class="cls-1" d="M345.35,220.6q-2.28,5-4.93,9.88c-1.76,3.23-3.65,6.4-5.64,9.49s-4.12,6.11-6.34,9-4.56,5.79-7,8.55" transform="translate(-142.57 -138.24)"/><path class="cls-1" d="M335.82,240.37q-2.1,3.93-4.55,7.66T326,255.25q-2.78,3.5-5.86,6.71t-6.45,6.16" transform="translate(-142.57 -138.24)"/><path class="cls-1" d="M330.09,248.55q-.12,3.73,0,7.45c.07,2.48.22,5,.44,7.42s.52,4.92.89,7.35.82,4.85,1.34,7.23" transform="translate(-142.57 -138.24)"/><path class="cls-1" d="M330.62,248.53c0,3.72.08,7.44.35,11.14s.68,7.37,1.25,11,1.27,7.24,2.13,10.78,1.85,7,3,10.39" transform="translate(-142.57 -138.24)"/><path class="cls-1" d="M322.49,257.39c-1.32,1.25-2.59,2.54-3.81,3.89s-2.39,2.73-3.51,4.16-2.18,2.9-3.19,4.41-2,3-2.85,4.63" transform="translate(-142.57 -138.24)"/><path class="cls-1" d="M321.93,260.07c-.89.84-1.77,1.67-2.65,2.52s-1.74,1.71-2.58,2.59-1.66,1.78-2.45,2.7-1.53,1.89-2.23,2.88a31,31,0,0,0-1.95,3.1,26.9,26.9,0,0,0-1.54,3.32,22.55,22.55,0,0,0-1,3.49,18.92,18.92,0,0,0-.42,3.6" transform="translate(-142.57 -138.24)"/><path class="cls-1" d="M310.92,272.15a14.38,14.38,0,0,0-1.61,2.35,16.09,16.09,0,0,0-1.14,2.62,17.62,17.62,0,0,0-.68,2.78,19.76,19.76,0,0,0-.27,2.86,22.72,22.72,0,0,0,.12,2.86c.09.94.24,1.89.42,2.82s.42,1.87.68,2.79.55,1.84.86,2.74" transform="translate(-142.57 -138.24)"/><path class="cls-1" d="M308.51,278.89a20.46,20.46,0,0,0-.91,4.57,21.88,21.88,0,0,0,1.2,9.17,20.78,20.78,0,0,0,2.05,4.18" transform="translate(-142.57 -138.24)"/><path class="cls-1" d="M307.26,285.05a22.94,22.94,0,0,0,.8,3.27,23.81,23.81,0,0,0,1.26,3.11,24.22,24.22,0,0,0,1.71,2.9,22,22,0,0,0,2.1,2.61" transform="translate(-142.57 -138.24)"/><path class="cls-1" d="M330.71,301.27a45.28,45.28,0,0,0-5.44-2.61,46.49,46.49,0,0,0-11.67-3,45,45,0,0,0-6-.31" transform="translate(-142.57 -138.24)"/><path class="cls-1" d="M294.34,198.72l-2.83,8.49-2.82,8.49-2.83,8.49L283,232.68" transform="translate(-142.57 -138.24)"/><path class="cls-1" d="M292.85,204.3q-2.44,5.52-4.6,11.17t-4,11.39q-1.85,5.76-3.4,11.59t-2.77,11.76" transform="translate(-142.57 -138.24)"/><path class="cls-1" d="M285.32,226.27c-.69,2.06-1.35,4.12-2,6.2s-1.2,4.16-1.74,6.26-1,4.2-1.51,6.31-.89,4.24-1.28,6.37" transform="translate(-142.57 -138.24)"/><path class="cls-1" d="M277.45,249.81c.78,2.74,1.59,5.46,2.43,8.18s1.71,5.43,2.6,8.13,1.81,5.39,2.76,8.07,1.92,5.36,2.92,8" transform="translate(-142.57 -138.24)"/><path class="cls-1" d="M277.88,250.61q1.46,5.7,3.09,11.34t3.47,11.22q1.83,5.58,3.84,11.1t4.2,11" transform="translate(-142.57 -138.24)"/><path class="cls-1" d="M288.11,280.6l1.72,4.26,1.72,4.26,1.72,4.26,1.72,4.26" transform="translate(-142.57 -138.24)"/><path class="cls-1" d="M293.88,301.13a11.52,11.52,0,0,0,2.58,1.1,13.13,13.13,0,0,0,2.78.46,12.48,12.48,0,0,0,2.8-.18,12,12,0,0,0,2.69-.82" transform="translate(-142.57 -138.24)"/><path class="cls-1" d="M297.39,300.45c2.35.3,4.71.53,7.08.71s4.74.3,7.11.36,4.75.05,7.12,0,4.75-.18,7.12-.36" transform="translate(-142.57 -138.24)"/><path class="cls-1" d="M330.3,301.08q-3.14.26-6.28.47c-2.1.15-4.19.28-6.29.4s-4.19.22-6.29.32-4.2.17-6.3.23" transform="translate(-142.57 -138.24)"/><path class="cls-1" d="M283,223q-.37,4.13-.87,8.25t-1.07,8.22q-.58,4.11-1.27,8.2t-1.47,8.16" transform="translate(-142.57 -138.24)"/><path class="cls-1" d="M277.22,254.62q1.78,4.69,3.71,9.32t4,9.2q2.08,4.56,4.32,9.06t4.61,8.9" transform="translate(-142.57 -138.24)"/><path class="cls-1" d="M347.73,214.47a59.89,59.89,0,0,1-3.2,9.93,85,85,0,0,1-4.67,9.36c-1.75,3-3.65,6-5.62,8.94s-4,5.79-6.07,8.64" transform="translate(-142.57 -138.24)"/><path class="cls-1" d="M319.74,261.14l-1.42,2-1.42,2-1.42,2-1.42,2" transform="translate(-142.57 -138.24)"/><path class="cls-1" d="M297,302.9q3.38-.51,6.78-.94t6.8-.78c2.27-.23,4.55-.43,6.82-.61s4.56-.34,6.84-.46c.62,0,1.25-.07,1.89-.07a17.08,17.08,0,0,1,1.89.09,9.25,9.25,0,0,1,1.81.38,6.62,6.62,0,0,1,1.66.78" transform="translate(-142.57 -138.24)"/><path class="cls-1" d="M330.75,302.25a21.94,21.94,0,0,0-5-2.58c-1.76-.66-3.59-1.18-5.43-1.68s-3.69-1-5.49-1.6a25.55,25.55,0,0,1-5.15-2.3" transform="translate(-142.57 -138.24)"/><path class="cls-1" d="M333.43,276.45c.34,1,.66,2.09,1,3.14s.6,2.1.88,3.15.53,2.12.77,3.19.47,2.13.69,3.21" transform="translate(-142.57 -138.24)"/></svg>