<svg id="Layer_1" data-name="Layer 1" xmlns="http://www.w3.org/2000/svg" viewBox="0 0 120.19 131.3"><defs><style>.cls-1{fill:none;stroke:#231f20;stroke-miterlimit:10;}</style></defs><path class="cls-1" d="M38.2,152.061a185.011,185.011,0,0,1,8-20.757A190.574,190.574,0,0,1,56.58,111.675a195.3,195.3,0,0,1,12.559-18.3,197.848,197.848,0,0,1,30.87-31.8,195.29,195.29,0,0,1,17.918-13.1,190.728,190.728,0,0,1,19.312-10.958A184.854,184.854,0,0,1,157.748,28.9" transform="translate(-37.724 -23.472)"/><path class="cls-1" d="M48.917,154.688q1.645-9.715,4.254-19.225t6.115-18.711q3.507-9.2,7.882-18.044t9.554-17.223Q81.9,73.1,87.853,65.237t12.613-15.12q6.66-7.253,14-13.839t15.292-12.4" transform="translate(-37.724 -23.472)"/><path class="cls-1" d="M55.3,151.345q2.413-9.456,5.753-18.631T68.6,114.736q4.2-8.8,9.217-17.184T88.6,81.306q5.773-7.866,12.263-15.167T114.5,52.194q7.139-6.644,14.891-12.581t16.048-11.075" transform="translate(-37.724 -23.472)"/></svg>