<svg id="Layer_1" data-name="Layer 1" xmlns="http://www.w3.org/2000/svg" viewBox="0 0 150.5 59.154"><defs><style>.cls-1{fill:none;stroke:#231f20;stroke-miterlimit:10;}</style></defs><path class="cls-1" d="M32,129.554q1.2-1.319,2.485-2.607t2.667-2.549q1.379-1.258,2.844-2.487t3.017-2.425q1.551-1.2,3.186-2.363t3.352-2.3q1.716-1.134,3.513-2.233t3.671-2.165q1.874-1.065,3.824-2.1t3.975-2.028q2.025-1,4.121-1.957t4.263-1.885q2.166-.926,4.4-1.813T81.86,98.91q2.3-.85,4.667-1.662t4.793-1.586q2.428-.774,4.917-1.508t5.036-1.429q2.547-.694,5.151-1.348t5.263-1.267q2.658-.614,5.37-1.184t5.473-1.1q2.763-.528,5.574-1.014t5.67-.928q2.858-.441,5.761-.84t5.85-.751q2.946-.352,5.935-.661t6.014-.569q3.027-.261,6.092-.477t6.165-.382q3.1-.168,6.233-.288t6.3-.191" transform="translate(-31.633 -73.849)"/><path class="cls-1" d="M44.407,132.768q.672-1.264,1.413-2.513t1.554-2.48q.811-1.232,1.691-2.445t1.828-2.41q.948-1.2,1.963-2.372t2.094-2.335q1.081-1.158,2.226-2.295t2.354-2.256q1.209-1.118,2.48-2.214t2.606-2.173q1.334-1.074,2.728-2.128t2.849-2.085q1.455-1.031,2.968-2.039t3.085-1.992q1.572-.986,3.2-1.945t3.313-1.9q1.685-.936,3.425-1.846t3.534-1.8q1.794-.885,3.641-1.744t3.746-1.691q1.9-.832,3.851-1.637t3.951-1.582q2-.777,4.052-1.526t4.149-1.468q2.1-.72,4.245-1.41t4.338-1.351q2.193-.66,4.431-1.291t4.521-1.228q2.281-.6,4.608-1.167t4.695-1.1q2.369-.535,4.779-1.038t4.862-.972" transform="translate(-31.633 -73.849)"/><path class="cls-1" d="M52.177,131.989q.891-1.2,1.852-2.376t1.986-2.339q1.026-1.159,2.118-2.3t2.249-2.26q1.157-1.119,2.376-2.219t2.5-2.177q1.282-1.077,2.627-2.134t2.748-2.091q1.4-1.033,2.867-2.046t2.985-2q1.523-.989,3.1-1.954t3.214-1.907q1.635-.941,3.325-1.858t3.434-1.808q1.744-.892,3.542-1.759t3.647-1.707q1.848-.84,3.749-1.655t3.85-1.6q1.95-.788,3.949-1.548t4.046-1.492q2.046-.732,4.14-1.437t4.233-1.379q2.139-.675,4.323-1.322t4.411-1.262q2.228-.617,4.5-1.2t4.581-1.142q2.311-.556,4.664-1.081t4.744-1.017q2.391-.493,4.821-.954t4.9-.89q2.467-.427,4.971-.824t5.042-.757" transform="translate(-31.633 -73.849)"/></svg>