<svg id="Layer_1" data-name="Layer 1" xmlns="http://www.w3.org/2000/svg" viewBox="0 0 222.062 184.019"><defs><style>.cls-1{fill:#231f20;}</style></defs><polygon class="cls-1" points="216.181 184.019 212.738 178.685 209.296 173.35 205.853 168.016 202.411 162.682 198.968 157.348 195.526 152.014 192.083 146.68 188.641 141.346 185.199 136.012 181.756 130.678 178.314 125.344 174.871 120.01 171.429 114.676 167.986 109.342 164.544 104.008 161.101 98.674 157.659 93.34 154.216 88.006 150.774 82.672 147.331 77.338 143.889 72.004 140.447 66.67 137.004 61.336 133.562 56.001 130.119 50.667 126.677 45.333 123.234 39.999 119.792 34.665 116.349 29.331 112.907 23.997 109.464 18.663 106.022 13.329 102.897 18.633 99.773 23.936 96.648 29.24 93.523 34.544 90.398 39.847 87.274 45.151 84.149 50.454 81.024 55.758 77.9 61.062 74.775 66.365 71.65 71.669 68.525 76.973 65.401 82.276 62.276 87.58 59.151 92.883 56.027 98.187 52.902 103.491 49.777 108.794 46.652 114.098 43.528 119.401 40.403 124.705 37.278 130.009 34.154 135.312 31.029 140.616 27.904 145.92 24.78 151.223 21.655 156.527 18.53 161.83 15.405 167.134 12.281 172.438 9.156 177.741 6.031 183.045 5.843 182.934 5.654 182.823 5.466 182.712 5.277 182.601 5.089 182.49 4.9 182.379 4.712 182.268 4.523 182.157 4.335 182.046 4.146 181.935 3.958 181.824 3.77 181.713 3.581 181.602 3.393 181.491 3.204 181.38 3.016 181.269 2.827 181.158 2.639 181.047 2.45 180.935 2.262 180.824 2.073 180.713 1.885 180.602 1.696 180.491 1.508 180.38 1.319 180.269 1.131 180.158 0.942 180.047 0.754 179.936 0.565 179.825 0.377 179.714 0.188 179.603 0 179.492 3.305 173.883 6.609 168.274 9.914 162.665 13.219 157.056 16.524 151.447 19.828 145.837 23.133 140.228 26.438 134.619 29.742 129.01 33.047 123.401 36.352 117.792 39.656 112.183 42.961 106.573 46.266 100.964 49.571 95.355 52.875 89.746 56.18 84.137 59.485 78.528 62.789 72.919 66.094 67.31 69.399 61.7 72.703 56.091 76.008 50.482 79.313 44.873 82.618 39.264 85.922 33.655 89.227 28.046 92.532 22.437 95.836 16.827 99.141 11.218 102.446 5.609 105.75 0 109.385 5.632 113.02 11.264 116.655 16.896 120.289 22.528 123.924 28.16 127.559 33.792 131.194 39.424 134.828 45.056 138.463 50.688 142.098 56.32 145.732 61.952 149.367 67.584 153.002 73.216 156.637 78.848 160.271 84.48 163.906 90.112 167.541 95.744 171.175 101.376 174.81 107.008 178.445 112.64 182.08 118.272 185.714 123.904 189.349 129.536 192.984 135.168 196.618 140.8 200.253 146.432 203.888 152.064 207.523 157.696 211.157 163.328 214.792 168.96 218.427 174.592 222.062 180.224 221.878 180.342 221.694 180.461 221.51 180.579 221.326 180.698 221.143 180.817 220.959 180.935 220.775 181.054 220.591 181.172 220.408 181.291 220.224 181.41 220.04 181.528 219.856 181.647 219.672 181.765 219.489 181.884 219.305 182.003 219.121 182.121 218.937 182.24 218.754 182.358 218.57 182.477 218.386 182.595 218.202 182.714 218.018 182.833 217.835 182.951 217.651 183.07 217.467 183.188 217.283 183.307 217.1 183.426 216.916 183.544 216.732 183.663 216.548 183.781 216.364 183.9 216.181 184.019"/></svg>