<svg id="Layer_1" data-name="Layer 1" xmlns="http://www.w3.org/2000/svg" viewBox="0 0 189.767 183.164"><defs><style>.cls-1{fill:#231f20;}</style></defs><path class="cls-1" d="M157.706,281.91l-.094-.87-.094-.87-.094-.869-.094-.87-.094-.87-.094-.87-.094-.87-.094-.87q6.441-.7,12.821-1.8t12.669-2.591q6.29-1.493,12.473-3.371t12.237-4.136q6.053-2.256,11.958-4.884t11.636-5.618q5.731-2.989,11.273-6.334t10.869-7.036q3.091-2.144,5.952-4.305t5.5-4.348q2.634-2.186,5.046-4.4t4.606-4.457q2.194-2.245,4.173-4.524t3.746-4.6q1.769-2.319,3.329-4.681t2.918-4.771q1.64-2.91,2.97-5.915t2.343-6.062q1.014-3.055,1.71-6.139a61.748,61.748,0,0,0,1.068-6.15,57.747,57.747,0,0,0,.417-6.093,53.376,53.376,0,0,0-.241-5.968,49.14,49.14,0,0,0-.908-5.774,44.92,44.92,0,0,0-1.583-5.515q-.33-.919-.707-1.844t-.8-1.85q-.421-.927-.89-1.856t-.982-1.859q-.513-.93-1.071-1.86t-1.16-1.861q-.6-.93-1.248-1.859t-1.335-1.856q-2.055-2.764-4.37-5.352t-4.867-4.983q-2.551-2.394-5.327-4.588t-5.751-4.172q-2.974-1.977-6.139-3.73t-6.491-3.265q-3.328-1.514-6.809-2.777t-7.089-2.263q-3.3-.913-6.693-1.6t-6.877-1.162q-3.478-.471-7.033-.719t-7.167-.276q-3.612-.025-7.273.169t-7.356.612q-3.695.417-7.413,1.056t-7.445,1.5c-1.781.411-3.648.884-5.578,1.427s-3.925,1.155-5.96,1.846-4.109,1.462-6.2,2.32-4.2,1.8-6.305,2.845-4.2,2.18-6.267,3.423-4.106,2.592-6.091,4.055a70.442,70.442,0,0,0-5.775,4.739,64.3,64.3,0,0,0-5.32,5.477,55.372,55.372,0,0,0-10.371,18.055,52.934,52.934,0,0,0-1.785,6.5,49.665,49.665,0,0,0-.908,6.545,45.785,45.785,0,0,0-.007,6.468,41.629,41.629,0,0,0,.92,6.27,37.328,37.328,0,0,0,4.061,10.428,41.125,41.125,0,0,0,2.782,4.225,44.522,44.522,0,0,0,3.319,3.93,47.031,47.031,0,0,0,3.8,3.587,49.349,49.349,0,0,0,4.229,3.2,50.678,50.678,0,0,0,14.712,6.81q2.393.669,4.885,1.124t5.064.7q2.569.245,5.209.276t5.324-.145q2.684-.177,5.4-.564t5.454-.98q2.735-.594,5.471-1.394t5.455-1.807c1.7-.629,3.427-1.351,5.152-2.164s3.449-1.715,5.142-2.706,3.355-2.07,4.957-3.235a52.167,52.167,0,0,0,4.6-3.749,43.905,43.905,0,0,0,4.067-4.249,36.705,36.705,0,0,0,3.362-4.735,31.181,31.181,0,0,0,2.482-5.207,28.141,28.141,0,0,0,1.43-5.663,19.828,19.828,0,0,0,.195-2.446,20.732,20.732,0,0,0-.1-2.5,20.006,20.006,0,0,0-.41-2.47,17.254,17.254,0,0,0-.722-2.353,14.343,14.343,0,0,0-1.041-2.151,11.65,11.65,0,0,0-1.366-1.862,9.6,9.6,0,0,0-1.7-1.488,8.679,8.679,0,0,0-2.038-1.027q-.315-.109-.647-.2c-.222-.06-.45-.112-.685-.158s-.476-.084-.725-.116-.5-.057-.769-.075-.536-.03-.816-.035-.569,0-.867,0-.6.023-.922.045-.643.049-.979.084a32.352,32.352,0,0,0-3.443.545,33.728,33.728,0,0,0-3.371.907,34.467,34.467,0,0,0-3.266,1.249q-1.6.708-3.127,1.573t-2.954,1.877a34.54,34.54,0,0,0-2.748,2.162,33.816,33.816,0,0,0-2.508,2.428,32.6,32.6,0,0,0-2.234,2.676l-.7-.524-.7-.524-.7-.523-.7-.524-.7-.524-.7-.523-.7-.524-.7-.524A39.154,39.154,0,0,1,188.2,166a40.433,40.433,0,0,1,3.026-2.93,41.75,41.75,0,0,1,3.316-2.61q1.724-1.22,3.565-2.265a42.056,42.056,0,0,1,7.714-3.405,40.482,40.482,0,0,1,4.068-1.094,39.2,39.2,0,0,1,4.155-.658c.469-.048.925-.087,1.371-.115s.881-.047,1.306-.055.84-.006,1.246.007.8.035,1.191.068.768.076,1.141.129.737.118,1.095.192.711.16,1.056.255.687.2,1.022.318a15.841,15.841,0,0,1,3.3,1.595,16.107,16.107,0,0,1,2.757,2.222,17.921,17.921,0,0,1,2.225,2.734,20.642,20.642,0,0,1,1.7,3.131,23.846,23.846,0,0,1,1.195,3.416,26.453,26.453,0,0,1,.695,3.585,27.6,27.6,0,0,1,.208,3.64,26.983,26.983,0,0,1-.27,3.581,35.121,35.121,0,0,1-1.367,5.867,37.62,37.62,0,0,1-2.352,5.627,41.827,41.827,0,0,1-3.288,5.337,47.111,47.111,0,0,1-4.172,4.991,53.609,53.609,0,0,1-5,4.593,61.1,61.1,0,0,1-5.787,4.143,68.975,68.975,0,0,1-6.52,3.638,77.332,77.332,0,0,1-7.2,3.082q-2.975,1.1-5.976,1.976t-6,1.522q-3,.648-6,1.066t-5.951.607q-2.959.189-5.872.147t-5.756-.317q-2.844-.274-5.606-.783t-5.419-1.25a59.034,59.034,0,0,1-6-2.029,58.041,58.041,0,0,1-5.662-2.619,56.872,56.872,0,0,1-5.269-3.165,54.936,54.936,0,0,1-4.827-3.668,53.094,53.094,0,0,1-4.334-4.127,50.517,50.517,0,0,1-3.789-4.545,48.34,48.34,0,0,1-3.2-4.917,45.6,45.6,0,0,1-4.759-12.182,48.661,48.661,0,0,1-1.122-7.225,52.178,52.178,0,0,1-.058-7.4,55.629,55.629,0,0,1,.983-7.455,58.557,58.557,0,0,1,2-7.391,61.115,61.115,0,0,1,2.992-7.21,62.889,62.889,0,0,1,3.961-6.908,64.092,64.092,0,0,1,4.906-6.49q2.181-2.534,4.642-4.891t5.191-4.533q2.727-2.173,5.715-4.161t6.219-3.777q3.232-1.791,6.7-3.381t7.158-2.973q3.69-1.382,7.594-2.551t8.007-2.118q3.939-.91,7.872-1.586t7.844-1.114q3.911-.44,7.789-.643t7.709-.172q3.83.031,7.6.3t7.467.768q3.695.5,7.305,1.239t7.118,1.709q3.888,1.077,7.64,2.441t7.342,3q3.59,1.633,7,3.531t6.629,4.037q3.213,2.14,6.213,4.517t5.76,4.971q2.76,2.595,5.267,5.4t4.735,5.8q.766,1.031,1.486,2.066t1.391,2.075q.671,1.038,1.294,2.081t1.2,2.085q.574,1.044,1.1,2.089t1,2.089q.474,1.044.9,2.088t.8,2.086a51.583,51.583,0,0,1,1.8,6.233,55.929,55.929,0,0,1,1.041,6.513,60.23,60.23,0,0,1,.3,6.715,64.893,64.893,0,0,1-.442,6.841,68.529,68.529,0,0,1-1.17,6.893c-.51,2.3-1.14,4.591-1.889,6.867s-1.615,4.536-2.6,6.766-2.085,4.43-3.3,6.588q-1.458,2.586-3.125,5.116t-3.55,5.009q-1.884,2.48-3.985,4.91t-4.427,4.82q-2.325,2.388-4.876,4.738t-5.336,4.664q-2.782,2.316-5.8,4.6t-6.277,4.542q-5.505,3.816-11.235,7.274t-11.653,6.548q-5.925,3.09-12.029,5.806T209.6,269.615q-6.256,2.332-12.649,4.275t-12.894,3.485q-6.5,1.542-13.1,2.679T157.706,281.91Z" transform="translate(-113.891 -98.746)"/></svg>