<svg id="Layer_1" data-name="Layer 1" xmlns="http://www.w3.org/2000/svg" viewBox="0 0 148.247 327.4"><defs><style>.cls-1{fill:#231f20;}</style></defs><path class="cls-1" d="M148.119,364.113,147.972,361l-.146-3.11-.147-3.11-.147-3.11a84.046,84.046,0,0,0,19.913-7.842,112.82,112.82,0,0,0,19.3-13.418,157.833,157.833,0,0,0,18.431-18.772,219.422,219.422,0,0,0,17.3-23.9q4.83-7.661,8.943-15.465t7.54-15.829q3.429-8.025,6.187-16.307t4.88-16.9c1.708-6.934,3.094-14.124,4.151-21.407s1.782-14.659,2.169-21.967.436-14.548.138-21.558a180.472,180.472,0,0,0-1.946-20.179q-.516-3.289-1.176-6.6t-1.462-6.64q-.8-3.324-1.743-6.651t-2.018-6.641a163.491,163.491,0,0,0-7.217-18.472,122.973,122.973,0,0,0-8.653-15.659,86.9,86.9,0,0,0-9.868-12.5,58.991,58.991,0,0,0-10.856-9.008,44.155,44.155,0,0,0-10.6-4.946,39.689,39.689,0,0,0-11.093-1.777,42.679,42.679,0,0,0-11.429,1.394,53.442,53.442,0,0,0-11.607,4.57,61.624,61.624,0,0,0-9.013,5.851,71.823,71.823,0,0,0-9.77,9.231,88,88,0,0,0-9.655,13.367,115.183,115.183,0,0,0-8.667,18.261,148.082,148.082,0,0,0-6.041,20.94,196.033,196.033,0,0,0-4.17,46.219,151.529,151.529,0,0,0,2.18,21.847,115.53,115.53,0,0,0,3.884,15.553,90.956,90.956,0,0,0,5.562,13.436,60.558,60.558,0,0,0,6.9,10.662,34.557,34.557,0,0,0,7.9,7.231,23.7,23.7,0,0,0,7.771,3.258,22.621,22.621,0,0,0,8.229.234,28.724,28.724,0,0,0,8.483-2.759,42.846,42.846,0,0,0,8.535-5.722,52.86,52.86,0,0,0,8.042-8.706,74.322,74.322,0,0,0,7.465-12.484,89.663,89.663,0,0,0,5.8-16.058,103.027,103.027,0,0,0,3.056-19.43,83.278,83.278,0,0,0,.072-8.841,71.043,71.043,0,0,0-.884-8.621,36.383,36.383,0,0,0-1.881-7.173A10.76,10.76,0,0,0,197.7,147a4.784,4.784,0,0,0-1.04-.636,4.681,4.681,0,0,0-1.167-.342,5.909,5.909,0,0,0-1.316-.054,8.992,8.992,0,0,0-1.484.231,14.618,14.618,0,0,0-5.323,2.595,26.06,26.06,0,0,0-4.994,5.045,44.483,44.483,0,0,0-4.455,7.219,66.561,66.561,0,0,0-3.7,9.123l-1.1-1.872-1.095-1.872-1.095-1.873-1.1-1.872A80.335,80.335,0,0,1,174.3,151.68a53.645,53.645,0,0,1,5.375-8.712,31.483,31.483,0,0,1,6.026-6.087,17.639,17.639,0,0,1,6.424-3.132,11.14,11.14,0,0,1,2.091-.3,8.138,8.138,0,0,1,1.9.132,7.291,7.291,0,0,1,1.747.575,8.38,8.38,0,0,1,1.623,1.024A17.6,17.6,0,0,1,204.225,142a50.577,50.577,0,0,1,3.07,10.485A94.121,94.121,0,0,1,208.771,165a111.925,111.925,0,0,1-.048,12.907,131.178,131.178,0,0,1-2.906,20.547,111.127,111.127,0,0,1-5.827,18.46,85.641,85.641,0,0,1-8.432,15.615,61.356,61.356,0,0,1-10.717,12.012,46.176,46.176,0,0,1-9.359,6.253,31.3,31.3,0,0,1-9.332,2.991,25.073,25.073,0,0,1-9.084-.305,26.631,26.631,0,0,1-8.613-3.633,39.871,39.871,0,0,1-9.112-8.308,68,68,0,0,1-7.888-12.214,104.034,104.034,0,0,1-6.346-15.5,138.875,138.875,0,0,1-4.487-18.171,180.231,180.231,0,0,1-2.6-25.309,218.137,218.137,0,0,1,.722-26.551,213.777,213.777,0,0,1,3.9-26.1,169.584,169.584,0,0,1,6.927-23.949A130.783,130.783,0,0,1,133.248,76.9a102.38,102.38,0,0,1,9.324-14.19A80.827,80.827,0,0,1,153.4,51.35,66.569,66.569,0,0,1,165.585,43a56.243,56.243,0,0,1,12.277-4.825,45.11,45.11,0,0,1,12.107-1.457,42.194,42.194,0,0,1,11.771,1.906A47.246,47.246,0,0,1,213.007,43.9a63.438,63.438,0,0,1,11.7,9.726,93.857,93.857,0,0,1,10.65,13.528,133.427,133.427,0,0,1,9.354,16.96,178.256,178.256,0,0,1,7.814,20.023q1.2,3.685,2.247,7.4t1.946,7.447q.9,3.732,1.639,7.468t1.327,7.461a206.345,206.345,0,0,1,2.217,22.782c.347,7.9.306,16.034-.115,24.233s-1.22,16.457-2.389,24.6-2.709,16.154-4.609,23.869q-2.277,9.246-5.215,18.1t-6.571,17.393q-3.633,8.539-7.978,16.806t-9.436,16.341a226.739,226.739,0,0,1-17.88,24.705,163.163,163.163,0,0,1-19.053,19.4A116.608,116.608,0,0,1,168.7,356.007,86.87,86.87,0,0,1,148.119,364.113Z" transform="translate(-113.891 -36.713)"/></svg>