<svg id="Layer_1" data-name="Layer 1" xmlns="http://www.w3.org/2000/svg" viewBox="0 0 148.247 327.4"><defs><style>.cls-1{fill:#231f20;}</style></defs><path class="cls-1" d="M148.119,364.113l-.073-1.555L147.972,361l-.073-1.555-.073-1.555-.074-1.555-.073-1.555-.074-1.555-.073-1.555a78.963,78.963,0,0,0,10.016-3.21,89.479,89.479,0,0,0,9.9-4.632,104.066,104.066,0,0,0,9.744-6.026q4.828-3.357,9.56-7.392t9.341-8.731q4.611-4.695,9.09-10.041t8.807-11.323q4.328-5.976,8.491-12.577,2.415-3.829,4.65-7.694t4.293-7.771q2.058-3.907,3.942-7.862t3.6-7.967q1.714-4.012,3.26-8.087t2.927-8.22q1.381-4.145,2.6-8.367t2.28-8.529q1.281-5.2,2.32-10.573t1.831-10.834c.528-3.641.973-7.306,1.335-10.974s.641-7.339.834-10.993.3-7.291.326-10.891-.039-7.162-.188-10.667-.385-6.952-.709-10.322-.736-6.663-1.237-9.857q-.258-1.644-.552-3.3t-.624-3.308q-.33-1.656-.7-3.317t-.766-3.323q-.4-1.662-.837-3.325t-.906-3.326q-.471-1.664-.975-3.324t-1.043-3.317q-1.607-4.941-3.415-9.567t-3.8-8.905q-1.992-4.281-4.161-8.2t-4.492-7.456q-2.325-3.535-4.8-6.668T222.4,64.962A65.084,65.084,0,0,0,217.085,60a53.586,53.586,0,0,0-5.538-4.046,46.366,46.366,0,0,0-5.229-2.869,42.234,42.234,0,0,0-5.372-2.077,39.675,39.675,0,0,0-11.093-1.777,41.2,41.2,0,0,0-5.683.3,44.63,44.63,0,0,0-5.746,1.094,49.8,49.8,0,0,0-5.791,1.888,57.034,57.034,0,0,0-5.816,2.682c-1.391.735-2.85,1.58-4.358,2.55s-3.066,2.065-4.655,3.3-3.211,2.612-4.845,4.146-3.282,3.223-4.925,5.085-3.281,3.9-4.9,6.119-3.208,4.634-4.759,7.248-3.061,5.433-4.511,8.472-2.842,6.3-4.156,9.789c-1.214,3.226-2.326,6.608-3.334,10.11s-1.911,7.124-2.707,10.83-1.484,7.5-2.061,11.334-1.043,7.725-1.394,11.624-.59,7.811-.71,11.7-.123,7.754,0,11.561.356,7.554.718,11.207.849,7.212,1.462,10.64q.734,4.1,1.711,8t2.173,7.553q1.2,3.651,2.593,7.024t2.969,6.412q1.572,3.04,3.3,5.719a53.573,53.573,0,0,0,3.6,4.943,40.341,40.341,0,0,0,3.845,4.085,29.652,29.652,0,0,0,4.053,3.146,24.988,24.988,0,0,0,3.816,2.009,22.6,22.6,0,0,0,3.955,1.249,22.083,22.083,0,0,0,4.07.493,23.3,23.3,0,0,0,4.159-.259,26.4,26.4,0,0,0,4.222-1.007,31.476,31.476,0,0,0,4.261-1.752,38.511,38.511,0,0,0,4.273-2.493,47.643,47.643,0,0,0,4.262-3.229,46.8,46.8,0,0,0,4.025-3.868,58.932,58.932,0,0,0,4.017-4.838,69.567,69.567,0,0,0,3.872-5.782c1.252-2.082,2.457-4.318,3.593-6.7s2.2-4.917,3.177-7.595,1.858-5.5,2.626-8.463,1.422-6.067,1.939-9.307.9-6.615,1.117-10.123c.089-1.424.141-2.889.153-4.371s-.014-2.98-.081-4.47-.173-2.969-.32-4.415-.335-2.856-.564-4.206-.5-2.64-.813-3.844a28.671,28.671,0,0,0-1.068-3.329,15.612,15.612,0,0,0-1.327-2.659A7.453,7.453,0,0,0,197.7,147a4.961,4.961,0,0,0-.5-.355,4.791,4.791,0,0,0-.535-.281,4.62,4.62,0,0,0-.567-.207,4.845,4.845,0,0,0-.6-.135,5.47,5.47,0,0,0-.638-.063,6.439,6.439,0,0,0-.678.009q-.348.023-.719.08t-.765.151a12.819,12.819,0,0,0-2.69.975,16.669,16.669,0,0,0-2.633,1.62,22.656,22.656,0,0,0-2.552,2.233,30.12,30.12,0,0,0-2.442,2.812,39.07,39.07,0,0,0-2.308,3.355q-1.116,1.808-2.147,3.864t-1.959,4.341q-.928,2.283-1.745,4.782l-.548-.936-.548-.936-.547-.936-.548-.936-.548-.937-.547-.936-.548-.936-.548-.936q.984-3.01,2.107-5.77t2.364-5.238q1.24-2.48,2.59-4.664a47.693,47.693,0,0,1,2.785-4.048,36.228,36.228,0,0,1,2.948-3.393,27.246,27.246,0,0,1,3.078-2.694,20.175,20.175,0,0,1,3.178-1.956,15.571,15.571,0,0,1,3.246-1.176q.549-.129,1.071-.206a10.228,10.228,0,0,1,1.02-.1,8.512,8.512,0,0,1,.974.011,7.622,7.622,0,0,1,.93.121,7.284,7.284,0,0,1,.891.232,7.382,7.382,0,0,1,.856.343,7.782,7.782,0,0,1,.825.456,8.989,8.989,0,0,1,.8.568,13.043,13.043,0,0,1,2.578,2.851A23.913,23.913,0,0,1,204.225,142a40.788,40.788,0,0,1,1.738,4.887c.511,1.759.955,3.636,1.332,5.6s.687,4.008.933,6.1.426,4.244.543,6.408.171,4.344.162,6.507-.079,4.307-.21,6.4q-.336,5.336-1.068,10.487t-1.838,10.06q-1.106,4.907-2.568,9.538t-3.259,8.922q-1.8,4.291-3.91,8.211a79.275,79.275,0,0,1-4.522,7.4,66.742,66.742,0,0,1-5.093,6.5,56.259,56.259,0,0,1-5.624,5.508,51.354,51.354,0,0,1-4.669,3.532,41.419,41.419,0,0,1-4.69,2.721A34.041,34.041,0,0,1,166.8,252.7a29.016,29.016,0,0,1-4.649,1.085,25.723,25.723,0,0,1-4.587.261,24.579,24.579,0,0,1-4.5-.566,25.367,25.367,0,0,1-4.379-1.4,28.191,28.191,0,0,1-4.234-2.235,34.7,34.7,0,0,1-4.689-3.627,45.932,45.932,0,0,1-4.423-4.681,60.273,60.273,0,0,1-4.117-5.658q-1.974-3.058-3.771-6.556t-3.385-7.378q-1.59-3.882-2.961-8.123t-2.5-8.79q-1.126-4.55-1.992-9.381c-.719-4.02-1.293-8.163-1.726-12.393s-.724-8.547-.876-12.916-.167-8.789-.045-13.226.378-8.891.767-13.325.911-8.851,1.562-13.212,1.432-8.669,2.338-12.887,1.939-8.346,3.094-12.349,2.434-7.882,3.833-11.6q1.7-4.529,3.626-8.743t4.055-8.1q2.132-3.887,4.465-7.438t4.859-6.752q2.524-3.2,5.234-6.043A76.229,76.229,0,0,1,153.4,51.35a69.424,69.424,0,0,1,5.932-4.561A64.23,64.23,0,0,1,165.585,43a60.312,60.312,0,0,1,6.15-2.833,52.675,52.675,0,0,1,6.127-1.992,47.091,47.091,0,0,1,6.086-1.149,43.422,43.422,0,0,1,6.021-.308,41.958,41.958,0,0,1,5.938.533,42.463,42.463,0,0,1,5.833,1.373,45.148,45.148,0,0,1,5.707,2.214,49.642,49.642,0,0,1,5.56,3.054,57.557,57.557,0,0,1,5.969,4.365,69.891,69.891,0,0,1,5.735,5.361q2.8,2.922,5.472,6.312t5.178,7.216q2.511,3.827,4.854,8.074t4.5,8.886q2.155,4.638,4.114,9.652t3.7,10.371q.6,1.842,1.16,3.693t1.087,3.709q.523,1.857,1.011,3.719t.935,3.728q.449,1.866.858,3.733t.781,3.735q.372,1.866.7,3.733t.624,3.728c.567,3.616,1.034,7.337,1.4,11.142s.64,7.692.814,11.64.25,7.957.231,12-.135,8.131-.346,12.23-.515,8.213-.913,12.32-.891,8.206-1.476,12.275-1.262,8.107-2.031,12.093-1.628,7.919-2.578,11.776q-1.139,4.623-2.442,9.145t-2.773,8.953q-1.471,4.433-3.113,8.777t-3.458,8.616q-1.817,4.269-3.81,8.468t-4.168,8.338q-2.173,4.139-4.532,8.221t-4.9,8.12q-4.3,6.821-8.776,13t-9.1,11.7q-4.627,5.524-9.4,10.379t-9.656,9.025q-4.887,4.17-9.882,7.642a107.671,107.671,0,0,1-10.073,6.229,92.517,92.517,0,0,1-10.231,4.788A81.614,81.614,0,0,1,148.119,364.113Z" transform="translate(-113.891 -36.713)"/></svg>