<svg id="Layer_1" data-name="Layer 1" xmlns="http://www.w3.org/2000/svg" viewBox="0 0 189.767 183.164"><defs><style>.cls-1{fill:#231f20;}</style></defs><path class="cls-1" d="M157.706,281.91l-.188-1.74-.188-1.739-.188-1.74-.188-1.74a206.668,206.668,0,0,0,25.49-4.387,208.673,208.673,0,0,0,48.3-18.009,206.618,206.618,0,0,0,22.142-13.37q6.183-4.287,11.448-8.653a125.725,125.725,0,0,0,9.652-8.855,98.566,98.566,0,0,0,7.919-9.123,81.844,81.844,0,0,0,6.247-9.452,68.088,68.088,0,0,0,5.313-11.977,63.29,63.29,0,0,0,2.778-12.289,55.555,55.555,0,0,0,.176-12.061,46.9,46.9,0,0,0-2.491-11.289q-.66-1.839-1.506-3.694t-1.872-3.715q-1.026-1.86-2.231-3.721t-2.583-3.715a78.118,78.118,0,0,0-9.237-10.335,84.606,84.606,0,0,0-11.078-8.76,90.368,90.368,0,0,0-12.63-7,94.689,94.689,0,0,0-13.9-5.04,101.946,101.946,0,0,0-13.57-2.767,112.319,112.319,0,0,0-14.2-1,122.54,122.54,0,0,0-14.629.781,131.566,131.566,0,0,0-14.858,2.556c-3.561.823-7.468,1.891-11.538,3.273a102.586,102.586,0,0,0-12.506,5.165A82.739,82.739,0,0,0,145.238,125a67.01,67.01,0,0,0-11.095,10.216,55.429,55.429,0,0,0-7.733,11.715,53.943,53.943,0,0,0-4.423,12.844,47.774,47.774,0,0,0-.915,13.013,38.425,38.425,0,0,0,7.763,20.923,45.849,45.849,0,0,0,7.12,7.517,50.017,50.017,0,0,0,8.832,5.965A50.622,50.622,0,0,0,154.9,211.24a56.793,56.793,0,0,0,9.949,1.823,65.695,65.695,0,0,0,10.533.131,74.181,74.181,0,0,0,10.858-1.544,80.905,80.905,0,0,0,10.926-3.2,65.509,65.509,0,0,0,10.294-4.87,56.076,56.076,0,0,0,9.556-6.984,40.037,40.037,0,0,0,7.429-8.984,29.431,29.431,0,0,0,3.912-10.87,20.5,20.5,0,0,0,.092-4.946,18.657,18.657,0,0,0-1.132-4.823,12.9,12.9,0,0,0-2.407-4.013,9.028,9.028,0,0,0-3.737-2.515,9.745,9.745,0,0,0-1.332-.356,12.39,12.39,0,0,0-1.494-.191c-.528-.037-1.088-.047-1.683-.03s-1.228.06-1.9.129a33.016,33.016,0,0,0-6.814,1.452,34.891,34.891,0,0,0-12.095,6.861,33.024,33.024,0,0,0-4.742,5.1l-1.4-1.048-1.4-1.047-1.4-1.047-1.4-1.048a39.86,39.86,0,0,1,5.722-6.158,42.085,42.085,0,0,1,14.6-8.28,39.833,39.833,0,0,1,8.223-1.752c.937-.1,1.827-.154,2.677-.17a23.536,23.536,0,0,1,2.437.075,18.567,18.567,0,0,1,2.236.321,16.634,16.634,0,0,1,2.078.573,15.836,15.836,0,0,1,6.057,3.817,19.211,19.211,0,0,1,3.929,5.865,25.148,25.148,0,0,1,1.89,7,27.42,27.42,0,0,1-.062,7.221,36.3,36.3,0,0,1-3.719,11.494,44.379,44.379,0,0,1-7.46,10.328,57.352,57.352,0,0,1-10.792,8.736,73.156,73.156,0,0,1-13.72,6.72,87.882,87.882,0,0,1-11.979,3.5,81.207,81.207,0,0,1-11.946,1.673,72.8,72.8,0,0,1-11.628-.17,63.693,63.693,0,0,1-11.025-2.033,58.655,58.655,0,0,1-11.665-4.648,56.053,56.053,0,0,1-10.1-6.833,51.888,51.888,0,0,1-8.123-8.672,46.429,46.429,0,0,1-9.076-24.324,53.811,53.811,0,0,1,.925-14.855,59.872,59.872,0,0,1,4.992-14.6,63.537,63.537,0,0,1,8.867-13.4,72.881,72.881,0,0,1,9.833-9.424,86.04,86.04,0,0,1,11.934-7.938,103.4,103.4,0,0,1,13.858-6.354,124.136,124.136,0,0,1,15.6-4.669,138.494,138.494,0,0,1,15.716-2.7,129.3,129.3,0,0,1,15.5-.815,119.3,119.3,0,0,1,15.067,1.066,108.886,108.886,0,0,1,14.423,2.948,101.556,101.556,0,0,1,14.982,5.441,97.306,97.306,0,0,1,13.633,7.568,91.6,91.6,0,0,1,11.973,9.488,85.034,85.034,0,0,1,10,11.2q1.533,2.061,2.877,4.141t2.491,4.166q1.147,2.088,2.1,4.178t1.7,4.174a53.578,53.578,0,0,1,2.838,12.746,62.619,62.619,0,0,1-.146,13.556,70.367,70.367,0,0,1-3.059,13.76,74.878,74.878,0,0,1-5.9,13.354,88.887,88.887,0,0,1-6.675,10.125,105.144,105.144,0,0,1-8.412,9.73,132.021,132.021,0,0,1-10.212,9.4q-5.566,4.631-12.078,9.142a213.7,213.7,0,0,1-22.888,13.822,215.782,215.782,0,0,1-49.933,18.615A213.6,213.6,0,0,1,157.706,281.91Z" transform="translate(-113.891 -98.746)"/></svg>