<svg id="Layer_1" data-name="Layer 1" xmlns="http://www.w3.org/2000/svg" viewBox="0 0 347.421 157.824"><defs><style>.cls-1{fill:#231f20;}</style></defs><path class="cls-1" d="M68.484,319.7q-5,0-9.994-.053t-9.981-.158q-4.988-.106-9.967-.264t-9.947-.371l.075-1.748.074-1.749.075-1.748.074-1.749q13.369.57,26.814.754t26.9-.019q13.458-.2,26.9-.79t26.8-1.56a18.181,18.181,0,0,0,2.72-.4,11.63,11.63,0,0,0,2.867-1.037,6.738,6.738,0,0,0,2.325-1.962,5.95,5.95,0,0,0,1.093-3.178,8.467,8.467,0,0,0-.069-1.68,12.428,12.428,0,0,0-.362-1.7c-.16-.572-.355-1.147-.572-1.727s-.453-1.162-.7-1.749q-.674-1.618-1.375-3.235t-1.415-3.222q-.714-1.605-1.434-3.2t-1.43-3.155c-.86-1.893-1.728-3.8-2.589-5.731s-1.716-3.877-2.551-5.849-1.652-3.966-2.435-5.989-1.534-4.071-2.237-6.151a112.86,112.86,0,0,1-3.217-11.391,96.016,96.016,0,0,1-1.834-11.007,79.685,79.685,0,0,1-.435-10.475,65.079,65.079,0,0,1,.979-9.793,60.77,60.77,0,0,1,3.853-12.956,63.249,63.249,0,0,1,5.845-10.74,69.512,69.512,0,0,1,6.872-8.594,76.517,76.517,0,0,1,26.858-18.458A68.831,68.831,0,0,1,188.613,162a67.015,67.015,0,0,1,21.775,2.277,70.169,70.169,0,0,1,20.606,9.511,68.292,68.292,0,0,1,9.535,7.731,64.384,64.384,0,0,1,7.752,9.083,61.189,61.189,0,0,1,5.8,10.2,58.858,58.858,0,0,1,3.692,11.088,67.481,67.481,0,0,1,1.6,15.522,82.918,82.918,0,0,1-1.455,14.423,99.015,99.015,0,0,1-3.192,12.42c-1.208,3.706-2.488,6.928-3.62,9.515-1.229,2.811-2.551,5.533-3.938,8.185s-2.84,5.231-4.332,7.758-3.024,5-4.569,7.432-3.1,4.833-4.648,7.21q-.8,1.227-1.6,2.472t-1.615,2.5q-.807,1.257-1.608,2.521t-1.586,2.528c-.037.059-.072.12-.107.182s-.067.124-.1.187-.063.126-.092.19-.057.127-.084.19l37.3.667,37.3.667,37.3.668,37.3.667-.032,1.749-.031,1.75-.031,1.749-.031,1.75-37.75-.675-37.749-.676-37.749-.675L224.9,312.1c-.162,0-.368-.006-.607-.025a5.626,5.626,0,0,1-.8-.117,4.988,4.988,0,0,1-.924-.3,4.8,4.8,0,0,1-.975-.569,5.12,5.12,0,0,1-1.681-2.164,6.5,6.5,0,0,1-.448-2.681,10.08,10.08,0,0,1,.534-2.857,12.783,12.783,0,0,1,1.266-2.694q.8-1.287,1.611-2.569t1.629-2.553q.818-1.27,1.632-2.528t1.62-2.5c1.506-2.318,3.026-4.656,4.53-7.026s3-4.773,4.443-7.221,2.855-4.94,4.192-7.491,2.606-5.159,3.777-7.837a95.516,95.516,0,0,0,4.423-12.334,87.461,87.461,0,0,0,2.554-12.311,73.883,73.883,0,0,0,.629-11.873,58.11,58.11,0,0,0-1.349-11.018,51.918,51.918,0,0,0-4.459-12.306,54.643,54.643,0,0,0-6.334-9.649,60.038,60.038,0,0,0-6.9-7.131,61.448,61.448,0,0,0-6.165-4.75,64.423,64.423,0,0,0-18.633-8.685,58.946,58.946,0,0,0-19.5-2.085,60.761,60.761,0,0,0-19.3,4.452A69.57,69.57,0,0,0,151.607,184.2a68.236,68.236,0,0,0-6.229,5.848,62.54,62.54,0,0,0-6.169,7.69,56.525,56.525,0,0,0-5.24,9.585,53.727,53.727,0,0,0-3.442,11.534,59.588,59.588,0,0,0-.9,10.787,76.212,76.212,0,0,0,.793,10.464,94.355,94.355,0,0,0,1.908,9.635c.758,3.016,1.606,5.81,2.447,8.3.676,2,1.4,3.974,2.16,5.931s1.553,3.9,2.368,5.818,1.651,3.824,2.493,5.71,1.692,3.756,2.534,5.609q.718,1.584,1.448,3.194t1.453,3.239q.725,1.63,1.439,3.276t1.4,3.3c.3.721.6,1.473.887,2.254s.546,1.592.764,2.428a18.937,18.937,0,0,1,.494,2.586,15.045,15.045,0,0,1,.078,2.727,13.476,13.476,0,0,1-1.326,5.136,12.4,12.4,0,0,1-3.14,4,15.586,15.586,0,0,1-4.777,2.709,23.13,23.13,0,0,1-6.239,1.271q-8.494.618-17.024,1.082t-17.08.773q-8.55.309-17.11.463T68.484,319.7Z" transform="translate(-28.595 -161.881)"/></svg>