<svg id="Layer_1" data-name="Layer 1" xmlns="http://www.w3.org/2000/svg" viewBox="0 0 335.975 222.194"><defs><style>.cls-1{fill:#231f20;}</style></defs><path class="cls-1" d="M90.069,320.784q-4.08,0-8.159-.027t-8.158-.081q-4.077-.054-8.153-.135t-8.149-.19q-4.073-.108-8.141-.244t-8.133-.3q-4.064-.162-8.123-.352t-8.111-.406l.047-.874.047-.874.047-.874.046-.873.047-.874.047-.874.047-.874.046-.873q8.387.449,16.8.78t16.844.547q8.43.216,16.872.314t16.886.08q8.445-.018,16.886-.153t16.87-.387q8.428-.252,16.84-.62t16.8-.853c.472-.028.928-.068,1.365-.121s.855-.116,1.251-.191.77-.161,1.119-.257a10.046,10.046,0,0,0,.969-.314,6.671,6.671,0,0,0,.8-.364,3.9,3.9,0,0,0,.613-.407,2.027,2.027,0,0,0,.407-.444,1.153,1.153,0,0,0,.184-.474,1.5,1.5,0,0,0,0-.348,2.578,2.578,0,0,0-.072-.391c-.034-.136-.079-.276-.13-.418s-.11-.286-.172-.43-.13-.287-.2-.427-.14-.277-.21-.408-.139-.257-.2-.375l-.184-.326q-.954-1.677-1.975-3.326t-2.094-3.271q-1.074-1.623-2.195-3.222t-2.275-3.175q-1.155-1.576-2.335-3.133t-2.375-3.1Q151.2,285.313,150,283.79t-2.4-3.031l-1.685-2.132q-.844-1.07-1.692-2.15t-1.691-2.17q-.844-1.089-1.684-2.19t-1.669-2.211q-.829-1.11-1.646-2.233t-1.617-2.255q-.8-1.132-1.579-2.278-2.766-4.067-5.264-8.294t-4.717-8.6q-2.22-4.369-4.16-8.87t-3.591-9.109q-1.651-4.61-3.011-9.317t-2.419-9.493q-1.059-4.786-1.815-9.637t-1.2-9.749c-.2-2.163-.349-4.436-.437-6.793s-.11-4.8-.047-7.3.212-5.057.468-7.647.619-5.21,1.109-7.836a79.881,79.881,0,0,1,1.878-7.867,69.463,69.463,0,0,1,2.771-7.739,61.869,61.869,0,0,1,3.79-7.453,57.119,57.119,0,0,1,4.937-7.008q1.155-1.4,2.423-2.751t2.652-2.652q1.384-1.3,2.887-2.558T133.725,120q1.626-1.212,3.374-2.382t3.626-2.3q1.876-1.131,3.883-2.224t4.147-2.152q3.919-1.936,7.879-3.575t7.941-2.973q3.981-1.336,7.975-2.366t7.982-1.754q3.987-.723,7.96-1.136t7.912-.514q3.938-.1,7.834.114t7.73.746q4.244.588,8.383,1.593t8.118,2.395q3.98,1.391,7.776,3.149t7.353,3.858a81.355,81.355,0,0,1,6.854,4.52,77.3,77.3,0,0,1,6.274,5.136,72.961,72.961,0,0,1,5.617,5.7,67.932,67.932,0,0,1,8.825,12.65,74.387,74.387,0,0,1,3.293,6.909q1.482,3.564,2.628,7.327t1.948,7.679q.8,3.915,1.256,7.963t.549,8.181q.1,4.134-.171,8.332t-.9,8.415q-.533,3.517-1.3,7.041t-1.776,7.06q-1.007,3.537-2.255,7.094t-2.74,7.139q-1.493,3.583-3.231,7.2t-3.727,7.269q-1.987,3.654-4.228,7.353t-4.734,7.449q-2.608,3.923-5.372,7.724t-5.675,7.476q-2.912,3.675-5.971,7.22t-6.262,6.959q-3.2,3.413-6.547,6.692t-6.827,6.418q-3.481,3.139-7.1,6.139t-7.37,5.854c-.066.05-.13.1-.194.156s-.126.109-.187.166-.121.115-.179.174-.116.12-.171.181-.11.122-.162.184-.1.125-.153.187-.1.126-.143.188-.09.124-.132.186q9.808-.074,19.646-.092t19.695.02q9.858.037,19.727.131t19.743.243q9.872.15,19.74.354t19.721.466q9.852.26,19.684.576t19.632.688l-.033.874-.033.874-.034.874-.033.875-.033.874-.033.874-.033.874-.034.875q-9.842-.374-19.715-.691t-19.769-.578q-9.9-.261-19.806-.467t-19.824-.353q-9.915-.15-19.826-.241t-19.811-.128q-9.9-.036-19.778-.014t-19.728.1l-.318,0c-.112,0-.229,0-.351,0s-.25-.009-.382-.018-.268-.021-.408-.038-.283-.037-.429-.063-.3-.058-.448-.1-.305-.083-.461-.136-.312-.112-.47-.181a6.056,6.056,0,0,1-.682-.347,5.87,5.87,0,0,1-.615-.417,5.7,5.7,0,0,1-.545-.482,5.609,5.609,0,0,1-.47-.543,5.371,5.371,0,0,1-.7-1.248,5.64,5.64,0,0,1-.226-.7,5.724,5.724,0,0,1-.137-.736,6.168,6.168,0,0,1-.021-1.246,7.619,7.619,0,0,1,.214-1.262,9.36,9.36,0,0,1,.418-1.254,11.287,11.287,0,0,1,.59-1.219,12.829,12.829,0,0,1,.732-1.159c.264-.374.546-.733.841-1.073s.6-.662.921-.961a11.922,11.922,0,0,1,.968-.824q3.635-2.766,7.14-5.672t6.88-5.948q3.375-3.042,6.615-6.219t6.344-6.484q3.1-3.306,6.067-6.742t5.786-7q2.82-3.561,5.5-7.243t5.2-7.485q2.387-3.588,4.527-7.12t4.042-7.018q1.9-3.484,3.56-6.927t3.085-6.85q1.425-3.407,2.615-6.783t2.148-6.73q.959-3.354,1.688-6.688t1.233-6.657q.588-3.891.838-7.757t.168-7.671q-.081-3.8-.49-7.523t-1.137-7.313q-.728-3.594-1.77-7.043t-2.39-6.71a67.379,67.379,0,0,0-3-6.316,62.635,62.635,0,0,0-3.6-5.861,61.682,61.682,0,0,0-4.438-5.658,65.8,65.8,0,0,0-5.116-5.184,69.9,69.9,0,0,0-5.722-4.668,73.877,73.877,0,0,0-6.256-4.111q-3.249-1.908-6.718-3.51t-7.109-2.867q-3.641-1.266-7.428-2.183t-7.675-1.455q-3.575-.5-7.208-.694t-7.313-.1q-3.678.1-7.392.489t-7.445,1.072q-3.731.681-7.471,1.652T166.7,111.06q-3.732,1.256-7.448,2.8t-7.4,3.36q-1.971.974-3.815,1.976t-3.565,2.036q-1.722,1.032-3.321,2.1t-3.082,2.164q-1.482,1.1-2.847,2.234t-2.619,2.307q-1.254,1.173-2.4,2.386t-2.177,2.467a50.011,50.011,0,0,0-4.43,6.317,55.253,55.253,0,0,0-3.4,6.759,63.077,63.077,0,0,0-2.478,7.053,73.283,73.283,0,0,0-1.673,7.2c-.437,2.407-.758,4.812-.982,7.191s-.354,4.733-.405,7.036-.026,4.554.058,6.729.227,4.276.408,6.275q.424,4.676,1.146,9.308t1.733,9.2q1.012,4.569,2.31,9.064t2.874,8.895q1.577,4.4,3.429,8.7t3.971,8.468q2.121,4.173,4.5,8.209t5.026,7.919q.753,1.107,1.529,2.2t1.572,2.191q.795,1.092,1.6,2.177t1.632,2.16q.82,1.077,1.65,2.145t1.66,2.129q.831,1.06,1.662,2.112t1.656,2.094q1.224,1.548,2.456,3.11t2.458,3.143q1.226,1.581,2.441,3.183t2.4,3.231q1.19,1.627,2.349,3.284t2.275,3.346q1.116,1.689,2.181,3.413t2.069,3.488c.108.189.227.4.352.626s.256.473.388.736.264.543.392.837.251.6.364.927.216.659.3,1.007a9.874,9.874,0,0,1,.211,1.075,8.947,8.947,0,0,1,.085,1.133,8.061,8.061,0,0,1-.073,1.181,8.3,8.3,0,0,1-.446,1.8,7.9,7.9,0,0,1-.821,1.61,8.553,8.553,0,0,1-1.181,1.415,10.12,10.12,0,0,1-1.526,1.208,12.69,12.69,0,0,1-1.857.994,16.556,16.556,0,0,1-2.172.77,21.83,21.83,0,0,1-2.475.536q-1.31.209-2.761.293-4.382.253-8.771.475t-8.785.412q-4.4.191-8.8.348t-8.807.285q-4.406.128-8.814.222t-8.821.158q-4.411.065-8.824.1T90.069,320.784Z" transform="translate(-24.942 -98.59)"/></svg>