<svg id="Layer_1" data-name="Layer 1" xmlns="http://www.w3.org/2000/svg" viewBox="0 0 347.421 248.774"><defs><style>.cls-1{fill:#231f20;}</style></defs><path class="cls-1" d="M68.484,319.7q-5,0-9.994-.083t-9.981-.25q-4.988-.166-9.967-.416t-9.947-.584l.075-2.756.074-2.756.075-2.757.074-2.756q13.369.9,26.814,1.188t26.9-.03q13.458-.32,26.9-1.245t26.8-2.459a12.013,12.013,0,0,0,2.72-.628,9.363,9.363,0,0,0,2.867-1.633,8.79,8.79,0,0,0,2.325-3.094,13.2,13.2,0,0,0,1.093-5.009,20.974,20.974,0,0,0-.069-2.648c-.076-.889-.2-1.784-.362-2.686s-.355-1.809-.572-2.722-.453-1.832-.7-2.756q-.674-2.552-1.375-5.1t-1.415-5.079q-.714-2.531-1.434-5.037t-1.43-4.973q-1.29-4.474-2.589-9.033t-2.551-9.219q-1.254-4.662-2.435-9.441t-2.237-9.7c-1.3-6.059-2.375-12.058-3.217-17.955s-1.455-11.694-1.834-17.351-.525-11.173-.435-16.511.415-10.5.979-15.436a139.819,139.819,0,0,1,3.853-20.423,125.838,125.838,0,0,1,5.845-16.929,115.8,115.8,0,0,1,6.872-13.547,105.648,105.648,0,0,1,6.934-10.273A78.255,78.255,0,0,1,167.065,78.8a48.794,48.794,0,0,1,21.548-7.681,43.949,43.949,0,0,1,21.775,3.59A63.109,63.109,0,0,1,230.994,89.7a86.689,86.689,0,0,1,9.535,12.186,103.485,103.485,0,0,1,7.752,14.318,119.765,119.765,0,0,1,5.8,16.081,133.17,133.17,0,0,1,3.692,17.477,165.8,165.8,0,0,1,1.6,24.468,203.938,203.938,0,0,1-1.455,22.735c-.847,7.131-1.984,13.736-3.192,19.577s-2.488,10.921-3.62,15q-1.843,6.645-3.938,12.9t-4.332,12.228c-1.492,3.982-3.024,7.878-4.569,11.716s-3.1,7.618-4.648,11.365q-.8,1.933-1.6,3.9t-1.615,3.943q-.807,1.98-1.608,3.973t-1.586,3.985c-.037.094-.072.19-.107.287s-.067.195-.1.295-.063.2-.092.3-.057.2-.084.3l37.3,1.052,37.3,1.052,37.3,1.052,37.3,1.052-.032,2.757-.031,2.758-.031,2.758-.031,2.757-37.75-1.064-37.749-1.065-37.749-1.064L224.9,307.71a5.819,5.819,0,0,1-.607-.039,3.81,3.81,0,0,1-.8-.185,3.885,3.885,0,0,1-.924-.471,4.9,4.9,0,0,1-.975-.9,8.623,8.623,0,0,1-1.681-3.412,15.646,15.646,0,0,1-.448-4.225,24.226,24.226,0,0,1,.534-4.5,26.649,26.649,0,0,1,1.266-4.245q.8-2.03,1.611-4.05t1.629-4.024q.818-2,1.632-3.986t1.62-3.933c1.506-3.654,3.026-7.339,4.53-11.075s3-7.523,4.443-11.381,2.855-7.788,4.192-11.808,2.606-8.132,3.777-12.354c1.78-6.414,3.258-12.93,4.423-19.442s2.02-13.016,2.554-19.406a182.935,182.935,0,0,0,.629-18.715,142.3,142.3,0,0,0-1.349-17.368,115.485,115.485,0,0,0-4.459-19.4,100.605,100.605,0,0,0-6.334-15.21,89.133,89.133,0,0,0-6.9-11.239,75.128,75.128,0,0,0-6.165-7.488,58.21,58.21,0,0,0-18.633-13.691,38.716,38.716,0,0,0-19.5-3.286,43.244,43.244,0,0,0-19.3,7.019,72.849,72.849,0,0,0-18.048,17.22,95.555,95.555,0,0,0-6.229,9.217,104.153,104.153,0,0,0-6.169,12.122,112.322,112.322,0,0,0-5.24,15.11,123.5,123.5,0,0,0-3.442,18.181,146.91,146.91,0,0,0-.9,17c.014,5.627.31,11.17.793,16.5s1.15,10.432,1.908,15.187,1.606,9.158,2.447,13.077q1.014,4.721,2.16,9.349t2.368,9.17q1.222,4.542,2.493,9t2.534,8.842q.718,2.5,1.448,5.035t1.453,5.105q.725,2.569,1.439,5.164t1.4,5.208c.3,1.136.6,2.322.887,3.553s.546,2.509.764,3.827.391,2.679.494,4.076a37.315,37.315,0,0,1,.078,4.3,31.414,31.414,0,0,1-1.326,8.1,20.8,20.8,0,0,1-3.14,6.3,15.75,15.75,0,0,1-4.777,4.269,16.124,16.124,0,0,1-6.239,2q-8.494.975-17.024,1.705t-17.08,1.218q-8.55.488-17.11.731T68.484,319.7Z" transform="translate(-28.595 -70.93)"/></svg>