<?xml version="1.0" standalone="no" ?>
<!DOCTYPE svg PUBLIC "-//W3C//DTD SVG 1.1//EN" "http://www.w3.org/Graphics/SVG/1.1/DTD/svg11.dtd">
<svg width="500px" height="564px" xmlns="http://www.w3.org/2000/svg" version="1.1" >
	<polyline points="31.9233,217.973 31.9137,217.917 31.9019,217.816 31.616,214.303 31.5896,213.708 31.5972,212.312 31.6617,210.519 31.7497,209.328 32.4374,202.556 32.5784,201.484 32.774,200.41 32.9177,199.834 33.5844,197.636 34.1405,195.926 34.6349,194.512 35.1604,193.109 35.5694,192.09 36,191.082 36.2421,190.544 36.3161,190.393 37.3952,188.312 38.0429,187.071 38.604,186.01 39.649,184.076 40.7182,182.156 41.8883,180.14 43.2074,177.971 43.8747,176.951 45.2391,175.018 46.1557,173.801 47.5325,172.092 48.0602,171.501 48.7647,170.808 49.7084,169.959 49.9891,169.738 50.753,169.214 51.4802,168.738 51.6202,168.649 51.7296,168.583 52.6957,168.006 53.2668,167.67 53.4026,167.592 53.4903,167.542 53.5883,167.482 54.6763,166.768 55.4287,166.274 57.1076,165.19 58.1932,164.519 59.5916,163.711 60.6458,163.152 61.8106,162.592 63.0673,162.03 63.1921,161.984 63.4877,161.896 63.6335,161.851 65.2191,161.328 67.0534,160.716 70.8071,159.46 72.6108,158.866 74.2292,158.348 77.0927,157.455 79.482,156.721 80.8211,156.313 84.0726,155.321 85.1195,154.987 85.9675,154.692 86.9925,154.301 88.3308,153.75 90.7639,152.704 96.9068,150.031 98.6541,149.289 99.951,148.774 101.825,148.09 103.056,147.687 105.262,147.049 108.93,146.075 111.259,145.518 113.677,145.017 115.845,144.628 117.469,144.37 117.635,144.348 117.793,144.329 119.09,144.176 122.837,143.731 123.007,143.717 123.184,143.714 124.209,143.733 124.35,143.736 124.592,143.738 124.971,143.726 127.362,143.575 128.955,143.453 131.145,143.257 140.466,142.384 141.986,142.252 142.398,142.228 146.785,142.083 148.084,142.044 149.683,142.006 150.481,141.998 151.579,142.011 152.176,142.037 152.871,142.093 154.461,142.265 157.736,142.662 159.716,142.93 161.888,143.264 164.054,143.639 165.819,143.982 168.456,144.549 170.304,144.983 172.239,145.48 173.971,145.962 175.624,146.458 176.833,146.851 178.341,147.379 179.274,147.735 181.209,148.543 182.934,149.323 183.99,149.859 185.022,150.447 185.255,150.601 185.357,150.683 185.455,150.771 185.559,150.856 185.725,150.971 187.356,152.002 187.568,152.136 190.979,154.321 191.626,154.731 192.608,155.336 193.289,155.737 194.507,156.425 " fill="none" stroke-width="1" stroke="rgb(232,26,75)" />
	<polyline points="183.004,157.635 183.031,157.517 183.111,157.226 183.127,157.209 183.636,157.034 185.027,156.652 186.549,156.318 187.028,156.263 187.453,156.275 188.503,156.404 189.289,156.536 190.463,156.777 191.728,157.066 192.6,157.28 193.083,157.404 " fill="none" stroke-width="1" stroke="rgb(232,26,75)" />
	<polyline points="199.396,28.6871 198.78,28.5158 197.141,28.0683 196.517,27.9076 195.105,27.5675 193.158,27.1095 189.169,26.1667 187.522,25.7573 186.367,25.4397 184.359,24.8351 182.646,24.2883 181.404,23.8681 178.161,22.7315 176.44,22.1218 176.259,22.0558 174.781,21.4977 172.732,20.7036 171.159,20.0661 169.969,19.551 169.341,19.2505 168.011,18.5614 164.653,16.7826 162.883,15.8537 161.369,15.0865 160.558,14.707 158.999,14.0393 156.04,12.8257 153.742,11.901 153.644,11.8643 152.72,11.5419 150.921,10.9333 149.97,10.6329 148.052,10.0776 146.317,9.6117 144.478,9.15728 143.597,8.96497 142.027,8.66594 140.55,8.41135 139.562,8.26172 138.472,8.12161 137.28,7.99342 135.986,7.88053 134.491,7.7797 133.194,7.72101 130.397,7.64756 127.499,7.61067 123.984,7.61145 120.203,7.65483 118.169,7.70778 117.816,7.73873 117.53,7.79796 116.676,8.05492 115.95,8.31542 115.11,8.6684 114.486,8.97362 113.321,9.61463 112.671,10.0114 111.597,10.7364 110.255,11.7074 109.027,12.655 107.573,13.8453 106.135,15.0833 104.125,16.8827 103.324,17.6341 101.612,19.3144 99.9931,20.9463 98.6741,22.3127 97.5822,23.4812 95.7018,25.5544 94.1832,27.2798 92.3726,29.4174 90.9377,31.2043 89.7519,32.8044 88.2705,34.9824 87.8141,35.7553 87.7506,35.9442 87.7579,36.0607 87.9055,36.5537 87.9112,36.6154 87.8764,36.7829 87.7418,37.1863 87.6671,37.3593 87.138,38.4066 87.0812,38.5104 86.6345,39.2723 85.3846,41.4044 84.4894,42.9525 83.7152,44.3206 83.6721,44.4099 83.4779,44.8883 83.4223,45.0198 82.4512,47.205 82.387,47.3461 81.1446,50.019 80.3947,51.6426 80.3138,51.8309 79.0658,54.9689 78.0774,57.4992 78.0046,57.7153 77.7779,58.5078 77.6806,58.8287 75.7951,64.6501 74.6216,68.2634 74.1426,69.7482 74.1107,69.8615 73.8133,71.1055 73.2732,73.4689 73.244,73.658 73.2266,73.9376 73.2164,74.1878 73.1743,74.89 73.1383,75.1264 72.4311,78.1456 72.3894,78.2962 71.8364,80.0285 71.1259,82.2149 70.0645,85.448 70.0138,85.6004 69.5322,87.0358 69.0514,88.4888 69.0166,88.618 68.865,89.3766 68.8531,89.5052 68.8644,89.6951 68.8888,89.8294 68.9629,90.1194 68.9638,90.1327 68.9421,90.2752 68.8107,90.9504 68.7694,91.0834 67.7715,93.432 66.5249,96.3255 66.49,96.4079 66.4087,96.5977 66.3231,96.7797 65.5312,98.3315 64.6251,100.048 63.6631,101.8 62.3298,104.147 59.7268,108.647 58.2697,111.154 55.4604,115.998 54.1292,118.323 54.048,118.483 53.8916,118.821 53.6887,119.208 52.8784,120.542 51.3478,122.874 49.8438,125.036 49.1105,126.017 47.9142,127.527 46.658,129.083 45.6572,130.33 44.6086,131.666 43.1856,133.53 42.203,134.859 40.8231,136.791 39.2691,139.027 37.3803,141.813 35.874,144.092 34.9826,145.493 33.9228,147.232 32.8582,149.039 32.1856,150.216 32.1468,150.294 32.0767,150.46 32.0396,150.543 31.7294,151.177 31.0656,152.514 " fill="none" stroke-width="1" stroke="rgb(232,26,75)" />
	<polyline points="26.9453,150.594 27.0298,150.453 28.1157,148.683 28.213,148.568 28.3384,148.487 28.4261,148.469 30.8213,148.532 31.46,148.531 31.5199,148.509 32.0109,148.104 32.2044,147.941 33.1813,147.146 33.8449,146.65 34.4045,146.269 " fill="none" stroke-width="1" stroke="rgb(232,26,75)" />
	<polyline points="16.8585,215.014 17.1344,213.423 17.1571,213.28 17.169,213.181 17.5442,209.152 17.711,207.161 17.8714,204.868 18.0961,201.175 18.2214,198.979 18.3943,195.984 18.5085,194.289 18.9355,188.91 19.0649,187.724 19.6133,183.868 19.8603,182.391 20.6442,178.267 21.4232,174.344 21.6864,173.072 22.1406,170.92 22.5632,168.864 22.9252,167.006 23.2905,165.058 23.4096,164.45 23.7736,162.746 24.1996,160.91 24.4493,159.945 24.7469,158.887 25.3928,156.579 25.7546,155.137 25.9921,153.989 26.0749,153.483 26.1129,153.233 26.1417,153.109 26.4388,152.159 26.8353,150.939 26.8782,150.806 26.9453,150.594 " fill="none" stroke-width="1" stroke="rgb(232,26,75)" />
	<polyline points="31.0656,152.514 30.6747,153.221 29.7152,154.939 29.6619,155.015 29.5667,155.114 29.0085,155.613 28.7529,155.84 28.4796,156.105 28.2496,156.388 27.9544,156.888 26.9427,159.022 26.2127,160.764 25.3092,163.195 24.536,165.464 24.215,166.513 23.7946,168.055 23.3039,169.992 22.8609,171.839 22.5958,173.009 22.368,174.085 21.3947,178.887 20.6757,182.516 20.2458,184.774 20.0394,185.955 19.8736,187.041 19.7469,188.031 19.6342,189.124 19.4638,191.116 19.2847,193.484 19.1115,196.002 18.6822,202.499 18.6649,202.689 18.3704,205.124 18.0977,207.102 17.7238,209.43 17.6825,209.553 17.5987,209.697 " fill="none" stroke-width="1" stroke="rgb(232,26,75)" />
	<polyline points="193.088,157.407 193.494,157.125 193.869,156.883 194.209,156.692 194.475,156.576 195.602,156.183 195.981,156.077 196.368,156.006 197.751,155.837 198.243,155.804 199.038,155.803 200.934,155.869 202.828,155.98 206.015,156.233 207.998,156.437 209.176,156.607 210.246,156.82 211.307,157.086 212.743,157.506 213.308,157.699 214.43,158.147 216.16,158.897 217.967,159.74 220.198,160.855 221.956,161.796 223.86,162.889 225.997,164.182 228.026,165.46 228.689,165.904 229.617,166.574 231.176,167.747 232.289,168.608 233.691,169.718 233.811,169.821 237.426,173.189 238.941,174.638 241.213,176.887 242.679,178.387 243.912,179.695 244.788,180.655 245.918,181.925 247.034,183.19 247.101,183.266 247.723,183.988 248.783,185.183 249.944,186.418 251.143,187.578 252.246,188.533 252.779,188.938 252.909,189.015 253.072,189.087 253.192,189.132 253.261,189.159 253.451,189.242 253.511,189.282 253.635,189.411 254.507,190.49 255.353,191.6 256.464,193.138 257.138,194.126 257.42,194.589 258.212,196.037 258.66,196.927 259.154,198.015 260.083,200.222 260.672,201.705 260.836,202.174 261.001,202.748 261.519,204.782 262.011,206.823 262.204,207.699 262.344,208.431 262.363,208.588 262.439,209.985 262.442,210.122 262.439,210.277 262.437,210.582 262.463,211.893 262.514,213.002 262.627,214.581 262.846,217.171 262.992,218.864 263.038,219.462 263.193,221.818 263.262,223.054 263.318,224.352 263.38,226.35 263.414,228.149 263.421,229.848 263.401,231.947 263.354,233.845 263.275,235.742 263.191,237.083 263.074,238.43 262.913,239.919 262.696,241.705 262.551,242.833 " fill="none" stroke-width="1" stroke="rgb(232,26,75)" />
	<polyline points="252.09,266.821 251.695,267.271 251.068,268.038 250.436,268.929 249.654,270.257 248.659,272.246 248.154,273.395 248.101,273.549 248.075,273.659 248.06,273.738 " fill="none" stroke-width="1" stroke="rgb(232,26,75)" />
	<polyline points="221.065,273.829 222.801,273.323 223.76,273.056 224.726,272.809 226.183,272.454 227.639,272.096 229.763,271.546 230.326,271.368 232.092,270.688 234.342,269.751 236.678,268.716 239.486,267.41 241.284,266.54 243.251,265.557 244.49,264.927 244.596,264.873 246.857,263.711 247.019,263.631 247.157,263.565 247.309,263.493 248.857,262.725 249.081,262.6 249.672,262.218 250.828,261.438 251.725,260.828 251.834,260.759 252.116,260.592 252.352,260.446 252.706,260.205 252.865,260.073 253.496,259.457 254.101,258.848 254.194,258.754 254.276,258.67 254.664,258.263 254.741,258.167 255.536,257.016 255.923,256.435 256.375,255.742 256.951,254.858 257.036,254.739 257.056,254.723 257.184,254.667 257.267,254.635 257.493,254.548 257.637,254.49 257.815,254.414 257.952,254.346 258.082,254.268 258.129,254.227 258.194,254.14 258.84,253.085 258.93,252.912 259.345,251.975 259.765,250.963 260.091,250.126 260.949,247.832 261.022,247.639 261.538,246.295 261.613,246.098 261.855,245.449 261.913,245.266 262.236,244.054 262.551,242.833 " fill="none" stroke-width="1" stroke="rgb(232,26,75)" />
	<polyline points="249.183,262.727 249.405,263.029 249.756,263.515 249.981,263.844 250.965,265.347 251.492,266.192 252.345,267.648 252.519,267.993 252.908,268.908 253.318,269.928 253.729,270.947 254.041,271.681 255.025,273.866 255.21,274.219 255.476,274.626 256.827,276.473 257.501,277.343 257.738,277.612 258.283,278.153 258.969,278.798 259.138,278.949 259.325,279.11 259.44,279.215 259.922,279.686 260.544,280.303 260.9,280.653 261.727,281.45 262.273,281.962 263.892,283.451 265.214,284.671 266.892,286.242 267.972,287.282 269.314,288.625 271.869,291.255 274.23,293.742 276.196,295.874 276.779,296.551 281.002,301.749 281.807,302.769 282.465,303.646 282.807,304.137 286.112,309.144 287.92,311.921 288.715,313.174 290.16,315.507 290.253,315.661 290.881,316.727 291.657,318.036 294.565,322.91 295.18,323.941 295.845,325.058 297.214,327.361 297.323,327.541 298.122,328.828 298.865,330.013 299.935,331.702 301.036,333.427 301.121,333.555 303.38,336.861 306.106,340.811 308.976,344.904 312.059,349.213 313.441,351.07 315.187,353.302 318.542,357.456 319.631,358.758 322.956,362.624 324.128,363.99 325.544,365.671 326.038,366.293 326.501,366.937 326.818,367.439 327.052,367.873 327.297,368.414 327.472,368.877 327.617,369.351 328.024,370.895 328.433,372.504 " fill="none" stroke-width="1" stroke="rgb(232,26,75)" />
	<polyline points="259.434,309.066 259.816,308.153 260.073,307.505 260.305,306.848 260.757,305.424 260.854,305.044 260.936,304.556 261.062,303.467 261.113,302.772 261.146,301.776 261.159,299.778 261.131,296.48 261.095,295.284 261.025,294.19 260.929,293.198 260.858,292.706 260.493,290.741 260.195,289.273 260.056,288.692 259.63,287.152 259.287,286.005 258.919,284.866 258.41,283.35 258.214,282.785 257.941,282.034 257.815,281.731 257.051,280.09 256.463,278.901 254.861,275.791 254.134,274.37 253.787,273.653 252.706,271.322 252.067,269.935 251.894,269.576 251.092,267.966 " fill="none" stroke-width="1" stroke="rgb(232,26,75)" />
	<polyline points="16.8585,215.014 16.5276,217.339 16.1413,219.908 15.8431,221.68 15.3765,224.133 14.9823,225.988 14.3717,228.616 13.5924,231.822 12.2538,237.259 11.8406,238.992 11.4023,240.959 11.0211,242.819 10.5409,245.373 9.49191,251.279 9.16745,253.252 8.91233,255.031 8.69777,256.816 8.54652,258.405 8.49304,259.299 8.37889,262.661 8.3814,262.812 8.56588,265.477 8.60153,265.661 9.17941,267.467 9.54043,268.658 9.99646,270.4 10.3192,271.93 10.5334,273.306 10.8588,275.984 11.2989,279.856 11.5743,282.208 11.6039,282.393 11.6123,282.409 11.6919,282.495 11.7842,282.62 11.8492,282.775 12.8418,286.6 12.8963,286.82 13.1927,288.061 13.2204,288.189 13.8222,291.255 13.8467,291.365 13.8778,291.48 14.4279,293.323 14.4713,293.466 14.489,293.528 14.5835,293.894 15.6186,298.09 16.0846,300.032 16.4107,301.435 16.4473,301.592 17.0289,304.048 17.3859,305.549 17.4248,305.707 18.0175,308.051 18.4382,309.697 19.2435,312.813 19.2757,312.921 19.6799,314.114 19.7218,314.238 20.3522,316.121 20.6699,317.064 20.7126,317.183 21.0773,318.127 21.7069,319.703 22.2165,320.911 22.3411,321.152 22.7026,321.724 22.7667,321.8 22.8303,321.847 22.9482,321.903 23.073,321.948 23.2498,322.009 23.2703,322.023 23.3531,322.138 23.9139,323.033 24.0074,323.205 24.6565,324.58 24.6979,324.678 25.7864,327.534 " fill="none" stroke-width="1" stroke="rgb(232,26,75)" />
	<polyline points="13.5049,257 13.5002,257.008 13.3981,257.237 13.2629,257.691 12.6443,260.786 12.3158,262.936 12.2241,264.121 12.1278,268.515 12.1203,271.013 12.1477,272.311 12.2382,274.407 12.3299,275.904 12.6514,280.19 12.7987,281.882 13.021,284.07 13.3405,286.952 13.8457,291.342 " fill="none" stroke-width="1" stroke="rgb(232,26,75)" />
	<polyline points="55.1633,248.003 55.1932,248.091 55.247,248.232 55.3442,248.447 55.4421,248.619 57.3864,251.591 57.8977,252.325 58.3254,252.871 58.915,253.544 59.8051,254.488 63.5695,258.358 66.776,261.656 68.0153,262.959 69.0202,264.068 70.0555,265.28 70.6926,266.087 71.3111,266.946 71.8037,267.695 72.1068,268.208 72.3816,268.738 72.6715,269.371 72.892,269.924 73.0818,270.488 73.4478,271.732 73.5713,272.213 73.6761,272.699 74.0684,274.658 74.2013,275.236 74.6408,276.874 75.4085,279.555 75.8756,281.094 76.3689,282.615 76.8586,284.032 77.5114,285.815 78.369,288.055 81.8438,296.925 81.9218,297.102 82.6298,298.534 82.7072,298.694 84.2648,301.989 85.7753,305.177 85.8275,305.28 85.8895,305.393 85.9499,305.505 86.9673,307.432 88.1071,309.588 88.1801,309.717 88.6163,310.435 88.7208,310.611 90.5258,313.743 91.5127,315.452 91.5972,315.591 92.2664,316.636 93.3601,318.309 94.5838,320.135 95.3306,321.205 96.0184,322.147 96.1489,322.312 96.1985,322.366 96.2629,322.428 96.9909,323.102 97.3178,323.428 98.2612,324.452 99.1958,325.507 100.349,326.835 101.466,328.114 102.467,329.227 103.589,330.422 104.679,331.532 105.818,332.65 106.299,333.106 106.444,333.235 108.651,335.11 108.757,335.197 109.525,335.809 110.634,336.661 112.248,337.832 113.968,338.993 114.749,339.455 115.017,339.568 115.206,339.61 115.339,339.617 115.456,339.609 115.641,339.584 115.865,339.547 115.877,339.543 116.288,339.33 116.335,339.324 116.446,339.367 120.374,341.641 121.379,342.225 121.501,342.291 122.289,342.685 123.724,343.389 124.533,343.778 125.076,344.034 " fill="none" stroke-width="1" stroke="rgb(232,26,75)" />
	<polyline points="127.926,344.964 129.922,345.644 132.188,346.407 133.138,346.716 135.329,347.402 135.456,347.438 135.541,347.456 136.19,347.56 137.109,347.682 137.259,347.683 137.697,347.64 138.554,347.584 139.225,347.633 140.716,347.968 143.662,348.859 144.969,349.338 146.893,350.163 148.978,351.126 150.96,352.075 153.03,353.072 154.541,353.783 154.722,353.852 154.819,353.872 155.221,353.914 155.619,353.975 155.857,354.049 157.043,354.572 157.224,354.666 157.429,354.797 157.57,354.908 159.099,356.305 160.623,357.744 162.553,359.629 167.232,364.284 172.889,369.94 174.927,371.974 175.071,372.107 175.913,372.821 177.984,374.526 178.995,375.329 179.482,375.698 180.136,376.178 181.663,377.304 183.582,378.725 184.057,379.074 184.187,379.166 184.527,379.402 186.566,380.839 188.908,382.533 192.949,385.51 194.304,386.501 195.202,387.13 196.706,388.121 197.889,388.85 199.324,389.667 201.15,390.641 202.369,391.253 204.263,392.158 205.17,392.578 209.904,394.728 212,395.67 213.058,396.134 214.02,396.54 215.112,396.984 216.064,397.351 218.69,398.314 219.54,398.593 220.977,398.993 223.688,399.67 225.342,400.042 226.028,400.164 227.983,400.432 229.991,400.67 230.985,400.764 233.177,400.926 235.272,401.061 239.771,401.325 " fill="none" stroke-width="1" stroke="rgb(232,26,75)" />
	<polyline points="129.916,340.345 132.212,341 133.76,341.459 134.663,341.757 135.542,342.09 136.917,342.676 139.476,343.83 139.601,343.898 139.685,343.96 140.14,344.341 141.067,345.101 141.897,345.755 142.071,345.883 142.36,346.078 142.534,346.187 143.185,346.574 143.293,346.632 144.964,347.447 146.935,348.422 149.008,349.485 150.996,350.56 152.811,351.605 154.943,352.9 155.764,353.432 156.431,353.901 157.072,354.378 157.635,354.81 " fill="none" stroke-width="1" stroke="rgb(232,26,75)" />
	<polyline points="364.694,373.663 364.499,373.636 363.033,373.448 360.653,373.167 357.572,372.842 356.08,372.713 354.884,372.646 348.79,372.425 346.092,372.358 342.494,372.318 338.295,372.318 334.796,372.356 332.299,372.421 330.603,372.502 327.613,372.71 323.929,373.021 321.942,373.228 319.664,373.522 317.79,373.814 312.081,374.821 306.384,375.89 302.427,376.688 300.715,377.076 297.741,377.816 297.636,377.852 297.54,377.9 297.466,377.943 297.396,377.979 297.305,378.013 296.555,378.228 294.287,378.848 294.178,378.875 290.259,379.764 " fill="none" stroke-width="1" stroke="rgb(232,26,75)" />
	<polyline points="287.135,375.634 287.414,375.606 287.491,375.594 287.582,375.571 290.703,374.655 293.006,373.98 294.552,373.536 294.854,373.456 294.995,373.428 296.761,373.167 296.869,373.167 296.922,373.188 296.994,373.257 297.714,374.129 297.825,374.208 298.023,374.246 300.703,374.256 301.019,374.261 301.211,374.273 301.294,374.284 301.479,374.319 301.841,374.389 301.995,374.416 302.147,374.435 302.279,374.441 302.663,374.432 302.855,374.412 306.298,373.865 311.726,372.985 314.987,372.454 315.098,372.437 316.75,372.182 317.738,372.028 318.368,371.93 " fill="none" stroke-width="1" stroke="rgb(232,26,75)" />
	<polyline points="239.771,401.325 240.041,401.062 240.332,400.796 241.245,400.028 242.802,398.783 243.703,398.109 244.335,397.687 248.794,394.918 251.722,393.107 252.499,392.619 252.659,392.513 253.351,392.032 254.585,391.183 256.077,390.179 257.751,389.087 258.347,388.723 260.07,387.739 262.076,386.641 263.782,385.757 265.488,384.93 268.031,383.771 270.136,382.855 271.979,382.081 272.902,381.698 273.915,381.272 274.918,380.835 275.634,380.509 275.913,380.374 277.051,379.804 278.175,379.246 278.348,379.168 280.143,378.436 283.87,376.938 287.135,375.634 " fill="none" stroke-width="1" stroke="rgb(232,26,75)" />
	<polyline points="290.259,379.764 287.974,380.239 284.936,380.851 281.217,381.571 279.589,381.876 278.943,382.001 277.913,382.223 276.086,382.664 274.291,383.143 271.946,383.805 270.279,384.275 270.103,384.307 269.25,384.363 269.146,384.339 268.965,384.206 268.23,383.489 " fill="none" stroke-width="1" stroke="rgb(232,26,75)" />
	<polyline points="25.7864,327.534 26.6022,329.567 27.1747,330.952 27.9703,332.784 28.4251,333.742 29.2813,335.36 29.8958,336.375 30.6314,337.406 31.2895,338.201 31.5019,338.408 31.6261,338.501 31.6817,338.535 31.8252,338.624 31.9408,338.708 32.0647,338.821 32.9922,339.786 33.1587,339.973 34.1755,341.208 35.5641,342.914 37.8994,345.783 39.5509,347.791 40.4556,348.857 45.5786,354.736 47.5055,356.902 49.7354,359.331 51.8646,361.582 55.2759,365.097 57.1098,366.938 59.0449,368.818 61.1531,370.808 62.9952,372.496 65.302,374.558 65.5289,374.745 65.6531,374.834 65.7623,374.905 65.9272,375.018 66.0999,375.156 67.8299,376.69 68.7202,377.492 69.4691,378.177 69.7031,378.4 71.2502,379.922 74.51,383.143 74.6578,383.285 76.2379,384.753 76.3482,384.849 77.2359,385.563 77.3223,385.623 77.6084,385.793 77.8742,385.949 78.0328,386.05 78.1337,386.129 80.1481,387.904 81.2761,388.882 82.5658,389.967 83.0488,390.355 85.9649,392.627 86.373,392.965 90.6942,396.766 90.7756,396.836 91.9705,397.829 92.1258,397.946 92.2364,398.017 92.3645,398.092 92.4871,398.173 92.6162,398.284 93.7281,399.415 95.3,401.087 97.3103,403.31 98.419,404.596 99.6189,406.065 101.145,408.018 102.234,409.471 102.865,410.369 104.078,412.201 105.258,414.057 106.293,415.764 106.675,416.461 107.507,418.163 108.538,420.433 109.79,423.372 110.596,425.412 111.696,428.413 112.209,429.925 112.647,431.357 112.961,432.512 113.187,433.483 113.463,434.85 113.708,436.147 113.754,436.387 114.055,437.879 114.84,441.591 115.947,446.565 117.157,451.722 117.961,454.92 118.978,458.682 119.789,461.462 120.601,464.019 121.359,466.198 122.036,467.966 122.732,469.619 123.035,470.242 123.799,471.642 124.518,472.902 124.601,473.039 125.238,474.04 125.937,475.136 126.526,476.064 127.167,477.078 127.807,478.094 128.605,479.363 129.349,480.546 " fill="none" stroke-width="1" stroke="rgb(232,26,75)" />
	<polyline points="56.019,356.141 56.0908,356.297 56.1754,356.464 56.2229,356.533 56.5369,356.884 57.713,358.101 59.1205,359.509 59.6207,359.997 60.2643,360.624 60.7518,361.118 61.088,361.488 66.962,368.305 68.2689,369.818 69.7783,371.553 70.2434,372.075 71.7905,373.776 76.3628,378.809 77.8868,380.529 79.8267,382.809 80.6637,383.847 80.7373,383.968 80.9932,384.514 81.2381,384.95 81.9037,385.885 83.2209,387.507 86.8325,391.711 87.1746,392.093 91.6596,396.964 92.7141,398.107 " fill="none" stroke-width="1" stroke="rgb(232,26,75)" />
	<polyline points="364.694,373.663 367.096,374.118 369.058,374.499 370.821,374.857 371.504,375.006 373.257,375.411 375.617,375.955 376.375,376.118 377.748,376.382 378.239,376.462 379.428,376.622 384.388,377.249 386.867,377.569 388.947,377.852 393.141,378.455 394.882,378.719 396.066,378.914 398.174,379.288 399.606,379.556 401.727,379.968 401.838,379.991 406.272,381.008 407.535,381.309 409.648,381.834 409.775,381.87 412.628,382.775 412.757,382.819 414.203,383.341 416.23,384.087 416.364,384.145 416.377,384.158 416.465,384.325 416.526,384.416 416.953,384.902 418.008,386.017 418.141,386.13 418.856,386.603 419.205,386.808 420.189,387.33 421.517,388.02 422.221,388.393 423.561,389.123 423.73,389.22 423.782,389.253 423.926,389.355 425.498,390.493 425.707,390.663 425.869,390.825 426,390.978 426.062,391.056 426.281,391.339 426.358,391.437 426.394,391.479 426.619,391.705 427.193,392.227 427.413,392.377 432.907,395.225 434.413,396.011 435.905,396.818 436.766,397.316 437.433,397.745 437.994,398.154 438.332,398.446 438.775,398.901 439.152,399.352 440.473,401.104 441.174,402.076 441.795,402.982 442.512,404.066 443.185,405.107 443.859,406.17 445.496,408.788 447.341,411.776 448.894,414.34 449.391,415.204 450.532,417.314 451.501,419.175 452.03,420.25 452.656,421.611 453.494,423.535 454.18,425.196 454.794,426.778 455.057,427.534 455.618,429.342 455.857,430.211 456.104,431.275 456.621,433.82 456.809,434.9 457.073,436.778 457.291,438.662 457.525,441.149 457.82,444.835 457.856,445.531 457.908,447.929 457.911,448.827 457.889,449.925 457.833,451.723 457.8,452.676 " fill="none" stroke-width="1" stroke="rgb(232,26,75)" />
	<polyline points="379.009,380.161 379.091,380.304 379.155,380.37 379.242,380.402 383.537,380.928 385.424,381.157 386.509,381.303 388.087,381.549 392.235,382.262 394.779,382.731 397.13,383.206 405.344,384.962 409.05,385.788 410.113,386.057 415.559,387.583 417.226,388.081 418.934,388.64 420.912,389.336 422.695,390.003 424.83,390.838 426.347,391.444 " fill="none" stroke-width="1" stroke="rgb(232,26,75)" />
	<polyline points="457.8,452.676 457.771,455.021 457.696,459.418 457.655,460.445 457.558,461.802 457.513,462.2 457.474,462.402 457.254,463.308 457.211,463.489 457,464.409 456.399,467.04 455.945,468.988 455.426,471.124 454.929,473.06 454.373,475.083 453.834,476.903 453.427,478.144 452.723,480.109 451.252,484.04 450.191,486.832 450.133,486.985 450.027,487.271 449.145,489.713 448.418,491.788 447.557,494.345 445.072,501.949 442.719,509.28 442.196,510.999 441.717,512.731 441.155,514.958 440.589,517.391 439.861,520.711 439.305,523.353 438.664,526.475 438.62,526.694 437.8,530.769 437.639,531.6 436.524,537.549 436.164,539.516 435.851,541.288 435.374,544.046 434.723,547.832 434.71,547.891 434.708,547.893 434.553,547.9 434.253,547.91 " fill="none" stroke-width="1" stroke="rgb(232,26,75)" />
	<polyline points="427.024,556.977 427.102,556.959 427.34,556.901 427.367,556.891 427.485,556.835 427.579,556.778 427.602,556.751 427.646,556.631 428.693,552.813 429.116,551.17 429.844,548.158 430.442,545.629 430.979,543.393 431.564,541.066 433.352,534.3 434.099,531.714 434.611,530.218 436.181,526.122 436.547,525.178 437.084,523.736 437.446,522.623 438.175,520.033 438.993,516.941 439.477,515.104 440.06,512.985 440.977,509.821 441.762,507.219 441.817,507.064 441.909,506.846 442.039,506.536 443.832,502.125 444.562,500.331 444.591,500.274 444.602,500.263 444.687,500.217 444.783,500.174 444.943,500.11 444.962,500.105 445.178,500.077 445.194,500.072 445.345,499.992 445.362,499.98 445.468,499.893 445.5,499.856 445.62,499.66 445.972,499.039 " fill="none" stroke-width="1" stroke="rgb(232,26,75)" />
	<polyline points="207.115,424.069 207.226,424.121 207.357,424.188 207.497,424.279 207.599,424.376 207.742,424.585 208.995,426.813 209.284,427.338 209.908,428.476 210.496,429.518 210.757,429.936 210.992,430.255 211.828,431.253 212.425,431.908 213.199,432.68 214.007,433.419 215.449,434.65 216.229,435.27 217.912,436.522 219.943,437.976 222.276,439.603 222.4,439.681 222.688,439.847 223.656,440.428 224.212,440.813 225.689,441.989 226.206,442.45 226.614,442.879 227.254,443.638 227.613,444.11 227.833,444.44 228.454,445.464 229.947,447.947 230.633,449.046 231.735,450.71 233.1,452.679 233.464,453.149 234.512,454.349 235.333,455.214 236.337,456.178 237.382,457.098 238.697,458.166 239.832,459.021 240.548,459.509 241.988,460.404 242.423,460.642 244.222,461.505 245.908,462.265 246.872,462.66 248.65,463.315 249.357,463.541 251.358,464.084 252.691,464.404 254.285,464.733 255.868,465.019 255.931,465.016 256.146,464.953 256.59,464.802 257.243,464.6 257.476,464.556 258.777,464.451 260.269,464.336 261.731,464.194 262.663,464.068 263.372,463.939 264.839,463.633 266.129,463.361 266.231,463.343 268.827,463.005 271.004,462.719 271.165,462.691 273.182,462.265 274.575,461.947 274.64,461.917 274.753,461.83 274.772,461.819 274.842,461.793 276.018,461.442 278.797,460.581 280.263,460.081 280.656,459.91 280.76,459.836 280.87,459.721 280.874,459.711 280.932,459.308 280.945,459.223 280.966,459.09 " fill="none" stroke-width="1" stroke="rgb(232,26,75)" />
	<polyline points="398.938,452.93 398.889,452.837 398.842,452.748 398.818,452.708 398.695,452.533 398.503,452.312 398.256,452.099 397.106,451.298 396.604,450.998 396.07,450.744 395.515,450.53 394.946,450.351 393.406,449.926 392.827,449.774 391.863,449.515 390.635,449.129 389.816,448.786 389.598,448.618 388.652,447.521 388.538,447.46 386.136,447.216 384.068,447.13 381.784,447.18 379.299,447.359 377.02,447.617 374.851,447.942 372.891,448.305 370.844,448.752 369.101,449.186 367.274,449.694 365.933,450.107 363.853,450.802 361.971,451.473 360.073,452.193 357.971,453.039 355.579,454.05 352.19,455.532 351.191,455.99 349.21,456.949 342.13,460.446 340.077,461.48 332.955,465.123 330.906,466.167 328.828,467.207 326.336,468.428 323.901,469.592 321.634,470.643 319.9,471.417 318.245,472.122 315.931,473.065 314.069,473.79 312.287,474.445 309.972,475.251 307.462,476.083 306.032,476.529 304.592,476.944 303.433,477.25 302.267,477.529 301.095,477.779 300.113,477.957 299.028,478.108 298.04,478.192 297.161,478.206 296.142,478.157 295.728,478.109 295.265,478.028 295.145,478.007 294.14,477.851 293.934,477.822 293.295,477.746 293.129,477.735 289.049,477.687 287.149,477.663 285.05,477.625 283.092,477.572 281.154,477.496 280.458,477.45 278.867,477.298 277.083,477.103 276.688,477.051 276.486,477.015 274.87,476.676 272.623,476.19 271.357,475.9 270.39,475.654 269.239,475.326 268.29,475.021 266.124,474.263 264.719,473.743 262.856,473.017 259.568,471.698 255.547,470.058 255.48,470.021 255.405,469.96 255.283,469.846 255.132,469.7 253.575,468.15 252.868,467.339 251.814,465.928 251.548,465.559 251.482,465.485 251.171,465.204 251.08,465.121 251.064,465.1 251.021,465.014 251.001,464.967 250.948,464.822 250.919,464.744 250.865,464.606 250.839,464.547 250.798,464.458 250.754,464.371 250.669,464.208 250.639,464.157 250.562,464.033 250.533,463.989 " fill="none" stroke-width="1" stroke="rgb(232,26,75)" />
	<polyline points="383.986,462.075 381.345,463.496 379.233,464.637 376.6,466.073 374.941,466.997 373.297,467.947 371.845,468.825 371.097,469.316 370.212,469.958 369.313,470.669 368.599,471.288 366.845,472.922 364.908,474.798 362.294,477.413 360.209,479.567 359.188,480.683 357.901,482.186 356.842,483.508 355.707,485.026 354.149,487.226 352.633,489.457 351.211,491.63 350.848,492.226 350.414,493.011 349.539,494.695 349.234,495.322 348.918,496.031 348.569,496.884 347.7,499.12 347.144,500.617 346.615,502.126 345.985,504.023 345.441,505.738 345.088,506.911 344.771,508.041 344.47,509.201 343.985,511.242 343.677,512.705 343.255,515.063 342.964,517.035 342.569,520.302 342.359,522.267 342.34,522.475 " fill="none" stroke-width="1" stroke="rgb(232,26,75)" />
	<polyline points="337.931,521.81 339.063,521.299 339.831,520.846 341.631,519.412 342.358,518.563 343.106,517.135 343.975,514.823 344.536,513.014 345.667,509.023 345.75,508.75 346.003,507.989 346.388,506.856 347.271,504.297 348.257,501.478 348.448,500.972 348.52,500.826 349.424,499.319 350.249,497.975 350.599,497.401 351.001,496.709 352.026,494.848 353.889,491.367 355.534,488.279 355.95,487.537 356.848,486.045 357.811,484.528 358.701,483.203 359.367,482.275 359.83,481.684 360.542,480.849 361.806,479.434 363.828,477.219 365.827,475.054 366.016,474.854 367.648,473.157 368.888,471.854 369.413,471.278 369.522,471.137 369.6,471.003 369.683,470.83 369.7,470.793 369.775,470.633 369.824,470.556 369.929,470.44 370.779,469.635 371.563,468.908 371.698,468.783 " fill="none" stroke-width="1" stroke="rgb(232,26,75)" />
	<polyline points="129.349,480.546 129.59,480.768 129.708,480.878 129.945,481.107 130.047,481.218 130.521,481.797 130.984,482.376 132.082,483.747 132.508,484.254 133.357,485.2 134.172,486.073 134.292,486.187 134.927,486.724 135.857,487.479 136.49,487.962 137.302,488.538 138.959,489.65 139.885,490.238 140.828,490.798 141.354,491.084 141.892,491.344 142.742,491.715 143.271,491.917 144.973,492.492 146.809,493.073 148.982,493.722 150.137,494.044 151.202,494.315 154.8,495.172 155.813,495.391 156.656,495.538 158.337,495.776 162.602,496.314 164.389,496.514 165.282,496.589 166.577,496.657 167.575,496.686 168.674,496.694 170.973,496.689 173.472,496.686 178.171,496.705 183.969,496.763 186.467,496.815 191.464,496.975 202.257,497.355 205.954,497.477 208.952,497.557 212.151,497.616 214.782,497.645 217.25,497.658 220.249,497.666 225.748,497.689 228.247,497.714 229.845,497.752 230.743,497.793 231.638,497.857 232.134,497.908 235.11,498.28 240.862,499.007 244.732,499.484 248.009,499.87 249.897,500.079 252.582,500.36 254.231,500.527 254.371,500.539 256.143,500.667 260.631,500.998 261.625,501.082 263.116,501.233 267.092,501.659 269.179,501.878 272.064,502.165 274.654,502.406 277.043,502.613 279.236,502.794 284.118,503.197 286.308,503.393 288.196,503.586 290.48,503.845 294.154,504.279 295.841,504.472 296.537,504.538 298.131,504.658 299.927,504.777 306.014,505.17 308.106,505.338 309.885,505.556 311.705,505.904 312.551,506.188 312.916,506.445 313.33,506.987 314.524,509.043 314.806,509.525 314.989,509.787 315.071,509.856 315.263,509.93 316.848,510.308 318.993,510.755 320.466,511.022 322.231,511.307 322.425,511.332 326.886,511.81 329.173,512.048 330.268,512.156 335.941,512.695 338.13,512.914 340.017,513.122 340.808,513.226 344.24,513.728 " fill="none" stroke-width="1" stroke="rgb(232,26,75)" />
	<polyline points="336.991,507.105 336.946,507.341 336.919,507.454 336.912,507.46 336.522,507.549 334.886,507.841 332.931,508.11 331.246,508.259 328.951,508.369 326.554,508.422 325.657,508.413 323.861,508.339 321.766,508.214 319.577,508.055 319.036,508.005 318.876,507.98 315.063,507.23 314.46,507.126 313.789,507.052 313.425,507.055 312.914,507.116 312.33,507.201 308.439,507.729 306.47,507.948 305.678,507.989 304.08,507.989 303.181,507.964 296.989,507.694 292.1,507.434 285.619,507.007 280.544,506.587 279.071,506.394 277.866,506.131 274.845,505.249 274.116,504.939 272.475,503.941 271.804,503.391 270.824,502.354 270.726,502.226 270.635,502.082 " fill="none" stroke-width="1" stroke="rgb(232,26,75)" />
	<polyline points="341.889,546.949 341.864,546.946 341.633,546.921 341.61,546.916 341.48,546.873 341.447,546.863 341.325,546.83 341.286,546.821 341.182,546.798 341.007,546.76 340.891,546.733 340.852,546.722 340.69,546.658 340.662,546.634 340.381,546.171 339.628,544.731 339.228,543.785 338.989,542.943 338.639,541.087 338.353,539.112 338.156,537.354 338.049,536.034 337.962,534.338 337.906,532.441 337.875,529.743 337.874,526.244 337.893,524.146 337.931,521.81 " fill="none" stroke-width="1" stroke="rgb(232,26,75)" />
	<polyline points="342.34,522.475 342.268,522.517 342.058,522.639 342.008,522.667 341.76,522.814 341.675,522.886 341.585,523.013 341.551,523.116 341.153,525.826 341.141,525.957 341.09,527.193 341.034,528.79 340.877,533.185 340.811,534.376 340.694,535.706 340.639,536.135 340.508,537.011 340.484,537.273 340.46,538.432 340.465,539.428 340.489,540.326 340.533,541.334 340.551,541.608 340.666,542.973 340.746,543.977 340.795,544.772 340.86,546.267 340.867,546.626 340.866,546.702 " fill="none" stroke-width="1" stroke="rgb(232,26,75)" />
	<polyline points="199.396,28.6871 199.48,29.8023 199.498,30.1989 199.512,31.6952 199.495,32.1901 199.429,32.8818 199.302,33.7681 199.152,34.5495 198.942,35.4196 198.635,36.4768 197.957,38.5585 197.676,39.2991 197.108,40.5653 196.874,40.9825 196.647,41.2762 196.373,41.5315 195.986,41.8074 195.553,42.0553 194.836,42.4037 193.829,42.8503 192.909,43.2328 191.979,43.5967 190.949,43.9767 189.809,44.3712 188.96,44.6398 187.329,45.11 185.689,45.5468 183.458,46.0975 182.192,46.3826 181.34,46.547 180.621,46.6572 179.332,46.8126 175.156,47.2492 172.47,47.497 171.277,47.573 168.083,47.6858 166.789,47.6972 165.201,47.6667 165.099,47.6566 165.089,47.6496 165.018,47.5254 165,47.4905 " fill="none" stroke-width="1" stroke="rgb(232,26,75)" />
	<polyline points="192.867,43.2839 193.075,43.9266 193.396,44.9295 193.888,46.5092 194.648,49.0415 195.244,51.1554 195.554,52.4177 195.931,54.2664 196.796,59.085 197.225,61.7469 197.568,64.2199 197.771,66.0057 197.936,67.8965 198.386,74.1786 198.49,75.9742 198.812,83.066 198.859,84.4646 198.924,87.863 198.974,92.3613 198.985,96.2592 198.965,97.0557 198.902,97.9505 198.322,104.021 198.099,106.005 197.797,108.18 197.265,111.534 197.015,112.909 196.623,114.766 196.083,117.103 195.574,119.139 195.075,120.97 193.802,125.389 192.09,131.18 192.054,131.265 192.031,131.287 191.912,131.344 191.823,131.378 191.658,131.431 191.565,131.461 191.309,131.554 191.257,131.586 191.136,131.709 190.587,132.36 190.444,132.541 190.429,132.565 190.359,132.739 188.99,136.379 186.513,143.031 185.201,146.597 184.657,148.101 184.323,149.043 184.111,149.65 " fill="none" stroke-width="1" stroke="rgb(232,26,75)" />
	<polyline points="149.258,89.9377 149.587,89.8629 149.763,89.824 149.986,89.7774 150.086,89.7591 150.174,89.7473 150.265,89.7401 150.411,89.7316 150.679,89.7083 150.7,89.6955 151.297,88.7499 152.816,86.2815 153.552,85.0915 153.93,84.5045 154.382,83.847 155.426,82.4017 156.216,81.3534 156.9,80.4947 157.484,79.8123 158.691,78.4817 159.723,77.3981 160.993,76.1277 161.503,75.6541 162.263,75.0081 163.43,74.07 164.067,73.5886 165.014,72.9168 165.956,72.2843 166.548,71.9156 167.24,71.5213 168.066,71.0885 168.842,70.7126 169.479,70.4291 169.938,70.2404 170.327,70.0889 170.774,69.9146 172.471,69.2371 172.775,69.1109 172.779,69.1069 172.839,68.8633 172.852,68.7972 172.909,68.4587 172.94,68.2689 172.966,68.1104 172.968,68.099 " fill="none" stroke-width="1" stroke="rgb(232,26,75)" />
	<polyline points="110.034,79.0804 110.522,78.8846 111.569,78.4626 112.004,78.2866 112.201,78.2058 112.495,78.0826 112.959,77.888 113.256,77.7695 113.481,77.6928 113.672,77.6448 114.263,77.5373 114.518,77.5035 114.913,77.4743 115.111,77.475 116.183,77.5466 116.334,77.5679 116.77,77.6691 118.99,78.2506 120.723,78.7283 121.391,78.9301 123.101,79.4867 124.574,79.9767 125.41,80.2618 125.741,80.3857 126.527,80.7199 126.96,80.941 128.584,81.9079 129.327,82.3992 130.365,83.1667 130.82,83.5462 131.323,84.0252 131.749,84.4771 132.123,84.9081 132.537,85.4105 134.138,87.3618 134.331,87.5638 134.486,87.6825 134.624,87.761 134.679,87.7846 134.813,87.8303 134.956,87.8778 " fill="none" stroke-width="1" stroke="rgb(232,26,75)" />
	<polyline points="141.536,142.069 141.287,140.923 140.807,138.777 140.489,137.471 140.232,136.559 139.57,134.465 139.113,133.145 138.374,131.182 137.664,129.422 137.028,127.957 135.706,125.086 135.165,123.98 133.879,121.482 133.711,121.169 131.3,116.806 131.2,116.63 131.109,116.48 130.024,114.762 129.897,114.574 128.934,113.247 128.84,113.137 128.741,113.052 128.623,112.977 128.483,112.909 128.291,112.833 128.25,112.823 128.037,112.796 127.49,112.741 125.511,112.535 125.285,112.484 125.149,112.413 125.004,112.289 124.731,112.005 123.984,111.204 122.424,109.551 122.321,109.454 121.292,108.603 121.142,108.478 121.048,108.394 120.948,108.292 118.97,106.086 117.524,104.434 117.084,103.895 116.429,103.015 115.744,102.033 115.368,101.446 114.709,100.329 114.328,99.6295 113.698,98.3823 113.449,97.84 113.225,97.2865 113.064,96.8167 112.899,96.2431 112.61,95.082 112.486,94.4981 112.354,93.7121 112.294,93.2189 112.26,92.7235 112.247,92.1266 112.26,91.5292 112.302,90.8326 112.379,90.0385 112.474,89.348 112.586,88.7627 112.89,87.505 113.137,86.6478 113.454,85.7445 113.877,84.7013 114.291,83.7963 114.697,82.9971 115.039,82.3892 116.984,79.1254 117.769,77.8191 " fill="none" stroke-width="1" stroke="rgb(232,26,75)" />
	<polyline points="123.379,110.398 123.985,110.291 124.869,110.128 125.75,109.951 126.136,109.859 126.613,109.718 127.366,109.458 128.013,109.203 128.647,108.917 129.715,108.381 130.143,108.137 130.64,107.808 131.445,107.222 131.834,106.912 132.437,106.391 133.253,105.655 133.842,105.113 134.94,104.092 " fill="none" stroke-width="1" stroke="rgb(232,26,75)" />
	<polyline points="178.167,166.01 178.187,166.055 178.228,166.159 179.243,168.994 179.937,170.975 181.595,175.798 182.236,177.692 182.765,179.307 183.305,181.022 183.848,182.841 184.392,184.777 184.925,186.793 185.059,187.375 185.379,189.043 185.684,190.814 185.779,191.505 185.924,192.995 186.123,195.585 186.237,197.579 186.315,199.774 186.34,201.671 186.322,203.368 186.268,205.065 186.185,206.661 186.134,207.257 185.704,211.132 185.575,212.122 185.338,213.601 185.182,214.382 184.168,218.76 183.269,222.488 183.218,222.652 183.203,222.666 182.942,222.755 182.905,222.765 182.816,222.786 182.679,222.815 182.414,222.871 182.224,222.913 182.072,222.948 182.036,222.957 " fill="none" stroke-width="1" stroke="rgb(232,26,75)" />
	<polyline points="54.0012,243.849 54.022,243.8 54.0542,243.714 54.0782,243.633 54.1239,243.45 54.1356,243.412 54.2142,243.227 54.2442,243.195 54.4719,243.087 56.9221,242.131 58.0464,241.72 58.8997,241.438 60.3352,241.009 61.0084,240.834 61.8838,240.649 63.8492,240.299 65.9213,239.976 69.5831,239.468 70.3752,239.384 72.1679,239.264 73.4637,239.215 74.5602,239.215 76.8553,239.288 80.9266,239.488 83.3374,239.65 85.909,239.877 88.2097,240.119 89.9959,240.334 94.7577,240.934 96.5438,241.143 98.2328,241.304 100.223,241.441 101.817,241.502 103.612,241.509 105.907,241.45 108.199,241.329 109.988,241.179 111.77,240.964 113.838,240.642 115.662,240.29 117.245,239.917 118.882,239.456 121.568,238.61 123.378,237.995 124.743,237.497 126.987,236.647 129.043,235.868 130.731,235.249 132.148,234.762 133.386,234.378 135.404,233.813 137.554,233.261 138.793,232.979 139.279,232.899 139.97,232.833 140.867,232.789 141.765,232.773 142.764,232.778 145.763,232.826 147.762,232.856 149.861,232.874 152.061,232.873 153.96,232.848 158.017,232.751 158.953,232.708 160.047,232.62 161.835,232.432 163.693,232.2 164.606,232.061 165.462,231.898 169.1,231.117 173.202,230.204 174.759,229.841 176.509,229.416 178.353,228.964 178.936,228.831 179.327,228.759 180.756,228.547 181.401,228.473 182.693,228.37 183.39,228.337 184.188,228.332 185.085,228.359 185.778,228.411 186.266,228.48 186.745,228.587 187.31,228.761 188.148,229.073 189.16,229.495 190.526,230.11 191.516,230.586 192.492,231.089 193.277,231.527 194.214,232.096 195.296,232.807 196.266,233.502 198.085,234.901 199.87,236.345 200.923,237.259 201.934,238.218 203.249,239.568 204.046,240.463 204.788,241.394 205.842,242.846 206.791,244.251 207.856,245.94 209.08,248 210.255,250.089 213.248,255.631 215.808,260.496 216.788,262.46 217.619,264.273 218.385,266.113 219.121,268.073 219.824,270.151 220.493,272.345 220.996,274.171 221.352,275.624 221.47,276.209 221.558,276.8 221.618,277.395 221.783,279.587 221.824,280.343 221.877,281.983 221.903,283.38 221.903,284.078 221.891,284.935 " fill="none" stroke-width="1" stroke="rgb(232,26,75)" />
	<polyline points="221.891,284.935 222.824,285.222 223.683,285.501 224.331,285.737 225.999,286.404 227.745,287.146 230.299,288.289 231.833,289.016 233.616,289.916 236.508,291.444 237.398,291.947 239.449,293.187 240.289,293.716 240.803,294.058 240.919,294.142 242.968,295.754 246.025,298.175 247.898,299.675 251.785,302.819 254.883,305.349 257.736,307.705 259.034,308.8 259.479,309.198 259.813,309.526 261.016,310.794 262.017,311.883 266.235,316.56 267.365,317.828 269.212,319.931 270.662,321.585 272.511,323.687 278.721,330.743 280.828,333.151 282.463,335.041 283.568,336.331 285.063,338.079 286.306,339.514 287.502,340.857 289.259,342.772 291.589,345.246 293.104,346.807 294.89,348.587 296.707,350.348 298.064,351.629 298.802,352.303 299.776,353.163 300.833,354.08 301.971,355.058 303.565,356.424 306.828,359.224 307.811,360.075 309.011,361.132 310.053,362.067 311.155,363.084 313.114,364.939 313.747,365.574 314.828,366.746 315.469,367.504 316.192,368.453 316.869,369.432 317.502,370.443 317.786,370.963 318.258,371.951 318.958,373.495 " fill="none" stroke-width="1" stroke="rgb(232,26,75)" />
	<polyline points="196.04,295.072 196.36,295.161 196.415,295.178 196.597,295.236 196.675,295.264 196.776,295.311 196.878,295.381 196.917,295.435 197.579,297.214 197.965,298.345 198.747,300.823 199.096,301.971 199.614,303.695 200.02,305.034 200.583,306.848 201.099,308.482 201.14,308.602 202.213,311.475 202.997,313.529 203.514,314.827 204.025,316.053 204.103,316.22 204.456,316.881 205.103,318.054 205.478,318.712 205.796,319.247 205.855,319.332 206.39,320.016 206.967,320.73 208.231,322.254 209.331,323.548 209.863,324.143 210.347,324.643 210.712,324.984 211.167,325.363 211.959,325.969 212.447,326.312 212.868,326.576 213.735,327.067 214.209,327.309 214.539,327.449 215.009,327.605 215.966,327.866 216.543,327.988 217.683,328.168 217.841,328.176 218.318,328.14 218.972,328.066 219.093,328.05 219.123,328.046 219.229,328.037 221.557,327.858 223.949,327.674 225.045,327.584 226.537,327.443 228.127,327.272 229.415,327.111 230.105,327.004 231.973,326.663 233.737,326.314 235.986,325.836 237.642,325.458 239.875,324.912 242.197,324.306 244.793,323.574 246.214,323.115 247.975,322.452 250.193,321.534 250.614,321.34 250.628,321.326 250.685,321.187 250.707,321.119 250.738,321.008 250.774,320.865 250.784,320.829 250.806,320.744 250.815,320.708 250.852,320.569 250.861,320.533 250.888,320.398 250.895,320.361 250.935,320.114 250.94,320.08 " fill="none" stroke-width="1" stroke="rgb(232,26,75)" />
	<polyline points="66.0443,357.138 66.0474,357.162 66.0772,357.38 66.0966,357.514 66.1023,357.544 66.1229,357.63 66.1331,357.668 66.1736,357.809 66.1933,357.878 66.2256,357.99 66.2436,358.048 66.2736,358.129 66.2822,358.138 66.6688,358.322 67.8693,358.815 68.7836,359.108 70.5191,359.515 71.5344,359.688 72.5844,359.799 73.478,359.845 75.5744,359.879 76.2717,359.869 76.8678,359.833 77.5612,359.761 78.1521,359.674 78.9359,359.525 80.1043,359.263 81.7484,358.851 83.5762,358.346 84.1384,358.16 85.3525,357.681 86.8092,357.055 87.8033,356.592 88.8751,356.057 90.6703,355.127 93.8439,353.478 96.1581,352.3 97.7748,351.519 98.8895,351.028 100.537,350.375 101.663,349.976 103.567,349.379 104.719,349.064 106.856,348.558 108.907,348.124 110.866,347.748 111.529,347.632 111.693,347.606 111.816,347.586 114.149,347.185 116.311,346.796 117.289,346.604 118.453,346.354 118.65,346.307 121.035,345.688 121.162,345.652 122.597,345.194 122.952,345.065 123.394,344.872 124.11,344.521 124.725,344.193 125.066,343.992 125.399,343.776 126.303,343.153 127.169,342.546 127.359,342.408 127.812,342.06 128.906,341.195 129.366,340.816 129.916,340.345 " fill="none" stroke-width="1" stroke="rgb(232,26,75)" />
	<polyline points="127.953,344.973 128.215,344.723 128.719,344.237 129.004,343.958 129.216,343.747 129.71,343.253 130.066,342.909 130.287,342.712 130.824,342.266 131.599,341.634 131.984,341.318 132.363,341.005 " fill="none" stroke-width="1" stroke="rgb(232,26,75)" />
	<polyline points="195.166,362.002 195.337,362.532 195.484,362.937 195.804,363.69 195.986,364.023 197.078,365.685 197.387,366.131 197.999,366.998 198.257,367.398 198.45,367.753 198.583,368.032 198.849,368.563 199.065,368.876 199.439,369.244 199.908,369.588 200.388,369.866 200.554,369.934 201.177,370.101 201.851,370.24 202.635,370.354 203.726,370.465 204.663,370.529 205.619,370.575 206.418,370.608 207.812,370.676 208.73,370.736 209.072,370.767 209.555,370.81 209.846,370.813 210.906,370.725 212.276,370.541 216.021,369.921 218.878,369.43 219.666,369.306 220.556,369.195 222.543,369.002 223.536,368.936 225.332,368.874 226.629,368.859 227.627,368.874 228.725,368.915 230.223,368.992 231.619,369.08 233.612,369.232 234.503,369.33 236.078,369.574 239.602,370.222 242.427,370.793 242.769,370.876 242.778,370.885 242.835,371.08 242.87,371.223 242.874,371.249 242.908,371.529 242.916,371.582 242.941,371.719 242.97,371.863 242.972,371.874 " fill="none" stroke-width="1" stroke="rgb(232,26,75)" />
	<polyline points="112.021,428.983 113.006,428.366 113.675,427.932 114.331,427.479 115.133,426.887 115.76,426.396 116.374,425.886 118.354,424.202 119.426,423.305 120.976,422.044 123.634,419.928 124.122,419.556 125.403,418.624 126.623,417.752 128.014,416.775 129.66,415.64 130.739,414.918 132,414.109 133.697,413.055 135.039,412.238 135.182,412.153 136.901,411.162 139.324,409.762 146.681,405.506 148.672,404.357 148.848,404.259 151.517,402.843 153.642,401.728 155.865,400.585 157.653,399.693 159.905,398.611 161.901,397.691 164.006,396.767 165.851,396.001 167.964,395.175 169.773,394.515 172.798,393.479 174.461,392.948 176.619,392.317 178.835,391.715 180.677,391.253 181.845,390.988 183.9,390.56 185.861,390.166 190.465,389.246 191.64,388.993 192.606,388.755 193.076,388.613 193.346,388.503 193.603,388.363 194.617,387.728 195.265,387.312 " fill="none" stroke-width="1" stroke="rgb(232,26,75)" />
	<polyline points="438.515,398.46 438.902,398.471 439.7,398.491 440.099,398.498 441.498,398.511 444.298,398.545 448.094,398.62 449.186,398.669 451.012,398.802 451.202,398.82 451.311,398.834 453.125,399.092 454.708,399.324 456.584,399.609 458.405,399.899 458.533,399.927 459.5,400.191 459.615,400.223 460.421,400.454 461.616,400.808 462.652,401.137 462.824,401.213 463.953,401.868 465.032,402.532 465.658,402.937 466.217,403.303 466.961,403.78 467.723,404.255 468.382,404.666 469.07,405.11 469.645,405.505 471.59,406.909 472.065,407.272 472.836,407.906 473.742,408.69 475.45,410.227 475.954,410.708 476.453,411.236 477.489,412.411 478.058,413.103 478.844,414.135 480.605,416.56 481.64,418.044 482.57,419.45 483.687,421.224 484.407,422.423 484.998,423.465 485.421,424.258 486.237,425.861 486.769,426.936 487.247,427.927 488.267,430.08 488.343,430.252 488.741,431.217 489.335,432.698 489.876,434.095 490.298,435.238 490.392,435.545 490.972,437.861 491.49,440.093 491.615,440.774 491.694,441.462 491.74,442.256 491.758,443.254 491.749,444.152 491.712,445.551 491.659,447.25 491.595,449.348 491.485,453.246 491.257,461.342 491.128,465.339 491.05,467.035 490.934,468.79 490.532,473.812 490.435,474.806 490.327,475.639 490.234,476.186 490.087,476.867 489.868,477.738 489.7,478.318 489.211,479.833 488.032,483.339 487.178,485.793 486.464,487.767 485.586,490.106 484.623,492.628 484.052,494.122 483.662,495.15 481.33,501.323 480.562,503.306 480.227,504.105 479.889,504.825 478.331,507.957 477.22,510.202 476.319,512.089 475.332,514.273 474.244,516.848 473.336,519.169 472.668,521.042 472.086,522.817 472.007,523.104 471.852,523.788 471.688,524.571 471.613,524.96 471.547,525.353 470.95,529.206 470.559,531.777 470.057,535.139 469.574,538.403 469.103,541.568 468.63,544.632 467.824,549.462 467.51,550.916 466.906,552.985 466.402,554.345 466.182,554.771 466.073,554.905 466.033,554.925 465.453,554.998 " fill="none" stroke-width="1" stroke="rgb(232,26,75)" />
</svg>
