<?xml version="1.0" encoding="utf-8" ?>
<svg baseProfile="full" height="317" version="1.1" viewBox="0,0,570,317" width="570" xmlns="http://www.w3.org/2000/svg" xmlns:ev="http://www.w3.org/2001/xml-events" xmlns:xlink="http://www.w3.org/1999/xlink"><defs><style type="text/css"><![CDATA[
	.background { fill: white; }
	.line { stroke: firebrick; stroke-width: .1mm; }
	.blacksquare { fill: indigo; }
	.whitesquare { fill: white; }
]]></style></defs><path d="M 376.288000 113.198000 L 378.119000 112.465000 L 379.952000 111.737000 L 381.789000 111.019000 L 383.630000 110.312000 L 385.476000 109.619000 L 387.328000 108.942000 L 389.190000 108.292000 L 391.055000 107.652000 L 392.935000 107.055000 L 394.822000 106.481000 L 396.717000 105.936000 L 398.618000 105.412000 L 400.526000 104.911000 L 402.438000 104.428000 L 404.353000 103.958000 L 406.273000 103.507000 L 408.192000 103.053000 L 410.113000 102.607000 L 412.034000 102.161000 L 413.952000 101.701000 L 415.876000 101.269000 L 417.795000 100.812000 L 419.720000 100.384000 L 421.640000 99.933700 L 423.565000 99.503900 L 425.486000 99.058500 L 427.411000 98.631600 L 429.334000 98.191400 L 431.257000 97.755700 L 433.180000 97.319500 L 435.101000 96.871200 L 437.024000 96.434900 L 438.945000 95.987400 L 440.867000 95.545300 L 442.787000 95.093500 L 444.705000 94.638300 L 446.623000 94.175600 L 448.538000 93.705900 L 450.452000 93.230200 L 452.364000 92.748400 L 454.275000 92.260200 L 456.184000 91.765300 L 458.091000 91.261000 L 459.995000 90.746200 L 461.894000 90.217000 L 463.789000 89.670100 L 465.678000 89.103500 L 467.559000 88.510600 L 469.434000 87.897900 L 471.297000 87.250400 L 473.153000 86.584500 L 474.996000 85.882000 L 476.820000 85.134100 L 478.646000 84.387800 L 480.449000 83.589800 L 482.259000 82.806100 L 484.047000 81.974400 L 485.837000 81.145200 L 487.609000 80.279600 L 489.379000 79.409800 L 491.129000 78.501200 L 492.872000 77.578900 L 494.595000 76.619100 L 496.286000 75.604300 L 497.961000 74.562000 L 499.590000 73.450700 L 501.196000 72.306800 L 502.768000 71.115500 L 504.306000 69.880400 L 505.824000 68.622400" fill="none" stroke="black" stroke-width="2.0" /><path d="M 347.207000 176.502000 L 346.815000 176.809000 L 346.422000 177.116000 L 346.030000 177.424000 L 345.638000 177.731000 L 345.245000 178.038000 L 344.853000 178.344000 L 344.460000 178.651000 L 344.067000 178.958000 L 343.666000 179.253000 L 343.264000 179.548000 L 342.863000 179.843000 L 342.461000 180.138000 L 342.070000 180.446000 L 341.678000 180.754000 L 341.286000 181.062000 L 340.894000 181.369000 L 340.489000 181.659000 L 340.084000 181.949000 L 339.679000 182.239000 L 339.275000 182.531000 L 338.884000 182.839000 L 338.492000 183.148000 L 338.101000 183.456000 L 337.709000 183.763000 L 337.307000 184.058000 L 336.905000 184.352000 L 336.503000 184.646000 L 336.100000 184.940000 L 335.695000 185.230000 L 335.290000 185.520000 L 334.885000 185.810000 L 334.479000 186.099000 L 334.068000 186.381000 L 333.658000 186.663000 L 333.247000 186.946000 L 332.836000 187.227000 L 332.421000 187.503000 L 332.006000 187.778000 L 331.591000 188.054000 L 331.175000 188.328000 L 330.755000 188.596000 L 330.335000 188.864000 L 329.915000 189.132000 L 329.494000 189.399000 L 329.069000 189.659000 L 328.644000 189.919000 L 328.219000 190.179000 L 327.793000 190.438000 L 327.363000 190.689000 L 326.933000 190.940000 L 326.502000 191.191000 L 326.071000 191.440000 L 325.635000 191.682000 L 325.200000 191.924000 L 324.764000 192.166000 L 324.327000 192.405000 L 323.885000 192.635000 L 323.443000 192.865000 L 323.001000 193.096000 L 322.558000 193.323000 L 322.110000 193.541000 L 321.662000 193.760000 L 321.215000 193.978000 L 320.765000 194.193000 L 320.311000 194.397000 L 319.856000 194.602000 L 319.402000 194.806000 L 318.946000 195.006000 L 318.483000 195.191000 L 318.021000 195.377000 L 317.558000 195.563000 L 317.096000 195.749000 L 316.634000 195.935000 L 316.172000 196.122000 L 315.711000 196.309000 L 315.246000 196.490000 L 314.777000 196.656000 L 314.307000 196.822000 L 313.837000 196.987000 L 313.367000 197.152000 L 312.896000 197.314000 L 312.425000 197.477000 L 311.953000 197.639000 L 311.480000 197.795000 L 311.004000 197.940000 L 310.527000 198.085000 L 310.050000 198.230000 L 309.573000 198.372000 L 309.094000 198.508000 L 308.614000 198.645000 L 308.135000 198.781000 L 307.655000 198.912000 L 307.171000 199.033000 L 306.688000 199.154000 L 306.205000 199.275000 L 305.721000 199.394000 L 305.235000 199.506000 L 304.750000 199.619000 L 304.265000 199.732000 L 303.778000 199.840000 L 303.291000 199.941000 L 302.803000 200.042000 L 302.315000 200.143000 L 301.826000 200.242000 L 301.338000 200.338000 L 300.849000 200.434000 L 300.360000 200.530000 L 299.870000 200.623000 L 299.380000 200.713000 L 298.890000 200.802000 L 298.400000 200.891000 L 297.910000 200.980000 L 297.419000 201.069000 L 296.929000 201.157000 L 296.439000 201.245000 L 295.948000 201.333000 L 295.458000 201.421000 L 294.967000 201.509000 L 294.477000 201.597000 L 293.986000 201.685000 L 293.496000 201.774000 L 293.006000 201.863000 L 292.516000 201.951000 L 292.026000 202.042000 L 291.536000 202.135000 L 291.047000 202.227000 L 290.557000 202.320000 L 290.068000 202.414000 L 289.579000 202.509000 L 289.090000 202.604000 L 288.601000 202.699000 L 288.112000 202.796000 L 287.624000 202.897000 L 287.136000 202.997000 L 286.648000 203.097000 L 286.160000 203.198000 L 285.672000 203.300000 L 285.185000 203.402000 L 284.697000 203.504000 L 284.210000 203.610000 L 283.724000 203.718000 L 283.237000 203.827000 L 282.751000 203.935000 L 282.265000 204.045000 L 281.779000 204.156000 L 281.294000 204.268000 L 280.808000 204.379000 L 280.323000 204.494000 L 279.839000 204.611000 L 279.355000 204.729000 L 278.871000 204.846000 L 278.387000 204.966000 L 277.904000 205.086000 L 277.420000 205.207000 L 276.937000 205.327000 L 276.454000 205.452000 L 275.973000 205.579000 L 275.491000 205.707000 L 275.009000 205.834000 L 274.528000 205.963000 L 274.047000 206.092000 L 273.566000 206.222000 L 273.085000 206.352000 L 272.605000 206.487000 L 272.127000 206.625000 L 271.648000 206.763000 L 271.169000 206.901000 L 270.691000 207.040000 L 270.212000 207.180000 L 269.734000 207.319000 L 269.256000 207.459000 L 268.780000 207.605000 L 268.304000 207.754000 L 267.828000 207.902000 L 267.352000 208.050000 L 266.877000 208.199000 L 266.402000 208.349000 L 265.927000 208.498000 L 265.451000 208.648000 L 264.977000 208.802000 L 264.504000 208.956000 L 264.030000 209.110000 L 263.556000 209.265000 L 263.083000 209.421000 L 262.610000 209.578000 L 262.137000 209.734000 L 261.664000 209.890000 L 261.191000 210.046000 L 260.717000 210.201000 L 260.244000 210.356000 L 259.771000 210.512000 L 259.298000 210.670000 L 258.825000 210.827000 L 258.352000 210.985000 L 257.879000 211.140000 L 257.404000 211.291000 L 256.930000 211.443000 L 256.455000 211.594000 L 255.980000 211.745000 L 255.505000 211.896000 L 255.030000 212.047000 L 254.555000 212.197000 L 254.079000 212.343000 L 253.601000 212.485000 L 253.124000 212.627000 L 252.646000 212.770000 L 252.168000 212.908000 L 251.689000 213.045000 L 251.210000 213.182000 L 250.731000 213.319000 L 250.250000 213.450000 L 249.769000 213.580000 L 249.288000 213.709000 L 248.807000 213.839000 L 248.324000 213.960000 L 247.840000 214.081000 L 247.357000 214.202000 L 246.873000 214.322000 L 246.388000 214.434000 L 245.902000 214.546000 L 245.417000 214.657000 L 244.931000 214.768000 L 244.442000 214.866000 L 243.954000 214.964000 L 243.465000 215.062000 L 242.976000 215.157000 L 242.486000 215.243000 L 241.995000 215.329000 L 241.504000 215.415000 L 241.012000 215.494000 L 240.518000 215.557000 L 240.024000 215.621000 L 239.530000 215.685000 L 239.035000 215.745000 L 238.540000 215.799000 L 238.045000 215.853000 L 237.549000 215.907000 L 237.053000 215.939000 L 236.554000 215.952000 L 236.056000 215.966000 L 235.558000 215.979000 L 235.060000 215.987000 L 234.562000 215.991000 L 234.064000 215.995000 L 233.566000 215.999000 L 233.068000 215.975000 L 232.571000 215.942000 L 232.074000 215.909000 L 231.577000 215.877000 L 231.090000 215.775000 L 230.606000 215.658000 L 230.121000 215.541000 L 229.637000 215.424000 L 229.153000 215.308000 L 228.668000 215.192000 L 228.183000 215.076000 L 227.699000 214.960000 L 227.249000 214.747000 L 226.798000 214.533000 L 226.348000 214.320000 L 225.898000 214.107000 L 225.442000 213.905000 L 224.987000 213.703000 L 224.076000 213.299000" fill="none" stroke="black" stroke-width="2.0" /><path d="M 321.215000 193.978000 L 323.186000 194.100000 L 325.158000 194.230000 L 327.130000 194.346000 L 329.102000 194.471000 L 331.073000 194.606000 L 333.044000 194.750000 L 335.014000 194.889000 L 336.985000 195.031000 L 338.957000 195.160000 L 340.929000 195.284000 L 342.902000 195.376000 L 344.877000 195.434000 L 346.853000 195.452000 L 348.828000 195.422000 L 350.802000 195.336000 L 352.771000 195.184000 L 354.733000 194.954000 L 356.676000 194.603000 L 358.585000 194.099000 L 360.464000 193.489000 L 362.309000 192.785000 L 364.096000 191.947000 L 365.823000 190.988000 L 367.502000 189.948000 L 369.139000 188.842000 L 370.678000 187.609000 L 372.067000 186.208000 L 373.343000 184.700000 L 374.536000 183.126000 L 375.628000 181.481000 L 376.624000 179.775000 L 377.535000 178.023000 L 378.361000 176.228000 L 379.106000 174.399000 L 379.760000 172.536000 L 380.305000 170.637000 L 380.788000 168.721000 L 381.232000 166.796000 L 381.614000 164.858000 L 381.940000 162.910000 L 382.218000 160.954000 L 382.467000 158.993000 L 382.682000 157.030000 L 382.808000 155.059000 L 382.862000 153.084000 L 382.855000 151.109000 L 382.763000 149.135000 L 382.639000 147.164000 L 382.436000 145.198000 L 382.191000 143.238000 L 381.905000 141.283000 L 381.580000 139.334000 L 381.232000 137.390000 L 380.851000 135.451000 L 380.446000 133.517000 L 380.024000 131.587000 L 379.591000 129.659000 L 379.152000 127.733000 L 378.715000 125.806000 L 378.285000 123.877000 L 377.868000 121.946000 L 377.469000 120.011000 L 377.097000 118.071000 L 376.750000 116.126000 L 376.438000 114.175000 L 376.146000 112.221000 L 375.876000 110.263000 L 375.625000 108.304000 L 375.366000 106.345000 L 375.102000 104.387000 L 374.784000 102.437000 L 374.412000 100.497000 L 373.970000 98.571300 L 373.427000 96.671700 L 372.821000 94.791400 L 372.127000 92.941700 L 371.361000 91.120400 L 370.518000 89.333800 L 369.583000 87.593500 L 368.544000 85.913300 L 367.409000 84.296700 L 366.169000 82.758900 L 364.827000 81.308400 L 363.392000 79.951200 L 361.838000 78.731400 L 360.224000 77.592200 L 358.516000 76.598000 L 356.761000 75.690500 L 354.981000 74.833300" fill="none" stroke="black" stroke-width="2.0" /><path d="M 342.023000 75.539900 L 340.079000 75.766000 L 338.135000 75.982700 L 336.185000 76.153900 L 334.238000 76.342900 L 332.293000 76.558100 L 330.351000 76.799000 L 328.413000 77.063900 L 326.477000 77.353300 L 324.546000 77.668300 L 322.619000 78.008700 L 320.697000 78.373100 L 318.779000 78.760400 L 316.866000 79.169500 L 314.957000 79.598700 L 313.052000 80.046600 L 311.151000 80.511400 L 309.254000 80.991400 L 307.361000 81.483800 L 305.469000 81.984300 L 303.578000 82.488600 L 301.688000 82.993200 L 299.798000 83.498900 L 297.904000 83.993400 L 296.007000 84.469900 L 294.106000 84.932800 L 292.201000 85.380800 L 290.294000 85.819300 L 288.384000 86.246000 L 286.472000 86.659100 L 284.557000 87.064300 L 282.647000 87.485800 L 280.742000 87.931300 L 278.832000 88.359100 L 276.916000 88.756200 L 274.995000 89.124500 L 273.076000 89.506200 L 271.157000 89.889200 L 269.241000 90.285600" fill="none" stroke="black" stroke-width="2.0" /><path d="M 288.650000 103.587000 L 287.345000 102.154000 L 286.045000 100.717000 L 284.698000 99.324500 L 283.257000 98.029500 L 281.749000 96.812400 L 280.187000 95.665700 L 278.550000 94.629900 L 276.891000 93.628400 L 275.188000 92.704300 L 273.428000 91.895000 L 271.637000 91.157100 L 269.818000 90.489100 L 267.971000 89.905900 L 266.102000 89.392700 L 264.217000 88.943900 L 262.320000 88.552500 L 260.414000 88.203200 L 258.500000 87.901900 L 256.579000 87.643600 L 254.655000 87.416700 L 252.727000 87.216700 L 250.798000 87.041800 L 248.866000 86.890100 L 246.932000 86.758800 L 244.998000 86.646400 L 243.062000 86.554200 L 241.126000 86.471500 L 239.190000 86.397600 L 237.253000 86.356100 L 235.315000 86.344000 L 233.377000 86.356300 L 231.440000 86.412700 L 229.505000 86.499500 L 227.571000 86.623300 L 225.644000 86.820500 L 223.720000 87.050100 L 221.804000 87.336900 L 219.909000 87.740100 L 218.045000 88.267700 L 216.225000 88.927400 L 214.484000 89.775600 L 212.973000 90.971300 L 211.685000 92.337100 L 210.562000 93.877500 L 209.926000 95.672300 L 209.350000 97.501400" fill="none" stroke="black" stroke-width="2.0" /><path d="M 472.108000 0.956011 L 470.175000 1.376150 L 468.254000 1.842440 L 466.345000 2.357780 L 464.442000 2.896930 L 462.568000 3.526250 L 460.717000 4.222210 L 458.891000 4.982500 L 457.081000 5.777420 L 455.298000 6.632030 L 453.545000 7.547330 L 451.816000 8.507300 L 450.117000 9.519370 L 448.445000 10.574600 L 446.806000 11.680100 L 445.196000 12.828400 L 443.613000 14.014200 L 442.060000 15.237700 L 440.530000 16.490600 L 439.028000 17.776500 L 437.546000 19.085500 L 436.087000 20.420500 L 434.645000 21.773900 L 433.221000 23.145900 L 431.812000 24.533300 L 430.417000 25.934200 L 429.032000 27.346300 L 427.657000 28.767000 L 426.289000 30.195000 L 424.926000 31.627100 L 423.564000 33.061500 L 422.203000 34.495700 L 420.838000 35.926300 L 419.467000 37.351400 L 418.087000 38.767900 L 416.696000 40.173400 L 415.294000 41.567500 L 413.879000 42.949000 L 412.452000 44.318100 L 411.015000 45.676100 L 409.567000 47.022900 L 408.112000 48.361700 L 406.648000 49.691800 L 405.180000 51.016400 L 403.707000 52.335100 L 402.231000 53.651300 L 400.753000 54.965300 L 399.275000 56.278600 L 397.797000 57.592900 L 396.319000 58.906000 L 394.842000 60.220600 L 393.360000 61.530700 L 391.879000 62.840400 L 390.389000 64.140900 L 388.894000 65.434300 L 387.386000 66.713700 L 385.877000 67.991300 L 384.354000 69.252800 L 382.812000 70.489900 L 381.250000 71.701800 L 379.652000 72.866700 L 378.014000 73.972000 L 376.324000 74.998900 L 374.564000 75.890000 L 372.801000 76.783000 L 370.971000 77.520900 L 369.139000 78.260100 L 367.260000 78.872500 L 365.375000 79.466700 L 363.476000 80.017300" fill="none" stroke="black" stroke-width="2.0" /><path d="M 476.871000 0.866327 L 477.267000 1.171270 L 477.663000 1.476210 L 478.059000 1.781150 L 478.454000 2.086620 L 478.821000 2.426420 L 479.187000 2.766210 L 479.553000 3.106000 L 479.919000 3.446890 L 480.253000 3.818700 L 480.586000 4.190510 L 480.920000 4.562330 L 481.257000 4.931580 L 481.632000 5.261650 L 482.007000 5.591730 L 482.382000 5.921800 L 482.755000 6.254360 L 483.100000 6.615330 L 483.446000 6.976310 L 483.791000 7.337280 L 484.137000 7.697860 L 484.487000 8.054980 L 484.836000 8.412100 L 485.186000 8.769230 L 485.533000 9.128160 L 485.867000 9.499830 L 486.201000 9.871490 L 486.535000 10.243100 L 486.867000 10.616700 L 487.186000 11.001600 L 487.504000 11.386500 L 487.823000 11.771400 L 488.141000 12.156700 L 488.456000 12.544400 L 488.772000 12.932100 L 489.087000 13.319800 L 489.401000 13.708300 L 489.711000 14.100200 L 490.021000 14.492000 L 490.331000 14.883900 L 490.639000 15.277100 L 490.941000 15.675600 L 491.242000 16.074200 L 491.544000 16.472800 L 491.846000 16.870800 L 492.150000 17.266700 L 492.455000 17.662700 L 492.760000 18.058700 L 493.065000 18.454700 L 493.369000 18.851000 L 493.673000 19.247300 L 493.978000 19.643600 L 494.280000 20.041200 L 494.578000 20.442400 L 494.876000 20.843500 L 495.174000 21.244700 L 495.474000 21.644100 L 495.780000 22.039300 L 496.086000 22.434500 L 496.392000 22.829600 L 496.692000 23.228600 L 496.981000 23.636300 L 497.270000 24.044100 L 497.559000 24.451800 L 497.850000 24.857900 L 498.146000 25.260200 L 498.443000 25.662600 L 498.739000 26.065000 L 499.035000 26.467500 L 499.331000 26.870300 L 499.626000 27.273100 L 499.922000 27.675900 L 500.215000 28.080900 L 500.502000 28.489900 L 500.789000 28.898900 L 501.076000 29.307900 L 501.364000 29.715900 L 501.656000 30.122000 L 501.947000 30.528100 L 502.238000 30.934200 L 502.525000 31.343200 L 502.805000 31.756700 L 503.086000 32.170200 L 503.366000 32.583700 L 503.647000 32.997100 L 503.928000 33.410400 L 504.209000 33.823600 L 504.490000 34.236900 L 504.769000 34.651100 L 505.047000 35.066600 L 505.324000 35.482100 L 505.602000 35.897500 L 505.877000 36.314600 L 506.149000 36.733800 L 506.421000 37.152900 L 506.693000 37.572000 L 506.964000 37.991900 L 507.234000 38.412500 L 507.504000 38.833200 L 507.773000 39.253800 L 508.040000 39.676300 L 508.304000 40.100800 L 508.567000 40.525300 L 508.831000 40.949800 L 509.092000 41.375500 L 509.352000 41.802500 L 509.612000 42.229500 L 509.871000 42.656500 L 510.128000 43.084800 L 510.384000 43.514400 L 510.639000 43.943900 L 510.894000 44.373500 L 511.147000 44.804600 L 511.397000 45.237200 L 511.647000 45.669800 L 511.897000 46.102300 L 512.144000 46.536600 L 512.389000 46.972200 L 512.634000 47.407800 L 512.879000 47.843400 L 513.122000 48.280100 L 513.363000 48.717600 L 513.604000 49.155200 L 513.846000 49.592700 L 514.083000 50.032400 L 514.318000 50.473600 L 514.552000 50.914700 L 514.787000 51.355900 L 515.020000 51.798100 L 515.251000 52.240900 L 515.483000 52.683700 L 515.714000 53.126500 L 515.942000 53.571400 L 516.167000 54.017400 L 516.392000 54.463500 L 516.617000 54.909600 L 516.837000 55.358200 L 517.054000 55.808400 L 517.271000 56.258600 L 517.487000 56.708900 L 517.705000 57.158900 L 517.922000 57.608900 L 518.139000 58.058900 L 518.356000 58.508800 L 518.567000 58.962100 L 518.773000 59.417000 L 518.980000 59.871900 L 519.187000 60.326900 L 519.393000 60.781900 L 519.600000 61.236900 L 519.806000 61.692000 L 520.012000 62.147000 L 520.213000 62.604700 L 520.411000 63.063600 L 520.608000 63.522500 L 520.806000 63.981400 L 520.995000 64.444000 L 521.180000 64.908200 L 521.365000 65.372300 L 521.550000 65.836500 L 521.738000 66.299600 L 521.926000 66.762300 L 522.115000 67.225100 L 522.303000 67.687800 L 522.482000 68.154400 L 522.657000 68.622300 L 522.833000 69.090200 L 523.008000 69.558100 L 523.182000 70.026600 L 523.355000 70.495300 L 523.528000 70.964000 L 523.701000 71.432700 L 523.868000 71.903700 L 524.033000 72.375400 L 524.198000 72.847100 L 524.363000 73.318800 L 524.520000 73.793200 L 524.674000 74.268300 L 524.829000 74.743400 L 524.984000 75.218500 L 525.140000 75.693200 L 525.297000 76.167700 L 525.453000 76.642300 L 525.610000 77.116800 L 525.758000 77.593900 L 525.905000 78.071500 L 526.052000 78.549200 L 526.198000 79.026800 L 526.347000 79.503800 L 526.497000 79.980600 L 526.646000 80.457500 L 526.795000 80.934300 L 526.939000 81.413000 L 527.080000 81.892200 L 527.222000 82.371300 L 527.364000 82.850400 L 527.500000 83.331300 L 527.634000 83.812600 L 527.769000 84.293800 L 527.903000 84.775100 L 528.041000 85.255300 L 528.179000 85.735500 L 528.318000 86.215600 L 528.456000 86.695800 L 528.589000 87.177400 L 528.722000 87.659100 L 528.855000 88.140900 L 528.987000 88.622600 L 529.125000 89.103100 L 529.262000 89.583300 L 529.400000 90.063600 L 529.538000 90.543900 L 529.675000 91.024500 L 529.811000 91.505300 L 529.948000 91.986000 L 530.084000 92.466700 L 530.220000 92.947500 L 530.356000 93.428300 L 530.492000 93.909000 L 530.628000 94.389800 L 530.770000 94.869000 L 530.912000 95.348100 L 531.054000 95.827200 L 531.196000 96.306300 L 531.339000 96.785100 L 531.482000 97.263900 L 531.625000 97.742600 L 531.768000 98.221400 L 531.917000 98.698300 L 532.066000 99.175200 L 532.215000 99.652100 L 532.364000 100.129000 L 532.517000 100.605000 L 532.669000 101.081000 L 532.822000 101.557000 L 532.974000 102.032000 L 533.131000 102.507000 L 533.289000 102.981000 L 533.446000 103.455000 L 533.603000 103.930000 L 533.767000 104.402000 L 533.931000 104.874000 L 534.095000 105.346000 L 534.259000 105.818000 L 534.427000 106.288000 L 534.596000 106.759000 L 534.764000 107.229000 L 534.932000 107.700000 L 535.111000 108.166000 L 535.290000 108.633000 L 535.468000 109.100000 L 535.647000 109.566000 L 535.829000 110.031000 L 536.012000 110.497000 L 536.194000 110.962000 L 536.377000 111.427000 L 536.566000 111.890000 L 536.755000 112.352000 L 536.943000 112.815000 L 537.133000 113.277000 L 537.331000 113.736000 L 537.528000 114.195000 L 537.726000 114.654000 L 537.924000 115.113000 L 538.124000 115.570000 L 538.325000 116.028000 L 538.526000 116.485000 L 538.728000 116.942000 L 538.942000 117.394000 L 539.156000 117.846000 L 539.370000 118.297000 L 539.584000 118.749000 L 539.801000 119.199000 L 540.017000 119.649000 L 540.234000 120.099000 L 540.452000 120.549000 L 540.677000 120.995000 L 540.902000 121.442000 L 541.126000 121.888000 L 541.352000 122.333000 L 541.585000 122.776000 L 541.818000 123.218000 L 542.051000 123.660000 L 542.284000 124.102000 L 542.518000 124.543000 L 542.753000 124.984000 L 542.987000 125.426000 L 543.224000 125.866000 L 543.468000 126.301000 L 543.713000 126.737000 L 543.957000 127.173000 L 544.202000 127.609000 L 544.447000 128.044000 L 544.691000 128.480000 L 544.936000 128.916000 L 545.181000 129.351000 L 545.428000 129.786000 L 545.675000 130.220000 L 545.921000 130.655000 L 546.168000 131.089000 L 546.416000 131.523000 L 546.663000 131.957000 L 546.911000 132.391000 L 547.157000 132.826000 L 547.403000 133.261000 L 547.648000 133.696000 L 547.894000 134.132000 L 548.138000 134.567000 L 548.381000 135.004000 L 548.624000 135.441000 L 548.867000 135.878000 L 549.108000 136.315000 L 549.347000 136.754000 L 549.586000 137.193000 L 549.825000 137.632000 L 550.061000 138.072000 L 550.294000 138.514000 L 550.526000 138.956000 L 550.759000 139.399000 L 550.989000 139.842000 L 551.217000 140.287000 L 551.444000 140.732000 L 551.672000 141.177000 L 551.898000 141.622000 L 552.122000 142.069000 L 552.346000 142.515000 L 552.570000 142.962000 L 552.790000 143.411000 L 553.003000 143.863000 L 553.217000 144.314000 L 553.430000 144.766000 L 553.643000 145.218000 L 553.855000 145.671000 L 554.067000 146.123000 L 554.279000 146.576000 L 554.486000 147.031000 L 554.688000 147.487000 L 554.891000 147.944000 L 555.094000 148.401000 L 555.294000 148.859000 L 555.491000 149.318000 L 555.688000 149.777000 L 555.885000 150.236000 L 556.083000 150.695000 L 556.280000 151.154000 L 556.477000 151.614000 L 556.674000 152.073000 L 556.859000 152.537000 L 557.037000 153.004000 L 557.214000 153.471000 L 557.392000 153.938000 L 557.572000 154.404000 L 557.754000 154.869000 L 557.935000 155.335000 L 558.117000 155.800000 L 558.288000 156.270000 L 558.454000 156.741000 L 558.619000 157.213000 L 558.784000 157.684000 L 558.948000 158.157000 L 559.111000 158.629000 L 559.275000 159.101000 L 559.438000 159.573000 L 559.606000 160.044000 L 559.776000 160.514000 L 559.946000 160.984000 L 560.116000 161.453000 L 560.265000 161.930000 L 560.405000 162.410000 L 560.545000 162.889000 L 560.685000 163.369000 L 560.834000 163.846000 L 560.985000 164.322000 L 561.137000 164.798000 L 561.289000 165.274000 L 561.426000 165.755000 L 561.558000 166.237000 L 561.689000 166.719000 L 561.821000 167.201000 L 561.951000 167.683000 L 562.081000 168.166000 L 562.210000 168.648000 L 562.340000 169.131000 L 562.472000 169.613000 L 562.606000 170.094000 L 562.740000 170.576000 L 562.873000 171.057000 L 562.991000 171.543000 L 563.105000 172.029000 L 563.218000 172.516000 L 563.332000 173.003000 L 563.450000 173.488000 L 563.569000 173.973000 L 563.689000 174.459000 L 563.808000 174.944000 L 563.917000 175.431000 L 564.024000 175.920000 L 564.131000 176.408000 L 564.238000 176.896000 L 564.343000 177.384000 L 564.448000 177.873000 L 564.553000 178.361000 L 564.658000 178.850000 L 564.762000 179.338000 L 564.866000 179.827000 L 564.970000 180.316000 L 565.073000 180.805000 L 565.169000 181.295000 L 565.263000 181.786000 L 565.357000 182.277000 L 565.451000 182.767000 L 565.545000 183.258000 L 565.639000 183.749000 L 565.732000 184.240000 L 565.826000 184.731000 L 565.912000 185.223000 L 565.999000 185.715000 L 566.085000 186.207000 L 566.171000 186.700000 L 566.253000 187.192000 L 566.335000 187.685000 L 566.417000 188.178000 L 566.499000 188.671000 L 566.576000 189.165000 L 566.653000 189.659000 L 566.731000 190.152000 L 566.808000 190.646000 L 566.878000 191.141000 L 566.948000 191.635000 L 567.019000 192.130000 L 567.089000 192.625000 L 567.154000 193.120000 L 567.219000 193.616000 L 567.284000 194.111000 L 567.349000 194.606000 L 567.407000 195.103000 L 567.465000 195.599000 L 567.523000 196.095000 L 567.580000 196.592000 L 567.631000 197.089000 L 567.682000 197.586000 L 567.733000 198.083000 L 567.783000 198.580000 L 567.828000 199.078000 L 567.872000 199.576000 L 567.916000 200.073000 L 567.959000 200.571000 L 567.995000 201.069000 L 568.032000 201.568000 L 568.068000 202.066000 L 568.102000 202.565000 L 568.130000 203.064000 L 568.158000 203.562000 L 568.186000 204.061000 L 568.212000 204.560000 L 568.230000 205.060000 L 568.249000 205.559000 L 568.267000 206.058000 L 568.282000 206.558000 L 568.290000 207.057000 L 568.299000 207.557000 L 568.307000 208.057000 L 568.312000 208.556000 L 568.310000 209.056000 L 568.309000 209.556000 L 568.308000 210.055000 L 568.302000 210.555000 L 568.292000 211.055000 L 568.281000 211.554000 L 568.270000 212.054000 L 568.255000 212.553000 L 568.235000 213.052000 L 568.214000 213.552000 L 568.194000 214.051000 L 568.168000 214.550000 L 568.136000 215.049000 L 568.105000 215.547000 L 568.073000 216.046000 L 568.035000 216.544000 L 567.990000 217.042000 L 567.945000 217.539000 L 567.900000 218.037000 L 567.847000 218.534000 L 567.788000 219.030000 L 567.729000 219.526000 L 567.670000 220.022000 L 567.602000 220.517000 L 567.528000 221.012000 L 567.454000 221.506000 L 567.380000 222.000000 L 567.295000 222.492000 L 567.205000 222.984000 L 567.114000 223.475000 L 567.024000 223.967000 L 566.922000 224.456000 L 566.816000 224.944000 L 566.710000 225.432000 L 566.604000 225.921000 L 566.482000 226.405000 L 566.357000 226.889000 L 566.231000 227.373000 L 566.106000 227.856000 L 565.966000 228.336000 L 565.824000 228.815000 L 565.681000 229.294000 L 565.539000 229.773000 L 565.381000 230.247000 L 565.222000 230.720000 L 565.062000 231.194000 L 564.903000 231.668000 L 564.723000 232.134000 L 564.544000 232.600000 L 564.365000 233.067000 L 564.184000 233.532000 L 563.987000 233.992000 L 563.789000 234.451000 L 563.592000 234.910000 L 563.391000 235.367000 L 563.170000 235.815000 L 562.949000 236.263000 L 562.727000 236.711000 L 562.498000 237.155000 L 562.242000 237.584000 L 561.986000 238.013000 L 561.731000 238.443000 L 561.465000 238.865000 L 561.176000 239.273000 L 560.888000 239.681000 L 560.599000 240.089000 L 560.303000 240.492000 L 559.998000 240.887000 L 559.692000 241.282000 L 559.386000 241.678000 L 559.068000 242.062000 L 558.737000 242.437000 L 558.406000 242.811000 L 558.075000 243.185000 L 557.729000 243.546000 L 557.373000 243.896000 L 557.016000 244.246000 L 556.660000 244.596000 L 556.285000 244.926000 L 555.901000 245.246000 L 555.518000 245.566000 L 555.134000 245.886000 L 554.731000 246.182000 L 554.323000 246.470000 L 553.915000 246.758000 L 553.507000 247.046000 L 553.086000 247.316000 L 552.663000 247.581000 L 552.240000 247.847000 L 551.816000 248.113000 L 551.379000 248.355000 L 550.941000 248.594000 L 550.502000 248.833000 L 550.063000 249.072000 L 549.617000 249.297000 L 549.170000 249.520000 L 548.723000 249.744000 L 548.276000 249.967000 L 547.814000 250.158000 L 547.353000 250.349000 L 546.891000 250.540000 L 546.429000 250.730000 L 545.956000 250.893000 L 545.484000 251.056000 L 545.012000 251.219000 L 544.538000 251.379000 L 544.056000 251.509000 L 543.574000 251.640000 L 543.091000 251.770000 L 542.608000 251.897000 L 542.119000 252.002000 L 541.631000 252.106000 L 541.142000 252.211000 L 540.653000 252.312000 L 540.160000 252.394000 L 539.667000 252.477000 L 539.174000 252.559000 L 538.681000 252.636000 L 538.184000 252.687000 L 537.687000 252.737000 L 537.189000 252.788000 L 536.692000 252.837000 L 536.194000 252.879000 L 535.696000 252.921000 L 535.199000 252.963000 L 534.700000 253.000000 L 534.201000 253.015000 L 533.701000 253.030000 L 533.202000 253.045000 L 532.702000 253.057000 L 532.203000 253.056000 L 531.703000 253.055000 L 531.203000 253.055000 L 530.704000 253.051000 L 530.204000 253.038000 L 529.705000 253.025000 L 529.205000 253.013000 L 528.706000 252.994000 L 528.208000 252.958000 L 527.709000 252.923000 L 527.211000 252.887000 L 526.712000 252.851000 L 526.214000 252.815000 L 525.716000 252.779000 L 525.217000 252.743000 L 524.719000 252.701000 L 524.223000 252.645000 L 523.726000 252.589000 L 523.230000 252.533000 L 522.734000 252.475000 L 522.238000 252.409000 L 521.743000 252.343000 L 521.248000 252.277000 L 520.753000 252.209000 L 520.258000 252.134000 L 519.764000 252.060000 L 519.270000 251.986000 L 518.777000 251.908000 L 518.285000 251.817000 L 517.794000 251.727000 L 517.302000 251.637000 L 516.811000 251.546000 L 516.320000 251.453000 L 515.829000 251.361000 L 515.338000 251.268000 L 514.848000 251.172000 L 514.359000 251.066000 L 513.871000 250.959000 L 513.383000 250.853000 L 512.895000 250.745000 L 512.408000 250.632000 L 511.922000 250.519000 L 511.435000 250.406000 L 510.948000 250.291000 L 510.463000 250.173000 L 509.978000 250.054000 L 509.492000 249.936000 L 509.007000 249.815000 L 508.524000 249.687000 L 508.041000 249.560000 L 507.558000 249.433000 L 507.075000 249.304000 L 506.593000 249.173000 L 506.111000 249.041000 L 505.629000 248.909000 L 505.147000 248.776000 L 504.667000 248.639000 L 504.186000 248.502000 L 503.706000 248.365000 L 503.226000 248.226000 L 502.747000 248.082000 L 502.269000 247.938000 L 501.791000 247.793000 L 501.313000 247.648000 L 500.836000 247.498000 L 500.359000 247.348000 L 499.883000 247.197000 L 499.407000 247.046000 L 498.931000 246.891000 L 498.456000 246.737000 L 497.981000 246.582000 L 497.507000 246.426000 L 497.033000 246.266000 L 496.559000 246.107000 L 496.086000 245.947000 L 495.613000 245.787000 L 495.141000 245.623000 L 494.669000 245.459000 L 494.197000 245.295000 L 493.725000 245.131000 L 493.253000 244.965000 L 492.782000 244.800000 L 492.310000 244.634000 L 491.839000 244.468000 L 491.369000 244.298000 L 490.900000 244.127000 L 490.430000 243.957000 L 489.960000 243.786000 L 489.493000 243.610000 L 489.025000 243.433000 L 488.558000 243.257000 L 488.090000 243.082000 L 487.621000 242.909000 L 487.152000 242.736000 L 486.683000 242.563000 L 486.215000 242.388000 L 485.749000 242.208000 L 485.283000 242.027000 L 484.818000 241.847000 L 484.351000 241.668000 L 483.882000 241.495000 L 483.413000 241.322000 L 482.945000 241.149000 L 482.476000 240.974000 L 482.010000 240.795000 L 481.544000 240.615000 L 481.078000 240.435000 L 480.612000 240.254000 L 480.149000 240.066000 L 479.686000 239.878000 L 479.223000 239.690000 L 478.759000 239.505000 L 478.292000 239.328000 L 477.825000 239.150000 L 477.358000 238.972000 L 476.891000 238.793000 L 476.427000 238.608000 L 475.963000 238.423000 L 475.499000 238.239000 L 475.034000 238.055000 L 474.567000 237.877000 L 474.100000 237.698000 L 473.634000 237.520000 L 473.167000 237.340000 L 472.703000 237.157000 L 472.238000 236.973000 L 471.773000 236.789000 L 471.309000 236.604000 L 470.847000 236.415000 L 470.384000 236.226000 L 469.922000 236.037000 L 469.459000 235.848000 L 468.995000 235.662000 L 468.531000 235.476000 L 468.068000 235.290000 L 467.604000 235.103000 L 467.142000 234.913000 L 466.680000 234.724000 L 466.217000 234.534000 L 465.755000 234.345000 L 465.293000 234.154000 L 464.831000 233.964000 L 464.369000 233.773000 L 463.907000 233.582000 L 463.446000 233.389000 L 462.985000 233.197000 L 462.524000 233.004000 L 462.064000 232.811000 L 461.603000 232.616000 L 461.143000 232.421000 L 460.683000 232.226000 L 460.223000 232.031000 L 459.764000 231.834000 L 459.305000 231.637000 L 458.845000 231.440000 L 458.386000 231.243000 L 457.928000 231.044000 L 457.470000 230.845000 L 457.011000 230.646000 L 456.553000 230.446000 L 456.096000 230.245000 L 455.639000 230.043000 L 455.181000 229.842000 L 454.724000 229.640000 L 454.268000 229.436000 L 453.812000 229.233000 L 453.356000 229.029000 L 452.900000 228.824000 L 452.444000 228.618000 L 451.989000 228.412000 L 451.534000 228.206000 L 451.079000 227.999000 L 450.625000 227.790000 L 450.171000 227.581000 L 449.717000 227.373000 L 449.264000 227.163000 L 448.811000 226.951000 L 448.359000 226.740000 L 447.906000 226.528000 L 447.454000 226.316000 L 447.002000 226.101000 L 446.551000 225.887000 L 446.099000 225.673000 L 445.648000 225.458000 L 445.198000 225.240000 L 444.749000 225.023000 L 444.299000 224.806000 L 443.849000 224.587000 L 443.401000 224.367000 L 442.952000 224.146000 L 442.504000 223.926000 L 442.056000 223.704000 L 441.609000 223.481000 L 441.162000 223.258000 L 440.715000 223.034000 L 440.269000 222.809000 L 439.824000 222.582000 L 439.379000 222.356000 L 438.933000 222.129000 L 438.489000 221.901000 L 438.045000 221.671000 L 437.601000 221.441000 L 437.158000 221.211000 L 436.715000 220.979000 L 436.273000 220.746000 L 435.831000 220.512000 L 435.390000 220.279000 L 434.949000 220.044000 L 434.509000 219.807000 L 434.069000 219.570000 L 433.629000 219.333000 L 433.190000 219.095000 L 432.752000 218.854000 L 432.314000 218.614000 L 431.876000 218.373000 L 431.439000 218.131000 L 431.003000 217.887000 L 430.567000 217.642000 L 430.131000 217.398000 L 429.696000 217.152000 L 429.262000 216.904000 L 428.828000 216.656000 L 428.395000 216.408000 L 427.962000 216.158000 L 427.530000 215.907000 L 427.099000 215.655000 L 426.667000 215.403000 L 426.237000 215.149000 L 425.808000 214.893000 L 425.378000 214.637000 L 424.949000 214.382000 L 424.521000 214.124000 L 424.094000 213.864000 L 423.667000 213.604000 L 423.240000 213.345000 L 422.815000 213.083000 L 422.391000 212.819000 L 421.967000 212.554000 L 421.542000 212.290000 L 421.119000 212.025000 L 420.697000 211.758000 L 420.274000 211.491000 L 419.852000 211.224000 L 419.431000 210.954000 L 419.012000 210.682000 L 418.593000 210.410000 L 418.174000 210.138000 L 417.756000 209.864000 L 417.338000 209.590000 L 416.921000 209.315000 L 416.504000 209.040000 L 416.088000 208.764000 L 415.672000 208.485000 L 415.257000 208.207000 L 414.842000 207.929000 L 414.430000 207.647000 L 414.018000 207.363000 L 413.607000 207.080000 L 413.196000 206.796000 L 412.783000 206.515000 L 412.369000 206.235000 L 411.954000 205.956000 L 411.540000 205.676000 L 411.128000 205.394000 L 410.717000 205.110000 L 410.305000 204.827000 L 409.894000 204.543000 L 409.482000 204.261000 L 409.069000 203.979000 L 408.656000 203.697000 L 408.243000 203.416000 L 407.830000 203.135000 L 407.416000 202.855000 L 407.002000 202.575000 L 406.589000 202.295000 L 406.176000 202.013000 L 405.763000 201.731000 L 405.350000 201.450000 L 404.938000 201.168000 L 404.524000 200.887000 L 404.110000 200.607000 L 403.696000 200.328000 L 403.282000 200.048000 L 402.870000 199.766000 L 402.457000 199.484000 L 402.044000 199.202000 L 401.632000 198.920000 L 401.220000 198.637000 L 400.809000 198.354000 L 400.397000 198.071000 L 399.986000 197.787000 L 399.576000 197.502000 L 399.166000 197.215000 L 398.756000 196.929000 L 398.347000 196.643000 L 397.939000 196.354000 L 397.532000 196.064000 L 397.125000 195.774000 L 396.718000 195.484000 L 396.314000 195.190000 L 395.911000 194.895000 L 395.508000 194.600000 L 395.104000 194.305000 L 394.707000 194.003000 L 394.310000 193.699000 L 393.913000 193.395000 L 393.517000 193.091000 L 393.125000 192.781000 L 392.734000 192.469000 L 392.344000 192.158000 L 391.953000 191.846000 L 391.571000 191.524000 L 391.190000 191.201000 L 390.808000 190.878000 L 390.427000 190.555000 L 390.056000 190.220000 L 389.686000 189.885000 L 389.316000 189.549000 L 388.946000 189.213000 L 388.582000 188.870000 L 388.219000 188.527000 L 387.856000 188.184000 L 387.493000 187.840000 L 387.143000 187.484000 L 386.794000 187.127000 L 386.444000 186.770000 L 386.095000 186.413000 L 385.751000 186.050000 L 385.408000 185.686000 L 385.065000 185.323000 L 384.722000 184.960000 L 384.384000 184.591000 L 384.047000 184.223000 L 383.710000 183.854000 L 383.373000 183.485000 L 383.038000 183.114000 L 382.704000 182.742000 L 382.370000 182.371000 L 382.036000 181.999000" fill="none" stroke="black" stroke-width="2.0" /><path d="M 377.292000 119.105000 L 379.136000 118.428000 L 380.981000 117.756000 L 382.836000 117.110000 L 384.702000 116.501000 L 386.589000 115.963000 L 388.498000 115.524000 L 390.427000 115.173000 L 392.375000 114.936000 L 394.331000 114.808000 L 396.293000 114.728000 L 398.255000 114.806000 L 400.212000 114.972000 L 402.162000 115.206000 L 404.105000 115.496000 L 406.039000 115.833000 L 407.968000 116.205000 L 409.888000 116.620000 L 411.800000 117.067000 L 413.707000 117.540000 L 415.607000 118.036000 L 417.503000 118.549000 L 419.395000 119.076000 L 421.284000 119.615000 L 423.171000 120.160000 L 425.057000 120.710000 L 426.940000 121.267000 L 428.823000 121.827000 L 430.704000 122.393000 L 432.582000 122.969000 L 434.457000 123.553000 L 436.330000 124.146000 L 438.199000 124.748000 L 440.067000 125.357000 L 441.931000 125.975000 L 443.793000 126.599000 L 445.654000 127.229000 L 447.514000 127.861000 L 449.372000 128.497000 L 451.231000 129.133000 L 453.089000 129.768000 L 454.948000 130.402000 L 456.808000 131.033000 L 458.670000 131.658000 L 460.534000 132.277000 L 462.401000 132.888000 L 464.271000 133.489000 L 466.145000 134.079000 L 468.022000 134.655000 L 469.904000 135.217000 L 471.791000 135.764000 L 473.682000 136.294000 L 475.579000 136.805000 L 477.480000 137.299000 L 479.385000 137.775000 L 481.295000 138.234000 L 483.209000 138.675000 L 485.127000 139.098000 L 487.049000 139.503000 L 488.975000 139.892000 L 490.903000 140.265000 L 492.835000 140.622000 L 494.769000 140.964000 L 496.705000 141.293000 L 498.644000 141.608000 L 500.585000 141.909000 L 502.528000 142.194000 L 504.474000 142.465000 L 506.421000 142.724000 L 508.370000 142.969000 L 510.320000 143.205000 L 512.271000 143.430000 L 514.223000 143.644000 L 516.178000 143.841000 L 518.133000 144.024000 L 520.091000 144.179000 L 522.051000 144.313000 L 524.012000 144.425000 L 525.974000 144.512000 L 527.937000 144.575000 L 529.900000 144.647000 L 531.864000 144.662000 L 533.828000 144.684000 L 535.792000 144.737000 L 537.753000 144.623000" fill="none" stroke="black" stroke-width="2.0" /><path d="M 416.107000 118.112000 L 418.047000 117.884000 L 419.990000 117.675000 L 421.933000 117.487000 L 423.881000 117.348000 L 425.832000 117.254000 L 427.784000 117.192000 L 429.737000 117.192000 L 431.691000 117.198000 L 433.644000 117.208000 L 435.598000 117.232000 L 437.551000 117.254000 L 439.504000 117.211000 L 441.454000 117.103000 L 443.403000 116.969000 L 445.349000 116.802000 L 447.287000 116.558000 L 449.216000 116.249000 L 451.136000 115.891000 L 453.047000 115.483000 L 454.947000 115.030000 L 456.835000 114.529000 L 458.714000 113.994000 L 460.586000 113.436000 L 462.451000 112.856000 L 464.311000 112.258000 L 466.167000 111.649000 L 468.021000 111.034000 L 469.876000 110.420000 L 471.733000 109.816000 L 473.596000 109.229000 L 475.466000 108.663000 L 477.341000 108.115000 L 479.220000 107.581000 L 481.100000 107.050000 L 482.968000 106.479000 L 484.821000 105.858000 L 486.660000 105.200000 L 488.479000 104.488000 L 490.247000 103.658000 L 491.984000 102.763000 L 493.675000 101.787000" fill="none" stroke="black" stroke-width="2.0" /><path d="M 223.775000 143.512000 L 223.277000 143.540000 L 222.778000 143.569000 L 222.280000 143.597000 L 221.782000 143.626000 L 221.284000 143.665000 L 220.787000 143.703000 L 220.289000 143.741000 L 219.792000 143.779000 L 219.294000 143.812000 L 218.796000 143.845000 L 218.298000 143.878000 L 217.800000 143.913000 L 217.303000 143.952000 L 216.805000 143.992000 L 216.308000 144.032000 L 215.811000 144.080000 L 215.318000 144.157000 L 214.825000 144.235000 L 214.332000 144.312000 L 213.839000 144.385000 L 213.344000 144.446000 L 212.848000 144.507000 L 212.353000 144.568000 L 211.860000 144.644000 L 211.373000 144.751000 L 210.886000 144.859000 L 210.399000 144.967000 L 209.913000 145.080000 L 209.429000 145.204000 L 208.946000 145.327000 L 208.462000 145.450000 L 207.980000 145.580000 L 207.501000 145.717000 L 207.021000 145.855000 L 206.541000 145.992000 L 206.067000 146.146000 L 205.598000 146.317000 L 205.129000 146.487000 L 204.660000 146.658000 L 204.192000 146.831000 L 203.724000 147.005000 L 203.256000 147.178000 L 202.789000 147.352000 L 202.326000 147.539000 L 201.867000 147.735000 L 201.408000 147.931000 L 200.949000 148.127000 L 200.493000 148.329000 L 200.039000 148.536000 L 199.584000 148.742000 L 199.130000 148.948000 L 198.679000 149.161000 L 198.228000 149.376000 L 197.778000 149.591000 L 197.328000 149.806000 L 196.882000 150.031000 L 196.438000 150.259000 L 195.995000 150.487000 L 195.551000 150.715000 L 195.109000 150.947000 L 194.667000 151.179000 L 194.225000 151.411000 L 193.784000 151.644000 L 193.346000 151.883000 L 192.909000 152.124000 L 192.472000 152.365000 L 192.035000 152.606000 L 191.600000 152.850000 L 191.164000 153.094000 L 190.729000 153.338000 L 190.294000 153.582000 L 189.861000 153.830000 L 189.427000 154.077000 L 188.994000 154.325000 L 188.561000 154.573000 L 188.131000 154.825000 L 187.700000 155.078000 L 187.270000 155.330000 L 186.840000 155.583000 L 186.406000 155.830000 L 185.973000 156.077000 L 185.539000 156.324000 L 185.106000 156.572000 L 184.677000 156.827000 L 184.248000 157.081000 L 183.818000 157.336000 L 183.389000 157.590000 L 182.957000 157.840000 L 182.525000 158.089000 L 182.092000 158.339000 L 181.660000 158.588000 L 181.227000 158.836000 L 180.794000 159.084000 L 180.361000 159.331000 L 179.928000 159.580000 L 179.497000 159.831000 L 179.065000 160.081000 L 178.634000 160.332000 L 178.200000 160.579000 L 177.759000 160.811000 L 177.317000 161.044000 L 176.876000 161.277000 L 176.436000 161.513000 L 176.001000 161.758000 L 175.567000 162.003000 L 175.132000 162.248000 L 174.695000 162.489000 L 174.254000 162.723000 L 173.813000 162.957000 L 173.373000 163.191000 L 172.931000 163.423000 L 172.489000 163.654000 L 172.046000 163.884000 L 171.603000 164.115000 L 171.162000 164.348000 L 170.723000 164.586000 L 170.285000 164.823000 L 169.846000 165.061000 L 169.403000 165.292000 L 168.957000 165.515000 L 168.511000 165.738000 L 168.065000 165.962000 L 167.621000 166.190000 L 167.180000 166.424000 L 166.739000 166.657000 L 166.298000 166.891000 L 165.856000 167.123000 L 165.413000 167.352000 L 164.970000 167.582000 L 164.527000 167.812000 L 164.084000 168.041000 L 163.641000 168.270000 L 163.197000 168.499000 L 162.754000 168.728000 L 162.312000 168.959000 L 161.870000 169.192000 L 161.429000 169.425000 L 160.988000 169.658000 L 160.544000 169.887000 L 160.100000 170.114000 L 159.656000 170.342000 L 159.212000 170.569000 L 158.770000 170.800000 L 158.328000 171.032000 L 157.886000 171.264000 L 157.444000 171.496000 L 157.002000 171.727000 L 156.559000 171.958000 L 156.117000 172.188000 L 155.674000 172.419000 L 155.232000 172.649000 L 154.789000 172.880000 L 154.346000 173.110000 L 153.903000 173.340000 L 153.461000 173.572000 L 153.019000 173.803000 L 152.578000 174.035000 L 152.136000 174.267000 L 151.693000 174.497000 L 151.250000 174.727000 L 150.807000 174.957000 L 150.364000 175.186000 L 149.922000 175.418000 L 149.479000 175.649000 L 149.037000 175.880000 L 148.595000 176.111000 L 148.153000 176.342000 L 147.710000 176.573000 L 147.268000 176.803000 L 146.825000 177.034000 L 146.383000 177.265000 L 145.940000 177.495000 L 145.497000 177.725000 L 145.055000 177.956000 L 144.612000 178.186000 L 144.169000 178.417000 L 143.727000 178.647000 L 143.284000 178.878000 L 142.842000 179.108000 L 142.399000 179.339000 L 141.956000 179.569000 L 141.514000 179.799000 L 141.071000 180.029000 L 140.628000 180.258000 L 140.184000 180.488000 L 139.741000 180.718000 L 139.299000 180.948000 L 138.856000 181.177000 L 138.413000 181.407000 L 137.970000 181.637000 L 137.527000 181.866000 L 137.083000 182.096000 L 136.640000 182.325000 L 136.197000 182.554000 L 135.753000 182.783000 L 135.310000 183.011000 L 134.866000 183.240000 L 134.423000 183.469000 L 133.980000 183.699000 L 133.537000 183.928000 L 133.094000 184.158000 L 132.650000 184.386000 L 132.206000 184.614000 L 131.761000 184.841000 L 131.317000 185.068000 L 130.873000 185.296000 L 130.429000 185.524000 L 129.985000 185.752000 L 129.542000 185.980000 L 129.098000 186.208000 L 128.653000 186.435000 L 128.209000 186.663000 L 127.765000 186.890000 L 127.320000 187.116000 L 126.875000 187.342000 L 126.430000 187.567000 L 125.985000 187.793000 L 125.541000 188.021000 L 125.097000 188.249000 L 124.653000 188.477000 L 124.209000 188.705000 L 123.764000 188.929000 L 123.318000 189.153000 L 122.872000 189.377000 L 122.426000 189.601000 L 121.980000 189.826000 L 121.535000 190.051000 L 121.090000 190.277000 L 120.645000 190.502000 L 120.199000 190.727000 L 119.753000 190.951000 L 119.308000 191.175000 L 118.862000 191.400000 L 118.415000 191.622000 L 117.968000 191.844000 L 117.521000 192.065000 L 117.074000 192.287000 L 116.629000 192.513000 L 116.184000 192.738000 L 115.738000 192.963000 L 115.293000 193.188000 L 114.845000 193.408000 L 114.396000 193.627000 L 113.948000 193.846000 L 113.500000 194.066000 L 113.053000 194.287000 L 112.606000 194.509000 L 112.159000 194.730000 L 111.711000 194.952000 L 111.264000 195.172000 L 110.816000 195.392000 L 110.368000 195.613000 L 109.920000 195.832000 L 109.471000 196.049000 L 109.021000 196.266000 L 108.572000 196.483000 L 108.123000 196.701000 L 107.676000 196.922000 L 107.228000 197.143000 L 106.781000 197.364000 L 106.333000 197.584000 L 105.882000 197.797000 L 105.431000 198.011000 L 104.980000 198.224000 L 104.529000 198.438000 L 104.079000 198.654000 L 103.629000 198.869000 L 103.179000 199.085000 L 102.728000 199.299000 L 102.276000 199.511000 L 101.824000 199.723000 L 101.373000 199.935000 L 100.920000 200.145000 L 100.466000 200.351000 L 100.011000 200.558000 L 99.557100 200.764000 L 99.103800 200.973000 L 98.651700 201.184000 L 98.199600 201.395000 L 97.747500 201.606000 L 97.291400 201.809000 L 96.830500 202.000000 L 96.369700 202.191000 L 95.908800 202.383000 L 95.449600 202.578000 L 94.992100 202.777000 L 94.534600 202.977000 L 94.077100 203.176000 L 93.617300 203.370000 L 93.155600 203.559000 L 92.693900 203.748000 L 92.232100 203.937000 L 91.767900 204.120000 L 91.301800 204.299000 L 90.835700 204.477000 L 90.369600 204.655000 L 89.909000 204.847000 L 89.451800 205.047000 L 88.994600 205.247000 L 88.537300 205.446000 L 88.070300 205.621000 L 87.598100 205.783000 L 87.125900 205.944000 L 86.653700 206.105000 L 86.187500 206.283000 L 85.723900 206.467000 L 85.260300 206.652000 L 84.796800 206.837000 L 84.337400 207.032000 L 83.879600 207.230000 L 83.421800 207.429000 L 82.963900 207.627000 L 82.506100 207.826000 L 82.048200 208.024000 L 81.590300 208.223000 L 81.132400 208.421000 L 80.674500 208.619000 L 80.216600 208.817000 L 79.758600 209.016000 L 79.300700 209.214000 L 78.842100 209.411000 L 78.383400 209.607000 L 77.924700 209.804000 L 77.466000 210.000000 L 77.006600 210.195000 L 76.547100 210.390000 L 76.087600 210.584000 L 75.628100 210.779000 L 75.168200 210.972000 L 74.708200 211.166000 L 74.248200 211.359000 L 73.788200 211.553000 L 73.328000 211.746000 L 72.867800 211.939000 L 72.407600 212.132000 L 71.947400 212.325000" fill="none" stroke="black" stroke-width="2.0" /><path d="M 188.994000 154.325000 L 187.179000 153.552000 L 185.363000 152.782000 L 183.530000 152.055000 L 181.684000 151.362000 L 179.815000 150.737000 L 177.923000 150.183000 L 176.011000 149.706000 L 174.088000 149.268000 L 172.143000 148.941000 L 170.188000 148.676000 L 168.227000 148.465000 L 166.262000 148.300000 L 164.293000 148.174000 L 162.322000 148.082000 L 160.351000 148.015000 L 158.379000 147.969000 L 156.406000 147.939000 L 154.434000 147.920000 L 152.461000 147.910000 L 150.488000 147.908000 L 148.516000 147.911000 L 146.543000 147.922000 L 144.570000 147.941000 L 142.598000 147.969000 L 140.626000 148.009000 L 138.654000 148.060000 L 136.682000 148.124000 L 134.711000 148.201000 L 132.740000 148.291000 L 130.770000 148.392000 L 128.801000 148.508000 L 126.832000 148.632000 L 124.864000 148.773000 L 122.897000 148.921000 L 120.931000 149.087000 L 118.966000 149.261000 L 117.003000 149.451000 L 115.040000 149.651000 L 113.079000 149.864000 L 111.119000 150.089000 L 109.160000 150.321000 L 107.203000 150.563000 L 105.245000 150.809000 L 103.289000 151.060000 L 101.333000 151.321000 L 99.378300 151.585000 L 97.425400 151.864000 L 95.473700 152.151000 L 93.524500 152.454000 L 91.578100 152.775000 L 89.635100 153.117000 L 87.696200 153.480000 L 85.762500 153.870000 L 83.835300 154.291000 L 81.916000 154.747000 L 80.007100 155.245000 L 78.110300 155.786000 L 76.229100 156.380000 L 74.364700 157.025000 L 72.520500 157.725000 L 70.696400 158.476000 L 68.891800 159.273000 L 67.105400 160.110000 L 65.323000 160.955000" fill="none" stroke="black" stroke-width="2.0" /><path d="M 20.584700 45.069300 L 20.208400 45.398400 L 19.832000 45.727500 L 19.455600 46.056600 L 19.079300 46.385700 L 18.746100 46.758400 L 18.413500 47.131700 L 18.080900 47.505000 L 17.748300 47.878200 L 17.460900 48.287100 L 17.177400 48.698900 L 16.893900 49.110700 L 16.610400 49.522500 L 16.358000 49.953700 L 16.112400 50.389200 L 15.866900 50.824700 L 15.621300 51.260200 L 15.394400 51.705500 L 15.175500 52.155000 L 14.956700 52.604500 L 14.737800 53.054100 L 14.534300 53.510500 L 14.341700 53.971900 L 14.149000 54.433200 L 13.956400 54.894600 L 13.770300 55.358600 L 13.591200 55.825400 L 13.412100 56.292200 L 13.233100 56.759000 L 13.059300 57.227700 L 12.893900 57.699500 L 12.728600 58.171400 L 12.563300 58.643200 L 12.404500 59.117200 L 12.260400 59.595900 L 12.116300 60.074700 L 11.972200 60.553400 L 11.831700 61.033200 L 11.701500 61.515900 L 11.571400 61.998700 L 11.441300 62.481400 L 11.310100 62.963800 L 11.174900 63.445200 L 11.039600 63.926500 L 10.904400 64.407800 L 10.771500 64.889800 L 10.649400 65.374600 L 10.527300 65.859400 L 10.405200 66.344200 L 10.282800 66.829000 L 10.159300 67.313500 L 10.035800 67.797900 L 9.912350 68.282400 L 9.789880 68.767100 L 9.671780 69.252900 L 9.553680 69.738800 L 9.435590 70.224600 L 9.318660 70.710700 L 9.206140 71.197800 L 9.093610 71.684900 L 8.981090 72.172100 L 8.868840 72.659300 L 8.757410 73.146700 L 8.645980 73.634100 L 8.534560 74.121400 L 8.423090 74.608800 L 8.311530 75.096200 L 8.199980 75.583500 L 8.088420 76.070900 L 7.979810 76.558900 L 7.876880 77.048200 L 7.773950 77.537400 L 7.671020 78.026700 L 7.568480 78.516000 L 7.466490 79.005500 L 7.364510 79.494900 L 7.262520 79.984400 L 7.163770 80.474500 L 7.068600 80.965300 L 6.973420 81.456100 L 6.878250 81.946900 L 6.785950 82.438300 L 6.695970 82.930100 L 6.605990 83.421900 L 6.516000 83.913700 L 6.427340 84.405700 L 6.339480 84.897900 L 6.251610 85.390100 L 6.163750 85.882300 L 6.082330 86.375600 L 6.003610 86.869300 L 5.924890 87.363000 L 5.846170 87.856700 L 5.767470 88.350500 L 5.688770 88.844200 L 5.610060 89.337900 L 5.531360 89.831700 L 5.458800 90.326300 L 5.387030 90.821100 L 5.315260 91.315900 L 5.243490 91.810700 L 5.176730 92.306200 L 5.110040 92.801700 L 5.043350 93.297200 L 4.976810 93.792700 L 4.912330 94.288500 L 4.847840 94.784300 L 4.783360 95.280000 L 4.719950 95.776000 L 4.662290 96.272600 L 4.604630 96.769200 L 4.546970 97.265900 L 4.489590 97.762500 L 4.433050 98.259300 L 4.376520 98.756000 L 4.319980 99.252800 L 4.264920 99.749700 L 4.212470 100.247000 L 4.160030 100.744000 L 4.107580 101.241000 L 4.056530 101.739000 L 4.007170 102.236000 L 3.957810 102.734000 L 3.908440 103.231000 L 3.860370 103.729000 L 3.813430 104.227000 L 3.766480 104.724000 L 3.719540 105.222000 L 3.675510 105.720000 L 3.633310 106.218000 L 3.591120 106.717000 L 3.548920 107.215000 L 3.504750 107.713000 L 3.459720 108.211000 L 3.414700 108.709000 L 3.369680 109.207000 L 3.324190 109.704000 L 3.278580 110.202000 L 3.232960 110.700000 L 3.187350 111.198000 L 3.148840 111.697000 L 3.111440 112.195000 L 3.074030 112.694000 L 3.036630 113.192000 L 2.998240 113.691000 L 2.959800 114.189000 L 2.921370 114.688000 L 2.883090 115.186000 L 2.849680 115.685000 L 2.816280 116.184000 L 2.782880 116.683000 L 2.750100 117.182000 L 2.722300 117.681000 L 2.694500 118.180000 L 2.666700 118.679000 L 2.640400 119.178000 L 2.619930 119.678000 L 2.599460 120.177000 L 2.578990 120.677000 L 2.561570 121.177000 L 2.550140 121.677000 L 2.538710 122.176000 L 2.527270 122.676000 L 2.518200 123.176000 L 2.509360 123.676000 L 2.500530 124.176000 L 2.491690 124.676000 L 2.491940 125.176000 L 2.492310 125.676000 L 2.492680 126.176000 L 2.493750 126.676000 L 2.499630 127.176000 L 2.505520 127.675000 L 2.511410 128.175000 L 2.518280 128.675000 L 2.528800 129.175000 L 2.539320 129.675000 L 2.549830 130.175000 L 2.561250 130.675000 L 2.574730 131.174000 L 2.588200 131.674000 L 2.601680 132.174000 L 2.616300 132.674000 L 2.632660 133.173000 L 2.649010 133.673000 L 2.665370 134.173000 L 2.683180 134.672000 L 2.702460 135.172000 L 2.721730 135.672000 L 2.741000 136.171000 L 2.762730 136.671000 L 2.786010 137.170000 L 2.809290 137.670000 L 2.832580 138.169000 L 2.857060 138.668000 L 2.882020 139.168000 L 2.906980 139.667000 L 2.931940 140.166000 L 2.959590 140.666000 L 2.987750 141.165000 L 3.015910 141.664000 L 3.044060 142.163000 L 3.073880 142.662000 L 3.103750 143.161000 L 3.133620 143.660000 L 3.163660 144.159000 L 3.195270 144.658000 L 3.226880 145.157000 L 3.258480 145.656000 L 3.290400 146.155000 L 3.323310 146.654000 L 3.356210 147.153000 L 3.389120 147.652000 L 3.421720 148.151000 L 3.453810 148.650000 L 3.485900 149.149000 L 3.517990 149.648000 L 3.551610 150.146000 L 3.585240 150.645000 L 3.618860 151.144000 L 3.654370 151.643000 L 3.691250 152.141000 L 3.728130 152.640000 L 3.765010 153.139000 L 3.804710 153.637000 L 3.845410 154.135000 L 3.886110 154.634000 L 3.926800 155.132000 L 3.964900 155.630000 L 4.002700 156.129000 L 4.040760 156.627000 L 4.083680 157.126000 L 4.126600 157.624000 L 4.170780 158.122000 L 4.216150 158.620000 L 4.261510 159.117000 L 4.306870 159.615000 L 4.352180 160.113000 L 4.397450 160.611000 L 4.442730 161.109000 L 4.488010 161.607000 L 4.534160 162.105000 L 4.580420 162.603000 L 4.626670 163.100000 L 4.673020 163.598000 L 4.721590 164.096000 L 4.770170 164.593000 L 4.818740 165.091000 L 4.868010 165.589000 L 4.920320 166.086000 L 4.972620 166.583000 L 5.024920 167.080000 L 5.078380 167.577000 L 5.134060 168.074000 L 5.189740 168.571000 L 5.245420 169.068000 L 5.302040 169.565000 L 5.359750 170.061000 L 5.417450 170.558000 L 5.475150 171.055000 L 5.536400 171.551000 L 5.600010 172.047000 L 5.663620 172.543000 L 5.727230 173.038000 L 5.791570 173.534000 L 5.856210 174.030000 L 5.920840 174.526000 L 5.985470 175.022000 L 6.055090 175.517000 L 6.125790 176.012000 L 6.196490 176.507000 L 6.267180 177.001000 L 6.340060 177.496000 L 6.413000 177.991000 L 6.485940 178.485000 L 6.559130 178.980000 L 6.635600 179.474000 L 6.712060 179.968000 L 6.788520 180.462000 L 6.865720 180.956000 L 6.946500 181.450000 L 7.027280 181.943000 L 7.108070 182.436000 L 7.189210 182.930000 L 7.271350 183.423000 L 7.353490 183.916000 L 7.435620 184.409000 L 7.518600 184.902000 L 7.603070 185.395000 L 7.687550 185.888000 L 7.772020 186.381000 L 7.857320 186.873000 L 7.943630 187.366000 L 8.029950 187.858000 L 8.116260 188.351000 L 8.203440 188.843000 L 8.291360 189.335000 L 8.379280 189.827000 L 8.467200 190.319000 L 8.555920 190.811000 L 8.645120 191.303000 L 8.734330 191.795000 L 8.823530 192.287000 L 8.914380 192.779000 L 9.005900 193.270000 L 9.097430 193.762000 L 9.188950 194.253000 L 9.281250 194.745000 L 9.373740 195.236000 L 9.466230 195.727000 L 9.558720 196.219000 L 9.652050 196.710000 L 9.745490 197.201000 L 9.838920 197.692000 L 9.932360 198.183000 L 10.032500 198.673000 L 10.132800 199.163000 L 10.233100 199.653000 L 10.332900 200.143000 L 10.424600 200.634000 L 10.516300 201.126000 L 10.608000 201.617000 L 10.702000 202.108000 L 10.809100 202.597000 L 10.916200 203.085000 L 11.023300 203.573000 L 11.129100 204.062000 L 11.230900 204.551000 L 11.332700 205.041000 L 11.434400 205.530000 L 11.539500 206.019000 L 11.651300 206.506000 L 11.763100 206.994000 L 11.874900 207.481000 L 11.989000 207.968000 L 12.106300 208.454000 L 12.223500 208.940000 L 12.340800 209.426000 L 12.459000 209.912000 L 12.578300 210.397000 L 12.697600 210.883000 L 12.816800 211.368000 L 12.944500 211.852000 L 13.078100 212.333000 L 13.211700 212.815000 L 13.345300 213.297000 L 13.479100 213.779000 L 13.613200 214.260000 L 13.747200 214.742000 L 13.881200 215.224000 L 14.021400 215.704000 L 14.163700 216.183000 L 14.306000 216.662000 L 14.448300 217.141000 L 14.600400 217.618000 L 14.754400 218.093000 L 14.908500 218.569000 L 15.062500 219.045000 L 15.218200 219.520000 L 15.374000 219.995000 L 15.529800 220.470000 L 15.685700 220.945000 L 15.853300 221.416000 L 16.020800 221.887000 L 16.188400 222.358000 L 16.356900 222.829000 L 16.536300 223.295000 L 16.715800 223.762000 L 16.895200 224.229000 L 17.081200 224.692000 L 17.299800 225.142000 L 17.518300 225.592000 L 17.736800 226.041000 L 17.963200 226.487000 L 18.215300 226.919000 L 18.467400 227.350000 L 18.719400 227.782000 L 18.976900 228.211000 L 19.247300 228.631000 L 19.517700 229.052000 L 19.788100 229.472000 L 20.059100 229.892000 L 20.331100 230.312000 L 20.603100 230.731000 L 20.875200 231.151000 L 21.147100 231.570000 L 21.418600 231.990000 L 21.690100 232.410000 L 21.961600 232.830000 L 22.231800 233.251000 L 22.499900 233.673000 L 22.768000 234.095000 L 23.036200 234.517000 L 23.306700 234.937000 L 23.580600 235.355000 L 23.854500 235.774000 L 24.128300 236.192000 L 24.401600 236.611000 L 24.674400 237.029000 L 24.947300 237.448000 L 25.220100 237.867000 L 25.498200 238.283000 L 25.778400 238.697000 L 26.058600 239.111000 L 26.338800 239.525000 L 26.629500 239.932000 L 26.923700 240.336000 L 27.217900 240.740000 L 27.512000 241.145000 L 27.798100 241.555000 L 28.081700 241.966000 L 28.365300 242.378000 L 28.649000 242.790000 L 28.928400 243.204000 L 29.206700 243.620000 L 29.485000 244.035000 L 29.763200 244.450000 L 30.039000 244.867000 L 30.314300 245.285000 L 30.589500 245.702000 L 30.864800 246.119000 L 31.131000 246.543000 L 31.395700 246.967000 L 31.660500 247.391000 L 31.925200 247.815000 L 32.179000 248.246000 L 32.431800 248.677000 L 32.684600 249.108000 L 32.937400 249.540000 L 33.176100 249.979000 L 33.414600 250.418000 L 33.653200 250.858000 L 33.891100 251.298000 L 34.119900 251.742000 L 34.348700 252.187000 L 34.577500 252.631000 L 34.804700 253.077000 L 35.021700 253.527000 L 35.238800 253.977000 L 35.455900 254.428000 L 35.671200 254.879000 L 35.880500 255.333000 L 36.089900 255.787000 L 36.299200 256.241000 L 36.505000 256.697000 L 36.703600 257.155000 L 36.902200 257.614000 L 37.100800 258.073000 L 37.296000 258.533000 L 37.487100 258.995000 L 37.678200 259.457000 L 37.869200 259.919000 L 38.055500 260.383000 L 38.238200 260.849000 L 38.420900 261.314000 L 38.603600 261.780000 L 38.781600 262.247000 L 38.957700 262.715000 L 39.133800 263.183000 L 39.309900 263.650000 L 39.482000 264.120000 L 39.653500 264.590000 L 39.825000 265.059000 L 39.996400 265.529000 L 40.160700 266.001000 L 40.325000 266.473000 L 40.489300 266.945000 L 40.652900 267.418000 L 40.813000 267.891000 L 40.973100 268.365000 L 41.133200 268.839000 L 41.292100 269.313000 L 41.448400 269.788000 L 41.604800 270.263000 L 41.761200 270.737000 L 41.915800 271.213000 L 42.068800 271.689000 L 42.221700 272.165000 L 42.374600 272.641000 L 42.526000 273.117000 L 42.676600 273.594000 L 42.827300 274.071000 L 42.977900 274.548000 L 43.125700 275.025000 L 43.273000 275.503000 L 43.420400 275.981000 L 43.568000 276.458000 L 43.717800 276.935000 L 43.867700 277.412000 L 44.017500 277.889000 L 44.166600 278.367000 L 44.313800 278.844000 L 44.461000 279.322000 L 44.608100 279.800000 L 44.753100 280.278000 L 44.896100 280.758000 L 45.039100 281.237000 L 45.182100 281.716000 L 45.325300 282.195000 L 45.468700 282.674000 L 45.612100 283.153000 L 45.755300 283.632000 L 45.897500 284.111000 L 46.039700 284.590000 L 46.181800 285.070000 L 46.325900 285.548000 L 46.474100 286.026000 L 46.622300 286.503000 L 46.770500 286.981000 L 46.921300 287.458000 L 47.073800 287.934000 L 47.226300 288.410000 L 47.378700 288.886000 L 47.534700 289.361000 L 47.691200 289.836000 L 47.847600 290.311000 L 48.005400 290.785000 L 48.169800 291.257000 L 48.334200 291.729000 L 48.498600 292.202000 L 48.666800 292.672000 L 48.839100 293.142000 L 49.011500 293.611000 L 49.183800 294.080000 L 49.363600 294.547000 L 49.545400 295.013000 L 49.727200 295.478000 L 49.910300 295.944000 L 50.104200 296.404000 L 50.298100 296.865000 L 50.492100 297.326000 L 50.690800 297.785000 L 50.896300 298.241000 L 51.101700 298.696000 L 51.307100 299.152000 L 51.521300 299.604000 L 51.738300 300.054000 L 51.955400 300.505000 L 52.173500 300.955000 L 52.402000 301.399000 L 52.630400 301.844000 L 52.858900 302.289000 L 53.093500 302.730000 L 53.335900 303.167000 L 53.578300 303.605000 L 53.820700 304.042000 L 54.080000 304.469000 L 54.341600 304.895000 L 54.603100 305.321000 L 54.877400 305.738000 L 55.200100 306.120000 L 55.522700 306.502000 L 55.845400 306.884000 L 56.190300 307.245000 L 56.546100 307.597000 L 56.902000 307.948000 L 57.257800 308.299000 L 57.614800 308.649000 L 57.971700 308.999000 L 58.328700 309.349000 L 58.697600 309.684000 L 59.117300 309.956000 L 59.537000 310.228000 L 59.956700 310.499000 L 60.377100 310.770000 L 60.799000 311.038000 L 61.220900 311.307000 L 61.642800 311.575000 L 62.074100 311.827000 L 62.516100 312.060000 L 62.958100 312.294000 L 63.400100 312.528000 L 63.861400 312.713000 L 64.342700 312.848000 L 64.824000 312.984000 L 65.305300 313.119000 L 65.792200 313.229000 L 66.286500 313.304000 L 66.780800 313.379000 L 67.275100 313.454000 L 67.771200 313.513000 L 68.270000 313.546000 L 68.768800 313.580000 L 69.267700 313.614000 L 69.766800 313.639000 L 70.266700 313.637000 L 70.766700 313.635000 L 71.266600 313.633000 L 71.766500 313.628000 L 72.266000 313.604000 L 72.765400 313.581000 L 73.264800 313.558000 L 73.764200 313.535000 L 74.261700 313.485000 L 74.759000 313.434000 L 75.256300 313.383000 L 75.753700 313.331000 L 76.248800 313.263000 L 76.743200 313.188000 L 77.237600 313.114000 L 77.732000 313.040000 L 78.224300 312.953000 L 78.714900 312.857000 L 79.205400 312.760000 L 79.696000 312.664000 L 80.185600 312.563000 L 80.673500 312.453000 L 81.161300 312.344000 L 81.649100 312.234000 L 82.136500 312.123000 L 82.621400 312.001000 L 83.106200 311.879000 L 83.591000 311.757000 L 84.075900 311.635000 L 84.558000 311.503000 L 85.040000 311.370000 L 85.522000 311.237000 L 86.004000 311.104000 L 86.484200 310.965000 L 86.963700 310.823000 L 87.443300 310.682000 L 87.922900 310.541000 L 88.401000 310.395000 L 88.878100 310.245000 L 89.355100 310.095000 L 89.832200 309.946000 L 90.308400 309.794000 L 90.783300 309.637000 L 91.258200 309.481000 L 91.733200 309.325000 L 92.207600 309.167000 L 92.680600 309.005000 L 93.153600 308.843000 L 93.626500 308.681000 L 94.099300 308.518000 L 94.569500 308.348000 L 95.039700 308.179000 L 95.509900 308.009000 L 95.980100 307.839000 L 96.449200 307.666000 L 96.918200 307.493000 L 97.387300 307.320000 L 97.856300 307.146000 L 98.324700 306.972000 L 98.793000 306.796000 L 99.261300 306.621000 L 99.729500 306.446000 L 100.197000 306.270000 L 100.665000 306.093000 L 101.133000 305.916000 L 101.600000 305.739000 L 102.067000 305.561000 L 102.534000 305.382000 L 103.001000 305.204000 L 103.468000 305.026000 L 103.935000 304.847000 L 104.402000 304.667000 L 104.869000 304.488000 L 105.335000 304.308000 L 105.802000 304.129000 L 106.268000 303.948000 L 106.734000 303.767000 L 107.200000 303.587000 L 107.667000 303.406000 L 108.132000 303.224000 L 108.598000 303.042000 L 109.063000 302.860000 L 109.529000 302.677000 L 109.994000 302.494000 L 110.459000 302.310000 L 110.924000 302.127000 L 111.389000 301.943000 L 111.853000 301.758000 L 112.318000 301.573000 L 112.782000 301.388000 L 113.247000 301.202000 L 113.710000 301.014000 L 114.173000 300.826000 L 114.636000 300.637000 L 115.099000 300.449000 L 115.561000 300.258000 L 116.023000 300.067000 L 116.485000 299.876000 L 116.947000 299.685000 L 117.408000 299.491000 L 117.869000 299.297000 L 118.330000 299.103000 L 118.791000 298.909000 L 119.249000 298.709000 L 119.707000 298.508000 L 120.164000 298.307000 L 120.622000 298.106000 L 121.079000 297.904000 L 121.537000 297.701000 L 121.994000 297.499000 L 122.451000 297.296000 L 122.904000 297.086000 L 123.357000 296.874000 L 123.809000 296.661000 L 124.262000 296.448000 L 124.712000 296.231000 L 125.161000 296.011000 L 125.610000 295.791000 L 126.059000 295.571000 L 126.507000 295.349000 L 126.954000 295.125000 L 127.401000 294.900000 L 127.847000 294.676000 L 128.291000 294.445000 L 128.732000 294.209000 L 129.172000 293.973000 L 129.613000 293.737000 L 130.055000 293.503000 L 130.498000 293.271000 L 130.941000 293.039000 L 131.383000 292.807000 L 131.824000 292.570000 L 132.261000 292.328000 L 132.699000 292.086000 L 133.136000 291.844000 L 133.573000 291.601000 L 134.009000 291.357000 L 134.445000 291.112000 L 134.882000 290.868000 L 135.317000 290.622000 L 135.752000 290.376000 L 136.187000 290.129000 L 136.622000 289.882000 L 137.055000 289.633000 L 137.485000 289.378000 L 137.916000 289.124000 L 138.346000 288.869000 L 138.776000 288.614000 L 139.206000 288.359000 L 139.636000 288.104000 L 140.066000 287.848000 L 140.494000 287.591000 L 140.920000 287.329000 L 141.346000 287.066000 L 141.771000 286.804000 L 142.196000 286.541000 L 142.619000 286.275000 L 143.043000 286.009000 L 143.466000 285.743000 L 143.889000 285.476000 L 144.310000 285.206000 L 144.731000 284.937000 L 145.152000 284.667000 L 145.573000 284.397000 L 145.990000 284.122000 L 146.407000 283.846000 L 146.825000 283.571000 L 147.242000 283.296000 L 147.659000 283.019000 L 148.075000 282.743000 L 148.492000 282.466000 L 148.908000 282.189000 L 149.320000 281.907000 L 149.733000 281.624000 L 150.146000 281.342000 L 150.558000 281.060000 L 150.970000 280.775000 L 151.381000 280.491000 L 151.792000 280.207000 L 152.203000 279.922000 L 152.612000 279.635000 L 153.022000 279.348000 L 153.431000 279.061000 L 153.840000 278.774000 L 154.246000 278.481000 L 154.652000 278.189000 L 155.057000 277.897000 L 155.463000 277.605000 L 155.868000 277.312000 L 156.274000 277.020000 L 156.680000 276.727000 L 157.085000 276.435000 L 157.487000 276.137000 L 157.888000 275.839000 L 158.289000 275.541000 L 158.690000 275.243000 L 159.090000 274.943000 L 159.490000 274.642000 L 159.890000 274.342000 L 160.290000 274.042000 L 160.688000 273.740000 L 161.086000 273.437000 L 161.484000 273.134000 L 161.882000 272.832000 L 162.276000 272.524000 L 162.670000 272.216000 L 163.064000 271.908000 L 163.458000 271.600000 L 163.851000 271.292000 L 164.245000 270.984000 L 164.639000 270.677000 L 165.033000 270.369000 L 165.423000 270.056000 L 165.813000 269.742000 L 166.202000 269.428000 L 166.591000 269.115000 L 166.979000 268.799000 L 167.367000 268.484000 L 167.755000 268.168000 L 168.143000 267.853000 L 168.529000 267.535000 L 168.914000 267.217000 L 169.300000 266.899000 L 169.686000 266.581000 L 170.068000 266.258000 L 170.449000 265.934000 L 170.830000 265.611000 L 171.211000 265.288000 L 171.593000 264.965000 L 171.974000 264.642000 L 172.356000 264.318000 L 172.738000 263.995000 L 173.115000 263.667000 L 173.491000 263.338000 L 173.868000 263.010000 L 174.245000 262.681000 L 174.620000 262.350000 L 174.995000 262.019000 L 175.370000 261.689000 L 175.744000 261.358000 L 176.117000 261.025000 L 176.490000 260.692000 L 176.863000 260.359000 L 177.236000 260.025000 L 177.605000 259.688000 L 177.973000 259.350000 L 178.341000 259.012000 L 178.710000 258.674000 L 179.077000 258.335000 L 179.445000 257.996000 L 179.812000 257.657000 L 180.180000 257.318000 L 180.544000 256.976000 L 180.909000 256.634000 L 181.273000 256.291000 L 181.638000 255.949000 L 181.999000 255.603000 L 182.360000 255.257000 L 182.721000 254.911000 L 183.081000 254.565000 L 183.440000 254.217000 L 183.798000 253.868000 L 184.157000 253.519000 L 184.515000 253.171000 L 184.870000 252.819000 L 185.225000 252.467000 L 185.580000 252.115000 L 185.935000 251.763000 L 186.288000 251.408000 L 186.640000 251.054000 L 186.992000 250.699000 L 187.345000 250.344000 L 187.695000 249.987000 L 188.044000 249.630000 L 188.394000 249.273000 L 188.744000 248.915000 L 189.090000 248.555000 L 189.437000 248.195000 L 189.784000 247.834000 L 190.130000 247.474000 L 190.474000 247.110000 L 190.817000 246.747000 L 191.161000 246.384000 L 191.504000 246.021000 L 191.846000 245.655000 L 192.187000 245.290000 L 192.528000 244.925000 L 192.869000 244.559000 L 193.206000 244.190000 L 193.544000 243.821000 L 193.881000 243.452000 L 194.218000 243.083000 L 194.554000 242.712000 L 194.890000 242.342000 L 195.225000 241.971000 L 195.560000 241.600000 L 195.892000 241.226000 L 196.224000 240.852000 L 196.556000 240.479000 L 196.887000 240.104000 L 197.216000 239.727000 L 197.544000 239.350000 L 197.873000 238.974000 L 198.202000 238.597000 L 198.530000 238.220000 L 198.858000 237.843000 L 199.187000 237.466000 L 199.512000 237.086000 L 199.833000 236.702000 L 200.154000 236.319000 L 200.475000 235.936000 L 200.796000 235.553000 L 201.118000 235.170000 L 201.440000 234.788000 L 201.762000 234.405000 L 202.081000 234.020000 L 202.396000 233.633000 L 202.712000 233.245000 L 203.028000 232.857000 L 203.343000 232.469000 L 203.658000 232.081000 L 203.972000 231.692000 L 204.286000 231.303000 L 204.601000 230.915000 L 204.916000 230.526000 L 205.231000 230.138000 L 205.546000 229.750000 L 205.858000 229.359000 L 206.167000 228.966000 L 206.476000 228.573000 L 206.785000 228.180000 L 207.096000 227.788000 L 207.407000 227.397000 L 207.719000 227.006000 L 208.030000 226.615000 L 208.341000 226.223000 L 208.651000 225.831000 L 208.961000 225.439000 L 209.271000 225.046000 L 209.579000 224.653000 L 209.886000 224.258000 L 210.193000 223.864000 L 210.501000 223.469000 L 210.808000 223.075000 L 211.116000 222.682000 L 211.424000 222.288000 L 211.732000 221.894000 L 212.038000 221.498000 L 212.341000 221.101000 L 212.645000 220.704000 L 212.949000 220.307000 L 213.250000 219.908000 L 213.551000 219.508000 L 213.851000 219.108000 L 214.151000 218.709000 L 214.446000 218.305000 L 214.737000 217.899000 L 215.029000 217.492000 L 215.321000 217.086000 L 215.608000 216.677000 L 215.893000 216.266000 L 216.178000 215.856000 L 216.463000 215.445000 L 216.743000 215.031000 L 217.021000 214.615000 L 217.300000 214.200000 L 217.578000 213.785000 L 217.851000 213.366000 L 218.122000 212.945000 L 218.392000 212.525000 L 218.663000 212.105000 L 218.928000 211.681000 L 219.192000 211.256000 L 219.455000 210.831000 L 219.718000 210.406000 L 219.973000 209.976000 L 220.225000 209.544000 L 220.477000 209.113000 L 220.730000 208.681000 L 220.976000 208.246000 L 221.220000 207.810000 L 221.465000 207.373000 L 221.709000 206.937000 L 221.944000 206.496000 L 222.177000 206.054000 L 222.410000 205.611000 L 222.643000 205.169000 L 222.867000 204.722000 L 223.088000 204.274000 L 223.310000 203.825000 L 223.531000 203.377000 L 223.744000 202.925000 L 223.955000 202.471000 L 224.166000 202.018000 L 224.377000 201.565000 L 224.573000 201.105000 L 224.767000 200.644000 L 224.961000 200.183000 L 225.154000 199.722000 L 225.340000 199.258000 L 225.525000 198.794000 L 225.709000 198.329000 L 225.894000 197.864000 L 226.065000 197.395000 L 226.235000 196.924000 L 226.405000 196.454000 L 226.575000 195.984000 L 226.732000 195.510000 L 226.889000 195.035000 L 227.045000 194.560000 L 227.202000 194.085000 L 227.348000 193.607000 L 227.492000 193.128000 L 227.637000 192.650000 L 227.782000 192.171000 L 227.914000 191.689000 L 228.044000 191.206000 L 228.175000 190.724000 L 228.306000 190.241000 L 228.423000 189.755000 L 228.541000 189.269000 L 228.659000 188.783000 L 228.776000 188.297000 L 228.881000 187.808000 L 228.985000 187.320000 L 229.090000 186.831000 L 229.192000 186.341000 L 229.269000 185.847000 L 229.346000 185.353000 L 229.423000 184.859000 L 229.500000 184.365000 L 229.577000 183.871000 L 229.655000 183.378000 L 229.733000 182.884000 L 229.806000 182.389000 L 229.871000 181.893000 L 229.936000 181.398000 L 230.001000 180.902000 L 230.059000 180.405000 L 230.111000 179.908000 L 230.163000 179.411000 L 230.216000 178.914000 L 230.263000 178.416000 L 230.307000 177.918000 L 230.351000 177.420000 L 230.395000 176.922000 L 230.433000 176.423000 L 230.466000 175.925000 L 230.499000 175.426000 L 230.532000 174.927000 L 230.561000 174.428000 L 230.587000 173.928000 L 230.613000 173.429000 L 230.640000 172.930000 L 230.665000 172.431000 L 230.691000 171.931000 L 230.716000 171.432000 L 230.741000 170.933000 L 230.758000 170.433000 L 230.767000 169.933000 L 230.777000 169.433000 L 230.787000 168.933000 L 230.791000 168.433000 L 230.791000 167.933000 L 230.792000 167.433000 L 230.792000 166.934000 L 230.787000 166.434000 L 230.777000 165.934000 L 230.767000 165.434000 L 230.757000 164.934000 L 230.743000 164.434000 L 230.726000 163.935000 L 230.709000 163.435000 L 230.692000 162.935000 L 230.671000 162.436000 L 230.649000 161.936000 L 230.627000 161.437000 L 230.604000 160.937000 L 230.579000 160.438000 L 230.552000 159.939000 L 230.524000 159.440000 L 230.497000 158.940000 L 230.467000 158.441000 L 230.436000 157.942000 L 230.405000 157.443000 L 230.374000 156.944000 L 230.340000 156.445000 L 230.305000 155.947000 L 230.270000 155.448000 L 230.235000 154.949000 L 230.198000 154.451000 L 230.159000 153.952000 L 230.119000 153.454000 L 230.080000 152.955000 L 230.039000 152.457000 L 229.995000 151.959000 L 229.952000 151.461000 L 229.909000 150.963000 L 229.863000 150.465000 L 229.816000 149.967000 L 229.769000 149.470000 L 229.722000 148.972000 L 229.672000 148.474000 L 229.620000 147.977000 L 229.568000 147.480000 L 229.516000 146.983000 L 229.462000 146.486000 L 229.406000 145.989000 L 229.350000 145.492000 L 229.294000 144.995000 L 229.234000 144.499000 L 229.173000 144.003000 L 229.112000 143.506000 L 229.051000 143.010000 L 228.987000 142.514000 L 228.921000 142.019000 L 228.854000 141.523000 L 228.788000 141.028000 L 228.719000 140.532000 L 228.648000 140.038000 L 228.577000 139.543000 L 228.506000 139.048000 L 228.431000 138.553000 L 228.354000 138.060000 L 228.276000 137.566000 L 228.199000 137.072000 L 228.119000 136.578000 L 228.036000 136.085000 L 227.953000 135.592000 L 227.871000 135.099000 L 227.784000 134.607000 L 227.695000 134.115000 L 227.606000 133.623000 L 227.517000 133.131000 L 227.422000 132.640000 L 227.326000 132.149000 L 227.230000 131.659000 L 227.133000 131.168000 L 227.033000 130.678000 L 226.931000 130.189000 L 226.829000 129.699000 L 226.727000 129.210000 L 226.618000 128.722000 L 226.507000 128.234000 L 226.396000 127.747000 L 226.285000 127.259000 L 226.170000 126.773000 L 226.053000 126.287000 L 225.936000 125.801000 L 225.819000 125.315000 L 225.695000 124.830000 L 225.568000 124.347000 L 225.441000 123.863000 L 225.315000 123.379000 L 225.179000 122.898000 L 225.039000 122.418000 L 224.900000 121.938000 L 224.761000 121.458000 L 224.620000 120.978000 L 224.479000 120.498000 L 224.338000 120.019000 L 224.197000 119.539000 L 224.038000 119.065000 L 223.875000 118.593000 L 223.711000 118.120000 L 223.548000 117.648000 L 223.386000 117.175000 L 223.224000 116.702000 L 223.062000 116.229000 L 222.900000 115.756000 L 222.720000 115.289000 L 222.535000 114.825000 L 222.351000 114.360000 L 222.166000 113.895000 L 221.951000 113.444000 L 221.728000 112.997000 L 221.505000 112.550000 L 221.281000 112.102000 L 221.063000 111.653000 L 220.845000 111.203000 L 220.627000 110.753000 L 220.409000 110.303000 L 220.160000 109.869000 L 219.904000 109.440000 L 219.647000 109.011000 L 219.390000 108.582000 L 219.111000 108.168000 L 218.826000 107.757000 L 218.541000 107.346000 L 218.256000 106.936000 L 217.955000 106.537000 L 217.650000 106.140000 L 217.345000 105.744000 L 217.041000 105.347000 L 216.720000 104.964000 L 216.396000 104.583000 L 216.071000 104.203000 L 215.747000 103.823000 L 215.410000 103.453000 L 215.071000 103.086000 L 214.731000 102.719000 L 214.391000 102.352000 L 214.048000 101.989000 L 213.703000 101.627000 L 213.358000 101.265000 L 213.014000 100.903000 L 212.650000 100.560000 L 212.282000 100.222000 L 211.914000 99.883400 L 211.545000 99.545200 L 211.178000 99.206300 L 210.810000 98.867300 L 210.443000 98.528300 L 210.075000 98.189300 L 209.712000 97.845800 L 209.350000 97.501400 L 208.987000 97.156900 L 208.625000 96.812400 L 208.211000 96.535000 L 207.786000 96.271900 L 207.361000 96.008800 L 206.935000 95.745700 L 206.522000 95.464200 L 206.112000 95.178700 L 205.701000 94.893300 L 205.291000 94.607800 L 204.874000 94.332000 L 204.456000 94.058100 L 204.038000 93.784100 L 203.619000 93.510100 L 203.180000 93.271500 L 202.738000 93.039300 L 202.295000 92.807200 L 201.852000 92.575000 L 201.412000 92.336800 L 200.973000 92.097500 L 200.534000 91.858200 L 200.095000 91.618900 L 199.650000 91.392600 L 199.203000 91.168700 L 198.756000 90.944800 L 198.309000 90.720900 L 197.860000 90.499700 L 197.412000 90.279000 L 196.963000 90.058300 L 196.514000 89.837600 L 196.068000 89.613100 L 195.621000 89.387900 L 195.175000 89.162700 L 194.729000 88.937500 L 194.282000 88.712000 L 193.836000 88.486400 L 193.390000 88.260700 L 192.944000 88.035100 L 192.496000 87.813800 L 192.047000 87.593200 L 191.598000 87.372600 L 191.150000 87.152000 L 190.706000 86.921900 L 190.263000 86.690200 L 189.820000 86.458400 L 189.377000 86.226700 L 188.930000 86.002600 L 188.482000 85.779600 L 188.035000 85.556700 L 187.587000 85.333800 L 187.140000 85.109400 L 186.694000 84.884700 L 186.247000 84.660100 L 185.800000 84.435500 L 185.353000 84.212500 L 184.905000 83.989700 L 184.458000 83.766900 L 184.010000 83.544100 L 183.560000 83.327200 L 183.109000 83.111100 L 182.658000 82.894900 L 182.207000 82.678700 L 181.757000 82.462000 L 181.306000 82.245100 L 180.856000 82.028200 L 180.405000 81.811400 L 179.952000 81.600100 L 179.499000 81.389300 L 179.046000 81.178500 L 178.592000 80.967700 L 178.138000 80.758800 L 177.684000 80.550000 L 177.229000 80.341200 L 176.775000 80.132500 L 176.320000 79.924500 L 175.866000 79.716600 L 175.411000 79.508700 L 174.956000 79.300800 L 174.501000 79.093600 L 174.046000 78.886400 L 173.591000 78.679200 L 173.136000 78.472100 L 172.681000 78.265400 L 172.226000 78.058700 L 171.771000 77.852000 L 171.315000 77.645300 L 170.862000 77.433800 L 170.409000 77.222100 L 169.956000 77.010500 L 169.503000 76.798800 L 169.049000 76.590800 L 168.594000 76.382800 L 168.140000 76.174800 L 167.685000 75.966700 L 167.233000 75.753500 L 166.781000 75.540200 L 166.328000 75.326900 L 165.876000 75.113600 L 165.425000 74.898600 L 164.973000 74.683600 L 164.522000 74.468600 L 164.071000 74.253800 L 163.617000 74.042800 L 163.164000 73.831800 L 162.711000 73.620700 L 162.258000 73.409100 L 161.809000 73.189700 L 161.359000 72.970200 L 160.910000 72.750800 L 160.460000 72.532400 L 160.006000 72.324800 L 159.551000 72.117200 L 159.096000 71.909700 L 158.642000 71.701200 L 158.190000 71.487200 L 157.738000 71.273200 L 157.286000 71.059200 L 156.834000 70.846000 L 156.380000 70.636600 L 155.926000 70.427200 L 155.472000 70.217800 L 155.018000 70.008300 L 154.564000 69.798500 L 154.110000 69.588700 L 153.656000 69.378900 L 153.202000 69.169700 L 152.747000 68.963100 L 152.292000 68.756400 L 151.836000 68.549800 L 151.380000 68.345600 L 150.920000 68.149400 L 150.460000 67.953200 L 150.001000 67.757100 L 149.541000 67.560600 L 149.081000 67.363400 L 148.622000 67.166200 L 148.163000 66.969000 L 147.703000 66.773100 L 147.241000 66.580800 L 146.779000 66.388600 L 146.318000 66.196300 L 145.856000 66.004900 L 145.393000 65.815500 L 144.931000 65.626200 L 144.468000 65.436800 L 144.005000 65.248500 L 143.541000 65.062200 L 143.077000 64.876000 L 142.613000 64.689800 L 142.148000 64.505000 L 141.683000 64.323100 L 141.217000 64.141100 L 140.751000 63.959100 L 140.285000 63.778000 L 139.819000 63.598500 L 139.352000 63.419000 L 138.885000 63.239500 L 138.418000 63.061300 L 137.950000 62.885000 L 137.483000 62.708700 L 137.015000 62.532400 L 136.547000 62.356800 L 136.078000 62.182100 L 135.610000 62.007300 L 135.141000 61.832600 L 134.672000 61.660000 L 134.202000 61.490100 L 133.732000 61.320100 L 133.262000 61.150100 L 132.791000 60.980500 L 132.321000 60.811400 L 131.850000 60.642300 L 131.380000 60.473200 L 130.909000 60.306000 L 130.437000 60.140600 L 129.965000 59.975300 L 129.493000 59.809900 L 129.021000 59.645600 L 128.548000 59.482300 L 128.076000 59.318900 L 127.603000 59.155500 L 127.131000 58.992700 L 126.658000 58.830200 L 126.185000 58.667700 L 125.712000 58.505300 L 125.238000 58.345400 L 124.764000 58.187000 L 124.290000 58.028700 L 123.816000 57.870400 L 123.341000 57.712100 L 122.867000 57.553800 L 122.393000 57.395600 L 121.919000 57.237300 L 121.444000 57.081700 L 120.968000 56.927400 L 120.493000 56.773000 L 120.017000 56.618600 L 119.541000 56.464600 L 119.066000 56.310700 L 118.590000 56.156900 L 118.114000 56.003000 L 117.638000 55.851200 L 117.161000 55.699900 L 116.685000 55.548600 L 116.208000 55.397300 L 115.731000 55.248000 L 115.254000 55.099200 L 114.777000 54.950400 L 114.299000 54.801600 L 113.822000 54.654000 L 113.344000 54.506500 L 112.866000 54.359000 L 112.388000 54.211600 L 111.910000 54.067300 L 111.431000 53.923300 L 110.952000 53.779300 L 110.473000 53.635300 L 109.994000 53.492200 L 109.515000 53.349100 L 109.036000 53.206000 L 108.557000 53.063100 L 108.077000 52.924500 L 107.596000 52.785800 L 107.116000 52.647200 L 106.636000 52.508700 L 106.155000 52.371300 L 105.674000 52.233900 L 105.193000 52.096500 L 104.713000 51.959900 L 104.231000 51.826800 L 103.749000 51.693800 L 103.267000 51.560800 L 102.785000 51.428000 L 102.303000 51.296000 L 101.820000 51.164000 L 101.338000 51.032000 L 100.856000 50.900900 L 100.373000 50.771900 L 99.889500 50.643000 L 99.406400 50.514100 L 98.922900 50.386800 L 98.438600 50.262900 L 97.954200 50.138900 L 97.469900 50.014900 L 96.985500 49.891200 L 96.500900 49.768100 L 96.016300 49.645100 L 95.531700 49.522000 L 95.046500 49.401600 L 94.560500 49.284300 L 94.074500 49.166900 L 93.588500 49.049500 L 93.102300 48.932800 L 92.616100 48.816700 L 92.129800 48.700500 L 91.643500 48.584300 L 91.156800 48.469800 L 90.669900 48.356300 L 90.183000 48.242900 L 89.696100 48.129400 L 89.208300 48.019600 L 88.720200 47.911700 L 88.232000 47.803700 L 87.743800 47.695800 L 87.255500 47.588500 L 86.767100 47.481500 L 86.278700 47.374500 L 85.790400 47.267400 L 85.301100 47.164500 L 84.811600 47.062800 L 84.322100 46.961000 L 83.832600 46.859200 L 83.342800 46.759000 L 82.853000 46.659000 L 82.363100 46.559000 L 81.873200 46.459000 L 81.383200 46.359700 L 80.893200 46.260400 L 80.403200 46.161200 L 79.913200 46.061900 L 79.422000 45.968900 L 78.930700 45.876000 L 78.439400 45.783200 L 77.948100 45.690400 L 77.456700 45.598500 L 76.965300 45.506600 L 76.473800 45.414600 L 75.982300 45.323100 L 75.490000 45.235900 L 74.997700 45.148600 L 74.505400 45.061400 L 74.013100 44.974500 L 73.520400 44.889400 L 73.027700 44.804300 L 72.535100 44.719200 L 72.042400 44.634300 L 71.549500 44.550200 L 71.056700 44.466100 L 70.563800 44.382000 L 70.070800 44.299100 L 69.577100 44.220100 L 69.083400 44.141200 L 68.589700 44.062200 L 68.096000 43.983700 L 67.602000 43.906300 L 67.108100 43.828900 L 66.614200 43.751600 L 66.120000 43.675500 L 65.625500 43.601800 L 65.131000 43.528100 L 64.636500 43.454400 L 64.141800 43.381800 L 63.647000 43.310700 L 63.152100 43.239600 L 62.657200 43.168500 L 62.162200 43.098400 L 61.667000 43.029500 L 61.171800 42.960700 L 60.676600 42.891800 L 60.181100 42.824700 L 59.685500 42.759100 L 59.189800 42.693600 L 58.694200 42.628100 L 58.198300 42.564200 L 57.702300 42.501600 L 57.206300 42.439000 L 56.710200 42.376400 L 56.214000 42.315600 L 55.717600 42.255800 L 55.221200 42.196000 L 54.724900 42.136300 L 54.228200 42.078600 L 53.731500 42.021700 L 53.234800 41.964900 L 52.738100 41.908100 L 52.241000 41.854200 L 51.743900 41.801200 L 51.246700 41.748200 L 50.749600 41.695200 L 50.252300 41.643500 L 49.755000 41.592000 L 49.257700 41.540600 L 48.760400 41.489100 L 48.262500 41.443700 L 47.764500 41.398800 L 47.266600 41.353900 L 46.768600 41.309100 L 46.270500 41.266300 L 45.772400 41.223500 L 45.274200 41.180700 L 44.776000 41.139700 L 44.277100 41.107200 L 43.778200 41.074800 L 43.279200 41.042400 L 42.780100 41.013900 L 42.280500 40.995700 L 41.780900 40.977500 L 41.281200 40.959300 L 40.781500 40.942700 L 40.281800 40.928400 L 39.782000 40.914100 L 39.282300 40.899900 L 38.782500 40.886000 L 38.282700 40.872400 L 37.782900 40.858800 L 37.283200 40.845200 L 36.783400 40.849900 L 36.283600 40.862800 L 35.783800 40.875600 L 35.284000 40.888500 L 34.785600 40.926800 L 34.287400 40.969000 L 33.789200 41.011200 L 33.291000 41.053400 L 32.792900 41.096000 L 32.294700 41.138700 L 31.796600 41.181300 L 31.299600 41.233100 L 30.806300 41.314600 L 30.313100 41.396100 L 29.819800 41.477700 L 29.330300 41.577400 L 28.846100 41.701800 L 28.361900 41.826200 L 27.877600 41.950500 L 27.392700 42.072400 L 26.907400 42.192300 L 26.422000 42.312200 L 25.936600 42.432200 L 25.461500 42.586300 L 24.990100 42.753000 L 24.518800 42.919600 L 24.047400 43.086200 L 23.596300 43.301200 L 23.147400 43.521300 L 22.698500 43.741300 L 22.249500 43.961400 L 21.832700 44.237300 L 21.416700 44.514600 L 20.584700 45.069300" fill="none" stroke="black" stroke-width="2.0" /></svg>