<?xml version="1.0" encoding="utf-8"?>
<!-- Generator: Adobe Illustrator 22.1.0, SVG Export Plug-In . SVG Version: 6.00 Build 0)  -->
<svg version="1.1" id="Layer_1" xmlns:ev="http://www.w3.org/2001/xml-events"
	 xmlns="http://www.w3.org/2000/svg" xmlns:xlink="http://www.w3.org/1999/xlink" x="0px" y="0px" viewBox="0 0 570 317"
	 style="enable-background:new 0 0 570 317;" xml:space="preserve">
<style type="text/css">
	.st0{fill:none;stroke:#000000;stroke-width:2;}
</style>
<path class="st0" d="M347.7,177.4l-2.7,1.7l-2.6,1.7l-2.6,1.7l-2.5,1.7l-2.4,1.6l-2.4,1.6l-2.4,1.6l-2.4,1.5l-2.4,1.5l-2.5,1.4
	l-2.5,1.3l-2.6,1.3l-2.7,1l-2.8,1.1l-2.9,1l-3.1,0.8l-3.3,0.7l-3.1,0.6l-2.9,0.6l-2.9,0.6l-3,0.6l-2.9,0.7l-2.9,0.7l-2.9,0.7
	l-2.9,0.8l-2.9,0.8l-2.9,0.8l-2.9,0.9l-2.8,1l-2.8,1.1l-2.8,1.1l-2.8,1.2l-2.8,1.1l-2.8,1.1l-2.9,0.9l-2.9,0.8l-2.9,0.6l-2.8,0.3
	l-2.6,0.1l-3.3-0.2l-3.6-0.5l-4.6-1.8l-4.1-3l-2.8-2.7l-3.6-4.4"/>
<path class="st0" d="M346.2,176.6l-2.2,2.3l-2.2,2.2l-2.3,2l-2.3,1.9l-2.3,1.8l-2.4,1.7L330,190l-2.5,1.4l-2.5,1.3l-2.6,1.2
	l-2.6,1.1l-2.7,1l-2.8,0.9l-2.8,0.8l-2.9,0.8l-3,0.7l-3.1,0.6l-3.2,0.5l-3.2,0.4l-3,0.4l-3,0.5l-3,0.6l-2.9,0.6l-2.9,0.7l-2.9,0.7
	l-2.9,0.7l-2.9,0.8l-2.9,0.8l-2.9,0.8l-2.9,0.8l-2.9,0.8l-2.9,0.8l-2.9,0.8l-2.9,0.8l-2.9,0.8l-2.9,0.8l-2.9,0.8l-2.9,0.8l-2.9,0.7
	l-2.9,0.7l-2.9,0.6l-3,0.6l-1.6-1.8l0.1-1"/>
<path class="st0" d="M322.2,195.2h2.4l2.6,0.1l2.8,0.2l3,0.2l3.1,0.2l3.2,0.2l3.3,0.2l3.3,0.1l3.3,0.1h3.3l3.2-0.2l3-0.3l2.9-0.5
	l2.7-0.7l2.6-1l2.9-1.6l2.4-1.9l1.9-2.2l1.6-2.4l1.2-2.6l0.9-2.8l0.7-2.9l0.6-3l0.5-3l0.4-3l0.5-3l0.5-2.9l0.7-2.8l0.8-2.5"/>
<path class="st0" d="M383.4,159.6l-0.5,3l-0.6,2.9l-0.8,2.9l-1,2.9l-1.2,2.8l-1.4,2.7l-1.5,2.6l-1.7,2.4l-1.9,2.3l-2.1,2.1l-2.3,1.9
	l-2.5,1.6l-2.7,1.4l-2.9,1.1l-2.9,0.8l-2.9,0.6l-2.9,0.4l-3,0.3l-3,0.1h-3h-3l-3-0.1h-3h-3l-3,0.1l-3,0.2h-0.1"/>
<path class="st0" d="M384.2,166.6l-1,2.5l-1.1,2.7l-1.2,2.9l-1.3,2.9l-1.4,2.9l-1.5,2.8l-1.6,2.6l-1.7,2.3l-1.5,1.7"/>
<path class="st0" d="M353.9,75.9l3,0.7l2.8,1.1l2.5,1.5l2.2,1.8l2,2.1l1.8,2.4l1.5,2.6l1.3,2.7l1.1,2.9l1,2.9l0.8,3l0.6,3l0.5,3
	l0.4,2.9l0.3,2.9l0.4,3l0.5,3l0.6,2.9l0.6,2.9l0.7,2.9l0.7,2.9l0.7,2.9l0.7,3l0.6,3.1l0.5,3.1l0.3,3l0.1,3v2.9l-0.2,2.9l-0.3,2.9
	l-0.3,2.9l-0.4,2.9l-0.4,3l-0.5,3l-0.4,3.1l-0.1,0.7"/>
<path class="st0" d="M355.5,75.1l2.7,1.3l2.5,1.6l2.3,1.8l2.1,2.1l1.9,2.3l1.7,2.4l1.5,2.6l1.3,2.7l1.1,2.8l0.9,2.9l0.7,3l0.4,3
	l0.2,3l0.2,2.9l0.3,2.9l0.4,2.9l0.4,2.9l0.5,2.9l0.5,2.9l0.6,2.9l0.6,2.9l0.6,3l0.6,3l0.6,3l0.5,3l0.5,3l0.5,3l0.4,3l0.3,3l0.2,3
	l0.1,3v3v2"/>
<path class="st0" d="M337.7,75.1h-3.1l-3,0.1l-3,0.2l-3,0.3l-2.9,0.4l-2.9,0.5l-2.9,0.6l-2.9,0.7l-2.9,0.8l-2.9,0.9l-2.9,1l-2.9,0.9
	l-2.9,0.9l-2.9,0.8l-3,0.7l-3,0.7l-3,0.7l-3,0.6l-2.9,0.7l-2.9,0.7l-2.9,0.7l-2.8,0.8l-2.7,0.9l-0.2,0.1"/>
<path class="st0" d="M288.8,103l-1-2l-2-2.1l-2.6-2l-3-1.8l-3.1-1.6l-2.9-1.3l-2.4-0.9l-2.7-0.8l-2.9-0.7l-2.9-0.6l-3-0.5l-3-0.4
	l-3.1-0.3l-3.1-0.3l-3-0.2l-3-0.2l-2.9-0.3l-2.4-0.2l-2.5-0.2l-3-0.2l-3.3-0.1h-3.5l-3.5,0.2l-3.4,0.5l-3.2,0.7l-2.8,1.1l-2.3,1.5
	l-1.7,1.9l-0.9,2.4v2.9l0.2,0.9"/>
<path class="st0" d="M282.6,97.6l-2.1-1.9l-2.3-1.7l-2.5-1.5l-2.7-1.3l-2.8-1.1l-2.9-1l-3-0.8l-3.1-0.7l-3.1-0.5l-3.1-0.4l-3.1-0.3
	l-3.1-0.2l-3.1-0.1h-3h-3l-2.9,0.1l-2.8,0.1l-2.2,0.1l-2.1,0.2l-3.1,0.4l-3.7,0.6l-3.9,0.8l-3.6,1.1l-2.8,1.4l-1.5,1.8l0.2,2.2
	l0.9,1.2"/>
<path class="st0" d="M271,86.7l2.9,0.1h2.9l2.9-0.1l2.9-0.2l3-0.3l3-0.3l3-0.4l3-0.5l3-0.5l3-0.6l3-0.6l3-0.6l3-0.7l3-0.7l3-0.7
	l3-0.7l3-0.7l3-0.6l3-0.6l2.9-0.6l2.9-0.5l2.9-0.5l2.9-0.4l2.9-0.4h-2.7h-3h-3h-1.7"/>
<path class="st0" d="M364,79l2.4-0.3L369,78l2.7-1.1l2.8-1.4l2.8-1.7l2.8-1.8l2.7-1.9l2.6-1.9l2.5-1.8l2.3-1.7l2.2-1.7l2.4-1.9
	l2.4-1.9l2.4-1.8l2.3-1.9l2.3-1.9l2.3-1.9l2.3-1.9l2.2-1.9l2.2-2l2.2-2l2.2-2l2.1-2.1l2.1-2.1l2.1-2.2l2.1-2.3l2-2.2l2.1-2.2
	l2.1-2.2l2.2-2.2l2.2-2.2l2.3-2.1l2.3-2.1l2.4-2l2.4-2l2.4-1.9l2.5-1.8l2.5-1.7l2.5-1.6l2.5-1.5l2.6-1.4l2.6-1.2l2.6-1.1l2.6-0.9
	l2.6-0.8h0.2"/>
<path class="st0" d="M471.8,1.4h-2.9L466,1.7l-2.8,0.6l-2.8,0.9l-2.7,1.2l-2.6,1.4l-2.6,1.6L450,9.2l-2.5,1.9l-2.4,2l-2.4,2.1
	l-2.3,2.2l-2.2,2.2l-2.2,2.2l-2.1,2.2l-2,2.2l-2,2.1l-1.9,2l-1.2,1.2l-1.3,1.3l-1.5,1.6l-1.8,1.8l-2,2.1l-2.3,2.2l-2.4,2.4l-2.6,2.5
	l-2.7,2.6l-2.8,2.7l-2.9,2.7l-3,2.7l-3,2.7l-3,2.6l-3,2.5l-3,2.4l-2.9,2.3l-2.8,2.1l-2.7,1.9l-2.6,1.6l-2.4,1.3l-2.3,1l-2,0.7
	l-1.8,0.3l-1.5-0.1l-1.3-0.5l-0.6-0.5"/>
<path class="st0" d="M458.6,4.5l-2.7,0.7l-2.7,0.9l-2.7,1.1l-2.6,1.3l-2.6,1.5l-2.6,1.7l-2.5,1.8l-2.5,2l-2.4,2l-2.3,2.1l-2.3,2.2
	l-2.2,2.2l-2.1,2.2l-2,2.2l-1.9,2.2l-1.8,2.1l-1.8,2.1l-2,2.2l-2.1,2.1l-2.2,2.1l-2.2,2l-2.2,2l-2.2,2l-2.3,2l-2.2,2l-2.2,2l-2.2,2
	l-2.1,2.1l-2.1,2.1l-2.1,2.2l-2.1,2.2l-2.1,2.2l-2.2,2.1l-2.2,2l-2.3,1.9l-2.4,1.8l-2.5,1.7l-2.6,1.5l-2.7,1.3l-2.9,1l-0.5,0.2"/>
<path class="st0" d="M476.4,1.4l2.7,0.9l2.5,1.5l2.3,1.9l2.2,2.3l2,2.5l1.8,2.6l1.7,2.5l1.6,2.4l1.6,2.4l1.7,2.5l1.7,2.5l1.7,2.5
	l1.7,2.5l1.6,2.5l1.6,2.5l1.6,2.5l1.6,2.6l1.5,2.6l1.5,2.6l1.5,2.6l1.4,2.6l1.4,2.6l1.4,2.7l1.4,2.7l1.3,2.7l1.3,2.7l1.2,2.8
	l1.1,2.8l1,2.8l1,2.8l0.9,2.9l0.9,2.9l0.9,2.9l0.8,2.9l0.8,2.9l0.8,2.9l0.9,2.9l0.9,2.9l0.9,2.8l1,2.8l1,2.8l1.1,2.8l1.1,2.8
	l1.2,2.7l1.3,2.7l1.4,2.6l1.5,2.6l1.5,2.6l1.6,2.6l1.6,2.6l1.5,2.6l1.5,2.6l1.4,2.6l1.3,2.7l1.3,2.8l1.2,2.8l1.1,2.8l1,2.8l0.9,2.8
	l0.8,2.8l0.8,2.9l0.7,2.9l0.7,2.9l0.6,2.9l0.6,2.9l0.5,3l0.5,3l0.5,3l0.4,2.7l0.4,2.7l0.4,2.8l0.4,2.9l0.3,3l0.3,3.1l0.2,3.1
	l0.2,3.2l0.1,3.2v3.2l-0.1,3.2l-0.2,3.2l-0.3,3.1l-0.5,3.1l-0.6,3l-0.8,2.9l-0.9,2.8l-1.1,2.7l-1.3,2.6l-1.5,2.4l-1.7,2.3l-1.9,2.1
	l-2.1,1.9l-2.4,1.7l-2.1-0.9"/>
<path class="st0" d="M480.3,3l1.8,2.3l1.8,2.3l1.9,2.3l1.9,2.3l1.9,2.3l1.9,2.3l1.9,2.3l1.9,2.3l1.9,2.3l1.9,2.4l1.9,2.4l1.8,2.4
	l1.8,2.4l1.8,2.5l1.7,2.6l1.6,2.6l1.6,2.6l1.5,2.6l1.4,2.6l1.4,2.6l1.3,2.7l1.2,2.7l1.2,2.7l1.1,2.7l1.1,2.7l1,2.8l1,2.8l0.9,2.8
	l0.9,2.9l0.8,2.9l0.8,2.9l0.8,3l0.8,3l0.8,3l0.8,2.9l0.8,2.9l0.9,2.9l0.9,2.8l0.9,2.8l1,2.8l1,2.8l1.1,2.8l1.2,2.7l1.2,2.7l1.3,2.7
	l1.3,2.7l1.4,2.7l1.5,2.6l1.5,2.6l1.5,2.5l1.4,2.6l1.4,2.6l1.4,2.7l1.3,2.7l1.3,2.7l1.3,2.8l1.2,2.8l1.2,2.8l1.1,2.8l1.1,2.8l1,2.8
	l1,2.8l0.9,2.9l0.9,2.9l0.8,2.9l0.8,2.8l0.7,2.9l0.7,3l0.6,3l0.5,3l0.5,3l0.4,3l0.3,3l0.2,3l0.1,3v3l-0.1,3l-0.2,3l-0.3,3l-0.4,3
	l-0.4,2.2l-0.6,2.4l-0.9,2.9l-1.2,3.3l-1.4,3.5l-1.6,3.6l-1.7,3.4l-1.8,3.1l-1.9,2.5l-1.9,1.8l-1.9,0.9l-1.9-0.1l-0.6-0.3"/>
<path class="st0" d="M562.5,240.2l0.4,1.3l-1.4,1.6l-2.7,1.7l-3.5,1.8l-3.8,1.6l-3.6,1.4l-2.8,1l-2.2,0.6l-2.9,0.6l-3,0.4l-3,0.2
	l-3,0.1h-3l-3-0.2l-3-0.3l-3-0.4l-3-0.5l-3-0.6l-3-0.7l-2.9-0.8l-2.9-0.8l-2.9-0.9l-2.8-0.9l-2.8-0.9l-2.8-1l-2.8-1l-2.9-1l-2.9-1
	l-2.9-1l-2.8-1l-2.8-1l-2.8-1l-2.8-1l-2.8-1l-2.8-1l-2.8-1l-2.8-1l-2.8-1.1l-2.8-1.1l-2.8-1.1l-2.7-1.1l-2.7-1.2l-2.7-1.2l-2.7-1.3
	l-2.7-1.3l-2.6-1.3l-2.6-1.4l-2.6-1.5l-2.6-1.5l-2.6-1.6l-2.5-1.6l-2.5-1.7l-2.5-1.8l-2.4-1.8l-2.4-1.9l-1.7-1.3l-2.1-1.5l-2.6-1.7
	l-2.9-2l-3.1-2.1l-3.2-2.2l-3.1-2.2l-2.9-2.2l-2.5-2.1l-2.1-2l-1.4-1.7l-0.7-1.5v-0.2"/>
<path class="st0" d="M564.8,234.8l-0.9,3.1l-1.2,2.8l-1.5,2.5l-1.7,2.2l-2,1.9l-2.2,1.6l-2.4,1.3l-2.6,1.1l-2.7,0.9l-2.9,0.7l-3,0.5
	l-3.1,0.3l-3.2,0.1l-3.3-0.1l-3.3-0.2l-3.4-0.3l-3.4-0.5l-3.4-0.6l-3.4-0.7l-3.3-0.7l-3.3-0.8l-3.2-0.9l-3.1-0.9l-3-0.9l-2.9-0.9
	l-2.7-0.9l-2.5-0.9l-2.4-0.9l-2.2-0.8l-1.9-0.8l-2.7-1.1l-2.8-1.2l-2.8-1.2l-2.8-1.2l-2.8-1.2l-2.7-1.2l-2.7-1.2l-2.7-1.2l-2.7-1.3
	l-2.7-1.3l-2.7-1.3l-2.7-1.3l-2.7-1.3l-2.7-1.3l-2.7-1.4l-2.6-1.4l-2.6-1.4l-2.6-1.4l-2.6-1.4l-2.6-1.4l-2.6-1.5L426,213l-2.6-1.5
	l-2.6-1.5l-2.6-1.5l-2.6-1.6l-2.6-1.6l-2.5-1.5l-1.6-1l-2.2-1.4l-2.7-1.8l-3-2l-3.2-2.2l-3.2-2.3l-3.1-2.3l-2.9-2.3l-2.5-2.1
	l-1.9-1.9l-1.2-1.6l-0.4-1.3l0,0"/>
<path class="st0" d="M380.3,118.5l0.9-1.7l1.6-1.1l2.2-0.7l2.7-0.3l3.2,0.1l3.5,0.4l3.7,0.6l3.8,0.8l3.8,0.9l3.8,1l3.6,1.1l3.3,1
	l3,0.9l2.5,0.8l2,0.6l1.7,0.5l2.9,0.8l2.9,0.8l2.9,0.9l2.9,0.9l2.9,0.9l2.8,0.9l2.8,0.9l2.8,0.9l2.8,0.9l2.8,0.9l2.9,0.9l2.9,0.9
	l2.9,0.9l2.9,0.9l2.9,0.8l2.9,0.8l2.9,0.7l2.9,0.7l2.9,0.6l2.9,0.6l2.9,0.5l3,0.5l3,0.5l3,0.4l3,0.4l3,0.4l3,0.3l3,0.3l3,0.3
	l2.6,0.3l2.9,0.4l3.1,0.4l3.3,0.4l3.3,0.3l3.2,0.1l3-0.1l2.7-0.4l1.9-0.6"/>
<path class="st0" d="M416,118.5l2.3-0.6l2.7-0.3l3-0.1h3.2l3.3,0.1l3.3,0.1l3.2,0.1h3l2.7-0.1l3.1-0.3l3-0.4l3-0.6l2.9-0.7l2.9-0.8
	l2.9-0.8l2.8-0.9l2.8-0.9l2.8-0.9l2.8-0.9l2.8-0.9l2.8-0.9l2.9-0.9l2.9-0.8l2.9-0.7l2.9-0.7l-0.9-1h-0.1"/>
<path class="st0" d="M416,120.8l2.8-0.7l2.9-0.6l2.9-0.4l3-0.4l3-0.3l3-0.3l3-0.3l3-0.3l3-0.4l3-0.5l3-0.6l2.9-0.7l2.9-0.8l2.9-0.9
	l2.8-0.9l2.8-1l2.8-1l2.8-1l2.7-0.9l2.8-0.8l3.1-0.7l3.3-0.7l3.3-0.8l3.1-0.9l2.8-1.1l2.3-1.3l1.5-1.3"/>
<path class="st0" d="M537.7,144.8l-2.5-1.3l-2.9-0.5h-3.1l-3.1,0.2l-3,0.1l-3-0.1l-3-0.1l-3-0.2l-3-0.3l-3-0.4l-3-0.4l-3-0.5l-3-0.5
	l-3-0.6l-2.9-0.6l-2.9-0.6l-2.9-0.6l-2.9-0.7l-2.9-0.7l-2.9-0.7l-2.9-0.8l-2.9-0.8l-2.9-0.9l-2.9-0.9l-2.8-0.9l-2.8-1l-2.8-1l-2.8-1
	l-2.8-1l-2.8-1l-2.8-1l-2.8-1l-2.8-1l-2.8-1l-2.8-1l-2.8-1l-2.9-0.9l-2.9-0.9l-2.9-0.8l-2.8-0.8l-2.7-0.8l-2.8-0.8l-2.9-0.8l-3-0.8
	l-3-0.7l-3.1-0.6l-3.1-0.4l-3.1-0.2h-3l-3,0.3l-2.9,0.6l-2.8,1l-2.6,1.4l-0.4,0.3"/>
<path class="st0" d="M379.5,110.7l2.5-1.3l2.6-1.1l2.8-1l2.9-0.9l3-0.8l3-0.7l3.1-0.6l3.1-0.6l3.1-0.5l3.1-0.5l3-0.5l2.9-0.5
	l2.8-0.5l2.8-0.6l2.9-0.6l2.9-0.6l2.9-0.6l2.9-0.6l2.9-0.6l2.9-0.6l2.9-0.6l2.9-0.6l2.9-0.7l2.9-0.7l2.9-0.7L455,93l2.9-0.7l2.9-0.8
	l2.9-0.8l2.9-0.9l2.8-1l2.8-1.1l2.8-1.2l2.7-1.2l2.7-1.3l2.7-1.3l2.7-1.4l2.7-1.4l2.6-1.4l2.6-1.4l2.6-1.4l2.6-1.4l2.7-1.4l-0.5-1.2
	l-0.2,0.1"/>
<path class="st0" d="M383.4,113.8l2.5-1.3l2.6-1.3l2.6-1.2l2.7-1.1l2.8-1.1l2.8-1l2.9-1l2.9-0.9l2.9-0.9l3-0.9l3-0.8l3-0.8l3-0.8
	l3-0.8l3-0.7l3-0.7l3-0.7L435,97l2.9-0.7l2.9-0.7l2.8-0.7l2.8-0.7l2.9-0.8l2.9-0.8l2.9-0.8L458,91l2.9-0.8l2.9-0.8l2.8-0.8l2.8-0.9
	l2.8-0.9l2.8-1l2.8-1l2.8-1.1l2.8-1.2l2.8-1.3l2.7-1.3l2.4-1.2l2.9-1.4l3.3-1.6l3.2-1.7l2.8-1.8l1.9-1.8l0.7-1.7"/>
<path class="st0" d="M220.6,141.7l-3,0.5l-3,0.6l-2.9,0.8l-2.8,0.9l-2.8,1l-2.7,1.1l-2.7,1.2l-2.7,1.3l-2.6,1.4l-2.6,1.5l-2.6,1.5
	l-2.6,1.6l-2.6,1.6l-2.6,1.6L180,160l-2.6,1.6l-2.6,1.6l-2.6,1.5l-2.6,1.5l-2.6,1.5l-2.6,1.5l-2.6,1.4l-2.6,1.4l-2.6,1.4l-2.6,1.4
	l-2.6,1.4l-2.7,1.4L146,179l-2.7,1.4l-2.7,1.4l-2.7,1.4l-2.7,1.4l-2.7,1.3l-2.7,1.3l-2.7,1.3l-2.7,1.3l-2.7,1.3l-2.7,1.3l-2.7,1.3
	l-2.7,1.3l-2.7,1.3l-2.7,1.3l-2.7,1.2l-2.7,1.2l-2.7,1.2l-2.7,1.2l-2.7,1.2l-2.7,1.2l-2.7,1.2l-2.7,1.2l0.2-0.4l1.7-1.6"/>
<path class="st0" d="M186.5,153.4l-2.6-1.2l-2.7-0.9l-2.9-0.8l-3-0.6l-3-0.4l-3.1-0.3l-3.1-0.2l-3.1-0.1l-3.1-0.1h-3H154h-2.8h-2.7
	h-2.8h-2.9h-2.9l-3,0.1l-3,0.1l-3,0.1l-3.1,0.1l-3.1,0.2l-3.1,0.2l-3.1,0.2l-3.1,0.3l-3.1,0.3l-3.1,0.4l-3.1,0.4l-3.1,0.5l-3.1,0.5
	l-3.1,0.6l-3,0.6l-3,0.7l-3,0.7l-2.9,0.8l-2.9,0.9l-2.8,0.9l-2.8,1l-2.7,1.1l-2.6,1.1l-2.5,1.2l-2.5,1.3l0.2,0.5l2.8-1.1l0.4-0.3"/>
<path class="st0" d="M188.8,152.6l-2.1-1.3l-2.4-1.1l-2.7-0.9l-2.9-0.7l-3.1-0.5l-3.3-0.4l-3.3-0.3l-3.4-0.2l-3.3-0.1h-3.2H156h-2.9
	h-2.6h-2.7h-3l-3,0.1l-3,0.1l-3,0.1l-3,0.2l-3,0.2l-3,0.2l-3,0.3l-3,0.3l-3,0.3l-3,0.3l-3,0.4l-3,0.4l-2.9,0.4l-2.9,0.3l-2.9,0.3
	l-3,0.3l-3,0.3l-3.1,0.3l-3.1,0.4l-3.1,0.4l-3,0.5l-3,0.6l-2.9,0.8l-2.8,0.9l-2.8,1.1l-2.6,1.2l-2.5,1.4l-0.4,0.3"/>
<path class="st0" d="M223.7,144.8l-3-0.5l-3-0.2l-2.9,0.1l-2.9,0.4l-2.8,0.6l-2.8,0.8l-2.8,1l-2.8,1.2l-2.7,1.3l-2.7,1.4l-2.7,1.5
	l-2.7,1.5l-2.7,1.5l-2.7,1.5l-2.7,1.5l-2.6,1.4l-2.6,1.3l-2.7,1.2l-2.7,1.2l-2.7,1.3l-2.7,1.3l-2.7,1.3l-2.7,1.3l-2.7,1.3l-2.7,1.3
	l-2.7,1.4l-2.7,1.4l-2.7,1.4l-2.7,1.4l-2.7,1.4l-2.7,1.4l-2.7,1.4l-2.7,1.4l-2.7,1.4l-2.7,1.4l-2.7,1.4l-2.7,1.4l-2.7,1.4l-2.7,1.4
	l-2.7,1.4l-2.7,1.4l-2.7,1.4l-2.7,1.4l-2.7,1.4l-2.7,1.3l-2.7,1.3l-2.7,1.3l-2.7,1.3l-2.7,1.3l-2.7,1.3l-2.7,1.2l-2.7,1.2l-2.7,1.2
	l-2.8,1.2l-2.8,1.1l-2.5,1l2.3-1.3l1.4-1.1"/>
<path class="st0" d="M212.1,101.4l1.5-1.3l1.4,0.5l1.3,1l1.2,1.5l1.2,1.9l1.1,2.3l1,2.6l1,2.9l0.9,3.2l0.9,3.4l0.8,3.6l0.7,3.8
	l0.7,3.9l0.6,4l0.6,4l0.5,4l0.5,4l0.4,3.9l0.4,3.8l0.4,3.7l0.3,3.5l0.3,3.3l0.2,3l0.2,2.7l0.2,2.4l0.1,2l0.1,1.6l0.1,1.4l0.1,3.2
	v3.1l-0.1,3.1l-0.2,3l-0.3,3l-0.4,2.9l-0.6,2.9l-0.7,2.8l-0.9,2.7l-1.1,2.7l-1.3,2.6l-1.5,2.5l-1.7,2.4l-1.9,2.3l-2.2,2.2l-2.4,2.1
	l-2.3,1.9l-2.2,2l-2.2,2l-2.2,2l-2.2,2.1l-2.1,2.1l-2.1,2.1l-2.1,2.1L196,240l-2.1,2.2l-2.1,2.2l-2.1,2.2l-2.1,2.2l-2.1,2.2
	l-2.1,2.2l-2.1,2.2l-2.1,2.1l-2.1,2.1l-2.1,2.1l-2.2,2.1l-2.2,2l-2.1,1.9l-2.2,1.9l-2.3,1.9l-2.3,1.9l-2.4,1.9l-2.4,1.8l-2.5,1.8
	l-2.5,1.8l-2.5,1.7l-2.6,1.7l-2.6,1.7l-2.6,1.6L139,289l-2.6,1.6l-2.6,1.5l-2.6,1.5l-2.6,1.4l-2.6,1.4l-2.6,1.3l-2.6,1.3l-2.4,1.1
	l-1.5,0.7l-2,0.8l-2.4,1l-2.8,1.1l-3.1,1.2l-3.3,1.2l-3.5,1.2l-3.7,1.2l-3.8,1.1l-3.8,1l-3.8,0.9l-3.7,0.7l-3.5,0.5l-3.3,0.3h-3.1
	l-2.7-0.3L66,312l-1.9-1.1l-1.4-1.5l-0.9-1.9l-0.3-2.4v-0.9"/>
<path class="st0" d="M212.9,101.4l2,2l1.9,2.2l1.8,2.3l1.6,2.4l1.5,2.5l1.4,2.6l1.2,2.7l1.1,2.8l1,2.9l0.9,2.9l0.8,3l0.7,3l0.6,3.1
	l0.5,3.1l0.4,3.1l0.4,3.1l0.3,3.1l0.2,3.1l0.2,3l0.1,3l0.1,3v2.9v2.8l-0.1,2.8l-0.1,2.9l-0.2,3l-0.3,3l-0.4,3l-0.5,3l-0.6,2.9
	l-0.7,2.9l-0.7,2.9l-0.8,2.9l-0.9,2.8l-1,2.8l-1.1,2.8l-1.1,2.7l-1.2,2.7l-1.3,2.7l-1.3,2.6l-1.4,2.6l-1.5,2.6l-1.5,2.5l-1.6,2.5
	l-1.7,2.5l-1.7,2.4l-1.8,2.4l-1.8,2.4l-1.9,2.3l-1.9,2.3l-2,2.3l-2,2.2l-2.1,2.2l-2.1,2.2l-2.2,2.1l-2.2,2.1l-2.3,2.1l-2.3,2
	L183,258l-2.3,1.9l-2.3,1.9l-2.4,1.8l-2.4,1.8l-2.4,1.8l-2.4,1.8l-2.5,1.7l-2.5,1.7l-2.5,1.7l-2.5,1.7l-2.5,1.6l-2.5,1.6l-2.5,1.6
	l-2.5,1.6l-2.5,1.6l-2.5,1.5l-2.6,1.5l-2.6,1.4l-2.7,1.3l-2.7,1.3l-2.8,1.2l-2.8,1.1l-2.8,1.1l-2.8,1l-2.8,1l-2.9,1l-2.9,1l-2.9,0.9
	l-2.8,0.9l-2.8,0.9l-2.8,0.9l-2.8,1l-2.8,1l-2.9,1l-2.9,1l-2.9,1l-2.9,0.9l-2.9,0.8l-2.9,0.8l-2.9,0.7l-2.9,0.5l-2.9,0.4l-2.9,0.2
	l-2.9,0.1h-1"/>
<path class="st0" d="M229.1,171.2v2.8l-0.2,2.8l-0.4,2.8l-0.6,2.9l-0.8,2.9l-1,2.9l-1.1,2.8l-1.3,2.8l-1.4,2.8l-1.5,2.8l-1.6,2.7
	l-1.6,2.7l-1.7,2.7l-1.7,2.6l-1.7,2.5l-1.7,2.5l-1.7,2.4l-1.6,2.3l-1.6,2.3l-1.7,2.4l-1.8,2.4l-1.8,2.4l-1.8,2.4l-1.9,2.4l-1.9,2.3
	l-1.9,2.3l-1.9,2.3l-2,2.3l-2,2.2l-2,2.2l-2,2.2l-2.1,2.2l-2.1,2.1l-2.1,2.1l-2.2,2.1l-2.2,2l-2.2,2l-2.2,2l-2.3,1.9l-2.3,1.9
	l-2.3,1.9l-2.4,1.8l-2.4,1.8l-2.4,1.8l-2.4,1.7l-2.5,1.7l-2.5,1.7l-2.5,1.6l-2.6,1.6l-2.6,1.6l-2.6,1.5l-2.6,1.5L131,290l-2.7,1.4
	l-1.5,0.8"/>
<path class="st0" d="M29.1,41.7l-1.7-0.5l-1.6,0.1l-1.6,0.6L22.6,43l-1.5,1.5l-1.5,1.9l-1.4,2.3l-1.4,2.6l-1.3,2.9l-1.3,3.2L13,60.8
	l-1.2,3.6l-1.1,3.7l-1.1,3.8l-1,3.9l-1,4l-0.9,4l-0.8,3.9l-0.8,3.9l-0.7,3.7l-0.6,3.6l-0.6,3.4l-0.5,3.2l-0.4,2.9L1.9,111l-0.3,2.3
	l-0.2,1.9l-0.1,1.5L1.2,119l-0.1,3v3v3v3v3l0.1,3l0.1,3l0.1,3l0.2,3l0.2,3l0.2,3l0.2,3l0.3,3l0.3,3l0.3,3l0.4,3l0.4,3l0.4,3l0.5,3
	l0.5,3l0.6,3l0.4,2.5l0.4,2.6l0.4,2.8l0.4,2.9l0.4,3l0.4,3.1l0.5,3.2l0.5,3.2l0.6,3.3l0.6,3.3l0.7,3.2l0.8,3.2l0.9,3.1l1,3l1.1,2.9
	l1.2,2.8l1.3,2.6l1.5,2.4l1.6,2.2l1.8,2l1.9,1.7l0.3,0.2"/>
<path class="st0" d="M13.6,61.9l-0.5,2.9l-0.7,2.9l-0.8,2.9l-0.8,2.9l-0.7,3l-0.6,3l-0.5,3l-0.5,3l-0.4,3l-0.4,3l-0.3,3l-0.3,3
	l-0.2,3l-0.2,3l-0.1,3l-0.1,3v3v3v3l0.1,3l0.1,3l0.1,3l0.1,3l0.1,3l0.1,3l0.1,3l0.1,3l0.1,3l0.1,3l0.1,3l0.1,3l0.1,3l0.1,3l0.1,3
	l0.1,3l0.1,3l0.2,3l0.2,3l0.2,3l0.2,3l0.2,3l0.2,3l0.3,2.9l0.3,2.7l0.3,2.8l0.3,2.9l0.4,3l0.4,3.1l0.5,3.1l0.6,3.1l0.7,3.1l0.8,3.1
	l0.9,3l1,2.9l1.2,2.8l1.3,2.7l1.5,2.5l1.7,2.4l1.8,2.2l0.9,0.9"/>
<path class="st0" d="M3.5,108.4l-1,2.4l-0.8,2.6l-0.6,2.8l-0.5,3l-0.3,3.1l-0.2,3.2L0,128.8v3.3l0.1,3.3l0.1,3.3l0.2,3.2l0.2,3.1
	l0.2,3l0.2,2.8l0.2,2.6l0.1,2.5l0.2,3.1l0.2,3l0.3,3l0.4,3l0.4,3l0.5,3l0.5,2.9l0.6,2.9l0.6,2.9l0.7,2.9l0.7,2.9l0.7,2.9l0.8,2.9
	l0.8,2.9l0.8,2.9l0.8,2.9l0.8,2.9l0.8,2.9l0.9,2.9l0.9,2.9l0.9,2.9l0.9,2.9l0.9,2.9l0.9,2.9l0.8,2.9l0.8,2.9l0.8,2.9l0.5,1.7"/>
<path class="st0" d="M15.2,227.8l1.5,2.6l1.7,2.5l1.8,2.3l1.9,2.3l2,2.3l2,2.3l1.9,2.4l1.8,2.4l1.6,2.5l1.4,2.6l1.3,2.7l1.1,2.8
	l1,2.8l1,2.8l0.9,2.9l0.8,2.9l0.8,2.9l0.8,2.9l0.8,2.9l0.9,2.9v0.1"/>
<path class="st0" d="M26,231.7l0.8,2.8l0.9,2.8l1,2.8l1.1,2.8l1.2,2.7l1.2,2.7l1.3,2.7l1.3,2.7l1.3,2.7l1.2,2.8l1.2,2.8l1.1,2.8
	l1,2.8l0.9,2.9l0.8,2.9l0.5,2.2l0.5,2.1l0.6,2.6l0.7,2.9l0.8,3.2l0.9,3.4l1,3.5l1.2,3.6l1.3,3.5l1.4,3.4l1.5,3.1l1.7,2.8l1.8,2.4
	l1.9,1.9l2.1,1.4l2.2,0.7h2.3l2.5-0.9l0,0"/>
<path class="st0" d="M19.8,227.8l2.1,1.8l2,2l1.9,2.2l1.8,2.3l1.7,2.4l1.6,2.5l1.5,2.6l1.4,2.7l1.3,2.8l1.2,2.9l1.2,2.9l1.1,3l1,3
	l1,3l0.9,3l0.9,2.9l0.8,2.9l0.8,2.9l0.7,2.8l0.7,2.7l0.6,2.1l0.7,2.4l0.8,2.8l1,3.1l1.1,3.2l1.3,3.3l1.4,3.3l1.6,3.1l1.7,2.9
	l1.9,2.5l2.1,2.1l2.2,1.6l2.4,0.9l2.5,0.2l2.7-0.7l0.3-0.1"/>
<path class="st0" d="M30.7,38.6l-3-0.1l-2.2-0.3l2.9,0.3h3l3-0.2l3-0.2l3-0.2h3l3,0.2l3,0.2l3,0.3l3,0.3l3,0.4l3,0.4l3,0.5l3,0.5
	l3,0.5l3,0.6l2.9,0.6l2.9,0.6l2.9,0.7l2.9,0.7l2.9,0.7l2.9,0.8l2.9,0.8l2.9,0.8l2.9,0.8l2.9,0.8l2.9,0.9l3,0.9l2.9,0.9l2.9,0.9
	l2.9,0.9l2.9,0.9l2.8,0.9l2.8,0.9l2.8,0.9l2.8,0.9l2.8,1l2.8,1l2.8,1l2.7,1.1l2.7,1.1l2.7,1.1l2.7,1.2l2.7,1.2l2.7,1.3l2.7,1.3
	L161,71l2.7,1.5l2.7,1.5l2.5,1.5l2.2,1.2l2.5,1.2l2.7,1.2l2.8,1.2l2.9,1.2l3,1.2l3.1,1.3l3.1,1.3l3,1.4l3,1.4l2.9,1.5l2.7,1.6
	l2.5,1.7l2.3,1.8l2.1,1.9l1.8,2l1.5,2.1l-0.6,2.2l-1.9,0.1"/>
<path class="st0" d="M26,39.1l2.8,0.3l2.9-0.3l3,0.1l3.1,0.4l3.1,0.6l3,0.6l2.9,0.6l2.9,0.5l3,0.5l3,0.5l3,0.5l3,0.5l3,0.5l3,0.5
	l3,0.5l3,0.5l3,0.5l3,0.5l3,0.5l2.9,0.5l2.9,0.6l2.9,0.6l2.9,0.6l2.9,0.6l2.9,0.7l2.9,0.7l2.9,0.7l2.9,0.8l2.9,0.8l2.9,0.9l2.9,0.9
	l2.9,1l2.8,1l2.8,1l2.8,1.1l2.8,1.1l2.8,1.1l2.8,1.2l2.8,1.2l2.7,1.2l2.7,1.2l2.7,1.3l2.7,1.3l2.7,1.3l2.7,1.3l2.7,1.4l2.7,1.4
	l2.7,1.4l2.7,1.4l2.6,1.4l2.6,1.4l2.6,1.4l2.6,1.4l2.7,1.4l2.7,1.4l2.7,1.3l2.7,1.2l2.8,1.2l2.8,1.1l2.8,1.1l2.8,1.1l2.8,1.1
	l2.8,1.1l2.8,1.1l2.8,1.1l2.8,1.2"/>
<path class="st0" d="M27.9,39.5l2.8-0.2l2.9-0.1h2.9h2.9l3,0.1l3,0.2l3,0.2l3,0.3l3,0.3l3,0.4l3,0.4l3,0.5l3,0.5l3,0.6l3,0.6l3,0.7
	l3,0.7l3,0.7l3,0.8l3,0.8l3,0.8l2.9,0.8l2.9,0.9l2.9,0.9l2.8,0.9l2.8,0.9l2.8,0.9l2.7,0.9l2.7,0.9l2.6,0.9l2.8,1l2.8,1l2.8,1l2.8,1
	l2.8,1l2.8,1l2.8,1l2.8,1l2.8,1l2.8,1l2.8,1l2.8,1l2.8,1l2.8,1l2.8,1l2.8,1l2.8,1l2.8,1l2.8,1l2.8,1l2.8,1l2.8,1l2.8,1l2.5,1.1
	l2.5,1.4l2.5,1.7l2.6,1.9l2.6,2l2.6,2l2.6,1.8l2.6,1.6l2.6,1.3l2.6,0.8l2.4,0.3"/>
</svg>
