<?xml version="1.0" encoding="utf-8" ?>
<svg baseProfile="full" height="316" version="1.1" viewBox="0,0,570,316" width="570" xmlns="http://www.w3.org/2000/svg" xmlns:ev="http://www.w3.org/2001/xml-events" xmlns:xlink="http://www.w3.org/1999/xlink"><defs><style type="text/css"><![CDATA[
	.background { fill: white; }
	.line { stroke: firebrick; stroke-width: .1mm; }
	.blacksquare { fill: indigo; }
	.whitesquare { fill: white; }
]]></style></defs><path d="M 380.160000 112.596000 L 380.618000 112.394000 L 381.075000 112.193000 L 381.533000 111.991000 L 381.990000 111.790000 L 382.447000 111.586000 L 382.904000 111.383000 L 383.360000 111.179000 L 383.817000 110.976000 L 384.274000 110.774000 L 384.731000 110.571000 L 385.188000 110.369000 L 385.646000 110.168000 L 386.106000 109.972000 L 386.566000 109.777000 L 387.026000 109.581000 L 387.487000 109.387000 L 387.950000 109.198000 L 388.412000 109.010000 L 388.875000 108.821000 L 389.339000 108.634000 L 389.805000 108.454000 L 390.272000 108.274000 L 390.738000 108.094000 L 391.205000 107.916000 L 391.675000 107.745000 L 392.145000 107.574000 L 392.614000 107.403000 L 393.085000 107.235000 L 393.558000 107.073000 L 394.031000 106.912000 L 394.504000 106.750000 L 394.979000 106.593000 L 395.455000 106.442000 L 395.932000 106.291000 L 396.409000 106.140000 L 396.886000 105.993000 L 397.365000 105.850000 L 397.844000 105.707000 L 398.324000 105.565000 L 398.804000 105.426000 L 399.285000 105.290000 L 399.766000 105.155000 L 400.247000 105.020000 L 400.730000 104.888000 L 401.212000 104.758000 L 401.695000 104.629000 L 402.178000 104.500000 L 402.662000 104.373000 L 403.146000 104.249000 L 403.630000 104.125000 L 404.115000 104.001000 L 404.600000 103.880000 L 405.085000 103.761000 L 405.571000 103.642000 L 406.056000 103.522000 L 406.542000 103.405000 L 407.028000 103.290000 L 407.515000 103.174000 L 408.001000 103.058000 L 408.488000 102.945000 L 408.975000 102.832000 L 409.462000 102.719000 L 409.949000 102.606000 L 410.436000 102.496000 L 410.924000 102.388000 L 411.412000 102.279000 L 411.900000 102.171000 L 412.387000 102.058000 L 412.874000 101.944000 L 413.361000 101.829000 L 413.847000 101.715000 L 414.335000 101.607000 L 414.824000 101.500000 L 415.312000 101.393000 L 415.801000 101.287000 L 416.288000 101.176000 L 416.776000 101.065000 L 417.263000 100.954000 L 417.750000 100.843000 L 418.238000 100.732000 L 418.725000 100.621000 L 419.212000 100.510000 L 419.700000 100.398000 L 420.188000 100.291000 L 420.676000 100.185000 L 421.165000 100.078000 L 421.653000 99.971900 L 422.140000 99.859000 L 422.627000 99.745900 L 423.114000 99.632800 L 423.601000 99.519700 L 424.090000 99.415000 L 424.579000 99.310300 L 425.068000 99.205600 L 425.556000 99.100600 L 426.043000 98.988400 L 426.531000 98.876300 L 427.018000 98.764100 L 427.505000 98.652600 L 427.994000 98.547700 L 428.483000 98.442800 L 428.971000 98.337900 L 429.460000 98.232000 L 429.947000 98.119400 L 430.434000 98.006800 L 430.921000 97.894200 L 431.408000 97.782800 L 431.897000 97.676900 L 432.385000 97.571100 L 432.874000 97.465200 L 433.362000 97.357500 L 433.849000 97.242900 L 434.335000 97.128300 L 434.822000 97.013700 L 435.309000 96.901000 L 435.797000 96.793400 L 436.285000 96.685900 L 436.773000 96.578300 L 437.261000 96.469100 L 437.748000 96.356000 L 438.235000 96.243000 L 438.722000 96.129900 L 439.209000 96.017700 L 439.697000 95.907100 L 440.184000 95.796600 L 440.672000 95.686000 L 441.159000 95.574300 L 441.646000 95.460900 L 442.133000 95.347500 L 442.620000 95.234100 L 443.106000 95.119800 L 443.593000 95.004200 L 444.079000 94.888700 L 444.565000 94.773100 L 445.052000 94.656800 L 445.538000 94.539500 L 446.023000 94.422300 L 446.509000 94.305100 L 446.995000 94.185800 L 447.480000 94.064600 L 447.965000 93.943500 L 448.450000 93.822300 L 448.935000 93.701200 L 449.420000 93.580200 L 449.905000 93.459200 L 450.390000 93.338100 L 450.874000 93.214100 L 451.358000 93.088200 L 451.842000 92.962300 L 452.326000 92.836400 L 452.810000 92.712400 L 453.294000 92.589200 L 453.779000 92.466100 L 454.263000 92.342900 L 454.747000 92.216400 L 455.230000 92.088500 L 455.713000 91.960600 L 456.197000 91.832600 L 456.680000 91.705800 L 457.164000 91.579300 L 457.647000 91.452900 L 458.131000 91.326400 L 458.614000 91.196600 L 459.096000 91.066000 L 459.579000 90.935400 L 460.061000 90.804800 L 460.544000 90.672400 L 461.025000 90.539600 L 461.507000 90.406900 L 461.989000 90.274200 L 462.470000 90.137100 L 462.951000 89.999500 L 463.431000 89.861900 L 463.912000 89.724300 L 464.391000 89.581800 L 464.870000 89.439000 L 465.349000 89.296300 L 465.828000 89.153500 L 466.305000 89.004200 L 466.782000 88.854900 L 467.259000 88.705500 L 467.736000 88.555900 L 468.211000 88.399800 L 468.686000 88.243600 L 469.161000 88.087400 L 469.636000 87.930700 L 470.108000 87.767000 L 470.580000 87.603400 L 471.053000 87.439700 L 471.525000 87.275200 L 471.995000 87.104200 L 472.464000 86.933100 L 472.934000 86.762100 L 473.403000 86.590000 L 473.871000 86.412400 L 474.338000 86.234800 L 474.805000 86.057200 L 475.272000 85.878200 L 475.737000 85.693800 L 476.201000 85.509300 L 476.666000 85.324900 L 477.130000 85.138400 L 477.591000 84.946000 L 478.052000 84.753600 L 478.514000 84.561200 L 478.974000 84.366200 L 479.432000 84.164900 L 479.889000 83.963600 L 480.347000 83.762300 L 480.805000 83.561400 L 481.263000 83.361100 L 481.721000 83.160900 L 482.179000 82.960600 L 482.634000 82.755500 L 483.087000 82.542700 L 483.539000 82.329900 L 483.991000 82.117000 L 484.444000 81.905400 L 484.898000 81.695500 L 485.352000 81.485500 L 485.805000 81.275600 L 486.256000 81.060100 L 486.704000 80.838500 L 487.153000 80.616800 L 487.601000 80.395100 L 488.049000 80.174300 L 488.498000 79.954300 L 488.947000 79.734400 L 489.396000 79.514400 L 489.841000 79.286700 L 490.283000 79.053000 L 490.725000 78.819300 L 491.166000 78.585500 L 491.609000 78.352200 L 492.051000 78.119000 L 492.493000 77.885800 L 492.935000 77.652700 L 493.372000 77.410700 L 493.807000 77.163800 L 494.242000 76.917000 L 494.677000 76.670100 L 495.107000 76.415900 L 495.535000 76.158400 L 495.964000 75.900900 L 496.392000 75.643300 L 496.818000 75.380700 L 497.242000 75.116300 L 497.666000 74.851800 L 498.090000 74.587400 L 498.505000 74.308600 L 498.917000 74.025700 L 499.329000 73.742900 L 499.742000 73.460000 L 500.151000 73.172700 L 500.559000 72.884400 L 500.968000 72.596200 L 501.376000 72.307900 L 501.777000 72.009400 L 502.177000 71.709400 L 502.577000 71.409400 L 502.976000 71.109300 L 503.366000 70.795700 L 503.754000 70.480700 L 504.142000 70.165700 L 504.530000 69.850800 L 504.915000 69.531100 L 505.299000 69.211200 L 506.067000 68.571300" fill="none" stroke="black" stroke-width="1.0" /><path d="M 347.127000 176.338000 L 345.580000 177.558000 L 344.048000 178.797000 L 342.504000 180.020000 L 340.960000 181.244000 L 339.428000 182.484000 L 337.822000 183.623000 L 336.232000 184.787000 L 334.620000 185.920000 L 332.994000 187.032000 L 331.353000 188.123000 L 329.688000 189.175000 L 328.005000 190.199000 L 326.306000 191.197000 L 324.577000 192.142000 L 322.831000 193.053000 L 321.051000 193.897000 L 319.247000 194.689000 L 317.433000 195.458000 L 315.597000 196.171000 L 313.743000 196.838000 L 311.875000 197.465000 L 309.993000 198.045000 L 308.100000 198.590000 L 306.193000 199.087000 L 304.277000 199.545000 L 302.352000 199.966000 L 300.421000 200.356000 L 298.486000 200.723000 L 296.547000 201.074000 L 294.607000 201.417000 L 292.669000 201.770000 L 290.734000 202.141000 L 288.802000 202.527000 L 286.873000 202.928000 L 284.948000 203.345000 L 283.026000 203.778000 L 281.108000 204.228000 L 279.194000 204.696000 L 277.284000 205.179000 L 275.378000 205.679000 L 273.477000 206.194000 L 271.580000 206.726000 L 269.687000 207.274000 L 267.800000 207.838000 L 265.916000 208.415000 L 264.035000 209.002000 L 262.157000 209.596000 L 260.279000 210.194000 L 258.402000 210.790000 L 256.522000 211.381000 L 254.640000 211.962000 L 252.753000 212.530000 L 250.861000 213.079000 L 248.963000 213.606000 L 247.057000 214.104000 L 245.142000 214.567000 L 243.217000 214.984000 L 241.281000 215.350000 L 239.333000 215.644000 L 237.376000 215.870000 L 235.421000 216.107000 L 233.468000 216.370000 L 231.502000 216.378000 L 229.589000 216.053000 L 227.756000 215.562000 L 226.062000 214.620000 L 224.477000 213.468000 L 223.003000 212.165000 L 221.571000 210.813000 L 220.171000 209.428000" fill="none" stroke="black" stroke-width="1.0" /><path d="M 353.839000 75.416200 L 354.299000 75.608800 L 354.760000 75.801500 L 355.221000 75.994100 L 355.681000 76.187100 L 356.133000 76.401200 L 356.584000 76.615200 L 357.035000 76.829200 L 357.486000 77.043800 L 357.930000 77.272800 L 358.373000 77.501700 L 358.817000 77.730700 L 359.260000 77.961100 L 359.691000 78.213100 L 360.123000 78.465100 L 360.554000 78.717100 L 360.982000 78.972700 L 361.387000 79.264900 L 361.792000 79.557100 L 362.197000 79.849200 L 362.600000 80.144800 L 362.980000 80.468500 L 363.360000 80.792200 L 363.741000 81.115900 L 364.118000 81.442300 L 364.480000 81.786600 L 364.842000 82.130800 L 365.204000 82.475000 L 365.561000 82.823200 L 365.895000 83.195000 L 366.228000 83.566700 L 366.562000 83.938400 L 366.891000 84.313700 L 367.197000 84.708300 L 367.503000 85.102900 L 367.809000 85.497400 L 368.111000 85.895500 L 368.388000 86.310600 L 368.666000 86.725700 L 368.944000 87.140800 L 369.217000 87.558300 L 369.473000 87.987600 L 369.728000 88.416800 L 369.983000 88.846000 L 370.234000 89.277800 L 370.462000 89.721700 L 370.691000 90.165600 L 370.920000 90.609400 L 371.145000 91.055100 L 371.354000 91.509000 L 371.562000 91.962900 L 371.770000 92.416800 L 371.974000 92.872600 L 372.157000 93.337300 L 372.340000 93.801900 L 372.523000 94.266600 L 372.702000 94.732700 L 372.862000 95.205600 L 373.022000 95.678600 L 373.183000 96.151500 L 373.340000 96.625500 L 373.480000 97.104700 L 373.621000 97.583900 L 373.761000 98.063100 L 373.899000 98.543200 L 374.021000 99.027500 L 374.142000 99.511800 L 374.264000 99.996100 L 374.383000 100.481000 L 374.488000 100.969000 L 374.592000 101.458000 L 374.697000 101.946000 L 374.798000 102.435000 L 374.879000 102.928000 L 374.961000 103.420000 L 375.042000 103.913000 L 375.123000 104.406000 L 375.198000 104.900000 L 375.273000 105.393000 L 375.348000 105.887000 L 375.420000 106.381000 L 375.481000 106.877000 L 375.542000 107.372000 L 375.604000 107.868000 L 375.664000 108.364000 L 375.723000 108.860000 L 375.781000 109.356000 L 375.840000 109.852000 L 375.899000 110.347000 L 375.960000 110.843000 L 376.021000 111.339000 L 376.083000 111.834000 L 376.145000 112.330000 L 376.211000 112.825000 L 376.277000 113.320000 L 376.343000 113.815000 L 376.410000 114.310000 L 376.480000 114.804000 L 376.550000 115.299000 L 376.620000 115.793000 L 376.691000 116.287000 L 376.770000 116.780000 L 376.849000 117.274000 L 376.928000 117.767000 L 377.007000 118.260000 L 377.092000 118.752000 L 377.176000 119.244000 L 377.260000 119.736000 L 377.346000 120.228000 L 377.436000 120.719000 L 377.527000 121.211000 L 377.617000 121.702000 L 377.709000 122.193000 L 377.808000 122.682000 L 377.907000 123.171000 L 378.006000 123.661000 L 378.105000 124.150000 L 378.204000 124.640000 L 378.303000 125.129000 L 378.403000 125.619000 L 378.503000 126.108000 L 378.609000 126.596000 L 378.716000 127.084000 L 378.822000 127.572000 L 378.929000 128.060000 L 379.033000 128.548000 L 379.137000 129.036000 L 379.242000 129.525000 L 379.346000 130.013000 L 379.450000 130.501000 L 379.554000 130.990000 L 379.659000 131.478000 L 379.762000 131.967000 L 379.865000 132.455000 L 379.967000 132.944000 L 380.070000 133.433000 L 380.171000 133.922000 L 380.271000 134.411000 L 380.370000 134.901000 L 380.469000 135.390000 L 380.567000 135.880000 L 380.661000 136.370000 L 380.754000 136.861000 L 380.847000 137.352000 L 380.939000 137.842000 L 381.024000 138.334000 L 381.110000 138.827000 L 381.195000 139.319000 L 381.278000 139.811000 L 381.355000 140.304000 L 381.432000 140.798000 L 381.509000 141.291000 L 381.584000 141.785000 L 381.654000 142.279000 L 381.724000 142.774000 L 381.793000 143.268000 L 381.860000 143.763000 L 381.918000 144.259000 L 381.976000 144.755000 L 382.035000 145.251000 L 382.092000 145.747000 L 382.147000 146.244000 L 382.203000 146.740000 L 382.258000 147.236000 L 382.307000 147.733000 L 382.341000 148.231000 L 382.376000 148.730000 L 382.410000 149.228000 L 382.436000 149.726000 L 382.446000 150.226000 L 382.457000 150.725000 L 382.467000 151.224000 L 382.478000 151.723000 L 382.488000 152.223000 L 382.499000 152.722000 L 382.509000 153.221000 L 382.501000 153.720000 L 382.473000 154.219000 L 382.444000 154.717000 L 382.415000 155.216000 L 382.388000 155.714000 L 382.362000 156.213000 L 382.336000 156.712000 L 382.310000 157.211000 L 382.267000 157.708000 L 382.212000 158.204000 L 382.157000 158.701000 L 382.102000 159.197000 L 382.034000 159.692000 L 381.960000 160.186000 L 381.886000 160.679000 L 381.812000 161.173000 L 381.745000 161.668000 L 381.680000 162.163000 L 381.615000 162.658000 L 381.550000 163.154000 L 381.468000 163.646000 L 381.383000 164.138000 L 381.297000 164.630000 L 381.212000 165.122000 L 381.113000 165.612000 L 381.013000 166.101000 L 380.912000 166.590000 L 380.812000 167.079000 L 380.698000 167.565000 L 380.584000 168.052000 L 380.470000 168.538000 L 380.355000 169.024000 L 380.225000 169.506000 L 380.096000 169.988000 L 379.966000 170.471000 L 379.836000 170.953000 L 379.704000 171.434000 L 379.571000 171.916000 L 379.438000 172.397000 L 379.300000 172.877000 L 379.148000 173.353000 L 378.996000 173.828000 L 378.843000 174.304000 L 378.677000 174.774000 L 378.491000 175.238000 L 378.305000 175.701000 L 378.119000 176.165000 L 377.923000 176.624000 L 377.719000 177.080000 L 377.514000 177.535000 L 377.310000 177.991000 L 377.096000 178.442000 L 376.878000 178.891000 L 376.660000 179.340000 L 376.441000 179.790000 L 376.201000 180.227000 L 375.953000 180.661000 L 375.706000 181.095000 L 375.459000 181.528000 L 375.192000 181.951000 L 374.924000 182.372000 L 374.655000 182.793000 L 374.386000 183.213000 L 374.093000 183.618000 L 373.800000 184.022000 L 373.507000 184.427000 L 373.210000 184.828000 L 372.889000 185.211000 L 372.569000 185.594000 L 372.249000 185.977000 L 371.928000 186.360000 L 371.608000 186.743000 L 371.288000 187.127000 L 370.930000 187.473000 L 370.555000 187.803000 L 370.180000 188.133000 L 369.805000 188.463000 L 369.430000 188.793000 L 369.055000 189.122000 L 368.680000 189.452000 L 368.293000 189.767000 L 367.891000 190.063000 L 367.490000 190.360000 L 367.088000 190.657000 L 366.674000 190.935000 L 366.251000 191.200000 L 365.827000 191.465000 L 365.404000 191.730000 L 364.968000 191.974000 L 364.527000 192.207000 L 364.085000 192.440000 L 363.644000 192.674000 L 363.194000 192.891000 L 362.742000 193.103000 L 362.290000 193.316000 L 361.838000 193.528000 L 361.372000 193.705000 L 360.901000 193.873000 L 360.431000 194.041000 L 359.961000 194.209000 L 359.486000 194.363000 L 359.010000 194.516000 L 358.535000 194.668000 L 358.059000 194.820000 L 357.585000 194.976000 L 357.111000 195.133000 L 356.636000 195.290000 L 356.161000 195.441000 L 355.671000 195.539000 L 355.181000 195.637000 L 354.692000 195.735000 L 354.201000 195.826000 L 353.705000 195.886000 L 353.209000 195.945000 L 352.714000 196.005000 L 352.217000 196.061000 L 351.720000 196.104000 L 351.222000 196.146000 L 350.725000 196.189000 L 350.227000 196.229000 L 349.728000 196.256000 L 349.230000 196.284000 L 348.731000 196.311000 L 348.232000 196.336000 L 347.733000 196.348000 L 347.234000 196.361000 L 346.735000 196.373000 L 346.235000 196.384000 L 345.736000 196.387000 L 345.237000 196.390000 L 344.737000 196.393000 L 344.238000 196.395000 L 343.739000 196.389000 L 343.239000 196.383000 L 342.740000 196.378000 L 342.241000 196.371000 L 341.741000 196.359000 L 341.242000 196.347000 L 340.743000 196.335000 L 340.244000 196.323000 L 339.744000 196.307000 L 339.245000 196.291000 L 338.746000 196.274000 L 338.247000 196.258000 L 337.748000 196.240000 L 337.249000 196.222000 L 336.750000 196.204000 L 336.251000 196.186000 L 335.752000 196.167000 L 335.253000 196.148000 L 334.754000 196.129000 L 334.255000 196.110000 L 333.756000 196.092000 L 333.257000 196.074000 L 332.758000 196.056000 L 332.258000 196.039000 L 331.759000 196.026000 L 331.260000 196.013000 L 330.761000 196.001000 L 330.262000 195.988000 L 329.762000 195.978000 L 329.263000 195.968000 L 328.764000 195.957000 L 328.264000 195.947000 L 327.765000 195.937000 L 327.266000 195.927000 L 326.767000 195.917000 L 326.267000 195.908000 L 325.768000 195.905000 L 325.269000 195.903000 L 324.769000 195.901000 L 324.270000 195.899000 L 323.770000 195.904000 L 323.271000 195.908000 L 322.772000 195.913000 L 322.272000 195.917000" fill="none" stroke="black" stroke-width="1.0" /><path d="M 342.103000 75.309500 L 340.163000 75.536900 L 338.223000 75.754600 L 336.278000 75.918800 L 334.334000 76.095500 L 332.392000 76.296400 L 330.452000 76.522400 L 328.516000 76.774200 L 326.584000 77.051500 L 324.655000 77.354600 L 322.731000 77.684000 L 320.812000 78.041100 L 318.898000 78.426300 L 316.989000 78.837700 L 315.086000 79.272700 L 313.188000 79.728700 L 311.294000 80.203300 L 309.404000 80.694000 L 307.518000 81.196700 L 305.633000 81.704600 L 303.748000 82.212900 L 301.863000 82.722000 L 299.979000 83.235800 L 298.094000 83.743500 L 296.204000 84.233700 L 294.311000 84.708500 L 292.413000 85.168100 L 290.513000 85.616900 L 288.611000 86.055800 L 286.705000 86.480100 L 284.797000 86.894300 L 282.892000 87.321400 L 280.996000 87.786400 L 279.097000 88.236500 L 277.190000 88.657600 L 275.278000 89.052200 L 273.368000 89.456300 L 271.459000 89.865400 L 269.552000 90.284000" fill="none" stroke="black" stroke-width="1.0" /><path d="M 288.597000 103.478000 L 287.297000 102.045000 L 286.001000 100.608000 L 284.656000 99.216900 L 283.218000 97.921800 L 281.722000 96.695600 L 280.167000 95.543200 L 278.530000 94.513200 L 276.874000 93.511200 L 275.173000 92.588800 L 273.417000 91.779000 L 271.627000 91.043200 L 269.809000 90.381200 L 267.964000 89.797600 L 266.100000 89.278400 L 264.221000 88.818700 L 262.328000 88.414000 L 260.427000 88.055600 L 258.517000 87.746600 L 256.599000 87.484900 L 254.677000 87.260000 L 252.752000 87.065200 L 250.824000 86.897400 L 248.894000 86.755700 L 246.963000 86.637900 L 245.030000 86.538500 L 243.097000 86.457500 L 241.163000 86.384100 L 239.229000 86.314600 L 237.294000 86.275200 L 235.359000 86.262800 L 233.424000 86.280300 L 231.490000 86.345100 L 229.557000 86.423100 L 227.626000 86.553400 L 225.703000 86.766300 L 223.784000 87.013800 L 221.873000 87.318300 L 219.984000 87.736400 L 218.128000 88.281200 L 216.323000 88.974800 L 214.599000 89.849900 L 213.113000 91.072200 L 211.853000 92.459300 L 210.768000 94.023400 L 210.181000 95.830900 L 209.656000 97.671400" fill="none" stroke="black" stroke-width="1.0" /><path d="M 471.944000 0.926895 L 470.000000 1.334720 L 468.061000 1.759780 L 466.125000 2.203260 L 464.222000 2.770790 L 462.333000 3.381530 L 460.484000 4.103800 L 458.660000 4.890300 L 456.843000 5.691270 L 455.056000 6.556720 L 453.291000 7.465360 L 451.559000 8.435660 L 449.849000 9.444930 L 448.173000 10.510700 L 446.536000 11.633700 L 444.922000 12.790400 L 443.345000 13.996700 L 441.784000 15.224700 L 440.253000 16.488100 L 438.742000 17.777000 L 437.256000 19.093500 L 435.790000 20.433200 L 434.344000 21.793200 L 432.915000 23.172100 L 431.502000 24.566900 L 430.103000 25.976000 L 428.715000 27.396500 L 427.338000 28.826700 L 425.968000 30.264200 L 424.603000 31.706200 L 423.240000 33.150200 L 421.876000 34.593300 L 420.507000 36.031600 L 419.131000 37.462300 L 417.743000 38.882800 L 416.343000 40.290300 L 414.930000 41.685900 L 413.505000 43.068800 L 412.070000 44.440500 L 410.624000 45.802000 L 409.170000 47.154300 L 407.709000 48.498700 L 406.241000 49.836100 L 404.768000 51.167400 L 403.291000 52.494100 L 401.811000 53.817900 L 400.329000 55.139600 L 398.847000 56.461000 L 397.366000 57.783400 L 395.883000 59.104100 L 394.403000 60.427900 L 392.917000 61.744500 L 391.433000 63.064300 L 389.937000 64.369800 L 388.442000 65.676100 L 386.928000 66.960300 L 385.425000 68.258200 L 383.900000 69.529700 L 382.359000 70.782000 L 380.784000 71.990100 L 379.180000 73.160400 L 377.526000 74.255900 L 375.835000 75.298300 L 374.071000 76.198000 L 372.299000 77.090600 L 370.471000 77.852100 L 368.637000 78.610000 L 366.757000 79.244600 L 364.876000 79.879200 L 362.980000 80.468500" fill="none" stroke="black" stroke-width="1.0" /><path d="M 476.798000 0.782774 L 477.195000 1.086330 L 477.592000 1.389880 L 477.989000 1.693430 L 478.386000 1.997510 L 478.755000 2.334570 L 479.124000 2.671620 L 479.493000 3.008680 L 479.861000 3.346830 L 480.199000 3.714820 L 480.537000 4.082810 L 480.875000 4.450800 L 481.216000 4.816320 L 481.592000 5.144770 L 481.969000 5.473230 L 482.345000 5.801690 L 482.720000 6.132680 L 483.067000 6.491730 L 483.415000 6.850780 L 483.763000 7.209820 L 484.111000 7.568490 L 484.462000 7.923960 L 484.813000 8.279430 L 485.164000 8.634910 L 485.514000 8.992320 L 485.849000 9.362930 L 486.184000 9.733540 L 486.519000 10.104100 L 486.852000 10.476800 L 487.172000 10.861300 L 487.491000 11.245800 L 487.810000 11.630200 L 488.129000 12.015200 L 488.444000 12.402800 L 488.760000 12.790400 L 489.075000 13.178000 L 489.390000 13.566400 L 489.700000 13.958100 L 490.010000 14.349800 L 490.321000 14.741600 L 490.629000 15.134900 L 490.929000 15.534400 L 491.229000 15.933900 L 491.530000 16.333300 L 491.831000 16.732100 L 492.135000 17.128600 L 492.439000 17.525100 L 492.743000 17.921600 L 493.048000 18.318100 L 493.352000 18.714600 L 493.656000 19.111100 L 493.960000 19.507500 L 494.263000 19.905600 L 494.559000 20.307700 L 494.856000 20.709800 L 495.153000 21.112000 L 495.452000 21.512400 L 495.756000 21.908400 L 496.061000 22.304400 L 496.366000 22.700400 L 496.666000 23.100100 L 496.954000 23.508500 L 497.242000 23.916800 L 497.530000 24.325200 L 497.821000 24.731900 L 498.116000 25.135100 L 498.411000 25.538400 L 498.706000 25.941700 L 499.001000 26.344800 L 499.297000 26.747800 L 499.593000 27.150800 L 499.888000 27.553700 L 500.181000 27.958700 L 500.469000 28.367200 L 500.757000 28.775700 L 501.045000 29.184200 L 501.334000 29.591700 L 501.625000 29.997600 L 501.917000 30.403600 L 502.208000 30.809600 L 502.496000 31.218300 L 502.777000 31.631200 L 503.059000 32.044000 L 503.341000 32.456900 L 503.622000 32.869800 L 503.904000 33.282700 L 504.185000 33.695600 L 504.467000 34.108500 L 504.747000 34.522400 L 505.025000 34.937600 L 505.303000 35.352800 L 505.581000 35.768000 L 505.857000 36.185000 L 506.129000 36.604200 L 506.401000 37.023400 L 506.673000 37.442600 L 506.943000 37.862800 L 507.212000 38.283900 L 507.481000 38.705100 L 507.750000 39.126300 L 508.016000 39.549300 L 508.279000 39.974300 L 508.542000 40.399300 L 508.805000 40.824300 L 509.066000 41.250600 L 509.325000 41.678000 L 509.584000 42.105500 L 509.843000 42.533000 L 510.099000 42.961900 L 510.354000 43.392000 L 510.608000 43.822100 L 510.862000 44.252300 L 511.114000 44.683900 L 511.364000 45.116800 L 511.614000 45.549600 L 511.864000 45.982500 L 512.111000 46.416800 L 512.356000 46.852300 L 512.601000 47.287700 L 512.846000 47.723200 L 513.089000 48.160000 L 513.330000 48.597800 L 513.571000 49.035600 L 513.812000 49.473300 L 514.050000 49.913100 L 514.284000 50.354300 L 514.519000 50.795500 L 514.754000 51.236700 L 514.987000 51.678900 L 515.218000 52.121900 L 515.449000 52.564800 L 515.681000 53.007700 L 515.908000 53.452700 L 516.134000 53.898800 L 516.359000 54.345000 L 516.584000 54.791200 L 516.804000 55.240000 L 517.020000 55.690300 L 517.237000 56.140500 L 517.454000 56.590800 L 517.671000 57.040700 L 517.889000 57.490500 L 518.107000 57.940300 L 518.325000 58.390100 L 518.536000 58.843000 L 518.744000 59.297500 L 518.952000 59.751900 L 519.160000 60.206400 L 519.368000 60.660900 L 519.575000 61.115300 L 519.783000 61.569800 L 519.991000 62.024300 L 520.193000 62.481500 L 520.392000 62.939700 L 520.592000 63.397900 L 520.791000 63.856100 L 520.982000 64.318200 L 521.168000 64.781700 L 521.355000 65.245200 L 521.542000 65.708700 L 521.731000 66.171500 L 521.920000 66.634000 L 522.109000 67.096600 L 522.299000 67.559100 L 522.477000 68.025700 L 522.653000 68.493500 L 522.829000 68.961400 L 523.005000 69.429200 L 523.177000 69.898100 L 523.350000 70.367200 L 523.522000 70.836400 L 523.694000 71.305600 L 523.859000 71.777100 L 524.023000 72.249300 L 524.187000 72.721500 L 524.350000 73.193600 L 524.506000 73.668600 L 524.659000 74.144200 L 524.813000 74.619900 L 524.966000 75.095500 L 525.121000 75.570800 L 525.275000 76.046000 L 525.430000 76.521200 L 525.585000 76.996400 L 525.731000 77.474100 L 525.876000 77.952300 L 526.022000 78.430500 L 526.167000 78.908700 L 526.315000 79.386000 L 526.463000 79.863200 L 526.612000 80.340400 L 526.760000 80.817500 L 526.903000 81.296400 L 527.045000 81.775600 L 527.187000 82.254800 L 527.329000 82.734000 L 527.464000 83.215000 L 527.599000 83.696300 L 527.734000 84.177600 L 527.868000 84.658900 L 528.005000 85.139400 L 528.143000 85.619900 L 528.280000 86.100300 L 528.418000 86.580800 L 528.552000 87.062300 L 528.685000 87.543900 L 528.819000 88.025500 L 528.952000 88.507100 L 529.087000 88.988300 L 529.222000 89.469500 L 529.357000 89.950600 L 529.492000 90.431800 L 529.627000 90.912900 L 529.762000 91.394000 L 529.898000 91.875100 L 530.033000 92.356200 L 530.169000 92.837000 L 530.306000 93.317800 L 530.442000 93.798500 L 530.578000 94.279300 L 530.720000 94.758600 L 530.861000 95.237900 L 531.003000 95.717200 L 531.145000 96.196400 L 531.288000 96.675300 L 531.431000 97.154100 L 531.574000 97.633000 L 531.717000 98.111800 L 531.868000 98.588300 L 532.019000 99.064700 L 532.169000 99.541100 L 532.320000 100.018000 L 532.473000 100.493000 L 532.626000 100.969000 L 532.780000 101.445000 L 532.933000 101.920000 L 533.090000 102.395000 L 533.247000 102.869000 L 533.404000 103.344000 L 533.562000 103.818000 L 533.726000 104.290000 L 533.891000 104.762000 L 534.055000 105.234000 L 534.220000 105.705000 L 534.387000 106.177000 L 534.553000 106.648000 L 534.720000 107.119000 L 534.888000 107.590000 L 535.066000 108.057000 L 535.243000 108.524000 L 535.421000 108.991000 L 535.599000 109.458000 L 535.780000 109.924000 L 535.961000 110.389000 L 536.142000 110.855000 L 536.323000 111.321000 L 536.510000 111.785000 L 536.696000 112.248000 L 536.883000 112.712000 L 537.071000 113.175000 L 537.267000 113.635000 L 537.463000 114.094000 L 537.658000 114.554000 L 537.855000 115.014000 L 538.054000 115.472000 L 538.254000 115.930000 L 538.454000 116.388000 L 538.656000 116.845000 L 538.868000 117.298000 L 539.080000 117.750000 L 539.291000 118.203000 L 539.504000 118.655000 L 539.719000 119.106000 L 539.934000 119.557000 L 540.149000 120.009000 L 540.366000 120.459000 L 540.589000 120.906000 L 540.812000 121.353000 L 541.035000 121.800000 L 541.260000 122.247000 L 541.492000 122.690000 L 541.723000 123.133000 L 541.955000 123.575000 L 542.186000 124.018000 L 542.419000 124.461000 L 542.651000 124.903000 L 542.883000 125.346000 L 543.119000 125.786000 L 543.363000 126.222000 L 543.608000 126.658000 L 543.852000 127.094000 L 544.096000 127.530000 L 544.340000 127.966000 L 544.584000 128.402000 L 544.829000 128.838000 L 545.073000 129.274000 L 545.320000 129.709000 L 545.567000 130.143000 L 545.813000 130.578000 L 546.060000 131.012000 L 546.308000 131.446000 L 546.556000 131.880000 L 546.804000 132.314000 L 547.051000 132.749000 L 547.297000 133.184000 L 547.542000 133.619000 L 547.788000 134.054000 L 548.033000 134.490000 L 548.277000 134.926000 L 548.521000 135.362000 L 548.765000 135.798000 L 549.007000 136.236000 L 549.245000 136.675000 L 549.484000 137.114000 L 549.723000 137.552000 L 549.960000 137.993000 L 550.193000 138.435000 L 550.426000 138.877000 L 550.659000 139.319000 L 550.890000 139.762000 L 551.117000 140.207000 L 551.345000 140.652000 L 551.573000 141.097000 L 551.799000 141.543000 L 552.022000 141.990000 L 552.246000 142.437000 L 552.469000 142.884000 L 552.688000 143.333000 L 552.902000 143.784000 L 553.117000 144.236000 L 553.331000 144.687000 L 553.544000 145.139000 L 553.755000 145.592000 L 553.967000 146.045000 L 554.179000 146.498000 L 554.386000 146.952000 L 554.589000 147.409000 L 554.792000 147.866000 L 554.995000 148.322000 L 555.195000 148.780000 L 555.392000 149.239000 L 555.590000 149.699000 L 555.787000 150.158000 L 555.983000 150.617000 L 556.179000 151.077000 L 556.375000 151.537000 L 556.571000 151.996000 L 556.756000 152.461000 L 556.934000 152.927000 L 557.112000 153.394000 L 557.290000 153.861000 L 557.471000 154.328000 L 557.652000 154.793000 L 557.833000 155.259000 L 558.015000 155.724000 L 558.186000 156.194000 L 558.352000 156.666000 L 558.517000 157.137000 L 558.683000 157.609000 L 558.847000 158.081000 L 559.010000 158.553000 L 559.173000 159.025000 L 559.337000 159.498000 L 559.505000 159.968000 L 559.676000 160.438000 L 559.846000 160.908000 L 560.017000 161.377000 L 560.166000 161.854000 L 560.307000 162.334000 L 560.447000 162.813000 L 560.588000 163.293000 L 560.737000 163.770000 L 560.888000 164.246000 L 561.039000 164.722000 L 561.191000 165.199000 L 561.328000 165.679000 L 561.461000 166.161000 L 561.593000 166.643000 L 561.726000 167.125000 L 561.856000 167.607000 L 561.986000 168.090000 L 562.116000 168.572000 L 562.246000 169.055000 L 562.379000 169.537000 L 562.512000 170.018000 L 562.646000 170.500000 L 562.779000 170.981000 L 562.896000 171.467000 L 563.010000 171.954000 L 563.123000 172.440000 L 563.237000 172.927000 L 563.355000 173.413000 L 563.475000 173.898000 L 563.594000 174.383000 L 563.713000 174.868000 L 563.822000 175.356000 L 563.929000 175.844000 L 564.036000 176.333000 L 564.143000 176.821000 L 564.249000 177.309000 L 564.354000 177.798000 L 564.460000 178.286000 L 564.565000 178.775000 L 564.671000 179.263000 L 564.776000 179.752000 L 564.881000 180.240000 L 564.986000 180.729000 L 565.082000 181.219000 L 565.177000 181.710000 L 565.272000 182.201000 L 565.367000 182.691000 L 565.462000 183.182000 L 565.557000 183.672000 L 565.651000 184.163000 L 565.746000 184.654000 L 565.833000 185.146000 L 565.920000 185.638000 L 566.007000 186.130000 L 566.094000 186.622000 L 566.177000 187.115000 L 566.259000 187.608000 L 566.342000 188.101000 L 566.424000 188.594000 L 566.502000 189.088000 L 566.580000 189.581000 L 566.658000 190.075000 L 566.735000 190.569000 L 566.806000 191.063000 L 566.877000 191.558000 L 566.948000 192.053000 L 567.018000 192.547000 L 567.084000 193.043000 L 567.150000 193.538000 L 567.216000 194.034000 L 567.281000 194.529000 L 567.340000 195.025000 L 567.398000 195.522000 L 567.456000 196.018000 L 567.513000 196.515000 L 567.564000 197.012000 L 567.616000 197.509000 L 567.667000 198.006000 L 567.717000 198.503000 L 567.761000 199.001000 L 567.806000 199.499000 L 567.850000 199.996000 L 567.893000 200.494000 L 567.928000 200.993000 L 567.964000 201.491000 L 567.999000 201.990000 L 568.032000 202.488000 L 568.058000 202.988000 L 568.084000 203.487000 L 568.110000 203.986000 L 568.133000 204.485000 L 568.151000 204.984000 L 568.169000 205.484000 L 568.186000 205.983000 L 568.201000 206.483000 L 568.210000 206.982000 L 568.219000 207.482000 L 568.227000 207.982000 L 568.233000 208.481000 L 568.233000 208.981000 L 568.233000 209.481000 L 568.233000 209.981000 L 568.229000 210.480000 L 568.219000 210.980000 L 568.209000 211.480000 L 568.200000 211.979000 L 568.185000 212.479000 L 568.163000 212.978000 L 568.141000 213.477000 L 568.119000 213.977000 L 568.092000 214.476000 L 568.061000 214.974000 L 568.030000 215.473000 L 567.998000 215.972000 L 567.960000 216.470000 L 567.915000 216.968000 L 567.871000 217.466000 L 567.826000 217.963000 L 567.774000 218.460000 L 567.716000 218.957000 L 567.658000 219.453000 L 567.600000 219.950000 L 567.534000 220.445000 L 567.462000 220.939000 L 567.391000 221.434000 L 567.319000 221.929000 L 567.236000 222.421000 L 567.147000 222.913000 L 567.059000 223.405000 L 566.970000 223.897000 L 566.870000 224.386000 L 566.766000 224.875000 L 566.662000 225.364000 L 566.558000 225.853000 L 566.439000 226.338000 L 566.315000 226.822000 L 566.192000 227.307000 L 566.069000 227.791000 L 565.930000 228.271000 L 565.790000 228.751000 L 565.649000 229.230000 L 565.508000 229.710000 L 565.351000 230.184000 L 565.193000 230.658000 L 565.035000 231.132000 L 564.876000 231.606000 L 564.697000 232.073000 L 564.518000 232.539000 L 564.340000 233.006000 L 564.160000 233.472000 L 563.964000 233.932000 L 563.768000 234.392000 L 563.572000 234.852000 L 563.372000 235.310000 L 563.153000 235.758000 L 562.933000 236.207000 L 562.713000 236.656000 L 562.485000 237.100000 L 562.231000 237.531000 L 561.977000 237.961000 L 561.723000 238.392000 L 561.458000 238.815000 L 561.171000 239.224000 L 560.883000 239.632000 L 560.595000 240.041000 L 560.301000 240.445000 L 559.999000 240.843000 L 559.696000 241.241000 L 559.394000 241.638000 L 559.077000 242.025000 L 558.747000 242.400000 L 558.417000 242.775000 L 558.086000 243.150000 L 557.741000 243.511000 L 557.386000 243.862000 L 557.031000 244.214000 L 556.675000 244.565000 L 556.301000 244.896000 L 555.917000 245.216000 L 555.534000 245.536000 L 555.150000 245.856000 L 554.748000 246.152000 L 554.339000 246.440000 L 553.931000 246.728000 L 553.522000 247.016000 L 553.102000 247.286000 L 552.678000 247.551000 L 552.255000 247.817000 L 551.831000 248.082000 L 551.394000 248.324000 L 550.955000 248.563000 L 550.516000 248.802000 L 550.077000 249.041000 L 549.631000 249.265000 L 549.184000 249.488000 L 548.736000 249.711000 L 548.289000 249.935000 L 547.828000 250.127000 L 547.367000 250.320000 L 546.906000 250.512000 L 546.444000 250.703000 L 545.973000 250.869000 L 545.501000 251.034000 L 545.029000 251.200000 L 544.557000 251.362000 L 544.075000 251.496000 L 543.594000 251.630000 L 543.113000 251.764000 L 542.630000 251.895000 L 542.142000 252.003000 L 541.654000 252.111000 L 541.166000 252.219000 L 540.678000 252.323000 L 540.185000 252.408000 L 539.693000 252.493000 L 539.200000 252.579000 L 538.707000 252.658000 L 538.210000 252.712000 L 537.714000 252.766000 L 537.217000 252.820000 L 536.720000 252.872000 L 536.222000 252.912000 L 535.724000 252.953000 L 535.225000 252.994000 L 534.727000 253.029000 L 534.228000 253.046000 L 533.728000 253.062000 L 533.229000 253.078000 L 532.729000 253.090000 L 532.229000 253.091000 L 531.730000 253.091000 L 531.230000 253.092000 L 530.730000 253.090000 L 530.230000 253.079000 L 529.731000 253.068000 L 529.231000 253.057000 L 528.732000 253.040000 L 528.233000 253.006000 L 527.735000 252.972000 L 527.236000 252.939000 L 526.737000 252.905000 L 526.239000 252.870000 L 525.740000 252.835000 L 525.242000 252.801000 L 524.744000 252.761000 L 524.247000 252.706000 L 523.750000 252.652000 L 523.253000 252.598000 L 522.757000 252.541000 L 522.261000 252.476000 L 521.766000 252.411000 L 521.270000 252.346000 L 520.775000 252.279000 L 520.281000 252.205000 L 519.787000 252.132000 L 519.292000 252.058000 L 518.799000 251.980000 L 518.307000 251.890000 L 517.815000 251.800000 L 517.324000 251.711000 L 516.832000 251.620000 L 516.341000 251.528000 L 515.850000 251.437000 L 515.359000 251.345000 L 514.868000 251.249000 L 514.380000 251.144000 L 513.891000 251.039000 L 513.402000 250.934000 L 512.914000 250.826000 L 512.428000 250.713000 L 511.941000 250.599000 L 511.454000 250.486000 L 510.968000 250.371000 L 510.483000 250.252000 L 509.997000 250.133000 L 509.512000 250.014000 L 509.027000 249.893000 L 508.543000 249.767000 L 508.060000 249.640000 L 507.576000 249.514000 L 507.093000 249.386000 L 506.612000 249.252000 L 506.130000 249.119000 L 505.648000 248.986000 L 505.167000 248.852000 L 504.686000 248.716000 L 504.205000 248.579000 L 503.725000 248.443000 L 503.244000 248.304000 L 502.766000 248.161000 L 502.287000 248.017000 L 501.808000 247.874000 L 501.330000 247.729000 L 500.853000 247.580000 L 500.376000 247.431000 L 499.899000 247.282000 L 499.422000 247.133000 L 498.946000 246.981000 L 498.470000 246.830000 L 497.993000 246.678000 L 497.518000 246.525000 L 497.044000 246.366000 L 496.570000 246.208000 L 496.096000 246.050000 L 495.622000 245.891000 L 495.149000 245.729000 L 494.676000 245.567000 L 494.203000 245.406000 L 493.731000 245.244000 L 493.258000 245.080000 L 492.786000 244.916000 L 492.314000 244.752000 L 491.843000 244.586000 L 491.372000 244.418000 L 490.902000 244.249000 L 490.431000 244.081000 L 489.961000 243.911000 L 489.493000 243.738000 L 489.024000 243.564000 L 488.555000 243.390000 L 488.087000 243.217000 L 487.617000 243.045000 L 487.148000 242.874000 L 486.679000 242.702000 L 486.210000 242.528000 L 485.744000 242.349000 L 485.277000 242.170000 L 484.810000 241.991000 L 484.343000 241.813000 L 483.875000 241.638000 L 483.407000 241.464000 L 482.939000 241.289000 L 482.471000 241.112000 L 482.005000 240.931000 L 481.540000 240.750000 L 481.074000 240.569000 L 480.609000 240.386000 L 480.147000 240.195000 L 479.685000 240.005000 L 479.223000 239.815000 L 478.759000 239.628000 L 478.293000 239.449000 L 477.826000 239.270000 L 477.359000 239.091000 L 476.894000 238.910000 L 476.430000 238.723000 L 475.967000 238.535000 L 475.504000 238.348000 L 475.039000 238.163000 L 474.572000 237.985000 L 474.105000 237.808000 L 473.638000 237.630000 L 473.172000 237.450000 L 472.708000 237.265000 L 472.243000 237.081000 L 471.779000 236.896000 L 471.315000 236.709000 L 470.854000 236.518000 L 470.392000 236.326000 L 469.931000 236.134000 L 469.468000 235.944000 L 469.004000 235.761000 L 468.539000 235.577000 L 468.074000 235.393000 L 467.610000 235.207000 L 467.148000 235.018000 L 466.685000 234.829000 L 466.223000 234.639000 L 465.760000 234.451000 L 465.296000 234.264000 L 464.833000 234.077000 L 464.369000 233.890000 L 463.906000 233.702000 L 463.445000 233.511000 L 462.983000 233.321000 L 462.521000 233.130000 L 462.059000 232.938000 L 461.599000 232.743000 L 461.139000 232.548000 L 460.679000 232.353000 L 460.219000 232.158000 L 459.759000 231.962000 L 459.299000 231.767000 L 458.839000 231.571000 L 458.380000 231.374000 L 457.921000 231.175000 L 457.463000 230.977000 L 457.004000 230.778000 L 456.546000 230.578000 L 456.089000 230.377000 L 455.631000 230.176000 L 455.173000 229.975000 L 454.716000 229.774000 L 454.259000 229.571000 L 453.803000 229.368000 L 453.346000 229.165000 L 452.890000 228.962000 L 452.434000 228.757000 L 451.978000 228.553000 L 451.522000 228.348000 L 451.066000 228.143000 L 450.611000 227.936000 L 450.156000 227.729000 L 449.701000 227.522000 L 449.247000 227.314000 L 448.793000 227.104000 L 448.340000 226.894000 L 447.886000 226.685000 L 447.433000 226.474000 L 446.981000 226.261000 L 446.529000 226.048000 L 446.077000 225.835000 L 445.625000 225.621000 L 445.175000 225.404000 L 444.725000 225.187000 L 444.274000 224.970000 L 443.825000 224.752000 L 443.376000 224.531000 L 442.928000 224.311000 L 442.480000 224.090000 L 442.032000 223.868000 L 441.585000 223.644000 L 441.139000 223.420000 L 440.692000 223.196000 L 440.246000 222.970000 L 439.801000 222.742000 L 439.356000 222.515000 L 438.911000 222.287000 L 438.467000 222.058000 L 438.024000 221.827000 L 437.581000 221.596000 L 437.138000 221.365000 L 436.695000 221.133000 L 436.254000 220.899000 L 435.812000 220.664000 L 435.371000 220.430000 L 434.930000 220.194000 L 434.491000 219.956000 L 434.051000 219.719000 L 433.612000 219.481000 L 433.174000 219.240000 L 432.737000 218.997000 L 432.300000 218.754000 L 431.864000 218.511000 L 431.429000 218.264000 L 430.996000 218.015000 L 430.563000 217.766000 L 430.130000 217.516000 L 429.698000 217.264000 L 429.268000 217.010000 L 428.838000 216.755000 L 428.408000 216.501000 L 427.980000 216.243000 L 427.553000 215.984000 L 427.126000 215.724000 L 426.699000 215.464000 L 426.273000 215.202000 L 425.849000 214.937000 L 425.425000 214.673000 L 425.001000 214.408000 L 424.578000 214.142000 L 424.155000 213.876000 L 423.733000 213.610000 L 423.310000 213.343000 L 422.888000 213.076000 L 422.466000 212.807000 L 422.044000 212.539000 L 421.623000 212.271000 L 421.202000 212.002000 L 420.781000 211.732000 L 420.360000 211.462000 L 419.939000 211.193000 L 419.520000 210.921000 L 419.101000 210.648000 L 418.683000 210.375000 L 418.264000 210.102000 L 417.847000 209.828000 L 417.429000 209.553000 L 417.012000 209.278000 L 416.594000 209.003000 L 416.178000 208.726000 L 415.763000 208.449000 L 415.347000 208.171000 L 414.931000 207.894000 L 414.518000 207.613000 L 414.106000 207.331000 L 413.693000 207.048000 L 413.281000 206.766000 L 412.867000 206.486000 L 412.452000 206.208000 L 412.037000 205.929000 L 411.622000 205.650000 L 411.209000 205.369000 L 410.797000 205.087000 L 410.384000 204.805000 L 409.972000 204.523000 L 409.558000 204.242000 L 409.145000 203.961000 L 408.731000 203.681000 L 408.317000 203.401000 L 407.903000 203.121000 L 407.488000 202.843000 L 407.073000 202.564000 L 406.659000 202.285000 L 406.245000 202.004000 L 405.832000 201.723000 L 405.419000 201.442000 L 405.006000 201.160000 L 404.592000 200.881000 L 404.177000 200.602000 L 403.763000 200.322000 L 403.348000 200.043000 L 402.935000 199.762000 L 402.522000 199.481000 L 402.109000 199.199000 L 401.696000 198.918000 L 401.284000 198.635000 L 400.872000 198.352000 L 400.460000 198.069000 L 400.049000 197.786000 L 399.638000 197.501000 L 399.228000 197.215000 L 398.818000 196.930000 L 398.407000 196.644000 L 397.999000 196.356000 L 397.591000 196.067000 L 397.184000 195.778000 L 396.776000 195.490000 L 396.371000 195.196000 L 395.967000 194.903000 L 395.563000 194.609000 L 395.159000 194.315000 L 394.760000 194.013000 L 394.362000 193.711000 L 393.964000 193.408000 L 393.567000 193.105000 L 393.174000 192.796000 L 392.783000 192.485000 L 392.391000 192.175000 L 392.000000 191.865000 L 391.617000 191.543000 L 391.235000 191.221000 L 390.852000 190.899000 L 390.470000 190.577000 L 390.099000 190.243000 L 389.728000 189.908000 L 389.357000 189.573000 L 388.987000 189.237000 L 388.622000 188.896000 L 388.258000 188.554000 L 387.894000 188.211000 L 387.529000 187.869000 L 387.178000 187.514000 L 386.828000 187.157000 L 386.478000 186.801000 L 386.127000 186.444000 L 385.783000 186.082000 L 385.438000 185.720000 L 385.094000 185.358000 L 384.750000 184.996000 L 384.411000 184.628000 L 384.073000 184.261000 L 383.734000 183.893000 L 383.396000 183.525000 L 383.062000 183.153000 L 382.728000 182.781000 L 382.060000 182.038000" fill="none" stroke="black" stroke-width="1.0" /><path d="M 380.131000 118.277000 L 380.597000 118.098000 L 381.062000 117.918000 L 381.527000 117.738000 L 381.993000 117.558000 L 382.458000 117.380000 L 382.924000 117.201000 L 383.390000 117.023000 L 383.856000 116.844000 L 384.322000 116.667000 L 384.788000 116.490000 L 385.254000 116.312000 L 385.722000 116.139000 L 386.197000 115.986000 L 386.671000 115.833000 L 387.146000 115.681000 L 387.622000 115.532000 L 388.103000 115.398000 L 388.583000 115.264000 L 389.064000 115.130000 L 389.547000 115.007000 L 390.038000 114.921000 L 390.529000 114.835000 L 391.021000 114.749000 L 391.513000 114.670000 L 392.008000 114.610000 L 392.503000 114.550000 L 392.999000 114.491000 L 393.495000 114.440000 L 393.992000 114.408000 L 394.490000 114.376000 L 394.988000 114.345000 L 395.486000 114.327000 L 395.985000 114.332000 L 396.484000 114.338000 L 396.982000 114.344000 L 397.481000 114.360000 L 397.978000 114.391000 L 398.476000 114.421000 L 398.974000 114.452000 L 399.471000 114.494000 L 399.967000 114.550000 L 400.462000 114.607000 L 400.958000 114.663000 L 401.452000 114.727000 L 401.946000 114.799000 L 402.439000 114.872000 L 402.933000 114.944000 L 403.425000 115.024000 L 403.916000 115.112000 L 404.407000 115.200000 L 404.898000 115.288000 L 405.388000 115.382000 L 405.877000 115.480000 L 406.366000 115.578000 L 406.855000 115.677000 L 407.343000 115.780000 L 407.830000 115.886000 L 408.318000 115.992000 L 408.805000 116.098000 L 409.291000 116.212000 L 409.775000 116.331000 L 410.260000 116.450000 L 410.744000 116.569000 L 411.228000 116.691000 L 411.711000 116.814000 L 412.194000 116.937000 L 412.677000 117.061000 L 413.160000 117.188000 L 413.641000 117.317000 L 414.123000 117.447000 L 414.605000 117.576000 L 415.086000 117.709000 L 415.566000 117.843000 L 416.046000 117.977000 L 416.527000 118.112000 L 417.007000 118.247000 L 417.487000 118.382000 L 417.967000 118.517000 L 418.447000 118.653000 L 418.926000 118.791000 L 419.405000 118.931000 L 419.884000 119.070000 L 420.363000 119.209000 L 420.842000 119.349000 L 421.321000 119.489000 L 421.800000 119.628000 L 422.278000 119.768000 L 422.757000 119.908000 L 423.236000 120.049000 L 423.714000 120.189000 L 424.193000 120.330000 L 424.671000 120.471000 L 425.150000 120.613000 L 425.628000 120.754000 L 426.106000 120.896000 L 426.584000 121.039000 L 427.062000 121.181000 L 427.540000 121.324000 L 428.018000 121.467000 L 428.496000 121.610000 L 428.974000 121.753000 L 429.451000 121.896000 L 429.929000 122.039000 L 430.406000 122.184000 L 430.883000 122.330000 L 431.360000 122.476000 L 431.837000 122.622000 L 432.314000 122.770000 L 432.790000 122.918000 L 433.266000 123.066000 L 433.743000 123.214000 L 434.218000 123.364000 L 434.694000 123.514000 L 435.170000 123.664000 L 435.645000 123.815000 L 436.120000 123.968000 L 436.595000 124.121000 L 437.069000 124.274000 L 437.544000 124.427000 L 438.018000 124.582000 L 438.492000 124.737000 L 438.966000 124.892000 L 439.440000 125.048000 L 439.914000 125.204000 L 440.387000 125.361000 L 440.861000 125.517000 L 441.335000 125.674000 L 441.808000 125.832000 L 442.281000 125.990000 L 442.754000 126.148000 L 443.227000 126.306000 L 443.700000 126.465000 L 444.173000 126.624000 L 444.645000 126.782000 L 445.118000 126.942000 L 445.591000 127.101000 L 446.063000 127.261000 L 446.536000 127.421000 L 447.008000 127.581000 L 447.481000 127.740000 L 447.953000 127.900000 L 448.426000 128.059000 L 448.898000 128.219000 L 449.371000 128.379000 L 449.843000 128.538000 L 450.316000 128.698000 L 450.788000 128.858000 L 451.261000 129.017000 L 451.734000 129.177000 L 452.206000 129.337000 L 452.679000 129.496000 L 453.152000 129.655000 L 453.624000 129.814000 L 454.097000 129.974000 L 454.570000 130.133000 L 455.043000 130.292000 L 455.515000 130.450000 L 455.988000 130.609000 L 456.461000 130.768000 L 456.934000 130.926000 L 457.407000 131.084000 L 457.880000 131.242000 L 458.354000 131.399000 L 458.827000 131.556000 L 459.301000 131.713000 L 459.774000 131.870000 L 460.248000 132.026000 L 460.722000 132.182000 L 461.196000 132.338000 L 461.669000 132.493000 L 462.144000 132.648000 L 462.618000 132.801000 L 463.093000 132.954000 L 463.568000 133.107000 L 464.043000 133.259000 L 464.518000 133.410000 L 464.994000 133.560000 L 465.469000 133.711000 L 465.945000 133.860000 L 466.422000 134.007000 L 466.899000 134.154000 L 467.375000 134.301000 L 467.853000 134.445000 L 468.331000 134.588000 L 468.808000 134.731000 L 469.286000 134.874000 L 469.765000 135.014000 L 470.244000 135.153000 L 470.723000 135.291000 L 471.202000 135.430000 L 471.683000 135.565000 L 472.163000 135.699000 L 472.644000 135.833000 L 473.124000 135.966000 L 473.606000 136.096000 L 474.088000 136.225000 L 474.570000 136.354000 L 475.051000 136.482000 L 475.534000 136.608000 L 476.017000 136.732000 L 476.500000 136.856000 L 476.983000 136.980000 L 477.467000 137.101000 L 477.952000 137.220000 L 478.436000 137.340000 L 478.920000 137.460000 L 479.405000 137.575000 L 479.891000 137.691000 L 480.376000 137.806000 L 480.861000 137.921000 L 481.347000 138.032000 L 481.834000 138.143000 L 482.320000 138.255000 L 482.806000 138.366000 L 483.293000 138.473000 L 483.781000 138.580000 L 484.268000 138.687000 L 484.755000 138.793000 L 485.243000 138.896000 L 485.731000 139.000000 L 486.219000 139.103000 L 486.707000 139.205000 L 487.196000 139.304000 L 487.685000 139.403000 L 488.174000 139.502000 L 488.663000 139.601000 L 489.152000 139.696000 L 489.642000 139.791000 L 490.132000 139.887000 L 490.621000 139.981000 L 491.112000 140.073000 L 491.602000 140.165000 L 492.092000 140.256000 L 492.583000 140.347000 L 493.074000 140.435000 L 493.565000 140.523000 L 494.056000 140.610000 L 494.547000 140.697000 L 495.038000 140.782000 L 495.530000 140.866000 L 496.022000 140.951000 L 496.513000 141.034000 L 497.006000 141.115000 L 497.498000 141.195000 L 497.990000 141.276000 L 498.482000 141.355000 L 498.975000 141.434000 L 499.468000 141.512000 L 499.960000 141.590000 L 500.453000 141.666000 L 500.947000 141.739000 L 501.440000 141.812000 L 501.934000 141.885000 L 502.427000 141.955000 L 502.922000 142.022000 L 503.416000 142.090000 L 503.910000 142.157000 L 504.404000 142.224000 L 504.899000 142.291000 L 505.393000 142.357000 L 505.887000 142.423000 L 506.382000 142.487000 L 506.877000 142.548000 L 507.372000 142.609000 L 507.867000 142.670000 L 508.362000 142.731000 L 508.857000 142.792000 L 509.352000 142.852000 L 509.847000 142.913000 L 510.343000 142.972000 L 510.838000 143.030000 L 511.334000 143.088000 L 511.829000 143.146000 L 512.325000 143.202000 L 512.820000 143.256000 L 513.316000 143.311000 L 513.812000 143.366000 L 514.308000 143.417000 L 514.804000 143.467000 L 515.301000 143.517000 L 515.797000 143.567000 L 516.293000 143.616000 L 516.790000 143.665000 L 517.286000 143.713000 L 517.783000 143.762000 L 518.280000 143.803000 L 518.777000 143.840000 L 519.274000 143.878000 L 519.772000 143.915000 L 520.269000 143.950000 L 520.767000 143.984000 L 521.265000 144.019000 L 521.762000 144.053000 L 522.260000 144.084000 L 522.758000 144.113000 L 523.256000 144.143000 L 523.754000 144.173000 L 524.252000 144.196000 L 524.750000 144.218000 L 525.249000 144.239000 L 525.747000 144.260000 L 526.245000 144.276000 L 526.744000 144.291000 L 527.243000 144.306000 L 527.741000 144.321000 L 528.240000 144.341000 L 528.738000 144.362000 L 529.236000 144.384000 L 529.735000 144.405000 L 530.233000 144.409000 L 530.732000 144.410000 L 531.231000 144.412000 L 531.730000 144.413000 L 532.228000 144.419000 L 532.727000 144.426000 L 533.226000 144.433000 L 533.725000 144.439000 L 534.223000 144.457000 L 534.722000 144.475000 L 535.220000 144.493000 L 535.718000 144.511000 L 536.217000 144.486000 L 536.715000 144.460000 L 537.213000 144.434000 L 537.711000 144.407000" fill="none" stroke="black" stroke-width="1.0" /><path d="M 416.046000 117.977000 L 417.988000 117.758000 L 419.930000 117.556000 L 421.875000 117.377000 L 423.823000 117.244000 L 425.774000 117.158000 L 427.727000 117.101000 L 429.680000 117.099000 L 431.633000 117.085000 L 433.587000 117.084000 L 435.540000 117.105000 L 437.494000 117.110000 L 439.445000 117.027000 L 441.396000 116.929000 L 443.345000 116.799000 L 445.290000 116.619000 L 447.227000 116.362000 L 449.156000 116.056000 L 451.075000 115.693000 L 452.982000 115.269000 L 454.877000 114.793000 L 456.762000 114.280000 L 458.638000 113.736000 L 460.505000 113.163000 L 462.366000 112.570000 L 464.223000 111.963000 L 466.076000 111.345000 L 467.928000 110.724000 L 469.783000 110.111000 L 471.642000 109.511000 L 473.507000 108.929000 L 475.378000 108.369000 L 477.256000 107.829000 L 479.137000 107.304000 L 481.018000 106.778000 L 482.891000 106.222000 L 484.742000 105.598000 L 486.574000 104.920000 L 488.391000 104.203000 L 490.158000 103.370000 L 491.886000 102.459000 L 493.568000 101.465000" fill="none" stroke="black" stroke-width="1.0" /><path d="M 223.715000 143.407000 L 223.217000 143.437000 L 222.718000 143.468000 L 222.220000 143.499000 L 221.722000 143.530000 L 221.224000 143.569000 L 220.726000 143.609000 L 220.228000 143.649000 L 219.730000 143.689000 L 219.232000 143.724000 L 218.734000 143.760000 L 218.236000 143.795000 L 217.738000 143.832000 L 217.240000 143.874000 L 216.742000 143.917000 L 216.245000 143.960000 L 215.748000 144.008000 L 215.254000 144.083000 L 214.760000 144.158000 L 214.266000 144.233000 L 213.772000 144.306000 L 213.277000 144.370000 L 212.782000 144.434000 L 212.286000 144.498000 L 211.793000 144.574000 L 211.306000 144.685000 L 210.820000 144.796000 L 210.333000 144.908000 L 209.846000 145.022000 L 209.362000 145.144000 L 208.878000 145.265000 L 208.393000 145.387000 L 207.911000 145.515000 L 207.431000 145.654000 L 206.952000 145.794000 L 206.472000 145.933000 L 205.996000 146.083000 L 205.525000 146.249000 L 205.054000 146.416000 L 204.583000 146.582000 L 204.113000 146.752000 L 203.645000 146.926000 L 203.177000 147.101000 L 202.709000 147.275000 L 202.246000 147.460000 L 201.787000 147.658000 L 201.328000 147.855000 L 200.869000 148.053000 L 200.413000 148.254000 L 199.958000 148.460000 L 199.503000 148.666000 L 199.048000 148.872000 L 198.596000 149.084000 L 198.146000 149.302000 L 197.696000 149.519000 L 197.247000 149.737000 L 196.800000 149.960000 L 196.355000 150.187000 L 195.910000 150.413000 L 195.465000 150.640000 L 195.022000 150.871000 L 194.580000 151.104000 L 194.139000 151.337000 L 193.697000 151.570000 L 193.258000 151.809000 L 192.821000 152.051000 L 192.384000 152.293000 L 191.947000 152.534000 L 191.511000 152.777000 L 191.074000 153.020000 L 190.638000 153.263000 L 190.202000 153.506000 L 189.768000 153.754000 L 189.336000 154.004000 L 188.904000 154.255000 L 188.472000 154.505000 L 188.039000 154.755000 L 187.606000 155.004000 L 187.174000 155.253000 L 186.741000 155.502000 L 186.306000 155.749000 L 185.872000 155.994000 L 185.437000 156.240000 L 185.002000 156.486000 L 184.572000 156.740000 L 184.143000 156.995000 L 183.714000 157.250000 L 183.284000 157.506000 L 182.851000 157.755000 L 182.418000 158.002000 L 181.984000 158.250000 L 181.550000 158.498000 L 181.123000 158.756000 L 180.696000 159.015000 L 180.269000 159.275000 L 179.842000 159.534000 L 179.410000 159.784000 L 178.977000 160.032000 L 178.543000 160.281000 L 178.110000 160.529000 L 177.671000 160.768000 L 177.232000 161.005000 L 176.793000 161.243000 L 176.353000 161.480000 L 175.917000 161.723000 L 175.481000 161.966000 L 175.044000 162.209000 L 174.608000 162.452000 L 174.168000 162.688000 L 173.728000 162.924000 L 173.287000 163.160000 L 172.847000 163.396000 L 172.405000 163.628000 L 171.963000 163.861000 L 171.521000 164.093000 L 171.079000 164.326000 L 170.637000 164.557000 L 170.194000 164.789000 L 169.752000 165.021000 L 169.309000 165.253000 L 168.867000 165.484000 L 168.424000 165.715000 L 167.981000 165.946000 L 167.539000 166.177000 L 167.096000 166.408000 L 166.653000 166.639000 L 166.210000 166.870000 L 165.767000 167.101000 L 165.324000 167.332000 L 164.881000 167.563000 L 164.438000 167.793000 L 163.995000 168.024000 L 163.552000 168.254000 L 163.109000 168.484000 L 162.665000 168.714000 L 162.222000 168.943000 L 161.778000 169.173000 L 161.335000 169.402000 L 160.891000 169.631000 L 160.447000 169.860000 L 160.003000 170.089000 L 159.559000 170.317000 L 159.115000 170.546000 L 158.671000 170.774000 L 158.227000 171.003000 L 157.783000 171.232000 L 157.339000 171.461000 L 156.895000 171.691000 L 156.452000 171.920000 L 156.008000 172.150000 L 155.565000 172.379000 L 155.121000 172.609000 L 154.678000 172.839000 L 154.235000 173.069000 L 153.791000 173.299000 L 153.348000 173.529000 L 152.905000 173.760000 L 152.462000 173.990000 L 152.019000 174.221000 L 151.576000 174.452000 L 151.134000 174.683000 L 150.691000 174.914000 L 150.248000 175.145000 L 149.805000 175.376000 L 149.363000 175.607000 L 148.920000 175.838000 L 148.477000 176.069000 L 148.034000 176.300000 L 147.591000 176.531000 L 147.148000 176.762000 L 146.706000 176.993000 L 146.263000 177.224000 L 145.819000 177.454000 L 145.376000 177.685000 L 144.933000 177.915000 L 144.490000 178.145000 L 144.047000 178.376000 L 143.604000 178.606000 L 143.161000 178.836000 L 142.717000 179.066000 L 142.274000 179.296000 L 141.831000 179.526000 L 141.387000 179.756000 L 140.944000 179.986000 L 140.500000 180.215000 L 140.057000 180.445000 L 139.613000 180.674000 L 139.169000 180.903000 L 138.726000 181.133000 L 138.282000 181.362000 L 137.838000 181.591000 L 137.394000 181.819000 L 136.950000 182.048000 L 136.506000 182.276000 L 136.062000 182.505000 L 135.617000 182.732000 L 135.172000 182.960000 L 134.728000 183.187000 L 134.283000 183.414000 L 133.838000 183.641000 L 133.393000 183.869000 L 132.949000 184.096000 L 132.504000 184.323000 L 132.058000 184.549000 L 131.613000 184.774000 L 131.167000 184.999000 L 130.721000 185.224000 L 130.275000 185.449000 L 129.829000 185.673000 L 129.383000 185.898000 L 128.937000 186.123000 L 128.491000 186.347000 L 128.044000 186.572000 L 127.598000 186.796000 L 127.152000 187.021000 L 126.705000 187.243000 L 126.258000 187.465000 L 125.810000 187.687000 L 125.363000 187.909000 L 124.917000 188.134000 L 124.471000 188.359000 L 124.025000 188.585000 L 123.580000 188.809000 L 123.133000 189.032000 L 122.686000 189.255000 L 122.238000 189.478000 L 121.791000 189.700000 L 121.345000 189.924000 L 120.898000 190.147000 L 120.452000 190.371000 L 120.005000 190.594000 L 119.559000 190.818000 L 119.112000 191.042000 L 118.666000 191.266000 L 118.219000 191.490000 L 117.772000 191.711000 L 117.324000 191.933000 L 116.877000 192.155000 L 116.430000 192.378000 L 115.984000 192.603000 L 115.538000 192.828000 L 115.092000 193.053000 L 114.646000 193.278000 L 114.198000 193.499000 L 113.751000 193.721000 L 113.303000 193.942000 L 112.856000 194.164000 L 112.409000 194.387000 L 111.962000 194.610000 L 111.515000 194.833000 L 111.068000 195.056000 L 110.621000 195.278000 L 110.173000 195.500000 L 109.726000 195.722000 L 109.278000 195.942000 L 108.829000 196.162000 L 108.380000 196.381000 L 107.932000 196.600000 L 107.483000 196.820000 L 107.036000 197.042000 L 106.589000 197.264000 L 106.141000 197.486000 L 105.692000 197.704000 L 105.240000 197.918000 L 104.789000 198.131000 L 104.337000 198.344000 L 103.886000 198.558000 L 103.435000 198.773000 L 102.984000 198.987000 L 102.533000 199.201000 L 102.080000 199.413000 L 101.627000 199.622000 L 101.173000 199.831000 L 100.720000 200.040000 L 100.265000 200.247000 L 99.809500 200.452000 L 99.354000 200.657000 L 98.898600 200.862000 L 98.443600 201.068000 L 97.989000 201.274000 L 97.534500 201.481000 L 97.079900 201.688000 L 96.621400 201.886000 L 96.160200 202.078000 L 95.699100 202.270000 L 95.238000 202.461000 L 94.778900 202.658000 L 94.320900 202.857000 L 93.862900 203.057000 L 93.405000 203.256000 L 92.942400 203.444000 L 92.477500 203.626000 L 92.012600 203.809000 L 91.547600 203.991000 L 91.084100 204.177000 L 90.621100 204.364000 L 90.158100 204.552000 L 89.695200 204.739000 L 89.237000 204.938000 L 88.780600 205.140000 L 88.324300 205.343000 L 87.867900 205.546000 L 87.402100 205.726000 L 86.933200 205.898000 L 86.464300 206.070000 L 85.995300 206.241000 L 85.532300 206.428000 L 85.070900 206.620000 L 84.609500 206.811000 L 84.148100 207.002000 L 83.689900 207.200000 L 83.232400 207.401000 L 82.774900 207.601000 L 82.317400 207.801000 L 81.859300 208.000000 L 81.401100 208.199000 L 80.942900 208.398000 L 80.484700 208.597000 L 80.025900 208.794000 L 79.567000 208.991000 L 79.108100 209.188000 L 78.649200 209.385000 L 78.189500 209.580000 L 77.729600 209.775000 L 77.269800 209.970000 L 76.809900 210.165000 L 76.349100 210.358000 L 75.888300 210.550000 L 75.427500 210.743000 L 74.966700 210.935000 L 74.505200 211.126000 L 74.043700 211.317000 L 73.582200 211.508000 L 73.120800 211.699000 L 72.658900 211.889000 L 72.197000 212.079000 L 71.735200 212.269000 L 71.273300 212.459000" fill="none" stroke="black" stroke-width="1.0" /><path d="M 188.904000 154.255000 L 187.091000 153.477000 L 185.277000 152.705000 L 183.446000 151.971000 L 181.602000 151.276000 L 179.734000 150.649000 L 177.843000 150.096000 L 175.931000 149.620000 L 174.007000 149.187000 L 172.062000 148.865000 L 170.107000 148.606000 L 168.146000 148.395000 L 166.181000 148.229000 L 164.213000 148.098000 L 162.243000 148.001000 L 160.272000 147.931000 L 158.300000 147.885000 L 156.328000 147.856000 L 154.356000 147.838000 L 152.384000 147.828000 L 150.411000 147.825000 L 148.439000 147.827000 L 146.467000 147.836000 L 144.495000 147.852000 L 142.523000 147.879000 L 140.551000 147.916000 L 138.579000 147.967000 L 136.608000 148.031000 L 134.637000 148.107000 L 132.667000 148.195000 L 130.697000 148.294000 L 128.728000 148.405000 L 126.759000 148.527000 L 124.792000 148.664000 L 122.825000 148.811000 L 120.859000 148.974000 L 118.895000 149.147000 L 116.931000 149.335000 L 114.969000 149.535000 L 113.009000 149.750000 L 111.050000 149.979000 L 109.092000 150.220000 L 107.136000 150.473000 L 105.181000 150.730000 L 103.226000 150.994000 L 101.273000 151.266000 L 99.320000 151.542000 L 97.368600 151.828000 L 95.418500 152.123000 L 93.470500 152.432000 L 91.524900 152.755000 L 89.582600 153.098000 L 87.644100 153.461000 L 85.711000 153.852000 L 83.784700 154.276000 L 81.866900 154.736000 L 79.959800 155.238000 L 78.065100 155.786000 L 76.186500 156.387000 L 74.324900 157.038000 L 72.483300 157.744000 L 70.661400 158.499000 L 68.857900 159.297000 L 67.071400 160.133000 L 65.288300 160.976000" fill="none" stroke="black" stroke-width="1.0" /><path d="M 21.437500 46.764600 L 21.062000 47.094900 L 20.686600 47.425100 L 20.311200 47.755300 L 19.936600 48.086300 L 19.598900 48.455000 L 19.261300 48.823700 L 18.923600 49.192500 L 18.587800 49.562700 L 18.292100 49.965800 L 17.996300 50.369000 L 17.700600 50.772100 L 17.409100 51.178000 L 17.149600 51.605400 L 16.890100 52.032800 L 16.630500 52.460100 L 16.375200 52.889800 L 16.146200 53.334300 L 15.917200 53.778700 L 15.688200 54.223200 L 15.464000 54.669900 L 15.265500 55.128700 L 15.067000 55.587600 L 14.868500 56.046500 L 14.672300 56.506300 L 14.487100 56.970800 L 14.302000 57.435200 L 14.116800 57.899600 L 13.934200 58.365000 L 13.762500 58.834600 L 13.590900 59.304200 L 13.419200 59.773800 L 13.252200 60.244900 L 13.102900 60.722100 L 12.953600 61.199200 L 12.804300 61.676400 L 12.658500 62.154600 L 12.524700 62.636300 L 12.390800 63.118000 L 12.257000 63.599800 L 12.121500 64.081000 L 11.981000 64.560900 L 11.840600 65.040700 L 11.700200 65.520600 L 11.563700 66.001500 L 11.437700 66.485300 L 11.311700 66.969200 L 11.185700 67.453000 L 11.059000 67.936700 L 10.930600 68.419900 L 10.802200 68.903100 L 10.673700 69.386300 L 10.547000 69.869900 L 10.423500 70.354400 L 10.300000 70.838900 L 10.176600 71.323400 L 10.055200 71.808400 L 9.937650 72.294300 L 9.820060 72.780300 L 9.702470 73.266200 L 9.585200 73.752300 L 9.468420 74.238400 L 9.351630 74.724500 L 9.234850 75.210700 L 9.122240 75.697800 L 9.014940 76.186100 L 8.907640 76.674400 L 8.800340 77.162800 L 8.693420 77.651200 L 8.586910 78.139700 L 8.480410 78.628200 L 8.373900 79.116700 L 8.271170 79.606000 L 8.171810 80.096000 L 8.072450 80.586000 L 7.973090 81.076000 L 7.876880 81.566600 L 7.782960 82.057700 L 7.689040 82.548700 L 7.595120 83.039800 L 7.502040 83.531000 L 7.409430 84.022400 L 7.316820 84.513700 L 7.224220 85.005000 L 7.137980 85.497500 L 7.054770 85.990500 L 6.971570 86.483500 L 6.888370 86.976500 L 6.805210 87.469500 L 6.722070 87.962500 L 6.638930 88.455500 L 6.555800 88.948500 L 6.477820 89.442400 L 6.401270 89.936500 L 6.324720 90.430500 L 6.248180 90.924600 L 6.175730 91.419300 L 6.104050 91.914100 L 6.032370 92.408900 L 5.960680 92.903700 L 5.890860 93.398800 L 5.821220 93.893900 L 5.751580 94.389000 L 5.681950 94.884100 L 5.618920 95.380100 L 5.556190 95.876100 L 5.493450 96.372100 L 5.430720 96.868200 L 5.368940 97.364300 L 5.307150 97.860500 L 5.245360 98.356600 L 5.183880 98.852800 L 5.126200 99.349400 L 5.068520 99.846000 L 5.010850 100.343000 L 4.953670 100.839000 L 4.899200 101.336000 L 4.844730 101.833000 L 4.790270 102.330000 L 4.736310 102.827000 L 4.684150 103.325000 L 4.632000 103.822000 L 4.579840 104.319000 L 4.528910 104.817000 L 4.481290 105.314000 L 4.433680 105.812000 L 4.386070 106.310000 L 4.336240 106.807000 L 4.281690 107.304000 L 4.227140 107.801000 L 4.172590 108.298000 L 4.119830 108.795000 L 4.070130 109.293000 L 4.020420 109.790000 L 3.970720 110.288000 L 3.923200 110.785000 L 3.878730 111.283000 L 3.834260 111.781000 L 3.789790 112.279000 L 3.743770 112.777000 L 3.696260 113.275000 L 3.648750 113.773000 L 3.601240 114.270000 L 3.558110 114.769000 L 3.518450 115.267000 L 3.478800 115.765000 L 3.439840 116.264000 L 3.406270 116.763000 L 3.372700 117.261000 L 3.339490 117.760000 L 3.306830 118.259000 L 3.274180 118.758000 L 3.241520 119.257000 L 3.211800 119.756000 L 3.185780 120.255000 L 3.159750 120.755000 L 3.133720 121.254000 L 3.114210 121.754000 L 3.098940 122.253000 L 3.083670 122.753000 L 3.068410 123.253000 L 3.057780 123.753000 L 3.049650 124.253000 L 3.041530 124.752000 L 3.033400 125.252000 L 3.029120 125.752000 L 3.026430 126.252000 L 3.023750 126.752000 L 3.021060 127.252000 L 3.021900 127.752000 L 3.023850 128.252000 L 3.025790 128.752000 L 3.027740 129.252000 L 3.032240 129.752000 L 3.037390 130.252000 L 3.042540 130.752000 L 3.047680 131.252000 L 3.055610 131.752000 L 3.064090 132.252000 L 3.072560 132.752000 L 3.081040 133.252000 L 3.092500 133.751000 L 3.104390 134.251000 L 3.116280 134.751000 L 3.128170 135.251000 L 3.144040 135.751000 L 3.160300 136.250000 L 3.176560 136.750000 L 3.192820 137.250000 L 3.212020 137.749000 L 3.231380 138.249000 L 3.250740 138.749000 L 3.270110 139.248000 L 3.292000 139.748000 L 3.313940 140.247000 L 3.335870 140.747000 L 3.357870 141.246000 L 3.382230 141.745000 L 3.406580 142.245000 L 3.430940 142.744000 L 3.455410 143.244000 L 3.481630 143.743000 L 3.507860 144.242000 L 3.534080 144.741000 L 3.560480 145.241000 L 3.588540 145.740000 L 3.616600 146.239000 L 3.644660 146.738000 L 3.673030 147.237000 L 3.703470 147.736000 L 3.733910 148.236000 L 3.764350 148.735000 L 3.794890 149.234000 L 3.825930 149.733000 L 3.856980 150.232000 L 3.888030 150.731000 L 3.919410 151.230000 L 3.951950 151.729000 L 3.984480 152.227000 L 4.017020 152.726000 L 4.049830 153.225000 L 4.083420 153.724000 L 4.117000 154.223000 L 4.150590 154.722000 L 4.184700 155.221000 L 4.219970 155.719000 L 4.255250 156.218000 L 4.290520 156.717000 L 4.326410 157.215000 L 4.363350 157.714000 L 4.400290 158.213000 L 4.437240 158.711000 L 4.475010 159.210000 L 4.514010 159.708000 L 4.553010 160.207000 L 4.592010 160.705000 L 4.632890 161.204000 L 4.675880 161.702000 L 4.718870 162.200000 L 4.761870 162.698000 L 4.805940 163.196000 L 4.850980 163.694000 L 4.896030 164.192000 L 4.941080 164.690000 L 4.989040 165.187000 L 5.039320 165.685000 L 5.089600 166.182000 L 5.139880 166.680000 L 5.192280 167.177000 L 5.245950 167.674000 L 5.299620 168.171000 L 5.353280 168.668000 L 5.410010 169.165000 L 5.468320 169.661000 L 5.526640 170.158000 L 5.584960 170.655000 L 5.646250 171.151000 L 5.708650 171.647000 L 5.771050 172.143000 L 5.833450 172.639000 L 5.898790 173.135000 L 5.964780 173.630000 L 6.030770 174.126000 L 6.096770 174.621000 L 6.165960 175.117000 L 6.235700 175.612000 L 6.305450 176.107000 L 6.375200 176.602000 L 6.447860 177.097000 L 6.520900 177.591000 L 6.593930 178.086000 L 6.666970 178.580000 L 6.741350 179.075000 L 6.815860 179.569000 L 6.890360 180.064000 L 6.964900 180.558000 L 7.042790 181.052000 L 7.120670 181.546000 L 7.198560 182.040000 L 7.276570 182.533000 L 7.356700 183.027000 L 7.436840 183.520000 L 7.516970 184.014000 L 7.597180 184.507000 L 7.678170 185.001000 L 7.759170 185.494000 L 7.840160 185.988000 L 7.921620 186.481000 L 8.006230 186.974000 L 8.090850 187.466000 L 8.175460 187.959000 L 8.260260 188.452000 L 8.345970 188.944000 L 8.431670 189.437000 L 8.517370 189.930000 L 8.602980 190.422000 L 8.688230 190.915000 L 8.773470 191.408000 L 8.858710 191.900000 L 8.945090 192.393000 L 9.034730 192.884000 L 9.124370 193.376000 L 9.214010 193.868000 L 9.303290 194.360000 L 9.391740 194.852000 L 9.480190 195.344000 L 9.568640 195.836000 L 9.658550 196.328000 L 9.751190 196.820000 L 9.843820 197.311000 L 9.936450 197.802000 L 10.030100 198.293000 L 10.125400 198.784000 L 10.220700 199.275000 L 10.316000 199.766000 L 10.408600 200.257000 L 10.497900 200.749000 L 10.587200 201.241000 L 10.676500 201.733000 L 10.771200 202.224000 L 10.871100 202.714000 L 10.971000 203.204000 L 11.070900 203.693000 L 11.173700 204.183000 L 11.278700 204.672000 L 11.383800 205.160000 L 11.488800 205.649000 L 11.596400 206.137000 L 11.705400 206.625000 L 11.814400 207.113000 L 11.923500 207.601000 L 12.041000 208.087000 L 12.162400 208.572000 L 12.283800 209.057000 L 12.405300 209.542000 L 12.525400 210.028000 L 12.645100 210.513000 L 12.764900 210.998000 L 12.884600 211.484000 L 13.015700 211.966000 L 13.149600 212.448000 L 13.283600 212.930000 L 13.417500 213.411000 L 13.553100 213.893000 L 13.689000 214.374000 L 13.824900 214.855000 L 13.960800 215.336000 L 14.106900 215.814000 L 14.253800 216.292000 L 14.400800 216.770000 L 14.547700 217.248000 L 14.705400 217.722000 L 14.863300 218.197000 L 15.021200 218.671000 L 15.179600 219.145000 L 15.348400 219.616000 L 15.517200 220.087000 L 15.686000 220.557000 L 15.855700 221.027000 L 16.033200 221.495000 L 16.210700 221.962000 L 16.388200 222.430000 L 16.566700 222.897000 L 16.750400 223.362000 L 16.934200 223.827000 L 17.117900 224.292000 L 17.311500 224.752000 L 17.525500 225.204000 L 17.739500 225.656000 L 17.953500 226.108000 L 18.182400 226.552000 L 18.436600 226.982000 L 18.690700 227.413000 L 18.944900 227.844000 L 19.203700 228.271000 L 19.469300 228.695000 L 19.734900 229.118000 L 20.000500 229.542000 L 20.269100 229.964000 L 20.541800 230.383000 L 20.814600 230.802000 L 21.087300 231.221000 L 21.359300 231.640000 L 21.630200 232.061000 L 21.901100 232.481000 L 22.172000 232.901000 L 22.444000 233.321000 L 22.717500 233.739000 L 22.990900 234.158000 L 23.264400 234.576000 L 23.537800 234.995000 L 23.811000 235.414000 L 24.084200 235.832000 L 24.357400 236.251000 L 24.632800 236.668000 L 24.910800 237.084000 L 25.188700 237.499000 L 25.466700 237.915000 L 25.746900 238.329000 L 26.028200 238.742000 L 26.309400 239.156000 L 26.590600 239.569000 L 26.883700 239.974000 L 27.181800 240.376000 L 27.479900 240.777000 L 27.778000 241.178000 L 28.066000 241.587000 L 28.350100 241.998000 L 28.634100 242.410000 L 28.918100 242.821000 L 29.198400 243.235000 L 29.477300 243.650000 L 29.756100 244.065000 L 30.034900 244.480000 L 30.309100 244.898000 L 30.581800 245.317000 L 30.854400 245.737000 L 31.127000 246.156000 L 31.393200 246.579000 L 31.657800 247.003000 L 31.922400 247.427000 L 32.187000 247.852000 L 32.441200 248.282000 L 32.693300 248.714000 L 32.945300 249.146000 L 33.197400 249.577000 L 33.437200 250.016000 L 33.675300 250.456000 L 33.913500 250.895000 L 34.151700 251.335000 L 34.380500 251.779000 L 34.608800 252.224000 L 34.837000 252.669000 L 35.065000 253.114000 L 35.281400 253.565000 L 35.497800 254.015000 L 35.714200 254.466000 L 35.929300 254.918000 L 36.136000 255.373000 L 36.342800 255.828000 L 36.549600 256.283000 L 36.753900 256.739000 L 36.950100 257.199000 L 37.146300 257.659000 L 37.342400 258.119000 L 37.537300 258.580000 L 37.730000 259.041000 L 37.922600 259.502000 L 38.115200 259.964000 L 38.302700 260.427000 L 38.484400 260.893000 L 38.666100 261.359000 L 38.847900 261.824000 L 39.025700 262.292000 L 39.200800 262.760000 L 39.376000 263.228000 L 39.551100 263.697000 L 39.722100 264.166000 L 39.891400 264.637000 L 40.060700 265.107000 L 40.230000 265.578000 L 40.394000 266.050000 L 40.557200 266.523000 L 40.720400 266.995000 L 40.883600 267.468000 L 41.043500 267.942000 L 41.203400 268.415000 L 41.363400 268.889000 L 41.522400 269.363000 L 41.677400 269.838000 L 41.832500 270.314000 L 41.987600 270.789000 L 42.141600 271.265000 L 42.293800 271.741000 L 42.446000 272.217000 L 42.598200 272.693000 L 42.748500 273.170000 L 42.897200 273.648000 L 43.045900 274.125000 L 43.194600 274.602000 L 43.343500 275.079000 L 43.492500 275.557000 L 43.641400 276.034000 L 43.790400 276.511000 L 43.938800 276.989000 L 44.087100 277.466000 L 44.235400 277.944000 L 44.383800 278.421000 L 44.533200 278.898000 L 44.682500 279.375000 L 44.831900 279.853000 L 44.980200 280.330000 L 45.126800 280.808000 L 45.273400 281.286000 L 45.419900 281.764000 L 45.566600 282.242000 L 45.713300 282.720000 L 45.860000 283.198000 L 46.006700 283.676000 L 46.153500 284.154000 L 46.300400 284.632000 L 46.447300 285.110000 L 46.594400 285.588000 L 46.744500 286.064000 L 46.894700 286.541000 L 47.044900 287.018000 L 47.196400 287.495000 L 47.350600 287.970000 L 47.504800 288.446000 L 47.659000 288.921000 L 47.817000 289.396000 L 47.977300 289.869000 L 48.137500 290.343000 L 48.297700 290.817000 L 48.464200 291.288000 L 48.631200 291.759000 L 48.798200 292.231000 L 48.967300 292.701000 L 49.142700 293.169000 L 49.318200 293.637000 L 49.493600 294.106000 L 49.675100 294.571000 L 49.860800 295.036000 L 50.046500 295.500000 L 50.232200 295.964000 L 50.428800 296.424000 L 50.626200 296.883000 L 50.823600 297.342000 L 51.023800 297.801000 L 51.231200 298.255000 L 51.438600 298.710000 L 51.645900 299.165000 L 51.860300 299.617000 L 52.078600 300.067000 L 52.297000 300.517000 L 52.515300 300.966000 L 52.742800 301.412000 L 52.970600 301.857000 L 53.198400 302.302000 L 53.431700 302.744000 L 53.676000 303.180000 L 53.920300 303.616000 L 54.164600 304.053000 L 54.423000 304.480000 L 54.687800 304.904000 L 54.952600 305.329000 L 55.218200 305.752000 L 55.504100 306.162000 L 55.790000 306.572000 L 56.082400 306.978000 L 56.402500 307.362000 L 56.722700 307.746000 L 57.042900 308.130000 L 57.416200 308.461000 L 57.795100 308.788000 L 58.174000 309.114000 L 58.555700 309.436000 L 58.974600 309.709000 L 59.393500 309.982000 L 59.812400 310.255000 L 60.233000 310.525000 L 60.660600 310.784000 L 61.088200 311.044000 L 61.515800 311.303000 L 61.953600 311.540000 L 62.423100 311.712000 L 62.892600 311.884000 L 63.362100 312.056000 L 63.835100 312.216000 L 64.320800 312.335000 L 64.806600 312.453000 L 65.292300 312.572000 L 65.779300 312.684000 L 66.274200 312.755000 L 66.769100 312.826000 L 67.264100 312.897000 L 67.759300 312.965000 L 68.256700 313.016000 L 68.754100 313.066000 L 69.251500 313.117000 L 69.748900 313.168000 L 70.245400 313.226000 L 70.742000 313.284000 L 71.238600 313.343000 L 71.735200 313.401000 L 72.234500 313.384000 L 72.734000 313.362000 L 73.233500 313.340000 L 73.733000 313.319000 L 74.230000 313.267000 L 74.725900 313.204000 L 75.221900 313.141000 L 75.717900 313.078000 L 76.212900 313.008000 L 76.707100 312.932000 L 77.201300 312.856000 L 77.695400 312.780000 L 78.188500 312.698000 L 78.678800 312.600000 L 79.169100 312.502000 L 79.659400 312.404000 L 80.149600 312.306000 L 80.639800 312.207000 L 81.130000 312.109000 L 81.620200 312.011000 L 82.110400 311.912000 L 82.603300 311.828000 L 83.096400 311.746000 L 83.589400 311.663000 L 84.082500 311.580000 L 84.573000 311.484000 L 85.062700 311.383000 L 85.552300 311.281000 L 86.042000 311.180000 L 86.527500 311.062000 L 87.009700 310.930000 L 87.491900 310.798000 L 87.974100 310.666000 L 88.454100 310.526000 L 88.930300 310.374000 L 89.406400 310.221000 L 89.882600 310.069000 L 90.358500 309.916000 L 90.832700 309.757000 L 91.307000 309.599000 L 91.781200 309.440000 L 92.255400 309.282000 L 92.727700 309.118000 L 93.200000 308.954000 L 93.672200 308.790000 L 94.144500 308.625000 L 94.614500 308.455000 L 95.084000 308.283000 L 95.553500 308.111000 L 96.022900 307.939000 L 96.492500 307.768000 L 96.962100 307.596000 L 97.431700 307.425000 L 97.901400 307.253000 L 98.370400 307.080000 L 98.838900 306.905000 L 99.307400 306.731000 L 99.775900 306.556000 L 100.244000 306.380000 L 100.711000 306.201000 L 101.178000 306.023000 L 101.645000 305.844000 L 102.112000 305.665000 L 102.579000 305.487000 L 103.046000 305.309000 L 103.513000 305.131000 L 103.980000 304.952000 L 104.446000 304.772000 L 104.913000 304.591000 L 105.379000 304.411000 L 105.845000 304.230000 L 106.311000 304.048000 L 106.777000 303.867000 L 107.242000 303.685000 L 107.708000 303.503000 L 108.174000 303.320000 L 108.639000 303.137000 L 109.104000 302.954000 L 109.569000 302.770000 L 110.034000 302.586000 L 110.498000 302.401000 L 110.963000 302.216000 L 111.427000 302.032000 L 111.891000 301.845000 L 112.355000 301.658000 L 112.819000 301.471000 L 113.282000 301.284000 L 113.745000 301.095000 L 114.208000 300.905000 L 114.670000 300.714000 L 115.132000 300.524000 L 115.594000 300.332000 L 116.055000 300.139000 L 116.516000 299.946000 L 116.977000 299.753000 L 117.438000 299.557000 L 117.897000 299.360000 L 118.356000 299.163000 L 118.816000 298.965000 L 119.274000 298.765000 L 119.730000 298.561000 L 120.187000 298.358000 L 120.644000 298.154000 L 121.100000 297.949000 L 121.555000 297.743000 L 122.010000 297.536000 L 122.466000 297.330000 L 122.920000 297.120000 L 123.370000 296.904000 L 123.821000 296.687000 L 124.272000 296.470000 L 124.721000 296.252000 L 125.169000 296.030000 L 125.617000 295.807000 L 126.064000 295.584000 L 126.512000 295.361000 L 126.956000 295.132000 L 127.401000 294.903000 L 127.845000 294.675000 L 128.290000 294.445000 L 128.729000 294.206000 L 129.168000 293.967000 L 129.607000 293.728000 L 130.046000 293.488000 L 130.486000 293.252000 L 130.927000 293.016000 L 131.368000 292.780000 L 131.808000 292.543000 L 132.243000 292.296000 L 132.677000 292.048000 L 133.111000 291.799000 L 133.545000 291.551000 L 133.979000 291.303000 L 134.413000 291.055000 L 134.847000 290.807000 L 135.281000 290.559000 L 135.714000 290.309000 L 136.147000 290.059000 L 136.580000 289.809000 L 137.013000 289.558000 L 137.442000 289.303000 L 137.871000 289.045000 L 138.299000 288.788000 L 138.728000 288.530000 L 139.157000 288.273000 L 139.585000 288.015000 L 140.014000 287.758000 L 140.442000 287.500000 L 140.868000 287.238000 L 141.292000 286.973000 L 141.716000 286.708000 L 142.140000 286.443000 L 142.563000 286.177000 L 142.986000 285.909000 L 143.408000 285.642000 L 143.830000 285.374000 L 144.252000 285.105000 L 144.672000 284.834000 L 145.092000 284.563000 L 145.512000 284.292000 L 145.931000 284.018000 L 146.348000 283.743000 L 146.765000 283.467000 L 147.182000 283.191000 L 147.598000 282.914000 L 148.013000 282.636000 L 148.429000 282.358000 L 148.844000 282.080000 L 149.258000 281.799000 L 149.670000 281.516000 L 150.082000 281.233000 L 150.494000 280.949000 L 150.905000 280.665000 L 151.316000 280.380000 L 151.727000 280.095000 L 152.137000 279.809000 L 152.547000 279.523000 L 152.955000 279.234000 L 153.363000 278.946000 L 153.772000 278.657000 L 154.179000 278.367000 L 154.584000 278.075000 L 154.990000 277.782000 L 155.395000 277.490000 L 155.801000 277.197000 L 156.206000 276.904000 L 156.611000 276.610000 L 157.016000 276.317000 L 157.419000 276.022000 L 157.820000 275.722000 L 158.220000 275.423000 L 158.620000 275.123000 L 159.020000 274.824000 L 159.420000 274.523000 L 159.820000 274.223000 L 160.220000 273.923000 L 160.619000 273.622000 L 161.016000 273.318000 L 161.414000 273.015000 L 161.811000 272.711000 L 162.208000 272.407000 L 162.602000 272.099000 L 162.996000 271.792000 L 163.390000 271.484000 L 163.784000 271.177000 L 164.178000 270.869000 L 164.572000 270.561000 L 164.966000 270.254000 L 165.360000 269.945000 L 165.748000 269.630000 L 166.136000 269.315000 L 166.525000 269.000000 L 166.913000 268.685000 L 167.301000 268.370000 L 167.689000 268.055000 L 168.077000 267.739000 L 168.464000 267.423000 L 168.849000 267.104000 L 169.235000 266.785000 L 169.620000 266.467000 L 170.004000 266.147000 L 170.386000 265.824000 L 170.767000 265.501000 L 171.149000 265.178000 L 171.530000 264.854000 L 171.911000 264.531000 L 172.292000 264.207000 L 172.673000 263.883000 L 173.054000 263.559000 L 173.429000 263.228000 L 173.804000 262.898000 L 174.180000 262.568000 L 174.555000 262.238000 L 174.930000 261.907000 L 175.304000 261.576000 L 175.679000 261.245000 L 176.054000 260.913000 L 176.425000 260.579000 L 176.797000 260.245000 L 177.169000 259.911000 L 177.541000 259.576000 L 177.909000 259.238000 L 178.277000 258.899000 L 178.645000 258.561000 L 179.013000 258.223000 L 179.380000 257.884000 L 179.748000 257.544000 L 180.115000 257.205000 L 180.481000 256.865000 L 180.844000 256.520000 L 181.206000 256.176000 L 181.568000 255.831000 L 181.930000 255.486000 L 182.291000 255.141000 L 182.653000 254.795000 L 183.014000 254.449000 L 183.374000 254.103000 L 183.732000 253.753000 L 184.089000 253.403000 L 184.446000 253.053000 L 184.802000 252.703000 L 185.157000 252.350000 L 185.512000 251.998000 L 185.866000 251.646000 L 186.220000 251.293000 L 186.572000 250.937000 L 186.923000 250.581000 L 187.274000 250.225000 L 187.624000 249.868000 L 187.973000 249.510000 L 188.321000 249.151000 L 188.669000 248.792000 L 189.017000 248.433000 L 189.363000 248.072000 L 189.708000 247.710000 L 190.053000 247.349000 L 190.398000 246.987000 L 190.741000 246.622000 L 191.083000 246.258000 L 191.426000 245.894000 L 191.768000 245.529000 L 192.108000 245.163000 L 192.448000 244.796000 L 192.788000 244.430000 L 193.127000 244.062000 L 193.463000 243.692000 L 193.799000 243.322000 L 194.135000 242.951000 L 194.470000 242.581000 L 194.805000 242.209000 L 195.140000 241.838000 L 195.475000 241.467000 L 195.808000 241.094000 L 196.138000 240.719000 L 196.469000 240.343000 L 196.799000 239.968000 L 197.128000 239.592000 L 197.456000 239.215000 L 197.785000 238.838000 L 198.113000 238.460000 L 198.440000 238.082000 L 198.765000 237.703000 L 199.091000 237.323000 L 199.417000 236.944000 L 199.740000 236.562000 L 200.059000 236.178000 L 200.379000 235.794000 L 200.699000 235.409000 L 201.020000 235.026000 L 201.342000 234.644000 L 201.665000 234.262000 L 201.987000 233.879000 L 202.305000 233.494000 L 202.619000 233.105000 L 202.934000 232.716000 L 203.248000 232.327000 L 203.562000 231.938000 L 203.878000 231.550000 L 204.193000 231.162000 L 204.508000 230.774000 L 204.820000 230.383000 L 205.129000 229.990000 L 205.438000 229.597000 L 205.747000 229.204000 L 206.056000 228.811000 L 206.365000 228.418000 L 206.674000 228.025000 L 206.982000 227.632000 L 207.294000 227.240000 L 207.607000 226.851000 L 207.921000 226.461000 L 208.234000 226.072000 L 208.544000 225.680000 L 208.852000 225.286000 L 209.160000 224.892000 L 209.468000 224.498000 L 209.776000 224.104000 L 210.084000 223.710000 L 210.392000 223.316000 L 210.700000 222.922000 L 211.008000 222.529000 L 211.316000 222.135000 L 211.624000 221.741000 L 211.932000 221.347000 L 212.237000 220.951000 L 212.540000 220.553000 L 212.843000 220.155000 L 213.145000 219.757000 L 213.446000 219.358000 L 213.746000 218.958000 L 214.046000 218.558000 L 214.345000 218.158000 L 214.641000 217.754000 L 214.934000 217.349000 L 215.227000 216.944000 L 215.520000 216.539000 L 215.809000 216.131000 L 216.097000 215.722000 L 216.385000 215.313000 L 216.672000 214.905000 L 216.953000 214.491000 L 217.231000 214.075000 L 217.509000 213.660000 L 217.788000 213.245000 L 218.059000 212.825000 L 218.329000 212.404000 L 218.599000 211.983000 L 218.868000 211.562000 L 219.132000 211.137000 L 219.393000 210.711000 L 219.655000 210.285000 L 219.917000 209.859000 L 220.171000 209.428000 L 220.422000 208.996000 L 220.674000 208.564000 L 220.925000 208.132000 L 221.171000 207.697000 L 221.415000 207.260000 L 221.660000 206.824000 L 221.904000 206.388000 L 222.137000 205.946000 L 222.368000 205.502000 L 222.599000 205.058000 L 222.829000 204.615000 L 223.051000 204.167000 L 223.271000 203.718000 L 223.490000 203.268000 L 223.710000 202.819000 L 223.919000 202.365000 L 224.125000 201.910000 L 224.332000 201.455000 L 224.539000 200.999000 L 224.733000 200.539000 L 224.924000 200.077000 L 225.115000 199.615000 L 225.306000 199.153000 L 225.490000 198.688000 L 225.672000 198.222000 L 225.853000 197.756000 L 226.035000 197.290000 L 226.204000 196.820000 L 226.371000 196.348000 L 226.537000 195.877000 L 226.704000 195.406000 L 226.860000 194.931000 L 227.014000 194.455000 L 227.168000 193.979000 L 227.322000 193.503000 L 227.464000 193.024000 L 227.604000 192.544000 L 227.745000 192.064000 L 227.885000 191.585000 L 228.013000 191.101000 L 228.139000 190.618000 L 228.265000 190.134000 L 228.391000 189.650000 L 228.505000 189.163000 L 228.616000 188.676000 L 228.727000 188.188000 L 228.839000 187.701000 L 228.935000 187.210000 L 229.029000 186.719000 L 229.122000 186.228000 L 229.216000 185.737000 L 229.295000 185.243000 L 229.371000 184.749000 L 229.447000 184.255000 L 229.524000 183.761000 L 229.592000 183.266000 L 229.660000 182.770000 L 229.727000 182.275000 L 229.794000 181.779000 L 229.854000 181.283000 L 229.912000 180.786000 L 229.971000 180.290000 L 230.029000 179.793000 L 230.078000 179.296000 L 230.126000 178.798000 L 230.174000 178.300000 L 230.222000 177.803000 L 230.260000 177.304000 L 230.298000 176.806000 L 230.335000 176.307000 L 230.373000 175.808000 L 230.399000 175.309000 L 230.425000 174.810000 L 230.451000 174.311000 L 230.477000 173.811000 L 230.501000 173.312000 L 230.524000 172.812000 L 230.547000 172.313000 L 230.570000 171.814000 L 230.591000 171.314000 L 230.611000 170.814000 L 230.631000 170.315000 L 230.651000 169.815000 L 230.654000 169.315000 L 230.656000 168.815000 L 230.658000 168.315000 L 230.659000 167.815000 L 230.654000 167.315000 L 230.647000 166.816000 L 230.641000 166.316000 L 230.635000 165.816000 L 230.621000 165.316000 L 230.607000 164.816000 L 230.593000 164.316000 L 230.579000 163.817000 L 230.559000 163.317000 L 230.539000 162.817000 L 230.519000 162.318000 L 230.499000 161.818000 L 230.473000 161.319000 L 230.448000 160.820000 L 230.422000 160.320000 L 230.396000 159.821000 L 230.366000 159.322000 L 230.336000 158.823000 L 230.306000 158.324000 L 230.276000 157.825000 L 230.242000 157.326000 L 230.208000 156.827000 L 230.173000 156.328000 L 230.139000 155.830000 L 230.102000 155.331000 L 230.064000 154.832000 L 230.026000 154.334000 L 229.988000 153.835000 L 229.947000 153.337000 L 229.906000 152.839000 L 229.864000 152.341000 L 229.823000 151.842000 L 229.778000 151.344000 L 229.733000 150.846000 L 229.687000 150.348000 L 229.642000 149.851000 L 229.594000 149.353000 L 229.545000 148.855000 L 229.496000 148.358000 L 229.448000 147.860000 L 229.395000 147.363000 L 229.342000 146.866000 L 229.289000 146.369000 L 229.236000 145.872000 L 229.179000 145.375000 L 229.122000 144.878000 L 229.065000 144.381000 L 229.008000 143.885000 L 228.947000 143.388000 L 228.885000 142.892000 L 228.824000 142.396000 L 228.762000 141.900000 L 228.696000 141.404000 L 228.629000 140.909000 L 228.563000 140.413000 L 228.497000 139.918000 L 228.425000 139.423000 L 228.354000 138.928000 L 228.282000 138.433000 L 228.211000 137.938000 L 228.134000 137.444000 L 228.057000 136.950000 L 227.980000 136.456000 L 227.903000 135.962000 L 227.820000 135.469000 L 227.738000 134.976000 L 227.655000 134.483000 L 227.573000 133.990000 L 227.483000 133.498000 L 227.394000 133.006000 L 227.304000 132.514000 L 227.214000 132.022000 L 227.118000 131.532000 L 227.022000 131.041000 L 226.926000 130.550000 L 226.830000 130.060000 L 226.726000 129.571000 L 226.622000 129.082000 L 226.518000 128.593000 L 226.414000 128.103000 L 226.302000 127.616000 L 226.189000 127.129000 L 226.076000 126.642000 L 225.962000 126.155000 L 225.843000 125.670000 L 225.724000 125.184000 L 225.605000 124.699000 L 225.486000 124.213000 L 225.355000 123.731000 L 225.223000 123.248000 L 225.092000 122.766000 L 224.960000 122.283000 L 224.822000 121.803000 L 224.684000 121.323000 L 224.545000 120.842000 L 224.407000 120.362000 L 224.255000 119.885000 L 224.104000 119.409000 L 223.952000 118.932000 L 223.801000 118.456000 L 223.630000 117.986000 L 223.458000 117.516000 L 223.287000 117.047000 L 223.116000 116.577000 L 222.950000 116.105000 L 222.783000 115.634000 L 222.617000 115.162000 L 222.451000 114.691000 L 222.246000 114.234000 L 222.042000 113.778000 L 221.838000 113.322000 L 221.633000 112.866000 L 221.420000 112.413000 L 221.207000 111.961000 L 220.993000 111.509000 L 220.780000 111.057000 L 220.545000 110.616000 L 220.310000 110.174000 L 220.075000 109.733000 L 219.840000 109.292000 L 219.566000 108.873000 L 219.292000 108.455000 L 219.018000 108.037000 L 218.744000 107.619000 L 218.450000 107.214000 L 218.157000 106.810000 L 217.863000 106.405000 L 217.570000 106.000000 L 217.255000 105.611000 L 216.941000 105.223000 L 216.626000 104.834000 L 216.312000 104.445000 L 215.975000 104.076000 L 215.638000 103.707000 L 215.301000 103.337000 L 214.964000 102.968000 L 214.619000 102.606000 L 214.273000 102.245000 L 213.927000 101.884000 L 213.582000 101.522000 L 213.230000 101.167000 L 212.877000 100.813000 L 212.524000 100.458000 L 212.172000 100.104000 L 211.811000 99.757900 L 211.450000 99.412400 L 211.088000 99.066800 L 210.727000 98.721300 L 210.370000 98.371500 L 210.013000 98.021500 L 209.656000 97.671400 L 209.299000 97.321300 L 208.913000 97.003000 L 208.526000 96.686700 L 208.139000 96.370400 L 207.752000 96.054100 L 207.326000 95.791900 L 206.898000 95.533800 L 206.470000 95.275600 L 206.042000 95.017500 L 205.635000 94.726700 L 205.231000 94.433000 L 204.826000 94.139300 L 204.422000 93.845600 L 203.986000 93.600700 L 203.548000 93.360000 L 203.110000 93.119400 L 202.671000 92.878700 L 202.229000 92.645300 L 201.787000 92.412300 L 201.344000 92.179400 L 200.902000 91.946500 L 200.458000 91.716600 L 200.014000 91.487000 L 199.570000 91.257400 L 199.126000 91.027800 L 198.679000 90.803600 L 198.232000 90.579900 L 197.784000 90.356200 L 197.337000 90.132500 L 196.888000 89.912600 L 196.439000 89.693100 L 195.990000 89.473700 L 195.541000 89.254200 L 195.093000 89.031400 L 194.646000 88.808300 L 194.198000 88.585100 L 193.751000 88.361900 L 193.303000 88.139000 L 192.856000 87.916000 L 192.408000 87.693100 L 191.961000 87.470200 L 191.514000 87.245700 L 191.067000 87.020900 L 190.621000 86.796200 L 190.174000 86.571500 L 189.730000 86.341900 L 189.286000 86.111700 L 188.842000 85.881500 L 188.398000 85.651300 L 187.952000 85.426800 L 187.505000 85.203100 L 187.057000 84.979400 L 186.610000 84.755600 L 186.165000 84.528000 L 185.720000 84.299900 L 185.275000 84.071700 L 184.831000 83.843600 L 184.383000 83.620200 L 183.936000 83.397500 L 183.488000 83.174900 L 183.040000 82.952200 L 182.592000 82.731200 L 182.143000 82.510500 L 181.695000 82.289700 L 181.246000 82.068900 L 180.796000 81.850900 L 180.346000 81.633200 L 179.896000 81.415500 L 179.446000 81.197900 L 178.993000 80.984900 L 178.541000 80.772600 L 178.088000 80.560300 L 177.635000 80.348000 L 177.182000 80.137600 L 176.728000 79.927500 L 176.275000 79.717400 L 175.821000 79.507200 L 175.367000 79.297900 L 174.913000 79.088600 L 174.459000 78.879300 L 174.005000 78.670100 L 173.549000 78.463200 L 173.094000 78.256700 L 172.639000 78.050200 L 172.183000 77.843700 L 171.729000 77.635000 L 171.275000 77.426100 L 170.821000 77.217200 L 170.366000 77.008300 L 169.913000 76.797600 L 169.460000 76.586800 L 169.006000 76.376000 L 168.553000 76.165200 L 168.098000 75.957200 L 167.643000 75.749500 L 167.189000 75.541800 L 166.734000 75.334100 L 166.284000 75.116800 L 165.834000 74.898500 L 165.384000 74.680200 L 164.934000 74.461800 L 164.482000 74.249400 L 164.029000 74.037600 L 163.576000 73.825800 L 163.123000 73.614000 L 162.672000 73.398200 L 162.221000 73.181900 L 161.770000 72.965600 L 161.320000 72.749300 L 160.870000 72.530600 L 160.421000 72.311600 L 159.971000 72.092600 L 159.522000 71.873700 L 159.068000 71.663100 L 158.614000 71.453100 L 158.161000 71.243200 L 157.707000 71.033300 L 157.257000 70.815000 L 156.808000 70.596200 L 156.358000 70.377300 L 155.908000 70.158400 L 155.457000 69.942700 L 155.006000 69.727200 L 154.555000 69.511800 L 154.104000 69.296300 L 153.649000 69.088500 L 153.194000 68.881200 L 152.739000 68.674000 L 152.284000 68.466700 L 151.828000 68.262600 L 151.371000 68.058700 L 150.915000 67.854800 L 150.458000 67.651000 L 149.999000 67.453200 L 149.540000 67.255700 L 149.080000 67.058300 L 148.621000 66.860800 L 148.162000 66.663200 L 147.703000 66.465600 L 147.243000 66.268000 L 146.784000 66.070400 L 146.322000 65.879000 L 145.860000 65.687900 L 145.398000 65.496800 L 144.936000 65.305700 L 144.473000 65.116600 L 144.010000 64.927500 L 143.548000 64.738400 L 143.085000 64.549400 L 142.621000 64.363100 L 142.157000 64.176900 L 141.693000 63.990700 L 141.229000 63.804800 L 140.763000 63.622100 L 140.298000 63.439400 L 139.832000 63.256700 L 139.367000 63.074300 L 138.900000 62.894500 L 138.434000 62.714800 L 137.967000 62.535000 L 137.501000 62.355400 L 137.033000 62.177500 L 136.566000 61.999500 L 136.099000 61.821600 L 135.632000 61.644100 L 135.163000 61.470500 L 134.694000 61.296800 L 134.225000 61.123200 L 133.756000 60.949700 L 133.287000 60.777600 L 132.817000 60.605400 L 132.348000 60.433300 L 131.878000 60.261400 L 131.408000 60.091800 L 130.938000 59.922100 L 130.467000 59.752500 L 129.997000 59.583200 L 129.525000 59.417300 L 129.054000 59.251300 L 128.582000 59.085300 L 128.111000 58.919300 L 127.639000 58.752500 L 127.168000 58.585600 L 126.697000 58.418800 L 126.225000 58.252700 L 125.752000 58.091300 L 125.279000 57.929900 L 124.805000 57.768400 L 124.332000 57.606900 L 123.859000 57.445300 L 123.386000 57.283700 L 122.913000 57.122000 L 122.440000 56.960700 L 121.966000 56.801000 L 121.492000 56.641400 L 121.018000 56.481700 L 120.544000 56.322500 L 120.070000 56.165700 L 119.595000 56.009000 L 119.120000 55.852200 L 118.645000 55.695400 L 118.171000 55.538500 L 117.696000 55.381500 L 117.221000 55.224500 L 116.746000 55.068400 L 116.270000 54.915600 L 115.794000 54.762700 L 115.318000 54.609900 L 114.842000 54.457400 L 114.365000 54.305900 L 113.889000 54.154500 L 113.412000 54.003100 L 112.936000 53.852200 L 112.459000 53.702900 L 111.981000 53.553600 L 111.504000 53.404200 L 111.027000 53.255700 L 110.549000 53.109000 L 110.071000 52.962400 L 109.593000 52.815800 L 109.115000 52.670000 L 108.636000 52.526100 L 108.157000 52.382100 L 107.678000 52.238200 L 107.199000 52.094700 L 106.720000 51.952100 L 106.241000 51.809600 L 105.762000 51.667000 L 105.282000 51.525700 L 104.802000 51.386800 L 104.321000 51.248000 L 103.841000 51.109100 L 103.361000 50.971200 L 102.880000 50.834700 L 102.399000 50.698200 L 101.918000 50.561700 L 101.436000 50.426200 L 100.955000 50.292200 L 100.473000 50.158200 L 99.991400 50.024200 L 99.509300 49.891800 L 99.026600 49.761500 L 98.543800 49.631200 L 98.061100 49.501000 L 97.578200 49.371600 L 97.094900 49.243400 L 96.611700 49.115100 L 96.128400 48.986900 L 95.644900 48.859900 L 95.160900 48.734400 L 94.676900 48.608900 L 94.193000 48.483500 L 93.708600 48.359700 L 93.223600 48.237900 L 92.738700 48.116100 L 92.253800 47.994300 L 91.768700 47.873500 L 91.283200 47.753800 L 90.797800 47.634100 L 90.312400 47.514300 L 89.826300 47.397200 L 89.339600 47.282800 L 88.852900 47.168500 L 88.366200 47.054100 L 87.879300 46.940300 L 87.392300 46.827100 L 86.905300 46.713900 L 86.418300 46.600700 L 85.931100 46.488600 L 85.443600 46.377400 L 84.956200 46.266200 L 84.468700 46.155100 L 83.980600 46.046900 L 83.491900 45.941600 L 83.003100 45.836200 L 82.514400 45.730900 L 82.025500 45.626100 L 81.536500 45.521900 L 81.047500 45.417600 L 80.558500 45.313400 L 80.068800 45.212700 L 79.578500 45.114900 L 79.088200 45.017100 L 78.597800 44.919400 L 78.107400 44.822000 L 77.617000 44.725000 L 77.126500 44.627900 L 76.636000 44.530900 L 76.145600 44.433900 L 75.655100 44.336900 L 75.164600 44.239900 L 74.674100 44.143000 L 74.183000 44.049300 L 73.691400 43.958200 L 73.199800 43.867200 L 72.708200 43.776100 L 72.216500 43.685300 L 71.724800 43.594800 L 71.233100 43.504300 L 70.741400 43.413700 L 70.249200 43.325700 L 69.756800 43.239300 L 69.264300 43.152900 L 68.771900 43.066500 L 68.279200 42.981300 L 67.786400 42.896800 L 67.293600 42.812400 L 66.800800 42.728000 L 66.307900 42.644500 L 65.814800 42.561700 L 65.321700 42.478900 L 64.828700 42.396100 L 64.335300 42.315300 L 63.841700 42.235800 L 63.348000 42.156300 L 62.854400 42.076800 L 62.360600 41.998600 L 61.866600 41.921400 L 61.372700 41.844100 L 60.878700 41.766800 L 60.384500 41.691000 L 59.890200 41.616200 L 59.395800 41.541300 L 58.901500 41.466400 L 58.406900 41.393300 L 57.912100 41.321300 L 57.417400 41.249200 L 56.922600 41.177100 L 56.427600 41.107200 L 55.932400 41.038400 L 55.437100 40.969600 L 54.941900 40.900800 L 54.446500 40.833200 L 53.951100 40.766100 L 53.455600 40.699100 L 52.960200 40.632000 L 52.464300 40.568100 L 51.968200 40.505800 L 51.472200 40.443400 L 50.976100 40.381100 L 50.479900 40.319500 L 49.983700 40.258300 L 49.487500 40.197100 L 48.991300 40.135900 L 48.494700 40.077800 L 47.997900 40.021100 L 47.501200 39.964400 L 47.004400 39.907700 L 46.507400 39.853800 L 46.010200 39.800900 L 45.513100 39.748000 L 45.015900 39.695100 L 44.518500 39.644300 L 44.021000 39.594200 L 43.523600 39.544100 L 43.026100 39.494100 L 42.527800 39.453700 L 42.029200 39.416600 L 41.530600 39.379500 L 41.032000 39.342400 L 40.533500 39.305000 L 40.034900 39.267500 L 39.536300 39.230000 L 39.037800 39.192500 L 38.538400 39.169800 L 38.038700 39.151000 L 37.539100 39.132100 L 37.039500 39.113300 L 36.539600 39.103400 L 36.039700 39.095300 L 35.539800 39.087200 L 35.039900 39.079100 L 34.540000 39.085200 L 34.040100 39.093400 L 33.540200 39.101600 L 33.040300 39.109800 L 32.541200 39.138900 L 32.042200 39.170600 L 31.543300 39.202400 L 31.044300 39.234100 L 30.546500 39.280500 L 30.048800 39.328200 L 29.551100 39.375900 L 29.053400 39.423500 L 28.563300 39.521300 L 28.073700 39.622600 L 27.584100 39.723800 L 27.094400 39.825000 L 26.601800 39.910100 L 26.108900 39.994300 L 25.616100 40.078400 L 25.123300 40.162600 L 24.636200 40.275700 L 24.149300 40.389000 L 23.662300 40.502300 L 23.175300 40.615600" fill="none" stroke="black" stroke-width="1.0" /></svg>