<?xml version="1.0" encoding="utf-8"?>
<!-- Generator: Adobe Illustrator 23.0.3, SVG Export Plug-In . SVG Version: 6.00 Build 0)  -->
<svg version="1.1" id="Layer_1" xmlns="http://www.w3.org/2000/svg" xmlns:xlink="http://www.w3.org/1999/xlink" x="0px" y="0px"
	 viewBox="0 0 190.1 135.3" style="enable-background:new 0 0 190.1 135.3;" xml:space="preserve">
<style type="text/css">
	.st0{fill:none;stroke:#000000;stroke-miterlimit:10;}
</style>
<path class="st0" d="M69.4,9.8C41.9,16.7,18.1,36.6,6.3,62.3c-6,13.1-8.7,29.2-1.3,41.6c4,6.6,10.4,11.4,17.1,15.2
	c20.8,11.8,45.7,15.3,69.4,11.6c23.6-3.6,45.9-14.1,65-28.4c13.5-10.1,26.1-23,30.7-39.3c3.7-13.1,1.6-27.7-5.6-39.3
	c-7.2-11.6-19.4-19.9-32.8-22.3c-5.1-0.9-10.3-1-15.5-1c-24.9,0-49.8,1.9-74.4,5.9c0.7,0.8,2.3,0.6,2.6-0.5"/>
<path class="st0" d="M49.8,9.1c-10.7,4-19.2,12.3-26.4,21.2S10,48.9,2.1,57.2"/>
<path class="st0" d="M18.8,51.9C12.4,56.9,8.3,64.4,6.1,72.2S3.5,88.2,3,96.4"/>
<path class="st0" d="M1.8,99c-0.4,0.8,0.3,1.7,0.9,2.3c5,4.9,9.9,9.7,14.9,14.6c3.3,3.2,6.6,6.4,10.5,8.7c12.1,7.1,27.3,4.5,41.3,5"
	/>
<path class="st0" d="M54.7,129.1c2.9,1.8,6.5,1.6,9.8,1.3c22.4-2.1,44.4-8.9,64.1-19.7"/>
<path class="st0" d="M88.4,134.1c11.4-5.1,22.7-10.3,34.1-15.4c8.2-3.7,16.5-7.5,23.8-12.7c10.2-7.3,18.1-17.3,25.9-27.1"/>
<path class="st0" d="M151.5,109.8c7.6-8.1,18.4-13,25-22c5.9-8.1,7.6-18.6,13.3-26.9"/>
<path class="st0" d="M182.5,28.8c5.1,6.8,4.5,16.4,1.6,24.4c-2.9,8-7.8,15.1-11.1,23"/>
<path class="st0" d="M139.5,6.2c3.1-1.6,6.7-1.7,10.2-1.5c7.4,0.5,15.2,2.3,20.3,7.8c3.6,3.9,5.4,9.1,8.9,13"/>
<path class="st0" d="M70,6.3c21.4-1.5,43-0.3,64,3.7"/>
<path class="st0" d="M137.4,4.8c9.4,0.9,18.7,2.9,27.6,5.9c4.8,1.6,10.2,4.3,11.2,9.3"/>
<path class="st0" d="M166.5,15.6c3.8,2.2,6.4,6.2,7.6,10.5s1,8.8,0.5,13.2c-1,7.8-3.5,15.4-7.2,22.4"/>
<path class="st0" d="M185.1,36.8c0.1,12.7-4.4,25.4-12.5,35.1c-5.3,6.4-12.1,11.6-17.3,18.1"/>
<path class="st0" d="M177.8,74.9c-18.7,16.2-38.3,32.9-62.4,38.6"/>
<path class="st0" d="M158.3,101.1c-19.2,13.1-40.7,22.9-63.2,28.6c-1.8,0.5-4.5,0.5-4.9-1.4"/>
<path class="st0" d="M186.3,30.1c0-0.5,0-1.1,0-1.6c0.4,3.8-0.9,7.6-2.3,11.2c-4.4,11.5-9.4,22.7-15.1,33.6"/>
<path class="st0" d="M183.9,25c1.9,11,3.6,23-1.8,32.8"/>
<path class="st0" d="M176.9,27c3.2,2.4,4.8,6.4,5.6,10.3c1.5,6.9,1,14.2-1.4,20.9"/>
<path class="st0" d="M175,25c4.8,8.4,6.6,18.5,5,28.1"/>
<path class="st0" d="M164.3,16.9c9.5,2.3,17.3,10.3,19.3,19.8"/>
<path class="st0" d="M140.8,7c6.3-0.7,12.7-0.6,19,0.3c3.8,0.6,7.5,1.4,10.8,3.2c3.3,1.8,6.2,4.7,7.4,8.3"/>
<path class="st0" d="M113.8,3.5c14.1-2.1,28.6-0.8,42.1,3.7"/>
<path class="st0" d="M86,15.2c8.1-3.8,17.3-4.3,26.3-4.1s17.9,1.1,26.8-0.1"/>
<path class="st0" d="M75.1,9.4c16.1-5.3,33-7.9,50-7.7"/>
<path class="st0" d="M53.7,14.4C64,10.6,75.1,8.8,86.2,9.2c10,0.4,20.3,2.5,29.9-0.5"/>
<path class="st0" d="M50.4,18.1c-0.6-0.5,0.2-1.4,0.9-1.7c11-5,22.6-8.9,34.4-11.5"/>
<path class="st0" d="M32.6,25.2c9.5-8.9,21-15.6,33.4-19.5"/>
<path class="st0" d="M15.3,44c4.5-7.4,10.8-13.8,18.2-18.3"/>
<path class="st0" d="M4.9,68.4c7.8-10.3,15.7-20.6,23.5-31"/>
<path class="st0" d="M5.1,56.4c-4.7,14.2-4.5,30,0.5,44.1"/>
<path class="st0" d="M1.9,79.5c-0.8,8.3-0.2,16.8,1.8,24.9c1.4,5.5,3.5,11,7.7,14.8c3.8,3.5,8.8,5.1,13.7,6.7"/>
<path class="st0" d="M9.8,107.1c11.7,10.4,25.9,18.1,41,22.1"/>
<path class="st0" d="M26.1,125.6c2.2,3.5,6.3,5.1,10.3,6.1c14.4,3.7,30,2.4,43.5-3.6"/>
<path class="st0" d="M60.5,134.8c13.4-1.3,26.6-5.1,38.7-11"/>
<path class="st0" d="M77.8,134.5c11.2-5.5,22.7-10.5,34.3-15"/>
<path class="st0" d="M102.5,124.9c14-8.4,28.7-15.7,43.9-21.8"/>
<path class="st0" d="M117.3,117.4c8.2-3.9,16.1-8.5,23.4-13.8"/>
<path class="st0" d="M132.8,110.3c12.2-6.4,22.9-15.6,31.1-26.7"/>
<path class="st0" d="M177.9,70c-5,6.8-10.1,13.5-15.1,20.3"/>
<path class="st0" d="M180.6,67.1c-4.3,7.1-8.6,14.2-12.9,21.4"/>
<path class="st0" d="M181.7,61c1,7.8-0.2,15.8-3.2,23"/>
<path class="st0" d="M182.5,41.4c-5.3,11.8-10.6,23.5-15.9,35.3"/>
<path class="st0" d="M176,30.8c4.9,5.1,7.4,12.5,6.4,19.5"/>
</svg>
