<?xml version="1.0" encoding="utf-8"?>
<!-- Generator: Adobe Illustrator 22.1.0, SVG Export Plug-In . SVG Version: 6.00 Build 0)  -->
<svg version="1.1" id="Layer_1" xmlns="http://www.w3.org/2000/svg" xmlns:xlink="http://www.w3.org/1999/xlink" x="0px" y="0px"
	 viewBox="0 0 285.7 344.4" style="enable-background:new 0 0 285.7 344.4;" xml:space="preserve">
<style type="text/css">
	.st0{fill:none;stroke:#000000;stroke-miterlimit:10;}
</style>
<path class="st0" d="M9,49.9c33.7,79.8,60.5,162.5,80,246.9c2.2,9.4,4.2,19.2,1.6,28.5"/>
<path class="st0" d="M0.5,38.8C25.1,99.6,43.2,163,54.3,227.6"/>
<path class="st0" d="M20.3,61.6c13.6,56.9,46.3,110.9,41.6,169.2"/>
<path class="st0" d="M3.2,66.2C43.1,71.6,83,77,122.9,82.5c9.2,1.2,18.7,2.5,27.5-0.3c8.4,64.9,26.9,128.5,54.5,187.8
	c11.3,24.3,24.3,48.1,30.1,74.2"/>
<path class="st0" d="M107.2,328c39.7,1.9,79.2,6.5,118.3,13.7"/>
<path class="st0" d="M82.2,321.5c46.7,6.2,93.3,12.3,140,18.5"/>
<path class="st0" d="M75.2,321.6c49.9,6.8,100.3,10.1,150.6,9.9c8.5,0,17.1-0.2,25.4,1.8"/>
<path class="st0" d="M81.8,71.1c19.1-24,47.3-40.6,77.5-45.7c5.6-0.9,11.3-1.5,16.9-0.7c9.7,1.3,18.5,6.6,25.5,13.4
	s12.5,15,17.6,23.3c5.5,8.9,10.9,18.6,10.9,29.1c0,5-1.3,10-3.2,14.6c-3.8,9.1-9.9,17.1-16,24.8c-13.5,17.3-27.1,34.7-43.2,49.6"/>
<path class="st0" d="M81,70.4c24.6-18.3,53.4-30.8,83.5-36.4c10.1-1.9,21-2.9,30.4,1.3c4.7,2.1,8.8,5.5,12.3,9.4
	c11.3,12.7,15.4,30.7,13.2,47.5s-10.3,32.5-20.8,45.7c-10.6,13.3-23.6,24.4-36.9,34.9"/>
<path class="st0" d="M165.6,175.6c24.1,8.4,48.2,16.9,72.2,25.3c11.4,4,23.4,8.4,31.2,17.7c-1.3-1.9-2.6-3.8-3.8-5.8"/>
<path class="st0" d="M169.7,171c28.1,8.6,56.8,17.5,80.5,34.8c8,5.8,16.7,13,26.5,11.4"/>
<path class="st0" d="M285.3,217c-25.3,30.8-50.1,62.1-74.5,93.6"/>
<path class="st0" d="M279.5,214.7c-27.7,31.8-51.8,66.5-75.8,101.1"/>
<path class="st0" d="M77.2,71.9c14.6-13.2,29.6-25.9,45-38.1c3.1-2.5,6.2-4.9,9.9-6.4c4-1.6,8.4-2,12.8-2.3
	c12.7-0.9,25.8-1.3,37.8,3c21.1,7.7,34.8,30.1,36.1,52.6c1.2,22.5-8.4,44.5-22.5,62c-11.2,13.9-25.2,25.3-39.4,36.2"/>
<path class="st0" d="M68.3,88.5c27.3-26.3,61.5-45.5,98.2-54.9"/>
<path class="st0" d="M72.6,80.7C91,63.7,110,46.2,133.3,36.9c8.5-3.4,17.4-5.6,26.4-7"/>
<path class="st0" d="M132,41.5c9.5-5.4,20.9-6.8,31.7-5.4c10.8,1.4,21.1,5.4,31,10.2c3.3,1.6,6.5,3.3,9.3,5.6
	c9.5,8.3,10.5,22.4,10.8,35"/>
<path class="st0" d="M66.4,88.7c17.7-24.3,35.9-49.7,41-79.3"/>
<path class="st0" d="M76.2,73.9c4.7-12.6,9.8-25,15.6-37.1c4.5-9.6,9.5-19.8,8.2-30.3"/>
<path class="st0" d="M67.1,93.5c12.5-20.2,23.1-41.6,31.5-63.8c2.2-5.7,4.2-11.7,4.3-17.8"/>
<path class="st0" d="M69.8,0.6c40.1,14.2,81.5,24.8,123.6,31.4c-7.2-2-14.5-3.9-21.7-5.9"/>
<path class="st0" d="M81.7,8.7c34.6,5.5,68.5,15.9,100.2,30.8"/>
<path class="st0" d="M93.2,0.7c24,2.8,45.6,15.2,68.8,21.8c13.5,3.9,27.6,5.8,41.7,5.7"/>
<path class="st0" d="M90.6,4.6c27.7,6.2,55,13.7,81.9,22.6"/>
<path class="st0" d="M64.2,2.1c17.6-3.7,36-0.6,53.4,4.2s34.3,11.3,52.1,14.5"/>
</svg>
