<?xml version="1.0" encoding="utf-8" ?>
<svg baseProfile="full" height="344" version="1.1" viewBox="0,0,285,344" width="285" xmlns="http://www.w3.org/2000/svg" xmlns:ev="http://www.w3.org/2001/xml-events" xmlns:xlink="http://www.w3.org/1999/xlink"><defs><style type="text/css"><![CDATA[
	.background { fill: white; }
	.line { stroke: firebrick; stroke-width: .1mm; }
	.blacksquare { fill: indigo; }
	.whitesquare { fill: white; }
]]></style></defs><path d="M 279.000000 214.230000 L 278.674000 214.609000 L 278.347000 214.987000 L 278.021000 215.366000 L 277.695000 215.744000 L 277.368000 216.123000 L 277.042000 216.501000 L 276.716000 216.880000 L 276.390000 217.258000 L 276.065000 217.638000 L 275.740000 218.018000 L 275.416000 218.398000 L 275.091000 218.778000 L 274.767000 219.158000 L 274.443000 219.538000 L 274.118000 219.918000 L 273.794000 220.298000 L 273.471000 220.680000 L 273.149000 221.062000 L 272.827000 221.444000 L 272.505000 221.826000 L 272.182000 222.208000 L 271.860000 222.590000 L 271.538000 222.972000 L 271.216000 223.354000 L 270.896000 223.738000 L 270.576000 224.122000 L 270.257000 224.506000 L 269.938000 224.891000 L 269.618000 225.275000 L 269.299000 225.660000 L 268.980000 226.044000 L 268.660000 226.428000 L 268.342000 226.813000 L 268.025000 227.200000 L 267.708000 227.586000 L 267.391000 227.972000 L 267.074000 228.359000 L 266.757000 228.745000 L 266.440000 229.132000 L 266.123000 229.518000 L 265.807000 229.905000 L 265.492000 230.293000 L 265.178000 230.681000 L 264.863000 231.069000 L 264.548000 231.457000 L 264.234000 231.846000 L 263.919000 232.234000 L 263.604000 232.622000 L 263.290000 233.010000 L 262.977000 233.400000 L 262.665000 233.790000 L 262.352000 234.180000 L 262.040000 234.570000 L 261.728000 234.960000 L 261.415000 235.350000 L 261.103000 235.740000 L 260.790000 236.130000 L 260.480000 236.522000 L 260.169000 236.913000 L 259.859000 237.305000 L 259.549000 237.697000 L 259.238000 238.089000 L 258.928000 238.480000 L 258.618000 238.872000 L 258.308000 239.264000 L 257.999000 239.656000 L 257.690000 240.050000 L 257.382000 240.443000 L 257.074000 240.836000 L 256.766000 241.230000 L 256.457000 241.623000 L 256.149000 242.016000 L 255.841000 242.410000 L 255.534000 242.804000 L 255.228000 243.199000 L 254.921000 243.594000 L 254.615000 243.989000 L 254.309000 244.383000 L 254.003000 244.778000 L 253.696000 245.173000 L 253.390000 245.568000 L 253.085000 245.963000 L 252.780000 246.360000 L 252.476000 246.756000 L 252.172000 247.152000 L 251.867000 247.549000 L 251.563000 247.945000 L 251.259000 248.342000 L 250.954000 248.738000 L 250.650000 249.135000 L 250.348000 249.532000 L 250.045000 249.930000 L 249.743000 250.328000 L 249.440000 250.726000 L 249.138000 251.123000 L 248.835000 251.521000 L 248.533000 251.919000 L 248.230000 252.317000 L 247.929000 252.716000 L 247.629000 253.115000 L 247.328000 253.514000 L 247.027000 253.913000 L 246.726000 254.312000 L 246.425000 254.711000 L 246.125000 255.110000 L 245.824000 255.509000 L 245.524000 255.909000 L 245.225000 256.309000 L 244.926000 256.710000 L 244.627000 257.110000 L 244.328000 257.510000 L 244.029000 257.910000 L 243.730000 258.311000 L 243.430000 258.711000 L 243.132000 259.112000 L 242.835000 259.513000 L 242.537000 259.915000 L 242.240000 260.316000 L 241.942000 260.718000 L 241.644000 261.119000 L 241.347000 261.521000 L 241.049000 261.922000 L 240.752000 262.324000 L 240.456000 262.727000 L 240.160000 263.129000 L 239.864000 263.532000 L 239.568000 263.934000 L 239.272000 264.337000 L 238.976000 264.739000 L 238.679000 265.142000 L 238.384000 265.545000 L 238.089000 265.948000 L 237.794000 266.352000 L 237.500000 266.755000 L 237.205000 267.159000 L 236.910000 267.562000 L 236.615000 267.966000 L 236.320000 268.369000 L 236.026000 268.773000 L 235.733000 269.178000 L 235.439000 269.582000 L 235.146000 269.986000 L 234.852000 270.391000 L 234.559000 270.795000 L 234.265000 271.200000 L 233.972000 271.604000 L 233.678000 272.009000 L 233.386000 272.414000 L 233.094000 272.820000 L 232.802000 273.225000 L 232.509000 273.630000 L 232.217000 274.036000 L 231.925000 274.441000 L 231.633000 274.846000 L 231.340000 275.252000 L 231.049000 275.658000 L 230.758000 276.064000 L 230.467000 276.470000 L 230.176000 276.876000 L 229.885000 277.282000 L 229.594000 277.688000 L 229.302000 278.095000 L 229.011000 278.501000 L 228.721000 278.907000 L 228.431000 279.314000 L 228.141000 279.721000 L 227.851000 280.128000 L 227.561000 280.535000 L 227.271000 280.942000 L 226.980000 281.349000 L 226.690000 281.756000 L 226.401000 282.163000 L 226.112000 282.571000 L 225.823000 282.978000 L 225.533000 283.386000 L 225.244000 283.793000 L 224.955000 284.201000 L 224.666000 284.608000 L 224.377000 285.016000 L 224.088000 285.424000 L 223.800000 285.832000 L 223.511000 286.240000 L 223.223000 286.648000 L 222.935000 287.056000 L 222.646000 287.464000 L 222.358000 287.873000 L 222.070000 288.281000 L 221.782000 288.689000 L 221.494000 289.098000 L 221.207000 289.506000 L 220.919000 289.915000 L 220.631000 290.324000 L 220.344000 290.733000 L 220.056000 291.141000 L 219.769000 291.550000 L 219.481000 291.959000 L 219.194000 292.368000 L 218.907000 292.777000 L 218.621000 293.186000 L 218.334000 293.595000 L 218.047000 294.004000 L 217.760000 294.414000 L 217.473000 294.823000 L 217.186000 295.232000 L 216.900000 295.641000 L 216.613000 296.051000 L 216.327000 296.460000 L 216.041000 296.870000 L 215.754000 297.280000 L 215.468000 297.689000 L 215.182000 298.099000 L 214.895000 298.508000 L 214.609000 298.918000 L 214.324000 299.328000 L 214.038000 299.738000 L 213.752000 300.148000 L 213.466000 300.558000 L 213.180000 300.967000 L 212.894000 301.377000 L 212.609000 301.787000 L 212.323000 302.197000 L 212.038000 302.607000 L 211.752000 303.018000 L 211.467000 303.428000 L 211.181000 303.838000 L 210.896000 304.248000 L 210.610000 304.658000 L 210.325000 305.068000 L 210.039000 305.479000 L 209.754000 305.889000 L 209.469000 306.299000 L 209.184000 306.710000 L 208.899000 307.120000 L 208.614000 307.530000 L 208.328000 307.941000 L 208.043000 308.351000 L 207.758000 308.762000 L 207.473000 309.172000 L 207.188000 309.583000 L 206.903000 309.993000 L 206.618000 310.404000 L 206.333000 310.814000 L 206.048000 311.225000 L 205.763000 311.635000 L 205.478000 312.046000 L 205.194000 312.456000 L 204.909000 312.867000 L 204.624000 313.277000 L 204.339000 313.688000 L 204.054000 314.099000 L 203.770000 314.509000 L 203.485000 314.920000 L 203.200000 315.330000" fill="none" stroke="black" stroke-width="1.0" /><path d="M 10.290800 48.674500 L 11.052900 50.500700 L 11.806500 52.330500 L 12.551000 54.163900 L 13.281000 56.003100 L 13.991600 57.850000 L 14.682500 59.704300 L 15.363600 61.562200 L 16.034700 63.423800 L 16.699300 65.287700 L 17.361500 67.152400 L 18.021300 69.018000 L 18.681200 70.883600 L 19.342600 72.748600 L 20.008600 74.612000 L 20.676600 76.474700 L 21.348000 78.336100 L 22.022200 80.196600 L 22.698300 82.056300 L 23.380500 83.913800 L 24.066300 85.770000 L 24.755600 87.624900 L 25.447300 89.478900 L 26.141100 91.332200 L 26.838200 93.184200 L 27.536800 95.035500 L 28.238500 96.885800 L 28.941300 98.735600 L 29.644300 100.585000 L 30.350100 102.434000 L 31.056200 104.283000 L 31.764400 106.130000 L 32.472600 107.978000 L 33.179600 109.826000 L 33.888200 111.674000 L 34.596100 113.522000 L 35.304800 115.369000 L 36.012600 117.217000 L 36.718900 119.066000 L 37.424800 120.915000 L 38.129100 122.764000 L 38.832500 124.613000 L 39.534300 126.464000 L 40.234200 128.314000 L 40.932500 130.166000 L 41.628800 132.018000 L 42.323100 133.871000 L 43.014700 135.725000 L 43.703500 137.580000 L 44.389400 139.437000 L 45.071300 141.294000 L 45.751200 143.153000 L 46.426800 145.013000 L 47.098700 146.874000 L 47.767000 148.736000 L 48.429200 150.601000 L 49.090300 152.466000 L 49.745000 154.334000 L 50.395000 156.203000 L 51.041000 158.073000 L 51.678400 159.946000 L 52.316600 161.820000 L 52.944700 163.696000 L 53.566900 165.574000 L 54.185500 167.454000 L 54.792500 169.338000 L 55.403900 171.220000 L 55.998200 173.107000 L 56.585300 174.997000 L 57.170800 176.887000 L 57.740900 178.782000 L 58.323400 180.673000 L 58.879100 182.572000 L 59.423300 184.474000 L 59.968400 186.376000 L 60.489300 188.285000 L 61.029100 190.189000 L 61.545500 192.099000 L 62.037500 194.015000 L 62.528700 195.932000 L 62.995300 197.855000 L 63.471900 199.775000 L 63.936300 201.699000 L 64.377700 203.628000 L 64.814000 205.558000 L 65.233100 207.492000 L 65.645300 209.427000 L 66.042300 211.366000 L 66.422100 213.308000 L 66.794400 215.251000 L 67.159700 217.196000 L 67.523000 219.141000 L 67.875300 221.089000 L 68.218500 223.037000 L 68.561500 224.986000 L 68.905100 226.935000 L 69.254100 228.883000 L 69.611000 230.829000 L 69.984900 232.772000 L 70.380700 234.711000 L 70.804300 236.644000 L 71.261000 238.569000 L 71.749300 240.487000 L 72.266000 242.397000 L 72.807200 244.300000 L 73.364300 246.199000 L 73.928600 248.096000 L 74.496800 249.991000 L 75.063000 251.888000 L 75.625700 253.785000 L 76.185000 255.683000 L 76.740700 257.582000 L 77.292800 259.482000 L 77.841200 261.384000 L 78.385900 263.286000 L 78.927000 265.189000 L 79.464300 267.094000 L 79.998000 268.999000 L 80.527900 270.906000 L 81.054200 272.814000 L 81.577000 274.722000 L 82.096100 276.632000 L 82.612000 278.542000 L 83.124300 280.453000 L 83.633800 282.365000 L 84.139700 284.279000 L 84.643300 286.192000 L 85.143000 288.107000 L 85.639900 290.022000 L 86.131900 291.939000 L 86.621100 293.856000 L 87.102200 295.776000 L 87.576400 297.697000 L 88.041400 299.620000 L 88.486400 301.548000 L 88.909100 303.481000 L 89.297200 305.421000 L 89.641800 307.369000 L 89.933000 309.325000 L 90.158300 311.290000 L 90.310500 313.261000 L 90.385200 315.236000 L 90.380300 317.213000 L 90.307100 319.189000 L 90.182400 321.164000 L 90.029000 323.136000" fill="none" stroke="black" stroke-width="1.0" /><path d="M 0.000000 38.330400 L 0.185507 38.793900 L 0.371014 39.257400 L 0.556520 39.720800 L 0.742027 40.184300 L 0.927534 40.647800 L 1.113040 41.111300 L 1.298550 41.574700 L 1.484050 42.038200 L 1.669560 42.501700 L 1.854790 42.965200 L 2.038440 43.429400 L 2.222090 43.893600 L 2.405740 44.357900 L 2.589400 44.822100 L 2.773050 45.286300 L 2.956700 45.750500 L 3.140350 46.214700 L 3.324000 46.678900 L 3.507650 47.143100 L 3.690600 47.607600 L 3.871890 48.072700 L 4.053180 48.537800 L 4.234470 49.003000 L 4.415770 49.468100 L 4.597060 49.933200 L 4.778350 50.398400 L 4.959640 50.863500 L 5.140940 51.328600 L 5.322230 51.793800 L 5.502300 52.259400 L 5.680870 52.725600 L 5.859440 53.191700 L 6.038000 53.657900 L 6.216570 54.124100 L 6.395140 54.590300 L 6.573710 55.056500 L 6.752280 55.522700 L 6.930850 55.988800 L 7.109420 56.455000 L 7.286470 56.921800 L 7.462500 57.388900 L 7.638520 57.856100 L 7.814550 58.323200 L 7.990580 58.790400 L 8.166610 59.257500 L 8.342640 59.724700 L 8.518670 60.191800 L 8.694690 60.659000 L 8.870720 61.126100 L 9.044920 61.594000 L 9.218500 62.062000 L 9.392080 62.530100 L 9.565660 62.998200 L 9.739240 63.466200 L 9.912820 63.934300 L 10.086400 64.402400 L 10.260000 64.870400 L 10.433600 65.338500 L 10.607100 65.806600 L 10.778400 66.275500 L 10.949500 66.744500 L 11.120500 67.213500 L 11.291600 67.682500 L 11.462600 68.151500 L 11.633700 68.620400 L 11.804700 69.089400 L 11.975800 69.558400 L 12.146800 70.027400 L 12.317800 70.496500 L 12.486300 70.966400 L 12.654900 71.436300 L 12.823500 71.906100 L 12.992100 72.376000 L 13.160600 72.845900 L 13.329200 73.315800 L 13.497800 73.785700 L 13.666400 74.255600 L 13.834900 74.725500 L 14.003000 75.195600 L 14.169100 75.666400 L 14.335100 76.137100 L 14.501200 76.607900 L 14.667200 77.078700 L 14.833300 77.549500 L 14.999300 78.020300 L 15.165300 78.491100 L 15.331400 78.961900 L 15.497400 79.432700 L 15.662600 79.903800 L 15.826200 80.375400 L 15.989700 80.847100 L 16.153300 81.318800 L 16.316800 81.790400 L 16.480400 82.262100 L 16.643900 82.733800 L 16.807500 83.205400 L 16.971000 83.677100 L 17.134600 84.148700 L 17.296900 84.620800 L 17.457900 85.093400 L 17.618900 85.565900 L 17.779900 86.038400 L 17.941000 86.511000 L 18.102000 86.983500 L 18.263000 87.456000 L 18.424000 87.928600 L 18.585100 88.401100 L 18.746100 88.873600 L 18.905500 89.346700 L 19.064000 89.820100 L 19.222500 90.293500 L 19.381000 90.766800 L 19.539500 91.240200 L 19.698000 91.713600 L 19.856500 92.187000 L 20.015000 92.660400 L 20.173500 93.133800 L 20.332100 93.607100 L 20.488500 94.081200 L 20.644500 94.555400 L 20.800500 95.029600 L 20.956500 95.503900 L 21.112500 95.978100 L 21.268500 96.452300 L 21.424400 96.926500 L 21.580400 97.400700 L 21.736400 97.874900 L 21.892400 98.349200 L 22.046000 98.824200 L 22.199400 99.299200 L 22.352900 99.774300 L 22.506300 100.249000 L 22.659800 100.724000 L 22.813200 101.199000 L 22.966600 101.674000 L 23.120100 102.150000 L 23.273500 102.625000 L 23.426700 103.100000 L 23.577700 103.576000 L 23.728600 104.051000 L 23.879500 104.527000 L 24.030400 105.003000 L 24.181300 105.479000 L 24.332200 105.955000 L 24.483200 106.431000 L 24.634100 106.907000 L 24.785000 107.382000 L 24.935300 107.858000 L 25.083700 108.335000 L 25.232000 108.812000 L 25.380400 109.288000 L 25.528800 109.765000 L 25.677100 110.242000 L 25.825500 110.718000 L 25.973900 111.195000 L 26.122200 111.672000 L 26.270600 112.148000 L 26.418000 112.625000 L 26.563800 113.103000 L 26.709600 113.580000 L 26.855400 114.058000 L 27.001300 114.535000 L 27.147100 115.013000 L 27.292900 115.490000 L 27.438800 115.967000 L 27.584600 116.445000 L 27.730400 116.922000 L 27.874900 117.400000 L 28.018100 117.878000 L 28.161400 118.357000 L 28.304700 118.835000 L 28.448000 119.313000 L 28.591200 119.791000 L 28.734500 120.269000 L 28.877800 120.748000 L 29.021000 121.226000 L 29.164300 121.704000 L 29.305800 122.183000 L 29.446500 122.662000 L 29.587300 123.141000 L 29.728000 123.620000 L 29.868700 124.099000 L 30.009400 124.578000 L 30.150200 125.057000 L 30.290900 125.536000 L 30.431600 126.015000 L 30.572300 126.494000 L 30.710900 126.973000 L 30.849000 127.453000 L 30.987200 127.933000 L 31.125300 128.412000 L 31.263500 128.892000 L 31.401700 129.372000 L 31.539800 129.851000 L 31.678000 130.331000 L 31.816100 130.811000 L 31.954300 131.291000 L 32.089900 131.771000 L 32.225500 132.251000 L 32.361100 132.732000 L 32.496700 133.212000 L 32.632300 133.693000 L 32.767900 134.173000 L 32.903500 134.654000 L 33.039100 135.134000 L 33.174700 135.615000 L 33.309900 136.095000 L 33.442900 136.576000 L 33.575900 137.057000 L 33.708900 137.539000 L 33.842000 138.020000 L 33.975000 138.501000 L 34.108000 138.982000 L 34.241000 139.463000 L 34.374100 139.944000 L 34.507100 140.426000 L 34.639300 140.907000 L 34.769800 141.389000 L 34.900200 141.871000 L 35.030700 142.353000 L 35.161100 142.834000 L 35.291600 143.316000 L 35.422000 143.798000 L 35.552500 144.280000 L 35.682900 144.762000 L 35.813300 145.244000 L 35.942600 145.726000 L 36.070500 146.209000 L 36.198400 146.691000 L 36.326300 147.174000 L 36.454100 147.656000 L 36.582000 148.139000 L 36.709900 148.621000 L 36.837800 149.104000 L 36.965600 149.586000 L 37.093500 150.069000 L 37.219800 150.552000 L 37.345100 151.035000 L 37.470400 151.519000 L 37.595600 152.002000 L 37.720900 152.485000 L 37.846200 152.968000 L 37.971400 153.451000 L 38.096700 153.935000 L 38.222000 154.418000 L 38.347200 154.901000 L 38.470600 155.385000 L 38.593300 155.869000 L 38.716000 156.353000 L 38.838700 156.837000 L 38.961400 157.321000 L 39.084100 157.804000 L 39.206800 158.288000 L 39.329500 158.772000 L 39.452200 159.256000 L 39.574900 159.740000 L 39.695200 160.225000 L 39.815300 160.709000 L 39.935400 161.194000 L 40.055500 161.678000 L 40.175500 162.163000 L 40.295600 162.647000 L 40.415700 163.132000 L 40.535800 163.616000 L 40.655900 164.101000 L 40.775800 164.586000 L 40.893300 165.071000 L 41.010800 165.556000 L 41.128300 166.041000 L 41.245800 166.526000 L 41.363400 167.012000 L 41.480900 167.497000 L 41.598400 167.982000 L 41.715900 168.467000 L 41.833400 168.952000 L 41.950400 169.438000 L 42.065200 169.923000 L 42.180100 170.409000 L 42.295000 170.895000 L 42.409900 171.381000 L 42.524700 171.867000 L 42.639600 172.352000 L 42.754500 172.838000 L 42.869300 173.324000 L 42.984200 173.810000 L 43.098200 174.296000 L 43.210500 174.782000 L 43.322800 175.269000 L 43.435100 175.755000 L 43.547400 176.242000 L 43.659700 176.728000 L 43.771900 177.215000 L 43.884200 177.701000 L 43.996500 178.187000 L 44.108800 178.674000 L 44.219800 179.160000 L 44.329400 179.648000 L 44.439100 180.135000 L 44.548700 180.622000 L 44.658400 181.109000 L 44.768000 181.596000 L 44.877700 182.083000 L 44.987300 182.570000 L 45.097000 183.057000 L 45.206600 183.544000 L 45.314600 184.031000 L 45.421700 184.519000 L 45.528700 185.006000 L 45.635800 185.494000 L 45.742800 185.982000 L 45.849900 186.469000 L 45.956900 186.957000 L 46.064000 187.444000 L 46.171000 187.932000 L 46.278100 188.420000 L 46.383000 188.908000 L 46.487400 189.396000 L 46.591800 189.884000 L 46.696300 190.372000 L 46.800700 190.860000 L 46.905100 191.348000 L 47.009500 191.837000 L 47.113900 192.325000 L 47.218300 192.813000 L 47.322700 193.301000 L 47.424600 193.790000 L 47.526400 194.279000 L 47.628200 194.767000 L 47.730000 195.256000 L 47.831800 195.745000 L 47.933600 196.233000 L 48.035400 196.722000 L 48.137200 197.211000 L 48.239000 197.700000 L 48.340500 198.188000 L 48.439700 198.678000 L 48.538800 199.167000 L 48.638000 199.656000 L 48.737100 200.145000 L 48.836300 200.635000 L 48.935400 201.124000 L 49.034600 201.613000 L 49.133700 202.103000 L 49.232900 202.592000 L 49.331400 203.081000 L 49.427900 203.571000 L 49.524400 204.061000 L 49.620900 204.551000 L 49.717400 205.040000 L 49.813900 205.530000 L 49.910500 206.020000 L 50.007000 206.510000 L 50.103500 207.000000 L 50.200000 207.489000 L 50.295500 207.979000 L 50.389300 208.470000 L 50.483200 208.960000 L 50.577100 209.450000 L 50.670900 209.941000 L 50.764800 210.431000 L 50.858700 210.921000 L 50.952600 211.412000 L 51.046400 211.902000 L 51.140300 212.392000 L 51.232500 212.883000 L 51.323400 213.374000 L 51.414300 213.865000 L 51.505200 214.355000 L 51.596100 214.846000 L 51.687000 215.337000 L 51.777900 215.828000 L 51.868700 216.319000 L 51.959600 216.810000 L 52.050500 217.301000 L 52.139700 217.792000 L 52.228100 218.283000 L 52.316500 218.774000 L 52.404900 219.266000 L 52.493300 219.757000 L 52.581700 220.248000 L 52.670200 220.740000 L 52.758600 221.231000 L 52.847000 221.722000 L 52.935400 222.214000 L 53.022100 222.705000 L 53.108600 223.197000 L 53.195000 223.689000 L 53.281400 224.180000 L 53.367900 224.672000 L 53.454300 225.164000 L 53.540700 225.655000 L 53.627100 226.147000 L 53.713600 226.639000 L 53.800000 227.130000" fill="none" stroke="black" stroke-width="1.0" /><path d="M 2.700000 65.730400 L 4.681290 65.998600 L 6.662580 66.266700 L 8.643870 66.534900 L 10.625200 66.803100 L 12.606400 67.071200 L 14.587700 67.339400 L 16.569000 67.607600 L 18.550300 67.875900 L 20.531600 68.144100 L 22.512800 68.412400 L 24.494100 68.680700 L 26.475400 68.949000 L 28.456600 69.217400 L 30.437900 69.485800 L 32.419100 69.754200 L 34.400400 70.022700 L 36.381600 70.291200 L 38.362900 70.559700 L 40.344100 70.828300 L 42.325300 71.097000 L 44.306500 71.365700 L 46.287700 71.634500 L 48.268900 71.903300 L 50.250100 72.172200 L 52.231300 72.441100 L 54.212500 72.710200 L 56.193600 72.979200 L 58.174800 73.248400 L 60.155900 73.517700 L 62.137100 73.787000 L 64.118200 74.056400 L 66.099300 74.325800 L 68.080400 74.595400 L 70.061500 74.865000 L 72.042500 75.134800 L 74.023600 75.404600 L 76.004700 75.674500 L 77.985700 75.944600 L 79.966700 76.214700 L 81.947700 76.484900 L 83.928700 76.755300 L 85.909700 77.025700 L 87.890600 77.296300 L 89.871600 77.567000 L 91.852500 77.837800 L 93.833400 78.108700 L 95.814300 78.379700 L 97.795200 78.650900 L 99.776100 78.922100 L 101.757000 79.193600 L 103.738000 79.465100 L 105.719000 79.736800 L 107.699000 80.008700 L 109.680000 80.280600 L 111.661000 80.552900 L 113.642000 80.825200 L 115.622000 81.097300 L 117.603000 81.368500 L 119.584000 81.639800 L 121.566000 81.903400 L 123.548000 82.165100 L 125.532000 82.416000 L 127.518000 82.645100 L 129.504000 82.874200 L 131.497000 83.037600 L 133.490000 83.190600 L 135.489000 83.228400 L 137.487000 83.266200 L 139.482000 83.164600 L 141.476000 83.056500 L 143.461000 82.824900 L 145.440000 82.548400 L 147.415000 82.238300 L 149.384000 81.889800" fill="none" stroke="black" stroke-width="1.0" /><path d="M 149.384000 81.889800 L 149.748000 83.845300 L 150.108000 85.801500 L 150.465000 87.758300 L 150.818000 89.715800 L 151.160000 91.675400 L 151.501000 93.635100 L 151.828000 95.597100 L 152.150000 97.560000 L 152.467000 99.523700 L 152.785000 101.487000 L 153.103000 103.451000 L 153.432000 105.412000 L 153.765000 107.374000 L 154.103000 109.334000 L 154.443000 111.293000 L 154.798000 113.251000 L 155.154000 115.208000 L 155.518000 117.163000 L 155.889000 119.118000 L 156.261000 121.072000 L 156.647000 123.023000 L 157.032000 124.974000 L 157.428000 126.924000 L 157.828000 128.872000 L 158.231000 130.820000 L 158.647000 132.765000 L 159.063000 134.710000 L 159.489000 136.653000 L 159.919000 138.595000 L 160.353000 140.537000 L 160.799000 142.475000 L 161.244000 144.414000 L 161.701000 146.350000 L 162.161000 148.285000 L 162.626000 150.219000 L 163.101000 152.150000 L 163.577000 154.082000 L 164.063000 156.011000 L 164.554000 157.938000 L 165.048000 159.865000 L 165.553000 161.789000 L 166.058000 163.713000 L 166.575000 165.634000 L 167.095000 167.554000 L 167.620000 169.472000 L 168.154000 171.388000 L 168.689000 173.304000 L 169.236000 175.217000 L 169.785000 177.128000 L 170.340000 179.039000 L 170.904000 180.946000 L 171.468000 182.854000 L 172.045000 184.757000 L 172.623000 186.660000 L 173.208000 188.562000 L 173.801000 190.460000 L 174.394000 192.359000 L 175.000000 194.253000 L 175.608000 196.147000 L 176.222000 198.039000 L 176.844000 199.929000 L 177.467000 201.818000 L 178.102000 203.703000 L 178.739000 205.587000 L 179.383000 207.469000 L 180.034000 209.349000 L 180.686000 211.228000 L 181.351000 213.103000 L 182.016000 214.977000 L 182.689000 216.849000 L 183.369000 218.718000 L 184.050000 220.587000 L 184.744000 222.452000 L 185.438000 224.316000 L 186.140000 226.177000 L 186.849000 228.035000 L 187.559000 229.893000 L 188.281000 231.747000 L 189.004000 233.600000 L 189.735000 235.450000 L 190.473000 237.297000 L 191.211000 239.144000 L 191.963000 240.986000 L 192.714000 242.828000 L 193.474000 244.666000 L 194.239000 246.502000 L 195.007000 248.337000 L 195.786000 250.167000 L 196.566000 251.997000 L 197.355000 253.823000 L 198.149000 255.647000 L 198.945000 257.470000 L 199.753000 259.287000 L 200.560000 261.105000 L 201.378000 262.918000 L 202.200000 264.730000 L 203.025000 266.540000 L 203.861000 268.344000 L 204.699000 270.149000 L 205.545000 271.949000 L 206.394000 273.747000 L 207.245000 275.546000 L 208.097000 277.343000 L 208.950000 279.140000 L 209.808000 280.935000 L 210.668000 282.728000 L 211.527000 284.522000 L 212.387000 286.316000 L 213.246000 288.110000 L 214.101000 289.906000 L 214.955000 291.702000 L 215.806000 293.500000 L 216.650000 295.301000 L 217.493000 297.103000 L 218.325000 298.910000 L 219.154000 300.718000 L 219.977000 302.529000 L 220.786000 304.346000 L 221.596000 306.163000 L 222.384000 307.989000 L 223.170000 309.816000 L 223.943000 311.649000 L 224.698000 313.489000 L 225.453000 315.330000 L 226.178000 317.182000 L 226.899000 319.036000 L 227.603000 320.896000 L 228.283000 322.765000 L 228.961000 324.635000 L 229.601000 326.519000 L 230.235000 328.404000 L 230.843000 330.298000 L 231.417000 332.202000 L 231.991000 334.107000 L 232.516000 336.026000 L 233.038000 337.945000 L 233.540000 339.870000 L 234.020000 341.800000 L 234.500000 343.730000" fill="none" stroke="black" stroke-width="1.0" /><path d="M 74.673200 321.139000 L 75.168400 321.204000 L 75.663700 321.270000 L 76.158900 321.335000 L 76.654100 321.400000 L 77.149400 321.466000 L 77.644600 321.531000 L 78.139900 321.596000 L 78.635100 321.661000 L 79.130400 321.726000 L 79.625700 321.791000 L 80.121000 321.856000 L 80.616300 321.921000 L 81.111600 321.986000 L 81.606900 322.051000 L 82.102200 322.115000 L 82.597500 322.180000 L 83.092800 322.245000 L 83.588100 322.309000 L 84.083500 322.374000 L 84.578900 322.438000 L 85.074300 322.502000 L 85.569800 322.565000 L 86.065200 322.629000 L 86.560700 322.692000 L 87.056100 322.756000 L 87.551500 322.821000 L 88.046900 322.885000 L 88.542300 322.949000 L 89.037900 323.011000 L 89.533500 323.074000 L 90.029000 323.136000 L 90.524600 323.199000 L 91.020100 323.262000 L 91.515600 323.326000 L 92.011100 323.389000 L 92.506600 323.452000 L 93.002300 323.514000 L 93.498000 323.576000 L 93.993600 323.638000 L 94.489300 323.700000 L 94.985100 323.761000 L 95.480900 323.821000 L 95.976700 323.882000 L 96.472600 323.943000 L 96.968400 324.004000 L 97.464200 324.064000 L 97.960000 324.125000 L 98.455900 324.186000 L 98.952000 324.243000 L 99.448200 324.301000 L 99.944400 324.359000 L 100.441000 324.417000 L 100.937000 324.475000 L 101.433000 324.534000 L 101.929000 324.593000 L 102.425000 324.651000 L 102.921000 324.705000 L 103.418000 324.760000 L 103.914000 324.814000 L 104.411000 324.868000 L 104.908000 324.919000 L 105.405000 324.970000 L 105.902000 325.021000 L 106.399000 325.072000 L 106.896000 325.118000 L 107.394000 325.165000 L 107.891000 325.211000 L 108.388000 325.257000 L 108.886000 325.304000 L 109.383000 325.350000 L 109.880000 325.396000 L 110.378000 325.443000 L 110.875000 325.488000 L 111.373000 325.534000 L 111.870000 325.579000 L 112.367000 325.625000 L 112.865000 325.670000 L 113.362000 325.715000 L 113.860000 325.761000 L 114.357000 325.806000 L 114.855000 325.853000 L 115.352000 325.899000 L 115.849000 325.945000 L 116.347000 325.992000 L 116.844000 326.038000 L 117.342000 326.084000 L 117.839000 326.130000 L 118.336000 326.176000 L 118.834000 326.222000 L 119.331000 326.268000 L 119.829000 326.314000 L 120.326000 326.360000 L 120.823000 326.406000 L 121.321000 326.451000 L 121.818000 326.497000 L 122.316000 326.542000 L 122.813000 326.587000 L 123.311000 326.632000 L 123.808000 326.677000 L 124.306000 326.722000 L 124.803000 326.767000 L 125.301000 326.812000 L 125.798000 326.858000 L 126.296000 326.903000 L 126.793000 326.946000 L 127.291000 326.989000 L 127.789000 327.033000 L 128.286000 327.077000 L 128.784000 327.122000 L 129.281000 327.168000 L 129.778000 327.213000 L 130.276000 327.258000 L 130.774000 327.301000 L 131.271000 327.344000 L 131.769000 327.386000 L 132.267000 327.429000 L 132.764000 327.473000 L 133.262000 327.517000 L 133.759000 327.562000 L 134.257000 327.605000 L 134.755000 327.648000 L 135.252000 327.691000 L 135.750000 327.733000 L 136.248000 327.776000 L 136.745000 327.819000 L 137.243000 327.862000 L 137.741000 327.905000 L 138.238000 327.948000 L 138.736000 327.990000 L 139.234000 328.033000 L 139.732000 328.075000 L 140.229000 328.117000 L 140.727000 328.159000 L 141.225000 328.202000 L 141.723000 328.244000 L 142.220000 328.287000 L 142.718000 328.331000 L 143.215000 328.375000 L 143.713000 328.419000 L 144.211000 328.462000 L 144.709000 328.502000 L 145.207000 328.542000 L 145.704000 328.583000 L 146.202000 328.623000 L 146.700000 328.664000 L 147.198000 328.705000 L 147.696000 328.746000 L 148.194000 328.787000 L 148.692000 328.827000 L 149.190000 328.867000 L 149.687000 328.907000 L 150.185000 328.947000 L 150.683000 328.988000 L 151.181000 329.029000 L 151.679000 329.069000 L 152.177000 329.111000 L 152.674000 329.154000 L 153.172000 329.196000 L 153.670000 329.239000 L 154.168000 329.280000 L 154.665000 329.321000 L 155.163000 329.362000 L 155.661000 329.403000 L 156.159000 329.444000 L 156.657000 329.486000 L 157.154000 329.529000 L 157.652000 329.571000 L 158.150000 329.612000 L 158.648000 329.652000 L 159.146000 329.692000 L 159.644000 329.731000 L 160.142000 329.771000 L 160.640000 329.812000 L 161.137000 329.853000 L 161.635000 329.894000 L 162.133000 329.935000 L 162.631000 329.975000 L 163.129000 330.016000 L 163.627000 330.056000 L 164.125000 330.097000 L 164.623000 330.137000 L 165.120000 330.177000 L 165.618000 330.218000 L 166.116000 330.259000 L 166.614000 330.300000 L 167.112000 330.342000 L 167.609000 330.383000 L 168.107000 330.424000 L 168.605000 330.463000 L 169.103000 330.502000 L 169.601000 330.541000 L 170.099000 330.581000 L 170.597000 330.622000 L 171.095000 330.663000 L 171.593000 330.704000 L 172.091000 330.744000 L 172.589000 330.782000 L 173.087000 330.820000 L 173.585000 330.859000 L 174.083000 330.897000 L 174.581000 330.936000 L 175.079000 330.975000 L 175.577000 331.014000 L 176.075000 331.053000 L 176.573000 331.092000 L 177.071000 331.131000 L 177.569000 331.170000 L 178.067000 331.208000 L 178.565000 331.246000 L 179.063000 331.284000 L 179.561000 331.321000 L 180.059000 331.359000 L 180.557000 331.397000 L 181.055000 331.436000 L 181.554000 331.474000 L 182.052000 331.511000 L 182.550000 331.548000 L 183.048000 331.584000 L 183.546000 331.621000 L 184.044000 331.658000 L 184.542000 331.695000 L 185.041000 331.733000 L 185.539000 331.770000 L 186.037000 331.807000 L 186.535000 331.845000 L 187.033000 331.883000 L 187.531000 331.920000 L 188.029000 331.957000 L 188.528000 331.993000 L 189.026000 332.030000 L 189.524000 332.066000 L 190.022000 332.103000 L 190.520000 332.140000 L 191.018000 332.178000 L 191.516000 332.215000 L 192.015000 332.250000 L 192.513000 332.285000 L 193.011000 332.320000 L 193.510000 332.355000 L 194.008000 332.391000 L 194.506000 332.427000 L 195.004000 332.463000 L 195.502000 332.500000 L 196.001000 332.536000 L 196.499000 332.572000 L 196.997000 332.608000 L 197.495000 332.644000 L 197.994000 332.680000 L 198.492000 332.716000 L 198.990000 332.752000 L 199.488000 332.788000 L 199.987000 332.824000 L 200.485000 332.859000 L 200.983000 332.895000 L 201.481000 332.931000 L 201.980000 332.966000 L 202.478000 333.001000 L 202.976000 333.037000 L 203.474000 333.072000 L 203.973000 333.107000 L 204.471000 333.142000 L 204.969000 333.177000 L 205.468000 333.212000 L 205.966000 333.246000 L 206.464000 333.280000 L 206.963000 333.313000 L 207.461000 333.347000 L 207.959000 333.381000 L 208.458000 333.415000 L 208.956000 333.448000 L 209.455000 333.482000 L 209.953000 333.515000 L 210.451000 333.548000 L 210.950000 333.581000 L 211.448000 333.614000 L 211.947000 333.647000 L 212.445000 333.681000 L 212.944000 333.714000 L 213.442000 333.748000 L 213.940000 333.781000 L 214.439000 333.814000 L 214.937000 333.848000 L 215.436000 333.881000 L 215.934000 333.915000 L 216.432000 333.950000 L 216.931000 333.984000 L 217.429000 334.019000 L 217.927000 334.055000 L 218.425000 334.091000 L 218.924000 334.127000 L 219.422000 334.163000 L 219.920000 334.199000 L 220.418000 334.234000 L 220.917000 334.270000 L 221.415000 334.305000 L 221.913000 334.341000 L 222.411000 334.377000 L 222.910000 334.412000 L 223.408000 334.447000 L 223.906000 334.482000 L 224.404000 334.516000 L 224.903000 334.551000 L 225.401000 334.586000 L 225.899000 334.621000 L 226.398000 334.656000 L 226.896000 334.691000 L 227.394000 334.726000 L 227.892000 334.763000 L 228.391000 334.799000 L 228.889000 334.836000 L 229.387000 334.872000 L 229.885000 334.909000 L 230.383000 334.946000 L 230.882000 334.983000 L 231.380000 335.019000 L 231.878000 335.056000 L 232.376000 335.093000 L 232.874000 335.130000 L 233.372000 335.167000 L 233.870000 335.205000 L 234.368000 335.244000 L 234.866000 335.282000 L 235.365000 335.321000 L 235.862000 335.360000 L 236.360000 335.399000 L 236.858000 335.439000 L 237.356000 335.478000 L 237.854000 335.517000 L 238.352000 335.557000 L 238.850000 335.596000 L 239.348000 335.636000 L 239.846000 335.675000 L 240.344000 335.714000 L 240.842000 335.754000 L 241.340000 335.792000 L 241.838000 335.831000 L 242.336000 335.869000 L 242.834000 335.907000 L 243.332000 335.949000 L 243.830000 335.993000 L 244.327000 336.036000 L 244.825000 336.079000 L 245.322000 336.128000 L 245.819000 336.179000 L 246.316000 336.230000 L 246.813000 336.280000 L 247.309000 336.337000 L 247.805000 336.395000 L 248.302000 336.453000 L 248.798000 336.511000 L 249.293000 336.575000 L 249.788000 336.639000 L 250.284000 336.704000 L 250.779000 336.768000" fill="none" stroke="black" stroke-width="1.0" /><path d="M 65.747100 89.575500 L 67.104200 88.130700 L 68.458600 86.683300 L 69.814900 85.237800 L 71.173800 83.794600 L 72.542100 82.360400 L 73.920200 80.935500 L 75.306900 79.519100 L 76.705000 78.113900 L 78.109300 76.714900 L 79.527900 75.330500 L 80.949800 73.949400 L 82.384200 72.581200 L 83.825100 71.220000 L 85.277700 69.871100 L 86.738000 68.530700 L 88.212300 67.205700 L 89.694200 65.889200 L 91.183600 64.581200 L 92.687900 63.290300 L 94.203500 62.012700 L 95.730600 60.748900 L 97.271900 59.502500 L 98.829800 58.276900 L 100.399000 57.065600 L 101.982000 55.872200 L 103.576000 54.694500 L 105.181000 53.531600 L 106.800000 52.387000 L 108.431000 51.260800 L 110.075000 50.153300 L 111.730000 49.062100 L 113.394000 47.985000 L 115.069000 46.924900 L 116.756000 45.885000 L 118.455000 44.864000 L 120.167000 43.864000 L 121.893000 42.890200 L 123.635000 41.942900 L 125.389000 41.021000 L 127.158000 40.126600 L 128.942000 39.262800 L 130.742000 38.430900 L 132.556000 37.632400 L 134.385000 36.869100 L 136.230000 36.143000 L 138.089000 35.456400 L 139.963000 34.811000 L 141.851000 34.207600 L 143.752000 33.646100 L 145.665000 33.126500 L 147.589000 32.648400 L 149.522000 32.211300 L 151.465000 31.815700 L 153.415000 31.461600 L 155.372000 31.148800 L 157.336000 30.878900 L 159.305000 30.652400 L 161.279000 30.472400 L 163.258000 30.348000 L 165.239000 30.284400 L 167.221000 30.264000 L 169.203000 30.286100 L 171.183000 30.373800 L 173.158000 30.535800 L 175.126000 30.773900 L 177.084000 31.079800 L 179.031000 31.453700 L 180.965000 31.885900 L 182.887000 32.373100 L 184.790000 32.927400 L 186.670000 33.553800 L 188.523000 34.258400 L 190.348000 35.031600 L 192.128000 35.901700 L 193.865000 36.856100 L 195.581000 37.849600 L 197.271000 38.884600 L 198.922000 39.981500 L 200.520000 41.154300 L 202.066000 42.394400 L 203.558000 43.698400 L 204.999000 45.059400 L 206.385000 46.475900 L 207.708000 47.951700 L 208.980000 49.471800 L 210.184000 51.046700 L 211.332000 52.662400 L 212.408000 54.326300 L 213.423000 56.029200 L 214.375000 57.767300 L 215.266000 59.537900 L 216.093000 61.339300 L 216.842000 63.174200 L 217.534000 65.031500 L 218.189000 66.902500 L 218.805000 68.786300 L 219.369000 70.686700 L 219.878000 72.602200 L 220.335000 74.530900 L 220.733000 76.472700 L 221.067000 78.426300 L 221.337000 80.389900 L 221.537000 82.361800 L 221.674000 84.339200 L 221.747000 86.319900 L 221.761000 88.301900 L 221.709000 90.283300 L 221.590000 92.261800 L 221.401000 94.234600 L 221.142000 96.199700 L 220.848000 98.160100 L 220.481000 100.108000 L 219.974000 102.023000 L 219.381000 103.914000 L 218.756000 105.795000 L 218.100000 107.665000 L 217.425000 109.529000 L 216.720000 111.382000 L 215.968000 113.216000 L 215.168000 115.029000 L 214.301000 116.812000 L 213.378000 118.566000 L 212.419000 120.300000 L 211.426000 122.016000 L 210.405000 123.715000 L 209.356000 125.397000 L 208.280000 127.061000 L 207.180000 128.711000 L 206.057000 130.344000 L 204.915000 131.964000 L 203.753000 133.570000 L 202.572000 135.162000 L 201.373000 136.741000 L 200.157000 138.306000 L 198.924000 139.858000 L 197.675000 141.397000 L 196.409000 142.922000 L 195.127000 144.434000 L 193.831000 145.934000 L 192.520000 147.421000 L 191.195000 148.895000 L 189.856000 150.357000 L 188.506000 151.808000 L 187.145000 153.249000 L 185.769000 154.676000 L 184.379000 156.089000 L 182.986000 157.499000 L 181.579000 158.896000 L 180.165000 160.285000 L 178.740000 161.663000 L 177.307000 163.032000 L 175.865000 164.392000 L 174.415000 165.743000 L 172.950000 167.079000 L 171.469000 168.395000 L 169.982000 169.707000 L 168.494000 171.016000 L 167.015000 172.335000 L 165.547000 173.667000 L 164.083000 175.003000 L 162.621000 176.342000 L 161.162000 177.683000" fill="none" stroke="black" stroke-width="1.0" /><path d="M 169.022000 170.198000 L 170.873000 170.788000 L 172.723000 171.380000 L 174.573000 171.971000 L 176.422000 172.566000 L 178.271000 173.161000 L 180.119000 173.759000 L 181.967000 174.358000 L 183.815000 174.959000 L 185.660000 175.566000 L 187.504000 176.174000 L 189.347000 176.789000 L 191.188000 177.408000 L 193.027000 178.033000 L 194.865000 178.664000 L 196.699000 179.302000 L 198.531000 179.948000 L 200.360000 180.602000 L 202.186000 181.265000 L 204.008000 181.938000 L 205.827000 182.621000 L 207.641000 183.315000 L 209.450000 184.021000 L 211.255000 184.739000 L 213.055000 185.470000 L 214.849000 186.214000 L 216.637000 186.973000 L 218.419000 187.746000 L 220.195000 188.534000 L 221.963000 189.338000 L 223.723000 190.159000 L 225.476000 190.996000 L 227.220000 191.851000 L 228.955000 192.724000 L 230.681000 193.616000 L 232.397000 194.526000 L 234.103000 195.456000 L 235.797000 196.405000 L 237.480000 197.374000 L 239.151000 198.365000 L 240.810000 199.376000 L 242.455000 200.408000 L 244.087000 201.461000 L 245.705000 202.537000 L 247.308000 203.634000 L 248.898000 204.749000 L 250.478000 205.880000 L 252.058000 207.010000 L 253.643000 208.132000 L 255.231000 209.251000 L 256.822000 210.366000 L 258.435000 211.447000 L 260.088000 212.466000 L 261.772000 213.434000 L 263.505000 214.310000 L 265.312000 215.009000 L 267.132000 215.672000 L 269.013000 216.120000 L 270.910000 216.512000 L 272.840000 216.684000 L 274.774000 216.833000 L 276.716000 216.880000" fill="none" stroke="black" stroke-width="1.0" /><path d="M 161.162000 177.683000 L 163.101000 178.060000 L 165.040000 178.437000 L 166.977000 178.822000 L 168.914000 179.211000 L 170.849000 179.609000 L 172.781000 180.020000 L 174.712000 180.436000 L 176.640000 180.863000 L 178.562000 181.321000 L 180.483000 181.781000 L 182.396000 182.270000 L 184.309000 182.766000 L 186.214000 183.286000 L 188.117000 183.817000 L 190.014000 184.367000 L 191.907000 184.931000 L 193.796000 185.508000 L 195.681000 186.099000 L 197.563000 186.699000 L 199.441000 187.311000 L 201.317000 187.929000 L 203.191000 188.555000 L 205.063000 189.185000 L 206.933000 189.821000 L 208.803000 190.459000 L 210.671000 191.101000 L 212.536000 191.750000 L 214.401000 192.402000 L 216.265000 193.056000 L 218.129000 193.710000 L 219.993000 194.364000 L 221.857000 195.018000 L 223.721000 195.671000 L 225.585000 196.322000 L 227.451000 196.971000 L 229.318000 197.617000 L 231.185000 198.263000 L 233.052000 198.906000 L 234.920000 199.549000 L 236.787000 200.193000 L 238.654000 200.841000 L 240.521000 201.486000 L 242.387000 202.134000 L 244.249000 202.793000 L 246.107000 203.464000 L 247.952000 204.167000 L 249.791000 204.890000 L 251.615000 205.648000 L 253.425000 206.439000 L 255.216000 207.272000 L 256.982000 208.156000 L 258.723000 209.089000 L 260.400000 210.131000 L 262.047000 211.219000 L 263.666000 212.348000 L 265.221000 213.563000 L 266.759000 214.802000 L 268.265000 216.080000" fill="none" stroke="black" stroke-width="1.0" /><path d="M 284.800000 216.530000 L 284.484000 216.916000 L 284.168000 217.301000 L 283.852000 217.687000 L 283.536000 218.072000 L 283.220000 218.458000 L 282.904000 218.843000 L 282.587000 219.229000 L 282.271000 219.614000 L 281.956000 220.000000 L 281.640000 220.385000 L 281.324000 220.771000 L 281.008000 221.157000 L 280.693000 221.543000 L 280.377000 221.928000 L 280.061000 222.314000 L 279.745000 222.700000 L 279.430000 223.086000 L 279.115000 223.472000 L 278.799000 223.858000 L 278.484000 224.244000 L 278.169000 224.630000 L 277.853000 225.016000 L 277.538000 225.402000 L 277.223000 225.788000 L 276.908000 226.175000 L 276.593000 226.561000 L 276.278000 226.948000 L 275.963000 227.334000 L 275.649000 227.721000 L 275.334000 228.107000 L 275.019000 228.494000 L 274.704000 228.880000 L 274.390000 229.267000 L 274.075000 229.654000 L 273.761000 230.040000 L 273.447000 230.427000 L 273.132000 230.814000 L 272.818000 231.201000 L 272.503000 231.588000 L 272.189000 231.975000 L 271.875000 232.362000 L 271.561000 232.749000 L 271.247000 233.136000 L 270.933000 233.523000 L 270.619000 233.910000 L 270.305000 234.297000 L 269.991000 234.685000 L 269.677000 235.072000 L 269.363000 235.459000 L 269.050000 235.847000 L 268.736000 236.234000 L 268.423000 236.622000 L 268.109000 237.009000 L 267.796000 237.397000 L 267.482000 237.784000 L 267.169000 238.172000 L 266.855000 238.560000 L 266.542000 238.947000 L 266.229000 239.335000 L 265.916000 239.723000 L 265.603000 240.111000 L 265.290000 240.499000 L 264.977000 240.887000 L 264.663000 241.274000 L 264.351000 241.663000 L 264.038000 242.051000 L 263.725000 242.439000 L 263.412000 242.827000 L 263.100000 243.215000 L 262.787000 243.603000 L 262.474000 243.992000 L 262.161000 244.380000 L 261.849000 244.768000 L 261.537000 245.157000 L 261.224000 245.545000 L 260.912000 245.934000 L 260.600000 246.322000 L 260.287000 246.711000 L 259.975000 247.099000 L 259.663000 247.488000 L 259.351000 247.876000 L 259.039000 248.265000 L 258.727000 248.654000 L 258.415000 249.043000 L 258.103000 249.432000 L 257.791000 249.820000 L 257.479000 250.209000 L 257.167000 250.598000 L 256.856000 250.987000 L 256.544000 251.376000 L 256.233000 251.765000 L 255.921000 252.155000 L 255.610000 252.544000 L 255.298000 252.933000 L 254.987000 253.322000 L 254.675000 253.711000 L 254.364000 254.101000 L 254.053000 254.490000 L 253.741000 254.879000 L 253.430000 255.269000 L 253.119000 255.658000 L 252.808000 256.048000 L 252.497000 256.437000 L 252.186000 256.827000 L 251.875000 257.216000 L 251.564000 257.606000 L 251.253000 257.996000 L 250.943000 258.385000 L 250.632000 258.775000 L 250.321000 259.165000 L 250.010000 259.555000 L 249.700000 259.944000 L 249.389000 260.334000 L 249.079000 260.724000 L 248.768000 261.115000 L 248.458000 261.505000 L 248.148000 261.895000 L 247.837000 262.285000 L 247.527000 262.675000 L 247.216000 263.065000 L 246.906000 263.455000 L 246.596000 263.845000 L 246.286000 264.236000 L 245.976000 264.626000 L 245.666000 265.016000 L 245.356000 265.407000 L 245.046000 265.797000 L 244.736000 266.187000 L 244.426000 266.578000 L 244.117000 266.969000 L 243.807000 267.359000 L 243.497000 267.750000 L 243.188000 268.140000 L 242.878000 268.531000 L 242.568000 268.922000 L 242.259000 269.312000 L 241.949000 269.703000 L 241.640000 270.094000 L 241.331000 270.485000 L 241.022000 270.876000 L 240.712000 271.267000 L 240.403000 271.658000 L 240.094000 272.049000 L 239.784000 272.440000 L 239.475000 272.831000 L 239.166000 273.222000 L 238.858000 273.613000 L 238.549000 274.004000 L 238.240000 274.395000 L 237.931000 274.787000 L 237.622000 275.178000 L 237.313000 275.569000 L 237.004000 275.960000 L 236.696000 276.352000 L 236.387000 276.743000 L 236.078000 277.135000 L 235.770000 277.526000 L 235.461000 277.918000 L 235.153000 278.309000 L 234.844000 278.701000 L 234.536000 279.092000 L 234.227000 279.484000 L 233.919000 279.876000 L 233.611000 280.268000 L 233.303000 280.659000 L 232.994000 281.051000 L 232.686000 281.443000 L 232.378000 281.835000 L 232.070000 282.227000 L 231.762000 282.619000 L 231.454000 283.011000 L 231.146000 283.403000 L 230.838000 283.795000 L 230.530000 284.187000 L 230.222000 284.579000 L 229.915000 284.971000 L 229.607000 285.363000 L 229.299000 285.755000 L 228.992000 286.147000 L 228.684000 286.540000 L 228.377000 286.932000 L 228.069000 287.324000 L 227.761000 287.716000 L 227.454000 288.109000 L 227.147000 288.501000 L 226.839000 288.894000 L 226.532000 289.286000 L 226.225000 289.679000 L 225.918000 290.071000 L 225.610000 290.464000 L 225.303000 290.856000 L 224.996000 291.249000 L 224.689000 291.642000 L 224.382000 292.034000 L 224.075000 292.427000 L 223.768000 292.820000 L 223.461000 293.213000 L 223.154000 293.605000 L 222.847000 293.998000 L 222.540000 294.391000 L 222.234000 294.784000 L 221.927000 295.177000 L 221.621000 295.570000 L 221.314000 295.963000 L 221.007000 296.356000 L 220.701000 296.749000 L 220.394000 297.142000 L 220.087000 297.535000 L 219.781000 297.928000 L 219.475000 298.322000 L 219.168000 298.715000 L 218.862000 299.108000 L 218.556000 299.501000 L 218.250000 299.895000 L 217.943000 300.288000 L 217.637000 300.681000 L 217.331000 301.075000 L 217.025000 301.468000 L 216.719000 301.862000 L 216.413000 302.255000 L 216.107000 302.649000 L 215.801000 303.042000 L 215.495000 303.436000 L 215.189000 303.829000 L 214.883000 304.223000 L 214.578000 304.617000 L 214.272000 305.010000 L 213.966000 305.404000 L 213.661000 305.798000 L 213.355000 306.192000 L 213.049000 306.585000 L 212.744000 306.979000 L 212.438000 307.373000 L 212.133000 307.767000 L 211.827000 308.161000 L 211.522000 308.555000 L 211.216000 308.949000 L 210.911000 309.343000 L 210.605000 309.737000 L 210.300000 310.130000" fill="none" stroke="black" stroke-width="1.0" /><path d="M 65.747100 89.575500 L 66.880200 88.036100 L 68.012600 86.496200 L 69.143000 84.954700 L 70.267000 83.408700 L 71.380900 81.855300 L 72.488500 80.297500 L 73.572000 78.722700 L 74.638200 77.136300 L 75.663400 75.523100 L 76.671800 73.899300 L 77.613900 72.236500 L 78.507900 70.547100 L 79.394400 68.853600 L 80.272300 67.155700 L 81.135800 65.450400 L 81.999000 63.744900 L 82.859700 62.038200 L 83.716900 60.329700 L 84.580000 58.624200 L 85.457600 56.926100 L 86.322100 55.221400 L 87.164000 53.505400 L 87.996800 51.784800 L 88.826500 50.062900 L 89.653900 48.339700 L 90.476500 46.614300 L 91.293700 44.886300 L 92.105500 43.155800 L 92.910900 41.422300 L 93.708700 39.685300 L 94.494500 37.942800 L 95.261700 36.192100 L 96.010400 34.433400 L 96.743200 32.668000 L 97.457800 30.895100 L 98.152100 29.114200 L 98.824400 27.324900 L 99.472800 25.526800 L 100.097000 23.720100 L 100.697000 21.905400 L 101.256000 20.077600 L 101.770000 18.236500 L 102.231000 16.381600 L 102.616000 14.509700 L 102.994000 12.636300 L 103.323000 10.753600 L 103.631000 8.867400 L 103.921000 6.978120" fill="none" stroke="black" stroke-width="1.0" /><path d="M 63.567100 1.185050 L 64.064900 1.153680 L 64.562800 1.122310 L 65.060600 1.090940 L 65.558400 1.060070 L 66.056900 1.042130 L 66.555300 1.024190 L 67.053800 1.006250 L 67.552300 0.990604 L 68.050900 1.001230 L 68.549600 1.011850 L 69.048300 1.022470 L 69.545700 1.044520 L 70.033800 1.146890 L 70.522000 1.249260 L 71.010200 1.351630 L 71.500100 1.440300 L 71.998300 1.465220 L 72.496500 1.490140 L 72.994600 1.515050 L 73.490900 1.555590 L 73.980500 1.651070 L 74.470000 1.746540 L 74.959600 1.842010 L 75.450700 1.927420 L 75.946100 1.985880 L 76.441400 2.044340 L 76.936800 2.102790 L 77.431600 2.165230 L 77.925300 2.236290 L 78.419000 2.307350 L 78.912700 2.378420 L 79.406600 2.448060 L 79.900900 2.515220 L 80.395100 2.582370 L 80.889400 2.649520 L 81.383500 2.717400 L 81.877500 2.786340 L 82.371500 2.855290 L 82.865500 2.924240 L 83.359000 2.997150 L 83.851700 3.074290 L 84.344500 3.151430 L 84.837300 3.228570 L 85.330000 3.306440 L 85.822600 3.384960 L 86.315100 3.463470 L 86.807700 3.541980 L 87.299700 3.623860 L 87.791300 3.708240 L 88.282900 3.792620 L 88.774500 3.876990 L 89.265600 3.964660 L 89.756200 4.054370 L 90.246900 4.144080 L 90.737500 4.233790 L 91.227700 4.326280 L 91.717600 4.419760 L 92.207600 4.513230 L 92.697500 4.606700 L 93.187100 4.702320 L 93.676500 4.798520 L 94.165900 4.894720 L 94.655300 4.990920 L 95.144300 5.089230 L 95.633300 5.187960 L 96.122200 5.286700 L 96.611100 5.385430 L 97.099500 5.486940 L 97.587700 5.588810 L 98.076000 5.690680 L 98.564300 5.792550 L 99.052000 5.897290 L 99.539600 6.002260 L 100.027000 6.107240 L 100.515000 6.212210 L 101.002000 6.320220 L 101.489000 6.428320 L 101.976000 6.536410 L 102.463000 6.644580 L 102.949000 6.755760 L 103.435000 6.866940 L 103.921000 6.978120 L 104.407000 7.089650 L 104.893000 7.204050 L 105.378000 7.318450 L 105.864000 7.432860 L 106.349000 7.547700 L 106.834000 7.664990 L 107.319000 7.782280 L 107.804000 7.899570 L 108.288000 8.017510 L 108.772000 8.137600 L 109.257000 8.257690 L 109.741000 8.377790 L 110.225000 8.498620 L 110.708000 8.621400 L 111.192000 8.744180 L 111.675000 8.866960 L 112.158000 8.990540 L 112.641000 9.115750 L 113.124000 9.240950 L 113.607000 9.366150 L 114.089000 9.492340 L 114.571000 9.620090 L 115.054000 9.747840 L 115.536000 9.875590 L 116.018000 10.004300 L 116.499000 10.134300 L 116.981000 10.264300 L 117.462000 10.394200 L 117.944000 10.525100 L 118.425000 10.656700 L 118.906000 10.788400 L 119.387000 10.920000 L 119.868000 11.052800 L 120.348000 11.186700 L 120.829000 11.320500 L 121.309000 11.454400 L 121.789000 11.589100 L 122.270000 11.724400 L 122.750000 11.859700 L 123.230000 11.995100 L 123.710000 12.131300 L 124.189000 12.268000 L 124.669000 12.404700 L 125.149000 12.541400 L 125.628000 12.679300 L 126.107000 12.817800 L 126.586000 12.956300 L 127.065000 13.094800 L 127.544000 13.234400 L 128.023000 13.374200 L 128.502000 13.514000 L 128.981000 13.653800 L 129.459000 13.794300 L 129.938000 13.934900 L 130.416000 14.075500 L 130.895000 14.216100 L 131.373000 14.357600 L 131.852000 14.499200 L 132.330000 14.640800 L 132.808000 14.782500 L 133.286000 14.924400 L 133.764000 15.066400 L 134.243000 15.208300 L 134.721000 15.350300 L 135.199000 15.492200 L 135.677000 15.634100 L 136.155000 15.776000 L 136.634000 15.916800 L 137.113000 16.054000 L 137.593000 16.191300 L 138.072000 16.328600 L 138.551000 16.467300 L 139.030000 16.609300 L 139.508000 16.751300 L 139.986000 16.893300 L 140.464000 17.034200 L 140.943000 17.173600 L 141.422000 17.313000 L 141.901000 17.452400 L 142.380000 17.592700 L 142.858000 17.734000 L 143.337000 17.875300 L 143.815000 18.016500 L 144.293000 18.157500 L 144.772000 18.298300 L 145.250000 18.439000 L 145.729000 18.579800 L 146.208000 18.720200 L 146.686000 18.860400 L 147.165000 19.000500 L 147.644000 19.140700 L 148.122000 19.280100 L 148.601000 19.419300 L 149.080000 19.558500 L 149.559000 19.697600 L 150.039000 19.836200 L 150.518000 19.974700 L 150.997000 20.113200 L 151.476000 20.251700 L 151.956000 20.388900 L 152.435000 20.526200 L 152.915000 20.663400 L 153.394000 20.800600 L 153.874000 20.936900 L 154.354000 21.073200 L 154.834000 21.209500 L 155.314000 21.345600 L 155.794000 21.480600 L 156.274000 21.615700 L 156.754000 21.750700 L 157.234000 21.885500 L 157.715000 22.019400 L 158.195000 22.153400 L 158.676000 22.287300 L 159.156000 22.420900 L 159.637000 22.553700 L 160.118000 22.686400 L 160.599000 22.819100 L 161.080000 22.951700 L 161.560000 23.084100 L 162.041000 23.216500 L 162.522000 23.348900 L 163.003000 23.481100 L 163.484000 23.613000 L 163.965000 23.744900 L 164.446000 23.876900 L 164.927000 24.008900 L 165.408000 24.141000 L 165.889000 24.273200 L 166.370000 24.405300 L 166.851000 24.537900 L 167.332000 24.670600 L 167.813000 24.803400 L 168.293000 24.936200 L 168.774000 25.068300 L 169.255000 25.200200 L 169.736000 25.332100 L 170.217000 25.464000 L 170.698000 25.597400 L 171.179000 25.731200 L 171.659000 25.865000 L 172.140000 25.998700 L 172.621000 26.130800 L 173.102000 26.262600 L 173.583000 26.394500 L 174.064000 26.526300 L 174.546000 26.655100 L 175.028000 26.783700 L 175.509000 26.912400 L 175.992000 27.040500 L 176.475000 27.162000 L 176.959000 27.283400 L 177.443000 27.404800 L 177.927000 27.526200 L 178.411000 27.647000 L 178.895000 27.767900 L 179.378000 27.888700 L 179.863000 28.007300 L 180.349000 28.119600 L 180.835000 28.231800 L 181.321000 28.344000 L 181.807000 28.454800 L 182.294000 28.562800 L 182.781000 28.670900 L 183.268000 28.778900 L 183.756000 28.883200 L 184.245000 28.982600 L 184.733000 29.082000 L 185.222000 29.181300 L 185.712000 29.276400 L 186.202000 29.367600 L 186.693000 29.458700 L 187.183000 29.549900 L 187.674000 29.637700 L 188.165000 29.723300 L 188.657000 29.808900 L 189.148000 29.894500 L 189.642000 29.967800 L 190.136000 30.035800 L 190.630000 30.103700 L 191.124000 30.171600 L 191.620000 30.227800 L 192.116000 30.280100 L 192.612000 30.332400 L 193.108000 30.384700 L 193.604000 30.430700 L 194.101000 30.475400 L 194.598000 30.520000 L 195.095000 30.564600 L 195.592000 30.603000 L 196.089000 30.640500 L 196.587000 30.677900 L 197.084000 30.715300 L 197.582000 30.744400 L 198.080000 30.772700 L 198.578000 30.801100 L 199.076000 30.829400 L 199.574000 30.849100 L 200.073000 30.868400 L 200.571000 30.887600 L 201.070000 30.906800 L 201.568000 30.927500 L 202.066000 30.948300 L 202.565000 30.969000 L 203.063000 30.989700" fill="none" stroke="black" stroke-width="1.0" /></svg>