<svg id="Layer_1" data-name="Layer 1" xmlns="http://www.w3.org/2000/svg" viewBox="0 0 184.2085 194.02804"><defs><style>.cls-1{fill:#231f20;}</style></defs><path class="cls-1" d="M107.16357,280.98145q-.22013,0-.44024-.00084t-.44016-.00252q-.22006-.00168-.44008-.00419t-.44-.00587q-.22-.00336-.43988-.00755t-.43978-.00923q-.21985-.005-.43965-.01091t-.43953-.01259q-.21973-.00672-.4394-.01427t-.43925-.01595q-.2196-.0084-.4391-.01764t-.439-.01931q-.21943-.01008-.43877-.021t-.4386-.02268q-.21926-.01176-.43842-.02437t-.43823-.026q-.21906-.01345-.438-.02774t-.43781-.02942q-.21886-.01513-.4376-.03111t-.43738-.03279q-.21862-.01682-.43714-.03448t-.4369-.03617q-.21838-.01851-.43665-.03786t-.43639-.03955q-.21813-.02019-.43613-.04124t-.43585-.04292q-.21784-.02188-.43557-.04462t-.43527-.04631q-.21757-.02358-.435-.048t-.43468-.04969q-.21724-.02527-.43435-.05139t-.434-.05307l.01541-.124.01541-.124.01541-.124.01541-.124.01541-.124.01541-.124.01541-.124.01542-.124.01541-.124.01541-.124.01541-.124.01541-.124.01541-.124.01541-.124.01542-.124.01541-.124.01541-.124.01541-.124.01541-.124.01541-.124.01541-.124.01542-.124.01541-.124.01541-.124.01541-.124.01541-.124.01541-.124.01541-.124.01542-.124.01541-.124.01541-.124.01541-.124q.67829.08427,1.35829.16t1.36151.14281q.68151.06711,1.36444.12567t1.367.10857q.68414.05,1.36938.09147t1.3714.07441q.68616.03294,1.37313.05736t1.37456.04035q.68758.01592,1.37568.02334t1.37651.00636q.68841-.00107,1.377-.01059t1.37727-.02753q.68863-.018,1.3772-.04444t1.37683-.06133q.68828-.03487,1.37617-.07819t1.3752-.095q.68732-.05172,1.37394-.11186t1.37237-.12866q.68574-.06854,1.37051-.14545t1.36835-.16219q.68358-.08529,1.36589-.17894t1.36313-.19564q.68082-.102,1.36007-.21233t1.35671-.229q.67746-.11867,1.35306-.24565t1.3491-.26227q.6735-.13529,1.34484-.27887t1.3403-.29545q.669-.15187,1.33544-.312t1.33029-.32854q.66381-.16841,1.32484-.34505t1.31909-.36155q.1801-.05058.36019-.10215t.35992-.10426q.17983-.05269.35934-.1066t.35845-.10915q.179-.05526.35724-.11194t.35573-.11493q.17742-.05824.35389-.11814t.35174-.12159q.17527-.0617.34928-.12524t.34651-.12913q.1725-.06556.34341-.13323t.34-.13754q.16909-.0699.3363-.14209t.33227-.14685q.16508-.07466.32792-.15184t.32327-.157q.16043-.07986.3183-.16247t.313-.16811q.15513-.0855.30741-.174t.30151-.18006q.14922-.09159.29527-.18637t.28874-.19289q.14268-.09811.28188-.19965t.27472-.20661q.13551-.10509.26723-.2138t.25944-.22121q.12772-.1125.25133-.22885t.24291-.23669q.11929-.12034.23418-.24477t.22512-.25306q.11025-.12864.21576-.26158t.20609-.27031q.07727-.10551.15165-.21388t.14589-.2196q.07151-.11121.14011-.22528t.13433-.231q.06573-.1169.12855-.23661t.12277-.24224q.05994-.12253.117-.24787t.11119-.25347q.05414-.12813.10539-.25906t.09959-.26463q.04835-.13369.09379-.27018t.088-.27572q.04254-.13924.08218-.28124t.07636-.28675q.03674-.14474.07055-.29223t.06473-.2977q.03092-.15021.05891-.30315t.05309-.30859q.02508-.15566.04725-.314t.04142-.31941q.01926-.16105.03559-.3248t.02975-.33017q.01341-.16643.0239-.33552t.01806-.34086q.00757-.17175.01221-.34617t.00636-.35147q.00171-.17708.0005-.35677t-.00536-.362q-.00414-.18234-.01122-.36728t-.01709-.37252q-.01-.18756-.023-.37773t-.02883-.38294q-.03831-.46522-.09044-.92821-.052-.463-.11738-.92355-.06527-.46057-.1433-.91862-.078-.458-.1682-.91338-.09015-.45534-.19207-.90788-.10184-.45251-.21492-.90208-.113-.44955-.23675-.896-.12366-.44644-.25756-.88965-.1338-.44319-.27733-.883-.14345-.4398-.2961-.87608-.15258-.43628-.31384-.86889-.16119-.43258-.33055-.86139-.16929-.42878-.34625-.85362-.17688-.42483-.36092-.84557-.18394-.42072-.37456-.83723-.19053-.41648-.38719-.8286-.19657-.41211-.39879-.81971-.20212-.40758-.40938-.81052-.20715-.40292-.41893-.80105-.21168-.3981-.42746-.79129-.2157-.39317-.435-.78127-.2192-.38806-.44147-.77094-.22219-.38284-.44694-.76034-.22465-.37748-.45138-.74946-.22664-.372-.4548-.73829-.22809-.36632-.45721-.72685-.229-.36051-.45858-.71511-.22947-.35457-.45893-.70309-.2294-.34851-.45827-.6908-.22879-.34229-.45658-.67822-.2277-.33591-.45387-.66535-.22608-.32942-.45013-.65221-.14076-.20288-.28237-.40582t-.284-.40592q-.14241-.203-.28559-.406t-.28708-.406q-.1439-.203-.2885-.406t-.28985-.406q-.14526-.203-.29113-.406t-.29233-.40589q-.14646-.20292-.29346-.40578t-.29452-.40564q-.14751-.20277-.2955-.40546t-.29641-.40527q-.14843-.20258-.29724-.405t-.298-.40477q-.14919-.20231-.2987-.40447t-.29931-.40415q-.14979-.202-.29985-.40379t-.30033-.40341q-.15025-.2016-.30071-.403t-.301-.40255q-.1506-.20117-.30129-.40207t-.30146-.40157q-.15076-.20064-.30157-.401t-.30159-.40046q-.15079-.20009-.30155-.39986t-.30143-.39924l-.30124-.39857-.301-.39789-.30064-.39716-.30022-.39642-.29974-.39563-.29917-.39483q-.51318-.67726-1.02718-1.356-.51386-.67882-1.02774-1.35942-.51373-.68064-1.02669-1.3633-.51281-.68269-1.024-1.36765-.51107-.685-1.01973-1.37251-.50853-.68754-1.01383-1.37785-.50517-.69035-1.00632-1.38368-.501-.69338-.99717-1.39-.496-.69666-.98642-1.39682-.49026-.7002-.97405-1.40413-.48367-.704-.96007-1.41192-.47627-.708-.94445-1.42022-.46806-.71226-.92724-1.429-.459-.71677-.9084-1.43826-.44921-.72154-.88794-1.448-.43859-.72654-.86586-1.45829-.42714-.73177-.84218-1.469-.41488-.73728-.81686-1.48027-.40185-.743-.79-1.492-.388-.749-.7614-1.5042-.37329-.75525-.73124-1.51692-.35781-.76171-.69946-1.53012-.34152-.76844-.66607-1.54381-.32442-.77541-.63107-1.558-.30649-.78262-.59443-1.57266-.28779-.79008-.55619-1.58783-.26826-.79779-.51633-1.60349-.24792-.80572-.47484-1.61963-.22679-.81393-.43176-1.63627-.20482-.82237-.387-1.65339-.18207-.83108-.34071-1.671-.15851-.84-.29276-1.68913-.14333-.90747-.255-1.82119-.11173-.91359-.19211-1.83266-.08043-.91893-.12978-1.84258-.0494-.92352-.068-1.851-.01864-.92733-.00675-1.85781.01184-.93036.05392-1.86311.042-.93261.11405-1.86686.072-.93411.17361-1.86908.10161-.93483.23263-1.86975.131-.93479.29108-1.86888.16006-.934.349-1.86648.18888-.93237.40633-1.86252.21741-.93.46312-1.857.24565-.92688.51935-1.85.27365-.923.575-1.84142.30135-.9183.63016-1.83129.32875-.91287.68472-1.81964.3559-.90665.73874-1.80643.38277-.89966.79219-1.79168.40936-.8919.8451-1.7754.43567-.88336.89744-1.75757.46172-.87407.94923-1.7382.48747-.864,1.00047-1.71728.513-.85315,1.05115-1.69483.53816-.84155,1.10128-1.67083.56307-.82917,1.15084-1.6453.58773-.816,1.19986-1.61821.61209-.80208,1.24832-1.58959.63618-.78739,1.29622-1.55943.66-.77192,1.34357-1.52772.68354-.75567,1.39037-1.49447.70678-.73867,1.4366-1.45968.62859-.6209,1.2731-1.22957t1.30467-1.205q.66015-.59636,1.33585-1.1803t1.36666-1.1554q.691-.57146,1.3971-1.13032t1.42717-1.10506q.721-.54618,1.45686-1.07962t1.48618-1.054q.75036-.52056,1.51512-1.02819t1.5437-1.00222q.77894-.49458,1.5719-.97605t1.59973-.94972q.80676-.46824,1.62718-.92319t1.65426-.89649q.83383-.44156,1.681-.86962t1.7073-.84255q.86018-.41448,1.73326-.81532t1.75885-.78789q.88576-.38706,1.78407-.7603t1.8089-.73251q.9106-.35928,1.83338-.70456t1.85747-.67642q.9347-.33114,1.88119-.64809t1.90454-.6196q.958-.30266,1.92752-.59092t1.95011-.56206q.98066-.2738,1.97235-.533t1.9942-.5038q1.00251-.24457,2.01569-.47441t2.03679-.44482q1.02362-.215,2.05754-.41507,1.03387-.20007,2.07789-.38513.94368-.16716,1.88417-.31983t1.87755-.29091q.937-.13821,1.87054-.262t1.86317-.23313q.92967-.10935,1.85541-.20427t1.84728-.17545q.92154-.08053,1.83876-.14666t1.82988-.11789q.91266-.05175,1.82062-.08914t1.811-.06043q.903-.023,1.801-.03174t1.79056-.00308q.89262.00561,1.77979.02555t1.76864.05416q.88146.03423,1.75711.08274t1.74521.1113q.86958.06278,1.73294.13982t1.72027.16833q.85692.09127,1.70725.1968t1.69383.22524q.84351.11973,1.68.25366t1.66588.28206q.82934.14813,1.65134.31043t1.63642.33876q.81442.17646,1.62113.36708t1.60545.39536q.79875.20475,1.58941.42362t1.573.45185q.78232.233,1.55618.48006t1.539.50824q.76513.26115,1.52144.53639t1.50351.56451q.86938.33666,1.72749.69394.858.35721,1.70437.73462.84626.37732,1.68036.77443.834.397,1.65547.81341.82137.41629,1.62971.85153.80827.43515,1.60307.8888.79473.45359,1.57555.92523.78075.47157,1.54716.9608.76634.48916,1.51788.99553.75149.50631,1.48774,1.02941.73619.523,1.45671,1.06244.72045.53934,1.4248,1.09462.70428.55521,1.392,1.12595.68766.57068,1.35836,1.15643.67062.58571,1.32382,1.18607.65313.6003,1.28841,1.21485.63521.61447,1.25212,1.24278.61683.62824,1.21494,1.26987.598.64156,1.1769,1.29611.57879.65446,1.138,1.3215.55911.66695,1.09817,1.346.539.679,1.0575,1.36972.51843.69065,1.01593,1.39257.49745.70185.97351,1.41456.476.71263.93019,1.4357.45413.723.886,1.456.4318.73293.84094,1.47544.409.74244.795,1.494.38586.75153.74817,1.51179.36223.76018.70047,1.52868.33817.76842.6519,1.54472.31367.77624.60244,1.55993.27306.74145.5253,1.4926.25226.75108.48372,1.51144.23147.76027.44219,1.52937.21072.769.40072,1.54641.19.7773.35932,1.56254.16932.78515.318,1.57777.14866.79256.27669,1.59211.128.79948.23547,1.60554.10743.806.1943,1.61807.08686.812.1532,1.6297.06633.81761.11215,1.64043.04582.82275.07117,1.65025.02535.82744.03024,1.65919.0049.83166-.01062,1.6672-.01551.83547-.05142,1.67434-.0359.8388-.09216,1.68055-.05626.84169-.13285,1.68588-.07659.84412-.17348,1.69031-.09689.8461-.214,1.69382-.11715.84763-.25454,1.69644-.13739.84873-.295,1.69816-.15759.84937-.33537,1.699-.17777.84954-.37569,1.69889-.19791.84929-.416,1.69792-.218.84855-.45616,1.696-.23812.84738-.4963,1.69324-.25818.84578-.53638,1.68956-.27821.84371-.57641,1.685-.2982.84118-.61637,1.67948-.31817.83821-.65627,1.67309-.3381.83479-.69611,1.6658-.358.83093-.7359,1.65761-.30845.67453-.62927,1.34668t-.65412,1.342q-.33329.66984-.67908,1.33742t-.70416,1.333q-.35837.66541-.72935,1.32873t-.75465,1.3246q-.38365.66129-.78006,1.32062t-.80559,1.31676q-.4092.65745-.83124,1.31306t-.857,1.3095q-.435.65388-.88286,1.30607t-.90884,1.30279q-.46093.65061-.93493,1.29966t-.96115,1.29666q-.48714.64761-.98746,1.2938t-1.0139,1.2911q-.51357.64488-1.04044,1.28852t-1.06711,1.28609q-.54024.64247-1.09388,1.28381t-1.12077,1.28166q-.56712.64032-1.14776,1.27966t-1.17489,1.27779q-.59422.63846-1.2021,1.27608t-1.22945,1.2745q-.62157.63688-1.2569,1.27307t-1.28447,1.27177q-.64914.63558-1.31214,1.27062t-1.33994,1.26961q-.67694.63457-1.36784,1.26874t-1.39586,1.268q-.705.63386-1.424,1.26744t-1.45224,1.267l-.11083.09567-.11094.09566-.111.09565-.11115.09564-.11125.09564-.11134.09563-.11144.09563-.11154.09564-.11162.09563-.11172.09564-.1118.09564-.11188.09565-.112.09565-.11206.09567-.11212.09567-.11221.09569-.11228.0957-.11235.09572-.11243.09574-.11249.09575-.11255.09578-.11262.0958-.11269.09582-.11274.09585-.1128.09587-.11285.09591-.11291.09593-.113.096-.113.096-.113.096-.1131.09607-.11314.09611q-.44979.38181-.90033.76454-.45043.38277-.90093.7667-.45039.384-.90021.7694-.4497.38546-.89815.77263-.44835.38721-.89479.77641-.44634.38924-.8901.78073-.44366.39153-.88409.78558-.44031.3941-.87675.791-.43632.39693-.8681.79691-.43167.4-.85812.80338-.42634.40341-.84683.8104-.42036.407-.8342.81795-.41373.41094-.82027.826-.40643.41514-.805.83467-.39847.41958-.78843.84384-.38984.42431-.77051.85355-.38056.42928-.75129.86379-.37062.43455-.73075.87459-.36.44007-.70887.88591-.34875.44587-.68568.89777-.33683.452-.66117.91018-.32424.45829-.63534.92313-.311.4649-.60819.93661-.29708.47177-.5797.95063-.28253.47892-.54991.9652-.2673.48633-.5188.9803-.25138.494-.48635.99594-.23484.502-.45259,1.01212-.21762.5102-.4175,1.02884-.19977.51869-.3811,1.04609-.18123.52746-.34338,1.0639-.162.53649-.30432,1.08224-.0288.1104-.05879.231-.02991.12056-.06058.25081-.03059.13017-.0615.26956-.03084.13929-.06154.28729-.03063.14792-.06069.304-.03.156-.059.31973-.02891.16364-.05635.33443-.02739.17073-.05287.34812-.02541.1773-.04849.36078-.023.18339-.04323.37244-.02015.189-.03709.38309-.01686.194-.03007.39272-.01314.1986-.02217.40134-.009.20266-.01338.409-.00435.2062-.00372.41554.0007.20924.00684.42111.0062.21179.01827.42568.01214.21383.03058.42924.01852.21534.04378.43178.02533.21634.05786.4333.03259.21687.07282.43382.0403.21685.08867.43331.04843.21636.10539.43181.057.21536.123.42927.06606.21384.14149.42574.07553.21182.16087.42119.08543.20928.18112.41562.09578.20625.20226.409.10656.20271.22427.40145.1178.19866.24718.39285.12947.1941.271.38323.14157.189.29563.37259.137.16307.28089.31811t.29444.30239q.15052.14734.30747.28713t.31994.27231q.163.13252.33187.25793.16882.12544.34325.244t.35409.23053q.17967.112.36439.21749t.37415.20491q.18942.09938.38335.19277t.392.18107q.19809.08769.40014.16982.202.08219.40772.159.20565.07687.41475.14867.209.07182.42124.13876.21214.067.42718.1293t.43259.12028q.21756.058.43745.11172t.44175.10359q.22188.04985.44553.09592t.44876.08869q.22509.04261.45143.08191t.45358.07557q.22724.03627.45517.06968.22788.03343.45622.06424.22827.03082.45672.05924.22839.02844.45669.05469.22824.02628.4561.05059t.455.04693q.22711.02262.45331.04372.22614.02112.45109.041t.44834.03864q.81573.06889,1.63218.13367t1.63355.12543q.8171.06066,1.63482.1172t1.636.109q.81829.05241,1.63711.10072t1.63811.09249q.81929.04417,1.639.08424t1.63985.076q.82013.03594,1.6406.06776t1.64125.05953q.82077.0277,1.6418.05128t1.64228.043q.82125.01947,1.64267.0348t1.64295.02654q.82154.01122,1.64316.0183t1.64328.01q.82166.003,1.6433.00181t1.64324-.00645q.82158-.00528,1.64308-.01469t1.64284-.02295q.82135-.01353,1.64252-.0312t1.64209-.03945q.82092-.0218,1.64158-.0477t1.641-.056q.82034-.03,1.6403-.06422t1.63951-.07247q.81956-.0383,1.63865-.08073t1.6377-.089q.8186-.04656,1.63665-.09724t1.63552-.10551q.81745-.05481,1.63429-.11377t1.633-.122l.00964.12463.00964.12463.00965.12464.00964.12463.00965.12464.00964.12463.00964.12463.00965.12464.00964.12463.00964.12463.00965.12464.00964.12463.00964.12464.00965.12463.00964.12463.00964.12464.00965.12463.00964.12463.00965.12464.00964.12463.00964.12464.00965.12463.00964.12463.00964.12464.00965.12463.00964.12463.00964.12464.00965.12463.00964.12464.00964.12463.00965.12463.00964.12464q-.82618.06386-1.653.12353t-1.65437.11518q-.82752.0555-1.65562.10682t-1.65677.09846q-.82866.04715-1.65783.0901t-1.65881.08174q-.82962.03879-1.65968.07339t-1.66047.065q-.83041.03044-1.66117.05668t-1.66178.04832q-.831.02208-1.66229.04t-1.66272.03161q-.83145.01372-1.663.02326t-1.6633.01491q-.83169.00536-1.66345.00655t-1.66351-.0018q-.83175-.003-1.66348-.01015t-1.66337-.0185q-.83163-.01134-1.66315-.02685t-1.66285-.0352q-.83134-.01968-1.66247-.04355t-1.662-.0519q-.83086-.028-1.66141-.06024T237.506,278.026q-.83019-.03639-1.66-.077t-1.65914-.08528q-.82935-.04473-1.6582-.09364t-1.65718-.102q-.82832-.05309-1.656-.11033t-1.65485-.11867q-.8271-.06141-1.65354-.127t-1.65216-.13535q-.28014-.02367-.56042-.0491t-.56039-.053q-.28011-.02754-.5599-.05733-.27976-.02985-.559-.06221-.27919-.03242-.55763-.06761t-.55584-.0735q-.27741-.03831-.55362-.07992t-.55094-.08683q-.27474-.04524-.54784-.09427t-.5443-.1022q-.27118-.05318-.54032-.11066t-.5359-.11961q-.26678-.06213-.53105-.12908t-.52576-.13906q-.26148-.07212-.52-.14955t-.51386-.16055q-.25533-.0831-.50726-.17205t-.50023-.18407q-.24826-.09511-.49274-.19659-.24443-.10152-.48482-.20963-.24038-.10816-.47648-.22318t-.46768-.23723q-.23157-.12222-.45846-.2518t-.44879-.26687q-.22191-.1373-.43869-.28246t-.42815-.29854q-.21137-.15339-.41717-.31516t-.40576-.33226q-.2-.17049-.39391-.34989-.19391-.17943-.38161-.368t-.36889-.38666q-.1812-.19807-.35573-.40581-.14814-.17628-.28957-.35833t-.27616-.36966q-.13471-.18762-.26271-.38073t-.2492-.39152q-.12123-.1984-.23568-.402t-.22209-.41231q-.10766-.20866-.20848-.42229t-.19482-.432q-.094-.2184-.18111-.44146t-.16738-.45063q-.08025-.22756-.1536-.45954t-.13977-.46818q-.06642-.23621-.12591-.47654t-.112-.48465q-.05251-.24429-.09806-.49247t-.08407-.5q-.03853-.25187-.07005-.50733t-.056-.51434q-.02447-.25889-.04187-.52109t-.02771-.52758q-.01032-.26536-.01353-.53379t.00071-.53972q.00391-.2713.015-.5454t.0293-.5508q.01824-.27672.04365-.55594t.058-.5608q.03262-.28157.07248-.56539t.087-.56971q.04711-.2859.10149-.57377t.116-.57756q.06167-.28967.13064-.58106t.14528-.58432q.15715-.60315.33476-1.19461.1775-.59151.37477-1.17168.19716-.58023.41342-1.14944.21613-.56928.45071-1.12789.23446-.55867.48667-1.107.25209-.5484.52125-1.08683.269-.53848.55448-1.06734.28532-.5289.58635-1.04851.30093-.51968.61688-1.03038.31585-.51078.64605-1.01294.33009-.50222.67386-.99617.34365-.494.70031-.9801.35653-.48615.72541-.9647.36875-.47862.74915-.95.38029-.47144.77155-.936.39114-.4646.79258-.92263.40131-.4581.81225-.91.41082-.45193.83058-.898.41964-.44613.84755-.88672.42779-.44065.86315-.87613.43527-.43552.87742-.8662.442-.43074.89031-.857.44817-.4263.90187-.84843.45359-.42219.91205-.84057.45834-.41844.92088-.83339.46243-.415.92837-.8269.46583-.41195.93449-.82109.46854-.40922.93926-.816.4706-.40683.94267-.81154.472-.40476.94473-.80777.47265-.40306.94543-.80471.47267-.4017.94478-.80233l.11231-.09529.11229-.09527.11224-.09526.11219-.09523.11216-.09521.1121-.09519.11206-.09517.112-.09516.112-.09513.11189-.09513.11182-.0951.11176-.09509.1117-.09508.11163-.09506.11155-.095.11148-.095.11141-.095.11132-.095.11124-.095.11116-.095.11107-.095.111-.095.11089-.095.11078-.095.11069-.095.11059-.095.11048-.095.11038-.09495.11027-.095.11015-.09494.11-.09494.10993-.09494q.71237-.61542,1.4109-1.23082t1.38331-1.2309q.68477-.6155,1.35581-1.23111t1.32842-1.23145q.65739-.61583,1.30115-1.23193t1.274-1.23255q.63021-.61647,1.24693-1.23332t1.22-1.2342q.60327-.61735,1.19314-1.23524t1.16642-1.23641q.57654-.61852,1.1398-1.23772t1.11328-1.23916q.55-.61995,1.08689-1.24074t1.06059-1.24245q.52374-.62169,1.03441-1.24432t1.00834-1.2463q.49767-.62369.98238-1.24844t.95652-1.25071q.47181-.62593.93077-1.2531t.90514-1.25565q.44617-.62849.87961-1.25833t.8542-1.26115q.42075-.63129.82888-1.2641t.80369-1.26719q.39556-.63438.7786-1.27041t.75362-1.27379q.37058-.63775.72874-1.27728t.704-1.28093q.34581-.64139.67933-1.2847t.65478-1.28861q.32128-.64531.63036-1.29267t.606-1.29686q.35751-.78195.6963-1.56784.33879-.78583.65883-1.57517.32-.78927.62129-1.58164.30124-.79228.58369-1.58726.28244-.79488.546-1.592.2636-.79707.50833-1.596.24472-.79882.47055-1.599.22582-.80014.43272-1.60126.2069-.801.39484-1.60263.18793-.80152.35689-1.60317.16895-.80157.31889-1.60285.14992-.8012.28083-1.60168.13088-.8004.2427-1.59966.11181-.79919.20453-1.5968.09272-.79754.1663-1.59308.07357-.79548.128-1.58852t.08965-1.58311q.03524-.79007.05124-1.57685.016-.78672.01277-1.56974-.00324-.783-.02576-1.56178-.02251-.77877-.06434-1.553-.04182-.77415-.103-1.54332-.06117-.76911-.14169-1.53282-.08052-.76363-.18044-1.52146-.09993-.75776-.21926-1.50926-.11935-.75144-.25814-1.49621-.1388-.74471-.29707-1.48231-.15828-.73755-.33606-1.46757-.17778-.73-.37511-1.452-.19732-.72194-.41421-1.43552-.2169-.71351-.45339-1.41823-.23649-.70465-.4926-1.40008-.27036-.73388-.56436-1.461-.29393-.727-.6111-1.44689-.31709-.7198-.657-1.432-.33985-.71215-.7021-1.41636-.36219-.70413-.74637-1.3999-.38411-.6957-.7898-1.38264-.40563-.68688-.83242-1.36459-.42672-.67766-.8742-1.34574-.44741-.668-.91516-1.32609-.46768-.658-.9553-1.30565-.48755-.64758-.9946-1.28441-.507-.63676-1.03309-1.26237-.526-.62554-1.07074-1.23953-.54465-.61394-1.10757-1.21591-.56286-.60191-1.14358-1.19147-.58065-.5895-1.17875-1.16625-.598-.57669-1.21311-1.14022-.615-.56347-1.24663-1.11341-.63156-.54987-1.27933-1.08579-.6477-.53586-1.31121-1.05738-.66343-.52144-1.34226-1.02817-.67875-.50664-1.37247-.99816-.69366-.49144-1.40188-.96735-.70815-.47584-1.43045-.93576-.72222-.45984-1.45819-.90336-.73588-.44344-1.48511-.87016-.74915-.42666-1.5112-.83617-.762-.40947-1.53647-.80139-.77441-.39186-1.56091-.7658-.78642-.37388-1.58452-.72942-.798-.35547-1.60732-.69224-.80922-.33669-1.62928-.65426-.7152-.277-1.43934-.54045t-1.457-.51344q-.73282-.25-1.4742-.48642t-1.49109-.45936q-.7497-.22291-1.50761-.43228t-1.52377-.40518q-.76586-.19581-1.53956-.37805t-1.555-.35089q-.78131-.16864-1.57007-.32371t-1.58477-.2965q-.796-.14144-1.59913-.26926t-1.6131-.242q-.81-.11418-1.62672-.21472t-1.64-.18741q-.82324-.08686-1.65287-.16007t-1.6654-.13271q-.83577-.05951-1.67757-.10532t-1.68938-.0779q-.84758-.0321-1.70082-.05047t-1.71189-.023q-.85866-.00462-1.72262.0045t-1.733.032q-.869.02289-1.743.05956t-1.75259.08712q-.87864.05046-1.76185.11471t-1.77076.14234q-.88753.07807-1.77929.17t-1.78748.19766q-.89571.10574-1.79528.22535t-1.80274.25307q-.90317.13347-1.80983.28082t-1.81655.3086q-.70177.1244-1.42159.26031-.71964.136-1.4563.284-.73648.1481-1.48893.30874-.7523.16073-1.5195.3345-.767.17386-1.548.3613-.78077.18752-1.57441.38911-.79345.20169-1.59875.418-.80512.21636-1.621.44784-.81573.23156-1.64123.47874-.82531.24726-1.65936.51067-.83388.26349-1.67542.54363-.8414.28023-1.68941.57763-.84786.29748-1.70133.61264-.85329.31524-1.71117.64868-.8577.33354-1.71894.68577-.86106.35232-1.72464.72386-.8634.37162-1.72827.763-.86469.39145-1.72982.80315-.865.41179-1.72931.84435-.86418.43265-1.72672.88656-.86236.454-1.72206.92981-.85952.47589-1.71532.97408-.85565.49829-1.70653,1.01939-.85071.52118-1.69565,1.06571-.84475.5446-1.6827,1.11307-.83777.56856-1.66768,1.16147-.82974.593-1.65059,1.21087-.82068.618-1.63142,1.26133-.81059.64344-1.6102,1.31279-.79944.66944-1.58688,1.3653-.78728.69594-1.5615,1.41882-.77407.723-1.53406,1.47339-.68754.67919-1.35351,1.375-.66593.6957-1.31,1.40732-.64405.71148-1.266,1.43817-.62192.72656-1.22148,1.46758-.59952.74091-1.17642,1.49556-.57685.75451-1.13084,1.52207-.55394.76741-1.08473,1.54714-.53074.77961-1.0381,1.57078-.5073.791-.99094,1.593-.4836.80178-.94326,1.61368-.45963.81179-.89506,1.633-.43539.82107-.84632,1.65081-.41089.82962-.79708,1.6672-.38613.83745-.74729,1.68214-.36112.84457-.697,1.69565-.33584.85095-.64616,1.70769-.31029.85662-.59482,1.7183-.28449.86156-.54294,1.72746-.25842.86577-.49054,1.73516-.23208.86928-.43762,1.74143-.20548.872-.38417,1.74625-.17863.87409-.33019,1.74962-.15151.87542-.2757,1.75154-.12414.876-.22067,1.752-.0965.87588-.16513,1.751-.0686.875-.10906,1.74863-.04042.87348-.05247,1.74477-.012.87117.00466,1.73945.01669.86815.06229,1.7327.04566.8644.12047,1.72449.07487.85995.17916,1.71483.10434.85477.23837,1.70374.12678.80273.27763,1.5979.15072.79522.32472,1.5831.17387.78792.37022,1.5687.19623.78081.41414,1.55468.21779.7739.45646,1.541.23856.76718.49721,1.52779.25851.76065.53635,1.51494.27769.7543.57392,1.50246.29608.74817.60989,1.49037.31368.74223.64429,1.47867.33047.73648.67708,1.46736.34649.73092.7083,1.45643.36169.72555.73793,1.44589.37611.72038.766,1.43574.38973.71539.79242,1.426.40256.71061.81728,1.41659.41459.706.84055,1.4076.42584.70161.86225,1.399.43627.69741.88234,1.39077.44593.69339.90086,1.38294.45479.68956.91778,1.37549.46285.68594.93312,1.36842.47013.68252.94687,1.36176.47661.67928.959,1.35547.48229.67623.96961,1.34957.48718.67337.9786,1.34405.49128.67072.986,1.33893.49459.66825.99181,1.33419.4971.666.996,1.32983.49881.6639.99867,1.32587.49974.662.99972,1.32229.49986.66032.99918,1.31909l.30152.39795.30208.39876.30259.39956.303.40034.30337.40108.30366.40181q.15189.20109.30388.40252t.304.40319q.15205.20175.30412.40384t.30412.40446q.15205.20239.30407.40508t.30393.40565q.15193.203.30374.40621t.30348.40673q.15165.2035.30313.40725t.30273.40772q.15124.204.30225.40819t.30171.40861q.15071.20442.30109.409t.3004.40941q.15.20479.29965.40977t.29883.41011q.14919.20514.29793.41042t.297.41071q.14823.20542.29593.411t.29483.41121q.14712.20566.29366.41142t.29241.41162q.14589.20584.29111.41178t.28972.41192q.1445.206.28827.412t.28674.41213q.23736.342.477.69128.23961.34923.481.70553.24132.35626.48392.71951.24251.36319.48574.73324.24315.37.48648.74673.24324.3767.48614.76.24281.38325.48472.773.24183.38968.48222.78569.2403.396.47864.79817.23825.40217.474.81041.23565.40821.46825.82239.23252.41414.46143.83412.22884.41994.45354.8456.22462.42562.44457.85683.21987.43119.43452.86782.21456.4366.42338.87854.20872.44191.41117.889.20235.44709.39788.89925.19545.45214.38352.90924.188.45707.36806.919.18.46187.35154.92844.17146.46654.33393.93767.16239.47109.31525.94664.15276.47553.29548.95537.14262.47982.27463.96385.13194.484.25272.97207.12069.48806.22971.98005.10891.492.20563.98777.09662.49577.18047.99524.08376.49946.15423,1.00247.07037.503.12691,1.00944.05644.50642.09851,1.01616.01971.239.03549.47525t.02764.46956q.01187.23336.0198.46384t.012.45812q.004.22761.00413.45236t-.00369.44658q-.00381.22185-.01152.44079t-.01933.435q-.01163.216-.02715.42914t-.035.42328q-.01942.21017-.04276.4174t-.05055.41151q-.02722.20427-.05835.40558t-.06614.39965q-.035.19833-.07392.39368t-.0817.3877q-.0428.19236-.08948.3817t-.09725.37568q-.05056.18633-.105.36963t-.11277.36357q-.05833.18027-.12053.35748t-.12828.35138q-.06608.17417-.136.34525t-.14377.3391q-.07382.168-.1515.33294t-.15924.32674q-.08156.16182-.167.32054t-.17469.3143q-.08928.1556-.18241.308t-.19012.30178q-.097.14933-.19782.29549t-.20553.28918q-.13417.18328-.27335.3602t-.28314.34767q-.144.17076-.2926.33547t-.30175.32357q-.15311.15886-.31056.312t-.319.30075q-.16158.14762-.3272.28983t-.335.27921q-.16941.137-.34254.26893t-.34972.259q-.1766.127-.35657.24931t-.3631.24q-.18312.11772-.3693.231t-.37517.22229q-.189.109-.38071.21393t-.38594.20588q-.19421.101-.39082.19816t-.3954.19075q-.19878.09357-.39963.18367t-.40354.1769q-.20269.08682-.40713.17046t-.41039.16434q-.20595.0807-.41332.15854t-.41593.15305q-.20856.07521-.4182.1479t-.42016.14305q-.21051.07036-.42178.13853t-.42308.13434q-.21182.06617-.424.13045t-.4247.12689q-.21246.06261-.425.12366t-.425.12074q-.47142.13237-.94434.26069t-.94724.25255q-.47432.12423-.95.24439t-.95273.23622q-.477.11607-.95531.228t-.9578.21986q-.47951.10788-.96019.21167t-.96246.20347q-.48179.09969-.96465.19526t-.96672.187q-.48385.09147-.96869.17882t-.97056.17059q-.48573.08323-.97233.16234t-.974.1541q-.4874.075-.97555.14584t-.977.13757q-.48885.06672-.97836.1293t-.97962.121q-.49009.05844-.98076.11273t-.98181.10442q-.49114.05015-.98275.09613t-.9836.0878q-.492.04182-.98433.07948t-.985.07116q-.49263.03348-.9855.06281t-.98592.05446q-.493.02514-.98625.04611t-.98647.03774q-.49327.01677-.9866.02937t-.98661.021q-.49329.0084-.98652.0126T107.16357,280.98145Z" transform="translate(-93.15479 -86.95341)"/></svg>