<svg id="Layer_1" data-name="Layer 1" xmlns="http://www.w3.org/2000/svg" viewBox="0 0 152.54297 192.12207"><defs><style>.cls-1{fill:#231f20;}</style></defs><path class="cls-1" d="M138.83105,280.02148q-.22012,0-.44024-.00083t-.44018-.00252q-.22006-.00168-.4401-.00419t-.44-.00587q-.22-.00336-.43992-.00755t-.43981-.00923q-.21989-.005-.43971-.01091t-.43958-.01259q-.21977-.00672-.43945-.01427t-.43932-.016q-.21962-.0084-.43916-.01764t-.439-.01931q-.21947-.01008-.43885-.021t-.43867-.02268q-.2193-.01178-.43849-.02437t-.43831-.026q-.21911-.01345-.4381-.02774t-.4379-.02942q-.2189-.01514-.43768-.03111t-.43746-.03279q-.21867-.01683-.43722-.03448t-.437-.03618q-.21843-.0185-.43673-.03785t-.43647-.03955q-.21818-.02019-.4362-.04124t-.43593-.04292q-.21789-.02188-.43564-.04462t-.43534-.04631q-.21761-.02358-.435-.048t-.43474-.04969q-.21728-.02527-.43441-.05139t-.43408-.05307l.01541-.124.01542-.124.01541-.124.01541-.124.01541-.124.01541-.124.01541-.124.01541-.124.01541-.124.01542-.124.01541-.124.01541-.124.01541-.124.01541-.124.01541-.124.01541-.124.01542-.124.01541-.124.01541-.124.01541-.124.01541-.124.01541-.124.01541-.124.01542-.124.01541-.124.01541-.124.01541-.124.01541-.124.01541-.124.01541-.124.01542-.124.01541-.124q.67836.08423,1.35842.15987t1.36163.14274q.68157.06708,1.36453.12561t1.36715.10851q.68418.05,1.36946.09143t1.37147.07437q.68619.03293,1.37318.05733t1.3746.04032q.6876.01592,1.37572.02333t1.37653.00636q.68843-.00106,1.37706-.0106t1.37728-.02752q.68864-.018,1.3772-.04443t1.37683-.06131q.68826-.03487,1.37615-.07818t1.37518-.095q.6873-.05171,1.37391-.11183t1.37234-.12864q.68572-.06852,1.37048-.14541t1.36831-.16217q.68355-.08528,1.36584-.1789t1.36308-.19562q.6808-.102,1.36-.2123t1.35666-.229q.67745-.11865,1.353-.24562t1.34905-.26224q.67348-.13529,1.34479-.27885t1.34024-.29543q.66894-.15186,1.33539-.312t1.33024-.32853q.66378-.16839,1.32479-.34505t1.31905-.36154q.18007-.05058.36014-.10215t.35988-.10426q.17983-.05269.35931-.1066t.35843-.10916q.17894-.05525.35722-.11193t.3557-.11493q.17742-.05824.35388-.11814t.35173-.12159q.17527-.06169.34927-.12525t.34651-.12912q.1725-.06556.34341-.13323t.34-.13754q.16911-.0699.3363-.14209t.33228-.14685q.16508-.07465.32794-.15184t.32327-.157q.16042-.07984.31831-.16246t.313-.16811q.15515-.0855.30743-.174t.30151-.18006q.14924-.09159.2953-.18637t.28875-.19289q.14268-.09812.28189-.19965t.27474-.20661q.13551-.10509.26724-.2138t.25946-.22121q.12772-.1125.25134-.22885t.24292-.23669q.11931-.12036.23418-.24477t.22513-.25306q.11025-.12864.21577-.26158t.20609-.27031q.07727-.10551.15165-.21388t.14589-.21959q.07149-.11121.14011-.22526t.13433-.23094q.06572-.11688.12855-.23659t.12277-.24222q.05994-.12252.117-.24784t.11118-.25344q.05415-.12813.10539-.259t.0996-.2646q.04835-.13369.09379-.27015t.088-.27569q.04254-.13923.08217-.28122t.07637-.28671q.03674-.14473.07055-.29221t.06473-.29767q.03091-.15021.05891-.30314t.05308-.30857q.02509-.15564.04726-.314t.04142-.31941q.01926-.161.03559-.32479t.02975-.33017q.01341-.16643.0239-.33553t.01806-.34086q.00756-.17178.01221-.3462t.00636-.3515q.00171-.17708.0005-.3568t-.00536-.36207q-.00415-.18236-.01122-.36734t-.01709-.37258q-.01-.1876-.023-.37781t-.02883-.383q-.03834-.46523-.09049-.92821-.052-.463-.11742-.92356-.06526-.46056-.14333-.91861-.078-.458-.16822-.91338-.09017-.45534-.1921-.90788-.10183-.45252-.21493-.90209-.113-.44955-.23677-.896-.12366-.44644-.25756-.88966-.13381-.44319-.27735-.883-.14344-.4398-.2961-.8761-.15258-.43626-.31384-.86889-.16118-.4326-.33055-.8614-.16929-.42879-.34624-.85364-.17688-.42483-.36091-.84558-.184-.42073-.37456-.83725-.19052-.41649-.38718-.82863-.19658-.41211-.39878-.81973-.20211-.40759-.40936-.81054-.20715-.40293-.41891-.80108-.21168-.39813-.42745-.79133-.2157-.39318-.435-.7813-.21918-.38809-.44145-.771-.22218-.38286-.44692-.76039-.22465-.37749-.45137-.7495-.22662-.372-.45479-.73835-.22807-.36633-.45719-.7269-.229-.36054-.45857-.71518-.22946-.3546-.45893-.70316-.22938-.34852-.45826-.69087-.2288-.34232-.45657-.67829-.2277-.336-.45386-.66544-.22608-.32946-.45013-.65229-.14074-.20285-.28233-.40574t-.284-.40583q-.14239-.20293-.28556-.4059t-.287-.40595q-.1439-.203-.28848-.406t-.28983-.40594q-.14524-.203-.29112-.40588t-.29232-.40581q-.14644-.20288-.29345-.40569t-.29452-.40556q-.14751-.20274-.2955-.40539t-.29641-.40518q-.14843-.20253-.29725-.40495t-.298-.40469q-.14919-.20228-.29871-.4044t-.29932-.40408q-.14981-.202-.29986-.40373t-.30034-.40334q-.15027-.20158-.30073-.40294t-.30106-.40249q-.15059-.20112-.3013-.402t-.30148-.40152q-.15076-.20063-.30158-.401t-.30161-.40042q-.15079-.20006-.30156-.39982t-.30144-.3992l-.30125-.39854-.301-.39787-.30064-.39714-.30023-.3964-.29974-.39563-.29918-.39482q-.51316-.67731-1.02717-1.35614-.51387-.67887-1.02775-1.3595-.51374-.68067-1.02669-1.36336-.51282-.68273-1.024-1.36771-.51108-.685-1.01975-1.37255-.50853-.68757-1.01384-1.37789-.50519-.69036-1.00633-1.38372-.501-.69339-.99719-1.39-.496-.69667-.98644-1.39684-.49026-.7002-.97407-1.40414-.48367-.704-.96008-1.41194-.47628-.708-.94448-1.42022-.46807-.71228-.92726-1.429-.459-.71677-.90842-1.43826-.44922-.72154-.888-1.448-.4386-.72653-.86589-1.45828-.42715-.73179-.8422-1.469-.4149-.73728-.81689-1.48026-.40183-.743-.79-1.492-.388-.749-.76142-1.50421-.37331-.75525-.73127-1.51693-.35781-.76172-.69948-1.53013-.34154-.76845-.66609-1.54382-.32443-.77543-.63108-1.558-.30652-.78264-.59445-1.57269-.2878-.7901-.5562-1.58786-.26828-.7978-.51635-1.60353-.24794-.80576-.47485-1.61968-.2268-.814-.43177-1.63632-.20482-.82241-.387-1.65346-.18209-.8311-.34072-1.6711-.1585-.84-.29276-1.68921-.14333-.90747-.255-1.82119-.11174-.91359-.19211-1.83266-.08043-.91893-.12978-1.84258-.0494-.92352-.068-1.851-.01864-.92733-.00676-1.85781.01185-.93036.05393-1.86311.042-.93261.114-1.86686.072-.93411.17361-1.86908.10161-.93483.23263-1.86975.131-.93478.29108-1.86889.16007-.934.349-1.86647.18888-.93237.40633-1.86252.21741-.93.46312-1.857.24565-.92688.51935-1.85.27365-.923.575-1.84142.30135-.9183.63016-1.83129.32875-.91287.68472-1.81964.35591-.90664.73874-1.80643.38277-.89965.79219-1.79168.40937-.8919.8451-1.7754.43567-.88338.89744-1.75757.46171-.87407.94923-1.7382.48747-.864,1.00047-1.71728.513-.85315,1.05115-1.69483.53815-.84155,1.10128-1.67084.56307-.82915,1.15084-1.64529.58773-.816,1.19986-1.61821.61209-.80208,1.24832-1.58959.63618-.78739,1.29622-1.55943.66-.77191,1.34357-1.52772.68354-.75569,1.39037-1.49447.70679-.73868,1.4366-1.45968.46611-.46039.96254-.93959.49633-.47884,1.0224-.97437.526-.49517,1.08114-1.0049.55506-.50937,1.13874-1.0312.58357-.52148,1.19521-1.05328.61154-.53145,1.25056-1.07111.63893-.53931,1.30477-1.08471.66574-.54505,1.35785-1.09408.692-.54867,1.40981-1.09921.7177-.55019,1.46064-1.10011.74283-.54957,1.51033-1.09677.7674-.54686,1.55889-1.08921.7914-.542,1.60633-1.0774.81484-.535,1.65264-1.06136.8377-.526,1.69782-1.04109.86-.51477,1.74186-1.01658.88176-.50145,1.78479-.98783.90293-.486,1.82657-.95486.92353-.46849,1.86723-.91766.94359-.44881,1.90676-.8762.96308-.427,1.94516-.83053.982-.40314,1.98243-.78061,1.00034-.37713,2.01857-.72647,1.01813-.349,2.05358-.66808,1.03536-.31875,2.08746-.60547,1.052-.28638,2.12022-.53862,1.0681-.25189,2.15184-.46753,1.08363-.21529,2.18233-.39221,1.0986-.17658,2.21169-.31266,1.113-.13573,2.23993-.22887,1.12683-.09279,2.267-.14085,1.1401-.04771,2.293-.0486h.05762q.82224,0,1.612.01009.78992.01,1.548.0295.75813.01943,1.485.0478.72691.02829,1.42307.065.69624.03659,1.36228.081.66613.04433,1.30261.09593.63657.05151,1.244.10972.60755.05812,1.18655.12239.57909.06417,1.13019.13392.55119.06967,1.07492.14435.52383.07458,1.02077.15363.497.079.96771.1618.47078.08276.91576.16884.44508.086.86491.17476.41994.08866.81518.17954.39533.09078.76653.1832.37129.09234.719.18575.3478.09331.67258.18715.32485.09375.62725.18745.30248.0936.583.1866.28065.09291.53992.18464.25935.09164.4979.18155.23863.08981.457.17733.21846.08744.4172.172.19883.08446.37849.16553.17976.081.3409.15793.16123.07689.30441.14922.14326.07225.269.13938.12585.067.23474.12841.109.06127.20157.11632.09267.05495.1695.1031.0769.04806.13853.08875,1.31062.58343,2.54813,1.15332,1.23792.57007,2.40524,1.12763,1.16775.55773,2.26739,1.10394,1.10007.54639,2.13456,1.08228,1.03491.53605,2.00675,1.06262.97227.52674,1.884,1.045.91214.51841,1.76622,1.02935.85451.51111,1.65349,1.01575.79941.5048,1.54579,1.00414.7468.49952,1.44312.99456.69672.49522,1.34546.987.64916.49194,1.25284.98143.6041.48967,1.16524.97789.56155.4884,1.08267.97636.52153.48815,1.00512.97685.484.48888.93261.97934.449.49064.8651.98385.41652.4934.80264.99038.38655.49716.7452.99892.35907.50193.69278,1.00947.33413.50772.64539,1.022.31169.5145.603,1.03662.29175.5223.56568,1.05322.27435.53109.53338,1.07182.25944.5409.50608,1.09245.24706.5517.48383,1.11508.23718.56354.46659,1.13973.22981.57636.45438,1.16639.225.5902.4472,1.19508.22263.605.445,1.22576.22281.62089.44791,1.25847.22551.63774.4558,1.29319l.04823.13691.0484.13736.04856.13781.04874.13827.04891.13872.04909.13918.04929.13965.04948.14011.04968.14058.0499.14105.0501.14152.05032.142.05055.14248.05078.143.051.14344.05126.14393.05151.14441.05176.14491.052.14541.05229.1459.05257.1464.05284.14691.05312.1474.05342.14792.05371.14843.054.14894.05432.14946.05464.15.055.15049.05528.151.05561.15154.05595.15208q.27306.74145.5253,1.4926.25226.75108.48372,1.51144.23147.76027.44219,1.52937.21072.769.40072,1.54641.19.7773.35932,1.56254.16932.78515.318,1.57777.14866.79256.27669,1.59211.128.79948.23547,1.60554.10743.806.1943,1.61807.08686.812.1532,1.6297.06633.81761.11215,1.64043.04582.82275.07117,1.65025.02535.82744.03024,1.65919.0049.83166-.01062,1.6672-.01551.83547-.05142,1.67434-.0359.8388-.09216,1.68055-.05626.84169-.13285,1.68588-.07659.84412-.17348,1.69031-.09689.8461-.214,1.69382-.11715.84763-.25454,1.69644-.13739.84873-.295,1.69816-.15759.84937-.33537,1.699-.17777.84954-.37569,1.69889-.19791.84929-.416,1.69792-.218.84855-.45616,1.696-.23812.84738-.4963,1.69324-.25818.84578-.53638,1.68956-.27821.84371-.57641,1.685-.2982.84118-.61637,1.67948-.31817.83821-.65627,1.67309-.3381.83479-.69611,1.6658-.358.83093-.7359,1.65761-.30845.67453-.62927,1.34668t-.65412,1.342q-.33329.66984-.67908,1.33742t-.70416,1.333q-.35837.66541-.72935,1.32873t-.75465,1.3246q-.38365.66129-.78006,1.32062t-.80559,1.31676q-.4092.65745-.83124,1.31306t-.857,1.3095q-.435.65388-.88286,1.30607t-.90884,1.30279q-.46093.65061-.93493,1.29966t-.96115,1.29666q-.48714.64761-.98746,1.2938t-1.0139,1.2911q-.51357.64488-1.04044,1.28852t-1.06711,1.28609q-.54024.64247-1.09388,1.28381t-1.12077,1.28166q-.56712.64032-1.14776,1.27966t-1.17489,1.27779q-.59422.63846-1.2021,1.27608t-1.22945,1.2745q-.62157.63688-1.2569,1.27307t-1.28447,1.27177q-.64914.63558-1.31214,1.27062t-1.33994,1.26961q-.67694.63457-1.36784,1.26874t-1.39586,1.268q-.705.63386-1.424,1.26744t-1.45224,1.267l-.11083.09567-.11094.09566-.111.09565-.11115.09564-.11125.09564-.11134.09563-.11144.09563-.11154.09564-.11162.09563-.11172.09564-.1118.09564-.11188.09565-.112.09565-.11206.09567-.11212.09567-.11221.09569-.11228.0957-.11235.09572-.11243.09574-.11249.09575-.11255.09578-.11262.0958-.11269.09582-.11274.09585-.1128.09587-.11285.09591-.11291.09593-.113.096-.113.096-.113.096-.1131.09607-.11314.09611q-.44979.38181-.90033.76454-.45043.38277-.90093.7667-.45039.384-.90021.7694-.4497.38546-.89815.77263-.44835.38721-.89479.77641-.44634.38924-.8901.78073-.44366.39153-.88409.78558-.44031.3941-.87675.791-.43632.39693-.8681.79691-.43167.4-.85812.80338-.42634.40341-.84683.8104-.42036.407-.8342.81795-.41373.41094-.82027.826-.40643.41514-.805.83467-.39847.41958-.78843.84384-.38984.42431-.77051.85355-.38056.42928-.75129.86379-.37062.43455-.73075.87459-.36.44007-.70887.88591-.34875.44587-.68568.89777-.33683.452-.66117.91018-.32424.45829-.63534.92313-.311.4649-.60819.93661-.29708.47177-.5797.95063-.28253.47892-.54991.9652-.2673.48633-.5188.9803-.25138.494-.48635.99594-.23484.502-.45259,1.01212-.21762.5102-.4175,1.02884-.19977.51869-.3811,1.04609-.18123.52746-.34338,1.0639-.162.53649-.30432,1.08224-.0288.1104-.05879.231-.02991.12056-.06058.25081-.03059.13017-.0615.26956-.03084.13929-.06154.28729-.03063.14792-.06069.304-.03.156-.059.31973-.02891.16364-.05635.33443-.02739.17073-.05287.34812-.02541.1773-.04849.36078-.023.18339-.04323.37244-.02015.189-.03709.38309-.01686.194-.03007.39272-.01314.1986-.02217.40134-.009.20266-.01338.409-.00435.2062-.00372.41554.0007.20924.00684.42111.0062.21179.01827.42568.01214.21383.03058.42924.01852.21534.04378.43178.02533.21634.05786.4333.03259.21687.07282.43382.0403.21685.08867.43331.04843.21636.10539.43181.057.21536.123.42927.06606.21384.14149.42574.07553.21182.16087.42119.08543.20928.18112.41562.09578.20625.20226.409.10656.20271.22427.40145.1178.19866.24718.39285.12947.1941.271.38323.14157.189.29563.37259.137.16307.28089.31811t.29444.30239q.15052.14734.30747.28713t.31994.27231q.163.13252.33187.25793.16882.12544.34325.244t.35409.23053q.17967.112.36439.21749t.37415.20491q.18942.09938.38335.19277t.392.18107q.19809.08769.40014.16982.202.08219.40772.159.20565.07687.41475.14867.209.07182.42124.13876.21214.067.42718.1293t.43259.12028q.21756.058.43745.11172t.44175.10359q.22188.04985.44553.09592t.44876.08869q.22509.04261.45143.08191t.45358.07557q.22724.03627.45517.06968.22788.03343.45622.06424.22827.03082.45672.05924.22839.02844.45669.05469.22824.02628.4561.05059t.455.04693q.22711.02262.45331.04372.22614.02112.45109.041t.44834.03864q.81573.06889,1.63218.13367t1.63355.12543q.8171.06066,1.63482.1172t1.636.109q.81829.05241,1.63711.10072t1.63811.09249q.81929.04417,1.639.08424t1.63985.076q.82013.03594,1.6406.06776t1.64125.05953q.82077.0277,1.6418.05128t1.64228.043q.82125.01947,1.64267.0348t1.64295.02654q.82154.01122,1.64316.0183t1.64328.01q.82166.003,1.6433.00181t1.64324-.00645q.82158-.00528,1.64308-.01469t1.64284-.02295q.82135-.01353,1.64252-.0312t1.64209-.03945q.82092-.0218,1.64158-.0477t1.641-.056q.82034-.03,1.6403-.06422t1.63951-.07247q.81956-.0383,1.63865-.08073t1.6377-.089q.8186-.04656,1.63665-.09724t1.63552-.10551q.81745-.05481,1.63429-.11377t1.633-.122l.00964.12463.00964.12463.00965.12464.00964.12463.00965.12464.00964.12463.00964.12463.00965.12464.00964.12463.00964.12463.00965.12464.00964.12463.00964.12464.00965.12463.00964.12463.00964.12464.00965.12463.00964.12463.00965.12464.00964.12463.00964.12464.00965.12463.00964.12463.00964.12464.00965.12463.00964.12463.00964.12464.00965.12463.00964.12464.00964.12463.00965.12463.00964.12464q-.82618.06386-1.653.12353t-1.65437.11518q-.82752.0555-1.65562.10682t-1.65677.09846q-.82866.04715-1.65783.0901t-1.65881.08174q-.82962.03879-1.65968.07339t-1.66047.065q-.83041.03044-1.66117.05668t-1.66178.04832q-.831.02208-1.66229.04t-1.66272.03161q-.83145.01372-1.663.02326t-1.6633.01491q-.83169.00536-1.66345.00655t-1.66351-.0018q-.83175-.003-1.66348-.01015t-1.66337-.0185q-.83163-.01134-1.66315-.02685t-1.66285-.0352q-.83134-.01968-1.66247-.04355t-1.662-.0519q-.83086-.028-1.66141-.06024T237.506,278.026q-.83019-.03639-1.66-.077t-1.65914-.08528q-.82935-.04473-1.6582-.09364t-1.65718-.102q-.82832-.05309-1.656-.11033t-1.65485-.11867q-.8271-.06141-1.65354-.127t-1.65216-.13535q-.28014-.02367-.56042-.0491t-.56039-.053q-.28011-.02754-.5599-.05733-.27976-.02985-.559-.06221-.27919-.03242-.55763-.06761t-.55584-.0735q-.27741-.03831-.55362-.07992t-.55094-.08683q-.27474-.04524-.54784-.09427t-.5443-.1022q-.27118-.05318-.54032-.11066t-.5359-.11961q-.26678-.06213-.53105-.12908t-.52576-.13906q-.26148-.07212-.52-.14955t-.51386-.16055q-.25533-.0831-.50726-.17205t-.50023-.18407q-.24826-.09511-.49274-.19659-.24443-.10152-.48482-.20963-.24038-.10816-.47648-.22318t-.46768-.23723q-.23157-.12222-.45846-.2518t-.44879-.26687q-.22191-.1373-.43869-.28246t-.42815-.29854q-.21137-.15339-.41717-.31516t-.40576-.33226q-.2-.17049-.39391-.34989-.19391-.17943-.38161-.368t-.36889-.38666q-.1812-.19807-.35573-.40581-.14814-.17628-.28957-.35833t-.27616-.36966q-.13471-.18762-.26271-.38073t-.2492-.39152q-.12123-.1984-.23568-.402t-.22209-.41231q-.10766-.20866-.20848-.42229t-.19482-.432q-.094-.2184-.18111-.44146t-.16738-.45063q-.08025-.22756-.1536-.45954t-.13977-.46818q-.06642-.23621-.12591-.47654t-.112-.48465q-.05251-.24429-.09806-.49247t-.08407-.5q-.03853-.25187-.07005-.50733t-.056-.51434q-.02447-.25889-.04187-.52109t-.02771-.52758q-.01032-.26536-.01353-.53379t.00071-.53972q.00391-.2713.015-.5454t.0293-.5508q.01824-.27672.04365-.55594t.058-.5608q.03262-.28157.07248-.56539t.087-.56971q.04711-.2859.10149-.57377t.116-.57756q.06167-.28967.13064-.58106t.14528-.58432q.15715-.60315.33476-1.19461.1775-.59151.37477-1.17168.19716-.58023.41342-1.14944.21613-.56928.45071-1.12789.23446-.55867.48667-1.107.25209-.5484.52125-1.08683.269-.53848.55448-1.06734.28532-.5289.58635-1.04851.30093-.51968.61688-1.03038.31585-.51078.64605-1.01294.33009-.50222.67386-.99617.34365-.494.70031-.9801.35653-.48615.72541-.9647.36875-.47862.74915-.95.38029-.47144.77155-.936.39114-.4646.79258-.92263.40131-.4581.81225-.91.41082-.45193.83058-.898.41964-.44613.84755-.88672.42779-.44065.86315-.87613.43527-.43552.87742-.8662.442-.43074.89031-.857.44817-.4263.90187-.84843.45359-.42219.91205-.84057.45834-.41844.92088-.83339.46243-.415.92837-.8269.46583-.41195.93449-.82109.46854-.40922.93926-.816.4706-.40683.94267-.81154.472-.40476.94473-.80777.47265-.40306.94543-.80471.47267-.4017.94478-.80233l.11231-.09529.11229-.09527.11224-.09526.11219-.09523.11216-.09521.1121-.09519.11206-.09517.112-.09516.112-.09513.11189-.09513.11182-.0951.11176-.09509.1117-.09508.11163-.09506.11155-.095.11148-.095.11141-.095.11132-.095.11124-.095.11116-.095.11107-.095.111-.095.11089-.095.11078-.095.11069-.095.11059-.095.11048-.095.11038-.09495.11027-.095.11015-.09494.11-.09494.10993-.09494q.71237-.61542,1.4109-1.23082t1.38331-1.2309q.68477-.6155,1.35581-1.23111t1.32842-1.23145q.65739-.61583,1.30115-1.23193t1.274-1.23255q.63021-.61647,1.24693-1.23332t1.22-1.2342q.60327-.61735,1.19314-1.23524t1.16642-1.23641q.57654-.61852,1.1398-1.23772t1.11328-1.23916q.55-.61995,1.08689-1.24074t1.06059-1.24245q.52374-.62169,1.03441-1.24432t1.00834-1.2463q.49767-.62369.98238-1.24844t.95652-1.25071q.47181-.62593.93077-1.2531t.90514-1.25565q.44617-.62849.87961-1.25833t.8542-1.26115q.42075-.63129.82888-1.2641t.80369-1.26719q.39556-.63438.7786-1.27041t.75362-1.27379q.37058-.63775.72874-1.27728t.704-1.28093q.34581-.64139.67933-1.2847t.65478-1.28861q.32128-.64531.63036-1.29267t.606-1.29686q.35751-.78195.6963-1.56784.33879-.78583.65883-1.57517.32-.78927.62129-1.58164.30124-.79228.58369-1.58726.28244-.79488.546-1.592.2636-.79707.50833-1.596.24472-.79882.47055-1.599.22582-.80014.43272-1.60126.2069-.801.39484-1.60263.18793-.80152.35689-1.60317.16895-.80157.31889-1.60285.14992-.8012.28083-1.60168.13088-.8004.2427-1.59966.11181-.79919.20453-1.5968.09272-.79754.1663-1.59308.07357-.79548.128-1.58852t.08965-1.58311q.03524-.79007.05124-1.57685.016-.78672.01277-1.56974-.00324-.783-.02576-1.56178-.02251-.77877-.06434-1.553-.04182-.77415-.103-1.54332-.06117-.76911-.14169-1.53282-.08052-.76363-.18044-1.52146-.09993-.75776-.21926-1.50926-.11935-.75144-.25814-1.49621-.1388-.74471-.29707-1.48231-.15828-.73755-.33606-1.46757-.17778-.73-.37511-1.452-.19732-.72194-.41421-1.43552-.2169-.71351-.45339-1.41823-.23649-.70465-.4926-1.40008l-.05659-.15391-.05626-.15337-.05592-.15283-.0556-.1523-.05527-.15177-.055-.15124-.05465-.15072-.05434-.1502-.05405-.14969-.05375-.14916-.05346-.14866-.05318-.14814-.05291-.14764-.05263-.14714-.05237-.14663-.0521-.14614-.05186-.14564-.0516-.14515-.05136-.14466-.05112-.14418-.05089-.14369-.05067-.14321-.05044-.14273-.05022-.14226-.05-.14179-.04981-.14131-.04961-.14085-.04942-.14039-.04923-.13993-.049-.13946-.04887-.139-.0487-.13856q-.22779-.64715-.44865-1.27269-.22128-.62574-.43811-1.23109-.21725-.60555-.43251-1.19189-.21567-.58653-.43184-1.155-.21657-.56871-.43611-1.12059-.21994-.55208-.44532-1.08851-.22578-.53664-.45947-1.05882-.23409-.52238-.47855-1.03149-.24486-.50933-.50257-1.00656-.25812-.49745-.53153-.984-.27382-.48675-.56543-.96381-.292-.47727-.60426-.946-.31266-.469-.648-.9306-.33577-.46183-.69674-.91755-.36137-.45591-.75038-.90689-.38943-.45119-.809-.89861-.42-.44763-.87249-.89271-.45294-.44526-.94094-.88918-.48841-.4441-1.01434-.888-.52635-.44413-1.09268-.88927-.56673-.44534-1.17594-.89288-.60961-.44775-1.26415-.89888-.65494-.45134-1.3573-.90725-.70275-.45612-1.45538-.918-.753-.46209-1.55839-.93113-.80579-.46926-1.66636-.94665-.861-.4776-1.77925-.96453-.91868-.48714-1.89708-.9848-.97883-.49788-2.01985-1.00746-1.04145-.50977-2.14756-1.03248-1.10654-.52289-2.2802-1.05989-1.1741-.53718-2.41779-1.08967l-.012-.007-.012-.007-.012-.007-.012-.007-.012-.007-.012-.007-.012-.007-.012-.007-.012-.007-.012-.007-.012-.007-.012-.007-.012-.007-.012-.007-.012-.007-.012-.007-.012-.007-.012-.007-.012-.007-.012-.007-.012-.007-.012-.007-.012-.007-.012-.007-.012-.007-.012-.007-.012-.007-.012-.007-.012-.007-.012-.007-.012-.007-.012-.007-.019-.01238-.05238-.03265q-.03474-.02116-.087-.05156-.05235-.03028-.12279-.06913-.07054-.03873-.15977-.08534-.08934-.0465-.198-.10019-.10872-.05358-.23734-.11369-.1287-.06-.27791-.12583-.14929-.06573-.31967-.13662-.17048-.07077-.36263-.14605-.19226-.07515-.40678-.15412-.21463-.07886-.45212-.16085-.2376-.08187-.49866-.16621-.26116-.08422-.54639-.17022-.28531-.08589-.59531-.17288-.31008-.08687-.64542-.17417-.33543-.08719-.69672-.17412-.3614-.08682-.74923-.17271-.38794-.08577-.80292-.16994-.41508-.08406-.85781-.16582-.44281-.08166-.91388-.16035-.47116-.07857-.97115-.15351-.5001-.07482-1.02962-.14532-.52964-.0704-1.08928-.13578-.55974-.06528-1.15012-.12488-.59048-.05949-1.21217-.11263-.62179-.053-1.2754-.099-.65372-.04588-1.33983-.08406-.68622-.03805-1.40546-.06773-.71932-.02957-1.47226-.05006-.753-.02039-1.54027-.031-.78735-.01053-1.60948-.01065h-.05469q-1.08585.00051-2.16052.04646-1.07458.04563-2.1374.13467-1.06272.08871-2.11313.21883-1.05031.12978-2.08775.29894-1.03734.16882-2.06124.375-1.02381.20585-2.03361.447-1.00969.24084-2.00484.515-.995.27381-1.97495.5789-.97983.30476-1.944.63877-.964.33367-1.91181.69459-.94767.36058-1.87854.74636-.93078.38545-1.84416.79409-.91329.4083-1.80865.83776-.89526.42912-1.772.87739-.87666.44793-1.73425.913-.85749.4647-1.69536.94449-.83777.47946-1.65534.972-.81749.49218-1.61421.99541-.79664.50289-1.57195,1.0148-.77522.51156-1.52855,1.03013-.75325.51822-1.484,1.04142-.73071.52285-1.4384,1.04866-.70761.52547-1.39164,1.05185-.684.526-1.34376,1.051-.65971.52461-1.29473,1.04609-.63494.52114-1.2446,1.03713-.60958.51566-1.19334,1.02413-.58365.50814-1.14094,1.00708-.55719.4986-1.08743.986-.53015.487-1.03278.96083-.50256.47344-.977.93163-.47437.45785-.92013.89839-.68754.67918-1.35351,1.375-.66592.6957-1.31,1.40731-.64406.7115-1.266,1.43818-.62192.72656-1.22148,1.46758-.59952.74091-1.17642,1.49555-.57686.75453-1.13084,1.52208-.55394.76742-1.08473,1.54714-.53074.77961-1.0381,1.57077-.5073.79105-.99094,1.593-.4836.80178-.94326,1.61368-.45963.81178-.89506,1.633-.43539.82107-.84633,1.65081-.41088.82962-.79707,1.6672-.38613.83745-.7473,1.68214-.36111.84457-.697,1.69565-.33584.851-.64617,1.70769-.31029.85662-.59481,1.7183-.28449.86155-.54294,1.72746-.25842.86577-.49054,1.73516-.23208.86928-.43762,1.74143-.20549.872-.38417,1.74625-.17863.8741-.33019,1.74962-.15151.87542-.2757,1.75154-.12414.876-.22068,1.752-.09649.87588-.16513,1.751-.06858.875-.109,1.74863-.04042.87347-.05247,1.74477-.012.87117.00466,1.73945.01668.86816.06229,1.73269.04565.86442.12047,1.7245.07487.85995.17916,1.71483.10434.85478.23837,1.70374.12678.80274.27763,1.59795.15072.79524.32473,1.58315.17386.78794.37022,1.56874.19623.78082.41415,1.55472.21779.77391.45648,1.54108.23854.76721.49721,1.52784.25854.76068.53637,1.515.27771.75433.57394,1.5025.2961.7482.60992,1.49042.31368.74224.64431,1.47871.33048.7365.67711,1.4674.34648.73093.70832,1.45648.36171.72556.738,1.44593.37611.72039.766,1.43577.38975.71541.79245,1.426.40257.71062.81731,1.41662.41461.706.84059,1.40763.42585.70164.86228,1.399.43631.69743.88238,1.3908.446.6934.9009,1.383.45481.68959.91782,1.37552.46289.686.93316,1.36845.47016.68253.94692,1.36178.47663.67929.95907,1.35549.48231.67624.96965,1.34959.48722.67338.97864,1.34407.49131.67073.986,1.33894.49461.66826.99186,1.3342.49712.666.99607,1.32985.49884.6639.99872,1.32587.49975.662.99976,1.32229.49989.66031.99923,1.3191l.30147.39794.302.39875.30255.39955.303.40032.30334.40106.30363.40178q.15187.20108.30385.40248t.304.40315q.152.20175.30409.4038t.3041.40442q.152.20237.304.405t.30392.40559q.15192.203.30372.40615t.30346.40668q.15165.20346.30312.40718t.30272.40766q.15124.20394.30224.40811t.30169.40855q.1507.20438.30109.409t.30039.40933q.15.20476.29965.40969t.29882.41q.14919.2051.29793.41034t.297.41062q.14823.20538.29593.41088t.29483.41112q.14712.20562.29366.41134t.29241.41152q.14589.20581.2911.41169t.28972.41183q.14451.20595.28827.41195t.28675.412q.23733.34209.477.69138.23958.34926.481.70561.2413.35632.48388.7196.24249.36326.48571.73334.24312.37005.48644.74682.24324.37674.48611.76005.24279.38329.4847.773.2418.38972.48219.78577.2403.396.47862.79825.23825.40219.474.81048.23563.40825.46824.82246.2325.41418.46142.83418.22883.42.45353.84567.22461.42566.44456.85689.21985.43122.43451.86787.21456.43663.42338.8786.20873.44193.41118.88907.20235.4471.39788.89929.19545.45216.38352.90926.188.45708.36808.919.18.46188.35155.92845.17146.46656.33394.93768.16241.47111.31527.94664.15278.47553.2955.95537.14263.47982.27466.96383.13194.484.25274.972.12071.488.22974.98.10895.492.20566.98772.09664.49575.18051.99519.08377.49942.15427,1.00241.07039.503.12695,1.00936.05646.50638.09856,1.01608.0197.239.03549.47525t.02764.46956q.01187.23334.0198.46384t.012.45812q.004.22761.00413.45236t-.00369.44658q-.00381.22185-.01152.44079t-.01933.435q-.01162.216-.02715.42914t-.03495.42328q-.01943.21016-.04276.4174t-.05055.41151q-.02724.20427-.05835.40558t-.06614.39965q-.035.19833-.07392.39368t-.08171.3877q-.04279.19236-.08947.3817t-.09725.37568q-.05056.18633-.105.36963t-.11278.36357q-.05832.18027-.12052.35748t-.12828.35138q-.06609.17415-.136.34525t-.14377.3391q-.07381.168-.1515.33293t-.15924.32675q-.08155.16182-.167.32053t-.17468.31431q-.08928.1556-.18241.30805t-.19012.30178q-.097.14932-.19782.29549t-.20554.28917q-.13421.1833-.27343.36021t-.28321.34767q-.144.17076-.29267.33547t-.3018.32357q-.15313.15886-.3106.312t-.31908.30075q-.16161.14762-.32723.28983t-.33506.27921q-.16942.137-.34255.26893t-.34973.259q-.17661.127-.35658.24931t-.36309.24q-.18312.11772-.36929.231t-.37515.22229q-.189.109-.3807.21393t-.38591.20588q-.19422.101-.39081.19816t-.39536.19075q-.19878.09357-.39961.18367t-.40351.1769q-.20268.08682-.4071.17046t-.41036.16434q-.20594.0807-.41329.15854t-.4159.15305q-.20854.07521-.41817.1479t-.42013.14305q-.21051.07037-.42176.13853t-.42306.13434q-.21182.06617-.424.13045t-.42469.12689q-.21245.06261-.425.12366t-.425.12074q-.47136.13242-.94421.26078t-.9471.25262q-.47425.12428-.9499.24445t-.9526.23628q-.477.1161-.9552.22809t-.95768.2199q-.47944.1079-.96007.2117t-.96235.20349q-.48174.09969-.96454.19528t-.96662.187q-.48381.09147-.96859.17882t-.97047.17058q-.48568.08324-.97224.16234t-.97391.15408q-.48735.075-.97547.14583t-.97694.13755q-.48882.0667-.9783.12927t-.97955.121q-.49008.05842-.98071.1127t-.98177.1044q-.49112.05013-.98271.09609t-.98356.08778q-.492.04181-.9843.07945t-.98494.07112q-.49262.03348-.98549.06278t-.98591.05444q-.49305.02514-.98626.04609t-.98648.03772q-.49328.01677-.98661.02935t-.98663.021q-.4933.0084-.98656.0126T138.83105,280.02148Z" transform="translate(-124.82031 -87.89941)"/></svg>