<svg id="Layer_1" data-name="Layer 1" xmlns="http://www.w3.org/2000/svg" viewBox="0 0 243.117 212.074"><defs><style>.cls-1{fill:#231f20;}</style></defs><path class="cls-1" d="M152.884,307.849a11.981,11.981,0,0,1-3.744-2.576,14.247,14.247,0,0,1-2.8-4.019,15,15,0,0,1-1.358-5.086,15.946,15.946,0,0,1,.583-5.775,18.861,18.861,0,0,1,1.561-3.8,21.726,21.726,0,0,1,2.425-3.549,27.262,27.262,0,0,1,3.279-3.287,36.3,36.3,0,0,1,4.124-3.012,51.249,51.249,0,0,1,7.073-3.7,67.447,67.447,0,0,1,7.358-2.653c2.471-.74,4.944-1.351,7.375-1.879s4.821-.972,7.124-1.38q3.883-.687,7.807-1.3t7.846-1.168q3.924-.558,7.83-1.076t7.755-1.022c6.007-.785,12.066-1.577,18.126-2.467s12.122-1.876,18.137-3.051,11.982-2.539,17.853-4.181a160.524,160.524,0,0,0,17.275-5.853,18.883,18.883,0,0,0,2.225-1.069,11.342,11.342,0,0,0,1.679-1.145,4.877,4.877,0,0,0,1.033-1.135,1.629,1.629,0,0,0,.285-1.043,1.566,1.566,0,0,0-.1-.373,2.985,2.985,0,0,0-.263-.5,5.731,5.731,0,0,0-.485-.648,10.518,10.518,0,0,0-.77-.8,20.882,20.882,0,0,0-3.622-2.712,30.167,30.167,0,0,0-4.174-2.052c-1.46-.592-2.979-1.1-4.523-1.555s-3.113-.852-4.673-1.221c-6.73-1.593-13.551-2.816-20.427-3.762s-13.806-1.614-20.753-2.1-13.911-.781-20.853-.986-13.865-.317-20.729-.429c-4.562-.073-9.163-.148-13.787-.249s-9.271-.231-13.924-.413-9.313-.419-13.963-.736-9.291-.713-13.906-1.217c-2.168-.237-4.428-.507-6.744-.838s-4.688-.725-7.081-1.208-4.809-1.056-7.211-1.746a70.4,70.4,0,0,1-7.132-2.452,33.3,33.3,0,0,1-5.584-2.877,22.511,22.511,0,0,1-4.217-3.485,15.869,15.869,0,0,1-2.764-4,13.175,13.175,0,0,1-.534-10.067,15.677,15.677,0,0,1,3.1-5.13,25.214,25.214,0,0,1,5.41-4.5,43.074,43.074,0,0,1,7.614-3.763,229.125,229.125,0,0,1,23.314-7.537c7.885-2.112,15.863-3.864,23.882-5.371s16.079-2.772,24.125-3.911,16.078-2.15,24.043-3.154c5.067-.638,10.177-1.282,15.305-1.961s10.276-1.391,15.416-2.168,10.275-1.616,15.378-2.549,10.175-1.958,15.192-3.1c2.78-.635,5.669-1.334,8.61-2.134s5.935-1.7,8.925-2.743a95.909,95.909,0,0,0,8.9-3.584,73.3,73.3,0,0,0,8.549-4.657,23.868,23.868,0,0,0,2.584-1.9,16.293,16.293,0,0,0,2.175-2.213,8.315,8.315,0,0,0,1.368-2.364,4.091,4.091,0,0,0,.162-2.358,4.443,4.443,0,0,0-.513-1.2,8.01,8.01,0,0,0-.849-1.149,14.588,14.588,0,0,0-1.061-1.082c-.376-.348-.766-.683-1.151-1a65.573,65.573,0,0,0-10.986-7.323,86.444,86.444,0,0,0-11.822-5.175,120.737,120.737,0,0,0-11.9-3.513c-3.894-.948-7.674-1.7-11.213-2.337-6.084-1.095-12.183-1.978-18.368-2.689s-12.455-1.25-18.884-1.655-13.015-.679-19.832-.859-13.863-.267-21.212-.3c-8.007-.037-16.374-.023-25,.113s-17.517.395-26.571.847-18.273,1.1-27.559,2.008-18.639,2.086-27.962,3.6l-.28-1.728-.281-1.727-.28-1.728-.28-1.727c9.449-1.533,18.919-2.725,28.314-3.648s18.715-1.578,27.864-2.036,18.126-.721,26.836-.859,17.153-.152,25.233-.114c7.44.034,14.577.123,21.485.306s13.588.462,20.114.876,12.9.963,19.19,1.688,12.507,1.627,18.715,2.745c3.75.675,7.759,1.475,11.9,2.489a126.733,126.733,0,0,1,12.674,3.778,92.607,92.607,0,0,1,12.675,5.607,72.46,72.46,0,0,1,11.9,7.975c.6.5,1.217,1.035,1.813,1.61a19.392,19.392,0,0,1,1.7,1.858,13.676,13.676,0,0,1,1.419,2.158,11.172,11.172,0,0,1,.96,2.506,10.736,10.736,0,0,1,.181,4.332A12.8,12.8,0,0,1,315,138a18.86,18.86,0,0,1-3.193,4.08,28.963,28.963,0,0,1-4.757,3.738,80.251,80.251,0,0,1-9.192,5.026c-3.131,1.464-6.31,2.73-9.483,3.843s-6.34,2.072-9.445,2.919-6.148,1.585-9.075,2.254c-5.1,1.167-10.248,2.208-15.418,3.154s-10.363,1.8-15.558,2.582-10.39,1.506-15.564,2.19-10.327,1.334-15.436,1.978c-7.86.991-15.787,1.99-23.722,3.111s-15.875,2.363-23.765,3.842-15.726,3.192-23.451,5.255a222.218,222.218,0,0,0-22.779,7.349c-.978.378-2.276.922-3.664,1.623a28.528,28.528,0,0,0-4.2,2.56,13.837,13.837,0,0,0-3.363,3.433,6.589,6.589,0,0,0-1.141,4.242,6.684,6.684,0,0,0,1.289,3.265,12.41,12.41,0,0,0,2.6,2.6,22,22,0,0,0,3.022,1.907c.979.517,1.88.915,2.554,1.19a63.675,63.675,0,0,0,6.567,2.247c2.226.635,4.476,1.163,6.715,1.61s4.465.812,6.645,1.122,4.311.565,6.359.788q6.8.743,13.691,1.2c4.587.312,9.191.544,13.794.724s9.2.307,13.784.407,9.142.174,13.665.247c6.956.113,13.972.227,21.015.436s14.113.514,21.178,1.009,14.124,1.182,21.146,2.153,14.006,2.227,20.92,3.863c1.8.426,3.61.889,5.4,1.426a53.287,53.287,0,0,1,5.3,1.871,35.9,35.9,0,0,1,4.992,2.538,27.737,27.737,0,0,1,4.5,3.426,16.781,16.781,0,0,1,1.492,1.593,12.193,12.193,0,0,1,1.12,1.614,9.6,9.6,0,0,1,.753,1.647,8.5,8.5,0,0,1,.393,1.691,8.4,8.4,0,0,1-.06,2.494,8.732,8.732,0,0,1-1.157,3.038,12.057,12.057,0,0,1-2.931,3.21,22.3,22.3,0,0,1-5.382,3.006,167.136,167.136,0,0,1-17.835,6.06c-6.039,1.7-12.155,3.1-18.307,4.308s-12.337,2.218-18.515,3.126-12.347,1.715-18.464,2.515q-3.82.5-7.7,1.014t-7.763,1.066q-3.886.553-7.764,1.155t-7.7,1.28c-2.139.378-4.357.79-6.605,1.274s-4.528,1.04-6.791,1.708a61.409,61.409,0,0,0-6.7,2.377,44.342,44.342,0,0,0-6.32,3.283,29.7,29.7,0,0,0-2.457,1.728,23.106,23.106,0,0,0-2.444,2.2,16.7,16.7,0,0,0-2.094,2.65,12.116,12.116,0,0,0-1.4,3.086,8.6,8.6,0,0,0-.308,2.6,9.411,9.411,0,0,0,.46,2.66,7.36,7.36,0,0,0,1.218,2.305,5.1,5.1,0,0,0,1.97,1.528l-.687,1.61-.687,1.609-.687,1.609Z" transform="translate(-73.572 -95.775)"/></svg>