<svg id="Layer_1" data-name="Layer 1" xmlns="http://www.w3.org/2000/svg" viewBox="0 0 313.714 137.287"><defs><style>.cls-1{fill:#231f20;}</style></defs><path class="cls-1" d="M149.927,278.4a21.605,21.605,0,0,1-2.527-.7,18.833,18.833,0,0,1-2.3-.966,14.956,14.956,0,0,1-2-1.2,10.922,10.922,0,0,1-1.615-1.4,7.616,7.616,0,0,1-1.149-1.575,5.579,5.579,0,0,1-.6-1.717,5.051,5.051,0,0,1,.022-1.829,6.234,6.234,0,0,1,.73-1.91,9.125,9.125,0,0,1,.867-1.25,12.021,12.021,0,0,1,1.147-1.21,16.4,16.4,0,0,1,1.426-1.17q.783-.575,1.7-1.128t1.978-1.086q1.059-.532,2.253-1.042t2.525-1q1.331-.487,2.8-.952,2.207-.7,4.5-1.3t4.632-1.1q2.341-.507,4.722-.933t4.772-.785q2.391-.359,4.777-.66t4.739-.556q2.353-.256,4.659-.476t4.534-.418q2.507-.222,5.026-.431t5.047-.408q2.529-.2,5.061-.387t5.065-.369q2.531-.181,5.058-.355l5.045-.342,5.02-.333,4.987-.328q5.814-.381,11.669-.773t11.72-.824q5.865-.432,11.724-.919t11.68-1.057q5.822-.57,11.588-1.239t11.449-1.467q5.682-.8,11.263-1.737t11.028-2.052q.795-.162,1.516-.337c.479-.115.932-.234,1.355-.355s.818-.244,1.18-.368.692-.249.987-.373a8.479,8.479,0,0,0,.779-.372,3.749,3.749,0,0,0,.554-.363,1.284,1.284,0,0,0,.313-.349.442.442,0,0,0,.055-.326.492.492,0,0,0-.043-.111.856.856,0,0,0-.086-.131,1.386,1.386,0,0,0-.138-.152,2.546,2.546,0,0,0-.2-.175c-.078-.062-.169-.128-.273-.2s-.221-.144-.354-.222-.28-.16-.445-.246-.347-.177-.548-.271c-.7-.334-1.451-.646-2.232-.938s-1.6-.564-2.442-.818-1.72-.49-2.62-.711-1.823-.426-2.765-.617-1.9-.37-2.879-.537-1.962-.323-2.958-.47-2-.285-3.007-.416-2.016-.255-3.023-.374q-6.513-.774-13.109-1.375t-13.25-1.061q-6.654-.459-13.355-.791t-13.424-.567q-6.723-.234-13.456-.387t-13.453-.251q-6.718-.1-13.412-.162t-13.335-.116q-4.416-.035-8.866-.074t-8.925-.087q-4.476-.05-8.969-.114t-9-.154q-4.5-.089-9.01-.205t-9.008-.271q-4.5-.153-8.989-.348t-8.955-.44q-2.1-.114-4.28-.248t-4.422-.3q-2.241-.161-4.531-.354t-4.607-.427q-2.316-.236-4.648-.515t-4.657-.615q-2.324-.336-4.63-.73t-4.572-.858q-2.013-.411-3.817-.878t-3.389-.984q-1.586-.517-2.948-1.083a27.546,27.546,0,0,1-2.493-1.173,17.956,17.956,0,0,1-2.025-1.257,11.044,11.044,0,0,1-1.542-1.334,6.919,6.919,0,0,1-1.046-1.4,4.857,4.857,0,0,1-.538-1.464,4.389,4.389,0,0,1,.05-1.862,5.3,5.3,0,0,1,.845-1.789,9,9,0,0,1,1.621-1.706,16.557,16.557,0,0,1,2.383-1.615,28.864,28.864,0,0,1,3.126-1.513q1.747-.73,3.855-1.4t4.565-1.283q2.457-.611,5.259-1.153,7.4-1.434,14.925-2.644t15.16-2.235q7.63-1.026,15.344-1.886t15.473-1.591q7.761-.732,15.552-1.356t15.578-1.176q7.788-.552,15.552-1.053t15.473-.989q4.9-.309,9.845-.625t9.9-.644q4.963-.33,9.941-.678t9.952-.725q4.974-.378,9.94-.788t9.9-.863q4.94-.453,9.844-.953t9.759-1.057q2.691-.307,5.478-.651t5.633-.73q2.847-.388,5.735-.829t5.781-.947q2.895-.506,5.776-1.082t5.714-1.238q2.834-.66,5.6-1.411t5.432-1.6c.571-.183,1.141-.379,1.7-.585s1.107-.422,1.633-.647,1.03-.458,1.5-.7.91-.485,1.305-.734a8.985,8.985,0,0,0,1.045-.76,4.237,4.237,0,0,0,.72-.771,1.838,1.838,0,0,0,.331-.77,1.243,1.243,0,0,0-.121-.756,1.967,1.967,0,0,0-.267-.393,3.554,3.554,0,0,0-.4-.385,5.931,5.931,0,0,0-.5-.376c-.184-.124-.382-.247-.592-.367s-.431-.24-.66-.357-.467-.231-.709-.344-.49-.223-.738-.331-.5-.214-.747-.318c-2.218-.923-4.522-1.776-6.892-2.563s-4.8-1.512-7.284-2.177-5-1.273-7.554-1.829-5.123-1.061-7.7-1.521-5.16-.875-7.725-1.252-5.115-.715-7.627-1.022-4.988-.582-7.406-.832-4.78-.475-7.063-.681q-5.889-.531-11.8-.964t-11.9-.777q-5.985-.345-12.066-.61t-12.3-.462q-6.222-.2-12.608-.332t-12.983-.224q-6.6-.087-13.428-.132t-13.943-.062q-7.75-.018-15.831,0t-16.431.078q-8.35.066-16.938.2t-17.35.35q-8.763.219-17.668.539t-17.893.761q-8.987.442-18.023,1.019T49.031,149.9l-.181-.559-.18-.559-.181-.56-.181-.559-.181-.559-.181-.559-.181-.559-.18-.559q9.144-.746,18.294-1.329t18.242-1.033q9.093-.448,18.1-.772t17.858-.546q8.854-.222,17.527-.356t17.1-.2q8.429-.066,16.585-.079t15.975,0q7.2.017,14.119.063t13.605.136q6.685.088,13.162.227t12.792.339q6.316.2,12.495.471t12.268.622q6.09.352,12.116.793t12.034.984c2.419.219,4.922.457,7.487.723s5.194.56,7.864.889,5.381.691,8.114,1.1,5.486.853,8.24,1.349,5.507,1.043,8.24,1.645,5.445,1.262,8.116,1.985,5.3,1.51,7.866,2.368,5.071,1.787,7.491,2.795q.585.243,1.174.5c.392.173.782.353,1.167.539s.763.379,1.131.579.726.408,1.068.624.669.439.976.672a9.794,9.794,0,0,1,.856.724,7.017,7.017,0,0,1,.707.781,5.108,5.108,0,0,1,.531.842,3.854,3.854,0,0,1,.4,1.4,3.6,3.6,0,0,1-.169,1.4,5,5,0,0,1-.726,1.4,8.491,8.491,0,0,1-1.27,1.375,14.642,14.642,0,0,1-1.8,1.342,24.227,24.227,0,0,1-2.318,1.3q-1.287.636-2.824,1.243t-3.315,1.177q-2.883.923-5.857,1.732t-6,1.521q-3.03.711-6.1,1.329t-6.139,1.159q-3.071.54-6.127,1.009t-6.06.881q-3,.411-5.941.773t-5.769.686q-4.937.566-9.914,1.074t-9.981.967q-5,.461-10.026.875t-10.05.8q-5.026.381-10.052.733t-10.031.685q-5.008.333-9.991.65t-9.928.63q-7.608.481-15.269.975t-15.341,1.039q-7.678.544-15.355,1.157t-15.311,1.33q-7.635.719-15.21,1.559t-15.051,1.843q-7.476,1-14.834,2.182t-14.56,2.575c-.631.123-1.365.272-2.165.447s-1.667.377-2.563.6-1.821.479-2.737.756-1.825.577-2.689.9a24.954,24.954,0,0,0-2.417,1.044,11.823,11.823,0,0,0-1.923,1.179,4.572,4.572,0,0,0-1.2,1.31A2.082,2.082,0,0,0,84,209.342a2.514,2.514,0,0,0,.548,1.11,5.506,5.506,0,0,0,1.114,1,11.735,11.735,0,0,0,1.538.9c.567.281,1.181.543,1.818.786s1.3.469,1.953.674,1.315.393,1.947.56,1.237.316,1.794.445,1.066.237,1.5.326q2.072.423,4.2.785t4.278.67q2.154.307,4.326.566t4.338.476q2.168.216,4.316.4t4.259.33q2.109.151,4.166.276t4.04.235q4.387.24,8.808.431t8.859.343q4.439.151,8.892.267t8.906.2q4.455.087,8.9.151t8.883.113q4.434.048,8.845.086t8.788.074q6.732.054,13.518.117t13.6.164q6.816.1,13.653.258t13.674.4q6.837.24,13.664.581t13.623.812q6.795.472,13.549,1.089t13.446,1.412c1.16.138,2.325.282,3.488.435s2.327.314,3.485.488,2.309.36,3.45.561,2.27.417,3.383.651,2.21.485,3.285.758,2.13.567,3.157.884,2.027.66,3,1.029,1.9.764,2.8,1.189q.543.258,1.024.515t.9.517q.422.26.782.52t.662.525a6.567,6.567,0,0,1,.545.53,4.839,4.839,0,0,1,.427.536,3.752,3.752,0,0,1,.311.543,3.027,3.027,0,0,1,.2.551,2.777,2.777,0,0,1-.077,1.615,3.6,3.6,0,0,1-.515.954,5.718,5.718,0,0,1-.978,1.013,10.311,10.311,0,0,1-1.55,1.04,18.517,18.517,0,0,1-2.232,1.037c-.87.342-1.871.679-3.022,1s-2.453.641-3.922.941q-5.651,1.154-11.411,2.127t-11.6,1.8q-5.844.823-11.756,1.513t-11.866,1.275q-5.953.587-11.933,1.085t-11.959.939q-5.979.441-11.942.84t-11.883.788l-4.95.325q-2.484.164-4.982.331t-5,.34q-2.505.173-5.014.351t-5.015.365q-2.5.186-5,.382t-4.985.4q-2.486.207-4.955.425c-1.38.123-2.786.251-4.209.387s-2.863.282-4.314.438-2.911.325-4.374.508-2.929.382-4.389.6-2.916.45-4.358.706-2.873.532-4.282.833-2.8.627-4.161.98-2.7.734-3.994,1.145c-.506.161-1.029.334-1.56.521s-1.072.385-1.611.6-1.078.437-1.606.675-1.048.486-1.548.748-.981.536-1.435.822a14.44,14.44,0,0,0-1.266.894,9.221,9.221,0,0,0-1.045.965,5.884,5.884,0,0,0-.767,1.033,3.021,3.021,0,0,0-.4,1.68,3.276,3.276,0,0,0,.174.872,3.832,3.832,0,0,0,.419.85,4.614,4.614,0,0,0,.665.792,5.688,5.688,0,0,0,.908.7,7.088,7.088,0,0,0,1.15.574,8.884,8.884,0,0,0,1.391.415l-.443.521-.443.521-.443.521-.444.521-.443.521-.443.521-.443.521Z" transform="translate(-47.585 -141.109)"/></svg>