<svg id="Layer_1" data-name="Layer 1" xmlns="http://www.w3.org/2000/svg" viewBox="0 0 313.714 137.287"><defs><style>.cls-1{fill:#231f20;}</style></defs><path class="cls-1" d="M149.927,278.4a20.273,20.273,0,0,1-4.831-1.667,12.809,12.809,0,0,1-3.614-2.6,6.467,6.467,0,0,1-1.752-3.292,5.521,5.521,0,0,1,.752-3.739,10.471,10.471,0,0,1,2.014-2.46,19.029,19.029,0,0,1,3.13-2.3,34.392,34.392,0,0,1,4.231-2.128q2.389-1.02,5.321-1.95c2.943-.933,6-1.722,9.128-2.4s6.306-1.239,9.494-1.718,6.379-.874,9.516-1.216,6.221-.63,9.193-.894q5.012-.444,10.073-.839t10.126-.756q5.063-.361,10.1-.7t10.007-.661c7.752-.509,15.569-1.021,23.389-1.6s15.643-1.215,23.4-1.976,15.462-1.643,23.037-2.706,15.028-2.306,22.291-3.789c1.06-.217,2.024-.45,2.871-.692a19.37,19.37,0,0,0,2.167-.741,5.638,5.638,0,0,0,1.333-.735c.29-.238.421-.466.368-.675a.654.654,0,0,0-.129-.242,2.013,2.013,0,0,0-.338-.327,5.524,5.524,0,0,0-.627-.419c-.265-.156-.592-.328-.993-.517a33.441,33.441,0,0,0-4.674-1.756c-1.691-.508-3.5-.945-5.385-1.328s-3.845-.714-5.837-1.007-4.017-.551-6.03-.79c-8.684-1.032-17.486-1.823-26.359-2.436s-17.815-1.045-26.779-1.358-17.95-.506-26.909-.638-17.891-.206-26.747-.278q-8.83-.071-17.791-.161t-17.967-.268q-9.006-.177-18.018-.476t-17.944-.788c-2.8-.153-5.714-.328-8.7-.543s-6.049-.469-9.138-.781-6.205-.684-9.305-1.13-6.181-.97-9.2-1.588a66.026,66.026,0,0,1-7.206-1.862,33.514,33.514,0,0,1-5.441-2.256,14.091,14.091,0,0,1-3.567-2.591,5.742,5.742,0,0,1-1.584-2.866,4.672,4.672,0,0,1,.895-3.651,12.165,12.165,0,0,1,4-3.321,37.189,37.189,0,0,1,6.981-2.916,86.891,86.891,0,0,1,9.824-2.436c9.86-1.911,19.912-3.512,30.085-4.879s20.47-2.5,30.817-3.477,20.748-1.795,31.13-2.532,20.747-1.392,31.025-2.042q9.807-.619,19.749-1.269t19.893-1.4q9.949-.754,19.843-1.651,9.877-.9,19.6-2.01c3.588-.411,7.316-.863,11.111-1.381s7.658-1.1,11.516-1.776,7.713-1.439,11.49-2.32,7.479-1.878,11.032-3.015c1.142-.366,2.281-.782,3.333-1.232a20.379,20.379,0,0,0,2.807-1.432,6.174,6.174,0,0,0,1.765-1.531,1.436,1.436,0,0,0,.21-1.526,2.56,2.56,0,0,0-.663-.778,7.519,7.519,0,0,0-1.1-.743c-.42-.242-.885-.476-1.369-.7s-.989-.442-1.485-.649a113.757,113.757,0,0,0-14.176-4.74c-4.96-1.331-10.1-2.43-15.255-3.35s-10.328-1.66-15.352-2.274-9.9-1.1-14.469-1.513c-7.851-.709-15.721-1.281-23.7-1.741s-16.072-.809-24.368-1.072-16.8-.439-25.591-.556-17.889-.172-27.371-.194c-10.333-.024-21.129-.015-32.262.073s-22.6.256-34.288.548-23.579.71-35.561,1.3-24.051,1.351-36.082,2.33l-.361-1.118-.362-1.119-.362-1.118-.361-1.118c12.193-.993,24.413-1.764,36.536-2.362s24.149-1.021,35.954-1.318,23.39-.466,34.63-.556,22.134-.1,32.56-.074c9.6.022,18.81.08,27.724.2s17.534.3,25.954.566,16.643.624,24.763,1.093,16.138,1.053,24.15,1.777c4.838.437,10.011.955,15.351,1.612s10.846,1.452,16.354,2.445,11.015,2.184,16.356,3.63a125.174,125.174,0,0,1,15.357,5.163c.779.324,1.572.669,2.341,1.042a22.544,22.544,0,0,1,2.2,1.2,11.65,11.65,0,0,1,1.832,1.4,5.921,5.921,0,0,1,1.238,1.623,3.615,3.615,0,0,1,.234,2.8,6.481,6.481,0,0,1-2,2.77A18.927,18.927,0,0,1,355,171.084a44.932,44.932,0,0,1-6.139,2.42c-3.843,1.23-7.821,2.305-11.861,3.253s-8.143,1.768-12.237,2.488-8.181,1.341-12.187,1.89-7.934,1.026-11.71,1.459q-9.875,1.132-19.9,2.041T260.9,186.307q-10.055.762-20.083,1.418t-19.919,1.28c-10.143.642-20.372,1.288-30.61,2.014s-20.486,1.53-30.666,2.487-20.293,2.067-30.261,3.4-19.791,2.9-29.394,4.757c-1.262.245-2.937.6-4.728,1.051a52.5,52.5,0,0,0-5.426,1.657,17.142,17.142,0,0,0-4.34,2.223c-1.067.83-1.657,1.748-1.471,2.746a3.635,3.635,0,0,0,1.662,2.114,15.745,15.745,0,0,0,3.356,1.681,39.328,39.328,0,0,0,3.9,1.234c1.262.335,2.425.593,3.295.771,2.762.565,5.6,1.044,8.474,1.455s5.776.752,8.664,1.042,5.762.526,8.575.726,5.563.366,8.206.511q8.776.48,17.667.774t17.8.469q8.908.174,17.787.264t17.633.16c8.977.072,18.03.146,27.118.281s18.211.333,27.327.654,18.226.765,27.287,1.393,18.073,1.442,27,2.5c2.32.276,4.658.576,6.973.923s4.606.744,6.833,1.212,4.388,1.007,6.442,1.642a44,44,0,0,1,5.8,2.218,20.073,20.073,0,0,1,1.926,1.032,10.7,10.7,0,0,1,1.444,1.045,5.691,5.691,0,0,1,.972,1.066,3.381,3.381,0,0,1,.507,1.094,2.765,2.765,0,0,1-.077,1.615,4.573,4.573,0,0,1-1.493,1.967,13.93,13.93,0,0,1-3.782,2.077,42.219,42.219,0,0,1-6.944,1.946c-7.533,1.538-15.224,2.825-23.015,3.924s-15.684,2.007-23.622,2.788-15.92,1.436-23.892,2.024-15.932,1.11-23.825,1.628q-4.93.324-9.932.656t-10.016.691q-5.016.357-10.019.747t-9.94.828c-2.761.246-5.622.512-8.523.825s-5.842.674-8.763,1.106-5.821.937-8.64,1.539-5.558,1.3-8.155,2.125c-1.011.321-2.092.694-3.171,1.118a32.893,32.893,0,0,0-3.154,1.423,17.061,17.061,0,0,0-2.7,1.716,7.265,7.265,0,0,0-1.812,2,3.014,3.014,0,0,0-.4,1.68,3.519,3.519,0,0,0,.593,1.722,5.075,5.075,0,0,0,1.573,1.492,7.923,7.923,0,0,0,2.541.989l-.886,1.042-.887,1.042-.886,1.042Z" transform="translate(-47.585 -141.109)"/></svg>