<svg id="Layer_1" data-name="Layer 1" xmlns="http://www.w3.org/2000/svg" viewBox="0 0 243.117 212.074"><defs><style>.cls-1{fill:#231f20;}</style></defs><path class="cls-1" d="M152.884,307.849a11.26,11.26,0,0,1-1.959-1.084,12.746,12.746,0,0,1-1.785-1.492,13.92,13.92,0,0,1-1.55-1.853,14.62,14.62,0,0,1-1.251-2.166,14.857,14.857,0,0,1-.89-2.433,15.072,15.072,0,0,1-.468-2.653,15.435,15.435,0,0,1,.018-2.825,16.361,16.361,0,0,1,.565-2.95,18.717,18.717,0,0,1,.672-1.932,19.427,19.427,0,0,1,.889-1.87,20.823,20.823,0,0,1,1.1-1.807q.606-.887,1.32-1.742t1.534-1.677q.819-.822,1.745-1.61t1.957-1.541q1.031-.753,2.167-1.471,1.71-1.08,3.484-2t3.589-1.7q1.815-.783,3.661-1.441t3.7-1.212q1.853-.555,3.7-1.019t3.673-.86q1.824-.4,3.61-.735c1.189-.228,2.363-.441,3.514-.645q1.942-.343,3.895-.667t3.912-.63q1.959-.307,3.922-.6t3.924-.57q1.962-.279,3.921-.547t3.909-.529q1.95-.261,3.89-.515l3.865-.507q4.506-.588,9.043-1.194t9.083-1.273q4.545-.666,9.086-1.418t9.051-1.633q4.511-.882,8.981-1.915t8.872-2.266q4.4-1.232,8.728-2.683t8.547-3.17c.41-.167.8-.341,1.174-.52s.723-.362,1.051-.549.633-.377.914-.568a9.527,9.527,0,0,0,.765-.577,6.232,6.232,0,0,0,.6-.574,3.9,3.9,0,0,0,.429-.561,2.134,2.134,0,0,0,.242-.539,1.254,1.254,0,0,0,.043-.5,1.3,1.3,0,0,0-.033-.171,1.881,1.881,0,0,0-.066-.2,2.592,2.592,0,0,0-.108-.236c-.043-.084-.094-.174-.155-.269s-.13-.2-.211-.306-.171-.221-.274-.342-.218-.246-.346-.38-.269-.273-.424-.419a19.053,19.053,0,0,0-1.73-1.448,22.721,22.721,0,0,0-1.892-1.264c-.655-.392-1.334-.757-2.031-1.1s-1.412-.658-2.143-.954-1.475-.572-2.23-.83-1.521-.5-2.293-.725-1.55-.44-2.331-.642-1.562-.4-2.342-.579q-5.048-1.194-10.159-2.124T254.7,228.992q-5.157-.709-10.35-1.222t-10.4-.876q-5.211-.363-10.428-.6t-10.425-.389q-5.208-.154-10.394-.25t-10.335-.179q-3.422-.054-6.87-.114t-6.917-.135q-3.468-.076-6.951-.176t-6.973-.237q-3.489-.138-6.983-.318t-6.98-.418q-3.487-.237-6.966-.538t-6.94-.679q-1.626-.177-3.317-.384t-3.427-.454q-1.737-.249-3.511-.548t-3.57-.66q-1.8-.363-3.6-.8t-3.608-.951q-1.8-.517-3.589-1.127t-3.543-1.325q-1.56-.636-2.958-1.357a30.1,30.1,0,0,1-2.626-1.52,25.07,25.07,0,0,1-2.285-1.672,20.368,20.368,0,0,1-1.932-1.813,17.149,17.149,0,0,1-1.569-1.942,14.786,14.786,0,0,1-1.2-2.06,13.365,13.365,0,0,1-.811-2.166,12.968,12.968,0,0,1-.416-2.262,13.257,13.257,0,0,1,.039-2.875,13.045,13.045,0,0,1,.654-2.764,14.412,14.412,0,0,1,1.256-2.636,17.3,17.3,0,0,1,1.847-2.494,22.059,22.059,0,0,1,2.423-2.338,28.782,28.782,0,0,1,2.987-2.167,37.868,37.868,0,0,1,3.538-1.982q1.9-.942,4.076-1.781,5.73-2.214,11.566-4.084t11.748-3.453q5.913-1.584,11.891-2.912t11.991-2.459q6.015-1.131,12.053-2.094t12.072-1.817q6.034-.854,12.052-1.627t11.991-1.527q3.8-.479,7.629-.965t7.676-1q3.846-.508,7.7-1.047t7.712-1.121q3.855-.582,7.7-1.216t7.675-1.333q3.828-.7,7.629-1.472t7.563-1.633q2.085-.477,4.245-1t4.365-1.129q2.207-.6,4.444-1.281t4.481-1.462q2.242-.781,4.476-1.672t4.428-1.912q2.2-1.02,4.34-2.18t4.209-2.477c.443-.283.885-.585,1.318-.9s.858-.653,1.266-1,.8-.708,1.163-1.078a14.3,14.3,0,0,0,1.012-1.135,10.01,10.01,0,0,0,.809-1.173,6.871,6.871,0,0,0,.559-1.191,4.69,4.69,0,0,0,.256-1.19,3.645,3.645,0,0,0-.094-1.168,3.872,3.872,0,0,0-.207-.606,5,5,0,0,0-.306-.6,6.79,6.79,0,0,0-.39-.582c-.143-.192-.3-.381-.459-.567s-.334-.37-.512-.55-.362-.358-.549-.532-.38-.345-.572-.512-.387-.331-.579-.49a61.874,61.874,0,0,0-5.341-3.961c-1.836-1.217-3.723-2.334-5.645-3.362s-3.878-1.967-5.854-2.826-3.97-1.639-5.968-2.349-4-1.352-5.987-1.934-3.963-1.1-5.91-1.579-3.866-.9-5.74-1.285-3.7-.733-5.473-1.052q-4.563-.82-9.146-1.489t-9.222-1.2q-4.638-.534-9.35-.942t-9.534-.713q-4.821-.3-9.77-.515T203,103.094q-5.112-.135-10.406-.206t-10.806-.095q-6.006-.027-12.268-.008t-12.734.121q-6.471.1-13.126.3t-13.445.542q-6.792.339-13.693.832t-13.866,1.176q-6.965.683-13.967,1.574t-14,2.025l-.14-.864-.14-.864-.141-.863-.14-.864-.14-.864-.14-.864-.14-.864-.14-.863q7.086-1.15,14.177-2.053T101.886,98.8q7.047-.693,14.024-1.193t13.84-.843q6.861-.343,13.582-.55t13.254-.309q6.532-.1,12.853-.123t12.38.009q5.58.025,10.942.1T203.3,96.1q5.181.138,10.2.352t9.913.524q4.894.311,9.683.727t9.507.961q4.72.544,9.389,1.225t9.326,1.52c1.875.337,3.815.706,5.8,1.117s4.025.865,6.094,1.372,4.17,1.068,6.288,1.694,4.252,1.317,6.386,2.084,4.268,1.61,6.386,2.541,4.22,1.949,6.289,3.066,4.107,2.332,6.1,3.658a69.068,69.068,0,0,1,5.806,4.317c.3.251.606.509.909.777s.606.545.9.833.592.586.877.895.562.63.828.963.518.679.756,1.039a12.713,12.713,0,0,1,.663,1.119,11.775,11.775,0,0,1,.549,1.206,11.062,11.062,0,0,1,.411,1.3,10.725,10.725,0,0,1,.181,4.332,11.883,11.883,0,0,1-.562,2.155A13.893,13.893,0,0,1,315,138a17.011,17.011,0,0,1-1.4,2.074,21.038,21.038,0,0,1-1.8,2.006A26.237,26.237,0,0,1,309.622,144q-1.191.936-2.569,1.817-2.235,1.425-4.539,2.677t-4.653,2.349q-2.347,1.1-4.726,2.053t-4.757,1.79q-2.38.834-4.748,1.559t-4.7,1.36q-2.328.636-4.6,1.194t-4.471,1.06q-3.825.876-7.683,1.66t-7.735,1.494q-3.877.709-7.77,1.351t-7.788,1.231q-3.9.59-7.789,1.133t-7.775,1.057q-3.881.514-7.742,1t-7.694.973q-5.9.743-11.833,1.507t-11.889,1.6q-5.95.84-11.9,1.787T160.4,176.716q-5.916,1.108-11.787,2.408t-11.664,2.847q-5.793,1.547-11.5,3.37t-11.283,3.979c-.489.189-1.058.419-1.678.69s-1.292.583-1.986.933-1.411.74-2.121,1.167A24.7,24.7,0,0,0,106.3,193.5a17.1,17.1,0,0,0-1.873,1.612,11.2,11.2,0,0,0-1.49,1.821A7.506,7.506,0,0,0,102,198.96a5.978,5.978,0,0,0,.219,3.932,7.581,7.581,0,0,0,.864,1.551,10.5,10.5,0,0,0,1.192,1.384,14.7,14.7,0,0,0,1.408,1.214c.493.376,1,.724,1.514,1.041s1.019.607,1.508.866.959.487,1.391.686.826.366,1.163.5q1.6.654,3.252,1.213t3.315,1.034q1.669.476,3.353.875t3.362.735q1.678.334,3.344.612t3.3.51q1.633.232,3.228.427t3.131.361q3.4.372,6.826.668t6.865.529q3.441.234,6.891.411t6.9.313q3.452.135,6.9.234t6.884.173q3.435.076,6.854.134t6.811.113q5.217.086,10.475.182t10.54.254q5.283.156,10.581.4t10.6.612q5.3.372,10.589.9t10.557,1.255q5.266.727,10.5,1.682t10.42,2.181c.9.213,1.8.435,2.7.671s1.8.486,2.7.755,1.789.556,2.673.866,1.759.644,2.622,1,1.713.75,2.546,1.172,1.65.875,2.446,1.366,1.572,1.019,2.322,1.588a26.844,26.844,0,0,1,2.173,1.838c.28.265.544.529.793.8s.482.531.7.8.42.535.606.8.358.539.514.81.3.545.421.819.236.55.332.828.175.558.241.839a8.409,8.409,0,0,1,.217,2.008,8.281,8.281,0,0,1-.125,1.338,8.511,8.511,0,0,1-.4,1.474,9.082,9.082,0,0,1-.758,1.564,10.651,10.651,0,0,1-1.2,1.607,13.58,13.58,0,0,1-1.729,1.6,18.726,18.726,0,0,1-2.342,1.552,26.585,26.585,0,0,1-3.04,1.454q-4.378,1.782-8.842,3.285t-8.993,2.775q-4.53,1.273-9.111,2.338t-9.2,1.97q-4.613.906-9.247,1.676t-9.268,1.45q-4.633.683-9.255,1.3t-9.209,1.216l-3.836.5q-1.925.252-3.86.511t-3.877.524q-1.941.267-3.886.542t-3.886.564q-1.941.289-3.878.591t-3.863.622q-1.928.32-3.84.658-1.605.284-3.262.6c-1.1.211-2.219.435-3.343.677s-2.256.5-3.39.785-2.269.589-3.4.923-2.26.7-3.378,1.09-2.226.822-3.318,1.287-2.169.968-3.225,1.514-2.088,1.133-3.095,1.769c-.391.248-.8.516-1.209.8s-.83.6-1.248.924-.835.674-1.245,1.041-.812.752-1.2,1.157-.761.828-1.112,1.269a15.547,15.547,0,0,0-.982,1.381,12.993,12.993,0,0,0-.809,1.49,11.4,11.4,0,0,0-.595,1.6,8.043,8.043,0,0,0-.25,1.263,9.046,9.046,0,0,0-.058,1.332,9.723,9.723,0,0,0,.134,1.348,9.214,9.214,0,0,0,.326,1.312,7.975,7.975,0,0,0,.515,1.223,6.675,6.675,0,0,0,.7,1.082,5.5,5.5,0,0,0,.892.887,4.754,4.754,0,0,0,1.078.641l-.344.805-.343.805-.344.8-.343.805-.344.805-.343.8-.344.805Z" transform="translate(-73.572 -95.775)"/></svg>