<svg id="Layer_1" data-name="Layer 1" xmlns="http://www.w3.org/2000/svg" viewBox="0 0 316.907 135.103"><defs><style>.cls-1{fill:#231f20;}</style></defs><path class="cls-1" d="M41.791,267.552l-.553-.678-.553-.678-.554-.678-.553-.678-.553-.678-.553-.678-.553-.678-.554-.678q4.683-3.822,9.582-7.381t9.99-6.844q5.091-3.285,10.362-6.289T78,235.9q5.425-2.711,10.993-5.122t11.251-4.51q5.684-2.1,11.472-3.88t11.655-3.23l.022-.006.022,0,.022-.006.022,0,.022-.006.022,0,.023,0,.022-.006.59-.146q.293-.073.579-.149t.563-.154c.185-.053.367-.107.545-.164s.352-.115.521-.177.335-.127.5-.2.316-.14.466-.216.294-.156.432-.241a5.826,5.826,0,0,0,.6-.422,7.493,7.493,0,0,0,.564-.5c.183-.179.362-.37.537-.57s.348-.412.517-.631.336-.447.5-.681.329-.475.492-.721.325-.5.487-.751.324-.513.488-.772l.037-.059.037-.059.037-.058.037-.059.038-.059.037-.058.037-.059.037-.059q2.517-3.976,5.419-7.8t6.17-7.469q3.27-3.648,6.9-7.117t7.594-6.743q3.966-3.274,8.263-6.346t8.905-5.927q4.608-2.855,9.52-5.485t10.107-5.019q4.765-2.193,9.645-4.146t9.822-3.7q4.942-1.746,9.922-3.3t9.948-2.943q4.968-1.392,9.9-2.636t9.772-2.374q4.842-1.128,9.571-2.157t9.294-1.987l2.714-.571,2.714-.57,2.714-.57,2.714-.57,2.715-.57,2.714-.57,2.714-.57,2.714-.571-2.406,1.378-2.407,1.378-2.407,1.378-2.407,1.378-2.407,1.378-2.407,1.378-2.407,1.378-2.406,1.378q-2.991,1.713-5.862,3.608t-5.614,3.965q-2.742,2.069-5.349,4.305t-5.067,4.629q-2.46,2.394-4.768,4.937t-4.453,5.228q-2.143,2.683-4.119,5.5t-3.768,5.76q-1.263,2.069-2.335,4.082t-1.954,3.968q-.882,1.954-1.573,3.85t-1.191,3.731q-.5,1.836-.809,3.609a33.69,33.69,0,0,0-.426,3.484,29.5,29.5,0,0,0-.043,3.357,26.854,26.854,0,0,0,.341,3.227q7.812-1.319,15.653-2.333t15.7-1.725q7.86-.711,15.736-1.119t15.759-.51q7.882-.1,15.768.1t15.763.706q7.878.5,15.746,1.314t15.716,1.923l-.123.866-.123.867-.122.866-.123.866-.123.866-.123.866-.123.867-.122.866q-7.917-1.124-15.852-1.931t-15.883-1.3q-7.947-.492-15.9-.671t-15.9-.042q-7.95.135-15.893.587t-15.867,1.215q-7.926.765-15.829,1.845t-15.777,2.473l-.383.068-.384.068-.384.068-.384.068-.384.068-.383.068-.384.068-.384.068-.112-.374-.111-.373-.112-.374-.112-.373-.111-.373-.112-.374-.112-.373-.112-.374a32.24,32.24,0,0,1-.958-4.223,33.995,33.995,0,0,1-.4-4.381,37.333,37.333,0,0,1,.165-4.535,42.482,42.482,0,0,1,.725-4.683,49.383,49.383,0,0,1,1.285-4.829q.782-2.449,1.843-4.97t2.4-5.106q1.339-2.588,2.957-5.239,1.313-2.154,2.718-4.244t2.9-4.117q1.493-2.025,3.07-3.984t3.237-3.845q1.659-1.887,3.4-3.7t3.553-3.551q1.815-1.737,3.7-3.4t3.846-3.234q-3.691.849-7.4,1.754t-7.422,1.881q-3.712.976-7.427,2.031t-7.414,2.207q-3.7,1.15-7.385,2.4t-7.338,2.627q-3.656,1.374-7.274,2.873t-7.191,3.143q-4.965,2.285-9.655,4.792t-9.087,5.226q-4.4,2.718-8.494,5.638T162.9,188.3q-3.779,3.109-7.228,6.4t-6.556,6.748q-3.1,3.456-5.857,7.073T138.13,215.9l-.036.058-.036.057-.037.057-.036.058-.036.057-.036.058-.036.057-.037.057q-.3.477-.611.965c-.209.325-.422.653-.643.981s-.449.656-.687.981-.484.648-.741.965-.527.63-.809.934-.577.6-.887.886-.635.56-.977.822a12.749,12.749,0,0,1-1.078.744q-.383.234-.772.438c-.259.136-.52.262-.782.38s-.524.226-.787.328-.526.2-.788.284-.524.17-.784.247-.518.15-.775.219-.509.135-.76.2l-.74.184-.022,0-.022.006-.021,0-.022.005-.022.006-.022,0-.021.006-.022,0q-5.679,1.4-11.283,3.127t-11.105,3.756q-5.5,2.031-10.892,4.366T81.124,242.16q-5.253,2.625-10.355,5.533t-10.031,6.088q-4.929,3.18-9.672,6.626T41.791,267.552Z" transform="translate(-37.365 -132.448)"/></svg>