<svg id="Layer_1" data-name="Layer 1" xmlns="http://www.w3.org/2000/svg" viewBox="0 0 220.626 248.847"><defs><style>.cls-1{fill:#231f20;}</style></defs><path class="cls-1" d="M87.541,304.565l-.771-2.5-.77-2.5-.77-2.5-.77-2.5q6.519-14.077,13.625-26.2a226.1,226.1,0,0,1,14.661-22.109,158.159,158.159,0,0,1,15.486-17.741,106.982,106.982,0,0,1,16.1-13.1l.031-.02.031-.02.03-.02.031-.021c.276-.18.549-.358.814-.543s.524-.377.771-.585a6.825,6.825,0,0,0,.709-.686,5.935,5.935,0,0,0,.625-.842,10.62,10.62,0,0,0,.808-1.7c.255-.66.5-1.406.734-2.213s.464-1.676.691-2.582.451-1.849.679-2.806l.052-.216.051-.216.052-.217.052-.216q3.5-14.651,8.068-28.118a267.84,267.84,0,0,1,10.087-25.53A216.281,216.281,0,0,1,180.6,126.272a169.622,169.622,0,0,1,13.664-19.347,150.633,150.633,0,0,1,13.552-14.448,157.776,157.776,0,0,1,13.834-11.5c4.611-3.417,9.2-6.454,13.694-9.227s8.9-5.279,13.133-7.634l3.779-2.1,3.779-2.1,3.78-2.1,3.779-2.1-3.351,5.076-3.352,5.076-3.351,5.076-3.351,5.077A135.4,135.4,0,0,0,242.2,89.97c-2.546,5.081-4.968,10.58-7.252,16.457s-4.429,12.131-6.419,18.722-3.826,13.518-5.491,20.741q-1.758,7.623-2.986,14.828t-1.924,13.964q-.7,6.761-.86,13.064t.208,12.127a124.723,124.723,0,0,1,21.828-7.475,110.5,110.5,0,0,1,21.926-3,108.513,108.513,0,0,1,21.952,1.479,118.726,118.726,0,0,1,21.9,5.963l-.171,3.191-.171,3.191-.171,3.191L304.4,209.6a116.532,116.532,0,0,0-22.093-5.954,106.606,106.606,0,0,0-22.141-1.315,109.177,109.177,0,0,0-22.111,3.321,124.552,124.552,0,0,0-22,7.952l-.535.251-.534.25-.535.251-.534.25-.155-1.376-.156-1.375-.155-1.376-.156-1.375a154.785,154.785,0,0,1-.943-15.849q-.079-8.213.62-16.979t2.177-18.048q1.478-9.281,3.73-19.056,1.829-7.929,3.908-15.4t4.391-14.421q2.31-6.953,4.839-13.358t5.256-12.209c-3.426,2.085-6.871,4.3-10.318,6.694s-6.9,4.98-10.333,7.806-6.858,5.9-10.25,9.268a148.827,148.827,0,0,0-10.07,11.08,162.932,162.932,0,0,0-13.048,18.452,206.076,206.076,0,0,0-11.395,21.492,252.616,252.616,0,0,0-9.6,24.216q-4.324,12.736-7.651,26.621l-.051.211-.05.212-.051.211-.05.211c-.278,1.169-.566,2.377-.873,3.585s-.636,2.415-1,3.584-.748,2.3-1.18,3.351a20.075,20.075,0,0,1-1.431,2.884,12.477,12.477,0,0,1-1.081,1.507,10.945,10.945,0,0,1-1.1,1.127,13.134,13.134,0,0,1-1.085.86c-.357.254-.706.482-1.045.7l-.03.02-.03.019-.031.02-.03.02a103.43,103.43,0,0,0-15.586,12.678A153.058,153.058,0,0,0,114.924,257.8a218.61,218.61,0,0,0-14.193,21.4Q93.869,290.915,87.541,304.565Z" transform="translate(-84.46 -55.718)"/></svg>