<svg id="Layer_1" data-name="Layer 1" xmlns="http://www.w3.org/2000/svg" viewBox="0 0 316.907 135.103"><defs><style>.cls-1{fill:#231f20;}</style></defs><path class="cls-1" d="M41.791,267.552,40.685,266.2l-1.107-1.356-1.106-1.356-1.107-1.356A217.279,217.279,0,0,1,56.937,247.9a221.623,221.623,0,0,1,43.3-21.635,217.116,217.116,0,0,1,23.127-7.11l.044-.011.044-.011.044-.011.045-.011c.4-.1.788-.194,1.169-.3s.752-.2,1.108-.318.7-.235,1.017-.372a6.209,6.209,0,0,0,2.059-1.38,11.658,11.658,0,0,0,1.054-1.2c.339-.438.667-.91.993-1.4s.648-1,.975-1.523l.074-.118.074-.117.075-.117.074-.118A115.3,115.3,0,0,1,143.8,196.887a133.825,133.825,0,0,1,14.49-13.86,155.773,155.773,0,0,1,17.168-12.273,180.279,180.279,0,0,1,19.627-10.5c6.355-2.923,12.877-5.517,19.467-7.844s13.247-4.388,19.87-6.242,13.214-3.5,19.67-5.01,12.778-2.866,18.865-4.144l5.428-1.141,5.428-1.14,5.429-1.14,5.428-1.141-4.813,2.756-4.814,2.756-4.814,2.756-4.813,2.756a109.472,109.472,0,0,0-39,37.933,73.59,73.59,0,0,0-4.289,8.05,51.252,51.252,0,0,0-2.764,7.581,36.444,36.444,0,0,0-1.235,7.093,28.028,28.028,0,0,0,.3,6.584q15.624-2.637,31.354-4.058t31.5-1.629q15.765-.207,31.531.8t31.462,3.237l-.246,1.733-.245,1.732-.246,1.732L353.29,216q-15.833-2.247-31.735-3.233t-31.8-.713q-15.9.271-31.76,1.8t-31.606,4.318l-.767.136-.768.136-.767.136-.768.136-.223-.747-.224-.747-.223-.747-.224-.747a32.876,32.876,0,0,1-1.354-8.6,39.575,39.575,0,0,1,.89-9.218,54.1,54.1,0,0,1,3.128-9.8,78.242,78.242,0,0,1,5.357-10.345q2.626-4.306,5.614-8.361t6.307-7.829q3.318-3.774,6.951-7.252t7.549-6.629c-4.921,1.132-9.869,2.333-14.821,3.635s-9.906,2.7-14.841,4.238-9.851,3.2-14.723,5.031-9.7,3.826-14.465,6.016a173.667,173.667,0,0,0-18.742,10.018A149.081,149.081,0,0,0,162.9,188.3a126.83,126.83,0,0,0-13.784,13.148A108.319,108.319,0,0,0,138.13,215.9l-.072.115-.073.115-.072.115-.073.114c-.4.635-.812,1.29-1.254,1.946s-.913,1.312-1.428,1.946a17.253,17.253,0,0,1-1.7,1.82,13.039,13.039,0,0,1-3.609,2.384c-.523.235-1.051.435-1.575.612s-1.046.328-1.559.466-1.014.262-1.5.382l-.044.011-.043.01-.044.011-.043.011a209.968,209.968,0,0,0-22.388,6.883,214.462,214.462,0,0,0-41.919,20.945A209.982,209.982,0,0,0,41.791,267.552Z" transform="translate(-37.365 -132.448)"/></svg>