<svg id="Layer_1" data-name="Layer 1" xmlns="http://www.w3.org/2000/svg" viewBox="0 0 220.626 248.847"><defs><style>.cls-1{fill:#231f20;}</style></defs><path class="cls-1" d="M87.541,304.565l-.385-1.249-.386-1.249-.385-1.248L86,299.57l-.385-1.249-.385-1.249-.385-1.249-.385-1.248q3.26-7.039,6.67-13.595t6.955-12.606q3.544-6.05,7.214-11.583t7.447-10.526q3.777-4.992,7.653-9.434t7.833-8.307q3.957-3.865,7.986-7.146a96.941,96.941,0,0,1,8.114-5.95l.016-.01.015-.01.015-.01.016-.01.015-.01.015-.01.016-.01.015-.011.411-.269c.136-.09.271-.181.4-.274s.264-.186.392-.284.255-.2.379-.3.245-.213.364-.327.233-.233.345-.359.22-.258.324-.4.2-.288.3-.444a8.066,8.066,0,0,0,.415-.776c.135-.285.265-.593.393-.923s.252-.682.374-1.051.242-.758.36-1.162.234-.823.349-1.254.229-.875.342-1.328.226-.915.339-1.384.226-.943.34-1.422l.026-.108.026-.108.026-.108.025-.108.026-.108.026-.109.026-.108.026-.108q1.752-7.324,3.772-14.362t4.3-13.756q2.275-6.72,4.8-13.109t5.286-12.421q2.762-6.03,5.753-11.689t6.2-10.917q3.209-5.258,6.627-10.1t7.037-9.245q3.318-4.038,6.715-7.635t6.837-6.813q3.441-3.215,6.908-6.075t6.926-5.422q3.459-2.564,6.891-4.855t6.8-4.372q3.371-2.079,6.663-3.974t6.47-3.66l1.89-1.051,1.889-1.05,1.89-1.05,1.889-1.05,1.89-1.05,1.89-1.05,1.889-1.05,1.89-1.05-1.676,2.538-1.675,2.538-1.676,2.538-1.676,2.538-1.675,2.538-1.676,2.538-1.675,2.539-1.676,2.538q-2.082,3.151-4.081,6.644t-3.908,7.3q-1.91,3.81-3.724,7.93t-3.528,8.527q-1.713,4.407-3.319,9.093t-3.1,9.629q-1.493,4.942-2.868,10.133t-2.623,10.608q-.879,3.812-1.626,7.52t-1.36,7.308q-.613,3.6-1.095,7.092t-.829,6.872q-.348,3.381-.563,6.647t-.3,6.417q-.081,3.15-.03,6.183t.238,5.944q5.438-2.427,10.9-4.3t10.931-3.179q5.472-1.309,10.955-2.059a108.746,108.746,0,0,1,10.971-.941,107.506,107.506,0,0,1,10.977.18,109.617,109.617,0,0,1,10.975,1.3q5.484.93,10.962,2.421t10.941,3.542l-.085,1.6-.086,1.595-.085,1.6-.086,1.595-.085,1.6-.086,1.595-.085,1.6-.086,1.6q-5.511-2.069-11.036-3.557a112.857,112.857,0,0,0-11.057-2.4,107.544,107.544,0,0,0-11.07-1.237,105.926,105.926,0,0,0-11.071-.078,107.166,107.166,0,0,0-11.064,1.082,111.546,111.546,0,0,0-11.047,2.239q-5.517,1.41-11.02,3.4t-10.983,4.555l-.268.125-.267.126-.267.125-.267.125-.267.125-.268.126-.267.125-.267.125-.078-.688-.077-.688-.078-.687-.078-.688-.078-.688-.077-.688-.078-.688-.078-.687q-.432-3.816-.667-7.78t-.276-8.069q-.039-4.105.115-8.352t.5-8.627q.35-4.381.894-8.894t1.283-9.154q.738-4.641,1.671-9.406t2.059-9.65q.913-3.964,1.892-7.816t2.016-7.582q1.04-3.732,2.137-7.338t2.254-7.083q1.155-3.475,2.365-6.817T232.016,96q1.263-3.2,2.578-6.253t2.678-5.956q-2.57,1.563-5.151,3.23t-5.167,3.464q-2.586,1.8-5.171,3.742t-5.162,4.064q-2.577,2.12-5.141,4.429t-5.109,4.839q-2.544,2.529-5.063,5.291t-5.007,5.789q-3.456,4.206-6.721,8.826t-6.327,9.626q-3.061,5.005-5.913,10.386t-5.482,11.106q-2.63,5.727-5.032,11.788T162.262,182.8q-2.163,6.368-4.078,13.03t-3.573,13.591l-.026.106-.025.1-.025.106-.025.106-.025.1-.026.106-.025.106-.025.105c-.139.585-.28,1.179-.426,1.778s-.294,1.2-.447,1.807-.313,1.207-.478,1.806-.337,1.194-.517,1.778-.366,1.159-.562,1.72-.4,1.105-.618,1.631-.442,1.033-.68,1.515-.488.941-.751,1.369q-.266.433-.537.808t-.544.7q-.274.324-.549.6t-.548.523c-.183.163-.365.314-.546.456s-.361.277-.539.4-.355.247-.529.364-.347.228-.516.339l-.015.01-.015.01-.015.01-.015.009-.016.01-.015.01-.015.01-.015.01a93.61,93.61,0,0,0-7.855,5.76q-3.9,3.172-7.731,6.918t-7.583,8.042q-3.75,4.3-7.408,9.133t-7.209,10.19q-3.55,5.353-6.984,11.214T94,291.4Q90.7,297.749,87.541,304.565Z" transform="translate(-84.46 -55.718)"/></svg>